<?xml version="1.0" encoding="UTF-8" standalone="no"?>
<!-- Created with Inkscape (http://www.inkscape.org/) -->

<svg
   width="128.18062mm"
   height="130.17535mm"
   viewBox="0 0 128.18062 130.17536"
   version="1.1"
   id="svg1"
   xmlns:inkscape="http://www.inkscape.org/namespaces/inkscape"
   xmlns:sodipodi="http://sodipodi.sourceforge.net/DTD/sodipodi-0.dtd"
   xmlns="http://www.w3.org/2000/svg"
   xmlns:svg="http://www.w3.org/2000/svg">
  <sodipodi:namedview
     id="namedview1"
     pagecolor="#ffffff"
     bordercolor="#666666"
     borderopacity="1.0"
     inkscape:showpageshadow="2"
     inkscape:pageopacity="0.0"
     inkscape:pagecheckerboard="0"
     inkscape:deskcolor="#d1d1d1"
     inkscape:document-units="mm" />
  <defs
     id="defs1">
    <clipPath
       clipPathUnits="userSpaceOnUse"
       id="clipPath18">
      <path
         d="M 0,0 H 595.276 V 841.89 H 0 Z"
         transform="translate(-297.46971,-756.85692)"
         id="path18" />
    </clipPath>
    <clipPath
       clipPathUnits="userSpaceOnUse"
       id="clipPath24">
      <path
         d="M 0,0 H 595.276 V 841.89 H 0 Z"
         transform="translate(-267.5872,-708.11232)"
         id="path24" />
    </clipPath>
    <clipPath
       clipPathUnits="userSpaceOnUse"
       id="clipPath26">
      <path
         d="M 0,0 H 595.276 V 841.89 H 0 Z"
         transform="translate(-264.58741,-711.53122)"
         id="path26" />
    </clipPath>
    <clipPath
       clipPathUnits="userSpaceOnUse"
       id="clipPath28">
      <path
         d="M 0,0 H 595.276 V 841.89 H 0 Z"
         transform="translate(-267.73021,-720.67872)"
         id="path28" />
    </clipPath>
    <clipPath
       clipPathUnits="userSpaceOnUse"
       id="clipPath34">
      <path
         d="M 0,0 H 595.276 V 841.89 H 0 Z"
         transform="translate(-276.70971,-744.13282)"
         id="path34" />
    </clipPath>
    <clipPath
       clipPathUnits="userSpaceOnUse"
       id="clipPath37">
      <path
         d="M 0,0 H 595.276 V 841.89 H 0 Z"
         transform="translate(-284.42551,-747.15802)"
         id="path37" />
    </clipPath>
    <clipPath
       clipPathUnits="userSpaceOnUse"
       id="clipPath41">
      <path
         d="M 0,0 H 595.276 V 841.89 H 0 Z"
         transform="translate(-301.72851,-750.90212)"
         id="path41" />
    </clipPath>
    <clipPath
       clipPathUnits="userSpaceOnUse"
       id="clipPath44">
      <path
         d="M 0,0 H 595.276 V 841.89 H 0 Z"
         transform="translate(-311.31521,-748.23052)"
         id="path44" />
    </clipPath>
    <clipPath
       clipPathUnits="userSpaceOnUse"
       id="clipPath46">
      <path
         d="M 0,0 H 595.276 V 841.89 H 0 Z"
         transform="translate(-318.09771,-742.57642)"
         id="path46" />
    </clipPath>
    <clipPath
       clipPathUnits="userSpaceOnUse"
       id="clipPath48">
      <path
         d="M 0,0 H 595.276 V 841.89 H 0 Z"
         transform="translate(-322.68381,-740.07282)"
         id="path48" />
    </clipPath>
    <clipPath
       clipPathUnits="userSpaceOnUse"
       id="clipPath50">
      <path
         d="M 0,0 H 595.276 V 841.89 H 0 Z"
         transform="translate(-323.42921,-737.05862)"
         id="path50" />
    </clipPath>
    <clipPath
       clipPathUnits="userSpaceOnUse"
       id="clipPath52">
      <path
         d="M 0,0 H 595.276 V 841.89 H 0 Z"
         transform="translate(-324.91141,-730.47852)"
         id="path52" />
    </clipPath>
    <clipPath
       clipPathUnits="userSpaceOnUse"
       id="clipPath54">
      <path
         d="M 0,0 H 595.276 V 841.89 H 0 Z"
         transform="translate(-326.66871,-726.32282)"
         id="path54" />
    </clipPath>
    <clipPath
       clipPathUnits="userSpaceOnUse"
       id="clipPath56">
      <path
         d="M 0,0 H 595.276 V 841.89 H 0 Z"
         transform="translate(-328.10961,-720.04862)"
         id="path56" />
    </clipPath>
    <clipPath
       clipPathUnits="userSpaceOnUse"
       id="clipPath58">
      <path
         d="M 0,0 H 595.276 V 841.89 H 0 Z"
         transform="translate(-330.64671,-716.30102)"
         id="path58" />
    </clipPath>
    <clipPath
       clipPathUnits="userSpaceOnUse"
       id="clipPath60">
      <path
         d="M 0,0 H 595.276 V 841.89 H 0 Z"
         transform="translate(-329.61061,-707.32202)"
         id="path60" />
    </clipPath>
    <clipPath
       clipPathUnits="userSpaceOnUse"
       id="clipPath66">
      <path
         d="M 0,0 H 595.276 V 841.89 H 0 Z"
         transform="translate(-286.00681,-682.78631)"
         id="path66" />
    </clipPath>
    <clipPath
       clipPathUnits="userSpaceOnUse"
       id="clipPath69">
      <path
         d="M 0,0 H 595.276 V 841.89 H 0 Z"
         transform="translate(-297.853,-683.88482)"
         id="path69" />
    </clipPath>
    <clipPath
       clipPathUnits="userSpaceOnUse"
       id="clipPath71">
      <path
         d="M 0,0 H 595.276 V 841.89 H 0 Z"
         transform="translate(-303.48071,-683.34371)"
         id="path71" />
    </clipPath>
    <clipPath
       clipPathUnits="userSpaceOnUse"
       id="clipPath73">
      <path
         d="M 0,0 H 595.276 V 841.89 H 0 Z"
         transform="translate(-307.43481,-682.25981)"
         id="path73" />
    </clipPath>
  </defs>
  <g
     inkscape:label="Layer 1"
     inkscape:groupmode="layer"
     id="layer1"
     transform="translate(-118.70173,-80.635466)">
    <path
       id="path17"
       d="m 0,0 c -22.181,0 -40.162,-18.261 -40.162,-40.787 0,-22.526 17.981,-40.787 40.162,-40.787 22.181,0 40.162,18.261 40.162,40.787 C 40.162,-18.261 22.181,0 0,0 m 0,-68.251 c -14.936,0 -27.044,12.296 -27.044,27.464 0,15.168 12.108,27.464 27.044,27.464 14.936,0 27.043,-12.296 27.043,-27.464 0,-15.168 -12.107,-27.464 -27.043,-27.464"
       style="fill:#e32726;fill-opacity:1;fill-rule:nonzero;stroke:none"
       transform="matrix(1.5957947,0,0,-1.5957947,182.79204,80.635466)"
       clip-path="url(#clipPath18)" />
    <path
       id="path19"
       d="M 217.55243,133.95624 H 194.3783 v -23.5348 h -23.17251 v 23.5348 h -23.17414 v 23.53317 h 23.17414 v 23.53479 h 23.17251 v -23.53479 h 23.17413 z"
       style="fill:#e32726;fill-opacity:1;fill-rule:nonzero;stroke:none;stroke-width:1.5958" />
    <path
       id="path20"
       d="m 145.14515,184.74384 -1.06759,0.98301 -4.29109,-4.80655 1.06917,-0.98138 1.56867,1.75856 4.70762,-4.33579 1.15213,1.28939 -4.70757,4.33578 z"
       style="fill:#ffffff icc-color(sRGB-IEC61966-2, 0.1, 1, 1, 1);fill-opacity:1;fill-rule:nonzero;stroke:none;stroke-width:1.5958" />
    <path
       id="path21"
       d="m 137.72487,178.03145 2.49106,-1.68198 -1.74744,-2.66815 -2.491,1.68356 -0.94949,-1.4506 6.49169,-4.38365 0.94791,1.44902 -2.79906,1.89101 1.74738,2.66815 2.79906,-1.89101 0.94949,1.44897 -6.49169,4.38365 z"
       style="fill:#ffffff icc-color(sRGB-IEC61966-2, 0.1, 1, 1, 1);fill-opacity:1;fill-rule:nonzero;stroke:none;stroke-width:1.5958" />
    <path
       id="path22"
       d="m 131.43059,166.36268 1.30856,-0.61438 1.72504,3.7964 1.51601,-0.71173 -1.58305,-3.4836 1.20963,-0.56652 1.58301,3.4836 1.73463,-0.81383 -1.76173,-3.87461 1.31015,-0.61597 2.47983,5.45762 -7.07893,3.31926 z"
       style="fill:#ffffff icc-color(sRGB-IEC61966-2, 0.1, 1, 1, 1);fill-opacity:1;fill-rule:nonzero;stroke:none;stroke-width:1.5958" />
    <path
       id="path23"
       d="M 0,0 C 0.098,0.084 0.17,0.183 0.218,0.297 0.264,0.409 0.29,0.535 0.293,0.674 0.297,0.812 0.283,0.952 0.251,1.092 0.23,1.187 0.199,1.286 0.159,1.391 0.119,1.496 0.066,1.591 0,1.675 -0.065,1.76 -0.144,1.824 -0.237,1.87 -0.329,1.915 -0.435,1.923 -0.555,1.895 -0.684,1.865 -0.779,1.799 -0.84,1.697 -0.901,1.595 -0.943,1.469 -0.966,1.322 -0.989,1.174 -1,1.01 -1.002,0.829 -1.003,0.648 -1.008,0.463 -1.017,0.276 -1.021,0.085 -1.035,-0.104 -1.061,-0.29 c -0.026,-0.187 -0.075,-0.359 -0.146,-0.519 -0.072,-0.16 -0.176,-0.298 -0.31,-0.417 -0.134,-0.12 -0.31,-0.206 -0.528,-0.256 -0.244,-0.057 -0.468,-0.053 -0.673,0.01 -0.204,0.064 -0.386,0.168 -0.544,0.312 -0.159,0.144 -0.292,0.317 -0.398,0.52 -0.107,0.204 -0.185,0.414 -0.234,0.63 -0.057,0.253 -0.085,0.502 -0.081,0.748 0.003,0.246 0.046,0.473 0.13,0.683 0.083,0.21 0.21,0.39 0.38,0.541 0.169,0.152 0.391,0.259 0.667,0.323 l 0.233,-1.03 C -2.706,1.213 -2.817,1.155 -2.898,1.082 -2.98,1.008 -3.038,0.922 -3.072,0.824 -3.106,0.725 -3.121,0.618 -3.119,0.503 c 0.003,-0.116 0.02,-0.24 0.049,-0.37 0.019,-0.087 0.048,-0.17 0.085,-0.251 0.037,-0.083 0.086,-0.153 0.146,-0.213 0.06,-0.059 0.129,-0.104 0.206,-0.133 0.077,-0.03 0.166,-0.033 0.268,-0.009 0.094,0.021 0.166,0.057 0.215,0.106 0.05,0.05 0.087,0.134 0.112,0.252 0.025,0.117 0.041,0.275 0.047,0.474 0.007,0.199 0.013,0.458 0.021,0.778 -0.003,0.094 10e-4,0.227 0.012,0.399 0.01,0.171 0.049,0.348 0.115,0.529 0.066,0.182 0.172,0.352 0.317,0.506 0.146,0.155 0.352,0.264 0.619,0.325 0.218,0.052 0.429,0.056 0.636,0.013 C -0.066,2.867 0.125,2.777 0.299,2.64 0.472,2.502 0.625,2.316 0.757,2.083 0.89,1.851 0.993,1.568 1.068,1.239 1.128,0.972 1.154,0.707 1.146,0.441 1.138,0.175 1.087,-0.069 0.993,-0.293 0.898,-0.518 0.757,-0.711 0.569,-0.874 0.381,-1.035 0.14,-1.149 -0.155,-1.213 l -0.232,1.03 C -0.227,-0.146 -0.098,-0.085 0,0"
       style="fill:#ffffff icc-color(sRGB-IEC61966-2, 0.1, 1, 1, 1);fill-opacity:1;fill-rule:nonzero;stroke:none"
       transform="matrix(1.5957947,0,0,-1.5957947,135.10572,158.42184)"
       clip-path="url(#clipPath24)" />
    <path
       id="path25"
       d="m 0,0 c -0.319,0.09 -0.602,0.232 -0.848,0.424 -0.246,0.192 -0.444,0.435 -0.596,0.729 -0.152,0.294 -0.241,0.63 -0.266,1.009 -0.025,0.384 0.019,0.73 0.131,1.04 0.113,0.309 0.278,0.576 0.496,0.8 0.218,0.223 0.48,0.401 0.785,0.533 C 0.006,4.667 0.34,4.745 0.704,4.77 1.059,4.794 1.394,4.762 1.709,4.672 2.023,4.582 2.301,4.44 2.542,4.247 2.783,4.054 2.979,3.813 3.129,3.521 3.278,3.229 3.365,2.892 3.391,2.508 3.416,2.129 3.373,1.784 3.263,1.472 3.153,1.161 2.991,0.893 2.778,0.67 2.563,0.446 2.307,0.269 2.008,0.137 1.707,0.005 1.38,-0.073 1.025,-0.098 0.66,-0.122 0.319,-0.089 0,0 M 1.545,1.105 C 1.736,1.167 1.905,1.255 2.052,1.373 2.2,1.489 2.315,1.636 2.397,1.814 2.479,1.991 2.512,2.203 2.496,2.447 2.48,2.692 2.42,2.896 2.315,3.062 2.211,3.226 2.077,3.357 1.916,3.453 1.754,3.548 1.575,3.614 1.378,3.65 1.182,3.684 0.981,3.695 0.776,3.681 0.562,3.667 0.357,3.629 0.16,3.566 -0.037,3.505 -0.211,3.415 -0.361,3.298 -0.511,3.181 -0.627,3.033 -0.709,2.857 -0.792,2.679 -0.824,2.468 -0.809,2.223 -0.792,1.978 -0.731,1.773 -0.627,1.608 -0.523,1.444 -0.388,1.314 -0.225,1.218 -0.06,1.122 0.124,1.057 0.327,1.022 0.53,0.987 0.739,0.976 0.953,0.991 1.158,1.005 1.355,1.043 1.545,1.105"
       style="fill:#ffffff icc-color(sRGB-IEC61966-2, 0.1, 1, 1, 1);fill-opacity:1;fill-rule:nonzero;stroke:none"
       transform="matrix(1.5957947,0,0,-1.5957947,130.31862,152.96598)"
       clip-path="url(#clipPath26)" />
    <path
       id="path27"
       d="m 0,0 c 0.283,-0.406 0.393,-0.938 0.328,-1.598 -0.066,-0.668 -0.275,-1.17 -0.629,-1.504 -0.354,-0.334 -0.862,-0.467 -1.525,-0.4 l -3.023,0.306 0.107,1.086 3.023,-0.307 c 0.132,-0.013 0.262,-0.014 0.392,-0.005 0.129,0.011 0.246,0.048 0.351,0.112 0.105,0.063 0.194,0.158 0.269,0.283 0.074,0.125 0.121,0.299 0.143,0.519 0.038,0.387 -0.021,0.664 -0.176,0.829 -0.156,0.164 -0.416,0.265 -0.779,0.302 l -3.023,0.306 0.107,1.086 3.023,-0.306 C -0.754,0.642 -0.284,0.405 0,0"
       style="fill:#ffffff icc-color(sRGB-IEC61966-2, 0.1, 1, 1, 1);fill-opacity:1;fill-rule:nonzero;stroke:none"
       transform="matrix(1.5957947,0,0,-1.5957947,135.33388,138.36843)"
       clip-path="url(#clipPath28)" />
    <path
       id="path29"
       d="m 129.97026,135.33613 -1.39632,-0.36369 1.57984,-6.28424 1.39632,0.36233 -0.5777,2.29953 6.15659,1.59581 -0.42295,1.68835 -6.15813,-1.59739 z"
       style="fill:#ffffff icc-color(sRGB-IEC61966-2, 0.1, 1, 1, 1);fill-opacity:1;fill-rule:nonzero;stroke:none;stroke-width:1.5958" />
    <path
       id="path30"
       d="m 131.38336,125.37179 2.75432,1.18565 1.23198,-2.95218 -2.75595,-1.1857 0.66867,-1.60218 7.17945,3.08788 -0.66862,1.60219 -3.09744,-1.32933 -1.23035,2.95064 3.09581,1.33087 -0.66862,1.60218 -7.17787,-3.08784 z"
       style="fill:#ffffff icc-color(sRGB-IEC61966-2, 0.1, 1, 1, 1);fill-opacity:1;fill-rule:nonzero;stroke:none;stroke-width:1.5958" />
    <path
       id="path31"
       d="m 138.43982,112.42974 8.03801,2.19902 -1.03566,1.46973 -1.7554,-0.53938 -1.69631,2.40963 1.05642,1.5304 -1.00377,1.42504 -4.62461,-7.04067 z m 3.9464,2.74636 -2.89799,-0.87928 -0.0136,0.0181 1.73784,2.52932 z"
       style="fill:#ffffff icc-color(sRGB-IEC61966-2, 0.1, 1, 1, 1);fill-opacity:1;fill-rule:nonzero;stroke:none;stroke-width:1.5958" />
    <path
       id="path32"
       d="m 144.96598,104.86218 1.04366,1.01173 -2.60115,2.76549 1.30218,1.26387 2.25325,-2.39687 0.96546,0.93356 -2.25488,2.39846 2.32988,2.25805 -1.1825,1.25907 -5.63955,-5.46558 z"
       style="fill:#ffffff icc-color(sRGB-IEC61966-2, 0.1, 1, 1, 1);fill-opacity:1;fill-rule:nonzero;stroke:none;stroke-width:1.5958" />
    <path
       id="path33"
       d="M 0,0 C 0.173,0.137 0.35,0.231 0.532,0.285 0.714,0.337 0.892,0.354 1.067,0.334 1.241,0.314 1.405,0.26 1.556,0.172 1.708,0.083 1.842,-0.036 1.957,-0.185 2.133,-0.415 2.239,-0.653 2.273,-0.896 2.307,-1.139 2.25,-1.39 2.102,-1.649 L 2.11,-1.66 c 0.127,0.054 0.248,0.077 0.362,0.071 0.115,-0.006 0.225,-0.033 0.331,-0.08 0.107,-0.048 0.208,-0.113 0.304,-0.196 0.095,-0.083 0.184,-0.171 0.267,-0.264 0.051,-0.059 0.112,-0.129 0.18,-0.21 0.068,-0.082 0.14,-0.162 0.217,-0.243 0.076,-0.08 0.154,-0.152 0.234,-0.215 0.081,-0.063 0.162,-0.106 0.243,-0.129 L 3.402,-3.598 C 3.26,-3.51 3.117,-3.385 2.975,-3.222 2.832,-3.06 2.689,-2.909 2.546,-2.769 2.36,-2.588 2.184,-2.486 2.018,-2.465 1.851,-2.445 1.662,-2.519 1.45,-2.686 l -0.846,-0.672 1.175,-1.528 -0.846,-0.672 -3.009,3.91 z m 1.059,-2.009 c 0.194,0.154 0.306,0.313 0.336,0.478 0.029,0.165 -0.032,0.345 -0.184,0.543 -0.146,0.189 -0.3,0.289 -0.464,0.298 -0.162,0.009 -0.341,-0.064 -0.535,-0.218 l -0.927,-0.737 0.846,-1.1 z"
       style="fill:#ffffff icc-color(sRGB-IEC61966-2, 0.1, 1, 1, 1);fill-opacity:1;fill-rule:nonzero;stroke:none"
       transform="matrix(1.5957947,0,0,-1.5957947,149.66333,100.94052)"
       clip-path="url(#clipPath34)" />
    <path
       id="path35"
       d="m 154.69777,97.520247 4.08044,6.747003 -1.46173,0.91121 -4.07885,-6.745414 z"
       style="fill:#ffffff icc-color(sRGB-IEC61966-2, 0.1, 1, 1, 1);fill-opacity:1;fill-rule:nonzero;stroke:none;stroke-width:1.5958" />
    <path
       id="path36"
       d="M 0,0 C -0.101,0.068 -0.211,0.116 -0.331,0.146 -0.451,0.177 -0.575,0.187 -0.703,0.175 -0.831,0.163 -0.954,0.128 -1.074,0.072 -1.293,-0.032 -1.46,-0.163 -1.573,-0.321 -1.687,-0.48 -1.758,-0.654 -1.787,-0.844 c -0.028,-0.19 -0.022,-0.388 0.019,-0.593 0.042,-0.205 0.107,-0.407 0.198,-0.604 0.086,-0.188 0.193,-0.362 0.317,-0.52 0.126,-0.158 0.269,-0.286 0.429,-0.384 0.16,-0.098 0.337,-0.153 0.53,-0.168 0.192,-0.013 0.398,0.031 0.617,0.135 0.298,0.141 0.488,0.343 0.571,0.607 0.083,0.265 0.073,0.557 -0.028,0.876 L 1.809,-1.05 C 1.913,-1.341 1.965,-1.626 1.966,-1.902 1.966,-2.177 1.919,-2.435 1.823,-2.675 1.726,-2.916 1.583,-3.131 1.394,-3.322 1.205,-3.514 0.974,-3.674 0.701,-3.803 0.362,-3.963 0.029,-4.047 -0.296,-4.056 c -0.326,-0.007 -0.63,0.049 -0.912,0.171 -0.283,0.122 -0.538,0.3 -0.768,0.538 -0.229,0.236 -0.418,0.518 -0.568,0.846 -0.154,0.335 -0.248,0.671 -0.28,1.005 -0.033,0.336 -0.005,0.654 0.083,0.956 0.088,0.302 0.24,0.578 0.454,0.828 0.215,0.249 0.493,0.455 0.832,0.616 0.244,0.115 0.49,0.188 0.74,0.219 0.25,0.032 0.492,0.019 0.727,-0.036 C 0.246,1.032 0.465,0.929 0.669,0.781 0.873,0.631 1.049,0.434 1.198,0.187 L 0.254,-0.259 C 0.185,-0.153 0.101,-0.067 0,0"
       style="fill:#ffffff icc-color(sRGB-IEC61966-2, 0.1, 1, 1, 1);fill-opacity:1;fill-rule:nonzero;stroke:none"
       transform="matrix(1.5957947,0,0,-1.5957947,161.97615,96.112891)"
       clip-path="url(#clipPath37)" />
    <path
       id="path38"
       d="m 168.55307,91.60304 4.93736,6.80766 -1.71228,0.493108 -1.04204,-1.533561 -2.80381,0.810659 -0.11308,1.865494 -1.65964,0.48031 0.70377,-8.433774 z m 1.40269,4.645376 -1.72825,-2.521361 -0.0226,0.0045 -0.19451,3.075083 z"
       style="fill:#ffffff icc-color(sRGB-IEC61966-2, 0.1, 1, 1, 1);fill-opacity:1;fill-rule:nonzero;stroke:none;stroke-width:1.5958" />
    <path
       id="path39"
       d="m 174.7036,90.300539 3.84267,4.887927 0.0226,-0.0016 -0.61121,-5.275728 1.59422,-0.191344 0.91117,7.864081 -1.7027,0.202654 -3.82992,-4.876754 h -0.0226 l 0.60959,5.264555 -1.59422,0.189987 -0.91117,-7.862498 z"
       style="fill:#ffffff icc-color(sRGB-IEC61966-2, 0.1, 1, 1, 1);fill-opacity:1;fill-rule:nonzero;stroke:none;stroke-width:1.5958" />
    <path
       id="path40"
       d="M 0,0 C 0.218,-0.023 0.411,-0.079 0.578,-0.17 0.745,-0.26 0.885,-0.373 0.997,-0.511 1.108,-0.649 1.189,-0.803 1.238,-0.973 1.287,-1.144 1.302,-1.323 1.283,-1.513 1.253,-1.803 1.167,-2.047 1.025,-2.247 0.883,-2.446 0.67,-2.586 0.387,-2.668 L 0.385,-2.681 C 0.513,-2.733 0.616,-2.801 0.694,-2.886 0.772,-2.971 0.834,-3.068 0.877,-3.178 0.921,-3.287 0.949,-3.406 0.961,-3.532 0.973,-3.659 0.978,-3.786 0.974,-3.911 0.971,-3.99 0.965,-4.083 0.959,-4.189 0.952,-4.296 0.95,-4.404 0.95,-4.517 0.949,-4.628 0.957,-4.735 0.972,-4.836 0.986,-4.938 1.015,-5.026 1.058,-5.101 l -1.068,0.114 c -0.043,0.163 -0.06,0.353 -0.051,0.571 0.008,0.218 0.009,0.428 0.002,0.628 -0.01,0.262 -0.067,0.46 -0.173,0.591 -0.106,0.134 -0.292,0.214 -0.56,0.242 l -1.068,0.112 -0.199,-1.928 -1.068,0.114 0.507,4.935 z m -0.61,-2.192 c 0.245,-0.026 0.434,0.01 0.568,0.108 0.134,0.098 0.214,0.27 0.24,0.52 0.024,0.239 -0.019,0.419 -0.131,0.54 -0.112,0.121 -0.29,0.195 -0.535,0.221 l -1.17,0.126 -0.143,-1.39 z"
       style="fill:#ffffff icc-color(sRGB-IEC61966-2, 0.1, 1, 1, 1);fill-opacity:1;fill-rule:nonzero;stroke:none"
       transform="matrix(1.5957947,0,0,-1.5957947,189.58821,90.1381)"
       clip-path="url(#clipPath41)" />
    <path
       id="path42"
       d="m 199.74658,92.333451 -0.3655,1.415453 -3.98151,-1.058005 -0.4243,1.638869 3.65599,0.97346 -0.33836,1.306933 -3.65436,-0.970203 -0.48352,1.876625 4.06605,1.081979 -0.3655,1.415448 -5.72415,-1.523967 1.97402,-7.656634 z"
       style="fill:#ffffff icc-color(sRGB-IEC61966-2, 0.1, 1, 1, 1);fill-opacity:1;fill-rule:nonzero;stroke:none;stroke-width:1.5958" />
    <path
       id="path43"
       d="M 0,0 C 0.289,-0.128 0.537,-0.294 0.745,-0.497 0.954,-0.701 1.11,-0.937 1.211,-1.204 1.312,-1.472 1.355,-1.768 1.336,-2.094 1.318,-2.42 1.228,-2.771 1.066,-3.149 0.924,-3.48 0.75,-3.767 0.547,-4.01 0.342,-4.253 0.112,-4.439 -0.145,-4.568 c -0.257,-0.129 -0.537,-0.196 -0.84,-0.2 -0.303,-0.005 -0.626,0.068 -0.969,0.22 l -1.931,0.856 1.953,4.547 z m -1.661,-3.677 c 0.141,-0.063 0.29,-0.101 0.444,-0.114 0.153,-0.011 0.306,0.014 0.457,0.076 0.151,0.062 0.295,0.166 0.432,0.312 0.138,0.147 0.261,0.344 0.368,0.595 0.099,0.229 0.166,0.446 0.201,0.65 0.036,0.205 0.032,0.395 -0.013,0.571 -0.043,0.176 -0.133,0.335 -0.267,0.479 -0.136,0.143 -0.325,0.268 -0.567,0.376 l -0.702,0.31 -1.232,-2.865 z"
       style="fill:#ffffff icc-color(sRGB-IEC61966-2, 0.1, 1, 1, 1);fill-opacity:1;fill-rule:nonzero;stroke:none"
       transform="matrix(1.5957947,0,0,-1.5957947,204.8866,94.40142)"
       clip-path="url(#clipPath44)" />
    <path
       id="path45"
       d="M 0,0 C 0.01,0.124 0,0.245 -0.031,0.366 -0.062,0.487 -0.114,0.602 -0.185,0.71 -0.256,0.818 -0.345,0.914 -0.451,0.993 -0.646,1.139 -0.838,1.225 -1.03,1.251 -1.221,1.276 -1.405,1.256 -1.583,1.191 -1.761,1.126 -1.929,1.026 -2.087,0.891 -2.245,0.757 -2.388,0.601 -2.516,0.427 -2.637,0.259 -2.737,0.082 -2.814,-0.105 c -0.077,-0.187 -0.12,-0.376 -0.127,-0.566 -0.008,-0.191 0.028,-0.375 0.108,-0.552 0.08,-0.179 0.217,-0.341 0.411,-0.488 0.264,-0.198 0.53,-0.271 0.798,-0.219 0.268,0.052 0.516,0.201 0.745,0.444 l 0.835,-0.629 c -0.204,-0.232 -0.425,-0.415 -0.663,-0.548 -0.238,-0.132 -0.484,-0.213 -0.738,-0.241 -0.253,-0.028 -0.508,-0.004 -0.763,0.074 -0.257,0.077 -0.506,0.206 -0.748,0.389 -0.3,0.225 -0.532,0.482 -0.694,0.768 -0.163,0.287 -0.259,0.586 -0.288,0.896 -0.03,0.31 0.004,0.624 0.099,0.941 0.095,0.318 0.248,0.621 0.46,0.912 0.217,0.298 0.463,0.541 0.737,0.73 0.274,0.188 0.563,0.316 0.866,0.381 0.303,0.066 0.614,0.064 0.933,-0.009 C -0.524,2.106 -0.214,1.957 0.086,1.73 0.302,1.567 0.484,1.382 0.63,1.174 0.776,0.966 0.881,0.744 0.945,0.509 1.01,0.274 1.026,0.029 0.995,-0.225 0.963,-0.478 0.876,-0.729 0.733,-0.979 l -0.835,0.628 C -0.044,-0.239 -0.009,-0.122 0,0"
       style="fill:#ffffff icc-color(sRGB-IEC61966-2, 0.1, 1, 1, 1);fill-opacity:1;fill-rule:nonzero;stroke:none"
       transform="matrix(1.5957947,0,0,-1.5957947,215.7101,103.4242)"
       clip-path="url(#clipPath46)" />
    <path
       id="path47"
       d="M 0,0 C 0.153,-0.16 0.265,-0.329 0.337,-0.506 0.409,-0.684 0.445,-0.863 0.444,-1.041 0.443,-1.219 0.407,-1.39 0.337,-1.553 0.267,-1.716 0.165,-1.863 0.031,-1.996 -0.175,-2.198 -0.395,-2.331 -0.63,-2.392 -0.865,-2.452 -1.116,-2.421 -1.386,-2.3 L -1.395,-2.309 C -1.329,-2.431 -1.293,-2.55 -1.287,-2.667 -1.28,-2.783 -1.294,-2.898 -1.33,-3.01 -1.366,-3.123 -1.419,-3.232 -1.489,-3.338 -1.561,-3.442 -1.637,-3.542 -1.719,-3.636 -1.771,-3.694 -1.833,-3.762 -1.906,-3.84 -1.978,-3.917 -2.048,-3.999 -2.119,-4.085 -2.19,-4.17 -2.251,-4.258 -2.304,-4.345 -2.357,-4.433 -2.39,-4.52 -2.404,-4.606 l -0.75,0.783 c 0.07,0.153 0.178,0.31 0.322,0.472 0.144,0.162 0.277,0.322 0.398,0.481 0.158,0.208 0.238,0.397 0.24,0.568 0.002,0.169 -0.09,0.353 -0.278,0.547 l -0.749,0.783 -1.368,-1.351 -0.75,0.781 3.503,3.46 z m -1.851,-1.286 c 0.172,-0.179 0.34,-0.275 0.504,-0.287 0.164,-0.012 0.335,0.069 0.512,0.243 0.169,0.169 0.25,0.335 0.241,0.5 -0.009,0.166 -0.099,0.338 -0.271,0.518 l -0.821,0.857 -0.986,-0.974 z"
       style="fill:#ffffff icc-color(sRGB-IEC61966-2, 0.1, 1, 1, 1);fill-opacity:1;fill-rule:nonzero;stroke:none"
       transform="matrix(1.5957947,0,0,-1.5957947,223.02855,107.41946)"
       clip-path="url(#clipPath48)" />
    <path
       id="path49"
       d="M 0,0 C 0.319,0.09 0.633,0.116 0.941,0.08 1.25,0.043 1.542,-0.062 1.822,-0.235 2.1,-0.408 2.346,-0.651 2.56,-0.963 2.775,-1.279 2.913,-1.599 2.973,-1.923 3.032,-2.248 3.025,-2.563 2.951,-2.868 2.877,-3.175 2.742,-3.464 2.548,-3.735 2.353,-4.007 2.106,-4.249 1.806,-4.46 1.513,-4.665 1.209,-4.811 0.894,-4.898 0.579,-4.984 0.269,-5.009 -0.036,-4.969 c -0.305,0.04 -0.594,0.146 -0.87,0.318 -0.275,0.172 -0.521,0.417 -0.737,0.733 -0.213,0.312 -0.35,0.631 -0.413,0.956 -0.065,0.324 -0.061,0.638 0.01,0.941 0.071,0.304 0.202,0.589 0.393,0.859 0.19,0.269 0.432,0.507 0.724,0.713 0.3,0.211 0.61,0.36 0.929,0.449 M -0.769,-1.752 C -0.901,-1.905 -1,-2.069 -1.068,-2.247 -1.136,-2.423 -1.161,-2.609 -1.141,-2.805 -1.122,-3 -1.043,-3.198 -0.906,-3.401 c 0.138,-0.201 0.293,-0.346 0.466,-0.433 0.173,-0.086 0.353,-0.129 0.54,-0.127 0.187,0.002 0.374,0.04 0.561,0.113 0.186,0.071 0.365,0.167 0.533,0.286 0.177,0.124 0.334,0.263 0.471,0.419 0.138,0.156 0.241,0.323 0.312,0.503 0.069,0.178 0.094,0.365 0.075,0.56 C 2.033,-1.885 1.954,-1.687 1.817,-1.485 1.679,-1.283 1.524,-1.139 1.351,-1.052 1.178,-0.966 0.997,-0.923 0.808,-0.927 0.619,-0.93 0.428,-0.97 0.236,-1.046 0.043,-1.122 -0.141,-1.222 -0.317,-1.346 -0.486,-1.465 -0.636,-1.6 -0.769,-1.752"
       style="fill:#ffffff icc-color(sRGB-IEC61966-2, 0.1, 1, 1, 1);fill-opacity:1;fill-rule:nonzero;stroke:none"
       transform="matrix(1.5957947,0,0,-1.5957947,224.21806,112.22949)"
       clip-path="url(#clipPath50)" />
    <path
       id="path51"
       d="m 0,0 c -0.077,-0.104 -0.126,-0.217 -0.147,-0.338 -0.022,-0.122 -0.019,-0.249 0.008,-0.386 0.026,-0.136 0.069,-0.268 0.131,-0.399 0.041,-0.087 0.093,-0.177 0.155,-0.271 0.062,-0.093 0.134,-0.173 0.217,-0.241 0.082,-0.067 0.173,-0.113 0.273,-0.136 0.099,-0.023 0.205,-0.009 0.316,0.045 0.119,0.059 0.198,0.145 0.235,0.258 0.037,0.114 0.051,0.245 0.041,0.394 -0.01,0.149 -0.034,0.312 -0.072,0.489 C 1.119,-0.408 1.084,-0.228 1.052,-0.043 1.014,0.144 0.988,0.333 0.972,0.52 0.957,0.708 0.967,0.887 1.002,1.059 1.037,1.23 1.108,1.389 1.213,1.535 1.319,1.682 1.472,1.804 1.674,1.902 1.899,2.012 2.12,2.059 2.332,2.044 2.545,2.026 2.745,1.966 2.931,1.861 3.116,1.757 3.284,1.617 3.432,1.442 3.58,1.268 3.702,1.081 3.796,0.88 3.907,0.646 3.988,0.409 4.038,0.169 4.088,-0.071 4.095,-0.302 4.059,-0.526 4.023,-0.749 3.939,-0.953 3.806,-1.139 3.674,-1.324 3.48,-1.479 3.225,-1.604 l -0.45,0.953 c 0.128,0.072 0.223,0.154 0.287,0.244 0.063,0.09 0.101,0.187 0.113,0.291 C 3.187,-0.013 3.179,0.095 3.151,0.207 3.123,0.319 3.081,0.436 3.023,0.557 2.986,0.637 2.94,0.712 2.886,0.783 2.832,0.854 2.769,0.912 2.697,0.957 2.626,1.002 2.549,1.03 2.468,1.042 2.386,1.054 2.298,1.036 2.204,0.989 2.117,0.947 2.055,0.896 2.018,0.837 1.98,0.777 1.962,0.687 1.963,0.567 1.964,0.447 1.983,0.289 2.02,0.094 2.057,-0.102 2.107,-0.356 2.168,-0.67 2.191,-0.761 2.217,-0.892 2.243,-1.06 2.27,-1.229 2.271,-1.411 2.246,-1.602 2.22,-1.796 2.154,-1.983 2.046,-2.168 1.938,-2.351 1.76,-2.503 1.514,-2.623 1.312,-2.722 1.106,-2.773 0.896,-2.778 c -0.21,-0.005 -0.415,0.04 -0.614,0.136 -0.2,0.095 -0.389,0.242 -0.569,0.44 -0.179,0.197 -0.341,0.448 -0.485,0.754 -0.117,0.246 -0.2,0.5 -0.25,0.761 -0.05,0.26 -0.053,0.511 -0.009,0.75 0.043,0.239 0.138,0.459 0.286,0.66 0.149,0.201 0.359,0.366 0.632,0.494 L 0.338,0.264 C 0.19,0.192 0.078,0.104 0,0"
       style="fill:#ffffff icc-color(sRGB-IEC61966-2, 0.1, 1, 1, 1);fill-opacity:1;fill-rule:nonzero;stroke:none"
       transform="matrix(1.5957947,0,0,-1.5957947,226.58336,122.72996)"
       clip-path="url(#clipPath52)" />
    <path
       id="path53"
       d="m 0,0 c -0.091,-0.092 -0.155,-0.196 -0.194,-0.312 -0.038,-0.117 -0.053,-0.244 -0.047,-0.383 0.007,-0.139 0.032,-0.276 0.074,-0.413 0.028,-0.093 0.066,-0.19 0.115,-0.292 0.047,-0.101 0.107,-0.191 0.179,-0.271 0.072,-0.079 0.156,-0.137 0.251,-0.175 0.095,-0.038 0.202,-0.037 0.319,0 0.126,0.041 0.216,0.114 0.269,0.22 0.053,0.107 0.086,0.235 0.097,0.384 0.011,0.149 0.011,0.314 -10e-4,0.494 -0.013,0.181 -0.022,0.365 -0.027,0.553 -0.011,0.191 -0.01,0.38 0.001,0.568 0.011,0.188 0.047,0.364 0.106,0.528 0.06,0.165 0.151,0.312 0.277,0.442 C 1.543,1.471 1.713,1.57 1.926,1.638 2.166,1.714 2.389,1.727 2.597,1.68 2.806,1.631 2.994,1.542 3.164,1.412 3.333,1.281 3.479,1.118 3.6,0.924 3.722,0.729 3.815,0.525 3.881,0.314 3.956,0.066 4.002,-0.179 4.018,-0.425 4.034,-0.67 4.008,-0.9 3.94,-1.115 3.873,-1.332 3.76,-1.521 3.603,-1.685 3.445,-1.85 3.231,-1.974 2.962,-2.059 l -0.31,1.008 c 0.137,0.052 0.243,0.119 0.319,0.199 0.076,0.08 0.127,0.17 0.153,0.27 0.026,0.101 0.033,0.208 0.022,0.324 C 3.135,-0.143 3.109,-0.02 3.07,0.107 3.044,0.192 3.01,0.273 2.966,0.352 2.923,0.43 2.869,0.496 2.805,0.551 2.74,0.606 2.668,0.645 2.59,0.669 2.51,0.692 2.421,0.688 2.321,0.656 2.229,0.627 2.161,0.586 2.115,0.533 2.07,0.479 2.039,0.393 2.023,0.274 2.007,0.155 2.003,-0.004 2.012,-0.203 2.02,-0.401 2.033,-0.66 2.05,-0.98 2.06,-1.074 2.066,-1.207 2.068,-1.379 2.071,-1.549 2.046,-1.729 1.993,-1.915 1.94,-2.102 1.848,-2.278 1.715,-2.444 1.582,-2.61 1.385,-2.734 1.124,-2.816 0.911,-2.884 0.7,-2.905 0.491,-2.879 c -0.208,0.025 -0.405,0.101 -0.588,0.224 -0.184,0.124 -0.35,0.296 -0.5,0.518 -0.149,0.222 -0.273,0.495 -0.373,0.818 -0.08,0.261 -0.126,0.524 -0.138,0.79 -0.013,0.265 0.02,0.513 0.097,0.744 0.077,0.231 0.203,0.434 0.378,0.611 0.175,0.176 0.407,0.308 0.695,0.395 L 0.372,0.212 C 0.215,0.163 0.092,0.092 0,0"
       style="fill:#ffffff icc-color(sRGB-IEC61966-2, 0.1, 1, 1, 1);fill-opacity:1;fill-rule:nonzero;stroke:none"
       transform="matrix(1.5957947,0,0,-1.5957947,229.38766,129.36161)"
       clip-path="url(#clipPath54)" />
    <path
       id="path55"
       d="m 0,0 c -0.108,-0.071 -0.193,-0.16 -0.253,-0.266 -0.061,-0.105 -0.102,-0.227 -0.124,-0.364 -0.021,-0.137 -0.025,-0.277 -0.012,-0.42 0.009,-0.097 0.027,-0.2 0.054,-0.309 0.026,-0.11 0.067,-0.209 0.122,-0.303 0.054,-0.092 0.124,-0.166 0.209,-0.223 0.086,-0.057 0.19,-0.079 0.313,-0.067 0.131,0.012 0.234,0.066 0.308,0.159 0.073,0.093 0.131,0.212 0.172,0.356 0.042,0.143 0.074,0.304 0.099,0.483 0.024,0.18 0.052,0.362 0.086,0.546 0.027,0.189 0.066,0.374 0.115,0.556 C 1.138,0.33 1.209,0.495 1.3,0.644 1.391,0.792 1.511,0.916 1.66,1.017 1.808,1.118 1.994,1.179 2.216,1.2 2.466,1.225 2.688,1.192 2.882,1.102 3.076,1.012 3.243,0.885 3.382,0.721 3.521,0.558 3.631,0.368 3.711,0.153 3.791,-0.062 3.841,-0.281 3.863,-0.502 3.887,-0.76 3.882,-1.011 3.848,-1.254 3.814,-1.497 3.742,-1.717 3.632,-1.913 3.522,-2.11 3.374,-2.273 3.187,-2.4 3,-2.528 2.765,-2.606 2.483,-2.633 l -0.099,1.05 c 0.144,0.025 0.262,0.068 0.352,0.13 0.091,0.062 0.159,0.14 0.205,0.233 0.046,0.093 0.075,0.196 0.087,0.312 C 3.04,-0.793 3.04,-0.669 3.027,-0.535 3.019,-0.447 3.001,-0.36 2.975,-0.274 2.948,-0.189 2.909,-0.113 2.857,-0.045 2.805,0.022 2.742,0.076 2.67,0.115 2.597,0.154 2.509,0.169 2.405,0.158 2.309,0.148 2.234,0.122 2.178,0.08 2.123,0.037 2.075,-0.041 2.035,-0.154 1.996,-0.268 1.96,-0.422 1.928,-0.618 1.896,-0.814 1.856,-1.071 1.809,-1.387 1.799,-1.481 1.779,-1.612 1.746,-1.781 1.714,-1.95 1.654,-2.119 1.564,-2.291 1.475,-2.462 1.349,-2.615 1.185,-2.75 1.021,-2.885 0.803,-2.966 0.531,-2.991 c -0.222,-0.023 -0.433,10e-4 -0.633,0.07 -0.199,0.069 -0.376,0.183 -0.53,0.342 -0.155,0.161 -0.283,0.364 -0.385,0.611 -0.101,0.249 -0.167,0.542 -0.2,0.878 -0.026,0.272 -0.017,0.539 0.024,0.802 0.041,0.262 0.124,0.498 0.246,0.709 0.121,0.209 0.286,0.383 0.493,0.52 0.207,0.136 0.461,0.217 0.761,0.241 L 0.407,0.13 C 0.244,0.115 0.108,0.071 0,0"
       style="fill:#ffffff icc-color(sRGB-IEC61966-2, 0.1, 1, 1, 1);fill-opacity:1;fill-rule:nonzero;stroke:none"
       transform="matrix(1.5957947,0,0,-1.5957947,231.68701,139.37396)"
       clip-path="url(#clipPath56)" />
    <path
       id="path57"
       d="M 0,0 C 0.305,-0.13 0.566,-0.306 0.786,-0.529 1.005,-0.751 1.172,-1.018 1.286,-1.328 1.4,-1.639 1.446,-1.984 1.423,-2.364 1.401,-2.747 1.315,-3.086 1.166,-3.378 1.016,-3.67 0.819,-3.914 0.575,-4.108 0.331,-4.301 0.051,-4.445 -0.267,-4.538 c -0.318,-0.091 -0.659,-0.126 -1.022,-0.104 -0.354,0.022 -0.681,0.097 -0.982,0.227 -0.3,0.13 -0.557,0.305 -0.772,0.527 -0.216,0.222 -0.378,0.488 -0.49,0.795 -0.112,0.31 -0.157,0.656 -0.134,1.04 0.022,0.379 0.107,0.715 0.255,1.012 0.146,0.294 0.34,0.539 0.579,0.732 0.24,0.195 0.516,0.338 0.829,0.431 0.314,0.092 0.648,0.127 1.002,0.106 C -0.639,0.206 -0.304,0.129 0,0 m -1.667,-0.898 c -0.196,-0.037 -0.374,-0.103 -0.535,-0.2 -0.161,-0.098 -0.293,-0.228 -0.396,-0.394 -0.103,-0.165 -0.162,-0.37 -0.177,-0.616 -0.014,-0.245 0.021,-0.455 0.104,-0.632 0.083,-0.177 0.198,-0.323 0.347,-0.439 0.148,-0.116 0.317,-0.205 0.507,-0.265 0.19,-0.059 0.388,-0.096 0.592,-0.109 0.214,-0.013 0.422,-10e-4 0.625,0.035 0.202,0.036 0.385,0.103 0.548,0.201 0.163,0.096 0.297,0.227 0.399,0.392 0.104,0.166 0.162,0.371 0.177,0.617 0.014,0.244 -0.02,0.455 -0.103,0.632 -0.083,0.177 -0.2,0.324 -0.35,0.439 -0.151,0.116 -0.325,0.203 -0.521,0.265 -0.198,0.061 -0.403,0.097 -0.616,0.11 -0.205,0.013 -0.405,0.001 -0.601,-0.036"
       style="fill:#ffffff icc-color(sRGB-IEC61966-2, 0.1, 1, 1, 1);fill-opacity:1;fill-rule:nonzero;stroke:none"
       transform="matrix(1.5957947,0,0,-1.5957947,235.73573,145.35436)"
       clip-path="url(#clipPath58)" />
    <path
       id="path59"
       d="m 0,0 c 0.115,0.039 0.22,0.097 0.318,0.175 0.096,0.076 0.18,0.169 0.249,0.279 0.07,0.109 0.12,0.229 0.15,0.361 C 0.772,1.054 0.772,1.267 0.72,1.456 0.667,1.645 0.576,1.809 0.447,1.949 0.318,2.089 0.161,2.206 -0.024,2.3 -0.208,2.393 -0.405,2.464 -0.613,2.514 -0.813,2.561 -1.012,2.584 -1.212,2.581 -1.411,2.579 -1.599,2.543 -1.773,2.475 -1.948,2.407 -2.1,2.301 -2.229,2.155 -2.358,2.01 -2.45,1.818 -2.506,1.577 -2.58,1.253 -2.54,0.976 -2.387,0.748 -2.233,0.519 -2.002,0.346 -1.691,0.23 l -0.236,-1.028 c -0.291,0.096 -0.544,0.229 -0.758,0.399 -0.214,0.17 -0.384,0.367 -0.51,0.592 -0.126,0.225 -0.205,0.472 -0.237,0.741 -0.032,0.269 -0.014,0.552 0.055,0.851 0.085,0.369 0.224,0.687 0.418,0.953 0.194,0.265 0.426,0.473 0.694,0.624 0.269,0.15 0.565,0.244 0.89,0.282 0.324,0.037 0.659,0.015 1.005,-0.068 C -0.015,3.492 0.302,3.36 0.581,3.18 0.861,3 1.09,2.781 1.27,2.525 1.45,2.269 1.57,1.977 1.631,1.651 1.692,1.325 1.681,0.978 1.595,0.607 1.534,0.341 1.439,0.098 1.31,-0.121 1.18,-0.339 1.021,-0.525 0.834,-0.679 0.647,-0.833 0.433,-0.945 0.192,-1.016 -0.049,-1.088 -0.311,-1.106 -0.593,-1.072 l 0.235,1.029 C -0.234,-0.054 -0.114,-0.039 0,0"
       style="fill:#ffffff icc-color(sRGB-IEC61966-2, 0.1, 1, 1, 1);fill-opacity:1;fill-rule:nonzero;stroke:none"
       transform="matrix(1.5957947,0,0,-1.5957947,234.0823,159.68299)"
       clip-path="url(#clipPath60)" />
    <path
       id="path61"
       d="m 234.41424,165.45911 -7.33746,-2.67457 0.57928,-1.64045 7.33746,2.67452 z"
       style="fill:#ffffff icc-color(sRGB-IEC61966-2, 0.1, 1, 1, 1);fill-opacity:1;fill-rule:nonzero;stroke:none;stroke-width:1.5958" />
    <path
       id="path62"
       d="m 231.15405,172.81398 -1.29739,-0.63673 1.78729,-3.76447 -1.50321,-0.73724 -1.64208,3.45488 -1.20005,-0.58887 1.64208,-3.4533 -1.72187,-0.84417 -1.8256,3.8443 -1.29739,-0.63514 2.57085,-5.41451 7.02149,3.44212 z"
       style="fill:#ffffff icc-color(sRGB-IEC61966-2, 0.1, 1, 1, 1);fill-opacity:1;fill-rule:nonzero;stroke:none;stroke-width:1.5958" />
    <path
       id="path63"
       d="m 229.23495,173.30247 1.19846,0.81225 -3.55064,5.39379 -1.19688,-0.81546 1.29739,-1.97238 -5.28206,-3.58575 0.95265,-1.44738 5.28211,3.58732 z"
       style="fill:#ffffff icc-color(sRGB-IEC61966-2, 0.1, 1, 1, 1);fill-opacity:1;fill-rule:nonzero;stroke:none;stroke-width:1.5958" />
    <path
       id="path64"
       d="m 226.35343,180.2619 -1.28301,1.45218 -3.50916,-0.70693 1.08352,3.45809 -1.275,1.44417 -1.64687,-5.44323 -2.22933,-2.02825 1.14418,-1.29422 2.26126,2.05539 z"
       style="fill:#ffffff icc-color(sRGB-IEC61966-2, 0.1, 1, 1, 1);fill-opacity:1;fill-rule:nonzero;stroke:none;stroke-width:1.5958" />
    <path
       id="path65"
       d="m 0,0 c 0.017,-0.108 0.054,-0.204 0.114,-0.287 0.059,-0.084 0.136,-0.158 0.232,-0.221 0.096,-0.064 0.2,-0.114 0.313,-0.153 0.076,-0.025 0.159,-0.047 0.251,-0.064 0.091,-0.016 0.181,-0.019 0.269,-0.008 0.088,0.01 0.168,0.04 0.241,0.087 0.071,0.047 0.123,0.12 0.157,0.219 0.034,0.106 0.029,0.204 -0.016,0.293 C 1.516,-0.045 1.447,0.041 1.353,0.122 1.259,0.203 1.148,0.284 1.021,0.363 0.894,0.444 0.767,0.528 0.639,0.616 0.506,0.702 0.38,0.795 0.26,0.896 0.14,0.996 0.04,1.107 -0.041,1.229 -0.122,1.35 -0.175,1.486 -0.2,1.635 -0.225,1.786 -0.208,1.95 -0.148,2.13 -0.081,2.333 0.019,2.493 0.154,2.614 0.288,2.734 0.44,2.82 0.611,2.872 0.781,2.925 0.962,2.945 1.151,2.933 1.341,2.922 1.523,2.887 1.697,2.827 1.9,2.758 2.087,2.669 2.258,2.559 2.429,2.45 2.571,2.319 2.681,2.167 2.792,2.015 2.864,1.844 2.896,1.656 2.928,1.467 2.907,1.258 2.832,1.03 L 2.006,1.311 C 2.037,1.431 2.045,1.536 2.029,1.627 2.013,1.719 1.977,1.799 1.923,1.867 1.869,1.933 1.8,1.992 1.718,2.041 1.635,2.09 1.541,2.131 1.436,2.167 1.367,2.191 1.296,2.207 1.222,2.216 1.149,2.224 1.078,2.22 1.01,2.202 0.941,2.185 0.88,2.155 0.825,2.112 0.771,2.069 0.729,2.005 0.701,1.921 0.676,1.843 0.67,1.776 0.683,1.719 0.696,1.66 0.738,1.598 0.81,1.528 0.882,1.458 0.987,1.378 1.124,1.286 1.261,1.194 1.44,1.075 1.662,0.931 1.73,0.891 1.822,0.83 1.938,0.748 2.053,0.666 2.161,0.56 2.259,0.432 2.358,0.305 2.431,0.154 2.476,-0.018 2.521,-0.192 2.509,-0.388 2.436,-0.609 2.376,-0.789 2.286,-0.944 2.166,-1.076 2.046,-1.207 1.9,-1.305 1.727,-1.371 1.554,-1.437 1.356,-1.467 1.135,-1.461 c -0.222,0.006 -0.465,0.054 -0.73,0.144 -0.214,0.073 -0.412,0.171 -0.595,0.292 -0.184,0.122 -0.334,0.267 -0.45,0.433 -0.116,0.166 -0.191,0.352 -0.223,0.559 -0.032,0.209 -0.006,0.432 0.077,0.674 L 0.041,0.36 C -0.003,0.228 -0.017,0.108 0,0"
       style="fill:#ffffff icc-color(sRGB-IEC61966-2, 0.1, 1, 1, 1);fill-opacity:1;fill-rule:nonzero;stroke:none"
       transform="matrix(1.5957947,0,0,-1.5957947,164.49959,198.83694)"
       clip-path="url(#clipPath66)" />
    <path
       id="path67"
       d="m 175.40415,196.50882 1.3277,6.95128 -1.46974,-0.2506 -0.24743,-1.53994 -2.40805,-0.40847 -0.74683,1.36922 -1.42504,-0.24246 3.51712,-6.12624 z m -0.58245,4.0262 -0.4148,-2.5405 -0.0181,-0.002 -1.23672,2.25805 z"
       style="fill:#ffffff icc-color(sRGB-IEC61966-2, 0.1, 1, 1, 1);fill-opacity:1;fill-rule:nonzero;stroke:none;stroke-width:1.5958" />
    <path
       id="path68"
       d="M 0,0 C 0.183,-0.003 0.348,-0.036 0.494,-0.098 0.64,-0.161 0.765,-0.245 0.868,-0.352 0.972,-0.457 1.05,-0.58 1.104,-0.718 1.157,-0.857 1.182,-1.006 1.18,-1.165 1.176,-1.41 1.122,-1.621 1.018,-1.797 0.914,-1.976 0.746,-2.108 0.516,-2.198 L 0.515,-2.209 C 0.626,-2.242 0.717,-2.291 0.788,-2.357 0.86,-2.422 0.918,-2.498 0.963,-2.586 1.007,-2.674 1.039,-2.77 1.058,-2.875 1.078,-2.98 1.09,-3.086 1.096,-3.19 1.099,-3.256 1.102,-3.334 1.104,-3.423 1.107,-3.512 1.112,-3.604 1.12,-3.698 1.128,-3.79 1.142,-3.879 1.162,-3.963 1.181,-4.047 1.212,-4.118 1.253,-4.177 l -0.9,0.014 c -0.048,0.133 -0.076,0.29 -0.084,0.473 -0.008,0.183 -0.023,0.357 -0.043,0.525 -0.028,0.218 -0.091,0.378 -0.188,0.481 -0.098,0.101 -0.26,0.155 -0.485,0.159 l -0.9,0.014 -0.025,-1.624 -0.9,0.015 0.065,4.157 z m -0.351,-1.875 c 0.207,-0.003 0.362,0.041 0.467,0.132 0.104,0.092 0.159,0.242 0.162,0.452 0.003,0.201 -0.047,0.349 -0.148,0.442 -0.102,0.093 -0.256,0.14 -0.462,0.144 l -0.987,0.017 -0.017,-1.171 z"
       style="fill:#ffffff icc-color(sRGB-IEC61966-2, 0.1, 1, 1, 1);fill-opacity:1;fill-rule:nonzero;stroke:none"
       transform="matrix(1.5957947,0,0,-1.5957947,183.40371,197.08394)"
       clip-path="url(#clipPath69)" />
    <path
       id="path70"
       d="M 0,0 C -0.067,0.078 -0.145,0.142 -0.234,0.194 -0.323,0.246 -0.421,0.282 -0.526,0.303 -0.632,0.323 -0.739,0.324 -0.849,0.306 -1.048,0.273 -1.212,0.207 -1.338,0.104 -1.466,0.003 -1.562,-0.121 -1.627,-0.267 -1.694,-0.414 -1.733,-0.575 -1.746,-0.75 c -0.012,-0.175 -0.004,-0.352 0.024,-0.533 0.027,-0.172 0.074,-0.337 0.139,-0.493 0.066,-0.156 0.152,-0.293 0.259,-0.409 0.107,-0.114 0.237,-0.201 0.388,-0.256 0.153,-0.056 0.328,-0.068 0.528,-0.035 0.271,0.045 0.469,0.163 0.596,0.357 0.126,0.194 0.184,0.431 0.174,0.712 l 0.859,0.141 C 1.239,-1.527 1.217,-1.768 1.156,-1.99 1.094,-2.212 0.998,-2.409 0.866,-2.58 0.735,-2.751 0.572,-2.892 0.377,-3.002 0.182,-3.113 -0.04,-3.188 -0.289,-3.229 c -0.309,-0.051 -0.595,-0.042 -0.859,0.027 -0.264,0.068 -0.496,0.184 -0.696,0.348 -0.199,0.164 -0.366,0.368 -0.497,0.612 -0.131,0.244 -0.22,0.515 -0.268,0.814 -0.048,0.307 -0.049,0.598 0,0.876 0.049,0.277 0.143,0.528 0.282,0.751 0.138,0.223 0.322,0.41 0.551,0.562 0.229,0.151 0.498,0.252 0.807,0.304 0.222,0.036 0.437,0.038 0.645,0.005 C -0.115,1.037 0.076,0.972 0.252,0.873 0.429,0.774 0.583,0.641 0.713,0.473 0.844,0.306 0.941,0.106 1.006,-0.128 L 0.147,-0.268 C 0.115,-0.168 0.066,-0.079 0,0"
       style="fill:#ffffff icc-color(sRGB-IEC61966-2, 0.1, 1, 1, 1);fill-opacity:1;fill-rule:nonzero;stroke:none"
       transform="matrix(1.5957947,0,0,-1.5957947,192.38433,197.94743)"
       clip-path="url(#clipPath71)" />
    <path
       id="path72"
       d="m 0,0 c 0.077,-0.076 0.164,-0.13 0.261,-0.16 0.097,-0.031 0.202,-0.043 0.316,-0.035 0.115,0.008 0.228,0.031 0.34,0.069 0.077,0.026 0.156,0.06 0.239,0.102 0.083,0.043 0.156,0.095 0.22,0.157 C 1.44,0.196 1.487,0.268 1.516,0.349 1.546,0.431 1.544,0.522 1.512,0.622 1.477,0.728 1.415,0.803 1.326,0.847 1.238,0.89 1.132,0.916 1.009,0.923 0.885,0.931 0.749,0.928 0.6,0.914 0.452,0.901 0.3,0.891 0.145,0.883 -0.011,0.872 -0.168,0.869 -0.323,0.875 -0.478,0.882 -0.625,0.91 -0.761,0.958 -0.897,1.006 -1.02,1.082 -1.129,1.187 -1.238,1.292 -1.321,1.434 -1.38,1.614 c -0.067,0.203 -0.082,0.393 -0.046,0.571 0.037,0.178 0.108,0.34 0.213,0.486 0.105,0.145 0.237,0.272 0.395,0.379 0.159,0.107 0.325,0.189 0.499,0.248 0.203,0.068 0.406,0.111 0.608,0.128 C 0.49,3.443 0.681,3.424 0.86,3.37 1.038,3.315 1.197,3.224 1.334,3.092 1.472,2.961 1.578,2.781 1.653,2.554 L 0.826,2.274 C 0.78,2.389 0.723,2.478 0.656,2.541 0.589,2.604 0.514,2.647 0.431,2.667 0.348,2.688 0.259,2.693 0.164,2.682 0.069,2.67 -0.031,2.647 -0.136,2.611 -0.205,2.588 -0.272,2.556 -0.336,2.519 -0.4,2.481 -0.454,2.434 -0.498,2.378 -0.542,2.322 -0.574,2.261 -0.592,2.193 -0.61,2.126 -0.605,2.05 -0.577,1.965 -0.552,1.888 -0.517,1.83 -0.472,1.792 -0.427,1.754 -0.355,1.729 -0.258,1.717 -0.159,1.706 -0.028,1.705 0.136,1.715 0.3,1.725 0.513,1.74 0.777,1.76 0.854,1.769 0.964,1.776 1.105,1.781 1.247,1.786 1.395,1.767 1.549,1.726 1.704,1.685 1.851,1.609 1.99,1.498 2.129,1.388 2.234,1.222 2.306,1.001 2.365,0.82 2.386,0.641 2.368,0.463 2.349,0.285 2.291,0.116 2.192,-0.041 2.092,-0.2 1.952,-0.344 1.771,-0.475 1.591,-0.606 1.368,-0.716 1.103,-0.805 0.89,-0.877 0.673,-0.921 0.454,-0.935 0.236,-0.95 0.03,-0.926 -0.161,-0.864 c -0.192,0.063 -0.361,0.166 -0.51,0.312 -0.149,0.147 -0.261,0.342 -0.337,0.586 l 0.827,0.279 C -0.137,0.181 -0.077,0.076 0,0"
       style="fill:#ffffff icc-color(sRGB-IEC61966-2, 0.1, 1, 1, 1);fill-opacity:1;fill-rule:nonzero;stroke:none"
       transform="matrix(1.5957947,0,0,-1.5957947,198.69432,199.67713)"
       clip-path="url(#clipPath73)" />
  </g>
</svg>
