<?xml version="1.0" encoding="utf-8"?>
<!-- Generator: Adobe Illustrator 19.1.0, SVG Export Plug-In . SVG Version: 6.00 Build 0)  -->
<svg version="1.1" id="Layer_1" xmlns="http://www.w3.org/2000/svg" xmlns:xlink="http://www.w3.org/1999/xlink" x="0px" y="0px"
	 viewBox="0 0 792 612" enable-background="new 0 0 792 612" xml:space="preserve">
<g>
	<path fill="#EB2227" d="M398,220.9c-51.4,0-93.1,41.3-93.1,92.2s41.7,92.2,93.1,92.2s93.1-41.3,93.1-92.2S449.4,220.9,398,220.9z
		 M398,369.2c-32.2,0-58.3-25.1-58.3-56.1S365.8,257,398,257s58.3,25.1,58.3,56.1S430.2,369.2,398,369.2z"/>
	<polyline fill="#EB2227" points="383.4,270.7 383.4,298.9 354,298.9 354,327.2 383.4,327.2 383.4,355.4 412.7,355.4 412.7,327.2 
		442,327.2 442,299 412.7,299 412.7,270.7 	"/>
	<g>
		<path id="SVGID_x5F_1_x5F_" fill="none" d="M350.8,365c-11.7-10.3-16.2-24.2-16.9-26.9c-9.1-35.2,1.4-70,34.8-85.6
			c33.7-15.8,69.6-2.9,90.9,27.1c1,1.4,18.2,47.6-12.6,75.2"/>
		<text>		<textPath  xlink:href="#SVGID_x5F_1_x5F_" startOffset="4.9805%">
<tspan  fill="#FFFFFF" font-family="'ArialNarrow-Bold'" font-size="16.6455px">THE SOUTH AFRICAN RED CROSS SOCIETY</tspan>		</textPath>
</text>
	</g>
	<path id="SVGID_x5F_2_x5F_" fill="none" d="M337.2,366.6c2.9,3.5,22.8,27.1,57.2,28.6c38.5,1.6,61.7-25.8,63.9-28.6"/>
	<text>	<textPath  xlink:href="#SVGID_x5F_2_x5F_" startOffset="7.8125%">
<tspan  fill="#FFFFFF" font-family="'ArialNarrow-Bold'" font-size="16.6455px">SARCS</tspan>	</textPath>
</text>
</g>
</svg>
