<?xml version="1.0" encoding="UTF-8" standalone="no"?>
<!-- Created with Inkscape (http://www.inkscape.org/) -->

<svg
   version="1.1"
   id="svg1"
   width="401.78268"
   height="124"
   viewBox="0 0 401.78268 124"
   sodipodi:docname="Red_Crescent_EGYPT.svg"
   inkscape:version="1.3.2 (091e20e, 2023-11-25, custom)"
   xmlns:inkscape="http://www.inkscape.org/namespaces/inkscape"
   xmlns:sodipodi="http://sodipodi.sourceforge.net/DTD/sodipodi-0.dtd"
   xmlns="http://www.w3.org/2000/svg"
   xmlns:svg="http://www.w3.org/2000/svg">
  <defs
     id="defs1">
    <clipPath
       clipPathUnits="userSpaceOnUse"
       id="clipPath3">
      <path
         d="M 0.059998,93 H 301.338 V 0 H 0.059998 Z"
         transform="translate(-54.288001,-6.4140002)"
         id="path3" />
    </clipPath>
  </defs>
  <sodipodi:namedview
     id="namedview1"
     pagecolor="#ffffff"
     bordercolor="#666666"
     borderopacity="1.0"
     inkscape:showpageshadow="2"
     inkscape:pageopacity="0.0"
     inkscape:pagecheckerboard="0"
     inkscape:deskcolor="#d1d1d1"
     inkscape:zoom="2.3271286"
     inkscape:cx="200.89134"
     inkscape:cy="62.093688"
     inkscape:window-width="1920"
     inkscape:window-height="1017"
     inkscape:window-x="-8"
     inkscape:window-y="-8"
     inkscape:window-maximized="1"
     inkscape:current-layer="g1">
    <inkscape:page
       x="0"
       y="0"
       inkscape:label="Red_Crescent_EGYPT.eps"
       id="page1"
       width="401.78268"
       height="124"
       margin="0"
       bleed="0" />
  </sodipodi:namedview>
  <g
     id="g1"
     inkscape:groupmode="layer"
     inkscape:label="Red_Crescent_EGYPT.eps">
    <g
       id="group-MC1">
      <path
         id="path2"
         d="m 0,0 c -22.139,0 -40.086,17.947 -40.086,40.086 0,22.139 17.947,40.086 40.086,40.086 12.945,0 24.455,-6.138 31.784,-15.66 -8.194,13.247 -22.851,22.074 -39.572,22.074 -25.681,0 -46.5,-20.819 -46.5,-46.5 0,-25.681 20.819,-46.5 46.5,-46.5 16.721,0 31.378,8.8271 39.572,22.074 C 24.455,6.138 12.945,0 0,0"
         style="fill:#ee2528;fill-opacity:1;fill-rule:nonzero;stroke:none"
         transform="matrix(1.3333333,0,0,-1.3333333,72.384,115.448)"
         clip-path="url(#clipPath3)" />
      <path
         id="path4"
         d="M 0,0 H 8.828 V -1.855 H 2.146 V -5.067 H 8.33 V -6.819 H 2.146 v -3.589 h 6.802 v -1.855 H 0 L 0,0"
         style="fill:#231f20;fill-opacity:1;fill-rule:nonzero;stroke:none"
         transform="matrix(1.3333333,0,0,-1.3333333,107.20267,70.438667)" />
      <path
         id="path5"
         d="M 0,0 H -1.374 L -1.7,1.443 c -1.152,-1.306 -2.2,-1.735 -3.694,-1.735 -3.675,0 -5.874,2.92 -5.874,6.423 0,3.504 2.199,6.424 5.874,6.424 2.679,0 4.93,-1.426 5.256,-4.191 h -2.096 c -0.206,1.615 -1.614,2.439 -3.16,2.439 -2.627,0 -3.727,-2.319 -3.727,-4.672 0,-2.353 1.1,-4.671 3.727,-4.671 2.199,-0.034 3.401,1.288 3.435,3.366 H -5.222 V 6.458 H 0 V 0"
         style="fill:#231f20;fill-opacity:1;fill-rule:nonzero;stroke:none"
         transform="matrix(1.3333333,0,0,-1.3333333,135.89733,86.789333)" />
      <path
         id="path6"
         d="m 0,0 -4.602,7.454 h 2.49 L 1.134,1.958 4.328,7.454 H 6.733 L 2.148,0 V -4.809 H 0 V 0"
         style="fill:#231f20;fill-opacity:1;fill-rule:nonzero;stroke:none"
         transform="matrix(1.3333333,0,0,-1.3333333,143.26933,80.377333)" />
      <path
         id="path7"
         d="M 0,0 H 3.143 C 4.105,0 5.29,0.481 5.29,2.026 5.29,3.641 4.311,4.053 3.177,4.053 H 0 Z m -2.147,5.805 h 5.41 c 3.504,0 4.174,-2.267 4.174,-3.796 0,-1.511 -0.67,-3.778 -4.174,-3.761 H 0 V -6.458 H -2.147 V 5.805"
         style="fill:#231f20;fill-opacity:1;fill-rule:nonzero;stroke:none"
         transform="matrix(1.3333333,0,0,-1.3333333,156.712,78.178667)" />
      <path
         id="path8"
         d="M 0,0 H 9.927 V -1.855 H 6.028 V -12.263 H 3.882 V -1.855 L 0,-1.855 V 0"
         style="fill:#231f20;fill-opacity:1;fill-rule:nonzero;stroke:none"
         transform="matrix(1.3333333,0,0,-1.3333333,167.56667,70.438667)" />
      <path
         id="path9"
         d="m 137.027,27.908 h 2.147 v 12.263 h -2.147 z"
         style="fill:#231f20;fill-opacity:1;fill-rule:nonzero;stroke:none"
         transform="matrix(1.3333333,0,0,-1.3333333,0,124)" />
      <path
         id="path10"
         d="M 0,0 H 3.744 L 1.906,5.272 H 1.855 Z M 0.756,7.385 H 3.04 L 7.763,-4.878 H 5.462 L 4.311,-1.632 H -0.584 L -1.735,-4.878 H -3.95 L 0.756,7.385"
         style="fill:#231f20;fill-opacity:1;fill-rule:nonzero;stroke:none"
         transform="matrix(1.3333333,0,0,-1.3333333,192.436,80.285333)" />
      <path
         id="path11"
         d="m 0,0 h 2.266 l 5.6,-9.034 H 7.9 V 0 H 9.944 V -12.263 H 7.678 L 2.096,-3.246 H 2.044 v -9.017 H 0 L 0,0"
         style="fill:#231f20;fill-opacity:1;fill-rule:nonzero;stroke:none"
         transform="matrix(1.3333333,0,0,-1.3333333,204.22933,70.438667)" />
      <path
         id="path12"
         d="M 0,0 H 3.522 C 4.878,0 5.616,0.67 5.616,1.958 5.616,3.521 4.604,3.83 3.487,3.83 H 0 Z M -2.146,5.582 H 3.71 c 2.68,0 4.054,-1.237 4.054,-3.315 0,-2.353 -1.632,-2.954 -2.028,-3.091 v -0.035 c 0.74,-0.103 1.822,-0.652 1.822,-2.593 0,-1.426 0.206,-2.731 0.669,-3.229 H 5.926 C 5.6,-6.149 5.6,-5.479 5.6,-4.878 c 0,2.25 -0.464,3.246 -2.44,3.246 H 0 V -6.681 H -2.146 V 5.582"
         style="fill:#231f20;fill-opacity:1;fill-rule:nonzero;stroke:none"
         transform="matrix(1.3333333,0,0,-1.3333333,230.10533,77.881333)" />
      <path
         id="path13"
         d="M 0,0 H 8.829 V -1.855 H 2.147 V -5.067 H 8.331 V -6.819 H 2.147 v -3.589 h 6.802 v -1.855 H 0 L 0,0"
         style="fill:#231f20;fill-opacity:1;fill-rule:nonzero;stroke:none"
         transform="matrix(1.3333333,0,0,-1.3333333,243.364,70.438667)" />
      <path
         id="path14"
         d="M 0,0 H 2.113 C 5.479,0 6.2,1.923 6.2,4.379 6.2,6.836 5.479,8.759 2.113,8.759 H 0 Z m -2.146,10.511 h 5.084 c 3.778,0 5.41,-2.748 5.41,-6.132 0,-3.383 -1.632,-6.131 -5.41,-6.131 h -5.084 v 12.263"
         style="fill:#231f20;fill-opacity:1;fill-rule:nonzero;stroke:none"
         transform="matrix(1.3333333,0,0,-1.3333333,260.65333,84.453333)" />
      <path
         id="path15"
         d="m 0,0 c -0.361,1.408 -1.272,2.439 -3.058,2.439 -2.628,0 -3.726,-2.319 -3.726,-4.672 0,-2.353 1.098,-4.671 3.726,-4.671 1.907,0 2.954,1.425 3.126,3.212 h 2.096 c -0.172,-2.937 -2.25,-4.964 -5.222,-4.964 -3.675,0 -5.874,2.92 -5.874,6.423 0,3.504 2.199,6.424 5.874,6.424 C -0.292,4.174 1.889,2.645 2.146,0 H 0"
         style="fill:#231f20;fill-opacity:1;fill-rule:nonzero;stroke:none"
         transform="matrix(1.3333333,0,0,-1.3333333,291.72933,75.637333)" />
      <path
         id="path16"
         d="m 0,0 h 3.521 c 1.357,0 2.096,0.67 2.096,1.958 0,1.563 -1.014,1.872 -2.13,1.872 H 0 Z M -2.146,5.582 H 3.71 c 2.68,0 4.054,-1.237 4.054,-3.315 0,-2.353 -1.632,-2.954 -2.027,-3.091 v -0.035 c 0.739,-0.103 1.821,-0.652 1.821,-2.593 0,-1.426 0.206,-2.731 0.669,-3.229 H 5.926 C 5.6,-6.149 5.6,-5.479 5.6,-4.878 c 0,2.25 -0.464,3.246 -2.439,3.246 H 0 V -6.681 H -2.146 V 5.582"
         style="fill:#231f20;fill-opacity:1;fill-rule:nonzero;stroke:none"
         transform="matrix(1.3333333,0,0,-1.3333333,300.08667,77.881333)" />
      <path
         id="path17"
         d="M 0,0 H 8.828 V -1.855 H 2.146 V -5.067 H 8.33 V -6.819 H 2.146 v -3.589 h 6.802 v -1.855 H 0 L 0,0"
         style="fill:#231f20;fill-opacity:1;fill-rule:nonzero;stroke:none"
         transform="matrix(1.3333333,0,0,-1.3333333,313.34667,70.438667)" />
      <path
         id="path18"
         d="m 0,0 c 0,-1.89 1.391,-2.628 3.109,-2.628 1.889,0 2.593,0.927 2.593,1.855 0,0.944 -0.515,1.322 -1.013,1.511 -0.859,0.327 -1.975,0.55 -3.658,1.014 -2.096,0.566 -2.714,1.837 -2.714,3.108 0,2.456 2.267,3.607 4.483,3.607 2.559,0 4.706,-1.357 4.706,-3.916 H 5.359 c -0.103,1.58 -1.168,2.164 -2.645,2.164 -0.996,0 -2.25,-0.36 -2.25,-1.597 0,-0.859 0.584,-1.34 1.46,-1.58 C 2.113,3.486 4.826,2.782 5.462,2.593 7.076,2.112 7.849,0.738 7.849,-0.533 7.849,-3.281 5.41,-4.38 2.971,-4.38 0.172,-4.38 -2.095,-3.04 -2.147,0 H 0"
         style="fill:#231f20;fill-opacity:1;fill-rule:nonzero;stroke:none"
         transform="matrix(1.3333333,0,0,-1.3333333,329.65067,81.338667)" />
      <path
         id="path19"
         d="m 0,0 c -0.361,1.408 -1.271,2.439 -3.057,2.439 -2.628,0 -3.727,-2.319 -3.727,-4.672 0,-2.353 1.099,-4.671 3.727,-4.671 1.906,0 2.954,1.425 3.126,3.212 h 2.095 c -0.171,-2.937 -2.25,-4.964 -5.221,-4.964 -3.676,0 -5.874,2.92 -5.874,6.423 0,3.504 2.198,6.424 5.874,6.424 C -0.292,4.174 1.889,2.645 2.147,0 H 0"
         style="fill:#231f20;fill-opacity:1;fill-rule:nonzero;stroke:none"
         transform="matrix(1.3333333,0,0,-1.3333333,353.64933,75.637333)" />
      <path
         id="path20"
         d="M 0,0 H 8.829 V -1.855 H 2.147 V -5.067 H 8.33 V -6.819 H 2.147 v -3.589 h 6.802 v -1.855 H 0 V 0"
         style="fill:#231f20;fill-opacity:1;fill-rule:nonzero;stroke:none"
         transform="matrix(1.3333333,0,0,-1.3333333,359.14533,70.438667)" />
      <path
         id="path21"
         d="m 0,0 h 2.266 l 5.6,-9.034 H 7.9 V 0 H 9.944 V -12.263 H 7.677 l -5.583,9.017 h -0.05 v -9.017 H 0 L 0,0"
         style="fill:#231f20;fill-opacity:1;fill-rule:nonzero;stroke:none"
         transform="matrix(1.3333333,0,0,-1.3333333,373.45867,70.438667)" />
      <path
         id="path22"
         d="M 0,0 H 9.927 V -1.855 H 6.028 V -12.263 H 3.881 V -1.855 L 0,-1.855 V 0"
         style="fill:#231f20;fill-opacity:1;fill-rule:nonzero;stroke:none"
         transform="matrix(1.3333333,0,0,-1.3333333,388.548,70.438667)" />
      <path
         id="path23"
         d="M 0,0 C -0.347,2.427 -0.505,4.182 -0.505,5.321 -1.105,4.707 -1.485,4.269 -1.643,4.064 -2.022,3.567 -2.212,3.07 -2.212,2.573 c 0,-0.848 0.285,-2.807 0.886,-5.877 0.378,-1.901 0.567,-3.684 0.567,-5.351 h 0.538 c 0.475,1.14 0.728,2.222 0.728,3.275 C 0.507,-4.24 0.349,-2.427 0,0 Z m -51.842,5.351 c -0.727,-0.118 -1.391,0.058 -1.928,0.555 -0.57,0.497 -0.886,1.082 -0.917,1.784 -0.663,-0.293 -1.139,-1.023 -1.423,-2.193 l 0.38,-0.614 c 0.663,-2.691 1.201,-4.707 1.612,-6.024 0.411,-1.841 0.601,-3.713 0.601,-5.671 0,-0.556 -0.095,-0.937 -0.253,-1.2 -0.317,-0.497 -1.076,-0.935 -2.309,-1.257 -1.01,-0.263 -1.927,-0.41 -2.748,-0.41 -1.076,0 -1.993,0.205 -2.783,0.615 -0.98,0.497 -1.454,1.199 -1.454,2.105 0,0.614 0.158,1.169 0.442,1.725 0.127,0.263 0.443,0.76 0.981,1.52 l -0.347,0.322 c -1.739,-2.134 -2.625,-4.093 -2.625,-5.877 0,-1.316 0.538,-2.31 1.643,-2.983 0.918,-0.584 2.15,-0.877 3.636,-0.877 2.118,0 3.763,0.526 4.963,1.579 1.201,1.053 1.802,2.544 1.802,4.474 0,2.105 -0.254,4.883 -0.727,8.304 -0.094,0.731 -0.19,1.404 -0.221,2.017 l 0.284,-0.116 z m 34.705,-17.222 c 0,-0.322 -0.126,-0.556 -0.411,-0.761 -0.284,-0.204 -0.568,-0.321 -0.915,-0.321 -0.854,0 -1.643,0.438 -2.307,1.286 -0.507,0.644 -0.886,1.433 -1.17,2.34 3.191,-0.381 4.803,-1.229 4.803,-2.544 z m -1.958,9.151 c 0.757,0 1.136,-0.233 1.136,-0.73 0,-0.585 -0.441,-1.082 -1.358,-1.491 -0.411,-0.205 -1.107,-0.439 -2.15,-0.703 0.981,1.959 1.771,2.924 2.372,2.924 z m 13.463,5.702 1.361,2.222 C -4.999,5.088 -5.663,5.292 -6.2,5.789 -6.736,6.286 -7.054,6.871 -7.085,7.544 -7.749,7.251 -8.222,6.521 -8.539,5.351 c 0.096,-0.205 0.222,-0.38 0.317,-0.497 0.032,-0.965 0.315,-2.603 0.79,-4.913 0.442,-2.134 0.665,-3.743 0.665,-4.765 0,-0.732 -0.287,-1.141 -0.823,-1.287 -0.159,-0.059 -0.79,-0.088 -1.834,-0.088 h -3.825 c -0.472,0 -1.137,0 -2.054,0.029 -0.917,0 -1.612,0 -2.085,0 -0.444,0 -0.823,-0.029 -1.107,-0.059 1.296,0.849 1.928,2.047 1.928,3.597 0,0.585 -0.063,1.141 -0.19,1.638 -0.189,0.76 -0.473,1.14 -0.853,1.14 -0.79,0 -1.834,-0.848 -3.066,-2.573 -1.044,-1.491 -1.74,-2.719 -2.055,-3.714 -0.664,-0.029 -1.422,-0.058 -2.308,-0.058 h -10.778 c -0.535,0 -0.947,0.293 -1.2,0.907 -0.475,1.022 -0.885,2.982 -1.234,5.848 -0.346,2.544 -0.505,4.561 -0.505,6.052 -0.822,-0.964 -1.296,-1.725 -1.454,-2.339 -0.064,-0.643 -0.095,-1.14 -0.095,-1.462 -0.033,-0.965 -0.159,-2.077 -0.412,-3.333 -0.283,-1.316 -0.6,-2.398 -0.946,-3.188 -0.697,2.485 -2.341,4.591 -4.965,6.346 -1.768,1.198 -2.876,1.783 -3.287,1.783 -0.441,0 -0.695,-0.438 -0.79,-1.345 -0.032,-0.205 -0.032,-0.819 -0.032,-1.784 0,-0.642 0.221,-1.14 0.697,-1.462 0.694,-0.497 1.2,-0.73 1.517,-0.73 0.158,0 0.316,0.145 0.538,0.468 0.189,0.321 0.314,0.467 0.41,0.467 0.601,0 1.644,-0.614 3.16,-1.841 1.486,-1.229 2.244,-2.106 2.244,-2.603 0,-0.877 -0.884,-2.047 -2.623,-3.509 -1.296,-1.082 -2.592,-2.017 -3.951,-2.749 l 0.063,-0.263 c 0.949,0.147 1.897,0.322 2.813,0.498 1.075,0.233 1.961,0.584 2.625,1.023 1.137,0.789 2.054,2.456 2.717,5.029 0.317,1.199 0.665,3.157 1.044,5.819 0,-1.697 0.158,-3.451 0.442,-5.292 0.379,-2.544 0.948,-4.153 1.676,-4.826 0.411,-0.379 0.947,-0.555 1.548,-0.555 h 1.044 c 3.73,0 7.459,0 11.189,0 h 0.757 c 0.729,-4.298 2.088,-6.433 4.078,-6.433 0.886,0 1.581,0.439 2.055,1.317 0.347,0.701 0.538,1.491 0.538,2.397 0,0.585 -0.096,1.053 -0.253,1.433 -0.096,0.234 -0.379,0.643 -0.79,1.257 0.79,0.029 2.117,0.029 3.95,0.029 h 5.279 v 0.049 c 0.896,0.113 1.596,0.575 2.118,1.413 0.474,0.79 0.696,1.755 0.696,2.866 0,0.877 -0.158,2.192 -0.476,3.947 -0.346,1.754 -0.505,3.07 -0.505,3.947 v 0.205 z m -64.375,2.339 c -0.6,-0.614 -0.979,-1.052 -1.138,-1.257 -0.379,-0.497 -0.569,-0.994 -0.569,-1.491 0,-0.848 0.285,-2.807 0.886,-5.877 0.38,-1.901 0.568,-3.684 0.568,-5.351 h 0.538 c 0.474,1.14 0.728,2.222 0.728,3.275 0,1.14 -0.159,2.953 -0.508,5.38 -0.345,2.427 -0.505,4.182 -0.505,5.321 z m -12.301,1.871 c 0.127,0.118 0.253,0.381 0.347,0.761 -0.474,-0.146 -0.916,-0.234 -1.39,-0.234 -0.538,0 -1.297,0.351 -2.277,1.082 0.348,0.38 0.696,0.585 1.076,0.585 0.347,0 0.79,-0.176 1.358,-0.527 0.255,0.556 0.38,0.907 0.38,1.112 0,0.526 -0.284,0.789 -0.854,0.789 -0.473,0 -1.074,-0.322 -1.803,-0.936 -0.725,-0.643 -1.104,-1.198 -1.104,-1.637 0,-0.322 0.347,-0.702 1.073,-1.169 -0.726,-0.205 -1.263,-0.615 -1.612,-1.288 l 4.016,1.112 c 0.411,0.088 0.663,0.205 0.79,0.35 z m -30.377,-14.063 c -0.347,0 -1.01,0.438 -1.959,1.345 0.158,0.35 0.347,0.702 0.538,1.082 0.284,0.497 0.536,0.73 0.822,0.73 0.314,0 0.567,-0.35 0.758,-1.053 0.158,-0.525 0.221,-1.023 0.221,-1.462 0,-0.438 -0.125,-0.642 -0.38,-0.642 z m 22.095,4.474 c -1.517,0 -3.256,0.35 -5.215,1.052 -1.234,0.439 -2.15,0.643 -2.783,0.643 -1.011,0 -1.801,-0.38 -2.338,-1.14 -0.348,-0.497 -0.664,-1.287 -0.949,-2.428 h 1.961 c 0.126,0.352 0.442,0.527 0.979,0.527 0.696,0 1.644,-0.292 2.845,-0.848 -1.359,-0.643 -2.401,-1.053 -3.13,-1.257 -0.852,-0.234 -1.991,-0.351 -3.381,-0.351 h -5.942 c -0.664,0 -1.297,0.351 -1.928,1.023 -0.475,0.614 -0.949,1.258 -1.456,1.901 -0.503,0.643 -0.947,0.965 -1.326,0.965 -0.727,0 -1.329,-0.322 -1.834,-0.994 -0.41,-0.614 -0.791,-1.258 -1.201,-1.872 -0.538,-0.672 -1.17,-1.023 -1.929,-1.023 h -9.797 c -1.138,0 -1.865,0.058 -2.15,0.176 -0.474,0.175 -0.917,0.672 -1.327,1.461 l -1.771,-2.397 c 0.475,-1.141 1.17,-1.842 2.086,-2.135 -0.536,-0.789 -1.043,-1.55 -1.548,-2.339 -0.696,-1.023 -1.296,-1.696 -1.803,-2.046 -1.168,-0.848 -2.338,-1.258 -3.445,-1.258 -0.315,0 -0.791,0.058 -1.454,0.175 l -0.221,-0.35 c 1.675,-1.024 3.066,-1.55 4.205,-1.55 1.611,0 2.877,0.877 3.856,2.632 0.664,1.227 1.137,2.748 1.422,4.59 h 12.327 v 0.088 c 0.408,0.062 0.707,0.157 0.886,0.293 0.601,0.497 0.946,0.847 1.105,1.081 1.581,-1.608 2.814,-2.427 3.699,-2.427 0.979,0 1.55,0.585 1.676,1.726 0.411,-0.498 1.075,-0.761 1.928,-0.761 h 7.396 v 0.087 c 0.384,0.054 0.68,0.133 0.884,0.235 0.601,0.263 1.422,0.818 2.53,1.638 1.075,0.789 1.928,1.344 2.56,1.636 1.263,0.585 2.655,0.877 4.14,0.877 0.728,0 1.329,0.03 1.739,0.088 l 0.348,2.369 c -0.19,0 -0.475,0 -0.821,-0.029 -0.349,-0.029 -0.633,-0.058 -0.823,-0.058 z m 12.169,-5.527 h -0.821 c 0.537,0.38 1.043,0.906 1.58,1.521 0.38,-0.497 0.568,-0.849 0.568,-1.082 0,-0.293 -0.441,-0.439 -1.327,-0.439 z m 2.75,12.368 c -0.537,0.497 -0.853,1.082 -0.884,1.784 -0.696,-0.322 -1.17,-1.052 -1.455,-2.193 0.127,-0.264 0.317,-0.556 0.57,-0.819 0.442,-1.959 0.664,-3.245 0.664,-3.86 0,-1.198 -0.222,-2.251 -0.632,-3.099 -2.403,4.123 -4.932,7.076 -7.556,8.86 -1.106,-1.316 -1.675,-2.281 -1.675,-2.866 0,-0.438 0.285,-0.994 0.822,-1.637 0.537,-0.643 1.044,-0.965 1.486,-0.965 0.283,0 0.601,0.351 0.947,1.024 1.801,-1.55 3.541,-3.597 5.216,-6.082 -1.043,-1.053 -1.96,-1.901 -2.813,-2.515 h -1.169 l -0.569,-3.041 h 2.845 c 1.295,0 2.212,0.117 2.78,0.351 0.855,0.38 1.298,1.052 1.298,2.076 0,0.965 -0.317,2.164 -0.98,3.597 0.663,1.256 1.074,2.192 1.232,2.865 0.094,0.497 0.158,1.52 0.158,3.129 0,0.321 0,0.555 0,0.701 l 0.253,-0.116 1.391,2.251 c -0.728,-0.118 -1.391,0.058 -1.929,0.555 z M -205.517,1.082 c -0.633,0 -1.233,-0.176 -1.803,-0.497 -0.884,-0.526 -1.896,-1.462 -3.035,-2.808 -1.232,-1.491 -1.833,-2.631 -1.833,-3.45 0,-1.053 0.696,-1.666 2.087,-1.842 1.107,-0.058 2.181,-0.117 3.287,-0.175 0.285,-0.059 0.444,-0.146 0.444,-0.292 0,-0.468 -0.918,-0.877 -2.783,-1.258 -1.516,-0.322 -2.718,-0.468 -3.603,-0.468 -1.549,0 -2.845,0.234 -3.889,0.702 -1.422,0.614 -2.117,1.521 -2.117,2.777 0,0.703 0.505,1.843 1.517,3.422 l -0.347,0.234 c -1.74,-2.368 -2.624,-4.415 -2.624,-6.112 0,-1.256 0.505,-2.192 1.517,-2.865 0.917,-0.585 2.054,-0.877 3.477,-0.877 1.929,0 4.046,0.409 6.321,1.257 2.783,1.024 4.174,2.311 4.174,3.802 0,0.73 -0.474,1.227 -1.391,1.55 -0.853,0.174 -1.739,0.38 -2.624,0.584 -0.885,0.205 -1.328,0.585 -1.328,1.17 0,0.643 0.443,1.199 1.359,1.667 0.791,0.379 1.581,0.585 2.341,0.585 0.884,0 1.485,-0.176 1.8,-0.498 0.222,0.614 0.317,1.374 0.317,2.222 0,0.79 -0.411,1.17 -1.264,1.17 z m 40.963,-6.667 c -1.516,-0.263 -2.813,-0.409 -3.919,-0.409 2.308,1.783 4.047,2.69 5.152,2.69 1.234,0 1.833,-0.293 1.833,-0.907 0,-0.556 -1.01,-1.023 -3.066,-1.374 z m 16.785,-0.321 c -0.822,0.497 -1.295,0.789 -1.391,0.906 -0.505,0.556 -0.916,1.754 -1.201,3.538 -0.222,1.374 -0.316,2.66 -0.316,3.859 0,0.264 0,0.468 0.032,0.615 l 0.348,-0.176 1.39,2.223 c -0.727,-0.088 -1.39,0.087 -1.929,0.585 -0.536,0.497 -0.852,1.081 -0.884,1.783 -0.696,-0.322 -1.17,-1.082 -1.455,-2.223 0.127,-0.263 0.316,-0.525 0.57,-0.789 0.031,-1.257 0.285,-2.895 0.727,-4.912 0.348,-1.638 0.727,-3.275 1.107,-4.941 -0.285,-0.38 -0.759,-0.615 -1.36,-0.703 -0.22,-0.029 -0.728,-0.058 -1.581,-0.058 h -7.869 c 0.98,0.935 1.454,1.929 1.454,3.012 0,0.731 -0.253,1.432 -0.76,2.076 -0.505,0.643 -1.168,0.965 -1.959,0.965 -1.043,0 -2.339,-0.76 -3.919,-2.31 -1.202,-1.17 -2.182,-2.368 -2.972,-3.567 -0.234,-0.028 -0.923,-0.029 -2.028,-0.03 -0.788,0.001 -1.386,0.089 -1.733,0.235 -0.475,0.204 -0.822,0.642 -1.043,1.256 h -0.158 c -0.031,-0.759 -0.127,-1.199 -0.254,-1.286 -0.315,-0.234 -1.264,-0.351 -2.812,-0.351 h -13.592 c -1.138,0 -1.864,0.058 -2.15,0.176 -0.473,0.175 -0.916,0.672 -1.327,1.461 l -1.77,-2.397 c 0.474,-1.141 1.17,-1.842 2.087,-2.135 -0.538,-0.789 -1.044,-1.55 -1.549,-2.339 -0.696,-1.023 -1.296,-1.696 -1.802,-2.046 -1.17,-0.848 -2.34,-1.258 -3.446,-1.258 -0.316,0 -0.791,0.058 -1.454,0.175 l -0.222,-0.35 c 1.676,-1.024 3.067,-1.55 4.205,-1.55 1.612,0 2.876,0.877 3.856,2.632 0.665,1.227 1.139,2.748 1.422,4.59 h 1.139 c 5.215,0 10.431,0 15.646,0 h 0.411 v 0.072 c 0.642,0.161 1.198,0.681 1.643,1.624 0.442,-1.141 1.328,-1.696 2.655,-1.696 h 0.791 l -0.538,-1.198 c 0,-0.206 0.095,-0.323 0.316,-0.323 0.158,0 0.379,0.235 0.664,0.673 0.253,0.38 0.411,0.673 0.442,0.848 1.486,0.117 2.814,0.322 3.983,0.614 0.254,-0.409 0.854,-0.614 1.77,-0.614 h 12.327 v 0.06 c 0.285,0.069 0.619,0.197 1.012,0.408 0.601,0.322 1.011,0.468 1.17,0.468 0.442,0 1.202,-0.468 2.244,-1.433 0.284,0.029 0.505,0.41 0.726,1.17 0.158,0.614 0.254,1.111 0.254,1.491 0,0.438 -0.316,0.818 -0.917,1.17 z m 4.741,11.227 c -0.601,-0.614 -0.981,-1.052 -1.138,-1.257 -0.378,-0.497 -0.568,-0.994 -0.568,-1.491 0,-0.848 0.283,-2.807 0.884,-5.877 0.38,-1.901 0.569,-3.684 0.569,-5.351 h 0.538 c 0.474,1.14 0.727,2.222 0.727,3.275 0,1.14 -0.159,2.953 -0.505,5.38 -0.348,2.427 -0.507,4.182 -0.507,5.321"
         style="fill:#231f20;fill-opacity:1;fill-rule:nonzero;stroke:none"
         transform="matrix(1.3333333,0,0,-1.3333333,400.87867,38.598667)" />
    </g>
  </g>
</svg>
