<?xml version="1.0" encoding="utf-8"?>
<!-- Generator: Adobe Illustrator 16.0.0, SVG Export Plug-In . SVG Version: 6.00 Build 0)  -->
<!DOCTYPE svg PUBLIC "-//W3C//DTD SVG 1.1//EN" "http://www.w3.org/Graphics/SVG/1.1/DTD/svg11.dtd">
<svg version="1.1" id="Layer_1" xmlns="http://www.w3.org/2000/svg" xmlns:xlink="http://www.w3.org/1999/xlink" x="0px" y="0px"
	 width="595.279px" height="841.891px" viewBox="0 0 595.279 841.891" enable-background="new 0 0 595.279 841.891"
	 xml:space="preserve">
<g>
	<rect id="canvas_background" x="-0.778" y="309.909" fill="#FFFFFF" width="596.836" height="222.073"/>
</g>
<g>
	<polygon fill="#E42313" points="203.497,95.754 140.844,95.754 140.844,33.101 78.123,33.101 78.123,95.754 15.47,95.754 
		15.47,158.473 78.123,158.473 78.123,221.126 140.844,221.126 140.844,158.473 203.497,158.473 	"/>
	<g>
		<path fill="#646363" d="M360.128,61.811c10.465,0,18.18,7.446,18.18,20.394c0,12.946-7.782,20.392-18.18,20.392
			c-10.464,0-18.178-7.446-18.178-20.392C341.882,69.257,349.664,61.811,360.128,61.811 M360.128,112.659
			c16.704,0,29.583-12.543,29.583-30.454c0-18.246-12.545-30.456-29.583-30.456c-16.702,0-29.583,12.543-29.583,30.456
			C330.479,100.449,343.023,112.659,360.128,112.659"/>
		<path fill="#646363" d="M428.281,102.53c-10.462,0-17.439-7.446-17.439-20.394c0-12.946,7.044-20.392,17.439-20.392
			c10.467,0,18.18,7.446,18.18,20.392C446.46,95.15,438.679,102.53,428.281,102.53 M446.26,109.773c0,1.142,0.603,1.677,1.745,1.677
			h7.378c1.14,0,1.677-0.604,1.677-1.677V34.778c0-1.14-0.537-1.744-1.677-1.744h-7.581c-1.141,0-1.743,0.604-1.743,1.744v26.364
			c-3.757-5.636-9.727-9.459-18.783-9.459c-16.3,0-27.904,12.409-27.904,30.655c0,18.111,11.403,30.252,27.502,30.252
			c9.393,0,15.563-4.024,19.387-9.994V109.773L446.26,109.773z"/>
		<path fill="#646363" d="M456.187,141.234h-8.721c-1.14,0-1.677,0.604-1.677,1.744v8.721c0,1.142,0.537,1.677,1.677,1.677h8.721
			c1.141,0,1.678-0.535,1.678-1.677v-8.721C457.865,141.771,457.327,141.234,456.187,141.234"/>
		<path fill="#646363" d="M455.583,162.499h-7.578c-1.143,0-1.745,0.537-1.745,1.743v55.209c0,1.14,0.603,1.743,1.745,1.743h7.578
			c1.141,0,1.678-0.603,1.678-1.743v-55.209C457.327,163.102,456.724,162.499,455.583,162.499"/>
		<path fill="#646363" d="M309.818,57.653c0,8.586-6.104,13.684-17.104,13.684h-15.363V43.901h15.363
			C303.714,43.901,309.818,49.066,309.818,57.653 M267.894,111.519h7.78c1.142,0,1.745-0.604,1.745-1.745V81.801h12.879
			l20.257,28.376c0.604,0.738,1.341,1.341,2.684,1.341h9.123c1.678,0,1.879-1.542,1.141-2.481L302.44,79.923
			c12.142-2.683,18.984-11.068,18.984-22.27c0-16.771-13.484-24.552-27.705-24.552h-25.825c-1.14,0-1.677,0.605-1.677,1.745v74.996
			C266.217,110.915,266.754,111.519,267.894,111.519"/>
		<path fill="#646363" d="M427.813,162.499h-7.581c-1.141,0-1.677,0.537-1.677,1.743v31.596c0,9.525-5.5,16.167-14.959,16.167
			c-8.721,0-14.422-5.703-14.422-16.167v-31.596c0-1.14-0.536-1.743-1.677-1.743h-7.581c-1.14,0-1.677,0.537-1.677,1.743v33.474
			c0,14.49,9.66,24.55,23.545,24.55c8.186,0,13.887-3.421,17.039-8.988v6.104c0,1.14,0.604,1.744,1.678,1.744h7.379
			c1.141,0,1.678-0.604,1.678-1.744v-55.141C429.49,163.102,428.952,162.499,427.813,162.499"/>
		<path fill="#646363" d="M480.94,77.643c1.477-11.337,8.452-16.033,15.898-16.033c8.385,0,14.825,5.904,15.765,15.966H480.94
			V77.643z M496.838,51.749c-14.959,0-27.101,12.209-27.101,30.456c0,18.245,12.142,30.454,28.643,30.454
			c10.063,0,18.783-4.561,22.943-10.464c0.938-1.14,0.334-1.878-0.203-2.481l-4.359-4.361c-0.738-0.738-1.543-0.738-2.481,0
			c-1.677,1.542-6.44,7.446-15.698,7.446c-7.579,0-15.829-4.561-17.507-15.964h40.718c1.743,0,1.878-1.343,1.878-3.825
			C523.737,63.556,512.938,51.749,496.838,51.749"/>
		<path fill="#646363" d="M497.24,187.117c-7.177-2.079-13.684-4.025-13.684-9.324c0-3.957,3.824-6.507,11.202-6.507
			c7.044,0,11.806,2.483,14.826,4.16c1.14,0.604,2.079,0,2.481-0.738l2.817-5.703c0.603-1.341,0-2.079-0.738-2.483
			c-5.299-2.884-12.879-5.164-19.923-5.164c-12.544,0-21.599,6.306-21.599,17.173c0,11.604,10.597,15.026,20.257,17.91
			c7.782,2.28,13.081,3.824,13.081,8.787c0,4.026-3.22,7.245-12.142,7.245c-7.378,0-11.739-2.28-18.178-5.701
			c-1.141-0.605-1.879-0.404-2.483,0.736l-2.817,5.703c-0.402,0.738-0.402,1.542,0.336,2.281c1.878,1.878,12.142,6.842,23.881,6.842
			c13.482,0,22.404-6.642,22.404-17.709C516.962,192.619,506.497,189.733,497.24,187.117"/>
		<path fill="#646363" d="M293.653,177.391l30.321-32.131c0.736-0.939,0.602-2.483-1.143-2.483h-9.123
			c-1.341,0-2.28,0.605-2.817,1.343l-33.54,35.62v-35.217c0-1.14-0.603-1.745-1.743-1.745h-7.782c-1.14,0-1.675,0.605-1.675,1.745
			v74.996c0,1.14,0.604,1.743,1.675,1.743h7.782c1.14,0,1.743-0.603,1.743-1.743v-25.423l8.319-8.788l26.565,34.613
			c0.602,0.738,1.542,1.341,2.817,1.341h9.121c1.679,0,1.88-1.542,1.142-2.481L293.653,177.391z"/>
		<path fill="#646363" d="M345.439,198.319c0-15.429,8.317-24.954,21.062-24.954c1.141,0,1.678-0.604,1.678-1.743v-8.586
			c0-1.14-0.604-1.744-1.678-1.744c-9.659,0-17.641,5.568-21.264,14.824v-11.874c0-1.14-0.604-1.743-1.676-1.743h-7.38
			c-1.14,0-1.677,0.537-1.677,1.743v55.209c0,1.14,0.537,1.743,1.677,1.743h7.579c1.143,0,1.745-0.603,1.745-1.743v-21.132H345.439z
			"/>
	</g>
</g>
</svg>
