<?xml version="1.0" encoding="UTF-8" standalone="no"?>
<!-- Created with Inkscape (http://www.inkscape.org/) -->

<svg
   version="1.1"
   id="svg1"
   width="707.88"
   height="128.88133"
   viewBox="0 0 707.88 128.88133"
   sodipodi:docname="Icelandic Red Cross.svg"
   inkscape:version="1.3.2 (091e20e, 2023-11-25, custom)"
   xmlns:inkscape="http://www.inkscape.org/namespaces/inkscape"
   xmlns:sodipodi="http://sodipodi.sourceforge.net/DTD/sodipodi-0.dtd"
   xmlns="http://www.w3.org/2000/svg"
   xmlns:svg="http://www.w3.org/2000/svg">
  <defs
     id="defs1">
    <clipPath
       clipPathUnits="userSpaceOnUse"
       id="clipPath19">
      <path
         d="M 0,96.661 H 530.88 V 0.06 L 0,0.06 Z"
         transform="translate(-529.34201,-50.987001)"
         id="path19" />
    </clipPath>
    <clipPath
       clipPathUnits="userSpaceOnUse"
       id="clipPath21">
      <path
         d="M 0,96.661 H 530.88 V 0.06 L 0,0.06 Z"
         transform="translate(-64.443002,-64.441002)"
         id="path21" />
    </clipPath>
  </defs>
  <sodipodi:namedview
     id="namedview1"
     pagecolor="#ffffff"
     bordercolor="#666666"
     borderopacity="1.0"
     inkscape:showpageshadow="2"
     inkscape:pageopacity="0.0"
     inkscape:pagecheckerboard="0"
     inkscape:deskcolor="#d1d1d1"
     inkscape:zoom="1.3208453"
     inkscape:cx="353.94"
     inkscape:cy="64.731274"
     inkscape:window-width="1920"
     inkscape:window-height="1017"
     inkscape:window-x="-8"
     inkscape:window-y="-8"
     inkscape:window-maximized="1"
     inkscape:current-layer="g1">
    <inkscape:page
       x="0"
       y="0"
       inkscape:label="Page 1"
       id="page1"
       width="707.88"
       height="128.88133"
       margin="0"
       bleed="0" />
  </sodipodi:namedview>
  <g
     id="g1"
     inkscape:groupmode="layer"
     inkscape:label="Page 1">
    <g
       id="group-MC1">
      <path
         id="path2"
         d="m 128.819,32.322 h 6.421 v 32.009 h -6.421 z"
         style="fill:#231f20;fill-opacity:1;fill-rule:nonzero;stroke:none"
         transform="matrix(1.3333333,0,0,-1.3333333,0,128.88133)" />
      <path
         id="path3"
         d="m 0,0 c -1.097,0.506 -2.293,0.871 -4.171,0.871 -3.807,0 -6.239,-3.028 -6.239,-7.475 0,-4.357 2.067,-7.707 6.376,-7.707 1.741,0 3.67,0.641 4.724,1.102 l 0.273,-5.094 c -1.786,-0.543 -3.622,-0.775 -6.142,-0.775 -7.751,0 -11.651,5.273 -11.651,12.474 0,6.833 4.038,12.245 11.42,12.245 2.475,0 4.268,-0.275 5.963,-0.778 L 0,0"
         style="fill:#231f20;fill-opacity:1;fill-rule:nonzero;stroke:none"
         transform="matrix(1.3333333,0,0,-1.3333333,209.17867,61.082667)" />
      <path
         id="path4"
         d="m 0,0 c -0.187,2.981 -1.56,5.55 -5.001,5.55 -3.438,0 -5.184,-2.387 -5.46,-5.55 z m 4.124,-12.798 c -2.244,-1.235 -4.81,-1.878 -8.116,-1.878 -7.797,0 -12.337,4.495 -12.337,12.245 0,6.833 3.624,12.474 10.962,12.474 8.757,0 11.238,-6.008 11.238,-14.264 h -16.332 c 0.276,-3.808 2.94,-5.96 6.746,-5.96 2.983,0 5.55,1.101 7.839,2.384 v -5.001"
         style="fill:#231f20;fill-opacity:1;fill-rule:nonzero;stroke:none"
         transform="matrix(1.3333333,0,0,-1.3333333,235.66133,66.953333)" />
      <path
         id="path5"
         d="m 187.567,32.322 h 6.146 v 34.395 h -6.146 z"
         style="fill:#231f20;fill-opacity:1;fill-rule:nonzero;stroke:none"
         transform="matrix(1.3333333,0,0,-1.3333333,0,128.88133)" />
      <path
         id="path6"
         d="m 0,0 c 1.884,0 3.347,0.823 4.311,2.106 1.012,1.33 1.284,3.032 1.284,4.866 H 2.938 C 0.183,6.972 -3.899,6.511 -3.899,2.89 -3.899,0.868 -2.199,0 0,0 Z m -7.2,18.437 c 2.385,1.099 5.594,1.787 8.212,1.787 7.198,0 10.178,-2.981 10.178,-9.953 V 7.243 c 0,-2.383 0.045,-4.172 0.096,-5.917 0.045,-1.786 0.137,-3.432 0.274,-5.269 H 6.147 c -0.234,1.235 -0.234,2.798 -0.279,3.53 H 5.778 C 4.357,-3.03 1.281,-4.495 -1.51,-4.495 c -4.179,0 -8.259,2.519 -8.259,7.017 0,3.531 1.699,5.592 4.035,6.741 2.339,1.146 5.366,1.376 7.938,1.376 h 3.391 c 0,3.808 -1.696,5.091 -5.322,5.091 -2.61,0 -5.23,-1.008 -7.292,-2.569 L -7.2,18.437"
         style="fill:#231f20;fill-opacity:1;fill-rule:nonzero;stroke:none"
         transform="matrix(1.3333333,0,0,-1.3333333,277.91467,80.526667)" />
      <path
         id="path7"
         d="m 0,0 h 5.823 v -3.209 h 0.096 c 1.924,2.708 4.535,3.761 7.753,3.761 5.593,0 8.022,-3.944 8.022,-9.266 v -14.901 h -6.149 v 12.608 c 0,2.89 -0.045,6.789 -3.985,6.789 -4.449,0 -5.415,-4.815 -5.415,-7.841 V -23.615 H 0 L 0,0"
         style="fill:#231f20;fill-opacity:1;fill-rule:nonzero;stroke:none"
         transform="matrix(1.3333333,0,0,-1.3333333,300.90667,54.297333)" />
      <path
         id="path8"
         d="m 0,0 c 4.081,0 5.408,4.313 5.408,7.662 0,3.299 -1.554,7.521 -5.504,7.521 -3.988,0 -5.088,-4.358 -5.088,-7.521 C -5.184,4.405 -4.037,0 0,0 Z m 5.643,-1.556 h -0.09 c -1.839,-2.297 -4.366,-3.211 -7.25,-3.211 -7.247,0 -9.91,5.96 -9.91,12.429 0,6.514 2.663,12.29 9.91,12.29 3.07,0 5.228,-1.053 7.062,-3.303 h 0.09 V 30.18 h 6.146 V -4.215 H 5.643 v 2.659"
         style="fill:#231f20;fill-opacity:1;fill-rule:nonzero;stroke:none"
         transform="matrix(1.3333333,0,0,-1.3333333,351.72533,80.165333)" />
      <path
         id="path9"
         d="M 0,0 H 6.146 V -23.615 H 0 Z M 0,10.183 H 6.146 V 4.3104 H 0 Z"
         style="fill:#231f20;fill-opacity:1;fill-rule:nonzero;stroke:none"
         transform="matrix(1.3333333,0,0,-1.3333333,375.81733,54.297333)" />
      <path
         id="path10"
         d="m 0,0 c -1.098,0.506 -2.291,0.871 -4.178,0.871 -3.8,0 -6.231,-3.028 -6.231,-7.475 0,-4.357 2.062,-7.707 6.373,-7.707 1.745,0 3.673,0.641 4.722,1.102 l 0.277,-5.094 c -1.788,-0.543 -3.627,-0.775 -6.144,-0.775 -7.75,0 -11.652,5.273 -11.652,12.474 0,6.833 4.039,12.245 11.421,12.245 2.479,0 4.265,-0.275 5.966,-0.778 L 0,0"
         style="fill:#231f20;fill-opacity:1;fill-rule:nonzero;stroke:none"
         transform="matrix(1.3333333,0,0,-1.3333333,413.056,61.082667)" />
      <path
         id="path11"
         d="m 0,0 h 2.115 c 3.164,0 6.784,0.457 6.784,4.45 0,3.851 -3.573,4.173 -6.784,4.173 L 0,8.623 Z m -6.416,13.667 h 6.922 c 6.88,0 15.088,0.228 15.088,-8.669 0,-3.763 -2.519,-6.879 -6.602,-7.427 v -0.096 c 1.746,-0.136 2.753,-1.877 3.397,-3.299 l 5.133,-12.519 h -7.151 l -3.852,9.996 c -0.921,2.384 -1.742,3.3 -4.451,3.3 H 0 v -13.296 h -6.416 v 32.01"
         style="fill:#231f20;fill-opacity:1;fill-rule:nonzero;stroke:none"
         transform="matrix(1.3333333,0,0,-1.3333333,445.33867,61.328)" />
      <path
         id="path12"
         d="m 0,0 c -0.179,2.981 -1.561,5.55 -5.002,5.55 -3.434,0 -5.181,-2.387 -5.459,-5.55 z m 4.128,-12.798 c -2.247,-1.235 -4.815,-1.878 -8.116,-1.878 -7.796,0 -12.336,4.495 -12.336,12.245 0,6.833 3.616,12.474 10.962,12.474 8.754,0 11.232,-6.008 11.232,-14.264 h -16.331 c 0.278,-3.808 2.942,-5.96 6.743,-5.96 2.984,0 5.55,1.101 7.846,2.384 v -5.001"
         style="fill:#231f20;fill-opacity:1;fill-rule:nonzero;stroke:none"
         transform="matrix(1.3333333,0,0,-1.3333333,493.89733,66.953333)" />
      <path
         id="path13"
         d="m 0,0 c 4.082,0 5.412,4.313 5.412,7.662 0,3.299 -1.56,7.521 -5.508,7.521 -3.988,0 -5.084,-4.358 -5.084,-7.521 C -5.18,4.405 -4.035,0 0,0 Z M 5.647,-1.556 H 5.546 C 3.721,-3.853 1.19,-4.767 -1.699,-4.767 c -7.243,0 -9.899,5.96 -9.899,12.429 0,6.514 2.656,12.29 9.899,12.29 3.073,0 5.23,-1.053 7.064,-3.303 h 0.09 V 30.18 h 6.146 V -4.215 H 5.647 v 2.659"
         style="fill:#231f20;fill-opacity:1;fill-rule:nonzero;stroke:none"
         transform="matrix(1.3333333,0,0,-1.3333333,521.59867,80.165333)" />
      <path
         id="path14"
         d="m 0,0 c -2.337,-0.543 -4.869,-1.004 -7.29,-1.004 -10.37,0 -17.57,5.18 -17.57,16.004 0,10.963 6.698,17.107 17.57,17.107 2.104,0 4.897,-0.412 7.237,-1.328 l -0.452,-5.414 c -2.434,1.377 -4.634,1.699 -6.931,1.699 -6.604,0 -10.726,-5.044 -10.726,-11.602 0,-6.515 4.031,-11.423 10.872,-11.423 2.513,0 5.495,0.553 7.008,1.332 L 0,0"
         style="fill:#231f20;fill-opacity:1;fill-rule:nonzero;stroke:none"
         transform="matrix(1.3333333,0,0,-1.3333333,594.312,85.182667)" />
      <path
         id="path15"
         d="m 0,0 h 5.454 v -5.366 h 0.089 c 0.283,2.203 2.802,5.918 6.472,5.918 0.591,0 1.236,0 1.885,-0.185 v -6.189 c -0.553,0.321 -1.655,0.505 -2.757,0.505 -4.996,0 -4.996,-6.241 -4.996,-9.636 v -8.662 H 0 V 0"
         style="fill:#231f20;fill-opacity:1;fill-rule:nonzero;stroke:none"
         transform="matrix(1.3333333,0,0,-1.3333333,600.05867,54.297333)" />
      <path
         id="path16"
         d="m 0,0 c 4.726,0 5.965,4.218 5.965,8.165 0,3.624 -1.923,7.018 -5.965,7.018 -3.987,0 -5.917,-3.484 -5.917,-7.018 C -5.917,4.267 -4.669,0 0,0 Z m 0,19.952 c 7.02,0 12.382,-4.725 12.382,-12.518 C 12.382,0.642 7.845,-4.767 0,-4.767 c -7.792,0 -12.333,5.409 -12.333,12.201 0,7.793 5.368,12.518 12.333,12.518"
         style="fill:#231f20;fill-opacity:1;fill-rule:nonzero;stroke:none"
         transform="matrix(1.3333333,0,0,-1.3333333,636.99867,80.165333)" />
      <path
         id="path17"
         d="m 0,0 c -1.886,0.641 -3.263,1.009 -5.508,1.009 -1.649,0 -3.617,-0.597 -3.617,-2.615 0,-3.763 10.679,-1.377 10.679,-9.91 0,-5.504 -4.907,-7.701 -9.905,-7.701 -2.342,0 -4.725,0.412 -6.973,1.004 l 0.373,5.047 c 1.923,-0.963 3.941,-1.556 6.043,-1.556 1.568,0 4.045,0.593 4.045,2.89 0,4.628 -10.69,1.465 -10.69,9.997 0,5.091 4.453,7.337 9.27,7.337 2.882,0 4.77,-0.455 6.691,-0.871 L 0,0"
         style="fill:#231f20;fill-opacity:1;fill-rule:nonzero;stroke:none"
         transform="matrix(1.3333333,0,0,-1.3333333,678.65067,60.898667)" />
      <path
         id="path18"
         d="m 0,0 c -1.875,0.641 -3.254,1.009 -5.502,1.009 -1.645,0 -3.623,-0.597 -3.623,-2.615 0,-3.763 10.693,-1.377 10.693,-9.91 0,-5.504 -4.912,-7.701 -9.909,-7.701 -2.337,0 -4.723,0.412 -6.971,1.004 l 0.363,5.047 c 1.928,-0.963 3.942,-1.556 6.057,-1.556 1.553,0 4.032,0.593 4.032,2.89 0,4.628 -10.681,1.465 -10.681,9.997 0,5.091 4.445,7.337 9.268,7.337 2.886,0 4.761,-0.455 6.688,-0.871 L 0,0"
         style="fill:#231f20;fill-opacity:1;fill-rule:nonzero;stroke:none"
         transform="matrix(1.3333333,0,0,-1.3333333,705.78933,60.898667)"
         clip-path="url(#clipPath19)" />
      <path
         id="path20"
         d="M 0,0 V 32.22 H -32.221 V 0 h -32.222 v -32.218 h 32.222 V -64.441 H 0 v 32.223 H 32.219 V 0 H 0"
         style="fill:#ed1c24;fill-opacity:1;fill-rule:nonzero;stroke:none"
         transform="matrix(1.3333333,0,0,-1.3333333,85.924,42.96)"
         clip-path="url(#clipPath21)" />
    </g>
  </g>
</svg>
