<?xml version="1.0" encoding="UTF-8" standalone="no"?>
<!-- Created with Inkscape (http://www.inkscape.org/) -->

<svg
   version="1.1"
   id="svg1"
   width="214.12399"
   height="214.12399"
   viewBox="0 0 214.12399 214.12399"
   sodipodi:docname="Cambodian RC.svg"
   inkscape:version="1.3.2 (091e20e, 2023-11-25, custom)"
   xmlns:inkscape="http://www.inkscape.org/namespaces/inkscape"
   xmlns:sodipodi="http://sodipodi.sourceforge.net/DTD/sodipodi-0.dtd"
   xmlns="http://www.w3.org/2000/svg"
   xmlns:svg="http://www.w3.org/2000/svg">
  <defs
     id="defs1">
    <clipPath
       clipPathUnits="userSpaceOnUse"
       id="clipPath47">
      <path
         d="M 0,160.593 H 160.56 V 0.06 L 0,0.06 Z"
         transform="translate(-80.296,-158.593)"
         id="path47" />
    </clipPath>
  </defs>
  <sodipodi:namedview
     id="namedview1"
     pagecolor="#ffffff"
     bordercolor="#666666"
     borderopacity="1.0"
     inkscape:showpageshadow="2"
     inkscape:pageopacity="0.0"
     inkscape:pagecheckerboard="0"
     inkscape:deskcolor="#d1d1d1"
     inkscape:export-bgcolor="#ffffffff"
     inkscape:zoom="3.834227"
     inkscape:cx="107.062"
     inkscape:cy="107.062"
     inkscape:window-width="1920"
     inkscape:window-height="1017"
     inkscape:window-x="-8"
     inkscape:window-y="-8"
     inkscape:window-maximized="1"
     inkscape:current-layer="g1">
    <inkscape:page
       x="0"
       y="0"
       inkscape:label="1"
       id="page1"
       width="214.12399"
       height="214.12399"
       margin="0"
       bleed="0"
       inkscape:export-filename="Cambodian RC.png"
       inkscape:export-xdpi="300"
       inkscape:export-ydpi="300" />
  </sodipodi:namedview>
  <g
     id="g1"
     inkscape:groupmode="layer"
     inkscape:label="1">
    <g
       id="group-MC1">
      <path
         id="path2"
         d="m 0,0 c 4.62,-0.354 1.418,-6.45 1.68,-10.08 1.055,0.145 1.532,0.867 2.4,1.199 -0.351,1.517 -0.071,3.711 0.24,5.281 2.342,-1.738 4.228,-3.932 5.28,-6.96 4.02,0.86 2.04,7.72 3.12,11.52 C 9.057,0.948 11.328,-3.545 10.08,-6 7.338,-4.312 3.53,4.537 0,0 m 16.08,-0.72 c 0.662,-0.718 1.41,0.806 2.16,0 0.1,-3.259 0.882,-5.838 0.96,-9.121 4.723,0.663 0.218,6.639 1.44,10.081 2.089,0.25 3.167,-0.513 3.36,-2.16 -0.528,-0.752 -1.045,-1.515 -1.92,-1.921 1.306,-2.054 4.261,-7.261 6.48,-3.359 -1.887,0.833 -3.113,2.327 -4.081,4.08 5.97,5.445 -6.93,7.124 -8.399,2.4 M -5.04,2.159 C -6.923,-1.237 -9.873,-3.567 -12,-6.72 c 2.05,-0.21 2.875,0.805 3.6,1.92 1.431,-0.569 3.094,-0.906 4.56,-1.44 -0.147,-1.587 0.51,-2.37 0.96,-3.36 1.014,-0.054 1.55,0.371 2.4,0.48 -1.545,3.17 -1.857,7.17 -1.92,11.279 -0.675,0.556 -1.852,0.076 -2.64,0 M -12,4.32 c 1.01,-3.512 -2.168,-6.501 -2.88,-9.84 0.683,-0.448 1.886,0.243 2.64,0.48 1.022,3.298 2.594,6.045 3.6,9.36 -0.84,1.039 -2.056,-0.09 -3.36,0 M 46.079,5.521 C 44.354,11.028 37.752,7.767 34.56,6 32.192,4.69 29.847,4.12 27.36,3.36 27.215,2.465 26.257,2.383 26.16,1.44 c 0.779,-0.139 1.116,0.165 1.68,0.24 1.137,-1.405 0.997,-3.174 0,-4.561 0.861,-0.198 1.161,0.542 1.68,0 0.486,-1.432 0.954,-2.885 1.44,-4.319 2.662,1.017 6.558,0.802 6.96,4.08 -2.028,-0.292 -3.251,-1.389 -5.28,-1.68 -0.409,0.872 -0.766,1.794 -0.96,2.88 1.579,0.42 2.82,1.178 3.12,2.88 -1.243,0.453 -2.232,-1.238 -4.08,-0.96 0.221,1.101 -0.602,1.159 -0.481,2.159 2.516,1.025 3.46,2.057 5.76,2.401 1.415,-2.505 2.801,-5.039 4.08,-7.68 4.548,-0.066 7.055,5.275 6,8.641 M -25.44,11.04 c 1.222,-4.47 -4.903,-9.176 -6,-4.32 -0.653,2.889 1.531,4.814 2.879,6 -5.003,1.407 -8.058,-6.152 -3.839,-8.4 4.236,-2.256 9.086,1.064 10.32,4.32 0.559,-0.08 1.034,-0.245 1.2,-0.72 -1.186,-2.732 -2.699,-5.141 -4.32,-7.44 2.222,-4.643 13.067,-3.479 11.28,4.08 -1.339,2.421 -3.392,4.129 -6.24,5.04 -0.774,-0.107 -1.3,-0.46 -2.16,-0.481 -0.201,3.241 -2.282,4.599 -5.281,5.04 0.247,-1.497 1.683,-1.371 2.161,-3.119 M 60.239,22.8 c -3.23,3.713 -6.758,-1.743 -8.16,-4.32 -5.47,-1.775 -4.802,-11.287 1.2,-11.76 2.81,-0.222 5.519,1.712 5.281,4.801 -2.411,-3.306 -9.916,-1.987 -9.361,2.399 0.313,2.46 4.036,1.607 4.8,4.08 2.641,-1.841 4.514,-4.447 7.44,-6 0.891,4.785 -4.62,5.1 -6.24,8.159 1.377,2.29 4.997,2.044 4.08,-2.159 2.371,0.059 4.42,-1.24 6.72,-0.479 0.248,0.631 0.287,1.471 0.24,2.399 -1.723,-0.123 -4.772,-0.356 -6,0.72 0.255,1 0.063,1.059 0,2.16 m 8.641,-0.48 c 2.243,1.726 1.613,7.04 -0.24,9.12 -3.132,3.513 -9.352,2.094 -8.88,-4.08 1.39,1.289 1.983,3.048 4.559,3.12 6.587,0.184 6.095,-8.101 -0.479,-5.76 -1.491,0.531 -1.252,1.794 -2.641,1.92 -0.243,-4.097 4.836,-6.508 7.681,-4.32 m -114,10.08 c -2.111,-0.928 -4.525,-1.556 -6.72,-2.4 1.298,-2.584 4.245,-0.408 5.76,-0.24 -0.691,-1.681 -2.191,-3.384 -1.441,-5.76 1.217,-1.436 4.116,-1.601 6,-1.68 -1.082,-1.558 -2.886,-2.393 -3.839,-4.08 0.531,-0.669 1.547,-0.852 2.4,-1.2 1.639,2.202 3.496,4.183 6,5.52 0.481,-0.399 1.115,-0.645 1.2,-1.441 -1.987,-2.172 -4.644,-3.674 -6.48,-6 0.269,-4.007 10.184,-6.371 9.36,-0.479 6.894,1.311 -1.979,9.37 -4.8,10.08 -1.71,-0.745 -5.118,-2.345 -6.96,-0.72 -1.135,3.992 2.317,7.183 3.84,10.08 -2.142,1.617 -3.256,-0.306 -4.32,-1.68 m 112.319,0.719 c 2.781,0.123 2.222,4.642 5.28,5.04 2.931,-1.187 0.401,-4.038 -1.2,-4.799 0.097,-1.184 0.525,-2.036 1.441,-2.4 3.606,1.095 2.219,10.137 -1.441,9.84 -1.995,-0.162 -2.77,-5.403 -5.04,-5.04 -2.491,0.399 -0.549,3.912 0.481,4.08 0.108,1.148 -0.262,1.819 -0.96,2.16 -2.806,-2.015 -2.049,-9.033 1.439,-8.881 m -119.76,7.201 c 0.661,-1.34 1.096,-2.905 1.681,-4.32 -0.702,-1.058 -1.823,-1.698 -2.16,-3.12 0.758,-0.441 0.973,-1.427 2.16,-1.44 1.498,3.862 5.132,5.588 7.68,8.4 -1.678,3.323 -9.214,0.856 -12.96,2.64 0.681,-1.453 1.514,-2.727 3.599,-2.16 M 70.319,42 c 2.552,0.726 2.031,6.072 4.8,5.76 2.391,-0.271 1.184,-3.918 -0.72,-4.8 0.3,-0.98 0.61,-1.951 1.68,-2.16 3.51,1.648 0.871,9.889 -2.399,9.6 -2.284,-0.201 -2.29,-5.937 -4.8,-5.76 -2.723,0.191 -0.678,3.964 0.239,4.32 -0.72,0.239 -0.202,1.718 -1.199,1.68 C 65.199,48.47 66.758,42.181 70.319,42 M -56.64,45.84 c 0.176,-1.16 1.586,-2.885 2.64,-2.88 -3.44,6.075 9.517,10.757 6.96,2.4 0.887,-0.154 0.872,-1.208 2.16,-0.96 2.155,8.919 -13.07,10.049 -11.76,1.44 M 74.64,73.919 c -1.795,0.05 -1.771,2.146 -3.601,2.641 -1.568,-0.751 -2.147,-2.492 -2.64,-4.32 3.142,-1.432 7.009,1.7 10.8,1.92 0.587,1.253 1.141,2.54 1.2,4.319 -1.029,0.892 -2.08,1.761 -3.36,2.4 0.97,-1.966 0.672,-7.045 -2.399,-6.96 m -133.201,6 c 0.55,-0.41 0.569,-1.352 0.721,-2.159 -2.375,-1.122 -2.18,-5.078 -0.24,-6.72 1.077,-0.198 1.071,0.688 1.68,0.96 0.265,-0.775 0.345,-1.735 0.96,-2.16 1.354,-0.34 2.092,-0.032 2.879,0.72 0.465,1.12 -1.003,1.534 -0.239,2.16 2.222,0.216 1.692,-2.323 1.199,-3.6 2.403,-1.271 4.92,0.28 4.321,2.4 -0.584,2.063 -4.65,1.075 -5.76,2.879 0.129,2.352 0.663,4.297 2.4,5.04 0.299,-1.38 0.019,-3.34 0.96,-4.08 1.765,0.352 4.254,1.298 4.32,2.641 0.12,2.442 -5.33,2.354 -7.68,3.359 -1.163,-1.898 -3.41,-4.237 -1.68,-6.96 -0.63,-1.427 -2.456,-1.516 -3.36,-1.679 0.27,1.489 1.762,1.758 2.16,3.12 -0.033,0.847 -0.687,1.073 -0.72,1.92 1.62,0.938 3.131,4.81 0,5.28 0.23,-1.911 -1.421,-1.94 -1.921,-3.121 m 6.481,10.56 c -1.086,-0.914 -2.597,-1.403 -3.36,-2.639 0.339,-1.181 0.538,-2.503 0.96,-3.6 1.083,2.25 3.367,4.853 6.48,3.6 0.767,-1.074 0.177,-3.504 0.96,-4.56 2.269,-0.191 3.328,0.831 4.8,1.44 -1.687,3.513 -6.608,3.793 -9.84,5.759 m 123.6,2.4 c -1.147,-0.774 -2.426,-1.413 -3.84,-1.92 0.008,-1.326 2.411,-2.36 0.96,-3.6 -1.331,0.429 -1.697,1.825 -2.88,2.401 -4.754,-3.709 0.51,-12.419 6,-8.401 -2.932,-0.006 -5.727,2.262 -4.08,5.281 1.026,0.067 1.186,-0.734 2.399,-0.48 2.838,0.612 1.075,4.39 0.721,5.52 1.908,-0.572 2.056,-2.905 1.92,-5.52 1.362,-2.436 7.768,-2.871 7.2,0.719 -0.146,0.918 -0.914,1.638 -2.4,1.681 -1.425,-0.823 0.871,-2.697 -0.481,-3.36 -2.398,0.185 -1.383,4.154 -1.68,5.759 -1.491,0.43 -2.442,1.398 -3.839,1.92 m -8.401,2.401 c -0.42,1.02 -1.303,1.577 -1.439,2.88 h -1.441 c -0.126,-1.927 1.255,-3.489 2.88,-2.88 m -109.68,7.44 c 0.109,-1.148 0.109,-1.013 0,-2.16 -0.77,-0.59 -1.527,-1.193 -2.639,-1.44 -0.287,-1.393 -0.563,-2.798 -0.48,-4.56 0.861,-1.004 1.556,-0.174 2.4,-0.48 -0.679,-1.582 0.626,-2.764 2.4,-2.641 1.001,0.2 0.827,1.573 1.2,2.401 2.374,-0.338 0.398,-2.781 0,-3.84 1.826,-2.355 4.977,-0.798 4.8,1.2 -0.174,1.958 -3.99,2.215 -4.32,4.08 -0.377,2.134 2.377,3.884 3.84,4.32 -0.086,-1.495 -1.084,-2.878 -0.48,-4.32 1.789,-0.613 3.788,0.273 5.04,0.96 -0.603,3.397 -3.92,4.08 -6.24,5.76 -1.787,-1.494 -4.298,-2.262 -3.84,-6 -1.188,-1.051 -2.811,-0.24 -3.6,-0.48 0.252,1.427 2.021,1.338 2.879,2.16 v 2.16 c 1.803,0.604 4.705,3.403 1.921,5.039 -0.374,-1.306 -1.788,-1.572 -2.881,-2.159 M 58.56,102.479 c 0.711,-0.709 2.377,-1.539 1.919,-2.639 -1.989,-0.309 -2.286,1.073 -3.599,1.44 -1.926,-3.474 0.171,-7.791 2.88,-8.881 3.966,-0.59 7.693,1.524 7.439,4.321 -0.125,1.372 -1.858,1.619 -1.679,2.88 1.705,-0.056 1.472,-2.048 2.639,-2.641 0.816,0.066 1.946,-0.185 2.401,0.241 -0.624,0.895 -0.959,2.08 -1.201,3.36 -3.612,0.711 -5.283,-0.638 -6.719,-2.641 0.95,-0.889 1.991,-1.689 1.92,-3.6 -0.342,-0.057 -0.406,-0.395 -0.72,-0.479 -2.998,0.122 -4.516,1.725 -4.561,4.8 0.978,0.463 2.561,0.32 3.361,0.96 1.455,1.92 -0.503,3.546 -1.201,4.799 2.227,-0.118 1.948,-3.938 5.04,-2.399 -0.13,1.309 -1.183,1.696 -0.959,3.359 -3.63,0.898 -5.538,-0.898 -6.96,-2.88 m -8.401,11.041 c -2.223,1.028 -3.641,-1.974 -2.16,-3.36 0.727,-0.075 1.866,0.266 1.921,-0.48 -0.954,-1.663 -3.233,-0.168 -4.08,0.48 -2.343,-2.071 -0.943,-5.253 1.439,-4.801 1.633,0.311 2.256,3.933 4.08,4.08 2.099,0.17 2.951,-2.342 4.08,-3.839 -1.753,-0.235 -2.415,0.626 -3.839,0.719 -1.694,-0.955 -0.466,-3.948 0.24,-5.279 3.557,0.442 4.166,3.834 6,6 -1.575,1.784 -2.33,4.389 -6,4.08 -0.932,1.679 -0.09,2.379 -0.24,3.6 1.329,-0.432 1.264,-2.255 2.16,-3.12 0.928,0.047 1.767,0.008 2.399,-0.241 0.029,-2.178 3.077,-4.062 4.561,-1.92 -0.969,0.632 -1.606,1.596 -1.92,2.88 -2.504,-0.344 -3.25,1.071 -3.601,2.881 -2.177,1.084 -6.271,0.849 -5.04,-1.68 m -12.72,2.64 c -0.048,-1.468 3.037,-2.898 3.84,-1.201 -1.702,0.168 -2.024,2.504 -3.84,1.201 m -62.399,-2.879 c -2.189,2.676 -3.546,5.445 -7.92,3.359 -0.932,-2.829 -2.783,-4.737 -6,-5.281 -0.622,-1.458 -1.137,-3.023 -1.681,-4.559 1.12,-1.282 1.979,-2.822 3.601,-3.6 0.588,1.011 1.148,2.051 2.64,2.159 0.385,-2.145 -1.085,-2.434 -1.201,-4.079 3.642,-1.517 7.204,0.435 7.681,3.599 1.107,-0.898 2.64,-0.333 2.88,0.961 -0.834,0.802 -1.495,1.522 -3.12,0.96 -0.423,2.144 -5.863,5.326 -5.521,1.679 0.229,-2.422 2.998,-0.378 4.08,-1.919 -0.291,-1.789 -1.482,-2.677 -3.599,-2.641 -0.127,4.686 -4.151,4.911 -6,1.921 -0.13,3.009 2.441,3.318 4.8,3.84 -0.78,4.248 7.683,7.162 8.4,3.12 0.259,-1.462 -1.216,-1.881 -1.2,-3.6 0.478,-1.4 3.462,-1.447 5.04,-0.96 0.458,2.004 -1.497,3.348 -2.88,5.041 m 5.52,10.799 c -2.398,-0.913 -2.929,-4.271 -4.081,-5.28 0.504,-1.177 1.183,-2.178 1.441,-3.6 1.319,0.125 2.221,1.932 3.84,0.96 -0.195,-1.566 -1.775,-1.746 -2.88,-2.4 -0.044,-3.307 4.053,-4.07 6,-2.16 0.187,1.938 1.163,6.503 3.36,4.08 -1.003,0.122 -1.627,-0.134 -2.16,-0.48 1.621,-7.167 7.623,4.07 0.48,2.88 3.615,3.494 -1.367,7.763 -6,6 m 55.2,-0.48 c -0.389,-1.693 -1.686,-2.475 -1.681,-4.56 1.349,-0.173 2.806,-0.236 2.881,-1.681 -0.976,-0.425 -2.585,-0.24 -3.601,0 -1.895,-8.419 13.456,-8.367 11.04,0.481 -0.605,0.913 -2.203,0.837 -2.879,1.68 1.631,1.014 3.589,-2.352 5.519,0 -0.728,1.03 -1.608,1.911 -2.64,2.64 -0.831,-0.61 -2.135,-0.744 -3.12,-1.201 -0.464,-1.455 -1.276,-2.562 -1.679,-4.08 1.612,-0.387 3.052,-0.946 3.599,-2.4 -1.528,-2.527 -6.562,-0.86 -6.72,1.681 3.197,0.877 2.936,5.622 -0.719,5.759 1.499,1.344 4.272,-2.47 5.519,0.48 -1.448,1.665 -3.095,2.754 -5.519,1.201 m -43.92,-3.121 c 1.306,0.055 1.367,1.353 3.12,0.96 0.923,-1.429 2.333,-4.308 1.92,-6.48 -0.276,-1.448 -1.796,-1.754 -1.92,-3.119 3.176,-2.897 12.556,-3.529 11.519,3.599 -0.98,2.219 -5.22,1.476 -5.519,-0.96 0.388,-0.572 1.116,-0.803 1.92,-0.959 1.067,0.452 1.186,1.854 2.64,1.919 -0.091,-3.7 -6.683,-3.509 -8.16,-1.199 1.547,2.799 -1.172,6.78 -1.68,9.84 -1.302,1.163 -2.94,-0.483 -4.08,0 0.94,1.699 4.866,0.413 4.08,3.839 -5.113,0.972 -5.687,-3.845 -3.84,-7.44 m 23.04,7.681 c -0.212,-1.469 -0.396,-2.965 -0.72,-4.32 0.819,-0.276 3.08,0.448 3.12,-1.2 -0.452,-1.069 -2.296,-0.745 -3.36,-1.201 0.821,-3.189 3.551,-5.533 6.96,-5.04 4.577,0.664 6.696,7.894 1.44,9.361 3.823,0.689 6.836,-1.474 8.159,-4.08 -0.747,-1.413 -3.48,-0.84 -4.559,-1.92 -0.337,-2.898 1.643,-3.477 2.88,-4.801 2.56,1.839 1.597,7.203 2.88,10.322 -2.223,3.369 -6.868,3.9 -10.8,1.678 0.248,-1.742 -0.821,-3.262 -0.481,-4.319 2.032,0.11 3.843,0.002 3.601,-2.161 -1.198,-2.133 -6.419,-0.903 -6.48,0.96 -0.002,0.07 1.108,1.038 1.2,1.201 1.485,2.598 -1.036,4.006 -3.36,4.081 0.672,1.289 2.265,0.089 3.36,-0.242 0.666,0.695 1.94,0.78 1.92,2.161 -2.506,1.439 -3.676,1.356 -5.76,-0.48 m -9.6,0.96 c -1.089,0.111 -1.424,0.976 -2.64,0.96 -1.171,-0.989 -3.163,-1.157 -3.36,-3.121 -0.076,-0.955 1.11,-0.649 1.199,-1.439 -2.064,-0.217 -1.668,-3.511 0,-3.84 1.257,-0.217 0.904,1.176 2.161,0.96 0.791,-2.004 -1.948,-2.226 -3.12,-2.4 -0.812,-3.031 2.654,-4.33 4.32,-2.64 0.088,2.255 -0.214,3.67 -0.24,5.279 0.795,1.311 4.914,1.372 6,0.241 -4.256,-1.3 -3.923,-4.363 0.24,-5.761 2.502,0.993 0.69,5.622 0.72,8.401 -2.608,1.098 -5.852,0.771 -7.68,-0.72 -0.878,0.618 -2.268,1.816 -2.16,2.64 1.585,0.065 2.199,-0.841 3.36,-1.201 0.782,0.418 1.201,1.199 2.16,1.44 1.755,-1.25 4.833,-1.24 4.8,1.681 -2.342,0.003 -3.744,1.205 -5.76,-0.48"
         style="fill:#ffffff;fill-opacity:1;fill-rule:evenodd;stroke:none"
         transform="matrix(1.3333333,0,0,-1.3333333,93.493333,185.73867)" />
      <path
         id="path3"
         d="M 0,0 C 0.632,-0.072 0.787,0.332 0.72,0.96 H 0 Z M 1.68,8.4 C 1.713,5.479 -1.365,5.47 -3.12,6.72 -4.079,6.479 -4.498,5.697 -5.28,5.28 -6.441,5.639 -7.056,6.545 -8.641,6.48 -8.748,5.656 -7.358,4.458 -6.48,3.84 c 1.828,1.49 5.072,1.819 7.679,0.72 -0.029,-2.779 1.782,-7.408 -0.72,-8.4 -4.163,1.397 -4.496,4.461 -0.24,5.76 -1.086,1.131 -5.205,1.07 -6,-0.24 0.027,-1.61 0.328,-3.024 0.24,-5.28 -1.666,-1.69 -5.131,-0.39 -4.32,2.64 1.173,0.174 3.911,0.396 3.12,2.4 -1.257,0.217 -0.903,-1.177 -2.16,-0.96 -1.669,0.33 -2.064,3.623 0,3.84 -0.09,0.79 -1.275,0.484 -1.199,1.44 0.196,1.964 2.188,2.131 3.359,3.12 1.217,0.016 1.552,-0.849 2.641,-0.96 2.016,1.685 3.418,0.483 5.76,0.48"
         style="fill:#202267;fill-opacity:1;fill-rule:evenodd;stroke:none"
         transform="matrix(1.3333333,0,0,-1.3333333,105.97333,24.138667)" />
      <path
         id="path4"
         d="M 0,0 H 0.72 C 0.787,0.547 0.662,0.902 0.238,0.96 0.163,0.635 -0.103,0.501 0,0 m -8.642,9.84 c 0.022,-1.381 -1.253,-1.465 -1.92,-2.16 -1.093,0.33 -2.686,1.53 -3.359,0.24 2.323,-0.074 4.846,-1.482 3.359,-4.08 -0.091,-0.163 -1.202,-1.131 -1.2,-1.2 0.063,-1.864 5.283,-3.094 6.482,-0.96 0.242,2.162 -1.571,2.271 -3.602,2.16 C -9.223,4.897 -8.153,6.417 -8.4,8.16 -4.47,10.381 0.177,9.851 2.399,6.48 1.117,3.362 2.08,-2.001 -0.48,-3.84 c -1.238,1.323 -3.217,1.902 -2.88,4.8 1.079,1.081 3.811,0.507 4.559,1.92 -1.323,2.606 -4.338,4.768 -8.16,4.08 5.257,-1.467 3.138,-8.696 -1.439,-9.36 -3.411,-0.495 -6.139,1.85 -6.96,5.04 1.063,0.455 2.908,0.131 3.36,1.2 -0.04,1.648 -2.303,0.925 -3.12,1.2 0.323,1.355 0.508,2.852 0.72,4.32 2.084,1.836 3.254,1.919 5.758,0.48"
         style="fill:#202267;fill-opacity:1;fill-rule:evenodd;stroke:none"
         transform="matrix(1.3333333,0,0,-1.3333333,132.53333,27.338667)" />
      <path
         id="path5"
         d="m 0,0 c 0.786,-3.426 -3.14,-2.141 -4.08,-3.84 1.141,-0.483 2.778,1.164 4.08,0 0.509,-3.06 3.228,-7.04 1.681,-9.84 1.476,-2.31 8.068,-2.5 8.159,1.2 -1.453,-0.066 -1.572,-1.467 -2.64,-1.92 -0.804,0.156 -1.532,0.387 -1.92,0.96 0.299,2.435 4.539,3.179 5.52,0.96 1.036,-7.129 -8.344,-6.497 -11.52,-3.6 0.124,1.366 1.645,1.672 1.92,3.12 0.413,2.172 -0.997,5.051 -1.92,6.48 -1.753,0.393 -1.814,-0.905 -3.12,-0.96 C -5.687,-3.845 -5.112,0.972 0,0"
         style="fill:#202267;fill-opacity:1;fill-rule:evenodd;stroke:none"
         transform="matrix(1.3333333,0,0,-1.3333333,87.732,15.178667)" />
      <path
         id="path6"
         d="m 0,0 c -1.247,-2.951 -4.021,0.863 -5.521,-0.48 3.657,-0.137 3.917,-4.882 0.72,-5.76 0.157,-2.541 5.192,-4.208 6.721,-1.68 -0.548,1.454 -1.988,2.012 -3.601,2.4 0.404,1.518 1.216,2.625 1.681,4.08 0.983,0.457 2.288,0.591 3.119,1.2 1.031,-0.729 1.911,-1.609 2.641,-2.64 -1.931,-2.351 -3.889,1.015 -5.521,0 0.678,-0.842 2.275,-0.766 2.88,-1.68 2.416,-8.849 -12.935,-8.899 -11.04,-0.48 1.017,-0.24 2.625,-0.426 3.601,0 -0.076,1.445 -1.533,1.508 -2.88,1.68 -0.005,2.085 1.292,2.868 1.679,4.56 C -3.097,2.754 -1.448,1.665 0,0"
         style="fill:#202267;fill-opacity:1;fill-rule:evenodd;stroke:none"
         transform="matrix(1.3333333,0,0,-1.3333333,148.53333,22.538667)" />
      <path
         id="path7"
         d="M 0,0 C 3.764,2.007 6.037,-1.939 4.08,-5.04 6.262,-4.822 6.203,-2.364 7.439,-1.2 5.276,-2.049 3.836,2.14 6.72,2.4 7.413,2.053 7.182,0.782 8.399,0.96 8.517,4.467 0.705,2.704 0,0 m 8.399,-0.72 c 7.144,1.19 1.142,-10.047 -0.479,-2.88 0.533,0.346 1.157,0.602 2.16,0.48 -2.197,2.423 -3.173,-2.142 -3.36,-4.08 -1.948,-1.91 -6.044,-1.147 -6,2.16 1.105,0.654 2.685,0.834 2.88,2.4 -1.62,0.973 -2.521,-0.835 -3.84,-0.96 -0.258,1.422 -0.937,2.423 -1.441,3.6 1.152,1.009 1.683,4.367 4.08,5.28 4.634,1.763 9.616,-2.507 6,-6"
         style="fill:#202267;fill-opacity:1;fill-rule:evenodd;stroke:none"
         transform="matrix(1.3333333,0,0,-1.3333333,64.373333,27.338667)" />
      <path
         id="path8"
         d="M 0,0 H 0.72 C 0.787,-0.628 0.632,-1.032 0,-0.96 V 0"
         style="fill:#ffffff;fill-opacity:1;fill-rule:evenodd;stroke:none"
         transform="matrix(1.3333333,0,0,-1.3333333,105.97333,22.858667)" />
      <path
         id="path9"
         d="M 0,0 C -1.218,-0.178 -0.986,1.093 -1.68,1.44 -4.563,1.18 -3.123,-3.009 -0.96,-2.16 -2.196,-3.324 -2.138,-5.782 -4.319,-6 -2.362,-2.899 -4.636,1.047 -8.399,-0.96 -7.694,1.744 0.117,3.507 0,0"
         style="fill:#ffffff;fill-opacity:1;fill-rule:evenodd;stroke:none"
         transform="matrix(1.3333333,0,0,-1.3333333,75.572,26.058667)" />
      <path
         id="path10"
         d="M 0,0 C 0.423,-0.058 0.548,-0.413 0.479,-0.96 H -0.239 C -0.342,-0.458 -0.075,-0.325 0,0"
         style="fill:#ffffff;fill-opacity:1;fill-rule:evenodd;stroke:none"
         transform="matrix(1.3333333,0,0,-1.3333333,132.85333,26.058667)" />
      <path
         id="path11"
         d="M 0,0 C -0.805,-1.698 -3.89,-0.267 -3.841,1.2 -2.025,2.504 -1.702,0.167 0,0"
         style="fill:#202267;fill-opacity:1;fill-rule:evenodd;stroke:none"
         transform="matrix(1.3333333,0,0,-1.3333333,148.53333,32.458667)" />
      <path
         id="path12"
         d="M 0,0 C 0.806,-0.165 0.878,0.403 0.961,0.96 0.208,1.071 -0.11,0.751 0,0 M 1.2,11.28 C 1.551,9.47 2.297,8.056 4.801,8.4 5.115,7.116 5.752,6.152 6.721,5.52 5.237,3.378 2.189,5.261 2.16,7.44 1.528,7.689 0.689,7.728 -0.239,7.68 c -0.896,0.865 -0.831,2.689 -2.16,3.12 0.15,-1.22 -0.692,-1.921 0.24,-3.6 3.67,0.31 4.425,-2.295 6,-4.08 -1.834,-2.166 -2.443,-5.558 -6,-6 -0.706,1.332 -1.934,4.324 -0.24,5.28 C -0.975,2.306 -0.313,1.445 1.44,1.68 0.311,3.177 -0.541,5.689 -2.64,5.52 -4.464,5.373 -5.087,1.751 -6.72,1.44 -9.102,0.987 -10.502,4.169 -8.159,6.24 -7.312,5.592 -5.033,4.097 -4.079,5.76 -4.134,6.507 -5.273,6.166 -6,6.24 c -1.481,1.386 -0.063,4.388 2.16,3.36 -1.231,2.529 2.863,2.765 5.04,1.68"
         style="fill:#202267;fill-opacity:1;fill-rule:evenodd;stroke:none"
         transform="matrix(1.3333333,0,0,-1.3333333,165.492,47.178667)" />
      <path
         id="path13"
         d="m 0,0 c -0.225,-1.664 0.828,-2.051 0.96,-3.36 -3.094,-1.538 -2.814,2.282 -5.04,2.4 0.696,-1.253 2.654,-2.88 1.199,-4.8 -0.8,-0.639 -2.383,-0.496 -3.359,-0.96 0.045,-3.074 1.561,-4.677 4.559,-4.8 0.316,0.085 0.378,0.423 0.721,0.48 0.07,1.911 -0.971,2.71 -1.921,3.6 1.438,2.003 3.109,3.352 6.721,2.64 0.24,-1.279 0.576,-2.464 1.2,-3.36 C 4.586,-8.585 3.454,-8.334 2.64,-8.4 1.473,-7.807 1.704,-5.815 0,-5.76 c -0.18,-1.26 1.555,-1.508 1.68,-2.88 0.254,-2.796 -3.475,-4.911 -7.441,-4.32 -2.709,1.09 -4.804,5.406 -2.88,8.88 1.314,-0.366 1.612,-1.748 3.601,-1.44 0.457,1.101 -1.208,1.931 -1.92,2.64 C -5.538,-0.898 -3.631,0.898 0,0"
         style="fill:#202267;fill-opacity:1;fill-rule:evenodd;stroke:none"
         transform="matrix(1.3333333,0,0,-1.3333333,180.85333,45.258667)" />
      <path
         id="path14"
         d="M 0,0 C 0.072,0.632 -0.333,0.788 -0.96,0.72 -0.944,0.074 -0.411,-0.434 0,0 M -5.76,6.48 C -2.977,4.843 -5.878,2.044 -7.681,1.44 v -2.16 c -0.858,-0.821 -2.627,-0.733 -2.88,-2.16 0.79,0.241 2.413,-0.57 3.601,0.48 -0.458,3.738 2.053,4.507 3.84,6 2.32,-1.679 5.637,-2.363 6.24,-5.76 -1.252,-0.687 -3.251,-1.573 -5.04,-0.96 -0.604,1.442 0.394,2.826 0.48,4.32 -1.463,-0.436 -4.217,-2.185 -3.84,-4.32 0.33,-1.864 4.146,-2.121 4.32,-4.08 0.177,-1.998 -2.975,-3.554 -4.8,-1.2 0.398,1.06 2.374,3.503 0,3.84 -0.373,-0.828 -0.199,-2.201 -1.2,-2.4 -1.774,-0.123 -3.079,1.059 -2.4,2.64 -0.844,0.307 -1.539,-0.524 -2.4,0.48 -0.083,1.762 0.193,3.167 0.48,4.56 1.112,0.248 1.869,0.851 2.639,1.44 0.109,1.148 0.109,1.013 0,2.16 1.093,0.588 2.507,0.853 2.881,2.16"
         style="fill:#202267;fill-opacity:1;fill-rule:evenodd;stroke:none"
         transform="matrix(1.3333333,0,0,-1.3333333,42.933333,54.538667)" />
      <path
         id="path15"
         d="M 0,0 C -0.083,-0.557 -0.155,-1.125 -0.961,-0.96 -1.071,-0.208 -0.753,0.111 0,0"
         style="fill:#ffffff;fill-opacity:1;fill-rule:evenodd;stroke:none"
         transform="matrix(1.3333333,0,0,-1.3333333,166.77333,45.898667)" />
      <path
         id="path16"
         d="m 0,0 c -7.841,-0.158 -16.317,0.318 -23.76,-0.24 0.159,-9.441 -0.318,-19.519 0.24,-28.56 7.841,-0.158 16.318,0.319 23.76,-0.24 v -23.52 c 9.041,-0.558 19.119,-0.081 28.56,-0.24 0.544,6.56 0.07,17.054 0.24,24 H 52.801 V 0 C 44.961,0.16 36.48,-0.32 29.04,0.24 28.819,6.393 29.391,17.521 28.8,24 20.532,23.622 8.955,23.676 0.72,24 -0.553,17.033 0.874,7.366 0,0"
         style="fill:#ffffff;fill-opacity:1;fill-rule:evenodd;stroke:none"
         transform="matrix(1.3333333,0,0,-1.3333333,87.732,87.818667)" />
      <path
         id="path17"
         d="M 0,0 C 0.627,0.068 1.032,-0.088 0.96,-0.72 0.549,-1.154 0.016,-0.646 0,0"
         style="fill:#ffffff;fill-opacity:1;fill-rule:evenodd;stroke:none"
         transform="matrix(1.3333333,0,0,-1.3333333,41.653333,53.578667)" />
      <path
         id="path18"
         d="M 0,0 H 1.439 C 1.576,-1.303 2.46,-1.859 2.88,-2.88 1.255,-3.489 -0.126,-1.927 0,0"
         style="fill:#202267;fill-opacity:1;fill-rule:evenodd;stroke:none"
         transform="matrix(1.3333333,0,0,-1.3333333,173.81333,54.858667)" />
      <path
         id="path19"
         d="m 0,0 c 0.297,-1.606 -0.72,-5.575 1.68,-5.76 1.35,0.664 -0.946,2.538 0.479,3.36 1.487,-0.043 2.255,-0.762 2.401,-1.68 0.569,-3.591 -5.837,-3.155 -7.201,-0.72 0.137,2.616 -0.01,4.949 -1.92,5.52 0.356,-1.13 2.119,-4.907 -0.719,-5.52 -1.213,-0.253 -1.373,0.547 -2.401,0.48 -1.645,-3.019 1.15,-5.286 4.08,-5.28 -5.49,-4.019 -10.753,4.691 -6,8.4 1.184,-0.576 1.549,-1.971 2.88,-2.4 1.451,1.24 -0.951,2.274 -0.96,3.6 1.414,0.506 2.695,1.146 3.84,1.92 C -2.442,1.398 -1.491,0.429 0,0"
         style="fill:#202267;fill-opacity:1;fill-rule:evenodd;stroke:none"
         transform="matrix(1.3333333,0,0,-1.3333333,193.97333,64.458667)" />
      <path
         id="path20"
         d="M 0,0 C 0.072,0.632 -0.332,0.788 -0.96,0.72 -1.201,-0.081 -0.627,-0.067 0,0 m -7.68,4.32 c 3.131,-0.469 1.62,-4.341 0,-5.28 0.033,-0.847 0.687,-1.073 0.72,-1.92 -0.398,-1.362 -1.89,-1.631 -2.16,-3.12 0.904,0.163 2.73,0.252 3.36,1.68 -1.73,2.722 0.517,5.061 1.68,6.96 2.35,-1.006 7.8,-0.918 7.68,-3.36 -0.066,-1.343 -2.555,-2.289 -4.32,-2.64 -0.941,0.739 -0.661,2.699 -0.96,4.08 -1.737,-0.743 -2.271,-2.689 -2.4,-5.04 1.11,-1.805 5.176,-0.817 5.76,-2.88 0.599,-2.12 -1.918,-3.671 -4.321,-2.4 0.493,1.277 1.023,3.816 -1.199,3.6 -0.764,-0.626 0.704,-1.04 0.239,-2.16 -0.787,-0.752 -1.525,-1.059 -2.879,-0.72 -0.615,0.425 -0.695,1.385 -0.96,2.16 -0.609,-0.272 -0.603,-1.157 -1.68,-0.96 -1.94,1.642 -2.135,5.598 0.24,6.72 -0.152,0.807 -0.171,1.75 -0.721,2.16 0.5,1.18 2.151,1.21 1.921,3.12"
         style="fill:#202267;fill-opacity:1;fill-rule:evenodd;stroke:none"
         transform="matrix(1.3333333,0,0,-1.3333333,28.213333,80.778667)" />
      <path
         id="path21"
         d="M 0,0 C 0.628,0.068 1.032,-0.087 0.96,-0.72 0.333,-0.787 -0.241,-0.801 0,0"
         style="fill:#ffffff;fill-opacity:1;fill-rule:evenodd;stroke:none"
         transform="matrix(1.3333333,0,0,-1.3333333,26.933333,79.818667)" />
      <path
         id="path22"
         d="M 0,0 C -1.288,-0.248 -1.273,0.807 -2.16,0.96 0.396,9.317 -12.561,4.636 -9.12,-1.438 -10.174,-1.444 -11.584,0.28 -11.76,1.44 -13.07,10.05 2.155,8.919 0,0"
         style="fill:#202267;fill-opacity:1;fill-rule:evenodd;stroke:none"
         transform="matrix(1.3333333,0,0,-1.3333333,33.653333,126.53867)" />
      <path
         id="path23"
         d="M 0,0 C 0.997,0.038 0.479,-1.44 1.199,-1.68 0.282,-2.037 -1.763,-5.809 0.96,-6 c 2.51,-0.177 2.516,5.56 4.8,5.76 3.27,0.288 5.909,-7.951 2.399,-9.6 -1.07,0.209 -1.38,1.18 -1.68,2.16 1.904,0.882 3.111,4.53 0.72,4.8 C 4.43,-2.567 4.951,-7.914 2.399,-8.64 -1.162,-8.459 -2.721,-2.17 0,0"
         style="fill:#202267;fill-opacity:1;fill-rule:evenodd;stroke:none"
         transform="matrix(1.3333333,0,0,-1.3333333,184.05333,118.21867)" />
      <path
         id="path24"
         d="M 0,0 C -0.023,-1.383 0.658,-2.061 0.96,-3.12 2.289,-2.289 3.683,-1.523 4.319,0 2.671,-0.302 1.114,0.543 0,0 M -5.28,2.16 C -1.534,0.376 6.002,2.844 7.68,-0.479 5.132,-3.292 1.498,-5.018 0,-8.88 c -1.188,0.013 -1.402,0.998 -2.16,1.44 0.337,1.422 1.458,2.062 2.16,3.12 -0.585,1.415 -1.021,2.98 -1.681,4.32 -2.086,-0.566 -2.918,0.707 -3.599,2.16"
         style="fill:#202267;fill-opacity:1;fill-rule:evenodd;stroke:none"
         transform="matrix(1.3333333,0,0,-1.3333333,25.653333,131.97867)" />
      <path
         id="path25"
         d="m 0,0 c 0.699,-0.341 1.069,-1.012 0.961,-2.16 -1.029,-0.168 -2.972,-3.681 -0.481,-4.08 2.269,-0.363 3.045,4.878 5.041,5.04 3.66,0.297 5.046,-8.745 1.44,-9.84 -0.916,0.364 -1.345,1.216 -1.44,2.4 1.599,0.761 4.13,3.612 1.2,4.799 C 3.661,-4.239 4.222,-8.758 1.44,-8.881 -2.049,-9.033 -2.805,-2.016 0,0"
         style="fill:#202267;fill-opacity:1;fill-rule:evenodd;stroke:none"
         transform="matrix(1.3333333,0,0,-1.3333333,181.172,129.73867)" />
      <path
         id="path26"
         d="M 0,0 C -0.637,-1.523 -2.03,-2.289 -3.359,-3.12 -3.661,-2.061 -4.343,-1.383 -4.319,0 -3.205,0.543 -1.648,-0.302 0,0"
         style="fill:#ffffff;fill-opacity:1;fill-rule:evenodd;stroke:none"
         transform="matrix(1.3333333,0,0,-1.3333333,31.412,131.97867)" />
      <path
         id="path27"
         d="M 0,0 C 0.661,-3.729 5.859,-2.211 3.601,1.68 4.556,1.835 4.565,1.045 5.521,1.2 5.907,1.533 6.28,1.88 6.721,2.16 6.774,3.654 6.49,4.809 5.28,5.04 3.347,3.534 1.342,2.098 0,0 M -1.439,19.68 C -2.963,16.783 -6.415,13.592 -5.279,9.6 -3.438,7.975 -0.029,9.575 1.681,10.32 4.501,9.61 13.374,1.551 6.48,0.24 c 0.825,-5.892 -9.09,-3.528 -9.36,0.479 1.836,2.326 4.493,3.828 6.481,6 C 3.516,7.515 2.882,7.761 2.4,8.16 -0.104,6.823 -1.961,4.842 -3.6,2.64 -4.452,2.988 -5.469,3.171 -6,3.84 c 0.953,1.687 2.758,2.522 3.84,4.08 -1.885,0.079 -4.783,0.244 -6,1.68 -0.751,2.376 0.749,4.079 1.44,5.76 -1.514,-0.168 -4.462,-2.344 -5.759,0.24 2.195,0.844 4.608,1.472 6.719,2.4 1.065,1.374 2.178,3.297 4.321,1.68"
         style="fill:#202267;fill-opacity:1;fill-rule:evenodd;stroke:none"
         transform="matrix(1.3333333,0,0,-1.3333333,41.012,166.53867)" />
      <path
         id="path28"
         d="M 0,0 C 1.389,-0.126 1.149,-1.389 2.641,-1.92 9.216,-4.261 9.707,4.024 3.12,3.84 0.545,3.768 -0.049,2.009 -1.439,0.72 -1.91,6.894 4.309,8.313 7.44,4.8 9.295,2.72 9.925,-2.594 7.681,-4.32 4.837,-6.508 -0.242,-4.097 0,0"
         style="fill:#202267;fill-opacity:1;fill-rule:evenodd;stroke:none"
         transform="matrix(1.3333333,0,0,-1.3333333,175.092,150.21867)" />
      <path
         id="path29"
         d="m 0,0 c 1.227,-1.077 4.275,-0.843 6,-0.72 0.047,-0.928 0.008,-1.768 -0.24,-2.4 -2.3,-0.76 -4.35,0.539 -6.721,0.48 0.917,4.203 -2.702,4.449 -4.079,2.159 1.619,-3.059 7.131,-3.373 6.239,-8.159 -2.927,1.553 -4.8,4.159 -7.439,6 -0.765,-2.473 -4.489,-1.62 -4.8,-4.08 -0.557,-4.386 6.949,-5.705 9.359,-2.4 0.239,-3.088 -2.47,-5.022 -5.28,-4.8 -6.002,0.473 -6.67,9.985 -1.199,11.76 C -6.759,0.417 -3.231,5.873 0,2.16 0.062,1.059 0.255,1 0,0"
         style="fill:#202267;fill-opacity:1;fill-rule:evenodd;stroke:none"
         transform="matrix(1.3333333,0,0,-1.3333333,173.81333,158.21867)" />
      <path
         id="path30"
         d="M 0,0 C 1.21,-0.231 1.494,-1.386 1.44,-2.88 1,-3.16 0.627,-3.507 0.24,-3.84 -0.715,-3.995 -0.725,-3.205 -1.68,-3.36 0.579,-7.251 -4.619,-8.769 -5.28,-5.04 -3.938,-2.942 -1.934,-1.506 0,0"
         style="fill:#ffffff;fill-opacity:1;fill-rule:evenodd;stroke:none"
         transform="matrix(1.3333333,0,0,-1.3333333,48.053333,159.81867)" />
      <path
         id="path31"
         d="M 0,0 C 0.172,-1.358 1.94,-2.373 3.36,-2.16 6.226,-1.729 7.225,5.205 3.12,6 2.817,3.653 -0.282,2.238 0,0 m -5.521,13.439 c 3,-0.441 5.081,-1.799 5.281,-5.04 C 0.62,8.42 1.146,8.773 1.92,8.88 4.769,7.969 6.821,6.261 8.16,3.84 9.947,-3.719 -0.897,-4.883 -3.12,-0.24 -1.499,2.059 0.014,4.467 1.2,7.2 1.034,7.674 0.56,7.84 0,7.92 -1.234,4.664 -6.084,1.343 -10.32,3.6 c -4.219,2.248 -1.164,9.807 3.84,8.4 -1.349,-1.186 -3.533,-3.111 -2.88,-6 1.097,-4.856 7.222,-0.15 6,4.32 -0.478,1.748 -1.913,1.622 -2.161,3.119"
         style="fill:#202267;fill-opacity:1;fill-rule:evenodd;stroke:none"
         transform="matrix(1.3333333,0,0,-1.3333333,64.053333,184.77867)" />
      <path
         id="path32"
         d="M 0,0 C 0.979,-2.222 2.269,-4.132 3.359,-6.24 10.81,-6.054 5.082,3.632 0,0 m 2.159,-8.88 c -1.279,2.64 -2.665,5.175 -4.08,7.68 -2.3,-0.344 -3.244,-1.376 -5.76,-2.401 -0.121,-1 0.702,-1.058 0.481,-2.159 1.848,-0.278 2.837,1.413 4.08,0.96 -0.3,-1.702 -1.541,-2.46 -3.12,-2.88 0.194,-1.086 0.552,-2.008 0.96,-2.88 2.029,0.291 3.252,1.388 5.28,1.68 -0.402,-3.278 -4.298,-3.063 -6.96,-4.08 -0.486,1.434 -0.954,2.886 -1.44,4.319 -0.52,0.542 -0.82,-0.198 -1.68,0 0.996,1.387 1.137,3.156 0,4.561 -0.565,-0.076 -0.9,-0.379 -1.681,-0.24 0.098,0.943 1.056,1.025 1.2,1.92 2.488,0.76 4.833,1.33 7.201,2.64 3.192,1.767 9.795,5.028 11.519,-0.48 1.055,-3.365 -1.452,-8.706 -6,-8.64"
         style="fill:#202267;fill-opacity:1;fill-rule:evenodd;stroke:none"
         transform="matrix(1.3333333,0,0,-1.3333333,144.05333,178.05867)" />
      <path
         id="path33"
         d="M 0,0 C 4.104,-0.795 3.105,-7.729 0.24,-8.16 -1.18,-8.373 -2.948,-7.358 -3.12,-6 -3.402,-3.762 -0.303,-2.347 0,0"
         style="fill:#ffffff;fill-opacity:1;fill-rule:evenodd;stroke:none"
         transform="matrix(1.3333333,0,0,-1.3333333,68.213333,176.77867)" />
      <path
         id="path34"
         d="M 0,0 C -1.092,2.108 -2.382,4.018 -3.36,6.24 1.722,9.872 7.449,0.187 0,0"
         style="fill:#ffffff;fill-opacity:1;fill-rule:evenodd;stroke:none"
         transform="matrix(1.3333333,0,0,-1.3333333,148.53333,186.37867)" />
      <path
         id="path35"
         d="m 0,0 c -1.006,-3.315 -2.578,-6.062 -3.601,-9.36 -0.753,-0.237 -1.957,-0.928 -2.639,-0.48 0.712,3.339 3.889,6.328 2.88,9.84 1.303,-0.091 2.519,1.039 3.36,0"
         style="fill:#202267;fill-opacity:1;fill-rule:evenodd;stroke:none"
         transform="matrix(1.3333333,0,0,-1.3333333,81.973333,179.97867)" />
      <path
         id="path36"
         d="M 0,0 C 1.18,-0.1 1.877,-0.683 3.12,-0.719 2.937,0.857 3.292,2.972 2.4,3.841 1.716,2.446 0.213,1.869 0,0 M 5.04,6 C 5.104,1.891 5.415,-2.109 6.96,-5.279 6.11,-5.389 5.574,-5.813 4.561,-5.759 4.11,-4.77 3.453,-3.986 3.601,-2.399 2.135,-1.865 0.472,-1.528 -0.96,-0.959 -1.685,-2.074 -2.51,-3.089 -4.56,-2.879 -2.433,0.274 0.518,2.604 2.4,6 3.188,6.076 4.365,6.556 5.04,6"
         style="fill:#202267;fill-opacity:1;fill-rule:evenodd;stroke:none"
         transform="matrix(1.3333333,0,0,-1.3333333,83.572,190.86)" />
      <path
         id="path37"
         d="m 0,0 c 0.969,-1.753 2.193,-3.247 4.08,-4.08 -2.219,-3.902 -5.174,1.305 -6.478,3.359 0.875,0.406 1.39,1.169 1.92,1.921 C -0.673,2.847 -1.75,3.61 -3.84,3.36 -5.062,-0.082 -0.557,-6.058 -5.278,-6.721 -5.356,-3.438 -6.14,-0.86 -6.238,2.4 -6.988,3.206 -7.736,1.681 -8.398,2.4 -6.931,7.124 5.971,5.445 0,0"
         style="fill:#202267;fill-opacity:1;fill-rule:evenodd;stroke:none"
         transform="matrix(1.3333333,0,0,-1.3333333,126.132,189.89867)" />
      <path
         id="path38"
         d="M 0,0 C 1.248,2.455 -1.023,6.948 2.64,6.96 1.56,3.16 3.54,-3.7 -0.48,-4.56 -1.532,-1.532 -3.418,0.662 -5.76,2.4 -6.071,0.83 -6.351,-1.364 -6,-2.881 -6.868,-3.213 -7.345,-3.935 -8.4,-4.08 -8.662,-0.45 -5.46,5.646 -10.08,6 -6.55,10.537 -2.742,1.689 0,0"
         style="fill:#202267;fill-opacity:1;fill-rule:evenodd;stroke:none"
         transform="matrix(1.3333333,0,0,-1.3333333,106.93333,193.73867)" />
      <path
         id="path39"
         d="M 0,0 C 0.892,-0.869 0.536,-2.984 0.72,-4.56 -0.523,-4.524 -1.221,-3.941 -2.4,-3.841 -2.188,-1.972 -0.685,-1.395 0,0"
         style="fill:#ffffff;fill-opacity:1;fill-rule:evenodd;stroke:none"
         transform="matrix(1.3333333,0,0,-1.3333333,86.773333,185.73867)" />
      <path
         id="path40"
         d="m 0,0 c -1.578,-0.487 -4.562,-0.439 -5.04,0.96 -0.016,1.719 1.459,2.139 1.2,3.6 -0.717,4.042 -9.18,1.128 -8.4,-3.12 -2.359,-0.522 -4.93,-0.831 -4.8,-3.84 1.849,2.99 5.873,2.765 6,-1.92 2.117,-0.037 3.309,0.851 3.6,2.64 -1.082,1.541 -3.852,-0.503 -4.081,1.92 -0.342,3.647 5.098,0.464 5.521,-1.68 1.625,0.563 2.286,-0.158 3.12,-0.96 -0.24,-1.294 -1.773,-1.859 -2.88,-0.96 -0.477,-3.165 -4.039,-5.117 -7.68,-3.6 0.115,1.645 1.586,1.935 1.2,4.08 -1.491,-0.109 -2.052,-1.149 -2.64,-2.16 -1.622,0.778 -2.481,2.318 -3.6,3.6 0.543,1.536 1.058,3.101 1.68,4.56 3.217,0.543 5.069,2.451 6,5.28 4.374,2.086 5.731,-0.683 7.92,-3.36 C -1.497,3.349 0.458,2.004 0,0"
         style="fill:#202267;fill-opacity:1;fill-rule:evenodd;stroke:none"
         transform="matrix(1.3333333,0,0,-1.3333333,64.053333,41.418667)" />
      <path
         id="path41"
         d="m 0,0 c -1.472,-0.608 -2.53,-1.63 -4.8,-1.44 -0.783,1.057 -0.193,3.486 -0.96,4.56 -3.113,1.253 -5.397,-1.349 -6.48,-3.6 -0.422,1.098 -0.62,2.419 -0.96,3.6 0.763,1.236 2.274,1.726 3.36,2.64 C -6.607,3.793 -1.687,3.513 0,0"
         style="fill:#202267;fill-opacity:1;fill-rule:evenodd;stroke:none"
         transform="matrix(1.3333333,0,0,-1.3333333,37.172,72.778667)" />
      <path
         id="path42"
         d="M 0,0 C 1.279,-0.64 2.33,-1.509 3.359,-2.4 3.3,-4.18 2.746,-5.467 2.159,-6.72 c -3.791,-0.219 -7.657,-3.352 -10.8,-1.92 0.493,1.829 1.072,3.569 2.641,4.32 1.829,-0.494 1.805,-2.59 3.6,-2.64 C 0.671,-7.045 0.969,-1.966 0,0"
         style="fill:#202267;fill-opacity:1;fill-rule:evenodd;stroke:none"
         transform="matrix(1.3333333,0,0,-1.3333333,196.21333,77.898667)" />
      <path
         id="path43"
         d="m 65.993,41.929 h 28.606 v 76.735 H 65.993 Z"
         style="fill:#ed1c24;fill-opacity:1;fill-rule:nonzero;stroke:none"
         transform="matrix(1.3333333,0,0,-1.3333333,0,214.124)" />
      <path
         id="path44"
         d="m 41.929,65.993 h 76.735 V 94.599 H 41.929 Z"
         style="fill:#ed1c24;fill-opacity:1;fill-rule:nonzero;stroke:none"
         transform="matrix(1.3333333,0,0,-1.3333333,0,214.124)" />
      <path
         id="path45"
         d="m 0,0 c -24.977,0 -45.296,-20.32 -45.296,-45.296 0,-24.976 20.319,-45.297 45.296,-45.297 24.976,0 45.297,20.321 45.297,45.297 C 45.297,-20.32 24.976,0 0,0 Z m 0,-92.593 c -26.079,0 -47.296,21.217 -47.296,47.297 C -47.296,-19.217 -26.079,2 0,2 26.08,2 47.297,-19.217 47.297,-45.296 47.297,-71.376 26.08,-92.593 0,-92.593"
         style="fill:#202267;fill-opacity:1;fill-rule:nonzero;stroke:none"
         transform="matrix(1.3333333,0,0,-1.3333333,107.06133,46.666667)" />
      <path
         id="path46"
         d="m 0,0 c -43.173,0 -78.296,-35.124 -78.296,-78.296 0,-43.173 35.123,-78.297 78.296,-78.297 43.173,0 78.297,35.124 78.297,78.297 C 78.297,-35.124 43.173,0 0,0 Z m 0,-158.593 c -44.275,0 -80.296,36.021 -80.296,80.297 C -80.296,-34.021 -44.275,2 0,2 44.276,2 80.297,-34.021 80.297,-78.296 80.297,-122.572 44.276,-158.593 0,-158.593"
         style="fill:#202267;fill-opacity:1;fill-rule:nonzero;stroke:none"
         transform="matrix(1.3333333,0,0,-1.3333333,107.06133,2.6666667)"
         clip-path="url(#clipPath47)" />
    </g>
  </g>
</svg>
