<?xml version="1.0" encoding="UTF-8" standalone="no"?>
<!-- Created with Inkscape (http://www.inkscape.org/) -->

<svg
   version="1.1"
   id="svg1"
   width="657.38666"
   height="330.33066"
   viewBox="0 0 657.38666 330.33066"
   sodipodi:docname="Tuvalu Red Cross Society.svg"
   inkscape:version="1.3.2 (091e20e, 2023-11-25, custom)"
   xmlns:inkscape="http://www.inkscape.org/namespaces/inkscape"
   xmlns:sodipodi="http://sodipodi.sourceforge.net/DTD/sodipodi-0.dtd"
   xmlns="http://www.w3.org/2000/svg"
   xmlns:svg="http://www.w3.org/2000/svg">
  <defs
     id="defs1">
    <clipPath
       clipPathUnits="userSpaceOnUse"
       id="clipPath4">
      <path
         d="M 0.059998,247.748 H 493.04 V 0 H 0.059998 Z"
         transform="translate(-19.888,-22.664001)"
         id="path4" />
    </clipPath>
  </defs>
  <sodipodi:namedview
     id="namedview1"
     pagecolor="#ffffff"
     bordercolor="#666666"
     borderopacity="1.0"
     inkscape:showpageshadow="2"
     inkscape:pageopacity="0.0"
     inkscape:pagecheckerboard="0"
     inkscape:deskcolor="#d1d1d1"
     inkscape:export-bgcolor="#ffffffff"
     inkscape:zoom="1.4222984"
     inkscape:cx="328.69333"
     inkscape:cy="164.87398"
     inkscape:window-width="1920"
     inkscape:window-height="1017"
     inkscape:window-x="-8"
     inkscape:window-y="-8"
     inkscape:window-maximized="1"
     inkscape:current-layer="g1">
    <inkscape:page
       x="0"
       y="0"
       inkscape:label="1"
       id="page1"
       width="657.38666"
       height="330.33066"
       margin="0"
       bleed="0"
       inkscape:export-filename="Tuvalu Red Cross Society.png"
       inkscape:export-xdpi="300"
       inkscape:export-ydpi="300" />
  </sodipodi:namedview>
  <g
     id="g1"
     inkscape:groupmode="layer"
     inkscape:label="1">
    <g
       id="group-MC1">
      <path
         id="path2"
         d="M 0,0 H -55.311 V 51.469 H 0 l -0.005,55.342 H 51.469 V 51.503 l -0.005,-0.022 h 55.312 V 0.008 H 51.464 l 0.005,0.007 v -55.31 H -0.005 V 0.015 L 0,0"
         style="fill:#ed192d;fill-opacity:1;fill-rule:nonzero;stroke:none"
         transform="matrix(1.3333333,0,0,-1.3333333,294.38267,142.41467)" />
      <path
         id="path3"
         d="m 0,0 v -5.992 h -0.588 c -0.348,1.382 -0.735,2.376 -1.159,2.98 -0.425,0.604 -1.007,1.086 -1.747,1.445 -0.414,0.196 -1.138,0.294 -2.172,0.294 h -1.649 v -17.08 c 0,-1.133 0.062,-1.84 0.188,-2.123 0.125,-0.283 0.37,-0.531 0.735,-0.742 0.364,-0.213 0.862,-0.319 1.494,-0.319 h 0.734 v -0.604 h -11.593 v 0.604 h 0.735 c 0.642,0 1.159,0.114 1.551,0.343 0.283,0.152 0.506,0.413 0.669,0.784 0.12,0.261 0.18,0.947 0.18,2.057 v 17.08 h -1.6 c -1.492,0 -2.575,-0.316 -3.25,-0.947 -0.947,-0.882 -1.545,-2.139 -1.796,-3.772 h -0.62 V 0 L 0,0"
         style="fill:#231f20;fill-opacity:1;fill-rule:nonzero;stroke:none"
         transform="matrix(1.3333333,0,0,-1.3333333,26.517333,300.112)"
         clip-path="url(#clipPath4)" />
      <path
         id="path5"
         d="m 0,0 h 11.43 v -0.604 h -0.571 c -0.861,0 -1.451,-0.09 -1.772,-0.269 C 8.766,-1.053 8.537,-1.3 8.401,-1.616 8.265,-1.932 8.197,-2.721 8.197,-3.984 v -10.842 c 0,-1.982 0.149,-3.293 0.449,-3.936 0.299,-0.642 0.792,-1.175 1.478,-1.599 0.686,-0.425 1.551,-0.637 2.596,-0.637 1.197,0 2.218,0.269 3.062,0.808 0.843,0.539 1.475,1.282 1.894,2.229 0.418,0.947 0.628,2.596 0.628,4.947 v 9.03 c 0,0.99 -0.103,1.698 -0.31,2.123 -0.207,0.424 -0.468,0.718 -0.784,0.882 -0.49,0.25 -1.181,0.375 -2.073,0.375 V 0 h 7.658 v -0.604 h -0.458 c -0.62,0 -1.137,-0.125 -1.551,-0.375 -0.414,-0.251 -0.713,-0.626 -0.898,-1.127 -0.142,-0.349 -0.212,-0.975 -0.212,-1.878 v -8.409 c 0,-2.602 -0.171,-4.48 -0.515,-5.633 -0.342,-1.154 -1.178,-2.216 -2.506,-3.184 -1.328,-0.969 -3.14,-1.454 -5.437,-1.454 -1.916,0 -3.397,0.256 -4.442,0.767 -1.426,0.697 -2.433,1.59 -3.02,2.678 -0.588,1.089 -0.882,2.553 -0.882,4.393 v 10.842 c 0,1.274 -0.071,2.066 -0.212,2.376 C 2.52,-1.298 2.275,-1.05 1.927,-0.865 1.578,-0.68 0.936,-0.593 0,-0.604 V 0"
         style="fill:#231f20;fill-opacity:1;fill-rule:nonzero;stroke:none"
         transform="matrix(1.3333333,0,0,-1.3333333,29.173333,300.112)" />
      <path
         id="path6"
         d="m 0,0 v -0.604 c -0.806,-0.131 -1.524,-0.561 -2.155,-1.29 -0.458,-0.545 -1.138,-1.823 -2.041,-3.837 l -7.626,-16.916 h -0.539 l -7.592,17.601 c -0.915,2.124 -1.527,3.37 -1.838,3.74 -0.309,0.37 -0.895,0.605 -1.755,0.702 V 0 h 10.614 v -0.604 h -0.359 c -0.959,0 -1.612,-0.12 -1.96,-0.359 -0.25,-0.164 -0.375,-0.403 -0.375,-0.718 0,-0.196 0.043,-0.428 0.13,-0.694 0.087,-0.267 0.381,-0.983 0.882,-2.148 l 4.719,-11.021 4.376,9.813 c 0.522,1.186 0.844,1.981 0.963,2.384 0.12,0.403 0.18,0.745 0.18,1.029 0,0.326 -0.087,0.615 -0.261,0.865 -0.175,0.251 -0.43,0.441 -0.768,0.572 -0.468,0.184 -1.089,0.277 -1.861,0.277 l 0,0.604 H 0"
         style="fill:#231f20;fill-opacity:1;fill-rule:nonzero;stroke:none"
         transform="matrix(1.3333333,0,0,-1.3333333,92.070667,300.112)" />
      <path
         id="path7"
         d="M 0,0 -3.298,7.625 -6.695,0 Z m 0.555,-1.208 h -7.821 l -0.931,-2.156 c -0.305,-0.718 -0.457,-1.312 -0.457,-1.779 0,-0.621 0.25,-1.079 0.751,-1.372 0.294,-0.174 1.018,-0.305 2.172,-0.392 v -0.604 h -7.365 v 0.604 c 0.795,0.12 1.448,0.449 1.96,0.988 0.511,0.539 1.143,1.651 1.894,3.339 l 7.919,17.667 h 0.311 L 6.972,-3.07 C 7.734,-4.79 8.36,-5.873 8.85,-6.319 9.22,-6.657 9.742,-6.852 10.418,-6.907 V -7.511 H -0.294 v 0.604 h 0.441 c 0.86,0 1.464,0.12 1.812,0.359 0.24,0.174 0.36,0.425 0.36,0.752 0,0.196 -0.033,0.396 -0.098,0.603 -0.022,0.098 -0.186,0.507 -0.49,1.225 l -1.176,2.76"
         style="fill:#231f20;fill-opacity:1;fill-rule:nonzero;stroke:none"
         transform="matrix(1.3333333,0,0,-1.3333333,104.58933,319.61867)" />
      <path
         id="path8"
         d="m 0,0 -0.832,-7.772 h -19.66 v 0.604 h 0.735 c 0.642,0 1.159,0.114 1.551,0.343 0.283,0.152 0.5,0.413 0.653,0.784 0.119,0.261 0.18,0.947 0.18,2.057 v 14.565 c 0,1.132 -0.061,1.839 -0.18,2.123 -0.12,0.283 -0.362,0.531 -0.727,0.743 -0.365,0.212 -0.857,0.318 -1.477,0.318 h -0.735 v 0.604 H -8.687 V 13.765 H -9.65 c -0.643,0 -1.16,-0.114 -1.552,-0.343 -0.282,-0.153 -0.506,-0.414 -0.668,-0.784 -0.121,-0.261 -0.181,-0.947 -0.181,-2.057 V -3.527 c 0,-1.132 0.065,-1.853 0.196,-2.163 0.13,-0.31 0.386,-0.542 0.768,-0.694 0.271,-0.099 0.93,-0.147 1.975,-0.147 h 1.846 c 1.175,0 2.155,0.206 2.939,0.62 0.783,0.414 1.462,1.067 2.033,1.96 0.571,0.892 1.113,2.209 1.624,3.951 L 0,0"
         style="fill:#231f20;fill-opacity:1;fill-rule:nonzero;stroke:none"
         transform="matrix(1.3333333,0,0,-1.3333333,147.13067,319.27067)" />
      <path
         id="path9"
         d="m 0,0 h 11.43 v -0.604 h -0.571 c -0.86,0 -1.451,-0.09 -1.772,-0.269 C 8.765,-1.053 8.537,-1.3 8.401,-1.616 8.265,-1.932 8.197,-2.721 8.197,-3.984 v -10.842 c 0,-1.982 0.15,-3.293 0.449,-3.936 0.299,-0.642 0.792,-1.175 1.478,-1.599 0.686,-0.425 1.551,-0.637 2.596,-0.637 1.198,0 2.218,0.269 3.062,0.808 0.843,0.539 1.474,1.282 1.894,2.229 0.419,0.947 0.629,2.596 0.629,4.947 v 9.03 c 0,0.99 -0.104,1.698 -0.311,2.123 -0.207,0.424 -0.468,0.718 -0.784,0.882 -0.489,0.25 -1.181,0.375 -2.074,0.375 V 0 h 7.659 v -0.604 h -0.457 c -0.621,0 -1.138,-0.125 -1.551,-0.375 -0.414,-0.251 -0.714,-0.626 -0.899,-1.127 -0.141,-0.349 -0.212,-0.975 -0.212,-1.878 v -8.409 c 0,-2.602 -0.171,-4.48 -0.514,-5.633 -0.343,-1.154 -1.179,-2.216 -2.507,-3.184 -1.328,-0.969 -3.14,-1.454 -5.437,-1.454 -1.916,0 -3.397,0.256 -4.442,0.767 -1.426,0.697 -2.432,1.59 -3.02,2.678 -0.588,1.089 -0.882,2.553 -0.882,4.393 v 10.842 c 0,1.274 -0.071,2.066 -0.213,2.376 C 2.52,-1.298 2.275,-1.05 1.927,-0.865 1.578,-0.68 0.936,-0.593 0,-0.604 V 0"
         style="fill:#231f20;fill-opacity:1;fill-rule:nonzero;stroke:none"
         transform="matrix(1.3333333,0,0,-1.3333333,149.76533,300.112)" />
      <path
         id="path10"
         d="m 0,0 v -9.698 h 0.931 c 1.513,0 2.644,0.138 3.396,0.416 0.751,0.277 1.341,0.778 1.771,1.502 0.43,0.723 0.646,1.668 0.646,2.833 0,1.687 -0.395,2.933 -1.184,3.739 C 4.771,-0.402 3.5,0 1.747,0 Z m 0,-10.858 v -6.205 c 0,-1.198 0.074,-1.951 0.22,-2.262 0.147,-0.31 0.406,-0.558 0.776,-0.742 0.37,-0.186 1.061,-0.278 2.074,-0.278 v -0.604 H -8.262 v 0.604 c 1.022,0 1.717,0.095 2.081,0.286 0.365,0.19 0.621,0.438 0.768,0.743 0.147,0.304 0.22,1.055 0.22,2.253 v 14.369 c 0,1.197 -0.073,1.951 -0.22,2.262 -0.147,0.31 -0.406,0.557 -0.775,0.743 -0.371,0.184 -1.062,0.277 -2.074,0.277 V 1.192 H 2.025 c 2.677,0 4.637,-0.185 5.878,-0.555 1.241,-0.37 2.253,-1.053 3.037,-2.049 0.784,-0.996 1.176,-2.164 1.176,-3.503 0,-1.632 -0.588,-2.982 -1.764,-4.049 -0.751,-0.675 -1.802,-1.181 -3.151,-1.518 l 5.322,-7.495 c 0.697,-0.97 1.193,-1.573 1.487,-1.813 0.446,-0.337 0.963,-0.523 1.551,-0.555 v -0.604 H 8.589 L 1.453,-10.858 H 0"
         style="fill:#231f20;fill-opacity:1;fill-rule:nonzero;stroke:none"
         transform="matrix(1.3333333,0,0,-1.3333333,203.91067,301.70133)" />
      <path
         id="path11"
         d="m 0,0 v -9.014 h 0.441 c 1.404,0 2.422,0.442 3.053,1.323 0.631,0.882 1.034,2.182 1.209,3.902 h 0.62 v -11.593 h -0.62 c -0.131,1.263 -0.406,2.297 -0.825,3.103 -0.419,0.805 -0.906,1.347 -1.461,1.624 -0.556,0.278 -1.362,0.416 -2.417,0.416 v -6.236 c 0,-1.22 0.051,-1.966 0.155,-2.238 0.103,-0.272 0.297,-0.495 0.579,-0.67 0.284,-0.173 0.741,-0.261 1.372,-0.261 h 1.323 c 2.068,0 3.726,0.48 4.972,1.437 1.246,0.958 2.142,2.417 2.686,4.376 h 0.604 l -0.995,-7.037 H -8.442 v 0.604 h 0.735 c 0.642,0 1.16,0.114 1.551,0.343 0.283,0.152 0.501,0.413 0.654,0.784 0.119,0.261 0.179,0.947 0.179,2.057 v 14.565 c 0,1.001 -0.027,1.616 -0.082,1.846 -0.108,0.38 -0.31,0.674 -0.604,0.881 -0.414,0.305 -0.98,0.457 -1.698,0.457 H -8.442 V 1.273 H 10.091 V -5.275 H 9.471 C 9.154,-3.674 8.711,-2.526 8.14,-1.829 7.568,-1.133 6.76,-0.621 5.715,-0.294 5.105,-0.098 3.962,0 2.286,0 H 0"
         style="fill:#231f20;fill-opacity:1;fill-rule:nonzero;stroke:none"
         transform="matrix(1.3333333,0,0,-1.3333333,236.41467,301.80933)" />
      <path
         id="path12"
         d="m 0,0 v -17.275 c 0,-0.915 0.043,-1.476 0.13,-1.682 0.087,-0.207 0.235,-0.365 0.441,-0.474 0.295,-0.164 0.718,-0.245 1.274,-0.245 1.818,0 3.206,0.621 4.164,1.862 1.306,1.676 1.959,4.278 1.959,7.805 0,2.841 -0.447,5.11 -1.339,6.808 C 5.921,-1.872 5.012,-0.969 3.902,-0.49 3.118,-0.153 1.818,0.011 0,0 Z m -8.442,-20.884 v 0.604 h 0.735 c 0.642,0 1.134,0.1 1.478,0.302 0.342,0.201 0.595,0.476 0.759,0.825 0.097,0.228 0.147,0.914 0.147,2.057 v 14.565 c 0,1.132 -0.06,1.839 -0.18,2.123 -0.12,0.283 -0.362,0.531 -0.726,0.743 -0.365,0.212 -0.858,0.318 -1.478,0.318 h -0.735 v 0.604 h 9.911 c 2.646,0 4.774,-0.359 6.385,-1.077 1.97,-0.882 3.464,-2.216 4.482,-4.001 1.018,-1.785 1.527,-3.804 1.527,-6.058 0,-1.557 -0.251,-2.991 -0.752,-4.302 -0.5,-1.312 -1.148,-2.395 -1.942,-3.25 -0.795,-0.855 -1.713,-1.54 -2.752,-2.057 -1.039,-0.517 -2.31,-0.917 -3.813,-1.2 -0.664,-0.131 -1.709,-0.196 -3.135,-0.196 h -9.911"
         style="fill:#231f20;fill-opacity:1;fill-rule:nonzero;stroke:none"
         transform="matrix(1.3333333,0,0,-1.3333333,265.85067,301.788)" />
      <path
         id="path13"
         d="m 0,0 v -7.674 h -0.637 c -0.479,2.003 -1.371,3.538 -2.678,4.604 -1.306,1.068 -2.787,1.601 -4.441,1.601 -1.383,0 -2.651,-0.398 -3.805,-1.192 -1.153,-0.795 -1.998,-1.834 -2.531,-3.118 -0.685,-1.644 -1.028,-3.473 -1.028,-5.487 0,-1.982 0.25,-3.786 0.75,-5.413 0.501,-1.628 1.285,-2.857 2.352,-3.691 1.067,-0.832 2.45,-1.249 4.148,-1.249 1.393,0 2.669,0.305 3.828,0.915 1.16,0.61 2.382,1.66 3.666,3.151 v -1.91 c -1.241,-1.296 -2.534,-2.234 -3.877,-2.817 -1.345,-0.582 -2.915,-0.873 -4.711,-0.873 -2.363,0 -4.461,0.473 -6.295,1.42 -1.834,0.947 -3.25,2.308 -4.245,4.082 -0.997,1.774 -1.494,3.663 -1.494,5.667 0,2.111 0.551,4.114 1.657,6.009 1.105,1.894 2.596,3.363 4.474,4.408 1.877,1.045 3.872,1.567 5.984,1.567 1.557,0 3.2,-0.337 4.932,-1.012 1.001,-0.391 1.637,-0.587 1.91,-0.587 0.348,0 0.65,0.127 0.906,0.383 0.256,0.256 0.422,0.662 0.498,1.216 L 0,0"
         style="fill:#231f20;fill-opacity:1;fill-rule:nonzero;stroke:none"
         transform="matrix(1.3333333,0,0,-1.3333333,327.11467,299.43733)" />
      <path
         id="path14"
         d="m 0,0 v -9.698 h 0.931 c 1.513,0 2.645,0.138 3.396,0.416 0.751,0.277 1.342,0.778 1.772,1.502 0.43,0.723 0.645,1.668 0.645,2.833 0,1.687 -0.395,2.933 -1.184,3.739 C 4.771,-0.402 3.5,0 1.747,0 Z m 0,-10.858 v -6.205 c 0,-1.198 0.074,-1.951 0.22,-2.262 0.148,-0.31 0.406,-0.558 0.776,-0.742 0.37,-0.186 1.061,-0.278 2.074,-0.278 v -0.604 H -8.262 v 0.604 c 1.023,0 1.717,0.095 2.082,0.286 0.364,0.19 0.62,0.438 0.767,0.743 0.147,0.304 0.221,1.055 0.221,2.253 v 14.369 c 0,1.197 -0.074,1.951 -0.221,2.262 -0.147,0.31 -0.405,0.557 -0.775,0.743 -0.37,0.184 -1.062,0.277 -2.074,0.277 V 1.192 H 2.025 c 2.678,0 4.637,-0.185 5.878,-0.555 1.241,-0.37 2.253,-1.053 3.037,-2.049 0.784,-0.996 1.176,-2.164 1.176,-3.503 0,-1.632 -0.588,-2.982 -1.764,-4.049 -0.751,-0.675 -1.801,-1.181 -3.151,-1.518 l 5.323,-7.495 c 0.697,-0.97 1.192,-1.573 1.486,-1.813 0.446,-0.337 0.964,-0.523 1.552,-0.555 v -0.604 H 8.589 L 1.454,-10.858 H 0"
         style="fill:#231f20;fill-opacity:1;fill-rule:nonzero;stroke:none"
         transform="matrix(1.3333333,0,0,-1.3333333,341.396,301.70133)" />
      <path
         id="path15"
         d="m 0,0 c -2.025,0 -3.565,-1.034 -4.621,-3.102 -0.86,-1.698 -1.289,-4.137 -1.289,-7.315 0,-3.778 0.663,-6.57 1.991,-8.377 0.926,-1.263 2.221,-1.894 3.887,-1.894 1.121,0 2.057,0.272 2.809,0.817 0.957,0.696 1.703,1.809 2.236,3.339 0.533,1.529 0.8,3.524 0.8,5.985 0,2.928 -0.272,5.118 -0.816,6.571 C 4.453,-2.522 3.758,-1.497 2.915,-0.898 2.071,-0.299 1.1,0 0,0 Z m -0.196,1.045 c 3.527,0.131 6.393,-0.898 8.597,-3.086 2.205,-2.188 3.307,-4.925 3.307,-8.213 0,-2.809 -0.822,-5.279 -2.465,-7.413 -2.178,-2.83 -5.253,-4.245 -9.226,-4.245 -3.984,0 -7.065,1.349 -9.242,4.049 -1.721,2.134 -2.58,4.664 -2.58,7.593 0,3.287 1.119,6.028 3.355,8.221 2.238,2.194 4.988,3.225 8.254,3.094"
         style="fill:#231f20;fill-opacity:1;fill-rule:nonzero;stroke:none"
         transform="matrix(1.3333333,0,0,-1.3333333,379.23467,301.092)" />
      <path
         id="path16"
         d="m 0,0 0.18,-7.38 h -0.67 c -0.316,1.851 -1.092,3.339 -2.327,4.466 -1.236,1.126 -2.572,1.69 -4.009,1.69 -1.11,0 -1.989,-0.297 -2.637,-0.89 -0.648,-0.594 -0.972,-1.277 -0.972,-2.049 0,-0.49 0.115,-0.926 0.344,-1.307 0.315,-0.512 0.822,-1.018 1.518,-1.518 0.512,-0.359 1.692,-0.996 3.543,-1.911 2.591,-1.273 4.338,-2.476 5.242,-3.608 0.892,-1.132 1.339,-2.428 1.339,-3.887 0,-1.85 -0.722,-3.442 -2.164,-4.775 -1.442,-1.334 -3.274,-2.001 -5.494,-2.001 -0.697,0 -1.355,0.071 -1.976,0.213 -0.62,0.141 -1.399,0.408 -2.335,0.8 -0.522,0.217 -0.953,0.326 -1.29,0.326 -0.283,0 -0.583,-0.109 -0.898,-0.326 -0.316,-0.218 -0.572,-0.55 -0.768,-0.996 h -0.604 v 8.36 h 0.604 c 0.48,-2.351 1.402,-4.145 2.768,-5.381 1.366,-1.235 2.839,-1.853 4.417,-1.853 1.219,0 2.191,0.332 2.915,0.996 0.724,0.664 1.086,1.437 1.086,2.319 0,0.523 -0.139,1.029 -0.417,1.519 -0.278,0.489 -0.699,0.955 -1.265,1.395 -0.566,0.442 -1.567,1.016 -3.004,1.724 -2.015,0.99 -3.462,1.833 -4.344,2.53 -0.881,0.696 -1.56,1.475 -2.033,2.335 -0.474,0.86 -0.711,1.807 -0.711,2.842 0,1.763 0.648,3.265 1.944,4.506 C -10.723,-0.62 -9.09,0 -7.12,0 c 0.719,0 1.415,-0.087 2.09,-0.261 0.512,-0.131 1.135,-0.373 1.87,-0.726 0.735,-0.355 1.25,-0.531 1.543,-0.531 0.283,0 0.506,0.087 0.67,0.261 0.163,0.174 0.315,0.594 0.457,1.257 L 0,0"
         style="fill:#231f20;fill-opacity:1;fill-rule:nonzero;stroke:none"
         transform="matrix(1.3333333,0,0,-1.3333333,417.37867,299.43733)" />
      <path
         id="path17"
         d="m 0,0 0.18,-7.38 h -0.67 c -0.316,1.851 -1.091,3.339 -2.327,4.466 -1.235,1.126 -2.571,1.69 -4.008,1.69 -1.111,0 -1.989,-0.297 -2.637,-0.89 -0.648,-0.594 -0.972,-1.277 -0.972,-2.049 0,-0.49 0.115,-0.926 0.343,-1.307 0.316,-0.512 0.822,-1.018 1.519,-1.518 0.511,-0.359 1.692,-0.996 3.543,-1.911 2.59,-1.273 4.338,-2.476 5.241,-3.608 0.893,-1.132 1.34,-2.428 1.34,-3.887 0,-1.85 -0.722,-3.442 -2.164,-4.775 -1.442,-1.334 -3.274,-2.001 -5.495,-2.001 -0.697,0 -1.355,0.071 -1.976,0.213 -0.62,0.141 -1.399,0.408 -2.334,0.8 -0.523,0.217 -0.953,0.326 -1.29,0.326 -0.284,0 -0.583,-0.109 -0.898,-0.326 -0.317,-0.218 -0.572,-0.55 -0.768,-0.996 h -0.604 v 8.36 h 0.604 c 0.479,-2.351 1.401,-4.145 2.768,-5.381 1.366,-1.235 2.838,-1.853 4.416,-1.853 1.22,0 2.191,0.332 2.915,0.996 0.724,0.664 1.086,1.437 1.086,2.319 0,0.523 -0.139,1.029 -0.416,1.519 -0.278,0.489 -0.7,0.955 -1.265,1.395 -0.567,0.442 -1.568,1.016 -3.005,1.724 -2.014,0.99 -3.461,1.833 -4.344,2.53 -0.881,0.696 -1.559,1.475 -2.032,2.335 -0.474,0.86 -0.711,1.807 -0.711,2.842 0,1.763 0.647,3.265 1.943,4.506 C -10.722,-0.62 -9.09,0 -7.119,0 c 0.718,0 1.415,-0.087 2.09,-0.261 0.511,-0.131 1.135,-0.373 1.87,-0.726 0.734,-0.355 1.249,-0.531 1.542,-0.531 0.284,0 0.507,0.087 0.67,0.261 0.163,0.174 0.316,0.594 0.457,1.257 L 0,0"
         style="fill:#231f20;fill-opacity:1;fill-rule:nonzero;stroke:none"
         transform="matrix(1.3333333,0,0,-1.3333333,442.176,299.43733)" />
      <path
         id="path18"
         d="m 0,0 0.18,-7.38 h -0.67 c -0.316,1.851 -1.092,3.339 -2.327,4.466 -1.235,1.126 -2.572,1.69 -4.008,1.69 -1.111,0 -1.99,-0.297 -2.637,-0.89 -0.649,-0.594 -0.972,-1.277 -0.972,-2.049 0,-0.49 0.114,-0.926 0.343,-1.307 0.315,-0.512 0.822,-1.018 1.519,-1.518 0.511,-0.359 1.692,-0.996 3.543,-1.911 2.59,-1.273 4.338,-2.476 5.241,-3.608 0.893,-1.132 1.339,-2.428 1.339,-3.887 0,-1.85 -0.722,-3.442 -2.163,-4.775 -1.443,-1.334 -3.274,-2.001 -5.495,-2.001 -0.697,0 -1.355,0.071 -1.976,0.213 -0.62,0.141 -1.399,0.408 -2.335,0.8 -0.522,0.217 -0.952,0.326 -1.289,0.326 -0.284,0 -0.583,-0.109 -0.899,-0.326 -0.316,-0.218 -0.572,-0.55 -0.768,-0.996 h -0.603 v 8.36 h 0.603 c 0.48,-2.351 1.402,-4.145 2.769,-5.381 1.366,-1.235 2.838,-1.853 4.416,-1.853 1.219,0 2.191,0.332 2.915,0.996 0.724,0.664 1.086,1.437 1.086,2.319 0,0.523 -0.139,1.029 -0.416,1.519 -0.278,0.489 -0.7,0.955 -1.266,1.395 -0.566,0.442 -1.567,1.016 -3.004,1.724 -2.014,0.99 -3.462,1.833 -4.344,2.53 -0.881,0.696 -1.559,1.475 -2.033,2.335 -0.473,0.86 -0.71,1.807 -0.71,2.842 0,1.763 0.647,3.265 1.943,4.506 C -10.723,-0.62 -9.09,0 -7.119,0 c 0.718,0 1.414,-0.087 2.09,-0.261 0.511,-0.131 1.134,-0.373 1.869,-0.726 0.735,-0.355 1.25,-0.531 1.543,-0.531 0.283,0 0.506,0.087 0.67,0.261 0.163,0.174 0.315,0.594 0.457,1.257 L 0,0"
         style="fill:#231f20;fill-opacity:1;fill-rule:nonzero;stroke:none"
         transform="matrix(1.3333333,0,0,-1.3333333,478.12133,299.43733)" />
      <path
         id="path19"
         d="m 0,0 c -2.025,0 -3.565,-1.034 -4.621,-3.102 -0.86,-1.698 -1.289,-4.137 -1.289,-7.315 0,-3.778 0.663,-6.57 1.991,-8.377 0.926,-1.263 2.221,-1.894 3.887,-1.894 1.121,0 2.057,0.272 2.809,0.817 0.957,0.696 1.703,1.809 2.236,3.339 0.533,1.529 0.8,3.524 0.8,5.985 0,2.928 -0.272,5.118 -0.816,6.571 C 4.453,-2.522 3.758,-1.497 2.915,-0.898 2.071,-0.299 1.1,0 0,0 Z m -0.196,1.045 c 3.527,0.131 6.393,-0.898 8.597,-3.086 2.205,-2.188 3.307,-4.925 3.307,-8.213 0,-2.809 -0.822,-5.279 -2.465,-7.413 -2.178,-2.83 -5.253,-4.245 -9.226,-4.245 -3.984,0 -7.065,1.349 -9.242,4.049 -1.721,2.134 -2.58,4.664 -2.58,7.593 0,3.287 1.119,6.028 3.355,8.221 2.238,2.194 4.988,3.225 8.254,3.094"
         style="fill:#231f20;fill-opacity:1;fill-rule:nonzero;stroke:none"
         transform="matrix(1.3333333,0,0,-1.3333333,499.456,301.092)" />
      <path
         id="path20"
         d="m 0,0 v -7.674 h -0.636 c -0.48,2.003 -1.372,3.538 -2.678,4.604 -1.307,1.068 -2.787,1.601 -4.442,1.601 -1.382,0 -2.65,-0.398 -3.805,-1.192 -1.153,-0.795 -1.997,-1.834 -2.53,-3.118 -0.686,-1.644 -1.028,-3.473 -1.028,-5.487 0,-1.982 0.25,-3.786 0.75,-5.413 0.501,-1.628 1.285,-2.857 2.351,-3.691 1.068,-0.832 2.45,-1.249 4.148,-1.249 1.394,0 2.67,0.305 3.829,0.915 1.16,0.61 2.381,1.66 3.666,3.151 v -1.91 c -1.241,-1.296 -2.534,-2.234 -3.878,-2.817 -1.344,-0.582 -2.915,-0.873 -4.711,-0.873 -2.362,0 -4.461,0.473 -6.294,1.42 -1.835,0.947 -3.25,2.308 -4.246,4.082 -0.996,1.774 -1.494,3.663 -1.494,5.667 0,2.111 0.552,4.114 1.657,6.009 1.105,1.894 2.596,3.363 4.474,4.408 1.878,1.045 3.873,1.567 5.984,1.567 1.557,0 3.201,-0.337 4.932,-1.012 1.001,-0.391 1.638,-0.587 1.91,-0.587 0.348,0 0.651,0.127 0.906,0.383 0.256,0.256 0.422,0.662 0.499,1.216 L 0,0"
         style="fill:#231f20;fill-opacity:1;fill-rule:nonzero;stroke:none"
         transform="matrix(1.3333333,0,0,-1.3333333,546.41733,299.43733)" />
      <path
         id="path21"
         d="M 0,0 V -0.60398 H -11.576 V 0 h 0.734 c 0.642,0 1.16,0.114 1.552,0.343 0.282,0.152 0.5,0.413 0.653,0.784 0.119,0.261 0.179,0.947 0.179,2.057 v 14.565 c 0,1.132 -0.06,1.839 -0.179,2.123 -0.12,0.283 -0.363,0.531 -0.727,0.743 -0.365,0.212 -0.857,0.318 -1.478,0.318 h -0.734 v 0.604 H 0 v -0.604 h -0.734 c -0.643,0 -1.16,-0.114 -1.552,-0.343 -0.283,-0.153 -0.506,-0.414 -0.669,-0.784 -0.12,-0.261 -0.18,-0.947 -0.18,-2.057 V 3.184 c 0,-1.133 0.063,-1.84 0.188,-2.123 C -2.822,0.778 -2.577,0.53 -2.212,0.319 -1.848,0.106 -1.355,0 -0.734,0 H 0"
         style="fill:#231f20;fill-opacity:1;fill-rule:nonzero;stroke:none"
         transform="matrix(1.3333333,0,0,-1.3333333,565.184,328.828)" />
      <path
         id="path22"
         d="m 0,0 v -9.014 h 0.442 c 1.403,0 2.421,0.442 3.053,1.323 0.631,0.882 1.034,2.182 1.208,3.902 h 0.62 v -11.593 h -0.62 c -0.131,1.263 -0.406,2.297 -0.825,3.103 -0.419,0.805 -0.906,1.347 -1.461,1.624 -0.555,0.278 -1.361,0.416 -2.417,0.416 v -6.236 c 0,-1.22 0.052,-1.966 0.155,-2.238 0.104,-0.272 0.297,-0.495 0.58,-0.67 0.283,-0.173 0.74,-0.261 1.371,-0.261 h 1.323 c 2.068,0 3.726,0.48 4.973,1.437 1.245,0.958 2.141,2.417 2.686,4.376 h 0.604 l -0.996,-7.037 H -8.441 v 0.604 h 0.734 c 0.642,0 1.16,0.114 1.552,0.343 0.283,0.152 0.5,0.413 0.653,0.784 0.119,0.261 0.179,0.947 0.179,2.057 v 14.565 c 0,1.001 -0.027,1.616 -0.082,1.846 -0.108,0.38 -0.31,0.674 -0.604,0.881 -0.414,0.305 -0.979,0.457 -1.698,0.457 H -8.441 V 1.273 H 10.091 V -5.275 H 9.471 C 9.155,-3.674 8.711,-2.526 8.14,-1.829 7.568,-1.133 6.76,-0.621 5.715,-0.294 5.105,-0.098 3.962,0 2.286,0 H 0"
         style="fill:#231f20;fill-opacity:1;fill-rule:nonzero;stroke:none"
         transform="matrix(1.3333333,0,0,-1.3333333,578.356,301.80933)" />
      <path
         id="path23"
         d="m 0,0 v -5.992 h -0.588 c -0.349,1.382 -0.735,2.376 -1.159,2.98 -0.426,0.604 -1.008,1.086 -1.748,1.445 -0.414,0.196 -1.137,0.294 -2.171,0.294 h -1.65 v -17.08 c 0,-1.133 0.063,-1.84 0.188,-2.123 0.125,-0.283 0.37,-0.531 0.735,-0.742 0.364,-0.213 0.862,-0.319 1.494,-0.319 h 0.735 v -0.604 h -11.594 v 0.604 h 0.735 c 0.642,0 1.159,0.114 1.551,0.343 0.284,0.152 0.507,0.413 0.67,0.784 0.119,0.261 0.179,0.947 0.179,2.057 v 17.08 h -1.599 c -1.492,0 -2.575,-0.316 -3.25,-0.947 -0.947,-0.882 -1.546,-2.139 -1.796,-3.772 h -0.621 V 0 L 0,0"
         style="fill:#231f20;fill-opacity:1;fill-rule:nonzero;stroke:none"
         transform="matrix(1.3333333,0,0,-1.3333333,624.076,300.112)" />
      <path
         id="path24"
         d="m 0,0 v -0.604 c -0.73,-0.097 -1.29,-0.31 -1.682,-0.637 -0.544,-0.457 -1.405,-1.703 -2.58,-3.739 l -4.8,-8.017 v -5.356 c 0,-1.143 0.059,-1.853 0.179,-2.131 0.12,-0.277 0.357,-0.523 0.71,-0.734 0.354,-0.213 0.825,-0.319 1.413,-0.319 h 1.241 v -0.604 h -12.426 v 0.604 h 1.159 c 0.653,0 1.17,0.114 1.551,0.343 0.283,0.152 0.507,0.413 0.67,0.784 0.119,0.261 0.179,0.947 0.179,2.057 v 4.441 l -5.208,9.488 c -1.035,1.871 -1.764,2.973 -2.188,3.306 -0.425,0.332 -0.991,0.503 -1.699,0.514 V 0 h 10.614 v -0.604 h -0.474 c -0.642,0 -1.091,-0.093 -1.346,-0.277 -0.257,-0.186 -0.384,-0.382 -0.384,-0.588 0,-0.392 0.435,-1.377 1.306,-2.955 l 4,-7.332 3.985,6.678 c 0.99,1.633 1.486,2.716 1.486,3.249 0,0.294 -0.142,0.54 -0.425,0.736 -0.37,0.271 -1.051,0.435 -2.041,0.489 L -6.76,0 H 0"
         style="fill:#231f20;fill-opacity:1;fill-rule:nonzero;stroke:none"
         transform="matrix(1.3333333,0,0,-1.3333333,657.38667,300.112)" />
    </g>
  </g>
</svg>
