<?xml version="1.0" encoding="UTF-8" standalone="no"?>
<!-- Created with Inkscape (http://www.inkscape.org/) -->

<svg
   version="1.1"
   id="svg1"
   width="278.97067"
   height="96.446671"
   viewBox="0 0 278.97067 96.446671"
   sodipodi:docname="Montenegro RC-Crveni krst Crne Gore.svg"
   inkscape:version="1.3.2 (091e20e, 2023-11-25, custom)"
   xmlns:inkscape="http://www.inkscape.org/namespaces/inkscape"
   xmlns:sodipodi="http://sodipodi.sourceforge.net/DTD/sodipodi-0.dtd"
   xmlns="http://www.w3.org/2000/svg"
   xmlns:svg="http://www.w3.org/2000/svg">
  <defs
     id="defs1">
    <clipPath
       clipPathUnits="userSpaceOnUse"
       id="clipPath4">
      <path
         d="M 209.228,72.335 H 0 V 0 h 209.228 z"
         transform="translate(-150.072,-38.937001)"
         id="path4" />
    </clipPath>
  </defs>
  <sodipodi:namedview
     id="namedview1"
     pagecolor="#ffffff"
     bordercolor="#666666"
     borderopacity="1.0"
     inkscape:showpageshadow="2"
     inkscape:pageopacity="0.0"
     inkscape:pagecheckerboard="0"
     inkscape:deskcolor="#d1d1d1"
     inkscape:zoom="3.3516068"
     inkscape:cx="139.48534"
     inkscape:cy="48.185844"
     inkscape:window-width="1920"
     inkscape:window-height="1017"
     inkscape:window-x="-8"
     inkscape:window-y="-8"
     inkscape:window-maximized="1"
     inkscape:current-layer="g1">
    <inkscape:page
       x="0"
       y="0"
       inkscape:label="1"
       id="page1"
       width="278.97067"
       height="96.446671"
       margin="0"
       bleed="0" />
  </sodipodi:namedview>
  <g
     id="g1"
     inkscape:groupmode="layer"
     inkscape:label="1">
    <g
       id="group-MC1">
      <path
         id="path2"
         d="M 0,0 2.036,-1.057 C 1.719,-2.925 1.209,-4.314 0.481,-5.224 c -0.727,-0.909 -1.659,-1.362 -2.764,-1.362 -1.381,0 -2.527,0.768 -3.418,2.322 -0.882,1.555 -1.335,3.69 -1.335,6.393 0,2.851 0.453,5.057 1.352,6.635 0.887,1.579 2.068,2.372 3.519,2.372 1.279,0 2.313,-0.626 3.113,-1.874 C 1.413,8.545 1.775,7.494 2.008,6.13 L -0.069,5.295 c -0.117,0.906 -0.382,1.602 -0.772,2.106 -0.395,0.527 -0.874,0.79 -1.423,0.79 -0.774,0 -1.4,-0.459 -1.881,-1.39 -0.476,-0.908 -0.723,-2.369 -0.723,-4.434 0,-2.152 0.247,-3.709 0.711,-4.623 0.479,-0.91 1.093,-1.385 1.845,-1.385 0.569,0 1.049,0.311 1.442,0.889 C -0.466,-2.184 -0.175,-1.248 0,0 M 5.124,-6.303 H 3.129 V 6.13 H 4.977 V 4.354 c 0.319,0.835 0.612,1.394 0.858,1.663 0.261,0.254 0.537,0.374 0.874,0.374 0.451,0 0.886,-0.19 1.307,-0.618 L 7.392,2.922 C 7.057,3.275 6.751,3.443 6.459,3.443 6.186,3.443 5.953,3.324 5.748,3.063 5.56,2.826 5.396,2.367 5.296,1.699 5.182,1.027 5.124,-0.359 5.124,-2.469 Z m 6.422,0 L 8.505,6.13 h 2.094 l 1.427,-6.348 0.407,-2.106 c 0.116,0.523 0.187,0.886 0.215,1.055 0.058,0.357 0.131,0.695 0.205,1.051 L 14.29,6.13 h 2.054 L 13.348,-6.303 Z m 9.774,3.955 1.992,-0.554 c -0.262,-1.195 -0.655,-2.107 -1.207,-2.727 -0.553,-0.648 -1.25,-0.957 -2.082,-0.957 -1.308,0 -2.281,0.719 -2.908,2.129 -0.494,1.127 -0.741,2.562 -0.741,4.262 0,2.06 0.32,3.689 0.977,4.839 0.652,1.168 1.483,1.747 2.485,1.747 1.117,0 2.004,-0.598 2.646,-1.819 0.652,-1.222 0.958,-3.088 0.931,-5.603 H 18.41 c 0.014,-0.985 0.176,-1.746 0.493,-2.276 0.307,-0.552 0.687,-0.816 1.153,-0.816 0.3,0 0.564,0.143 0.781,0.406 0.218,0.297 0.382,0.744 0.483,1.369 m 0.114,3.33 c -0.013,0.957 -0.16,1.676 -0.448,2.153 -0.278,0.506 -0.63,0.741 -1.034,0.741 -0.435,0 -0.8,-0.263 -1.078,-0.767 C 18.586,2.582 18.456,1.865 18.456,0.982 Z m 9.863,-7.285 h -2.005 v 6.348 c 0,1.34 -0.049,2.206 -0.119,2.588 C 29.086,3.041 28.941,3.35 28.752,3.564 28.564,3.783 28.327,3.876 28.05,3.876 27.722,3.876 27.399,3.734 27.123,3.424 26.862,3.109 26.674,2.701 26.572,2.18 26.471,1.674 26.413,0.717 26.413,-0.674 V -6.303 H 24.418 V 6.13 H 26.27 V 4.283 c 0.665,1.416 1.494,2.108 2.482,2.108 0.437,0 0.842,-0.12 1.207,-0.374 0.362,-0.269 0.638,-0.603 0.829,-1.011 0.184,-0.41 0.319,-0.866 0.391,-1.365 0.075,-0.532 0.118,-1.274 0.118,-2.234 z m 1.414,17.147 h 1.992 V 7.8088 h -1.992 z m 0,-4.714 h 1.992 V -6.303 h -1.992 z m 8.008,-12.433 v 17.147 h 1.997 V 1.747 l 2.338,4.383 h 2.459 l -2.577,-4.55 2.751,-7.883 h -2.138 l -1.906,5.581 -0.927,-1.602 v -3.979 z m 9.456,0 H 48.184 V 6.13 H 50.03 V 4.354 c 0.32,0.835 0.614,1.394 0.859,1.663 0.262,0.254 0.536,0.374 0.874,0.374 0.449,0 0.884,-0.19 1.307,-0.618 L 52.441,2.922 C 52.109,3.275 51.806,3.443 51.514,3.443 51.236,3.443 51.004,3.324 50.8,3.063 50.61,2.826 50.453,2.367 50.35,1.699 50.235,1.027 50.175,-0.359 50.175,-2.469 Z m 3.055,3.551 1.988,0.496 c 0.087,-0.646 0.265,-1.125 0.526,-1.461 0.26,-0.335 0.625,-0.499 1.086,-0.499 0.525,0 0.905,0.164 1.169,0.476 0.17,0.22 0.257,0.504 0.257,0.886 0,0.244 -0.04,0.456 -0.141,0.625 -0.087,0.139 -0.321,0.287 -0.652,0.428 -1.616,0.578 -2.635,1.105 -3.069,1.583 -0.598,0.671 -0.888,1.603 -0.888,2.8 0,1.076 0.249,1.99 0.766,2.713 0.513,0.738 1.313,1.096 2.399,1.096 1.036,0 1.807,-0.261 2.297,-0.813 0.513,-0.55 0.846,-1.388 1.033,-2.469 L 58.126,2.537 c -0.085,0.479 -0.23,0.86 -0.46,1.121 -0.222,0.244 -0.543,0.388 -0.962,0.388 -0.525,0 -0.901,-0.122 -1.119,-0.357 -0.162,-0.195 -0.232,-0.414 -0.232,-0.673 0,-0.241 0.07,-0.434 0.199,-0.601 0.177,-0.215 0.802,-0.521 1.867,-0.931 1.059,-0.382 1.8,-0.889 2.22,-1.461 0.423,-0.57 0.626,-1.39 0.626,-2.449 0,-1.122 -0.29,-2.104 -0.87,-2.914 -0.568,-0.841 -1.426,-1.246 -2.565,-1.246 -1.027,0 -1.827,0.354 -2.436,1.031 -0.598,0.694 -0.992,1.628 -1.164,2.803 M 64.863,6.13 V 3.494 h -1.367 v -5.003 c 0,-1.005 0.014,-1.605 0.044,-1.775 0.017,-0.167 0.073,-0.286 0.176,-0.405 0.085,-0.122 0.2,-0.17 0.334,-0.17 0.19,0 0.449,0.119 0.798,0.311 l 0.175,-2.536 c -0.463,-0.332 -0.991,-0.502 -1.585,-0.502 -0.348,0 -0.679,0.091 -0.959,0.309 -0.291,0.193 -0.507,0.459 -0.639,0.77 -0.131,0.309 -0.232,0.739 -0.279,1.291 -0.042,0.357 -0.072,1.15 -0.072,2.296 V 3.494 H 60.573 V 6.13 h 0.916 v 2.466 l 2.007,1.914 V 6.13 h 1.367"
         style="fill:#231f20;fill-opacity:1;fill-rule:nonzero;stroke:none"
         transform="matrix(1.3333333,0,0,-1.3333333,98.22,44.530667)" />
      <path
         id="path3"
         d="M 0,0 2.035,-1.057 C 1.714,-2.925 1.209,-4.314 0.482,-5.224 c -0.731,-0.909 -1.659,-1.362 -2.763,-1.362 -1.381,0 -2.529,0.768 -3.413,2.322 -0.891,1.555 -1.342,3.69 -1.342,6.393 0,2.851 0.451,5.057 1.352,6.635 0.889,1.579 2.063,2.372 3.521,2.372 1.279,0 2.313,-0.626 3.11,-1.874 C 1.413,8.545 1.777,7.494 2.009,6.13 L -0.074,5.295 c -0.114,0.906 -0.378,1.602 -0.767,2.106 -0.396,0.527 -0.873,0.79 -1.426,0.79 -0.771,0 -1.395,-0.459 -1.877,-1.39 -0.481,-0.908 -0.724,-2.369 -0.724,-4.434 0,-2.152 0.243,-3.709 0.71,-4.623 0.482,-0.91 1.092,-1.389 1.846,-1.389 0.567,0 1.05,0.315 1.443,0.893 C -0.464,-2.184 -0.174,-1.248 0,0 M 5.122,-6.303 H 3.13 V 6.13 H 4.979 V 4.354 c 0.318,0.835 0.607,1.394 0.856,1.663 0.263,0.254 0.536,0.374 0.872,0.374 0.45,0 0.888,-0.19 1.308,-0.618 L 7.392,2.922 C 7.056,3.275 6.753,3.443 6.462,3.443 6.183,3.443 5.948,3.324 5.748,3.063 5.557,2.826 5.4,2.367 5.297,1.699 5.182,1.027 5.122,-0.359 5.122,-2.469 Z m 10.613,0 h -2.008 v 6.348 c 0,1.34 -0.036,2.206 -0.116,2.588 -0.087,0.408 -0.228,0.717 -0.42,0.931 -0.189,0.219 -0.419,0.312 -0.699,0.312 -0.334,0 -0.652,-0.142 -0.928,-0.452 C 11.302,3.109 11.11,2.701 11.013,2.18 10.908,1.674 10.851,0.717 10.851,-0.674 V -6.303 H 8.86 V 6.13 h 1.847 V 4.283 c 0.664,1.416 1.494,2.108 2.484,2.108 0.432,0 0.843,-0.12 1.206,-0.374 0.366,-0.269 0.641,-0.603 0.832,-1.011 0.188,-0.41 0.316,-0.866 0.39,-1.365 0.072,-0.532 0.116,-1.274 0.116,-2.234 z m 5.781,3.955 1.988,-0.554 c -0.26,-1.195 -0.654,-2.107 -1.208,-2.727 -0.549,-0.648 -1.249,-0.957 -2.08,-0.957 -1.308,0 -2.277,0.719 -2.909,2.129 -0.491,1.127 -0.735,2.562 -0.735,4.262 0,2.06 0.316,3.689 0.972,4.839 0.653,1.168 1.482,1.747 2.486,1.747 1.12,0 2.007,-0.598 2.647,-1.819 0.648,-1.222 0.958,-3.088 0.927,-5.603 h -4.998 c 0.013,-0.985 0.176,-1.746 0.489,-2.276 0.306,-0.552 0.688,-0.816 1.151,-0.816 0.31,0 0.57,0.143 0.787,0.406 0.22,0.297 0.377,0.744 0.483,1.369 m 0.113,3.33 C 21.608,1.939 21.467,2.658 21.175,3.135 20.901,3.641 20.556,3.876 20.147,3.876 19.709,3.876 19.346,3.613 19.07,3.109 18.782,2.582 18.645,1.865 18.645,0.982 Z M 32.919,0 v 2.899 h 4.524 v -6.826 c -0.44,-0.717 -1.079,-1.319 -1.905,-1.872 -0.846,-0.529 -1.687,-0.787 -2.547,-0.787 -1.088,0 -2.034,0.383 -2.849,1.13 -0.803,0.736 -1.408,1.811 -1.818,3.227 -0.405,1.391 -0.607,2.922 -0.607,4.557 0,1.786 0.231,3.371 0.682,4.756 0.452,1.396 1.117,2.469 1.994,3.187 0.668,0.573 1.494,0.865 2.481,0.865 1.298,0 2.312,-0.456 3.038,-1.342 0.732,-0.886 1.195,-2.132 1.399,-3.687 l -2.08,-0.651 c -0.158,0.838 -0.44,1.509 -0.83,1.987 -0.406,0.485 -0.916,0.748 -1.527,0.748 -0.915,0 -1.643,-0.481 -2.177,-1.438 -0.555,-0.98 -0.814,-2.399 -0.814,-4.29 0,-2.035 0.268,-3.541 0.828,-4.572 0.533,-1.005 1.266,-1.536 2.149,-1.536 0.436,0 0.887,0.145 1.324,0.434 0.437,0.286 0.831,0.643 1.137,1.027 V 0 Z m 5.384,0.091 c 0,1.081 0.157,2.135 0.494,3.165 0.316,1.027 0.781,1.793 1.381,2.345 0.594,0.529 1.264,0.79 2.007,0.79 1.145,0 2.08,-0.598 2.806,-1.819 0.725,-1.222 1.09,-2.754 1.09,-4.623 0,-1.891 -0.365,-3.449 -1.104,-4.669 -0.727,-1.249 -1.656,-1.866 -2.778,-1.866 -0.684,0 -1.349,0.258 -1.978,0.787 -0.622,0.504 -1.108,1.269 -1.424,2.251 -0.337,1.009 -0.494,2.206 -0.494,3.639 m 2.049,-0.193 c 0,-1.214 0.174,-2.154 0.526,-2.823 0.363,-0.645 0.799,-0.982 1.321,-0.982 0.523,0 0.959,0.337 1.312,0.982 0.346,0.669 0.522,1.609 0.522,2.849 0,1.222 -0.176,2.152 -0.522,2.828 -0.353,0.645 -0.789,0.982 -1.312,0.982 -0.522,0 -0.958,-0.337 -1.321,-0.982 -0.352,-0.676 -0.526,-1.606 -0.526,-2.854 m 8.596,-6.201 h -1.99 V 6.13 h 1.85 V 4.354 c 0.315,0.835 0.606,1.394 0.854,1.663 0.264,0.254 0.535,0.374 0.871,0.374 0.449,0 0.886,-0.19 1.311,-0.618 L 51.217,2.922 C 50.88,3.275 50.577,3.443 50.285,3.443 50.011,3.443 49.78,3.324 49.577,3.063 49.385,2.826 49.225,2.367 49.123,1.699 49.01,1.027 48.948,-0.359 48.948,-2.469 Z m 8.115,3.955 1.988,-0.554 c -0.259,-1.195 -0.652,-2.107 -1.203,-2.727 -0.551,-0.648 -1.251,-0.957 -2.081,-0.957 -1.31,0 -2.283,0.719 -2.902,2.129 -0.499,1.127 -0.747,2.562 -0.747,4.262 0,2.06 0.321,3.689 0.975,4.839 0.653,1.168 1.483,1.747 2.487,1.747 1.118,0 2.006,-0.598 2.648,-1.819 0.649,-1.222 0.951,-3.088 0.927,-5.603 h -5.003 c 0.015,-0.985 0.178,-1.746 0.5,-2.276 0.296,-0.552 0.677,-0.816 1.147,-0.816 0.304,0 0.563,0.143 0.782,0.406 0.222,0.297 0.378,0.744 0.482,1.369 m 0.117,3.33 C 57.167,1.939 57.014,2.658 56.73,3.135 56.449,3.641 56.103,3.876 55.694,3.876 55.259,3.876 54.895,3.613 54.618,3.109 54.33,2.582 54.196,1.865 54.196,0.982 h 2.984"
         style="fill:#231f20;fill-opacity:1;fill-rule:nonzero;stroke:none"
         transform="matrix(1.3333333,0,0,-1.3333333,200.096,44.530667)"
         clip-path="url(#clipPath4)" />
      <path
         id="path5"
         d="M 0,0 H 20.457 V -20.457 H 0 V -40.91 h -20.457 v 20.453 H -40.912 V 0 h 20.455 V 20.459 L 0,20.459 V 0"
         style="fill:#ed1c24;fill-opacity:1;fill-rule:nonzero;stroke:none"
         transform="matrix(1.3333333,0,0,-1.3333333,54.549333,27.278667)" />
      <path
         id="path6"
         d="M 0,0 H -1.339 V 5.0254 C -1.826,4.5703 -2.398,4.2422 -3.062,4.0156 v 1.2149 c 0.351,0.1074 0.728,0.3301 1.139,0.6426 0.406,0.3222 0.69,0.6875 0.834,1.1181 H 0 Z M 3.129,3.752 C 2.79,3.9023 2.536,4.1035 2.382,4.3555 2.225,4.6094 2.146,4.8906 2.146,5.1934 c 0,0.5263 0.177,0.9511 0.546,1.291 0.361,0.3281 0.874,0.5068 1.544,0.5068 0.661,0 1.167,-0.1787 1.535,-0.5068 C 6.141,6.1445 6.319,5.7197 6.319,5.1934 6.319,4.8731 6.24,4.5898 6.064,4.3379 5.898,4.084 5.667,3.8877 5.366,3.752 5.743,3.5957 6.046,3.375 6.24,3.0723 6.444,2.7832 6.541,2.4434 6.541,2.0527 6.541,1.4023 6.336,0.8897 5.928,0.47659 5.52,0.0801 4.977,-0.12401 4.296,-0.12401 3.665,-0.12401 3.14,0.04 2.71,0.37989 2.215,0.7705 1.973,1.3057 1.973,1.9941 1.973,2.3613 2.062,2.7158 2.245,3.0244 2.439,3.3438 2.729,3.585 3.129,3.752 M 3.285,2.1211 C 3.285,1.75 3.383,1.4668 3.566,1.2549 3.752,1.0508 3.986,0.9551 4.265,0.9551 c 0.284,0 0.506,0.0957 0.693,0.291 0.174,0.2041 0.271,0.4844 0.271,0.8525 0,0.334 -0.097,0.5967 -0.282,0.7901 C 4.763,3.0918 4.529,3.1914 4.247,3.1914 3.928,3.1914 3.685,3.0723 3.529,2.8486 3.364,2.625 3.285,2.3848 3.285,2.1211 M 3.412,5.0938 C 3.412,4.8301 3.478,4.627 3.635,4.4824 3.78,4.3262 3.986,4.2559 4.236,4.2559 4.492,4.2559 4.684,4.3262 4.84,4.4824 4.994,4.627 5.063,4.8447 5.063,5.1025 5.063,5.3574 4.994,5.5527 4.84,5.7051 4.694,5.8535 4.492,5.9316 4.247,5.9316 3.994,5.9316 3.79,5.8535 3.635,5.7051 3.478,5.5527 3.412,5.3496 3.412,5.0938 m 3.985,0.5351 v 1.2344 h 4.556 V 5.9004 C 11.576,5.5215 11.194,4.9981 10.806,4.2988 10.419,3.6074 10.116,2.8691 9.913,2.0928 9.708,1.3145 9.61,0.61519 9.61,0 H 8.328 c 0.02,0.9629 0.215,1.9482 0.594,2.9453 0.38,1.002 0.876,1.8994 1.505,2.6836 z M 12.817,1.79 14.14,1.9258 c 0.039,-0.3008 0.155,-0.5352 0.341,-0.708 0.183,-0.1748 0.396,-0.2627 0.641,-0.2627 0.281,0 0.514,0.1045 0.71,0.3398 0.194,0.2227 0.291,0.5625 0.291,1.0215 0,0.4277 -0.097,0.7481 -0.291,0.96 -0.186,0.2158 -0.439,0.3193 -0.749,0.3193 -0.38,0 -0.72,-0.1719 -1.03,-0.5117 l -1.081,0.1641 0.683,3.6152 h 3.526 V 5.6211 H 14.664 L 14.461,4.4346 c 0.301,0.1435 0.603,0.2207 0.914,0.2207 0.592,0 1.088,-0.2119 1.496,-0.6397 0.419,-0.4394 0.622,-0.9912 0.622,-1.6816 0,-0.5752 -0.164,-1.0791 -0.496,-1.52641 -0.455,-0.61809 -1.08,-0.9228 -1.886,-0.9228 -0.642,0 -1.164,0.17771 -1.575,0.5175 C 13.14,0.751 12.895,1.207 12.817,1.79"
         style="fill:#231f20;fill-opacity:1;fill-rule:nonzero;stroke:none"
         transform="matrix(1.3333333,0,0,-1.3333333,31.290667,96.28132)" />
    </g>
  </g>
</svg>
