<?xml version="1.0" encoding="UTF-8" standalone="no"?>
<!-- Created with Inkscape (http://www.inkscape.org/) -->

<svg
   version="1.1"
   id="svg1"
   width="304.12134"
   height="96.85733"
   viewBox="0 0 304.12134 96.85733"
   sodipodi:docname="Montenegro RC-EN.svg"
   inkscape:version="1.3.2 (091e20e, 2023-11-25, custom)"
   xmlns:inkscape="http://www.inkscape.org/namespaces/inkscape"
   xmlns:sodipodi="http://sodipodi.sourceforge.net/DTD/sodipodi-0.dtd"
   xmlns="http://www.w3.org/2000/svg"
   xmlns:svg="http://www.w3.org/2000/svg">
  <defs
     id="defs1">
    <clipPath
       clipPathUnits="userSpaceOnUse"
       id="clipPath3">
      <path
         d="M 0.059998,72.6 H 228.091 V 0 H 0.059998 Z"
         transform="translate(-20.541001,-72.643002)"
         id="path3" />
    </clipPath>
  </defs>
  <sodipodi:namedview
     id="namedview1"
     pagecolor="#ffffff"
     bordercolor="#666666"
     borderopacity="1.0"
     inkscape:showpageshadow="2"
     inkscape:pageopacity="0.0"
     inkscape:pagecheckerboard="0"
     inkscape:deskcolor="#d1d1d1"
     inkscape:zoom="3.0744308"
     inkscape:cx="152.06067"
     inkscape:cy="48.301624"
     inkscape:window-width="1920"
     inkscape:window-height="1017"
     inkscape:window-x="-8"
     inkscape:window-y="-8"
     inkscape:window-maximized="1"
     inkscape:current-layer="g1">
    <inkscape:page
       x="0"
       y="0"
       inkscape:label="1"
       id="page1"
       width="304.12134"
       height="96.85733"
       margin="0"
       bleed="0" />
  </sodipodi:namedview>
  <g
     id="g1"
     inkscape:groupmode="layer"
     inkscape:label="1">
    <g
       id="group-MC1">
      <path
         id="path2"
         d="M 0,0 V -20.54 H -20.541 V -41.088 H 0 v -20.54 h 20.541 v 20.54 H 41.083 V -20.54 H 20.541 V 0 L 0,0"
         style="fill:#ed1c24;fill-opacity:1;fill-rule:nonzero;stroke:none"
         transform="matrix(1.3333333,0,0,-1.3333333,27.388,0)"
         clip-path="url(#clipPath3)" />
      <path
         id="path4"
         d="M 0,0 H -1.346 V 5.0449 C -1.833,4.5849 -2.411,4.2558 -3.077,4.0273 v 1.2236 c 0.355,0.1035 0.731,0.3291 1.141,0.6358 0.415,0.332 0.697,0.6982 0.842,1.1308 H 0 Z M 3.139,3.7636 C 2.8,3.9121 2.549,4.1181 2.395,4.3642 2.233,4.6279 2.158,4.9072 2.158,5.208 c 0,0.5254 0.173,0.958 0.547,1.2939 0.359,0.3369 0.878,0.5156 1.551,0.5156 0.663,0 1.17,-0.1787 1.538,-0.5156 C 6.171,6.166 6.343,5.7334 6.343,5.208 6.343,4.8916 6.264,4.6074 6.089,4.3564 5.923,4.0927 5.689,3.9043 5.386,3.7636 5.764,3.6103 6.069,3.3837 6.264,3.083 6.467,2.791 6.57,2.4472 6.57,2.0576 6.57,1.4072 6.36,0.8867 5.954,0.4775 5.541,0.08 4.992,-0.1309 4.309,-0.1309 3.68,-0.1309 3.152,0.0371 2.72,0.374 2.226,0.7685 1.982,1.3037 1.982,2 c 0,0.3662 0.088,0.7255 0.272,1.0253 0.194,0.3291 0.486,0.5704 0.885,0.7383 m 0.16,-1.6328 c 0,-0.3721 0.097,-0.6592 0.284,-0.8799 0.182,-0.1963 0.416,-0.2988 0.698,-0.2988 0.287,0 0.512,0.1025 0.698,0.294 C 5.154,1.4492 5.25,1.7363 5.25,2.1103 5.25,2.4394 5.154,2.6953 4.966,2.8916 4.78,3.1054 4.548,3.2011 4.261,3.2011 3.945,3.2011 3.697,3.083 3.545,2.8564 3.376,2.6377 3.299,2.3945 3.299,2.1308 M 3.423,5.1103 C 3.423,4.8486 3.491,4.6425 3.647,4.497 3.795,4.3418 3.999,4.2714 4.256,4.2714 c 0.249,0 0.448,0.0704 0.602,0.2256 0.156,0.1455 0.226,0.3594 0.226,0.6231 0,0.2568 -0.07,0.4521 -0.226,0.6054 C 4.712,5.874 4.505,5.9541 4.261,5.9541 4.013,5.9541 3.803,5.874 3.647,5.7255 3.491,5.5722 3.423,5.3691 3.423,5.1103 M 7.43,5.6455 v 1.2382 h 4.573 V 5.9248 C 11.623,5.5371 11.239,5.0175 10.853,4.3134 10.461,3.6181 10.159,2.872 9.951,2.0957 9.75,1.3193 9.648,0.6152 9.648,0 H 8.363 c 0.02,0.9668 0.216,1.957 0.594,2.9521 0.38,1.0098 0.881,1.9043 1.513,2.6934 z m 5.438,-3.8594 1.328,0.1484 C 14.24,1.625 14.357,1.3916 14.54,1.2158 14.724,1.04 14.94,0.9521 15.182,0.9521 c 0.284,0 0.521,0.1104 0.717,0.3438 0.19,0.2187 0.292,0.5703 0.292,1.0253 0,0.4327 -0.102,0.7491 -0.292,0.9678 -0.189,0.2129 -0.442,0.3213 -0.753,0.3213 -0.38,0 -0.723,-0.1758 -1.033,-0.5205 l -1.086,0.1689 0.683,3.625 h 3.544 v -1.246 h -2.53 L 14.52,4.4521 c 0.304,0.1406 0.609,0.2207 0.921,0.2207 0.594,0 1.09,-0.2207 1.501,-0.6455 0.418,-0.4375 0.622,-1.002 0.622,-1.6904 0,-0.5703 -0.164,-1.086 -0.494,-1.5303 -0.46,-0.62299 -1.087,-0.9229 -1.896,-0.9229 -0.648,0 -1.169,0.1739 -1.581,0.5127 -0.4,0.3526 -0.643,0.8116 -0.725,1.3897"
         style="fill:#231f20;fill-opacity:1;fill-rule:nonzero;stroke:none"
         transform="matrix(1.3333333,0,0,-1.3333333,31.421333,96.6828)" />
      <path
         id="path5"
         d="M 0,0 C -0.136,-0.565 -0.256,-1.065 -0.358,-1.497 L -3.471,11.54 H -6.265 V -5.287 h 2.016 v 11.92 l 2.906,-11.92 H 0.454 L 3.383,6.45 V -5.287 H 5.401 V 11.54 H 2.849 L 0,0"
         style="fill:#231f20;fill-opacity:1;fill-rule:nonzero;stroke:none"
         transform="matrix(1.3333333,0,0,-1.3333333,98.828,46.848)" />
      <path
         id="path6"
         d="m 0,0 c 0,-1.455 -0.23,-2.547 -0.685,-3.256 -0.432,-0.676 -0.926,-1.005 -1.508,-1.005 -0.623,0 -1.143,0.322 -1.582,0.994 -0.451,0.699 -0.677,1.795 -0.677,3.267 0,1.455 0.223,2.553 0.67,3.251 0.431,0.674 0.926,1 1.515,1 0.627,0 1.142,-0.324 1.578,-0.995 C -0.234,2.556 0,1.46 0,0 m -2.226,6.427 c -1.234,0 -2.259,-0.56 -3.058,-1.666 -0.771,-1.075 -1.165,-2.681 -1.165,-4.768 0,-2.073 0.396,-3.677 1.176,-4.76 0.806,-1.107 1.828,-1.673 3.047,-1.673 1.229,0 2.26,0.566 3.054,1.669 0.776,1.078 1.164,2.721 1.164,4.889 0,2.003 -0.403,3.568 -1.183,4.646 -0.806,1.103 -1.831,1.663 -3.035,1.663"
         style="fill:#231f20;fill-opacity:1;fill-rule:nonzero;stroke:none"
         transform="matrix(1.3333333,0,0,-1.3333333,115.75467,45.662667)" />
      <path
         id="path7"
         d="M 0,0 C -0.255,0.362 -0.604,0.653 -1.02,0.877 -1.983,1.387 -3.221,1.312 -4.097,0.683 -4.356,0.497 -4.594,0.261 -4.814,-0.028 V 0.944 H -6.638 V -11.39 h 1.964 v 6.722 c 0,1.364 0.185,2.326 0.559,2.866 0.359,0.513 0.823,0.762 1.42,0.762 0.304,0 0.565,-0.088 0.792,-0.269 0.23,-0.188 0.405,-0.45 0.516,-0.804 0.121,-0.369 0.183,-0.985 0.183,-1.821 v -7.456 h 1.955 v 7.528 c 0,1.101 -0.061,1.932 -0.183,2.477 C 0.447,-0.824 0.256,-0.359 0,0"
         style="fill:#231f20;fill-opacity:1;fill-rule:nonzero;stroke:none"
         transform="matrix(1.3333333,0,0,-1.3333333,128.32,38.710667)" />
      <path
         id="path8"
         d="M 0,0 C -0.71,-0.147 -0.947,0 -1.029,0.171 -1.065,0.252 -1.131,0.508 -1.131,1.292 V 7.93 h 1.447 v 2.088 h -1.447 v 4.424 L -3.087,12.797 V 10.018 H -4.133 V 7.93 h 1.046 V 1.405 c 0,-1.209 0.063,-2.003 0.184,-2.423 0.128,-0.447 0.369,-0.805 0.717,-1.07 0.352,-0.253 0.805,-0.387 1.366,-0.387 0.34,0 0.724,0.066 1.143,0.184 L 0.535,-2.218 0.286,0.053 0,0"
         style="fill:#231f20;fill-opacity:1;fill-rule:nonzero;stroke:none"
         transform="matrix(1.3333333,0,0,-1.3333333,135.6,50.801333)" />
      <path
         id="path9"
         d="M 0,0 C 0.616,0 1.121,-0.319 1.532,-0.975 1.796,-1.39 1.964,-2.028 2.04,-2.857 h -4.145 c 0.078,0.849 0.302,1.535 0.678,2.048 C -1.02,-0.264 -0.56,0 0,0 m 4.106,-4.236 c 0,2.037 -0.384,3.625 -1.142,4.721 -0.78,1.125 -1.776,1.691 -2.955,1.691 -1.231,0 -2.256,-0.578 -3.054,-1.719 -0.769,-1.113 -1.169,-2.733 -1.169,-4.819 0,-2.005 0.393,-3.573 1.166,-4.658 0.786,-1.105 1.837,-1.671 3.115,-1.671 1.019,0 1.886,0.344 2.578,1.032 0.677,0.682 1.153,1.687 1.406,2.993 l 0.055,0.269 -1.981,0.342 -0.063,-0.237 c -0.391,-1.496 -1.039,-2.22 -1.985,-2.22 -0.595,0 -1.097,0.291 -1.526,0.899 -0.417,0.578 -0.666,1.449 -0.743,2.578 h 6.283 l 0.015,0.799"
         style="fill:#231f20;fill-opacity:1;fill-rule:nonzero;stroke:none"
         transform="matrix(1.3333333,0,0,-1.3333333,141.58933,39.993333)" />
      <path
         id="path10"
         d="M 0,0 C -0.261,0.362 -0.606,0.653 -1.024,0.877 -1.986,1.387 -3.231,1.312 -4.103,0.683 -4.363,0.497 -4.604,0.261 -4.82,-0.028 V 0.944 H -6.641 V -11.39 h 1.956 v 6.722 c 0,1.364 0.19,2.326 0.564,2.866 0.356,0.513 0.825,0.762 1.421,0.762 0.304,0 0.563,-0.088 0.79,-0.269 0.236,-0.188 0.404,-0.45 0.521,-0.804 0.116,-0.369 0.176,-0.985 0.176,-1.821 v -7.456 h 1.957 v 7.528 c 0,1.101 -0.056,1.932 -0.179,2.477 C 0.442,-0.824 0.247,-0.359 0,0"
         style="fill:#231f20;fill-opacity:1;fill-rule:nonzero;stroke:none"
         transform="matrix(1.3333333,0,0,-1.3333333,157.084,38.710667)" />
      <path
         id="path11"
         d="m 0,0 c 0.616,0 1.124,-0.319 1.528,-0.975 0.264,-0.415 0.435,-1.053 0.51,-1.882 h -4.144 c 0.074,0.849 0.305,1.535 0.677,2.048 C -1.023,-0.264 -0.56,0 0,0 m 4.1,-4.236 c 0,2.037 -0.378,3.625 -1.137,4.721 -0.777,1.125 -1.775,1.691 -2.95,1.691 -1.237,0 -2.264,-0.578 -3.06,-1.719 -0.77,-1.113 -1.164,-2.733 -1.164,-4.819 0,-2.005 0.39,-3.573 1.158,-4.658 0.789,-1.105 1.842,-1.671 3.121,-1.671 1.015,0 1.89,0.344 2.575,1.032 0.681,0.682 1.151,1.687 1.408,2.993 L 4.1,-6.397 2.123,-6.055 2.058,-6.292 c -0.387,-1.496 -1.035,-2.22 -1.977,-2.22 -0.606,0 -1.104,0.291 -1.53,0.899 -0.412,0.578 -0.666,1.449 -0.745,2.578 H 4.091 L 4.1,-4.236"
         style="fill:#231f20;fill-opacity:1;fill-rule:nonzero;stroke:none"
         transform="matrix(1.3333333,0,0,-1.3333333,164.78533,39.993333)" />
      <path
         id="path12"
         d="m 0,0 c 0.437,-0.676 0.656,-1.744 0.656,-3.168 0,-1.465 -0.217,-2.538 -0.64,-3.191 -0.805,-1.249 -2.046,-1.252 -2.845,0.02 -0.414,0.666 -0.628,1.764 -0.628,3.258 0,1.368 0.216,2.405 0.633,3.086 0.402,0.646 0.84,0.96 1.346,0.96 C -0.899,0.965 -0.422,0.651 0,0 M 0.663,2.053 C 0.457,2.307 0.231,2.513 -0.01,2.673 -1.075,3.399 -2.492,3.254 -3.53,2.417 -4.107,1.942 -4.583,1.201 -4.935,0.208 c -0.346,-0.969 -0.517,-2.12 -0.517,-3.412 0,-1.937 0.397,-3.509 1.191,-4.671 0.713,-1.052 1.633,-1.587 2.729,-1.587 0.522,0 1.009,0.148 1.436,0.432 0.222,0.138 0.428,0.329 0.631,0.558 -0.015,-0.864 -0.055,-1.45 -0.123,-1.759 -0.12,-0.623 -0.35,-1.091 -0.676,-1.399 -0.324,-0.299 -0.751,-0.446 -1.321,-0.446 -0.505,0 -0.888,0.123 -1.161,0.395 -0.274,0.257 -0.445,0.681 -0.497,1.246 l -0.024,0.196 -1.899,0.39 -0.005,-0.321 c -0.02,-1.254 0.289,-2.257 0.915,-2.983 0.643,-0.731 1.553,-1.098 2.724,-1.098 0.884,0 1.647,0.241 2.283,0.726 0.631,0.482 1.083,1.141 1.362,1.962 0.269,0.805 0.4,2.108 0.4,3.97 V 2.877 H 0.663 V 2.053"
         style="fill:#231f20;fill-opacity:1;fill-rule:nonzero;stroke:none"
         transform="matrix(1.3333333,0,0,-1.3333333,177.948,41.28)" />
      <path
         id="path13"
         d="M 0,0 -0.123,0.108 C -1.091,0.939 -2.126,1.075 -2.875,0.336 -3.022,0.188 -3.174,-0.023 -3.332,-0.297 v 0.844 h -1.814 v -12.334 h 1.955 v 6.448 c 0,0.834 0.088,1.633 0.261,2.372 0.093,0.386 0.246,0.688 0.462,0.894 0.438,0.427 0.95,0.382 1.521,-0.08 L -0.628,-2.412 0,0"
         style="fill:#231f20;fill-opacity:1;fill-rule:nonzero;stroke:none"
         transform="matrix(1.3333333,0,0,-1.3333333,189.888,38.181333)" />
      <path
         id="path14"
         d="m 0,0 c 0,-1.455 -0.225,-2.547 -0.675,-3.256 -0.435,-0.676 -0.927,-1.005 -1.513,-1.005 -0.625,0 -1.148,0.322 -1.58,0.994 -0.457,0.699 -0.684,1.795 -0.684,3.267 0,1.455 0.227,2.553 0.674,3.251 0.432,0.674 0.927,1 1.513,1 0.628,0 1.145,-0.324 1.583,-0.995 C -0.225,2.556 0,1.46 0,0 m -2.225,6.427 c -1.234,0 -2.257,-0.56 -3.053,-1.666 -0.771,-1.075 -1.168,-2.681 -1.168,-4.768 0,-2.073 0.397,-3.677 1.178,-4.76 0.806,-1.107 1.827,-1.673 3.043,-1.673 1.238,0 2.266,0.566 3.057,1.669 0.769,1.078 1.163,2.721 1.163,4.889 0,2.003 -0.396,3.568 -1.188,4.646 -0.801,1.103 -1.824,1.663 -3.032,1.663"
         style="fill:#231f20;fill-opacity:1;fill-rule:nonzero;stroke:none"
         transform="matrix(1.3333333,0,0,-1.3333333,197.64533,45.662667)" />
      <path
         id="path15"
         d="m 0,0 c -0.193,-0.382 -0.455,-0.656 -0.781,-0.832 -0.337,-0.176 -0.85,-0.266 -1.528,-0.266 h -3.05 v 4.859 h 3.422 c 0.744,0 1.306,-0.206 1.674,-0.62 C 0.108,2.726 0.299,2.13 0.299,1.379 0.299,0.856 0.201,0.392 0,0 m 0.08,-3.799 c -0.158,0.214 -0.354,0.417 -0.6,0.628 0.867,0.266 1.555,0.741 2.051,1.422 0.587,0.807 0.888,1.862 0.888,3.144 0,0.969 -0.171,1.831 -0.517,2.57 C 1.55,4.721 1.09,5.266 0.531,5.598 -0.033,5.93 -0.854,6.09 -1.998,6.09 h -5.427 v -16.826 h 2.066 v 7.238 h 1.522 c 0.462,0 0.828,-0.067 1.076,-0.206 0.249,-0.138 0.517,-0.419 0.801,-0.841 0.294,-0.448 0.746,-1.339 1.339,-2.646 l 1.628,-3.545 h 2.524 l -2.209,4.814 c -0.355,0.776 -0.777,1.49 -1.242,2.123"
         style="fill:#231f20;fill-opacity:1;fill-rule:nonzero;stroke:none"
         transform="matrix(1.3333333,0,0,-1.3333333,217.09333,39.581333)" />
      <path
         id="path16"
         d="M 0,0 C 0.62,0 1.12,-0.319 1.535,-0.975 1.796,-1.39 1.966,-2.028 2.04,-2.857 h -4.144 c 0.076,0.849 0.302,1.535 0.679,2.048 C -1.023,-0.264 -0.553,0 0,0 m 4.107,-4.236 c 0,2.037 -0.384,3.625 -1.141,4.721 -0.783,1.125 -1.778,1.691 -2.954,1.691 -1.228,0 -2.257,-0.578 -3.05,-1.719 -0.779,-1.113 -1.173,-2.733 -1.173,-4.819 0,-2.005 0.391,-3.573 1.163,-4.658 0.789,-1.105 1.834,-1.671 3.118,-1.671 1.017,0 1.882,0.344 2.575,1.032 0.679,0.682 1.156,1.687 1.407,2.993 l 0.055,0.269 -1.984,0.342 -0.061,-0.237 c -0.39,-1.496 -1.037,-2.22 -1.982,-2.22 -0.601,0 -1.103,0.291 -1.531,0.899 -0.412,0.578 -0.663,1.449 -0.738,2.578 h 6.281 l 0.015,0.799"
         style="fill:#231f20;fill-opacity:1;fill-rule:nonzero;stroke:none"
         transform="matrix(1.3333333,0,0,-1.3333333,227.07733,39.993333)" />
      <path
         id="path17"
         d="m 0,0 c 0.414,-0.713 0.63,-1.884 0.63,-3.482 0,-1.385 -0.213,-2.417 -0.628,-3.083 -0.799,-1.279 -1.925,-1.281 -2.749,0.048 -0.432,0.693 -0.655,1.786 -0.655,3.258 0,1.506 0.208,2.616 0.615,3.302 0.382,0.651 0.819,0.965 1.322,0.965 C -0.883,1.008 -0.405,0.679 0,0 M 0.494,2.173 C 0.314,2.379 0.12,2.556 -0.094,2.712 -1.153,3.46 -2.511,3.294 -3.525,2.442 -4.099,1.965 -4.56,1.226 -4.897,0.251 c -0.329,-0.957 -0.497,-2.135 -0.497,-3.502 0,-2 0.381,-3.581 1.129,-4.701 0.783,-1.153 1.724,-1.731 2.81,-1.731 0.522,0 1.02,0.168 1.478,0.497 0.206,0.156 0.401,0.345 0.572,0.565 V -9.419 H 2.464 V 7.407 H 0.494 V 2.173"
         style="fill:#231f20;fill-opacity:1;fill-rule:nonzero;stroke:none"
         transform="matrix(1.3333333,0,0,-1.3333333,240.216,41.337333)" />
      <path
         id="path18"
         d="m 0,0 c -0.194,-1.341 -0.591,-2.344 -1.161,-2.979 -0.56,-0.636 -1.211,-0.943 -1.977,-0.943 -1.051,0 -1.87,0.508 -2.508,1.55 -0.656,1.068 -0.992,2.709 -0.992,4.882 0,1.437 0.168,2.638 0.494,3.571 0.327,0.914 0.754,1.59 1.282,2.01 0.528,0.422 1.13,0.628 1.857,0.628 1.43,0 2.364,-1.04 2.856,-3.186 L -0.088,5.251 1.934,5.917 1.882,6.148 C 1.55,7.744 0.952,8.978 0.11,9.817 c -0.856,0.847 -1.896,1.276 -3.09,1.276 -1.083,0 -2.073,-0.337 -2.952,-1.005 C -6.807,9.43 -7.5,8.442 -8.008,7.161 -8.505,5.892 -8.756,4.327 -8.756,2.51 c 0,-1.836 0.251,-3.462 0.748,-4.816 0.498,-1.375 1.166,-2.397 1.965,-3.028 0.809,-0.636 1.8,-0.967 2.934,-0.967 1.297,0 2.413,0.485 3.315,1.437 0.891,0.932 1.52,2.359 1.867,4.226 L 2.121,-0.412 0.048,0.314 0,0"
         style="fill:#231f20;fill-opacity:1;fill-rule:nonzero;stroke:none"
         transform="matrix(1.3333333,0,0,-1.3333333,262.17867,45.866667)" />
      <path
         id="path19"
         d="M 0,0 -0.12,0.108 C -1.088,0.939 -2.128,1.075 -2.874,0.336 -3.017,0.188 -3.17,-0.023 -3.326,-0.297 V 0.547 H -5.15 v -12.334 h 1.96 v 6.448 c 0,0.834 0.091,1.633 0.261,2.372 0.095,0.386 0.248,0.688 0.462,0.894 0.435,0.427 0.948,0.382 1.518,-0.08 L -0.628,-2.412 0,0"
         style="fill:#231f20;fill-opacity:1;fill-rule:nonzero;stroke:none"
         transform="matrix(1.3333333,0,0,-1.3333333,272.93467,38.181333)" />
      <path
         id="path20"
         d="m 0,0 c 0,-1.455 -0.234,-2.547 -0.686,-3.256 -0.427,-0.676 -0.922,-1.005 -1.507,-1.005 -0.626,0 -1.143,0.322 -1.578,0.994 -0.452,0.699 -0.684,1.795 -0.684,3.267 0,1.455 0.232,2.553 0.674,3.251 0.432,0.674 0.924,1 1.515,1 0.626,0 1.14,-0.324 1.575,-0.995 C -0.234,2.556 0,1.46 0,0 m -2.226,6.427 c -1.234,0 -2.259,-0.56 -3.055,-1.666 -0.776,-1.075 -1.171,-2.681 -1.171,-4.768 0,-2.073 0.395,-3.677 1.183,-4.76 0.802,-1.107 1.824,-1.673 3.043,-1.673 1.228,0 2.259,0.566 3.048,1.669 0.779,1.078 1.171,2.721 1.171,4.889 0,2.003 -0.403,3.568 -1.184,4.646 -0.807,1.103 -1.831,1.663 -3.035,1.663"
         style="fill:#231f20;fill-opacity:1;fill-rule:nonzero;stroke:none"
         transform="matrix(1.3333333,0,0,-1.3333333,280.69733,45.662667)" />
      <path
         id="path21"
         d="m 0,0 c -0.369,0.272 -1.144,0.623 -2.364,1.066 -1.085,0.412 -1.387,0.59 -1.473,0.66 -0.231,0.199 -0.347,0.47 -0.347,0.829 0,0.37 0.123,0.664 0.375,0.895 0.254,0.236 0.656,0.354 1.206,0.354 0.952,0 1.45,-0.54 1.566,-1.693 L -1.002,1.822 0.917,2.191 0.887,2.438 C 0.781,3.294 0.608,3.942 0.334,4.415 0.053,4.892 -0.344,5.279 -0.862,5.558 -1.374,5.839 -1.973,5.98 -2.646,5.98 -3.711,5.98 -4.563,5.633 -5.173,4.947 -5.781,4.269 -6.088,3.382 -6.088,2.314 c 0,-0.621 0.11,-1.183 0.337,-1.678 0.221,-0.498 0.54,-0.9 0.955,-1.201 0.399,-0.291 1.147,-0.633 2.299,-1.04 0.962,-0.329 1.268,-0.525 1.364,-0.616 0.23,-0.206 0.352,-0.497 0.352,-0.892 0,-0.467 -0.146,-0.849 -0.435,-1.151 -0.294,-0.298 -0.701,-0.444 -1.244,-0.444 -0.55,0 -0.975,0.168 -1.296,0.52 -0.334,0.357 -0.538,0.935 -0.618,1.706 l -0.035,0.297 -1.948,-0.425 0.026,-0.246 c 0.344,-2.676 1.615,-4.031 3.783,-4.031 1.153,0 2.083,0.382 2.757,1.136 0.668,0.741 1.005,1.724 1.005,2.917 0,0.636 -0.109,1.201 -0.317,1.681 C 0.688,-0.673 0.385,-0.286 0,0"
         style="fill:#231f20;fill-opacity:1;fill-rule:nonzero;stroke:none"
         transform="matrix(1.3333333,0,0,-1.3333333,292.12133,45.065333)" />
      <path
         id="path22"
         d="M 0,0 C -0.208,0.48 -0.517,0.867 -0.899,1.153 -1.27,1.425 -2.04,1.776 -3.26,2.219 -4.346,2.631 -4.65,2.809 -4.733,2.879 -4.964,3.078 -5.08,3.35 -5.08,3.708 c 0,0.37 0.121,0.664 0.374,0.895 0.254,0.234 0.657,0.355 1.204,0.355 0.955,0 1.453,-0.538 1.568,-1.694 L -1.899,2.975 0.018,3.344 -0.009,3.591 C -0.115,4.447 -0.294,5.096 -0.564,5.568 -0.843,6.045 -1.241,6.432 -1.76,6.711 -2.27,6.993 -2.874,7.133 -3.542,7.133 -4.61,7.133 -5.462,6.787 -6.075,6.101 -6.677,5.422 -6.984,4.535 -6.984,3.47 c 0,-0.62 0.11,-1.186 0.332,-1.678 0.226,-0.5 0.545,-0.902 0.954,-1.204 0.402,-0.291 1.153,-0.633 2.305,-1.04 0.962,-0.329 1.265,-0.528 1.361,-0.613 0.234,-0.208 0.352,-0.5 0.352,-0.894 0,-0.471 -0.143,-0.85 -0.435,-1.151 -0.291,-0.299 -0.698,-0.445 -1.251,-0.445 -0.54,0 -0.97,0.168 -1.287,0.518 -0.334,0.359 -0.542,0.939 -0.623,1.708 l -0.029,0.297 -1.953,-0.427 0.03,-0.244 c 0.345,-2.676 1.616,-4.03 3.781,-4.03 1.156,0 2.086,0.382 2.754,1.135 0.669,0.742 1.008,1.724 1.008,2.917 C 0.315,-1.043 0.209,-0.479 0,0"
         style="fill:#231f20;fill-opacity:1;fill-rule:nonzero;stroke:none"
         transform="matrix(1.3333333,0,0,-1.3333333,303.70133,46.604)" />
    </g>
  </g>
</svg>
