<svg id="Layer_1" data-name="Layer 1" xmlns="http://www.w3.org/2000/svg" viewBox="0 0 323.11 344.25"><defs><style>.cls-1{fill:#e40520;}.cls-2{fill:#12100b;}</style></defs><polygon class="cls-1" points="133.09 200.62 66.65 200.62 66.65 143.68 133.09 143.68 133.08 143.64 133.08 77.21 190.03 77.21 190.03 143.64 190.02 143.67 256.46 143.67 256.46 200.62 190.02 200.62 190.03 200.6 190.03 267.04 133.08 267.04 133.08 200.6 133.09 200.62"/><path class="cls-2" d="M51.89,191.2c-1.22-.32-5.08-.95-6.82,3.06-2,4.54,1.81,7.9,6,9.74s9.27,2.29,11.23-2.25c1.42-3.26-.32-5.53-3-7.38l4.13-9.51c6.34,2.75,10.84,10.83,6.85,20-4.42,10.17-14.1,12.83-23.39,8.8-9.91-4.31-13.76-13.41-9.55-23.09C41.14,182,47.74,179.2,56,181.78Z" transform="translate(-33.64 -87.23)"/><path class="cls-2" d="M50.05,167.21l12.27-15.94c3.66-4.75,9.45-6.84,14.58-2.89,2.82,2.17,4.79,5.75,3.68,9.31,2.63-1.6,6.22-1.08,9.84,1.22,1.42.91,4.68,3.36,6.52,3.57l-6.44,8.37a25.15,25.15,0,0,1-4.71-2.54c-2.76-1.76-5.64-3.61-8.18-.31l-3.43,4.46,9.47,7.29-6.44,8.36Zm18.31.77,3.37-4.38c1.2-1.56,2.57-3.89.14-5.77-1.71-1.31-3.43-1.12-5.89,2.07l-3,3.92Z" transform="translate(-33.64 -87.23)"/><path class="cls-2" d="M89.3,123.89c8.21-6.41,18.31-4.79,24.74,3.46s5.56,18.44-2.66,24.85-18.3,4.78-24.74-3.47S81.09,130.29,89.3,123.89Zm16.83,21.57c2.12-1.65,4.28-5.59-.41-11.61s-9-4.88-11.16-3.23-4.28,5.59.41,11.61S104,147.11,106.13,145.46Z" transform="translate(-33.64 -87.23)"/><path class="cls-2" d="M111.91,109.77l9.37-4.87,15.79,30.41-9.37,4.87Z" transform="translate(-33.64 -87.23)"/><path class="cls-2" d="M143.69,112.85l-15.56-11.92,11.81-3.71,7.74,7.34,2.07-10.41,11.17-3.51-5.66,18.68L172.37,123l-12.14,3.81-8.65-8-2.7,11.56L137.33,134Z" transform="translate(-33.64 -87.23)"/><path class="cls-2" d="M170.85,107.29l14.92-1.74.91,7.82-14.92,1.74Z" transform="translate(-33.64 -87.23)"/><path class="cls-2" d="M193.69,87.23l20.06,1.46c6,.44,10.91,4.13,10.44,10.59-.26,3.54-2.16,7.16-5.75,8.19,2.79,1.31,4.33,4.6,4.4,8.89,0,1.69-.23,5.76.61,7.41L212.92,123a24.53,24.53,0,0,1-.47-5.33c0-3.28-.09-6.7-4.26-7l-5.6-.41-.87,11.92-10.53-.77Zm9.44,15.7,5.5.41c2,.14,4.67,0,4.9-3.06.16-2.16-.95-3.49-5-3.78l-4.93-.37Z" transform="translate(-33.64 -87.23)"/><path class="cls-2" d="M251.4,96.09c9.88,3.31,14.1,12.62,10.78,22.54s-12.3,14.82-22.18,11.51-14.11-12.62-10.78-22.54S241.52,92.78,251.4,96.09Zm-8.69,26c2.55.85,7,.48,9.45-6.76s-.93-10.23-3.48-11.09-7-.48-9.45,6.76S240.16,121.18,242.71,122Z" transform="translate(-33.64 -87.23)"/><path class="cls-2" d="M292.22,142.09c-5.19,8-12,9-20.75,3.26S260.85,133,266,125l11.48-17.61,8.85,5.77-10.2,15.64c-1.91,2.93-4.3,6.59,0,9.4s6.56-.94,8.48-3.87l10.19-15.64,8.85,5.77Z" transform="translate(-33.64 -87.23)"/><path class="cls-2" d="M307.13,171.53a12,12,0,0,1-9.76-4.27c-6.84-7.48-5.24-17.39,1.95-24,9.64-8.81,19.69-5.57,24.9.13,5.89,6.45,6.11,13.73,1.19,20.31l-6.83-7.48a5,5,0,0,0-.21-6.57c-4.89-5.34-10.36,0-12.1,1.57-2.37,2.17-5.64,6.91-1.3,11.66,1.65,1.81,4.25,2.81,6.49,1.48L308.32,161l5.42-4.95,9.45,10.34-13.92,12.73-4.5-4.93Z" transform="translate(-33.64 -87.23)"/><path class="cls-2" d="M341.14,165.6l13.58,24.91-7.72,4.2-8.52-15.64-3.75,2.05,7.74,14.2-7.17,3.91L327.56,185l-3.75,2,8.77,16.11-7.71,4.2L311.05,182Z" transform="translate(-33.64 -87.23)"/><path class="cls-2" d="M58.05,331.81c1-.73,4-3.29,2-7.19-2.22-4.42-7.22-3.68-11.34-1.61s-7.69,5.64-5.47,10.05c1.59,3.18,4.45,3.3,7.6,2.41l4.65,9.27c-6.17,3.1-15.26,1.38-19.76-7.58-5-9.91-.81-19,8.24-23.59,9.65-4.84,19.1-2,23.84,7.47,4.18,8.43,2.09,15.28-5.18,19.95Z" transform="translate(-33.64 -87.23)"/><path class="cls-2" d="M85.62,347.71c6.74,8,5.52,18.1-2.46,24.86S65,378.88,58.24,370.93s-5.53-18.09,2.45-24.86S78.88,339.77,85.62,347.71Zm-20.87,17.7c1.74,2,5.76,4,11.59-.89s4.5-9.23,2.76-11.28-5.76-4.05-11.58.88S63,363.36,64.75,365.41Zm25-26.35,5.09,6-1.67,9.09-4.56-5.38,1-4.45-4.52.31-4.56-5.38Z" transform="translate(-33.64 -87.23)"/><path class="cls-2" d="M98.19,373.51l-7.66-5.78,5.29-7,23.75,17.92-5.29,7-7.66-5.78L91.27,400.22l-8.43-6.36Z" transform="translate(-33.64 -87.23)"/><path class="cls-2" d="M120,378.8l25.67,12.08-3.74,7.95-16.12-7.59L124,395.11,138.61,402l-3.47,7.38-14.64-6.89-1.82,3.87,16.59,7.81-3.73,7.94-26.15-12.3Z" transform="translate(-33.64 -87.23)"/><path class="cls-2" d="M160.93,395.52l17.22,2c11.35,1.28,14.41,10.13,13.44,18.72-1.19,10.44-7.47,16.45-19.35,15.1l-15.17-1.72ZM168.56,422l4.1.47c6.53.74,8.09-4.45,8.45-7.64.24-2.15.25-8.19-7.33-9.05l-3.34-.38Z" transform="translate(-33.64 -87.23)"/><path class="cls-2" d="M205.6,405.55c.3,5.08-.61,9.27-8.21,10.82l-.25-4.17c2.81-.5,3.77-2.24,3.67-4.73l-3.93.23-.56-9.49,8.82-.52Z" transform="translate(-33.64 -87.23)"/><path class="cls-2" d="M210,397.2l10.42-1.69,5.51,33.83L215.46,431Z" transform="translate(-33.64 -87.23)"/><path class="cls-2" d="M252.59,422l-11.23,3.67L221,396.23l10.13-3.3,11.78,18,.09,0-1.19-21.48,10.31-3.36Z" transform="translate(-33.64 -87.23)"/><path class="cls-2" d="M265.1,377.23c8.91-5.38,18.74-2.56,24.15,6.4s3.31,19-5.6,24.34-18.75,2.57-24.15-6.39S256.18,382.61,265.1,377.23Zm14.13,23.43c2.3-1.39,4.92-5,1-11.58s-8.4-5.92-10.7-4.53-4.92,5-1,11.57S276.93,402.05,279.23,400.66Z" transform="translate(-33.64 -87.23)"/><path class="cls-2" d="M281.86,366.52l7.92-7,22.67,25.71-7.92,7Z" transform="translate(-33.64 -87.23)"/><path class="cls-2" d="M292.93,357.44l12.62-15.67c3.76-4.67,9.59-6.63,14.64-2.56,2.76,2.22,4.66,5.84,3.47,9.39,2.67-1.56,6.25-1,9.81,1.43,1.4.94,4.61,3.46,6.45,3.71L333.29,362a24.24,24.24,0,0,1-4.65-2.64c-2.72-1.82-5.56-3.73-8.18-.48l-3.52,4.37,9.31,7.5-6.62,8.22Zm18.29,1.17,3.46-4.3c1.24-1.53,2.66-3.84.27-5.76-1.68-1.36-3.41-1.21-5.94,1.93l-3.1,3.85Z" transform="translate(-33.64 -87.23)"/><path class="cls-2" d="M313.28,331.5,325.69,306l7.9,3.84-7.79,16,3.84,1.87,7.08-14.55,7.34,3.57L337,331.29l3.84,1.87,8-16.49,7.9,3.84-12.64,26Z" transform="translate(-33.64 -87.23)"/></svg>