<?xml version="1.0" encoding="UTF-8" standalone="no"?>
<!-- Created with Inkscape (http://www.inkscape.org/) -->

<svg
   version="1.1"
   id="svg1"
   width="398.08133"
   height="524.5"
   viewBox="0 0 398.08133 524.5"
   sodipodi:docname="Barbados RC.svg"
   inkscape:version="1.3.2 (091e20e, 2023-11-25, custom)"
   xmlns:inkscape="http://www.inkscape.org/namespaces/inkscape"
   xmlns:sodipodi="http://sodipodi.sourceforge.net/DTD/sodipodi-0.dtd"
   xmlns="http://www.w3.org/2000/svg"
   xmlns:svg="http://www.w3.org/2000/svg">
  <defs
     id="defs1">
    <clipPath
       clipPathUnits="userSpaceOnUse"
       id="clipPath19">
      <path
         d="M 0,393.375 H 298.56 V 0.06 L 0,0.06 Z"
         transform="translate(-289.53601,-71.834004)"
         id="path19" />
    </clipPath>
    <clipPath
       clipPathUnits="userSpaceOnUse"
       id="clipPath21">
      <path
         d="M 0,393.375 H 298.56 V 0.06 L 0,0.06 Z"
         transform="translate(-58.561001,-20.834003)"
         id="path21" />
    </clipPath>
    <clipPath
       clipPathUnits="userSpaceOnUse"
       id="clipPath23">
      <path
         d="M 0,393.375 H 298.56 V 0.06 L 0,0.06 Z"
         transform="translate(-90.481,-6.3369977)"
         id="path23" />
    </clipPath>
    <clipPath
       clipPathUnits="userSpaceOnUse"
       id="clipPath25">
      <path
         d="M 0,393.375 H 298.56 V 0.06 L 0,0.06 Z"
         transform="translate(-130.705,-36.195001)"
         id="path25" />
    </clipPath>
  </defs>
  <sodipodi:namedview
     id="namedview1"
     pagecolor="#ffffff"
     bordercolor="#666666"
     borderopacity="1.0"
     inkscape:showpageshadow="2"
     inkscape:pageopacity="0.0"
     inkscape:pagecheckerboard="0"
     inkscape:deskcolor="#d1d1d1"
     inkscape:export-bgcolor="#ffffffff"
     inkscape:zoom="1.5653003"
     inkscape:cx="199.00335"
     inkscape:cy="262.25"
     inkscape:window-width="1920"
     inkscape:window-height="1017"
     inkscape:window-x="-8"
     inkscape:window-y="-8"
     inkscape:window-maximized="1"
     inkscape:current-layer="g1">
    <inkscape:page
       x="0"
       y="0"
       inkscape:label="1"
       id="page1"
       width="398.08133"
       height="524.5"
       margin="0"
       bleed="0"
       inkscape:export-filename="Barbados RC.png"
       inkscape:export-xdpi="300"
       inkscape:export-ydpi="300" />
  </sodipodi:namedview>
  <g
     id="g1"
     inkscape:groupmode="layer"
     inkscape:label="1">
    <g
       id="group-MC1">
      <path
         id="path2"
         d="m 0,0 h -79.589 v 79.589 h -72.295 V 0 h -79.588 v -72.295 h 79.588 v -79.589 h 72.295 v 79.589 H 0 L 0,0"
         style="fill:#ed1c24;fill-opacity:1;fill-rule:nonzero;stroke:none"
         transform="matrix(1.3333333,0,0,-1.3333333,353.12933,106.11867)" />
      <path
         id="path3"
         d="m 0,0 h 6.625 c 3.072,0 6.528,0.624 6.528,4.609 0,4.175 -3.648,4.704 -7.488,4.704 L 0,9.313 Z m 0,14.305 h 6.481 c 3.696,0 5.472,1.488 5.472,4.224 0,3.313 -2.784,4.225 -5.712,4.225 H 0 Z m -7.8725,9.601 c 0,3.504 1.8245,4.609 4.6085,4.609 H 7.201 c 5.76,0 12.625,-1.296 12.625,-8.93 0,-2.928 -1.584,-5.712 -4.849,-7.008 v -0.096 c 3.649,-0.96 6.049,-3.552 6.049,-8.305 0,-7.248 -5.905,-10.225 -12.721,-10.225 H -3.264 c -2.784,0 -4.6085,1.105 -4.6085,4.609 v 25.346"
         style="fill:#231f20;fill-opacity:1;fill-rule:nonzero;stroke:none"
         transform="matrix(1.3333333,0,0,-1.3333333,22.849333,379.34667)" />
      <path
         id="path4"
         d="m 0,0 h -0.096 l -4.657,-13.873 h 9.217 z m -4.753,6.144 c 0.672,1.777 1.921,2.401 3.841,2.401 H 0.96 c 1.776,0 3.36,-0.433 4.225,-2.881 l 9.504,-26.45 c 0.288,-0.768 0.768,-2.16 0.768,-3.025 0,-1.92 -1.68,-3.456 -3.696,-3.456 -1.728,0 -2.976,0.624 -3.553,2.16 l -2.016,5.761 H -6.481 l -2.064,-5.761 c -0.528,-1.536 -1.632,-2.16 -3.504,-2.16 -2.16,0 -3.648,1.344 -3.648,3.456 0,0.865 0.48,2.257 0.768,3.025 l 10.176,26.93"
         style="fill:#231f20;fill-opacity:1;fill-rule:nonzero;stroke:none"
         transform="matrix(1.3333333,0,0,-1.3333333,76.801333,351.888)" />
      <path
         id="path5"
         d="m 0,0 h 7.873 c 2.976,0 5.953,0.769 5.953,4.658 0,3.696 -2.257,4.656 -5.713,4.656 H 0 Z m -7.872,10.754 c 0,3.504 1.824,4.609 4.608,4.609 H 9.841 c 9.36,0 11.857,-5.137 11.857,-9.602 0,-3.744 -2.208,-7.44 -5.952,-8.304 v -0.096 c 4.032,-0.576 4.752,-3.505 4.752,-7.009 0,-3.984 1.056,-5.473 1.056,-7.104 0,-1.825 -1.872,-3.073 -3.696,-3.073 -4.321,0 -4.657,4.177 -4.657,5.569 0,6.048 -1.104,8.497 -5.424,8.497 H 0 v -10.129 c 0,-2.353 -1.536,-3.937 -3.936,-3.937 -2.4,0 -3.936,1.584 -3.936,3.937 v 26.642"
         style="fill:#231f20;fill-opacity:1;fill-rule:nonzero;stroke:none"
         transform="matrix(1.3333333,0,0,-1.3333333,114.94267,361.81067)" />
      <path
         id="path6"
         d="m 0,0 h 6.624 c 3.072,0 6.528,0.624 6.528,4.609 0,4.175 -3.648,4.704 -7.488,4.704 L 0,9.313 Z m 0,14.305 h 6.481 c 3.696,0 5.471,1.488 5.471,4.224 0,3.313 -2.784,4.225 -5.712,4.225 H 0 Z m -7.873,9.601 c 0,3.504 1.824,4.609 4.608,4.609 H 7.2 c 5.761,0 12.625,-1.296 12.625,-8.93 0,-2.928 -1.584,-5.712 -4.848,-7.008 v -0.096 c 3.648,-0.96 6.048,-3.552 6.048,-8.305 0,-7.248 -5.904,-10.225 -12.72,-10.225 h -11.57 c -2.784,0 -4.608,1.105 -4.608,4.609 v 25.346"
         style="fill:#231f20;fill-opacity:1;fill-rule:nonzero;stroke:none"
         transform="matrix(1.3333333,0,0,-1.3333333,163.968,379.34667)" />
      <path
         id="path7"
         d="m 0,0 h -0.096 l -4.656,-13.873 h 9.216 z m -4.752,6.144 c 0.671,1.777 1.919,2.401 3.84,2.401 H 0.96 c 1.776,0 3.361,-0.433 4.224,-2.881 l 9.505,-26.45 c 0.288,-0.768 0.768,-2.16 0.768,-3.025 0,-1.92 -1.68,-3.456 -3.696,-3.456 -1.728,0 -2.976,0.624 -3.553,2.16 l -2.015,5.761 H -6.481 l -2.063,-5.761 c -0.529,-1.536 -1.633,-2.16 -3.505,-2.16 -2.161,0 -3.649,1.344 -3.649,3.456 0,0.865 0.481,2.257 0.769,3.025 l 10.177,26.93"
         style="fill:#231f20;fill-opacity:1;fill-rule:nonzero;stroke:none"
         transform="matrix(1.3333333,0,0,-1.3333333,217.92,351.888)" />
      <path
         id="path8"
         d="m 0,0 h 6.624 c 6.289,0 8.305,5.616 8.305,10.945 0,6.816 -2.592,10.945 -8.353,10.945 H 0 Z m -7.873,23.618 c 0,3.504 1.824,4.609 4.608,4.609 h 9.601 c 8.593,0 16.466,-3.744 16.466,-17.282 C 22.802,0 16.705,-6.337 6.192,-6.337 h -9.457 c -2.784,0 -4.608,1.105 -4.608,4.609 v 25.346"
         style="fill:#231f20;fill-opacity:1;fill-rule:nonzero;stroke:none"
         transform="matrix(1.3333333,0,0,-1.3333333,256.064,378.96267)" />
      <path
         id="path9"
         d="m 0,0 c 7.153,0 9.601,5.568 9.601,12.193 0,6.624 -3.168,11.329 -9.601,11.329 -6.432,0 -9.601,-4.705 -9.601,-11.329 C -9.601,5.568 -7.392,0 0,0 Z m 0,29.858 c 11.329,0 17.474,-7.536 17.474,-17.665 0,-9.745 -5.665,-18.53 -17.474,-18.53 -12.386,0 -17.473,8.065 -17.473,18.53 0,10.129 6.144,17.665 17.473,17.665"
         style="fill:#231f20;fill-opacity:1;fill-rule:nonzero;stroke:none"
         transform="matrix(1.3333333,0,0,-1.3333333,316.99067,380.05067)" />
      <path
         id="path10"
         d="m 0,0 c 7.201,-1.632 9.025,-5.904 9.025,-9.937 0,-6.241 -4.704,-10.897 -14.209,-10.897 -9.985,0 -14.449,4.993 -14.449,8.737 0,1.92 1.391,3.264 3.312,3.264 4.273,0 3.168,-6.24 11.137,-6.24 4.08,0 6.337,2.256 6.337,4.56 0,1.392 -0.673,2.928 -3.361,3.601 l -8.88,2.256 c -7.154,1.824 -8.45,5.76 -8.45,9.457 0,7.68 7.105,10.56 13.778,10.56 6.144,0 13.393,-3.456 13.393,-8.064 0,-1.969 -1.68,-3.12 -3.6,-3.12 -3.649,0 -2.977,5.135 -10.322,5.135 -3.648,0 -5.664,-1.679 -5.664,-4.08 0,-2.4 2.88,-3.168 5.376,-3.744 L 0,0"
         style="fill:#231f20;fill-opacity:1;fill-rule:nonzero;stroke:none"
         transform="matrix(1.3333333,0,0,-1.3333333,373.69467,360.72133)" />
      <path
         id="path11"
         d="m 0,0 h 7.873 c 2.976,0 5.952,0.769 5.952,4.658 0,3.696 -2.256,4.656 -5.712,4.656 H 0 Z m -7.8725,10.754 c 0,3.504 1.8242,4.608 4.6084,4.608 H 9.841 c 9.361,0 11.857,-5.136 11.857,-9.601 0,-3.744 -2.208,-7.44 -5.953,-8.304 v -0.096 c 4.033,-0.576 4.753,-3.505 4.753,-7.009 0,-3.984 1.056,-5.473 1.056,-7.104 0,-1.825 -1.872,-3.073 -3.697,-3.073 -4.32,0 -4.656,4.177 -4.656,5.569 0,6.048 -1.104,8.497 -5.424,8.497 H 0 v -10.129 c 0,-2.353 -1.5361,-3.937 -3.9365,-3.937 -2.3999,0 -3.936,1.584 -3.936,3.937 v 26.642"
         style="fill:#231f20;fill-opacity:1;fill-rule:nonzero;stroke:none"
         transform="matrix(1.3333333,0,0,-1.3333333,10.496667,429.81067)" />
      <path
         id="path12"
         d="M 0,0 C 0,3.504 1.824,4.608 4.608,4.608 H 23.09 c 2.304,0 3.984,-0.672 3.984,-3.168 0,-2.496 -1.68,-3.168 -3.984,-3.168 H 7.872 v -7.488 h 13.346 c 2.064,0 3.696,-0.577 3.696,-3.025 0,-2.448 -1.632,-3.024 -3.696,-3.024 H 7.872 v -8.353 h 15.602 c 2.304,0 3.985,-0.673 3.985,-3.169 0,-2.496 -1.681,-3.168 -3.985,-3.168 H 4.608 C 1.824,-29.955 0,-28.85 0,-25.346 V 0"
         style="fill:#231f20;fill-opacity:1;fill-rule:nonzero;stroke:none"
         transform="matrix(1.3333333,0,0,-1.3333333,49.28,415.472)" />
      <path
         id="path13"
         d="m 0,0 h 6.625 c 6.288,0 8.304,5.616 8.304,10.945 0,6.816 -2.592,10.945 -8.352,10.945 H 0 Z m -7.872,23.618 c 0,3.504 1.824,4.608 4.608,4.608 h 9.6 c 8.593,0 16.466,-3.744 16.466,-17.281 C 22.802,0 16.706,-6.337 6.192,-6.337 h -9.456 c -2.784,0 -4.608,1.105 -4.608,4.609 v 25.346"
         style="fill:#231f20;fill-opacity:1;fill-rule:nonzero;stroke:none"
         transform="matrix(1.3333333,0,0,-1.3333333,104.96,446.96267)" />
      <path
         id="path14"
         d="m 0,0 c 9.025,0 13.969,-5.664 13.969,-9.024 0,-2.208 -1.2,-3.553 -3.552,-3.553 -4.561,0 -3.217,6.241 -10.417,6.241 -4.945,0 -9.026,-4.272 -9.026,-11.761 0,-6.289 2.497,-11.761 9.314,-11.761 6.192,0 6.048,6.625 9.841,6.625 1.92,0 3.84,-1.105 3.84,-3.025 0,-4.993 -6.048,-9.937 -13.681,-9.937 -10.801,0 -17.186,6.193 -17.186,18.098 C -16.898,-8.352 -11.137,0 0,0"
         style="fill:#231f20;fill-opacity:1;fill-rule:nonzero;stroke:none"
         transform="matrix(1.3333333,0,0,-1.3333333,186.88133,408.24)" />
      <path
         id="path15"
         d="m 0,0 h 7.873 c 2.976,0 5.953,0.769 5.953,4.658 0,3.696 -2.257,4.656 -5.713,4.656 H 0 Z m -7.872,10.754 c 0,3.504 1.824,4.608 4.608,4.608 H 9.842 c 9.36,0 11.856,-5.136 11.856,-9.601 0,-3.744 -2.208,-7.44 -5.952,-8.304 v -0.096 c 4.032,-0.576 4.752,-3.505 4.752,-7.009 0,-3.984 1.056,-5.473 1.056,-7.104 0,-1.825 -1.872,-3.073 -3.696,-3.073 -4.32,0 -4.657,4.177 -4.657,5.569 0,6.048 -1.104,8.497 -5.424,8.497 H 0 v -10.129 c 0,-2.353 -1.535,-3.937 -3.936,-3.937 -2.4,0 -3.936,1.584 -3.936,3.937 v 26.642"
         style="fill:#231f20;fill-opacity:1;fill-rule:nonzero;stroke:none"
         transform="matrix(1.3333333,0,0,-1.3333333,224.12667,429.81067)" />
      <path
         id="path16"
         d="m 0,0 c 7.152,0 9.6,5.568 9.6,12.193 0,6.624 -3.168,11.329 -9.6,11.329 -6.433,0 -9.602,-4.705 -9.602,-11.329 C -9.602,5.568 -7.393,0 0,0 Z m 0,29.858 c 11.329,0 17.473,-7.536 17.473,-17.665 0,-9.745 -5.665,-18.53 -17.473,-18.53 -12.386,0 -17.474,8.065 -17.474,18.53 0,10.129 6.145,17.665 17.474,17.665"
         style="fill:#231f20;fill-opacity:1;fill-rule:nonzero;stroke:none"
         transform="matrix(1.3333333,0,0,-1.3333333,283.90533,448.05067)" />
      <path
         id="path17"
         d="m 0,0 c 7.2,-1.632 9.024,-5.904 9.024,-9.937 0,-6.241 -4.704,-10.897 -14.209,-10.897 -9.985,0 -14.449,4.993 -14.449,8.737 0,1.92 1.392,3.264 3.313,3.264 4.272,0 3.168,-6.24 11.136,-6.24 4.081,0 6.337,2.256 6.337,4.56 0,1.392 -0.672,2.928 -3.36,3.601 l -8.881,2.256 c -7.153,1.824 -8.449,5.76 -8.449,9.457 0,7.68 7.104,10.56 13.777,10.56 6.145,0 13.394,-3.456 13.394,-8.064 0,-1.969 -1.681,-3.12 -3.601,-3.12 -3.648,0 -2.976,5.135 -10.321,5.135 -3.648,0 -5.664,-1.679 -5.664,-4.08 0,-2.4 2.88,-3.168 5.376,-3.744 L 0,0"
         style="fill:#231f20;fill-opacity:1;fill-rule:nonzero;stroke:none"
         transform="matrix(1.3333333,0,0,-1.3333333,340.608,428.72133)" />
      <path
         id="path18"
         d="m 0,0 c 7.2,-1.632 9.025,-5.904 9.025,-9.937 0,-6.241 -4.705,-10.897 -14.209,-10.897 -9.986,0 -14.45,4.993 -14.45,8.737 0,1.92 1.392,3.264 3.313,3.264 4.272,0 3.168,-6.24 11.137,-6.24 4.08,0 6.336,2.256 6.336,4.56 0,1.392 -0.672,2.928 -3.36,3.601 l -8.881,2.256 c -7.153,1.824 -8.449,5.76 -8.449,9.457 0,7.68 7.105,10.56 13.777,10.56 6.145,0 13.394,-3.456 13.394,-8.064 0,-1.969 -1.681,-3.12 -3.601,-3.12 -3.648,0 -2.976,5.135 -10.321,5.135 -3.648,0 -5.664,-1.679 -5.664,-4.08 0,-2.4 2.88,-3.168 5.376,-3.744 L 0,0"
         style="fill:#231f20;fill-opacity:1;fill-rule:nonzero;stroke:none"
         transform="matrix(1.3333333,0,0,-1.3333333,386.048,428.72133)"
         clip-path="url(#clipPath19)" />
      <path
         id="path20"
         d="m 0,0 c 7.2,-1.632 9.024,-5.904 9.024,-9.937 0,-6.241 -4.704,-10.897 -14.208,-10.897 -9.985,0 -14.45,4.993 -14.45,8.737 0,1.92 1.392,3.264 3.312,3.264 4.273,0 3.169,-6.24 11.138,-6.24 4.08,0 6.336,2.256 6.336,4.56 0,1.392 -0.672,2.928 -3.36,3.601 l -8.881,2.256 c -7.153,1.824 -8.449,5.76 -8.449,9.457 0,7.68 7.105,10.56 13.777,10.56 6.145,0 13.393,-3.456 13.393,-8.064 0,-1.969 -1.68,-3.12 -3.6,-3.12 -3.648,0 -2.976,5.135 -10.32,5.135 -3.649,0 -5.665,-1.679 -5.665,-4.08 0,-2.4 2.88,-3.168 5.376,-3.744 L 0,0"
         style="fill:#231f20;fill-opacity:1;fill-rule:nonzero;stroke:none"
         transform="matrix(1.3333333,0,0,-1.3333333,78.081333,496.72133)"
         clip-path="url(#clipPath21)" />
      <path
         id="path22"
         d="m 0,0 c 7.152,0 9.601,5.568 9.601,12.193 0,6.624 -3.169,11.329 -9.601,11.329 -6.433,0 -9.601,-4.705 -9.601,-11.329 C -9.601,5.568 -7.393,0 0,0 Z m 0,29.858 c 11.329,0 17.473,-7.536 17.473,-17.665 0,-9.745 -5.664,-18.53 -17.473,-18.53 -12.385,0 -17.474,8.065 -17.474,18.53 0,10.129 6.145,17.665 17.474,17.665"
         style="fill:#231f20;fill-opacity:1;fill-rule:nonzero;stroke:none"
         transform="matrix(1.3333333,0,0,-1.3333333,120.64133,516.05067)"
         clip-path="url(#clipPath23)" />
      <path
         id="path24"
         d="m 0,0 c 9.024,0 13.968,-5.664 13.968,-9.024 0,-2.208 -1.2,-3.553 -3.551,-3.553 -4.561,0 -3.217,6.241 -10.417,6.241 -4.945,0 -9.025,-4.272 -9.025,-11.761 0,-6.289 2.496,-11.761 9.313,-11.761 6.192,0 6.048,6.625 9.84,6.625 1.92,0 3.84,-1.105 3.84,-3.025 0,-4.993 -6.048,-9.937 -13.68,-9.937 -10.802,0 -17.186,6.193 -17.186,18.098 C -16.898,-8.352 -11.138,0 0,0"
         style="fill:#231f20;fill-opacity:1;fill-rule:nonzero;stroke:none"
         transform="matrix(1.3333333,0,0,-1.3333333,174.27333,476.24)"
         clip-path="url(#clipPath25)" />
      <path
         id="path26"
         d="m 0,0 c 0,2.352 1.536,3.937 3.936,3.937 2.4,0 3.937,-1.585 3.937,-3.937 v -27.938 c 0,-2.353 -1.537,-3.937 -3.937,-3.937 -2.4,0 -3.936,1.584 -3.936,3.937 L 0,0"
         style="fill:#231f20;fill-opacity:1;fill-rule:nonzero;stroke:none"
         transform="matrix(1.3333333,0,0,-1.3333333,201.02267,481.744)" />
      <path
         id="path27"
         d="M 0,0 C 0,3.504 1.823,4.608 4.608,4.608 H 23.09 c 2.304,0 3.984,-0.672 3.984,-3.168 0,-2.496 -1.68,-3.168 -3.984,-3.168 H 7.872 v -7.488 h 13.346 c 2.063,0 3.696,-0.577 3.696,-3.025 0,-2.448 -1.633,-3.024 -3.696,-3.024 H 7.872 v -8.353 h 15.602 c 2.303,0 3.984,-0.673 3.984,-3.169 0,-2.496 -1.681,-3.168 -3.984,-3.168 H 4.608 C 1.823,-29.955 0,-28.85 0,-25.346 V 0"
         style="fill:#231f20;fill-opacity:1;fill-rule:nonzero;stroke:none"
         transform="matrix(1.3333333,0,0,-1.3333333,223.10267,483.472)" />
      <path
         id="path28"
         d="m 0,0 h -7.44 c -2.256,0 -4.08,1.152 -4.08,3.312 0,2.16 1.824,3.312 4.08,3.312 h 22.754 c 2.256,0 4.08,-1.152 4.08,-3.312 C 19.394,1.152 17.57,0 15.314,0 H 7.873 v -24.626 c 0,-2.353 -1.536,-3.937 -3.936,-3.937 -2.401,0 -3.937,1.584 -3.937,3.937 L 0,0"
         style="fill:#231f20;fill-opacity:1;fill-rule:nonzero;stroke:none"
         transform="matrix(1.3333333,0,0,-1.3333333,279.54933,486.16)" />
      <path
         id="path29"
         d="m 0,0 -9.648,16.033 c -0.385,0.624 -0.673,1.344 -0.673,2.064 0,2.689 2.448,3.601 3.984,3.601 1.872,0 2.736,-0.769 3.553,-2.305 L 4.08,6.768 10.896,19.393 c 0.913,1.729 1.777,2.305 3.41,2.305 1.439,0 3.887,-0.912 3.887,-3.601 0,-0.72 -0.288,-1.44 -0.672,-2.064 L 7.873,0 v -10.177 c 0,-2.353 -1.536,-3.937 -3.936,-3.937 C 1.536,-14.114 0,-12.53 0,-10.177 V 0"
         style="fill:#231f20;fill-opacity:1;fill-rule:nonzero;stroke:none"
         transform="matrix(1.3333333,0,0,-1.3333333,322.11067,505.42533)" />
    </g>
  </g>
</svg>
