<?xml version="1.0" encoding="UTF-8" standalone="no"?>
<!-- Created with Inkscape (http://www.inkscape.org/) -->

<svg
   version="1.1"
   id="svg1"
   width="553.85333"
   height="553.85333"
   viewBox="0 0 553.85333 553.85333"
   sodipodi:docname="Venezuela RC.svg"
   inkscape:version="1.3.2 (091e20e, 2023-11-25, custom)"
   xmlns:inkscape="http://www.inkscape.org/namespaces/inkscape"
   xmlns:sodipodi="http://sodipodi.sourceforge.net/DTD/sodipodi-0.dtd"
   xmlns="http://www.w3.org/2000/svg"
   xmlns:svg="http://www.w3.org/2000/svg">
  <defs
     id="defs1">
    <clipPath
       clipPathUnits="userSpaceOnUse"
       id="clipPath47">
      <path
         d="M 0,415.39 H 415.39 V 0.06 L 0,0.06 Z"
         transform="translate(-207.69501,-408.39001)"
         id="path47" />
    </clipPath>
  </defs>
  <sodipodi:namedview
     id="namedview1"
     pagecolor="#ffffff"
     bordercolor="#666666"
     borderopacity="1.0"
     inkscape:showpageshadow="2"
     inkscape:pageopacity="0.0"
     inkscape:pagecheckerboard="0"
     inkscape:deskcolor="#d1d1d1"
     inkscape:export-bgcolor="#ffffffff"
     inkscape:zoom="1.4823419"
     inkscape:cx="276.92667"
     inkscape:cy="276.92667"
     inkscape:window-width="1920"
     inkscape:window-height="1017"
     inkscape:window-x="-8"
     inkscape:window-y="-8"
     inkscape:window-maximized="1"
     inkscape:current-layer="g1">
    <inkscape:page
       x="0"
       y="0"
       inkscape:label="1"
       id="page1"
       width="553.85333"
       height="553.85333"
       margin="0"
       bleed="0"
       inkscape:export-filename="Venezuela RC.png"
       inkscape:export-xdpi="300"
       inkscape:export-ydpi="300" />
  </sodipodi:namedview>
  <g
     id="g1"
     inkscape:groupmode="layer"
     inkscape:label="1">
    <g
       id="group-MC1">
      <path
         id="path2"
         d="M 0,0 2.408,-2.75 C 1.712,-2.98 1.158,-3.221 0.744,-3.467 -1.92,-5.051 -2.29,-7.46 -0.366,-10.694 c 1.517,-2.552 3.194,-3.282 5.029,-2.191 1.377,0.82 1.709,2.95 0.996,6.388 C 4.276,0.135 5.436,4.551 9.14,6.754 c 2.172,1.291 4.374,1.557 6.607,0.794 2.233,-0.763 4.112,-2.425 5.636,-4.987 3.375,-5.674 2.864,-9.819 -1.534,-12.436 -0.359,-0.213 -0.817,-0.447 -1.377,-0.704 l -2.612,2.787 c 1.12,0.333 2.039,0.712 2.755,1.138 2.843,1.691 3.295,4.164 1.358,7.422 -1.551,2.607 -3.35,3.301 -5.398,2.084 -1.522,-0.907 -1.931,-3.262 -1.226,-7.071 1.026,-5.494 -0.28,-9.324 -3.917,-11.487 -2.059,-1.225 -4.165,-1.459 -6.32,-0.702 -2.154,0.756 -3.96,2.359 -5.418,4.81 C -5.301,-6.562 -4.533,-2.695 0,0"
         style="fill:#231f20;fill-opacity:1;fill-rule:nonzero;stroke:none"
         transform="matrix(1.3333333,0,0,-1.3333333,64.608,389.39333)" />
      <path
         id="path3"
         d="m 0,0 c 0.562,-1.346 1.684,-1.946 3.366,-1.801 1.682,0.145 4.626,1.095 8.831,2.851 4.206,1.757 6.951,3.181 8.237,4.275 1.286,1.095 1.647,2.314 1.085,3.66 -0.561,1.345 -1.683,1.947 -3.365,1.801 C 16.472,10.641 13.528,9.692 9.322,7.936 5.129,6.184 2.387,4.76 1.095,3.664 -0.197,2.567 -0.562,1.346 0,0 Z m -2.047,-0.623 c -2.991,7.162 -0.244,12.514 8.239,16.056 8.483,3.542 14.247,1.666 17.292,-5.627 3.046,-7.294 0.231,-12.751 -8.445,-16.374 -8.29,-3.461 -13.986,-1.48 -17.086,5.945"
         style="fill:#231f20;fill-opacity:1;fill-rule:nonzero;stroke:none"
         transform="matrix(1.3333333,0,0,-1.3333333,48.284,372.284)" />
      <path
         id="path4"
         d="m 0,0 0.023,3.411 c 0.644,0.216 1.206,0.386 1.685,0.507 2.512,0.637 4.749,0.235 6.711,-1.202 1.963,-1.438 3.33,-3.684 4.104,-6.739 1.939,-7.662 -1.401,-12.584 -10.023,-14.766 -4.09,-1.035 -7.689,-0.758 -10.798,0.833 -3.109,1.591 -5.117,4.178 -6.025,7.763 -1.415,5.591 0.565,9.068 5.943,10.429 l 2.291,-2.845 c -0.766,-0.154 -1.358,-0.284 -1.775,-0.389 -3.812,-0.965 -5.331,-2.975 -4.558,-6.029 0.818,-3.232 5.273,-3.823 13.363,-1.776 6.956,1.762 9.977,4.447 9.062,8.057 C 9.626,-1.257 8.719,-0.166 7.282,0.523 5.845,1.215 4.236,1.334 2.456,0.884 1.888,0.74 1.069,0.445 0,0"
         style="fill:#231f20;fill-opacity:1;fill-rule:nonzero;stroke:none"
         transform="matrix(1.3333333,0,0,-1.3333333,52.684,322.88267)" />
      <path
         id="path5"
         d="M 0,0 26.396,3.742 27.482,-3.916 1.085,-7.658 0,0"
         style="fill:#231f20;fill-opacity:1;fill-rule:nonzero;stroke:none"
         transform="matrix(1.3333333,0,0,-1.3333333,28.8,307.16667)" />
      <path
         id="path6"
         d="m 0,0 2.674,0.112 0.404,-9.542 8.059,0.342 -0.34,8.021 2.674,0.112 0.34,-8.02 10.556,0.448 -0.472,11.162 2.673,0.113 0.8,-18.889 L 0.732,-17.27 0,0"
         style="fill:#231f20;fill-opacity:1;fill-rule:nonzero;stroke:none"
         transform="matrix(1.3333333,0,0,-1.3333333,26.762667,275.784)" />
      <path
         id="path7"
         d="m 0,0 0.193,2.022 c 0.177,1.854 -0.5,3.213 -2.033,4.079 -1.533,0.865 -4.392,1.499 -8.579,1.9 -4.186,0.399 -7.111,0.323 -8.773,-0.232 -1.662,-0.554 -2.581,-1.764 -2.76,-3.631 l -0.193,-2.021 z m 1.461,-7.91 -26.539,2.538 1.052,11.003 c 0.747,7.817 5.553,11.301 14.419,10.454 C -0.78,15.241 3.246,10.768 2.472,2.668 L 1.461,-7.91"
         style="fill:#231f20;fill-opacity:1;fill-rule:nonzero;stroke:none"
         transform="matrix(1.3333333,0,0,-1.3333333,60.246667,260.08933)" />
      <path
         id="path8"
         d="M 0,0 1.531,6.361 -10.693,6.07 Z M -15.544,13.204 12.112,14.18 10.293,6.622 4.302,6.438 2.423,-1.367 7.646,-4.372 6.938,-7.315 -17.135,6.596 l 1.591,6.608"
         style="fill:#231f20;fill-opacity:1;fill-rule:nonzero;stroke:none"
         transform="matrix(1.3333333,0,0,-1.3333333,55.824,231.19067)" />
      <path
         id="path9"
         d="m 0,0 0.749,1.887 c 0.687,1.731 0.415,3.226 -0.816,4.485 -1.23,1.259 -3.8,2.663 -7.709,4.215 -3.91,1.55 -6.74,2.292 -8.49,2.222 -1.751,-0.068 -2.971,-0.974 -3.663,-2.717 l -0.749,-1.888 z m -0.801,-8.003 -24.78,9.832 4.076,10.275 c 2.896,7.298 8.483,9.305 16.761,6.021 C 3.499,14.854 6.119,9.436 3.118,1.873 l -3.919,-9.876"
         style="fill:#231f20;fill-opacity:1;fill-rule:nonzero;stroke:none"
         transform="matrix(1.3333333,0,0,-1.3333333,73.364,200.652)" />
      <path
         id="path10"
         d="m 0,0 17.889,-21.226 -3.847,-5.769 -26.103,8.91 4.335,6.499 19.728,-6.817 L -1.604,-2.404 0,0"
         style="fill:#231f20;fill-opacity:1;fill-rule:nonzero;stroke:none"
         transform="matrix(1.3333333,0,0,-1.3333333,76.958667,126.34933)" />
      <path
         id="path11"
         d="m 0,0 2.024,-1.749 -6.243,-7.227 6.104,-5.274 5.247,6.074 2.025,-1.749 -5.248,-6.074 7.996,-6.908 7.303,8.454 2.025,-1.75 L 8.873,-30.508 -11.3,-13.08 0,0"
         style="fill:#231f20;fill-opacity:1;fill-rule:nonzero;stroke:none"
         transform="matrix(1.3333333,0,0,-1.3333333,95.541333,104.636)" />
      <path
         id="path12"
         d="m 0,0 17.706,-19.932 -4.425,-3.929 -19.53,5.221 11.208,-12.615 -1.942,-1.725 -17.706,19.931 3.665,3.256 L 10.16,-15.349 -1.942,-1.725 0,0"
         style="fill:#231f20;fill-opacity:1;fill-rule:nonzero;stroke:none"
         transform="matrix(1.3333333,0,0,-1.3333333,120.81867,81.354667)" />
      <path
         id="path13"
         d="m 0,0 1.497,-2.218 -7.915,-5.344 4.514,-6.686 6.653,4.493 1.497,-2.218 -6.652,-4.492 5.913,-8.757 9.259,6.252 1.497,-2.217 L 0.595,-31.768 -14.325,-9.674 0,0"
         style="fill:#231f20;fill-opacity:1;fill-rule:nonzero;stroke:none"
         transform="matrix(1.3333333,0,0,-1.3333333,147.08267,63.054667)" />
      <path
         id="path14"
         d="m 0,0 1.091,-2.162 -1.731,-25.023 10.586,5.339 1.204,-2.389 -18.223,-9.191 -1.205,2.39 1.705,24.725 -9.679,-4.881 -1.205,2.388 L 0,0"
         style="fill:#231f20;fill-opacity:1;fill-rule:nonzero;stroke:none"
         transform="matrix(1.3333333,0,0,-1.3333333,177.19733,47.302667)" />
      <path
         id="path15"
         d="m 0,0 c -1.382,-0.467 -2.058,-1.545 -2.031,-3.232 0.028,-1.689 0.771,-4.692 2.23,-9.009 1.459,-4.318 2.69,-7.155 3.692,-8.514 1.002,-1.359 2.194,-1.805 3.576,-1.338 1.381,0.467 2.058,1.544 2.031,3.233 -0.028,1.687 -0.771,4.69 -2.231,9.007 C 5.813,-5.548 4.583,-2.712 3.579,-1.348 2.574,0.018 1.382,0.467 0,0 Z m -0.478,2.085 c 7.352,2.485 12.5,-0.627 15.443,-9.336 2.943,-8.709 0.67,-14.328 -6.817,-16.858 -7.487,-2.532 -12.736,0.656 -15.746,9.562 -2.876,8.512 -0.503,14.056 7.12,16.632"
         style="fill:#231f20;fill-opacity:1;fill-rule:nonzero;stroke:none"
         transform="matrix(1.3333333,0,0,-1.3333333,197.59733,42.238667)" />
      <path
         id="path16"
         d="m 0,0 4.513,-23.556 10.762,2.062 0.503,-2.628 L -2.579,-27.64 -7.597,-1.456 0,0"
         style="fill:#231f20;fill-opacity:1;fill-rule:nonzero;stroke:none"
         transform="matrix(1.3333333,0,0,-1.3333333,229.492,31.54)" />
      <path
         id="path17"
         d="M 0,0 6.528,0.433 2.609,12.015 Z m 7.974,18.772 9.171,-26.111 -7.757,-0.514 -1.962,5.664 -8.009,-0.532 -1.313,-5.881 -3.021,-0.201 6.109,27.124 6.782,0.451"
         style="fill:#231f20;fill-opacity:1;fill-rule:nonzero;stroke:none"
         transform="matrix(1.3333333,0,0,-1.3333333,254.32667,52.305333)" />
      <path
         id="path18"
         d="m 0,0 -1.749,-26.602 -5.905,0.388 -10.001,17.569 -1.108,-16.838 -2.592,0.171 1.75,26.602 4.891,-0.322 L -3.787,-18.013 -2.592,0.171 0,0"
         style="fill:#231f20;fill-opacity:1;fill-rule:nonzero;stroke:none"
         transform="matrix(1.3333333,0,0,-1.3333333,306.61067,28.444)" />
      <path
         id="path19"
         d="M 0,0 6.413,-1.295 5.67,10.91 Z m 12.621,16.021 1.996,-27.601 -7.619,1.539 -0.406,5.98 -7.869,1.589 -2.81,-5.33 -2.967,0.599 13.012,24.57 6.663,-1.346"
         style="fill:#231f20;fill-opacity:1;fill-rule:nonzero;stroke:none"
         transform="matrix(1.3333333,0,0,-1.3333333,314.516,54.302667)" />
      <path
         id="path20"
         d="m 0,0 1.861,-0.813 c 1.706,-0.745 3.209,-0.524 4.509,0.664 1.3,1.187 2.791,3.708 4.474,7.562 1.682,3.855 2.519,6.657 2.509,8.409 -0.009,1.752 -0.873,3.003 -2.591,3.753 L 8.9,20.388 Z M -7.972,1.072 2.695,25.505 12.826,21.082 C 20.022,17.94 21.838,12.289 18.274,4.127 14.726,-4 9.223,-6.436 1.765,-3.179 l -9.737,4.251"
         style="fill:#231f20;fill-opacity:1;fill-rule:nonzero;stroke:none"
         transform="matrix(1.3333333,0,0,-1.3333333,360.01067,76.050667)" />
      <path
         id="path21"
         d="m 0,0 -1.403,-2.279 -8.134,5.006 -4.227,-6.87 6.836,-4.208 -1.402,-2.279 -6.836,4.207 -5.539,-8.999 9.515,-5.854 -1.402,-2.28 -16.102,9.91 L -14.721,9.059 0,0"
         style="fill:#231f20;fill-opacity:1;fill-rule:nonzero;stroke:none"
         transform="matrix(1.3333333,0,0,-1.3333333,417.85733,70.201333)" />
      <path
         id="path22"
         d="m 0,0 -16.234,-17.655 8.066,-7.416 -1.811,-1.97 L -23.738,-14.39 -5.694,5.235 0,0"
         style="fill:#231f20;fill-opacity:1;fill-rule:nonzero;stroke:none"
         transform="matrix(1.3333333,0,0,-1.3333333,445.89867,92.826667)" />
      <path
         id="path23"
         d="m 0,0 4.239,-4.983 6.963,10.05 z m 19.826,4.787 -15.498,-22.926 -5.037,5.921 3.379,4.95 -5.201,6.115 -5.505,-2.453 -1.961,2.306 25.419,11.265 4.404,-5.178"
         style="fill:#231f20;fill-opacity:1;fill-rule:nonzero;stroke:none"
         transform="matrix(1.3333333,0,0,-1.3333333,444.01333,125.13467)" />
      <path
         id="path24"
         d="m 0,0 0.832,-3.308 c -0.569,-0.371 -1.07,-0.676 -1.505,-0.913 -2.272,-1.245 -4.538,-1.417 -6.798,-0.517 -2.26,0.901 -4.146,2.733 -5.66,5.497 -3.797,6.931 -1.795,12.534 6.006,16.805 3.7,2.027 7.254,2.659 10.662,1.899 3.408,-0.762 6.001,-2.764 7.777,-6.007 C 14.085,8.396 13.038,4.535 8.173,1.87 L 5.241,4.051 c 0.704,0.34 1.245,0.615 1.622,0.821 3.448,1.888 4.416,4.215 2.902,6.978 -1.6,2.924 -6.061,2.381 -13.381,-1.628 -6.293,-3.446 -8.545,-6.802 -6.756,-10.068 0.737,-1.348 1.888,-2.176 3.453,-2.484 1.564,-0.309 3.152,-0.023 4.763,0.859 C -1.643,-1.189 -0.924,-0.699 0,0"
         style="fill:#231f20;fill-opacity:1;fill-rule:nonzero;stroke:none"
         transform="matrix(1.3333333,0,0,-1.3333333,482.67733,176.596)" />
      <path
         id="path25"
         d="m 0,0 0.544,-1.465 c 1.021,-2.746 2.965,-3.587 5.833,-2.521 2.869,1.066 3.792,2.972 2.772,5.718 L 8.605,3.197 Z m -16.773,2.017 24.99,9.288 3.994,-10.748 c 1.038,-2.794 1.28,-5.247 0.724,-7.357 -0.557,-2.109 -1.823,-3.532 -3.801,-4.267 -3.027,-1.125 -5.665,-0.063 -7.914,3.185 0.001,-2.097 -0.305,-3.568 -0.922,-4.416 -0.615,-0.847 -2.065,-1.806 -4.347,-2.876 -2.722,-1.275 -4.403,-2.435 -5.042,-3.479 l -2.926,7.873 c 0.974,0.931 2.327,1.719 4.06,2.363 l 1.469,0.588 1.854,0.73 c 2.881,1.07 3.889,2.766 3.028,5.084 l -0.463,1.245 -12.01,-4.463 -2.694,7.25"
         style="fill:#231f20;fill-opacity:1;fill-rule:nonzero;stroke:none"
         transform="matrix(1.3333333,0,0,-1.3333333,495.47467,192.04533)" />
      <path
         id="path26"
         d="m 0,0 -17.499,-3.719 c -5.999,-1.276 -9.704,1.404 -11.115,8.04 -1.405,6.61 0.892,10.552 6.89,11.828 l 17.5,3.72 1.608,-7.565 -17.729,-3.769 c -2.292,-0.488 -3.789,-1.149 -4.49,-1.984 -0.701,-0.834 -0.864,-2.137 -0.488,-3.907 0.729,-3.426 3.157,-4.7 7.283,-3.823 L -0.54,2.541 0,0"
         style="fill:#231f20;fill-opacity:1;fill-rule:nonzero;stroke:none"
         transform="matrix(1.3333333,0,0,-1.3333333,524.18667,238.076)" />
      <path
         id="path27"
         d="M 0,0 -2.415,-0.18 -24.868,11 l 0.879,-11.823 -2.669,-0.199 -1.512,20.355 2.668,0.198 L -3.314,8.488 -4.117,19.299 -1.448,19.497 0,0"
         style="fill:#231f20;fill-opacity:1;fill-rule:nonzero;stroke:none"
         transform="matrix(1.3333333,0,0,-1.3333333,527.172,272.32)" />
      <path
         id="path28"
         d="m 0,0 -0.206,-1.549 c -0.387,-2.904 0.936,-4.558 3.969,-4.961 3.033,-0.405 4.743,0.845 5.13,3.75 l 0.206,1.549 z M -13.868,9.649 12.559,6.13 11.046,-5.235 c -0.393,-2.955 -1.331,-5.234 -2.812,-6.836 -1.481,-1.603 -3.267,-2.265 -5.357,-1.986 -3.202,0.426 -5.034,2.6 -5.496,6.523 -0.982,-1.851 -1.944,-3.008 -2.885,-3.466 -0.942,-0.459 -2.671,-0.627 -5.19,-0.502 -3.002,0.15 -5.029,-0.086 -6.084,-0.707 l 1.109,8.325 c 1.296,0.366 2.861,0.426 4.693,0.182 l 1.574,-0.17 1.98,-0.223 c 3.046,-0.406 4.732,0.617 5.058,3.069 l 0.176,1.318 -12.701,1.69 1.021,7.667"
         style="fill:#231f20;fill-opacity:1;fill-rule:nonzero;stroke:none"
         transform="matrix(1.3333333,0,0,-1.3333333,509.692,304.69467)" />
      <path
         id="path29"
         d="m 0,0 c 0.408,1.4 -0.088,2.572 -1.488,3.516 -1.4,0.944 -4.288,2.053 -8.663,3.328 -4.376,1.274 -7.407,1.889 -9.094,1.846 -1.689,-0.045 -2.736,-0.766 -3.144,-2.166 -0.408,-1.4 0.088,-2.572 1.488,-3.515 1.4,-0.945 4.287,-2.053 8.663,-3.328 4.363,-1.272 7.391,-1.886 9.085,-1.844 C -1.459,-2.12 -0.407,-1.399 0,0 Z m 1.984,-0.802 c -2.171,-7.45 -7.67,-9.89 -16.495,-7.318 -8.826,2.571 -12.133,7.651 -9.922,15.239 2.211,7.589 7.829,10.067 16.855,7.438 C 1.048,12.044 4.235,6.924 1.984,-0.802"
         style="fill:#231f20;fill-opacity:1;fill-rule:nonzero;stroke:none"
         transform="matrix(1.3333333,0,0,-1.3333333,514.73733,346.332)" />
      <path
         id="path30"
         d="m 0,0 -15.731,6.825 c -6.176,2.68 -8.321,6.193 -6.434,10.541 0.834,1.923 2.088,3.316 3.762,4.18 1.673,0.863 3.292,0.957 4.856,0.277 0.932,-0.404 2.026,-1.105 3.281,-2.104 l -0.427,-2.902 c -1.521,1.143 -2.657,1.876 -3.41,2.203 -2.652,1.151 -4.322,0.932 -5.011,-0.658 -0.4,-0.92 0.643,-1.918 3.128,-2.996 L 3.078,7.095 0,0"
         style="fill:#231f20;fill-opacity:1;fill-rule:nonzero;stroke:none"
         transform="matrix(1.3333333,0,0,-1.3333333,502.99867,383.82667)" />
      <path
         id="path31"
         d="M 0,0 -3.26,-5.672 8.55,-8.836 Z m 11.196,-17.049 -26.812,6.855 3.875,6.739 5.8,-1.51 4.002,6.959 -4.165,4.355 1.51,2.623 19.177,-20.128 -3.387,-5.893"
         style="fill:#231f20;fill-opacity:1;fill-rule:nonzero;stroke:none"
         transform="matrix(1.3333333,0,0,-1.3333333,476.36667,382.76533)" />
      <path
         id="path32"
         d="M 0,0 -3.922,-3.318 -10.128,4.019 -6.206,7.336 0,0"
         style="fill:#231f20;fill-opacity:1;fill-rule:nonzero;stroke:none"
         transform="matrix(1.3333333,0,0,-1.3333333,102.832,432.41867)" />
      <path
         id="path33"
         d="m 0,0 -1.75,-2.024 -7.314,6.322 -5.811,-6.724 6.206,-5.364 -1.75,-2.024 -6.206,5.364 -8.122,-9.398 -5.852,5.057 L -13.166,11.38 0,0"
         style="fill:#231f20;fill-opacity:1;fill-rule:nonzero;stroke:none"
         transform="matrix(1.3333333,0,0,-1.3333333,146.32667,447.95733)" />
      <path
         id="path34"
         d="m 0,0 -9.954,-14.865 c -3.412,-5.096 -7.937,-5.757 -13.574,-1.982 -5.615,3.759 -6.716,8.187 -3.304,13.283 l 9.953,14.866 6.427,-4.303 -10.084,-15.06 c -1.304,-1.949 -1.917,-3.465 -1.837,-4.553 0.078,-1.087 0.87,-2.134 2.374,-3.141 2.91,-1.949 5.539,-1.171 7.886,2.335 L -2.158,1.445 0,0"
         style="fill:#231f20;fill-opacity:1;fill-rule:nonzero;stroke:none"
         transform="matrix(1.3333333,0,0,-1.3333333,168.90133,463.12133)" />
      <path
         id="path35"
         d="m 0,0 -11.673,-23.969 -5.32,2.592 -2.621,20.046 -7.389,-15.172 -2.335,1.138 11.673,23.968 4.407,-2.146 2.944,-21.702 L -2.335,1.138 0,0"
         style="fill:#231f20;fill-opacity:1;fill-rule:nonzero;stroke:none"
         transform="matrix(1.3333333,0,0,-1.3333333,194.77733,475.88667)" />
      <path
         id="path36"
         d="m 0,0 1.936,-0.617 c 1.773,-0.566 3.246,-0.191 4.417,1.124 1.17,1.314 2.394,3.975 3.671,7.983 1.277,4.007 1.821,6.881 1.631,8.622 -0.19,1.742 -1.178,2.898 -2.964,3.467 L 6.755,21.195 Z M -8.039,0.245 0.056,25.646 10.589,22.29 C 18.07,19.906 20.458,14.471 17.753,5.985 15.061,-2.463 9.838,-5.452 2.084,-2.981 L -8.039,0.245"
         style="fill:#231f20;fill-opacity:1;fill-rule:nonzero;stroke:none"
         transform="matrix(1.3333333,0,0,-1.3333333,197.816,511.43333)" />
      <path
         id="path37"
         d="M 0,0 6.447,-1.119 5.369,11.062 Z m 12.177,16.363 2.754,-27.537 -7.659,1.329 -0.571,5.966 -7.909,1.373 -2.663,-5.405 -2.982,0.518 12.334,24.918 6.696,-1.162"
         style="fill:#231f20;fill-opacity:1;fill-rule:nonzero;stroke:none"
         transform="matrix(1.3333333,0,0,-1.3333333,228.43333,511.18533)" />
      <path
         id="path38"
         d="m 0,0 2.03,-0.074 c 1.86,-0.07 3.178,0.686 3.953,2.267 0.775,1.581 1.239,4.473 1.395,8.676 0.154,4.202 -0.093,7.117 -0.743,8.744 -0.651,1.626 -1.913,2.475 -3.787,2.543 L 0.819,22.231 Z M -7.811,-1.921 -6.829,24.722 4.218,24.314 C 12.064,24.025 15.823,19.431 15.496,10.531 15.169,1.67 10.94,-2.611 2.807,-2.311 l -10.618,0.39"
         style="fill:#231f20;fill-opacity:1;fill-rule:nonzero;stroke:none"
         transform="matrix(1.3333333,0,0,-1.3333333,263.56667,524.00267)" />
      <path
         id="path39"
         d="M 0,0 6.512,0.633 2.24,12.09 Z M 7.396,19.008 17.361,-6.809 9.624,-7.561 7.49,-1.96 -0.5,-2.737 -1.631,-8.655 -4.644,-8.948 0.631,18.35 7.396,19.008"
         style="fill:#231f20;fill-opacity:1;fill-rule:nonzero;stroke:none"
         transform="matrix(1.3333333,0,0,-1.3333333,292.88267,515.58133)" />
      <path
         id="path40"
         d="m 0,0 7.397,-25.612 -7.168,-2.07 -5.57,19.289 c -1.647,-1.479 -3.274,-2.511 -4.88,-3.097 l -0.976,3.378 c 3.657,1.463 5.875,3.73 6.656,6.801 L 0,0"
         style="fill:#231f20;fill-opacity:1;fill-rule:nonzero;stroke:none"
         transform="matrix(1.3333333,0,0,-1.3333333,342.62667,481.584)" />
      <path
         id="path41"
         d="m 0,0 c -1.169,-1.723 -1.381,-3.415 -0.635,-5.079 0.628,-1.402 1.795,-2.32 3.502,-2.754 1.707,-0.434 3.434,-0.26 5.18,0.523 1.367,0.612 2.36,1.499 2.981,2.663 0.62,1.162 0.697,2.266 0.228,3.312 C 10.49,0.376 8.57,1.028 5.5,0.623 3.992,0.419 2.16,0.211 0,0 Z m 5.641,8.048 c 0.622,1.349 0.66,2.636 0.111,3.859 -1.31,2.924 -3.682,3.616 -7.115,2.077 C -4.275,12.681 -5.26,10.977 -4.317,8.873 -3.748,7.602 -1.973,7.142 1.01,7.493 L 4.155,7.875 C 4.471,7.902 4.966,7.96 5.641,8.048 Z M -2.166,0.249 c -2.856,0.547 -4.798,1.967 -5.825,4.261 -0.986,2.198 -0.935,4.353 0.152,6.467 1.087,2.113 3.009,3.788 5.765,5.022 2.412,1.081 4.599,1.43 6.562,1.046 1.962,-0.384 3.324,-1.425 4.086,-3.124 0.846,-1.89 0.532,-3.849 -0.941,-5.879 4.011,-0.258 6.658,-1.818 7.941,-4.683 1.069,-2.387 1.006,-4.738 -0.191,-7.05 -1.198,-2.314 -3.299,-4.143 -6.305,-5.49 -2.78,-1.246 -5.385,-1.61 -7.814,-1.092 -2.429,0.516 -4.096,1.785 -5,3.805 -0.986,2.198 -0.462,4.438 1.57,6.717"
         style="fill:#231f20;fill-opacity:1;fill-rule:nonzero;stroke:none"
         transform="matrix(1.3333333,0,0,-1.3333333,367.06,493.99867)" />
      <path
         id="path42"
         d="m 0,0 c -1.609,-1.011 -1.109,-3.595 1.502,-7.752 2.125,-3.386 3.894,-4.635 5.305,-3.749 1.798,1.129 1.555,3.513 -0.73,7.151 C 3.625,-0.445 1.6,1.004 0,0 Z m 2.071,-20.264 2.619,2.476 c 0.305,-0.731 0.617,-1.351 0.935,-1.857 1.303,-2.074 2.934,-2.494 4.898,-1.261 1.356,0.851 1.971,1.971 1.845,3.36 -0.127,1.389 -1.069,3.777 -2.827,7.163 -0.588,-2.123 -1.605,-3.637 -3.049,-4.545 -1.986,-1.246 -4.046,-1.576 -6.183,-0.988 -2.137,0.588 -3.885,1.962 -5.242,4.124 -1.516,2.415 -1.973,4.838 -1.369,7.269 0.601,2.431 2.155,4.432 4.658,6.004 6.385,4.009 11.986,2.176 16.806,-5.499 2.305,-3.671 3.2,-7.139 2.68,-10.401 -0.519,-3.264 -2.377,-5.898 -5.576,-7.906 -4.289,-2.694 -7.441,-2.436 -9.456,0.773 -0.187,0.298 -0.434,0.727 -0.739,1.288"
         style="fill:#231f20;fill-opacity:1;fill-rule:nonzero;stroke:none"
         transform="matrix(1.3333333,0,0,-1.3333333,391.86933,461.05867)" />
      <path
         id="path43"
         d="m 0,0 2.832,-4.943 -9.669,-8.136 2.909,-5.005 c 0.704,2.481 1.932,4.459 3.686,5.934 2.123,1.785 4.388,2.628 6.795,2.527 2.408,-0.101 4.43,-1.123 6.064,-3.066 1.828,-2.173 2.516,-4.542 2.063,-7.109 -0.451,-2.567 -1.979,-4.945 -4.578,-7.132 -4.703,-3.957 -8.412,-4.321 -11.129,-1.093 -0.394,0.468 -0.811,1.105 -1.249,1.909 l 2.18,2.779 c 0.518,-0.959 1.062,-1.778 1.631,-2.455 1.711,-2.033 3.647,-2.14 5.809,-0.321 2.591,2.18 2.34,5.108 -0.754,8.784 -2.188,2.601 -4.383,2.975 -6.585,1.123 -1.315,-1.108 -1.899,-2.791 -1.751,-5.048 l -2.84,-1.419 -7.354,12.624 L 0,0"
         style="fill:#231f20;fill-opacity:1;fill-rule:nonzero;stroke:none"
         transform="matrix(1.3333333,0,0,-1.3333333,423.77067,434.08933)" />
      <path
         id="path44"
         d="M 0,0 3.928,-3.31 -2.264,-10.659 -6.191,-7.348 0,0"
         style="fill:#231f20;fill-opacity:1;fill-rule:nonzero;stroke:none"
         transform="matrix(1.3333333,0,0,-1.3333333,459.552,422.316)" />
      <path
         id="path45"
         d="m 0,0 c -77.161,0 -139.937,-62.775 -139.937,-139.936 0,-77.162 62.776,-139.938 139.937,-139.938 77.161,0 139.937,62.776 139.937,139.938 C 139.937,-62.775 77.161,0 0,0 Z m 0,-286.874 c -81.021,0 -146.937,65.916 -146.937,146.938 C -146.937,-58.915 -81.021,7 0,7 81.022,7 146.937,-58.915 146.937,-139.936 146.937,-220.958 81.022,-286.874 0,-286.874"
         style="fill:#231f20;fill-opacity:1;fill-rule:nonzero;stroke:none"
         transform="matrix(1.3333333,0,0,-1.3333333,276.92667,90.344)" />
      <path
         id="path46"
         d="m 0,0 c -110.663,0 -200.695,-90.031 -200.695,-200.694 0,-110.664 90.032,-200.696 200.695,-200.696 110.663,0 200.695,90.032 200.695,200.696 C 200.695,-90.031 110.663,0 0,0 Z m 0,-408.39 c -114.523,0 -207.695,93.172 -207.695,207.696 C -207.695,-86.171 -114.523,7 0,7 114.524,7 207.695,-86.171 207.695,-200.694 207.695,-315.218 114.524,-408.39 0,-408.39"
         style="fill:#231f20;fill-opacity:1;fill-rule:nonzero;stroke:none"
         transform="matrix(1.3333333,0,0,-1.3333333,276.92667,9.3333333)"
         clip-path="url(#clipPath47)" />
      <path
         id="path48"
         d="m 0,0 h -79.589 v 79.589 h -72.295 V 0 h -79.589 v -72.295 h 79.589 v -79.589 h 72.295 v 79.589 H 0 L 0,0"
         style="fill:#ed1c24;fill-opacity:1;fill-rule:nonzero;stroke:none"
         transform="matrix(1.3333333,0,0,-1.3333333,431.24133,228.72933)" />
    </g>
  </g>
</svg>
