<?xml version="1.0" encoding="UTF-8" standalone="no"?>
<svg
   xmlns:dc="http://purl.org/dc/elements/1.1/"
   xmlns:cc="http://creativecommons.org/ns#"
   xmlns:rdf="http://www.w3.org/1999/02/22-rdf-syntax-ns#"
   xmlns:svg="http://www.w3.org/2000/svg"
   xmlns="http://www.w3.org/2000/svg"
   viewBox="0 0 3213.4534 3267.3333"
   height="3267.3333"
   width="3213.4534"
   xml:space="preserve"
   id="svg2"
   version="1.1"><metadata
     id="metadata8"><rdf:RDF><cc:Work
         rdf:about=""><dc:format>image/svg+xml</dc:format><dc:type
           rdf:resource="http://purl.org/dc/dcmitype/StillImage" /><dc:title></dc:title></cc:Work></rdf:RDF></metadata><defs
     id="defs6" /><g
     transform="matrix(1.3333333,0,0,-1.3333333,0,3267.3333)"
     id="g10"><g
       transform="scale(0.1)"
       id="g12"><g
         transform="scale(1.02043)"
         id="g14"><path
           id="path16"
           style="fill:#ffffff;fill-opacity:1;fill-rule:evenodd;stroke:none"
           d="m 7236.5,12007.5 24.01,-444 72.05,-394.7 96.06,-419.4 168.12,-394.7 192.15,-394.78 216.14,-345.34 264.16,-345.44 288.25,-271.26 336.23,-296.05 336.17,-246.76 384.3,-221.87 384.3,-172.77 432.26,-148.08 432.3,-98.68 432.2,-73.89 456.3,-24.7 456.3,24.7 456.4,73.89 432.2,98.68 408.4,148.08 408.3,172.77 360.2,221.87 360.2,246.76 312.2,296.05 288.3,271.26 264.2,345.44 192.1,345.34 192.1,394.78 168.1,394.7 96,419.4 72.2,394.7 24,444 -24,444.1 -72.2,419.4 -96,419.4 -168.1,369.9 -192.1,394.8 -192.1,345.4 -264.2,345.3 -288.3,296.1 -312.2,271.3 -360.2,246.8 -360.2,222 -408.3,172.7 -408.4,148 -432.2,98.7 -456.4,74 -456.3,24.6 -456.3,-24.6 -432.2,-74 -432.3,-98.7 -432.26,-148 -384.3,-172.7 -384.3,-222 -336.17,-246.8 -336.23,-271.3 -288.25,-296.1 -264.16,-345.3 -216.14,-345.4 -192.15,-394.8 -168.12,-369.9 -96.06,-419.4 -72.05,-419.4 -24.01,-444.1 v 0" /></g><g
         transform="scale(1.08684)"
         id="g18"><path
           id="path20"
           style="fill:#ed1c24;fill-opacity:1;fill-rule:evenodd;stroke:none"
           d="M 9421.29,16300 V 12872 H 6061.48 V 9629.33 H 9421.29 V 6247.67 h 3201.91 v 3381.66 h 3359.9 V 12872 h -3359.9 v 3428 H 9421.29 v 0" /></g><g
         transform="scale(1.08684)"
         id="g22"><path
           id="path24"
           style="fill:none;stroke:#eb222c;stroke-width:16.87190056;stroke-linecap:square;stroke-linejoin:miter;stroke-miterlimit:10;stroke-dasharray:none;stroke-opacity:1"
           d="M 9421.29,16300 V 12872 H 6061.48 V 9629.33 H 9421.29 V 6247.67 h 3201.91 v 3381.66 h 3359.9 V 12872 h -3359.9 v 3428 H 9421.29 Z" /></g><path
         id="path26"
         style="fill:#231f20;fill-opacity:1;fill-rule:evenodd;stroke:none"
         d="m 82.7383,16013.1 539.1247,-25.2 v -25.2 l -220.59,-75.5 -147.011,-100.7 -98.008,-151 -24.508,-151.1 v -176.2 l 24.508,-125.9 48.984,-75.4 49.024,-50.4 122.519,-125.9 196.071,-75.5 245.082,-50.3 h 196.006 l 171.56,50.3 171.55,50.4 98.03,125.8 98.07,151 24.49,125.9 v 176.2 l -24.49,125.9 -98.07,125.9 -147.05,176.2 24.55,25.2 196.02,-151.1 98.04,-176.2 49.05,-176.2 v -201.4 l -24.59,-176.2 -73.46,-151 -122.56,-151.1 -147.05,-100.7 -122.53,-75.5 -122.53,-25.2 -294.072,-25.2 -196.046,50.4 -196.071,125.9 -171.543,151 -122.4997,176.2 -73.57033,201.4 v 251.7 l 73.57033,125.9 49.0077,176.2 24.508,25.2 48.984,50.3 v 25.2 l -48.984,25.2 -24.508,25.2 -49.0077,25.1 v 50.4 0" /><path
         id="path28"
         style="fill:none;stroke:#231f20;stroke-width:18.33699989;stroke-linecap:square;stroke-linejoin:miter;stroke-miterlimit:10;stroke-dasharray:none;stroke-opacity:1"
         d="m 82.7383,16013.1 539.1247,-25.2 v -25.2 l -220.59,-75.5 -147.011,-100.7 -98.008,-151 -24.508,-151.1 v -176.2 l 24.508,-125.9 48.984,-75.4 49.024,-50.4 122.519,-125.9 196.071,-75.5 245.082,-50.3 h 196.006 l 171.56,50.3 171.55,50.4 98.03,125.8 98.07,151 24.49,125.9 v 176.2 l -24.49,125.9 -98.07,125.9 -147.05,176.2 24.55,25.2 196.02,-151.1 98.04,-176.2 49.05,-176.2 v -201.4 l -24.59,-176.2 -73.46,-151 -122.56,-151.1 -147.05,-100.7 -122.53,-75.5 -122.53,-25.2 -294.072,-25.2 -196.046,50.4 -196.071,125.9 -171.543,151 -122.4997,176.2 -73.57033,201.4 v 251.7 l 73.57033,125.9 49.0077,176.2 24.508,25.2 48.984,50.3 v 25.2 l -48.984,25.2 -24.508,25.2 -49.0077,25.1 v 50.4 z" /><g
         transform="scale(1.07352)"
         id="g30"><path
           id="path32"
           style="fill:#231f20;fill-opacity:1;fill-rule:evenodd;stroke:none"
           d="m 1046.43,15455.8 v 23.5 23.4 l 22.83,23.4 45.65,187.7 -45.65,164.1 -68.47,117.3 -114.166,70.3 H 772.462 l -91.285,-23.4 -114.14,-93.9 -68.478,-93.7 -22.855,-70.4 -22.84,-93.8 593.566,-234.5 z m 1072.98,750.4 -137.04,-351.7 -821.78,-258 -22.86,-46.9 -22.82,-46.9 v -23.4 -23.5 l -22.86,-23.4 410.94,-140.7 114.14,-23.5 h 68.52 l 45.69,23.5 45.61,70.3 22.82,70.4 22.82,-23.5 -205.46,-609.7 h -45.67 l 22.87,70.4 22.8,70.4 -22.8,70.3 -45.67,23.4 -114.17,46.9 -913.145,351.8 -68.481,23.4 h -68.46 l -45.677,-46.9 -68.459,-70.3 v -46.9 l -45.666,23.5 159.802,515.8 68.46,117.2 22.84,70.4 91.333,117.2 68.481,117.3 91.296,46.9 h 114.213 114.078 l 114.155,-93.8 91.33,-70.4 45.66,-140.6 v -187.6 l 502.22,140.6 159.76,70.4 91.34,46.9 68.46,70.3 45.69,117.3 45.69,-46.9 v 0" /></g><g
         transform="scale(1.07352)"
         id="g34"><path
           id="path36"
           style="fill:none;stroke:#231f20;stroke-width:17.08130074;stroke-linecap:square;stroke-linejoin:miter;stroke-miterlimit:10;stroke-dasharray:none;stroke-opacity:1"
           d="m 1046.43,15455.8 v 23.5 23.4 l 22.83,23.4 45.65,187.7 -45.65,164.1 -68.47,117.3 -114.166,70.3 H 772.462 l -91.285,-23.4 -114.14,-93.9 -68.478,-93.7 -22.855,-70.4 -22.84,-93.8 593.566,-234.5 z m 1072.98,750.4 -137.04,-351.7 -821.78,-258 -22.86,-46.9 -22.82,-46.9 v -23.4 -23.5 l -22.86,-23.4 410.94,-140.7 114.14,-23.5 h 68.52 l 45.69,23.5 45.61,70.3 22.82,70.4 22.82,-23.5 -205.46,-609.7 h -45.67 l 22.87,70.4 22.8,70.4 -22.8,70.3 -45.67,23.4 -114.17,46.9 -913.145,351.8 -68.481,23.4 h -68.46 l -45.677,-46.9 -68.459,-70.3 v -46.9 l -45.666,23.5 159.802,515.8 68.46,117.2 22.84,70.4 91.333,117.2 68.481,117.3 91.296,46.9 h 114.213 114.078 l 114.155,-93.8 91.33,-70.4 45.66,-140.6 v -187.6 l 502.22,140.6 159.76,70.4 91.34,46.9 68.46,70.3 45.69,117.3 45.69,-46.9 z" /></g><g
         transform="scale(1.18162)"
         id="g38"><path
           id="path40"
           style="fill:#231f20;fill-opacity:1;fill-rule:evenodd;stroke:none"
           d="m 1116.6,15959.2 -41.47,-85.3 v -85.2 -170.4 l 62.22,-106.5 62.22,-85.2 103.68,-106.6 124.44,-85.2 145.25,-85.2 124.37,-42.6 124.49,-21.3 h 124.42 l 145.15,42.6 62.25,63.9 62.21,63.9 62.2,170.5 v 106.5 l -20.7,85.2 -41.5,85.2 -82.96,106.5 -103.69,85.2 -124.46,85.2 -145.17,85.3 -124.44,63.9 -124.43,21.3 h -103.71 l -165.91,-63.9 -124.46,-127.8 z m -41.47,42.5 82.94,106.6 82.99,85.2 124.42,63.9 124.44,42.6 h 124.45 145.18 l 124.45,-42.6 124.44,-63.9 124.43,-85.2 103.71,-106.6 62.24,-127.8 41.47,-127.8 20.73,-149.1 v -127.8 l -20.73,-127.8 -62.26,-106.6 -82.94,-106.5 -103.72,-106.5 -103.71,-42.6 -124.37,-63.9 -145.19,-21.3 -124.48,21.3 -145.15,63.9 -124.46,63.8 -124.44,85.3 -103.68,106.5 -82.98,127.9 -41.473,149.1 v 127.8 127.8 l 41.473,127.8 62.22,106.5 v 0" /></g><g
         transform="scale(1.18162)"
         id="g42"><path
           id="path44"
           style="fill:none;stroke:#231f20;stroke-width:15.51850033;stroke-linecap:square;stroke-linejoin:miter;stroke-miterlimit:10;stroke-dasharray:none;stroke-opacity:1"
           d="m 1116.6,15959.2 -41.47,-85.3 v -85.2 -170.4 l 62.22,-106.5 62.22,-85.2 103.68,-106.6 124.44,-85.2 145.25,-85.2 124.37,-42.6 124.49,-21.3 h 124.42 l 145.15,42.6 62.25,63.9 62.21,63.9 62.2,170.5 v 106.5 l -20.7,85.2 -41.5,85.2 -82.96,106.5 -103.69,85.2 -124.46,85.2 -145.17,85.3 -124.44,63.9 -124.43,21.3 h -103.71 l -165.91,-63.9 -124.46,-127.8 z m -41.47,42.5 82.94,106.6 82.99,85.2 124.42,63.9 124.44,42.6 h 124.45 145.18 l 124.45,-42.6 124.44,-63.9 124.43,-85.2 103.71,-106.6 62.24,-127.8 41.47,-127.8 20.73,-149.1 v -127.8 l -20.73,-127.8 -62.26,-106.6 -82.94,-106.5 -103.72,-106.5 -103.71,-42.6 -124.37,-63.9 -145.19,-21.3 -124.48,21.3 -145.15,63.9 -124.46,63.8 -124.44,85.3 -103.68,106.5 -82.98,127.9 -41.473,149.1 v 127.8 127.8 l 41.473,127.8 62.22,106.5 z" /></g><g
         transform="scale(1.24649)"
         id="g46"><path
           id="path48"
           style="fill:#231f20;fill-opacity:1;fill-rule:evenodd;stroke:none"
           d="m 2847.66,15451.8 h 19.62 l -353.89,-424.1 -39.33,20.2 39.33,40.4 39.35,60.5 v 60.7 l -19.66,40.4 -78.67,60.5 -629.1,545.3 -78.7,40.4 -39.32,40.4 h -19.64 l -39.35,-20.2 -19.61,-20.2 -39.34,-20.2 -39.33,-40.4 -19.66,20.2 353.86,444.3 19.7,-40.4 -19.7,-20.2 -39.28,-60.6 v -60.6 l 19.66,-60.5 78.65,-60.6 629.17,-545.3 58.94,-40.4 39.36,-20.2 h 58.94 l 39.34,20.2 39.32,40.4 h 39.34 v 0" /></g><g
         transform="scale(1.24649)"
         id="g50"><path
           id="path52"
           style="fill:none;stroke:#231f20;stroke-width:14.71090031;stroke-linecap:square;stroke-linejoin:miter;stroke-miterlimit:10;stroke-dasharray:none;stroke-opacity:1"
           d="m 2847.66,15451.8 h 19.62 l -353.89,-424.1 -39.33,20.2 39.33,40.4 39.35,60.5 v 60.7 l -19.66,40.4 -78.67,60.5 -629.1,545.3 -78.7,40.4 -39.32,40.4 h -19.64 l -39.35,-20.2 -19.61,-20.2 -39.34,-20.2 -39.33,-40.4 -19.66,20.2 353.86,444.3 19.7,-40.4 -19.7,-20.2 -39.28,-60.6 v -60.6 l 19.66,-60.5 78.65,-60.6 629.17,-545.3 58.94,-40.4 39.36,-20.2 h 58.94 l 39.34,20.2 39.32,40.4 h 39.34 z" /></g><g
         transform="scale(1.32525)"
         id="g54"><path
           id="path56"
           style="fill:#231f20;fill-opacity:1;fill-rule:evenodd;stroke:none"
           d="m 2770.89,15540.2 443.78,-114 147.95,-19 55.47,-19 h 36.99 l 92.47,19 55.46,38 v -38 l -369.83,-341.9 -18.51,19 55.47,57 v 19 19 19 l -36.96,19 v 19 0 l -55.5,19 -37,19 -369.79,94.9 36.96,-417.9 v -57 -19 l 18.48,-37.9 v -19 l 36.98,-19 h 18.5 l 18.5,19 73.94,56.9 18.53,-56.9 -314.37,-285 -37,38 37,19 18.46,38 18.51,57 18.48,57 v 76 94.9 l -36.99,474.9 -406.83,95 -147.92,38 h -92.45 l -73.99,-38 -73.96,-38 -18.51,19 406.83,398.9 18.5,-38 -37,-38 -18.46,-38 v -37.9 l 18.46,-19 37,-19.1 55.47,-18.9 332.86,-95 -36.95,360.9 v 38 38 19 l -18.51,19 -18.5,19 h -18.48 -18.53 -18.47 l -36.99,-19 -36.98,-38 -18.5,38 314.38,265.9 h 18.51 l -18.51,-57 -18.45,-38 -18.53,-57 -18.5,-38 v -56.9 -114 l 37.03,-398.9 v 0" /></g><g
         transform="scale(1.32525)"
         id="g58"><path
           id="path60"
           style="fill:none;stroke:#231f20;stroke-width:13.8366003;stroke-linecap:square;stroke-linejoin:miter;stroke-miterlimit:10;stroke-dasharray:none;stroke-opacity:1"
           d="m 2770.89,15540.2 443.78,-114 147.95,-19 55.47,-19 h 36.99 l 92.47,19 55.46,38 v -38 l -369.83,-341.9 -18.51,19 55.47,57 v 19 19 19 l -36.96,19 v 19 0 l -55.5,19 -37,19 -369.79,94.9 36.96,-417.9 v -57 -19 l 18.48,-37.9 v -19 l 36.98,-19 h 18.5 l 18.5,19 73.94,56.9 18.53,-56.9 -314.37,-285 -37,38 37,19 18.46,38 18.51,57 18.48,57 v 76 94.9 l -36.99,474.9 -406.83,95 -147.92,38 h -92.45 l -73.99,-38 -73.96,-38 -18.51,19 406.83,398.9 18.5,-38 -37,-38 -18.46,-38 v -37.9 l 18.46,-19 37,-19.1 55.47,-18.9 332.86,-95 -36.95,360.9 v 38 38 19 l -18.51,19 -18.5,19 h -18.48 -18.53 -18.47 l -36.99,-19 -36.98,-38 -18.5,38 314.38,265.9 h 18.51 l -18.51,-57 -18.45,-38 -18.53,-57 -18.5,-38 v -56.9 -114 l 37.03,-398.9 z" /></g><g
         transform="scale(1.39779)"
         id="g62"><path
           id="path64"
           style="fill:#231f20;fill-opacity:1;fill-rule:evenodd;stroke:none"
           d="m 3731.62,15633.6 35.08,36.1 v 0 0 l 122.71,90 35.06,36.1 17.55,54 17.52,54 v 54 l -35.07,90.1 -52.56,90 -87.72,36 -87.66,18 -105.18,-36 -35.06,-36 -52.6,-54 227.93,-432.3 z m 999.36,-108 -263,-144.1 -613.65,288.2 -17.51,-36.1 -35.08,-17.9 h -17.55 v -18.1 h -17.49 v 0 l 157.77,-288.1 52.59,-90.1 35.1,-18 h 35.04 l 52.59,18 52.58,18.1 17.54,-18.1 -438.29,-252.1 -17.53,18 52.61,36 35.04,36.1 17.51,54 -17.51,36 -17.55,90.1 -368.17,630.3 -52.58,72 -35.09,36 -52.58,18 -35.06,-36 -52.6,-18 v 36 l 350.62,216.1 140.29,72.1 105.17,36 h 87.72 l 87.63,-18 70.12,-36 70.13,-90.1 35.06,-90 -17.51,-108.1 -35.07,-108 -87.65,-90.1 368.18,-180.1 105.18,-36 87.66,-18 h 87.69 l 70.11,18 17.54,-18 v 0" /></g><g
         transform="scale(1.39779)"
         id="g66"><path
           id="path68"
           style="fill:none;stroke:#231f20;stroke-width:13.11849976;stroke-linecap:square;stroke-linejoin:miter;stroke-miterlimit:10;stroke-dasharray:none;stroke-opacity:1"
           d="m 3731.62,15633.6 35.08,36.1 v 0 0 l 122.71,90 35.06,36.1 17.55,54 17.52,54 v 54 l -35.07,90.1 -52.56,90 -87.72,36 -87.66,18 -105.18,-36 -35.06,-36 -52.6,-54 227.93,-432.3 z m 999.36,-108 -263,-144.1 -613.65,288.2 -17.51,-36.1 -35.08,-17.9 h -17.55 v -18.1 h -17.49 v 0 l 157.77,-288.1 52.59,-90.1 35.1,-18 h 35.04 l 52.59,18 52.58,18.1 17.54,-18.1 -438.29,-252.1 -17.53,18 52.61,36 35.04,36.1 17.51,54 -17.51,36 -17.55,90.1 -368.17,630.3 -52.58,72 -35.09,36 -52.58,18 -35.06,-36 -52.6,-18 v 36 l 350.62,216.1 140.29,72.1 105.17,36 h 87.72 l 87.63,-18 70.12,-36 70.13,-90.1 35.06,-90 -17.51,-108.1 -35.07,-108 -87.65,-90.1 368.18,-180.1 105.18,-36 87.66,-18 h 87.69 l 70.11,18 17.54,-18 z" /></g><g
         transform="scale(1.44722)"
         id="g70"><path
           id="path72"
           style="fill:#231f20;fill-opacity:1;fill-rule:evenodd;stroke:none"
           d="m 4654.08,16213 -118.53,-87 -67.76,-104.3 -16.88,-87 v -104.4 l 33.85,-121.7 33.84,-121.8 50.81,-121.8 67.75,-104.3 67.7,-69.6 67.75,-52.2 67.73,-34.8 h 67.73 l 135.49,17.4 118.54,69.6 67.72,139.2 16.95,86.9 v 87 l -33.89,104.4 -33.87,121.7 -50.8,121.8 -67.74,104.3 -67.71,69.6 -67.74,69.6 -67.75,17.4 h -67.71 -135.48 z m 0,52.2 84.66,34.8 h 101.6 101.59 l 118.54,-34.8 169.35,-139.2 67.73,-86.9 50.82,-104.4 33.86,-121.8 16.97,-121.7 v -104.4 l -33.9,-121.8 -118.53,-173.9 -84.67,-69.6 -101.63,-52.2 -101.58,-34.7 h -101.62 -118.53 l -101.58,34.7 -101.61,69.6 -67.76,69.6 -67.73,104.4 -50.78,104.3 -33.89,121.8 -16.91,121.7 16.91,121.8 33.89,121.8 135.48,156.5 67.71,52.2 101.61,52.2 v 0" /></g><g
         transform="scale(1.44722)"
         id="g74"><path
           id="path76"
           style="fill:none;stroke:#231f20;stroke-width:12.6704998;stroke-linecap:square;stroke-linejoin:miter;stroke-miterlimit:10;stroke-dasharray:none;stroke-opacity:1"
           d="m 4654.08,16213 -118.53,-87 -67.76,-104.3 -16.88,-87 v -104.4 l 33.85,-121.7 33.84,-121.8 50.81,-121.8 67.75,-104.3 67.7,-69.6 67.75,-52.2 67.73,-34.8 h 67.73 l 135.49,17.4 118.54,69.6 67.72,139.2 16.95,86.9 v 87 l -33.89,104.4 -33.87,121.7 -50.8,121.8 -67.74,104.3 -67.71,69.6 -67.74,69.6 -67.75,17.4 h -67.71 -135.48 z m 0,52.2 84.66,34.8 h 101.6 101.59 l 118.54,-34.8 169.35,-139.2 67.73,-86.9 50.82,-104.4 33.86,-121.8 16.97,-121.7 v -104.4 l -33.9,-121.8 -118.53,-173.9 -84.67,-69.6 -101.63,-52.2 -101.58,-34.7 h -101.62 -118.53 l -101.58,34.7 -101.61,69.6 -67.76,69.6 -67.73,104.4 -50.78,104.3 -33.89,121.8 -16.91,121.7 16.91,121.8 33.89,121.8 135.48,156.5 67.71,52.2 101.61,52.2 z" /></g><g
         transform="scale(1.49592)"
         id="g78"><path
           id="path80"
           style="fill:#231f20;fill-opacity:1;fill-rule:evenodd;stroke:none"
           d="m 5835.13,16154.6 -2.89,33.6 335.72,111.8 17.76,-15.4 -47.54,-20.8 -47.57,-20.8 -28.34,-53 4.32,-50.3 38.33,-64.4 117.38,-412.6 45.49,-148.2 10.02,-117.4 -9.16,-85.2 -58.17,-89.2 -74.47,-90.5 -126.31,-61 -160.42,-46.9 -117.13,24.3 -102.24,42.3 -72.47,78.5 -19.18,32.2 -36.92,47.6 -23.48,82.5 -39.82,81.2 -133.68,411.3 -23.5,82.5 -35.49,30.8 -32.64,-2.6 -65.31,-5.3 -32.67,-2.7 -17.74,15.4 447.12,154.8 2.85,-33.6 -31.22,-19.4 -47.57,-20.8 -28.31,-53 1.42,-16.8 7.13,-83.8 154.3,-460.2 22.06,-65.8 38.36,-64.4 38.36,-64.4 20.61,-49 118.57,-40.9 83.07,-10.1 47.54,20.7 95.11,41.6 75.92,73.7 59.56,72.4 10.64,68.4 -8.58,100.7 -29.22,149.5 -150,410 -7.16,83.8 -51.84,29.6 -34.1,14.1 -48.92,-4 -47.58,-20.8 v 0" /></g><g
         transform="scale(1.49592)"
         id="g82"><path
           id="path84"
           style="fill:none;stroke:#231f20;stroke-width:12.25800037;stroke-linecap:square;stroke-linejoin:miter;stroke-miterlimit:10;stroke-dasharray:none;stroke-opacity:1"
           d="m 5835.13,16154.6 -2.89,33.6 335.72,111.8 17.76,-15.4 -47.54,-20.8 -47.57,-20.8 -28.34,-53 4.32,-50.3 38.33,-64.4 117.38,-412.6 45.49,-148.2 10.02,-117.4 -9.16,-85.2 -58.17,-89.2 -74.47,-90.5 -126.31,-61 -160.42,-46.9 -117.13,24.3 -102.24,42.3 -72.47,78.5 -19.18,32.2 -36.92,47.6 -23.48,82.5 -39.82,81.2 -133.68,411.3 -23.5,82.5 -35.49,30.8 -32.64,-2.6 -65.31,-5.3 -32.67,-2.7 -17.74,15.4 447.12,154.8 2.85,-33.6 -31.22,-19.4 -47.57,-20.8 -28.31,-53 1.42,-16.8 7.13,-83.8 154.3,-460.2 22.06,-65.8 38.36,-64.4 38.36,-64.4 20.61,-49 118.57,-40.9 83.07,-10.1 47.54,20.7 95.11,41.6 75.92,73.7 59.56,72.4 10.64,68.4 -8.58,100.7 -29.22,149.5 -150,410 -7.16,83.8 -51.84,29.6 -34.1,14.1 -48.92,-4 -47.58,-20.8 z" /></g><g
         transform="scale(1.50281)"
         id="g86"><path
           id="path88"
           style="fill:#231f20;fill-opacity:1;fill-rule:evenodd;stroke:none"
           d="m 7286.81,16300 65.21,-335 h -32.61 l -65.27,100.5 -65.21,83.7 -114.19,50.3 -146.73,16.7 -97.81,-16.7 -65.28,-50.3 -65.21,-50.2 -48.92,-83.8 -48.94,-150.7 -16.28,-83.8 v -83.7 l 32.6,-167.5 65.24,-117.3 81.51,-100.5 81.58,-67 114.12,-33.5 97.88,-16.8 48.91,16.8 65.21,16.7 97.88,50.3 -32.67,318.2 -16.3,67 -16.3,33.6 -16.3,33.5 -16.31,16.7 h -32.6 -65.28 v 33.5 l 407.77,16.8 v -16.8 h -16.31 l -48.97,-33.5 -32.61,-16.7 v -33.5 -83.8 l 32.61,-335 -81.51,-50.3 -81.58,-33.5 -97.82,-33.5 -97.82,-16.7 h -146.79 l -130.49,16.7 -114.12,50.3 -97.83,83.7 -65.24,67 -48.9,83.8 -48.95,167.5 32.6,167.5 16.35,134 81.52,134.1 114.14,117.2 114.13,67 146.79,33.5 h 65.21 48.98 l 65.21,-16.8 h 65.21 l 32.61,-16.7 h 32.6 16.3 v 16.7 l 16.31,16.8 v 33.5 h 32.67 v 0" /></g><g
         transform="scale(1.50281)"
         id="g90"><path
           id="path92"
           style="fill:none;stroke:#231f20;stroke-width:12.20180035;stroke-linecap:square;stroke-linejoin:miter;stroke-miterlimit:10;stroke-dasharray:none;stroke-opacity:1"
           d="m 7286.81,16300 65.21,-335 h -32.61 l -65.27,100.5 -65.21,83.7 -114.19,50.3 -146.73,16.7 -97.81,-16.7 -65.28,-50.3 -65.21,-50.2 -48.92,-83.8 -48.94,-150.7 -16.28,-83.8 v -83.7 l 32.6,-167.5 65.24,-117.3 81.51,-100.5 81.58,-67 114.12,-33.5 97.88,-16.8 48.91,16.8 65.21,16.7 97.88,50.3 -32.67,318.2 -16.3,67 -16.3,33.6 -16.3,33.5 -16.31,16.7 h -32.6 -65.28 v 33.5 l 407.77,16.8 v -16.8 h -16.31 l -48.97,-33.5 -32.61,-16.7 v -33.5 -83.8 l 32.61,-335 -81.51,-50.3 -81.58,-33.5 -97.82,-33.5 -97.82,-16.7 h -146.79 l -130.49,16.7 -114.12,50.3 -97.83,83.7 -65.24,67 -48.9,83.8 -48.95,167.5 32.6,167.5 16.35,134 81.52,134.1 114.14,117.2 114.13,67 146.79,33.5 h 65.21 48.98 l 65.21,-16.8 h 65.21 l 32.61,-16.7 h 32.6 16.3 v 16.7 l 16.31,16.8 v 33.5 h 32.67 z" /></g><g
         transform="scale(1.50281)"
         id="g94"><path
           id="path96"
           style="fill:#231f20;fill-opacity:1;fill-rule:evenodd;stroke:none"
           d="m 7873.84,16233 -16.3,-435.5 h 244.61 l 81.51,33.5 h 32.67 l 32.61,50.2 16.3,83.8 h 32.61 v -368.6 h -32.61 v 67 l -16.3,33.6 -48.91,50.2 h -32.67 -65.21 -244.61 v -351.7 -50.3 l 16.3,-33.5 v -16.8 l 16.3,-16.7 h 32.61 32.61 179.39 65.28 65.21 l 32.61,16.7 48.9,33.5 48.91,67.1 32.67,83.7 h 48.85 l -97.82,-268 h -831.64 v 33.5 h 48.91 32.6 l 32.61,16.7 16.3,16.8 16.3,33.5 16.37,33.5 v 67 703.5 83.8 l -16.37,33.5 -32.6,33.5 h -65.21 -32.68 v 33.5 h 831.71 v -251.2 h -32.6 l -16.31,83.7 -16.3,33.5 -32.6,33.5 -32.61,16.7 -32.67,16.8 h -65.21 -293.52 v 0" /></g><g
         transform="scale(1.50281)"
         id="g98"><path
           id="path100"
           style="fill:none;stroke:#231f20;stroke-width:12.20180035;stroke-linecap:square;stroke-linejoin:miter;stroke-miterlimit:10;stroke-dasharray:none;stroke-opacity:1"
           d="m 7873.84,16233 -16.3,-435.5 h 244.61 l 81.51,33.5 h 32.67 l 32.61,50.2 16.3,83.8 h 32.61 v -368.6 h -32.61 v 67 l -16.3,33.6 -48.91,50.2 h -32.67 -65.21 -244.61 v -351.7 -50.3 l 16.3,-33.5 v -16.8 l 16.3,-16.7 h 32.61 32.61 179.39 65.28 65.21 l 32.61,16.7 48.9,33.5 48.91,67.1 32.67,83.7 h 48.85 l -97.82,-268 h -831.64 v 33.5 h 48.91 32.6 l 32.61,16.7 16.3,16.8 16.3,33.5 16.37,33.5 v 67 703.5 83.8 l -16.37,33.5 -32.6,33.5 h -65.21 -32.68 v 33.5 h 831.71 v -251.2 h -32.6 l -16.31,83.7 -16.3,33.5 -32.6,33.5 -32.61,16.7 -32.67,16.8 h -65.21 -293.52 z" /></g><g
         transform="scale(1.49925)"
         id="g102"><path
           id="path104"
           style="fill:#231f20;fill-opacity:1;fill-rule:evenodd;stroke:none"
           d="m 9265.61,15712.3 h 16.34 32.68 v 0 h 130.8 l 98.05,33.6 81.71,84 32.75,83.9 v 67.2 l -32.75,84 -65.37,67.1 -98.11,33.6 h -49.03 -65.3 l -81.77,-453.4 z m 653.79,-671.6 -277.87,50.4 -277.87,570.9 h -32.69 -16.34 -32.68 -16.34 l -65.37,-285.5 v -50.4 -50.3 -33.6 l 32.75,-33.6 48.96,-16.8 49.02,-16.8 v -33.5 l -441.35,83.9 v 33.6 h 49.09 49.03 l 32.68,16.8 16.34,33.6 32.69,83.9 114.39,688.4 v 84 50.4 l -32.69,16.7 -49.02,33.6 h -32.68 v 33.6 l 375.98,-67.2 130.8,-33.5 114.32,-33.6 65.43,-50.4 49.1,-67.1 32.68,-84 v -84 l -32.68,-83.9 -65.44,-84 -81.7,-50.3 H 9527.2 l 163.35,-352.6 49.09,-100.8 49.03,-67.1 65.36,-33.6 81.78,-33.6 -16.41,-33.6 v 0" /></g><g
         transform="scale(1.49925)"
         id="g106"><path
           id="path108"
           style="fill:none;stroke:#231f20;stroke-width:12.23069954;stroke-linecap:square;stroke-linejoin:miter;stroke-miterlimit:10;stroke-dasharray:none;stroke-opacity:1"
           d="m 9265.61,15712.3 h 16.34 32.68 v 0 h 130.8 l 98.05,33.6 81.71,84 32.75,83.9 v 67.2 l -32.75,84 -65.37,67.1 -98.11,33.6 h -49.03 -65.3 l -81.77,-453.4 z m 653.79,-671.6 -277.87,50.4 -277.87,570.9 h -32.69 -16.34 -32.68 -16.34 l -65.37,-285.5 v -50.4 -50.3 -33.6 l 32.75,-33.6 48.96,-16.8 49.02,-16.8 v -33.5 l -441.35,83.9 v 33.6 h 49.09 49.03 l 32.68,16.8 16.34,33.6 32.69,83.9 114.39,688.4 v 84 50.4 l -32.69,16.7 -49.02,33.6 h -32.68 v 33.6 l 375.98,-67.2 130.8,-33.5 114.32,-33.6 65.43,-50.4 49.1,-67.1 32.68,-84 v -84 l -32.68,-83.9 -65.44,-84 -81.7,-50.3 H 9527.2 l 163.35,-352.6 49.09,-100.8 49.03,-67.1 65.36,-33.6 81.78,-33.6 -16.41,-33.6 z" /></g><g
         transform="scale(1.48381)"
         id="g110"><path
           id="path112"
           style="fill:#231f20;fill-opacity:1;fill-rule:evenodd;stroke:none"
           d="m 11657.8,15825 -16.6,-17 -49.5,17 h -16.5 l -33,-17 -33,-33.9 -16.6,-33.9 h -16.5 l -49.5,-67.9 -561.5,-763.5 h -16.6 l -33,763.5 -446,-610.8 -16.5,17 -49.5,967 v 84.8 17 17 l -16.5,33.9 -16.6,34 -33,16.9 -33,17 16.5,33.9 379.8,-135.7 -16.5,-17 h -16.5 l -33,17 -33,-17 -16.5,-17 h -16.6 v -50.8 -84.9 l 16.6,-661.6 330.3,441.1 v 101.8 l -16.6,84.8 v 33.9 50.9 h -16.5 v 34 h -16.5 -16.5 l -16.5,16.9 -33.1,33.9 v 0 l 412.9,-118.7 -16.5,-17 h -16.5 -49.5 -33 l -16.6,-33.9 h -16.5 v -84.8 -67.9 l 16.5,-644.7 379.9,525.9 49.5,51 16.6,67.8 16.5,17 h -16.5 v 33.9 l -16.6,17 h -32.9 l -33.1,33.9 v 33.9 l 313.8,-118.7 v 0" /></g><g
         transform="scale(1.48381)"
         id="g114"><path
           id="path116"
           style="fill:none;stroke:#231f20;stroke-width:12.3579998;stroke-linecap:square;stroke-linejoin:miter;stroke-miterlimit:10;stroke-dasharray:none;stroke-opacity:1"
           d="m 11657.8,15825 -16.6,-17 -49.5,17 h -16.5 l -33,-17 -33,-33.9 -16.6,-33.9 h -16.5 l -49.5,-67.9 -561.5,-763.5 h -16.6 l -33,763.5 -446,-610.8 -16.5,17 -49.5,967 v 84.8 17 17 l -16.5,33.9 -16.6,34 -33,16.9 -33,17 16.5,33.9 379.8,-135.7 -16.5,-17 h -16.5 l -33,17 -33,-17 -16.5,-17 h -16.6 v -50.8 -84.9 l 16.6,-661.6 330.3,441.1 v 101.8 l -16.6,84.8 v 33.9 50.9 h -16.5 v 34 h -16.5 -16.5 l -16.5,16.9 -33.1,33.9 v 0 l 412.9,-118.7 -16.5,-17 h -16.5 -49.5 -33 l -16.6,-33.9 h -16.5 v -84.8 -67.9 l 16.5,-644.7 379.9,525.9 49.5,51 16.6,67.8 16.5,17 h -16.5 v 33.9 l -16.6,17 h -32.9 l -33.1,33.9 v 33.9 l 313.8,-118.7 z" /></g><g
         transform="scale(1.4225)"
         id="g118"><path
           id="path120"
           style="fill:#231f20;fill-opacity:1;fill-rule:evenodd;stroke:none"
           d="m 12470.3,15556.8 17.3,513.2 -396.3,-336.3 379,-176.9 z m -34.5,-70.8 -378.9,194.6 -137.8,-123.8 -51.7,-35.4 -17.3,-35.4 -17.2,-35.4 17.2,-17.7 34.4,-35.4 51.8,-35.4 -17.2,-35.4 -310.1,159.3 v 17.7 h 68.9 34.4 l 69,35.4 86.1,70.7 740.8,690.2 51.7,-17.7 -51.7,-1026.4 v -123.9 -53.1 l 17.2,-53 68.9,-35.4 -34.4,-17.7 -396.3,194.6 34.4,35.4 51.8,-35.4 h 34.4 17.3 l 34.3,35.4 v 53.1 53.1 177 0" /></g><g
         transform="scale(1.4225)"
         id="g122"><path
           id="path124"
           style="fill:none;stroke:#231f20;stroke-width:12.89070034;stroke-linecap:square;stroke-linejoin:miter;stroke-miterlimit:10;stroke-dasharray:none;stroke-opacity:1"
           d="m 12470.3,15556.8 17.3,513.2 -396.3,-336.3 379,-176.9 z m -34.5,-70.8 -378.9,194.6 -137.8,-123.8 -51.7,-35.4 -17.3,-35.4 -17.2,-35.4 17.2,-17.7 34.4,-35.4 51.8,-35.4 -17.2,-35.4 -310.1,159.3 v 17.7 h 68.9 34.4 l 69,35.4 86.1,70.7 740.8,690.2 51.7,-17.7 -51.7,-1026.4 v -123.9 -53.1 l 17.2,-53 68.9,-35.4 -34.4,-17.7 -396.3,194.6 34.4,35.4 51.8,-35.4 h 34.4 17.3 l 34.3,35.4 v 53.1 53.1 177 z" /></g><g
         transform="scale(1.39162)"
         id="g126"><path
           id="path128"
           style="fill:#231f20;fill-opacity:1;fill-rule:evenodd;stroke:none"
           d="m 13539.6,16300 246.5,-180.9 105.7,-1121.5 369.8,560.7 35.2,54.3 17.6,54.2 -17.6,36.2 -35.2,54.3 -35.2,18.1 17.6,36.2 334.7,-217.1 -17.7,-36.2 -35.2,36.2 h -70.5 -52.8 l -35.3,-36.2 -52.8,-54.2 -546,-814.1 -17.5,18.1 -105.6,1212 -405.1,-596.9 -35.2,-72.4 v -36.2 -54.2 l 52.7,-36.2 35.3,-18.1 -35.3,-36.2 -316.9,235.2 35.3,18.1 v -18.1 l 88,-18.1 h 52.8 l 17.7,18.1 70.4,72.3 422.6,669.3 v 72.4 l -17.6,36.2 -17.6,36.1 -17.5,36.2 -17.7,18.1 -35.2,36.2 17.6,18.1 v 0" /></g><g
         transform="scale(1.39162)"
         id="g130"><path
           id="path132"
           style="fill:none;stroke:#231f20;stroke-width:13.17679977;stroke-linecap:square;stroke-linejoin:miter;stroke-miterlimit:10;stroke-dasharray:none;stroke-opacity:1"
           d="m 13539.6,16300 246.5,-180.9 105.7,-1121.5 369.8,560.7 35.2,54.3 17.6,54.2 -17.6,36.2 -35.2,54.3 -35.2,18.1 17.6,36.2 334.7,-217.1 -17.7,-36.2 -35.2,36.2 h -70.5 -52.8 l -35.3,-36.2 -52.8,-54.2 -546,-814.1 -17.5,18.1 -105.6,1212 -405.1,-596.9 -35.2,-72.4 v -36.2 -54.2 l 52.7,-36.2 35.3,-18.1 -35.3,-36.2 -316.9,235.2 35.3,18.1 v -18.1 l 88,-18.1 h 52.8 l 17.7,18.1 70.4,72.3 422.6,669.3 v 72.4 l -17.6,36.2 -17.6,36.1 -17.5,36.2 -17.7,18.1 -35.2,36.2 17.6,18.1 z" /></g><g
         transform="scale(1.32057)"
         id="g134"><path
           id="path136"
           style="fill:#231f20;fill-opacity:1;fill-rule:evenodd;stroke:none"
           d="m 14954.5,15232.5 55.8,-95.3 55.6,-57.2 167.1,-114.4 h 92.8 l 92.8,-38.1 92.7,38.1 92.8,19.1 92.9,76.2 92.6,76.3 92.9,95.3 55.7,95.3 18.5,95.3 18.5,95.3 -18.5,95.4 -18.5,95.3 -111.4,171.5 -74.2,57.2 -74.3,57.2 -723.8,-762.5 z m -315.3,190.6 18.5,19.1 37.1,-38.2 55.7,-38.1 h 55.6 l 55.7,19.1 55.7,57.2 556.7,590.9 55.6,76.3 18.7,38.1 -18.7,57.2 -37,38.1 -18.6,38.1 18.6,19.1 352.6,-343.1 167,-190.7 55.6,-76.2 37.2,-76.2 37.1,-152.6 -18.6,-171.5 -74.3,-152.5 -92.7,-152.5 -92.8,-76.3 -111.3,-38.1 -92.8,-57.2 h -111.3 -129.9 l -130,19.1 -129.8,76.2 -130,114.4 -389.6,400.3 v 0" /></g><g
         transform="scale(1.32057)"
         id="g138"><path
           id="path140"
           style="fill:none;stroke:#231f20;stroke-width:13.88560009;stroke-linecap:square;stroke-linejoin:miter;stroke-miterlimit:10;stroke-dasharray:none;stroke-opacity:1"
           d="m 14954.5,15232.5 55.8,-95.3 55.6,-57.2 167.1,-114.4 h 92.8 l 92.8,-38.1 92.7,38.1 92.8,19.1 92.9,76.2 92.6,76.3 92.9,95.3 55.7,95.3 18.5,95.3 18.5,95.3 -18.5,95.4 -18.5,95.3 -111.4,171.5 -74.2,57.2 -74.3,57.2 -723.8,-762.5 z m -315.3,190.6 18.5,19.1 37.1,-38.2 55.7,-38.1 h 55.6 l 55.7,19.1 55.7,57.2 556.7,590.9 55.6,76.3 18.7,38.1 -18.7,57.2 -37,38.1 -18.6,38.1 18.6,19.1 352.6,-343.1 167,-190.7 55.6,-76.2 37.2,-76.2 37.1,-152.6 -18.6,-171.5 -74.3,-152.5 -92.7,-152.5 -92.8,-76.3 -111.3,-38.1 -92.8,-57.2 h -111.3 -129.9 l -130,19.1 -129.8,76.2 -130,114.4 -389.6,400.3 z" /></g><g
         transform="scale(1.37094)"
         id="g142"><path
           id="path144"
           style="fill:#231f20;fill-opacity:1;fill-rule:evenodd;stroke:none"
           d="m 15763.8,13644.6 268.1,440.7 -500.5,-91.8 232.4,-348.9 z m -35.7,-55.1 -268.3,385.6 -196.5,-36.7 -53.7,-18.4 -35.7,-18.3 -17.9,-36.7 -17.8,-18.4 17.8,-36.7 17.9,-73.5 -17.9,-18.4 -214.5,312.3 35.8,18.3 35.7,-36.7 35.7,-18.4 h 89.5 l 107.2,18.4 1018.9,201.9 35.7,-36.7 -571.9,-899.7 -53.7,-91.8 -35.8,-73.5 18,-55.1 17.8,-55.1 -17.8,-18.3 -268.2,385.6 17.8,18.3 53.6,-36.7 35.9,-18.3 35.7,-18.4 17.9,18.4 35.8,36.7 35.7,55.1 107.3,165.2 v 0" /></g><g
         transform="scale(1.37094)"
         id="g146"><path
           id="path148"
           style="fill:none;stroke:#231f20;stroke-width:13.37549973;stroke-linecap:square;stroke-linejoin:miter;stroke-miterlimit:10;stroke-dasharray:none;stroke-opacity:1"
           d="m 15763.8,13644.6 268.1,440.7 -500.5,-91.8 232.4,-348.9 z m -35.7,-55.1 -268.3,385.6 -196.5,-36.7 -53.7,-18.4 -35.7,-18.3 -17.9,-36.7 -17.8,-18.4 17.8,-36.7 17.9,-73.5 -17.9,-18.4 -214.5,312.3 35.8,18.3 35.7,-36.7 35.7,-18.4 h 89.5 l 107.2,18.4 1018.9,201.9 35.7,-36.7 -571.9,-899.7 -53.7,-91.8 -35.8,-73.5 18,-55.1 17.8,-55.1 -17.8,-18.3 -268.2,385.6 17.8,18.3 53.6,-36.7 35.9,-18.3 35.7,-18.4 17.9,18.4 35.8,36.7 35.7,55.1 107.3,165.2 z" /></g><g
         transform="scale(1.41906)"
         id="g150"><path
           id="path152"
           style="fill:#231f20;fill-opacity:1;fill-rule:evenodd;stroke:none"
           d="m 15315.6,12117.6 -17.3,-17.7 -207.2,443.5 34.6,17.7 17.2,-53.2 34.5,-35.5 34.6,-17.8 h 51.8 l 51.8,17.8 673.6,319.3 69,35.5 17.4,35.5 17.2,17.7 v 17.7 53.3 l -17.2,35.4 v 35.5 l 17.2,17.7 207.2,-443.5 h -17.3 l -17.2,17.8 -34.6,53.2 -51.8,17.7 h -34.5 l -86.4,-35.4 -656.2,-319.4 -86.4,-17.7 v -35.5 l -17.3,-17.7 v -17.7 -53.3 l 17.3,-35.4 v -35.5 0" /></g><g
         transform="scale(1.41906)"
         id="g154"><path
           id="path156"
           style="fill:none;stroke:#231f20;stroke-width:12.92199993;stroke-linecap:square;stroke-linejoin:miter;stroke-miterlimit:10;stroke-dasharray:none;stroke-opacity:1"
           d="m 15315.6,12117.6 -17.3,-17.7 -207.2,443.5 34.6,17.7 17.2,-53.2 34.5,-35.5 34.6,-17.8 h 51.8 l 51.8,17.8 673.6,319.3 69,35.5 17.4,35.5 17.2,17.7 v 17.7 53.3 l -17.2,35.4 v 35.5 l 17.2,17.7 207.2,-443.5 h -17.3 l -17.2,17.8 -34.6,53.2 -51.8,17.7 h -34.5 l -86.4,-35.4 -656.2,-319.4 -86.4,-17.7 v -35.5 l -17.3,-17.7 v -17.7 -53.3 l 17.3,-35.4 v -35.5 z" /></g><g
         transform="scale(1.44762)"
         id="g158"><path
           id="path160"
           style="fill:#231f20;fill-opacity:1;fill-rule:evenodd;stroke:none"
           d="m 16300,11495.9 -372.3,-121.7 v 34.8 l 84.6,34.7 67.7,69.6 33.8,69.6 33.8,69.5 v 69.6 l -16.8,69.5 -33.9,87 -50.8,52.1 -67.7,17.4 h -67.7 l -33.9,-34.7 -33.8,-34.8 -50.8,-104.4 -16.9,-86.9 -16.9,-86.9 -17,-156.6 -50.7,-104.3 -34,-52.2 -33.8,-52.1 -50.8,-52.2 -50.8,-17.4 -84.7,-17.4 h -33.8 l -135.5,34.8 -84.6,87 -84.6,139.1 v 52.1 34.8 34.8 86.9 69.6 34.8 17.4 h -17 l -33.8,17.3 h -33.9 v 17.4 l 338.6,121.8 33.9,-34.8 -84.6,-52.2 -67.7,-52.2 -50.9,-69.5 -33.8,-69.6 v -86.9 l 33.8,-87 33.9,-86.9 50.7,-52.1 84.7,-34.8 50.8,17.3 33.8,17.5 50.8,17.3 33.9,52.2 v 52.1 l 17,17.4 33.8,52.2 v 121.7 l 33.9,87 v 52.1 l 50.7,104.4 17,69.5 33.8,52.2 50.9,34.8 67.6,17.4 h 118.6 50.8 l 50.7,-17.4 84.7,-69.6 67.7,-121.7 16.9,-104.3 v -104.4 l -16.9,-34.7 16.9,-34.8 v -17.4 h 17 l 33.8,-17.4 h 16.9 l 16.9,-17.4 v 0" /></g><g
         transform="scale(1.44762)"
         id="g162"><path
           id="path164"
           style="fill:none;stroke:#231f20;stroke-width:12.66699982;stroke-linecap:square;stroke-linejoin:miter;stroke-miterlimit:10;stroke-dasharray:none;stroke-opacity:1"
           d="m 16300,11495.9 -372.3,-121.7 v 34.8 l 84.6,34.7 67.7,69.6 33.8,69.6 33.8,69.5 v 69.6 l -16.8,69.5 -33.9,87 -50.8,52.1 -67.7,17.4 h -67.7 l -33.9,-34.7 -33.8,-34.8 -50.8,-104.4 -16.9,-86.9 -16.9,-86.9 -17,-156.6 -50.7,-104.3 -34,-52.2 -33.8,-52.1 -50.8,-52.2 -50.8,-17.4 -84.7,-17.4 h -33.8 l -135.5,34.8 -84.6,87 -84.6,139.1 v 52.1 34.8 34.8 86.9 69.6 34.8 17.4 h -17 l -33.8,17.3 h -33.9 v 17.4 l 338.6,121.8 33.9,-34.8 -84.6,-52.2 -67.7,-52.2 -50.9,-69.5 -33.8,-69.6 v -86.9 l 33.8,-87 33.9,-86.9 50.7,-52.1 84.7,-34.8 50.8,17.3 33.8,17.5 50.8,17.3 33.9,52.2 v 52.1 l 17,17.4 33.8,52.2 v 121.7 l 33.9,87 v 52.1 l 50.7,104.4 17,69.5 33.8,52.2 50.9,34.8 67.6,17.4 h 118.6 50.8 l 50.7,-17.4 84.7,-69.6 67.7,-121.7 16.9,-104.3 v -104.4 l -16.9,-34.7 16.9,-34.8 v -17.4 h 17 l 33.8,-17.4 h 16.9 l 16.9,-17.4 z" /></g><g
         transform="scale(1.47789)"
         id="g166"><path
           id="path168"
           style="fill:#231f20;fill-opacity:1;fill-rule:evenodd;stroke:none"
           d="m 16100.1,10697.4 -397.2,-127 42.9,-217.4 49.1,-77.5 26.1,-47.1 52.2,-7.5 84.7,-1.4 3.2,-16.7 -364.5,-120.9 -6.7,33.5 61.9,29 45.5,25.9 -3.2,16.8 9.6,36.5 6.5,53.2 -10,50.2 -78.7,228 -315.7,-111.6 -81.4,-15.4 v 0 l -16.3,-3.1 -26,-39.6 3.3,-16.7 6.6,-33.4 68.8,-177.9 32.8,-80.5 9.8,-50.2 39.2,-27.27 22.9,-30.4 91.3,-34.82 87.9,-18.09 6.7,-33.45 -273.7,17.74 -242.9,804.19 32.6,6.1 6.5,-33.4 26.2,-47.1 6.6,-33.5 35.8,-10.5 v 0 l 52.2,-7.5 45.6,25.9 686.9,199 78.2,32.1 29.2,22.9 26,39.6 -13.1,66.9 -23,30.4 29.3,22.8 246.2,-820.9 -221.3,-76.4 -6.7,33.4 61.9,29 42.2,42.7 9.8,36.5 9.6,36.6 6.4,53.2 -29.4,63.8 -72.4,281.3 v 0" /></g><g
         transform="scale(1.47789)"
         id="g170"><path
           id="path172"
           style="fill:none;stroke:#231f20;stroke-width:12.4076004;stroke-linecap:square;stroke-linejoin:miter;stroke-miterlimit:10;stroke-dasharray:none;stroke-opacity:1"
           d="m 16100.1,10697.4 -397.2,-127 42.9,-217.4 49.1,-77.5 26.1,-47.1 52.2,-7.5 84.7,-1.4 3.2,-16.7 -364.5,-120.9 -6.7,33.5 61.9,29 45.5,25.9 -3.2,16.8 9.6,36.5 6.5,53.2 -10,50.2 -78.7,228 -315.7,-111.6 -81.4,-15.4 v 0 l -16.3,-3.1 -26,-39.6 3.3,-16.7 6.6,-33.4 68.8,-177.9 32.8,-80.5 9.8,-50.2 39.2,-27.27 22.9,-30.4 91.3,-34.82 87.9,-18.09 6.7,-33.45 -273.7,17.74 -242.9,804.19 32.6,6.1 6.5,-33.4 26.2,-47.1 6.6,-33.5 35.8,-10.5 v 0 l 52.2,-7.5 45.6,25.9 686.9,199 78.2,32.1 29.2,22.9 26,39.6 -13.1,66.9 -23,30.4 29.3,22.8 246.2,-820.9 -221.3,-76.4 -6.7,33.4 61.9,29 42.2,42.7 9.8,36.5 9.6,36.6 6.4,53.2 -29.4,63.8 -72.4,281.3 z" /></g><path
         id="path174"
         style="fill:#231f20;fill-opacity:1;fill-rule:nonzero;stroke:none"
         d="m 618.313,11412.7 c -3.192,56.6 -14.309,112.7 -33.309,168.5 -26.961,80.2 -40.453,135.4 -40.453,165.8 0,42.6 9.816,74.8 29.375,97 19.594,22.1 43.812,33.1 72.621,33.1 24.824,0 46.371,-11 64.793,-33.1 18.41,-22.2 27.609,-53.7 27.609,-94.6 0,-36.8 -10.597,-88.3 -31.777,-154.3 -21.133,-65.9 -34.152,-126.7 -38.922,-182.5 44.004,28.7 83.535,63.5 118.746,104.5 54.336,64.8 94.649,104.9 120.942,120.5 26.253,15.5 52.91,23.3 80.039,23.3 26.263,0 48.363,-9.2 66.283,-27.7 17.89,-18.4 26.87,-40.4 26.87,-65.8 0,-30.4 -13.06,-57.5 -39.12,-81.3 -26.08,-23.8 -91.905,-47.5 -197.436,-71.3 -61.562,-14 -112.797,-30 -153.543,-48 41.559,-22.2 92.379,-39 152.371,-50.5 96.746,-18.1 160.108,-40.7 190.108,-67.7 29.98,-27.1 44.99,-56.6 44.99,-88.7 0,-24.5 -9,-45.9 -26.97,-64 -18.02,-18 -39.01,-27 -63.003,-27 -24.007,0 -50.64,8.6 -79.789,25.8 -29.226,17.2 -68.597,55.8 -118.129,115.6 -32.777,40 -73.609,77.9 -122.359,113.1 1.598,-46.8 10.777,-97.6 27.594,-152.5 28.761,-96.8 43.105,-163 43.105,-198.4 0,-32.9 -9.609,-60.7 -28.828,-83.3 -19.238,-22.7 -39.582,-33.9 -61.152,-33.9 -29.629,0 -56.406,11.9 -80.43,35.7 -16.82,17.3 -25.168,44.9 -25.168,82.8 0,39.5 9.094,87 27.356,142.4 18.261,55.3 29.707,93.4 34.5,114.4 4.718,20.9 9.117,51.8 13.086,92.8 -47.09,-32 -88.153,-67.6 -123.227,-107 -58.227,-67.2 -102.082,-109.9 -131.695,-127.9 -20.836,-13 -42.453,-19.6 -64.813,-19.6 -27.168,0 -50.402,9.4 -69.594,28.3 -19.222,18.9 -28.789,39.7 -28.789,62.7 0,20.6 8.176,42.1 24.555,64.7 16.387,22.5 41.016,41.2 73.828,56 21.598,9.8 70.758,23 147.399,39.4 49.535,10.6 97.836,26.3 144.933,46.9 -43.113,22.1 -94.629,39.4 -154.527,51.6 -98.297,21.4 -159.028,40.7 -182.207,57.9 -36,27 -53.981,59.9 -53.981,98.5 0,22.2 9.004,42.4 26.965,60.9 18,18.4 39.035,27.7 63.012,27.7 26.344,0 54.383,-8.6 83.973,-25.8 29.589,-17.2 66.308,-51.9 110.222,-103.9 43.789,-52.1 88.508,-92.4 133.946,-121.1" /><g
         transform="scale(1.45394)"
         id="g176"><path
           id="path178"
           style="fill:#231f20;fill-opacity:1;fill-rule:nonzero;stroke:none"
           d="m 15981.6,7849.47 c -2.2,38.93 -9.8,77.52 -22.9,115.89 -18.5,55.17 -27.8,93.13 -27.8,114.04 0,29.3 6.8,51.45 20.2,66.71 13.5,15.21 30.1,22.77 50,22.77 17,0 31.8,-7.56 44.6,-22.77 12.6,-15.26 18.9,-36.93 18.9,-65.06 0,-25.31 -7.3,-60.73 -21.8,-106.12 -14.6,-45.33 -23.6,-87.15 -26.8,-125.53 30.2,19.74 57.4,43.68 81.7,71.88 37.3,44.56 65,72.15 83.1,82.88 18.1,10.66 36.4,16.02 55,16.02 18.1,0 33.4,-6.33 45.6,-19.05 12.3,-12.66 18.6,-27.79 18.6,-45.26 0,-20.91 -9.1,-39.54 -27,-55.91 -17.9,-16.37 -63.2,-32.67 -135.7,-49.04 -42.4,-9.63 -77.6,-20.64 -105.6,-33.02 28.5,-15.26 63.5,-26.82 104.7,-34.73 66.6,-12.45 110.2,-27.99 130.8,-46.56 20.6,-18.64 31,-38.93 31,-61.01 0,-16.85 -6.2,-31.57 -18.6,-44.02 -12.4,-12.38 -26.8,-18.57 -43.4,-18.57 -16.5,0 -34.8,5.92 -54.8,17.75 -20.1,11.83 -47.2,38.38 -81.3,79.51 -22.5,27.51 -50.5,53.57 -84.1,77.78 1,-32.18 7.4,-67.12 19,-104.88 19.7,-66.58 29.6,-112.11 29.6,-136.46 0,-22.63 -6.6,-41.75 -19.8,-57.29 -13.2,-15.61 -27.2,-23.32 -42.1,-23.32 -20.4,0 -38.8,8.19 -55.3,24.56 -11.6,11.89 -17.4,30.88 -17.4,56.94 0,27.17 6.3,59.84 18.9,97.94 12.6,38.04 20.4,64.24 23.7,78.69 3.2,14.37 6.3,35.63 9,63.82 -32.4,-22 -60.6,-46.49 -84.8,-73.59 -40,-46.22 -70.2,-75.59 -90.5,-87.97 -14.3,-8.94 -29.2,-13.48 -44.6,-13.48 -18.7,0 -34.6,6.47 -47.9,19.47 -13.2,13 -19.7,27.3 -19.7,43.12 0,14.17 5.6,28.96 16.9,44.5 11.2,15.48 28.2,28.34 50.7,38.52 14.9,6.74 48.7,15.82 101.4,27.1 34.1,7.29 67.4,18.08 99.7,32.25 -29.7,15.2 -65.1,27.1 -106.4,35.49 -67.5,14.72 -109.2,27.99 -125.2,39.83 -24.8,18.56 -37.1,41.19 -37.1,67.74 0,15.27 6.2,29.16 18.5,41.89 12.4,12.65 26.8,19.05 43.4,19.05 18.1,0 37.4,-5.91 57.7,-17.75 20.3,-11.83 45.6,-35.69 75.8,-71.46 30.2,-35.83 60.8,-63.55 92.1,-83.29" /></g><path
         id="path180"
         style="fill:#231f20;fill-opacity:1;fill-rule:evenodd;stroke:none"
         d="m 1259.61,8354.9 28.01,-21.4 3.79,-24.9 3.83,-24.9 106.86,-213.5 143.94,-131.7 156.82,-53.4 72.72,10.6 93.13,39 137.87,71.1 81.78,113.7 25.76,156.5 -47.05,145.8 -39.41,96.1 -67.47,117.4 -700.58,-280.4 z M 881.281,6772.5 736.473,7235 l 533.037,892.2 -35.62,71.2 -7.61,49.8 -28.02,21.4 -3.78,24.8 -3.8,24.9 -490.032,-198.8 -89.375,-64 -93.156,-39 -12.84,-78.2 15.137,-99.6 35.652,-71.1 -24.257,-3.6 -287.289,747 48.511,7.1 7.621,-49.7 39.379,-96.1 104.524,-35.6 76.484,-14.3 117.41,42.6 1049.061,433.2 145.38,21.1 61.36,85.4 16.65,53.3 -18.96,124.4 -35.63,71.2 48.49,7.1 244.05,-626.1 47,-145.9 39.41,-96 26.57,-174.3 -1.45,-152.9 -53.78,-135.1 -81.71,-113.8 -137.88,-70.9 -141.66,-46.2 -153,28.5 -164.44,103.3 -123.5,160.1 -364.2,-536.7 -98.448,-167.1 -29.512,-131.7 -5.273,-127.9 15.214,-99.6 -40.91,-56.9 v 0" /><path
         id="path182"
         style="fill:none;stroke:#231f20;stroke-width:18.33699989;stroke-linecap:square;stroke-linejoin:miter;stroke-miterlimit:10;stroke-dasharray:none;stroke-opacity:1"
         d="m 1259.61,8354.9 28.01,-21.4 3.79,-24.9 3.83,-24.9 106.86,-213.5 143.94,-131.7 156.82,-53.4 72.72,10.6 93.13,39 137.87,71.1 81.78,113.7 25.76,156.5 -47.05,145.8 -39.41,96.1 -67.47,117.4 -700.58,-280.4 z M 881.281,6772.5 736.473,7235 l 533.037,892.2 -35.62,71.2 -7.61,49.8 -28.02,21.4 -3.78,24.8 -3.8,24.9 -490.032,-198.8 -89.375,-64 -93.156,-39 -12.84,-78.2 15.137,-99.6 35.652,-71.1 -24.257,-3.6 -287.289,747 48.511,7.1 7.621,-49.7 39.379,-96.1 104.524,-35.6 76.484,-14.3 117.41,42.6 1049.061,433.2 145.38,21.1 61.36,85.4 16.65,53.3 -18.96,124.4 -35.63,71.2 48.49,7.1 244.05,-626.1 47,-145.9 39.41,-96 26.57,-174.3 -1.45,-152.9 -53.78,-135.1 -81.71,-113.8 -137.88,-70.9 -141.66,-46.2 -153,28.5 -164.44,103.3 -123.5,160.1 -364.2,-536.7 -98.448,-167.1 -29.512,-131.7 -5.273,-127.9 15.214,-99.6 -40.91,-56.9 z" /><path
         id="path184"
         style="fill:#231f20;fill-opacity:1;fill-rule:evenodd;stroke:none"
         d="m 3777.08,5656.7 -25.82,-23.9 -46.25,52.9 -47.61,27.5 -47.56,27.7 -73.41,3.8 -25.88,-23.8 -48.9,2.4 -149.6,-42.5 -1518.63,-400.5 -21.71,51.4 742.19,1020.4 -1195.05,-316.3 -21.76,51.5 952.93,1286.8 104.65,120.7 27.16,49 27.2,49.1 2.73,50.2 -21.79,51.5 -20.38,76.7 25.83,23.9 361.73,-573.3 -24.51,1.2 -24.41,1.3 -46.29,52.8 -47.56,27.7 -24.46,1.3 -50.32,-22.6 -51.68,-47.8 -104.66,-120.6 -634.78,-849.5 871.45,232.2 104.68,120.7 80.18,121.9 25.82,23.8 28.59,74.2 24.43,-1.2 2.71,50.2 2.72,50.3 -23.09,26.4 -21.81,51.5 -23.09,26.4 51.68,47.8 384.86,-599.6 -25.87,-24 -47.61,27.7 -21.76,51.6 -47.53,27.6 -48.96,2.6 -50.31,-22.6 -77.47,-71.7 -80.24,-121.9 -634.78,-849.5 1021.01,274.9 123.74,18.9 100.6,45.2 25.82,23.9 1.34,25.1 4.09,75.5 -21.76,51.5 -20.44,76.7 25.88,23.8 293.72,-468.9 v 0" /><path
         id="path186"
         style="fill:none;stroke:#231f20;stroke-width:18.33699989;stroke-linecap:square;stroke-linejoin:miter;stroke-miterlimit:10;stroke-dasharray:none;stroke-opacity:1"
         d="m 3777.08,5656.7 -25.82,-23.9 -46.25,52.9 -47.61,27.5 -47.56,27.7 -73.41,3.8 -25.88,-23.8 -48.9,2.4 -149.6,-42.5 -1518.63,-400.5 -21.71,51.4 742.19,1020.4 -1195.05,-316.3 -21.76,51.5 952.93,1286.8 104.65,120.7 27.16,49 27.2,49.1 2.73,50.2 -21.79,51.5 -20.38,76.7 25.83,23.9 361.73,-573.3 -24.51,1.2 -24.41,1.3 -46.29,52.8 -47.56,27.7 -24.46,1.3 -50.32,-22.6 -51.68,-47.8 -104.66,-120.6 -634.78,-849.5 871.45,232.2 104.68,120.7 80.18,121.9 25.82,23.8 28.59,74.2 24.43,-1.2 2.71,50.2 2.72,50.3 -23.09,26.4 -21.81,51.5 -23.09,26.4 51.68,47.8 384.86,-599.6 -25.87,-24 -47.61,27.7 -21.76,51.6 -47.53,27.6 -48.96,2.6 -50.31,-22.6 -77.47,-71.7 -80.24,-121.9 -634.78,-849.5 1021.01,274.9 123.74,18.9 100.6,45.2 25.82,23.9 1.34,25.1 4.09,75.5 -21.76,51.5 -20.44,76.7 25.88,23.8 293.72,-468.9 z" /><path
         id="path188"
         style="fill:#231f20;fill-opacity:1;fill-rule:evenodd;stroke:none"
         d="m 3687.96,4472.2 241.89,742.3 -709.57,-361.8 467.68,-380.5 z m -30.57,-99.1 -538.08,435.1 -276.79,-109.8 -102.45,-69.7 -50.45,-22.3 -4.63,-75.3 19.85,-76.9 68.75,-79.7 -25.94,-23.6 -418.83,377.6 25.99,23.7 96.35,-30.9 47.36,-28 100.95,44.5 175.81,65.4 1466.64,695.7 47.33,-28.1 -537.29,-1557.2 -35.18,-174.4 -6.17,-100.5 18.28,-102 68.77,-79.7 -25.99,-23.7 -534.94,485.3 25.94,23.7 71.9,-29.4 71.84,-29.5 48.95,-2.9 25.97,23.8 53.55,72.5 32.17,124.2 90.34,272.1 v 0" /><path
         id="path190"
         style="fill:none;stroke:#231f20;stroke-width:18.33699989;stroke-linecap:square;stroke-linejoin:miter;stroke-miterlimit:10;stroke-dasharray:none;stroke-opacity:1"
         d="m 3687.96,4472.2 241.89,742.3 -709.57,-361.8 467.68,-380.5 z m -30.57,-99.1 -538.08,435.1 -276.79,-109.8 -102.45,-69.7 -50.45,-22.3 -4.63,-75.3 19.85,-76.9 68.75,-79.7 -25.94,-23.6 -418.83,377.6 25.99,23.7 96.35,-30.9 47.36,-28 100.95,44.5 175.81,65.4 1466.64,695.7 47.33,-28.1 -537.29,-1557.2 -35.18,-174.4 -6.17,-100.5 18.28,-102 68.77,-79.7 -25.99,-23.7 -534.94,485.3 25.94,23.7 71.9,-29.4 71.84,-29.5 48.95,-2.9 25.97,23.8 53.55,72.5 32.17,124.2 90.34,272.1 z" /><path
         id="path192"
         style="fill:#231f20;fill-opacity:1;fill-rule:evenodd;stroke:none"
         d="m 4803.01,4857 379.46,-302.9 156.57,-1772.3 589.49,888.8 65.44,118.5 13.45,99.9 -17.6,53 -66.1,59.4 -66.22,59.2 27.63,21.8 521.85,-346.6 -31.02,-46.8 -45.22,31.2 -90.5,62.5 -76.22,-15.5 -55.31,-43.7 -89.7,-115.4 -865.33,-1284.8 -24.32,3.1 -136.45,1922.1 -644.77,-932.4 -58.65,-68.6 -10.12,-74.9 -10.1,-74.8 -10.08,-74.9 66.21,-59.3 93.76,-37.6 -55.35,-43.6 -494.08,368.5 31.02,46.8 20.93,-28.1 114.72,-65.5 76.25,15.5 55.33,43.6 89.68,115.3 689.3,1079 13.43,99.9 -45.22,31.3 -41.89,56 -14.14,78.1 -41.88,56.2 -72.86,9.4 58.61,68.6 v 0" /><path
         id="path194"
         style="fill:none;stroke:#231f20;stroke-width:18.33699989;stroke-linecap:square;stroke-linejoin:miter;stroke-miterlimit:10;stroke-dasharray:none;stroke-opacity:1"
         d="m 4803.01,4857 379.46,-302.9 156.57,-1772.3 589.49,888.8 65.44,118.5 13.45,99.9 -17.6,53 -66.1,59.4 -66.22,59.2 27.63,21.8 521.85,-346.6 -31.02,-46.8 -45.22,31.2 -90.5,62.5 -76.22,-15.5 -55.31,-43.7 -89.7,-115.4 -865.33,-1284.8 -24.32,3.1 -136.45,1922.1 -644.77,-932.4 -58.65,-68.6 -10.12,-74.9 -10.1,-74.8 -10.08,-74.9 66.21,-59.3 93.76,-37.6 -55.35,-43.6 -494.08,368.5 31.02,46.8 20.93,-28.1 114.72,-65.5 76.25,15.5 55.33,43.6 89.68,115.3 689.3,1079 13.43,99.9 -45.22,31.3 -41.89,56 -14.14,78.1 -41.88,56.2 -72.86,9.4 58.61,68.6 z" /><path
         id="path196"
         style="fill:#231f20;fill-opacity:1;fill-rule:evenodd;stroke:none"
         d="m 6260.57,1891.2 132.74,-97.7 112.69,-69 136.81,-72.8 145.17,-23.2 129.16,30.5 153.44,26.5 137.47,80.2 113.29,83.9 194.8,275 73.08,141.3 28.96,174 0.63,153 -23.58,156.7 -132.11,250.7 -108.53,93.8 -132.77,97.6 -116.8,44.1 -141.05,48 -703.4,-1392.6 z m -528,109.7 32.44,45.7 68.46,-36.3 92.61,-40.3 80.83,38.1 56.64,42 69.05,116.5 524.6,1064.1 44.87,120.4 16.52,99.3 -40.07,57.5 -64.33,61.2 -68.41,36.4 32.42,45.9 635.97,-356.5 185.23,-80.6 132.77,-97.5 108.51,-93.9 84.37,-89.9 116.23,-197.1 59.48,-239 -13.01,-227.5 -93.82,-265.6 -101.5,-162.4 -121.54,-133.5 -279.08,-185.2 -181.73,-47.5 -197.64,5.9 -213.56,59.6 -233.67,88.3 -732.64,371.9 v 0" /><path
         id="path198"
         style="fill:none;stroke:#231f20;stroke-width:18.33699989;stroke-linecap:square;stroke-linejoin:miter;stroke-miterlimit:10;stroke-dasharray:none;stroke-opacity:1"
         d="m 6260.57,1891.2 132.74,-97.7 112.69,-69 136.81,-72.8 145.17,-23.2 129.16,30.5 153.44,26.5 137.47,80.2 113.29,83.9 194.8,275 73.08,141.3 28.96,174 0.63,153 -23.58,156.7 -132.11,250.7 -108.53,93.8 -132.77,97.6 -116.8,44.1 -141.05,48 -703.4,-1392.6 z m -528,109.7 32.44,45.7 68.46,-36.3 92.61,-40.3 80.83,38.1 56.64,42 69.05,116.5 524.6,1064.1 44.87,120.4 16.52,99.3 -40.07,57.5 -64.33,61.2 -68.41,36.4 32.42,45.9 635.97,-356.5 185.23,-80.6 132.77,-97.5 108.51,-93.9 84.37,-89.9 116.23,-197.1 59.48,-239 -13.01,-227.5 -93.82,-265.6 -101.5,-162.4 -121.54,-133.5 -279.08,-185.2 -181.73,-47.5 -197.64,5.9 -213.56,59.6 -233.67,88.3 -732.64,371.9 z" /><path
         id="path200"
         style="fill:#231f20;fill-opacity:1;fill-rule:evenodd;stroke:none"
         d="m 8896.15,1456.7 -102.56,779.1 -536.28,-582.5 638.84,-196.6 z m -19.25,-124.4 -659.24,225.1 -211.98,-248.7 -60.03,-67.5 -35.8,-71.1 -7.64,-49.7 20.36,-28.5 65,-60.6 93.05,-39.3 -7.71,-49.699 -541.87,182.199 7.69,49.7 96.91,-14.3 52.31,17.7 112.34,85.2 120.02,135 1056.07,1218.2 48.48,-7.2 116.93,-1646.8 45.7,-185 -7.68,-49.801 20.37,-28.496 40.76,-57.004 89.25,-64 -7.71,-49.797 -659.24,225 32,46.098 96.87,-14.301 24.26,-3.597 52.28,17.699 7.7,49.801 11.6,74.601 19.25,124.497 -30.3,284.6 v 0" /><path
         id="path202"
         style="fill:none;stroke:#231f20;stroke-width:18.33699989;stroke-linecap:square;stroke-linejoin:miter;stroke-miterlimit:10;stroke-dasharray:none;stroke-opacity:1"
         d="m 8896.15,1456.7 -102.56,779.1 -536.28,-582.5 638.84,-196.6 z m -19.25,-124.4 -659.24,225.1 -211.98,-248.7 -60.03,-67.5 -35.8,-71.1 -7.64,-49.7 20.36,-28.5 65,-60.6 93.05,-39.3 -7.71,-49.699 -541.87,182.199 7.69,49.7 96.91,-14.3 52.31,17.7 112.34,85.2 120.02,135 1056.07,1218.2 48.48,-7.2 116.93,-1646.8 45.7,-185 -7.68,-49.801 20.37,-28.496 40.76,-57.004 89.25,-64 -7.71,-49.797 -659.24,225 32,46.098 96.87,-14.301 24.26,-3.597 52.28,17.699 7.7,49.801 11.6,74.601 19.25,124.497 -30.3,284.6 z" /><path
         id="path204"
         style="fill:#231f20;fill-opacity:1;fill-rule:evenodd;stroke:none"
         d="m 11123,1022 24.5,-0.6 24.5,-0.6 24.5,-0.6 221.1,19.9 173.4,71.3 101.2,123.5 28.9,175.6 -20.7,151.6 -70.3,127.5 -120.6,78.5 -145.8,53.9 -99.2,-48 -122.5,2.9 -19,-754.9 z M 12372.3,9.80078 11883,46.8008 l -591,870.3982 -49,1.203 -49,1.098 -24.5,0.602 -24.5,0.601 -24.5,0.598 -37.8,-527.899 20.7,-151.601 22.6,-76 48.3,-26.301 97.4,-27.602 73.5,-1.699 -1.3,-50.3982 -784,18.9023 1.3,50.3989 73.5,-1.801 98.7,22.699 74.7,48.703 26.5,74.797 3.1,125.801 29.7,1182.799 3.2,125.8 -21.3,126.5 -49,1.1 -97.4,27.6 -73.5,1.8 1.3,50.3 661.4,-15.9 244.4,-31.1 98,-2.4 72.9,-26.9 121.9,-28.2 119.3,-128.8 70.3,-127.5 -1.9,-75.5 -1.9,-75.6 -28.9,-175.6 -76.1,-98.8 -150.1,-122.2 -197.2,-45.7 353.5,-562.5 118.7,-154 95.5,-102.898 96.7,-52.7036 146.3,-28.6992 -1.2,-50.39842 v 0" /><path
         id="path206"
         style="fill:none;stroke:#231f20;stroke-width:18.33699989;stroke-linecap:square;stroke-linejoin:miter;stroke-miterlimit:10;stroke-dasharray:none;stroke-opacity:1"
         d="m 11123,1022 24.5,-0.6 24.5,-0.6 24.5,-0.6 221.1,19.9 173.4,71.3 101.2,123.5 28.9,175.6 -20.7,151.6 -70.3,127.5 -120.6,78.5 -145.8,53.9 -99.2,-48 -122.5,2.9 -19,-754.9 z M 12372.3,9.80078 11883,46.8008 l -591,870.3982 -49,1.203 -49,1.098 -24.5,0.602 -24.5,0.601 -24.5,0.598 -37.8,-527.899 20.7,-151.601 22.6,-76 48.3,-26.301 97.4,-27.602 73.5,-1.699 -1.3,-50.3982 -784,18.9023 1.3,50.3989 73.5,-1.801 98.7,22.699 74.7,48.703 26.5,74.797 3.1,125.801 29.7,1182.799 3.2,125.8 -21.3,126.5 -49,1.1 -97.4,27.6 -73.5,1.8 1.3,50.3 661.4,-15.9 244.4,-31.1 98,-2.4 72.9,-26.9 121.9,-28.2 119.3,-128.8 70.3,-127.5 -1.9,-75.5 -1.9,-75.6 -28.9,-175.6 -76.1,-98.8 -150.1,-122.2 -197.2,-45.7 353.5,-562.5 118.7,-154 95.5,-102.898 96.7,-52.7036 146.3,-28.6992 -1.2,-50.39842 z" /><path
         id="path208"
         style="fill:#231f20;fill-opacity:1;fill-rule:evenodd;stroke:none"
         d="m 12972.7,1828.1 66.6,-705.5 392.6,46.6 122.8,24 49.2,24.7 74.6,100 1.3,125.9 48.9,-0.4 67.4,-630.099 -73.6,0.699 1,100.699 -48.5,50.903 -24,50.498 -48.8,25.7 -73.3,25.8 -98,0.9 -392.6,-46.6 43.1,-604.599 23.6,-100.903 -0.5,-50.296 -0.3,-25.301 48.7,-25.5 49.2,-0.5 24.4,-0.199 318.8,22.097 122.8,24.004 122.8,23.996 49.4,49.903 74,49.699 50.1,100.199 75.3,175.5 48.9,-0.398 -127.2,-477.102 -1373.6,-113 0.5,50.402 73.5,-0.703 73.8,24.504 49.3,24.699 24.7,24.899 24.7,25 0.8,75.402 1.2,125.899 -86.6,1158.898 -23,151.2 -48,101.2 -49,0.5 -97.8,26.1 -73.8,-24.5 0.6,50.3 1398,112.7 20.8,-377.9 -24.5,0.2 -48,101.3 -48.1,101.1 -24.5,0.2 -73,51 -98,1 -122.6,1.1 -466.1,-45.9 v 0" /><path
         id="path210"
         style="fill:none;stroke:#231f20;stroke-width:18.33699989;stroke-linecap:square;stroke-linejoin:miter;stroke-miterlimit:10;stroke-dasharray:none;stroke-opacity:1"
         d="m 12972.7,1828.1 66.6,-705.5 392.6,46.6 122.8,24 49.2,24.7 74.6,100 1.3,125.9 48.9,-0.4 67.4,-630.099 -73.6,0.699 1,100.699 -48.5,50.903 -24,50.498 -48.8,25.7 -73.3,25.8 -98,0.9 -392.6,-46.6 43.1,-604.599 23.6,-100.903 -0.5,-50.296 -0.3,-25.301 48.7,-25.5 49.2,-0.5 24.4,-0.199 318.8,22.097 122.8,24.004 122.8,23.996 49.4,49.903 74,49.699 50.1,100.199 75.3,175.5 48.9,-0.398 -127.2,-477.102 -1373.6,-113 0.5,50.402 73.5,-0.703 73.8,24.504 49.3,24.699 24.7,24.899 24.7,25 0.8,75.402 1.2,125.899 -86.6,1158.898 -23,151.2 -48,101.2 -49,0.5 -97.8,26.1 -73.8,-24.5 0.6,50.3 1398,112.7 20.8,-377.9 -24.5,0.2 -48,101.3 -48.1,101.1 -24.5,0.2 -73,51 -98,1 -122.6,1.1 -466.1,-45.9 z" /><path
         id="path212"
         style="fill:#231f20;fill-opacity:1;fill-rule:evenodd;stroke:none"
         d="m 14982.1,602.801 171.4,0.402 122.6,0.199 269.4,126.399 122.3,75.699 73.3,125.898 48.7,151.302 48.8,151.1 -0.3,151 -24.9,201.3 -49.4,176.1 -73.7,125.8 -73.8,125.7 -122.8,100.5 -122.6,75.3 -147.1,24.8 -147.2,25 -147,-25.5 -122.4,-50.5 -122.4,-50.6 297.1,-1509.899 z m -465.2,-252.5 -24.6,50.199 98,25.402 73.4,25.301 48.9,75.598 -0.2,75.5 -0.2,125.902 -247.3,1157.497 -0.2,125.9 -73.8,75.4 -49,25.1 -122.5,-0.2 -73.6,-0.2 v 50.4 l 710.4,152.3 367.6,51 146.9,0.3 122.6,-25 196.2,-75.1 196.4,-150.7 147.4,-226.3 74.1,-251.6 24.9,-176.2 0.2,-151 -48.7,-176.3 -73.1,-151.199 -122.3,-151.199 -146.9,-126.2 -195.8,-101.004 -245,-75.996 -783.8,-177.601 v 0" /><path
         id="path214"
         style="fill:none;stroke:#231f20;stroke-width:18.33699989;stroke-linecap:square;stroke-linejoin:miter;stroke-miterlimit:10;stroke-dasharray:none;stroke-opacity:1"
         d="m 14982.1,602.801 171.4,0.402 122.6,0.199 269.4,126.399 122.3,75.699 73.3,125.898 48.7,151.302 48.8,151.1 -0.3,151 -24.9,201.3 -49.4,176.1 -73.7,125.8 -73.8,125.7 -122.8,100.5 -122.6,75.3 -147.1,24.8 -147.2,25 -147,-25.5 -122.4,-50.5 -122.4,-50.6 297.1,-1509.899 z m -465.2,-252.5 -24.6,50.199 98,25.402 73.4,25.301 48.9,75.598 -0.2,75.5 -0.2,125.902 -247.3,1157.497 -0.2,125.9 -73.8,75.4 -49,25.1 -122.5,-0.2 -73.6,-0.2 v 50.4 l 710.4,152.3 367.6,51 146.9,0.3 122.6,-25 196.2,-75.1 196.4,-150.7 147.4,-226.3 74.1,-251.6 24.9,-176.2 0.2,-151 -48.7,-176.3 -73.1,-151.199 -122.3,-151.199 -146.9,-126.2 -195.8,-101.004 -245,-75.996 -783.8,-177.601 z" /><g
         transform="scale(1.27203)"
         id="g216"><path
           id="path218"
           style="fill:#231f20;fill-opacity:1;fill-rule:evenodd;stroke:none"
           d="m 15069.8,2902.05 v 0 l -3.8,19.42 18.9,3.54 19,3.54 109.7,141.34 49.2,150.16 -3.7,120.2 -30.3,54.8 -49.1,51.25 -94.7,83.1 -124.9,37.18 -113.5,-21.22 -83.4,-75.95 -49.2,-49.44 -64.3,-72.41 420.1,-445.51 z m 1230.2,128.54 -284,-254.32 -817.5,169.89 -30.3,-45.92 -34.1,-26.49 -18.9,-3.54 3.8,-19.41 -18.9,-3.54 276.3,-311.08 75.6,-86.71 45.5,-31.76 18.9,3.54 56.7,10.61 52.9,30.03 49.3,49.37 26.5,-35.3 -446.7,-425.77 -30.3,54.79 34.2,26.49 49.1,49.45 3.9,81.37 -30.4,54.79 -52.9,70.68 -628.3,708.86 -71.8,67.22 -64.4,28.3 -37.8,-7.08 -90.9,-37.1 -15.2,-22.96 -41.5,12.35 386.1,333.87 79.6,95.44 90.7,37.03 102.2,79.48 90.9,37.1 117.3,1.73 106,-40.64 94.7,-83.18 60.4,-109.51 37.8,-93.7 -30.2,-146.7 -72,-134.19 492.1,-109.83 143.8,-33.64 117.4,1.73 71.9,33.64 87.1,56.53 45.4,-31.92 v 0" /></g><g
         transform="scale(1.27203)"
         id="g220"><path
           id="path222"
           style="fill:none;stroke:#231f20;stroke-width:14.41549969;stroke-linecap:square;stroke-linejoin:miter;stroke-miterlimit:10;stroke-dasharray:none;stroke-opacity:1"
           d="m 15069.8,2902.05 v 0 l -3.8,19.42 18.9,3.54 19,3.54 109.7,141.34 49.2,150.16 -3.7,120.2 -30.3,54.8 -49.1,51.25 -94.7,83.1 -124.9,37.18 -113.5,-21.22 -83.4,-75.95 -49.2,-49.44 -64.3,-72.41 420.1,-445.51 z m 1230.2,128.54 -284,-254.32 -817.5,169.89 -30.3,-45.92 -34.1,-26.49 -18.9,-3.54 3.8,-19.41 -18.9,-3.54 276.3,-311.08 75.6,-86.71 45.5,-31.76 18.9,3.54 56.7,10.61 52.9,30.03 49.3,49.37 26.5,-35.3 -446.7,-425.77 -30.3,54.79 34.2,26.49 49.1,49.45 3.9,81.37 -30.4,54.79 -52.9,70.68 -628.3,708.86 -71.8,67.22 -64.4,28.3 -37.8,-7.08 -90.9,-37.1 -15.2,-22.96 -41.5,12.35 386.1,333.87 79.6,95.44 90.7,37.03 102.2,79.48 90.9,37.1 117.3,1.73 106,-40.64 94.7,-83.18 60.4,-109.51 37.8,-93.7 -30.2,-146.7 -72,-134.19 492.1,-109.83 143.8,-33.64 117.4,1.73 71.9,33.64 87.1,56.53 45.4,-31.92 z" /></g><g
         transform="scale(1.33337)"
         id="g224"><path
           id="path226"
           style="fill:#231f20;fill-opacity:1;fill-rule:evenodd;stroke:none"
           d="m 15046.9,4299.84 -57.6,-149.62 4.8,-95.92 18,-73.42 45.1,-105.9 80.9,-97.42 98.6,-93.15 116.5,-89.02 147.7,-62.17 129.9,-66.38 120.7,-29.7 116.3,-11.32 89.3,21.15 62.4,53.62 62.4,53.55 57.9,72 40.1,67.72 13,100.2 -5.1,173.62 -40.5,87.52 -80.8,97.35 -98.6,93.3 -134.4,84.67 -134.4,84.82 -125.3,48 -138.7,25.5 -116.2,11.32 -151.7,-74.77 -62.4,-53.55 -57.9,-72 z m -53.8,64.95 88.9,98.77 89.2,98.7 120.5,48 120.6,47.92 129.5,11.25 138.7,-25.5 125.3,-47.99 129.8,-66.45 116.5,-88.95 103.2,-111.52 67.5,-120 49.5,-124.27 9.3,-114.3 18.4,-151.04 -30.9,-104.47 -62.1,-131.18 -84.6,-117.14 -93.5,-80.47 -120.5,-47.93 -120.6,-47.92 -129.6,-11.25 -134.1,7.13 -147.7,62.24 -129.9,66.37 -134.3,84.75 -80.9,97.43 -71.9,138.29 -54.1,142.65 -13.9,132.67 8.5,118.57 44.3,126.97 48.9,108.67 v 0" /></g><g
         transform="scale(1.33337)"
         id="g228"><path
           id="path230"
           style="fill:none;stroke:#231f20;stroke-width:13.75230026;stroke-linecap:square;stroke-linejoin:miter;stroke-miterlimit:10;stroke-dasharray:none;stroke-opacity:1"
           d="m 15046.9,4299.84 -57.6,-149.62 4.8,-95.92 18,-73.42 45.1,-105.9 80.9,-97.42 98.6,-93.15 116.5,-89.02 147.7,-62.17 129.9,-66.38 120.7,-29.7 116.3,-11.32 89.3,21.15 62.4,53.62 62.4,53.55 57.9,72 40.1,67.72 13,100.2 -5.1,173.62 -40.5,87.52 -80.8,97.35 -98.6,93.3 -134.4,84.67 -134.4,84.82 -125.3,48 -138.7,25.5 -116.2,11.32 -151.7,-74.77 -62.4,-53.55 -57.9,-72 z m -53.8,64.95 88.9,98.77 89.2,98.7 120.5,48 120.6,47.92 129.5,11.25 138.7,-25.5 125.3,-47.99 129.8,-66.45 116.5,-88.95 103.2,-111.52 67.5,-120 49.5,-124.27 9.3,-114.3 18.4,-151.04 -30.9,-104.47 -62.1,-131.18 -84.6,-117.14 -93.5,-80.47 -120.5,-47.93 -120.6,-47.92 -129.6,-11.25 -134.1,7.13 -147.7,62.24 -129.9,66.37 -134.3,84.75 -80.9,97.43 -71.9,138.29 -54.1,142.65 -13.9,132.67 8.5,118.57 44.3,126.97 48.9,108.67 z" /></g><g
         transform="scale(1.39479)"
         id="g232"><path
           id="path234"
           style="fill:#231f20;fill-opacity:1;fill-rule:evenodd;stroke:none"
           d="m 15235.8,5471.02 384,-220.89 -17.9,-35.92 -122.6,37.49 -87.7,19 -88,-17.06 -88.3,-35.06 -71.1,-71.48 -53.6,-71.55 -18.4,-72.06 -1,-90.19 34.1,-90.62 52.5,-18.64 52.3,-36.71 70.5,17.28 52.9,17.49 70.4,17.21 176.8,88.33 70.9,53.41 70.9,53.34 106,52.99 88.1,17.06 70.2,-0.79 87.8,-19 52.4,-18.64 122,-91.55 16.9,-54.35 34.1,-90.62 -0.6,-54.2 -1,-90.2 -36,-71.76 -18.4,-72.06 -35.8,-53.77 -35.5,-35.71 -18,-35.77 -71.1,-71.48 -53.4,-53.56 -17.9,-35.92 -0.2,-18.07 -0.3,-18.06 17.2,-36.28 -0.2,-18 -0.2,-18.07 -384,220.9 18,35.85 122.6,-37.43 69.9,-18.85 88.1,17.06 88.4,53.2 88.5,53.13 53.9,89.62 36.1,89.9 1,90.26 -34.1,90.63 -52,54.63 -52.8,0.64 -52.2,36.64 -70.7,-35.27 -52.8,0.57 -35.3,-17.64 -35.6,-35.77 -52.9,-17.42 -88.6,-71.2 -141.3,-52.55 -88.4,-53.2 -88,-17.06 -88.1,-17.06 -70.1,18.78 -70.1,18.86 -104.3,91.41 -51.5,108.83 1.7,144.4 54.8,179.81 53.3,53.56 88.9,89.33 35.3,17.71 18,35.84 17.8,17.93 0.4,36.06 -17.3,18.21 -17.4,18.21 18,35.92 v 0" /></g><g
         transform="scale(1.39479)"
         id="g236"><path
           id="path238"
           style="fill:none;stroke:#231f20;stroke-width:13.14680004;stroke-linecap:square;stroke-linejoin:miter;stroke-miterlimit:10;stroke-dasharray:none;stroke-opacity:1"
           d="m 15235.8,5471.02 384,-220.89 -17.9,-35.92 -122.6,37.49 -87.7,19 -88,-17.06 -88.3,-35.06 -71.1,-71.48 -53.6,-71.55 -18.4,-72.06 -1,-90.19 34.1,-90.62 52.5,-18.64 52.3,-36.71 70.5,17.28 52.9,17.49 70.4,17.21 176.8,88.33 70.9,53.41 70.9,53.34 106,52.99 88.1,17.06 70.2,-0.79 87.8,-19 52.4,-18.64 122,-91.55 16.9,-54.35 34.1,-90.62 -0.6,-54.2 -1,-90.2 -36,-71.76 -18.4,-72.06 -35.8,-53.77 -35.5,-35.71 -18,-35.77 -71.1,-71.48 -53.4,-53.56 -17.9,-35.92 -0.2,-18.07 -0.3,-18.06 17.2,-36.28 -0.2,-18 -0.2,-18.07 -384,220.9 18,35.85 122.6,-37.43 69.9,-18.85 88.1,17.06 88.4,53.2 88.5,53.13 53.9,89.62 36.1,89.9 1,90.26 -34.1,90.63 -52,54.63 -52.8,0.64 -52.2,36.64 -70.7,-35.27 -52.8,0.57 -35.3,-17.64 -35.6,-35.77 -52.9,-17.42 -88.6,-71.2 -141.3,-52.55 -88.4,-53.2 -88,-17.06 -88.1,-17.06 -70.1,18.78 -70.1,18.86 -104.3,91.41 -51.5,108.83 1.7,144.4 54.8,179.81 53.3,53.56 88.9,89.33 35.3,17.71 18,35.84 17.8,17.93 0.4,36.06 -17.3,18.21 -17.4,18.21 18,35.92 z" /></g><g
         transform="scale(1.44261)"
         id="g240"><path
           id="path242"
           style="fill:#231f20;fill-opacity:1;fill-rule:evenodd;stroke:none"
           d="m 15118.3,6254.06 397.2,-170.8 -10.9,-51.29 -116.4,23.98 -99.8,20.45 -73.8,-20.45 -81.2,-54.62 -51.5,-78.54 -47.9,-61.48 -18.3,-85.47 14.9,-92.13 104.2,-61.48 59.2,-47.83 49.9,-10.26 53.5,6.86 57.2,23.84 61,40.97 100.5,126.37 129,116.11 60.9,40.97 24,30.7 90.5,17.06 73.8,20.51 53.5,6.87 83.1,-17.12 122,-78.61 61.2,-119.51 85.9,-146.88 -36.5,-170.73 -27.7,-47.83 -27.6,-47.83 -24,-30.78 -47.9,-61.49 -34.9,-81.93 -40.7,-27.24 -3.5,-17.12 -3.8,-17.06 29.6,-23.98 13,-20.45 -7.3,-34.11 -380.7,167.41 23.9,30.71 116.4,-23.92 90.4,16.98 57.3,23.99 97.7,51.15 51.6,78.61 35,81.94 22,102.45 1.7,88.8 -117.3,82 -46.2,27.31 -46.3,27.39 -53.4,-6.87 -73.8,-20.45 -57.3,-23.91 -44.2,-44.43 4.5,-40.97 -64.6,-58.02 -64.4,-58.09 -77.6,-37.5 -68.2,-75.21 -77.5,-37.57 -70.1,-3.4 -70.2,-3.4 -83.1,17.13 -105.4,75.14 -64.8,102.45 -85.9,146.88 33,153.69 34.9,82 88.4,88.8 27.7,47.76 23.9,30.77 3.7,17.06 -13,20.51 -12.9,20.45 -33.2,6.87 27.6,47.82 v 0" /></g><g
         transform="scale(1.44261)"
         id="g244"><path
           id="path246"
           style="fill:none;stroke:#231f20;stroke-width:12.71100044;stroke-linecap:square;stroke-linejoin:miter;stroke-miterlimit:10;stroke-dasharray:none;stroke-opacity:1"
           d="m 15118.3,6254.06 397.2,-170.8 -10.9,-51.29 -116.4,23.98 -99.8,20.45 -73.8,-20.45 -81.2,-54.62 -51.5,-78.54 -47.9,-61.48 -18.3,-85.47 14.9,-92.13 104.2,-61.48 59.2,-47.83 49.9,-10.26 53.5,6.86 57.2,23.84 61,40.97 100.5,126.37 129,116.11 60.9,40.97 24,30.7 90.5,17.06 73.8,20.51 53.5,6.87 83.1,-17.12 122,-78.61 61.2,-119.51 85.9,-146.88 -36.5,-170.73 -27.7,-47.83 -27.6,-47.83 -24,-30.78 -47.9,-61.49 -34.9,-81.93 -40.7,-27.24 -3.5,-17.12 -3.8,-17.06 29.6,-23.98 13,-20.45 -7.3,-34.11 -380.7,167.41 23.9,30.71 116.4,-23.92 90.4,16.98 57.3,23.99 97.7,51.15 51.6,78.61 35,81.94 22,102.45 1.7,88.8 -117.3,82 -46.2,27.31 -46.3,27.39 -53.4,-6.87 -73.8,-20.45 -57.3,-23.91 -44.2,-44.43 4.5,-40.97 -64.6,-58.02 -64.4,-58.09 -77.6,-37.5 -68.2,-75.21 -77.5,-37.57 -70.1,-3.4 -70.2,-3.4 -83.1,17.13 -105.4,75.14 -64.8,102.45 -85.9,146.88 33,153.69 34.9,82 88.4,88.8 27.7,47.76 23.9,30.77 3.7,17.06 -13,20.51 -12.9,20.45 -33.2,6.87 27.6,47.82 z" /></g><g
         transform="scale(1.1662)"
         id="g248"><path
           id="path250"
           style="fill:#231f20;fill-opacity:1;fill-rule:evenodd;stroke:none"
           d="m 15448.5,3271.83 356.3,-374.38 -16.5,-17.15 -201.8,94.67 -167.5,28.73 -166.4,-37.99 -115.7,-86.86 -115.2,-120.14 -65.3,-102.12 -15.5,-83.87 0.9,-66.88 2.4,-167.04 86.3,-181.36 136.5,-196.71 135.5,-129.9 151.5,-79.32 151.5,-79.32 150.1,20.83 166.4,37.99 99.2,69.63 115.3,120.22 65.3,102.04 14.4,150.83 13.6,217.55 33.3,0.94 36.9,-232.89 -47.4,-185.13 -81.3,-152.72 -131.6,-137.29 -132.3,-103.84 -149.4,-54.28 -183.4,-21.86 -167.5,28.81 -134.1,29.67 -101.2,63.97 -219.7,177.67 -102.6,164.29 -53.3,215.75 -19.8,216.68 30.5,201.26 80.7,186.07 164.6,171.76 133.1,37.04 149.1,87.72 33.3,0.95 66.8,1.8 16.4,17.15 -17.4,49.65 -0.4,33.43 -17.5,49.66 32.9,34.29 v 0" /></g><g
         transform="scale(1.1662)"
         id="g252"><path
           id="path254"
           style="fill:none;stroke:#231f20;stroke-width:15.72379971;stroke-linecap:square;stroke-linejoin:miter;stroke-miterlimit:10;stroke-dasharray:none;stroke-opacity:1"
           d="m 15448.5,3271.83 356.3,-374.38 -16.5,-17.15 -201.8,94.67 -167.5,28.73 -166.4,-37.99 -115.7,-86.86 -115.2,-120.14 -65.3,-102.12 -15.5,-83.87 0.9,-66.88 2.4,-167.04 86.3,-181.36 136.5,-196.71 135.5,-129.9 151.5,-79.32 151.5,-79.32 150.1,20.83 166.4,37.99 99.2,69.63 115.3,120.22 65.3,102.04 14.4,150.83 13.6,217.55 33.3,0.94 36.9,-232.89 -47.4,-185.13 -81.3,-152.72 -131.6,-137.29 -132.3,-103.84 -149.4,-54.28 -183.4,-21.86 -167.5,28.81 -134.1,29.67 -101.2,63.97 -219.7,177.67 -102.6,164.29 -53.3,215.75 -19.8,216.68 30.5,201.26 80.7,186.07 164.6,171.76 133.1,37.04 149.1,87.72 33.3,0.95 66.8,1.8 16.4,17.15 -17.4,49.65 -0.4,33.43 -17.5,49.66 32.9,34.29 z" /></g></g></g></svg>