<?xml version="1.0" encoding="UTF-8" standalone="no"?>
<!-- Created with Inkscape (http://www.inkscape.org/) -->

<svg
   version="1.1"
   id="svg1"
   width="457.92133"
   height="457.91867"
   viewBox="0 0 457.92133 457.91867"
   sodipodi:docname="Znak PCK [CMYK 485 C] illustrator CS.svg"
   inkscape:version="1.3.2 (091e20e, 2023-11-25, custom)"
   xmlns:inkscape="http://www.inkscape.org/namespaces/inkscape"
   xmlns:sodipodi="http://sodipodi.sourceforge.net/DTD/sodipodi-0.dtd"
   xmlns="http://www.w3.org/2000/svg"
   xmlns:svg="http://www.w3.org/2000/svg">
  <defs
     id="defs1">
    <clipPath
       clipPathUnits="userSpaceOnUse"
       id="clipPath5">
      <path
         d="M 0,343.439 H 343.44 V 0.06 L 0,0.06 Z"
         transform="translate(-4.9638001,-171.719)"
         id="path5" />
    </clipPath>
    <clipPath
       clipPathUnits="userSpaceOnUse"
       id="clipPath7">
      <path
         d="M 0,343.439 H 343.44 V 0.06 L 0,0.06 Z"
         transform="translate(-171.72081,-0.50000001)"
         id="path7" />
    </clipPath>
  </defs>
  <sodipodi:namedview
     id="namedview1"
     pagecolor="#ffffff"
     bordercolor="#666666"
     borderopacity="1.0"
     inkscape:showpageshadow="2"
     inkscape:pageopacity="0.0"
     inkscape:pagecheckerboard="0"
     inkscape:deskcolor="#d1d1d1"
     inkscape:zoom="1.7928948"
     inkscape:cx="228.95934"
     inkscape:cy="228.95934"
     inkscape:window-width="1920"
     inkscape:window-height="1017"
     inkscape:window-x="-8"
     inkscape:window-y="-8"
     inkscape:window-maximized="1"
     inkscape:current-layer="g1">
    <inkscape:page
       x="0"
       y="0"
       inkscape:label="1"
       id="page1"
       width="457.92133"
       height="457.91867"
       margin="0"
       bleed="0" />
  </sodipodi:namedview>
  <g
     id="g1"
     inkscape:groupmode="layer"
     inkscape:label="1">
    <g
       id="group-MC1">
      <path
         id="path2"
         d="m 0,0 c 93.328,0 168.988,75.661 168.988,168.988 0,93.328 -75.66,168.989 -168.988,168.989 -93.329,0 -168.989,-75.661 -168.989,-168.989 C -168.989,75.661 -93.329,0 0,0"
         style="fill:#ffffff;fill-opacity:1;fill-rule:evenodd;stroke:#ffffff;stroke-width:1;stroke-linecap:butt;stroke-linejoin:miter;stroke-miterlimit:4;stroke-dasharray:none;stroke-opacity:1"
         transform="matrix(1.3333333,0,0,-1.3333333,228.96133,454.27733)" />
      <path
         id="path3"
         d="m 0,0 c 0,44.542 17.346,86.418 48.842,117.914 31.497,31.497 73.373,48.843 117.915,48.843 44.541,0 86.418,-17.346 117.915,-48.843 C 316.168,86.418 333.513,44.542 333.513,0 c 0,-91.949 -74.805,-166.756 -166.756,-166.756 -44.542,0 -86.418,17.346 -117.915,48.843 C 17.346,-86.417 0,-44.54 0,0 m 166.757,-171.219 c 45.734,0 88.73,17.811 121.07,50.149 32.34,32.339 50.15,75.336 50.15,121.07 0,45.734 -17.81,88.731 -50.15,121.071 -32.34,32.338 -75.336,50.149 -121.07,50.149 C 72.345,171.22 -4.4638,94.411 -4.4638,0 c 0,-45.734 17.8108,-88.731 50.1508,-121.07 32.339,-32.338 75.336,-50.149 121.07,-50.149"
         style="fill:#ed1c24;fill-opacity:1;fill-rule:evenodd;stroke:none"
         transform="matrix(1.3333333,0,0,-1.3333333,6.6184,228.96)" />
      <path
         id="path4"
         d="m 0,0 c 0,44.542 17.346,86.418 48.842,117.914 31.497,31.497 73.373,48.843 117.915,48.843 44.541,0 86.418,-17.346 117.915,-48.843 C 316.168,86.418 333.513,44.542 333.513,0 c 0,-91.949 -74.805,-166.756 -166.756,-166.756 -44.542,0 -86.418,17.346 -117.915,48.843 C 17.346,-86.417 0,-44.54 0,0"
         style="fill:none;stroke:#ed1c24;stroke-width:1;stroke-linecap:butt;stroke-linejoin:miter;stroke-miterlimit:4;stroke-dasharray:none;stroke-opacity:1"
         transform="matrix(1.3333333,0,0,-1.3333333,6.6184,228.96)"
         clip-path="url(#clipPath5)" />
      <path
         id="path6"
         d="m 0,0 c 45.734,0 88.73,17.811 121.07,50.149 32.34,32.339 50.15,75.336 50.15,121.07 0,45.734 -17.81,88.731 -50.15,121.071 C 88.73,324.628 45.734,342.439 0,342.439 c -94.412,0 -171.221,-76.809 -171.221,-171.22 0,-45.734 17.811,-88.731 50.15,-121.07 C -88.731,17.811 -45.734,0 0,0"
         style="fill:none;stroke:#ed1c24;stroke-width:1;stroke-linecap:butt;stroke-linejoin:miter;stroke-miterlimit:4;stroke-dasharray:none;stroke-opacity:1"
         transform="matrix(1.3333333,0,0,-1.3333333,228.96107,457.252)"
         clip-path="url(#clipPath7)" />
      <path
         id="path8"
         d="m 139.836,76.066 h 63.769 v 63.77 h -63.769 z"
         style="fill:#ed1c24;fill-opacity:1;fill-rule:nonzero;stroke:none"
         transform="matrix(1.3333333,0,0,-1.3333333,0,457.91867)" />
      <path
         id="path9"
         d="m 203.605,139.836 h -63.769 v -63.77 h 63.769 z"
         style="fill:none;stroke:#ed1c24;stroke-width:1;stroke-linecap:butt;stroke-linejoin:miter;stroke-miterlimit:4;stroke-dasharray:none;stroke-opacity:1"
         transform="matrix(1.3333333,0,0,-1.3333333,0,457.91867)" />
      <path
         id="path10"
         d="m 139.836,139.836 h 63.769 v 63.767 h -63.769 z"
         style="fill:#ed1c24;fill-opacity:1;fill-rule:nonzero;stroke:none"
         transform="matrix(1.3333333,0,0,-1.3333333,0,457.91867)" />
      <path
         id="path11"
         d="m 203.605,203.603 h -63.769 v -63.767 h 63.769 z"
         style="fill:none;stroke:#ed1c24;stroke-width:1;stroke-linecap:butt;stroke-linejoin:miter;stroke-miterlimit:4;stroke-dasharray:none;stroke-opacity:1"
         transform="matrix(1.3333333,0,0,-1.3333333,0,457.91867)" />
      <path
         id="path12"
         d="m 139.836,203.603 h 63.769 v 63.77 h -63.769 z"
         style="fill:#ed1c24;fill-opacity:1;fill-rule:nonzero;stroke:none"
         transform="matrix(1.3333333,0,0,-1.3333333,0,457.91867)" />
      <path
         id="path13"
         d="m 203.605,267.373 h -63.769 v -63.77 h 63.769 z"
         style="fill:none;stroke:#ed1c24;stroke-width:1;stroke-linecap:butt;stroke-linejoin:miter;stroke-miterlimit:4;stroke-dasharray:none;stroke-opacity:1"
         transform="matrix(1.3333333,0,0,-1.3333333,0,457.91867)" />
      <path
         id="path14"
         d="m 203.605,139.836 h 63.769 v 63.767 h -63.769 z"
         style="fill:#ed1c24;fill-opacity:1;fill-rule:nonzero;stroke:none"
         transform="matrix(1.3333333,0,0,-1.3333333,0,457.91867)" />
      <path
         id="path15"
         d="M 63.769,0 H 0 v -63.767 h 63.769 z"
         style="fill:none;stroke:#ed1c24;stroke-width:1;stroke-linecap:butt;stroke-linejoin:miter;stroke-miterlimit:4;stroke-dasharray:none;stroke-opacity:1"
         transform="matrix(1.3333333,0,0,-1.3333333,271.47333,186.448)" />
      <path
         id="path16"
         d="M 0,0 Z"
         style="fill:none;stroke:#ed1c24;stroke-width:1;stroke-linecap:butt;stroke-linejoin:miter;stroke-miterlimit:4;stroke-dasharray:none;stroke-opacity:1"
         transform="matrix(1.3333333,0,0,-1.3333333,271.47333,186.448)" />
      <path
         id="path17"
         d="m 76.067,139.836 h 63.769 v 63.767 H 76.067 Z"
         style="fill:#ed1c24;fill-opacity:1;fill-rule:nonzero;stroke:none"
         transform="matrix(1.3333333,0,0,-1.3333333,0,457.91867)" />
      <path
         id="path18"
         d="M 63.769,0 H 0 v -63.767 h 63.769 z"
         style="fill:none;stroke:#ed1c24;stroke-width:1;stroke-linecap:butt;stroke-linejoin:miter;stroke-miterlimit:4;stroke-dasharray:none;stroke-opacity:1"
         transform="matrix(1.3333333,0,0,-1.3333333,101.42267,186.448)" />
      <path
         id="path19"
         d="M 0,0 Z"
         style="fill:none;stroke:#ed1c24;stroke-width:1;stroke-linecap:butt;stroke-linejoin:miter;stroke-miterlimit:4;stroke-dasharray:none;stroke-opacity:1"
         transform="matrix(1.3333333,0,0,-1.3333333,101.42267,186.448)" />
      <path
         id="path20"
         d="m 0,0 c 0,31.766 12.371,61.633 34.835,84.096 22.463,22.463 52.328,34.834 84.095,34.834 31.767,0 61.632,-12.371 84.095,-34.834 22.463,-22.463 34.834,-52.33 34.834,-84.096 0,-65.577 -53.35,-118.929 -118.929,-118.929 -31.767,0 -61.632,12.371 -84.095,34.834 C 12.371,-61.632 0,-31.765 0,0 m 118.93,-123.392 c 32.959,0 63.946,12.835 87.251,36.142 23.307,23.305 36.141,54.292 36.141,87.25 0,32.959 -12.834,63.946 -36.141,87.252 -23.305,23.306 -54.292,36.141 -87.251,36.141 C 50.891,123.393 -4.463,68.04 -4.463,0 c 0,-32.958 12.835,-63.945 36.142,-87.25 23.306,-23.307 54.292,-36.142 87.251,-36.142"
         style="fill:#ed1c24;fill-opacity:1;fill-rule:evenodd;stroke:none"
         transform="matrix(1.3333333,0,0,-1.3333333,70.386667,228.96)" />
      <path
         id="path21"
         d="m 0,0 c 0,31.766 12.371,61.633 34.835,84.096 22.463,22.463 52.328,34.834 84.095,34.834 31.767,0 61.632,-12.371 84.095,-34.834 22.463,-22.463 34.834,-52.33 34.834,-84.096 0,-65.577 -53.35,-118.929 -118.929,-118.929 -31.767,0 -61.632,12.371 -84.095,34.834 C 12.371,-61.632 0,-31.765 0,0"
         style="fill:none;stroke:#ed1c24;stroke-width:1;stroke-linecap:butt;stroke-linejoin:miter;stroke-miterlimit:4;stroke-dasharray:none;stroke-opacity:1"
         transform="matrix(1.3333333,0,0,-1.3333333,70.386667,228.96)" />
      <path
         id="path22"
         d="m 0,0 c 32.959,0 63.945,12.835 87.251,36.142 23.307,23.305 36.141,54.292 36.141,87.25 0,32.959 -12.834,63.946 -36.141,87.252 C 63.945,233.95 32.959,246.785 0,246.785 c -68.04,0 -123.393,-55.353 -123.393,-123.393 0,-32.958 12.834,-63.945 36.141,-87.25 C -63.946,12.835 -32.959,0 0,0"
         style="fill:none;stroke:#ed1c24;stroke-width:1;stroke-linecap:butt;stroke-linejoin:miter;stroke-miterlimit:4;stroke-dasharray:none;stroke-opacity:1"
         transform="matrix(1.3333333,0,0,-1.3333333,228.96,393.48267)" />
      <path
         id="path23"
         d="m 0,0 10.343,-6.263 3.525,5.82 L 3.524,5.821 C 1.563,7.009 0.458,6.467 -0.903,4.222 -2.014,2.387 -1.803,1.092 0,0 M 4.207,13.231 17.334,5.283 20.801,11.008 27.855,6.737 13.93,-16.26 -3.72,-5.573 c -2.689,1.629 -4.535,3.006 -5.531,4.647 -1.682,2.791 -1.08,5.712 1.333,9.697 3.735,6.169 7.032,7.545 12.125,4.46"
         style="fill:#231f20;fill-opacity:1;fill-rule:evenodd;stroke:none"
         transform="matrix(1.3333333,0,0,-1.3333333,119.18,397.436)" />
      <path
         id="path24"
         d="m 0,0 10.343,-6.263 3.525,5.82 L 3.524,5.821 C 1.563,7.009 0.458,6.467 -0.903,4.222 -2.014,2.387 -1.803,1.092 0,0"
         style="fill:none;stroke:#231f20;stroke-width:1;stroke-linecap:butt;stroke-linejoin:miter;stroke-miterlimit:4;stroke-dasharray:none;stroke-opacity:1"
         transform="matrix(1.3333333,0,0,-1.3333333,119.18,397.436)" />
      <path
         id="path25"
         d="m 0,0 13.127,-7.948 3.467,5.725 7.054,-4.271 -13.925,-22.997 -17.65,10.687 c -2.689,1.629 -4.535,3.006 -5.531,4.647 -1.682,2.791 -1.08,5.712 1.333,9.697 C -8.39,1.709 -5.093,3.085 0,0"
         style="fill:none;stroke:#231f20;stroke-width:1;stroke-linecap:butt;stroke-linejoin:miter;stroke-miterlimit:4;stroke-dasharray:none;stroke-opacity:1"
         transform="matrix(1.3333333,0,0,-1.3333333,124.78933,379.79467)" />
      <path
         id="path26"
         d="m 0,0 c -3.196,-2.971 -2.405,-4.962 1.145,-8.781 l 3.576,-3.846 c 3.626,-3.9 5.451,-4.778 8.783,-1.68 l 2.735,2.543 c 3.115,2.895 2.325,4.938 -1.225,8.758 l -3.55,3.817 C 7.915,4.631 5.985,5.565 2.79,2.594 L 0,0 m 6.401,13.374 c 2.729,-0.492 5.184,-2.806 8.507,-6.382 l 6.547,-7.041 c 3.273,-3.521 5.428,-6.112 5.744,-8.948 0.294,-2.707 -1.017,-4.934 -3.861,-7.578 l -5.363,-4.987 c -3.033,-2.819 -5.461,-4.118 -8.191,-3.626 -2.677,0.49 -5.133,2.751 -8.482,6.354 l -6.571,7.068 c -3.349,3.602 -5.476,6.27 -5.745,8.949 -0.247,2.547 1.07,4.933 3.995,7.652 l 5.498,5.112 c 2.925,2.719 5.348,3.86 7.922,3.427"
         style="fill:#231f20;fill-opacity:1;fill-rule:evenodd;stroke:none"
         transform="matrix(1.3333333,0,0,-1.3333333,77.573333,351.76933)" />
      <path
         id="path27"
         d="m 0,0 c -3.196,-2.971 -2.405,-4.962 1.145,-8.781 l 3.576,-3.846 c 3.626,-3.9 5.451,-4.778 8.783,-1.68 l 2.735,2.543 c 3.115,2.895 2.325,4.938 -1.225,8.758 l -3.55,3.817 C 7.915,4.631 5.985,5.565 2.79,2.594 L 0,0"
         style="fill:none;stroke:#231f20;stroke-width:1;stroke-linecap:butt;stroke-linejoin:miter;stroke-miterlimit:4;stroke-dasharray:none;stroke-opacity:1"
         transform="matrix(1.3333333,0,0,-1.3333333,77.573333,351.76933)" />
      <path
         id="path28"
         d="m 0,0 c 2.729,-0.492 5.183,-2.806 8.507,-6.382 l 6.546,-7.041 c 3.273,-3.521 5.429,-6.112 5.744,-8.948 0.294,-2.707 -1.017,-4.934 -3.86,-7.578 l -5.363,-4.987 c -3.034,-2.819 -5.462,-4.118 -8.192,-3.626 -2.677,0.49 -5.132,2.751 -8.481,6.354 l -6.571,7.068 c -3.349,3.602 -5.477,6.27 -5.745,8.949 -0.247,2.547 1.069,4.933 3.995,7.652 l 5.497,5.112 C -4.998,-0.708 -2.575,0.433 0,0"
         style="fill:none;stroke:#231f20;stroke-width:1;stroke-linecap:butt;stroke-linejoin:miter;stroke-miterlimit:4;stroke-dasharray:none;stroke-opacity:1"
         transform="matrix(1.3333333,0,0,-1.3333333,86.108,333.93733)" />
      <path
         id="path29"
         d="m 0,0 -23.67,-12.74 -3.891,7.229 17.94,9.655 -8.481,15.759 5.73,3.083 L 0,0"
         style="fill:#231f20;fill-opacity:1;fill-rule:evenodd;stroke:#231f20;stroke-width:1;stroke-linecap:butt;stroke-linejoin:miter;stroke-miterlimit:4;stroke-dasharray:none;stroke-opacity:1"
         transform="matrix(1.3333333,0,0,-1.3333333,82.96,324.98133)" />
      <path
         id="path30"
         d="m 0,0 c 1.445,-1.354 2.326,-3.955 3.28,-7.757 l 2.661,-10.618 c 2.024,-8.071 1.524,-11.246 -4.18,-12.677 -0.286,-0.071 -1.013,-0.215 -2.107,-0.414 l -1.97,7.856 0.467,0.117 c 2.152,0.541 2.268,1.598 1.576,4.361 l -2.51,10.008 c -0.477,1.9 -1.258,2.582 -2.836,2.187 -1.901,-0.477 -1.873,-1.805 -1.298,-4.405 l 2.745,-12.619 c 1.341,-6.107 0.212,-8.448 -5.779,-9.951 -2.833,-0.71 -4.896,-0.693 -6.556,0.301 -2.307,1.442 -3.205,4.267 -4.258,8.464 l -3.049,12.161 c -1.483,5.918 -0.158,8.996 4.864,10.255 0.43,0.108 0.941,0.197 1.453,0.287 l 1.924,-7.675 -0.108,-0.028 c -1.721,-0.431 -2.366,-1.508 -1.926,-3.265 l 2.303,-9.184 c 0.62,-2.476 1.159,-3.712 2.989,-3.253 1.614,0.404 1.847,1.454 1.37,3.66 l -2.96,13.174 c -1.358,6.027 0.326,8.737 6.424,10.265 C -4.181,2.078 -2.091,1.954 0,0"
         style="fill:#231f20;fill-opacity:1;fill-rule:evenodd;stroke:#231f20;stroke-width:1;stroke-linecap:butt;stroke-linejoin:miter;stroke-miterlimit:4;stroke-dasharray:none;stroke-opacity:1"
         transform="matrix(1.3333333,0,0,-1.3333333,54.406667,253.788)" />
      <path
         id="path31"
         d="m 0,0 -10.511,-11.876 -0.098,-3.437 10.167,-0.288 -0.233,-8.207 -26.877,0.761 0.233,8.208 9.982,-0.283 0.097,3.438 -9.677,11.04 0.308,10.907 L -13.748,-4.642 0.323,11.424 0,0"
         style="fill:#231f20;fill-opacity:1;fill-rule:evenodd;stroke:#231f20;stroke-width:1;stroke-linecap:butt;stroke-linejoin:miter;stroke-miterlimit:4;stroke-dasharray:none;stroke-opacity:1"
         transform="matrix(1.3333333,0,0,-1.3333333,55.288,213.63067)" />
      <path
         id="path32"
         d="m 0,0 -26.253,5.802 1.772,8.016 L 1.772,8.016 0,0"
         style="fill:#231f20;fill-opacity:1;fill-rule:evenodd;stroke:#231f20;stroke-width:1;stroke-linecap:butt;stroke-linejoin:miter;stroke-miterlimit:4;stroke-dasharray:none;stroke-opacity:1"
         transform="matrix(1.3333333,0,0,-1.3333333,57.841333,196.59867)" />
      <path
         id="path33"
         d="m 0,0 c -0.089,-2.535 -1.872,-5.231 -4.81,-8.896 l -5.738,-7.155 c -2.661,-3.317 -4.679,-5.538 -7.55,-6.222 -2.796,-0.65 -5.233,0.213 -8.089,2.504 l -5.713,4.581 c -6.289,5.043 -5.88,9.219 -0.142,16.375 l 5.738,7.155 c 2.938,3.664 5.101,6.006 7.51,6.587 2.126,0.523 4.32,-0.289 6.83,-2.301 0.375,-0.301 0.778,-0.625 1.16,-0.978 l -5.16,-6.434 -0.202,0.162 c -1.673,1.342 -3.222,0.83 -5.072,-1.479 l -4.119,-5.135 c -3.331,-4.154 -3.593,-5.604 -0.016,-8.472 l 2.914,-2.338 c 3.29,-2.637 5.087,-1.755 8.095,1.995 l 2.984,3.723 c 2.846,3.548 3.605,5.262 1.095,7.276 l -0.232,0.184 5.206,6.493 C -4.739,7.213 -4.226,6.849 -3.735,6.456 -1.138,4.372 0.106,2.379 0,0"
         style="fill:#231f20;fill-opacity:1;fill-rule:evenodd;stroke:#231f20;stroke-width:1;stroke-linecap:butt;stroke-linejoin:miter;stroke-miterlimit:4;stroke-dasharray:none;stroke-opacity:1"
         transform="matrix(1.3333333,0,0,-1.3333333,104.052,103.368)" />
      <path
         id="path34"
         d="M 0,0 -3.88,5.319 3.468,27.756 -11.442,16.879 -15.28,22.139 9.343,40.1 13.18,34.84 5.921,12.469 21.668,23.957 25.548,18.637 0,0"
         style="fill:#231f20;fill-opacity:1;fill-rule:evenodd;stroke:#231f20;stroke-width:1;stroke-linecap:butt;stroke-linejoin:miter;stroke-miterlimit:4;stroke-dasharray:none;stroke-opacity:1"
         transform="matrix(1.3333333,0,0,-1.3333333,109.51333,100.66533)" />
      <path
         id="path35"
         d="M 0,0 -9.982,24.956 17.273,35.858 19.704,29.782 0.069,21.927 1.58,18.152 20.082,25.553 22.182,20.301 3.68,12.9 5.204,9.09 25.148,17.067 27.565,11.025 0,0"
         style="fill:#231f20;fill-opacity:1;fill-rule:evenodd;stroke:#231f20;stroke-width:1;stroke-linecap:butt;stroke-linejoin:miter;stroke-miterlimit:4;stroke-dasharray:none;stroke-opacity:1"
         transform="matrix(1.3333333,0,0,-1.3333333,146.37867,74.506667)" />
      <path
         id="path36"
         d="m 0,0 -12.966,-1.509 0.761,-6.538 12.965,1.509 C 3.038,-6.273 3.583,-5.205 3.289,-2.67 3.049,-0.613 2.092,0.243 0,0 m 7.901,-8.723 c 2.869,-0.336 4.498,-1.858 4.814,-4.577 l 0.636,-5.473 -8.153,-0.949 -0.475,4.078 c -0.264,2.277 -1.312,2.639 -3.993,2.326 l -12.158,-1.413 0.795,-6.833 -8.191,-0.952 -3.106,26.702 21.45,2.496 C 7.6,7.623 10.676,6.156 11.483,-0.787 11.996,-5.194 11.15,-7.525 7.901,-8.723"
         style="fill:#231f20;fill-opacity:1;fill-rule:evenodd;stroke:none"
         transform="matrix(1.3333333,0,0,-1.3333333,212.4,28.558667)" />
      <path
         id="path37"
         d="m 0,0 -12.966,-1.509 0.761,-6.538 12.965,1.509 C 3.038,-6.273 3.583,-5.205 3.289,-2.67 3.049,-0.613 2.092,0.243 0,0"
         style="fill:none;stroke:#231f20;stroke-width:1;stroke-linecap:butt;stroke-linejoin:miter;stroke-miterlimit:4;stroke-dasharray:none;stroke-opacity:1"
         transform="matrix(1.3333333,0,0,-1.3333333,212.4,28.558667)" />
      <path
         id="path38"
         d="m 0,0 c 2.869,-0.336 4.498,-1.859 4.814,-4.578 l 0.636,-5.472 -8.153,-0.949 -0.475,4.078 c -0.264,2.276 -1.312,2.639 -3.993,2.326 l -12.158,-1.414 0.795,-6.832 -8.191,-0.952 -3.106,26.702 21.45,2.495 C -0.301,16.345 2.775,14.878 3.582,7.936 4.095,3.529 3.249,1.197 0,0"
         style="fill:none;stroke:#231f20;stroke-width:1;stroke-linecap:butt;stroke-linejoin:miter;stroke-miterlimit:4;stroke-dasharray:none;stroke-opacity:1"
         transform="matrix(1.3333333,0,0,-1.3333333,222.93467,40.189333)" />
      <path
         id="path39"
         d="m 0,0 -9.066,1.798 -2.489,19.377 -9.805,-16.939 -9.212,1.827 -3.185,28.033 8.014,-1.59 1.722,-19.828 10.465,17.412 7.397,-1.467 2.665,-20.015 9.521,17.599 8.014,-1.59 L 0,0"
         style="fill:#231f20;fill-opacity:1;fill-rule:evenodd;stroke:#231f20;stroke-width:1;stroke-linecap:butt;stroke-linejoin:miter;stroke-miterlimit:4;stroke-dasharray:none;stroke-opacity:1"
         transform="matrix(1.3333333,0,0,-1.3333333,283.80667,62.369333)" />
      <path
         id="path40"
         d="m 0,0 c 2.165,3.789 0.817,5.454 -3.711,8.042 l -4.56,2.604 c -4.624,2.643 -6.629,2.936 -8.886,-1.014 l -1.852,-3.243 c -2.111,-3.694 -0.748,-5.41 3.78,-7.996 l 4.527,-2.587 c 4.529,-2.587 6.649,-2.904 8.814,0.886 L 0,0 m -2.123,-14.676 c -2.752,-0.344 -5.785,1.133 -10.023,3.555 l -8.35,4.771 c -4.174,2.385 -7.005,4.215 -8.151,6.83 -1.088,2.496 -0.501,5.013 1.426,8.386 l 3.633,6.358 c 2.054,3.597 3.986,5.56 6.738,5.904 2.702,0.33 5.722,-1.096 9.992,-3.537 L 1.523,12.803 C 5.793,10.363 8.621,8.45 9.674,5.973 10.67,3.615 10.126,0.945 8.143,-2.523 L 4.418,-9.042 c -1.981,-3.469 -3.953,-5.28 -6.541,-5.634"
         style="fill:#231f20;fill-opacity:1;fill-rule:evenodd;stroke:none"
         transform="matrix(1.3333333,0,0,-1.3333333,336.74933,66.496)" />
      <path
         id="path41"
         d="m 0,0 c 2.165,3.789 0.817,5.454 -3.711,8.042 l -4.56,2.604 c -4.624,2.643 -6.629,2.936 -8.886,-1.014 l -1.852,-3.243 c -2.111,-3.694 -0.748,-5.41 3.78,-7.996 l 4.527,-2.587 c 4.529,-2.587 6.649,-2.904 8.814,0.886 L 0,0"
         style="fill:none;stroke:#231f20;stroke-width:1;stroke-linecap:butt;stroke-linejoin:miter;stroke-miterlimit:4;stroke-dasharray:none;stroke-opacity:1"
         transform="matrix(1.3333333,0,0,-1.3333333,336.74933,66.496)" />
      <path
         id="path42"
         d="m 0,0 c -2.752,-0.344 -5.785,1.133 -10.023,3.555 l -8.35,4.771 c -4.174,2.384 -7.005,4.214 -8.151,6.83 -1.088,2.495 -0.501,5.013 1.426,8.386 l 3.633,6.358 c 2.054,3.597 3.986,5.559 6.738,5.904 2.702,0.33 5.722,-1.096 9.992,-3.537 l 8.381,-4.788 c 4.27,-2.44 7.098,-4.353 8.151,-6.83 0.996,-2.359 0.452,-5.028 -1.531,-8.497 L 6.541,5.634 C 4.56,2.165 2.588,0.354 0,0"
         style="fill:none;stroke:#231f20;stroke-width:1;stroke-linecap:butt;stroke-linejoin:miter;stroke-miterlimit:4;stroke-dasharray:none;stroke-opacity:1"
         transform="matrix(1.3333333,0,0,-1.3333333,333.91867,86.064)" />
      <path
         id="path43"
         d="M 0,0 3.242,25.147 -11.032,11.763 -16.648,17.753 2.967,36.146 11.291,27.269 7.864,2.102 22.245,15.586 27.836,9.624 8.221,-8.769 0,0"
         style="fill:#231f20;fill-opacity:1;fill-rule:evenodd;stroke:#231f20;stroke-width:1;stroke-linecap:butt;stroke-linejoin:miter;stroke-miterlimit:4;stroke-dasharray:none;stroke-opacity:1"
         transform="matrix(1.3333333,0,0,-1.3333333,361.63333,116.01733)" />
      <path
         id="path44"
         d="M 0,0 -8.628,-4.323 -12.305,3.016 -3.678,7.339 5.086,28.312 9.608,19.287 4.012,6.6 17.706,3.124 22.063,-5.571 0,0"
         style="fill:#231f20;fill-opacity:1;fill-rule:evenodd;stroke:#231f20;stroke-width:1;stroke-linecap:butt;stroke-linejoin:miter;stroke-miterlimit:4;stroke-dasharray:none;stroke-opacity:1"
         transform="matrix(1.3333333,0,0,-1.3333333,398.492,150.00933)" />
      <path
         id="path45"
         d="M 0,0 9.48,12.708 9.291,16.142 -0.862,15.579 -1.316,23.776 25.525,25.26 25.977,17.065 16.009,16.513 16.2,13.079 26.761,2.888 27.364,-8.003 13.307,5.772 0.632,-11.407 0,0"
         style="fill:#231f20;fill-opacity:1;fill-rule:evenodd;stroke:#231f20;stroke-width:1;stroke-linecap:butt;stroke-linejoin:miter;stroke-miterlimit:4;stroke-dasharray:none;stroke-opacity:1"
         transform="matrix(1.3333333,0,0,-1.3333333,403.292,229.45467)" />
      <path
         id="path46"
         d="m 0,0 2.829,12.748 -6.427,1.426 -2.83,-12.747 c -0.496,-2.24 0.334,-3.106 2.826,-3.659 C -1.581,-2.681 -0.457,-2.059 0,0 m -10.837,-4.605 c -1.258,-2.6 -3.232,-3.64 -5.904,-3.047 l -5.381,1.195 1.78,8.017 4.008,-0.89 c 2.239,-0.498 2.924,0.373 3.51,3.01 l 2.652,11.953 -6.715,1.49 1.787,8.053 L 11.153,19.349 6.471,-1.74 c -1.763,-7.944 -4.157,-10.368 -10.982,-8.854 -4.334,0.962 -6.26,2.527 -6.326,5.989"
         style="fill:#231f20;fill-opacity:1;fill-rule:evenodd;stroke:none"
         transform="matrix(1.3333333,0,0,-1.3333333,423.64933,279.44667)" />
      <path
         id="path47"
         d="m 0,0 2.829,12.748 -6.427,1.426 -2.83,-12.747 c -0.496,-2.24 0.334,-3.106 2.826,-3.659 C -1.581,-2.681 -0.457,-2.059 0,0"
         style="fill:none;stroke:#231f20;stroke-width:1;stroke-linecap:butt;stroke-linejoin:miter;stroke-miterlimit:4;stroke-dasharray:none;stroke-opacity:1"
         transform="matrix(1.3333333,0,0,-1.3333333,423.64933,279.44667)" />
      <path
         id="path48"
         d="m 0,0 c -1.258,-2.6 -3.232,-3.64 -5.904,-3.047 l -5.381,1.195 1.78,8.017 4.008,-0.89 c 2.239,-0.498 2.924,0.373 3.51,3.01 l 2.652,11.953 -6.715,1.49 1.787,8.053 L 21.99,23.954 17.308,2.865 C 15.545,-5.079 13.151,-7.503 6.326,-5.989 1.992,-5.027 0.066,-3.462 0,0"
         style="fill:none;stroke:#231f20;stroke-width:1;stroke-linecap:butt;stroke-linejoin:miter;stroke-miterlimit:4;stroke-dasharray:none;stroke-opacity:1"
         transform="matrix(1.3333333,0,0,-1.3333333,409.2,285.58667)" />
      <path
         id="path49"
         d="m 0,0 5.832,-3.052 3.34,-23.367 8.556,16.349 5.767,-3.017 -14.13,-27 -5.766,3.018 -3.391,23.27 -9.036,-17.267 -5.832,3.052 L 0,0"
         style="fill:#231f20;fill-opacity:1;fill-rule:evenodd;stroke:#231f20;stroke-width:1;stroke-linecap:butt;stroke-linejoin:miter;stroke-miterlimit:4;stroke-dasharray:none;stroke-opacity:1"
         transform="matrix(1.3333333,0,0,-1.3333333,392.996,290.932)" />
      <path
         id="path50"
         d="m 0,0 -7.101,6.535 5.56,6.039 L 5.558,6.039 28.277,5.278 21.441,-2.149 7.595,-1.414 9.196,-15.451 2.609,-22.607 0,0"
         style="fill:#231f20;fill-opacity:1;fill-rule:evenodd;stroke:#231f20;stroke-width:1;stroke-linecap:butt;stroke-linejoin:miter;stroke-miterlimit:4;stroke-dasharray:none;stroke-opacity:1"
         transform="matrix(1.3333333,0,0,-1.3333333,362.94667,359.37467)" />
      <path
         id="path51"
         d="m 0,0 3.526,-5.56 -8.793,-21.911 15.587,9.882 3.487,-5.497 -25.74,-16.32 -3.486,5.498 8.699,21.852 -16.462,-10.439 -3.526,5.561 L 0,0 m 4.891,-31.542 2.991,-4.717 -5.779,-3.664 -2.992,4.717 5.78,3.664"
         style="fill:#231f20;fill-opacity:1;fill-rule:evenodd;stroke:none"
         transform="matrix(1.3333333,0,0,-1.3333333,339.76933,364.796)" />
      <path
         id="path52"
         d="m 0,0 3.526,-5.56 -8.793,-21.911 15.587,9.882 3.487,-5.497 -25.74,-16.32 -3.486,5.498 8.699,21.852 -16.462,-10.439 -3.526,5.561 L 0,0"
         style="fill:none;stroke:#231f20;stroke-width:1;stroke-linecap:butt;stroke-linejoin:miter;stroke-miterlimit:4;stroke-dasharray:none;stroke-opacity:1"
         transform="matrix(1.3333333,0,0,-1.3333333,339.76933,364.796)" />
      <path
         id="path53"
         d="M 0,0 2.991,-4.717 -2.788,-8.381 -5.78,-3.664 0,0"
         style="fill:none;stroke:#231f20;stroke-width:1;stroke-linecap:butt;stroke-linejoin:miter;stroke-miterlimit:4;stroke-dasharray:none;stroke-opacity:1"
         transform="matrix(1.3333333,0,0,-1.3333333,346.29067,406.852)" />
    </g>
  </g>
</svg>
