<?xml version="1.0" encoding="UTF-8" standalone="no"?>
<!-- Created with Inkscape (http://www.inkscape.org/) -->

<svg
   version="1.1"
   id="svg1"
   width="324.75467"
   height="324.75201"
   viewBox="0 0 324.75467 324.75201"
   sodipodi:docname="Seychelles Red Cross Society.svg"
   inkscape:version="1.3.2 (091e20e, 2023-11-25, custom)"
   xmlns:inkscape="http://www.inkscape.org/namespaces/inkscape"
   xmlns:sodipodi="http://sodipodi.sourceforge.net/DTD/sodipodi-0.dtd"
   xmlns="http://www.w3.org/2000/svg"
   xmlns:svg="http://www.w3.org/2000/svg">
  <defs
     id="defs1">
    <clipPath
       clipPathUnits="userSpaceOnUse"
       id="clipPath15">
      <path
         d="M 0,243.564 H 243.566 V 0.06 L 0,0.06 Z"
         transform="translate(-241.066,-121.78101)"
         id="path15" />
    </clipPath>
  </defs>
  <sodipodi:namedview
     id="namedview1"
     pagecolor="#ffffff"
     bordercolor="#666666"
     borderopacity="1.0"
     inkscape:showpageshadow="2"
     inkscape:pageopacity="0.0"
     inkscape:pagecheckerboard="0"
     inkscape:deskcolor="#d1d1d1"
     inkscape:export-bgcolor="#ffffffff"
     inkscape:zoom="2.5280828"
     inkscape:cx="162.37601"
     inkscape:cy="162.37601"
     inkscape:window-width="1920"
     inkscape:window-height="1017"
     inkscape:window-x="-8"
     inkscape:window-y="-8"
     inkscape:window-maximized="1"
     inkscape:current-layer="g1">
    <inkscape:page
       x="0"
       y="0"
       inkscape:label="1"
       id="page1"
       width="324.75467"
       height="324.75201"
       margin="0"
       bleed="0"
       inkscape:export-filename="Seychelles Red Cross Society.png"
       inkscape:export-xdpi="300"
       inkscape:export-ydpi="300" />
  </sodipodi:namedview>
  <g
     id="g1"
     inkscape:groupmode="layer"
     inkscape:label="1">
    <g
       id="group-MC1">
      <path
         id="path2"
         d="M 0,0 H -32.05 V -32.05 H 0 V -64.096 H 32.047 V -32.05 H 64.093 V 0 H 32.047 V 32.048 L 0,32.048 V 0"
         style="fill:#ed1c24;fill-opacity:1;fill-rule:nonzero;stroke:none"
         transform="matrix(1.3333333,0,0,-1.3333333,141.01467,143.05467)" />
      <path
         id="path3"
         d="m 0,0 c 0,42.35 -34.331,76.682 -76.681,76.682 -42.35,0 -76.681,-34.332 -76.681,-76.682 0,-42.35 34.331,-76.681 76.681,-76.681 C -34.331,-76.681 0,-42.35 0,0 Z"
         style="fill:none;stroke:#ed1c24;stroke-width:1;stroke-linecap:butt;stroke-linejoin:miter;stroke-miterlimit:4;stroke-dasharray:none;stroke-opacity:1"
         transform="matrix(1.3333333,0,0,-1.3333333,264.61867,162.37733)" />
      <path
         id="path4"
         d="M 0,0 C 2.06,-1.646 4.144,-0.682 5.599,1.14 6.551,2.332 7.659,4.431 6.076,5.695 4.407,7.028 2.271,4.934 -0.154,3.142 -2.597,1.328 -5.339,-0.282 -8.245,2.039 c -3.165,2.528 -2.293,6.733 -0.059,9.53 2.581,3.231 6.363,5.075 9.94,2.218 L -0.996,10.491 C -2.947,11.872 -4.481,10.931 -5.78,9.305 -6.646,8.22 -7.195,6.599 -5.894,5.56 -4.701,4.607 -3.961,5.223 0.137,8.308 1.319,9.21 4.806,12.108 8.318,9.302 11.159,7.034 11.5,3.103 8.14,-1.104 5.404,-4.529 1.149,-6.387 -2.632,-3.296 L 0,0"
         style="fill:#ed1c24;fill-opacity:1;fill-rule:nonzero;stroke:none"
         transform="matrix(1.3333333,0,0,-1.3333333,59.666667,88.833333)" />
      <path
         id="path5"
         d="M 0,0 11.432,9.436 13.765,6.61 5.694,-0.052 8.397,-3.327 15.804,2.787 17.96,0.175 10.553,-5.939 13.645,-9.685 21.887,-2.882 24.22,-5.708 12.616,-15.285 0,0"
         style="fill:#ed1c24;fill-opacity:1;fill-rule:nonzero;stroke:none"
         transform="matrix(1.3333333,0,0,-1.3333333,63.078667,58.129333)" />
      <path
         id="path6"
         d="M 0,0 -12.062,7.36 -7.705,9.629 0.02,4.829 0.491,13.897 4.798,16.14 3.915,1.914 7.427,-4.83 3.563,-6.842 0,0"
         style="fill:#ed1c24;fill-opacity:1;fill-rule:nonzero;stroke:none"
         transform="matrix(1.3333333,0,0,-1.3333333,100.51867,51.024)" />
      <path
         id="path7"
         d="m 0,0 c -0.764,1.837 -2.967,2.813 -5.061,2.269 -3.787,-0.983 -4.374,-4.575 -3.502,-7.932 0.83,-3.196 3.09,-6.049 6.877,-5.066 2.578,0.669 3.568,2.819 3.235,5.427 l 4.082,1.06 c 0.811,-4.892 -1.697,-8.811 -6.397,-10.032 -5.935,-1.541 -10.577,1.984 -12.014,7.516 -1.478,5.693 0.863,11.031 6.798,12.572 C -1.766,6.909 2.421,5.359 4.082,1.06 L 0,0"
         style="fill:#ed1c24;fill-opacity:1;fill-rule:nonzero;stroke:none"
         transform="matrix(1.3333333,0,0,-1.3333333,134.40667,30.705333)" />
      <path
         id="path8"
         d="m 0,0 4.355,0.084 0.146,-7.601 8.017,0.154 -0.146,7.601 4.355,0.084 0.382,-19.807 -4.356,-0.084 -0.164,8.545 -8.017,-0.155 0.165,-8.544 L 0.381,-19.807 0,0"
         style="fill:#ed1c24;fill-opacity:1;fill-rule:nonzero;stroke:none"
         transform="matrix(1.3333333,0,0,-1.3333333,148.37733,19.337333)" />
      <path
         id="path9"
         d="m 0,0 14.52,-2.958 -0.731,-3.589 -10.251,2.088 -0.848,-4.16 9.409,-1.917 -0.676,-3.317 -9.408,1.916 -0.97,-4.758 10.469,-2.132 -0.731,-3.59 -14.738,3.002 L 0,0"
         style="fill:#ed1c24;fill-opacity:1;fill-rule:nonzero;stroke:none"
         transform="matrix(1.3333333,0,0,-1.3333333,182.14133,20.12)" />
      <path
         id="path10"
         d="m 0,0 4.011,-1.706 -6.324,-14.866 8.889,-3.781 -1.433,-3.371 -12.9,5.486 L 0,0"
         style="fill:#ed1c24;fill-opacity:1;fill-rule:nonzero;stroke:none"
         transform="matrix(1.3333333,0,0,-1.3333333,211.19867,27.276)" />
      <path
         id="path11"
         d="m 0,0 3.61,-2.439 -9.041,-13.383 8.003,-5.406 -2.051,-3.035 -11.612,7.845 L 0,0"
         style="fill:#ed1c24;fill-opacity:1;fill-rule:nonzero;stroke:none"
         transform="matrix(1.3333333,0,0,-1.3333333,236.24933,39.073333)" />
      <path
         id="path12"
         d="m 0,0 10.405,-10.552 -2.609,-2.572 -7.345,7.449 -3.024,-2.981 6.742,-6.837 -2.411,-2.377 -6.742,6.837 -3.458,-3.41 7.502,-7.608 -2.608,-2.572 -10.561,10.71 L 0,0"
         style="fill:#ed1c24;fill-opacity:1;fill-rule:nonzero;stroke:none"
         transform="matrix(1.3333333,0,0,-1.3333333,258.72,55.433333)" />
      <path
         id="path13"
         d="m 0,0 c -2.217,-1.427 -1.97,-3.709 -0.71,-5.671 0.827,-1.284 2.461,-3.005 4.165,-1.909 1.798,1.157 0.496,3.85 -0.427,6.722 -0.939,2.895 -1.588,6.008 1.541,8.02 3.408,2.192 7.114,0.022 9.051,-2.99 2.237,-3.479 2.777,-7.653 -1.076,-10.13 l -2.282,3.548 c 1.933,1.408 1.531,3.163 0.404,4.914 C 9.916,3.671 8.555,4.71 7.154,3.809 5.87,2.983 6.217,2.084 7.831,-2.786 8.308,-4.195 9.94,-8.425 6.158,-10.858 3.1,-12.825 -0.735,-11.892 -3.647,-7.362 -6.02,-3.674 -6.421,0.953 -2.282,3.548 L 0,0"
         style="fill:#ed1c24;fill-opacity:1;fill-rule:nonzero;stroke:none"
         transform="matrix(1.3333333,0,0,-1.3333333,266.28533,90.496)" />
      <path
         id="path14"
         d="m 0,0 c 0,65.878 -53.404,119.283 -119.283,119.283 -65.878,0 -119.283,-53.405 -119.283,-119.283 0,-65.878 53.405,-119.281 119.283,-119.281 C -53.404,-119.281 0,-65.878 0,0 Z"
         style="fill:none;stroke:#ed1c24;stroke-width:5;stroke-linecap:butt;stroke-linejoin:miter;stroke-miterlimit:4;stroke-dasharray:none;stroke-opacity:1"
         transform="matrix(1.3333333,0,0,-1.3333333,321.42133,162.37733)"
         clip-path="url(#clipPath15)" />
      <path
         id="path16"
         d="m 0,0 0.275,-4.765 c 0.112,-1.938 1.004,-2.943 2.998,-2.828 1.912,0.111 2.682,1.211 2.57,3.15 L 5.568,0.322 Z M 8.697,4.865 9.313,-5.799 c 0.205,-3.546 -2.131,-5.932 -5.124,-6.104 -2.326,-0.135 -4.126,0.706 -5.139,2.844 l -0.055,-0.004 c -0.431,-2.164 -2.474,-2.895 -4.46,-3.148 -1.241,-0.155 -3.57,-0.262 -4.633,-1.101 l -0.252,4.349 c 1.217,0.598 3.131,0.653 4.698,0.965 2.06,0.425 2.927,1.283 2.801,3.47 l -0.251,4.349 -7.728,-0.446 -0.252,4.349 19.779,1.141"
         style="fill:#ed1c24;fill-opacity:1;fill-rule:nonzero;stroke:none"
         transform="matrix(1.3333333,0,0,-1.3333333,31.289333,166.46933)" />
      <path
         id="path17"
         d="m 0,0 3.938,-14.288 -3.532,-0.972 -2.78,10.086 -4.093,-1.129 2.552,-9.256 -3.264,-0.9 -2.551,9.256 -4.682,-1.291 2.84,-10.299 -3.532,-0.974 -3.998,14.5 L 0,0"
         style="fill:#ed1c24;fill-opacity:1;fill-rule:nonzero;stroke:none"
         transform="matrix(1.3333333,0,0,-1.3333333,45.053333,186.19467)" />
      <path
         id="path18"
         d="m 0,0 1.799,-3.445 c 1.169,-2.237 3.664,-3.658 7.551,-1.628 3.542,1.85 5.162,4.263 3.158,8.099 l -1.44,2.755 z m 12.298,11.338 3.957,-7.575 c 2.378,-4.551 1.31,-9.46 -4.52,-12.505 -5.091,-2.66 -10.24,-2.031 -13.042,3.331 l -3.958,7.576 17.563,9.173"
         style="fill:#ed1c24;fill-opacity:1;fill-rule:nonzero;stroke:none"
         transform="matrix(1.3333333,0,0,-1.3333333,35.244,223.97733)" />
      <path
         id="path19"
         d="M 0,0 C 1.176,1.606 0.869,3.996 -0.682,5.506 -3.484,8.234 -6.861,6.875 -9.28,4.39 c -2.304,-2.365 -3.573,-5.777 -0.771,-8.505 1.908,-1.859 4.26,-1.592 6.319,0.044 l 3.021,-2.943 c -3.764,-3.228 -8.416,-3.113 -11.895,0.274 -4.392,4.277 -3.783,10.074 0.206,14.17 4.102,4.214 9.88,4.977 14.273,0.699 C 4.994,5.091 5.838,0.707 3.021,-2.941 L 0,0"
         style="fill:#ed1c24;fill-opacity:1;fill-rule:nonzero;stroke:none"
         transform="matrix(1.3333333,0,0,-1.3333333,77.78,259.948)" />
      <path
         id="path20"
         d="M 0,0 4.075,-2.487 C 5.733,-3.499 7.067,-3.337 8.108,-1.631 9.106,0.003 8.64,1.264 6.981,2.276 L 2.907,4.762 Z M 0.95,9.923 10.073,4.356 C 13.105,2.505 13.737,-0.775 12.176,-3.333 10.962,-5.324 9.245,-6.325 6.91,-5.941 L 6.881,-5.988 c 1.535,-1.587 0.972,-3.682 0.05,-5.46 -0.58,-1.109 -1.819,-3.085 -1.734,-4.437 l -3.719,2.269 c 0.201,1.341 1.246,2.947 1.88,4.413 0.825,1.936 0.614,3.138 -1.257,4.28 l -3.72,2.27 -4.034,-6.61 -3.72,2.27 L 0.95,9.923"
         style="fill:#ed1c24;fill-opacity:1;fill-rule:nonzero;stroke:none"
         transform="matrix(1.3333333,0,0,-1.3333333,89.773333,272.912)" />
      <path
         id="path21"
         d="M 0,0 C 3.714,-1.231 6.158,1.467 7.197,4.602 8.289,7.895 7.94,11.519 4.227,12.75 0.512,13.982 -1.933,11.283 -3.023,7.99 -4.062,4.856 -3.715,1.232 0,0 Z M 5.379,16.228 C 11.2,14.297 13.185,8.816 11.333,3.231 9.533,-2.196 4.669,-5.407 -1.153,-3.477 c -5.822,1.93 -7.806,7.412 -6.006,12.838 1.85,5.585 6.717,8.796 12.538,6.867"
         style="fill:#ed1c24;fill-opacity:1;fill-rule:nonzero;stroke:none"
         transform="matrix(1.3333333,0,0,-1.3333333,117.852,297.728)" />
      <path
         id="path22"
         d="m 0,0 c -0.273,-2.622 1.662,-3.857 3.981,-4.099 1.518,-0.16 3.882,0.04 4.093,2.054 0.222,2.125 -2.693,2.794 -5.51,3.869 -2.845,1.079 -5.68,2.52 -5.293,6.218 0.421,4.03 4.432,5.563 7.993,5.191 4.111,-0.43 7.705,-2.62 7.228,-7.173 L 8.297,6.497 C 8.408,8.886 6.787,9.669 4.718,9.886 3.338,10.03 1.676,9.617 1.504,7.962 1.344,6.445 2.263,6.152 7.07,4.366 8.468,3.858 12.789,2.485 12.321,-1.987 11.943,-5.602 8.817,-8.01 3.463,-7.449 -0.898,-6.993 -4.758,-4.414 -4.195,0.439 L 0,0"
         style="fill:#ed1c24;fill-opacity:1;fill-rule:nonzero;stroke:none"
         transform="matrix(1.3333333,0,0,-1.3333333,142.80267,299.124)" />
      <path
         id="path23"
         d="m 0,0 c 0.251,-2.624 2.392,-3.451 4.712,-3.228 1.519,0.145 3.798,0.808 3.605,2.825 -0.203,2.127 -3.193,2.204 -6.168,2.7 -3.002,0.493 -6.065,1.344 -6.419,5.045 -0.386,4.032 3.241,6.331 6.806,6.672 4.115,0.393 8.07,-1.04 8.506,-5.599 L 6.844,8.014 C 6.479,10.376 4.735,10.822 2.663,10.625 1.282,10.493 -0.264,9.759 -0.105,8.103 0.04,6.583 0.997,6.479 6.063,5.681 7.534,5.459 12.041,4.97 12.468,0.495 12.815,-3.124 10.228,-6.102 4.869,-6.614 0.505,-7.032 -3.79,-5.267 -4.199,-0.401 L 0,0"
         style="fill:#ed1c24;fill-opacity:1;fill-rule:nonzero;stroke:none"
         transform="matrix(1.3333333,0,0,-1.3333333,169.98933,300.34533)" />
      <path
         id="path24"
         d="m 0,0 c 1.003,-2.439 3.293,-2.607 5.449,-1.721 1.412,0.58 3.399,1.878 2.628,3.751 -0.812,1.977 -3.696,1.181 -6.686,0.791 -3.016,-0.4 -6.196,-0.476 -7.61,2.963 -1.541,3.748 1.263,7 4.574,8.361 3.825,1.573 8.026,1.35 9.768,-2.884 L 4.221,9.656 C 3.185,11.811 1.389,11.731 -0.537,10.94 -1.82,10.413 -3.088,9.262 -2.454,7.722 -1.874,6.311 -0.928,6.489 4.152,7.198 5.624,7.413 10.078,8.254 11.789,4.097 13.171,0.733 11.561,-2.868 6.582,-4.915 2.527,-6.583 -2.096,-6.143 -3.9,-1.605 L 0,0"
         style="fill:#ed1c24;fill-opacity:1;fill-rule:nonzero;stroke:none"
         transform="matrix(1.3333333,0,0,-1.3333333,209.08933,292.332)" />
      <path
         id="path25"
         d="m 0,0 c 3.218,2.224 2.537,5.799 0.659,8.515 -1.972,2.853 -5.074,4.757 -8.292,2.533 -3.219,-2.225 -2.536,-5.8 -0.565,-8.653 C -6.321,-0.32 -3.218,-2.224 0,0 Z m -9.715,14.06 c 5.044,3.486 10.613,1.771 13.957,-3.069 3.25,-4.703 2.884,-10.518 -2.16,-14.004 -5.045,-3.486 -10.614,-1.77 -13.864,2.932 -3.344,4.839 -2.978,10.656 2.067,14.141"
         style="fill:#ed1c24;fill-opacity:1;fill-rule:nonzero;stroke:none"
         transform="matrix(1.3333333,0,0,-1.3333333,242.728,279.84)" />
      <path
         id="path26"
         d="m 0,0 c -1.647,1.115 -4.023,0.72 -5.475,-0.886 -2.625,-2.902 -1.139,-6.226 1.434,-8.551 2.449,-2.215 5.905,-3.357 8.529,-0.456 1.786,1.977 1.432,4.317 -0.279,6.313 l 2.828,3.129 c 3.366,-3.641 3.425,-8.295 0.168,-11.897 -4.112,-4.548 -9.928,-4.156 -14.168,-0.322 -4.364,3.945 -5.342,9.692 -1.229,14.24 2.92,3.233 7.271,4.239 11.021,1.559 L 0,0"
         style="fill:#ed1c24;fill-opacity:1;fill-rule:nonzero;stroke:none"
         transform="matrix(1.3333333,0,0,-1.3333333,261.64133,244.72667)" />
      <path
         id="path27"
         d="M 0,0 2.359,3.663 19.017,-7.058 16.659,-10.721 0,0"
         style="fill:#ed1c24;fill-opacity:1;fill-rule:nonzero;stroke:none"
         transform="matrix(1.3333333,0,0,-1.3333333,260.85067,230.74)" />
      <path
         id="path28"
         d="M 0,0 6.087,13.51 9.426,12.005 5.129,2.467 9,0.723 12.943,9.477 16.031,8.086 12.086,-0.668 16.513,-2.663 20.902,7.079 24.242,5.574 18.062,-8.138 0,0"
         style="fill:#ed1c24;fill-opacity:1;fill-rule:nonzero;stroke:none"
         transform="matrix(1.3333333,0,0,-1.3333333,266.99333,221.35733)" />
      <path
         id="path29"
         d="M 0,0 -1.356,-5.782 -4.924,-4.944 -1.213,10.861 2.354,10.024 0.996,4.241 16.72,0.55 15.724,-3.692 0,0"
         style="fill:#ed1c24;fill-opacity:1;fill-rule:nonzero;stroke:none"
         transform="matrix(1.3333333,0,0,-1.3333333,282.34533,194.904)" />
      <path
         id="path30"
         d="m 0,0 -12.351,-6.863 0.175,4.908 7.985,4.354 -7.656,4.881 0.172,4.853 L 0.266,4.351 7.864,4.08 7.71,-0.274 0,0"
         style="fill:#ed1c24;fill-opacity:1;fill-rule:nonzero;stroke:none"
         transform="matrix(1.3333333,0,0,-1.3333333,297.38,171.344)" />
    </g>
  </g>
</svg>
