<?xml version="1.0" encoding="UTF-8" standalone="no"?>
<svg
   viewBox="0 0 514.58533 514.58398"
   height="514.58398"
   width="514.58533"
   xml:space="preserve"
   id="svg2"
   version="1.1"
   sodipodi:docname="Tanzania Red Cross.svg"
   inkscape:version="1.3.2 (091e20e, 2023-11-25, custom)"
   xmlns:inkscape="http://www.inkscape.org/namespaces/inkscape"
   xmlns:sodipodi="http://sodipodi.sourceforge.net/DTD/sodipodi-0.dtd"
   xmlns="http://www.w3.org/2000/svg"
   xmlns:svg="http://www.w3.org/2000/svg"
   xmlns:rdf="http://www.w3.org/1999/02/22-rdf-syntax-ns#"
   xmlns:cc="http://creativecommons.org/ns#"
   xmlns:dc="http://purl.org/dc/elements/1.1/"><sodipodi:namedview
     id="namedview1"
     pagecolor="#ffffff"
     bordercolor="#666666"
     borderopacity="1.0"
     inkscape:showpageshadow="2"
     inkscape:pageopacity="0.0"
     inkscape:pagecheckerboard="0"
     inkscape:deskcolor="#d1d1d1"
     inkscape:zoom="1.2143698"
     inkscape:cx="129.6969"
     inkscape:cy="257.33511"
     inkscape:window-width="1920"
     inkscape:window-height="1017"
     inkscape:window-x="-8"
     inkscape:window-y="-8"
     inkscape:window-maximized="1"
     inkscape:current-layer="svg2" /><metadata
     id="metadata8"><rdf:RDF><cc:Work
         rdf:about=""><dc:format>image/svg+xml</dc:format><dc:type
           rdf:resource="http://purl.org/dc/dcmitype/StillImage" /></cc:Work></rdf:RDF></metadata><defs
     id="defs6" /><g
     transform="matrix(1.3333333,0,0,-1.3333333,-255.36399,514.58399)"
     id="g10"><g
       transform="scale(0.1)"
       id="g12"><path
         id="path14"
         style="fill:#ed192d;fill-opacity:1;fill-rule:nonzero;stroke:none"
         d="m 3487.49,1571.9 h -768.27 v 714.92 h 768.27 l -0.07,768.7 h 714.98 v -768.24 l -0.07,-0.3 h 768.3 v -714.97 h -768.3 l 0.07,0.1 V 803.852 h -714.98 v 768.258 l 0.07,-0.21" /><path
         id="path16"
         style="fill:none;stroke:#ed192d;stroke-width:50;stroke-linecap:butt;stroke-linejoin:miter;stroke-miterlimit:4;stroke-dasharray:none;stroke-opacity:1"
         d="m 2481.68,1929.69 c 0,752.9 610.34,1363.24 1363.24,1363.24 752.9,0 1363.25,-610.34 1363.25,-1363.24 0,-752.9 -610.35,-1363.249 -1363.25,-1363.249 -752.9,0 -1363.24,610.349 -1363.24,1363.249 z" /><path
         id="path18"
         style="fill:none;stroke:#ed192d;stroke-width:50;stroke-linecap:butt;stroke-linejoin:miter;stroke-miterlimit:4;stroke-dasharray:none;stroke-opacity:1"
         d="m 1940.23,1929.69 c 0,1051.93 852.76,1904.69 1904.69,1904.69 1051.93,0 1904.7,-852.76 1904.7,-1904.69 C 5749.62,877.77 4896.85,25 3844.92,25 2792.99,25 1940.23,877.77 1940.23,1929.69 Z" /><path
         id="path20"
         style="fill:#231f20;fill-opacity:1;fill-rule:nonzero;stroke:none"
         d="m 2647.05,3168.1 c -6.07,6.47 -7.34,7.83 -14.46,1.15 l -18.42,-17.26 c -21.67,-20.31 -17.78,-36.96 -8.22,-65.01 -2.05,-4.96 -8.2,-9.71 -13.27,-7.87 -11.22,24.47 -25.42,42.59 -33.21,55.07 0.43,1.93 1.41,3.86 2.89,5.25 1.49,1.39 3.23,2.51 5.17,2.82 5.79,-3.2 7.69,-3.45 30.26,17.71 l 110.46,103.53 c 19.6,18.37 23.8,22.81 21.16,30.99 0.68,1.65 1.32,2.76 3.1,4.43 1.78,1.67 4.87,2.54 6.23,2.28 5.63,-11.96 24.04,-35.77 39.05,-50.6 0.79,-3.82 -6.72,-11.88 -10.22,-11.11 -21.24,12.54 -37.29,21.34 -59.56,0.46 l -17.82,-16.7 c -7.12,-6.68 -7.26,-8.32 -0.68,-15.34 l 111.57,-119.04 c 23.53,-25.11 27.08,-25.32 42.22,-14.69 l 13.14,9.79 c 3.59,0.32 9.41,-5.88 8.85,-9.45 -19.81,-17.55 -34.9,-31.2 -48.27,-43.72 -14.25,-13.36 -29.44,-28.1 -49.72,-48.13 -3.89,-0.61 -9.71,5.6 -8.85,9.45 l 12.1,13.87 c 11.59,14.41 11.6,17.98 -11.93,43.08 l -111.57,119.04" /><path
         id="path22"
         style="fill:#231f20;fill-opacity:1;fill-rule:nonzero;stroke:none"
         d="m 3002.84,3301.57 c 7.97,4.92 9.46,7.14 1.3,13.41 l -24.76,19.94 c -13.21,10.54 -25.68,20.67 -32.88,25.35 0.81,-9.06 3.44,-25.7 7.18,-43.39 l 5.92,-28.95 c 1.79,-10.64 4.45,-10.3 13.11,-4.96 z m -26.76,-39.55 c -8.31,-5.13 -9.15,-6.09 -7.54,-13.36 l 9.74,-44.42 c 1.81,-7.58 3.01,-10.31 4.57,-12.83 1.17,-1.89 5.1,-2.07 15.77,2.34 l 11.37,4.84 c 3.44,-0.92 8.6,-7.73 6.11,-11.44 -12.51,-6.85 -26.37,-15.41 -41.11,-24.07 -11.78,-7.26 -19.16,-13.13 -35.09,-22.96 -4.98,-0.47 -8.72,6.36 -7.85,10.37 l 8.77,6.72 c 7.73,6.08 13.45,13.08 11.41,28.78 -1.54,16.44 -4.98,35.18 -9.63,63.62 l -16.26,96.05 c -3.93,24.96 -4.5,39.83 -11.17,48.32 14.48,13.72 17.77,37.05 18.46,37.48 4.51,2.78 7.56,2.49 11.86,-1.37 8.41,-7.43 19.76,-16.51 42.22,-33.51 l 123.31,-94.33 c 18.94,-14.4 26.33,-19.4 40.51,-13.69 l 14.32,6.24 c 3.06,-0.3 8.41,-7.42 6.46,-11.24 -17.01,-9.63 -35.91,-20.86 -53.92,-31.97 -17.32,-10.7 -30.64,-19.34 -46.18,-29.81 -4.97,-0.46 -9.75,5.72 -7.49,10.59 l 10.1,8.42 c 7.2,6.17 7.22,9.23 6.05,11.12 -1.36,2.2 -8.45,8.26 -19.8,17.34 l -26.07,21.3 c -4.84,3.97 -8,2.89 -20.12,-4.59 l -38.8,-23.94" /><path
         id="path24"
         style="fill:#231f20;fill-opacity:1;fill-rule:nonzero;stroke:none"
         d="m 3461.71,3455.91 c 7.52,-22.84 14.81,-44.98 19.4,-56.32 -1.32,-5.11 -10.87,-12.54 -20.15,-15.59 -0.39,-0.12 -19.05,13.6 -43.93,28.01 l -122.4,71.15 c -30.36,18.05 -48.25,28.14 -56.94,31.12 -0.78,-4.15 1.18,-10.12 5.46,-23.13 l 22.44,-68.17 c 9.37,-28.46 19.59,-54.31 26.97,-62.4 5.91,-6.23 15.49,-5.42 26.13,-3.88 l 11.29,2.16 c 4.01,-1.79 5.67,-9.43 4.04,-12.3 -21.11,-6.16 -36.69,-10.89 -52.15,-15.98 -14.31,-4.7 -28.51,-9.76 -42.96,-15.29 -3.02,1.35 -6.22,8.48 -4.06,12.3 l 6.23,3.21 c 9.75,5.55 16.4,10.07 17.45,18.59 0.75,10.76 -6.38,37.63 -15.75,66.09 l -29.38,89.26 c -6.36,19.33 -8.21,24.95 -12.54,28.98 -4.67,5.08 -11.63,6.69 -25.97,4.7 l -11.29,-2.15 c -3.63,1.92 -6.02,10.48 -2.5,12.83 18.4,5.27 37.86,11.27 53.7,16.48 13.15,4.32 24.25,8.36 32.14,11.72 9.07,-14.55 42.99,-32.99 90.17,-59.16 l 43.93,-24.1 c 23.41,-12.56 38.29,-21.3 49.84,-26.46 0.39,4.02 -1.58,10 -3.66,16.32 l -15.96,48.5 c -9.37,28.46 -19.59,54.31 -26.97,62.4 -5.91,6.24 -15.11,5.55 -26.13,3.87 l -10.89,-2.03 c -4.02,1.8 -5.68,9.43 -4.05,12.32 21.11,6.16 36.3,10.77 52.16,15.98 14.3,4.7 28.11,9.63 42.95,15.27 3.02,-1.34 6.22,-8.47 4.05,-12.3 l -6.61,-3.34 c -9.36,-5.41 -16.01,-9.94 -17.06,-18.46 -1.13,-10.88 5.99,-37.75 15.36,-66.21 l 27.64,-83.99" /><path
         id="path26"
         style="fill:#231f20;fill-opacity:1;fill-rule:nonzero;stroke:none"
         d="m 3675.8,3655.11 c -47.05,-3.95 -54.61,-16.09 -65.8,-48.22 -5.02,-3.39 -14.07,-2.66 -16.84,1.19 5.54,26.45 7.92,46.7 10.33,66.58 1.5,1.61 7.18,2.08 10.51,1.25 3.06,-7.16 5.21,-8.47 35.22,-5.95 l 116,9.73 c 27.98,2.35 40.53,3.77 47.36,5.09 2.12,-0.94 3.12,-3.08 2.9,-5.33 -5.96,-6.81 -25.95,-36.33 -54.21,-84 l -38.98,-66 c -36.09,-61.32 -45.09,-75.81 -44.72,-80.24 0.25,-2.94 4.87,-4.41 37.72,-1.66 l 37.72,3.17 c 39.74,3.33 53.13,9.28 71.94,52.81 4.62,3.36 12.85,2.56 16.03,-1.25 -0.73,-20.48 -6.92,-53.67 -12.64,-63.44 -34.13,-2.12 -56.46,-3.62 -84.86,-6 l -102.2,-8.58 c -21.5,-1.8 -34.44,-3.26 -40.87,-4.54 -2.93,0.87 -4.4,3.72 -3.77,6 5.55,6.78 22.38,34.92 33.16,52.53 l 70.61,117.3 c 6.43,10.93 23.57,40.21 29.85,52.99 2.44,5.03 3.5,6.98 3.31,9.19 -0.12,1.47 -3.83,1.9 -13.98,1.06 l -43.79,-3.68" /><path
         id="path28"
         style="fill:#231f20;fill-opacity:1;fill-rule:nonzero;stroke:none"
         d="m 4064.23,3524.37 c 9.28,-1.25 11.84,-0.48 9.49,9.54 l -6.49,31.11 c -3.53,16.53 -6.75,32.28 -9.35,40.46 -5.12,-7.52 -13.64,-22.05 -21.96,-38.1 l -13.79,-26.15 c -5.36,-9.35 -3.09,-10.78 7,-12.14 z m -45.78,-13.62 c -9.69,1.3 -10.95,1.1 -14.3,-5.54 l -20.64,-40.53 c -3.41,-7 -4.21,-9.88 -4.6,-12.82 -0.31,-2.2 2.63,-4.83 13.68,-8.19 l 11.85,-3.46 c 2.08,-2.89 1.75,-11.44 -2.53,-12.73 -14.02,2.64 -30.15,4.81 -47.05,7.46 -13.72,1.85 -23.14,2 -41.71,4.49 -4.14,2.8 -2.7,10.45 0.52,13 l 11.05,-0.36 c 9.82,-0.21 18.69,1.58 27.07,15.02 9.23,13.68 18.45,30.36 32.9,55.29 l 48.33,84.58 c 12.79,21.8 21.77,33.66 22,44.45 19.9,1.43 37.25,17.39 38.06,17.28 5.24,-0.71 7.41,-2.87 8.29,-8.59 1.79,-11.06 4.81,-25.28 11.39,-52.68 l 35.56,-151.12 c 5.51,-23.14 8.06,-31.69 22.64,-36.27 l 15.04,-4.26 c 2.17,-2.16 1.79,-11.07 -2.13,-12.79 -19.27,3.35 -41.01,6.65 -61.99,9.47 -20.17,2.72 -35.95,4.47 -54.6,6.24 -4.15,2.79 -3.92,10.6 0.91,12.94 l 13.16,0.09 c 9.47,0.22 11.43,2.57 11.73,4.77 0.34,2.56 -1.3,11.75 -4.32,25.97 l -6.65,32.99 c -1.23,6.14 -4.36,7.31 -18.48,9.21 l -45.18,6.09" /><path
         id="path30"
         style="fill:#231f20;fill-opacity:1;fill-rule:nonzero;stroke:none"
         d="m 4516.88,3352.66 c -8.69,-22.43 -17.1,-44.16 -20.76,-55.84 -4.25,-3.11 -16.35,-2.79 -25.46,0.73 -0.38,0.15 -6.08,22.6 -16.17,49.51 l -49.43,132.61 c -12,33.22 -19.43,52.36 -24.26,60.19 -3.23,-2.72 -5.5,-8.59 -10.45,-21.35 l -25.93,-66.93 c -10.83,-27.95 -19.33,-54.41 -18.77,-65.35 0.61,-8.56 8.54,-14.01 17.74,-19.55 l 10.09,-5.5 c 1.96,-3.93 -1.6,-10.89 -4.68,-12.07 -20.23,8.62 -35.27,14.84 -50.45,20.72 -14.04,5.44 -28.21,10.53 -42.9,15.42 -1.48,2.95 0.57,10.49 4.68,12.08 l 6.84,-1.47 c 11.06,-1.89 19.07,-2.61 25.29,3.31 7.4,7.84 18.94,33.13 29.77,61.08 l 33.96,87.63 c 7.35,18.97 9.49,24.5 8.7,30.35 -0.38,6.89 -4.74,12.55 -17.08,20.11 l -10.1,5.49 c -1.58,3.79 2,11.92 6.2,11.51 17.57,-7.6 36.41,-15.29 51.96,-21.32 12.9,-4.99 24.05,-8.91 32.29,-11.32 -2.23,-17 12.28,-52.77 32.14,-102.91 l 18.64,-46.5 c 10.13,-24.55 16.07,-40.74 21.73,-52.06 2.85,2.87 5.13,8.73 7.53,14.94 l 18.45,47.62 c 10.82,27.94 19.33,54.41 18.76,65.33 -0.61,8.57 -8.15,13.87 -17.73,19.57 l -9.72,5.35 c -1.96,3.93 1.61,10.88 4.68,12.09 20.23,-8.63 34.89,-14.7 50.46,-20.72 14.03,-5.45 27.83,-10.39 42.9,-15.45 1.48,-2.95 -0.58,-10.49 -4.68,-12.07 l -7.23,1.61 c -10.67,1.75 -18.68,2.47 -24.91,-3.45 -7.78,-7.71 -19.32,-32.99 -30.14,-60.94 l -31.96,-82.45" /><path
         id="path32"
         style="fill:#231f20;fill-opacity:1;fill-rule:nonzero;stroke:none"
         d="m 4711.95,3227.46 c -18.81,-29.26 -18.15,-32.76 -4,-45.37 l 8.59,-7.71 c 1.54,-3.63 -3.41,-10.57 -7.34,-10.68 -18.1,12.51 -34.67,23.6 -50.76,33.94 -16.44,10.56 -33.76,21.25 -52.65,32.51 -1.54,3.63 3.06,10.79 7,10.9 l 10.59,-4.61 c 17.35,-7.63 20.8,-6.77 39.61,22.49 l 73.61,114.55 c 18.81,29.26 18.16,32.75 4.01,45.37 l -8.6,7.72 c -1.53,3.63 3.07,10.79 7,10.93 18.1,-12.5 35.01,-23.81 51.45,-34.37 16.09,-10.34 33.42,-21.04 52.3,-32.34 1.55,-3.63 -3.05,-10.79 -7,-10.89 l -10.58,4.6 c -17.36,7.63 -20.8,6.77 -39.61,-22.49 l -73.62,-114.55" /><path
         id="path34"
         style="fill:#231f20;fill-opacity:1;fill-rule:nonzero;stroke:none"
         d="m 4949.6,3100.25 c 6.82,-6.41 9.36,-7.29 13.27,2.23 l 12.82,29.08 c 6.75,15.49 13.29,30.17 15.94,38.34 -8.53,-3.14 -23.92,-10 -40.03,-18.2 l -26.42,-13.24 c -9.81,-4.49 -8.79,-6.98 -1.38,-13.95 z m -45.16,15.56 c -7.12,6.69 -8.26,7.26 -14.85,3.82 l -40.37,-20.94 c -6.85,-3.72 -9.17,-5.59 -11.2,-7.75 -1.53,-1.62 -0.68,-5.47 6.36,-14.62 l 7.63,-9.72 c 0,-3.56 -5.23,-10.31 -9.46,-8.87 -9.87,10.3 -21.73,21.45 -33.94,33.44 -10.07,9.49 -17.65,15.09 -31.29,27.92 -1.74,4.69 3.88,10.07 7.98,10.27 l 8.76,-6.72 c 7.88,-5.89 16.14,-9.59 30.76,-3.54 15.48,5.76 32.68,13.95 58.94,25.82 l 88.53,40.65 c 23.07,10.27 37.28,14.69 43.75,23.34 17.02,-10.42 40.4,-7.54 40.99,-8.1 3.86,-3.63 4.37,-6.64 1.75,-11.81 -4.97,-10.04 -10.79,-23.36 -21.38,-49.46 l -59.03,-143.57 c -8.98,-22.02 -11.89,-30.47 -2.69,-42.67 l 9.74,-12.21 c 0.52,-3.03 -4.97,-10.05 -9.16,-9.16 -13.73,13.93 -29.48,29.26 -44.9,43.77 -14.83,13.94 -26.64,24.55 -40.78,36.84 -1.74,4.69 2.98,10.9 8.28,9.99 l 10.75,-7.58 c 7.83,-5.34 10.79,-4.56 12.31,-2.95 1.77,1.89 5.79,10.31 11.61,23.63 l 13.78,30.71 c 2.57,5.7 0.71,8.47 -9.66,18.23 l -33.21,31.24" /><path
         id="path36"
         style="fill:#231f20;fill-opacity:1;fill-rule:nonzero;stroke:none"
         d="m 2222.05,1942.54 c -12.95,-0.21 -14.04,-1.45 -13.65,-25.45 0.23,-14.66 3.7,-23.15 10.86,-30.77 6.4,-6.81 18.36,-14.36 40.19,-14.01 33.31,0.54 54.42,22.45 53.91,54.19 -0.27,16.69 -1.38,16.67 -19.16,17.2 z m 46.09,56.51 c 37.01,0.59 41.06,1.47 43.01,18.6 l 1.3,11.01 c 1.79,4.1 11.04,4.25 12.97,-0.6 2.34,-30.5 4.33,-62.21 4.96,-100.88 0.55,-34.59 -3.78,-64.37 -12.04,-79.97 -12.2,-23.81 -30.5,-36.32 -54.18,-36.7 -32.94,-0.52 -47.39,23.67 -56.21,42.25 -1.91,4.04 -4.13,4 -8.17,1.9 -49.15,-27.65 -76.63,-44.78 -91.49,-64.56 -7.6,-10.71 -9.65,-21.33 -9.92,-27.44 -1.79,-3.69 -7.34,-3.78 -9.6,-1.78 -2.69,6.47 -3.64,19.49 -3.84,32.09 -0.61,37.45 11.22,61.24 37.57,79.58 19.41,13.34 37.39,22.99 56.85,32.67 9.91,5.04 12.76,11.6 12.6,21.77 -0.23,14.25 -0.98,15.05 -8.38,14.93 l -45.51,-0.73 c -34.05,-0.55 -36.6,-3.03 -39.26,-21.39 l -1.68,-11.03 c -1.8,-2.87 -10.68,-3.01 -12.95,-0.18 0.4,21.58 0.46,40.3 0.15,59.83 -0.33,20.35 -0.99,38.24 -2.07,59.39 2.17,3.29 11.05,3.43 12.95,0.21 l 2.03,-10.96 c 3.25,-18.27 5.89,-20.67 39.93,-20.12 l 130.98,2.11" /><path
         id="path38"
         style="fill:#231f20;fill-opacity:1;fill-rule:nonzero;stroke:none"
         d="m 2268.21,1593.41 c -10.11,-2.25 -10.74,-2.81 -8.36,-13.53 l 6.11,-27.42 c 4.6,-20.66 8.1,-24.47 26.41,-24.98 l 9.48,0.03 c 3.51,-2.14 5.72,-12.07 2.91,-14.8 -11.74,-1.78 -24.83,-4.28 -38.55,-7.33 -13.72,-3.06 -26.64,-6.35 -38.02,-9.71 -3.69,1.27 -6.27,11.12 -3.63,14.63 l 8.58,3.99 c 16.36,8.23 18.28,13.24 13.68,33.91 l -6.11,27.41 c -2.39,10.73 -2.84,11.05 -13.67,8.63 l -42.98,-9.57 c -16.62,-3.69 -27.82,-7.86 -32.9,-13.99 -5.35,-6.61 -6.56,-14.81 -0.1,-43.81 7.7,-34.57 11.8,-47.84 57.48,-60.6 4.68,-2.3 5.44,-12.55 1.46,-15.11 -19.13,-2.59 -50.51,0.44 -61.5,3.83 -3.97,21.22 -12.1,59.44 -19.36,92.02 l -11.5,51.66 c -4.25,19.07 -8.95,38.45 -16.31,68.09 1.46,3.67 10.13,5.6 12.64,2.82 l 6.69,-18.11 c 6.15,-17.4 9.21,-19.22 42.44,-11.83 l 134.71,30 c 32.87,7.32 34.87,10.27 33.77,28.79 l -0.4,10.34 c 1.37,4.06 9.76,5.5 12.81,2.02 3.44,-18.84 7.42,-38.39 11.66,-57.46 l 18.77,-84.24 c 5.66,-25.43 11.07,-48 12.94,-53 -5.69,-1.68 -31.08,-10.25 -54.83,-17.63 -4.33,0.71 -7.09,9.68 -4.72,14.38 11.67,7.18 21.26,15.16 25.17,21.45 5.18,9.07 6.86,21.97 2.52,41.44 l -7.08,31.79 c -2.92,13.1 -3.64,12.94 -17,9.97 l -63.21,-14.08" /><path
         id="path40"
         style="fill:#231f20;fill-opacity:1;fill-rule:nonzero;stroke:none"
         d="m 2291.55,1253.44 c -18.37,-8.75 -30.04,-15.21 -33.9,-25.17 -3.53,-9.8 -1.45,-21.89 4.85,-35.11 30.31,-63.56 92.08,-60.73 137.5,-39.09 60.13,28.64 79.23,80.58 47.52,147.09 -4.73,9.92 -9.73,16.1 -13.45,17.03 -3.72,0.94 -10.25,-1.72 -20.6,-6.66 z m 80.84,103 c 31.73,15.12 37.73,18.88 31.34,36.57 l -2.66,7.3 c -0.08,4.47 9.6,9.09 12.04,4.84 16.38,-30.07 31.38,-58.09 49.95,-97.04 14.36,-30.14 26.06,-61.53 29.79,-90.87 7.25,-55.61 -19.55,-100.85 -61.3,-120.74 -44.76,-21.32 -92.04,-15 -131.23,18.18 -23.26,19.58 -41.97,47.64 -60.02,85.49 -8.23,17.27 -14.98,36.59 -21.29,49.82 -8.4,17.63 -17.68,36.22 -28.33,56.84 0.6,3.9 8.62,7.72 11.69,5.58 l 7.1,-10.6 c 10.56,-15.26 13.95,-16.36 44.68,-1.71 l 118.24,56.34" /><path
         id="path42"
         style="fill:#231f20;fill-opacity:1;fill-rule:nonzero;stroke:none"
         d="m 2868.62,759.289 c -4.66,-4.75 -24.5,-26.758 -36.9,-44.648 -4.27,-2.032 -13.16,4.597 -12.86,8.98 16.23,32.27 10.58,63.719 -17.62,91.348 -32.27,31.633 -91.45,40.422 -142.98,-12.168 -51.53,-52.602 -45.81,-113.629 -10.93,-147.821 35.17,-34.48 73.98,-27.441 99.43,-17.152 4.4,-0.168 10.6,-7.797 9.24,-12.68 -21.2,-17.566 -41.68,-28.57 -51.7,-30.668 -19.58,11.418 -45.92,25.84 -68.59,48.051 -28.49,27.918 -51.6,62.5 -58.51,96.719 -6.69,35.051 -1.19,72.648 30.92,105.422 31.59,32.25 68.97,40.16 103.79,35.566 35.92,-4.629 73.34,-25.758 103.57,-55.386 29.65,-29.063 44.94,-56.493 53.14,-65.563" /><path
         id="path44"
         style="fill:#231f20;fill-opacity:1;fill-rule:nonzero;stroke:none"
         d="m 2961.43,568.199 c -6.84,-11 -6.39,-12.59 14,-25.269 12.44,-7.739 21.46,-9.43 31.74,-7.539 9.2,1.687 22.02,7.648 33.55,26.187 17.59,28.274 10.61,57.891 -16.34,74.66 -14.17,8.813 -14.76,7.883 -24.83,-6.777 z m -22.52,69.352 c 19.54,31.418 21,35.308 7.66,46.23 l -8.55,7.059 c -2.48,3.719 2.4,11.57 7.53,10.558 26.9,-14.558 54.64,-30.066 87.47,-50.5 29.38,-18.269 52.07,-38.039 60.71,-53.437 13.39,-23.16 13.99,-45.32 1.48,-65.422 -17.4,-27.961 -45.56,-27.008 -65.96,-24.34 -4.43,0.582 -5.6,-1.308 -6.02,-5.84 -3.39,-56.289 -3.87,-88.66 4.7,-111.859 4.88,-12.191 12.7,-19.66 17.68,-23.211 2.13,-3.5 -0.8,-8.207 -3.7,-9.019 -6.9,1.242 -18.35,7.492 -29.06,14.152 -31.8,19.777 -45.39,42.617 -46.53,74.699 -0.69,23.527 0.94,43.867 3.34,65.469 1.14,11.058 -2.83,17.019 -11.47,22.39 -12.1,7.532 -13.18,7.321 -17.09,1.04 l -24.04,-38.641 c -17.98,-28.91 -17.28,-32.391 -3.29,-44.578 l 8.35,-7.383 c 1.44,-3.078 -3.24,-10.617 -6.84,-10.996 -17.92,12.027 -33.62,22.226 -50.22,32.547 -17.28,10.75 -32.68,19.89 -51.04,30.453 -1.59,3.598 3.1,11.137 6.84,11 l 10.31,-4.242 c 17.12,-7.16 20.56,-6.25 38.54,22.652 l 69.2,111.219" /><path
         id="path46"
         style="fill:#231f20;fill-opacity:1;fill-rule:nonzero;stroke:none"
         d="m 3347.23,485.941 c -47.35,16.25 -86.57,-15.281 -106.62,-73.742 -14.65,-42.699 -21.64,-116.988 41.11,-138.519 50.44,-17.321 85.44,20.75 104.9,77.461 20.53,59.847 8.35,118.418 -39.39,134.8 z m 102.55,-151.39 c -26.19,-76.313 -98.12,-102.871 -180.89,-74.469 -77.39,26.566 -117.74,92.059 -92.64,165.219 23.77,69.308 99.13,103.301 179.58,75.679 80.08,-27.48 118.32,-95.378 93.95,-166.429" /><path
         id="path48"
         style="fill:#231f20;fill-opacity:1;fill-rule:nonzero;stroke:none"
         d="m 3625.64,177.469 c -37.19,4.359 -59.1,16.621 -67.07,22.019 -6.73,8.992 -8.88,36.063 -5.94,61.043 3.39,4.449 12.73,3.719 15.49,-0.699 5.27,-24.82 28.38,-61.812 62.74,-65.844 29.91,-3.519 45.86,13.614 48.02,31.981 3.49,29.761 -25.15,51.011 -48.11,64.883 -27.55,16.636 -56.48,42.386 -52.62,78.808 4.89,41.52 43.42,66.051 102.03,59.172 13.34,-1.57 29.74,-4.98 45.39,-11.293 5.08,-2.09 8.63,-3.25 13.39,-4.551 2.29,-8.457 4,-28.777 1.11,-53.386 -2.54,-4.18 -12.69,-3.364 -15.9,0.738 -4.67,19.551 -18.9,48.41 -48,51.82 -26.67,3.141 -43.08,-10.949 -45.24,-29.32 -1.99,-16.91 12.77,-34.281 31.86,-46.211 l 25.16,-15.988 c 23.64,-15.071 53.07,-40.129 48.31,-80.551 -5.3,-45.192 -49.59,-69.789 -110.62,-62.621" /><path
         id="path50"
         style="fill:#231f20;fill-opacity:1;fill-rule:nonzero;stroke:none"
         d="m 3937.11,166.34 c -37.38,-2.149 -61.1,6.109 -69.89,10.051 -8.2,7.679 -15.01,33.968 -16.47,59.089 2.57,4.969 11.9,5.872 15.38,2.008 9.51,-23.547 38.7,-55.957 73.25,-53.968 30.06,1.75 42.79,21.39 41.72,39.851 -1.72,29.93 -33.64,45.867 -58.66,55.539 -30.03,11.61 -63,31.949 -65.53,68.5 -2.41,41.738 31.28,72.602 90.2,76 13.41,0.781 30.16,0.27 46.67,-3.23 5.36,-1.168 9.06,-1.7 13.98,-2.16 3.72,-7.938 8.94,-27.641 10.37,-52.399 -1.77,-4.551 -11.91,-5.512 -15.79,-2.019 -7.99,18.437 -27.03,44.386 -56.28,42.699 -26.82,-1.551 -40.52,-18.281 -39.46,-36.75 0.99,-17 18.54,-31.551 39.42,-39.973 l 27.56,-11.379 c 25.89,-10.73 59.23,-30.301 61.59,-70.937 2.62,-45.442 -36.7,-77.371 -98.06,-80.922" /><path
         id="path52"
         style="fill:#231f20;fill-opacity:1;fill-rule:nonzero;stroke:none"
         d="m 4441.93,267.469 c -35.15,-12.891 -60.24,-11.84 -69.79,-10.61 -10.07,4.981 -24.21,28.172 -32.87,51.801 1.02,5.5 9.68,9.07 14.14,6.371 15.92,-19.793 53.24,-42.371 85.72,-30.461 28.27,10.371 34.77,32.848 28.39,50.219 -10.31,28.152 -45.47,34.172 -72.22,36.191 -32.1,2.418 -69.54,12.348 -82.54,46.602 -14.39,39.258 8.91,78.547 64.31,98.859 12.61,4.618 28.78,8.981 45.6,10.411 5.47,0.429 9.17,1 14.01,1.98 5.86,-6.523 16.55,-23.883 25.1,-47.152 -0.38,-4.879 -9.82,-8.731 -14.52,-6.52 -13,15.34 -38.72,34.692 -66.23,24.602 -25.23,-9.25 -33.5,-29.231 -27.13,-46.602 5.86,-15.988 26.87,-24.832 49.29,-26.871 l 29.68,-2.91 c 27.89,-2.777 65.47,-11.859 79.48,-50.078 15.68,-42.742 -12.72,-84.68 -70.42,-105.832" /><path
         id="path54"
         style="fill:#231f20;fill-opacity:1;fill-rule:nonzero;stroke:none"
         d="m 4659.06,637.98 c -42.28,-26.8 -42.19,-77.121 -9.12,-129.3 24.16,-38.129 77.77,-90.012 133.8,-54.489 45.04,28.539 37.22,79.649 5.13,130.278 C 4755,637.91 4701.69,665 4659.06,637.98 Z m 182.24,-14.589 c 43.18,-68.121 18.93,-140.871 -54.98,-187.719 -69.1,-43.801 -145.43,-34.363 -186.83,30.957 -39.22,61.871 -18.64,141.93 53.22,187.473 71.5,45.32 148.38,32.726 188.59,-30.711" /><path
         id="path56"
         style="fill:#231f20;fill-opacity:1;fill-rule:nonzero;stroke:none"
         d="m 5019.03,957.859 c 4.77,-4.648 26.84,-24.418 44.78,-36.757 2.04,-4.262 -4.56,-13.161 -8.93,-12.891 -32.33,16.117 -63.76,10.348 -91.29,-17.949 -31.49,-32.383 -40.07,-91.614 12.7,-142.961 52.77,-51.352 113.79,-45.41 147.84,-10.403 34.35,35.301 27.17,74.09 16.8,99.512 0.14,4.41 7.75,10.629 12.63,9.281 17.65,-21.132 28.73,-41.57 30.86,-51.589 -11.34,-19.633 -25.66,-46.024 -47.8,-68.774 -27.81,-28.598 -62.29,-51.84 -96.5,-58.879 -35.02,-6.808 -72.64,-1.429 -105.53,30.563 -32.35,31.468 -40.4,68.84 -35.94,103.679 4.51,35.938 25.5,73.43 55.02,103.77 28.95,29.758 56.32,45.148 65.36,53.398" /><path
         id="path58"
         style="fill:#231f20;fill-opacity:1;fill-rule:nonzero;stroke:none"
         d="m 5280.04,1006.9 c 28.92,-19.341 32.43,-18.752 45.3,-4.83 l 7.87,8.44 c 3.66,1.48 10.51,-3.59 10.54,-7.56 -12.83,-17.848 -24.23,-34.212 -34.86,-50.11 -10.86,-16.231 -21.87,-33.352 -33.48,-52.02 -3.65,-1.48 -10.73,3.25 -10.76,7.192 l 4.79,10.5 c 7.95,17.207 7.16,20.679 -21.75,40.008 l -113.21,75.69 c -28.91,19.34 -32.43,18.75 -45.3,4.84 l -7.87,-8.45 c -3.66,-1.47 -10.73,3.26 -10.77,7.2 12.84,17.85 24.46,34.56 35.32,50.79 10.63,15.9 21.64,33.02 33.24,51.71 3.66,1.47 10.73,-3.25 10.77,-7.2 l -4.79,-10.5 c -7.95,-17.2 -7.16,-20.67 21.76,-40.01 l 113.2,-75.69" /><path
         id="path60"
         style="fill:#231f20;fill-opacity:1;fill-rule:nonzero;stroke:none"
         d="m 5312.27,1261.56 c 9.46,-4.2 10.31,-4.13 14.76,5.91 l 11.41,25.67 c 8.59,19.35 8.04,24.48 -6.37,35.79 l -7.63,5.61 c -1.55,3.81 2.58,13.1 6.46,13.61 10.49,-5.55 22.49,-11.33 35.34,-17.03 12.85,-5.71 25.19,-10.74 36.34,-14.8 2.21,-3.21 -1.57,-12.66 -5.77,-13.91 l -9.29,1.89 c -18.05,3.12 -22.57,0.23 -31.16,-19.12 l -11.4,-25.66 c -4.46,-10.05 -4.3,-10.57 5.85,-15.08 l 40.24,-17.86 c 15.55,-6.92 27.04,-10.23 34.77,-8.31 8.23,2.13 14.07,8 26.14,35.15 14.38,32.37 18.98,45.46 -10.14,82.89 -2.4,4.63 3.09,13.32 7.81,13.01 16.92,-9.3 40.34,-30.38 47.16,-39.65 -9.44,-19.41 -25.64,-54.98 -39.19,-85.47 l -21.49,-48.36 c -7.93,-17.87 -15.68,-36.24 -27.4,-64.45 -3.35,-2.07 -11.47,1.54 -11.83,5.26 l 5.4,18.54 c 5.4,17.64 4.03,20.92 -27.08,34.74 l -126.13,56 c -30.77,13.67 -34.13,12.48 -44.27,-3.05 l -5.82,-8.56 c -3.52,-2.45 -11.13,1.38 -11.51,6 8.45,17.19 16.89,35.26 24.82,53.12 l 35.03,78.87 c 10.58,23.81 19.65,45.16 21.13,50.29 5.57,-2.03 31.08,-10.23 54.56,-18.43 3.05,-3.14 -0.07,-12 -4.77,-14.37 -13.65,1.17 -26.1,0.46 -32.99,-2.28 -9.56,-4.2 -18.57,-13.56 -26.68,-31.79 l -13.21,-29.77 c -5.46,-12.27 -4.78,-12.57 7.74,-18.12 l 59.17,-26.28" /><path
         id="path62"
         style="fill:#231f20;fill-opacity:1;fill-rule:nonzero;stroke:none"
         d="m 5348.3,1578 c -8.68,1.86 -10.5,2.24 -12.54,-7.31 l -5.27,-24.67 c -6.22,-29.05 6.46,-40.51 30.32,-58.08 1.15,-5.25 -1.19,-12.65 -6.41,-14.04 -23.17,13.7 -45.18,20.48 -58.69,26.29 -0.75,1.82 -1.04,3.97 -0.62,5.96 0.43,1.98 1.22,3.89 2.64,5.26 6.58,0.68 8.28,1.55 14.75,31.8 l 31.67,148.04 c 5.63,26.27 6.54,32.31 -0.29,37.52 -0.38,1.74 -0.49,3.01 0.02,5.4 0.51,2.39 2.56,4.87 3.81,5.43 11.45,-6.62 40.16,-15.66 60.95,-19.28 2.82,-2.69 1.25,-13.59 -2.07,-14.95 -24.6,-1.82 -42.79,-3.75 -49.18,-33.6 l -5.1,-23.87 c -2.06,-9.55 -1.23,-10.98 8.19,-12.99 l 159.54,-34.12 c 33.65,-7.19 36.69,-5.35 43.06,12.02 l 5.21,15.53 c 2.76,2.32 11.09,0.54 12.67,-2.69 -6.26,-25.71 -10.88,-45.54 -14.72,-63.45 -4.08,-19.1 -8.14,-39.87 -13.39,-67.9 -2.85,-2.71 -11.17,-0.94 -12.65,2.72 l 2.02,18.29 c 1.3,18.45 -0.73,21.38 -34.37,28.57 L 5348.3,1578" /><path
         id="path64"
         style="fill:#231f20;fill-opacity:1;fill-rule:nonzero;stroke:none"
         d="m 5551.89,1957.83 c 34.42,-0.55 37.05,1.85 39.94,20.12 l 2.11,16.24 c 2.26,2.82 10.78,2.68 12.94,-0.22 -1.16,-26.44 -1.85,-46.37 -2.16,-65.9 -0.32,-19.54 -0.28,-39.89 0.07,-63.89 -2.27,-3.23 -10.78,-3.09 -12.94,0.2 l -1.64,13.87 c -2.29,18.35 -4.84,20.84 -39.25,21.38 l -18.5,0.31 c -18.5,0.29 -24.43,-0.02 -44.21,-10.29 l -91.8,-46.96 c -15.31,-7.89 -20.92,-11.46 -23.74,-25.67 l -2.45,-13.8 c -3.01,-3.61 -11.89,-3.07 -12.92,1.83 1.04,18.31 1.65,33.35 2.04,57.37 0.4,24.81 0.37,45.57 -0.15,59.43 1.53,3.64 10.06,4.32 12.96,0.61 l 2.73,-13.89 c 1.37,-7.34 2.8,-9.81 3.18,-9.81 2.95,-0.05 8.54,1.89 26.07,10.16 l 39.9,18.49 c 12.31,5.91 27.24,13.4 36.56,18.13 -17.93,12.1 -39.21,23.84 -57.91,35.13 -26.02,15.88 -38.14,21.78 -42.57,21.85 -2.23,0.03 -3.77,-4.01 -5.41,-13.75 l -1.63,-9.34 c -1.91,-3.22 -11.17,-3.48 -12.94,0.59 0.99,16.27 1.6,30.91 1.84,45.56 0.25,15.47 0.08,28.08 -0.47,39.93 1.56,4.86 10.44,4.72 12.98,1.41 l 1.68,-10.61 c 1.36,-7.34 3.46,-15.11 8.57,-19.67 6.93,-6.22 20.08,-16.61 51.96,-36.66 l 41.77,-26.31 c 17.22,-10.87 26.4,-15.09 47.5,-15.42 l 25.89,-0.42" /></g></g></svg>
