<?xml version="1.0" encoding="UTF-8" standalone="no"?>
<!-- Created with Inkscape (http://www.inkscape.org/) -->

<svg
   version="1.1"
   id="svg1"
   width="465.39999"
   height="473.77734"
   viewBox="0 0 465.39999 473.77734"
   sodipodi:docname="SaudiA_logo-AR_EN-2016-CMYK_00.95.100.00.svg"
   inkscape:version="1.3.2 (091e20e, 2023-11-25, custom)"
   xmlns:inkscape="http://www.inkscape.org/namespaces/inkscape"
   xmlns:sodipodi="http://sodipodi.sourceforge.net/DTD/sodipodi-0.dtd"
   xmlns="http://www.w3.org/2000/svg"
   xmlns:svg="http://www.w3.org/2000/svg">
  <defs
     id="defs1" />
  <sodipodi:namedview
     id="namedview1"
     pagecolor="#ffffff"
     bordercolor="#666666"
     borderopacity="1.0"
     inkscape:showpageshadow="2"
     inkscape:pageopacity="0.0"
     inkscape:pagecheckerboard="0"
     inkscape:deskcolor="#d1d1d1"
     inkscape:zoom="1.7328815"
     inkscape:cx="232.84916"
     inkscape:cy="236.88867"
     inkscape:window-width="1920"
     inkscape:window-height="1017"
     inkscape:window-x="-8"
     inkscape:window-y="-8"
     inkscape:window-maximized="1"
     inkscape:current-layer="g1">
    <inkscape:page
       x="0"
       y="0"
       inkscape:label="1"
       id="page1"
       width="465.39999"
       height="473.77734"
       margin="0"
       bleed="0" />
  </sodipodi:namedview>
  <g
     id="g1"
     inkscape:groupmode="layer"
     inkscape:label="1">
    <g
       id="group-MC1">
      <path
         id="path2"
         d="m 13.958904,-5.4724394 c 0.0033,-3.219265 -2.315554,-4.9136876 -4.1261005,-5.8815856 l -1.9318957,-1.023818 c -1.4773427,-0.757762 -2.6616484,-1.989331 -2.6610733,-3.343696 -0.00516,-1.462254 1.0588273,-2.710208 2.9834512,-2.70939 2.1018643,0.0067 3.3628533,2.130266 3.8611943,3.627408 0.27345,0.283319 0.990136,0.260505 1.155969,-0.09198 -0.0069,-1.949673 -0.300969,-3.531496 -0.535729,-4.188549 -0.346754,-0.05794 -0.622226,-0.115858 -1.007489,-0.227761 -1.165415,-0.349201 -2.3579007,-0.4653 -3.3308054,-0.47342 -4.2422666,0.004 -6.8209589,2.281993 -6.7934703,5.601452 0.00455,2.887901 2.3137436,4.6401167 4.4286436,5.7063973 1.7547161,0.8753993 3.9677269,2.278868 3.9647966,4.6427446 0.00323,1.4738127 -0.9703132,2.9626231 -3.1434596,2.95592061 -2.4833244,8.72e-4 -4.4568949,-2.69328411 -5.0417579,-4.59696471 -0.2329801,-0.3122001 -0.90343276,-0.28166 -1.12129413,0.097778 0.001084,1.9843478 0.39705743,4.094089 0.94392693,4.73200959 0.618273,0.35282135 2.2863458,1.10681107 4.9835173,1.10602988 4.4195069,0.001877 7.3758269,-2.33184737 7.3715759,-5.93257267 z m 0,0"
         style="fill:#040606;fill-opacity:1;fill-rule:nonzero;stroke:none"
         aria-label="S"
         transform="matrix(0.21975713,1.3150987,-1.3150987,0.21975713,27.298133,269.00933)" />
      <path
         id="path3"
         d="m 11.072031,-7.8690699 c 0.131808,-3.0172881 -1.3028962,-4.2506751 -3.7615442,-4.2491191 -2.0691722,-0.006 -3.906682,1.004969 -4.90913,1.785346 -0.701808,0.5559281 -1.40739294,1.4983783 -1.4119936,2.2600832 0.001657,0.4121569 0.1861796,0.7266185 0.6722862,0.7199991 0.5314687,0.00519 1.6775668,-0.3502708 2.1211439,-0.6585949 0.260712,-0.2106287 0.4395592,-0.4789043 0.4866893,-0.9389045 0.2168769,-1.2513569 0.8206379,-1.6632829 1.5226868,-1.6621079 1.2734457,-0.0075 1.6975456,1.3866006 1.6980275,2.5008066 -0.00626,0.3495479 -0.029291,0.6705084 -0.055277,1.0028094 -0.025042,0.2356704 -0.1748292,0.4388559 -0.7077143,0.5786087 -0.8123808,0.2365039 -1.6390552,0.4813952 -2.7452254,0.8230376 -2.1408718,0.641348 -3.04219916,1.5449351 -3.04549415,3.0456637 -0.003054,2.05783158 1.58439085,3.07669289 3.28133405,3.07053579 1.0772311,0.001999 1.9609599,-0.55499317 2.4962055,-0.93632262 0.28044,-0.19338183 0.4578708,-0.31671146 0.6028168,-0.31529512 0.1478992,-0.009924 0.2637857,0.0565822 0.4694523,0.24334466 0.7836827,0.66424063 1.4424989,1.01744496 2.4600743,1.01601881 1.659969,-0.003676 3.040904,-1.12143754 3.392219,-1.58699242 0.07926,-0.2578793 -0.08506,-0.6034094 -0.357232,-0.6742853 -0.454445,0.2570556 -0.759575,0.359241 -1.109123,0.352983 -0.582737,0.00568 -1.438833,-0.5199979 -1.319892,-2.511323 z m -3.7802495,4.9371738 c -0.034604,0.9234256 -0.2187653,1.4446185 -1.1140756,1.4415546 -0.8243139,0.00331 -1.4927027,-0.8246557 -1.4921199,-1.7569408 -0.00356,-1.3814169 1.1410057,-1.8704864 2.4444552,-2.0396601 0.2248019,-0.026227 0.2440577,0.039335 0.2166555,0.5165824 z m 0,0"
         style="fill:#040606;fill-opacity:1;fill-rule:nonzero;stroke:none"
         aria-label="a"
         transform="matrix(0.33600447,1.2903018,-1.2903018,0.33600447,30.809867,289.432)" />
      <path
         id="path4"
         d="m 13.781664,-9.177212 c -0.0024,-1.086307 0.05504,-2.063397 0.09584,-2.584964 -0.03876,-0.201297 -0.182709,-0.353687 -0.293838,-0.356851 -0.178228,0.0098 -1.054735,0.325872 -2.089169,0.459542 -0.94532,0.128793 -1.9717123,0.240449 -3.0300724,0.302999 -0.355599,0.119632 -0.3906649,0.830434 -0.1516656,1.030018 l 0.402397,0.05965 c 1.0600737,0.137692 1.2489135,0.4062865 1.2492425,1.5666794 l 0.00204,5.527636 c 0.00257,0.3003641 -0.1102064,0.7457361 -0.3106469,0.8846141 -0.2385382,0.1748662 -0.6946541,0.569683 -1.51764,0.5684963 -1.87225,0.00231 -2.0707126,-1.2304591 -2.082708,-2.6321584 l 0.00396,-4.8267863 c 5.277e-4,-1.0602711 0.015688,-1.8532011 0.084831,-2.5889841 -0.036845,-0.138219 -0.1827098,-0.353688 -0.3609377,-0.343933 -0.1111288,-0.0032 -0.9516476,0.351051 -1.8269023,0.49296 -0.8492192,0.138944 -1.8825984,0.235571 -2.8397825,0.260222 -0.29166372,0.217842 -0.32949785,0.765444 -0.1146226,1.031072 l 0.3672655,0.121675 c 0.7025633,0.194245 0.872552,0.3436695 0.880329,1.8935406 l -0.00415,4.9639506 C 2.2448305,-0.8528397 3.2432095,0.41011381 5.6751241,0.41261956 7.4842957,0.41222489 8.5155,-0.25909541 9.6599424,-1.0013377 c 0.1742072,0.00125 0.304187,0.12358641 0.3029346,0.29779365 0.00468,0.22627827 -0.020038,0.7038157076 -0.070593,1.04715489 0.020762,0.1822486 0.142701,0.32659745 0.356917,0.35494 0.08509,0.00613 2.536387,-0.93246572 5.408994,-1.04346142 0.374647,-0.13762553 0.35316,-1.20593842 0.07692,-1.26941252 -0.359619,0.1306388 -0.774276,0.2411742 -1.159734,0.2376148 -0.700849,0.006 -0.786865,-0.7490322 -0.789369,-2.4841179 z m 0,0"
         style="fill:#040606;fill-opacity:1;fill-rule:nonzero;stroke:none"
         aria-label="u"
         transform="matrix(0.45746392,1.2523995,-1.2523995,0.45746392,35.5456,307.692)" />
      <path
         id="path5"
         d="m 13.644134,-16.445467 c -10e-4,-1.839583 0.02448,-3.066209 0.07644,-4.266872 -0.111389,-0.145733 -0.290141,-0.206997 -0.494619,-0.215617 -1.440572,0.652525 -3.221304,1.360557 -4.4766537,1.634042 -0.2079519,0.18533 -0.2293811,0.709625 -0.00241,0.885752 l 0.4953342,0.294225 c 0.584949,0.35106 0.5931969,0.681168 0.5934086,1.85515 l -0.0026,3.742099 c -0.00838,0.23068 -0.090225,0.451548 -0.2988929,0.558269 -0.3102436,-0.112476 -1.0181975,-0.158438 -1.6575944,-0.157854 -3.8731131,-0.0014 -6.97276619,2.6316051 -6.97717022,6.7510725 0.002677,3.1707817 2.26946032,5.76539358 5.59231392,5.77181291 1.0848451,-0.004641 2.1485266,-0.60656299 3.159325,-1.26041351 0.1197693,-0.084947 0.2358255,-0.002148 0.2590314,0.24396758 l -0.075639,0.90214129 c 0.059699,0.22481928 0.2815221,0.41147478 0.4911441,0.40956534 0.08914,0.004429 2.371437,-0.87588456 5.273374,-1.04906619 0.285844,-0.26465382 0.28969,-0.99318812 -0.03766,-1.25749742 -0.496422,0.161752 -0.726387,0.2319797 -1.250443,0.2367533 -0.55026,0.00501 -0.671806,-0.6804518 -0.670664,-3.4319881 z M 9.8305295,-3.0094881 C 9.830158,-2.4749025 9.7967678,-2.1129692 9.4842432,-1.9004824 9.1090228,-1.6664605 8.701261,-1.5526851 8.2820157,-1.5488663 5.8816451,-1.5479654 5.003135,-4.207633 5.0065305,-6.1363526 4.999424,-9.2179969 6.4737583,-10.76704 7.9621748,-10.770116 c 0.6812737,-0.0062 1.3249668,0.464862 1.6764771,1.0800985 0.1069594,0.2348708 0.1987223,0.527531 0.1924897,0.994037 z m 0,0"
         style="fill:#040606;fill-opacity:1;fill-rule:nonzero;stroke:none"
         aria-label="d"
         transform="matrix(0.58539746,1.1979514,-1.1979514,0.58539746,43.5072,329.204)" />
      <path
         id="path6"
         d="m 6.2618057,-8.7825477 c -0.00296,-1.3083573 0.02435,-2.5988343 0.096667,-3.4816313 -0.1238483,-0.182041 -0.3072973,-0.263182 -0.5384268,-0.263604 -0.8767421,0.516512 -2.9453138,1.322584 -4.3315736,1.687843 -0.191661,0.186218 -0.1920351,0.716807 -0.00399,0.882328 l 0.4017671,0.2645425 c 0.579256,0.3557737 0.5756433,0.7075129 0.5776642,1.8792103 l 0.00621,4.4134705 c -0.00197,2.0540255 -0.1307876,2.3181939 -1.0928961,2.4031863 L 0.81683829,-0.9471268 C 0.58298615,-0.75860905 0.57759093,-0.08127056 0.85001909,0.07965119 1.8102975,0.02079873 3.0461949,0.00225831 4.3545521,-7.0158e-4 5.7050992,-0.00596114 6.8428664,0.02641757 7.8843337,0.08357549 8.1324045,-0.08293223 8.1377997,-0.76027072 7.8933417,-0.9455022 L 7.3503632,-0.99402629 C 6.368966,-1.0837537 6.2666583,-1.3483439 6.2686242,-3.4023694 Z M 4.4451263,-18.70248 c -1.1716975,0.002 -2.2029318,0.849201 -2.1981417,2.131418 1.908e-4,1.197838 0.7579223,2.080962 2.0502295,2.082132 1.1134575,0.0044 2.1997408,-0.728592 2.1981416,-2.131419 -0.00202,-1.171697 -0.8262521,-2.080492 -2.0502294,-2.082131 z m 0,0"
         style="fill:#040606;fill-opacity:1;fill-rule:nonzero;stroke:none"
         aria-label="i"
         transform="matrix(0.67812294,1.14801,-1.14801,0.67812294,53.479867,349.06)" />
      <path
         id="path7"
         d="m 3.3330779,-4.2236009 c 0.00268,2.6940116 -0.1647702,2.9052175 -1.4887816,3.1416339 L 1.0597674,-0.9412586 C 0.81885546,-0.78829588 0.81834543,-0.0708635 1.0605753,0.07631733 2.572049,0.01843527 3.8714027,0.00174859 5.3227307,8.6618561e-4 6.7319493,-0.00349167 8.069937,0.02540647 9.6349348,0.0697794 9.826457,-0.0774759 9.8269671,-0.79490828 9.6341269,-0.94779653 L 8.8356218,-1.0724027 C 7.5222917,-1.3210306 7.3474878,-1.534394 7.344809,-4.2284056 l 0.00983,-3.5963447 c -7.335e-4,-0.5838239 0.050229,-0.6481039 1.0678052,-0.6489118 0.7430785,0.00589 1.212648,0.2435794 1.5547204,1.0382052 0.6711564,1.5490446 1.3454594,2.9809439 2.2930164,4.5397559 1.277555,2.10458637 2.965555,3.06899918 5.668749,3.07360076 0.900431,-0.003954 1.844544,-0.063005 2.314039,-0.25906553 0.129145,-0.1817548 0.136351,-0.62468974 -0.129623,-0.76078524 -0.439459,-0.0493153 -1.185099,-0.22173829 -1.947277,-0.82601089 -1.40721,-1.2053992 -2.602779,-3.3945339 -4.532541,-7.3172844 -0.153292,-0.3159478 -0.157756,-0.4989461 0.141728,-0.6503358 1.349583,-0.6647909 3.098015,-1.7760659 3.097568,-4.3785789 0.0082,-1.877799 -0.871246,-3.352722 -2.57033,-4.340878 -1.112041,-0.672284 -3.249522,-1.050896 -5.7276086,-1.056486 -2.7946936,-0.0024 -5.0745624,0.119283 -7.259127,0.271629 -0.3672401,0.142537 -0.36584766,0.876432 -0.072325,1.034369 l 0.8038831,0.09896 c 1.2215014,0.175824 1.2760141,0.503187 1.2796813,3.422306 z M 7.3455402,-16.565645 c 0.00482,-1.401938 0.068446,-1.501047 1.2617399,-1.497136 2.2859059,0.0028 3.8252259,1.701741 3.8294779,4.33718 -0.0089,1.727728 -0.542841,2.665294 -1.060408,3.167205 -0.553969,0.547826 -1.164023,0.8268621 -2.2072452,0.8222921 -1.7350083,2.979e-4 -1.821459,-0.098152 -1.8149866,-1.1249111 z m 0,0"
         style="fill:#040606;fill-opacity:1;fill-rule:nonzero;stroke:none"
         aria-label=" R"
         transform="matrix(0.8283469,1.0448058,-1.0448058,0.8283469,65.3184,368.524)" />
      <path
         id="path8"
         d="m 10.884069,-6.9387972 c 0.895076,0.00407 1.055232,-0.3959544 1.055761,-0.9512053 0.0017,-2.2541455 -1.641932,-4.2284025 -4.6833255,-4.2273485 -3.6629293,0.0015 -6.31627612,2.8644609 -6.31436244,6.5605326 -0.005263,3.1823646 2.13023474,5.96189631 6.07487434,5.95650994 1.7570101,0.008602 3.9330636,-0.83394627 5.1248376,-3.32018674 -0.0069,-0.4971359 -0.441269,-0.7396846 -0.763597,-0.6771709 -0.785067,1.3452098 -1.893022,1.5264331 -2.713412,1.5296074 -2.7265409,-0.00334 -4.1322785,-2.1549556 -4.1296957,-4.3428168 0.00169,-0.4723949 0.050707,-0.522803 0.7219558,-0.5238937 z M 6.1175521,-8.2230216 c -0.9363884,0.00479 -1.3429615,-0.030961 -1.340348,-0.4370712 -0.00479,-0.9363884 1.039556,-2.1111892 2.2826273,-2.1119812 0.9945034,0.0027 1.5422121,0.649719 1.5472385,1.6026782 -0.00423,0.2901117 -0.05795,0.5974891 -0.2059336,0.6824287 -0.3286458,0.2034847 -0.8001147,0.268082 -1.2062248,0.2654684 z m 0,0"
         style="fill:#040606;fill-opacity:1;fill-rule:nonzero;stroke:none"
         aria-label="e"
         transform="matrix(0.92954656,0.95588753,-0.95588753,0.92954656,82.390667,389.57333)" />
      <path
         id="path9"
         d="m 13.637489,-16.450101 c -0.0069,-1.845607 0.02149,-3.073457 0.0804,-4.265705 -0.11307,-0.150029 -0.299897,-0.206026 -0.499457,-0.20483 -1.437829,0.645171 -3.204891,1.356315 -4.4646315,1.632939 -0.212332,0.166432 -0.2366803,0.696462 -0.0016,0.880856 l 0.4930706,0.287447 c 0.5871027,0.361205 0.5869818,0.68533 0.5878155,1.857263 l -0.00648,3.739506 c -0.00136,0.232607 -0.094234,0.46645 -0.2849332,0.568065 -0.3240843,-0.108162 -1.0180723,-0.161806 -1.6663215,-0.162048 -3.8640711,-0.0078 -6.97792822,2.643778 -6.98073764,6.7658796 0.005177,3.1586282 2.27180374,5.76899519 5.59694454,5.7600675 1.0880384,0.009304 2.1419945,-0.61567296 3.1641807,-1.25972752 0.1144278,-0.0825773 0.2326066,0.001358 0.2642958,0.23651896 l -0.086772,0.90751658 c 0.057113,0.22881518 0.2921937,0.41320907 0.4917537,0.41201247 0.09152,-0.001237 2.378513,-0.87996871 5.276637,-1.06319331 0.293713,-0.25156363 0.292718,-0.99133078 -0.0364,-1.24948228 -0.495786,0.1777658 -0.724601,0.2348788 -1.264809,0.2346772 -0.540208,-2.016e-4 -0.661976,-0.6828153 -0.657137,-3.4334241 z M 9.8306809,-3.0060697 c 0.00108,0.5236841 -0.035924,0.8948248 -0.3601294,1.1107869 -0.375053,0.2286539 -0.7665893,0.347989 -1.1822319,0.349105 -2.4023375,0.00546 -3.2847397,-2.6641322 -3.2852912,-4.5923562 -0.00266,-3.0836338 1.4634674,-4.632529 2.9595253,-4.633242 0.673673,-0.0061 1.3192064,0.459351 1.6697903,1.0848516 0.1066836,0.2326469 0.2006351,0.5224875 0.1979194,0.9877007 z m 0,0"
         style="fill:#040606;fill-opacity:1;fill-rule:nonzero;stroke:none"
         aria-label="d"
         transform="matrix(1.0126659,0.86734397,-0.86734397,1.0126659,94.828133,402.416)" />
      <path
         id="path10"
         d="m 12.812269,-19.778898 c -3.0387443,0.0066 -6.0231046,0.871156 -8.1009188,2.597527 -2.0137551,1.673808 -3.5431033,4.191392 -3.5399208,7.7667621 -0.00257,3.633681 1.6149093,6.0516721 3.7228398,7.6513292 2.0675226,1.55563706 4.9990189,2.23084473 7.8649648,2.23309491 2.27101,-0.006938 4.364119,-0.64609581 5.953785,-1.07581805 0.396668,-0.67920726 0.894663,-2.43413156 1.085163,-4.60560496 -0.164427,-0.3388582 -0.856277,-0.4400282 -1.08426,-0.2057946 -0.820427,1.9916234 -2.442087,4.53779042 -5.98132,4.53275949 -3.5070396,0.002853 -6.8804279,-3.11812559 -6.878393,-8.94446569 0.00203,-5.8263404 3.4815953,-8.6085754 6.731409,-8.6061674 2.833752,-0.0056 4.709914,1.460487 5.494778,4.177932 0.216331,0.266256 0.995561,0.149949 1.108399,-0.206326 -0.243293,-1.689044 -0.345008,-4.025919 -0.341568,-4.562545 -0.88255,-0.05402 -3.048448,-0.755034 -6.034958,-0.752683 z m 0,0"
         style="fill:#040606;fill-opacity:1;fill-rule:nonzero;stroke:none"
         aria-label=" C"
         transform="matrix(1.1400008,0.69150275,-0.69150275,1.1400008,120.35747,423.30933)" />
      <path
         id="path11"
         d="m 2.4666196,-3.407487 c -0.00759,2.054614 -0.1123244,2.3251939 -1.0887265,2.4009921 l -0.56225573,0.073184 C 0.58693914,-0.75943762 0.58961575,-0.07272009 0.84358004,0.07887403 1.8194843,0.02927507 3.1042404,0.0012699 4.2993218,0.00301117 5.6727569,-0.00234206 6.8411413,0.02510059 8.2553999,0.0781821 8.5203787,-0.07403485 8.5177021,-0.76075238 8.2798556,-0.93300716 L 7.3432188,-1.018947 C 6.3753422,-1.115964 6.2538673,-1.3436666 6.2614574,-3.3982807 l 4.935e-4,-4.4397362 c 2.478e-4,-1.1164838 0.14873,-1.7583953 0.5522971,-1.7559687 0.1833943,0.00348 0.434807,0.013504 1.1211517,0.5821686 0.375937,0.3530975 0.7185803,0.5273436 1.1327267,0.5247295 0.9330896,-0.00324 1.8766336,-0.556657 1.8758226,-1.8933135 2.48e-4,-1.116484 -0.811056,-1.729457 -1.6025706,-1.728772 -1.2212806,-0.0022 -2.0886533,0.956242 -2.879047,1.449671 -0.2297564,-0.0463 -0.2806613,-0.125893 -0.2817194,-0.346066 -0.0056,-0.256951 0.049224,-0.659522 0.1181129,-1.250529 -0.1224705,-0.175304 -0.2988329,-0.273006 -0.5295849,-0.266907 -0.9022224,0.585655 -2.9405312,1.375118 -4.2791166,1.753296 -0.2024991,0.174371 -0.2074148,0.708934 0.00423,0.8806912 l 0.4091681,0.2593778 c 0.5648699,0.3409623 0.5634389,0.6921311 0.5621955,1.8610133 z m 0,0"
         style="fill:#040606;fill-opacity:1;fill-rule:nonzero;stroke:none"
         aria-label="r"
         transform="matrix(1.2036825,0.5735208,-0.5735208,1.2036825,144.71733,437.64)" />
      <path
         id="path12"
         d="m 10.881653,-6.9270762 c 0.905306,-0.00113 1.058911,-0.4133248 1.057006,-0.9660939 0.0014,-2.2523479 -1.63386,-4.2180709 -4.6804819,-4.2239669 -3.6582345,0.0064 -6.31535977,2.8676296 -6.32227291,6.5562195 0.00157,3.194665 2.13057881,5.97406138 6.08250611,5.97882468 1.7584233,-0.007055 3.9241727,-0.83983186 5.1224507,-3.34548898 -0.0024,-0.4896639 -0.437797,-0.7348627 -0.753851,-0.6743966 -0.792574,1.3534918 -1.9082179,1.5247846 -2.735241,1.5331008 -2.7201788,-0.00752 -4.1081196,-2.1452678 -4.1114795,-4.3454274 -0.00483,-0.4635695 0.05215,-0.5109692 0.7159518,-0.5184744 z M 6.1113926,-8.2226381 c -0.9314002,-0.00126 -1.3446478,-0.028656 -1.3390865,-0.4333816 -0.003,-0.9423169 1.0513285,-2.1086433 2.283077,-2.1113973 0.9945054,0.0018 1.5462574,0.641852 1.5468624,1.6102634 -2.446e-4,0.2894317 -0.063594,0.5783355 -0.1993826,0.6816571 -0.328026,0.1909376 -0.7963844,0.2479537 -1.2120265,0.2466534 z m 0,0"
         style="fill:#040606;fill-opacity:1;fill-rule:nonzero;stroke:none"
         aria-label="e"
         transform="matrix(1.2420672,0.48481627,-0.48481627,1.2420672,158.14933,444.06267)" />
      <path
         id="path13"
         d="m 4.8042649,0.4042408 c 2.7432826,-0.005953 4.9777303,-1.31456864 4.9905058,-3.916522 -0.00472,-1.89807 -1.2158514,-3.1329282 -3.2157543,-4.1019574 -1.3223695,-0.637099 -1.8720325,-1.1919742 -1.8700924,-1.8665888 -0.0065,-0.7823256 0.6103378,-1.2896726 1.4667565,-1.2943346 0.9563521,0.0015 1.7006121,0.631673 2.2777603,2.3178477 0.1874852,0.2122486 0.9103524,0.2116811 1.0297791,-0.118975 0.00178,-1.1157442 -0.1436977,-2.2722177 -0.4390505,-2.9171527 -0.3278936,-0.230566 -1.6377251,-0.626403 -3.1351403,-0.633966 -2.5097976,0.0081 -4.6571047,1.240985 -4.6646101,3.7800517 6.254e-4,1.7645184 1.2792479,2.8194141 3.0294445,3.6932702 0.9848566,0.4952603 1.9221267,1.1153736 1.9212638,2.1940713 0.00876,0.9899703 -0.6460523,1.5334425 -1.5171054,1.5303268 -1.4939869,0.003643 -2.6112773,-1.7256129 -2.9737677,-2.9504986 -0.1865645,-0.2492951 -0.82848186,-0.2244739 -1.00644636,0.075072 -0.0512119,1.3146903 0.14728253,2.7245537 0.47374576,3.31095053 0.7890841,0.61643014 1.953492,0.89744381 3.6327113,0.89840487 z m 0,0"
         style="fill:#040606;fill-opacity:1;fill-rule:nonzero;stroke:none"
         aria-label="s"
         transform="matrix(1.2749972,0.39007666,-0.39007666,1.2749972,174.59867,450.384)" />
      <path
         id="path14"
         d="m 8.2300313,-12.119025 c -3.9543718,-0.0077 -7.32551949,2.4598563 -7.33248045,6.6303098 0.006978,3.4344465 2.52092485,5.89406356 6.21090975,5.90144094 2.7747706,-0.002119 4.5497214,-1.66457644 5.1801224,-3.12853804 0.0022,-0.4690378 -0.407895,-0.6887664 -0.758563,-0.645589 -0.644451,1.0826855 -1.527918,1.4264391 -2.6083272,1.4302338 -2.6921734,-0.00453 -4.1824854,-2.3469857 -4.1753396,-4.6553007 5.372e-4,-2.0184845 1.0250515,-4.1841978 2.9240644,-4.1806988 1.0575473,0.0014 2.1771442,1.0219319 3.0061884,2.1922313 0.05753,0.095129 0.323401,0.1552076 0.468316,0.1585119 0.346984,-0.0063 0.754731,-0.8072474 0.763126,-1.6741572 10e-4,-0.79316 -0.236851,-1.207969 -0.621848,-1.529473 -0.786552,-0.290858 -2.0609395,-0.50755 -3.0561687,-0.498971 z m 0,0"
         style="fill:#040606;fill-opacity:1;fill-rule:nonzero;stroke:none"
         aria-label="c"
         transform="matrix(1.3005589,0.29381022,-0.29381022,1.3005589,189.11067,454.82)" />
      <path
         id="path15"
         d="m 10.894815,-6.9394339 c 0.899903,0.00194 1.042556,-0.4090267 1.047697,-0.9542707 -9.63e-4,-2.2489314 -1.644376,-4.2282334 -4.6871433,-4.2324874 -3.6576206,5.28e-4 -6.32507531,2.8784027 -6.31958628,6.5708278 0.003989,3.1836391 2.12942078,5.97018578 6.08369328,5.97472129 1.7633484,-0.00277 3.9263643,-0.85560226 5.1220333,-3.34612729 1.53e-4,-0.4971845 -0.435639,-0.7309957 -0.770429,-0.671437 -0.777683,1.353759 -1.8897713,1.5241156 -2.7068105,1.5222061 -2.7212592,0.0091 -4.1276295,-2.1341959 -4.1335791,-4.3350677 0.00511,-0.46238 0.066455,-0.5303096 0.7409691,-0.5317586 z M 6.1189259,-8.2236445 c -0.9363615,-0.00858 -1.3539893,-0.031906 -1.3538613,-0.4462268 0.00858,-0.9363614 1.06131,-2.1044197 2.2926696,-2.1023827 0.9943688,3.07e-4 1.549356,0.655105 1.5440879,1.6146693 0.00654,0.2949982 -0.05984,0.5767155 -0.2007373,0.6678225 -0.3265464,0.2004303 -0.7906057,0.2665782 -1.204926,0.2664503 z m 0,0"
         style="fill:#040606;fill-opacity:1;fill-rule:nonzero;stroke:none"
         aria-label="e"
         transform="matrix(1.3199908,0.18815425,-0.18815425,1.3199908,206.25467,458.64133)" />
      <path
         id="path16"
         d="m 2.4612605,-3.4059356 c 0.00695,2.0529112 -0.1103066,2.2933267 -1.1725555,2.4041547 l -0.46646145,0.058105 C 0.58449288,-0.7677405 0.58271605,-0.08714671 0.8494147,0.08748251 1.8788488,0.02519742 3.074447,0.00168403 4.3063086,-1.4441186e-4 5.7026102,0.00168491 6.6424305,0.02593056 7.5488612,0.08701448 7.8105959,-0.0783658 7.8123728,-0.75895959 7.5807881,-0.93531314 L 7.1085788,-0.99425455 C 6.377143,-1.0756648 6.2580065,-1.3514033 6.2494898,-2.9583884 l 0.00115,-5.2329171 c -0.00246,-0.5278586 0.062233,-0.8830215 0.2397366,-1.0911969 0.2308534,-0.3163911 0.8228264,-0.6857143 1.6438759,-0.6908348 1.4665294,-0.00162 2.0520747,0.9317218 2.0498797,2.081651 l -0.0038,4.9397262 c 0.0085,1.6069851 -0.110463,1.8122867 -0.7853092,1.9275563 l -0.5238351,0.0843882 c -0.2377507,0.17593537 -0.2395275,0.85652916 0.026596,1.01945374 0.8421597,-0.05308865 1.9909393,-0.07430293 3.1637023,-0.08496213 1.408007,0.00125454 2.617608,0.02398495 3.535744,0.0844941 0.25003,-0.16480551 0.251807,-0.8453993 0.02022,-1.02175285 L 15.145229,-1.001724 C 14.118878,-1.1155834 14.00204,-1.3445033 13.995091,-3.3974145 l -2.07e-4,-5.0216587 c 0.0065,-2.0183718 -1.226217,-3.7060358 -3.666531,-3.7035288 -1.3372037,0.007 -2.7295342,0.802812 -3.3683258,1.174435 -0.1832509,0.09113 -0.4695445,0.234249 -0.551477,0.238273 -0.094212,-0.0071 -0.1556091,-0.06276 -0.1525261,-0.238901 0.00193,-0.199553 0.096773,-0.89645 0.08836,-1.306687 -0.1145383,-0.182102 -0.295281,-0.278822 -0.5299487,-0.279031 -0.8537077,0.534703 -2.9383367,1.329312 -4.32795,1.702606 -0.1909321,0.173637 -0.200181,0.70207 0.00799,0.8795732 l 0.4117526,0.2613691 c 0.5568066,0.3481089 0.5623453,0.699823 0.5612998,1.8731615 z m 0,0"
         style="fill:#040606;fill-opacity:1;fill-rule:nonzero;stroke:none"
         aria-label="n"
         transform="matrix(1.3317286,0.06539694,-0.06539694,1.3317286,223.98,461.21467)" />
      <path
         id="path17"
         d="m 9.1164015,-10.136472 c 0.2868708,-0.166451 0.3744626,-0.691201 0.3731405,-1.007821 -0.00286,-0.269771 -0.079461,-0.436439 -0.2395866,-0.558951 l -2.6028532,-0.0034 c -0.527829,0.0061 -0.5621966,-0.01847 -0.5554373,-0.581053 l -0.010024,-2.192918 c -0.1328526,-0.238866 -0.659912,-0.256184 -0.874584,-0.145986 -0.898108,1.2837 -1.6337317,1.904409 -2.1617779,2.273987 -0.6954837,0.469602 -1.5221131,1.005245 -2.43551497,1.326986 -0.22946306,0.203512 -0.14290773,0.780885 0.18157685,0.897072 l 0.91472402,-0.0051 c 0.5274441,0.0056 0.5489449,0.06494 0.5523587,0.6747527 l -0.00353,6.5307502 c -0.00493,1.93447506 0.8518979,3.33446104 3.2786798,3.34384573 1.8177356,-0.0106263 3.403966,-0.8261641 4.206618,-1.70262253 0.058395,-0.3498336 -0.095189,-0.6714568 -0.3970185,-0.7634493 -0.3477418,0.234801 -0.8118383,0.4423289 -1.2221582,0.4405724 -2.0519841,0.00293 -2.0626105,-1.8148058 -2.0555843,-3.4560853 l 0.00376,-4.396779 c -0.00264,-0.6332409 0.021935,-0.6676089 0.4088301,-0.6666219 z m 0,0"
         style="fill:#040606;fill-opacity:1;fill-rule:nonzero;stroke:none"
         aria-label="t"
         transform="matrix(1.3326142,-0.0437848,0.0437848,1.3326142,246.70533,462.09467)" />
      <path
         id="path18"
         d="m 9.4729426,-6.60982 c 1.0230204,-0.00366 1.2616594,0.060861 1.4197184,0.5277151 l 0.785783,2.4999374 c 0.336683,1.091768 0.549681,1.7938804 0.550808,1.9961743 0.0051,0.1791907 -0.113264,0.3848651 -0.788046,0.5074227 l -0.93878,0.13692586 c -0.314993,0.24342785 -0.253856,0.86017071 0.05184,1.01935831 1.352664,-0.05437293 2.497117,-0.07296471 3.961353,-0.08451185 1.50847,0.00789348 3.097801,0.02959277 4.502024,0.09101774 0.278084,-0.16651123 0.219201,-0.86608749 0.04452,-1.02668342 L 17.939684,-1.1222214 C 16.838339,-1.2864829 16.59632,-1.9578851 15.97902,-3.7038688 L 11.996007,-15.190396 c -0.739296,-2.075909 -1.087531,-3.16965 -1.325041,-4.006719 -0.115796,-0.435861 -0.292451,-0.584906 -0.660411,-0.588288 -0.059731,0.0017 -1.1481209,1.432677 -2.5481194,1.764288 0.081422,0.846084 -0.4158632,1.878683 -1.0838893,3.702425 L 3.7070061,-7.1662865 C 2.920364,-5.0655884 2.3599663,-3.6633387 1.8736686,-2.4862041 1.3701845,-1.3476688 0.78358796,-1.1149482 0.07809492,-1.0214105 l -0.77480261,0.081704 c -0.20708426,0.23807501 -0.24033218,0.85059139 0.086493,1.02527509 1.33125131,0.0014128 2.01166889,-0.08451778 3.00961439,-0.0805703 1.2329217,0.02028949 2.2790458,0.02057441 3.303757,0.07664504 0.2972427,-0.13946352 0.2439947,-0.80241275 0.067622,-1.0227389 L 4.8908856,-1.0794356 C 4.0611432,-1.2329899 3.6976909,-1.4020388 3.69262,-1.5812295 3.69741,-1.8181781 3.713752,-2.0531545 3.8856195,-2.6420037 L 5.0221944,-6.026337 C 5.2016685,-6.5901108 5.299998,-6.6089875 6.0012646,-6.6081401 Z M 6.5892739,-8.1721121 c -0.7378936,0.00479 -0.878203,-0.07861 -0.6226567,-0.8790504 l 0.7407177,-2.1798685 c 0.4214966,-1.354635 1.025002,-2.939738 1.2453296,-3.603532 0.2769548,0.606037 0.7928275,2.180155 1.2174153,3.453368 l 0.7477475,2.3745604 c 0.2397637,0.7542356 0.094946,0.8365051 -0.5716658,0.8415745 z m 0,0"
         style="fill:#040606;fill-opacity:1;fill-rule:nonzero;stroke:none"
         aria-label=" A"
         transform="matrix(1.3143146,-0.22439928,0.22439928,1.3143146,270.9,460.91467)" />
      <path
         id="path19"
         d="m 13.788893,-9.1876493 c -0.0097,-1.0752757 0.05952,-2.0427027 0.07721,-2.5739027 -0.0161,-0.199602 -0.167415,-0.352519 -0.289752,-0.350907 -0.170627,3e-6 -1.043075,0.32357 -2.082934,0.465245 -0.93684,0.122356 -1.9783098,0.227007 -3.0326581,0.291417 -0.3509108,0.119124 -0.394358,0.825781 -0.1480705,1.030207 l 0.395986,0.06438 c 1.0704494,0.135192 1.2636181,0.397568 1.2588132,1.566206 l 0.00655,5.5228604 c 0.00162,0.2929643 -0.1158826,0.7469004 -0.3283592,0.893387 -0.2189149,0.1690224 -0.6841084,0.5601877 -1.5114913,0.5553757 -1.8769033,3.87e-5 -2.074921,-1.2265441 -2.0733405,-2.6398556 l 0.00151,-4.8258629 c -0.00485,-1.0495206 0.027327,-1.8447096 0.077212,-2.5739026 -0.020929,-0.140043 -0.1786834,-0.355739 -0.3493109,-0.355735 -0.1223368,0.0016 -0.9674188,0.357372 -1.8366507,0.499043 -0.8466961,0.148109 -1.8817277,0.230225 -2.8411047,0.260829 -0.2945695,0.220534 -0.3299714,0.77105 -0.11426684,1.039865 l 0.36862234,0.1175 c 0.7018306,0.18832 0.8901679,0.339627 0.8869804,1.8865431 l 0.00493,4.9739547 c -0.00639,2.49663571 0.9868201,3.755396 3.4126291,3.75373621 1.8173445,-0.004867 2.8491446,-0.67291098 3.9855735,-1.40856465 0.1818955,0.003216 0.3090636,0.1126722 0.320335,0.28651894 -0.00804,0.24145428 -0.032179,0.709875762 -0.083682,1.06079014 0.011271,0.17384673 0.1400492,0.32032624 0.3380422,0.35251603 0.08531,-1.76e-6 2.559395,-0.93850452 5.432696,-1.05607152 0.357349,-0.14166046 0.341231,-1.19440005 0.06758,-1.26039185 -0.35091,0.1191246 -0.775867,0.2414701 -1.154145,0.2430876 -0.708266,0.00484 -0.793595,-0.7629786 -0.79846,-2.4950094 z m 0,0"
         style="fill:#040606;fill-opacity:1;fill-rule:nonzero;stroke:none"
         aria-label="u"
         transform="matrix(1.2820395,-0.36626836,0.36626836,1.2820395,295.93333,456.49733)" />
      <path
         id="path20"
         d="m 9.1101363,-10.120308 c 0.2927463,-0.177317 0.3809481,-0.707822 0.3751559,-1.023306 0.00367,-0.274305 -0.082164,-0.444671 -0.236744,-0.565892 l -2.6073881,0.0022 c -0.5266914,9.64e-4 -0.5663742,-0.0266 -0.5658416,-0.590321 l 0.00329,-2.19178 c -0.1349791,-0.239112 -0.6684774,-0.253258 -0.8773681,-0.131893 -0.9081722,1.272505 -1.630335,1.88865 -2.1500758,2.268195 -0.7052175,0.472186 -1.5203597,1.002978 -2.43494989,1.333184 -0.23795309,0.198075 -0.15762346,0.779898 0.17528768,0.893493 l 0.91207891,0.0072 c 0.5266914,-9.64e-4 0.5539189,0.05948 0.5518896,0.6602249 l -0.00422,6.5273529 c 0.00304,1.94354449 0.8514347,3.34268265 3.2695324,3.34399305 1.817351,-7.1892e-4 3.4193932,-0.82237225 4.2151294,-1.69886945 0.058801,-0.35367 -0.099254,-0.6641818 -0.3992888,-0.765321 C 8.9860913,-1.821274 8.5176685,-1.6102608 8.1020601,-1.6048068 6.0474326,-1.606261 6.0576723,-3.4194602 6.0536218,-5.0626312 L 6.0533931,-9.4613011 C 6.0527673,-10.088117 6.080333,-10.1278 6.4698723,-10.130599 Z m 0,0"
         style="fill:#040606;fill-opacity:1;fill-rule:nonzero;stroke:none"
         aria-label="t"
         transform="matrix(1.2468503,-0.47237911,0.47237911,1.2468503,317.60133,450.05867)" />
      <path
         id="path21"
         d="m 2.3388933,-3.4011571 c -0.0057,2.0495676 -0.1169088,2.2821637 -1.0844501,2.40409794 l -0.53364289,0.0566071 c -0.227502,0.1769942 -0.23108853,0.86370759 0.0442609,1.02133023 C 1.7546738,0.02145299 2.9860658,-3.1297569e-4 4.1811485,-4.7073435e-4 5.5858298,-0.00433334 6.5299499,0.03139451 7.4271881,0.08367585 7.6969803,-0.07309946 7.7005668,-0.75981284 7.4615266,-0.93904369 L 6.9255682,-1.0134358 C 6.2576844,-1.137912 6.1386076,-1.3507129 6.136558,-2.9493656 l 0.00161,-5.246873 c 0.00131,-0.5189418 0.052744,-0.8710384 0.2374932,-1.0944513 0.235759,-0.3029386 0.821299,-0.6854424 1.6390115,-0.6841714 1.4414538,7.29e-4 2.0501483,0.9282167 2.0525823,1.9555279 l -0.0048,5.0634741 c 0.002,1.5986527 -0.1146719,1.8156216 -0.7834424,1.9375164 L 8.7458327,-0.935536 C 8.5233341,-0.7691144 8.5197475,-0.08240101 8.7794697,0.08073946 9.417912,0.02227999 10.675504,5.0910267e-5 11.938613,-0.00655089 c 1.4102,0.01176467 2.637,0.02677108 3.544811,0.08410715 0.254165,-0.15125748 0.257751,-0.83797087 0.01871,-1.01720172 l -0.467468,-0.0546363 C 13.989413,-1.1173292 13.869873,-1.35633 13.875578,-3.4058976 l 2.55e-4,-5.0267018 c 0.0011,-2.0127956 -1.239235,-3.6839086 -3.692373,-3.6877216 -1.4676533,-2.66e-4 -2.7177959,0.739931 -3.365382,1.170706 -0.2849564,0.188493 -0.4361744,0.233099 -0.4623742,0.233562 -0.157199,0.0028 -0.210988,-0.07489 -0.2105643,-0.347466 l -7.099e-4,-5.377872 c -0.00116,-1.845023 0.024416,-3.066769 0.081713,-4.273351 -0.1126327,-0.144774 -0.3231575,-0.193468 -0.5015016,-0.200799 -1.5401932,0.640492 -3.2417139,1.346734 -4.4684748,1.630499 -0.2118747,0.171476 -0.2026126,0.695473 -0.0054,0.880684 l 0.5028909,0.279399 c 0.5828797,0.35661 0.5783276,0.692153 0.5780222,1.861036 z m 0,0"
         style="fill:#040606;fill-opacity:1;fill-rule:nonzero;stroke:none"
         aria-label="h"
         transform="matrix(1.2029216,-0.57511521,0.57511521,1.2029216,330.69333,445.23333)" />
      <path
         id="path22"
         d="m 7.4660723,0.4112289 c 3.5975607,6.102e-5 6.7245607,-2.0173967 6.7138687,-6.2943578 0.0082,-4.1280871 -3.100521,-6.2326081 -6.5453139,-6.2354911 -3.4509009,0.0071 -6.76113595,2.3246109 -6.7315847,6.5032392 0.0367302,4.0319683 3.0760177,6.02540537 6.5630299,6.0266097 z m 0.00118,-11.1765489 c 1.6621217,-0.001 2.4789023,2.4613506 2.5130573,5.2833927 0.033547,2.6431641 -0.5219761,4.54210061 -2.2002068,4.54703462 C 6.0757641,-0.93217315 5.120718,-3.1906471 5.12871,-6.2615753 5.1216642,-9.4652689 6.1789976,-10.769388 7.4672544,-10.76532 Z m 0,0"
         style="fill:#040606;fill-opacity:1;fill-rule:nonzero;stroke:none"
         aria-label="o"
         transform="matrix(1.137912,-0.69493459,0.69493459,1.137912,351.43333,435.18533)" />
      <path
         id="path23"
         d="m 2.4542164,-3.4011279 c 0.00485,2.0531848 -0.1118098,2.33097 -1.0814151,2.404294 L 0.81333026,-0.9277565 C 0.58772159,-0.75900537 0.58997441,-0.08868026 0.84253786,0.08215148 1.8146567,0.02520861 3.1105839,0.00241502 4.3012907,0.00414964 c 1.3664786,-8.533e-5 2.5433178,0.02054389 3.9526125,0.08095601 0.2678182,-0.1668443 0.2655654,-0.8371694 0.029383,-1.01051463 L 7.3471366,-1.0165027 c -0.9619779,-0.095514 -1.091033,-0.335597 -1.0958847,-2.3887818 l -0.00138,-4.4345984 c 0.00485,-1.115735 0.1575724,-1.7595382 0.5607728,-1.7543374 0.1757719,-0.00182 0.4479235,0.023489 1.1287354,0.5813135 0.3740781,0.3617714 0.7274417,0.5339033 1.137576,0.5296568 0.9305159,-2.591e-4 1.8669259,-0.5631094 1.8718679,-1.896826 0.0049,-1.115735 -0.819574,-1.735357 -1.600146,-1.741339 -1.2398501,0.0058 -2.0970421,0.975671 -2.8771817,1.464243 -0.2349691,-0.05616 -0.2966798,-0.130529 -0.296593,-0.348511 0.00199,-0.26019 0.065785,-0.663998 0.1183092,-1.25051 -0.1190011,-0.174559 -0.2934728,-0.273539 -0.5278352,-0.271112 -0.8986211,0.590585 -2.9319586,1.38043 -4.2828366,1.755374 -0.190333,0.180105 -0.1918069,0.716868 0.00217,0.8883059 l 0.4245216,0.2534308 c 0.5404027,0.3530177 0.5440426,0.7045613 0.5467283,1.8694397 z m 0,0"
         style="fill:#040606;fill-opacity:1;fill-rule:nonzero;stroke:none"
         aria-label="r"
         transform="matrix(1.0748923,-0.7889134,0.7889134,1.0748923,369.70533,423.81467)" />
      <path
         id="path24"
         d="m 6.2561627,-8.7740776 c -0.00168,-1.3143814 0.032619,-2.5987174 0.09502,-3.4779084 -0.1243549,-0.180177 -0.2908094,-0.273371 -0.5248646,-0.285609 -0.8828023,0.545271 -2.9586902,1.330913 -4.3469751,1.713629 -0.1937154,0.158852 -0.1957508,0.691503 0.00362,0.8732559 l 0.4138644,0.2539889 c 0.5638125,0.3486667 0.561961,0.6982657 0.559282,1.8716016 l 0.00607,4.4172807 c -0.00657,2.0555865 -0.1148743,2.3315574 -1.0887433,2.41910474 l -0.55221751,0.0579622 C 0.57798443,-0.76746907 0.58179246,-0.07726609 0.83671359,0.07453369 1.806039,0.0289939 3.0514272,2.3615373e-4 4.358297,0.00755056 5.7056904,0.0029022 6.8309914,0.02653899 7.875245,0.0741013 8.1364692,-0.07417918 8.1326612,-0.76438216 7.8927625,-0.93417205 L 7.3466642,-0.99323745 C 6.3819742,-1.0812315 6.2502,-1.3439397 6.256766,-3.3995262 Z M 4.4566148,-18.70425 c -1.1808471,0.0063 -2.2109976,0.856027 -2.2122846,2.137395 2.887e-4,1.206349 0.7691359,2.077372 2.0594994,2.08617 1.1148221,-3.8e-4 2.1808608,-0.72852 2.1792721,-2.134427 0.00268,-1.173336 -0.8111435,-2.081915 -2.0264869,-2.089138 z m 0,0"
         style="fill:#040606;fill-opacity:1;fill-rule:nonzero;stroke:none"
         aria-label="i"
         transform="matrix(1.0234372,-0.85460761,0.85460761,1.0234372,382.13467,414.588)" />
      <path
         id="path25"
         d="m 9.1151318,-10.121638 c 0.2843697,-0.183109 0.3755113,-0.708302 0.3655422,-1.023028 -3.75e-4,-0.273576 -0.080425,-0.445143 -0.2417225,-0.564392 l -2.6032511,-4.46e-4 c -0.5220444,0.0082 -0.5562228,-0.02384 -0.5574976,-0.587552 l -0.003,-2.188614 c -0.1318418,-0.23625 -0.6629554,-0.252589 -0.8666013,-0.138362 -0.9043006,1.28881 -1.6313394,1.892179 -2.1578804,2.281933 -0.7066518,0.461783 -1.5191366,0.984953 -2.43730459,1.312496 -0.23415145,0.1981 -0.14900465,0.792324 0.1779384,0.906326 l 0.91209729,0.0043 c 0.5305889,-2.25e-4 0.5407076,0.05749 0.5435565,0.6708997 l -5.916e-4,6.5246922 c 0.00315,1.93160156 0.8519145,3.33898408 3.2809759,3.33665758 1.81565,5.2245e-4 3.4062915,-0.82088422 4.2157777,-1.70045308 C 9.7984107,-1.637134 9.6388359,-1.963702 9.3375267,-2.0536446 8.988473,-1.818743 8.5224185,-1.6132976 8.1163257,-1.608725 6.060228,-1.609925 6.0607505,-3.4255716 6.0584999,-5.0670319 l 0.00202,-4.3857721 c 0.00465,-0.638521 0.020161,-0.672174 0.4096897,-0.676222 z m 0,0"
         style="fill:#040606;fill-opacity:1;fill-rule:nonzero;stroke:none"
         aria-label="t"
         transform="matrix(0.97218534,-0.91248751,0.91248751,0.97218534,391.41333,406.83333)" />
      <path
         id="path26"
         d="m 0.34432349,-10.677159 c 0.93939261,0.14069 1.19837281,0.666287 1.77524291,2.0767191 l 2.7921996,7.073006 C 5.3728014,-0.31284716 5.4647614,0.23860945 5.4653594,0.60358736 5.4666827,0.95200833 5.244061,1.4896822 5.0711738,1.8387648 4.7700562,2.4642374 4.5301522,3.0177428 4.2204571,3.4603637 3.9223048,3.8288412 3.4888592,4.0669757 2.7841015,4.0609812 l -0.6968419,0.00265 C 1.0585536,4.0683232 0.40828958,4.7116761 0.41951367,5.5913697 0.41853328,6.3709963 0.70614734,7.3789204 2.2834083,7.3484927 3.3718771,7.3049439 4.176893,6.7264317 4.8065026,5.4186253 l 4.4440082,-9.2359784 1.5408782,-3.175583 c 0.648343,-1.3567517 1.383034,-2.6018937 1.735209,-3.0675369 0.247756,-0.354096 0.763986,-0.588604 1.347106,-0.645999 l 0.558647,-0.06676 c 0.248418,-0.179886 0.22994,-0.894011 -0.06301,-1.022966 -0.765972,0.06597 -1.529767,0.08227 -2.292836,0.08202 -1.302258,0.001 -2.1891424,-0.01297 -2.8247708,-0.08229 -0.3189341,0.08556 -0.3515776,0.830621 -0.086005,1.016438 l 0.5751402,0.124731 c 0.3541606,0.05699 0.6377406,0.210417 0.6369516,0.417742 -0.0059,0.3232224 -0.4655548,1.5389412 -1.08296,2.9468146 l -0.5172743,1.2049015 c -0.2939273,0.6506707 -0.58858,1.3178983 -0.896888,1.9181728 C 7.5303595,-4.8797466 6.8787479,-6.6666994 6.5579562,-7.4853069 6.0019954,-8.9943551 5.669661,-9.7388191 5.6769788,-10.095156 c -0.00495,-0.265636 0.058439,-0.387274 0.878434,-0.550412 l 0.5781055,-0.132265 c 0.240502,-0.188527 0.2212984,-0.886094 -0.071649,-1.01505 -1.0978354,0.06802 -2.2014102,0.07773 -3.2884282,0.08817 -1.550612,-0.0099 -2.81903082,-0.02398 -3.85275093,-0.09415 -0.29591228,0.128039 -0.30190679,0.832797 -0.09464619,1.024354 z m 0,0"
         style="fill:#040606;fill-opacity:1;fill-rule:nonzero;stroke:none"
         aria-label="y"
         transform="matrix(0.9006377,-0.98317319,0.98317319,0.9006377,401.55067,397.404)" />
      <path
         id="path27"
         d="M 0,0 C 18.429,0 35.746,4.76 50.784,13.119 27.931,-8.897 -3.151,-22.435 -37.39,-22.435 c -70.205,0 -127.124,56.919 -127.124,127.125 0,70.211 56.919,127.124 127.124,127.124 34.239,0 65.321,-13.537 88.174,-35.554 C 35.746,204.619 18.429,209.379 0,209.379 -57.816,209.379 -104.689,162.506 -104.689,104.69 -104.689,46.874 -57.816,0 0,0"
         style="fill:#e32829;fill-opacity:1;fill-rule:nonzero;stroke:none"
         transform="matrix(1.3333333,0,0,-1.3333333,295.40933,384.01733)" />
      <path
         id="path28"
         d="m 21.716377,-8.5387495 c 0.806621,-1.5728255 1.264645,-2.8593955 1.266215,-3.7876085 -0.0082,-1.383836 -0.68542,-3.8863 -2.777657,-3.893802 -2.019023,0.0052 -4.207018,1.479047 -6.250246,3.671256 -1.877606,2.031073 -2.805304,4.3711069 -2.808233,6.7764049 -0.0049,2.3141731 1.336558,3.7927522 4.473163,4.2617533 2.273461,0.340132 4.215558,0.68889528 4.209914,1.042805 -0.855056,0.86291467 -2.186003,1.6434022 -3.690387,2.2989376 -1.639223,0.7064591 -3.548245,1.2011236 -5.390028,1.199863 -4.0264881,0.00823 -6.3780804,-3.11437581 -6.3794669,-6.7212605 -0.00247,-1.424104 0.1530381,-2.8249704 0.6900406,-4.1391272 l -1.416171,-0.406227 c -0.8065298,1.808057 -1.4241101,3.9996019 -1.4210634,6.9135061 -0.00124,6.7962881 4.3730269,9.3902739 8.2222747,9.3884794 2.34076,0.00103 4.58875,-0.7650526 6.819207,-2.0376149 1.504293,-0.890767 2.854404,-1.936164 3.905774,-3.3056599 0.731475,-1.5982209 1.278014,-3.1624483 1.269776,-4.5462847 0.0051,-1.6868889 -0.627205,-2.7991762 -1.779523,-3.4238042 -1.832548,-1.0354365 -7.163213,-0.7744086 -7.160074,-2.6308328 -3.01e-4,-0.7841054 2.996276,-3.7396731 5.28887,-3.7428611 0.809154,0.0081 1.61864,0.878715 2.311122,3.0908417 z M 6.0579971,13.133173 c 1.1948091,0.904344 2.3106704,1.914684 3.4631687,3.009775 0.7433352,-0.81624 1.5501962,-1.761781 2.3164972,-2.974323 -1.063893,-1.137517 -2.1778231,-2.135143 -3.3745637,-3.0522 z m 5.7717899,-0.407458 c 1.175555,0.934021 2.299112,1.916808 3.453541,3.024613 0.756825,-0.80565 1.561755,-1.763906 2.318429,-2.961609 -1.040776,-1.141766 -2.168196,-2.149981 -3.374564,-3.0521997 z m 0,0"
         style="fill:#040606;fill-opacity:1;fill-rule:nonzero;stroke:none"
         aria-label="ي"
         transform="matrix(0.21975601,-1.3150989,1.1955456,0.19977722,43.565067,229.308)" />
      <path
         id="path29"
         d="m 2.3844683,-7.6546169 c -0.115881,1.0775227 -0.135193,1.9740739 -0.1277118,2.6592923 -0.00491,3.6696405 1.8278773,5.31579745 4.8339254,5.32482793 2.6579766,-0.008197 4.9165401,-0.91978021 6.8470831,-2.43523123 0.789759,-1.3861607 1.224634,-2.9895244 1.229582,-4.5959385 -0.0069,-2.2632024 -0.766806,-4.3258476 -2.255769,-6.1016786 -1.838582,-2.237549 -3.9643063,-3.879108 -6.1547495,-5.269548 l -0.1817963,0.0075 c -0.8975304,1.570918 -1.5615036,2.968512 -1.5600973,3.763665 -0.00109,0.566747 0.5200021,0.984003 1.3331527,1.437414 3.3955955,1.886688 5.7373214,4.1699702 6.4633884,6.945298 -2.013066,1.0443853 -3.7587597,1.3780957 -5.2932303,1.3707221 -2.3279902,0.00456 -3.5666089,-0.8309897 -3.5657007,-3.1103 z m 0,0"
         style="fill:#040606;fill-opacity:1;fill-rule:nonzero;stroke:none"
         aria-label="د"
         transform="matrix(0.39155615,-1.2745437,1.1586753,0.35595966,49.084,197.924)" />
      <path
         id="path30"
         d="m 15.349492,-4.8786399 c -0.967827,-5.0901572 -2.724088,-8.0533411 -5.4708033,-8.0548591 -1.4233814,0.0014 -2.7406725,0.778843 -3.9154472,2.161598 -1.2430114,1.4702728 -1.8437227,3.0908236 -1.8453409,4.8816473 0.00109,4.3907712 3.0896108,5.88433683 7.7690324,5.88648276 l 0.677013,0.00834875 C 12.111771,0.98300626 11.071233,2.0519102 9.7231783,3.0813212 7.7735798,4.5988864 5.7240769,5.5893015 3.6282266,5.594248 2.5203327,5.589511 1.5387052,5.3165665 0.63328479,4.9104605 L 0.07302068,6.2046242 C 2.6566866,7.9737776 5.0683334,8.9274999 7.2642308,8.9182089 11.077346,8.9156963 14.149853,4.4171238 15.195268,0.00355703 l 1.817313,-0.00191059 0.0019,-4.88162114 z m -2.452832,0.00233 c -0.295597,0.024915 -0.628143,0.052945 -0.969779,0.057211 -3.1929423,-0.00479 -5.6955475,-0.9304033 -5.6900512,-2.3454277 -0.00552,-0.6127839 0.8940718,-1.7842809 2.469796,-1.78627 1.8696082,0.00186 3.2755022,1.6168081 4.1900342,4.0744867 z m 0,0"
         style="fill:#040606;fill-opacity:1;fill-rule:nonzero;stroke:none"
         aria-label="ﻮ"
         transform="matrix(0.51704628,-1.229,1.1172717,0.47004135,54.8464,178.728)" />
      <path
         id="path31"
         d="m 12.689984,-5.9410131 c 1.197497,-1.0775016 2.476791,-2.2053922 3.731954,-3.4070635 0.352528,-1.2070514 0.594629,-2.4199484 0.811782,-3.6027034 -2.045767,-0.852492 -4.407675,-1.244293 -6.920901,-1.247391 -3.8142146,5.29e-4 -6.1339785,0.720395 -7.8693087,0.873392 l -1.3888574,3.9729715 0.071983,0.088626 0.6032561,-0.00226 c 0.7398579,0.00223 1.1701183,0.3724813 1.6073321,0.7827683 1.0687006,1.0702565 2.036788,1.9956519 2.9909685,2.8409678 l 0.00368,0.086378 C 5.2701513,-5.1081207 3.5168268,-4.884941 1.0559507,-4.8907385 l -1.05968575,0.00272 c -1.17011245,-0.00313 -1.70341145,1.2709631 -1.70093905,2.4366175 -0.00203,1.1832001 0.5345852,2.44826822 1.704697603026,2.4513932011864 L 0.33580199,-1.3548654e-5 C 3.5467605,0.00171954 6.2301166,-0.55799412 9.4234508,-2.9388566 c 2.9962772,2.35014213 5.5921282,2.93763944 8.6243592,2.93127828 l 0.341505,0.01124008 -0.0038,-4.88801066 -0.341504,-0.01124 c -2.129596,0.011741 -3.766774,-0.1173423 -5.354885,-0.9415005 z m 1.17087,-3.7943623 c -1.398718,1.1571356 -2.6637,2.1284655 -3.9303204,2.9382864 C 8.6315774,-7.6073067 7.2679967,-8.7027507 5.9211829,-9.89717 l -4.111e-4,-0.132716 c 1.0498664,-0.233063 2.4494181,-0.386053 4.0497851,-0.382037 1.5001651,-0.0081 2.7426711,0.216338 3.8853871,0.5613769 z m 0,0"
         style="fill:#040606;fill-opacity:1;fill-rule:nonzero;stroke:none"
         aria-label="ﻌ"
         transform="matrix(0.65149305,-1.1633291,1.0575726,0.59226496,63.171867,158.668)" />
      <path
         id="path32"
         d="m 25.044393,-4.8839463 -0.35156,0.00156 c -2.784437,-0.010815 -4.050809,-0.8482337 -4.052417,-2.560115 -0.0076,-0.8017692 0.267399,-1.8548762 0.675088,-3.1638097 l -0.160075,-0.19007 c -0.743875,0.392609 -1.354147,0.787203 -1.959628,1.210134 -0.443272,1.1930753 -0.700707,2.5709503 -1.372468,3.4530867 -0.552771,0.7346526 -1.286825,1.2483914 -2.46576,1.2433242 -0.778128,8.839e-4 -1.225286,-0.4998649 -1.226801,-1.5491633 -9.3e-5,-0.6625829 0.520465,-1.871471 1.122153,-3.3256438 l -0.195421,-0.2414758 c -0.706725,0.2970526 -1.305611,0.6013602 -1.981546,0.9859331 -0.63319,1.1732951 -0.800386,2.2336567 -1.757807,3.1918303 -0.530235,0.4896286 -1.215279,0.9464301 -2.3098585,0.9358313 -0.7874746,0.00866 -1.2786133,-0.3423608 -1.2819319,-1.2446968 0.00422,-0.7631498 0.5790585,-1.8717317 1.4976718,-3.1855167 L 8.9536026,-9.5664542 c -0.7817347,0.2948086 -1.504639,0.653809 -2.1315642,0.9814447 -0.834969,1.1148956 -1.3799602,2.0531871 -2.1092226,2.5952641 -0.9255384,0.7053735 -2.313939,1.1008508 -4.3717726,1.099694 l -0.33514403,0.00407 c -1.17186537,0.00521 -1.70632487,1.2579923 -1.71140467,2.4259147 0.00199,1.1782036 0.5340697,2.46490885 1.70593507115,2.45969492332 L 0.3355736,-0.00444176 C 2.234043,2.1968699e-6 3.9402239,-0.65985978 5.4217592,-1.8601328 5.8767903,-0.49316218 6.8184563,2.301516e-4 8.0395685,0.00253155 9.654418,5.0297139e-4 10.762568,-0.75982403 12.081988,-2.0676578 l 0.117187,-5.214e-4 c 0.452753,1.38502773 1.378715,2.06927268 2.717014,2.07105268 1.422654,-0.003751596 2.819216,-0.72926778 4.126063,-2.26907868 l 0.10784,0.00725 c 0.828746,1.65406011 2.811427,2.2511028 5.537272,2.26217814 l 0.351559,-0.00156418 z m 0,0"
         style="fill:#040606;fill-opacity:1;fill-rule:nonzero;stroke:none"
         aria-label="ﺴ"
         transform="matrix(0.80430785,-1.0634221,0.96674716,0.73118992,74.261733,138.08667)" />
      <path
         id="path33"
         d="m 5.9827093,-25.157429 c -0.8448772,0.630737 -1.4322848,1.241982 -1.9028076,1.820321 -0.4629294,0.605927 -0.6568815,1.39332 -0.6547956,2.296122 0.00232,1.221959 0.8104853,6.644831 0.7979319,12.7265337 0.00808,1.3224392 0.00717,2.0154228 -0.4175715,2.4219072 -0.6976187,0.7081832 -1.8991396,1.0179993 -3.4658172,1.0157521 L -1.9252837e-4,-4.878053 C -1.1773291,-4.8775225 -1.7065132,-3.6170818 -1.7028123,-2.4497919 -1.7076246,-1.2736433 -1.1760971,9.5009335e-4 0.0010394,4.2079796e-4 L 0.34088122,0.00167962 C 2.5460564,-0.00393182 3.8702049,-0.9027104 4.8234427,-2.2140322 c 0.5167676,-0.768417 0.8957097,-1.6595841 1.2173591,-2.5798564 0.5450553,-1.5608688 0.9101793,-3.2184177 0.9156649,-5.4067074 -0.00602,-2.389249 -0.064043,-4.6889 -0.1577208,-6.561068 l 2.1727047,-1.675301 c -1.7581607,-2.926037 -2.694427,-4.915119 -2.6951443,-6.529128 z m 0,0"
         style="fill:#040606;fill-opacity:1;fill-rule:nonzero;stroke:none"
         aria-label="ﻟ"
         transform="matrix(0.91628375,-0.96860821,0.88055147,0.83298474,94.221333,112.528)" />
      <path
         id="path34"
         d="M 2.9453612,0.68418848 C 3.7907848,-0.29926014 4.4463899,-1.2495168 4.9699273,-2.1774756 5.4962429,-2.9960964 5.7206338,-5.5835656 5.7147419,-9.4040872 5.7268823,-14.146144 5.6506345,-19.10433 5.160408,-24.36894 l -0.4201781,-0.224166 c -0.9386221,0.904247 -1.8574366,1.935545 -2.8307605,3.105298 0.5919397,5.352669 0.8332079,10.606696 0.8349587,15.8954435 0.00152,2.3434393 -0.085171,4.1515919 -0.3228105,5.89143654 z m 0,0"
         style="fill:#040606;fill-opacity:1;fill-rule:nonzero;stroke:none"
         aria-label="ا"
         transform="matrix(0.96878289,-0.91609906,0.83281612,0.88071027,103.026,103.25973)" />
      <path
         id="path35"
         d="m 16.03697,-4.8947318 -0.351473,0.00871 c -2.728647,0.00833 -4.041959,-1.960245 -5.309749,-4.7964206 l -0.3773536,0.0042 c -0.6205319,1.064947 -1.1744188,2.2932838 -1.7379093,3.6250099 0.8270838,1.8078521 1.7483749,3.2936 2.7202519,4.5021642 C 10.695039,-0.0482926 9.726705,1.6622354 8.1182534,3.1384902 6.599759,4.5428879 4.8445986,5.3806633 2.7957305,5.3850371 2.2562768,5.3726225 1.5207042,5.2851274 0.59047771,4.9652101 L 0.04340899,6.1830628 C 2.6387827,7.9083969 4.7512206,8.6038756 6.5589549,8.6157946 8.5655933,8.6098889 10.149485,7.1935549 11.500888,5.0712407 c 0.848246,-1.3929397 1.586298,-3.0152379 1.57704,-5.52674106 0.766806,0.23886881 1.547249,0.45676932 2.545803,0.45006643 l 0.419583,-0.00266522 z m 0,0"
         style="fill:#040606;fill-opacity:1;fill-rule:nonzero;stroke:none"
         aria-label=" ﺮ"
         transform="matrix(1.0844206,-0.77576404,0.70523931,0.98583662,119.4752,88.301467)" />
      <path
         id="path36"
         d="m 14.451809,-2.0020722 c 1.170502,1.71093081 2.768821,2.00112913918 4.180236,1.9988993 l 0.346003,0.00630319 0.0037,-4.88800609 -0.346004,-0.0063 c -1.731242,-0.00272 -2.964332,-0.6145847 -3.596611,-1.905315 -1.482543,-3.1294242 -2.582272,-6.3776132 -5.4415019,-6.3808022 -0.9288099,0.004 -1.9009771,0.40982 -2.8244801,1.274037 -0.9063251,0.830476 -1.441293,1.9340379 -1.8605188,3.1532218 -0.7987805,2.4923546 -1.2139181,3.8618004 -4.57170298,3.8617538 l -0.33577849,-4.7e-6 c -1.17011243,0.00313 -1.70671803,1.2682036 -1.70918533,2.433857 0.00203,1.1831989 0.5353362,2.45728206 1.70544858,2.45414909195 l 0.33577849,4.65897e-6 C 2.1367731,1.9730533e-4 3.6696644,-0.63636943 4.7244664,-2.7346208 l 0.094476,-8.985e-4 c 2.0416376,2.32143759 4.8828555,3.7318681 6.7028486,3.74494 1.385239,-0.00358 2.296884,-1.08194276 2.877668,-3.014193 z M 6.5081143,-7.5308255 C 7.1236518,-8.5552063 7.9506304,-9.1243 8.9579658,-9.124286 c 2.1250972,-0.00582 3.8284892,3.4812672 3.8235672,4.7045058 0.0069,0.3293163 -0.189366,0.5038692 -0.561545,0.496216 -1.584416,-9.218e-4 -4.8325743,-1.5881629 -5.7118737,-3.6072613 z m 0,0"
         style="fill:#040606;fill-opacity:1;fill-rule:nonzero;stroke:none"
         aria-label="ﻤ"
         transform="matrix(1.1633331,-0.65148583,0.59226033,1.0575765,135.99067,76.2864)" />
      <path
         id="path37"
         d="M 12.71359,-8.1063999 C 8.8494036,-5.6481812 5.5323688,-4.8788803 0.34012233,-4.8877552 l -0.34164474,0.00323 c -1.17292909,4.682e-4 -1.71659299,1.260899 -1.70988399,2.429025 -0.00851,1.1753444 0.5381024,2.45465858851 1.71103149007,2.45419045 L 0.34126983,-0.00453977 C 7.4789506,-0.00519911 10.734405,-2.1746844 15.06351,-6.0942154 c 1.314215,-1.1593803 2.447351,-1.4685431 4.183917,-1.4584178 0.854872,-1.2492215 1.507578,-2.3926254 2.02346,-3.4016458 l -0.04175,-0.198579 -1.804002,0.002 c -2.041212,-0.0046 -3.675998,-0.261522 -6.054114,-1.148583 -2.835505,-1.087018 -5.117282,-1.682278 -6.7798508,-1.687796 -2.53518,0.0014 -4.7194922,1.33525 -5.3357462,4.3672213 l 1.5992018,3.1127403 0.4939677,-0.00599 1.1264204,-2.5592568 c 0.4389565,-0.307469 1.0958573,-0.4503021 2.0272477,-0.4453935 1.3883594,-0.00339 3.5543924,0.3886875 6.2132794,1.301394 z m 0,0"
         style="fill:#040606;fill-opacity:1;fill-rule:nonzero;stroke:none"
         aria-label="ﺣ"
         transform="matrix(1.2390643,-0.49244039,0.44767187,1.1264228,156.98933,64.2552)" />
      <path
         id="path38"
         d="m 6.4980924,-28.562503 c 0.4745172,-0.676898 0.7124757,-1.274845 0.705477,-1.809557 0.00401,-0.837879 -0.6823563,-1.366804 -1.7369029,-1.361602 -1.0402596,-0.004 -2.0903175,0.495208 -3.0148318,1.283337 -1.0594219,0.949377 -1.56555432,2.016782 -1.56323763,2.77656 -0.001931,0.931697 0.52181883,1.534052 1.49054593,1.943834 -0.3602199,0.60299 -0.6691798,1.193982 -0.9672312,1.841359 l 0.2961206,0.28432 c 1.3513914,-0.852692 3.4480319,-1.426001 6.1281772,-1.752794 0.38334,-0.64966 0.724253,-1.324753 0.9882759,-1.981846 l -0.094894,-0.213545 c -0.8558297,0.03531 -1.5751109,0.05633 -2.4733676,0.06621 -2.0691762,-0.0048 -3.186567,-0.656831 -3.1926968,-1.297838 9.66e-5,-0.359554 0.654796,-0.825189 1.6299428,-0.853063 0.3382098,0.0033 0.6301795,0.10003 0.8414459,0.333486 l 0.6505965,0.731798 z m 2.3780857,10.547538 c -2.4845652,-2.041209 -4.3297802,-3.713413 -5.0563013,-4.893061 l -0.3323212,-0.0283 c -0.7612258,1.327513 -1.2316886,2.5516 -1.2306752,3.47082 0.00135,1.225627 0.9130744,2.697877 2.3553046,4.641232 4.4279076,5.9655101 7.28751,10.1114801 7.493033,11.3954045 -2.025736,0.9398187 -5.3366883,1.9388363 -10.3740217,3.07085326 l 0.00362,0.6003362 C 4.4007224,1.3098355 6.8159759,1.7464314 9.0187564,1.7494598 12.762185,1.7395877 14.647317,0.26686229 15.939437,-2.027762 c 1.516997,-2.6832206 2.130911,-6.1570147 2.135353,-10.177733 l 0.0038,-4.633531 2.216248,-1.644538 c -1.592873,-2.638943 -2.717407,-4.851167 -2.720062,-5.917352 0.0051,-0.278214 0.05474,-0.437178 0.09847,-0.571188 l -0.409983,-0.26356 c -1.962023,1.490725 -2.46859,2.611277 -2.473996,3.968153 0.0053,2.13237 0.669999,3.574037 0.664543,12.9349176 0.003,2.75766 -0.854286,3.6715168 -2.042195,4.3444848 -9.17e-4,-4.4084652 -2.023273,-6.6639624 -5.7097446,-12.2313174 z m 0,0"
         style="fill:#040606;fill-opacity:1;fill-rule:nonzero;stroke:none"
         aria-label="ﻷ"
         transform="matrix(1.2905634,-0.33499845,0.30454307,1.1732387,180.992,54.488267)" />
      <path
         id="path39"
         d="M 2.9634706,0.6763541 C 3.7849325,-0.29953303 4.4484924,-1.2515003 4.9657163,-2.1774732 5.5025497,-2.9954413 5.7197238,-5.5817267 5.7287379,-9.4069538 5.7213044,-14.162455 5.647748,-19.11267 5.1570673,-24.372803 l -0.4071946,-0.216711 c -0.9411434,0.902176 -1.8645634,1.925078 -2.8356341,3.109226 0.5853441,5.342418 0.827481,10.597151 0.8269819,15.886726 -0.00219,2.3375083 -0.079298,4.1391425 -0.3164417,5.89900892 z m 0,0"
         style="fill:#040606;fill-opacity:1;fill-rule:nonzero;stroke:none"
         aria-label="ا"
         transform="matrix(1.3159516,-0.21459061,0.1950831,1.1963187,207.75733,47.932267)" />
      <path
         id="path40"
         d="m 17.82344,-25.170861 c -0.853326,0.642292 -1.436586,1.250723 -1.902295,1.835465 -0.465898,0.597632 -0.664959,1.380514 -0.654821,2.283156 -0.0023,0.95399 0.218331,1.886172 0.305932,3.099611 0.339695,3.989783 0.68478,9.2044322 0.682894,11.7184002 -0.0031,1.0055454 -0.0033,1.8177568 -0.04743,2.4229097 -0.45532,0.6751738 -1.332271,1.3299371 -2.702103,2.0274809 -1.251712,0.6351885 -2.569737,0.99845585 -3.8238587,1.00187788 -3.351882,-0.008199 -5.1599545,-2.18056388 -5.1537,-4.99097718 -0.00539,-1.2248661 0.3781664,-2.5975046 0.9743424,-4.0823827 L 4.2109112,-10.49718 c -1.1471336,2.2872693 -1.8397653,4.7502435 -1.8431708,7.3673229 0.00402,4.4994899 2.6312841,7.5502471 6.7334474,7.54604 2.9886482,0.00172 6.7035022,-1.5564689 8.5079982,-4.70869449 0.809234,-2.42221801 1.163206,-4.96858481 1.164581,-8.24320851 0.0074,-2.8877469 -0.04608,-5.6218719 -0.159844,-8.2410399 l 2.204473,-1.662477 c -1.773432,-2.932394 -2.693465,-4.921324 -2.693158,-6.532858 z m 0,0"
         style="fill:#040606;fill-opacity:1;fill-rule:nonzero;stroke:none"
         aria-label=" ل"
         transform="matrix(1.3331582,-0.02161085,0.01964599,1.2119622,229.49867,44.696)" />
      <path
         id="path41"
         d="M 8.1875141,-19.000233 C 5.6644503,-20.388671 3.7287547,-21.70331 2.6553929,-22.813672 l -0.3430419,-0.004 c -0.4846119,1.22426 -0.7747482,2.291384 -0.7746489,3.110013 0.00128,1.442193 1.7428965,3.121823 3.3487526,5.262244 3.132897,4.109943 5.4882843,7.5229561 6.1144713,9.6704224 -2.3152854,1.6361778 -5.3286736,3.0581082 -8.8932738,4.31022279 l -0.00493,0.46848503 C 3.3549976,0.4133449 4.8714953,0.65609297 6.7741858,0.6629184 9.8803801,0.65738842 13.89393,-0.69648637 15.06147,-5.1088947 l 0.106104,-0.00184 c 0.493484,3.4524621 2.291746,5.11117689772 5.469169,5.10868121 l 0.343042,0.00400936 0.0024,-4.88620237 -0.343042,-0.00401 c -2.398338,-0.00249 -3.500764,-1.8754538 -3.497122,-5.3194635 -6e-6,-6.133328 -0.0036,-11.070681 -0.273798,-14.840235 l -0.2794,-0.168841 c -0.799675,0.644588 -1.662993,1.454007 -2.664138,2.399647 0.31891,4.906251 0.526788,8.749497 0.525708,12.011228 -0.0025,2.5342399 -0.858488,4.1222999 -1.998741,5.2953017 l -0.07418,-0.02861 C 12.376733,-9.736306 10.102625,-12.445996 7.1126777,-17.056718 Z m 0,0"
         style="fill:#040606;fill-opacity:1;fill-rule:nonzero;stroke:none"
         aria-label="ﻼ"
         transform="matrix(1.3226892,0.16813968,-0.15285474,1.2024465,257.524,44.313867)" />
      <path
         id="path42"
         d="m 10.985557,-4.8927596 c 0.266583,-0.8025921 0.427961,-1.5899096 0.427396,-2.399663 3.63e-4,-2.1509989 -1.164058,-4.4904194 -2.6437967,-6.8903144 l -1.4512195,-2.434189 -0.3979169,0.0018 C 5.078547,-13.685675 3.7146023,-9.7572341 2.7430778,-4.8863965 l -2.73990795,6.25e-5 C -1.1678257,-4.8871894 -1.717088,-3.6228434 -1.7061906,-2.4441334 -1.7094779,-1.2748509 -1.1701949,-5.5047666e-4 8.0065096e-4,3.049464e-4 0.38733996,0.00161934 0.95296428,-0.00583666 1.9735429,-0.08365406 1.9813559,5.2250907 5.6000496,8.0668363 8.6440466,8.0771872 12.034836,8.073085 13.821065,4.5744045 13.815963,2.3452257 c 0.008,-0.8253565 -0.06644,-1.64161407 -0.396658,-2.4681207 0.829668,0.09348838 1.366773,0.12032639 1.68224,0.12765202 l 0.360977,-0.005025436 0.0024,-4.886638884 z m -6.4802972,0.0061 C 5.022033,-6.7263812 5.5989494,-8.7284762 6.3870237,-11.026866 l 0.093828,-0.01219 c 1.5082569,2.3656012 2.4949376,4.2354491 2.4980115,5.1640163 0.00352,0.7691195 -1.6626227,0.9823057 -4.4736034,0.9883801 z m -0.1867694,4.76408025 c 0.9468483,-0.13747073 1.7969125,-0.22212086 2.5699911,-0.21949207 1.4125825,0.001677 2.4031482,0.48964557 3.1365975,1.44570792 0.597516,0.7805188 0.885029,1.6318918 0.885894,2.3353468 -0.0013,0.4783429 -0.468125,0.7112396 -1.2042637,0.7118629 C 7.4130357,4.149302 4.8413474,1.9395338 4.3184904,-0.12257705 Z m 0,0"
         style="fill:#040606;fill-opacity:1;fill-rule:nonzero;stroke:none"
         aria-label="ﻬ"
         transform="matrix(1.2945168,0.31938065,-0.29034435,1.1768327,284.23733,47.862667)" />
      <path
         id="path43"
         d="m 5.990783,-25.163814 c -0.8591285,0.62878 -1.4477383,1.253162 -1.9141008,1.83256 -0.4515313,0.587532 -0.6545709,1.382665 -0.653692,2.279466 0.0012,1.222911 0.8032769,6.663917 0.8092292,12.7377049 -0.00612,1.3207518 -0.00544,2.0137343 -0.4237891,2.4259437 -0.6997036,0.7060415 -1.892673,1.0091067 -3.46393677,1.0028159 l -0.34463465917,0.00448 C -1.1748812,-4.8835231 -1.703567,-3.6151448 -1.7061263,-2.445223 c -0.00256,1.1699219 0.5323212,2.44111626 1.70706123723,2.4438006 L 0.3455696,-0.00590716 c 2.2012484,0.005544324 3.5233413,-0.88874786 4.4707377,-2.20246234 0.5069385,-0.7710351 0.9025833,-1.6642295 1.212959,-2.5940102 0.5395196,-1.5578135 0.9121787,-3.2173386 0.917457,-5.3941273 -0.00236,-2.405057 -0.052765,-4.68369 -0.1472678,-6.579091 l 2.1773838,-1.657587 c -1.7705431,-2.936966 -2.6952308,-4.921064 -2.693111,-6.539386 z m 0,0"
         style="fill:#040606;fill-opacity:1;fill-rule:nonzero;stroke:none"
         aria-label="ﻟ"
         transform="matrix(1.2644561,0.4229994,-0.38454612,1.1495063,303.53733,52.747333)" />
      <path
         id="path44"
         d="M 2.944852,0.67834619 C 3.7924645,-0.28994876 4.4550936,-1.2465296 4.9740746,-2.1817646 5.4994449,-2.9949104 5.7134628,-5.5726652 5.7134704,-9.4026362 5.7210528,-14.15179 5.6505402,-19.116487 5.1560257,-24.380984 l -0.4154038,-0.206433 c -0.9367515,0.896361 -1.851889,1.922012 -2.8411779,3.091186 0.6032167,5.355608 0.8344158,10.62453 0.8436347,15.9075094 -0.00703,2.3482413 -0.087412,4.1458233 -0.3265922,5.88813102 z m 0,0"
         style="fill:#040606;fill-opacity:1;fill-rule:nonzero;stroke:none"
         aria-label="ا"
         transform="matrix(1.2385875,0.49363839,-0.44876072,1.1259886,315.64133,56.825467)" />
      <path
         id="path45"
         d="m 11.4301,-2.7661398 c 1.063825,2.19686269 2.384339,2.76087271 5.387349,2.76912393 l 0.351757,0.00106711 -0.0061,-4.88459354 -0.351757,-0.00107 c -1.449182,-0.0074 -2.026485,-0.2079897 -2.774423,-0.8656008 -0.736412,-0.7391718 -0.738361,-2.2980847 -0.73947,-4.3478579 0.0012,-3.730207 -0.01848,-6.64495 -0.147938,-9.044685 l -0.379537,-0.132134 c -0.849406,0.728778 -1.649338,1.500651 -2.427447,2.28848 l 0.07137,1.277404 c -3.121443,1.760298 -5.8413956,3.772613 -7.1692782,6.6158448 -0.6538395,1.3632411 -0.9938703,2.6028933 -0.9924412,3.746096 -0.00109,2.6157824 2.2747739,3.4837358 4.721074,3.4864331 1.4855103,-6.469e-4 2.9793082,-0.348265 4.4568514,-0.9085106 z m -0.554589,-4.1226937 c -1.069385,0.3325865 -2.1462174,0.5212843 -3.2698046,0.5165874 -1.3488744,0.00364 -2.5091796,-0.3047921 -2.5218752,-1.1585791 0.00602,-0.9993141 2.2204843,-2.7374558 5.7011308,-4.3527978 0.04818,1.336598 0.0954,3.0601277 0.09055,4.9947895 z M 9.8764511,-23.554132 c 0.9736149,0.961059 1.9254079,1.906162 2.8598449,2.921642 0.954053,-0.735332 1.751006,-1.564761 2.395198,-2.505881 -0.733823,-0.993399 -1.647927,-2.021701 -2.78149,-3.030484 z m -5.153956,0.218845 c 0.9736152,0.961059 1.9355742,1.899751 2.8598453,2.921642 0.9482242,-0.746515 1.7510053,-1.564761 2.385031,-2.49947 -0.7236559,-0.99981 -1.6639218,-2.026473 -2.7814905,-3.030484 z m 0,0"
         style="fill:#040606;fill-opacity:1;fill-rule:nonzero;stroke:none"
         aria-label=" ﺔ"
         transform="matrix(1.1567473,0.66310898,-0.60282659,1.0515872,336.11467,65.411467)" />
      <path
         id="path46"
         d="m 11.434659,-4.8723971 -0.292812,-0.010519 c -1.043561,0.0012 -1.8749852,-0.2711365 -2.6123454,-0.710345 C 7.6154698,-6.2425967 7.3369733,-6.9722818 7.3358787,-8.1201987 7.3387013,-8.6102023 7.5152621,-9.3441762 7.806033,-10.37069 L 7.627449,-10.516398 C 6.8690695,-10.08965 6.2316585,-9.6301812 5.6710436,-9.2298619 5.1316325,-8.1219978 5.014692,-6.5527036 3.6697771,-5.721408 2.8605221,-5.2397382 1.9773305,-4.8742225 0.34526671,-4.8761029 L 6.1303537e-4,-4.878166 C -1.1696721,-4.8737757 -1.7157862,-3.6191209 -1.7175695,-2.4532509 c 0.00494,1.1764295 0.5484696,2.45733057 1.71875466,2.45294025555 L 0.34583884,0.00175251 C 2.4752014,-0.00171794 4.130197,-0.93021334 5.4529242,-2.6728695 l 0.084483,-0.00212 c 1.291512,2.23123222 3.358524,2.66919595 5.5790908,2.67416089377 L 11.435231,0.00545829 Z M 7.3118211,-16.788183 c 0.4568959,-0.698109 0.7016372,-1.280022 0.6967729,-1.827051 0.00566,-0.822657 -0.672187,-1.370646 -1.7320685,-1.372608 -1.0531601,0.0086 -2.0995432,0.499806 -3.0287644,1.309921 -1.0367283,0.955865 -1.5579059,2.002476 -1.5616571,2.760714 0.00299,0.926148 0.5522023,1.541743 1.4873272,1.954522 -0.3388238,0.591431 -0.6546052,1.196588 -0.9406225,1.826029 l 0.2890061,0.296707 c 1.3410714,-0.859808 3.4492486,-1.413473 6.1209926,-1.75601 0.3829778,-0.656912 0.7265922,-1.330716 0.9828455,-1.984442 l -0.075868,-0.209085 c -0.8640294,0.03603 -1.5754138,0.06464 -2.4759287,0.06583 -2.0775216,-0.005 -3.2094825,-0.65957 -3.2095563,-1.288971 0.00188,-0.379119 0.6488861,-0.845981 1.6367621,-0.867242 0.3542532,-0.0053 0.6393973,0.105513 0.8266338,0.354712 l 0.6653916,0.730687 z m 0,0"
         style="fill:#040606;fill-opacity:1;fill-rule:nonzero;stroke:none"
         aria-label="ﺌ"
         transform="matrix(1.0922105,0.76475744,-0.69523379,0.99291842,355.21333,76.518933)" />
      <path
         id="path47"
         d="m 11.436751,-4.8825954 -0.291046,-0.00545 c -1.041387,0.00126 -1.8742915,-0.2671018 -2.6152007,-0.7174812 -0.9251694,-0.617844 -1.1961302,-1.3724012 -1.1881875,-2.5260629 0.00373,-0.485226 0.1630994,-1.2094073 0.4593055,-2.2388125 l -0.1694706,-0.147464 c -0.7654722,0.435669 -1.3916632,0.8962635 -1.969007,1.2799185 -0.5280932,1.1039569 -0.6426866,2.685381 -1.9871987,3.5228394 -0.820018,0.4844749 -1.694106,0.8345459 -3.34316076,0.8311779 l -0.33310810598,-0.00105 C -1.1752922,-4.8805057 -1.7095597,-3.6214735 -1.7027128,-2.4478117 c -0.00964,1.1717961 0.528756,2.45143179 1.70372533,2.44696110525 l 0.33310811,0.00104675 C 2.4754427,-0.00486583 4.1359669,-0.92568093 5.449886,-2.6829197 l 0.082429,0.00933 c 1.2812692,2.24337563 3.3653978,2.6716734 5.589149,2.6759403 l 0.316622,-8.1902e-4 z M 5.2632081,6.9722707 C 6.2402758,7.9258627 7.1843719,8.8757232 8.1250757,9.8618525 9.0677545,9.1346907 9.8779367,8.310065 10.51356,7.3923782 9.7922598,6.3761008 8.8475534,5.3437027 7.7238098,4.3551843 Z M 0.0944683,7.193659 C 1.071536,8.147251 2.0321179,9.0989773 2.947245,10.091375 3.9138044,9.3760792 4.7256828,8.5333191 5.3630021,7.5974979 4.62352,6.5974892 3.6936033,5.5850912 2.564161,4.5684383 Z m 0,0"
         style="fill:#040606;fill-opacity:1;fill-rule:nonzero;stroke:none"
         aria-label="ﻴ"
         transform="matrix(1.0343508,0.84136567,-0.76487716,0.94031698,367.20533,84.886667)" />
      <path
         id="path48"
         d="m 7.4690475,-1.5447286 c 3.2433675,0.9431205 6.1209025,1.54144135 8.3748535,1.549964 1.781596,0.00144191 3.11281,-0.81553878 3.992927,-2.651472 0.510055,-1.0413225 0.754687,-2.1544229 0.750793,-3.2482226 0.0037,-3.6278405 -2.76202,-5.3933808 -6.283931,-7.7663778 -2.076712,-1.431248 -3.904834,-2.863566 -5.517641,-4.333272 l -0.4143172,0.0018 c -0.328339,0.876467 -0.5985763,1.780029 -0.7858852,2.701465 -2.2976337,1.687081 -3.8715327,4.164062 -3.8929977,7.445604 0.00305,0.8568098 0.072391,1.7133341 0.1665577,2.5606363 -1.7309049,0.2717939 -2.8325669,0.3950354 -3.52030103,0.4071126 l -0.33977254768,-0.00765 C -1.1690739,-4.8892407 -1.7197491,-3.6198649 -1.715596,-2.4531452 c -0.0041,1.1758704 0.5473402,2.44961465 1.71574712255,2.45369753413 L 0.33992367,0.00820409 C 2.2457828,-4.3230638e-6 4.5892932,-0.43850914 7.4690475,-1.5447286 Z m 1.260653,-4.344235 C 7.0705498,-6.4104957 5.5748548,-7.5707914 5.578761,-8.8013518 c -0.00409,-1.1484897 1.8042295,-2.9519602 3.3538083,-2.9495192 1.5081147,-0.0065 2.7245397,1.8477539 2.7227747,3.6799041 0.0028,0.7838898 -1.087503,1.7730205 -2.9256435,2.1820033 z m 3.6164795,1.0053195 c 0.608647,-1.2787407 1.043184,-2.5840769 1.245378,-3.9795638 2.66566,1.6018986 4.452383,3.0435101 4.456276,4.1373099 0.0013,0.3645999 -0.536633,0.5583346 -1.464769,0.5441017 -1.143515,0.00493 -2.660792,-0.2346488 -4.236885,-0.7018478 z m 0,0"
         style="fill:#040606;fill-opacity:1;fill-rule:nonzero;stroke:none"
         aria-label="ﻫ"
         transform="matrix(0.93911038,0.94649325,-0.86044672,0.85373477,378.62533,93.612667)" />
    </g>
  </g>
</svg>
