<?xml version="1.0" encoding="UTF-8" standalone="no"?>
<!-- Created with Inkscape (http://www.inkscape.org/) -->

<svg
   version="1.1"
   id="svg1"
   width="781.03064"
   height="132.44533"
   viewBox="0 0 781.03064 132.44533"
   sodipodi:docname="Croix-Rouge suisse.svg"
   inkscape:version="1.3.2 (091e20e, 2023-11-25, custom)"
   xmlns:inkscape="http://www.inkscape.org/namespaces/inkscape"
   xmlns:sodipodi="http://sodipodi.sourceforge.net/DTD/sodipodi-0.dtd"
   xmlns="http://www.w3.org/2000/svg"
   xmlns:svg="http://www.w3.org/2000/svg">
  <defs
     id="defs1">
    <clipPath
       clipPathUnits="userSpaceOnUse"
       id="clipPath4">
      <path
         d="M 0.059998,99.334 H 585.772 V 0.06 H 0.059998 Z"
         id="path4" />
    </clipPath>
    <clipPath
       clipPathUnits="userSpaceOnUse"
       id="clipPath6">
      <path
         d="M 0.059998,99.334 H 585.772 V 0.06 H 0.059998 Z"
         transform="translate(-26.44,-73.143002)"
         id="path6" />
    </clipPath>
  </defs>
  <sodipodi:namedview
     id="namedview1"
     pagecolor="#ffffff"
     bordercolor="#666666"
     borderopacity="1.0"
     inkscape:showpageshadow="2"
     inkscape:pageopacity="0.0"
     inkscape:pagecheckerboard="0"
     inkscape:deskcolor="#d1d1d1"
     inkscape:zoom="1.1971361"
     inkscape:cx="390.51532"
     inkscape:cy="66.408488"
     inkscape:window-width="1920"
     inkscape:window-height="1017"
     inkscape:window-x="-8"
     inkscape:window-y="-8"
     inkscape:window-maximized="1"
     inkscape:current-layer="g1">
    <inkscape:page
       x="0"
       y="0"
       inkscape:label="Page 1"
       id="page1"
       width="781.03064"
       height="132.44533"
       margin="0"
       bleed="0" />
  </sodipodi:namedview>
  <g
     id="g1"
     inkscape:groupmode="layer"
     inkscape:label="Page 1">
    <g
       id="group-MC1">
      <path
         id="path2"
         d="m 486.689,33.217 h 99.083 v 32.821 h -99.083 z"
         style="fill:#ed1c24;fill-opacity:1;fill-rule:nonzero;stroke:none"
         transform="matrix(1.3333333,0,0,-1.3333333,0,132.44533)" />
      <path
         id="path3"
         d="m 519.888,0.060001 h 32.562 v 99.274 h -32.562 z"
         style="fill:#ed1c24;fill-opacity:1;fill-rule:nonzero;stroke:none"
         transform="matrix(1.3333333,0,0,-1.3333333,0,132.44533)"
         clip-path="url(#clipPath4)" />
      <path
         id="path5"
         d="m 0,0 c -1.247,0.328 -2.427,0.524 -3.674,0.524 -8.594,0 -12.333,-7.805 -12.333,-15.419 0,-7.35 3.739,-16.404 12.268,-16.404 1.248,0 2.492,0.328 3.739,0.724 v -9.253 c -1.443,-0.592 -2.951,-0.851 -4.527,-0.851 -14.107,0 -21.913,12.727 -21.913,25.719 0,12.27 8.134,24.866 21.454,24.866 1.707,0 3.347,-0.328 4.986,-0.917 L 0,0"
         style="fill:#231f20;fill-opacity:1;fill-rule:nonzero;stroke:none"
         transform="matrix(1.3333333,0,0,-1.3333333,35.253333,34.921333)"
         clip-path="url(#clipPath6)" />
      <path
         id="path7"
         d="M 0,0 V -4.001 H 0.132 C 1.835,-1.114 4.067,0.92 7.678,1.248 V -7.741 C 7.218,-7.677 6.758,-7.609 6.234,-7.609 0.064,-7.609 0,-11.68 0,-16.598 V -33.134 H -9.253 V 0 H 0"
         style="fill:#231f20;fill-opacity:1;fill-rule:nonzero;stroke:none"
         transform="matrix(1.3333333,0,0,-1.3333333,53.973333,44.285333)" />
      <path
         id="path8"
         d="m 0,0 c 0,-1.903 0.132,-8.925 3.347,-8.925 3.215,0 3.347,7.022 3.347,8.925 0,1.902 -0.132,8.921 -3.347,8.921 C 0.132,8.921 0,1.902 0,0 Z m 15.944,0 c 0,-8.465 -2.688,-17.192 -12.597,-17.192 -9.909,0 -12.596,8.727 -12.596,17.192 0,8.464 2.687,17.254 12.596,17.254 9.909,0 12.597,-8.79 12.597,-17.254"
         style="fill:#231f20;fill-opacity:1;fill-rule:nonzero;stroke:none"
         transform="matrix(1.3333333,0,0,-1.3333333,82.056,66.414667)" />
      <path
         id="path9"
         d="M -9.249,0 H 0 V -33.134 H -9.249 Z M 0,0 Z m -10.497,9.909 c 0,3.347 2.691,5.839 6.038,5.839 3.215,0 5.707,-2.818 5.707,-5.971 0,-3.15 -2.691,-5.838 -5.907,-5.838 -3.215,0 -5.838,2.688 -5.838,5.97"
         style="fill:#231f20;fill-opacity:1;fill-rule:nonzero;stroke:none"
         transform="matrix(1.3333333,0,0,-1.3333333,122.20933,44.285333)" />
      <path
         id="path10"
         d="M 0,0 2.623,-5.05 3.61,-7.085 7.349,0 H 16.93 L 8.465,-15.287 18.242,-33.134 H 8.465 l -4.855,9.121 -4.922,-9.121 h -9.514 L -1.312,-15.287 -9.581,0 H 0"
         style="fill:#231f20;fill-opacity:1;fill-rule:nonzero;stroke:none"
         transform="matrix(1.3333333,0,0,-1.3333333,142.94267,44.285333)" />
      <path
         id="path11"
         d="m 130.175,50.311 h 16.403 v 8.7246 h -16.403 z"
         style="fill:#231f20;fill-opacity:1;fill-rule:nonzero;stroke:none"
         transform="matrix(1.3333333,0,0,-1.3333333,0,132.44533)" />
      <path
         id="path12"
         d="m 0,0 1.704,-0.067 c 4.462,0 6.233,3.018 6.233,7.086 0,3.543 -1.704,6.43 -6.626,6.169 l -1.311,0 z m -9.778,-28.216 v 49.474 h 9.846 c 6.234,0 17.382,-0.655 17.382,-14.172 0,-5.445 -2.163,-10.106 -7.017,-12.796 l 8.593,-22.506 H 8.729 L 0.128,-5.382 H 0 v -22.834 h -9.778"
         style="fill:#231f20;fill-opacity:1;fill-rule:nonzero;stroke:none"
         transform="matrix(1.3333333,0,0,-1.3333333,217.38933,50.842667)" />
      <path
         id="path13"
         d="m 0,0 c 0,-1.903 0.136,-8.925 3.348,-8.925 3.218,0 3.346,7.022 3.346,8.925 0,1.902 -0.128,8.921 -3.346,8.921 C 0.136,8.921 0,1.902 0,0 Z m 15.944,0 c 0,-8.465 -2.684,-17.192 -12.596,-17.192 -9.906,0 -12.597,8.727 -12.597,17.192 0,8.464 2.691,17.254 12.597,17.254 9.912,0 12.596,-8.79 12.596,-17.254"
         style="fill:#231f20;fill-opacity:1;fill-rule:nonzero;stroke:none"
         transform="matrix(1.3333333,0,0,-1.3333333,262.004,66.414667)" />
      <path
         id="path14"
         d="m 0,0 v -18.174 c 0,-1.836 -0.724,-6.953 2.367,-6.953 2.488,0 2.291,3.277 2.291,4.918 L 4.726,0 h 9.182 v -21.126 c 0,-7.677 -3.604,-12.664 -11.805,-12.664 -10.5,0 -11.352,7.875 -11.352,13.909 L -9.249,0 H 0"
         style="fill:#231f20;fill-opacity:1;fill-rule:nonzero;stroke:none"
         transform="matrix(1.3333333,0,0,-1.3333333,302.24933,44.285333)" />
      <path
         id="path15"
         d="M 0,0 C 0,1.839 -0.128,8.857 -3.279,8.857 -6.43,8.857 -6.626,1.903 -6.626,0 c 0,-2.099 0.129,-8.921 3.476,-8.921 2.954,0 3.15,7.15 3.15,8.921 z m -7.35,-21.125 c 0.129,-2.1 0.724,-4.728 3.347,-4.728 4.132,0 3.543,6.235 3.543,9.057 v 4.199 h -0.127 c -1.252,-2.426 -2.76,-4.791 -5.97,-4.791 -3.416,0 -5.715,2.693 -7.154,5.512 -1.644,3.283 -2.164,7.545 -2.164,11.221 0,5.773 1.048,17.714 8.918,17.714 3.083,0 5.314,-2.032 6.37,-4.658 h 0.127 v 4.001 h 9.25 v -36.02 c 0,-9.708 -4.327,-13.579 -12.4,-13.579 -7.87,0 -11.481,4.525 -11.941,12.072 h 8.201"
         style="fill:#231f20;fill-opacity:1;fill-rule:nonzero;stroke:none"
         transform="matrix(1.3333333,0,0,-1.3333333,348.61333,66.154667)" />
      <path
         id="path16"
         d="m 0,0 c 0,2.166 -0.46,6.101 -3.347,6.101 -2.827,0 -3.416,-3.806 -3.416,-5.907 V -0.788 H 0 Z M 7.801,-6.495 H -6.83 c 0.067,-2.427 -0.06,-7.678 3.483,-7.678 2.36,0 2.947,1.835 2.947,3.807 h 7.877 c -0.791,-6.103 -3.738,-10.894 -10.5,-10.894 -9.385,0 -12.724,8.335 -12.724,16.536 0,7.937 2.887,17.911 12.528,17.911 6.106,0 11.744,-5.446 11.216,-15.879 L 7.801,-6.495"
         style="fill:#231f20;fill-opacity:1;fill-rule:nonzero;stroke:none"
         transform="matrix(1.3333333,0,0,-1.3333333,387.984,60.992)" />
      <path
         id="path17"
         d="m 0,0 c -1.31,1.179 -2.563,2.163 -4.463,2.163 -1.641,0 -2.494,-0.984 -2.494,-2.429 0.136,-3.869 10.561,-3.081 10.561,-12.99 0,-6.562 -3.8,-11.614 -10.628,-11.614 -3.544,0 -7.214,1.509 -9.974,3.808 l 4.07,6.558 c 1.38,-1.179 2.76,-2.163 4.591,-2.163 1.448,0 2.693,1.047 2.693,2.755 0.134,4.394 -10.563,3.282 -10.563,13.78 0,6.297 5.246,9.708 11.09,9.708 3.347,0 6.166,-0.85 8.857,-2.819 L 0,0"
         style="fill:#231f20;fill-opacity:1;fill-rule:nonzero;stroke:none"
         transform="matrix(1.3333333,0,0,-1.3333333,450.268,56.178667)" />
      <path
         id="path18"
         d="m 0,0 v -18.174 c 0,-1.836 -0.723,-6.953 2.36,-6.953 2.496,0 2.3,3.277 2.3,4.918 L 4.72,0 h 9.19 v -21.126 c 0,-7.677 -3.611,-12.664 -11.814,-12.664 -10.493,0 -11.351,7.875 -11.351,13.909 V 0 H 0"
         style="fill:#231f20;fill-opacity:1;fill-rule:nonzero;stroke:none"
         transform="matrix(1.3333333,0,0,-1.3333333,474.59067,44.285333)" />
      <path
         id="path19"
         d="M -9.249,0 H 0 V -33.134 H -9.249 Z M 0,0 Z m -10.5,9.909 c 0,3.347 2.691,5.839 6.037,5.839 3.219,0 5.707,-2.818 5.707,-5.971 0,-3.15 -2.691,-5.838 -5.903,-5.838 -3.218,0 -5.841,2.688 -5.841,5.97"
         style="fill:#231f20;fill-opacity:1;fill-rule:nonzero;stroke:none"
         transform="matrix(1.3333333,0,0,-1.3333333,512.816,44.285333)" />
      <path
         id="path20"
         d="m 0,0 c -1.311,1.179 -2.555,2.163 -4.462,2.163 -1.636,0 -2.488,-0.984 -2.488,-2.429 0.129,-3.869 10.56,-3.081 10.56,-12.99 0,-6.562 -3.806,-11.614 -10.628,-11.614 -3.542,0 -7.221,1.509 -9.973,3.808 l 4.07,6.558 c 1.373,-1.179 2.753,-2.163 4.591,-2.163 1.439,0 2.692,1.047 2.692,2.755 0.127,4.394 -10.57,3.282 -10.57,13.78 0,6.297 5.255,9.708 11.09,9.708 3.347,0 6.167,-0.85 8.857,-2.819 L 0,0"
         style="fill:#231f20;fill-opacity:1;fill-rule:nonzero;stroke:none"
         transform="matrix(1.3333333,0,0,-1.3333333,542.38533,56.178667)" />
      <path
         id="path21"
         d="m 0,0 c -1.312,1.179 -2.555,2.163 -4.463,2.163 -1.636,0 -2.487,-0.984 -2.487,-2.429 0.127,-3.869 10.561,-3.081 10.561,-12.99 0,-6.562 -3.807,-11.614 -10.63,-11.614 -3.543,0 -7.221,1.509 -9.972,3.808 l 4.071,6.558 c 1.371,-1.179 2.75,-2.163 4.59,-2.163 1.44,0 2.691,1.047 2.691,2.755 0.129,4.394 -10.569,3.282 -10.569,13.78 0,6.297 5.255,9.708 11.089,9.708 3.347,0 6.166,-0.85 8.858,-2.819 L 0,0"
         style="fill:#231f20;fill-opacity:1;fill-rule:nonzero;stroke:none"
         transform="matrix(1.3333333,0,0,-1.3333333,576.58933,56.178667)" />
      <path
         id="path22"
         d="m 0,0 c 0,2.166 -0.46,6.101 -3.347,6.101 -2.819,0 -3.408,-3.806 -3.408,-5.907 V -0.788 H 0 Z M 7.809,-6.495 H -6.822 c 0.067,-2.427 -0.069,-7.678 3.475,-7.678 2.36,0 2.954,1.835 2.954,3.807 h 7.87 C 6.694,-16.469 3.738,-21.26 -3.016,-21.26 c -9.384,0 -12.731,8.335 -12.731,16.536 0,7.937 2.887,17.911 12.535,17.911 6.099,0 11.744,-5.446 11.217,-15.879 L 7.809,-6.495"
         style="fill:#231f20;fill-opacity:1;fill-rule:nonzero;stroke:none"
         transform="matrix(1.3333333,0,0,-1.3333333,608.78267,60.992)" />
    </g>
  </g>
</svg>
