<?xml version="1.0" encoding="UTF-8" standalone="no"?>
<!-- Created with Inkscape (http://www.inkscape.org/) -->

<svg
   version="1.1"
   id="svg1"
   width="1056.9333"
   height="131.91733"
   viewBox="0 0 1056.9333 131.91733"
   sodipodi:docname="Schweizerisches Rotes Kreuz.svg"
   inkscape:version="1.3.2 (091e20e, 2023-11-25, custom)"
   xmlns:inkscape="http://www.inkscape.org/namespaces/inkscape"
   xmlns:sodipodi="http://sodipodi.sourceforge.net/DTD/sodipodi-0.dtd"
   xmlns="http://www.w3.org/2000/svg"
   xmlns:svg="http://www.w3.org/2000/svg">
  <defs
     id="defs1">
    <clipPath
       clipPathUnits="userSpaceOnUse"
       id="clipPath29">
      <path
         d="M 0,98.939 H 792.7 V 0.06 H 0 Z"
         id="path29" />
    </clipPath>
  </defs>
  <sodipodi:namedview
     id="namedview1"
     pagecolor="#ffffff"
     bordercolor="#666666"
     borderopacity="1.0"
     inkscape:showpageshadow="2"
     inkscape:pageopacity="0.0"
     inkscape:pagecheckerboard="0"
     inkscape:deskcolor="#d1d1d1"
     inkscape:zoom="0.88463474"
     inkscape:cx="528.4667"
     inkscape:cy="66.128988"
     inkscape:window-width="1920"
     inkscape:window-height="1017"
     inkscape:window-x="-8"
     inkscape:window-y="-8"
     inkscape:window-maximized="1"
     inkscape:current-layer="g1">
    <inkscape:page
       x="0"
       y="0"
       inkscape:label="Page 1"
       id="page1"
       width="1056.9333"
       height="131.91733"
       margin="0"
       bleed="0" />
  </sodipodi:namedview>
  <g
     id="g1"
     inkscape:groupmode="layer"
     inkscape:label="Page 1">
    <g
       id="group-MC1">
      <path
         id="path2"
         d="m 0,0 c -1.96,1.7 -4.377,3.133 -7.057,3.133 -3.006,0 -4.902,-1.823 -4.902,-4.835 0,-8.101 14.835,-8.56 14.835,-21.89 0,-8.759 -5.032,-15.358 -14.182,-15.358 -2.744,0 -6.141,0.849 -8.363,2.485 v 9.279 c 2.285,-1.568 4.508,-2.614 7.384,-2.614 3.137,0 5.62,2.09 5.62,5.361 0,3.785 -3.005,5.223 -5.752,7.184 -5.62,3.792 -9.083,7.452 -9.083,14.641 0,7.775 4.509,14.51 12.875,14.51 3.137,0 5.947,-0.851 8.625,-2.422 L 0,0"
         style="fill:#231f20;fill-opacity:1;fill-rule:nonzero;stroke:none"
         transform="matrix(1.3333333,0,0,-1.3333333,28.666667,37.234667)" />
      <path
         id="path3"
         d="m 0,0 c -1.698,-0.785 -3.398,-1.174 -5.293,-1.174 -8.954,0 -12.091,9.41 -12.091,16.927 0,8.297 3.268,17.382 12.81,17.382 1.633,0 3.071,-0.326 4.574,-0.98 V 24.05 c -0.85,0.785 -1.569,1.047 -2.68,1.047 -4.509,0 -5.488,-5.424 -5.488,-8.823 0,-3.528 0.718,-8.821 5.358,-8.821 1.045,0 1.96,0.392 2.81,0.978 L 0,0"
         style="fill:#231f20;fill-opacity:1;fill-rule:nonzero;stroke:none"
         transform="matrix(1.3333333,0,0,-1.3333333,60.82,87.428)" />
      <path
         id="path4"
         d="m 0,0 v -24.834 h 0.131 c 1.241,3.14 4.051,5.752 7.645,5.752 6.798,0 6.208,-7.584 6.208,-12.352 V -52.739 H 4.769 v 18.102 c 0,1.703 0.656,6.275 -2.286,6.275 C 0.392,-28.362 0,-30.518 0,-32.153 V -52.739 H -9.215 V 0 H 0"
         style="fill:#231f20;fill-opacity:1;fill-rule:nonzero;stroke:none"
         transform="matrix(1.3333333,0,0,-1.3333333,78.16,17.805333)" />
      <path
         id="path5"
         d="m 0,0 4.445,-19.345 h 0.13 L 8.888,0 h 7.909 l 4.181,-19.345 h 0.132 l 0.653,3.53 L 25.684,0 h 8.757 l -9.149,-33.003 h -7.581 l -3.006,11.177 -1.962,9.54 H 12.614 L 10.718,-22.806 8.103,-33.003 H 0.392 L -8.954,0 H 0"
         style="fill:#231f20;fill-opacity:1;fill-rule:nonzero;stroke:none"
         transform="matrix(1.3333333,0,0,-1.3333333,113.01333,44.12)" />
      <path
         id="path6"
         d="m 0,0 c 0.524,10.392 -5.096,15.816 -11.175,15.816 -9.606,0 -12.482,-9.932 -12.482,-17.84 0,-8.169 3.333,-16.468 12.678,-16.468 6.731,0 9.672,4.771 10.458,10.848 h -7.843 c 0,-1.964 -0.588,-3.791 -2.942,-3.791 -3.529,0 -3.398,5.229 -3.462,7.647 h 14.572 z m -7.973,1.896 h -6.731 v 0.98 c 0,2.091 0.588,5.883 3.398,5.883 2.875,0 3.333,-3.923 3.333,-6.078 V 1.896"
         style="fill:#231f20;fill-opacity:1;fill-rule:nonzero;stroke:none"
         transform="matrix(1.3333333,0,0,-1.3333333,194.04933,64.336)" />
      <path
         id="path7"
         d="m 0,0 c 0,3.333 2.679,5.819 6.012,5.819 3.203,0 5.687,-2.811 5.687,-5.947 0,-3.138 -2.681,-5.819 -5.884,-5.819 C 2.614,-5.947 0,-3.266 0,0 Z m 1.241,-9.867 h 9.215 V -42.87 H 1.241 Z"
         style="fill:#231f20;fill-opacity:1;fill-rule:nonzero;stroke:none"
         transform="matrix(1.3333333,0,0,-1.3333333,197.62267,30.964)" />
      <path
         id="path8"
         d="m 0,0 -10.195,-25.355 h 9.084 v -7.648 h -22.088 l 10.456,25.357 h -9.411 V 0 L 0,0"
         style="fill:#231f20;fill-opacity:1;fill-rule:nonzero;stroke:none"
         transform="matrix(1.3333333,0,0,-1.3333333,247.464,44.12)" />
      <path
         id="path9"
         d="m 0,0 c 0.523,10.392 -5.099,15.816 -11.175,15.816 -9.607,0 -12.483,-9.932 -12.483,-17.84 0,-8.169 3.332,-16.468 12.678,-16.468 6.731,0 9.673,4.771 10.456,10.848 h -7.841 c 0,-1.964 -0.59,-3.791 -2.941,-3.791 -3.529,0 -3.398,5.229 -3.464,7.647 h 14.574 z m -7.973,1.896 h -6.731 v 0.98 c 0,2.091 0.588,5.883 3.398,5.883 2.875,0 3.333,-3.923 3.333,-6.078 V 1.896"
         style="fill:#231f20;fill-opacity:1;fill-rule:nonzero;stroke:none"
         transform="matrix(1.3333333,0,0,-1.3333333,283.27733,64.336)" />
      <path
         id="path10"
         d="M 0,0 V -3.986 H 0.131 C 1.829,-1.11 4.052,0.917 7.646,1.24 V -7.71 C 7.188,-7.646 6.732,-7.583 6.208,-7.583 0.065,-7.583 0,-11.634 0,-16.532 V -33.003 H -9.214 V 0 H 0"
         style="fill:#231f20;fill-opacity:1;fill-rule:nonzero;stroke:none"
         transform="matrix(1.3333333,0,0,-1.3333333,300.87733,44.12)" />
      <path
         id="path11"
         d="m 0,0 c 0,3.333 2.678,5.819 6.012,5.819 3.203,0 5.686,-2.811 5.686,-5.947 0,-3.138 -2.68,-5.819 -5.883,-5.819 C 2.613,-5.947 0,-3.266 0,0 Z m 1.24,-9.867 h 9.216 V -42.87 H 1.24 Z"
         style="fill:#231f20;fill-opacity:1;fill-rule:nonzero;stroke:none"
         transform="matrix(1.3333333,0,0,-1.3333333,314.296,30.964)" />
      <path
         id="path12"
         d="m 0,0 c -1.308,1.179 -2.549,2.158 -4.445,2.158 -1.633,0 -2.484,-0.979 -2.484,-2.418 0.132,-3.854 10.523,-3.071 10.523,-12.94 0,-6.536 -3.791,-11.566 -10.586,-11.566 -3.529,0 -7.189,1.501 -9.934,3.792 l 4.051,6.533 c 1.372,-1.176 2.745,-2.157 4.575,-2.157 1.438,0 2.68,1.045 2.68,2.745 0.13,4.376 -10.522,3.266 -10.522,13.726 0,6.273 5.229,9.67 11.044,9.67 3.334,0 6.144,-0.85 8.822,-2.808 L 0,0"
         style="fill:#231f20;fill-opacity:1;fill-rule:nonzero;stroke:none"
         transform="matrix(1.3333333,0,0,-1.3333333,356.38267,55.972)" />
      <path
         id="path13"
         d="m 0,0 c -1.7,-0.785 -3.399,-1.174 -5.294,-1.174 -8.954,0 -12.09,9.41 -12.09,16.927 0,8.297 3.268,17.382 12.809,17.382 1.633,0 3.071,-0.326 4.575,-0.98 L 0,24.05 c -0.851,0.785 -1.57,1.047 -2.681,1.047 -4.509,0 -5.488,-5.424 -5.488,-8.823 0,-3.528 0.718,-8.821 5.358,-8.821 1.047,0 1.96,0.392 2.811,0.978 L 0,0"
         style="fill:#231f20;fill-opacity:1;fill-rule:nonzero;stroke:none"
         transform="matrix(1.3333333,0,0,-1.3333333,389.408,87.428)" />
      <path
         id="path14"
         d="m 0,0 v -24.834 h 0.129 c 1.243,3.14 4.053,5.752 7.648,5.752 6.797,0 6.207,-7.584 6.207,-12.352 V -52.739 H 4.77 v 18.102 c 0,1.703 0.652,6.275 -2.287,6.275 C 0.393,-28.362 0,-30.518 0,-32.153 V -52.739 H -9.215 L -9.215,0 H 0"
         style="fill:#231f20;fill-opacity:1;fill-rule:nonzero;stroke:none"
         transform="matrix(1.3333333,0,0,-1.3333333,406.74667,17.805333)" />
      <path
         id="path15"
         d="m 0,0 c 0.524,10.392 -5.095,15.816 -11.174,15.816 -9.607,0 -12.482,-9.932 -12.482,-17.84 0,-8.169 3.333,-16.468 12.678,-16.468 6.731,0 9.672,4.771 10.457,10.848 h -7.843 c 0,-1.964 -0.587,-3.791 -2.942,-3.791 -3.528,0 -3.397,5.229 -3.462,7.647 h 14.573 z m -7.971,1.896 h -6.732 v 0.98 c 0,2.091 0.588,5.883 3.397,5.883 2.877,0 3.335,-3.923 3.335,-6.078 V 1.896"
         style="fill:#231f20;fill-opacity:1;fill-rule:nonzero;stroke:none"
         transform="matrix(1.3333333,0,0,-1.3333333,462.16267,64.336)" />
      <path
         id="path16"
         d="m 0,0 c -1.31,1.179 -2.548,2.158 -4.444,2.158 -1.633,0 -2.486,-0.979 -2.486,-2.418 0.132,-3.854 10.523,-3.071 10.523,-12.94 0,-6.536 -3.79,-11.566 -10.587,-11.566 -3.528,0 -7.188,1.501 -9.933,3.792 l 4.05,6.533 c 1.375,-1.176 2.747,-2.157 4.578,-2.157 1.437,0 2.676,1.045 2.676,2.745 0.132,4.376 -10.52,3.266 -10.52,13.726 0,6.273 5.228,9.67 11.045,9.67 3.334,0 6.143,-0.85 8.823,-2.808 L 0,0"
         style="fill:#231f20;fill-opacity:1;fill-rule:nonzero;stroke:none"
         transform="matrix(1.3333333,0,0,-1.3333333,489.61333,55.972)" />
      <path
         id="path17"
         d="M 0,0 V 22.743 H 0.131 L 8.689,0 h 10.262 l -8.558,22.417 c 4.834,2.681 6.993,7.321 6.993,12.742 0,13.463 -11.112,14.115 -17.319,14.115 H -9.738 L -9.738,0 Z m 0,41.242 h 1.306 c 4.903,0.258 6.605,-2.618 6.605,-6.146 0,-4.051 -1.766,-7.058 -6.21,-7.058 L 0,28.101 v 13.141"
         style="fill:#231f20;fill-opacity:1;fill-rule:nonzero;stroke:none"
         transform="matrix(1.3333333,0,0,-1.3333333,536.14133,88.124)" />
      <path
         id="path18"
         d="m 0,0 c -9.872,0 -12.547,-8.756 -12.547,-17.186 0,-8.432 2.675,-17.123 12.547,-17.123 9.869,0 12.545,8.691 12.545,17.123 C 12.545,-8.756 9.869,0 0,0 Z m 0,-8.3 c 3.201,0 3.334,-6.991 3.334,-8.886 0,-1.896 -0.133,-8.889 -3.334,-8.889 -3.203,0 -3.333,6.993 -3.333,8.889 0,1.895 0.13,8.886 3.333,8.886"
         style="fill:#231f20;fill-opacity:1;fill-rule:nonzero;stroke:none"
         transform="matrix(1.3333333,0,0,-1.3333333,583.72,43.248)" />
      <path
         id="path19"
         d="m 0,0 v -9.149 h 3.793 v -7.583 H 0 v -25.42 h -9.212 v 25.42 h -3.202 v 7.583 h 3.202 V 0 H 0"
         style="fill:#231f20;fill-opacity:1;fill-rule:nonzero;stroke:none"
         transform="matrix(1.3333333,0,0,-1.3333333,621.88133,31.921333)" />
      <path
         id="path20"
         d="m 0,0 c 0.523,10.392 -5.098,15.816 -11.176,15.816 -9.607,0 -12.482,-9.932 -12.482,-17.84 0,-8.169 3.334,-16.468 12.678,-16.468 6.73,0 9.67,4.771 10.455,10.848 h -7.843 c 0,-1.964 -0.585,-3.791 -2.941,-3.791 -3.527,0 -3.396,5.229 -3.463,7.647 h 14.573 z m -7.973,1.896 h -6.732 v 0.98 c 0,2.091 0.59,5.883 3.396,5.883 2.878,0 3.336,-3.923 3.336,-6.078 V 1.896"
         style="fill:#231f20;fill-opacity:1;fill-rule:nonzero;stroke:none"
         transform="matrix(1.3333333,0,0,-1.3333333,663.36267,64.336)" />
      <path
         id="path21"
         d="m 0,0 c -1.306,1.179 -2.549,2.158 -4.445,2.158 -1.634,0 -2.482,-0.979 -2.482,-2.418 0.132,-3.854 10.52,-3.071 10.52,-12.94 0,-6.536 -3.788,-11.566 -10.588,-11.566 -3.529,0 -7.188,1.501 -9.934,3.792 l 4.055,6.533 c 1.371,-1.176 2.745,-2.157 4.572,-2.157 1.438,0 2.681,1.045 2.681,2.745 0.132,4.376 -10.523,3.266 -10.523,13.726 0,6.273 5.23,9.67 11.045,9.67 3.334,0 6.141,-0.85 8.823,-2.808 L 0,0"
         style="fill:#231f20;fill-opacity:1;fill-rule:nonzero;stroke:none"
         transform="matrix(1.3333333,0,0,-1.3333333,690.80933,55.972)" />
      <path
         id="path22"
         d="M 0,0 V -22.021 H 0.129 L 8.235,0 h 9.933 L 9.083,-22.741 19.342,-49.274 H 9.083 L 0.129,-24.176 H 0 V -49.274 H -9.738 L -9.738,0 H 0"
         style="fill:#231f20;fill-opacity:1;fill-rule:nonzero;stroke:none"
         transform="matrix(1.3333333,0,0,-1.3333333,737.33867,22.426667)" />
      <path
         id="path23"
         d="M 0,0 V -3.986 H 0.13 C 1.828,-1.11 4.048,0.917 7.646,1.24 V -7.71 C 7.188,-7.646 6.731,-7.583 6.209,-7.583 0.064,-7.583 0,-11.634 0,-16.532 V -33.003 H -9.214 V 0 H 0"
         style="fill:#231f20;fill-opacity:1;fill-rule:nonzero;stroke:none"
         transform="matrix(1.3333333,0,0,-1.3333333,779.77467,44.12)" />
      <path
         id="path24"
         d="m 0,0 c 0.52,10.392 -5.099,15.816 -11.178,15.816 -9.605,0 -12.48,-9.932 -12.48,-17.84 0,-8.169 3.332,-16.468 12.676,-16.468 6.732,0 9.674,4.771 10.455,10.848 h -7.84 c 0,-1.964 -0.587,-3.791 -2.942,-3.791 -3.529,0 -3.398,5.229 -3.461,7.647 h 14.575 z m -7.977,1.896 h -6.73 v 0.98 c 0,2.091 0.59,5.883 3.398,5.883 2.875,0 3.332,-3.923 3.332,-6.078 V 1.896"
         style="fill:#231f20;fill-opacity:1;fill-rule:nonzero;stroke:none"
         transform="matrix(1.3333333,0,0,-1.3333333,825.696,64.336)" />
      <path
         id="path25"
         d="m 0,0 v -18.103 c 0,-1.828 -0.717,-6.924 2.354,-6.924 2.48,0 2.285,3.266 2.285,4.898 L 4.703,0 h 9.149 v -21.04 c 0,-7.649 -3.592,-12.614 -11.761,-12.614 -10.456,0 -11.304,7.842 -11.304,13.851 V 0 H 0"
         style="fill:#231f20;fill-opacity:1;fill-rule:nonzero;stroke:none"
         transform="matrix(1.3333333,0,0,-1.3333333,843.29467,44.12)" />
      <path
         id="path26"
         d="m 0,0 -10.196,-25.355 h 9.085 v -7.648 h -22.09 l 10.456,25.357 h -9.408 V 0 L 0,0"
         style="fill:#231f20;fill-opacity:1;fill-rule:nonzero;stroke:none"
         transform="matrix(1.3333333,0,0,-1.3333333,897.75467,44.12)" />
      <path
         id="path27"
         d="m 694.01,33.087 h 98.69 v 32.69 h -98.69 z"
         style="fill:#ed1c24;fill-opacity:1;fill-rule:nonzero;stroke:none"
         transform="matrix(1.3333333,0,0,-1.3333333,0,131.91733)" />
      <path
         id="path28"
         d="m 727.077,0.060001 h 32.431 v 98.879 h -32.431 z"
         style="fill:#ed1c24;fill-opacity:1;fill-rule:nonzero;stroke:none"
         transform="matrix(1.3333333,0,0,-1.3333333,0,131.91733)"
         clip-path="url(#clipPath29)" />
    </g>
  </g>
</svg>
