<?xml version="1.0" encoding="UTF-8" standalone="no"?>
<!-- Created with Inkscape (http://www.inkscape.org/) -->

<svg
   version="1.1"
   id="svg1"
   width="284.36667"
   height="56.693333"
   viewBox="0 0 284.36667 56.693333"
   sodipodi:docname="Swiss Red Cross_3langues.svg"
   inkscape:version="1.3.2 (091e20e, 2023-11-25, custom)"
   xmlns:inkscape="http://www.inkscape.org/namespaces/inkscape"
   xmlns:sodipodi="http://sodipodi.sourceforge.net/DTD/sodipodi-0.dtd"
   xmlns="http://www.w3.org/2000/svg"
   xmlns:svg="http://www.w3.org/2000/svg">
  <defs
     id="defs1">
    <clipPath
       clipPathUnits="userSpaceOnUse"
       id="clipPath8">
      <path
         d="M 0.059998,42.52 H 213.275 V 0.06 H 0.059998 Z"
         transform="translate(-54.930001,-4.0371004)"
         id="path8" />
    </clipPath>
    <clipPath
       clipPathUnits="userSpaceOnUse"
       id="clipPath26">
      <path
         d="M 0.059998,42.52 H 213.275 V 0.06 H 0.059998 Z"
         transform="translate(-5.0308001,-23.228)"
         id="path26" />
    </clipPath>
    <clipPath
       clipPathUnits="userSpaceOnUse"
       id="clipPath50">
      <path
         d="M 0.059998,42.52 H 213.275 V 0.06 H 0.059998 Z"
         transform="translate(-63.506002,-0.30559976)"
         id="path50" />
    </clipPath>
    <clipPath
       clipPathUnits="userSpaceOnUse"
       id="clipPath52">
      <path
         d="M 0.059998,42.52 H 213.275 V 0.06 H 0.059998 Z"
         transform="translate(-67.924001,-4.9852999)"
         id="path52" />
    </clipPath>
    <clipPath
       clipPathUnits="userSpaceOnUse"
       id="clipPath54">
      <path
         d="M 0.059998,42.52 H 213.275 V 0.06 H 0.059998 Z"
         transform="translate(-84.494005,-4.0371004)"
         id="path54" />
    </clipPath>
    <clipPath
       clipPathUnits="userSpaceOnUse"
       id="clipPath56">
      <path
         d="M 0.059998,42.52 H 213.275 V 0.06 H 0.059998 Z"
         transform="translate(-93.025,-5.8270999)"
         id="path56" />
    </clipPath>
    <clipPath
       clipPathUnits="userSpaceOnUse"
       id="clipPath58">
      <path
         d="M 0.059998,42.52 H 213.275 V 0.06 H 0.059998 Z"
         transform="translate(-98.775002,-5.8270999)"
         id="path58" />
    </clipPath>
    <clipPath
       clipPathUnits="userSpaceOnUse"
       id="clipPath60">
      <path
         d="M 0.059998,42.52 H 213.275 V 0.06 H 0.059998 Z"
         transform="translate(-104.202,-4.0819999)"
         id="path60" />
    </clipPath>
    <clipPath
       clipPathUnits="userSpaceOnUse"
       id="clipPath62">
      <path
         d="M 0.059998,42.52 H 213.275 V 0.06 H 0.059998 Z"
         transform="translate(-116.47701,-9.1142)"
         id="path62" />
    </clipPath>
    <clipPath
       clipPathUnits="userSpaceOnUse"
       id="clipPath68">
      <path
         d="M 0.059998,42.52 H 213.275 V 0.06 H 0.059998 Z"
         transform="translate(-143.64,-4.9852999)"
         id="path68" />
    </clipPath>
    <clipPath
       clipPathUnits="userSpaceOnUse"
       id="clipPath71">
      <path
         d="M 0.059998,42.52 H 213.275 V 0.06 H 0.059998 Z"
         transform="translate(-154.82001,-4.0819999)"
         id="path71" />
    </clipPath>
  </defs>
  <sodipodi:namedview
     id="namedview1"
     pagecolor="#ffffff"
     bordercolor="#666666"
     borderopacity="1.0"
     inkscape:showpageshadow="2"
     inkscape:pageopacity="0.0"
     inkscape:pagecheckerboard="0"
     inkscape:deskcolor="#d1d1d1"
     inkscape:export-bgcolor="#ffffffff"
     inkscape:zoom="3.2880084"
     inkscape:cx="142.18333"
     inkscape:cy="28.436667"
     inkscape:window-width="1920"
     inkscape:window-height="1017"
     inkscape:window-x="-8"
     inkscape:window-y="-8"
     inkscape:window-maximized="1"
     inkscape:current-layer="g1">
    <inkscape:page
       x="0"
       y="0"
       inkscape:label="1"
       id="page1"
       width="284.36667"
       height="56.693333"
       margin="0"
       bleed="0"
       inkscape:export-filename="Swiss Red Cross_3langues.png"
       inkscape:export-xdpi="300"
       inkscape:export-ydpi="300" />
  </sodipodi:namedview>
  <g
     id="g1"
     inkscape:groupmode="layer"
     inkscape:label="1">
    <g
       id="group-MC1">
      <path
         id="path2"
         d="m 0,0 c -0.291,0.076 -0.566,0.122 -0.856,0.122 -2.005,0 -2.874,-1.82 -2.874,-3.593 0,-1.714 0.869,-3.824 2.858,-3.824 0.292,0 0.581,0.076 0.872,0.169 v -2.157 c -0.336,-0.137 -0.689,-0.198 -1.055,-0.198 -3.287,0 -5.106,2.966 -5.106,5.995 0,2.86 1.895,5.795 5,5.795 0.397,0 0.778,-0.078 1.161,-0.215 L 0,0"
         style="fill:#231f20;fill-opacity:1;fill-rule:nonzero;stroke:none"
         transform="matrix(1.3333333,0,0,-1.3333333,78.142667,6.3386667)" />
      <path
         id="path3"
         d="M 0,0 V -0.933 H 0.031 C 0.429,-0.26 0.948,0.213 1.79,0.29 V -1.805 C 1.682,-1.79 1.575,-1.774 1.454,-1.774 0.017,-1.774 0,-2.722 0,-3.869 V -7.722 H -2.155 V 0 H 0"
         style="fill:#231f20;fill-opacity:1;fill-rule:nonzero;stroke:none"
         transform="matrix(1.3333333,0,0,-1.3333333,82.670667,8.52)" />
      <path
         id="path4"
         d="m 0,0 c 0,-0.443 0.03,-2.08 0.78,-2.08 0.748,0 0.779,1.637 0.779,2.08 0,0.443 -0.031,2.08 -0.779,2.08 C 0.03,2.08 0,0.443 0,0 Z m 3.715,0 c 0,-1.973 -0.626,-4.006 -2.935,-4.006 -2.309,0 -2.936,2.033 -2.936,4.006 0,1.972 0.627,4.022 2.936,4.022 2.309,0 2.935,-2.05 2.935,-4.022"
         style="fill:#231f20;fill-opacity:1;fill-rule:nonzero;stroke:none"
         transform="matrix(1.3333333,0,0,-1.3333333,88.44,13.678667)" />
      <path
         id="path5"
         d="m 0,0 c -0.289,0.0762 -0.565,0.1231 -0.855,0.1231 -2.003,0 -2.875,-1.8193 -2.875,-3.5947 0,-1.7129 0.872,-3.8233 2.859,-3.8233 0.291,0 0.582,0.0762 0.871,0.169 v -2.1563 c -0.336,-0.1377 -0.687,-0.1982 -1.055,-0.1982 -3.287,0 -5.107,2.9668 -5.107,5.9931 0,2.8604 1.896,5.7963 5,5.7963 0.398,0 0.78,-0.076 1.162,-0.214 V 0"
         style="fill:#231f20;fill-opacity:1;fill-rule:nonzero;stroke:none"
         transform="matrix(1.3333333,0,0,-1.3333333,62.94,43.969467)" />
      <path
         id="path6"
         d="m 0,0 v -0.9327 h 0.031 c 0.398,0.6748 0.918,1.1465 1.758,1.2246 V -1.8047 C 1.683,-1.7881 1.576,-1.7725 1.454,-1.7725 0.017,-1.7725 0,-2.7217 0,-3.8682 V -7.7207 H -2.155 V 0 H 0"
         style="fill:#231f20;fill-opacity:1;fill-rule:nonzero;stroke:none"
         transform="matrix(1.3333333,0,0,-1.3333333,67.468,46.152933)" />
      <path
         id="path7"
         d="m 0,0 c 0,-0.4424 0.029,-2.0781 0.777,-2.0781 0.75,0 0.781,1.6357 0.781,2.0781 0,0.4433 -0.031,2.0801 -0.781,2.0801 C 0.029,2.0801 0,0.4433 0,0 Z m 3.714,0 c 0,-1.9717 -0.628,-4.0059 -2.937,-4.0059 -2.31,0 -2.935,2.0342 -2.935,4.0059 0,1.9746 0.625,4.0225 2.935,4.0225 2.309,0 2.937,-2.0479 2.937,-4.0225"
         style="fill:#231f20;fill-opacity:1;fill-rule:nonzero;stroke:none"
         transform="matrix(1.3333333,0,0,-1.3333333,73.24,51.310533)"
         clip-path="url(#clipPath8)" />
      <path
         id="path9"
         d="M -2.155,0 H 2e-4 V -7.7222 H -2.155 Z M 0,0 Z m -2.447,2.309 c 0,0.779 0.628,1.361 1.408,1.361 0.748,0 1.33,-0.658 1.33,-1.392 0,-0.734 -0.627,-1.36 -1.376,-1.36 -0.75,0 -1.362,0.626 -1.362,1.391"
         style="fill:#231f20;fill-opacity:1;fill-rule:nonzero;stroke:none"
         transform="matrix(1.3333333,0,0,-1.3333333,97.492,8.52)" />
      <path
         id="path10"
         d="M 0,0 0.611,-1.178 0.839,-1.652 1.712,0 H 3.944 L 1.971,-3.563 4.251,-7.722 H 1.971 L 0.839,-5.597 -0.308,-7.722 H -2.523 L -0.308,-3.563 -2.233,0 H 0"
         style="fill:#231f20;fill-opacity:1;fill-rule:nonzero;stroke:none"
         transform="matrix(1.3333333,0,0,-1.3333333,102.02,8.52)" />
      <path
         id="path11"
         d="m 81.637,32.444 h 3.8242 v 2.0332 H 81.637 Z"
         style="fill:#231f20;fill-opacity:1;fill-rule:nonzero;stroke:none"
         transform="matrix(1.3333333,0,0,-1.3333333,0,56.693333)" />
      <path
         id="path12"
         d="m 0,0 0.397,-0.015 c 1.041,0 1.454,0.704 1.454,1.652 0,0.825 -0.397,1.499 -1.544,1.438 H 0 Z M -2.279,-6.574 V 4.955 h 2.296 c 1.453,0 4.051,-0.153 4.051,-3.303 0,-1.269 -0.504,-2.354 -1.636,-2.982 l 2.003,-5.244 h -2.4 L 0.031,-1.253 H 0 v -5.321 h -2.279"
         style="fill:#231f20;fill-opacity:1;fill-rule:nonzero;stroke:none"
         transform="matrix(1.3333333,0,0,-1.3333333,119.49733,10.050667)" />
      <path
         id="path13"
         d="m 0,0 c 0,-0.443 0.03,-2.08 0.778,-2.08 0.75,0 0.78,1.637 0.78,2.08 0,0.443 -0.03,2.08 -0.78,2.08 C 0.03,2.08 0,0.443 0,0 Z m 3.715,0 c 0,-1.973 -0.628,-4.006 -2.937,-4.006 -2.308,0 -2.936,2.033 -2.936,4.006 0,1.972 0.628,4.022 2.936,4.022 2.309,0 2.937,-2.05 2.937,-4.022"
         style="fill:#231f20;fill-opacity:1;fill-rule:nonzero;stroke:none"
         transform="matrix(1.3333333,0,0,-1.3333333,128.78533,13.678667)" />
      <path
         id="path14"
         d="m 0,0 0.396,-0.016 c 1.041,0 1.454,0.704 1.454,1.652 0,0.825 -0.399,1.498 -1.546,1.437 H 0 Z M -2.28,-6.576 V 4.955 h 2.294 c 1.453,0 4.053,-0.154 4.053,-3.304 0,-1.269 -0.506,-2.355 -1.636,-2.982 L 4.434,-6.576 H 2.032 L 0.03,-1.254 H 0 v -5.322 h -2.28"
         style="fill:#231f20;fill-opacity:1;fill-rule:nonzero;stroke:none"
         transform="matrix(1.3333333,0,0,-1.3333333,125.7,28.861333)" />
      <path
         id="path15"
         d="m 0,0 c 0,-0.442 0.031,-2.079 0.78,-2.079 0.75,0 0.78,1.637 0.78,2.079 0,0.445 -0.03,2.081 -0.78,2.081 C 0.031,2.081 0,0.445 0,0 Z m 3.717,0 c 0,-1.972 -0.628,-4.005 -2.937,-4.005 -2.309,0 -2.936,2.033 -2.936,4.005 0,1.974 0.627,4.022 2.936,4.022 2.309,0 2.937,-2.048 2.937,-4.022"
         style="fill:#231f20;fill-opacity:1;fill-rule:nonzero;stroke:none"
         transform="matrix(1.3333333,0,0,-1.3333333,134.98533,32.492)" />
      <path
         id="path16"
         d="m 0,0 v -4.236 c 0,-0.429 -0.169,-1.621 0.549,-1.621 0.581,0 0.535,0.765 0.535,1.147 L 1.099,0 h 2.142 v -4.924 c 0,-1.789 -0.841,-2.951 -2.752,-2.951 -2.448,0 -2.647,1.834 -2.647,3.241 V 0 H 0"
         style="fill:#231f20;fill-opacity:1;fill-rule:nonzero;stroke:none"
         transform="matrix(1.3333333,0,0,-1.3333333,137.85867,8.52)" />
      <path
         id="path17"
         d="m 0,0 c 0,0.427 -0.031,2.064 -0.764,2.064 -0.734,0 -0.78,-1.621 -0.78,-2.064 0,-0.49 0.03,-2.08 0.811,-2.08 C -0.045,-2.08 0,-0.413 0,0 Z m -1.712,-4.924 c 0.029,-0.49 0.168,-1.101 0.779,-1.101 0.964,0 0.827,1.452 0.827,2.11 v 0.978 h -0.031 c -0.291,-0.565 -0.643,-1.115 -1.392,-1.115 -0.795,0 -1.33,0.626 -1.667,1.284 -0.383,0.764 -0.504,1.758 -0.504,2.615 0,1.345 0.244,4.128 2.079,4.128 0.719,0 1.238,-0.474 1.484,-1.085 h 0.031 V 3.823 H 2.05 v -8.396 c 0,-2.262 -1.009,-3.164 -2.89,-3.164 -1.837,0 -2.677,1.053 -2.784,2.813 h 1.912"
         style="fill:#231f20;fill-opacity:1;fill-rule:nonzero;stroke:none"
         transform="matrix(1.3333333,0,0,-1.3333333,148.35733,13.617333)" />
      <path
         id="path18"
         d="m 0,0 c 0,0.505 -0.106,1.422 -0.779,1.422 -0.658,0 -0.795,-0.887 -0.795,-1.376 v -0.23 H 0 Z m 1.82,-1.514 h -3.41 c 0.016,-0.565 -0.015,-1.789 0.811,-1.789 0.551,0 0.688,0.428 0.688,0.887 h 1.835 c -0.183,-1.423 -0.871,-2.538 -2.447,-2.538 -2.188,0 -2.966,1.941 -2.966,3.853 0,1.85 0.672,4.174 2.92,4.174 1.424,0 2.738,-1.269 2.616,-3.7 L 1.82,-1.514"
         style="fill:#231f20;fill-opacity:1;fill-rule:nonzero;stroke:none"
         transform="matrix(1.3333333,0,0,-1.3333333,157.22533,12.414667)" />
      <path
         id="path19"
         d="m 0,0 c -0.307,0.275 -0.598,0.505 -1.042,0.505 -0.381,0 -0.581,-0.23 -0.581,-0.567 0.032,-0.901 2.463,-0.717 2.463,-3.027 0,-1.53 -0.886,-2.706 -2.478,-2.706 -0.824,0 -1.681,0.352 -2.324,0.886 l 0.949,1.53 c 0.321,-0.276 0.643,-0.506 1.071,-0.506 0.335,0 0.625,0.246 0.625,0.643 0.031,1.025 -2.461,0.764 -2.461,3.212 0,1.468 1.224,2.262 2.584,2.262 0.781,0 1.439,-0.198 2.064,-0.657 L 0,0"
         style="fill:#231f20;fill-opacity:1;fill-rule:nonzero;stroke:none"
         transform="matrix(1.3333333,0,0,-1.3333333,171.2,11.293333)" />
      <path
         id="path20"
         d="m 0,0 v -4.236 c 0,-0.429 -0.168,-1.621 0.551,-1.621 0.582,0 0.535,0.765 0.535,1.147 L 1.102,0 h 2.141 v -4.924 c 0,-1.789 -0.842,-2.951 -2.753,-2.951 -2.447,0 -2.646,1.834 -2.646,3.241 l 0,4.634 H 0"
         style="fill:#231f20;fill-opacity:1;fill-rule:nonzero;stroke:none"
         transform="matrix(1.3333333,0,0,-1.3333333,176.56,8.52)" />
      <path
         id="path21"
         d="M -2.155,0 H 0 V -7.7222 H -2.155 Z M 0,0 Z m -2.447,2.309 c 0,0.779 0.629,1.361 1.407,1.361 0.749,0 1.331,-0.658 1.331,-1.392 0,-0.734 -0.627,-1.36 -1.376,-1.36 -0.75,0 -1.362,0.626 -1.362,1.391"
         style="fill:#231f20;fill-opacity:1;fill-rule:nonzero;stroke:none"
         transform="matrix(1.3333333,0,0,-1.3333333,185.5,8.52)" />
      <path
         id="path22"
         d="m 0,0 c -0.305,0.275 -0.596,0.505 -1.038,0.505 -0.383,0 -0.582,-0.23 -0.582,-0.567 0.031,-0.901 2.463,-0.717 2.463,-3.027 0,-1.53 -0.888,-2.706 -2.478,-2.706 -0.826,0 -1.683,0.352 -2.324,0.886 l 0.948,1.53 c 0.32,-0.276 0.642,-0.506 1.071,-0.506 0.335,0 0.626,0.246 0.626,0.643 0.03,1.025 -2.462,0.764 -2.462,3.212 0,1.468 1.224,2.262 2.585,2.262 0.779,0 1.438,-0.198 2.064,-0.657 L 0,0"
         style="fill:#231f20;fill-opacity:1;fill-rule:nonzero;stroke:none"
         transform="matrix(1.3333333,0,0,-1.3333333,192.08533,11.293333)" />
      <path
         id="path23"
         d="m 0,0 c -0.307,0.275 -0.597,0.505 -1.041,0.505 -0.381,0 -0.58,-0.23 -0.58,-0.567 0.031,-0.901 2.463,-0.717 2.463,-3.027 0,-1.53 -0.888,-2.706 -2.478,-2.706 -0.826,0 -1.681,0.352 -2.325,0.886 l 0.948,1.53 c 0.322,-0.276 0.642,-0.506 1.072,-0.506 0.335,0 0.626,0.246 0.626,0.643 0.029,1.025 -2.462,0.764 -2.462,3.212 0,1.468 1.224,2.262 2.584,2.262 0.78,0 1.437,-0.198 2.066,-0.657 L 0,0"
         style="fill:#231f20;fill-opacity:1;fill-rule:nonzero;stroke:none"
         transform="matrix(1.3333333,0,0,-1.3333333,199.75333,11.293333)" />
      <path
         id="path24"
         d="m 0,0 c 0,0.505 -0.106,1.422 -0.778,1.422 -0.658,0 -0.797,-0.887 -0.797,-1.376 v -0.23 H 0 Z M 1.822,-1.514 H -1.59 c 0.015,-0.565 -0.015,-1.789 0.812,-1.789 0.55,0 0.688,0.428 0.688,0.887 H 1.745 C 1.56,-3.839 0.872,-4.954 -0.702,-4.954 c -2.186,0 -2.968,1.941 -2.968,3.853 0,1.85 0.674,4.174 2.921,4.174 1.423,0 2.738,-1.269 2.617,-3.7 L 1.822,-1.514"
         style="fill:#231f20;fill-opacity:1;fill-rule:nonzero;stroke:none"
         transform="matrix(1.3333333,0,0,-1.3333333,206.81467,12.414667)" />
      <path
         id="path25"
         d="m 0,0 c -0.459,0.398 -1.0244,0.734 -1.6514,0.734 -0.7036,0 -1.1469,-0.428 -1.1469,-1.132 0,-1.895 3.4712,-2.003 3.4712,-5.122 0,-2.05 -1.1773,-3.594 -3.3179,-3.594 -0.6426,0 -1.438,0.199 -1.9575,0.581 v 2.172 c 0.5346,-0.367 1.0556,-0.612 1.728,-0.612 0.7344,0 1.3144,0.489 1.3144,1.254 0,0.887 -0.7031,1.223 -1.3447,1.682 -1.3159,0.888 -2.126,1.744 -2.126,3.426 0,1.819 1.0547,3.394 3.0132,3.394 0.7334,0 1.3911,-0.199 2.0176,-0.566 L 0,0"
         style="fill:#231f20;fill-opacity:1;fill-rule:nonzero;stroke:none"
         transform="matrix(1.3333333,0,0,-1.3333333,6.7077333,25.722667)"
         clip-path="url(#clipPath26)" />
      <path
         id="path27"
         d="m 0,0 c -0.397,-0.183 -0.7949,-0.275 -1.2382,-0.275 -2.0948,0 -2.8286,2.202 -2.8286,3.961 0,1.942 0.7636,4.067 2.997,4.067 C -0.6879,7.753 -0.351,7.677 0,7.524 V 5.628 c -0.199,0.183 -0.367,0.244 -0.6264,0.244 -1.0552,0 -1.2852,-1.27 -1.2852,-2.065 0,-0.825 0.1685,-2.063 1.2549,-2.063 0.2437,0 0.4577,0.091 0.6567,0.229 L 0,0"
         style="fill:#231f20;fill-opacity:1;fill-rule:nonzero;stroke:none"
         transform="matrix(1.3333333,0,0,-1.3333333,14.164,37.466667)" />
      <path
         id="path28"
         d="m 0,0 v -5.811 h 0.031 c 0.289,0.734 0.948,1.346 1.788,1.346 1.591,0 1.452,-1.774 1.452,-2.89 v -4.986 H 1.116 v 4.236 c 0,0.398 0.153,1.469 -0.535,1.469 C 0.091,-6.636 0,-7.141 0,-7.523 v -4.818 H -2.157 V 0 H 0"
         style="fill:#231f20;fill-opacity:1;fill-rule:nonzero;stroke:none"
         transform="matrix(1.3333333,0,0,-1.3333333,18.758667,21.174667)" />
      <path
         id="path29"
         d="M 0,0 1.04,-4.526 H 1.07 L 2.079,0 H 3.93 L 4.908,-4.526 H 4.939 L 5.092,-3.701 6.01,0 H 8.058 L 5.917,-7.723 H 4.144 L 3.44,-5.107 2.981,-2.875 H 2.952 L 2.508,-5.337 1.896,-7.723 H 0.091 L -2.096,0 H 0"
         style="fill:#231f20;fill-opacity:1;fill-rule:nonzero;stroke:none"
         transform="matrix(1.3333333,0,0,-1.3333333,26.848,27.332)" />
      <path
         id="path30"
         d="m 0,0 c 0,0.505 -0.107,1.422 -0.78,1.422 -0.658,0 -0.795,-0.886 -0.795,-1.376 V -0.183 H 0 Z m 1.82,-1.514 h -3.411 c 0.016,-0.565 -0.015,-1.789 0.811,-1.789 0.55,0 0.688,0.429 0.688,0.887 h 1.835 c -0.184,-1.422 -0.872,-2.538 -2.447,-2.538 -2.187,0 -2.966,1.942 -2.966,3.853 0,1.851 0.672,4.175 2.92,4.175 1.422,0 2.737,-1.269 2.615,-3.7 L 1.82,-1.514"
         style="fill:#231f20;fill-opacity:1;fill-rule:nonzero;stroke:none"
         transform="matrix(1.3333333,0,0,-1.3333333,42.918667,31.226667)" />
      <path
         id="path31"
         d="M -2.156,0 H 2e-4 V -7.7227 H -2.156 Z M 0,0 Z m -2.446,2.309 c 0,0.78 0.626,1.361 1.406,1.361 0.749,0 1.33,-0.657 1.33,-1.392 0,-0.733 -0.626,-1.36 -1.375,-1.36 -0.75,0 -1.361,0.627 -1.361,1.391"
         style="fill:#231f20;fill-opacity:1;fill-rule:nonzero;stroke:none"
         transform="matrix(1.3333333,0,0,-1.3333333,49.504,27.332)" />
      <path
         id="path32"
         d="m 0,0 -2.386,-5.933 h 2.126 v -1.79 h -5.169 l 2.447,5.934 H -5.184 V 0 L 0,0"
         style="fill:#231f20;fill-opacity:1;fill-rule:nonzero;stroke:none"
         transform="matrix(1.3333333,0,0,-1.3333333,58.038667,27.332)" />
      <path
         id="path33"
         d="m 0,0 c 0,0.505 -0.106,1.422 -0.78,1.422 -0.658,0 -0.795,-0.886 -0.795,-1.376 V -0.183 H 0 Z M 1.821,-1.514 H -1.59 c 0.015,-0.565 -0.016,-1.789 0.81,-1.789 0.552,0 0.689,0.429 0.689,0.887 h 1.834 c -0.184,-1.422 -0.872,-2.538 -2.447,-2.538 -2.186,0 -2.967,1.942 -2.967,3.853 0,1.851 0.674,4.175 2.922,4.175 1.421,0 2.738,-1.269 2.614,-3.7 L 1.821,-1.514"
         style="fill:#231f20;fill-opacity:1;fill-rule:nonzero;stroke:none"
         transform="matrix(1.3333333,0,0,-1.3333333,63.662667,31.226667)" />
      <path
         id="path34"
         d="M 0,0 V -0.933 H 0.031 C 0.428,-0.26 0.948,0.214 1.789,0.29 V -1.804 C 1.681,-1.789 1.576,-1.774 1.452,-1.774 0.016,-1.774 0,-2.722 0,-3.869 V -7.723 H -2.156 V 0 L 0,0"
         style="fill:#231f20;fill-opacity:1;fill-rule:nonzero;stroke:none"
         transform="matrix(1.3333333,0,0,-1.3333333,70.268,27.332)" />
      <path
         id="path35"
         d="M -2.157,0 H 2e-4 V -7.7227 H -2.157 Z M 0,0 Z m -2.447,2.309 c 0,0.78 0.627,1.361 1.407,1.361 0.748,0 1.329,-0.657 1.329,-1.392 0,-0.733 -0.626,-1.36 -1.376,-1.36 -0.75,0 -1.36,0.627 -1.36,1.391"
         style="fill:#231f20;fill-opacity:1;fill-rule:nonzero;stroke:none"
         transform="matrix(1.3333333,0,0,-1.3333333,76.670667,27.332)" />
      <path
         id="path36"
         d="m 0,0 c -0.306,0.276 -0.596,0.504 -1.039,0.504 -0.384,0 -0.582,-0.228 -0.582,-0.566 0.031,-0.901 2.461,-0.719 2.461,-3.028 0,-1.528 -0.885,-2.705 -2.477,-2.705 -0.824,0 -1.682,0.351 -2.323,0.887 l 0.948,1.529 c 0.321,-0.276 0.642,-0.505 1.07,-0.505 0.337,0 0.626,0.245 0.626,0.642 0.031,1.025 -2.46,0.765 -2.46,3.211 0,1.468 1.223,2.263 2.584,2.263 0.779,0 1.436,-0.198 2.064,-0.657 L 0,0"
         style="fill:#231f20;fill-opacity:1;fill-rule:nonzero;stroke:none"
         transform="matrix(1.3333333,0,0,-1.3333333,83.254667,30.105333)" />
      <path
         id="path37"
         d="m 0,0 c -0.398,-0.183 -0.795,-0.275 -1.239,-0.275 -2.095,0 -2.828,2.202 -2.828,3.961 0,1.942 0.764,4.067 2.996,4.067 0.383,0 0.719,-0.076 1.071,-0.229 L 0,5.628 c -0.198,0.183 -0.367,0.244 -0.628,0.244 -1.054,0 -1.284,-1.27 -1.284,-2.065 0,-0.825 0.169,-2.063 1.255,-2.063 0.243,0 0.459,0.091 0.657,0.229 V 0"
         style="fill:#231f20;fill-opacity:1;fill-rule:nonzero;stroke:none"
         transform="matrix(1.3333333,0,0,-1.3333333,90.848,37.466667)" />
      <path
         id="path38"
         d="m 0,0 v -5.811 h 0.031 c 0.291,0.734 0.949,1.346 1.789,1.346 1.592,0 1.453,-1.774 1.453,-2.89 v -4.986 H 1.117 v 4.236 c 0,0.398 0.152,1.469 -0.535,1.469 C 0.092,-6.636 0,-7.141 0,-7.523 v -4.818 H -2.155 V 0 H 0"
         style="fill:#231f20;fill-opacity:1;fill-rule:nonzero;stroke:none"
         transform="matrix(1.3333333,0,0,-1.3333333,94.904,21.174667)" />
      <path
         id="path39"
         d="m 0,0 c 0,0.505 -0.109,1.422 -0.78,1.422 -0.659,0 -0.797,-0.886 -0.797,-1.376 V -0.183 H 0 Z m 1.818,-1.514 h -3.409 c 0.014,-0.565 -0.015,-1.789 0.811,-1.789 0.55,0 0.688,0.429 0.688,0.887 H 1.743 C 1.559,-3.838 0.87,-4.954 -0.706,-4.954 c -2.185,0 -2.965,1.942 -2.965,3.853 0,1.851 0.673,4.175 2.921,4.175 1.421,0 2.737,-1.269 2.614,-3.7 L 1.818,-1.514"
         style="fill:#231f20;fill-opacity:1;fill-rule:nonzero;stroke:none"
         transform="matrix(1.3333333,0,0,-1.3333333,105.78933,31.226667)" />
      <path
         id="path40"
         d="m 0,0 c -0.306,0.276 -0.596,0.504 -1.042,0.504 -0.38,0 -0.579,-0.228 -0.579,-0.566 0.031,-0.901 2.46,-0.719 2.46,-3.028 0,-1.528 -0.885,-2.705 -2.476,-2.705 -0.825,0 -1.682,0.351 -2.324,0.887 l 0.948,1.529 c 0.321,-0.276 0.642,-0.505 1.07,-0.505 0.337,0 0.627,0.245 0.627,0.642 0.031,1.025 -2.462,0.765 -2.462,3.211 0,1.468 1.223,2.263 2.584,2.263 0.781,0 1.437,-0.198 2.065,-0.657 L 0,0"
         style="fill:#231f20;fill-opacity:1;fill-rule:nonzero;stroke:none"
         transform="matrix(1.3333333,0,0,-1.3333333,114.564,30.105333)" />
      <path
         id="path41"
         d="M 0,0 V -2.141 H 0.887 V -3.915 H 0 v -5.949 h -2.156 v 5.949 h -0.749 v 1.774 h 0.749 V 0 L 0,0"
         style="fill:#231f20;fill-opacity:1;fill-rule:nonzero;stroke:none"
         transform="matrix(1.3333333,0,0,-1.3333333,144.88933,24.477333)" />
      <path
         id="path42"
         d="m 0,0 c 0,0.505 -0.105,1.422 -0.781,1.422 -0.656,0 -0.794,-0.886 -0.794,-1.376 V -0.183 H 0 Z m 1.821,-1.514 h -3.412 c 0.016,-0.565 -0.015,-1.789 0.81,-1.789 0.552,0 0.69,0.429 0.69,0.887 H 1.744 C 1.56,-3.838 0.872,-4.954 -0.703,-4.954 c -2.187,0 -2.967,1.942 -2.967,3.853 0,1.851 0.673,4.175 2.92,4.175 1.422,0 2.738,-1.269 2.615,-3.7 L 1.821,-1.514"
         style="fill:#231f20;fill-opacity:1;fill-rule:nonzero;stroke:none"
         transform="matrix(1.3333333,0,0,-1.3333333,151.972,31.226667)" />
      <path
         id="path43"
         d="m 0,0 c -0.307,0.276 -0.597,0.504 -1.041,0.504 -0.383,0 -0.581,-0.228 -0.581,-0.566 0.03,-0.901 2.462,-0.719 2.462,-3.028 0,-1.528 -0.886,-2.705 -2.476,-2.705 -0.827,0 -1.684,0.351 -2.326,0.887 l 0.949,1.529 c 0.321,-0.276 0.643,-0.505 1.071,-0.505 0.335,0 0.625,0.245 0.625,0.642 0.031,1.025 -2.46,0.765 -2.46,3.211 0,1.468 1.224,2.263 2.584,2.263 0.779,0 1.437,-0.198 2.063,-0.657 L 0,0"
         style="fill:#231f20;fill-opacity:1;fill-rule:nonzero;stroke:none"
         transform="matrix(1.3333333,0,0,-1.3333333,160.88267,30.105333)" />
      <path
         id="path44"
         d="M 0,0 V -5.153 H 0.03 L 1.928,0 h 2.323 l -2.127,-5.321 2.403,-6.21 H 2.124 L 0.03,-5.659 H 0 v -5.872 H -2.279 L -2.279,0 H 0"
         style="fill:#231f20;fill-opacity:1;fill-rule:nonzero;stroke:none"
         transform="matrix(1.3333333,0,0,-1.3333333,172.03867,22.254667)" />
      <path
         id="path45"
         d="M 0,0 V -0.933 H 0.03 C 0.428,-0.26 0.948,0.214 1.789,0.29 V -1.804 C 1.683,-1.789 1.577,-1.774 1.453,-1.774 0.016,-1.774 0,-2.722 0,-3.869 V -7.723 H -2.157 V 0 L 0,0"
         style="fill:#231f20;fill-opacity:1;fill-rule:nonzero;stroke:none"
         transform="matrix(1.3333333,0,0,-1.3333333,182.10133,27.332)" />
      <path
         id="path46"
         d="m 0,0 c 0,0.505 -0.107,1.422 -0.779,1.422 -0.658,0 -0.796,-0.886 -0.796,-1.376 V -0.183 H 0 Z m 1.82,-1.514 h -3.41 c 0.015,-0.565 -0.015,-1.789 0.811,-1.789 0.551,0 0.688,0.429 0.688,0.887 H 1.744 C 1.56,-3.838 0.872,-4.954 -0.703,-4.954 c -2.188,0 -2.968,1.942 -2.968,3.853 0,1.851 0.675,4.175 2.923,4.175 1.421,0 2.738,-1.269 2.614,-3.7 L 1.82,-1.514"
         style="fill:#231f20;fill-opacity:1;fill-rule:nonzero;stroke:none"
         transform="matrix(1.3333333,0,0,-1.3333333,190.02267,31.226667)" />
      <path
         id="path47"
         d="m 0,0 v -4.236 c 0,-0.428 -0.169,-1.621 0.55,-1.621 0.579,0 0.534,0.765 0.534,1.147 L 1.1,0 h 2.139 v -4.923 c 0,-1.79 -0.84,-2.952 -2.752,-2.952 -2.447,0 -2.645,1.834 -2.645,3.241 V 0 H 0"
         style="fill:#231f20;fill-opacity:1;fill-rule:nonzero;stroke:none"
         transform="matrix(1.3333333,0,0,-1.3333333,196.69867,27.332)" />
      <path
         id="path48"
         d="m 0,0 -2.385,-5.933 h 2.126 v -1.79 h -5.17 l 2.447,5.934 h -2.2 V 0 L 0,0"
         style="fill:#231f20;fill-opacity:1;fill-rule:nonzero;stroke:none"
         transform="matrix(1.3333333,0,0,-1.3333333,209.43867,27.332)" />
      <path
         id="path49"
         d="m 0,0 c -0.398,-0.1826 -0.796,-0.2744 -1.239,-0.2744 -2.095,0 -2.828,2.2032 -2.828,3.9619 0,1.9405 0.763,4.0665 2.997,4.0665 0.381,0 0.717,-0.0762 1.07,-0.2295 L 0,5.628 c -0.199,0.1836 -0.367,0.2451 -0.626,0.2451 -1.057,0 -1.285,-1.2705 -1.285,-2.0654 0,-0.8262 0.168,-2.0635 1.253,-2.0635 0.244,0 0.459,0.0918 0.658,0.2295 L 0,0"
         style="fill:#231f20;fill-opacity:1;fill-rule:nonzero;stroke:none"
         transform="matrix(1.3333333,0,0,-1.3333333,84.674667,56.285867)"
         clip-path="url(#clipPath50)" />
      <path
         id="path51"
         d="m 0,0 c 0,0.5049 -0.106,1.4229 -0.778,1.4229 -0.659,0 -0.797,-0.8867 -0.797,-1.376 V -0.1826 H 0 Z m 1.82,-1.5117 h -3.409 c 0.014,-0.5664 -0.017,-1.791 0.811,-1.791 0.549,0 0.687,0.4277 0.687,0.8857 h 1.835 c -0.183,-1.4199 -0.872,-2.5371 -2.446,-2.5371 -2.188,0 -2.966,1.9414 -2.966,3.8526 0,1.8515 0.672,4.1758 2.92,4.1758 1.422,0 2.737,-1.2696 2.616,-3.7012 L 1.82,-1.5117"
         style="fill:#231f20;fill-opacity:1;fill-rule:nonzero;stroke:none"
         transform="matrix(1.3333333,0,0,-1.3333333,90.565333,50.046267)"
         clip-path="url(#clipPath52)" />
      <path
         id="path53"
         d="M 0,0 C 0,-0.4424 0.03,-2.0781 0.779,-2.0781 1.528,-2.0781 1.56,-0.4424 1.56,0 1.56,0.4433 1.528,2.0801 0.779,2.0801 0.03,2.0801 0,0.4433 0,0 Z m 3.714,0 c 0,-1.9717 -0.627,-4.0059 -2.935,-4.0059 -2.309,0 -2.936,2.0342 -2.936,4.0059 0,1.9746 0.627,4.0225 2.936,4.0225 2.308,0 2.935,-2.0479 2.935,-4.0225"
         style="fill:#231f20;fill-opacity:1;fill-rule:nonzero;stroke:none"
         transform="matrix(1.3333333,0,0,-1.3333333,112.65867,51.310533)"
         clip-path="url(#clipPath54)" />
      <path
         id="path55"
         d="m 0,0 c -0.306,0.2735 -0.597,0.5049 -1.04,0.5049 -0.381,0 -0.582,-0.2314 -0.582,-0.5664 0.033,-0.9023 2.463,-0.7178 2.463,-3.0283 0,-1.5283 -0.888,-2.7061 -2.477,-2.7061 -0.826,0 -1.682,0.3516 -2.324,0.8877 l 0.947,1.5293 c 0.32,-0.2754 0.642,-0.5049 1.071,-0.5049 0.336,0 0.627,0.2442 0.627,0.6426 0.03,1.0244 -2.462,0.7637 -2.462,3.21 0,1.4687 1.224,2.2637 2.584,2.2637 0.78,0 1.438,-0.1983 2.064,-0.6573 L 0,0"
         style="fill:#231f20;fill-opacity:1;fill-rule:nonzero;stroke:none"
         transform="matrix(1.3333333,0,0,-1.3333333,124.03333,48.923867)"
         clip-path="url(#clipPath56)" />
      <path
         id="path57"
         d="m 0,0 c -0.306,0.2735 -0.596,0.5049 -1.041,0.5049 -0.382,0 -0.58,-0.2314 -0.58,-0.5664 0.03,-0.9023 2.462,-0.7178 2.462,-3.0283 0,-1.5283 -0.886,-2.7061 -2.478,-2.7061 -0.825,0 -1.682,0.3516 -2.323,0.8877 l 0.947,1.5293 c 0.32,-0.2754 0.643,-0.5049 1.071,-0.5049 0.336,0 0.627,0.2442 0.627,0.6426 0.029,1.0244 -2.463,0.7637 -2.463,3.21 0,1.4687 1.225,2.2637 2.585,2.2637 0.78,0 1.438,-0.1983 2.065,-0.6573 L 0,0"
         style="fill:#231f20;fill-opacity:1;fill-rule:nonzero;stroke:none"
         transform="matrix(1.3333333,0,0,-1.3333333,131.7,48.923867)"
         clip-path="url(#clipPath58)" />
      <path
         id="path59"
         d="m 0,0 c 0,0.4297 -0.043,2.0654 -0.778,2.0654 -0.719,0 -0.765,-1.6201 -0.765,-2.0654 0,-0.4873 0.032,-2.0791 0.795,-2.0791 C -0.058,-2.0791 0,-0.4121 0,0 Z m -0.151,-3.0244 h -0.03 c -0.291,-0.583 -0.735,-1.0264 -1.423,-1.0264 -1.743,0 -2.095,2.7823 -2.095,4.0215 0,1.3311 0.261,4.0069 2.065,4.0069 0.718,0 1.209,-0.4747 1.453,-1.1016 h 0.03 v 0.9473 h 2.155 v -7.7207 h -2.155 v 0.873"
         style="fill:#231f20;fill-opacity:1;fill-rule:nonzero;stroke:none"
         transform="matrix(1.3333333,0,0,-1.3333333,138.936,51.250667)"
         clip-path="url(#clipPath60)" />
      <path
         id="path61"
         d="m 0,0 c -0.458,0.3985 -1.024,0.7344 -1.652,0.7344 -0.703,0 -1.145,-0.4277 -1.145,-1.1318 0,-1.8975 3.469,-2.0039 3.469,-5.1221 0,-2.0498 -1.176,-3.5947 -3.316,-3.5947 -0.644,0 -1.439,0.2002 -1.958,0.583 v 2.1699 c 0.534,-0.3672 1.055,-0.6113 1.727,-0.6113 0.734,0 1.316,0.4892 1.316,1.2549 0,0.8857 -0.705,1.2216 -1.347,1.6806 -1.315,0.8877 -2.124,1.7422 -2.124,3.4248 0,1.8203 1.055,3.3963 3.01,3.3963 0.734,0 1.393,-0.199 2.02,-0.565 L 0,0"
         style="fill:#231f20;fill-opacity:1;fill-rule:nonzero;stroke:none"
         transform="matrix(1.3333333,0,0,-1.3333333,155.30267,44.541067)"
         clip-path="url(#clipPath62)" />
      <path
         id="path63"
         d="M 0,0 1.026,-4.2354 1.04,-4.3555 h 0.031 l 0.168,0.793 0.077,0.3222 L 2.08,0 H 4.312 L 2.08,-7.7207 H 0.077 L -2.14,0 H 0"
         style="fill:#231f20;fill-opacity:1;fill-rule:nonzero;stroke:none"
         transform="matrix(1.3333333,0,0,-1.3333333,159.428,46.152933)" />
      <path
         id="path64"
         d="M -2.154,0 H 0 V -7.7207 H -2.154 Z M 0,0 Z m -2.447,2.31 c 0,0.78 0.629,1.36 1.408,1.36 0.749,0 1.33,-0.656 1.33,-1.391 0,-0.7331 -0.626,-1.3601 -1.377,-1.3601 -0.749,0 -1.361,0.627 -1.361,1.3911"
         style="fill:#231f20;fill-opacity:1;fill-rule:nonzero;stroke:none"
         transform="matrix(1.3333333,0,0,-1.3333333,169.32,46.152933)" />
      <path
         id="path65"
         d="m 0,0 -2.387,-5.9327 h 2.125 v -1.788 h -5.167 l 2.446,5.9326 H -5.186 V 0 H 0"
         style="fill:#231f20;fill-opacity:1;fill-rule:nonzero;stroke:none"
         transform="matrix(1.3333333,0,0,-1.3333333,177.72267,46.152933)" />
      <path
         id="path66"
         d="m 0,0 -2.384,-5.9327 h 2.126 v -1.788 h -5.17 l 2.446,5.9326 H -5.184 L -5.184,0 H 0"
         style="fill:#231f20;fill-opacity:1;fill-rule:nonzero;stroke:none"
         transform="matrix(1.3333333,0,0,-1.3333333,185.896,46.152933)" />
      <path
         id="path67"
         d="m 0,0 c 0,0.5049 -0.106,1.4229 -0.78,1.4229 -0.657,0 -0.795,-0.8867 -0.795,-1.376 V -0.1826 H 0 Z M 1.821,-1.5117 H -1.59 c 0.015,-0.5664 -0.016,-1.791 0.81,-1.791 0.552,0 0.69,0.4277 0.69,0.8857 H 1.744 C 1.56,-3.8369 0.873,-4.9541 -0.701,-4.9541 c -2.188,0 -2.968,1.9414 -2.968,3.8526 0,1.8515 0.674,4.1758 2.921,4.1758 1.422,0 2.736,-1.2696 2.614,-3.7012 L 1.821,-1.5117"
         style="fill:#231f20;fill-opacity:1;fill-rule:nonzero;stroke:none"
         transform="matrix(1.3333333,0,0,-1.3333333,191.52,50.046267)"
         clip-path="url(#clipPath68)" />
      <path
         id="path69"
         d="m 0,0 v -0.9327 h 0.031 c 0.397,0.6729 0.918,1.1465 1.76,1.2246 V -1.8047 C 1.684,-1.7881 1.576,-1.7725 1.454,-1.7725 0.017,-1.7725 0,-2.7217 0,-3.8682 V -7.7207 H -2.156 V 0 H 0"
         style="fill:#231f20;fill-opacity:1;fill-rule:nonzero;stroke:none"
         transform="matrix(1.3333333,0,0,-1.3333333,198.12533,46.152933)" />
      <path
         id="path70"
         d="M 0,0 C 0,0.4297 -0.047,2.0654 -0.78,2.0654 -1.5,2.0654 -1.545,0.4453 -1.545,0 c 0,-0.4873 0.03,-2.0791 0.795,-2.0791 0.688,0 0.75,1.667 0.75,2.0791 z m -0.153,-3.0244 h -0.031 c -0.292,-0.583 -0.735,-1.0264 -1.423,-1.0264 -1.743,0 -2.095,2.7823 -2.095,4.0215 0,1.3311 0.259,4.0069 2.064,4.0069 0.719,0 1.209,-0.4747 1.454,-1.1016 h 0.031 v 0.9473 h 2.156 v -7.7207 h -2.156 v 0.873"
         style="fill:#231f20;fill-opacity:1;fill-rule:nonzero;stroke:none"
         transform="matrix(1.3333333,0,0,-1.3333333,206.42667,51.250667)"
         clip-path="url(#clipPath71)" />
      <path
         id="path72"
         d="M 0,0 H -14.114 V 14.113 H -28.226 V 0 h -14.113 v -14.112 h 14.113 v -14.114 h 14.112 v 14.114 H 0 L 0,0"
         style="fill:#ed1c24;fill-opacity:1;fill-rule:nonzero;stroke:none"
         transform="matrix(1.3333333,0,0,-1.3333333,284.36667,18.817333)" />
      <path
         id="path73"
         d="m 0,0 0.398,-0.0156 c 1.04,0 1.453,0.7051 1.453,1.6514 0,0.8252 -0.397,1.499 -1.545,1.4375 L 0,3.0733 Z M -2.28,-6.5751 V 4.954 h 2.296 c 1.452,0 4.051,-0.152 4.051,-3.3016 0,-1.2705 -0.504,-2.3565 -1.635,-2.9815 l 2.003,-5.246 h -2.4 L 0.03,-1.2539 H 0 v -5.3212 h -2.28"
         style="fill:#231f20;fill-opacity:1;fill-rule:nonzero;stroke:none"
         transform="matrix(1.3333333,0,0,-1.3333333,103.36933,47.6804)" />
    </g>
  </g>
</svg>
