<?xml version="1.0" encoding="UTF-8" standalone="no"?>
<!-- Created with Inkscape (http://www.inkscape.org/) -->

<svg
   version="1.1"
   id="svg1"
   width="672.89734"
   height="132.52667"
   viewBox="0 0 672.89734 132.52667"
   sodipodi:docname="Swiss Red Cross.svg"
   inkscape:version="1.3.2 (091e20e, 2023-11-25, custom)"
   xmlns:inkscape="http://www.inkscape.org/namespaces/inkscape"
   xmlns:sodipodi="http://sodipodi.sourceforge.net/DTD/sodipodi-0.dtd"
   xmlns="http://www.w3.org/2000/svg"
   xmlns:svg="http://www.w3.org/2000/svg">
  <defs
     id="defs1">
    <clipPath
       clipPathUnits="userSpaceOnUse"
       id="clipPath17">
      <path
         d="M 0,99.395 H 504.673 V 0.06 L 0,0.06 Z"
         id="path17" />
    </clipPath>
  </defs>
  <sodipodi:namedview
     id="namedview1"
     pagecolor="#ffffff"
     bordercolor="#666666"
     borderopacity="1.0"
     inkscape:showpageshadow="2"
     inkscape:pageopacity="0.0"
     inkscape:pagecheckerboard="0"
     inkscape:deskcolor="#d1d1d1"
     inkscape:zoom="1.3895136"
     inkscape:cx="336.44867"
     inkscape:cy="66.570057"
     inkscape:window-width="1920"
     inkscape:window-height="1017"
     inkscape:window-x="-8"
     inkscape:window-y="-8"
     inkscape:window-maximized="1"
     inkscape:current-layer="g1">
    <inkscape:page
       x="0"
       y="0"
       inkscape:label="Page 1"
       id="page1"
       width="672.89734"
       height="132.52667"
       margin="0"
       bleed="0" />
  </sodipodi:namedview>
  <g
     id="g1"
     inkscape:groupmode="layer"
     inkscape:label="Page 1">
    <g
       id="group-MC1">
      <path
         id="path2"
         d="m 0,0 c -1.97,1.709 -4.4,3.15 -7.091,3.15 -3.02,0 -4.925,-1.834 -4.925,-4.857 0,-8.141 14.905,-8.6 14.905,-21.992 0,-8.799 -5.055,-15.43 -14.247,-15.43 -2.759,0 -6.172,0.852 -8.405,2.496 v 9.322 c 2.299,-1.576 4.532,-2.626 7.419,-2.626 3.153,0 5.648,2.099 5.648,5.384 0,3.805 -3.021,5.25 -5.778,7.219 -5.647,3.809 -9.128,7.486 -9.128,14.709 0,7.813 4.532,14.579 12.935,14.579 3.151,0 5.974,-0.858 8.667,-2.434 L 0,0"
         style="fill:#231f20;fill-opacity:1;fill-rule:nonzero;stroke:none"
         transform="matrix(1.3333333,0,0,-1.3333333,28.802667,37.409333)" />
      <path
         id="path3"
         d="m 0,0 4.466,-19.434 h 0.13 L 8.929,0 h 7.945 l 4.202,-19.434 h 0.131 l 0.657,3.545 L 25.804,0 H 34.6 l -9.191,-33.154 h -7.617 l -3.019,11.226 -1.97,9.584 H 12.672 L 10.767,-22.912 8.141,-33.154 H 0.394 L -8.993,0 H 0"
         style="fill:#231f20;fill-opacity:1;fill-rule:nonzero;stroke:none"
         transform="matrix(1.3333333,0,0,-1.3333333,48.846667,44.324)" />
      <path
         id="path4"
         d="m 0,0 c 0,3.35 2.693,5.846 6.042,5.846 3.217,0 5.71,-2.825 5.71,-5.975 0,-3.152 -2.692,-5.846 -5.91,-5.846 C 2.625,-5.975 0,-3.281 0,0 Z m 1.249,-9.912 h 9.2554 V -43.066 H 1.249 Z"
         style="fill:#231f20;fill-opacity:1;fill-rule:nonzero;stroke:none"
         transform="matrix(1.3333333,0,0,-1.3333333,97.606667,31.108)" />
      <path
         id="path5"
         d="m 0,0 c -1.312,1.184 -2.561,2.166 -4.465,2.166 -1.641,0 -2.494,-0.982 -2.494,-2.428 0.132,-3.873 10.572,-3.084 10.572,-13 0,-6.566 -3.809,-11.621 -10.636,-11.621 -3.545,0 -7.222,1.51 -9.979,3.811 l 4.069,6.562 c 1.377,-1.181 2.757,-2.166 4.594,-2.166 1.444,0 2.693,1.049 2.693,2.758 0.132,4.399 -10.572,3.281 -10.572,13.789 0,6.303 5.254,9.715 11.096,9.715 3.35,0 6.174,-0.852 8.863,-2.82 L 0,0"
         style="fill:#231f20;fill-opacity:1;fill-rule:nonzero;stroke:none"
         transform="matrix(1.3333333,0,0,-1.3333333,139.888,56.229333)" />
      <path
         id="path6"
         d="m 0,0 c -1.313,1.184 -2.561,2.166 -4.462,2.166 -1.644,0 -2.497,-0.982 -2.497,-2.428 0.132,-3.873 10.572,-3.084 10.572,-13 0,-6.566 -3.809,-11.621 -10.635,-11.621 -3.546,0 -7.224,1.51 -9.98,3.811 l 4.069,6.562 c 1.38,-1.181 2.757,-2.166 4.598,-2.166 1.444,0 2.689,1.049 2.689,2.758 0.132,4.399 -10.568,3.281 -10.568,13.789 0,6.303 5.25,9.715 11.096,9.715 3.345,0 6.171,-0.852 8.863,-2.82 L 0,0"
         style="fill:#231f20;fill-opacity:1;fill-rule:nonzero;stroke:none"
         transform="matrix(1.3333333,0,0,-1.3333333,172.80133,56.229333)" />
      <path
         id="path7"
         d="M 0,0 V 22.848 H 0.131 L 8.731,0 h 10.308 l -8.6,22.52 c 4.858,2.691 7.027,7.353 7.027,12.798 0,13.526 -11.164,14.183 -17.402,14.183 H -9.784 V 0 Z m 0,41.43 h 1.313 c 4.925,0.26 6.63,-2.629 6.63,-6.174 0,-4.07 -1.772,-7.09 -6.235,-7.09 L 0,28.229 V 41.43"
         style="fill:#231f20;fill-opacity:1;fill-rule:nonzero;stroke:none"
         transform="matrix(1.3333333,0,0,-1.3333333,219.54933,88.529333)" />
      <path
         id="path8"
         d="m 0,0 c 0.524,10.44 -5.122,15.889 -11.229,15.889 -9.651,0 -12.536,-9.981 -12.536,-17.922 0,-8.207 3.345,-16.547 12.737,-16.547 6.761,0 9.715,4.795 10.503,10.9 h -7.878 c 0,-1.972 -0.593,-3.808 -2.953,-3.808 -3.546,0 -3.418,5.252 -3.482,7.681 h 14.641 z m -8.011,1.904 h -6.763 v 0.985 c 0,2.099 0.593,5.91 3.418,5.91 2.888,0 3.345,-3.942 3.345,-6.108 V 1.904"
         style="fill:#231f20;fill-opacity:1;fill-rule:nonzero;stroke:none"
         transform="matrix(1.3333333,0,0,-1.3333333,282.228,64.633333)" />
      <path
         id="path9"
         d="M 0,0 H 9.256 V 52.982 H 0 v -23.9 h -0.131 c -1.053,2.692 -3.153,4.729 -6.239,4.729 -7.747,0 -8.863,-11.489 -8.863,-17.204 0,-5.316 1.513,-17.265 8.995,-17.265 2.954,0 4.858,1.904 6.107,4.398 L 0,3.74 Z m -2.56,7.815 c -3.281,0 -3.414,6.826 -3.414,8.927 0,1.903 0.197,8.862 3.281,8.862 3.153,0 3.35,-7.026 3.35,-8.862 0,-1.775 -0.265,-8.927 -3.217,-8.927"
         style="fill:#231f20;fill-opacity:1;fill-rule:nonzero;stroke:none"
         transform="matrix(1.3333333,0,0,-1.3333333,307.08933,88.529333)" />
      <path
         id="path10"
         d="m 0,0 c -1.248,0.332 -2.429,0.527 -3.676,0.527 -8.599,0 -12.341,-7.814 -12.341,-15.429 0,-7.354 3.742,-16.414 12.277,-16.414 1.247,0 2.492,0.328 3.74,0.724 v -9.26 c -1.444,-0.591 -2.952,-0.851 -4.529,-0.851 -14.117,0 -21.928,12.736 -21.928,25.736 0,12.278 8.139,24.883 21.468,24.883 1.708,0 3.349,-0.33 4.989,-0.917 L 0,0"
         style="fill:#231f20;fill-opacity:1;fill-rule:nonzero;stroke:none"
         transform="matrix(1.3333333,0,0,-1.3333333,381.40933,34.958667)" />
      <path
         id="path11"
         d="m 0,0 v -4.006 h 0.132 c 1.709,2.889 3.942,4.926 7.551,5.25 v -8.99 C 7.222,-7.684 6.763,-7.619 6.238,-7.619 0.068,-7.619 0,-11.687 0,-16.609 V -33.154 H -9.255 V 0 H 0"
         style="fill:#231f20;fill-opacity:1;fill-rule:nonzero;stroke:none"
         transform="matrix(1.3333333,0,0,-1.3333333,398.82933,44.324)" />
      <path
         id="path12"
         d="m 0,0 c -9.916,0 -12.608,-8.795 -12.608,-17.266 0,-8.47 2.692,-17.203 12.608,-17.203 9.911,0 12.604,8.733 12.604,17.203 C 12.604,-8.795 9.911,0 0,0 Z m 0,-8.34 c 3.218,0 3.346,-7.021 3.346,-8.926 0,-1.904 -0.128,-8.931 -3.346,-8.931 -3.218,0 -3.351,7.027 -3.351,8.931 0,1.905 0.133,8.926 3.351,8.926"
         style="fill:#231f20;fill-opacity:1;fill-rule:nonzero;stroke:none"
         transform="matrix(1.3333333,0,0,-1.3333333,430.084,43.448)" />
      <path
         id="path13"
         d="m 0,0 c -1.313,1.184 -2.56,2.166 -4.462,2.166 -1.645,0 -2.497,-0.982 -2.497,-2.428 0.133,-3.873 10.572,-3.084 10.572,-13 0,-6.566 -3.809,-11.621 -10.636,-11.621 -3.545,0 -7.223,1.51 -9.979,3.811 l 4.069,6.562 c 1.38,-1.181 2.757,-2.166 4.597,-2.166 1.442,0 2.69,1.049 2.69,2.758 0.132,4.399 -10.569,3.281 -10.569,13.789 0,6.303 5.25,9.715 11.092,9.715 3.351,0 6.174,-0.852 8.868,-2.82 L 0,0"
         style="fill:#231f20;fill-opacity:1;fill-rule:nonzero;stroke:none"
         transform="matrix(1.3333333,0,0,-1.3333333,474.46267,56.229333)" />
      <path
         id="path14"
         d="m 0,0 c -1.317,1.184 -2.561,2.166 -4.466,2.166 -1.641,0 -2.496,-0.982 -2.496,-2.428 0.131,-3.873 10.57,-3.084 10.57,-13 0,-6.566 -3.809,-11.621 -10.635,-11.621 -3.545,0 -7.222,1.51 -9.979,3.811 l 4.069,6.562 c 1.38,-1.181 2.757,-2.166 4.598,-2.166 1.444,0 2.689,1.049 2.689,2.758 0.132,4.399 -10.568,3.281 -10.568,13.789 0,6.303 5.25,9.715 11.096,9.715 3.349,0 6.169,-0.852 8.863,-2.82 L 0,0"
         style="fill:#231f20;fill-opacity:1;fill-rule:nonzero;stroke:none"
         transform="matrix(1.3333333,0,0,-1.3333333,507.38133,56.229333)" />
      <path
         id="path15"
         d="m 405.526,33.238 h 99.147 V 66.08 h -99.147 z"
         style="fill:#ed1c24;fill-opacity:1;fill-rule:nonzero;stroke:none"
         transform="matrix(1.3333333,0,0,-1.3333333,0,132.52667)" />
      <path
         id="path16"
         d="m 438.747,0.060001 h 32.582 v 99.335 h -32.582 z"
         style="fill:#ed1c24;fill-opacity:1;fill-rule:nonzero;stroke:none"
         transform="matrix(1.3333333,0,0,-1.3333333,0,132.52667)"
         clip-path="url(#clipPath17)" />
    </g>
  </g>
</svg>
