<?xml version="1.0" encoding="UTF-8" standalone="no"?>
<!-- Created with Inkscape (http://www.inkscape.org/) -->

<svg
   version="1.1"
   id="svg1"
   width="319.91333"
   height="89.514664"
   viewBox="0 0 319.91333 89.514664"
   sodipodi:docname="Swedish RC EN.svg"
   inkscape:version="1.3.2 (091e20e, 2023-11-25, custom)"
   xmlns:inkscape="http://www.inkscape.org/namespaces/inkscape"
   xmlns:sodipodi="http://sodipodi.sourceforge.net/DTD/sodipodi-0.dtd"
   xmlns="http://www.w3.org/2000/svg"
   xmlns:svg="http://www.w3.org/2000/svg">
  <defs
     id="defs1">
    <clipPath
       clipPathUnits="userSpaceOnUse"
       id="clipPath3">
      <path
         d="M 0.059998,67.08 H 239.935 V 0 H 0.059998 Z"
         transform="translate(-44.759001,-44.757001)"
         id="path3" />
    </clipPath>
  </defs>
  <sodipodi:namedview
     id="namedview1"
     pagecolor="#ffffff"
     bordercolor="#666666"
     borderopacity="1.0"
     inkscape:showpageshadow="2"
     inkscape:pageopacity="0.0"
     inkscape:pagecheckerboard="0"
     inkscape:deskcolor="#d1d1d1"
     inkscape:zoom="2.9226666"
     inkscape:cx="159.95667"
     inkscape:cy="44.651005"
     inkscape:window-width="1920"
     inkscape:window-height="1017"
     inkscape:window-x="-8"
     inkscape:window-y="-8"
     inkscape:window-maximized="1"
     inkscape:current-layer="g1">
    <inkscape:page
       x="0"
       y="0"
       inkscape:label="Page 1"
       id="page1"
       width="319.91333"
       height="89.514664"
       margin="0"
       bleed="0" />
  </sodipodi:namedview>
  <g
     id="g1"
     inkscape:groupmode="layer"
     inkscape:label="Page 1">
    <g
       id="group-MC1">
      <path
         id="path2"
         d="M 0,0 V 22.379 H -22.379 V 0 h -22.38 v -22.377 h 22.38 v -22.38 H 0 v 22.38 H 22.378 V 0 H 0"
         style="fill:#ed1c24;fill-opacity:1;fill-rule:nonzero;stroke:none"
         transform="matrix(1.3333333,0,0,-1.3333333,59.678667,29.838667)"
         clip-path="url(#clipPath3)" />
      <path
         id="path4"
         d="m 0,0 -1.824,-2.389 c -0.913,1.02 -1.746,1.451 -2.9,1.451 -1.396,0 -2.498,-0.886 -2.498,-1.988 0,-0.993 0.593,-1.476 2.713,-2.255 2.012,-0.752 2.765,-1.1 3.569,-1.7975 1.047,-0.9141 1.585,-2.1749 1.585,-3.7575 0,-3.517 -2.523,-5.906 -6.228,-5.906 -2.604,0 -4.564,1.074 -6.146,3.408 l 2.253,2.173 c 0.805,-1.556 2.148,-2.388 3.76,-2.388 1.61,0 2.763,1.047 2.763,2.525 0,1.3419 -0.563,1.8244 -3.462,2.8712 -1.396,0.4834 -2.362,0.9942 -3.007,1.5568 -0.912,0.752 -1.395,1.933 -1.395,3.275 0,3.007 2.362,5.207 5.583,5.207 C -3.274,1.986 -1.476,1.289 0,0"
         style="fill:#231f20;fill-opacity:1;fill-rule:nonzero;stroke:none"
         transform="matrix(1.3333333,0,0,-1.3333333,83.584,67.264)" />
      <path
         id="path5"
         d="M 0,0 3.059,-6.7109 6.228,0.321 H 7.623 L 10.791,-6.8183 13.932,0 h 3.623 L 11.542,-11.863 H 10.038 L 6.898,-4.7783 3.812,-11.863 H 2.308 L -3.652,0 H 0"
         style="fill:#231f20;fill-opacity:1;fill-rule:nonzero;stroke:none"
         transform="matrix(1.3333333,0,0,-1.3333333,88.022667,73.384)" />
      <path
         id="path6"
         d="M 0,0 C -0.376,1.5293 -1.315,2.335 -2.794,2.335 -4.214,2.335 -5.208,1.4756 -5.503,0 Z m 3.087,-2.0664 h -8.699 c 0.083,-2.041 1.074,-3.1142 2.848,-3.1142 1.233,0 2.012,0.4277 2.764,1.5566 l 3.005,-0.4834 c -0.993,-2.3633 -2.952,-3.625 -5.69,-3.625 -3.786,0 -6.254,2.416 -6.254,6.1485 0,3.8109 2.362,6.2269 6.066,6.2269 3.703,0 5.96,-2.362 5.96,-6.2816 0,-0.1074 0,-0.2403 0,-0.4278"
         style="fill:#231f20;fill-opacity:1;fill-rule:nonzero;stroke:none"
         transform="matrix(1.3333333,0,0,-1.3333333,122.84667,79.074667)" />
      <path
         id="path7"
         d="m 0,0 c 0,1.7988 -1.449,3.249 -3.248,3.249 -1.799,0 -3.248,-1.4502 -3.248,-3.249 0,-1.7979 1.449,-3.2734 3.248,-3.2734 C -1.449,-3.2734 0,-1.7979 0,0 Z M -0.349,14.281 H 2.926 V -5.8242 h -3.275 v 1.5293 c -1.048,-1.3418 -2.175,-1.9063 -3.785,-1.9063 -3.275,0 -5.717,2.6592 -5.717,6.2285 0,3.4893 2.442,6.1467 5.635,6.1467 1.585,0 2.739,-0.535 3.867,-1.851 v 9.958"
         style="fill:#231f20;fill-opacity:1;fill-rule:nonzero;stroke:none"
         transform="matrix(1.3333333,0,0,-1.3333333,141.70667,81.116267)" />
      <path
         id="path8"
         d="M -3.247,0 H 0 V -11.623 H -3.247 Z M 0,0 Z m -3.57,4.912 c 0,1.074 0.888,1.96 1.961,1.96 1.073,0 1.932,-0.886 1.932,-1.96 0,-1.1 -0.859,-1.961 -1.932,-1.961 -1.073,0 -1.961,0.887 -1.961,1.961"
         style="fill:#231f20;fill-opacity:1;fill-rule:nonzero;stroke:none"
         transform="matrix(1.3333333,0,0,-1.3333333,153.12133,73.384)" />
      <path
         id="path9"
         d="m 0,0 -1.611,-1.9053 c -0.697,0.5351 -1.287,0.7783 -1.932,0.7783 -0.698,0 -1.234,-0.4287 -1.234,-0.9668 0,-0.5635 0.295,-0.7783 1.824,-1.3154 2.737,-0.9668 3.544,-1.7988 3.544,-3.624 0,-2.4424 -2.015,-4.1608 -4.859,-4.1608 -1.691,0 -3.301,0.699 -4.43,1.9342 l 1.72,1.9863 c 0.911,-0.9414 1.771,-1.3691 2.737,-1.3691 0.831,0 1.476,0.5361 1.476,1.2607 0,0.6983 -0.322,0.9395 -1.799,1.4766 -2.737,0.9932 -3.382,1.6367 -3.382,3.4082 0,2.2021 1.719,3.7311 4.161,3.7311 C -2.336,1.234 -1.127,0.858 0,0"
         style="fill:#231f20;fill-opacity:1;fill-rule:nonzero;stroke:none"
         transform="matrix(1.3333333,0,0,-1.3333333,166.93733,74.458667)" />
      <path
         id="path10"
         d="m 0,0 h 3.247 v -9.986 c 1.018,1.343 2.066,1.879 3.649,1.879 1.37,0 2.631,-0.51 3.383,-1.422 0.697,-0.806 0.913,-1.612 0.913,-3.276 v -7.3 H 7.943 v 6.362 c 0,2.066 -0.617,2.872 -2.229,2.872 -1.663,0 -2.467,-1.047 -2.467,-3.276 v -5.958 H 0 L 0,0"
         style="fill:#231f20;fill-opacity:1;fill-rule:nonzero;stroke:none"
         transform="matrix(1.3333333,0,0,-1.3333333,169.90933,62.074667)" />
      <path
         id="path11"
         d="m 0,0 h 0.994 c 2.227,0 3.435,0.941 3.435,2.713 0,1.771 -1.153,2.683 -3.381,2.683 H 0 Z m 3.947,-2.1201 5.637,-7.542 H 5.261 L 0.429,-2.4688 H 0 V -9.6621 H -3.489 V 8.242 H 1.693 C 3.65,8.242 5.234,7.786 6.254,6.953 7.355,6.067 8.027,4.537 8.027,2.928 8.027,1.074 7.247,-0.5078 5.933,-1.3692 5.287,-1.7715 4.912,-1.9317 3.947,-2.1201"
         style="fill:#231f20;fill-opacity:1;fill-rule:nonzero;stroke:none"
         transform="matrix(1.3333333,0,0,-1.3333333,193.368,75.998667)" />
      <path
         id="path12"
         d="M 0,0 C -0.377,1.5293 -1.316,2.335 -2.791,2.335 -4.214,2.335 -5.207,1.4756 -5.503,0 Z M 3.088,-2.0664 H -5.61 c 0.08,-2.041 1.074,-3.1142 2.845,-3.1142 1.235,0 2.015,0.4277 2.765,1.5566 l 3.007,-0.4834 c -0.994,-2.3633 -2.954,-3.625 -5.693,-3.625 -3.783,0 -6.253,2.416 -6.253,6.1485 0,3.8109 2.363,6.2269 6.067,6.2269 3.704,0 5.96,-2.362 5.96,-6.2816 0,-0.1074 0,-0.2403 0,-0.4278"
         style="fill:#231f20;fill-opacity:1;fill-rule:nonzero;stroke:none"
         transform="matrix(1.3333333,0,0,-1.3333333,218.404,79.074667)" />
      <path
         id="path13"
         d="m 0,0 c 0,1.7988 -1.45,3.249 -3.247,3.249 -1.801,0 -3.25,-1.4502 -3.25,-3.249 0,-1.7979 1.449,-3.2734 3.25,-3.2734 C -1.45,-3.2734 0,-1.7979 0,0 Z M -0.349,14.281 H 2.925 V -5.8242 h -3.274 v 1.5293 c -1.047,-1.3418 -2.173,-1.9063 -3.786,-1.9063 -3.275,0 -5.718,2.6592 -5.718,6.2285 0,3.4893 2.443,6.1467 5.638,6.1467 1.585,0 2.74,-0.535 3.866,-1.851 v 9.958"
         style="fill:#231f20;fill-opacity:1;fill-rule:nonzero;stroke:none"
         transform="matrix(1.3333333,0,0,-1.3333333,237.26533,81.116267)" />
      <path
         id="path14"
         d="m 0,0 v -4.134 c -1.449,1.45 -2.711,2.04 -4.402,2.04 -3.301,0 -5.852,-2.712 -5.852,-6.2273 0,-3.4897 2.551,-6.1207 5.932,-6.1207 1.692,0 2.899,0.564 4.322,1.988 v -4.108 c -1.611,-0.751 -2.899,-1.046 -4.402,-1.046 -5.262,0 -9.449,4.08 -9.449,9.2594 0,5.2346 4.214,9.4496 9.474,9.4496 C -2.819,1.101 -1.557,0.778 0,0"
         style="fill:#231f20;fill-opacity:1;fill-rule:nonzero;stroke:none"
         transform="matrix(1.3333333,0,0,-1.3333333,261.75733,65.94)" />
      <path
         id="path15"
         d="m 0,0 h 3.248 v -1.745 c 0.833,1.449 1.907,2.12 3.411,2.12 0.509,0 0.777,-0.054 1.394,-0.268 L 7.597,-2.9531 c -0.616,0.3223 -0.886,0.4033 -1.53,0.4033 -1.905,0 -2.819,-1.1279 -2.819,-3.4892 v -5.584 H 0 V 0"
         style="fill:#231f20;fill-opacity:1;fill-rule:nonzero;stroke:none"
         transform="matrix(1.3333333,0,0,-1.3333333,264.476,73.384)" />
      <path
         id="path16"
         d="m 0,0 c 0,-1.7715 1.475,-3.247 3.272,-3.247 1.826,0 3.304,1.4492 3.304,3.247 0,1.8252 -1.478,3.2754 -3.304,3.2754 C 1.475,3.2754 0,1.7979 0,0 Z m -3.358,0 c 0,3.6778 2.711,6.2 6.659,6.2 3.918,0 6.63,-2.5222 6.63,-6.1736 0,-3.6494 -2.739,-6.2012 -6.63,-6.2012 -3.948,0 -6.659,2.5225 -6.659,6.1748"
         style="fill:#231f20;fill-opacity:1;fill-rule:nonzero;stroke:none"
         transform="matrix(1.3333333,0,0,-1.3333333,279.224,81.151467)" />
      <path
         id="path17"
         d="m 0,0 -1.61,-1.9053 c -0.699,0.5351 -1.289,0.7783 -1.933,0.7783 -0.698,0 -1.235,-0.4287 -1.235,-0.9668 0,-0.5635 0.295,-0.7783 1.824,-1.3154 2.739,-0.9668 3.543,-1.7988 3.543,-3.624 0,-2.4424 -2.011,-4.1608 -4.857,-4.1608 -1.69,0 -3.303,0.699 -4.429,1.9342 l 1.718,1.9863 c 0.912,-0.9414 1.772,-1.3691 2.738,-1.3691 0.831,0 1.476,0.5361 1.476,1.2607 0,0.6983 -0.323,0.9395 -1.798,1.4766 -2.738,0.9932 -3.383,1.6367 -3.383,3.4082 0,2.2021 1.719,3.7311 4.162,3.7311 C -2.334,1.234 -1.127,0.858 0,0"
         style="fill:#231f20;fill-opacity:1;fill-rule:nonzero;stroke:none"
         transform="matrix(1.3333333,0,0,-1.3333333,305.52667,74.458667)" />
      <path
         id="path18"
         d="m 0,0 -1.611,-1.9053 c -0.698,0.5351 -1.289,0.7783 -1.932,0.7783 -0.698,0 -1.234,-0.4287 -1.234,-0.9668 0,-0.5635 0.294,-0.7783 1.825,-1.3154 2.737,-0.9668 3.542,-1.7988 3.542,-3.624 0,-2.4424 -2.013,-4.1608 -4.859,-4.1608 -1.689,0 -3.301,0.699 -4.428,1.9342 l 1.717,1.9863 c 0.914,-0.9414 1.772,-1.3691 2.739,-1.3691 0.832,0 1.476,0.5361 1.476,1.2607 0,0.6983 -0.322,0.9395 -1.798,1.4766 -2.739,0.9932 -3.382,1.6367 -3.382,3.4082 0,2.2021 1.719,3.7311 4.161,3.7311 C -2.335,1.234 -1.128,0.858 0,0"
         style="fill:#231f20;fill-opacity:1;fill-rule:nonzero;stroke:none"
         transform="matrix(1.3333333,0,0,-1.3333333,319.12667,74.458667)" />
    </g>
  </g>
</svg>
