<?xml version="1.0" encoding="UTF-8" standalone="no"?>
<svg
   xmlns:dc="http://purl.org/dc/elements/1.1/"
   xmlns:cc="http://creativecommons.org/ns#"
   xmlns:rdf="http://www.w3.org/1999/02/22-rdf-syntax-ns#"
   xmlns:svg="http://www.w3.org/2000/svg"
   xmlns="http://www.w3.org/2000/svg"
   viewBox="0 0 359.33334 359.33334"
   height="359.33334"
   width="359.33334"
   xml:space="preserve"
   id="svg2"
   version="1.1"><metadata
     id="metadata8"><rdf:RDF><cc:Work
         rdf:about=""><dc:format>image/svg+xml</dc:format><dc:type
           rdf:resource="http://purl.org/dc/dcmitype/StillImage" /><dc:title></dc:title></cc:Work></rdf:RDF></metadata><defs
     id="defs6" /><g
     transform="matrix(1.3333333,0,0,-1.3333333,0,359.33333)"
     id="g10"><g
       transform="scale(0.1)"
       id="g12"><path
         id="path14"
         style="fill:none;stroke:#ee2628;stroke-width:30;stroke-linecap:butt;stroke-linejoin:miter;stroke-miterlimit:4;stroke-dasharray:none;stroke-opacity:1"
         d="M 2680,1347.5 C 2680,2083.42 2083.42,2680 1347.5,2680 611.582,2680 15,2083.42 15,1347.5 15,611.582 611.582,15 1347.5,15 2083.42,15 2680,611.582 2680,1347.5 Z" /><path
         id="path16"
         style="fill:none;stroke:#ee2628;stroke-width:30;stroke-linecap:butt;stroke-linejoin:miter;stroke-miterlimit:4;stroke-dasharray:none;stroke-opacity:1"
         d="M 2210,1347.5 C 2210,1823.84 1823.85,2210 1347.5,2210 871.156,2210 485,1823.84 485,1347.5 485,871.148 871.156,485 1347.5,485 c 476.35,0 862.5,386.148 862.5,862.5 z" /><path
         id="path18"
         style="fill:#ee2628;fill-opacity:1;fill-rule:nonzero;stroke:none"
         d="M 1357.51,2055 C 1064.33,2055 811.129,1890.29 692.234,1651.76 792.266,1809.72 971.023,1915 1175,1915 c 313.42,0 567.5,-248.45 567.5,-554.91 0,-306.48 -254.08,-554.918 -567.5,-554.918 -242.07,0 -448.613,148.258 -530.164,356.928 C 728.656,858.629 1015.9,635 1357.51,635 c 407.31,0 737.5,317.871 737.5,710 0,392.12 -330.19,710 -737.5,710" /><path
         id="path20"
         style="fill:none;stroke:#00adef;stroke-width:2.5;stroke-linecap:butt;stroke-linejoin:miter;stroke-miterlimit:4;stroke-dasharray:none;stroke-opacity:1"
         d="M 2370,1347.5 C 2370,1912.21 1912.21,2370 1347.5,2370 782.789,2370 325,1912.21 325,1347.5 325,782.789 782.789,325 1347.5,325 1912.21,325 2370,782.789 2370,1347.5 Z" /><path
         id="path22"
         style="fill:#ee2628;fill-opacity:1;fill-rule:nonzero;stroke:none"
         d="m 268.266,1143.97 c 16.722,4.98 23.73,19.62 20.922,38.13 -4.317,28.48 -31.122,35.58 -56.274,31.77 -25.156,-3.82 -48.652,-18.55 -44.336,-47.02 3.133,-20.64 16.793,-30.72 36.504,-29.43 l 6.691,-44.13 c -44.019,-4.25 -74.507,23.91 -81.019,66.86 -7.77,51.25 26.348,90.41 75.461,97.84 49.121,7.46 93.312,-19.83 101.082,-71.09 5.547,-36.53 -11.699,-79.69 -52.34,-87.06 l -6.691,44.13" /><path
         id="path24"
         style="fill:#ee2628;fill-opacity:1;fill-rule:nonzero;stroke:none"
         d="m 278.008,1046.01 11.012,-35.8 c 3.953,-12.839 12.953,-17.601 25.339,-13.78 12.161,3.75 14.7,15.06 11.024,27 l -10.449,33.93 z m 57.969,64.54 25.703,-83.49 c 8.89,-28.9 4.586,-61.369 -28.457,-71.54 -17.657,-5.43 -37.016,-2.11 -48.965,13.05 l -0.457,-0.129 c 1.238,-18.703 -16.707,-29.761 -31.875,-35.941 -6.746,-2.578 -30.617,-10.68 -34.821,-18.238 l -12.988,42.199 c 4.375,5.359 20.219,10.988 24.66,12.867 16.168,6.231 32.297,14.211 26.145,34.162 l -9.949,32.34 -59.641,-18.35 -13.137,42.66 163.782,50.41" /><path
         id="path26"
         style="fill:#ee2628;fill-opacity:1;fill-rule:nonzero;stroke:none"
         d="m 290.141,839.762 c 12.492,-25.961 40.207,-24.883 63.125,-13.84 22.925,11.019 41.058,32 28.57,57.957 -12.488,25.941 -40.195,24.859 -63.121,13.832 -22.918,-11.031 -41.059,-32.02 -28.574,-57.949 z m 126.3,60.758 c 23.414,-48.649 0.954,-93.29 -43.812,-114.84 -44.77,-21.532 -93.668,-11.239 -117.082,37.422 -23.422,48.66 -0.953,93.289 43.812,114.828 44.766,21.539 93.664,11.25 117.082,-37.41" /><path
         id="path28"
         style="fill:#ee2628;fill-opacity:1;fill-rule:nonzero;stroke:none"
         d="m 455.563,819.43 23.613,-37.879 -145.43,-90.629 -23.613,37.887 145.43,90.621" /><path
         id="path30"
         style="fill:#ee2628;fill-opacity:1;fill-rule:nonzero;stroke:none"
         d="m 416.656,671.59 c -15.406,-13.031 -12.945,-26.86 -1.402,-41.91 8.18,-10.66 20.465,-18.782 30.551,-11.032 12,9.204 -0.617,30.372 -10.157,54.211 -9.378,23.661 -16.257,50.762 8.684,69.903 29.699,22.808 64.258,1.816 83.836,-23.692 20.75,-27.031 28.512,-64.332 -1.996,-88.05 l -27.184,35.41 c 12.821,8.922 7.907,23.609 -0.433,34.449 -5.84,7.621 -15.813,15.109 -24.762,8.223 -10.469,-8.032 2.676,-29.102 12.355,-53.141 9.532,-23.84 15.586,-50.66 -8.968,-69.5 -34.461,-26.461 -68.008,-5.609 -90.95,24.269 -23.968,31.231 -31.445,69.36 3.247,96.29 l 27.179,-35.43" /><path
         id="path32"
         style="fill:#ee2628;fill-opacity:1;fill-rule:nonzero;stroke:none"
         d="m 514.078,554.68 c -13.57,-14.93 -9.308,-28.34 4.102,-41.739 9.515,-9.5 22.758,-15.941 31.742,-6.929 10.683,10.699 -4.609,30.027 -17.188,52.418 -12.402,22.218 -22.777,48.179 -0.562,70.441 26.457,26.481 63.465,10.219 86.223,-12.5 24.121,-24.082 36.707,-60.039 9.574,-87.562 l -31.598,31.543 c 11.535,10.527 4.738,24.449 -4.941,34.097 -6.797,6.789 -17.66,12.891 -25.629,4.91 -9.324,-9.339 6.465,-28.5 19.219,-51.058 12.574,-22.391 22.093,-48.18 0.222,-70.102 -30.691,-30.738 -66.679,-14.469 -93.347,12.153 -27.852,27.808 -40.274,64.617 -9.411,95.878 l 31.594,-31.55" /><path
         id="path34"
         style="fill:#ee2628;fill-opacity:1;fill-rule:nonzero;stroke:none"
         d="m 641.348,447.559 30.972,-23.5 21.157,59.269 -0.379,0.281 z m 62.691,87.402 36.137,-27.41 -52.52,-175.25 -37.09,28.148 10.153,30.84 -47.61,36.121 -27.171,-17.941 -36.524,27.711 154.625,97.781" /><path
         id="path36"
         style="fill:#ee2628;fill-opacity:1;fill-rule:nonzero;stroke:none"
         d="m 781.82,476.039 40.11,-22.187 0.953,-121.211 0.418,-0.243 51.129,92.391 36.746,-20.328 -82.961,-149.93 -40.113,22.188 -0.368,122.261 -0.425,0.239 -51.704,-93.449 -36.753,20.332 82.968,149.937" /><path
         id="path38"
         style="fill:#ee2628;fill-opacity:1;fill-rule:nonzero;stroke:none"
         d="m 1030.86,317.699 -47.719,18.313 -47.653,-124.141 -41.675,16.008 47.652,124.133 -47.727,18.32 13.758,35.848 137.124,-52.641 -13.76,-35.84" /><path
         id="path40"
         style="fill:#ee2628;fill-opacity:1;fill-rule:nonzero;stroke:none"
         d="m 982.984,245.82 9.766,33.141 71.59,-21.121 -9.76,-33.129 -71.596,21.109" /><path
         id="path42"
         style="fill:#ee2628;fill-opacity:1;fill-rule:nonzero;stroke:none"
         d="m 1127.72,258.398 36.88,-6.476 c 13.24,-2.332 21.58,3.527 23.82,16.289 2.2,12.519 -6.74,19.937 -19.03,22.098 l -34.98,6.152 z m -31.1,80.993 86.05,-15.102 c 29.79,-5.23 56.73,-23.848 50.75,-57.879 -3.19,-18.211 -14.97,-33.93 -33.9,-37.672 l -0.08,-0.476 c 17.21,-7.403 18.89,-28.422 17.49,-44.731 -0.78,-7.179 -4.43,-32.133 0.4,-39.301 l -43.49,7.629 c -2.79,6.332 -0.59,23 -0.23,27.821 1.81,17.23 2.04,35.218 -18.53,38.84 l -33.33,5.839 -10.79,-61.461 -43.97,7.723 29.63,168.77" /><path
         id="path44"
         style="fill:#ee2628;fill-opacity:1;fill-rule:nonzero;stroke:none"
         d="m 1316.46,175.199 c 28.8,-0.34 40.14,24.973 40.43,50.422 0.3,25.418 -10.44,50.988 -39.24,51.328 -28.79,0.34 -40.13,-24.98 -40.43,-50.418 -0.3,-25.429 10.45,-51 39.24,-51.332 z m 1.64,140.153 c 54,-0.633 84.01,-40.582 83.43,-90.262 -0.58,-49.68 -31.52,-88.918 -85.51,-88.289 -53.99,0.629 -84.01,40.578 -83.44,90.25 0.58,49.679 31.52,88.929 85.52,88.301" /><path
         id="path46"
         style="fill:#ee2628;fill-opacity:1;fill-rule:nonzero;stroke:none"
         d="m 1563.27,228.711 c 6.14,-49.301 -13.45,-76.652 -64.89,-83.051 -51.44,-6.39 -77.11,15.328 -83.24,64.621 l -12.43,99.801 44.32,5.5 12.74,-102.41 c 2.71,-21.91 12.2,-32.102 33.88,-29.402 21.67,2.699 28.37,14.89 25.65,36.812 l -12.74,102.398 44.3,5.532 12.41,-99.801" /><path
         id="path48"
         style="fill:#ee2628;fill-opacity:1;fill-rule:nonzero;stroke:none"
         d="m 1753.68,207.172 -27.72,-7.82 -7.63,17.277 c -6.81,-19.129 -24.64,-30.168 -39.89,-34.469 -49.89,-14.109 -92.99,14.852 -106.5,62.66 -13.52,47.801 8.02,95.039 57.9,109.16 34.19,9.668 75.84,1.739 91.46,-38.492 l -42.96,-12.136 c -5.37,13.679 -21.64,18.32 -38.96,13.418 -27.72,-7.829 -31.41,-35.309 -24.49,-59.801 6.93,-24.481 24.47,-45.957 52.18,-38.117 21.25,6 32.75,19.988 30.82,35.648 l -30.01,-8.488 -9.02,31.879 69.28,19.589 25.54,-90.308" /><path
         id="path50"
         style="fill:#ee2628;fill-opacity:1;fill-rule:nonzero;stroke:none"
         d="m 1710.16,374.238 124.58,55.934 14.65,-32.633 -83.86,-37.648 12.28,-27.371 76.64,34.402 14.14,-31.531 -76.62,-34.391 13.36,-29.789 86.06,38.629 15.72,-35.039 -126.78,-56.903 -70.17,156.34" /><path
         id="path52"
         style="fill:#ee2628;fill-opacity:1;fill-rule:nonzero;stroke:none"
         d="m 2028.32,512.898 -41.71,-29.578 76.93,-108.461 -36.42,-25.808 -76.91,108.449 -41.71,-29.57 -22.21,31.32 119.81,84.969 22.22,-31.321" /><path
         id="path54"
         style="fill:#ee2628;fill-opacity:1;fill-rule:nonzero;stroke:none"
         d="m 2180.1,570.031 c 34,-36.211 34.3,-69.832 -3.47,-105.32 -37.78,-35.5 -71.32,-33.102 -105.34,3.109 l -68.86,73.289 32.53,30.571 70.67,-75.219 c 15.11,-16.102 28.78,-18.742 44.7,-3.762 15.92,14.949 14.14,28.762 -0.97,44.84 l -70.67,75.223 32.55,30.558 68.86,-73.289" /><path
         id="path56"
         style="fill:#ee2628;fill-opacity:1;fill-rule:nonzero;stroke:none"
         d="m 2114.31,646.719 28.46,35.929 119.75,-18.918 0.29,0.372 -82.77,65.57 26.08,32.93 134.31,-106.411 -28.46,-35.941 -120.67,19.672 -0.3,-0.371 83.71,-66.332 -26.08,-32.918 -134.32,106.418" /><path
         id="path58"
         style="fill:#ee2628;fill-opacity:1;fill-rule:nonzero;stroke:none"
         d="m 2211.27,774.469 23.91,37.703 144.7,-91.793 -23.9,-37.68 -144.71,91.77" /><path
         id="path60"
         style="fill:#ee2628;fill-opacity:1;fill-rule:nonzero;stroke:none"
         d="m 2361.25,803.34 c 18.42,-8.231 29.82,0 38.36,16.922 6.07,12.008 8.05,26.59 -3.3,32.316 -13.51,6.813 -27.1,-13.738 -44.45,-32.687 -17.25,-18.711 -38.67,-36.653 -66.74,-22.5 -33.42,16.879 -29.51,57.109 -15.02,85.808 15.35,30.43 45.6,53.621 80.19,36.422 l -20.1,-39.851 c -13.61,7.671 -24.7,-3.129 -30.87,-15.34 -4.32,-8.578 -6.72,-20.801 3.34,-25.891 11.78,-5.937 25.06,15.051 42.53,34.191 17.35,18.95 38.87,36.032 66.51,22.079 38.79,-19.579 34.55,-58.829 17.59,-92.477 -17.73,-35.133 -48.84,-58.41 -88.16,-38.844 l 20.12,39.852" /><path
         id="path62"
         style="fill:#ee2628;fill-opacity:1;fill-rule:nonzero;stroke:none"
         d="m 2306.04,952.531 16.11,41.649 159.81,-61.848 -16.1,-41.633 -159.82,61.832" /><path
         id="path64"
         style="fill:#ee2628;fill-opacity:1;fill-rule:nonzero;stroke:none"
         d="m 2328.57,1006.52 36.33,131.64 34.48,-9.51 -24.46,-88.6 28.92,-7.98 22.35,80.98 33.3,-9.19 -22.32,-80.99 31.45,-8.66 25.09,90.91 37.01,-10.22 -36.95,-133.939 -165.2,45.559" /><path
         id="path66"
         style="fill:#ee2628;fill-opacity:1;fill-rule:nonzero;stroke:none"
         d="m 2365.85,1141.46 5.81,45.47 112.29,45.68 0.05,0.48 -104.74,13.36 5.29,41.67 170,-21.69 -5.81,-45.47 -113.47,-45.53 -0.06,-0.48 105.94,-13.5 -5.31,-41.68 -169.99,21.69" /></g></g></svg>