<?xml version="1.0" encoding="UTF-8" standalone="no"?>
<!-- Created with Inkscape (http://www.inkscape.org/) -->

<svg
   version="1.1"
   id="svg1"
   width="352.43066"
   height="352.41867"
   viewBox="0 0 352.43066 352.41867"
   sodipodi:docname="Red_Crescent_TUNISIA_2015.svg"
   inkscape:version="1.3.2 (091e20e, 2023-11-25, custom)"
   xmlns:inkscape="http://www.inkscape.org/namespaces/inkscape"
   xmlns:sodipodi="http://sodipodi.sourceforge.net/DTD/sodipodi-0.dtd"
   xmlns="http://www.w3.org/2000/svg"
   xmlns:svg="http://www.w3.org/2000/svg">
  <defs
     id="defs1">
    <clipPath
       clipPathUnits="userSpaceOnUse"
       id="clipPath3">
      <path
         d="M 0.059998,264.314 H 264.323 V 0 H 0.059998 Z"
         transform="translate(-132.166,-215.27301)"
         id="path3" />
    </clipPath>
  </defs>
  <sodipodi:namedview
     id="namedview1"
     pagecolor="#ffffff"
     bordercolor="#666666"
     borderopacity="1.0"
     inkscape:showpageshadow="2"
     inkscape:pageopacity="0.0"
     inkscape:pagecheckerboard="0"
     inkscape:deskcolor="#d1d1d1"
     inkscape:export-bgcolor="#ffffffff"
     inkscape:zoom="2.3296155"
     inkscape:cx="176.20934"
     inkscape:cy="176.20934"
     inkscape:window-width="1920"
     inkscape:window-height="1017"
     inkscape:window-x="-8"
     inkscape:window-y="-8"
     inkscape:window-maximized="1"
     inkscape:current-layer="g1">
    <inkscape:page
       x="0"
       y="0"
       inkscape:label="1"
       id="page1"
       width="352.43066"
       height="352.41867"
       margin="0"
       bleed="0"
       inkscape:export-filename="Red_Crescent_TUNISIA_2015.png"
       inkscape:export-xdpi="300"
       inkscape:export-ydpi="300" />
  </sodipodi:namedview>
  <g
     id="g1"
     inkscape:groupmode="layer"
     inkscape:label="1">
    <g
       id="group-MC1">
      <path
         id="path2"
         d="m 0,0 c -45.832,0 -83.125,-37.284 -83.125,-83.116 0,-45.833 37.293,-83.126 83.125,-83.126 45.833,0 83.126,37.293 83.126,83.126 C 83.126,-37.284 45.833,0 0,0 Z m 0,-169.176 c -47.455,0 -86.06,38.605 -86.06,86.06 0,47.445 38.605,86.051 86.06,86.051 47.455,0 86.06,-38.606 86.06,-86.051 0,-47.455 -38.605,-86.06 -86.06,-86.06 z M 0,46.106 c -71.259,0 -129.231,-57.972 -129.231,-129.222 0,-71.251 57.972,-129.223 129.231,-129.223 71.251,0 129.223,57.972 129.223,129.223 0,71.25 -57.972,129.222 -129.223,129.222 z m 0,-261.379 c -72.882,0 -132.166,59.284 -132.166,132.157 0,72.872 59.284,132.157 132.166,132.157 72.873,0 132.157,-59.285 132.157,-132.157 0,-72.873 -59.284,-132.157 -132.157,-132.157"
         style="fill:#ee2722;fill-opacity:1;fill-rule:nonzero;stroke:none"
         transform="matrix(1.3333333,0,0,-1.3333333,176.22133,65.388)"
         clip-path="url(#clipPath3)" />
      <path
         id="path4"
         d="m 0,0 c -28.753,0 -53.585,-16.152 -65.251,-39.552 9.817,15.495 27.343,25.825 47.353,25.825 30.739,0 55.659,-24.367 55.659,-54.427 0,-30.059 -24.92,-54.426 -55.659,-54.426 -23.742,0 -44.004,14.539 -52.001,35.006 8.222,-29.763 36.395,-51.693 69.899,-51.693 39.953,0 72.336,31.171 72.336,69.629 C 72.336,-31.179 39.953,0 0,0"
         style="fill:#ee2722;fill-opacity:1;fill-rule:nonzero;stroke:none"
         transform="matrix(1.3333333,0,0,-1.3333333,177.528,83.690667)" />
      <path
         id="path5"
         d="M 0,0 C -0.122,0.691 -0.783,1.709 -1.979,3.042 -2.51,3.641 -3.397,4.238 -4.63,4.799 -5.598,5.264 -6.579,5.675 -7.587,6.124 -7.513,4.526 -7.41,3.445 -7.27,2.82 L -2.855,0.608 -2.95,0.365 -7.698,-3.862 c -2.016,-1.802 -3.034,-2.399 -4.183,-1.968 -0.251,0.214 -0.831,0.875 -1.37,0.913 0.503,-1.503 0.942,-2.585 1.325,-3.323 -0.15,-0.355 -0.355,-0.654 -0.616,-0.968 -0.683,-0.805 -1.307,-1.299 -1.894,-1.514 -0.347,0.347 -0.701,1.215 -1.204,1.615 -0.505,0.39 -0.878,0.317 -0.878,0.317 0.878,-2.352 0.915,-4.19 -0.029,-5.309 -0.093,-0.104 -1.688,-2.205 -1.688,-2.205 -0.066,-0.1 -0.129,-0.185 -0.188,-0.269 -0.185,-0.27 -0.336,-0.27 -0.447,-0.085 -0.355,0.683 -0.738,1.177 -1.196,1.495 l -0.69,0.476 c -0.038,-0.262 0,-0.561 0.066,-0.879 0.346,-1.41 0.41,-2.5 0.196,-3.303 -0.104,-0.429 -0.569,-1.325 -1.381,-2.707 l -0.206,-0.288 -0.027,-0.037 -0.28,-0.486 c 0,0 -2.762,-4.022 -3.22,-4.731 -0.457,-0.72 -0.878,-1.894 -1.073,-2.547 -0.196,-0.654 -0.281,-2.193 0.401,-3.828 0.643,-1.625 1.577,-2.678 2.744,-3.191 0.812,-0.346 1.539,-0.365 2.1,-0.066 0.318,0.215 0.775,0.672 1.352,1.41 0.617,0.728 1.148,1.241 1.661,1.521 0.281,-1.867 -0.14,-4.023 -1.222,-6.533 -0.605,-1.382 -1.407,-2.427 -2.37,-3.154 -1.112,-0.765 -2.267,-0.915 -3.435,-0.402 -0.914,0.391 -2.285,1.735 -4.123,4.023 0.979,-3.455 2.669,-5.684 4.973,-6.681 1.532,-0.665 3.032,-0.524 4.471,0.402 1.277,0.838 2.333,2.164 3.116,3.972 0.897,2.046 1.307,4.209 1.185,6.45 -0.111,2.633 -1.026,4.331 -2.677,5.039 -0.664,0.289 -1.55,-0.166 -2.661,-1.325 -0.783,-0.904 -1.587,-1.753 -2.37,-2.659 -0.336,1.438 -0.374,2.257 0.421,4.291 0.801,2.038 4.105,6.731 4.105,6.731 l 5.058,7.279 c 0.261,0.318 0.439,0.588 0.495,0.839 0.055,0.495 0.132,0.963 0.187,1.455 1.167,0.394 2.079,0.989 2.789,1.82 0.535,0.635 0.793,1.185 0.757,1.635 -0.104,0.503 -0.196,1.064 -0.3,1.632 0.572,-0.007 1.289,0.225 2.119,0.653 0.757,0.392 1.399,0.887 1.99,1.355 l 4.032,3.555 C -0.458,-2.163 0.177,-1.015 0,0 Z m -9.854,7.095 -2.791,-0.085 -0.336,-2.865 2.857,0.026 c 0.277,1.271 0.362,2.205 0.27,2.924 z m -2.595,-45.495 -2.651,-1.185 0.849,-2.662 -2.518,-1.192 0.941,-2.754 c 1.418,0.679 2.26,1.11 2.503,1.259 -0.132,0.598 -0.376,1.457 -0.738,2.602 1.362,0.654 2.164,1.103 2.407,1.252 -0.318,1.177 -0.579,2.089 -0.793,2.68"
         style="fill:#231f20;fill-opacity:1;fill-rule:nonzero;stroke:none"
         transform="matrix(1.3333333,0,0,-1.3333333,80.153333,72.948)" />
      <path
         id="path6"
         d="m 0,0 c -0.702,-0.513 -1.263,-0.521 -1.662,0.019 -0.095,0.132 -0.077,0.346 0.018,0.605 0.112,0.236 0.241,0.432 0.392,0.543 0.037,0.029 0.214,0.103 0.514,0.224 0.288,0.064 0.597,0.038 0.97,-0.084 0.374,-0.122 0.71,-0.27 1.016,-0.392 z m 18.682,9.753 c -0.522,1.109 -1.474,2.696 -2.799,4.76 -1.373,2.042 -2.316,3.629 -2.847,4.748 -0.233,0.506 -0.41,1.521 -0.55,3.09 -0.244,0.196 -0.738,0.402 -1.513,0.653 -0.82,0.234 -1.26,0.421 -1.371,0.543 -0.384,0.484 -0.58,0.794 -0.635,0.801 -0.206,-1.595 -0.047,-2.883 0.429,-3.902 0.018,-0.026 0.214,-0.24 0.664,-0.65 0.391,-0.395 0.625,-0.683 0.717,-0.767 3.053,-4.554 4.91,-7.521 5.571,-8.931 C 16.517,9.743 16.366,9.407 15.927,9.064 15.602,8.783 13.018,7.69 13.018,7.69 L 12.242,7.384 C 10.349,6.542 9.358,6.272 8.473,7.008 c 0,0 -0.14,0.243 -0.45,0.701 C 7.808,8.008 7.568,8.148 7.391,8.092 7.24,6.217 7.092,5.179 6.914,4.844 6.727,4.471 5.494,3.629 5.028,3.341 4.552,3.042 3.611,2.64 3.611,2.64 2.984,3.574 2.116,4.219 1.025,4.704 -0.255,5.209 -1.374,5.124 -2.297,4.452 -3.296,3.725 -3.622,2.539 -3.371,0.897 c 0.188,-1.344 0.635,-2.502 1.344,-3.462 1.156,-1.578 2.717,-1.625 4.618,-0.13 l 1.075,0.783 c 0.281,-3.556 -1.886,-7.019 -6.45,-10.36 1.635,0.159 2.735,0.281 3.286,0.384 1.251,0.222 2.297,0.643 3.145,1.259 1.326,0.971 2.082,2.566 2.249,4.815 0.14,1.735 0.011,3.351 -0.513,5.142 0,0 1.045,0.524 1.876,1.185 C 8.081,1.167 8.491,1.85 8.742,3.267 9.237,3.042 9.817,2.95 10.544,2.95 c 0.738,0.007 1.326,0.159 1.809,0.428 l 1.325,0.701 2.773,1.307 c 2.352,1.108 3.08,2.556 2.231,4.367 z M 4.216,12.618 C 5.7,12.309 6.605,12.18 6.904,12.124 c 0.41,1.23 0.672,2.156 0.812,2.743 -1.24,0.262 -2.175,0.421 -2.754,0.514 C 4.478,13.915 4.143,13.036 4.02,12.785 2.769,13.048 1.883,13.225 1.304,13.317 L 0.372,10.592 3.246,10.06 c 0.42,1.197 0.767,2.082 0.97,2.558"
         style="fill:#231f20;fill-opacity:1;fill-rule:nonzero;stroke:none"
         transform="matrix(1.3333333,0,0,-1.3333333,88.393333,62.898667)" />
      <path
         id="path7"
         d="m 0,0 c -1.318,2.399 -2.632,4.796 -3.939,7.159 -0.103,-2.64 -0.121,-4.106 0,-4.442 0.69,-1.783 1.868,-4.201 3.527,-7.233 1.306,-2.362 2.624,-4.759 3.883,-7.139 0.532,1.661 0.561,3.116 0.056,4.422 C 2.809,-5.375 1.632,-2.957 0,0"
         style="fill:#231f20;fill-opacity:1;fill-rule:nonzero;stroke:none"
         transform="matrix(1.3333333,0,0,-1.3333333,116.75067,35.528)" />
      <path
         id="path8"
         d="M 0,0 C 0.215,0.252 0.616,0.551 1.185,0.931 1.717,1.325 2.12,1.502 2.4,1.511 2.717,1.53 2.998,1.381 3.193,1.119 3.8,-0.01 4.201,-0.868 4.46,-1.503 2.463,-0.841 0.982,-0.309 0,0 Z M 23.433,0.662 C 23.042,0.831 21.727,1.717 19.486,3.323 17.714,4.59 16.378,5.273 15.429,5.394 13.654,5.616 12.339,4.648 11.479,2.51 l 0.048,-0.327 c 0.055,0.029 0.383,0.114 0.904,0.291 0.392,0.111 0.72,0.147 0.989,0.111 C 14.007,2.519 14.793,2.174 15.772,1.53 16.574,0.989 17.246,0.466 17.78,-0.084 17.414,-0.402 16.2,-0.568 14.214,-0.645 12.365,-0.701 9.211,-0.431 9.211,-0.431 8.148,-0.317 7.129,0.075 6.225,0.783 6.169,0.858 5.553,1.474 4.349,2.651 3.725,3.257 3.116,3.545 2.614,3.527 1.979,3.489 1.177,2.976 0.178,2.006 -1.081,0.709 -1.783,-0.01 -1.997,-0.177 -2.621,-0.568 -3.341,-0.804 -4.116,-0.963 -4.423,-1.008 -6.383,-1.196 -6.383,-1.196 l -0.746,-0.037 c -1.045,0.122 -1.95,0.495 -2.744,1.178 -0.494,0.473 -1.251,1.315 -2.166,2.611 l -1.045,-3.863 c 0.214,-0.449 0.794,-1.121 1.746,-2.044 0.838,-0.831 1.297,-1.559 1.411,-2.231 0.251,-1.446 -0.842,-2.894 -3.279,-4.33 -2.061,-1.211 -4.013,-1.961 -5.87,-2.238 l -0.904,-0.122 c 0.822,-0.42 1.949,-0.793 3.397,-1.148 1.409,-0.365 2.539,-0.45 3.396,-0.299 2.605,0.458 4.415,3.36 5.386,8.679 l 3.005,0.374 c 0.916,0.045 1.894,0.532 2.892,1.492 0.579,-0.569 1.568,-1.071 2.912,-1.492 1.252,-0.374 2.408,-0.561 3.36,-0.514 0.505,0.027 0.904,0.252 1.111,0.699 0.206,0.449 0.41,0.86 0.579,1.307 0.989,-0.598 1.175,-0.735 1.913,-0.868 0.738,-0.13 4.629,0.055 7.177,0.551 2.5,0.486 4.404,0.653 5.719,0.494 0.365,-0.045 0.945,-0.158 1.794,-0.381 0.838,-0.236 1.473,-0.394 1.883,-0.402 l 0.505,-0.018 c 1.445,1.306 2.529,2.258 3.21,2.894 -2.146,0.513 -3.742,1.026 -4.826,1.566"
         style="fill:#231f20;fill-opacity:1;fill-rule:nonzero;stroke:none"
         transform="matrix(1.3333333,0,0,-1.3333333,160.908,37.112)" />
      <path
         id="path9"
         d="m 0,0 c -0.532,0.121 -1.101,0.495 -1.718,1.084 0.159,0.492 0.559,0.651 1.326,0.473 C -0.31,1.539 -0.178,1.475 -0.012,1.391 0.158,1.317 0.28,1.251 0.372,1.222 0.502,1.195 0.716,1.317 1.1,1.55 1.484,1.793 1.661,1.96 1.687,2.071 1.763,2.428 1.491,2.688 0.915,2.819 0.203,2.978 -0.646,2.764 -1.588,2.118 -2.522,1.465 -3.08,0.859 -3.22,0.232 c -0.066,-0.269 0.104,-0.55 0.466,-0.839 0.28,-0.187 0.605,-0.42 0.885,-0.605 -0.867,-1.158 -1.344,-1.82 -1.399,-2.052 L -3.324,-3.545 C -1.755,-2.379 0.14,-1.466 2.34,-0.813 2.798,0.15 3.049,0.663 3.078,0.785 1.399,0.177 0.354,-0.082 0,0"
         style="fill:#231f20;fill-opacity:1;fill-rule:nonzero;stroke:none"
         transform="matrix(1.3333333,0,0,-1.3333333,209.528,16.938667)" />
      <path
         id="path10"
         d="M 0,0 C -0.495,0.738 -0.738,1.185 -0.73,1.392 L -1.14,0.971 C -2.277,0.026 -2.857,-0.466 -2.876,-0.506 l 0.019,-0.092 c -0.103,-2.378 -0.251,-4.003 -0.503,-4.806 -0.542,-1.792 -1.222,-3.088 -2.034,-3.882 -0.645,2.12 -1.521,4.424 -2.587,6.868 -1.595,3.573 -2.828,5.489 -3.696,5.749 L -12.02,3.312 c -0.225,-0.598 -0.44,-1.119 -0.561,-1.54 -0.374,-1.222 -0.094,-2.183 0.786,-2.902 1.351,-1.037 2.451,-2.455 3.338,-4.264 0.365,-0.823 1.008,-2.474 1.838,-4.937 -0.196,-0.486 -0.894,-0.897 -2.135,-1.222 -1.513,-0.42 -2.417,-0.73 -2.65,-0.87 -1.148,-1.109 -1.979,-1.976 -2.466,-2.629 l 6.944,-2.101 c 0.923,-0.281 1.54,0.026 1.82,0.942 0.588,1.949 0.68,3.669 0.225,5.143 1.149,1.11 2.145,2.688 2.928,4.787 0.813,2.212 1.68,3.818 2.614,4.834 0.038,-0.019 0.085,-0.027 0.093,0.01 C 0.801,-1.289 0.569,-0.794 0,0 Z m -9.015,-12.896 c 0.764,0.184 1.746,0.558 2.901,1.081 0.111,-0.745 0.189,-1.439 0.159,-2.007 l -3.06,0.926"
         style="fill:#231f20;fill-opacity:1;fill-rule:nonzero;stroke:none"
         transform="matrix(1.3333333,0,0,-1.3333333,222.144,27.393333)" />
      <path
         id="path11"
         d="M 0,0 C 0.757,2.632 1.521,5.264 2.26,7.848 0.317,6.047 -0.727,5.029 -0.875,4.703 -1.64,2.95 -2.51,0.41 -3.478,-2.913 c -0.75,-2.595 -1.504,-5.224 -2.288,-7.801 1.55,0.801 2.594,1.82 3.163,3.098 C -1.798,-5.785 -0.931,-3.249 0,0"
         style="fill:#231f20;fill-opacity:1;fill-rule:nonzero;stroke:none"
         transform="matrix(1.3333333,0,0,-1.3333333,230.18933,39.897333)" />
      <path
         id="path12"
         d="m 0,0 c 0.776,1.595 1.55,3.201 2.342,4.825 0.029,0.037 0.346,0.251 0.952,0.653 0.616,0.402 1,0.72 1.111,0.887 0.121,0.158 0.066,0.727 -0.159,1.613 -0.251,0.907 -0.167,1.673 0.233,2.26 L 4.22,10.425 C 3.826,10.256 3.305,9.893 2.633,9.332 1.913,8.771 1.455,8.354 1.233,8.026 1.093,7.83 0.989,7.512 0.878,7.11 0.783,6.59 0.683,6.272 0.625,6.114 -1.314,1.54 -3.126,-1.949 -4.787,-4.349 l -0.178,-0.167 c -2.1,-0.391 -4.069,0.056 -5.944,1.352 -1.13,0.785 -1.931,1.624 -2.352,2.547 -0.524,1.093 -0.428,2.101 0.206,3.016 0.477,0.691 1.643,1.577 3.471,2.688 -2.847,-0.506 -4.788,-1.54 -5.881,-3.109 -0.791,-1.147 -0.941,-2.491 -0.38,-4.002 0.539,-1.392 1.446,-2.558 2.836,-3.519 1.69,-1.176 3.592,-1.716 5.693,-1.568 2.099,0.151 3.668,0.953 4.684,2.436 C -1.838,-3.527 -0.989,-1.987 0,0"
         style="fill:#231f20;fill-opacity:1;fill-rule:nonzero;stroke:none"
         transform="matrix(1.3333333,0,0,-1.3333333,259.00267,61.610667)" />
      <path
         id="path13"
         d="M 0,0 -0.206,0.299 C 1.838,0.776 3.777,0.672 5.309,0.343 4.674,-0.764 3.854,-1.159 3.695,-1.278 3.33,-1.521 3.079,-1.614 2.81,-1.606 2.555,-1.672 2.183,-1.672 1.436,-1.24 0.709,-0.805 0.177,-0.262 0,0 Z m -2.093,-4.836 c -0.196,-0.632 -0.409,-0.949 -0.643,-1.167 l -0.523,-0.362 c 0,0 -0.492,0.299 -0.747,0.72 -0.261,0.418 -0.353,0.79 -0.38,1.603 -0.048,0.69 0.1,1.14 0.269,1.643 0.252,0.55 0.477,0.934 0.625,1.204 l 0.756,-1.091 c 0.672,-0.97 0.879,-1.831 0.643,-2.55 z m 19.423,1.373 c -0.037,-0.018 -0.244,-0.225 -0.635,-0.69 -0.373,-0.402 -0.645,-0.643 -0.728,-0.747 -4.422,-3.237 -7.309,-5.216 -8.69,-5.936 -0.354,-0.185 -0.69,-0.055 -1.053,0.373 -0.291,0.31 -0.859,1.858 -1.558,2.979 -0.701,1.119 -2.838,4.423 -2.838,4.423 1.55,0.075 2.865,0.484 4.013,1.278 1.576,1.092 2.473,2.034 2.68,2.857 -3.082,0.802 -6.31,0.849 -9.606,0.064 0,0 -1.23,1.727 -1.994,3.097 -0.776,1.373 0.241,4.268 3.087,8.262 1.203,1.621 3.089,3.918 5.712,6.933 -1.943,-0.176 -3.183,-0.561 -3.752,-1.121 -2.137,-2.09 -3.481,-3.342 -4.124,-3.778 -1.587,-1.111 -3.397,-1.72 -5.404,-1.775 2.594,5.282 3.078,10.547 1.457,15.801 -0.494,-0.232 -0.879,-0.476 -1.159,-0.757 -0.542,-0.532 -0.96,-1.129 -1.222,-1.827 -0.306,-0.89 -0.243,-1.58 0.299,-2.138 0.672,-0.682 0.857,-2.473 0.58,-5.376 -0.199,-1.912 -0.487,-3.79 -0.916,-5.685 -1.793,0.17 -3.622,0.672 -5.412,1.54 -1.112,0.506 -2.792,1.484 -5.04,2.931 0.754,-1.753 1.902,-3.433 3.404,-4.973 1.916,-1.961 4.305,-2.688 7.17,-2.249 2.201,0.373 4.405,1.371 6.598,3.006 l 0.066,-0.066 C -2.902,11.309 -4.079,9.651 -5.217,8.026 -6.72,5.515 -7.037,3.751 -6.217,2.743 l 1.709,-2.736 c 0,0 -1.905,-1.398 -2.278,-3.592 -0.206,-1.192 0.075,-2.285 0.831,-3.367 1.374,-1.989 3.453,-2.053 6.272,-0.159 l 0.839,-1.317 1.418,-2.715 c 1.203,-2.306 2.68,-2.968 4.452,-2.045 1.093,0.57 2.632,1.588 4.637,2.995 1.99,1.458 3.529,2.473 4.622,3.045 0.494,0.26 1.511,0.473 3.068,0.68 0.189,0.252 0.366,0.757 0.591,1.54 0.195,0.83 0.362,1.277 0.483,1.391 0.466,0.399 0.765,0.606 0.776,0.662 -1.595,0.14 -2.884,-0.064 -3.873,-0.588"
         style="fill:#231f20;fill-opacity:1;fill-rule:nonzero;stroke:none"
         transform="matrix(1.3333333,0,0,-1.3333333,281.32,95.701333)" />
      <path
         id="path14"
         d="M 0,0 C 2.307,1.465 4.622,2.939 6.889,4.396 4.238,4.319 2.783,4.256 2.456,4.105 0.72,3.293 -1.613,1.967 -4.534,0.111 -6.801,-1.334 -9.115,-2.81 -11.412,-4.22 -9.714,-4.638 -8.259,-4.575 -6.989,-3.984 -5.176,-3.146 -2.846,-1.821 0,0"
         style="fill:#231f20;fill-opacity:1;fill-rule:nonzero;stroke:none"
         transform="matrix(1.3333333,0,0,-1.3333333,305.276,115.67867)" />
      <path
         id="path15"
         d="M 0,0 C 1.643,0.484 2.323,1.923 2.053,3.74 1.632,6.531 -1,7.232 -3.474,6.849 -5.937,6.475 -8.241,5.039 -7.811,2.238 c 0.298,-2.016 1.642,-3.003 3.573,-2.884 l 0.653,-4.328 c -4.311,-0.412 -7.306,2.352 -7.941,6.561 -0.764,5.028 2.585,8.865 7.399,9.592 C 0.69,11.917 5.029,9.238 5.786,4.209 6.336,0.624 4.637,-3.604 0.654,-4.331 L 0,0"
         style="fill:#000000;fill-opacity:1;fill-rule:nonzero;stroke:none"
         transform="matrix(1.3333333,0,0,-1.3333333,35.089333,202.82533)" />
      <path
         id="path16"
         d="m 0,0 1.081,-3.508 c 0.381,-1.259 1.271,-1.727 2.482,-1.354 1.195,0.365 1.436,1.475 1.082,2.65 L 3.618,1.111 Z M 5.681,6.328 8.2,-1.857 C 9.078,-4.693 8.657,-7.875 5.412,-8.876 3.684,-9.407 1.78,-9.079 0.613,-7.595 L 0.568,-7.606 c 0.122,-1.838 -1.642,-2.92 -3.126,-3.526 -0.665,-0.254 -3.006,-1.045 -3.416,-1.793 l -1.28,4.144 c 0.431,0.522 1.99,1.073 2.428,1.26 1.585,0.616 3.164,1.392 2.556,3.349 l -0.971,3.175 -5.852,-1.802 -1.286,4.179 16.06,4.948"
         style="fill:#000000;fill-opacity:1;fill-rule:nonzero;stroke:none"
         transform="matrix(1.3333333,0,0,-1.3333333,36.364,215.64)" />
      <path
         id="path17"
         d="M 0,0 C 1.223,-2.548 3.948,-2.436 6.187,-1.354 8.437,-0.281 10.219,1.784 8.995,4.33 7.764,6.868 5.048,6.764 2.799,5.683 0.551,4.6 -1.222,2.548 0,0 Z M 12.383,5.963 C 14.68,1.185 12.476,-3.192 8.09,-5.302 3.696,-7.42 -1.103,-6.402 -3.396,-1.635 -5.693,3.135 -3.491,7.513 0.905,9.629 5.291,11.74 10.087,10.732 12.383,5.963"
         style="fill:#000000;fill-opacity:1;fill-rule:nonzero;stroke:none"
         transform="matrix(1.3333333,0,0,-1.3333333,37.949333,242.60933)" />
      <path
         id="path18"
         d="m 0,0 2.315,-3.714 -14.259,-8.894 -2.314,3.724 L 0,0"
         style="fill:#000000;fill-opacity:1;fill-rule:nonzero;stroke:none"
         transform="matrix(1.3333333,0,0,-1.3333333,59.578667,245.268)" />
      <path
         id="path19"
         d="M 0,0 C -1.514,-1.277 -1.27,-2.633 -0.141,-4.116 0.661,-5.15 1.865,-5.955 2.854,-5.188 4.032,-4.294 2.799,-2.212 1.865,0.121 0.942,2.444 0.27,5.106 2.714,6.982 5.627,9.222 9.015,7.158 10.936,4.659 12.97,2.008 13.737,-1.651 10.74,-3.976 L 8.071,-0.503 C 9.332,0.373 8.846,1.812 8.034,2.875 7.458,3.622 6.486,4.359 5.598,3.677 4.571,2.894 5.87,0.823 6.812,-1.528 7.746,-3.873 8.343,-6.505 5.934,-8.351 c -3.379,-2.596 -6.672,-0.551 -8.921,2.377 -2.352,3.072 -3.079,6.805 0.318,9.448 L 0,0"
         style="fill:#000000;fill-opacity:1;fill-rule:nonzero;stroke:none"
         transform="matrix(1.3333333,0,0,-1.3333333,54.493333,264.60133)" />
      <path
         id="path20"
         d="M 0,0 C -1.336,-1.466 -0.915,-2.783 0.402,-4.098 1.334,-5.032 2.633,-5.656 3.519,-4.781 4.563,-3.725 3.061,-1.831 1.828,0.362 0.617,2.547 -0.401,5.095 1.773,7.278 4.367,9.872 7.998,8.277 10.227,6.048 12.598,3.685 13.831,0.159 11.172,-2.54 L 8.071,0.558 C 9.201,1.585 8.54,2.958 7.587,3.899 6.926,4.563 5.852,5.169 5.077,4.386 4.161,3.46 5.711,1.585 6.963,-0.627 8.193,-2.82 9.127,-5.349 6.982,-7.505 3.966,-10.518 0.44,-8.923 -2.175,-6.309 -4.91,-3.584 -6.121,0.026 -3.097,3.098 L 0,0"
         style="fill:#000000;fill-opacity:1;fill-rule:nonzero;stroke:none"
         transform="matrix(1.3333333,0,0,-1.3333333,67.232,279.888)" />
      <path
         id="path21"
         d="M 0,0 3.042,-2.304 5.117,3.508 5.077,3.537 Z M 6.151,8.577 9.698,5.881 4.545,-11.301 0.908,-8.539 1.905,-5.515 -2.77,-1.978 -5.43,-3.732 -9.015,-1.018 6.151,8.577"
         style="fill:#000000;fill-opacity:1;fill-rule:nonzero;stroke:none"
         transform="matrix(1.3333333,0,0,-1.3333333,83.873333,293.89867)" />
      <path
         id="path22"
         d="m 0,0 3.939,-2.174 0.093,-11.889 0.037,-0.021 5.013,9.063 3.603,-1.998 -8.13,-14.708 -3.938,2.175 -0.037,11.991 -0.038,0.03 -5.076,-9.164 -3.603,1.986 L 0,0"
         style="fill:#000000;fill-opacity:1;fill-rule:nonzero;stroke:none"
         transform="matrix(1.3333333,0,0,-1.3333333,102.244,290.17333)" />
      <path
         id="path23"
         d="m 0,0 -4.685,1.793 -4.666,-12.171 -4.087,1.568 4.674,12.18 -4.685,1.791 1.355,3.518 L 1.353,3.519 0,0"
         style="fill:#000000;fill-opacity:1;fill-rule:nonzero;stroke:none"
         transform="matrix(1.3333333,0,0,-1.3333333,134.81333,310.88133)" />
      <path
         id="path24"
         d="M 0,0 0.963,3.246 7.98,1.175 7.018,-2.07 0,0"
         style="fill:#000000;fill-opacity:1;fill-rule:nonzero;stroke:none"
         transform="matrix(1.3333333,0,0,-1.3333333,128.54933,320.27867)" />
      <path
         id="path25"
         d="M 0,0 3.622,-0.634 C 4.918,-0.868 5.73,-0.291 5.955,0.961 6.169,2.193 5.291,2.92 4.087,3.128 L 0.654,3.733 Z M -3.053,7.942 5.384,6.457 C 8.306,5.955 10.958,4.124 10.367,0.783 10.05,-0.999 8.902,-2.539 7.045,-2.912 L 7.037,-2.96 C 8.725,-3.687 8.883,-5.74 8.743,-7.346 8.669,-8.044 8.315,-10.5 8.791,-11.2 l -4.264,0.748 c -0.281,0.624 -0.066,2.257 -0.03,2.733 0.177,1.691 0.206,3.455 -1.82,3.809 l -3.264,0.569 -1.056,-6.028 -4.311,0.755 2.901,16.556"
         style="fill:#000000;fill-opacity:1;fill-rule:nonzero;stroke:none"
         transform="matrix(1.3333333,0,0,-1.3333333,147.48,318.63467)" />
      <path
         id="path26"
         d="M 0,0 C 2.829,-0.026 3.937,2.444 3.966,4.947 3.996,7.439 2.94,9.949 0.111,9.976 -2.705,10.013 -3.817,7.531 -3.845,5.04 -3.883,2.539 -2.827,0.029 0,0 Z M 0.159,13.749 C 5.458,13.682 8.4,9.762 8.342,4.891 8.286,0.019 5.255,-3.825 -0.047,-3.769 c -5.291,0.066 -8.241,3.984 -8.185,8.856 0.067,4.871 3.098,8.725 8.391,8.662"
         style="fill:#000000;fill-opacity:1;fill-rule:nonzero;stroke:none"
         transform="matrix(1.3333333,0,0,-1.3333333,172.16267,329.516)" />
      <path
         id="path27"
         d="m 0,0 c 0.605,-4.834 -1.314,-7.521 -6.365,-8.146 -5.05,-0.627 -7.557,1.503 -8.166,6.336 l -1.212,9.791 4.339,0.539 1.251,-10.042 c 0.27,-2.153 1.193,-3.153 3.322,-2.883 2.127,0.262 2.781,1.457 2.519,3.603 L -5.563,9.251 -1.222,9.79 0,0"
         style="fill:#000000;fill-opacity:1;fill-rule:nonzero;stroke:none"
         transform="matrix(1.3333333,0,0,-1.3333333,204.43733,322.51733)" />
      <path
         id="path28"
         d="m 0,0 -2.714,-0.765 -0.757,1.699 c -0.662,-1.883 -2.407,-2.969 -3.91,-3.387 -4.891,-1.38 -9.119,1.456 -10.444,6.148 -1.325,4.685 0.786,9.325 5.685,10.707 3.35,0.951 7.436,0.167 8.968,-3.781 L -7.391,9.436 c -0.521,1.344 -2.117,1.791 -3.815,1.315 -2.727,-0.765 -3.082,-3.461 -2.41,-5.87 0.683,-2.397 2.399,-4.505 5.124,-3.733 2.082,0.59 3.212,1.96 3.024,3.5 L -8.418,3.809 -9.304,6.937 -2.5,8.857 0,0"
         style="fill:#000000;fill-opacity:1;fill-rule:nonzero;stroke:none"
         transform="matrix(1.3333333,0,0,-1.3333333,229.336,325.336)" />
      <path
         id="path29"
         d="m 0,0 12.216,5.487 1.439,-3.201 -8.221,-3.696 1.204,-2.68 7.52,3.371 1.382,-3.09 -7.514,-3.378 1.308,-2.921 8.446,3.789 1.539,-3.435 L 6.889,-15.336 0,0"
         style="fill:#000000;fill-opacity:1;fill-rule:nonzero;stroke:none"
         transform="matrix(1.3333333,0,0,-1.3333333,223.64267,303.48533)" />
      <path
         id="path30"
         d="m 0,0 -4.09,-2.902 7.543,-10.64 -3.575,-2.529 -7.542,10.64 -4.087,-2.901 -2.182,3.068 L -2.185,3.072 0,0"
         style="fill:#000000;fill-opacity:1;fill-rule:nonzero;stroke:none"
         transform="matrix(1.3333333,0,0,-1.3333333,265.25333,285.352)" />
      <path
         id="path31"
         d="m 0,0 c 3.331,-3.556 3.367,-6.852 -0.336,-10.334 -3.714,-3.478 -7,-3.246 -10.341,0.31 l -6.749,7.185 3.193,2.997 6.926,-7.373 c 1.482,-1.579 2.825,-1.839 4.386,-0.373 1.567,1.463 1.389,2.825 -0.095,4.404 L -9.949,4.19 -6.757,7.184 0,0"
         style="fill:#000000;fill-opacity:1;fill-rule:nonzero;stroke:none"
         transform="matrix(1.3333333,0,0,-1.3333333,285.10133,277.88)" />
      <path
         id="path32"
         d="M 0,0 2.791,3.526 14.541,1.669 14.568,1.707 6.449,8.137 9.007,11.365 22.173,0.931 19.386,-2.595 7.55,-0.664 7.523,-0.701 15.735,-7.206 13.18,-10.433 0,0"
         style="fill:#000000;fill-opacity:1;fill-rule:nonzero;stroke:none"
         transform="matrix(1.3333333,0,0,-1.3333333,276.49467,267.85333)" />
      <path
         id="path33"
         d="M 0,0 2.344,3.696 16.536,-5.299 14.196,-9.004 0,0"
         style="fill:#000000;fill-opacity:1;fill-rule:nonzero;stroke:none"
         transform="matrix(1.3333333,0,0,-1.3333333,289.17467,251.14933)" />
      <path
         id="path34"
         d="M 0,0 C 1.802,-0.802 2.921,0 3.762,1.662 4.357,2.839 4.556,4.268 3.434,4.826 2.109,5.498 0.783,3.482 -0.923,1.625 c -1.69,-1.839 -3.791,-3.593 -6.542,-2.202 -3.278,1.651 -2.894,5.599 -1.477,8.408 1.503,2.986 4.472,5.264 7.868,3.574 L -3.053,7.495 C -4.378,8.252 -5.468,7.188 -6.076,5.992 -6.494,5.153 -6.737,3.958 -5.748,3.455 -4.593,2.876 -3.285,4.928 -1.576,6.804 0.122,8.661 2.241,10.341 4.947,8.971 8.754,7.055 8.333,3.201 6.672,-0.1 4.937,-3.545 1.886,-5.823 -1.968,-3.909 L 0,0"
         style="fill:#000000;fill-opacity:1;fill-rule:nonzero;stroke:none"
         transform="matrix(1.3333333,0,0,-1.3333333,308.78933,247.37467)" />
      <path
         id="path35"
         d="M 0,0 1.577,4.087 17.256,-1.979 15.677,-6.066 0,0"
         style="fill:#000000;fill-opacity:1;fill-rule:nonzero;stroke:none"
         transform="matrix(1.3333333,0,0,-1.3333333,301.56933,227.86133)" />
      <path
         id="path36"
         d="M 0,0 3.563,12.907 6.941,11.981 4.545,3.282 7.38,2.51 9.573,10.441 12.841,9.547 10.647,1.602 13.735,0.753 16.2,9.666 19.822,8.669 16.2,-4.471 0,0"
         style="fill:#000000;fill-opacity:1;fill-rule:nonzero;stroke:none"
         transform="matrix(1.3333333,0,0,-1.3333333,304.51867,220.8)" />
      <path
         id="path37"
         d="M 0,0 0.572,4.461 11.581,8.94 11.592,8.987 1.317,10.294 1.838,14.381 18.507,12.254 17.938,7.791 6.814,3.331 6.804,3.283 17.193,1.961 16.668,-2.129 0,0"
         style="fill:#000000;fill-opacity:1;fill-rule:nonzero;stroke:none"
         transform="matrix(1.3333333,0,0,-1.3333333,309.38933,203.15467)" />
    </g>
  </g>
</svg>
