<?xml version="1.0" encoding="UTF-8" standalone="no"?>
<!-- Created with Inkscape (http://www.inkscape.org/) -->

<svg
   version="1.1"
   id="svg1"
   width="359.33334"
   height="359.33334"
   viewBox="0 0 359.33334 359.33334"
   sodipodi:docname="Red_Crescent_TUNISIA.svg"
   inkscape:version="1.3.2 (091e20e, 2023-11-25, custom)"
   xmlns:inkscape="http://www.inkscape.org/namespaces/inkscape"
   xmlns:sodipodi="http://sodipodi.sourceforge.net/DTD/sodipodi-0.dtd"
   xmlns="http://www.w3.org/2000/svg"
   xmlns:svg="http://www.w3.org/2000/svg">
  <defs
     id="defs1">
    <clipPath
       clipPathUnits="userSpaceOnUse"
       id="clipPath3">
      <path
         d="M 0,269.5 H 269.5 V 0.06 L 0,0.06 Z"
         transform="translate(-268,-134.75)"
         id="path3" />
    </clipPath>
  </defs>
  <sodipodi:namedview
     id="namedview1"
     pagecolor="#ffffff"
     bordercolor="#666666"
     borderopacity="1.0"
     inkscape:showpageshadow="2"
     inkscape:pageopacity="0.0"
     inkscape:pagecheckerboard="0"
     inkscape:deskcolor="#d1d1d1"
     inkscape:export-bgcolor="#ffffffff"
     inkscape:zoom="2.2847866"
     inkscape:cx="179.66667"
     inkscape:cy="179.66667"
     inkscape:window-width="1920"
     inkscape:window-height="1017"
     inkscape:window-x="-8"
     inkscape:window-y="-8"
     inkscape:window-maximized="1"
     inkscape:current-layer="g1">
    <inkscape:page
       x="0"
       y="0"
       inkscape:label="Red_Crescent_TUNISIA.eps"
       id="page1"
       width="359.33334"
       height="359.33334"
       margin="0"
       bleed="0"
       inkscape:export-filename="Red_Crescent_TUNISIA.png"
       inkscape:export-xdpi="300"
       inkscape:export-ydpi="300" />
  </sodipodi:namedview>
  <g
     id="g1"
     inkscape:groupmode="layer"
     inkscape:label="Red_Crescent_TUNISIA.eps">
    <g
       id="group-MC1">
      <path
         id="path2"
         d="M 0,0 C 0,73.592 -59.658,133.25 -133.25,133.25 -206.842,133.25 -266.5,73.592 -266.5,0 c 0,-73.592 59.658,-133.25 133.25,-133.25 C -59.658,-133.25 0,-73.592 0,0 Z"
         style="fill:none;stroke:#ee2528;stroke-width:3;stroke-linecap:butt;stroke-linejoin:miter;stroke-miterlimit:4;stroke-dasharray:none;stroke-opacity:1"
         transform="matrix(1.3333333,0,0,-1.3333333,357.33333,179.66667)"
         clip-path="url(#clipPath3)" />
      <path
         id="path4"
         d="m 0,0 c 0,47.634 -38.615,86.25 -86.25,86.25 -47.634,0 -86.25,-38.616 -86.25,-86.25 0,-47.635 38.616,-86.25 86.25,-86.25 C -38.615,-86.25 0,-47.635 0,0 Z"
         style="fill:none;stroke:#ee2528;stroke-width:3;stroke-linecap:butt;stroke-linejoin:miter;stroke-miterlimit:4;stroke-dasharray:none;stroke-opacity:1"
         transform="matrix(1.3333333,0,0,-1.3333333,294.66667,179.66667)" />
      <path
         id="path5"
         d="m 0,0 c -29.318,0 -54.638,-16.471 -66.527,-40.324 10.003,15.796 27.879,26.324 48.276,26.324 31.342,0 56.75,-24.845 56.75,-55.492 0,-30.647 -25.408,-55.492 -56.75,-55.492 -24.207,0 -44.861,14.826 -53.017,35.693 C -62.885,-119.637 -34.16,-142 0,-142 c 40.732,0 73.75,31.787 73.75,71 C 73.75,-31.788 40.732,0 0,0"
         style="fill:#ee2528;fill-opacity:1;fill-rule:nonzero;stroke:none"
         transform="matrix(1.3333333,0,0,-1.3333333,181.00133,85.333333)" />
      <path
         id="path6"
         d="M 0,0 C 0.79,1.629 1.578,3.26 2.393,4.923 2.415,4.956 2.739,5.178 3.361,5.586 3.986,5.997 4.378,6.318 4.492,6.485 4.611,6.652 4.557,7.232 4.332,8.131 4.069,9.057 4.154,9.837 4.572,10.439 L 4.304,10.624 C 3.903,10.456 3.365,10.087 2.687,9.518 1.947,8.941 1.487,8.52 1.255,8.185 1.114,7.985 1.005,7.664 0.89,7.25 0.802,6.716 0.695,6.396 0.64,6.236 -1.344,1.575 -3.192,-1.993 -4.885,-4.433 l -0.177,-0.174 c -2.142,-0.396 -4.152,0.056 -6.065,1.382 -1.147,0.795 -1.965,1.659 -2.39,2.597 -0.534,1.111 -0.444,2.138 0.203,3.074 0.489,0.702 1.68,1.607 3.542,2.741 -2.903,-0.512 -4.879,-1.567 -5.99,-3.171 -0.811,-1.17 -0.97,-2.544 -0.394,-4.082 0.547,-1.417 1.478,-2.607 2.894,-3.588 1.721,-1.193 3.661,-1.745 5.802,-1.597 2.142,0.149 3.736,0.976 4.777,2.48 C -1.872,-3.601 -1.007,-2.024 0,0 Z"
         style="fill:none;stroke:#ee2528;stroke-width:0.1;stroke-linecap:butt;stroke-linejoin:miter;stroke-miterlimit:4;stroke-dasharray:none;stroke-opacity:1"
         transform="matrix(1.3333333,0,0,-1.3333333,264.072,62.82)" />
      <path
         id="path7"
         d="M 0,0 C 2.353,1.498 4.709,2.997 7.025,4.479 4.324,4.409 2.834,4.336 2.504,4.183 0.731,3.363 -1.646,2.009 -4.625,0.119 -6.941,-1.363 -9.297,-2.861 -11.634,-4.3 -9.91,-4.734 -8.419,-4.661 -7.127,-4.064 -5.28,-3.21 -2.904,-1.856 0,0 Z"
         style="fill:none;stroke:#ee2528;stroke-width:0.1;stroke-linecap:butt;stroke-linejoin:miter;stroke-miterlimit:4;stroke-dasharray:none;stroke-opacity:1"
         transform="matrix(1.3333333,0,0,-1.3333333,311.25333,117.94933)" />
      <path
         id="path8"
         d="m 0,0 c -0.126,0.703 -0.8,1.738 -2.015,3.106 -0.541,0.607 -1.453,1.211 -2.708,1.783 -0.989,0.481 -1.985,0.9 -3.009,1.351 0.073,-1.623 0.181,-2.725 0.316,-3.367 l 4.5,-2.256 -0.093,-0.246 -4.842,-4.309 c -2.059,-1.836 -3.094,-2.446 -4.266,-2.006 -0.257,0.215 -0.841,0.894 -1.394,0.933 0.517,-1.531 0.965,-2.64 1.346,-3.388 -0.147,-0.363 -0.356,-0.674 -0.625,-0.994 -0.692,-0.819 -1.326,-1.319 -1.935,-1.536 -0.343,0.35 -0.71,1.237 -1.223,1.641 -0.514,0.402 -0.895,0.328 -0.895,0.328 0.9,-2.403 0.929,-4.279 -0.032,-5.418 -0.09,-0.107 -1.716,-2.242 -1.716,-2.242 -0.072,-0.103 -0.137,-0.195 -0.196,-0.283 -0.186,-0.268 -0.338,-0.276 -0.454,-0.083 -0.356,0.7 -0.753,1.199 -1.22,1.523 l -0.704,0.485 c -0.032,-0.261 0.003,-0.567 0.072,-0.897 0.348,-1.429 0.414,-2.55 0.198,-3.363 -0.104,-0.437 -0.585,-1.349 -1.411,-2.759 l -0.205,-0.296 -0.003,0.002 -0.023,-0.039 -0.291,-0.495 c 0,0 -2.814,-4.105 -3.28,-4.83 -0.467,-0.726 -0.893,-1.93 -1.093,-2.594 -0.199,-0.663 -0.291,-2.235 0.402,-3.906 0.657,-1.655 1.611,-2.727 2.805,-3.245 0.82,-0.356 1.565,-0.375 2.142,-0.067 0.316,0.218 0.782,0.676 1.376,1.433 0.632,0.742 1.17,1.269 1.691,1.55 0.285,-1.899 -0.138,-4.1 -1.249,-6.663 -0.61,-1.409 -1.428,-2.475 -2.414,-3.215 -1.134,-0.777 -2.307,-0.927 -3.501,-0.41 -0.933,0.404 -2.335,1.773 -4.204,4.106 0.997,-3.527 2.718,-5.796 5.068,-6.815 1.567,-0.679 3.095,-0.53 4.565,0.406 1.301,0.856 2.378,2.215 3.174,4.052 0.909,2.093 1.331,4.294 1.212,6.578 -0.118,2.69 -1.055,4.415 -2.734,5.143 -0.672,0.292 -1.584,-0.176 -2.717,-1.359 -0.798,-0.922 -1.616,-1.785 -2.415,-2.707 -0.34,1.466 -0.378,2.299 0.435,4.377 0.814,2.078 4.182,6.858 4.182,6.858 l 5.157,7.424 c 0.27,0.32 0.45,0.596 0.506,0.853 0.052,0.503 0.136,0.981 0.188,1.484 1.187,0.399 2.126,1.008 2.848,1.862 0.539,0.641 0.805,1.208 0.767,1.667 -0.101,0.511 -0.202,1.085 -0.306,1.657 0.583,-0.003 1.314,0.232 2.164,0.673 0.772,0.4 1.429,0.904 2.023,1.375 l 4.111,3.629 C -0.464,-2.21 0.178,-1.04 0,0 Z m -10.046,7.229 -2.851,-0.087 -0.337,-2.913 2.905,0.027 c 0.287,1.288 0.375,2.239 0.283,2.973 z m -2.652,-46.382 -2.698,-1.215 0.865,-2.708 -2.568,-1.221 0.957,-2.799 c 1.452,0.689 2.308,1.129 2.55,1.279 -0.132,0.615 -0.376,1.482 -0.752,2.66 1.395,0.663 2.214,1.12 2.455,1.269 -0.32,1.204 -0.583,2.13 -0.809,2.735"
         style="fill:#ee2528;fill-opacity:1;fill-rule:nonzero;stroke:none"
         transform="matrix(1.3333333,0,0,-1.3333333,81.718667,74.377333)" />
      <path
         id="path9"
         d="m 0,0 c -0.126,0.703 -0.8,1.738 -2.015,3.106 -0.541,0.607 -1.453,1.211 -2.708,1.783 -0.989,0.481 -1.985,0.9 -3.009,1.351 0.073,-1.623 0.181,-2.725 0.316,-3.367 l 4.5,-2.256 -0.093,-0.246 -4.842,-4.309 c -2.059,-1.836 -3.094,-2.446 -4.266,-2.006 -0.257,0.215 -0.841,0.894 -1.394,0.933 0.517,-1.531 0.965,-2.64 1.346,-3.388 -0.147,-0.363 -0.356,-0.674 -0.625,-0.994 -0.692,-0.819 -1.326,-1.319 -1.935,-1.536 -0.343,0.35 -0.71,1.237 -1.223,1.641 -0.514,0.402 -0.895,0.328 -0.895,0.328 0.9,-2.403 0.929,-4.279 -0.032,-5.418 -0.09,-0.107 -1.716,-2.242 -1.716,-2.242 -0.072,-0.103 -0.137,-0.195 -0.196,-0.283 -0.186,-0.268 -0.338,-0.276 -0.454,-0.083 -0.356,0.7 -0.753,1.199 -1.22,1.523 l -0.704,0.485 c -0.032,-0.261 0.003,-0.567 0.072,-0.897 0.348,-1.429 0.414,-2.55 0.198,-3.363 -0.104,-0.437 -0.585,-1.349 -1.411,-2.759 l -0.205,-0.296 -0.003,0.002 -0.023,-0.039 -0.291,-0.495 c 0,0 -2.814,-4.105 -3.28,-4.83 -0.467,-0.726 -0.893,-1.93 -1.093,-2.594 -0.199,-0.663 -0.291,-2.235 0.402,-3.906 0.657,-1.655 1.611,-2.727 2.805,-3.245 0.82,-0.356 1.565,-0.375 2.142,-0.067 0.316,0.218 0.782,0.676 1.376,1.433 0.632,0.742 1.17,1.269 1.691,1.55 0.285,-1.899 -0.138,-4.1 -1.249,-6.663 -0.61,-1.409 -1.428,-2.475 -2.414,-3.215 -1.134,-0.777 -2.307,-0.927 -3.501,-0.41 -0.933,0.404 -2.335,1.773 -4.204,4.106 0.997,-3.527 2.718,-5.796 5.068,-6.815 1.567,-0.679 3.095,-0.53 4.565,0.406 1.301,0.856 2.378,2.215 3.174,4.052 0.909,2.093 1.331,4.294 1.212,6.578 -0.118,2.69 -1.055,4.415 -2.734,5.143 -0.672,0.292 -1.584,-0.176 -2.717,-1.359 -0.798,-0.922 -1.616,-1.785 -2.415,-2.707 -0.34,1.466 -0.378,2.299 0.435,4.377 0.814,2.078 4.182,6.858 4.182,6.858 l 5.157,7.424 c 0.27,0.32 0.45,0.596 0.506,0.853 0.052,0.503 0.136,0.981 0.188,1.484 1.187,0.399 2.126,1.008 2.848,1.862 0.539,0.641 0.805,1.208 0.767,1.667 -0.101,0.511 -0.202,1.085 -0.306,1.657 0.583,-0.003 1.314,0.232 2.164,0.673 0.772,0.4 1.429,0.904 2.023,1.375 l 4.111,3.629 C -0.464,-2.21 0.178,-1.04 0,0 Z"
         style="fill:none;stroke:#ee2528;stroke-width:0.4;stroke-linecap:butt;stroke-linejoin:miter;stroke-miterlimit:4;stroke-dasharray:none;stroke-opacity:1"
         transform="matrix(1.3333333,0,0,-1.3333333,81.718667,74.377333)" />
      <path
         id="path10"
         d="M 0,0 -2.851,-0.087 -3.187,-3 -0.282,-2.974 C 0.004,-1.685 0.093,-0.734 0,0 Z"
         style="fill:none;stroke:#ee2528;stroke-width:0.4;stroke-linecap:butt;stroke-linejoin:miter;stroke-miterlimit:4;stroke-dasharray:none;stroke-opacity:1"
         transform="matrix(1.3333333,0,0,-1.3333333,68.324,64.738667)" />
      <path
         id="path11"
         d="m 0,0 -2.698,-1.215 0.865,-2.708 -2.568,-1.221 0.957,-2.799 c 1.452,0.689 2.307,1.129 2.55,1.279 -0.132,0.615 -0.377,1.482 -0.752,2.66 1.395,0.663 2.214,1.12 2.455,1.269 C 0.488,-1.531 0.226,-0.605 0,0 Z"
         style="fill:none;stroke:#ee2528;stroke-width:0.4;stroke-linecap:butt;stroke-linejoin:miter;stroke-miterlimit:4;stroke-dasharray:none;stroke-opacity:1"
         transform="matrix(1.3333333,0,0,-1.3333333,64.789333,126.58133)" />
      <path
         id="path12"
         d="m 0,0 c -0.713,-0.522 -1.282,-0.535 -1.69,0.023 -0.096,0.131 -0.08,0.345 0.012,0.614 0.116,0.236 0.255,0.439 0.405,0.549 0.038,0.027 0.213,0.105 0.523,0.232 0.297,0.066 0.606,0.04 0.986,-0.086 0.38,-0.125 0.722,-0.277 1.041,-0.397 z m 19.051,9.939 c -0.538,1.14 -1.504,2.753 -2.856,4.858 -1.396,2.085 -2.362,3.698 -2.899,4.838 -0.244,0.515 -0.424,1.554 -0.562,3.153 -0.247,0.198 -0.757,0.407 -1.546,0.664 -0.834,0.237 -1.285,0.429 -1.395,0.557 -0.387,0.492 -0.587,0.803 -0.646,0.82 -0.209,-1.628 -0.05,-2.947 0.436,-3.977 0.017,-0.037 0.222,-0.254 0.676,-0.671 0.393,-0.398 0.635,-0.69 0.728,-0.78 3.116,-4.646 5.004,-7.668 5.68,-9.102 C 16.841,9.931 16.693,9.591 16.239,9.243 15.914,8.954 13.27,7.842 13.27,7.842 L 12.481,7.531 C 10.548,6.667 9.545,6.392 8.64,7.144 c 0,0 -0.139,0.247 -0.459,0.72 C 7.961,8.161 7.719,8.305 7.538,8.249 7.383,6.342 7.233,5.278 7.049,4.941 6.859,4.558 5.604,3.703 5.125,3.402 4.645,3.102 3.681,2.695 3.681,2.695 3.045,3.641 2.157,4.302 1.045,4.798 -0.253,5.31 -1.402,5.224 -2.34,4.537 -3.355,3.794 -3.687,2.593 -3.437,0.912 c 0.195,-1.37 0.654,-2.547 1.374,-3.532 1.177,-1.607 2.768,-1.652 4.71,-0.129 l 1.089,0.797 c 0.286,-3.621 -1.917,-7.151 -6.575,-10.561 1.669,0.164 2.794,0.282 3.351,0.388 1.275,0.228 2.345,0.658 3.209,1.291 1.352,0.989 2.125,2.614 2.293,4.904 0.146,1.771 0.007,3.418 -0.525,5.247 0,0 1.072,0.531 1.913,1.202 0.842,0.67 1.261,1.363 1.515,2.812 0.503,-0.23 1.088,-0.32 1.835,-0.32 0.748,10e-4 1.354,0.156 1.843,0.43 l 1.357,0.721 2.82,1.33 c 2.401,1.132 3.146,2.608 2.279,4.447 z M 4.298,12.866 C 5.811,12.551 6.739,12.42 7.042,12.357 7.456,13.616 7.724,14.561 7.87,15.156 6.599,15.421 5.651,15.587 5.065,15.678 4.57,14.186 4.221,13.289 4.098,13.032 2.827,13.298 1.919,13.487 1.334,13.577 l -0.95,-2.774 2.925,-0.547 c 0.433,1.224 0.783,2.121 0.989,2.61"
         style="fill:#ee2528;fill-opacity:1;fill-rule:nonzero;stroke:none"
         transform="matrix(1.3333333,0,0,-1.3333333,90.116,64.133333)" />
      <path
         id="path13"
         d="m 0,0 c -0.713,-0.522 -1.282,-0.535 -1.69,0.023 -0.096,0.131 -0.08,0.345 0.012,0.614 0.116,0.236 0.255,0.439 0.405,0.549 0.038,0.027 0.213,0.105 0.523,0.232 0.297,0.066 0.606,0.04 0.986,-0.086 0.38,-0.125 0.722,-0.277 1.041,-0.397 z"
         style="fill:none;stroke:#ee2528;stroke-width:0.4;stroke-linecap:butt;stroke-linejoin:miter;stroke-miterlimit:4;stroke-dasharray:none;stroke-opacity:1"
         transform="matrix(1.3333333,0,0,-1.3333333,90.116,64.133333)" />
      <path
         id="path14"
         d="m 0,0 c -0.538,1.14 -1.504,2.753 -2.856,4.858 -1.396,2.085 -2.363,3.698 -2.899,4.838 -0.244,0.515 -0.425,1.554 -0.562,3.153 -0.247,0.198 -0.757,0.407 -1.547,0.664 -0.833,0.237 -1.284,0.429 -1.394,0.557 -0.387,0.492 -0.587,0.803 -0.646,0.82 -0.21,-1.628 -0.051,-2.947 0.436,-3.977 0.017,-0.037 0.222,-0.254 0.676,-0.671 0.393,-0.398 0.634,-0.69 0.728,-0.78 3.116,-4.646 5.003,-7.668 5.68,-9.102 0.174,-0.368 0.026,-0.708 -0.428,-1.056 -0.326,-0.289 -2.97,-1.401 -2.97,-1.401 L -6.57,-2.408 c -1.933,-0.864 -2.936,-1.139 -3.841,-0.387 0,0 -0.139,0.247 -0.459,0.72 -0.22,0.297 -0.462,0.441 -0.644,0.385 -0.154,-1.907 -0.304,-2.971 -0.488,-3.308 -0.19,-0.383 -1.445,-1.238 -1.925,-1.539 -0.48,-0.3 -1.444,-0.707 -1.444,-0.707 -0.635,0.946 -1.523,1.607 -2.635,2.103 -1.298,0.512 -2.448,0.426 -3.386,-0.261 -1.014,-0.743 -1.347,-1.944 -1.096,-3.625 0.195,-1.37 0.654,-2.547 1.374,-3.532 1.177,-1.607 2.767,-1.652 4.71,-0.129 l 1.089,0.797 c 0.286,-3.621 -1.917,-7.151 -6.576,-10.561 1.669,0.164 2.794,0.282 3.352,0.388 1.275,0.228 2.345,0.658 3.209,1.291 1.351,0.989 2.125,2.614 2.293,4.904 0.146,1.771 0.007,3.418 -0.525,5.247 0,0 1.071,0.531 1.913,1.202 0.841,0.67 1.261,1.363 1.514,2.812 0.504,-0.23 1.089,-0.32 1.836,-0.32 0.748,0.001 1.354,0.156 1.843,0.43 l 1.357,0.721 2.82,1.33 C 0.122,-3.315 0.867,-1.839 0,0 Z"
         style="fill:none;stroke:#ee2528;stroke-width:0.4;stroke-linecap:butt;stroke-linejoin:miter;stroke-miterlimit:4;stroke-dasharray:none;stroke-opacity:1"
         transform="matrix(1.3333333,0,0,-1.3333333,115.51733,50.881333)" />
      <path
         id="path15"
         d="M 0,0 C 1.513,-0.315 2.441,-0.446 2.744,-0.509 3.158,0.75 3.426,1.695 3.572,2.291 2.301,2.556 1.354,2.722 0.768,2.812 0.272,1.32 -0.077,0.423 -0.2,0.167 -1.471,0.432 -2.379,0.621 -2.964,0.711 l -0.95,-2.773 2.925,-0.547 C -0.556,-1.386 -0.206,-0.489 0,0 Z"
         style="fill:none;stroke:#ee2528;stroke-width:0.4;stroke-linecap:butt;stroke-linejoin:miter;stroke-miterlimit:4;stroke-dasharray:none;stroke-opacity:1"
         transform="matrix(1.3333333,0,0,-1.3333333,95.846667,46.978667)" />
      <path
         id="path16"
         d="M 0,0 C -1.343,2.446 -2.686,4.893 -4.014,7.3 -4.12,4.601 -4.143,3.11 -4.011,2.768 c 0.702,-1.821 1.901,-4.28 3.592,-7.375 1.33,-2.409 2.673,-4.855 3.956,-7.28 0.546,1.692 0.569,3.183 0.057,4.511 C 2.862,-5.479 1.665,-3.02 0,0"
         style="fill:#ee2528;fill-opacity:1;fill-rule:nonzero;stroke:#ee2528;stroke-width:0.4;stroke-linecap:butt;stroke-linejoin:round;stroke-miterlimit:4;stroke-dasharray:none;stroke-opacity:1"
         transform="matrix(1.3333333,0,0,-1.3333333,119.03067,36.225333)" />
      <path
         id="path17"
         d="M 0,0 C 0.22,0.255 0.625,0.56 1.212,0.955 1.75,1.349 2.162,1.531 2.441,1.545 2.767,1.561 3.054,1.412 3.253,1.137 3.869,-0.014 4.284,-0.888 4.55,-1.527 2.512,-0.854 0.995,-0.318 0,0 Z M 23.896,0.673 C 23.495,0.846 22.155,1.75 19.872,3.387 18.061,4.677 16.695,5.38 15.724,5.5 13.921,5.724 12.581,4.743 11.699,2.558 l 0.053,-0.334 c 0.052,0.034 0.389,0.115 0.927,0.294 C 13.07,2.634 13.403,2.674 13.68,2.64 14.281,2.565 15.082,2.219 16.079,1.563 16.902,1.01 17.586,0.474 18.126,-0.086 17.757,-0.408 16.518,-0.582 14.489,-0.658 12.608,-0.711 9.39,-0.434 9.39,-0.434 8.311,-0.324 7.267,0.072 6.347,0.801 6.294,0.879 5.658,1.499 4.436,2.702 3.799,3.322 3.178,3.617 2.667,3.592 2.015,3.56 1.202,3.031 0.179,2.044 -1.107,0.719 -1.817,-0.008 -2.041,-0.182 -2.675,-0.58 -3.409,-0.819 -4.193,-0.98 -4.51,-1.026 -6.508,-1.216 -6.508,-1.216 L -7.27,-1.253 c -1.062,0.124 -1.985,0.504 -2.794,1.191 -0.511,0.49 -1.276,1.347 -2.214,2.67 l -1.06,-3.942 c 0.22,-0.457 0.811,-1.138 1.779,-2.084 0.855,-0.842 1.317,-1.587 1.435,-2.268 0.258,-1.483 -0.854,-2.957 -3.339,-4.422 -2.1,-1.233 -4.095,-1.994 -5.982,-2.282 l -0.925,-0.12 c 0.833,-0.432 1.985,-0.809 3.466,-1.17 1.435,-0.369 2.585,-0.458 3.455,-0.306 2.66,0.464 4.506,3.427 5.498,8.844 l 3.059,0.382 c 0.931,0.045 1.931,0.542 2.953,1.529 0.589,-0.582 1.593,-1.103 2.965,-1.523 1.278,-0.386 2.452,-0.572 3.428,-0.524 0.512,0.025 0.921,0.249 1.13,0.707 0.21,0.459 0.423,0.876 0.587,1.332 1.009,-0.602 1.202,-0.751 1.955,-0.881 0.753,-0.13 4.722,0.059 7.317,0.556 2.547,0.504 4.492,0.672 5.832,0.506 0.37,-0.046 0.965,-0.161 1.827,-0.391 0.862,-0.23 1.5,-0.392 1.921,-0.403 l 0.513,-0.023 c 1.478,1.333 2.584,2.302 3.275,2.954 -2.187,0.518 -3.81,1.047 -4.915,1.594"
         style="fill:#ee2528;fill-opacity:1;fill-rule:nonzero;stroke:none"
         transform="matrix(1.3333333,0,0,-1.3333333,164.056,37.841333)" />
      <path
         id="path18"
         d="M 0,0 C 0.22,0.255 0.625,0.56 1.212,0.955 1.75,1.349 2.162,1.531 2.441,1.545 2.767,1.561 3.054,1.412 3.253,1.137 3.869,-0.014 4.284,-0.888 4.55,-1.527 2.512,-0.854 0.995,-0.318 0,0 Z"
         style="fill:none;stroke:#ee2528;stroke-width:0.4;stroke-linecap:butt;stroke-linejoin:miter;stroke-miterlimit:4;stroke-dasharray:none;stroke-opacity:1"
         transform="matrix(1.3333333,0,0,-1.3333333,164.056,37.841333)" />
      <path
         id="path19"
         d="m 0,0 c -0.401,0.173 -1.741,1.077 -4.024,2.714 -1.811,1.29 -3.177,1.993 -4.148,2.113 -1.803,0.224 -3.143,-0.757 -4.025,-2.942 l 0.053,-0.334 c 0.052,0.034 0.389,0.115 0.927,0.294 0.391,0.116 0.724,0.156 1.001,0.122 0.601,-0.075 1.402,-0.421 2.399,-1.077 0.823,-0.553 1.507,-1.089 2.047,-1.648 -0.369,-0.323 -1.608,-0.496 -3.637,-0.573 -1.881,-0.053 -5.099,0.225 -5.099,0.225 -1.079,0.11 -2.123,0.506 -3.043,1.234 -0.053,0.079 -0.689,0.699 -1.911,1.901 -0.637,0.62 -1.258,0.915 -1.769,0.89 -0.652,-0.031 -1.465,-0.561 -2.488,-1.547 -1.286,-1.326 -1.996,-2.053 -2.22,-2.226 -0.634,-0.398 -1.368,-0.638 -2.152,-0.798 -0.317,-0.047 -2.315,-0.237 -2.315,-0.237 l -0.762,-0.037 c -1.062,0.124 -1.985,0.505 -2.794,1.192 -0.511,0.489 -1.276,1.346 -2.214,2.669 l -1.06,-3.942 c 0.22,-0.457 0.811,-1.138 1.779,-2.084 0.855,-0.842 1.317,-1.587 1.435,-2.268 0.258,-1.483 -0.854,-2.956 -3.339,-4.422 -2.1,-1.233 -4.095,-1.993 -5.982,-2.281 l -0.925,-0.121 c 0.833,-0.432 1.985,-0.809 3.466,-1.17 1.435,-0.369 2.585,-0.458 3.455,-0.306 2.66,0.464 4.506,3.428 5.498,8.844 l 3.059,0.382 c 0.931,0.045 1.931,0.542 2.953,1.529 0.589,-0.582 1.593,-1.102 2.965,-1.523 1.278,-0.385 2.452,-0.572 3.428,-0.524 0.512,0.025 0.921,0.249 1.13,0.707 0.21,0.459 0.423,0.876 0.587,1.332 1.009,-0.602 1.202,-0.751 1.955,-0.881 0.753,-0.13 4.722,0.06 7.317,0.557 2.547,0.503 4.492,0.671 5.832,0.505 0.37,-0.046 0.965,-0.161 1.827,-0.391 0.862,-0.23 1.5,-0.392 1.921,-0.403 L 1.64,-4.548 c 1.478,1.333 2.584,2.302 3.275,2.954 C 2.728,-1.076 1.105,-0.546 0,0 Z"
         style="fill:none;stroke:#ee2528;stroke-width:0.4;stroke-linecap:butt;stroke-linejoin:miter;stroke-miterlimit:4;stroke-dasharray:none;stroke-opacity:1"
         transform="matrix(1.3333333,0,0,-1.3333333,195.91733,36.944)" />
      <path
         id="path20"
         d="m 0,0 c -0.544,0.123 -1.126,0.505 -1.755,1.105 0.162,0.505 0.578,0.661 1.351,0.487 0.091,-0.02 0.219,-0.09 0.392,-0.171 C 0.16,1.341 0.288,1.271 0.379,1.25 0.515,1.219 0.731,1.337 1.121,1.583 1.511,1.828 1.692,1.996 1.719,2.116 1.8,2.472 1.526,2.742 0.935,2.875 0.209,3.039 -0.652,2.816 -1.613,2.157 -2.572,1.498 -3.141,0.876 -3.286,0.241 c -0.062,-0.278 0.11,-0.567 0.476,-0.858 0.292,-0.19 0.62,-0.431 0.909,-0.622 -0.885,-1.176 -1.373,-1.858 -1.426,-2.096 L -3.39,-3.613 c 1.602,1.182 3.532,2.122 5.781,2.784 0.46,0.98 0.72,1.504 0.747,1.624 C 1.425,0.18 0.365,-0.082 0,0"
         style="fill:#ee2528;fill-opacity:1;fill-rule:nonzero;stroke:none"
         transform="matrix(1.3333333,0,0,-1.3333333,213.62667,17.272)" />
      <path
         id="path21"
         d="M 0,0 C -0.503,0.748 -0.752,1.206 -0.739,1.414 L -1.159,0.989 C -2.326,0.026 -2.916,-0.475 -2.928,-0.514 l 0.021,-0.091 c -0.106,-2.433 -0.266,-4.085 -0.514,-4.902 -0.556,-1.829 -1.247,-3.15 -2.076,-3.96 -0.661,2.156 -1.552,4.509 -2.643,7.007 -1.621,3.636 -2.878,5.59 -3.767,5.86 l -0.348,-0.022 c -0.232,-0.609 -0.444,-1.141 -0.572,-1.569 -0.378,-1.245 -0.092,-2.225 0.802,-2.964 1.382,-1.056 2.501,-2.501 3.402,-4.346 0.378,-0.837 1.033,-2.524 1.878,-5.032 -0.2,-0.493 -0.911,-0.914 -2.181,-1.252 -1.539,-0.425 -2.461,-0.74 -2.697,-0.881 -1.173,-1.132 -2.026,-2.02 -2.517,-2.679 l 7.082,-2.149 c 0.937,-0.284 1.568,0.035 1.85,0.969 0.603,1.985 0.699,3.741 0.229,5.243 1.17,1.133 2.193,2.735 2.987,4.874 0.83,2.256 1.717,3.899 2.663,4.93 0.045,-0.014 0.09,-0.027 0.101,0.012 C 0.818,-1.311 0.582,-0.813 0,0 Z m -9.193,-13.148 c 0.785,0.186 1.776,0.565 2.96,1.099 0.112,-0.756 0.19,-1.46 0.158,-2.045 l -3.118,0.946"
         style="fill:#ee2528;fill-opacity:1;fill-rule:nonzero;stroke:none"
         transform="matrix(1.3333333,0,0,-1.3333333,226.48933,27.933333)" />
      <path
         id="path22"
         d="M 0,0 C -0.503,0.748 -0.752,1.206 -0.739,1.414 L -1.159,0.989 C -2.326,0.026 -2.916,-0.475 -2.928,-0.514 l 0.021,-0.091 c -0.106,-2.433 -0.266,-4.085 -0.514,-4.902 -0.556,-1.829 -1.247,-3.15 -2.076,-3.96 -0.661,2.156 -1.552,4.509 -2.643,7.007 -1.621,3.636 -2.878,5.59 -3.767,5.86 l -0.348,-0.022 c -0.232,-0.609 -0.444,-1.141 -0.572,-1.569 -0.378,-1.245 -0.092,-2.225 0.802,-2.964 1.382,-1.056 2.501,-2.501 3.402,-4.346 0.378,-0.837 1.033,-2.524 1.878,-5.032 -0.2,-0.493 -0.911,-0.914 -2.181,-1.252 -1.539,-0.425 -2.461,-0.74 -2.697,-0.881 -1.173,-1.132 -2.026,-2.02 -2.517,-2.679 l 7.082,-2.149 c 0.937,-0.284 1.568,0.035 1.85,0.969 0.603,1.985 0.699,3.741 0.229,5.243 1.17,1.133 2.193,2.735 2.987,4.874 0.83,2.256 1.717,3.899 2.663,4.93 0.045,-0.014 0.09,-0.027 0.101,0.012 C 0.818,-1.311 0.582,-0.813 0,0 Z"
         style="fill:none;stroke:#ee2528;stroke-width:0.4;stroke-linecap:butt;stroke-linejoin:round;stroke-miterlimit:4;stroke-dasharray:none;stroke-opacity:1"
         transform="matrix(1.3333333,0,0,-1.3333333,226.48933,27.933333)" />
      <path
         id="path23"
         d="M 0,0 C 0.785,0.186 1.776,0.565 2.96,1.1 3.072,0.343 3.15,-0.361 3.118,-0.946 Z"
         style="fill:none;stroke:#ee2528;stroke-width:0.4;stroke-linecap:butt;stroke-linejoin:round;stroke-miterlimit:4;stroke-dasharray:none;stroke-opacity:1"
         transform="matrix(1.3333333,0,0,-1.3333333,214.232,45.464)" />
      <path
         id="path24"
         d="M 0,0 C 0.774,2.681 1.548,5.362 2.307,8.006 0.325,6.167 -0.741,5.128 -0.89,4.793 -1.676,3.006 -2.563,0.419 -3.548,-2.97 c -0.759,-2.643 -1.531,-5.324 -2.332,-7.949 1.579,0.815 2.649,1.855 3.223,3.157 C -1.837,-5.901 -0.951,-3.313 0,0"
         style="fill:#ee2528;fill-opacity:1;fill-rule:nonzero;stroke:#ee2528;stroke-width:0.4;stroke-linecap:butt;stroke-linejoin:round;stroke-miterlimit:4;stroke-dasharray:none;stroke-opacity:1"
         transform="matrix(1.3333333,0,0,-1.3333333,234.696,40.682667)" />
      <path
         id="path25"
         d="M 0,0 C 0.79,1.629 1.578,3.26 2.393,4.923 2.415,4.956 2.739,5.178 3.361,5.586 3.986,5.997 4.378,6.318 4.492,6.485 4.611,6.652 4.557,7.232 4.332,8.131 4.069,9.057 4.154,9.837 4.572,10.439 L 4.304,10.624 C 3.903,10.456 3.365,10.087 2.687,9.518 1.947,8.941 1.487,8.52 1.255,8.185 1.114,7.985 1.005,7.664 0.89,7.25 0.802,6.716 0.695,6.396 0.64,6.236 -1.344,1.575 -3.192,-1.993 -4.885,-4.433 l -0.177,-0.174 c -2.142,-0.396 -4.152,0.056 -6.065,1.382 -1.147,0.795 -1.965,1.659 -2.39,2.597 -0.534,1.111 -0.444,2.138 0.203,3.074 0.489,0.702 1.68,1.607 3.542,2.741 -2.903,-0.512 -4.879,-1.567 -5.99,-3.171 -0.811,-1.17 -0.97,-2.544 -0.394,-4.082 0.547,-1.417 1.478,-2.607 2.894,-3.588 1.721,-1.193 3.661,-1.745 5.802,-1.597 2.142,0.149 3.736,0.976 4.777,2.48 C -1.872,-3.601 -1.007,-2.024 0,0"
         style="fill:#ee2528;fill-opacity:1;fill-rule:nonzero;stroke:#ee2528;stroke-width:0.4;stroke-linecap:butt;stroke-linejoin:miter;stroke-miterlimit:4;stroke-dasharray:none;stroke-opacity:1"
         transform="matrix(1.3333333,0,0,-1.3333333,264.072,62.82)" />
      <path
         id="path26"
         d="M 0,0 -0.212,0.306 C 1.876,0.789 3.85,0.684 5.417,0.352 4.77,-0.785 3.934,-1.184 3.766,-1.299 3.399,-1.554 3.139,-1.649 2.864,-1.639 2.611,-1.702 2.222,-1.704 1.47,-1.262 0.719,-0.819 0.185,-0.268 0,0 Z M -2.129,-4.927 C -2.327,-5.573 -2.547,-5.899 -2.788,-6.119 L -3.325,-6.49 c 0,0 -0.499,0.303 -0.76,0.73 -0.263,0.428 -0.359,0.813 -0.389,1.641 -0.044,0.706 0.104,1.161 0.281,1.67 0.249,0.57 0.48,0.954 0.633,1.231 l 0.768,-1.11 c 0.689,-0.996 0.897,-1.869 0.663,-2.599 z m 19.796,1.399 c -0.035,-0.018 -0.244,-0.233 -0.64,-0.704 -0.383,-0.41 -0.665,-0.662 -0.751,-0.76 -4.51,-3.31 -7.45,-5.323 -8.853,-6.059 -0.36,-0.189 -0.707,-0.055 -1.073,0.383 -0.302,0.314 -0.877,1.893 -1.592,3.035 -0.714,1.142 -2.892,4.508 -2.892,4.508 1.58,0.076 2.921,0.495 4.092,1.305 1.606,1.111 2.516,2.082 2.734,2.912 -3.144,0.824 -6.436,0.865 -9.794,0.071 0,0 -1.254,1.76 -2.041,3.16 -0.787,1.399 0.25,4.345 3.15,8.418 1.226,1.654 3.149,3.992 5.829,7.069 -1.984,-0.182 -3.249,-0.575 -3.83,-1.143 -2.181,-2.133 -3.551,-3.408 -4.202,-3.848 -1.623,-1.132 -3.461,-1.756 -5.512,-1.809 2.642,5.383 3.136,10.751 1.486,16.103 -0.508,-0.236 -0.894,-0.482 -1.184,-0.766 -0.552,-0.541 -0.978,-1.152 -1.244,-1.869 -0.317,-0.897 -0.246,-1.609 0.306,-2.174 0.685,-0.699 0.879,-2.528 0.585,-5.484 -0.197,-1.951 -0.488,-3.864 -0.932,-5.795 -1.82,0.174 -3.69,0.689 -5.518,1.571 -1.133,0.518 -2.845,1.513 -5.137,2.984 0.775,-1.782 1.945,-3.501 3.476,-5.065 1.952,-1.997 4.387,-2.742 7.306,-2.296 2.25,0.377 4.493,1.399 6.731,3.066 L -1.77,13.219 C -2.961,11.531 -4.157,9.842 -5.321,8.183 -6.853,5.624 -7.173,3.827 -6.339,2.802 l 1.742,-2.797 c 0,0 -1.938,-1.424 -2.32,-3.66 -0.207,-1.213 0.075,-2.326 0.843,-3.436 1.404,-2.029 3.526,-2.09 6.393,-0.161 l 0.857,-1.344 1.449,-2.762 c 1.231,-2.35 2.736,-3.033 4.539,-2.089 1.116,0.585 2.685,1.618 4.732,3.059 2.025,1.481 3.596,2.514 4.711,3.099 0.505,0.265 1.536,0.49 3.127,0.693 0.189,0.256 0.376,0.775 0.6,1.575 0.201,0.841 0.374,1.3 0.496,1.417 0.475,0.407 0.778,0.618 0.792,0.678 -1.635,0.141 -2.947,-0.073 -3.955,-0.602"
         style="fill:#ee2528;fill-opacity:1;fill-rule:nonzero;stroke:none"
         transform="matrix(1.3333333,0,0,-1.3333333,286.82533,97.58)" />
      <path
         id="path27"
         d="M 0,0 -0.212,0.306 C 1.876,0.789 3.85,0.684 5.417,0.352 4.77,-0.785 3.934,-1.184 3.766,-1.299 3.399,-1.554 3.139,-1.649 2.864,-1.639 2.611,-1.702 2.222,-1.704 1.47,-1.262 0.719,-0.819 0.185,-0.268 0,0 Z"
         style="fill:none;stroke:#ee2528;stroke-width:0.4;stroke-linecap:butt;stroke-linejoin:miter;stroke-miterlimit:4;stroke-dasharray:none;stroke-opacity:1"
         transform="matrix(1.3333333,0,0,-1.3333333,286.82533,97.58)" />
      <path
         id="path28"
         d="m 0,0 c -0.198,-0.646 -0.418,-0.972 -0.659,-1.192 l -0.537,-0.371 c 0,0 -0.499,0.302 -0.76,0.73 -0.263,0.428 -0.359,0.813 -0.389,1.641 -0.044,0.706 0.104,1.161 0.281,1.67 0.249,0.569 0.48,0.954 0.633,1.231 l 0.768,-1.11 C 0.026,1.603 0.234,0.73 0,0 Z"
         style="fill:none;stroke:#ee2528;stroke-width:0.4;stroke-linecap:butt;stroke-linejoin:miter;stroke-miterlimit:4;stroke-dasharray:none;stroke-opacity:1"
         transform="matrix(1.3333333,0,0,-1.3333333,283.98667,104.14933)" />
      <path
         id="path29"
         d="m 0,0 c -0.035,-0.019 -0.244,-0.233 -0.64,-0.704 -0.383,-0.41 -0.665,-0.662 -0.751,-0.76 -4.51,-3.31 -7.45,-5.324 -8.853,-6.059 -0.36,-0.189 -0.707,-0.055 -1.073,0.383 -0.302,0.314 -0.877,1.893 -1.592,3.035 -0.714,1.142 -2.892,4.508 -2.892,4.508 1.58,0.076 2.921,0.495 4.092,1.305 1.606,1.111 2.516,2.081 2.734,2.912 -3.144,0.824 -6.436,0.865 -9.794,0.07 0,0 -1.254,1.761 -2.041,3.16 -0.787,1.4 0.25,4.346 3.15,8.419 1.226,1.654 3.149,3.992 5.829,7.068 -1.984,-0.181 -3.249,-0.574 -3.83,-1.142 -2.181,-2.133 -3.551,-3.408 -4.202,-3.848 -1.623,-1.132 -3.461,-1.756 -5.512,-1.809 2.642,5.383 3.136,10.751 1.486,16.103 -0.508,-0.236 -0.894,-0.482 -1.184,-0.767 -0.552,-0.54 -0.978,-1.151 -1.244,-1.868 -0.317,-0.897 -0.246,-1.609 0.306,-2.175 0.685,-0.698 0.879,-2.527 0.585,-5.483 -0.197,-1.951 -0.488,-3.864 -0.932,-5.795 -1.82,0.174 -3.69,0.689 -5.518,1.57 -1.133,0.519 -2.845,1.514 -5.137,2.984 0.775,-1.781 1.945,-3.501 3.476,-5.065 1.952,-1.997 4.387,-2.741 7.306,-2.295 2.25,0.377 4.493,1.398 6.731,3.066 l 0.063,-0.067 C -20.628,15.059 -21.824,13.37 -22.988,11.71 -24.52,9.152 -24.84,7.354 -24.006,6.329 l 1.742,-2.796 c 0,0 -1.938,-1.424 -2.32,-3.661 -0.207,-1.212 0.075,-2.325 0.843,-3.435 1.404,-2.029 3.526,-2.09 6.393,-0.161 l 0.857,-1.344 1.449,-2.763 c 1.231,-2.35 2.736,-3.032 4.539,-2.089 1.116,0.586 2.685,1.619 4.732,3.06 2.025,1.481 3.596,2.514 4.711,3.099 0.505,0.264 1.536,0.49 3.127,0.693 0.189,0.256 0.376,0.775 0.6,1.575 0.201,0.841 0.374,1.3 0.496,1.417 C 3.638,0.33 3.941,0.541 3.955,0.602 2.32,0.743 1.008,0.529 0,0 Z"
         style="fill:none;stroke:#ee2528;stroke-width:0.4;stroke-linecap:butt;stroke-linejoin:miter;stroke-miterlimit:4;stroke-dasharray:none;stroke-opacity:1"
         transform="matrix(1.3333333,0,0,-1.3333333,310.38133,102.284)" />
      <path
         id="path30"
         d="M 0,0 C 2.353,1.498 4.709,2.997 7.025,4.479 4.324,4.409 2.834,4.336 2.504,4.183 0.731,3.363 -1.646,2.009 -4.625,0.119 -6.941,-1.363 -9.297,-2.861 -11.634,-4.3 -9.91,-4.734 -8.419,-4.661 -7.127,-4.064 -5.28,-3.21 -2.904,-1.856 0,0"
         style="fill:#ee2528;fill-opacity:1;fill-rule:nonzero;stroke:#ee2528;stroke-width:0.4;stroke-linecap:butt;stroke-linejoin:round;stroke-miterlimit:4;stroke-dasharray:none;stroke-opacity:1"
         transform="matrix(1.3333333,0,0,-1.3333333,311.25333,117.94933)" />
      <path
         id="path31"
         d="M 0,0 C 1.672,0.497 2.373,1.962 2.092,3.812 1.661,6.66 -1.02,7.37 -3.535,6.989 -6.051,6.607 -8.4,5.135 -7.969,2.287 -7.656,0.224 -6.29,-0.784 -4.318,-0.655 l 0.669,-4.413 c -4.402,-0.425 -7.451,2.39 -8.103,6.685 -0.776,5.125 2.635,9.041 7.547,9.784 C 0.707,12.147 5.126,9.419 5.903,4.293 6.457,0.64 4.733,-3.677 0.669,-4.413 L 0,0"
         style="fill:#ee2528;fill-opacity:1;fill-rule:nonzero;stroke:none"
         transform="matrix(1.3333333,0,0,-1.3333333,35.769333,206.804)" />
      <path
         id="path32"
         d="m 0,0 1.101,-3.579 c 0.396,-1.284 1.295,-1.761 2.534,-1.379 1.216,0.375 1.47,1.507 1.102,2.7 L 3.692,1.136 Z m 5.797,6.454 2.57,-8.348 C 9.256,-4.784 8.826,-8.031 5.521,-9.049 3.756,-9.592 1.82,-9.26 0.625,-7.743 L 0.579,-7.757 c 0.124,-1.87 -1.67,-2.975 -3.187,-3.593 -0.675,-0.258 -3.062,-1.069 -3.482,-1.825 l -1.299,4.22 c 0.437,0.536 2.022,1.1 2.466,1.287 1.617,0.623 3.23,1.421 2.614,3.416 l -0.995,3.234 -5.964,-1.834 -1.313,4.265 16.378,5.041"
         style="fill:#ee2528;fill-opacity:1;fill-rule:nonzero;stroke:none"
         transform="matrix(1.3333333,0,0,-1.3333333,37.068,219.86667)" />
      <path
         id="path33"
         d="M 0,0 C 1.249,-2.596 4.021,-2.487 6.313,-1.384 8.605,-0.281 10.419,1.817 9.169,4.412 7.92,7.007 5.15,6.899 2.857,5.796 0.565,4.692 -1.249,2.594 0,0 Z M 12.63,6.076 C 14.971,1.211 12.725,-3.253 8.248,-5.407 3.772,-7.56 -1.118,-6.531 -3.46,-1.666 -5.802,3.2 -3.555,7.663 0.922,9.817 5.398,11.972 10.288,10.942 12.63,6.076"
         style="fill:#ee2528;fill-opacity:1;fill-rule:nonzero;stroke:none"
         transform="matrix(1.3333333,0,0,-1.3333333,38.685333,247.36667)" />
      <path
         id="path34"
         d="m 0,0 2.361,-3.788 -14.543,-9.064 -2.361,3.789 L 0,0"
         style="fill:#ee2528;fill-opacity:1;fill-rule:nonzero;stroke:none"
         transform="matrix(1.3333333,0,0,-1.3333333,60.741333,250.076)" />
      <path
         id="path35"
         d="m 0,0 c -1.541,-1.303 -1.294,-2.687 -0.14,-4.192 0.818,-1.065 2.046,-1.878 3.055,-1.102 1.2,0.92 -0.062,3.037 -1.016,5.421 -0.938,2.366 -1.626,5.076 0.869,6.99 2.97,2.28 6.425,0.182 8.383,-2.369 2.075,-2.703 2.851,-6.434 -0.199,-8.806 L 8.233,-0.517 C 9.515,0.376 9.024,1.844 8.19,2.928 7.606,3.69 6.609,4.439 5.714,3.751 4.667,2.948 5.981,0.841 6.949,-1.564 c 0.953,-2.384 1.559,-5.065 -0.897,-6.95 -3.446,-2.645 -6.801,-0.561 -9.095,2.428 -2.396,3.123 -3.144,6.935 0.325,9.629 L 0,0"
         style="fill:#ee2528;fill-opacity:1;fill-rule:nonzero;stroke:none"
         transform="matrix(1.3333333,0,0,-1.3333333,55.554667,269.788)" />
      <path
         id="path36"
         d="m 0,0 c -1.357,-1.493 -0.931,-2.834 0.41,-4.174 0.952,-0.95 2.276,-1.593 3.174,-0.693 1.069,1.07 -0.461,3.004 -1.718,5.242 -1.24,2.223 -2.278,4.819 -0.057,7.044 2.646,2.649 6.347,1.023 8.623,-1.25 2.412,-2.407 3.67,-6.004 0.957,-8.756 L 8.229,0.568 C 9.383,1.62 8.703,3.013 7.735,3.978 7.056,4.657 5.969,5.267 5.172,4.468 4.24,3.534 5.819,1.618 7.094,-0.637 c 1.257,-2.24 2.21,-4.819 0.023,-7.01 -3.07,-3.074 -6.668,-1.447 -9.335,1.215 -2.786,2.781 -4.028,6.462 -0.941,9.588 L 0,0"
         style="fill:#ee2528;fill-opacity:1;fill-rule:nonzero;stroke:none"
         transform="matrix(1.3333333,0,0,-1.3333333,68.544,285.37733)" />
      <path
         id="path37"
         d="M 0,0 3.097,-2.349 5.213,3.577 5.175,3.606 Z m 6.269,8.741 3.614,-2.742 -5.252,-17.524 -3.709,2.814 1.015,3.084 -4.761,3.613 -2.717,-1.794 -3.652,2.77 15.462,9.779"
         style="fill:#ee2528;fill-opacity:1;fill-rule:nonzero;stroke:none"
         transform="matrix(1.3333333,0,0,-1.3333333,85.513333,299.66)" />
      <path
         id="path38"
         d="m 0,0 4.011,-2.219 0.095,-12.121 0.042,-0.023 5.113,9.239 3.675,-2.033 -8.297,-14.993 -4.011,2.218 -0.037,12.227 -0.042,0.023 -5.171,-9.344 -3.675,2.033 L 0,0"
         style="fill:#ee2528;fill-opacity:1;fill-rule:nonzero;stroke:none"
         transform="matrix(1.3333333,0,0,-1.3333333,104.24267,295.86267)" />
      <path
         id="path39"
         d="m 0,0 -4.772,1.831 -4.765,-12.413 -4.168,1.601 4.766,12.413 -4.773,1.832 1.376,3.585 L 1.377,3.584 0,0"
         style="fill:#ee2528;fill-opacity:1;fill-rule:nonzero;stroke:none"
         transform="matrix(1.3333333,0,0,-1.3333333,137.448,316.97467)" />
      <path
         id="path40"
         d="M 0,0 0.977,3.313 8.137,1.202 7.16,-2.112 0,0"
         style="fill:#ee2528;fill-opacity:1;fill-rule:nonzero;stroke:none"
         transform="matrix(1.3333333,0,0,-1.3333333,131.064,326.55733)" />
      <path
         id="path41"
         d="M 0,0 3.688,-0.647 C 5.011,-0.881 5.845,-0.295 6.069,0.982 6.29,2.234 5.396,2.976 4.166,3.192 L 0.668,3.807 Z M -3.11,8.1 5.494,6.589 C 8.473,6.067 11.167,4.204 10.57,0.801 10.25,-1.019 9.073,-2.591 7.18,-2.965 L 7.171,-3.013 C 8.893,-3.754 9.061,-5.855 8.92,-7.487 8.842,-8.205 8.478,-10.7 8.961,-11.417 l -4.349,0.763 c -0.279,0.634 -0.059,2.301 -0.024,2.782 0.181,1.724 0.204,3.523 -1.853,3.884 L -0.597,-3.404 -1.676,-9.549 -6.073,-8.778 -3.11,8.1"
         style="fill:#ee2528;fill-opacity:1;fill-rule:nonzero;stroke:none"
         transform="matrix(1.3333333,0,0,-1.3333333,150.364,324.88133)" />
      <path
         id="path42"
         d="M 0,0 C 2.879,-0.033 4.014,2.497 4.043,5.042 4.072,7.585 2.998,10.142 0.118,10.176 -2.761,10.209 -3.895,7.678 -3.924,5.134 -3.955,2.591 -2.879,0.033 0,0 Z M 0.163,14.016 C 5.563,13.952 8.564,9.957 8.507,4.989 8.448,0.022 5.354,-3.902 -0.044,-3.84 c -5.4,0.064 -8.402,4.059 -8.344,9.026 0.058,4.967 3.152,8.892 8.551,8.83"
         style="fill:#ee2528;fill-opacity:1;fill-rule:nonzero;stroke:none"
         transform="matrix(1.3333333,0,0,-1.3333333,175.52933,335.97467)" />
      <path
         id="path43"
         d="m 0,0 c 0.614,-4.93 -1.345,-7.665 -6.49,-8.305 -5.143,-0.64 -7.711,1.532 -8.324,6.462 l -1.242,9.979 4.432,0.55 1.273,-10.24 c 0.272,-2.192 1.221,-3.21 3.389,-2.941 2.167,0.271 2.837,1.49 2.564,3.681 L -5.671,9.426 -1.242,9.979 0,0"
         style="fill:#ee2528;fill-opacity:1;fill-rule:nonzero;stroke:none"
         transform="matrix(1.3333333,0,0,-1.3333333,208.43733,328.83867)" />
      <path
         id="path44"
         d="m 0,0 -2.773,-0.782 -0.762,1.729 c -0.681,-1.913 -2.464,-3.017 -3.99,-3.448 -4.988,-1.411 -9.299,1.486 -10.649,6.267 -1.353,4.779 0.802,9.504 5.79,10.916 3.419,0.967 7.584,0.174 9.145,-3.85 L -7.535,9.618 c -0.537,1.369 -2.164,1.832 -3.896,1.342 -2.771,-0.783 -3.141,-3.531 -2.448,-5.979 0.692,-2.448 2.446,-4.597 5.218,-3.813 2.125,0.601 3.275,1.999 3.082,3.566 L -8.58,3.884 -9.483,7.073 -2.554,9.032 0,0"
         style="fill:#ee2528;fill-opacity:1;fill-rule:nonzero;stroke:none"
         transform="matrix(1.3333333,0,0,-1.3333333,233.82533,331.712)" />
      <path
         id="path45"
         d="m 0,0 12.458,5.593 1.466,-3.263 -8.387,-3.764 1.229,-2.738 7.664,3.441 1.414,-3.153 -7.662,-3.44 1.336,-2.978 8.605,3.863 1.572,-3.504 L 7.018,-15.633 0,0"
         style="fill:#ee2528;fill-opacity:1;fill-rule:nonzero;stroke:none"
         transform="matrix(1.3333333,0,0,-1.3333333,228.02133,309.436)" />
      <path
         id="path46"
         d="m 0,0 -4.171,-2.958 7.692,-10.846 -3.642,-2.581 -7.69,10.845 -4.172,-2.958 -2.221,3.132 L -2.222,3.131 0,0"
         style="fill:#ee2528;fill-opacity:1;fill-rule:nonzero;stroke:none"
         transform="matrix(1.3333333,0,0,-1.3333333,270.444,290.94667)" />
      <path
         id="path47"
         d="m 0,0 c 3.401,-3.621 3.431,-6.983 -0.346,-10.532 -3.779,-3.55 -7.132,-3.309 -10.535,0.312 l -6.885,7.329 3.253,3.056 7.067,-7.521 c 1.511,-1.61 2.878,-1.874 4.47,-0.377 1.592,1.495 1.414,2.876 -0.098,4.484 L -10.14,4.274 -6.885,7.33 0,0"
         style="fill:#ee2528;fill-opacity:1;fill-rule:nonzero;stroke:none"
         transform="matrix(1.3333333,0,0,-1.3333333,290.68,283.33067)" />
      <path
         id="path48"
         d="M 0,0 2.847,3.593 14.821,1.702 14.851,1.739 6.573,8.295 9.182,11.588 22.612,0.948 19.767,-2.646 7.699,-0.679 7.669,-0.716 16.04,-7.349 13.433,-10.641 0,0"
         style="fill:#ee2528;fill-opacity:1;fill-rule:nonzero;stroke:none"
         transform="matrix(1.3333333,0,0,-1.3333333,281.908,273.10533)" />
      <path
         id="path49"
         d="M 0,0 2.391,3.769 16.862,-5.409 14.471,-9.178 0,0"
         style="fill:#ee2528;fill-opacity:1;fill-rule:nonzero;stroke:none"
         transform="matrix(1.3333333,0,0,-1.3333333,294.836,256.07067)" />
      <path
         id="path50"
         d="M 0,0 C 1.841,-0.823 2.982,0 3.835,1.693 4.443,2.893 4.64,4.351 3.505,4.924 2.155,5.606 0.795,3.55 -0.94,1.656 c -1.725,-1.871 -3.866,-3.665 -6.674,-2.25 -3.342,1.687 -2.951,5.711 -1.502,8.581 1.535,3.043 4.561,5.361 8.02,3.641 L -3.107,7.643 C -4.467,8.411 -5.577,7.331 -6.194,6.11 -6.626,5.251 -6.866,4.03 -5.86,3.521 -4.681,2.926 -3.353,5.026 -1.607,6.94 0.128,8.834 2.281,10.542 5.044,9.148 8.923,7.19 8.5,3.264 6.803,-0.1 5.031,-3.614 1.919,-5.942 -2.012,-3.985 L 0,0"
         style="fill:#ee2528;fill-opacity:1;fill-rule:nonzero;stroke:none"
         transform="matrix(1.3333333,0,0,-1.3333333,314.83467,252.22267)" />
      <path
         id="path51"
         d="M 0,0 1.611,4.165 17.593,-2.019 15.982,-6.182 0,0"
         style="fill:#ee2528;fill-opacity:1;fill-rule:nonzero;stroke:none"
         transform="matrix(1.3333333,0,0,-1.3333333,307.472,232.33067)" />
      <path
         id="path52"
         d="M 0,0 3.633,13.164 7.08,12.213 4.635,3.352 7.526,2.555 9.762,10.652 13.092,9.733 10.859,1.635 14.005,0.768 16.514,9.859 20.215,8.838 16.519,-4.557 0,0"
         style="fill:#ee2528;fill-opacity:1;fill-rule:nonzero;stroke:none"
         transform="matrix(1.3333333,0,0,-1.3333333,310.47733,225.13067)" />
      <path
         id="path53"
         d="m 0,0 0.582,4.547 11.228,4.567 0.006,0.048 -10.475,1.336 0.53,4.167 17,-2.169 L 18.29,7.949 6.943,3.396 6.936,3.349 17.531,1.998 16.999,-2.17 0,0"
         style="fill:#ee2528;fill-opacity:1;fill-rule:nonzero;stroke:none"
         transform="matrix(1.3333333,0,0,-1.3333333,315.44667,207.13867)" />
    </g>
  </g>
</svg>
