<?xml version="1.0" encoding="UTF-8" standalone="no"?>
<!-- Created with Inkscape (http://www.inkscape.org/) -->

<svg
   version="1.1"
   id="svg1"
   width="335.67599"
   height="335.69067"
   viewBox="0 0 335.67599 335.69067"
   sodipodi:docname="Romanian RC.svg"
   inkscape:version="1.3.2 (091e20e, 2023-11-25, custom)"
   xmlns:inkscape="http://www.inkscape.org/namespaces/inkscape"
   xmlns:sodipodi="http://sodipodi.sourceforge.net/DTD/sodipodi-0.dtd"
   xmlns="http://www.w3.org/2000/svg"
   xmlns:svg="http://www.w3.org/2000/svg"
   xmlns:rdf="http://www.w3.org/1999/02/22-rdf-syntax-ns#"
   xmlns:cc="http://creativecommons.org/ns#"
   xmlns:dc="http://purl.org/dc/elements/1.1/">
  <title
     id="title46">Romanian Red Cross</title>
  <defs
     id="defs1">
    <clipPath
       clipPathUnits="userSpaceOnUse"
       id="clipPath43">
      <path
         d="M 0,251.768 H 251.757 V 0.06 L 0,0.06 Z"
         transform="translate(-39.829001,-211.90901)"
         id="path43" />
    </clipPath>
  </defs>
  <sodipodi:namedview
     id="namedview1"
     pagecolor="#ffffff"
     bordercolor="#666666"
     borderopacity="1.0"
     inkscape:showpageshadow="2"
     inkscape:pageopacity="0.0"
     inkscape:pagecheckerboard="0"
     inkscape:deskcolor="#d1d1d1"
     inkscape:zoom="2.4457039"
     inkscape:cx="167.6409"
     inkscape:cy="167.84534"
     inkscape:window-width="1920"
     inkscape:window-height="1017"
     inkscape:window-x="-8"
     inkscape:window-y="-8"
     inkscape:window-maximized="1"
     inkscape:current-layer="g1">
    <inkscape:page
       x="0"
       y="0"
       inkscape:label="1"
       id="page1"
       width="335.67599"
       height="335.69067"
       margin="0"
       bleed="0" />
  </sodipodi:namedview>
  <g
     id="g1"
     inkscape:groupmode="layer"
     inkscape:label="1">
    <g
       id="group-MC1">
      <path
         id="path2"
         d="m 0,0 c 0,-68.767 -55.738,-124.514 -124.514,-124.514 -68.765,0 -124.518,55.747 -124.518,124.514 0,68.772 55.753,124.521 124.518,124.521 C -55.738,124.521 0,68.772 0,0"
         style="fill:#ffffff;fill-opacity:1;fill-rule:nonzero;stroke:none"
         transform="matrix(1.3333333,0,0,-1.3333333,333.24267,168.49333)" />
      <path
         id="path3"
         d="M 0,0 C 1.677,0.832 1.677,2.458 0.94,3.941 0.456,4.907 -0.568,6.249 -1.849,5.604 -3.2,4.923 -2.488,2.931 -2.064,0.832 c 0.444,-2.114 0.669,-4.36 -1.691,-5.536 -2.579,-1.281 -5.016,0.528 -6.153,2.794 -1.319,2.624 -1.373,5.613 1.532,7.06 L -7.04,2.482 c -1.478,-0.84 -1.33,-2.113 -0.658,-3.434 0.431,-0.88 1.317,-1.716 2.367,-1.185 0.98,0.476 0.804,1.136 0.039,4.7 C -5.531,3.589 -6.35,6.699 -3.508,8.122 -1.207,9.278 1.433,8.321 3.143,4.907 4.525,2.125 4.458,-1.156 1.338,-2.68 L 0,0"
         style="fill:#ed1c24;fill-opacity:1;fill-rule:nonzero;stroke:none"
         transform="matrix(1.3333333,0,0,-1.3333333,44.557333,233.80933)" />
      <path
         id="path4"
         d="M 0,0 C -0.882,2.623 -3.455,2.866 -5.677,2.128 -8.002,1.35 -9.92,-0.394 -9.037,-3.022 -8.163,-5.653 -5.6,-5.901 -3.258,-5.114 -1.032,-4.384 0.876,-2.648 0,0 Z m -11.5,-3.849 c -1.389,4.141 0.888,7.591 4.852,8.901 C -2.8,6.345 1.09,4.934 2.455,0.815 3.832,-3.314 1.573,-6.768 -2.281,-8.054 c -3.964,-1.314 -7.846,0.09 -9.219,4.205"
         style="fill:#ed1c24;fill-opacity:1;fill-rule:nonzero;stroke:none"
         transform="matrix(1.3333333,0,0,-1.3333333,38.286667,211.03067)" />
      <path
         id="path5"
         d="m 0,0 c -1.344,-0.43 -2.162,-1.93 -1.906,-3.442 0.466,-2.737 2.966,-3.37 5.395,-2.956 2.309,0.393 4.471,1.82 3.998,4.554 -0.32,1.864 -1.782,2.695 -3.64,2.619 l -0.5,2.943 C 6.857,3.994 9.466,1.995 10.04,-1.399 10.772,-5.697 8,-8.762 4.002,-9.439 c -4.105,-0.71 -7.746,1.265 -8.463,5.567 -0.533,3.04 0.823,5.908 3.964,6.82 L 0,0"
         style="fill:#ed1c24;fill-opacity:1;fill-rule:nonzero;stroke:none"
         transform="matrix(1.3333333,0,0,-1.3333333,23.218667,188.12933)" />
      <path
         id="path6"
         d="M 0,0 -0.207,3.077 13.827,4.01 14.032,0.912 0,0"
         style="fill:#ed1c24;fill-opacity:1;fill-rule:nonzero;stroke:none"
         transform="matrix(1.3333333,0,0,-1.3333333,16.044,180.116)" />
      <path
         id="path7"
         d="M 0,0 0.286,10.531 2.881,10.46 2.69,3.027 5.705,2.961 5.882,9.772 8.286,9.712 8.112,2.888 11.553,2.8 l 0.2,7.593 2.612,-0.071 L 14.084,-0.361 0,0"
         style="fill:#ed1c24;fill-opacity:1;fill-rule:nonzero;stroke:none"
         transform="matrix(1.3333333,0,0,-1.3333333,15.421333,170.504)" />
      <path
         id="path8"
         d="M 0,0 -0.638,-4.174 -3.211,-3.789 -1.476,7.619 1.097,7.227 0.459,3.062 11.808,1.334 11.336,-1.723 0,0"
         style="fill:#ed1c24;fill-opacity:1;fill-rule:nonzero;stroke:none"
         transform="matrix(1.3333333,0,0,-1.3333333,20.409333,147.45067)" />
      <path
         id="path9"
         d="M 0,0 1.016,3.509 -4.446,3.225 V 3.191 Z M -8.201,2.672 -7.325,5.724 7.654,6.877 6.765,3.797 3.453,3.642 2.001,-1.416 4.72,-3.341 3.838,-6.346 -8.201,2.672"
         style="fill:#ed1c24;fill-opacity:1;fill-rule:nonzero;stroke:none"
         transform="matrix(1.3333333,0,0,-1.3333333,31.846667,131.252)" />
      <path
         id="path10"
         d="M 0,0 -1.689,-3.871 -4.063,-2.834 0.533,7.736 2.909,6.705 1.239,2.832 11.751,-1.738 10.518,-4.581 0,0"
         style="fill:#ed1c24;fill-opacity:1;fill-rule:nonzero;stroke:none"
         transform="matrix(1.3333333,0,0,-1.3333333,30.452,110.55067)" />
      <path
         id="path11"
         d="M 0,0 5.361,9.058 7.604,7.733 3.82,1.338 6.42,-0.201 9.88,5.663 11.956,4.442 8.475,-1.429 11.45,-3.187 15.303,3.341 17.56,2.019 12.1,-7.175 0,0"
         style="fill:#ed1c24;fill-opacity:1;fill-rule:nonzero;stroke:none"
         transform="matrix(1.3333333,0,0,-1.3333333,33.368,96.02)" />
      <path
         id="path12"
         d="M 0,0 2.261,2.865 -2.878,4.669 -2.905,4.635 Z M -6.567,5.573 -4.615,8.064 9.675,3.487 7.69,0.965 4.576,2.068 1.318,-2.058 3.092,-4.866 1.164,-7.323 -6.567,5.573"
         style="fill:#ed1c24;fill-opacity:1;fill-rule:nonzero;stroke:none"
         transform="matrix(1.3333333,0,0,-1.3333333,55.7,82.712)" />
      <path
         id="path13"
         d="m 0,0 2.324,1.993 10.603,-3.366 0.035,0.02 L 6.827,5.825 9.039,7.712 18.172,-2.982 15.816,-4.994 5.249,-1.632 5.221,-1.665 11.325,-8.825 9.12,-10.703 0,0"
         style="fill:#ed1c24;fill-opacity:1;fill-rule:nonzero;stroke:none"
         transform="matrix(1.3333333,0,0,-1.3333333,63.018667,57.114667)" />
      <path
         id="path14"
         d="M 0,0 3.088,1.962 -1.188,5.363 -1.219,5.338 Z M -4.384,7.432 -1.709,9.14 10.277,0.105 7.565,-1.626 5,0.446 0.557,-2.374 1.308,-5.6 -1.334,-7.278 -4.384,7.432"
         style="fill:#ed1c24;fill-opacity:1;fill-rule:nonzero;stroke:none"
         transform="matrix(1.3333333,0,0,-1.3333333,90.413333,50.256)" />
      <path
         id="path15"
         d="m 0,0 c 0.315,0.018 0.734,0.055 1.148,0.262 0.318,0.14 0.45,0.36 0.318,0.667 C 1.312,1.243 1.041,1.231 0.767,1.097 0.594,1.02 0.43,0.892 0.308,0.777 L -0.096,0.959 0.16,2.362 0.767,2.643 0.594,1.735 0.619,1.748 C 0.661,1.819 0.812,1.905 1.02,2.002 1.576,2.255 2.287,2.263 2.581,1.657 3.031,0.676 2.437,0.078 1.691,-0.273 0.902,-0.636 0.578,-0.671 0.032,-0.722 Z m -5.81,12.23 -3.826,-1.787 -1.097,2.359 10.439,4.88 1.119,-2.364 -3.83,-1.784 L 1.847,3.145 -0.961,1.845 -5.81,12.23"
         style="fill:#ed1c24;fill-opacity:1;fill-rule:nonzero;stroke:none"
         transform="matrix(1.3333333,0,0,-1.3333333,110.83333,50.134667)" />
      <path
         id="path16"
         d="M 0,0 2.922,1.04 7.668,-12.195 4.763,-13.249 0,0"
         style="fill:#ed1c24;fill-opacity:1;fill-rule:nonzero;stroke:none"
         transform="matrix(1.3333333,0,0,-1.3333333,114.31867,25.241333)" />
      <path
         id="path17"
         d="M 0,0 C 2.707,0.661 3.171,3.202 2.612,5.483 2.04,7.878 0.465,9.933 -2.242,9.27 -4.94,8.617 -5.397,6.075 -4.819,3.682 -4.266,1.41 -2.69,-0.65 0,0 Z M -2.837,11.8 C 1.383,12.826 4.625,10.267 5.61,6.201 6.57,2.263 4.853,-1.502 0.617,-2.522 c -4.221,-1.021 -7.498,1.533 -8.439,5.475 -0.993,4.062 0.728,7.825 4.985,8.847"
         style="fill:#ed1c24;fill-opacity:1;fill-rule:nonzero;stroke:none"
         transform="matrix(1.3333333,0,0,-1.3333333,135.552,35.166667)" />
      <path
         id="path18"
         d="M 0,0 3.055,0.259 9.724,-8.617 H 9.765 L 8.927,0.778 11.818,1.027 13.055,-12.98 9.971,-13.25 3.329,-4.378 H 3.271 L 4.102,-13.757 1.231,-14.013 0,0"
         style="fill:#ed1c24;fill-opacity:1;fill-rule:nonzero;stroke:none"
         transform="matrix(1.3333333,0,0,-1.3333333,146.55467,16.857333)" />
      <path
         id="path19"
         d="M 0,0 3.642,-0.178 2.141,5.061 H 2.101 Z M 0.738,8.607 3.901,8.447 8.427,-5.872 5.211,-5.713 4.323,-2.53 -0.932,-2.252 -2.196,-5.322 -5.32,-5.16 0.738,8.607"
         style="fill:#ed1c24;fill-opacity:1;fill-rule:nonzero;stroke:none"
         transform="matrix(1.3333333,0,0,-1.3333333,172.944,27.170667)" />
      <path
         id="path20"
         d="M 0,0 3.037,-0.541 0.993,-11.81 7.729,-13.039 7.266,-15.6 -2.518,-13.822 0,0"
         style="fill:#ed1c24;fill-opacity:1;fill-rule:nonzero;stroke:none"
         transform="matrix(1.3333333,0,0,-1.3333333,189.34267,17.002667)" />
      <path
         id="path21"
         d="m 0,0 c -0.191,-1.048 0.709,-1.687 1.435,-1.918 1.1,-0.352 1.959,-0.206 2.482,0.671 l 1.18,-0.379 C 4.258,-3.458 2.737,-3.885 0.88,-3.298 c -1.785,0.573 -2.514,1.842 -2.101,3.686 z m -3.828,-11.98 3.463,-1.109 -0.122,5.458 -0.032,0.016 z m 2.883,8.13 3.029,-0.961 0.743,-14.993 -3.046,0.973 -0.077,3.307 -5.003,1.591 -1.996,-2.648 -2.996,0.951 9.346,11.78"
         style="fill:#ed1c24;fill-opacity:1;fill-rule:nonzero;stroke:none"
         transform="matrix(1.3333333,0,0,-1.3333333,213.272,16.968)" />
      <path
         id="path22"
         d="M 0,0 2.421,-1.348 C 3.979,-2.216 6.002,-2.084 7.531,0.639 8.913,3.12 8.921,5.176 6.242,6.67 L 4.299,7.743 Z M 2.875,11.517 8.168,8.572 C 11.371,6.796 12.64,3.474 10.366,-0.61 8.382,-4.17 5.089,-5.809 1.339,-3.723 l -5.311,2.953 6.847,12.287"
         style="fill:#ed1c24;fill-opacity:1;fill-rule:nonzero;stroke:none"
         transform="matrix(1.3333333,0,0,-1.3333333,230.89067,46.166667)" />
      <path
         id="path23"
         d="m 0,0 8.401,-6.328 -1.561,-2.084 -5.932,4.475 -1.825,-2.411 5.466,-4.1 -1.444,-1.928 -5.466,4.104 -2.063,-2.759 6.065,-4.564 -1.569,-2.08 -8.539,6.429 L 0,0"
         style="fill:#ed1c24;fill-opacity:1;fill-rule:nonzero;stroke:none"
         transform="matrix(1.3333333,0,0,-1.3333333,253.88133,42.025333)" />
      <path
         id="path24"
         d="M 0,0 C 0.899,1.082 0.798,2.792 -0.228,3.933 -2.097,5.995 -4.538,5.186 -6.379,3.542 -8.126,1.97 -9.176,-0.387 -7.316,-2.45 c 1.265,-1.409 2.944,-1.328 4.477,-0.256 l 1.995,-2.225 c -2.807,-2.115 -6.099,-1.817 -8.402,0.741 -2.916,3.241 -2.218,7.318 0.794,10.03 3.12,2.797 7.239,3.073 10.146,-0.173 2.077,-2.291 2.474,-5.438 0.305,-7.9 L 0,0"
         style="fill:#ed1c24;fill-opacity:1;fill-rule:nonzero;stroke:none"
         transform="matrix(1.3333333,0,0,-1.3333333,279.37867,73.604)" />
      <path
         id="path25"
         d="M 0,0 1.878,-2.821 C 2.647,-3.955 3.551,-4.26 4.723,-3.473 5.86,-2.713 5.936,-1.77 5.17,-0.625 L 3.28,2.183 Z M 3.564,6.101 7.777,-0.205 C 9.172,-2.301 8.612,-4.592 6.849,-5.776 5.469,-6.697 4.058,-6.835 2.675,-5.886 l -0.028,-0.02 c 0.516,-1.482 -0.474,-2.66 -1.601,-3.533 -0.693,-0.542 -2.089,-1.448 -2.429,-2.343 l -1.728,2.575 c 0.539,0.801 1.688,1.523 2.538,2.275 1.092,1.009 1.319,1.837 0.447,3.128 l -1.715,2.578 -4.558,-3.064 -1.723,2.565 11.686,7.826"
         style="fill:#ed1c24;fill-opacity:1;fill-rule:nonzero;stroke:none"
         transform="matrix(1.3333333,0,0,-1.3333333,285.488,85.114667)" />
      <path
         id="path26"
         d="M 0,0 C -3.418,-1.636 -6.055,-0.399 -7.664,2.992 -9.293,6.411 -8.6,9.186 -5.15,10.824 L 2.749,14.578 4.079,11.792 -3.82,8.033 C -5.202,7.376 -6.406,6.364 -5.332,4.114 -4.383,2.123 -3.211,1.898 -1.317,2.792 L 6.557,6.539 7.891,3.751 0,0"
         style="fill:#ed1c24;fill-opacity:1;fill-rule:nonzero;stroke:none"
         transform="matrix(1.3333333,0,0,-1.3333333,298.34933,114.85733)" />
      <path
         id="path27"
         d="M 0,0 C 1.29,0.6 1.914,2.194 1.456,3.662 0.643,6.324 -1.919,6.632 -4.271,5.91 -6.516,5.22 -8.458,3.54 -7.652,0.877 c 0.543,-1.803 2.113,-2.448 3.942,-2.134 l 0.875,-2.867 c -3.447,-0.715 -6.301,0.947 -7.32,4.239 -1.26,4.173 1.1,7.575 4.997,8.76 C -1.181,10.088 2.684,8.586 3.957,4.426 4.845,1.466 3.879,-1.551 0.879,-2.855 L 0,0"
         style="fill:#ed1c24;fill-opacity:1;fill-rule:nonzero;stroke:none"
         transform="matrix(1.3333333,0,0,-1.3333333,308.82267,129.68667)" />
      <path
         id="path28"
         d="m 0,0 1.628,-10.383 -2.562,-0.395 -1.143,7.325 -2.985,-0.463 1.06,-6.736 -2.373,-0.374 -1.059,6.737 -3.405,-0.537 1.178,-7.481 -2.562,-0.407 -1.665,10.551 L 0,0"
         style="fill:#ed1c24;fill-opacity:1;fill-rule:nonzero;stroke:none"
         transform="matrix(1.3333333,0,0,-1.3333333,317.16,137.38267)" />
      <path
         id="path29"
         d="m 0,0 -0.117,-3.381 c -0.045,-1.379 0.52,-2.158 1.934,-2.203 1.347,-0.036 1.967,0.687 2.02,2.065 l 0.125,3.386 z m 6.46,2.863 -0.259,-7.57 c -0.106,-2.51 -1.89,-4.047 -4.026,-3.974 -1.65,0.049 -2.855,0.77 -3.439,2.34 l -0.033,0.008 C -1.744,-7.83 -3.234,-8.219 -4.65,-8.264 -5.547,-8.295 -7.193,-8.219 -8.008,-8.742 l 0.122,3.09 c 0.887,0.341 2.243,0.259 3.374,0.373 1.48,0.175 2.145,0.717 2.213,2.262 L -2.2,0.074 -7.696,0.26 -7.574,3.354 6.46,2.863"
         style="fill:#ed1c24;fill-opacity:1;fill-rule:nonzero;stroke:none"
         transform="matrix(1.3333333,0,0,-1.3333333,311.616,169.27733)" />
      <path
         id="path30"
         d="M 0,0 C -0.512,-2.73 1.613,-4.185 3.92,-4.611 6.334,-5.057 8.855,-4.457 9.359,-1.723 9.853,1.001 7.724,2.46 5.303,2.907 3,3.328 0.49,2.729 0,0 Z m 11.917,-2.198 c -0.795,-4.286 -4.449,-6.208 -8.56,-5.458 -3.995,0.733 -6.711,3.848 -5.933,8.122 0.795,4.277 4.456,6.212 8.443,5.482 4.108,-0.763 6.824,-3.868 6.05,-8.146"
         style="fill:#ed1c24;fill-opacity:1;fill-rule:nonzero;stroke:none"
         transform="matrix(1.3333333,0,0,-1.3333333,302.10267,192.73467)" />
      <path
         id="path31"
         d="m 0,0 c -1.767,0.601 -2.924,-0.547 -3.446,-2.117 -0.354,-1.033 -0.568,-2.704 0.795,-3.162 1.419,-0.478 2.347,1.44 3.535,3.228 1.173,1.801 2.607,3.54 5.113,2.696 C 8.738,-0.263 9.173,-3.28 8.374,-5.681 7.434,-8.47 5.357,-10.623 2.275,-9.585 l 0.957,2.843 c 1.626,-0.447 2.421,0.546 2.89,1.95 0.322,0.929 0.288,2.148 -0.814,2.53 -1.049,0.337 -1.382,-0.256 -3.373,-3.317 -0.561,-0.88 -2.183,-3.654 -5.206,-2.648 -2.45,0.816 -3.638,3.358 -2.422,6.983 0.989,2.952 3.382,5.226 6.663,4.083 z M -7.182,0.832 C -7.384,0.589 -7.627,0.26 -7.789,-0.186 c -0.098,-0.316 -0.045,-0.563 0.267,-0.677 0.34,-0.109 0.524,0.105 0.613,0.381 0.06,0.187 0.093,0.381 0.084,0.551 l 0.418,0.179 0.827,-1.156 -0.214,-0.632 -0.539,0.742 v -0.024 c 0.007,-0.086 -0.021,-0.244 -0.094,-0.466 -0.194,-0.569 -0.685,-1.096 -1.321,-0.889 -1.026,0.349 -1.063,1.185 -0.787,1.978 0.275,0.812 0.477,1.08 0.814,1.509 l 0.539,-0.478"
         style="fill:#ed1c24;fill-opacity:1;fill-rule:nonzero;stroke:none"
         transform="matrix(1.3333333,0,0,-1.3333333,301.51733,208.76133)" />
      <path
         id="path32"
         d="M 0,0 -1.253,-2.83 -14.096,2.904 -12.843,5.726 0,0"
         style="fill:#ed1c24;fill-opacity:1;fill-rule:nonzero;stroke:none"
         transform="matrix(1.3333333,0,0,-1.3333333,307.74667,227.992)" />
      <path
         id="path33"
         d="m 0,0 -5.19,-9.16 -2.243,1.289 3.653,6.452 -2.635,1.487 -3.346,-5.928 -2.091,1.188 3.36,5.929 -2.995,1.698 -3.736,-6.597 -2.266,1.281 5.247,9.283 L 0,0"
         style="fill:#ed1c24;fill-opacity:1;fill-rule:nonzero;stroke:none"
         transform="matrix(1.3333333,0,0,-1.3333333,303.74,236.82)" />
      <path
         id="path34"
         d="M 0,0 3.185,-1.185 C 4.46,-1.675 5.395,-1.363 5.892,0 6.393,1.309 5.903,2.14 4.618,2.635 L 1.443,3.819 Z M -0.593,7.218 6.52,4.556 C 8.868,3.674 9.744,1.427 8.967,-0.624 8.371,-2.223 7.296,-3.176 5.604,-3.244 L 5.6,-3.285 c 1.273,-0.909 1.141,-2.49 0.721,-3.889 -0.253,-0.867 -0.882,-2.458 -0.65,-3.41 l -2.89,1.087 c -0.036,0.989 0.491,2.279 0.746,3.415 0.344,1.499 0.043,2.326 -1.421,2.87 l -2.897,1.078 -1.999,-5.278 -2.893,1.083 5.09,13.547"
         style="fill:#ed1c24;fill-opacity:1;fill-rule:nonzero;stroke:none"
         transform="matrix(1.3333333,0,0,-1.3333333,114.55333,299.93067)" />
      <path
         id="path35"
         d="M 0,0 C 2.713,-0.608 4.276,1.533 4.805,3.878 5.368,6.363 4.894,8.97 2.19,9.587 -0.513,10.203 -2.068,8.062 -2.636,5.581 -3.185,3.228 -2.695,0.621 0,0 Z m 2.788,12.199 c 4.239,-0.966 5.987,-4.802 5.028,-8.995 -0.92,-4.087 -4.167,-6.784 -8.4,-5.815 -4.257,0.969 -5.993,4.8 -5.069,8.885 0.966,4.196 4.194,6.893 8.441,5.925"
         style="fill:#ed1c24;fill-opacity:1;fill-rule:nonzero;stroke:none"
         transform="matrix(1.3333333,0,0,-1.3333333,134.428,313.924)" />
      <path
         id="path36"
         d="m 0,0 4.348,-0.315 2.553,-10.179 h 0.033 l 3.854,9.699 4.341,-0.324 -1.089,-14.435 -2.881,0.21 0.758,10.227 H 11.878 L 7.686,-15.084 5.294,-14.902 2.609,-4.521 H 2.57 L 1.837,-14.655 -1.069,-14.427 0,0"
         style="fill:#ed1c24;fill-opacity:1;fill-rule:nonzero;stroke:none"
         transform="matrix(1.3333333,0,0,-1.3333333,147.78267,300.34267)" />
      <path
         id="path37"
         d="M 0,0 3.637,0.252 1.5,5.425 1.476,5.418 Z M -0.3,13.062 2.243,13.235 4.611,10.503 2.312,10.357 0.978,11.914 -0.161,10.186 -2.29,10.048 Z M -0.3,8.877 2.867,9.084 9.059,-5.012 5.86,-5.219 4.587,-2.064 -0.677,-2.416 -1.553,-5.697 -4.677,-5.908 -0.3,8.877"
         style="fill:#ed1c24;fill-opacity:1;fill-rule:nonzero;stroke:none"
         transform="matrix(1.3333333,0,0,-1.3333333,175.20933,313.14533)" />
      <path
         id="path38"
         d="m 0,0 3.016,0.592 7.62,-8.418 h 0.052 l -1.886,9.545 2.852,0.555 2.79,-14.228 -3.042,-0.584 L 3.791,-4.141 3.775,-4.157 5.628,-13.67 2.794,-14.225 0,0"
         style="fill:#ed1c24;fill-opacity:1;fill-rule:nonzero;stroke:none"
         transform="matrix(1.3333333,0,0,-1.3333333,185.98533,300.43867)" />
      <path
         id="path39"
         d="M 0,0 2.964,0.881 7.076,-13.007 4.095,-13.884 0,0"
         style="fill:#ed1c24;fill-opacity:1;fill-rule:nonzero;stroke:none"
         transform="matrix(1.3333333,0,0,-1.3333333,203.93467,296.536)" />
      <path
         id="path40"
         d="M 0,0 3.394,1.356 -0.223,5.645 -0.256,5.622 Z M -3.017,8.37 -0.065,9.547 10.185,-1.962 7.213,-3.153 5.02,-0.55 0.141,-2.501 0.316,-5.903 -2.599,-7.071 -3.017,8.37"
         style="fill:#ed1c24;fill-opacity:1;fill-rule:nonzero;stroke:none"
         transform="matrix(1.3333333,0,0,-1.3333333,219.268,303.944)" />
      <path
         id="path41"
         d="M 0,0 C 0.067,-49.137 39.823,-88.876 88.965,-88.972 138.103,-88.876 177.855,-49.137 177.947,0 177.855,49.146 138.103,88.892 88.965,88.984 39.823,88.892 0.067,49.146 0,0 Z m -4.232,0 c 0,51.474 41.726,93.202 93.197,93.202 51.462,0 93.195,-41.728 93.195,-93.202 0,-51.465 -41.733,-93.194 -93.195,-93.194 -51.471,0 -93.197,41.729 -93.197,93.194"
         style="fill:#ed1c24;fill-opacity:1;fill-rule:nonzero;stroke:none"
         transform="matrix(1.3333333,0,0,-1.3333333,49.208,167.84933)" />
      <path
         id="path42"
         d="m 0,0 c -22.006,-22.021 -35.633,-52.42 -35.633,-86.028 0,-33.598 13.627,-64.003 35.633,-86.021 22.028,-22.026 52.442,-35.634 86.041,-35.634 33.596,0 64.012,13.608 86.023,35.634 22.026,22.018 35.631,52.423 35.631,86.021 0,33.608 -13.605,64.007 -35.631,86.028 C 150.053,22.028 119.637,35.636 86.041,35.636 52.442,35.636 22.028,22.028 0,0 Z m -39.829,-86.028 c 0,69.528 56.34,125.885 125.87,125.887 69.523,-0.002 125.886,-56.359 125.886,-125.887 0,-69.517 -56.363,-125.881 -125.886,-125.881 -69.53,0 -125.87,56.364 -125.87,125.881"
         style="fill:#ed1c24;fill-opacity:1;fill-rule:nonzero;stroke:none"
         transform="matrix(1.3333333,0,0,-1.3333333,53.105333,53.145333)"
         clip-path="url(#clipPath43)" />
      <path
         id="path44"
         d="m 0,0 c 0,3.585 -2.913,6.496 -6.499,6.496 -3.583,0 -6.479,-2.911 -6.479,-6.496 0,-3.58 2.896,-6.495 6.479,-6.495 C -2.913,-6.495 0,-3.58 0,0"
         style="fill:#ed1c24;fill-opacity:1;fill-rule:nonzero;stroke:none"
         transform="matrix(1.3333333,0,0,-1.3333333,75.774667,269.26533)" />
      <path
         id="path45"
         d="m 0,0 c 0,3.576 -2.904,6.488 -6.488,6.488 -3.597,0 -6.496,-2.912 -6.496,-6.488 0,-3.585 2.899,-6.488 6.496,-6.488 C -2.904,-6.488 0,-3.585 0,0"
         style="fill:#ed1c24;fill-opacity:1;fill-rule:nonzero;stroke:none"
         transform="matrix(1.3333333,0,0,-1.3333333,276.74,269.17867)" />
      <path
         id="path46"
         d="M 0,0 H -42.322 V 42.307 H -85.658 V 0 h -42.299 v -43.319 h 42.299 v -42.32 h 43.336 v 42.32 H 0 L 0,0"
         style="fill:#ed1c24;fill-opacity:1;fill-rule:nonzero;stroke:none"
         transform="matrix(1.3333333,0,0,-1.3333333,250.98267,140.46533)" />
    </g>
  </g>
  <metadata
     id="metadata46">
    <rdf:RDF>
      <cc:Work
         rdf:about="">
        <dc:title>Romanian Red Cross</dc:title>
      </cc:Work>
    </rdf:RDF>
  </metadata>
</svg>
