<?xml version="1.0" encoding="UTF-8" standalone="no"?>
<!-- Created with Inkscape (http://www.inkscape.org/) -->

<svg
   version="1.1"
   id="svg1"
   width="164.82933"
   height="159.27068"
   viewBox="0 0 164.82933 159.27068"
   sodipodi:docname="Cruz Roja Dominicana.svg"
   inkscape:version="1.3.2 (091e20e, 2023-11-25, custom)"
   xmlns:inkscape="http://www.inkscape.org/namespaces/inkscape"
   xmlns:sodipodi="http://sodipodi.sourceforge.net/DTD/sodipodi-0.dtd"
   xmlns="http://www.w3.org/2000/svg"
   xmlns:svg="http://www.w3.org/2000/svg">
  <defs
     id="defs1">
    <clipPath
       clipPathUnits="userSpaceOnUse"
       id="clipPath3">
      <path
         d="M 0,119.4 H 123.6 V 0 H 0 Z"
         transform="translate(-75.210999,-93.804002)"
         id="path3" />
    </clipPath>
    <clipPath
       clipPathUnits="userSpaceOnUse"
       id="clipPath22">
      <path
         d="M 0,119.4 H 123.6 V 0 H 0 Z"
         transform="translate(-117.966,-4.3520001)"
         id="path22" />
    </clipPath>
  </defs>
  <sodipodi:namedview
     id="namedview1"
     pagecolor="#ffffff"
     bordercolor="#666666"
     borderopacity="1.0"
     inkscape:showpageshadow="2"
     inkscape:pageopacity="0.0"
     inkscape:pagecheckerboard="0"
     inkscape:deskcolor="#d1d1d1"
     inkscape:export-bgcolor="#ffffffff"
     inkscape:zoom="5.1547469"
     inkscape:cx="82.351279"
     inkscape:cy="79.635336"
     inkscape:window-width="1920"
     inkscape:window-height="1017"
     inkscape:window-x="-8"
     inkscape:window-y="-8"
     inkscape:window-maximized="1"
     inkscape:current-layer="g1">
    <inkscape:page
       x="0"
       y="0"
       inkscape:label="1"
       id="page1"
       width="164.82933"
       height="159.27068"
       margin="0"
       bleed="0" />
  </sodipodi:namedview>
  <g
     id="g1"
     inkscape:groupmode="layer"
     inkscape:label="1">
    <g
       id="group-MC1">
      <path
         id="path2"
         d="M 0,0 V 25.649 H -26.8 V 0 H -52.626 V -26.445 H -26.8 V -52.094 H 0 v 25.649 H 25.826 L 25.826,0 H 0"
         style="fill:#ed1c24;fill-opacity:1;fill-rule:nonzero;stroke:none"
         transform="matrix(1.3333333,0,0,-1.3333333,100.28133,34.198667)"
         clip-path="url(#clipPath3)" />
      <path
         id="path4"
         d="m 0,0 v -4.166 h -0.346 c -0.26,1.087 -0.744,1.92 -1.453,2.499 -0.71,0.58 -1.514,0.869 -2.412,0.869 -0.751,0 -1.439,-0.216 -2.066,-0.647 -0.626,-0.432 -1.084,-0.996 -1.374,-1.693 -0.372,-0.893 -0.558,-1.886 -0.558,-2.979 0,-1.076 0.135,-2.055 0.407,-2.939 0.272,-0.884 0.698,-1.552 1.277,-2.004 0.579,-0.452 1.33,-0.678 2.252,-0.678 0.756,0 1.449,0.165 2.079,0.496 0.63,0.331 1.293,0.902 1.99,1.711 v -1.037 c -0.673,-0.703 -1.375,-1.213 -2.106,-1.529 -0.73,-0.316 -1.582,-0.474 -2.557,-0.474 -1.283,0 -2.422,0.257 -3.418,0.771 -0.996,0.514 -1.764,1.253 -2.305,2.217 -0.541,0.962 -0.811,1.989 -0.811,3.076 0,1.146 0.3,2.234 0.9,3.262 0.6,1.029 1.41,1.826 2.429,2.394 1.02,0.567 2.103,0.851 3.249,0.851 0.846,0 1.738,-0.183 2.677,-0.549 0.544,-0.213 0.89,-0.32 1.038,-0.32 0.189,0 0.353,0.07 0.492,0.209 0.139,0.139 0.229,0.359 0.27,0.66 L 0,0"
         style="fill:#231f20;fill-opacity:1;fill-rule:nonzero;stroke:none"
         transform="matrix(1.3333333,0,0,-1.3333333,28.276,113.45867)" />
      <path
         id="path5"
         d="m 0,0 v -5.266 h 0.505 c 0.822,0 1.437,0.075 1.845,0.226 0.407,0.151 0.728,0.422 0.961,0.816 0.234,0.392 0.351,0.905 0.351,1.538 0,0.916 -0.215,1.593 -0.643,2.03 C 2.59,-0.219 1.9,0 0.949,0 Z m 0,-5.896 v -3.368 c 0,-0.651 0.04,-1.06 0.12,-1.229 0.08,-0.168 0.22,-0.302 0.421,-0.403 0.201,-0.101 0.576,-0.15 1.126,-0.15 v -0.329 h -6.153 v 0.329 c 0.556,0 0.932,0.051 1.13,0.155 0.198,0.103 0.337,0.237 0.417,0.403 0.08,0.165 0.12,0.573 0.12,1.224 v 7.801 c 0,0.651 -0.04,1.06 -0.12,1.228 -0.08,0.169 -0.22,0.303 -0.421,0.403 -0.201,0.101 -0.576,0.151 -1.126,0.151 V 0.647 H 1.1 c 1.453,0 2.517,-0.1 3.191,-0.301 0.674,-0.201 1.224,-0.572 1.649,-1.113 0.426,-0.541 0.639,-1.174 0.639,-1.902 0,-0.886 -0.32,-1.619 -0.958,-2.198 C 5.213,-5.234 4.642,-5.508 3.91,-5.692 L 6.8,-9.761 c 0.378,-0.526 0.647,-0.854 0.807,-0.984 0.242,-0.183 0.523,-0.284 0.842,-0.301 v -0.329 H 4.663 L 0.789,-5.896 H 0"
         style="fill:#231f20;fill-opacity:1;fill-rule:nonzero;stroke:none"
         transform="matrix(1.3333333,0,0,-1.3333333,36.030667,114.688)" />
      <path
         id="path6"
         d="M 0,0 H 6.206 V -0.328 H 5.896 C 5.428,-0.328 5.108,-0.377 4.934,-0.475 4.759,-0.572 4.635,-0.707 4.561,-0.878 4.487,-1.049 4.45,-1.478 4.45,-2.164 V -8.05 c 0,-1.075 0.081,-1.788 0.244,-2.137 0.162,-0.349 0.43,-0.638 0.803,-0.868 0.372,-0.231 0.842,-0.347 1.409,-0.347 0.65,0 1.204,0.147 1.662,0.44 0.458,0.292 0.801,0.696 1.029,1.21 0.227,0.514 0.341,1.41 0.341,2.686 v 4.902 c 0,0.539 -0.056,0.923 -0.168,1.153 -0.113,0.231 -0.254,0.39 -0.426,0.479 -0.266,0.136 -0.641,0.204 -1.126,0.204 V 0 h 4.158 v -0.328 h -0.248 c -0.337,0 -0.618,-0.068 -0.842,-0.204 -0.225,-0.136 -0.388,-0.34 -0.488,-0.612 -0.077,-0.189 -0.115,-0.529 -0.115,-1.02 v -4.565 c 0,-1.413 -0.093,-2.433 -0.279,-3.059 -0.187,-0.627 -0.64,-1.203 -1.361,-1.729 -0.721,-0.525 -1.706,-0.789 -2.953,-0.789 -1.04,0 -1.843,0.139 -2.411,0.417 -0.774,0.378 -1.321,0.863 -1.64,1.454 C 1.72,-9.844 1.56,-9.049 1.56,-8.05 v 5.886 c 0,0.692 -0.039,1.122 -0.115,1.29 C 1.368,-0.705 1.235,-0.571 1.046,-0.47 0.856,-0.37 0.508,-0.322 0,-0.328 V 0"
         style="fill:#231f20;fill-opacity:1;fill-rule:nonzero;stroke:none"
         transform="matrix(1.3333333,0,0,-1.3333333,47.650667,113.82533)" />
      <path
         id="path7"
         d="m 0,0 -7.066,-11.348 h 2.287 c 1.082,0 1.839,0.067 2.27,0.204 0.703,0.213 1.309,0.604 1.818,1.175 0.508,0.57 0.859,1.334 1.054,2.291 H 0.709 L 0.222,-12.022 H -10.79 l 7.075,11.366 h -1.782 c -0.691,0 -1.147,-0.021 -1.365,-0.062 -0.414,-0.077 -0.803,-0.229 -1.166,-0.457 -0.363,-0.227 -0.665,-0.531 -0.904,-0.908 -0.239,-0.379 -0.427,-0.858 -0.563,-1.437 H -9.823 L -9.495,0 H 0"
         style="fill:#231f20;fill-opacity:1;fill-rule:nonzero;stroke:none"
         transform="matrix(1.3333333,0,0,-1.3333333,79.341333,113.82533)" />
      <path
         id="path8"
         d="m 0,0 v -5.266 h 0.505 c 0.822,0 1.437,0.075 1.845,0.226 0.407,0.151 0.728,0.422 0.962,0.816 0.233,0.392 0.35,0.905 0.35,1.538 0,0.916 -0.215,1.593 -0.643,2.03 C 2.59,-0.219 1.9,0 0.949,0 Z m 0,-5.896 v -3.368 c 0,-0.651 0.04,-1.06 0.12,-1.229 0.08,-0.168 0.22,-0.302 0.421,-0.403 0.201,-0.101 0.576,-0.15 1.126,-0.15 v -0.329 h -6.153 v 0.329 c 0.556,0 0.932,0.051 1.131,0.155 0.197,0.103 0.336,0.237 0.416,0.403 0.08,0.165 0.12,0.573 0.12,1.224 v 7.801 c 0,0.651 -0.04,1.06 -0.12,1.228 -0.08,0.169 -0.22,0.303 -0.421,0.403 -0.201,0.101 -0.576,0.151 -1.126,0.151 V 0.647 H 1.1 c 1.453,0 2.517,-0.1 3.191,-0.301 0.674,-0.201 1.224,-0.572 1.649,-1.113 0.426,-0.541 0.639,-1.174 0.639,-1.902 0,-0.886 -0.32,-1.619 -0.958,-2.198 C 5.213,-5.234 4.643,-5.508 3.91,-5.692 L 6.8,-9.761 c 0.378,-0.526 0.647,-0.854 0.807,-0.984 0.242,-0.183 0.523,-0.284 0.842,-0.301 v -0.329 H 4.664 L 0.789,-5.896 H 0"
         style="fill:#231f20;fill-opacity:1;fill-rule:nonzero;stroke:none"
         transform="matrix(1.3333333,0,0,-1.3333333,93.194667,114.688)" />
      <path
         id="path9"
         d="m 0,0 c -1.1,0 -1.936,-0.562 -2.509,-1.685 -0.467,-0.921 -0.701,-2.246 -0.701,-3.971 0,-2.051 0.361,-3.568 1.082,-4.548 0.502,-0.687 1.206,-1.029 2.11,-1.029 0.609,0 1.117,0.148 1.525,0.443 0.52,0.379 0.925,0.983 1.215,1.813 0.289,0.83 0.434,1.914 0.434,3.249 0,1.59 -0.148,2.78 -0.443,3.569 C 2.417,-1.37 2.04,-0.813 1.582,-0.488 1.124,-0.163 0.597,0 0,0 Z m -0.107,0.567 c 1.916,0.071 3.471,-0.487 4.668,-1.675 1.197,-1.188 1.795,-2.675 1.795,-4.459 0,-1.526 -0.446,-2.868 -1.338,-4.026 -1.182,-1.537 -2.852,-2.304 -5.009,-2.304 -2.163,0 -3.836,0.732 -5.018,2.198 -0.934,1.158 -1.401,2.532 -1.401,4.122 0,1.785 0.607,3.273 1.822,4.464 1.214,1.191 2.709,1.751 4.481,1.68"
         style="fill:#231f20;fill-opacity:1;fill-rule:nonzero;stroke:none"
         transform="matrix(1.3333333,0,0,-1.3333333,113.74,114.35733)" />
      <path
         id="path10"
         d="M 0,0 V 0.328 H 6.392 V 0 H 6.002 C 5.648,0 5.363,-0.062 5.151,-0.186 5.003,-0.269 4.885,-0.411 4.796,-0.612 4.731,-0.754 4.699,-1.126 4.699,-1.729 v -5.887 c 0,-1.152 -0.115,-1.99 -0.346,-2.513 -0.23,-0.523 -0.64,-0.96 -1.228,-1.312 -0.588,-0.352 -1.296,-0.527 -2.124,-0.527 -1.01,0 -1.827,0.265 -2.451,0.798 -0.623,0.531 -0.935,1.119 -0.935,1.763 0,0.414 0.127,0.749 0.381,1.007 0.254,0.257 0.565,0.386 0.931,0.386 0.361,0 0.663,-0.115 0.909,-0.347 0.245,-0.23 0.368,-0.513 0.368,-0.85 0,-0.166 -0.021,-0.311 -0.062,-0.435 -0.024,-0.059 -0.117,-0.208 -0.28,-0.447 -0.162,-0.239 -0.243,-0.41 -0.243,-0.51 0,-0.154 0.076,-0.287 0.23,-0.399 0.225,-0.166 0.517,-0.249 0.878,-0.249 0.254,0 0.464,0.065 0.629,0.196 0.165,0.13 0.283,0.332 0.351,0.607 0.067,0.275 0.102,1.038 0.102,2.291 v 6.428 c 0,0.615 -0.035,0.999 -0.102,1.153 C 1.639,-0.423 1.505,-0.288 1.308,-0.173 1.109,-0.058 0.842,0 0.505,0 H 0"
         style="fill:#231f20;fill-opacity:1;fill-rule:nonzero;stroke:none"
         transform="matrix(1.3333333,0,0,-1.3333333,126.51867,114.26267)" />
      <path
         id="path11"
         d="M 0,0 -1.79,4.141 -3.635,0 Z m 0.302,-0.656 h -4.247 l -0.505,-1.17 c -0.166,-0.391 -0.249,-0.712 -0.249,-0.967 0,-0.337 0.136,-0.585 0.408,-0.744 0.16,-0.095 0.553,-0.166 1.179,-0.213 V -4.078 H -7.11 v 0.328 c 0.431,0.064 0.786,0.244 1.064,0.536 0.278,0.293 0.62,0.897 1.029,1.814 l 4.299,9.592 h 0.169 L 3.786,-1.667 C 4.199,-2.601 4.54,-3.189 4.805,-3.431 5.007,-3.614 5.29,-3.721 5.656,-3.75 V -4.078 H -0.16 v 0.328 h 0.24 c 0.467,0 0.795,0.064 0.984,0.195 0.13,0.094 0.195,0.231 0.195,0.407 0,0.107 -0.018,0.216 -0.053,0.329 -0.012,0.053 -0.1,0.275 -0.266,0.665 l -0.638,1.498"
         style="fill:#231f20;fill-opacity:1;fill-rule:nonzero;stroke:none"
         transform="matrix(1.3333333,0,0,-1.3333333,144.852,124.416)" />
      <path
         id="path12"
         d="m 0,0 v -9.38 c 0,-0.496 0.0239,-0.801 0.0713,-0.913 0.0469,-0.112 0.1269,-0.198 0.2392,-0.257 0.1597,-0.089 0.3902,-0.132 0.6914,-0.132 0.9869,0 1.7408,0.336 2.2608,1.01 0.7095,0.91 1.064,2.323 1.064,4.238 0,1.543 -0.2427,2.775 -0.7271,3.697 C 3.2153,-1.016 2.7217,-0.525 2.1191,-0.265 1.6934,-0.083 0.9873,0.006 0,0 Z m -4.5835,-11.339 v 0.328 h 0.3989 c 0.3487,0 0.6162,0.055 0.8023,0.164 0.1865,0.11 0.3237,0.259 0.4126,0.448 0.0532,0.124 0.0796,0.497 0.0796,1.117 v 7.908 c 0,0.615 -0.0323,0.999 -0.0977,1.152 -0.0649,0.155 -0.1963,0.289 -0.3945,0.404 -0.1978,0.115 -0.4654,0.173 -0.8023,0.173 H -4.5835 V 0.683 H 0.7979 C 2.2344,0.683 3.3896,0.488 4.2646,0.098 5.334,-0.381 6.146,-1.105 6.698,-2.074 7.25,-3.044 7.527,-4.139 7.527,-5.363 7.527,-6.209 7.391,-6.987 7.119,-7.699 6.847,-8.412 6.496,-9 6.064,-9.464 5.633,-9.928 5.1348,-10.3 4.5703,-10.581 4.0059,-10.861 3.3159,-11.079 2.5005,-11.232 2.1396,-11.304 1.5723,-11.339 0.7979,-11.339 h -5.3814"
         style="fill:#231f20;fill-opacity:1;fill-rule:nonzero;stroke:none"
         transform="matrix(1.3333333,0,0,-1.3333333,6.1113333,143.78667)" />
      <path
         id="path13"
         d="M 0,0 C -1.1,0 -1.936,-0.561 -2.509,-1.684 -2.976,-2.606 -3.21,-3.93 -3.21,-5.656 c 0,-2.051 0.361,-3.567 1.082,-4.548 0.502,-0.686 1.206,-1.029 2.11,-1.029 0.609,0 1.117,0.148 1.525,0.443 0.52,0.379 0.925,0.984 1.215,1.814 0.289,0.83 0.434,1.913 0.434,3.249 0,1.59 -0.148,2.779 -0.443,3.568 C 2.417,-1.37 2.041,-0.812 1.582,-0.488 1.124,-0.163 0.597,0 0,0 Z m -0.107,0.568 c 1.916,0.07 3.471,-0.489 4.668,-1.676 1.197,-1.189 1.795,-2.675 1.795,-4.459 0,-1.525 -0.446,-2.867 -1.338,-4.025 -1.182,-1.538 -2.852,-2.305 -5.009,-2.305 -2.163,0 -3.836,0.732 -5.018,2.198 -0.934,1.158 -1.401,2.532 -1.401,4.122 0,1.785 0.607,3.274 1.822,4.464 1.214,1.191 2.709,1.751 4.481,1.681"
         style="fill:#231f20;fill-opacity:1;fill-rule:nonzero;stroke:none"
         transform="matrix(1.3333333,0,0,-1.3333333,26.656,143.408)" />
      <path
         id="path14"
         d="M 0,0 3.263,7.926 H 8.156 V 7.598 H 7.766 C 7.412,7.598 7.128,7.536 6.915,7.412 6.768,7.329 6.649,7.19 6.561,6.995 6.496,6.854 6.463,6.484 6.463,5.887 v -7.926 c 0,-0.614 0.033,-0.999 0.098,-1.152 0.064,-0.154 0.197,-0.289 0.398,-0.404 0.201,-0.115 0.47,-0.173 0.807,-0.173 h 0.39 V -4.096 H 1.879 v 0.328 H 2.27 c 0.354,0 0.638,0.062 0.851,0.187 0.148,0.082 0.266,0.224 0.354,0.425 0.066,0.142 0.098,0.514 0.098,1.117 v 8.91 L -1.037,-4.096 H -1.25 L -5.931,6.791 v -8.467 c 0,-0.591 0.014,-0.954 0.044,-1.09 0.077,-0.296 0.244,-0.536 0.501,-0.722 0.257,-0.187 0.66,-0.28 1.21,-0.28 V -4.096 H -8.29 v 0.328 h 0.125 c 0.266,-0.005 0.514,0.038 0.745,0.129 0.23,0.091 0.404,0.214 0.523,0.368 0.118,0.154 0.209,0.369 0.274,0.647 0.012,0.065 0.018,0.366 0.018,0.904 v 7.607 c 0,0.609 -0.032,0.989 -0.098,1.139 C -6.768,7.177 -6.9,7.31 -7.102,7.425 -7.302,7.54 -7.571,7.598 -7.908,7.598 H -8.29 v 0.328 h 4.912 L 0,0"
         style="fill:#231f20;fill-opacity:1;fill-rule:nonzero;stroke:none"
         transform="matrix(1.3333333,0,0,-1.3333333,47.532,153.444)" />
      <path
         id="path15"
         d="M 0,0 V -0.32801 H -6.286 V 0 h 0.399 c 0.349,0 0.63,0.06199 0.842,0.187 0.154,0.082 0.272,0.224 0.355,0.425 0.065,0.142 0.097,0.514 0.097,1.117 v 7.908 c 0,0.615 -0.032,0.999 -0.097,1.152 -0.065,0.155 -0.197,0.289 -0.394,0.404 -0.199,0.115 -0.466,0.173 -0.803,0.173 h -0.399 v 0.328 H 0 v -0.328 h -0.399 c -0.349,0 -0.63,-0.062 -0.842,-0.186 C -1.395,11.097 -1.516,10.955 -1.605,10.754 -1.67,10.613 -1.703,10.24 -1.703,9.637 V 1.729 c 0,-0.614 0.035,-0.999 0.102,-1.152 C -1.533,0.423 -1.399,0.288 -1.202,0.17299 -1.003,0.05799 -0.736,0 -0.399,0 H 0"
         style="fill:#231f20;fill-opacity:1;fill-rule:nonzero;stroke:none"
         transform="matrix(1.3333333,0,0,-1.3333333,67.710667,158.46799)" />
      <path
         id="path16"
         d="m 0,0 5.931,-7.456 v 5.169 c 0,0.72 -0.103,1.209 -0.31,1.463 -0.284,0.342 -0.76,0.507 -1.428,0.496 V 0 H 8.165 V -0.328 C 7.657,-0.393 7.315,-0.478 7.141,-0.58 6.967,-0.684 6.831,-0.853 6.733,-1.086 6.636,-1.32 6.587,-1.72 6.587,-2.287 V -12.296 H 6.286 l -8.13,10.009 v -7.642 c 0,-0.692 0.158,-1.159 0.474,-1.401 0.316,-0.242 0.679,-0.364 1.086,-0.364 H 0 v -0.328 h -4.264 v 0.328 c 0.661,0.006 1.122,0.142 1.383,0.409 0.26,0.265 0.39,0.717 0.39,1.356 v 8.484 l -0.258,0.319 c -0.253,0.319 -0.478,0.529 -0.673,0.63 -0.195,0.1 -0.476,0.156 -0.842,0.168 l 0,0.328 H 0"
         style="fill:#231f20;fill-opacity:1;fill-rule:nonzero;stroke:none"
         transform="matrix(1.3333333,0,0,-1.3333333,74.294667,142.876)" />
      <path
         id="path17"
         d="M 0,0 V -0.32801 H -6.286 V 0 h 0.399 c 0.349,0 0.63,0.06199 0.842,0.187 0.154,0.082 0.272,0.224 0.355,0.425 0.065,0.142 0.097,0.514 0.097,1.117 v 7.908 c 0,0.615 -0.032,0.999 -0.097,1.152 -0.065,0.155 -0.197,0.289 -0.394,0.404 -0.199,0.115 -0.466,0.173 -0.803,0.173 h -0.399 v 0.328 H 0 v -0.328 h -0.399 c -0.349,0 -0.63,-0.062 -0.842,-0.186 C -1.395,11.097 -1.516,10.955 -1.605,10.754 -1.67,10.613 -1.703,10.24 -1.703,9.637 V 1.729 c 0,-0.614 0.035,-0.999 0.102,-1.152 C -1.533,0.423 -1.399,0.288 -1.202,0.17299 -1.003,0.05799 -0.736,0 -0.399,0 H 0"
         style="fill:#231f20;fill-opacity:1;fill-rule:nonzero;stroke:none"
         transform="matrix(1.3333333,0,0,-1.3333333,94.613333,158.46799)" />
      <path
         id="path18"
         d="m 0,0 v -4.167 h -0.346 c -0.26,1.087 -0.744,1.921 -1.453,2.5 -0.71,0.579 -1.514,0.869 -2.412,0.869 -0.751,0 -1.439,-0.216 -2.066,-0.647 -0.626,-0.432 -1.084,-0.996 -1.374,-1.694 -0.372,-0.892 -0.559,-1.885 -0.559,-2.978 0,-1.076 0.136,-2.056 0.408,-2.939 0.272,-0.884 0.698,-1.552 1.277,-2.004 0.579,-0.453 1.33,-0.678 2.252,-0.678 0.756,0 1.449,0.165 2.079,0.496 0.629,0.331 1.293,0.901 1.99,1.711 v -1.037 c -0.673,-0.703 -1.376,-1.213 -2.106,-1.529 -0.73,-0.316 -1.582,-0.474 -2.557,-0.474 -1.283,0 -2.422,0.257 -3.418,0.77 -0.996,0.515 -1.764,1.253 -2.305,2.217 -0.541,0.963 -0.811,1.989 -0.811,3.076 0,1.147 0.3,2.235 0.9,3.263 0.6,1.028 1.41,1.826 2.429,2.394 1.02,0.567 2.103,0.851 3.249,0.851 0.845,0 1.738,-0.183 2.677,-0.55 0.544,-0.213 0.89,-0.319 1.038,-0.319 0.189,0 0.353,0.069 0.492,0.208 0.139,0.14 0.229,0.359 0.27,0.661 L 0,0"
         style="fill:#231f20;fill-opacity:1;fill-rule:nonzero;stroke:none"
         transform="matrix(1.3333333,0,0,-1.3333333,111.328,142.50933)" />
      <path
         id="path19"
         d="M 0,0 -1.791,4.141 -3.635,0 Z m 0.302,-0.656 h -4.247 l -0.505,-1.17 c -0.166,-0.39 -0.249,-0.712 -0.249,-0.967 0,-0.336 0.136,-0.585 0.408,-0.744 0.16,-0.094 0.553,-0.166 1.179,-0.213 V -4.078 H -7.11 v 0.328 c 0.431,0.065 0.786,0.245 1.064,0.537 0.277,0.293 0.62,0.896 1.028,1.813 l 4.3,9.592 h 0.169 L 3.786,-1.667 C 4.199,-2.6 4.54,-3.188 4.805,-3.43 5.006,-3.614 5.29,-3.72 5.656,-3.75 V -4.078 H -0.16 v 0.328 h 0.24 c 0.467,0 0.795,0.065 0.984,0.196 0.13,0.093 0.195,0.23 0.195,0.407 0,0.106 -0.018,0.216 -0.053,0.328 -0.012,0.054 -0.101,0.275 -0.266,0.665 l -0.638,1.498"
         style="fill:#231f20;fill-opacity:1;fill-rule:nonzero;stroke:none"
         transform="matrix(1.3333333,0,0,-1.3333333,122.32133,153.468)" />
      <path
         id="path20"
         d="m 0,0 5.931,-7.456 v 5.169 c 0,0.72 -0.103,1.209 -0.31,1.463 -0.284,0.342 -0.76,0.507 -1.428,0.496 V 0 H 8.165 V -0.328 C 7.657,-0.393 7.315,-0.478 7.141,-0.58 6.967,-0.684 6.831,-0.853 6.733,-1.086 6.636,-1.32 6.587,-1.72 6.587,-2.287 V -12.296 H 6.286 l -8.13,10.009 v -7.642 c 0,-0.692 0.158,-1.159 0.474,-1.401 0.316,-0.242 0.679,-0.364 1.086,-0.364 H 0 v -0.328 h -4.264 v 0.328 c 0.662,0.006 1.122,0.142 1.383,0.409 0.26,0.265 0.39,0.717 0.39,1.356 v 8.484 l -0.258,0.319 c -0.253,0.319 -0.478,0.529 -0.673,0.63 -0.195,0.1 -0.476,0.156 -0.842,0.168 l 0,0.328 H 0"
         style="fill:#231f20;fill-opacity:1;fill-rule:nonzero;stroke:none"
         transform="matrix(1.3333333,0,0,-1.3333333,136.164,142.876)" />
      <path
         id="path21"
         d="M 0,0 -1.791,4.141 -3.635,0 Z m 0.302,-0.656 h -4.247 l -0.505,-1.17 c -0.166,-0.39 -0.249,-0.712 -0.249,-0.967 0,-0.336 0.136,-0.585 0.408,-0.744 0.159,-0.094 0.553,-0.166 1.179,-0.213 V -4.078 H -7.11 v 0.328 c 0.431,0.065 0.786,0.245 1.063,0.537 0.278,0.293 0.621,0.896 1.029,1.813 l 4.3,9.592 h 0.169 L 3.785,-1.667 C 4.199,-2.6 4.539,-3.188 4.805,-3.43 5.006,-3.614 5.29,-3.72 5.656,-3.75 V -4.078 H -0.16 v 0.328 h 0.24 c 0.467,0 0.795,0.065 0.984,0.196 0.13,0.093 0.195,0.23 0.195,0.407 0,0.106 -0.018,0.216 -0.053,0.328 -0.012,0.054 -0.101,0.275 -0.266,0.665 l -0.638,1.498"
         style="fill:#231f20;fill-opacity:1;fill-rule:nonzero;stroke:none"
         transform="matrix(1.3333333,0,0,-1.3333333,157.288,153.468)"
         clip-path="url(#clipPath22)" />
    </g>
  </g>
</svg>
