<?xml version="1.0" encoding="UTF-8" standalone="no"?>
<!-- Created with Inkscape (http://www.inkscape.org/) -->

<svg
   version="1.1"
   id="svg1"
   width="712.40399"
   height="709.02264"
   viewBox="0 0 712.40399 709.02264"
   sodipodi:docname="Dominica Red Cross logo.svg"
   inkscape:version="1.3.2 (091e20e, 2023-11-25, custom)"
   xmlns:inkscape="http://www.inkscape.org/namespaces/inkscape"
   xmlns:sodipodi="http://sodipodi.sourceforge.net/DTD/sodipodi-0.dtd"
   xmlns="http://www.w3.org/2000/svg"
   xmlns:svg="http://www.w3.org/2000/svg">
  <defs
     id="defs1">
    <clipPath
       clipPathUnits="userSpaceOnUse"
       id="clipPath3">
      <path
         d="M 0.059998,531.72 H 534.303 V 0 H 0.059998 Z"
         transform="translate(-520.72201,-265.78901)"
         id="path3" />
    </clipPath>
  </defs>
  <sodipodi:namedview
     id="namedview1"
     pagecolor="#ffffff"
     bordercolor="#666666"
     borderopacity="1.0"
     inkscape:showpageshadow="2"
     inkscape:pageopacity="0.0"
     inkscape:pagecheckerboard="0"
     inkscape:deskcolor="#d1d1d1"
     inkscape:zoom="1.157932"
     inkscape:cx="356.23854"
     inkscape:cy="354.51132"
     inkscape:window-width="1920"
     inkscape:window-height="1017"
     inkscape:window-x="-8"
     inkscape:window-y="-8"
     inkscape:window-maximized="1"
     inkscape:current-layer="g1">
    <inkscape:page
       x="0"
       y="0"
       inkscape:label="1"
       id="page1"
       width="712.40399"
       height="709.02264"
       margin="0"
       bleed="0" />
  </sodipodi:namedview>
  <g
     id="g1"
     inkscape:groupmode="layer"
     inkscape:label="1">
    <g
       id="group-MC1">
      <path
         id="path2"
         d="m 0,0 c -0.413,140.623 -113.984,250.503 -249.984,252.33 -141.742,1.905 -256.33,-111.787 -257.173,-250.534 -0.846,-139.182 111.556,-251.782 249.469,-253.917 C -117.114,-254.298 -0.444,-141.996 0,0 Z m -257.938,-265.789 c -56.951,1.441 -112.398,19.074 -160.73,57.157 -44.754,35.265 -75.423,80.134 -91.273,134.938 -7.295,25.224 -11.414,50.985 -10.701,77.301 1.509,55.719 17.652,106.626 50.548,151.973 25.968,35.796 58.949,63.223 98.428,82.904 25.562,12.743 52.733,20.361 80.898,24.641 20.718,3.148 41.532,3.749 62.344,1.513 50.955,-5.473 97.356,-22.73 138.045,-54.335 43.491,-33.782 74.153,-76.686 90.943,-129.214 9.791,-30.633 14.73,-62.122 12.479,-94.277 -5.916,-84.49 -42.581,-152.382 -111.154,-202.57 -34.303,-25.108 -72.901,-39.82 -114.697,-46.611 -13.59,-2.208 -27.262,-3.193 -45.13,-3.42"
         style="fill:#ec1d27;fill-opacity:1;fill-rule:nonzero;stroke:none"
         transform="matrix(1.3333333,0,0,-1.3333333,694.296,354.63733)"
         clip-path="url(#clipPath3)" />
      <path
         id="path4"
         d="M 0,0 C 98.577,0.515 174.627,79.643 174.685,173.481 174.744,269.617 96.613,347.513 0.047,347.469 -96.303,347.426 -174.398,269.77 -174.513,173.965 -174.626,79.512 -98.272,0.607 0,0 Z M 180.202,173.7 C 180.165,74.972 99.326,-5.578 0.073,-5.302 c -99.722,0.277 -179.859,79.428 -180.001,179.338 -0.14,98.863 80.92,178.991 180.183,178.922 99.224,-0.07 179.985,-80.521 179.947,-179.258"
         style="fill:#ec1d27;fill-opacity:1;fill-rule:nonzero;stroke:none"
         transform="matrix(1.3333333,0,0,-1.3333333,355.456,586.764)" />
      <path
         id="path5"
         d="M 0,0 C 0.729,-0.037 1.698,0.466 2.388,1.518 3.098,2.6 3.043,3.701 2.405,4.774 1.056,7.041 -1.16,8.53 -2.803,10.524 -4.109,12.11 -5.135,12.103 -6.373,10.496 -7.072,9.59 -7.99,8.855 -8.792,8.027 -9.112,7.696 -9.462,7.401 -9.28,6.801 -8.813,5.259 -2.266,0.153 0,0 Z m -0.958,-9.081 c 3.135,-6.645 0.969,-13.459 1.876,-20.669 2.142,2.793 3.98,5.165 5.792,7.556 4.812,6.355 9.651,12.69 14.386,19.102 1.014,1.372 1.626,1.618 3.107,0.497 8.591,-6.502 17.698,-12.208 27.365,-16.976 1.734,-0.855 1.875,-1.617 1.046,-3.273 -2.96,-5.91 -2.931,-5.998 -8.728,-2.761 -4.44,2.479 -8.85,5.023 -13.139,7.75 -1.637,1.042 -2.087,0.208 -2.846,-0.889 -0.827,-1.195 -1.129,-1.993 0.448,-2.951 5.333,-3.239 10.671,-6.469 16.249,-9.268 1.411,-0.708 1.682,-1.264 0.908,-2.765 -2.631,-5.1 -2.59,-5.199 -7.613,-2.4 -4.44,2.475 -8.881,4.969 -13.146,7.725 -1.907,1.232 -2.856,0.953 -3.705,-0.938 -0.155,-0.346 -0.379,-0.677 -0.632,-0.961 -1.472,-1.65 -1.283,-2.713 0.747,-3.935 6.085,-3.666 12.187,-7.297 18.558,-10.437 1.733,-0.854 2.19,-1.514 1.226,-3.386 -2.987,-5.807 -2.89,-5.828 -8.604,-2.805 -15.682,8.296 -30.231,18.236 -43.653,29.844 -1.404,1.214 -1.938,2.437 -1.753,4.207 0.379,3.627 0.655,7.265 0.986,10.897 0.13,1.433 0.393,2.876 -0.052,4.286 -1.142,3.623 -2.48,3.96 -5.116,1.35 -2.185,-2.163 -4.425,-4.271 -6.561,-6.48 -0.918,-0.95 -1.492,-1.147 -2.481,-0.016 -3.032,3.471 -6.155,6.864 -9.31,10.224 -1.028,1.094 -0.992,1.698 0.217,2.707 8.332,6.953 16.589,13.997 24.868,21.014 0.9,0.762 1.571,1.511 2.754,0.073 5.44,-6.614 11.661,-12.49 17.753,-18.487 1.362,-1.34 2.658,-2.799 3.719,-4.38 2.698,-4.021 2.602,-8.271 -0.07,-11.807 -2.547,-3.37 -6.485,-4.415 -11.149,-2.924 -1.056,0.337 -2.082,0.767 -3.447,1.276"
         style="fill:#231f20;fill-opacity:1;fill-rule:nonzero;stroke:none"
         transform="matrix(1.3333333,0,0,-1.3333333,168.02533,561.65333)" />
      <path
         id="path6"
         d="m 0,0 c 1.291,-7.177 -2.048,-12.3 -6.908,-16.583 -6.106,-5.38 -12.734,-9.974 -21.119,-10.997 -3.702,-0.451 -6.983,0.703 -9.779,3.264 -1.444,1.323 -1.846,2.208 0.287,3.287 2.133,1.079 4.094,2.5 6.119,3.79 2.311,1.471 4.078,3.293 7.408,0.896 3.286,-2.366 10.92,2.11 11.659,6.187 0.355,1.96 -0.669,2.91 -2.529,3.001 -2.08,0.103 -3.933,-0.781 -5.789,-1.551 -4.519,-1.875 -8.953,-4.007 -13.913,-4.493 -1.142,-0.111 -2.309,-0.179 -3.447,-0.076 -5.69,0.513 -8.821,5.04 -7.399,10.614 0.435,1.701 1.153,3.304 2.284,4.615 5.584,6.47 12.397,11.142 20.648,13.512 3.21,0.922 6.266,0.176 9.079,-1.635 1.248,-0.804 1.553,-1.493 0.227,-2.552 -2.776,-2.219 -5.506,-4.497 -8.21,-6.804 -0.861,-0.734 -1.513,-0.701 -2.534,-0.191 -2.992,1.494 -7.217,0.115 -9.055,-2.762 -0.549,-0.86 -0.872,-1.753 -0.322,-2.695 0.65,-1.114 1.772,-1.215 2.794,-0.815 2.946,1.155 5.832,2.464 8.762,3.662 4.249,1.737 8.359,3.91 13.157,3.849 1.992,-0.025 3.934,-0.282 5.398,-1.599 1.298,-1.167 1.932,-0.5 2.813,0.37 2.392,2.363 4.869,4.641 7.231,7.033 0.921,0.933 1.625,1.337 2.935,0.559 5.024,-2.986 12.172,3.97 12.428,8.254 0.11,1.834 -0.972,2.851 -2.932,2.598 C 17.715,22.535 16.42,21.678 15.141,20.834 12.176,18.876 9.28,16.811 6.277,14.915 3.92,13.428 1.39,12.277 -1.364,11.653 -8.863,9.955 -13.9,15.189 -11.877,22.634 c 0.251,0.922 0.536,1.867 1,2.693 4.279,7.622 10.183,13.692 17.784,18.006 3.164,1.795 6.598,1.87 10.02,0.501 1.082,-0.433 1.578,-0.901 0.638,-2.042 C 15.122,38.826 12.734,35.814 10.381,32.777 9.677,31.868 8.959,31.785 7.89,32.023 4.536,32.772 0.274,30.196 -0.714,26.944 c -0.294,-0.969 -0.374,-1.931 0.455,-2.67 0.842,-0.749 1.837,-0.599 2.672,-0.043 2.397,1.596 4.749,3.259 7.103,4.918 3.608,2.541 7.074,5.303 11.225,6.976 3.407,1.373 6.794,1.699 9.809,-0.755 3.061,-2.492 3.608,-5.93 3.053,-9.664 -0.3,-2.018 -0.847,-3.964 -1.798,-5.745 C 27.295,11.513 20.761,5.002 12.423,0.375 8.54,-1.779 4.353,-1.683 0,0"
         style="fill:#231f20;fill-opacity:1;fill-rule:nonzero;stroke:none"
         transform="matrix(1.3333333,0,0,-1.3333333,545.26,585.496)" />
      <path
         id="path7"
         d="m 0,0 c 0.888,6.192 1.872,12.318 2.597,18.475 0.309,2.619 1.064,4.101 4.031,4.352 5.351,0.453 10.676,1.257 15.995,2.033 1.655,0.241 2.248,-0.293 2.384,-1.884 0.929,-10.811 1.889,-21.619 2.883,-32.424 0.122,-1.319 -0.249,-1.944 -1.621,-2.057 -2.583,-0.214 -5.172,-0.441 -7.73,-0.843 -1.477,-0.232 -1.974,0.109 -2.189,1.653 -1.033,7.414 -2.211,14.809 -3.342,22.21 -0.05,0.331 -0.143,0.655 -0.397,1.785 C 11.254,8.692 10.799,4.717 10.172,0.791 9.477,-3.568 8.921,-7.95 8.416,-12.335 c -0.143,-1.243 -2.202,-2.164 -2.39,-2.202 -2.526,-0.51 -5.472,-2.055 -7.458,-1.245 -1.99,0.812 -11.649,16.761 -16.053,21.636 1.391,-4.587 2.778,-9.176 4.174,-13.761 0.922,-3.028 1.784,-6.077 2.818,-9.067 0.466,-1.346 0.168,-1.845 -1.175,-2.23 -2.487,-0.712 -4.952,-1.539 -7.357,-2.492 -1.394,-0.552 -2.052,-0.304 -2.579,1.116 -3.808,10.249 -7.639,20.49 -11.563,30.695 -0.601,1.561 -0.01,2.005 1.252,2.439 5.624,1.936 11.277,3.769 16.99,5.436 1.682,0.49 2.45,-0.025 3.285,-1.284 C -8.352,11.744 -1.095,0.246 0,0"
         style="fill:#231f20;fill-opacity:1;fill-rule:nonzero;stroke:none"
         transform="matrix(1.3333333,0,0,-1.3333333,302.46,77.494667)" />
      <path
         id="path8"
         d="m 0,0 c -0.657,-6.024 -1.347,-11.41 -1.784,-16.817 -0.185,-2.284 -0.768,-3.229 -3.284,-2.769 -2.628,0.48 -5.343,0.531 -8.026,0.641 -1.512,0.062 -1.945,0.698 -1.876,2.147 0.498,10.543 0.967,21.089 1.377,31.636 0.08,2.058 0.482,3.103 2.978,2.703 3.4,-0.544 6.874,-0.674 10.323,-0.837 1.501,-0.071 2.425,-0.703 3.315,-1.855 4.521,-5.854 8.806,-11.868 12.693,-18.164 0.49,-0.794 1.035,-1.556 1.881,-2.82 1.243,5.991 2.495,11.44 3.453,16.94 0.382,2.186 1.193,2.661 3.222,2.097 3.323,-0.923 6.683,-1.738 10.06,-2.44 1.678,-0.349 2.232,-0.915 1.723,-2.711 -2.929,-10.33 -5.787,-20.681 -8.573,-31.051 -0.474,-1.764 -1.247,-1.936 -2.846,-1.495 -4.337,1.197 -10.032,1.968 -11.64,5.302 C 10.834,-14.673 3.709,-4.722 0,0"
         style="fill:#231f20;fill-opacity:1;fill-rule:nonzero;stroke:none"
         transform="matrix(1.3333333,0,0,-1.3333333,391.40133,66.682667)" />
      <path
         id="path9"
         d="m 0,0 c -0.839,3.893 -3.475,6.997 -7.143,9.133 -3.164,1.844 -5.925,0.128 -8.443,-1.776 -1.219,-0.923 -2.244,-2.101 -3.443,-3.056 -1.361,-1.084 -1.407,-1.897 -0.061,-3.156 3.157,-2.951 6.146,-6.081 9.203,-9.138 2.646,-2.645 2.684,-2.681 5.389,0.113 C -2.451,-5.765 -0.05,-3.82 0,0 Z M -4.332,22.847 C 3.461,22.81 7.925,18.174 11.158,12.024 14.458,5.747 13.164,-0.256 9.325,-5.843 5.656,-11.184 0.38,-15.039 -3.902,-19.821 c -2.112,-2.357 -4.362,-4.595 -6.374,-7.033 -1.022,-1.238 -1.672,-1.103 -2.757,-0.172 -8.224,7.06 -16.455,14.113 -24.768,21.068 -1.482,1.239 -1.151,1.916 -0.075,3.148 5.369,6.149 11.004,12.038 17.015,17.554 4.729,4.339 9.887,7.939 16.529,8.103"
         style="fill:#231f20;fill-opacity:1;fill-rule:nonzero;stroke:none"
         transform="matrix(1.3333333,0,0,-1.3333333,189.20533,140.72267)" />
      <path
         id="path10"
         d="m 0,0 c -6.133,0.018 -12.718,-5.301 -12.728,-10.279 -0.01,-5.176 5.287,-11.026 9.921,-10.958 5.75,0.086 11.965,5.242 11.984,9.942 C 9.202,-5.332 4.881,-0.014 0,0 Z m -26.786,-14.97 c -0.041,5.803 2.772,10.354 6.766,14.122 6.417,6.055 13.953,10.16 22.793,11.447 6.474,0.942 12.428,-0.253 16.396,-5.932 4.156,-5.948 5.129,-12.365 2.109,-19.335 -3.87,-8.929 -24.066,-19.548 -33.718,-17.188 -7.805,1.909 -14.335,8.968 -14.346,16.886"
         style="fill:#231f20;fill-opacity:1;fill-rule:nonzero;stroke:none"
         transform="matrix(1.3333333,0,0,-1.3333333,233.84667,86.082667)" />
      <path
         id="path11"
         d="M 0,0 C 2.543,0.097 5.067,0.619 7.474,1.629 8.933,2.241 9.789,3.331 9.646,4.984 9.49,6.79 8.317,7.645 6.66,7.988 5.301,8.27 3.993,7.871 2.674,7.67 -4.272,6.611 -2.17,7.989 -1.852,1.577 -1.797,0.475 -1.384,-0.299 0,0 Z m 15.582,-3.217 c 7.244,-2.004 11.354,-7.951 17.581,-11.975 -5.617,-1.715 -10.721,-2.786 -15.842,-3.792 -1.143,-0.224 -1.773,0.527 -2.461,1.181 -2.783,2.644 -5.55,5.304 -8.338,7.942 -0.762,0.721 -1.502,1.514 -2.388,2.045 -1.272,0.762 -2.815,1.092 -4.139,0.41 -1.387,-0.714 -0.296,-2.072 -0.215,-3.083 0.246,-3.057 0.721,-6.096 1.091,-9.143 0.131,-1.078 0.291,-2.082 -1.366,-2.204 -4.113,-0.303 -8.22,-0.702 -12.321,-1.141 -1.679,-0.18 -2.09,0.544 -2.173,2.093 -0.575,10.727 -1.223,21.451 -1.873,32.174 -0.078,1.274 -0.053,2.127 1.67,2.207 8.253,0.384 16.385,1.867 24.569,2.88 0.476,0.058 0.953,0.122 1.432,0.148 6.203,0.348 10.388,-2.127 11.814,-6.979 1.432,-4.874 -0.52,-8.872 -5.902,-12.088 -0.302,-0.18 -0.606,-0.359 -1.139,-0.675"
         style="fill:#231f20;fill-opacity:1;fill-rule:nonzero;stroke:none"
         transform="matrix(1.3333333,0,0,-1.3333333,393.14933,633.804)" />
      <path
         id="path12"
         d="M 0,0 C 1.267,0.053 2.445,0.341 3.482,1.135 6.212,3.228 8.448,10.451 7.417,13.75 7.12,14.702 6.637,15.516 5.943,16.169 4.014,17.982 1.552,18.82 -0.863,19.724 -2.034,20.163 -2.339,19.351 -2.672,18.496 -4.547,13.693 -6.445,8.899 -8.329,4.099 -8.595,3.421 -9.131,2.699 -7.959,2.265 -5.363,1.302 -2.82,0.163 0,0 Z M 21.18,8.682 C 21.143,4.975 20.26,1.449 18.682,-1.879 16.094,-7.34 9.898,-10.536 3.677,-9.987 c -6.031,0.531 -11.573,2.638 -17.08,4.9 -3.991,1.639 -7.921,3.423 -11.904,5.081 -1.349,0.562 -1.678,1.208 -0.999,2.618 4.741,9.851 9.418,19.733 14.083,29.621 0.543,1.151 1.051,1.593 2.383,0.942 C -3.628,30.141 2.926,27.926 9.305,25.293 17.52,21.902 21.218,16.516 21.18,8.682"
         style="fill:#231f20;fill-opacity:1;fill-rule:nonzero;stroke:none"
         transform="matrix(1.3333333,0,0,-1.3333333,258.5,636.23467)" />
      <path
         id="path13"
         d="m 0,0 c -4.341,-1.938 -7.877,-3.541 -11.434,-5.094 -1.471,-0.642 -0.645,-1.246 -0.026,-1.842 1.721,-1.658 3.518,-3.242 5.178,-4.96 1.104,-1.144 1.608,-0.909 2.099,0.477 C -2.941,-7.913 -1.629,-4.431 0,0 Z m -0.512,-38.915 c -3.367,3.824 -6.441,7.351 -9.558,10.839 -1.169,1.308 -0.204,2.43 0.361,3.4 1.323,2.269 1.093,3.929 -1.017,5.669 -2.809,2.317 -5.438,4.872 -7.982,7.483 -1.54,1.58 -2.93,1.908 -4.674,0.493 -1.932,-1.566 -3.541,-1.329 -5.453,0.405 -2.823,2.56 -5.997,4.733 -9.234,7.235 4.829,2.993 9.725,5.326 14.607,7.672 6.659,3.201 13.498,5.976 20.416,8.574 1.709,0.643 2.812,0.459 4.074,-0.762 C 4.754,8.49 8.552,4.959 12.35,1.43 13.266,0.579 13.656,-0.203 13.27,-1.564 9.681,-14.227 5.163,-26.539 -0.512,-38.915"
         style="fill:#231f20;fill-opacity:1;fill-rule:nonzero;stroke:none"
         transform="matrix(1.3333333,0,0,-1.3333333,554.50267,132.13467)" />
      <path
         id="path14"
         d="M 0,0 C 6.085,-0.033 11.553,4.177 11.541,8.887 11.526,15.117 7.061,20.503 1.932,20.478 -4.075,20.449 -8.973,16.331 -8.953,11.327 -8.926,4.89 -5.082,0.027 0,0 Z m -3.623,-9.954 c -7.836,0.104 -13.663,2.458 -16.729,9.236 -3.254,7.191 -3.36,14.466 2.315,20.426 7.623,8.006 17.289,11.715 28.371,10.325 C 18.2,29.046 22.482,23.526 24.728,16.384 26.886,9.523 24.375,3.852 19.277,-0.669 12.566,-6.621 4.456,-9.296 -3.623,-9.954"
         style="fill:#231f20;fill-opacity:1;fill-rule:nonzero;stroke:none"
         transform="matrix(1.3333333,0,0,-1.3333333,457.492,635.22667)" />
      <path
         id="path15"
         d="m 0,0 c -4.876,-0.049 -9.171,1.777 -13.32,4.107 -3.776,2.121 -7.475,4.344 -10.523,7.485 -7.126,7.341 -7.376,18.891 -0.421,26.358 4.544,4.879 10.449,5.498 16.525,4.226 8.075,-1.692 15.07,-5.621 20.871,-11.518 3.588,-3.648 5.458,-8.036 5.274,-13.253 -0.065,-1.855 -0.49,-2.479 -2.31,-1.448 -1.833,1.039 -3.744,1.945 -5.653,2.844 -2.69,1.266 -5.028,2.269 -5.978,5.917 -1.27,4.876 -8.717,8.032 -13.282,6.574 -3.827,-1.222 -7.598,-8.149 -6.865,-12.613 0.912,-5.563 9.998,-9.479 15.069,-6.355 1.582,0.974 2.489,1.077 3.759,-0.416 C 5.195,9.498 7.472,7.279 9.687,5.013 10.698,3.979 10.544,3.312 9.31,2.583 6.426,0.877 3.351,-0.03 0,0"
         style="fill:#231f20;fill-opacity:1;fill-rule:nonzero;stroke:none"
         transform="matrix(1.3333333,0,0,-1.3333333,501.4,130.30133)" />
      <path
         id="path16"
         d="m 0,0 c -4.064,-0.157 -8.048,0.346 -11.919,1.617 -8.188,2.69 -13.08,9.215 -12.643,16.854 0.562,9.833 5.762,16.485 14.528,18.348 5.921,1.259 11.853,0.992 17.696,-0.545 4.692,-1.234 8.108,-4.149 10.629,-8.277 1.087,-1.78 0.493,-2.307 -1.249,-2.553 -1.71,-0.242 -3.414,-0.546 -5.107,-0.89 -2.496,-0.506 -4.413,-0.892 -6.658,1.697 -3.628,4.186 -13.559,3.762 -15.192,-4.363 -0.151,-0.753 -0.339,-1.503 -0.433,-2.263 -0.7,-5.667 0.921,-9.076 5.034,-10.328 4.826,-1.47 10.382,-0.789 12.426,4.553 0.529,1.384 1.419,1.271 2.52,1.02 2.995,-0.681 5.976,-1.464 9.004,-1.94 1.884,-0.295 1.861,-1.096 1.284,-2.496 C 17.15,3.72 11.745,0.798 4.895,0.027 3.283,-0.155 1.632,0 0,0"
         style="fill:#231f20;fill-opacity:1;fill-rule:nonzero;stroke:none"
         transform="matrix(1.3333333,0,0,-1.3333333,341.41333,665.184)" />
      <path
         id="path17"
         d="m 0,0 c -3.904,1.323 -7.805,2.655 -11.714,3.963 -1.059,0.354 -0.866,1.088 -0.635,1.846 3.245,10.636 6.508,21.267 9.719,31.913 0.393,1.301 1.138,1.37 2.18,1.01 4.346,-1.501 8.682,-3.031 13.04,-4.496 1.256,-0.422 1.305,-1.146 0.891,-2.2 C 9.416,21.685 5.372,11.325 1.292,0.978 1.083,0.446 1.002,-0.478 0,0"
         style="fill:#231f20;fill-opacity:1;fill-rule:nonzero;stroke:none"
         transform="matrix(1.3333333,0,0,-1.3333333,450.10533,107.90667)" />
      <path
         id="path18"
         d="m 0,0 c 0.024,-1.61 -0.461,-2.156 -2.108,-2.147 -3.447,0.019 -6.899,-0.121 -10.341,-0.326 -1.433,-0.085 -1.892,0.549 -1.967,1.793 -0.657,11.005 -1.287,22.013 -2.011,33.014 -0.109,1.65 0.772,1.687 1.904,1.71 4.409,0.09 8.82,0.149 13.228,0.302 1.425,0.05 1.726,-0.481 1.704,-1.84 C 0.322,27.042 -0.082,5.368 0,0"
         style="fill:#231f20;fill-opacity:1;fill-rule:nonzero;stroke:none"
         transform="matrix(1.3333333,0,0,-1.3333333,364.57067,88.782667)" />
      <path
         id="path19"
         d="m 0,0 c -12.303,0 -24.606,0.079 -36.907,-0.062 -2.701,-0.031 -3.553,0.572 -3.538,3.444 0.126,24.316 0.024,48.634 0.138,72.95 0.013,2.747 -0.864,3.326 -3.412,3.317 -24.702,-0.082 -49.404,-0.004 -74.105,-0.111 -2.768,-0.012 -3.547,0.707 -3.534,3.509 0.111,24.125 0.105,48.25 0.005,72.375 -0.011,2.67 0.777,3.363 3.389,3.353 24.701,-0.092 49.403,-0.012 74.104,-0.114 2.725,-0.011 3.568,0.632 3.554,3.475 -0.117,24.317 -0.016,48.635 -0.137,72.951 -0.013,2.765 0.877,3.29 3.395,3.282 24.605,-0.081 49.211,-0.108 73.816,0.028 3.042,0.016 3.613,-0.944 3.601,-3.741 -0.103,-23.932 -0.06,-47.865 -0.058,-71.798 0,-4.131 0.005,-4.136 4.021,-4.136 24.51,-0.002 49.019,-0.046 73.528,0.06 2.765,0.012 3.551,-0.721 3.538,-3.509 -0.106,-24.124 -0.105,-48.25 0.001,-72.374 0.012,-2.701 -0.794,-3.362 -3.399,-3.353 -24.509,0.091 -49.019,0.055 -73.528,0.053 -4.158,0 -4.161,-0.004 -4.161,-4.285 C 40.309,51.381 40.267,27.448 40.369,3.516 40.38,0.813 39.776,-0.106 36.907,-0.068 24.607,0.092 12.303,0 0,0"
         style="fill:#ec1d27;fill-opacity:1;fill-rule:nonzero;stroke:none"
         transform="matrix(1.3333333,0,0,-1.3333333,356.17467,513.396)" />
    </g>
  </g>
</svg>
