<?xml version="1.0" encoding="UTF-8" standalone="no"?>
<!-- Created with Inkscape (http://www.inkscape.org/) -->

<svg
   version="1.1"
   id="svg1"
   width="584.26398"
   height="219.08133"
   viewBox="0 0 584.26398 219.08133"
   sodipodi:docname="CR Gabon.svg"
   inkscape:version="1.3.2 (091e20e, 2023-11-25, custom)"
   xmlns:inkscape="http://www.inkscape.org/namespaces/inkscape"
   xmlns:sodipodi="http://sodipodi.sourceforge.net/DTD/sodipodi-0.dtd"
   xmlns="http://www.w3.org/2000/svg"
   xmlns:svg="http://www.w3.org/2000/svg">
  <defs
     id="defs1">
    <clipPath
       clipPathUnits="userSpaceOnUse"
       id="clipPath3">
      <path
         d="M 0,164.28 H 438.198 V 0 H 0 Z"
         transform="translate(-164.313,-108.632)"
         id="path3" />
    </clipPath>
  </defs>
  <sodipodi:namedview
     id="namedview1"
     pagecolor="#ffffff"
     bordercolor="#666666"
     borderopacity="1.0"
     inkscape:showpageshadow="2"
     inkscape:pageopacity="0.0"
     inkscape:pagecheckerboard="0"
     inkscape:deskcolor="#d1d1d1"
     inkscape:export-bgcolor="#ffffffff"
     inkscape:zoom="1.600304"
     inkscape:cx="292.13199"
     inkscape:cy="109.66666"
     inkscape:window-width="1920"
     inkscape:window-height="1017"
     inkscape:window-x="-8"
     inkscape:window-y="-8"
     inkscape:window-maximized="1"
     inkscape:current-layer="g1">
    <inkscape:page
       x="0"
       y="0"
       inkscape:label="1"
       id="page1"
       width="584.26398"
       height="219.08133"
       margin="0"
       bleed="0"
       inkscape:export-filename="CR Gabon.png"
       inkscape:export-xdpi="300"
       inkscape:export-ydpi="300" />
  </sodipodi:namedview>
  <g
     id="g1"
     inkscape:groupmode="layer"
     inkscape:label="1">
    <g
       id="group-MC1">
      <path
         id="path2"
         d="m 0,0 h -55.682 v 55.679 h -52.402 V 0 h -56.229 v -52.409 h 56.229 v -56.223 h 52.402 v 56.223 H 0 L 0,0"
         style="fill:#ed1c24;fill-opacity:1;fill-rule:nonzero;stroke:none"
         transform="matrix(1.3333333,0,0,-1.3333333,219.084,74.238667)"
         clip-path="url(#clipPath3)" />
      <path
         id="path4"
         d="M 0,0 3.854,-1.231 C 3.252,-3.45 2.252,-5.069 0.85,-6.09 c -1.397,-1.024 -3.121,-1.538 -5.168,-1.538 -2.567,0 -4.647,0.819 -6.243,2.45 -1.841,1.882 -2.757,4.425 -2.757,7.626 0,3.381 0.923,6.03 2.771,7.939 1.61,1.66 3.772,2.488 6.489,2.488 2.21,0 4.058,-0.62 5.544,-1.865 C 2.547,10.127 3.328,8.813 3.82,7.075 L -0.115,6.126 c -0.254,1.075 -0.754,1.897 -1.506,2.471 -0.746,0.572 -1.637,0.859 -2.649,0.859 -1.458,0 -2.65,-0.523 -3.566,-1.57 -0.924,-1.048 -1.383,-2.773 -1.383,-5.182 0,-2.495 0.452,-4.271 1.348,-5.328 0.891,-1.054 2.06,-1.582 3.492,-1.582 1.047,0 1.957,0.336 2.723,1.006 0.76,0.674 1.314,1.738 1.656,3.2"
         style="fill:#000000;fill-opacity:1;fill-rule:nonzero;stroke:none"
         transform="matrix(1.3333333,0,0,-1.3333333,186.912,186.104)" />
      <path
         id="path5"
         d="m 0,0 h -3.791 v 14.365 h 3.512 v -2.044 c 0.602,0.955 1.143,1.591 1.616,1.906 0.478,0.318 1.027,0.476 1.648,0.476 0.863,0 1.691,-0.24 2.478,-0.718 L 4.28,10.672 C 3.657,11.086 3.067,11.295 2.506,11.295 1.987,11.295 1.52,11.133 1.124,10.813 0.727,10.494 0.44,9.912 0.262,9.074 0.09,8.235 0,6.692 0,4.444 V 0"
         style="fill:#000000;fill-opacity:1;fill-rule:nonzero;stroke:none"
         transform="matrix(1.3333333,0,0,-1.3333333,201.38533,195.824)" />
      <path
         id="path6"
         d="m 0,0 c 0,-1.454 0.342,-2.556 1.033,-3.302 0.692,-0.746 1.525,-1.119 2.498,-1.119 0.951,0 1.772,0.375 2.449,1.125 0.678,0.754 1.022,1.859 1.022,3.323 C 7.002,1.458 6.658,2.546 5.967,3.3 5.275,4.048 4.447,4.425 3.482,4.425 2.531,4.425 1.711,4.048 1.025,3.3 0.342,2.546 0,1.448 0,0 Z m -3.875,0.206 c 0,1.409 0.342,2.689 1.019,3.846 0.678,1.156 1.561,2.023 2.657,2.601 1.095,0.578 2.326,0.869 3.689,0.869 2.299,0 4.1,-0.742 5.414,-2.231 1.315,-1.485 1.965,-3.22 1.965,-5.209 0,-1.481 -0.344,-2.817 -1.022,-4.011 C 9.164,-5.12 8.267,-6.017 7.158,-6.618 6.049,-7.218 4.832,-7.519 3.51,-7.519 c -2.122,0 -3.881,0.67 -5.284,2.006 -1.396,1.338 -2.101,3.244 -2.101,5.719"
         style="fill:#000000;fill-opacity:1;fill-rule:nonzero;stroke:none"
         transform="matrix(1.3333333,0,0,-1.3333333,214.81333,186.24933)" />
      <path
         id="path7"
         d="M 3.791,0 H 0 V 14.365 H 3.791 Z M 0,0 Z M 3.791,16.312 H 0 v 3.518 h 3.791 z"
         style="fill:#000000;fill-opacity:1;fill-rule:nonzero;stroke:none"
         transform="matrix(1.3333333,0,0,-1.3333333,233.26667,195.824)" />
      <path
         id="path8"
         d="M 0,0 5.126,7.346 0.21,14.365 h 4.627 l 2.596,-3.703 2.586,3.703 h 4.43 L 9.65,7.499 14.908,0 H 10.267 L 7.337,4.186 4.414,0 H 0"
         style="fill:#000000;fill-opacity:1;fill-rule:nonzero;stroke:none"
         transform="matrix(1.3333333,0,0,-1.3333333,241.05067,195.824)" />
      <path
         id="path9"
         d="m 196.811,22.731 h 7.434 v 3.802 h -7.434 z"
         style="fill:#000000;fill-opacity:1;fill-rule:nonzero;stroke:none"
         transform="matrix(1.3333333,0,0,-1.3333333,0,219.08133)" />
      <path
         id="path10"
         d="M 0,0 H 2.949 C 4.756,0 5.899,0.064 6.393,0.199 6.885,0.328 7.289,0.591 7.59,0.989 7.899,1.386 8.049,1.913 8.049,2.57 8.049,3.203 7.899,3.71 7.59,4.093 7.289,4.476 6.871,4.74 6.344,4.884 5.975,4.982 4.901,5.031 3.113,5.031 H 0 Z M -3.971,-11.442 V 8.388 H 4.406 C 6.557,8.388 8.082,8.207 9,7.851 9.924,7.494 10.676,6.879 11.266,6 11.854,5.119 12.149,4.069 12.149,2.84 12.149,1.291 11.697,0.041 10.801,-0.904 9.897,-1.852 8.617,-2.448 6.953,-2.69 c 0.85,-0.506 1.555,-1.058 2.115,-1.656 0.555,-0.6 1.315,-1.678 2.28,-3.229 l 2.394,-3.867 H 8.992 L 6.111,-7.125 C 5.078,-5.569 4.373,-4.59 4.004,-4.2 3.627,-3.806 3.236,-3.535 2.818,-3.389 2.402,-3.238 1.738,-3.162 0.82,-3.162 H 0 v -8.28 h -3.971"
         style="fill:#000000;fill-opacity:1;fill-rule:nonzero;stroke:none"
         transform="matrix(1.3333333,0,0,-1.3333333,281.46133,180.568)" />
      <path
         id="path11"
         d="m 0,0 c 0,-1.454 0.347,-2.556 1.039,-3.302 0.691,-0.746 1.519,-1.119 2.498,-1.119 0.951,0 1.767,0.375 2.451,1.125 0.678,0.754 1.014,1.859 1.014,3.323 C 7.002,1.458 6.658,2.546 5.966,3.3 5.275,4.048 4.447,4.425 3.49,4.425 2.531,4.425 1.716,4.048 1.025,3.3 0.341,2.546 0,1.448 0,0 Z m -3.866,0.206 c 0,1.409 0.336,2.689 1.01,3.846 0.678,1.156 1.569,2.023 2.662,2.601 1.09,0.578 2.321,0.869 3.69,0.869 2.293,0 4.101,-0.742 5.408,-2.231 1.314,-1.485 1.971,-3.22 1.971,-5.209 0,-1.481 -0.342,-2.817 -1.028,-4.011 C 9.164,-5.12 8.267,-6.017 7.158,-6.618 6.05,-7.218 4.832,-7.519 3.509,-7.519 c -2.121,0 -3.88,0.67 -5.277,2.006 -1.402,1.338 -2.098,3.244 -2.098,5.719"
         style="fill:#000000;fill-opacity:1;fill-rule:nonzero;stroke:none"
         transform="matrix(1.3333333,0,0,-1.3333333,306.6,186.24933)" />
      <path
         id="path12"
         d="M 0,0 V 2.151 C -0.528,1.369 -1.211,0.76 -2.061,0.323 c -0.855,-0.442 -1.744,-0.661 -2.668,-0.661 -0.939,0 -1.781,0.205 -2.527,0.61 -0.739,0.406 -1.293,0.984 -1.656,1.734 -0.37,0.746 -0.553,1.834 -0.553,3.262 v 9.097 h 3.791 V 7.762 c 0,-1.881 0.054,-3.08 0.172,-3.59 0.115,-0.51 0.369,-0.902 0.759,-1.183 0.389,-0.278 0.87,-0.418 1.424,-0.418 0.629,0 1.211,0.181 1.744,0.548 0.534,0.366 0.891,0.834 1.061,1.407 0.164,0.57 0.254,1.83 0.254,3.777 v 6.062 H 3.525 L 3.525,0 H 0"
         style="fill:#000000;fill-opacity:1;fill-rule:nonzero;stroke:none"
         transform="matrix(1.3333333,0,0,-1.3333333,337.54533,195.824)" />
      <path
         id="path13"
         d="m 0,0 c 0,-1.533 0.295,-2.654 0.891,-3.359 0.601,-0.703 1.32,-1.056 2.162,-1.056 0.904,0 1.685,0.355 2.328,1.07 0.643,0.713 0.965,1.798 0.965,3.252 0,1.5 -0.309,2.607 -0.924,3.323 C 4.807,3.949 4.039,4.308 3.137,4.308 2.238,4.308 1.492,3.956 0.891,3.251 0.295,2.546 0,1.464 0,0 Z M -3.381,-8.433 0.953,-8.96 c 0.061,-0.524 0.266,-0.893 0.594,-1.116 0.336,-0.218 0.863,-0.332 1.59,-0.332 0.828,0 1.498,0.114 2.012,0.338 0.363,0.164 0.642,0.436 0.834,0.813 0.199,0.379 0.302,1.047 0.302,2.002 v 2.097 C 5.717,-5.935 5.073,-6.517 4.362,-6.904 3.649,-7.29 2.862,-7.486 2,-7.486 c -1.582,0 -2.916,0.592 -3.998,1.774 -1.252,1.355 -1.875,3.185 -1.875,5.496 0,2.454 0.588,4.308 1.766,5.558 1.177,1.248 2.601,1.875 4.271,1.875 0.889,0 1.69,-0.199 2.422,-0.588 C 5.313,6.235 5.955,5.647 6.531,4.862 V 6.879 H 10.07 V -6.009 c 0,-2.069 -0.226,-3.565 -0.691,-4.49 -0.459,-0.932 -1.164,-1.629 -2.123,-2.106 -0.957,-0.473 -2.279,-0.709 -3.976,-0.709 -1.561,0 -2.813,0.172 -3.758,0.514 -0.938,0.342 -1.657,0.855 -2.157,1.533 -0.492,0.682 -0.746,1.469 -0.746,2.361 v 0.473"
         style="fill:#000000;fill-opacity:1;fill-rule:nonzero;stroke:none"
         transform="matrix(1.3333333,0,0,-1.3333333,351.516,185.84267)" />
      <path
         id="path14"
         d="M 0,0 C -0.027,1.123 -0.322,1.969 -0.869,2.534 -1.41,3.098 -2.061,3.382 -2.82,3.382 -3.613,3.382 -4.291,3.088 -4.832,2.5 -5.395,1.904 -5.668,1.069 -5.654,0 Z M -0.191,-3.853 3.559,-4.49 C 3.059,-5.929 2.272,-7.002 1.211,-7.703 0.15,-8.4 -1.143,-8.75 -2.662,-8.75 c -2.115,0 -3.744,0.582 -4.895,1.748 -1.355,1.356 -2.033,3.252 -2.033,5.692 0,2.402 0.686,4.326 2.047,5.77 1.164,1.222 2.656,1.831 4.498,1.831 2.039,0 3.641,-0.623 4.805,-1.869 C 3.094,2.996 3.758,0.891 3.758,-1.892 L 3.744,-2.326 h -9.467 c 0.022,-1.14 0.336,-2.023 0.932,-2.646 0.596,-0.625 1.32,-0.938 2.162,-0.938 1.219,0 2.027,0.686 2.438,2.057"
         style="fill:#000000;fill-opacity:1;fill-rule:nonzero;stroke:none"
         transform="matrix(1.3333333,0,0,-1.3333333,381.25067,184.608)" />
      <path
         id="path15"
         d="M 0,0 V 3.354 H 8.576 V -4.544 C 7.715,-5.384 6.49,-6.105 4.908,-6.708 3.32,-7.31 1.732,-7.615 0.13,-7.615 c -1.943,0 -3.662,0.393 -5.146,1.184 -1.486,0.791 -2.664,1.971 -3.533,3.543 -0.869,1.574 -1.307,3.426 -1.307,5.554 0,2.18 0.438,4.049 1.321,5.598 0.882,1.551 2.027,2.707 3.429,3.475 1.403,0.766 3.088,1.149 5.045,1.149 2.348,0 4.23,-0.493 5.647,-1.478 1.416,-0.989 2.328,-2.437 2.73,-4.35 L 4.38,6.317 C 4.087,7.334 3.547,8.114 2.759,8.655 1.972,9.196 1.027,9.469 -0.061,9.469 -1.758,9.469 -3.127,8.924 -4.182,7.837 -5.229,6.753 -5.756,5.096 -5.756,2.868 c 0,-2.389 0.568,-4.206 1.705,-5.451 0.978,-1.073 2.293,-1.61 3.955,-1.61 0.773,0 1.582,0.151 2.416,0.451 0.836,0.303 1.582,0.713 2.238,1.233 V 0 H 0"
         style="fill:#000000;fill-opacity:1;fill-rule:nonzero;stroke:none"
         transform="matrix(1.3333333,0,0,-1.3333333,412.82667,186.12133)" />
      <path
         id="path16"
         d="m 0,0 c -0.479,-0.16 -1.23,-0.353 -2.244,-0.569 -1.17,-0.252 -1.938,-0.533 -2.299,-0.841 -0.363,-0.309 -0.541,-0.705 -0.541,-1.194 0,-0.552 0.197,-1.013 0.602,-1.39 0.396,-0.373 0.896,-0.561 1.5,-0.561 0.533,0 1.066,0.15 1.588,0.451 0.525,0.305 0.888,0.664 1.093,1.082 C -0.102,-2.608 0,-1.852 0,-0.756 Z M -5.051,3.097 -8.48,3.72 c 0.418,1.452 1.103,2.495 2.06,3.131 0.959,0.637 2.328,0.955 4.121,0.955 1.602,0 2.82,-0.185 3.662,-0.554 C 2.205,6.879 2.807,6.376 3.164,5.742 3.525,5.105 3.703,3.945 3.703,2.269 L 3.676,-2.17 c 0,-1.246 0.055,-2.174 0.177,-2.781 0.125,-0.61 0.344,-1.26 0.672,-1.946 H 0.787 l -0.492,1.569 c -0.643,-0.631 -1.334,-1.106 -2.074,-1.428 -0.739,-0.318 -1.526,-0.479 -2.354,-0.479 -1.39,0 -2.525,0.387 -3.408,1.161 -0.891,0.769 -1.328,1.796 -1.328,3.08 0,0.81 0.178,1.519 0.541,2.125 0.355,0.605 0.869,1.088 1.525,1.451 0.651,0.359 1.705,0.681 3.149,0.961 C -1.908,1.875 -0.69,2.187 0,2.478 0,3.275 -0.068,3.799 -0.205,4.049 -0.342,4.299 -0.594,4.5 -0.957,4.662 -1.326,4.818 -1.84,4.897 -2.512,4.897 -3.19,4.897 -3.723,4.771 -4.105,4.517 -4.496,4.267 -4.811,3.792 -5.051,3.097"
         style="fill:#000000;fill-opacity:1;fill-rule:nonzero;stroke:none"
         transform="matrix(1.3333333,0,0,-1.3333333,439.63867,186.628)" />
      <path
         id="path17"
         d="m 0,0 c 0,-1.24 0.143,-2.187 0.424,-2.838 0.287,-0.65 0.692,-1.146 1.211,-1.484 0.528,-0.34 1.082,-0.508 1.657,-0.508 0.835,0 1.546,0.36 2.136,1.078 0.588,0.719 0.883,1.856 0.883,3.413 0,1.636 -0.295,2.816 -0.891,3.546 C 4.825,3.936 4.065,4.298 3.149,4.298 2.272,4.298 1.526,3.946 0.917,3.241 0.307,2.536 0,1.454 0,0 Z m -3.757,-7.496 v 19.83 H 0.034 V 5.205 c 0.576,0.668 1.211,1.166 1.902,1.502 0.699,0.332 1.438,0.5 2.238,0.5 1.678,0 3.102,-0.629 4.266,-1.885 1.162,-1.253 1.744,-3.109 1.744,-5.555 0,-2.437 -0.596,-4.315 -1.785,-5.63 -1.192,-1.314 -2.588,-1.971 -4.189,-1.971 -0.823,0 -1.629,0.209 -2.424,0.629 -0.801,0.418 -1.479,1.028 -2.034,1.821 v -2.112 h -3.509"
         style="fill:#000000;fill-opacity:1;fill-rule:nonzero;stroke:none"
         transform="matrix(1.3333333,0,0,-1.3333333,454.33333,185.82933)" />
      <path
         id="path18"
         d="m 0,0 c 0,-1.454 0.35,-2.556 1.033,-3.302 0.692,-0.746 1.527,-1.119 2.498,-1.119 0.959,0 1.773,0.375 2.451,1.125 0.686,0.754 1.02,1.859 1.02,3.323 C 7.002,1.458 6.66,2.546 5.969,3.3 5.277,4.048 4.449,4.425 3.484,4.425 2.533,4.425 1.711,4.048 1.027,3.3 0.342,2.546 0,1.448 0,0 Z m -3.867,0.206 c 0,1.409 0.336,2.689 1.013,3.846 0.678,1.156 1.567,2.023 2.657,2.601 1.093,0.578 2.326,0.869 3.687,0.869 2.301,0 4.102,-0.742 5.414,-2.231 1.315,-1.485 1.973,-3.22 1.973,-5.209 0,-1.481 -0.342,-2.817 -1.027,-4.011 C 9.166,-5.12 8.269,-6.017 7.16,-6.618 6.051,-7.218 4.832,-7.519 3.512,-7.519 c -2.122,0 -3.881,0.67 -5.284,2.006 -1.396,1.338 -2.095,3.244 -2.095,5.719"
         style="fill:#000000;fill-opacity:1;fill-rule:nonzero;stroke:none"
         transform="matrix(1.3333333,0,0,-1.3333333,475.98,186.24933)" />
      <path
         id="path19"
         d="m 0,0 h -3.793 v 7.338 c 0,1.472 -0.068,2.454 -0.211,2.94 -0.139,0.486 -0.404,0.863 -0.795,1.123 -0.391,0.263 -0.828,0.393 -1.32,0.393 -0.631,0 -1.205,-0.167 -1.719,-0.507 C -8.352,10.95 -8.715,10.481 -8.92,9.885 -9.131,9.289 -9.235,8.166 -9.235,6.514 V 0 h -3.785 v 14.365 h 3.504 v -2.099 c 0.623,0.814 1.328,1.421 2.11,1.828 0.779,0.404 1.648,0.609 2.601,0.609 1.102,0 2.031,-0.236 2.791,-0.711 0.76,-0.472 1.287,-1.082 1.574,-1.828 C -0.145,11.418 0,10.343 0,8.936 V 0"
         style="fill:#000000;fill-opacity:1;fill-rule:nonzero;stroke:none"
         transform="matrix(1.3333333,0,0,-1.3333333,511.756,195.824)" />
      <path
         id="path20"
         d="m 0,0 c -0.486,-0.16 -1.233,-0.353 -2.252,-0.569 -1.17,-0.252 -1.93,-0.533 -2.293,-0.841 -0.363,-0.309 -0.541,-0.705 -0.541,-1.194 0,-0.552 0.199,-1.013 0.596,-1.39 0.404,-0.373 0.902,-0.561 1.505,-0.561 0.534,0 1.061,0.15 1.588,0.451 0.528,0.305 0.889,0.664 1.088,1.082 C -0.104,-2.608 0,-1.852 0,-0.756 Z M -5.053,3.097 -8.481,3.72 c 0.418,1.452 1.102,2.495 2.061,3.131 0.951,0.637 2.326,0.955 4.119,0.955 1.596,0 2.815,-0.185 3.662,-0.554 C 2.197,6.879 2.799,6.376 3.162,5.742 3.525,5.105 3.703,3.945 3.703,2.269 L 3.668,-2.17 c 0,-1.246 0.062,-2.174 0.185,-2.781 0.116,-0.61 0.342,-1.26 0.67,-1.946 H 0.787 l -0.494,1.569 c -0.649,-0.631 -1.34,-1.106 -2.072,-1.428 -0.741,-0.318 -1.528,-0.479 -2.356,-0.479 -1.389,0 -2.525,0.387 -3.416,1.161 -0.883,0.769 -1.328,1.796 -1.328,3.08 0,0.81 0.186,1.519 0.541,2.125 0.363,0.605 0.869,1.088 1.527,1.451 0.657,0.359 1.703,0.681 3.149,0.961 1.752,0.332 2.97,0.644 3.662,0.935 0,0.797 -0.068,1.321 -0.205,1.571 -0.137,0.25 -0.391,0.451 -0.76,0.613 -0.363,0.156 -0.883,0.235 -1.547,0.235 -0.678,0 -1.213,-0.126 -1.602,-0.38 -0.384,-0.25 -0.699,-0.725 -0.939,-1.42"
         style="fill:#000000;fill-opacity:1;fill-rule:nonzero;stroke:none"
         transform="matrix(1.3333333,0,0,-1.3333333,527.37067,186.628)" />
      <path
         id="path21"
         d="M 3.785,0 H 0 V 14.365 H 3.785 Z M 0,0 Z M 3.785,16.312 H 0 v 3.518 h 3.785 z"
         style="fill:#000000;fill-opacity:1;fill-rule:nonzero;stroke:none"
         transform="matrix(1.3333333,0,0,-1.3333333,537.3,195.824)" />
      <path
         id="path22"
         d="m 0,0 3.791,0.582 c 0.328,-1.506 1.342,-2.259 3.053,-2.259 0.904,0 1.582,0.146 2.033,0.435 0.446,0.287 0.67,0.664 0.67,1.121 0,0.317 -0.096,0.565 -0.293,0.746 C 9.041,0.803 8.631,0.961 8.022,1.098 4.914,1.78 2.944,2.426 2.102,3.042 1.053,3.809 0.528,4.864 0.528,6.198 c 0,1.337 0.511,2.409 1.539,3.212 1.027,0.805 2.525,1.209 4.476,1.209 1.875,0 3.293,-0.3 4.264,-0.9 0.979,-0.599 1.656,-1.567 2.055,-2.902 L 9.301,6.157 C 8.987,7.31 8.09,7.885 6.612,7.885 5.68,7.885 5.024,7.776 4.627,7.553 4.237,7.334 4.037,7.046 4.037,6.694 4.037,6.379 4.215,6.116 4.578,5.907 4.942,5.692 6.057,5.363 7.94,4.924 10.047,4.432 11.479,3.84 12.239,3.145 c 0.738,-0.696 1.115,-1.622 1.115,-2.776 0,-1.388 -0.574,-2.535 -1.733,-3.435 -1.148,-0.904 -2.744,-1.356 -4.777,-1.356 -1.848,0 -3.361,0.377 -4.531,1.129 C 1.143,-2.539 0.375,-1.441 0,0"
         style="fill:#000000;fill-opacity:1;fill-rule:nonzero;stroke:none"
         transform="matrix(1.3333333,0,0,-1.3333333,545.732,190.37867)" />
      <path
         id="path23"
         d="M 0,0 C -0.027,1.123 -0.322,1.969 -0.869,2.534 -1.41,3.098 -2.061,3.382 -2.82,3.382 -3.615,3.382 -4.293,3.088 -4.834,2.5 -5.395,1.904 -5.668,1.069 -5.654,0 Z M -0.193,-3.853 3.558,-4.49 C 3.058,-5.929 2.271,-7.002 1.211,-7.703 0.15,-8.4 -1.145,-8.75 -2.664,-8.75 c -2.115,0 -3.744,0.582 -4.893,1.748 -1.355,1.356 -2.033,3.252 -2.033,5.692 0,2.402 0.684,4.326 2.047,5.77 1.162,1.222 2.654,1.831 4.496,1.831 2.039,0 3.641,-0.623 4.805,-1.869 1.336,-1.426 2,-3.531 2,-6.314 L 3.744,-2.326 h -9.467 c 0.02,-1.14 0.336,-2.023 0.93,-2.646 0.596,-0.625 1.322,-0.938 2.164,-0.938 1.219,0 2.025,0.686 2.436,2.057"
         style="fill:#000000;fill-opacity:1;fill-rule:nonzero;stroke:none"
         transform="matrix(1.3333333,0,0,-1.3333333,579.25333,184.608)" />
    </g>
  </g>
</svg>
