<?xml version="1.0" encoding="UTF-8" standalone="no"?>
<svg
   xmlns:dc="http://purl.org/dc/elements/1.1/"
   xmlns:cc="http://creativecommons.org/ns#"
   xmlns:rdf="http://www.w3.org/1999/02/22-rdf-syntax-ns#"
   xmlns:svg="http://www.w3.org/2000/svg"
   xmlns="http://www.w3.org/2000/svg"
   viewBox="0 0 337.72 230.03999"
   height="230.03999"
   width="337.72"
   xml:space="preserve"
   id="svg2"
   version="1.1"><metadata
     id="metadata8"><rdf:RDF><cc:Work
         rdf:about=""><dc:format>image/svg+xml</dc:format><dc:type
           rdf:resource="http://purl.org/dc/dcmitype/StillImage" /><dc:title></dc:title></cc:Work></rdf:RDF></metadata><defs
     id="defs6" /><g
     transform="matrix(1.3333333,0,0,-1.3333333,0,230.04)"
     id="g10"><g
       transform="scale(0.1)"
       id="g12"><path
         id="path14"
         style="fill:#ed192d;fill-opacity:1;fill-rule:nonzero;stroke:none"
         d="M 1117.63,1080.2 H 770.387 v 297.64 h 347.243 l -0.03,0.18 v 347.25 h 297.64 v -347.25 l -0.01,-0.13 h 347.25 v -297.64 h -347.25 l 0.01,0.06 V 733.063 H 1117.6 v 347.247 l 0.03,-0.11" /><path
         id="path16"
         style="fill:#231f20;fill-opacity:1;fill-rule:nonzero;stroke:none"
         d="M 78.4531,559.609 H 16.3789 v 38.289 H 186.07 V 559.609 H 123.992 V 390.789 H 78.4531 v 168.82" /><path
         id="path18"
         style="fill:#231f20;fill-opacity:1;fill-rule:nonzero;stroke:none"
         d="m 178.777,540.762 h 39.161 V 512.91 h 0.582 c 7.539,18.852 27.847,31.899 47.863,31.899 2.898,0 6.383,-0.571 8.988,-1.438 v -38.293 c -3.769,0.863 -9.863,1.453 -14.797,1.453 -30.164,0 -40.601,-21.761 -40.601,-48.152 v -67.59 h -41.196 v 149.973" /><path
         id="path20"
         style="fill:#231f20;fill-opacity:1;fill-rule:nonzero;stroke:none"
         d="m 292.75,540.762 h 41.188 V 390.789 H 292.75 Z m 41.188,23.199 H 292.75 v 33.937 h 41.188 v -33.937" /><path
         id="path22"
         style="fill:#231f20;fill-opacity:1;fill-rule:nonzero;stroke:none"
         d="m 366.406,540.762 h 39.16 v -20.891 h 0.872 c 10.441,16.828 28.425,24.938 45.828,24.938 43.804,0 54.824,-24.649 54.824,-61.778 v -92.242 h -41.192 v 84.699 c 0,24.653 -7.25,36.84 -26.394,36.84 -22.336,0 -31.906,-12.476 -31.906,-42.93 v -78.609 h -41.192 v 149.973" /><path
         id="path24"
         style="fill:#231f20;fill-opacity:1;fill-rule:nonzero;stroke:none"
         d="m 539.535,540.762 h 41.188 V 390.789 h -41.188 z m 41.188,23.199 h -41.188 v 33.937 h 41.188 v -33.937" /><path
         id="path26"
         style="fill:#231f20;fill-opacity:1;fill-rule:nonzero;stroke:none"
         d="m 684.258,513.781 c -26.973,0 -36.254,-23.211 -36.254,-47.859 0,-23.504 10.73,-48.16 36.254,-48.16 27.269,0 35.39,23.789 35.39,48.449 0,24.359 -8.703,47.57 -35.39,47.57 z M 720.23,409.93 h -0.582 c -9.57,-16.239 -26.394,-23.2 -45.543,-23.2 -45.25,0 -67.292,38.86 -67.292,80.348 0,40.32 22.332,77.731 66.425,77.731 17.696,0 35.098,-7.539 44.379,-22.329 h 0.582 v 75.418 h 41.192 V 390.789 H 720.23 v 19.141" /><path
         id="path28"
         style="fill:#231f20;fill-opacity:1;fill-rule:nonzero;stroke:none"
         d="m 883.785,464.18 c -6.965,-6.102 -21.465,-6.391 -34.23,-8.7 -12.762,-2.621 -24.364,-6.968 -24.364,-22.058 0,-15.371 11.887,-19.141 25.235,-19.141 32.195,0 33.359,25.528 33.359,34.528 z m -95.14,30.461 c 2.316,38.57 36.835,50.168 70.48,50.168 29.879,0 65.848,-6.668 65.848,-42.637 v -78.024 c 0,-13.636 1.449,-27.269 5.222,-33.359 h -41.773 c -1.449,4.641 -2.606,9.57 -2.899,14.5 -13.05,-13.629 -32.199,-18.559 -50.472,-18.559 -28.426,0 -51.051,14.211 -51.051,44.961 0,33.93 25.527,42.059 51.051,45.539 25.238,3.77 48.734,2.899 48.734,19.719 0,17.699 -12.183,20.313 -26.691,20.313 -15.664,0 -25.817,-6.383 -27.266,-22.621 h -41.183" /><path
         id="path30"
         style="fill:#231f20;fill-opacity:1;fill-rule:nonzero;stroke:none"
         d="m 1027.9,513.781 c -26.97,0 -36.255,-23.211 -36.255,-47.859 0,-23.504 10.735,-48.16 36.255,-48.16 27.27,0 35.39,23.789 35.39,48.449 0,24.359 -8.7,47.57 -35.39,47.57 z m 35.97,-103.851 h -0.58 c -9.57,-16.239 -26.4,-23.2 -45.54,-23.2 -45.25,0 -67.297,38.86 -67.297,80.348 0,40.32 22.336,77.731 66.427,77.731 17.7,0 35.1,-7.539 44.38,-22.329 h 0.58 v 75.418 h 41.19 V 390.789 h -39.16 v 19.141" /><path
         id="path32"
         style="fill:#231f20;fill-opacity:1;fill-rule:nonzero;stroke:none"
         d="m 1290.93,572.66 c -9.86,0 -18.56,-7.539 -18.56,-18.269 0,-13.051 8.41,-21.461 16.24,-31.039 11.6,7.546 21.18,14.5 21.18,29.589 0,10.727 -8.71,19.719 -18.86,19.719 z m -14.5,-90.5 c -14.51,-6.379 -29.01,-17.41 -29.01,-34.219 0,-15.089 13.92,-27.281 29.59,-27.281 14.79,0 25.24,7.551 34.81,18.281 z m 57.14,-70.781 c -16.53,-16.238 -34.81,-24.649 -58.3,-24.649 -37.42,0 -67.01,22.918 -67.01,62.079 0,29 22.05,48.73 46.41,60.031 -11.02,13.64 -19.72,26.109 -19.72,44.101 0,28.719 26.39,47.278 53.95,47.278 31.33,0 56.86,-16.821 56.86,-49.61 0,-24.07 -15.96,-40.597 -36.84,-51.629 l 26.69,-32.769 c 4.06,7.539 6.37,16.238 7.53,24.66 h 35.69 c -2.03,-18.57 -8.42,-36.562 -20.02,-51.062 l 42.06,-49.02 h -50.47 l -16.83,20.59" /><path
         id="path34"
         style="fill:#231f20;fill-opacity:1;fill-rule:nonzero;stroke:none"
         d="m 1544.1,559.609 h -62.08 v 38.289 h 169.7 v -38.289 h -62.08 v -168.82 h -45.54 v 168.82" /><path
         id="path36"
         style="fill:#231f20;fill-opacity:1;fill-rule:nonzero;stroke:none"
         d="m 1711.73,417.762 c 28.13,0 36.54,24.078 36.54,47.859 0,24.078 -8.41,48.16 -36.54,48.16 -27.85,0 -36.26,-24.082 -36.26,-48.16 0,-23.781 8.41,-47.859 36.26,-47.859 z m 0,127.047 c 47.27,0 77.73,-31.329 77.73,-79.188 0,-47.57 -30.46,-78.891 -77.73,-78.891 -46.99,0 -77.45,31.321 -77.45,78.891 0,47.859 30.46,79.188 77.45,79.188" /><path
         id="path38"
         style="fill:#231f20;fill-opacity:1;fill-rule:nonzero;stroke:none"
         d="m 1890.95,513.781 c -24.37,0 -35.1,-22.91 -35.1,-48.16 0,-24.941 10.73,-47.859 35.1,-47.859 24.36,0 35.09,22.918 35.09,47.859 0,25.25 -10.73,48.16 -35.09,48.16 z m -74.85,84.117 h 41.19 V 522.48 h 0.58 c 10.16,15.372 28.72,22.329 47.29,22.329 29.87,0 62.08,-24.071 62.08,-78.887 0,-55.113 -32.21,-79.192 -62.08,-79.192 -22.04,0 -40.33,6.668 -49.31,23.2 h -0.59 v -19.141 h -39.16 v 207.109" /><path
         id="path40"
         style="fill:#231f20;fill-opacity:1;fill-rule:nonzero;stroke:none"
         d="m 2086.7,464.18 c -6.96,-6.102 -21.47,-6.391 -34.23,-8.7 -12.76,-2.621 -24.36,-6.968 -24.36,-22.058 0,-15.371 11.88,-19.141 25.23,-19.141 32.2,0 33.36,25.528 33.36,34.528 z m -95.15,30.461 c 2.33,38.57 36.84,50.168 70.49,50.168 29.87,0 65.84,-6.668 65.84,-42.637 v -78.024 c 0,-13.636 1.46,-27.269 5.23,-33.359 h -41.77 c -1.46,4.641 -2.61,9.57 -2.9,14.5 -13.06,-13.629 -32.2,-18.559 -50.48,-18.559 -28.42,0 -51.05,14.211 -51.05,44.961 0,33.93 25.53,42.059 51.05,45.539 25.24,3.77 48.74,2.899 48.74,19.719 0,17.699 -12.19,20.313 -26.69,20.313 -15.66,0 -25.82,-6.383 -27.27,-22.621 h -41.19" /><path
         id="path42"
         style="fill:#231f20;fill-opacity:1;fill-rule:nonzero;stroke:none"
         d="m 2264.76,467.648 c 0,24.372 -8.42,46.133 -35.1,46.133 -23.21,0 -33.36,-20.312 -33.36,-42.64 0,-21.469 8.11,-44.961 33.36,-44.961 23.49,0 35.1,20.011 35.1,41.468 z m 39.16,-67.289 c 0,-24.66 -8.71,-66.429 -77.75,-66.429 -29.58,0 -64.1,13.929 -66.13,48.16 h 40.9 c 3.77,-15.371 16.24,-20.602 30.75,-20.602 22.91,0 33.35,15.672 33.07,37.133 v 19.731 h -0.59 c -8.98,-15.672 -26.97,-23.211 -44.96,-23.211 -44.96,0 -64.1,34.23 -64.1,75.41 0,38.879 22.33,74.258 64.39,74.258 19.73,0 34.81,-6.668 44.67,-24.071 h 0.59 v 20.024 h 39.16 V 400.359" /><path
         id="path44"
         style="fill:#231f20;fill-opacity:1;fill-rule:nonzero;stroke:none"
         d="m 2409.75,417.762 c 28.13,0 36.54,24.078 36.54,47.859 0,24.078 -8.41,48.16 -36.54,48.16 -27.86,0 -36.26,-24.082 -36.26,-48.16 0,-23.781 8.4,-47.859 36.26,-47.859 z m 0,127.047 c 47.27,0 77.73,-31.329 77.73,-79.188 0,-47.57 -30.46,-78.891 -77.73,-78.891 -47,0 -77.46,31.321 -77.46,78.891 0,47.859 30.46,79.188 77.46,79.188" /><path
         id="path46"
         style="fill:#231f20;fill-opacity:1;fill-rule:nonzero;stroke:none"
         d="m 45.543,166.211 h 49.8906 c 20.3044,0 31.3284,8.699 31.3284,29.59 0,20.008 -11.024,28.711 -31.3284,28.711 H 45.543 Z M 0,259.898 h 111.676 c 37.129,0 60.625,-25.82 60.625,-57.136 0,-24.371 -9.86,-42.653 -32.781,-51.922 v -0.59 c 22.339,-5.801 28.722,-27.559 30.171,-48.441 0.872,-13.0473 0.582,-37.4184 8.704,-49.0199 h -45.543 c -5.512,13.0625 -4.93,33.0703 -7.25,49.6019 -3.196,21.757 -11.602,31.328 -34.5161,31.328 H 45.543 V 52.7891 H 0 V 259.898" /><path
         id="path48"
         style="fill:#231f20;fill-opacity:1;fill-rule:nonzero;stroke:none"
         d="m 305.969,143.871 c -3.774,20.879 -12.766,31.91 -32.781,31.91 -26.102,0 -33.649,-20.301 -34.227,-31.91 z m -67.008,-26.109 c 1.16,-26.1018 13.926,-38.0003 36.84,-38.0003 16.535,0 29.879,10.1563 32.488,19.4492 h 36.258 C 332.945,63.8203 308.289,48.7305 274.352,48.7305 c -47.282,0 -76.579,32.4883 -76.579,78.8905 0,44.969 31.036,79.188 76.579,79.188 51.054,0 75.707,-42.93 72.804,-89.047 H 238.961" /><path
         id="path50"
         style="fill:#231f20;fill-opacity:1;fill-rule:nonzero;stroke:none"
         d="m 442.551,175.781 c -26.977,0 -36.258,-23.203 -36.258,-47.859 0,-23.504 10.734,-48.1603 36.258,-48.1603 27.269,0 35.387,23.7893 35.387,48.4493 0,24.367 -8.7,47.57 -35.387,47.57 z M 478.52,71.9297 h -0.582 c -9.571,-16.2383 -26.395,-23.1992 -45.54,-23.1992 -45.25,0 -67.296,38.8593 -67.296,80.3475 0,40.32 22.336,77.731 66.425,77.731 17.696,0 35.098,-7.539 44.379,-22.329 h 0.582 v 75.418 H 517.68 V 52.7891 h -39.16 v 19.1406" /><path
         id="path52"
         style="fill:#231f20;fill-opacity:1;fill-rule:nonzero;stroke:none"
         d="m 771.715,190.281 c -2.902,20.598 -22.621,36.258 -45.25,36.258 -40.899,0 -56.274,-34.801 -56.274,-71.059 0,-34.531 15.375,-69.3316 56.274,-69.3316 27.848,0 43.512,19.1406 46.992,46.4106 h 44.094 c -4.645,-51.6371 -40.324,-84.6996 -91.086,-84.6996 -64.106,0 -101.817,47.8594 -101.817,107.6206 0,61.489 37.711,109.348 101.817,109.348 45.543,0 83.828,-26.687 89.34,-74.547 h -44.09" /><path
         id="path54"
         style="fill:#231f20;fill-opacity:1;fill-rule:nonzero;stroke:none"
         d="m 844.18,202.762 h 39.16 V 174.91 h 0.582 c 7.539,18.86 27.848,31.899 47.859,31.899 2.903,0 6.383,-0.571 8.989,-1.438 v -38.293 c -3.766,0.871 -9.864,1.453 -14.793,1.453 -30.164,0 -40.606,-21.761 -40.606,-48.152 V 52.7891 H 844.18 V 202.762" /><path
         id="path56"
         style="fill:#231f20;fill-opacity:1;fill-rule:nonzero;stroke:none"
         d="m 1024.58,79.7617 c 28.13,0 36.54,24.0783 36.54,47.8593 0,24.09 -8.41,48.16 -36.54,48.16 -27.85,0 -36.264,-24.07 -36.264,-48.16 0,-23.781 8.414,-47.8593 36.264,-47.8593 z m 0,127.0473 c 47.28,0 77.73,-31.321 77.73,-79.188 0,-47.5624 -30.45,-78.8905 -77.73,-78.8905 -46.998,0 -77.455,31.3281 -77.455,78.8905 0,47.867 30.457,79.188 77.455,79.188" /><path
         id="path58"
         style="fill:#231f20;fill-opacity:1;fill-rule:nonzero;stroke:none"
         d="m 1160.86,101.52 c 0.29,-17.9809 15.38,-25.2309 31.62,-25.2309 11.9,0 26.98,4.6328 26.98,19.1406 0,12.4803 -17.12,16.8203 -46.71,23.2113 -23.78,5.211 -47.56,13.629 -47.56,40.027 0,38.281 33.06,48.141 65.26,48.141 32.78,0 62.94,-11.008 66.14,-47.86 h -39.16 c -1.17,15.961 -13.35,20.313 -28.14,20.313 -9.29,0 -22.92,-1.742 -22.92,-13.922 0,-14.801 23.21,-16.828 46.71,-22.34 24.07,-5.512 47.56,-14.211 47.56,-42.059 0,-39.4527 -34.22,-52.2105 -68.45,-52.2105 -34.81,0 -68.75,13.0508 -70.49,52.7895 h 39.16" /><path
         id="path60"
         style="fill:#231f20;fill-opacity:1;fill-rule:nonzero;stroke:none"
         d="m 1316.59,101.52 c 0.29,-17.9809 15.37,-25.2309 31.62,-25.2309 11.9,0 26.98,4.6328 26.98,19.1406 0,12.4803 -17.11,16.8203 -46.7,23.2113 -23.79,5.211 -47.58,13.629 -47.58,40.027 0,38.281 33.07,48.141 65.27,48.141 32.78,0 62.94,-11.008 66.13,-47.86 h -39.16 c -1.16,15.961 -13.34,20.313 -28.13,20.313 -9.29,0 -22.92,-1.742 -22.92,-13.922 0,-14.801 23.21,-16.828 46.71,-22.34 24.07,-5.512 47.57,-14.211 47.57,-42.059 0,-39.4527 -34.23,-52.2105 -68.46,-52.2105 -34.8,0 -68.75,13.0508 -70.49,52.7895 h 39.16" /><path
         id="path62"
         style="fill:#231f20;fill-opacity:1;fill-rule:nonzero;stroke:none"
         d="m 1556.42,121.539 c 0,-27.5585 21.47,-38.289 45.84,-38.289 15.94,0 40.31,4.6406 40.31,25.809 0,22.339 -31.04,26.113 -61.5,34.23 -30.74,8.121 -61.78,20.02 -61.78,58.883 0,42.359 40.04,62.656 77.45,62.656 43.22,0 82.96,-18.859 82.96,-66.719 h -44.09 c -1.45,24.95 -19.15,31.332 -40.9,31.332 -14.5,0 -31.33,-6.089 -31.33,-23.5 0,-15.941 9.86,-17.972 61.79,-31.32 15.08,-3.769 61.49,-13.34 61.49,-60.34 0,-37.9919 -29.87,-66.4216 -86.15,-66.4216 -45.83,0 -88.76,22.6289 -88.18,73.6796 h 44.09" /><path
         id="path64"
         style="fill:#231f20;fill-opacity:1;fill-rule:nonzero;stroke:none"
         d="m 1782.05,79.7617 c 28.14,0 36.54,24.0783 36.54,47.8593 0,24.09 -8.4,48.16 -36.54,48.16 -27.85,0 -36.26,-24.07 -36.26,-48.16 0,-23.781 8.41,-47.8593 36.26,-47.8593 z m 0,127.0473 c 47.28,0 77.74,-31.321 77.74,-79.188 0,-47.5624 -30.46,-78.8905 -77.74,-78.8905 -46.99,0 -77.45,31.3281 -77.45,78.8905 0,47.867 30.46,79.188 77.45,79.188" /><path
         id="path66"
         style="fill:#231f20;fill-opacity:1;fill-rule:nonzero;stroke:none"
         d="m 1988.54,149.969 c -2.62,16.812 -13.35,25.812 -30.46,25.812 -26.4,0 -35.1,-26.691 -35.1,-48.73 0,-21.473 8.41,-47.2893 34.23,-47.2893 19.14,0 30.16,12.1875 32.77,30.4573 h 39.75 c -5.23,-39.7307 -32.79,-61.4885 -72.24,-61.4885 -45.24,0 -75.7,31.8984 -75.7,76.8595 0,46.711 27.84,81.219 76.58,81.219 35.38,0 67.87,-18.559 70.48,-56.84 h -40.31" /><path
         id="path68"
         style="fill:#231f20;fill-opacity:1;fill-rule:nonzero;stroke:none"
         d="m 2054.04,202.762 h 41.19 V 52.7891 h -41.19 z m 41.19,23.199 h -41.19 v 33.937 h 41.19 v -33.937" /><path
         id="path70"
         style="fill:#231f20;fill-opacity:1;fill-rule:nonzero;stroke:none"
         d="m 2228.64,143.871 c -3.77,20.879 -12.76,31.91 -32.77,31.91 -26.1,0 -33.65,-20.301 -34.23,-31.91 z m -67,-26.109 c 1.16,-26.1018 13.93,-38.0003 36.84,-38.0003 16.53,0 29.88,10.1563 32.49,19.4492 h 36.26 c -11.6,-35.3906 -36.26,-50.4804 -70.2,-50.4804 -47.28,0 -76.58,32.4883 -76.58,78.8905 0,44.969 31.03,79.188 76.58,79.188 51.06,0 75.7,-42.93 72.8,-89.047 h -108.19" /><path
         id="path72"
         style="fill:#231f20;fill-opacity:1;fill-rule:nonzero;stroke:none"
         d="m 2346.37,202.762 h 30.16 v -27.563 h -30.16 v -74.258 c 0,-13.9215 3.48,-17.4019 17.4,-17.4019 4.36,0 8.42,0.289 12.76,1.1523 V 52.5 c -6.95,-1.1602 -15.94,-1.4492 -24.07,-1.4492 -25.23,0 -47.28,5.8008 -47.28,35.6797 v 88.4685 h -24.95 v 27.563 h 24.95 v 44.957 h 41.19 v -44.957" /><path
         id="path74"
         style="fill:#231f20;fill-opacity:1;fill-rule:nonzero;stroke:none"
         d="M 2470.21,33.9297 C 2461.21,9.85938 2447,0 2418.57,0 c -8.41,0 -16.82,0.570313 -25.23,1.44922 V 35.3906 c 7.83,-0.5898 15.95,-1.7422 24.07,-1.4609 14.21,1.4609 18.86,16.25 14.21,28.1484 l -52.78,140.6839 h 44.08 l 33.95,-102.684 h 0.57 l 32.77,102.684 h 42.65 L 2470.21,33.9297" /></g></g></svg>