<?xml version="1.0" encoding="UTF-8" standalone="no"?>
<!-- Created with Inkscape (http://www.inkscape.org/) -->

<svg
   version="1.1"
   id="svg1"
   width="573.63599"
   height="573.63599"
   viewBox="0 0 573.63599 573.63599"
   sodipodi:docname="Moldova RC.svg"
   inkscape:version="1.3.2 (091e20e, 2023-11-25, custom)"
   xmlns:inkscape="http://www.inkscape.org/namespaces/inkscape"
   xmlns:sodipodi="http://sodipodi.sourceforge.net/DTD/sodipodi-0.dtd"
   xmlns="http://www.w3.org/2000/svg"
   xmlns:svg="http://www.w3.org/2000/svg">
  <defs
     id="defs1">
    <clipPath
       clipPathUnits="userSpaceOnUse"
       id="clipPath31">
      <path
         d="M 0.059998,430.2 H 430.227 V 0 H 0.059998 Z"
         transform="translate(-215.113,-426.22701)"
         id="path31" />
    </clipPath>
  </defs>
  <sodipodi:namedview
     id="namedview1"
     pagecolor="#ffffff"
     bordercolor="#666666"
     borderopacity="1.0"
     inkscape:showpageshadow="2"
     inkscape:pageopacity="0.0"
     inkscape:pagecheckerboard="0"
     inkscape:deskcolor="#d1d1d1"
     inkscape:export-bgcolor="#ffffffff"
     inkscape:zoom="1.4312212"
     inkscape:cx="286.81799"
     inkscape:cy="286.81799"
     inkscape:window-width="1920"
     inkscape:window-height="1017"
     inkscape:window-x="-8"
     inkscape:window-y="-8"
     inkscape:window-maximized="1"
     inkscape:current-layer="g1">
    <inkscape:page
       x="0"
       y="0"
       inkscape:label="1"
       id="page1"
       width="573.63599"
       height="573.63599"
       margin="0"
       bleed="0"
       inkscape:export-filename="Moldova RC.png"
       inkscape:export-xdpi="300"
       inkscape:export-ydpi="300" />
  </sodipodi:namedview>
  <g
     id="g1"
     inkscape:groupmode="layer"
     inkscape:label="1">
    <g
       id="group-MC1">
      <path
         id="path2"
         d="m 0,0 c -3.39,1.372 -7.51,-0.251 -9.503,-3.693 -3.602,-6.225 0.342,-11.63 5.86,-14.823 5.253,-3.04 11.904,-3.765 15.506,2.459 2.452,4.238 0.918,8.308 -2.925,11.239 l 3.882,6.71 c 7.449,-5.253 9.34,-13.595 4.869,-21.321 -5.645,-9.756 -16.249,-11.279 -25.342,-6.017 -9.359,5.415 -13.322,15.368 -7.677,25.124 4.011,6.93 11.443,10.408 19.212,7.032 L 0,0"
         style="fill:#ed1c24;fill-opacity:1;fill-rule:nonzero;stroke:none"
         transform="matrix(1.3333333,0,0,-1.3333333,80.372,153.86)" />
      <path
         id="path3"
         d="m 0,0 5.94,6.457 c 2.417,2.627 2.603,5.09 -0.1,7.576 -2.59,2.382 -5.028,1.991 -7.445,-0.635 l -5.94,-6.457 z m -17.545,5.261 13.294,14.451 c 4.42,4.805 10.558,4.772 14.611,1.043 3.154,-2.901 4.344,-6.353 2.818,-10.423 l 0.075,-0.069 c 3.409,2.2 6.984,0.436 9.86,-1.863 1.793,-1.441 4.911,-4.379 7.38,-4.71 L 25.071,-2.202 C 22.726,-1.362 20.205,1.096 17.789,2.764 14.594,4.94 12.354,4.991 9.626,2.026 L 4.204,-3.867 14.677,-13.501 9.256,-19.395 -17.545,5.261"
         style="fill:#ed1c24;fill-opacity:1;fill-rule:nonzero;stroke:none"
         transform="matrix(1.3333333,0,0,-1.3333333,104.22533,131.41067)" />
      <path
         id="path4"
         d="m 0,0 c 5.624,-8.078 3.592,-15.335 -4.402,-20.901 -8.036,-5.596 -15.434,-4.968 -21.088,3.152 l -12.94,18.583 6.571,4.576 12.94,-18.584 c 2.273,-3.265 5.355,-5.904 10.67,-2.203 4.687,3.265 4.767,6.364 1.677,10.801 l -12.94,18.584 6.571,4.575 L 0,0"
         style="fill:#ed1c24;fill-opacity:1;fill-rule:nonzero;stroke:none"
         transform="matrix(1.3333333,0,0,-1.3333333,171.72267,85.012)" />
      <path
         id="path5"
         d="m 0,0 c -1.834,3.164 -6.083,4.411 -9.769,2.915 -6.663,-2.704 -6.866,-9.392 -4.469,-15.299 2.283,-5.623 7.089,-10.277 13.752,-7.573 4.537,1.842 5.823,5.996 4.587,10.668 l 7.183,2.916 c 2.658,-8.719 -0.968,-16.465 -9.238,-19.821 -10.444,-4.24 -19.752,1.064 -23.703,10.799 -4.066,10.018 -1.087,20.309 9.356,24.548 7.419,3.011 15.422,1.196 19.484,-6.237 L 0,0"
         style="fill:#ed1c24;fill-opacity:1;fill-rule:nonzero;stroke:none"
         transform="matrix(1.3333333,0,0,-1.3333333,205.628,55.041333)" />
      <path
         id="path6"
         d="m 0,0 26.816,4.75 1.174,-6.629 -18.932,-3.353 1.362,-7.683 17.375,3.078 1.085,-6.127 -17.375,-3.078 1.557,-8.788 19.333,3.426 1.174,-6.629 L 6.352,-35.854 0,0"
         style="fill:#ed1c24;fill-opacity:1;fill-rule:nonzero;stroke:none"
         transform="matrix(1.3333333,0,0,-1.3333333,223.85067,32.309333)" />
      <path
         id="path7"
         d="M 0,0 9.431,-0.221 5.155,13.243 5.052,13.245 Z m 1.286,22.31 8.208,-0.191 12.761,-36.717 -8.31,0.194 -2.564,8.17 -13.611,0.318 -3.044,-8.039 -8.105,0.189 14.665,36.076"
         style="fill:#ed1c24;fill-opacity:1;fill-rule:nonzero;stroke:none"
         transform="matrix(1.3333333,0,0,-1.3333333,285.97067,54.964)" />
      <path
         id="path8"
         d="m 0,0 8.326,-2.761 c 3.387,-1.124 5.709,-0.282 6.864,3.203 1.107,3.34 -0.25,5.402 -3.638,6.526 L 3.227,9.729 Z m -2.414,18.153 18.635,-6.179 c 6.195,-2.055 8.687,-7.663 6.953,-12.89 -1.348,-4.066 -4.005,-6.569 -8.343,-6.85 l -0.032,-0.097 c 3.406,-2.204 3.268,-6.187 2.354,-9.752 -0.577,-2.227 -1.975,-6.276 -1.261,-8.661 l -7.6,2.519 c -0.197,2.484 1.008,5.791 1.536,8.679 0.671,3.807 -0.203,5.869 -4.027,7.137 l -7.598,2.52 -4.479,-13.504 -7.599,2.521 11.461,34.557"
         style="fill:#ed1c24;fill-opacity:1;fill-rule:nonzero;stroke:none"
         transform="matrix(1.3333333,0,0,-1.3333333,353.58933,56.477333)" />
      <path
         id="path9"
         d="m 0,0 c 6.144,-3.737 11.635,0.088 14.789,5.273 3.313,5.448 4.183,12.082 -1.961,15.82 C 6.683,24.829 1.193,21.005 -2.119,15.558 -5.274,10.371 -6.145,3.737 0,0 Z M 16.327,26.845 C 25.958,20.987 27.25,10.352 21.631,1.112 16.171,-7.865 6.133,-11.609 -3.498,-5.752 c -9.631,5.857 -10.923,16.493 -5.463,25.471 5.618,9.238 15.657,12.983 25.288,7.126"
         style="fill:#ed1c24;fill-opacity:1;fill-rule:nonzero;stroke:none"
         transform="matrix(1.3333333,0,0,-1.3333333,401.40133,98.009333)" />
      <path
         id="path10"
         d="m 0,0 c -3.339,-3.511 -1.903,-7.479 1.202,-10.431 2.034,-1.932 5.702,-4.294 8.267,-1.595 2.706,2.845 -0.793,7.086 -3.692,11.81 -2.934,4.76 -5.45,10.035 -0.741,14.987 5.131,5.396 12.692,3.134 17.462,-1.399 5.509,-5.236 8.29,-12.453 2.492,-18.551 l -5.62,5.342 c 2.837,3.354 1.356,6.311 -1.418,8.946 -1.849,1.757 -4.73,3.019 -6.839,0.802 -1.933,-2.033 -0.922,-3.486 4.079,-11.476 1.466,-2.308 6.222,-9.151 0.53,-15.138 -4.604,-4.841 -11.856,-4.843 -19.029,1.974 -5.841,5.552 -8.572,13.636 -2.313,20.07 L 0,0"
         style="fill:#ed1c24;fill-opacity:1;fill-rule:nonzero;stroke:none"
         transform="matrix(1.3333333,0,0,-1.3333333,437.336,113.77467)" />
      <path
         id="path11"
         d="m 0,0 4.964,-6.284 -28.577,-22.573 -4.964,6.283 L 0,0"
         style="fill:#ed1c24;fill-opacity:1;fill-rule:nonzero;stroke:none"
         transform="matrix(1.3333333,0,0,-1.3333333,488.844,120.58933)" />
      <path
         id="path12"
         d="m 0,0 13.681,-23.549 -5.822,-3.382 -9.658,16.625 -6.747,-3.92 8.864,-15.257 -5.38,-3.125 -8.864,15.257 -7.717,-4.483 9.864,-16.979 -5.822,-3.38 -13.885,23.9 L 0,0"
         style="fill:#ed1c24;fill-opacity:1;fill-rule:nonzero;stroke:none"
         transform="matrix(1.3333333,0,0,-1.3333333,504.39467,140.58)" />
      <path
         id="path13"
         d="m 0,0 1.518,-6.939 c 0.749,-3.423 2.024,-6.338 6.151,-5.436 3.845,0.841 3.835,4.032 3.158,7.127 L 9.237,2.02 Z m 17.046,-6.05 c 1.343,-6.142 -0.306,-11.858 -7.012,-13.324 -3.891,-0.852 -7.37,0.451 -9.364,3.504 0.059,-3.868 -3.486,-5.627 -6.707,-6.626 -2.069,-0.649 -6.644,-1.747 -7.575,-3.327 l -1.662,7.596 c 1.504,1.213 4.833,1.941 6.621,2.529 4.492,1.473 5.826,3.239 4.78,8.022 l -1.426,6.518 -13.082,-2.862 -1.589,7.269 33.386,7.301 3.63,-16.6"
         style="fill:#ed1c24;fill-opacity:1;fill-rule:nonzero;stroke:none"
         transform="matrix(1.3333333,0,0,-1.3333333,55.856,328.97067)" />
      <path
         id="path14"
         d="m 0,0 -7.026,16.776 -6.862,-2.873 6.452,-15.404 -5.445,-2.281 -6.451,15.405 -7.747,-3.245 7.156,-17.086 -5.799,-2.429 L -35.751,12.81 -4.233,26.01 5.666,2.373 0,0"
         style="fill:#ed1c24;fill-opacity:1;fill-rule:nonzero;stroke:none"
         transform="matrix(1.3333333,0,0,-1.3333333,88.584,389.11467)" />
      <path
         id="path15"
         d="m 0,0 3.589,-5.624 c 1.808,-2.833 4.081,-4.344 7.277,-2.304 3.075,1.962 2.825,4.764 1.044,7.556 L 8.296,5.293 Z M 17.399,2.447 C 21.376,-3.785 21.225,-9.974 14.871,-14.027 8.6,-18.029 2.846,-15.437 -0.847,-9.649 l -4.13,6.474 -10.36,-6.609 -4.001,6.271 L 9.474,14.87 17.399,2.447"
         style="fill:#ed1c24;fill-opacity:1;fill-rule:nonzero;stroke:none"
         transform="matrix(1.3333333,0,0,-1.3333333,84.476,407.41467)" />
      <path
         id="path16"
         d="m 0,0 c -7.105,-6.666 -13.55,-6.46 -20.38,0.82 -6.962,7.421 -6.685,13.932 0.42,20.598 l 14.911,13.988 5.123,-5.46 -14.912,-13.989 c -3.815,-3.579 -4.967,-6.7 -0.961,-10.971 3.941,-4.2 7.071,-2.908 10.747,0.54 L 9.859,19.515 14.982,14.054 0,0"
         style="fill:#ed1c24;fill-opacity:1;fill-rule:nonzero;stroke:none"
         transform="matrix(1.3333333,0,0,-1.3333333,123.96933,466.2)" />
      <path
         id="path17"
         d="m 0,0 5.523,-3.995 c 2.216,-1.604 4.899,-2.893 6.924,-0.092 2.027,2.8 0.109,4.899 -2.225,6.587 L 4.698,6.496 Z m -8.441,-11.668 6.106,-4.418 c 2.606,-1.885 5.5,-3.208 7.863,0.058 2.42,3.346 0.007,5.744 -2.715,7.713 l -5.795,4.193 z m 23.74,17.665 c 4.861,-3.518 7.338,-8.449 3.792,-13.35 -1.941,-2.683 -4.921,-3.609 -7.908,-2.988 2.287,-2.9 2.945,-6.575 0.16,-10.426 -3.911,-5.406 -10.127,-5.234 -15.339,-1.465 L -17.843,-12.214 2.192,15.478 15.299,5.997"
         style="fill:#ed1c24;fill-opacity:1;fill-rule:nonzero;stroke:none"
         transform="matrix(1.3333333,0,0,-1.3333333,143.828,470.40133)" />
      <path
         id="path18"
         d="M 0,0 -21.695,10.713 -6.561,41.362 0.154,38.045 -12.132,13.165 2.848,5.769 0,0"
         style="fill:#ed1c24;fill-opacity:1;fill-rule:nonzero;stroke:none"
         transform="matrix(1.3333333,0,0,-1.3333333,187.83333,527.6)" />
      <path
         id="path19"
         d="M 0,0 -7.056,2.65 4.96,34.645 12.015,31.996 0,0"
         style="fill:#ed1c24;fill-opacity:1;fill-rule:nonzero;stroke:none"
         transform="matrix(1.3333333,0,0,-1.3333333,200.23467,531.74667)" />
      <path
         id="path20"
         d="m 0,0 c -9.665,2.306 -14.402,10.789 -11.897,21.295 2.306,9.665 10.308,15.899 20.487,13.471 7.984,-1.905 12.617,-8.34 11.54,-15.337 l -7.144,1.704 c 0.122,3.82 -2.074,6.614 -5.996,7.55 C 0.594,30.208 -3.251,25.056 -4.577,19.499 -6.214,12.636 -3.853,7.434 1.517,6.152 5.906,5.105 9.144,7.097 10.91,11.808 l 7.237,-1.727 C 15.462,2.135 9.104,-2.172 0,0"
         style="fill:#ed1c24;fill-opacity:1;fill-rule:nonzero;stroke:none"
         transform="matrix(1.3333333,0,0,-1.3333333,227.06,540.69067)" />
      <path
         id="path21"
         d="m 0,0 -5.13,-12.503 9.063,-0.41 z m 15.715,-26.564 -7.865,0.355 -2.341,7.747 -12.709,0.574 -3.126,-7.5 -7.673,0.347 14.541,33.608 7.721,-0.35 11.452,-34.781"
         style="fill:#ed1c24;fill-opacity:1;fill-rule:nonzero;stroke:none"
         transform="matrix(1.3333333,0,0,-1.3333333,276.416,511.81467)" />
      <path
         id="path22"
         d="M 0,0 10.464,2.259 23.207,-19.003 25.854,5.583 36.083,7.792 43.297,-25.617 36.4,-27.106 31.273,-3.364 28.188,-28.878 22.511,-30.105 9.13,-8.391 14.205,-31.898 7.215,-33.408 0,0"
         style="fill:#ed1c24;fill-opacity:1;fill-rule:nonzero;stroke:none"
         transform="matrix(1.3333333,0,0,-1.3333333,308.20533,501.28667)" />
      <path
         id="path23"
         d="m 0,0 c 3.177,-6.622 8.291,-9.066 13.547,-6.596 5.107,2.45 6.313,8.034 3.157,14.611 -3.115,6.491 -8.249,8.98 -13.399,6.508 C -1.801,12.073 -3.074,6.404 0,0 Z m 23.603,11.167 c 4.611,-9.607 1.623,-19.026 -7.42,-23.367 -9.131,-4.382 -18.327,-0.862 -22.959,8.788 -4.693,9.781 -1.708,19.092 7.51,23.516 9,4.319 18.238,0.713 22.869,-8.937"
         style="fill:#ed1c24;fill-opacity:1;fill-rule:nonzero;stroke:none"
         transform="matrix(1.3333333,0,0,-1.3333333,378.016,505.72267)" />
      <path
         id="path24"
         d="m 0,0 -19.58,-14.204 -20.066,27.661 6.061,4.396 L -17.296,-4.602 -3.777,5.206 0,0"
         style="fill:#ed1c24;fill-opacity:1;fill-rule:nonzero;stroke:none"
         transform="matrix(1.3333333,0,0,-1.3333333,453.468,486.748)" />
      <path
         id="path25"
         d="m 0,0 c 4.781,4.924 4.062,9.904 -0.864,14.684 -4.923,4.781 -9.989,5.283 -14.703,0.427 l -3.811,-3.926 15.566,-15.112 z m -29.037,10.193 9.629,9.919 C -12.02,27.723 -3.535,27.78 4.385,20.091 12.272,12.436 12.5,3.919 5.112,-3.692 l -9.628,-9.918 -24.521,23.803"
         style="fill:#ed1c24;fill-opacity:1;fill-rule:nonzero;stroke:none"
         transform="matrix(1.3333333,0,0,-1.3333333,465.792,463.31733)" />
      <path
         id="path26"
         d="M 0,0 C 6.197,-3.94 11.828,-3.313 14.986,1.561 18.025,6.34 16.098,11.717 9.943,15.632 3.868,19.495 -1.803,18.895 -4.87,14.075 -7.909,9.296 -5.993,3.813 0,0 Z m 14.134,21.953 c 8.99,-5.717 11.433,-15.292 6.049,-23.755 -5.434,-8.544 -15.1,-10.417 -24.131,-4.673 -9.152,5.821 -11.539,15.302 -6.053,23.928 5.358,8.423 15.104,10.245 24.135,4.5"
         style="fill:#ed1c24;fill-opacity:1;fill-rule:nonzero;stroke:none"
         transform="matrix(1.3333333,0,0,-1.3333333,480.09467,424.156)" />
      <path
         id="path27"
         d="M 0,0 25.139,-1.762 5.728,14.357 8.611,21.58 36.139,-1.654 32.99,-9.546 -2.901,-7.267 0,0"
         style="fill:#ed1c24;fill-opacity:1;fill-rule:nonzero;stroke:none"
         transform="matrix(1.3333333,0,0,-1.3333333,481.96133,375.628)" />
      <path
         id="path28"
         d="M 0,0 11.506,-7.086 13.377,1.79 Z M 28.754,11.204 27.13,3.502 19.108,2.446 16.484,-10 l 6.893,-4.299 -1.585,-7.515 -30.804,19.789 1.595,7.562 36.171,5.667"
         style="fill:#ed1c24;fill-opacity:1;fill-rule:nonzero;stroke:none"
         transform="matrix(1.3333333,0,0,-1.3333333,507.21333,333.52)" />
      <path
         id="path29"
         d="m 0,0 c -78.015,0 -141.486,-63.471 -141.486,-141.487 0,-78.015 63.471,-141.486 141.486,-141.486 78.016,0 141.487,63.471 141.487,141.486 C 141.487,-63.471 78.016,0 0,0 Z m 0,-286.973 c -80.221,0 -145.486,65.265 -145.486,145.486 C -145.486,-61.265 -80.221,4 0,4 80.222,4 145.487,-61.265 145.487,-141.487 145.487,-221.708 80.222,-286.973 0,-286.973"
         style="fill:#ed1c24;fill-opacity:1;fill-rule:nonzero;stroke:none"
         transform="matrix(1.3333333,0,0,-1.3333333,286.81733,98.169333)" />
      <path
         id="path30"
         d="m 0,0 c -116.408,0 -211.113,-94.705 -211.113,-211.114 0,-116.408 94.705,-211.113 211.113,-211.113 116.408,0 211.114,94.705 211.114,211.113 C 211.114,-94.705 116.408,0 0,0 Z m 0,-426.227 c -57.459,0 -111.478,22.376 -152.108,63.005 -40.63,40.63 -63.005,94.649 -63.005,152.108 0,57.459 22.375,111.479 63.005,152.109 C -111.478,-18.375 -57.459,4 0,4 c 57.459,0 111.479,-22.375 152.109,-63.005 40.629,-40.63 63.005,-94.65 63.005,-152.109 0,-57.459 -22.376,-111.478 -63.005,-152.108 C 111.479,-403.851 57.459,-426.227 0,-426.227"
         style="fill:#ed1c24;fill-opacity:1;fill-rule:nonzero;stroke:none"
         transform="matrix(1.3333333,0,0,-1.3333333,286.81733,5.3333333)"
         clip-path="url(#clipPath31)" />
      <path
         id="path32"
         d="m 0,0 h -75.311 v 75.311 h -75.311 V 0 h -75.311 v -75.311 h 75.311 v -75.311 h 75.311 v 75.311 H 0 V 0"
         style="fill:#ed1c24;fill-opacity:1;fill-rule:nonzero;stroke:none"
         transform="matrix(1.3333333,0,0,-1.3333333,437.44,236.61067)" />
      <path
         id="path33"
         d="m 0,0 c 0.432,-1.082 1.153,-2.452 2.379,-3.678 0.866,-0.865 1.803,-1.081 2.669,-0.216 0.901,0.901 0.504,1.803 -0.289,2.596 -0.505,0.505 -1.154,0.938 -1.694,1.19 L 3.173,1.515 8.365,2.452 10.132,0.685 6.743,0.109 6.815,0.036 c 0.324,-0.108 0.793,-0.432 1.406,-1.045 1.623,-1.623 2.56,-4.075 0.793,-5.842 -2.812,-2.812 -5.697,-1.514 -7.825,0.614 -2.271,2.271 -2.776,3.425 -3.678,5.264 L 0,0"
         style="fill:#ed1c24;fill-opacity:1;fill-rule:nonzero;stroke:none"
         transform="matrix(1.3333333,0,0,-1.3333333,422.50533,134.20133)" />
    </g>
  </g>
</svg>
