<?xml version="1.0" encoding="UTF-8" standalone="no"?>
<!-- Created with Inkscape (http://www.inkscape.org/) -->

<svg
   version="1.1"
   id="svg1"
   width="648.4093"
   height="99.994667"
   viewBox="0 0 648.4093 99.994667"
   sodipodi:docname="Nicaragua Red Cross.svg"
   inkscape:version="1.3.2 (091e20e, 2023-11-25, custom)"
   xmlns:inkscape="http://www.inkscape.org/namespaces/inkscape"
   xmlns:sodipodi="http://sodipodi.sourceforge.net/DTD/sodipodi-0.dtd"
   xmlns="http://www.w3.org/2000/svg"
   xmlns:svg="http://www.w3.org/2000/svg">
  <defs
     id="defs1">
    <clipPath
       clipPathUnits="userSpaceOnUse"
       id="clipPath3">
      <path
         d="M 0.059998,74.996 H 486.307 V 0 H 0.059998 Z"
         transform="translate(-49.999001,-50.002002)"
         id="path3" />
    </clipPath>
  </defs>
  <sodipodi:namedview
     id="namedview1"
     pagecolor="#ffffff"
     bordercolor="#666666"
     borderopacity="1.0"
     inkscape:showpageshadow="2"
     inkscape:pageopacity="0.0"
     inkscape:pagecheckerboard="0"
     inkscape:deskcolor="#d1d1d1"
     inkscape:export-bgcolor="#ffffffff"
     inkscape:zoom="1.4419904"
     inkscape:cx="324.20465"
     inkscape:cy="50.277727"
     inkscape:window-width="1920"
     inkscape:window-height="1017"
     inkscape:window-x="-8"
     inkscape:window-y="-8"
     inkscape:window-maximized="1"
     inkscape:current-layer="g1">
    <inkscape:page
       x="0"
       y="0"
       inkscape:label="1"
       id="page1"
       width="648.4093"
       height="99.994667"
       margin="0"
       bleed="0"
       inkscape:export-filename="Nicaragua Red Cross.png"
       inkscape:export-xdpi="300"
       inkscape:export-ydpi="300" />
  </sodipodi:namedview>
  <g
     id="g1"
     inkscape:groupmode="layer"
     inkscape:label="1">
    <g
       id="group-MC1">
      <path
         id="path2"
         d="M 0,0 V 24.994 H -24.993 V 0 h -25.006 v -25.004 h 25.006 V -50.002 H 0 v 24.998 H 25.002 L 25.002,0 H 0"
         style="fill:#eb1d27;fill-opacity:1;fill-rule:nonzero;stroke:none"
         transform="matrix(1.3333333,0,0,-1.3333333,66.665333,33.325333)"
         clip-path="url(#clipPath3)" />
      <path
         id="path4"
         d="M 0,0 4.963,-1.523 C 4.631,-2.936 4.105,-4.117 3.388,-5.065 2.672,-6.013 1.781,-6.728 0.719,-7.21 -0.344,-7.693 -1.697,-7.934 -3.34,-7.934 c -1.991,0 -3.618,0.294 -4.882,0.882 -1.262,0.588 -2.353,1.621 -3.271,3.101 -0.916,1.48 -1.375,3.375 -1.375,5.683 0,3.08 0.808,5.446 2.42,7.099 1.614,1.653 3.895,2.481 6.847,2.481 2.308,0 4.124,-0.474 5.446,-1.422 C 3.165,8.941 4.148,7.486 4.788,5.522 L -0.214,4.393 c -0.175,0.567 -0.357,0.981 -0.55,1.244 -0.315,0.44 -0.704,0.778 -1.162,1.015 -0.46,0.238 -0.971,0.356 -1.539,0.356 -1.283,0 -2.266,-0.525 -2.951,-1.572 -0.516,-0.779 -0.775,-1.999 -0.775,-3.664 0,-2.064 0.31,-3.478 0.925,-4.243 0.618,-0.764 1.485,-1.147 2.601,-1.147 1.085,0 1.903,0.308 2.459,0.927 C -0.652,-2.073 -0.25,-1.177 0,0"
         style="fill:#231f20;fill-opacity:1;fill-rule:nonzero;stroke:none"
         transform="matrix(1.3333333,0,0,-1.3333333,130.79467,53.202667)" />
      <path
         id="path5"
         d="m 0,0 h 2.389 c 0.258,0 0.759,0.085 1.5,0.254 0.375,0.076 0.681,0.27 0.92,0.584 0.236,0.313 0.356,0.673 0.356,1.079 0,0.601 -0.188,1.063 -0.563,1.384 C 4.227,3.622 3.523,3.783 2.489,3.783 H 0 Z M -5.69,-11.07 V 7.541 h 9.442 c 1.75,0 3.088,-0.152 4.014,-0.457 0.925,-0.305 1.671,-0.869 2.238,-1.695 0.567,-0.824 0.85,-1.83 0.85,-3.015 0,-1.032 -0.216,-1.923 -0.65,-2.673 C 9.77,-1.047 9.174,-1.654 8.415,-2.12 7.931,-2.416 7.267,-2.662 6.425,-2.856 7.1,-3.085 7.592,-3.314 7.899,-3.543 8.108,-3.695 8.41,-4.021 8.805,-4.521 c 0.397,-0.5 0.661,-0.885 0.794,-1.157 l 2.743,-5.392 h -6.4 L 2.914,-5.383 C 2.53,-4.646 2.189,-4.168 1.888,-3.948 1.48,-3.66 1.017,-3.517 0.5,-3.517 H 0 v -7.553 h -5.69"
         style="fill:#231f20;fill-opacity:1;fill-rule:nonzero;stroke:none"
         transform="matrix(1.3333333,0,0,-1.3333333,148.76667,48.598667)" />
      <path
         id="path6"
         d="m 0,0 h 5.652 v -11.088 c 0,-1.1 -0.17,-2.139 -0.506,-3.115 -0.339,-0.977 -0.868,-1.831 -1.589,-2.562 -0.721,-0.732 -1.478,-1.245 -2.269,-1.541 -1.101,-0.415 -2.423,-0.622 -3.964,-0.622 -0.892,0 -1.866,0.063 -2.921,0.19 -1.054,0.127 -1.935,0.378 -2.644,0.755 -0.709,0.376 -1.357,0.911 -1.944,1.605 -0.589,0.693 -0.991,1.407 -1.207,2.144 -0.35,1.183 -0.526,2.232 -0.526,3.146 V 0 h 5.653 v -11.353 c 0,-1.014 0.277,-1.807 0.832,-2.377 0.554,-0.572 1.322,-0.857 2.306,-0.857 0.976,0 1.74,0.281 2.295,0.844 0.554,0.562 0.832,1.359 0.832,2.39 L 0,0"
         style="fill:#231f20;fill-opacity:1;fill-rule:nonzero;stroke:none"
         transform="matrix(1.3333333,0,0,-1.3333333,182.964,38.544)" />
      <path
         id="path7"
         d="M 0,0 H 16.031 V -3.72 L 5.741,-14.612 h 10.665 v -3.999 H -0.987 v 3.859 L 9.195,-3.974 H 0 V 0"
         style="fill:#231f20;fill-opacity:1;fill-rule:nonzero;stroke:none"
         transform="matrix(1.3333333,0,0,-1.3333333,194.884,38.544)" />
      <path
         id="path8"
         d="M 0,0 H 2.388 C 2.647,0 3.147,0.085 3.889,0.254 4.264,0.33 4.57,0.524 4.808,0.838 5.045,1.151 5.164,1.511 5.164,1.917 5.164,2.518 4.977,2.98 4.602,3.301 4.226,3.622 3.522,3.783 2.488,3.783 H 0 Z M -5.69,-11.07 V 7.541 h 9.441 c 1.751,0 3.089,-0.152 4.014,-0.457 0.926,-0.305 1.672,-0.869 2.239,-1.695 0.566,-0.824 0.85,-1.83 0.85,-3.015 0,-1.032 -0.216,-1.923 -0.65,-2.673 C 9.77,-1.047 9.173,-1.654 8.415,-2.12 7.931,-2.416 7.267,-2.662 6.424,-2.856 7.1,-3.085 7.591,-3.314 7.899,-3.543 8.108,-3.695 8.41,-4.021 8.805,-4.521 c 0.396,-0.5 0.661,-0.885 0.794,-1.157 l 2.743,-5.392 H 5.941 L 2.913,-5.383 C 2.53,-4.646 2.188,-4.168 1.888,-3.948 1.479,-3.66 1.017,-3.517 0.5,-3.517 H 0 v -7.553 h -5.69"
         style="fill:#231f20;fill-opacity:1;fill-rule:nonzero;stroke:none"
         transform="matrix(1.3333333,0,0,-1.3333333,239.23467,48.598667)" />
      <path
         id="path9"
         d="m 0,0 c 0,-1.879 0.345,-3.229 1.032,-4.05 0.688,-0.821 1.623,-1.231 2.807,-1.231 1.217,0 2.16,0.402 2.826,1.206 0.667,0.804 1.001,2.247 1.001,4.329 0,1.752 -0.348,3.032 -1.044,3.84 C 5.926,4.902 4.981,5.307 3.789,5.307 2.648,5.307 1.73,4.896 1.038,4.075 0.347,3.254 0,1.896 0,0 Z m -5.664,0.025 c 0,3.038 0.834,5.405 2.501,7.097 1.667,1.692 3.989,2.539 6.965,2.539 3.051,0 5.402,-0.831 7.053,-2.495 1.65,-1.662 2.476,-3.992 2.476,-6.988 0,-2.175 -0.361,-3.959 -1.082,-5.352 -0.721,-1.391 -1.764,-2.474 -3.126,-3.249 -1.364,-0.774 -3.062,-1.161 -5.096,-1.161 -2.067,0 -3.778,0.333 -5.133,1.002 -1.355,0.669 -2.454,1.727 -3.295,3.174 -0.842,1.447 -1.263,3.259 -1.263,5.433"
         style="fill:#231f20;fill-opacity:1;fill-rule:nonzero;stroke:none"
         transform="matrix(1.3333333,0,0,-1.3333333,264.12667,51.002667)" />
      <path
         id="path10"
         d="m 0,0 h 5.677 v -10.111 c 0,-2.123 -0.186,-3.739 -0.556,-4.847 -0.371,-1.108 -1.118,-2.046 -2.239,-2.816 -1.121,-0.769 -2.557,-1.154 -4.308,-1.154 -1.851,0 -3.285,0.254 -4.302,0.761 -1.016,0.508 -1.802,1.251 -2.356,2.228 -0.555,0.978 -0.882,2.186 -0.982,3.625 l 5.414,0.749 c 0.009,-0.822 0.079,-1.431 0.213,-1.829 0.134,-0.397 0.359,-0.719 0.675,-0.964 0.217,-0.162 0.525,-0.242 0.925,-0.242 0.634,0 1.099,0.24 1.394,0.717 C -0.148,-13.405 0,-12.6 0,-11.467 V 0"
         style="fill:#231f20;fill-opacity:1;fill-rule:nonzero;stroke:none"
         transform="matrix(1.3333333,0,0,-1.3333333,296.14,38.544)" />
      <path
         id="path11"
         d="M 0,0 -2.023,6.69 -4.026,0 Z M 1.175,-4.024 H -5.256 L -6.15,-7.096 h -5.784 l 6.89,18.611 h 6.18 L 8.024,-7.096 H 2.092 l -0.917,3.072"
         style="fill:#231f20;fill-opacity:1;fill-rule:nonzero;stroke:none"
         transform="matrix(1.3333333,0,0,-1.3333333,321.32267,53.897333)" />
      <path
         id="path12"
         d="m 0,0 h 5.289 l 6.903,-10.297 V 0 h 5.34 v -18.611 h -5.34 L 5.327,-8.393 V -18.611 H 0 V 0"
         style="fill:#231f20;fill-opacity:1;fill-rule:nonzero;stroke:none"
         transform="matrix(1.3333333,0,0,-1.3333333,345.86,38.544)" />
      <path
         id="path13"
         d="m 280.916,27.477 h 5.677 v 18.611 h -5.677 z"
         style="fill:#231f20;fill-opacity:1;fill-rule:nonzero;stroke:none"
         transform="matrix(1.3333333,0,0,-1.3333333,0,99.994667)" />
      <path
         id="path14"
         d="M 0,0 4.964,-1.523 C 4.63,-2.936 4.105,-4.117 3.389,-5.065 2.672,-6.013 1.781,-6.728 0.719,-7.21 c -1.064,-0.483 -2.416,-0.724 -4.058,-0.724 -1.992,0 -3.62,0.294 -4.884,0.882 -1.262,0.588 -2.353,1.621 -3.269,3.101 -0.917,1.48 -1.376,3.375 -1.376,5.683 0,3.08 0.807,5.446 2.419,7.099 1.615,1.653 3.896,2.481 6.847,2.481 2.31,0 4.125,-0.474 5.447,-1.422 C 3.165,8.941 4.147,7.486 4.789,5.522 L -0.213,4.393 c -0.175,0.567 -0.359,0.981 -0.55,1.244 -0.317,0.44 -0.704,0.778 -1.163,1.015 -0.459,0.238 -0.972,0.356 -1.538,0.356 -1.284,0 -2.267,-0.525 -2.951,-1.572 -0.517,-0.779 -0.776,-1.999 -0.776,-3.664 0,-2.064 0.309,-3.478 0.926,-4.243 0.616,-0.764 1.484,-1.147 2.601,-1.147 1.084,0 1.902,0.308 2.457,0.927 C -0.652,-2.073 -0.25,-1.177 0,0"
         style="fill:#231f20;fill-opacity:1;fill-rule:nonzero;stroke:none"
         transform="matrix(1.3333333,0,0,-1.3333333,403.81467,53.202667)" />
      <path
         id="path15"
         d="M 0,0 -2.023,6.69 -4.025,0 Z m 1.176,-4.024 h -6.432 l -0.893,-3.072 h -5.784 l 6.89,18.611 H 1.136 L 8.025,-7.096 H 2.092 l -0.916,3.072"
         style="fill:#231f20;fill-opacity:1;fill-rule:nonzero;stroke:none"
         transform="matrix(1.3333333,0,0,-1.3333333,427.56267,53.897333)" />
      <path
         id="path16"
         d="M 0,0 H 2.388 C 2.647,0 3.147,0.085 3.889,0.254 4.264,0.33 4.57,0.524 4.809,0.838 5.045,1.151 5.165,1.511 5.165,1.917 5.165,2.518 4.977,2.98 4.602,3.301 4.227,3.622 3.523,3.783 2.488,3.783 H 0 Z M -5.69,-11.07 V 7.541 h 9.441 c 1.751,0 3.089,-0.152 4.015,-0.457 0.925,-0.305 1.671,-0.869 2.238,-1.695 0.566,-0.824 0.85,-1.83 0.85,-3.015 0,-1.032 -0.216,-1.923 -0.65,-2.673 C 9.77,-1.047 9.174,-1.654 8.415,-2.12 7.931,-2.416 7.267,-2.662 6.425,-2.856 7.1,-3.085 7.591,-3.314 7.899,-3.543 8.108,-3.695 8.41,-4.021 8.805,-4.521 c 0.397,-0.5 0.661,-0.885 0.794,-1.157 l 2.743,-5.392 h -6.4 L 2.914,-5.383 C 2.53,-4.646 2.188,-4.168 1.888,-3.948 1.479,-3.66 1.017,-3.517 0.5,-3.517 H 0 v -7.553 h -5.69"
         style="fill:#231f20;fill-opacity:1;fill-rule:nonzero;stroke:none"
         transform="matrix(1.3333333,0,0,-1.3333333,448.348,48.598667)" />
      <path
         id="path17"
         d="M 0,0 -2.023,6.69 -4.026,0 Z M 1.175,-4.024 H -5.256 L -6.15,-7.096 h -5.784 l 6.89,18.611 h 6.18 L 8.024,-7.096 H 2.092 l -0.917,3.072"
         style="fill:#231f20;fill-opacity:1;fill-rule:nonzero;stroke:none"
         transform="matrix(1.3333333,0,0,-1.3333333,480.684,53.897333)" />
      <path
         id="path18"
         d="M 0,0 V 3.872 H 8.753 V -4.062 C 7.078,-5.221 5.595,-6.01 4.308,-6.43 3.019,-6.848 1.492,-7.058 -0.275,-7.058 c -2.176,0 -3.95,0.377 -5.32,1.13 -1.372,0.753 -2.435,1.875 -3.19,3.364 -0.754,1.489 -1.131,3.199 -1.131,5.128 0,2.032 0.412,3.798 1.238,5.3 0.825,1.503 2.034,2.644 3.626,3.422 1.242,0.601 2.914,0.901 5.014,0.901 2.026,0 3.541,-0.186 4.546,-0.558 C 5.513,11.257 6.346,10.679 7.009,9.895 7.671,9.113 8.169,8.121 8.503,6.919 L 3.039,5.929 C 2.814,6.631 2.433,7.169 1.894,7.541 1.357,7.913 0.671,8.1 -0.163,8.1 -1.404,8.1 -2.394,7.661 -3.133,6.786 -3.87,5.909 -4.239,4.523 -4.239,2.628 c 0,-2.015 0.373,-3.453 1.119,-4.317 0.746,-0.863 1.786,-1.294 3.12,-1.294 0.634,0 1.238,0.092 1.813,0.279 0.575,0.186 1.234,0.504 1.976,0.952 L 3.789,0 H 0"
         style="fill:#231f20;fill-opacity:1;fill-rule:nonzero;stroke:none"
         transform="matrix(1.3333333,0,0,-1.3333333,505.45467,54.370667)" />
      <path
         id="path19"
         d="M 0,0 H 3.289 V -3.1738 H 0 Z m -5.302,0 h 3.251 v -3.1738 h -3.251 z m 7.428,-4.354 h 5.652 v -11.088 c 0,-1.1 -0.169,-2.139 -0.506,-3.116 -0.339,-0.976 -0.868,-1.83 -1.589,-2.562 -0.721,-0.731 -1.478,-1.245 -2.269,-1.541 -1.101,-0.415 -2.422,-0.622 -3.964,-0.622 -0.892,0 -1.865,0.064 -2.921,0.191 -1.054,0.127 -1.935,0.378 -2.644,0.755 -0.709,0.376 -1.357,0.911 -1.944,1.604 -0.589,0.693 -0.991,1.408 -1.207,2.144 -0.35,1.184 -0.525,2.233 -0.525,3.147 v 11.088 h 5.652 v -11.353 c 0,-1.015 0.277,-1.808 0.832,-2.378 0.554,-0.571 1.322,-0.856 2.306,-0.856 0.976,0 1.741,0.281 2.296,0.843 0.554,0.563 0.831,1.36 0.831,2.391 v 11.353"
         style="fill:#231f20;fill-opacity:1;fill-rule:nonzero;stroke:none"
         transform="matrix(1.3333333,0,0,-1.3333333,534.68267,32.737333)" />
      <path
         id="path20"
         d="M 0,0 H 15.181 V -3.974 H 5.677 v -2.958 h 8.816 v -3.796 H 5.677 v -3.669 h 9.779 v -4.214 H 0 V 0"
         style="fill:#231f20;fill-opacity:1;fill-rule:nonzero;stroke:none"
         transform="matrix(1.3333333,0,0,-1.3333333,550.03867,38.544)" />
      <path
         id="path21"
         d="m 0,0 h 5.29 l 6.903,-10.297 V 0 h 5.339 V -18.611 H 12.193 L 5.328,-8.393 V -18.611 H 0 L 0,0"
         style="fill:#231f20;fill-opacity:1;fill-rule:nonzero;stroke:none"
         transform="matrix(1.3333333,0,0,-1.3333333,574.76267,38.544)" />
      <path
         id="path22"
         d="m 0,0 5.39,0.343 c 0.116,-0.889 0.354,-1.566 0.713,-2.032 0.583,-0.752 1.417,-1.129 2.501,-1.129 0.809,0 1.432,0.192 1.869,0.577 0.438,0.386 0.657,0.832 0.657,1.34 0,0.482 -0.209,0.914 -0.626,1.295 C 10.088,0.774 9.12,1.134 7.603,1.473 5.119,2.04 3.348,2.793 2.289,3.732 1.222,4.672 0.688,5.869 0.688,7.325 c 0,0.956 0.273,1.86 0.82,2.711 0.545,0.85 1.366,1.519 2.462,2.006 1.097,0.486 2.599,0.729 4.509,0.729 2.342,0 4.128,-0.442 5.358,-1.327 1.23,-0.883 1.961,-2.291 2.194,-4.22 L 10.692,6.906 C 10.55,7.744 10.252,8.354 9.797,8.734 9.343,9.115 8.716,9.306 7.916,9.306 7.257,9.306 6.762,9.164 6.428,8.88 6.094,8.597 5.928,8.252 5.928,7.846 5.928,7.55 6.065,7.283 6.34,7.046 6.607,6.801 7.241,6.572 8.241,6.36 10.717,5.818 12.491,5.271 13.562,4.716 14.633,4.162 15.413,3.475 15.9,2.653 c 0.488,-0.821 0.732,-1.739 0.732,-2.754 0,-1.194 -0.325,-2.294 -0.976,-3.301 -0.65,-1.007 -1.559,-1.77 -2.726,-2.292 -1.167,-0.519 -2.638,-0.78 -4.414,-0.78 -3.117,0 -5.277,0.609 -6.477,1.828 C 0.838,-3.427 0.159,-1.879 0,0"
         style="fill:#231f20;fill-opacity:1;fill-rule:nonzero;stroke:none"
         transform="matrix(1.3333333,0,0,-1.3333333,601.84,55.149333)" />
      <path
         id="path23"
         d="M 0,0 H 15.181 V -3.974 H 5.677 v -2.958 h 8.816 v -3.796 H 5.677 v -3.669 h 9.779 v -4.214 H 0 V 0"
         style="fill:#231f20;fill-opacity:1;fill-rule:nonzero;stroke:none"
         transform="matrix(1.3333333,0,0,-1.3333333,627.80133,38.544)" />
    </g>
  </g>
</svg>
