<?xml version="1.0" encoding="UTF-8" standalone="no"?>
<svg
   xmlns:dc="http://purl.org/dc/elements/1.1/"
   xmlns:cc="http://creativecommons.org/ns#"
   xmlns:rdf="http://www.w3.org/1999/02/22-rdf-syntax-ns#"
   xmlns:svg="http://www.w3.org/2000/svg"
   xmlns="http://www.w3.org/2000/svg"
   viewBox="0 0 124.72 124.53333"
   height="124.53333"
   width="124.72"
   xml:space="preserve"
   id="svg2"
   version="1.1"><metadata
     id="metadata8"><rdf:RDF><cc:Work
         rdf:about=""><dc:format>image/svg+xml</dc:format><dc:type
           rdf:resource="http://purl.org/dc/dcmitype/StillImage" /><dc:title></dc:title></cc:Work></rdf:RDF></metadata><defs
     id="defs6" /><g
     transform="matrix(1.3333333,0,0,-1.3333333,0,124.53333)"
     id="g10"><g
       transform="scale(0.1)"
       id="g12"><path
         id="path14"
         style="fill:#ffffff;fill-opacity:1;fill-rule:nonzero;stroke:none"
         d="M 935.43,467.688 C 935.43,209.902 725.52,0 467.715,0 209.918,0 0,209.902 0,467.688 c 0,257.82 209.918,466.316 467.715,466.316 257.805,0 467.715,-208.496 467.715,-466.316" /><path
         id="path16"
         style="fill:#ffffff;fill-opacity:1;fill-rule:evenodd;stroke:none"
         d="m 921.953,467.664 c 0,-250.348 -203.867,-454.207 -454.238,-454.207 -250.371,0 -454.2384,203.859 -454.2384,454.207 0,250.395 203.8674,452.883 454.2384,452.883 250.371,0 454.238,-202.488 454.238,-452.883" /><path
         id="path18"
         style="fill:none;stroke:#ed1c24;stroke-width:17.20999908;stroke-linecap:butt;stroke-linejoin:miter;stroke-miterlimit:2.61299992;stroke-dasharray:none;stroke-opacity:1"
         d="m 921.953,467.664 c 0,-250.348 -203.867,-454.207 -454.238,-454.207 -250.371,0 -454.2384,203.859 -454.2384,454.207 0,250.395 203.8674,452.883 454.2384,452.883 250.371,0 454.238,-202.488 454.238,-452.883" /><path
         id="path20"
         style="fill:#ed1c24;fill-opacity:1;fill-rule:evenodd;stroke:none"
         d="m 506.023,99.6289 c 1.36,-16.3945 1.36,-17.7812 12.317,-17.7812 h 4.101 c 1.368,-1.3672 1.368,-4.1055 0,-4.1055 -9.582,0 -15.058,-1.3633 -21.894,-1.3633 -6.836,-1.3672 -12.324,-1.3672 -20.52,-2.7461 0,0 -1.375,2.7461 0,4.1094 l 4.106,1.3711 c 8.211,1.3672 9.578,2.7344 8.211,19.168 l -5.481,56.0737 c -1.367,12.325 -2.73,15.059 -9.578,15.059 h -6.836 v 4.102 c 9.578,2.734 19.141,2.734 34.199,4.093 13.692,1.375 23.274,1.375 31.473,-2.726 8.215,-4.121 15.051,-10.945 16.418,-21.887 1.367,-13.699 -8.203,-21.891 -15.039,-24.629 -6.855,-4.09 -27.363,-9.578 -34.219,-9.578 -1.367,0 -1.367,2.734 0,2.734 17.782,4.102 34.219,17.774 32.84,30.098 -1.375,15.059 -10.945,23.262 -28.738,21.895 -8.203,0 -8.203,-1.36 -8.203,-5.469 l 6.843,-68.4181" /><path
         id="path22"
         style="fill:#ed1c24;fill-opacity:1;fill-rule:evenodd;stroke:none"
         d="m 430.77,152.996 c 0,16.418 0,17.766 -9.579,19.16 l -4.101,1.36 c 0,0 0,2.734 1.355,4.093 8.215,-1.359 13.696,-1.359 19.16,-2.726 h 20.532 c 1.355,-1.367 1.355,-4.121 0,-4.121 h -4.106 c -9.578,0 -9.578,-2.715 -10.957,-19.141 l -2.722,-53.3397 c -1.368,-16.4336 -1.368,-17.8008 8.203,-19.168 l 4.101,-1.3711 c 1.375,0 0,-2.7305 0,-4.1094 -8.203,1.3789 -13.672,1.3789 -20.515,2.7461 h -20.52 c 0,1.3633 -1.379,2.7344 0,4.1016 h 4.102 c 9.582,1.3672 9.582,2.7539 10.937,19.1484 l 4.11,53.3671" /><path
         id="path24"
         style="fill:#ed1c24;fill-opacity:1;fill-rule:evenodd;stroke:none"
         d="m 87.3633,473.145 c -17.793,0 -20.5274,0 -20.5274,-9.571 l -1.3671,-4.109 c 0,0 -2.7344,0 -4.1016,1.375 1.3672,6.824 1.3672,12.305 1.3672,19.14 v 19.172 c 1.3594,1.356 4.1015,1.356 4.1015,0 v -2.738 c 1.3672,-9.59 4.1016,-9.59 20.5274,-9.59 l 17.7737,-1.363 c 4.121,0 6.843,0 6.843,1.363 0,2.746 -1.355,4.114 -1.355,5.492 -2.742,1.356 -6.855,6.836 -8.215,8.192 l -16.4256,17.805 c -2.7422,2.722 -10.9453,10.945 -12.3008,12.3 -1.3789,1.36 -2.7461,1.36 -2.7461,1.36 -1.3672,0 -1.3672,0 -1.3672,-2.715 l -1.3672,-4.121 c -1.3672,-1.367 -4.1093,0 -4.1093,1.367 0,5.469 0,10.945 1.375,16.418 v 16.433 c 0,1.348 2.7343,1.348 2.7343,0 1.3672,-4.113 2.7344,-10.957 4.1016,-15.058 2.7344,-4.102 10.9375,-13.684 19.1719,-23.262 L 103.77,505.977 c 2.746,-1.348 4.113,-2.735 5.488,-2.735 0,0 1.367,0 4.101,2.735 17.774,13.691 32.832,25.996 46.504,38.32 4.114,4.101 6.856,6.848 6.856,12.316 l 1.355,4.09 c 0,1.375 2.739,1.375 4.114,0 -1.375,-4.09 -1.375,-10.937 -1.375,-17.781 V 523.77 c 0,-1.368 -2.739,-1.368 -4.094,-1.368 l -1.367,4.102 c 0,2.754 0,4.109 -1.375,4.109 0,0 -1.372,-1.355 -2.739,-2.742 -4.097,-2.734 -8.211,-6.836 -16.425,-12.312 l -13.68,-12.317 c -10.938,-9.57 -15.059,-10.926 -15.059,-15.047 0,-2.734 2.742,-2.734 8.235,-2.734 l 20.504,-1.367 c 16.425,0 19.164,0 20.539,9.578 v 4.109 c 1.367,0 4.101,0 4.101,-1.367 0,-6.844 0,-12.32 -1.379,-19.156 v -19.153 h -4.097 v 4.09 c -1.372,8.215 -2.739,8.215 -19.164,9.582 l -57.4497,1.368" /><path
         id="path26"
         style="fill:#ed1c24;fill-opacity:1;fill-rule:evenodd;stroke:none"
         d="m 135.242,620.918 c 2.738,-1.367 4.113,-1.367 4.113,-1.367 1.36,0 2.735,2.734 5.458,9.582 2.738,5.469 5.48,10.937 4.113,16.394 -1.375,5.5 -5.469,10.957 -15.047,16.426 -10.941,5.488 -24.621,2.735 -32.832,-12.324 -4.1134,-9.559 -4.1134,-9.559 0,-12.293 z m -27.359,-1.367 c -13.6838,6.836 -16.4064,6.836 -19.1525,1.367 l -2.7461,-4.109 c -1.3672,0 -4.0899,0 -4.0899,1.375 4.0899,9.57 8.1953,19.152 15.0391,32.843 4.1134,9.559 8.2034,17.774 15.0464,21.875 6.836,5.465 16.418,8.211 26,2.743 13.668,-6.844 16.415,-20.528 16.415,-30.118 h 2.746 c 24.629,2.746 39.668,4.102 53.347,10.957 2.754,1.368 6.856,4.102 8.211,6.844 1.379,1.36 2.746,1.36 2.746,0 0,-1.375 -1.367,-4.109 -2.746,-6.844 -5.457,-12.304 -13.672,-17.793 -32.84,-21.882 -6.836,0 -19.14,-1.379 -28.718,-2.747 -4.114,-1.367 -6.848,-2.722 -9.59,-8.21 -2.738,-6.836 -2.738,-6.836 0,-8.204 l 19.168,-9.582 c 15.051,-6.836 16.406,-6.836 21.886,0 l 1.368,2.746 c 1.375,1.375 4.097,0 4.097,-1.367 -4.097,-6.847 -6.824,-10.949 -9.566,-16.425 -2.734,-6.848 -4.106,-12.317 -8.215,-19.153 0,0 -2.734,0 -2.734,1.367 l 1.355,4.102 c 2.746,9.59 0,9.59 -15.047,17.781 l -51.98,24.641" /><path
         id="path28"
         style="fill:#ed1c24;fill-opacity:1;fill-rule:evenodd;stroke:none"
         d="m 244.695,718.059 c 10.95,-12.305 13.672,-12.305 20.532,-6.848 l 5.464,4.102 c 1.372,0 2.727,-1.36 2.727,-2.735 -8.191,-6.824 -12.305,-10.937 -16.406,-16.418 -5.481,-5.465 -9.571,-9.578 -16.414,-16.414 0,0 -2.739,1.367 -2.739,2.734 l 4.094,4.102 c 5.488,8.215 4.121,9.578 -6.824,20.535 l -6.848,5.461 c -5.476,6.836 -6.836,6.836 -16.426,9.578 l -39.667,9.582 c -12.325,4.102 -13.68,2.735 -17.793,-1.367 l -4.102,-2.742 c -1.367,0 -2.742,1.375 -2.742,2.742 4.097,4.102 8.219,8.203 13.687,15.051 5.481,5.469 9.575,9.578 12.317,12.312 1.355,1.348 4.101,0 4.101,-1.375 l -1.367,-2.738 c -4.101,-4.109 -4.101,-5.469 -2.734,-6.836 0,-1.363 9.57,-4.109 10.949,-4.109 13.68,-2.735 25.984,-6.836 38.301,-9.563 -1.36,9.563 -4.106,19.153 -6.836,28.723 -2.727,9.578 -5.481,21.894 -6.848,23.254 -1.367,0 -4.094,-1.36 -6.836,-4.094 l -2.734,-1.379 c -1.367,0 -2.742,1.379 -2.742,2.738 4.109,4.11 8.218,6.836 12.312,10.958 2.734,4.089 6.848,8.21 9.578,12.3 2.746,0 4.106,-1.367 4.106,-2.722 l -2.727,-4.114 c -5.476,-6.843 -2.734,-17.781 1.367,-32.839 l 4.102,-19.153 c 4.101,-13.672 4.101,-15.047 12.312,-23.258 l 6.836,-5.468" /><path
         id="path30"
         style="fill:#ed1c24;fill-opacity:1;fill-rule:evenodd;stroke:none"
         d="m 362.363,816.563 c -8.215,23.253 -24.629,46.523 -50.633,38.308 -13.664,-4.109 -27.343,-20.516 -17.777,-51.98 6.848,-20.536 24.633,-45.157 50.617,-36.953 16.426,4.101 25.989,21.894 17.793,50.625 m 10.95,8.214 c 8.203,-23.254 0,-46.523 -16.426,-57.472 0,-1.367 1.375,-1.367 2.73,-2.735 8.215,-4.109 24.629,-12.304 35.578,-13.679 5.469,0 9.578,1.375 12.305,2.73 1.379,0 5.488,1.379 6.855,2.738 L 415.723,755 c -4.102,-4.109 -9.571,-6.848 -13.68,-8.215 -6.848,-2.73 -13.691,-2.73 -23.254,-1.363 -12.324,1.363 -23.262,6.844 -30.105,10.937 -5.469,2.723 -6.836,2.723 -9.575,2.723 -4.109,0 -9.578,-1.348 -13.699,0 -20.508,1.379 -35.566,15.078 -42.39,35.598 -9.602,28.718 2.722,57.449 30.085,65.664 30.11,9.578 51.993,-9.582 60.208,-35.567" /><path
         id="path32"
         style="fill:#ed1c24;fill-opacity:1;fill-rule:evenodd;stroke:none"
         d="m 422.551,863.086 c 0,16.418 -1.36,19.152 -10.93,19.152 h -2.742 c -1.379,0 -1.379,2.723 0,4.102 h 19.148 c 6.856,1.363 12.325,1.363 20.528,2.73 1.367,-1.367 1.367,-4.109 0,-4.109 l -4.102,-1.356 c -9.57,-1.367 -9.57,-2.746 -8.215,-19.16 l 2.746,-53.359 c 1.368,-16.406 1.368,-17.773 10.938,-19.152 h 4.109 c 1.36,0 1.36,-2.743 0,-4.102 h -19.148 c -6.856,-1.367 -12.332,-1.367 -20.528,-1.367 -1.367,0 -1.367,2.726 0,2.726 l 4.09,1.375 c 8.215,1.368 9.582,2.747 8.215,19.161 l -4.109,53.359" /><path
         id="path34"
         style="fill:#ed1c24;fill-opacity:1;fill-rule:evenodd;stroke:none"
         d="m 686.609,801.523 c 10.957,13.672 12.317,15.04 5.481,21.875 l -2.735,2.747 c 0,1.367 2.735,2.742 2.735,2.742 5.476,-5.489 9.582,-8.211 15.058,-13.692 5.469,-4.109 9.571,-6.843 15.04,-10.949 0,-1.355 -1.368,-4.098 -2.735,-4.098 l -2.734,2.743 c -6.836,4.101 -9.571,2.722 -20.52,-9.578 l -10.945,-13.696 c -2.742,-2.73 -4.109,-5.457 -2.742,-6.836 1.367,0 2.742,-1.367 4.097,-1.367 2.746,0 9.59,0 12.317,1.367 l 23.262,1.379 c 4.113,0 16.425,1.36 19.16,1.36 l 1.367,1.367 c 1.355,1.367 1.355,1.367 0,4.109 l -2.735,2.734 c 0,1.36 1.368,2.735 2.735,2.735 4.101,-4.11 8.203,-8.211 12.312,-10.945 4.106,-4.106 9.582,-8.215 12.317,-10.95 1.355,-1.367 0,-2.734 -1.367,-2.734 -4.122,2.734 -9.598,5.469 -15.059,6.836 h -28.73 l -20.516,-1.367 c -2.746,0 -4.106,0 -5.473,-1.367 0,-1.368 -1.375,-2.735 -1.375,-5.477 1.375,-23.254 1.375,-42.402 1.375,-60.195 1.367,-5.469 2.727,-9.571 5.473,-13.684 l 4.09,-2.734 c 0,-1.368 -2.727,-4.102 -2.727,-2.735 -4.109,2.735 -8.211,6.836 -13.68,10.95 -5.476,4.097 -9.589,8.203 -15.039,12.312 -1.378,1.379 0,4.102 1.36,4.102 l 4.09,-2.723 c 1.379,0 2.746,-1.379 2.746,0 1.367,0 1.367,1.363 1.367,4.101 v 19.149 l -1.367,19.148 c 0,13.684 0,17.786 -2.746,20.52 -1.36,1.367 -2.715,0 -6.828,-4.102 l -13.68,-15.058 c -10.945,-13.672 -12.324,-15.039 -5.469,-21.883 l 2.734,-2.727 c 0,-1.375 -1.386,-2.746 -2.734,-2.746 -5.476,5.473 -9.578,8.215 -15.059,12.317 -4.101,4.101 -8.21,8.203 -13.679,12.312 -1.352,1.367 0,2.727 1.375,2.727 l 2.734,-1.36 c 8.203,-4.097 9.57,-2.73 20.52,9.582 l 36.929,43.789" /><path
         id="path36"
         style="fill:#ed1c24;fill-opacity:1;fill-rule:evenodd;stroke:none"
         d="m 809.758,625.027 c 9.578,4.106 24.629,13.664 28.719,17.766 1.378,1.387 0,4.109 -1.36,8.234 l -1.363,2.723 c 1.363,1.367 2.723,2.734 4.101,1.367 2.735,-4.09 4.11,-9.59 6.833,-15.047 2.746,-5.468 5.48,-9.582 8.214,-13.683 0,-1.36 -2.734,-2.742 -2.734,-2.742 l -2.734,4.109 c -1.368,2.734 -4.114,5.469 -6.844,4.101 -5.473,0 -21.875,-8.21 -30.117,-12.304 l -16.399,-8.211 c -12.304,-6.848 -25.996,-10.949 -38.301,-8.215 -9.582,2.734 -19.16,10.945 -23.281,20.52 -5.469,9.578 -8.191,20.535 -5.469,30.105 2.747,9.578 10.957,19.152 28.75,27.363 l 32.825,16.426 c 15.054,8.215 17.781,9.578 15.054,17.774 l -1.375,2.746 c 0,1.355 2.743,2.73 2.743,2.73 2.738,-8.211 5.453,-12.312 8.207,-17.781 2.742,-5.469 5.488,-9.59 9.57,-16.426 0,-1.355 -2.727,-2.734 -4.082,-1.355 l -1.379,2.722 c -5.481,6.848 -8.215,6.848 -21.895,-1.367 l -31.464,-15.051 c -23.262,-12.312 -34.207,-26.004 -24.629,-46.504 9.57,-20.535 30.097,-19.168 51.98,-8.218 l 16.43,8.218" /><path
         id="path38"
         style="fill:#ed1c24;fill-opacity:1;fill-rule:evenodd;stroke:none"
         d="m 110.625,267.922 c -8.215,12.305 -10.957,21.875 -10.957,25.996 1.379,4.102 9.59,12.32 15.051,16.414 1.355,0 2.742,-1.367 2.742,-2.734 -5.481,-6.844 -13.691,-21.883 -1.387,-38.301 8.235,-12.324 19.168,-12.324 27.383,-6.848 5.469,4.082 10.938,9.574 9.57,24.629 l -1.379,19.16 c 0,9.563 1.379,23.246 10.957,31.457 13.684,8.203 30.09,5.469 43.782,-13.679 2.734,-4.106 6.855,-9.582 8.215,-13.684 1.367,-2.734 1.367,-5.477 2.742,-5.477 -2.742,-4.101 -8.223,-10.937 -13.692,-15.058 -1.367,0 -4.101,2.754 -4.101,4.121 5.476,5.469 10.937,16.414 1.367,30.098 -9.57,13.679 -20.52,10.945 -26.008,6.851 -8.191,-5.496 -8.191,-16.433 -8.191,-24.629 l 1.355,-15.054 c 1.379,-13.696 1.379,-27.375 -10.933,-36.946 -15.051,-9.582 -32.832,-5.468 -46.516,13.684" /><path
         id="path40"
         style="fill:#ed1c24;fill-opacity:1;fill-rule:evenodd;stroke:none"
         d="m 215.969,221.379 c -4.114,5.496 -4.114,5.496 -8.215,1.394 L 192.695,204.98 C 181.77,192.676 181.77,189.934 187.246,184.473 l 2.727,-2.754 c 0,-1.367 -2.727,-2.735 -4.114,-2.735 -4.089,5.489 -8.203,8.223 -12.304,12.325 -4.102,2.722 -8.203,5.476 -12.317,9.57 0,0 1.367,2.734 2.739,2.734 l 1.375,-1.367 c 6.836,-2.742 8.203,-2.742 19.152,10.957 l 38.301,43.77 c 10.945,12.324 10.945,15.05 6.843,20.515 l -2.734,2.739 c 0,0 1.367,2.742 2.734,2.742 5.481,-5.481 8.211,-8.211 12.305,-12.317 4.121,-2.73 8.211,-5.464 12.324,-9.578 1.368,-1.367 -1.367,-2.734 -1.367,-2.734 l -2.746,1.367 c -6.836,4.102 -8.211,2.742 -19.148,-10.937 l -12.317,-13.692 c -2.73,-4.101 -2.73,-4.101 2.746,-8.203 l 28.719,-25.996 c 5.481,-4.094 5.481,-4.094 8.203,0 l 12.324,13.684 c 10.95,13.671 12.329,15.039 6.836,20.515 l -1.355,2.742 c 0,1.371 1.355,2.739 2.723,2.739 4.125,-4.114 8.214,-8.215 12.316,-10.957 4.121,-4.106 8.215,-6.829 12.312,-10.93 0,0 -1.355,-2.734 -2.722,-2.734 l -1.375,1.378 c -6.836,4.063 -9.582,2.711 -20.531,-9.589 l -36.942,-43.789 c -10.937,-12.317 -12.305,-15.051 -6.824,-20.54 l 2.73,-2.722 c 0,-1.379 -2.73,-2.735 -2.73,-2.735 -5.481,4.102 -8.215,8.219 -12.324,10.946 -5.461,4.109 -8.203,6.836 -13.684,10.937 0,0 1.367,2.746 2.734,2.746 l 2.747,-1.359 c 6.843,-4.109 8.203,-2.754 19.148,9.551 l 13.691,17.804 c 4.09,2.743 4.09,4.11 -1.367,8.219 l -30.105,24.594" /><path
         id="path42"
         style="fill:#ed1c24;fill-opacity:1;fill-rule:evenodd;stroke:none"
         d="m 634.629,132.461 c 6.836,-15.039 8.215,-16.406 15.051,-13.672 l 5.457,1.367 1.386,-2.734 c -8.21,-4.102 -12.312,-5.477 -17.793,-8.192 -4.101,-2.753 -9.57,-5.48 -16.406,-9.6011 -1.379,0 -2.746,2.7421 -2.746,4.1211 l 5.473,2.727 c 6.844,4.109 5.469,5.468 -1.352,20.527 l -31.48,61.562 c -1.379,4.11 -1.379,4.11 -5.481,2.743 l -6.836,-4.102 c -5.468,-2.734 -12.312,-6.855 -13.672,-10.957 -2.746,-5.488 -1.375,-8.203 -1.375,-12.312 -1.371,-1.368 -2.738,-1.368 -4.101,-1.368 -1.391,6.844 -2.734,17.782 -5.473,23.25 0,0 1.36,1.387 2.739,1.387 2.734,-4.109 6.835,-1.387 12.312,1.359 l 51.992,25.997 c 6.836,2.753 8.196,4.109 8.196,8.21 0,1.36 1.375,1.36 2.742,1.36 1.367,-6.817 5.468,-17.785 8.203,-21.887 0,-1.367 -1.36,-2.742 -2.735,-2.742 -2.746,4.109 -5.468,8.223 -8.21,9.566 -4.094,0 -9.575,-1.343 -16.411,-4.09 l -9.578,-5.476 c -4.101,-1.359 -4.101,-1.359 -1.379,-6.828 l 31.477,-60.215" /><path
         id="path44"
         style="fill:#ed1c24;fill-opacity:1;fill-rule:evenodd;stroke:none"
         d="m 693.457,198.145 c 1.367,-4.114 1.367,-4.114 5.469,0 l 15.058,12.304 c 2.735,4.114 2.735,4.114 -1.367,6.867 l -23.262,12.286 c -2.746,2.742 -6.843,4.109 -9.589,5.476 v -1.367 c 0,0 1.379,-4.109 2.746,-8.215 z m 32.844,10.925 c -2.746,1.379 -4.113,1.379 -6.848,-1.343 l -19.148,-16.418 c -2.739,-2.743 -2.739,-4.102 -1.379,-6.836 l 6.836,-16.426 c 2.734,-6.836 4.121,-10.945 5.468,-12.324 1.387,-1.368 2.754,-1.368 5.489,1.379 l 4.101,4.109 c 1.368,0 2.735,-2.754 2.735,-4.109 -4.102,-2.747 -6.836,-5.481 -13.672,-10.942 -2.735,-2.762 -6.848,-6.863 -10.957,-10.957 -1.36,0 -2.727,1.367 -2.727,2.738 l 4.106,4.102 c 2.73,2.742 4.097,6.844 1.367,12.312 -1.367,6.856 -5.473,17.801 -12.317,35.579 l -15.039,42.41 c -2.746,5.476 -2.746,8.215 -5.468,9.59 2.722,4.093 2.722,6.836 2.722,9.558 0,1.379 1.368,1.379 2.746,1.379 5.45,-4.101 12.293,-6.844 19.141,-10.937 l 58.84,-31.485 c 12.312,-6.836 15.047,-6.836 20.516,-2.722 l 4.101,2.722 c 1.379,0 2.734,-2.722 2.734,-2.722 -5.468,-4.114 -9.57,-8.223 -15.039,-13.696 -6.836,-4.097 -10.949,-9.558 -13.691,-12.312 -1.367,0 -4.102,1.379 -2.727,2.754 l 2.727,2.734 c 2.742,2.727 2.742,5.469 2.742,6.824 -1.363,1.371 -4.109,2.754 -8.211,4.114 l -19.148,10.925" /><path
         id="path46"
         style="fill:#ed1c24;fill-opacity:1;fill-rule:evenodd;stroke:none"
         d="m 765.977,289.797 c 2.722,-1.352 4.101,-1.352 5.468,-1.352 0,0 1.368,1.352 5.469,8.207 2.734,5.477 5.469,10.946 5.469,16.422 -1.36,5.481 -4.09,12.297 -13.684,16.41 -10.926,6.844 -24.629,5.477 -32.82,-9.574 -5.496,-8.199 -5.496,-9.578 -1.387,-10.945 z m -25.997,0 c -12.312,6.855 -15.046,8.223 -19.16,2.754 l -2.734,-4.106 c -1.367,0 -4.102,1.352 -4.102,2.739 4.102,8.203 9.571,17.781 17.786,31.464 4.109,8.219 9.578,16.422 16.421,20.516 8.188,5.469 16.418,5.469 25.989,0 12.312,-6.836 13.691,-21.894 12.312,-30.09 1.379,-1.363 2.738,-1.363 4.106,-1.363 23.257,1.363 38.308,2.723 51.992,8.199 2.73,1.36 6.844,2.738 9.578,6.836 0,0 1.367,0 1.367,-1.375 0,-1.355 -1.367,-2.723 -2.734,-5.461 -6.836,-12.312 -13.684,-17.781 -32.832,-19.156 -8.211,-1.367 -20.528,-1.367 -28.739,-2.734 -4.101,0 -6.847,-1.368 -9.582,-6.836 -4.089,-5.469 -4.089,-6.836 -1.355,-8.215 l 16.402,-9.571 c 15.063,-8.21 16.426,-9.589 21.899,-1.375 l 2.742,2.735 c 1.379,0 2.734,-1.36 2.734,-2.735 -4.101,-5.492 -6.843,-10.949 -9.597,-16.425 -2.715,-5.469 -6.821,-10.942 -9.563,-17.778 -1.367,0 -2.722,1.371 -4.101,2.739 l 1.379,2.742 c 4.089,9.57 2.722,10.937 -10.958,19.148 l -49.25,27.348" /><path
         id="path48"
         style="fill:#ed1c24;fill-opacity:1;fill-rule:evenodd;stroke:none"
         d="m 558.02,853.508 c 5.464,15.058 5.464,17.769 -4.114,20.523 l -2.734,1.352 c -1.367,1.387 0,4.121 1.367,4.121 6.824,-2.734 12.316,-4.121 19.149,-5.473 5.48,-2.754 10.941,-4.109 19.152,-5.465 0,-1.378 0,-4.121 -1.36,-4.121 l -4.109,1.375 c -8.203,1.368 -9.57,-1.375 -13.683,-16.425 l -15.047,-51.993 c -4.102,-15.047 -4.102,-16.406 4.113,-20.515 l 4.101,-1.367 c 0,-1.36 0,-4.106 -1.371,-4.106 -8.203,2.746 -13.679,4.106 -19.148,6.84 -6.836,1.363 -12.316,2.742 -19.16,4.101 -1.367,1.375 -1.367,4.11 0,4.11 h 4.101 c 9.578,-2.735 10.95,0 15.059,15.058 l 13.684,51.985" /><path
         id="path50"
         style="fill:#ed1c24;fill-opacity:1;fill-rule:evenodd;stroke:none"
         d="m 820.715,490.938 c 24.605,2.734 50.613,15.039 47.871,41.035 -1.367,13.691 -13.684,31.472 -46.516,27.382 -23.261,-2.742 -50.625,-15.058 -47.89,-42.429 2.734,-15.051 17.793,-30.102 46.535,-25.988 m 6.824,-13.68 c -24.629,-2.735 -45.156,9.566 -54.726,27.371 l -1.368,-1.387 c -6.836,-6.828 -17.785,-21.883 -20.527,-32.832 -1.367,-5.469 -1.367,-9.57 0,-12.305 0,-1.375 0,-5.468 1.379,-6.855 0,0 -1.379,-1.367 -2.746,0 -2.735,2.742 -4.102,9.59 -5.481,13.691 0,6.836 0,15.039 4.121,23.254 4.106,10.957 12.305,21.895 16.418,27.364 4.09,4.109 4.09,5.476 5.469,9.578 0,2.734 0,8.215 1.367,13.691 5.469,19.141 21.883,31.465 43.782,34.199 30.093,2.735 54.722,-15.058 58.843,-42.414 2.727,-31.461 -20.535,-50.633 -46.531,-53.355" /><path
         id="path52"
         style="fill:#ed1c24;fill-opacity:1;fill-rule:evenodd;stroke:none"
         d="m 370.559,127.004 c 12.324,21.883 16.433,50.605 -6.821,62.93 -12.32,6.851 -32.832,6.851 -49.265,-23.254 -10.95,-19.16 -16.407,-49.258 6.843,-61.571 15.051,-8.2067 34.211,-4.101 49.243,21.895 m 13.687,-2.727 C 373.313,102.371 351.418,92.793 330.906,96.9023 v -2.7421 c 2.727,-9.5821 8.203,-27.3633 15.051,-35.5547 4.094,-4.1211 8.191,-6.8594 10.93,-8.2344 1.375,-1.3555 4.109,-1.3555 5.476,-2.7148 1.375,0 0,-1.379 0,-1.379 -5.476,0 -10.945,1.379 -15.05,4.0938 -5.465,2.7656 -12.313,8.2344 -16.407,15.0586 -6.843,10.9492 -10.957,23.2695 -12.32,30.0976 -1.367,5.4807 -2.734,6.8437 -5.481,9.5817 -2.734,1.368 -6.843,5.477 -9.582,9.571 -12.312,15.047 -13.679,35.574 -2.722,54.734 13.672,25.988 43.769,36.934 68.398,23.262 27.371,-15.067 28.731,-45.156 15.047,-68.399" /><path
         id="path54"
         style="fill:#ed1c24;fill-opacity:1;fill-rule:evenodd;stroke:none"
         d="M 536.121,536.086 V 672.902 H 399.297 V 536.086 H 261.113 V 397.891 H 399.297 V 261.074 H 536.121 V 397.891 H 674.316 V 536.086 H 536.121" /><path
         id="path56"
         style="fill:none;stroke:#ed1c24;stroke-width:17.20999908;stroke-linecap:butt;stroke-linejoin:miter;stroke-miterlimit:2.61299992;stroke-dasharray:none;stroke-opacity:1"
         d="m 737.234,467.664 c 0,-149.109 -120.398,-269.519 -269.519,-269.519 -147.766,0 -268.164,120.41 -268.164,269.519 0,147.777 120.398,268.176 268.164,268.176 149.121,0 269.519,-120.399 269.519,-268.176" /></g></g></svg>