<?xml version="1.0" encoding="UTF-8" standalone="no"?>
<svg
   xmlns:dc="http://purl.org/dc/elements/1.1/"
   xmlns:cc="http://creativecommons.org/ns#"
   xmlns:rdf="http://www.w3.org/1999/02/22-rdf-syntax-ns#"
   xmlns:svg="http://www.w3.org/2000/svg"
   xmlns="http://www.w3.org/2000/svg"
   viewBox="0 0 366.61334 339.94666"
   height="339.94666"
   width="366.61334"
   xml:space="preserve"
   id="svg2"
   version="1.1"><metadata
     id="metadata8"><rdf:RDF><cc:Work
         rdf:about=""><dc:format>image/svg+xml</dc:format><dc:type
           rdf:resource="http://purl.org/dc/dcmitype/StillImage" /><dc:title></dc:title></cc:Work></rdf:RDF></metadata><defs
     id="defs6" /><g
     transform="matrix(1.3333333,0,0,-1.3333333,0,339.94667)"
     id="g10"><g
       transform="scale(0.1)"
       id="g12"><path
         id="path14"
         style="fill:none;stroke:#ec2629;stroke-width:9.62812042;stroke-linecap:butt;stroke-linejoin:miter;stroke-miterlimit:4;stroke-dasharray:none;stroke-opacity:1"
         d="m 2744.81,1274.82 c 0,701.4 -613.36,1270 -1370,1270 C 618.184,2544.82 4.8125,1976.22 4.8125,1274.82 4.8125,573.41 618.184,4.82031 1374.81,4.82031 c 756.64,0 1370,568.58969 1370,1269.99969 z" /><path
         id="path16"
         style="fill:#ec2629;fill-opacity:1;fill-rule:nonzero;stroke:none"
         d="m 272.875,1282.67 1.27,-30.47 c 0.757,-18.23 5.433,-34.3 28.164,-33.36 22.73,0.95 26.05,17.35 25.289,35.59 l -1.266,30.47 z m 82.297,42.72 3.348,-80.44 c 1.855,-44.46 -25.653,-62.87 -54.629,-64.08 -28.981,-1.2 -57.918,14.85 -59.77,59.32 l -1.715,41.21 -63.945,-2.66 -1.637,39.22 178.348,7.43" /><path
         id="path18"
         style="fill:#ec2629;fill-opacity:1;fill-rule:nonzero;stroke:none"
         d="m 263.965,1088.01 c -6.305,4.9 -8.922,17.11 -12.985,27.54 -4.296,10.37 -9.882,19.47 -22.64,17 -13.012,-2.52 -14.254,-13.2 -12.063,-24.49 5.282,-27.25 27.067,-24.05 34.68,-22.56 z m 10.16,85.5 c 33.027,4.36 48.504,-22.94 54.027,-51.41 4.895,-25.27 5.153,-56.81 -25.285,-62.69 l -66.015,-12.81 c -11.539,-2.23 -22.832,-5.7 -27.364,-9.89 l -6.855,35.33 c 3.683,2 7.672,3.79 11.793,4.85 -13.68,8.8 -20.988,24.2 -23.988,39.65 -4.661,24.06 3.656,45.52 29.667,50.57 28.711,5.58 39.778,-14.7 46.911,-35.72 7.332,-20.73 10.449,-40.76 24.679,-38 14.969,2.91 15.184,13.64 12.809,25.92 -2.574,13.24 -9.641,20.78 -23.621,19.35 l -6.758,34.85" /><path
         id="path20"
         style="fill:#ec2629;fill-opacity:1;fill-rule:nonzero;stroke:none"
         d="m 388.379,1065.06 10.172,-34.01 -171.028,-51.128 -10.164,34.018 171.02,51.12" /><path
         id="path22"
         style="fill:#ec2629;fill-opacity:1;fill-rule:nonzero;stroke:none"
         d="m 340.602,901.898 c 15.433,9.813 21.3,20.582 14.773,36.551 -8.504,20.84 -27.16,20.231 -36.605,16.91 z m -42.668,44.961 c -20.45,-9.437 -25.782,-23.488 -18.309,-41.781 5.387,-13.187 17.84,-20.527 26.094,-19.59 l 11.816,-28.937 c -32.015,-2.262 -52.09,12.488 -63.148,39.57 -15.41,37.731 0.965,71.68 37.996,86.809 35.875,14.66 73.297,1.039 88.137,-35.289 16.636,-40.731 -9.579,-74.403 -47.321,-87.121 l -35.265,86.339" /><path
         id="path24"
         style="fill:#ec2629;fill-opacity:1;fill-rule:nonzero;stroke:none"
         d="m 341.262,817.43 c -13.375,-7.84 -12.418,-22.219 -5.539,-34.418 5.039,-8.934 14.922,-18.274 25.8,-12.133 9.36,5.281 5.372,19.973 -2.382,44.883 -6.161,20.058 -9.93,41.476 9.879,52.668 28.734,16.23 50.152,-4.41 63.796,-28.578 13.899,-24.602 18.411,-51.903 -7.882,-69.911 l -16.606,29.387 c 11.492,7.621 9.586,18.613 3.317,29.711 -3.934,6.981 -11.016,16.473 -20.161,11.301 -11.097,-6.27 -2.789,-24.551 3.036,-44.512 6.066,-20.398 9.5,-41.726 -11.407,-53.527 -29.601,-16.723 -53.683,3.558 -68.191,29.238 -14.762,26.133 -19.34,57.121 9.742,75.281 l 16.598,-29.39" /><path
         id="path26"
         style="fill:#ec2629;fill-opacity:1;fill-rule:nonzero;stroke:none"
         d="m 490.883,742.699 14.941,-21.258 -19.433,-13.671 -14.942,21.269 -52.371,-36.777 c -9.816,-6.91 -10.547,-11.082 -3.648,-20.903 2.16,-3.078 4.371,-5.781 7.144,-8.429 l -22.707,-15.95 c -4.265,4.34 -8.929,10.532 -12.953,16.258 -12.5,17.793 -19.34,36.223 1.734,51.024 l 62.391,43.84 -12.355,17.589 19.429,13.661 12.356,-17.602 31.711,22.281 20.414,-29.051 -31.711,-22.281" /><path
         id="path28"
         style="fill:#ec2629;fill-opacity:1;fill-rule:nonzero;stroke:none"
         d="m 550.035,699.168 -22.285,27.641 22.77,18.363 22.277,-27.633 z m -37.851,15.082 22.289,-27.629 -100.606,-81.141 -22.289,27.629 100.606,81.141" /><path
         id="path30"
         style="fill:#ec2629;fill-opacity:1;fill-rule:nonzero;stroke:none"
         d="m 543.785,673.172 23.481,-24.231 -12.926,-12.531 0.519,-0.539 c 16.668,3.617 32.489,-2.652 42.918,-13.422 26.266,-27.121 17.61,-48.719 -5.379,-70.988 l -57.109,-55.301 -24.687,25.5 52.429,50.781 c 15.27,14.789 18.461,26.579 6.985,38.438 -13.391,13.82 -26.856,12.281 -45.707,-5.988 l -48.668,-47.129 -24.703,25.488 92.847,89.922" /><path
         id="path32"
         style="fill:#ec2629;fill-opacity:1;fill-rule:nonzero;stroke:none"
         d="m 672.457,484.371 c 8.781,16.039 8.727,28.301 -4.691,39.141 -17.496,14.148 -33.563,4.609 -40.227,-2.852 z m -59.062,18.801 c -13.372,-18.152 -11.25,-33.031 4.109,-45.442 11.086,-8.96 25.527,-9.378 32.305,-4.558 l 24.308,-19.66 c -26.953,-17.422 -51.644,-14.184 -74.394,4.207 -31.7,25.601 -33.743,63.261 -8.606,94.359 24.363,30.152 63.711,36.281 94.238,11.602 34.223,-27.649 27.497,-69.789 0.575,-99.129 l -72.535,58.621" /><path
         id="path34"
         style="fill:#ec2629;fill-opacity:1;fill-rule:nonzero;stroke:none"
         d="m 809.934,415.77 37.918,-20.282 c 15.429,-8.25 27.343,-6.109 35.832,9.75 8.132,15.223 3.293,26.313 -12.137,34.571 l -37.918,20.281 z m 3.464,89.718 84.879,-45.386 c 28.215,-15.102 35.575,-44.274 22.844,-68.082 -9.906,-18.508 -24.82,-28.399 -46.008,-26.129 l -0.246,-0.442 c 14.621,-13.5 10.625,-32.617 3.242,-49.09 -4.64,-10.269 -14.765,-28.66 -13.308,-40.781 l -34.61,18.512 c 1.114,12.148 9.688,27.129 14.649,40.648 6.414,17.832 3.906,28.512 -13.5,37.832 l -34.61,18.52 -32.902,-61.512 -34.613,18.512 84.183,157.398" /><path
         id="path36"
         style="fill:#ec2629;fill-opacity:1;fill-rule:nonzero;stroke:none"
         d="m 995.598,309.969 c 3.332,17.98 -0.547,29.601 -16.676,35.722 -21.039,7.969 -33.32,-6.089 -37.328,-15.261 z m -61.981,-0.59 c -7.031,-21.391 -0.379,-34.891 18.086,-41.879 13.336,-5.051 27.188,-0.93 32.125,5.75 l 29.222,-11.07 c -20.155,-24.981 -44.632,-29.602 -71.987,-19.239 -38.11,14.43 -51.801,49.559 -37.629,86.969 13.722,36.231 49.195,54.352 85.89,40.442 41.156,-15.582 47.926,-57.711 31.496,-94 l -87.203,33.027" /><path
         id="path38"
         style="fill:#ec2629;fill-opacity:1;fill-rule:nonzero;stroke:none"
         d="m 1106.46,305.629 c -22.55,5.652 -35.18,-11.789 -40.36,-32.399 -4.93,-19.64 -1.13,-42.511 20.2,-47.859 22.8,-5.73 34.58,12.449 39.75,33.07 5.12,20.36 2.71,41.59 -19.59,47.188 z m 8.27,-94.348 -0.49,0.117 c -11.41,-11.558 -26.94,-13.859 -42.93,-9.839 -37.83,9.5 -48.1,46.613 -39.4,81.281 8.46,33.711 34.99,60.308 71.85,51.051 14.78,-3.711 27.75,-13.661 32.41,-27.993 l 0.49,-0.128 15.82,63.05 34.43,-8.64 -43.47,-173.121 -32.73,8.211 4.02,16.011" /><path
         id="path40"
         style="fill:#ec2629;fill-opacity:1;fill-rule:nonzero;stroke:none"
         d="m 1368.71,281.289 c -1.38,17.871 -17.49,32.41 -36.95,33.641 -35.18,2.23 -50.3,-26.871 -52.28,-58.051 -1.87,-29.688 9.45,-60.469 44.63,-62.707 23.95,-1.5 38.47,14.098 42.95,37.367 l 37.93,-2.41 c -6.81,-44.16 -39.3,-70.641 -82.96,-67.891 -55.15,3.492 -84.97,46.711 -81.72,98.121 3.35,52.891 38.4,92 93.54,88.512 39.16,-2.48 70.64,-27.519 72.78,-68.992 l -37.92,2.41" /><path
         id="path42"
         style="fill:#ec2629;fill-opacity:1;fill-rule:nonzero;stroke:none"
         d="m 1417.67,292.051 33.71,1.558 1.12,-23.968 0.49,0.019 c 5.74,16.539 22.69,28.578 39.93,29.379 2.5,0.121 5.51,-0.238 7.79,-0.879 l 1.54,-32.961 c -3.29,0.602 -8.55,0.86 -12.8,0.653 -25.97,-1.211 -34.09,-20.352 -33.04,-43.082 l 2.7,-58.18 -35.46,-1.649 -5.98,129.11" /><path
         id="path44"
         style="fill:#ec2629;fill-opacity:1;fill-rule:nonzero;stroke:none"
         d="m 1591.67,256.891 c -5.68,17.379 -14.67,25.73 -31.76,23.359 -22.28,-3.078 -26.33,-21.309 -25.45,-31.281 z m -54.12,-30.211 c 4.08,-22.16 16.39,-30.789 35.95,-28.078 14.11,1.949 24.3,12.199 25.44,20.418 l 30.94,4.289 c -5.71,-31.579 -24.98,-47.368 -53.95,-51.387 -40.37,-5.582 -69.22,18.687 -74.7,58.308 -5.33,38.379 17.12,71.27 56.01,76.661 43.57,6.031 69.7,-27.7 72.68,-67.43 l -92.37,-12.781" /><path
         id="path46"
         style="fill:#ec2629;fill-opacity:1;fill-rule:nonzero;stroke:none"
         d="m 1674.68,236.121 c 4.05,-14.961 18.2,-17.82 31.76,-14.371 9.94,2.531 21.56,9.609 18.47,21.719 -2.63,10.422 -17.87,10.422 -43.92,9.48 -20.98,-0.687 -42.64,1.289 -48.25,23.332 -8.12,31.989 17.41,47.25 44.3,54.071 27.38,6.968 54.92,4.16 65.41,-25.93 l -32.71,-8.332 c -4.36,13.101 -15.45,14.14 -27.82,11 -7.75,-1.961 -18.77,-6.32 -16.19,-16.481 3.15,-12.371 22.96,-9.129 43.75,-8.75 21.29,0.512 42.76,-1.789 48.66,-25.039 8.37,-32.949 -17.51,-50.871 -46.1,-58.14 -29.06,-7.399 -60.18,-3.692 -70.08,29.14 l 32.72,8.301" /><path
         id="path48"
         style="fill:#ec2629;fill-opacity:1;fill-rule:nonzero;stroke:none"
         d="m 1840.93,332.371 c -7.24,12.777 -18.64,16.75 -32.42,11.539 -21.29,-8.051 -20.18,-32.219 -13.46,-49.988 6.54,-17.301 21.19,-35.563 42.01,-27.684 15.43,5.832 20.61,19.012 17.14,34.543 l 32.04,12.098 c 7.89,-33.617 -7.69,-59.559 -39.49,-71.578 -36.49,-13.789 -70.76,2.648 -84.46,38.91 -14.23,37.629 -2.31,73.949 36.98,88.809 28.53,10.781 60.39,5.71 74.15,-24.348 l -32.49,-12.301" /><path
         id="path50"
         style="fill:#ec2629;fill-opacity:1;fill-rule:nonzero;stroke:none"
         d="m 1962.92,384.969 c -11.19,14.472 -22.46,19.32 -37.75,11.351 -19.96,-10.39 -17.66,-28.91 -13.48,-38.019 z m -40.84,-46.617 c 11.27,-19.5 25.76,-23.512 43.28,-14.391 12.64,6.578 18.81,19.641 17.11,27.777 l 27.72,14.434 c 5.21,-31.672 -7.64,-53.012 -33.58,-66.524 -36.15,-18.808 -71.48,-5.628 -89.94,29.852 -17.89,34.371 -7.79,72.891 27.03,91.02 39.02,20.308 74.96,-2.711 91.09,-39.122 l -82.71,-43.046" /><path
         id="path52"
         style="fill:#ec2629;fill-opacity:1;fill-rule:nonzero;stroke:none"
         d="m 1975.44,449.27 27.79,19.14 10.21,-14.82 0.61,0.422 c -0.81,17.047 7.99,31.609 20.33,40.109 31.1,21.41 50.98,9.301 69.13,-17.051 l 45.09,-65.48 -29.23,-20.129 -41.41,60.109 c -12.05,17.512 -23.16,22.621 -36.75,13.258 -15.85,-10.918 -16.55,-24.457 -1.66,-46.078 l 38.43,-55.789 -29.24,-20.129 -73.3,106.438" /><path
         id="path54"
         style="fill:#ec2629;fill-opacity:1;fill-rule:nonzero;stroke:none"
         d="m 2119.46,556.699 19.81,16.852 15.39,-18.09 -19.81,-16.859 41.49,-48.731 c 7.77,-9.141 11.99,-9.48 21.13,-1.699 2.87,2.43 5.37,4.887 7.74,7.887 l 17.98,-21.137 c -3.92,-4.652 -9.66,-9.871 -15,-14.391 -16.55,-14.101 -34.27,-22.609 -50.95,-3 l -49.42,58.078 -16.37,-13.941 -15.39,18.094 16.37,13.929 -25.12,29.5 27.04,23.008 25.11,-29.5" /><path
         id="path56"
         style="fill:#ec2629;fill-opacity:1;fill-rule:nonzero;stroke:none"
         d="m 2259.59,596.48 c 18.29,-15.16 37.22,-6.8 50.62,9.379 8.75,10.602 19.06,29.332 5,40.961 -14.83,12.27 -34.38,-6.261 -56.52,-22.019 -22.28,-15.961 -47.23,-30.02 -73.06,-8.68 -28.11,23.289 -19.59,61.02 0.96,85.859 23.77,28.692 58.13,44.719 89.9,18.418 l -24.23,-29.269 c -17.37,12.75 -31.33,4.5 -43.29,-9.938 -7.96,-9.64 -13.16,-24.152 -1.61,-33.722 10.6,-8.77 17.37,-3.328 54.76,23.812 10.8,7.938 42.66,33.508 73.86,7.68 25.22,-20.883 27.68,-56.34 -3.25,-93.711 -25.18,-30.422 -63.79,-46.488 -97.37,-18.051 l 24.23,29.281" /><path
         id="path58"
         style="fill:#ec2629;fill-opacity:1;fill-rule:nonzero;stroke:none"
         d="m 2400.17,727.441 c 12.57,20.731 -1.41,37.688 -18.95,48.309 -17.75,10.762 -39.24,15.32 -51.82,-5.422 -12.44,-20.527 1.56,-37.476 19.3,-48.226 17.54,-10.622 39.03,-15.18 51.47,5.339 z m -93.64,56.758 c 21.12,34.84 57.82,43.301 93.09,21.922 35.08,-21.262 44.55,-57.699 23.44,-92.543 -21,-34.637 -57.7,-43.09 -92.76,-21.84 -35.27,21.383 -44.76,57.821 -23.77,92.461" /><path
         id="path60"
         style="fill:#ec2629;fill-opacity:1;fill-rule:nonzero;stroke:none"
         d="m 2422.33,907.34 c -14.2,3.621 -24.96,-1.852 -30.76,-15.418 -8.92,-20.922 9.3,-36.844 26.76,-44.301 17.02,-7.262 40.33,-9.332 49.06,11.141 6.47,15.168 0.55,28.027 -13.06,36.269 l 13.45,31.508 c 29.73,-17.578 37.66,-46.777 24.31,-78.051 -15.3,-35.867 -50.9,-49.218 -86.54,-34.019 -37.02,15.801 -54.95,49.551 -38.48,88.191 11.98,28.051 37.69,47.52 68.92,36.641 l -13.66,-31.961" /><path
         id="path62"
         style="fill:#ec2629;fill-opacity:1;fill-rule:nonzero;stroke:none"
         d="m 2395.01,966.238 10.59,33.892 123.36,-38.552 -10.59,-33.879 z m -8.51,39.862 -10.59,-33.881 -27.93,8.711 10.6,33.89 27.92,-8.72" /><path
         id="path64"
         style="fill:#ec2629;fill-opacity:1;fill-rule:nonzero;stroke:none"
         d="m 2478.53,1089.27 c -18.3,0.43 -29.15,-5.26 -32.62,-22.14 -4.53,-22.05 11.31,-31.93 20.99,-34.42 z m 10.43,-61.09 c 22.24,-3.54 34.49,5.17 38.45,24.53 2.87,13.95 -3.39,26.97 -10.78,30.79 l 6.28,30.61 c 27.86,-15.94 36.35,-39.35 30.48,-68.01 -8.2,-39.92 -40.7,-59.03 -79.88,-50.979 -37.97,7.779 -61.49,39.909 -53.61,78.359 8.85,43.1 49.37,56.48 87.8,46.04 l -18.74,-91.34" /><path
         id="path66"
         style="fill:#ec2629;fill-opacity:1;fill-rule:nonzero;stroke:none"
         d="m 2439.2,1186.06 2.37,25.89 23.65,-2.17 -2.38,-25.88 63.73,-5.86 c 11.96,-1.1 15.23,1.61 16.31,13.56 0.35,3.74 0.41,7.24 0.01,11.05 l 27.65,-2.54 c 0.45,-6.07 -0.02,-13.81 -0.67,-20.78 -1.98,-21.65 -8.69,-40.12 -34.33,-37.77 l -75.94,6.98 -1.97,-21.41 -23.64,2.17 1.96,21.41 -38.58,3.54 3.24,35.36 38.59,-3.55" /><path
         id="path68"
         style="fill:#ec2629;fill-opacity:1;fill-rule:nonzero;stroke:none"
         d="m 2586.93,1281.09 c 20.86,-7.49 29.53,-19.62 29.84,-44.13 0.1,-7.24 -0.3,-14.5 -0.94,-21.75 l -29.27,-0.39 c 0.4,6.75 1.32,13.77 0.98,20.76 -1.42,12.23 -14.22,16.06 -24.41,11.92 l -120.64,-47.1 -0.51,38 88.11,30.42 v 0.5 l -88.87,27.06 -0.49,36.75 146.2,-52.04" /><path
         id="path70"
         style="fill:#ec2629;fill-opacity:1;fill-rule:nonzero;stroke:none"
         d="m 1572.51,689.109 c -342.98,0 -621.026,257.75 -621.026,575.701 0,317.95 278.046,575.69 621.026,575.69 143.88,0 276.21,-45.47 381.5,-121.61 -139.18,152.4 -346.93,249.25 -579.2,249.25 -419.017,0 -758.705,-314.89 -758.705,-703.33 0,-388.439 339.688,-703.33 758.705,-703.33 232.26,0 440.02,96.84 579.19,249.231 C 1848.72,734.59 1716.39,689.109 1572.51,689.109" /></g></g></svg>