<?xml version="1.0" encoding="UTF-8" standalone="no"?>
<svg
   xmlns:dc="http://purl.org/dc/elements/1.1/"
   xmlns:cc="http://creativecommons.org/ns#"
   xmlns:rdf="http://www.w3.org/1999/02/22-rdf-syntax-ns#"
   xmlns:svg="http://www.w3.org/2000/svg"
   xmlns="http://www.w3.org/2000/svg"
   viewBox="0 0 371.67999 371.67999"
   height="371.67999"
   width="371.67999"
   xml:space="preserve"
   id="svg2"
   version="1.1"><metadata
     id="metadata8"><rdf:RDF><cc:Work
         rdf:about=""><dc:format>image/svg+xml</dc:format><dc:type
           rdf:resource="http://purl.org/dc/dcmitype/StillImage" /><dc:title></dc:title></cc:Work></rdf:RDF></metadata><defs
     id="defs6" /><g
     transform="matrix(1.3333333,0,0,-1.3333333,0,371.68)"
     id="g10"><g
       transform="scale(0.1)"
       id="g12"><path
         id="path14"
         style="fill:none;stroke:#ee2628;stroke-width:9.62800026;stroke-linecap:butt;stroke-linejoin:miter;stroke-miterlimit:4;stroke-dasharray:none;stroke-opacity:1"
         d="m 2782.76,1393.79 c 0,767.12 -621.86,1388.98 -1388.97,1388.98 C 626.68,2782.77 4.8125,2160.91 4.8125,1393.79 4.8125,626.672 626.68,4.80859 1393.79,4.80859 2160.9,4.80859 2782.76,626.672 2782.76,1393.79 Z" /><path
         id="path16"
         style="fill:#ee2628;fill-opacity:1;fill-rule:nonzero;stroke:none"
         d="m 291.852,1382.27 1.269,-32.92 c 0.758,-19.7 5.434,-37.07 28.164,-36.05 22.731,1.02 26.051,18.75 25.285,38.46 l -1.261,32.92 z m 82.293,46.17 3.351,-86.92 c 1.856,-48.06 -25.656,-67.95 -54.629,-69.26 -28.98,-1.3 -57.922,16.06 -59.769,64.1 l -1.715,44.55 -63.945,-2.88 -1.637,42.39 178.344,8.02" /><path
         id="path18"
         style="fill:#ee2628;fill-opacity:1;fill-rule:nonzero;stroke:none"
         d="m 282.938,1171.91 c -6.301,5.29 -8.918,18.49 -12.981,29.76 -4.297,11.21 -9.883,21.04 -22.644,18.38 -13.012,-2.73 -14.25,-14.27 -12.059,-26.48 5.277,-29.44 27.066,-25.98 34.68,-24.37 z m 10.164,92.39 c 33.027,4.72 48.5,-24.78 54.027,-55.55 4.891,-27.32 5.152,-61.39 -25.289,-67.76 l -66.016,-13.83 c -11.539,-2.42 -22.832,-6.17 -27.363,-10.69 l -6.856,38.19 c 3.688,2.15 7.672,4.09 11.793,5.23 -13.675,9.51 -20.988,26.15 -23.984,42.85 -4.664,26 3.652,49.2 29.668,54.65 28.711,6.02 39.773,-15.88 46.91,-38.6 7.328,-22.41 10.449,-44.06 24.676,-41.07 14.973,3.15 15.187,14.75 12.809,28.01 -2.575,14.32 -9.637,22.46 -23.618,20.92 l -6.757,37.65" /><path
         id="path20"
         style="fill:#ee2628;fill-opacity:1;fill-rule:nonzero;stroke:none"
         d="m 407.355,1147.11 10.168,-36.76 -171.023,-55.26 -10.168,36.76 171.023,55.26" /><path
         id="path22"
         style="fill:#ee2628;fill-opacity:1;fill-rule:nonzero;stroke:none"
         d="m 359.574,970.77 c 15.438,10.601 21.305,22.242 14.778,39.5 -8.508,22.53 -27.164,21.88 -36.61,18.28 z m -42.664,48.59 c -20.449,-10.19 -25.781,-25.38 -18.312,-45.141 5.386,-14.258 17.843,-22.188 26.093,-21.18 l 11.817,-31.269 c -32.016,-2.45 -52.09,13.5 -63.149,42.769 -15.41,40.761 0.965,77.461 37.996,93.811 35.875,15.84 73.297,1.12 88.137,-38.15 16.641,-44.009 -9.574,-80.399 -47.32,-94.149 l -35.262,93.309" /><path
         id="path24"
         style="fill:#ee2628;fill-opacity:1;fill-rule:nonzero;stroke:none"
         d="m 360.234,879.488 c -13.375,-8.476 -12.418,-24.008 -5.539,-37.199 5.039,-9.648 14.922,-19.738 25.801,-13.109 9.363,5.711 5.371,21.59 -2.383,48.5 -6.16,21.679 -9.929,44.832 9.879,56.929 28.738,17.539 50.153,-4.769 63.801,-30.879 13.895,-26.589 18.406,-56.101 -7.887,-75.558 l -16.601,31.758 c 11.488,8.242 9.586,20.109 3.316,32.109 -3.937,7.543 -11.016,17.793 -20.16,12.211 -11.102,-6.77 -2.789,-26.531 3.035,-48.102 6.067,-22.046 9.496,-45.097 -11.406,-57.859 -29.606,-18.07 -53.688,3.859 -68.195,31.609 -14.758,28.231 -19.34,61.731 9.742,81.352 l 16.597,-31.762" /><path
         id="path26"
         style="fill:#ee2628;fill-opacity:1;fill-rule:nonzero;stroke:none"
         d="m 509.859,798.73 14.942,-22.98 -19.434,-14.77 -14.941,22.989 -52.375,-39.75 c -9.813,-7.469 -10.547,-11.977 -3.649,-22.59 2.161,-3.328 4.371,-6.25 7.145,-9.109 l -22.703,-17.239 c -4.27,4.688 -8.934,11.379 -12.953,17.578 -12.5,19.223 -19.344,39.141 1.73,55.129 l 62.395,47.383 -12.36,19.008 19.434,14.762 12.351,-19.02 31.711,24.09 20.414,-31.402 -31.707,-24.079" /><path
         id="path28"
         style="fill:#ee2628;fill-opacity:1;fill-rule:nonzero;stroke:none"
         d="m 569.008,751.691 -22.285,29.86 22.769,19.84 22.281,-29.852 z m -37.852,16.289 22.289,-29.859 -100.601,-87.691 -22.293,29.859 100.605,87.691" /><path
         id="path30"
         style="fill:#ee2628;fill-opacity:1;fill-rule:nonzero;stroke:none"
         d="m 562.758,723.59 23.48,-26.192 -12.922,-13.546 0.516,-0.571 c 16.672,3.91 32.492,-2.859 42.922,-14.5 26.266,-29.312 17.605,-52.66 -5.383,-76.73 l -57.109,-59.762 -24.688,27.563 52.434,54.867 c 15.265,15.992 18.461,28.73 6.98,41.551 -13.386,14.929 -26.855,13.269 -45.707,-6.469 l -48.668,-50.942 -24.703,27.551 92.848,97.18" /><path
         id="path32"
         style="fill:#ee2628;fill-opacity:1;fill-rule:nonzero;stroke:none"
         d="m 691.43,519.539 c 8.785,17.34 8.726,30.582 -4.692,42.301 -17.496,15.301 -33.558,4.98 -40.222,-3.078 z m -59.063,20.32 C 619,520.25 621.117,504.172 636.48,490.75 c 11.083,-9.68 25.528,-10.129 32.305,-4.918 l 24.305,-21.25 c -26.953,-18.832 -51.645,-15.332 -74.395,4.547 -31.699,27.66 -33.738,68.371 -8.601,101.98 24.359,32.582 63.711,39.211 94.238,12.539 34.223,-29.886 27.492,-75.429 0.57,-107.136 l -72.535,63.347" /><path
         id="path34"
         style="fill:#ee2628;fill-opacity:1;fill-rule:nonzero;stroke:none"
         d="m 828.906,445.422 37.918,-21.93 c 15.434,-8.91 27.348,-6.613 35.832,10.528 8.137,16.46 3.297,28.449 -12.133,37.359 l -37.921,21.93 z m 3.465,96.949 84.879,-49.051 C 945.469,477 952.828,445.48 940.098,419.742 930.191,399.73 915.273,389.059 894.086,391.5 l -0.242,-0.469 c 14.617,-14.59 10.625,-35.25 3.242,-53.051 C 892.441,326.871 882.32,307 883.773,293.898 l -34.609,20.012 c 1.113,13.129 9.688,29.32 14.649,43.93 6.417,19.269 3.906,30.808 -13.5,40.879 l -34.61,20.011 -32.898,-66.468 -34.617,20 84.183,170.109" /><path
         id="path36"
         style="fill:#ee2628;fill-opacity:1;fill-rule:nonzero;stroke:none"
         d="m 1014.57,331.07 c 3.34,19.43 -0.55,31.989 -16.675,38.602 -21.04,8.617 -33.321,-6.582 -37.329,-16.492 z m -61.976,-0.64 c -7.031,-23.121 -0.383,-37.7 18.086,-45.258 13.336,-5.461 27.187,-1 32.12,6.219 l 29.22,-11.969 c -20.15,-26.992 -44.625,-31.992 -71.981,-20.793 -38.109,15.601 -51.801,53.562 -37.633,93.992 13.727,39.149 49.196,58.731 85.894,43.711 41.15,-16.852 47.92,-62.383 31.49,-101.602 l -87.196,35.7" /><path
         id="path38"
         style="fill:#ee2628;fill-opacity:1;fill-rule:nonzero;stroke:none"
         d="m 1125.43,326.371 c -22.55,6.117 -35.18,-12.73 -40.35,-35.012 -4.94,-21.23 -1.13,-45.929 20.2,-51.711 22.79,-6.199 34.57,13.454 39.75,35.731 5.11,22 2.71,44.953 -19.6,50.992 z m 8.27,-101.961 -0.48,0.129 c -11.42,-12.488 -26.94,-14.969 -42.94,-10.629 -37.83,10.27 -48.1,50.371 -39.4,87.84 8.47,36.43 35,65.172 71.85,55.172 14.79,-4.012 27.75,-14.762 32.41,-30.25 l 0.49,-0.141 15.83,68.129 34.42,-9.328 -43.46,-187.09 -32.74,8.879 4.02,17.289" /><path
         id="path40"
         style="fill:#ee2628;fill-opacity:1;fill-rule:nonzero;stroke:none"
         d="m 1387.68,300.082 c -1.38,19.309 -17.48,35.02 -36.95,36.348 -35.18,2.41 -50.3,-29.039 -52.27,-62.739 -1.88,-32.082 9.45,-65.351 44.63,-67.769 23.95,-1.621 38.46,15.25 42.95,40.398 l 37.92,-2.609 c -6.81,-47.731 -39.29,-76.352 -82.96,-73.371 -55.14,3.769 -84.97,50.48 -81.71,106.031 3.35,57.16 38.39,99.43 93.53,95.66 39.17,-2.679 70.65,-29.742 72.79,-74.562 l -37.93,2.613" /><path
         id="path42"
         style="fill:#ee2628;fill-opacity:1;fill-rule:nonzero;stroke:none"
         d="m 1436.64,311.711 33.71,1.687 1.12,-25.91 0.49,0.024 c 5.74,17.879 22.7,30.886 39.94,31.75 2.49,0.129 5.51,-0.262 7.79,-0.961 l 1.53,-35.621 c -3.28,0.66 -8.54,0.929 -12.8,0.711 -25.96,-1.309 -34.08,-22 -33.03,-46.559 l 2.7,-62.871 -35.47,-1.789 -5.98,139.539" /><path
         id="path44"
         style="fill:#ee2628;fill-opacity:1;fill-rule:nonzero;stroke:none"
         d="m 1610.64,273.699 c -5.68,18.789 -14.66,27.813 -31.75,25.25 -22.29,-3.328 -26.33,-23.039 -25.45,-33.808 z m -54.12,-32.64 c 4.09,-23.938 16.39,-33.278 35.95,-30.34 14.11,2.101 24.31,13.172 25.44,22.062 l 30.95,4.641 c -5.72,-34.133 -24.98,-51.203 -53.96,-55.543 -40.37,-6.027 -69.22,20.203 -74.7,63.012 -5.32,41.48 17.12,77.031 56.01,82.851 43.58,6.508 69.71,-29.933 72.69,-72.871 l -92.38,-13.812" /><path
         id="path46"
         style="fill:#ee2628;fill-opacity:1;fill-rule:nonzero;stroke:none"
         d="m 1693.65,251.27 c 4.06,-16.18 18.21,-19.27 31.76,-15.54 9.94,2.731 21.56,10.379 18.48,23.469 -2.64,11.27 -17.87,11.27 -43.93,10.25 -20.98,-0.75 -42.64,1.391 -48.24,25.211 -8.13,34.578 17.4,51.059 44.3,58.442 27.38,7.519 54.92,4.488 65.41,-28.02 l -32.72,-9.012 c -4.35,14.16 -15.45,15.27 -27.81,11.891 -7.76,-2.121 -18.77,-6.832 -16.19,-17.82 3.14,-13.36 22.96,-9.86 43.75,-9.45 21.29,0.559 42.75,-1.929 48.66,-27.062 8.37,-35.617 -17.51,-54.981 -46.1,-62.828 -29.07,-8 -60.19,-3.992 -70.08,31.488 l 32.71,8.981" /><path
         id="path48"
         style="fill:#ee2628;fill-opacity:1;fill-rule:nonzero;stroke:none"
         d="m 1859.9,355.281 c -7.23,13.809 -18.63,18.11 -32.42,12.469 -21.29,-8.699 -20.18,-34.82 -13.46,-54.031 6.55,-18.688 21.19,-38.418 42.02,-29.899 15.42,6.289 20.6,20.532 17.13,37.321 l 32.04,13.078 c 7.9,-36.34 -7.68,-64.367 -39.49,-77.367 -36.48,-14.891 -70.76,2.859 -84.45,42.046 -14.24,40.684 -2.31,79.934 36.97,95.993 28.54,11.64 60.39,6.16 74.15,-26.321 l -32.49,-13.289" /><path
         id="path50"
         style="fill:#ee2628;fill-opacity:1;fill-rule:nonzero;stroke:none"
         d="m 1981.89,412.129 c -11.19,15.641 -22.46,20.871 -37.75,12.262 -19.96,-11.231 -17.66,-31.243 -13.48,-41.082 z m -40.84,-50.379 c 11.27,-21.09 25.77,-25.418 43.29,-15.559 12.63,7.11 18.8,21.231 17.11,30.02 l 27.71,15.598 c 5.22,-34.227 -7.64,-57.297 -33.57,-71.887 -36.16,-20.332 -71.49,-6.09 -89.95,32.258 -17.89,37.14 -7.79,78.769 27.04,98.359 39.02,21.961 74.96,-2.93 91.09,-42.277 l -82.72,-46.512" /><path
         id="path52"
         style="fill:#ee2628;fill-opacity:1;fill-rule:nonzero;stroke:none"
         d="m 1994.41,481.609 27.8,20.692 10.2,-16.02 0.62,0.469 c -0.81,18.398 7.99,34.148 20.33,43.332 31.09,23.137 50.98,10.047 69.12,-18.422 l 45.1,-70.762 -29.24,-21.757 -41.41,64.961 c -12.05,18.918 -23.15,24.437 -36.74,14.32 -15.85,-11.793 -16.56,-26.422 -1.66,-49.793 l 38.42,-60.289 -29.24,-21.75 -73.3,115.019" /><path
         id="path54"
         style="fill:#ee2628;fill-opacity:1;fill-rule:nonzero;stroke:none"
         d="m 2138.44,597.711 19.8,18.211 15.39,-19.551 -19.8,-18.211 41.48,-52.66 c 7.78,-9.891 11.99,-10.25 21.14,-1.852 2.87,2.633 5.37,5.282 7.73,8.524 l 17.99,-22.84 c -3.93,-5.023 -9.67,-10.66 -15,-15.551 -16.55,-15.242 -34.28,-24.429 -50.96,-3.242 l -49.41,62.77 -16.38,-15.071 -15.38,19.551 16.37,15.063 -25.12,31.878 27.03,24.872 25.12,-31.891" /><path
         id="path56"
         style="fill:#ee2628;fill-opacity:1;fill-rule:nonzero;stroke:none"
         d="m 2278.56,640.699 c 18.3,-16.379 37.22,-7.34 50.62,10.153 8.75,11.437 19.06,31.687 5.01,44.25 -14.83,13.277 -34.39,-6.762 -56.52,-23.793 -22.29,-17.25 -47.24,-32.45 -73.06,-9.379 -28.12,25.172 -19.59,65.949 0.96,92.789 23.77,31.011 58.12,48.332 89.9,19.91 L 2271.23,743 c -17.36,13.77 -31.33,4.852 -43.28,-10.75 -7.97,-10.41 -13.16,-26.09 -1.61,-36.43 10.59,-9.488 17.36,-3.609 54.75,25.719 10.8,8.582 42.66,36.211 73.86,8.301 25.23,-22.57 27.69,-60.891 -3.24,-101.27 -25.19,-32.879 -63.8,-50.238 -97.37,-19.511 l 24.22,31.64" /><path
         id="path58"
         style="fill:#ee2628;fill-opacity:1;fill-rule:nonzero;stroke:none"
         d="m 2419.14,782.23 c 12.58,22.418 -1.41,40.739 -18.94,52.219 -17.76,11.633 -39.24,16.539 -51.82,-5.859 -12.44,-22.199 1.55,-40.508 19.3,-52.129 17.53,-11.481 39.03,-16.402 51.46,5.769 z m -93.63,61.352 c 21.11,37.656 57.81,46.789 93.08,23.688 35.08,-22.981 44.55,-62.36 23.44,-100.02 -20.99,-37.43 -57.69,-46.559 -92.75,-23.602 -35.28,23.102 -44.77,62.493 -23.77,99.934" /><path
         id="path60"
         style="fill:#ee2628;fill-opacity:1;fill-rule:nonzero;stroke:none"
         d="m 2441.31,976.648 c -14.2,3.911 -24.96,-1.988 -30.76,-16.648 -8.93,-22.621 9.29,-39.828 26.75,-47.879 17.03,-7.851 40.34,-10.082 49.07,12.039 6.46,16.379 0.54,30.281 -13.07,39.199 l 13.46,34.051 c 29.72,-19 37.65,-50.57 24.3,-84.359 -15.3,-38.77 -50.89,-53.192 -86.54,-36.75 -37.02,17.07 -54.95,53.539 -38.48,95.301 11.99,30.308 37.69,51.348 68.92,39.588 l -13.65,-34.542" /><path
         id="path62"
         style="fill:#ee2628;fill-opacity:1;fill-rule:nonzero;stroke:none"
         d="m 2413.98,1040.31 10.59,36.62 123.36,-41.65 -10.59,-36.62 z m -8.5,43.09 -10.6,-36.63 -27.93,9.42 10.61,36.62 27.92,-9.41" /><path
         id="path64"
         style="fill:#ee2628;fill-opacity:1;fill-rule:nonzero;stroke:none"
         d="m 2497.5,1173.27 c -18.29,0.46 -29.15,-5.68 -32.62,-23.93 -4.53,-23.83 11.31,-34.51 21,-37.2 z m 10.43,-66.02 c 22.25,-3.83 34.49,5.59 38.46,26.51 2.87,15.07 -3.39,29.15 -10.78,33.27 l 6.27,33.08 c 27.87,-17.21 36.35,-42.53 30.48,-73.49 -8.2,-43.15 -40.7,-63.8 -79.88,-55.1 -37.97,8.41 -61.48,43.14 -53.6,84.68 8.84,46.59 49.36,61.04 87.79,49.76 l -18.74,-98.71" /><path
         id="path66"
         style="fill:#ee2628;fill-opacity:1;fill-rule:nonzero;stroke:none"
         d="m 2458.17,1277.87 2.38,27.99 23.65,-2.36 -2.38,-27.97 63.73,-6.32 c 11.95,-1.19 15.22,1.73 16.31,14.65 0.35,4.05 0.41,7.83 0.01,11.94 l 27.64,-2.75 c 0.45,-6.55 -0.02,-14.92 -0.66,-22.46 -1.98,-23.4 -8.69,-43.35 -34.34,-40.81 l -75.94,7.54 -1.97,-23.13 -23.63,2.34 1.95,23.14 -38.57,3.82 3.23,38.22 38.59,-3.84" /><path
         id="path68"
         style="fill:#ee2628;fill-opacity:1;fill-rule:nonzero;stroke:none"
         d="m 2605.91,1380.56 c 20.86,-8.08 29.52,-21.2 29.83,-47.67 0.1,-7.83 -0.29,-15.68 -0.94,-23.52 l -29.26,-0.42 c 0.4,7.3 1.32,14.88 0.97,22.43 -1.41,13.23 -14.22,17.37 -24.41,12.89 l -120.64,-50.9 -0.5,41.06 88.1,32.88 v 0.54 l -88.86,29.25 -0.49,39.71 146.2,-56.25" /><path
         id="path70"
         style="fill:#ee2628;fill-opacity:1;fill-rule:nonzero;stroke:none"
         d="m 1591.48,740.82 c -342.98,0 -621.019,278.54 -621.019,622.16 0,343.61 278.039,622.16 621.019,622.16 143.88,0 276.22,-49.15 381.51,-131.43 -139.18,164.7 -346.94,269.37 -579.2,269.37 -419.024,0 -758.712,-340.31 -758.712,-760.1 0,-419.8 339.688,-760.101 758.712,-760.101 232.25,0 440.02,104.66 579.19,269.351 -105.28,-82.261 -237.62,-131.41 -381.5,-131.41" /><path
         id="path72"
         style="fill:#ee2628;fill-opacity:1;fill-rule:nonzero;stroke:none"
         d="m 795.23,2338.06 c -3.023,-2.1 -6.675,-3.04 -10.976,-2.8 -4.399,-0.38 -7.559,1.17 -9.449,4.68 -0.84,1.56 -1.43,4.35 -0.996,7.86 0.078,3.27 0.804,5.38 2.476,6.54 2.352,1.63 5.965,0.93 11.309,-1.25 5.32,-2.18 8.558,-4.75 10.035,-7.48 l 1.469,-2.73 c -1.063,-2.33 -2.2,-3.65 -3.868,-4.82 z M 521.262,2077.67 c -1.887,14.63 -0.176,24.92 5.121,31.56 4.496,5.64 11.508,6.27 21.347,1.59 z m 336,317.06 -27.004,51.48 c -1.82,3.04 -2.625,7.7 -2.746,13.8 -0.449,5.9 -0.711,9.36 -1.074,10.16 -12.137,6.23 -20.934,11.87 -26.692,16.71 -0.078,-14.43 -0.394,-25.41 -0.605,-32.73 10.601,-8.68 26.507,-35.82 46.851,-81.44 l 0.746,-1.62 c -0.175,-0.61 -0.175,-0.61 -0.351,-0.21 L 814.73,2351.6 c -19.515,31.93 -36.742,42.45 -52.546,31.47 -5.715,-3.96 -8.567,-12.36 -7.914,-24.75 0.332,-12.61 2.394,-22.42 6.378,-29.82 1.887,-3.51 4.442,-6.55 7.676,-9.12 l -18.422,-13.82 -6.316,-4.87 c -8.172,8.06 -19.637,24.05 -34.973,48.1 -10.722,17.12 -21.441,34.23 -32.168,51.35 -0.996,-6.3 -2.004,-12.59 -3,-18.87 -0.961,-7.92 0.016,-14.34 2.59,-17.88 l 51.567,-75.01 -20.872,-16.16 c -7.566,-5.02 -14.195,-3.42 -19.933,4.83 -0.508,0.72 -2.871,5.57 -7.109,14.56 -1.665,-5.56 -3.2,-9.84 -4.379,-13.22 0,0 2.004,-5.76 5.519,-16.57 2.18,-6.77 1.141,-11.77 -3.5,-15.93 -2.156,-1.94 -6.004,-3.63 -11.265,-5.44 -6.192,15.39 -8.387,22.15 -7.125,20.36 l -3.25,4.65 c -2.782,-5.39 -4.317,-9.68 -5.122,-12.13 2.946,-7.83 4.633,-13.88 4.887,-17.14 0.34,-5.52 -1.269,-10.45 -5.043,-14.4 0,0 -17.25,-16.75 -18.695,-18.16 0.336,0.93 -0.625,4.21 -2.336,9.17 -1.981,5.32 -3.223,8.31 -4.027,9.34 l -3.946,5.18 c -2.176,-3.98 -1.965,-10.41 0.117,-19.25 1.614,-6.88 -1.945,-15.21 -10.66,-25.63 l -1.015,-1.01 -0.125,0.16 -2.696,-2.93 -1.523,-1.5 0.062,-0.09 -32.976,-35.07 -4.461,-5.59 -2.254,-2.45 0.156,-0.18 -2.965,-3.71 c -6.285,7.06 -13.308,11.86 -21.894,14.04 -9.387,1.82 -16.609,-0.43 -22.172,-7.39 -7.125,-8.95 -10.426,-26.69 -9.879,-53.21 l -41.723,37.47 c -2.968,2.43 -5.187,7.12 -6.343,13.15 -1.438,5.69 -2.457,9.16 -3.34,10.08 -14.473,1.59 -24.742,3.69 -30.453,5.35 3.808,-13.58 6.894,-23.99 8.676,-31.27 14.652,-4.77 34.011,-19.25 58.164,-44.08 l 13.414,-13.79 -14.215,-20.4 -33.715,-49.79 c -6.484,-10.14 -13.219,-15.79 -19.641,-16.82 -6.422,-1.03 -14.965,1.72 -25.215,8.98 -0.531,-4.99 -1.058,-8.35 -0.941,-10.6 7.813,-9.73 12.41,-17.52 13.551,-23.79 0.902,-6.64 -0.488,-13.11 -4.68,-20.16 l -32.215,-61.27 c -8.535,-15.38 -17.882,-19.84 -28.203,-13.53 -4.945,3.03 -9.387,5.23 -13.14,6 0.101,-4.63 0.394,-7.86 0.515,-10.48 1.219,-2.26 3.317,-4.56 6.676,-7.12 3.516,-3.17 5.441,-5.87 6.656,-8.13 3.614,-6.79 3.633,-15.43 -0.136,-25.33 l -2.536,-5.32 -0.039,0.02 -0.242,-0.63 -1.926,-4.88 -19.754,-50.24 -18.429,-53.79 c 11.074,-13.56 19.679,-24.2 24.918,-30.61 6.304,14.54 13.039,23.67 20.836,26.68 4.086,-15.45 3.73,-30.05 -0.922,-44.78 -2.949,-9.26 -7.364,-16.5 -13.668,-21.54 -7.442,-5.97 -14.711,-7.31 -22.645,-4.05 -12.117,4.94 -25.117,17.85 -39.015,38.74 -1.438,-9.89 5.992,-22.9 22.113,-39.46 14.016,-13.79 26.426,-23.14 36.66,-27.32 27.629,-11.27 46.949,-0.13 57.754,33.97 5.062,15.99 4.434,32.88 -1.77,51.1 -5.812,18.06 -16.164,29.89 -30.16,35.6 -7.953,3.24 -16.617,1.55 -26.121,-5.51 l 0.16,1.84 c 1.469,4.63 4.828,8.49 10.582,11.85 3.797,2.2 7.043,3.27 10.036,3.33 l 7.992,-4.05 24.515,63.02 6.196,13.04 c 1.867,3.94 0.371,10.44 -4.657,19.1 9.504,0.8 15.297,3.35 17.364,7.69 l 13.336,28.15 26.382,49.62 -0.046,0.04 7.253,12.25 c 1.965,3.35 0.829,9.6 -2.98,19.52 9.313,-0.64 15.277,1.27 17.93,5.73 l 14.433,24.41 35.446,53.91 65.156,81.66 0.039,-0.05 43.863,47.62 -0.121,0.15 5.363,5.28 c 0.883,0.88 1.844,3.04 3.145,6.12 1.273,3.1 1.941,4.96 2.824,5.83 2.395,2.35 5.559,3.66 9.777,3.61 l 14.34,14.71 57.442,51.45 51.656,39.81 -0.074,0.12 59.547,41.33 0.07,-0.13 39.191,23.01 z m -100.817,25.57 c -7.715,3.19 -15.703,5.15 -23.461,6.7 l -5.187,-25.53 c 9.152,-3.27 17.008,-5.85 22.801,-7.18 z M 522.027,1939.38 c -1.672,1.27 -9.406,-0.37 -23.035,-4.52 2.395,-13.15 3.676,-21.66 3.906,-24.54 -8.304,-1.75 -15.394,-3.9 -20.812,-5.69 1.824,-10.01 3.988,-18.66 6.461,-25.93 9.621,2.36 16.707,4.49 21.363,5.81 -1.058,10.49 -2.219,18.38 -3.238,24.01 13.176,3.43 20.027,5.19 20.812,5.69 -2.968,16.27 -4.793,24.67 -5.457,25.17 z m -186.121,-77.35 -7.554,25.45 c -1.418,0.86 -8.997,-1.62 -22.192,-7.28 1.453,-8.5 3.985,-16.65 6.871,-25.01 10.074,2.97 17.657,5.45 22.875,6.84 z m 109.813,-207.39 c -9.719,-5.08 -16.891,-8.81 -21.621,-11.62 l 10.449,-22.33 c -9.723,-5.06 -16.516,-8.96 -20.363,-11.66 l 11.445,-23.21 c 7.539,3.58 14.336,7.45 20.504,12.08 -3.656,10.04 -6.465,17.38 -8.285,22.39 7.656,4.01 13.933,7.62 18.945,11.28 -5.539,12.24 -9.09,19.88 -11.074,23.07" /><path
         id="path74"
         style="fill:#ee2628;fill-opacity:1;fill-rule:nonzero;stroke:none"
         d="m 860.523,2514.66 c -1.75,-6.43 -3.652,-12.44 -5.402,-18.86 -1.961,-8.05 -1.941,-14.57 0.438,-19.36 l 57.722,-127.13 c 2.223,11.7 3.149,20.19 3.262,25.28 -0.176,7.94 -1.926,16.57 -5.789,25.11 l -50.231,114.96" /><path
         id="path76"
         style="fill:#ee2628;fill-opacity:1;fill-rule:nonzero;stroke:none"
         d="m 1144.98,2480.01 c -6.29,1.28 -9.86,3.2 -10.45,6.33 -0.34,1.79 0.79,4.39 3.67,8.36 2.49,3.88 4.56,5.77 6.09,6.15 2.71,0.65 5.63,-4.24 9.11,-14.14 1.06,-3.48 2.89,-6.77 4.62,-9.61 -4.58,0.76 -8.76,1.61 -13.04,2.91 z m 155.13,38.17 c -11.31,-1.9 -22.74,1.24 -34.32,10.33 -9.22,8.94 -18.45,17.87 -27.6,26.35 -10.48,9.69 -20.03,13.98 -28.64,12.89 -6.66,-0.84 -11.43,-4.67 -14.38,-11.02 -2.89,-6.79 -4.14,-14.3 -3.34,-22.46 l 1.38,-9.93 c 2.03,7.6 5.59,11.72 11.07,12.43 4.3,0.54 15.04,-7.74 32.6,-24.79 l -50.38,-7.91 -2.8,-0.68 c -12.92,0.14 -25.19,9.76 -36.85,28.88 -10.16,-3.86 -18.15,-12.79 -24.06,-26.36 -5.99,-13.13 -11.84,-20.61 -16.95,-21.37 l -10.74,-2.82 -42.89,-13.66 -8.79,-3.44 -0.31,-0.1 v -0.02 l -4.68,-1.84 c -10.45,13.78 -19.69,22.23 -27.96,24.79 l -4.97,-37.2 c 13.11,-8.87 23.11,-17.02 29.08,-24.34 -4.28,-31.14 -16.49,-58.14 -37.131,-82.16 22.971,-0.17 39.571,1.5 49.621,5.44 7.84,3.07 11.56,12.74 11.06,29.45 -1.3,12.52 -2.48,24.62 -3.66,36.71 l 1.13,0.44 0.09,-0.36 58.18,19.25 17.87,4.32 c 5.07,-3.44 10.76,-5.8 16.95,-6.64 2.97,-0.68 9.17,-1.51 17.67,-1.78 2.34,4.76 4.4,10.86 5.85,18.22 l 26.83,7.38 78.05,9.92 23.02,52.08" /><path
         id="path78"
         style="fill:#ee2628;fill-opacity:1;fill-rule:nonzero;stroke:none"
         d="m 1333.61,2681.59 c -7.99,-5.59 -13.77,-8.29 -17.69,-8.57 -1.99,-0.14 -3.6,0.66 -4.13,2.91 2.99,3.41 5.25,5.4 6.42,5.49 1.18,0.08 2.38,-0.29 3.6,-0.67 l -0.81,14.59 c -4.34,0.14 -8.5,-3.35 -12.02,-11.37 -2.79,-6.61 -4,-13.09 -3.69,-19.01 0.06,-0.91 0.1,-1.83 0.55,-2.72 1.26,-1.27 3.69,-2.48 6.52,-3.65 -2.24,-2.45 -3.3,-4.8 -3.12,-8 0.35,-6.37 0.49,-9.11 0.84,-8.16 5.23,5.4 10.47,10.79 15.7,16.19 5.94,6.82 8.71,13.88 7.95,20.69 l -0.12,2.28" /><path
         id="path80"
         style="fill:#ee2628;fill-opacity:1;fill-rule:nonzero;stroke:none"
         d="m 1368.19,2523.88 c 5.85,4.19 11.33,9.29 16.37,15.3 4.4,-5.88 7.23,-10.86 8.45,-14.95 z m 24.54,133.65 -13.88,-28.05 c 4.48,-12.26 6.99,-25.46 7.13,-39.62 0.09,-8.21 -0.63,-14.61 -1.75,-19.19 -24.45,37.09 -43.63,61.01 -58.32,71.31 -5.36,-16.06 -8.01,-25.68 -7.97,-27.96 0.08,-7.76 3.69,-14.1 10.44,-18.57 5.15,-1.76 9.1,-2.61 11.45,-2.58 5.15,-2.21 11.14,-8.52 18.34,-18.45 0.39,-0.91 5.62,-8.6 15.24,-23.54 -14.81,-16.17 -28.1,-25.5 -39.49,-28.85 l 0.55,-50.67 74.88,1.06 -0.53,48.38 c -0.08,7.76 -4.54,18.66 -12.97,31.77 3.85,8.73 6.07,21.54 7.07,38.45 1.01,16.91 3.22,29.27 7.07,37.53 -8.01,13.13 -13.64,22.63 -17.26,28.98 v 0" /><path
         id="path82"
         style="fill:#ee2628;fill-opacity:1;fill-rule:nonzero;stroke:none"
         d="m 1463.25,2641.93 c -4.2,-4.73 -8.39,-9.01 -12.61,-13.75 -5.06,-6.04 -7.76,-11.79 -7.66,-17.29 l -1.88,-143.02 c 6.81,9.13 11.13,16.14 13.35,20.56 3.16,7.09 5.2,15.64 5.34,25.24 l 3.46,128.26" /><path
         id="path84"
         style="fill:#ee2628;fill-opacity:1;fill-rule:nonzero;stroke:none"
         d="m 1660.87,2564.94 c 0.27,4.12 1.86,8.88 5,13.33 3.15,4.44 4.83,7.33 5.18,9.57 l -12.44,33.77 c -8.35,-11.68 -14.56,-20.12 -18.7,-25.74 1.85,-8.28 2.12,-25.99 0.85,-53.12 -1.24,-24.36 -2.97,-42.11 -4.97,-54.22 -0.8,-4.93 -6.66,-8.79 -17.79,-10.6 -9.5,-1.7 -16.77,-2 -22.19,-0.84 -23.64,5.03 -34.14,16.56 -31.11,34.96 1.56,9.42 6.5,19.97 14.85,31.66 -8.93,-3.21 -17.16,-11.67 -24.25,-25.48 -5.9,-11.28 -9.97,-23.89 -12.19,-37.35 -4.98,-30.05 8.46,-48.25 39.82,-54.93 17.04,-3.63 32.95,0.41 47.42,12.66 14.45,12.24 22.31,28.22 24.09,48.74 l 6.43,77.59" /><path
         id="path86"
         style="fill:#ee2628;fill-opacity:1;fill-rule:nonzero;stroke:none"
         d="m 1906.4,2383.82 c 5.12,2.77 9.2,8.14 12.17,15.11 0.53,1.23 0.89,2.05 1.42,3.28 2.66,-1.97 4.97,-6.8 6.23,-15.11 0.18,-0.6 1.07,-6.69 2.69,-18.24 l -21.61,11.93 c 0.16,1.43 -0.37,2.25 -0.9,3.03 z m -2.68,16.22 c -1.24,-2.88 -3.7,-5.57 -7.43,-7.07 -3.89,-1.92 -7.42,-1.99 -9.89,-0.62 -2.84,1.56 -5.15,4.36 -6.57,8.2 -1.61,3.42 -1.78,7.08 -0.56,9.95 1.41,3.29 3.88,5.98 7.95,8.31 4.06,2.32 7.24,2.58 10.09,1.02 2.48,-1.38 4.77,-4.17 6.38,-8.61 1.24,-4.24 1.26,-8.31 0.03,-11.18 z m 170.48,19.69 c -11.07,-7.1 -19.64,-12.25 -25.33,-15.68 -1.36,-14.76 -14.18,-43.94 -38.92,-86.66 l -0.87,-1.54 c -0.54,-0.14 -0.54,-0.14 -0.33,0.25 l -14.98,12.02 -44.39,29.18 c 0,0 -11.09,6.87 -10.91,10.33 1.22,8.97 2.25,15.5 3.14,19.59 1.39,11.41 -0.76,24.79 -6.1,39.92 -5.35,15.15 -12.43,25.16 -20.94,29.86 -4.62,2.55 -13.81,-3.55 -27.03,-19.08 -10.76,-12.83 -18.37,-23.36 -23.29,-31.81 l -14.38,7.37 -44.38,21.61 -6.28,4.2 c -4.01,3.35 -5.79,7.35 -5.69,12.11 1.27,14.87 5.37,35.42 12.19,61.22 7.05,28.11 11.52,48.53 12.93,60.95 -11.16,-8.89 -18.37,-13.95 -20.99,-15.89 -12.54,-44.8 -24.97,-71.45 -37.78,-80.24 l -0.15,2.44 c -0.45,29.39 -2.72,49.37 -6.53,60.8 -3.31,10.29 -13.54,26.93 -30.19,50.18 -3.22,-2.66 -6.54,-10.09 -9.96,-22.26 -0.61,-2.18 -1.33,-4.79 -2.06,-8.84 -0.73,-4.05 -1.46,-6.66 -1.46,-8.1 6.7,-10.08 12.37,-17.88 16.4,-22.68 l 7.12,0.3 c 3.54,-6.55 7.36,-16.55 11.07,-29.86 4.09,-14.9 5.41,-24.95 3.83,-30.6 -1.71,-6.09 -14.52,-13.44 -38.82,-21.91 -21.66,-7.99 -37.26,-11.94 -46.11,-12.58 l 48.84,-19.06 c 16.39,-6.41 30.23,-2.78 41.99,11.17 3.6,3.98 11.86,18.71 24.8,44.22 -2.51,-14.9 -5.04,-29.79 -7.56,-44.7 -0.89,-18 3.2,-29.37 12.45,-34.33 l 55.48,-27.93 80.17,-44.31 44.51,-30.59 -0.01,-0.01 37.09,-27.15 31.62,55.62 25.9,52.2 c 1.42,3.31 4.58,6.41 9.19,9.56 4.27,3.39 6.8,5.35 7.23,6.12 -1.3,15.06 -1.35,26.51 -0.51,34.59" /><path
         id="path88"
         style="fill:#ee2628;fill-opacity:1;fill-rule:nonzero;stroke:none"
         d="m 2128.24,2370.87 c -5.81,-1.33 -11.37,-2.29 -17.19,-3.62 -7.16,-1.87 -12.18,-5.02 -14.78,-9.66 l -70.87,-118.27 c 10.12,3.36 17.13,6.52 21.13,8.82 6.07,3.96 11.92,9.82 16.67,17.75 l 65.04,104.98" /><path
         id="path90"
         style="fill:#ee2628;fill-opacity:1;fill-rule:nonzero;stroke:none"
         d="m 2403.06,1801.96 c -2.7,-2.05 -5.03,-4.9 -7.01,-7.54 -0.52,5.21 -0.87,10.03 -0.85,15.06 -0.53,7.21 0.19,11.65 2.71,13.09 1.44,0.82 3.95,0.26 8.05,-1.89 3.95,-1.74 6.09,-3.51 6.79,-5.12 1.25,-2.79 -2.15,-7.25 -9.69,-13.6 z m -235.47,382.18 c -3.56,5.53 -7.13,11.71 -10.47,18.86 10.78,-1.88 17.01,-2.77 18.67,-2.66 -4.26,-7.32 -6.9,-12.61 -8.2,-16.2 z m 336.9,-480.57 c -2.1,7.22 -7.14,11.44 -15.13,12.68 -6.6,0.82 -13.2,0.22 -20.45,-2.51 l -4.2,-1.57 c 6.72,-1.25 10.62,-4.49 12.23,-10.01 0.87,-2.97 -3.79,-16.03 -14.35,-39.32 l -16.57,52.67 -18.14,51.08 -2.85,6.38 c -3.2,14.21 1.84,30.16 15.14,47.84 -5.9,10.16 -15.54,16.64 -28.62,19.65 -12.69,3.21 -20.57,7.72 -22.55,13.1 l -5.32,10.97 -21.32,42.85 -5.41,9.16 -8.64,14.6 c 9.97,-0.47 17.84,1.76 24.86,7.1 6,4.59 8.7,11.49 7.87,21.09 -0.3,7.87 -2.93,15.56 -7.09,22.62 -4.61,7.79 -11.24,14.07 -19.76,17.81 -12.42,-3.55 -21.75,-5.8 -27.96,-6.76 3.42,-3.32 5.17,-7.92 5.59,-13.53 0.4,-5.61 -0.95,-9.88 -4.17,-13.42 l -20.34,32.99 -29.56,43.89 -0.82,1.09 c -6.91,9.78 -9.94,18.65 -9.12,25.94 0.83,7.31 5.42,15.94 14.3,25.23 -4.11,1.89 -6.81,3.36 -8.76,3.83 -10.32,-5.98 -18.18,-8.94 -23.8,-8.54 -5.88,0.75 -10.99,4 -15.89,10.43 l -1.4,1.86 0.09,0.1 -1.92,2.3 -2.43,3.2 -0.14,-0.14 -32.35,38.97 -5.2,5.37 -0.93,0.95 c -7.32,9.46 -8.52,20.58 -3.02,33.41 3.69,7.92 10.69,18.61 21.52,32.09 1.91,2.36 3.79,4.72 5.71,6.44 -11.17,-2.62 -18.98,-5.04 -23.43,-6.6 -5.03,-1.61 -10.12,-0.65 -15.85,2.19 -6.3,3.43 -10.3,5.1 -11.99,4.99 -3.94,-0.25 -10.34,-2.25 -18.67,-6.62 -8.31,-4.37 -14.1,-8.26 -16.53,-11.3 -3.26,-4.05 -3.32,-10.77 -0.49,-20.51 2.85,-9.73 5.89,-16.58 9.66,-20.51 l 4.95,-5.12 c 6.61,4.9 12.14,8.45 16.3,10.31 -3.44,-6.94 -7.15,-14.21 -11.16,-21.18 -4.5,-9.56 -4.53,-16.93 0.12,-21.75 l 11.7,-12.12 41.49,-49.59 0.16,0.16 8.5,-11.18 c 2.32,-3.04 7.94,-3.45 17.38,-1.89 -3,-10.03 -2.95,-17.07 0.15,-21.14 l 19.15,-25.19 33.67,-50.55 41.07,-69.38 28.89,-56.62 8.21,-18.38 c -1.64,-6.44 -2.18,-13.28 -1.29,-20.3 0.17,-3.41 1.06,-10.43 2.99,-19.84 4.66,-1.33 10.39,-2.05 17.02,-1.74 l 7.71,-18.16 24.25,-63.15 23.82,-81.61 49.15,-13.08 c -3.97,12.16 -3.5,25.07 2.07,39.4 5.39,11.94 11.32,23.58 16.86,35.09 5.93,13.07 7.65,24.57 5.04,33.48 z m -135.9,-69.96 c 12.14,-8.18 18.83,-12.25 20.37,-11.67 1.9,0.71 5.5,8.67 11.32,23.58 l -20.74,11.52 c -4.11,-7.67 -7.85,-15.19 -10.95,-23.43 z M 2198.24,2042 c -8.99,0.64 -16.9,0.57 -23.74,-0.21 -0.54,-11.17 -0.58,-19.49 -0.7,-24.93 9.18,-1.61 16.2,-2.44 21.26,-2.8 -0.57,-15.33 -0.88,-23.31 -0.67,-24.28 14.61,-1.06 22.21,-1.29 22.83,-0.69 1.52,1.49 2.17,10.41 2.22,26.41 -11.79,0.85 -19.35,1.71 -21.86,2.21 0.7,9.56 0.76,17.87 0.66,24.29 z m 22.09,211.1 c 0.55,-8.61 1.38,-16.88 2.47,-24.81 9.83,0.96 17.41,1.75 22.2,1.73 -0.54,17.25 -1.38,26.16 -1.68,26.46 -0.29,0.31 -3.69,0.72 -9.86,0.33 l -11.54,-0.41 c -0.09,11.83 -0.62,19.8 -1.9,24.2 -6.16,-0.4 -13.75,-1.2 -22.99,-2.75 0.29,-9.58 1.13,-18.48 2.53,-26.72 5.3,1.3 12.06,1.73 20.77,1.97" /></g></g></svg>