<?xml version="1.0" encoding="UTF-8" standalone="no"?>
<svg
   xmlns:dc="http://purl.org/dc/elements/1.1/"
   xmlns:cc="http://creativecommons.org/ns#"
   xmlns:rdf="http://www.w3.org/1999/02/22-rdf-syntax-ns#"
   xmlns:svg="http://www.w3.org/2000/svg"
   xmlns="http://www.w3.org/2000/svg"
   viewBox="0 0 467.34668 477.46667"
   height="477.46667"
   width="467.34668"
   xml:space="preserve"
   id="svg2"
   version="1.1"><metadata
     id="metadata8"><rdf:RDF><cc:Work
         rdf:about=""><dc:format>image/svg+xml</dc:format><dc:type
           rdf:resource="http://purl.org/dc/dcmitype/StillImage" /><dc:title></dc:title></cc:Work></rdf:RDF></metadata><defs
     id="defs6" /><g
     transform="matrix(1.3333333,0,0,-1.3333333,0,477.46667)"
     id="g10"><g
       transform="scale(0.1)"
       id="g12"><path
         id="path14"
         style="fill:#ed192d;fill-opacity:1;fill-rule:nonzero;stroke:none"
         d="m 313.027,2656.67 c -11.078,4.17 -46.472,13.77 -66.566,-21.92 -22.742,-40.39 9.184,-75.41 46.832,-96.6 37.645,-21.2 84.148,-30.33 106.891,10.06 16.339,29.02 2.351,51.87 -21.051,71.76 l 47.687,84.71 c 56.473,-31.8 90.637,-111.47 44.489,-193.42 -51,-90.59 -143.848,-105.97 -226.59,-59.39 -88.235,49.69 -115.309,138.27 -66.735,224.54 43.668,76.64 107.907,96.25 182.293,64.18 l -47.25,-83.92" /><path
         id="path16"
         style="fill:#ed192d;fill-opacity:1;fill-rule:nonzero;stroke:none"
         d="m 498.887,2874.25 35.058,38.06 c 12.5,13.57 27.258,34.24 6.075,53.75 -14.891,13.72 -31.118,13.37 -56.727,-14.43 l -31.402,-34.09 z m -170.332,22.3 127.742,138.68 c 38.109,41.37 93.871,56.08 138.555,14.92 24.492,-22.56 39.941,-57.59 26.621,-89.99 25.902,12.85 59.027,4.98 90.922,-19.51 12.496,-9.68 40.929,-35.26 57.953,-38.7 l -67.071,-72.82 c -15.269,7.34 -28.734,17.3 -41.894,27.58 -24.336,18.75 -49.664,38.41 -76.188,9.62 l -35.668,-38.73 82.407,-75.91 -67.071,-72.81 -236.308,217.67" /><path
         id="path18"
         style="fill:#ed192d;fill-opacity:1;fill-rule:nonzero;stroke:none"
         d="m 884.098,3068.93 c 20.941,14.02 43.843,49.39 4.027,108.86 -39.809,59.46 -81.238,51.76 -102.18,37.74 -20.945,-14.02 -43.843,-49.39 -4.031,-108.86 39.813,-59.46 81.242,-51.76 102.184,-37.74 z M 741.371,3282.1 c 81.16,54.34 174.449,32.3 229.035,-49.22 54.584,-81.54 39.424,-176.19 -41.738,-230.52 -81.156,-54.34 -174.449,-32.3 -229.031,49.23 -54.586,81.53 -39.422,176.18 41.734,230.51" /><path
         id="path20"
         style="fill:#ed192d;fill-opacity:1;fill-rule:nonzero;stroke:none"
         d="m 979.93,3408.91 90.74,39.58 128.45,-294.48 -90.74,-39.58 -128.45,294.48" /><path
         id="path22"
         style="fill:#ed192d;fill-opacity:1;fill-rule:nonzero;stroke:none"
         d="m 1294.75,3366.65 -138.41,120.92 112.79,27.56 67.94,-73.28 25.62,96.13 106.66,26.06 -64.22,-171.34 151.85,-138.01 -115.85,-28.31 -76.08,80.08 -32.33,-106.57 -110.17,-26.91 72.2,193.67" /><path
         id="path24"
         style="fill:#ed192d;fill-opacity:1;fill-rule:nonzero;stroke:none"
         d="m 1572.82,3405.87 140.6,8.21 4.31,-73.67 -140.6,-8.21 -4.31,73.67" /><path
         id="path26"
         style="fill:#ed192d;fill-opacity:1;fill-rule:nonzero;stroke:none"
         d="m 1897.33,3429.67 51.38,-6.23 c 18.32,-2.23 43.71,-2.13 47.18,26.47 2.44,20.1 -7.33,33.07 -44.85,37.62 l -46.02,5.58 z m -81.4,151.31 187.2,-22.7 c 55.85,-6.77 100.36,-43.45 93.06,-103.76 -4.02,-33.06 -23.43,-66.07 -57.5,-74.18 25.55,-13.52 38.51,-45.02 37.26,-85.21 -0.55,-15.81 -4.71,-53.83 2.44,-69.66 l -98.3,11.92 c -2.95,16.68 -2.74,33.42 -2.08,50.12 1.01,30.7 2.17,62.75 -36.7,67.46 l -52.27,6.34 -13.49,-111.25 -98.29,11.92 38.67,319" /><path
         id="path28"
         style="fill:#ed192d;fill-opacity:1;fill-rule:nonzero;stroke:none"
         d="m 2280.39,3230.33 c 23.59,-8.86 65.67,-6.88 90.83,60.1 25.16,66.99 -5.22,96.18 -28.81,105.05 -23.6,8.86 -65.68,6.88 -90.83,-60.11 -25.17,-66.98 5.21,-96.18 28.81,-105.04 z m 90.18,240.14 c 91.43,-34.34 127.83,-123.01 93.33,-214.84 -34.49,-91.85 -120.26,-134.63 -211.68,-100.29 -91.42,34.34 -127.83,123 -93.33,214.84 34.5,91.84 120.27,134.62 211.68,100.29" /><path
         id="path30"
         style="fill:#ed192d;fill-opacity:1;fill-rule:nonzero;stroke:none"
         d="m 2757.49,3019.92 c -50.35,-73.51 -114.21,-81.58 -195.15,-26.16 -80.93,55.41 -96.87,118.14 -46.54,191.64 l 111.34,162.61 81.68,-55.92 -98.89,-144.42 c -18.56,-27.1 -41.69,-60.88 -1.96,-88.08 38.61,-26.44 61.73,7.34 80.3,34.44 l 98.88,144.42 81.67,-55.93 -111.33,-162.6" /><path
         id="path32"
         style="fill:#ed192d;fill-opacity:1;fill-rule:nonzero;stroke:none"
         d="m 2910.16,2729.43 c -35.81,-2.61 -67.74,14.64 -91.25,40.71 -63.58,70.51 -47.96,163.38 19.89,224.55 90.88,81.97 184.87,50.99 233.38,-2.81 54.86,-60.82 56.43,-129.08 9.94,-190.4 l -63.6,70.5 c 14.97,18.35 14.07,44.2 -1.6,61.58 -45.5,50.46 -97.13,0.87 -113.51,-13.89 -22.38,-20.19 -53.35,-64.47 -12.95,-109.26 15.36,-17.03 39.72,-26.58 60.75,-14.28 l -29.24,32.41 51.13,46.11 88,-97.58 -131.33,-118.43 -41.89,46.45 22.28,24.34" /><path
         id="path34"
         style="fill:#ed192d;fill-opacity:1;fill-rule:nonzero;stroke:none"
         d="m 3240.26,2769.48 128.69,-232.76 -72.07,-39.85 -80.79,146.12 -35.05,-19.38 73.38,-132.72 -66.94,-37.02 -73.39,132.72 -35.05,-19.38 83.18,-150.44 -72.07,-39.85 -131.08,237.09 281.19,155.47" /><path
         id="path36"
         style="fill:#ed192d;fill-opacity:1;fill-rule:nonzero;stroke:none"
         d="m 221.754,1315.41 c 10.816,4.81 42.742,22.84 31.98,62.34 -12.179,44.72 -59.492,47.22 -101.164,35.86 -41.675,-11.35 -81.1872,-37.5 -69.0036,-82.21 8.75,-32.13 34.7496,-38.57 65.3746,-36.29 l 25.543,-93.76 c -62.511,-17.04 -142.7692,15.66 -167.48009,106.39 -27.32031,100.28 27.94919,176.43 119.54709,201.38 97.676,26.6 179.148,-17.42 205.168,-112.92 22.742,-85.21 -9.199,-144.28 -84.656,-173.69 l -25.309,92.9" /><path
         id="path38"
         style="fill:#ed192d;fill-opacity:1;fill-rule:nonzero;stroke:none"
         d="M 379.137,1218.63 503.945,983.809 431.23,945.148 352.883,1092.57 317.52,1073.78 388.688,939.871 321.141,903.969 249.973,1037.88 214.609,1019.08 295.277,867.289 222.57,828.648 95.4375,1067.85 379.137,1218.63" /><path
         id="path40"
         style="fill:#ed192d;fill-opacity:1;fill-rule:nonzero;stroke:none"
         d="M 529.781,943.789 595.699,866.949 526.188,684 l 0.585,-0.68 130.45,111.91 60.937,-71.019 -243.824,-209.18 -62.695,73.071 69.023,189.046 -0.586,0.684 -133.183,-114.262 -60.938,71.039 243.824,209.18" /><path
         id="path42"
         style="fill:#ed192d;fill-opacity:1;fill-rule:nonzero;stroke:none"
         d="m 765.641,581.199 -71.813,54.262 49.649,65.699 222.609,-168.199 -49.648,-65.723 -71.809,54.274 -144.063,-190.653 -78.988,59.692 144.063,190.648" /><path
         id="path44"
         style="fill:#ed192d;fill-opacity:1;fill-rule:nonzero;stroke:none"
         d="m 1025.66,346.379 46.95,-21.758 c 16.75,-7.769 40.94,-15.5 53.05,10.629 8.51,18.379 3.22,33.719 -31.07,49.609 l -42.06,19.493 z m -30.801,169.019 171.091,-79.277 c 51.04,-23.652 82.08,-72.262 56.54,-127.391 -14,-30.218 -42.65,-55.628 -77.56,-52.839 20.15,-20.743 22.77,-54.7 9.2,-92.551 -5.4,-14.86 -21.08,-49.758 -19.15,-67.008 l -89.84,41.617 c 2.33,16.781 7.69,32.641 13.47,48.321 10.41,28.902 21.4,59.031 -14.13,75.5 l -47.769,22.128 -47.113,-101.668 -89.832,41.629 135.093,291.539" /><path
         id="path46"
         style="fill:#ed192d;fill-opacity:1;fill-rule:nonzero;stroke:none"
         d="m 1416,145.281 -7.41,102.848 -0.88,0.191 -51.12,-90.3 z m -32.84,218.301 94.61,-20.273 47.08,-338.71916 -100.33,21.49996 -3.58,47.7188 -99.9,21.4023 -23.7,-41.8711 -97.25,20.8399 183.07,289.4023" /><path
         id="path48"
         style="fill:#ed192d;fill-opacity:1;fill-rule:nonzero;stroke:none"
         d="m 1615.2,322.898 248.39,-4.039 -1.35,-82.347 -149.39,2.429 -0.65,-40.043 128.25,-2.089 -1.25,-76.5 -128.25,2.089 L 1708.96,0 1609.97,1.60938 1615.2,322.898" /><path
         id="path50"
         style="fill:#ed192d;fill-opacity:1;fill-rule:nonzero;stroke:none"
         d="m 2019.57,204.32 50.71,10.289 c 18.09,3.661 42.15,11.762 36.43,39.981 -4.03,19.84 -17.37,29.082 -54.42,21.558 l -45.42,-9.207 z m -124.92,117.91 184.78,37.481 c 55.12,11.168 108.92,-9.59 120.99,-69.141 6.62,-32.621 -1.4,-70.058 -31.19,-88.492 28.52,-4.777 50.74,-30.578 62.23,-69.109 4.44,-15.168 12.49,-52.5588 24.26,-65.3206 l -97.01,-19.6679 c -8.08,14.8906 -13.15,30.8515 -17.78,46.8906 -8.73,29.4489 -17.72,60.2309 -56.08,52.4379 L 2033.25,136.852 2055.51,27.0508 1958.5,7.37891 1894.65,322.23" /><path
         id="path52"
         style="fill:#ed192d;fill-opacity:1;fill-rule:nonzero;stroke:none"
         d="m 2220.37,400.621 92.38,35.551 115.37,-299.82 -92.38,-35.551 -115.37,299.82" /><path
         id="path54"
         style="fill:#ed192d;fill-opacity:1;fill-rule:nonzero;stroke:none"
         d="m 2599.24,452.832 c -7.52,9.129 -33.43,35.078 -68.62,14.137 -39.82,-23.699 -29.58,-69.957 -7.49,-107.078 22.09,-37.121 57.86,-68.192 97.69,-44.493 28.61,17.032 27.86,43.813 17.47,72.704 l 83.51,49.707 c 33.14,-55.68 23.11,-141.77 -57.7,-189.848 -89.32,-53.16 -177.48,-20.281 -226.03,61.309 -51.77,87 -31.15,177.281 53.91,227.91 76.01,44.711 141.47,29.73 190.01,-35.102 l -82.75,-49.246" /><path
         id="path56"
         style="fill:#ed192d;fill-opacity:1;fill-rule:nonzero;stroke:none"
         d="m 2913.94,595.09 -89.03,51.98 -0.66,-0.621 45.63,-93.179 z m -198.64,96.219 70.17,66.601 306.03,-152.5 -74.41,-70.629 -41.39,24 -74.09,-70.312 21.15,-43.207 -72.13,-68.453 -135.33,314.5" /><path
         id="path58"
         style="fill:#ed192d;fill-opacity:1;fill-rule:nonzero;stroke:none"
         d="m 2880.05,863.531 59.86,78.848 255.92,-194.25 -59.86,-78.848 -255.92,194.25" /><path
         id="path60"
         style="fill:#ed192d;fill-opacity:1;fill-rule:nonzero;stroke:none"
         d="m 2975.25,983.25 46.83,89.78 195.71,3.49 0.42,0.79 -152.43,79.51 43.29,83 284.9,-148.61 -44.54,-85.38 -201.19,-6.221 -0.42,-0.8 155.61,-81.161 -43.29,-83 -284.89,148.602" /><path
         id="path62"
         style="fill:#ed192d;fill-opacity:1;fill-rule:nonzero;stroke:none"
         d="m 3125.29,1285.14 67.91,257.09 79.61,-21.02 -42.63,-161.4 38.71,-10.22 38.72,146.6 73.96,-19.53 -38.72,-146.6 38.72,-10.23 43.89,166.18 79.61,-21.03 -69.17,-261.89 -310.61,82.05" /><path
         id="path64"
         style="fill:#ed192d;fill-opacity:1;fill-rule:nonzero;stroke:none"
         d="M 1377.49,1427.4 H 600.117 v 723.38 h 777.373 l -0.07,777.82 h 723.45 v -777.35 l -0.07,-0.3 h 777.4 v -723.44 h -777.4 l 0.07,0.11 V 650.25 h -723.45 v 777.37 l 0.07,-0.22" /></g></g></svg>