<?xml version="1.0" encoding="UTF-8" standalone="no"?>
<svg
   xmlns:dc="http://purl.org/dc/elements/1.1/"
   xmlns:cc="http://creativecommons.org/ns#"
   xmlns:rdf="http://www.w3.org/1999/02/22-rdf-syntax-ns#"
   xmlns:svg="http://www.w3.org/2000/svg"
   xmlns="http://www.w3.org/2000/svg"
   viewBox="0 0 602.81335 602.81335"
   height="602.81335"
   width="602.81335"
   xml:space="preserve"
   id="svg2"
   version="1.1"><metadata
     id="metadata8"><rdf:RDF><cc:Work
         rdf:about=""><dc:format>image/svg+xml</dc:format><dc:type
           rdf:resource="http://purl.org/dc/dcmitype/StillImage" /><dc:title></dc:title></cc:Work></rdf:RDF></metadata><defs
     id="defs6" /><g
     transform="matrix(1.3333333,0,0,-1.3333333,0,602.81333)"
     id="g10"><g
       transform="scale(0.1)"
       id="g12"><path
         id="path14"
         style="fill:#ed1c24;fill-opacity:1;fill-rule:nonzero;stroke:none"
         d="m 337.141,2108.44 c -44.168,-12.11 -63.34,-50.18 -56.985,-98.91 9.778,-74.96 79.742,-95.06 145.961,-86.43 66.219,8.63 128.688,46.02 118.906,120.98 -7.089,54.34 -42.394,81.5 -94.195,79.2 l -15.148,116.19 c 115.758,8.75 194.222,-66.79 208.968,-179.85 17.602,-134.94 -74.062,-235.84 -203.378,-252.71 -129.313,-16.86 -243.793,57.15 -261.391,192.08 -12.551,96.2 35.062,208.52 142.101,225.65 l 15.161,-116.2" /><path
         id="path16"
         style="fill:none;stroke:#ed1c24;stroke-width:10;stroke-linecap:butt;stroke-linejoin:miter;stroke-miterlimit:10;stroke-dasharray:none;stroke-opacity:1"
         d="m 337.141,2108.44 c -44.168,-12.11 -63.34,-50.18 -56.985,-98.91 9.778,-74.96 79.742,-95.06 145.961,-86.43 66.219,8.63 128.688,46.02 118.906,120.98 -7.089,54.34 -42.394,81.5 -94.195,79.2 l -15.148,116.19 c 115.758,8.75 194.222,-66.79 208.968,-179.85 17.602,-134.94 -74.062,-235.84 -203.378,-252.71 -129.313,-16.86 -243.793,57.15 -261.391,192.08 -12.551,96.2 35.062,208.52 142.101,225.65 z" /><path
         id="path18"
         style="fill:#ed1c24;fill-opacity:1;fill-rule:nonzero;stroke:none"
         d="m 384.547,2517.92 16.848,96.83 c 6.05,34.76 -9.329,56.62 -42.848,62.45 -32.899,5.74 -52.332,-17.75 -57.949,-50.03 l -15.989,-91.86 z m -212.52,-81.97 39.321,225.94 c 13.613,78.21 62.39,149.02 151.777,133.47 47.793,-8.31 89.109,-39.17 99.008,-88.86 l 1.242,-0.21 c 19.383,45.23 74.52,49.7 117.383,46.08 18.836,-2 84.336,-11.49 103.18,1.23 l -19.883,-114.22 c -16.621,-7.33 -60.403,-1.64 -73.032,-0.71 -45.23,4.67 -92.464,5.21 -101.863,-48.79 l -15.23,-87.52 161.386,-28.09 -20.089,-115.46 -443.2,77.14" /><path
         id="path20"
         style="fill:none;stroke:#ed1c24;stroke-width:10;stroke-linecap:butt;stroke-linejoin:miter;stroke-miterlimit:10;stroke-dasharray:none;stroke-opacity:1"
         d="m 384.547,2517.92 16.848,96.83 c 6.05,34.76 -9.329,56.62 -42.848,62.45 -32.899,5.74 -52.332,-17.75 -57.949,-50.03 l -15.989,-91.86 z m -212.52,-81.97 39.321,225.94 c 13.613,78.21 62.39,149.02 151.777,133.47 47.793,-8.31 89.109,-39.17 99.008,-88.86 l 1.242,-0.21 c 19.383,45.23 74.52,49.7 117.383,46.08 18.836,-2 84.336,-11.49 103.18,1.23 l -19.883,-114.22 c -16.621,-7.33 -60.403,-1.64 -73.032,-0.71 -45.23,4.67 -92.464,5.21 -101.863,-48.79 l -15.23,-87.52 161.386,-28.09 -20.089,-115.46 z" /><path
         id="path22"
         style="fill:#ed1c24;fill-opacity:1;fill-rule:nonzero;stroke:none"
         d="m 727.234,3266.85 c 115.989,-59.6 146.344,-142.49 84.153,-263.51 -62.199,-121.03 -147.262,-144.59 -263.242,-84.99 l -234.766,120.64 53.555,104.22 240.925,-123.82 c 51.551,-26.48 87.676,-20.97 113.879,30.02 26.2,50.99 9.657,83.57 -41.89,110.06 l -240.93,123.81 53.555,104.22 234.761,-120.65" /><path
         id="path24"
         style="fill:none;stroke:#ed1c24;stroke-width:10;stroke-linecap:butt;stroke-linejoin:miter;stroke-miterlimit:10;stroke-dasharray:none;stroke-opacity:1"
         d="m 727.234,3266.85 c 115.989,-59.6 146.344,-142.49 84.153,-263.51 -62.199,-121.03 -147.262,-144.59 -263.242,-84.99 l -234.766,120.64 53.555,104.22 240.925,-123.82 c 51.551,-26.48 87.676,-20.97 113.879,30.02 26.2,50.99 9.657,83.57 -41.89,110.06 l -240.93,123.81 53.555,104.22 z" /><path
         id="path26"
         style="fill:#ed1c24;fill-opacity:1;fill-rule:nonzero;stroke:none"
         d="m 874.879,3319.98 -23.066,341.73 -150.071,-156.36 -72.726,69.8 254.769,265.46 65.453,-62.82 22.778,-349.32 169.264,176.37 72.73,-69.79 -270.041,-281.38 -69.09,66.31" /><path
         id="path28"
         style="fill:none;stroke:#ed1c24;stroke-width:10;stroke-linecap:butt;stroke-linejoin:miter;stroke-miterlimit:10;stroke-dasharray:none;stroke-opacity:1"
         d="m 874.879,3319.98 -23.066,341.73 -150.071,-156.36 -72.726,69.8 254.769,265.46 65.453,-62.82 22.778,-349.32 169.264,176.37 72.73,-69.79 -270.041,-281.38 z" /><path
         id="path30"
         style="fill:#ed1c24;fill-opacity:1;fill-rule:nonzero;stroke:none"
         d="m 1711.04,3805.03 -125.1,-50.3 -299.31,364.51 113.4,45.59 206.62,-277.51 1.17,0.48 -42.94,343.3 113.41,45.59 32.75,-471.66" /><path
         id="path32"
         style="fill:none;stroke:#ed1c24;stroke-width:10;stroke-linecap:butt;stroke-linejoin:miter;stroke-miterlimit:10;stroke-dasharray:none;stroke-opacity:1"
         d="m 1711.04,3805.03 -125.1,-50.3 -299.31,364.51 113.4,45.59 206.62,-277.51 1.17,0.48 -42.94,343.3 113.41,45.59 z" /><path
         id="path34"
         style="fill:#ed1c24;fill-opacity:1;fill-rule:nonzero;stroke:none"
         d="m 1868.22,4318.55 356.57,37.07 9.71,-93.38 -240.01,-24.95 8.14,-78.33 219.34,22.81 9.37,-90.25 -219.33,-22.8 8.86,-85.24 246.28,25.62 10.43,-100.28 -362.84,-37.72 -46.52,447.45" /><path
         id="path36"
         style="fill:none;stroke:#ed1c24;stroke-width:10;stroke-linecap:butt;stroke-linejoin:miter;stroke-miterlimit:10;stroke-dasharray:none;stroke-opacity:1"
         d="m 1868.22,4318.55 356.57,37.07 9.71,-93.38 -240.01,-24.95 8.14,-78.33 219.34,22.81 9.37,-90.25 -219.33,-22.8 8.86,-85.24 246.28,25.62 10.43,-100.28 -362.84,-37.72 z" /><path
         id="path38"
         style="fill:#ed1c24;fill-opacity:1;fill-rule:nonzero;stroke:none"
         d="m 2541.67,4133.13 96.6,-18.06 c 34.67,-6.49 56.73,8.62 62.98,42.04 6.14,32.83 -17.09,52.55 -49.29,58.57 l -91.64,17.15 z m -79.26,213.5 225.38,-42.16 c 78.03,-14.59 148.2,-64.25 131.52,-153.41 -8.91,-47.68 -40.28,-88.59 -90.08,-97.87 l -0.23,-1.24 c 44.98,-19.94 48.76,-75.13 44.6,-117.92 -2.24,-18.81 -12.54,-84.18 -0.08,-103.17 l -113.93,21.32 c -7.12,16.7 -0.87,60.39 0.2,73.01 5.24,45.16 6.39,92.38 -47.49,102.45 l -87.3,16.33 -30.11,-160.99 -115.18,21.54 82.7,442.11" /><path
         id="path40"
         style="fill:none;stroke:#ed1c24;stroke-width:10;stroke-linecap:butt;stroke-linejoin:miter;stroke-miterlimit:10;stroke-dasharray:none;stroke-opacity:1"
         d="m 2541.67,4133.13 96.6,-18.06 c 34.67,-6.49 56.73,8.62 62.98,42.04 6.14,32.83 -17.09,52.55 -49.29,58.57 l -91.64,17.15 z m -79.26,213.5 225.38,-42.16 c 78.03,-14.59 148.2,-64.25 131.52,-153.41 -8.91,-47.68 -40.28,-88.59 -90.08,-97.87 l -0.23,-1.24 c 44.98,-19.94 48.76,-75.13 44.6,-117.92 -2.24,-18.81 -12.54,-84.18 -0.08,-103.17 l -113.93,21.32 c -7.12,16.7 -0.87,60.39 0.2,73.01 5.24,45.16 6.39,92.38 -47.49,102.45 l -87.3,16.33 -30.11,-160.99 -115.18,21.54 z" /><path
         id="path42"
         style="fill:#ed1c24;fill-opacity:1;fill-rule:nonzero;stroke:none"
         d="m 3081,4196.71 149.72,-85.92 -82.05,-298.66 1.09,-0.63 216.48,221.52 149.71,-85.91 -223.88,-390.14 -95.63,54.87 169.95,296.16 -1.09,0.63 -251.92,-249.12 -77.58,44.52 87.98,343.19 -1.09,0.63 -169.95,-296.15 -95.63,54.87 223.89,390.14" /><path
         id="path44"
         style="fill:none;stroke:#ed1c24;stroke-width:10;stroke-linecap:butt;stroke-linejoin:miter;stroke-miterlimit:10;stroke-dasharray:none;stroke-opacity:1"
         d="m 3081,4196.71 149.72,-85.92 -82.05,-298.66 1.09,-0.63 216.48,221.52 149.71,-85.91 -223.88,-390.14 -95.63,54.87 169.95,296.16 -1.09,0.63 -251.92,-249.12 -77.58,44.52 87.98,343.19 -1.09,0.63 -169.95,-296.15 -95.63,54.87 z" /><path
         id="path46"
         style="fill:#ed1c24;fill-opacity:1;fill-rule:nonzero;stroke:none"
         d="m 3709.18,3773.45 237.3,-268.63 -70.35,-62.13 -159.72,180.81 -59.01,-52.13 145.95,-165.23 -67.97,-60.05 -145.96,165.23 -64.21,-56.7 163.89,-185.55 -75.54,-66.72 -241.46,273.35 337.08,297.75" /><path
         id="path48"
         style="fill:none;stroke:#ed1c24;stroke-width:10;stroke-linecap:butt;stroke-linejoin:miter;stroke-miterlimit:10;stroke-dasharray:none;stroke-opacity:1"
         d="m 3709.18,3773.45 237.3,-268.63 -70.35,-62.13 -159.72,180.81 -59.01,-52.13 145.95,-165.23 -67.97,-60.05 -145.96,165.23 -64.21,-56.7 163.89,-185.55 -75.54,-66.72 -241.46,273.35 z" /><path
         id="path50"
         style="fill:#ed1c24;fill-opacity:1;fill-rule:nonzero;stroke:none"
         d="m 4071.43,3310.39 51.31,-105.35 -313.79,-152.84 91.88,-188.61 -90.63,-44.14 -143.18,293.96 404.41,196.98" /><path
         id="path52"
         style="fill:none;stroke:#ed1c24;stroke-width:10;stroke-linecap:butt;stroke-linejoin:miter;stroke-miterlimit:10;stroke-dasharray:none;stroke-opacity:1"
         d="m 4071.43,3310.39 51.31,-105.35 -313.79,-152.84 91.88,-188.61 -90.63,-44.14 -143.18,293.96 z" /><path
         id="path54"
         style="fill:#ed1c24;fill-opacity:1;fill-rule:nonzero;stroke:none"
         d="m 4284.45,2808.95 19.92,-115.49 -161.43,-27.85 26.24,-152.11 161.43,27.85 19.93,-115.48 -443.31,-76.49 -19.92,115.49 182.54,31.49 -26.25,152.11 -182.54,-31.48 -19.92,115.48 443.31,76.48" /><path
         id="path56"
         style="fill:none;stroke:#ed1c24;stroke-width:10;stroke-linecap:butt;stroke-linejoin:miter;stroke-miterlimit:10;stroke-dasharray:none;stroke-opacity:1"
         d="m 4284.45,2808.95 19.92,-115.49 -161.43,-27.85 26.24,-152.11 161.43,27.85 19.93,-115.48 -443.31,-76.49 -19.92,115.49 182.54,31.49 -26.25,152.11 -182.54,-31.48 -19.92,115.48 z" /><path
         id="path58"
         style="fill:#ed1c24;fill-opacity:1;fill-rule:nonzero;stroke:none"
         d="m 4058.03,2085.6 -12.68,-101.28 162.48,29.82 0.15,1.25 z m 281.01,-27.57 -14.8,-118.15 -467.25,-111.03 15.18,121.28 83.47,17.48 19.48,155.67 -76.49,38.15 14.95,119.41 425.46,-222.81" /><path
         id="path60"
         style="fill:none;stroke:#ed1c24;stroke-width:10;stroke-linecap:butt;stroke-linejoin:miter;stroke-miterlimit:10;stroke-dasharray:none;stroke-opacity:1"
         d="m 4058.03,2085.6 -12.68,-101.28 162.48,29.82 0.15,1.25 z m 281.01,-27.57 -14.8,-118.15 -467.25,-111.03 15.18,121.28 83.47,17.48 19.48,155.67 -76.49,38.15 14.95,119.41 z" /><path
         id="path62"
         style="fill:#ed1c24;fill-opacity:1;fill-rule:nonzero;stroke:none"
         d="m 1045.82,772.75 80.73,-62.441 56.99,155.043 -1,0.769 z m 166.69,227.88 94.19,-72.841 -142.14,-458.738 -96.68,74.769 27.41,80.758 -124.095,95.973 -71.757,-46.442 -95.184,73.61 408.256,252.911" /><path
         id="path64"
         style="fill:none;stroke:#ed1c24;stroke-width:10;stroke-linecap:butt;stroke-linejoin:miter;stroke-miterlimit:10;stroke-dasharray:none;stroke-opacity:1"
         d="m 1045.82,772.75 80.73,-62.441 56.99,155.043 -1,0.769 z m 166.69,227.88 94.19,-72.841 -142.14,-458.738 -96.68,74.769 27.41,80.758 -124.095,95.973 -71.757,-46.442 -95.184,73.61 z" /><path
         id="path66"
         style="fill:#ed1c24;fill-opacity:1;fill-rule:nonzero;stroke:none"
         d="m 1451.47,823.051 111.07,-46.313 37.53,-315.988 1.17,-0.488 106.68,255.867 101.76,-42.43 -173.11,-415.199 -111.08,46.309 -36.32,318.902 -1.16,0.488 -107.89,-258.769 -101.77,42.429 173.12,415.192" /><path
         id="path68"
         style="fill:none;stroke:#ed1c24;stroke-width:10;stroke-linecap:butt;stroke-linejoin:miter;stroke-miterlimit:10;stroke-dasharray:none;stroke-opacity:1"
         d="m 1451.47,823.051 111.07,-46.313 37.53,-315.988 1.17,-0.488 106.68,255.867 101.76,-42.43 -173.11,-415.199 -111.08,46.309 -36.32,318.902 -1.16,0.488 -107.89,-258.769 -101.77,42.429 z" /><path
         id="path70"
         style="fill:#ed1c24;fill-opacity:1;fill-rule:nonzero;stroke:none"
         d="m 2232.58,162.648 -75.12,8.524 -1.36,49.609 c -35.57,-39.722 -89.86,-48.793 -131.18,-44.101 -135.24,15.32 -211.17,128.558 -196.49,258.148 14.69,129.602 114.05,222.973 249.28,207.641 92.66,-10.5 185.97,-71.168 183.91,-184.449 l -116.45,13.21 c 0.58,38.61 -34.36,66.032 -81.32,71.348 -75.12,8.524 -111.45,-54.59 -118.97,-120.937 -7.52,-66.371 13.76,-136 88.88,-144.512 57.6,-6.527 99.47,15.992 110.35,55.98 l -81.4,9.219 9.79,86.402 187.83,-21.281 -27.75,-244.801" /><path
         id="path72"
         style="fill:none;stroke:#ed1c24;stroke-width:10;stroke-linecap:butt;stroke-linejoin:miter;stroke-miterlimit:10;stroke-dasharray:none;stroke-opacity:1"
         d="m 2232.58,162.648 -75.12,8.524 -1.36,49.609 c -35.57,-39.722 -89.86,-48.793 -131.18,-44.101 -135.24,15.32 -211.17,128.558 -196.49,258.148 14.69,129.602 114.05,222.973 249.28,207.641 92.66,-10.5 185.97,-71.168 183.91,-184.449 l -116.45,13.21 c 0.58,38.61 -34.36,66.032 -81.32,71.348 -75.12,8.524 -111.45,-54.59 -118.97,-120.937 -7.52,-66.371 13.76,-136 88.88,-144.512 57.6,-6.527 99.47,15.992 110.35,55.98 l -81.4,9.219 9.79,86.402 187.83,-21.281 z" /><path
         id="path74"
         style="fill:#ed1c24;fill-opacity:1;fill-rule:nonzero;stroke:none"
         d="m 2605.78,294.148 c 74.47,12.993 91.54,83.762 80.05,149.543 -11.48,65.778 -51.52,126.579 -125.98,113.579 -74.46,-13.008 -91.53,-83.77 -80.05,-149.551 11.48,-65.778 51.51,-126.571 125.98,-113.571 z m -63.27,362.411 c 139.63,24.371 236.32,-64.258 258.75,-192.719 22.43,-128.461 -38.51,-244.621 -178.14,-268.988 -139.63,-24.383 -236.33,64.257 -258.75,192.718 -22.42,128.461 38.52,244.61 178.14,268.989" /><path
         id="path76"
         style="fill:none;stroke:#ed1c24;stroke-width:10;stroke-linecap:butt;stroke-linejoin:miter;stroke-miterlimit:10;stroke-dasharray:none;stroke-opacity:1"
         d="m 2605.78,294.148 c 74.47,12.993 91.54,83.762 80.05,149.543 -11.48,65.778 -51.52,126.579 -125.98,113.579 -74.46,-13.008 -91.53,-83.77 -80.05,-149.551 11.48,-65.778 51.51,-126.571 125.98,-113.571 z m -63.27,362.411 c 139.63,24.371 236.32,-64.258 258.75,-192.719 22.43,-128.461 -38.51,-244.621 -178.14,-268.988 -139.63,-24.383 -236.33,64.257 -258.75,192.718 -22.42,128.461 38.52,244.61 178.14,268.989 z" /><path
         id="path78"
         style="fill:#ed1c24;fill-opacity:1;fill-rule:nonzero;stroke:none"
         d="m 2796.79,705.09 106.74,48.332 143.97,-317.934 191.1,86.543 41.57,-91.832 -297.84,-134.859 -185.54,409.75" /><path
         id="path80"
         style="fill:none;stroke:#ed1c24;stroke-width:10;stroke-linecap:butt;stroke-linejoin:miter;stroke-miterlimit:10;stroke-dasharray:none;stroke-opacity:1"
         d="m 2796.79,705.09 106.74,48.332 143.97,-317.934 191.1,86.543 41.57,-91.832 -297.84,-134.859 z" /><path
         id="path82"
         style="fill:#ed1c24;fill-opacity:1;fill-rule:nonzero;stroke:none"
         d="m 3393.82,709.73 80.71,62.461 -135.76,94.098 -0.99,-0.777 z m -178.73,218.571 94.16,72.879 408.34,-252.77 -96.66,-74.801 -71.27,46.813 -124.05,-96.024 26.94,-81.117 -95.15,-73.652 -142.31,458.672" /><path
         id="path84"
         style="fill:none;stroke:#ed1c24;stroke-width:10;stroke-linecap:butt;stroke-linejoin:miter;stroke-miterlimit:10;stroke-dasharray:none;stroke-opacity:1"
         d="m 3393.82,709.73 80.71,62.461 -135.76,94.098 -0.99,-0.777 z m -178.73,218.571 94.16,72.879 408.34,-252.77 -96.66,-74.801 -71.27,46.813 -124.05,-96.024 26.94,-81.117 -95.15,-73.652 z" /><path
         id="path86"
         style="fill:#ed1c24;fill-opacity:1;fill-rule:nonzero;stroke:none"
         d="m 2260.54,4451.09 c -585.11,0 -1135.2,-227.86 -1548.942,-641.6 C 297.855,3395.75 70,2845.66 70,2260.54 70,1675.43 297.855,1125.34 711.598,711.602 1125.34,297.859 1675.43,70 2260.54,70 c 585.12,0 1135.22,227.859 1548.96,641.602 413.74,413.738 641.59,963.828 641.59,1548.938 0,585.12 -227.85,1135.21 -641.59,1548.95 -413.74,413.74 -963.84,641.6 -1548.96,641.6 z M 2260.54,0 C 1656.73,0 1089.06,235.129 662.102,662.102 235.137,1089.06 0,1656.73 0,2260.54 c 0,603.82 235.137,1171.49 662.102,1598.45 426.958,426.96 994.628,662.1 1598.438,662.1 603.82,0 1171.5,-235.14 1598.45,-662.1 426.96,-426.96 662.1,-994.63 662.1,-1598.45 0,-603.81 -235.14,-1171.48 -662.1,-1598.438 C 3432.04,235.129 2864.36,0 2260.54,0" /><path
         id="path88"
         style="fill:#ed1c24;fill-opacity:1;fill-rule:nonzero;stroke:none"
         d="M 3524.62,2681.9 H 2681.9 v 842.72 H 1839.19 V 2681.9 H 996.473 V 1839.19 H 1839.19 V 996.469 h 842.71 v 842.721 h 842.72 v 842.71" /></g></g></svg>