<?xml version="1.0" encoding="UTF-8" standalone="no"?>
<!-- Created with Inkscape (http://www.inkscape.org/) -->

<svg
   version="1.1"
   id="svg1"
   width="518.75201"
   height="163.93333"
   viewBox="0 0 518.75201 163.93333"
   sodipodi:docname="Malta RC.svg"
   inkscape:version="1.3.2 (091e20e, 2023-11-25, custom)"
   xmlns:inkscape="http://www.inkscape.org/namespaces/inkscape"
   xmlns:sodipodi="http://sodipodi.sourceforge.net/DTD/sodipodi-0.dtd"
   xmlns="http://www.w3.org/2000/svg"
   xmlns:svg="http://www.w3.org/2000/svg">
  <defs
     id="defs1">
    <clipPath
       clipPathUnits="userSpaceOnUse"
       id="clipPath16">
      <path
         d="M 0,122.95 H 389.04 V 0 H 0 Z"
         transform="translate(-366.59901,-8.7700002)"
         id="path16" />
    </clipPath>
  </defs>
  <sodipodi:namedview
     id="namedview1"
     pagecolor="#ffffff"
     bordercolor="#666666"
     borderopacity="1.0"
     inkscape:showpageshadow="2"
     inkscape:pageopacity="0.0"
     inkscape:pagecheckerboard="0"
     inkscape:deskcolor="#d1d1d1"
     inkscape:export-bgcolor="#ffffffff"
     inkscape:zoom="1.8024026"
     inkscape:cx="259.37601"
     inkscape:cy="81.835211"
     inkscape:window-width="1920"
     inkscape:window-height="1017"
     inkscape:window-x="-8"
     inkscape:window-y="-8"
     inkscape:window-maximized="1"
     inkscape:current-layer="g1">
    <inkscape:page
       x="0"
       y="0"
       inkscape:label="1"
       id="page1"
       width="518.75201"
       height="163.93333"
       margin="0"
       bleed="0"
       inkscape:export-filename="Malta RC.png"
       inkscape:export-xdpi="300"
       inkscape:export-ydpi="300" />
  </sodipodi:namedview>
  <g
     id="g1"
     inkscape:groupmode="layer"
     inkscape:label="1">
    <g
       id="group-MC1">
      <path
         id="path2"
         d="M 0,0 H -43.65 V 43.65 H -79.3 V 0 h -43.65 V -35.65 H -79.3 V -79.3 h 35.65 v 43.65 H 0 L 0,0"
         style="fill:#ed1c24;fill-opacity:1;fill-rule:nonzero;stroke:none"
         transform="matrix(1.3333333,0,0,-1.3333333,163.93333,58.2)" />
      <path
         id="path3"
         d="M 0,0 C -0.26,4.888 -0.572,10.764 -0.52,15.132 H -0.676 C -1.872,11.024 -3.328,6.656 -5.096,1.82 l -6.189,-17.005 h -3.432 l -5.668,16.693 c -1.664,4.94 -3.068,9.464 -4.056,13.624 h -0.104 c -0.104,-4.368 -0.364,-10.244 -0.676,-15.496 l -0.936,-15.029 h -4.316 l 2.444,35.05 h 5.772 l 5.98,-16.953 c 1.456,-4.316 2.652,-8.164 3.536,-11.804 h 0.156 c 0.884,3.536 2.132,7.384 3.693,11.804 l 6.24,16.953 H 3.12 l 2.184,-35.05 H 0.884 L 0,0"
         style="fill:#231f20;fill-opacity:1;fill-rule:nonzero;stroke:none"
         transform="matrix(1.3333333,0,0,-1.3333333,218.89067,83.936)" />
      <path
         id="path4"
         d="m 0,0 -3.433,10.088 c -0.78,2.288 -1.3,4.369 -1.82,6.397 h -0.104 c -0.52,-2.08 -1.091,-4.212 -1.768,-6.345 L -10.556,0 Z m -11.493,-3.536 -3.639,-11.025 h -4.681 l 11.909,35.05 h 5.46 l 11.96,-35.05 H 4.68 L 0.935,-3.536 h -12.428"
         style="fill:#231f20;fill-opacity:1;fill-rule:nonzero;stroke:none"
         transform="matrix(1.3333333,0,0,-1.3333333,257.43867,85.045333)" />
      <path
         id="path5"
         d="M 0,0 H 4.523 V -31.253 H 19.5 v -3.796 H 0 V 0"
         style="fill:#231f20;fill-opacity:1;fill-rule:nonzero;stroke:none"
         transform="matrix(1.3333333,0,0,-1.3333333,276.98933,57.728)" />
      <path
         id="path6"
         d="M 0,0 H -10.66 V 3.848 H 15.289 V 0 H 4.576 V -31.201 H 0 L 0,0"
         style="fill:#231f20;fill-opacity:1;fill-rule:nonzero;stroke:none"
         transform="matrix(1.3333333,0,0,-1.3333333,312.48667,62.858667)" />
      <path
         id="path7"
         d="m 0,0 -3.432,10.088 c -0.781,2.288 -1.3,4.369 -1.821,6.397 H -5.356 C -5.877,14.405 -6.449,12.273 -7.125,10.14 L -10.556,0 Z m -11.493,-3.536 -3.64,-11.025 h -4.68 l 11.909,35.05 h 5.46 l 11.96,-35.05 H 4.68 L 0.936,-3.536 h -12.429"
         style="fill:#231f20;fill-opacity:1;fill-rule:nonzero;stroke:none"
         transform="matrix(1.3333333,0,0,-1.3333333,355.752,85.045333)" />
      <path
         id="path8"
         d="M 0,0 H 3.12 C 7.072,0 9.412,1.976 9.412,5.044 9.412,8.269 7.228,9.88 3.588,9.933 1.664,9.933 0.572,9.776 0,9.672 Z m -7.852,15.08 c 2.547,0.416 6.344,0.729 10.556,0.729 5.2,0 8.84,-0.781 11.336,-2.757 2.08,-1.664 3.225,-4.108 3.225,-7.332 0,-4.472 -3.173,-7.54 -6.189,-8.632 v -0.156 c 2.445,-0.988 3.796,-3.328 4.681,-6.552 1.092,-3.953 2.184,-8.529 2.859,-9.881 H 10.504 C 9.932,-18.513 9.1,-15.653 8.06,-11.337 7.124,-6.969 5.616,-5.772 2.392,-5.721 H 0 v -13.78 H -7.852 V 15.08"
         style="fill:#231f20;fill-opacity:1;fill-rule:nonzero;stroke:none"
         transform="matrix(1.3333333,0,0,-1.3333333,189.284,137.124)" />
      <path
         id="path9"
         d="M 0,0 H -12.896 V -8.32 H 1.507 v -6.5 h -22.36 V 20.229 H 0.78 v -6.5 H -12.896 V 6.449 L 0,6.449 V 0"
         style="fill:#231f20;fill-opacity:1;fill-rule:nonzero;stroke:none"
         transform="matrix(1.3333333,0,0,-1.3333333,247.732,143.36533)" />
      <path
         id="path10"
         d="M 0,0 C 0.676,-0.157 1.767,-0.157 2.756,-0.157 9.932,-0.208 14.612,3.744 14.612,12.116 14.664,19.396 10.4,23.244 3.588,23.244 1.82,23.244 0.676,23.089 0,22.932 Z m -7.956,28.6 c 2.912,0.468 6.708,0.729 10.712,0.729 6.656,0 10.972,-1.197 14.352,-3.744 3.641,-2.704 5.929,-7.021 5.929,-13.209 C 23.037,5.668 20.592,1.04 17.213,-1.821 13.52,-4.889 7.904,-6.345 1.04,-6.345 c -4.109,0 -7.021,0.261 -8.996,0.52 V 28.6"
         style="fill:#231f20;fill-opacity:1;fill-rule:nonzero;stroke:none"
         transform="matrix(1.3333333,0,0,-1.3333333,267.56,155.15067)" />
      <path
         id="path11"
         d="m 0,0 c -1.456,-0.728 -4.732,-1.507 -8.996,-1.507 -12.117,0 -18.357,7.54 -18.357,17.524 0,11.96 8.528,18.616 19.136,18.616 4.109,0 7.229,-0.832 8.633,-1.559 l -1.612,-6.292 c -1.612,0.676 -3.849,1.3 -6.656,1.3 -6.292,0 -11.181,-3.796 -11.181,-11.597 0,-7.021 4.16,-11.441 11.232,-11.441 2.393,0 5.045,0.521 6.605,1.144 L 0,0"
         style="fill:#231f20;fill-opacity:1;fill-rule:nonzero;stroke:none"
         transform="matrix(1.3333333,0,0,-1.3333333,353.53333,161.808)" />
      <path
         id="path12"
         d="M 0,0 H 3.12 C 7.072,0 9.413,1.976 9.413,5.044 9.413,8.269 7.229,9.88 3.589,9.933 1.664,9.933 0.572,9.776 0,9.672 Z m -7.853,15.08 c 2.549,0.416 6.345,0.729 10.557,0.729 5.2,0 8.841,-0.781 11.337,-2.757 2.08,-1.664 3.224,-4.108 3.224,-7.332 0,-4.472 -3.172,-7.54 -6.188,-8.632 v -0.156 c 2.444,-0.988 3.796,-3.328 4.68,-6.552 1.092,-3.953 2.183,-8.529 2.86,-9.881 h -8.112 c -0.572,0.988 -1.404,3.848 -2.444,8.164 -0.937,4.368 -2.445,5.565 -5.668,5.616 H 0 v -13.78 H -7.853 V 15.08"
         style="fill:#231f20;fill-opacity:1;fill-rule:nonzero;stroke:none"
         transform="matrix(1.3333333,0,0,-1.3333333,370.93333,137.124)" />
      <path
         id="path13"
         d="m 0,0 c 0,-6.864 3.225,-11.7 8.528,-11.7 5.357,0 8.425,5.096 8.425,11.908 0,6.292 -3.016,11.7 -8.476,11.7 C 3.12,11.908 0,6.812 0,0 Z m 25.325,0.468 c 0,-11.492 -6.968,-18.461 -17.213,-18.461 -10.4,0 -16.484,7.852 -16.484,17.837 0,10.505 6.708,18.356 17.057,18.356 10.764,0 16.64,-8.06 16.64,-17.732"
         style="fill:#231f20;fill-opacity:1;fill-rule:nonzero;stroke:none"
         transform="matrix(1.3333333,0,0,-1.3333333,410.31467,139.89733)" />
      <path
         id="path14"
         d="m 0,0 c 2.132,-1.092 5.409,-2.183 8.788,-2.183 3.64,0 5.565,1.507 5.565,3.796 0,2.184 -1.664,3.432 -5.876,4.94 -5.824,2.027 -9.621,5.252 -9.621,10.348 0,5.98 4.992,10.556 13.261,10.556 3.952,0 6.864,-0.832 8.944,-1.767 l -1.768,-6.397 c -1.404,0.676 -3.9,1.664 -7.333,1.664 -3.431,0 -5.095,-1.56 -5.095,-3.38 0,-2.236 1.975,-3.224 6.5,-4.94 6.188,-2.288 9.1,-5.512 9.1,-10.452 0,-5.876 -4.524,-10.868 -14.144,-10.868 -4.004,0 -7.957,1.039 -9.933,2.131 L 0,0"
         style="fill:#231f20;fill-opacity:1;fill-rule:nonzero;stroke:none"
         transform="matrix(1.3333333,0,0,-1.3333333,451.35867,152.24)" />
      <path
         id="path15"
         d="m 0,0 c 2.132,-1.092 5.409,-2.183 8.789,-2.183 3.639,0 5.564,1.507 5.564,3.796 0,2.184 -1.664,3.432 -5.876,4.94 -5.824,2.027 -9.621,5.252 -9.621,10.348 0,5.98 4.992,10.556 13.261,10.556 3.952,0 6.864,-0.832 8.944,-1.767 l -1.768,-6.397 c -1.404,0.676 -3.9,1.664 -7.333,1.664 -3.431,0 -5.095,-1.56 -5.095,-3.38 0,-2.236 1.975,-3.224 6.5,-4.94 6.188,-2.288 9.1,-5.512 9.1,-10.452 0,-5.876 -4.524,-10.868 -14.144,-10.868 -4.004,0 -7.957,1.039 -9.933,2.131 L 0,0"
         style="fill:#231f20;fill-opacity:1;fill-rule:nonzero;stroke:none"
         transform="matrix(1.3333333,0,0,-1.3333333,488.79867,152.24)"
         clip-path="url(#clipPath16)" />
    </g>
  </g>
</svg>
