<?xml version="1.0" encoding="UTF-8" standalone="no"?>
<!-- Created with Inkscape (http://www.inkscape.org/) -->

<svg
   version="1.1"
   id="svg1"
   width="744.84668"
   height="131.99333"
   viewBox="0 0 744.84668 131.99333"
   sodipodi:docname="Cruz Roja Colombiana.svg"
   inkscape:version="1.3.2 (091e20e, 2023-11-25, custom)"
   xmlns:inkscape="http://www.inkscape.org/namespaces/inkscape"
   xmlns:sodipodi="http://sodipodi.sourceforge.net/DTD/sodipodi-0.dtd"
   xmlns="http://www.w3.org/2000/svg"
   xmlns:svg="http://www.w3.org/2000/svg">
  <defs
     id="defs1">
    <clipPath
       clipPathUnits="userSpaceOnUse"
       id="clipPath21">
      <path
         d="M 0.059998,98.995 H 558.635 V 0 H 0.059998 Z"
         transform="translate(-65.999002,-66.003002)"
         id="path21" />
    </clipPath>
  </defs>
  <sodipodi:namedview
     id="namedview1"
     pagecolor="#ffffff"
     bordercolor="#666666"
     borderopacity="1.0"
     inkscape:showpageshadow="2"
     inkscape:pageopacity="0.0"
     inkscape:pagecheckerboard="0"
     inkscape:deskcolor="#d1d1d1"
     inkscape:zoom="1.2552919"
     inkscape:cx="372.42334"
     inkscape:cy="65.721766"
     inkscape:window-width="1920"
     inkscape:window-height="1017"
     inkscape:window-x="-8"
     inkscape:window-y="-8"
     inkscape:window-maximized="1"
     inkscape:current-layer="g1">
    <inkscape:page
       x="0"
       y="0"
       inkscape:label="1"
       id="page1"
       width="744.84668"
       height="131.99333"
       margin="0"
       bleed="0" />
  </sodipodi:namedview>
  <g
     id="g1"
     inkscape:groupmode="layer"
     inkscape:label="1">
    <g
       id="group-MC1">
      <path
         id="path2"
         d="m 0,0 c 1.875,-0.68 2.921,-1.02 3.135,-1.02 0.559,0 1.006,0.215 1.342,0.644 0.336,0.43 0.548,0.88 0.634,1.352 H 6.334 V -9.308 H 5.218 c -1.058,2.233 -2.138,3.994 -3.239,5.282 -2.058,2.376 -4.388,3.564 -6.99,3.564 -2.946,0 -5.037,-1.27 -6.274,-3.811 -1.236,-2.541 -1.854,-5.951 -1.854,-10.23 0,-3.15 0.364,-5.741 1.093,-7.773 1.358,-3.808 3.882,-5.711 7.571,-5.711 2.259,0 4.361,0.63 6.305,1.889 1.115,0.73 2.431,1.897 3.946,3.5 l 1.31,-1.073 c -1.718,-1.919 -3.228,-3.307 -4.53,-4.166 -2.319,-1.531 -4.896,-2.297 -7.73,-2.297 -4.337,0 -7.973,1.288 -10.907,3.864 -3.249,2.849 -4.874,6.685 -4.874,11.509 0,4.78 1.553,8.653 4.659,11.615 2.92,2.777 6.498,4.165 10.736,4.165 C -3.728,1.019 -1.875,0.68 0,0"
         style="fill:#231f20;fill-opacity:1;fill-rule:nonzero;stroke:none"
         transform="matrix(1.3333333,0,0,-1.3333333,192.592,47.16)" />
      <path
         id="path3"
         d="m 0,0 c 0.844,0.1 1.431,0.3 1.761,0.601 0.329,0.3 0.508,0.88 0.537,1.739 l 0.043,1.288 v 11.959 c 0,0.924 -0.158,1.552 -0.473,1.884 C 1.553,17.803 0.93,18.027 0,18.143 v 1.052 h 8.331 v -3.457 c 0.932,1.216 1.857,2.182 2.776,2.898 0.918,0.716 1.98,1.074 3.185,1.074 0.904,0 1.718,-0.29 2.442,-0.87 0.725,-0.579 1.087,-1.427 1.087,-2.544 0,-0.859 -0.255,-1.568 -0.764,-2.126 -0.509,-0.558 -1.173,-0.837 -1.991,-0.837 -0.932,0 -1.74,0.437 -2.421,1.31 -0.681,0.873 -1.158,1.31 -1.431,1.31 -0.588,0 -1.18,-0.362 -1.775,-1.085 C 8.843,14.146 8.546,13.11 8.546,11.761 V 3.435 C 8.546,1.984 8.757,1.077 9.179,0.715 9.601,0.352 10.442,0.114 11.702,0 V -1.052 H 0 V 0"
         style="fill:#231f20;fill-opacity:1;fill-rule:nonzero;stroke:none"
         transform="matrix(1.3333333,0,0,-1.3333333,205.904,84.762667)" />
      <path
         id="path4"
         d="m 0,0 v -14.922 c 0,-0.888 0.107,-1.539 0.322,-1.954 0.372,-0.73 1.109,-1.095 2.212,-1.095 0.701,0 1.388,0.221 2.061,0.665 0.386,0.244 0.873,0.652 1.46,1.225 v 12.474 c 0,0.923 -0.182,1.569 -0.548,1.938 -0.364,0.367 -1.098,0.573 -2.2,0.617 V 0 h 8.759 v -15.846 c 0,-0.908 0.172,-1.536 0.516,-1.884 0.343,-0.348 1.016,-0.564 2.018,-0.649 v -1.009 c -2.72,-0.258 -4.434,-0.448 -5.142,-0.569 -0.709,-0.122 -1.843,-0.426 -3.403,-0.913 v 2.899 C 5.01,-18.873 4.144,-19.51 3.457,-19.882 2.254,-20.54 1.002,-20.87 -0.3,-20.87 c -1.418,0 -2.738,0.451 -3.962,1.353 -1.224,0.902 -1.836,2.505 -1.836,4.809 v 11.101 c 0,0.939 -0.15,1.553 -0.45,1.842 -0.301,0.289 -0.881,0.527 -1.74,0.713 V 0 H 0"
         style="fill:#231f20;fill-opacity:1;fill-rule:nonzero;stroke:none"
         transform="matrix(1.3333333,0,0,-1.3333333,242.86267,59.169333)" />
      <path
         id="path5"
         d="M 0,0 V 1.117 L 10.72,18.83 C 7.739,18.858 5.672,18.626 4.52,18.132 3.369,17.638 2.492,16.275 1.889,14.042 H 0.773 l 0.301,6.205 H 17.821 V 19.13 L 7.287,1.31 c 2.996,0.071 5.002,0.35 6.02,0.837 1.558,0.73 2.726,2.354 3.505,4.874 h 1.223 L 17.327,0 H 0"
         style="fill:#231f20;fill-opacity:1;fill-rule:nonzero;stroke:none"
         transform="matrix(1.3333333,0,0,-1.3333333,264.70533,86.165333)" />
      <path
         id="path6"
         d="m 0,0 c 1.239,0.765 1.858,2.537 1.858,5.314 0,1.703 -0.237,3.049 -0.709,4.036 -0.817,1.675 -2.305,2.512 -4.467,2.512 -1.174,0 -1.942,-0.147 -2.307,-0.44 C -5.99,11.128 -6.174,10.646 -6.174,9.973 V -1.213 C -3.297,-1.171 -1.238,-0.766 0,0 Z m -17.166,-15.255 c 1.489,0.071 2.505,0.351 3.049,0.837 0.544,0.487 0.816,1.546 0.816,3.178 V 8.212 c 0,1.695 -0.322,2.798 -0.966,3.31 -0.43,0.342 -1.396,0.577 -2.899,0.705 v 1.117 h 14.149 c 2.935,0 5.31,-0.308 7.129,-0.924 C 7.633,11.175 9.393,8.935 9.393,5.7 9.393,3.309 8.471,1.428 6.627,0.054 5.219,-0.977 3.727,-1.636 2.153,-1.922 l 9.343,-12.518 c 0.243,-0.343 0.5,-0.568 0.774,-0.676 0.271,-0.107 0.607,-0.175 1.008,-0.203 v -1.053 H 4.104 L -6.154,-2.63 h -0.02 v -8.61 c 0,-1.546 0.258,-2.587 0.774,-3.124 0.515,-0.537 1.547,-0.834 3.092,-0.891 v -1.117 h -14.858 v 1.117"
         style="fill:#231f20;fill-opacity:1;fill-rule:nonzero;stroke:none"
         transform="matrix(1.3333333,0,0,-1.3333333,327.98667,64.336)" />
      <path
         id="path7"
         d="m 0,0 c 0.501,-1.904 1.496,-2.855 2.985,-2.855 1.417,0 2.347,0.73 2.791,2.19 0.443,1.459 0.666,3.835 0.666,7.128 0,3.277 -0.234,5.65 -0.698,7.118 -0.465,1.466 -1.378,2.2 -2.738,2.2 -1.489,0 -2.483,-0.952 -2.984,-2.856 C -0.308,11.651 -0.472,9.497 -0.472,6.463 -0.472,3.385 -0.315,1.231 0,0 Z m -4.111,14.128 c 1.882,2.047 4.247,3.07 7.096,3.07 2.905,0 5.285,-1.045 7.139,-3.135 1.853,-2.089 2.78,-4.623 2.78,-7.6 0,-2.935 -0.916,-5.458 -2.748,-7.568 -1.832,-2.112 -4.223,-3.167 -7.171,-3.167 -2.863,0 -5.232,1.026 -7.107,3.081 -1.876,2.053 -2.813,4.605 -2.813,7.654 0,3.063 0.941,5.618 2.824,7.665"
         style="fill:#231f20;fill-opacity:1;fill-rule:nonzero;stroke:none"
         transform="matrix(1.3333333,0,0,-1.3333333,357.02933,81.356)" />
      <path
         id="path8"
         d="M 0,0 C 0.666,0.666 1.471,0.998 2.416,0.998 3.346,0.998 4.148,0.666 4.82,0 5.493,-0.666 5.829,-1.471 5.829,-2.416 5.829,-3.36 5.493,-4.166 4.82,-4.831 4.148,-5.497 3.346,-5.83 2.416,-5.83 c -0.945,0 -1.75,0.333 -2.416,0.999 -0.665,0.665 -0.998,1.471 -0.998,2.415 0,0.945 0.333,1.75 0.998,2.416 z m -7.557,-32.056 c 0.479,0.523 1.156,0.783 2.029,0.783 0.658,0 1.256,-0.21 1.793,-0.633 0.536,-0.422 0.804,-0.99 0.804,-1.706 0,-0.487 -0.171,-1.01 -0.514,-1.568 -0.344,-0.558 -0.516,-0.916 -0.516,-1.073 0,-0.287 0.164,-0.48 0.494,-0.58 0.329,-0.1 0.659,-0.15 0.988,-0.15 0.83,0 1.384,0.293 1.664,0.88 0.279,0.587 0.419,1.395 0.419,2.426 v 20.934 c 0,0.938 -0.187,1.587 -0.559,1.949 -0.372,0.36 -1.116,0.563 -2.233,0.606 v 1.052 h 8.846 v -20.161 c 0,-1.832 -0.161,-3.292 -0.483,-4.38 -0.322,-1.088 -0.935,-2.032 -1.836,-2.834 -0.572,-0.501 -1.371,-0.934 -2.394,-1.299 -1.023,-0.365 -2.115,-0.547 -3.274,-0.547 -1.159,0 -2.27,0.235 -3.328,0.708 -1.746,0.773 -2.619,2.033 -2.619,3.779 0,0.687 0.239,1.292 0.719,1.814"
         style="fill:#231f20;fill-opacity:1;fill-rule:nonzero;stroke:none"
         transform="matrix(1.3333333,0,0,-1.3333333,383.43733,46.988)" />
      <path
         id="path9"
         d="M 0,0 C 0.343,0.258 0.752,0.66 1.224,1.206 V 7.642 C 0.051,7.355 -0.981,6.903 -1.867,6.286 -3.37,5.238 -4.122,3.903 -4.122,2.282 c 0,-0.962 0.217,-1.69 0.655,-2.185 0.436,-0.495 0.926,-0.743 1.471,-0.743 0.714,0 1.38,0.215 1.996,0.646 z m -7.665,5.661 c 1.904,1.161 4.888,2.33 8.954,3.506 v 3.199 c 0,1.302 -0.277,2.265 -0.827,2.887 -0.551,0.623 -1.529,0.935 -2.931,0.935 -0.787,0 -1.436,-0.147 -1.943,-0.441 -0.508,-0.293 -0.762,-0.662 -0.762,-1.105 0,-0.172 0.028,-0.315 0.086,-0.43 0.056,-0.115 0.142,-0.236 0.258,-0.365 l 0.256,-0.301 c 0.201,-0.243 0.362,-0.511 0.484,-0.805 0.121,-0.293 0.182,-0.605 0.182,-0.934 0,-0.83 -0.275,-1.471 -0.827,-1.921 -0.55,-0.451 -1.191,-0.677 -1.921,-0.677 -0.844,0 -1.564,0.25 -2.158,0.75 -0.594,0.499 -0.89,1.221 -0.89,2.163 0,1.685 0.794,3.02 2.382,4.005 1.589,0.985 3.543,1.478 5.862,1.478 2.491,0 4.573,-0.48 6.248,-1.439 1.66,-0.974 2.491,-2.763 2.491,-5.368 V 0.149 c 0,-0.315 0.082,-0.584 0.246,-0.805 0.165,-0.222 0.348,-0.333 0.548,-0.333 0.172,0 0.325,0.032 0.462,0.096 0.136,0.065 0.347,0.24 0.633,0.526 L 9.834,-1.29 C 8.975,-2.292 8.023,-2.993 6.978,-3.394 6.319,-3.651 5.626,-3.78 4.895,-3.78 3.592,-3.78 2.641,-3.4 2.04,-2.641 1.696,-2.21 1.446,-1.572 1.289,-0.726 0.072,-1.945 -1.303,-2.805 -2.834,-3.307 -3.765,-3.623 -4.681,-3.78 -5.582,-3.78 c -1.202,0 -2.326,0.384 -3.371,1.15 -1.045,0.767 -1.568,1.961 -1.568,3.581 0,1.979 0.952,3.548 2.856,4.71"
         style="fill:#231f20;fill-opacity:1;fill-rule:nonzero;stroke:none"
         transform="matrix(1.3333333,0,0,-1.3333333,410.84933,81.954667)" />
      <path
         id="path10"
         d="m 0,0 c 1.875,-0.68 2.92,-1.02 3.135,-1.02 0.558,0 1.006,0.215 1.342,0.644 0.336,0.43 0.547,0.88 0.633,1.352 H 6.334 V -9.308 H 5.218 c -1.059,2.233 -2.138,3.994 -3.239,5.282 -2.059,2.376 -4.389,3.564 -6.991,3.564 -2.945,0 -5.037,-1.27 -6.273,-3.811 -1.237,-2.541 -1.855,-5.951 -1.855,-10.23 0,-3.15 0.365,-5.741 1.094,-7.773 1.357,-3.808 3.882,-5.711 7.57,-5.711 2.259,0 4.361,0.63 6.306,1.889 1.114,0.73 2.43,1.897 3.945,3.5 l 1.311,-1.073 c -1.718,-1.919 -3.229,-3.307 -4.53,-4.166 -2.32,-1.531 -4.896,-2.297 -7.73,-2.297 -4.338,0 -7.974,1.288 -10.907,3.864 -3.25,2.849 -4.874,6.685 -4.874,11.509 0,4.78 1.553,8.653 4.659,11.615 2.92,2.777 6.498,4.165 10.735,4.165 C -3.729,1.019 -1.875,0.68 0,0"
         style="fill:#231f20;fill-opacity:1;fill-rule:nonzero;stroke:none"
         transform="matrix(1.3333333,0,0,-1.3333333,469.392,47.16)" />
      <path
         id="path11"
         d="m 0,0 c 0.501,-1.904 1.495,-2.855 2.984,-2.855 1.417,0 2.348,0.73 2.791,2.19 0.444,1.459 0.666,3.835 0.666,7.128 0,3.277 -0.233,5.65 -0.698,7.118 -0.465,1.466 -1.378,2.2 -2.737,2.2 -1.49,0 -2.484,-0.952 -2.985,-2.856 C -0.309,11.651 -0.473,9.497 -0.473,6.463 -0.473,3.385 -0.316,1.231 0,0 Z m -4.112,14.128 c 1.882,2.047 4.248,3.07 7.096,3.07 2.905,0 5.285,-1.045 7.139,-3.135 1.853,-2.089 2.78,-4.623 2.78,-7.6 0,-2.935 -0.916,-5.458 -2.748,-7.568 -1.832,-2.112 -4.223,-3.167 -7.171,-3.167 -2.863,0 -5.231,1.026 -7.106,3.081 -1.876,2.053 -2.814,4.605 -2.814,7.654 0,3.063 0.942,5.618 2.824,7.665"
         style="fill:#231f20;fill-opacity:1;fill-rule:nonzero;stroke:none"
         transform="matrix(1.3333333,0,0,-1.3333333,492.18,81.356)" />
      <path
         id="path12"
         d="m 0,0 c 0.772,0.186 1.32,0.433 1.641,0.741 0.323,0.307 0.484,0.947 0.484,1.921 v 22.394 c 0,0.94 -0.151,1.553 -0.451,1.842 -0.3,0.289 -0.859,0.527 -1.674,0.713 v 1.052 H 8.33 V 2.662 C 8.33,1.688 8.487,1.052 8.802,0.751 9.117,0.451 9.675,0.2 10.477,0 V -1.052 H 0 V 0"
         style="fill:#231f20;fill-opacity:1;fill-rule:nonzero;stroke:none"
         transform="matrix(1.3333333,0,0,-1.3333333,511.90533,84.762667)" />
      <path
         id="path13"
         d="m 0,0 c 0.501,-1.904 1.495,-2.855 2.984,-2.855 1.417,0 2.348,0.73 2.791,2.19 0.444,1.459 0.666,3.835 0.666,7.128 0,3.277 -0.233,5.65 -0.698,7.118 -0.465,1.466 -1.378,2.2 -2.737,2.2 -1.49,0 -2.484,-0.952 -2.985,-2.856 C -0.309,11.651 -0.473,9.497 -0.473,6.463 -0.473,3.385 -0.316,1.231 0,0 Z m -4.111,14.128 c 1.881,2.047 4.247,3.07 7.095,3.07 2.906,0 5.285,-1.045 7.139,-3.135 1.853,-2.089 2.78,-4.623 2.78,-7.6 0,-2.935 -0.916,-5.458 -2.748,-7.568 -1.832,-2.112 -4.222,-3.167 -7.171,-3.167 -2.863,0 -5.231,1.026 -7.106,3.081 -1.876,2.053 -2.814,4.605 -2.814,7.654 0,3.063 0.942,5.618 2.825,7.665"
         style="fill:#231f20;fill-opacity:1;fill-rule:nonzero;stroke:none"
         transform="matrix(1.3333333,0,0,-1.3333333,537.784,81.356)" />
      <path
         id="path14"
         d="m 0,0 c 0.801,0.1 1.352,0.271 1.652,0.515 0.487,0.386 0.731,1.102 0.731,2.147 v 12.925 c 0,0.924 -0.165,1.552 -0.494,1.884 C 1.559,17.803 0.93,18.027 0,18.143 v 1.052 h 8.33 v -3.156 c 0.73,0.958 1.438,1.703 2.126,2.232 1.273,0.959 2.69,1.439 4.251,1.439 1.761,0 3.127,-0.416 4.1,-1.246 0.544,-0.472 1.06,-1.245 1.546,-2.318 h 0.301 c 0.83,1.016 1.624,1.782 2.383,2.297 1.203,0.845 2.513,1.267 3.93,1.267 1.546,0 2.909,-0.494 4.089,-1.481 1.181,-0.988 1.772,-2.548 1.772,-4.681 V 2.49 c 0,-1.016 0.164,-1.663 0.494,-1.943 C 33.651,0.268 34.23,0.086 35.061,0 V -1.052 H 24.626 V 0 c 0.802,0.114 1.36,0.311 1.675,0.59 0.315,0.279 0.472,0.913 0.472,1.9 v 10.65 c 0,1.145 -0.168,2.032 -0.505,2.662 -0.336,0.63 -0.976,0.945 -1.921,0.945 -0.758,0 -1.556,-0.347 -2.394,-1.041 -0.837,-0.695 -1.256,-1.178 -1.256,-1.45 V 2.49 c 0,-0.959 0.143,-1.574 0.43,-1.846 C 21.413,0.372 21.949,0.157 22.737,0 V -1.052 H 12.452 V 0 c 0.773,0.1 1.324,0.29 1.653,0.569 0.329,0.279 0.494,0.919 0.494,1.921 v 10.65 c 0,1.116 -0.157,1.997 -0.472,2.641 -0.315,0.644 -0.966,0.966 -1.953,0.966 -0.903,0 -1.74,-0.369 -2.513,-1.106 C 8.889,14.904 8.502,14.442 8.502,14.256 V 2.49 C 8.502,1.531 8.638,0.916 8.91,0.644 9.181,0.372 9.719,0.157 10.52,0 V -1.052 H 0 V 0"
         style="fill:#231f20;fill-opacity:1;fill-rule:nonzero;stroke:none"
         transform="matrix(1.3333333,0,0,-1.3333333,557.50933,84.762667)" />
      <path
         id="path15"
         d="m 0,0 c 0.515,-1.003 1.374,-1.504 2.576,-1.504 1.503,0 2.566,0.795 3.189,2.385 0.622,1.591 0.934,3.842 0.934,6.751 0,2.307 -0.276,4.292 -0.827,5.954 -0.551,1.663 -1.629,2.494 -3.231,2.494 -0.944,0 -1.7,-0.348 -2.266,-1.042 -0.565,-0.696 -0.847,-1.194 -0.847,-1.495 V 1.978 C -0.416,1.175 -0.257,0.516 0,0 Z m -0.472,27.417 v -11.38 c 0.687,0.667 1.324,1.171 1.911,1.511 1.073,0.61 2.232,0.915 3.477,0.915 2.477,0 4.47,-0.966 5.981,-2.898 1.51,-1.933 2.264,-4.309 2.264,-7.128 0,-3.636 -0.962,-6.438 -2.887,-8.406 -1.926,-1.969 -4.32,-2.952 -7.182,-2.952 -1.174,0 -2.212,0.229 -3.113,0.687 -0.903,0.458 -1.747,1.06 -2.534,1.804 L -6.011,-2.921 H -6.634 V 23.81 c 0,0.923 -0.165,1.548 -0.495,1.873 -0.329,0.324 -0.944,0.551 -1.845,0.682 v 1.052 h 8.502"
         style="fill:#231f20;fill-opacity:1;fill-rule:nonzero;stroke:none"
         transform="matrix(1.3333333,0,0,-1.3333333,618.37067,83.1)" />
      <path
         id="path16"
         d="M 0,0 C 0.666,0.666 1.471,0.998 2.416,0.998 3.346,0.998 4.144,0.666 4.809,0 5.475,-0.666 5.808,-1.471 5.808,-2.416 5.808,-3.36 5.475,-4.166 4.809,-4.831 4.144,-5.497 3.346,-5.83 2.416,-5.83 c -0.945,0 -1.75,0.333 -2.416,0.999 -0.666,0.665 -0.999,1.471 -0.999,2.415 0,0.945 0.333,1.75 0.999,2.416 z m -2.93,-28.331 c 0.772,0.129 1.302,0.322 1.588,0.58 0.429,0.386 0.644,1.081 0.644,2.083 v 12.925 c 0,0.895 -0.15,1.505 -0.451,1.829 -0.3,0.326 -0.894,0.567 -1.781,0.726 v 1.052 H 5.507 V -25.84 c 0,-0.959 0.143,-1.575 0.43,-1.846 0.286,-0.272 0.822,-0.487 1.61,-0.645 v -1.052 H -2.93 v 1.052"
         style="fill:#231f20;fill-opacity:1;fill-rule:nonzero;stroke:none"
         transform="matrix(1.3333333,0,0,-1.3333333,642.86133,46.988)" />
      <path
         id="path17"
         d="M 0,0 C 0.344,0.258 0.752,0.66 1.225,1.206 V 7.642 C 0.051,7.355 -0.98,6.903 -1.867,6.286 -3.37,5.238 -4.122,3.903 -4.122,2.282 c 0,-0.962 0.218,-1.69 0.656,-2.185 0.436,-0.495 0.925,-0.743 1.47,-0.743 0.715,0 1.381,0.215 1.996,0.646 z m -7.665,5.661 c 1.905,1.161 4.889,2.33 8.954,3.506 v 3.199 c 0,1.302 -0.276,2.265 -0.827,2.887 -0.551,0.623 -1.528,0.935 -2.93,0.935 -0.788,0 -1.436,-0.147 -1.944,-0.441 -0.508,-0.293 -0.761,-0.662 -0.761,-1.105 0,-0.172 0.028,-0.315 0.085,-0.43 0.057,-0.115 0.143,-0.236 0.258,-0.365 l 0.257,-0.301 c 0.2,-0.243 0.361,-0.511 0.484,-0.805 0.121,-0.293 0.182,-0.605 0.182,-0.934 0,-0.83 -0.275,-1.471 -0.827,-1.921 -0.551,-0.451 -1.191,-0.677 -1.921,-0.677 -0.845,0 -1.564,0.25 -2.158,0.75 -0.594,0.499 -0.891,1.221 -0.891,2.163 0,1.685 0.794,3.02 2.383,4.005 1.589,0.985 3.543,1.478 5.861,1.478 2.492,0 4.574,-0.48 6.248,-1.439 C 6.449,15.192 7.28,13.403 7.28,10.798 V 0.149 c 0,-0.315 0.082,-0.584 0.246,-0.805 0.165,-0.222 0.347,-0.333 0.548,-0.333 0.171,0 0.325,0.032 0.462,0.096 0.135,0.065 0.346,0.24 0.632,0.526 L 9.834,-1.29 C 8.976,-2.292 8.024,-2.993 6.979,-3.394 6.32,-3.651 5.626,-3.78 4.896,-3.78 3.593,-3.78 2.642,-3.4 2.04,-2.641 1.697,-2.21 1.447,-1.572 1.289,-0.726 0.073,-1.945 -1.302,-2.805 -2.834,-3.307 -3.764,-3.623 -4.68,-3.78 -5.582,-3.78 c -1.202,0 -2.326,0.384 -3.371,1.15 -1.045,0.767 -1.567,1.961 -1.567,3.581 0,1.979 0.952,3.548 2.855,4.71"
         style="fill:#231f20;fill-opacity:1;fill-rule:nonzero;stroke:none"
         transform="matrix(1.3333333,0,0,-1.3333333,669.81333,81.954667)" />
      <path
         id="path18"
         d="M 0,0 C 0.801,0.1 1.392,0.318 1.77,0.655 2.15,0.991 2.34,1.66 2.34,2.662 v 12.925 c 0,0.895 -0.154,1.516 -0.462,1.863 C 1.57,17.796 0.944,18.027 0,18.143 v 1.052 h 8.33 v -3.156 c 0.701,1.059 1.592,1.935 2.673,2.629 1.081,0.695 2.279,1.042 3.597,1.042 1.889,0 3.352,-0.487 4.39,-1.46 1.038,-0.974 1.557,-2.684 1.557,-5.132 V 2.49 c 0,-0.987 0.168,-1.624 0.505,-1.91 C 21.388,0.293 21.949,0.1 22.737,0 V -1.052 H 12.409 V 0 c 0.787,0.157 1.324,0.372 1.611,0.644 0.286,0.272 0.429,0.887 0.429,1.846 v 10.65 c 0,1.002 -0.1,1.753 -0.301,2.254 -0.342,0.902 -1.023,1.353 -2.039,1.353 -0.758,0 -1.457,-0.276 -2.093,-0.827 C 9.379,15.369 8.889,14.814 8.545,14.256 V 2.49 C 8.545,1.531 8.687,0.916 8.975,0.644 9.261,0.372 9.797,0.157 10.585,0 V -1.052 H 0 V 0"
         style="fill:#231f20;fill-opacity:1;fill-rule:nonzero;stroke:none"
         transform="matrix(1.3333333,0,0,-1.3333333,684.55733,84.762667)" />
      <path
         id="path19"
         d="M 0,0 C 0.344,0.258 0.752,0.66 1.224,1.206 V 7.642 C 0.051,7.355 -0.981,6.903 -1.867,6.286 -3.37,5.238 -4.122,3.903 -4.122,2.282 c 0,-0.962 0.217,-1.69 0.655,-2.185 0.437,-0.495 0.926,-0.743 1.471,-0.743 0.715,0 1.381,0.215 1.996,0.646 z m -7.665,5.661 c 1.904,1.161 4.888,2.33 8.954,3.506 v 3.199 c 0,1.302 -0.277,2.265 -0.827,2.887 -0.551,0.623 -1.529,0.935 -2.931,0.935 -0.787,0 -1.436,-0.147 -1.943,-0.441 -0.508,-0.293 -0.762,-0.662 -0.762,-1.105 0,-0.172 0.028,-0.315 0.086,-0.43 0.057,-0.115 0.142,-0.236 0.258,-0.365 l 0.257,-0.301 c 0.2,-0.243 0.361,-0.511 0.483,-0.805 0.121,-0.293 0.183,-0.605 0.183,-0.934 0,-0.83 -0.276,-1.471 -0.828,-1.921 -0.55,-0.451 -1.191,-0.677 -1.92,-0.677 -0.845,0 -1.565,0.25 -2.159,0.75 -0.593,0.499 -0.89,1.221 -0.89,2.163 0,1.685 0.794,3.02 2.382,4.005 1.589,0.985 3.543,1.478 5.862,1.478 2.491,0 4.573,-0.48 6.248,-1.439 1.66,-0.974 2.491,-2.763 2.491,-5.368 V 0.149 c 0,-0.315 0.082,-0.584 0.246,-0.805 0.165,-0.222 0.348,-0.333 0.548,-0.333 0.172,0 0.325,0.032 0.462,0.096 0.136,0.065 0.347,0.24 0.633,0.526 L 9.834,-1.29 C 8.975,-2.292 8.023,-2.993 6.978,-3.394 6.319,-3.651 5.626,-3.78 4.895,-3.78 3.593,-3.78 2.641,-3.4 2.04,-2.641 1.696,-2.21 1.446,-1.572 1.289,-0.726 0.072,-1.945 -1.303,-2.805 -2.834,-3.307 -3.765,-3.623 -4.681,-3.78 -5.582,-3.78 c -1.202,0 -2.326,0.384 -3.371,1.15 -1.045,0.767 -1.568,1.961 -1.568,3.581 0,1.979 0.952,3.548 2.856,4.71"
         style="fill:#231f20;fill-opacity:1;fill-rule:nonzero;stroke:none"
         transform="matrix(1.3333333,0,0,-1.3333333,731.73467,81.954667)" />
      <path
         id="path20"
         d="M 0,0 V 32.992 H -32.991 V 0 h -33.008 v -33.006 h 33.008 V -66.003 H 0 v 32.997 H 33.004 L 33.004,0 H 0"
         style="fill:#ed1c24;fill-opacity:1;fill-rule:nonzero;stroke:none"
         transform="matrix(1.3333333,0,0,-1.3333333,87.998667,43.989333)"
         clip-path="url(#clipPath21)" />
    </g>
  </g>
</svg>
