<?xml version="1.0" encoding="utf-8"?>
<!-- Generator: Adobe Illustrator 16.0.0, SVG Export Plug-In . SVG Version: 6.00 Build 0)  -->
<!DOCTYPE svg PUBLIC "-//W3C//DTD SVG 1.1//EN" "http://www.w3.org/Graphics/SVG/1.1/DTD/svg11.dtd">
<svg version="1.1" id="Layer_1" xmlns="http://www.w3.org/2000/svg" xmlns:xlink="http://www.w3.org/1999/xlink" x="0px" y="0px"
	 width="595.28px" height="841.89px" viewBox="0 0 595.28 841.89" enable-background="new 0 0 595.28 841.89" xml:space="preserve">
<g>
	<path fill-rule="evenodd" clip-rule="evenodd" d="M409.021,140.68c-51.64,0-93.501,41.861-93.501,93.5s41.861,93.5,93.501,93.5
		s93.5-41.861,93.5-93.5S460.66,140.68,409.021,140.68z M409.021,324.966c-50.141,0-90.785-40.646-90.785-90.785
		c0-50.138,40.645-90.786,90.785-90.786c50.139,0,90.784,40.647,90.784,90.786C499.805,284.32,459.159,324.966,409.021,324.966z"/>
	<path id="Inner_Ring" fill-rule="evenodd" clip-rule="evenodd" d="M340.818,234.244c-0.404-37.677,29.464-67.479,68-67.855
		c37.245-0.363,68.036,29.769,68.403,66.938c0.374,37.735-29.684,68.316-67.473,68.646
		C371.065,302.312,341.232,272.998,340.818,234.244z M343.035,233.481c-0.326,36.166,28.758,65.795,64.962,66.181
		c36.61,0.39,66.703-28.941,66.88-65.187c0.172-35.896-29.333-65.484-65.531-65.715
		C372.983,168.528,343.358,197.442,343.035,233.481z"/>
	<rect x="354.56" y="216.027" fill-rule="evenodd" clip-rule="evenodd" fill="#EE2524" width="108.92" height="36.307"/>
	
		<rect id="Cross_1" x="390.866" y="179.721" fill-rule="evenodd" clip-rule="evenodd" fill="#EE2524" width="36.306" height="108.92"/>
	<path id="Inner_Ring_1_" fill-rule="evenodd" clip-rule="evenodd" d="M85.617,278.428c-0.404-37.677,29.464-67.479,68-67.855
		c37.245-0.363,68.036,29.769,68.403,66.938c0.374,37.735-29.684,68.316-67.473,68.646
		C115.864,346.497,86.031,317.183,85.617,278.428z M87.834,277.666c-0.326,36.166,28.758,65.795,64.962,66.181
		c36.61,0.39,66.703-28.941,66.88-65.187c0.172-35.896-29.333-65.484-65.531-65.715C117.782,212.712,88.157,241.626,87.834,277.666z
		"/>
	<circle fill-rule="evenodd" clip-rule="evenodd" fill="none" cx="408.997" cy="233.873" r="71.031"/>
	<text transform="matrix(0.4307 -0.9025 0.9025 0.4307 342.5244 208.2144)"><tspan x="0" y="0" font-family="'MyriadPro-Regular'" font-size="22.4571">S</tspan><tspan x="19.022" y="1.095" font-family="'MyriadPro-Regular'" font-size="22.4571" rotate="15.278">L</tspan><tspan x="36.636" y="6.753" font-family="'MyriadPro-Regular'" font-size="22.4571" rotate="32.019">O</tspan><tspan x="55.583" y="20.283" font-family="'MyriadPro-Regular'" font-size="22.4571" rotate="49.685">V</tspan><tspan x="67.872" y="36.643" font-family="'MyriadPro-Regular'" font-size="22.4571" rotate="65.62">E</tspan><tspan x="74.886" y="54.257" font-family="'MyriadPro-Regular'" font-size="22.4571" rotate="82.295">N</tspan><tspan x="76.506" y="76.829" font-family="'MyriadPro-Regular'" font-size="22.4571" rotate="99.114">S</tspan><tspan x="72.484" y="95.401" font-family="'MyriadPro-Regular'" font-size="22.4571" rotate="114.923">K</tspan><tspan x="63.016" y="113.147" font-family="'MyriadPro-Regular'" font-size="22.4571" rotate="131.029">Ý</tspan><tspan x="48.754" y="127.439" font-family="'MyriadPro-Regular'" font-size="22.4571" rotate="144.458"> </tspan></text>
	<circle fill-rule="evenodd" clip-rule="evenodd" fill="none" cx="407.938" cy="233.063" r="88.433"/>
	<text transform="matrix(0.3318 0.9434 -0.9434 0.3318 322.4854 256.709)"><tspan x="0" y="0" font-family="'MyriadPro-Regular'" font-size="20.8075">Č</tspan><tspan x="21.992" y="-1.31" font-family="'MyriadPro-Regular'" font-size="20.8075" rotate="-13.736">E</tspan><tspan x="41.282" y="-7.157" font-family="'MyriadPro-Regular'" font-size="20.8075" rotate="-27.042">R</tspan><tspan x="59.584" y="-17.822" font-family="'MyriadPro-Regular'" font-size="20.8075" rotate="-40.865">V</tspan><tspan x="75.036" y="-32.862" font-family="'MyriadPro-Regular'" font-size="20.8075" rotate="-54.483">E</tspan><tspan x="85.964" y="-49.982" font-family="'MyriadPro-Regular'" font-size="20.8075" rotate="-68.74">N</tspan><tspan x="93.236" y="-72.575" font-family="'MyriadPro-Regular'" font-size="20.8075" rotate="-83.271">Ý</tspan><tspan x="94.39" y="-93.379" font-family="'MyriadPro-Regular'" font-size="20.8075" rotate="-94.655"> </tspan><tspan x="92.634" y="-107.329" font-family="'MyriadPro-Regular'" font-size="20.8075" rotate="-105.99">K</tspan><tspan x="85.648" y="-127.377" font-family="'MyriadPro-Regular'" font-size="20.8075" rotate="-119.647">R</tspan><tspan x="74.275" y="-144.792" font-family="'MyriadPro-Regular'" font-size="20.8075" rotate="-131.104">Í</tspan><tspan x="64.167" y="-155.386" font-family="'MyriadPro-Regular'" font-size="20.8075" rotate="-142.77">Ž</tspan></text>
</g>
</svg>
