<?xml version="1.0" encoding="UTF-8" standalone="no"?>
<!-- Created with Inkscape (http://www.inkscape.org/) -->

<svg
   version="1.1"
   id="svg1"
   width="728.65332"
   height="237.868"
   viewBox="0 0 728.65332 237.868"
   sodipodi:docname="Slovakia RC.svg"
   inkscape:version="1.3.2 (091e20e, 2023-11-25, custom)"
   xmlns:inkscape="http://www.inkscape.org/namespaces/inkscape"
   xmlns:sodipodi="http://sodipodi.sourceforge.net/DTD/sodipodi-0.dtd"
   xmlns="http://www.w3.org/2000/svg"
   xmlns:svg="http://www.w3.org/2000/svg">
  <defs
     id="defs1">
    <clipPath
       clipPathUnits="userSpaceOnUse"
       id="clipPath17">
      <path
         d="M 0,178.401 H 546.48 V 0 H 0 Z"
         transform="translate(-529.45702,-140.458)"
         id="path17" />
    </clipPath>
  </defs>
  <sodipodi:namedview
     id="namedview1"
     pagecolor="#ffffff"
     bordercolor="#666666"
     borderopacity="1.0"
     inkscape:showpageshadow="2"
     inkscape:pageopacity="0.0"
     inkscape:pagecheckerboard="0"
     inkscape:deskcolor="#d1d1d1"
     inkscape:export-bgcolor="#ffffffff"
     inkscape:zoom="1.2831891"
     inkscape:cx="364.32666"
     inkscape:cy="118.84453"
     inkscape:window-width="1920"
     inkscape:window-height="1017"
     inkscape:window-x="-8"
     inkscape:window-y="-8"
     inkscape:window-maximized="1"
     inkscape:current-layer="g1">
    <inkscape:page
       x="0"
       y="0"
       inkscape:label="1"
       id="page1"
       width="728.65332"
       height="237.868"
       margin="0"
       bleed="0"
       inkscape:export-filename="Slovakia RC.png"
       inkscape:export-xdpi="300"
       inkscape:export-ydpi="300" />
  </sodipodi:namedview>
  <g
     id="g1"
     inkscape:groupmode="layer"
     inkscape:label="1">
    <g
       id="group-MC1">
      <path
         id="path2"
         d="m 0,0 h -59.311 v 59.311 h -59.311 V 0 h -59.311 v -59.311 h 59.311 v -59.311 h 59.311 v 59.311 H 0 L 0,0"
         style="fill:#ed1c24;fill-opacity:1;fill-rule:nonzero;stroke:none"
         transform="matrix(1.3333333,0,0,-1.3333333,237.244,79.476)" />
      <path
         id="path3"
         d="m 0,0 c -4.279,0 -7.62,1.06 -10.473,2.568 l 2.568,5.705 C -5.868,7.091 -2.811,5.99 0.082,5.99 c 2.852,0 3.993,1.06 3.993,2.608 0,1.264 -0.896,1.794 -2.852,2.323 l -3.342,0.856 c -4.116,1.1 -6.928,3.341 -6.928,8.232 0,5.623 4.646,9.373 11.003,9.373 3.953,0 7.621,-1.019 10.147,-2.772 L 8.599,21.435 c -1.916,1.263 -4.442,1.997 -6.398,1.997 -1.875,0 -2.893,-0.897 -2.893,-2.038 0,-0.937 0.651,-1.874 2.771,-2.404 L 4.972,18.256 C 8.028,17.482 12.429,16.097 12.429,10.392 12.429,3.586 7.376,0 0,0"
         style="fill:#ed1c24;fill-opacity:1;fill-rule:nonzero;stroke:none"
         transform="matrix(1.3333333,0,0,-1.3333333,280.256,51.242667)" />
      <path
         id="path4"
         d="m 0,0 v -6.52 h 2.119 c 2.282,0 3.342,0.611 3.342,3.708 C 5.461,-0.448 4.279,0 2.527,0 Z M 2.282,-12.307 H 0 V -22.413 H -7.294 V 5.991 h 9.25 c 7.213,0 11.451,-2.364 11.451,-8.844 0,-4.197 -1.834,-9.454 -11.125,-9.454"
         style="fill:#ed1c24;fill-opacity:1;fill-rule:nonzero;stroke:none"
         transform="matrix(1.3333333,0,0,-1.3333333,312.74533,20.706667)" />
      <path
         id="path5"
         d="m 0,0 c 0,7.091 -1.385,8.803 -4.523,8.803 -3.301,0 -4.686,-3.465 -4.686,-8.884 0,-7.254 1.752,-9.047 4.768,-9.047 C -1.344,-9.128 0,-7.294 0,0 Z m -17.359,-0.896 c 0,10.106 5.542,15.404 13.04,15.404 9.658,0 12.47,-7.376 12.47,-13.611 0,-8.151 -2.568,-15.771 -12.714,-15.771 -8.232,0 -12.796,5.461 -12.796,13.978"
         style="fill:#ed1c24;fill-opacity:1;fill-rule:nonzero;stroke:none"
         transform="matrix(1.3333333,0,0,-1.3333333,355.55733,31.410667)" />
      <path
         id="path6"
         d="m 0,0 h -15.648 v 28.404 h 7.375 V 6.031 H 1.386 L 0,0"
         style="fill:#ed1c24;fill-opacity:1;fill-rule:nonzero;stroke:none"
         transform="matrix(1.3333333,0,0,-1.3333333,393.09867,50.590667)" />
      <path
         id="path7"
         d="m 0,0 c 0,-2.445 -0.082,-3.545 -0.693,-4.687 -1.181,-2.363 -4.36,-4.563 -9.984,-4.563 -4.482,0 -7.579,1.222 -9.291,3.545 -1.06,1.548 -1.386,2.241 -1.386,6.031 v 19.316 h 7.335 V 1.1 c 0,-2.608 0.816,-4.36 3.383,-4.36 2.608,0 3.342,1.467 3.342,4.238 V 19.642 H 0 L 0,0"
         style="fill:#ed1c24;fill-opacity:1;fill-rule:nonzero;stroke:none"
         transform="matrix(1.3333333,0,0,-1.3333333,427.21867,38.909333)" />
      <path
         id="path8"
         d="m 0,0 v -6.52 h 2.119 c 2.282,0 3.341,0.611 3.341,3.708 C 5.46,-0.448 4.279,0 2.527,0 Z M 2.282,-12.307 H 0 V -22.413 H -7.294 V 5.991 h 9.251 c 7.212,0 11.45,-2.364 11.45,-8.844 0,-4.197 -1.834,-9.454 -11.125,-9.454"
         style="fill:#ed1c24;fill-opacity:1;fill-rule:nonzero;stroke:none"
         transform="matrix(1.3333333,0,0,-1.3333333,457.69333,20.706667)" />
      <path
         id="path9"
         d="m 0,0 c 0,7.091 -1.385,8.803 -4.523,8.803 -3.301,0 -4.687,-3.465 -4.687,-8.884 0,-7.254 1.753,-9.047 4.768,-9.047 C -1.345,-9.128 0,-7.294 0,0 Z m -17.359,-0.896 c 0,10.106 5.541,15.404 13.04,15.404 9.658,0 12.469,-7.376 12.469,-13.611 0,-8.151 -2.566,-15.771 -12.714,-15.771 -8.232,0 -12.795,5.461 -12.795,13.978"
         style="fill:#ed1c24;fill-opacity:1;fill-rule:nonzero;stroke:none"
         transform="matrix(1.3333333,0,0,-1.3333333,500.50667,31.410667)" />
      <path
         id="path10"
         d="m 0,0 -0.693,11.451 c -0.122,1.793 -0.204,3.26 -0.204,5.705 H -0.938 C -1.263,14.752 -1.467,13.325 -1.915,11.818 L -5.38,0 h -6.194 l -3.016,11.492 c -0.406,1.589 -0.733,3.178 -0.936,5.705 h -0.041 c 0,-2.527 0,-4.075 -0.122,-5.868 L -16.26,0 h -7.336 l 2.772,28.404 h 8.925 l 2.771,-11.248 c 0.407,-1.589 0.692,-3.097 0.936,-5.379 h 0.042 c 0.244,2.16 0.57,3.545 1.1,5.787 l 2.893,10.84 H 4.482 L 7.091,0 H 0"
         style="fill:#ed1c24;fill-opacity:1;fill-rule:nonzero;stroke:none"
         transform="matrix(1.3333333,0,0,-1.3333333,546.26,50.590667)" />
      <path
         id="path11"
         d="m 0,0 c 0,7.091 -1.385,8.803 -4.523,8.803 -3.301,0 -4.687,-3.465 -4.687,-8.884 0,-7.254 1.753,-9.047 4.768,-9.047 C -1.345,-9.128 0,-7.294 0,0 Z m 1.549,14.385 -5.664,2.853 -5.502,-2.853 -2.037,3.79 7.783,4.85 7.702,-4.85 z M -17.359,-0.896 c 0,10.106 5.541,15.404 13.04,15.404 9.658,0 12.469,-7.376 12.469,-13.611 0,-8.151 -2.566,-15.771 -12.714,-15.771 -8.232,0 -12.795,5.461 -12.795,13.978"
         style="fill:#ed1c24;fill-opacity:1;fill-rule:nonzero;stroke:none"
         transform="matrix(1.3333333,0,0,-1.3333333,583.74533,31.410667)" />
      <path
         id="path12"
         d="M 0,0 -7.865,5.502 -5.786,9.292 -0.122,6.439 5.38,9.292 7.62,5.502 0,0"
         style="fill:#ed1c24;fill-opacity:1;fill-rule:nonzero;stroke:none"
         transform="matrix(1.3333333,0,0,-1.3333333,611.95067,12.389333)" />
      <path
         id="path13"
         d="m 0,0 h -19.397 v 4.972 l 9.413,15.24 c 0.611,0.979 1.304,2.119 1.712,2.486 -0.53,-0.203 -1.875,-0.285 -2.893,-0.285 h -7.377 l 0.53,5.991 H 0.407 V 23.31 L -9.373,7.335 c -0.366,-0.611 -1.018,-1.263 -1.304,-1.508 0.652,0.164 2.037,0.245 3.097,0.245 H 0.57 L 0,0"
         style="fill:#ed1c24;fill-opacity:1;fill-rule:nonzero;stroke:none"
         transform="matrix(1.3333333,0,0,-1.3333333,623.09333,50.590667)" />
      <path
         id="path14"
         d="m 0,0 v 28.404 h 16.504 l -0.53,-5.991 h -8.68 v -4.768 h 7.091 V 11.859 H 7.294 V 6.072 h 9.739 V 0 H 0"
         style="fill:#ed1c24;fill-opacity:1;fill-rule:nonzero;stroke:none"
         transform="matrix(1.3333333,0,0,-1.3333333,629.284,50.590667)" />
      <path
         id="path15"
         d="m 0,0 -0.693,11.451 c -0.122,1.793 -0.204,3.26 -0.204,5.705 H -0.938 C -1.263,14.752 -1.467,13.325 -1.915,11.818 L -5.38,0 h -6.194 l -3.016,11.492 c -0.406,1.589 -0.733,3.178 -0.936,5.705 h -0.041 c 0,-2.527 0,-4.075 -0.122,-5.868 L -16.26,0 h -7.336 l 2.772,28.404 h 8.925 l 2.771,-11.248 c 0.407,-1.589 0.692,-3.097 0.936,-5.379 h 0.042 c 0.244,2.16 0.57,3.545 1.1,5.787 l 2.893,10.84 H 4.482 L 7.09,0 H 0"
         style="fill:#ed1c24;fill-opacity:1;fill-rule:nonzero;stroke:none"
         transform="matrix(1.3333333,0,0,-1.3333333,688.832,50.590667)" />
      <path
         id="path16"
         d="m 0,0 v 28.404 h 16.504 l -0.53,-5.991 h -8.68 v -4.768 h 7.09 V 11.859 H 7.294 V 6.072 h 9.739 V 0 H 0"
         style="fill:#ed1c24;fill-opacity:1;fill-rule:nonzero;stroke:none"
         transform="matrix(1.3333333,0,0,-1.3333333,705.94267,50.590667)"
         clip-path="url(#clipPath17)" />
      <path
         id="path18"
         d="m 0,0 c -4.279,0 -7.62,1.06 -10.473,2.567 l 2.568,5.706 C -5.868,7.091 -2.811,5.99 0.082,5.99 c 2.852,0 3.993,1.06 3.993,2.608 0,1.264 -0.896,1.794 -2.852,2.323 l -3.342,0.856 c -4.116,1.1 -6.928,3.341 -6.928,8.232 0,5.623 4.646,9.373 11.003,9.373 3.953,0 7.621,-1.02 10.147,-2.772 L 8.599,21.435 c -1.916,1.263 -4.442,1.997 -6.398,1.997 -1.875,0 -2.893,-0.897 -2.893,-2.038 0,-0.937 0.651,-1.874 2.771,-2.404 L 4.972,18.256 C 8.028,17.482 12.429,16.097 12.429,10.392 12.429,3.586 7.376,0 0,0"
         style="fill:#231f20;fill-opacity:1;fill-rule:nonzero;stroke:none"
         transform="matrix(1.3333333,0,0,-1.3333333,280.256,113.668)" />
      <path
         id="path19"
         d="m 0,0 h -15.648 v 28.404 h 7.375 V 6.031 H 1.386 L 0,0"
         style="fill:#231f20;fill-opacity:1;fill-rule:nonzero;stroke:none"
         transform="matrix(1.3333333,0,0,-1.3333333,323.884,113.016)" />
      <path
         id="path20"
         d="m 0,0 c 0,7.091 -1.385,8.803 -4.523,8.803 -3.301,0 -4.687,-3.465 -4.687,-8.884 0,-7.254 1.753,-9.047 4.769,-9.047 C -1.344,-9.128 0,-7.294 0,0 Z m -17.359,-0.896 c 0,10.106 5.541,15.404 13.04,15.404 9.658,0 12.47,-7.376 12.47,-13.611 0,-8.151 -2.568,-15.771 -12.715,-15.771 -8.232,0 -12.795,5.461 -12.795,13.978"
         style="fill:#231f20;fill-opacity:1;fill-rule:nonzero;stroke:none"
         transform="matrix(1.3333333,0,0,-1.3333333,349.63067,93.836)" />
      <path
         id="path21"
         d="m 0,0 h -6.561 l -9.658,28.404 h 8.028 l 3.586,-11.289 c 0.571,-1.752 0.897,-2.811 1.345,-5.338 h 0.041 c 0.448,2.282 1.019,4.075 1.508,5.542 l 4.034,11.085 h 7.702 L 0,0"
         style="fill:#231f20;fill-opacity:1;fill-rule:nonzero;stroke:none"
         transform="matrix(1.3333333,0,0,-1.3333333,382.44533,113.016)" />
      <path
         id="path22"
         d="m 0,0 v 28.404 h 16.504 l -0.53,-5.991 h -8.68 v -4.768 h 7.091 V 11.858 H 7.294 V 6.072 h 9.74 L 17.034,0 H 0"
         style="fill:#231f20;fill-opacity:1;fill-rule:nonzero;stroke:none"
         transform="matrix(1.3333333,0,0,-1.3333333,399.12267,113.016)" />
      <path
         id="path23"
         d="m 0,0 -5.013,9.862 c -0.733,1.467 -1.589,3.504 -2.2,5.338 0.163,-1.1 0.408,-3.708 0.408,-7.213 V 0 h -6.928 v 28.404 h 7.009 l 5.176,-9.74 c 0.814,-1.508 1.67,-3.505 2.363,-5.42 -0.204,1.671 -0.244,4.483 -0.244,6.357 v 8.803 H 7.498 L 7.498,0 H 0"
         style="fill:#231f20;fill-opacity:1;fill-rule:nonzero;stroke:none"
         transform="matrix(1.3333333,0,0,-1.3333333,446.49867,113.016)" />
      <path
         id="path24"
         d="m 0,0 c -4.278,0 -7.62,1.06 -10.472,2.567 l 2.566,5.706 C -5.868,7.091 -2.812,5.99 0.082,5.99 c 2.852,0 3.993,1.06 3.993,2.608 0,1.264 -0.896,1.794 -2.852,2.323 l -3.342,0.856 c -4.116,1.1 -6.927,3.341 -6.927,8.232 0,5.623 4.645,9.373 11.002,9.373 3.953,0 7.62,-1.02 10.147,-2.772 L 8.599,21.435 c -1.916,1.263 -4.443,1.997 -6.398,1.997 -1.875,0 -2.893,-0.897 -2.893,-2.038 0,-0.937 0.652,-1.874 2.771,-2.404 L 4.972,18.256 C 8.028,17.482 12.429,16.097 12.429,10.392 12.429,3.586 7.376,0 0,0"
         style="fill:#231f20;fill-opacity:1;fill-rule:nonzero;stroke:none"
         transform="matrix(1.3333333,0,0,-1.3333333,475.564,113.668)" />
      <path
         id="path25"
         d="M 0,0 8.883,-15.404 H -0.734 L -7.865,-0.122 -1.59,13 h 9.046 z m -7.947,-15.404 h -7.294 V 13 h 7.294 z"
         style="fill:#231f20;fill-opacity:1;fill-rule:nonzero;stroke:none"
         transform="matrix(1.3333333,0,0,-1.3333333,518.64933,92.477333)" />
      <path
         id="path26"
         d="m 0,0 v -12.021 h -7.457 v 11.858 l -8.762,16.545 h 8.72 l 2.486,-6.031 c 0.612,-1.508 0.857,-2.201 1.427,-3.953 0.529,1.345 1.018,2.649 1.507,3.831 l 2.486,6.153 h 8.68 L 0,0"
         style="fill:#231f20;fill-opacity:1;fill-rule:nonzero;stroke:none"
         transform="matrix(1.3333333,0,0,-1.3333333,549.996,96.988)" />
      <path
         id="path27"
         d="m 0,0 c -3.504,0 -6.683,1.06 -9.291,3.912 -2.241,2.486 -3.26,6.195 -3.26,10.229 0,3.546 0.57,6.235 1.956,8.802 2.404,4.442 6.52,6.439 11.492,6.439 2.893,0 5.949,-0.816 7.253,-2.079 L 5.053,21.924 c -1.263,0.979 -2.689,1.508 -4.238,1.508 -1.263,0 -2.445,-0.326 -3.178,-1.1 -1.386,-1.426 -1.834,-2.893 -1.834,-6.235 0,-4.686 0.204,-6.927 1.386,-8.313 0.937,-1.101 2.119,-1.793 3.626,-1.793 1.834,0 3.301,0.448 4.891,1.874 L 8.843,2.894 C 7.05,1.223 4.157,0 0,0"
         style="fill:#231f20;fill-opacity:1;fill-rule:nonzero;stroke:none"
         transform="matrix(1.3333333,0,0,-1.3333333,283.73333,176.09467)" />
      <path
         id="path28"
         d="m 0,0 v 28.404 h 16.504 l -0.53,-5.99 H 7.295 v -4.769 h 7.09 V 11.859 H 7.295 V 6.073 h 9.739 L 17.034,0 H 0"
         style="fill:#231f20;fill-opacity:1;fill-rule:nonzero;stroke:none"
         transform="matrix(1.3333333,0,0,-1.3333333,299.488,175.44267)" />
      <path
         id="path29"
         d="m 0,0 v -5.787 h 2.078 c 2.486,0 3.341,1.181 3.341,3.097 0,2.038 -1.1,2.69 -3.382,2.69 z m 6.316,-22.414 -2.975,7.947 c -1.1,2.934 -1.752,3.3 -3.341,3.3 V -22.414 H -7.295 V 5.99 h 9.781 c 8.353,0 11.043,-3.382 11.043,-8.109 0,-4.891 -2.567,-7.377 -5.909,-7.947 0.978,-0.285 2.16,-1.59 2.853,-3.057 0.937,-1.915 3.341,-7.171 4.278,-9.291 H 6.316"
         style="fill:#231f20;fill-opacity:1;fill-rule:nonzero;stroke:none"
         transform="matrix(1.3333333,0,0,-1.3333333,338.28,145.55733)" />
      <path
         id="path30"
         d="m 0,0 h -6.561 l -9.658,28.404 h 8.028 l 3.586,-11.288 c 0.571,-1.752 0.897,-2.812 1.345,-5.338 h 0.041 c 0.448,2.281 1.019,4.075 1.508,5.542 l 4.034,11.084 h 7.702 L 0,0"
         style="fill:#231f20;fill-opacity:1;fill-rule:nonzero;stroke:none"
         transform="matrix(1.3333333,0,0,-1.3333333,379.02667,175.44267)" />
      <path
         id="path31"
         d="m 0,0 v 28.404 h 16.504 l -0.53,-5.99 h -8.68 v -4.769 h 7.091 V 11.859 H 7.294 V 6.073 h 9.74 L 17.034,0 H 0"
         style="fill:#231f20;fill-opacity:1;fill-rule:nonzero;stroke:none"
         transform="matrix(1.3333333,0,0,-1.3333333,395.704,175.44267)" />
      <path
         id="path32"
         d="m 0,0 -5.012,9.863 c -0.733,1.466 -1.59,3.503 -2.201,5.337 0.164,-1.1 0.408,-3.708 0.408,-7.212 V 0 h -6.928 v 28.404 h 7.009 l 5.175,-9.739 c 0.816,-1.509 1.672,-3.505 2.364,-5.42 -0.203,1.67 -0.245,4.482 -0.245,6.357 v 8.802 H 7.499 L 7.499,0 H 0"
         style="fill:#231f20;fill-opacity:1;fill-rule:nonzero;stroke:none"
         transform="matrix(1.3333333,0,0,-1.3333333,443.08,175.44267)" />
      <path
         id="path33"
         d="m 0,0 v -12.022 h -7.457 v 11.859 l -8.761,16.545 h 8.72 l 2.486,-6.032 c 0.612,-1.507 0.856,-2.2 1.426,-3.952 0.53,1.344 1.019,2.649 1.508,3.831 l 2.486,6.153 h 8.68 L 0,0"
         style="fill:#231f20;fill-opacity:1;fill-rule:nonzero;stroke:none"
         transform="matrix(1.3333333,0,0,-1.3333333,477.632,159.41333)" />
      <path
         id="path34"
         d="M 0,0 8.884,-15.404 H -0.733 L -7.865,-0.123 -1.589,13 h 9.047 z m -7.946,-15.404 h -7.295 V 13 h 7.295 z"
         style="fill:#231f20;fill-opacity:1;fill-rule:nonzero;stroke:none"
         transform="matrix(1.3333333,0,0,-1.3333333,290.09067,217.32933)" />
      <path
         id="path35"
         d="m 0,0 v -5.788 h 2.078 c 2.486,0 3.341,1.182 3.341,3.097 C 5.419,-0.653 4.319,0 2.037,0 Z m 6.316,-22.414 -2.975,7.947 c -1.1,2.934 -1.752,3.3 -3.341,3.3 V -22.414 H -7.295 V 5.99 h 9.781 c 8.353,0 11.043,-3.382 11.043,-8.109 0,-4.891 -2.567,-7.377 -5.909,-7.947 0.978,-0.285 2.16,-1.59 2.853,-3.057 0.937,-1.915 3.341,-7.172 4.278,-9.291 H 6.316"
         style="fill:#231f20;fill-opacity:1;fill-rule:nonzero;stroke:none"
         transform="matrix(1.3333333,0,0,-1.3333333,315.19067,207.98267)" />
      <path
         id="path36"
         d="M 7.457,0 H 0 V 28.404 H 7.457 Z M 0,0 Z M 10.514,32.846 1.1,28.933 l -2.241,3.586 8.884,4.931 2.771,-4.604"
         style="fill:#231f20;fill-opacity:1;fill-rule:nonzero;stroke:none"
         transform="matrix(1.3333333,0,0,-1.3333333,339.8,237.868)" />
      <path
         id="path37"
         d="m 0,0 h -19.398 v 4.972 l 9.414,15.24 c 0.611,0.978 1.304,2.119 1.711,2.487 -0.53,-0.204 -1.874,-0.285 -2.893,-0.285 h -7.376 l 0.53,5.99 H 0.407 V 23.309 L -9.373,7.335 C -9.74,6.724 -10.392,6.072 -10.677,5.828 -10.025,5.99 -8.64,6.072 -7.58,6.072 H 0.57 L 0,0"
         style="fill:#231f20;fill-opacity:1;fill-rule:nonzero;stroke:none"
         transform="matrix(1.3333333,0,0,-1.3333333,381.744,237.868)" />
      <path
         id="path38"
         d="M 0,0 -7.864,5.502 -5.786,9.292 -0.121,6.439 5.38,9.292 7.621,5.502 0,0"
         style="fill:#231f20;fill-opacity:1;fill-rule:nonzero;stroke:none"
         transform="matrix(1.3333333,0,0,-1.3333333,283.34667,136.78133)" />
      <path
         id="path39"
         d="M 0,0 -7.865,5.502 -5.786,9.291 -0.122,6.439 5.379,9.291 7.62,5.502 0,0"
         style="fill:#231f20;fill-opacity:1;fill-rule:nonzero;stroke:none"
         transform="matrix(1.3333333,0,0,-1.3333333,370.14133,199.47867)" />
      <path
         id="path40"
         d="m 0,0 -9.413,-3.912 -2.241,3.585 8.883,4.932 L 0,0"
         style="fill:#231f20;fill-opacity:1;fill-rule:nonzero;stroke:none"
         transform="matrix(1.3333333,0,0,-1.3333333,554.28933,69.206667)" />
      <path
         id="path41"
         d="m 0,0 -9.414,-3.913 -2.241,3.586 8.883,4.931 L 0,0"
         style="fill:#231f20;fill-opacity:1;fill-rule:nonzero;stroke:none"
         transform="matrix(1.3333333,0,0,-1.3333333,482.43333,131.86133)" />
    </g>
  </g>
</svg>
