<?xml version="1.0" encoding="UTF-8" standalone="no"?>
<!-- Created with Inkscape (http://www.inkscape.org/) -->

<svg
   width="155.40814mm"
   height="43.606152mm"
   viewBox="0 0 155.40814 43.606152"
   version="1.1"
   id="svg1"
   inkscape:export-filename="Portugal RC left.png"
   inkscape:export-xdpi="300"
   inkscape:export-ydpi="300"
   xmlns:inkscape="http://www.inkscape.org/namespaces/inkscape"
   xmlns:sodipodi="http://sodipodi.sourceforge.net/DTD/sodipodi-0.dtd"
   xmlns="http://www.w3.org/2000/svg"
   xmlns:svg="http://www.w3.org/2000/svg">
  <sodipodi:namedview
     id="namedview1"
     pagecolor="#ffffff"
     bordercolor="#666666"
     borderopacity="1.0"
     inkscape:showpageshadow="2"
     inkscape:pageopacity="0.0"
     inkscape:pagecheckerboard="0"
     inkscape:deskcolor="#d1d1d1"
     inkscape:document-units="mm"
     inkscape:export-bgcolor="#ffffffff" />
  <defs
     id="defs1" />
  <g
     inkscape:label="Layer 1"
     inkscape:groupmode="layer"
     id="layer1"
     transform="translate(-109.80208,-87.047916)">
    <path
       id="path49"
       d="m 146.43381,126.88217 h 3.12067 v -2.65042 h 1.02553 c 2.20415,0 3.22968,-1.06892 3.22968,-2.63948 0,-1.48343 -0.89465,-2.58516 -2.7933,-2.58516 h -4.58258 z m 3.12067,-4.43936 v -1.64676 h 0.32703 c 0.67662,0 0.93839,0.23989 0.93839,0.79622 0,0.55598 -0.30551,0.85054 -1.11302,0.85054 h -0.1524"
       style="fill:#231f20;fill-opacity:1;fill-rule:evenodd;stroke:none;stroke-width:0.352778" />
    <path
       id="path50"
       d="m 157.6532,122.94482 c 0,-1.778 0.33831,-2.09409 0.84032,-2.09409 0.50165,0 0.83996,0.31609 0.83996,2.09409 0,1.82139 -0.35983,2.09409 -0.83996,2.09409 -0.48013,0 -0.84032,-0.2727 -0.84032,-2.09409 z m -3.22968,0 c 0,2.45427 1.3529,4.14479 4.07,4.14479 2.71674,0 4.06964,-1.69052 4.06964,-4.14479 0,-2.45427 -1.3529,-4.14479 -4.06964,-4.14479 -2.7171,0 -4.07,1.69052 -4.07,4.14479"
       style="fill:#231f20;fill-opacity:1;fill-rule:evenodd;stroke:none;stroke-width:0.352778" />
    <path
       id="path51"
       d="m 163.5901,126.88217 h 3.05506 V 124.079 h 0.36018 c 0.50165,0 0.69815,0.15275 0.76377,0.54539 0.109,0.67628 0.20708,1.66864 0.39264,2.25778 h 3.05505 c -0.35983,-1.18886 -0.33796,-2.30152 -0.51258,-2.9778 -0.15276,-0.59972 -0.56727,-0.93803 -1.33139,-1.0033 v -0.0219 c 1.17863,-0.28363 1.56034,-0.97084 1.56034,-1.87607 0,-1.48343 -0.99272,-1.99602 -2.68393,-1.99602 h -4.65914 z m 3.05506,-4.59211 v -1.49401 h 0.28363 c 0.61101,0 1.01494,0.11994 1.01494,0.69779 0,0.58914 -0.43674,0.79622 -1.03681,0.79622 h -0.26176"
       style="fill:#231f20;fill-opacity:1;fill-rule:evenodd;stroke:none;stroke-width:0.352778" />
    <path
       id="path52"
       d="m 173.28161,126.88217 h 3.12067 v -5.7591 h 1.94204 v -2.11596 h -7.00475 v 2.11596 h 1.94204 v 5.7591"
       style="fill:#231f20;fill-opacity:1;fill-rule:nonzero;stroke:none;stroke-width:0.352778" />
    <path
       id="path53"
       d="m 186.56052,119.00711 h -3.12067 v 5.10469 c 0,0.6216 -0.29457,0.86184 -0.62195,0.86184 -0.32702,0 -0.62195,-0.24024 -0.62195,-0.86184 v -5.10469 h -3.12032 v 5.23557 c 0,1.89795 1.36384,2.84692 3.74227,2.84692 2.37878,0 3.74262,-0.94897 3.74262,-2.84692 v -5.23557"
       style="fill:#231f20;fill-opacity:1;fill-rule:nonzero;stroke:none;stroke-width:0.352778" />
    <path
       id="path54"
       d="m 191.62465,123.99186 h 1.06927 v 0.94897 c -0.25083,0.11995 -0.53446,0.16369 -0.82903,0.16369 -0.40393,0 -0.70943,-0.14182 -0.895,-0.46919 -0.14181,-0.25083 -0.20743,-0.77435 -0.20743,-1.53811 0,-0.66499 0.0437,-1.43969 0.1965,-1.75578 0.15275,-0.31644 0.45826,-0.55633 0.92745,-0.55633 0.1965,0 0.38206,0.0437 0.51294,0.14182 0.13088,0.0981 0.22895,0.26176 0.24024,0.51258 h 2.92418 c -0.0328,-1.84326 -1.29858,-2.63948 -3.72075,-2.63948 -2.92453,0 -4.31024,1.73426 -4.31024,4.14479 0,2.41053 1.38571,4.14478 4.22275,4.14478 1.28764,0 2.70616,-0.20743 3.92818,-0.52352 v -4.12327 h -4.05906 v 1.54905"
       style="fill:#231f20;fill-opacity:1;fill-rule:nonzero;stroke:none;stroke-width:0.352778" />
    <path
       id="path55"
       d="m 204.32676,119.00711 h -3.12067 v 5.10469 c 0,0.6216 -0.29457,0.86184 -0.62195,0.86184 -0.32738,0 -0.62195,-0.24024 -0.62195,-0.86184 v -5.10469 h -3.12067 v 5.23557 c 0,1.89795 1.36384,2.84692 3.74262,2.84692 2.37878,0 3.74262,-0.94897 3.74262,-2.84692 v -5.23557"
       style="fill:#231f20;fill-opacity:1;fill-rule:nonzero;stroke:none;stroke-width:0.352778" />
    <path
       id="path56"
       d="m 205.583,126.88217 h 6.08859 v -2.0507 h -3.09915 v -0.88335 h 2.77177 v -2.0507 h -2.77177 v -0.83961 h 3.00073 v -2.0507 H 205.583 v 7.87506"
       style="fill:#231f20;fill-opacity:1;fill-rule:nonzero;stroke:none;stroke-width:0.352778" />
    <path
       id="path57"
       d="m 219.51667,121.24302 c 0,-1.83233 -1.4732,-2.44334 -3.43711,-2.44334 -2.30223,0 -3.62233,0.9271 -3.62233,2.56328 0,1.01459 0.42545,1.7452 1.63654,2.10503 l 2.21509,0.65475 c 0.29457,0.0871 0.52352,0.23989 0.52352,0.53446 0,0.3489 -0.29457,0.64347 -0.75282,0.64347 -0.29457,0 -0.49107,-0.0981 -0.61101,-0.25083 -0.11995,-0.16368 -0.16369,-0.3817 -0.16369,-0.60007 h -2.9898 c 0,2.0507 1.7459,2.63984 3.64455,2.63984 2.22568,0 3.79695,-0.80716 3.79695,-2.73791 0,-0.94897 -0.43639,-1.65806 -1.4291,-2.07257 -0.79658,-0.33796 -1.89865,-0.55598 -2.49873,-0.7306 -0.32738,-0.0981 -0.51294,-0.21837 -0.51294,-0.50165 0,-0.24025 0.21837,-0.45826 0.72002,-0.45826 0.40393,0 0.67663,0.16369 0.68757,0.6544 h 2.79329"
       style="fill:#231f20;fill-opacity:1;fill-rule:nonzero;stroke:none;stroke-width:0.352778" />
    <path
       id="path58"
       d="m 223.74189,123.69729 0.68756,-2.96686 h 0.0215 l 0.62195,2.96686 z m -3.77507,3.18488 h 2.98943 l 0.31645,-1.26506 h 2.25883 l 0.30551,1.26506 h 3.22968 l -2.53154,-7.87506 h -4.04812 l -2.52024,7.87506"
       style="fill:#231f20;fill-opacity:1;fill-rule:evenodd;stroke:none;stroke-width:0.352778" />
    <path
       id="path59"
       d="m 199.89729,115.35692 h 4.03719 l 2.20415,-7.87541 h -2.98979 l -1.1564,6.15209 h -0.0219 l -1.11301,-6.15209 h -3.17535 l 2.21509,7.87541"
       style="fill:#231f20;fill-opacity:1;fill-rule:nonzero;stroke:none;stroke-width:0.352778" />
    <path
       id="path60"
       d="m 206.80397,115.35692 h 6.08859 v -2.0507 h -3.0988 v -0.88335 h 2.77142 v -2.0507 h -2.77142 v -0.83996 h 3.00038 v -2.0507 h -5.99017 v 7.87541"
       style="fill:#231f20;fill-opacity:1;fill-rule:nonzero;stroke:none;stroke-width:0.352778" />
    <path
       id="path61"
       d="m 213.87434,115.35692 h 3.05506 v -2.80317 h 0.36018 c 0.50165,0 0.69815,0.15275 0.76377,0.54539 0.109,0.67628 0.20708,1.66864 0.39264,2.25778 h 3.05505 c -0.35983,-1.18886 -0.33796,-2.30152 -0.51258,-2.9778 -0.15276,-0.59972 -0.56762,-0.93803 -1.33139,-1.0033 v -0.0219 c 1.17863,-0.28363 1.56034,-0.97084 1.56034,-1.87607 0,-1.48343 -0.99307,-1.99637 -2.68393,-1.99637 h -4.65914 z m 3.05506,-4.59211 v -1.49436 h 0.28363 c 0.61101,0 1.01459,0.11994 1.01459,0.69814 0,0.58914 -0.43639,0.79622 -1.03646,0.79622 h -0.26176"
       style="fill:#231f20;fill-opacity:1;fill-rule:evenodd;stroke:none;stroke-width:0.352778" />
    <path
       id="path62"
       d="m 230.1127,115.35692 h 2.64054 v -7.87541 h -4.33176 l -0.86183,4.69053 h -0.0219 l -0.86184,-4.69053 h -4.33211 v 7.87541 h 2.64054 v -5.62822 h 0.0219 l 1.11302,5.62822 h 2.85855 l 1.11302,-5.62822 h 0.0219 v 5.62822"
       style="fill:#231f20;fill-opacity:1;fill-rule:nonzero;stroke:none;stroke-width:0.352778" />
    <path
       id="path63"
       d="m 234.06734,115.35692 h 6.08859 v -2.0507 h -3.0988 v -0.88335 h 2.77142 v -2.0507 h -2.77142 v -0.83996 h 3.00038 v -2.0507 h -5.99017 v 7.87541"
       style="fill:#231f20;fill-opacity:1;fill-rule:nonzero;stroke:none;stroke-width:0.352778" />
    <path
       id="path64"
       d="m 241.13771,115.35692 h 5.99017 v -2.11596 h -2.8695 v -5.75945 h -3.12067 v 7.87541"
       style="fill:#231f20;fill-opacity:1;fill-rule:nonzero;stroke:none;stroke-width:0.352778" />
    <path
       id="path65"
       d="m 252.44283,115.35692 h 3.12067 v -7.87541 h -3.12067 v 2.66171 h -1.33103 v -2.66171 h -3.12067 v 7.87541 h 3.12067 v -2.9016 h 1.33103 v 2.9016"
       style="fill:#231f20;fill-opacity:1;fill-rule:nonzero;stroke:none;stroke-width:0.352778" />
    <path
       id="path66"
       d="m 259.88538,112.17204 0.68756,-2.96686 h 0.0215 l 0.6223,2.96686 z m -3.77507,3.18488 h 2.98943 l 0.31645,-1.26506 h 2.25883 l 0.30551,1.26506 h 3.22968 l -2.53154,-7.87506 h -4.04812 l -2.52024,7.87506"
       style="fill:#231f20;fill-opacity:1;fill-rule:evenodd;stroke:none;stroke-width:0.352778" />
    <path
       id="path67"
       d="m 165.17866,112.53435 c -0.0437,0.8315 -0.3175,1.07244 -0.72249,1.07244 -0.7881,0 -0.85372,-0.89746 -0.85372,-2.10114 0,-1.26929 0.0765,-2.10114 0.88653,-2.10114 0.38312,0 0.71155,0.17533 0.7553,1.07244 h 2.86808 c -0.0109,-2.31987 -1.69686,-3.12949 -3.689,-3.12949 -2.67088,0 -4.13808,1.66335 -4.06117,4.12538 0,2.50578 1.28058,4.191 4.05024,4.191 1.95932,0 3.69993,-0.95179 3.69993,-3.12949 h -2.9337"
       style="fill:#231f20;fill-opacity:1;fill-rule:nonzero;stroke:none;stroke-width:0.352778" />
    <path
       id="path68"
       d="m 169.49031,115.45605 h 3.06493 v -2.81234 h 0.36125 c 0.50376,0 0.70061,0.1531 0.76623,0.54715 0.10971,0.6784 0.20814,1.67429 0.39405,2.26519 h 3.06529 c -0.36124,-1.19274 -0.33937,-2.30893 -0.5147,-2.98732 -0.15311,-0.60184 -0.56903,-0.94121 -1.33527,-1.00683 V 111.44 c 1.18216,-0.28469 1.56528,-0.97402 1.56528,-1.88207 0,-1.48837 -0.99589,-2.00272 -2.69275,-2.00272 h -4.67431 z m 3.06493,-4.60692 v -1.49931 h 0.28469 c 0.61313,0 1.01812,0.1203 1.01812,0.70026 0,0.59091 -0.4378,0.79905 -1.03999,0.79905 h -0.26282"
       style="fill:#231f20;fill-opacity:1;fill-rule:evenodd;stroke:none;stroke-width:0.352778" />
    <path
       id="path69"
       d="m 185.78864,107.55524 h -3.13055 v 5.12127 c 0,0.62372 -0.29563,0.86431 -0.62406,0.86431 -0.32844,0 -0.62407,-0.24059 -0.62407,-0.86431 v -5.12127 h -3.13055 v 5.25251 c 0,1.90394 1.36807,2.85609 3.75462,2.85609 2.38619,0 3.75461,-0.95215 3.75461,-2.85609 v -5.25251"
       style="fill:#231f20;fill-opacity:1;fill-rule:nonzero;stroke:none;stroke-width:0.352778" />
    <path
       id="path70"
       d="m 187.08934,115.45605 h 6.99488 v -2.0574 h -3.3715 l 3.29494,-3.9176 v -1.92581 h -6.8199 v 2.0574 h 3.20746 l -3.30588,3.91724 v 1.92617"
       style="fill:#231f20;fill-opacity:1;fill-rule:nonzero;stroke:none;stroke-width:0.352778" />
    <path
       id="path71"
       d="m 124.40849,87.047916 h 14.39615 v 14.605354 h 14.60642 v 14.39545 h -14.60642 v 14.60535 h -14.39615 v -14.60535 h -14.60641 v -14.39545 h 14.60641 V 87.047916"
       style="fill:#ed1c24;fill-opacity:1;fill-rule:nonzero;stroke:none;stroke-width:0.352778" />
  </g>
</svg>
