<?xml version="1.0" encoding="UTF-8" standalone="no"?>
<!-- Created with Inkscape (http://www.inkscape.org/) -->

<svg
   width="145.32211mm"
   height="42.057812mm"
   viewBox="0 0 145.32211 42.057812"
   version="1.1"
   id="svg1"
   xmlns:inkscape="http://www.inkscape.org/namespaces/inkscape"
   xmlns:sodipodi="http://sodipodi.sourceforge.net/DTD/sodipodi-0.dtd"
   xmlns="http://www.w3.org/2000/svg"
   xmlns:svg="http://www.w3.org/2000/svg">
  <sodipodi:namedview
     id="namedview1"
     pagecolor="#ffffff"
     bordercolor="#666666"
     borderopacity="1.0"
     inkscape:showpageshadow="2"
     inkscape:pageopacity="0.0"
     inkscape:pagecheckerboard="0"
     inkscape:deskcolor="#d1d1d1"
     inkscape:document-units="mm" />
  <defs
     id="defs1" />
  <g
     inkscape:label="Layer 1"
     inkscape:groupmode="layer"
     id="layer1"
     transform="translate(-179.12291,-92.604167)">
    <path
       id="path2"
       d="m 214.33886,131.64326 h 2.97215 v -2.52448 h 0.97684 c 2.09903,0 3.07587,-1.01811 3.07587,-2.51389 0,-1.41288 -0.85231,-2.46239 -2.66029,-2.46239 h -4.36457 z m 2.97215,-4.22804 v -1.5688 h 0.31151 c 0.64452,0 0.89393,0.2286 0.89393,0.75847 0,0.52987 -0.29104,0.81033 -1.06009,0.81033 h -0.14535"
       style="fill:#231f20;fill-opacity:1;fill-rule:evenodd;stroke:none;stroke-width:0.352778" />
    <path
       id="path3"
       d="m 225.02379,127.89288 c 0,-1.69333 0.32209,-1.99461 0.8001,-1.99461 0.47801,0 0.8001,0.30128 0.8001,1.99461 0,1.73496 -0.3429,1.99461 -0.8001,1.99461 -0.4572,0 -0.8001,-0.25965 -0.8001,-1.99461 z m -3.07587,0 c 0,2.33751 1.28835,3.94758 3.87597,3.94758 2.58762,0 3.87632,-1.61007 3.87632,-3.94758 0,-2.33751 -1.2887,-3.94758 -3.87632,-3.94758 -2.58762,0 -3.87597,1.61007 -3.87597,3.94758"
       style="fill:#231f20;fill-opacity:1;fill-rule:evenodd;stroke:none;stroke-width:0.352778" />
    <path
       id="path4"
       d="m 230.67847,131.64326 h 2.90971 v -2.66982 h 0.3429 c 0.47801,0 0.66499,0.14534 0.72743,0.51929 0.10407,0.64417 0.19755,1.58961 0.3743,2.15053 h 2.90935 c -0.3429,-1.13242 -0.32208,-2.19216 -0.48824,-2.83598 -0.14534,-0.5715 -0.54046,-0.89359 -1.26788,-0.95603 v -0.0208 c 1.12254,-0.26988 1.48625,-0.92428 1.48625,-1.78682 0,-1.41288 -0.9458,-1.90112 -2.55658,-1.90112 h -4.43724 z m 2.90971,-4.37374 v -1.4231 h 0.27023 c 0.58173,0 0.96626,0.1143 0.96626,0.66498 0,0.56092 -0.41558,0.75812 -0.98708,0.75812 h -0.24941"
       style="fill:#231f20;fill-opacity:1;fill-rule:evenodd;stroke:none;stroke-width:0.352778" />
    <path
       id="path5"
       d="m 239.90855,131.64326 h 2.97215 v -5.48534 h 1.84962 v -2.01542 h -6.67138 v 2.01542 h 1.84961 v 5.48534"
       style="fill:#231f20;fill-opacity:1;fill-rule:nonzero;stroke:none;stroke-width:0.352778" />
    <path
       id="path6"
       d="m 252.55527,124.14285 h -2.97215 v 4.86198 c 0,0.59196 -0.28046,0.82056 -0.59232,0.82056 -0.31185,0 -0.59231,-0.2286 -0.59231,-0.82056 v -4.86198 h -2.97215 v 4.98651 c 0,1.80764 1.29892,2.71145 3.56446,2.71145 2.26554,0 3.56447,-0.90381 3.56447,-2.71145 v -4.98651"
       style="fill:#231f20;fill-opacity:1;fill-rule:nonzero;stroke:none;stroke-width:0.352778" />
    <path
       id="path7"
       d="m 257.37845,128.89054 h 1.01847 v 0.90382 c -0.23918,0.1143 -0.50906,0.15557 -0.78987,0.15557 -0.38453,0 -0.67557,-0.13476 -0.85196,-0.44662 -0.13511,-0.23883 -0.19755,-0.73765 -0.19755,-1.46473 0,-0.63359 0.0416,-1.37125 0.18697,-1.67252 0.1457,-0.30127 0.43638,-0.52987 0.88335,-0.52987 0.18698,0 0.36372,0.0416 0.4886,0.13511 0.12453,0.0935 0.21802,0.24942 0.2286,0.48825 h 2.78483 c -0.031,-1.75578 -1.23649,-2.51425 -3.54365,-2.51425 -2.78483,0 -4.10493,1.65206 -4.10493,3.94794 0,2.29587 1.3201,3.94758 4.02167,3.94758 1.22626,0 2.57739,-0.1972 3.74121,-0.49883 v -3.92677 h -3.86574 v 1.47532"
       style="fill:#231f20;fill-opacity:1;fill-rule:nonzero;stroke:none;stroke-width:0.352778" />
    <path
       id="path8"
       d="m 269.47556,124.14285 h -2.97215 v 4.86198 c 0,0.59196 -0.28046,0.82056 -0.59232,0.82056 -0.31185,0 -0.59231,-0.2286 -0.59231,-0.82056 v -4.86198 h -2.9718 v 4.98651 c 0,1.80764 1.29893,2.71145 3.56411,2.71145 2.26554,0 3.56447,-0.90381 3.56447,-2.71145 v -4.98651"
       style="fill:#231f20;fill-opacity:1;fill-rule:nonzero;stroke:none;stroke-width:0.352778" />
    <path
       id="path9"
       d="m 270.67218,131.64326 h 5.79861 v -1.95298 h -2.95134 v -0.84137 h 2.63948 v -1.95333 h -2.63948 v -0.79975 h 2.85785 v -1.95333 h -5.70512 v 7.50076"
       style="fill:#231f20;fill-opacity:1;fill-rule:nonzero;stroke:none;stroke-width:0.352778" />
    <path
       id="path10"
       d="m 283.94262,126.27222 c 0,-1.74519 -1.403,-2.32692 -3.27342,-2.32692 -2.19287,0 -3.45017,0.883 -3.45017,2.44122 0,0.96626 0.40534,1.66229 1.55892,2.00519 l 2.10961,0.623 c 0.28011,0.0833 0.49848,0.2286 0.49848,0.50906 0,0.33267 -0.28046,0.61313 -0.71684,0.61313 -0.28082,0 -0.46779,-0.0935 -0.58209,-0.23918 -0.1143,-0.15558 -0.15593,-0.36336 -0.15593,-0.57115 h -2.84727 c 0,1.95298 1.66265,2.51389 3.47099,2.51389 2.11984,0 3.61632,-0.7687 3.61632,-2.60738 0,-0.90381 -0.41557,-1.57903 -1.36137,-1.97379 -0.75847,-0.32208 -1.80799,-0.52987 -2.37984,-0.69603 -0.31185,-0.0935 -0.48824,-0.20778 -0.48824,-0.47801 0,-0.2286 0.20778,-0.43639 0.6858,-0.43639 0.38453,0 0.64417,0.15593 0.65475,0.62336 h 2.6603"
       style="fill:#231f20;fill-opacity:1;fill-rule:nonzero;stroke:none;stroke-width:0.352778" />
    <path
       id="path11"
       d="m 287.96676,128.60973 0.65476,-2.82575 h 0.0208 l 0.59231,2.82575 z m -3.59551,3.03354 h 2.84727 l 0.30127,-1.20509 h 2.15124 l 0.29104,1.20509 h 3.07587 l -2.41088,-7.50076 h -3.85551 l -2.4003,7.50076"
       style="fill:#231f20;fill-opacity:1;fill-rule:evenodd;stroke:none;stroke-width:0.352778" />
    <path
       id="path12"
       d="m 216.77867,120.66623 h 3.84492 l 2.09939,-7.50076 h -2.84763 l -1.10137,5.85929 h -0.0208 l -1.0601,-5.85929 h -3.02401 l 2.10961,7.50076"
       style="fill:#231f20;fill-opacity:1;fill-rule:nonzero;stroke:none;stroke-width:0.352778" />
    <path
       id="path13"
       d="m 223.35656,120.66623 h 5.79861 v -1.95298 h -2.95134 v -0.84173 h 2.63948 v -1.95297 h -2.63948 v -0.79975 h 2.85785 v -1.95333 h -5.70512 v 7.50076"
       style="fill:#231f20;fill-opacity:1;fill-rule:nonzero;stroke:none;stroke-width:0.352778" />
    <path
       id="path14"
       d="m 230.09074,120.66623 h 2.90971 v -2.66982 h 0.3429 c 0.47801,0 0.66499,0.14534 0.72743,0.51929 0.10407,0.64417 0.19755,1.58961 0.37394,2.15053 h 2.91007 c -0.34326,-1.13242 -0.32244,-2.19216 -0.4886,-2.83598 -0.1457,-0.5715 -0.54046,-0.89359 -1.26788,-0.95568 v -0.0208 c 1.12218,-0.27023 1.4859,-0.92463 1.4859,-1.78717 0,-1.41252 -0.94545,-1.90112 -2.55623,-1.90112 h -4.43724 z m 2.90971,-4.37374 v -1.4231 h 0.27023 c 0.58173,0 0.96626,0.1143 0.96626,0.66498 0,0.56092 -0.41558,0.75812 -0.98708,0.75812 h -0.24941"
       style="fill:#231f20;fill-opacity:1;fill-rule:evenodd;stroke:none;stroke-width:0.352778" />
    <path
       id="path15"
       d="m 245.55581,120.66623 h 2.51495 v -7.50076 h -4.12573 l -0.82092,4.46722 h -0.0208 l -0.82091,-4.46722 h -4.12574 v 7.50076 h 2.51495 v -5.36046 h 0.0208 l 1.06009,5.36046 h 2.72239 l 1.0601,-5.36046 h 0.0208 v 5.36046"
       style="fill:#231f20;fill-opacity:1;fill-rule:nonzero;stroke:none;stroke-width:0.352778" />
    <path
       id="path16"
       d="m 249.32207,120.66623 h 5.79861 v -1.95298 h -2.95134 v -0.84173 h 2.63948 v -1.95297 h -2.63948 v -0.79975 h 2.85785 v -1.95333 h -5.70512 v 7.50076"
       style="fill:#231f20;fill-opacity:1;fill-rule:nonzero;stroke:none;stroke-width:0.352778" />
    <path
       id="path17"
       d="m 256.05624,120.66623 h 5.70512 v -2.01542 h -2.73297 v -5.48534 h -2.97215 v 7.50076"
       style="fill:#231f20;fill-opacity:1;fill-rule:nonzero;stroke:none;stroke-width:0.352778" />
    <path
       id="path18"
       d="m 266.82302,120.66623 h 2.97215 v -7.50076 h -2.97215 v 2.53506 h -1.26788 v -2.53506 h -2.9718 v 7.50076 h 2.9718 v -2.76331 h 1.26788 v 2.76331"
       style="fill:#231f20;fill-opacity:1;fill-rule:nonzero;stroke:none;stroke-width:0.352778" />
    <path
       id="path19"
       d="m 273.91138,117.63304 0.65476,-2.82575 h 0.0208 l 0.59231,2.82575 z m -3.59551,3.03354 h 2.84727 l 0.30127,-1.20509 h 2.15124 l 0.29104,1.20509 h 3.07587 l -2.41088,-7.50076 h -3.85516 l -2.40065,7.50076"
       style="fill:#231f20;fill-opacity:1;fill-rule:evenodd;stroke:none;stroke-width:0.352778" />
    <path
       id="path20"
       d="m 183.71281,117.97806 c -0.0416,0.79199 -0.30233,1.02129 -0.68827,1.02129 -0.75071,0 -0.81315,-0.85478 -0.81315,-2.00095 0,-1.20897 0.073,-2.00131 0.84455,-2.00131 0.36512,0 0.67768,0.16686 0.71931,1.02129 h 2.73156 c -0.0106,-2.20945 -1.61608,-2.98062 -3.51331,-2.98062 -2.54388,0 -3.94088,1.58433 -3.86786,3.92924 0,2.38654 1.21955,3.99168 3.85727,3.99168 1.8662,0 3.5239,-0.90664 3.5239,-2.98062 h -2.794"
       style="fill:#231f20;fill-opacity:1;fill-rule:nonzero;stroke:none;stroke-width:0.352778" />
    <path
       id="path21"
       d="m 187.8195,120.76077 h 2.91924 v -2.67864 h 0.34395 c 0.47978,0 0.66711,0.14605 0.7299,0.52105 0.10407,0.64629 0.19791,1.59491 0.37536,2.15759 h 2.91888 c -0.34396,-1.1363 -0.32314,-2.19922 -0.49001,-2.84551 -0.1457,-0.57291 -0.54186,-0.89605 -1.27176,-0.95885 v -0.0208 c 1.12606,-0.27093 1.49084,-0.92745 1.49084,-1.79246 0,-1.41746 -0.94862,-1.90747 -2.5647,-1.90747 h -4.4517 z m 2.91924,-4.38785 v -1.42769 h 0.27093 c 0.58385,0 0.96979,0.1143 0.96979,0.66675 0,0.56268 -0.41699,0.76094 -0.9906,0.76094 h -0.25012"
       style="fill:#231f20;fill-opacity:1;fill-rule:evenodd;stroke:none;stroke-width:0.352778" />
    <path
       id="path22"
       d="m 203.34207,113.23567 h -2.98168 v 4.87751 c 0,0.59407 -0.28151,0.82338 -0.59443,0.82338 -0.31256,0 -0.59408,-0.22931 -0.59408,-0.82338 v -4.87751 h -2.98167 v 5.00274 c 0,1.81363 1.30316,2.72027 3.57575,2.72027 2.27295,0 3.57611,-0.90664 3.57611,-2.72027 v -5.00274"
       style="fill:#231f20;fill-opacity:1;fill-rule:nonzero;stroke:none;stroke-width:0.352778" />
    <path
       id="path23"
       d="m 204.58067,120.76077 h 6.66186 v -1.95933 h -3.21099 l 3.13796,-3.73133 v -1.83444 h -6.49499 v 1.95933 h 3.0547 l -3.14854,3.73133 v 1.83444"
       style="fill:#231f20;fill-opacity:1;fill-rule:nonzero;stroke:none;stroke-width:0.352778" />
    <path
       id="path24"
       d="m 296.46552,92.604167 h 13.88851 v 14.086773 h 14.091 v 13.88427 h -14.091 v 14.08677 h -13.88851 v -14.08677 h -14.09135 v -13.88427 h 14.09135 V 92.604167"
       style="fill:#ed1c24;fill-opacity:1;fill-rule:nonzero;stroke:none;stroke-width:0.352778" />
  </g>
</svg>
