<?xml version="1.0" encoding="UTF-8" standalone="no"?>
<!-- Created with Inkscape (http://www.inkscape.org/) -->

<svg
   width="116.42374mm"
   height="94.306671mm"
   viewBox="0 0 116.42373 94.306672"
   version="1.1"
   id="svg1"
   inkscape:export-filename="Portugal RC right.png"
   inkscape:export-xdpi="300"
   inkscape:export-ydpi="300"
   xmlns:inkscape="http://www.inkscape.org/namespaces/inkscape"
   xmlns:sodipodi="http://sodipodi.sourceforge.net/DTD/sodipodi-0.dtd"
   xmlns="http://www.w3.org/2000/svg"
   xmlns:svg="http://www.w3.org/2000/svg">
  <sodipodi:namedview
     id="namedview1"
     pagecolor="#ffffff"
     bordercolor="#666666"
     borderopacity="1.0"
     inkscape:showpageshadow="2"
     inkscape:pageopacity="0.0"
     inkscape:pagecheckerboard="0"
     inkscape:deskcolor="#d1d1d1"
     inkscape:document-units="mm"
     inkscape:export-bgcolor="#ffffffff" />
  <defs
     id="defs1" />
  <g
     inkscape:label="Layer 1"
     inkscape:groupmode="layer"
     id="layer1"
     transform="translate(-242.88749,-96.308331)">
    <path
       id="path26"
       d="m 318.25706,96.308331 h 20.37821 v 20.669249 h 20.67595 v 20.37221 h -20.67595 v 20.6696 h -20.37821 v -20.6696 h -20.67595 v -20.37221 h 20.67595 V 96.308331"
       style="fill:#ed1c24;fill-opacity:1;fill-rule:nonzero;stroke:none;stroke-width:0.352778" />
    <path
       id="path27"
       d="m 243.78708,190.32537 h 4.36069 v -3.70417 h 1.43333 c 3.0801,0 4.51344,-1.49366 4.51344,-3.68864 0,-2.07328 -1.25024,-3.6128 -3.90349,-3.6128 h -6.40397 z m 4.36069,-6.20395 v -2.30187 h 0.45755 c 0.94544,0 1.31127,0.33549 1.31127,1.11301 0,0.77717 -0.42686,1.18886 -1.55539,1.18886 h -0.21343"
       style="fill:#231f20;fill-opacity:1;fill-rule:evenodd;stroke:none;stroke-width:0.352778" />
    <path
       id="path28"
       d="m 259.46523,184.82274 c 0,-2.48461 0.47272,-2.92664 1.17404,-2.92664 0.70133,0 1.17405,0.44203 1.17405,2.92664 0,2.54564 -0.50306,2.92664 -1.17405,2.92664 -0.67098,0 -1.17404,-0.381 -1.17404,-2.92664 z m -4.51344,0 c 0,3.42971 1.89089,5.79226 5.68748,5.79226 3.79695,0 5.68749,-2.36255 5.68749,-5.79226 0,-3.42971 -1.89054,-5.79261 -5.68749,-5.79261 -3.79659,0 -5.68748,2.3629 -5.68748,5.79261"
       style="fill:#231f20;fill-opacity:1;fill-rule:evenodd;stroke:none;stroke-width:0.352778" />
    <path
       id="path29"
       d="m 267.76186,190.32537 h 4.26932 v -3.9176 h 0.50341 c 0.70132,0 0.97578,0.21343 1.06715,0.76236 0.1524,0.94509 0.28963,2.33221 0.54893,3.15524 h 4.26931 c -0.50306,-1.66158 -0.47272,-3.21627 -0.71649,-4.16137 -0.21343,-0.8382 -0.79304,-1.31092 -1.8602,-1.40229 v -0.0303 c 1.64677,-0.39652 2.18017,-1.35678 2.18017,-2.62184 0,-2.07328 -1.38748,-2.78977 -3.75073,-2.78977 h -6.51087 z m 4.26932,-6.41738 v -2.08844 h 0.39652 c 0.85372,0 1.41817,0.16792 1.41817,0.97578 0,0.82303 -0.60996,1.11266 -1.44886,1.11266 h -0.36583"
       style="fill:#231f20;fill-opacity:1;fill-rule:evenodd;stroke:none;stroke-width:0.352778" />
    <path
       id="path30"
       d="m 281.30535,190.32537 h 4.36104 v -8.04827 h 2.71392 v -2.95734 h -9.78888 v 2.95734 h 2.71392 v 8.04827"
       style="fill:#231f20;fill-opacity:1;fill-rule:nonzero;stroke:none;stroke-width:0.352778" />
    <path
       id="path31"
       d="m 299.86181,179.31976 h -4.36104 v 7.13387 c 0,0.86889 -0.41169,1.20439 -0.86889,1.20439 -0.45755,0 -0.86924,-0.3355 -0.86924,-1.20439 v -7.13387 h -4.36069 v 7.31696 c 0,2.65219 1.9057,3.97828 5.22993,3.97828 3.32387,0 5.22993,-1.32609 5.22993,-3.97828 v -7.31696"
       style="fill:#231f20;fill-opacity:1;fill-rule:nonzero;stroke:none;stroke-width:0.352778" />
    <path
       id="path32"
       d="m 306.93889,186.28606 h 1.49437 v 1.32609 c -0.35066,0.16757 -0.74719,0.2286 -1.15888,0.2286 -0.56409,0 -0.9913,-0.19826 -1.25024,-0.65546 -0.19826,-0.35066 -0.28999,-1.08232 -0.28999,-2.14947 0,-0.92957 0.061,-2.0119 0.27482,-2.45393 0.21343,-0.44203 0.64029,-0.77752 1.29575,-0.77752 0.27446,0 0.53375,0.061 0.71684,0.19826 0.18274,0.13723 0.31997,0.36583 0.3355,0.71649 h 4.08622 c -0.0459,-2.57598 -1.81433,-3.68899 -5.19959,-3.68899 -4.08622,0 -6.02297,2.42393 -6.02297,5.79261 0,3.36867 1.93675,5.79226 5.90091,5.79226 1.79952,0 3.78178,-0.28963 5.48922,-0.73167 v -5.76191 h -5.67196 v 2.16464"
       style="fill:#231f20;fill-opacity:1;fill-rule:nonzero;stroke:none;stroke-width:0.352778" />
    <path
       id="path33"
       d="m 324.6889,179.31976 h -4.36069 v 7.13387 c 0,0.86889 -0.41204,1.20439 -0.86924,1.20439 -0.45755,0 -0.86924,-0.3355 -0.86924,-1.20439 v -7.13387 h -4.36069 v 7.31696 c 0,2.65219 1.90606,3.97828 5.22993,3.97828 3.32387,0 5.22993,-1.32609 5.22993,-3.97828 v -7.31696"
       style="fill:#231f20;fill-opacity:1;fill-rule:nonzero;stroke:none;stroke-width:0.352778" />
    <path
       id="path34"
       d="m 326.44468,190.32537 h 8.50829 v -2.86561 h -4.33034 v -1.23473 h 3.87279 v -2.86561 h -3.87279 v -1.17404 h 4.19311 v -2.86562 h -8.37106 v 11.00561"
       style="fill:#231f20;fill-opacity:1;fill-rule:nonzero;stroke:none;stroke-width:0.352778" />
    <path
       id="path35"
       d="m 345.91589,182.44467 c 0,-2.56081 -2.05846,-3.41454 -4.80307,-3.41454 -3.21733,0 -5.06201,1.29576 -5.06201,3.58211 0,1.41781 0.59443,2.4391 2.28706,2.94217 l 3.09527,0.9144 c 0.41169,0.12206 0.73202,0.33549 0.73202,0.74683 0,0.48789 -0.41169,0.89958 -1.05234,0.89958 -0.41169,0 -0.68615,-0.13723 -0.85372,-0.35066 -0.16792,-0.2286 -0.22895,-0.5334 -0.22895,-0.8382 h -4.1776 c 0,2.86561 2.43946,3.68864 5.09235,3.68864 3.11079,0 5.30648,-1.12783 5.30648,-3.82587 0,-1.32645 -0.60995,-2.31705 -1.99743,-2.89631 -1.11301,-0.47237 -2.65324,-0.77752 -3.49179,-1.02129 -0.4572,-0.13688 -0.71684,-0.3048 -0.71684,-0.70132 0,-0.33514 0.30515,-0.64029 1.00647,-0.64029 0.56444,0 0.94544,0.22895 0.96061,0.91475 h 3.90349"
       style="fill:#231f20;fill-opacity:1;fill-rule:nonzero;stroke:none;stroke-width:0.352778" />
    <path
       id="path36"
       d="m 351.82069,185.87437 0.96061,-4.1462 h 0.0303 l 0.86925,4.1462 z m -5.27579,4.451 h 4.17795 l 0.44238,-1.76813 h 3.1563 l 0.42686,1.76813 h 4.51344 l -3.53765,-11.00561 h -5.6568 l -3.52248,11.00561"
       style="fill:#231f20;fill-opacity:1;fill-rule:evenodd;stroke:none;stroke-width:0.352778" />
    <path
       id="path37"
       d="m 245.98277,174.15651 h 5.64162 l 3.0801,-11.00561 h -4.17794 l -1.61608,8.5972 h -0.0307 l -1.55504,-8.5972 h -4.43724 l 3.09527,11.00561"
       style="fill:#231f20;fill-opacity:1;fill-rule:nonzero;stroke:none;stroke-width:0.352778" />
    <path
       id="path38"
       d="m 255.63442,174.15651 h 8.50829 v -2.86597 h -4.33034 v -1.23472 h 3.87279 v -2.86561 h -3.87279 v -1.17369 h 4.19311 v -2.86562 h -8.37106 v 11.00561"
       style="fill:#231f20;fill-opacity:1;fill-rule:nonzero;stroke:none;stroke-width:0.352778" />
    <path
       id="path39"
       d="m 265.51537,174.15651 h 4.26932 v -3.9176 h 0.50306 c 0.70167,0 0.97613,0.21343 1.0675,0.76236 0.1524,0.94473 0.28963,2.33221 0.54893,3.15524 h 4.26931 c -0.50306,-1.66158 -0.47272,-3.21627 -0.71649,-4.16137 -0.21378,-0.83855 -0.79304,-1.31092 -1.8602,-1.40229 v -0.0307 c 1.64642,-0.39617 2.18017,-1.35678 2.18017,-2.62184 0,-2.07293 -1.38748,-2.78942 -3.75073,-2.78942 h -6.51087 z m 4.26932,-6.41738 v -2.08844 h 0.39652 c 0.85372,0 1.41781,0.16792 1.41781,0.97578 0,0.82303 -0.6096,1.11266 -1.44815,1.11266 h -0.36618"
       style="fill:#231f20;fill-opacity:1;fill-rule:evenodd;stroke:none;stroke-width:0.352778" />
    <path
       id="path40"
       d="m 288.2071,174.15651 h 3.69006 V 163.1509 h -6.05367 l -1.20438,6.55461 h -0.0307 l -1.20438,-6.55461 h -6.05331 v 11.00561 h 3.6897 v -7.86553 h 0.0307 l 1.5554,7.86553 h 3.99485 l 1.55505,-7.86553 h 0.0307 v 7.86553"
       style="fill:#231f20;fill-opacity:1;fill-rule:nonzero;stroke:none;stroke-width:0.352778" />
    <path
       id="path41"
       d="m 293.73336,174.15651 h 8.50829 v -2.86597 h -4.33034 v -1.23472 h 3.87279 v -2.86561 h -3.87279 v -1.17369 h 4.19311 v -2.86562 h -8.37106 v 11.00561"
       style="fill:#231f20;fill-opacity:1;fill-rule:nonzero;stroke:none;stroke-width:0.352778" />
    <path
       id="path42"
       d="m 303.61431,174.15651 h 8.37106 v -2.95734 H 307.975 v -8.04827 h -4.36069 v 11.00561"
       style="fill:#231f20;fill-opacity:1;fill-rule:nonzero;stroke:none;stroke-width:0.352778" />
    <path
       id="path43"
       d="m 319.41205,174.15651 h 4.36104 V 163.1509 h -4.36104 v 3.71934 h -1.8602 v -3.71934 h -4.36068 v 11.00561 h 4.36068 v -4.05483 h 1.8602 v 4.05483"
       style="fill:#231f20;fill-opacity:1;fill-rule:nonzero;stroke:none;stroke-width:0.352778" />
    <path
       id="path44"
       d="m 329.813,169.70516 0.96061,-4.1462 h 0.0303 l 0.86925,4.1462 z m -5.27579,4.451 h 4.17795 l 0.44203,-1.76813 h 3.1563 l 0.42721,1.76813 h 4.51309 l -3.5373,-11.00561 h -5.6568 l -3.52248,11.00561"
       style="fill:#231f20;fill-opacity:1;fill-rule:evenodd;stroke:none;stroke-width:0.352778" />
    <path
       id="path45"
       d="m 272.78894,153.92047 c -0.0614,1.16205 -0.44379,1.4986 -1.00965,1.4986 -1.10137,0 -1.19309,-1.25413 -1.19309,-2.93617 0,-1.77377 0.10689,-2.93617 1.23895,-2.93617 0.53552,0 0.99448,0.24448 1.05551,1.4986 h 4.00791 c -0.0152,-3.24203 -2.37102,-4.37374 -5.15514,-4.37374 -3.73274,0 -5.78238,2.32446 -5.67549,5.76545 0,3.50202 1.78999,5.85717 5.65997,5.85717 2.73826,0 5.17066,-1.33033 5.17066,-4.37374 h -4.09963"
       style="fill:#231f20;fill-opacity:1;fill-rule:nonzero;stroke:none;stroke-width:0.352778" />
    <path
       id="path46"
       d="m 278.81439,158.00387 h 4.28307 v -3.9303 h 0.50518 c 0.70344,0 0.97896,0.21414 1.07068,0.76483 0.15311,0.94791 0.29069,2.33962 0.55069,3.16547 h 4.28307 c -0.50482,-1.66687 -0.47413,-3.22686 -0.71896,-4.17512 -0.21413,-0.84103 -0.79516,-1.31516 -1.86619,-1.40688 v -0.0303 c 1.65206,-0.39758 2.18757,-1.36137 2.18757,-2.63067 0,-2.07962 -1.39206,-2.79823 -3.76308,-2.79823 h -6.53203 z m 4.28307,-6.43819 v -2.09515 h 0.39794 c 0.8569,0 1.42275,0.16792 1.42275,0.9786 0,0.82586 -0.61207,1.11655 -1.45344,1.11655 h -0.36725"
       style="fill:#231f20;fill-opacity:1;fill-rule:evenodd;stroke:none;stroke-width:0.352778" />
    <path
       id="path47"
       d="m 301.59078,146.96263 h -4.37515 v 7.1568 c 0,0.87172 -0.41275,1.20827 -0.87171,1.20827 -0.45897,0 -0.87207,-0.33655 -0.87207,-1.20827 v -7.1568 h -4.37515 v 7.34025 c 0,2.66135 1.91241,3.99168 5.24722,3.99168 3.33445,0 5.24686,-1.33033 5.24686,-3.99168 v -7.34025"
       style="fill:#231f20;fill-opacity:1;fill-rule:nonzero;stroke:none;stroke-width:0.352778" />
    <path
       id="path48"
       d="m 303.40829,158.00387 h 9.77512 v -2.87514 h -4.7117 l 4.60445,-5.47476 v -2.69134 h -9.53029 v 2.87479 h 4.48204 l -4.61962,5.47476 v 2.69169"
       style="fill:#231f20;fill-opacity:1;fill-rule:nonzero;stroke:none;stroke-width:0.352778" />
  </g>
</svg>
