<?xml version="1.0" encoding="utf-8"?>
<!-- Generator: Adobe Illustrator 16.0.0, SVG Export Plug-In . SVG Version: 6.00 Build 0)  -->
<!DOCTYPE svg PUBLIC "-//W3C//DTD SVG 1.1//EN" "http://www.w3.org/Graphics/SVG/1.1/DTD/svg11.dtd">
<svg version="1.1" id="Layer_1" xmlns="http://www.w3.org/2000/svg" xmlns:xlink="http://www.w3.org/1999/xlink" x="0px" y="0px"
	 width="595.28px" height="841.89px" viewBox="0 0 595.28 841.89" enable-background="new 0 0 595.28 841.89" xml:space="preserve">
<g>
	<g>
		<path fill-rule="evenodd" clip-rule="evenodd" fill="#FEFCFC" d="M329.801,62.207c42.459,0,84.919,0,127.439,0
			c0,42.56,0,85.12,0,127.68c-0.063-0.053-0.126-0.058-0.194-0.013c-0.021-10.205-1.482-20.236-3.918-30.115
			c-2.067-8.383-5.145-16.421-8.893-24.207c-5.915-12.287-13.599-23.345-23.012-33.194c-8.708-9.112-18.548-16.773-29.507-23.03
			c-11.772-6.722-24.271-11.467-37.522-14.272c-8.043-1.702-16.175-2.553-24.392-2.641
			C329.805,62.344,329.805,62.275,329.801,62.207z"/>
		<path fill-rule="evenodd" clip-rule="evenodd" fill="#FEFCFC" d="M198.52,186.047c0-41.261,0-82.521,0-123.84
			c42.24,0,84.48,0,126.72,0c0.034,0.072,0.041,0.148,0.021,0.226c-6.565,0.108-13.087,0.662-19.558,1.814
			c-9.067,1.615-17.866,4.148-26.397,7.613c-10.293,4.179-19.864,9.665-28.761,16.281c-6.642,4.938-12.676,10.58-18.247,16.719
			c-8.038,8.858-14.741,18.605-20.108,29.304c-4.732,9.435-8.196,19.29-10.477,29.584c-1.629,7.354-2.511,14.8-2.977,22.306
			C198.664,186.043,198.592,186.041,198.52,186.047z"/>
		<path fill-rule="evenodd" clip-rule="evenodd" fill="#FEFCFC" d="M457.24,194.207c0,42.24,0,84.479,0,126.72
			c-40.801,0-81.601,0-122.4,0c-0.02-0.073-0.025-0.146-0.014-0.221c4.445-0.11,8.85-0.707,13.23-1.354
			c6.005-0.888,11.866-2.466,17.691-4.19c11.492-3.398,22.195-8.488,32.189-15.03c9.75-6.383,18.564-13.879,26.348-22.607
			c9.222-10.34,16.555-21.861,22.098-34.517c3.009-6.872,5.513-13.933,7.154-21.291c2.023-9.076,3.423-18.214,3.477-27.531l0.114,0
			L457.24,194.207z"/>
		<path fill-rule="evenodd" clip-rule="evenodd" fill="#FEFCFC" d="M320.921,320.927c-40.8,0-81.601,0-122.401,0
			c0-41.28,0-82.561,0-123.84l0.108,0.001l0.107-0.009c0.418,8.035,1.434,15.997,3.264,23.827
			c2.084,8.915,5.021,17.548,9.011,25.817c7.477,15.494,17.473,29.119,30.251,40.63c13.993,12.606,29.895,21.95,47.951,27.562
			c10.353,3.217,20.894,5.25,31.72,5.794C320.94,320.781,320.938,320.854,320.921,320.927z"/>
		<path fill-rule="evenodd" clip-rule="evenodd" fill="#FE9B95" d="M320.921,320.927c0.017-0.073,0.02-0.146,0.011-0.218
			c4.632-0.001,9.264-0.002,13.895-0.003c-0.012,0.075-0.006,0.148,0.014,0.221C330.2,320.927,325.56,320.927,320.921,320.927z"/>
		<path fill-rule="evenodd" clip-rule="evenodd" fill="#FE9B95" d="M198.735,197.079l-0.107,0.009l-0.108-0.001
			c0-3.68,0-7.36,0-11.04c0.072-0.006,0.144-0.003,0.215,0.007C198.735,189.729,198.735,193.403,198.735,197.079z"/>
		<path fill-rule="evenodd" clip-rule="evenodd" fill="#FE9B95" d="M325.262,62.433c0.02-0.078,0.013-0.154-0.021-0.226
			c1.52,0,3.04,0,4.561,0c0.004,0.068,0.004,0.138,0.002,0.207C328.289,62.419,326.775,62.426,325.262,62.433z"/>
		<path fill-rule="evenodd" clip-rule="evenodd" fill="#FE9B95" d="M457.24,194.207l-0.112-0.022c0,0-0.114,0-0.114,0.001
			c0.012-1.438,0.021-2.875,0.032-4.313c0.068-0.044,0.132-0.04,0.194,0.013C457.24,191.326,457.24,192.766,457.24,194.207z"/>
		<path fill-rule="evenodd" clip-rule="evenodd" fill="#DD2920" d="M457.046,189.873c-0.011,1.438-0.021,2.875-0.032,4.313
			c-0.054,9.316-1.453,18.455-3.477,27.53c-1.642,7.358-4.146,14.419-7.154,21.291c-5.543,12.656-12.876,24.176-22.098,34.517
			c-7.783,8.728-16.598,16.225-26.348,22.607c-9.994,6.542-20.697,11.632-32.189,15.03c-5.825,1.724-11.687,3.302-17.691,4.19
			c-4.381,0.647-8.785,1.244-13.23,1.354c-4.631,0.001-9.263,0.002-13.895,0.003c-10.826-0.543-21.367-2.577-31.72-5.794
			c-18.056-5.611-33.958-14.956-47.951-27.562c-12.778-11.511-22.774-25.136-30.251-40.63c-3.99-8.27-6.927-16.902-9.011-25.817
			c-1.83-7.831-2.845-15.792-3.264-23.827c0-3.676,0-7.35,0-11.025c0.466-7.505,1.348-14.952,2.977-22.306
			c2.281-10.294,5.745-20.149,10.477-29.584c5.367-10.698,12.071-20.446,20.108-29.304c5.571-6.139,11.605-11.781,18.247-16.719
			c8.897-6.617,18.467-12.103,28.761-16.281c8.532-3.465,17.33-5.998,26.397-7.613c6.471-1.152,12.992-1.706,19.558-1.814
			c1.515-0.007,3.028-0.013,4.542-0.019c8.217,0.087,16.349,0.938,24.392,2.641c13.252,2.805,25.75,7.551,37.522,14.272
			c10.959,6.257,20.799,13.918,29.507,23.03c9.413,9.849,17.097,20.907,23.012,33.194c3.748,7.786,6.825,15.824,8.893,24.207
			C455.563,169.637,457.025,179.668,457.046,189.873z M327.9,65.334c-69.008-0.033-126.236,56.079-126.27,126.222
			c-0.034,69.073,55.47,125.173,123.847,126.323c72.373,1.217,127.368-56.972,128.64-123.54
			C455.488,122.404,397.176,65.227,327.9,65.334z"/>
		<path fill-rule="evenodd" clip-rule="evenodd" fill="#FEFCFC" d="M327.9,65.334c69.275-0.107,127.588,57.069,126.217,129.005
			c-1.271,66.567-56.267,124.757-128.64,123.54c-68.377-1.15-123.881-57.25-123.847-126.323
			C201.665,121.413,258.892,65.301,327.9,65.334z M420.772,192.632c-0.066-51.558-41.93-92.184-91.421-93.039
			c-50.782-0.877-94.672,40.166-94.625,93.077c0.047,51.703,41.909,92.389,91.769,92.981
			C379.514,286.28,420.847,243.048,420.772,192.632z M352.65,95.405c0.014-0.114,0.028-0.229,0.043-0.342
			c-2.438-0.876-2.714-1.229-2.452-3.096c0.634-4.508,1.263-9.016,1.893-13.524c0.209-1.493,0.906-2.024,2.441-1.885
			c0.286,0.026,0.646,0.191,0.883-0.461c-3.504-0.542-6.943-1.096-10.438-1.238c0.081,0.209,0.181,0.279,0.291,0.303
			c2.538,0.565,3.007,1.966,1.328,3.944c-2.195,2.585-4.379,5.18-6.578,7.762c-0.228,0.267-0.396,0.644-0.883,0.725
			c0.244-1.659,0.479-3.237,0.705-4.816c0.297-2.055,0.568-4.114,0.882-6.167c0.172-1.124,0.727-1.827,2.015-1.699
			c0.368,0.037,0.854,0.235,1.325-0.485c-3.609-0.478-7.048-0.934-10.614-1.405c0.224,0.65,0.596,0.582,0.881,0.649
			c1.474,0.35,1.752,0.726,1.592,2.25c-0.127,1.191-0.248,2.384-0.413,3.57c-0.483,3.48-0.982,6.958-1.486,10.436
			c-0.252,1.736-0.708,2.095-2.453,2.004c-0.252-0.013-0.566-0.194-0.782,0.451c3.5,0.476,6.944,0.944,10.389,1.412
			c0.027-0.124,0.056-0.249,0.082-0.373c-0.169-0.073-0.335-0.196-0.509-0.208c-0.855-0.061-1.688-0.167-1.986-1.147
			c-0.314-1.036-0.06-1.879,0.715-2.708c1.606-1.717,3.098-3.544,4.644-5.319c0.907-1.041,1.83-2.066,2.944-3.324
			c-0.295,2.248-0.492,4.185-0.818,6.101c-0.303,1.769-0.382,3.574-0.866,5.316c-0.321,1.153-1.002,1.631-2.19,1.402
			c-0.307-0.059-0.709-0.293-0.99,0.483C345.759,94.486,349.205,94.946,352.65,95.405z M424.636,179.12
			c0.677-0.398,0.392-0.764,0.331-1.08c-0.256-1.341,0.198-2.178,1.525-2.514c4.601-1.163,9.207-2.306,13.82-3.413
			c1.546-0.371,2.127,0.052,2.578,1.633c0.075,0.264,0.149,0.561,0.541,0.489c0.037-0.07,0.118-0.148,0.104-0.204
			c-0.725-2.941-1.454-5.881-2.191-8.817c-0.094-0.372-0.337-0.402-0.628-0.184c0.366,1.923-0.76,2.923-2.696,2.343
			c-2.101-0.629-4.184-1.311-6.271-1.981c-1.606-0.516-3.205-1.05-4.807-1.576c3.64-1.132,7.177-2.327,10.859-2.956
			c1.387-0.236,1.869,0.127,2.26,1.464c0.082,0.281-0.054,0.785,0.756,0.743c-0.864-3.428-1.717-6.794-2.566-10.16
			c-0.503,0.401-0.362,0.707-0.283,1.01c0.299,1.136,0.033,1.872-1.232,2.215c-4.926,1.333-9.88,2.552-14.851,3.697
			c-0.774,0.178-1.271-0.265-1.596-0.958c-0.206-0.441-0.209-1.007-0.665-1.31c-0.121,0.036-0.243,0.072-0.364,0.109
			c0.85,3.35,1.702,6.7,2.606,10.266c0.364-0.77,0.364-0.77,0.309-1.161c-0.278-1.936,0.874-2.948,2.756-2.358
			c2.32,0.726,4.62,1.509,6.929,2.27c1.393,0.46,2.784,0.927,4.479,1.492c-3.862,0.978-7.373,1.899-10.899,2.744
			c-1.569,0.376-2.037,0.042-2.644-1.451c-0.098-0.241,0.066-0.71-0.733-0.689C422.921,172.227,423.762,175.609,424.636,179.12z
			 M297.715,76.851c0.15,0.651,0.451,0.517,0.72,0.491c1.972-0.184,2.306,0.083,2.556,2.02c0.036,0.277,0.073,0.554,0.121,0.829
			c0.763,4.365,1.532,8.729,2.286,13.096c0.195,1.123-0.3,1.822-1.387,2.135c-0.334,0.096-0.837-0.061-0.997,0.668
			c3.496-0.604,6.901-1.193,10.309-1.783c-0.342-0.505-0.656-0.426-0.964-0.396c-1.899,0.182-2.859-1.143-2.123-2.938
			c0.59-1.438,1.18-2.876,1.777-4.313c0.864-2.074,1.735-4.146,2.604-6.22c0.101,0.008,0.2,0.017,0.3,0.024
			c0.533,3.812,1.548,7.537,1.844,11.391c0.063,0.83-0.433,1.221-1.128,1.471c-0.35,0.125-0.815,0.062-1.02,0.552
			c1.72,0.052,9.393-1.379,10.075-1.867c-0.335-0.284-0.69-0.064-1.028-0.039c-1.325,0.097-1.99-0.448-2.205-1.769
			c-0.358-2.206-0.744-4.407-1.117-6.612c-0.432-2.559-0.934-5.108-1.267-7.68c-0.202-1.552,0.138-1.85,1.687-2.174
			c0.286-0.06,0.693,0.024,0.625-0.492c-1.28-0.182-9.587,1.421-10.168,1.982c0.14,0.01,0.252,0.033,0.362,0.024
			c2.42-0.18,3.361,1.123,2.436,3.361c-0.564,1.363-1.111,2.733-1.673,4.098c-0.872,2.118-1.75,4.233-2.625,6.35
			c-0.794-3.415-1.331-6.795-1.983-10.152c-0.426-2.187-0.051-3.007,2.034-3.294c0.072-0.01,0.128-0.159,0.389-0.504
			C304.504,75.719,301.116,76.283,297.715,76.851z M432.729,139.672c0.047-0.103,0.094-0.205,0.14-0.309
			c-1.539-2.687-3.08-5.373-4.676-8.156c-0.379,0.503-0.248,0.76-0.127,1.011c0.915,1.903,0.05,3.27-2.054,3.185
			c-3.593-0.146-7.187-0.324-10.779-0.492c-0.186-0.008-0.42,0.04-0.436-0.44c3.174-1.793,6.408-3.654,9.679-5.447
			c0.847-0.464,1.59-0.085,2.22,0.63c0.238,0.27,0.273,0.861,1.137,0.774c-1.773-2.936-3.208-5.883-5.146-8.715
			c-0.332,0.499-0.323,0.706-0.204,0.872c0.768,1.058,0.332,1.756-0.652,2.327c-4.31,2.498-8.608,5.017-12.932,7.492
			c-0.794,0.456-1.575,0.429-2.172-0.492c-0.233-0.36-0.383-0.891-1.303-1.078c1.871,3.237,3.607,6.24,5.406,9.355
			c0.386-0.481,0.211-0.634,0.134-0.804c-0.962-2.127-0.143-3.356,2.229-3.266c3.595,0.138,7.187,0.316,10.779,0.485
			c0.169,0.008,0.412-0.083,0.476,0.246c-3.076,1.745-6.167,3.483-9.239,5.253c-0.968,0.557-1.866,0.995-2.698-0.191
			c-0.12-0.17-0.358-0.113-0.638,0.061c1.574,2.712,3.147,5.423,4.845,8.349c0.123-0.427,0.204-0.55,0.177-0.64
			c-0.78-2.548-0.784-2.582,1.546-3.931c3.346-1.937,6.705-3.851,10.06-5.771C429.827,139.221,431.121,138.174,432.729,139.672z
			 M343.401,312.181c-0.012-0.114-0.023-0.229-0.035-0.343c-0.146-0.032-0.29-0.091-0.436-0.093c-2.609-0.032-3.322-1.184-2.19-3.55
			c0.447-0.935,0.884-1.876,1.331-2.811c1.141-2.382,2.284-4.762,3.46-7.213c0.14,0.195,0.218,0.255,0.226,0.322
			c0.444,3.605,0.917,7.207,1.305,10.817c0.138,1.284-0.371,1.794-1.674,2.012c-0.329,0.056-0.689,0.031-0.998,0.64
			c3.585-0.437,6.958-0.848,10.331-1.258c-2.769-0.583-2.797-0.58-3.151-3.374c-0.554-4.357-1.07-8.717-1.59-13.078
			c-0.159-1.345,0.299-1.91,1.66-2.227c0.308-0.072,0.731,0.014,0.997-0.652c-3.592,0.434-7.041,0.852-10.701,1.293
			c0.451,0.508,0.78,0.408,1.07,0.408c2.03-0.008,2.865,1.278,2.004,3.115c-1.506,3.211-3.016,6.42-4.541,9.621
			c-0.134,0.283-0.213,0.645-0.664,0.86c-0.406-3.376-0.77-6.665-1.209-9.944c-0.198-1.483-0.42-2.896,1.548-3.552
			c-3.276,0.038-6.384,0.442-9.712,0.964c0.443,0.45,0.686,0.371,0.911,0.361c1.962-0.085,2.171,0.047,2.467,2.022
			c0.279,1.855,0.466,3.724,0.691,5.588c0.335,2.774,0.695,5.547,0.996,8.326c0.173,1.591-0.224,2.043-1.83,2.32
			c-0.338,0.059-0.775-0.007-0.677,0.731C336.462,313.051,339.932,312.616,343.401,312.181z M295.541,288.977
			c-0.554-1.037-7.776-4.288-8.938-4.102c0.085,0.386,0.444,0.418,0.712,0.53c0.897,0.376,1.252,1.124,0.925,1.937
			c-0.84,2.093-1.817,4.131-2.77,6.258c-2.194-1.027-4.24-1.984-6.266-2.932c0.025-0.162,0.02-0.245,0.051-0.311
			c0.697-1.479,1.377-2.965,2.1-4.429c1.206-2.444,1.235-2.445,3.825-1.73c0.037,0.01,0.106-0.097,0.334-0.314
			c-3.142-1.58-6.247-3.025-9.444-4.402c-0.131,0.553,0.092,0.586,0.259,0.688c1.714,1.036,1.865,1.432,1.014,3.277
			c-1.852,4.017-3.714,8.03-5.628,12.017c-0.974,2.028-1.183,2.067-3.327,1.439c-0.164-0.049-0.308-0.061-0.519,0.313
			c3.102,1.422,6.184,2.837,9.473,4.345c-0.135-0.737-0.469-0.705-0.697-0.825c-1.03-0.542-1.446-1.427-0.996-2.497
			c0.895-2.125,1.878-4.212,2.872-6.421c2.167,0.991,4.238,1.938,6.342,2.9c-0.905,1.94-1.737,3.705-2.552,5.478
			c-1.007,2.187-1.341,2.341-3.528,1.586c-0.031-0.011-0.103,0.096-0.302,0.294c3.099,1.438,6.131,2.846,9.216,4.278
			c0.108-0.527-0.134-0.555-0.292-0.649c-1.542-0.916-1.753-1.347-1.016-2.993c1.825-4.072,3.702-8.123,5.602-12.16
			C292.921,288.575,293.351,288.417,295.541,288.977z M220.965,214.731c0.327,0.949-0.018,1.578-0.711,2.097
			c-2.201,1.649-4.385,3.322-6.613,4.935c-0.602,0.435-0.808,0.867-0.666,1.595c0.277,1.41,0.442,2.841,0.718,4.25
			c0.081,0.414-0.019,0.945,0.648,1.427c-0.109-2.777,2.101-3.624,3.665-4.995c1.787-1.567,4.178-2.57,4.775-5.25
			c1.021,0.531,2.013,0.769,3.047,0.949c1.408,0.245,2.875,0.205,4.219,0.8c0.456,0.203,0.869,0.417,0.864,1.01
			c-0.004,0.617-0.509,0.63-0.909,0.764c-0.581,0.194-1.1,0.435-1.336,1.08c-0.314,0.855,0.045,1.967,0.819,2.395
			c0.881,0.489,2.354,0.036,2.984-0.811c1.586-2.132-0.332-5.475-2.517-5.827c-1.537-0.248-3.095-0.384-4.612-0.717
			c-2.199-0.483-2.894-1.587-2.68-3.991c2.125-0.255,4.212-0.827,6.372-0.924c1.057-0.047,1.771,0.322,1.929,1.482
			c0.04,0.287-0.008,0.761,0.708,0.779c-0.527-3.367-1.046-6.683-1.569-10.024c-0.42,0.122-0.406,0.292-0.415,0.443
			c-0.112,2.084-0.418,2.426-2.46,2.739c-1.735,0.266-3.472,0.527-5.207,0.797c-2.723,0.423-5.441,0.87-8.166,1.27
			c-1.504,0.221-1.879-0.029-2.338-1.38c-0.105-0.312-0.08-0.702-0.708-0.876c0.551,3.43,1.083,6.737,1.616,10.044
			c0.121-0.011,0.242-0.022,0.362-0.033c0.027-0.539,0.048-1.079,0.084-1.617c0.044-0.672,0.357-1.142,1.056-1.258
			C216.248,215.497,218.572,215.121,220.965,214.731z M400.949,111.75c1.439-0.068,2.448-0.733,3.5-1.295
			c1.088-0.581,2.07-1.347,3.269-1.733c0.545-0.175,1.032-0.261,1.415,0.216c0.389,0.486,0.019,0.899-0.233,1.3
			c-0.363,0.582-0.726,1.124-0.309,1.869c0.507,0.909,1.253,1.194,2.203,0.97c1.041-0.246,1.462-1.078,1.569-2.026
			c0.274-2.445-2.807-4.508-5.187-3.518c-1.407,0.586-2.674,1.416-3.985,2.172c-2.263,1.306-3.493,0.983-4.964-1.268
			c1.396-1.479,2.783-2.969,4.193-4.435c0.892-0.928,1.654-0.962,2.757-0.219c0.25,0.168,0.438,0.663,1.022,0.122
			c-2.492-2.286-4.965-4.552-7.436-6.817c-0.101,0.103-0.2,0.207-0.3,0.31c0.239,0.306,0.452,0.636,0.722,0.912
			c0.702,0.718,0.624,1.437-0.003,2.116c-3.383,3.666-6.771,7.328-10.179,10.97c-0.688,0.735-1.493,0.838-2.332,0.152
			c-0.308-0.254-0.6-0.672-1.336-0.288c2.538,2.339,4.999,4.607,7.462,6.877c0.165-0.688-0.224-1.018-0.507-1.358
			c-0.498-0.596-0.526-1.221-0.07-1.743c1.616-1.848,3.292-3.644,5.009-5.531c0.659,0.789,0.819,1.466,0.612,2.264
			c-0.716,2.739-1.392,5.488-2.141,8.217c-0.153,0.561-0.039,0.884,0.356,1.247c1.205,1.105,2.376,2.25,3.584,3.353
			c0.22,0.2,0.395,0.669,1.033,0.264c-1.11-1.012-1.12-2.256-0.77-3.578c0.449-1.697,0.833-3.41,1.291-5.104
			C401.589,114.718,401.867,113.288,400.949,111.75z M387.969,296.629c-0.154-0.365-0.355-0.3-0.547-0.238
			c-1.183,0.388-2.169-0.025-3.131-0.7c-1.272-0.895-2.599-1.711-3.878-2.596c-1.381-0.958-2.731-1.964-4.619-1.684
			c0.297-1.278,0.144-2.412-0.101-3.557c-0.225-1.053-0.351-2.127-0.512-3.193c-0.108-0.709-0.077-1.478,0.625-1.791
			c0.727-0.323,0.964,0.484,1.336,0.908c0.83,0.943,2.142,0.858,2.842-0.19c0.838-1.252-0.008-3.039-1.6-3.374
			c-2.036-0.429-4.067,1.128-4.418,3.36c-0.255,1.631,0.288,3.164,0.558,4.724c0.477,2.751-0.023,3.655-2.801,4.578
			c-0.768-1.452-1.537-2.928-2.331-4.392c-0.743-1.371-1.317-2.72,0.212-4.092c-2.957,1.156-5.683,2.594-8.569,4.136
			c0.609,0.34,0.932,0.258,1.204,0.098c1.034-0.605,1.73-0.179,2.294,0.704c0.214,0.335,0.444,0.664,0.624,1.017
			c1.89,3.692,3.788,7.38,5.64,11.09c0.597,1.194,1.317,2.458-0.151,3.745c3.031-0.971,5.624-2.564,8.459-3.927
			c-0.644-0.579-0.929-0.079-1.259,0.025c-0.832,0.264-1.616,0.325-2.08-0.546c-1.144-2.137-2.233-4.303-3.342-6.454
			c0.743-0.527,1.347-0.392,1.985-0.029c2.192,1.242,4.211,2.755,6.188,4.289c1.248,0.967,2.227,1.043,3.48,0.207
			C385.311,297.928,386.775,297.495,387.969,296.629z M235.398,148.542c5.859,0.118,10.094-5.634,10.126-10.803
			c0.035-5.321-4.932-10.023-10.401-10.146c-5.968-0.133-10.373,5.689-10.345,11.03
			C224.809,144.464,229.656,148.415,235.398,148.542z M308.919,292.024c-3.239-0.711-6.515-1.176-9.893-1.542
			c0.129,0.639,0.45,0.594,0.711,0.645c1.154,0.227,1.747,0.859,1.554,2.094c-0.063,0.394-0.042,0.8-0.098,1.195
			c-0.616,4.428-1.229,8.857-1.87,13.282c-0.147,1.018-0.692,1.665-1.837,1.642c-0.401-0.008-0.871-0.207-1.34,0.357
			c0.71,0.117,1.311,0.237,1.918,0.314c3.955,0.5,7.851,1.493,11.883,1.339c2.559-0.098,4.705-2.161,4.838-4.706
			c0.159-3.02-1.443-4.468-4.414-5.363c-1.691-0.509-3.469-0.732-5.193-1.082c0.289-2.084,0.596-4.058,0.824-6.039
			c0.157-1.358,0.592-1.817,1.968-1.846C308.276,292.309,308.598,292.475,308.919,292.024z M411.322,255.636
			c-0.142,0.042-0.282,0.083-0.423,0.124c1.158,2.032,3.383,3.961,0.79,6.4c-1.981-1.605-3.988-3.231-6.059-4.909
			c1.23-1.5,2.189-3.139,3.839-4.126c1.751-1.048,3.491-0.239,5.22,0.452c0.039-0.151,0.077-0.302,0.116-0.453
			c-1.471-1.183-2.939-2.364-4.491-3.614c-3.435,4.283-6.816,8.498-10.224,12.746c0.513,0.277,0.639,0.029,0.801-0.131
			c1.266-1.248,1.811-1.27,3.144-0.155c0.888,0.742,1.787,1.47,2.688,2.195c2.672,2.152,5.362,4.283,8.018,6.457
			c1.476,1.208,1.492,1.515,0.477,3.079c-0.14,0.214-0.436,0.403-0.128,0.701c0.716-0.527,9.923-11.736,10.651-12.964
			c-1.315-1.833-3.32-3.769-4.214-4.043c0,0.119-0.044,0.253,0.005,0.33c2.442,3.861,0.758,6.817-1.698,9.304
			c-0.473,0.479-1.039,0.659-1.609,0.214c-1.87-1.459-3.72-2.945-5.536-4.389c1.952-2.789,4.174-1.215,6.333-0.419
			c0.026-0.123,0.054-0.247,0.082-0.371C416.51,259.921,413.915,257.779,411.322,255.636z M235.433,229.879
			c-0.239,0.098-0.219,0.248-0.171,0.412c0.601,2.064,0.588,2.255-1.329,3.122c-4.356,1.97-8.752,3.856-13.131,5.775
			c-0.788,0.345-1.355,0.097-1.85-0.591c-0.267-0.369-0.311-1-1.205-1.104c1.416,3.158,2.757,6.148,4.098,9.139
			c0.413-0.529,0.114-0.881,0.008-1.263c-0.187-0.676-0.121-1.339,0.505-1.695c2.067-1.172,4.277-2.036,6.458-2.961
			c0.531,1.085,0.951,2.078,1.486,3.006c0.855,1.48,1.972,2.744,3.662,3.269c1.862,0.58,3.597,0.19,4.971-1.192
			c1.527-1.536,1.749-3.506,1.159-5.465c-1.07-3.559-2.882-6.82-4.358-10.217C235.669,229.96,235.591,229.83,235.433,229.879z
			 M225.165,167.207c0.226-1.211,0.514-2.291,0.615-3.388c0.212-2.277-0.123-4.482-2.138-5.88c-2.993-2.076-6.584-0.813-7.783,2.703
			c-1.2,3.515-1.711,7.204-2.491,10.824c-0.04,0.187-0.094,0.405,0.186,0.465c0.358-0.165,0.333-0.534,0.427-0.821
			c0.363-1.099,1.035-1.465,2.2-1.217c4.366,0.931,8.746,1.801,13.121,2.692c2.544,0.518,2.66,0.664,2.524,3.201
			c-0.002,0.045,0.105,0.097,0.4,0.346c0.772-3.196,1.426-6.259,1.77-9.409c-0.622,0.717-0.732,1.895-2.071,1.655
			C229.696,167.979,227.466,167.604,225.165,167.207z M396.191,280.275c0.37-0.286,0.66-0.493,0.932-0.723
			c1.462-1.234,2.978-2.429,3.668-4.313c0.599-1.633,0.538-3.223-0.543-4.652c-1.725-2.278-4.189-2.758-6.901-1.235
			c-3.317,1.864-6.065,4.514-9.07,6.809c-0.078,0.058-0.095,0.193-0.137,0.288c0.453,0.354,0.736-0.064,0.961-0.235
			c0.994-0.761,1.754-0.492,2.456,0.402c2.858,3.636,5.723,7.266,8.588,10.897c0.749,0.953,1.427,1.912,0.354,3.155
			c1.05-0.107,6.563-4.321,7.035-5.261c-0.204-0.183-0.37-0.032-0.538,0.064c-1.61,0.944-1.946,0.912-3.096-0.5
			C398.669,283.462,397.48,281.914,396.191,280.275z M421.425,226.392c-0.204,0.335-0.237,0.563-0.03,0.76
			c0.769,0.73,0.537,1.395-0.105,2.056c-0.333,0.343-0.622,0.732-0.965,1.062c-1.632,1.567-2.614,3.458-3.104,5.671
			c-1.355,6.126,3.438,12.956,10.64,12.666c6.459-0.26,11.325-7.858,9.113-13.988c-0.27-0.746-0.782-1.066-1.561-1.16
			c0.315,1.116,0.681,2.132,0.886,3.18c0.826,4.223-2.987,8.173-7.118,7.422c-2.752-0.501-5.235-1.601-7.494-3.253
			c-2.449-1.791-3.265-5.552-2.041-7.805c1.221-2.246,3.303-3.509,6.203-3.372c0.484,0.023,1.002,0.264,1.652-0.225
			C425.472,228.181,423.396,227.379,421.425,226.392z M426.295,203.872c-0.3,0.921-2.934,16.016-2.978,17.13
			c1.687,0.3,3.383,0.604,5.081,0.907c0.059-0.107,0.117-0.214,0.177-0.322c-1.045-0.786-2.381-1.208-3.043-2.467
			c-0.73-1.387-0.377-2.688-0.04-4.09c0.323,0.025,0.599,0.023,0.864,0.069c4.605,0.791,9.21,1.575,13.81,2.392
			c2.515,0.446,2.535,0.502,2.473,3.044c0,0.053,0.094,0.111,0.146,0.165c0.602-0.614,2.089-8.859,1.753-9.954
			c-0.095,0.188-0.181,0.311-0.226,0.448c-0.537,1.685-1.001,2.017-2.671,1.746c-2.995-0.488-5.986-1.007-8.976-1.528
			c-2.113-0.368-4.222-0.762-6.348-1.146c0.068-1.501,0.393-2.849,1.317-3.872c0.951-1.052,2.473-1.013,3.938-1.395
			C430.602,204.47,427.399,203.832,426.295,203.872z M261.808,288.397c-0.998,0-1.906,0.031-2.811-0.005
			c-3.904-0.159-7.135-3.869-6.157-7.314c1.121-3.95,3.671-6.884,7.387-8.626c2.228-1.045,4.494-0.683,6.383,0.935
			c2.116,1.813,2.429,4.181,1.731,6.767c-0.149,0.553-0.562,1.052-0.357,1.958c1.634-1.788,3.129-3.425,4.626-5.063
			c-2.133,0.216-2.122,0.21-3.093-1.604c-0.815-1.521-1.792-2.95-3.171-3.999c-3.338-2.54-7.009-3.055-10.945-1.567
			c-3.602,1.36-6.499,5.857-6.212,9.681c0.343,4.556,4.552,9.547,9.455,10.035C259.797,289.709,261.098,290.003,261.808,288.397z
			 M385.678,87.665c-0.059-0.159-0.118-0.317-0.177-0.475c-1.428,1.737-2.321,0.746-3.348-0.236
			c-2.939-2.82-6.333-4.053-10.486-3.181c-5.467,1.147-9.266,7.372-7.723,12.768c1.384,4.839,8.517,8.978,13.633,6.91
			c0.84-0.339,1.174-0.901,1.329-1.799c-1.236,0.585-2.387,1.021-3.632,1.168c-3.979,0.474-7.156-2.335-7.095-6.312
			c0.045-2.849,1.12-5.382,2.681-7.68c1.086-1.6,2.562-2.705,4.574-3.216c3.253-0.827,7.123,2.004,7.187,5.958
			c0.012,0.681-0.313,1.395,0.208,2.357C383.844,91.697,384.761,89.681,385.678,87.665z M258.958,103.849
			c-1.605-1.578-3.075-3.278-4.982-4.903c0.441,2.078,0.432,2.181-1.333,2.97c-1.614,0.722-3.188,1.488-4.355,2.855
			c-3.047,3.567-3.791,7.506-1.926,11.897c1.517,3.573,5.755,6.175,9.607,5.795c4.344-0.428,9.708-4.298,9.953-9.875
			c0.042-0.979-0.221-1.547-1.069-2.026c-0.07,0.974-0.091,1.85-0.203,2.714c-0.629,4.878-5.256,7.259-9.518,4.918
			c-1.305-0.717-2.458-1.619-3.477-2.707c-1.579-1.687-2.915-3.544-3.197-5.881c-0.309-2.553,0.882-4.441,3.024-5.802
			c2.096-1.332,4.166-0.95,6.263-0.044C258.093,103.911,258.407,104.448,258.958,103.849z M289.955,95.449
			c-0.543,1.682-0.99,3.371-2.197,4.722c-1.957,2.191-5.625,2.926-7.706,1.349c-2.82-2.139-4.705-4.986-5.539-8.42
			c-0.472-1.946-0.272-3.912,1.076-5.557c2.407-2.936,6.358-3.132,9.313-0.508c0.255,0.226,0.426,0.715,0.944,0.507
			c-0.242-1.227-2.652-5.361-3.368-5.803c-0.07,1.715-0.168,1.808-1.963,2.15c-0.941,0.178-1.897,0.328-2.8,0.628
			c-5.169,1.714-8.103,6.734-7.159,12.176c0.631,3.635,3.802,6.861,7.122,7.823c4.236,1.229,11.005-1.538,12.704-6.552
			C290.707,97.002,290.812,96.229,289.955,95.449z M238.88,263.905c-0.561,0.855-1.071,1.71-1.657,2.51
			c-1.128,1.541-1.366,1.546-2.671,0.256c-0.023-0.023-0.135,0.043-0.41,0.14c1.708,2.471,3.378,4.89,5.049,7.31
			c0.126-0.036,0.251-0.072,0.377-0.107c-0.504-1.434-0.036-2.634,0.682-3.804c2.065-3.364,4.107-6.743,6.149-10.121
			c1.143-1.891,2.266-3.792,3.452-5.78c-0.31-0.021-0.431-0.056-0.542-0.034c-4.545,0.883-9.082,1.822-13.638,2.638
			c-2.663,0.477-5.335,1.488-8.098,0.232c0.397,1.123,2.997,4.729,3.729,5.171c0.221-0.509-0.203-0.818-0.345-1.194
			c-0.184-0.488-0.412-0.952-0.054-1.473c0.391-0.57,3.31-1.656,3.937-1.404c0.169,0.069,0.316,0.245,0.427,0.404
			C236.469,260.385,237.661,262.127,238.88,263.905z M322.53,313.167c-1.104-0.773-1.228-1.736-1-2.911
			c0.271-1.409,0.402-2.846,0.593-4.27c0.407-3.048,0.806-6.098,1.225-9.144c0.241-1.761,0.685-2.132,2.396-2.122
			c0.271,0.001,0.662,0.241,0.774-0.48c-3.373-0.455-6.734-0.909-10.183-1.374c0.111,0.715,0.461,0.587,0.706,0.643
			c1.389,0.315,1.867,0.907,1.687,2.268c-0.565,4.275-1.128,8.552-1.761,12.818c-0.425,2.867-0.478,2.859-3.198,3.473
			C316.653,312.595,319.544,313.087,322.53,313.167z M346.612,72.764c1.058,0.058,2.213,0.091,3.218-0.65
			c0.91-0.671,1.14-1.656,0.54-2.349c-0.703-0.813-1.635-0.781-2.472,0.103c-0.271,0.288-0.487,0.628-0.758,0.918
			c-1.367,1.458-3.725,0.946-4.378-0.947c-0.169-0.49-0.323-0.988-0.734-1.339c-0.548-0.468-1.174-0.793-1.833-0.307
			c-0.679,0.5-0.906,1.211-0.494,2.007c0.376,0.723,0.911,1.295,1.693,1.607C343.037,72.462,344.729,72.851,346.612,72.764z
			 M339.47,290.888c1.766-0.065,3.419-0.221,5.014-0.814c0.905-0.337,1.646-0.808,1.957-1.764c0.219-0.67,0.342-1.36-0.45-1.76
			c-0.737-0.372-1.488-0.413-2.029,0.333c-0.371,0.511-0.7,1.071-0.941,1.654c-0.337,0.814-0.93,1.048-1.752,1.182
			c-1.553,0.252-2.302-0.653-3.082-1.741c-0.624-0.871-1.756-0.942-2.391-0.307c-0.648,0.646-0.482,1.675,0.357,2.397
			C337.154,290.93,338.374,290.821,339.47,290.888z M442.324,160.214c0.227,2.268,0.699,4.47,1.941,6.442
			c0.442,0.703,1.016,1.241,1.887,1.31c0.584,0.045,1.159-0.054,1.398-0.678c0.232-0.611,0.271-1.229-0.216-1.79
			c-0.456-0.522-1.108-0.588-1.693-0.812c-2.072-0.792-2.552-3.004-0.992-4.532c0.337-0.332,0.69-0.692,0.892-1.109
			c0.35-0.723,0.232-1.45-0.486-1.891c-0.763-0.468-1.46-0.267-1.973,0.472C442.545,158.398,442.189,159.229,442.324,160.214z"/>
		<path fill-rule="evenodd" clip-rule="evenodd" fill="#DD2920" d="M420.772,192.632c0.074,50.417-41.259,93.648-94.277,93.019
			c-49.86-0.593-91.722-41.278-91.769-92.981c-0.047-52.911,43.844-93.954,94.625-93.077
			C378.843,100.448,420.706,141.074,420.772,192.632z M327.678,102.516c-49.226,0.092-89.457,40.013-89.969,89.05
			c-0.525,50.255,39.752,90.479,88.631,91.146c51.394,0.7,91.47-40.813,91.486-90.005
			C417.845,142.704,377.072,102.525,327.678,102.516z"/>
		<path fill-rule="evenodd" clip-rule="evenodd" fill="#DD2920" d="M352.65,95.405c-3.445-0.459-6.892-0.919-10.409-1.389
			c0.281-0.776,0.684-0.542,0.99-0.483c1.188,0.229,1.869-0.249,2.19-1.402c0.484-1.743,0.563-3.547,0.866-5.316
			c0.326-1.916,0.523-3.854,0.818-6.101c-1.114,1.258-2.037,2.284-2.944,3.324c-1.546,1.775-3.037,3.602-4.644,5.319
			c-0.774,0.828-1.029,1.671-0.715,2.708c0.298,0.981,1.131,1.087,1.986,1.147c0.174,0.012,0.34,0.135,0.509,0.208
			c-0.026,0.125-0.055,0.25-0.082,0.373c-3.444-0.468-6.889-0.937-10.389-1.412c0.216-0.645,0.53-0.464,0.782-0.451
			c1.745,0.091,2.201-0.268,2.453-2.004c0.504-3.478,1.003-6.956,1.486-10.436c0.165-1.186,0.286-2.378,0.413-3.57
			c0.16-1.523-0.118-1.9-1.592-2.25c-0.285-0.067-0.657,0.001-0.881-0.649c3.566,0.472,7.005,0.928,10.614,1.405
			c-0.472,0.72-0.957,0.521-1.325,0.485c-1.288-0.128-1.843,0.575-2.015,1.699c-0.313,2.052-0.585,4.111-0.882,6.167
			c-0.226,1.579-0.461,3.157-0.705,4.816c0.486-0.081,0.655-0.458,0.883-0.725c2.199-2.582,4.383-5.177,6.578-7.762
			c1.679-1.978,1.21-3.379-1.328-3.944c-0.11-0.024-0.21-0.094-0.291-0.303c3.495,0.142,6.935,0.696,10.438,1.238
			c-0.236,0.652-0.597,0.487-0.883,0.461c-1.535-0.139-2.232,0.392-2.441,1.885c-0.63,4.508-1.259,9.017-1.893,13.524
			c-0.262,1.866,0.015,2.22,2.452,3.096C352.679,95.176,352.664,95.291,352.65,95.405z"/>
		<path fill-rule="evenodd" clip-rule="evenodd" fill="#DD2920" d="M424.636,179.12c-0.874-3.511-1.715-6.893-2.572-10.338
			c0.8-0.021,0.636,0.448,0.733,0.689c0.606,1.494,1.074,1.827,2.644,1.451c3.526-0.845,7.037-1.767,10.899-2.744
			c-1.695-0.565-3.087-1.032-4.479-1.492c-2.309-0.761-4.608-1.544-6.929-2.27c-1.882-0.59-3.034,0.422-2.756,2.358
			c0.056,0.391,0.056,0.391-0.309,1.161c-0.904-3.566-1.757-6.916-2.606-10.266c0.121-0.037,0.243-0.073,0.364-0.109
			c0.456,0.303,0.459,0.868,0.665,1.31c0.325,0.693,0.821,1.137,1.596,0.958c4.971-1.145,9.925-2.364,14.851-3.697
			c1.266-0.343,1.531-1.079,1.232-2.215c-0.079-0.303-0.22-0.608,0.283-1.01c0.85,3.366,1.702,6.732,2.566,10.16
			c-0.81,0.042-0.674-0.462-0.756-0.743c-0.391-1.336-0.873-1.7-2.26-1.464c-3.683,0.629-7.22,1.824-10.859,2.956
			c1.602,0.526,3.2,1.061,4.807,1.576c2.087,0.67,4.17,1.352,6.271,1.981c1.937,0.58,3.063-0.42,2.696-2.343
			c0.291-0.218,0.534-0.188,0.628,0.184c0.737,2.936,1.467,5.876,2.191,8.817c0.014,0.055-0.067,0.133-0.104,0.204
			c-0.392,0.071-0.466-0.225-0.541-0.489c-0.451-1.581-1.032-2.004-2.578-1.633c-4.613,1.107-9.22,2.25-13.82,3.413
			c-1.327,0.335-1.781,1.172-1.525,2.514C425.027,178.356,425.313,178.722,424.636,179.12z"/>
		<path fill-rule="evenodd" clip-rule="evenodd" fill="#DD2920" d="M297.715,76.851c3.401-0.568,6.789-1.131,10.44-1.74
			c-0.261,0.345-0.316,0.494-0.389,0.504c-2.085,0.287-2.46,1.107-2.034,3.294c0.652,3.357,1.189,6.737,1.983,10.152
			c0.875-2.116,1.753-4.232,2.625-6.35c0.562-1.365,1.108-2.734,1.673-4.098c0.926-2.238-0.016-3.541-2.436-3.361
			c-0.11,0.008-0.223-0.014-0.362-0.024c0.581-0.561,8.888-2.164,10.168-1.982c0.068,0.516-0.339,0.432-0.625,0.492
			c-1.549,0.324-1.889,0.622-1.687,2.174c0.333,2.572,0.835,5.121,1.267,7.68c0.373,2.205,0.759,4.406,1.117,6.612
			c0.215,1.321,0.88,1.866,2.205,1.769c0.338-0.025,0.693-0.245,1.028,0.039c-0.683,0.488-8.355,1.919-10.075,1.867
			c0.204-0.49,0.67-0.426,1.02-0.552c0.695-0.25,1.191-0.641,1.128-1.471c-0.296-3.854-1.311-7.579-1.844-11.391
			c-0.1-0.008-0.199-0.016-0.3-0.024c-0.869,2.073-1.74,4.146-2.604,6.22c-0.598,1.436-1.188,2.874-1.777,4.313
			c-0.736,1.795,0.224,3.119,2.123,2.938c0.308-0.029,0.622-0.108,0.964,0.396c-3.407,0.589-6.813,1.179-10.309,1.783
			c0.16-0.729,0.663-0.572,0.997-0.668c1.087-0.313,1.582-1.012,1.387-2.135c-0.754-4.366-1.523-8.73-2.286-13.096
			c-0.048-0.275-0.085-0.552-0.121-0.829c-0.25-1.938-0.584-2.204-2.556-2.02C298.166,77.367,297.865,77.502,297.715,76.851z"/>
		<path fill-rule="evenodd" clip-rule="evenodd" fill="#DD2920" d="M432.729,139.672c-1.607-1.498-2.901-0.451-4.229,0.308
			c-3.354,1.92-6.714,3.833-10.06,5.771c-2.33,1.349-2.326,1.383-1.546,3.931c0.027,0.089-0.054,0.212-0.177,0.64
			c-1.697-2.925-3.271-5.637-4.845-8.349c0.279-0.174,0.518-0.231,0.638-0.061c0.832,1.186,1.73,0.748,2.698,0.191
			c3.072-1.77,6.163-3.508,9.239-5.253c-0.063-0.329-0.307-0.238-0.476-0.246c-3.593-0.169-7.185-0.348-10.779-0.485
			c-2.372-0.09-3.191,1.139-2.229,3.266c0.077,0.17,0.252,0.323-0.134,0.804c-1.799-3.115-3.535-6.118-5.406-9.355
			c0.92,0.187,1.069,0.717,1.303,1.078c0.597,0.92,1.378,0.947,2.172,0.492c4.323-2.475,8.622-4.994,12.932-7.492
			c0.984-0.571,1.42-1.269,0.652-2.327c-0.119-0.166-0.128-0.373,0.204-0.872c1.938,2.833,3.373,5.78,5.146,8.715
			c-0.863,0.087-0.898-0.504-1.137-0.774c-0.63-0.715-1.373-1.094-2.22-0.63c-3.271,1.793-6.505,3.654-9.679,5.447
			c0.016,0.48,0.25,0.432,0.436,0.44c3.593,0.167,7.187,0.345,10.779,0.492c2.104,0.085,2.969-1.282,2.054-3.185
			c-0.121-0.251-0.252-0.508,0.127-1.011c1.596,2.783,3.137,5.47,4.676,8.156C432.822,139.467,432.775,139.569,432.729,139.672z"/>
		<path fill-rule="evenodd" clip-rule="evenodd" fill="#DD2920" d="M343.401,312.181c-3.47,0.435-6.939,0.871-10.411,1.307
			c-0.099-0.738,0.339-0.672,0.677-0.731c1.606-0.277,2.003-0.729,1.83-2.32c-0.301-2.779-0.661-5.551-0.996-8.326
			c-0.226-1.864-0.412-3.733-0.691-5.588c-0.296-1.975-0.505-2.107-2.467-2.022c-0.226,0.009-0.468,0.088-0.911-0.361
			c3.328-0.521,6.436-0.926,9.712-0.964c-1.968,0.655-1.746,2.068-1.548,3.552c0.439,3.279,0.803,6.568,1.209,9.944
			c0.451-0.215,0.53-0.577,0.664-0.86c1.525-3.201,3.035-6.41,4.541-9.621c0.861-1.837,0.026-3.123-2.004-3.115
			c-0.29,0-0.619,0.1-1.07-0.408c3.66-0.441,7.109-0.859,10.701-1.293c-0.266,0.667-0.689,0.581-0.997,0.652
			c-1.361,0.317-1.819,0.882-1.66,2.227c0.52,4.361,1.036,8.721,1.59,13.078c0.354,2.793,0.383,2.79,3.151,3.374
			c-3.373,0.41-6.746,0.821-10.331,1.258c0.309-0.608,0.669-0.584,0.998-0.64c1.303-0.217,1.812-0.728,1.674-2.012
			c-0.388-3.61-0.86-7.212-1.305-10.817c-0.008-0.067-0.086-0.127-0.226-0.322c-1.176,2.452-2.319,4.832-3.46,7.213
			c-0.447,0.935-0.884,1.876-1.331,2.811c-1.132,2.366-0.419,3.518,2.19,3.55c0.146,0.002,0.29,0.061,0.436,0.093
			C343.378,311.952,343.39,312.066,343.401,312.181z"/>
		<path fill-rule="evenodd" clip-rule="evenodd" fill="#DD2920" d="M295.541,288.977c-2.19-0.56-2.62-0.401-3.551,1.574
			c-1.9,4.037-3.777,8.088-5.602,12.16c-0.737,1.646-0.525,2.077,1.016,2.993c0.157,0.094,0.4,0.122,0.292,0.649
			c-3.084-1.432-6.117-2.84-9.216-4.278c0.2-0.199,0.271-0.305,0.302-0.294c2.187,0.755,2.521,0.601,3.528-1.586
			c0.815-1.772,1.647-3.538,2.552-5.478c-2.104-0.962-4.174-1.909-6.342-2.9c-0.994,2.209-1.977,4.297-2.872,6.421
			c-0.45,1.07-0.034,1.955,0.996,2.497c0.229,0.121,0.563,0.088,0.697,0.825c-3.289-1.508-6.372-2.923-9.473-4.345
			c0.211-0.374,0.355-0.362,0.519-0.313c2.144,0.628,2.354,0.588,3.327-1.439c1.915-3.987,3.776-8,5.628-12.017
			c0.851-1.845,0.7-2.241-1.014-3.277c-0.167-0.102-0.39-0.135-0.259-0.688c3.197,1.377,6.302,2.822,9.444,4.402
			c-0.228,0.217-0.297,0.325-0.334,0.314c-2.59-0.715-2.619-0.713-3.825,1.73c-0.723,1.464-1.403,2.95-2.1,4.429
			c-0.031,0.066-0.026,0.149-0.051,0.311c2.026,0.948,4.072,1.905,6.266,2.932c0.953-2.127,1.93-4.165,2.77-6.258
			c0.327-0.813-0.028-1.561-0.925-1.937c-0.269-0.112-0.627-0.145-0.712-0.53C287.765,284.688,294.987,287.939,295.541,288.977z"/>
		<path fill-rule="evenodd" clip-rule="evenodd" fill="#DD2920" d="M220.965,214.731c-2.393,0.39-4.717,0.766-7.039,1.151
			c-0.699,0.116-1.012,0.586-1.056,1.258c-0.036,0.538-0.057,1.079-0.084,1.617c-0.121,0.011-0.242,0.022-0.362,0.033
			c-0.532-3.307-1.064-6.614-1.616-10.044c0.628,0.174,0.603,0.564,0.708,0.876c0.458,1.351,0.834,1.601,2.338,1.38
			c2.725-0.4,5.443-0.847,8.166-1.27c1.735-0.27,3.472-0.531,5.207-0.797c2.042-0.313,2.349-0.655,2.46-2.739
			c0.008-0.151-0.005-0.321,0.415-0.443c0.523,3.341,1.042,6.657,1.569,10.024c-0.717-0.018-0.669-0.492-0.708-0.779
			c-0.157-1.16-0.872-1.529-1.929-1.482c-2.16,0.097-4.248,0.669-6.372,0.924c-0.214,2.404,0.481,3.508,2.68,3.991
			c1.517,0.333,3.075,0.469,4.612,0.717c2.185,0.353,4.103,3.695,2.517,5.827c-0.63,0.847-2.103,1.3-2.984,0.811
			c-0.774-0.428-1.133-1.54-0.819-2.395c0.236-0.645,0.755-0.885,1.336-1.08c0.4-0.134,0.905-0.147,0.909-0.764
			c0.004-0.593-0.408-0.808-0.864-1.01c-1.344-0.595-2.811-0.555-4.219-0.8c-1.034-0.18-2.026-0.418-3.047-0.949
			c-0.597,2.681-2.989,3.683-4.775,5.25c-1.563,1.371-3.773,2.218-3.665,4.995c-0.667-0.481-0.567-1.013-0.648-1.427
			c-0.276-1.409-0.441-2.84-0.718-4.25c-0.142-0.728,0.064-1.16,0.666-1.595c2.228-1.612,4.412-3.286,6.613-4.935
			C220.948,216.309,221.292,215.68,220.965,214.731z"/>
		<path fill-rule="evenodd" clip-rule="evenodd" fill="#DD2920" d="M400.949,111.75c0.918,1.537,0.64,2.968,0.248,4.419
			c-0.458,1.694-0.842,3.407-1.291,5.104c-0.351,1.322-0.341,2.565,0.77,3.578c-0.639,0.405-0.813-0.063-1.033-0.264
			c-1.208-1.103-2.379-2.248-3.584-3.353c-0.396-0.363-0.51-0.687-0.356-1.247c0.749-2.729,1.425-5.479,2.141-8.217
			c0.207-0.797,0.047-1.475-0.612-2.264c-1.717,1.887-3.393,3.683-5.009,5.531c-0.456,0.522-0.428,1.147,0.07,1.743
			c0.283,0.341,0.672,0.67,0.507,1.358c-2.463-2.27-4.924-4.538-7.462-6.877c0.736-0.384,1.028,0.034,1.336,0.288
			c0.839,0.686,1.644,0.583,2.332-0.152c3.408-3.642,6.796-7.304,10.179-10.97c0.627-0.679,0.705-1.398,0.003-2.116
			c-0.27-0.276-0.482-0.606-0.722-0.912c0.1-0.103,0.199-0.207,0.3-0.31c2.471,2.266,4.943,4.531,7.436,6.817
			c-0.585,0.542-0.772,0.047-1.022-0.122c-1.103-0.743-1.865-0.709-2.757,0.219c-1.41,1.466-2.797,2.956-4.191,4.436
			c1.469,2.25,2.699,2.573,4.962,1.267c1.312-0.756,2.578-1.586,3.985-2.172c2.38-0.991,5.461,1.072,5.187,3.518
			c-0.107,0.948-0.528,1.78-1.569,2.026c-0.95,0.224-1.696-0.062-2.203-0.97c-0.417-0.745-0.055-1.288,0.309-1.869
			c0.252-0.4,0.622-0.813,0.233-1.3c-0.383-0.477-0.87-0.391-1.415-0.216c-1.198,0.386-2.181,1.152-3.269,1.733
			C403.397,111.017,402.389,111.682,400.949,111.75z"/>
		<path fill-rule="evenodd" clip-rule="evenodd" fill="#DD2920" d="M387.969,296.629c-1.193,0.865-2.658,1.299-3.891,2.12
			c-1.254,0.836-2.232,0.76-3.48-0.207c-1.978-1.534-3.996-3.047-6.188-4.289c-0.639-0.362-1.242-0.498-1.985,0.029
			c1.108,2.151,2.198,4.317,3.342,6.454c0.464,0.872,1.248,0.81,2.08,0.546c0.33-0.104,0.615-0.604,1.259-0.025
			c-2.835,1.363-5.428,2.956-8.459,3.927c1.469-1.287,0.748-2.551,0.151-3.745c-1.852-3.71-3.75-7.398-5.64-11.09
			c-0.18-0.353-0.41-0.682-0.624-1.017c-0.563-0.883-1.26-1.309-2.294-0.704c-0.272,0.16-0.595,0.242-1.204-0.098
			c2.887-1.542,5.612-2.979,8.569-4.136c-1.529,1.372-0.955,2.721-0.212,4.092c0.794,1.463,1.563,2.94,2.331,4.392
			c2.777-0.923,3.277-1.827,2.801-4.578c-0.27-1.561-0.813-3.093-0.558-4.724c0.351-2.232,2.382-3.789,4.418-3.36
			c1.592,0.335,2.438,2.122,1.6,3.374c-0.7,1.048-2.012,1.133-2.842,0.19c-0.372-0.424-0.609-1.231-1.336-0.908
			c-0.702,0.313-0.733,1.082-0.625,1.791c0.161,1.065,0.287,2.14,0.512,3.193c0.244,1.145,0.397,2.279,0.101,3.557
			c1.888-0.281,3.238,0.725,4.619,1.684c1.279,0.885,2.605,1.702,3.878,2.596c0.962,0.675,1.948,1.088,3.131,0.7
			C387.613,296.33,387.814,296.264,387.969,296.629z"/>
		<path fill-rule="evenodd" clip-rule="evenodd" fill="#DD2920" d="M235.398,148.542c-5.742-0.127-10.589-4.079-10.62-9.919
			c-0.028-5.341,4.377-11.164,10.345-11.03c5.47,0.123,10.436,4.826,10.401,10.146C245.492,142.909,241.257,148.66,235.398,148.542z
			 M238.304,144.68c2.957,0.111,4.289-1.008,5.081-2.742c0.749-1.641,0.36-3.301-0.808-4.568c-2.922-3.171-6.564-5.172-10.829-5.858
			c-1.713-0.276-3.364,0.153-4.367,1.799c-0.938,1.541-1.168,3.219-0.101,4.732C230.174,142.145,234.421,143.926,238.304,144.68z"/>
		<path fill-rule="evenodd" clip-rule="evenodd" fill="#DD2920" d="M308.919,292.024c-0.321,0.451-0.643,0.285-0.949,0.291
			c-1.376,0.029-1.811,0.488-1.968,1.846c-0.229,1.981-0.535,3.955-0.824,6.039c1.725,0.35,3.502,0.572,5.193,1.082
			c2.971,0.895,4.573,2.344,4.414,5.363c-0.133,2.545-2.279,4.608-4.838,4.706c-4.032,0.154-7.928-0.84-11.883-1.339
			c-0.607-0.077-1.208-0.197-1.918-0.314c0.47-0.563,0.939-0.365,1.34-0.357c1.145,0.022,1.689-0.624,1.837-1.642
			c0.641-4.425,1.254-8.854,1.87-13.282c0.056-0.395,0.035-0.801,0.098-1.195c0.193-1.234-0.399-1.867-1.554-2.094
			c-0.261-0.051-0.582-0.006-0.711-0.645C302.404,290.848,305.68,291.313,308.919,292.024z M304.905,301.555
			c-0.238,2.234-0.726,4.303-0.774,6.423c-0.017,0.648-0.278,1.504,0.512,1.821c0.945,0.377,1.961,0.696,2.976,0.015
			c1.672-1.123,2.364-3.778,1.622-5.648C308.452,302.182,306.788,301.872,304.905,301.555z"/>
		<path fill-rule="evenodd" clip-rule="evenodd" fill="#DD2920" d="M411.322,255.636c2.593,2.143,5.188,4.285,7.781,6.428
			c-0.028,0.124-0.056,0.248-0.082,0.371c-2.159-0.796-4.381-2.37-6.333,0.419c1.816,1.443,3.666,2.929,5.536,4.389
			c0.57,0.444,1.137,0.265,1.609-0.214c2.456-2.487,4.141-5.443,1.698-9.304c-0.049-0.076-0.005-0.21-0.005-0.33
			c0.894,0.274,2.898,2.21,4.214,4.043c-0.729,1.228-9.936,12.437-10.651,12.964c-0.308-0.298-0.012-0.487,0.128-0.701
			c1.016-1.564,0.999-1.871-0.477-3.079c-2.655-2.174-5.346-4.305-8.018-6.457c-0.901-0.725-1.801-1.453-2.688-2.195
			c-1.333-1.114-1.878-1.093-3.144,0.155c-0.162,0.16-0.288,0.408-0.801,0.131c3.407-4.249,6.789-8.463,10.224-12.746
			c1.552,1.25,3.021,2.432,4.491,3.614c-0.039,0.151-0.077,0.302-0.116,0.453c-1.729-0.691-3.469-1.5-5.22-0.452
			c-1.649,0.987-2.608,2.626-3.839,4.126c2.07,1.678,4.077,3.303,6.059,4.909c2.593-2.438,0.368-4.368-0.79-6.4
			C411.04,255.719,411.181,255.678,411.322,255.636z"/>
		<path fill-rule="evenodd" clip-rule="evenodd" fill="#DD2920" d="M235.433,229.879c0.159-0.049,0.236,0.082,0.304,0.235
			c1.476,3.397,3.288,6.658,4.358,10.217c0.589,1.958,0.368,3.929-1.159,5.465c-1.375,1.382-3.109,1.772-4.971,1.192
			c-1.69-0.525-2.807-1.788-3.662-3.269c-0.535-0.928-0.955-1.92-1.486-3.006c-2.181,0.925-4.391,1.789-6.458,2.961
			c-0.625,0.355-0.691,1.019-0.505,1.695c0.106,0.382,0.404,0.734-0.008,1.263c-1.341-2.99-2.682-5.98-4.098-9.139
			c0.894,0.104,0.938,0.734,1.205,1.104c0.494,0.688,1.062,0.936,1.85,0.591c4.379-1.919,8.775-3.805,13.131-5.775
			c1.917-0.867,1.93-1.058,1.329-3.122C235.214,230.126,235.194,229.977,235.433,229.879z M237.52,236.779
			c-2.609,1.156-5.107,2.263-7.618,3.375c0.413,1.503,1.112,2.635,2.686,2.787c2.097,0.203,3.892-0.604,5.162-2.215
			C238.682,239.543,238.246,238.176,237.52,236.779z"/>
		<path fill-rule="evenodd" clip-rule="evenodd" fill="#DD2920" d="M225.165,167.207c2.301,0.397,4.532,0.772,6.759,1.171
			c1.339,0.24,1.449-0.938,2.071-1.655c-0.344,3.15-0.998,6.213-1.77,9.409c-0.294-0.25-0.402-0.301-0.4-0.346
			c0.135-2.538,0.02-2.683-2.524-3.201c-4.375-0.892-8.755-1.762-13.121-2.692c-1.165-0.249-1.837,0.118-2.2,1.217
			c-0.095,0.288-0.069,0.656-0.427,0.821c-0.279-0.061-0.226-0.278-0.186-0.465c0.78-3.62,1.292-7.309,2.491-10.824
			c1.199-3.516,4.79-4.778,7.783-2.703c2.016,1.397,2.35,3.603,2.138,5.88C225.678,164.916,225.391,165.996,225.165,167.207z
			 M224.093,166.936c0.267-1.646,0.466-3.137-0.999-4.158c-1.526-1.064-3.238-1.622-5.071-0.987
			c-1.475,0.51-2.053,1.758-2.183,3.363C218.593,165.749,221.302,166.333,224.093,166.936z"/>
		<path fill-rule="evenodd" clip-rule="evenodd" fill="#DD2920" d="M396.191,280.275c1.289,1.639,2.478,3.187,3.708,4.698
			c1.149,1.412,1.485,1.444,3.096,0.5c0.168-0.097,0.334-0.247,0.538-0.066c-0.473,0.942-5.985,5.155-7.035,5.263
			c1.073-1.243,0.396-2.202-0.354-3.155c-2.865-3.631-5.729-7.262-8.588-10.897c-0.702-0.894-1.462-1.163-2.456-0.402
			c-0.225,0.171-0.508,0.589-0.961,0.235c0.042-0.095,0.059-0.23,0.137-0.288c3.005-2.295,5.753-4.945,9.07-6.809
			c2.712-1.523,5.177-1.043,6.901,1.235c1.081,1.429,1.142,3.019,0.543,4.652c-0.69,1.883-2.206,3.079-3.668,4.313
			C396.852,279.782,396.562,279.989,396.191,280.275z M390.366,272.748c1.757,2.252,3.435,4.404,5.146,6.598
			c1.322-0.795,2.183-1.79,2.01-3.247c-0.235-1.977-1.341-3.449-3.12-4.363C392.854,270.94,391.667,271.754,390.366,272.748z"/>
		<path fill-rule="evenodd" clip-rule="evenodd" fill="#DD2920" d="M421.425,226.392c1.972,0.987,4.047,1.789,6.075,3.013
			c-0.65,0.489-1.168,0.248-1.652,0.225c-2.9-0.137-4.982,1.126-6.203,3.372c-1.224,2.253-0.408,6.014,2.041,7.805
			c2.259,1.652,4.742,2.752,7.494,3.253c4.131,0.751,7.944-3.2,7.118-7.422c-0.205-1.047-0.57-2.064-0.886-3.18
			c0.778,0.094,1.291,0.414,1.561,1.16c2.212,6.13-2.654,13.729-9.113,13.988c-7.202,0.291-11.995-6.539-10.64-12.666
			c0.49-2.213,1.473-4.104,3.104-5.671c0.343-0.33,0.632-0.719,0.965-1.062c0.643-0.661,0.874-1.326,0.105-2.056
			C421.188,226.955,421.221,226.728,421.425,226.392z"/>
		<path fill-rule="evenodd" clip-rule="evenodd" fill="#DD2920" d="M426.295,203.872c1.104-0.04,4.307,0.598,5.278,1.126
			c-1.465,0.382-2.986,0.343-3.938,1.395c-0.925,1.022-1.249,2.371-1.317,3.872c2.126,0.384,4.234,0.778,6.348,1.146
			c2.989,0.521,5.98,1.04,8.976,1.528c1.67,0.271,2.134-0.062,2.671-1.746c0.045-0.137,0.131-0.26,0.226-0.448
			c0.336,1.095-1.151,9.34-1.755,9.955c-0.051-0.055-0.145-0.112-0.145-0.166c0.063-2.542,0.042-2.598-2.473-3.044
			c-4.6-0.816-9.204-1.601-13.81-2.392c-0.266-0.046-0.541-0.044-0.864-0.069c-0.337,1.402-0.69,2.703,0.04,4.09
			c0.662,1.259,1.998,1.682,3.043,2.467c-0.06,0.108-0.118,0.215-0.177,0.322c-1.698-0.303-3.395-0.606-5.081-0.907
			C423.361,219.888,425.995,204.793,426.295,203.872z"/>
		<path fill-rule="evenodd" clip-rule="evenodd" fill="#DD2920" d="M261.808,288.397c-0.71,1.606-2.011,1.313-3.165,1.197
			c-4.903-0.488-9.112-5.479-9.455-10.035c-0.287-3.824,2.611-8.321,6.212-9.681c3.936-1.488,7.607-0.973,10.945,1.567
			c1.378,1.049,2.355,2.478,3.171,3.999c0.971,1.814,0.96,1.82,3.093,1.604c-1.497,1.638-2.993,3.276-4.626,5.063
			c-0.205-0.906,0.208-1.405,0.357-1.958c0.697-2.586,0.385-4.954-1.731-6.767c-1.889-1.618-4.155-1.98-6.383-0.935
			c-3.716,1.743-6.266,4.676-7.387,8.626c-0.978,3.445,2.253,7.155,6.157,7.314C259.902,288.428,260.81,288.397,261.808,288.397z"/>
		<path fill-rule="evenodd" clip-rule="evenodd" fill="#DD2920" d="M385.678,87.665c-0.917,2.016-1.834,4.032-2.849,6.262
			c-0.521-0.962-0.196-1.676-0.208-2.357c-0.063-3.954-3.934-6.785-7.187-5.958c-2.013,0.511-3.488,1.617-4.574,3.216
			c-1.561,2.298-2.636,4.832-2.681,7.68c-0.062,3.977,3.115,6.786,7.095,6.312c1.245-0.148,2.396-0.583,3.632-1.168
			c-0.155,0.898-0.489,1.46-1.329,1.799c-5.116,2.067-12.249-2.071-13.633-6.91c-1.543-5.396,2.256-11.621,7.723-12.768
			c4.153-0.873,7.547,0.361,10.486,3.181c1.026,0.982,1.92,1.974,3.348,0.236C385.56,87.348,385.619,87.506,385.678,87.665z"/>
		<path fill-rule="evenodd" clip-rule="evenodd" fill="#DD2920" d="M258.958,103.849c-0.552,0.599-0.865,0.062-1.212-0.089
			c-2.097-0.906-4.167-1.288-6.263,0.044c-2.142,1.361-3.333,3.25-3.024,5.802c0.282,2.336,1.618,4.194,3.197,5.881
			c1.02,1.088,2.172,1.989,3.477,2.707c4.262,2.341,8.889-0.04,9.518-4.918c0.111-0.864,0.132-1.74,0.203-2.714
			c0.848,0.479,1.111,1.047,1.069,2.026c-0.245,5.578-5.609,9.447-9.953,9.875c-3.853,0.38-8.09-2.222-9.607-5.795
			c-1.865-4.391-1.121-8.33,1.926-11.897c1.167-1.367,2.741-2.133,4.355-2.855c1.765-0.789,1.774-0.892,1.333-2.97
			C255.884,100.571,257.354,102.271,258.958,103.849z"/>
		<path fill-rule="evenodd" clip-rule="evenodd" fill="#DD2920" d="M289.955,95.449c0.857,0.78,0.752,1.553,0.427,2.514
			c-1.699,5.014-8.468,7.781-12.704,6.552c-3.319-0.962-6.491-4.188-7.122-7.823c-0.944-5.441,1.989-10.462,7.159-12.176
			c0.903-0.3,1.859-0.45,2.8-0.628c1.795-0.342,1.893-0.435,1.963-2.15c0.716,0.442,3.126,4.576,3.368,5.803
			c-0.518,0.208-0.689-0.281-0.944-0.507c-2.955-2.624-6.906-2.428-9.313,0.508c-1.349,1.646-1.548,3.611-1.076,5.557
			c0.834,3.435,2.718,6.282,5.539,8.42c2.081,1.577,5.749,0.842,7.706-1.349C288.965,98.82,289.412,97.13,289.955,95.449z"/>
		<path fill-rule="evenodd" clip-rule="evenodd" fill="#DD2920" d="M238.88,263.905c-1.219-1.778-2.411-3.521-3.612-5.255
			c-0.11-0.159-0.257-0.335-0.427-0.404c-0.627-0.252-3.546,0.834-3.937,1.404c-0.358,0.521-0.129,0.985,0.054,1.473
			c0.142,0.376,0.566,0.685,0.345,1.194c-0.732-0.442-3.332-4.048-3.729-5.171c2.763,1.255,5.435,0.244,8.098-0.232
			c4.557-0.816,9.093-1.755,13.638-2.638c0.111-0.022,0.231,0.013,0.542,0.034c-1.186,1.988-2.31,3.89-3.452,5.78
			c-2.042,3.378-4.083,6.757-6.149,10.121c-0.718,1.17-1.186,2.37-0.682,3.804c-0.126,0.036-0.251,0.071-0.377,0.107
			c-1.671-2.42-3.341-4.839-5.049-7.31c0.275-0.097,0.386-0.164,0.41-0.14c1.305,1.29,1.543,1.284,2.671-0.256
			C237.809,265.616,238.319,264.76,238.88,263.905z M239.467,262.752c1.29-2.096,2.492-4.048,3.834-6.228
			c-2.5,0.481-4.76,0.916-7.198,1.385C237.273,259.595,238.328,261.112,239.467,262.752z"/>
		<path fill-rule="evenodd" clip-rule="evenodd" fill="#DD2920" d="M322.53,313.167c-2.986-0.08-5.877-0.572-8.762-1.1
			c2.721-0.613,2.773-0.605,3.198-3.473c0.633-4.266,1.195-8.542,1.761-12.818c0.181-1.361-0.298-1.953-1.687-2.268
			c-0.245-0.056-0.595,0.072-0.706-0.643c3.448,0.465,6.81,0.919,10.183,1.374c-0.112,0.721-0.504,0.481-0.774,0.48
			c-1.711-0.01-2.154,0.361-2.396,2.122c-0.419,3.046-0.817,6.096-1.225,9.144c-0.19,1.424-0.321,2.861-0.593,4.27
			C321.303,311.43,321.426,312.394,322.53,313.167z"/>
		<path fill-rule="evenodd" clip-rule="evenodd" fill="#DD2920" d="M346.612,72.764c-1.884,0.087-3.575-0.302-5.218-0.957
			c-0.782-0.312-1.317-0.884-1.693-1.607c-0.412-0.796-0.185-1.507,0.494-2.007c0.659-0.486,1.285-0.161,1.833,0.307
			c0.411,0.351,0.565,0.849,0.734,1.339c0.653,1.893,3.011,2.405,4.378,0.947c0.271-0.29,0.486-0.63,0.758-0.918
			c0.837-0.884,1.769-0.916,2.472-0.103c0.6,0.692,0.37,1.678-0.54,2.349C348.825,72.854,347.67,72.822,346.612,72.764z"/>
		<path fill-rule="evenodd" clip-rule="evenodd" fill="#DD2920" d="M339.47,290.888c-1.096-0.066-2.315,0.042-3.317-0.819
			c-0.84-0.723-1.006-1.751-0.357-2.397c0.635-0.635,1.767-0.564,2.391,0.307c0.78,1.087,1.529,1.993,3.082,1.741
			c0.822-0.134,1.415-0.367,1.752-1.182c0.241-0.583,0.57-1.144,0.941-1.654c0.541-0.746,1.292-0.705,2.029-0.333
			c0.792,0.399,0.669,1.089,0.45,1.76c-0.312,0.956-1.052,1.427-1.957,1.764C342.889,290.667,341.235,290.823,339.47,290.888z"/>
		<path fill-rule="evenodd" clip-rule="evenodd" fill="#DD2920" d="M442.324,160.214c-0.135-0.985,0.221-1.815,0.758-2.587
			c0.513-0.739,1.21-0.94,1.973-0.472c0.719,0.441,0.836,1.168,0.486,1.891c-0.201,0.417-0.555,0.777-0.892,1.109
			c-1.56,1.528-1.08,3.741,0.992,4.532c0.585,0.224,1.237,0.29,1.693,0.812c0.487,0.561,0.448,1.179,0.216,1.79
			c-0.239,0.624-0.814,0.723-1.398,0.678c-0.871-0.068-1.444-0.606-1.887-1.31C443.023,164.684,442.551,162.481,442.324,160.214z"/>
		<path fill-rule="evenodd" clip-rule="evenodd" fill="#FEFCFC" d="M327.678,102.516c49.395,0.009,90.167,40.188,90.148,90.191
			c-0.017,49.193-40.093,90.706-91.486,90.005c-48.879-0.667-89.157-40.891-88.631-91.146
			C238.221,142.529,278.452,102.608,327.678,102.516z M405.858,165.529c-17.249,0-34.378,0-51.45,0c0-17.293,0-34.517,0-51.791
			c-17.388,0-34.766,0-52.153,0c0,17.408,0,34.746,0,52.214c-17.44,0-34.824,0-52.276,0c0,17.344,0,34.559,0,51.979
			c17.333,0,34.623,0,52.009,0c0,17.305,0,34.408,0,51.571c17.47,0,34.844,0,52.228,0c0-17.394,0-34.724,0-52.126
			c17.263,0.163,34.436,0.324,51.643,0.486C405.858,200.325,405.858,182.936,405.858,165.529z"/>
		<path fill-rule="evenodd" clip-rule="evenodd" fill="#FEFCFC" d="M238.304,144.68c-3.883-0.754-8.13-2.535-11.023-6.637
			c-1.068-1.514-0.837-3.191,0.101-4.732c1.002-1.646,2.654-2.075,4.367-1.799c4.265,0.686,7.907,2.687,10.829,5.858
			c1.168,1.267,1.557,2.928,0.808,4.568C242.593,143.672,241.261,144.791,238.304,144.68z"/>
		<path fill-rule="evenodd" clip-rule="evenodd" fill="#FEFCFC" d="M304.905,301.555c1.883,0.316,3.547,0.626,4.335,2.61
			c0.742,1.87,0.05,4.525-1.622,5.648c-1.015,0.682-2.03,0.363-2.976-0.015c-0.79-0.316-0.528-1.172-0.512-1.821
			C304.18,305.858,304.667,303.79,304.905,301.555z"/>
		<path fill-rule="evenodd" clip-rule="evenodd" fill="#FEFCFC" d="M237.52,236.779c0.726,1.397,1.162,2.765,0.229,3.947
			c-1.27,1.61-3.065,2.418-5.162,2.215c-1.574-0.151-2.273-1.283-2.686-2.787C232.413,239.042,234.911,237.935,237.52,236.779z"/>
		<path fill-rule="evenodd" clip-rule="evenodd" fill="#FEFCFC" d="M224.093,166.936c-2.791-0.603-5.5-1.188-8.252-1.782
			c0.13-1.605,0.708-2.853,2.183-3.363c1.833-0.635,3.545-0.078,5.071,0.987C224.56,163.799,224.36,165.291,224.093,166.936z"/>
		<path fill-rule="evenodd" clip-rule="evenodd" fill="#FEFCFC" d="M390.366,272.748c1.301-0.993,2.487-1.808,4.036-1.011
			c1.779,0.914,2.885,2.386,3.12,4.363c0.173,1.457-0.688,2.451-2.01,3.247C393.801,277.152,392.123,275,390.366,272.748z"/>
		<path fill-rule="evenodd" clip-rule="evenodd" fill="#FEFCFC" d="M239.467,262.752c-1.139-1.64-2.193-3.157-3.364-4.843
			c2.438-0.47,4.699-0.904,7.198-1.385C241.959,258.704,240.757,260.656,239.467,262.752z"/>
		<path fill-rule="evenodd" clip-rule="evenodd" fill="#DD2920" d="M405.858,165.529c0,17.407,0,34.796,0,52.332
			c-17.207-0.162-34.38-0.323-51.643-0.486c0,17.402,0,34.733,0,52.126c-17.384,0-34.758,0-52.228,0c0-17.163,0-34.266,0-51.571
			c-17.386,0-34.676,0-52.009,0c0-17.42,0-34.635,0-51.979c17.452,0,34.836,0,52.276,0c0-17.468,0-34.806,0-52.214
			c17.388,0,34.766,0,52.153,0c0,17.274,0,34.498,0,51.791C371.48,165.529,388.609,165.529,405.858,165.529z"/>
	</g>
</g>
</svg>
