<?xml version="1.0" encoding="UTF-8" standalone="no"?>
<!-- Created with Inkscape (http://www.inkscape.org/) -->

<svg
   version="1.1"
   id="svg1"
   width="723.56268"
   height="723.56134"
   viewBox="0 0 723.56268 723.56134"
   sodipodi:docname="Russia RC.svg"
   inkscape:version="1.3.2 (091e20e, 2023-11-25, custom)"
   xmlns:inkscape="http://www.inkscape.org/namespaces/inkscape"
   xmlns:sodipodi="http://sodipodi.sourceforge.net/DTD/sodipodi-0.dtd"
   xmlns="http://www.w3.org/2000/svg"
   xmlns:svg="http://www.w3.org/2000/svg">
  <defs
     id="defs1">
    <clipPath
       clipPathUnits="userSpaceOnUse"
       id="clipPath3">
      <path
         d="M 0,542.671 H 542.64 V 0.06 L 0,0.06 Z"
         transform="translate(-271.336,-534.67101)"
         id="path3" />
    </clipPath>
  </defs>
  <sodipodi:namedview
     id="namedview1"
     pagecolor="#ffffff"
     bordercolor="#666666"
     borderopacity="1.0"
     inkscape:showpageshadow="2"
     inkscape:pageopacity="0.0"
     inkscape:pagecheckerboard="0"
     inkscape:deskcolor="#d1d1d1"
     inkscape:zoom="1.1346654"
     inkscape:cx="361.78067"
     inkscape:cy="361.78067"
     inkscape:window-width="1920"
     inkscape:window-height="1017"
     inkscape:window-x="-8"
     inkscape:window-y="-8"
     inkscape:window-maximized="1"
     inkscape:current-layer="g1">
    <inkscape:page
       x="0"
       y="0"
       inkscape:label="1"
       id="page1"
       width="723.56268"
       height="723.56134"
       margin="0"
       bleed="0" />
  </sodipodi:namedview>
  <g
     id="g1"
     inkscape:groupmode="layer"
     inkscape:label="1">
    <g
       id="group-MC1">
      <path
         id="path2"
         d="m 0,0 c -70.339,0 -136.469,-27.392 -186.207,-77.129 -49.737,-49.738 -77.129,-115.867 -77.129,-186.206 0,-70.34 27.392,-136.469 77.129,-186.207 49.738,-49.738 115.868,-77.129 186.207,-77.129 70.34,0 136.469,27.391 186.207,77.129 49.737,49.738 77.129,115.867 77.129,186.207 0,70.339 -27.392,136.468 -77.129,186.206 C 136.469,-27.392 70.34,0 0,0 Z m 0,-534.671 c -72.477,0 -140.615,28.223 -191.863,79.472 -51.249,51.248 -79.473,119.387 -79.473,191.864 0,72.476 28.224,140.614 79.473,191.862 C -140.615,-20.224 -72.477,8 0,8 c 72.477,0 140.615,-28.224 191.863,-79.473 51.249,-51.248 79.473,-119.386 79.473,-191.862 0,-72.477 -28.224,-140.616 -79.473,-191.864 C 140.615,-506.448 72.477,-534.671 0,-534.671"
         style="fill:#ed1c24;fill-opacity:1;fill-rule:nonzero;stroke:none"
         transform="matrix(1.3333333,0,0,-1.3333333,361.78133,10.666667)"
         clip-path="url(#clipPath3)" />
      <path
         id="path4"
         d="m 0,0 16.387,-6.137 c 1.515,1.73 2.529,3.279 3.042,4.647 0.995,2.659 0.972,5.092 -0.07,7.3 -1.043,2.206 -2.87,3.8 -5.485,4.779 -2.907,1.088 -5.56,1.028 -7.959,-0.18 C 3.516,9.2 1.829,7.296 0.856,4.696 0.336,3.308 0.051,1.742 0,0 Z m 18.407,-6.892 11.706,-4.384 c 2.322,-0.869 3.879,-1.314 4.673,-1.332 0.793,-0.02 1.574,0.328 2.342,1.041 0.768,0.714 1.498,1.997 2.193,3.85 l 1.083,-0.405 -6.927,-18.496 -1.082,0.406 c 0.623,1.724 0.872,3.099 0.744,4.126 -0.127,1.027 -0.493,1.786 -1.098,2.28 -0.605,0.494 -2.059,1.171 -4.361,2.034 L 2.482,-8.337 c -2.36,0.884 -3.936,1.324 -4.728,1.32 -0.791,-0.004 -1.542,-0.346 -2.252,-1.026 -0.711,-0.679 -1.407,-1.87 -2.089,-3.572 l -1.082,0.405 6.564,17.531 c 1.979,5.287 4.633,8.853 7.961,10.7 3.327,1.845 6.533,2.192 9.615,1.038 3.005,-1.125 5.171,-3.333 6.497,-6.621 1.327,-3.289 1.245,-6.923 -0.245,-10.904 -0.892,-2.379 -2.33,-4.855 -4.316,-7.426"
         style="fill:#ed1c24;fill-opacity:1;fill-rule:nonzero;stroke:none"
         transform="matrix(1.3333333,0,0,-1.3333333,61.730667,255.984)" />
      <path
         id="path5"
         d="m 0,0 c -4.95,3.39 -9.719,5.147 -14.306,5.271 -4.586,0.124 -8.204,-1.747 -10.853,-5.615 -2.625,-3.833 -3.07,-7.827 -1.333,-11.984 1.736,-4.157 5.071,-7.923 10.004,-11.302 5.208,-3.568 10.093,-5.303 14.653,-5.207 4.561,0.096 8.065,1.931 10.514,5.507 2.413,3.523 2.859,7.41 1.338,11.659 C 8.495,-7.422 5.157,-3.532 0,0 Z m 4.287,6.646 c 2.905,-1.989 5.359,-4.655 7.363,-7.997 2.004,-3.342 2.961,-7.18 2.872,-11.513 -0.089,-4.332 -1.34,-8.26 -3.753,-11.784 -3.379,-4.933 -8.161,-8.008 -14.349,-9.224 -6.186,-1.218 -11.952,0.004 -17.298,3.666 -5.157,3.532 -8.373,8.367 -9.648,14.505 -1.275,6.138 -0.171,11.751 3.314,16.839 3.461,5.053 8.266,8.132 14.414,9.238 6.148,1.103 11.843,-0.139 17.085,-3.73"
         style="fill:#ed1c24;fill-opacity:1;fill-rule:nonzero;stroke:none"
         transform="matrix(1.3333333,0,0,-1.3333333,130.81467,180.61867)" />
      <path
         id="path6"
         d="m 0,0 10.503,-10.583 -0.781,-0.675 c -3.427,2.726 -6.937,3.889 -10.529,3.49 -3.593,-0.397 -6.69,-1.719 -9.291,-3.966 -3.611,-3.119 -5.443,-7.013 -5.497,-11.685 -0.054,-4.671 2.296,-9.758 7.048,-15.26 4.181,-4.841 8.628,-7.393 13.343,-7.657 4.714,-0.264 8.893,1.178 12.535,4.323 2.68,2.315 4.46,5.035 5.339,8.161 0.878,3.126 1.091,5.94 0.639,8.44 l 1.142,0.16 c 1.479,-8.247 -0.872,-15.04 -7.052,-20.378 -4.904,-4.234 -10.479,-6.187 -16.724,-5.855 -6.247,0.332 -11.405,2.855 -15.476,7.569 -4.29,4.967 -6.175,10.695 -5.656,17.186 0.519,6.491 3.318,11.928 8.395,16.313 2.759,2.383 5.949,4.092 9.57,5.127 0.785,0.238 1.343,0.5 1.674,0.786 0.789,0.681 0.77,1.93 -0.057,3.749 L 0,0"
         style="fill:#ed1c24;fill-opacity:1;fill-rule:nonzero;stroke:none"
         transform="matrix(1.3333333,0,0,-1.3333333,169.95733,99.742667)" />
      <path
         id="path7"
         d="m 0,0 7.545,-12.86 -0.923,-0.459 c -2.643,3.49 -5.754,5.489 -9.333,5.995 -3.579,0.507 -6.907,-0.005 -9.985,-1.535 -4.272,-2.124 -7.014,-5.442 -8.226,-9.953 -1.212,-4.512 -0.2,-10.023 3.037,-16.534 2.848,-5.726 6.522,-9.303 11.023,-10.729 4.502,-1.427 8.907,-1.069 13.217,1.074 3.171,1.576 5.571,3.769 7.198,6.58 1.627,2.81 2.532,5.481 2.715,8.016 l 1.146,-0.128 c -0.615,-8.357 -4.579,-14.353 -11.892,-17.988 -5.802,-2.885 -11.686,-3.391 -17.654,-1.519 -5.968,1.872 -10.338,5.598 -13.112,11.176 -2.922,5.876 -3.325,11.892 -1.21,18.052 2.115,6.158 6.176,10.73 12.183,13.717 3.264,1.622 6.779,2.486 10.543,2.589 0.82,0.035 1.426,0.151 1.818,0.346 0.932,0.464 1.224,1.678 0.874,3.645 L 0,0"
         style="fill:#ed1c24;fill-opacity:1;fill-rule:nonzero;stroke:none"
         transform="matrix(1.3333333,0,0,-1.3333333,241.09333,60.226667)" />
      <path
         id="path8"
         d="M 0,0 19.233,3.744 19.454,2.608 C 17.204,2.171 15.678,1.48 14.874,0.539 14.07,-0.402 13.85,-1.804 14.212,-3.665 l 5.857,-30.091 c 0.275,-1.411 0.609,-2.444 1.002,-3.1 0.392,-0.656 1.025,-1.154 1.898,-1.494 0.873,-0.339 2.025,-0.369 3.456,-0.09 l 0.982,0.191 0.221,-1.136 -19.233,-3.743 -0.221,1.135 1.166,0.226 c 1.124,0.219 2.045,0.617 2.761,1.191 0.716,0.574 1.162,1.25 1.34,2.028 0.178,0.776 0.117,1.933 -0.181,3.466 L 8.196,-9.069 -7.998,-39.545 c 0.286,-1.471 0.629,-2.495 1.028,-3.075 0.4,-0.579 1.03,-1.008 1.891,-1.285 0.86,-0.279 1.904,-0.297 3.131,-0.059 l 1.196,0.233 0.221,-1.134 -19.202,-3.739 -0.221,1.135 1.073,0.209 c 1.8,0.351 3.018,1.044 3.655,2.081 0.636,1.036 0.755,2.577 0.357,4.622 l -5.857,30.091 c -0.35,1.8 -0.996,3.017 -1.936,3.652 -0.941,0.632 -2.423,0.753 -4.448,0.359 l -0.797,-0.155 -0.221,1.134 19.202,3.739 0.221,-1.135 -1.196,-0.234 c -3.334,-0.648 -4.672,-2.66 -4.015,-6.034 L -8.751,-35.673 7.433,-5.148 C 7.049,-3.175 6.364,-1.894 5.38,-1.304 4.394,-0.714 2.992,-0.596 1.172,-0.95 L 0.221,-1.135 0,0"
         style="fill:#ed1c24;fill-opacity:1;fill-rule:nonzero;stroke:none"
         transform="matrix(1.3333333,0,0,-1.3333333,305.82667,44.212)" />
      <path
         id="path9"
         d="m 0,0 c 0.625,-0.056 1.149,-0.374 1.571,-0.956 0.419,-0.581 0.597,-1.245 0.531,-1.992 -0.166,-1.848 -1.263,-3.35 -3.29,-4.507 -2.029,-1.157 -5.116,-1.55 -9.267,-1.179 -4.026,0.36 -6.966,1.282 -8.82,2.765 -1.856,1.483 -2.697,3.17 -2.528,5.058 0.065,0.726 0.35,1.343 0.859,1.853 0.508,0.508 1.105,0.733 1.794,0.671 0.687,-0.062 1.26,-0.375 1.714,-0.938 0.454,-0.564 1.038,-1.787 1.753,-3.671 1.007,-2.684 2.791,-4.14 5.35,-4.369 2.56,-0.228 4.573,0.888 6.041,3.351 1.06,1.745 1.848,2.852 2.363,3.318 C -1.416,-0.13 -0.771,0.069 0,0 Z m -6.673,-12.298 19.517,-1.745 -0.104,-1.151 c -2.283,0.204 -3.941,-0.035 -4.974,-0.717 -1.033,-0.682 -1.635,-1.966 -1.803,-3.855 L 3.233,-50.3 c -0.128,-1.431 -0.095,-2.517 0.101,-3.256 0.195,-0.739 0.664,-1.393 1.408,-1.961 0.745,-0.569 1.842,-0.918 3.295,-1.048 l 0.996,-0.089 -0.103,-1.152 -19.516,1.746 0.104,1.151 1.182,-0.106 c 1.141,-0.102 2.136,0.023 2.984,0.376 0.847,0.353 1.463,0.878 1.849,1.577 0.387,0.697 0.651,1.824 0.79,3.38 l 2.359,26.395 -24.02,-24.779 c -0.134,-1.492 -0.089,-2.572 0.133,-3.24 0.223,-0.667 0.709,-1.254 1.459,-1.759 0.75,-0.506 1.746,-0.815 2.992,-0.926 l 1.213,-0.109 -0.101,-1.151 -19.486,1.742 0.103,1.152 1.09,-0.098 c 1.825,-0.163 3.188,0.165 4.088,0.984 0.899,0.819 1.441,2.266 1.627,4.341 l 2.73,30.534 c 0.164,1.827 -0.119,3.174 -0.846,4.045 -0.728,0.87 -2.118,1.398 -4.173,1.581 l -0.809,0.073 0.103,1.151 19.485,-1.742 -0.104,-1.152 -1.213,0.109 c -3.382,0.303 -5.226,-1.259 -5.533,-4.683 l -2.407,-26.924 24.025,24.83 c 0.179,2.002 -0.123,3.424 -0.905,4.264 -0.783,0.84 -2.098,1.343 -3.943,1.508 l -0.965,0.087 0.102,1.151"
         style="fill:#ed1c24;fill-opacity:1;fill-rule:nonzero;stroke:none"
         transform="matrix(1.3333333,0,0,-1.3333333,405.708,24.852)" />
      <path
         id="path10"
         d="m 0,0 -4.242,-14.295 -0.966,0.361 c 0.745,4.315 0.081,7.952 -1.993,10.913 -2.074,2.96 -4.721,5.042 -7.941,6.246 -4.469,1.67 -8.764,1.408 -12.888,-0.787 -4.123,-2.196 -7.458,-6.699 -10.003,-13.509 -2.24,-5.991 -2.344,-11.117 -0.313,-15.38 2.033,-4.263 5.303,-7.236 9.811,-8.922 3.316,-1.24 6.557,-1.495 9.722,-0.765 3.165,0.73 5.734,1.893 7.709,3.49 l 0.69,-0.924 c -6.525,-5.257 -13.611,-6.455 -21.262,-3.596 -6.068,2.269 -10.457,6.222 -13.164,11.86 -2.709,5.638 -2.971,11.374 -0.79,17.209 2.298,6.148 6.417,10.551 12.361,13.212 5.943,2.66 12.056,2.816 18.341,0.467 3.414,-1.276 6.445,-3.255 9.091,-5.933 0.586,-0.576 1.083,-0.94 1.493,-1.093 0.977,-0.365 2.063,0.252 3.261,1.85 L 0,0"
         style="fill:#ed1c24;fill-opacity:1;fill-rule:nonzero;stroke:none"
         transform="matrix(1.3333333,0,0,-1.3333333,499.44533,67.593333)" />
      <path
         id="path11"
         d="m 0,0 1.25,-0.882 c 2.125,-1.5 4.379,-2.141 6.76,-1.926 2.382,0.217 5.347,1.542 8.899,3.976 2.698,1.839 4.646,2.958 5.847,3.359 1.199,0.402 2.517,0.528 3.954,0.379 1.437,-0.147 3.064,-0.863 4.884,-2.146 3.179,-2.244 4.079,-4.345 2.698,-6.302 -0.553,-0.783 -1.31,-1.243 -2.272,-1.38 -0.963,-0.137 -1.819,0.059 -2.567,0.586 -0.765,0.54 -1.517,1.657 -2.257,3.353 -0.419,0.958 -0.85,1.593 -1.292,1.905 C 25.02,1.546 24.162,1.756 23.332,1.554 22.488,1.333 20.903,0.44 18.576,-1.126 13.435,-4.551 9.387,-5.973 6.435,-5.393 c 1.782,-2.346 2.612,-6.154 2.487,-11.42 0.006,-0.208 0.009,-0.44 0.008,-0.694 L 8.9,-22.151 c -0.023,-5.16 0.196,-8.604 0.659,-10.332 0.462,-1.728 1.416,-3.102 2.861,-4.121 l 0.535,-0.379 -0.666,-0.945 -9.351,6.598 -0.229,18.708 c -0.029,2.417 -0.224,4.39 -0.583,5.919 -0.36,1.529 -1.271,2.809 -2.732,3.841 l -0.944,0.666 -8.827,-12.512 c -1.826,-2.588 -1.309,-4.891 1.551,-6.908 l 0.971,-0.685 -0.666,-0.944 -16.19,11.421 0.666,0.945 0.741,-0.522 c 3.013,-2.126 5.565,-1.708 7.655,1.253 l 17.835,25.28 c 1.14,1.617 1.508,3.034 1.104,4.25 -0.404,1.216 -1.517,2.466 -3.339,3.751 l 0.667,0.945 16.189,-11.422 -0.666,-0.944 -0.817,0.576 c -1.67,1.177 -3.076,1.641 -4.219,1.392 C 9.959,13.431 8.836,12.524 7.733,10.962 L 0,0"
         style="fill:#ed1c24;fill-opacity:1;fill-rule:nonzero;stroke:none"
         transform="matrix(1.3333333,0,0,-1.3333333,522.888,113.58933)" />
      <path
         id="path12"
         d="m 0,0 12.406,-15.165 -0.894,-0.733 c -1.451,1.775 -2.781,2.791 -3.991,3.054 -1.21,0.262 -2.55,-0.208 -4.017,-1.408 l -23.728,-19.411 c -1.112,-0.911 -1.864,-1.694 -2.255,-2.351 -0.392,-0.656 -0.531,-1.449 -0.415,-2.379 0.113,-0.93 0.632,-1.958 1.556,-3.087 l 0.633,-0.774 -0.895,-0.733 -12.407,15.166 0.895,0.732 0.752,-0.919 c 0.725,-0.887 1.511,-1.51 2.356,-1.868 0.844,-0.359 1.651,-0.432 2.42,-0.22 0.77,0.212 1.758,0.813 2.968,1.802 l 20.511,16.779 -34.51,-0.171 c -1.16,-0.949 -1.901,-1.736 -2.222,-2.362 -0.321,-0.626 -0.4,-1.384 -0.237,-2.274 0.163,-0.889 0.641,-1.818 1.432,-2.785 l 0.772,-0.943 -0.896,-0.733 -12.386,15.142 0.895,0.732 0.693,-0.846 c 1.16,-1.419 2.347,-2.164 3.562,-2.234 1.215,-0.07 2.628,0.555 4.24,1.874 l 23.729,19.412 c 1.418,1.161 2.184,2.305 2.298,3.434 0.112,1.129 -0.484,2.491 -1.79,4.088 l -0.514,0.629 0.895,0.731 L -5.758,7.039 -6.652,6.306 -7.424,7.25 c -2.15,2.629 -4.556,2.854 -7.217,0.677 l -20.921,-17.116 34.548,0.204 c 1.557,1.274 2.362,2.484 2.415,3.63 0.052,1.147 -0.508,2.438 -1.682,3.873 L -0.894,-0.732 0,0"
         style="fill:#ed1c24;fill-opacity:1;fill-rule:nonzero;stroke:none"
         transform="matrix(1.3333333,0,0,-1.3333333,615.216,162.456)" />
      <path
         id="path13"
         d="m 0,0 c 0.246,-0.579 0.212,-1.19 -0.102,-1.835 -0.314,-0.646 -0.816,-1.116 -1.507,-1.41 -1.706,-0.725 -3.547,-0.466 -5.524,0.776 -1.978,1.242 -3.781,3.78 -5.412,7.614 -1.582,3.72 -2.156,6.747 -1.723,9.082 0.434,2.335 1.523,3.873 3.268,4.615 0.671,0.285 1.349,0.325 2.039,0.117 0.687,-0.208 1.168,-0.63 1.437,-1.267 0.271,-0.635 0.264,-1.286 -0.017,-1.952 -0.283,-0.667 -1.086,-1.759 -2.41,-3.278 -1.891,-2.155 -2.334,-4.415 -1.328,-6.779 C -10.274,3.319 -8.34,2.07 -5.476,1.937 -3.437,1.826 -2.09,1.653 -1.436,1.419 -0.781,1.186 -0.303,0.712 0,0 Z m -13.991,0.082 7.667,-18.032 -1.064,-0.452 c -0.897,2.11 -1.89,3.458 -2.977,4.048 -1.089,0.59 -2.506,0.514 -4.25,-0.228 l -28.211,-11.997 c -1.324,-0.562 -2.265,-1.103 -2.825,-1.625 -0.559,-0.52 -0.914,-1.243 -1.064,-2.168 -0.15,-0.923 0.06,-2.056 0.631,-3.399 l 0.39,-0.92 -1.064,-0.452 -7.667,18.031 1.064,0.452 0.464,-1.092 c 0.45,-1.054 1.029,-1.872 1.74,-2.453 0.711,-0.581 1.464,-0.877 2.262,-0.888 0.797,-0.012 1.915,0.288 3.354,0.899 l 24.387,10.37 -33.18,9.492 c -1.379,-0.586 -2.311,-1.135 -2.794,-1.647 -0.483,-0.511 -0.772,-1.216 -0.864,-2.116 -0.092,-0.899 0.107,-1.924 0.595,-3.074 l 0.477,-1.121 -1.064,-0.454 -7.655,18.003 1.065,0.452 0.427,-1.006 c 0.717,-1.687 1.649,-2.734 2.796,-3.141 1.146,-0.406 2.678,-0.202 4.595,0.613 l 28.212,11.996 c 1.686,0.718 2.743,1.603 3.167,2.655 0.424,1.051 0.232,2.526 -0.574,4.424 l -0.319,0.749 1.065,0.452 7.655,-18.003 -1.063,-0.452 -0.478,1.122 c -1.329,3.125 -3.575,4.014 -6.738,2.67 L -50.705,1.211 -17.479,-8.261 c 1.851,0.787 2.961,1.723 3.333,2.809 0.372,1.087 0.195,2.484 -0.53,4.19 l -0.379,0.891 1.064,0.453"
         style="fill:#ed1c24;fill-opacity:1;fill-rule:nonzero;stroke:none"
         transform="matrix(1.3333333,0,0,-1.3333333,679.56533,241.39067)" />
      <path
         id="path14"
         d="m 0,0 0.192,-1.518 c 0.326,-2.581 1.371,-4.677 3.137,-6.29 1.766,-1.613 4.744,-2.91 8.937,-3.89 3.176,-0.752 5.317,-1.437 6.423,-2.052 1.105,-0.615 2.087,-1.504 2.946,-2.665 0.86,-1.16 1.429,-2.845 1.708,-5.054 0.488,-3.86 -0.457,-5.941 -2.834,-6.241 -0.95,-0.121 -1.801,0.129 -2.551,0.747 -0.75,0.618 -1.182,1.382 -1.297,2.29 -0.117,0.93 0.2,2.238 0.953,3.928 0.425,0.955 0.604,1.702 0.536,2.238 -0.136,1.074 -0.559,1.85 -1.269,2.326 -0.731,0.474 -2.459,1.041 -5.185,1.704 -5.996,1.488 -9.776,3.517 -11.338,6.089 -0.531,-2.898 -2.783,-6.079 -6.756,-9.539 -0.149,-0.144 -0.319,-0.303 -0.507,-0.473 l -3.449,-3.11 c -3.827,-3.462 -6.222,-5.946 -7.186,-7.453 -0.965,-1.507 -1.336,-3.137 -1.114,-4.892 l 0.082,-0.65 -1.147,-0.146 -1.434,11.355 13.66,12.784 c 1.765,1.651 3.091,3.125 3.977,4.422 0.887,1.297 1.219,2.833 0.995,4.607 l -0.145,1.146 -15.192,-1.918 C -21,-2.653 -22.351,-4.587 -21.913,-8.06 l 0.149,-1.177 -1.147,-0.145 -2.483,19.656 1.147,0.145 0.114,-0.9 c 0.462,-3.658 2.491,-5.26 6.088,-4.805 l 30.693,3.877 c 1.964,0.248 3.258,0.93 3.883,2.048 0.625,1.12 0.799,2.785 0.519,4.997 l 1.147,0.144 2.483,-19.656 -1.147,-0.145 -0.125,0.992 C 19.152,-1.003 18.546,0.348 17.59,1.025 16.635,1.702 15.208,1.921 13.31,1.68 L 0,0"
         style="fill:#ed1c24;fill-opacity:1;fill-rule:nonzero;stroke:none"
         transform="matrix(1.3333333,0,0,-1.3333333,72.110667,387.40667)" />
      <path
         id="path15"
         d="m 0,0 -16.357,-6.215 c 0.004,-2.299 0.265,-4.132 0.785,-5.497 1.008,-2.654 2.633,-4.467 4.873,-5.435 2.24,-0.969 4.664,-0.957 7.275,0.034 2.901,1.102 4.853,2.899 5.857,5.391 1.003,2.493 1.012,5.036 0.025,7.631 C 1.932,-2.704 1.113,-1.341 0,0 Z m -18.373,-6.981 -11.685,-4.44 c -2.318,-0.881 -3.781,-1.575 -4.389,-2.086 -0.609,-0.509 -0.966,-1.285 -1.071,-2.328 -0.105,-1.043 0.194,-2.489 0.897,-4.34 l -1.081,-0.41 -7.015,18.462 1.081,0.411 c 0.67,-1.707 1.392,-2.903 2.166,-3.59 0.773,-0.687 1.55,-1.015 2.33,-0.986 0.781,0.028 2.32,0.48 4.618,1.353 L -7.37,4.621 c 2.356,0.896 3.83,1.607 4.422,2.132 0.591,0.525 0.929,1.277 1.014,2.258 0.084,0.978 -0.179,2.333 -0.791,4.061 l 1.08,0.412 6.649,-17.499 c 2.005,-5.278 2.369,-9.708 1.089,-13.292 -1.279,-3.584 -3.457,-5.961 -6.534,-7.13 -2.999,-1.14 -6.083,-0.913 -9.251,0.68 -3.169,1.594 -5.507,4.376 -7.017,8.349 -0.903,2.376 -1.458,5.185 -1.664,8.427"
         style="fill:#ed1c24;fill-opacity:1;fill-rule:nonzero;stroke:none"
         transform="matrix(1.3333333,0,0,-1.3333333,108.82,451.31333)" />
      <path
         id="path16"
         d="m 0,0 -19.266,-3.336 8.651,-13.069 z m 10.603,3.57 -23.787,-36.643 c -1.069,-1.63 -1.672,-2.947 -1.808,-3.949 -0.137,-1.003 0.295,-2.259 1.296,-3.769 l -0.965,-0.639 -9.953,15.035 0.964,0.639 c 1.702,-2.571 3.413,-3.287 5.133,-2.149 0.538,0.356 1.203,1.146 1.993,2.368 l 4.501,6.957 -9.798,14.8 -9.65,-1.67 c -0.596,-0.119 -1.145,-0.345 -1.649,-0.679 -1.633,-1.081 -1.581,-2.934 0.155,-5.557 l -0.964,-0.638 -7.003,10.58 0.964,0.638 c 0.812,-0.964 1.772,-1.574 2.878,-1.83 1.106,-0.257 2.968,-0.156 5.587,0.301 L 9.977,4.516 10.603,3.57"
         style="fill:#ed1c24;fill-opacity:1;fill-rule:nonzero;stroke:none"
         transform="matrix(1.3333333,0,0,-1.3333333,129.76933,510.73067)" />
      <path
         id="path17"
         d="m 0,0 -9.324,-11.636 -0.758,0.699 c 2.319,3.714 3.076,7.332 2.273,10.858 -0.803,3.523 -2.468,6.451 -4.995,8.781 -3.508,3.233 -7.585,4.611 -12.232,4.136 -4.647,-0.477 -9.435,-3.388 -14.363,-8.734 -4.335,-4.702 -6.366,-9.41 -6.094,-14.125 0.273,-4.714 2.178,-8.702 5.716,-11.964 2.604,-2.401 5.509,-3.86 8.715,-4.379 3.205,-0.518 6.025,-0.411 8.457,0.322 l 0.289,-1.116 c -8.026,-2.405 -15.042,-0.839 -21.046,4.696 -4.764,4.392 -7.335,9.709 -7.714,15.952 -0.379,6.243 1.543,11.655 5.765,16.235 4.448,4.824 9.926,7.348 16.434,7.568 6.507,0.219 12.227,-1.944 17.16,-6.491 2.68,-2.471 4.739,-5.446 6.179,-8.926 0.325,-0.754 0.649,-1.28 0.97,-1.576 0.766,-0.706 2.005,-0.545 3.718,0.484 L 0,0"
         style="fill:#ed1c24;fill-opacity:1;fill-rule:nonzero;stroke:none"
         transform="matrix(1.3333333,0,0,-1.3333333,202.984,572.45333)" />
      <path
         id="path18"
         d="m 0,0 -5.794,-11.287 c -1.123,-2.187 -1.742,-3.666 -1.857,-4.438 -0.116,-0.773 0.131,-1.591 0.742,-2.455 0.611,-0.863 1.778,-1.737 3.501,-2.622 l -0.528,-1.028 -17.542,9.006 0.528,1.028 c 1.668,-0.857 3.029,-1.275 4.082,-1.253 1.052,0.021 1.855,0.307 2.406,0.855 0.55,0.549 1.383,1.907 2.496,4.076 L 0.323,15.818 c 1.151,2.242 1.771,3.756 1.858,4.543 0.087,0.786 -0.17,1.574 -0.771,2.363 -0.602,0.789 -1.719,1.625 -3.349,2.51 l 0.528,1.028 17.542,-9.006 -0.528,-1.028 c -1.706,0.828 -3.061,1.267 -4.067,1.315 C 10.53,17.591 9.726,17.347 9.124,16.814 8.522,16.28 7.646,14.891 6.495,12.649 L 1.228,2.39 20.466,-7.487 25.732,2.772 c 1.152,2.243 1.771,3.757 1.859,4.544 0.087,0.785 -0.177,1.584 -0.792,2.391 -0.616,0.808 -1.8,1.674 -3.551,2.596 L 23.776,13.332 41.457,4.254 40.929,3.225 C 39.26,4.035 37.931,4.467 36.939,4.519 35.947,4.571 35.148,4.326 34.541,3.783 33.934,3.239 33.055,1.845 31.904,-0.397 L 19.615,-24.332 c -1.113,-2.168 -1.727,-3.639 -1.843,-4.41 -0.115,-0.774 0.125,-1.593 0.722,-2.461 0.596,-0.869 1.737,-1.736 3.424,-2.602 l -0.528,-1.028 -17.681,9.077 0.528,1.029 c 1.751,-0.877 3.147,-1.33 4.185,-1.359 1.039,-0.029 1.852,0.232 2.441,0.785 0.588,0.553 1.448,1.932 2.581,4.137 L 19.238,-9.877 0,0"
         style="fill:#ed1c24;fill-opacity:1;fill-rule:nonzero;stroke:none"
         transform="matrix(1.3333333,0,0,-1.3333333,214.756,617.01467)" />
      <path
         id="path19"
         d="m 0,0 0.174,1.142 20.018,-3.058 -0.175,-1.143 c -1.96,0.278 -3.429,0.281 -4.408,0.01 -0.98,-0.272 -1.676,-0.761 -2.09,-1.467 -0.413,-0.707 -0.81,-2.306 -1.191,-4.797 L 8.264,-35.911 c -0.375,-2.451 -0.484,-4.067 -0.33,-4.849 0.154,-0.782 0.66,-1.477 1.516,-2.081 0.855,-0.605 2.282,-1.06 4.28,-1.366 l -0.175,-1.143 -20.017,3.059 0.175,1.143 c 1.938,-0.275 3.408,-0.273 4.41,0.006 1.002,0.278 1.704,0.772 2.107,1.479 0.404,0.708 0.796,2.308 1.176,4.8 l 4.065,26.598 c 0.383,2.513 0.483,4.167 0.299,4.964 -0.183,0.798 -0.703,1.467 -1.558,2.01 C 3.357,-0.75 1.953,-0.321 0,0 Z m -27.771,-17.064 -2.846,-18.628 c 1.346,-0.564 2.864,-0.974 4.553,-1.232 2.945,-0.451 5.58,0.037 7.906,1.463 2.324,1.425 3.736,3.764 4.233,7.019 0.498,3.254 -0.295,5.793 -2.376,7.617 -2.082,1.826 -4.75,2.987 -8.003,3.485 -1.092,0.166 -2.248,0.258 -3.467,0.276 z m -9.824,22.808 0.174,1.142 19.277,-2.945 -0.175,-1.143 -0.927,0.142 c -3.563,0.544 -5.572,-0.677 -6.029,-3.663 l -2.105,-13.777 3.707,-0.567 c 6.776,-1.035 11.521,-2.908 14.237,-5.621 2.715,-2.712 3.797,-5.87 3.246,-9.474 -0.443,-2.903 -2.079,-5.424 -4.905,-7.564 -2.826,-2.14 -7.022,-2.784 -12.587,-1.934 l -20.375,3.114 0.174,1.142 0.927,-0.141 c 1.854,-0.284 3.252,-0.06 4.197,0.671 0.943,0.729 1.571,2.115 1.883,4.153 l 4.593,30.058 c 0.229,1.502 0.138,2.698 -0.275,3.582 -0.413,0.885 -0.93,1.497 -1.553,1.834 -0.624,0.337 -1.785,0.668 -3.484,0.991"
         style="fill:#ed1c24;fill-opacity:1;fill-rule:nonzero;stroke:none"
         transform="matrix(1.3333333,0,0,-1.3333333,333.28933,625.94667)" />
      <path
         id="path20"
         d="m 0,0 c 0.62,0.104 1.206,-0.072 1.76,-0.529 0.555,-0.457 0.894,-1.055 1.018,-1.793 0.306,-1.83 -0.375,-3.56 -2.045,-5.191 -1.67,-1.633 -4.56,-2.792 -8.669,-3.481 -3.986,-0.668 -7.064,-0.519 -9.233,0.449 -2.169,0.967 -3.41,2.385 -3.723,4.254 -0.12,0.72 0,1.39 0.363,2.01 0.363,0.621 0.886,0.989 1.567,1.104 0.681,0.113 1.313,-0.045 1.895,-0.475 0.582,-0.432 1.456,-1.468 2.623,-3.109 1.653,-2.343 3.747,-3.302 6.28,-2.877 2.534,0.425 4.201,2.013 5,4.767 0.585,1.956 1.068,3.225 1.448,3.807 C -1.337,-0.482 -0.764,-0.128 0,0 Z m -3.351,-13.584 19.324,3.239 0.191,-1.141 c -2.26,-0.379 -3.804,-1.029 -4.632,-1.949 -0.828,-0.92 -1.085,-2.315 -0.772,-4.185 l 5.069,-30.234 c 0.236,-1.418 0.542,-2.46 0.919,-3.126 0.375,-0.666 0.995,-1.18 1.858,-1.541 0.863,-0.363 2.014,-0.424 3.453,-0.182 l 0.986,0.164 0.192,-1.139 -19.325,-3.239 -0.191,1.14 1.171,0.196 c 1.13,0.19 2.061,0.562 2.792,1.118 0.73,0.555 1.194,1.219 1.393,1.992 0.197,0.772 0.168,1.929 -0.091,3.47 l -4.38,26.135 -16.987,-30.04 c 0.247,-1.478 0.563,-2.511 0.948,-3.101 0.383,-0.59 1.002,-1.035 1.855,-1.334 0.852,-0.301 1.896,-0.348 3.128,-0.141 l 1.202,0.201 0.192,-1.139 -19.293,-3.234 -0.192,1.14 1.078,0.18 c 1.809,0.303 3.044,0.965 3.708,1.985 0.664,1.019 0.824,2.557 0.478,4.611 l -5.066,30.235 c -0.304,1.807 -0.918,3.041 -1.841,3.699 -0.923,0.658 -2.403,0.818 -4.437,0.476 l -0.8,-0.134 -0.192,1.14 19.293,3.235 0.191,-1.141 -1.202,-0.201 c -3.348,-0.562 -4.739,-2.537 -4.171,-5.928 l 4.469,-26.659 16.978,30.091 c -0.333,1.982 -0.984,3.281 -1.952,3.897 -0.97,0.615 -2.37,0.771 -4.198,0.464 l -0.955,-0.16 -0.191,1.14"
         style="fill:#ed1c24;fill-opacity:1;fill-rule:nonzero;stroke:none"
         transform="matrix(1.3333333,0,0,-1.3333333,416.14533,602.888)" />
      <path
         id="path21"
         d="m 0,0 1.327,0.762 c 2.257,1.295 3.789,3.067 4.597,5.318 0.809,2.251 0.859,5.499 0.151,9.745 -0.53,3.222 -0.723,5.461 -0.58,6.718 0.142,1.256 0.584,2.505 1.324,3.746 0.74,1.239 2.076,2.414 4.008,3.522 3.375,1.936 5.659,1.865 6.851,-0.213 0.477,-0.83 0.574,-1.712 0.292,-2.642 -0.282,-0.93 -0.819,-1.624 -1.614,-2.079 C 15.543,24.411 14.213,24.2 12.365,24.245 11.319,24.268 10.561,24.147 10.092,23.877 9.153,23.338 8.6,22.649 8.434,21.811 8.278,20.954 8.419,19.139 8.858,16.37 9.793,10.262 9.375,5.993 7.604,3.561 10.484,4.187 14.286,3.332 19.008,0.998 19.2,0.916 19.411,0.821 19.64,0.713 l 4.199,-1.986 c 4.668,-2.198 7.883,-3.452 9.645,-3.762 1.762,-0.31 3.409,-0.025 4.944,0.856 l 0.569,0.326 0.576,-1.004 -9.928,-5.695 -17.058,7.685 C 10.383,-1.875 8.512,-1.218 6.975,-0.898 5.436,-0.58 3.891,-0.865 2.339,-1.755 L 1.338,-2.33 8.958,-15.612 c 1.577,-2.747 3.882,-3.249 6.917,-1.507 l 1.031,0.59 0.575,-1.002 -17.185,-9.86 -0.575,1.003 0.786,0.451 c 3.199,1.835 3.896,4.324 2.091,7.469 L -12.797,8.366 c -0.986,1.716 -2.115,2.648 -3.388,2.795 -1.272,0.146 -2.875,-0.335 -4.809,-1.445 l -0.576,1.003 17.186,9.86 0.575,-1.002 -0.868,-0.498 c -1.771,-1.016 -2.784,-2.096 -3.041,-3.239 -0.258,-1.142 0.09,-2.544 1.043,-4.203 L 0,0"
         style="fill:#ed1c24;fill-opacity:1;fill-rule:nonzero;stroke:none"
         transform="matrix(1.3333333,0,0,-1.3333333,496.47333,619.552)" />
      <path
         id="path22"
         d="m 0,0 12.002,-12.735 c 2.122,0.884 3.714,1.826 4.778,2.828 2.065,1.949 3.118,4.143 3.156,6.582 0.038,2.442 -0.899,4.677 -2.815,6.709 C 14.992,5.643 12.585,6.759 9.898,6.733 7.212,6.707 4.859,5.74 2.838,3.837 1.759,2.82 0.814,1.541 0,0 Z m 13.48,-14.304 8.573,-9.097 c 1.7,-1.804 2.903,-2.89 3.607,-3.257 0.703,-0.367 1.557,-0.399 2.561,-0.098 1.004,0.303 2.226,1.132 3.666,2.49 l 0.793,-0.842 -14.372,-13.546 -0.793,0.841 c 1.32,1.273 2.149,2.398 2.487,3.375 0.338,0.978 0.345,1.821 0.019,2.531 -0.324,0.709 -1.33,1.959 -3.016,3.748 L -1.45,-8.578 c -1.728,1.835 -2.949,2.924 -3.66,3.269 -0.713,0.346 -1.537,0.37 -2.474,0.074 -0.938,-0.297 -2.087,-1.058 -3.45,-2.285 L -11.827,-6.679 1.794,6.16 c 4.11,3.871 8.065,5.902 11.866,6.092 3.8,0.189 6.829,-0.913 9.086,-3.309 2.201,-2.334 3.172,-5.271 2.912,-8.807 -0.26,-3.537 -1.936,-6.763 -5.03,-9.677 -1.849,-1.744 -4.232,-3.331 -7.148,-4.763"
         style="fill:#ed1c24;fill-opacity:1;fill-rule:nonzero;stroke:none"
         transform="matrix(1.3333333,0,0,-1.3333333,541.248,561.176)" />
      <path
         id="path23"
         d="M 0,0 8.332,-4.973 7.699,-5.904 c -1.737,0.851 -3.311,1.24 -4.722,1.166 -1.411,-0.076 -2.506,-0.421 -3.29,-1.035 -0.781,-0.616 -1.652,-1.629 -2.611,-3.043 l -7.107,-10.473 14.041,-9.527 6.352,9.359 c 2.153,3.172 1.462,5.957 -2.072,8.356 l 0.649,0.957 12.8,-8.686 -0.649,-0.957 c -2.19,1.485 -3.918,2.055 -5.187,1.707 -1.268,-0.348 -2.469,-1.358 -3.604,-3.03 l -6.195,-9.128 13.163,-8.932 c 1.189,-0.806 2.102,-1.131 2.739,-0.971 0.637,0.159 1.348,0.816 2.131,1.971 l 5.106,7.526 c 1.673,2.464 2.466,4.689 2.378,6.675 -0.088,1.986 -0.996,4.598 -2.726,7.836 l 0.684,1.008 7.093,-9.08 -19.881,-29.298 -0.957,0.65 c 1.053,1.55 1.629,2.853 1.727,3.908 0.098,1.053 -0.091,1.887 -0.569,2.5 -0.477,0.613 -1.716,1.599 -3.716,2.956 l -22.264,15.108 c -2.085,1.415 -3.514,2.215 -4.283,2.397 -0.77,0.183 -1.584,0.023 -2.44,-0.479 -0.855,-0.501 -1.822,-1.508 -2.898,-3.017 l -0.956,0.648 L 0,0"
         style="fill:#ed1c24;fill-opacity:1;fill-rule:nonzero;stroke:none"
         transform="matrix(1.3333333,0,0,-1.3333333,592.112,492.31467)" />
      <path
         id="path24"
         d="M 0,0 14.312,-4.182 13.955,-5.149 C 9.637,-4.422 6.003,-5.102 3.051,-7.188 0.1,-9.276 -1.97,-11.93 -3.161,-15.156 c -1.651,-4.475 -1.371,-8.77 0.841,-12.884 2.213,-4.115 6.73,-7.43 13.551,-9.947 6.001,-2.215 11.128,-2.297 15.383,-0.246 4.253,2.049 7.213,5.332 8.879,9.848 1.226,3.322 1.467,6.563 0.724,9.724 -0.744,3.162 -1.918,5.727 -3.523,7.696 l 0.922,0.693 c 5.285,-6.503 6.513,-13.585 3.685,-21.246 -2.242,-6.079 -6.178,-10.484 -11.805,-13.215 -5.626,-2.732 -11.361,-3.019 -17.205,-0.863 -6.157,2.271 -10.578,6.373 -13.263,12.306 -2.686,5.931 -2.868,12.044 -0.545,18.338 1.261,3.42 3.226,6.459 5.894,9.117 0.574,0.588 0.936,1.087 1.086,1.497 0.362,0.978 -0.26,2.062 -1.863,3.254 L 0,0"
         style="fill:#ed1c24;fill-opacity:1;fill-rule:nonzero;stroke:none"
         transform="matrix(1.3333333,0,0,-1.3333333,617.148,428.28533)" />
      <path
         id="path25"
         d="M 0,0 4.243,38.391 14.189,37.92 14.051,36.678 C 11.132,36.624 9.123,35.895 8.025,34.489 6.925,33.084 6.222,30.986 5.914,28.196 L 5.267,22.338 37.694,18.754 c 2.423,-0.268 4.015,-0.324 4.776,-0.167 0.762,0.157 1.442,0.669 2.041,1.535 0.598,0.866 1.006,2.273 1.221,4.22 L 46.88,24.215 44.718,4.647 43.569,4.774 c 0.206,1.863 0.106,3.289 -0.298,4.277 -0.404,0.988 -0.961,1.637 -1.672,1.945 -0.709,0.309 -2.264,0.596 -4.668,0.862 L 4.504,15.442 3.879,9.789 C 3.623,7.47 3.593,5.776 3.789,4.705 3.986,3.636 4.63,2.596 5.724,1.584 6.818,0.572 8.226,-0.092 9.953,-0.408 L 9.826,-1.558 0,0"
         style="fill:#ed1c24;fill-opacity:1;fill-rule:nonzero;stroke:none"
         transform="matrix(1.3333333,0,0,-1.3333333,621.19067,416.812)" />
      <path
         id="path26"
         d="m 0,0 h -125.281 v 125.281 h -93.524 V 0 h -125.282 v -93.525 h 125.282 v -125.281 h 93.524 V -93.525 H 0 V 0"
         style="fill:#ec1e27;fill-opacity:1;fill-rule:nonzero;stroke:none"
         transform="matrix(1.3333333,0,0,-1.3333333,591.172,299.43067)" />
    </g>
  </g>
</svg>
