<?xml version="1.0" encoding="UTF-8" standalone="no"?>
<!-- Created with Inkscape (http://www.inkscape.org/) -->
<svg xmlns:dc="http://purl.org/dc/elements/1.1/" xmlns:cc="http://creativecommons.org/ns#" xmlns:rdf="http://www.w3.org/1999/02/22-rdf-syntax-ns#" xmlns:svg="http://www.w3.org/2000/svg" xmlns="http://www.w3.org/2000/svg" xmlns:sodipodi="http://sodipodi.sourceforge.net/DTD/sodipodi-0.dtd" xmlns:inkscape="http://www.inkscape.org/namespaces/inkscape" width="838.93188" height="387.77621" id="svg2" version="1.1" inkscape:version="0.48.4 r9939" sodipodi:docname="Logo_Magen_David_Adom.svg" inkscape:export-filename="C:\Users\גבירץ\Downloads\Logo_Magen_David_Adom.svg.2014_09_19_15_13_12.0.png" inkscape:export-xdpi="3525.3682" inkscape:export-ydpi="3525.3682">
  <defs id="defs4">
    <marker inkscape:stockid="Arrow1Mstart" orient="auto" refY="0" refX="0" id="Arrow1Mstart" style="overflow:visible">
      <path id="path4181" d="M 0,0 5,-5 -12.5,0 5,5 0,0 z" style="fill-rule:evenodd;stroke:#000000;stroke-width:1pt" transform="matrix(0.4,0,0,0.4,4,0)" inkscape:connector-curvature="0"/>
    </marker>
    <clipPath clipPathUnits="userSpaceOnUse" id="clipPath3094">
      <path d="m 0,566.929 850.394,0 L 850.394,0 0,0 0,566.929 z" id="path3096" inkscape:connector-curvature="0"/>
    </clipPath>
    <clipPath clipPathUnits="userSpaceOnUse" id="clipPath62">
      <path inkscape:connector-curvature="0" d="m 36,36 113.11,0 0,62.309 L 36,98.309 36,36 z" id="path64"/>
    </clipPath>
    <clipPath clipPathUnits="userSpaceOnUse" id="clipPath104">
      <path inkscape:connector-curvature="0" d="m 36,36 113.11,0 0,62.309 L 36,98.309 36,36 z" id="path106"/>
    </clipPath>
    <clipPath clipPathUnits="userSpaceOnUse" id="clipPath112">
      <path inkscape:connector-curvature="0" d="m 97.1099,62.5325 7.5211,0 0,-3.6115 -7.5211,0 0,3.6115 z" id="path114"/>
    </clipPath>
    <clipPath clipPathUnits="userSpaceOnUse" id="clipPath132">
      <path inkscape:connector-curvature="0" d="m 36,36 113.11,0 0,62.309 L 36,98.309 36,36 z" id="path134"/>
    </clipPath>
    <clipPath clipPathUnits="userSpaceOnUse" id="clipPath140">
      <path inkscape:connector-curvature="0" d="m 83.7531,85.4147 7.5207,0 0,-3.6115 -7.5207,0 0,3.6115 z" id="path142"/>
    </clipPath>
  </defs>
  <sodipodi:namedview id="base" pagecolor="#ffffff" bordercolor="#666666" borderopacity="1.0" inkscape:pageopacity="0.0" inkscape:pageshadow="2" inkscape:zoom="1.021818" inkscape:cx="643.25407" inkscape:cy="202.24878" inkscape:document-units="px" inkscape:current-layer="layer1" showgrid="false" fit-margin-top="0" fit-margin-left="0" fit-margin-right="0" fit-margin-bottom="0" inkscape:window-width="1920" inkscape:window-height="1018" inkscape:window-x="-8" inkscape:window-y="-8" inkscape:window-maximized="1" inkscape:snap-bbox="true" showguides="true" inkscape:guide-bbox="true" inkscape:snap-grids="true" inkscape:snap-to-guides="true"/>
  <metadata id="metadata7">
    <rdf:RDF>
      <cc:Work rdf:about="">
        <dc:format>image/svg+xml</dc:format>
        <dc:type rdf:resource="http://purl.org/dc/dcmitype/StillImage"/>
        <dc:title/>
      </cc:Work>
    </rdf:RDF>
  </metadata>
  <g inkscape:label="Layer 1" inkscape:groupmode="layer" id="layer1" transform="translate(161.1159,-857.35818)" style="display:inline">
    <text xml:space="preserve" style="font-size:575.32250977px;font-style:normal;font-variant:normal;font-weight:300;font-stretch:normal;line-height:125%;letter-spacing:0px;word-spacing:0px;fill:#000000;fill-opacity:1;stroke:none;font-family:BN Barak;-inkscape-font-specification:BN Barak Light" x="682.46375" y="1177.3876" id="text3975" sodipodi:linespacing="125%" transform="scale(1.6413187,0.6092662)"><tspan sodipodi:role="line" id="tspan3977" x="682.46375" y="1177.3876"/></text>
    <text xml:space="preserve" style="font-size:40px;font-style:normal;font-variant:normal;font-weight:normal;font-stretch:normal;line-height:125%;letter-spacing:0px;word-spacing:0px;fill:#000000;fill-opacity:1;stroke:none;font-family:David;-inkscape-font-specification:David" x="1018.4456" y="324.36469" id="text3979" sodipodi:linespacing="125%" transform="translate(-177.61536,481.88967)"><tspan sodipodi:role="line" id="tspan3981" x="1018.4456" y="324.36469"/></text>
    <g id="g3346">
      <path d="m 477.95462,1114.2523 c 0,-10.8659 -4.57627,-17.467 -13.29121,-17.467 l -10.53209,0 c -0.68978,0 -1.98775,0 -1.98775,-1.6243 l 0,-10.5321 -8.37376,0 0,10.8362 c 0,5.585 2.76653,8.1216 6.13383,8.1216 l 11.39247,0 c 5.86682,0 7.94357,5.6888 7.94357,11.6817 0,14.6189 -8.72235,25.1806 -16.40633,27.4206 -0.43019,1.7281 -0.43019,5.0732 0,6.4972 10.88069,-1.2164 25.12127,-13.8104 25.12127,-34.9339 m 46.17805,32.9017 c 0,-0.3041 -0.17059,-0.6082 -0.34118,-1.0162 l -11.22188,-17.771 c 7.24638,-3.4489 10.35409,-13.5063 10.35409,-22.5402 l 0,-9.0413 -8.19575,0 0,11.4741 c 0,7.5134 -1.46856,14.7227 -4.48726,14.7227 -1.20897,0 -2.41794,-2.1287 -3.19672,-3.3451 l -14.41859,-22.8517 -7.59497,0 c -0.60078,0 -0.86037,0.2003 -0.86037,0.6082 0,0.2077 0.089,0.5118 0.25959,0.8159 l 11.39247,17.9713 c -7.68398,4.0645 -10.35409,13.5063 -10.35409,22.5476 l 0,9.0339 8.11416,0 0,-12.4902 c 0,-7.5134 1.55015,-13.7066 4.56886,-13.7066 1.11996,0 2.33634,1.9284 3.10771,3.1448 l 14.41858,23.052 7.42439,0 c 0.68978,0 1.03096,-0.2003 1.03096,-0.6082 m 36.94392,0.6082 0,-30.0536 c 0,-14.2183 -5.69623,-20.9233 -16.13932,-20.9233 l -14.84877,0 c -0.2596,2.3364 -0.2596,4.5689 0,6.705 l 12.34925,0 c 7.33538,0 10.26508,4.9768 10.26508,14.0106 l 0,30.2613 8.37376,0 z m 54.29963,-21.932 0,-29.0449 -8.46276,0 0,29.2451 c 0,9.0413 -3.70848,15.1307 -11.05128,15.1307 l -6.5566,0 c -4.31668,0 -7.33539,-1.9284 -9.15254,-5.4812 12.08966,-0.6082 16.57692,-11.6817 16.57692,-22.9481 l 0,-15.9465 -8.28475,0 0,15.7388 c 0,13.3061 -4.40568,17.5708 -7.3428,17.5708 -1.63915,0 -2.9297,-1.2163 -2.9297,-3.4563 l 0,-29.8533 -8.46277,0 0,29.0449 c 0,14.2183 7.51339,21.932 17.86748,21.932 l 9.93132,0 c 10.4431,0 17.86748,-7.7137 17.86748,-21.932 m 17.0887,-2.6405 0,-26.4044 -8.46276,0 0,29.5492 c 2.76653,-0.5043 6.04483,-1.5204 8.46276,-3.1448 m 44.19772,20.9159 c 0,-1.3202 -0.089,-1.6243 -0.2596,-2.9445 l -9.76073,0 c 5.44406,-4.3612 7.42439,-13.9143 7.42439,-20.6118 0,-14.3222 -5.34764,-23.764 -18.38667,-23.764 l -15.01936,0 c -0.0816,1.3203 -0.25959,1.7282 -0.25959,3.1448 0,1.2238 0.089,2.4402 0.25959,3.5602 l 13.29862,0 c 9.14513,0 11.30347,10.2576 11.30347,18.3792 0,8.2254 -2.23993,19.2916 -10.96229,19.2916 l -14.75976,0 c -0.089,1.424 -0.17059,1.9284 -0.17059,3.4563 0,1.0161 0.0816,2.1286 0.17059,3.1448 l 36.94392,0 c 0.089,-1.2164 0.17801,-2.4328 0.17801,-3.6566" style="fill:#243a76;fill-opacity:1;fill-rule:nonzero;stroke:none" id="path72" inkscape:connector-curvature="0"/>
      <path d="m 570.7817,1071.093 0,-26.5082 c 0,-11.0662 -5.95583,-18.8837 -15.27896,-18.8837 l -16.39891,0 c -4.40568,0 -6.21542,2.7369 -6.21542,5.4812 l 0,39.9107 c 0,2.5366 1.20896,5.585 4.31667,5.585 l 29.25994,0 c 3.2783,0 4.31668,-2.7443 4.31668,-5.585 m -8.37376,-2.0322 c 0,0.712 -0.34118,1.1199 -0.86037,1.1199 l -19.42504,0 c -0.51919,0 -0.86037,-0.4079 -0.86037,-1.1199 l 0,-35.7424 c 0,-0.6156 0.34118,-0.9197 0.77879,-0.9197 l 10.95486,0 c 6.91261,0 9.41213,6.4008 9.41213,13.6101 l 0,23.052 z m 25.46246,-43.3597 -8.46277,0 0,50.9769 8.46277,0 0,-50.9769 z m 42.89975,3.0484 c 0,-1.0161 -0.0816,-2.0322 -0.0816,-3.0484 l -35.74237,0 c -0.0816,1.2164 -0.1706,1.5205 -0.1706,2.8407 0,1.2164 0.089,2.5367 0.2596,3.7605 l 20.97519,0 0,44.3757 8.37375,0 0,-44.3757 6.21542,0 c 0.089,-1.4241 0.1706,-2.0323 0.1706,-3.5528 m 47.04583,47.3203 c 0,-0.3041 -0.17059,-0.6082 -0.3486,-1.0161 l -11.21446,-17.7711 c 7.24638,-3.4563 10.35409,-13.5063 10.35409,-22.5476 l 0,-9.0339 -8.20316,0 0,11.4741 c 0,7.5134 -1.46856,14.7227 -4.48727,14.7227 -1.20897,0 -2.41793,-2.1287 -3.19671,-3.3525 l -14.41117,-22.8443 -7.59498,0 c -0.60819,0 -0.86779,0.2003 -0.86779,0.6082 0,0.2003 0.089,0.5044 0.2596,0.8085 l 11.39988,17.9787 c -7.68398,4.0645 -10.36151,13.5063 -10.36151,22.5402 l 0,9.0413 8.11417,0 0,-12.4902 c 0,-7.5134 1.55014,-13.714 4.57627,-13.714 1.11996,0 2.32893,1.9359 3.10771,3.1522 l 14.41117,23.052 7.42438,0 c 0.68978,0 1.03838,-0.2003 1.03838,-0.6082" style="fill:#243a76;fill-opacity:1;fill-rule:nonzero;stroke:none" id="path76" inkscape:connector-curvature="0"/>
      <path d="m 496.85973,957.65859 c 0,-1.01612 -0.089,-2.03225 -0.089,-3.04837 l -35.73496,0 c -0.0816,1.2238 -0.17059,1.52789 -0.17059,2.84811 0,1.21638 0.089,2.53661 0.25959,3.75299 l 20.97519,0 0,44.38318 8.37376,0 0,-44.38318 6.21542,0 c 0.0816,-1.41664 0.17059,-2.03225 0.17059,-3.55273 m 16.65851,-3.04837 -8.45534,0 0,50.97678 8.45534,0 0,-50.97678 z m 42.89975,3.04837 c 0,-1.01612 -0.089,-2.03225 -0.089,-3.04837 l -35.73496,0 c -0.0816,1.2238 -0.17059,1.52789 -0.17059,2.84811 0,1.21638 0.089,2.53661 0.25959,3.75299 l 20.97519,0 0,44.38318 8.37376,0 0,-44.38318 6.21542,0 c 0.0816,-1.41664 0.17059,-2.03225 0.17059,-3.55273 m 38.67208,-3.04837 -8.45535,0 0,62.65858 8.45535,0 0,-62.65858 z m 33.05743,50.98428 c -1.11996,-5.3848 -2.32893,-12.69789 -2.32893,-21.12357 l 0,-16.14674 c 0,-9.24154 -4.57627,-13.71397 -12.43084,-13.71397 l -9.15254,0 c -0.0816,1.32022 -0.17059,1.62431 -0.17059,2.94453 0,1.2238 0.089,2.54402 0.17059,3.76041 l 6.56402,0 c 4.65785,0 6.72719,2.74427 6.72719,7.51339 l 0,12.69785 c 0,9.84973 -6.208,17.97131 -11.65206,17.97131 -0.94937,0 -2.49952,-0.10384 -3.53789,-0.60819 -0.43019,1.42408 -1.03096,4.56888 -1.20897,6.70498 0.77878,0.7046 2.76653,1.1125 3.9755,1.1125 6.72719,0 11.04386,-5.9929 13.03161,-13.09836 0.25959,2.94454 1.03838,8.83356 1.98775,11.98586 l 8.02516,0 z m 48.51439,-24.57987 c 0,-17.5708 -6.91261,-26.40441 -18.12707,-26.40441 l -23.39312,0 c -0.089,1.2238 -0.17801,2.44018 -0.17801,3.65656 0,1.32022 0.089,1.62432 0.17801,2.94454 l 10.61368,0 c -5.00645,3.7604 -7.76556,10.3615 -9.06353,22.95552 l -2.32893,21.42766 8.28475,0 2.24734,-21.2274 c 1.80974,-16.55468 4.65786,-23.35604 12.51243,-23.35604 7.33538,0 10.5321,7.71365 10.5321,20.00357 0,12.39375 -4.48727,18.89102 -11.74106,18.89102 -1.11997,0 -3.87908,-0.6082 -4.48727,-0.91229 -0.34118,1.21634 -0.86037,4.76914 -0.94937,6.39344 0.94937,0.3041 2.93712,0.9123 6.21542,0.9123 12.34183,0 19.68463,-9.44183 19.68463,-25.28447" style="fill:#243a76;fill-opacity:1;fill-rule:nonzero;stroke:none" id="path80" inkscape:connector-curvature="0"/>
      <path inkscape:connector-curvature="0" id="path82" style="fill:#243a76;fill-opacity:1;fill-rule:nonzero;stroke:none" d="m -152.59455,1106.0773 -7.36505,0 0,41.4461 7.36505,0 0,-41.4461 z m 40.54857,35.149 0,-35.1416 -7.32055,0 0,34.4148 c 0,0.8455 -0.66011,1.3276 -1.15704,0 l -11.22188,-29.5789 c -1.53531,-4.0571 -4.07191,-4.8359 -7.64689,-4.8359 -3.57498,0 -5.71849,2.3586 -5.71849,6.349 l 0,35.0822 7.31313,0 0,-34.4147 c 0,-0.8455 0.66011,-1.3351 1.15705,0 l 11.22188,29.5789 c 1.48339,3.9903 3.63431,4.8358 7.20929,4.8358 3.52306,0 6.1635,-2.3586 6.1635,-6.2896 m 31.907802,-35.149 -7.365051,0 0,41.4461 7.365051,0 0,-41.4461 z m 33.005512,31.092 c 0,-5.6814 -2.751696,-10.2206 -11.333129,-13.5508 -3.248632,-1.2683 -7.098039,-3.3228 -7.098039,-7.4318 0,-4.1758 2.811031,-5.4441 5.614645,-5.4441 2.69236,0 5.503391,1.209 7.646895,2.9 0.88262,-0.9048 2.254759,-3.3302 2.477268,-4.4798 -3.52306,-2.2993 -5.7259,-3.8049 -11.444383,-3.8049 -6.274756,0 -12.097077,3.4489 -12.097077,10.7027 0,3.8716 1.483394,8.9523 10.554347,12.2825 4.123835,1.513 7.646895,3.931 7.646895,8.8262 0,3.5156 -2.966787,6.0596 -7.810068,6.0596 -3.411806,0 -6.21542,-1.9951 -8.41826,-3.6936 -0.823284,0.9049 -2.195423,3.3302 -2.469851,4.4798 3.241216,2.9594 7.253796,4.6505 12.979696,4.6505 8.358924,0 13.751061,-4.2277 13.751061,-11.4963 m 35.156433,10.3466 c -4.568853,-5.0806 -11.006782,-15.0638 -12.542095,-18.9948 6.437929,-1.3944 9.731063,-5.8668 9.731063,-11.0661 0,-7.9288 -6.044829,-11.3703 -12.653349,-11.3703 l -9.293462,0 c -2.751695,0 -4.123835,1.7505 -4.123835,4.9546 l 0,36.4766 7.313132,0 0,-18.5127 3.463724,0 c 1.817158,6.1709 7.046121,16.1541 9.137706,18.5127 l 8.967116,0 z m -9.849735,-29.7568 c 0,4.1683 -3.411806,5.9187 -7.038704,5.9187 l -4.680107,0 0,-11.3628 c 0,-0.5489 0.111254,-0.8529 0.719446,-0.8529 l 3.574979,0 c 3.463724,0 7.424386,1.5723 7.424386,6.297 m 44.724323,29.7568 -9.842318,-35.9278 c -0.993874,-3.5749 -3.0854591,-5.8074 -6.6604381,-5.8074 -3.5749791,0 -5.71848313,2.4179 -6.65302123,5.8074 l -9.84973467,35.9278 7.8100682,0 3.02612335,-13.5508 11.33312845,0 3.026124,13.5508 7.810068,0 z m -12.045158,-18.9355 -8.9151965,0 3.5230603,-15.4792 c 0.1112545,-0.4895 0.3337636,-0.7862 0.9345381,-0.7862 0.6081914,0 0.8232835,0.2967 0.9345381,0.7862 l 3.52306,15.4792 z m 38.568239,16.4583 c 0,-0.9717 0,-1.9952 -0.17059,-2.9075 l -13.810397,0 c -0.600774,0 -0.712029,-0.3041 -0.712029,-0.7862 l 0,-12.3418 10.45051,0 c 0.05934,-1.031 0.05934,-1.3944 0.05934,-2.4773 0,-0.9716 0,-1.9432 -0.111255,-2.8481 l -10.398591,0 0,-11.3628 c 0,-0.5489 0.111255,-0.8529 0.712029,-0.8529 l 13.810397,0 c 0.17059,-0.9049 0.17059,-1.9359 0.17059,-2.9001 0,-1.0903 0,-1.3944 -0.05934,-2.4773 l -17.822976,0 c -2.751696,0 -4.123835,1.7505 -4.123835,4.9546 l 0,31.5147 c 0,3.2115 1.372139,4.9619 4.123835,4.9619 l 17.822976,0 c 0.05934,-1.0903 0.05934,-1.3944 0.05934,-2.4772 m 26.790092,0 c 0,-0.9717 0,-1.9952 -0.163173,-2.9075 l -12.327003,0 c -0.608191,0 -0.712029,-0.3041 -0.712029,-0.7862 l 0,-35.2603 -7.313131,0 0,36.4693 c 0,3.2115 1.372139,4.9619 4.116418,4.9619 l 16.287664,0 c 0.111254,-1.0903 0.111254,-1.3944 0.111254,-2.4772"/>
      <path d="m -128.11039,1097.0991 -9.84973,-35.9278 c -0.98646,-3.5676 -3.07805,-5.8075 -6.65303,-5.8075 -3.57498,0 -5.7259,2.4179 -6.66043,5.8075 l -9.84232,35.9278 7.81007,0 3.02612,-13.5508 11.33313,0 3.02612,13.5508 7.81007,0 z m -12.04516,-18.9355 -8.91519,0 3.52306,-15.4792 c 0.10383,-0.4896 0.32634,-0.7862 0.93453,-0.7862 0.60078,0 0.82329,0.2966 0.93454,0.7862 l 3.52306,15.4792 z m 48.684987,-1.7504 c 0,-11.6743 -7.372467,-20.7527 -18.698177,-20.7527 l -8.64077,0 c -3.07804,0 -4.78395,1.4537 -4.78395,4.9619 l 0,31.5222 c 0,3.5082 1.70591,4.9545 4.78395,4.9545 l 8.64077,0 c 11.32571,0 18.698177,-9.071 18.698177,-20.6859 m -7.75815,0 c 0,9.4344 -5.221547,15.4866 -12.045157,15.4866 l -3.63432,0 c -0.8752,0 -1.37213,-0.4228 -1.37213,-1.4463 l 0,-28.0732 c 0,-1.0903 0.49693,-1.5131 1.37213,-1.5131 l 3.63432,0 c 6.82361,0 12.045157,6.0448 12.045157,15.546 m 49.790113,-0.1706 c 0,-11.6224 -7.098039,-21.9691 -18.705596,-21.9691 -11.607556,0 -18.698178,10.3467 -18.698178,21.9691 0,11.7114 7.090622,22.0655 18.698178,22.0655 11.607557,0 18.705596,-10.3541 18.705596,-22.0655 m -7.706231,0 c 0,6.7346 -2.914868,16.5695 -10.999365,16.5695 -8.084496,0 -11.0587,-9.8349 -11.0587,-16.5695 0,-6.6679 2.974204,-16.4064 11.0587,-16.4064 8.084497,0 10.999365,9.7385 10.999365,16.4064 m 52.482473,20.7972 0,-34.1774 c 0,-4.9026 -2.9667876,-7.2612 -6.482431,-7.2612 -3.574979,0 -6.274756,0.8529 -7.424386,5.7481 l -4.895199,20.9307 c -0.170591,0.7194 -0.88262,0.7194 -1.045793,0 l -4.8952,-20.9307 c -1.157047,-4.8952 -3.856823,-5.7481 -7.431802,-5.7481 -3.57498,0 -6.541767,2.3586 -6.541767,7.2612 l 0,34.1774 7.090622,0 0,-34.0588 c 0,-1.7504 1.431475,-1.1496 1.705903,0 l 5.06579,21.1681 c 0.66011,2.722 1.920995,5.0213 5.495974,5.0213 3.582396,0 4.902616,-2.2993 5.562727,-5.0213 l 5.058373,-21.1681 c 0.274427,-1.1496 1.705902,-1.7504 1.705902,0 l 0,34.0588 7.031287,0 z" style="fill:#243a76;fill-opacity:1;fill-rule:nonzero;stroke:none" id="path86" inkscape:connector-curvature="0"/>
      <path d="m -127.83671,1025.9971 c 0,-11.6743 -7.37247,-20.7527 -18.69818,-20.7527 l -8.64077,0 c -3.07804,0 -4.78394,1.4537 -4.78394,4.962 l 0,31.5221 c 0,3.5082 1.7059,4.9545 4.78394,4.9545 l 8.64077,0 c 11.32571,0 18.69818,-9.0709 18.69818,-20.6859 m -7.75815,0 c 0,9.4344 -5.22155,15.4866 -12.04516,15.4866 l -3.63431,0 c -0.8752,0 -1.37214,-0.4227 -1.37214,-1.4537 l 0,-28.0658 c 0,-1.0903 0.49694,-1.5131 1.37214,-1.5131 l 3.63431,0 c 6.82361,0 12.04516,6.0449 12.04516,15.546 m 43.849121,20.6859 -9.849731,-35.9278 c -0.98646,-3.575 -3.07805,-5.8149 -6.66044,-5.8149 -3.57498,0 -5.71848,2.4254 -6.65302,5.8149 l -9.84232,35.9278 7.80265,0 3.02612,-13.5508 11.34055,0 3.026123,13.5508 7.810068,0 z m -12.052571,-18.9355 -8.90778,0 3.51564,-15.4866 c 0.11125,-0.4821 0.33376,-0.7862 0.93454,-0.7862 0.60819,0 0.8307,0.3041 0.94195,0.7862 l 3.51565,15.4866 z m 46.600813,-22.5031 -7.817486,0 -7.750732,34.4296 c -0.111255,0.4821 -0.333764,0.8455 -0.934538,0.8455 -0.608192,0 -0.830701,-0.3634 -0.941955,-0.8455 l -7.750733,-34.4296 -7.810068,0 9.842318,36.7882 c 0.882619,3.3821 3.078042,5.0139 6.660438,5.0139 3.574979,0 5.718483,-1.4538 6.653021,-5.0139 l 9.849735,-36.7882 z m 11.881984,0 -7.36505,0 0,41.446 7.36505,0 0,-41.446 z m 39.6066146,20.7527 c 0,-11.6743 -7.3724676,-20.7527 -18.6981786,-20.7527 l -8.640769,0 c -3.078042,0 -4.776528,1.4537 -4.776528,4.962 l 0,31.5221 c 0,3.5082 1.698486,4.9545 4.776528,4.9545 l 8.640769,0 c 11.325711,0 18.6981786,-9.0709 18.6981786,-20.6859 m -7.7507326,0 c 0,9.4344 -5.228963,15.4866 -12.045158,15.4866 l -3.634315,0 c -0.882619,0 -1.379556,-0.4227 -1.379556,-1.4537 l 0,-28.0658 c 0,-1.0903 0.496937,-1.5131 1.379556,-1.5131 l 3.634315,0 c 6.816195,0 12.045158,6.0449 12.045158,15.546" style="fill:#243a76;fill-opacity:1;fill-rule:nonzero;stroke:none" id="path90" inkscape:connector-curvature="0"/>
      <path d="m -121.23486,996.20384 0,-34.17739 c 0,-4.8952 -2.96679,-7.26122 -6.48985,-7.26122 -3.56756,0 -6.26734,0.85296 -7.42438,5.74816 l -4.8952,20.93068 c -0.16318,0.71945 -0.87521,0.71945 -1.0458,0 l -4.8952,-20.93068 c -1.15704,-4.8952 -3.8494,-5.74816 -7.42438,-5.74816 -3.57498,0 -6.54919,2.36602 -6.54919,7.26122 l 0,34.17739 7.09804,0 0,-34.0513 c 0,-1.75783 1.43148,-1.14963 1.70591,0 l 5.05837,21.16061 c 0.66011,2.72944 1.92841,5.02129 5.50339,5.02129 3.57498,0 4.8952,-2.29185 5.55531,-5.02129 l 5.05837,-21.16061 c 0.28185,-1.14963 1.70591,-1.75783 1.70591,0 l 0,34.0513 7.0387,0 z m 37.522446,0.0593 -9.849735,-35.9278 c -0.993874,-3.56756 -3.078042,-5.80749 -6.660441,-5.80749 -3.57498,0 -5.71848,2.41793 -6.65302,5.80749 l -9.84232,35.9278 7.81007,0 3.02613,-13.55081 11.325707,0 3.026124,13.55081 7.817485,0 z m -12.052574,-18.93553 -8.907782,0 3.51565,-15.47921 c 0.11125,-0.48952 0.33376,-0.7862 0.93453,-0.7862 0.608195,0 0.830704,0.29668 0.941958,0.7862 l 3.515644,15.47921 z m 47.260926,15.61272 0,-15.00452 c 0,-3.26347 -1.379556,-4.96196 -4.131252,-4.96196 l -10.279919,0 c -0.05192,1.0903 -0.05192,1.39439 -0.05192,2.48469 0,0.97162 0,1.93583 0.111255,2.90003 l 6.319258,0 c 0.600774,0 0.771364,0.3041 0.771364,0.7862 l 0,11.4963 c -1.542729,0.66753 -3.300551,1.15705 -5.392136,1.15705 -6.87553,0 -11.718811,-5.87424 -11.718811,-15.30862 0,-10.41343 4.620772,-16.94036 11.503719,-16.94036 4.613355,0 7.313131,1.45373 9.894236,3.6269 1.097712,-1.5724 2.254759,-3.26347 2.477268,-4.59852 -4.843281,-3.50823 -9.679144,-4.53919 -13.966153,-4.53919 -10.294753,0 -17.659803,10.7101 -17.659803,22.32508 0,11.67431 6.979368,20.87135 18.319914,20.87135 5.436638,0 10.168664,-1.63173 13.802979,-4.29443 m 28.881677,0.84554 c 0,-0.97162 0,-2.00258 -0.163173,-2.90745 l -13.810396,0 c -0.608192,0 -0.719446,-0.3041 -0.719446,-0.7862 l 0,-12.34184 10.457926,0 c 0.05192,-1.03096 0.05192,-1.39439 0.05192,-2.47727 0,-0.97162 0,-1.93583 -0.111255,-2.84811 l -10.39859,0 0,-11.3628 c 0,-0.54885 0.111254,-0.85295 0.719446,-0.85295 l 13.810396,0 c 0.163173,-0.90487 0.163173,-1.92841 0.163173,-2.90004 0,-1.09029 0,-1.39439 -0.05933,-2.47726 l -17.822977,0 c -2.744278,0 -4.123835,1.7504 -4.123835,4.95453 l 0,31.5147 c 0,3.21155 1.379557,4.96196 4.123835,4.96196 l 17.822977,0 c 0.05933,-1.0903 0.05933,-1.38698 0.05933,-2.47727 m 39.332187,-3.81232 0,-35.1416 -7.313132,0 0,34.41473 c 0,0.84554 -0.66011,1.32764 -1.157047,0 L 0.01774921,959.66785 c -1.54272951,-4.04966 -4.07191601,-4.83586 -7.64689501,-4.83586 -3.5749792,0 -5.7259002,2.35859 -5.7259002,6.34892 l 0,35.08227 7.3205485,0 0,-34.41474 c 0,-0.84553 0.6601102,-1.33505 1.1570472,0 l 11.2218741,29.57887 c 1.4833938,3.99033 3.6268978,4.83587 7.2092942,4.83587 3.515643,0 6.156084,-2.3586 6.156084,-6.28959" style="fill:#243a76;fill-opacity:1;fill-rule:nonzero;stroke:none" id="path94" inkscape:connector-curvature="0"/>
      <path d="M 259.37877,857.35818 91.65885,1147.866 l 335.43984,0 -167.71992,-290.50782 z m 0,47.23126 126.87467,219.74996 -253.74934,0 126.87467,-219.74996 z" style="fill:#ed1d24;fill-opacity:1;fill-rule:nonzero;stroke:none" id="path98" inkscape:connector-curvature="0"/>
      <path inkscape:connector-curvature="0" id="path122" style="fill:#d71920;fill-opacity:1;fill-rule:nonzero;stroke:none" d="m 307.34727,1124.3424 -13.58047,23.5266 38.93167,0 13.58789,-23.5266 -38.93909,0 z"/>
      <path d="M 91.655141,954.62653 259.37506,1245.1344 427.1024,954.62653 l -335.447259,0 z M 259.37506,1197.9031 132.50039,978.14574 l 253.75676,0 -126.88209,219.75736 z" style="fill:#ed1d24;fill-opacity:1;fill-rule:nonzero;stroke:none" id="path126" inkscape:connector-curvature="0"/>
      <path inkscape:connector-curvature="0" id="path150" style="fill:#d71920;fill-opacity:1;fill-rule:nonzero;stroke:none" d="m 208.27956,954.62357 -13.58047,23.52663 38.93167,0 13.58789,-23.52663 -38.93909,0 z"/>
      <path d="m 195.18861,1133.9518 17.22962,29.8385 27.26478,0 -17.22962,-29.8385 -27.26478,0 z" style="fill:#d71920;fill-opacity:1;fill-rule:nonzero;stroke:none" id="path154" inkscape:connector-curvature="0"/>
      <path d="m 179.39566,995.89678 27.26478,0 52.51956,-90.96171 0,-47.23126 -79.78434,138.19297 z" style="fill:#ed1d24;fill-opacity:1;fill-rule:nonzero;stroke:none" id="path158" inkscape:connector-curvature="0"/>
      <path d="m 349.48975,1089.0524 21.41279,-37.0923 -13.63239,-23.6156 -21.41279,37.0923 13.63239,23.6156 z" style="fill:#d71920;fill-opacity:1;fill-rule:nonzero;stroke:none" id="path162" inkscape:connector-curvature="0"/>
      <path d="m 141.74045,1108.341 -27.26478,0 -22.822012,39.525 149.926612,0 0,-23.5192 -109.08136,0 9.24154,-16.0058 z" style="fill:#ed1d24;fill-opacity:1;fill-rule:nonzero;stroke:none" id="path166" inkscape:connector-curvature="0"/>
      <path d="m 401.84688,1104.123 -59.84011,-103.6447 -27.26477,0 59.8401,103.6447 27.26478,0 z" style="fill:#ed1d24;fill-opacity:1;fill-rule:nonzero;stroke:none" id="path170" inkscape:connector-curvature="0"/>
      <path d="m 337.48984,992.65408 -17.22962,-29.83847 -27.26478,0 17.22962,29.83847 27.26478,0 z" style="fill:#d71920;fill-opacity:1;fill-rule:nonzero;stroke:none" id="path174" inkscape:connector-curvature="0"/>
      <path inkscape:connector-curvature="0" id="path176" style="fill:#ed1d24;fill-opacity:1;fill-rule:nonzero;stroke:none" d="m 355.51975,954.62283 -80.8153,0 0,23.5192 80.8153,0 0,-23.5192 z"/>
      <path d="m 160.76646,1028.1598 -21.41279,37.0923 13.63239,23.6156 21.41279,-37.0923 -13.63239,-23.6156 z" style="fill:#d71920;fill-opacity:1;fill-rule:nonzero;stroke:none" id="path180" inkscape:connector-curvature="0"/>
      <path d="m 123.69348,1010.1181 47.31285,81.9501 27.27219,0 -47.32026,-81.9501 -27.26478,0 z" style="fill:#ed1d24;fill-opacity:1;fill-rule:nonzero;stroke:none" id="path184" inkscape:connector-curvature="0"/>
    </g>
  </g>
<script xmlns=""/></svg>