<?xml version="1.0" encoding="UTF-8" standalone="no"?>
<svg
   xmlns:dc="http://purl.org/dc/elements/1.1/"
   xmlns:cc="http://creativecommons.org/ns#"
   xmlns:rdf="http://www.w3.org/1999/02/22-rdf-syntax-ns#"
   xmlns:svg="http://www.w3.org/2000/svg"
   xmlns="http://www.w3.org/2000/svg"
   viewBox="0 0 908.10669 173.96001"
   height="173.96001"
   width="908.10669"
   xml:space="preserve"
   id="svg2"
   version="1.1"><metadata
     id="metadata8"><rdf:RDF><cc:Work
         rdf:about=""><dc:format>image/svg+xml</dc:format><dc:type
           rdf:resource="http://purl.org/dc/dcmitype/StillImage" /><dc:title></dc:title></cc:Work></rdf:RDF></metadata><defs
     id="defs6" /><g
     transform="matrix(1.3333333,0,0,-1.3333333,0,173.96)"
     id="g10"><g
       transform="scale(0.1)"
       id="g12"><path
         id="path14"
         style="fill:#ed1c24;fill-opacity:1;fill-rule:nonzero;stroke:none"
         d="M 1304.73,856.117 H 856.113 v 448.613 h -407.5 V 856.117 H 0 v -407.5 H 448.613 V 0 h 407.5 v 448.617 h 448.617 v 407.5" /><path
         id="path16"
         style="fill:#231f20;fill-opacity:1;fill-rule:nonzero;stroke:none"
         d="m 1893.31,485.574 c -9.66,-4.219 -18.41,-8.172 -26.23,-11.863 -7.83,-3.691 -18.06,-7.559 -30.72,-11.602 -10.72,-3.339 -22.37,-6.191 -34.94,-8.566 -12.57,-2.371 -26.41,-3.563 -41.52,-3.563 -28.48,0 -54.37,4.004 -77.66,12 -23.29,8 -43.55,20.52 -60.77,37.571 -16.88,16.699 -30.06,37.929 -39.55,63.679 -9.5,25.743 -14.24,55.676 -14.24,89.778 0,32.34 4.57,61.258 13.71,86.746 9.14,25.484 22.32,47.023 39.55,64.601 16.7,17.043 36.87,30.059 60.52,39.024 23.63,8.965 49.87,13.445 78.7,13.445 21.09,0 42.14,-2.547 63.15,-7.644 21,-5.106 44.34,-14.071 70,-26.895 V 760.32 h -3.95 c -21.62,18.102 -43.07,31.285 -64.34,39.551 -21.27,8.262 -44.03,12.395 -68.29,12.395 -19.86,0 -37.75,-3.207 -53.65,-9.625 -15.92,-6.422 -30.11,-16.391 -42.59,-29.926 -12.13,-13.184 -21.58,-29.84 -28.35,-49.965 -6.77,-20.133 -10.15,-43.375 -10.15,-69.742 0,-27.598 3.74,-51.328 11.21,-71.192 7.47,-19.863 17.1,-36.035 28.87,-48.515 12.31,-13.008 26.67,-22.637 43.12,-28.867 16.42,-6.243 33.79,-9.368 52.07,-9.368 25.14,0 48.69,4.309 70.66,12.922 21.98,8.614 42.54,21.532 61.7,38.758 h 3.69 v -61.172" /><path
         id="path18"
         style="fill:#231f20;fill-opacity:1;fill-rule:nonzero;stroke:none"
         d="m 2141.57,697.566 h -2.64 c -7.38,1.754 -14.55,3.032 -21.49,3.825 -6.95,0.793 -15.16,1.187 -24.65,1.187 -15.3,0 -30.06,-3.39 -44.3,-10.152 -14.24,-6.77 -27.95,-15.52 -41.13,-26.235 V 457.098 h -49.57 v 294.523 h 49.57 v -43.508 c 19.68,15.821 37.04,27.028 52.08,33.617 15.02,6.594 30.36,9.891 46,9.891 8.62,0 14.86,-0.226 18.72,-0.66 3.87,-0.441 9.67,-1.277 17.41,-2.504 v -50.891" /><path
         id="path20"
         style="fill:#231f20;fill-opacity:1;fill-rule:nonzero;stroke:none"
         d="m 2426.99,457.098 h -49.57 v 32.695 c -16.69,-13.184 -32.69,-23.289 -47.98,-30.32 -15.3,-7.024 -32.17,-10.547 -50.63,-10.547 -30.94,0 -55.02,9.453 -72.24,28.347 -17.23,18.887 -25.84,46.622 -25.84,83.184 v 191.164 h 49.57 V 583.926 c 0,-14.942 0.7,-27.727 2.11,-38.36 1.4,-10.644 4.39,-19.738 8.96,-27.296 4.75,-7.735 10.9,-13.36 18.46,-16.875 7.56,-3.516 18.54,-5.274 32.96,-5.274 12.83,0 26.84,3.34 42.05,10.02 15.2,6.679 29.4,15.207 42.58,25.578 v 219.902 h 49.57 V 457.098" /><path
         id="path22"
         style="fill:#231f20;fill-opacity:1;fill-rule:nonzero;stroke:none"
         d="M 2732.73,457.098 H 2494.9 v 36.652 l 171.65,216.473 h -167.96 v 41.398 h 229.65 V 716.289 L 2555.8,499.023 h 176.93 v -41.925" /><path
         id="path24"
         style="fill:#231f20;fill-opacity:1;fill-rule:nonzero;stroke:none"
         d="m 3188.63,739.227 c 0,11.246 -1.99,21.226 -5.93,29.925 -3.97,8.703 -10.51,16.043 -19.65,22.02 -7.56,5.098 -16.52,8.656 -26.89,10.676 -10.38,2.019 -22.59,3.035 -36.66,3.035 h -61.43 V 656.699 h 52.73 c 16.53,0 30.94,1.449 43.25,4.352 12.3,2.898 22.76,8.304 31.37,16.215 7.91,7.382 13.75,15.859 17.53,25.445 3.78,9.578 5.68,21.75 5.68,36.516 z m 122.08,-282.129 h -67.77 l -131.31,156.093 h -73.56 V 457.098 h -52.21 v 392.609 h 109.95 c 23.73,0 43.51,-1.543 59.33,-4.613 15.82,-3.078 30.06,-8.571 42.71,-16.481 14.24,-8.965 25.36,-20.265 33.36,-33.883 7.99,-13.625 12,-30.894 12,-51.812 0,-28.305 -7.12,-51.984 -21.36,-71.059 -14.24,-19.078 -33.84,-33.441 -58.8,-43.109 l 147.66,-171.652" /><path
         id="path26"
         style="fill:#231f20;fill-opacity:1;fill-rule:nonzero;stroke:none"
         d="m 3538.66,604.227 c 0,38.14 -7.47,66.484 -22.41,85.035 -14.94,18.547 -35.69,27.816 -62.23,27.816 -26.89,0 -47.77,-9.269 -62.62,-27.816 -14.86,-18.551 -22.28,-46.895 -22.28,-85.035 0,-36.914 7.47,-64.903 22.41,-83.973 14.94,-19.082 35.77,-28.613 62.49,-28.613 26.37,0 47.07,9.453 62.09,28.347 15.04,18.887 22.55,46.973 22.55,84.239 z m 51.15,0 c 0,-47.989 -12.3,-85.868 -36.91,-113.641 -24.61,-27.773 -57.57,-41.66 -98.88,-41.66 -41.66,0 -74.74,13.887 -99.28,41.66 -24.51,27.773 -36.78,65.652 -36.78,113.641 0,47.988 12.27,85.914 36.78,113.777 24.54,27.855 57.62,41.789 99.28,41.789 41.31,0 74.27,-13.934 98.88,-41.789 24.61,-27.863 36.91,-65.789 36.91,-113.777" /><path
         id="path28"
         style="fill:#231f20;fill-opacity:1;fill-rule:nonzero;stroke:none"
         d="M 3752.9,800.926 H 3697 v 51.418 h 55.9 z m -3.17,-350.946 c 0,-34.445 -8.78,-60.468 -26.36,-78.046 -17.58,-17.571 -41.14,-26.36 -70.67,-26.36 -7.03,0 -16.31,0.703 -27.82,2.11 -11.51,1.406 -21.13,3.164 -28.87,5.273 v 47.188 h 2.64 c 4.92,-1.934 11.56,-4.122 19.9,-6.59 8.35,-2.461 16.49,-3.692 24.4,-3.692 12.65,0 22.85,1.758 30.58,5.274 7.74,3.523 13.54,8.797 17.41,15.82 3.86,7.031 6.36,15.516 7.51,25.449 1.14,9.93 1.71,22.012 1.71,36.25 v 237.305 h -61.43 v 41.66 h 111 V 449.98" /><path
         id="path30"
         style="fill:#231f20;fill-opacity:1;fill-rule:nonzero;stroke:none"
         d="m 4021.19,529.609 v 82 c -15.12,-0.879 -32.92,-2.195 -53.4,-3.953 -20.48,-1.758 -36.69,-4.308 -48.64,-7.648 -14.24,-4.043 -25.75,-10.32 -34.54,-18.848 -8.79,-8.535 -13.19,-20.262 -13.19,-35.203 0,-16.875 5.1,-29.57 15.3,-38.098 10.19,-8.535 25.75,-12.793 46.67,-12.793 17.4,0 33.31,3.391 47.72,10.157 14.42,6.757 27.77,14.894 40.08,24.386 z m 49.31,-72.511 h -49.31 v 31.379 c -4.4,-2.989 -10.33,-7.161 -17.79,-12.52 -7.48,-5.371 -14.73,-9.629 -21.76,-12.793 -8.26,-4.043 -17.76,-7.422 -28.48,-10.148 -10.72,-2.723 -23.29,-4.09 -37.7,-4.09 -26.55,0 -49.05,8.789 -67.5,26.367 -18.46,17.578 -27.69,39.988 -27.69,67.234 0,22.325 4.79,40.383 14.38,54.192 9.57,13.797 23.24,24.648 40.99,32.558 17.93,7.911 39.47,13.27 64.6,16.082 25.14,2.809 52.12,4.918 80.95,6.329 v 7.648 c 0,11.246 -1.97,20.566 -5.94,27.949 -3.94,7.383 -9.62,13.184 -17,17.403 -7.03,4.042 -15.47,6.761 -25.31,8.171 -9.85,1.407 -20.13,2.11 -30.85,2.11 -13.01,0 -27.51,-1.711 -43.51,-5.141 -15.99,-3.43 -32.52,-8.398 -49.57,-14.898 h -2.64 v 50.363 c 9.67,2.637 23.65,5.535 41.93,8.699 18.28,3.164 36.3,4.746 54.05,4.746 20.74,0 38.8,-1.715 54.19,-5.14 15.37,-3.426 28.69,-9.274 39.94,-17.535 11.08,-8.086 19.51,-18.547 25.31,-31.375 5.81,-12.833 8.71,-28.743 8.71,-47.727 V 457.098" /><path
         id="path32"
         style="fill:#231f20;fill-opacity:1;fill-rule:nonzero;stroke:none"
         d="m 4644.52,614.773 c 0,-28.476 -3.13,-53.3 -9.37,-74.48 -6.24,-21.191 -16.47,-38.809 -30.71,-52.871 -13.53,-13.359 -29.35,-23.117 -47.46,-29.27 -18.11,-6.152 -39.2,-9.226 -63.28,-9.226 -24.61,0 -46.06,3.262 -64.34,9.754 -18.28,6.504 -33.66,16.086 -46.14,28.742 -14.24,14.414 -24.48,31.816 -30.72,52.207 -6.24,20.391 -9.36,45.437 -9.36,75.144 v 234.934 h 52.21 v -237.57 c 0,-21.27 1.44,-38.055 4.35,-50.36 2.9,-12.304 7.78,-23.468 14.63,-33.488 7.74,-11.426 18.24,-20.039 31.51,-25.84 13.27,-5.801 29.23,-8.699 47.86,-8.699 18.81,0 34.8,2.859 47.99,8.574 13.18,5.703 23.73,14.364 31.64,25.965 6.85,10.02 11.73,21.496 14.64,34.414 2.89,12.922 4.34,28.957 4.34,48.117 v 238.887 h 52.21 V 614.773" /><path
         id="path34"
         style="fill:#231f20;fill-opacity:1;fill-rule:nonzero;stroke:none"
         d="m 4918.61,697.566 h -2.64 c -7.38,1.754 -14.55,3.032 -21.48,3.825 -6.95,0.793 -15.17,1.187 -24.66,1.187 -15.29,0 -30.06,-3.39 -44.3,-10.152 -14.23,-6.77 -27.94,-15.52 -41.13,-26.235 V 457.098 h -49.57 v 294.523 h 49.57 v -43.508 c 19.69,15.821 37.04,27.028 52.08,33.617 15.02,6.594 30.36,9.891 46.01,9.891 8.61,0 14.85,-0.226 18.72,-0.66 3.87,-0.441 9.67,-1.277 17.4,-2.504 v -50.891" /><path
         id="path36"
         style="fill:#231f20;fill-opacity:1;fill-rule:nonzero;stroke:none"
         d="m 5204.04,457.098 h -49.57 v 32.695 c -16.7,-13.184 -32.7,-23.289 -47.99,-30.32 -15.29,-7.024 -32.17,-10.547 -50.62,-10.547 -30.94,0 -55.02,9.453 -72.25,28.347 -17.23,18.887 -25.84,46.622 -25.84,83.184 v 191.164 h 49.57 V 583.926 c 0,-14.942 0.7,-27.727 2.11,-38.36 1.41,-10.644 4.4,-19.738 8.97,-27.296 4.74,-7.735 10.89,-13.36 18.45,-16.875 7.56,-3.516 18.55,-5.274 32.96,-5.274 12.83,0 26.85,3.34 42.05,10.02 15.21,6.679 29.41,15.207 42.59,25.578 v 219.902 h 49.57 V 457.098" /><path
         id="path38"
         style="fill:#231f20;fill-opacity:1;fill-rule:nonzero;stroke:none"
         d="m 5485.52,538.047 v 160.574 c -13.18,5.973 -25.43,10.238 -36.78,12.789 -11.33,2.543 -22.63,3.824 -33.88,3.824 -27.25,0 -48.69,-9.14 -64.34,-27.421 -15.64,-18.29 -23.46,-44.825 -23.46,-79.629 0,-33.047 5.8,-58.098 17.4,-75.149 11.6,-17.051 30.85,-25.574 57.74,-25.574 14.42,0 28.88,2.773 43.37,8.309 14.52,5.539 27.83,12.96 39.95,22.277 z m 49.58,-47.461 c 0,-49.922 -11.34,-86.574 -34.02,-109.953 -22.67,-23.367 -57.57,-35.059 -104.68,-35.059 -15.64,0 -30.89,1.094 -45.75,3.281 -14.85,2.208 -29.48,5.333 -43.89,9.375 v 50.618 h 2.63 c 8.09,-3.164 20.92,-7.071 38.5,-11.731 17.58,-4.656 35.15,-6.992 52.73,-6.992 16.88,0 30.85,2.023 41.93,6.066 11.07,4.051 19.68,9.668 25.84,16.875 6.15,6.856 10.54,15.125 13.18,24.786 2.64,9.668 3.95,20.476 3.95,32.429 v 26.895 c -14.94,-11.953 -29.22,-20.867 -42.84,-26.758 -13.63,-5.898 -30.98,-8.836 -52.08,-8.836 -35.15,0 -63.06,12.695 -83.72,38.106 -20.65,25.398 -30.97,61.21 -30.97,107.441 0,25.312 3.55,47.152 10.68,65.519 7.11,18.368 16.83,34.235 29.13,47.594 11.43,12.481 25.31,22.188 41.66,29.137 16.35,6.941 32.61,10.414 48.78,10.414 17.05,0 31.33,-1.711 42.85,-5.141 11.51,-3.429 23.68,-8.664 36.51,-15.687 l 3.17,12.656 h 46.41 V 490.586" /><path
         id="path40"
         style="fill:#231f20;fill-opacity:1;fill-rule:nonzero;stroke:none"
         d="m 5871.41,457.098 h -49.57 v 32.695 c -16.7,-13.184 -32.69,-23.289 -47.99,-30.32 -15.29,-7.024 -32.16,-10.547 -50.62,-10.547 -30.94,0 -55.02,9.453 -72.25,28.347 -17.22,18.887 -25.84,46.622 -25.84,83.184 v 191.164 h 49.57 V 583.926 c 0,-14.942 0.71,-27.727 2.11,-38.36 1.41,-10.644 4.4,-19.738 8.97,-27.296 4.74,-7.735 10.9,-13.36 18.46,-16.875 7.55,-3.516 18.54,-5.274 32.95,-5.274 12.84,0 26.85,3.34 42.06,10.02 15.2,6.679 29.4,15.207 42.58,25.578 v 219.902 h 49.57 V 457.098" /><path
         id="path42"
         style="fill:#231f20;fill-opacity:1;fill-rule:nonzero;stroke:none"
         d="m 6143.13,529.609 v 82 c -15.11,-0.879 -32.92,-2.195 -53.4,-3.953 -20.47,-1.758 -36.69,-4.308 -48.64,-7.648 -14.24,-4.043 -25.75,-10.32 -34.54,-18.848 -8.79,-8.535 -13.18,-20.262 -13.18,-35.203 0,-16.875 5.09,-29.57 15.29,-38.098 10.19,-8.535 25.75,-12.793 46.67,-12.793 17.4,0 33.31,3.391 47.72,10.157 14.42,6.757 27.78,14.894 40.08,24.386 z m 49.31,-72.511 h -49.31 v 31.379 c -4.39,-2.989 -10.33,-7.161 -17.79,-12.52 -7.48,-5.371 -14.73,-9.629 -21.76,-12.793 -8.26,-4.043 -17.75,-7.422 -28.48,-10.148 -10.72,-2.723 -23.29,-4.09 -37.7,-4.09 -26.54,0 -49.04,8.789 -67.5,26.367 -18.46,17.578 -27.69,39.988 -27.69,67.234 0,22.325 4.79,40.383 14.38,54.192 9.57,13.797 23.24,24.648 41,32.558 17.93,7.911 39.46,13.27 64.6,16.082 25.13,2.809 52.11,4.918 80.94,6.329 v 7.648 c 0,11.246 -1.97,20.566 -5.94,27.949 -3.94,7.383 -9.61,13.184 -17,17.403 -7.03,4.042 -15.47,6.761 -25.31,8.171 -9.84,1.407 -20.13,2.11 -30.85,2.11 -13.01,0 -27.51,-1.711 -43.51,-5.141 -15.99,-3.43 -32.51,-8.398 -49.57,-14.898 h -2.63 v 50.363 c 9.67,2.637 23.64,5.535 41.92,8.699 18.28,3.164 36.3,4.746 54.05,4.746 20.75,0 38.8,-1.715 54.19,-5.14 15.37,-3.426 28.7,-9.274 39.95,-17.535 11.07,-8.086 19.51,-18.547 25.31,-31.375 5.8,-12.833 8.7,-28.743 8.7,-47.727 V 457.098" /><path
         id="path44"
         style="fill:#231f20;fill-opacity:1;fill-rule:nonzero;stroke:none"
         d="M 6532.98,751.621 6361.06,348.465 h -53 l 54.85,122.871 -117.34,280.285 h 53.79 l 90.44,-218.32 91.23,218.32 h 51.95" /><path
         id="path46"
         style="fill:#231f20;fill-opacity:1;fill-rule:nonzero;stroke:none"
         d="m 6761.45,529.609 v 82 c -15.11,-0.879 -32.92,-2.195 -53.4,-3.953 -20.47,-1.758 -36.69,-4.308 -48.64,-7.648 -14.24,-4.043 -25.75,-10.32 -34.54,-18.848 -8.79,-8.535 -13.18,-20.262 -13.18,-35.203 0,-16.875 5.09,-29.57 15.29,-38.098 10.2,-8.535 25.75,-12.793 46.67,-12.793 17.4,0 33.31,3.391 47.72,10.157 14.42,6.757 27.78,14.894 40.08,24.386 z m 49.31,-72.511 h -49.31 v 31.379 c -4.39,-2.989 -10.33,-7.161 -17.79,-12.52 -7.48,-5.371 -14.73,-9.629 -21.76,-12.793 -8.26,-4.043 -17.75,-7.422 -28.47,-10.148 -10.73,-2.723 -23.3,-4.09 -37.71,-4.09 -26.54,0 -49.04,8.789 -67.5,26.367 -18.46,17.578 -27.69,39.988 -27.69,67.234 0,22.325 4.79,40.383 14.38,54.192 9.57,13.797 23.24,24.648 41,32.558 17.93,7.911 39.46,13.27 64.6,16.082 25.13,2.809 52.11,4.918 80.94,6.329 v 7.648 c 0,11.246 -1.97,20.566 -5.93,27.949 -3.95,7.383 -9.62,13.184 -17.01,17.403 -7.03,4.042 -15.47,6.761 -25.31,8.171 -9.84,1.407 -20.13,2.11 -30.85,2.11 -13.01,0 -27.51,-1.711 -43.5,-5.141 -16,-3.43 -32.52,-8.398 -49.58,-14.898 h -2.63 v 50.363 c 9.67,2.637 23.64,5.535 41.92,8.699 18.28,3.164 36.3,4.746 54.05,4.746 20.75,0 38.8,-1.715 54.19,-5.14 15.38,-3.426 28.7,-9.274 39.95,-17.535 11.07,-8.086 19.51,-18.547 25.31,-31.375 5.8,-12.833 8.7,-28.743 8.7,-47.727 V 457.098" /></g></g></svg>