<?xml version="1.0" encoding="UTF-8" standalone="no"?>
<!-- Created with Inkscape (http://www.inkscape.org/) -->

<svg
   version="1.1"
   id="svg1"
   width="308.63068"
   height="397.17468"
   viewBox="0 0 308.63068 397.17468"
   sodipodi:docname="Belize RC.svg"
   inkscape:version="1.3.2 (091e20e, 2023-11-25, custom)"
   xmlns:inkscape="http://www.inkscape.org/namespaces/inkscape"
   xmlns:sodipodi="http://sodipodi.sourceforge.net/DTD/sodipodi-0.dtd"
   xmlns="http://www.w3.org/2000/svg"
   xmlns:svg="http://www.w3.org/2000/svg">
  <defs
     id="defs1">
    <clipPath
       clipPathUnits="userSpaceOnUse"
       id="clipPath3">
      <path
         d="M 0.059998,297.881 H 231.473 V 0.06 H 0.059998 Z"
         transform="translate(-231.47301,-151.884)"
         id="path3" />
    </clipPath>
  </defs>
  <sodipodi:namedview
     id="namedview1"
     pagecolor="#ffffff"
     bordercolor="#666666"
     borderopacity="1.0"
     inkscape:showpageshadow="2"
     inkscape:pageopacity="0.0"
     inkscape:pagecheckerboard="0"
     inkscape:deskcolor="#d1d1d1"
     inkscape:export-bgcolor="#ffffffff"
     inkscape:zoom="2.0671005"
     inkscape:cx="154.08056"
     inkscape:cy="198.58734"
     inkscape:window-width="1920"
     inkscape:window-height="1017"
     inkscape:window-x="-8"
     inkscape:window-y="-8"
     inkscape:window-maximized="1"
     inkscape:current-layer="g1">
    <inkscape:page
       x="0"
       y="0"
       inkscape:label="1"
       id="page1"
       width="308.63068"
       height="397.17468"
       margin="0"
       bleed="0"
       inkscape:export-filename="Belize RC.png"
       inkscape:export-xdpi="300"
       inkscape:export-ydpi="300" />
  </sodipodi:namedview>
  <g
     id="g1"
     inkscape:groupmode="layer"
     inkscape:label="1">
    <g
       id="group-MC1">
      <path
         id="path2"
         d="m 0,0 h -79.589 v 79.589 h -72.295 V 0 h -79.589 v -72.295 h 79.589 v -79.589 h 72.295 v 79.589 H 0 L 0,0"
         style="fill:#ed1c24;fill-opacity:1;fill-rule:nonzero;stroke:none"
         transform="matrix(1.3333333,0,0,-1.3333333,308.63067,194.66267)"
         clip-path="url(#clipPath3)" />
      <path
         id="path4"
         d="m 0,0 c 1.394,-0.246 3.444,-0.328 5.986,-0.328 7.38,0 14.186,2.706 14.186,10.742 0,7.544 -6.478,10.66 -14.268,10.66 H 0 Z m 0,26.486 h 6.478 c 7.544,0 11.972,3.936 11.972,9.266 0,6.478 -4.92,9.02 -12.136,9.02 -3.28,0 -5.1661,-0.246 -6.314,-0.492 z m -7.1343,22.632 c 3.1162,0.656 8.0361,1.149 13.0383,1.149 7.134,0 11.726,-1.23 15.17,-4.018 2.87,-2.133 4.592,-5.413 4.592,-9.759 0,-5.33 -3.526,-10.004 -9.348,-12.136 V 24.19 c 5.248,-1.312 11.398,-5.658 11.398,-13.858 0,-4.756 -1.886,-8.364 -4.674,-11.07 -3.854,-3.526 -10.086,-5.166 -19.106,-5.166 -4.9199,0 -8.6924,0.328 -11.0703,0.656 v 54.366"
         style="fill:#231f20;fill-opacity:1;fill-rule:nonzero;stroke:none"
         transform="matrix(1.3333333,0,0,-1.3333333,11.4396,67.022667)" />
      <path
         id="path5"
         d="M 0,0 H -21.484 V -19.926 H 2.46 v -5.986 H -28.618 V 29.356 H 1.23 V 23.37 H -21.484 V 5.904 H 0 V 0"
         style="fill:#231f20;fill-opacity:1;fill-rule:nonzero;stroke:none"
         transform="matrix(1.3333333,0,0,-1.3333333,102.076,39.689333)" />
      <path
         id="path6"
         d="M 0,0 H 7.134 V -49.283 H 30.75 v -5.986 H 0 V 0"
         style="fill:#231f20;fill-opacity:1;fill-rule:nonzero;stroke:none"
         transform="matrix(1.3333333,0,0,-1.3333333,120.44267,0.54666667)" />
      <path
         id="path7"
         d="m 131.086,242.202 h 7.133 v 55.269 h -7.133 z"
         style="fill:#231f20;fill-opacity:1;fill-rule:nonzero;stroke:none"
         transform="matrix(1.3333333,0,0,-1.3333333,0,397.17467)" />
      <path
         id="path8"
         d="M 0,0 30.668,44.855 V 45.1 H 2.624 v 5.986 h 37.31 V 46.74 L 9.429,2.05 V 1.804 H 40.344 V -4.182 L 0,-4.182 V 0"
         style="fill:#231f20;fill-opacity:1;fill-rule:nonzero;stroke:none"
         transform="matrix(1.3333333,0,0,-1.3333333,198.61467,68.662667)" />
      <path
         id="path9"
         d="M 0,0 H -21.485 V -19.926 H 2.46 v -5.986 H -28.618 V 29.356 H 1.229 V 23.37 H -21.485 V 5.904 H 0 V 0"
         style="fill:#231f20;fill-opacity:1;fill-rule:nonzero;stroke:none"
         transform="matrix(1.3333333,0,0,-1.3333333,304.996,39.689333)" />
    </g>
  </g>
</svg>
