<?xml version="1.0" encoding="UTF-8" standalone="no"?>
<!-- Created with Inkscape (http://www.inkscape.org/) -->

<svg
   width="89.494904mm"
   height="89.496178mm"
   viewBox="0 0 89.494903 89.496174"
   version="1.1"
   id="svg1"
   inkscape:export-filename="Korean Red Cross KO EN round.png"
   inkscape:export-xdpi="300"
   inkscape:export-ydpi="300"
   inkscape:version="1.3.2 (091e20e, 2023-11-25, custom)"
   sodipodi:docname="Korean Red Cross KO EN round.svg"
   xmlns:inkscape="http://www.inkscape.org/namespaces/inkscape"
   xmlns:sodipodi="http://sodipodi.sourceforge.net/DTD/sodipodi-0.dtd"
   xmlns="http://www.w3.org/2000/svg"
   xmlns:svg="http://www.w3.org/2000/svg">
  <sodipodi:namedview
     id="namedview1"
     pagecolor="#ffffff"
     bordercolor="#666666"
     borderopacity="1.0"
     inkscape:showpageshadow="2"
     inkscape:pageopacity="0.0"
     inkscape:pagecheckerboard="0"
     inkscape:deskcolor="#d1d1d1"
     inkscape:document-units="mm"
     inkscape:export-bgcolor="#ffffffff"
     inkscape:zoom="1.0343421"
     inkscape:cx="-91.362425"
     inkscape:cy="234.44855"
     inkscape:window-width="1920"
     inkscape:window-height="1017"
     inkscape:window-x="-8"
     inkscape:window-y="-8"
     inkscape:window-maximized="1"
     inkscape:current-layer="layer1" />
  <defs
     id="defs1">
    <clipPath
       clipPathUnits="userSpaceOnUse"
       id="clipPath456">
      <path
         d="M 0,841.89 H 595.281 V 0 H 0 Z"
         transform="translate(-204.57203,-218.72701)"
         id="path456" />
    </clipPath>
    <clipPath
       clipPathUnits="userSpaceOnUse"
       id="clipPath458">
      <path
         d="M 0,841.89 H 595.281 V 0 H 0 Z"
         transform="translate(-230.59501,-220.76601)"
         id="path458" />
    </clipPath>
    <clipPath
       clipPathUnits="userSpaceOnUse"
       id="clipPath460">
      <path
         d="M 0,841.89 H 595.281 V 0 H 0 Z"
         transform="translate(-240.34103,-211.83601)"
         id="path460" />
    </clipPath>
    <clipPath
       clipPathUnits="userSpaceOnUse"
       id="clipPath462">
      <path
         d="M 0,841.89 H 595.281 V 0 H 0 Z"
         transform="translate(-261.30098,-206.008)"
         id="path462" />
    </clipPath>
    <clipPath
       clipPathUnits="userSpaceOnUse"
       id="clipPath464">
      <path
         d="M 0,841.89 H 595.281 V 0 H 0 Z"
         transform="translate(-237.81301,-216.87801)"
         id="path464" />
    </clipPath>
    <clipPath
       clipPathUnits="userSpaceOnUse"
       id="clipPath466">
      <path
         d="M 0,841.89 H 595.281 V 0 H 0 Z"
         transform="translate(-247.80301,-217.59501)"
         id="path466" />
    </clipPath>
    <clipPath
       clipPathUnits="userSpaceOnUse"
       id="clipPath468">
      <path
         d="M 0,841.89 H 595.281 V 0 H 0 Z"
         transform="translate(-286.89803,-218.01901)"
         id="path468" />
    </clipPath>
    <clipPath
       clipPathUnits="userSpaceOnUse"
       id="clipPath470">
      <path
         d="M 0,841.89 H 595.281 V 0 H 0 Z"
         transform="translate(-293.58301,-217.225)"
         id="path470" />
    </clipPath>
    <clipPath
       clipPathUnits="userSpaceOnUse"
       id="clipPath472">
      <path
         d="M 0,841.89 H 595.281 V 0 H 0 Z"
         transform="translate(-301.91003,-218.914)"
         id="path472" />
    </clipPath>
    <clipPath
       clipPathUnits="userSpaceOnUse"
       id="clipPath474">
      <path
         d="M 0,841.89 H 595.281 V 0 H 0 Z"
         transform="translate(-311.09498,-217.225)"
         id="path474" />
    </clipPath>
    <clipPath
       clipPathUnits="userSpaceOnUse"
       id="clipPath476">
      <path
         d="M 0,841.89 H 595.281 V 0 H 0 Z"
         id="path476" />
    </clipPath>
    <clipPath
       clipPathUnits="userSpaceOnUse"
       id="clipPath478">
      <path
         d="M 0,841.89 H 595.281 V 0 H 0 Z"
         transform="translate(-270.30901,-215.93401)"
         id="path478" />
    </clipPath>
    <clipPath
       clipPathUnits="userSpaceOnUse"
       id="clipPath480">
      <path
         d="M 0,841.89 H 595.281 V 0 H 0 Z"
         id="path480" />
    </clipPath>
    <clipPath
       clipPathUnits="userSpaceOnUse"
       id="clipPath482">
      <path
         d="M 0,841.89 H 595.281 V 0 H 0 Z"
         transform="translate(-255.23401,-215.69601)"
         id="path482" />
    </clipPath>
    <clipPath
       clipPathUnits="userSpaceOnUse"
       id="clipPath484">
      <path
         d="M 0,841.89 H 595.281 V 0 H 0 Z"
         transform="translate(-261.28501,-220.76601)"
         id="path484" />
    </clipPath>
    <clipPath
       clipPathUnits="userSpaceOnUse"
       id="clipPath486">
      <path
         d="M 0,841.89 H 595.281 V 0 H 0 Z"
         transform="translate(-420.75804,-212.89201)"
         id="path486" />
    </clipPath>
    <clipPath
       clipPathUnits="userSpaceOnUse"
       id="clipPath488">
      <path
         d="M 0,841.89 H 595.281 V 0 H 0 Z"
         transform="translate(-390.43298,-217.687)"
         id="path488" />
    </clipPath>
    <clipPath
       clipPathUnits="userSpaceOnUse"
       id="clipPath490">
      <path
         d="M 0,841.89 H 595.281 V 0 H 0 Z"
         transform="translate(-385.63898,-193.306)"
         id="path490" />
    </clipPath>
    <clipPath
       clipPathUnits="userSpaceOnUse"
       id="clipPath492">
      <path
         d="M 0,841.89 H 595.281 V 0 H 0 Z"
         transform="translate(-385.63898,-180.34701)"
         id="path492" />
    </clipPath>
    <clipPath
       clipPathUnits="userSpaceOnUse"
       id="clipPath494">
      <path
         d="M 0,841.89 H 595.281 V 0 H 0 Z"
         transform="translate(-356.84798,-218.02801)"
         id="path494" />
    </clipPath>
    <clipPath
       clipPathUnits="userSpaceOnUse"
       id="clipPath496">
      <path
         d="M 0,841.89 H 595.281 V 0 H 0 Z"
         transform="translate(-362.87198,-220.267)"
         id="path496" />
    </clipPath>
    <clipPath
       clipPathUnits="userSpaceOnUse"
       id="clipPath498">
      <path
         d="M 0,841.89 H 595.281 V 0 H 0 Z"
         transform="translate(-362.93603,-226.378)"
         id="path498" />
    </clipPath>
    <clipPath
       clipPathUnits="userSpaceOnUse"
       id="clipPath500">
      <path
         d="M 0,841.89 H 595.281 V 0 H 0 Z"
         transform="translate(-369.82703,-229.90101)"
         id="path500" />
    </clipPath>
    <clipPath
       clipPathUnits="userSpaceOnUse"
       id="clipPath502">
      <path
         d="M 0,841.89 H 595.281 V 0 H 0 Z"
         transform="translate(-369.44198,-234.67)"
         id="path502" />
    </clipPath>
    <clipPath
       clipPathUnits="userSpaceOnUse"
       id="clipPath504">
      <path
         d="M 0,841.89 H 595.281 V 0 H 0 Z"
         transform="translate(-375.57698,-233.779)"
         id="path504" />
    </clipPath>
    <clipPath
       clipPathUnits="userSpaceOnUse"
       id="clipPath506">
      <path
         d="M 0,841.89 H 595.281 V 0 H 0 Z"
         transform="translate(-382.92601,-241.10601)"
         id="path506" />
    </clipPath>
    <clipPath
       clipPathUnits="userSpaceOnUse"
       id="clipPath508">
      <path
         d="M 0,841.89 H 595.281 V 0 H 0 Z"
         transform="translate(-390.08603,-236.59801)"
         id="path508" />
    </clipPath>
    <clipPath
       clipPathUnits="userSpaceOnUse"
       id="clipPath510">
      <path
         d="M 0,841.89 H 595.281 V 0 H 0 Z"
         transform="translate(-393.27998,-240.13101)"
         id="path510" />
    </clipPath>
    <clipPath
       clipPathUnits="userSpaceOnUse"
       id="clipPath512">
      <path
         d="M 0,841.89 H 595.281 V 0 H 0 Z"
         transform="translate(-399.70201,-231.169)"
         id="path512" />
    </clipPath>
    <clipPath
       clipPathUnits="userSpaceOnUse"
       id="clipPath514">
      <path
         d="M 0,841.89 H 595.281 V 0 H 0 Z"
         transform="translate(-405.99699,-232.55101)"
         id="path514" />
    </clipPath>
    <clipPath
       clipPathUnits="userSpaceOnUse"
       id="clipPath516">
      <path
         d="M 0,841.89 H 595.281 V 0 H 0 Z"
         transform="translate(-410.38801,-226.72201)"
         id="path516" />
    </clipPath>
    <clipPath
       clipPathUnits="userSpaceOnUse"
       id="clipPath518">
      <path
         d="M 0,841.89 H 595.281 V 0 H 0 Z"
         transform="translate(-410.26899,-220.462)"
         id="path518" />
    </clipPath>
    <clipPath
       clipPathUnits="userSpaceOnUse"
       id="clipPath520">
      <path
         d="M 0,841.89 H 595.281 V 0 H 0 Z"
         transform="translate(-414.73299,-215.60401)"
         id="path520" />
    </clipPath>
    <clipPath
       clipPathUnits="userSpaceOnUse"
       id="clipPath522">
      <path
         d="M 0,841.89 H 595.281 V 0 H 0 Z"
         transform="translate(-370.58498,-195.651)"
         id="path522" />
    </clipPath>
    <clipPath
       clipPathUnits="userSpaceOnUse"
       id="clipPath524">
      <path
         d="M 0,841.89 H 595.281 V 0 H 0 Z"
         transform="translate(-372.55201,-189.15)"
         id="path524" />
    </clipPath>
    <clipPath
       clipPathUnits="userSpaceOnUse"
       id="clipPath526">
      <path
         d="M 0,841.89 H 595.281 V 0 H 0 Z"
         transform="translate(-374.13203,-191.076)"
         id="path526" />
    </clipPath>
    <clipPath
       clipPathUnits="userSpaceOnUse"
       id="clipPath528">
      <path
         d="M 0,841.89 H 595.281 V 0 H 0 Z"
         transform="translate(-377.65298,-191.443)"
         id="path528" />
    </clipPath>
    <clipPath
       clipPathUnits="userSpaceOnUse"
       id="clipPath530">
      <path
         d="M 0,841.89 H 595.281 V 0 H 0 Z"
         transform="translate(-396.26903,-191.14)"
         id="path530" />
    </clipPath>
    <clipPath
       clipPathUnits="userSpaceOnUse"
       id="clipPath532">
      <path
         d="M 0,841.89 H 595.281 V 0 H 0 Z"
         transform="translate(-400.68601,-192.14001)"
         id="path532" />
    </clipPath>
    <clipPath
       clipPathUnits="userSpaceOnUse"
       id="clipPath534">
      <path
         d="M 0,841.89 H 595.281 V 0 H 0 Z"
         transform="translate(-402.07299,-195.6)"
         id="path534" />
    </clipPath>
    <clipPath
       clipPathUnits="userSpaceOnUse"
       id="clipPath536">
      <path
         d="M 0,841.89 H 595.281 V 0 H 0 Z"
         transform="translate(-406.26699,-197.71101)"
         id="path536" />
    </clipPath>
    <clipPath
       clipPathUnits="userSpaceOnUse"
       id="clipPath538">
      <path
         d="M 0,841.89 H 595.281 V 0 H 0 Z"
         transform="translate(-384.04801,-185.74401)"
         id="path538" />
    </clipPath>
    <clipPath
       clipPathUnits="userSpaceOnUse"
       id="clipPath540">
      <path
         d="M 0,841.89 H 595.281 V 0 H 0 Z"
         transform="translate(-380.86898,-188.09001)"
         id="path540" />
    </clipPath>
    <clipPath
       clipPathUnits="userSpaceOnUse"
       id="clipPath542">
      <path
         d="M 0,841.89 H 595.281 V 0 H 0 Z"
         transform="translate(-383.88503,-188.773)"
         id="path542" />
    </clipPath>
    <clipPath
       clipPathUnits="userSpaceOnUse"
       id="clipPath544">
      <path
         d="M 0,841.89 H 595.281 V 0 H 0 Z"
         transform="translate(-389.65501,-183.891)"
         id="path544" />
    </clipPath>
    <clipPath
       clipPathUnits="userSpaceOnUse"
       id="clipPath546">
      <path
         d="M 0,841.89 H 595.281 V 0 H 0 Z"
         transform="translate(-390.54803,-186.723)"
         id="path546" />
    </clipPath>
    <clipPath
       clipPathUnits="userSpaceOnUse"
       id="clipPath548">
      <path
         d="M 0,841.89 H 595.281 V 0 H 0 Z"
         transform="translate(-391.62601,-186.94101)"
         id="path548" />
    </clipPath>
  </defs>
  <g
     inkscape:label="Layer 1"
     inkscape:groupmode="layer"
     id="layer1"
     transform="translate(-157.88671,-109.14198)">
    <path
       id="path485"
       d="m 0,0 c 0,-19.394 -15.725,-35.119 -35.12,-35.119 -19.397,0 -35.119,15.725 -35.119,35.119 0,19.397 15.722,35.121 35.119,35.121 C -15.725,35.121 0,19.397 0,0"
       style="fill:#ffffff;fill-opacity:1;fill-rule:nonzero;stroke:none"
       transform="matrix(1.2741483,0,0,-1.2741483,247.38161,153.89134)"
       clip-path="url(#clipPath486)" />
    <path
       id="path487"
       d="M 0,0 V 9.589 H -9.591 V 0 h -9.589 v -9.589 h 9.589 v -9.588 H 0 v 9.588 H 9.592 V 0 Z"
       style="fill:#ed1c24;fill-opacity:1;fill-rule:nonzero;stroke:none"
       transform="matrix(1.2741483,0,0,-1.2741483,208.74301,147.7818)"
       clip-path="url(#clipPath488)" />
    <path
       id="path489"
       d="m 0,0 c -10.8,0 -19.587,8.787 -19.587,19.587 0,10.8 8.787,19.587 19.587,19.587 10.8,0 19.586,-8.787 19.586,-19.587 C 19.586,8.787 10.8,0 0,0 m 19.854,19.587 c 0,10.948 -8.906,19.854 -19.854,19.854 -10.948,0 -19.854,-8.906 -19.854,-19.854 0,-10.948 8.906,-19.855 19.854,-19.855 10.948,0 19.854,8.907 19.854,19.855"
       style="fill:#64574b;fill-opacity:1;fill-rule:nonzero;stroke:none"
       transform="matrix(1.2741483,0,0,-1.2741483,202.63473,178.84682)"
       clip-path="url(#clipPath490)" />
    <path
       id="path491"
       d="m 0,0 c -17.945,0 -32.545,14.6 -32.545,32.545 0,17.946 14.6,32.545 32.545,32.545 17.945,0 32.544,-14.599 32.544,-32.545 C 32.544,14.6 17.945,0 0,0 m 0,65.826 c -18.351,0 -33.281,-14.93 -33.281,-33.281 0,-18.351 14.93,-33.281 33.281,-33.281 18.351,0 33.28,14.93 33.28,33.281 0,18.351 -14.929,33.281 -33.28,33.281"
       style="fill:#64574b;fill-opacity:1;fill-rule:nonzero;stroke:none"
       transform="matrix(1.2741483,0,0,-1.2741483,202.63473,195.35849)"
       clip-path="url(#clipPath492)" />
    <path
       id="path493"
       d="m 0,0 -0.121,-1.336 1.956,-1.757 c 0.19,-0.16 0.39,-0.329 0.607,-0.491 l -0.003,-0.028 -2.743,0.249 -0.098,-1.08 5.965,-0.539 0.098,1.079 -2.098,0.19 -0.588,0.597 2.887,1.435 0.115,1.274 -3.623,-1.876 z"
       style="fill:#64574b;fill-opacity:1;fill-rule:nonzero;stroke:none"
       transform="matrix(1.2741483,0,0,-1.2741483,165.95075,147.34734)"
       clip-path="url(#clipPath494)" />
    <path
       id="path495"
       d="M 0,0 -0.003,-0.008 C -0.326,-1.006 -1.467,-1.271 -2.6,-0.905 -3.732,-0.538 -4.546,0.323 -4.21,1.363 -3.873,2.402 -2.687,2.607 -1.613,2.259 -0.421,1.874 0.325,1.006 0,0 M -1.299,3.372 C -2.922,3.897 -4.5,3.324 -5.036,1.667 c -0.52,-1.605 0.364,-3.115 2.106,-3.679 1.665,-0.539 3.227,0.076 3.75,1.69 l 0.003,0.009 C 1.327,1.242 0.611,2.753 -1.299,3.372"
       style="fill:#64574b;fill-opacity:1;fill-rule:nonzero;stroke:none"
       transform="matrix(1.2741483,0,0,-1.2741483,173.6262,144.49452)"
       clip-path="url(#clipPath496)" />
    <path
       id="path497"
       d="m 0,0 -0.335,-0.555 -1.62,0.979 c 0.033,0.105 0.125,0.308 0.304,0.605 0.367,0.608 0.868,0.835 1.423,0.5 C 0.281,1.221 0.381,0.631 0,0 m 2.456,-2.24 -2.107,1.272 0.285,0.471 c 0.337,0.523 0.692,0.63 1.453,0.378 0.722,-0.249 1.217,-0.372 1.415,-0.388 L 4.081,0.451 C 3.824,0.472 3.148,0.693 2.408,0.912 1.841,1.088 1.35,1.084 0.988,0.794 L 0.965,0.808 c 0.127,0.588 -0.05,1.307 -0.712,1.707 -0.44,0.266 -0.895,0.322 -1.3,0.183 -0.5,-0.175 -0.921,-0.595 -1.367,-1.333 -0.325,-0.54 -0.592,-1.084 -0.739,-1.483 l 5.048,-3.05 z"
       style="fill:#64574b;fill-opacity:1;fill-rule:nonzero;stroke:none"
       transform="matrix(1.2741483,0,0,-1.2741483,173.70783,136.70818)"
       clip-path="url(#clipPath498)" />
    <path
       id="path499"
       d="m 0,0 -0.664,0.604 -1.696,-1.867 -1.302,1.183 1.518,1.669 -0.657,0.598 -1.518,-1.67 -1.144,1.04 1.608,1.768 -0.665,0.603 -2.342,-2.576 4.431,-4.027 z"
       style="fill:#64574b;fill-opacity:1;fill-rule:nonzero;stroke:none"
       transform="matrix(1.2741483,0,0,-1.2741483,182.48798,132.21934)"
       clip-path="url(#clipPath500)" />
    <path
       id="path501"
       d="m 0,0 c -0.122,0.35 -0.295,0.74 -0.427,1.073 l 0.015,0.01 C -0.137,0.854 0.182,0.582 0.489,0.354 L 1.735,-0.563 0.491,-1.465 Z m 1.41,-3.914 -0.578,1.676 1.539,1.115 1.434,-1.055 0.949,0.687 -5.087,3.706 -1.129,-0.818 1.959,-5.973 z"
       style="fill:#64574b;fill-opacity:1;fill-rule:nonzero;stroke:none"
       transform="matrix(1.2741483,0,0,-1.2741483,181.99736,126.14295)"
       clip-path="url(#clipPath502)" />
    <path
       id="path503"
       d="M 0,0 -0.813,1.98 C -1.188,2.892 -1.505,3.616 -1.84,4.313 l 0.029,0.022 c 0.528,-0.513 1.166,-1.037 1.769,-1.5 L 2.407,0.99 3.458,1.421 1.183,6.958 0.246,6.573 1.04,4.643 C 1.387,3.797 1.698,3.089 2.072,2.388 L 2.059,2.374 c -0.501,0.494 -1.093,1 -1.708,1.467 l -2.405,1.787 -1.158,-0.477 2.276,-5.536 z"
       style="fill:#64574b;fill-opacity:1;fill-rule:nonzero;stroke:none"
       transform="matrix(1.2741483,0,0,-1.2741483,189.81425,127.2782)"
       clip-path="url(#clipPath504)" />
    <path
       id="path505"
       d="M 0,0 C 0.708,0.064 1.187,-0.205 1.245,-0.851 1.299,-1.443 0.883,-1.873 0.149,-1.939 l -0.646,-0.059 -0.17,1.884 C -0.564,-0.078 -0.345,-0.031 0,0 m -0.203,-5.244 -0.222,2.45 0.549,0.049 c 0.62,0.039 0.917,-0.184 1.164,-0.946 0.227,-0.729 0.421,-1.202 0.525,-1.371 L 2.928,-4.96 C 2.792,-4.741 2.57,-4.065 2.309,-3.34 2.115,-2.778 1.821,-2.386 1.373,-2.266 l -0.002,0.027 c 0.548,0.246 1.023,0.815 0.953,1.584 C 2.278,-0.142 2.054,0.257 1.702,0.501 1.265,0.801 0.677,0.89 -0.181,0.812 -0.809,0.756 -1.405,0.648 -1.814,0.531 l 0.532,-5.873 z"
       style="fill:#64574b;fill-opacity:1;fill-rule:nonzero;stroke:none"
       transform="matrix(1.2741483,0,0,-1.2741483,199.17799,117.94253)"
       clip-path="url(#clipPath506)" />
    <path
       id="path507"
       d="m 0,0 -2.51,0.259 0.18,1.75 2.246,-0.232 0.09,0.885 -2.245,0.231 0.159,1.538 2.377,-0.245 0.092,0.893 -3.465,0.357 -0.613,-5.958 3.597,-0.371 z"
       style="fill:#64574b;fill-opacity:1;fill-rule:nonzero;stroke:none"
       transform="matrix(1.2741483,0,0,-1.2741483,208.30093,123.68638)"
       clip-path="url(#clipPath508)" />
    <path
       id="path509"
       d="M 0,0 C 0.163,-0.016 0.399,-0.066 0.728,-0.175 2.027,-0.606 2.512,-1.572 2.09,-2.817 1.612,-4.26 0.562,-4.745 -0.785,-4.289 c -0.211,0.07 -0.43,0.143 -0.565,0.215 z m 1.563,-5.114 c 0.702,0.31 1.297,0.947 1.635,1.968 0.319,0.961 0.207,1.756 -0.201,2.387 C 2.619,-0.146 1.966,0.313 0.904,0.665 0.288,0.869 -0.302,1.009 -0.792,1.086 l -1.85,-5.584 c 0.332,-0.156 0.777,-0.341 1.375,-0.54 1.105,-0.365 2.095,-0.403 2.83,-0.076"
       style="fill:#64574b;fill-opacity:1;fill-rule:nonzero;stroke:none"
       transform="matrix(1.2741483,0,0,-1.2741483,212.37052,119.18483)"
       clip-path="url(#clipPath510)" />
    <path
       id="path511"
       d="m 0,0 c 0.591,-0.426 1.136,-0.643 1.417,-0.692 l 0.36,0.803 C 1.466,0.181 1.04,0.379 0.686,0.634 -0.388,1.407 -0.52,2.531 0.249,3.599 1.089,4.766 2.25,4.873 3.237,4.161 3.634,3.875 3.896,3.555 4.054,3.289 L 4.75,3.86 C 4.638,4.083 4.31,4.495 3.726,4.915 2.241,5.985 0.433,5.831 -0.72,4.23 -1.784,2.752 -1.543,1.111 0,0"
       style="fill:#64574b;fill-opacity:1;fill-rule:nonzero;stroke:none"
       transform="matrix(1.2741483,0,0,-1.2741483,220.5531,130.60373)"
       clip-path="url(#clipPath512)" />
    <path
       id="path513"
       d="M 0,0 C 0.092,-0.061 0.261,-0.207 0.495,-0.463 0.974,-0.988 1.049,-1.532 0.57,-1.969 0.13,-2.37 -0.464,-2.299 -0.961,-1.754 l -0.436,0.479 z m -3.806,-3.472 1.818,1.658 0.371,-0.407 c 0.406,-0.471 0.408,-0.842 -0.05,-1.5 -0.444,-0.621 -0.703,-1.062 -0.774,-1.247 l 0.754,-0.827 c 0.092,0.241 0.497,0.826 0.916,1.473 0.331,0.494 0.466,0.966 0.291,1.395 l 0.02,0.018 c 0.527,-0.288 1.267,-0.322 1.838,0.199 0.381,0.347 0.564,0.766 0.546,1.194 -0.026,0.53 -0.31,1.052 -0.891,1.688 -0.425,0.466 -0.871,0.877 -1.212,1.131 l -4.357,-3.974 z"
       style="fill:#64574b;fill-opacity:1;fill-rule:nonzero;stroke:none"
       transform="matrix(1.2741483,0,0,-1.2741483,228.57384,128.84285)"
       clip-path="url(#clipPath514)" />
    <path
       id="path515"
       d="m 0,0 c 0.535,-0.953 -0.122,-1.963 -1.106,-2.515 -1.093,-0.613 -2.237,-0.572 -2.754,0.351 l -0.004,0.007 c -0.513,0.915 0.067,1.933 1.106,2.515 C -1.72,0.941 -0.535,0.954 0,0 m -4.653,-2.548 0.004,-0.008 c 0.8,-1.426 2.395,-1.927 4.147,-0.945 1.488,0.834 2.138,2.381 1.287,3.9 -0.826,1.473 -2.535,1.85 -4.132,0.954 -1.526,-0.856 -2.136,-2.421 -1.306,-3.901"
       style="fill:#64574b;fill-opacity:1;fill-rule:nonzero;stroke:none"
       transform="matrix(1.2741483,0,0,-1.2741483,234.16868,136.26989)"
       clip-path="url(#clipPath516)" />
    <path
       id="path517"
       d="m 0,0 c -0.048,-0.802 -0.218,-1.168 -0.652,-1.297 -0.469,-0.14 -0.895,0.142 -1.092,0.805 -0.16,0.537 -0.144,1.107 -0.048,1.497 l -0.939,-0.02 c -0.093,-0.371 -0.076,-1.051 0.106,-1.664 0.439,-1.473 1.438,-1.936 2.366,-1.66 0.818,0.243 1.178,0.87 1.265,1.98 0.061,0.853 0.167,1.246 0.61,1.377 0.34,0.102 0.773,-0.076 0.97,-0.74 0.16,-0.536 0.118,-0.984 0.07,-1.23 l 0.925,0.006 C 3.637,-0.604 3.639,-0.113 3.454,0.509 3.082,1.76 2.142,2.333 1.197,2.052 0.379,1.809 0.048,1.052 0,0"
       style="fill:#64574b;fill-opacity:1;fill-rule:nonzero;stroke:none"
       transform="matrix(1.2741483,0,0,-1.2741483,234.01702,144.24606)"
       clip-path="url(#clipPath518)" />
    <path
       id="path519"
       d="M 0,0 C -0.133,1.299 -0.949,2.037 -1.93,1.937 -2.779,1.85 -3.245,1.168 -3.488,0.144 -3.686,-0.636 -3.919,-0.963 -4.371,-1.01 -4.856,-1.059 -5.223,-0.704 -5.294,-0.014 -5.351,0.542 -5.229,1.1 -5.061,1.465 L -5.988,1.62 c -0.161,-0.347 -0.27,-1.018 -0.205,-1.655 0.156,-1.528 1.052,-2.17 2.015,-2.071 0.849,0.087 1.319,0.635 1.611,1.71 0.219,0.826 0.396,1.192 0.856,1.239 0.353,0.036 0.745,-0.218 0.816,-0.907 0.057,-0.557 -0.069,-0.99 -0.161,-1.223 l 0.91,-0.165 C -0.027,-1.128 0.066,-0.645 0,0"
       style="fill:#64574b;fill-opacity:1;fill-rule:nonzero;stroke:none"
       transform="matrix(1.2741483,0,0,-1.2741483,239.70482,150.43586)"
       clip-path="url(#clipPath520)" />
    <path
       id="path521"
       d="m 0,0 -1.388,-1.296 -0.571,0.612 1.389,1.296 -0.746,0.8 -3.196,-2.98 -1.519,1.63 2.62,2.444 1.085,-1.165 0.575,0.537 -1.831,1.963 -3.353,-3.128 C -7.177,0.487 -7.167,0.126 -6.968,-0.088 l 1.882,-2.016 -1.416,-1.321 0.746,-0.8 3.223,3.007 0.572,-0.613 -3.223,-3.007 0.744,-0.8 5.186,4.838 z"
       style="fill:#64574b;fill-opacity:1;fill-rule:nonzero;stroke:none"
       transform="matrix(1.2741483,0,0,-1.2741483,183.45369,175.85892)"
       clip-path="url(#clipPath522)" />
    <path
       id="path523"
       d="M 0,0 -0.983,0.477 -1.959,-1.532 C -2.102,-1.828 -1.963,-2.161 -1.7,-2.289 l 3.843,-1.865 0.342,0.706 -3.365,1.635 z"
       style="fill:#64574b;fill-opacity:1;fill-rule:nonzero;stroke:none"
       transform="matrix(1.2741483,0,0,-1.2741483,185.96,184.14217)"
       clip-path="url(#clipPath524)" />
    <path
       id="path525"
       d="m 0,0 c -0.249,-0.512 -0.812,-0.751 -1.259,-0.535 -0.442,0.216 -0.604,0.806 -0.356,1.319 0.25,0.513 0.815,0.752 1.259,0.537 C 0.089,1.104 0.25,0.514 0,0 M 1.965,1.124 0.5,1.835 0.824,2.5 -0.158,2.978 -0.481,2.312 -1.945,3.022 -2.289,2.316 -1.747,2.053 C -2.082,1.891 -2.374,1.604 -2.552,1.24 -2.999,0.319 -2.578,-0.806 -1.617,-1.273 -0.653,-1.742 0.49,-1.375 0.937,-0.455 1.114,-0.089 1.16,0.316 1.078,0.681 L 1.622,0.416 Z"
       style="fill:#64574b;fill-opacity:1;fill-rule:nonzero;stroke:none"
       transform="matrix(1.2741483,0,0,-1.2741483,187.97316,181.68816)"
       clip-path="url(#clipPath526)" />
    <path
       id="path527"
       d="m 0,0 -0.984,0.477 -2.053,-4.226 0.984,-0.478 1.045,2.151 0.919,-0.446 0.342,0.705 -0.92,0.446 z"
       style="fill:#64574b;fill-opacity:1;fill-rule:nonzero;stroke:none"
       transform="matrix(1.2741483,0,0,-1.2741483,192.4594,181.22054)"
       clip-path="url(#clipPath528)" />
    <path
       id="path529"
       d="m 0,0 -0.25,0.477 1.244,0.65 -0.365,0.694 -3.516,-1.845 0.364,-0.694 1.24,0.653 0.25,-0.477 c 0.459,-0.877 0.463,-2.286 -0.078,-3.326 l 0.718,-0.299 c 0,0 0.653,1.182 0.733,2.26 0.936,-0.544 2.28,-0.68 2.28,-0.68 l 0.16,0.761 C 1.615,-1.681 0.46,-0.877 0,0"
       style="fill:#64574b;fill-opacity:1;fill-rule:nonzero;stroke:none"
       transform="matrix(1.2741483,0,0,-1.2741483,216.17901,181.60664)"
       clip-path="url(#clipPath530)" />
    <path
       id="path531"
       d="m 0,0 -0.366,0.695 -1.03,-0.541 -0.791,1.507 -0.966,-0.507 3.294,-6.28 0.967,0.507 -2.139,4.077 z"
       style="fill:#64574b;fill-opacity:1;fill-rule:nonzero;stroke:none"
       transform="matrix(1.2741483,0,0,-1.2741483,221.80689,180.33249)"
       clip-path="url(#clipPath532)" />
    <path
       id="path533"
       d="M 0,0 -0.645,0.611 -1.447,-0.238 -0.8,-0.849 c 1.595,-1.506 1.369,-3.468 1.369,-3.468 l 0.726,-0.048 c 0,0 0.263,1.259 -0.087,2.422 1.18,-0.285 2.423,0.05 2.423,0.05 L 3.542,-1.172 C 3.542,-1.172 1.596,-1.509 0,0"
       style="fill:#64574b;fill-opacity:1;fill-rule:nonzero;stroke:none"
       transform="matrix(1.2741483,0,0,-1.2741483,223.57409,175.92394)"
       clip-path="url(#clipPath534)" />
    <path
       id="path535"
       d="M 0,0 -0.572,0.54 -1.371,-0.306 -2.608,0.863 -3.359,0.067 1.795,-4.803 2.547,-4.008 -0.8,-0.846 Z"
       style="fill:#64574b;fill-opacity:1;fill-rule:nonzero;stroke:none"
       transform="matrix(1.2741483,0,0,-1.2741483,228.91786,173.23419)"
       clip-path="url(#clipPath536)" />
    <path
       id="path537"
       d="m 0,0 -4.312,0.537 -0.097,-0.78 3.787,-0.471 -0.239,-1.921 1.083,-0.135 0.267,2.137 C 0.53,-0.305 0.29,-0.036 0,0"
       style="fill:#64574b;fill-opacity:1;fill-rule:nonzero;stroke:none"
       transform="matrix(1.2741483,0,0,-1.2741483,200.6076,188.48191)"
       clip-path="url(#clipPath538)" />
    <path
       id="path539"
       d="m 0,0 c 0.404,-0.667 1.11,-1.312 1.578,-1.555 l 0.445,0.493 C 1.268,-0.495 0.634,0.346 0.755,1.323 L 0.786,1.569 2.107,1.404 2.204,2.181 -1.599,2.653 -1.694,1.877 -0.374,1.713 -0.406,1.467 C -0.526,0.491 -1.35,-0.169 -2.219,-0.534 L -1.912,-1.12 C -1.396,-1.001 -0.554,-0.548 0,0"
       style="fill:#64574b;fill-opacity:1;fill-rule:nonzero;stroke:none"
       transform="matrix(1.2741483,0,0,-1.2741483,196.55704,185.49279)"
       clip-path="url(#clipPath540)" />
    <path
       id="path541"
       d="M 0,0 -1.228,0.153 -1.324,-0.627 -0.098,-0.779 -0.317,-2.541 0.767,-2.676 1.254,1.241 0.17,1.375 Z"
       style="fill:#64574b;fill-opacity:1;fill-rule:nonzero;stroke:none"
       transform="matrix(1.2741483,0,0,-1.2741483,200.39996,184.62253)"
       clip-path="url(#clipPath542)" />
    <path
       id="path543"
       d="M 0,0 -0.141,0.706 2.346,1.204 2.488,0.497 Z M 2.051,2.683 2.203,1.92 -0.283,1.422 -0.437,2.186 -1.506,1.973 -1.039,-0.372 c 0.054,-0.261 0.317,-0.514 0.665,-0.445 l 4.075,0.814 -0.579,2.9 z"
       style="fill:#64574b;fill-opacity:1;fill-rule:nonzero;stroke:none"
       transform="matrix(1.2741483,0,0,-1.2741483,207.75176,190.84292)"
       clip-path="url(#clipPath544)" />
    <path
       id="path545"
       d="m 0,0 0.277,0.611 c -0.991,0.355 -1.9,1.245 -2.115,2.316 L -1.947,3.471 -3.091,3.242 -2.982,2.699 C -2.768,1.627 -3.268,0.455 -4.045,-0.253 l 0.49,-0.456 c 0.504,0.354 1.166,1.033 1.491,1.788 C -1.474,0.506 -0.6,0.134 0,0"
       style="fill:#64574b;fill-opacity:1;fill-rule:nonzero;stroke:none"
       transform="matrix(1.2741483,0,0,-1.2741483,208.88958,187.23452)"
       clip-path="url(#clipPath546)" />
    <path
       id="path547"
       d="M 0,0 1.073,0.215 0.333,3.923 -0.74,3.708 Z"
       style="fill:#64574b;fill-opacity:1;fill-rule:nonzero;stroke:none"
       transform="matrix(1.2741483,0,0,-1.2741483,210.26309,186.95678)"
       clip-path="url(#clipPath548)" />
  </g>
</svg>
