<?xml version="1.0" encoding="UTF-8" standalone="no"?>
<!-- Created with Inkscape (http://www.inkscape.org/) -->

<svg
   width="134.35526mm"
   height="26.0767mm"
   viewBox="0 0 134.35525 26.076699"
   version="1.1"
   id="svg1"
   xmlns:inkscape="http://www.inkscape.org/namespaces/inkscape"
   xmlns:sodipodi="http://sodipodi.sourceforge.net/DTD/sodipodi-0.dtd"
   xmlns="http://www.w3.org/2000/svg"
   xmlns:svg="http://www.w3.org/2000/svg">
  <sodipodi:namedview
     id="namedview1"
     pagecolor="#ffffff"
     bordercolor="#666666"
     borderopacity="1.0"
     inkscape:showpageshadow="2"
     inkscape:pageopacity="0.0"
     inkscape:pagecheckerboard="0"
     inkscape:deskcolor="#d1d1d1"
     inkscape:document-units="mm" />
  <defs
     id="defs1">
    <clipPath
       clipPathUnits="userSpaceOnUse"
       id="clipPath456">
      <path
         d="M 0,841.89 H 595.281 V 0 H 0 Z"
         transform="translate(-204.57203,-218.72701)"
         id="path456" />
    </clipPath>
    <clipPath
       clipPathUnits="userSpaceOnUse"
       id="clipPath458">
      <path
         d="M 0,841.89 H 595.281 V 0 H 0 Z"
         transform="translate(-230.59501,-220.76601)"
         id="path458" />
    </clipPath>
    <clipPath
       clipPathUnits="userSpaceOnUse"
       id="clipPath460">
      <path
         d="M 0,841.89 H 595.281 V 0 H 0 Z"
         transform="translate(-240.34103,-211.83601)"
         id="path460" />
    </clipPath>
    <clipPath
       clipPathUnits="userSpaceOnUse"
       id="clipPath462">
      <path
         d="M 0,841.89 H 595.281 V 0 H 0 Z"
         transform="translate(-261.30098,-206.008)"
         id="path462" />
    </clipPath>
    <clipPath
       clipPathUnits="userSpaceOnUse"
       id="clipPath464">
      <path
         d="M 0,841.89 H 595.281 V 0 H 0 Z"
         transform="translate(-237.81301,-216.87801)"
         id="path464" />
    </clipPath>
    <clipPath
       clipPathUnits="userSpaceOnUse"
       id="clipPath466">
      <path
         d="M 0,841.89 H 595.281 V 0 H 0 Z"
         transform="translate(-247.80301,-217.59501)"
         id="path466" />
    </clipPath>
    <clipPath
       clipPathUnits="userSpaceOnUse"
       id="clipPath468">
      <path
         d="M 0,841.89 H 595.281 V 0 H 0 Z"
         transform="translate(-286.89803,-218.01901)"
         id="path468" />
    </clipPath>
    <clipPath
       clipPathUnits="userSpaceOnUse"
       id="clipPath470">
      <path
         d="M 0,841.89 H 595.281 V 0 H 0 Z"
         transform="translate(-293.58301,-217.225)"
         id="path470" />
    </clipPath>
    <clipPath
       clipPathUnits="userSpaceOnUse"
       id="clipPath472">
      <path
         d="M 0,841.89 H 595.281 V 0 H 0 Z"
         transform="translate(-301.91003,-218.914)"
         id="path472" />
    </clipPath>
    <clipPath
       clipPathUnits="userSpaceOnUse"
       id="clipPath474">
      <path
         d="M 0,841.89 H 595.281 V 0 H 0 Z"
         transform="translate(-311.09498,-217.225)"
         id="path474" />
    </clipPath>
    <clipPath
       clipPathUnits="userSpaceOnUse"
       id="clipPath476">
      <path
         d="M 0,841.89 H 595.281 V 0 H 0 Z"
         id="path476" />
    </clipPath>
    <clipPath
       clipPathUnits="userSpaceOnUse"
       id="clipPath478">
      <path
         d="M 0,841.89 H 595.281 V 0 H 0 Z"
         transform="translate(-270.30901,-215.93401)"
         id="path478" />
    </clipPath>
    <clipPath
       clipPathUnits="userSpaceOnUse"
       id="clipPath480">
      <path
         d="M 0,841.89 H 595.281 V 0 H 0 Z"
         id="path480" />
    </clipPath>
    <clipPath
       clipPathUnits="userSpaceOnUse"
       id="clipPath482">
      <path
         d="M 0,841.89 H 595.281 V 0 H 0 Z"
         transform="translate(-255.23401,-215.69601)"
         id="path482" />
    </clipPath>
    <clipPath
       clipPathUnits="userSpaceOnUse"
       id="clipPath484">
      <path
         d="M 0,841.89 H 595.281 V 0 H 0 Z"
         transform="translate(-261.28501,-220.76601)"
         id="path484" />
    </clipPath>
  </defs>
  <g
     inkscape:label="Layer 1"
     inkscape:groupmode="layer"
     id="layer1"
     transform="translate(-87.400776,-165.39238)">
    <path
       id="path455"
       d="M 0,0 V 7.913 H -7.915 V 0 h -7.914 v -7.917 h 7.914 v -7.917 H 0 v 7.917 H 7.92 V 0 Z"
       style="fill:#ed1c24;fill-opacity:1;fill-rule:nonzero;stroke:none"
       transform="matrix(1.098105,0,0,-1.098105,104.78268,174.08168)"
       clip-path="url(#clipPath456)" />
    <path
       id="path457"
       d="M 0,0 V -3.951 H -1.744 V 0 H -4.02 v -9.09 h -4.637 v 7.454 h 3.311 V 0 h -5.584 v -9.542 c 0,-0.689 0.562,-1.187 1.174,-1.187 l 5.736,0.003 v -4.03 h 2.276 v 9.172 H 0 v -9.172 H 2.273 V 0 Z"
       style="fill:#64574b;fill-opacity:1;fill-rule:nonzero;stroke:none"
       transform="matrix(1.098105,0,0,-1.098105,133.35862,171.84264)"
       clip-path="url(#clipPath458)" />
    <path
       id="path459"
       d="m 0,0 h -2.272 v -4.644 c 0,-0.687 0.563,-1.183 1.172,-1.183 h 8.886 v 1.635 H 0 Z"
       style="fill:#64574b;fill-opacity:1;fill-rule:nonzero;stroke:none"
       transform="matrix(1.098105,0,0,-1.098105,144.06078,181.64871)"
       clip-path="url(#clipPath460)" />
    <path
       id="path461"
       d="m 0,0 h 2.273 v 4.48 c 0,0.687 -0.564,1.184 -1.172,1.184 H -7.942 V 4.029 H 0 Z"
       style="fill:#64574b;fill-opacity:1;fill-rule:nonzero;stroke:none"
       transform="matrix(1.098105,0,0,-1.098105,167.07702,188.04846)"
       clip-path="url(#clipPath462)" />
    <path
       id="path463"
       d="M 0,0 C 0,1.189 0.838,2.147 1.865,2.147 2.896,2.147 3.733,1.189 3.733,0 3.733,-1.184 2.896,-2.145 1.865,-2.145 0.838,-2.145 0,-1.184 0,0 m 5.901,0 c 0,0.845 -0.284,1.647 -0.768,2.254 H 6.39 V 3.889 H 3.002 v 1.54 H 0.73 V 3.889 H -2.655 V 2.254 h 1.253 C -1.882,1.647 -2.17,0.845 -2.17,0 c 0,-2.128 1.809,-3.852 4.035,-3.852 2.229,0 4.036,1.724 4.036,3.852"
       style="fill:#64574b;fill-opacity:1;fill-rule:nonzero;stroke:none"
       transform="matrix(1.098105,0,0,-1.098105,141.28474,176.11209)"
       clip-path="url(#clipPath464)" />
    <path
       id="path465"
       d="M 0,0 V 3.171 H -2.276 V -6.608 H 0 v 4.977 H 2.126 V 0 Z"
       style="fill:#64574b;fill-opacity:1;fill-rule:nonzero;stroke:none"
       transform="matrix(1.098105,0,0,-1.098105,152.25481,175.32474)"
       clip-path="url(#clipPath466)" />
    <path
       id="path467"
       d="m 0,0 v 1.117 h 2.922 v 1.63 h -8.263 v -1.63 h 2.916 V 0 c 0,-2.06 -1.357,-4.661 -3.357,-6.052 l 1.03,-1.248 c 0,0 2.344,1.55 3.538,3.458 C -0.017,-5.75 2.328,-7.3 2.328,-7.3 l 1.029,1.248 C 1.354,-4.661 0,-2.06 0,0"
       style="fill:#64574b;fill-opacity:1;fill-rule:nonzero;stroke:none"
       transform="matrix(1.098105,0,0,-1.098105,195.18526,174.85914)"
       clip-path="url(#clipPath468)" />
    <path
       id="path469"
       d="M 0,0 V 3.54 H -2.272 V -11.216 H 0 v 9.581 H 2.422 V 0 Z"
       style="fill:#64574b;fill-opacity:1;fill-rule:nonzero;stroke:none"
       transform="matrix(1.098105,0,0,-1.098105,202.52608,175.73105)"
       clip-path="url(#clipPath470)" />
    <path
       id="path471"
       d="M 0,0 V 1.852 H -2.429 V 0 c 0,-4.566 -3.286,-7.029 -3.286,-7.029 l 0.96,-1.166 c 0,0 2.28,1.402 3.543,3.594 1.254,-2.192 3.535,-3.594 3.535,-3.594 l 0.964,1.166 C 3.287,-7.029 0,-4.566 0,0"
       style="fill:#64574b;fill-opacity:1;fill-rule:nonzero;stroke:none"
       transform="matrix(1.098105,0,0,-1.098105,211.67002,173.87633)"
       clip-path="url(#clipPath472)" />
    <path
       id="path473"
       d="m 0,0 h -2.422 v 3.54 h -2.274 v -14.756 h 2.274 v 9.581 H 0 Z"
       style="fill:#64574b;fill-opacity:1;fill-rule:nonzero;stroke:none"
       transform="matrix(1.098105,0,0,-1.098105,221.75604,175.73105)"
       clip-path="url(#clipPath474)" />
    <path
       id="path475"
       d="m 276.381,207.477 h -5.276 v 1.499 h 5.276 z m 0,4.638 v -1.62 h -5.277 v 1.62 h -2.269 v -4.973 c 0,-0.554 0.436,-1.181 1.173,-1.181 h 8.645 v 6.154 z"
       style="fill:#64574b;fill-opacity:1;fill-rule:nonzero;stroke:none"
       transform="matrix(1.098105,0,0,-1.098105,-119.85891,414.26691)"
       clip-path="url(#clipPath476)" />
    <path
       id="path477"
       d="m 0,0 c 0.97,-1.408 2.601,-2.523 3.771,-3.042 l 0.815,1.131 C 2.71,-0.783 1.214,1.406 1.214,3.679 V 4.832 H -1.213 V 3.679 c 0,-2.273 -1.496,-4.462 -3.37,-5.59 L -3.77,-3.042 C -2.598,-2.523 -0.97,-1.408 0,0"
       style="fill:#64574b;fill-opacity:1;fill-rule:nonzero;stroke:none"
       transform="matrix(1.098105,0,0,-1.098105,176.96878,177.14869)"
       clip-path="url(#clipPath478)" />
    <path
       id="path479"
       d="m 278.647,220.766 h -2.274 v -7.869 h 2.274 z"
       style="fill:#64574b;fill-opacity:1;fill-rule:nonzero;stroke:none"
       transform="matrix(1.098105,0,0,-1.098105,-119.85891,414.26691)"
       clip-path="url(#clipPath480)" />
    <path
       id="path481"
       d="m 0,0 c 1.005,-1.274 2.63,-2.426 3.66,-2.803 l 0.793,1.131 C 2.745,-0.696 1.218,0.878 1.218,2.925 V 3.442 H 3.993 V 5.07 H -3.981 V 3.442 h 2.768 V 2.925 c 0,-2.047 -1.53,-3.621 -3.233,-4.597 l 0.787,-1.131 C -2.625,-2.426 -1.004,-1.274 0,0"
       style="fill:#64574b;fill-opacity:1;fill-rule:nonzero;stroke:none"
       transform="matrix(1.098105,0,0,-1.098105,160.41482,177.41002)"
       clip-path="url(#clipPath482)" />
    <path
       id="path483"
       d="M 0,0 V -2.884 H -2.571 V -4.518 H 0 V -8.212 H 2.273 V 0 Z"
       style="fill:#64574b;fill-opacity:1;fill-rule:nonzero;stroke:none"
       transform="matrix(1.098105,0,0,-1.098105,167.05946,171.84264)"
       clip-path="url(#clipPath484)" />
  </g>
</svg>
