<svg xmlns="http://www.w3.org/2000/svg" width="1000.000884508438" height="140.025010509039" viewBox="0 0 264.58356 37.048283"><defs><clipPath id="A"><path d="M0 0h1201.89v841.89H0z"/></clipPath></defs><path d="M24.944086 12.346616V.00000143H12.47309884V12.346616H.00000367v12.34872258h12.47309517v12.3529386H24.944086v-12.3529386h12.48152721V12.346616z" fill="#e61d25"/><g clip-path="url(#A)" transform="matrix(2.10801 0 0 -2.10801 -495.1313539999999 188.64247500000002)" fill="#696254"><path d="M257.4026 84.7587h1.743v-4.428h.043l.7 1.045 2.515 3.383h2.17l-3.314-4.099 3.529-5.525h-2.056l-2.731 4.411-.856-1.029v-3.382h-1.743zm14.2142-6.0846c0-2.56-1.8-3.699-3.572-3.699-1.972 0-3.484 1.359-3.484 3.586 0 2.284 1.498 3.682 3.598 3.682 2.072 0 3.458-1.455 3.458-3.569m-5.241-.071c0-1.343.655-2.359 1.725-2.359 1.001 0 1.703.989 1.703 2.387 0 1.085-.488 2.329-1.686 2.329-1.245 0-1.742-1.202-1.742-2.357m6.3271 1.242l-.057 2.244h1.528l.059-1.329h.055c.342.986 1.157 1.483 1.9 1.483.171 0 .271-.011.412-.04v-1.659c-.141.03-.299.059-.513.059-.842 0-1.414-.546-1.571-1.329-.029-.159-.057-.342-.057-.543v-3.597h-1.756zm6.1262-1.7282c.044-1.259 1.029-1.803 2.144-1.803.815 0 1.399.12 1.927.315l.258-1.211c-.6-.244-1.428-.442-2.426-.442-2.26 0-3.586 1.4-3.586 3.528 0 1.928 1.171 3.738 3.397 3.738 2.272 0 3.003-1.853 3.003-3.383 0-.328-.028-.585-.058-.742zm3.06 1.228c.014.644-.273 1.698-1.446 1.698-1.086 0-1.54-.985-1.614-1.698zm8.3965-2.5421c0-.628.029-1.243.099-1.668h-1.585l-.115.769h-.042c-.427-.545-1.157-.928-2.055-.928-1.402 0-2.187 1.012-2.187 2.069 0 1.759 1.557 2.647 4.128 2.627v.117c0 .455-.186 1.214-1.413 1.214-.686 0-1.399-.214-1.87-.515l-.345 1.144c.515.311 1.415.611 2.514.611 2.229 0 2.871-1.411 2.871-2.927zm-1.714 1.728c-1.243.031-2.428-.244-2.428-1.299 0-.686.444-1.001.999-1.001.703 0 1.215.455 1.372.959.04.126.057.269.057.383zm3.5004 1.4848l-.059 2.075h1.544l.086-1.047h.043c.299.548 1.057 1.199 2.215 1.199 1.212 0 2.47-.783 2.47-2.983v-4.126h-1.757v3.925c0 .999-.371 1.758-1.327 1.758-.702 0-1.186-.498-1.374-1.027-.056-.158-.07-.375-.07-.572v-4.084h-1.771zm10.4846 4.6143c.657.113 1.641.202 2.658.202 1.386 0 2.326-.231 2.97-.774.528-.439.829-1.115.829-1.927 0-1.24-.842-2.085-1.741-2.415v-.042c.683-.259 1.099-.928 1.342-1.858l.755-2.682h-1.813c-.141.284-.371 1.069-.642 2.268-.271 1.256-.729 1.658-1.729 1.685h-.887v-3.953h-1.742zm1.742-4.258h1.044c1.187 0 1.93.63 1.93 1.59 0 1.054-.743 1.54-1.889 1.54-.554 0-.914-.044-1.085-.087zm7.5299-2.255c.042-1.259 1.027-1.803 2.141-1.803.814 0 1.402.12 1.929.315l.259-1.211c-.601-.244-1.43-.442-2.429-.442-2.259 0-3.586 1.4-3.586 3.528 0 1.928 1.171 3.738 3.399 3.738 2.273 0 3-1.853 3-3.383 0-.328-.029-.585-.057-.742zm3.057 1.228c.013.644-.273 1.698-1.444 1.698-1.085 0-1.543-.985-1.613-1.698zm9.4128 5.9309v-8.189l.057-1.953h-1.572l-.07 1.099h-.03c-.412-.774-1.255-1.258-2.27-1.258-1.658 0-2.971 1.413-2.971 3.555-.015 2.331 1.443 3.713 3.114 3.713.955 0 1.642-.401 1.955-.91h.032v3.943zm-1.755-6.089c0 .146-.016.316-.044.457-.158.687-.715 1.247-1.516 1.247-1.129 0-1.755-1.006-1.755-2.305 0-1.269.626-2.198 1.742-2.198.713 0 1.343.486 1.514 1.244.043.154.059.326.059.514zm12.8522-3.7682c-.412-.215-1.327-.443-2.483-.443-3.058 0-4.914 1.928-4.914 4.858 0 3.168 2.198 5.083 5.143 5.083 1.155 0 1.986-.243 2.341-.429l-.386-1.397c-.456.199-1.086.369-1.885.369-1.955 0-3.371-1.229-3.371-3.542 0-2.115 1.242-3.471 3.358-3.471.712 0 1.456.143 1.913.357zm1.3168 4.4265l-.057 2.244h1.527l.059-1.329h.057c.342.986 1.157 1.483 1.901 1.483.17 0 .269-.011.412-.04v-1.659c-.143.03-.299.059-.514.059-.844 0-1.414-.546-1.572-1.329-.028-.159-.056-.342-.056-.543v-3.597h-1.757zm11.9129-1.171c0-2.56-1.8-3.699-3.573-3.699-1.97 0-3.483 1.359-3.483 3.586 0 2.284 1.499 3.682 3.598 3.682 2.072 0 3.458-1.455 3.458-3.569m-5.244-.071c0-1.343.659-2.359 1.732-2.359.998 0 1.698.989 1.698 2.387 0 1.085-.488 2.329-1.685 2.329-1.244 0-1.745-1.202-1.745-2.357m6.5293-1.8587c.4-.241 1.158-.5 1.786-.5.771 0 1.115.312 1.115.772 0 .47-.288.717-1.144 1.015-1.357.472-1.928 1.212-1.914 2.026 0 1.233 1.013 2.186 2.629 2.186.77 0 1.44-.197 1.844-.413l-.344-1.241c-.302.171-.858.397-1.47.397-.631 0-.972-.299-.972-.73 0-.438.328-.655 1.213-.969 1.258-.453 1.841-1.099 1.857-2.128 0-1.255-.987-2.184-2.827-2.184-.844 0-1.602.211-2.116.5zm5.8858 0c.4-.241 1.157-.5 1.786-.5.771 0 1.112.312 1.112.772 0 .47-.285.717-1.143 1.015-1.355.472-1.926 1.212-1.911 2.026 0 1.233 1.012 2.186 2.628 2.186.77 0 1.441-.197 1.842-.413l-.343-1.241c-.3.171-.858.397-1.472.397-.627 0-.971-.299-.971-.73 0-.438.328-.655 1.213-.969 1.26-.453 1.844-1.099 1.857-2.128 0-1.255-.984-2.184-2.825-2.184-.845 0-1.604.211-2.115.5z"/></g></svg>