<?xml version="1.0" encoding="UTF-8" standalone="no"?>
<svg
   xmlns:dc="http://purl.org/dc/elements/1.1/"
   xmlns:cc="http://creativecommons.org/ns#"
   xmlns:rdf="http://www.w3.org/1999/02/22-rdf-syntax-ns#"
   xmlns:svg="http://www.w3.org/2000/svg"
   xmlns="http://www.w3.org/2000/svg"
   viewBox="0 0 167.13333 204.8"
   height="204.8"
   width="167.13333"
   xml:space="preserve"
   id="svg2"
   version="1.1"><metadata
     id="metadata8"><rdf:RDF><cc:Work
         rdf:about=""><dc:format>image/svg+xml</dc:format><dc:type
           rdf:resource="http://purl.org/dc/dcmitype/StillImage" /><dc:title></dc:title></cc:Work></rdf:RDF></metadata><defs
     id="defs6" /><g
     transform="matrix(1.3333333,0,0,-1.3333333,0,204.8)"
     id="g10"><g
       transform="scale(0.1)"
       id="g12"><path
         id="path14"
         style="fill:#ed192d;fill-opacity:1;fill-rule:nonzero;stroke:none"
         d="M 477.941,890.953 H 130.695 v 297.637 h 347.246 l -0.031,0.18 v 347.25 h 297.637 v -347.25 l -0.012,-0.13 H 1122.78 V 891 H 775.535 l 0.012,0.059 V 543.813 H 477.91 v 347.246 l 0.031,-0.106" /><path
         id="path16"
         style="fill:#231f20;fill-opacity:1;fill-rule:nonzero;stroke:none"
         d="m 36.3438,340.789 v -5.309 c 0,-16.902 4.7929,-27.75 23.9726,-27.75 11.1094,0 21.7109,7.059 21.7109,22.211 0,16.399 -8.332,22.457 -32.3046,30.789 -32.3047,11.102 -47.19926,24.481 -47.19926,54.508 0,35.082 21.44926,53 55.77736,53 32.3047,0 55.7772,-13.879 55.7772,-48.457 V 414.73 H 79.2461 c 0,16.918 -5.8047,26.758 -19.6875,26.758 -16.3984,0 -20.6914,-10.347 -20.6914,-20.949 0,-11.098 3.2812,-17.918 18.6758,-24.48 L 85.5547,383.941 C 112.813,372.09 119.883,358.199 119.883,336.25 119.883,298.141 96.6602,280.969 57.2891,280.969 16.1523,280.969 0,300.148 0,333.469 v 7.32 h 36.3438" /><path
         id="path18"
         style="fill:#231f20;fill-opacity:1;fill-rule:nonzero;stroke:none"
         d="m 185.996,304.691 c 14.133,0 18.676,13.887 18.676,47.707 0,33.821 -4.543,47.692 -18.676,47.692 -17.164,0 -18.676,-19.93 -18.676,-47.692 0,-27.769 1.512,-47.707 18.676,-47.707 z m 0,119.129 c 41.895,0.762 53.508,-24.23 53.508,-71.422 0,-46.437 -13.629,-71.429 -53.508,-71.429 -41.894,-0.75 -53.508,24.23 -53.508,71.429 0,46.43 13.629,71.422 53.508,71.422" /><path
         id="path20"
         style="fill:#231f20;fill-opacity:1;fill-rule:nonzero;stroke:none"
         d="m 327.82,300.41 h -0.5 c -7.32,-13.379 -19.937,-19.441 -34.578,-19.441 -21.703,0 -34.574,11.871 -34.574,38.621 v 100.699 h 34.828 V 326.66 c 0,-13.64 4.543,-18.93 14.891,-18.93 11.859,0 18.422,7.309 18.422,22.461 v 90.098 h 34.828 V 284.512 H 327.82 v 15.898" /><path
         id="path22"
         style="fill:#231f20;fill-opacity:1;fill-rule:nonzero;stroke:none"
         d="m 391.914,459.16 h 34.828 v -38.871 h 20.192 V 396.57 h -20.192 v -73.449 c 0,-10.601 2.274,-14.891 12.367,-14.891 2.778,0 5.555,0.25 7.825,0.508 v -24.226 c -7.571,-0.762 -14.637,-1.524 -22.715,-1.524 -27.254,0 -32.305,8.332 -32.305,35.84 v 77.742 h -17.668 v 23.719 h 17.668 v 38.871" /><path
         id="path24"
         style="fill:#231f20;fill-opacity:1;fill-rule:nonzero;stroke:none"
         d="m 459.043,464.699 h 34.824 V 406.41 h 0.508 c 6.563,11.602 18.422,17.41 33.063,17.41 21.703,0 34.574,-11.859 34.574,-38.609 V 284.512 h -34.828 v 93.629 c 0,13.629 -4.543,18.929 -14.887,18.929 -11.867,0 -18.43,-7.32 -18.43,-22.468 v -90.09 h -34.824 v 180.187" /><path
         id="path26"
         style="fill:#231f20;fill-opacity:1;fill-rule:nonzero;stroke:none"
         d="m 676.074,340.789 v -5.309 c 0,-16.902 4.793,-27.75 23.977,-27.75 11.105,0 21.707,7.059 21.707,22.211 0,16.399 -8.328,22.457 -32.305,30.789 -32.305,11.102 -47.195,24.481 -47.195,54.508 0,35.082 21.449,53 55.773,53 32.305,0 55.778,-13.879 55.778,-48.457 V 414.73 H 718.98 c 0,16.918 -5.804,26.758 -19.687,26.758 -16.402,0 -20.695,-10.347 -20.695,-20.949 0,-11.098 3.281,-17.918 18.675,-24.48 l 28.016,-12.118 c 27.254,-11.851 34.324,-25.742 34.324,-47.691 0,-38.109 -23.222,-55.281 -62.593,-55.281 -41.137,0 -57.29,19.179 -57.29,52.5 v 7.32 h 36.344" /><path
         id="path28"
         style="fill:#231f20;fill-opacity:1;fill-rule:nonzero;stroke:none"
         d="m 846.418,300.41 h -0.504 c -7.32,-13.379 -19.937,-19.441 -34.574,-19.441 -21.707,0 -34.578,11.871 -34.578,38.621 v 100.699 h 34.832 V 326.66 c 0,-13.64 4.539,-18.93 14.886,-18.93 11.86,0 18.422,7.309 18.422,22.461 v 90.098 H 879.73 V 284.512 h -33.312 v 15.898" /><path
         id="path30"
         style="fill:#231f20;fill-opacity:1;fill-rule:nonzero;stroke:none"
         d="m 952.66,307.73 c 15.399,0 18.426,15.141 18.426,44.668 0,29.532 -3.027,44.672 -18.426,44.672 -15.14,0 -18.168,-15.14 -18.168,-44.672 0,-29.527 3.028,-44.668 18.168,-44.668 z m 19.938,-8.839 h -0.504 c -7.574,-12.621 -17.16,-17.922 -30.789,-17.922 -28.524,0 -41.641,20.953 -41.641,71.429 0,50.481 13.117,71.422 41.641,71.422 13.125,0 21.957,-5.3 29.277,-16.148 h 0.504 v 57.027 h 34.824 V 284.512 h -33.312 v 14.379" /><path
         id="path32"
         style="fill:#231f20;fill-opacity:1;fill-rule:nonzero;stroke:none"
         d="m 1092.47,352.398 c -4.79,-3.539 -10.6,-5.796 -14.89,-6.816 -14.13,-3.031 -19.68,-9.844 -19.68,-21.953 0,-10.348 3.78,-18.938 13.12,-18.938 9.34,0 21.45,6.071 21.45,20.957 z m -63.6,26.25 v 3.282 c 0,31.289 21.45,41.89 47.7,41.89 41.39,0 49.22,-17.16 49.22,-41.64 v -71.418 c 0,-12.621 0.75,-18.434 4.29,-26.25 h -33.32 c -2.27,4.277 -3.28,9.59 -4.29,14.129 h -0.5 c -8.08,-14.129 -17.92,-17.672 -34.58,-17.672 -24.23,0 -32.81,20.703 -32.81,38.871 0,25.492 10.35,35.84 34.33,42.398 l 19.68,5.301 c 10.35,2.781 13.88,6.813 13.88,15.902 0,10.34 -4.54,16.649 -16.15,16.649 -10.6,0 -16.15,-7.059 -16.15,-17.66 v -3.782 h -31.3" /><path
         id="path34"
         style="fill:#231f20;fill-opacity:1;fill-rule:nonzero;stroke:none"
         d="m 1150.51,420.289 h 33.31 v -15.898 h 0.51 c 7.32,13.371 19.93,19.429 34.57,19.429 21.71,0 34.58,-11.859 34.58,-38.609 V 284.512 h -34.83 v 93.629 c 0,13.629 -4.54,18.929 -14.89,18.929 -11.87,0 -18.43,-7.32 -18.43,-22.468 v -90.09 h -34.82 v 135.777" /><path
         id="path36"
         style="fill:#231f20;fill-opacity:1;fill-rule:nonzero;stroke:none"
         d="M 49.5938,133.141 H 68.793 c 22.082,0 34.559,9.597 34.559,34.238 0,21.109 -11.1997,31.672 -32.0004,31.672 H 49.5938 Z M 3.51953,232.969 H 88.6328 c 37.7582,0 60.7972,-19.84 60.7972,-58.867 0,-30.403 -12.16,-50.883 -38.078,-56.321 v -0.652 c 31.359,-4.149 36.16,-21.4298 36.796,-69.7384 0.321,-24.0117 1.598,-36.4922 10.243,-40.96091 V 4.51172 H 108.473 C 103.988,10.8984 103.031,19.5508 102.711,28.5 L 101.43,72.3398 C 100.789,90.2617 92.793,101.141 74.2344,101.141 H 49.5938 V 4.51172 H 3.51953 V 232.969" /><path
         id="path38"
         style="fill:#231f20;fill-opacity:1;fill-rule:nonzero;stroke:none"
         d="m 263.031,110.102 c -0.961,26.23 -4.16,40.957 -22.394,40.957 -17.602,0 -22.723,-18.239 -22.723,-34.239 v -6.718 z M 217.914,83.8594 V 70.1016 c 0,-20.1524 5.441,-40 21.758,-40 14.723,0 20.801,11.1992 23.359,32.3281 h 39.68 c -1.602,-40 -20.801,-62.4101687 -62.398,-62.4101687 -63.997,0 -66.551,49.2812687 -66.551,92.1601687 0,46.0823 8.957,88.9613 68.472,88.9613 51.516,0 63.036,-34.559 63.036,-87.3597 v -9.9219 h -87.356" /><path
         id="path40"
         style="fill:#231f20;fill-opacity:1;fill-rule:nonzero;stroke:none"
         d="m 391.352,33.9414 c 19.515,0 23.359,19.1992 23.359,56.6367 0,37.4419 -3.844,56.6329 -23.359,56.6329 -19.2,0 -23.036,-19.191 -23.036,-56.6329 0,-37.4375 3.836,-56.6367 23.036,-56.6367 z M 416.633,22.75 h -0.641 C 406.391,6.73828 394.234,0.0195313 376.953,0.0195313 c -36.156,0 -52.793,26.5702687 -52.793,90.5585687 0,64.0039 16.637,90.5629 52.793,90.5629 16.641,0 27.836,-6.719 37.117,-20.481 h 0.641 v 72.309 h 44.156 V 4.51172 H 416.633 V 22.75" /><path
         id="path42"
         style="fill:#231f20;fill-opacity:1;fill-rule:nonzero;stroke:none"
         d="m 658.293,155.852 c 0,33.289 -6.727,47.679 -27.523,47.679 -23.36,0 -28.797,-23.359 -28.797,-87.992 0,-69.1171 9.597,-81.5976 29.437,-81.5976 16.641,0 28.801,8.6406 28.801,57.918 h 46.074 c 0,-49.2774 -12.16,-91.8398687 -72.633,-91.8398687 -69.117,0 -77.754,49.2812687 -77.754,118.7184687 0,69.434 8.637,118.711 77.754,118.711 65.914,0 70.711,-48.308 70.711,-81.597 h -46.07" /><path
         id="path44"
         style="fill:#231f20;fill-opacity:1;fill-rule:nonzero;stroke:none"
         d="m 731.25,176.66 h 42.242 v -23.039 h 0.641 c 8.957,16.641 21.433,27.52 39.672,27.52 2.562,0 5.441,-0.321 8.004,-0.653 v -42.226 c -4.485,0.316 -9.286,0.636 -13.762,0.636 -15.359,0 -32.637,-8.007 -32.637,-31.039 V 4.51172 H 731.25 V 176.66" /><path
         id="path46"
         style="fill:#231f20;fill-opacity:1;fill-rule:nonzero;stroke:none"
         d="m 899.887,30.1016 c 17.918,0 23.676,17.5976 23.676,60.4765 0,42.8829 -5.758,60.4809 -23.676,60.4809 -21.762,0 -23.68,-25.278 -23.68,-60.4809 0,-35.1875 1.918,-60.4765 23.68,-60.4765 z m 0,151.0394 c 53.117,0.949 67.832,-30.719 67.832,-90.5629 0,-58.8789 -17.281,-90.5585687 -67.832,-90.5585687 C 846.77,-0.929688 832.051,30.75 832.051,90.5781 c 0,58.8829 17.281,90.5629 67.836,90.5629" /><path
         id="path48"
         style="fill:#231f20;fill-opacity:1;fill-rule:nonzero;stroke:none"
         d="m 1023.73,60.832 v -5.7734 c 0,-15.0391 7.99,-24.957 23.03,-24.957 13.45,0 22.41,6.7187 22.41,20.4765 0,11.2032 -7.37,16.3203 -16.01,19.5235 l -31.04,11.1992 c -24.311,8.6406 -36.792,23.6792 -36.792,48.0002 0,28.48 17.922,51.84 63.362,51.84 39.99,0 58.87,-17.922 58.87,-48.969 v -7.031 h -39.68 c 0,17.281 -5.12,25.918 -19.52,25.918 -11.2,0 -20.8,-6.411 -20.8,-18.559 0,-8.328 4.49,-15.371 19.2,-20.16 l 26.56,-8.961 c 27.84,-9.2774 38.08,-23.3595 38.08,-49.2696 0,-36.168 -26.88,-54.0898687 -64,-54.0898687 -49.591,0 -63.353,21.7617687 -63.353,54.7187687 v 6.0937 h 39.683" /><path
         id="path50"
         style="fill:#231f20;fill-opacity:1;fill-rule:nonzero;stroke:none"
         d="m 1165.8,60.832 v -5.7734 c 0,-15.0391 8,-24.957 23.04,-24.957 13.44,0 22.4,6.7187 22.4,20.4765 0,11.2032 -7.36,16.3203 -16,19.5235 l -31.04,11.1992 c -24.32,8.6406 -36.8,23.6792 -36.8,48.0002 0,28.48 17.92,51.84 63.36,51.84 40,0 58.87,-17.922 58.87,-48.969 v -7.031 h -39.67 c 0,17.281 -5.12,25.918 -19.52,25.918 -11.2,0 -20.8,-6.411 -20.8,-18.559 0,-8.328 4.48,-15.371 19.2,-20.16 l 26.56,-8.961 c 27.84,-9.2774 38.08,-23.3595 38.08,-49.2696 0,-36.168 -26.88,-54.0898687 -64,-54.0898687 -49.6,0 -63.36,21.7617687 -63.36,54.7187687 v 6.0937 h 39.68" /></g></g></svg>