<?xml version="1.0" encoding="UTF-8" standalone="no"?>
<!-- Created with Inkscape (http://www.inkscape.org/) -->

<svg
   version="1.1"
   id="svg1"
   width="235.68668"
   height="161.95866"
   viewBox="0 0 235.68668 161.95866"
   sodipodi:docname="Suriname Red Cross Society.svg"
   inkscape:version="1.3.2 (091e20e, 2023-11-25, custom)"
   xmlns:inkscape="http://www.inkscape.org/namespaces/inkscape"
   xmlns:sodipodi="http://sodipodi.sourceforge.net/DTD/sodipodi-0.dtd"
   xmlns="http://www.w3.org/2000/svg"
   xmlns:svg="http://www.w3.org/2000/svg">
  <defs
     id="defs1">
    <clipPath
       clipPathUnits="userSpaceOnUse"
       id="clipPath4">
      <path
         d="M 0.059998,121.469 H 176.765 V 0.06 H 0.059998 Z"
         transform="translate(0,-10.240003)"
         id="path4" />
    </clipPath>
    <clipPath
       clipPathUnits="userSpaceOnUse"
       id="clipPath6">
      <path
         d="M 0.059998,121.469 H 176.765 V 0.06 H 0.059998 Z"
         transform="translate(-14.898,-4.4960001)"
         id="path6" />
    </clipPath>
    <clipPath
       clipPathUnits="userSpaceOnUse"
       id="clipPath9">
      <path
         d="M 0.059998,121.469 H 176.765 V 0.06 H 0.059998 Z"
         transform="translate(-27.637,-3.5729976)"
         id="path9" />
    </clipPath>
    <clipPath
       clipPathUnits="userSpaceOnUse"
       id="clipPath11">
      <path
         d="M 0.059998,121.469 H 176.765 V 0.06 H 0.059998 Z"
         transform="translate(-41.695001,-0.23900001)"
         id="path11" />
    </clipPath>
    <clipPath
       clipPathUnits="userSpaceOnUse"
       id="clipPath16">
      <path
         d="M 0.059998,121.469 H 176.765 V 0.06 H 0.059998 Z"
         transform="translate(-64.178002,-3.8669976)"
         id="path16" />
    </clipPath>
    <clipPath
       clipPathUnits="userSpaceOnUse"
       id="clipPath18">
      <path
         d="M 0.059998,121.469 H 176.765 V 0.06 H 0.059998 Z"
         transform="translate(-71.962002,-3.8669976)"
         id="path18" />
    </clipPath>
    <clipPath
       clipPathUnits="userSpaceOnUse"
       id="clipPath21">
      <path
         d="M 0.059998,121.469 H 176.765 V 0.06 H 0.059998 Z"
         transform="translate(-88.662002,-2.5640001)"
         id="path21" />
    </clipPath>
    <clipPath
       clipPathUnits="userSpaceOnUse"
       id="clipPath23">
      <path
         d="M 0.059998,121.469 H 176.765 V 0.06 H 0.059998 Z"
         transform="translate(-99.696002,-4.4960001)"
         id="path23" />
    </clipPath>
    <clipPath
       clipPathUnits="userSpaceOnUse"
       id="clipPath26">
      <path
         d="M 0.059998,121.469 H 176.765 V 0.06 H 0.059998 Z"
         transform="translate(-121.63401,-3.8669976)"
         id="path26" />
    </clipPath>
    <clipPath
       clipPathUnits="userSpaceOnUse"
       id="clipPath28">
      <path
         d="M 0.059998,121.469 H 176.765 V 0.06 H 0.059998 Z"
         transform="translate(-127.806,-1.3030025)"
         id="path28" />
    </clipPath>
    <clipPath
       clipPathUnits="userSpaceOnUse"
       id="clipPath30">
      <path
         d="M 0.059998,121.469 H 176.765 V 0.06 H 0.059998 Z"
         transform="translate(-138.08301,-4.4960001)"
         id="path30" />
    </clipPath>
    <clipPath
       clipPathUnits="userSpaceOnUse"
       id="clipPath34">
      <path
         d="M 0.059998,121.469 H 176.765 V 0.06 H 0.059998 Z"
         transform="translate(-165.66501,-0.23900001)"
         id="path34" />
    </clipPath>
    <clipPath
       clipPathUnits="userSpaceOnUse"
       id="clipPath37">
      <path
         d="M 0.059998,121.469 H 176.765 V 0.06 H 0.059998 Z"
         transform="translate(-171.918,-2.5640001)"
         id="path37" />
    </clipPath>
  </defs>
  <sodipodi:namedview
     id="namedview1"
     pagecolor="#ffffff"
     bordercolor="#666666"
     borderopacity="1.0"
     inkscape:showpageshadow="2"
     inkscape:pageopacity="0.0"
     inkscape:pagecheckerboard="0"
     inkscape:deskcolor="#d1d1d1"
     inkscape:zoom="3.9671314"
     inkscape:cx="117.84334"
     inkscape:cy="81.040925"
     inkscape:window-width="1920"
     inkscape:window-height="1017"
     inkscape:window-x="-8"
     inkscape:window-y="-8"
     inkscape:window-maximized="1"
     inkscape:current-layer="g1">
    <inkscape:page
       x="0"
       y="0"
       inkscape:label="1"
       id="page1"
       width="235.68668"
       height="161.95866"
       margin="0"
       bleed="0" />
  </sodipodi:namedview>
  <g
     id="g1"
     inkscape:groupmode="layer"
     inkscape:label="1">
    <g
       id="group-MC1">
      <path
         id="path2"
         d="M 0,0 H -34.725 V 29.764 H 0 l -0.003,0.018 V 64.507 H 29.76 V 29.782 L 29.759,29.769 H 64.484 V 0.005 H 29.759 L 29.76,0.011 V -34.714 H -0.003 V 0.011 L 0,0"
         style="fill:#ed192d;fill-opacity:1;fill-rule:nonzero;stroke:none"
         transform="matrix(1.3333333,0,0,-1.3333333,98.004,86.009333)" />
      <path
         id="path3"
         d="M 0,0 H 1.751 V -3.978 H 6.3037 V 0 H 8.0542 V -10.001 H 6.3037 v 4.51 H 1.751 v -4.51 H 0 L 0,0"
         style="fill:#231f20;fill-opacity:1;fill-rule:nonzero;stroke:none"
         transform="matrix(1.3333333,0,0,-1.3333333,0,148.30533)"
         clip-path="url(#clipPath4)" />
      <path
         id="path5"
         d="M 0,0 C -0.056,1.009 -0.742,1.92 -1.821,1.92 -2.927,1.92 -3.684,1.08 -3.726,0 Z m -3.726,-1.049 c 0,-1.135 0.617,-2.144 1.947,-2.144 0.925,0 1.485,0.406 1.765,1.205 h 1.513 c -0.35,-1.583 -1.695,-2.466 -3.278,-2.466 -2.269,0 -3.5437,1.583 -3.5437,3.811 0,2.058 1.3447,3.824 3.5017,3.824 2.283,0 3.684,-2.06 3.418,-4.23 h -5.323"
         style="fill:#231f20;fill-opacity:1;fill-rule:nonzero;stroke:none"
         transform="matrix(1.3333333,0,0,-1.3333333,19.864,155.964)"
         clip-path="url(#clipPath6)" />
      <path
         id="path7"
         d="M 0,0 H 1.205 V 2.171 H 2.802 V 0 H 4.245 V -1.192 H 2.802 v -3.865 c 0,-0.659 0.056,-0.995 0.77,-0.995 0.224,0 0.449,0 0.673,0.057 v -1.234 c -0.35,-0.027 -0.687,-0.084 -1.037,-0.084 -1.667,0 -1.975,0.645 -2.003,1.85 v 4.271 L 0,-1.192 V 0"
         style="fill:#231f20;fill-opacity:1;fill-rule:nonzero;stroke:none"
         transform="matrix(1.3333333,0,0,-1.3333333,22.641333,151.984)" />
      <path
         id="path8"
         d="m 0,0 c 0,-1.541 1.134,-2.144 2.535,-2.144 1.541,0 2.115,0.757 2.115,1.513 0,0.77 -0.42,1.079 -0.826,1.233 -0.7,0.266 -1.611,0.448 -2.984,0.826 -1.709,0.462 -2.213,1.499 -2.213,2.535 0,2.003 1.849,2.942 3.656,2.942 2.087,0 3.838,-1.107 3.838,-3.194 H 4.37 C 4.286,5.001 3.417,5.476 2.213,5.476 1.4,5.476 0.378,5.182 0.378,4.173 0.378,3.473 0.854,3.081 1.569,2.885 1.723,2.843 3.936,2.269 4.454,2.115 5.771,1.722 6.401,0.602 6.401,-0.435 6.401,-2.676 4.412,-3.573 2.423,-3.573 0.14,-3.573 -1.709,-2.48 -1.751,0 H 0"
         style="fill:#231f20;fill-opacity:1;fill-rule:nonzero;stroke:none"
         transform="matrix(1.3333333,0,0,-1.3333333,36.849333,157.19467)"
         clip-path="url(#clipPath9)" />
      <path
         id="path10"
         d="m 0,0 h -1.569 v 1.008 h -0.028 c -0.392,-0.728 -1.26,-1.205 -2.059,-1.205 -1.891,0 -2.703,0.953 -2.703,2.844 v 4.595 h 1.597 V 2.801 c 0,-1.275 0.518,-1.737 1.387,-1.737 1.33,0 1.778,0.855 1.778,1.976 V 7.242 L 0,7.242 V 0"
         style="fill:#231f20;fill-opacity:1;fill-rule:nonzero;stroke:none"
         transform="matrix(1.3333333,0,0,-1.3333333,55.593333,161.64)"
         clip-path="url(#clipPath11)" />
      <path
         id="path12"
         d="m 0,0 h 1.499 v -1.402 h 0.028 c 0.182,0.771 1.135,1.598 2.115,1.598 0.364,0 0.462,-0.028 0.603,-0.042 V -1.387 C 4.02,-1.36 3.782,-1.318 3.558,-1.318 2.465,-1.318 1.597,-2.199 1.597,-3.796 V -7.242 L 0,-7.242 V 0"
         style="fill:#231f20;fill-opacity:1;fill-rule:nonzero;stroke:none"
         transform="matrix(1.3333333,0,0,-1.3333333,57.828,151.984)" />
      <path
         id="path13"
         d="M 0,0 H 1.5972 V -7.242 H 0 Z M 0,2.759 H 1.5972 V 1.246 H 0 Z"
         style="fill:#231f20;fill-opacity:1;fill-rule:nonzero;stroke:none"
         transform="matrix(1.3333333,0,0,-1.3333333,64.454667,151.984)" />
      <path
         id="path14"
         d="m 0,0 h 1.513 v -1.065 l 0.028,-0.028 c 0.476,0.798 1.303,1.289 2.255,1.289 1.569,0 2.563,-0.841 2.563,-2.466 V -7.242 H 4.763 v 4.552 c -0.028,1.135 -0.476,1.625 -1.415,1.625 -1.065,0 -1.751,-0.84 -1.751,-1.905 V -7.242 L 0,-7.242 V 0"
         style="fill:#231f20;fill-opacity:1;fill-rule:nonzero;stroke:none"
         transform="matrix(1.3333333,0,0,-1.3333333,68.897333,151.984)" />
      <path
         id="path15"
         d="m 0,0 c -0.491,-0.323 -1.261,-0.309 -1.961,-0.435 -0.686,-0.111 -1.303,-0.364 -1.303,-1.204 0,-0.715 0.911,-0.925 1.471,-0.925 0.7,0 1.793,0.364 1.793,1.373 z m 1.597,-2.017 c 0,-0.393 0.084,-0.547 0.378,-0.547 0.098,0 0.224,0 0.392,0.028 V -3.642 C 2.129,-3.726 1.625,-3.825 1.358,-3.825 c -0.644,0 -1.106,0.225 -1.232,0.883 -0.63,-0.616 -1.653,-0.883 -2.507,-0.883 -1.303,0 -2.48,0.7 -2.48,2.116 0,1.806 1.443,2.101 2.788,2.254 1.148,0.211 2.171,0.084 2.171,1.024 0,0.826 -0.855,0.98 -1.499,0.98 -0.896,0 -1.527,-0.364 -1.597,-1.149 h -1.597 c 0.113,1.863 1.695,2.41 3.292,2.41 1.415,0 2.9,-0.575 2.9,-2.101 v -3.726"
         style="fill:#231f20;fill-opacity:1;fill-rule:nonzero;stroke:none"
         transform="matrix(1.3333333,0,0,-1.3333333,85.570667,156.80267)"
         clip-path="url(#clipPath16)" />
      <path
         id="path17"
         d="m 0,0 c -0.491,-0.323 -1.261,-0.309 -1.961,-0.435 -0.686,-0.111 -1.303,-0.364 -1.303,-1.204 0,-0.715 0.91,-0.925 1.471,-0.925 0.7,0 1.793,0.364 1.793,1.373 z m 1.597,-2.017 c 0,-0.393 0.084,-0.547 0.378,-0.547 0.098,0 0.224,0 0.392,0.028 V -3.642 C 2.129,-3.726 1.624,-3.825 1.358,-3.825 c -0.644,0 -1.106,0.225 -1.232,0.883 -0.63,-0.616 -1.653,-0.883 -2.507,-0.883 -1.303,0 -2.48,0.7 -2.48,2.116 0,1.806 1.443,2.101 2.788,2.254 1.148,0.211 2.171,0.084 2.171,1.024 0,0.826 -0.855,0.98 -1.499,0.98 -0.896,0 -1.527,-0.364 -1.597,-1.149 h -1.597 c 0.113,1.863 1.695,2.41 3.292,2.41 1.415,0 2.9,-0.575 2.9,-2.101 v -3.726"
         style="fill:#231f20;fill-opacity:1;fill-rule:nonzero;stroke:none"
         transform="matrix(1.3333333,0,0,-1.3333333,95.949333,156.80267)"
         clip-path="url(#clipPath18)" />
      <path
         id="path19"
         d="m 0,0 h 1.513 v -1.009 h 0.042 c 0.476,0.714 1.079,1.205 2.227,1.205 0.883,0 1.709,-0.379 2.031,-1.205 0.533,0.742 1.219,1.205 2.269,1.205 1.527,0 2.424,-0.673 2.424,-2.437 V -7.242 H 8.909 v 4.23 c 0,1.148 -0.07,1.947 -1.317,1.947 -1.078,0 -1.54,-0.715 -1.54,-1.933 V -7.242 H 4.454 v 4.65 c 0,0.995 -0.308,1.527 -1.274,1.527 -0.826,0 -1.583,-0.673 -1.583,-1.877 v -4.3 L 0,-7.242 V 0"
         style="fill:#231f20;fill-opacity:1;fill-rule:nonzero;stroke:none"
         transform="matrix(1.3333333,0,0,-1.3333333,100.36933,151.984)" />
      <path
         id="path20"
         d="m 0,0 c 0.084,-0.925 0.784,-1.261 1.639,-1.261 0.602,0 1.653,0.126 1.611,0.953 -0.042,0.84 -1.205,0.939 -2.367,1.204 -1.177,0.252 -2.325,0.673 -2.325,2.144 0,1.582 1.709,2.073 3.025,2.073 1.484,0 2.829,-0.617 3.025,-2.227 H 2.941 C 2.802,3.641 2.171,3.852 1.471,3.852 1.009,3.852 0.154,3.74 0.154,3.109 0.154,2.325 1.331,2.213 2.508,1.947 3.67,1.68 4.847,1.261 4.847,-0.168 c 0,-1.723 -1.738,-2.354 -3.236,-2.354 -1.821,0 -3.179,0.813 -3.208,2.522 L 0,0"
         style="fill:#231f20;fill-opacity:1;fill-rule:nonzero;stroke:none"
         transform="matrix(1.3333333,0,0,-1.3333333,118.216,158.54)"
         clip-path="url(#clipPath21)" />
      <path
         id="path22"
         d="M 0,0 C -0.057,1.009 -0.743,1.92 -1.821,1.92 -2.928,1.92 -3.685,1.08 -3.727,0 Z m -3.727,-1.049 c 0,-1.135 0.617,-2.144 1.948,-2.144 0.925,0 1.484,0.406 1.764,1.205 h 1.513 c -0.35,-1.583 -1.694,-2.466 -3.277,-2.466 -2.27,0 -3.544,1.583 -3.544,3.811 0,2.058 1.345,3.824 3.502,3.824 2.283,0 3.683,-2.06 3.417,-4.23 h -5.323"
         style="fill:#231f20;fill-opacity:1;fill-rule:nonzero;stroke:none"
         transform="matrix(1.3333333,0,0,-1.3333333,132.928,155.964)"
         clip-path="url(#clipPath23)" />
      <path
         id="path24"
         d="m 0,0 h 2.872 c 1.106,0 1.709,0.546 1.709,1.596 0,1.275 -0.828,1.527 -1.738,1.527 H 0 Z m -1.751,4.552 h 4.776 c 2.185,0 3.306,-1.008 3.306,-2.704 0,-1.919 -1.33,-2.409 -1.653,-2.521 V -0.7 c 0.603,-0.085 1.485,-0.534 1.485,-2.116 0,-1.163 0.168,-2.227 0.546,-2.633 H 4.833 c -0.267,0.434 -0.267,0.98 -0.267,1.47 0,1.835 -0.378,2.648 -1.989,2.648 H 0 V -5.449 H -1.751 V 4.552"
         style="fill:#231f20;fill-opacity:1;fill-rule:nonzero;stroke:none"
         transform="matrix(1.3333333,0,0,-1.3333333,144.49867,154.37467)" />
      <path
         id="path25"
         d="m 0,0 c 0,1.247 -0.631,2.549 -2.059,2.549 -1.429,0 -2.059,-1.302 -2.059,-2.549 0,-1.261 0.63,-2.564 2.059,-2.564 C -0.631,-2.564 0,-1.261 0,0 Z m -5.716,0 c 0,2.212 1.332,3.81 3.657,3.81 2.325,0 3.656,-1.598 3.656,-3.81 0,-2.228 -1.331,-3.825 -3.656,-3.825 -2.325,0 -3.657,1.597 -3.657,3.825"
         style="fill:#231f20;fill-opacity:1;fill-rule:nonzero;stroke:none"
         transform="matrix(1.3333333,0,0,-1.3333333,162.17867,156.80267)"
         clip-path="url(#clipPath26)" />
      <path
         id="path27"
         d="m 0,0 c 1.429,0 2.031,1.303 2.031,2.564 0,1.596 -0.77,2.549 -2.003,2.549 -1.499,0 -2.031,-1.331 -2.031,-2.633 C -2.003,1.232 -1.387,0 0,0 Z M 3.572,-1.064 H 2.06 v 0.98 H 2.031 c -0.42,-0.826 -1.33,-1.177 -2.241,-1.177 -2.283,0 -3.389,1.696 -3.389,3.867 0,2.619 1.554,3.768 3.137,3.768 0.91,0 1.919,-0.337 2.409,-1.135 H 1.976 V 8.937 H 3.572 V -1.064"
         style="fill:#231f20;fill-opacity:1;fill-rule:nonzero;stroke:none"
         transform="matrix(1.3333333,0,0,-1.3333333,170.408,160.22133)"
         clip-path="url(#clipPath28)" />
      <path
         id="path29"
         d="M 0,0 C -0.056,1.009 -0.743,1.92 -1.821,1.92 -2.927,1.92 -3.684,1.08 -3.726,0 Z m -3.726,-1.049 c 0,-1.135 0.616,-2.144 1.947,-2.144 0.925,0 1.485,0.406 1.765,1.205 h 1.513 c -0.35,-1.583 -1.695,-2.466 -3.278,-2.466 -2.269,0 -3.544,1.583 -3.544,3.811 0,2.058 1.345,3.824 3.502,3.824 2.283,0 3.684,-2.06 3.418,-4.23 h -5.323"
         style="fill:#231f20;fill-opacity:1;fill-rule:nonzero;stroke:none"
         transform="matrix(1.3333333,0,0,-1.3333333,184.11067,155.964)"
         clip-path="url(#clipPath30)" />
      <path
         id="path31"
         d="M 0,0 H 1.751 V -4.552 L 6.205,0 H 8.363 L 4.37,-3.993 8.643,-10.001 H 6.458 L 3.18,-5.225 1.751,-6.64 v -3.361 H 0 L 0,0"
         style="fill:#231f20;fill-opacity:1;fill-rule:nonzero;stroke:none"
         transform="matrix(1.3333333,0,0,-1.3333333,193.34667,148.30533)" />
      <path
         id="path32"
         d="m 0,0 h 1.498 v -1.402 h 0.029 c 0.182,0.771 1.135,1.598 2.115,1.598 0.364,0 0.462,-0.028 0.603,-0.042 V -1.387 C 4.02,-1.36 3.782,-1.318 3.558,-1.318 2.465,-1.318 1.597,-2.199 1.597,-3.796 V -7.242 L 0,-7.242 V 0"
         style="fill:#231f20;fill-opacity:1;fill-rule:nonzero;stroke:none"
         transform="matrix(1.3333333,0,0,-1.3333333,205.836,151.984)" />
      <path
         id="path33"
         d="m 0,0 h -1.57 v 1.008 h -0.027 c -0.393,-0.728 -1.261,-1.205 -2.06,-1.205 -1.89,0 -2.703,0.953 -2.703,2.844 v 4.595 h 1.597 V 2.801 c 0,-1.275 0.518,-1.737 1.387,-1.737 1.33,0 1.779,0.855 1.779,1.976 V 7.242 L 0,7.242 V 0"
         style="fill:#231f20;fill-opacity:1;fill-rule:nonzero;stroke:none"
         transform="matrix(1.3333333,0,0,-1.3333333,220.88667,161.64)"
         clip-path="url(#clipPath34)" />
      <path
         id="path35"
         d="M 0,0 H 1.597 V -7.242 H 0 Z M 0,2.759 H 1.597 V 1.246 H 0 Z"
         style="fill:#231f20;fill-opacity:1;fill-rule:nonzero;stroke:none"
         transform="matrix(1.3333333,0,0,-1.3333333,223.176,151.984)" />
      <path
         id="path36"
         d="m 0,0 c 0.084,-0.925 0.785,-1.261 1.639,-1.261 0.603,0 1.653,0.126 1.611,0.953 -0.042,0.84 -1.205,0.939 -2.367,1.204 -1.176,0.252 -2.325,0.673 -2.325,2.144 0,1.582 1.709,2.073 3.025,2.073 1.485,0 2.83,-0.617 3.026,-2.227 H 2.942 C 2.802,3.641 2.171,3.852 1.471,3.852 1.009,3.852 0.155,3.74 0.155,3.109 0.155,2.325 1.332,2.213 2.508,1.947 3.67,1.68 4.847,1.261 4.847,-0.168 c 0,-1.723 -1.736,-2.354 -3.235,-2.354 -1.822,0 -3.18,0.813 -3.208,2.522 L 0,0"
         style="fill:#231f20;fill-opacity:1;fill-rule:nonzero;stroke:none"
         transform="matrix(1.3333333,0,0,-1.3333333,229.224,158.54)"
         clip-path="url(#clipPath37)" />
    </g>
  </g>
</svg>
