<?xml version="1.0" encoding="utf-8"?>
<!-- Generator: Adobe Illustrator 16.0.0, SVG Export Plug-In . SVG Version: 6.00 Build 0)  -->
<!DOCTYPE svg PUBLIC "-//W3C//DTD SVG 1.1//EN" "http://www.w3.org/Graphics/SVG/1.1/DTD/svg11.dtd">
<svg version="1.1"
	 id="svg3015" sodipodi:docname="Philippine_Red_Cross_logo.jpg" inkscape:version="0.48.4 r9939" xmlns:inkscape="http://www.inkscape.org/namespaces/inkscape" xmlns:sodipodi="http://sodipodi.sourceforge.net/DTD/sodipodi-0.dtd" xmlns:svg="http://www.w3.org/2000/svg" xmlns:rdf="http://www.w3.org/1999/02/22-rdf-syntax-ns#" xmlns:cc="http://creativecommons.org/ns#" xmlns:dc="http://purl.org/dc/elements/1.1/"
	 xmlns="http://www.w3.org/2000/svg" xmlns:xlink="http://www.w3.org/1999/xlink" x="0px" y="0px" width="1542.121px"
	 height="1541.938px" viewBox="0 0 1542.121 1541.938" enable-background="new 0 0 1542.121 1541.938" xml:space="preserve">
<sodipodi:namedview  id="namedview3017" inkscape:current-layer="svg3015" inkscape:window-maximized="1" fit-margin-bottom="0" inkscape:window-width="1366" inkscape:pageshadow="2" inkscape:pageopacity="0" inkscape:window-height="705" inkscape:window-y="-8" fit-margin-right="0" inkscape:window-x="-8" pagecolor="#ffffff" fit-margin-left="0" fit-margin-top="0" showgrid="false" guidetolerance="10" gridtolerance="10" objecttolerance="10" bordercolor="#666666" borderopacity="1" inkscape:cy="770.96941" inkscape:cx="771.06054" inkscape:zoom="0.34761431">
	</sodipodi:namedview>
<g>
	
		<path id="path3099-1" sodipodi:cx="681.35596" sodipodi:rx="186.44067" sodipodi:ry="205.08475" sodipodi:cy="625.42371" sodipodi:type="arc" fill="#1E0B4B" d="
		M1542.121,770.976c0.027,425.792-345.166,770.986-771.011,771.014C345.265,1542.016,0.027,1196.866,0,771.074
		c0-0.032,0-0.065,0-0.1C-0.027,345.185,345.166-0.009,771.011-0.036c425.846-0.027,771.083,345.122,771.109,770.913
		C1542.121,770.91,1542.121,770.943,1542.121,770.976z"/>
	<path id="path3099" inkscape:connector-curvature="0" fill="#FFFFFF" d="M768.007,226.375c-20.794,0.106-42.661,1.281-57.562,3.219
		c-6.325,0.822-14.875,1.915-19,2.438c-6.288,0.797-25.176,4.319-42.656,7.969c-2.294,0.479-9.269,2.223-15.5,3.875
		c-59.171,15.69-111.726,39.212-162.469,72.719c-78.146,51.602-142.79,123.979-184.313,206.375
		c-22.929,45.499-35.434,80.562-47.438,133c-4.757,20.782-9.19,53.214-10.75,78.5c-1.415,22.94-0.492,75.502,1.625,92.5
		c0.855,6.875,1.961,15.875,2.469,20c1.787,14.519,7.781,44.185,12.219,60.5c1.646,6.049,3.606,13.25,4.345,16
		c0.737,2.75,3.375,11.177,5.875,18.72c34.738,104.78,102.507,198.334,191.594,264.5c46.2,34.312,98.313,61.424,153.281,79.75
		c43.164,14.389,81.802,21.971,136.719,26.875c12.092,1.079,74.232-0.146,88.5-1.75c68.103-7.671,124.816-23.712,182.094-51.531
		c89.576-43.51,162.433-106.978,217.062-189.062c35.448-53.264,62.466-115.562,76.156-175.5c4.236-18.553,5.192-23.387,7.594-38.5
		c5.533-34.832,6.101-42.705,6.094-87c-0.011-37.102-0.243-43.461-2.281-60c-7.521-60.999-21.711-112.514-45.344-164.125h-2.562
		v-5.531c-1.937-4.107-3.912-8.225-5.97-12.344c-20.393-40.825-40.762-71.957-70.969-108.5
		c-13.271-16.054-46.623-49.574-63.375-63.688c-72.432-61.018-155.164-100.929-247.125-119.219
		c-27.711-5.511-49.3-8.075-81.375-9.656C786.695,226.5,777.457,226.327,768.007,226.375L768.007,226.375z M1181.757,362.781
		c0.218,0.208,0.408,0.389,0.625,0.594v-0.594H1181.757z M1200.257,379.719c0.882,0.753,1.734,1.467,2.469,2.062v-2.062H1200.257z
		 M1252.975,454.312c2.581,4.159,4.954,7.974,7.375,11.875v-11.875H1252.975z M1253.568,1087.969
		c-0.047,0.086-0.11,0.162-0.156,0.25h0.156V1087.969z"/>
	<path id="path3099-4" inkscape:connector-curvature="0" fill="#FFFFFF" d="M771.068,0c-1.669,0-3.334,0.021-5,0.031
		c9.113-0.021,18.369,0.087,27.5,0.312C786.095,0.13,778.594,0,771.068,0z M752.662,41.25c-0.388,0.011-0.633,0.061-0.719,0.094
		c-1.509,0.579-2.243,7.96-3.5,35.625c-0.513,11.275-1.592,31.3-2.406,44.5c-0.814,13.2-1.745,29.625-2.062,36.5
		c-0.318,6.875-0.854,15.966-1.188,20.219c-0.49,6.254-0.306,7.86,0.875,8.312c1.18,0.453,30.902,2.818,42,3.344
		c1.752,0.083,3.081-0.564,3.75-1.812c0.569-1.064,1.076-5.901,1.125-10.75c0.048-4.849,0.61-15.788,1.25-24.312l1.156-15.5
		l18.5,0.375c21.214,0.431,27.046-0.423,37.656-5.469c14.863-7.068,23.26-22.406,23.312-42.594
		c0.034-13.505-4.621-25.713-12.405-32.5c-9.624-8.39-21.699-11.746-46.062-12.781c-8.25-0.351-25.294-1.33-37.875-2.156
		C765.06,41.621,755.372,41.172,752.662,41.25z M684.225,47.969c-1.802,0.003-8.231,0.872-14.281,1.906
		c-6.051,1.034-14.232,2.173-18.188,2.562c-10.846,1.068-10.852,1.078-8.938,13.594c0.877,5.739,2.547,16.962,3.688,24.938
		c1.14,7.975,2.915,20.35,3.969,27.5c1.053,7.15,2.854,19.525,4,27.5c1.145,7.975,2.931,20.125,3.969,27
		c1.037,6.875,2.192,14.975,2.562,18c0.369,3.025,0.88,5.837,1.125,6.25c0.731,1.236,7.122,0.869,19.812-1.156
		c6.601-1.053,14.728-2.23,18.062-2.594c3.335-0.364,6.685-1.035,7.438-1.5c1.49-0.921,1.018-5.983-3.125-34
		c-1.098-7.425-2.836-19.35-3.875-26.5c-1.04-7.15-2.842-19.525-4-27.5c-1.159-7.975-2.959-20.35-4-27.5
		c-1.042-7.15-2.189-15.475-2.562-18.5C688.823,49.388,688.018,47.961,684.225,47.969z M937.757,61.781
		c-0.401-0.006-0.651,0.048-0.781,0.156c-0.747,0.62-3.001,6.184-5,12.344c-2,6.16-7.174,21.987-11.5,35.188
		c-23.062,70.356-28.144,86.57-27.844,88.562c0.28,1.885,2.599,2.926,16.812,7.5c9.074,2.92,18.3,5.992,20.5,6.812
		c5.076,1.894,5.032,1.899,6.375,0.281c0.62-0.747,4.54-11.758,8.688-24.469c4.146-12.711,7.831-23.303,8.219-23.531
		c0.387-0.229,7.693,1.829,16.219,4.594c15.258,4.949,15.702,5.052,28.5,5.125c11.927,0.068,13.453-0.155,18.5-2.5
		c8.818-4.098,16.422-11.782,21-21.25c5.018-10.379,6.312-16.678,5.812-28.062c-0.326-7.445-0.892-10.214-3.125-14.781
		c-3.479-7.11-12.182-15.267-20.72-19.406c-3.551-1.721-23.265-8.635-43.78-15.344C950.574,64.807,940.565,61.822,937.757,61.781z
		 M798.287,75.969c0.264-0.009,0.558-0.006,0.875,0c5.521,0.105,18.839,2.124,20.845,3.438c3.903,2.559,5.812,6.38,5.812,11.562
		c0,5.286-1.933,8.992-6.094,11.719c-3.808,2.494-23.955,3.253-24.844,0.938c-0.697-1.817,1.046-26.484,1.938-27.375
		C796.977,76.092,797.498,75.995,798.287,75.969z M523.662,86.812c-2.352,0.009-9.251,1.929-14.219,4.031
		c-1.375,0.582-7.899,2.915-14.5,5.188c-6.601,2.273-12.559,4.652-13.25,5.312c-1.004,0.959-0.246,4.115,3.844,15.656
		c2.817,7.952,5.744,16.269,6.47,18.469c0.724,2.2,3.612,10.525,6.438,18.5c2.825,7.975,6.445,18.325,8.031,23
		c1.585,4.675,5.183,15.025,8,23c2.815,7.975,6.721,19.225,8.688,25c1.967,5.775,4.05,11.108,4.625,11.844
		c1.569,2.003,5.199,1.116,26.156-6.312c10.449-3.704,23.949-8.44,30-10.531c18.48-6.388,47.84-16.731,50.75-17.875
		c1.512-0.595,2.75-1.656,2.75-2.375c0-0.719-2.287-7.824-5.094-15.781c-2.809-7.957-5.344-15.256-5.625-16.219
		c-0.966-3.295-0.819-3.323-43.781,11.812c-10.45,3.682-19.827,6.742-20.844,6.812c-2.036,0.141-1.785,0.727-13.125-31.875
		c-6.618-19.026-10.388-29.779-18.906-53.938c-2.507-7.107-5.07-13.212-5.688-13.594C524.251,86.856,523.998,86.811,523.662,86.812z
		 M972.132,106.188c2.009,0.152,14.778,4.938,18.28,6.906c6.592,3.705,8.739,11.958,4.938,19.062
		c-2.874,5.37-12.021,7.178-21.906,4.344c-6.24-1.789-10-3.344-10-4.156c0-0.773,8.063-25.739,8.438-26.125
		C971.912,106.186,971.996,106.177,972.132,106.188L972.132,106.188z M1105.912,127c-1.667-0.019-8.51,11.314-36.875,61.094
		c-19.155,33.616-35.055,61.919-35.312,62.906c-0.563,2.152-0.062,2.513,21.156,14.688c8.832,5.068,16.892,9.118,17.905,9
		c1.312-0.153,12.009-18.052,37.188-62.156c24.471-42.862,35.126-62.369,34.562-63.375
		C1143.387,147.102,1108.391,127.028,1105.912,127L1105.912,127z M424.507,130.969c-2.524,0-38.508,21.45-38.845,23.156
		c-0.157,0.8,7.226,14.265,16.407,29.906c9.182,15.642,21.251,36.312,26.844,45.938c21.946,37.774,28.814,49.002,29.906,49
		c0.624-0.001,9.396-4.885,19.5-10.844s18.739-11.48,19.188-12.281c0.558-0.997-2.491-7.104-9.688-19.406
		c-5.777-9.877-22.016-37.656-36.062-61.719C433.8,143.959,425.714,130.969,424.507,130.969z M1201.975,185.469
		c-0.141,0.021-0.268,0.059-0.375,0.125c-1.532,0.943-18.786,19.703-75.312,81.75c-11.461,12.579-20.844,23.625-20.844,24.531
		s5.665,6.811,12.594,13.125c17.263,15.732,17.543,15.969,18.906,15.969c0.662,0,4.985-4.162,9.594-9.25
		c19.381-21.396,40.22-43.781,40.5-43.5c0.166,0.166-0.348,4.573-1.125,9.781c-2.604,17.422-9.375,66.412-10.03,72.531l-0.656,6.031
		l6.375,6.062c0.056,0.054,0.1,0.104,0.156,0.156h0.625v0.594c7.445,7.084,13.525,12.634,17.875,16.344h2.469v2.062
		c2.541,2.062,4.192,3.188,4.75,3.188c0.901,0,4.762-3.535,8.562-7.844c6.84-7.757,36.133-39.987,58.375-64.219
		c29.113-31.716,30.163-32.916,29.845-34.844c-0.344-2.068-29.546-29.094-31.438-29.094c-0.621,0-6.918,6.396-14,14.219
		c-30.656,33.859-35.484,38.984-36.156,38.312c-0.314-0.315,0.438-7.434,1.688-15.812c2.999-20.103,5.428-36.72,8.219-56.094
		l2.312-15.875l-7-6.625C1210.019,190.175,1204.062,185.158,1201.975,185.469L1201.975,185.469z M328.943,190.375
		c-1.98,0.204-5.573,3.231-17.219,14.125c-8.966,8.387-15.781,15.547-15.781,16.562c0,0.982,7.087,9.405,15.75,18.75
		s15.75,17.43,15.75,17.969c0,0.539-1.547,2.278-3.438,3.844c-1.892,1.566-9.128,8.23-16.095,14.812l-12.656,11.969l-4.094-4.469
		c-15.484-17.019-29.066-30.969-30.188-30.969c-1.53,0-33.531,29.763-33.531,31.188c0,0.521,2.393,3.503,5.312,6.625
		c12.072,12.908,62.085,66.723,74.531,80.188c14.949,16.171,17.816,19,19.25,19c0.543,0,7.824-6.389,16.188-14.188
		c8.364-7.799,15.625-14.988,16.125-16c1.089-2.199,0.973-2.347-20.406-25.281c-8.525-9.146-15.635-17.186-15.781-17.844
		c-0.366-1.652,31.744-31.155,32.72-30.062c5.577,6.251,32.98,35.582,35.188,37.656c2.326,2.187,3.344,2.536,4.812,1.75
		c3.477-1.86,32.062-29.138,32.062-30.594c0-0.797-9.739-11.901-21.656-24.688c-11.918-12.786-30.479-32.708-41.25-44.25
		c-10.77-11.542-22.519-24.204-26.094-28.156s-7.491-7.5-8.719-7.875C329.489,190.365,329.226,190.346,328.943,190.375z
		 M1350.162,335.969c-1.219,0.003-13.243,6.899-26.719,15.312c-13.476,8.413-40.411,25.118-59.844,37.125
		c-19.435,12.007-35.564,22.429-35.844,23.156c-0.28,0.727,6.157,12.037,14.28,25.125c2.849,4.588,7.106,11.45,10.938,17.625h7.375
		v11.875c4.669,7.527,9.145,14.76,12.875,20.78c16.939,27.349,18.013,29,19.094,29c0.353,0,6.707-3.736,14.125-8.312
		c8.886-5.48,13.599-8.979,13.781-10.25c0.16-1.113-7.808-15.036-18.812-32.844c-15.572-25.198-18.854-31.118-17.78-32.125
		c0.724-0.68,5.361-3.791,10.312-6.906c6.777-4.267,9.197-5.32,9.812-4.344c0.448,0.713,8.359,13.432,17.594,28.28
		c11.374,18.293,17.403,27.102,18.688,27.281c2.445,0.344,24.772-13.785,25.188-15.938c0.173-0.898-7.339-14.02-16.719-29.155
		c-9.381-15.137-17.063-27.921-17.062-28.375c0-1.456,15.186-10.533,16.094-9.625c0.478,0.478,7.141,10.98,14.812,23.344
		c23.347,37.619,22.891,36.969,24.875,36.969c3.209,0,26.219-14.86,26.219-16.938c0-1.573-14.539-25.588-50.938-84.062
		c-4.279-6.875-8.325-13.513-8.97-14.75C1352.856,336.911,1351.448,335.966,1350.162,335.969L1350.162,335.969z M197.537,351.219
		c-12.036,0.395-22.923,6.473-31.625,17.781c-4.041,5.251-34.51,54.75-41.656,67.656l-2.875,5.156l3.281,2.438
		c1.806,1.334,17.906,11.231,35.781,22s43.975,26.573,58,35.125c14.024,8.552,26.175,15.44,27,15.312
		c0.825-0.129,6.632-8.739,12.906-19.125c8.83-14.618,11.194-19.224,10.438-20.47c-0.539-0.886-10.396-7.352-21.906-14.344
		c-11.51-6.992-20.795-13.238-20.625-13.906c0.169-0.668,3.451-6.47,7.281-12.875c3.83-6.404,8.392-14.978,10.156-19.062
		c3.015-6.979,3.201-8.161,3.219-19.438c0.018-11.255-0.137-12.36-2.875-17.938c-6.087-12.397-23.472-25.048-38-27.656
		C203.149,351.356,200.314,351.128,197.537,351.219z M1441.443,389.812c1.499,2.639,3.001,5.281,4.469,7.938
		C1444.439,395.094,1442.945,392.449,1441.443,389.812z M193.599,397.531c6.862,0,11.02,2.746,13.312,8.75
		c1.571,4.113,1.571,4.545-0.562,10.25c-2.711,7.249-7.642,15.438-9.281,15.438c-0.663,0-6.128-3.002-12.156-6.656
		c-6.027-3.653-11.116-6.773-11.312-6.938c-0.782-0.649,6.198-11.588,10.25-16.062C187.982,397.748,188.38,397.531,193.599,397.531z
		 M1464.787,434.188c1.392,2.873,2.77,5.766,4.125,8.656C1467.549,439.949,1466.186,437.062,1464.787,434.188z M1468.912,442.844
		c20.558,43.848,37.042,89.844,49.312,137.625c8.312,32.372,14.344,64.487,18.438,98.531
		C1526.726,595.439,1503.385,516.007,1468.912,442.844z M1263.757,540.312v5.53h2.562
		C1265.475,544.002,1264.624,542.155,1263.757,540.312z M1266.318,545.844c2.954,6.451,5.772,12.908,8.438,19.375
		C1272.092,558.75,1269.273,552.297,1266.318,545.844z M1276.725,570.062c1.297,3.237,2.554,6.497,3.781,9.75
		C1279.278,576.56,1278.021,573.302,1276.725,570.062z M1280.507,579.812c0.612,1.625,1.216,3.244,1.812,4.875
		C1281.722,583.057,1281.119,581.439,1280.507,579.812z M1282.318,584.688c0.596,1.631,1.17,3.271,1.75,4.906
		C1283.488,587.957,1282.915,586.319,1282.318,584.688z M1284.068,589.594c0.579,1.635,1.156,3.267,1.719,4.906
		C1285.227,592.865,1284.646,591.224,1284.068,589.594z M1285.787,594.5c2.19,6.387,4.276,12.822,6.22,19.312
		C1290.062,607.312,1287.979,600.896,1285.787,594.5z M1296.412,629.469c0.449,1.694,0.878,3.391,1.312,5.094
		C1297.292,632.861,1296.859,631.16,1296.412,629.469z M1297.725,634.562c0.434,1.703,0.862,3.409,1.281,5.125
		C1298.588,637.973,1298.158,636.268,1297.725,634.562z M1304.725,665.844c0.448,2.314,0.888,4.661,1.312,7
		C1305.61,670.493,1305.176,668.17,1304.725,665.844z M1307.412,680.781c0.312,1.85,0.642,3.697,0.938,5.562
		C1308.053,684.474,1307.723,682.635,1307.412,680.781z M1537.443,685.969c0.369,3.309,0.703,6.645,1.031,10
		C1538.152,692.63,1537.808,689.295,1537.443,685.969z M1309.068,691.125c0.378,2.498,0.74,4.972,1.094,7.5
		C1309.811,696.114,1309.443,693.605,1309.068,691.125z M1310.162,698.625c0.522,3.74,1.029,7.531,1.5,11.344
		C1311.191,706.149,1310.686,702.372,1310.162,698.625z M1541.757,794.032c-0.072,2.323-0.152,4.645-0.25,6.938
		c-3.354,78.101-16.309,146.957-41.781,222c-5.309,15.64-18.71,49.351-26.219,66c-2.854,6.324-10.521,21.961-17.062,34.75
		c-48.927,95.634-119.341,181.707-204,249.375c-124.957,99.877-276.25,157.711-434.594,167.406
		C1214.308,1516.771,1530.021,1193.561,1541.757,794.032z M817.85,1540.5c-2.641,0.16-5.264,0.303-7.906,0.438
		C812.58,1540.807,815.22,1540.657,817.85,1540.5z M809.943,1540.938c-4.714,0.24-9.432,0.438-14.156,0.595
		C800.524,1541.381,805.228,1541.172,809.943,1540.938z M11.818,906.157c0.533,2.971,1.089,5.94,1.656,8.905
		C12.913,912.096,12.345,909.135,11.818,906.157z M14.412,919.907c8.603,43.944,20.897,86.571,36.625,127.5
		c-6.53-17.605-8.178-22.261-11.719-32.938C29.057,983.518,20.741,951.905,14.412,919.907L14.412,919.907z M1305.943,1044.969
		c-5.809,0-14.915,2.556-20.312,5.719c-10.968,6.427-23.338,21.146-32.062,37.281v0.25h-0.156
		c-2.482,4.617-4.681,9.346-6.438,14.031c-2.143,5.713-2.531,8.459-2.531,17.531c0,10.149,0.177,11.139,3.344,17.719
		c6.502,13.512,18.64,21.643,33.156,22.25c15.318,0.641,27.715-5.939,49.875-26.531c10.57-9.824,15.975-13.424,21.094-14
		c5.085-0.574,7.999,0.81,10.595,5.062c2.648,4.346,2.432,9.303-0.656,15.5c-5.363,10.762-15.497,15.645-26.219,12.625
		c-9.798-2.76-8.511-3.799-19.875,16.062c-5.666,9.9-10.312,18.541-10.312,19.22c-0.011,1.682,7.147,5.229,15,7.438
		c8.061,2.266,22.12,1.969,29.5-0.625c11.254-3.957,23.376-15.213,35-32.531c11.214-16.709,15.841-29.672,15.75-44
		c-0.091-13.983-4.813-24.676-15.156-34.25c-9.233-8.549-15.427-11.129-27.719-11.562c-9.447-0.334-10.596-0.16-17.5,2.719
		c-9.203,3.836-20.887,12.578-36.188,27.062c-6.498,6.15-13.432,11.861-15.406,12.688c-3.327,1.389-3.786,1.35-6.188-0.438
		c-3.127-2.327-4.604-6.038-3.75-9.438c1.244-4.959,7.044-12.225,11.656-14.594c4.509-2.318,5.667-2.355,15.094-0.625l3.595,0.656
		l10.155-17.595c5.59-9.664,10.156-18.403,10.156-19.438C1329.443,1050.04,1314.893,1044.969,1305.943,1044.969L1305.943,1044.969z
		 M256.724,1054.969c-0.817,0-14.821,8.685-31.125,19.312c-16.305,10.628-43.091,28.039-59.5,38.688
		c-27.63,17.926-29.797,19.562-29.438,21.938c0.562,3.696,22.644,37.062,24.531,37.062c1.38,0,15.36-8.697,39.75-24.75
		c7.951-5.233,8.003-5.26,9.688-3.219c0.934,1.129,2.009,4.051,2.375,6.5c0.805,5.363-0.881,9.201-16.905,38.406
		c-5.861,10.682-10.656,20.254-10.656,21.281c0,1.026,0.878,3.071,1.938,4.562c1.061,1.49,7.121,10.705,13.47,20.469
		c6.348,9.763,11.924,17.75,12.405,17.75c0.482,0,1.55-0.787,2.375-1.75c3.556-4.145,24.384-42.305,26.5-48.562
		c1.298-3.836,2.312-9.265,2.312-12.281c0-2.973,0.266-5.406,0.594-5.406s1.98,0.963,3.656,2.156
		c10.093,7.188,26.224,9.113,37.656,4.469c20.023-8.137,31.207-26.914,26.656-44.781c-3.075-12.073-5.518-16.194-45.531-77.594
		C262.367,1061.381,257.541,1054.969,256.724,1054.969L256.724,1054.969z M55.787,1059.407
		c15.824,39.192,34.791,76.78,56.562,112.469c-11.202-18.512-21.72-37.709-31.781-57.906
		C72.086,1096.944,62.338,1075.364,55.787,1059.407z M256.068,1112c1.165,0.021,11.868,16.461,13.969,21.469
		c2.98,7.104,1.267,12.984-4.688,16.062c-5.239,2.709-9.462,1.885-14.562-2.812c-4.151-3.824-13.548-16.518-14.969-20.219
		c-0.39-1.016,2.461-3.449,9.406-8C250.712,1114.905,255.593,1111.991,256.068,1112z M1214.943,1165.375
		c-10.938-0.051-22.235,4.701-35.281,14.531c-14.395,10.846-26.638,25.537-32,38.375c-2.1,5.022-2.6,7.877-2.655,15.188
		c-0.102,12.926,2.646,19.822,11.375,28.594c8.594,8.636,14.966,11.289,27.062,11.25c10.609-0.034,20.539-3.194,36.406-11.562
		c21.656-11.42,23.729-12.281,29.438-12.281c4.759,0,5.646,0.367,8.25,3.281c6.048,6.768,2.099,18.15-8.53,24.688
		c-4.18,2.567-5.902,3.032-11.5,3.03c-5.738,0-7.287-0.426-11.688-3.25c-2.784-1.787-5.733-3.25-6.562-3.25
		c-1.922,0-29.812,29.293-29.812,31.312c0,3.012,11.632,10.666,21.812,14.344c5.721,2.066,8.141,2.383,16.688,2.125
		c9.172-0.277,10.649-0.615,17.906-4.062c19.474-9.255,40.191-28.933,49.062-46.595c11.865-23.623,2.074-53.436-21.125-64.375
		c-6.354-2.996-7.564-3.203-16.844-3.125c-14.466,0.123-16.133,0.777-57.312,22.531c-8.169,4.313-12.232,4.799-15.188,1.844
		c-6.912-6.912,5.162-22.01,17.594-22c3.144,0,6.093,0.724,8.188,2c1.801,1.099,4.025,2,4.969,2c2.216,0,30.25-27.946,30.25-30.155
		c0-2.224-6.471-7.265-13.406-10.438C1226.31,1166.752,1220.673,1165.403,1214.943,1165.375L1214.943,1165.375z M349.631,1178.219
		c-0.473,0.049-0.62,0.545-1.125,0.906c-1.042,0.746-18.458,20.018-38.688,42.844c-20.229,22.824-40.771,46-45.656,51.5
		c-10.96,12.34-11.287,12.922-8.938,15.219c0.998,0.976,15.023,13.48,31.188,27.781c16.164,14.299,35.506,31.504,42.97,38.219
		c7.564,6.806,14.444,12.228,15.562,12.25c1.329,0.027,5.463-3.87,12.25-11.53c5.635-6.359,10.254-12.322,10.25-13.25
		c-0.005-0.945-11.899-12.234-27.062-25.656c-14.883-13.176-27.289-24.307-27.562-24.75c-0.507-0.82,13.229-17.187,15.188-18.094
		c0.59-0.273,12.154,9.36,25.688,21.405c13.533,12.046,25.276,21.906,26.094,21.906c1.576,0,20.657-21.072,20.657-22.812
		c0-0.562-11.25-11.015-25-23.22c-13.75-12.204-24.99-22.495-24.969-22.844c0.021-0.35,2.834-3.692,6.25-7.438l6.219-6.812
		l20.5,18.219c27.905,24.785,33.888,29.906,34.969,29.906c1.478,0,21.031-22.313,21.031-24c0-0.84-18.562-17.998-41.25-38.125
		C357.143,1183.426,351.316,1178.042,349.631,1178.219z M1090.507,1264.782c-17.579,0.407-36.87,7.514-54.312,20.405
		c-13.228,9.775-22.536,23.443-26.375,38.781c-2.347,9.375-1.49,24.838,1.969,36c7.395,23.861,22.544,44.041,39.875,53.062
		c15.506,8.069,28.261,9.719,45.156,5.844c11.268-2.584,32.203-12.543,42-20c16.199-12.33,25.625-31.074,25.625-50.906
		c0-20.328-11.43-46.988-27.375-63.875c-6.283-6.654-17.793-13.768-26.938-16.656
		C1104.001,1265.5,1097.385,1264.622,1090.507,1264.782L1090.507,1264.782z M465.068,1272.594c-0.478,0.01-0.803,0.166-1.031,0.406
		c-0.771,0.807-6.001,10.469-11.625,21.469c-5.625,11-14.156,27.65-18.969,37c-4.812,9.351-14.747,28.666-22.062,42.938
		l-13.281,25.969l2.719,2.031c1.503,1.121,17.006,9.26,34.438,18.094c30.774,15.596,32.725,16.41,50.688,20.875
		c3.885,0.965,17.085-0.354,22.562-2.25c15.362-5.312,24.225-12.447,34.375-27.656c23.998-35.959,25.946-71.719,5.062-93.03
		c-8.615-8.791-13.903-11.91-58.25-34.531C472.499,1275.135,467.137,1272.559,465.068,1272.594z M207.943,1297.594
		c15.072,16.105,30.827,31.578,47.219,46.344C240.683,1330.542,221.358,1311.562,207.943,1297.594z M1081.693,1305.125
		c3.998,0.012,7.969,0.918,11.5,2.719c2.194,1.119,6.094,4.396,8.688,7.281c7.958,8.852,17.562,31.111,17.562,40.719
		c0,8.031-6.543,17.277-15.469,21.844c-5.31,2.716-14.965,3.904-19.531,2.406c-8.678-2.848-15.762-10.147-22.406-23.125
		c-5.86-11.447-7.875-18.123-7.875-25.938c0-8.142,2.366-13.213,8.906-18.969
		C1068.247,1307.504,1075.029,1305.105,1081.693,1305.125L1081.693,1305.125z M491.037,1325.532c0.146-0.019,0.294-0.017,0.47,0
		c1.162,0.102,3.063,0.971,6.688,2.875c20.461,10.752,22.953,21.942,10.562,47.125c-5.088,10.338-10.105,17.395-15.562,21.78
		c-4.848,3.896-12.767,4.625-20.25,1.845c-5.296-1.97-10.555-4.529-14.25-6.938l-2.219-1.469l16.125-31.625
		c8.869-17.404,16.684-32.283,17.375-33.031C490.27,1325.774,490.601,1325.581,491.037,1325.532z M939.412,1330.219
		c-8.274,0.217-19.534,1.937-35.655,5.312c-9.242,1.936-19.062,3.908-21.812,4.406c-13.366,2.42-38.987,8.11-39.688,8.812
		c-0.437,0.434,1.468,11.795,4.219,25.25c2.75,13.455,6.536,32.119,8.438,41.469c1.9,9.351,5.524,26.9,8.031,39
		c2.507,12.101,5.027,24.688,5.594,27.97c1.119,6.485,2.268,8.522,4.781,8.5c0.896-0.011,5.899-0.916,11.125-2.031
		c5.225-1.115,12.705-2.646,16.625-3.406c3.919-0.762,9.039-1.902,11.375-2.531c4.182-1.127,4.242-1.19,3.688-4.812
		c-1.048-6.843-2.556-14.634-6.125-31.656c-4.386-20.908-4.412-21.512-0.812-21.656c5.447-0.221,7.795,0.332,10.969,2.47
		c1.774,1.192,11.45,11.979,21.5,24l18.281,21.875l4-0.625c2.201-0.343,13.188-2.548,24.406-4.875
		c14.132-2.935,20.682-4.707,21.375-5.812c0.798-1.275-2.249-5.691-15.188-21.812c-15.854-19.758-23.955-27.633-31.094-30.25
		c-1.375-0.506-3.114-1.137-3.875-1.405c-0.878-0.312,0.641-1.92,4.156-4.438c12.492-8.947,18.418-23.93,15.75-39.75
		c-3.041-18.024-14.346-30.404-30.469-33.375C946.309,1330.346,943.174,1330.12,939.412,1330.219L939.412,1330.219z
		 M747.943,1349.625c-23.206-0.01-37.165,5.018-50.594,18.25c-9.879,9.732-15.767,21.197-18.875,36.75
		c-2.83,14.15-2.781,32.902,0.094,44.406c4.17,16.688,15.575,33.174,28.188,40.75c15.425,9.266,44.781,13.658,64.312,9.625
		c11.861-2.451,19.731-6.691,28.469-15.375c5.864-5.83,8.568-9.521,11.845-16.156c2.332-4.727,4.314-10.119,4.405-11.969
		l0.156-3.344l-16.5-6.312c-9.075-3.465-18.036-6.398-19.906-6.531c-3.297-0.235-3.48-0.059-6,6.062
		c-5.172,12.563-12.386,18.197-23.312,18.188c-8.828-0.01-13.304-1.514-18.375-6.188c-5.417-4.994-7.332-10.601-8.094-23.812
		c-0.613-10.617,1.486-25.521,4.562-32.438c6.135-13.806,21.711-19.576,34.969-12.969c5.818,2.897,8.986,6.532,12.095,13.78
		l2.094,4.875l6.25-0.688c6.188-0.693,28.045-4.158,32.594-5.156c2.132-0.469,2.32-0.912,1.844-4.469
		c-0.293-2.181-2.553-8.125-5.03-13.22C801.671,1360.129,781.585,1349.635,747.943,1349.625L747.943,1349.625z M920.443,1365.969
		c5.146,0,6.414,0.396,9.188,2.875c2.859,2.558,3.199,3.451,3.25,8.375c0.086,8.603-4.006,11.66-21.095,15.719
		c-10.856,2.578-12.196,2.568-12.78-0.219c-0.261-1.238-1.445-6.662-2.625-12.062c-1.181-5.4-1.974-9.959-1.781-10.125
		C895.838,1369.45,915.548,1365.969,920.443,1365.969z M328.224,1402.188c2.436,1.712,4.888,3.41,7.344,5.095
		C333.114,1405.598,330.666,1403.905,328.224,1402.188z M336.756,1408.094c2.713,1.853,5.449,3.683,8.188,5.5
		C342.211,1411.778,339.472,1409.95,336.756,1408.094z M356.662,1421.219c3.021,1.928,6.045,3.832,9.095,5.719
		C362.708,1425.055,359.686,1423.149,356.662,1421.219z M390.568,1441.657c2.162,1.229,4.356,2.416,6.532,3.625
		C394.916,1444.073,392.738,1442.885,390.568,1441.657z M397.1,1445.282c76.367,42.432,160.67,72.309,250.156,86.75
		c-74.463-12.218-148.164-35.67-216.312-69.095C419.46,1457.305,408.183,1451.417,397.1,1445.282z M795.412,1541.532
		c-3.098,0.096-6.207,0.188-9.312,0.25C789.202,1541.719,792.313,1541.631,795.412,1541.532z M783.662,1541.812
		c-2.57,0.043-5.146,0.074-7.719,0.095C778.518,1541.891,781.094,1541.854,783.662,1541.812z"/>
	<path id="path3031" inkscape:connector-curvature="0" fill="#FF0000" d="M627.974,362.469l-0.5,137l-0.5,137l-137,0.5l-137,0.5
		v136.5v136.5l137,0.5l137,0.5l0.25,136.5c0.229,126.926,0.362,136.588,1.938,137.75c1.334,0.984,29.994,1.25,135.406,1.25
		c73.55,0,134.442-0.26,135.312-0.594c1.432-0.549,1.594-13.545,1.594-136.812c0-104.596,0.266-136.483,1.188-137.405
		c0.921-0.922,32.719-1.188,137.031-1.188c128.422,0,135.883-0.096,136.562-1.75c0.396-0.963,0.719-61.826,0.719-135.25
		c0-73.425-0.323-134.288-0.719-135.25c-0.681-1.653-8.128-1.75-136.625-1.75c-112.783,0-136.104-0.225-137.031-1.344
		c-0.812-0.977-1.191-38.832-1.375-137.25l-0.25-135.906h-136.5H627.974z"/>
</g>
</svg>
