<?xml version="1.0" encoding="UTF-8" standalone="no"?>
<!-- Created with Inkscape (http://www.inkscape.org/) -->

<svg
   xmlns:dc="http://purl.org/dc/elements/1.1/"
   xmlns:cc="http://creativecommons.org/ns#"
   xmlns:rdf="http://www.w3.org/1999/02/22-rdf-syntax-ns#"
   xmlns:svg="http://www.w3.org/2000/svg"
   xmlns="http://www.w3.org/2000/svg"
   xmlns:sodipodi="http://sodipodi.sourceforge.net/DTD/sodipodi-0.dtd"
   xmlns:inkscape="http://www.inkscape.org/namespaces/inkscape"
   width="99.263496"
   height="58.772373"
   id="svg6022"
   version="1.1"
   inkscape:version="0.48.3.1 r9886"
   sodipodi:docname="Neues Dokument 15">
  <defs
     id="defs6024">
    <clipPath
       clipPathUnits="userSpaceOnUse"
       id="clipPath5992">
      <path
         inkscape:connector-curvature="0"
         d="m 1335.118,235.271 90.779,0 0,65.048 -90.779,0 0,-65.048 z"
         id="path5994" />
    </clipPath>
  </defs>
  <sodipodi:namedview
     id="base"
     pagecolor="#ffffff"
     bordercolor="#666666"
     borderopacity="1.0"
     inkscape:pageopacity="0.0"
     inkscape:pageshadow="2"
     inkscape:zoom="0.35"
     inkscape:cx="49.631725"
     inkscape:cy="29.386192"
     inkscape:document-units="px"
     inkscape:current-layer="layer1"
     showgrid="false"
     fit-margin-top="0"
     fit-margin-left="0"
     fit-margin-right="0"
     fit-margin-bottom="0"
     inkscape:window-width="613"
     inkscape:window-height="438"
     inkscape:window-x="51"
     inkscape:window-y="24"
     inkscape:window-maximized="0" />
  <metadata
     id="metadata6027">
    <rdf:RDF>
      <cc:Work
         rdf:about="">
        <dc:format>image/svg+xml</dc:format>
        <dc:type
           rdf:resource="http://purl.org/dc/dcmitype/StillImage" />
        <dc:title></dc:title>
      </cc:Work>
    </rdf:RDF>
  </metadata>
  <g
     inkscape:label="Ebene 1"
     inkscape:groupmode="layer"
     id="layer1"
     transform="translate(-300.36827,-502.976)">
    <g
       transform="matrix(1.25,0,0,-1.25,-1379.8776,867.031)"
       id="g5988">
      <g
         id="g5990"
         clip-path="url(#clipPath5992)">
        <g
           id="g5996"
           transform="translate(1411.6965,251.0181)">
          <path
             inkscape:connector-curvature="0"
             d="m 0,0 c 0,-2.541 3.874,-2.566 3.874,-4.277 0,-0.679 -0.465,-1.081 -1.069,-1.081 -0.692,0 -1.308,0.377 -1.308,1.383 l 0,0.227 -1.648,0 c 0,-2.075 1.34,-3.044 2.868,-3.044 1.824,0 2.893,1.031 2.893,2.591 0,2.843 -3.874,2.943 -3.874,4.314 0,0.616 0.339,0.994 0.956,0.994 0.692,0 1.219,-0.277 1.219,-1.283 l 1.644,0 C 5.486,1.697 4.11,2.541 2.729,2.541 0.931,2.541 0,1.559 0,0 m 6.301,0 c 0,-2.541 3.874,-2.566 3.874,-4.277 0,-0.679 -0.465,-1.081 -1.069,-1.081 -0.691,0 -1.308,0.377 -1.308,1.383 l 0,0.227 -1.648,0 c 0,-2.075 1.34,-3.044 2.868,-3.044 1.824,0 2.893,1.031 2.893,2.591 0,2.843 -3.874,2.943 -3.874,4.314 0,0.616 0.34,0.994 0.956,0.994 0.692,0 1.22,-0.277 1.22,-1.283 l 1.644,0 C 11.788,1.697 10.411,2.541 9.031,2.541 7.232,2.541 6.301,1.559 6.301,0 M -4.767,-0.277 c 0,1.006 0.44,1.283 1.132,1.283 0.692,0 1.132,-0.277 1.132,-1.283 l 0,-3.698 c 0,-1.006 -0.44,-1.283 -1.132,-1.283 -0.692,0 -1.132,0.277 -1.132,1.283 l 0,3.698 z m -1.736,-3.471 c 0,-2.239 1.183,-3.044 2.868,-3.044 1.686,0 2.868,0.805 2.868,3.044 l 0,3.245 c 0,2.239 -1.182,3.044 -2.868,3.044 -1.685,0 -2.868,-0.805 -2.868,-3.044 l 0,-3.245 z m -4.553,4.729 0.894,0 c 0.767,0 1.232,-0.377 1.232,-1.258 0,-0.88 -0.465,-1.258 -1.232,-1.258 l -0.894,0 0,2.516 z m 4.202,-7.647 -1.711,4.049 c 0.968,0.365 1.371,1.183 1.371,2.315 0,1.711 -0.994,2.717 -3.082,2.717 l -2.515,0 0,-9.081 1.735,0 0,3.697 0.831,0 1.509,-3.697 1.862,0 z m -10.818,6.389 c 0,1.006 0.441,1.283 1.132,1.283 0.692,0 1.132,-0.277 1.132,-1.283 l 0,-0.251 1.736,0 0,0.025 c 0,2.239 -1.182,3.044 -2.868,3.044 -1.685,0 -2.867,-0.805 -2.867,-3.044 l 0,-3.245 c 0,-2.239 1.182,-3.044 2.867,-3.044 1.686,0 2.868,0.805 2.868,3.044 l 0,0.377 -1.736,0 0,-0.604 c 0,-1.006 -0.44,-1.283 -1.132,-1.283 -0.691,0 -1.132,0.277 -1.132,1.283 l 0,3.698 z m -8.59,1.158 0.604,0 c 1.081,0 1.509,-0.529 1.509,-1.812 l 0,-2.389 c 0,-1.359 -0.553,-1.812 -1.509,-1.812 l -0.604,0 0,6.013 z m -1.736,-7.547 2.415,0 c 1.988,0 3.095,0.855 3.17,3.144 l 0,2.793 c -0.075,2.288 -1.182,3.144 -3.17,3.144 l -2.415,0 0,-9.081 z m -0.88,0 0,1.534 -3.144,0 0,2.39 2.301,0 0,1.534 -2.301,0 0,2.089 3.018,0 0,1.534 -4.754,0 0,-9.081 4.88,0 z m -9.635,7.647 0.893,0 c 0.768,0 1.233,-0.377 1.233,-1.258 0,-0.88 -0.465,-1.258 -1.233,-1.258 l -0.893,0 0,2.516 z m 4.202,-7.647 -1.711,4.049 c 0.968,0.365 1.371,1.183 1.371,2.315 0,1.711 -0.994,2.717 -3.082,2.717 l -2.515,0 0,-9.081 1.735,0 0,3.697 0.831,0 1.509,-3.697 1.862,0 z m 38.109,10.564 0,5.861 0.026,0 2.654,-5.861 1.66,0 0,9.081 -1.585,0 0,-5.384 -0.025,0 -2.415,5.384 -1.899,0 0,-9.081 1.584,0 z m -5.433,7.119 0.025,0 0.843,-3.673 -1.723,0 0.855,3.673 z m -1.66,-7.119 0.49,1.911 2.403,0 0.44,-1.911 1.66,0 -2.188,9.081 -2.227,0 -2.251,-9.081 1.673,0 z m -2.189,9.081 -1.736,0 0,-9.081 1.736,0 0,9.081 z m -6.515,-1.535 0.604,0 c 1.082,0 1.509,-0.528 1.509,-1.811 l 0,-2.39 c 0,-1.358 -0.553,-1.811 -1.509,-1.811 l -0.604,0 0,6.012 z m -1.736,-7.546 2.415,0 c 1.988,0 3.095,0.855 3.17,3.144 l 0,2.792 c -0.075,2.289 -1.182,3.145 -3.17,3.145 l -2.415,0 0,-9.081 z m -3.849,7.119 0.026,0 0.842,-3.673 -1.723,0 0.855,3.673 z m -1.66,-7.119 0.491,1.911 2.402,0 0.44,-1.911 1.661,0 -2.189,9.081 -2.226,0 -2.252,-9.081 1.673,0 z m -6.527,0 0,5.861 0.025,0 2.654,-5.861 1.66,0 0,9.081 -1.585,0 0,-5.384 -0.025,0 -2.415,5.384 -1.899,0 0,-9.081 1.585,0 z m -5.434,7.119 0.025,0 0.843,-3.673 -1.723,0 0.855,3.673 z m -1.66,-7.119 0.49,1.911 2.403,0 0.44,-1.911 1.66,0 -2.188,9.081 -2.227,0 -2.251,-9.081 1.673,0 z m -5.798,6.389 c 0,1.006 0.44,1.283 1.132,1.283 0.691,0 1.132,-0.277 1.132,-1.283 l 0,-0.251 1.735,0 0,0.025 c 0,2.239 -1.182,3.044 -2.867,3.044 -1.686,0 -2.868,-0.805 -2.868,-3.044 l 0,-3.245 c 0,-2.239 1.182,-3.044 2.868,-3.044 1.685,0 2.867,0.805 2.867,3.044 l 0,0.377 -1.735,0 0,-0.604 c 0,-1.006 -0.441,-1.283 -1.132,-1.283 -0.692,0 -1.132,0.277 -1.132,1.283 l 0,3.698 z"
             style="fill:#e3000b;fill-opacity:1;fill-rule:nonzero;stroke:none"
             id="path5998" />
        </g>
        <g
           id="g6000"
           transform="translate(1362.3617,282.162)">
          <path
             inkscape:connector-curvature="0"
             d="m 0,0 0,9.082 -9.083,0 0,-9.082 -9.082,0 0,-9.082 9.082,0 0,-9.083 9.083,0 0,9.083 9.083,0 L 9.083,0 0,0 z"
             style="fill:#e3000b;fill-opacity:1;fill-rule:nonzero;stroke:none"
             id="path6002" />
        </g>
      </g>
    </g>
  </g>
</svg>
