<?xml version="1.0" encoding="UTF-8" standalone="no"?>
<svg
   xmlns:dc="http://purl.org/dc/elements/1.1/"
   xmlns:cc="http://creativecommons.org/ns#"
   xmlns:rdf="http://www.w3.org/1999/02/22-rdf-syntax-ns#"
   xmlns:svg="http://www.w3.org/2000/svg"
   xmlns="http://www.w3.org/2000/svg"
   viewBox="0 0 593.5733 395.70667"
   height="395.70667"
   width="593.5733"
   xml:space="preserve"
   id="svg2"
   version="1.1"><metadata
     id="metadata8"><rdf:RDF><cc:Work
         rdf:about=""><dc:format>image/svg+xml</dc:format><dc:type
           rdf:resource="http://purl.org/dc/dcmitype/StillImage" /><dc:title></dc:title></cc:Work></rdf:RDF></metadata><defs
     id="defs6" /><g
     transform="matrix(1.3333333,0,0,-1.3333333,0,395.70667)"
     id="g10"><g
       transform="scale(0.1)"
       id="g12"><path
         id="path14"
         style="fill:#ffffff;fill-opacity:1;fill-rule:nonzero;stroke:none"
         d="M 4451.76,0 H 828.609 L 0,1310.63 v 1657.2 H 4451.76 V 0" /><path
         id="path16"
         style="fill:#ed1c24;fill-opacity:1;fill-rule:nonzero;stroke:none"
         d="m 3493.94,718.469 c 0,-115.93 176.76,-117.071 176.76,-195.117 0,-30.993 -21.23,-49.352 -48.79,-49.352 -31.56,0 -59.67,17.199 -59.67,63.121 v 10.328 h -75.19 c 0,-94.66 61.13,-138.879 130.85,-138.879 83.21,0 132,47.059 132,118.219 0,129.699 -176.76,134.289 -176.76,196.84 0,28.121 15.49,45.34 43.61,45.34 31.57,0 55.65,-12.629 55.65,-58.539 l 75.01,0.031 c -3.15,85.418 -65.95,123.93 -128.94,123.93 -82.07,0 -124.53,-44.77 -124.53,-115.922 z m 287.5,0 c 0,-115.93 176.76,-117.071 176.76,-195.117 0,-30.993 -21.23,-49.352 -48.78,-49.352 -31.56,0 -59.68,17.199 -59.68,63.121 v 10.328 h -75.18 c 0,-94.66 61.13,-138.879 130.85,-138.879 83.2,0 131.99,47.059 131.99,118.219 0,129.699 -176.76,134.289 -176.76,196.84 0,28.121 15.49,45.34 43.61,45.34 31.57,0 55.66,-12.629 55.66,-58.539 l 75.01,0.031 c -3.15,85.418 -65.95,123.93 -128.95,123.93 -82.06,0 -124.53,-44.77 -124.53,-115.922 z m -505,-12.629 c 0,45.91 20.09,58.539 51.66,58.539 31.56,0 51.64,-12.629 51.64,-58.539 V 537.121 c 0,-45.922 -20.08,-58.531 -51.64,-58.531 -31.57,0 -51.66,12.609 -51.66,58.531 z m -79.19,-158.391 c 0,-102.14 53.95,-138.879 130.85,-138.879 76.9,0 130.84,36.739 130.84,138.879 v 148.063 c 0,102.156 -53.94,138.879 -130.84,138.879 -76.9,0 -130.85,-36.723 -130.85,-138.879 z m -207.73,215.789 h 40.75 c 35,0 56.23,-17.226 56.23,-57.398 0,-40.16 -21.23,-57.391 -56.23,-57.391 h -40.75 z M 3181.2,414.309 3103.14,599.09 c 44.2,16.648 62.56,53.949 62.56,105.609 0,78.051 -45.33,123.961 -140.61,123.961 H 2910.33 V 414.309 h 79.19 v 168.722 h 37.88 l 68.86,-168.722 z M 2687.67,705.84 c 0,45.91 20.08,58.539 51.64,58.539 31.56,0 51.65,-12.629 51.65,-58.539 v -11.469 h 79.2 v 1.141 c 0,102.156 -53.94,138.879 -130.85,138.879 -76.89,0 -130.84,-36.723 -130.84,-138.879 V 547.449 c 0,-102.14 53.95,-138.879 130.84,-138.879 76.91,0 130.85,36.739 130.85,138.879 v 17.211 h -79.2 v -27.539 c 0,-45.922 -20.09,-58.531 -51.65,-58.531 -31.56,0 -51.64,12.609 -51.64,58.531 z m -391.94,52.808 h 27.54 c 49.35,0 68.86,-24.117 68.86,-82.648 V 566.969 c 0,-61.989 -25.25,-82.641 -68.86,-82.641 h -27.54 z m -79.2,-344.339 h 110.18 c 90.68,0 141.19,39.019 144.62,143.48 v 127.402 c -3.43,104.43 -53.94,143.469 -144.62,143.469 h -110.18 z m -40.16,0 v 70.019 H 2032.9 v 109.031 h 105.02 v 70.012 H 2032.9 v 95.277 h 137.73 V 828.66 H 1953.7 V 414.309 Z m -439.59,348.929 h 40.75 c 35,0 56.24,-17.226 56.24,-57.398 0,-40.16 -21.24,-57.391 -56.24,-57.391 h -40.75 z m 191.68,-348.929 -78.05,184.781 c 44.19,16.648 62.55,53.949 62.55,105.609 0,78.051 -45.33,123.961 -140.6,123.961 H 1657.59 V 414.309 h 79.19 v 168.722 h 37.88 l 68.87,-168.722 z m 1738.79,481.992 v 267.419 h 1.15 l 121.09,-267.419 h 75.75 v 414.339 h -72.31 v -245.63 h -1.15 l -110.18,245.63 h -86.65 V 896.301 Z m -247.91,324.819 h 1.15 l 38.45,-167.57 h -78.62 z m -75.74,-324.819 22.37,87.23 h 109.62 l 20.08,-87.23 h 75.75 l -99.85,414.339 H 3369.99 L 3267.27,896.301 Z m -99.85,0 v 414.339 h -79.2 V 896.301 Z m -297.27,344.329 h 27.55 c 49.35,0 68.87,-24.11 68.87,-82.65 v -109.03 c 0,-61.981 -25.26,-82.641 -68.87,-82.641 h -27.55 z m -79.19,-344.329 h 110.18 c 90.68,0 141.18,39.027 144.62,143.469 v 127.4 c -3.44,104.44 -53.94,143.47 -144.62,143.47 h -110.18 z m -175.61,324.819 h 1.16 l 38.44,-167.57 h -78.62 z m -75.74,-324.819 22.38,87.23 h 109.61 l 20.08,-87.23 h 75.75 l -99.85,414.339 H 2642.33 L 2539.61,896.301 Z m -297.83,0 v 267.419 h 1.14 l 121.09,-267.419 h 75.76 v 414.339 h -72.32 v -245.63 h -1.14 l -110.19,245.63 H 2245.8 V 896.301 Z M 2070.2,1221.12 h 1.15 l 38.44,-167.57 h -78.61 z m -75.75,-324.819 22.38,87.23 h 109.61 l 20.08,-87.23 h 75.76 l -99.86,414.339 H 2020.84 L 1918.12,896.301 Z M 1729.9,1187.83 c 0,45.91 20.08,58.53 51.65,58.53 31.56,0 51.65,-12.62 51.65,-58.53 v -11.48 h 79.19 v 1.14 c 0,102.16 -53.94,138.89 -130.84,138.89 -76.91,0 -130.85,-36.73 -130.85,-138.89 v -148.05 c 0,-102.151 53.94,-138.881 130.85,-138.881 76.9,0 130.84,36.73 130.84,138.881 v 17.21 h -79.19 v -27.54 c 0,-45.911 -20.09,-58.532 -51.65,-58.532 -31.57,0 -51.65,12.621 -51.65,58.532 v 168.72" /><path
         id="path18"
         style="fill:#ed1c24;fill-opacity:1;fill-rule:nonzero;stroke:none"
         d="m 1243.01,2139.43 v 414.39 H 828.613 v -414.39 h -414.39 v -414.39 h 414.39 v -414.41 h 414.397 v 414.41 h 414.4 v 414.39 h -414.4" /></g></g></svg>