<?xml version="1.0" encoding="UTF-8" standalone="no"?>
<svg
   xmlns:dc="http://purl.org/dc/elements/1.1/"
   xmlns:cc="http://creativecommons.org/ns#"
   xmlns:rdf="http://www.w3.org/1999/02/22-rdf-syntax-ns#"
   xmlns:svg="http://www.w3.org/2000/svg"
   xmlns="http://www.w3.org/2000/svg"
   viewBox="0 0 914.30664 914.30664"
   height="914.30664"
   width="914.30664"
   xml:space="preserve"
   id="svg2"
   version="1.1"><metadata
     id="metadata8"><rdf:RDF><cc:Work
         rdf:about=""><dc:format>image/svg+xml</dc:format><dc:type
           rdf:resource="http://purl.org/dc/dcmitype/StillImage" /><dc:title></dc:title></cc:Work></rdf:RDF></metadata><defs
     id="defs6" /><g
     transform="matrix(1.3333333,0,0,-1.3333333,0,914.30667)"
     id="g10"><g
       transform="scale(0.1)"
       id="g12"><path
         id="path14"
         style="fill:#231f20;fill-opacity:1;fill-rule:nonzero;stroke:none"
         d="M 3428.64,0 C 2484.72,0 1627.2,385.199 1005.84,1005.84 385.199,1627.2 0,2484.72 0,3428.64 c 0,943.92 385.199,1801.44 1005.84,2422.8 621.36,620.64 1478.88,1005.84 2422.8,1005.84 v -52.56 C 2499.12,6804.72 1655.28,6425.28 1043.28,5814 432,5202 52.5625,4358.16 52.5625,3428.64 52.5625,2499.12 432,1655.28 1043.28,1043.28 1655.28,432 2499.12,52.5625 3428.64,52.5625 Z m 0,6857.28 c 943.92,0 1801.44,-385.2 2422.8,-1005.84 620.64,-621.36 1005.84,-1478.88 1005.84,-2422.8 0,-943.92 -385.2,-1801.44 -1005.84,-2422.8 C 5230.08,385.199 4372.56,0 3428.64,0 v 0 52.5625 0 C 4358.16,52.5625 5202,432 5814,1043.28 c 611.28,612 990.72,1455.84 990.72,2385.36 0,929.52 -379.44,1773.36 -990.72,2385.36 -612,611.28 -1455.84,990.72 -2385.36,990.72 v 0 52.56 0" /><path
         id="path16"
         style="fill:#231f20;fill-opacity:1;fill-rule:nonzero;stroke:none"
         d="m 3428.64,1159.92 c -624.24,0 -1191.6,254.88 -1602.72,666 -411.12,411.12 -666,978.48 -666,1602.72 0,1249.2 1019.52,2268.72 2268.72,2268.72 v -53.28 c -1220.4,0 -2215.44,-995.04 -2215.44,-2215.44 0,-609.84 248.4,-1164.24 650.16,-1565.28 C 2264.4,1461.6 2818.8,1213.2 3428.64,1213.2 Z m 0,4537.44 c 624.24,0 1191.6,-254.88 1602.72,-666 411.12,-411.12 666,-978.48 666,-1602.72 0,-624.24 -254.88,-1191.6 -666,-1602.72 -411.12,-411.12 -978.48,-666 -1602.72,-666 v 53.28 c 609.84,0 1164.24,248.4 1565.28,650.16 401.76,401.04 650.16,955.44 650.16,1565.28 0,609.84 -248.4,1164.24 -650.16,1565.28 -401.04,401.76 -955.44,650.16 -1565.28,650.16 v 53.28" /><path
         id="path18"
         style="fill:#ed1c24;fill-opacity:1;fill-rule:nonzero;stroke:none"
         d="m 3438,5389.2 c 619.2,0 1172.16,-300.24 1524.24,-764.64 -264.24,223.2 -603.36,357.84 -972.72,357.84 -838.08,0 -1522.08,-694.8 -1522.08,-1547.28 0,-851.76 684,-1546.56 1522.08,-1546.56 369.36,0 708.48,134.64 972.72,357.84 C 4610.16,1782 4057.2,1481.76 3438,1481.76 c -1059.12,0 -1923.12,877.68 -1923.12,1953.36 0,1076.4 864,1954.08 1923.12,1954.08" /><path
         id="path20"
         style="fill:#231f20;fill-opacity:1;fill-rule:nonzero;stroke:none"
         d="m 1285.2,2092.32 c -1.44,-5.04 -5.04,-6.48 -10.08,-4.32 l -66.96,25.92 c -4.32,2.16 -5.76,5.04 -4.32,10.08 l 25.2,67.68 c 1.44,5.76 5.76,7.2 12.24,4.32 l 63.36,-23.76 c 5.76,-2.16 7.2,-6.48 5.04,-12.24 l -24.48,-67.68" /><path
         id="path22"
         style="fill:#231f20;fill-opacity:1;fill-rule:nonzero;stroke:none"
         d="m 1478.16,1774.8 c -0.72,-4.32 -4.32,-6.48 -9.36,-5.76 l -70.56,14.4 c -5.04,1.44 -7.2,4.32 -6.48,9.36 l 12.96,71.28 c 0.72,5.04 5.04,7.2 11.52,6.48 l 66.96,-12.96 c 5.76,-0.72 8.64,-4.32 7.2,-10.8 l -12.24,-72" /><path
         id="path24"
         style="fill:#231f20;fill-opacity:1;fill-rule:nonzero;stroke:none"
         d="m 1653.84,1653.84 c -0.72,-5.04 -2.88,-7.92 -7.92,-7.2 l -72.72,7.2 c -4.32,0 -7.2,2.88 -7.2,8.64 l 5.76,72 c 0.72,5.76 4.32,7.92 11.52,7.2 l 67.68,-5.76 c 5.76,0 8.64,-3.6 7.92,-9.36 l -5.04,-72.72" /><path
         id="path26"
         style="fill:#231f20;fill-opacity:1;fill-rule:nonzero;stroke:none"
         d="m 1814.4,1496.88 -360.72,-313.2 c -18,-15.12 -30.96,-19.44 -38.16,-11.52 -7.92,7.2 -2.88,23.04 15.84,46.8 l 244.8,317.52 134.64,-20.16 c 6.48,-0.72 10.08,-2.16 12.24,-3.6 2.88,-2.88 0,-7.92 -8.64,-15.84" /><path
         id="path28"
         style="fill:#231f20;fill-opacity:1;fill-rule:nonzero;stroke:none"
         d="M 3096,1061.28 2975.04,599.762 c -5.76,-23.043 -14.4,-33.121 -24.48,-31.68 -10.8,2.16 -15.84,18 -13.68,47.52 l 23.04,400.318 122.4,59.76 c 5.76,2.88 10.08,4.32 12.24,3.6 4.32,-0.72 4.32,-6.48 1.44,-18" /><path
         id="path30"
         style="fill:#231f20;fill-opacity:1;fill-rule:nonzero;stroke:none"
         d="m 5107.68,1491.12 c 4.32,0 5.76,-2.88 5.76,-7.92 l -7.2,-66.96 c -0.72,-5.04 -3.6,-7.2 -7.92,-7.2 l -64.8,7.2 -6.48,-64.8 c -0.72,-4.32 -3.6,-6.48 -7.92,-5.76 l -67.68,5.76 c -5.04,0.72 -7.92,4.32 -7.2,10.8 l 6.48,61.92 c 0.72,5.76 3.6,8.64 9.36,7.92 l 63.36,-6.48 6.48,63.36 c 0.72,5.76 4.32,7.92 10.08,7.2 l 67.68,-5.04" /><path
         id="path32"
         style="fill:#231f20;fill-opacity:1;fill-rule:nonzero;stroke:none"
         d="m 5797.44,1481.76 c 4.32,0 7.2,-2.16 7.2,-7.2 l 5.04,-66.96 c 0,-2.16 -0.72,-4.32 -1.44,-5.76 -1.44,-1.44 -2.88,-1.44 -5.76,-2.16 l -64.8,-4.32 4.32,-64.8 c 0.72,-4.32 -1.44,-7.2 -6.48,-7.92 l -66.96,-5.76 c -5.76,-0.72 -8.64,2.88 -8.64,9.36 l -5.04,62.64 c -0.72,5.76 2.16,8.64 7.92,9.36 l 63.36,4.32 -4.32,63.36 c -0.72,5.76 2.16,8.64 7.92,9.36 l 67.68,6.48" /><path
         id="path34"
         style="fill:#231f20;fill-opacity:1;fill-rule:nonzero;stroke:none"
         d="m 6311.52,2400.48 c 4.32,2.16 7.92,0.72 10.08,-3.6 l 28.8,-66.24 c 2.16,-5.04 0.72,-7.92 -3.6,-10.8 l -65.52,-30.24 c -5.04,-2.16 -9.36,0 -12.24,5.76 l -28.08,61.92 c -2.88,5.04 -0.72,9.36 5.04,12.24 l 65.52,30.96" /><path
         id="path36"
         style="fill:#231f20;fill-opacity:1;fill-rule:nonzero;stroke:none"
         d="m 2234.88,889.922 c -7.2,-15.121 -15.84,-20.16 -26.64,-15.121 -0.72,0.719 -2.16,1.441 -3.6,2.16 -22.32,12.238 -35.28,40.32 -40.32,84.238 -2.88,25.922 0.72,48.241 9.36,66.961 7.92,17.28 18.72,25.2 30.96,22.32 2.16,-0.72 4.32,-1.44 6.48,-2.16 22.32,-10.08 33.84,-37.44 35.28,-82.078 0.72,-33.121 -2.88,-58.32 -11.52,-76.32 z m 633.6,-90 c -54.72,20.16 -118.8,57.598 -192.96,113.039 -70.56,53.281 -112.32,82.078 -125.28,85.68 -26.64,7.919 -57.6,0.718 -92.88,-23.762 -25.2,-17.277 -43.92,-33.84 -56.16,-51.117 -2.16,-3.602 -4.32,-7.203 -5.04,-10.801 -2.88,-10.082 -0.72,-16.559 8.64,-19.441 6.48,-2.161 14.4,-0.719 21.6,3.601 12.24,7.199 21.6,12.238 26.64,15.121 10.08,4.317 23.04,4.317 38.88,-0.722 11.52,-3.598 33.12,-18 65.52,-43.2 41.76,-33.121 69.84,-54 84.96,-64.078 -54,-3.601 -92.16,-4.32 -114.48,-2.883 -36.72,2.883 -78.48,11.52 -126,25.922 l -30.96,9.36 1.44,2.879 -30.96,14.402 c -18,7.918 -29.52,30.957 -33.84,68.398 l -10.8,102.96 c -7.92,39.6 -25.92,65.52 -53.28,78.48 -12.96,5.76 -25.92,10.08 -38.88,11.52 -20.16,2.16 -39.6,-2.16 -58.32,-12.96 -24.48,-12.96 -43.2,-33.84 -56.16,-62.64 -7.92,-17.28 -15.12,-28.08 -22.32,-33.12 -12.96,-10.798 -30.96,-10.798 -53.28,-0.72 l -13.68,6.48 c -12.24,18.72 -22.32,51.84 -28.8,101.52 -0.72,8.64 -2.88,12.96 -5.04,14.4 -1.44,1.44 -6.48,0.72 -13.68,-2.16 l -102.24,-43.92 c 32.4,-84.961 41.76,-139.68 26.64,-162.719 -18,-28.082 -73.44,-38.878 -164.88,-33.839 -36,2.16 -77.04,7.199 -123.84,17.277 -23.04,4.32 -37.44,2.883 -42.48,-5.039 -5.76,-10.078 10.8,-30.961 51.12,-64.078 29.52,-24.481 54.72,-42.481 74.88,-54.723 10.8,-6.476 19.44,-10.078 25.92,-10.797 5.04,0 14.4,1.438 28.08,4.321 83.52,21.597 149.04,69.839 196.56,145.437 1.44,-6.48 5.76,-12.238 11.52,-16.559 l 19.44,-12.242 3.6,5.762 2.88,-1.441 c 17.28,-7.918 37.44,-7.918 60.48,0.722 17.28,6.477 33.84,16.559 48.24,30.238 9.36,-69.839 32.4,-113.039 68.4,-130.32 20.16,-9.359 42.48,-7.199 66.96,5.762 12.24,6.48 23.76,15.117 36.72,25.918 2.88,-21.598 7.2,-37.438 11.52,-48.238 7.2,-17.282 20.16,-30.243 38.88,-38.883 l 12.24,-5.758 -2.16,-5.762 67.68,-20.879 c 48.24,-14.398 101.52,-18.718 158.4,-12.238 18,2.16 62.64,10.078 135.36,25.918 46.08,9.359 79.92,11.52 100.08,5.039 26.64,-8.637 39.6,-12.238 38.16,-11.519 7.2,-1.438 13.68,1.441 20.88,7.921 l 51.84,51.122 c 5.04,5.039 7.92,8.636 8.64,12.238 2.16,5.762 -2.88,10.801 -14.4,15.121" /><path
         id="path38"
         style="fill:#231f20;fill-opacity:1;fill-rule:nonzero;stroke:none"
         d="m 5928.48,2044.8 c -12.96,-23.76 -41.76,-36 -87.12,-38.16 -0.72,0 -1.44,0 -2.16,0 -25.92,-0.72 -48.24,3.6 -66.24,13.68 -19.44,10.8 -25.92,23.76 -17.28,38.88 11.52,20.88 39.6,30.96 84.24,29.52 0,0 0.72,0 1.44,-0.72 32.4,-1.44 56.88,-6.48 73.44,-15.84 14.4,-7.92 19.44,-17.28 13.68,-27.36 z m 188.64,432.72 c -6.48,47.52 -5.76,80.64 2.16,100.8 10.08,25.92 15.12,38.88 14.4,37.44 1.44,6.48 -0.72,13.68 -7.2,20.88 l -46.8,55.44 c -5.04,5.76 -8.64,8.64 -11.52,10.08 -5.76,2.16 -11.52,-2.88 -15.84,-13.68 -24.48,-53.28 -66.24,-114.48 -126.72,-184.32 -41.76,-48.24 -69.84,-82.8 -84.24,-102.24 -5.76,-7.92 -8.64,-13.68 -10.08,-17.28 -8.64,-22.32 -5.76,-49.68 10.08,-81.36 2.16,-4.32 4.32,-8.64 7.2,-12.96 15.12,-25.92 30.96,-46.08 47.52,-59.04 2.88,-2.88 6.48,-5.04 9.36,-6.48 10.8,-3.6 17.28,-1.44 20.88,7.2 2.16,7.2 1.44,14.4 -2.16,21.6 -6.48,13.68 -10.8,23.04 -13.68,28.08 -3.6,10.8 -2.16,23.76 3.6,38.88 4.32,11.52 20.16,31.68 47.52,61.92 36,39.6 59.04,66.24 69.84,80.64 0,-54 -2.16,-92.16 -5.04,-114.48 -5.04,-36 -16.56,-77.76 -34.56,-123.84 l -21.6,-14.4 1.44,-5.04 -15.84,-29.52 c -10.08,-17.28 -33.84,-26.64 -71.28,-28.8 l -43.2,-1.44 -60.48,-2.16 c -39.6,-5.76 -66.96,-21.6 -81.36,-47.52 -18.72,-33.84 -20.88,-66.24 -5.76,-97.92 11.52,-24.48 30.96,-44.64 58.32,-59.76 16.56,-9.36 27.36,-17.28 32.4,-24.48 7.92,-12.24 7.92,-26.64 0.72,-43.92 l -7.92,5.04 -11.52,-16.56 c -9.36,-12.96 -22.32,-25.2 -40.32,-36 -18.72,-11.52 -35.28,-17.28 -49.68,-18 5.76,31.68 8.64,51.12 9.36,58.32 0.72,26.64 -6.48,46.08 -22.32,56.88 -19.44,13.68 -41.76,13.68 -66.24,0 -20.16,-10.8 -37.44,-27.36 -54,-50.4 -21.6,-30.96 -31.68,-62.64 -31.68,-96.48 0,-27.36 5.04,-43.92 15.12,-51.12 6.48,-4.32 19.44,-2.88 38.16,4.32 30.96,12.24 54.72,20.16 71.28,23.04 7.92,-28.8 4.32,-57.6 -10.08,-87.12 l -0.72,0.72 -20.16,-23.76 c -28.8,-32.4 -66.24,-33.12 -113.76,0 -15.84,10.08 -26.64,11.52 -33.12,4.32 -6.48,-7.92 -3.6,-18.72 7.2,-33.84 36,-46.08 38.88,-86.4 10.08,-118.8 l -14.4,-17.28 4.32,-4.32 c -29.52,-23.04 -41.04,-34.56 -53.28,-20.16 -2.16,3.6 -5.04,9.36 -8.64,18.72 -2.16,7.2 -5.76,12.96 -10.8,16.56 -5.76,4.32 -10.8,4.32 -15.84,0.72 -5.76,-4.32 -9.36,-15.12 -10.8,-30.96 -12.24,-117.36 -79.2,-226.08 -202.32,-325.44 -36,-29.52 -62.64,-48.96 -79.92,-59.04 -64.08,-37.44 -113.04,-34.56 -148.32,9.36 -2.88,3.6 -6.48,8.64 -10.8,16.56 -4.32,7.92 -8.64,13.68 -11.52,17.28 -7.92,10.08 -15.84,12.24 -22.32,7.2 -5.04,-4.32 -7.2,-10.08 -5.76,-17.28 5.76,-33.84 20.16,-66.24 43.92,-95.04 74.88,-92.882 169.92,-92.159 285.12,1.44 87.12,70.56 146.88,143.28 178.56,218.88 18,42.48 27.36,90.72 28.08,144 15.84,-14.4 33.84,-23.76 54.72,-26.64 29.52,-5.04 57.6,3.6 84.96,25.2 l 8.64,28.8 v 7.92 l 9.36,10.8 c 28.8,33.12 28.08,72.72 -0.72,119.52 50.4,-21.6 91.44,-15.12 121.68,20.16 l 3.6,4.32 5.04,-3.6 14.4,20.16 c 22.32,32.4 30.96,63.36 24.48,95.04 -3.6,18.72 -15.12,41.76 -33.84,66.96 56.16,-12.24 99.36,-6.48 128.88,16.56 7.92,5.76 15.12,13.68 20.88,22.32 l 2.16,2.88 12.24,-6.48 12.24,23.04 c 9.36,16.56 10.8,36.72 3.6,60.48 -5.04,18 -14.4,35.28 -26.64,50.4 70.56,4.32 115.2,24.48 134.64,59.04 15.84,28.08 7.2,63.36 -24.48,105.84 21.6,1.44 38.16,4.32 48.96,7.92 18,6.48 31.68,18 41.76,36 l 12.96,0.72 5.04,-0.72 25.2,66.24 c 18,46.8 25.92,99.36 23.76,156.96 -0.72,18 -6.48,63.36 -16.56,136.08" /><path
         id="path40"
         style="fill:#231f20;fill-opacity:1;fill-rule:nonzero;stroke:none"
         d="m 4723.92,882.719 c -10.8,-4.317 -24.48,-9.36 -43.2,-11.52 -15.12,-1.437 -33.12,-2.16 -55.44,0.723 3.6,6.48 5.76,17.277 6.48,31.68 0,12.957 -0.72,23.757 -3.6,31.679 20.88,-2.879 38.16,-5.761 52.56,-8.64 32.4,-5.762 48.96,-12.243 54,-24.481 3.6,-8.64 0,-15.121 -10.8,-19.441 z m -149.04,14.402 c -3.6,-7.922 -10.08,-13.68 -18,-17.281 -5.04,-2.879 -10.08,-4.32 -33.84,-1.438 -1.44,0 -2.88,0 -4.32,0.719 -29.52,3.598 -46.08,9.359 -49.68,16.559 -3.6,7.922 -0.72,16.562 7.2,25.922 6.48,8.64 14.4,14.398 22.32,18 9.36,4.32 13.68,6.48 24.48,5.757 2.88,0 7.2,-0.718 11.52,-1.437 22.32,-3.602 35.28,-10.801 41.04,-22.32 2.88,-7.922 2.88,-15.84 -0.72,-24.481 z m 105.84,134.639 c -9.36,5.76 -19.44,11.52 -30.24,17.28 -33.12,11.52 -79.92,23.04 -127.44,33.12 -39.6,8.64 -79.2,15.84 -111.6,20.16 -6.48,2.16 -12.24,3.6 -15.84,2.16 -6.48,-0.72 -10.08,-6.48 -12.24,-16.56 l 5.76,-125.998 59.76,-14.402 c -13.68,-10.801 -25.2,-25.2 -36,-43.918 -12.96,-20.883 -18,-38.879 -15.12,-52.563 5.04,-22.32 20.88,-37.437 48.24,-45.359 l -42.48,-8.641 -10.8,-2.16 c -22.32,-4.316 -38.88,2.883 -49.68,21.601 -7.2,11.52 -15.84,38.879 -25.92,80.641 l -59.76,244.079 c -4.32,15.12 -10.08,22.32 -19.44,20.16 -10.08,-1.44 -14.4,-11.52 -12.96,-28.08 13.68,-146.159 3.6,-257.038 -28.08,-334.081 -12.24,38.16 -33.12,74.883 -62.64,110.16 -28.8,35.282 -61.2,61.922 -97.2,80.641 23.04,15.84 33.84,27.36 32.4,33.12 -1.44,5.04 -9.36,7.92 -24.48,8.64 -48.96,2.16 -90.72,10.8 -125.28,25.92 -7.2,2.88 -11.52,4.32 -13.68,3.6 -3.6,-0.72 -4.32,-5.04 -3.6,-14.4 2.88,-31.68 5.76,-61.919 9.36,-91.439 0.72,-7.199 4.32,-12.242 10.08,-14.402 56.88,-18.719 97.92,-34.559 123.84,-47.519 43.92,-22.321 78.48,-48.957 103.68,-80.641 14.4,-19.438 22.32,-33.84 23.04,-43.918 1.44,-16.559 -21.6,-44.641 -69.12,-84.238 -38.16,-31.684 -63.36,-51.121 -75.6,-60.481 -16.56,-11.523 -24.48,-21.601 -23.04,-28.082 2.16,-9.359 19.44,-10.078 52.56,-3.597 15.84,3.597 37.44,9.359 63.36,17.277 41.04,12.961 67.68,25.922 77.76,41.039 12.96,18 26.64,60.48 39.6,128.16 10.08,51.121 18,102.961 23.76,156.242 2.16,-10.082 4.32,-16.562 4.32,-19.441 l 10.08,-48.238 c 3.6,-18.723 6.48,-35.282 9.36,-48.961 21.6,-105.84 58.32,-153.36 110.16,-143.282 l 13.68,2.883 32.4,6.481 c 21.6,4.316 45.36,15.117 71.28,30.957 3.6,2.16 6.48,4.32 10.08,5.761 20.88,14.399 38.16,29.52 50.4,44.641 7.92,28.797 61.92,20.16 107.28,17.277 20.16,-1.437 38.16,-1.437 49.68,2.883 28.08,5.758 47.52,24.477 58.32,56.879 8.64,23.758 11.52,45.359 7.92,63.359 -8.64,42.481 -47.52,84.239 -115.92,125.28" /><path
         id="path42"
         style="fill:#231f20;fill-opacity:1;fill-rule:nonzero;stroke:none"
         d="m 3764.16,907.922 c 2.16,-4.32 3.6,-7.203 3.6,-10.082 0,-5.758 -5.04,-7.918 -13.68,-7.918 -6.48,0 -15.12,0.719 -26.64,2.879 l -13.68,-385.922 c -2.16,-51.117 -17.28,-93.598 -46.08,-127.438 -43.2,-49.679 -112.32,-74.878 -208.08,-75.601 -54,-0.719 -99.36,12.242 -135.36,38.16 -40.32,28.801 -60.48,69.84 -61.2,122.398 0,17.282 3.6,39.602 10.08,68.403 6.48,28.801 13.68,49.679 20.88,64.078 5.04,9.363 10.8,13.684 18,14.402 6.48,0 9.36,-4.32 9.36,-12.242 0.72,-2.879 0,-5.758 -1.44,-8.637 -5.76,-21.601 -9.36,-38.16 -9.36,-51.843 0.72,-80.637 56.16,-120.239 164.16,-119.52 56.16,0.723 104.4,11.524 144,32.402 32.4,16.559 48.96,31.68 48.96,44.641 -1.44,126 -15.84,271.438 -42.48,437.758 l 68.4,77.76 c 3.6,3.6 7.2,5.76 10.08,5.76 4.32,0 7.92,-2.88 10.8,-9.36 l 49.68,-100.078" /><path
         id="path44"
         style="fill:#231f20;fill-opacity:1;fill-rule:nonzero;stroke:none"
         d="m 913.68,5374.08 c 4.32,0.72 6.48,-1.44 7.203,-5.76 l 11.515,-63.36 c 0.723,-4.32 -0.718,-7.2 -5.757,-7.92 l -61.203,-10.8 10.8,-60.48 c 0.723,-4.32 -0.718,-7.2 -5.039,-7.92 L 807.84,5205.6 c -4.32,-0.72 -7.922,1.44 -8.641,7.92 l -10.797,58.32 c -1.441,5.76 1.438,8.64 6.477,10.08 l 59.762,10.08 -10.801,59.76 c -0.719,5.04 1.441,8.64 6.48,9.36 l 63.36,12.96" /><path
         id="path46"
         style="fill:#231f20;fill-opacity:1;fill-rule:nonzero;stroke:none"
         d="m 1825.92,6100.56 c 4.32,-0.72 5.76,-3.6 5.04,-7.92 l -14.4,-62.64 c -0.72,-4.32 -3.6,-5.76 -8.64,-5.04 l -59.76,14.4 -14.4,-60.48 c -0.72,-4.32 -3.6,-6.48 -7.92,-5.04 l -62.64,12.96 c -5.04,1.44 -6.48,5.04 -5.04,10.8 l 12.96,58.32 c 1.44,5.76 4.32,7.92 10.08,6.48 l 58.32,-13.68 13.68,59.04 c 1.44,5.04 4.32,7.2 10.08,5.76 l 62.64,-12.96" /><path
         id="path48"
         style="fill:#231f20;fill-opacity:1;fill-rule:nonzero;stroke:none"
         d="m 2148.48,6284.88 c 4.32,-1.44 5.76,-4.32 3.6,-8.64 l -23.04,-59.76 c -1.44,-4.32 -4.32,-5.04 -8.64,-3.6 l -58.32,22.32 -21.6,-58.32 c -1.44,-4.32 -4.32,-5.76 -8.64,-3.6 l -60.48,22.32 c -4.32,1.44 -5.76,5.04 -3.6,10.8 l 20.88,56.16 c 2.16,5.04 5.76,6.48 10.8,5.04 l 56.16,-22.32 22.32,56.88 c 1.44,5.04 5.04,6.48 10.08,4.32 l 60.48,-21.6" /><path
         id="path50"
         style="fill:#231f20;fill-opacity:1;fill-rule:nonzero;stroke:none"
         d="m 2068.56,6347.52 c 4.32,-1.44 5.76,-4.32 4.32,-8.64 l -23.04,-59.04 c -1.44,-3.6 -4.32,-5.04 -8.64,-3.6 l -59.04,21.6 c -5.04,1.44 -5.76,5.04 -4.32,10.8 l 20.88,55.44 c 2.16,5.04 5.76,6.48 10.8,4.32 l 59.04,-20.88" /><path
         id="path52"
         style="fill:#231f20;fill-opacity:1;fill-rule:nonzero;stroke:none"
         d="m 2802.24,5986.08 c 3.6,-2.16 4.32,-5.04 2.16,-9.36 l -33.84,-54 c -1.44,-2.16 -2.88,-3.6 -4.32,-3.6 -2.16,-0.72 -3.6,0 -5.76,1.44 l -52.56,32.4 -32.4,-52.56 c -2.16,-3.6 -5.76,-4.32 -9.36,-2.16 l -54.72,33.12 c -5.04,2.88 -5.04,6.48 -1.44,12.24 l 30.96,51.12 c 2.88,4.32 6.48,5.04 11.52,2.16 l 51.12,-31.68 31.68,51.12 c 2.88,4.32 6.48,5.04 11.52,2.16 l 55.44,-32.4" /><path
         id="path54"
         style="fill:#231f20;fill-opacity:1;fill-rule:nonzero;stroke:none"
         d="m 5708.88,5515.2 c 0,-5.04 -2.88,-7.2 -7.92,-7.2 l -67.68,1.44 c -5.04,0 -7.2,2.16 -7.2,7.2 v 69.12 c 0,5.04 2.88,7.92 9.36,7.2 h 64.8 c 5.04,0 7.92,-3.6 8.64,-9.36 v -68.4" /><path
         id="path56"
         style="fill:#231f20;fill-opacity:1;fill-rule:nonzero;stroke:none"
         d="m 5991.12,5094 c -0.72,-5.04 -3.6,-6.48 -8.64,-5.76 l -66.96,15.12 c -4.32,0.72 -6.48,3.6 -5.76,8.64 l 13.68,67.68 c 0.72,5.04 4.32,7.2 10.8,5.76 l 63.36,-12.96 c 5.76,-1.44 7.92,-4.32 7.2,-10.8 L 5991.12,5094" /><path
         id="path58"
         style="fill:#231f20;fill-opacity:1;fill-rule:nonzero;stroke:none"
         d="m 6174,4851.36 c -1.44,-5.04 -4.32,-6.48 -9.36,-5.04 l -64.8,21.6 c -4.32,1.44 -6.48,5.04 -5.04,9.36 l 20.88,65.52 c 1.44,5.76 5.04,7.2 11.52,5.04 l 61.92,-19.44 c 5.04,-2.16 7.2,-5.76 5.04,-11.52 L 6174,4851.36" /><path
         id="path60"
         style="fill:#231f20;fill-opacity:1;fill-rule:nonzero;stroke:none"
         d="m 2245.68,6222.24 c -3.6,3.6 -6.48,4.32 -8.64,3.6 -2.88,-1.44 -4.32,-4.32 -5.76,-8.64 l -15.12,-72 c 33.84,-15.84 54,-30.96 60.48,-44.64 7.92,-18 0.72,-32.4 -21.6,-42.48 -28.8,-12.24 -50.4,-15.12 -66.24,-7.2 -7.92,3.6 -16.56,12.96 -26.64,27.36 -7.2,11.52 -14.4,15.12 -22.32,11.52 -6.48,-2.88 -8.64,-10.8 -5.76,-23.76 3.6,-19.44 5.76,-32.4 5.04,-37.44 -2.16,-15.12 -10.8,-26.64 -28.08,-33.84 -19.44,-8.64 -35.28,-8.64 -47.52,0 -4.32,2.88 -12.24,12.24 -23.04,28.8 -7.92,10.8 -15.12,15.12 -21.6,11.52 -7.2,-2.88 -9.36,-10.8 -6.48,-23.76 3.6,-18.72 5.04,-31.68 4.32,-37.44 -1.44,-15.12 -11.52,-26.64 -29.52,-34.56 l -36.72,-16.56 4.32,-10.8 -15.84,-10.08 c -35.28,-22.32 -69.84,-11.52 -104.4,30.96 -10.8,13.68 -20.16,18 -28.08,12.96 -7.92,-5.04 -8.64,-15.84 -2.88,-32.4 19.44,-51.84 11.52,-89.28 -23.76,-110.88 l -10.8,-7.2 -5.04,2.88 -33.84,-10.8 c -61.2,-54 -98.64,-108.72 -109.44,-172.8 -10.8,-57.6 -4.32,-99.36 18,-124.56 23.04,-27.36 59.04,-20.16 105.84,20.88 l 81.36,70.56 c 13.68,12.24 22.32,15.84 25.92,12.24 2.88,-3.6 0.72,-11.52 -6.48,-23.76 -21.6,-36 -63.36,-80.64 -124.56,-133.92 -41.76,-36.72 -84.96,-62.64 -128.16,-78.48 -60.48,-22.32 -105.84,-15.84 -136.8,20.16 -13.68,15.12 -25.2,36 -34.56,61.92 -2.16,5.04 -3.6,8.64 -6.48,11.52 -5.76,7.2 -12.24,7.92 -17.28,3.6 -5.76,-5.04 -7.92,-13.68 -5.76,-26.64 2.88,-20.88 11.52,-46.08 25.92,-74.88 13.68,-27.36 28.08,-49.68 43.92,-67.68 37.44,-43.2 85.68,-56.88 143.28,-40.32 41.04,12.24 83.52,36.72 127.44,74.88 71.28,61.92 119.52,115.2 146.16,160.56 36.72,62.64 35.28,115.92 -2.88,160.56 -23.04,25.92 -49.68,25.92 -79.92,-0.72 l -64.08,-56.16 c -40.32,-34.56 -64.8,-48.24 -72,-38.88 -9.36,10.08 6.48,33.12 46.8,67.68 l 109.44,88.56 2.16,-5.04 34.56,11.52 c 35.28,21.6 46.08,58.32 32.4,108.72 40.32,-33.84 79.2,-39.6 116.64,-15.84 l 24.48,15.12 -5.04,8.64 13.68,6.48 c 11.52,5.04 20.88,14.4 28.8,27.36 7.92,13.68 11.52,26.64 10.8,39.6 28.08,-20.88 56.88,-24.48 84.96,-11.52 13.68,5.76 25.2,15.84 33.84,29.52 7.92,13.68 12.24,28.8 11.52,43.2 25.92,-23.76 53.28,-29.52 82.08,-16.56 29.52,12.96 46.08,38.88 49.68,77.04 2.88,33.84 -2.88,68.4 -18.72,103.68 -16.56,36.72 -40.32,69.84 -72,98.64" /><path
         id="path62"
         style="fill:#231f20;fill-opacity:1;fill-rule:nonzero;stroke:none"
         d="m 2982.96,6202.8 c -13.68,-2.16 -27.36,0.72 -40.32,10.08 -11.52,8.64 -23.04,22.32 -34.56,41.04 -11.52,19.44 -18,37.44 -20.88,53.28 -3.6,23.76 2.88,36.72 20.16,39.6 11.52,2.16 23.04,-2.16 35.28,-12.96 8.64,-7.92 18,-18.72 27.36,-33.12 15.84,-25.2 25.92,-46.8 28.8,-64.8 2.88,-20.16 -2.16,-30.96 -15.84,-33.12 z m 10.8,147.6 c -15.12,21.6 -32.4,36.72 -51.12,44.64 -16.56,7.92 -34.56,10.08 -53.28,7.2 -25.92,-3.6 -46.08,-16.56 -59.04,-38.16 -13.68,-22.32 -18,-46.08 -13.68,-72.72 2.88,-20.16 2.88,-34.56 0,-43.92 -4.32,-13.68 -15.84,-22.32 -34.56,-25.2 l -11.52,-2.16 v 1.44 l -13.68,-3.6 h -2.16 l -12.96,-3.6 c -40.32,-8.64 -69.84,12.24 -87.84,64.08 -5.76,16.56 -13.68,23.04 -22.32,20.88 -9.36,-1.44 -13.68,-11.52 -12.96,-29.52 0.72,-55.44 -18.72,-87.84 -59.04,-97.2 l -17.28,-15.12 h -1.44 -1.44 c -29.52,-9.36 -49.68,4.32 -60.48,39.6 l -90.72,296.64 c -3.6,12.24 -7.2,18 -10.8,17.28 -2.88,-0.72 -7.2,-5.76 -13.68,-14.4 l -53.28,-67.68 c 35.28,-92.16 64.8,-180 90.72,-264.24 32.4,-105.84 81.36,-149.04 147.6,-128.88 l 36,11.52 v 2.88 l 12.96,9.36 c 40.32,9.36 62.64,40.32 65.52,92.16 27.36,-45.36 62.64,-62.64 105.12,-52.56 l 11.52,2.88 12.96,1.44 c 33.12,5.76 54.72,33.84 66.24,84.96 24.48,-40.32 52.56,-64.8 83.52,-72.72 12.24,-2.88 25.2,-2.88 38.16,-1.44 26.64,4.32 44.64,20.16 54.72,46.08 7.92,21.6 10.08,46.8 5.76,74.88 -7.2,43.92 -23.04,82.08 -47.52,115.2" /><path
         id="path64"
         style="fill:#231f20;fill-opacity:1;fill-rule:nonzero;stroke:none"
         d="m 3867.84,6291.36 c -12.24,7.92 -33.84,15.84 -64.08,22.32 -23.04,4.32 -46.08,8.64 -69.12,12.96 -38.16,8.64 -56.16,18 -55.44,28.08 0.72,14.4 10.8,29.52 28.8,45.36 26.64,23.04 61.92,32.4 105.12,29.52 15.84,-0.72 41.76,-7.2 79.2,-19.44 20.99,-6.79 33.43,-11.98 36.12,-14.68 3.62,2.2 5.91,6.26 6.36,12.52 1.44,19.44 -7.92,42.48 -27.36,68.4 -23.04,29.52 -49.68,45.36 -80.64,47.52 -35.28,2.88 -70.56,-11.52 -105.84,-43.2 -27.36,-24.48 -51.84,-56.88 -74.16,-96.48 -18,-33.84 -28.08,-59.76 -28.8,-76.32 -2.16,-30.96 5.04,-53.28 22.32,-65.52 12.24,-9.36 38.88,-18 79.2,-26.64 46.8,-9.36 79.2,-15.84 97.92,-19.44 30.96,-6.48 46.08,-15.12 45.36,-24.48 -0.72,-19.44 -25.2,-32.4 -72.72,-39.6 -40.32,-5.76 -87.12,-7.2 -141.12,-3.6 -74.88,5.76 -132.48,17.28 -171.36,33.84 -53.28,23.76 -78.48,61.2 -74.88,111.6 2.16,29.52 8.64,56.88 19.44,83.52 2.16,5.76 3.6,10.8 4.32,15.12 0.72,10.08 -2.16,15.12 -9.36,15.12 -17.28,1.44 -35.28,-24.48 -53.28,-77.76 -15.12,-43.92 -23.76,-77.76 -25.2,-102.24 -4.32,-59.76 17.28,-105.12 65.52,-137.52 38.16,-26.64 90,-41.76 153.36,-46.08 154.08,-10.8 257.04,18 310.32,84.96 18,23.04 28.8,61.2 32.4,115.92 2.16,29.52 -8.64,51.84 -32.4,66.24" /><path
         id="path66"
         style="fill:#231f20;fill-opacity:1;fill-rule:nonzero;stroke:none"
         d="m 3929.04,6394.32 c 0.1,0.31 -0.15,0.71 -0.6,1.16 -2.2,-1.34 -4.77,-2.15 -8.04,-1.88 5.76,0 8.64,0 8.64,0.72" /><path
         id="path68"
         style="fill:#231f20;fill-opacity:1;fill-rule:nonzero;stroke:none"
         d="m 4707.36,6150.96 c -2.88,1.44 -6.48,0.72 -10.8,-1.44 l -63.36,-36.72 c 10.8,-36 13.68,-61.2 7.2,-74.88 -7.92,-18 -23.04,-22.32 -45.36,-12.24 -28.8,12.96 -45.36,27.36 -50.4,43.92 -2.16,8.64 -1.44,21.6 2.88,38.16 3.6,12.96 1.44,20.88 -6.48,24.48 -6.48,2.88 -13.68,-0.72 -21.6,-11.52 -11.52,-15.84 -20.16,-25.92 -24.48,-28.8 -12.24,-8.64 -26.64,-9.36 -43.92,-2.16 -19.44,8.64 -30.24,20.16 -31.68,35.28 -0.72,5.76 1.44,18 6.48,36.72 2.88,12.96 0.72,20.88 -5.76,23.76 -7.2,3.6 -15.12,0 -23.04,-10.8 -10.8,-15.84 -19.44,-25.2 -24.48,-28.8 -12.24,-8.64 -27.36,-8.64 -45.36,-0.72 l -36.72,16.56 -1.44,-2.88 c -18,10.08 -38.16,39.6 -60.48,88.56 -3.6,7.2 -6.48,11.52 -8.64,12.24 -2.16,0 -6.48,-1.44 -11.52,-6.48 l -81.36,-68.4 c 53.28,-68.4 76.32,-115.2 69.12,-140.4 -8.64,-30.24 -55.44,-55.44 -140.4,-76.32 -32.4,-8.64 -71.28,-14.4 -116.64,-18.72 -22.32,-2.16 -34.56,-7.92 -37.44,-16.56 -2.88,-10.8 18.72,-25.2 64.08,-43.92 33.84,-13.68 61.2,-23.76 83.52,-28.8 11.52,-3.6 20.16,-4.32 25.92,-2.88 5.04,1.44 12.96,5.04 24.48,12.24 69.84,42.48 116.64,104.4 138.96,186.48 2.88,-5.76 7.92,-9.36 14.4,-11.52 l 21.6,-5.76 4.32,-1.44 c 11.52,-5.04 24.48,-5.76 39.6,-2.88 15.12,3.6 27.36,9.36 36.72,18 3.6,-34.56 19.44,-58.32 48.24,-70.56 13.68,-6.48 28.08,-7.92 44.64,-5.04 15.84,2.88 29.52,9.36 39.6,20.16 -0.72,-35.28 13.68,-59.04 42.48,-72 29.52,-12.96 59.76,-7.92 90.72,14.4 27.36,20.16 48.96,48.24 64.8,83.52 15.84,36.72 24.48,77.04 24.48,119.52 0.72,5.04 -0.72,7.92 -2.88,8.64" /><path
         id="path70"
         style="fill:#231f20;fill-opacity:1;fill-rule:nonzero;stroke:none"
         d="m 5563.44,5404.32 c 20.16,30.96 30.24,61.2 30.24,90 0,5.76 -2.88,7.92 -9.36,7.2 l -105.84,-12.24 c -3.6,-65.52 -10.8,-102.96 -21.6,-111.6 -12.24,-10.08 -35.28,5.04 -69.84,46.8 l -14.4,18 -0.72,5.04 -15.12,28.08 c -62.64,59.04 -127.44,90.72 -195.84,95.76 -61.2,5.04 -104.4,-5.76 -128.88,-30.96 -25.92,-28.08 -15.12,-64.08 33.12,-109.44 l 82.08,-77.76 c 13.68,-12.96 19.44,-21.6 15.12,-25.92 -2.88,-3.6 -11.52,-2.16 -25.2,4.32 -39.6,19.44 -90.72,58.32 -152.64,116.64 -42.48,40.32 -74.88,82.08 -95.76,126 -29.52,61.2 -26.64,109.44 7.2,144.72 15.12,15.84 35.28,30.24 61.92,43.2 5.04,2.16 8.64,5.04 10.8,7.92 7.2,7.2 7.2,12.96 2.16,18.72 -5.76,5.04 -15.12,6.48 -28.08,2.88 -21.6,-5.04 -47.52,-16.56 -76.32,-34.56 -26.64,-17.28 -48.96,-35.28 -65.52,-53.28 -41.76,-43.2 -51.12,-95.04 -27.36,-154.08 15.84,-41.76 46.8,-83.52 90.72,-125.28 72,-67.68 133.2,-113.76 182.88,-136.08 69.12,-32.4 125.28,-25.92 167.76,19.44 24.48,25.92 21.6,54 -9.36,83.52 l -64.8,61.2 c -41.04,38.88 -56.88,62.64 -48.24,71.28 10.08,10.8 35.28,-3.6 76.32,-41.76 l 106.56,-111.6 -0.72,-5.76 19.44,-23.04 c 28.8,-35.28 67.68,-48.96 116.64,-41.04 38.16,5.76 73.44,22.32 105.84,49.68 17.28,13.68 33.12,31.68 46.8,54" /><path
         id="path72"
         style="fill:#231f20;fill-opacity:1;fill-rule:nonzero;stroke:none"
         d="m 5934.96,4853.52 c 7.2,3.6 15.12,4.32 22.32,2.88 1.44,-0.72 2.88,-0.72 3.6,-1.44 8.64,-2.88 15.12,-9.36 19.44,-18 12.24,-24.48 9.36,-53.28 -8.64,-85.68 -5.04,5.76 -10.08,11.52 -14.4,17.28 -6.48,9.36 -12.24,19.44 -17.28,29.52 -15.84,30.96 -17.28,49.68 -5.04,55.44 z m 22.32,-185.76 c 1.44,0.72 2.88,0.72 3.6,1.44 54,27.36 89.28,59.76 107.28,98.64 15.84,33.84 16.56,65.52 1.44,94.32 -14.4,29.52 -46.8,41.76 -96.48,39.6 -5.04,-0.72 -10.8,-0.72 -15.84,-1.44 -32.4,-3.6 -60.48,-11.52 -85.68,-23.76 -38.16,-19.44 -43.2,-57.6 -14.4,-113.76 7.2,-14.4 21.6,-37.44 42.48,-69.84 -13.68,-6.48 -30.96,2.16 -52.56,27.36 -15.12,18 -28.08,36.72 -37.44,54.72 l -38.88,78.48 -1.44,2.16 -2.16,18.72 c -7.92,12.96 -13.68,28.8 -17.28,48.24 -2.88,20.16 -2.16,37.44 2.88,50.4 25.2,-16.56 41.04,-26.64 46.8,-29.52 23.76,-10.08 43.2,-10.8 59.04,-0.72 18.72,12.24 26.64,31.68 23.76,58.32 -2.88,20.88 -10.8,43.2 -25.2,65.52 -19.44,29.52 -43.92,50.4 -73.44,62.64 -23.76,9.36 -41.04,10.8 -50.4,5.04 -6.48,-4.32 -10.08,-15.84 -10.08,-35.28 0,-31.68 -2.16,-55.44 -5.76,-70.56 -36,4.32 -65.52,25.2 -89.28,61.92 l -4.32,7.2 h -0.72 c -12.24,22.32 -4.32,43.2 23.04,62.64 l 252,181.44 c 10.08,7.92 14.4,12.96 12.24,15.84 -1.44,2.16 -7.2,5.04 -17.28,8.64 l -82.08,28.08 c -75.6,-61.92 -149.04,-118.8 -220.32,-170.64 -57.6,-41.04 -88.56,-80.64 -92.88,-118.08 v -18.72 c 1.44,-15.12 7.92,-29.52 18,-43.92 l 18.72,-25.92 2.16,-2.88 c 20.16,-31.68 44.64,-50.4 74.16,-56.16 18.72,-3.6 42.48,-1.44 72,5.76 -39.6,-56.88 -46.08,-105.12 -20.16,-146.16 l 1.44,-12.24 -0.72,-2.88 24.48,-48.24 c 28.8,-58.32 67.68,-94.32 115.2,-108.72 46.08,-12.96 97.2,-5.76 154.08,22.32" /><path
         id="path74"
         style="fill:#231f20;fill-opacity:1;fill-rule:nonzero;stroke:none"
         d="m 6304.32,4511.52 c -0.72,2.16 -2.88,5.76 -7.2,9.36 l -101.52,80.64 -353.52,-144 c -25.92,-10.8 -37.44,-21.6 -35.28,-31.68 2.88,-9.36 15.12,-12.24 37.44,-7.92 l 445.68,84.96 c 10.8,2.16 15.84,5.04 14.4,8.64" /><path
         id="path76"
         style="fill:#231f20;fill-opacity:1;fill-rule:nonzero;stroke:none"
         d="m 6044.4,3985.2 c -57.6,-14.4 -100.8,-16.56 -129.6,-7.2 -39.6,14.4 -66.24,47.52 -79.92,101.52 l -18.72,76.32 c -7.2,29.52 -4.32,54.72 9.36,74.88 13.68,20.88 35.28,35.28 64.8,42.48 20.16,5.04 42.48,7.92 64.8,8.64 15.12,0 23.76,-4.32 25.92,-12.96 2.88,-10.8 -6.48,-20.16 -27.36,-29.52 -21.6,-9.36 -25.2,-43.2 -10.8,-101.52 22.32,-88.56 43.2,-130.32 62.64,-126 12.96,3.6 30.96,31.68 53.28,84.24 22.32,52.56 31.68,86.4 28.08,100.8 -0.72,3.6 -2.88,7.2 -6.48,11.52 -3.6,3.6 -5.04,6.48 -5.76,7.92 -2.16,9.36 1.44,15.12 11.52,18 3.6,0.72 7.2,0.72 12.24,0 l 97.92,-12.96 c 8.64,-1.44 14.4,-5.76 15.84,-14.4 5.76,-21.6 -10.08,-59.76 -46.8,-115.2 -40.32,-61.2 -80.64,-96.48 -120.96,-106.56" /><path
         id="path78"
         style="fill:#231f20;fill-opacity:1;fill-rule:nonzero;stroke:none"
         d="m 514.801,4508.64 c 4.32,2.16 7.199,1.44 10.078,-3.6 l 32.402,-59.76 c 2.16,-4.32 1.442,-7.92 -2.883,-10.8 l -59.039,-33.12 c -5.039,-2.88 -9.359,-1.44 -12.238,4.32 l -31.68,56.88 c -2.882,5.04 -1.441,8.64 3.598,11.52 l 59.762,34.56" /><path
         id="path80"
         style="fill:#231f20;fill-opacity:1;fill-rule:nonzero;stroke:none"
         d="m 4939.2,5268.24 c 0,-5.04 -2.16,-7.2 -7.92,-7.2 l -67.68,1.44 c -5.04,0 -7.2,2.16 -7.2,7.2 v 69.12 c 0,5.04 2.88,7.92 9.36,7.92 l 64.8,-0.72 c 5.76,0 8.64,-2.88 8.64,-9.36 v -68.4" /><path
         id="path82"
         style="fill:#231f20;fill-opacity:1;fill-rule:nonzero;stroke:none"
         d="m 4854.24,5351.04 c 0,-4.32 -2.16,-7.2 -7.92,-7.2 l -67.68,1.44 c -5.04,0 -7.2,2.88 -7.2,7.92 v 68.4 c 0,5.04 2.88,7.92 9.36,7.92 l 64.8,-0.72 c 5.04,0 8.64,-2.88 8.64,-8.64 v -69.12" /><path
         id="path84"
         style="fill:#231f20;fill-opacity:1;fill-rule:nonzero;stroke:none"
         d="m 3579.84,5796.72 c -3.6,-2.88 -7.2,-2.88 -10.8,1.44 l -45.36,50.4 c -2.88,3.6 -2.88,6.48 0.72,10.08 l 50.4,46.8 c 3.6,4.32 7.92,3.6 12.24,-1.44 l 43.2,-47.52 c 4.32,-4.32 3.6,-7.92 -0.72,-12.24 l -49.68,-47.52" /><path
         id="path86"
         style="fill:#231f20;fill-opacity:1;fill-rule:nonzero;stroke:none"
         d="m 3582.72,5915.52 c -3.6,-2.88 -7.2,-2.88 -10.8,1.44 l -46.08,50.4 c -2.88,3.6 -2.16,6.48 0.72,10.08 l 50.4,46.8 c 4.32,4.32 7.92,3.6 12.24,-1.44 l 43.92,-47.52 c 3.6,-4.32 3.6,-7.92 -0.72,-12.24 l -49.68,-47.52" /><path
         id="path88"
         style="fill:#231f20;fill-opacity:1;fill-rule:nonzero;stroke:none"
         d="m 1907.28,5185.44 c 0,-4.32 -2.16,-7.2 -7.92,-7.2 l -67.68,-0.72 c -5.04,0 -7.2,2.16 -7.2,7.2 l -2.16,68.4 c -0.72,5.76 2.88,7.92 9.36,8.64 l 64.08,1.44 c 5.76,0 8.64,-2.88 9.36,-9.36 l 2.16,-68.4" /><path
         id="path90"
         style="fill:#231f20;fill-opacity:1;fill-rule:nonzero;stroke:none"
         d="m 1820.16,5266.08 c 0,-5.04 -2.88,-7.2 -7.92,-7.2 l -68.4,-1.44 c -4.32,0 -7.2,2.88 -7.2,7.92 l -2.16,68.4 c 0,5.04 2.88,7.92 9.36,7.92 l 64.8,1.44 c 5.04,0 8.64,-2.88 8.64,-8.64 l 2.88,-68.4" /><path
         id="path92"
         style="fill:#231f20;fill-opacity:1;fill-rule:nonzero;stroke:none"
         d="m 1469.52,1503.36 c -10.8,7.92 -20.88,16.56 -30.24,25.92 -4.32,5.04 -8.64,10.08 -12.96,15.12 -23.04,28.08 -29.52,46.08 -18,55.44 7.92,6.48 16.56,9.36 25.92,7.92 2.16,-0.72 3.6,-0.72 5.04,-1.44 7.2,-2.16 13.68,-5.76 19.44,-12.24 18.72,-23.04 22.32,-53.28 10.8,-90.72 z m 74.88,137.52 c -21.6,25.92 -56.16,31.68 -105.12,18 -0.72,0 -2.16,-0.72 -3.6,-0.72 -38.88,-11.52 -72,-28.08 -97.92,-49.68 -34.56,-28.8 -30.96,-68.4 12.24,-120.24 10.08,-12.96 30.24,-33.12 59.76,-61.2 -12.24,-10.08 -32.4,-5.04 -60.48,15.84 -20.16,14.4 -36.72,30.24 -51.12,47.52 l -60.48,72.72 -2.16,-2.16 c -3.6,9.36 -6.48,18.72 -8.64,29.52 -3.6,21.6 -2.88,39.6 2.16,53.28 27.36,-17.28 43.92,-27.36 49.68,-30.24 25.2,-10.8 46.08,-10.8 61.92,0 20.16,13.68 28.08,33.84 24.48,61.92 -3.6,22.32 -12.96,45.36 -28.08,68.4 -20.88,30.96 -46.8,52.56 -78.48,64.8 -25.2,9.36 -42.48,10.8 -52.56,4.32 -7.2,-4.32 -10.08,-17.28 -10.08,-37.44 0,-33.12 -1.44,-57.6 -4.32,-74.16 -38.16,4.32 -69.84,25.2 -95.76,64.08 l -4.32,7.2 -6.48,-4.32 c -4.32,21.6 7.2,39.6 34.56,54.72 L 1406.16,1980 c 11.52,6.48 16.56,11.52 15.12,14.4 -1.44,2.88 -7.2,6.48 -17.28,11.52 l -81.36,40.32 C 1235.52,1990.8 1151.28,1940.4 1069.92,1896.48 967.68,1840.32 933.84,1780.56 968.402,1717.2 l 19.438,-35.28 10.082,5.76 2.878,-5.04 c 21.6,-32.4 48.24,-51.84 79.2,-56.88 19.44,-3.6 44.64,-1.44 75.6,6.48 -40.32,-60.48 -46.8,-111.6 -18.72,-153.36 l 16.56,-25.2 7.92,5.76 16.56,-20.16 c 43.92,-52.56 92.16,-80.64 144,-83.52 38.88,-2.16 77.76,8.64 117.36,33.12 12.96,7.92 25.92,17.28 38.88,28.08 48.96,40.32 77.76,82.8 87.12,126.72 7.92,38.16 0.72,70.56 -20.88,97.2" /><path
         id="path94"
         style="fill:#231f20;fill-opacity:1;fill-rule:nonzero;stroke:none"
         d="m 1046.88,1972.8 c 20.16,8.64 40.32,21.6 59.76,39.6 28.08,24.48 46.08,50.4 54,78.48 1.44,5.04 -0.72,8.64 -6.48,9.36 l -105.84,17.28 c -21.6,-62.64 -38.88,-96.48 -51.84,-102.24 -14.402,-5.76 -32.402,15.12 -54,64.8 l -14.398,15.12 -8.641,2.16 0.719,10.8 c -25.199,82.08 -75.601,131.04 -132.48,169.92 -51.121,34.56 -93.602,46.8 -127.442,36.72 -35.996,-10.8 -44.636,-48.24 -25.918,-111.6 l 32.403,-108 c 5.757,-18.72 5.757,-28.8 0.715,-30.24 -5.04,-1.44 -11.516,4.32 -20.157,16.56 -25.203,36.72 -49.679,95.76 -74.16,177.12 -17.281,56.16 -23.762,108.72 -20.16,156.96 5.039,67.68 30.961,108.72 78.48,122.4 20.879,6.48 45.36,8.64 74.879,6.48 5.039,0 10.078,0 13.68,1.44 9.359,2.88 12.961,7.92 10.801,15.12 -2.16,7.92 -10.082,12.96 -23.039,17.28 -21.602,5.76 -48.961,8.64 -82.801,7.2 -32.398,-1.44 -60.481,-5.76 -84.242,-12.96 -57.598,-17.28 -91.438,-57.6 -100.078,-120.24 -7.2,-44.64 -1.442,-95.76 15.839,-154.08 28.801,-95.04 59.04,-164.88 90.719,-209.52 44.641,-62.64 96.481,-84.96 155.52,-66.96 34.562,10.8 46.082,36 33.84,77.04 l -25.918,85.68 c -15.84,54 -18,82.8 -6.481,86.4 13.68,3.6 28.801,-20.88 45.36,-74.88 l 50.398,-167.76 4.324,-4.32 12.238,-15.12 c 18,-42.48 65.52,-48.96 114.481,-54.72 38.879,-4.32 77.759,2.16 115.919,18.72" /><path
         id="path96"
         style="fill:#231f20;fill-opacity:1;fill-rule:nonzero;stroke:none"
         d="m 630.719,4172.4 40.32,-0.72 c -11.519,-37.44 -24.48,-64.8 -40.32,-83.52 -1.438,-1.44 -2.16,-2.88 -3.602,-3.6 -15.84,20.88 -28.078,50.4 -35.996,88.56 z m -92.16,0 c 20.882,-61.92 36,-100.08 44.64,-114.48 5.039,-8.64 16.563,-18.72 33.844,-30.24 5.035,-2.88 9.355,-5.76 13.676,-8.64 11.523,-5.76 20.879,-10.08 28.082,-10.8 18,-2.88 37.437,14.4 59.758,51.84 18,30.24 28.8,54 30.961,70.56 1.441,7.92 -12.239,21.6 -40.321,40.32 33.121,2.16 56.879,6.48 70.563,11.52 30.957,12.24 48.961,35.28 54,69.12 l 9.359,7.92 -0.723,2.88 9.364,32.4 c 11.519,40.32 -4.324,74.16 -48.242,102.24 53.281,2.16 85.679,23.76 97.921,66.24 l 2.879,9.36 7.2,19.44 c 12.96,32.4 9.363,64.08 -10.801,94.32 -18,26.64 -43.918,46.08 -77.758,59.76 l -192.242,74.88 -17.278,7.2 c 5.039,7.92 8.637,14.4 10.079,19.44 3.597,7.92 2.878,12.96 -0.719,14.4 -1.442,0.72 -3.602,0.72 -7.199,0.72 l -120.961,-5.04 c -8.641,-0.72 -13.68,-2.16 -15.121,-5.04 -1.438,-3.6 0,-8.64 2.878,-15.12 l 43.204,-89.28 c 33.121,-2.88 68.398,-7.92 105.117,-14.4 18.722,-3.6 37.441,-7.92 57.601,-12.24 47.52,-10.08 79.918,-18.72 97.918,-25.92 22.321,-8.64 27.364,-28.08 15.84,-59.04 l -5.035,-12.24 h -1.441 L 792,4510.8 l -0.723,-0.72 -3.597,-13.68 c -12.242,-39.6 -44.641,-54.72 -98.641,-45.36 -17.277,2.88 -27.359,0 -30.238,-9.36 -2.16,-8.64 4.32,-17.28 20.16,-25.92 48.961,-25.92 67.68,-59.04 55.437,-99.36 l -4.32,-15.12 -2.879,-5.76 -7.918,-6.48 c -2.883,-17.28 -15.84,-28.8 -38.16,-34.56 -10.801,-2.16 -27.359,-3.6 -50.402,-2.88 -2.16,0 -4.321,0 -5.758,0 l -182.883,4.32 c -10.801,0 -15.84,-1.44 -16.558,-5.76 -0.719,-3.6 2.16,-7.92 7.921,-14.4 l 61.918,-62.64 43.2,-0.72" /><path
         id="path98"
         style="fill:#231f20;fill-opacity:1;fill-rule:nonzero;stroke:none"
         d="m 956.879,4888.08 c -12.238,-22.32 -23.758,-38.88 -33.117,-48.96 -10.801,-10.08 -19.442,-12.96 -26.645,-9.36 -21.597,12.24 -26.637,29.52 -13.676,52.56 5.758,10.08 14.399,18 28.079,25.2 3.597,2.16 7.921,4.32 12.242,5.76 14.398,5.04 30.238,6.48 46.797,2.88 -3.598,-8.64 -7.918,-18 -13.68,-28.08 z m 198.721,90 c 8.64,11.52 14.4,23.76 17.28,36 2.88,2.88 5.76,5.04 7.92,7.92 2.88,2.88 5.76,5.04 8.64,7.2 14.4,12.96 24.48,19.44 28.08,18 9.36,-3.6 9.36,-20.88 -2.16,-51.84 -6.48,-18.72 -15.12,-29.52 -25.92,-32.4 -5.04,-1.44 -10.8,-1.44 -16.56,0.72 -5.04,2.16 -10.08,5.04 -15.84,9.36 -0.72,1.44 -2.16,2.16 -2.88,2.88 z m -16.56,-23.76 5.04,6.48 c 14.4,-12.24 29.52,-22.32 45.36,-28.8 2.16,-0.72 5.04,-1.44 7.2,-2.88 34.56,-11.52 58.32,1.44 72,39.6 7.2,20.88 5.04,41.76 -6.48,61.92 -10.8,19.44 -27.36,32.4 -48.96,40.32 -7.2,2.88 -15.12,2.88 -23.76,1.44 -5.04,-1.44 -10.08,-2.88 -15.84,-5.04 -2.16,9.36 -5.04,18.72 -9.36,28.08 -15.84,33.84 -39.6,61.92 -72.72,84.96 -17.28,12.24 -37.44,21.6 -61.2,29.52 -33.84,10.08 -64.082,12.24 -90,4.32 -5.761,-1.44 -7.199,-4.32 -5.039,-10.08 l 38.16,-94.32 c 61.199,12.96 97.199,16.56 107.999,8.64 12.24,-8.64 4.32,-33.84 -25.2,-76.32 l -5.76,-7.92 -6.48,-2.88 -43.2,-57.6 c -26.64,11.52 -52.562,18 -77.038,21.6 -11.52,0.72 -22.321,1.44 -33.121,1.44 -45.36,-0.72 -76.321,-16.56 -93.598,-47.52 -17.281,-30.96 -2.883,-72.72 43.918,-125.28 31.68,-36.72 59.039,-61.92 82.801,-76.32 1.437,-0.72 2.879,-2.16 4.32,-2.88 30.957,-17.28 63.359,-5.76 97.198,34.56 14.4,16.56 35.28,49.68 61.92,98.64 41.04,-40.32 59.04,-120.96 53.28,-241.2 -0.72,-9.36 -2.88,-28.08 -7.92,-54.72 -2.16,-15.12 -0.72,-23.76 5.04,-26.64 10.8,-6.48 21.6,-2.16 33.12,12.24 6.48,8.64 12.96,15.84 18.72,23.76 30.96,39.6 52.56,71.28 64.8,93.6 3.6,6.48 1.44,20.88 -5.76,43.92 -12.24,37.44 -32.4,73.44 -59.04,106.56 -23.04,28.08 -51.84,54.72 -85.68,79.92 l 33.84,38.16 1.44,0.72" /></g></g></svg>