<?xml version="1.0" encoding="UTF-8" standalone="no"?>
<!-- Created with Inkscape (http://www.inkscape.org/) -->

<svg
   xmlns:dc="http://purl.org/dc/elements/1.1/"
   xmlns:cc="http://creativecommons.org/ns#"
   xmlns:rdf="http://www.w3.org/1999/02/22-rdf-syntax-ns#"
   xmlns:svg="http://www.w3.org/2000/svg"
   xmlns="http://www.w3.org/2000/svg"
   version="1.1"
   width="200"
   height="231.35573"
   viewBox="0 0 200 231.35573"
   id="svg3705">
  <defs
     id="defs3707">
    <clipPath
       id="clipPath326">
      <path
         d="m 20.56,39.172 67.196,0 0,71.866 -67.196,0 0,-71.866 z"
         id="path328" />
    </clipPath>
  </defs>
  <metadata
     id="metadata3710">
    <rdf:RDF>
      <cc:Work
         rdf:about="">
        <dc:format>image/svg+xml</dc:format>
        <dc:type
           rdf:resource="http://purl.org/dc/dcmitype/StillImage" />
        <dc:title></dc:title>
      </cc:Work>
    </rdf:RDF>
  </metadata>
  <g
     transform="translate(-565.58873,-408.12016)"
     id="layer1">
    <g
       transform="matrix(3.8985595,0,0,-3.8985595,431.68101,812.32749)"
       id="g322">
      <g
         clip-path="url(#clipPath326)"
         id="g324">
        <g
           transform="translate(59.9981,103.4812)"
           id="g330">
          <path
             d="m 0,0 c 9.463,0 17.181,-7.72 17.181,-17.182 0,-9.462 -7.718,-17.18 -17.181,-17.18 -9.463,0 -17.181,7.718 -17.181,17.18 C -17.181,-7.72 -9.463,0 0,0"
             id="path332"
             style="fill:#ffffff;fill-opacity:1;fill-rule:nonzero;stroke:none" />
        </g>
        <g
           transform="translate(59.9981,103.4812)"
           id="g334">
          <path
             d="m 0,0 c 9.463,0 17.181,-7.72 17.181,-17.182 0,-9.462 -7.718,-17.18 -17.181,-17.18 -9.463,0 -17.181,7.718 -17.181,17.18 C -17.181,-7.72 -9.463,0 0,0 Z"
             id="path336"
             style="fill:none;stroke:#231f20;stroke-width:0.40000001;stroke-linecap:butt;stroke-linejoin:miter;stroke-miterlimit:2.61299992;stroke-opacity:1;stroke-dasharray:none" />
        </g>
        <g
           transform="translate(71.62,81.1219)"
           id="g338">
          <path
             d="m 0,0 -1.161,-2.096 0.465,-0.258 0.864,1.56 2.673,-1.491 0.296,0.536 L 0,0 Z M 0.976,3.456 0.884,2.826 1.706,2.294 1.308,0.951 0.337,0.89 0.116,0.278 3.969,0.541 4.149,1.168 0.976,3.456 Z M 3.482,1.034 3.481,1.024 3.479,1.019 1.802,0.978 2.108,2.006 3.482,1.034 Z M 1.019,6.559 1.05,5.974 3.648,6.116 3.648,6.101 1.054,4.385 1.021,3.736 4.556,3.439 4.617,4.101 1.964,4.278 1.964,4.315 4.645,6.048 4.599,6.741 1.019,6.559 Z M 3.65,9.315 C 3.851,8.607 3.274,8.069 2.622,7.902 1.971,7.734 1.268,7.844 1.076,8.554 0.881,9.28 1.448,9.79 2.091,9.988 2.732,10.182 3.446,10.037 3.65,9.315 Z M 4.133,9.471 C 3.849,10.477 2.869,10.894 1.911,10.573 0.962,10.254 0.321,9.42 0.597,8.408 0.868,7.421 1.824,7.078 2.789,7.337 3.766,7.603 4.416,8.473 4.133,9.471 Z m -4.42,1.448 0.26,-0.556 3.236,1.531 -0.259,0.555 -3.237,-1.53 z m 0.948,4.085 0.579,-0.843 -2.493,-1.67 0.334,-0.514 2.494,1.667 0.631,-0.921 0.456,0.264 -1.581,2.343 -0.42,-0.326 z m -4.423,0.162 0.495,-0.414 0.886,0.466 0.986,-1.001 -0.429,-0.972 0.407,-0.507 1.586,3.659 -0.477,0.457 -3.454,-1.688 z m 3.272,1.032 0.008,-0.007 0.003,-0.002 -0.715,-1.522 -0.748,0.779 1.452,0.752 z m -5.87,0.558 0.539,-0.254 1.205,2.268 0.014,-0.008 0.191,-3.113 0.507,-0.374 1.914,3.003 -0.488,0.383 -1.425,-2.222 -0.182,3.178 -0.597,0.294 -1.678,-3.155 z m -3.057,0.955 0.56,-0.125 0.398,1.402 0.905,-0.249 c 0.543,-0.15 0.555,-0.467 0.378,-1.083 -0.048,-0.166 -0.1,-0.365 -0.052,-0.537 l 0.619,-0.254 c -0.09,0.173 -0.027,0.636 0.085,1.028 0.153,0.533 -0.065,0.768 -0.262,0.855 l 0.004,0.009 c 0.118,0.005 0.58,0.042 0.764,0.689 0.164,0.571 -0.079,1.075 -0.818,1.279 l -1.621,0.449 -0.96,-3.463 z m 1.413,2.813 0.97,-0.263 c 0.307,-0.084 0.527,-0.3 0.403,-0.73 -0.103,-0.354 -0.322,-0.475 -0.695,-0.372 l -1.004,0.276 0.326,1.089 z m -4.311,-2.658 2.558,-0.093 0.009,0.529 -1.944,0.083 0.033,1.074 1.767,-0.042 0.007,0.501 -1.765,0.043 0.015,0.954 1.894,-0.094 0.009,0.53 -2.505,0.105 -0.078,-3.59 z m -3.32,2.515 1.046,0.175 0.461,-2.897 0.606,0.096 -0.461,2.906 1.091,0.191 -0.057,0.557 -2.834,-0.482 0.148,-0.546 z m -1.932,-3.964 0.511,0.249 -1.038,2.375 0.014,0.005 2.371,-1.82 0.616,0.183 -1.086,3.395 -0.582,-0.169 0.785,-2.532 -0.03,-0.002 -2.406,1.88 -0.593,-0.3 1.438,-3.264 z m -1.005,-0.604 0.52,0.324 -1.881,3.035 -0.52,-0.326 1.881,-3.033 z m -3.537,-3.432 1.628,1.921 -0.368,0.38 -1.242,-1.491 -0.805,0.71 1.105,1.35 -0.348,0.348 -1.15,-1.352 -0.702,0.637 1.238,1.412 -0.379,0.4 -1.642,-1.946 2.665,-2.369 z m -3.991,-1.015 0.521,0.991 2.554,-1.588 0.289,0.541 -2.542,1.586 0.547,0.997 -0.444,0.274 -1.419,-2.579 0.494,-0.222 z m 2.441,-2.175 0.21,0.577 -3.355,1.249 -0.21,-0.578 3.355,-1.248 z m -0.682,-3.952 0.024,0.557 -2.656,0.241 2.75,0.689 0.05,0.501 -2.541,1.515 2.744,-0.531 0.14,0.545 -3.532,0.697 -0.168,-0.822 2.573,-1.525 -0.002,-0.01 -2.893,-0.639 -0.042,-0.939 3.553,-0.279 z m -2.957,-2.117 c -0.084,0.754 0.511,1.093 1.177,1.165 0.677,0.074 1.379,-0.164 1.475,-0.908 0.095,-0.754 -0.546,-1.104 -1.211,-1.207 -0.663,-0.105 -1.356,0.204 -1.441,0.95 z m -0.506,-0.078 c 0.122,-1.041 1.081,-1.635 2.069,-1.478 0.989,0.155 1.726,0.842 1.583,1.89 -0.142,1.041 -0.997,1.472 -1.987,1.413 -0.998,-0.061 -1.787,-0.777 -1.665,-1.825 z m 1.689,-2.202 c -0.661,-0.375 -0.93,-1.163 -0.602,-1.881 0.455,-1.005 1.501,-1.269 2.415,-0.861 0.916,0.408 1.448,1.306 1.006,2.259 -0.335,0.722 -1.059,1.05 -1.868,0.796 l 0.197,-0.546 c 0.486,0.163 1.003,0 1.223,-0.496 0.306,-0.686 -0.235,-1.201 -0.849,-1.473 -0.615,-0.274 -1.33,-0.184 -1.635,0.503 -0.208,0.466 -0.019,0.846 0.305,1.104"
             id="path340"
             style="fill:#231f20;fill-opacity:1;fill-rule:nonzero;stroke:none" />
        </g>
        <g
           transform="translate(67.9812,72.0675)"
           id="g342">
          <path
             d="M 0,0 2.078,1.424 1.781,1.87 0.21,0.778 -0.379,1.651 1.046,2.659 0.764,3.079 -0.661,2.071 -1.191,2.889 0.365,3.963 0.066,4.407 -1.996,3.001"
             id="path344"
             style="fill:#231f20;fill-opacity:1;fill-rule:nonzero;stroke:none" />
        </g>
        <g
           transform="translate(65.3094,70.8625)"
           id="g346">
          <path
             d="M 0,0 0.637,0.232 0.426,4.085 -0.134,3.833 0.07,0.811 0.061,0.807 -1.802,3.224 -2.399,3.048"
             id="path348"
             style="fill:#231f20;fill-opacity:1;fill-rule:nonzero;stroke:none" />
        </g>
        <g
           transform="translate(60.7663,70.0225)"
           id="g350">
          <path
             d="M 0,0 2.502,0.3 2.393,0.813 0.519,0.601 0.389,1.674 2.03,1.872 1.931,2.364 0.307,2.17 0.197,3.139 2.01,3.324 1.912,3.849 -0.409,3.571"
             id="path352"
             style="fill:#231f20;fill-opacity:1;fill-rule:nonzero;stroke:none" />
        </g>
        <g
           transform="translate(53.065,71.5625)"
           id="g354">
          <path
             d="M 0,0 2.371,-0.884 2.507,-0.374 0.751,0.284 1.107,1.294 2.686,0.686 2.813,1.168 1.269,1.763 1.592,2.694 3.281,2.012 3.417,2.511 1.219,3.379"
             id="path356"
             style="fill:#231f20;fill-opacity:1;fill-rule:nonzero;stroke:none" />
        </g>
        <g
           transform="translate(53.1143,73.6394)"
           id="g358">
          <path
             d="M 0,0 -1.249,0.79 -1.51,0.411 -0.7,-0.107 c -0.34,-0.479 -0.881,-0.596 -1.4,-0.229 -0.619,0.439 -0.501,1.182 -0.126,1.73 0.376,0.55 0.994,0.885 1.616,0.452 0.367,-0.255 0.569,-0.68 0.359,-1.091 L 0.272,0.457 c 0.364,0.7 0.034,1.357 -0.602,1.798 -0.871,0.608 -1.846,0.311 -2.404,-0.507 -0.558,-0.818 -0.516,-1.887 0.353,-2.492 0.356,-0.247 0.686,-0.295 1.167,-0.181 l -0.083,-0.501 0.326,-0.192"
             id="path360"
             style="fill:#231f20;fill-opacity:1;fill-rule:nonzero;stroke:none" />
        </g>
        <g
           transform="translate(56.4257,70.415)"
           id="g362">
          <path
             d="M 0,0 0.587,-0.126 1.054,2.483 1.068,2.482 2.477,-0.361 3.136,-0.394 3.303,3.182 2.753,3.196 2.642,0.573 2.632,0.575 1.231,3.396 0.607,3.524"
             id="path364"
             style="fill:#231f20;fill-opacity:1;fill-rule:nonzero;stroke:none" />
        </g>
        <g
           transform="translate(59.9981,98.0919)"
           id="g366">
          <path
             d="m 0,0 c 6.494,0 11.793,-5.299 11.793,-11.793 0,-6.493 -5.299,-11.792 -11.793,-11.792 -6.497,0 -11.792,5.299 -11.792,11.792 C -11.792,-5.299 -6.497,0 0,0 Z"
             id="path368"
             style="fill:none;stroke:#231f20;stroke-width:0.40000001;stroke-linecap:butt;stroke-linejoin:miter;stroke-miterlimit:2.61299992;stroke-opacity:1;stroke-dasharray:none" />
        </g>
        <g
           transform="translate(57.4975,88.8007)"
           id="g370">
          <path
             d="m 0,0 0,6.006 5.001,0 0,-6.006 6.006,0 0,-5.004 -6.006,0 0,-6.005 -5.001,0 0,6.005 -6.008,0 0,5.004"
             id="path372"
             style="fill:#ee2722;fill-opacity:1;fill-rule:nonzero;stroke:none" />
        </g>
        <path
           d="m 34.348,44.722 2.151,0 0,16.165 -2.151,0 0,-16.165 z"
           id="path374"
           style="fill:#231f20;fill-opacity:1;fill-rule:nonzero;stroke:none" />
        <g
           transform="translate(51.4856,56.0193)"
           id="g376">
          <path
             d="m 0,0 c -0.452,2.286 -2.287,3.441 -4.528,3.441 -3.849,0 -5.479,-3.169 -5.479,-6.543 0,-3.69 1.63,-6.769 5.501,-6.769 2.83,0 4.46,1.992 4.665,4.664 l 2.15,0 c -0.407,-4.03 -2.92,-6.475 -6.996,-6.475 -5.025,0 -7.471,3.713 -7.471,8.422 0,4.686 2.672,8.513 7.652,8.513 3.374,0 6.159,-1.812 6.657,-5.253"
             id="path378"
             style="fill:#231f20;fill-opacity:1;fill-rule:nonzero;stroke:none" />
        </g>
        <g
           transform="translate(56.4656,44.7219)"
           id="g380">
          <path
             d="m 0,0 2.151,0 0,6.905 5.253,0 c 2.082,0 2.468,-1.336 2.693,-2.92 C 10.414,2.4 10.075,0.656 10.686,0 l 2.4,0 c -0.905,1.109 -0.815,2.875 -0.95,4.46 -0.159,1.585 -0.544,2.966 -2.423,3.328 l 0,0.046 c 1.947,0.543 2.808,2.15 2.808,4.097 0,2.582 -1.88,4.234 -4.913,4.234 L 0,16.165 0,0 Z m 2.151,8.717 0,5.637 5.343,0 c 2.015,0 2.875,-1.177 2.875,-2.762 0,-2.355 -1.72,-2.875 -3.735,-2.875"
             id="path382"
             style="fill:#231f20;fill-opacity:1;fill-rule:nonzero;stroke:none" />
        </g>
        <g
           transform="translate(83.34,56.0193)"
           id="g384">
          <path
             d="m 0,0 c -0.453,2.286 -2.287,3.441 -4.529,3.441 -3.849,0 -5.478,-3.169 -5.478,-6.543 0,-3.69 1.629,-6.769 5.501,-6.769 2.83,0 4.46,1.992 4.664,4.664 l 2.151,0 c -0.407,-4.03 -2.92,-6.475 -6.996,-6.475 -5.026,0 -7.471,3.713 -7.471,8.422 0,4.686 2.672,8.513 7.652,8.513 3.374,0 6.158,-1.812 6.657,-5.253"
             id="path386"
             style="fill:#231f20;fill-opacity:1;fill-rule:nonzero;stroke:none" />
        </g>
      </g>
    </g>
  </g>
</svg>
