<?xml version="1.0" encoding="UTF-8" standalone="no"?>
<!-- Created with Inkscape (http://www.inkscape.org/) -->

<svg
   version="1.1"
   id="svg1"
   width="330.12"
   height="351.60266"
   viewBox="0 0 330.12 351.60266"
   sodipodi:docname="Red_Crescent_YEMEN.svg"
   inkscape:version="1.3.2 (091e20e, 2023-11-25, custom)"
   xmlns:inkscape="http://www.inkscape.org/namespaces/inkscape"
   xmlns:sodipodi="http://sodipodi.sourceforge.net/DTD/sodipodi-0.dtd"
   xmlns="http://www.w3.org/2000/svg"
   xmlns:svg="http://www.w3.org/2000/svg">
  <defs
     id="defs1">
    <clipPath
       clipPathUnits="userSpaceOnUse"
       id="clipPath3">
      <path
         d="M 0.060005,263.703 H 247.59 V 0.06 H 0.060005 Z"
         transform="translate(-5.2129001,-102.51401)"
         id="path3" />
    </clipPath>
    <clipPath
       clipPathUnits="userSpaceOnUse"
       id="clipPath14">
      <path
         d="M 0.060005,263.703 H 247.59 V 0.06 H 0.060005 Z"
         transform="translate(-129.475,-5.6720001)"
         id="path14" />
    </clipPath>
  </defs>
  <sodipodi:namedview
     id="namedview1"
     pagecolor="#ffffff"
     bordercolor="#666666"
     borderopacity="1.0"
     inkscape:showpageshadow="2"
     inkscape:pageopacity="0.0"
     inkscape:pagecheckerboard="0"
     inkscape:deskcolor="#d1d1d1"
     inkscape:export-bgcolor="#ffffffff"
     inkscape:zoom="2.3350221"
     inkscape:cx="165.09479"
     inkscape:cy="175.80133"
     inkscape:window-width="1920"
     inkscape:window-height="1017"
     inkscape:window-x="-8"
     inkscape:window-y="-8"
     inkscape:window-maximized="1"
     inkscape:current-layer="g1">
    <inkscape:page
       x="0"
       y="0"
       inkscape:label="Red_Crescent_YEMEN.eps"
       id="page1"
       width="330.12"
       height="351.60266"
       margin="0"
       bleed="0" />
  </sodipodi:namedview>
  <g
     id="g1"
     inkscape:groupmode="layer"
     inkscape:label="Red_Crescent_YEMEN.eps">
    <g
       id="group-MC1">
      <path
         id="path2"
         d="M 0,0 6.567,6.293 6.82,4.856 1.1367,-0.439 8.285,-3.457 8.538,-4.893 0.2119,-1.205 -5,-2.124 -5.2129,-0.919 0,0"
         style="fill:#231f20;fill-opacity:1;fill-rule:nonzero;stroke:none"
         transform="matrix(1.3333333,0,0,-1.3333333,6.9505333,214.91733)"
         clip-path="url(#clipPath3)" />
      <path
         id="path4"
         d="M 0,0 C 1.623,0.544 2.853,2.021 2.325,3.78 1.792,5.555 -0.0547,6.073 -1.7266,5.76 Z M -2.6406,5.485 C -4.2217,4.992 -5.8867,3.59 -5.2617,1.504 c 0.4756,-1.586 1.666,-2.169 3.1142,-2.111 l 0.3262,-1.086 C -3.9785,-1.832 -5.5029,-1.011 -6.1748,1.23 -7.0234,4.057 -5.208,5.899 -2.6729,6.658 -0.3291,7.362 2.391,6.882 3.239,4.053 4.098,1.192 1.939,-0.697 -0.5869,-1.36 l -2.0537,6.845"
         style="fill:#231f20;fill-opacity:1;fill-rule:nonzero;stroke:none"
         transform="matrix(1.3333333,0,0,-1.3333333,12.363333,236.904)" />
      <path
         id="path5"
         d="m 0,0 0.442,-0.946 -1.418,-0.663 0.023,-0.049 c 1.263,-0.065 2.327,-0.641 2.952,-1.977 0.52,-1.108 0.447,-2.356 -0.517,-3.184 1.345,0.013 2.379,-0.795 2.898,-1.903 0.862,-1.843 0.343,-3.237 -1.647,-4.169 l -5.706,-2.67 -0.48,1.027 5.657,2.648 c 1.386,0.649 1.892,1.52 1.205,2.988 -0.832,1.777 -2.536,1.595 -4.1,0.864 l -4.7612,-2.228 -0.4804,1.027 5.7056,2.67 c 1.149,0.518 1.873,1.433 1.263,2.738 -0.832,1.777 -2.504,1.868 -4.272,1.06 L -7.9317,-4.963 -8.4121,-3.937 0,0"
         style="fill:#231f20;fill-opacity:1;fill-rule:nonzero;stroke:none"
         transform="matrix(1.3333333,0,0,-1.3333333,20.357333,243.844)" />
      <path
         id="path6"
         d="M 0,0 C 1.398,0.987 2.153,2.754 1.143,4.287 0.124,5.836 -1.794,5.802 -3.307,5.022 Z M -4.104,4.497 C -5.476,3.572 -6.67,1.751 -5.472,-0.068 c 0.911,-1.383 2.218,-1.601 3.588,-1.129 l 0.623,-0.947 c -2.025,-0.752 -3.72,-0.403 -5.009,1.552 -1.623,2.465 -0.411,4.75 1.798,6.205 2.045,1.346 4.788,1.664 6.411,-0.801 1.644,-2.495 0.117,-4.923 -2.112,-6.283 l -3.931,5.968"
         style="fill:#231f20;fill-opacity:1;fill-rule:nonzero;stroke:none"
         transform="matrix(1.3333333,0,0,-1.3333333,32.353333,276.82667)" />
      <path
         id="path7"
         d="M 0,0 0.734,-0.864 -0.487,-1.9 -0.464,-1.928 C 0.654,-1.522 2.034,-1.979 2.885,-2.981 4.574,-4.97 4.044,-6.46 2.355,-7.892 l -4.555,-3.868 -0.734,0.865 4.418,3.751 c 1.222,1.036 1.804,2.215 0.616,3.614 -1.165,1.372 -2.908,1.311 -4.317,0.162 L -6.348,-6.875 -7.081,-6.01 0,0"
         style="fill:#231f20;fill-opacity:1;fill-rule:nonzero;stroke:none"
         transform="matrix(1.3333333,0,0,-1.3333333,42.301333,281.32267)" />
      <path
         id="path8"
         d="m 0,0 3.639,-2.771 c 1.187,-0.905 2.771,-0.933 3.72,0.312 0.949,1.246 0.804,2.602 -0.657,3.713 L 3.064,4.023 Z M 2.723,5.597 7.405,2.03 C 9.096,0.744 9.893,-1.152 8.486,-2.999 7.504,-4.289 6.023,-4.836 4.511,-4.09 L 4.488,-4.12 C 5.689,-5.306 5.379,-6.517 4.523,-7.787 4.031,-8.523 2.963,-9.926 3.001,-10.77 l -1.075,0.819 c 0.062,0.587 0.64,1.344 0.938,1.798 1.004,1.496 2.101,3.173 0.199,4.508 l -3.695,2.814 -3.457,-4.54 -0.973,0.742 7.785,10.226"
         style="fill:#231f20;fill-opacity:1;fill-rule:nonzero;stroke:none"
         transform="matrix(1.3333333,0,0,-1.3333333,63.586667,307.57867)" />
      <path
         id="path9"
         d="M 0,0 C 0.803,1.511 0.678,3.428 -0.916,4.341 -2.524,5.262 -4.22,4.368 -5.217,2.989 Z m -5.691,2.16 c -0.808,-1.446 -1.051,-3.608 0.838,-4.691 1.438,-0.822 2.702,-0.428 3.711,0.612 l 0.985,-0.563 c -1.469,-1.586 -3.139,-2.04 -5.17,-0.877 -2.562,1.468 -2.512,4.054 -1.196,6.349 1.216,2.124 3.52,3.647 6.082,2.178 C 2.151,3.684 1.885,0.829 0.51,-1.391 L -5.691,2.16"
         style="fill:#231f20;fill-opacity:1;fill-rule:nonzero;stroke:none"
         transform="matrix(1.3333333,0,0,-1.3333333,86.777333,325.324)" />
      <path
         id="path10"
         d="M 0,0 C 2.225,-0.932 3.791,0.617 4.535,2.392 5.28,4.169 5.286,6.372 3.061,7.304 1.069,8.138 -0.53,6.604 -1.275,4.828 -2.02,3.052 -1.992,0.835 0,0 Z m 3.786,-2.329 -0.963,0.403 0.682,1.628 -0.032,0.014 C 2.557,-1.209 0.876,-1.401 -0.369,-0.88 -2.976,0.212 -3.337,2.842 -2.321,5.265 -1.306,7.69 0.824,9.276 3.431,8.184 4.708,7.649 5.683,6.48 5.615,5.062 L 5.648,5.049 7.708,9.963 8.754,9.524 3.786,-2.329"
         style="fill:#231f20;fill-opacity:1;fill-rule:nonzero;stroke:none"
         transform="matrix(1.3333333,0,0,-1.3333333,97.866667,337.38)" />
      <path
         id="path11"
         d="m 0,0 c -0.073,2.025 -1.483,3.432 -3.325,3.766 -3.349,0.604 -5.272,-1.939 -5.77,-4.703 -0.499,-2.763 0.412,-5.817 3.761,-6.423 2.338,-0.421 4.152,1.116 4.788,3.324 l 1.205,-0.216 c -0.896,-3.039 -3.22,-4.668 -6.18,-4.135 -3.985,0.72 -5.403,4.214 -4.779,7.668 0.624,3.454 3.174,6.231 7.16,5.51 2.391,-0.43 4.505,-2.294 4.345,-5.007 L 0,0"
         style="fill:#231f20;fill-opacity:1;fill-rule:nonzero;stroke:none"
         transform="matrix(1.3333333,0,0,-1.3333333,140.576,337.944)" />
      <path
         id="path12"
         d="M 0,0 1.042,-0.066 0.904,-2.239 0.941,-2.241 c 0.67,1.453 1.982,2.253 3.648,2.076 L 4.518,-1.297 C 2.477,-1.059 0.98,-2.48 0.857,-4.402 L 0.543,-9.341 -0.589,-9.27 0,0"
         style="fill:#231f20;fill-opacity:1;fill-rule:nonzero;stroke:none"
         transform="matrix(1.3333333,0,0,-1.3333333,150.464,338.51467)" />
      <path
         id="path13"
         d="M 0,0 C -0.119,1.707 -1.239,3.269 -3.075,3.199 -4.927,3.13 -5.891,1.472 -6.009,-0.224 Z m -5.973,-1.177 c 0.081,-1.655 1.019,-3.62 3.194,-3.538 1.655,0.063 2.518,1.067 2.825,2.484 l 1.134,0.043 c -0.407,-2.124 -1.583,-3.392 -3.923,-3.48 -2.949,-0.11 -4.275,2.11 -4.375,4.754 -0.091,2.445 1.059,4.957 4.008,5.067 2.985,0.111 4.27,-2.452 4.278,-5.063 l -7.141,-0.267"
         style="fill:#231f20;fill-opacity:1;fill-rule:nonzero;stroke:none"
         transform="matrix(1.3333333,0,0,-1.3333333,172.63333,344.04)"
         clip-path="url(#clipPath14)" />
      <path
         id="path15"
         d="M 0,0 C -0.269,1.379 -1.433,1.836 -2.714,1.638 -3.709,1.483 -4.823,0.91 -4.638,-0.283 c 0.155,-0.996 1.348,-1.174 2.143,-1.252 l 1.547,-0.105 c 1.311,0.003 2.76,-0.537 3.01,-2.139 0.308,-1.992 -1.547,-3.062 -3.255,-3.328 -2.135,-0.331 -3.749,0.44 -4.273,2.652 l 1.121,0.174 c 0.322,-1.498 1.565,-2.106 3.059,-1.876 1.049,0.163 2.437,0.852 2.238,2.133 -0.166,1.068 -1.217,1.268 -2.27,1.36 l -1.491,0.097 c -1.519,0.164 -2.699,0.492 -2.94,2.058 -0.291,1.867 1.43,2.863 3.049,3.113 1.832,0.285 3.44,-0.449 3.82,-2.431 L 0,0"
         style="fill:#231f20;fill-opacity:1;fill-rule:nonzero;stroke:none"
         transform="matrix(1.3333333,0,0,-1.3333333,189.60533,340.28267)" />
      <path
         id="path16"
         d="m 0,0 c -0.665,1.253 -1.706,1.843 -3.128,1.448 -2.099,-0.582 -2.611,-2.779 -2.081,-4.686 0.528,-1.91 2.099,-3.529 4.197,-2.947 1.354,0.377 2.17,1.742 1.895,3.274 l 1.093,0.301 c 0.302,-2.231 -0.738,-3.94 -2.732,-4.493 -2.741,-0.76 -4.834,0.994 -5.547,3.561 -0.71,2.566 0.178,5.148 2.919,5.91 1.908,0.528 3.666,-0.086 4.477,-2.065 L 0,0"
         style="fill:#231f20;fill-opacity:1;fill-rule:nonzero;stroke:none"
         transform="matrix(1.3333333,0,0,-1.3333333,208.18533,336.12667)" />
      <path
         id="path17"
         d="M 0,0 C -0.699,1.56 -2.292,2.638 -3.99,1.939 -5.704,1.234 -6.037,-0.655 -5.56,-2.287 Z m -5.196,-3.17 c 0.646,-1.524 2.205,-3.043 4.219,-2.214 1.533,0.629 1.994,1.871 1.793,3.307 l 1.049,0.43 c 0.353,-2.132 -0.313,-3.729 -2.478,-4.62 -2.73,-1.124 -4.742,0.502 -5.748,2.948 -0.932,2.265 -0.721,5.018 2.007,6.141 2.764,1.137 4.856,-0.825 5.766,-3.273 L -5.196,-3.17"
         style="fill:#231f20;fill-opacity:1;fill-rule:nonzero;stroke:none"
         transform="matrix(1.3333333,0,0,-1.3333333,226.37067,330.89733)" />
      <path
         id="path18"
         d="m 0,0 0.989,0.554 0.783,-1.397 0.032,0.018 C 1.619,0.35 2.333,1.618 3.479,2.26 5.756,3.536 7.115,2.731 8.198,0.801 L 11.121,-4.412 10.133,-4.968 7.297,0.089 C 6.513,1.485 5.469,2.282 3.867,1.384 2.298,0.504 2.024,-1.218 2.882,-2.822 L 5.532,-7.547 4.544,-8.102 0,0"
         style="fill:#231f20;fill-opacity:1;fill-rule:nonzero;stroke:none"
         transform="matrix(1.3333333,0,0,-1.3333333,232.65067,322.012)" />
      <path
         id="path19"
         d="M 0,0 1.542,1.092 2.094,0.314 0.551,-0.778 4.172,-5.89 c 0.426,-0.603 0.764,-0.893 1.456,-0.469 0.264,0.188 0.519,0.39 0.762,0.606 L 6.952,-6.546 C 6.672,-6.744 6.428,-6.961 6.15,-7.158 4.916,-8.032 4.2,-7.922 3.298,-6.62 l -3.672,5.186 -1.323,-0.937 -0.551,0.779 1.323,0.937 -1.614,2.277 0.926,0.656 L 0,0"
         style="fill:#231f20;fill-opacity:1;fill-rule:nonzero;stroke:none"
         transform="matrix(1.3333333,0,0,-1.3333333,250.72267,310.88533)" />
      <path
         id="path20"
         d="M 0,0 C 1.887,-1.855 3.786,-1.023 5.393,0.678 6.318,1.66 7.191,3.659 5.829,4.943 4.769,5.944 3.349,5.279 2.324,4.613 L -0.151,3.014 c -1.313,-0.841 -2.788,-1.355 -4.24,0.017 -0.917,0.865 -2.076,3.072 0.408,5.703 1.742,1.846 4.268,2.53 6.168,0.713 L 1.345,8.557 C -0.132,9.852 -1.963,9.354 -3.212,8.031 -4.36,6.813 -4.952,5.243 -3.565,3.934 -2.688,3.105 -1.703,3.414 -0.804,4 L 1.909,5.747 C 3.511,6.735 5.125,7.291 6.656,5.846 7.298,5.24 9.079,3.063 5.954,-0.249 3.866,-2.461 1.339,-3.145 -0.84,-0.891 L 0,0"
         style="fill:#231f20;fill-opacity:1;fill-rule:nonzero;stroke:none"
         transform="matrix(1.3333333,0,0,-1.3333333,274.31067,299.91733)" />
      <path
         id="path21"
         d="M 0,0 C 1.609,-1.155 3.848,-1.431 5.116,0.338 6.387,2.108 5.408,4.14 3.8,5.293 2.191,6.448 -0.048,6.725 -1.317,4.955 -2.588,3.186 -1.608,1.155 0,0 Z m 4.461,6.215 c 2.163,-1.554 3.09,-4.122 1.431,-6.434 -1.659,-2.31 -4.389,-2.255 -6.553,-0.702 -2.165,1.553 -3.09,4.122 -1.432,6.433 1.659,2.311 4.389,2.257 6.554,0.703"
         style="fill:#231f20;fill-opacity:1;fill-rule:nonzero;stroke:none"
         transform="matrix(1.3333333,0,0,-1.3333333,287.96533,283.48533)" />
      <path
         id="path22"
         d="m 0,0 c -1.365,0.391 -2.511,0.049 -3.213,-1.25 -1.037,-1.916 0.192,-3.808 1.934,-4.749 1.742,-0.942 3.997,-0.934 5.033,0.982 0.667,1.235 0.25,2.771 -1.044,3.634 l 0.54,0.997 c 1.817,-1.33 2.327,-3.264 1.343,-5.085 -1.352,-2.502 -4.068,-2.793 -6.411,-1.526 -2.343,1.266 -3.587,3.699 -2.235,6.2 0.943,1.742 2.605,2.583 4.592,1.795 L 0,0"
         style="fill:#231f20;fill-opacity:1;fill-rule:nonzero;stroke:none"
         transform="matrix(1.3333333,0,0,-1.3333333,300.58667,259.024)" />
      <path
         id="path23"
         d="M 0,0 0.438,1.047 9.005,-2.54 8.568,-3.586 Z M -3.287,1.377 -2.85,2.423 -1.172,1.72 -1.611,0.674 -3.287,1.377"
         style="fill:#231f20;fill-opacity:1;fill-rule:nonzero;stroke:none"
         transform="matrix(1.3333333,0,0,-1.3333333,301.21733,248.34133)" />
      <path
         id="path24"
         d="m 0,0 c -1.651,0.449 -3.494,-0.097 -4.03,-1.852 -0.544,-1.773 0.704,-3.229 2.268,-3.896 z m -0.849,-6.028 c 1.588,-0.467 3.752,-0.227 4.39,1.855 0.485,1.584 -0.181,2.728 -1.417,3.484 l 0.331,1.084 c 1.872,-1.081 2.683,-2.61 1.998,-4.848 -0.865,-2.822 -3.398,-3.345 -5.927,-2.57 -2.342,0.718 -4.335,2.627 -3.469,5.45 0.875,2.858 3.718,3.228 6.187,2.377 l -2.093,-6.832"
         style="fill:#231f20;fill-opacity:1;fill-rule:nonzero;stroke:none"
         transform="matrix(1.3333333,0,0,-1.3333333,312.70267,231.72933)" />
      <path
         id="path25"
         d="M 0,0 0.359,1.855 1.294,1.674 0.937,-0.182 7.087,-1.369 c 0.725,-0.14 1.169,-0.116 1.376,0.669 0.062,0.318 0.106,0.64 0.131,0.965 L 9.549,0.081 C 9.484,-0.255 9.457,-0.58 9.393,-0.916 9.106,-2.4 8.512,-2.818 6.96,-2.5 l -6.238,1.205 -0.308,-1.59 -0.935,0.181 0.306,1.59 -2.74,0.529 0.216,1.113 L 0,0"
         style="fill:#231f20;fill-opacity:1;fill-rule:nonzero;stroke:none"
         transform="matrix(1.3333333,0,0,-1.3333333,310.24,218.61867)" />
      <path
         id="path26"
         d="M 0,0 0.108,1.201 8.269,3.542 0.636,7.1 0.736,8.229 11.044,3.257 c 1.503,-0.784 1.918,-1.201 1.79,-2.618 -0.057,-0.446 -0.079,-0.68 -0.166,-0.852 l -0.951,0.085 c 0.078,0.264 0.138,0.512 0.159,0.764 0.091,1.002 -0.48,1.288 -1.307,1.742 L 9.547,2.869 0,0"
         style="fill:#231f20;fill-opacity:1;fill-rule:nonzero;stroke:none"
         transform="matrix(1.3333333,0,0,-1.3333333,311.79733,209.49467)" />
      <path
         id="path27"
         d="m 0,0 c -46.945,0 -85,36.742 -85,82.068 0,45.326 38.055,82.069 85,82.069 30.153,0 56.619,-15.172 71.708,-38.027 -16.628,33.567 -51.668,56.701 -92.208,56.701 -56.61,0 -102.5,-45.103 -102.5,-100.743 0,-55.639 45.89,-100.742 102.5,-100.742 40.54,0 75.58,23.133 92.208,56.7 C 56.619,15.172 30.153,0 0,0"
         style="fill:#ee2528;fill-opacity:1;fill-rule:nonzero;stroke:none"
         transform="matrix(1.3333333,0,0,-1.3333333,190.17333,294.36133)" />
      <path
         id="path28"
         d="M 0,0 C -0.192,-0.256 -0.871,-0.511 -2.04,-0.726 -2.202,-0.422 -2.347,-0.095 -2.512,0.247 -2.709,0.723 -2.735,1.034 -2.578,1.243 -2.403,1.476 -2.014,1.476 -1.41,1.24 -0.948,1.076 -0.56,0.857 -0.248,0.623 0.064,0.389 0.14,0.186 0,0 Z m 19.8,19.773 c -0.129,0.817 -0.535,1.599 -1.182,2.348 -0.51,0.59 -1.384,1.38 -2.624,2.37 -1.263,0.971 -2.138,1.761 -2.647,2.352 l -0.119,0.137 0.471,0.167 -0.344,2.314 c -0.439,-0.517 -1.02,-0.778 -1.684,-0.768 -0.664,0.011 -1.224,0.214 -1.637,0.648 -0.293,-0.597 -0.199,-1.374 0.261,-2.351 0.185,-0.081 0.375,-0.123 0.51,-0.144 0.582,-0.631 1.733,-1.561 3.406,-2.83 1.549,-1.17 2.638,-2.119 3.233,-2.808 0.425,-0.491 0.465,-0.938 0.175,-1.36 -0.037,-0.064 -0.357,-0.36 -0.357,-0.36 l -0.768,-0.713 c -0.037,-0.032 -0.064,-0.057 -0.102,-0.09 l 0.002,-0.003 -2.827,-2.588 C 12.639,15.168 12.044,14.61 11.803,14.48 11.036,13.972 10.334,13.933 9.719,14.384 L 9.577,14.279 c 0.532,-0.533 0.806,-0.848 0.801,-0.927 C 10.362,13.08 10.147,12.718 9.733,12.268 9.705,12.241 8.821,11.327 8.821,11.327 L 6.421,8.774 3.113,4.872 1.812,3.41 C 1.35,2.899 0.846,2.642 0.018,2.536 -0.681,2.515 -1.401,2.509 -2.138,2.479 -2.875,2.45 -3.349,2.296 -3.558,2.016 -3.96,1.48 -4.064,0.866 -3.865,0.134 c 0.209,-0.63 0.457,-1.253 0.666,-1.883 0.181,-0.756 0.081,-1.408 -0.339,-1.967 l -0.594,-0.793 -1.951,-2.974 -2.659,-4.255 c -0.644,-1.142 -1.067,-1.839 -1.263,-2.029 -0.603,-0.697 -1.268,-0.923 -1.981,-0.655 l -0.109,-0.139 c 0.657,-0.371 1.005,-0.6 1.022,-0.676 0.058,-0.268 -0.052,-0.674 -0.329,-1.219 0.063,0.113 -2.236,-4.204 -2.236,-4.204 l -0.508,-1.073 -1.703,-3.599 -0.894,-2.095 c -0.397,-1.19 -0.585,-2.234 -0.128,-3.286 0.456,-1.052 1.205,-1.78 2.223,-2.176 1.066,-0.414 2.042,0.52 2.938,2.827 0.211,0.543 0.389,0.787 0.559,0.72 0.266,-0.103 0.252,-0.785 -0.041,-2.045 -0.206,-0.888 -0.442,-1.64 -0.695,-2.292 -1.528,-3.937 -3.388,-5.495 -5.593,-4.639 -0.509,0.198 -1.201,0.716 -2.04,1.573 l -0.258,-0.306 c 0.783,-0.929 1.349,-1.555 1.698,-1.877 0.597,-0.545 1.296,-0.972 2.096,-1.282 1.091,-0.424 2.198,-0.229 3.347,0.575 1.069,0.74 1.84,1.722 2.325,2.971 0.537,1.384 0.864,2.944 0.945,4.662 0.118,2.172 -0.337,3.442 -1.355,3.837 -0.606,0.235 -1.217,0.098 -1.858,-0.403 -0.331,-0.278 -0.781,-0.79 -1.396,-1.582 -0.47,-0.568 -0.767,-0.828 -0.912,-0.771 -0.267,0.104 -0.156,0.748 0.297,1.915 l 0.905,1.925 2.139,4.52 2.171,4.193 0.266,0.586 c 0.177,0.575 0.029,1.251 -0.47,2.07 1.061,-0.13 1.806,0.186 2.249,0.972 l 0.515,0.878 2.381,3.867 3.215,4.856 c 0,0 0.521,0.831 0.116,2.327 2.018,0.305 3.282,0.777 3.772,1.428 0.542,0.723 0.44,1.454 -0.3,2.156 1.031,-0.099 2.349,1.811 2.349,1.811 l 2.937,3.464 0.008,-0.007 3.427,3.762 0.482,0.555 c 0.336,0.507 0.38,1.202 0.118,2.136 0.986,-0.412 1.788,-0.309 2.427,0.329 l 0.784,0.782 3.383,3.141 0.603,0.522 c 0.771,0.666 1.056,1.496 0.914,2.506 z m -3.537,-7.784 -2.022,-0.365 0.307,-1.75 -1.981,-0.324 0.397,-1.881 2.141,0.41 -0.377,1.533 1.93,0.457 z m -28.833,-25.011 -0.918,1.654 -1.864,-0.922 0.867,-1.693 z m 4.773,-20.683 -1.796,-1.177 1.013,-1.487 -1.646,-1.079 1.102,-1.615 1.779,1.277 -0.955,1.277 1.581,1.198 -1.078,1.606"
         style="fill:#231f20;fill-opacity:1;fill-rule:nonzero;stroke:none"
         transform="matrix(1.3333333,0,0,-1.3333333,27.132,87.061333)" />
      <path
         id="path29"
         d="m 0,0 c -1.564,1.521 -2.627,2.672 -3.243,3.478 -0.108,-0.77 -0.149,-1.292 -0.154,-1.525 -0.01,-0.563 0.12,-1.021 0.388,-1.372 0.458,-0.599 1.724,-1.825 3.82,-3.658 1.302,-1.131 2.404,-2.286 3.304,-3.463 l 0.393,0.3 C 4.24,-5.169 3.842,-4.263 3.273,-3.52 2.658,-2.713 1.564,-1.52 0,0"
         style="fill:#231f20;fill-opacity:1;fill-rule:nonzero;stroke:none"
         transform="matrix(1.3333333,0,0,-1.3333333,53.765333,48.602667)" />
      <path
         id="path30"
         d="m 0,0 c -0.297,-0.123 -1.012,0.003 -2.127,0.413 0.016,0.344 0.057,0.699 0.088,1.078 0.072,0.508 0.209,0.79 0.451,0.89 C -1.32,2.493 -0.984,2.294 -0.584,1.785 -0.27,1.409 -0.047,1.022 0.104,0.663 0.252,0.302 0.215,0.089 0,0 Z m 25.057,11.408 c -0.17,-0.037 -0.426,-0.093 -0.735,-0.187 -0.306,-0.094 -0.556,-0.175 -0.728,-0.212 -1.365,-0.298 -2.996,-0.335 -4.893,-0.111 -1.193,0.139 -2.056,0.137 -2.627,0.013 C 15.164,10.712 14.525,10.227 14.186,9.46 13.967,8.96 13.832,8.212 13.793,7.165 l 1.764,0.386 c 0.047,0.329 0.298,0.544 0.781,0.65 0.627,0.136 1.535,0.069 2.723,-0.178 C 17.959,7.197 17.098,6.636 16.482,6.316 15.758,5.945 10.024,4.244 10.024,4.244 L 5.171,2.581 3.293,2.015 C 2.685,1.786 2.07,1.846 1.303,2.174 0.691,2.511 0.068,2.872 -0.582,3.222 -1.23,3.571 -1.717,3.679 -2.039,3.545 -2.658,3.289 -3.06,2.812 -3.262,2.081 -3.4,1.432 -3.504,0.77 -3.645,0.12 -3.864,-0.593 -4.264,-1.087 -4.868,-1.363 l -0.003,0.006 -4.167,-2.044 -5.162,-2.693 -0.003,-10e-4 -3.332,-1.898 c 0,0 -1.522,-0.81 -1.799,-0.866 -0.451,-0.109 -1.033,0.038 -1.734,0.418 l -0.198,-2.677 c 0.92,-0.609 1.797,-0.78 2.647,-0.536 -0.029,-0.858 -0.049,-1.679 -0.055,-2.522 -0.039,-1.112 -0.174,-1.915 -0.392,-2.431 -0.491,-1.221 -1.192,-2.116 -2.045,-2.674 -0.244,-0.159 -0.637,-0.355 -1.205,-0.602 v -0.373 c 1.789,0.083 3.117,0.393 3.994,0.967 1.244,0.813 1.791,2.103 1.693,3.903 -0.088,1.249 -0.461,2.619 -1.139,4.133 l 0.888,0.582 3.958,2.194 4.014,2.128 5.208,2.606 c 0.372,0.214 0.632,0.415 0.747,0.603 0.342,0.62 0.517,1.032 0.572,1.279 1.893,-0.762 3.221,-0.999 3.973,-0.686 0.834,0.346 1.119,1.027 0.838,2.008 0.828,-0.474 2.961,0.336 2.961,0.336 l 4.308,1.45 5.548,1.777 c 0.396,0.136 0.696,0.277 0.878,0.419 0.49,0.347 1.125,0.992 1.967,1.92 0.816,0.897 1.478,1.548 1.992,1.926 1.027,0.756 2.225,1.284 3.561,1.576 0.654,0.142 1.189,0.286 1.548,0.417 l -0.136,2.126"
         style="fill:#231f20;fill-opacity:1;fill-rule:nonzero;stroke:none"
         transform="matrix(1.3333333,0,0,-1.3333333,99.606667,31.477333)" />
      <path
         id="path31"
         d="m 0,0 c -0.489,-0.08 -1.229,0.114 -2.225,0.609 0.26,0.385 0.547,0.617 0.893,0.674 0.316,0.051 0.742,-0.036 1.31,-0.259 C 0.129,1.55 0.193,1.876 0.164,2.056 0.088,2.518 -0.209,2.706 -0.727,2.621 -1.158,2.55 -1.656,2.178 -2.229,1.53 -2.797,0.857 -3.063,0.313 -2.998,-0.072 c 0.047,-0.282 0.418,-0.564 1.146,-0.865 -0.633,-0.289 -1.062,-0.729 -1.281,-1.37 l 3.49,1.576 c 0.36,0.138 0.572,0.278 0.666,0.425 0.1,0.122 0.176,0.372 0.207,0.72 C 0.82,0.214 0.431,0.071 0,0"
         style="fill:#231f20;fill-opacity:1;fill-rule:nonzero;stroke:none"
         transform="matrix(1.3333333,0,0,-1.3333333,138.43067,3.52)" />
      <path
         id="path32"
         d="M 0,0 C 0.103,-1.061 -0.008,-2.013 -0.311,-2.8 -2.872,0.632 -5.448,3.017 -8.008,4.358 -8.909,3.094 -9.346,2.189 -9.295,1.671 c 0.039,-0.388 0.347,-0.854 0.896,-1.374 0.549,-0.521 1.041,-0.76 1.445,-0.72 0.262,0.026 0.522,0.364 0.782,0.991 1.787,-1.209 3.558,-2.863 5.31,-4.911 -0.863,-1.026 -1.631,-1.859 -2.359,-2.479 l -1.072,-0.106 -0.256,-2.742 2.607,0.256 c 1.188,0.117 2.018,0.304 2.52,0.562 0.75,0.413 1.095,1.048 1.008,1.954 -0.084,0.854 -0.479,1.886 -1.213,3.094 0.5,1.173 0.795,2.038 0.88,2.647 0.045,0.448 0.014,1.36 -0.126,2.783 C 1.099,1.911 1.078,2.118 1.066,2.247 L 1.308,2.167 2.386,4.284 C 1.73,4.115 1.107,4.21 0.57,4.602 0.035,4.993 -0.307,5.482 -0.397,6.101 -1.006,5.753 -1.377,5.063 -1.539,4.029 -1.401,3.807 -1.2,3.565 -0.946,3.355 -0.37,1.662 -0.055,0.543 0,0 Z m -0.873,-6.591 -0.754,-0.075 c 0.459,0.385 0.877,0.897 1.316,1.489 0.391,-0.406 0.596,-0.7 0.615,-0.907 0.026,-0.258 -0.367,-0.428 -1.177,-0.507"
         style="fill:#231f20;fill-opacity:1;fill-rule:nonzero;stroke:none"
         transform="matrix(1.3333333,0,0,-1.3333333,148.77467,12.513333)" />
      <path
         id="path33"
         d="M 0,0 C -0.334,2.156 -0.491,3.715 -0.496,4.729 -1.045,4.179 -1.393,3.787 -1.537,3.604 -1.883,3.16 -2.055,2.717 -2.053,2.275 c 0.006,-0.754 0.279,-2.495 0.85,-5.221 0.361,-1.687 0.545,-3.272 0.554,-4.754 l 0.496,0.003 c 0.43,1.017 0.657,1.98 0.651,2.916 C 0.492,-3.767 0.336,-2.156 0,0"
         style="fill:#231f20;fill-opacity:1;fill-rule:nonzero;stroke:none"
         transform="matrix(1.3333333,0,0,-1.3333333,158.93333,11.334667)" />
      <path
         id="path34"
         d="M 0,0 1.445,1.86 C 0.77,1.814 0.174,2.021 -0.283,2.503 -0.767,2.988 -1.013,3.531 -0.988,4.155 -1.621,3.948 -2.111,3.337 -2.461,2.324 L -2.158,1.75 c 0.406,-2.436 0.746,-4.265 1.023,-5.463 0.239,-1.664 0.272,-3.337 0.123,-5.073 -0.041,-0.492 -0.156,-0.821 -0.322,-1.042 -0.328,-0.416 -1.056,-0.745 -2.213,-0.933 -0.949,-0.155 -1.8,-0.212 -2.554,-0.148 -0.987,0.084 -1.813,0.337 -2.508,0.762 -0.862,0.517 -1.244,1.176 -1.176,1.979 0.047,0.544 0.234,1.023 0.537,1.494 0.137,0.223 0.463,0.639 1.014,1.27 l -0.295,0.312 c -1.756,-1.755 -2.717,-3.421 -2.852,-5.002 -0.099,-1.165 0.319,-2.088 1.284,-2.771 0.796,-0.59 1.906,-0.945 3.271,-1.061 1.943,-0.166 3.492,0.172 4.674,1.011 1.181,0.838 1.846,2.112 1.992,3.822 0.158,1.865 0.137,4.346 -0.041,7.414 -0.031,0.655 -0.068,1.259 -0.051,1.805 L 0,0"
         style="fill:#231f20;fill-opacity:1;fill-rule:nonzero;stroke:none"
         transform="matrix(1.3333333,0,0,-1.3333333,182.74,8.7453333)" />
      <path
         id="path35"
         d="M 0,0 C -0.42,-0.018 -1.09,0.044 -2.065,0.208 -0.547,1.453 0.461,1.953 0.969,1.735 1.611,1.458 1.849,1.129 1.674,0.724 1.469,0.246 0.92,0.001 0,0 Z m -0.588,-6.455 c -0.113,-0.263 -0.301,-0.408 -0.613,-0.471 -0.315,-0.064 -0.596,-0.056 -0.889,0.071 -0.723,0.31 -1.238,0.956 -1.502,1.89 -0.203,0.71 -0.246,1.493 -0.168,2.337 2.568,-1.473 3.635,-2.752 3.172,-3.827 z m 25.084,3.905 c -0.172,0.641 -0.131,1.236 0.172,1.752 -0.655,0.117 -1.375,-0.188 -2.188,-0.899 -0.027,-0.2 -0.015,-0.394 0.002,-0.529 -0.445,-0.734 -1.023,-2.096 -1.783,-4.054 -0.697,-1.811 -1.311,-3.12 -1.809,-3.881 -0.355,-0.544 -0.773,-0.705 -1.259,-0.543 -0.073,0.017 -0.442,0.255 -0.442,0.255 l -3.974,2.397 -4.037,2.296 -4.549,2.366 c 0,0 -3.028,1.512 -3.428,1.685 C 0.826,-1.544 0.496,-1.43 0.244,-1.35 1.638,-1.129 2.596,-0.38 3.138,0.886 3.346,1.364 3.486,1.841 3.554,2.293 3.66,2.983 3.553,3.397 3.232,3.535 2.562,3.823 1.383,3.509 -0.266,2.549 -1.674,1.71 -2.694,0.96 -3.311,0.263 -3.881,0.48 -5.304,1.007 -5.304,1.007 l -3.292,1.261 -0.911,0.3 -0.202,0.075 -0.003,-0.008 -4.417,1.452 -0.001,-0.003 -3.746,1.075 -1.904,0.556 c -0.526,0.198 -0.761,0.511 -0.878,1.092 -0.246,0.98 -0.268,2.762 -0.071,5.322 0.141,2.281 0.358,4.068 0.625,5.367 -0.914,-0.689 -1.478,-1.264 -1.73,-1.769 -0.172,-0.549 -0.289,-0.976 -0.346,-1.256 -0.201,-0.835 -0.514,-1.78 -0.967,-2.828 -0.49,-1.094 -0.968,-1.978 -1.424,-2.601 -0.183,2.293 -1.292,4.431 -3.347,6.445 -1.383,1.371 -2.278,2.085 -2.649,2.161 -0.398,0.082 -0.705,-0.253 -0.953,-1.025 -0.064,-0.173 -0.174,-0.708 -0.345,-1.548 -0.116,-0.561 -0.004,-1.034 0.365,-1.403 0.539,-0.561 0.955,-0.858 1.24,-0.917 0.143,-0.029 0.311,0.069 0.568,0.308 0.229,0.246 0.37,0.35 0.454,0.332 0.542,-0.111 1.375,-0.839 2.525,-2.189 1.121,-1.345 1.648,-2.249 1.56,-2.682 C -25.309,7.76 -26.317,6.905 -28.147,5.953 -29.51,5.25 -30.846,4.674 -32.203,4.289 l 0.009,-0.241 c 0.883,-0.048 1.77,-0.07 2.629,-0.087 1.012,0.005 1.873,0.147 2.551,0.406 1.166,0.478 2.291,1.76 3.35,3.879 0.5,0.985 1.162,2.628 1.98,4.876 -0.303,-1.478 -0.472,-3.035 -0.545,-4.693 -0.111,-2.286 0.116,-3.792 0.651,-4.512 0.302,-0.407 0.754,-0.739 1.295,-0.851 l 5.411,-1.581 4.461,-1.466 5.074,-1.885 0.858,-0.369 c -0.894,-3.776 -0.494,-6.014 1.192,-6.739 0.75,-0.321 1.492,-0.216 2.201,0.328 0.541,0.447 0.978,1.022 1.297,1.763 0.205,0.478 0.289,0.894 0.289,1.262 0.002,0.226 -0.094,0.664 -0.227,1.315 0.557,-0.216 6.568,-3.235 6.568,-3.235 l -0.005,-0.009 3.974,-2.2 -0.004,-0.007 3.891,-2.347 -0.002,-0.003 0.803,-0.526 c 0.853,-0.558 1.728,-0.603 2.662,-0.188 0.75,0.348 1.391,0.955 1.932,1.781 0.425,0.653 0.945,1.712 1.554,3.177 0.586,1.481 1.106,2.539 1.533,3.192 l 0.1,0.152 0.289,-0.407 2.131,0.969 c -0.619,0.279 -1.031,0.766 -1.203,1.407"
         style="fill:#231f20;fill-opacity:1;fill-rule:nonzero;stroke:none"
         transform="matrix(1.3333333,0,0,-1.3333333,229.70667,31.428)" />
      <path
         id="path36"
         d="M 0,0 C 1.031,1.922 1.847,3.26 2.453,4.073 1.681,3.966 1.17,3.862 0.943,3.803 0.4,3.657 -0.004,3.407 -0.268,3.053 -0.719,2.448 -1.549,0.894 -2.737,-1.626 -3.465,-3.19 -4.274,-4.566 -5.158,-5.755 l 0.398,-0.296 c 0.955,0.553 1.717,1.185 2.275,1.936 C -1.879,-3.302 -1.033,-1.922 0,0"
         style="fill:#231f20;fill-opacity:1;fill-rule:nonzero;stroke:none"
         transform="matrix(1.3333333,0,0,-1.3333333,265.6,45.445333)" />
      <path
         id="path37"
         d="M 0,0 C -0.351,-0.167 -0.566,-0.14 -0.666,0.071 -0.802,0.36 -0.71,1.08 -0.357,2.215 -0.011,2.217 0.344,2.192 0.725,2.179 1.237,2.131 1.524,2.01 1.637,1.772 1.76,1.509 1.579,1.165 1.088,0.74 0.729,0.408 0.354,0.167 0,0 Z m -33.105,46.477 c -0.168,-0.199 -0.363,-0.205 -0.607,0.002 -1.002,0.844 -1.414,1.396 -1.196,1.654 0.217,0.258 1.11,0.186 2.653,-0.197 -0.313,-0.687 -0.598,-1.161 -0.85,-1.459 z M 9.35,-14.352 c -0.133,0.292 -0.246,0.531 -0.305,0.695 -0.474,1.314 -0.724,2.927 -0.752,4.837 -0.017,1.201 -0.132,2.056 -0.33,2.604 -0.316,0.877 -0.882,1.447 -1.685,1.684 -0.526,0.15 -1.283,0.186 -2.326,0.089 l 0.611,-1.699 c 0.389,-0.077 0.643,-0.325 0.781,-0.709 0.209,-0.575 0.25,-1.458 0.147,-2.702 -0.963,0.984 -1.631,1.764 -2.03,2.332 -0.394,0.57 -1.119,2.336 -1.119,2.336 L 1.506,-3.121 C 1.245,-2.568 1.278,-1.908 1.571,-1.126 1.877,-0.498 2.208,0.142 2.524,0.808 2.842,1.474 2.926,1.964 2.776,2.28 2.491,2.886 1.995,3.263 1.254,3.429 0.6,3.537 -0.066,3.608 -0.722,3.717 -1.44,3.899 -1.95,4.273 -2.255,4.855 l 0.004,0.002 -0.124,0.225 -0.397,0.725 -1.659,3.086 -0.591,1.019 -0.028,0.052 -0.001,-0.001 -2.014,3.475 -2.378,3.786 c 0,0 -1.06,1.675 -0.908,1.462 -0.283,0.442 -0.504,0.929 -0.602,1.467 1.008,-0.603 1.842,-0.652 2.518,-0.17 0.635,0.455 0.939,1.102 0.91,1.903 -0.037,0.724 -0.291,1.437 -0.816,2.173 -0.711,0.995 -1.383,1.624 -2.024,1.847 -0.715,0.241 -1.51,0.103 -2.427,-0.446 0.558,-0.782 0.675,-1.664 0.351,-2.684 -0.598,0.254 -1.055,0.535 -1.338,0.799 -0.057,0.059 -0.299,0.397 -0.299,0.397 l -0.478,0.607 c -0.07,0.096 -0.225,0.285 -0.225,0.285 l -2.167,2.748 -3.159,3.9 c -0.883,0.968 -1.412,1.589 -1.531,1.835 -0.475,0.79 -0.481,1.492 -0.002,2.087 l -0.098,0.146 c -0.558,-0.508 -0.885,-0.767 -0.963,-0.759 -0.27,0.029 -0.621,0.259 -1.051,0.691 -0.022,0.024 -0.487,0.534 -0.487,0.534 -0.117,0.129 -0.415,0.424 -0.415,0.424 l -2.396,2.485 -0.86,0.816 -2.765,2.631 c 0,0 -1.143,1.084 -1.326,1.273 -0.25,0.245 -0.383,0.494 -0.377,0.727 -0.012,0.213 0.48,1.158 1.494,2.856 1.267,2.092 1.883,3.138 1.9,3.158 -1.209,-0.035 -1.918,-0.151 -2.137,-0.41 -0.117,-0.139 -0.334,-0.533 -0.654,-1.183 -1.098,0.28 -1.744,0.416 -1.982,0.448 -0.719,0.096 -1.332,10e-4 -1.885,-0.247 -1.016,-0.437 -1.652,-0.784 -1.902,-1.083 -0.237,-0.278 -0.258,-0.667 -0.032,-1.165 0.201,-0.44 0.446,-0.782 0.78,-1.064 0.49,-0.413 1.554,-0.46 3.177,-0.162 -0.531,-0.811 -0.834,-1.44 -0.923,-1.908 -0.165,-0.781 0.064,-1.414 0.709,-1.959 l 4.384,-4.178 3.228,-3.297 0.489,-0.454 c 0.49,-0.348 1.179,-0.419 2.113,-0.202 -0.455,-0.967 -0.39,-1.774 0.219,-2.441 l 0.668,-0.766 2.924,-3.474 3.053,-3.87 0.343,-0.483 c 0.424,-0.593 1.672,-1.132 3.746,-1.62 -0.169,-1.194 -0.238,-1.815 -0.242,-1.854 -0.054,-0.862 0,-1.432 0.221,-1.739 l 0.562,-0.896 2.737,-4.356 2.013,-3.474 2.795,-4.999 c 0.23,-0.359 0.443,-0.607 0.635,-0.712 0.637,-0.31 1.055,-0.467 1.305,-0.51 -0.67,-1.927 -0.842,-3.265 -0.492,-4.003 0.386,-0.815 1.08,-1.067 2.047,-0.738 -0.239,-0.531 -0.188,-1.184 0.148,-1.894 l 0.569,-1.205 c 0.332,-0.886 0.653,-1.486 0.935,-1.761 0.408,-0.442 1.129,-0.986 2.16,-1.697 0.996,-0.694 1.729,-1.265 2.17,-1.725 0.885,-0.919 1.564,-2.036 2.029,-3.323 0.227,-0.63 0.44,-1.142 0.615,-1.481 l 2.09,0.414 c -0.058,0.164 -0.148,0.41 -0.281,0.703 z m -9.816,1.163 1.896,-0.43 0.567,2.031 -1.893,0.493 z m -25.899,44.002 -0.234,1.995 -1.897,-0.312 0.313,-2.157 1.549,0.307 0.367,-1.948 1.937,0.307 -0.273,2.035 z m -2.765,22.005 0.603,-1.904 1.902,0.539 -0.542,2.022 -1.717,-0.457 -0.549,1.925 -1.846,-0.518 0.654,-2.115 1.495,0.508"
         style="fill:#231f20;fill-opacity:1;fill-rule:nonzero;stroke:none"
         transform="matrix(1.3333333,0,0,-1.3333333,317.27867,120.356)" />
    </g>
  </g>
</svg>
