<?xml version="1.0" encoding="utf-8"?>
<!-- Generator: Adobe Illustrator 19.2.0, SVG Export Plug-In . SVG Version: 6.00 Build 0)  -->
<svg version="1.1" id="Layer_1" xmlns="http://www.w3.org/2000/svg" xmlns:xlink="http://www.w3.org/1999/xlink" x="0px" y="0px"
	 viewBox="0 0 595.3 400" style="enable-background:new 0 0 595.3 400;" xml:space="preserve">
<style type="text/css">
	.st0{fill:#FFFFFF;}
	.st1{fill:#E1001A;}
	.st2{fill:#1D1A1E;}
</style>
<g>
	<rect x="73" y="100.1" class="st0" width="462" height="202"/>
	<path class="st1" d="M225.9,221.3c-7.1,0-14.1,0-21.1,0c-7,0-14,0-21.1,0c0,14.1,0,28.2,0,42.3c-14.2,0-28.2,0-42.4,0
		c0-14,0-28,0-42.2c-14.1,0-28.1,0-42.3,0c0-14.2,0-28.3,0-42.4c14,0,28,0,42.1,0c0-14.1,0-28.1,0-42.2c14.2,0,28.3,0,42.5,0
		c0,14,0,28,0,42.2c14.2,0,28.1,0,42.2,0C225.9,193.1,225.9,207.1,225.9,221.3z"/>
	<g>
		<path class="st2" d="M259,136.5c5.7,0,11.2-0.3,16.7,0.1c7.6,0.5,12.3,5,13.8,12.5c0.9,4.5,0.6,9-1.1,13.3
			c-2.1,5.4-6.2,8.3-11.9,9.1c-0.6,0.1-1.3,0.1-1.9,0.1c-5.2,0-10.4,0-15.7,0C259,159.8,259,148.2,259,136.5z M266.8,165
			c2.6,0,5.1,0.1,7.5,0c3.6-0.2,6-2.1,7.2-5.5c1.2-3.7,1.1-7.5-0.2-11.3c-0.9-2.4-2.6-4-5.1-4.7c-3.1-0.9-6.2-0.4-9.3-0.6
			C266.8,150.4,266.8,157.6,266.8,165z"/>
		<path class="st2" d="M282.9,200.9c3.6,1.4,4.6,4.3,4.9,7.6c0.3,3,0.1,6.1,1.5,9c-2.4,0-4.7,0-6.9,0c-0.9,0-1-0.5-1.2-1.1
			c-0.4-1.7-0.5-3.5-0.7-5.3c-0.1-1.1-0.2-2.3-0.5-3.4c-0.6-2.5-2.1-3.8-4.7-3.9c-2.7-0.1-5.5,0-8.4,0c0,4.6,0,9,0,13.6
			c-2.7,0-5.2,0-7.7,0c0-11.6,0-23.2,0-34.8c0.4-0.3,0.9-0.2,1.3-0.2c5.9,0,11.8,0,17.7,0c7.2,0,11.7,6.1,9.6,13.1
			C287.1,197.9,285.9,199.3,282.9,200.9z M266.9,198.2c0.3,0,0.4,0.1,0.5,0.1c2.3,0,4.6,0,6.9,0c1.1,0,2.3,0,3.4-0.4
			c1.9-0.7,2.9-2.3,2.8-4.8c0-2.3-1.1-4-3.1-4.4c-3.5-0.6-7-0.2-10.6-0.2C266.9,191.9,266.9,195,266.9,198.2z"/>
		<path class="st2" d="M289.9,228.8c-4.6,4.3-9.2,8.6-13.8,13c5.3,7.4,10.2,14.5,15.4,21.7c-3.3,0-6.2,0-9.1,0
			c-0.9,0-1.1-0.7-1.5-1.2c-3.2-4.8-6.4-9.6-9.9-14.7c-1.4,1.5-2.6,2.8-3.9,4.1c-0.5,0.5-0.3,1.1-0.3,1.6c0,3.3,0,6.6,0,10.1
			c-2.6,0-5.1,0-7.7,0c0-11.6,0-23.2,0-34.9c2.5,0,5,0,7.7,0c0,4.6,0,9.2,0,14.2c3.5-3.7,7-7,10-10.7c2.3-2.8,4.8-4.3,8.5-3.7
			c1.4,0.2,2.9,0,4.4,0C289.7,228.6,289.8,228.7,289.9,228.8z"/>
		<path class="st2" d="M447.6,171.4c-2.4,0-4.6,0-6.9,0c0-4.6,0-9.2,0-13.8c0-0.8,0-1.6-0.1-2.4c-0.4-2.9-1.7-4.2-4.2-4.3
			c-2.8-0.1-4.5,1.3-5.2,4c-0.3,1.4-0.3,2.8-0.3,4.3c0,4,0,8,0,12.1c-2.3,0-4.6,0-6.9,0c0-11.6,0-23.2,0-34.9c2.2,0,4.4,0,6.9,0
			c0,4.2,0,8.4,0,13.1c1.8-2.2,3.6-3.7,6-4c6.5-0.8,10.4,1.8,10.7,7.7C447.8,159.4,447.6,165.4,447.6,171.4z"/>
		<path class="st2" d="M335.8,252.6c-3.1,0-6.1,0-9.1,0c-3,0-5.9,0-8.9,0c-0.2,2.8,1,4.9,3.1,5.8c2.7,1.1,6.1,0.5,7.7-1.7
			c0.8-1,1.5-1.2,2.6-1.1c1.4,0,2.7,0,4.3,0c-0.6,2.4-1.8,4.4-3.6,5.9c-5.5,4.8-15.8,3-19.4-3.3c-3.6-6.4-2.2-17.1,6.6-20.1
			c8.1-2.8,15.8,2,16.8,10.5C336,249.9,336.1,251.1,335.8,252.6z M328.9,248c-0.8-4-2.7-5.6-6.1-5.3c-2.9,0.3-4.9,2.3-5,5.3
			C321.5,248,325.1,248,328.9,248z"/>
		<path class="st2" d="M476.6,160.5c-6.1,0-12.1,0-18.1,0c-0.3,2.8,1,5.2,3.3,6c2.7,1,6.1,0.3,7.5-1.8c0.7-1,1.3-1.2,2.4-1.1
			c1.4,0.1,2.9,0,4.3,0c-0.5,4-3.9,7.3-8.5,8.3c-6.4,1.4-12.3-1.2-14.8-6.5c-3.7-7.7-0.1-17,7.5-19.4c7.9-2.5,15.3,2.3,16.3,10.5
			C476.7,157.7,477,159,476.6,160.5z M458.4,156c3.7,0,7.4,0,11.1,0c-0.5-3.5-2.3-5.3-5.4-5.2C460.9,150.8,458.9,152.6,458.4,156z"
			/>
		<path class="st2" d="M318.3,160.6c-6.1,0-12.1,0-18.1,0c0,3.1,1.2,5.2,3.5,6c2.7,1,6,0.2,7.6-2c0.5-0.7,1-0.9,1.8-0.9
			c1.5,0,3.1,0,4.8,0c-1,3.4-2.8,6-5.8,7.4c-5.1,2.4-13.4,1.7-17.1-4.5c-3.6-6-2.2-14.8,3.2-18.6c4.1-3,8.7-3.4,13.3-1.3
			c4.7,2.2,6.4,6.4,6.9,11.3c0.1,0.6,0,1.1,0,1.7C318.3,159.9,318.3,160.1,318.3,160.6z M311,156c-0.1-3.2-2-5.2-5.1-5.2
			c-3.3-0.1-5.6,1.9-5.8,5.2C303.8,156,307.4,156,311,156z"/>
		<path class="st2" d="M364.5,206.5c-6.1,0-12.1,0-18.1,0c-0.1,3,1,5,3.4,5.9c2.7,1,5.9,0.3,7.5-1.8c0.6-0.8,1.2-1.1,2.2-1.1
			c1.5,0.1,3,0,4.5,0c-1,4.9-4.9,8.1-10.4,8.6c-7.6,0.7-13.3-3.7-14.3-11.2c-1.1-7.9,3.4-14.2,10.8-15.5c7.1-1.2,13.4,3.6,14.2,11
			C364.6,203.8,364.9,205,364.5,206.5z M357.5,202.1c-0.8-4-2.7-5.7-6-5.4c-3,0.3-5,2.3-5,5.4c3.1,0,6.3,0,9.4,0
			C356.4,202.1,356.9,202.1,357.5,202.1z"/>
		<path class="st2" d="M356.9,259.9c-2.7,3.6-6.1,4.6-10.1,4.1c-3.8-0.5-6.1-2.6-6.8-6.4c-0.6-3.1-0.3-6.2-0.3-9.3
			c0-3.3,0-6.5,0-9.8c0-0.1,0-0.2,0.1-0.5c2.2,0,4.5,0,6.9,0c0,1.8,0,3.6,0,5.4c0.1,3.7-0.3,7.3,0.2,11c0.3,2.6,1.7,3.9,4.1,4
			c2.6,0.1,4.5-1.2,5.2-3.6c0.3-1.3,0.4-2.6,0.4-3.9c0-4.3,0-8.6,0-13c2.3,0,4.6,0,6.9,0c0,8.4,0,16.8,0,25.3c-2.2,0-4.2,0-6.5,0
			C356.9,262.4,356.9,261.4,356.9,259.9z"/>
		<path class="st2" d="M318.7,204.8c0,8.1-5.2,13.4-13.2,13.4c-7.9,0-13.1-5.2-13.2-13.3c-0.1-8,5.2-13.5,13.2-13.5
			C313.5,191.4,318.7,196.7,318.7,204.8z M299.4,204.8c-0.1,1.5,0.1,3,0.7,4.5c0.9,2.3,2.8,3.6,5.2,3.7c2.5,0.1,4.5-1.2,5.5-3.6
			c1.1-2.8,1.1-5.6,0.3-8.4c-0.8-2.8-2.8-4.2-5.5-4.3c-2.7,0-4.7,1.4-5.6,4.1C299.5,202.1,299.3,203.4,299.4,204.8z"/>
		<path class="st2" d="M322.5,146.2c2.3,0,4.5,0,6.6,0c0.4,0.5,0.3,1,0.3,1.5c0,4.1,0,8.2,0,12.4c0,0.9,0.1,1.7,0.2,2.6
			c0.4,2.8,1.6,4,4,4.1c3.1,0.1,4.7-1.1,5.4-3.9c0.4-1.7,0.3-3.4,0.3-5.1c0-3.8,0-7.5,0-11.4c2.3,0,4.5,0,6.9,0c0,8.4,0,16.8,0,25.2
			c-2.1,0-4.2,0-6.4,0c0-1-0.1-2-0.1-3.3c-2.2,2.8-4.8,4.1-8.2,4c-5.6-0.1-8.6-2.5-8.8-8.1C322.3,158.2,322.5,152.3,322.5,146.2z"/>
		<path class="st2" d="M368.3,163.3c0.3,0,0.6-0.1,0.8-0.1c1.9,0,3.8,0,5.6,0c1.2,3.7,3.9,5.1,7.5,4.1c1.4-0.4,2.5-1.2,2.6-2.8
			c0.1-1.5-1.1-2.1-2.2-2.5c-1.8-0.6-3.6-1-5.5-1.5c-1.4-0.3-2.8-0.7-4.1-1.2c-2.4-1-4.1-2.6-4.2-5.3c-0.1-2.9,0.8-5.5,3.6-6.9
			c4.8-2.3,9.8-2.3,14.6-0.1c2.7,1.2,3.8,3.6,4.1,6.6c-2.2,0-4.3,0-6.4,0c-1.2-3.5-3.6-3.7-6.9-3.1c-1,0.2-1.8,0.8-1.9,1.9
			c-0.1,1.1,0.6,1.8,1.5,2.3c2.1,1,4.4,1.2,6.6,1.8c1.2,0.3,2.3,0.6,3.4,1.1c5.1,2.2,6,8.8,1.6,12.3c-1.3,1.1-2.8,1.7-4.5,2.1
			c-2.9,0.6-5.8,0.6-8.7,0C371.3,170.9,368.9,168.2,368.3,163.3z"/>
		<path class="st2" d="M502.3,153.5c-2.1,0-4.2,0-6.3,0c-1.2-2.9-3.4-4-6.6-3.2c-1,0.3-2,0.6-2.2,1.9c-0.2,1.3,0.6,2,1.7,2.5
			c1.6,0.7,3.3,1,5,1.3c1.6,0.4,3.2,0.7,4.8,1.3c5.1,2.1,6.1,8.6,1.9,12.2c-0.8,0.7-1.6,1.3-2.6,1.6c-4.4,1.6-8.8,1.6-13.1-0.1
			c-3.4-1.3-5.1-4-5.3-7.8c2.2,0,4.3,0,6.4,0c0.9,3.5,3.1,4.9,7.5,4c1.4-0.3,2.4-1.1,2.6-2.6c0.2-1.6-1-2.2-2.2-2.7
			c-2.2-0.9-4.5-1.2-6.8-1.8c-0.8-0.2-1.5-0.4-2.3-0.7c-2.6-1-4.5-2.5-4.6-5.5c-0.1-3.2,1-5.8,4-7.1c4.6-1.9,9.3-2,13.8,0
			C500.8,148,502.3,150.6,502.3,153.5z"/>
		<path class="st2" d="M390.3,199.5c-2.2,0-4.3,0-6.5,0c-1.1-3.1-4.3-4.4-7.3-3c-0.8,0.4-1.3,0.9-1.4,1.8c-0.1,1,0.5,1.6,1.3,2.1
			c1.8,1,3.8,1.2,5.7,1.7c1.3,0.4,2.7,0.6,4,1.1c2.7,1,4.7,2.6,4.9,5.7c0.2,3.4-1,6.1-4,7.7c-3,1.6-6.3,1.9-9.7,1.6
			c-1.9-0.2-3.7-0.6-5.4-1.5c-2.8-1.6-4.2-4-4.4-7.3c2.2,0,4.3,0,6.4,0c1.4,3.7,4.5,5.2,8,3.8c1.2-0.5,2-1.3,2.1-2.6
			c0.1-1.3-0.9-1.9-1.9-2.4c-2.1-0.9-4.4-1.3-6.6-1.8c-1-0.3-2-0.5-3-0.9c-2.5-1-4.4-2.5-4.5-5.5c-0.1-3.1,1-5.8,3.9-7
			c4.7-2.1,9.6-2.1,14.3,0.1C388.9,194.2,390.1,196.5,390.3,199.5z"/>
		<path class="st2" d="M380.5,243.3c-4.3,0-8.1,0-12.1,0c0-1.7,0-3.4,0-5.2c7.1,0,14.2,0,21.4,0c0,1.5,0,3,0,4.5
			c0,0.8-0.5,1.2-1,1.7c-3.7,4.2-7.4,8.4-11.2,12.6c-0.3,0.3-0.5,0.6-0.9,1.1c4.7,0,9.2,0,13.8,0c0,1.9,0,3.6,0,5.4
			c-7.7,0-15.4,0-23.2,0c-0.4-3-0.3-5.6,2.2-8C373.3,251.8,376.7,247.6,380.5,243.3z"/>
		<path class="st2" d="M419.7,155.1c-2.3,0-4.4,0-6.7,0c-0.1-0.3-0.3-0.6-0.4-1c-1.1-4-6.7-4.1-8.8-1.5c-2.4,3-2.6,9.4-0.3,12.4
			c2.5,3.2,7.4,2.5,9-1.2c0.2-0.6,0.4-1.2,0.7-2c1.1,0,2.2,0,3.3,0c1.1,0,2.2,0,3.2,0c-0.2,5.1-3.7,9-8.9,10.1
			c-6.6,1.4-12.5-1.3-15-7c-2.4-5.4-1-12.6,3.1-16.4c4.7-4.3,13.6-4.2,18.1,0.3C418.7,150.5,419.4,152.1,419.7,155.1z"/>
		<path class="st2" d="M324.9,196.8c-1.4,0-2.7,0-4,0c0-1.5,0-3,0-4.6c1.2-0.4,2.6,0,4-0.2c0-2.5,0-4.9,0-7.4c2.4,0,4.6,0,7,0
			c0,2.5,0,4.9,0,7.5c1.7,0,3.3,0,5,0c0.3,1.6,0.2,3.1,0.1,4.8c-1.7,0-3.3,0-5,0c0,4.4-0.1,8.5,0,12.7c0.1,2.3,0.7,2.7,3,2.7
			c0.6,0,1.3,0,2,0c0,1.7,0,3.4,0,5.3c-2.6,0.3-5.3,0.5-7.9-0.2c-2.8-0.7-4.1-2.5-4.1-5.7c0-4.3,0-8.6,0-12.9
			C324.9,198.2,324.9,197.6,324.9,196.8z"/>
		<path class="st2" d="M349.6,146.1c1.4,0,2.6,0,4,0c0-2.6,0-5.1,0-7.6c2.4,0,4.6,0,7,0c0,2.5,0,5,0,7.6c1.8,0,3.4,0,5.1,0
			c0,1.6,0,3,0,4.7c-1.5,0-3.2,0-5,0c0,2.2,0,4.2,0,6.3c0,2,0,4,0,6c0,2.8,0.6,3.3,3.3,3.3c0.5,0,1,0,1.7,0c0,1.7,0,3.4,0,5.3
			c-3.1,0.3-6.2,0.6-9.2-0.7c-2.1-0.9-2.8-2.7-2.8-4.9c0-4.5,0-8.9,0-13.4c0-0.6,0-1.1,0-1.8c-1.4,0-2.7,0-4.1,0
			C349.6,149.3,349.6,147.8,349.6,146.1z"/>
		<path class="st2" d="M293.7,238.2c2.2,0,4.3,0,6.6,0c0,1.3,0,2.5,0,3.8c1.3-1.5,2.5-2.8,4.3-3.6c1.7-0.8,3.5-1.2,5.4-0.7
			c0,2.1,0,4.2,0,6.3c-0.7,0.3-1.5,0-2.2,0c-4.2,0-6.7,2.2-7,6.4c-0.2,3.7-0.1,7.4-0.1,11.2c0,0.6,0,1.2,0,2c-2.4,0-4.6,0-7,0
			C293.7,255,293.7,246.6,293.7,238.2z"/>
	</g>
</g>
</svg>
