<?xml version="1.0" encoding="utf-8"?>
<!-- Generator: Adobe Illustrator 16.0.0, SVG Export Plug-In . SVG Version: 6.00 Build 0)  -->
<!DOCTYPE svg PUBLIC "-//W3C//DTD SVG 1.1//EN" "http://www.w3.org/Graphics/SVG/1.1/DTD/svg11.dtd">
<svg version="1.1" id="Layer_1" xmlns="http://www.w3.org/2000/svg" xmlns:xlink="http://www.w3.org/1999/xlink" x="0px" y="0px"
	 width="595.28px" height="841.89px" viewBox="0 0 595.28 841.89" enable-background="new 0 0 595.28 841.89" xml:space="preserve">
<g>
	<path fill-rule="evenodd" clip-rule="evenodd" fill="#FEFEFE" d="M58.344,38.246c162.972,0,325.944,0,488.959,0
		c0,70.333,0,140.678,0,211.078c-162.959,0-325.959,0-488.959,0C58.344,179.002,58.344,108.63,58.344,38.246z M227.58,165.126
		c0-14.199,0-28.208,0-42.353c-14.064,0-28.023,0-42.18,0c0-14.138,0-28.141,0-42.183c-14.255,0-28.312,0-42.543,0
		c0,14.111,0,28.113,0,42.223c-14.136,0-28.098,0-42.094,0c0,14.161,0,28.212,0,42.417c14.127,0,28.134,0,42.274,0
		c0,14.167,0,28.181,0,42.157c14.158,0,28.18,0,42.361,0c0-14.1,0-28.112,0-42.26c7.139,0,14.118,0,21.097,0
		C213.479,165.126,220.464,165.126,227.58,165.126z M260.729,80.283c0,11.726,0,23.319,0,35.026c5.303,0,10.505,0.002,15.707-0.003
		c0.629,0,1.266,0.019,1.885-0.068c5.66-0.795,9.76-3.66,11.89-9.076c1.702-4.328,1.953-8.797,1.061-13.317
		c-1.486-7.537-6.21-12.008-13.803-12.492C271.946,80,266.383,80.283,260.729,80.283z M284.577,144.725
		c3.025-1.667,4.212-3.004,4.931-5.441c2.042-6.928-2.416-13.004-9.625-13.053c-5.9-0.041-11.801-0.011-17.701-0.001
		c-0.441,0.001-0.917-0.142-1.338,0.195c0,11.592,0,23.191,0,34.833c2.573,0,5.063,0,7.733,0c0-4.574,0-9.063,0-13.622
		c2.926,0,5.673-0.063,8.416,0.018c2.596,0.077,4.132,1.372,4.738,3.917c0.264,1.106,0.347,2.259,0.47,3.395
		c0.191,1.761,0.249,3.538,0.668,5.272c0.157,0.651,0.324,1.147,1.192,1.126c2.224-0.055,4.449-0.019,6.881-0.019
		c-1.429-2.962-1.198-6.03-1.491-9.025C289.13,149.037,288.162,146.128,284.577,144.725z M291.574,172.622
		c-0.073-0.135-0.146-0.27-0.22-0.405c-1.472,0-2.977,0.195-4.412-0.038c-3.673-0.597-6.164,0.889-8.473,3.678
		c-3.036,3.667-6.497,6.982-10.009,10.697c0-4.969,0-9.581,0-14.218c-2.667,0-5.213,0-7.704,0c0,11.718,0,23.316,0,34.9
		c2.623,0,5.116,0,7.701,0c0-3.422-0.008-6.739,0.008-10.056c0.003-0.547-0.155-1.119,0.327-1.612
		c1.291-1.324,2.542-2.686,3.913-4.141c3.438,5.14,6.641,9.942,9.864,14.73c0.359,0.534,0.582,1.217,1.493,1.203
		c2.896-0.048,5.793-0.018,9.064-0.018c-5.151-7.287-10.105-14.294-15.369-21.74C282.415,181.227,286.994,176.924,291.574,172.622z
		 M449.266,115.228c0-6.08,0.231-12.09-0.064-18.075c-0.296-5.958-4.192-8.572-10.695-7.729c-2.438,0.316-4.223,1.81-6.017,3.972
		c0-4.662,0-8.905,0-13.09c-2.448,0-4.706,0-6.891,0c0,11.718,0,23.315,0,34.881c2.375,0,4.631,0,6.934,0
		c0-4.129,0.001-8.136,0-12.144c-0.001-1.431-0.029-2.856,0.303-4.271c0.64-2.728,2.401-4.124,5.163-4.013
		c2.531,0.102,3.801,1.377,4.2,4.29c0.108,0.79,0.127,1.596,0.129,2.395c0.012,4.568,0.006,9.136,0.006,13.783
		C444.688,115.228,446.906,115.228,449.266,115.228z M337.563,196.338c0.275-1.414,0.157-2.667,0.017-3.908
		c-0.963-8.516-8.676-13.327-16.785-10.52c-8.785,3.041-10.201,13.716-6.593,20.098c3.585,6.342,13.843,8.082,19.37,3.313
		c1.796-1.55,2.988-3.498,3.639-5.937c-1.53,0-2.897,0.033-4.262-0.011c-1.055-0.034-1.821,0.083-2.571,1.119
		c-1.577,2.178-5.009,2.784-7.677,1.66c-2.107-0.888-3.293-3.055-3.105-5.814c2.962,0,5.933,0,8.904,0
		C331.475,196.338,334.451,196.338,337.563,196.338z M478.345,104.274c0.322-1.5,0.024-2.746-0.129-3.977
		c-1.019-8.211-8.395-12.932-16.293-10.466c-7.61,2.376-11.197,11.632-7.505,19.369c2.534,5.311,8.437,7.923,14.792,6.545
		c4.597-0.997,7.99-4.275,8.536-8.309c-1.437,0-2.865,0.043-4.29-0.015c-1.029-0.042-1.713,0.175-2.378,1.139
		c-1.444,2.094-4.833,2.773-7.5,1.75c-2.255-0.864-3.558-3.197-3.3-6.037C466.266,104.274,472.264,104.274,478.345,104.274z
		 M319.967,104.344c0.049-0.457,0.09-0.678,0.092-0.899c0.003-0.572,0.03-1.148-0.027-1.716c-0.495-4.862-2.189-9.104-6.894-11.283
		c-4.599-2.13-9.188-1.677-13.321,1.285c-5.387,3.861-6.772,12.632-3.185,18.616c3.678,6.134,11.916,6.861,17.057,4.473
		c3.045-1.416,4.872-3.963,5.837-7.384c-1.754,0-3.287,0.033-4.818-0.013c-0.809-0.024-1.295,0.19-1.811,0.917
		c-1.578,2.228-4.857,3.03-7.59,2.031c-2.266-0.828-3.491-2.924-3.458-6.027C307.842,104.344,313.838,104.344,319.967,104.344z
		 M366.226,150.309c0.353-1.491,0.047-2.737-0.095-3.973c-0.85-7.399-7.128-12.244-14.233-11.026
		c-7.443,1.276-11.895,7.649-10.837,15.518c0.997,7.414,6.691,11.865,14.276,11.16c5.417-0.504,9.317-3.692,10.362-8.555
		c-1.5,0-2.982,0.064-4.457-0.022c-1.004-0.059-1.597,0.24-2.224,1.086c-1.562,2.11-4.834,2.792-7.495,1.762
		c-2.336-0.904-3.503-2.927-3.369-5.95C354.149,150.309,360.15,150.309,366.226,150.309z M358.591,203.701c0,1.474,0,2.518,0,3.553
		c2.287,0,4.379,0,6.536,0c0-8.482,0-16.876,0-25.298c-2.345,0-4.598,0-6.92,0c0,4.406-0.011,8.702,0.006,12.997
		c0.006,1.325-0.081,2.637-0.417,3.916c-0.638,2.419-2.55,3.721-5.171,3.575c-2.402-0.134-3.738-1.405-4.06-4.045
		c-0.443-3.652-0.115-7.325-0.191-10.988c-0.038-1.814-0.007-3.629-0.007-5.445c-2.447,0-4.696,0-6.923,0
		c-0.042,0.233-0.08,0.345-0.08,0.457c-0.005,3.267-0.044,6.534,0.004,9.799c0.045,3.088-0.256,6.188,0.319,9.26
		c0.701,3.739,3.065,5.875,6.848,6.359C352.508,208.351,355.848,207.347,358.591,203.701z M320.384,148.606
		c-0.002-8.157-5.18-13.4-13.23-13.399c-7.961,0.001-13.29,5.462-13.168,13.493c0.124,8.113,5.278,13.33,13.174,13.334
		C315.168,162.037,320.386,156.739,320.384,148.606z M324.184,89.951c0,6.102-0.209,12.061,0.061,17.998
		c0.252,5.524,3.275,7.979,8.836,8.072c3.337,0.056,5.93-1.262,8.162-4.043c0.058,1.294,0.101,2.275,0.144,3.251
		c2.229,0,4.323,0,6.437,0c0-8.459,0-16.838,0-25.232c-2.321,0-4.526,0-6.853,0c0,3.868-0.002,7.64,0.001,11.412
		c0.001,1.717,0.052,3.433-0.326,5.129c-0.618,2.781-2.25,3.983-5.36,3.91c-2.359-0.056-3.55-1.239-3.994-4.05
		c-0.134-0.843-0.19-1.707-0.194-2.562c-0.019-4.124-0.002-8.248-0.018-12.372c-0.002-0.489,0.181-1.028-0.257-1.513
		C328.686,89.951,326.526,89.951,324.184,89.951z M370.036,107.075c0.553,4.902,2.961,7.572,7.669,8.541
		c2.895,0.595,5.806,0.582,8.699-0.026c1.643-0.345,3.156-1.018,4.471-2.084c4.357-3.537,3.498-10.149-1.632-12.332
		c-1.096-0.467-2.273-0.753-3.43-1.063c-2.204-0.59-4.515-0.793-6.614-1.76c-0.938-0.431-1.626-1.123-1.517-2.257
		c0.108-1.133,0.871-1.728,1.915-1.906c3.262-0.558,5.677-0.394,6.907,3.137c2.116,0,4.229,0,6.404,0
		c-0.259-2.929-1.421-5.319-4.077-6.55c-4.827-2.238-9.778-2.223-14.583,0.072c-2.792,1.334-3.739,3.931-3.637,6.871
		c0.095,2.727,1.773,4.345,4.181,5.338c1.327,0.548,2.712,0.882,4.1,1.224c1.83,0.451,3.67,0.886,5.458,1.47
		c1.159,0.378,2.286,1.05,2.226,2.502c-0.066,1.591-1.165,2.418-2.59,2.828c-3.646,1.047-6.291-0.383-7.504-4.07
		c-1.872,0-3.762-0.002-5.65,0.002C370.607,107.012,370.383,107.046,370.036,107.075z M503.983,97.325
		c0.035-2.936-1.45-5.503-4.229-6.715c-4.571-1.993-9.273-1.961-13.835-0.02c-3.024,1.287-4.16,3.906-4.047,7.123
		c0.107,3.051,2.047,4.555,4.613,5.529c0.745,0.283,1.52,0.497,2.291,0.701c2.265,0.599,4.611,0.899,6.79,1.797
		c1.182,0.487,2.37,1.098,2.213,2.683c-0.15,1.529-1.222,2.348-2.582,2.63c-4.446,0.924-6.595-0.504-7.541-3.966
		c-2.118,0-4.226,0-6.404,0c0.198,3.759,1.914,6.435,5.34,7.769c4.318,1.683,8.725,1.621,13.092,0.069
		c0.974-0.347,1.842-0.911,2.623-1.599c4.146-3.651,3.121-10.079-1.943-12.202c-1.54-0.645-3.164-0.976-4.778-1.348
		c-1.669-0.384-3.376-0.626-4.957-1.336c-1.068-0.479-1.883-1.165-1.717-2.466c0.158-1.243,1.152-1.623,2.184-1.876
		c3.142-0.773,5.388,0.344,6.554,3.228C499.763,97.325,501.874,97.325,503.983,97.325z M391.981,143.31
		c-0.163-3.001-1.406-5.331-4.035-6.58c-4.699-2.233-9.566-2.184-14.285-0.094c-2.933,1.298-4.011,3.904-3.894,7.048
		c0.11,2.964,1.975,4.488,4.469,5.466c0.952,0.373,1.959,0.616,2.952,0.873c2.21,0.573,4.495,0.879,6.598,1.826
		c1.019,0.459,1.97,1.042,1.906,2.369c-0.065,1.369-0.906,2.163-2.11,2.648c-3.477,1.399-6.536-0.039-7.969-3.751
		c-2.104,0-4.209,0-6.439,0c0.15,3.302,1.566,5.709,4.397,7.281c1.684,0.935,3.523,1.346,5.41,1.526
		c3.356,0.322,6.646,0.07,9.676-1.576c3.057-1.661,4.227-4.357,4.036-7.728c-0.179-3.15-2.216-4.755-4.919-5.711
		c-1.289-0.456-2.639-0.737-3.964-1.087c-1.928-0.509-3.959-0.662-5.74-1.665c-0.792-0.445-1.352-1.057-1.284-2.053
		c0.062-0.911,0.605-1.432,1.392-1.787c3.071-1.387,6.23-0.098,7.344,2.994C387.637,143.31,389.745,143.31,391.981,143.31z
		 M382.182,187.133c-3.796,4.273-7.143,8.425-10.913,12.148c-2.416,2.386-2.593,4.946-2.164,7.975c7.723,0,15.417,0,23.162,0
		c0-1.807,0-3.539,0-5.398c-4.606,0-9.095,0-13.838,0c0.426-0.486,0.675-0.773,0.927-1.058c3.721-4.193,7.444-8.384,11.159-12.582
		c0.443-0.502,0.998-0.931,0.979-1.733c-0.037-1.48-0.011-2.962-0.011-4.506c-7.215,0-14.323,0-21.401,0c0,1.774,0,3.411,0,5.153
		C374.048,187.133,377.917,187.133,382.182,187.133z M421.445,98.839c-0.361-2.934-1.074-4.534-2.679-6.16
		c-4.432-4.493-13.402-4.653-18.067-0.323c-4.083,3.79-5.435,10.963-3.082,16.361c2.468,5.661,8.4,8.426,15.009,6.994
		c5.155-1.117,8.624-5.021,8.856-10.121c-1.082,0-2.158,0-3.235,0c-1.124,0-2.249,0-3.312,0c-0.266,0.807-0.417,1.42-0.663,1.993
		c-1.591,3.685-6.58,4.328-9.032,1.175c-2.377-3.057-2.171-9.437,0.252-12.436c2.083-2.577,7.713-2.499,8.82,1.502
		c0.103,0.37,0.302,0.714,0.433,1.015C417.01,98.839,419.178,98.839,421.445,98.839z M326.57,140.618c0,0.794,0,1.36,0,1.926
		c0,4.296-0.025,8.593,0.008,12.889c0.025,3.212,1.286,5.016,4.108,5.744c2.632,0.679,5.305,0.537,7.945,0.206
		c0-1.914,0-3.662,0-5.327c-0.733,0-1.358,0.001-1.984,0c-2.35-0.006-2.97-0.442-3.022-2.711c-0.098-4.17-0.028-8.343-0.028-12.697
		c1.727,0,3.355,0,5.05,0c0.109-1.688,0.202-3.192-0.06-4.787c-1.689,0-3.282,0-5.007,0c0-2.538,0-4.98,0-7.485
		c-2.388,0-4.643,0-7.029,0c0,2.523,0,4.96,0,7.45c-1.447,0.217-2.822-0.141-4.027,0.211c0,1.578,0,3.039,0,4.583
		C323.89,140.618,325.137,140.618,326.57,140.618z M351.307,89.933c0,1.69,0,3.146,0,4.736c1.393,0,2.687,0,4.105,0
		c0,0.695,0,1.254,0,1.813c0.001,4.465-0.003,8.931,0.003,13.396c0.004,2.169,0.768,3.995,2.826,4.892
		c2.979,1.298,6.103,0.963,9.156,0.673c0-1.949,0-3.679,0-5.34c-0.656,0-1.171-0.006-1.686,0.001
		c-2.719,0.036-3.311-0.542-3.329-3.302c-0.014-2.003-0.003-4.007-0.003-6.011c0-2.036,0-4.072,0-6.252c1.871,0,3.501,0,5.04,0
		c0-1.617,0-3.079,0-4.659c-1.701,0-3.283,0-5.06,0c0-2.6,0-5.077,0-7.55c-2.405,0-4.614,0-7.016,0c0,2.55,0,5.026,0,7.604
		C353.904,89.933,352.658,89.933,351.307,89.933z M295.455,181.937c0,8.476,0,16.859,0,25.29c2.346,0,4.596,0,6.963,0
		c0-0.734-0.004-1.356,0-1.978c0.028-3.719-0.088-7.446,0.127-11.155c0.242-4.187,2.81-6.371,6.974-6.368
		c0.718,0,1.449,0.286,2.194-0.015c0-2.132,0-4.229,0-6.343c-1.937-0.427-3.693-0.093-5.39,0.726
		c-1.706,0.823-2.975,2.139-4.25,3.609c0-1.229,0-2.458,0-3.766C299.786,181.937,297.637,181.937,295.455,181.937z"/>
	<path fill-rule="evenodd" clip-rule="evenodd" fill="#E1001A" d="M227.58,165.126c-7.116,0-14.101,0-21.084,0
		c-6.979,0-13.958,0-21.097,0c0,14.148,0,28.161,0,42.26c-14.181,0-28.203,0-42.361,0c0-13.976,0-27.99,0-42.157
		c-14.141,0-28.147,0-42.274,0c0-14.204,0-28.255,0-42.417c13.997,0,27.958,0,42.094,0c0-14.109,0-28.111,0-42.223
		c14.231,0,28.288,0,42.543,0c0,14.042,0,28.045,0,42.183c14.156,0,28.116,0,42.18,0C227.58,136.917,227.58,150.927,227.58,165.126z
		"/>
	<path fill-rule="evenodd" clip-rule="evenodd" fill="#1D1A1E" d="M260.729,80.283c5.654,0,11.217-0.283,16.74,0.069
		c7.593,0.484,12.317,4.956,13.803,12.492c0.892,4.52,0.641,8.99-1.061,13.317c-2.13,5.417-6.23,8.281-11.89,9.076
		c-0.62,0.087-1.256,0.068-1.885,0.068c-5.202,0.005-10.404,0.003-15.707,0.003C260.729,103.602,260.729,92.008,260.729,80.283z
		 M268.504,108.785c2.606,0,5.067,0.101,7.517-0.024c3.579-0.183,6.036-2.095,7.151-5.46c1.242-3.747,1.114-7.548-0.241-11.271
		c-0.882-2.422-2.624-3.958-5.085-4.704c-3.076-0.932-6.199-0.431-9.342-0.569C268.504,94.192,268.504,101.395,268.504,108.785z"/>
	<path fill-rule="evenodd" clip-rule="evenodd" fill="#1D1A1E" d="M284.577,144.725c3.585,1.403,4.554,4.312,4.875,7.595
		c0.293,2.995,0.062,6.063,1.491,9.025c-2.432,0-4.658-0.037-6.881,0.019c-0.868,0.021-1.035-0.475-1.192-1.126
		c-0.419-1.734-0.477-3.511-0.668-5.272c-0.124-1.136-0.207-2.289-0.47-3.395c-0.606-2.545-2.143-3.84-4.738-3.917
		c-2.743-0.081-5.49-0.018-8.416-0.018c0,4.56,0,9.048,0,13.622c-2.67,0-5.161,0-7.733,0c0-11.643,0-23.242,0-34.833
		c0.42-0.337,0.896-0.194,1.338-0.195c5.9-0.01,11.801-0.039,17.701,0.001c7.21,0.049,11.668,6.125,9.625,13.053
		C288.789,141.721,287.602,143.058,284.577,144.725z M268.568,142.007c0.299,0.042,0.413,0.071,0.526,0.072
		c2.292,0.004,4.583,0.003,6.875,0.006c1.146,0.001,2.292,0.023,3.397-0.365c1.938-0.682,2.89-2.278,2.837-4.78
		c-0.049-2.345-1.088-4.029-3.082-4.396c-3.496-0.644-7.028-0.242-10.554-0.247C268.568,135.641,268.568,138.775,268.568,142.007z"
		/>
	<path fill-rule="evenodd" clip-rule="evenodd" fill="#1D1A1E" d="M291.574,172.622c-4.58,4.303-9.16,8.605-13.817,12.98
		c5.264,7.446,10.218,14.453,15.369,21.74c-3.271,0-6.169-0.03-9.064,0.018c-0.911,0.015-1.133-0.669-1.493-1.203
		c-3.224-4.788-6.426-9.59-9.864-14.73c-1.37,1.455-2.622,2.816-3.913,4.141c-0.481,0.494-0.324,1.065-0.327,1.612
		c-0.016,3.317-0.008,6.634-0.008,10.056c-2.584,0-5.078,0-7.701,0c0-11.584,0-23.182,0-34.9c2.491,0,5.036,0,7.704,0
		c0,4.637,0,9.249,0,14.218c3.512-3.715,6.973-7.03,10.009-10.697c2.309-2.789,4.8-4.275,8.473-3.678
		c1.435,0.233,2.939,0.038,4.412,0.038C291.428,172.352,291.501,172.487,291.574,172.622z"/>
	<path fill-rule="evenodd" clip-rule="evenodd" fill="#1D1A1E" d="M449.266,115.228c-2.359,0-4.577,0-6.933,0
		c0-4.647,0.006-9.215-0.006-13.783c-0.002-0.799-0.021-1.605-0.129-2.395c-0.399-2.913-1.669-4.188-4.2-4.29
		c-2.762-0.111-4.523,1.285-5.163,4.013c-0.332,1.415-0.304,2.84-0.303,4.271c0.001,4.007,0,8.014,0,12.144
		c-2.303,0-4.559,0-6.934,0c0-11.565,0-23.163,0-34.881c2.185,0,4.442,0,6.891,0c0,4.185,0,8.428,0,13.09
		c1.794-2.162,3.579-3.655,6.017-3.972c6.503-0.843,10.399,1.771,10.695,7.729C449.497,103.137,449.266,109.148,449.266,115.228z"/>
	<path fill-rule="evenodd" clip-rule="evenodd" fill="#1D1A1E" d="M337.563,196.338c-3.111,0-6.088,0-9.063,0
		c-2.972,0-5.942,0-8.904,0c-0.188,2.759,0.998,4.926,3.105,5.814c2.668,1.124,6.1,0.518,7.677-1.66
		c0.75-1.036,1.517-1.153,2.571-1.119c1.364,0.044,2.731,0.011,4.262,0.011c-0.65,2.439-1.843,4.387-3.639,5.937
		c-5.527,4.769-15.785,3.029-19.37-3.313c-3.608-6.382-2.192-17.057,6.593-20.098c8.109-2.807,15.822,2.004,16.785,10.52
		C337.72,193.671,337.838,194.924,337.563,196.338z M330.613,191.75c-0.849-4.028-2.685-5.562-6.085-5.266
		c-2.948,0.256-4.866,2.272-4.962,5.266C323.206,191.75,326.844,191.75,330.613,191.75z"/>
	<path fill-rule="evenodd" clip-rule="evenodd" fill="#1D1A1E" d="M478.345,104.274c-6.081,0-12.079,0-18.066,0
		c-0.258,2.839,1.045,5.173,3.3,6.037c2.667,1.022,6.056,0.343,7.5-1.75c0.665-0.964,1.349-1.181,2.378-1.139
		c1.425,0.058,2.854,0.015,4.29,0.015c-0.546,4.034-3.939,7.313-8.536,8.309c-6.355,1.378-12.258-1.234-14.792-6.545
		c-3.692-7.737-0.105-16.993,7.505-19.369c7.898-2.466,15.274,2.255,16.293,10.466C478.369,101.529,478.667,102.774,478.345,104.274
		z M460.158,99.783c3.694,0,7.378,0,11.068,0c-0.486-3.542-2.263-5.25-5.385-5.231C462.601,94.571,460.649,96.34,460.158,99.783z"/>
	<path fill-rule="evenodd" clip-rule="evenodd" fill="#1D1A1E" d="M319.967,104.344c-6.129,0-12.125,0-18.118,0
		c-0.033,3.103,1.192,5.199,3.458,6.027c2.732,0.999,6.012,0.196,7.59-2.031c0.516-0.727,1.002-0.941,1.811-0.917
		c1.531,0.046,3.064,0.013,4.818,0.013c-0.965,3.421-2.792,5.968-5.837,7.384c-5.141,2.389-13.379,1.662-17.057-4.473
		c-3.587-5.984-2.203-14.755,3.185-18.616c4.134-2.962,8.723-3.415,13.321-1.285c4.704,2.179,6.398,6.421,6.894,11.283
		c0.058,0.567,0.03,1.144,0.027,1.716C320.057,103.667,320.016,103.888,319.967,104.344z M312.756,99.793
		c-0.127-3.238-2.033-5.17-5.113-5.24c-3.336-0.076-5.588,1.93-5.8,5.24C305.482,99.793,309.118,99.793,312.756,99.793z"/>
	<path fill-rule="evenodd" clip-rule="evenodd" fill="#1D1A1E" d="M366.226,150.309c-6.075,0-12.076,0-18.071,0
		c-0.134,3.022,1.033,5.046,3.369,5.95c2.661,1.03,5.934,0.348,7.495-1.762c0.627-0.847,1.22-1.145,2.224-1.086
		c1.475,0.087,2.957,0.022,4.457,0.022c-1.045,4.862-4.945,8.051-10.362,8.555c-7.585,0.706-13.279-3.746-14.276-11.16
		c-1.058-7.869,3.394-14.241,10.837-15.518c7.105-1.218,13.384,3.627,14.233,11.026
		C366.272,147.572,366.578,148.818,366.226,150.309z M359.204,145.867c-0.791-3.987-2.726-5.657-6.009-5.36
		c-3.046,0.275-4.981,2.303-5.043,5.36c3.136,0,6.27,0,9.404,0C358.066,145.867,358.576,145.867,359.204,145.867z"/>
	<path fill-rule="evenodd" clip-rule="evenodd" fill="#1D1A1E" d="M358.591,203.701c-2.743,3.646-6.083,4.65-10.056,4.141
		c-3.782-0.485-6.146-2.62-6.848-6.359c-0.575-3.072-0.274-6.172-0.319-9.26c-0.048-3.266-0.009-6.533-0.004-9.799
		c0-0.112,0.038-0.224,0.08-0.457c2.227,0,4.476,0,6.923,0c0,1.816-0.031,3.631,0.007,5.445c0.076,3.663-0.252,7.336,0.191,10.988
		c0.321,2.64,1.657,3.911,4.06,4.045c2.621,0.146,4.533-1.156,5.171-3.575c0.336-1.278,0.423-2.591,0.417-3.916
		c-0.017-4.295-0.006-8.591-0.006-12.997c2.322,0,4.575,0,6.92,0c0,8.422,0,16.816,0,25.298c-2.157,0-4.249,0-6.536,0
		C358.591,206.219,358.591,205.175,358.591,203.701z"/>
	<path fill-rule="evenodd" clip-rule="evenodd" fill="#1D1A1E" d="M320.384,148.606c0.002,8.133-5.216,13.431-13.225,13.427
		c-7.896-0.004-13.051-5.221-13.174-13.334c-0.122-8.031,5.208-13.492,13.168-13.493
		C315.204,135.206,320.382,140.449,320.384,148.606z M301.142,148.542c-0.124,1.525,0.102,3.04,0.669,4.496
		c0.913,2.344,2.755,3.635,5.248,3.706c2.501,0.07,4.517-1.225,5.473-3.609c1.105-2.753,1.091-5.577,0.254-8.383
		c-0.82-2.756-2.78-4.213-5.523-4.257c-2.739-0.044-4.662,1.375-5.608,4.136C301.223,145.888,301.047,147.179,301.142,148.542z"/>
	<path fill-rule="evenodd" clip-rule="evenodd" fill="#1D1A1E" d="M324.184,89.951c2.343,0,4.502,0,6.638,0
		c0.438,0.484,0.255,1.024,0.257,1.513c0.016,4.124-0.001,8.248,0.018,12.372c0.004,0.854,0.061,1.719,0.194,2.562
		c0.444,2.812,1.635,3.995,3.994,4.05c3.11,0.073,4.742-1.129,5.36-3.91c0.378-1.696,0.327-3.413,0.326-5.129
		c-0.003-3.772-0.001-7.544-0.001-11.412c2.326,0,4.531,0,6.853,0c0,8.395,0,16.773,0,25.232c-2.113,0-4.207,0-6.437,0
		c-0.043-0.976-0.086-1.957-0.144-3.251c-2.232,2.781-4.825,4.1-8.162,4.043c-5.561-0.093-8.584-2.548-8.836-8.072
		C323.975,102.011,324.184,96.052,324.184,89.951z"/>
	<path fill-rule="evenodd" clip-rule="evenodd" fill="#1D1A1E" d="M370.036,107.075c0.347-0.029,0.571-0.063,0.796-0.063
		c1.889-0.004,3.778-0.002,5.65-0.002c1.213,3.687,3.857,5.118,7.504,4.07c1.425-0.409,2.523-1.237,2.59-2.828
		c0.061-1.452-1.066-2.124-2.226-2.502c-1.788-0.584-3.628-1.019-5.458-1.47c-1.388-0.342-2.772-0.676-4.1-1.224
		c-2.407-0.993-4.086-2.611-4.181-5.338c-0.103-2.939,0.845-5.537,3.637-6.871c4.805-2.295,9.756-2.31,14.583-0.072
		c2.656,1.231,3.818,3.621,4.077,6.55c-2.175,0-4.288,0-6.404,0c-1.23-3.531-3.646-3.695-6.907-3.137
		c-1.044,0.178-1.807,0.773-1.915,1.906c-0.109,1.134,0.579,1.826,1.517,2.257c2.1,0.966,4.41,1.17,6.614,1.76
		c1.156,0.309,2.334,0.596,3.43,1.063c5.13,2.182,5.989,8.795,1.632,12.332c-1.314,1.066-2.828,1.739-4.471,2.084
		c-2.894,0.607-5.805,0.621-8.699,0.026C372.997,114.647,370.589,111.978,370.036,107.075z"/>
	<path fill-rule="evenodd" clip-rule="evenodd" fill="#1D1A1E" d="M503.983,97.325c-2.109,0-4.221,0-6.335,0
		c-1.166-2.884-3.412-4.001-6.554-3.228c-1.031,0.254-2.025,0.634-2.184,1.876c-0.166,1.301,0.648,1.987,1.717,2.466
		c1.581,0.71,3.288,0.952,4.957,1.336c1.614,0.372,3.238,0.703,4.778,1.348c5.064,2.123,6.09,8.551,1.943,12.202
		c-0.781,0.688-1.649,1.252-2.623,1.599c-4.367,1.552-8.773,1.614-13.092-0.069c-3.426-1.334-5.142-4.01-5.34-7.769
		c2.179,0,4.286,0,6.404,0c0.946,3.462,3.095,4.89,7.541,3.966c1.36-0.283,2.432-1.102,2.582-2.63
		c0.157-1.585-1.031-2.196-2.213-2.683c-2.179-0.898-4.525-1.199-6.79-1.797c-0.771-0.204-1.546-0.418-2.291-0.701
		c-2.566-0.974-4.506-2.479-4.613-5.529c-0.113-3.217,1.022-5.836,4.047-7.123c4.562-1.941,9.264-1.973,13.835,0.02
		C502.533,91.821,504.019,94.389,503.983,97.325z"/>
	<path fill-rule="evenodd" clip-rule="evenodd" fill="#1D1A1E" d="M391.981,143.31c-2.236,0-4.345,0-6.46,0
		c-1.113-3.092-4.272-4.381-7.344-2.994c-0.786,0.355-1.33,0.876-1.392,1.787c-0.067,0.996,0.492,1.607,1.284,2.053
		c1.781,1.002,3.813,1.155,5.74,1.665c1.325,0.35,2.675,0.631,3.964,1.087c2.703,0.956,4.74,2.561,4.919,5.711
		c0.19,3.371-0.979,6.067-4.036,7.728c-3.03,1.646-6.319,1.897-9.676,1.576c-1.887-0.181-3.727-0.592-5.41-1.526
		c-2.831-1.572-4.247-3.979-4.397-7.281c2.23,0,4.336,0,6.439,0c1.433,3.713,4.492,5.151,7.969,3.751
		c1.204-0.485,2.045-1.279,2.11-2.648c0.063-1.326-0.888-1.909-1.906-2.369c-2.103-0.947-4.388-1.253-6.598-1.826
		c-0.993-0.257-2-0.5-2.952-0.873c-2.494-0.978-4.358-2.502-4.469-5.466c-0.117-3.144,0.961-5.75,3.894-7.048
		c4.719-2.089,9.586-2.139,14.285,0.094C390.575,137.979,391.818,140.309,391.981,143.31z"/>
	<path fill-rule="evenodd" clip-rule="evenodd" fill="#1D1A1E" d="M382.182,187.133c-4.265,0-8.134,0-12.101,0
		c0-1.742,0-3.379,0-5.153c7.078,0,14.187,0,21.401,0c0,1.544-0.026,3.025,0.011,4.506c0.02,0.802-0.535,1.231-0.979,1.733
		c-3.715,4.198-7.438,8.389-11.159,12.582c-0.252,0.285-0.501,0.572-0.927,1.058c4.743,0,9.231,0,13.838,0c0,1.859,0,3.591,0,5.398
		c-7.745,0-15.439,0-23.162,0c-0.429-3.029-0.252-5.589,2.164-7.975C375.039,195.558,378.386,191.407,382.182,187.133z"/>
	<path fill-rule="evenodd" clip-rule="evenodd" fill="#1D1A1E" d="M421.445,98.839c-2.268,0-4.436,0-6.7,0
		c-0.131-0.301-0.33-0.645-0.433-1.015c-1.107-4.001-6.737-4.08-8.82-1.502c-2.423,2.999-2.629,9.379-0.252,12.436
		c2.452,3.153,7.441,2.51,9.032-1.175c0.246-0.572,0.397-1.186,0.663-1.993c1.063,0,2.188,0,3.312,0c1.077,0,2.153,0,3.235,0
		c-0.232,5.1-3.701,9.004-8.856,10.121c-6.608,1.432-12.541-1.333-15.009-6.994c-2.353-5.398-1.001-12.572,3.082-16.361
		c4.665-4.33,13.636-4.17,18.067,0.323C420.371,94.305,421.084,95.905,421.445,98.839z"/>
	<path fill-rule="evenodd" clip-rule="evenodd" fill="#1D1A1E" d="M326.57,140.618c-1.434,0-2.681,0-4.047,0
		c0-1.543,0-3.005,0-4.583c1.205-0.352,2.58,0.006,4.027-0.211c0-2.49,0-4.927,0-7.45c2.387,0,4.642,0,7.029,0
		c0,2.504,0,4.947,0,7.485c1.725,0,3.317,0,5.007,0c0.262,1.595,0.169,3.098,0.06,4.787c-1.694,0-3.323,0-5.05,0
		c0,4.354-0.069,8.527,0.028,12.697c0.053,2.269,0.673,2.705,3.022,2.711c0.626,0.002,1.251,0,1.984,0c0,1.665,0,3.413,0,5.327
		c-2.641,0.332-5.313,0.474-7.945-0.206c-2.822-0.729-4.083-2.532-4.108-5.744c-0.033-4.296-0.008-8.592-0.008-12.889
		C326.57,141.978,326.57,141.413,326.57,140.618z"/>
	<path fill-rule="evenodd" clip-rule="evenodd" fill="#1D1A1E" d="M351.307,89.933c1.352,0,2.598,0,4.038,0c0-2.578,0-5.054,0-7.604
		c2.401,0,4.61,0,7.016,0c0,2.473,0,4.951,0,7.55c1.776,0,3.358,0,5.06,0c0,1.581,0,3.042,0,4.659c-1.539,0-3.169,0-5.04,0
		c0,2.18,0,4.216,0,6.252c0,2.004-0.011,4.008,0.003,6.011c0.019,2.761,0.61,3.338,3.329,3.302c0.515-0.007,1.029-0.001,1.686-0.001
		c0,1.661,0,3.391,0,5.34c-3.054,0.291-6.177,0.625-9.156-0.673c-2.059-0.897-2.822-2.723-2.826-4.892
		c-0.006-4.465-0.002-8.931-0.003-13.396c0-0.559,0-1.119,0-1.813c-1.419,0-2.713,0-4.105,0
		C351.307,93.079,351.307,91.623,351.307,89.933z"/>
	<path fill-rule="evenodd" clip-rule="evenodd" fill="#1D1A1E" d="M295.455,181.937c2.182,0,4.332,0,6.619,0
		c0,1.308,0,2.537,0,3.766c1.275-1.47,2.544-2.786,4.25-3.609c1.696-0.818,3.453-1.153,5.39-0.726c0,2.114,0,4.211,0,6.343
		c-0.745,0.3-1.477,0.015-2.194,0.015c-4.164-0.003-6.731,2.181-6.974,6.368c-0.215,3.708-0.099,7.436-0.127,11.155
		c-0.004,0.622,0,1.243,0,1.978c-2.367,0-4.617,0-6.963,0C295.455,198.796,295.455,190.412,295.455,181.937z"/>
	<path fill-rule="evenodd" clip-rule="evenodd" fill="#FEFEFE" d="M268.504,108.785c0-7.39,0-14.593,0-22.029
		c3.143,0.138,6.267-0.362,9.342,0.569c2.461,0.746,4.203,2.282,5.085,4.704c1.355,3.723,1.482,7.524,0.241,11.271
		c-1.115,3.365-3.572,5.277-7.151,5.46C273.571,108.886,271.11,108.785,268.504,108.785z"/>
	<path fill-rule="evenodd" clip-rule="evenodd" fill="#FEFEFE" d="M268.568,142.007c0-3.231,0-6.366,0-9.709
		c3.525,0.005,7.058-0.397,10.554,0.247c1.994,0.367,3.033,2.051,3.082,4.396c0.053,2.502-0.898,4.099-2.837,4.78
		c-1.105,0.388-2.251,0.366-3.397,0.365c-2.292-0.003-4.583-0.002-6.875-0.006C268.98,142.078,268.867,142.049,268.568,142.007z"/>
	<path fill-rule="evenodd" clip-rule="evenodd" fill="#FEFEFE" d="M330.613,191.75c-3.77,0-7.407,0-11.047,0
		c0.096-2.993,2.014-5.01,4.962-5.266C327.929,186.188,329.765,187.722,330.613,191.75z"/>
	<path fill-rule="evenodd" clip-rule="evenodd" fill="#FEFEFE" d="M460.158,99.783c0.491-3.443,2.442-5.212,5.684-5.231
		c3.122-0.019,4.898,1.689,5.385,5.231C467.536,99.783,463.853,99.783,460.158,99.783z"/>
	<path fill-rule="evenodd" clip-rule="evenodd" fill="#FEFEFE" d="M312.756,99.793c-3.638,0-7.273,0-10.913,0
		c0.212-3.31,2.464-5.316,5.8-5.24C310.723,94.623,312.629,96.555,312.756,99.793z"/>
	<path fill-rule="evenodd" clip-rule="evenodd" fill="#FEFEFE" d="M359.204,145.867c-0.628,0-1.138,0-1.647,0
		c-3.135,0-6.269,0-9.404,0c0.062-3.057,1.997-5.085,5.043-5.36C356.479,140.21,358.413,141.88,359.204,145.867z"/>
	<path fill-rule="evenodd" clip-rule="evenodd" fill="#FEFEFE" d="M301.142,148.542c-0.095-1.363,0.081-2.654,0.512-3.911
		c0.946-2.761,2.869-4.18,5.608-4.136c2.743,0.044,4.703,1.501,5.523,4.257c0.837,2.807,0.852,5.63-0.254,8.383
		c-0.956,2.384-2.972,3.679-5.473,3.609c-2.493-0.07-4.335-1.361-5.248-3.706C301.243,151.582,301.018,150.067,301.142,148.542z"/>
</g>
</svg>
