<?xml version="1.0" encoding="UTF-8" standalone="no"?>
<!-- Created with Inkscape (http://www.inkscape.org/) -->

<svg
   version="1.1"
   id="svg1"
   width="400.54132"
   height="400.00134"
   viewBox="0 0 400.54132 400.00134"
   sodipodi:docname="cck_redesign_cz.svg"
   inkscape:version="1.3.2 (091e20e, 2023-11-25, custom)"
   xmlns:inkscape="http://www.inkscape.org/namespaces/inkscape"
   xmlns:sodipodi="http://sodipodi.sourceforge.net/DTD/sodipodi-0.dtd"
   xmlns="http://www.w3.org/2000/svg"
   xmlns:svg="http://www.w3.org/2000/svg">
  <defs
     id="defs1">
    <clipPath
       clipPathUnits="userSpaceOnUse"
       id="clipPath3">
      <path
         d="M 0.059998,300.001 H 300.406 V 0.06 H 0.059998 Z"
         transform="translate(-150.001,-300.00101)"
         id="path3" />
    </clipPath>
  </defs>
  <sodipodi:namedview
     id="namedview1"
     pagecolor="#ffffff"
     bordercolor="#666666"
     borderopacity="1.0"
     inkscape:showpageshadow="2"
     inkscape:pageopacity="0.0"
     inkscape:pagecheckerboard="0"
     inkscape:deskcolor="#d1d1d1"
     inkscape:zoom="2.0524931"
     inkscape:cx="200.48789"
     inkscape:cy="200.00067"
     inkscape:window-width="1920"
     inkscape:window-height="1017"
     inkscape:window-x="-8"
     inkscape:window-y="-8"
     inkscape:window-maximized="1"
     inkscape:current-layer="g1">
    <inkscape:page
       x="0"
       y="0"
       inkscape:label="Page 1"
       id="page1"
       width="400.54132"
       height="400.00134"
       margin="0"
       bleed="0" />
  </sodipodi:namedview>
  <g
     id="g1"
     inkscape:groupmode="layer"
     inkscape:label="Page 1">
    <g
       id="group-MC1">
      <path
         id="path2"
         d="m 0,0 c -82.712,0 -150.001,-67.289 -150.001,-150.001 0,-82.711 67.289,-150 150.001,-150 82.711,0 149.999,67.289 149.999,150 C 149.999,-67.289 82.711,0 0,0 Z m 145.329,-150.001 c 0,-80.133 -65.194,-145.327 -145.329,-145.327 -80.135,0 -145.327,65.194 -145.327,145.327 0,80.135 65.192,145.327 145.327,145.327 80.135,0 145.329,-65.192 145.329,-145.327"
         style="fill:#231f20;fill-opacity:1;fill-rule:nonzero;stroke:none"
         transform="matrix(1.3333333,0,0,-1.3333333,200.00133,0)"
         clip-path="url(#clipPath3)" />
      <path
         id="path4"
         d="m 0,0 c -53.952,0 -97.849,-43.895 -97.849,-97.847 0,-53.952 43.897,-97.843 97.849,-97.843 53.95,0 97.843,43.891 97.843,97.843 C 97.843,-43.895 53.95,0 0,0 Z m 93.169,-97.847 c 0,-51.373 -41.793,-93.171 -93.169,-93.171 -51.375,0 -93.175,41.798 -93.175,93.171 0,51.375 41.8,93.175 93.175,93.175 51.376,0 93.169,-41.8 93.169,-93.175"
         style="fill:#231f20;fill-opacity:1;fill-rule:nonzero;stroke:none"
         transform="matrix(1.3333333,0,0,-1.3333333,200.00533,69.54)" />
      <path
         id="path5"
         d="m 126.791,73.66 h 43.982 v 152.692 h -43.982 z"
         style="fill:#ee2523;fill-opacity:1;fill-rule:nonzero;stroke:none"
         transform="matrix(1.3333333,0,0,-1.3333333,0,400.00133)" />
      <path
         id="path6"
         d="m 72.886,128.078 h 152.69 v 43.985 H 72.886 Z"
         style="fill:#ee2523;fill-opacity:1;fill-rule:nonzero;stroke:none"
         transform="matrix(1.3333333,0,0,-1.3333333,0,400.00133)" />
      <text
         id="text6"
         xml:space="preserve"
         transform="matrix(-0.57151073,-1.2046382,1.2046382,-0.57151073,84.136667,276.38133)"><tspan
           style="font-variant:normal;font-weight:700;font-size:41.3762px;font-family:Arial;writing-mode:lr-tb;fill:#231f20;fill-opacity:1;fill-rule:nonzero;stroke:none"
           x="0"
           y="0"
           id="tspan6">Č</tspan></text>
      <text
         id="text7"
         xml:space="preserve"
         transform="matrix(-0.23787272,-1.311943,1.311943,-0.23787272,67.842,242.18)"><tspan
           style="font-variant:normal;font-weight:700;font-size:41.3762px;font-family:Arial;writing-mode:lr-tb;fill:#231f20;fill-opacity:1;fill-rule:nonzero;stroke:none"
           x="0"
           y="0"
           id="tspan7">E</tspan></text>
      <text
         id="text8"
         xml:space="preserve"
         transform="matrix(0.10057958,-1.3295343,1.3295343,0.10057958,61.314267,207.89467)"><tspan
           style="font-variant:normal;font-weight:700;font-size:41.3762px;font-family:Arial;writing-mode:lr-tb;fill:#231f20;fill-opacity:1;fill-rule:nonzero;stroke:none"
           x="0"
           y="0"
           id="tspan8">S</tspan></text>
      <text
         id="text9"
         xml:space="preserve"
         transform="matrix(0.43838057,-1.2592062,1.2592062,0.43838057,63.472667,172.636)"><tspan
           style="font-variant:normal;font-weight:700;font-size:41.3762px;font-family:Arial;writing-mode:lr-tb;fill:#231f20;fill-opacity:1;fill-rule:nonzero;stroke:none"
           x="0"
           y="0"
           id="tspan9">K</tspan></text>
      <text
         id="text10"
         xml:space="preserve"
         transform="matrix(0.74992553,-1.102447,1.102447,0.74992553,75.817867,136.968)"><tspan
           style="font-variant:normal;font-weight:700;font-size:41.3762px;font-family:Arial;writing-mode:lr-tb;fill:#231f20;fill-opacity:1;fill-rule:nonzero;stroke:none"
           x="0"
           y="0"
           id="tspan10">Ý</tspan></text>
      <text
         id="text11"
         xml:space="preserve"
         transform="matrix(1.1001046,-0.75335763,0.75335763,1.1001046,106.07893,96.5632)"><tspan
           style="font-variant:normal;font-weight:700;font-size:41.3762px;font-family:Arial;writing-mode:lr-tb;fill:#231f20;fill-opacity:1;fill-rule:nonzero;stroke:none"
           x="0"
           y="0"
           id="tspan11">Č</tspan></text>
      <text
         id="text12"
         xml:space="preserve"
         transform="matrix(1.2577149,-0.44264091,0.44264091,1.2577149,137.30267,75.1008)"><tspan
           style="font-variant:normal;font-weight:700;font-size:41.3762px;font-family:Arial;writing-mode:lr-tb;fill:#231f20;fill-opacity:1;fill-rule:nonzero;stroke:none"
           x="0"
           y="0"
           id="tspan12">E</tspan></text>
      <text
         id="text13"
         xml:space="preserve"
         transform="matrix(1.3299627,-0.0947469,0.0947469,1.3299627,170.572,62.982267)"><tspan
           style="font-variant:normal;font-weight:700;font-size:41.3762px;font-family:Arial;writing-mode:lr-tb;fill:#231f20;fill-opacity:1;fill-rule:nonzero;stroke:none"
           x="0"
           y="0"
           id="tspan13">R</tspan></text>
      <text
         id="text14"
         xml:space="preserve"
         transform="matrix(1.3101868,0.24736289,-0.24736289,1.3101868,208.20533,60.2272)"><tspan
           style="font-variant:normal;font-weight:700;font-size:41.3762px;font-family:Arial;writing-mode:lr-tb;fill:#231f20;fill-opacity:1;fill-rule:nonzero;stroke:none"
           x="0"
           y="0"
           id="tspan14">V</tspan></text>
      <text
         id="text15"
         xml:space="preserve"
         transform="matrix(1.202728,0.57551982,-0.57551982,1.202728,243.444,66.746267)"><tspan
           style="font-variant:normal;font-weight:700;font-size:41.3762px;font-family:Arial;writing-mode:lr-tb;fill:#231f20;fill-opacity:1;fill-rule:nonzero;stroke:none"
           x="0"
           y="0"
           id="tspan15">E</tspan></text>
      <text
         id="text16"
         xml:space="preserve"
         transform="matrix(1.0092458,0.87132124,-0.87132124,1.0092458,275.54533,81.6868)"><tspan
           style="font-variant:normal;font-weight:700;font-size:41.3762px;font-family:Arial;writing-mode:lr-tb;fill:#231f20;fill-opacity:1;fill-rule:nonzero;stroke:none"
           x="0"
           y="0"
           id="tspan16">N</tspan></text>
      <text
         id="text17"
         xml:space="preserve"
         transform="matrix(0.76485758,1.0921404,-1.0921404,0.76485758,303.084,105.10733)"><tspan
           style="font-variant:normal;font-weight:700;font-size:41.3762px;font-family:Arial;writing-mode:lr-tb;fill:#231f20;fill-opacity:1;fill-rule:nonzero;stroke:none"
           x="0"
           y="0"
           id="tspan17">Ý</tspan></text>
      <text
         id="text18"
         xml:space="preserve"
         transform="matrix(0.31038447,1.2967032,-1.2967032,0.31038447,330.15067,147.724)"><tspan
           style="font-variant:normal;font-weight:700;font-size:41.3762px;font-family:Arial;writing-mode:lr-tb;fill:#231f20;fill-opacity:1;fill-rule:nonzero;stroke:none"
           x="0"
           y="0"
           id="tspan18">K</tspan></text>
      <text
         id="text19"
         xml:space="preserve"
         transform="matrix(-0.05573579,1.3321679,-1.3321679,-0.05573579,339.26933,185.12667)"><tspan
           style="font-variant:normal;font-weight:700;font-size:41.3762px;font-family:Arial;writing-mode:lr-tb;fill:#231f20;fill-opacity:1;fill-rule:nonzero;stroke:none"
           x="0"
           y="0"
           id="tspan19">Ř</tspan></text>
      <text
         id="text20"
         xml:space="preserve"
         transform="matrix(-0.32801153,1.2923568,-1.2923568,-0.32801153,336.18267,226.028)"><tspan
           style="font-variant:normal;font-weight:700;font-size:41.3762px;font-family:Arial;writing-mode:lr-tb;fill:#231f20;fill-opacity:1;fill-rule:nonzero;stroke:none"
           x="0"
           y="0"
           id="tspan20">Í</tspan></text>
      <text
         id="text21"
         xml:space="preserve"
         transform="matrix(-0.56587435,1.2072962,-1.2072962,-0.56587435,332.70933,242.636)"><tspan
           style="font-variant:normal;font-weight:700;font-size:41.3762px;font-family:Arial;writing-mode:lr-tb;fill:#231f20;fill-opacity:1;fill-rule:nonzero;stroke:none"
           x="0"
           y="0"
           id="tspan21">Ž</tspan></text>
    </g>
  </g>
</svg>
