<?xml version="1.0" encoding="UTF-8" standalone="no"?>
<!-- Created with Inkscape (http://www.inkscape.org/) -->

<svg
   version="1.1"
   id="svg1"
   width="441.49734"
   height="441.52399"
   viewBox="0 0 441.49734 441.52399"
   sodipodi:docname="cck_redesign_en.svg"
   inkscape:version="1.3.2 (091e20e, 2023-11-25, custom)"
   xmlns:inkscape="http://www.inkscape.org/namespaces/inkscape"
   xmlns:sodipodi="http://sodipodi.sourceforge.net/DTD/sodipodi-0.dtd"
   xmlns="http://www.w3.org/2000/svg"
   xmlns:svg="http://www.w3.org/2000/svg">
  <defs
     id="defs1">
    <clipPath
       clipPathUnits="userSpaceOnUse"
       id="clipPath3">
      <path
         d="M 0.059998,331.143 H 331.123 V 0.06 H 0.059998 Z"
         transform="translate(-153.58101,-300.00101)"
         id="path3" />
    </clipPath>
  </defs>
  <sodipodi:namedview
     id="namedview1"
     pagecolor="#ffffff"
     bordercolor="#666666"
     borderopacity="1.0"
     inkscape:showpageshadow="2"
     inkscape:pageopacity="0.0"
     inkscape:pagecheckerboard="0"
     inkscape:deskcolor="#d1d1d1"
     inkscape:zoom="1.8594686"
     inkscape:cx="220.76199"
     inkscape:cy="220.76199"
     inkscape:window-width="1920"
     inkscape:window-height="1017"
     inkscape:window-x="-8"
     inkscape:window-y="-8"
     inkscape:window-maximized="1"
     inkscape:current-layer="g1">
    <inkscape:page
       x="0"
       y="0"
       inkscape:label="Page 1"
       id="page1"
       width="441.49734"
       height="441.52399"
       margin="0"
       bleed="0" />
  </sodipodi:namedview>
  <g
     id="g1"
     inkscape:groupmode="layer"
     inkscape:label="Page 1">
    <g
       id="group-MC1">
      <path
         id="path2"
         d="m 0,0 c -82.712,0 -150.001,-67.289 -150.001,-150.001 0,-82.712 67.289,-150 150.001,-150 82.711,0 149.999,67.288 149.999,150 C 149.999,-67.289 82.711,0 0,0 Z m 145.328,-150.001 c 0,-80.132 -65.194,-145.326 -145.328,-145.326 -80.135,0 -145.328,65.194 -145.328,145.326 0,80.135 65.193,145.327 145.328,145.327 80.134,0 145.328,-65.192 145.328,-145.327"
         style="fill:#231f20;fill-opacity:1;fill-rule:nonzero;stroke:none"
         transform="matrix(1.3333333,0,0,-1.3333333,204.77467,41.522667)"
         clip-path="url(#clipPath3)" />
      <path
         id="path4"
         d="m 0,0 c -53.952,0 -97.849,-43.895 -97.849,-97.848 0,-53.951 43.897,-97.841 97.849,-97.841 53.951,0 97.843,43.89 97.843,97.841 C 97.843,-43.895 53.951,0 0,0 Z m 93.169,-97.848 c 0,-51.373 -41.793,-93.169 -93.169,-93.169 -51.375,0 -93.175,41.796 -93.175,93.169 0,51.376 41.8,93.176 93.175,93.176 51.376,0 93.169,-41.8 93.169,-93.176"
         style="fill:#231f20;fill-opacity:1;fill-rule:nonzero;stroke:none"
         transform="matrix(1.3333333,0,0,-1.3333333,204.77733,111.06267)" />
      <path
         id="path5"
         d="m 130.37,73.661 h 43.982 V 226.352 H 130.37 Z"
         style="fill:#ee2523;fill-opacity:1;fill-rule:nonzero;stroke:none"
         transform="matrix(1.3333333,0,0,-1.3333333,0,441.524)" />
      <path
         id="path6"
         d="m 76.465,128.079 h 152.69 v 43.983 H 76.465 Z"
         style="fill:#ee2523;fill-opacity:1;fill-rule:nonzero;stroke:none"
         transform="matrix(1.3333333,0,0,-1.3333333,0,441.524)" />
      <text
         id="text6"
         xml:space="preserve"
         transform="matrix(0.01356258,-1.3332644,1.3332644,0.01356258,64.462267,259.088)"><tspan
           style="font-variant:normal;font-weight:700;font-size:42.1159px;font-family:Arial;writing-mode:lr-tb;fill:#231f20;fill-opacity:1;fill-rule:nonzero;stroke:none"
           x="0"
           y="0"
           id="tspan6">C</tspan></text>
      <text
         id="text7"
         xml:space="preserve"
         transform="matrix(0.32214265,-1.2938323,1.2938291,0.32214265,64.670933,223.08933)"><tspan
           style="font-variant:normal;font-weight:700;font-size:42.1159px;font-family:Arial;writing-mode:lr-tb;fill:#231f20;fill-opacity:1;fill-rule:nonzero;stroke:none"
           x="0"
           y="0"
           id="tspan7">Z</tspan></text>
      <text
         id="text8"
         xml:space="preserve"
         transform="matrix(0.59793174,-1.1917447,1.1917447,0.59793174,71.304,193.75467)"><tspan
           style="font-variant:normal;font-weight:700;font-size:42.1158px;font-family:Arial;writing-mode:lr-tb;fill:#231f20;fill-opacity:1;fill-rule:nonzero;stroke:none"
           x="0"
           y="0"
           id="tspan8">E</tspan></text>
      <text
         id="text9"
         xml:space="preserve"
         transform="matrix(0.86837293,-1.0117837,1.0117837,0.86837293,85.337733,164.08133)"><tspan
           style="font-variant:normal;font-weight:700;font-size:42.1159px;font-family:Arial;writing-mode:lr-tb;fill:#231f20;fill-opacity:1;fill-rule:nonzero;stroke:none"
           x="0"
           y="0"
           id="tspan9">C</tspan></text>
      <text
         id="text10"
         xml:space="preserve"
         transform="matrix(1.0938781,-0.76237026,0.76237026,1.0938781,108.14973,136.57467)"><tspan
           style="font-variant:normal;font-weight:700;font-size:42.1158px;font-family:Arial;writing-mode:lr-tb;fill:#231f20;fill-opacity:1;fill-rule:nonzero;stroke:none"
           x="0"
           y="0"
           id="tspan10">H</tspan></text>
      <text
         id="text11"
         xml:space="preserve"
         transform="matrix(1.2882228,-0.34388911,0.34388911,1.2882228,149.56133,109.60213)"><tspan
           style="font-variant:normal;font-weight:700;font-size:42.1159px;font-family:Arial;writing-mode:lr-tb;fill:#231f20;fill-opacity:1;fill-rule:nonzero;stroke:none"
           x="0"
           y="0"
           id="tspan11">R</tspan></text>
      <text
         id="text12"
         xml:space="preserve"
         transform="matrix(1.3331328,-0.02312669,0.02312669,1.3331328,184.12133,99.9728)"><tspan
           style="font-variant:normal;font-weight:700;font-size:42.1158px;font-family:Arial;writing-mode:lr-tb;fill:#231f20;fill-opacity:1;fill-rule:nonzero;stroke:none"
           x="0"
           y="0"
           id="tspan12">E</tspan></text>
      <text
         id="text13"
         xml:space="preserve"
         transform="matrix(1.2992157,0.29969383,-0.29969383,1.2992157,216.912,98.650933)"><tspan
           style="font-variant:normal;font-weight:700;font-size:42.1159px;font-family:Arial;writing-mode:lr-tb;fill:#231f20;fill-opacity:1;fill-rule:nonzero;stroke:none"
           x="0"
           y="0"
           id="tspan13">D</tspan></text>
      <text
         id="text14"
         xml:space="preserve"
         transform="matrix(1.1195907,0.7240818,-0.7240818,1.1195907,264.716,111.2348)"><tspan
           style="font-variant:normal;font-weight:700;font-size:42.1159px;font-family:Arial;writing-mode:lr-tb;fill:#231f20;fill-opacity:1;fill-rule:nonzero;stroke:none"
           x="0"
           y="0"
           id="tspan14">C</tspan></text>
      <text
         id="text15"
         xml:space="preserve"
         transform="matrix(0.90160451,0.98228666,-0.98228666,0.90160451,295.04933,130.12507)"><tspan
           style="font-variant:normal;font-weight:700;font-size:42.1159px;font-family:Arial;writing-mode:lr-tb;fill:#231f20;fill-opacity:1;fill-rule:nonzero;stroke:none"
           x="0"
           y="0"
           id="tspan15">R</tspan></text>
      <text
         id="text16"
         xml:space="preserve"
         transform="matrix(0.61714825,1.1819077,-1.1819077,0.61714825,319.75467,155.78933)"><tspan
           style="font-variant:normal;font-weight:700;font-size:42.1159px;font-family:Arial;writing-mode:lr-tb;fill:#231f20;fill-opacity:1;fill-rule:nonzero;stroke:none"
           x="0"
           y="0"
           id="tspan16">O</tspan></text>
      <text
         id="text17"
         xml:space="preserve"
         transform="matrix(0.30384455,1.2982512,-1.2982512,0.30384455,337.92933,190.11333)"><tspan
           style="font-variant:normal;font-weight:700;font-size:42.1158px;font-family:Arial;writing-mode:lr-tb;fill:#231f20;fill-opacity:1;fill-rule:nonzero;stroke:none"
           x="0"
           y="0"
           id="tspan17">S</tspan></text>
      <text
         id="text18"
         xml:space="preserve"
         transform="matrix(-0.00558459,1.3333216,-1.3333216,-0.00558459,345.96133,222.08667)"><tspan
           style="font-variant:normal;font-weight:700;font-size:42.1159px;font-family:Arial;writing-mode:lr-tb;fill:#231f20;fill-opacity:1;fill-rule:nonzero;stroke:none"
           x="0"
           y="0"
           id="tspan18">S</tspan></text>
    </g>
  </g>
</svg>
