<?xml version="1.0" encoding="UTF-8" standalone="no"?>
<svg
   xmlns:dc="http://purl.org/dc/elements/1.1/"
   xmlns:cc="http://creativecommons.org/ns#"
   xmlns:rdf="http://www.w3.org/1999/02/22-rdf-syntax-ns#"
   xmlns:svg="http://www.w3.org/2000/svg"
   xmlns="http://www.w3.org/2000/svg"
   viewBox="0 0 376.64001 376.64001"
   height="376.64001"
   width="376.64001"
   xml:space="preserve"
   id="svg2"
   version="1.1"><metadata
     id="metadata8"><rdf:RDF><cc:Work
         rdf:about=""><dc:format>image/svg+xml</dc:format><dc:type
           rdf:resource="http://purl.org/dc/dcmitype/StillImage" /><dc:title></dc:title></cc:Work></rdf:RDF></metadata><defs
     id="defs6" /><g
     transform="matrix(1.3333333,0,0,-1.3333333,0,376.64)"
     id="g10"><g
       transform="scale(0.1)"
       id="g12"><path
         id="path14"
         style="fill:none;stroke:#ee2629;stroke-width:10;stroke-linecap:butt;stroke-linejoin:miter;stroke-miterlimit:4;stroke-dasharray:none;stroke-opacity:1"
         d="m 2819.84,1412.39 c 0,777.31 -630.11,1407.43 -1407.44,1407.43 C 635.129,2819.82 5,2189.7 5,1412.39 5,635.102 635.129,5 1412.4,5 2189.73,5 2819.84,635.102 2819.84,1412.39 Z" /><path
         id="path16"
         style="fill:none;stroke:#ee2629;stroke-width:10;stroke-linecap:butt;stroke-linejoin:miter;stroke-miterlimit:4;stroke-dasharray:none;stroke-opacity:1"
         d="m 2378.68,1412.39 c 0,533.68 -432.58,966.29 -966.28,966.29 -533.646,0 -966.255,-432.61 -966.255,-966.29 0,-533.652 432.609,-966.242 966.255,-966.242 533.7,0 966.28,432.59 966.28,966.242 z" /><path
         id="path18"
         style="fill:#ee2629;fill-opacity:1;fill-rule:nonzero;stroke:none"
         d="m 1614.92,680.949 c -403.97,0 -731.463,327.471 -731.463,731.441 0,403.99 327.493,731.48 731.463,731.48 260.6,0 489.18,-136.36 618.74,-341.52 -145.96,306.87 -458.8,519.01 -821.26,519.01 -501.99,0 -908.943,-406.95 -908.943,-908.97 0,-501.999 406.953,-908.929 908.943,-908.929 362.47,0 675.31,212.141 821.27,519.009 C 2104.11,817.32 1875.52,680.949 1614.92,680.949" /><path
         id="path20"
         style="fill:none;stroke:#489edd;stroke-width:7.75446987;stroke-linecap:butt;stroke-linejoin:miter;stroke-miterlimit:4;stroke-dasharray:none;stroke-opacity:1"
         d="m 2482.33,1412.39 c 0,590.93 -478.98,1069.95 -1069.93,1069.95 -590.896,0 -1069.916,-479.02 -1069.916,-1069.95 0,-590.902 479.02,-1069.89 1069.916,-1069.89 590.95,0 1069.93,478.988 1069.93,1069.89 z" /><path
         id="path22"
         style="fill:#ec2629;fill-opacity:1;fill-rule:nonzero;stroke:none"
         d="m 330.234,1230.13 c 24.446,-20.04 40.727,-48.89 48.516,-83.51 4.043,-17.98 6.07,-44.1 5.266,-60.72 -0.106,-4.21 -0.246,-6.7 0.757,-9.62 -7.578,-2.06 -28.175,-8.43 -47.878,-15.67 -2.707,1.14 -4.165,6.07 -2.692,8.84 21.516,10.09 44.11,30.91 33.254,79.17 -11.457,50.94 -53.48,86.94 -122.391,71.44 -69.902,-15.72 -98.558,-68.68 -86.277,-123.27 9.656,-42.94 41.891,-55.62 63.25,-58.86 2.191,-1.96 2.649,-7.1 0.617,-8.96 -17.832,-1.56 -41.754,2.15 -49.199,5.72 -1.562,3.85 -3.793,7.54 -5.945,10.9 -4.313,6.73 -14.699,29.57 -19.489,50.88 -6.738,29.95 -7.187,59.93 3.657,87.9 12.32,30.75 37.968,58.2 80.91,67.86 36.949,8.31 72.316,-1.22 97.644,-22.1" /><path
         id="path24"
         style="fill:#ec2629;fill-opacity:1;fill-rule:nonzero;stroke:none"
         d="m 279.414,996.281 c -4.156,-1.64 -6.695,-2.64 -7.344,-3.703 -0.422,-0.957 0.485,-4.609 5.121,-16.379 3.278,-8.308 7.657,-16.719 15.375,-21.41 7.305,-4.328 17.485,-6.437 33.176,-0.258 18.238,7.188 31.094,25.328 20.992,50.949 -5.64,14.31 -6.836,14.64 -13.3,12.09 z m 25.547,31.939 c 21.934,8.65 25.586,10.89 23.008,20.81 l -1.989,7.75 c 0.512,2.07 4.211,3.53 5.86,2.04 6.25,-12.47 13.223,-28.12 22.144,-50.75 5.641,-14.308 9.856,-28.39 8.274,-41.281 -1.406,-13.359 -8.61,-25.527 -24.77,-31.898 -21.929,-8.641 -40.758,3.929 -49.929,13.66 -1.836,0.609 -3.692,-1.449 -5.082,-3.34 -22.5,-30.199 -36.145,-49.731 -43.118,-70.602 -1.914,-5.3 -2.175,-12.078 -0.183,-18.488 -0.004,-1.332 -1.766,-2.301 -3.141,-1.512 -1.508,1.813 -3.43,5.332 -5.156,9.711 -7.738,19.621 -6.606,33.668 10.25,59.25 6.172,9.371 18.367,25.121 25.937,36.371 3.715,5.469 4.567,10.071 0.926,19.297 -4.097,10.391 -4.508,10.762 -9.355,8.852 l -29.086,-11.461 c -24.242,-9.559 -26.832,-11.117 -23.399,-25.238 l 1.219,-5.11 c -0.609,-1.84 -4.715,-2.929 -5.949,-1.82 -3.641,10.57 -6.5,18.508 -10.145,27.738 -3.816,9.699 -7.328,17.922 -12.062,28.591 0.144,1.66 3.426,3.48 5.59,2.74 l 2.965,-5.499 c 6.894,-12.75 10.078,-12.031 34.316,-2.48 l 82.875,32.669" /><path
         id="path26"
         style="fill:#ec2629;fill-opacity:1;fill-rule:nonzero;stroke:none"
         d="m 373.516,765.309 c 35.793,19.882 65.605,57.171 42.589,98.589 -12.531,22.563 -44.203,43.293 -91.707,16.911 -32.101,-17.848 -65.078,-56.598 -41.335,-99.329 14.46,-26.039 47.718,-39.91 90.453,-16.171 z m -68.11,133.332 c 43.383,24.097 94.649,10 119.473,-34.692 27.836,-50.109 5.59,-95.39 -32.59,-116.597 -43.816,-24.352 -94.262,-8.653 -117.519,33.207 -26.75,48.16 -8.407,96.39 30.636,118.082" /><path
         id="path28"
         style="fill:#ec2629;fill-opacity:1;fill-rule:nonzero;stroke:none"
         d="m 449.477,745.691 c 21.48,15.18 24.632,18.028 17.199,30.688 l -3.176,5.351 c -0.047,1.79 3.887,3.969 5.352,3.18 6.757,-10.41 11.425,-17.449 17.441,-25.961 5.727,-8.097 10.801,-14.847 18.363,-24.699 0.254,-1.648 -3.109,-4.629 -4.777,-3.98 l -3.984,4.769 c -9.465,11.242 -13.196,9.211 -34.672,-5.961 L 389.082,678.09 c -21.48,-15.18 -24.031,-17.602 -17.004,-30.559 l 2.977,-5.48 c 0.047,-1.801 -3.887,-3.973 -5.352,-3.192 -6.758,10.422 -11.422,17.45 -17.152,25.563 -6.02,8.519 -11.086,15.258 -18.656,25.109 -0.247,1.637 2.707,4.34 4.781,3.981 l 4.191,-4.641 c 9.867,-10.941 12.988,-9.34 34.469,5.828 l 72.141,50.992" /><path
         id="path30"
         style="fill:#ec2629;fill-opacity:1;fill-rule:nonzero;stroke:none"
         d="m 408.648,584.5 c -13.335,16.02 -16.789,30.25 -17.707,35.621 2.289,5.777 13.77,19.527 22.418,27.379 2.129,0.148 4.887,-2.391 4.379,-4.109 -7.343,-10.95 -19.523,-34.321 -1.113,-56.45 13.336,-16.019 30.332,-15.113 41.773,-5.589 8.395,6.988 16.309,16.488 13.688,37.859 l -3.258,27.969 c -1.64,14.781 0.024,34.89 15.664,47.898 18.113,15.082 44.551,13.192 65.188,-11.609 4.922,-5.91 9.679,-13.559 12.285,-19.789 1.488,-2.961 3.137,-6.11 4.406,-7.629 -3.148,-5.531 -12.394,-16.133 -20.41,-22.801 -1.777,-0.191 -4.891,2.379 -4.539,4.289 7.09,10.102 15.203,25.57 -0.035,43.871 -15.559,18.692 -31.289,12.379 -40.063,5.078 -11.058,-9.207 -11.261,-24.859 -9.969,-35.726 l 3.165,-23.203 c 2.566,-18.207 1.343,-39.231 -16.778,-54.321 -20.98,-17.457 -48.457,-13.539 -69.094,11.262" /><path
         id="path32"
         style="fill:#ec2629;fill-opacity:1;fill-rule:nonzero;stroke:none"
         d="m 490.391,494.398 c -14.762,14.723 -19.528,28.571 -20.938,33.832 1.742,5.969 11.895,20.731 19.777,29.329 2.102,0.371 5.09,-1.911 4.747,-3.668 -6.301,-11.59 -16.258,-35.993 4.128,-56.321 14.766,-14.699 31.606,-12.218 42.114,-1.679 7.711,7.738 14.707,17.918 10.113,38.98 l -5.84,27.527 c -3.008,14.563 -3.219,34.731 11.145,49.153 16.636,16.699 43.133,17.269 65.984,-5.5 5.449,-5.43 10.899,-12.621 14.067,-18.571 1.761,-2.808 3.699,-5.789 5.105,-7.191 -2.625,-5.789 -10.852,-17.211 -18.211,-24.59 -1.754,-0.359 -5.086,1.91 -4.914,3.852 6.121,10.711 12.762,26.859 -4.113,43.679 -17.227,17.168 -32.305,9.418 -40.364,1.34 -10.156,-10.199 -8.898,-25.808 -6.597,-36.519 l 5.301,-22.801 c 4.242,-17.879 4.98,-38.941 -11.661,-55.641 -19.265,-19.328 -46.992,-17.968 -69.843,4.789" /><path
         id="path34"
         style="fill:#ec2629;fill-opacity:1;fill-rule:nonzero;stroke:none"
         d="m 629.602,479.602 c -5.129,-3.211 -5.09,-3.551 0.32,-7.911 l 23.773,-19.152 c 5.606,-4.508 6.614,-4.051 9.078,2.57 l 14.926,39.922 c 2.196,5.867 4.656,12.5 5.364,15.75 l -0.387,0.309 c -1.36,-0.5 -7.028,-3.578 -13.824,-7.668 z m 24.414,-48.024 c 2.07,5.344 1.765,6.543 -4.036,11.211 l -29.183,23.5 c -4.828,3.891 -6.457,4.25 -11.078,1.281 l -23.11,-14.851 c -9.898,-6.36 -15.453,-10.489 -17.168,-12.617 -1.863,-2.313 -1.836,-4.25 2.493,-8.383 l 5.914,-5.707 c 0.574,-2.063 -1.914,-5.153 -4.278,-4.524 -4.715,4.434 -10.703,9.262 -19.632,16.774 -6.379,5.129 -13.649,10.347 -19.02,14.347 -0.539,1.711 1.566,5.121 3.5,5.153 l 6.848,-4.563 c 4.949,-3.34 10.91,-4.64 19.222,0.141 10.641,6.09 26.164,14.289 51.711,29.398 l 61.735,36.313 c 8.304,4.769 12.425,7.519 14.336,11.07 5.726,-2.383 11.812,-1.543 15.96,-0.742 1.165,-0.938 2.204,-2.41 1.5,-4.078 -4.335,-10.531 -8.402,-21.91 -12.347,-32.75 l -36.09,-99.012 c -7.777,-21.129 -7.598,-26.051 -0.066,-33.711 l 4.75,-4.789 c 0.578,-2.059 -2.301,-4.828 -3.887,-4.828 -7.613,6.769 -14.223,12.41 -22.918,19.41 -9.277,7.481 -16.938,13 -22.695,17.32 -0.926,2.02 1.371,5.258 3.503,5.149 l 6.071,-3.942 c 4.371,-2.878 8.012,-3.898 9.562,-1.968 1.715,2.129 3.551,6.379 5.739,12.269 l 12.664,33.129" /><path
         id="path36"
         style="fill:#ec2629;fill-opacity:1;fill-rule:nonzero;stroke:none"
         d="m 822.348,302.488 c -3.852,-6.379 -19.129,-31.636 -21.828,-37.547 -1.2,-1.019 -3.114,-1.312 -5.446,0.09 -0.367,5.16 -2.031,16.309 -7.801,48.5 l -15.375,85.848 c -1.753,10.051 -5.664,36.191 -7.296,43.562 l -0.426,0.258 c -2.395,-2.039 -5.559,-6.801 -9.41,-13.168 L 726.781,383.75 c -6.035,-9.98 -22.301,-37.852 -22.754,-46.27 0.078,-3.242 3.34,-6.96 8.395,-10.589 l 6.195,-4.621 c 0.25,-2.461 -1.504,-4.879 -3.633,-5.051 -9.3,6.203 -16.601,10.91 -24.457,15.66 -8.922,5.402 -14.785,8.652 -22.468,12.711 -0.848,1.961 0.734,5.07 2.781,5.57 l 6.117,-2.82 c 5.145,-2.531 9.438,-3.102 11.91,-1.41 7.598,5.851 23.047,31.879 29.207,42.082 l 37.102,61.367 c 3.594,5.941 6.078,10.531 4.57,18.109 -1.172,4.774 -5.371,9.34 -10.082,13.063 l -3.355,2.609 c -0.504,2.039 1.421,5.219 3.636,5.039 8.532,-6.019 19.785,-12.828 23.61,-15.14 3.398,-2.047 7.136,-4.028 10.152,-5.27 -2.301,-13.391 6.023,-56.699 8.07,-68.668 l 6.606,-35.59 c 4.426,-25.301 7.984,-43.402 11.805,-59.621 l 0.421,-0.269 c 1.493,0.558 3.547,3.961 6.243,8.41 L 844.32,358.5 c 6.035,9.98 22.512,37.719 22.328,46.531 -0.117,2.668 -2.746,6 -10.597,12.199 l -3.352,2.61 c -0.719,2.172 1.547,5.441 3.633,5.051 9.512,-6.332 16.602,-10.911 24.676,-15.782 9.129,-5.531 14.777,-8.66 22.254,-12.589 1.058,-2.09 -0.742,-5.071 -2.782,-5.571 l -3.234,1.371 c -7.437,3.051 -12.711,3.918 -14.586,2.731 -8.23,-5.449 -23.722,-32.051 -29.633,-41.813 l -30.679,-50.75" /><path
         id="path38"
         style="fill:#ec2629;fill-opacity:1;fill-rule:nonzero;stroke:none"
         d="m 924.727,250.352 c -10.27,-23.954 -11.18,-27.34 1.457,-34.383 l 7.004,-3.821 c 0.976,-1.488 -1.239,-5.41 -2.907,-5.5 -12.801,6.032 -20.457,9.59 -29.578,13.5 -9.121,3.911 -17.203,7.102 -31.992,12.911 -1.074,1.269 0.133,5.339 2.445,5.711 l 8.508,-2.852 c 13.484,-4.43 16.094,-1.5 26.359,22.441 l 43.727,101.942 c 3.031,7.07 3.133,7.301 -3.711,10.23 l -12.543,5.379 c -9.805,4.211 -22.543,9.129 -30.492,6.328 -7.629,-2.66 -12.059,-6.707 -17.012,-11.328 -2.414,-0.582 -5.113,1.93 -5.246,4.141 8.055,8.699 17.731,21.828 23.242,30.269 0.879,0.149 3.942,-0.89 4.332,-1.871 -1.761,-7.879 5.864,-10.879 16.352,-15.379 l 92.358,-39.621 c 12.32,-5.277 14.56,-5.699 20.53,-1.238 1.34,-0.039 3.74,-1.34 3.81,-2.449 -6.52,-8.274 -16.04,-26.051 -18.29,-33.192 -1.69,-1.441 -5.57,0.231 -6.13,2.09 1.77,5.988 3.79,15.121 1.44,19.09 -3.58,6.121 -11.46,11.672 -24.003,17.051 l -16.196,6.937 c -6.839,2.934 -6.707,2.614 -9.933,-4.918 L 924.727,250.352" /><path
         id="path40"
         style="fill:#ec2629;fill-opacity:1;fill-rule:nonzero;stroke:none"
         d="m 1037.93,234.02 c 2.02,-2.532 1.99,-5.661 0.95,-8.719 -0.81,-2.352 -2.24,-4.223 -3.89,-5.231 l -56.47,13.59 c -1.856,3 -1.747,6.371 -0.942,8.719 0.801,2.34 2.231,4.223 3.887,5.223 l 56.465,-13.582" /><path
         id="path42"
         style="fill:#ec2629;fill-opacity:1;fill-rule:nonzero;stroke:none"
         d="m 1124.69,275.109 c -1.31,-6 -2.1,-9.668 -1.39,-11.218 0.78,-1.219 5.64,-2.973 22.64,-6.661 12.01,-2.609 24.97,-4.031 36.23,1.2 10.53,5.05 20.72,15.058 25.65,37.73 5.72,26.352 -5.18,54.899 -42.19,62.942 -20.68,4.488 -21.97,3.367 -23.99,-5.973 z m -16.98,53.621 c 6.87,31.68 7.1,37.559 -6.21,42.192 l -10.38,3.656 c -1.96,2.172 -0.81,7.512 2.15,8.262 19.03,-2.391 42.26,-6.391 74.93,-13.481 20.68,-4.488 39.98,-10.429 53.51,-22.097 14.2,-11.813 22.61,-29.34 17.54,-52.684 -6.89,-31.68 -35.66,-43.59 -53.77,-46.637 -2.11,-1.64 -1.16,-5.332 -0.08,-8.359 17.33,-48.801 29.21,-79.32 47.75,-103.254 4.59,-6.226 12.13,-11.707 20.99,-14.328 1.51,-1.031 1.27,-3.77 -0.68,-4.738 -3.23,-0.352 -8.7,0.136 -15.03,1.519 -28.35,6.16 -43.54,18.18 -59.9,57 -5.99,14.219 -14.66,40.188 -21.74,57.449 -3.41,8.418 -8.02,12.911 -21.36,15.809 -15,3.25 -15.74,3.07 -17.26,-3.937 l -9.12,-42.012 c -7.61,-35.012 -7.81,-39.149 10.95,-46.02 l 6.78,-2.519 c 1.64,-2.102 -0.26,-7.633 -2.47,-8.199 -14.86,3.929 -26.13,6.726 -39.47,9.617 -14,3.051 -26.08,5.32 -41.89,8.062 -1.78,1.43 -1.36,6.578 1.15,8.481 l 8.55,-0.821 c 19.84,-1.863 21.45,2.329 29.05,37.34 l 26.01,119.699" /><path
         id="path44"
         style="fill:#ec2629;fill-opacity:1;fill-rule:nonzero;stroke:none"
         d="m 1408.66,188.719 c 2.18,40.89 -13.56,85.953 -60.89,88.472 -25.77,1.379 -60.15,-14.429 -63.04,-68.703 -1.97,-36.668 13.35,-85.187 62.15,-87.797 29.74,-1.582 59.17,19.219 61.78,68.028 z m -149.14,13.16 c 2.64,49.562 41.83,85.5 92.87,82.769 57.25,-3.039 83.78,-45.957 81.46,-89.57 -2.67,-50.047 -42.77,-84.449 -90.59,-81.898 -55.01,2.941 -86.11,44.101 -83.74,88.699" /><path
         id="path46"
         style="fill:#ec2629;fill-opacity:1;fill-rule:nonzero;stroke:none"
         d="m 1581.47,227.25 c -1.41,15.32 -4.54,43.691 -9.42,50.711 -2,2.82 -6.61,4.141 -12.83,4.059 l -6.23,-0.079 c -1.64,1.59 -1.45,4.84 -0.05,5.981 9.43,0.367 18.6,0.957 28.23,1.859 10.38,0.957 17.03,1.821 25.88,3.141 2.09,-1.063 2.14,-4.293 1.05,-5.883 l -5.89,-1.051 c -6.14,-1.058 -10.87,-3.75 -11.81,-7.066 -2.95,-8.492 -0.08,-36.891 1.21,-50.731 l 2.58,-27.921 c 1.99,-21.489 0.63,-44.54 -11.84,-60.661 -9.55,-12.578 -27.23,-20.711 -45.51,-22.398 -17.05,-1.57 -34.4,0.059 -47.47,9.32 -14.11,9.66 -21.95,27.129 -24.66,56.528 l -5.4,58.312 c -2.38,25.699 -3.27,29.859 -17.71,29.77 l -6.22,-0.082 c -1.57,0.851 -1.46,5.101 -0.06,5.98 12.4,0.641 20.83,1.172 30.72,2.09 10.12,0.93 18.26,1.93 30.32,3.551 1.55,-0.602 2.43,-4.758 1.04,-5.891 l -5.89,-1.039 c -14.22,-2.559 -14.32,-6.809 -11.94,-32.5 l 4.93,-53.371 c 3.68,-39.789 18.46,-64.84 56.27,-61.34 35.82,3.32 46.81,32.742 43.33,70.301 l -2.63,28.41" /><path
         id="path48"
         style="fill:#ec2629;fill-opacity:1;fill-rule:nonzero;stroke:none"
         d="m 1776.44,191.559 c 2.31,-9.649 5.14,-15.09 9.89,-15.739 0.9,-0.55 1.25,-2 0.46,-2.949 -2.9,-0.703 -7.01,-2.711 -11.31,-5.012 -11.97,-6.449 -28.65,-13.507 -41.68,-16.629 -28.72,-6.902 -56.92,-5.25 -80.02,9.122 -17.95,11 -30.24,28.207 -35.34,49.449 -4.92,20.508 -3.15,42.879 8,62.39 12.1,20.77 33.28,37.84 69.71,46.59 13.75,3.297 27.18,3.707 31.52,3.731 4.81,0.129 12.7,0.238 15.47,1.41 1.92,-7.961 6.37,-20.152 12.02,-34.113 -0.26,-2.11 -4.54,-3.387 -6.34,-2.289 -13.01,24.441 -33.08,28.308 -57.69,22.398 -46.8,-11.227 -59.33,-49.457 -50.65,-85.648 11.11,-46.329 43.75,-77.032 92.24,-65.399 14.97,3.598 23.14,8.867 24.81,13.617 0.8,1.973 0.97,6.614 -0.89,14.321 l -2.31,9.66 c -4.87,20.261 -5.93,21.543 -21.3,19.64 l -10.9,-1.339 c -2.17,0.5 -2.97,4.898 -1.46,6.039 7.12,1.191 20.45,4.132 34.69,7.55 9.41,2.25 17.55,4.461 25.4,6.852 1.92,-0.563 3.03,-4.121 1.69,-5.973 l -3.75,-1.41 c -9.84,-3.637 -8.47,-10.449 -5.51,-22.758 l 3.25,-13.511" /><path
         id="path50"
         style="fill:#ec2629;fill-opacity:1;fill-rule:nonzero;stroke:none"
         d="m 1790.53,303.48 c -9.18,24.122 -10.97,27.43 -25.27,23.848 l -3.89,-0.949 c -1.74,0.391 -2.86,4.75 -1.74,5.973 10.15,3.328 18.12,6.097 27.64,9.718 l 43.59,16.59 c 14.84,5.641 28.52,10.852 31.04,12.61 2.89,-3.411 10.65,-19.579 15.45,-29.442 -0.4,-1.75 -3.93,-3.617 -5.62,-2.656 -7.62,9.566 -12.79,16.887 -26.01,15.316 -5.31,-0.699 -12.82,-3.277 -23.02,-7.168 l -16.7,-6.351 c -6.96,-2.641 -6.78,-3.11 -3.43,-11.918 l 17.64,-46.391 c 2.48,-6.492 3.18,-6.23 10.13,-3.582 l 13.46,5.113 c 9.74,3.719 16.75,6.911 19.18,8.899 2.43,1.98 3.52,4 2.48,10.238 l -1.77,10.211 c 0.64,1.832 4.58,3.332 6.12,2.063 2.12,-5.571 4.63,-14.961 7.98,-23.782 3.19,-8.351 7.46,-16.8 9.41,-21.91 -0.32,-1.969 -4.26,-3.48 -5.95,-2.519 l -5.53,8.238 c -2.51,3.832 -5.46,6.691 -10.53,6.082 -3.61,-0.313 -9.26,-2.191 -18.31,-5.633 l -13.45,-5.117 c -6.96,-2.641 -7.56,-3.141 -5.27,-9.18 l 12.45,-32.691 c 4.67,-12.301 8.36,-19.91 13.58,-22.442 3.84,-1.726 9.68,-2.429 30.09,5.34 17.86,6.793 24.23,10.274 28.36,14.762 3.29,3.918 6.46,14.422 7.91,28.77 1.18,1.781 4.69,2.32 6.41,0.582 1.47,-8.731 2.46,-28.801 1.83,-36.204 -21.05,-7.476 -41.78,-15.109 -62.42,-22.957 L 1845.5,189 c -9.97,-3.789 -17.78,-7.02 -31.28,-12.699 -1.65,0.168 -3.53,3.711 -2.67,5.629 l 7.4,3.601 c 12.77,6.188 12.6,10.11 3.34,34.469 l -31.76,83.48" /><path
         id="path52"
         style="fill:#ec2629;fill-opacity:1;fill-rule:nonzero;stroke:none"
         d="m 2002.29,380.852 c 1.78,-8.122 2.25,-8.243 10.4,-3.25 l 35.78,21.937 c 8.43,5.172 8.3,6.691 0.87,12.941 l -44.77,37.79 c -6.61,5.558 -14.04,11.808 -17.93,14.23 l -0.58,-0.359 c 0.02,-2 1.39,-10.762 3.54,-21.45 z m 73.47,9.41 c -5.96,5.148 -7.65,5.308 -16.38,-0.043 l -43.93,-26.918 c -7.27,-4.461 -8.48,-6.403 -6.77,-13.762 l 8.54,-36.789 c 3.66,-15.762 6.43,-24.859 8.4,-28.07 2.13,-3.481 4.66,-4.34 12,-0.641 l 10.13,5.012 c 2.93,-0.211 5.79,-4.86 3.88,-7.629 -7.92,-4.051 -16.94,-9.582 -30.79,-17.66 -9.6,-5.891 -19.72,-12.903 -27.39,-18 -2.46,0.097 -5.89,4.386 -5.04,6.918 l 9.06,6.761 c 6.63,4.848 11.07,11.981 8.72,24.95 -2.97,16.589 -6.4,40.488 -14.16,80.558 l -18.47,96.731 c -2.34,12.961 -3.99,19.57 -7.71,23.691 5.73,6.309 7.47,14.578 8.35,20.32 1.75,1.071 4.14,1.739 5.97,0.059 11.63,-10.488 24.48,-21.02 36.7,-31.141 l 111.52,-92.507 c 23.77,-19.864 30.22,-21.903 43.62,-15.692 l 8.39,3.949 c 2.93,-0.218 5.21,-5.23 4.46,-7.281 -12.28,-6.726 -22.64,-12.668 -35.73,-20.699 -13.96,-8.559 -24.67,-15.918 -32.92,-21.379 -3.05,-0.262 -6.18,4.219 -5.04,6.922 l 7.9,6.039 c 5.75,4.328 8.75,8.57 6.97,11.48 -1.96,3.2 -6.63,7.539 -13.23,13.098 l -37.05,31.723" /><path
         id="path54"
         style="fill:#ec2629;fill-opacity:1;fill-rule:nonzero;stroke:none"
         d="m 2123.41,481.711 c -16.48,20.187 -19.37,22.949 -32.27,14.039 l -5.11,-3.551 c -1.79,-0.16 -4.23,3.61 -3.55,5.129 11.08,8.402 17.77,13.531 25.47,19.813 7.5,6.121 13.88,11.64 23.17,19.879 1.63,0.359 4.84,-2.79 4.31,-4.489 l -4.3,-4.16 c -10.55,-10.211 -8.43,-13.609 8.04,-33.793 l 54.59,-66.906 c 9.88,-12.121 14.54,-16.641 20.98,-17.473 3.84,-0.39 9.38,0.281 24.57,12.68 16.33,13.332 19.75,17.391 21.41,21.641 1.97,5.441 1.32,16.441 -2.84,29.378 0.37,1.911 4.65,4.114 5.75,2.774 1.72,-2.113 12.35,-26.121 13.89,-33.512 -10.13,-7.609 -28.55,-22.32 -48.35,-38.48 l -17.69,-14.43 c -8.07,-6.59 -14.07,-11.809 -24.52,-20.98 -1.63,-0.36 -4.52,2.41 -4.3,4.511 l 5.29,5.278 c 10.21,10.242 8.4,13.25 -8.07,33.441 l -56.47,69.211" /><path
         id="path56"
         style="fill:#ec2629;fill-opacity:1;fill-rule:nonzero;stroke:none"
         d="m 2377.18,580.891 c 7.16,-6.871 12.49,-9.922 16.83,-7.911 1.06,0.032 2.13,-1 1.98,-2.23 -2.06,-2.148 -4.44,-6.059 -6.81,-10.32 -6.6,-11.891 -16.83,-26.84 -26.11,-36.508 -20.45,-21.301 -45.09,-35.141 -72.29,-35.524 -21.04,-0.429 -40.68,7.43 -56.43,22.551 -15.22,14.61 -25.81,34.403 -26.96,56.84 -1.01,24.02 7.58,49.82 33.54,76.852 9.79,10.199 20.87,17.8 24.51,20.148 3.97,2.723 10.56,7.063 12.27,9.551 5.9,-5.66 16.24,-13.531 28.53,-22.231 0.91,-1.91 -2,-5.308 -4.11,-5.347 -24.14,13.547 -43.12,5.968 -60.65,-12.293 -33.34,-34.719 -23.25,-73.649 3.61,-99.438 34.36,-32.992 78.41,-41.222 112.95,-5.242 10.65,11.09 14.68,19.949 13.53,24.84 -0.39,2.101 -2.75,6.09 -8.48,11.59 l -7.16,6.871 c -15.04,14.441 -16.62,14.93 -28.54,5.039 l -8.45,-7.02 c -2.09,-0.738 -5.14,2.532 -4.48,4.301 5.34,4.852 14.97,14.52 25.12,25.078 6.7,6.981 12.36,13.242 17.68,19.492 1.92,0.559 4.77,-1.839 4.64,-4.121 l -2.39,-3.211 c -6.33,-8.378 -1.48,-13.367 7.65,-22.128 l 10.02,-9.629" /><path
         id="path58"
         style="fill:#ec2629;fill-opacity:1;fill-rule:nonzero;stroke:none"
         d="m 2314.79,739.309 c -1.58,-1.297 -3.72,-1.258 -5.06,0.679 l -0.65,48.68 c -0.16,3.512 0.36,5.91 1.4,7.301 1.03,1.39 4.66,2.101 8.28,1.57 3.93,-0.121 6.61,-1.5 7.36,-2.98 0.8,-1.829 0.42,-4.02 -0.46,-7.7 z m 14.19,-56.25 c -20.73,15.371 -24.01,17.203 -34.13,6.48 l -2.76,-2.898 c -1.69,-0.61 -4.98,2.461 -4.69,4.097 3.46,4.231 6.47,7.871 9.27,11.66 3.01,3.633 5.82,7.422 8.78,11.403 l 27.79,37.48 c 9.47,12.75 18.19,24.508 19.37,27.34 4.27,-1.32 19.51,-10.769 28.86,-16.48 0.61,-1.692 -1.35,-5.172 -3.29,-5.282 -11.59,3.969 -19.89,7.34 -30.17,-1.089 -4.1,-3.45 -9.04,-9.68 -15.54,-18.45 l -10.64,-14.351 c -4.44,-5.969 -4.04,-6.278 3.53,-11.891 l 39.85,-29.566 c 5.59,-4.141 6.03,-3.551 10.46,2.429 l 8.59,11.559 c 6.2,8.371 10.39,14.852 11.37,17.828 0.97,2.981 0.82,5.274 -3.43,9.961 l -6.99,7.652 c -0.45,1.887 2.06,5.278 4.05,5.039 4.77,-3.55 11.96,-10.121 19.53,-15.73 7.18,-5.32 15.34,-10.148 19.73,-13.398 0.8,-1.832 -1.71,-5.223 -3.65,-5.332 l -9.11,3.968 c -4.17,1.871 -8.2,2.692 -12.15,-0.547 -2.87,-2.203 -6.62,-6.839 -12.38,-14.613 l -8.57,-11.547 c -4.45,-5.992 -4.69,-6.73 0.49,-10.582 l 28.1,-20.84 c 10.57,-7.839 17.78,-12.269 23.54,-11.589 4.17,0.609 9.46,3.171 22.48,20.71 11.37,15.34 14.87,21.711 15.92,27.719 0.68,5.063 -2.31,15.621 -8.82,28.492 0.03,2.137 2.7,4.481 5.08,3.95 5.95,-6.571 17.59,-22.93 21.05,-29.52 -6.85,-8.82 -13.7,-17.641 -20.21,-26.41 -6.85,-8.82 -13.36,-17.59 -20.01,-26.551 l -13.31,-17.941 c -6.35,-8.571 -11.18,-15.489 -19.51,-27.539 -1.48,-0.75 -4.97,1.211 -5.27,3.289 l 4.27,7.019 c 7.44,12.102 5.19,15.313 -15.74,30.84 l -71.74,53.231" /><path
         id="path60"
         style="fill:#ec2629;fill-opacity:1;fill-rule:nonzero;stroke:none"
         d="m 2445.63,788.77 c 3.87,-2.231 6.24,-3.59 7.47,-3.442 1.02,0.281 3.3,3.262 9.6,14.242 4.44,7.739 8.28,16.41 7.12,25.379 -1.19,8.403 -5.87,17.672 -20.51,26.071 -17.01,9.761 -39.2,8.468 -52.9,-15.418 -7.66,-13.34 -7.17,-14.481 -1.15,-17.942 z m -40.9,0.011 c -20.45,11.719 -24.49,13.18 -30.62,4.981 l -4.81,-6.403 c -1.95,-0.89 -5.39,1.082 -5.27,3.301 5.84,12.68 13.72,27.891 25.82,48.981 7.66,13.347 16.03,25.429 27.08,32.238 11.31,7.25 25.33,9.223 40.38,0.582 20.45,-11.731 22.39,-34.301 20.51,-47.531 0.68,-1.821 3.45,-1.981 5.78,-1.891 37.65,1.289 61.41,2.82 82.08,10.41 5.33,1.813 10.78,5.832 14.54,11.403 1.06,0.828 2.91,0.058 3.15,-1.512 -0.47,-2.32 -2.01,-6 -4.37,-10.09 -10.49,-18.301 -22.17,-26.18 -52.67,-29 -11.18,-1.02 -31.1,-1.32 -44.61,-2.441 -6.58,-0.52 -10.71,-2.719 -15.66,-11.329 -5.55,-9.679 -5.58,-10.242 -1.06,-12.832 l 27.12,-15.558 c 22.6,-12.969 25.43,-14.02 34.31,-2.52 l 3.24,4.149 c 1.81,0.672 5.23,-1.86 5.13,-3.528 -5.98,-9.429 -10.4,-16.632 -15.34,-25.23 -5.18,-9.051 -9.42,-16.922 -14.79,-27.281 -1.39,-0.918 -4.87,0.5 -5.63,2.66 l 2.44,5.75 c 5.66,13.351 3.11,15.379 -19.49,28.351 l -77.26,44.34" /><path
         id="path62"
         style="fill:#ec2629;fill-opacity:1;fill-rule:nonzero;stroke:none"
         d="m 2474.88,919.039 c -23.94,10.879 -27.99,12.18 -35.17,-0.641 l -3.02,-5.449 c -1.52,-0.929 -5.38,1.36 -5.45,3.031 5.59,11.09 9.31,18.661 13.62,28.161 4.1,9.031 7.38,16.808 12.05,28.308 1.3,1.051 5.57,-0.34 5.86,-2.109 l -2.12,-5.852 c -4.93,-13.847 -1.29,-16.047 22.65,-26.937 L 2563.72,901 c 23.95,-10.891 27.32,-11.871 34.95,0.738 l 3.25,5.34 c 1.52,0.942 5.38,-1.348 5.44,-3.019 -5.58,-11.09 -9.3,-18.661 -13.4,-27.707 -4.32,-9.481 -7.58,-17.262 -12.27,-28.774 -1.29,-1.039 -5.12,0.152 -5.85,2.121 l 1.88,5.961 c 4.49,14.039 1.53,15.942 -22.42,26.82 l -80.42,36.559" /><path
         id="path64"
         style="fill:#ec2629;fill-opacity:1;fill-rule:nonzero;stroke:none"
         d="m 2503.69,985.918 c -24.35,8.562 -28.03,9.32 -34.52,-3.906 l -1.78,-3.594 c -1.43,-1.066 -5.48,0.871 -5.69,2.523 4,9.918 7.03,17.789 10.41,27.389 l 15.45,44.01 c 5.26,14.99 10.12,28.8 10.4,31.85 4.47,0.01 21.83,-4.5 32.45,-7.18 1.07,-1.43 0.23,-5.34 -1.58,-6.02 -12.24,0.35 -21.17,1.12 -28.5,-9.98 -2.89,-4.51 -5.76,-11.92 -9.37,-22.22 l -5.92,-16.86 c -2.47,-7.02 -2,-7.19 6.89,-10.31 l 46.83,-16.44 c 6.55,-2.301 6.81,-1.602 9.27,5.42 l 4.76,13.59 c 3.46,9.82 5.54,17.25 5.59,20.39 0.05,3.13 -0.78,5.27 -6.22,8.49 l -8.94,5.25 c -0.99,1.66 0.4,5.64 2.37,6 5.62,-1.97 14.42,-6.11 23.32,-9.24 8.42,-2.96 17.65,-5.14 22.8,-6.96 1.31,-1.51 -0.09,-5.49 -1.91,-6.16 l -9.86,1.09 c -4.55,0.55 -8.63,0.14 -11.44,-4.13 -2.09,-2.95 -4.3,-8.48 -7.51,-17.62 l -4.77,-13.581 c -2.46,-7.02 -2.48,-7.801 3.61,-9.938 l 33.01,-11.59 c 12.41,-4.363 20.62,-6.461 25.91,-4.101 3.8,1.808 8.11,5.828 15.33,26.43 6.34,18.03 7.79,25.15 7.01,31.2 -0.86,5.04 -6.83,14.24 -16.86,24.6 -0.6,2.05 1.26,5.08 3.69,5.28 7.62,-4.52 23.59,-16.7 28.85,-21.97 -7.87,-20.91 -15.42,-41.661 -22.75,-62.501 l -7.39,-21.059 c -3.53,-10.07 -6.1,-18.121 -10.48,-32.09 -1.2,-1.16 -5.11,-0.312 -6.02,1.579 l 2.01,7.98 c 3.51,13.75 0.42,16.16 -24.17,24.789 l -84.28,29.59" /><path
         id="path66"
         style="fill:#ec2629;fill-opacity:1;fill-rule:nonzero;stroke:none"
         d="m 2654.72,1220.91 c 7.28,-1.52 36.19,-7.56 42.65,-8.16 1.36,-0.78 2.27,-2.5 1.71,-5.17 -4.73,-2.05 -14.7,-7.32 -43.17,-23.42 l -75.9,-42.95 c -8.91,-4.98 -32.28,-17.34 -38.68,-21.32 l -0.11,-0.49 c 2.72,-1.58 8.25,-2.99 15.54,-4.51 l 52.95,-11.07 c 11.41,-2.39 43.09,-8.5 51.19,-6.14 3.03,1.14 5.45,5.45 7.21,11.43 l 2.3,7.37 c 2.25,1.05 5.11,0.21 5.97,-1.75 -2.77,-10.83 -4.79,-19.29 -6.67,-28.27 -2.13,-10.2 -3.25,-16.81 -4.55,-25.41 -1.57,-1.44 -5.02,-0.98 -6.18,0.78 l 0.65,6.71 c 0.68,5.69 -0.21,9.93 -2.63,11.7 -8.03,5.23 -37.71,11.18 -49.37,13.62 l -70.2,14.67 c -6.8,1.43 -11.95,2.25 -18.6,-1.69 -4.11,-2.68 -7.03,-8.16 -8.98,-13.84 l -1.34,-4.02 c -1.77,-1.15 -5.41,-0.39 -5.98,1.75 2.86,10.05 5.56,22.93 6.46,27.29 0.81,3.89 1.44,8.07 1.62,11.33 13.39,2.27 51.5,24.47 62.11,30.36 l 31.4,18.03 c 22.4,12.56 38.29,21.91 52.34,30.89 l 0.1,0.49 c -1.01,1.22 -4.9,2.04 -10,3.1 l -51.97,10.86 c -11.42,2.39 -43.05,8.75 -51.3,5.66 -2.49,-1 -4.75,-4.58 -8.01,-14.05 l -1.34,-4.02 c -1.81,-1.4 -5.65,-0.34 -5.97,1.75 2.82,11.07 4.78,19.28 6.72,28.51 2.18,10.44 3.26,16.81 4.5,25.17 1.62,1.69 5.02,0.98 6.17,-0.78 l -0.22,-3.51 c -0.41,-8.03 0.51,-13.29 2.25,-14.67 7.88,-5.95 38.11,-11.76 49.28,-14.1 l 58.05,-12.13" /></g></g></svg>