<?xml version="1.0" encoding="UTF-8" standalone="no"?>
<svg
   xmlns:dc="http://purl.org/dc/elements/1.1/"
   xmlns:cc="http://creativecommons.org/ns#"
   xmlns:rdf="http://www.w3.org/1999/02/22-rdf-syntax-ns#"
   xmlns:svg="http://www.w3.org/2000/svg"
   xmlns="http://www.w3.org/2000/svg"
   viewBox="0 0 665.49335 380.22668"
   height="380.22668"
   width="665.49335"
   xml:space="preserve"
   id="svg2"
   version="1.1"><metadata
     id="metadata8"><rdf:RDF><cc:Work
         rdf:about=""><dc:format>image/svg+xml</dc:format><dc:type
           rdf:resource="http://purl.org/dc/dcmitype/StillImage" /><dc:title></dc:title></cc:Work></rdf:RDF></metadata><defs
     id="defs6" /><g
     transform="matrix(1.3333333,0,0,-1.3333333,0,380.22667)"
     id="g10"><g
       transform="scale(0.1)"
       id="g12"><path
         id="path14"
         style="fill:#ffffff;fill-opacity:1;fill-rule:nonzero;stroke:none"
         d="m 1100.6,2286.1 c 19.92,-4.4 78.89,-20.37 185.69,-65.15 0,0 780.63,-284.76 779.6,-929.77 -0.96,-645.301 -723.56,-953.289 -905.08,-1026.301 -185.396,-74.34 31.32,41.012 95.23,81.25 60.21,38.48 532.07,331.461 532.07,945.051 0,613.61 -558.06,929.73 -577.6,938.74 -32.92,15.35 -128.59,60.25 -109.91,56.18" /><path
         id="path16"
         style="fill:#231f20;fill-opacity:1;fill-rule:nonzero;stroke:none"
         d="m 2487.64,2026.28 h 128.15 v -234.63 h 1.71 c 12.71,20.39 26.45,39.27 40.01,58.32 l 129.27,176.31 h 159.72 l -189.7,-226.08 198.9,-304.61 h -150.44 l -141.11,229.18 -48.36,-56.09 v -173.09 h -128.15 v 530.69" /><path
         id="path18"
         style="fill:#231f20;fill-opacity:1;fill-rule:nonzero;stroke:none"
         d="m 3242.4,1732.7 c 0,28.18 -13.75,77.53 -72.26,77.53 -55.5,0 -77.39,-46.33 -80.92,-77.53 z m -152.12,-81.88 c 4.07,-50.52 56.81,-74.08 117.12,-74.08 44.29,0 80.15,5.5 114.67,16.74 l 16.79,-81.23 c -42.13,-16.66 -94.28,-24.42 -150.15,-24.42 -141.02,0 -221.63,75.54 -221.63,196.58 0,97.76 66.21,205.45 209.96,205.45 134.03,0 185.33,-96.7 185.33,-191.86 0,-20.55 -2.66,-38.62 -4.46,-47.94 l -267.63,0.76" /><path
         id="path20"
         style="fill:#231f20;fill-opacity:1;fill-rule:nonzero;stroke:none"
         d="m 3439.39,1757.8 c 0,47.96 -1.54,88.09 -3.45,122.72 h 112.32 l 5.98,-53.46 h 2.56 c 16.99,25.14 58.61,62.25 128.32,62.25 84.7,0 148.9,-52.9 148.9,-166.09 v -227.63 h -129.29 v 213.22 c 0,49.82 -18.77,83.66 -65.51,83.66 -35.86,0 -56.99,-22.87 -66.21,-44.87 -3.6,-7.92 -4.53,-18.93 -4.53,-29.83 v -222.18 h -129.09 v 262.21" /><path
         id="path22"
         style="fill:#231f20;fill-opacity:1;fill-rule:nonzero;stroke:none"
         d="m 4018.18,1880.52 62.25,-188.73 c 6.8,-23.11 15.23,-51.31 20.08,-71.75 h 2.95 c 5.88,20.44 12.73,49.52 18.77,71.75 l 51.13,188.73 h 138.28 l -97.13,-253.57 c -59.16,-152.7 -99.1,-213.01 -146.05,-251.55 -44.01,-36.1 -91.8,-49.74 -125.1,-52.78 l -26.74,100.99 c 16.04,3.03 36.43,9.94 55.86,20.17 19.65,9.38 41.84,29.01 53.5,48.22 4.55,5.82 7.11,11.67 7.11,17.24 0,3.75 -0.86,10.07 -5.41,19.5 l -152.97,351.78 h 143.47" /><path
         id="path24"
         style="fill:#231f20;fill-opacity:1;fill-rule:nonzero;stroke:none"
         d="m 4581.93,1677.45 c -68,0 -120.25,-14.92 -120.25,-60.64 0,-30.71 21.91,-45.58 50.64,-45.58 31.39,0 58.6,19.82 67.35,44.3 1.42,6.03 2.26,12.9 2.26,20.24 z m 125.08,-88.77 c 0,-36.26 1.54,-71.87 6.86,-93.09 H 4597.3 l -7.5,38.64 h -2.57 c -27.31,-30.56 -69.79,-47.11 -119.01,-47.11 -84.12,0 -134.59,56.56 -134.59,117.88 0,100.06 97.03,147.29 244.24,147.29 v 4.54 c 0,20.58 -11.95,49.65 -75.8,49.65 -42.28,0 -87.4,-13.32 -114.75,-28.31 l -23.9,76.21 c 28.92,15.03 85.84,34.93 161.72,34.93 138.45,0 181.87,-75.78 181.87,-166.09 v -134.54" /><path
         id="path26"
         style="fill:#231f20;fill-opacity:1;fill-rule:nonzero;stroke:none"
         d="m 2523.79,1076.16 h 50.44 c 52.44,0 86.03,26.7 86.03,66.97 0,45.89 -35.66,65.68 -87.63,65.68 -24.18,0 -40.4,-2.21 -48.84,-4.27 z m -49.42,160.38 c 24.95,4.8 61.38,8.02 94.64,8.02 52.56,0 87.35,-9.62 111.16,-29.41 18.48,-15.24 30.06,-39.36 30.06,-67.32 0,-46.09 -32.42,-76.86 -72.08,-89.63 v -1.48 c 29.23,-9.3 46.39,-34.79 55.96,-71.111 12.7,-49.39 22.02,-83.558 29.12,-97.429 h -51.39 c -5.97,10.519 -14.33,40.73 -24.76,84.621 -11.21,48.629 -32.05,67.139 -76.72,68.539 h -46.57 V 888.18 h -49.42 v 348.36" /><path
         id="path28"
         style="fill:#231f20;fill-opacity:1;fill-rule:nonzero;stroke:none"
         d="m 2953.69,1039.94 c 0.77,29.17 -12.8,75.03 -68.47,75.03 -51.11,0 -72.55,-43.38 -76.53,-75.03 z m -145.39,-32.93 c 0.87,-62.19 43.56,-87.76 93.32,-87.76 35.67,0 57.87,5.75 76.36,13.109 l 8.52,-32.949 c -17.63,-7.34 -47.78,-16.34 -91.78,-16.34 -83.67,0 -134.69,51.91 -134.69,127.79 0,76.74 49.14,136.97 129.18,136.97 89.54,0 112.68,-72.74 112.68,-119.57 0,-9.41 -0.66,-16.1 -1.64,-21.25 H 2808.3" /><path
         id="path30"
         style="fill:#231f20;fill-opacity:1;fill-rule:nonzero;stroke:none"
         d="m 3250.46,1038.85 c 0,6.19 -0.57,13.61 -2.1,20.04 -7.47,28.71 -34.22,52.64 -72.25,52.64 -51.04,0 -82.04,-41.72 -82.04,-97.53 0,-51.852 27.97,-94.148 81.18,-94.148 33.38,0 63.83,20.789 73.11,55.418 1.53,5.968 2.1,12.082 2.1,19.429 z m 50.07,221.87 V 953.711 c 0,-22.27 0.47,-48.16 2.26,-65.531 h -44.92 l -2.21,44.179 h -1.03 c -15.55,-28.238 -48.17,-49.589 -92.86,-49.589 -66.58,0 -118.08,51.839 -118.08,128.89 -0.47,84.93 57.01,136.17 123.2,136.17 42.51,0 70.76,-18.13 83,-38.37 h 0.57 v 151.26 h 50.07" /><path
         id="path32"
         style="fill:#231f20;fill-opacity:1;fill-rule:nonzero;stroke:none"
         d="m 3771.15,899.52 c -17.48,-8.161 -54.18,-16.45 -100.64,-16.45 -107.74,0 -188.46,62.809 -188.46,178.91 0,110.65 81.29,185.11 199.75,185.11 47.22,0 77.67,-9.57 90.76,-15.24 l -12.33,-37.89 c -18.51,8.35 -44.96,14.85 -76.71,14.85 -89.63,0 -148.83,-53.05 -148.83,-145.2 0,-86.899 53.49,-141.61 146.07,-141.61 30.61,0 60.96,5.641 81.1,14.629 l 9.29,-37.109" /><path
         id="path34"
         style="fill:#231f20;fill-opacity:1;fill-rule:nonzero;stroke:none"
         d="m 3831.91,1063 c 0,29.84 -0.45,55.43 -2.14,79.23 h 43.41 l 2.37,-49.94 h 1.62 c 12.89,34.15 43.14,55.54 76.74,55.54 5,0 8.9,-0.21 13.53,-1.01 v -43.59 c -5.19,0.73 -10.14,1.38 -16.68,1.38 -35.64,0 -60.39,-24.54 -67.24,-59.18 -1.22,-6.58 -1.8,-14.07 -1.8,-21.34 V 888.18 h -49.81 V 1063" /><path
         id="path36"
         style="fill:#231f20;fill-opacity:1;fill-rule:nonzero;stroke:none"
         d="m 4125.27,917.18 c 48.09,0 83.54,41.39 83.54,99.09 0,43.01 -23.52,97.07 -82.29,97.07 -58.06,0 -83.94,-50.34 -83.94,-98.6 0,-55.658 34.24,-97.56 82.6,-97.56 z m -1.91,-34.41 c -73.79,0 -131.43,50.199 -131.43,130.38 0,85.05 60.51,134.68 135.8,134.68 79.11,0 131.92,-52.79 131.92,-130.12 0,-94.409 -70.74,-134.94 -136.29,-134.94 v 0" /><path
         id="path38"
         style="fill:#231f20;fill-opacity:1;fill-rule:nonzero;stroke:none"
         d="m 4315.72,935.461 c 15.45,-8.57 41.35,-18.02 66.39,-18.02 35.47,0 52.52,16.36 52.52,37.981 0,21.867 -14,33.379 -50.43,46.058 -49.61,16.74 -72.95,42.15 -72.95,71.89 0,40.99 36.72,74.46 94.96,74.46 27.58,0 51.78,-6.57 66.95,-15.72 l -12.05,-32.9 c -10.99,5.65 -30.72,14.65 -56.42,14.65 -29.4,0 -44.89,-15.66 -44.89,-34.45 0,-21.21 15.49,-30.72 51.22,-43.64 46.97,-16.46 72.01,-38.559 72.01,-76.391 0,-44.82 -37.76,-76.309 -102.25,-76.309 -29.78,0 -57.65,7.289 -76.64,17.692 l 11.58,34.699" /><path
         id="path40"
         style="fill:#231f20;fill-opacity:1;fill-rule:nonzero;stroke:none"
         d="m 4540.31,935.461 c 14.98,-8.57 41.15,-18.02 66.27,-18.02 35.69,0 52.56,16.36 52.56,37.981 0,21.867 -14.22,33.379 -50.27,46.058 -49.98,16.74 -73.03,42.15 -73.03,71.89 0,40.99 36.05,74.46 94.28,74.46 27.97,0 52.44,-6.57 67.05,-15.72 l -11.86,-32.9 c -10.62,5.65 -30.37,14.65 -56.05,14.65 -29.69,0 -45.43,-15.66 -45.43,-34.45 0,-21.21 15.74,-30.72 51.78,-43.64 46.95,-16.46 71.89,-38.559 71.89,-76.391 0,-44.82 -37.75,-76.309 -101.95,-76.309 -30.26,0 -57.85,7.289 -77.09,17.692 l 11.85,34.699" /><path
         id="path42"
         style="fill:#ffffff;fill-opacity:1;fill-rule:nonzero;stroke:none"
         d="m 643.512,2164.04 c 0,0 49.597,-5.77 61.168,32.94 11.281,38.93 -31.875,231.02 -335.461,446.9 0,0 -16.02,14.97 -23.715,11.63" /><path
         id="path44"
         style="fill:#231f20;fill-opacity:1;fill-rule:nonzero;stroke:none"
         d="m 344.426,2659.26 c -2.082,-1 -3.043,-3.26 -2.082,-4.87 0.472,-2.15 2.844,-3.01 4.644,-2.3 3.403,1.39 12.977,-4.53 19.614,-10.76 317.718,-226.04 342.769,-415.32 334.796,-443.19 -10.418,-35.48 -55.277,-30.44 -57.378,-30.44 -1.895,0.37 -3.696,-1.11 -3.868,-3.23 -0.5,-2.01 0.84,-3.99 3.008,-4.26 0.492,0 52.832,-5.66 65.078,35.67 13.942,46.8 -40.601,240.5 -336.695,451.09 -2.742,2.42 -17.723,16.33 -27.117,12.29" /><path
         id="path46"
         style="fill:#231f20;fill-opacity:1;fill-rule:nonzero;stroke:none"
         d="m 648.441,2164.66 c 0,0 -17.078,-47.22 -56.902,-39.77 -39.926,7.5 -191.496,132.96 -246.699,501.2 0,0 -5.309,23.81 0.664,29.42" /><path
         id="path48"
         style="fill:#231f20;fill-opacity:1;fill-rule:nonzero;stroke:none"
         d="m 343.082,2658.36 c -7.102,-6.41 -3.301,-26.9 -1.699,-33.09 53.601,-358.66 201.441,-494.9 249.629,-504.23 42.476,-7.81 60.883,41.85 61.351,42.43 0.473,1.82 -0.468,4.13 -2.265,4.8 -2.368,0.78 -4.168,-0.29 -5.137,-2.18 -0.371,-1.82 -16.484,-44.12 -52.711,-37.43 -28.645,5.37 -185.891,113.77 -243.465,498.11 -2.562,10.5 -3.129,23.52 -0.566,26.23 1.508,1.39 1.601,3.64 0.277,5.26 -1.508,1.48 -3.808,1.48 -5.414,0.1" /><path
         id="path50"
         style="fill:#231f20;fill-opacity:1;fill-rule:nonzero;stroke:none"
         d="m 442.023,2499.21 c 0,0 628.127,-887.72 1397.107,-2151.05 45.33,-75.25 -63.47,-111.328 -93.63,-63.84 -20.57,32.071 -642.07,966.81 -1303.477,2214.89" /><path
         id="path52"
         style="fill:#ffffff;fill-opacity:1;fill-rule:nonzero;stroke:none"
         d="m 1549.03,2164.04 c 0,0 -49.61,-5.77 -61.45,32.94 -11.57,38.93 32.06,231.02 335.84,446.9 0,0 15.54,14.97 23.41,11.63" /><path
         id="path54"
         style="fill:#231f20;fill-opacity:1;fill-rule:nonzero;stroke:none"
         d="m 1820.52,2646.57 c -295.9,-210.49 -350.06,-404.04 -336.19,-450.69 12.14,-41.33 64.87,-35.67 65.34,-35.67 2.07,0.27 3.24,2.25 3.24,4.26 -0.31,2.12 -2.01,3.6 -4.31,3.23 -1.87,0 -46.82,-5.04 -57.26,30.44 -8.35,27.77 16.4,216.9 333.85,442.73 6.44,5.88 16.78,12.8 20.68,11.22 1.6,-0.71 3.77,0 4.54,2.3 0.87,1.61 0,3.87 -1.9,4.87 -9.87,4.04 -24.95,-9.87 -27.99,-12.69" /><path
         id="path56"
         style="fill:#231f20;fill-opacity:1;fill-rule:nonzero;stroke:none"
         d="m 1543.63,2164.66 c 0,0 17.27,-47.22 57.09,-39.77 39.94,7.5 192.07,132.96 246.68,501.2 0,0 5.8,23.81 -0.57,29.42" /><path
         id="path58"
         style="fill:#231f20;fill-opacity:1;fill-rule:nonzero;stroke:none"
         d="m 1844.34,2658.26 c -1.43,-1.8 -1.43,-3.87 0.09,-5.26 2.57,-2.71 1.98,-15.73 -0.29,-25.99 -57.47,-384.58 -215.48,-492.98 -243.73,-498.35 -36.33,-6.69 -52.34,35.61 -52.93,37.43 -0.75,1.89 -2.94,2.96 -4.74,2.18 -2.08,-0.67 -3.31,-2.98 -2.57,-4.8 0.49,-0.58 18.88,-50.24 61.37,-42.43 47.8,9.33 196.43,145.57 249.91,504.39 1.33,6.03 5.4,26.52 -1.81,32.93 -1.7,1.38 -3.77,1.38 -5.3,-0.1" /><path
         id="path60"
         style="fill:#231f20;fill-opacity:1;fill-rule:nonzero;stroke:none"
         d="m 1750.73,2499.21 c 0,0 -628.22,-887.72 -1396.91,-2151.05 -45.918,-75.25 63.055,-111.328 93.137,-63.84 20.75,32.071 642.343,966.81 1303.773,2214.89" /><path
         id="path62"
         style="fill:#ffffff;fill-opacity:1;fill-rule:nonzero;stroke:none"
         d="m 1912.25,1718.99 c -126.71,210.86 -332.62,352.1 -539.84,454.75 -94.08,46.66 -173.85,76.08 -270.97,108.28 0,0 -875.936,-299.37 -783.67,-1089.78 68.675,-584.58 591.433,-885.021 738.24,-934.498 24.18,-8.121 22.01,-12.82 27.71,-13.332 18.38,-2.008 123.66,51.801 252.94,114.211 167.01,80.68 375.66,224.938 523.05,413.211 119.96,153.168 184.46,383.618 175.15,561.778 -7.57,145.63 -59.46,280.12 -122.61,385.38" /><path
         id="path64"
         style="fill:#231f20;fill-opacity:1;fill-rule:nonzero;stroke:none"
         d="m 908.535,2213.31 c 0,0 -763.183,-291.88 -762.148,-932.91 0.863,-640.841 711.32,-947.24 890.003,-1019.638 157.24,-63.403 -53.202,55 -93.699,80.84 -59.476,38.589 -517.086,329.168 -517.086,938.798 0,609.46 539.368,926.51 559.485,936.97 59.54,31.54 267.35,136.79 -76.555,-4.06" /><path
         id="path66"
         style="fill:#ed1c24;fill-opacity:1;fill-rule:nonzero;stroke:none"
         d="m 1284.13,2217.22 c 0,0 763.17,-291.74 762.22,-932.68 -0.67,-641.278 -711.69,-947.27 -889.98,-1019.751 -177.179,-71.789 35.36,43.621 93.69,80.66 59.19,38.211 523.16,329.36 523.16,939.091 0,609.76 -546.97,927.93 -566.12,936.87 -47.43,22.14 -256.362,132.3 77.03,-4.19" /><path
         id="path68"
         style="fill:#ed1c24;fill-opacity:1;fill-rule:nonzero;stroke:none"
         d="M 1300.51,669.949 H 903.5 V 1861.26 h 397.01 V 669.949" /><path
         id="path70"
         style="fill:#ed1c24;fill-opacity:1;fill-rule:nonzero;stroke:none"
         d="m 506.129,1066.74 v 397.18 H 1697.34 V 1066.74 H 506.129" /><path
         id="path72"
         style="fill:#ed1c24;fill-opacity:1;fill-rule:nonzero;stroke:none"
         d="m 2258.32,854.871 h 15.08 V 2061.11 h -15.08 V 854.871" /></g></g></svg>