<svg xmlns="http://www.w3.org/2000/svg" width="238" height="63"><defs><clipPath id="a"><path d="M.092 63V0h237.366v63z"/></clipPath></defs><path fill="#ef3340" d="M21.776 0v21.684H.093v19.633h21.683V63h19.632V41.317h21.684V21.684H41.408V0z"/><path fill="#040504" d="M106.384 27.065h-9.909V10.374h9.91v3.62h-5.4v2.626h5v3.619h-5v3.15h5.4z"/><g clip-path="url(#a)"><path fill="#040504" d="M115.027 16.939c-.525 0-.966.165-1.32.496-.353.332-.56.85-.62 1.559h3.835c-.016-.624-.193-1.123-.53-1.495-.34-.373-.795-.56-1.365-.56m.262 10.355c-2.154 0-3.827-.573-5.017-1.718-1.191-1.146-1.788-2.777-1.788-4.892 0-2.184.552-3.86 1.656-5.029 1.103-1.17 2.68-1.753 4.727-1.753 1.948 0 3.453.508 4.515 1.525 1.061 1.016 1.593 2.478 1.593 4.389v1.987h-7.98c.03.723.294 1.29.793 1.701.499.41 1.178.616 2.038.616.783 0 1.505-.074 2.163-.223.658-.148 1.372-.401 2.141-.759v3.209c-.7.357-1.423.604-2.17.74-.745.138-1.636.207-2.67.207"/></g><g clip-path="url(#a)"><path fill="#040504" d="M133.487 23.093c0 1.385-.473 2.43-1.416 3.139-.944.708-2.298 1.062-4.064 1.062-.96 0-1.792-.051-2.5-.154a10.656 10.656 0 0 1-2.17-.566v-3.572c.693.304 1.452.555 2.278.753.826.198 1.562.297 2.21.297.966 0 1.45-.221 1.45-.663 0-.228-.136-.432-.406-.61-.27-.18-1.056-.527-2.358-1.045-1.186-.488-2.016-1.04-2.489-1.66-.471-.621-.707-1.408-.707-2.359 0-1.202.463-2.139 1.392-2.808.929-.67 2.242-1.005 3.939-1.005.853 0 1.654.093 2.403.28.75.186 1.528.458 2.334.816l-1.209 2.877a13.65 13.65 0 0 0-1.883-.68c-.663-.186-1.204-.279-1.622-.279-.731 0-1.096.179-1.096.537 0 .22.127.409.382.565.256.156.992.474 2.21.953.905.373 1.581.738 2.027 1.096.444.358.772.778.98 1.261.21.484.315 1.072.315 1.765"/></g><g clip-path="url(#a)"><path fill="#040504" d="M142.3 23.766c.602 0 1.32-.15 2.158-.446v3.254a8.746 8.746 0 0 1-1.718.553 9.701 9.701 0 0 1-1.913.167c-1.499 0-2.58-.367-3.243-1.102-.661-.734-.992-1.863-.992-3.386v-5.33h-1.564V15.66l1.986-1.405 1.153-2.716h2.923v2.591h3.173v3.345h-3.173v5.035c0 .837.403 1.256 1.21 1.256"/></g><g clip-path="url(#a)"><path fill="#040504" d="M151.206 27.065h-4.464V14.13h4.464zm-4.579-16.154c0-.67.187-1.169.56-1.495.373-.328.974-.491 1.804-.491.83 0 1.434.167 1.815.502.381.335.571.83.571 1.484 0 1.309-.796 1.963-2.386 1.963-1.576 0-2.364-.654-2.364-1.963"/></g><g clip-path="url(#a)"><path fill="#040504" d="M100.984 44.635h.822c.678 0 1.216-.19 1.615-.57.4-.38.6-.907.6-1.577 0-1.126-.625-1.689-1.873-1.689h-1.164zm7.603-2.17c0 1.866-.55 3.306-1.65 4.322-1.099 1.015-2.66 1.524-4.686 1.524h-1.267v5.538h-4.51V37.157h5.777c2.108 0 3.691.46 4.749 1.381 1.058.921 1.587 2.231 1.587 3.927"/></g><g clip-path="url(#a)"><path fill="#040504" d="m120.198 53.848-.56-1.61h-.261a3.641 3.641 0 0 1-1.56 1.365c-.665.315-1.447.473-2.345.473-1.423 0-2.531-.412-3.322-1.24-.792-.824-1.188-1.991-1.188-3.497v-8.426h4.464v7.066c0 .846.12 1.485.36 1.919.24.433.633.65 1.182.65.768 0 1.316-.302 1.644-.908.326-.604.49-1.627.49-3.065v-5.662h4.464v12.935z"/></g><g clip-path="url(#a)"><path fill="#040504" d="M134.811 53.848v-7.055c0-.86-.124-1.51-.371-1.947-.247-.438-.645-.656-1.193-.656-.754 0-1.298.3-1.632.901-.336.602-.504 1.632-.504 3.094v5.663h-4.462V40.913h3.367l.559 1.598h.263a3.528 3.528 0 0 1 1.581-1.37c.674-.305 1.448-.457 2.324-.457 1.43 0 2.544.415 3.339 1.245.796.829 1.193 1.997 1.193 3.504v8.415z"/></g><g clip-path="url(#a)"><path fill="#040504" d="m150.749 53.848-.856-1.713h-.092c-.6.746-1.214 1.256-1.838 1.53-.624.275-1.43.411-2.42.411-1.218 0-2.177-.365-2.877-1.096-.7-.73-1.05-1.758-1.05-3.082 0-1.378.48-2.404 1.438-3.078.96-.672 2.347-1.05 4.168-1.135l2.156-.069v-.182c0-1.066-.524-1.599-1.574-1.599-.945 0-2.143.32-3.597.96l-1.29-2.946c1.506-.776 3.41-1.165 5.708-1.165 1.66 0 2.943.412 3.853 1.234.91.821 1.365 1.97 1.365 3.447v8.483zm-3.311-2.923c.54 0 1.002-.171 1.387-.513.385-.344.577-.788.577-1.337v-1.004l-1.028.046c-1.469.052-2.204.593-2.204 1.62 0 .792.423 1.188 1.268 1.188"/></g><g clip-path="url(#a)"><path fill="#040504" d="M165.042 53.848v-7.055c0-.86-.123-1.51-.371-1.947-.247-.438-.644-.656-1.193-.656-.754 0-1.297.3-1.632.901-.335.602-.503 1.632-.503 3.094v5.663h-4.463V40.913h3.368l.559 1.598h.262a3.53 3.53 0 0 1 1.582-1.37c.673-.305 1.448-.457 2.323-.457 1.43 0 2.544.415 3.339 1.245.795.829 1.192 1.997 1.192 3.504v8.415z"/></g><g clip-path="url(#a)"><path fill="#040504" d="M178.526 43.721c-.526 0-.966.166-1.318.497-.355.331-.562.85-.624 1.558h3.836c-.015-.624-.192-1.122-.53-1.494-.339-.374-.794-.56-1.364-.56m.262 10.354c-2.154 0-3.827-.573-5.017-1.718-1.192-1.145-1.787-2.777-1.787-4.891 0-2.185.551-3.861 1.654-5.03 1.105-1.169 2.68-1.753 4.728-1.753 1.948 0 3.454.509 4.515 1.525 1.061 1.016 1.593 2.479 1.593 4.39v1.986h-7.98c.03.724.294 1.29.793 1.701.498.41 1.177.617 2.038.617.783 0 1.505-.075 2.163-.224.659-.148 1.372-.4 2.141-.758v3.208c-.7.358-1.423.605-2.17.741-.746.138-1.636.206-2.67.206"/></g><g clip-path="url(#a)"><path fill="#040504" d="M197.843 40.57h.89c1.545 0 2.318.575 2.318 1.725 0 1.392-.787 2.089-2.364 2.089h-.844zm1.14 7.205 3.54 6.074h5.115l-4.864-7.273c1.888-1.058 2.832-2.554 2.832-4.487 0-3.287-2.268-4.932-6.804-4.932h-5.468V53.85h4.509v-6.074z"/></g><g clip-path="url(#a)"><path fill="#040504" d="M213.38 53.848h-4.463V40.913h4.463zm-4.578-16.154c0-.67.187-1.168.56-1.496.373-.328.974-.491 1.803-.491.83 0 1.435.167 1.816.502.38.335.57.83.57 1.485 0 1.308-.794 1.963-2.386 1.963-1.574 0-2.363-.655-2.363-1.963"/></g><g clip-path="url(#a)"><path fill="#040504" d="M226.487 49.875c0 1.385-.472 2.431-1.415 3.14-.944.708-2.3 1.061-4.065 1.061-.96 0-1.792-.05-2.5-.154a10.672 10.672 0 0 1-2.17-.565v-3.573c.693.304 1.452.555 2.28.754.825.197 1.56.296 2.207.296.967 0 1.45-.22 1.45-.662 0-.229-.135-.432-.405-.611s-1.055-.526-2.358-1.044c-1.186-.488-2.016-1.041-2.488-1.661-.472-.62-.708-1.407-.708-2.358 0-1.203.464-2.14 1.394-2.809.927-.67 2.24-1.005 3.937-1.005.854 0 1.654.093 2.404.28.749.187 1.527.458 2.334.816l-1.21 2.878a13.598 13.598 0 0 0-1.883-.68c-.662-.186-1.204-.28-1.621-.28-.731 0-1.097.18-1.097.537 0 .221.127.41.382.566.256.156.992.473 2.21.953.906.373 1.581.738 2.027 1.095.445.358.772.779.98 1.262.21.483.315 1.071.315 1.764"/></g><g clip-path="url(#a)"><path fill="#040504" d="M235.3 50.549c.6 0 1.32-.149 2.158-.445v3.254a8.766 8.766 0 0 1-1.718.553 9.71 9.71 0 0 1-1.913.166c-1.5 0-2.58-.367-3.243-1.102-.661-.734-.992-1.863-.992-3.385v-5.331h-1.565v-1.815l1.987-1.405 1.152-2.717h2.924v2.592h3.173v3.345h-3.173v5.034c0 .837.403 1.256 1.21 1.256"/></g><script xmlns=""/></svg>