<?xml version="1.0" encoding="UTF-8" standalone="no"?>
<!-- Created with Inkscape (http://www.inkscape.org/) -->

<svg
   version="1.1"
   id="svg1"
   width="625.37866"
   height="127.28933"
   viewBox="0 0 625.37866 127.28933"
   sodipodi:docname="China RC.svg"
   inkscape:version="1.3.2 (091e20e, 2023-11-25, custom)"
   xmlns:inkscape="http://www.inkscape.org/namespaces/inkscape"
   xmlns:sodipodi="http://sodipodi.sourceforge.net/DTD/sodipodi-0.dtd"
   xmlns="http://www.w3.org/2000/svg"
   xmlns:svg="http://www.w3.org/2000/svg">
  <defs
     id="defs1">
    <clipPath
       clipPathUnits="userSpaceOnUse"
       id="clipPath53">
      <path
         d="M 0.059998,95.467 H 469.034 V 0.06 H 0.059998 Z"
         transform="translate(-59.431001,-85.689002)"
         id="path53" />
    </clipPath>
  </defs>
  <sodipodi:namedview
     id="namedview1"
     pagecolor="#ffffff"
     bordercolor="#666666"
     borderopacity="1.0"
     inkscape:showpageshadow="2"
     inkscape:pageopacity="0.0"
     inkscape:pagecheckerboard="0"
     inkscape:deskcolor="#d1d1d1"
     inkscape:export-bgcolor="#ffffffff"
     inkscape:zoom="1.4950942"
     inkscape:cx="312.68933"
     inkscape:cy="63.875575"
     inkscape:window-width="1920"
     inkscape:window-height="1017"
     inkscape:window-x="-8"
     inkscape:window-y="-8"
     inkscape:window-maximized="1"
     inkscape:current-layer="g1">
    <inkscape:page
       x="0"
       y="0"
       inkscape:label="1"
       id="page1"
       width="625.37866"
       height="127.28933"
       margin="0"
       bleed="0"
       inkscape:export-filename="China RC.png"
       inkscape:export-xdpi="300"
       inkscape:export-ydpi="300" />
  </sodipodi:namedview>
  <g
     id="g1"
     inkscape:groupmode="layer"
     inkscape:label="1">
    <g
       id="group-MC1">
      <path
         id="path2"
         d="m 0,0 c -3.202,0.289 -4.539,2.931 -6.69,3.345 -3.896,0.752 -3.4,-2.183 -4.629,-3.345 -4.07,0.218 -8.693,-1.244 -12.607,-1.285 -2.326,-0.026 -4.461,0.523 -5.403,-1.287 0.522,-1.731 1.889,-4.867 0.514,-7.461 4.639,-4.034 4.625,3.689 6.688,5.146 1.05,0.74 4.16,0.93 6.693,1.286 4.568,0.645 9.867,0.991 14.662,0.772 4.713,-0.215 9.151,-0.355 13.123,-1.8 -0.728,-2.018 -2.056,-3.436 -2.832,-5.404 5.129,-2.353 7.121,4.105 8.748,7.719 C 14.019,-0.665 6.097,-0.549 0,0"
         style="fill:#ed1c24;fill-opacity:1;fill-rule:evenodd;stroke:none"
         transform="matrix(1.3333333,0,0,-1.3333333,519.72533,24.74)" />
      <path
         id="path3"
         d="M 0,0 C -0.979,0.838 -1.178,2.65 -3.087,2.316 -4.383,2.09 -4.504,0.214 -5.66,-0.256 c -1.007,-0.409 -3.59,-0.34 -5.404,-0.514 -3.788,-0.365 -7.304,-0.914 -10.548,-1.288 -1.69,-0.191 -4.017,0.283 -4.888,-1.285 0.66,-2.991 4.162,-1.863 4.888,-4.375 1.658,-5.727 -5.547,-6.53 -5.145,-11.062 6.646,1.434 14.09,4.75 21.868,3.345 0.172,-4.403 -1.594,-10.598 0.258,-14.151 1.313,-0.705 2.735,0.688 3.858,1.03 0.808,3.995 -0.485,10.089 0.773,13.633 5.401,1.23 12.539,-1.083 16.722,0.516 0.26,1.507 -0.482,2.062 -0.258,3.345 0.608,3.46 4.903,5.194 5.405,9.004 C 14.856,-1.753 7.648,0.318 0,0"
         style="fill:#ed1c24;fill-opacity:1;fill-rule:evenodd;stroke:none"
         transform="matrix(1.3333333,0,0,-1.3333333,204.13733,24.74)" />
      <path
         id="path4"
         d="m 0,0 c -2.749,-4.627 -8.303,-6.449 -13.893,-8.232 -1.758,-7.138 5.225,-3.189 9.26,-4.889 -1.826,-3.231 -5.955,-4.164 -9.26,-5.918 -0.151,-1.521 0.252,-2.49 0.515,-3.601 1.999,-0.582 5.21,0.353 8.231,1.029 5.615,1.255 11.596,0.542 11.32,6.433 -3.013,0.246 -5.349,-1.48 -7.974,-0.771 1.179,2.29 3.158,3.92 5.916,6.174 1.951,1.591 6.357,3.478 5.92,6.174 C 9.46,-0.071 6.38,-3.43 5.144,-4.374 2.357,-6.5 -0.278,-9.564 -3.344,-7.203 -2.245,-4.017 3.214,-5.186 2.832,-0.514 2.382,0.154 1.121,0.008 0,0"
         style="fill:#ed1c24;fill-opacity:1;fill-rule:evenodd;stroke:none"
         transform="matrix(1.3333333,0,0,-1.3333333,341.00667,21.652)" />
      <path
         id="path5"
         d="m 0,0 c 0.931,-2.221 1.543,-7.588 -0.77,-8.748 -7.164,0.307 -14.617,-1.761 -19.81,-1.029 -1.305,-1.21 -1.94,-4.367 -1.286,-6.689 7.163,-0.439 14.25,4.054 21.866,2.316 0.244,-5.91 -1.096,-11.587 -0.254,-17.237 1.445,-0.275 2.879,-0.059 4.115,0.512 2.338,3.925 0.69,11.832 1.799,16.983 5.391,1.721 12.027,-2.842 16.467,-2.83 4.14,0.009 7.484,3.7 8.234,7.459 C 23.125,-10.666 13.902,-9.191 5.66,-8.232 5.494,-4.799 6.041,-0.65 4.375,1.286 2.371,1.406 1.082,0.809 0,0"
         style="fill:#ed1c24;fill-opacity:1;fill-rule:evenodd;stroke:none"
         transform="matrix(1.3333333,0,0,-1.3333333,429.16267,23.366667)" />
      <path
         id="path6"
         d="m 0,0 c -7.875,2.845 -16.623,4.817 -21.355,10.805 -2.135,0.609 -2.991,2.499 -6.174,2.059 -5.524,-6.055 -13.115,-10.041 -22.125,-12.608 -0.953,-0.028 -1.508,1.197 -2.315,0.516 0.79,-11.04 10.395,-2.157 14.663,0 0.732,-2.12 2.41,-2.215 4.888,-2.059 4.651,0.294 11.776,0.107 15.696,0.774 1.08,-0.054 0.566,1.49 1.543,1.542 C -11.203,-4.12 -1.246,-7.915 2.057,0.514 1.213,0.5 1.074,-0.217 0,0"
         style="fill:#ed1c24;fill-opacity:1;fill-rule:evenodd;stroke:none"
         transform="matrix(1.3333333,0,0,-1.3333333,622.636,39.146667)" />
      <path
         id="path7"
         d="m 0,0 c -6.528,-0.378 -13.141,-1.36 -17.237,-0.256 -2.011,-2.796 0.109,-4.62 0.771,-7.719 1.516,-7.094 -2.095,-16.272 -0.258,-21.353 1.075,-0.377 1.495,1.015 2.574,1.286 0.948,0.238 2.425,-0.183 3.601,0 2.966,0.462 6.012,1.647 9.519,1.801 9.447,0.415 21.124,0.11 26.499,-2.83 3.685,5.36 -1.138,15.628 1.287,22.64 0.836,2.418 2.975,3.081 2.058,5.661 C 20.849,0.53 10.16,0.59 0,0"
         style="fill:#ed1c24;fill-opacity:1;fill-rule:evenodd;stroke:none"
         transform="matrix(1.3333333,0,0,-1.3333333,271.028,24.74)" />
      <path
         id="path8"
         d="m 0,0 c -2.473,-2.26 -1.641,-6.528 1.541,-6.947 2.43,-0.319 3.986,1.741 6.689,1.286 1.848,-1.976 0.51,-7.261 -0.769,-9.261 -3.44,-0.249 -5.756,-1.62 -9.778,-1.287 -0.503,-1.451 -0.96,-4.578 0,-5.917 3.004,-0.276 4.903,1.046 8.233,1.286 5.705,0.408 11.35,-2.144 14.922,-1.801 3.912,0.377 5.607,4.825 7.203,7.976 -4.678,-1.418 -11.115,-1.683 -14.922,0.771 -0.197,2.943 0.397,5.094 0.26,7.975 3.469,1.759 10.916,-0.454 11.06,4.632 C 18.566,3.026 6.682,-0.725 0,0"
         style="fill:#ed1c24;fill-opacity:1;fill-rule:evenodd;stroke:none"
         transform="matrix(1.3333333,0,0,-1.3333333,354.04267,30.913333)" />
      <path
         id="path9"
         d="m 0,0 c -0.783,-0.759 -0.85,-2.236 -0.77,-3.859 3.02,-2.068 9.985,-0.086 11.319,-4.374 -6.698,-0.23 -13.915,-2.657 -19.811,-1.286 -1.207,-0.783 -0.936,-4.235 -0.256,-5.403 7.188,-0.527 14.551,3.57 21.869,2.058 1.733,-9.451 -7.732,-7.705 -13.636,-9.518 3.533,-1.291 10.996,-3.553 14.664,-1.03 3.029,2.081 2.172,6.761 3.089,11.063 6.157,1.4 10.844,-3.883 15.95,-3.345 2.894,0.305 5.273,2.918 6.175,6.175 -7.158,-2.06 -14.748,1.337 -22.125,1.544 2.53,3.373 8.291,3.876 10.032,7.717 C 18.283,1.752 8.088,0.092 0,0"
         style="fill:#ed1c24;fill-opacity:1;fill-rule:evenodd;stroke:none"
         transform="matrix(1.3333333,0,0,-1.3333333,493.996,32.629333)" />
      <path
         id="path10"
         d="m 0,0 c -0.24,2.057 -8.84,2.834 -12.09,2.831 -5.424,-0.004 -20.74,-0.28 -20.586,-3.602 0.176,-3.665 5.871,-0.424 8.235,-2.314 -0.854,-1.96 -2.373,-3.216 -4.118,-4.374 -1.554,-1.037 -4.378,-1.533 -4.371,-4.117 5.827,-0.216 12.401,1.587 19.037,1.286 4.997,-0.226 9.674,-2.363 13.639,-1.029 -0.945,4.889 -6.275,5.391 -7.721,9.776 C -5.51,-1.898 0.363,-3.067 0,0"
         style="fill:#ed1c24;fill-opacity:1;fill-rule:evenodd;stroke:none"
         transform="matrix(1.3333333,0,0,-1.3333333,609.256,47.037333)" />
      <path
         id="path11"
         d="M 0,0 C -0.914,-1.319 -1.225,-4.941 0,-6.174 7.067,-3.291 19.917,-4.828 20.065,4.117 13.983,2.139 7.171,0.889 0,0"
         style="fill:#ed1c24;fill-opacity:1;fill-rule:evenodd;stroke:none"
         transform="matrix(1.3333333,0,0,-1.3333333,323.16933,55.270667)" />
      <path
         id="path12"
         d="m 0,0 c -1.627,-3.614 -3.619,-10.072 -8.748,-7.719 0.776,1.968 2.104,3.386 2.832,5.404 -3.972,1.445 -8.41,1.585 -13.123,1.8 -4.795,0.219 -10.094,-0.127 -14.662,-0.772 -2.533,-0.356 -5.643,-0.546 -6.693,-1.286 -2.063,-1.457 -2.049,-9.18 -6.688,-5.146 1.375,2.594 0.008,5.73 -0.514,7.461 0.942,1.81 3.077,1.261 5.403,1.287 3.914,0.041 8.537,1.503 12.607,1.285 1.229,1.162 0.733,4.097 4.629,3.345 2.151,-0.414 3.488,-3.056 6.69,-3.345 C -12.17,1.765 -4.248,1.648 0,0"
         style="fill:#ed1c24;fill-opacity:1;fill-rule:evenodd;stroke:none"
         transform="matrix(1.3333333,0,0,-1.3333333,544.08133,27.825333)" />
      <path
         id="path13"
         d="m 0,0 c 0.168,-1.799 -0.23,-3.028 -0.258,-4.631 4.106,-0.321 9.182,0.588 13.121,1.286 0.598,1.454 0.85,4.533 0,5.918 C 8.065,2.225 2.916,2.228 0,0 m 17.494,2.573 c -0.369,-1.481 -0.457,-4.452 0,-5.918 3.501,0.069 7.858,-0.306 11.834,-0.514 1.188,1.41 3.117,3.365 2.573,5.661 -3.475,1.314 -10.402,1.673 -14.407,0.771 m 22.127,2.315 c -0.502,-3.811 -4.797,-5.545 -5.405,-9.005 -0.224,-1.282 0.518,-1.838 0.258,-3.344 -4.183,-1.6 -11.321,0.713 -16.722,-0.517 -1.258,-3.544 0.035,-9.638 -0.773,-13.633 -1.123,-0.342 -2.545,-1.735 -3.858,-1.03 -1.852,3.554 -0.086,9.748 -0.258,14.151 -7.778,1.405 -15.222,-1.91 -21.868,-3.345 -0.402,4.532 6.803,5.335 5.145,11.063 -0.726,2.511 -4.228,1.383 -4.888,4.374 0.871,1.568 3.198,1.094 4.888,1.286 3.244,0.373 6.76,0.922 10.548,1.287 1.814,0.174 4.397,0.105 5.404,0.514 1.156,0.471 1.277,2.347 2.573,2.572 1.909,0.334 2.108,-1.478 3.087,-2.316 C 25.4,7.264 32.608,5.192 39.621,4.888"
         style="fill:#ed1c24;fill-opacity:1;fill-rule:evenodd;stroke:none"
         transform="matrix(1.3333333,0,0,-1.3333333,180.468,34)" />
      <path
         id="path14"
         d="m 0,0 c 0.382,-4.672 -5.077,-3.503 -6.176,-6.689 3.066,-2.362 5.701,0.703 8.488,2.829 1.236,0.944 4.316,4.302 4.891,0.773 0.437,-2.697 -3.969,-4.583 -5.92,-6.175 -2.758,-2.254 -4.737,-3.884 -5.916,-6.174 2.625,-0.708 4.961,1.018 7.974,0.772 0.276,-5.891 -5.705,-5.179 -11.32,-6.433 -3.021,-0.676 -6.232,-1.611 -8.231,-1.029 -0.263,1.111 -0.666,2.08 -0.515,3.601 3.305,1.754 7.434,2.687 9.26,5.918 -4.035,1.7 -11.018,-2.249 -9.26,4.888 5.59,1.784 11.144,3.605 13.893,8.233 C -1.711,0.521 -0.45,0.668 0,0"
         style="fill:#ed1c24;fill-opacity:1;fill-rule:evenodd;stroke:none"
         transform="matrix(1.3333333,0,0,-1.3333333,344.78267,22.337333)" />
      <path
         id="path15"
         d="m 0,0 c 1.666,-1.936 1.119,-6.084 1.285,-9.518 8.242,-0.959 17.465,-2.433 24.701,-1.031 -0.75,-3.759 -4.094,-7.45 -8.234,-7.459 -4.44,-0.012 -11.076,4.551 -16.467,2.83 -1.109,-5.15 0.539,-13.058 -1.799,-16.982 -1.236,-0.571 -2.67,-0.787 -4.115,-0.512 -0.842,5.65 0.498,11.326 0.254,17.236 -7.616,1.739 -14.703,-2.755 -21.866,-2.315 -0.654,2.321 -0.019,5.478 1.286,6.689 5.193,-0.733 12.646,1.335 19.81,1.028 2.313,1.16 1.701,6.528 0.77,8.748 C -3.293,-0.477 -2.004,0.12 0,0"
         style="fill:#ed1c24;fill-opacity:1;fill-rule:evenodd;stroke:none"
         transform="matrix(1.3333333,0,0,-1.3333333,434.996,21.652)" />
      <path
         id="path16"
         d="M 0,0 C -3.141,-0.149 -5.756,-3.684 -8.233,-5.145 -2.653,-5.237 2.308,-4.711 7.461,-4.374 4.841,-3.042 3.142,0.148 0,0 M 27.785,-7.976 C 24.482,-16.406 14.525,-12.61 10.549,-7.461 9.572,-7.514 10.086,-9.058 9.006,-9.004 5.086,-9.671 -2.039,-9.483 -6.69,-9.777 c -2.478,-0.156 -4.156,-0.062 -4.888,2.058 -4.268,-2.156 -13.873,-11.04 -14.663,0 0.807,0.681 1.362,-0.544 2.315,-0.515 9.01,2.567 16.601,6.552 22.125,12.607 3.183,0.441 4.039,-1.45 6.174,-2.059 4.732,-5.988 13.48,-7.959 21.355,-10.805 1.074,-0.217 1.213,0.5 2.057,0.515"
         style="fill:#ed1c24;fill-opacity:1;fill-rule:evenodd;stroke:none"
         transform="matrix(1.3333333,0,0,-1.3333333,588.332,27.825333)" />
      <path
         id="path17"
         d="m 0,0 c -0.93,-5.758 -0.678,-12.7 -1.029,-19.039 7.03,0.859 14.54,2.587 22.384,2.573 4.84,-0.01 9.55,-1.401 14.149,-1.03 -0.007,5.912 0.062,12.632 1.029,18.268 C 26.495,3.887 9.55,2.813 0,0 m 41.421,4.631 c 0.917,-2.58 -1.222,-3.243 -2.058,-5.66 -2.425,-7.013 2.398,-17.281 -1.287,-22.641 -5.375,2.94 -17.052,3.246 -26.499,2.831 -3.507,-0.155 -6.553,-1.34 -9.519,-1.802 -1.176,-0.183 -2.653,0.238 -3.601,0 -1.079,-0.271 -1.499,-1.663 -2.574,-1.286 -1.837,5.081 1.774,14.259 0.258,21.353 -0.662,3.099 -2.782,4.923 -0.771,7.719 4.096,-1.104 10.709,-0.122 17.237,0.256 10.16,0.591 20.849,0.531 28.814,-0.77"
         style="fill:#ed1c24;fill-opacity:1;fill-rule:evenodd;stroke:none"
         transform="matrix(1.3333333,0,0,-1.3333333,254.21867,31.941333)" />
      <path
         id="path18"
         d="m 0,0 c -5.153,-0.337 -10.114,-0.863 -15.694,-0.771 2.477,1.461 5.092,4.996 8.233,5.145 C -4.319,4.522 -2.62,1.332 0,0"
         style="fill:#ffffff;fill-opacity:1;fill-rule:evenodd;stroke:none"
         transform="matrix(1.3333333,0,0,-1.3333333,598.28,33.657333)" />
      <path
         id="path19"
         d="m 0,0 c -7.099,0.311 -14.351,-1.021 -19.553,-1.545 -2.812,-0.283 -4.448,-0.062 -4.631,-2.572 2.87,-3.702 10.497,1.977 13.377,-1.029 -3.654,-2.493 -11.245,-0.368 -12.605,-4.631 2.891,-3.51 8.969,1.631 12.605,-0.259 0.397,-2.089 -2.057,-1.996 -3.601,-2.315 -3.077,-0.631 -6.361,-1.362 -8.748,-1.027 -0.551,-1.167 -0.339,-3.529 0.515,-4.116 4.784,0.414 10.176,1.781 16.466,2.058 5.009,0.22 10.558,-1.466 13.635,0 0.178,1.108 1.042,1.529 0.772,3.085 -1.463,1.024 -6.601,-0.549 -7.204,2.058 1.53,1.816 6.903,-0.211 6.432,3.605 -1.724,1.042 -4.736,1.153 -7.718,1.285 -2.458,0.109 -5.882,-0.96 -6.689,1.029 C -2.806,-1.748 7.673,-6.7 9.262,-1.287 6.647,-0.395 3.465,-0.152 0,0 m 11.319,0 c -0.967,-5.636 -1.036,-12.356 -1.029,-18.268 -4.599,-0.371 -9.309,1.021 -14.149,1.03 -7.844,0.014 -15.354,-1.714 -22.384,-2.573 0.351,6.339 0.099,13.281 1.029,19.039 9.55,2.814 26.495,3.887 36.533,0.772"
         style="fill:#ffffff;fill-opacity:1;fill-rule:evenodd;stroke:none"
         transform="matrix(1.3333333,0,0,-1.3333333,287.83733,30.913333)" />
      <path
         id="path20"
         d="m 0,0 c 0.544,-2.295 -1.385,-4.251 -2.573,-5.661 -3.976,0.208 -8.333,0.583 -11.834,0.514 -0.457,1.466 -0.369,4.437 0,5.918 C -10.402,1.673 -3.475,1.314 0,0"
         style="fill:#ffffff;fill-opacity:1;fill-rule:evenodd;stroke:none"
         transform="matrix(1.3333333,0,0,-1.3333333,223.00267,31.598667)" />
      <path
         id="path21"
         d="m 0,0 c -0.144,-5.087 -7.591,-2.873 -11.06,-4.632 0.137,-2.881 -0.457,-5.032 -0.26,-7.975 3.807,-2.454 10.244,-2.189 14.922,-0.772 -1.596,-3.15 -3.291,-7.598 -7.203,-7.975 -3.572,-0.343 -9.217,2.209 -14.922,1.801 -3.33,-0.24 -5.229,-1.562 -8.233,-1.286 -0.96,1.339 -0.503,4.466 0,5.917 4.022,-0.333 6.338,1.038 9.778,1.287 1.279,2 2.617,7.285 0.769,9.261 -2.703,0.454 -4.259,-1.605 -6.689,-1.286 -3.182,0.419 -4.014,4.687 -1.541,6.947 C -17.757,0.562 -5.873,4.313 0,0"
         style="fill:#ed1c24;fill-opacity:1;fill-rule:evenodd;stroke:none"
         transform="matrix(1.3333333,0,0,-1.3333333,386.628,32.629333)" />
      <path
         id="path22"
         d="m 0,0 c 0.85,-1.385 0.598,-4.464 0,-5.918 -3.939,-0.699 -9.015,-1.607 -13.121,-1.287 0.028,1.603 0.426,2.832 0.258,4.632 C -9.947,-0.346 -4.798,-0.348 0,0"
         style="fill:#ffffff;fill-opacity:1;fill-rule:evenodd;stroke:none"
         transform="matrix(1.3333333,0,0,-1.3333333,197.61867,30.569333)" />
      <path
         id="path23"
         d="M 0,0 V -1.8 C 1.683,-2.298 4.755,-2.381 4.631,-0.257 3.71,0.563 1.301,0.289 0,0 M 16.209,8.233 C 14.62,2.82 4.141,7.771 0,5.146 0.807,3.157 4.231,4.226 6.689,4.117 9.671,3.985 12.683,3.874 14.407,2.832 14.878,-0.984 9.505,1.043 7.975,-0.773 c 0.603,-2.607 5.741,-1.034 7.204,-2.059 0.27,-1.555 -0.594,-1.976 -0.772,-3.085 -3.077,-1.465 -8.626,0.221 -13.635,0 -6.29,-0.276 -11.682,-1.644 -16.466,-2.057 -0.854,0.587 -1.066,2.949 -0.515,4.116 2.387,-0.335 5.671,0.396 8.748,1.026 1.544,0.32 3.998,0.227 3.601,2.316 -3.636,1.89 -9.714,-3.251 -12.605,0.259 1.36,4.263 8.951,2.138 12.605,4.631 -2.88,3.006 -10.507,-2.673 -13.377,1.029 0.183,2.51 1.819,2.289 4.631,2.572 5.202,0.524 12.454,1.856 19.553,1.545 3.465,-0.152 6.647,-0.395 9.262,-1.287"
         style="fill:#ed1c24;fill-opacity:1;fill-rule:evenodd;stroke:none"
         transform="matrix(1.3333333,0,0,-1.3333333,278.57467,43.606667)" />
      <path
         id="path24"
         d="M 0,0 C 1.181,-4.592 6.119,-1.799 7.72,0.769 5.816,1.371 2.382,0.471 0,0 M 15.951,3.085 C 14.21,-0.755 8.449,-1.258 5.919,-4.632 c 7.377,-0.207 14.967,-3.603 22.125,-1.544 -0.902,-3.256 -3.281,-5.87 -6.175,-6.175 -5.106,-0.538 -9.793,4.745 -15.95,3.345 -0.917,-4.302 -0.06,-8.982 -3.089,-11.062 -3.668,-2.524 -11.131,-0.262 -14.664,1.029 5.904,1.813 15.369,0.067 13.636,9.518 -7.318,1.513 -14.681,-2.585 -21.869,-2.058 -0.68,1.168 -0.951,4.62 0.256,5.403 5.896,-1.37 13.113,1.056 19.811,1.286 -1.334,4.288 -8.299,2.306 -11.319,4.374 -0.08,1.623 -0.013,3.1 0.77,3.859 8.088,0.092 18.283,1.753 26.5,-0.258"
         style="fill:#ed1c24;fill-opacity:1;fill-rule:evenodd;stroke:none"
         transform="matrix(1.3333333,0,0,-1.3333333,508.06133,37.086667)" />
      <path
         id="path25"
         d="M 0,0 C -1.601,-2.568 -6.539,-5.361 -7.72,-0.769 -5.338,-0.298 -1.904,0.602 0,0"
         style="fill:#ffffff;fill-opacity:1;fill-rule:evenodd;stroke:none"
         transform="matrix(1.3333333,0,0,-1.3333333,518.35467,36.061333)" />
      <path
         id="path26"
         d="m 0,0 c 0.124,-2.124 -2.948,-2.041 -4.631,-1.543 v 1.8 C -3.33,0.546 -0.921,0.82 0,0"
         style="fill:#ffffff;fill-opacity:1;fill-rule:evenodd;stroke:none"
         transform="matrix(1.3333333,0,0,-1.3333333,284.74933,43.949333)" />
      <path
         id="path27"
         d="M 0,0 C 2.886,-0.088 7.613,0.064 11.318,0 11.59,1.605 9.584,3.033 9.261,4.889 4.195,6.155 1.007,3.616 0,0 M 13.634,4.889 C 15.08,0.504 20.41,0.002 21.355,-4.887 17.39,-6.222 12.713,-4.084 7.716,-3.859 1.08,-3.558 -5.494,-5.36 -11.321,-5.144 c -0.007,2.584 2.817,3.08 4.371,4.117 1.745,1.157 3.264,2.413 4.118,4.374 -2.364,1.89 -8.059,-1.351 -8.235,2.314 -0.154,3.322 15.162,3.598 20.586,3.602 3.25,0.002 11.85,-0.774 12.09,-2.831 0.363,-3.068 -5.51,-1.899 -7.975,-1.543"
         style="fill:#ed1c24;fill-opacity:1;fill-rule:evenodd;stroke:none"
         transform="matrix(1.3333333,0,0,-1.3333333,580.444,55.613333)" />
      <path
         id="path28"
         d="m 0,0 c 0.323,-1.856 2.329,-3.285 2.057,-4.889 -3.705,0.064 -8.432,-0.088 -11.318,0 C -8.254,-1.273 -5.066,1.266 0,0"
         style="fill:#ffffff;fill-opacity:1;fill-rule:evenodd;stroke:none"
         transform="matrix(1.3333333,0,0,-1.3333333,592.792,49.094667)" />
      <path
         id="path29"
         d="m 0,0 c -0.139,-8.945 -12.186,-7.408 -18.811,-10.291 -1.15,1.232 -0.858,4.854 0,6.174 C -12.088,-3.228 -5.701,-1.979 0,0"
         style="fill:#ed1c24;fill-opacity:1;fill-rule:evenodd;stroke:none"
         transform="matrix(1.3333333,0,0,-1.3333333,347.49867,49.78)" />
      <path
         id="path30"
         d="m 0,0 c 0,-0.559 0,-0.901 0.094,-1.027 0.094,-0.091 0.56,-0.155 2.144,-0.155 1.121,0 2.302,0.126 3.204,0.809 C 6.281,0.281 6.995,1.371 6.995,3.482 6.995,5.937 5.472,8.27 2.023,8.27 0.094,8.27 0,8.145 0,7.275 Z m -2.547,4.446 c 0,2.954 -0.094,3.482 -1.369,3.638 l -0.995,0.124 c -0.218,0.155 -0.218,0.653 0.032,0.777 1.741,0.154 3.885,0.248 6.931,0.248 1.929,0 3.763,-0.155 5.193,-0.932 1.492,-0.777 2.579,-2.176 2.579,-4.352 0,-2.953 -2.33,-4.57 -3.886,-5.192 -0.155,-0.187 0,-0.496 0.156,-0.746 2.486,-4.009 4.135,-6.496 6.249,-8.269 0.527,-0.466 1.305,-0.808 2.145,-0.87 0.155,-0.063 0.186,-0.311 0.03,-0.436 -0.279,-0.093 -0.777,-0.154 -1.366,-0.154 -2.643,0 -4.228,0.776 -6.436,3.916 -0.808,1.15 -2.082,3.296 -3.048,4.694 C 3.203,-2.425 2.706,-2.112 1.463,-2.112 0.063,-2.112 0,-2.143 0,-2.797 V -6.715 C 0,-9.979 0.063,-10.35 1.866,-10.6 l 0.653,-0.093 c 0.187,-0.156 0.124,-0.685 -0.062,-0.778 -1.399,0.063 -2.457,0.093 -3.699,0.093 -1.305,0 -2.425,-0.03 -3.887,-0.093 -0.186,0.093 -0.248,0.561 -0.06,0.778 l 0.776,0.093 c 1.803,0.217 1.866,0.621 1.866,3.885 V 4.446"
         style="fill:#ed1c24;fill-opacity:1;fill-rule:nonzero;stroke:none"
         transform="matrix(1.3333333,0,0,-1.3333333,183.55333,88.813333)" />
      <path
         id="path31"
         d="m 0,0 c 2.301,0 2.986,0.124 3.234,0.31 0.093,0.063 0.186,0.187 0.186,0.591 0,0.871 -0.59,1.958 -2.394,1.958 -1.834,0 -3.419,-1.678 -3.45,-2.704 0,-0.062 0,-0.155 0.217,-0.155 z m -1.926,-0.933 c -0.808,0 -0.838,-0.063 -0.838,-0.841 0,-3.139 1.833,-5.811 5.158,-5.811 1.026,0 1.896,0.309 2.86,1.523 0.311,0.093 0.53,-0.093 0.56,-0.373 -1.026,-2.115 -3.264,-2.892 -4.88,-2.892 -2.021,0 -3.607,0.871 -4.507,2.051 -0.935,1.214 -1.308,2.675 -1.308,4.042 0,3.823 2.519,7.026 6.249,7.026 2.675,0 4.416,-1.833 4.416,-3.699 0,-0.436 -0.064,-0.684 -0.125,-0.809 C 5.565,-0.901 5.13,-0.933 3.825,-0.933 h -5.751"
         style="fill:#ed1c24;fill-opacity:1;fill-rule:nonzero;stroke:none"
         transform="matrix(1.3333333,0,0,-1.3333333,209.04667,92.128)" />
      <path
         id="path32"
         d="m 0,0 c 0,0.623 -0.124,0.902 -0.341,1.213 -0.467,0.654 -1.4,1.306 -2.612,1.306 -2.829,0 -4.29,-2.455 -4.29,-5.161 0,-2.828 1.586,-5.502 4.632,-5.502 0.839,0 1.896,0.372 2.393,0.871 C -0.031,-7.086 0,-6.621 0,-6.123 Z m 2.301,-4.661 c 0,-2.457 0.03,-3.608 0.9,-3.608 0.344,0 0.871,0.156 1.338,0.312 0.218,-0.062 0.249,-0.84 -0.031,-0.995 -1.307,-0.186 -3.233,-0.653 -4.103,-0.994 -0.187,0 -0.343,0.093 -0.343,0.248 v 0.528 c 0,0.466 0,0.84 -0.062,0.964 h -0.124 c -1.369,-0.932 -2.425,-1.43 -3.918,-1.43 -3.449,0 -5.75,2.704 -5.75,5.968 0,4.354 3.295,7.151 7.523,7.151 1.057,0 1.74,-0.155 2.083,-0.28 C -0.031,3.203 0,3.389 0,3.638 v 4.694 c 0,1.834 -0.031,2.02 -0.962,2.581 l -0.313,0.186 c -0.155,0.093 -0.155,0.528 0,0.622 0.778,0.249 2.239,0.715 3.358,1.305 0.123,0 0.248,-0.062 0.311,-0.187 C 2.363,11.908 2.301,10.352 2.301,8.985 V -4.661"
         style="fill:#ed1c24;fill-opacity:1;fill-rule:nonzero;stroke:none"
         transform="matrix(1.3333333,0,0,-1.3333333,232.01067,91.714667)" />
      <path
         id="path33"
         d="m 0,0 c -2.238,2.114 -3.327,5.72 -3.327,8.706 0,2.89 0.933,5.875 3.172,8.238 1.585,1.678 4.382,3.139 7.772,3.139 2.828,0 5.16,-1.057 6.279,-1.709 0.404,-0.25 0.559,-0.219 0.622,0 l 0.249,0.901 c 0.061,0.186 0.123,0.186 0.404,0.186 0.278,0 0.34,-0.061 0.34,-0.498 0,-0.589 0.623,-5.159 0.778,-6.029 0.031,-0.156 0,-0.281 -0.124,-0.311 l -0.467,-0.124 c -0.154,-0.033 -0.217,0 -0.309,0.249 -0.436,1.025 -1.12,2.516 -2.425,3.852 -1.307,1.339 -2.953,2.394 -5.41,2.394 -5.565,0 -7.803,-4.941 -7.772,-9.48 0,-1.804 0.559,-5.315 2.985,-7.99 2.113,-2.363 3.886,-2.611 5.967,-2.611 3.514,0 6.25,1.927 7.68,3.947 0.093,0.156 0.155,0.188 0.249,0.094 L 17.067,2.643 C 17.159,2.581 17.223,2.519 17.128,2.364 15.263,-0.341 12.248,-2.859 7.864,-2.859 4.197,-2.859 1.865,-1.709 0,0"
         style="fill:#ed1c24;fill-opacity:1;fill-rule:nonzero;stroke:none"
         transform="matrix(1.3333333,0,0,-1.3333333,255.388,100.792)" />
      <path
         id="path34"
         d="m 0,0 c 0,1.213 0,1.369 -0.84,1.929 l -0.279,0.185 c -0.124,0.125 -0.124,0.468 0.032,0.56 0.715,0.249 2.362,1.057 3.139,1.524 0.156,-0.031 0.25,-0.095 0.25,-0.217 V 2.178 c 0,-0.156 0.03,-0.249 0.093,-0.281 1.087,0.902 2.269,1.866 3.419,1.866 0.777,0 1.399,-0.498 1.399,-1.245 0,-1.025 -0.84,-1.429 -1.337,-1.429 -0.31,0 -0.466,0.093 -0.684,0.217 C 4.726,1.618 4.259,1.804 3.824,1.804 3.327,1.804 2.953,1.524 2.705,1.182 2.395,0.748 2.302,-0.155 2.302,-1.212 v -4.227 c 0,-2.238 0.061,-2.611 1.242,-2.705 l 1.12,-0.093 c 0.217,-0.156 0.154,-0.685 -0.062,-0.778 -1.462,0.063 -2.364,0.093 -3.451,0.093 -1.119,0 -2.052,-0.03 -2.86,-0.093 -0.217,0.093 -0.28,0.622 -0.062,0.778 l 0.59,0.093 C -0.031,-7.958 0,-7.677 0,-5.439 V 0"
         style="fill:#ed1c24;fill-opacity:1;fill-rule:nonzero;stroke:none"
         transform="matrix(1.3333333,0,0,-1.3333333,283.94533,92.088)" />
      <path
         id="path35"
         d="m 0,0 c -2.052,0 -3.575,-1.958 -3.575,-5.377 0,-2.83 1.275,-5.876 4.01,-5.876 2.736,0 3.576,2.86 3.576,5.255 C 4.011,-3.356 2.953,0 0,0 m 6.685,-5.5 c 0,-3.887 -2.674,-6.686 -6.561,-6.686 -3.575,0 -6.373,2.519 -6.373,6.405 0,3.917 2.953,6.715 6.623,6.715 3.481,0 6.311,-2.612 6.311,-6.434"
         style="fill:#ed1c24;fill-opacity:1;fill-rule:nonzero;stroke:none"
         transform="matrix(1.3333333,0,0,-1.3333333,303.184,88.316)" />
      <path
         id="path36"
         d="m 0,0 c 0.28,-0.685 0.496,-1.68 0.496,-2.519 -0.125,-0.218 -0.589,-0.28 -0.744,-0.093 -0.53,1.368 -1.463,2.268 -2.737,2.268 -1.211,0 -1.99,-0.777 -1.99,-1.894 0,-1.276 1.307,-1.96 2.395,-2.581 1.647,-0.933 3.17,-1.989 3.17,-4.197 0,-2.364 -2.176,-3.544 -4.476,-3.544 -1.461,0 -2.549,0.31 -3.327,0.933 -0.247,0.59 -0.435,2.114 -0.373,3.139 0.155,0.186 0.56,0.218 0.715,0.031 0.53,-1.71 1.524,-3.201 3.296,-3.201 1.12,0 2.082,0.652 2.082,1.989 0,1.431 -1.244,2.207 -2.393,2.861 -1.804,1.025 -3.078,2.114 -3.078,3.822 0,2.269 1.865,3.545 4.227,3.545 C -1.43,0.559 -0.281,0.248 0,0"
         style="fill:#ed1c24;fill-opacity:1;fill-rule:nonzero;stroke:none"
         transform="matrix(1.3333333,0,0,-1.3333333,324.904,87.816)" />
      <path
         id="path37"
         d="m 0,0 c 0.28,-0.685 0.498,-1.68 0.498,-2.519 -0.125,-0.218 -0.589,-0.28 -0.746,-0.093 -0.529,1.368 -1.463,2.268 -2.736,2.268 -1.211,0 -1.99,-0.777 -1.99,-1.894 0,-1.276 1.306,-1.96 2.394,-2.581 1.649,-0.933 3.17,-1.989 3.17,-4.197 0,-2.364 -2.176,-3.544 -4.474,-3.544 -1.463,0 -2.551,0.31 -3.328,0.933 -0.247,0.59 -0.436,2.114 -0.372,3.139 0.155,0.186 0.559,0.218 0.713,0.031 0.53,-1.71 1.524,-3.201 3.295,-3.201 1.121,0 2.086,0.652 2.086,1.989 0,1.431 -1.246,2.207 -2.394,2.861 -1.805,1.025 -3.078,2.114 -3.078,3.822 0,2.269 1.863,3.545 4.226,3.545 C -1.429,0.559 -0.279,0.248 0,0"
         style="fill:#ed1c24;fill-opacity:1;fill-rule:nonzero;stroke:none"
         transform="matrix(1.3333333,0,0,-1.3333333,338.28933,87.816)" />
      <path
         id="path38"
         d="m 0,0 c -0.375,0.279 -0.562,0.373 -0.717,0.373 -0.185,0 -0.31,-0.218 -0.498,-0.529 -0.185,-0.342 -0.34,-0.372 -0.558,-0.372 -0.186,0 -0.344,0.154 -0.28,0.496 0.123,0.779 0.436,4.727 0.53,5.627 0.029,0.186 0.091,0.186 0.216,0.186 L -0.842,5.75 c 0.125,0 0.188,-0.061 0.188,-0.249 0.031,-0.995 0.092,-2.02 1.119,-3.605 0.934,-1.463 2.642,-2.302 4.351,-2.302 1.868,0 4.229,1.153 4.229,3.949 0,3.202 -2.301,4.384 -4.787,5.254 -0.965,0.343 -3.203,1.12 -4.541,2.518 -1.024,1.026 -1.553,2.487 -1.553,4.539 0,1.554 0.965,3.079 1.928,3.978 1.119,1.058 2.674,1.493 4.351,1.493 1.774,0 3.141,-0.528 3.668,-0.777 0.282,-0.154 0.438,-0.125 0.592,0.032 l 0.403,0.373 c 0.158,0.123 0.251,0.186 0.406,0.186 0.156,0 0.248,-0.249 0.248,-0.53 0,-1.087 0.404,-4.258 0.435,-4.942 0,-0.156 -0.031,-0.217 -0.156,-0.248 L 9.668,15.326 c -0.094,-0.031 -0.156,0 -0.187,0.093 -0.25,0.902 -0.653,2.114 -1.926,3.45 -0.842,0.902 -1.93,1.337 -3.391,1.337 -2.765,0 -3.762,-2.051 -3.762,-3.638 0,-0.869 0.188,-1.896 0.965,-2.703 C 2.268,12.963 4.008,12.278 4.91,12 7.055,11.315 8.797,10.787 9.914,9.418 10.723,8.455 11.283,7.244 11.283,5.191 11.283,1.522 9.045,-1.617 4.941,-1.617 2.766,-1.617 1.242,-0.964 0,0"
         style="fill:#ed1c24;fill-opacity:1;fill-rule:nonzero;stroke:none"
         transform="matrix(1.3333333,0,0,-1.3333333,356.19867,102.448)" />
      <path
         id="path39"
         d="m 0,0 c -2.05,0 -3.574,-1.958 -3.574,-5.377 0,-2.83 1.276,-5.876 4.012,-5.876 2.734,0 3.574,2.86 3.574,5.255 C 4.012,-3.356 2.954,0 0,0 m 6.686,-5.5 c 0,-3.887 -2.674,-6.686 -6.561,-6.686 -3.574,0 -6.373,2.519 -6.373,6.405 0,3.917 2.955,6.715 6.623,6.715 3.483,0 6.311,-2.612 6.311,-6.434"
         style="fill:#ed1c24;fill-opacity:1;fill-rule:nonzero;stroke:none"
         transform="matrix(1.3333333,0,0,-1.3333333,383.17733,88.316)" />
      <path
         id="path40"
         d="m 0,0 c 0.25,-0.217 0.467,-0.715 0.467,-1.243 0,-0.561 -0.311,-1.15 -0.686,-1.15 -0.154,0 -0.308,0.062 -0.433,0.217 -0.684,0.84 -1.834,1.649 -3.11,1.649 -2.175,0 -4.289,-1.71 -4.289,-5.007 0,-2.424 1.678,-5.315 5.006,-5.315 1.803,0 2.735,0.809 3.449,1.865 0.25,0.063 0.53,-0.155 0.561,-0.434 -1.059,-2.301 -3.389,-3.172 -5.193,-3.172 -1.647,0 -3.17,0.528 -4.258,1.586 -1.088,1.056 -1.803,2.581 -1.803,4.601 0,3.358 2.363,6.932 7.522,6.932 C -2.051,0.529 -0.838,0.374 0,0"
         style="fill:#ed1c24;fill-opacity:1;fill-rule:nonzero;stroke:none"
         transform="matrix(1.3333333,0,0,-1.3333333,408.75333,87.776)" />
      <path
         id="path41"
         d="m 0,0 c 0,-1.087 -0.777,-1.585 -1.617,-1.585 -0.965,0 -1.586,0.685 -1.586,1.524 0,1.025 0.777,1.648 1.68,1.648 C -0.592,1.587 0,0.872 0,0 m -2.549,-10.072 c 0,1.213 0,1.369 -0.841,1.929 l -0.28,0.185 c -0.123,0.125 -0.123,0.468 0.031,0.56 0.717,0.249 2.489,1.058 3.206,1.524 0.152,0 0.277,-0.062 0.308,-0.186 -0.062,-1.089 -0.123,-2.583 -0.123,-3.856 v -5.595 c 0,-2.238 0.061,-2.55 1.18,-2.705 l 0.652,-0.093 c 0.219,-0.155 0.156,-0.685 -0.06,-0.778 -0.934,0.063 -1.836,0.093 -2.922,0.093 -1.119,0 -2.053,-0.03 -2.922,-0.093 -0.219,0.093 -0.281,0.623 -0.065,0.778 l 0.655,0.093 c 1.148,0.155 1.181,0.467 1.181,2.705 v 5.439"
         style="fill:#ed1c24;fill-opacity:1;fill-rule:nonzero;stroke:none"
         transform="matrix(1.3333333,0,0,-1.3333333,417.584,78.658667)" />
      <path
         id="path42"
         d="m 0,0 c 2.301,0 2.983,0.124 3.233,0.31 0.094,0.063 0.187,0.187 0.187,0.591 0,0.871 -0.589,1.958 -2.392,1.958 -1.836,0 -3.422,-1.678 -3.453,-2.704 0,-0.062 0,-0.155 0.216,-0.155 z m -1.927,-0.933 c -0.809,0 -0.84,-0.063 -0.84,-0.841 0,-3.139 1.836,-5.811 5.16,-5.811 1.027,0 1.898,0.309 2.861,1.523 0.309,0.093 0.528,-0.093 0.559,-0.373 -1.025,-2.115 -3.264,-2.892 -4.879,-2.892 -2.023,0 -3.607,0.871 -4.508,2.051 -0.933,1.214 -1.308,2.675 -1.308,4.042 0,3.823 2.521,7.026 6.25,7.026 2.673,0 4.414,-1.833 4.414,-3.699 0,-0.436 -0.061,-0.684 -0.125,-0.809 C 5.563,-0.901 5.129,-0.933 3.823,-0.933 h -5.75"
         style="fill:#ed1c24;fill-opacity:1;fill-rule:nonzero;stroke:none"
         transform="matrix(1.3333333,0,0,-1.3333333,428.732,92.128)" />
      <path
         id="path43"
         d="m 0,0 c -0.527,0 -0.561,-0.093 -0.561,-0.748 v -5.813 c 0,-1.802 0.219,-3.45 2.272,-3.45 0.31,0 0.59,0.062 0.84,0.156 0.279,0.093 0.683,0.435 0.775,0.435 0.25,0 0.375,-0.342 0.313,-0.529 -0.563,-0.653 -1.68,-1.43 -3.266,-1.43 -2.674,0 -3.234,1.493 -3.234,3.358 v 7.119 C -2.861,-0.063 -2.891,0 -3.512,0 h -0.871 c -0.187,0.125 -0.219,0.465 -0.094,0.652 0.903,0.281 1.68,0.684 1.991,0.965 0.404,0.373 0.994,1.211 1.304,1.833 0.157,0.061 0.53,0.061 0.655,-0.156 V 1.896 c 0,-0.56 0.031,-0.591 0.558,-0.591 H 3.48 C 3.855,1.025 3.791,0.186 3.514,0 H 0"
         style="fill:#ed1c24;fill-opacity:1;fill-rule:nonzero;stroke:none"
         transform="matrix(1.3333333,0,0,-1.3333333,444.64933,89.392)" />
      <path
         id="path44"
         d="m 0,0 c 0,0.84 0.561,1.244 1.246,1.244 h 0.59 c 0.496,0 0.807,0.217 1.026,0.56 0.9,1.399 1.523,2.704 1.802,3.451 0.094,0.249 0.311,0.9 0.311,1.336 0,0.622 -0.125,0.995 -0.529,2.144 L 2.022,15.389 C 1.493,16.85 1.274,17.595 0.188,17.813 l -0.778,0.156 c -0.187,0.156 -0.156,0.683 0.094,0.777 0.994,-0.062 1.926,-0.094 2.951,-0.094 0.84,0 1.711,0.032 2.705,0.094 0.25,-0.094 0.282,-0.621 0.063,-0.777 L 4.446,17.813 C 4.012,17.721 3.762,17.627 3.762,17.409 c 0,-0.373 0.715,-2.393 0.902,-2.921 L 5.659,11.627 C 5.846,11.129 6.436,9.482 6.561,9.42 c 0.094,0.062 0.588,1.025 1.15,2.301 l 1.055,2.455 c 0.685,1.617 1.09,2.767 1.09,3.109 0,0.219 -0.188,0.436 -0.746,0.528 l -0.963,0.156 c -0.217,0.156 -0.188,0.683 0.06,0.777 0.996,-0.062 1.928,-0.094 2.735,-0.094 0.779,0 1.494,0.032 2.365,0.094 0.248,-0.125 0.279,-0.591 0.061,-0.777 L 12.84,17.876 C 11.815,17.689 11.254,16.787 10.196,14.58 L 8.457,11.006 C 7.43,8.924 4.883,3.514 3.36,0.126 2.83,-1.056 2.082,-1.3354 1.368,-1.3354 0.467,-1.3354 0,-0.777 0,0"
         style="fill:#ed1c24;fill-opacity:1;fill-rule:nonzero;stroke:none"
         transform="matrix(1.3333333,0,0,-1.3333333,450.90667,112.52267)" />
      <path
         id="path45"
         d="m 0,0 c -2.051,0 -3.574,-1.958 -3.574,-5.377 0,-2.83 1.275,-5.876 4.009,-5.876 2.735,0 3.575,2.86 3.575,5.255 C 4.01,-3.356 2.953,0 0,0 m 6.685,-5.5 c 0,-3.887 -2.675,-6.686 -6.56,-6.686 -3.574,0 -6.373,2.519 -6.373,6.405 0,3.917 2.951,6.715 6.621,6.715 3.484,0 6.312,-2.612 6.312,-6.434"
         style="fill:#ed1c24;fill-opacity:1;fill-rule:nonzero;stroke:none"
         transform="matrix(1.3333333,0,0,-1.3333333,488.212,88.316)" />
      <path
         id="path46"
         d="m 0,0 c -0.528,0 -0.528,-0.063 -0.528,-0.902 v -6.559 c 0,-2.238 0.063,-2.611 1.182,-2.705 l 1.119,-0.093 c 0.219,-0.156 0.156,-0.685 -0.062,-0.778 -1.399,0.063 -2.301,0.093 -3.389,0.093 -1.117,0 -2.051,-0.03 -2.985,-0.093 -0.216,0.093 -0.279,0.622 -0.062,0.778 l 0.717,0.093 c 1.148,0.155 1.179,0.467 1.179,2.705 v 6.559 c 0,0.839 0,0.902 -0.621,0.902 h -1.088 c -0.187,0.125 -0.216,0.404 -0.091,0.59 l 1.334,0.653 c 0.25,0.125 0.466,0.312 0.466,0.622 0,1.803 0.219,3.731 0.963,5.471 0.78,1.772 2.52,3.947 5.598,3.947 1.648,0 3.047,-0.746 3.047,-1.864 C 6.779,8.797 6.187,8.3 5.597,8.3 5.255,8.3 5.068,8.424 4.851,8.673 4.261,9.357 3.39,10.039 2.363,10.039 1.4,10.039 0.623,9.449 0.156,8.332 -0.403,6.902 -0.528,4.632 -0.528,3.077 V 2.176 c 0,-0.84 0,-0.871 0.528,-0.871 H 3.544 C 3.886,0.994 3.671,0.125 3.328,0 H 0"
         style="fill:#ed1c24;fill-opacity:1;fill-rule:nonzero;stroke:none"
         transform="matrix(1.3333333,0,0,-1.3333333,506.28267,89.392)" />
      <path
         id="path47"
         d="m 0,0 c -2.238,2.114 -3.326,5.72 -3.326,8.706 0,2.89 0.931,5.875 3.17,8.238 1.585,1.678 4.382,3.139 7.771,3.139 2.83,0 5.162,-1.057 6.281,-1.709 0.405,-0.25 0.559,-0.219 0.621,0 l 0.25,0.901 c 0.063,0.186 0.123,0.186 0.403,0.186 0.279,0 0.342,-0.061 0.342,-0.498 0,-0.589 0.623,-5.159 0.779,-6.029 0.031,-0.156 0,-0.281 -0.123,-0.311 l -0.469,-0.124 c -0.156,-0.033 -0.219,0 -0.312,0.249 -0.432,1.025 -1.12,2.516 -2.424,3.852 -1.305,1.339 -2.951,2.394 -5.409,2.394 -5.566,0 -7.804,-4.941 -7.771,-9.48 0,-1.804 0.559,-5.315 2.984,-7.99 2.114,-2.363 3.885,-2.611 5.969,-2.611 3.512,0 6.248,1.927 7.678,3.947 0.092,0.156 0.156,0.188 0.25,0.094 L 17.068,2.643 C 17.16,2.581 17.222,2.519 17.129,2.364 15.262,-0.341 12.248,-2.859 7.863,-2.859 4.197,-2.859 1.865,-1.709 0,0"
         style="fill:#ed1c24;fill-opacity:1;fill-rule:nonzero;stroke:none"
         transform="matrix(1.3333333,0,0,-1.3333333,527.38133,100.792)" />
      <path
         id="path48"
         d="m 0,0 c 0,1.834 -0.031,2.021 -0.963,2.581 l -0.31,0.187 c -0.158,0.092 -0.158,0.527 0,0.621 0.777,0.25 2.236,0.715 3.357,1.305 0.125,0 0.248,-0.061 0.313,-0.186 C 2.363,3.577 2.303,2.021 2.303,0.654 v -6.528 c 0,-0.281 0.029,-0.53 0.123,-0.59 1.121,0.869 2.611,1.615 4.195,1.615 2.955,0 4.012,-1.833 4.012,-4.01 v -5.191 c 0,-2.239 0.063,-2.581 1.18,-2.705 l 0.842,-0.094 c 0.216,-0.155 0.154,-0.684 -0.063,-0.777 -1.119,0.063 -2.021,0.093 -3.109,0.093 -1.12,0 -2.053,-0.03 -2.891,-0.093 -0.219,0.093 -0.281,0.622 -0.062,0.777 l 0.621,0.094 c 1.148,0.186 1.181,0.466 1.181,2.705 v 4.444 c 0,1.991 -0.963,3.327 -2.953,3.327 -1.057,0 -1.865,-0.373 -2.426,-0.84 -0.556,-0.466 -0.65,-0.621 -0.65,-1.709 v -5.222 c 0,-2.239 0.06,-2.55 1.18,-2.705 l 0.652,-0.094 c 0.217,-0.125 0.154,-0.684 -0.063,-0.777 -0.933,0.063 -1.834,0.093 -2.921,0.093 -1.12,0 -2.051,-0.03 -3.047,-0.093 -0.217,0.093 -0.28,0.622 -0.061,0.777 l 0.776,0.094 C -0.031,-16.631 0,-16.289 0,-14.05 V 0"
         style="fill:#ed1c24;fill-opacity:1;fill-rule:nonzero;stroke:none"
         transform="matrix(1.3333333,0,0,-1.3333333,555.524,80.606667)" />
      <path
         id="path49"
         d="m 0,0 c 0,-1.087 -0.779,-1.585 -1.617,-1.585 -0.963,0 -1.584,0.685 -1.584,1.524 0,1.025 0.776,1.648 1.678,1.648 C -0.591,1.587 0,0.872 0,0 m -2.55,-10.072 c 0,1.213 0,1.369 -0.838,1.929 l -0.28,0.185 c -0.125,0.125 -0.125,0.468 0.03,0.56 0.716,0.249 2.486,1.058 3.201,1.524 0.158,0 0.283,-0.062 0.312,-0.186 -0.062,-1.089 -0.125,-2.583 -0.125,-3.856 v -5.595 c 0,-2.238 0.063,-2.55 1.182,-2.705 l 0.652,-0.093 c 0.219,-0.155 0.155,-0.685 -0.062,-0.778 -0.934,0.063 -1.834,0.093 -2.922,0.093 -1.119,0 -2.051,-0.03 -2.92,-0.093 -0.219,0.093 -0.281,0.623 -0.064,0.778 l 0.652,0.093 c 1.152,0.155 1.182,0.467 1.182,2.705 v 5.439"
         style="fill:#ed1c24;fill-opacity:1;fill-rule:nonzero;stroke:none"
         transform="matrix(1.3333333,0,0,-1.3333333,580.68533,78.658667)" />
      <path
         id="path50"
         d="m 0,0 c 0,1.213 0,1.369 -0.84,1.929 l -0.279,0.185 c -0.123,0.125 -0.123,0.468 0.031,0.56 0.715,0.249 2.486,1.057 3.109,1.524 0.123,0 0.28,-0.062 0.342,-0.217 C 2.301,3.265 2.301,2.799 2.301,2.518 c 0,-0.185 0.125,-0.34 0.341,-0.34 1.307,0.808 2.766,1.585 4.352,1.585 2.58,0 3.639,-1.772 3.639,-3.854 v -5.348 c 0,-2.238 0.062,-2.55 1.179,-2.705 l 0.684,-0.093 c 0.217,-0.156 0.154,-0.685 -0.063,-0.778 -0.929,0.063 -1.832,0.093 -2.92,0.093 -1.121,0 -2.052,-0.03 -2.892,-0.093 -0.215,0.093 -0.279,0.622 -0.061,0.778 l 0.588,0.093 c 1.153,0.186 1.184,0.467 1.184,2.705 v 4.631 C 8.332,0.965 7.523,2.269 5.408,2.269 4.228,2.269 3.203,1.774 2.767,1.182 2.363,0.653 2.301,0.218 2.301,-0.682 v -4.757 c 0,-2.238 0.062,-2.519 1.179,-2.705 L 4.041,-8.237 C 4.26,-8.393 4.195,-8.922 3.98,-9.015 c -0.84,0.063 -1.742,0.093 -2.83,0.093 -1.119,0 -2.051,-0.03 -2.922,-0.093 -0.217,0.093 -0.279,0.622 -0.064,0.778 l 0.656,0.093 C -0.031,-7.989 0,-7.677 0,-5.439 V 0"
         style="fill:#ed1c24;fill-opacity:1;fill-rule:nonzero;stroke:none"
         transform="matrix(1.3333333,0,0,-1.3333333,587.93867,92.088)" />
      <path
         id="path51"
         d="m 0,0 c -1.117,-0.838 -4.164,-1.461 -4.164,-4.043 0,-1.148 0.682,-1.708 1.615,-1.708 0.901,0 2.549,1.087 2.549,1.927 z m 2.27,-3.14 c 0,-1.772 0.375,-2.332 0.931,-2.332 0.498,0 0.936,0.248 1.09,0.467 0.123,0.155 0.187,0.217 0.312,0.124 l 0.309,-0.248 c 0.096,-0.095 0.154,-0.248 -0.029,-0.56 -0.25,-0.466 -0.842,-1.523 -2.426,-1.523 -1.119,0 -1.928,0.808 -2.207,2.083 H 0.186 c -0.651,-0.778 -1.678,-1.43 -3.077,-1.897 -0.591,-0.186 -1.148,-0.186 -1.834,-0.186 -0.744,0 -1.865,0.622 -1.865,2.58 0,1.429 0.652,2.673 3.108,3.762 1.4,0.622 3.017,1.367 3.513,1.802 v 1.99 c -0.062,0.529 -0.092,1.338 -0.433,1.742 -0.344,0.404 -0.967,0.683 -1.868,0.683 -0.621,0 -1.585,-0.249 -2.019,-0.653 -0.436,-0.405 -0.156,-0.869 -0.156,-1.43 0,-1.088 -0.371,-1.773 -1.649,-1.773 -0.496,0 -0.746,0.281 -0.746,0.996 0,0.995 0.871,2.177 2.147,2.922 1.306,0.776 2.392,1.089 3.793,1.089 1.459,0 2.05,-0.435 2.486,-0.839 C 2.238,5.005 2.27,4.289 2.27,3.451 V -3.14"
         style="fill:#ed1c24;fill-opacity:1;fill-rule:nonzero;stroke:none"
         transform="matrix(1.3333333,0,0,-1.3333333,616.53733,94.864)" />
      <path
         id="path52"
         d="m 0,0 c -1.736,0.466 -5.238,3.099 -6.432,2.574 -3.865,-1.701 -7.097,-3.287 -12.092,-3.604 -3.779,-0.236 -6.308,-0.621 -8.234,-2.571 6.2,0.992 12.389,-1.369 15.952,-3.602 -7.486,-0.522 -15.082,-2.915 -20.839,0.772 -1.974,-2.314 -4.962,-3.615 -6.689,-6.174 4.756,0.51 9.881,3.275 14.922,1.8 -3.714,-1.013 -6.202,-3.604 -8.747,-4.888 -3.017,-1.521 -8.126,-1.896 -10.549,-3.86 -1.206,-2.652 -3.755,-3.963 -4.631,-6.945 4.083,2.448 8.325,6.064 13.893,6.174 -3.669,-1.985 -4.476,-6.798 -8.234,-8.746 -2.16,-1.123 -4.498,-1.206 -6.431,-3.09 -0.973,-2.456 -2.095,-6.76 -0.257,-9.259 0.811,5.791 4.879,8.326 9.519,10.289 -1.776,-2.34 -2.896,-5.336 -3.087,-9.262 -1.672,-2.531 -4.347,-4.057 -5.917,-6.688 1.279,-2.151 0.417,-6.443 2.315,-7.975 -0.474,5.791 3.534,7.099 4.63,11.32 0.51,-3.196 1.589,-5.121 1.544,-8.235 -0.042,-2.999 -2.222,-5.336 -2.058,-7.974 0.099,-1.579 1.143,-2.827 1.544,-4.374 1.067,-0.733 2.276,-1.325 3.345,-2.057 -0.867,3.258 -0.865,9.571 0.257,13.635 0.417,-3.178 3.362,-4.892 4.373,-8.49 0.757,-2.691 0.169,-5.92 1.03,-8.49 0.731,-2.184 3.456,-3.398 5.403,-4.117 -0.356,1.479 -1.477,1.829 -2.059,3.345 -1.251,3.26 -0.678,7.662 -1.801,9.519 5.728,-3.361 8.74,-9.441 11.32,-15.951 1.581,-0.227 3.199,-0.882 4.888,-0.258 -2.452,3.122 -4.95,7.569 -7.203,10.033 5.27,-2.446 11.338,-4.097 12.863,-10.289 3.492,-1.507 3.352,2.385 4.631,4.115 2.557,3.459 8.149,4.627 11.321,6.174 -3.282,-2.55 -4.399,-7.264 -7.719,-9.775 1.54,-0.328 3.35,-0.328 4.888,0 2.818,2.776 2.586,7.309 4.888,10.29 1.945,2.518 4.942,3.836 7.204,5.916 -1.601,-1.752 -1.077,-4.852 -1.544,-7.716 -0.416,-2.561 -2.419,-3.562 -2.572,-5.403 1.451,1.073 3.553,1.392 4.631,3.088 1.529,2.406 0.675,7.023 1.8,10.29 0.524,1.516 1.649,2.95 2.317,4.116 0.721,1.264 1.209,3.069 2.572,3.346 -0.257,-3.975 0.699,-9.985 -0.258,-13.378 2.64,1.74 4.963,3.949 4.889,7.203 -0.055,2.429 -2.445,4.826 -2.316,7.717 0.069,1.521 0.572,2.923 0.774,4.116 0.195,1.18 0.126,2.731 1.284,3.859 -0.082,-1.195 0.513,-1.717 0.516,-2.829 2.458,-1.745 3.341,-5.062 4.115,-8.49 0.32,2.755 2.194,5.505 1.801,7.975 -0.413,2.605 -4.972,4.23 -5.916,7.205 -0.838,2.635 -0.4,4.672 -1.287,6.431 -0.44,0.872 -1.799,0.835 -1.545,2.316 4.933,-2.219 8.273,-5.156 9.778,-10.547 0.956,3.077 0.701,7.08 -1.03,9.777 -2.035,1.856 -4.158,1.535 -6.174,2.572 -3.591,1.843 -5,7.379 -7.717,9.003 5.768,-0.834 9.497,-3.708 13.377,-6.431 -1.22,2.565 -2.413,4.962 -4.373,6.945 -1.686,1.706 -4.018,1.633 -6.69,2.316 -4.81,1.23 -8.992,5.382 -12.606,6.947 5.333,0.705 9.706,-1.555 14.665,-2.058 -1.936,2.351 -4.409,4.166 -6.947,5.917 C 13.351,-9.907 5.663,-7.829 -1.287,-6.688 3.214,-4.694 8.927,-2.754 14.922,-3.087 11.017,-0.334 5.362,-1.438 0,0 M 6.688,9.777 C 8.622,9.125 10.063,7.71 11.833,6.69 c 3.383,-1.947 7.409,-2.907 8.492,-7.204 0.32,-1.272 -0.219,-2.774 0.256,-4.117 0.614,-1.736 2.802,-3.065 4.374,-4.116 -0.406,2.596 -0.044,8.188 -1.801,10.29 4.627,-3.706 9.433,-6.686 9.005,-13.891 -0.2,-3.347 -1.671,-8.358 2.83,-9.776 1.086,3.571 1.458,8.68 1.286,13.377 3.168,-5.04 7.668,-15.816 0.515,-19.81 0.713,-1.688 1.206,-3.597 1.542,-5.66 1.766,0.889 2.164,2.992 3.345,4.631 1.334,1.847 2.992,3.175 3.087,6.432 0.344,-2.3 1.012,-5.213 1.03,-7.205 0.085,-9.54 -9.644,-11.841 -9.519,-21.868 4.205,3.43 7.459,7.808 11.321,11.578 -1.944,-8.971 -3.526,-15.847 -11.577,-18.01 -3.389,-0.908 -6.076,-1.236 -6.691,-5.144 3.862,0.512 9.049,1.925 12.091,4.116 -2.335,-2.443 -2.637,-4.939 -4.629,-7.205 -5.209,-5.923 -16.957,-2.142 -21.868,-8.232 4.847,0.155 12.219,-1.299 15.951,1.03 -1.645,-2.311 -7.131,-5.75 -11.062,-6.688 -8.077,-1.927 -14.575,5.143 -22.384,1.542 6.647,-0.726 11.031,-3.719 17.752,-4.374 -4.23,-1.44 -12.225,-3.373 -16.209,-0.257 -1.466,1.146 -1.273,3.037 -3.087,3.603 -4.381,1.363 -4.899,-2.094 -6.689,-3.603 -4.02,-3.389 -10.811,-1.172 -16.208,-0.258 6.124,1.252 10.611,4.139 17.751,4.373 -4.65,4.426 -13.823,-2.109 -20.323,-1.541 -5.761,0.502 -9.614,4.086 -13.637,6.947 4.423,-1.795 11.653,-0.812 16.465,-1.032 -4.981,6.368 -17.326,2.335 -22.383,8.748 -1.691,2.147 -2.036,4.369 -4.115,6.69 3.068,-2.336 7.859,-2.946 11.834,-4.374 0.222,2.056 -1.804,4.004 -3.344,5.146 -10.368,0.608 -13.263,8.691 -14.665,18.265 3.512,-4.034 7.501,-7.59 10.806,-11.833 1.139,6.985 -4.625,11.487 -7.976,15.692 -1.364,3.972 -0.938,8.899 -0.514,13.636 1.34,-4.491 4.238,-7.424 6.431,-11.063 1.356,0.96 0.433,4.199 1.801,5.147 -6.668,4.874 -2.935,14.455 0.515,20.324 -0.139,-4.527 0.545,-9.046 1.286,-13.378 1.81,0.783 3.727,3.163 3.859,5.402 0.176,2.968 -1.105,5.074 -0.771,7.462 0.781,5.587 5.086,7.285 8.49,11.061 -1.084,-2.53 -0.831,-7.405 -1.801,-10.547 1.907,1.294 3.756,1.873 4.631,3.859 0.493,1.119 -0.033,2.495 0.256,3.861 1.33,6.266 8.83,7.566 13.894,10.804 -3.854,-3.265 -5.16,-9.078 -9.519,-11.835 6.838,0.983 9.372,7.716 18.008,6.947 1.129,-0.1 2.211,-1.049 3.86,-1.029 1.131,0.013 2.014,0.832 3.087,1.029 C 5.07,6.128 8.591,-0.425 15.692,-2.059 11.764,0.959 10.126,6.268 6.688,9.777"
         style="fill:#fddd04;fill-opacity:1;fill-rule:evenodd;stroke:none"
         transform="matrix(1.3333333,0,0,-1.3333333,79.241333,13.037333)"
         clip-path="url(#clipPath53)" />
      <path
         id="path54"
         d="M 0,0 H -16.785 V 16.785 H -33.571 V 0 h -16.785 v -16.785 h 16.785 v -16.786 h 16.786 v 16.786 H 0 L 0,0"
         style="fill:#ed1c24;fill-opacity:1;fill-rule:nonzero;stroke:none"
         transform="matrix(1.3333333,0,0,-1.3333333,104.92267,52.454667)" />
    </g>
  </g>
</svg>
