<?xml version="1.0" encoding="UTF-8" standalone="no"?>
<!-- Created with Inkscape (http://www.inkscape.org/) -->

<svg
   version="1.1"
   id="svg1"
   width="565.98267"
   height="565.98267"
   viewBox="0 0 565.98267 565.98267"
   sodipodi:docname="Kiribati RC.svg"
   inkscape:version="1.3.2 (091e20e, 2023-11-25, custom)"
   xmlns:inkscape="http://www.inkscape.org/namespaces/inkscape"
   xmlns:sodipodi="http://sodipodi.sourceforge.net/DTD/sodipodi-0.dtd"
   xmlns="http://www.w3.org/2000/svg"
   xmlns:svg="http://www.w3.org/2000/svg">
  <defs
     id="defs1">
    <clipPath
       clipPathUnits="userSpaceOnUse"
       id="clipPath49">
      <path
         d="M 0.059998,424.44 H 424.487 V 0 H 0.059998 Z"
         transform="translate(-2.0000001,-212.24301)"
         id="path49" />
    </clipPath>
  </defs>
  <sodipodi:namedview
     id="namedview1"
     pagecolor="#ffffff"
     bordercolor="#666666"
     borderopacity="1.0"
     inkscape:showpageshadow="2"
     inkscape:pageopacity="0.0"
     inkscape:pagecheckerboard="0"
     inkscape:deskcolor="#d1d1d1"
     inkscape:export-bgcolor="#ffffffff"
     inkscape:zoom="1.4505745"
     inkscape:cx="282.99133"
     inkscape:cy="282.99133"
     inkscape:window-width="1920"
     inkscape:window-height="1017"
     inkscape:window-x="-8"
     inkscape:window-y="-8"
     inkscape:window-maximized="1"
     inkscape:current-layer="g1">
    <inkscape:page
       x="0"
       y="0"
       inkscape:label="1"
       id="page1"
       width="565.98267"
       height="565.98267"
       margin="0"
       bleed="0"
       inkscape:export-filename="Kiribati RC.png"
       inkscape:export-xdpi="300"
       inkscape:export-ydpi="300" />
  </sodipodi:namedview>
  <g
     id="g1"
     inkscape:groupmode="layer"
     inkscape:label="1">
    <g
       id="group-MC1">
      <path
         id="path2"
         d="M 0,0 4.779,-0.184 2.997,4.085 5.485,4.848 6.6,0.473 10.01,3.413 11.543,1.256 7.793,-1.067 11.683,-3.163 10.288,-5.398 6.7,-2.692 5.862,-7.129 3.331,-6.524 4.84,-2.15 0.083,-2.621 0,0"
         style="fill:#231f20;fill-opacity:1;fill-rule:nonzero;stroke:#231f20;stroke-width:0.3;stroke-linecap:butt;stroke-linejoin:miter;stroke-miterlimit:10;stroke-dasharray:none;stroke-opacity:1"
         transform="matrix(1.3333333,0,0,-1.3333333,26.656,289.468)" />
      <path
         id="path3"
         d="m 0,0 4.734,-0.675 -1.333,4.431 2.553,0.503 0.66,-4.466 3.694,2.574 1.303,-2.302 -3.969,-1.926 3.654,-2.485 -1.617,-2.08 -3.291,3.06 -1.288,-4.326 -2.456,0.86 1.95,4.196 -4.781,0.02 L 0,0"
         style="fill:#231f20;fill-opacity:1;fill-rule:nonzero;stroke:#231f20;stroke-width:0.3;stroke-linecap:butt;stroke-linejoin:miter;stroke-miterlimit:10;stroke-dasharray:none;stroke-opacity:1"
         transform="matrix(1.3333333,0,0,-1.3333333,27.370667,262.62533)" />
      <path
         id="path4"
         d="m 0,0 -1.713,-6.353 -17.849,-2.325 6.442,-8.278 7.97,-2.148 -1.532,-5.684 -31.533,8.501 1.532,5.683 16.563,-4.465 c -0.929,1.026 -1.566,1.76 -1.909,2.199 l -11.41,14.302 1.551,5.752 8.355,-10.282 L 0,0"
         style="fill:#231f20;fill-opacity:1;fill-rule:nonzero;stroke:#231f20;stroke-width:0.3;stroke-linecap:butt;stroke-linejoin:miter;stroke-miterlimit:10;stroke-dasharray:none;stroke-opacity:1"
         transform="matrix(1.3333333,0,0,-1.3333333,84.82,209.78933)" />
      <path
         id="path5"
         d="M 0,0 -2.297,-5.419 -32.366,7.327 -30.069,12.746 0,0"
         style="fill:#231f20;fill-opacity:1;fill-rule:nonzero;stroke:#231f20;stroke-width:0.3;stroke-linecap:butt;stroke-linejoin:miter;stroke-miterlimit:10;stroke-dasharray:none;stroke-opacity:1"
         transform="matrix(1.3333333,0,0,-1.3333333,90.770667,197.36)" />
      <path
         id="path6"
         d="m 0,0 3.778,6.272 c 1.095,1.816 1.528,3.399 1.297,4.749 -0.23,1.348 -1.014,2.426 -2.353,3.233 -1.23,0.74 -2.487,0.902 -3.772,0.484 -1.285,-0.417 -2.401,-1.412 -3.348,-2.982 L -8.423,5.074 Z M 25.634,7.405 22.424,2.076 8.31,4.658 4.038,-2.433 15.534,-9.359 12.497,-14.4 -15.477,2.453 l 7.31,12.132 c 2.032,3.375 4.288,5.396 6.767,6.063 2.478,0.667 4.926,0.272 7.344,-1.185 3.594,-2.165 5.054,-5.335 4.382,-9.511 L 25.634,7.405"
         style="fill:#231f20;fill-opacity:1;fill-rule:nonzero;stroke:none"
         transform="matrix(1.3333333,0,0,-1.3333333,77.661333,169.28667)" />
      <path
         id="path7"
         d="m 0,0 3.778,6.272 c 1.095,1.816 1.528,3.399 1.297,4.749 -0.23,1.348 -1.014,2.426 -2.353,3.233 -1.23,0.74 -2.487,0.902 -3.772,0.484 -1.285,-0.417 -2.401,-1.412 -3.348,-2.982 L -8.423,5.074 Z"
         style="fill:none;stroke:#231f20;stroke-width:0.3;stroke-linecap:butt;stroke-linejoin:miter;stroke-miterlimit:10;stroke-dasharray:none;stroke-opacity:1"
         transform="matrix(1.3333333,0,0,-1.3333333,77.661333,169.28667)" />
      <path
         id="path8"
         d="m 0,0 -3.211,-5.329 -14.114,2.582 -4.272,-7.091 11.497,-6.926 -3.037,-5.041 -27.974,16.853 7.309,12.132 c 2.033,3.375 4.289,5.396 6.767,6.063 2.478,0.667 4.927,0.272 7.345,-1.185 3.593,-2.165 5.054,-5.335 4.381,-9.511 z"
         style="fill:none;stroke:#231f20;stroke-width:0.3;stroke-linecap:butt;stroke-linejoin:miter;stroke-miterlimit:10;stroke-dasharray:none;stroke-opacity:1"
         transform="matrix(1.3333333,0,0,-1.3333333,111.84,159.41333)" />
      <path
         id="path9"
         d="m 0,0 -3.713,-4.567 -25.339,20.603 3.713,4.568 L 0,0"
         style="fill:#231f20;fill-opacity:1;fill-rule:nonzero;stroke:#231f20;stroke-width:0.3;stroke-linecap:butt;stroke-linejoin:miter;stroke-miterlimit:10;stroke-dasharray:none;stroke-opacity:1"
         transform="matrix(1.3333333,0,0,-1.3333333,122.17867,147.344)" />
      <path
         id="path10"
         d="M 0,0 5.552,5.203 C 6.727,6.305 7.366,7.482 7.469,8.738 7.572,9.993 7.133,11.143 6.151,12.191 5.213,13.192 4.097,13.688 2.805,13.68 1.513,13.67 0.296,13.132 -0.844,12.063 L -6.413,6.844 Z m -9.603,10.248 5.237,4.908 c 1.07,1.003 1.617,2.117 1.64,3.341 0.022,1.223 -0.43,2.33 -1.357,3.319 -1.025,1.094 -2.135,1.567 -3.331,1.42 -1.195,-0.148 -2.27,-0.669 -3.224,-1.563 l -5.15,-4.826 z m 8.89,-17.639 -22.333,23.829 9.287,8.704 c 1.572,1.473 3.028,2.532 4.369,3.177 1.341,0.645 2.875,0.803 4.602,0.477 1.728,-0.327 3.246,-1.189 4.555,-2.585 C 1,24.896 1.687,23.393 1.83,21.7 1.972,20.009 1.494,18.396 0.395,16.863 c 1.948,1.28 3.855,1.788 5.72,1.525 1.865,-0.264 3.484,-1.129 4.858,-2.595 1.724,-1.839 2.57,-3.948 2.537,-6.328 C 13.478,7.084 12.211,4.722 9.709,2.377 L -0.713,-7.391"
         style="fill:#231f20;fill-opacity:1;fill-rule:nonzero;stroke:none"
         transform="matrix(1.3333333,0,0,-1.3333333,129.15333,129.928)" />
      <path
         id="path11"
         d="M 0,0 5.552,5.203 C 6.727,6.305 7.366,7.482 7.469,8.738 7.572,9.993 7.133,11.143 6.151,12.191 5.213,13.192 4.097,13.688 2.805,13.68 1.513,13.67 0.296,13.132 -0.844,12.063 L -6.413,6.844 Z"
         style="fill:none;stroke:#231f20;stroke-width:0.3;stroke-linecap:butt;stroke-linejoin:miter;stroke-miterlimit:10;stroke-dasharray:none;stroke-opacity:1"
         transform="matrix(1.3333333,0,0,-1.3333333,129.15333,129.928)" />
      <path
         id="path12"
         d="M 0,0 5.237,4.908 C 6.308,5.911 6.854,7.025 6.877,8.249 6.9,9.472 6.448,10.579 5.52,11.568 4.496,12.662 3.385,13.135 2.19,12.988 0.995,12.84 -0.081,12.319 -1.035,11.425 l -5.15,-4.826 z"
         style="fill:none;stroke:#231f20;stroke-width:0.3;stroke-linecap:butt;stroke-linejoin:miter;stroke-miterlimit:10;stroke-dasharray:none;stroke-opacity:1"
         transform="matrix(1.3333333,0,0,-1.3333333,116.34933,116.264)" />
      <path
         id="path13"
         d="m 0,0 -22.333,23.829 9.288,8.704 c 1.571,1.473 3.027,2.531 4.368,3.177 1.342,0.644 2.876,0.803 4.603,0.477 1.727,-0.328 3.245,-1.189 4.554,-2.585 1.233,-1.316 1.92,-2.819 2.063,-4.511 0.143,-1.692 -0.336,-3.304 -1.435,-4.837 1.949,1.28 3.855,1.788 5.72,1.524 1.865,-0.263 3.484,-1.129 4.858,-2.594 1.724,-1.839 2.57,-3.949 2.537,-6.329 -0.032,-2.38 -1.299,-4.743 -3.801,-7.087 z"
         style="fill:none;stroke:#231f20;stroke-width:0.3;stroke-linecap:butt;stroke-linejoin:miter;stroke-miterlimit:10;stroke-dasharray:none;stroke-opacity:1"
         transform="matrix(1.3333333,0,0,-1.3333333,128.20267,139.78267)" />
      <path
         id="path14"
         d="m 0,0 -11.863,9.708 3.842,-14.84 z m 15.558,-4.873 -5.3,-3.391 -6.388,5.145 -10.581,-6.77 2.034,-7.929 -4.232,-2.708 -8.471,33.351 6.107,3.907 26.831,-21.605"
         style="fill:#231f20;fill-opacity:1;fill-rule:nonzero;stroke:none"
         transform="matrix(1.3333333,0,0,-1.3333333,165.26533,88.804)" />
      <path
         id="path15"
         d="m 0,0 -11.863,9.708 3.842,-14.84 z"
         style="fill:none;stroke:#231f20;stroke-width:0.3;stroke-linecap:butt;stroke-linejoin:miter;stroke-miterlimit:10;stroke-dasharray:none;stroke-opacity:1"
         transform="matrix(1.3333333,0,0,-1.3333333,165.26533,88.804)" />
      <path
         id="path16"
         d="m 0,0 -5.3,-3.391 -6.388,5.145 -10.581,-6.77 2.034,-7.929 -4.232,-2.708 -8.471,33.351 6.107,3.907 z"
         style="fill:none;stroke:#231f20;stroke-width:0.3;stroke-linecap:butt;stroke-linejoin:miter;stroke-miterlimit:10;stroke-dasharray:none;stroke-opacity:1"
         transform="matrix(1.3333333,0,0,-1.3333333,186.00933,95.301333)" />
      <path
         id="path17"
         d="m 0,0 -5.773,-2.564 -11.206,25.234 -7.938,-3.525 -2.049,4.614 21.648,9.614 2.049,-4.614 -7.938,-3.526 L 0,0"
         style="fill:#231f20;fill-opacity:1;fill-rule:nonzero;stroke:#231f20;stroke-width:0.3;stroke-linecap:butt;stroke-linejoin:miter;stroke-miterlimit:10;stroke-dasharray:none;stroke-opacity:1"
         transform="matrix(1.3333333,0,0,-1.3333333,201.55733,88.946667)" />
      <path
         id="path18"
         d="M 0,0 -5.624,-1.736 -15.257,29.47 -9.633,31.205 0,0"
         style="fill:#231f20;fill-opacity:1;fill-rule:nonzero;stroke:#231f20;stroke-width:0.3;stroke-linecap:butt;stroke-linejoin:miter;stroke-miterlimit:10;stroke-dasharray:none;stroke-opacity:1"
         transform="matrix(1.3333333,0,0,-1.3333333,224.61333,80.817333)" />
      <path
         id="path19"
         d="m 0,0 7.3,0.558 c 2.115,0.162 3.655,0.727 4.621,1.697 0.966,0.97 1.389,2.233 1.27,3.793 -0.11,1.43 -0.707,2.549 -1.792,3.354 -1.086,0.805 -2.543,1.137 -4.372,0.997 L -0.75,9.805 Z M 20.897,-16.591 14.695,-17.065 8.614,-4.068 0.359,-4.7 l 1.024,-13.383 -5.869,-0.449 -2.49,32.563 14.123,1.08 c 3.928,0.301 6.882,-0.365 8.863,-1.997 1.981,-1.633 3.078,-3.856 3.295,-6.671 0.318,-4.183 -1.417,-7.211 -5.209,-9.085 l 6.801,-13.949"
         style="fill:#231f20;fill-opacity:1;fill-rule:nonzero;stroke:none"
         transform="matrix(1.3333333,0,0,-1.3333333,256.53733,49.797333)" />
      <path
         id="path20"
         d="m 0,0 7.3,0.558 c 2.115,0.162 3.655,0.727 4.621,1.697 0.966,0.97 1.389,2.233 1.27,3.793 -0.11,1.43 -0.707,2.549 -1.792,3.354 -1.086,0.805 -2.543,1.137 -4.372,0.997 L -0.75,9.805 Z"
         style="fill:none;stroke:#231f20;stroke-width:0.3;stroke-linecap:butt;stroke-linejoin:miter;stroke-miterlimit:10;stroke-dasharray:none;stroke-opacity:1"
         transform="matrix(1.3333333,0,0,-1.3333333,256.53733,49.797333)" />
      <path
         id="path21"
         d="m 0,0 -6.202,-0.475 -6.081,12.997 -8.255,-0.631 1.024,-13.383 -5.869,-0.449 -2.49,32.563 14.123,1.08 c 3.928,0.301 6.882,-0.365 8.863,-1.997 1.981,-1.633 3.078,-3.856 3.295,-6.671 0.318,-4.183 -1.417,-7.211 -5.209,-9.085 z"
         style="fill:none;stroke:#231f20;stroke-width:0.3;stroke-linecap:butt;stroke-linejoin:miter;stroke-miterlimit:10;stroke-dasharray:none;stroke-opacity:1"
         transform="matrix(1.3333333,0,0,-1.3333333,284.4,71.918667)" />
      <path
         id="path22"
         d="M 0,0 -21.112,2.152 -17.8,34.643 3.099,32.512 2.606,27.68 -12.437,29.214 -13.335,20.407 -1.243,19.174 -1.724,14.461 -13.816,15.694 -14.742,6.601 0.515,5.046 0,0"
         style="fill:#231f20;fill-opacity:1;fill-rule:nonzero;stroke:#231f20;stroke-width:0.3;stroke-linecap:butt;stroke-linejoin:miter;stroke-miterlimit:10;stroke-dasharray:none;stroke-opacity:1"
         transform="matrix(1.3333333,0,0,-1.3333333,320.06133,75.324)" />
      <path
         id="path23"
         d="m 0,0 4.709,-1.375 c 2.526,-0.737 4.946,-0.414 7.262,0.97 2.315,1.384 4.02,3.952 5.116,7.704 0.893,3.061 0.881,5.878 -0.038,8.448 -0.92,2.569 -2.643,4.224 -5.169,4.961 l -5.374,1.569 z m -7.158,-2.92 9.154,31.35 11.552,-3.373 c 4.272,-1.248 7.259,-3.762 8.965,-7.541 1.704,-3.78 1.908,-7.889 0.612,-12.33 C 21.828,0.746 19.412,-2.578 15.876,-4.785 12.34,-6.993 8.092,-7.373 3.131,-5.925 L -7.158,-2.92"
         style="fill:#231f20;fill-opacity:1;fill-rule:nonzero;stroke:none"
         transform="matrix(1.3333333,0,0,-1.3333333,335.45067,72.445333)" />
      <path
         id="path24"
         d="m 0,0 4.709,-1.375 c 2.526,-0.737 4.946,-0.414 7.262,0.97 2.315,1.384 4.02,3.952 5.116,7.704 0.893,3.061 0.881,5.878 -0.038,8.448 -0.92,2.569 -2.643,4.224 -5.169,4.961 l -5.374,1.569 z"
         style="fill:none;stroke:#231f20;stroke-width:0.3;stroke-linecap:butt;stroke-linejoin:miter;stroke-miterlimit:10;stroke-dasharray:none;stroke-opacity:1"
         transform="matrix(1.3333333,0,0,-1.3333333,335.45067,72.445333)" />
      <path
         id="path25"
         d="m 0,0 9.154,31.35 11.552,-3.373 c 4.272,-1.248 7.259,-3.762 8.965,-7.541 1.704,-3.78 1.908,-7.889 0.612,-12.329 C 28.986,3.666 26.57,0.342 23.034,-1.865 19.498,-4.073 15.25,-4.453 10.289,-3.005 Z"
         style="fill:none;stroke:#231f20;stroke-width:0.3;stroke-linecap:butt;stroke-linejoin:miter;stroke-miterlimit:10;stroke-dasharray:none;stroke-opacity:1"
         transform="matrix(1.3333333,0,0,-1.3333333,325.90667,76.338667)" />
      <path
         id="path26"
         d="M 0,0 4.321,-3.383 C 2.3,-5.977 -0.193,-7.599 -3.156,-8.248 c -2.964,-0.649 -5.952,-0.041 -8.961,1.824 -2.536,1.572 -4.198,3.484 -4.988,5.738 -0.789,2.252 -0.934,4.735 -0.435,7.448 0.498,2.712 1.562,5.383 3.193,8.012 2.621,4.231 5.757,7.049 9.406,8.457 3.65,1.406 7.23,1.021 10.742,-1.155 2.752,-1.706 4.518,-3.973 5.297,-6.803 0.781,-2.829 0.428,-5.969 -1.054,-9.422 l -4.94,2.385 c 1.742,4.719 1.157,7.982 -1.758,9.788 -1.872,1.16 -3.866,1.19 -5.982,0.09 -2.117,-1.099 -4.201,-3.302 -6.251,-6.611 -2.084,-3.362 -3.101,-6.245 -3.053,-8.649 0.048,-2.405 0.989,-4.173 2.819,-5.308 1.464,-0.907 3.068,-1.105 4.813,-0.591 C -2.564,-2.531 -1.128,-1.516 0,0"
         style="fill:#231f20;fill-opacity:1;fill-rule:nonzero;stroke:#231f20;stroke-width:0.3;stroke-linecap:butt;stroke-linejoin:miter;stroke-miterlimit:10;stroke-dasharray:none;stroke-opacity:1"
         transform="matrix(1.3333333,0,0,-1.3333333,410.28667,96.597333)" />
      <path
         id="path27"
         d="m 0,0 5.404,-4.939 c 1.566,-1.431 3.033,-2.167 4.401,-2.207 1.368,-0.04 2.579,0.516 3.633,1.67 0.969,1.06 1.375,2.261 1.219,3.603 -0.156,1.343 -0.911,2.632 -2.265,3.869 L 6.635,7.259 Z m 2.211,-26.59 -4.592,4.196 5.312,13.331 -6.111,5.585 -9.055,-9.909 -4.344,3.972 22.033,24.106 10.455,-9.556 c 2.907,-2.657 4.445,-5.267 4.611,-7.828 0.166,-2.562 -0.704,-4.884 -2.609,-6.968 -2.83,-3.097 -6.225,-3.903 -10.187,-2.422 L 2.211,-26.59"
         style="fill:#231f20;fill-opacity:1;fill-rule:nonzero;stroke:none"
         transform="matrix(1.3333333,0,0,-1.3333333,434.99867,104.20267)" />
      <path
         id="path28"
         d="m 0,0 5.404,-4.939 c 1.566,-1.431 3.033,-2.167 4.401,-2.207 1.368,-0.04 2.579,0.516 3.633,1.67 0.969,1.06 1.375,2.261 1.219,3.603 -0.156,1.343 -0.911,2.632 -2.265,3.869 L 6.635,7.259 Z"
         style="fill:none;stroke:#231f20;stroke-width:0.3;stroke-linecap:butt;stroke-linejoin:miter;stroke-miterlimit:10;stroke-dasharray:none;stroke-opacity:1"
         transform="matrix(1.3333333,0,0,-1.3333333,434.99867,104.20267)" />
      <path
         id="path29"
         d="m 0,0 -4.592,4.196 5.312,13.33 -6.111,5.585 -9.055,-9.908 -4.344,3.972 22.033,24.106 10.455,-9.557 c 2.907,-2.657 4.445,-5.266 4.611,-7.828 C 18.475,21.335 17.605,19.012 15.7,16.928 12.87,13.832 9.475,13.025 5.513,14.507 Z"
         style="fill:none;stroke:#231f20;stroke-width:0.3;stroke-linecap:butt;stroke-linejoin:miter;stroke-miterlimit:10;stroke-dasharray:none;stroke-opacity:1"
         transform="matrix(1.3333333,0,0,-1.3333333,437.94667,139.656)" />
      <path
         id="path30"
         d="m 0,0 c 1.264,-1.703 3.037,-2.622 5.321,-2.756 2.283,-0.132 5.277,1.174 8.979,3.92 3.01,2.233 5.009,4.471 5.998,6.713 0.988,2.242 0.721,4.389 -0.799,6.438 C 16.496,18.363 11.734,17.969 5.214,13.132 2.05,10.785 0.033,8.49 -0.835,6.247 -1.704,4.005 -1.425,1.922 0,0 Z m -3.833,-2.783 c -2.585,3.484 -3.29,7.166 -2.116,11.046 1.173,3.879 3.682,7.244 7.525,10.095 3.817,2.832 7.775,4.168 11.874,4.011 4.099,-0.157 7.402,-1.926 9.911,-5.308 2.528,-3.408 3.241,-7.055 2.141,-10.939 -1.101,-3.885 -3.579,-7.258 -7.435,-10.117 -4.049,-3.003 -8.081,-4.4 -12.097,-4.192 -4.018,0.208 -7.286,2.009 -9.803,5.404"
         style="fill:#231f20;fill-opacity:1;fill-rule:nonzero;stroke:none"
         transform="matrix(1.3333333,0,0,-1.3333333,456.50533,154.34667)" />
      <path
         id="path31"
         d="m 0,0 c 1.264,-1.703 3.037,-2.622 5.321,-2.756 2.283,-0.132 5.277,1.174 8.979,3.92 3.01,2.233 5.009,4.471 5.998,6.713 0.988,2.242 0.721,4.389 -0.799,6.438 C 16.496,18.363 11.734,17.969 5.214,13.132 2.05,10.785 0.033,8.49 -0.835,6.247 -1.704,4.005 -1.425,1.922 0,0 Z"
         style="fill:none;stroke:#231f20;stroke-width:0.3;stroke-linecap:butt;stroke-linejoin:miter;stroke-miterlimit:10;stroke-dasharray:none;stroke-opacity:1"
         transform="matrix(1.3333333,0,0,-1.3333333,456.50533,154.34667)" />
      <path
         id="path32"
         d="m 0,0 c -2.585,3.484 -3.29,7.166 -2.116,11.046 1.173,3.879 3.682,7.244 7.525,10.095 3.817,2.832 7.775,4.168 11.874,4.011 4.099,-0.157 7.402,-1.926 9.911,-5.308 2.528,-3.408 3.241,-7.055 2.141,-10.939 C 28.234,5.02 25.756,1.647 21.9,-1.212 17.851,-4.215 13.819,-5.612 9.803,-5.404 5.785,-5.196 2.517,-3.395 0,0 Z"
         style="fill:none;stroke:#231f20;stroke-width:0.3;stroke-linecap:butt;stroke-linejoin:miter;stroke-miterlimit:10;stroke-dasharray:none;stroke-opacity:1"
         transform="matrix(1.3333333,0,0,-1.3333333,451.39467,158.05733)" />
      <path
         id="path33"
         d="M 0,0 3.599,-4.607 C 0.987,-6.64 0.683,-9.715 2.686,-13.832 c 0.914,-1.879 1.991,-3.142 3.228,-3.791 1.237,-0.648 2.409,-0.704 3.514,-0.167 0.802,0.392 1.433,0.983 1.891,1.773 0.458,0.79 0.515,2.033 0.169,3.727 l -1.269,6.328 c -0.434,2.166 -0.554,3.863 -0.363,5.091 0.192,1.229 0.735,2.402 1.627,3.519 0.894,1.118 1.999,1.997 3.32,2.64 2.625,1.277 5.204,1.326 7.738,0.146 2.533,-1.18 4.54,-3.29 6.019,-6.331 1.229,-2.523 1.774,-5.048 1.636,-7.572 -0.138,-2.524 -1.085,-4.55 -2.843,-6.079 l -3.697,4.427 c 1.847,1.856 2.079,4.204 0.697,7.044 -0.802,1.65 -1.759,2.741 -2.87,3.274 -1.11,0.533 -2.196,0.541 -3.258,0.024 -1.677,-0.816 -2.191,-2.751 -1.539,-5.805 l 1.181,-5.598 c 0.712,-3.396 0.577,-5.972 -0.405,-7.727 -0.982,-1.755 -2.369,-3.068 -4.162,-3.94 -2.883,-1.404 -5.682,-1.421 -8.396,-0.054 -2.714,1.366 -4.911,3.778 -6.593,7.235 -1.417,2.912 -2.047,5.758 -1.892,8.539 C -3.427,-4.349 -2.233,-1.972 0,0"
         style="fill:#231f20;fill-opacity:1;fill-rule:nonzero;stroke:#231f20;stroke-width:0.3;stroke-linecap:butt;stroke-linejoin:miter;stroke-miterlimit:10;stroke-dasharray:none;stroke-opacity:1"
         transform="matrix(1.3333333,0,0,-1.3333333,473.61867,169.916)" />
      <path
         id="path34"
         d="m 0,0 2.737,-5.167 c -2.928,-1.545 -3.765,-4.519 -2.514,-8.923 0.572,-2.01 1.411,-3.443 2.516,-4.297 1.105,-0.856 2.248,-1.114 3.43,-0.778 0.859,0.244 1.583,0.714 2.173,1.413 0.588,0.698 0.861,1.911 0.818,3.64 l -0.143,6.451 c -0.047,2.209 0.131,3.902 0.535,5.078 0.403,1.175 1.143,2.235 2.217,3.179 1.076,0.945 2.319,1.616 3.731,2.018 2.807,0.798 5.355,0.394 7.643,-1.21 2.288,-1.605 3.896,-4.033 4.82,-7.286 0.767,-2.7 0.862,-5.282 0.285,-7.742 -0.577,-2.46 -1.864,-4.29 -3.862,-5.488 l -2.866,5.006 c 2.143,1.504 2.783,3.776 1.919,6.814 -0.502,1.764 -1.253,3.005 -2.253,3.724 -1,0.72 -2.068,0.917 -3.203,0.595 -1.796,-0.511 -2.639,-2.325 -2.532,-5.445 l 0.183,-5.719 c 0.107,-3.469 -0.477,-5.982 -1.75,-7.537 -1.275,-1.556 -2.871,-2.607 -4.788,-3.152 -3.084,-0.877 -5.842,-0.404 -8.275,1.416 -2.434,1.821 -4.175,4.58 -5.225,8.278 -0.886,3.115 -1.009,6.027 -0.37,8.737 C -4.135,-3.684 -2.543,-1.552 0,0"
         style="fill:#231f20;fill-opacity:1;fill-rule:nonzero;stroke:#231f20;stroke-width:0.3;stroke-linecap:butt;stroke-linejoin:miter;stroke-miterlimit:10;stroke-dasharray:none;stroke-opacity:1"
         transform="matrix(1.3333333,0,0,-1.3333333,490.39867,204.75733)" />
      <path
         id="path35"
         d="m 0,0 -4.781,-0.083 2.017,-4.164 -2.442,-0.9 -1.358,4.306 -3.24,-3.127 -1.651,2.068 3.615,2.529 -4.001,1.876 1.268,2.309 L -6.84,2.313 -6.252,6.789 -3.691,6.328 -4.953,1.877 -0.229,2.612 0,0"
         style="fill:#231f20;fill-opacity:1;fill-rule:nonzero;stroke:#231f20;stroke-width:0.3;stroke-linecap:butt;stroke-linejoin:miter;stroke-miterlimit:10;stroke-dasharray:none;stroke-opacity:1"
         transform="matrix(1.3333333,0,0,-1.3333333,538.56267,261.99333)" />
      <path
         id="path36"
         d="m 0,0 -4.764,0.412 1.575,-4.351 -2.521,-0.642 -0.904,4.422 -3.547,-2.774 -1.429,2.227 3.857,2.142 -3.786,2.279 1.5,2.166 3.455,-2.874 1.048,4.392 L -3.017,6.675 -4.733,2.378 0.043,2.622 0,0"
         style="fill:#231f20;fill-opacity:1;fill-rule:nonzero;stroke:#231f20;stroke-width:0.3;stroke-linecap:butt;stroke-linejoin:miter;stroke-miterlimit:10;stroke-dasharray:none;stroke-opacity:1"
         transform="matrix(1.3333333,0,0,-1.3333333,539.34133,288.868)" />
      <path
         id="path37"
         d="m 0,0 5.662,-1.459 c -0.831,-3.204 0.803,-5.826 4.9,-7.868 1.871,-0.932 3.494,-1.279 4.87,-1.037 1.377,0.24 2.338,0.911 2.886,2.009 0.399,0.8 0.538,1.653 0.419,2.559 -0.119,0.905 -0.831,1.925 -2.138,3.057 L 11.735,1.503 C 10.071,2.956 8.94,4.227 8.344,5.318 7.747,6.408 7.462,7.669 7.488,9.099 c 0.027,1.43 0.367,2.802 1.022,4.116 1.302,2.612 3.317,4.223 6.045,4.834 2.727,0.609 5.604,0.16 8.63,-1.348 2.513,-1.252 4.484,-2.921 5.914,-5.006 1.429,-2.084 1.914,-4.267 1.453,-6.552 l -5.63,1.256 c 0.332,2.597 -0.915,4.6 -3.742,6.008 -1.642,0.818 -3.066,1.101 -4.271,0.846 -1.205,-0.255 -2.07,-0.911 -2.597,-1.967 -0.833,-1.671 -0.06,-3.518 2.319,-5.54 l 4.348,-3.718 c 2.635,-2.258 4.099,-4.382 4.391,-6.371 0.291,-1.99 -0.008,-3.877 -0.897,-5.662 -1.43,-2.869 -3.637,-4.589 -6.622,-5.16 -2.985,-0.572 -6.197,10e-4 -9.637,1.715 -2.899,1.444 -5.134,3.315 -6.706,5.614 C -0.065,-5.538 -0.567,-2.926 0,0"
         style="fill:#231f20;fill-opacity:1;fill-rule:nonzero;stroke:#231f20;stroke-width:0.3;stroke-linecap:butt;stroke-linejoin:miter;stroke-miterlimit:10;stroke-dasharray:none;stroke-opacity:1"
         transform="matrix(1.3333333,0,0,-1.3333333,158.448,491.936)" />
      <path
         id="path38"
         d="m 0,0 c 2.034,-0.6 4.004,-0.266 5.907,1.001 1.904,1.268 3.508,4.113 4.813,8.534 1.06,3.595 1.309,6.585 0.75,8.971 -0.561,2.386 -2.065,3.94 -4.513,4.661 -4.834,1.426 -8.4,-1.755 -10.696,-9.542 C -4.855,9.846 -5.083,6.8 -4.427,4.486 -3.771,2.172 -2.295,0.677 0,0 Z m -1.387,-4.53 c -4.161,1.228 -6.94,3.743 -8.338,7.548 -1.396,3.805 -1.419,8.002 -0.065,12.591 1.345,4.559 3.701,8.009 7.069,10.35 3.367,2.341 7.071,2.916 11.11,1.725 4.07,-1.2 6.833,-3.683 8.292,-7.447 1.459,-3.765 1.51,-7.951 0.152,-12.555 C 15.407,2.848 13.027,-0.696 9.694,-2.947 6.361,-5.198 2.668,-5.726 -1.387,-4.53"
         style="fill:#231f20;fill-opacity:1;fill-rule:nonzero;stroke:none"
         transform="matrix(1.3333333,0,0,-1.3333333,212.78667,520.24)" />
      <path
         id="path39"
         d="m 0,0 c 2.034,-0.6 4.004,-0.266 5.907,1.001 1.904,1.268 3.508,4.113 4.813,8.534 1.06,3.595 1.309,6.585 0.75,8.971 -0.561,2.386 -2.065,3.94 -4.513,4.661 -4.834,1.426 -8.4,-1.755 -10.696,-9.542 C -4.855,9.846 -5.083,6.8 -4.427,4.486 -3.771,2.172 -2.295,0.677 0,0 Z"
         style="fill:none;stroke:#231f20;stroke-width:0.3;stroke-linecap:butt;stroke-linejoin:miter;stroke-miterlimit:10;stroke-dasharray:none;stroke-opacity:1"
         transform="matrix(1.3333333,0,0,-1.3333333,212.78667,520.24)" />
      <path
         id="path40"
         d="m 0,0 c -4.161,1.228 -6.94,3.743 -8.338,7.548 -1.396,3.805 -1.419,8.002 -0.065,12.591 1.345,4.559 3.701,8.009 7.069,10.35 3.367,2.341 7.071,2.916 11.11,1.725 4.07,-1.2 6.833,-3.683 8.292,-7.447 1.459,-3.765 1.51,-7.951 0.152,-12.555 C 16.794,7.378 14.414,3.834 11.081,1.583 7.748,-0.668 4.055,-1.196 0,0 Z"
         style="fill:none;stroke:#231f20;stroke-width:0.3;stroke-linecap:butt;stroke-linejoin:miter;stroke-miterlimit:10;stroke-dasharray:none;stroke-opacity:1"
         transform="matrix(1.3333333,0,0,-1.3333333,210.93733,526.28)" />
      <path
         id="path41"
         d="m 0,0 5.356,-1.197 c -0.71,-3.212 -2.263,-5.747 -4.66,-7.607 -2.398,-1.859 -5.357,-2.594 -8.875,-2.203 -2.965,0.33 -5.288,1.342 -6.969,3.037 -1.682,1.695 -2.88,3.875 -3.595,6.538 -0.715,2.663 -0.902,5.533 -0.56,8.608 0.549,4.947 2.17,8.838 4.861,11.677 2.689,2.839 6.088,4.03 10.194,3.573 3.218,-0.357 5.787,-1.645 7.707,-3.865 1.92,-2.22 2.952,-5.207 3.097,-8.962 L 1.071,9.631 c -0.454,5.009 -2.386,7.704 -5.794,8.083 -2.188,0.243 -4.001,-0.587 -5.441,-2.49 -1.439,-1.902 -2.373,-4.788 -2.803,-8.655 -0.437,-3.932 -0.117,-6.973 0.96,-9.122 1.077,-2.15 2.686,-3.344 4.826,-3.582 1.713,-0.191 3.246,0.321 4.6,1.535 1.355,1.214 2.215,2.747 2.581,4.6"
         style="fill:#231f20;fill-opacity:1;fill-rule:nonzero;stroke:none"
         transform="matrix(1.3333333,0,0,-1.3333333,266.59333,520.53867)" />
      <path
         id="path42"
         d="m 0,0 5.356,-1.197 c -0.71,-3.212 -2.263,-5.747 -4.66,-7.607 -2.398,-1.859 -5.357,-2.594 -8.875,-2.203 -2.965,0.33 -5.288,1.342 -6.969,3.037 -1.682,1.695 -2.88,3.875 -3.595,6.538 -0.715,2.663 -0.902,5.533 -0.56,8.608 0.549,4.947 2.17,8.838 4.861,11.677 2.689,2.839 6.088,4.03 10.194,3.573 3.218,-0.357 5.787,-1.645 7.707,-3.865 1.92,-2.22 2.952,-5.207 3.097,-8.962 L 1.071,9.631 c -0.454,5.009 -2.386,7.704 -5.794,8.083 -2.188,0.243 -4.001,-0.587 -5.441,-2.49 -1.439,-1.902 -2.373,-4.788 -2.803,-8.655 -0.437,-3.932 -0.117,-6.973 0.96,-9.122 1.077,-2.15 2.686,-3.344 4.826,-3.582 1.713,-0.191 3.246,0.321 4.6,1.535 1.355,1.214 2.215,2.747 2.581,4.6 z"
         style="fill:none;stroke:#231f20;stroke-width:0.3;stroke-linecap:butt;stroke-linejoin:miter;stroke-miterlimit:10;stroke-dasharray:none;stroke-opacity:1"
         transform="matrix(1.3333333,0,0,-1.3333333,266.59333,520.53867)" />
      <path
         id="path43"
         d="M 0,0 -5.884,-0.095 -6.414,32.56 -0.529,32.655 0,0"
         style="fill:#231f20;fill-opacity:1;fill-rule:nonzero;stroke:#231f20;stroke-width:0.3;stroke-linecap:butt;stroke-linejoin:miter;stroke-miterlimit:10;stroke-dasharray:none;stroke-opacity:1"
         transform="matrix(1.3333333,0,0,-1.3333333,291.00267,535.904)" />
      <path
         id="path44"
         d="m 0,0 -21.028,-2.859 -4.399,32.361 20.816,2.83 0.654,-4.813 -14.984,-2.037 1.193,-8.772 12.043,1.637 0.639,-4.693 L -17.11,12.016 -15.879,2.959 -0.682,5.026 0,0"
         style="fill:#231f20;fill-opacity:1;fill-rule:nonzero;stroke:#231f20;stroke-width:0.3;stroke-linecap:butt;stroke-linejoin:miter;stroke-miterlimit:10;stroke-dasharray:none;stroke-opacity:1"
         transform="matrix(1.3333333,0,0,-1.3333333,332.75467,531.588)" />
      <path
         id="path45"
         d="m 0,0 -6.046,-1.83 -8.001,26.426 -8.312,-2.517 -1.463,4.832 22.67,6.864 L 0.311,28.943 -8.002,26.426 0,0"
         style="fill:#231f20;fill-opacity:1;fill-rule:nonzero;stroke:#231f20;stroke-width:0.3;stroke-linecap:butt;stroke-linejoin:miter;stroke-miterlimit:10;stroke-dasharray:none;stroke-opacity:1"
         transform="matrix(1.3333333,0,0,-1.3333333,360.432,523.956)" />
      <path
         id="path46"
         d="m 0,0 -5.573,-2.82 -6.223,12.295 -18.452,11.817 6.361,3.221 13,-8.517 0.533,15.367 5.038,2.551 L -6.225,12.295 0,0"
         style="fill:#231f20;fill-opacity:1;fill-rule:nonzero;stroke:#231f20;stroke-width:0.3;stroke-linecap:butt;stroke-linejoin:miter;stroke-miterlimit:10;stroke-dasharray:none;stroke-opacity:1"
         transform="matrix(1.3333333,0,0,-1.3333333,401.18533,506.79067)" />
      <path
         id="path47"
         d="m 0,0 c 0,76.076 61.672,137.748 137.748,137.748 76.076,0 137.748,-61.672 137.748,-137.748 0,-76.076 -61.672,-137.748 -137.748,-137.748 C 61.672,-137.748 0,-76.076 0,0 Z"
         style="fill:none;stroke:#231f20;stroke-width:4;stroke-linecap:butt;stroke-linejoin:miter;stroke-miterlimit:10;stroke-dasharray:none;stroke-opacity:1"
         transform="matrix(1.3333333,0,0,-1.3333333,99.328,282.992)" />
      <path
         id="path48"
         d="m 0,0 c 0,116.115 94.129,210.244 210.244,210.244 116.114,0 210.243,-94.129 210.243,-210.244 0,-116.114 -94.129,-210.243 -210.243,-210.243 C 94.129,-210.243 0,-116.114 0,0 Z"
         style="fill:none;stroke:#231f20;stroke-width:4;stroke-linecap:butt;stroke-linejoin:miter;stroke-miterlimit:10;stroke-dasharray:none;stroke-opacity:1"
         transform="matrix(1.3333333,0,0,-1.3333333,2.6666667,282.992)"
         clip-path="url(#clipPath49)" />
      <path
         id="path50"
         d="m 0,0 h -72.493 v 72.494 h -65.85 V 0 h -72.494 v -65.85 h 72.494 v -72.493 h 65.85 V -65.85 H 0 V 0"
         style="fill:#ed1c24;fill-opacity:1;fill-rule:nonzero;stroke:none"
         transform="matrix(1.3333333,0,0,-1.3333333,423.54933,239.092)" />
    </g>
  </g>
</svg>
