<?xml version="1.0" encoding="UTF-8" standalone="no"?>
<!-- Created with Inkscape (http://www.inkscape.org/) -->

<svg
   version="1.1"
   id="svg1"
   width="547.51202"
   height="547.51331"
   viewBox="0 0 547.51202 547.51331"
   sodipodi:docname="Uzbekistan RC.svg"
   inkscape:version="1.3.2 (091e20e, 2023-11-25, custom)"
   xmlns:inkscape="http://www.inkscape.org/namespaces/inkscape"
   xmlns:sodipodi="http://sodipodi.sourceforge.net/DTD/sodipodi-0.dtd"
   xmlns="http://www.w3.org/2000/svg"
   xmlns:svg="http://www.w3.org/2000/svg">
  <defs
     id="defs1">
    <clipPath
       clipPathUnits="userSpaceOnUse"
       id="clipPath34">
      <path
         d="M 0,410.635 H 410.634 V 0.06 L 0,0.06 Z"
         transform="translate(-205.318,-406.63501)"
         id="path34" />
    </clipPath>
  </defs>
  <sodipodi:namedview
     id="namedview1"
     pagecolor="#ffffff"
     bordercolor="#666666"
     borderopacity="1.0"
     inkscape:showpageshadow="2"
     inkscape:pageopacity="0.0"
     inkscape:pagecheckerboard="0"
     inkscape:deskcolor="#d1d1d1"
     inkscape:export-bgcolor="#ffffffff"
     inkscape:zoom="1.4995069"
     inkscape:cx="273.75665"
     inkscape:cy="273.75665"
     inkscape:window-width="1920"
     inkscape:window-height="1017"
     inkscape:window-x="-8"
     inkscape:window-y="-8"
     inkscape:window-maximized="1"
     inkscape:current-layer="g1">
    <inkscape:page
       x="0"
       y="0"
       inkscape:label="1"
       id="page1"
       width="547.51202"
       height="547.51331"
       margin="0"
       bleed="0"
       inkscape:export-filename="Uzbekistan RC.png"
       inkscape:export-xdpi="300"
       inkscape:export-ydpi="300" />
  </sodipodi:namedview>
  <g
     id="g1"
     inkscape:groupmode="layer"
     inkscape:label="1">
    <g
       id="group-MC1">
      <path
         id="path2"
         d="m 0,0 -0.495,-3.133 c -1.169,0.266 -2.321,0.58 -3.454,0.943 -0.456,0.141 -0.744,0.229 -0.865,0.263 0.095,-0.264 0.316,-1.045 0.664,-2.345 0.249,-0.935 0.397,-1.561 0.444,-1.877 l -3.032,-0.548 c -0.184,1.552 -0.241,3 -0.169,4.339 -1.453,-1.101 -2.68,-1.926 -3.679,-2.476 l -1.423,2.59 c 0.708,0.389 2.08,0.972 4.115,1.75 -0.184,0.152 -0.602,0.465 -1.255,0.939 -0.877,0.654 -1.659,1.274 -2.346,1.856 l 2.21,2.218 c 0.834,-0.943 1.757,-2.058 2.768,-3.347 l 1.004,2.826 c 0.206,0.567 0.379,1.022 0.519,1.365 L -2.301,3.944 -4.466,0.197 C -3.093,0.182 -1.604,0.115 0,0"
         style="fill:#231f20;fill-opacity:1;fill-rule:nonzero;stroke:none"
         transform="matrix(1.3333333,0,0,-1.3333333,80.241333,383.77067)" />
      <path
         id="path3"
         d="M 0,0 -0.534,3.921 C -0.879,6.463 -1.203,8.035 -1.504,8.639 -1.805,9.242 -2.242,9.686 -2.816,9.973 -3.39,10.26 -4.071,10.349 -4.858,10.242 -5.741,10.122 -6.422,9.789 -6.901,9.244 -7.38,8.698 -7.633,7.986 -7.659,7.108 -7.66,6.67 -7.515,5.377 -7.222,3.229 l 0.563,-4.135 z m 15.866,-3.236 -26.243,-3.573 -1.518,11.153 c -0.382,2.803 -0.424,4.874 -0.125,6.209 0.298,1.335 0.998,2.466 2.099,3.394 1.102,0.928 2.428,1.498 3.979,1.709 1.969,0.268 3.674,-0.09 5.115,-1.072 1.44,-0.984 2.485,-2.604 3.132,-4.861 0.512,1.236 1.118,2.282 1.816,3.136 0.698,0.855 1.981,2.054 3.85,3.597 L 12.654,20.357 13.517,14.02 8.328,9.412 C 6.472,7.773 5.313,6.668 4.85,6.094 4.388,5.52 4.096,4.939 3.975,4.352 3.855,3.765 3.877,2.862 4.043,1.644 L 4.189,0.57 15.145,2.062 15.866,-3.236"
         style="fill:#231f20;fill-opacity:1;fill-rule:nonzero;stroke:none"
         transform="matrix(1.3333333,0,0,-1.3333333,46.110667,312.15867)" />
      <path
         id="path4"
         d="m 0,0 -26.442,1.507 1.118,19.607 4.473,-0.255 -0.814,-14.268 5.862,-0.334 0.758,13.276 4.455,-0.254 L -11.348,6.004 -4.151,5.592 -3.308,20.365 1.147,20.111 0,0"
         style="fill:#231f20;fill-opacity:1;fill-rule:nonzero;stroke:none"
         transform="matrix(1.3333333,0,0,-1.3333333,63.030667,274.424)" />
      <path
         id="path5"
         d="m 0,0 16.989,-4.37 0.995,3.866 c 0.372,1.446 0.559,2.512 0.561,3.195 0.006,0.894 -0.171,1.682 -0.529,2.365 C 17.657,5.739 16.948,6.404 15.889,7.05 14.83,7.695 13.309,8.272 11.326,8.783 9.343,9.293 7.776,9.51 6.624,9.432 5.473,9.356 4.519,9.079 3.761,8.602 3.004,8.126 2.396,7.43 1.937,6.516 1.588,5.835 1.142,4.438 0.599,2.327 Z m -5.672,-4.063 2.436,9.466 c 0.549,2.135 1.131,3.72 1.745,4.756 0.831,1.391 1.95,2.477 3.357,3.259 1.408,0.782 3.003,1.242 4.786,1.381 1.783,0.137 3.876,-0.103 6.279,-0.721 2.111,-0.543 3.863,-1.274 5.256,-2.191 1.701,-1.123 2.976,-2.426 3.825,-3.914 0.644,-1.123 1.014,-2.511 1.111,-4.166 0.067,-1.236 -0.145,-2.81 -0.637,-4.723 l -2.508,-9.745 -25.65,6.598"
         style="fill:#231f20;fill-opacity:1;fill-rule:nonzero;stroke:none"
         transform="matrix(1.3333333,0,0,-1.3333333,39.850667,220.76667)" />
      <path
         id="path6"
         d="m 0,0 4.139,3.53 c 2.032,-2.205 3.154,-4.463 3.366,-6.774 0.212,-2.311 -0.434,-4.673 -1.938,-7.085 -1.861,-2.983 -4.411,-4.801 -7.648,-5.45 -3.237,-0.649 -6.623,0.128 -10.159,2.334 -3.74,2.333 -6.043,5.11 -6.908,8.333 -0.865,3.222 -0.315,6.406 1.648,9.555 1.714,2.748 3.92,4.474 6.616,5.177 1.597,0.423 3.455,0.33 5.573,-0.282 L -7.04,4.178 c -1.331,0.461 -2.596,0.48 -3.796,0.058 -1.201,-0.422 -2.177,-1.237 -2.929,-2.443 -1.039,-1.666 -1.284,-3.39 -0.736,-5.173 0.549,-1.783 2.162,-3.509 4.839,-5.179 2.842,-1.773 5.184,-2.524 7.027,-2.254 1.843,0.269 3.275,1.222 4.295,2.857 0.752,1.206 1.016,2.483 0.791,3.829 C 2.226,-2.78 1.409,-1.405 0,0"
         style="fill:#231f20;fill-opacity:1;fill-rule:nonzero;stroke:none"
         transform="matrix(1.3333333,0,0,-1.3333333,88.565333,148.628)" />
      <path
         id="path7"
         d="M 0,0 2.719,2.875 C 4.481,4.739 5.503,5.977 5.784,6.591 6.065,7.203 6.138,7.822 6.001,8.449 5.864,9.076 5.506,9.662 4.929,10.209 4.281,10.821 3.595,11.143 2.87,11.174 2.145,11.204 1.432,10.954 0.731,10.424 0.39,10.15 -0.526,9.226 -2.016,7.65 L -4.883,4.618 Z M 7.431,-14.387 -11.812,3.81 -4.08,11.989 c 1.945,2.056 3.531,3.387 4.758,3.992 1.227,0.606 2.547,0.77 3.961,0.495 C 6.052,16.199 7.328,15.524 8.465,14.448 9.91,13.083 10.701,11.53 10.838,9.792 10.977,8.054 10.37,6.225 9.018,4.304 10.302,4.681 11.496,4.865 12.6,4.857 13.703,4.85 15.441,4.602 17.815,4.115 l 5.977,-1.2 -4.395,-4.647 -6.843,1.15 C 10.114,-0.164 8.525,0.045 7.788,0.046 7.051,0.046 6.416,-0.091 5.883,-0.365 5.349,-0.641 4.661,-1.224 3.816,-2.116 l -0.744,-0.788 8.034,-7.597 -3.675,-3.886"
         style="fill:#231f20;fill-opacity:1;fill-rule:nonzero;stroke:none"
         transform="matrix(1.3333333,0,0,-1.3333333,101.23467,120.4)" />
      <path
         id="path8"
         d="M 0,0 -15.385,21.559 0.599,32.967 3.202,29.319 -8.43,21.018 -5.019,16.239 5.804,23.963 8.396,20.331 -2.427,12.607 1.76,6.739 13.804,15.334 16.397,11.702 0,0"
         style="fill:#231f20;fill-opacity:1;fill-rule:nonzero;stroke:none"
         transform="matrix(1.3333333,0,0,-1.3333333,141.23867,109.89733)" />
      <path
         id="path9"
         d="M 0,0 4.516,2.634 C 5.53,1.178 6.643,0.278 7.855,-0.065 c 1.212,-0.345 2.557,-0.177 4.034,0.503 1.565,0.719 2.591,1.592 3.08,2.62 0.489,1.026 0.53,1.983 0.122,2.87 C 14.83,6.496 14.44,6.903 13.922,7.149 13.405,7.396 12.662,7.475 11.695,7.388 11.035,7.323 9.578,7.077 7.322,6.649 4.42,6.097 2.229,6.05 0.745,6.508 c -2.086,0.644 -3.567,1.919 -4.443,3.822 -0.563,1.226 -0.743,2.532 -0.539,3.918 0.204,1.387 0.831,2.66 1.883,3.819 1.05,1.16 2.5,2.164 4.35,3.015 3.02,1.39 5.598,1.773 7.733,1.151 2.135,-0.622 3.75,-2.02 4.843,-4.195 L 9.812,15.59 C 9.035,16.73 8.18,17.414 7.247,17.642 6.314,17.868 5.164,17.668 3.796,17.038 2.384,16.39 1.413,15.591 0.881,14.643 0.537,14.035 0.509,13.419 0.796,12.795 1.058,12.227 1.522,11.85 2.19,11.667 c 0.85,-0.233 2.584,-0.085 5.205,0.444 2.62,0.53 4.633,0.756 6.04,0.681 1.407,-0.075 2.668,-0.483 3.784,-1.223 1.116,-0.739 2.024,-1.87 2.723,-3.39 C 20.576,6.8 20.787,5.332 20.575,3.776 20.362,2.221 19.69,0.827 18.559,-0.402 17.428,-1.632 15.817,-2.728 13.727,-3.688 10.685,-5.088 8.026,-5.459 5.749,-4.803 3.471,-4.146 1.555,-2.546 0,0"
         style="fill:#231f20;fill-opacity:1;fill-rule:nonzero;stroke:none"
         transform="matrix(1.3333333,0,0,-1.3333333,167.83333,78.249333)" />
      <path
         id="path10"
         d="m 0,0 5.426,-0.39 c -0.1,-2.996 -0.885,-5.392 -2.355,-7.187 -1.472,-1.796 -3.589,-3.025 -6.353,-3.688 -3.42,-0.819 -6.511,-0.325 -9.273,1.484 -2.763,1.809 -4.629,4.739 -5.601,8.792 -1.027,4.287 -0.718,7.882 0.927,10.784 1.645,2.902 4.271,4.786 7.879,5.65 3.151,0.756 5.933,0.438 8.347,-0.953 1.435,-0.82 2.693,-2.19 3.772,-4.111 L -2.083,7.917 c -0.625,1.262 -1.513,2.164 -2.665,2.705 -1.151,0.542 -2.418,0.647 -3.8,0.316 -1.909,-0.459 -3.294,-1.515 -4.154,-3.17 -0.861,-1.656 -0.923,-4.017 -0.187,-7.086 0.78,-3.256 1.921,-5.435 3.424,-6.536 1.502,-1.101 3.191,-1.427 5.065,-0.978 1.382,0.331 2.465,1.056 3.25,2.172 C -0.365,-3.543 0.018,-1.989 0,0"
         style="fill:#231f20;fill-opacity:1;fill-rule:nonzero;stroke:none"
         transform="matrix(1.3333333,0,0,-1.3333333,229.65333,54.628)" />
      <path
         id="path11"
         d="m 0,0 -1.079,26.464 19.622,0.8 0.184,-4.477 L 4.447,22.205 4.686,16.338 17.973,16.88 18.155,12.422 4.868,11.88 5.162,4.677 19.946,5.28 20.129,0.821 0,0"
         style="fill:#231f20;fill-opacity:1;fill-rule:nonzero;stroke:none"
         transform="matrix(1.3333333,0,0,-1.3333333,252.17733,64.118667)" />
      <path
         id="path12"
         d="M 0,0 4.005,26.181 9.149,25.394 17.189,6.27 19.863,23.754 24.775,23.003 20.77,-3.178 15.465,-2.366 7.523,16.321 4.911,-0.752 0,0"
         style="fill:#231f20;fill-opacity:1;fill-rule:nonzero;stroke:none"
         transform="matrix(1.3333333,0,0,-1.3333333,291.85067,63.706667)" />
      <path
         id="path13"
         d="m 0,0 7.366,20.735 -7.405,2.631 1.5,4.222 19.833,-7.046 -1.5,-4.222 -7.389,2.625 L 5.039,-1.79 0,0"
         style="fill:#231f20;fill-opacity:1;fill-rule:nonzero;stroke:none"
         transform="matrix(1.3333333,0,0,-1.3333333,340.86133,74.313333)" />
      <path
         id="path14"
         d="M 0,0 4.507,-2.65 C 3.734,-4.247 3.494,-5.658 3.787,-6.884 4.08,-8.109 4.884,-9.199 6.2,-10.155 c 1.392,-1.013 2.656,-1.482 3.792,-1.405 1.133,0.076 1.988,0.508 2.562,1.297 0.368,0.507 0.532,1.046 0.494,1.618 -0.039,0.572 -0.333,1.258 -0.883,2.059 -0.378,0.544 -1.306,1.694 -2.783,3.453 -1.901,2.26 -3.015,4.149 -3.342,5.666 -0.458,2.135 -0.071,4.05 1.161,5.745 0.793,1.091 1.844,1.888 3.153,2.388 1.31,0.5 2.727,0.576 4.252,0.227 1.525,-0.35 3.111,-1.122 4.758,-2.32 2.689,-1.954 4.285,-4.014 4.787,-6.18 0.503,-2.167 0.072,-4.26 -1.289,-6.278 l -4.464,2.954 C 19.012,0.305 19.191,1.386 18.932,2.31 18.674,3.235 17.936,4.14 16.718,5.024 15.461,5.939 14.29,6.396 13.203,6.396 12.504,6.397 11.953,6.12 11.549,5.565 11.181,5.059 11.081,4.469 11.248,3.797 c 0.211,-0.855 1.19,-2.295 2.933,-4.321 1.744,-2.027 2.927,-3.671 3.549,-4.935 0.623,-1.265 0.885,-2.563 0.785,-3.898 -0.099,-1.335 -0.641,-2.68 -1.625,-4.035 -0.892,-1.227 -2.068,-2.128 -3.529,-2.705 -1.461,-0.576 -3.005,-0.671 -4.631,-0.287 -1.625,0.386 -3.369,1.254 -5.23,2.607 -2.709,1.968 -4.334,4.106 -4.876,6.413 C -1.918,-5.057 -1.459,-2.603 0,0"
         style="fill:#231f20;fill-opacity:1;fill-rule:nonzero;stroke:none"
         transform="matrix(1.3333333,0,0,-1.3333333,392.16933,85.568)" />
      <path
         id="path15"
         d="m 0,0 c -2.209,-2.028 -3.415,-4.075 -3.618,-6.143 -0.204,-2.067 0.416,-3.885 1.857,-5.456 1.441,-1.57 3.19,-2.34 5.246,-2.308 2.056,0.032 4.215,1.086 6.478,3.163 2.235,2.053 3.453,4.075 3.653,6.065 0.2,1.991 -0.445,3.797 -1.936,5.421 C 10.189,2.365 8.431,3.163 6.406,3.135 4.38,3.106 2.245,2.061 0,0 Z M -3.86,3.938 C -1.872,5.762 0.068,6.996 1.963,7.64 3.363,8.108 4.811,8.321 6.305,8.279 7.8,8.236 9.157,7.934 10.378,7.37 c 1.63,-0.743 3.175,-1.909 4.633,-3.497 2.638,-2.874 3.859,-5.993 3.66,-9.356 -0.2,-3.363 -1.887,-6.502 -5.063,-9.418 -3.149,-2.892 -6.4,-4.298 -9.751,-4.219 -3.351,0.079 -6.342,1.552 -8.972,4.417 -2.665,2.901 -3.897,6.02 -3.7,9.357 0.199,3.338 1.85,6.432 4.955,9.284"
         style="fill:#231f20;fill-opacity:1;fill-rule:nonzero;stroke:none"
         transform="matrix(1.3333333,0,0,-1.3333333,435.20667,112.44533)" />
      <path
         id="path16"
         d="m 0,0 1.239,-5.296 c -2.89,-0.796 -5.412,-0.759 -7.562,0.112 -2.152,0.871 -3.954,2.528 -5.408,4.971 -1.799,3.021 -2.245,6.12 -1.339,9.295 0.906,3.175 3.15,5.828 6.73,7.959 3.788,2.255 7.313,3.028 10.573,2.32 3.26,-0.709 5.838,-2.656 7.736,-5.845 1.657,-2.783 2.181,-5.535 1.57,-8.253 C 13.183,3.649 12.247,2.042 10.735,0.439 L 6.94,4.342 C 7.959,5.313 8.557,6.428 8.732,7.689 8.906,8.95 8.63,10.19 7.904,11.412 6.899,13.098 5.479,14.107 3.643,14.436 1.806,14.766 -0.468,14.124 -3.179,12.51 -6.056,10.797 -7.798,9.059 -8.402,7.298 -9.008,5.536 -8.817,3.827 -7.832,2.171 -7.104,0.95 -6.092,0.131 -4.792,-0.287 -3.492,-0.704 -1.894,-0.61 0,0"
         style="fill:#231f20;fill-opacity:1;fill-rule:nonzero;stroke:none"
         transform="matrix(1.3333333,0,0,-1.3333333,470.072,166.876)" />
      <path
         id="path17"
         d="M 0,0 24.556,9.923 26.56,4.965 2.003,-4.958 0,0"
         style="fill:#231f20;fill-opacity:1;fill-rule:nonzero;stroke:none"
         transform="matrix(1.3333333,0,0,-1.3333333,467.552,191.76533)" />
      <path
         id="path18"
         d="m 0,0 25.746,6.214 4.607,-19.09 -4.355,-1.051 -3.353,13.892 -5.708,-1.378 3.119,-12.926 -4.338,-1.047 L 12.599,-2.46 5.591,-4.151 9.063,-18.534 4.725,-19.581 0,0"
         style="fill:#231f20;fill-opacity:1;fill-rule:nonzero;stroke:none"
         transform="matrix(1.3333333,0,0,-1.3333333,475.21733,211.72)" />
      <path
         id="path19"
         d="m 0,0 21.972,1.196 -0.427,7.847 4.473,0.244 1.145,-21.017 -4.474,-0.243 -0.426,7.829 L 0.291,-5.34 0,0"
         style="fill:#231f20;fill-opacity:1;fill-rule:nonzero;stroke:none"
         transform="matrix(1.3333333,0,0,-1.3333333,483.59067,258.604)" />
      <path
         id="path20"
         d="M 0,0 11.058,-1.401 27.495,6.296 26.707,0.077 15.528,-4.79 25.155,-12.165 24.381,-18.276 10.352,-6.683 -0.67,-5.287 0,0"
         style="fill:#231f20;fill-opacity:1;fill-rule:nonzero;stroke:none"
         transform="matrix(1.3333333,0,0,-1.3333333,482.86933,296.916)" />
      <path
         id="path21"
         d="m 0,0 2.89,1.308 c 0.42,-1.124 0.789,-2.259 1.109,-3.404 0.134,-0.459 0.218,-0.748 0.255,-0.868 0.169,0.223 0.7,0.838 1.595,1.842 0.645,0.723 1.087,1.191 1.324,1.403 L 9.298,-1.952 C 8.101,-2.959 6.923,-3.801 5.764,-4.477 7.483,-5.086 8.846,-5.657 9.854,-6.19 L 8.472,-8.802 C 7.758,-8.425 6.517,-7.598 4.749,-6.325 4.724,-6.561 4.692,-7.084 4.654,-7.889 4.589,-8.982 4.501,-9.975 4.392,-10.869 l -3.067,0.628 c 0.33,1.215 0.754,2.599 1.276,4.15 L -0.312,-6.802 C -0.9,-6.942 -1.375,-7.048 -1.738,-7.119 l -0.294,3.029 4.32,0.249 C 1.548,-2.684 0.785,-1.404 0,0"
         style="fill:#231f20;fill-opacity:1;fill-rule:nonzero;stroke:none"
         transform="matrix(1.3333333,0,0,-1.3333333,472.176,374.68133)" />
      <path
         id="path22"
         d="M 0,0 4.158,-3.363 -4.86,-14.518 c -1.431,-1.77 -2.308,-2.959 -2.628,-3.566 -0.504,-0.988 -0.627,-2.007 -0.37,-3.059 0.256,-1.052 0.966,-2.047 2.128,-2.986 1.179,-0.954 2.264,-1.432 3.253,-1.435 0.99,-0.002 1.829,0.299 2.519,0.903 0.689,0.604 1.693,1.721 3.011,3.351 l 9.212,11.394 4.159,-3.363 -8.746,-10.817 c -1.999,-2.473 -3.525,-4.129 -4.575,-4.968 -1.049,-0.84 -2.161,-1.366 -3.332,-1.58 -1.172,-0.214 -2.433,-0.121 -3.782,0.28 -1.347,0.402 -2.837,1.261 -4.467,2.578 -1.966,1.59 -3.275,3.024 -3.923,4.299 -0.65,1.276 -0.976,2.516 -0.979,3.718 -0.003,1.203 0.223,2.278 0.68,3.227 0.682,1.399 1.955,3.251 3.817,5.555 L 0,0"
         style="fill:#231f20;fill-opacity:1;fill-rule:nonzero;stroke:none"
         transform="matrix(1.3333333,0,0,-1.3333333,130.08533,428.976)" />
      <path
         id="path23"
         d="m 0,0 2.394,4.188 20.603,8.014 -10.713,6.123 2.223,3.89 16.83,-9.618 L 29.276,8.989 7.815,0.674 20.897,-6.802 18.682,-10.677 0,0"
         style="fill:#231f20;fill-opacity:1;fill-rule:nonzero;stroke:none"
         transform="matrix(1.3333333,0,0,-1.3333333,139.06133,480.55333)" />
      <path
         id="path24"
         d="m 0,0 -2.142,-5.737 3.283,-1.227 c 1.952,-0.728 3.176,-1.153 3.671,-1.273 0.895,-0.219 1.68,-0.175 2.354,0.132 0.674,0.308 1.161,0.863 1.46,1.664 0.287,0.767 0.307,1.469 0.063,2.107 -0.244,0.638 -0.765,1.163 -1.561,1.576 -0.476,0.242 -1.893,0.803 -4.25,1.684 z m -3.684,-9.867 -2.478,-6.635 4.638,-1.731 c 1.805,-0.674 2.97,-1.051 3.492,-1.131 0.796,-0.143 1.526,-0.039 2.19,0.31 0.664,0.351 1.161,0.965 1.489,1.846 0.278,0.744 0.333,1.443 0.166,2.098 -0.167,0.653 -0.548,1.226 -1.142,1.718 -0.594,0.492 -2.031,1.163 -4.31,2.014 z M -3.468,6 6.45,2.297 c 1.964,-0.733 3.397,-1.362 4.301,-1.885 0.903,-0.524 1.639,-1.187 2.207,-1.991 0.568,-0.804 0.944,-1.732 1.13,-2.784 0.185,-1.053 0.078,-2.116 -0.323,-3.188 -0.433,-1.162 -1.144,-2.111 -2.133,-2.848 -0.989,-0.736 -2.11,-1.147 -3.363,-1.232 1.348,-1.005 2.231,-2.188 2.647,-3.553 0.416,-1.364 0.357,-2.762 -0.178,-4.195 -0.422,-1.129 -1.094,-2.128 -2.017,-2.998 -0.923,-0.87 -1.957,-1.455 -3.103,-1.753 -1.147,-0.299 -2.413,-0.272 -3.799,0.078 -0.869,0.221 -2.904,0.917 -6.106,2.086 l -8.445,3.153 L -3.468,6"
         style="fill:#231f20;fill-opacity:1;fill-rule:nonzero;stroke:none"
         transform="matrix(1.3333333,0,0,-1.3333333,191.272,474.55067)" />
      <path
         id="path25"
         d="M 0,0 4.953,26.019 24.245,22.346 23.407,17.944 9.369,20.617 8.271,14.849 21.333,12.362 20.498,7.979 7.436,10.465 6.088,3.384 20.623,0.616 19.788,-3.767 0,0"
         style="fill:#231f20;fill-opacity:1;fill-rule:nonzero;stroke:none"
         transform="matrix(1.3333333,0,0,-1.3333333,214.804,513.34)" />
      <path
         id="path26"
         d="M 0,0 0.56,26.48 5.907,26.367 5.658,14.608 16.708,26.138 23.897,25.986 13.708,15.883 23.878,-0.506 16.96,-0.359 9.944,12.222 5.515,7.889 5.346,-0.113 0,0"
         style="fill:#231f20;fill-opacity:1;fill-rule:nonzero;stroke:none"
         transform="matrix(1.3333333,0,0,-1.3333333,254.324,519.74267)" />
      <path
         id="path27"
         d="M 0,0 -2.55,26.362 2.772,26.878 5.323,0.516 0,0"
         style="fill:#231f20;fill-opacity:1;fill-rule:nonzero;stroke:none"
         transform="matrix(1.3333333,0,0,-1.3333333,294.28,519.27733)" />
      <path
         id="path28"
         d="m 0,0 4.984,1.573 c 0.669,-1.644 1.557,-2.767 2.663,-3.369 1.106,-0.603 2.455,-0.736 4.046,-0.399 1.684,0.358 2.879,0.983 3.582,1.877 0.703,0.894 0.953,1.819 0.751,2.773 -0.13,0.612 -0.42,1.096 -0.87,1.45 C 14.705,4.259 13.998,4.5 13.035,4.628 12.377,4.71 10.902,4.791 8.607,4.871 5.656,4.971 3.506,5.409 2.161,6.182 0.268,7.271 -0.896,8.841 -1.331,10.89 c -0.279,1.32 -0.167,2.633 0.338,3.941 0.504,1.307 1.397,2.411 2.678,3.31 1.28,0.9 2.916,1.56 4.908,1.983 3.252,0.688 5.85,0.495 7.796,-0.582 1.946,-1.078 3.212,-2.798 3.8,-5.16 L 13.005,13.043 C 12.5,14.327 11.816,15.182 10.957,15.61 10.097,16.037 8.93,16.094 7.458,15.782 5.937,15.46 4.814,14.895 4.085,14.089 3.617,13.57 3.455,12.975 3.596,12.304 c 0.13,-0.613 0.5,-1.083 1.112,-1.408 0.776,-0.414 2.502,-0.651 5.174,-0.713 2.672,-0.061 4.686,-0.284 6.041,-0.668 1.356,-0.383 2.496,-1.058 3.422,-2.026 0.926,-0.968 1.562,-2.271 1.908,-3.907 0.315,-1.486 0.198,-2.963 -0.352,-4.434 -0.55,-1.471 -1.513,-2.681 -2.888,-3.632 -1.374,-0.949 -3.186,-1.663 -5.437,-2.14 C 9.3,-7.319 6.625,-7.095 4.548,-5.952 2.472,-4.811 0.956,-2.826 0,0"
         style="fill:#231f20;fill-opacity:1;fill-rule:nonzero;stroke:none"
         transform="matrix(1.3333333,0,0,-1.3333333,308.33067,506.54133)" />
      <path
         id="path29"
         d="M 0,0 -7.839,20.561 -15.182,17.76 -16.778,21.947 2.888,29.446 4.484,25.259 -2.842,22.466 4.997,1.905 0,0"
         style="fill:#231f20;fill-opacity:1;fill-rule:nonzero;stroke:none"
         transform="matrix(1.3333333,0,0,-1.3333333,358.20267,505.26)" />
      <path
         id="path30"
         d="m 0,0 -7.964,6.817 1.648,-10.328 z m 13.697,-4.375 -5.085,-2.827 -4.944,4.135 -9.254,-5.143 1.013,-6.321 -4.958,-2.756 -3.851,28.162 4.943,2.747 22.136,-17.997"
         style="fill:#231f20;fill-opacity:1;fill-rule:nonzero;stroke:none"
         transform="matrix(1.3333333,0,0,-1.3333333,390.416,474.81067)" />
      <path
         id="path31"
         d="m 0,0 -16.694,20.563 4.039,3.279 L 6.91,16.943 -4.239,30.674 -0.381,33.806 16.312,13.244 12.146,9.862 -7.029,16.541 3.857,3.132 0,0"
         style="fill:#231f20;fill-opacity:1;fill-rule:nonzero;stroke:none"
         transform="matrix(1.3333333,0,0,-1.3333333,417.94,474.01333)" />
      <path
         id="path32"
         d="m 0,0 c -74.852,0 -135.749,-60.897 -135.749,-135.748 0,-74.852 60.897,-135.748 135.749,-135.748 74.851,0 135.748,60.896 135.748,135.748 C 135.748,-60.897 74.851,0 0,0 Z m 0,-275.496 c -77.058,0 -139.749,62.69 -139.749,139.748 C -139.749,-58.691 -77.058,4 0,4 77.057,4 139.748,-58.691 139.748,-135.748 139.748,-212.806 77.057,-275.496 0,-275.496"
         style="fill:#231f20;fill-opacity:1;fill-rule:nonzero;stroke:none"
         transform="matrix(1.3333333,0,0,-1.3333333,273.75733,92.758667)" />
      <path
         id="path33"
         d="m 0,0 c -111.007,0 -201.318,-90.311 -201.318,-201.317 0,-111.007 90.311,-201.318 201.318,-201.318 111.006,0 201.316,90.311 201.316,201.318 C 201.316,-90.311 111.006,0 0,0 Z m 0,-406.635 c -113.212,0 -205.318,92.106 -205.318,205.318 C -205.318,-88.105 -113.212,4 0,4 113.212,4 205.316,-88.105 205.316,-201.317 205.316,-314.529 113.212,-406.635 0,-406.635"
         style="fill:#231f20;fill-opacity:1;fill-rule:nonzero;stroke:none"
         transform="matrix(1.3333333,0,0,-1.3333333,273.75733,5.3333333)"
         clip-path="url(#clipPath34)" />
      <path
         id="path35"
         d="m 0,0 c -25.731,0 -49.36,-8.908 -67.997,-23.753 9.859,3.657 20.519,5.659 31.669,5.659 50.158,0 90.807,-40.485 90.807,-90.437 0,-49.949 -40.649,-90.446 -90.807,-90.446 -11.15,0 -21.81,2.011 -31.669,5.676 18.637,-14.847 42.266,-23.75 67.997,-23.75 60.189,0 108.966,48.586 108.966,108.52 C 108.966,-48.599 60.189,0 0,0"
         style="fill:#ed1c24;fill-opacity:1;fill-rule:nonzero;stroke:none"
         transform="matrix(1.3333333,0,0,-1.3333333,270.308,129.05467)" />
    </g>
  </g>
</svg>
