<?xml version="1.0" encoding="utf-8"?>
<!-- Generator: Adobe Illustrator 24.3.0, SVG Export Plug-In . SVG Version: 6.00 Build 0)  -->
<svg version="1.1"
	 id="svg2" xmlns:cc="http://creativecommons.org/ns#" xmlns:dc="http://purl.org/dc/elements/1.1/" xmlns:rdf="http://www.w3.org/1999/02/22-rdf-syntax-ns#" xmlns:svg="http://www.w3.org/2000/svg"
	 xmlns="http://www.w3.org/2000/svg" xmlns:xlink="http://www.w3.org/1999/xlink" x="0px" y="0px" viewBox="0 0 324.8 324.7"
	 style="enable-background:new 0 0 324.8 324.7;" xml:space="preserve">
<style type="text/css">
	.st0{fill:#ED1C24;}
	.st1{fill:none;stroke:#ED1C24;stroke-width:6.6667;stroke-miterlimit:10;}
</style>
<g>
	<path id="path14" class="st0" d="M141,143H98.3v42.7H141v42.7h42.7v-42.7h42.7V143h-42.7v-42.7H141V143"/>
	<path id="path16" class="st1" d="M264.6,162.4c0-56.5-45.8-102.2-102.2-102.2c-56.5,0-102.2,45.8-102.2,102.2
		c0,56.5,45.8,102.2,102.2,102.2C218.8,264.6,264.6,218.8,264.6,162.4L264.6,162.4z"/>
	<path id="path18" class="st1" d="M321.4,162.4c0-87.8-71.2-159-159-159c-87.8,0-159,71.2-159,159c0,87.8,71.2,159,159,159
		C250.2,321.4,321.4,250.2,321.4,162.4z"/>
	<path id="path20" d="M41.5,107.5c-2.8-0.7-5.8,1.1-6.9,4c-2.1,5.2,1.6,9,6.3,10.8c4.4,1.7,9.7,1.5,11.7-3.7
		c1.4-3.6-0.3-6.5-3.6-8.4l2.2-5.7c6.4,3.2,8.8,9.4,6.3,16c-3.2,8.2-11.3,10.7-18.9,7.6c-7.9-3.1-12.1-10.3-8.9-18.6
		c2.3-5.8,7.6-9.4,14.1-7.7L41.5,107.5"/>
	<path id="path22" d="M56.2,88.5l4.2-5.5c1.7-2.2,1.7-4.2-0.6-5.9c-2.2-1.7-4.1-1.2-5.8,1l-4.2,5.5L56.2,88.5z M42.1,85.7l9.3-12.3
		c3.1-4.1,7.9-4.5,11.3-1.9c2.7,2,3.9,4.6,3,7.9l0.1,0c2.5-2,5.4-0.9,7.8,0.7c1.5,1,4.2,3.1,6.1,3.1l-3.8,5c-1.9-0.5-4-2.2-6-3.3
		c-2.7-1.5-4.4-1.3-6.3,1.2l-3.8,5l8.9,6.8l-3.8,5L42.1,85.7"/>
	<path id="path24" d="M91.8,67.5c4.5-3.4,3.4-8.5,0.5-12.3c-3-4-7.6-6.6-12.1-3.2c-4.5,3.4-3.4,8.5-0.4,12.5
		C82.7,68.3,87.3,70.9,91.8,67.5L91.8,67.5z M77.1,47.8c7.1-5.3,15.2-3.1,20.3,3.7c4.9,6.6,4.7,15-2.4,20.3
		c-7.1,5.3-15.2,3.1-20.1-3.5C69.8,61.4,70,53,77.1,47.8"/>
	<path id="path26" d="M100.5,34.3l5.7-2.6l11.9,26l-5.7,2.6L100.5,34.3"/>
	<path id="path28" d="M128.9,38.2l-12.1-11.1l7.1-1.7l7.6,7.6l3.5-10.2l6.7-1.6l-5.7,15.4l13.2,12.2l-7.3,1.7l-8.4-8.2l-3.9,11.1
		l-6.9,1.6L128.9,38.2"/>
	<path id="path30" d="M153.3,35.6l12-0.3l0.1,4.9l-12,0.3L153.3,35.6"/>
	<path id="path32" d="M182.3,34.5l6.7,1.3c2.7,0.5,4.5-0.3,5-3.2c0.5-2.7-0.7-4.2-3.5-4.7l-6.8-1.3L182.3,34.5z M178.6,20.6l15.1,3
		c5,1,7.5,5.1,6.7,9.4c-0.7,3.3-2.5,5.5-5.8,6.1l0,0.1c2.9,1.4,3.1,4.5,2.8,7.4c-0.2,1.8-0.9,5.1-0.1,6.9l-6.2-1.2
		c-0.4-1.9,0.2-4.6,0.3-6.9c0.2-3-0.7-4.5-3.8-5.2l-6.2-1.2l-2.2,11l-6.2-1.2L178.6,20.6"/>
	<path id="path34" d="M216.8,57.4c5,2.6,9.1-0.7,11.3-4.9c2.3-4.4,2.6-9.7-2.4-12.3c-5-2.6-9.1,0.7-11.4,5.1
		C212.1,49.6,211.8,54.8,216.8,57.4L216.8,57.4z M228.1,35.5c7.8,4.1,9.4,12.3,5.5,19.9c-3.8,7.3-11.5,10.8-19.3,6.7
		c-7.8-4.1-9.4-12.3-5.6-19.6C212.6,34.9,220.3,31.5,228.1,35.5"/>
	<path id="path36" d="M257.2,80.9c-5.3,5.6-11.2,5.1-16.8-0.1c-5.5-5.3-6.2-11.1-0.8-16.7l12.3-12.8l4.5,4.3l-12.3,12.8
		c-2.2,2.3-3.7,5,0,8.5c3.2,3.1,5.6,2.7,8.6-0.4L265,63.8l4.5,4.3L257.2,80.9"/>
	<path id="path38" d="M267.6,110.9c-3.6-0.5-5.9-2.4-7.3-4.8c-4.4-7.6-1.3-15.5,5.8-19.6c7.3-4.3,15.6-3.1,20.1,4.6
		c2.9,5,2.6,11.6-2.7,15.5l-3-5.2c2.4-2.2,2.6-5.1,1.1-7.6c-2.8-4.9-8-4.3-12.4-1.8c-4.1,2.4-7.2,6.6-4.4,11.5
		c2,3.5,5.1,4.5,8.7,2.8l-3.2-5.5l4-2.3l6,10.4l-13.4,7.8l-2-3.5L267.6,110.9"/>
	<path id="path40" d="M297.2,116.1l5.5,20.7l-5.1,1.3l-3.9-14.6l-5.9,1.6l3.5,13.4l-4.7,1.2l-3.5-13.4l-6.8,1.8l3.9,14.9l-5.1,1.3
		l-5.5-21L297.2,116.1"/>
	<path id="path42" d="M64.2,226l3.9,4.9l-8.5,6.9l7.3,9l8.5-6.9l3.9,4.9l-22.2,17.9l-3.9-4.9l9.6-7.7l-7.3-9l-9.6,7.7l-3.9-4.9
		L64.2,226"/>
	<path id="path44" d="M79.7,267.8l6,4.4l3.3-10.6l-0.1,0L79.7,267.8z M90.6,254.1l5.2,3.8l-8.4,29.3l-5.2-3.9l2-6.4l-8.6-6.3
		l-5.6,3.8l-5.1-3.8L90.6,254.1"/>
	<path id="path46" d="M108.8,265.7l5.6,2.7l-12.5,25.7l-5.6-2.7L108.8,265.7"/>
	<path id="path48" d="M126,278.6l-8.2-2.3l1.4-5.1l22.5,6.4l-1.4,5.1l-8.2-2.3l-6.4,22.4l-6-1.7L126,278.6"/>
	<path id="path50" d="M147.2,277.8l6.2,0.6l-2.9,28.4l-6.3-0.6L147.2,277.8"/>
	<path id="path52" d="M161,279.2l21.3-1.6l0.4,5.3l-15,1.2l0.5,6.1L182,289l0.4,4.9l-13.8,1.1l0.5,7l15.4-1.2l0.4,5.3l-21.6,1.7
		L161,279.2"/>
	<path id="path54" d="M188.2,276.5l5.9-2l17.4,14.4l0.1,0l-6.1-18.2l5.6-1.9l9.1,27.1l-6,2l-17.4-14.3l-0.1,0l6.1,18.1l-5.6,1.9
		L188.2,276.5"/>
	<path id="path56" d="M217.1,265.8l5.2-3.5l20.6,9.3l0.1,0l-10.7-15.9l4.9-3.3l15.9,23.7l-5.2,3.5l-20.5-9.3l-0.1,0l10.6,15.9
		l-4.9,3.3L217.1,265.8"/>
	<path id="path58" d="M242.2,247.7l14.2-15.9l3.9,3.5l-10.1,11.2l4.6,4.1l9.2-10.3l3.6,3.3l-9.2,10.3l5.2,4.7l10.3-11.5l3.9,3.5
		l-14.5,16.2L242.2,247.7"/>
</g>
</svg>
