<?xml version="1.0" encoding="UTF-8" standalone="no"?>
<svg
   xmlns:dc="http://purl.org/dc/elements/1.1/"
   xmlns:cc="http://creativecommons.org/ns#"
   xmlns:rdf="http://www.w3.org/1999/02/22-rdf-syntax-ns#"
   xmlns:svg="http://www.w3.org/2000/svg"
   xmlns="http://www.w3.org/2000/svg"
   viewBox="0 0 324.76001 324.74667"
   height="324.74667"
   width="324.76001"
   xml:space="preserve"
   id="svg2"
   version="1.1"><metadata
     id="metadata8"><rdf:RDF><cc:Work
         rdf:about=""><dc:format>image/svg+xml</dc:format><dc:type
           rdf:resource="http://purl.org/dc/dcmitype/StillImage" /><dc:title></dc:title></cc:Work></rdf:RDF></metadata><defs
     id="defs6" /><g
     transform="matrix(1.3333333,0,0,-1.3333333,0,324.74667)"
     id="g10"><g
       transform="scale(0.1)"
       id="g12"><path
         id="path14"
         style="fill:#ed1c24;fill-opacity:1;fill-rule:nonzero;stroke:none"
         d="M 1057.61,1362.73 H 737.113 v -320.5 H 1057.61 V 721.77 h 320.47 v 320.46 h 320.46 v 320.5 h -320.46 v 320.48 h -320.47 v -320.48" /><path
         id="path16"
         style="fill:none;stroke:#ed1c24;stroke-width:10;stroke-linecap:butt;stroke-linejoin:miter;stroke-miterlimit:4;stroke-dasharray:none;stroke-opacity:1"
         d="m 1984.64,1217.81 c 0,423.5 -343.31,766.82 -766.81,766.82 -423.498,0 -766.814,-343.32 -766.814,-766.82 0,-423.501 343.316,-766.81 766.814,-766.81 423.5,0 766.81,343.309 766.81,766.81 z" /><path
         id="path18"
         style="fill:none;stroke:#ed1c24;stroke-width:50;stroke-linecap:butt;stroke-linejoin:miter;stroke-miterlimit:4;stroke-dasharray:none;stroke-opacity:1"
         d="m 2410.66,1217.81 c 0,658.78 -534.04,1192.83 -1192.83,1192.83 C 559.047,2410.64 25,1876.59 25,1217.81 25,559.031 559.047,25 1217.83,25 c 658.79,0 1192.83,534.031 1192.83,1192.81 z" /><path
         id="path20"
         style="fill:#ed1c24;fill-opacity:1;fill-rule:nonzero;stroke:none"
         d="m 311.098,1629.35 c -20.922,4.99 -43.453,-8.08 -51.996,-29.87 -15.45,-39.37 12.25,-67.32 47.16,-81.01 33.226,-13.04 72.543,-11.38 87.992,27.98 10.516,26.81 -1.996,49.12 -26.934,62.77 l 16.657,42.44 c 47.949,-23.96 66.304,-70.8 47.132,-119.66 -24.211,-61.71 -84.527,-79.94 -142.05,-57.37 -59.2,23.23 -91.032,77.6 -66.817,139.32 17.199,43.84 57.352,70.62 105.508,57.84 l -16.652,-42.44" /><path
         id="path22"
         style="fill:#ed1c24;fill-opacity:1;fill-rule:nonzero;stroke:none"
         d="m 421.254,1771.7 31.23,41.08 c 12.711,16.71 12.45,31.24 -4.746,44.31 -16.472,12.53 -30.543,8.9 -43.25,-7.81 l -31.23,-41.08 z m -105.641,21.16 69.91,91.94 c 23.243,30.57 59.204,33.75 84.997,14.14 20.054,-15.25 28.929,-34.81 22.222,-59.49 l 0.481,-0.36 c 18.754,14.75 40.66,6.39 58.757,-5.49 11.297,-7.45 31.172,-22.94 45.809,-23.52 l -28.508,-37.49 c -14.199,3.63 -30.312,16.64 -45.375,25.07 -19.906,11 -33.051,10.07 -47.398,-8.8 l -28.504,-37.49 66.621,-50.66 -28.508,-37.49 -170.504,129.64" /><path
         id="path24"
         style="fill:#ed1c24;fill-opacity:1;fill-rule:nonzero;stroke:none"
         d="m 688.738,1929.22 c 33.93,25.28 25.168,63.66 3.836,92.3 -22.414,30.07 -56.679,49.44 -90.609,24.16 -33.934,-25.27 -25.168,-63.65 -2.762,-93.73 21.34,-28.64 55.606,-48.01 89.535,-22.73 z m -110.441,148.23 c 53.18,39.62 114.043,23.23 152.055,-27.79 36.933,-49.57 35.234,-112.58 -17.946,-152.2 -53.183,-39.63 -114.047,-23.23 -150.98,26.34 -38.008,51.01 -36.309,114.02 16.871,153.65" /><path
         id="path26"
         style="fill:#ed1c24;fill-opacity:1;fill-rule:nonzero;stroke:none"
         d="m 753.531,2178.09 42.832,19.58 89.012,-194.8 -42.836,-19.57 -89.008,194.79" /><path
         id="path28"
         style="fill:#ed1c24;fill-opacity:1;fill-rule:nonzero;stroke:none"
         d="m 966.781,2149.36 -90.808,83.16 53.093,12.69 56.747,-56.76 26.407,76.63 50.18,11.99 -43.03,-115.45 98.65,-91.46 -54.56,-13.03 -62.73,61.17 -29.167,-83.14 -51.637,-12.35 46.855,126.55" /><path
         id="path30"
         style="fill:#ed1c24;fill-opacity:1;fill-rule:nonzero;stroke:none"
         d="m 1149.68,2168.71 90.3,2.16 0.87,-36.6 -90.29,-2.16 -0.88,36.6" /><path
         id="path32"
         style="fill:#ed1c24;fill-opacity:1;fill-rule:nonzero;stroke:none"
         d="m 1367.03,2176.58 50.62,-10 c 20.61,-4.06 33.54,2.56 37.72,23.75 4.01,20.31 -5.43,31.35 -26.03,35.42 l -50.63,10 z m -27.44,104.2 113.33,-22.38 c 37.67,-7.44 56.34,-38.35 50.06,-70.13 -4.88,-24.73 -18.56,-41.3 -43.67,-46.12 l -0.12,-0.59 c 21.51,-10.36 23.62,-33.72 20.91,-55.2 -1.74,-13.43 -6.91,-38.09 -1,-51.49 l -46.21,9.12 c -2.97,14.35 1.63,34.55 2.58,51.79 1.13,22.72 -5.49,34.12 -28.74,38.71 l -46.22,9.13 -16.21,-82.13 -46.22,9.13 41.51,210.16" /><path
         id="path34"
         style="fill:#ed1c24;fill-opacity:1;fill-rule:nonzero;stroke:none"
         d="m 1625.91,2005.04 c 37.55,-19.49 68.26,5.14 84.7,36.82 17.29,33.28 19.76,72.57 -17.78,92.06 -37.55,19.49 -68.25,-5.13 -85.53,-38.42 -16.45,-31.69 -18.93,-70.96 18.61,-90.46 z m 85.17,164.02 c 58.84,-30.55 70.64,-92.46 41.34,-148.9 -28.48,-54.86 -85.91,-80.82 -144.75,-50.27 -58.85,30.56 -70.65,92.47 -42.18,147.31 29.32,56.45 86.74,82.41 145.59,51.86" /><path
         id="path36"
         style="fill:#ed1c24;fill-opacity:1;fill-rule:nonzero;stroke:none"
         d="m 1929.07,1828.54 c -40.05,-41.82 -84.26,-38.53 -125.65,1.11 -41.6,39.84 -46.57,83.24 -6.31,125.27 l 92.14,96.21 34.02,-32.59 -92.14,-96.2 c -16.18,-16.91 -27.83,-37.73 -0.31,-64.09 24.26,-23.25 42.23,-20.1 64.23,2.87 l 92.14,96.2 34.02,-32.58 -92.14,-96.2" /><path
         id="path38"
         style="fill:#ed1c24;fill-opacity:1;fill-rule:nonzero;stroke:none"
         d="m 2007.14,1603.88 c -26.7,3.57 -44.54,18.18 -54.93,36.08 -33.29,57.33 -10.07,115.9 43.37,146.93 54.99,31.92 117.37,23.05 150.66,-34.28 21.99,-37.87 19.42,-87.22 -20.03,-116.03 l -22.6,38.91 c 17.78,16.57 19.53,38.05 8.39,57.24 -21.23,36.58 -60.34,32.25 -92.78,13.43 -30.87,-17.92 -54.01,-49.75 -32.77,-86.32 15.36,-26.46 38.52,-33.48 65.55,-20.9 l -23.8,40.98 30.35,17.62 45.19,-77.82 -100.13,-58.13 -15.06,25.94 18.59,16.35" /><path
         id="path40"
         style="fill:#ed1c24;fill-opacity:1;fill-rule:nonzero;stroke:none"
         d="m 2229.27,1564.5 40.91,-154.9 -38.29,-10.11 -28.88,109.35 -44.38,-11.71 26.5,-100.37 -35.39,-9.34 -26.49,100.36 -50.77,-13.4 29.49,-111.68 -38.28,-10.11 -41.53,157.21 207.11,54.7" /><path
         id="path42"
         style="fill:#ed1c24;fill-opacity:1;fill-rule:nonzero;stroke:none"
         d="m 481.273,740.25 29.579,-36.66 -63.989,-51.621 54.446,-67.481 63.984,51.621 29.57,-36.668 -166.722,-134.5 -29.578,36.661 71.921,58.007 -54.437,67.493 -71.926,-58.024 -29.57,36.66 166.722,134.512" /><path
         id="path44"
         style="fill:#ed1c24;fill-opacity:1;fill-rule:nonzero;stroke:none"
         d="m 598.086,427.039 44.656,-32.961 24.946,79.274 -0.493,0.347 z m 81.641,103.02 38.859,-28.68 -62.742,-219.859 -39.34,29.031 15.289,47.988 -64.438,47.57 -41.835,-28.398 -38.372,28.32 192.579,124.028" /><path
         id="path46"
         style="fill:#ed1c24;fill-opacity:1;fill-rule:nonzero;stroke:none"
         d="m 815.895,442.512 42.343,-20.602 -93.672,-192.601 -42.355,20.613 93.684,192.59" /><path
         id="path48"
         style="fill:#ed1c24;fill-opacity:1;fill-rule:nonzero;stroke:none"
         d="m 945.211,346.422 -61.738,17.59 10.847,38.09 168.78,-48.09 -10.84,-38.09 -61.74,17.59 -47.844,-167.91 -45.289,12.91 47.824,167.91" /><path
         id="path50"
         style="fill:#ed1c24;fill-opacity:1;fill-rule:nonzero;stroke:none"
         d="m 1103.95,351.91 46.86,-4.82 -21.92,-213.11 -46.88,4.821 21.94,213.109" /><path
         id="path52"
         style="fill:#ed1c24;fill-opacity:1;fill-rule:nonzero;stroke:none"
         d="m 1207.67,341.551 159.7,12.289 3.04,-39.469 -112.75,-8.691 3.52,-45.758 103.48,7.976 2.81,-36.488 -103.48,-7.969 4.03,-52.332 115.14,8.86 3.05,-39.481 -162.1,-12.476 -16.44,213.539" /><path
         id="path54"
         style="fill:#ed1c24;fill-opacity:1;fill-rule:nonzero;stroke:none"
         d="m 1411.37,361.891 44.34,14.918 130.54,-107.649 0.56,0.192 -45.82,136.148 41.79,14.078 68.31,-202.969 -44.63,-15.031 -130.16,107.481 -0.56,-0.2 45.72,-135.879 -41.78,-14.07 -68.31,202.981" /><path
         id="path56"
         style="fill:#ed1c24;fill-opacity:1;fill-rule:nonzero;stroke:none"
         d="m 1628.48,442.031 38.9,26.02 154.2,-69.711 0.5,0.328 -79.91,119.434 36.64,24.519 119.12,-178.019 -39.14,-26.192 -153.79,69.629 -0.5,-0.328 79.75,-119.18 -36.65,-24.519 -119.12,178.019" /><path
         id="path58"
         style="fill:#ed1c24;fill-opacity:1;fill-rule:nonzero;stroke:none"
         d="m 1816.63,577.809 106.8,119.39 29.51,-26.398 -75.41,-84.289 34.22,-30.602 69.2,77.36 27.28,-24.411 -69.21,-77.339 39.13,-35.008 77,86.066 29.51,-26.387 -108.41,-121.179 -159.62,142.797" /></g></g></svg>