<svg id="Layer_1" data-name="Layer 1" xmlns="http://www.w3.org/2000/svg" xmlns:xlink="http://www.w3.org/1999/xlink" viewBox="0 0 82 82"><defs><clipPath id="clip-path"><rect x="2.05" y="3" width="77.9" height="76.01" fill="none"/></clipPath><clipPath id="clip-path-2"><rect x="2.76" y="18.63" width="76.69" height="45.14" fill="none"/></clipPath></defs><title>ifrc-digital-logo</title><g clip-path="url(#clip-path)"><rect x="2.76" y="18.63" width="76.69" height="45.11" rx="3.61" ry="3.61" fill="#fff"/><polygon points="21.57 45.66 11.39 45.66 11.39 36.93 21.57 36.93 21.57 36.92 21.57 26.74 30.3 26.74 30.3 36.92 30.3 36.93 40.49 36.93 40.49 45.66 30.3 45.66 30.3 45.66 30.3 55.85 21.57 55.85 21.57 45.66 21.57 45.66" fill="#e30613"/><path d="M54,41.14A12.29,12.29,0,0,1,70.58,29.62a14.74,14.74,0,1,0,.25,22.93A12.29,12.29,0,0,1,54,41.14" fill="#e30613"/></g><g clip-path="url(#clip-path-2)"><rect x="5.01" y="20.89" width="72.18" height="40.6" rx="3.61" ry="3.61" fill="none" stroke="#e30613" stroke-width="1.27"/></g><g clip-path="url(#clip-path)"><rect x="4.94" y="7.03" width="0.88" height="6.63"/><polygon points="7.53 7.03 8.47 7.03 11.96 12.41 11.98 12.41 11.98 7.03 12.81 7.03 12.81 13.66 11.85 13.66 8.38 8.34 8.37 8.34 8.37 13.66 7.53 13.66 7.53 7.03"/><polygon points="15.98 7.78 13.77 7.78 13.77 7.03 19.07 7.03 19.07 7.78 16.86 7.78 16.86 13.66 15.98 13.66 15.98 7.78"/><polygon points="20.03 7.03 24.61 7.03 24.61 7.77 20.91 7.77 20.91 9.88 24.36 9.88 24.36 10.62 20.91 10.62 20.91 12.92 24.64 12.92 24.64 13.66 20.03 13.66 20.03 7.03"/><path d="M25.93,7h3.12c1.24,0,2,.68,2,1.74a1.59,1.59,0,0,1-1.15,1.68v0c.77.15.93.71,1,1.37a3.4,3.4,0,0,0,.39,1.83h-1c-.25-.27-.11-1-.24-1.63s-.25-1.2-1.1-1.2H26.81v2.83h-.88Zm2.72,3.05c.83,0,1.53-.21,1.53-1.18A1,1,0,0,0,29,7.78H26.81v2.31Z"/><polygon points="32.51 7.03 33.45 7.03 36.94 12.41 36.96 12.41 36.96 7.03 37.79 7.03 37.79 13.66 36.83 13.66 33.37 8.34 33.35 8.34 33.35 13.66 32.51 13.66 32.51 7.03"/><path d="M41.25,7h1l2.59,6.63h-1l-.72-2h-2.8l-.74,2h-.91Zm-.66,3.89h2.25l-1.1-3.09h0Z"/><polygon points="46.35 7.78 44.15 7.78 44.15 7.03 49.45 7.03 49.45 7.78 47.24 7.78 47.24 13.66 46.35 13.66 46.35 7.78"/><rect x="50.45" y="7.03" width="0.88" height="6.63"/><path d="M55.85,6.87A3.18,3.18,0,0,1,59,10.35a3.19,3.19,0,1,1-6.35,0,3.18,3.18,0,0,1,3.17-3.47m0,6.2c1.61,0,2.29-1.39,2.29-2.73s-.68-2.73-2.29-2.73S53.56,9,53.56,10.35s.68,2.73,2.29,2.73"/><polygon points="60.32 7.03 61.26 7.03 64.75 12.41 64.77 12.41 64.77 7.03 65.6 7.03 65.6 13.66 64.64 13.66 61.17 8.34 61.15 8.34 61.15 13.66 60.32 13.66 60.32 7.03"/><path d="M69.06,7h1l2.59,6.63h-1l-.72-2h-2.8l-.74,2h-.91Zm-.66,3.89h2.25l-1.1-3.09h0Z"/><polygon points="73.51 7.03 74.39 7.03 74.39 12.92 77.9 12.92 77.9 13.66 73.51 13.66 73.51 7.03"/><polygon points="12.69 68.72 17.04 68.72 17.04 69.47 13.57 69.47 13.57 71.58 16.61 71.58 16.61 72.32 13.57 72.32 13.57 75.35 12.69 75.35 12.69 68.72"/><polygon points="18.24 68.72 22.82 68.72 22.82 69.47 19.13 69.47 19.13 71.58 22.57 71.58 22.57 72.32 19.13 72.32 19.13 74.61 22.85 74.61 22.85 75.35 18.24 75.35 18.24 68.72"/><path d="M24.15,68.72h2.27c2,0,3.18,1,3.18,3.16s-1,3.47-3.18,3.47H24.15ZM25,74.61h1.47c.6,0,2.23-.17,2.23-2.61,0-1.58-.58-2.53-2.21-2.53H25Z"/><polygon points="30.91 68.72 35.49 68.72 35.49 69.47 31.79 69.47 31.79 71.58 35.24 71.58 35.24 72.32 31.79 72.32 31.79 74.61 35.52 74.61 35.52 75.35 30.91 75.35 30.91 68.72"/><path d="M36.81,68.72h3.12c1.24,0,2,.68,2,1.74a1.59,1.59,0,0,1-1.15,1.68v0c.77.15.93.71,1,1.36a3.38,3.38,0,0,0,.39,1.83h-1c-.25-.27-.11-1-.24-1.63s-.25-1.2-1.1-1.2H37.69v2.83h-.88Zm2.72,3.05c.83,0,1.53-.21,1.53-1.18a1,1,0,0,0-1.18-1.13H37.69v2.31Z"/><path d="M45.2,68.72h1l2.59,6.63h-1l-.72-2h-2.8l-.74,2h-.91Zm-.66,3.89h2.25l-1.1-3.09h0Z"/><polygon points="50.29 69.47 48.08 69.47 48.08 68.72 53.38 68.72 53.38 69.47 51.17 69.47 51.17 75.35 50.29 75.35 50.29 69.47"/><rect x="54.38" y="68.72" width="0.88" height="6.63"/><path d="M59.78,68.57A3.49,3.49,0,1,1,56.61,72a3.18,3.18,0,0,1,3.17-3.47m0,6.2c1.61,0,2.29-1.39,2.29-2.73s-.68-2.73-2.29-2.73S57.49,70.7,57.49,72s.68,2.73,2.29,2.73"/><polygon points="64.26 68.72 65.19 68.72 68.69 74.1 68.7 74.1 68.7 68.72 69.54 68.72 69.54 75.35 68.57 75.35 65.11 70.03 65.09 70.03 65.09 75.35 64.26 75.35 64.26 68.72"/></g></svg>