<?xml version="1.0" encoding="UTF-8" standalone="no"?>
<!-- Created with Inkscape (http://www.inkscape.org/) -->

<svg
   version="1.1"
   id="svg1"
   width="536.19464"
   height="536.51331"
   viewBox="0 0 536.19464 536.51331"
   sodipodi:docname="Jordan RC_logo-AR_EN-CMYK_00.95.100.00.svg"
   inkscape:version="1.3.2 (091e20e, 2023-11-25, custom)"
   xmlns:inkscape="http://www.inkscape.org/namespaces/inkscape"
   xmlns:sodipodi="http://sodipodi.sourceforge.net/DTD/sodipodi-0.dtd"
   xmlns="http://www.w3.org/2000/svg"
   xmlns:svg="http://www.w3.org/2000/svg">
  <defs
     id="defs1">
    <clipPath
       clipPathUnits="userSpaceOnUse"
       id="clipPath3">
      <path
         d="M 0.059998,402.36 H 402.146 V 0 H 0.059998 Z"
         transform="translate(-201.073,-402.14701)"
         id="path3" />
    </clipPath>
  </defs>
  <sodipodi:namedview
     id="namedview1"
     pagecolor="#ffffff"
     bordercolor="#666666"
     borderopacity="1.0"
     inkscape:showpageshadow="2"
     inkscape:pageopacity="0.0"
     inkscape:pagecheckerboard="0"
     inkscape:deskcolor="#d1d1d1"
     inkscape:export-bgcolor="#ffffffff"
     inkscape:zoom="1.530251"
     inkscape:cx="268.25665"
     inkscape:cy="268.25665"
     inkscape:window-width="1920"
     inkscape:window-height="1017"
     inkscape:window-x="-8"
     inkscape:window-y="-8"
     inkscape:window-maximized="1"
     inkscape:current-layer="g1">
    <inkscape:page
       x="0"
       y="0"
       inkscape:label="1"
       id="page1"
       width="536.19464"
       height="536.51331"
       margin="0"
       bleed="0"
       inkscape:export-filename="Jordan RC_logo-AR_EN-CMYK_00.95.100.00.png"
       inkscape:export-xdpi="300"
       inkscape:export-ydpi="300" />
  </sodipodi:namedview>
  <g
     id="g1"
     inkscape:groupmode="layer"
     inkscape:label="1">
    <g
       id="group-MC1">
      <path
         id="path2"
         d="m 0,0 c -27.142,0 -53.476,-5.317 -78.268,-15.803 -23.944,-10.128 -45.448,-24.625 -63.912,-43.09 -18.465,-18.465 -32.962,-39.968 -43.09,-63.912 -10.486,-24.793 -15.803,-51.126 -15.803,-78.268 0,-27.143 5.317,-53.476 15.803,-78.269 10.128,-23.944 24.625,-45.447 43.09,-63.912 18.464,-18.464 39.968,-32.962 63.912,-43.089 24.792,-10.487 51.126,-15.804 78.268,-15.804 27.143,0 53.476,5.317 78.268,15.804 23.945,10.127 45.448,24.625 63.912,43.089 18.465,18.465 32.962,39.968 43.09,63.912 10.486,24.793 15.803,51.126 15.803,78.269 0,27.142 -5.317,53.475 -15.803,78.268 -10.128,23.944 -24.625,45.447 -43.09,63.912 -18.464,18.465 -39.967,32.962 -63.912,43.09 C 53.476,-5.317 27.143,0 0,0 Z m 0,-5 c 108.288,0 196.073,-87.785 196.073,-196.073 0,-108.289 -87.785,-196.074 -196.073,-196.074 -108.288,0 -196.073,87.785 -196.073,196.074 C -196.073,-92.785 -108.288,-5 0,-5"
         style="fill:#231f20;fill-opacity:1;fill-rule:nonzero;stroke:none"
         transform="matrix(1.3333333,0,0,-1.3333333,268.09733,0.31733333)"
         clip-path="url(#clipPath3)" />
      <path
         id="path4"
         d="m 36.455295,-7.9639522 -15.94409,-0.00467 c -2.692971,3.5690066 -4.158206,5.8520482 -4.384532,6.8455881 3.456204,0.35634056 5.269586,0.5320983 5.50308,0.53193417 3.220696,6.7693e-4 5.50526,1.12125625 6.738994,3.34887933 C 26.26594,3.3374033 24.677058,3.7543403 23.623886,4.0385676 20.632517,4.8011448 17.714926,5.0978574 14.830525,4.916971 12.534321,4.8080133 10.48358,4.1542586 8.5583802,3.042837 6.1559799,1.6276787 4.9743364,-0.124758 4.9775202,-2.2891425 c -0.00501,-2.1126217 0.5217466,-4.0985774 1.6508519,-5.9679152 0.6367274,-1.1726252 1.6903673,-2.4649373 3.091473,-3.9409953 1.1184249,-1.165318 1.7054049,-1.990314 1.7115879,-2.397904 -0.002,-0.355828 -0.121537,-0.539246 -0.292097,-0.534421 -0.652257,-0.0025 -1.889643,0.942364 -3.6415873,2.824491 C 5.632957,-10.314286 3.9794793,-8.0822805 2.5803183,-5.5128575 0.88095734,-2.4550613 0.06179662,0.23805304 0.06528827,2.6953302 0.0562742,7.4428619 2.7544024,10.374644 8.1449638,11.483042 9.4209257,10.194102 10.247911,9.4283415 10.552374,9.1475812 c 1.343677,1.3323858 2.633014,2.3377998 3.744391,2.8587048 0.652257,0.0025 1.409164,-0.05275 2.420059,-0.237548 1.102592,-1.098846 1.863667,-1.917494 2.399048,-2.5171925 1.219727,0.7078602 2.105807,1.1771675 2.627697,1.4667565 3.522816,-1.1028994 5.565499,-1.8724557 6.093408,-2.2239507 1.878307,-1.1723216 3.937196,-3.9874657 6.273683,-8.48843524 L 36.456776,7.381e-4 Z M 19.220875,11.36939 c -0.344492,0.231972 -0.991033,0.829985 -1.92323,1.690511 -0.936296,0.886408 -1.462355,1.360237 -1.636451,1.353889 -0.415226,0.0085 -1.309503,-0.409018 -2.598677,-1.180937 -1.345035,-0.754236 -2.155321,-1.33358 -2.519674,-1.746791 -0.294415,0.351331 -0.5806324,0.650899 -0.9333214,0.934634 -0.6454175,0.523905 -1.7603061,1.700395 -3.2770697,3.471196 0.2949072,0.349153 1.2310634,0.937818 2.6919204,1.630805 1.3420607,0.70601 2.4022357,1.181664 3.0481457,1.358242 -0.0019,-0.122333 0.46481,-0.58965 1.402957,-1.353725 0.529595,-0.462656 1.049143,-0.995882 1.652846,-1.457414 3.575025,2.051886 5.450148,3.043948 5.620707,3.039123 0.592859,0.009 1.997502,-1.455892 4.281524,-4.452932 z m 0,0"
         style="fill:#231f20;fill-opacity:1;fill-rule:nonzero;stroke:none"
         aria-label="ﻲ"
         transform="matrix(0.40240208,-1.271161,1.271161,0.40240208,70.633467,230.48667)" />
      <path
         id="path5"
         d="m 7.2048234,-34.116735 c -2.0523807,2.056606 -3.9234057,3.927736 -5.5029078,5.622635 0.5294035,0.0045 2.9214017,1.12023 7.1340121,3.342315 0.6524684,-0.704397 1.4758703,-1.588912 2.5327383,-2.685694 1.465448,-1.583554 2.224552,-2.593134 2.279077,-2.871525 -0.702397,-0.0078 -2.863639,-1.110398 -6.4429196,-3.407731 z m 7.3782746,13.889936 c -0.763865,-1.280734 -1.509595,-2.346786 -2.227652,-3.282121 -2.101435,3.755278 -3.4588971,6.087098 -4.1447523,7.085373 1.8091863,1.955579 3.3291433,4.758226 4.6756923,8.4538099 l -13.17614938,0.00125 4.4345e-4,7.97173079 L 16.125783,-0.0029411 c 0.704881,-3.037282 1.11282,-5.4475359 1.351237,-7.0854418 0.345762,-2.8131214 0.347536,-4.9882041 0.04613,-6.6252871 -0.344863,-1.772865 -1.27059,-3.932288 -2.940049,-6.513129 z m 0,0"
         style="fill:#231f20;fill-opacity:1;fill-rule:nonzero;stroke:none"
         aria-label="ﻧ"
         transform="matrix(0.60964186,-1.185797,1.185797,0.60964186,84.817067,188.16667)" />
      <path
         id="path6"
         d="m 24.505448,-11.542973 c -0.525587,-3.169667 -1.762462,-5.924693 -3.699271,-8.330389 -1.0536,-1.293354 -2.338263,-2.46707 -3.92037,-3.574741 -1.350309,-0.941219 -2.359837,-1.520415 -3.118736,-1.702797 -0.998255,2.694512 -1.822579,5.452902 -2.572008,8.2159 1.634965,0.755201 2.925975,1.408559 3.943315,2.039578 0.980778,0.599431 1.982891,1.656746 3.032951,3.067234 1.107926,1.513064 1.758302,2.8036112 1.817666,3.8652639 L 5.556699,-7.965287 4.742037,0.05986041 21.807712,0.0573925 c 1.934481,-1.5905e-4 2.866356,-2.748264 2.871587,-8.1974677 -0.0012,-1.5898241 -0.06163,-2.6937158 -0.173851,-3.4028978 z m 0,0"
         style="fill:#231f20;fill-opacity:1;fill-rule:nonzero;stroke:none"
         aria-label="د"
         transform="matrix(0.76741419,-1.0903455,1.0903455,0.76741419,94.78,167.75733)" />
      <path
         id="path7"
         d="m 16.065396,-15.128804 c -0.286249,-0.406514 -1.772079,-2.001344 -4.408787,-4.74987 -0.642819,0.701957 -1.570728,3.16945 -2.8680457,7.449691 0.00348,-0.115957 0.5382085,0.298011 1.5876237,1.241409 1.228653,1.048256 2.224894,2.1061207 3.048937,3.1007881 1.052066,1.4077248 1.589032,2.5761628 1.592345,3.5710785 0.0033,0.9949157 -0.651931,2.1110068 -2.006895,3.3387482 L 8.9630754,1.9264775 C 7.3922646,3.1643238 5.6878542,4.1577481 3.8127377,5.0382794 2.1072506,5.7912575 0.94229138,6.2122659 0.24604919,6.2079587 -0.69917039,6.2127624 -2.0018704,5.9747178 -3.6374514,5.502853 -5.3247162,5.0957587 -6.5034245,4.869724 -7.1499706,4.8669077 c -0.2901424,-4.142e-4 -0.4692968,0.168304 -0.4631677,0.5166736 -0.00977,0.8784611 1.9890024,2.2316861 6.0268919,3.8699188 3.8054774,1.6478409 6.4521252,2.4070319 7.911368,2.4010689 2.4039654,0.0058 4.9916414,-1.6906598 7.6802004,-5.0918592 2.299687,-2.874007 3.704928,-5.5012731 4.280989,-7.8466797 0.414134,-1.645603 0.594366,-3.2319021 0.592378,-4.8236678 4.98e-4,-3.3326196 -0.929563,-6.3201003 -2.813293,-9.0211663 z m 0,0"
         style="fill:#231f20;fill-opacity:1;fill-rule:nonzero;stroke:none"
         aria-label="ر"
         transform="matrix(0.91411324,-0.97065687,0.97065687,0.91411324,113.67507,141.17733)" />
      <path
         id="path8"
         d="m 6.1504679,-40.03207 c -1.2826871,-0.0542 -2.2276848,-0.529241 -2.9225661,-1.285888 0.929898,-0.713148 1.6411782,-1.048928 2.0513108,-1.053331 0.2929519,-0.0031 0.9840592,0.401959 2.0493826,1.168692 l 1.2304278,-1.757059 c -0.00314,-0.292952 -0.16631,-0.645127 -0.5890375,-0.940606 -0.357207,-0.305558 -0.703706,-0.487005 -1.0552483,-0.483231 -1.5258694,-2.7e-5 -2.8079387,0.658306 -3.8581774,1.951686 -0.8933637,1.059651 -1.3526554,2.16152 -1.3577136,3.218666 0.00377,0.351542 0.4107504,0.708132 1.3601623,0.939359 1.0930518,0.292971 1.7425816,0.536794 1.9189818,0.593497 l -1.8673515,1.159175 c -0.4807001,0.417684 -0.8851718,0.949401 -1.1737244,1.58066 3.4001661,-2.040525 5.8464873,-2.978558 7.4328342,-2.80339 0.8284724,-0.990982 1.2310564,-1.69847 1.4125034,-2.044969 -2.04058,-0.130445 -3.5670785,-0.189062 -4.6317841,-0.243261 z m 27.4365291,8.204382 c -0.994767,-0.52607 -1.638621,-1.114505 -1.997711,-1.813816 -0.180174,-0.408245 -0.282222,-1.180632 -0.401274,-2.22707 -3.344144,4.857272 -5.110089,7.384188 -5.107573,7.618549 0,0 0.297355,0.406988 0.882615,1.214033 0.590299,0.839805 0.878193,1.893807 0.882581,3.175865 -0.0026,2.163433 -0.63953,4.399306 -1.879418,6.80338 -2.870229,-4.052235 -5.679362,-7.216792 -8.31904,-9.443272 -5.929511,-4.973352 -9.9810233,-7.494067 -12.0864953,-7.555844 -0.459917,0.825298 -1.0502536,2.165306 -1.7584112,4.101926 -0.8064423,2.169719 -1.227309,3.575881 -1.2292109,4.272035 0.00313,0.946896 0.36474,1.880568 1.1137975,2.880397 0.7711098,0.870679 1.5258433,1.525896 2.460133,1.876824 1.3463094,0.522296 3.0504548,1.408741 5.2258349,2.742496 1.631062,1.065365 2.642839,1.647506 2.869637,1.813831 0.286022,0.0063 0.65962,-0.344601 1.055904,-0.984048 0.418964,-0.710007 0.649552,-1.064066 0.834773,-1.059022 0.520383,0.0038 1.626026,0.814623 3.322597,2.523852 1.703502,1.69978 2.530678,2.771431 2.525002,3.116043 -0.759802,1.055873 -1.981398,2.107329 -3.747316,3.1083748 -1.867981,1.1005848 -3.39449,1.6959123 -4.585198,1.6946319 -0.172626,0.2948388 -0.701223,1.7091885 -1.57319,4.1069684 -0.881416,2.3908497 -1.352681,3.68738968 -1.350794,3.8631608 l 19.055728,-0.0053432 0.289207,-2.098538 c 0.177056,-1.4105757 0.229367,-2.6510525 0.227495,-3.6987491 0.0088,-0.7056042 -0.05668,-1.3494693 -0.111478,-1.8692234 -0.121573,-1.0628187 -0.588383,-2.4078852 -1.342468,-4.0944182 L 27.7327,-14.29352 c 0.4618,-0.431545 1.282084,-1.530257 2.443843,-3.352209 1.354542,-1.985749 2.000961,-3.99671 2.063995,-5.985001 1.220941,0.415823 1.918982,0.593496 2.163422,0.656501 2.17735,-3.286063 3.513622,-5.227082 3.929434,-5.794079 0.0032,-0.360992 -1.576245,-1.417536 -4.746397,-3.05938 z M 22.981713,-6.8639654 c -1.399239,0.00565 -2.229583,-0.051069 -2.517491,-0.2331446 1.517696,-0.9796301 2.693933,-2.1079469 3.63644,-3.393139 0.866239,0.9985714 1.523313,2.1634599 1.866012,3.5192341 -0.636935,0.056059 -1.634862,0.1089627 -2.984961,0.1070495 z m 0,0"
         style="fill:#231f20;fill-opacity:1;fill-rule:nonzero;stroke:none"
         aria-label="ﻷ"
         transform="matrix(1.0751931,-0.78850333,0.78850333,1.0751931,129.19467,122.68093)" />
      <path
         id="path9"
         d="m 9.6070524,-25.847793 c -0.1756204,-1.458568 -0.5271557,-3.75727 -1.0560131,-6.738889 -0.3499588,0.452834 -1.2335912,1.975295 -2.7452743,4.57178 -1.5759303,2.747898 -2.4134294,4.386074 -2.4076859,4.915466 L 6.5659929,0.64441803 C 9.3164816,-2.753332 10.721657,-6.917827 10.655604,-11.834471 c -0.04595,-4.235134 -0.402343,-8.918532 -1.0485516,-14.013322 z m 0,0"
         style="fill:#231f20;fill-opacity:1;fill-rule:nonzero;stroke:none"
         aria-label="ا"
         transform="matrix(1.1871848,-0.60693498,0.60693498,1.1871848,170.00133,94.2904)" />
      <path
         id="path10"
         d="m 26.38302,-7.9633526 -1.931732,-0.00752 c -1.764508,0.00621 -3.28104,-0.6471941 -4.639543,-1.8649443 -0.811465,-0.7589301 -1.807183,-2.1242751 -2.863935,-3.9364521 -1.116234,-1.817883 -1.87654,-2.989796 -2.479482,-3.587888 -1.692326,2.647457 -3.042859,4.932899 -4.16611,6.870736 1.005001,1.1722975 1.702826,2.1050297 2.235067,2.6940311 1.468671,1.8262933 2.172689,3.1036287 2.1815,3.9264014 -0.0049,0.9899967 -0.833,2.2334984 -2.420112,3.6396869 C 10.546465,1.2372382 9.2044306,2.3991164 8.2683134,3.1081604 5.2168197,5.676035 2.1661823,6.9833951 -0.88127826,6.9819788 -2.5200536,6.9771614 -4.1648307,6.5053938 -5.7449092,5.5757664 L -8.1412865,4.1060797 c -0.1818283,-0.0059 -0.2472071,0.170225 -0.2443983,0.5260473 0.00611,1.115729 2.2261683,2.642384 6.6892041,4.6866439 4.2151485,1.9327481 7.0870786,2.9216481 8.614726,2.9296581 2.461548,-0.004 5.0955217,-1.877724 7.8593647,-5.6829944 1.993309,-2.7524957 3.403707,-5.2769258 4.159428,-7.6194236 0.352926,0.41249459 1.050646,0.69644825 2.108831,0.88106934 0.651971,0.11102392 1.109831,0.17572252 1.402787,0.17842729 L 26.37837,0.00381906 Z m 0,0"
         style="fill:#231f20;fill-opacity:1;fill-rule:nonzero;stroke:none"
         aria-label=" ﺮ"
         transform="matrix(1.2764987,-0.38513475,0.38513475,1.2764987,194.32267,82.080133)" />
      <path
         id="path11"
         d="m 30.012355,-7.9635008 -1.641043,-9.917e-4 c -0.70788,-0.00436 -1.639929,-0.8745687 -2.864504,-2.6308325 -1.126848,-1.590761 -1.878056,-2.875598 -2.236469,-3.994084 -0.171149,-0.528735 -0.294343,-1.063383 -0.292647,-1.653522 -7.04e-4,-1.050904 -0.121233,-1.703294 -0.242222,-1.871656 -0.217286,-0.345495 -0.926985,-0.527184 -1.977889,-0.52648 -1.345974,-1.44e-4 -3.16604,0.590821 -5.392035,1.698623 -2.352315,1.174925 -4.112674,2.528873 -5.173536,4.051448 -0.701458,1.000019 -1.3441782,2.290624 -1.9254951,3.7540737 -0.2935177,0.7549873 -0.7098421,1.1642853 -1.2883496,1.1640194 l -7.27348291,0.0033 3.7177e-4,7.969732202 L 3.5772792,0.00381159 C 4.865097,-0.00319271 5.7395217,-0.29714833 6.2658577,-0.92906305 6.5036188,-1.2304329 6.7959008,-1.8793096 7.0396465,-2.8057118 7.2603237,-3.640494 7.5529936,-4.1004119 7.9711355,-4.3323824 L 22.159335,3.5747931 c 0.57669,-0.1770616 1.057931,-0.8263262 1.461072,-1.9928889 0.412108,-1.04739128 0.76131,-1.58300906 1.115965,-1.58664419 l 5.276355,0.01097147 z M 15.71369,-9.496698 c -0.991053,-0.582287 -1.650325,-0.982109 -2.009851,-1.227018 0.649991,-0.581295 1.950288,-0.881939 3.768658,-0.882765 0.578508,2.66e-4 0.992289,0.476176 1.283579,1.468343 0.241518,0.8207511 0.296743,1.5241488 0.177306,2.1116221 -0.226518,0.1138408 -1.278392,-0.3578523 -3.219692,-1.4701821 z m 0,0"
         style="fill:#231f20;fill-opacity:1;fill-rule:nonzero;stroke:none"
         aria-label="ﻤ"
         transform="matrix(1.3233739,-0.16266331,0.16266331,1.3233739,224.09733,72.651067)" />
      <path
         id="path12"
         d="m 29.252162,-14.299851 c -1.52313,-0.65319 -3.333353,-1.596479 -5.388903,-2.76327 -2.180094,-1.237152 -3.694571,-2.044235 -4.635615,-2.400554 -1.699223,-0.647921 -3.451874,-0.996334 -5.28843,-0.995195 -2.919827,1.7e-5 -6.0804472,3.107995 -9.546955,9.259593 0.8797079,-0.520757 1.5291417,-0.866174 1.935884,-1.164555 0.8142379,-0.467327 2.1744398,-0.646062 4.045989,-0.650587 0.766078,0.0083 2.464172,0.64453 4.932486,1.818468 2.221483,1.056543 3.461284,1.7018331 3.807827,1.9979528 -1.3459,0.8131192 -3.448475,1.2285291 -6.333309,1.2251588 l -13.06810777,0.00496 -0.005599,7.97120338 11.49042277,-0.00533193 c 1.342142,-3.8376e-4 3.445843,-0.76910775 6.336689,-2.28510115 2.925839,-1.51938 5.100654,-2.2832129 6.560568,-2.2832211 1.118264,-0.00226 3.873287,0.1196311 8.204491,0.3480006 4.332332,0.2400337 5.627442,0.3619368 3.754764,0.3547982 2.160128,-3.1053386 3.799884,-5.3832644 4.863205,-6.8048046 -2.465675,-0.173445 -6.334452,-1.341354 -11.665407,-3.627519 z m 0,0"
         style="fill:#231f20;fill-opacity:1;fill-rule:nonzero;stroke:none"
         aria-label="ﺣ"
         transform="matrix(1.3271326,0.12843968,-0.12843968,1.3271326,260.02933,67.037067)" />
      <path
         id="path13"
         d="m 6.1501991,-40.032428 c -1.2915537,-0.05394 -2.2237172,-0.525414 -2.9376473,-1.288259 0.9520726,-0.707941 1.6508772,-1.049419 2.0623706,-1.049459 0.2853417,-0.004 0.9972355,0.410395 2.0485704,1.17521 l 1.2313054,-1.757226 c 0.00297,-0.300361 -0.1772767,-0.658773 -0.5928026,-0.944075 -0.349449,-0.309337 -0.6878719,-0.485515 -1.0473023,-0.479473 -1.5238276,-0.0069 -2.8143098,0.662068 -3.8694502,1.943707 -0.8759477,1.054349 -1.3423983,2.171734 -1.3432962,3.232006 -0.00898,0.352423 0.4045531,0.7008 1.3376947,0.934991 1.1233738,0.277223 1.7601609,0.519451 1.9323734,0.581509 l -1.8661229,1.177593 c -0.4745291,0.409537 -0.8719551,0.928198 -1.1732536,1.574001 3.4068853,-2.049789 5.8577322,-2.991156 7.441648,-2.819103 0.8218885,-0.997276 1.2293095,-1.694151 1.4124945,-2.047593 -2.0604813,-0.110932 -3.5823127,-0.180868 -4.6365819,-0.233829 z m 27.4296859,8.216183 c -0.993243,-0.536547 -1.632067,-1.127193 -1.984557,-1.821991 -0.189267,-0.417482 -0.291464,-1.178385 -0.412712,-2.231636 -3.345538,4.85815 -5.097394,7.378342 -5.098372,7.615627 0,0 0.285382,0.407461 0.87517,1.240402 0.585783,0.821928 0.888246,1.859142 0.88637,3.156698 0.0032,2.1686 -0.648351,4.388325 -1.869581,6.790323 -2.878845,-4.040564 -5.685517,-7.197076 -8.329904,-9.427493 -5.925589,-4.977391 -9.9606718,-7.500023 -12.0902309,-7.560889 -0.4594704,0.828038 -1.0420379,2.174709 -1.7496988,4.10309 -0.8197719,2.16868 -1.2301269,3.577408 -1.2260543,4.274243 0.00309,0.93412 0.3435938,1.870209 1.1086089,2.876341 0.7690076,0.879981 1.5239746,1.515669 2.4641364,1.872005 1.3416606,0.53451 3.0407819,1.400383 5.2165217,2.753794 1.630057,1.053104 2.628311,1.637708 2.866614,1.812895 0.289347,0.007 0.646741,-0.347479 1.059173,-0.996297 0.418433,-0.700881 0.653681,-1.048321 0.82789,-1.049339 0.526632,0.008 1.642048,0.811814 3.349261,2.522699 1.692195,1.703878 2.510278,2.753057 2.51632,3.112487 -0.764815,1.051335 -2.000193,2.111726 -3.756201,3.1120964 -1.868133,1.1035047 -3.397909,1.6973655 -4.584332,1.692475 -0.170176,0.2863599 -0.702677,1.7021091 -1.57549,4.1020714 -0.883826,2.4039682 -1.349258,3.69556201 -1.34824,3.86977078 l 19.054846,0.00214949 0.291143,-2.11356237 c 0.184084,-1.4137129 0.225014,-2.6381849 0.229918,-3.6874434 0.0029,-0.7118538 -0.04419,-1.355621 -0.110316,-1.8802436 -0.121247,-1.053251 -0.587938,-2.4048257 -1.342007,-4.1007857 l -1.128599,-2.519912 c 0.470524,-0.42055 1.296405,-1.543977 2.474642,-3.34425 1.343417,-1.997526 1.989998,-3.990979 2.035858,-5.99038 1.234521,0.411373 1.93638,0.592522 2.171668,0.656576 2.172285,-3.284149 3.513705,-5.218599 3.935153,-5.808347 -0.002,-0.348417 -1.584036,-1.406532 -4.756998,-3.033174 z M 22.979603,-6.8612943 c -1.408689,0.00114 -2.225674,-0.050845 -2.51604,-0.2320335 1.52273,-0.9903354 2.686015,-2.1117931 3.630023,-3.3904182 0.883155,0.988099 1.523036,2.1644472 1.874589,3.5080239 -0.635756,0.069145 -1.638954,0.122306 -2.988572,0.1144278 z m 0,0"
         style="fill:#231f20;fill-opacity:1;fill-rule:nonzero;stroke:none"
         aria-label="ﻷ"
         transform="matrix(1.2530135,0.45577942,-0.45577942,1.2530135,311.92667,71.854133)" />
      <path
         id="path14"
         d="m 9.6151836,-25.852372 c -0.1725919,-1.461 -0.5410324,-3.752353 -1.0673641,-6.734165 -0.340133,0.47219 -1.2350314,1.993121 -2.7472749,4.570938 -1.588005,2.754458 -2.4040344,4.392403 -2.4002443,4.927361 L 6.5611533,0.64174684 C 9.3208575,-2.7545729 10.728467,-6.9119576 10.663331,-11.830066 c -0.05979,-4.236323 -0.413392,-8.925969 -1.0481474,-14.022306 z m 0,0"
         style="fill:#231f20;fill-opacity:1;fill-rule:nonzero;stroke:none"
         aria-label="ا"
         transform="matrix(1.1637062,0.65081918,-0.65081918,1.1637062,358.216,90.022133)" />
      <path
         id="path15"
         d="m 28.901502,-30.536643 c -2.17442,-0.58781 -3.692791,-1.059658 -4.513336,-1.528734 -1.578725,-0.883588 -2.359545,-1.989533 -2.352753,-3.401711 -0.633571,0.46743 -1.457932,1.701605 -2.393108,3.633767 -0.9478,1.989379 -1.407185,3.342491 -1.414782,4.214462 0.0058,0.474104 0.40961,1.069638 1.287695,1.767422 0.889624,0.765134 1.408523,1.818084 1.585847,3.10288 l 1.645901,13.5446991 c 0.532616,4.2865531 0.820076,6.9757263 0.934875,8.0979173 0.112144,1.04720137 -1.458696,2.04225528 -4.753374,2.8657413 C 16.299648,2.4589994 14.187634,2.8066102 12.600064,2.811519 10.605741,2.8106788 8.788497,2.2248786 7.1533176,0.98801492 5.3349459,-0.35407519 4.4568196,-1.9327165 4.452674,-3.8609361 c -0.00302,-1.1719297 0.6499709,-3.1087554 1.9248301,-5.6884027 1.237907,-2.6406042 1.8840617,-4.0461092 1.8899718,-4.3448212 -0.00298,-0.291072 -0.1277045,-0.400199 -0.3603132,-0.401123 -0.8808572,4.2e-5 -2.2773496,1.988819 -4.2733531,5.9766249 C 1.578418,-4.0943429 0.52466949,-0.70026401 0.52105636,1.9918852 0.52025824,4.8670656 1.582382,7.0911403 3.6285377,8.6082997 c 1.8718496,1.4042933 4.2777932,2.1175943 7.2610153,2.1182313 3.29082,-0.0011 6.340103,-0.8763265 9.145195,-2.7006924 2.242611,-1.4180533 3.990369,-3.1061086 5.341023,-5.1482028 0.711495,-1.0598689 1.350934,-2.70686859 1.9958,-4.9767047 0.524522,-1.9963749 0.820216,-3.1623945 0.757207,-3.6491236 L 26.67137,-22.453073 c 0.108042,-1.61e-4 0.406754,0.0057 0.818654,0.05344 0.410654,0.06421 0.696741,0.12734 0.755205,0.12344 0.65878,-1.462723 1.828574,-3.751136 3.518106,-6.980923 -0.169642,-0.395052 -1.168071,-0.819375 -2.861833,-1.279523 z m 0,0"
         style="fill:#231f20;fill-opacity:1;fill-rule:nonzero;stroke:none"
         aria-label=" ل"
         transform="matrix(1.0110475,0.86923002,-0.86923002,1.0110475,381.896,102.95507)" />
      <path
         id="path16"
         d="m 39.385397,-7.9662844 -1.464834,0.0053 c -1.399244,-0.00431 -2.229375,-0.1255282 -2.457387,-0.3098607 -0.23501,-0.1749321 -0.413546,-0.9360098 -0.58459,-2.2174299 -1.52766,-14.767226 -2.39666,-23.039917 -2.637818,-24.914057 -0.234374,8.48e-4 -0.817763,0.706089 -1.818163,2.108936 -0.825467,1.167838 -1.408221,2.048859 -1.647683,2.586448 -0.22568,0.460194 -0.345483,2.328609 -0.282227,5.560432 -0.0016,2.160957 -0.05421,3.801784 -0.352552,4.90912 -0.940112,3.814364 -2.050843,6.464494 -3.409376,7.995201 0.0049,1.347648 -0.168218,2.7381266 -0.5219,4.0964464 -0.34732,1.1731394 -0.69676,1.7603451 -1.04832,1.7616171 -0.05859,2.12e-4 -0.117399,-0.058169 -0.175992,-0.057957 0.231193,-0.8797485 0.350713,-2.1786269 0.353965,-3.8708375 0.05542,-4.765075 -0.533838,-8.27156 -1.638771,-10.496483 -2.11784,-4.279084 -5.33086,-8.087796 -9.63164,-11.31835 -2.6863173,-2.043418 -4.7509377,-3.273456 -6.0344785,-3.688346 -0.1161267,0.293391 -0.4048534,1.466318 -0.8174112,3.394386 -0.5256453,2.413637 -0.761999,4.458255 -0.7562748,6.040276 0.00276,0.761714 0.056896,1.474023 0.1668026,2.052535 0.059229,0.175568 1.4102689,1.108186 4.0555217,2.814251 2.6192422,1.642877 4.0872572,2.516478 4.3216302,2.51563 0.406126,-1.114758 0.722134,-1.872938 0.837837,-2.283515 2.343734,1.934501 4.161399,4.22247 5.336021,6.922925 1.115393,2.524887 1.700266,4.172782 1.693409,4.8689053 8.48e-4,0.2343735 -0.05711,0.4103656 -0.174084,0.469383 -0.06241,0.8885128 -0.998491,1.9301879 -2.878215,3.2190288 -0.876568,0.6477071 -1.805157,1.1690391 -2.740743,1.6997715 L 4.3423183,0.70353498 C 1.1715612,2.0978291 -0.41406487,3.0504475 -0.41236883,3.5191945 c 6.3602e-4,0.1757801 0.7627738,0.2902107 2.28620133,0.2846986 2.6976979,0.00665 5.7364957,-0.2879454 9.1937875,-0.8699897 4.241976,-0.7137906 7.346648,-1.5875297 9.344194,-2.7010146 2.741591,-1.465398 4.793067,-3.868149 6.265042,-7.0820897 0.348592,-0.8215792 1.167416,-3.1776821 2.392861,-7.1594861 0.818186,1.35408 1.346089,6.0420441 1.64209,14.00508777 l 8.676625,0.00141851 z m 0,0"
         style="fill:#231f20;fill-opacity:1;fill-rule:nonzero;stroke:none"
         aria-label="ﻼ"
         transform="matrix(0.79613532,1.0695543,-1.0695543,0.79613532,412.88133,128.53773)" />
      <path
         id="path17"
         d="m 23.791414,-7.9768778 -6.971031,0.00378 c 0.349896,-0.7549746 0.768418,-1.8150209 1.357334,-3.0402062 1.049277,-2.291124 1.699702,-3.941823 1.98722,-4.999828 0.472505,-1.632202 0.7004,-4.162117 0.706035,-7.50099 -3.695121,0.0052 -7.869531,3.225531 -12.5439465,9.677169 -1.3549355,2.521268 -2.2882616,4.5170662 -2.7652567,5.8610601 l -5.86511389,0.00228 0.003656,7.97214341 3.34394939,-0.00492715 C 3.2274126,1.9929717 3.8078363,3.923254 4.8066553,5.7946034 6.4965426,8.9602993 9.0265613,10.54048 12.30247,10.541854 c 1.934187,0.0066 3.697289,-0.8752667 5.335816,-2.6881199 1.128569,-1.2388344 2.120012,-2.868639 2.998079,-5.0470262 0.641088,-1.577173 0.998687,-2.51047598 0.999274,-2.80924608 l 2.159431,-0.00219619 z m -7.837012,-4.4431732 c -0.418982,0.357703 -1.542118,0.936033 -3.353361,1.755708 -1.941431,0.8741166 -3.2297061,1.2820535 -3.8166843,1.2859574 0.4136751,-0.6983124 1.3545793,-1.8713264 2.7660503,-3.4552604 2.218743,-2.587141 3.873139,-4.054308 4.866088,-4.578196 0.243971,0.520341 0.352091,1.404457 0.24535,2.627371 -0.06957,1.253783 -0.355685,2.065419 -0.707443,2.36442 z M 12.062778,2.2222129 C 11.192438,1.8688737 10.369193,1.1741084 9.5465349,0.180573 8.8416907,-0.65231396 8.4857988,-1.2914637 8.4331673,-1.6418189 c 0.1153649,0.00344 0.2924686,-0.067454 0.470797,-0.059749 1.1164777,0.00357 2.6375757,0.4096678 4.5616597,1.11348872 2.19321,0.82018053 3.243154,1.93596878 3.24489,3.39305668 -2.058888,0.063527 -3.586874,-0.1118407 -4.647736,-0.5827646 z m 0,0"
         style="fill:#231f20;fill-opacity:1;fill-rule:nonzero;stroke:none"
         aria-label="ﻬ"
         transform="matrix(0.57763402,1.2017141,-1.2017141,0.57763402,441.644,168.51333)" />
      <path
         id="path18"
         d="m 9.5056932,-31.715267 c -0.5412472,-0.414787 -0.9455435,-1.166867 -1.127672,-2.289635 -0.1115693,-0.81522 -0.2341139,-1.337678 -0.2379042,-1.511848 -0.4669336,-0.0072 -1.3890525,1.279172 -2.8590286,3.803532 l -2.5324587,4.752056 c 0.8860496,0.751847 1.6497882,1.462989 2.3504402,1.992578 l 1.2820487,7.318322 c 0.7729727,4.468814 1.1820299,7.396193 1.1789766,8.7413979 0.00399,0.5818079 -0.058865,0.8820077 -0.1774216,0.9413579 l -7.68211213,2.02e-5 0.003864,7.967456421139 L 7.9683458,-0.00403771 C 8.1388159,0.0032912 8.2648093,-0.0041815 8.4352794,0.00314741 8.7947395,-7.3273214e-4 9.1986405,-0.06392714 9.6692206,-0.17903501 10.195361,-0.34975675 10.54724,-0.7019779 10.65448,-1.1726658 c 0.425348,-1.6863428 0.765678,-2.9316549 1.006132,-3.8026332 0.525169,-2.1718504 0.817106,-3.8655401 0.809094,-5.103272 -0.577247,-5.873404 -0.867892,-9.156597 -0.868287,-9.971872 l 5.688688,-7.036357 c -0.752278,-0.0033 -3.410067,-1.517722 -7.7844138,-4.628467 z m 0,0"
         style="fill:#231f20;fill-opacity:1;fill-rule:nonzero;stroke:none"
         aria-label="ﻟ"
         transform="matrix(0.42102347,1.2651154,-1.2651154,0.42102347,453.808,194.01067)" />
      <path
         id="path19"
         d="m 9.6147296,-25.855436 c -0.1696859,-1.457952 -0.5314522,-3.753721 -1.0597191,-6.737125 -0.3492487,0.472806 -1.2274009,1.990357 -2.7591696,4.572066 -1.5711724,2.753017 -2.3930232,4.391741 -2.3944023,4.920513 L 6.5620371,0.6424037 C 9.3150205,-2.7526581 10.72884,-6.9126914 10.66999,-11.832331 10.609873,-16.06685 10.256939,-20.753515 9.6147296,-25.855436 Z m 0,0"
         style="fill:#231f20;fill-opacity:1;fill-rule:nonzero;stroke:none"
         aria-label="ا"
         transform="matrix(0.29888474,1.2994021,-1.2994021,0.29888474,460.82267,215.44533)" />
      <path
         id="path20"
         d="m 0,0 c 18.388,0 35.666,4.75 50.672,13.091 -22.804,-21.969 -53.817,-35.477 -87.98,-35.477 -70.051,0 -126.845,56.794 -126.845,126.845 0,70.058 56.794,126.846 126.845,126.846 34.163,0 65.176,-13.508 87.98,-35.477 -15.006,8.341 -32.284,13.091 -50.672,13.091 -57.689,0 -104.46,-46.771 -104.46,-104.46 C -104.46,46.771 -57.689,0 0,0"
         style="fill:#ec2529;fill-opacity:1;fill-rule:nonzero;stroke:none"
         transform="matrix(1.3333333,0,0,-1.3333333,317.98667,403.424)" />
      <path
         id="path21"
         d="m 19.892718,-26.89161 -7.014685,0.0062 -0.0061,17.9308428 c -6.6e-5,2.5989747 -0.903437,3.4989178 -2.516053,3.4903694 -1.7338826,0.00767 -2.7153024,-0.9799292 -2.7174236,-2.7485276 l 0.00656,-2.4911286 -6.587,0.0033 0.00203,1.1752086 c -0.00834,5.9917602 2.2922467,10.08589359 9.4129276,10.08480724 6.32502,0.002275 9.422034,-3.03920604 9.412783,-9.06938114 z m 0,0"
         style="fill:#231f20;fill-opacity:1;fill-rule:nonzero;stroke:none"
         aria-label="J"
         transform="matrix(0.21045314,1.3166196,-1.3166196,0.21045314,31.2864,291.48)" />
      <path
         id="path22"
         d="M 1.3991457,-13.43511 C 1.3964282,-5.6491933 6.1695214,0.56603755 14.648407,0.56298237 23.12362,0.57105557 27.915216,-5.6467633 27.917934,-13.43268 c -0.0011,-7.811845 -4.78896,-14.01962 -13.264173,-14.027693 -8.4788856,0.0031 -13.2556809,6.213418 -13.2546153,14.025263 z m 7.0113756,-0.0061 c -8.092e-4,-3.998567 1.7252957,-7.994874 6.2426727,-7.997231 4.528504,0.0013 6.256228,4.002144 6.257037,8.000712 -0.0066,3.9837659 -1.72908,7.9689441 -6.257584,7.967628 -4.517376,0.00236 -6.2487724,-3.987343 -6.2421257,-7.971109 z m 0,0"
         style="fill:#231f20;fill-opacity:1;fill-rule:nonzero;stroke:none"
         aria-label="O"
         transform="matrix(0.4178623,1.2661631,-1.2661631,0.4178623,36.439467,324.33467)" />
      <path
         id="path23"
         d="m 2.4114279,-0.0050606 7.0099053,0.00724752 0.00221,-9.79418302 5.3113988,-0.00211 c 3.261288,-0.00111 3.733016,2.78153 3.91266,5.5134067 0.06674,0.7413035 0.191612,3.37714872 0.783003,4.28110791585 L 26.361936,0.00528298 C 25.41655,-0.98277295 25.310599,-4.9393266 25.234294,-6.0584275 25.007839,-8.6291798 24.170972,-11.821334 21.318368,-12.505218 l -0.0032,-0.06826 c 2.827823,-1.099545 4.226835,-3.846657 4.2202,-6.751576 0.0066,-5.426486 -4.668458,-7.570587 -9.408398,-7.566946 L 2.4111447,-26.90256 Z m 7.0078122,-21.2748604 5.5630009,2.46e-4 c 1.955662,0.0014 3.543139,0.909225 3.545716,2.906952 -0.0038,2.034238 -1.118003,3.164568 -3.230817,3.158426 l -5.8725406,0.0061 z m 0,0"
         style="fill:#231f20;fill-opacity:1;fill-rule:nonzero;stroke:none"
         aria-label="R"
         transform="matrix(0.63201764,1.1740236,-1.1740236,0.63201764,50.2864,364.844)" />
      <path
         id="path24"
         d="M 2.4123693,0.00214325 13.972172,0.00329067 c 8.179335,-5.5432e-4 13.190539,-4.75241387 13.189691,-13.55768767 -0.0019,-8.329402 -4.945994,-13.34249 -13.191144,-13.334007 l -11.5598027,-0.0011 z m 6.9999169,-20.87451625 3.3126708,-0.0068 c 4.791631,0.007 7.416301,2.39496 7.413997,7.294533 -0.0034,5.3754442 -2.10008,7.4391994 -7.410304,7.5614865 l -3.3126706,0.00682 z m 0,0"
         style="fill:#231f20;fill-opacity:1;fill-rule:nonzero;stroke:none"
         aria-label="D"
         transform="matrix(0.82326909,1.0488116,-1.0488116,0.82326909,69.442,399.91733)" />
      <path
         id="path25"
         d="m 13.215566,-19.427302 0.09145,-0.0038 2.959748,9.419169 -6.097408,-0.0063 z M -0.33154894,-0.00131228 6.8529145,-1.9282955e-4 8.5558708,-4.8203956 l 9.3743222,0.00811 1.657531,4.80948691 7.309015,-0.00111668 -10.057577,-26.88789263 -7.1261241,-0.0066 z m 0,0"
         style="fill:#231f20;fill-opacity:1;fill-rule:nonzero;stroke:none"
         aria-label="A"
         transform="matrix(0.98751326,0.89587686,-0.89587686,0.98751326,95.513733,432.45067)" />
      <path
         id="path26"
         d="m 2.3332234,-0.00486111 6.5989353,0.00353188 -0.00273,-16.75435777 0.068302,-0.002 9.3420713,16.7559435 7.193919,-0.00185184 0.0037,-26.89004466 -6.582746,1.4e-5 -0.0068,16.565641 -0.08449,-0.0015 -9.3261956,-16.557358 -7.20024,-0.008 z m 0,0"
         style="fill:#231f20;fill-opacity:1;fill-rule:nonzero;stroke:none"
         aria-label="N"
         transform="matrix(1.1227251,0.71921219,-0.71921219,1.1227251,124.52147,458.468)" />
      <path
         id="path27"
         d="m 2.4131214,8.3618896e-4 7.0113943,-0.006912629 0.00374,-9.79821986 5.3067433,1.739e-4 c 3.268575,0.00865 3.713719,2.7898718 3.902903,5.5091617 0.08095,0.7519462 0.191957,3.38632714 0.79608,4.29544892756 l 6.93728,-0.006604518 C 25.418455,-0.99531673 25.313156,-4.9304664 25.238017,-6.0678426 25.016143,-8.6276461 24.169021,-11.829664 21.316409,-12.510795 l -3.08e-4,-0.07412 c 2.834115,-1.093883 4.223555,-3.827147 4.218889,-6.732496 -0.004,-5.429018 -4.663784,-7.577555 -9.39981,-7.57269 l -13.7189777,-0.0023 z M 9.4213053,-21.281211 l 5.5661467,-9.05e-4 c 1.956704,0.0067 3.54653,0.904302 3.543747,2.909165 9.69e-4,2.015966 -1.12459,3.150922 -3.236874,3.159703 l -5.8663605,-0.009 z m 0,0"
         style="fill:#231f20;fill-opacity:1;fill-rule:nonzero;stroke:none"
         aria-label=" R"
         transform="matrix(1.2631473,0.42689179,-0.42689179,1.2631473,174.85067,487.61333)" />
      <path
         id="path28"
         d="m 2.4112366,-9.1686263e-4 21.8106374,-0.002341467 0.0049,-6.02049367 -14.7940802,-6.597e-4 -0.00419,-5.1285283 13.1680472,0.0043 -0.005,-5.425222 -13.1680476,-0.0043 0.0058,-4.702721 14.4145386,0.0031 -4.64e-4,-5.615935 -21.4310952,-1.11e-4 z m 0,0"
         style="fill:#231f20;fill-opacity:1;fill-rule:nonzero;stroke:none"
         aria-label="E"
         transform="matrix(1.315992,0.21434295,-0.21434295,1.315992,212.65867,500)" />
      <path
         id="path29"
         d="M 2.4140193,0.00293805 13.970228,0.00269764 C 22.15112,-0.00536325 27.150585,-4.7530991 27.152779,-13.566721 27.158714,-21.88803 22.223692,-26.90225 13.972497,-26.895328 l -11.556209,2.4e-4 z m 7.0071925,-20.87747605 3.3052032,-0.005 c 4.793479,0.0074 7.415497,2.382194 7.418142,7.281317 0.0066,5.3797196 -2.089834,7.4553964 -7.412676,7.5683774 l -3.3052028,0.00504 z m 0,0"
         style="fill:#231f20;fill-opacity:1;fill-rule:nonzero;stroke:none"
         aria-label="D"
         transform="matrix(1.3331583,-0.02160566,0.02160566,1.3331583,250.40667,506.16933)" />
      <path
         id="path30"
         d="m 27.276869,-17.283166 c -0.199724,-6.479267 -6.49641,-10.166323 -12.294728,-10.165649 -8.131768,-0.01 -13.3956391,6.205539 -13.3944243,14.013376 C 1.5834575,-5.6532288 6.8532713,0.55220292 14.985039,0.56217685 21.812275,0.56143121 26.893577,-3.4982686 27.271744,-10.433241 l -7.009155,0.0021 c -0.252708,3.0818306 -2.147043,4.976297 -5.427057,4.9749254 -4.513541,-0.00582 -6.2401167,-3.9992451 -6.2386608,-7.9813104 -0.00402,-4.00769 1.7313398,-8.001088 6.2448808,-7.995265 2.941803,-0.0014 5.041913,1.425636 5.425963,4.151725 z m 0,0"
         style="fill:#231f20;fill-opacity:1;fill-rule:nonzero;stroke:none"
         aria-label=" C"
         transform="matrix(1.2908225,-0.33399866,0.33399866,1.2908225,309.29733,503.084)" />
      <path
         id="path31"
         d="m 2.4163688,0.0045796 7.0013524,9.0679e-4 -0.00377,-9.79646079 5.3070198,-0.00928 c 3.267428,0.00391 3.733757,2.8027703 3.929474,5.5173264 0.05937,0.7477379 0.178448,3.37599923 0.783894,4.28166659 l 6.933465,0.00868501 c -0.954615,-0.98703493 -1.054669,-4.9323589 -1.144219,-6.0670586 -0.216039,-2.5564646 -1.049089,-5.766432 -3.911309,-6.43578 l -0.0029,-0.07856 c 2.832618,-1.10741 4.230359,-3.844729 4.221771,-6.74458 0.0072,-5.428256 -4.65648,-7.572232 -9.402931,-7.578633 l -13.7088382,0.003 z m 6.9991455,-21.2756766 5.5640307,-0.0084 c 1.966859,0.0053 3.542153,0.900948 3.548543,2.898838 -0.0081,2.0299 -1.129939,3.167856 -3.238396,3.16264 l -5.8734133,0.0094 z m 0,0"
         style="fill:#231f20;fill-opacity:1;fill-rule:nonzero;stroke:none"
         aria-label="R"
         transform="matrix(1.2139797,-0.55139002,0.55139002,1.2139797,349.67733,492.22133)" />
      <path
         id="path32"
         d="m 2.4159965,-0.00478568 21.8120975,0.004220645 -0.002,-6.022627765 -14.8079237,0.00211 -3.694e-4,-5.1190692 13.1698161,0.0014 0.0067,-5.424575 -13.1698152,-0.0014 -0.00436,-4.712801 14.4113942,4.09e-4 -0.006,-5.61636 -21.4155682,-0.0067 z m 0,0"
         style="fill:#231f20;fill-opacity:1;fill-rule:nonzero;stroke:none"
         aria-label="E"
         transform="matrix(1.1080431,-0.7416321,0.7416321,1.1080431,385.70933,475.45333)" />
      <path
         id="path33"
         d="M 0.86304237,-9.0317696 C 0.9021215,-2.1336862 6.3735803,0.56191752 12.543674,0.56805333 18.464717,0.56739785 24.250115,-1.6172258 24.255366,-8.4424173 c -5e-5,-4.8512937 -3.910866,-6.6628917 -7.785073,-7.7544537 -3.931841,-1.081004 -7.8032102,-1.467789 -7.8018162,-3.541047 -0.00344,-1.774526 1.8833742,-2.29654 3.3843352,-2.297518 2.156058,-0.0019 4.442736,0.787248 4.331795,3.237991 l 7.007352,-0.0019 c -0.03103,-6.060826 -5.415783,-8.660326 -10.764528,-8.657298 -5.0586192,-9e-5 -10.963984,2.297058 -10.9652822,8.168421 0.00331,4.934094 4.018832,6.666938 7.8685245,7.767758 3.8821617,1.082957 7.7230157,1.5372845 7.7167837,3.9092741 0.004,1.9984124 -2.181082,2.7394746 -4.28746,2.7393831 -2.976756,0.00926 -4.9320945,-1.0002028 -5.0896029,-4.1618631 z m 0,0"
         style="fill:#231f20;fill-opacity:1;fill-rule:nonzero;stroke:none"
         aria-label="S"
         transform="matrix(0.97912962,-0.90503202,0.90503202,0.97912962,416.92667,454.19467)" />
      <path
         id="path34"
         d="M 27.276244,-17.285618 C 27.07967,-23.76603 20.786569,-27.454438 14.989759,-27.447602 6.8557311,-27.450375 1.5835326,-21.247634 1.5891789,-13.446609 1.5876362,-5.654839 6.8617116,0.56135876 14.995739,0.56413249 21.819322,0.56098918 26.888797,-3.495821 27.275256,-10.429148 l -7.015782,0.0041 c -0.25261,3.0750357 -2.142829,4.9589033 -5.417412,4.9651815 -4.517187,-0.00782 -6.2466695,-3.9915826 -6.2463549,-7.9835675 3.145e-4,-3.991985 1.7304259,-7.992193 6.2476129,-7.984372 2.939514,0.0017 5.040525,1.426499 5.417141,4.146288 z m 0,0"
         style="fill:#231f20;fill-opacity:1;fill-rule:nonzero;stroke:none"
         aria-label="C"
         transform="matrix(0.81796247,-1.0529554,1.0529554,0.81796247,444.03067,429.012)" />
      <path
         id="path35"
         d="m 2.411306,0.00735103 21.810728,-0.0131793 -0.0044,-6.02414263 -14.800819,0.01121 0.00119,-5.1225011 13.170562,1.01e-4 -0.0025,-5.426489 -13.1705614,-1.01e-4 0.00798,-4.713743 14.4182524,-0.0052 -0.0079,-5.609837 -21.4281613,0.0072 z m 0,0"
         style="fill:#231f20;fill-opacity:1;fill-rule:nonzero;stroke:none"
         aria-label="E"
         transform="matrix(0.63113342,-1.1744992,1.1744992,0.63113342,469.25467,395.804)" />
      <path
         id="path36"
         d="m 2.3271999,0.00421119 6.6037554,-0.00973628 0.00412,-16.75411191 0.063016,0.0034 9.3383097,16.75705728915 7.200435,-0.001507513 -0.0042,-26.89694877615 -6.581557,0.0022 0.0098,16.576164 -0.08521,0.0041 -9.3522708,-16.579109 -7.2004351,0.0015 z m 0,0"
         style="fill:#231f20;fill-opacity:1;fill-rule:nonzero;stroke:none"
         aria-label="N"
         transform="matrix(0.42775592,-1.262855,1.262855,0.42775592,487.07733,362.26133)" />
      <path
         id="path37"
         d="m 23.72979,-26.895898 -23.05696446,-0.0023 6.4649e-4,6.0224 8.01830577,0.0011 0.0034,20.87033313 7.0087922,0.00212081 -0.0034,-20.87033394 8.029866,-8.62e-4 z m 0,0"
         style="fill:#231f20;fill-opacity:1;fill-rule:nonzero;stroke:none"
         aria-label="T"
         transform="matrix(0.21807757,-1.3153783,1.3153783,0.21807757,499.676,323.59467)" />
    </g>
  </g>
</svg>
