<?xml version="1.0" encoding="UTF-8" standalone="no"?>
<!-- Created with Inkscape (http://www.inkscape.org/) -->

<svg
   version="1.1"
   id="svg1"
   width="633.4093"
   height="143.99867"
   viewBox="0 0 633.4093 143.99867"
   sodipodi:docname="Red_crescent_QATAR.svg"
   inkscape:version="1.3.2 (091e20e, 2023-11-25, custom)"
   xmlns:inkscape="http://www.inkscape.org/namespaces/inkscape"
   xmlns:sodipodi="http://sodipodi.sourceforge.net/DTD/sodipodi-0.dtd"
   xmlns="http://www.w3.org/2000/svg"
   xmlns:svg="http://www.w3.org/2000/svg">
  <defs
     id="defs1">
    <clipPath
       clipPathUnits="userSpaceOnUse"
       id="clipPath3">
      <path
         d="M 0.059998,107.999 H 475.057 V 0.06 H 0.059998 Z"
         transform="translate(-73.333002,-9.3335002)"
         id="path3" />
    </clipPath>
  </defs>
  <sodipodi:namedview
     id="namedview1"
     pagecolor="#ffffff"
     bordercolor="#666666"
     borderopacity="1.0"
     inkscape:showpageshadow="2"
     inkscape:pageopacity="0.0"
     inkscape:pagecheckerboard="0"
     inkscape:deskcolor="#d1d1d1"
     inkscape:zoom="1.4761387"
     inkscape:cx="316.70465"
     inkscape:cy="72.147691"
     inkscape:window-width="1920"
     inkscape:window-height="1017"
     inkscape:window-x="-8"
     inkscape:window-y="-8"
     inkscape:window-maximized="1"
     inkscape:current-layer="g1">
    <inkscape:page
       x="0"
       y="0"
       inkscape:label="1"
       id="page1"
       width="633.4093"
       height="143.99867"
       margin="0"
       bleed="0" />
  </sodipodi:namedview>
  <g
     id="g1"
     inkscape:groupmode="layer"
     inkscape:label="1">
    <g
       id="group-MC1">
      <path
         id="path2"
         d="m 0,0 c -24.668,0 -44.666,19.998 -44.666,44.666 0,24.668 19.998,44.666 44.666,44.666 4.935,0 9.677,-0.812 14.115,-2.29 -9.2,7.271 -20.812,11.623 -33.449,11.623 -29.823,0 -53.999,-24.176 -53.999,-53.999 0,-29.822 24.176,-53.9995 53.999,-53.9995 12.636,0 24.249,4.352 33.448,11.6225 C 9.676,0.812 4.934,0 0,0"
         style="fill:#ee2528;fill-opacity:1;fill-rule:nonzero;stroke:none"
         transform="matrix(1.3333333,0,0,-1.3333333,97.777333,131.554)"
         clip-path="url(#clipPath3)" />
      <path
         id="path4"
         d="m 0,0 4.044,-3.234 c 2.384,2.34 3.491,6.087 3.491,9.748 0,6.13 -3.107,12.514 -10.515,12.514 -7.406,0 -10.514,-6.384 -10.514,-12.514 0,-6.13 3.108,-12.516 10.514,-12.516 1.576,0 2.938,0.2979 4.215,0.8516 L -2.128,-2.469 Z M 8.94,-11.323 4.3,-7.5773 c -2.001,-1.191 -4.428,-1.83 -7.28,-1.83 -9.663,0 -14.558,7.6623 -14.558,15.9213 0,8.257 4.895,15.92 14.558,15.92 9.663,0 14.559,-7.663 14.559,-15.92 0,-4.641 -1.533,-9.111 -4.598,-12.0902 L 10.983,-8.7683 8.94,-11.323"
         style="fill:#231f20;fill-opacity:1;fill-rule:nonzero;stroke:none"
         transform="matrix(1.3333333,0,0,-1.3333333,157.09467,124.32)" />
      <path
         id="path5"
         d="m 0,0 c -1.405,-1.022 -4.129,-1.064 -6.555,-1.489 -2.384,-0.426 -4.427,-1.278 -4.427,-3.959 0,-2.384 2.043,-3.2356 4.257,-3.2356 4.767,0 6.725,2.9796 6.725,4.9806 z m 5.875,-11.28 c -0.639,-0.383 -1.447,-0.596 -2.597,-0.596 -1.873,0 -3.065,1.021 -3.065,3.4053 -2.001,-2.3413 -4.682,-3.4053 -7.747,-3.4053 -4.002,0 -7.28,1.788 -7.28,6.172 0,4.98 3.704,6.045 7.45,6.768 4.001,0.767 7.407,0.511 7.407,3.236 0,3.15 -2.597,3.661 -4.896,3.661 -3.064,0 -5.321,-0.937 -5.491,-4.172 h -3.618 c 0.213,5.448 4.427,7.364 9.322,7.364 3.959,0 8.258,-0.893 8.258,-6.045 V -6.215 c 0,-1.702 0,-2.4686 1.15,-2.4686 0.298,0 0.639,0.043 1.107,0.2129 V -11.28"
         style="fill:#231f20;fill-opacity:1;fill-rule:nonzero;stroke:none"
         transform="matrix(1.3333333,0,0,-1.3333333,196.484,120.744)" />
      <path
         id="path6"
         d="M 0,0 H 4.384 V -3.192 H 0 v -13.665 c 0,-1.661 0.468,-1.959 2.724,-1.959 h 1.66 v -3.191 H 1.617 c -3.746,0 -5.236,0.765 -5.236,4.81 V -3.192 H -7.365 V 0 h 3.746 V 6.598 L 0,6.598 V 0"
         style="fill:#231f20;fill-opacity:1;fill-rule:nonzero;stroke:none"
         transform="matrix(1.3333333,0,0,-1.3333333,215.49867,106.55333)" />
      <path
         id="path7"
         d="m 0,0 c -1.405,-1.022 -4.129,-1.064 -6.556,-1.489 -2.384,-0.426 -4.427,-1.278 -4.427,-3.959 0,-2.384 2.043,-3.2356 4.257,-3.2356 4.768,0 6.726,2.9796 6.726,4.9806 z m 5.874,-11.28 c -0.638,-0.383 -1.447,-0.596 -2.596,-0.596 -1.873,0 -3.065,1.021 -3.065,3.4053 -2.001,-2.3413 -4.683,-3.4053 -7.748,-3.4053 -4.001,0 -7.279,1.788 -7.279,6.172 0,4.98 3.704,6.045 7.45,6.768 4.001,0.767 7.406,0.511 7.406,3.236 0,3.15 -2.596,3.661 -4.895,3.661 -3.065,0 -5.321,-0.937 -5.491,-4.172 h -3.619 c 0.213,5.448 4.428,7.364 9.323,7.364 3.959,0 8.258,-0.893 8.258,-6.045 V -6.215 c 0,-1.702 0,-2.4686 1.149,-2.4686 0.298,0 0.639,0.043 1.107,0.2129 V -11.28"
         style="fill:#231f20;fill-opacity:1;fill-rule:nonzero;stroke:none"
         transform="matrix(1.3333333,0,0,-1.3333333,244.84133,120.744)" />
      <path
         id="path8"
         d="M 0,0 H 3.405 V -4.64 H 3.49 c 1.746,3.533 4.172,5.279 8.088,5.151 V -3.32 c -5.832,0 -7.96,-3.321 -7.96,-8.897 v -9.79 H 0 L 0,0"
         style="fill:#231f20;fill-opacity:1;fill-rule:nonzero;stroke:none"
         transform="matrix(1.3333333,0,0,-1.3333333,256.98667,106.55333)" />
      <path
         id="path9"
         d="m 0,0 c 3.789,0 7.024,0.979 7.024,5.406 0,2.98 -1.618,5.194 -5.406,5.194 H -8.428 V 0 Z M -12.472,14.005 H 1.83 c 5.705,0 9.238,-3.108 9.238,-7.96 0,-3.661 -1.618,-6.684 -5.278,-7.705 v -0.085 c 3.532,-0.682 4.257,-3.278 4.555,-6.258 0.254,-2.979 0.085,-6.3 1.787,-8.385 H 7.62 c -1.149,1.234 -0.511,4.512 -1.107,7.491 -0.425,2.98 -1.149,5.492 -5.065,5.492 h -9.876 v -12.983 h -4.044 v 30.393"
         style="fill:#231f20;fill-opacity:1;fill-rule:nonzero;stroke:none"
         transform="matrix(1.3333333,0,0,-1.3333333,309.26,114.04667)" />
      <path
         id="path10"
         d="m 0,0 c -0.17,3.447 -2.767,6.215 -6.342,6.215 -3.789,0 -6.045,-2.853 -6.301,-6.215 z m 3.491,-6.13 c -0.979,-4.852 -4.47,-7.492 -9.407,-7.492 -7.025,0 -10.345,4.852 -10.558,11.578 0,6.599 4.342,11.451 10.345,11.451 7.789,0 10.174,-7.279 9.961,-12.6 h -16.475 c -0.127,-3.831 2.044,-7.237 6.854,-7.237 2.98,0 5.065,1.448 5.704,4.3 h 3.576"
         style="fill:#231f20;fill-opacity:1;fill-rule:nonzero;stroke:none"
         transform="matrix(1.3333333,0,0,-1.3333333,351.09067,118.416)" />
      <path
         id="path11"
         d="m 0,0 c 4.853,0 6.726,4.172 6.726,8.301 0,4.342 -1.958,8.343 -6.939,8.343 -4.938,0 -6.598,-4.214 -6.598,-8.513 C -6.811,4.002 -4.682,0 0,0 Z M 10.216,-2.6813 H 6.598 V 0.2979 H 6.513 c -1.192,-2.4262 -4.002,-3.4902 -7.024,-3.4902 -6.768,0 -10.131,5.3633 -10.131,11.5783 0,6.215 3.32,11.451 10.046,11.451 2.256,0 5.492,-0.852 7.109,-3.448 h 0.085 v 11.323 h 3.618 V -2.6813"
         style="fill:#231f20;fill-opacity:1;fill-rule:nonzero;stroke:none"
         transform="matrix(1.3333333,0,0,-1.3333333,373.79333,132.32227)" />
      <path
         id="path12"
         d="m 0,0 c -0.852,4.3 -4.299,6.471 -8.514,6.471 -7.236,0 -10.301,-5.96 -10.301,-12.302 0,-6.94 3.065,-12.729 10.344,-12.729 5.321,0 8.386,3.746 8.769,8.77 h 4.044 c -0.766,-7.577 -5.491,-12.175 -13.153,-12.175 -9.451,0 -14.048,6.982 -14.048,15.835 0,8.813 5.023,16.006 14.388,16.006 C -2.128,9.876 3.107,6.471 4.044,0 H 0"
         style="fill:#231f20;fill-opacity:1;fill-rule:nonzero;stroke:none"
         transform="matrix(1.3333333,0,0,-1.3333333,439.91467,107.576)" />
      <path
         id="path13"
         d="M 0,0 H 3.405 V -4.64 H 3.49 c 1.746,3.533 4.172,5.279 8.088,5.151 V -3.32 c -5.831,0 -7.96,-3.321 -7.96,-8.897 v -9.79 H 0 L 0,0"
         style="fill:#231f20;fill-opacity:1;fill-rule:nonzero;stroke:none"
         transform="matrix(1.3333333,0,0,-1.3333333,451.43733,106.55333)" />
      <path
         id="path14"
         d="m 0,0 c -0.171,3.447 -2.768,6.215 -6.343,6.215 -3.789,0 -6.045,-2.853 -6.301,-6.215 z m 3.49,-6.13 c -0.979,-4.852 -4.47,-7.492 -9.407,-7.492 -7.025,0 -10.345,4.852 -10.558,11.578 0,6.599 4.342,11.451 10.345,11.451 7.79,0 10.174,-7.279 9.961,-12.6 h -16.475 c -0.127,-3.831 2.044,-7.237 6.854,-7.237 2.98,0 5.065,1.448 5.704,4.3 H 3.49"
         style="fill:#231f20;fill-opacity:1;fill-rule:nonzero;stroke:none"
         transform="matrix(1.3333333,0,0,-1.3333333,489.872,118.416)" />
      <path
         id="path15"
         d="m 0,0 c 0.128,-3.2353 2.937,-4.2568 5.917,-4.2568 2.257,0 5.321,0.5107 5.321,3.2778 0,2.81 -3.575,3.278 -7.194,4.086 -3.575,0.809 -7.194,2.001 -7.194,6.215 0,4.428 4.385,6.258 8.216,6.258 4.853,0 8.727,-1.532 9.025,-6.896 h -3.618 c -0.256,2.809 -2.725,3.704 -5.109,3.704 -2.171,0 -4.682,-0.596 -4.682,-2.81 0,-2.596 3.831,-3.022 7.194,-3.831 3.618,-0.808 7.193,-2.001 7.193,-6.258 0,-5.2351 -4.895,-6.9381 -9.365,-6.9381 -4.938,0 -9.109,2.001 -9.322,7.4491 L 0,0"
         style="fill:#231f20;fill-opacity:1;fill-rule:nonzero;stroke:none"
         transform="matrix(1.3333333,0,0,-1.3333333,502.924,126.64667)" />
      <path
         id="path16"
         d="m 0,0 c -0.554,2.767 -2.469,4.385 -5.45,4.385 -5.235,0 -6.853,-4.129 -6.853,-8.599 0,-4.044 1.831,-8.046 6.428,-8.046 3.491,0 5.577,2.043 6.044,5.364 h 3.704 c -0.809,-5.364 -4.171,-8.556 -9.705,-8.556 -6.726,0 -10.302,4.682 -10.302,11.238 0,6.598 3.405,11.791 10.386,11.791 4.981,0 8.983,-2.341 9.494,-7.577 L 0,0"
         style="fill:#231f20;fill-opacity:1;fill-rule:nonzero;stroke:none"
         transform="matrix(1.3333333,0,0,-1.3333333,548.27467,115.976)" />
      <path
         id="path17"
         d="m 0,0 c -0.171,3.447 -2.768,6.215 -6.343,6.215 -3.789,0 -6.045,-2.853 -6.301,-6.215 z m 3.49,-6.13 c -0.979,-4.852 -4.47,-7.492 -9.407,-7.492 -7.025,0 -10.345,4.852 -10.558,11.578 0,6.599 4.342,11.451 10.345,11.451 7.79,0 10.174,-7.279 9.961,-12.6 h -16.475 c -0.127,-3.831 2.044,-7.237 6.854,-7.237 2.98,0 5.065,1.448 5.704,4.3 H 3.49"
         style="fill:#231f20;fill-opacity:1;fill-rule:nonzero;stroke:none"
         transform="matrix(1.3333333,0,0,-1.3333333,579.208,118.416)" />
      <path
         id="path18"
         d="M 0,0 H 3.405 V -3.49 H 3.49 c 1.532,2.723 4.002,4.001 7.152,4.001 5.789,0 7.577,-3.321 7.577,-8.045 v -14.473 h -3.618 v 14.898 c 0,2.682 -1.704,4.427 -4.47,4.427 -4.385,0 -6.513,-2.937 -6.513,-6.896 V -22.007 H 0 L 0,0"
         style="fill:#231f20;fill-opacity:1;fill-rule:nonzero;stroke:none"
         transform="matrix(1.3333333,0,0,-1.3333333,589.30933,106.55333)" />
      <path
         id="path19"
         d="M 0,0 H 4.385 V -3.192 H 0 v -13.665 c 0,-1.661 0.469,-1.959 2.725,-1.959 h 1.66 v -3.191 H 1.619 c -3.747,0 -5.237,0.765 -5.237,4.81 V -3.192 H -7.364 V 0 h 3.746 V 6.598 L 0,6.598 V 0"
         style="fill:#231f20;fill-opacity:1;fill-rule:nonzero;stroke:none"
         transform="matrix(1.3333333,0,0,-1.3333333,627.56267,106.55333)" />
      <path
         id="path20"
         d="m 0,0 -2.073,-1.153 -2.721,-1.506 h 15.87 c -0.091,0.299 -0.203,0.59 -0.333,0.873 C 10.372,-0.985 9.849,-0.241 9.146,0.46 8.842,0.748 8.538,0.997 8.235,1.211 7.627,1.64 7.019,1.923 6.405,2.063 6.098,2.134 5.788,2.169 5.476,2.169 4.609,2.169 2.817,1.459 0,0"
         style="fill:#ffffff;fill-opacity:1;fill-rule:nonzero;stroke:none"
         transform="matrix(1.3333333,0,0,-1.3333333,219.424,50.242667)" />
      <path
         id="path21"
         d="M 0,0 C -2.104,0 -3.832,-0.817 -5.145,-2.418 L 1.9,-5.841 v 4.573 C 1.9,-0.403 1.296,0 0,0"
         style="fill:#ffffff;fill-opacity:1;fill-rule:nonzero;stroke:none"
         transform="matrix(1.3333333,0,0,-1.3333333,390.74667,49.076)" />
      <path
         id="path22"
         d="m 0,0 c -0.582,0 -1.292,-0.353 -2.111,-1.048 -0.771,-0.657 -1.341,-1.294 -1.667,-1.855 l 2.085,-1.383 c 0.137,-0.033 0.267,-0.1 0.415,-0.179 0.036,-0.019 0.073,-0.039 0.11,-0.058 0.173,0.065 0.948,0.424 2.389,1.216 0.161,0.385 0.245,0.808 0.245,1.263 C 1.466,-0.668 0.986,0 0,0"
         style="fill:#ffffff;fill-opacity:1;fill-rule:nonzero;stroke:none"
         transform="matrix(1.3333333,0,0,-1.3333333,263.14933,47.301333)" />
      <path
         id="path23"
         d="M 0,0 0.064,0.276 C 0.062,0.43 -0.01,0.592 -0.173,0.799 c 0,0 -0.04,0.048 -0.103,0.12 L -0.32,0.971 C -0.773,1.505 -2.175,3.156 -2.848,3.948 L -3.151,4.305 C -3.557,3.948 -5.554,2.19 -5.56,2.186 L -8.317,0.135 -8.357,0 H 0"
         style="fill:#ffffff;fill-opacity:1;fill-rule:nonzero;stroke:none"
         transform="matrix(1.3333333,0,0,-1.3333333,459.71867,53.788)" />
      <path
         id="path24"
         d="m 0,0 c 1.025,-0.491 2.049,-0.73 3.133,-0.73 1.582,0 3.3,0.607 5.244,1.848 L 8.023,1.543 C 7.83,1.778 7.691,1.948 7.583,2.06 6.944,2.739 6.251,3.239 5.513,3.554 5.267,3.659 5.016,3.743 4.76,3.807 4.137,3.983 3.192,4.061 1.697,4.061 H -0.984 C -1.416,3.349 -1.639,2.71 -1.639,2.165 -1.639,1.285 -1.101,0.576 0,0"
         style="fill:#ffffff;fill-opacity:1;fill-rule:nonzero;stroke:none"
         transform="matrix(1.3333333,0,0,-1.3333333,583.18667,64.597333)" />
      <path
         id="path25"
         d="M 0,0 C -0.011,0.001 -0.026,0.001 -0.043,0.002 L -0.045,-0.001 0,-0.053 V 0"
         style="fill:#231f20;fill-opacity:1;fill-rule:nonzero;stroke:none"
         transform="matrix(1.3333333,0,0,-1.3333333,527.856,59.438667)" />
      <path
         id="path26"
         d="m 0,0 h 2.839 c 0.354,0 0.684,0.042 1.002,0.104 0.28,0.055 0.545,0.136 0.8,0.239 0.421,0.172 0.815,0.397 1.177,0.704 0.799,0.705 1.292,1.329 1.516,1.895 0.09,0.227 0.148,0.447 0.148,0.655 0,0.701 -0.504,1.695 -1.521,3.024 C 5.735,6.385 5.087,5.71 5.089,5.711 c 0,0 -3.306,-3.623 -3.31,-3.626 C 1.312,1.622 0.711,0.916 0,0"
         style="fill:#ffffff;fill-opacity:1;fill-rule:nonzero;stroke:none"
         transform="matrix(1.3333333,0,0,-1.3333333,584.448,53.788)" />
      <path
         id="path27"
         d="m 0,0 0.226,0.229 c 1.34,1.359 3.21,2.195 5.554,2.485 L 5.835,2.721 5.858,2.771 6.728,4.657 6.815,4.848 6.612,4.795 C 5.702,4.564 5.087,4.429 4.637,4.429 3.286,4.429 2.188,4.781 1.275,5.486 2,6.201 2.899,6.559 4.027,6.559 4.301,6.559 4.668,6.496 5.088,6.377 L 5.152,6.359 5.194,6.412 C 5.653,7 5.867,7.454 5.867,7.842 5.867,8.225 5.639,8.682 4.549,8.682 3.131,8.682 2.025,8.273 1.172,7.432 0.156,6.343 -0.336,5.438 -0.336,4.662 -0.336,3.702 0.238,3.088 1.36,2.83 0.664,2.127 0.229,1.306 0.056,0.316 L 0,0"
         style="fill:#231f20;fill-opacity:1;fill-rule:nonzero;stroke:none"
         transform="matrix(1.3333333,0,0,-1.3333333,440.41867,29.177333)" />
      <path
         id="path28"
         d="M 0,0 -0.036,0.192 -0.171,0.05 -4.042,-4.017 -4.075,-4.052 -4.068,-4.1 c 0.419,-3.057 0.606,-4.946 0.606,-6.124 0,-0.337 0.128,-2.915 0.393,-7.881 0.038,-0.564 0.012,-1.392 -0.088,-2.686 -0.188,-1.364 -0.217,-2.259 -0.217,-2.67 v -0.292 l 0.179,0.23 c 1.692,2.178 2.637,3.692 2.974,4.765 0.494,1.566 0.744,3.305 0.744,5.17 0,2.05 -0.151,4.598 -0.436,7.368 0,-0.002 -0.029,0.324 -0.039,0.431 L 0.922,-4.934 0.912,-4.881 0,0"
         style="fill:#231f20;fill-opacity:1;fill-rule:nonzero;stroke:none"
         transform="matrix(1.3333333,0,0,-1.3333333,477.06533,29.592)" />
      <path
         id="path29"
         d="M 0,0 2.757,2.051 C 2.763,2.055 4.76,3.813 5.166,4.17 L 5.469,3.813 C 6.142,3.021 7.544,1.37 7.997,0.836 L 8.041,0.784 C 8.104,0.712 8.144,0.664 8.144,0.664 8.307,0.457 8.379,0.295 8.381,0.141 L 8.317,-0.135 H -0.04 Z m 12.627,16.006 c -0.746,0.529 -1.127,1.022 -1.13,1.465 l 0.087,0.695 0.031,0.251 L 11.42,18.254 9.332,16.517 C 9.33,16.515 8.416,15.701 8.416,15.701 8.171,15.492 8.035,15.203 8.035,14.887 8.035,14.55 8.297,14.187 8.841,13.75 8.156,11.888 6.983,10.036 5.355,8.241 L 5.08,8.589 C 5.078,8.592 4.845,8.867 4.845,8.867 c -1.579,1.861 -2.721,3.206 -3.512,4.019 -0.976,1.03 -2.075,2.06 -3.356,3.15 -0.576,0.488 -1.081,0.726 -1.543,0.726 -0.432,0 -0.886,-0.378 -1.389,-1.155 -0.704,-1.154 -1.017,-1.9 -1.017,-2.42 0,-0.862 0.66,-1.86 2.077,-3.144 l 0.005,-0.004 0.004,-0.003 c 0.312,-0.22 0.589,-0.314 0.927,-0.314 0.422,0 0.774,0.272 1.074,0.808 C -0.76,9.781 0.175,9.058 0.889,8.381 0.888,8.382 2.968,6.374 3.379,5.978 2.383,5.007 1.426,4.146 0.458,3.355 -0.434,2.629 -1.539,1.783 -3.018,0.695 L -3.05,0.672 -3.057,0.633 -3.839,-3.545 c 0.002,0.006 -0.129,-0.512 -0.129,-0.512 L -4,-4.181 H 9.42 l 0.025,0.061 1.043,2.478 c 0.386,0.799 0.575,1.442 0.575,1.961 0,0.549 -0.205,1.089 -0.629,1.65 0,0 -2.72,3.578 -3.122,4.108 l 0.283,0.271 c 1.087,1.034 1.881,1.897 2.361,2.565 -0.002,-0.003 1.998,2.586 1.998,2.586 0.002,0.002 0.13,0.182 0.207,0.291 l 0.701,-0.497 0.074,-0.052 0.059,0.068 2.393,2.736 0.075,0.086 -0.096,0.063 -2.74,1.812"
         style="fill:#231f20;fill-opacity:1;fill-rule:nonzero;stroke:none"
         transform="matrix(1.3333333,0,0,-1.3333333,448.62933,53.608)" />
      <path
         id="path30"
         d="m 0,0 0.039,0.08 1.524,3.106 0.051,0.103 -0.11,0.036 c -1.056,0.351 -1.996,0.68 -2.956,1.034 -1.166,0.497 -1.761,1.1 -1.761,1.792 V 6.434 L -3.39,6.214 C -3.931,5.544 -4.348,5.007 -4.742,4.472 -5.27,3.815 -5.651,3.166 -5.842,2.596 l -0.014,-0.042 0.02,-0.038 0.305,-0.555 0.018,-0.03 0.032,-0.014 0.942,-0.383 0.027,-0.424 c 0.513,-8.186 0.883,-14.107 1.097,-18.165 -2.653,-1.881 -5.325,-2.836 -7.944,-2.836 -3.388,0 -5.035,1.733 -5.035,5.299 0,1.355 0.277,3.037 0.825,5.002 l -0.186,0.073 c -1.825,-3.508 -2.751,-6.261 -2.751,-8.181 0,-1.785 0.64,-3.254 1.903,-4.364 1.217,-1.144 2.894,-1.726 4.982,-1.726 3.084,0 6.292,1.025 9.535,3.047 l 0.028,0.017 0.012,0.03 c 1.381,3.329 2.052,6.063 2.052,8.358 0,1.697 -0.088,3.852 -0.262,6.403 -0.147,1.438 -0.257,2.903 -0.364,4.32 L -0.765,0.274 -0.084,0.03 0,0"
         style="fill:#231f20;fill-opacity:1;fill-rule:nonzero;stroke:none"
         transform="matrix(1.3333333,0,0,-1.3333333,519.39733,37.817333)" />
      <path
         id="path31"
         d="M 0,0 -0.01,0.053 -0.924,4.934 -0.96,5.125 -1.095,4.984 -4.966,0.917 -4.999,0.882 -4.992,0.834 c 0.419,-3.057 0.606,-4.946 0.606,-6.124 0,-0.338 0.128,-2.916 0.393,-7.881 0.038,-0.564 0.011,-1.392 -0.088,-2.686 -0.189,-1.364 -0.217,-2.259 -0.217,-2.67 v -0.292 l 0.179,0.23 c 1.692,2.178 2.637,3.692 2.973,4.765 0.495,1.565 0.745,3.305 0.745,5.169 0,2.051 -0.151,4.599 -0.436,7.368 0,-0.001 -0.029,0.325 -0.039,0.432 L -0.038,-0.037 0,0"
         style="fill:#231f20;fill-opacity:1;fill-rule:nonzero;stroke:none"
         transform="matrix(1.3333333,0,0,-1.3333333,632.86533,36.169333)" />
      <path
         id="path32"
         d="M 0,0 0.002,0.003 C 0.019,0.002 0.034,0.002 0.045,0.001 V -0.052 Z M 48.45,10.86 C 49.467,9.53 49.971,8.537 49.971,7.836 49.971,7.628 49.913,7.408 49.823,7.181 49.599,6.615 49.106,5.991 48.307,5.286 47.945,4.979 47.551,4.753 47.13,4.582 46.875,4.479 46.61,4.398 46.33,4.343 46.012,4.28 45.682,4.239 45.328,4.239 h -2.839 c 0.711,0.915 1.312,1.621 1.779,2.084 0.004,0.004 3.31,3.627 3.31,3.627 -0.002,-10e-4 0.646,0.674 0.872,0.91 z M 40.559,0.193 h 2.681 c 1.495,0 2.44,-0.079 3.063,-0.255 0.256,-0.063 0.507,-0.148 0.753,-0.253 0.738,-0.314 1.431,-0.815 2.07,-1.494 0.108,-0.112 0.247,-0.282 0.44,-0.516 l 0.354,-0.426 c -1.944,-1.241 -3.662,-1.848 -5.244,-1.848 -1.084,0 -2.108,0.239 -3.133,0.73 -1.101,0.577 -1.639,1.286 -1.639,2.165 0,0.546 0.223,1.184 0.655,1.897 z m 27.295,20.419 c -0.719,0.244 -1.084,0.456 -1.179,0.564 l -0.005,0.006 -0.006,0.004 c -0.357,0.305 -0.531,0.715 -0.531,1.255 v 0.316 l -0.182,-0.258 -1.738,-2.477 c 0,-10e-4 -0.305,-0.445 -0.305,-0.445 l 0.007,0.009 c -0.241,-0.273 -0.374,-0.559 -0.374,-0.806 0,-0.517 0.417,-0.875 1.225,-1.073 L 66.054,4.239 H 50.723 c 1.847,2.129 2.754,3.625 2.754,4.558 0,1.533 -1.326,3.795 -3.942,6.722 L 49.464,15.6 49.389,15.522 46.692,12.712 C 43.688,9.52 42.048,7.675 41.03,6.344 41.029,6.343 39.607,4.447 39.45,4.239 H 17.229 c -1.205,0 -1.573,0.128 -1.684,0.204 L 15.539,4.447 15.532,4.45 C 15.26,4.583 15.11,5.01 15.11,5.654 v 17.014 l -0.167,-0.153 -3.612,-3.291 -0.032,-0.03 V 8.479 L 11.177,7.962 10.679,7.503 C 10.682,7.505 9.768,6.729 9.768,6.729 9.77,6.73 9.217,6.282 8.974,6.085 c -0.73,2.699 -1.825,5.54 -3.271,8.451 -2.138,4.453 -4.13,6.711 -5.918,6.711 -0.399,0 -0.909,-0.411 -1.473,-1.188 -0.814,-1.036 -1.193,-1.702 -1.193,-2.092 0,-0.569 0.49,-1.505 1.54,-2.943 0.235,-0.358 0.574,-0.559 0.952,-0.559 0.432,0 0.786,0.272 1.062,0.785 1.419,-1.468 2.416,-2.646 3.03,-3.586 C 4.787,10.088 5.822,7.907 6.78,5.178 6.782,5.174 6.905,4.881 6.966,4.736 5.948,4.111 4.65,3.467 2.877,2.715 2.103,2.422 1.53,2.198 1.182,2.049 -0.413,1.452 -2.56,0.826 -5.023,0.242 l 0.02,-0.197 3.9,-0.111 c 0.642,-0.017 1.04,-0.028 1.148,-0.033 v -0.004 c 1.941,0 3.326,0.047 4.359,0.148 1.316,0.155 2.268,0.426 2.915,0.829 0.683,0.361 1.391,1.024 2.159,2.02 0,0 0.695,0.887 0.695,0.887 -0.002,-0.002 0.772,0.92 1.126,1.341 V 4.434 c 0,-1.406 0.143,-2.303 0.449,-2.824 0.435,-0.849 1.316,-1.302 2.69,-1.379 0.005,-0.001 3.997,-0.022 4.648,-0.026 V 0.193 h 18.318 c -0.433,-1.207 -0.658,-2.295 -0.658,-3.228 0,-1.704 0.657,-3.049 1.955,-4 1.353,-0.958 3.023,-1.424 5.106,-1.424 2.473,0 4.557,0.629 6.193,1.869 0.605,0.474 1.083,1.09 1.465,1.885 0,-0.001 0.74,1.478 0.74,1.478 0.001,0.002 0.435,0.926 0.435,0.926 0.002,0.004 0.868,2.119 1.021,2.494 h 13.568 l 0.027,0.057 0.303,0.628 c 0.003,0.007 0.7,1.745 0.7,1.745 0.003,0.009 0.046,0.157 0.046,0.157 0.665,1.657 1.004,2.913 1.004,3.725 0,0.008 -0.712,8.742 -0.814,9.987 l 0.727,-0.246 0.083,-0.028 0.039,0.078 1.521,3.069 0.049,0.099 -0.103,0.039 -2.957,1.109"
         style="fill:#231f20;fill-opacity:1;fill-rule:nonzero;stroke:none"
         transform="matrix(1.3333333,0,0,-1.3333333,527.796,59.44)" />
      <path
         id="path33"
         d="m 0,0 -0.061,0.051 -0.063,-0.049 -1.853,-1.432 -1.809,1.395 -0.06,0.046 -0.061,-0.045 -2.436,-1.811 -0.106,-0.078 0.104,-0.081 3.002,-2.33 0.057,-0.045 0.061,0.042 1.941,1.328 1.726,-1.325 0.059,-0.046 0.061,0.044 2.392,1.738 0.104,0.077 L 2.959,-2.439 0,0"
         style="fill:#231f20;fill-opacity:1;fill-rule:nonzero;stroke:none"
         transform="matrix(1.3333333,0,0,-1.3333333,146.944,73.244)" />
      <path
         id="path34"
         d="m 0,0 c 0.643,1.053 0.929,1.708 0.929,2.123 0,0.501 -0.681,1.005 -2.023,1.499 0,0 -4.945,1.854 -5.783,2.169 1.407,1.79 3.236,2.703 5.444,2.703 0.869,0 1.721,-0.148 2.533,-0.438 l 0.091,-0.033 0.036,0.09 0.434,1.11 c 0.196,0.466 0.384,0.908 0.518,1.175 0.055,0.136 0.055,0.324 0.055,0.562 0,0.852 -0.722,1.283 -2.145,1.283 -3.72,0 -7.026,-1.979 -9.825,-5.884 -0.784,-1.098 -1.15,-1.904 -1.15,-2.535 0,-0.399 0.1,-0.685 0.296,-0.853 l 0.009,-0.007 0.011,-0.005 0.481,-0.248 c 0.416,-0.215 0.744,-0.385 1.004,-0.496 0.003,-10e-4 4.811,-1.844 5.652,-2.166 -0.841,-1.024 -2.116,-1.915 -3.914,-2.715 -1.848,-0.804 -3.546,-1.212 -5.048,-1.212 -3.534,0 -5.251,1.818 -5.251,5.557 0,1.121 0.22,2.428 0.693,4.115 l 0.173,0.628 -0.183,0.077 c -0.625,-1.103 -1.124,-2.123 -1.528,-3.118 -0.841,-1.995 -1.269,-3.712 -1.269,-5.103 0,-1.773 0.64,-3.253 1.903,-4.4 1.279,-1.163 2.938,-1.728 5.07,-1.728 2.206,0 4.503,0.576 6.83,1.712 1.174,0.517 2.411,1.306 3.673,2.342 l 0.014,0.01 1.749,2.937 C -0.521,-0.85 0,0 0,0"
         style="fill:#231f20;fill-opacity:1;fill-rule:nonzero;stroke:none"
         transform="matrix(1.3333333,0,0,-1.3333333,159.96533,59.118667)" />
      <path
         id="path35"
         d="M 0,0 0.061,-0.05 0.124,-0.002 1.976,1.43 3.742,0.036 3.802,-0.011 3.863,0.035 6.299,1.846 6.405,1.925 6.301,2.005 3.3,4.335 3.241,4.381 3.18,4.337 1.284,2.976 -0.441,4.335 -0.5,4.381 -2.997,2.6 -3.104,2.523 -3.002,2.44 0,0"
         style="fill:#231f20;fill-opacity:1;fill-rule:nonzero;stroke:none"
         transform="matrix(1.3333333,0,0,-1.3333333,260.04933,38.545333)" />
      <path
         id="path36"
         d="M 0,0 -7.045,3.423 C -5.732,5.024 -4.004,5.841 -1.9,5.841 -0.604,5.841 0,5.438 0,4.573 Z M 33.689,4.673 C 33.073,4.706 32.302,4.8 31.262,4.968 30.36,5.114 29.355,5.374 28.277,5.74 28.279,5.739 28.015,5.835 28.015,5.835 27.397,6.058 26.551,6.363 25.5,6.809 24.549,7.172 23.646,7.546 22.69,7.941 L 21.757,8.326 C 19.945,9.078 18.738,9.443 18.067,9.443 17.089,9.443 16.013,8.95 14.87,7.977 14.869,7.976 13.39,6.682 13.39,6.682 l -0.263,-0.23 0.344,0.056 0.901,0.146 C 15.423,6.653 16.856,6.234 18.632,5.407 20.137,4.688 21.315,4.027 22.33,3.339 21.525,3.08 20.809,2.739 20.213,2.307 H 2.769 c 0.007,0.315 0.045,0.806 0.128,1.627 0.088,0.819 0.131,1.451 0.131,1.933 0,2.299 -1.058,3.465 -3.145,3.465 -2.532,0 -4.747,-0.678 -6.584,-2.016 -1.72,-1.242 -2.986,-2.883 -3.875,-5.009 h -23.573 c -0.458,1.588 -1.267,3.018 -2.478,4.367 l -0.07,0.079 -0.075,-0.076 -2.521,-2.551 -0.068,-0.068 0.066,-0.071 c 1.392,-1.497 2.416,-3.065 3.049,-4.66 -0.737,-1.498 -1.686,-2.73 -2.823,-3.662 -1.364,-1.195 -2.921,-1.825 -4.505,-1.825 -1.147,0 -2.217,0.191 -3.269,0.585 l -0.333,0.124 0.218,-0.28 c 0.674,-0.859 1.447,-1.673 2.363,-2.49 1.293,-1.063 2.309,-1.578 3.111,-1.578 1.624,0 3.232,1.045 4.777,3.108 1.222,1.648 2.066,3.313 2.516,4.952 h 22.639 l 0.03,0.039 1.517,1.932 10.192,-4.956 0.083,-0.04 0.047,0.079 1.754,2.946 h 16.603 c 0.991,0 1.919,0.343 2.76,1.021 1.869,1.478 4.083,2.196 6.768,2.196 1.023,0 2.311,-0.177 3.55,-0.368 l 0.06,-0.01 0.036,0.049 2.591,3.475 -0.184,0.012 -0.566,0.037"
         style="fill:#231f20;fill-opacity:1;fill-rule:nonzero;stroke:none"
         transform="matrix(1.3333333,0,0,-1.3333333,393.28,56.864)" />
      <path
         id="path37"
         d="m 0,0 c 0.303,-0.214 0.607,-0.464 0.911,-0.751 0.703,-0.702 1.226,-1.445 1.597,-2.247 0.13,-0.283 0.242,-0.573 0.333,-0.873 h -15.87 l 2.721,1.506 2.073,1.154 c 2.817,1.459 4.609,2.168 5.476,2.168 0.312,0 0.622,-0.035 0.929,-0.105 C -1.216,0.711 -0.608,0.429 0,0 Z m 25.78,-2.312 c -1.441,-0.792 -2.216,-1.152 -2.389,-1.217 -0.037,0.02 -0.074,0.039 -0.11,0.058 -0.148,0.08 -0.278,0.146 -0.415,0.18 l -2.085,1.383 c 0.326,0.56 0.896,1.198 1.667,1.854 0.819,0.696 1.529,1.049 2.111,1.049 0.986,0 1.466,-0.669 1.466,-2.045 0,-0.454 -0.084,-0.878 -0.245,-1.262 z m 30.481,14.815 c -0.717,0.244 -1.083,0.456 -1.178,0.564 l -0.005,0.005 -0.005,0.005 c -0.357,0.303 -0.53,0.713 -0.53,1.254 v 0.317 l -0.182,-0.259 -1.74,-2.477 C 52.62,11.911 52.316,11.467 52.316,11.467 l 0.007,0.01 c -0.24,-0.273 -0.373,-0.559 -0.373,-0.806 0,-0.518 0.418,-0.876 1.225,-1.073 L 54.463,-3.871 H 27.488 c 1.224,1.765 1.825,3.343 1.825,4.818 0,0.982 -0.306,1.848 -0.935,2.65 -0.636,0.81 -1.525,1.221 -2.645,1.221 -1.405,0 -3.192,-1.086 -5.464,-3.32 -2.274,-2.23 -3.38,-3.886 -3.38,-5.062 v -0.011 l 0.003,-0.01 0.061,-0.286 H 5.611 c 0.292,0.697 0.43,1.201 0.43,1.601 0,1.355 -0.816,2.774 -2.426,4.215 -1.607,1.441 -3.21,2.171 -4.764,2.171 -1.056,0 -3.091,-0.803 -6.224,-2.452 -0.002,-10e-4 -2.816,-1.547 -2.816,-1.547 l -2.586,-1.421 c 0.442,0.988 0.677,1.955 0.677,2.879 0,0.739 -0.209,3.023 -0.595,6.959 l 0.813,-0.251 0.08,-0.024 0.039,0.074 1.565,3.032 0.053,0.1 -0.107,0.039 c -2.033,0.746 -3.544,1.355 -4.266,1.72 -0.245,0.386 -0.366,0.773 -0.366,1.182 v 0.281 c -10e-4,-10e-4 -0.178,-0.218 -0.178,-0.218 l -0.324,-0.398 c -0.376,-0.458 -0.731,-0.891 -1.069,-1.378 -0.595,-0.688 -0.968,-1.336 -1.106,-1.925 l -0.009,-0.037 0.018,-0.034 c 0.253,-0.465 0.629,-0.776 1.169,-0.981 l 1.249,-12.373 -2.268,-1.214 h -23.089 c -0.457,1.588 -1.265,3.018 -2.476,4.367 l -0.071,0.079 -0.075,-0.076 -2.523,-2.551 -0.067,-0.068 0.065,-0.07 c 1.394,-1.498 2.418,-3.066 3.05,-4.661 -0.736,-1.497 -1.685,-2.73 -2.822,-3.661 -1.364,-1.196 -2.92,-1.826 -4.504,-1.826 -1.149,0 -2.219,0.192 -3.271,0.585 l -0.334,0.125 0.22,-0.28 c 0.675,-0.861 1.447,-1.675 2.361,-2.49 1.295,-1.063 2.312,-1.579 3.112,-1.579 1.625,0 3.233,1.046 4.778,3.109 1.222,1.649 2.065,3.314 2.515,4.951 h 60.989 l 0.026,0.019 1.299,0.926 1.772,-0.933 0.022,-0.012 h 32.059 l 0.027,0.057 0.305,0.629 c 0.003,0.006 0.699,1.744 0.699,1.744 0.003,0.009 0.047,0.157 0.047,0.157 0.665,1.658 1.004,2.914 1.004,3.726 0,0.007 -0.713,8.742 -0.814,9.987 l 0.726,-0.247 0.083,-0.028 0.038,0.079 1.523,3.068 0.049,0.099 -3.062,1.149"
         style="fill:#231f20;fill-opacity:1;fill-rule:nonzero;stroke:none"
         transform="matrix(1.3333333,0,0,-1.3333333,230.404,48.626667)" />
      <path
         id="path38"
         d="M 0,0 -0.036,0.192 -0.171,0.05 -4.041,-4.017 -4.074,-4.052 -4.068,-4.1 c 0.42,-3.056 0.608,-4.946 0.608,-6.124 0,-0.336 0.132,-2.988 0.392,-7.881 0.038,-0.558 0.012,-1.386 -0.087,-2.686 -0.19,-1.366 -0.218,-2.26 -0.218,-2.67 v -0.292 l 0.179,0.23 c 1.693,2.18 2.639,3.694 2.975,4.765 0.494,1.566 0.744,3.305 0.744,5.17 0,2.05 -0.151,4.598 -0.436,7.368 0,-0.002 -0.029,0.324 -0.039,0.431 l 0.836,0.818 0.038,0.037 -0.01,0.053 L 0,0"
         style="fill:#231f20;fill-opacity:1;fill-rule:nonzero;stroke:none"
         transform="matrix(1.3333333,0,0,-1.3333333,318.784,29.592)" />
    </g>
  </g>
</svg>
