<?xml version="1.0" encoding="UTF-8" standalone="no"?>
<!-- Created with Inkscape (http://www.inkscape.org/) -->

<svg
   version="1.1"
   id="svg1"
   width="567.31732"
   height="567.31598"
   viewBox="0 0 567.31732 567.31598"
   sodipodi:docname="Zambia RC.svg"
   inkscape:version="1.3.2 (091e20e, 2023-11-25, custom)"
   xmlns:inkscape="http://www.inkscape.org/namespaces/inkscape"
   xmlns:sodipodi="http://sodipodi.sourceforge.net/DTD/sodipodi-0.dtd"
   xmlns="http://www.w3.org/2000/svg"
   xmlns:svg="http://www.w3.org/2000/svg"
   xmlns:rdf="http://www.w3.org/1999/02/22-rdf-syntax-ns#"
   xmlns:cc="http://creativecommons.org/ns#"
   xmlns:dc="http://purl.org/dc/elements/1.1/">
  <title
     id="title43">Zambia Red Cross Society</title>
  <defs
     id="defs1">
    <clipPath
       clipPathUnits="userSpaceOnUse"
       id="clipPath42">
      <path
         d="M 0,425.487 H 425.488 V 0.06 L 0,0.06 Z"
         transform="translate(-212.74401,-420.48701)"
         id="path42" />
    </clipPath>
  </defs>
  <sodipodi:namedview
     id="namedview1"
     pagecolor="#ffffff"
     bordercolor="#666666"
     borderopacity="1.0"
     inkscape:showpageshadow="2"
     inkscape:pageopacity="0.0"
     inkscape:pagecheckerboard="0"
     inkscape:deskcolor="#d1d1d1"
     inkscape:export-bgcolor="#ffffffff"
     inkscape:zoom="1.4471653"
     inkscape:cx="284.00349"
     inkscape:cy="283.65799"
     inkscape:window-width="1920"
     inkscape:window-height="1017"
     inkscape:window-x="-8"
     inkscape:window-y="-8"
     inkscape:window-maximized="1"
     inkscape:current-layer="g1">
    <inkscape:page
       x="0"
       y="0"
       inkscape:label="1"
       id="page1"
       width="567.31732"
       height="567.31598"
       margin="0"
       bleed="0"
       inkscape:export-filename="Zambia RC.jpg"
       inkscape:export-xdpi="300"
       inkscape:export-ydpi="300" />
  </sodipodi:namedview>
  <g
     id="g1"
     inkscape:groupmode="layer"
     inkscape:label="1">
    <g
       id="group-MC1">
      <path
         id="path2"
         d="m 0,0 6.687,-36.2 4.653,4.245 c 2.201,2.008 3.614,3.55 4.239,4.628 1.036,1.737 1.542,3.658 1.517,5.762 -0.024,2.104 -0.727,4.311 -2.107,6.621 l 0.704,0.641 7.07,-9.742 -22.401,-20.437 -6.702,36.253 -3.625,-3.307 c -1.406,-1.283 -2.294,-2.17 -2.662,-2.66 -0.7,-0.924 -1.207,-1.955 -1.525,-3.093 -0.317,-1.138 -0.368,-2.314 -0.153,-3.526 0.215,-1.214 0.722,-2.537 1.52,-3.967 l -0.667,-0.61 -5.865,7.77 L 0,0"
         style="fill:#231f20;fill-opacity:1;fill-rule:nonzero;stroke:#231f20;stroke-width:0.8;stroke-linecap:butt;stroke-linejoin:miter;stroke-miterlimit:10;stroke-dasharray:none;stroke-opacity:1"
         transform="matrix(1.3333333,0,0,-1.3333333,115.94133,72.344)" />
      <path
         id="path3"
         d="m 0,0 -9.338,8.19 0.293,-12.477 z m 1.524,-1.277 -10.568,-5.008 0.123,-3.509 c 0.048,-1.166 0.222,-2.065 0.522,-2.697 0.397,-0.838 1.028,-1.296 1.893,-1.372 0.509,-0.048 1.57,0.239 3.185,0.861 l 0.387,-0.816 -9.95,-4.716 -0.387,0.816 c 0.997,0.671 1.669,1.534 2.015,2.59 0.346,1.056 0.487,2.963 0.421,5.725 l -0.612,28.941 0.42,0.199 22.414,-19.421 c 2.13,-1.836 3.67,-2.899 4.617,-3.188 0.717,-0.219 1.548,-0.149 2.495,0.21 l 0.387,-0.817 -14.473,-6.858 -0.387,0.816 0.595,0.283 c 1.163,0.55 1.902,1.098 2.22,1.645 0.212,0.389 0.213,0.804 0.004,1.245 -0.125,0.265 -0.299,0.516 -0.519,0.753 -0.093,0.119 -0.575,0.566 -1.446,1.342 l -3.356,2.976"
         style="fill:#231f20;fill-opacity:1;fill-rule:nonzero;stroke:none"
         transform="matrix(1.3333333,0,0,-1.3333333,183.31067,65.593333)" />
      <path
         id="path4"
         d="M 0,0 -9.338,8.19 -9.045,-4.287 Z"
         style="fill:none;stroke:#231f20;stroke-width:0.8;stroke-linecap:butt;stroke-linejoin:miter;stroke-miterlimit:10;stroke-dasharray:none;stroke-opacity:1"
         transform="matrix(1.3333333,0,0,-1.3333333,183.31067,65.593333)" />
      <path
         id="path5"
         d="m 0,0 -10.568,-5.008 0.123,-3.509 c 0.048,-1.166 0.222,-2.065 0.522,-2.697 0.397,-0.838 1.028,-1.296 1.893,-1.372 0.509,-0.048 1.57,0.239 3.185,0.861 l 0.387,-0.816 -9.95,-4.716 -0.387,0.817 c 0.997,0.671 1.669,1.534 2.015,2.59 0.346,1.055 0.487,2.962 0.421,5.724 l -0.612,28.942 0.42,0.199 L 9.863,1.594 c 2.13,-1.837 3.67,-2.9 4.617,-3.189 0.717,-0.218 1.548,-0.149 2.495,0.21 L 17.362,-2.201 2.889,-9.06 2.502,-8.243 3.097,-7.961 c 1.163,0.55 1.902,1.099 2.22,1.646 0.212,0.388 0.213,0.803 0.004,1.245 -0.125,0.264 -0.299,0.515 -0.519,0.753 -0.093,0.119 -0.575,0.565 -1.446,1.342 z"
         style="fill:none;stroke:#231f20;stroke-width:0.8;stroke-linecap:butt;stroke-linejoin:miter;stroke-miterlimit:10;stroke-dasharray:none;stroke-opacity:1"
         transform="matrix(1.3333333,0,0,-1.3333333,185.34267,67.296)" />
      <path
         id="path6"
         d="m 0,0 6.692,22.635 13.406,1.385 0.092,-0.899 -1.068,-0.11 C 18.15,22.91 17.391,22.66 16.843,22.26 16.462,21.991 16.178,21.577 15.99,21.019 15.852,20.611 15.867,19.59 16.036,17.955 L 18.28,-3.756 c 0.174,-1.683 0.371,-2.726 0.594,-3.129 0.221,-0.403 0.623,-0.733 1.207,-0.992 0.582,-0.259 1.336,-0.341 2.259,-0.245 l 1.068,0.11 0.093,-0.898 -17.193,-1.777 -0.093,0.898 1.068,0.111 c 0.972,0.1 1.731,0.351 2.279,0.75 0.38,0.269 0.665,0.691 0.851,1.267 0.138,0.407 0.121,1.436 -0.05,3.088 l -2.522,24.405 -9.523,-31.345 -0.583,-0.06 -15.904,28.496 2.397,-23.192 c 0.167,-1.619 0.31,-2.61 0.43,-2.974 0.294,-0.788 0.82,-1.401 1.576,-1.837 0.758,-0.438 1.889,-0.578 3.394,-0.423 l 0.093,-0.898 -11.268,-1.165 -0.093,0.898 0.34,0.035 c 0.731,0.06 1.399,0.247 2.004,0.564 0.605,0.316 1.048,0.701 1.328,1.156 0.281,0.454 0.471,1.07 0.57,1.851 0.014,0.18 -0.055,1.007 -0.207,2.481 l -2.154,20.837 c -0.172,1.667 -0.369,2.698 -0.59,3.093 -0.22,0.394 -0.623,0.72 -1.205,0.979 -0.584,0.259 -1.336,0.341 -2.259,0.245 l -1.044,-0.107 -0.093,0.898 13.453,1.391 L 0,0"
         style="fill:#231f20;fill-opacity:1;fill-rule:nonzero;stroke:#231f20;stroke-width:0.8;stroke-linecap:butt;stroke-linejoin:miter;stroke-miterlimit:10;stroke-dasharray:none;stroke-opacity:1"
         transform="matrix(1.3333333,0,0,-1.3333333,259.024,44.865333)" />
      <path
         id="path7"
         d="M 0,0 C 2.253,-0.516 3.973,-0.642 5.16,-0.379 6.347,-0.115 7.332,0.41 8.113,1.2 8.894,1.99 9.449,3.099 9.775,4.527 10.101,5.955 10.087,7.19 9.732,8.231 9.378,9.272 8.731,10.15 7.793,10.865 6.854,11.581 5.225,12.195 2.905,12.709 Z m -0.424,-1.856 -2.367,-10.354 -0.296,-1.184 c -0.195,-0.857 -0.126,-1.553 0.211,-2.089 0.337,-0.536 0.933,-0.903 1.791,-1.099 1.268,-0.29 2.503,-0.275 3.703,0.043 1.2,0.318 2.208,0.948 3.023,1.889 0.817,0.94 1.375,2.068 1.676,3.385 0.345,1.507 0.305,2.94 -0.119,4.297 -0.425,1.358 -1.193,2.414 -2.307,3.17 -1.112,0.755 -2.884,1.402 -5.315,1.942 z m 8.94,-0.767 c 2.899,-1.414 4.852,-2.77 5.857,-4.068 1.447,-1.851 1.908,-3.926 1.382,-6.227 -0.555,-2.428 -1.99,-4.212 -4.304,-5.353 -2.835,-1.371 -6.537,-1.536 -11.106,-0.491 l -16.399,3.748 0.201,0.881 c 1.491,-0.341 2.534,-0.433 3.13,-0.277 0.595,0.156 1.051,0.433 1.366,0.827 0.316,0.396 0.673,1.466 1.073,3.211 l 4.787,20.944 c 0.399,1.745 0.543,2.87 0.432,3.37 -0.111,0.501 -0.405,0.949 -0.882,1.341 -0.479,0.394 -1.456,0.759 -2.931,1.096 L -8.677,17.26 6.794,13.724 C 10.49,12.878 13.033,11.95 14.422,10.94 15.81,9.93 16.799,8.669 17.388,7.157 17.977,5.645 18.104,4.15 17.766,2.675 17.411,1.12 16.531,-0.136 15.128,-1.092 13.723,-2.048 11.519,-2.558 8.516,-2.623"
         style="fill:#231f20;fill-opacity:1;fill-rule:nonzero;stroke:none"
         transform="matrix(1.3333333,0,0,-1.3333333,335.096,39.646667)" />
      <path
         id="path8"
         d="M 0,0 C 2.253,-0.516 3.973,-0.642 5.16,-0.379 6.347,-0.115 7.332,0.41 8.113,1.2 8.894,1.99 9.449,3.099 9.775,4.527 10.101,5.955 10.087,7.19 9.732,8.231 9.378,9.272 8.731,10.15 7.793,10.865 6.854,11.581 5.225,12.195 2.905,12.709 Z"
         style="fill:none;stroke:#231f20;stroke-width:0.8;stroke-linecap:butt;stroke-linejoin:miter;stroke-miterlimit:10;stroke-dasharray:none;stroke-opacity:1"
         transform="matrix(1.3333333,0,0,-1.3333333,335.096,39.646667)" />
      <path
         id="path9"
         d="m 0,0 -2.367,-10.354 -0.296,-1.184 c -0.195,-0.857 -0.126,-1.553 0.211,-2.089 0.337,-0.536 0.933,-0.902 1.791,-1.099 1.268,-0.29 2.503,-0.275 3.703,0.043 1.2,0.319 2.208,0.949 3.023,1.889 0.817,0.94 1.375,2.068 1.676,3.386 0.345,1.507 0.305,2.939 -0.119,4.297 -0.425,1.357 -1.193,2.414 -2.307,3.17 C 4.203,-1.187 2.431,-0.54 0,0 Z"
         style="fill:none;stroke:#231f20;stroke-width:0.8;stroke-linecap:butt;stroke-linejoin:miter;stroke-miterlimit:10;stroke-dasharray:none;stroke-opacity:1"
         transform="matrix(1.3333333,0,0,-1.3333333,334.53067,42.121333)" />
      <path
         id="path10"
         d="m 0,0 c 2.899,-1.414 4.852,-2.771 5.857,-4.068 1.447,-1.851 1.908,-3.926 1.382,-6.227 -0.555,-2.428 -1.99,-4.212 -4.304,-5.353 -2.835,-1.372 -6.537,-1.536 -11.106,-0.491 l -16.399,3.748 0.201,0.881 c 1.491,-0.341 2.534,-0.433 3.13,-0.277 0.595,0.156 1.051,0.433 1.366,0.827 0.316,0.395 0.673,1.466 1.073,3.211 l 4.787,20.944 c 0.399,1.745 0.543,2.87 0.432,3.37 -0.111,0.501 -0.405,0.949 -0.882,1.341 -0.479,0.394 -1.456,0.759 -2.931,1.096 l 0.201,0.881 15.471,-3.536 C 1.974,15.501 4.517,14.573 5.906,13.563 7.294,12.553 8.283,11.292 8.872,9.78 9.461,8.268 9.588,6.773 9.25,5.298 8.895,3.743 8.015,2.487 6.612,1.531 5.207,0.575 3.003,0.065 0,0 Z"
         style="fill:none;stroke:#231f20;stroke-width:0.8;stroke-linecap:butt;stroke-linejoin:miter;stroke-miterlimit:10;stroke-dasharray:none;stroke-opacity:1"
         transform="matrix(1.3333333,0,0,-1.3333333,346.45067,43.144)" />
      <path
         id="path11"
         d="m 0,0 -0.414,-0.804 -15.39,7.924 0.415,0.803 0.976,-0.503 c 0.854,-0.44 1.619,-0.642 2.297,-0.606 0.48,0.009 0.948,0.207 1.404,0.595 0.338,0.266 0.887,1.136 1.648,2.612 l 9.968,19.363 c 0.774,1.504 1.179,2.486 1.213,2.944 0.035,0.458 -0.118,0.953 -0.457,1.485 -0.339,0.532 -0.922,1.01 -1.747,1.435 l -0.976,0.503 0.414,0.803 15.389,-7.923 -0.414,-0.804 -0.976,0.503 c -0.854,0.44 -1.619,0.642 -2.297,0.606 C 10.572,28.927 10.097,28.732 9.627,28.353 9.288,28.087 8.739,27.216 7.98,25.74 L -1.988,6.378 C -2.763,4.873 -3.165,3.89 -3.191,3.428 -3.22,2.966 -3.063,2.47 -2.723,1.938 -2.384,1.405 -1.802,0.928 -0.976,0.503 L 0,0"
         style="fill:#231f20;fill-opacity:1;fill-rule:nonzero;stroke:#231f20;stroke-width:0.8;stroke-linecap:butt;stroke-linejoin:miter;stroke-miterlimit:10;stroke-dasharray:none;stroke-opacity:1"
         transform="matrix(1.3333333,0,0,-1.3333333,397.23867,87.653333)" />
      <path
         id="path12"
         d="M 0,0 3.955,11.775 -7.443,6.691 Z M -0.59,-1.898 -9.287,5.92 -12.476,4.453 c -1.057,-0.494 -1.82,-1.001 -2.287,-1.521 -0.62,-0.69 -0.799,-1.449 -0.536,-2.277 0.152,-0.487 0.827,-1.355 2.022,-2.606 l -0.604,-0.672 -8.188,7.362 0.605,0.671 c 1.002,-0.661 2.058,-0.947 3.166,-0.86 1.107,0.088 2.921,0.694 5.444,1.82 l 26.466,11.728 0.345,-0.311 -9.273,-28.171 c -0.872,-2.674 -1.259,-4.504 -1.16,-5.489 0.074,-0.745 0.459,-1.485 1.155,-2.221 l -0.603,-0.672 -11.911,10.708 0.604,0.671 0.49,-0.44 c 0.956,-0.86 1.748,-1.33 2.375,-1.412 0.44,-0.046 0.823,0.112 1.151,0.475 0.195,0.218 0.36,0.475 0.494,0.77 0.074,0.131 0.3,0.748 0.679,1.851 l 1.452,4.245"
         style="fill:#231f20;fill-opacity:1;fill-rule:nonzero;stroke:none"
         transform="matrix(1.3333333,0,0,-1.3333333,445.952,106.86)" />
      <path
         id="path13"
         d="M 0,0 3.955,11.775 -7.443,6.691 Z"
         style="fill:none;stroke:#231f20;stroke-width:0.8;stroke-linecap:butt;stroke-linejoin:miter;stroke-miterlimit:10;stroke-dasharray:none;stroke-opacity:1"
         transform="matrix(1.3333333,0,0,-1.3333333,445.952,106.86)" />
      <path
         id="path14"
         d="m 0,0 -8.697,7.818 -3.189,-1.466 c -1.057,-0.494 -1.82,-1.001 -2.287,-1.522 -0.62,-0.689 -0.799,-1.448 -0.536,-2.276 0.152,-0.488 0.827,-1.356 2.022,-2.607 l -0.604,-0.672 -8.188,7.363 0.605,0.671 c 1.002,-0.662 2.058,-0.948 3.166,-0.861 1.107,0.088 2.921,0.695 5.444,1.821 l 26.466,11.727 0.345,-0.31 -9.273,-28.171 c -0.872,-2.674 -1.259,-4.504 -1.16,-5.49 0.074,-0.745 0.459,-1.485 1.155,-2.22 l -0.603,-0.672 -11.911,10.708 0.604,0.671 0.49,-0.441 c 0.956,-0.859 1.748,-1.33 2.375,-1.412 0.44,-0.046 0.823,0.112 1.151,0.476 0.195,0.218 0.36,0.474 0.494,0.769 0.074,0.131 0.3,0.748 0.679,1.852 z"
         style="fill:none;stroke:#231f20;stroke-width:0.8;stroke-linecap:butt;stroke-linejoin:miter;stroke-miterlimit:10;stroke-dasharray:none;stroke-opacity:1"
         transform="matrix(1.3333333,0,0,-1.3333333,445.16533,109.39067)" />
      <path
         id="path15"
         d="m 0,0 -14.237,-2.76 0.264,-1.366 c 0.431,-2.221 0.957,-3.843 1.578,-4.867 0.622,-1.023 1.524,-1.748 2.709,-2.173 1.185,-0.425 2.632,-0.472 4.342,-0.141 2.477,0.48 4.194,1.414 5.153,2.802 0.957,1.387 1.187,3.368 0.688,5.94 z m -15.939,-3.089 -9.108,-1.766 c -1.758,-0.341 -2.843,-0.663 -3.257,-0.967 -0.413,-0.304 -0.703,-0.754 -0.869,-1.35 -0.167,-0.596 -0.105,-1.637 0.182,-3.123 l -0.887,-0.172 -3.224,16.634 0.887,0.171 c 0.291,-1.501 0.628,-2.493 1.012,-2.974 0.383,-0.481 0.819,-0.786 1.308,-0.915 0.49,-0.129 1.613,-0.023 3.371,0.317 l 21.091,4.089 c 1.758,0.341 2.844,0.663 3.257,0.967 0.414,0.304 0.704,0.754 0.87,1.349 0.166,0.597 0.106,1.638 -0.182,3.123 l 0.886,0.172 2.927,-15.099 c 0.763,-3.931 1.048,-6.86 0.859,-8.786 -0.191,-1.927 -0.906,-3.608 -2.145,-5.041 -1.238,-1.434 -2.841,-2.342 -4.807,-2.723 -2.396,-0.465 -4.544,0.015 -6.445,1.436 -1.205,0.911 -2.247,2.309 -3.126,4.194 l -9.486,-9.945 c -1.225,-1.299 -1.971,-2.198 -2.239,-2.698 -0.368,-0.751 -0.492,-1.562 -0.373,-2.434 l -0.886,-0.172 -1.985,10.234 12.783,13.345 -0.414,2.134"
         style="fill:#231f20;fill-opacity:1;fill-rule:nonzero;stroke:none"
         transform="matrix(1.3333333,0,0,-1.3333333,60.672,320.64267)" />
      <path
         id="path16"
         d="m 0,0 -14.237,-2.76 0.264,-1.366 c 0.431,-2.221 0.957,-3.843 1.578,-4.867 0.622,-1.023 1.524,-1.748 2.709,-2.173 1.185,-0.425 2.632,-0.472 4.342,-0.141 2.477,0.48 4.194,1.414 5.153,2.802 0.957,1.387 1.187,3.368 0.688,5.94 z"
         style="fill:none;stroke:#231f20;stroke-width:0.8;stroke-linecap:butt;stroke-linejoin:miter;stroke-miterlimit:10;stroke-dasharray:none;stroke-opacity:1"
         transform="matrix(1.3333333,0,0,-1.3333333,60.672,320.64267)" />
      <path
         id="path17"
         d="m 0,0 -9.108,-1.766 c -1.758,-0.341 -2.843,-0.663 -3.257,-0.967 -0.413,-0.304 -0.703,-0.754 -0.869,-1.35 -0.167,-0.596 -0.106,-1.637 0.181,-3.123 l -0.886,-0.172 -3.224,16.634 0.887,0.171 c 0.291,-1.501 0.628,-2.493 1.011,-2.974 0.383,-0.481 0.82,-0.786 1.309,-0.915 0.489,-0.129 1.612,-0.023 3.37,0.317 l 21.092,4.089 c 1.758,0.341 2.844,0.663 3.257,0.967 0.414,0.304 0.704,0.754 0.87,1.349 0.166,0.597 0.105,1.638 -0.183,3.123 l 0.887,0.172 2.927,-15.099 c 0.762,-3.931 1.047,-6.86 0.858,-8.786 -0.19,-1.927 -0.905,-3.608 -2.144,-5.041 -1.239,-1.434 -2.841,-2.342 -4.807,-2.723 -2.397,-0.465 -4.545,0.015 -6.445,1.436 -1.205,0.911 -2.247,2.309 -3.126,4.194 l -9.487,-9.945 c -1.224,-1.299 -1.97,-2.198 -2.238,-2.698 -0.368,-0.751 -0.492,-1.562 -0.373,-2.434 l -0.887,-0.172 -1.984,10.234 12.782,13.345 z"
         style="fill:none;stroke:#231f20;stroke-width:0.8;stroke-linecap:butt;stroke-linejoin:miter;stroke-miterlimit:10;stroke-dasharray:none;stroke-opacity:1"
         transform="matrix(1.3333333,0,0,-1.3333333,39.42,324.76133)" />
      <path
         id="path18"
         d="m 0,0 -12.457,-5.143 0.252,-0.609 c 0.801,-1.94 1.991,-3.096 3.569,-3.465 1.579,-0.37 3.607,-0.184 6.083,0.557 l 0.355,-0.858 -16.023,-6.615 -0.354,0.858 c 1.671,0.901 2.943,1.871 3.817,2.91 0.874,1.039 1.345,2.02 1.412,2.946 0.067,0.926 -0.201,2.118 -0.803,3.577 L -22.77,-9.4 c -1.685,-0.696 -2.686,-1.193 -3.003,-1.492 -0.318,-0.297 -0.516,-0.692 -0.594,-1.182 -0.08,-0.49 0.06,-1.172 0.421,-2.045 l 0.755,-1.827 c 1.179,-2.859 2.787,-4.876 4.823,-6.052 2.034,-1.177 4.561,-1.581 7.58,-1.216 l 0.345,-0.835 -10.295,-2.639 -10.919,26.449 0.835,0.344 0.419,-1.015 c 0.367,-0.888 0.82,-1.537 1.359,-1.948 0.372,-0.305 0.857,-0.456 1.456,-0.456 0.429,-0.016 1.411,0.292 2.945,0.925 l 20.13,8.311 c 1.384,0.571 2.219,0.96 2.503,1.166 0.465,0.368 0.756,0.813 0.874,1.338 0.186,0.746 0.074,1.615 -0.337,2.607 l -0.419,1.016 0.835,0.345 10.575,-25.613 -9.049,-3.736 -0.355,0.857 c 2.032,1.35 3.366,2.617 4.002,3.805 0.637,1.187 0.883,2.597 0.738,4.228 -0.077,0.954 -0.593,2.589 -1.55,4.906 L 0,0"
         style="fill:#231f20;fill-opacity:1;fill-rule:nonzero;stroke:#231f20;stroke-width:0.8;stroke-linecap:butt;stroke-linejoin:miter;stroke-miterlimit:10;stroke-dasharray:none;stroke-opacity:1"
         transform="matrix(1.3333333,0,0,-1.3333333,73.056,366.10933)" />
      <path
         id="path19"
         d="m 0,0 -21.457,-14.38 c -1.136,-0.761 -1.796,-1.281 -1.98,-1.562 -0.185,-0.281 -0.259,-0.594 -0.221,-0.942 0.041,-0.501 0.293,-1.097 0.756,-1.786 1.512,-2.258 3.438,-3.465 5.777,-3.622 3.169,-0.228 6.944,1.127 11.325,4.063 3.53,2.365 5.977,4.809 7.343,7.33 1.061,1.985 1.426,3.866 1.097,5.644 C 2.406,-4.001 1.526,-2.249 0,0 Z m -32.966,-6.899 0.75,0.503 0.612,-0.912 c 0.535,-0.798 1.07,-1.326 1.605,-1.584 0.535,-0.258 1.088,-0.344 1.656,-0.257 0.366,0.069 1.258,0.579 2.678,1.53 L -7.574,4.505 c 1.406,0.942 2.235,1.605 2.487,1.99 0.252,0.384 0.358,0.891 0.318,1.521 -0.04,0.629 -0.318,1.33 -0.834,2.1 l -0.612,0.912 0.75,0.503 8.25,-12.31 c 2.202,-3.286 3.527,-6.228 3.976,-8.828 0.545,-3.18 0.132,-6.146 -1.238,-8.896 -1.371,-2.75 -3.456,-5.063 -6.253,-6.938 -1.935,-1.296 -3.924,-2.179 -5.97,-2.649 -2.046,-0.47 -3.931,-0.567 -5.653,-0.291 -1.723,0.275 -3.338,0.844 -4.846,1.704 -1.508,0.862 -3.063,2.107 -4.664,3.737 -0.715,0.716 -1.666,1.96 -2.853,3.731 l -8.25,12.31"
         style="fill:#231f20;fill-opacity:1;fill-rule:nonzero;stroke:none"
         transform="matrix(1.3333333,0,0,-1.3333333,92.209333,404.052)" />
      <path
         id="path20"
         d="m 0,0 -21.457,-14.38 c -1.136,-0.761 -1.796,-1.281 -1.98,-1.562 -0.185,-0.281 -0.259,-0.594 -0.221,-0.942 0.041,-0.501 0.293,-1.097 0.756,-1.786 1.512,-2.258 3.438,-3.465 5.777,-3.622 3.169,-0.228 6.944,1.127 11.325,4.063 3.53,2.365 5.977,4.809 7.343,7.33 1.061,1.985 1.426,3.866 1.097,5.644 C 2.406,-4.001 1.526,-2.249 0,0 Z"
         style="fill:none;stroke:#231f20;stroke-width:0.8;stroke-linecap:butt;stroke-linejoin:miter;stroke-miterlimit:10;stroke-dasharray:none;stroke-opacity:1"
         transform="matrix(1.3333333,0,0,-1.3333333,92.209333,404.052)" />
      <path
         id="path21"
         d="m 0,0 0.75,0.503 0.611,-0.912 c 0.535,-0.798 1.071,-1.326 1.606,-1.584 0.535,-0.258 1.088,-0.344 1.656,-0.257 0.365,0.069 1.258,0.579 2.678,1.53 l 18.091,12.124 c 1.406,0.942 2.235,1.605 2.487,1.99 0.252,0.384 0.357,0.891 0.317,1.521 -0.04,0.629 -0.317,1.33 -0.834,2.1 l -0.611,0.912 0.75,0.503 8.25,-12.31 c 2.202,-3.286 3.526,-6.228 3.976,-8.828 0.544,-3.18 0.131,-6.146 -1.239,-8.896 -1.37,-2.75 -3.455,-5.063 -6.253,-6.938 -1.934,-1.296 -3.923,-2.179 -5.969,-2.649 -2.046,-0.47 -3.931,-0.567 -5.654,-0.291 -1.722,0.275 -3.338,0.844 -4.845,1.704 -1.508,0.862 -3.063,2.107 -4.664,3.737 -0.715,0.716 -1.667,1.96 -2.853,3.731 z"
         style="fill:none;stroke:#231f20;stroke-width:0.8;stroke-linecap:butt;stroke-linejoin:miter;stroke-miterlimit:10;stroke-dasharray:none;stroke-opacity:1"
         transform="matrix(1.3333333,0,0,-1.3333333,48.254667,413.25067)" />
      <path
         id="path22"
         d="m 0,0 -7.3,-8.852 -0.735,0.605 c 1.352,2.767 1.783,5.386 1.292,7.86 -0.493,2.473 -1.694,4.497 -3.602,6.071 -1.595,1.315 -3.436,2.063 -5.523,2.244 -2.086,0.181 -4.049,-0.216 -5.886,-1.19 -2.355,-1.244 -4.489,-3.028 -6.406,-5.351 -1.884,-2.285 -3.312,-4.604 -4.282,-6.958 -0.97,-2.353 -1.237,-4.518 -0.799,-6.494 0.439,-1.975 1.638,-3.77 3.597,-5.386 1.607,-1.325 3.369,-2.188 5.286,-2.588 1.918,-0.399 4.326,-0.35 7.227,0.149 l -1.818,-2.204 c -2.664,-0.314 -5.047,-0.167 -7.152,0.44 -2.105,0.608 -4.193,1.765 -6.265,3.473 -2.725,2.248 -4.695,4.79 -5.91,7.627 -1.215,2.838 -1.553,5.753 -1.014,8.747 0.539,2.994 1.76,5.646 3.667,7.958 2.008,2.435 4.55,4.221 7.627,5.354 3.076,1.134 6.195,1.411 9.355,0.83 3.16,-0.581 5.958,-1.876 8.395,-3.884 1.795,-1.481 3.37,-3.434 4.724,-5.859 0.783,-1.405 1.331,-2.236 1.645,-2.496 0.402,-0.331 0.872,-0.471 1.411,-0.419 0.538,0.052 1.115,0.362 1.731,0.93 L 0,0"
         style="fill:#231f20;fill-opacity:1;fill-rule:nonzero;stroke:#231f20;stroke-width:0.8;stroke-linecap:butt;stroke-linejoin:miter;stroke-miterlimit:10;stroke-dasharray:none;stroke-opacity:1"
         transform="matrix(1.3333333,0,0,-1.3333333,157.93467,468.41733)" />
      <path
         id="path23"
         d="m 0,0 -6.721,-12.85 1.233,-0.645 c 2.005,-1.049 3.601,-1.649 4.788,-1.802 1.188,-0.152 2.316,0.102 3.389,0.763 1.071,0.661 2.009,1.763 2.817,3.307 1.169,2.235 1.51,4.16 1.023,5.774 -0.488,1.614 -1.892,3.028 -4.214,4.243 z m -7.524,-14.385 -4.3,-8.222 c -0.83,-1.586 -1.255,-2.636 -1.275,-3.149 -0.021,-0.512 0.15,-1.02 0.512,-1.522 0.363,-0.501 1.214,-1.103 2.556,-1.805 l -0.419,-0.8 -15.014,7.853 0.419,0.8 c 1.356,-0.709 2.341,-1.064 2.956,-1.064 0.615,-0.001 1.125,0.151 1.532,0.452 0.406,0.302 1.023,1.247 1.853,2.833 L -8.747,0.03 c 0.83,1.586 1.255,2.635 1.276,3.148 0.02,0.513 -0.152,1.021 -0.513,1.521 -0.362,0.502 -1.214,1.104 -2.556,1.806 l 0.419,0.8 13.629,-7.128 c 3.548,-1.855 6.016,-3.459 7.404,-4.81 1.387,-1.349 2.255,-2.956 2.604,-4.819 0.347,-1.862 0.058,-3.681 -0.869,-5.455 -1.132,-2.163 -2.846,-3.544 -5.143,-4.143 -1.463,-0.374 -3.206,-0.317 -5.227,0.171 l 1.858,-13.618 c 0.252,-1.766 0.489,-2.91 0.713,-3.43 0.357,-0.757 0.914,-1.361 1.671,-1.811 l -0.419,-0.801 -9.237,4.832 -2.462,18.314 -1.925,1.008"
         style="fill:#231f20;fill-opacity:1;fill-rule:nonzero;stroke:none"
         transform="matrix(1.3333333,0,0,-1.3333333,173.46,481.016)" />
      <path
         id="path24"
         d="m 0,0 -6.721,-12.85 1.233,-0.645 c 2.005,-1.049 3.601,-1.649 4.788,-1.802 1.188,-0.152 2.316,0.102 3.389,0.763 1.071,0.661 2.009,1.763 2.817,3.307 1.169,2.235 1.51,4.16 1.023,5.774 -0.488,1.614 -1.892,3.028 -4.214,4.243 z"
         style="fill:none;stroke:#231f20;stroke-width:0.8;stroke-linecap:butt;stroke-linejoin:miter;stroke-miterlimit:10;stroke-dasharray:none;stroke-opacity:1"
         transform="matrix(1.3333333,0,0,-1.3333333,173.46,481.016)" />
      <path
         id="path25"
         d="m 0,0 -4.3,-8.222 c -0.83,-1.586 -1.255,-2.636 -1.275,-3.149 -0.021,-0.512 0.15,-1.02 0.512,-1.522 0.363,-0.501 1.214,-1.103 2.556,-1.805 l -0.419,-0.8 -15.014,7.853 0.419,0.8 c 1.356,-0.709 2.341,-1.064 2.956,-1.064 0.615,-0.001 1.125,0.151 1.532,0.452 0.406,0.302 1.023,1.247 1.853,2.833 l 9.957,19.039 c 0.83,1.586 1.255,2.635 1.276,3.148 0.02,0.513 -0.152,1.021 -0.513,1.521 -0.362,0.502 -1.214,1.104 -2.556,1.806 l 0.419,0.8 13.629,-7.128 c 3.548,-1.855 6.016,-3.459 7.404,-4.81 1.387,-1.349 2.255,-2.956 2.604,-4.819 0.347,-1.862 0.058,-3.681 -0.869,-5.455 -1.132,-2.163 -2.846,-3.544 -5.143,-4.143 -1.463,-0.374 -3.206,-0.317 -5.227,0.171 l 1.858,-13.618 c 0.252,-1.766 0.489,-2.91 0.713,-3.43 0.357,-0.757 0.914,-1.361 1.671,-1.811 l -0.419,-0.801 -9.237,4.832 -2.462,18.314 z"
         style="fill:none;stroke:#231f20;stroke-width:0.8;stroke-linecap:butt;stroke-linejoin:miter;stroke-miterlimit:10;stroke-dasharray:none;stroke-opacity:1"
         transform="matrix(1.3333333,0,0,-1.3333333,163.428,500.196)" />
      <path
         id="path26"
         d="m 0,0 c -2.924,0.785 -5.55,-0.112 -7.876,-2.689 -1.9,-2.119 -3.467,-5.474 -4.699,-10.063 -1.465,-5.455 -1.589,-9.745 -0.371,-12.869 0.845,-2.182 2.471,-3.595 4.877,-4.242 1.619,-0.434 3.076,-0.404 4.372,0.09 1.653,0.635 3.162,1.953 4.525,3.955 1.363,2.001 2.522,4.778 3.476,8.331 1.135,4.229 1.591,7.498 1.369,9.808 C 5.45,-5.37 4.846,-3.62 3.86,-2.427 2.874,-1.236 1.587,-0.427 0,0 Z m 0.122,1.584 c 5.144,-1.178 8.883,-3.775 11.218,-7.79 2.335,-4.014 2.864,-8.395 1.59,-13.142 -1.089,-4.055 -3.235,-7.305 -6.435,-9.748 -4.242,-3.243 -9.231,-4.094 -14.969,-2.554 -5.753,1.545 -9.677,4.689 -11.775,9.431 -1.656,3.748 -1.917,7.736 -0.781,11.965 1.274,4.747 3.952,8.27 8.033,10.571 4.081,2.3 8.454,2.723 13.119,1.267"
         style="fill:#231f20;fill-opacity:1;fill-rule:nonzero;stroke:none"
         transform="matrix(1.3333333,0,0,-1.3333333,225.36667,501.02933)" />
      <path
         id="path27"
         d="m 0,0 c -2.924,0.785 -5.55,-0.112 -7.876,-2.689 -1.9,-2.119 -3.467,-5.474 -4.699,-10.063 -1.465,-5.455 -1.589,-9.745 -0.371,-12.869 0.845,-2.182 2.471,-3.595 4.877,-4.242 1.619,-0.434 3.076,-0.404 4.372,0.09 1.653,0.635 3.162,1.953 4.525,3.955 1.363,2.001 2.522,4.778 3.476,8.331 1.135,4.229 1.591,7.498 1.369,9.808 C 5.45,-5.37 4.846,-3.62 3.86,-2.427 2.874,-1.236 1.587,-0.427 0,0 Z"
         style="fill:none;stroke:#231f20;stroke-width:0.8;stroke-linecap:butt;stroke-linejoin:miter;stroke-miterlimit:10;stroke-dasharray:none;stroke-opacity:1"
         transform="matrix(1.3333333,0,0,-1.3333333,225.36667,501.02933)" />
      <path
         id="path28"
         d="m 0,0 c 5.144,-1.178 8.883,-3.775 11.218,-7.79 2.335,-4.014 2.864,-8.395 1.59,-13.142 -1.089,-4.055 -3.235,-7.305 -6.435,-9.748 -4.242,-3.243 -9.231,-4.094 -14.969,-2.554 -5.753,1.545 -9.677,4.689 -11.775,9.431 -1.656,3.748 -1.917,7.736 -0.781,11.965 1.274,4.747 3.952,8.27 8.033,10.571 C -9.038,1.033 -4.665,1.456 0,0 Z"
         style="fill:none;stroke:#231f20;stroke-width:0.8;stroke-linecap:butt;stroke-linejoin:miter;stroke-miterlimit:10;stroke-dasharray:none;stroke-opacity:1"
         transform="matrix(1.3333333,0,0,-1.3333333,225.52933,498.91733)" />
      <path
         id="path29"
         d="m 0,0 -0.539,-11.025 -0.998,0.073 c -0.268,2.794 -1.263,5.099 -2.981,6.913 -1.72,1.816 -3.651,2.802 -5.793,2.959 -1.657,0.121 -2.999,-0.225 -4.03,-1.039 -1.031,-0.813 -1.588,-1.797 -1.672,-2.949 -0.054,-0.731 0.069,-1.393 0.368,-1.985 0.415,-0.798 1.114,-1.609 2.098,-2.431 0.724,-0.592 2.415,-1.67 5.075,-3.236 3.724,-2.183 6.198,-4.167 7.421,-5.955 1.208,-1.786 1.732,-3.766 1.572,-5.941 -0.202,-2.76 -1.451,-5.055 -3.748,-6.886 -2.297,-1.83 -5.101,-2.624 -8.412,-2.382 -1.039,0.077 -2.013,0.254 -2.923,0.534 -0.91,0.278 -2.041,0.761 -3.395,1.448 -0.755,0.382 -1.385,0.591 -1.887,0.628 -0.422,0.031 -0.881,-0.099 -1.375,-0.389 -0.496,-0.291 -0.913,-0.757 -1.253,-1.401 l -0.902,0.065 0.914,12.467 0.902,-0.066 c 0.457,-3.559 1.636,-6.334 3.539,-8.326 1.901,-1.992 4.029,-3.074 6.383,-3.246 1.818,-0.133 3.303,0.255 4.456,1.166 1.151,0.911 1.775,2.025 1.872,3.339 0.057,0.78 -0.095,1.55 -0.455,2.311 -0.361,0.761 -0.939,1.501 -1.735,2.219 -0.796,0.72 -2.226,1.685 -4.292,2.898 -2.894,1.697 -4.961,3.113 -6.199,4.249 -1.239,1.135 -2.164,2.37 -2.776,3.704 -0.613,1.334 -0.862,2.772 -0.749,4.315 0.193,2.628 1.323,4.798 3.39,6.507 2.068,1.709 4.57,2.455 7.508,2.241 1.071,-0.08 2.101,-0.286 3.088,-0.619 0.749,-0.251 1.651,-0.68 2.709,-1.288 1.057,-0.608 1.805,-0.927 2.243,-0.96 0.422,-0.031 0.764,0.075 1.026,0.317 0.263,0.241 0.536,0.849 0.82,1.825 L 0,0"
         style="fill:#231f20;fill-opacity:1;fill-rule:nonzero;stroke:#231f20;stroke-width:0.8;stroke-linecap:butt;stroke-linejoin:miter;stroke-miterlimit:10;stroke-dasharray:none;stroke-opacity:1"
         transform="matrix(1.3333333,0,0,-1.3333333,279.90133,506.51467)" />
      <path
         id="path30"
         d="m 0,0 1.085,-10.985 -0.998,-0.074 c -0.676,2.724 -1.997,4.858 -3.964,6.401 -1.967,1.543 -4.022,2.235 -6.165,2.076 -1.655,-0.123 -2.933,-0.663 -3.833,-1.619 -0.9,-0.957 -1.307,-2.012 -1.221,-3.163 0.053,-0.731 0.272,-1.367 0.655,-1.91 0.527,-0.729 1.339,-1.427 2.434,-2.096 0.801,-0.48 2.632,-1.298 5.494,-2.456 4.004,-1.612 6.742,-3.213 8.215,-4.801 1.457,-1.589 2.265,-3.471 2.427,-5.645 0.205,-2.76 -0.694,-5.214 -2.697,-7.362 -2.003,-2.148 -4.66,-3.345 -7.971,-3.591 -1.039,-0.078 -2.029,-0.044 -2.969,0.097 -0.941,0.143 -2.131,0.454 -3.571,0.935 -0.803,0.266 -1.456,0.382 -1.96,0.343 -0.422,-0.031 -0.855,-0.226 -1.302,-0.585 -0.447,-0.361 -0.791,-0.883 -1.034,-1.571 l -0.901,-0.067 -0.927,12.466 0.902,0.067 c 0.974,-3.453 2.548,-6.025 4.723,-7.716 2.173,-1.691 4.438,-2.449 6.791,-2.274 1.818,0.136 3.229,0.738 4.236,1.808 1.004,1.071 1.46,2.263 1.362,3.578 -0.059,0.779 -0.321,1.518 -0.789,2.218 -0.469,0.7 -1.15,1.347 -2.042,1.942 -0.894,0.594 -2.45,1.34 -4.671,2.235 -3.112,1.254 -5.364,2.352 -6.756,3.293 -1.392,0.94 -2.489,2.026 -3.291,3.256 -0.801,1.229 -1.259,2.615 -1.373,4.158 -0.195,2.629 0.604,4.941 2.398,6.935 1.793,1.994 4.16,3.1 7.098,3.318 1.07,0.08 2.119,0.026 3.145,-0.158 0.777,-0.138 1.734,-0.43 2.869,-0.876 1.135,-0.446 1.921,-0.653 2.359,-0.62 0.422,0.031 0.744,0.185 0.969,0.464 0.225,0.277 0.404,0.919 0.543,1.924 L 0,0"
         style="fill:#231f20;fill-opacity:1;fill-rule:nonzero;stroke:#231f20;stroke-width:0.8;stroke-linecap:butt;stroke-linejoin:miter;stroke-miterlimit:10;stroke-dasharray:none;stroke-opacity:1"
         transform="matrix(1.3333333,0,0,-1.3333333,313.11867,504.61733)" />
      <path
         id="path31"
         d="m 0,0 3.612,-10.43 -0.953,-0.305 c -1.291,2.492 -3.073,4.26 -5.346,5.303 -2.271,1.043 -4.431,1.237 -6.477,0.584 -1.581,-0.505 -2.699,-1.329 -3.352,-2.467 -0.653,-1.141 -0.803,-2.261 -0.452,-3.362 0.223,-0.697 0.584,-1.265 1.083,-1.704 0.683,-0.586 1.634,-1.076 2.854,-1.472 0.891,-0.28 2.864,-0.649 5.916,-1.11 4.268,-0.635 7.304,-1.554 9.106,-2.756 1.786,-1.207 3.012,-2.848 3.675,-4.925 0.842,-2.637 0.538,-5.233 -0.909,-7.787 -1.449,-2.556 -3.754,-4.338 -6.916,-5.348 -0.992,-0.317 -1.963,-0.516 -2.911,-0.597 -0.949,-0.08 -2.178,-0.054 -3.69,0.077 -0.843,0.074 -1.505,0.033 -1.985,-0.121 -0.405,-0.129 -0.781,-0.42 -1.131,-0.874 -0.352,-0.453 -0.565,-1.042 -0.641,-1.767 l -0.86,-0.275 -3.802,11.908 0.86,0.275 c 1.752,-3.132 3.881,-5.267 6.389,-6.404 2.508,-1.139 4.886,-1.35 7.134,-0.631 1.736,0.553 2.969,1.468 3.699,2.744 0.729,1.274 0.893,2.54 0.491,3.796 -0.237,0.744 -0.665,1.402 -1.284,1.973 -0.617,0.572 -1.429,1.043 -2.436,1.414 -1.007,0.37 -2.695,0.732 -5.064,1.086 -3.318,0.496 -5.763,1.039 -7.337,1.63 -1.573,0.591 -2.891,1.392 -3.958,2.401 -1.065,1.009 -1.833,2.251 -2.303,3.724 -0.802,2.512 -0.564,4.946 0.717,7.302 1.282,2.357 3.325,3.983 6.131,4.88 1.024,0.327 2.055,0.519 3.096,0.578 0.787,0.047 1.785,-0.015 2.993,-0.185 1.208,-0.169 2.021,-0.187 2.439,-0.053 0.404,0.129 0.681,0.354 0.836,0.677 0.152,0.322 0.179,0.988 0.078,1.999 L 0,0"
         style="fill:#231f20;fill-opacity:1;fill-rule:nonzero;stroke:#231f20;stroke-width:0.8;stroke-linecap:butt;stroke-linejoin:miter;stroke-miterlimit:10;stroke-dasharray:none;stroke-opacity:1"
         transform="matrix(1.3333333,0,0,-1.3333333,363.58933,491.79067)" />
      <path
         id="path32"
         d="m 0,0 c -2.657,-1.449 -3.94,-3.91 -3.845,-7.38 0.087,-2.845 1.267,-6.354 3.542,-10.526 2.703,-4.959 5.574,-8.149 8.61,-9.571 2.118,-0.995 4.271,-0.897 6.458,0.295 1.471,0.802 2.506,1.83 3.102,3.082 0.759,1.599 0.941,3.594 0.546,5.984 -0.394,2.39 -1.471,5.199 -3.232,8.429 -2.096,3.843 -4.021,6.525 -5.775,8.044 C 7.651,-0.126 6.005,0.725 4.47,0.906 2.933,1.089 1.444,0.786 0,0 Z m -1.004,1.232 c 4.537,2.695 9.035,3.396 13.494,2.101 4.46,-1.295 7.866,-4.1 10.218,-8.416 2.01,-3.686 2.701,-7.518 2.07,-11.496 -0.833,-5.273 -3.857,-9.332 -9.073,-12.176 -5.23,-2.851 -10.241,-3.285 -15.03,-1.299 -3.785,1.57 -6.725,4.278 -8.822,8.122 -2.352,4.315 -2.846,8.713 -1.479,13.194 1.368,4.48 4.241,7.804 8.622,9.97"
         style="fill:#231f20;fill-opacity:1;fill-rule:nonzero;stroke:none"
         transform="matrix(1.3333333,0,0,-1.3333333,391.39333,481.23333)" />
      <path
         id="path33"
         d="m 0,0 c -2.657,-1.449 -3.94,-3.91 -3.845,-7.38 0.087,-2.845 1.267,-6.354 3.542,-10.526 2.703,-4.959 5.574,-8.149 8.61,-9.571 2.118,-0.995 4.271,-0.897 6.458,0.295 1.471,0.802 2.506,1.83 3.102,3.082 0.759,1.599 0.941,3.594 0.546,5.984 -0.394,2.39 -1.471,5.199 -3.232,8.429 -2.096,3.843 -4.021,6.525 -5.775,8.044 C 7.651,-0.126 6.005,0.725 4.47,0.906 2.933,1.089 1.444,0.786 0,0 Z"
         style="fill:none;stroke:#231f20;stroke-width:0.8;stroke-linecap:butt;stroke-linejoin:miter;stroke-miterlimit:10;stroke-dasharray:none;stroke-opacity:1"
         transform="matrix(1.3333333,0,0,-1.3333333,391.39333,481.23333)" />
      <path
         id="path34"
         d="m 0,0 c 4.537,2.695 9.035,3.396 13.494,2.101 4.46,-1.295 7.866,-4.1 10.218,-8.416 2.01,-3.686 2.701,-7.518 2.07,-11.496 -0.833,-5.273 -3.857,-9.332 -9.073,-12.176 -5.23,-2.851 -10.241,-3.285 -15.03,-1.299 -3.785,1.57 -6.725,4.278 -8.822,8.122 -2.352,4.315 -2.846,8.713 -1.479,13.194 C -7.254,-5.49 -4.381,-2.166 0,0 Z"
         style="fill:none;stroke:#231f20;stroke-width:0.8;stroke-linecap:butt;stroke-linejoin:miter;stroke-miterlimit:10;stroke-dasharray:none;stroke-opacity:1"
         transform="matrix(1.3333333,0,0,-1.3333333,390.05467,479.59067)" />
      <path
         id="path35"
         d="M 0,0 7.535,-8.653 6.818,-9.278 c -2.507,1.787 -5.021,2.641 -7.541,2.562 -2.52,-0.08 -4.713,-0.932 -6.58,-2.556 -1.559,-1.358 -2.598,-3.052 -3.12,-5.08 -0.519,-2.03 -0.451,-4.031 0.209,-6.002 0.841,-2.527 2.25,-4.926 4.227,-7.197 1.946,-2.234 4,-4.022 6.162,-5.366 2.163,-1.343 4.254,-1.961 6.275,-1.851 2.021,0.108 3.989,0.996 5.903,2.664 1.572,1.367 2.712,2.965 3.42,4.79 0.709,1.826 1.054,4.21 1.039,7.153 l 1.876,-2.154 c -0.127,-2.68 -0.663,-5.008 -1.607,-6.985 -0.945,-1.976 -2.429,-3.846 -4.455,-5.61 -2.663,-2.319 -5.494,-3.846 -8.492,-4.579 -2.998,-0.733 -5.93,-0.588 -8.795,0.434 -2.865,1.023 -5.281,2.664 -7.248,4.922 -2.074,2.381 -3.418,5.183 -4.031,8.404 -0.615,3.219 -0.375,6.341 0.716,9.364 1.09,3.021 2.827,5.569 5.208,7.643 1.755,1.529 3.94,2.762 6.554,3.701 1.514,0.541 2.424,0.945 2.732,1.213 0.392,0.341 0.608,0.783 0.645,1.322 0.037,0.54 -0.174,1.16 -0.633,1.861 L 0,0"
         style="fill:#231f20;fill-opacity:1;fill-rule:nonzero;stroke:#231f20;stroke-width:0.8;stroke-linecap:butt;stroke-linejoin:miter;stroke-miterlimit:10;stroke-dasharray:none;stroke-opacity:1"
         transform="matrix(1.3333333,0,0,-1.3333333,445.13067,438.12133)" />
      <path
         id="path36"
         d="m 0,0 0.688,-0.586 -11.228,-13.174 -0.687,0.586 0.712,0.836 c 0.623,0.732 0.995,1.431 1.115,2.098 0.101,0.469 0.015,0.97 -0.259,1.504 -0.181,0.389 -0.903,1.123 -2.167,2.199 L -28.4,7.59 c -1.288,1.097 -2.151,1.716 -2.59,1.854 -0.437,0.138 -0.955,0.103 -1.55,-0.106 -0.595,-0.21 -1.194,-0.667 -1.796,-1.373 l -0.713,-0.836 -0.687,0.586 11.228,13.174 0.688,-0.586 -0.713,-0.836 c -0.623,-0.732 -0.994,-1.431 -1.114,-2.098 -0.101,-0.471 -0.021,-0.977 0.243,-1.522 0.181,-0.39 0.903,-1.123 2.166,-2.201 L -6.664,-0.48 c 1.289,-1.097 2.155,-1.712 2.598,-1.844 0.444,-0.133 0.963,-0.094 1.558,0.115 0.596,0.209 1.194,0.667 1.795,1.373 L 0,0"
         style="fill:#231f20;fill-opacity:1;fill-rule:nonzero;stroke:#231f20;stroke-width:0.8;stroke-linecap:butt;stroke-linejoin:miter;stroke-miterlimit:10;stroke-dasharray:none;stroke-opacity:1"
         transform="matrix(1.3333333,0,0,-1.3333333,493.95467,447.72133)" />
      <path
         id="path37"
         d="m 0,0 11.371,-7.233 0.354,0.556 c 1.127,1.772 1.387,3.409 0.782,4.914 C 11.9,-0.259 10.583,1.293 8.553,2.893 L 9.051,3.676 23.677,-5.627 23.179,-6.41 c -1.699,0.848 -3.224,1.331 -4.575,1.449 -1.354,0.117 -2.428,-0.063 -3.223,-0.54 -0.796,-0.478 -1.617,-1.383 -2.465,-2.715 l 7.869,-5.005 c 1.539,-0.978 2.521,-1.512 2.947,-1.6 0.426,-0.087 0.863,-0.023 1.309,0.195 0.447,0.217 0.924,0.723 1.432,1.52 l 1.06,1.669 c 1.66,2.609 2.386,5.084 2.178,7.426 -0.209,2.341 -1.33,4.641 -3.365,6.9 l 0.484,0.762 8.079,-6.904 -15.356,-24.143 -0.763,0.485 0.59,0.927 c 0.515,0.81 0.786,1.554 0.811,2.232 0.036,0.479 -0.119,0.964 -0.463,1.453 -0.234,0.36 -1.051,0.986 -2.453,1.878 L -1.1,-8.734 c -1.263,0.804 -2.06,1.263 -2.392,1.378 -0.569,0.168 -1.101,0.151 -1.598,-0.054 -0.717,-0.278 -1.363,-0.869 -1.939,-1.776 l -0.59,-0.927 -0.762,0.485 L 6.49,13.753 14.752,8.499 14.254,7.716 C 11.981,8.601 10.177,8.964 8.84,8.802 7.502,8.639 6.207,8.03 4.957,6.974 4.221,6.362 3.18,4.999 1.834,2.884 L 0,0"
         style="fill:#231f20;fill-opacity:1;fill-rule:nonzero;stroke:#231f20;stroke-width:0.8;stroke-linecap:butt;stroke-linejoin:miter;stroke-miterlimit:10;stroke-dasharray:none;stroke-opacity:1"
         transform="matrix(1.3333333,0,0,-1.3333333,472.36133,408.26667)" />
      <path
         id="path38"
         d="M 0,0 8.33,-3.3 8.006,-4.116 C 5.893,-3.84 4.299,-3.83 3.225,-4.087 2.151,-4.345 1.161,-4.889 0.254,-5.721 -0.246,-6.187 -0.781,-7.139 -1.35,-8.577 l -0.908,-2.293 23.742,-9.404 c 1.575,-0.623 2.592,-0.926 3.055,-0.908 0.462,0.018 0.941,0.222 1.438,0.613 0.495,0.389 0.917,1.023 1.264,1.901 l 0.405,1.022 0.839,-0.333 -6.383,-16.117 -0.84,0.333 0.405,1.022 c 0.354,0.893 0.479,1.675 0.378,2.345 -0.057,0.477 -0.297,0.931 -0.722,1.362 -0.297,0.311 -1.218,0.771 -2.761,1.383 l -23.742,9.404 -0.881,-2.225 c -0.822,-2.073 -0.978,-3.752 -0.472,-5.038 0.703,-1.801 2.121,-3.327 4.254,-4.573 l -0.342,-0.863 -8.33,3.3 L 0,0"
         style="fill:#231f20;fill-opacity:1;fill-rule:nonzero;stroke:#231f20;stroke-width:0.8;stroke-linecap:butt;stroke-linejoin:miter;stroke-miterlimit:10;stroke-dasharray:none;stroke-opacity:1"
         transform="matrix(1.3333333,0,0,-1.3333333,498.86133,347.50933)" />
      <path
         id="path39"
         d="m 0,0 0.889,-0.159 c -0.048,-1.1 0.117,-1.98 0.494,-2.643 0.529,-0.922 2.138,-2.516 4.823,-4.783 l 10.535,-9.177 7.882,-1.412 c 1.683,-0.301 2.744,-0.4 3.184,-0.297 0.44,0.103 0.863,0.387 1.269,0.852 0.405,0.464 0.686,1.129 0.84,1.994 l 0.327,1.827 0.89,-0.159 -3.274,-18.289 -0.89,0.159 0.306,1.707 c 0.172,0.961 0.139,1.752 -0.096,2.373 -0.15,0.456 -0.476,0.854 -0.978,1.192 -0.352,0.245 -1.345,0.514 -2.98,0.806 l -6.537,1.171 -15.334,-5.167 c -3.029,-1.029 -4.843,-1.811 -5.444,-2.348 -0.6,-0.538 -1.002,-1.325 -1.205,-2.364 l -0.888,0.159 2.797,15.621 0.888,-0.159 -0.125,-0.698 c -0.169,-0.945 -0.15,-1.631 0.055,-2.055 0.205,-0.426 0.459,-0.665 0.764,-0.72 0.576,-0.104 2.14,0.278 4.693,1.143 l 11.845,3.957 -8.78,7.624 C 3.809,-7.958 2.345,-6.943 1.56,-6.802 1.127,-6.725 0.729,-6.869 0.366,-7.234 -0.132,-7.707 -0.551,-8.666 -0.892,-10.108 L -1.781,-9.949 0,0"
         style="fill:#231f20;fill-opacity:1;fill-rule:nonzero;stroke:#231f20;stroke-width:0.8;stroke-linecap:butt;stroke-linejoin:miter;stroke-miterlimit:10;stroke-dasharray:none;stroke-opacity:1"
         transform="matrix(1.3333333,0,0,-1.3333333,507.796,300.34933)" />
      <path
         id="path40"
         d="m 0,0 c -86.563,0 -156.987,-70.424 -156.987,-156.987 0,-86.563 70.424,-156.986 156.987,-156.986 86.562,0 156.986,70.423 156.986,156.986 C 156.986,-70.424 86.562,0 0,0 Z m 0,-318.973 c -89.32,0 -161.987,72.667 -161.987,161.986 C -161.987,-67.667 -89.32,5 0,5 89.319,5 161.986,-67.667 161.986,-156.987 161.986,-246.306 89.319,-318.973 0,-318.973"
         style="fill:#231f20;fill-opacity:1;fill-rule:nonzero;stroke:none"
         transform="matrix(1.3333333,0,0,-1.3333333,283.65867,74.342667)" />
      <path
         id="path41"
         d="m 0,0 c -114.551,0 -207.744,-93.194 -207.744,-207.744 0,-114.55 93.193,-207.743 207.744,-207.743 114.55,0 207.744,93.193 207.744,207.743 C 207.744,-93.194 114.55,0 0,0 Z m 0,-420.487 c -117.308,0 -212.744,95.436 -212.744,212.743 C -212.744,-90.436 -117.308,5 0,5 117.307,5 212.744,-90.436 212.744,-207.744 212.744,-325.051 117.307,-420.487 0,-420.487"
         style="fill:#231f20;fill-opacity:1;fill-rule:nonzero;stroke:none"
         transform="matrix(1.3333333,0,0,-1.3333333,283.65867,6.6666667)"
         clip-path="url(#clipPath42)" />
      <path
         id="path43"
         d="m 0,0 h -81.695 v 81.695 h -81.696 V 0 h -81.695 v -81.696 h 81.695 v -81.695 h 81.696 v 81.695 H 0 V 0"
         style="fill:#ed1c24;fill-opacity:1;fill-rule:nonzero;stroke:none"
         transform="matrix(1.3333333,0,0,-1.3333333,447.04933,229.19467)" />
    </g>
  </g>
  <metadata
     id="metadata43">
    <rdf:RDF>
      <cc:Work
         rdf:about="">
        <dc:title>Zambia Red Cross Society</dc:title>
      </cc:Work>
    </rdf:RDF>
  </metadata>
</svg>
