<?xml version="1.0" encoding="UTF-8" standalone="no"?>
<!-- Created with Inkscape (http://www.inkscape.org/) -->

<svg
   version="1.1"
   id="svg1"
   width="180.7"
   height="216.08533"
   viewBox="0 0 180.7 216.08533"
   sodipodi:docname="CostaRica RC vertical.svg"
   inkscape:version="1.3.2 (091e20e, 2023-11-25, custom)"
   xmlns:inkscape="http://www.inkscape.org/namespaces/inkscape"
   xmlns:sodipodi="http://sodipodi.sourceforge.net/DTD/sodipodi-0.dtd"
   xmlns="http://www.w3.org/2000/svg"
   xmlns:svg="http://www.w3.org/2000/svg">
  <defs
     id="defs1">
    <clipPath
       clipPathUnits="userSpaceOnUse"
       id="clipPath12">
      <path
         d="M 0.060005,162.064 H 135.525 V 0 H 0.060005 Z"
         transform="translate(-14.261001,-17.449)"
         id="path12" />
    </clipPath>
  </defs>
  <sodipodi:namedview
     id="namedview1"
     pagecolor="#ffffff"
     bordercolor="#666666"
     borderopacity="1.0"
     inkscape:showpageshadow="2"
     inkscape:pageopacity="0.0"
     inkscape:pagecheckerboard="0"
     inkscape:deskcolor="#d1d1d1"
     inkscape:export-bgcolor="#ffffffff"
     inkscape:zoom="3.7994251"
     inkscape:cx="90.408415"
     inkscape:cy="108.04266"
     inkscape:window-width="1920"
     inkscape:window-height="1017"
     inkscape:window-x="-8"
     inkscape:window-y="-8"
     inkscape:window-maximized="1"
     inkscape:current-layer="g1">
    <inkscape:page
       x="0"
       y="0"
       inkscape:label="1"
       id="page1"
       width="180.7"
       height="216.08533"
       margin="0"
       bleed="0"
       inkscape:export-filename="CostaRica RC vertical.png"
       inkscape:export-xdpi="300"
       inkscape:export-ydpi="300" />
  </sodipodi:namedview>
  <g
     id="g1"
     inkscape:groupmode="layer"
     inkscape:label="1">
    <g
       id="group-MC1">
      <path
         id="path2"
         d="M 0,0 H -33.824 V 33.824 H -67.648 V 0 h -33.824 v -33.824 h 33.824 v -33.824 h 33.824 v 33.824 H 0 V 0"
         style="fill:#ed1c24;fill-opacity:1;fill-rule:nonzero;stroke:none"
         transform="matrix(1.3333333,0,0,-1.3333333,157.86533,45.098667)" />
      <path
         id="path3"
         d="M 0,0 0.381,-5.672 H 0 c -0.5,1.689 -1.225,2.91 -2.172,3.66 -0.948,0.751 -2.081,1.126 -3.402,1.126 -1.099,0 -2.096,-0.279 -2.99,-0.837 -0.894,-0.558 -1.6,-1.456 -2.117,-2.694 -0.516,-1.24 -0.775,-2.769 -0.775,-4.59 0,-0.772 0.058,-1.475 0.172,-2.111 0.115,-0.635 0.3,-1.241 0.554,-1.814 0.484,-1.107 1.212,-1.957 2.184,-2.548 0.972,-0.59 2.082,-0.886 3.329,-0.886 1.091,0 2.049,0.232 2.873,0.696 0.824,0.464 1.733,1.384 2.725,2.762 l 0.382,-0.246 c -0.837,-1.476 -1.811,-2.561 -2.923,-3.255 -1.112,-0.693 -2.438,-1.04 -3.98,-1.04 -2.757,0 -4.898,1.026 -6.424,3.076 -1.131,1.527 -1.697,3.323 -1.697,5.39 0,1.665 0.369,3.192 1.107,4.577 0.738,1.387 1.768,2.468 3.089,3.243 1.32,0.775 2.751,1.163 4.294,1.163 1.197,0 2.387,-0.295 3.568,-0.886 0.361,-0.181 0.607,-0.271 0.739,-0.271 0.221,0 0.414,0.078 0.578,0.234 0.205,0.214 0.357,0.521 0.455,0.923 L 0,0"
         style="fill:#231f20;fill-opacity:1;fill-rule:nonzero;stroke:none"
         transform="matrix(1.3333333,0,0,-1.3333333,41.86,156.82)" />
      <path
         id="path4"
         d="M 0,0 V -2.535 C 0.936,-0.845 1.903,0 2.904,0 c 0.443,0 0.814,-0.138 1.114,-0.412 0.299,-0.276 0.449,-0.593 0.449,-0.955 0,-0.328 -0.107,-0.6 -0.32,-0.818 -0.213,-0.217 -0.468,-0.326 -0.763,-0.326 -0.287,0 -0.609,0.142 -0.966,0.425 -0.357,0.283 -0.621,0.425 -0.794,0.425 -0.156,0 -0.315,-0.082 -0.479,-0.247 C 0.775,-2.236 0.394,-2.789 0,-3.569 v -5.402 c 0,-0.623 0.078,-1.095 0.234,-1.415 0.098,-0.221 0.285,-0.405 0.56,-0.554 0.274,-0.147 0.666,-0.22 1.175,-0.22 v -0.444 h -5.771 v 0.444 c 0.566,0 0.992,0.089 1.28,0.27 0.188,0.114 0.332,0.324 0.43,0.627 0.041,0.148 0.062,0.546 0.062,1.194 v 4.368 c 0,1.321 -0.027,2.102 -0.08,2.344 -0.054,0.242 -0.152,0.422 -0.295,0.541 -0.144,0.119 -0.323,0.179 -0.535,0.179 -0.239,0 -0.526,-0.062 -0.862,-0.185 L -3.925,-1.378 -0.517,0 H 0"
         style="fill:#231f20;fill-opacity:1;fill-rule:nonzero;stroke:none"
         transform="matrix(1.3333333,0,0,-1.3333333,49.488,164.104)" />
      <path
         id="path5"
         d="m 0,0 v -6.829 c 0,-1.322 0.029,-2.122 0.086,-2.4 0.058,-0.279 0.156,-0.478 0.296,-0.598 0.139,-0.118 0.299,-0.177 0.479,-0.177 0.263,0 0.55,0.069 0.862,0.209 l 0.172,-0.431 -3.372,-1.391 H -2.03 v 2.388 c -0.944,-1.026 -1.676,-1.68 -2.197,-1.963 -0.52,-0.283 -1.064,-0.425 -1.63,-0.425 -0.632,0 -1.179,0.183 -1.642,0.548 -0.464,0.366 -0.786,0.839 -0.966,1.421 -0.181,0.583 -0.271,1.391 -0.271,2.424 v 5.033 c 0,0.541 -0.055,0.908 -0.166,1.101 -0.111,0.193 -0.279,0.346 -0.505,0.462 -0.225,0.115 -0.637,0.172 -1.237,0.172 V 0 h 3.951 v -7.543 c 0,-1.051 0.184,-1.74 0.553,-2.068 0.369,-0.328 0.808,-0.492 1.317,-0.492 0.336,0 0.73,0.11 1.181,0.332 0.451,0.222 0.988,0.645 1.612,1.268 v 6.385 c 0,0.649 -0.119,1.08 -0.357,1.292 -0.115,0.116 -0.289,0.206 -0.523,0.272 -0.233,0.065 -0.544,0.098 -0.929,0.098 l 0,0.456 H 0"
         style="fill:#231f20;fill-opacity:1;fill-rule:nonzero;stroke:none"
         transform="matrix(1.3333333,0,0,-1.3333333,69.454667,164.54667)" />
      <path
         id="path6"
         d="m 0,0 -0.137,-3.458 h -9.941 l 0.005,0.439 7.477,9.969 -3.692,0.002 C -7.084,6.952 -7.605,6.901 -7.851,6.798 -8.097,6.695 -8.298,6.501 -8.454,6.214 -8.569,6 -8.661,5.765 -8.731,5.506 -8.8,5.247 -8.836,4.975 -8.836,4.688 h -0.492 l 0.075,3.126 h 9.45 V 7.358 l -7.556,-9.992 h 4.11 c 0.878,0 1.466,0.073 1.766,0.216 0.299,0.144 0.543,0.396 0.731,0.757 0.123,0.262 0.234,0.815 0.334,1.661 L 0,0"
         style="fill:#231f20;fill-opacity:1;fill-rule:nonzero;stroke:none"
         transform="matrix(1.3333333,0,0,-1.3333333,86.141333,174.96533)" />
      <path
         id="path7"
         d="m 0,0 0.405,-0.011 h 0.283 c 1.583,0 2.782,0.343 3.593,1.033 C 5.094,1.711 5.5,2.588 5.5,3.655 5.5,4.689 5.176,5.534 4.527,6.19 3.88,6.846 3.015,7.174 1.932,7.174 1.447,7.174 0.804,7.096 0,6.941 Z M 11.849,-8.576 H 7.395 L 1.747,-0.775 H 0.246 c -0.05,0 -0.132,0 -0.246,0 V -5.623 C 0,-6.673 0.114,-7.325 0.344,-7.579 0.656,-7.94 1.123,-8.121 1.747,-8.121 H 2.399 V -8.576 H -4.75 v 0.455 h 0.628 c 0.705,0 1.21,0.23 1.513,0.69 0.172,0.246 0.258,0.848 0.258,1.808 v 10.78 c 0,1.049 -0.115,1.702 -0.344,1.956 -0.32,0.361 -0.796,0.541 -1.427,0.541 H -4.75 V 8.11 H 1.328 C 3.125,8.11 4.437,7.982 5.266,7.728 6.095,7.474 6.802,6.997 7.389,6.3 7.975,5.603 8.268,4.775 8.268,3.815 8.268,2.789 7.937,1.902 7.271,1.151 6.607,0.401 5.569,-0.135 4.158,-0.455 l 3.448,-4.784 c 0.78,-1.092 1.456,-1.822 2.03,-2.192 0.548,-0.345 1.287,-0.575 2.213,-0.69 v -0.455"
         style="fill:#231f20;fill-opacity:1;fill-rule:nonzero;stroke:none"
         transform="matrix(1.3333333,0,0,-1.3333333,102.252,168.14133)" />
      <path
         id="path8"
         d="m 0,0 c -0.436,0 -0.87,-0.128 -1.305,-0.382 -0.434,-0.254 -0.79,-0.705 -1.064,-1.353 -0.275,-0.648 -0.412,-1.485 -0.412,-2.51 0,-1.641 0.326,-3.056 0.978,-4.245 0.652,-1.19 1.511,-1.785 2.577,-1.785 0.789,0 1.443,0.329 1.963,0.985 0.521,0.656 0.782,1.784 0.782,3.384 0,1.993 -0.431,3.568 -1.292,4.724 C 1.645,-0.394 0.902,0 0,0 Z m 0.381,0.8 c 1.698,0 3.068,-0.649 4.11,-1.945 0.877,-1.115 1.316,-2.386 1.316,-3.814 0,-1.026 -0.24,-2.051 -0.719,-3.076 -0.481,-1.026 -1.149,-1.801 -2.006,-2.325 -0.857,-0.526 -1.803,-0.789 -2.836,-0.789 -1.69,0 -3.04,0.677 -4.049,2.031 -0.844,1.14 -1.267,2.42 -1.267,3.839 0,1.042 0.257,2.069 0.769,3.083 0.513,1.012 1.188,1.765 2.025,2.257 C -1.44,0.554 -0.554,0.8 0.381,0.8"
         style="fill:#231f20;fill-opacity:1;fill-rule:nonzero;stroke:none"
         transform="matrix(1.3333333,0,0,-1.3333333,125.648,165.17067)" />
      <path
         id="path9"
         d="M 0,0 C 0.336,0 0.631,-0.123 0.886,-0.369 1.14,-0.615 1.267,-0.915 1.267,-1.268 1.267,-1.612 1.144,-1.907 0.898,-2.153 0.651,-2.399 0.353,-2.523 0,-2.523 c -0.345,0 -0.641,0.124 -0.887,0.37 -0.246,0.246 -0.369,0.541 -0.369,0.885 0,0.336 0.123,0.632 0.369,0.886 C -0.641,-0.128 -0.345,0 0,0 Z m 1.058,-5.906 v -11.345 c 0,-1.92 -0.409,-3.35 -1.224,-4.288 -0.816,-0.94 -1.885,-1.409 -3.206,-1.409 -0.738,0 -1.29,0.134 -1.655,0.406 -0.365,0.27 -0.547,0.549 -0.547,0.836 0,0.288 0.102,0.534 0.308,0.738 0.205,0.205 0.438,0.308 0.701,0.308 0.214,0 0.43,-0.053 0.652,-0.159 0.14,-0.05 0.408,-0.255 0.806,-0.616 0.397,-0.361 0.732,-0.542 1.003,-0.542 0.197,0 0.387,0.077 0.572,0.228 0.184,0.152 0.326,0.408 0.425,0.769 0.041,0.164 0.073,0.439 0.097,0.825 0.026,0.385 0.037,0.881 0.037,1.489 v 8.022 c 0,1.222 -0.03,1.994 -0.091,2.314 -0.062,0.319 -0.159,0.53 -0.289,0.633 -0.132,0.102 -0.3,0.154 -0.505,0.154 -0.214,0 -0.493,-0.062 -0.837,-0.185 l -0.172,0.444 3.395,1.378 h 0.53"
         style="fill:#231f20;fill-opacity:1;fill-rule:nonzero;stroke:none"
         transform="matrix(1.3333333,0,0,-1.3333333,139.412,156.22933)" />
      <path
         id="path10"
         d="M 0,0 V 4.295 C -1.255,3.794 -2.054,3.445 -2.399,3.249 -3.039,2.895 -3.501,2.519 -3.784,2.116 -4.066,1.715 -4.208,1.284 -4.208,0.824 c 0,-0.598 0.174,-1.091 0.523,-1.476 0.348,-0.386 0.757,-0.578 1.224,-0.578 0.616,0 1.436,0.41 2.461,1.23 z m 0,-0.8 c -1.157,-0.886 -1.883,-1.402 -2.177,-1.55 -0.46,-0.205 -0.932,-0.307 -1.415,-0.307 -0.781,0 -1.422,0.268 -1.926,0.805 -0.505,0.538 -0.757,1.237 -0.757,2.098 0,0.533 0.123,1.009 0.369,1.428 0.328,0.541 0.91,1.066 1.747,1.575 C -3.346,3.725 -1.961,4.323 0,5.045 V 5.488 C 0,6.612 -0.176,7.383 -0.529,7.802 -0.882,8.22 -1.403,8.429 -2.092,8.429 -2.608,8.429 -3.021,8.291 -3.328,8.017 -3.636,7.742 -3.79,7.42 -3.79,7.051 V 6.337 c 0,-0.361 -0.095,-0.648 -0.286,-0.861 -0.19,-0.213 -0.439,-0.32 -0.747,-0.32 -0.292,0 -0.539,0.107 -0.742,0.32 -0.187,0.213 -0.279,0.504 -0.279,0.874 0,0.697 0.358,1.342 1.076,1.937 0.718,0.595 1.733,0.893 3.046,0.893 1.001,0 1.821,-0.168 2.461,-0.505 C 1.222,8.429 1.579,8.031 1.809,7.481 1.956,7.137 2.031,6.415 2.031,5.315 V 1.489 c 0,-0.533 0.003,-0.964 0.011,-1.292 0.009,-0.328 0.03,-0.585 0.062,-0.769 0.033,-0.185 0.095,-0.318 0.184,-0.4 0.091,-0.066 0.202,-0.106 0.333,-0.123 0.123,0 0.238,0.029 0.344,0.086 0.181,0.107 0.513,0.406 0.997,0.899 V -0.803 C 3.052,-2.039 2.174,-2.657 1.329,-2.657 0.935,-2.657 0.616,-2.516 0.369,-2.23 0.123,-1.945 0,-1.469 0,-0.8"
         style="fill:#231f20;fill-opacity:1;fill-rule:nonzero;stroke:none"
         transform="matrix(1.3333333,0,0,-1.3333333,153.456,176.344)" />
      <path
         id="path11"
         d="M 0,0 0.381,-5.672 H 0 c -0.501,1.689 -1.225,2.91 -2.172,3.66 -0.948,0.751 -2.081,1.126 -3.4022,1.126 -1.0991,0 -2.0962,-0.279 -2.9902,-0.837 -0.8941,-0.558 -1.5996,-1.456 -2.1166,-2.694 -0.516,-1.24 -0.775,-2.769 -0.775,-4.59 0,-0.772 0.058,-1.475 0.172,-2.111 0.115,-0.635 0.3,-1.241 0.554,-1.814 0.484,-1.107 1.212,-1.957 2.1841,-2.548 0.9722,-0.59 2.0816,-0.886 3.3286,-0.886 1.0913,0 2.0493,0.232 2.8733,0.696 0.824,0.464 1.733,1.384 2.725,2.762 l 0.382,-0.246 c -0.837,-1.476 -1.811,-2.561 -2.923,-3.255 -1.111,-0.693 -2.4381,-1.04 -3.9801,-1.04 -2.7564,0 -4.8979,1.026 -6.4239,3.076 -1.131,1.527 -1.697,3.323 -1.697,5.39 0,1.665 0.369,3.192 1.107,4.577 0.739,1.387 1.768,2.468 3.089,3.243 1.3204,0.775 2.7516,1.163 4.294,1.163 1.1973,0 2.387,-0.295 3.568,-0.886 0.361,-0.181 0.607,-0.271 0.739,-0.271 0.221,0 0.414,0.078 0.578,0.234 0.205,0.214 0.357,0.521 0.455,0.923 L 0,0"
         style="fill:#231f20;fill-opacity:1;fill-rule:nonzero;stroke:none"
         transform="matrix(1.3333333,0,0,-1.3333333,19.014667,192.82)"
         clip-path="url(#clipPath12)" />
      <path
         id="path13"
         d="m 0,0 c -0.435,0 -0.87,-0.128 -1.304,-0.382 -0.435,-0.254 -0.79,-0.705 -1.065,-1.353 -0.275,-0.648 -0.412,-1.485 -0.412,-2.51 0,-1.641 0.326,-3.056 0.978,-4.245 0.653,-1.19 1.512,-1.785 2.578,-1.785 0.788,0 1.442,0.329 1.963,0.985 0.521,0.656 0.781,1.784 0.781,3.384 0,1.993 -0.431,3.568 -1.292,4.724 C 1.645,-0.394 0.902,0 0,0 Z m 0.381,0.8 c 1.699,0 3.068,-0.649 4.11,-1.945 0.878,-1.115 1.317,-2.386 1.317,-3.814 0,-1.026 -0.24,-2.051 -0.72,-3.076 -0.48,-1.026 -1.149,-1.801 -2.006,-2.325 -0.857,-0.526 -1.802,-0.789 -2.836,-0.789 -1.69,0 -3.039,0.677 -4.048,2.031 -0.845,1.14 -1.267,2.42 -1.267,3.839 0,1.042 0.256,2.069 0.769,3.083 0.512,1.012 1.187,1.765 2.024,2.257 0.837,0.493 1.722,0.739 2.657,0.739"
         style="fill:#231f20;fill-opacity:1;fill-rule:nonzero;stroke:none"
         transform="matrix(1.3333333,0,0,-1.3333333,29.088,201.17067)" />
      <path
         id="path14"
         d="m 0,0 v -3.839 h -0.406 c -0.303,1.205 -0.701,2.025 -1.194,2.461 -0.492,0.434 -1.115,0.651 -1.87,0.651 -0.566,0 -1.027,-0.151 -1.384,-0.455 -0.357,-0.304 -0.535,-0.64 -0.535,-1.009 0,-0.468 0.127,-0.863 0.381,-1.187 0.254,-0.324 0.775,-0.679 1.563,-1.065 l 1.796,-0.873 c 1.666,-0.812 2.498,-1.883 2.498,-3.212 0,-1.025 -0.388,-1.851 -1.162,-2.479 -0.776,-0.628 -1.644,-0.942 -2.603,-0.942 -0.689,0 -1.477,0.123 -2.363,0.37 -0.303,0.082 -0.525,0.123 -0.664,0.123 -0.189,0 -0.336,-0.107 -0.443,-0.32 h -0.406 v 4.024 h 0.406 c 0.221,-1.149 0.658,-2.014 1.31,-2.597 0.653,-0.582 1.381,-0.873 2.184,-0.873 0.566,0 1.028,0.166 1.385,0.498 0.357,0.332 0.535,0.732 0.535,1.199 0,0.559 -0.195,1.029 -0.585,1.409 -0.389,0.382 -1.181,0.873 -2.374,1.471 -1.194,0.599 -1.977,1.134 -2.35,1.606 -0.374,0.471 -0.56,1.064 -0.56,1.778 0,0.927 0.32,1.702 0.96,2.325 0.639,0.623 1.46,0.936 2.461,0.936 0.459,0 0.996,-0.095 1.611,-0.284 0.419,-0.123 0.698,-0.184 0.837,-0.184 0.123,0 0.223,0.026 0.302,0.08 0.077,0.053 0.166,0.183 0.264,0.388 L 0,0"
         style="fill:#231f20;fill-opacity:1;fill-rule:nonzero;stroke:none"
         transform="matrix(1.3333333,0,0,-1.3333333,48.758667,200.104)" />
      <path
         id="path15"
         d="M 0,0 V -3.715 H 2.633 V -4.577 H 0 v -7.309 c 0,-0.731 0.104,-1.223 0.314,-1.477 0.209,-0.254 0.478,-0.381 0.806,-0.381 0.278,0 0.541,0.084 0.787,0.252 0.246,0.168 0.443,0.416 0.591,0.744 h 0.48 c -0.279,-0.795 -0.683,-1.398 -1.212,-1.808 -0.529,-0.41 -1.073,-0.615 -1.631,-0.615 -0.377,0 -0.742,0.102 -1.095,0.307 -0.352,0.205 -0.619,0.505 -0.8,0.899 -0.18,0.393 -0.27,0.996 -0.27,1.808 v 7.58 h -1.784 v 0.408 c 0.451,0.171 0.91,0.476 1.378,0.912 0.467,0.436 0.89,0.95 1.267,1.543 0.18,0.296 0.443,0.867 0.788,1.714 L 0,0"
         style="fill:#231f20;fill-opacity:1;fill-rule:nonzero;stroke:none"
         transform="matrix(1.3333333,0,0,-1.3333333,56.486667,195.59333)" />
      <path
         id="path16"
         d="M 0,0 V 4.295 C -1.255,3.794 -2.055,3.445 -2.399,3.249 -3.04,2.895 -3.501,2.519 -3.784,2.116 -4.067,1.715 -4.208,1.284 -4.208,0.824 c 0,-0.598 0.174,-1.091 0.522,-1.476 0.349,-0.386 0.757,-0.578 1.225,-0.578 0.615,0 1.435,0.41 2.461,1.23 z m 0,-0.8 c -1.157,-0.886 -1.883,-1.402 -2.178,-1.55 -0.46,-0.205 -0.931,-0.307 -1.415,-0.307 -0.78,0 -1.421,0.268 -1.926,0.805 -0.504,0.538 -0.756,1.237 -0.756,2.098 0,0.533 0.123,1.009 0.369,1.428 0.327,0.541 0.91,1.066 1.747,1.575 C -3.347,3.725 -1.961,4.323 0,5.045 V 5.488 C 0,6.612 -0.177,7.383 -0.529,7.802 -0.882,8.22 -1.403,8.429 -2.092,8.429 -2.609,8.429 -3.021,8.291 -3.329,8.017 -3.636,7.742 -3.79,7.42 -3.79,7.051 V 6.337 c 0,-0.361 -0.095,-0.648 -0.286,-0.861 -0.19,-0.213 -0.44,-0.32 -0.748,-0.32 -0.292,0 -0.538,0.107 -0.741,0.32 -0.186,0.213 -0.28,0.504 -0.28,0.874 0,0.697 0.359,1.342 1.077,1.937 0.717,0.595 1.732,0.893 3.045,0.893 1.001,0 1.821,-0.168 2.461,-0.505 C 1.222,8.429 1.579,8.031 1.809,7.481 1.956,7.137 2.03,6.415 2.03,5.315 V 1.489 c 0,-0.533 0.004,-0.964 0.012,-1.292 0.008,-0.328 0.029,-0.585 0.062,-0.769 0.033,-0.185 0.094,-0.318 0.185,-0.4 0.089,-0.066 0.2,-0.106 0.332,-0.123 0.123,0 0.237,0.029 0.344,0.086 0.181,0.107 0.513,0.406 0.997,0.899 V -0.803 C 3.051,-2.039 2.173,-2.657 1.329,-2.657 0.935,-2.657 0.615,-2.516 0.369,-2.23 0.123,-1.945 0,-1.469 0,-0.8"
         style="fill:#231f20;fill-opacity:1;fill-rule:nonzero;stroke:none"
         transform="matrix(1.3333333,0,0,-1.3333333,69.973333,212.344)" />
      <path
         id="path17"
         d="M 0,0 V -2.535 C 0.936,-0.845 1.903,0 2.905,0 c 0.441,0 0.812,-0.138 1.113,-0.412 0.299,-0.276 0.449,-0.593 0.449,-0.955 0,-0.328 -0.107,-0.6 -0.32,-0.818 -0.213,-0.217 -0.467,-0.326 -0.764,-0.326 -0.287,0 -0.609,0.142 -0.965,0.425 -0.357,0.283 -0.621,0.425 -0.794,0.425 -0.156,0 -0.315,-0.082 -0.48,-0.247 C 0.775,-2.236 0.394,-2.789 0,-3.569 v -5.402 c 0,-0.623 0.078,-1.095 0.234,-1.415 0.099,-0.221 0.285,-0.405 0.56,-0.554 0.274,-0.147 0.666,-0.22 1.175,-0.22 v -0.444 h -5.771 v 0.444 c 0.566,0 0.992,0.089 1.279,0.27 0.19,0.114 0.333,0.324 0.431,0.627 0.041,0.148 0.062,0.546 0.062,1.194 v 4.368 c 0,1.321 -0.027,2.102 -0.08,2.344 -0.054,0.242 -0.152,0.422 -0.295,0.541 -0.144,0.119 -0.323,0.179 -0.535,0.179 -0.239,0 -0.526,-0.062 -0.862,-0.185 L -3.925,-1.378 -0.517,0 H 0"
         style="fill:#231f20;fill-opacity:1;fill-rule:nonzero;stroke:none"
         transform="matrix(1.3333333,0,0,-1.3333333,80.768,200.104)" />
      <path
         id="path18"
         d="M 0,0 V -2.535 C 0.936,-0.845 1.904,0 2.905,0 c 0.442,0 0.813,-0.138 1.113,-0.412 0.3,-0.276 0.449,-0.593 0.449,-0.955 0,-0.328 -0.106,-0.6 -0.32,-0.818 -0.213,-0.217 -0.467,-0.326 -0.763,-0.326 -0.287,0 -0.609,0.142 -0.966,0.425 -0.356,0.283 -0.621,0.425 -0.794,0.425 -0.155,0 -0.315,-0.082 -0.48,-0.247 C 0.775,-2.236 0.394,-2.789 0,-3.569 v -5.402 c 0,-0.623 0.078,-1.095 0.234,-1.415 0.098,-0.221 0.284,-0.405 0.56,-0.554 0.274,-0.147 0.666,-0.22 1.175,-0.22 v -0.444 h -5.771 v 0.444 c 0.566,0 0.992,0.089 1.28,0.27 0.188,0.114 0.332,0.324 0.43,0.627 0.041,0.148 0.062,0.546 0.062,1.194 v 4.368 c 0,1.321 -0.027,2.102 -0.08,2.344 -0.053,0.242 -0.152,0.422 -0.295,0.541 -0.144,0.119 -0.323,0.179 -0.535,0.179 -0.239,0 -0.526,-0.062 -0.862,-0.185 L -3.925,-1.378 -0.517,0 H 0"
         style="fill:#231f20;fill-opacity:1;fill-rule:nonzero;stroke:none"
         transform="matrix(1.3333333,0,0,-1.3333333,91.957333,200.104)" />
      <path
         id="path19"
         d="M 0,0 C 0.337,0 0.628,-0.121 0.874,-0.362 1.12,-0.604 1.243,-0.898 1.243,-1.242 1.243,-1.587 1.122,-1.883 0.88,-2.129 0.638,-2.375 0.345,-2.498 0,-2.498 c -0.345,0 -0.64,0.123 -0.886,0.369 -0.246,0.246 -0.369,0.542 -0.369,0.887 0,0.344 0.121,0.638 0.363,0.88 C -0.65,-0.121 -0.353,0 0,0 Z m 1.021,-5.893 v -9.057 c 0,-0.697 0.049,-1.162 0.148,-1.396 0.099,-0.234 0.25,-0.411 0.455,-0.53 0.205,-0.119 0.574,-0.177 1.107,-0.177 v -0.444 h -5.475 v 0.444 c 0.55,0 0.919,0.05 1.107,0.153 0.19,0.102 0.339,0.281 0.449,0.535 0.112,0.254 0.166,0.727 0.166,1.415 v 4.344 c 0,1.214 -0.03,1.976 -0.091,2.289 -0.062,0.311 -0.158,0.52 -0.289,0.627 -0.132,0.106 -0.3,0.16 -0.505,0.16 -0.213,0 -0.492,-0.062 -0.837,-0.185 l -0.172,0.444 3.396,1.378 h 0.541"
         style="fill:#231f20;fill-opacity:1;fill-rule:nonzero;stroke:none"
         transform="matrix(1.3333333,0,0,-1.3333333,102.572,192.24667)" />
      <path
         id="path20"
         d="m 0,0 c -0.295,-1.485 -0.89,-2.627 -1.784,-3.426 -0.894,-0.8 -1.874,-1.201 -2.941,-1.201 -1.28,0 -2.395,0.538 -3.346,1.613 -0.952,1.074 -1.428,2.526 -1.428,4.355 0,1.78 0.527,3.222 1.581,4.325 1.054,1.104 2.319,1.656 3.796,1.656 1.107,0 2.018,-0.294 2.731,-0.88 0.714,-0.587 1.072,-1.196 1.072,-1.827 0,-0.304 -0.104,-0.559 -0.308,-0.763 -0.205,-0.19 -0.484,-0.283 -0.837,-0.283 -0.475,0 -0.841,0.155 -1.095,0.468 -0.124,0.164 -0.217,0.492 -0.283,0.984 0,0.229 -0.044,0.436 -0.13,0.621 C -3.058,5.827 -3.179,5.989 -3.334,6.128 -3.622,6.374 -4.02,6.497 -4.528,6.497 -5.34,6.497 -6,6.194 -6.509,5.586 -7.174,4.783 -7.506,3.72 -7.506,2.4 c 0,-1.346 0.33,-2.533 0.991,-3.563 0.661,-1.029 1.552,-1.544 2.676,-1.544 0.796,0 1.518,0.275 2.166,0.825 0.435,0.361 0.873,1.045 1.317,2.054 L 0,0"
         style="fill:#231f20;fill-opacity:1;fill-rule:nonzero;stroke:none"
         transform="matrix(1.3333333,0,0,-1.3333333,120.848,209.86667)" />
      <path
         id="path21"
         d="M 0,0 H 5.217 C 5.217,0.345 5.194,0.641 5.15,0.887 5.105,1.133 5.04,1.346 4.959,1.527 4.762,1.978 4.454,2.338 4.036,2.61 3.839,2.741 3.638,2.839 3.433,2.905 3.228,2.97 3.006,3.003 2.769,3.003 2.087,3.003 1.481,2.741 0.947,2.215 0.414,1.691 0.099,0.953 0,0 Z M 0,-0.712 C 0,-2.378 0.406,-3.689 1.218,-4.644 2.03,-5.6 2.994,-6.078 4.109,-6.078 c 0.747,0 1.389,0.201 1.926,0.603 0.537,0.402 0.995,1.099 1.372,2.092 L 7.789,-3.629 C 7.616,-4.753 7.116,-5.776 6.287,-6.699 5.459,-7.622 4.421,-8.084 3.175,-8.084 c -1.354,0 -2.513,0.528 -3.477,1.581 -0.964,1.055 -1.445,2.472 -1.445,4.252 0,1.919 0.492,3.42 1.477,4.503 0.984,1.083 2.226,1.624 3.727,1.624 1.247,0 2.281,-0.416 3.102,-1.248 0.819,-0.833 1.23,-1.946 1.23,-3.34 H 0"
         style="fill:#231f20;fill-opacity:1;fill-rule:nonzero;stroke:none"
         transform="matrix(1.3333333,0,0,-1.3333333,125.52533,205.25733)" />
      <path
         id="path22"
         d="M 0,0 C 1.321,1.592 2.579,2.388 3.778,2.388 4.401,2.388 4.93,2.231 5.364,1.92 5.799,1.633 6.153,1.128 6.423,0.406 6.603,-0.11 6.694,-0.865 6.694,-1.857 v -4.812 c 0,-0.73 0.057,-1.214 0.171,-1.452 0.091,-0.205 0.237,-0.364 0.438,-0.48 0.2,-0.115 0.572,-0.171 1.113,-0.171 V -9.216 H 2.842 v 0.444 h 0.234 c 0.517,0 0.881,0.08 1.095,0.239 0.213,0.16 0.361,0.395 0.443,0.708 0.016,0.073 0.029,0.192 0.037,0.356 0.008,0.164 0.012,0.431 0.012,0.8 v 4.614 c 0,1.018 -0.133,1.76 -0.4,2.228 C 3.996,0.641 3.548,0.874 2.916,0.874 1.94,0.874 0.968,0.341 0,-0.726 v -5.943 c 0,-0.77 0.051,-1.259 0.154,-1.464 0.102,-0.205 0.252,-0.365 0.449,-0.48 0.213,-0.107 0.623,-0.159 1.23,-0.159 v -0.444 h -5.574 v 0.444 h 0.246 c 0.567,0 0.952,0.142 1.157,0.43 0.098,0.139 0.174,0.353 0.228,0.64 0.053,0.287 0.08,0.632 0.08,1.033 v 4.184 c 0,1.386 -0.033,2.211 -0.099,2.473 -0.049,0.295 -0.141,0.496 -0.277,0.603 -0.135,0.106 -0.306,0.16 -0.511,0.16 -0.213,0 -0.487,-0.062 -0.824,-0.185 L -3.926,1.01 -0.529,2.388 H 0 V 0"
         style="fill:#231f20;fill-opacity:1;fill-rule:nonzero;stroke:none"
         transform="matrix(1.3333333,0,0,-1.3333333,142.292,203.288)" />
      <path
         id="path23"
         d="m 0,0 v -3.839 h -0.406 c -0.304,1.205 -0.702,2.025 -1.194,2.461 -0.492,0.434 -1.116,0.651 -1.871,0.651 -0.565,0 -1.027,-0.151 -1.384,-0.455 -0.356,-0.304 -0.535,-0.64 -0.535,-1.009 0,-0.468 0.127,-0.863 0.381,-1.187 0.255,-0.324 0.775,-0.679 1.564,-1.065 l 1.795,-0.873 c 1.665,-0.812 2.499,-1.883 2.499,-3.212 0,-1.025 -0.388,-1.851 -1.164,-2.479 -0.775,-0.628 -1.642,-0.942 -2.602,-0.942 -0.689,0 -1.477,0.123 -2.362,0.37 -0.304,0.082 -0.525,0.123 -0.664,0.123 -0.19,0 -0.337,-0.107 -0.444,-0.32 h -0.406 v 4.024 h 0.406 c 0.222,-1.149 0.658,-2.014 1.311,-2.597 0.652,-0.582 1.38,-0.873 2.184,-0.873 0.566,0 1.028,0.166 1.384,0.498 0.357,0.332 0.535,0.732 0.535,1.199 0,0.559 -0.194,1.029 -0.584,1.409 -0.389,0.382 -1.181,0.873 -2.375,1.471 -1.193,0.599 -1.977,1.134 -2.35,1.606 -0.373,0.471 -0.56,1.064 -0.56,1.778 0,0.927 0.32,1.702 0.96,2.325 0.64,0.623 1.46,0.936 2.461,0.936 0.459,0 0.996,-0.095 1.611,-0.284 0.419,-0.123 0.698,-0.184 0.837,-0.184 0.123,0 0.224,0.026 0.302,0.08 0.078,0.053 0.166,0.183 0.265,0.388 L 0,0"
         style="fill:#231f20;fill-opacity:1;fill-rule:nonzero;stroke:none"
         transform="matrix(1.3333333,0,0,-1.3333333,164.424,200.104)" />
      <path
         id="path24"
         d="M 0,0 H 5.217 C 5.217,0.345 5.194,0.641 5.149,0.887 5.104,1.133 5.04,1.346 4.959,1.527 4.762,1.978 4.454,2.338 4.036,2.61 3.839,2.741 3.638,2.839 3.432,2.905 3.227,2.97 3.006,3.003 2.768,3.003 2.087,3.003 1.48,2.741 0.947,2.215 0.414,1.691 0.098,0.953 0,0 Z M 0,-0.712 C 0,-2.378 0.406,-3.689 1.218,-4.644 2.03,-5.6 2.994,-6.078 4.109,-6.078 c 0.746,0 1.389,0.201 1.926,0.603 0.537,0.402 0.995,1.099 1.372,2.092 L 7.789,-3.629 C 7.616,-4.753 7.116,-5.776 6.287,-6.699 5.459,-7.622 4.421,-8.084 3.175,-8.084 c -1.354,0 -2.513,0.528 -3.477,1.581 -0.964,1.055 -1.445,2.472 -1.445,4.252 0,1.919 0.492,3.42 1.476,4.503 0.985,1.083 2.227,1.624 3.728,1.624 1.247,0 2.281,-0.416 3.101,-1.248 0.82,-0.833 1.231,-1.946 1.231,-3.34 H 0"
         style="fill:#231f20;fill-opacity:1;fill-rule:nonzero;stroke:none"
         transform="matrix(1.3333333,0,0,-1.3333333,170.31467,205.25733)" />
    </g>
  </g>
</svg>
