<?xml version="1.0" encoding="UTF-8" standalone="no"?>
<!-- Created with Inkscape (http://www.inkscape.org/) -->

<svg
   version="1.1"
   id="svg1"
   width="607.95331"
   height="135.29601"
   viewBox="0 0 607.95331 135.29601"
   sodipodi:docname="CostaRica RC horizontal.svg"
   inkscape:version="1.3.2 (091e20e, 2023-11-25, custom)"
   xmlns:inkscape="http://www.inkscape.org/namespaces/inkscape"
   xmlns:sodipodi="http://sodipodi.sourceforge.net/DTD/sodipodi-0.dtd"
   xmlns="http://www.w3.org/2000/svg"
   xmlns:svg="http://www.w3.org/2000/svg">
  <defs
     id="defs1">
    <clipPath
       clipPathUnits="userSpaceOnUse"
       id="clipPath3">
      <path
         d="M 0,101.472 H 455.965 V 0.06 L 0,0.06 Z"
         transform="translate(-101.472,-67.648001)"
         id="path3" />
    </clipPath>
  </defs>
  <sodipodi:namedview
     id="namedview1"
     pagecolor="#ffffff"
     bordercolor="#666666"
     borderopacity="1.0"
     inkscape:showpageshadow="2"
     inkscape:pageopacity="0.0"
     inkscape:pagecheckerboard="0"
     inkscape:deskcolor="#d1d1d1"
     inkscape:zoom="1.5379471"
     inkscape:cx="303.97665"
     inkscape:cy="67.947722"
     inkscape:window-width="1920"
     inkscape:window-height="1017"
     inkscape:window-x="-8"
     inkscape:window-y="-8"
     inkscape:window-maximized="1"
     inkscape:current-layer="g1">
    <inkscape:page
       x="0"
       y="0"
       inkscape:label="1"
       id="page1"
       width="607.95331"
       height="135.29601"
       margin="0"
       bleed="0" />
  </sodipodi:namedview>
  <g
     id="g1"
     inkscape:groupmode="layer"
     inkscape:label="1">
    <g
       id="group-MC1">
      <path
         id="path2"
         d="M 0,0 H -33.824 V 33.824 H -67.648 V 0 h -33.824 v -33.824 h 33.824 v -33.824 h 33.824 v 33.824 H 0 V 0"
         style="fill:#ed1c24;fill-opacity:1;fill-rule:nonzero;stroke:none"
         transform="matrix(1.3333333,0,0,-1.3333333,135.296,45.098667)"
         clip-path="url(#clipPath3)" />
      <path
         id="path4"
         d="M 0,0 0.499,-7.422 H 0 c -0.655,2.211 -1.602,3.807 -2.842,4.79 -1.239,0.982 -2.723,1.473 -4.452,1.473 -1.438,0 -2.742,-0.365 -3.912,-1.095 -1.17,-0.73 -2.093,-1.906 -2.769,-3.526 -0.677,-1.621 -1.015,-3.623 -1.015,-6.006 0,-1.009 0.075,-1.929 0.226,-2.761 0.15,-0.832 0.391,-1.624 0.724,-2.375 0.633,-1.45 1.586,-2.561 2.858,-3.333 1.272,-0.774 2.724,-1.159 4.356,-1.159 1.427,0 2.68,0.302 3.759,0.909 1.079,0.606 2.267,1.811 3.566,3.615 l 0.5,-0.322 c -1.095,-1.932 -2.37,-3.352 -3.824,-4.259 -1.455,-0.907 -3.191,-1.361 -5.209,-1.361 -3.607,0 -6.408,1.342 -8.405,4.026 -1.481,1.996 -2.222,4.347 -2.222,7.053 0,2.178 0.483,4.175 1.449,5.989 0.966,1.814 2.313,3.228 4.042,4.243 1.728,1.014 3.601,1.521 5.619,1.521 1.567,0 3.123,-0.386 4.669,-1.159 0.473,-0.237 0.794,-0.354 0.966,-0.354 0.29,0 0.542,0.101 0.757,0.305 0.268,0.28 0.467,0.682 0.596,1.208 H 0"
         style="fill:#231f20;fill-opacity:1;fill-rule:nonzero;stroke:none"
         transform="matrix(1.3333333,0,0,-1.3333333,205.89867,51.169333)" />
      <path
         id="path5"
         d="M 0,0 V -3.316 C 1.223,-1.106 2.489,0 3.799,0 c 0.58,0 1.065,-0.18 1.457,-0.539 0.392,-0.36 0.588,-0.776 0.588,-1.248 0,-0.429 -0.139,-0.786 -0.419,-1.071 -0.279,-0.284 -0.612,-0.426 -0.998,-0.426 -0.376,0 -0.797,0.185 -1.264,0.555 -0.467,0.371 -0.813,0.556 -1.038,0.556 -0.204,0 -0.414,-0.108 -0.628,-0.323 C 1.014,-2.925 0.515,-3.649 0,-4.669 v -7.069 c 0,-0.816 0.101,-1.433 0.305,-1.852 0.129,-0.29 0.373,-0.531 0.733,-0.724 0.359,-0.194 0.872,-0.29 1.538,-0.29 v -0.58 h -7.552 v 0.58 c 0.741,0 1.299,0.118 1.675,0.354 0.246,0.15 0.434,0.424 0.563,0.821 0.054,0.194 0.081,0.714 0.081,1.562 v 5.717 c 0,1.728 -0.035,2.75 -0.105,3.067 -0.07,0.316 -0.199,0.553 -0.386,0.708 -0.188,0.156 -0.422,0.234 -0.701,0.234 -0.311,0 -0.687,-0.081 -1.127,-0.242 L -5.137,-1.803 -0.677,0 H 0"
         style="fill:#231f20;fill-opacity:1;fill-rule:nonzero;stroke:none"
         transform="matrix(1.3333333,0,0,-1.3333333,215.88267,60.701333)" />
      <path
         id="path6"
         d="m 0,0 v -8.937 c 0,-1.728 0.038,-2.775 0.113,-3.139 0.075,-0.365 0.204,-0.626 0.387,-0.781 0.182,-0.156 0.391,-0.234 0.628,-0.234 0.343,0 0.718,0.091 1.127,0.274 L 2.48,-13.381 -1.932,-15.2 h -0.724 v 3.124 c -1.235,-1.342 -2.193,-2.198 -2.875,-2.569 -0.681,-0.37 -1.392,-0.555 -2.133,-0.555 -0.826,0 -1.543,0.239 -2.149,0.717 -0.607,0.477 -1.028,1.097 -1.264,1.859 -0.236,0.763 -0.354,1.819 -0.354,3.172 v 6.586 c 0,0.708 -0.073,1.189 -0.218,1.441 -0.145,0.252 -0.365,0.453 -0.66,0.604 -0.295,0.15 -0.835,0.225 -1.618,0.225 V 0 h 5.168 v -9.87 c 0,-1.374 0.242,-2.276 0.725,-2.705 0.483,-0.43 1.057,-0.645 1.723,-0.645 0.44,0 0.955,0.146 1.546,0.435 0.589,0.29 1.293,0.843 2.109,1.659 v 8.356 c 0,0.849 -0.156,1.412 -0.467,1.691 -0.151,0.15 -0.379,0.268 -0.684,0.354 -0.307,0.086 -0.712,0.129 -1.216,0.129 l 0,0.596 H 0"
         style="fill:#231f20;fill-opacity:1;fill-rule:nonzero;stroke:none"
         transform="matrix(1.3333333,0,0,-1.3333333,242.008,61.281333)" />
      <path
         id="path7"
         d="m 0,0 -0.177,-4.524 h -13.01 l 0.007,0.574 9.785,13.046 -4.832,0.002 c -1.041,0 -1.723,-0.068 -2.045,-0.201 -0.322,-0.135 -0.585,-0.39 -0.789,-0.766 -0.151,-0.279 -0.272,-0.587 -0.363,-0.925 -0.091,-0.338 -0.137,-0.695 -0.137,-1.071 h -0.644 l 0.097,4.09 H 0.258 V 9.629 L -9.629,-3.445 h 5.378 c 1.149,0 1.919,0.094 2.311,0.281 0.391,0.188 0.711,0.518 0.958,0.99 0.161,0.344 0.306,1.069 0.434,2.174 L 0,0"
         style="fill:#231f20;fill-opacity:1;fill-rule:nonzero;stroke:none"
         transform="matrix(1.3333333,0,0,-1.3333333,263.84133,74.913333)" />
      <path
         id="path8"
         d="m 0,0 0.532,-0.016 h 0.37 c 2.072,0 3.639,0.451 4.702,1.352 1.062,0.902 1.594,2.05 1.594,3.446 0,1.352 -0.424,2.458 -1.272,3.317 C 5.077,8.957 3.945,9.387 2.529,9.387 1.895,9.387 1.053,9.285 0,9.08 Z M 15.506,-11.223 H 9.678 L 2.287,-1.015 H 0.323 c -0.065,0 -0.172,0 -0.323,0 v -6.344 c 0,-1.374 0.151,-2.228 0.451,-2.56 0.408,-0.472 1.02,-0.709 1.836,-0.709 H 3.14 v -0.595 h -9.355 v 0.595 h 0.822 c 0.923,0 1.583,0.301 1.98,0.902 0.225,0.322 0.338,1.111 0.338,2.367 V 6.746 c 0,1.374 -0.15,2.227 -0.451,2.56 -0.418,0.472 -1.041,0.709 -1.867,0.709 H -6.215 V 10.61 H 1.74 c 2.35,0 4.067,-0.166 5.152,-0.499 C 7.976,9.778 8.902,9.156 9.669,8.244 10.436,7.331 10.821,6.246 10.821,4.991 10.821,3.649 10.386,2.487 9.516,1.505 8.647,0.523 7.289,-0.178 5.443,-0.596 l 4.512,-6.261 c 1.018,-1.429 1.904,-2.385 2.655,-2.868 0.718,-0.451 1.683,-0.752 2.896,-0.903 v -0.595"
         style="fill:#231f20;fill-opacity:1;fill-rule:nonzero;stroke:none"
         transform="matrix(1.3333333,0,0,-1.3333333,284.92267,65.981333)" />
      <path
         id="path9"
         d="m 0,0 c -0.568,0 -1.137,-0.167 -1.706,-0.499 -0.569,-0.333 -1.033,-0.923 -1.392,-1.771 -0.361,-0.848 -0.54,-1.943 -0.54,-3.285 0,-2.148 0.426,-3.999 1.28,-5.555 0.853,-1.557 1.977,-2.335 3.373,-2.335 1.03,0 1.887,0.429 2.568,1.288 0.682,0.859 1.023,2.335 1.023,4.428 0,2.608 -0.564,4.67 -1.691,6.183 C 2.153,-0.515 1.181,0 0,0 Z m 0.5,1.046 c 2.222,0 4.014,-0.847 5.377,-2.544 1.149,-1.46 1.724,-3.124 1.724,-4.991 0,-1.343 -0.315,-2.683 -0.943,-4.025 -0.627,-1.342 -1.502,-2.357 -2.624,-3.043 -1.122,-0.688 -2.359,-1.031 -3.711,-1.031 -2.211,0 -3.977,0.885 -5.297,2.657 -1.106,1.491 -1.659,3.166 -1.659,5.023 0,1.364 0.335,2.708 1.006,4.034 0.671,1.326 1.554,2.31 2.649,2.955 1.094,0.644 2.255,0.965 3.478,0.965"
         style="fill:#231f20;fill-opacity:1;fill-rule:nonzero;stroke:none"
         transform="matrix(1.3333333,0,0,-1.3333333,315.536,62.096)" />
      <path
         id="path10"
         d="m 0,0 c 0.44,0 0.827,-0.161 1.159,-0.483 0.333,-0.322 0.5,-0.714 0.5,-1.175 0,-0.451 -0.161,-0.838 -0.483,-1.159 C 0.854,-3.14 0.462,-3.3 0,-3.3 c -0.45,0 -0.837,0.16 -1.159,0.483 -0.322,0.321 -0.483,0.708 -0.483,1.159 0,0.44 0.161,0.826 0.483,1.159 C -0.837,-0.167 -0.45,0 0,0 Z m 1.385,-7.729 v -14.845 c 0,-2.512 -0.534,-4.382 -1.602,-5.612 -1.068,-1.228 -2.467,-1.842 -4.194,-1.842 -0.967,0 -1.689,0.176 -2.166,0.531 -0.478,0.353 -0.717,0.719 -0.717,1.095 0,0.376 0.135,0.697 0.403,0.965 0.269,0.269 0.575,0.403 0.917,0.403 0.28,0 0.565,-0.07 0.854,-0.209 0.183,-0.065 0.534,-0.333 1.055,-0.806 0.52,-0.472 0.958,-0.708 1.312,-0.708 0.258,0 0.507,0.1 0.749,0.298 0.241,0.199 0.427,0.534 0.555,1.007 0.054,0.215 0.096,0.574 0.129,1.078 0.032,0.505 0.049,1.154 0.049,1.948 v 10.498 c 0,1.6 -0.04,2.609 -0.122,3.028 -0.08,0.419 -0.207,0.694 -0.377,0.829 -0.172,0.134 -0.393,0.201 -0.661,0.201 -0.279,0 -0.644,-0.08 -1.094,-0.241 l -0.226,0.579 4.443,1.803 h 0.693"
         style="fill:#231f20;fill-opacity:1;fill-rule:nonzero;stroke:none"
         transform="matrix(1.3333333,0,0,-1.3333333,333.548,50.397333)" />
      <path
         id="path11"
         d="M 0,0 V 5.619 C -1.642,4.964 -2.688,4.509 -3.139,4.251 -3.976,3.789 -4.58,3.295 -4.951,2.77 -5.321,2.243 -5.507,1.68 -5.507,1.079 c 0,-0.784 0.229,-1.428 0.685,-1.932 0.456,-0.505 0.99,-0.757 1.603,-0.757 0.804,0 1.877,0.537 3.219,1.61 z m 0,-1.047 c -1.513,-1.159 -2.463,-1.835 -2.849,-2.028 -0.602,-0.269 -1.219,-0.403 -1.852,-0.403 -1.02,0 -1.859,0.352 -2.519,1.055 -0.661,0.702 -0.991,1.618 -0.991,2.745 0,0.698 0.16,1.321 0.483,1.867 0.429,0.709 1.191,1.396 2.286,2.062 1.063,0.622 2.877,1.406 5.442,2.351 v 0.58 c 0,1.47 -0.23,2.479 -0.692,3.026 -0.461,0.548 -1.143,0.822 -2.045,0.822 -0.676,0 -1.215,-0.18 -1.618,-0.54 C -4.758,10.13 -4.959,9.71 -4.959,9.227 V 8.293 c 0,-0.473 -0.125,-0.849 -0.374,-1.127 -0.249,-0.28 -0.575,-0.419 -0.978,-0.419 -0.382,0 -0.705,0.139 -0.971,0.419 -0.243,0.278 -0.365,0.66 -0.365,1.143 0,0.912 0.469,1.757 1.408,2.536 0.939,0.778 2.268,1.167 3.985,1.167 1.31,0 2.383,-0.22 3.22,-0.66 C 1.6,11.03 2.067,10.509 2.367,9.79 2.561,9.339 2.657,8.395 2.657,6.956 V 1.948 c 0,-0.698 0.005,-1.261 0.016,-1.69 0.011,-0.43 0.038,-0.765 0.081,-1.007 0.042,-0.241 0.123,-0.416 0.241,-0.522 0.119,-0.087 0.263,-0.14 0.435,-0.162 0.161,0 0.311,0.038 0.451,0.113 0.235,0.139 0.671,0.531 1.304,1.176 V -1.051 C 3.993,-2.669 2.845,-3.478 1.74,-3.478 1.224,-3.478 0.806,-3.291 0.484,-2.919 0.161,-2.546 0,-1.922 0,-1.047"
         style="fill:#231f20;fill-opacity:1;fill-rule:nonzero;stroke:none"
         transform="matrix(1.3333333,0,0,-1.3333333,351.924,76.717333)" />
      <path
         id="path12"
         d="M 0,0 0.499,-7.422 H 0 c -0.654,2.211 -1.602,3.807 -2.842,4.79 -1.239,0.982 -2.723,1.473 -4.452,1.473 -1.438,0 -2.742,-0.365 -3.912,-1.095 -1.17,-0.73 -2.094,-1.906 -2.77,-3.526 -0.676,-1.621 -1.014,-3.623 -1.014,-6.006 0,-1.009 0.075,-1.929 0.225,-2.761 0.151,-0.832 0.392,-1.624 0.725,-2.375 0.633,-1.45 1.586,-2.561 2.858,-3.333 1.272,-0.774 2.723,-1.159 4.355,-1.159 1.428,0 2.681,0.302 3.76,0.909 1.079,0.606 2.267,1.811 3.566,3.615 l 0.499,-0.322 c -1.095,-1.932 -2.369,-3.352 -3.823,-4.259 -1.455,-0.907 -3.192,-1.361 -5.209,-1.361 -3.607,0 -6.408,1.342 -8.405,4.026 -1.482,1.996 -2.222,4.347 -2.222,7.053 0,2.178 0.483,4.175 1.449,5.989 0.966,1.814 2.313,3.228 4.041,4.243 1.729,1.014 3.602,1.521 5.619,1.521 1.568,0 3.124,-0.386 4.67,-1.159 0.472,-0.237 0.794,-0.354 0.966,-0.354 0.29,0 0.542,0.101 0.757,0.305 0.268,0.28 0.467,0.682 0.595,1.208 H 0"
         style="fill:#231f20;fill-opacity:1;fill-rule:nonzero;stroke:none"
         transform="matrix(1.3333333,0,0,-1.3333333,396.38533,51.169333)" />
      <path
         id="path13"
         d="m 0,0 c -0.569,0 -1.138,-0.167 -1.706,-0.499 -0.57,-0.333 -1.034,-0.923 -1.393,-1.771 -0.36,-0.848 -0.54,-1.943 -0.54,-3.285 0,-2.148 0.427,-3.999 1.28,-5.555 0.854,-1.557 1.978,-2.335 3.373,-2.335 1.031,0 1.887,0.429 2.569,1.288 0.681,0.859 1.022,2.335 1.022,4.428 0,2.608 -0.563,4.67 -1.69,6.183 C 2.152,-0.515 1.18,0 0,0 Z m 0.5,1.046 c 2.221,0 4.013,-0.847 5.377,-2.544 1.148,-1.46 1.723,-3.124 1.723,-4.991 0,-1.343 -0.314,-2.683 -0.942,-4.025 -0.628,-1.342 -1.503,-2.357 -2.624,-3.043 -1.122,-0.688 -2.359,-1.031 -3.712,-1.031 -2.211,0 -3.977,0.885 -5.297,2.657 -1.105,1.491 -1.658,3.166 -1.658,5.023 0,1.364 0.335,2.708 1.006,4.034 0.671,1.326 1.553,2.31 2.648,2.955 1.095,0.644 2.255,0.965 3.479,0.965"
         style="fill:#231f20;fill-opacity:1;fill-rule:nonzero;stroke:none"
         transform="matrix(1.3333333,0,0,-1.3333333,409.56667,62.096)" />
      <path
         id="path14"
         d="m 0,0 v -5.023 h -0.531 c -0.397,1.578 -0.918,2.651 -1.562,3.22 -0.644,0.569 -1.46,0.853 -2.448,0.853 -0.74,0 -1.343,-0.198 -1.811,-0.595 -0.467,-0.398 -0.7,-0.838 -0.7,-1.321 0,-0.612 0.167,-1.13 0.499,-1.553 0.333,-0.425 1.014,-0.89 2.045,-1.393 l 2.35,-1.144 c 2.18,-1.063 3.269,-2.463 3.269,-4.202 0,-1.342 -0.507,-2.423 -1.522,-3.244 -1.013,-0.822 -2.149,-1.233 -3.405,-1.233 -0.901,0 -1.932,0.161 -3.091,0.484 -0.397,0.107 -0.687,0.161 -0.87,0.161 -0.247,0 -0.439,-0.14 -0.579,-0.419 h -0.531 v 5.265 h 0.531 c 0.29,-1.503 0.861,-2.635 1.715,-3.397 0.853,-0.763 1.805,-1.144 2.857,-1.144 0.741,0 1.345,0.218 1.812,0.653 0.467,0.434 0.7,0.958 0.7,1.569 0,0.731 -0.255,1.345 -0.765,1.844 -0.509,0.499 -1.546,1.14 -3.107,1.924 -1.562,0.784 -2.587,1.484 -3.075,2.101 -0.489,0.617 -0.733,1.393 -0.733,2.327 0,1.213 0.418,2.227 1.256,3.043 0.837,0.816 1.91,1.224 3.22,1.224 0.601,0 1.305,-0.124 2.109,-0.37 0.548,-0.161 0.912,-0.242 1.095,-0.242 0.161,0 0.293,0.035 0.394,0.105 0.103,0.069 0.218,0.239 0.347,0.507 L 0,0"
         style="fill:#231f20;fill-opacity:1;fill-rule:nonzero;stroke:none"
         transform="matrix(1.3333333,0,0,-1.3333333,435.30667,60.701333)" />
      <path
         id="path15"
         d="M 0,0 V -4.863 H 3.446 V -5.99 H 0 v -9.564 c 0,-0.956 0.137,-1.6 0.411,-1.933 0.274,-0.332 0.625,-0.499 1.054,-0.499 0.365,0 0.709,0.111 1.03,0.33 0.323,0.22 0.581,0.545 0.774,0.975 h 0.628 c -0.365,-1.042 -0.894,-1.83 -1.586,-2.367 -0.692,-0.537 -1.403,-0.805 -2.134,-0.805 -0.493,0 -0.972,0.134 -1.432,0.402 -0.462,0.268 -0.811,0.66 -1.047,1.175 -0.237,0.516 -0.355,1.305 -0.355,2.367 v 9.919 h -2.334 v 0.533 c 0.59,0.226 1.192,0.624 1.803,1.194 0.612,0.571 1.165,1.244 1.659,2.019 0.235,0.387 0.579,1.135 1.03,2.244 L 0,0"
         style="fill:#231f20;fill-opacity:1;fill-rule:nonzero;stroke:none"
         transform="matrix(1.3333333,0,0,-1.3333333,445.41867,54.797333)" />
      <path
         id="path16"
         d="M 0,0 V 5.619 C -1.643,4.964 -2.689,4.509 -3.14,4.251 -3.977,3.789 -4.58,3.295 -4.951,2.77 -5.322,2.243 -5.507,1.68 -5.507,1.079 c 0,-0.784 0.228,-1.428 0.684,-1.932 0.457,-0.505 0.991,-0.757 1.603,-0.757 0.805,0 1.878,0.537 3.22,1.61 z m 0,-1.047 c -1.514,-1.159 -2.463,-1.835 -2.85,-2.028 -0.601,-0.269 -1.219,-0.403 -1.851,-0.403 -1.021,0 -1.86,0.352 -2.52,1.055 -0.66,0.702 -0.99,1.618 -0.99,2.745 0,0.698 0.16,1.321 0.482,1.867 0.43,0.709 1.192,1.396 2.286,2.062 1.064,0.622 2.877,1.406 5.443,2.351 v 0.58 c 0,1.47 -0.231,2.479 -0.693,3.026 -0.461,0.548 -1.142,0.822 -2.045,0.822 -0.675,0 -1.214,-0.18 -1.618,-0.54 C -4.758,10.13 -4.959,9.71 -4.959,9.227 V 8.293 c 0,-0.473 -0.125,-0.849 -0.374,-1.127 -0.249,-0.28 -0.575,-0.419 -0.979,-0.419 -0.382,0 -0.705,0.139 -0.97,0.419 -0.244,0.278 -0.366,0.66 -0.366,1.143 0,0.912 0.469,1.757 1.408,2.536 0.94,0.778 2.268,1.167 3.986,1.167 1.309,0 2.383,-0.22 3.22,-0.66 C 1.599,11.03 2.066,10.509 2.367,9.79 2.56,9.339 2.657,8.395 2.657,6.956 V 1.948 c 0,-0.698 0.005,-1.261 0.016,-1.69 0.01,-0.43 0.038,-0.765 0.081,-1.007 0.042,-0.241 0.123,-0.416 0.241,-0.522 0.118,-0.087 0.263,-0.14 0.434,-0.162 0.162,0 0.312,0.038 0.452,0.113 0.235,0.139 0.67,0.531 1.303,1.176 V -1.051 C 3.993,-2.669 2.844,-3.478 1.739,-3.478 1.223,-3.478 0.805,-3.291 0.483,-2.919 0.161,-2.546 0,-1.922 0,-1.047"
         style="fill:#231f20;fill-opacity:1;fill-rule:nonzero;stroke:none"
         transform="matrix(1.3333333,0,0,-1.3333333,463.06533,76.717333)" />
      <path
         id="path17"
         d="M 0,0 V -3.316 C 1.224,-1.106 2.491,0 3.8,0 c 0.579,0 1.066,-0.18 1.457,-0.539 0.392,-0.36 0.588,-0.776 0.588,-1.248 0,-0.429 -0.139,-0.786 -0.419,-1.071 -0.279,-0.284 -0.611,-0.426 -0.998,-0.426 -0.376,0 -0.797,0.185 -1.263,0.555 -0.467,0.371 -0.814,0.556 -1.04,0.556 -0.204,0 -0.413,-0.108 -0.627,-0.323 C 1.015,-2.925 0.515,-3.649 0,-4.669 v -7.069 c 0,-0.816 0.102,-1.433 0.306,-1.852 0.129,-0.29 0.373,-0.531 0.733,-0.724 0.359,-0.194 0.872,-0.29 1.538,-0.29 v -0.58 h -7.552 v 0.58 c 0.741,0 1.299,0.118 1.675,0.354 0.247,0.15 0.434,0.424 0.563,0.821 0.054,0.194 0.08,0.714 0.08,1.562 v 5.717 c 0,1.728 -0.034,2.75 -0.104,3.067 -0.07,0.316 -0.198,0.553 -0.386,0.708 -0.188,0.156 -0.422,0.234 -0.701,0.234 -0.312,0 -0.687,-0.081 -1.127,-0.242 L -5.136,-1.803 -0.676,0 H 0"
         style="fill:#231f20;fill-opacity:1;fill-rule:nonzero;stroke:none"
         transform="matrix(1.3333333,0,0,-1.3333333,477.19067,60.701333)" />
      <path
         id="path18"
         d="M 0,0 V -3.316 C 1.224,-1.106 2.49,0 3.8,0 c 0.579,0 1.065,-0.18 1.457,-0.539 0.391,-0.36 0.588,-0.776 0.588,-1.248 0,-0.429 -0.14,-0.786 -0.419,-1.071 -0.28,-0.284 -0.612,-0.426 -0.998,-0.426 -0.376,0 -0.797,0.185 -1.264,0.555 -0.467,0.371 -0.814,0.556 -1.039,0.556 -0.204,0 -0.413,-0.108 -0.628,-0.323 C 1.015,-2.925 0.515,-3.649 0,-4.669 v -7.069 c 0,-0.816 0.101,-1.433 0.306,-1.852 0.128,-0.29 0.373,-0.531 0.732,-0.724 0.359,-0.194 0.872,-0.29 1.538,-0.29 v -0.58 h -7.552 v 0.58 c 0.742,0 1.299,0.118 1.675,0.354 0.247,0.15 0.435,0.424 0.564,0.821 0.053,0.194 0.08,0.714 0.08,1.562 v 5.717 c 0,1.728 -0.034,2.75 -0.105,3.067 -0.069,0.316 -0.198,0.553 -0.386,0.708 -0.188,0.156 -0.421,0.234 -0.701,0.234 -0.311,0 -0.686,-0.081 -1.127,-0.242 L -5.137,-1.803 -0.677,0 H 0"
         style="fill:#231f20;fill-opacity:1;fill-rule:nonzero;stroke:none"
         transform="matrix(1.3333333,0,0,-1.3333333,491.83333,60.701333)" />
      <path
         id="path19"
         d="m 0,0 c 0.439,0 0.821,-0.158 1.142,-0.475 0.323,-0.317 0.484,-0.7 0.484,-1.151 0,-0.451 -0.158,-0.837 -0.475,-1.159 C 0.834,-3.107 0.45,-3.268 0,-3.268 c -0.451,0 -0.838,0.161 -1.159,0.483 -0.323,0.322 -0.484,0.708 -0.484,1.159 0,0.451 0.159,0.834 0.475,1.151 C -0.851,-0.158 -0.462,0 0,0 Z m 1.336,-7.712 v -11.851 c 0,-0.912 0.064,-1.522 0.193,-1.827 0.129,-0.307 0.327,-0.537 0.596,-0.693 0.268,-0.156 0.751,-0.233 1.449,-0.233 v -0.58 h -7.165 v 0.58 c 0.719,0 1.202,0.066 1.449,0.201 0.247,0.134 0.443,0.367 0.588,0.701 0.145,0.332 0.217,0.95 0.217,1.851 v 5.684 c 0,1.589 -0.04,2.587 -0.12,2.995 -0.081,0.408 -0.207,0.681 -0.379,0.821 -0.172,0.14 -0.392,0.21 -0.66,0.21 -0.279,0 -0.644,-0.081 -1.095,-0.242 l -0.226,0.579 4.445,1.804 h 0.708"
         style="fill:#231f20;fill-opacity:1;fill-rule:nonzero;stroke:none"
         transform="matrix(1.3333333,0,0,-1.3333333,505.72267,50.418667)" />
      <path
         id="path20"
         d="m 0,0 c -0.385,-1.943 -1.164,-3.438 -2.334,-4.484 -1.169,-1.047 -2.453,-1.571 -3.848,-1.571 -1.674,0 -3.134,0.703 -4.379,2.11 -1.246,1.406 -1.868,3.306 -1.868,5.7 0,2.329 0.689,4.216 2.069,5.66 1.379,1.443 3.035,2.165 4.967,2.165 1.449,0 2.641,-0.384 3.574,-1.151 0.935,-0.767 1.401,-1.565 1.401,-2.391 0,-0.397 -0.134,-0.73 -0.402,-0.998 -0.268,-0.247 -0.634,-0.371 -1.096,-0.371 -0.622,0 -1.099,0.204 -1.432,0.612 -0.161,0.215 -0.284,0.644 -0.37,1.288 0,0.301 -0.057,0.572 -0.169,0.813 -0.114,0.242 -0.272,0.454 -0.476,0.637 -0.376,0.321 -0.896,0.483 -1.561,0.483 -1.063,0 -1.927,-0.398 -2.592,-1.192 -0.87,-1.052 -1.305,-2.442 -1.305,-4.17 0,-1.761 0.432,-3.315 1.296,-4.662 0.864,-1.347 2.031,-2.021 3.502,-2.021 1.041,0 1.986,0.36 2.834,1.079 0.569,0.473 1.144,1.368 1.723,2.689 L 0,0"
         style="fill:#231f20;fill-opacity:1;fill-rule:nonzero;stroke:none"
         transform="matrix(1.3333333,0,0,-1.3333333,529.636,73.474667)" />
      <path
         id="path21"
         d="M 0,0 H 6.827 C 6.827,0.451 6.798,0.837 6.739,1.159 6.68,1.481 6.596,1.76 6.49,1.997 6.232,2.587 5.829,3.06 5.282,3.414 5.024,3.585 4.761,3.714 4.492,3.8 4.224,3.886 3.935,3.929 3.623,3.929 2.732,3.929 1.938,3.585 1.241,2.899 0.542,2.212 0.129,1.245 0,0 Z m 0,-0.934 c 0,-2.179 0.532,-3.894 1.595,-5.144 1.063,-1.251 2.323,-1.876 3.783,-1.876 0.977,0 1.817,0.263 2.52,0.789 0.703,0.525 1.302,1.438 1.796,2.737 L 10.193,-4.75 C 9.967,-6.221 9.312,-7.559 8.228,-8.767 7.144,-9.975 5.786,-10.579 4.155,-10.579 c -1.772,0 -3.288,0.689 -4.549,2.069 -1.261,1.379 -1.892,3.234 -1.892,5.563 0,2.512 0.645,4.477 1.933,5.894 1.288,1.416 2.914,2.125 4.878,2.125 1.632,0 2.984,-0.545 4.057,-1.634 1.074,-1.09 1.611,-2.547 1.611,-4.372 L 0,-0.934"
         style="fill:#231f20;fill-opacity:1;fill-rule:nonzero;stroke:none"
         transform="matrix(1.3333333,0,0,-1.3333333,535.756,67.442667)" />
      <path
         id="path22"
         d="M 0,0 C 1.729,2.083 3.376,3.124 4.944,3.124 5.759,3.124 6.452,2.92 7.021,2.512 7.589,2.136 8.051,1.476 8.406,0.531 8.641,-0.145 8.76,-1.132 8.76,-2.431 v -6.296 c 0,-0.956 0.074,-1.589 0.225,-1.9 0.118,-0.268 0.308,-0.478 0.572,-0.628 0.263,-0.151 0.748,-0.225 1.457,-0.225 v -0.58 H 3.72 v 0.58 h 0.306 c 0.677,0 1.154,0.104 1.433,0.313 0.279,0.209 0.472,0.518 0.579,0.926 0.022,0.097 0.039,0.252 0.049,0.467 0.01,0.215 0.016,0.564 0.016,1.047 v 6.038 c 0,1.331 -0.175,2.303 -0.524,2.915 C 5.231,0.837 4.643,1.143 3.817,1.143 2.539,1.143 1.267,0.445 0,-0.95 v -7.777 c 0,-1.009 0.068,-1.648 0.202,-1.916 0.134,-0.269 0.33,-0.478 0.587,-0.628 0.28,-0.14 0.816,-0.209 1.611,-0.209 v -0.58 h -7.294 v 0.58 h 0.322 c 0.74,0 1.245,0.187 1.514,0.563 0.129,0.182 0.227,0.461 0.298,0.837 0.069,0.376 0.104,0.827 0.104,1.353 v 5.474 c 0,1.815 -0.043,2.893 -0.129,3.237 -0.064,0.387 -0.185,0.649 -0.362,0.789 -0.177,0.14 -0.4,0.209 -0.668,0.209 -0.279,0 -0.639,-0.08 -1.079,-0.241 L -5.135,1.32 -0.692,3.124 H 0 V 0"
         style="fill:#231f20;fill-opacity:1;fill-rule:nonzero;stroke:none"
         transform="matrix(1.3333333,0,0,-1.3333333,557.696,64.866667)" />
      <path
         id="path23"
         d="m 0,0 v -5.023 h -0.531 c -0.398,1.578 -0.918,2.651 -1.563,3.22 -0.643,0.569 -1.46,0.853 -2.447,0.853 -0.74,0 -1.344,-0.198 -1.811,-0.595 -0.467,-0.398 -0.701,-0.838 -0.701,-1.321 0,-0.612 0.167,-1.13 0.499,-1.553 0.333,-0.425 1.015,-0.89 2.045,-1.393 l 2.351,-1.144 c 2.18,-1.063 3.268,-2.463 3.268,-4.202 0,-1.342 -0.506,-2.423 -1.521,-3.244 -1.014,-0.822 -2.149,-1.233 -3.405,-1.233 -0.902,0 -1.932,0.161 -3.091,0.484 -0.398,0.107 -0.688,0.161 -0.87,0.161 -0.247,0 -0.44,-0.14 -0.579,-0.419 h -0.532 v 5.265 h 0.532 c 0.29,-1.503 0.861,-2.635 1.714,-3.397 0.854,-0.763 1.806,-1.144 2.858,-1.144 0.741,0 1.345,0.218 1.811,0.653 0.467,0.434 0.701,0.958 0.701,1.569 0,0.731 -0.255,1.345 -0.765,1.844 -0.51,0.499 -1.546,1.14 -3.107,1.924 -1.562,0.784 -2.587,1.484 -3.076,2.101 -0.488,0.617 -0.732,1.393 -0.732,2.327 0,1.213 0.418,2.227 1.256,3.043 0.837,0.816 1.91,1.224 3.22,1.224 0.601,0 1.304,-0.124 2.109,-0.37 0.548,-0.161 0.912,-0.242 1.095,-0.242 0.161,0 0.293,0.035 0.394,0.105 0.103,0.069 0.218,0.239 0.347,0.507 L 0,0"
         style="fill:#231f20;fill-opacity:1;fill-rule:nonzero;stroke:none"
         transform="matrix(1.3333333,0,0,-1.3333333,586.65733,60.701333)" />
      <path
         id="path24"
         d="m 0,0 h 6.828 c 0,0.451 -0.03,0.837 -0.089,1.159 C 6.68,1.481 6.596,1.76 6.49,1.997 6.232,2.587 5.829,3.06 5.282,3.414 5.024,3.585 4.761,3.714 4.493,3.8 4.224,3.886 3.935,3.929 3.623,3.929 2.732,3.929 1.938,3.585 1.241,2.899 0.542,2.212 0.129,1.245 0,0 Z m 0,-0.934 c 0,-2.179 0.532,-3.894 1.595,-5.144 1.063,-1.251 2.323,-1.876 3.783,-1.876 0.977,0 1.817,0.263 2.52,0.789 0.703,0.525 1.302,1.438 1.796,2.737 L 10.193,-4.75 C 9.967,-6.221 9.312,-7.559 8.228,-8.767 7.144,-9.975 5.787,-10.579 4.155,-10.579 c -1.772,0 -3.287,0.689 -4.549,2.069 -1.261,1.379 -1.892,3.234 -1.892,5.563 0,2.512 0.645,4.477 1.933,5.894 1.288,1.416 2.914,2.125 4.878,2.125 1.632,0 2.984,-0.545 4.057,-1.634 1.074,-1.09 1.611,-2.547 1.611,-4.372 L 0,-0.934"
         style="fill:#231f20;fill-opacity:1;fill-rule:nonzero;stroke:none"
         transform="matrix(1.3333333,0,0,-1.3333333,594.36267,67.442667)" />
    </g>
  </g>
</svg>
