<?xml version="1.0" encoding="UTF-8" standalone="no"?>
<!-- Created with Inkscape (http://www.inkscape.org/) -->

<svg
   version="1.1"
   id="svg1"
   width="223.42133"
   height="223.42133"
   viewBox="0 0 223.42133 223.42133"
   sodipodi:docname="Mongolian Red Cross.svg"
   inkscape:version="1.3.2 (091e20e, 2023-11-25, custom)"
   xmlns:inkscape="http://www.inkscape.org/namespaces/inkscape"
   xmlns:sodipodi="http://sodipodi.sourceforge.net/DTD/sodipodi-0.dtd"
   xmlns="http://www.w3.org/2000/svg"
   xmlns:svg="http://www.w3.org/2000/svg">
  <defs
     id="defs1">
    <clipPath
       clipPathUnits="userSpaceOnUse"
       id="clipPath3">
      <path
         d="M 0,167.566 H 167.52 V 0.06 L 0,0.06 Z"
         transform="translate(-167.566,-83.783)"
         id="path3" />
    </clipPath>
  </defs>
  <sodipodi:namedview
     id="namedview1"
     pagecolor="#ffffff"
     bordercolor="#666666"
     borderopacity="1.0"
     inkscape:showpageshadow="2"
     inkscape:pageopacity="0.0"
     inkscape:pagecheckerboard="0"
     inkscape:deskcolor="#d1d1d1"
     inkscape:zoom="3.6746717"
     inkscape:cx="111.71066"
     inkscape:cy="111.71066"
     inkscape:window-width="1920"
     inkscape:window-height="1017"
     inkscape:window-x="-8"
     inkscape:window-y="-8"
     inkscape:window-maximized="1"
     inkscape:current-layer="g1">
    <inkscape:page
       x="0"
       y="0"
       inkscape:label="1"
       id="page1"
       width="223.42133"
       height="223.42133"
       margin="0"
       bleed="0" />
  </sodipodi:namedview>
  <g
     id="g1"
     inkscape:groupmode="layer"
     inkscape:label="1">
    <g
       id="group-MC1">
      <path
         id="path2"
         d="m 0,0 c 0,46.272 -37.511,83.783 -83.783,83.783 -46.272,0 -83.783,-37.511 -83.783,-83.783 0,-46.272 37.511,-83.783 83.783,-83.783 C -37.511,-83.783 0,-46.272 0,0 m -24.002,0 c 0,-33.016 -26.765,-59.781 -59.781,-59.781 -33.016,0 -59.781,26.765 -59.781,59.781 0,33.016 26.765,59.781 59.781,59.781 33.016,0 59.781,-26.765 59.781,-59.781"
         style="fill:#3163b7;fill-opacity:1;fill-rule:nonzero;stroke:none"
         transform="matrix(1.3333333,0,0,-1.3333333,223.42133,111.71067)"
         clip-path="url(#clipPath3)" />
      <path
         id="path4"
         d="m 0,0 h -27.147 v 27.147 h -29.89 V 0 h -27.147 v -29.89 h 27.147 v -27.147 h 29.89 V -29.89 H 0 V 0"
         style="fill:#ed1c24;fill-opacity:1;fill-rule:nonzero;stroke:none"
         transform="matrix(1.3333333,0,0,-1.3333333,167.83333,91.782667)" />
      <path
         id="path5"
         d="m 0,0 -22.562,8.212 c -4.85,-13.023 -14.113,-23.888 -25.967,-30.802 l 12.007,-20.779 C -19.827,-33.652 -6.79,-18.348 0,0"
         style="fill:#ed1c24;fill-opacity:1;fill-rule:nonzero;stroke:none"
         transform="matrix(1.3333333,0,0,-1.3333333,216.552,150.47467)" />
      <path
         id="path6"
         d="M 0,0 22.562,8.212 C 27.412,-4.811 36.675,-15.676 48.529,-22.59 L 36.522,-43.369 C 19.827,-33.652 6.79,-18.348 0,0"
         style="fill:#ed1c24;fill-opacity:1;fill-rule:nonzero;stroke:none"
         transform="matrix(1.3333333,0,0,-1.3333333,6.9298667,150.47467)" />
      <path
         id="path7"
         d="M 0,0 3.115,-2.805 C 3.62,-3.259 3.907,-3.567 3.976,-3.728 4.078,-3.954 4.105,-4.162 4.059,-4.353 4.007,-4.619 3.847,-4.901 3.58,-5.198 L 3.286,-5.524 3.561,-5.771 8.289,-0.52 8.015,-0.273 7.721,-0.599 C 7.467,-0.881 7.216,-1.062 6.968,-1.144 6.72,-1.225 6.508,-1.235 6.33,-1.174 6.153,-1.112 5.807,-0.85 5.293,-0.387 L -1.324,5.57 c -0.504,0.455 -0.791,0.762 -0.861,0.923 -0.101,0.226 -0.129,0.434 -0.082,0.625 0.052,0.267 0.211,0.548 0.479,0.845 l 0.293,0.326 -0.274,0.248 -4.728,-5.252 0.274,-0.247 0.294,0.326 c 0.254,0.282 0.504,0.464 0.752,0.545 0.248,0.081 0.461,0.091 0.638,0.03 0.178,-0.062 0.524,-0.324 1.038,-0.787 L -0.653,0.588 -3.852,-2.965 -6.7,-0.401 c -0.504,0.455 -0.792,0.762 -0.861,0.923 -0.101,0.226 -0.129,0.434 -0.082,0.625 0.056,0.272 0.216,0.553 0.478,0.845 l 0.301,0.334 -0.275,0.247 -4.735,-5.259 0.275,-0.247 0.3,0.334 c 0.254,0.282 0.504,0.462 0.749,0.541 0.246,0.079 0.457,0.087 0.635,0.026 0.178,-0.062 0.523,-0.324 1.038,-0.787 l 6.616,-5.957 c 0.504,-0.454 0.791,-0.762 0.861,-0.923 0.106,-0.221 0.136,-0.427 0.089,-0.617 -0.056,-0.272 -0.216,-0.554 -0.479,-0.845 l -0.3,-0.334 0.274,-0.247 4.735,5.259 L 2.645,-6.236 2.344,-6.57 C 2.091,-6.852 1.841,-7.032 1.595,-7.111 1.35,-7.19 1.137,-7.2 0.957,-7.141 0.778,-7.082 0.431,-6.821 -0.084,-6.358 L -3.199,-3.553 0,0"
         style="fill:#ffffff;fill-opacity:1;fill-rule:nonzero;stroke:none"
         transform="matrix(1.3333333,0,0,-1.3333333,187.064,170.47333)" />
      <path
         id="path8"
         d="M 0,0 C -0.314,1.019 -0.354,1.88 -0.118,2.586 0.117,3.291 0.582,3.77 1.276,4.023 1.789,4.209 2.303,4.179 2.818,3.931 3.333,3.683 3.752,3.115 4.075,2.227 4.415,1.295 4.489,0.52 4.3,-0.097 4.111,-0.715 3.578,-1.183 2.703,-1.502 2.559,-1.554 2.376,-1.617 2.155,-1.69 l 0.301,-0.826 c 0.807,0.273 1.44,0.409 1.9,0.411 0.46,10e-4 0.918,-0.176 1.373,-0.531 0.454,-0.355 0.796,-0.845 1.023,-1.471 0.299,-0.819 0.314,-1.566 0.046,-2.24 C 6.53,-7.022 6.002,-7.502 5.214,-7.789 4.258,-8.137 3.174,-8.001 1.963,-7.379 l -0.25,-0.537 c 0.727,-0.479 1.45,-0.751 2.171,-0.814 0.72,-0.063 1.609,0.097 2.666,0.482 1.094,0.398 1.944,0.877 2.551,1.438 0.607,0.561 0.996,1.193 1.169,1.897 0.172,0.703 0.141,1.377 -0.093,2.021 -0.271,0.744 -0.8,1.339 -1.585,1.786 -0.786,0.447 -1.898,0.536 -3.337,0.268 0.843,0.583 1.416,1.115 1.718,1.597 0.303,0.482 0.47,0.957 0.501,1.425 C 7.505,2.652 7.449,3.083 7.306,3.477 7.001,4.315 6.377,4.927 5.433,5.312 4.488,5.698 3.366,5.654 2.066,5.181 1.309,4.906 0.574,4.454 -0.139,3.826 -0.406,3.587 -0.603,3.445 -0.728,3.4 -1.003,3.299 -1.257,3.462 -1.489,3.887 L -1.836,3.761 -0.413,-0.15 0,0"
         style="fill:#ffffff;fill-opacity:1;fill-rule:nonzero;stroke:none"
         transform="matrix(1.3333333,0,0,-1.3333333,126.43867,202.86533)" />
      <path
         id="path9"
         d="M 0,0 C 0.817,-0.24 1.307,-0.457 1.468,-0.652 1.63,-0.847 1.681,-1.053 1.623,-1.272 1.545,-1.561 1.246,-1.994 0.727,-2.571 L -3.058,-6.786 -4.73,0.048 c -0.071,0.301 -0.088,0.52 -0.052,0.655 0.096,0.36 0.524,0.438 1.282,0.235 L -3.249,0.871 -3.153,1.227 -9.671,2.974 -9.766,2.617 C -9.217,2.428 -8.825,2.189 -8.59,1.899 -8.354,1.608 -8.133,1.053 -7.925,0.233 l 2.4,-9.747 -0.287,-0.337 c -0.642,-0.751 -1.188,-1.066 -1.638,-0.945 -0.379,0.101 -0.533,0.439 -0.462,1.012 0.061,0.487 0.036,0.841 -0.077,1.064 -0.112,0.223 -0.342,0.381 -0.689,0.474 -0.366,0.099 -0.71,0.058 -1.03,-0.121 -0.32,-0.18 -0.531,-0.459 -0.632,-0.838 -0.126,-0.47 -0.062,-0.942 0.194,-1.416 0.255,-0.475 0.732,-0.806 1.433,-0.994 0.643,-0.172 1.237,-0.173 1.782,-0.002 0.545,0.17 1.303,0.794 2.273,1.87 l 6.208,6.893 c 0.697,0.778 1.228,1.273 1.591,1.485 0.364,0.213 0.776,0.278 1.236,0.196 L 4.473,-0.816 0.096,0.357 0,0"
         style="fill:#ffffff;fill-opacity:1;fill-rule:nonzero;stroke:none"
         transform="matrix(1.3333333,0,0,-1.3333333,97.104,196.82)" />
      <path
         id="path10"
         d="M 0,0 -3.591,4.205 -3.872,3.965 -3.593,3.638 C -3.347,3.35 -3.2,3.078 -3.151,2.821 -3.103,2.565 -3.12,2.354 -3.201,2.188 -3.283,2.022 -3.584,1.717 -4.105,1.272 l -6.512,-5.562 c -0.461,-0.393 -0.723,-0.609 -0.787,-0.646 -0.286,-0.147 -0.537,-0.227 -0.755,-0.238 -0.218,-0.011 -0.451,0.048 -0.698,0.179 -0.247,0.13 -0.465,0.311 -0.654,0.543 l -0.091,0.107 -0.281,-0.24 3.008,-3.522 0.281,0.24 c -0.402,0.471 -0.617,0.884 -0.646,1.24 -0.029,0.356 0.055,0.676 0.252,0.957 0.095,0.125 0.395,0.403 0.901,0.836 l 7.249,6.19 -5.898,-11.967 0.156,-0.183 12.759,4.072 -7.628,-6.514 c -0.516,-0.441 -0.858,-0.685 -1.027,-0.734 -0.237,-0.071 -0.445,-0.073 -0.624,-0.007 -0.262,0.091 -0.522,0.289 -0.782,0.592 l -0.285,0.334 -0.281,-0.24 4.59,-5.373 0.281,0.24 -0.286,0.334 c -0.246,0.288 -0.393,0.561 -0.442,0.817 -0.048,0.256 -0.03,0.468 0.054,0.636 0.084,0.168 0.389,0.477 0.915,0.926 l 6.786,5.796 c 0.511,0.436 0.851,0.678 1.02,0.726 0.231,0.067 0.437,0.067 0.616,10e-4 0.261,-0.091 0.522,-0.288 0.781,-0.592 l 0.286,-0.334 0.28,0.24 -3.578,4.189 -9.17,-3.002 L 0,0"
         style="fill:#ffffff;fill-opacity:1;fill-rule:nonzero;stroke:none"
         transform="matrix(1.3333333,0,0,-1.3333333,44.698667,164.69733)" />
    </g>
  </g>
</svg>
