<?xml version="1.0" encoding="UTF-8" standalone="no"?>
<!-- Created with Inkscape (http://www.inkscape.org/) -->

<svg
   version="1.1"
   id="svg1"
   width="473.80533"
   height="134.23599"
   viewBox="0 0 473.80533 134.23599"
   sodipodi:docname="Croix-Rouge luxembourgeoise.svg"
   inkscape:version="1.3.2 (091e20e, 2023-11-25, custom)"
   xmlns:inkscape="http://www.inkscape.org/namespaces/inkscape"
   xmlns:sodipodi="http://sodipodi.sourceforge.net/DTD/sodipodi-0.dtd"
   xmlns="http://www.w3.org/2000/svg"
   xmlns:svg="http://www.w3.org/2000/svg">
  <defs
     id="defs1">
    <clipPath
       clipPathUnits="userSpaceOnUse"
       id="clipPath4">
      <path
         d="M 0.059998,100.677 H 355.354 V 0 H 0.059998 Z"
         transform="translate(-17.577,-61.642001)"
         id="path4" />
    </clipPath>
  </defs>
  <sodipodi:namedview
     id="namedview1"
     pagecolor="#ffffff"
     bordercolor="#666666"
     borderopacity="1.0"
     inkscape:showpageshadow="2"
     inkscape:pageopacity="0.0"
     inkscape:pagecheckerboard="0"
     inkscape:deskcolor="#d1d1d1"
     inkscape:export-bgcolor="#ffffffff"
     inkscape:zoom="1.9733843"
     inkscape:cx="236.90266"
     inkscape:cy="67.143536"
     inkscape:window-width="1920"
     inkscape:window-height="1017"
     inkscape:window-x="-8"
     inkscape:window-y="-8"
     inkscape:window-maximized="1"
     inkscape:current-layer="g1">
    <inkscape:page
       x="0"
       y="0"
       inkscape:label="Page 1"
       id="page1"
       width="473.80533"
       height="134.23599"
       margin="0"
       bleed="0"
       inkscape:export-filename="Croix-Rouge luxembourgeoise.png"
       inkscape:export-xdpi="300"
       inkscape:export-ydpi="300" />
  </sodipodi:namedview>
  <g
     id="g1"
     inkscape:groupmode="layer"
     inkscape:label="Page 1">
    <g
       id="group-MC1">
      <path
         id="path2"
         d="m 0,0 c 0,7.082 0,31.473 0,31.473 h -31.455 c 0,0 0,-24.391 0,-31.473 -7.079,0 -31.552,0 -31.552,0 l 0.046,-31.455 c 0,0 24.427,0 31.506,0 0,-7.078 0,-31.532 0,-31.532 H 0 c 0,0 0,24.454 0,31.532 7.088,0 31.445,0 31.445,0 V 0 C 31.445,0 7.088,0 0,0"
         style="fill:#ed1c24;fill-opacity:1;fill-rule:nonzero;stroke:none"
         transform="matrix(1.3333333,0,0,-1.3333333,431.87867,41.964)" />
      <path
         id="path3"
         d="m 0,0 c -0.423,2.961 -2.585,4.559 -5.545,4.559 -2.7734,0 -6.674,-1.457 -6.674,-8.835 0,-4.042 1.786,-8.319 6.438,-8.319 3.102,0 5.264,2.068 5.781,5.545 h 5.358 c -0.987,-6.297 -4.888,-9.775 -11.139,-9.775 -7.613,0 -11.796,5.405 -11.796,12.549 0,7.331 3.995,13.064 11.985,13.064 C 0.047,8.788 4.841,5.969 5.358,0 H 0"
         style="fill:#231f20;fill-opacity:1;fill-rule:nonzero;stroke:none"
         transform="matrix(1.3333333,0,0,-1.3333333,23.436,52.046667)"
         clip-path="url(#clipPath4)" />
      <path
         id="path5"
         d="m 0,0 h 5.029 v -4.7 h 0.094 c 0.611,2.585 3.806,5.357 7.096,5.357 1.222,0 1.551,-0.094 2.021,-0.14 v -5.17 c -0.752,0.093 -1.551,0.235 -2.303,0.235 -3.666,0 -6.579,-2.961 -6.579,-8.318 V -24.298 H 0 L 0,0"
         style="fill:#231f20;fill-opacity:1;fill-rule:nonzero;stroke:none"
         transform="matrix(1.3333333,0,0,-1.3333333,35.532,41.205333)" />
      <path
         id="path6"
         d="m 0,0 c 0,4.184 -2.115,8.554 -6.909,8.554 -4.794,0 -6.908,-4.37 -6.908,-8.554 0,-4.23 2.114,-8.6 6.908,-8.6 C -2.115,-8.6 0,-4.23 0,0 Z m -19.175,0 c 0,7.426 4.465,12.783 12.266,12.783 7.802,0 12.267,-5.357 12.267,-12.783 0,-7.473 -4.465,-12.83 -12.267,-12.83 -7.801,0 -12.266,5.357 -12.266,12.83"
         style="fill:#231f20;fill-opacity:1;fill-rule:nonzero;stroke:none"
         transform="matrix(1.3333333,0,0,-1.3333333,79.658667,57.373333)" />
      <path
         id="path7"
         d="M 0,0 H 5.3574 V -24.298 H 0 Z M 0,9.258 H 5.3574 V 4.1828 H 0 Z"
         style="fill:#231f20;fill-opacity:1;fill-rule:nonzero;stroke:none"
         transform="matrix(1.3333333,0,0,-1.3333333,92.068,41.205333)" />
      <path
         id="path8"
         d="m 0,0 -8.413,11.515 h 6.485 l 5.076,-7.473 5.311,7.473 h 6.203 L 6.391,0.282 15.697,-12.783 H 9.258 l -6.156,8.976 -5.969,-8.976 H -9.165 L 0,0"
         style="fill:#231f20;fill-opacity:1;fill-rule:nonzero;stroke:none"
         transform="matrix(1.3333333,0,0,-1.3333333,114.81467,56.558667)" />
      <path
         id="path9"
         d="m 103.641,55.72 h 13.676 v 5.0761 h -13.676 z"
         style="fill:#231f20;fill-opacity:1;fill-rule:nonzero;stroke:none"
         transform="matrix(1.3333333,0,0,-1.3333333,0,134.236)" />
      <path
         id="path10"
         d="m 0,0 h 5.03 v -4.7 h 0.093 c 0.611,2.585 3.807,5.357 7.096,5.357 1.223,0 1.551,-0.094 2.021,-0.14 v -5.17 c -0.752,0.093 -1.55,0.235 -2.302,0.235 -3.666,0 -6.58,-2.961 -6.58,-8.318 V -24.298 H 0 L 0,0"
         style="fill:#231f20;fill-opacity:1;fill-rule:nonzero;stroke:none"
         transform="matrix(1.3333333,0,0,-1.3333333,162.37733,41.205333)" />
      <path
         id="path11"
         d="m 0,0 c 0,4.184 -2.115,8.554 -6.908,8.554 -4.794,0 -6.909,-4.37 -6.909,-8.554 0,-4.23 2.115,-8.6 6.909,-8.6 C -2.115,-8.6 0,-4.23 0,0 Z m -19.175,0 c 0,7.426 4.465,12.783 12.267,12.783 7.801,0 12.265,-5.357 12.265,-12.783 0,-7.473 -4.464,-12.83 -12.265,-12.83 -7.802,0 -12.267,5.357 -12.267,12.83"
         style="fill:#231f20;fill-opacity:1;fill-rule:nonzero;stroke:none"
         transform="matrix(1.3333333,0,0,-1.3333333,206.504,57.373333)" />
      <path
         id="path12"
         d="m 0,0 h -5.264 v 3.384 h -0.094 c -1.316,-2.445 -4.229,-4.042 -6.908,-4.042 -6.344,0 -9.07,3.196 -9.07,9.541 v 15.415 h 5.357 V 9.399 c 0,-4.276 1.739,-5.827 4.653,-5.827 4.465,0 5.968,2.866 5.968,6.626 v 14.1 H 0 L 0,0"
         style="fill:#231f20;fill-opacity:1;fill-rule:nonzero;stroke:none"
         transform="matrix(1.3333333,0,0,-1.3333333,247.17333,73.602667)" />
      <path
         id="path13"
         d="m 0,0 c 0,4.183 -1.88,8.036 -6.532,8.036 -4.748,0 -6.392,-4.418 -6.392,-8.459 0,-3.995 1.927,-8.037 6.392,-8.037 C -1.786,-8.46 0,-4.136 0,0 Z m 5.357,-11.421 c 0,-7.284 -4.276,-10.903 -11.937,-10.903 -4.887,0 -10.386,1.88 -10.856,7.566 h 5.358 c 0.658,-3.054 3.101,-3.571 5.827,-3.571 4.324,0 6.251,2.209 6.251,6.204 v 3.712 h -0.094 c -1.504,-2.679 -4.277,-4.276 -7.285,-4.276 -7.707,0 -10.903,5.828 -10.903,12.783 0,6.532 4.088,12.172 10.998,12.172 3.054,0 5.827,-1.269 7.19,-3.995 H 0 v 3.337 h 5.357 v -23.029"
         style="fill:#231f20;fill-opacity:1;fill-rule:nonzero;stroke:none"
         transform="matrix(1.3333333,0,0,-1.3333333,276.62667,56.684)" />
      <path
         id="path14"
         d="m 0,0 c -0.189,3.384 -2.491,6.438 -6.11,6.438 -3.712,0 -6.251,-2.819 -6.391,-6.438 z m -12.501,-3.524 c 0,-3.808 2.067,-7.191 6.532,-7.191 3.102,0 4.981,1.362 5.922,4.041 h 5.075 c -1.175,-5.31 -5.686,-8.271 -10.997,-8.271 -7.613,0 -11.891,5.31 -11.891,12.783 0,6.909 4.512,12.83 11.75,12.83 7.661,0 12.36,-6.908 11.467,-14.192 h -17.858"
         style="fill:#231f20;fill-opacity:1;fill-rule:nonzero;stroke:none"
         transform="matrix(1.3333333,0,0,-1.3333333,312.34533,54.553333)" />
      <path
         id="path15"
         d="m 0.58055,6.7747 h 2.7422 v 23.031 h -2.7422 z"
         style="fill:#231f20;fill-opacity:1;fill-rule:nonzero;stroke:none"
         transform="matrix(1.3333333,0,0,-1.3333333,0,134.236)" />
      <path
         id="path16"
         d="m 0,0 h -2.581 v 2.6455 h -0.064 c -1.162,-2.0645 -3.032,-3.0323 -5.419,-3.0323 -4.387,0 -5.742,2.5157 -5.742,6.0968 v 10.967 h 2.742 V 5.387 c 0,-2.033 1.29,-3.3548 3.387,-3.3548 3.322,0 4.935,2.2258 4.935,5.2258 v 9.419 H 0 V 0"
         style="fill:#231f20;fill-opacity:1;fill-rule:nonzero;stroke:none"
         transform="matrix(1.3333333,0,0,-1.3333333,27.910667,125.20307)" />
      <path
         id="path17"
         d="m 0,0 -5.807,7.902 h 3.517 l 4,-5.838 4.161,5.838 h 3.29 L 3.419,0.226 9.871,-8.7744 H 6.354 L 1.71,-1.871 -2.936,-8.7744 H -6.258 L 0,0"
         style="fill:#231f20;fill-opacity:1;fill-rule:nonzero;stroke:none"
         transform="matrix(1.3333333,0,0,-1.3333333,38.786667,113.504)" />
      <path
         id="path18"
         d="M 0,0 C -0.129,2.612 -2.097,4.709 -4.806,4.709 -7.677,4.709 -9.387,2.548 -9.58,0 Z m 2.646,-4.646 c -0.742,-3.6763 -3.388,-5.676 -7.129,-5.676 -5.323,0 -7.839,3.677 -8,8.773 0,5 3.29,8.678 7.838,8.678 5.903,0 7.709,-5.517 7.549,-9.549 H -9.58 c -0.097,-2.903 1.548,-5.4833 5.193,-5.4833 2.258,0 3.839,1.0967 4.323,3.2573 h 2.71"
         style="fill:#231f20;fill-opacity:1;fill-rule:nonzero;stroke:none"
         transform="matrix(1.3333333,0,0,-1.3333333,69.92,111.956)" />
      <path
         id="path19"
         d="m 0,0 h 2.58 v -2.451 h 0.065 c 1.226,1.871 3.097,2.839 5.387,2.839 2.032,0 3.904,-0.807 4.58,-2.839 1.13,1.773 3.097,2.839 5.226,2.839 3.322,0 5.549,-1.388 5.549,-4.839 v -12.226 h -2.743 v 10.936 c 0,2.064 -0.548,3.709 -3.225,3.709 -2.646,0 -4.355,-1.677 -4.355,-4.258 v -10.387 h -2.742 v 10.936 c 0,2.161 -0.677,3.709 -3.129,3.709 -3.257,0 -4.451,-3 -4.451,-4.258 V -16.677 H 0 V 0"
         style="fill:#231f20;fill-opacity:1;fill-rule:nonzero;stroke:none"
         transform="matrix(1.3333333,0,0,-1.3333333,76.969333,102.968)" />
      <path
         id="path20"
         d="m 0,0 c -3.678,0 -5.098,-3.161 -5.098,-6.29 0,-3.29 1.485,-6.322 5.259,-6.322 3.741,0 4.999,3.193 4.999,6.451 C 5.16,-3.032 3.548,0 0,0 Z M -7.742,8.387 H -5 v -8.613 h 0.064 c 0.903,1.839 3.033,2.646 5.323,2.646 5.129,0 7.678,-4.065 7.678,-8.775 0,-4.71 -2.517,-8.676 -7.614,-8.676 -1.709,0 -4.161,0.644 -5.387,2.612 H -5 v -2.225 H -7.742 V 8.387"
         style="fill:#231f20;fill-opacity:1;fill-rule:nonzero;stroke:none"
         transform="matrix(1.3333333,0,0,-1.3333333,123.49733,105.67733)" />
      <path
         id="path21"
         d="m 0,0 c 2.871,0 5.194,2.258 5.194,6.29 0,4.065 -2.323,6.322 -5.194,6.322 -2.871,0 -5.193,-2.257 -5.193,-6.322 C -5.193,2.258 -2.871,0 0,0 Z m 0,15.032 c 5.289,0 8.096,-3.839 8.096,-8.742 0,-4.871 -2.807,-8.709 -8.096,-8.709 -5.291,0 -8.097,3.838 -8.097,8.709 0,4.903 2.806,8.742 8.097,8.742"
         style="fill:#231f20;fill-opacity:1;fill-rule:nonzero;stroke:none"
         transform="matrix(1.3333333,0,0,-1.3333333,147.53333,122.49347)" />
      <path
         id="path22"
         d="m 0,0 h -2.58 v 2.6455 h -0.064 c -1.162,-2.0645 -3.033,-3.0323 -5.42,-3.0323 -4.387,0 -5.742,2.5157 -5.742,6.0968 v 10.967 h 2.742 V 5.387 c 0,-2.033 1.291,-3.3548 3.387,-3.3548 3.322,0 4.935,2.2258 4.935,5.2258 v 9.419 H 0 V 0"
         style="fill:#231f20;fill-opacity:1;fill-rule:nonzero;stroke:none"
         transform="matrix(1.3333333,0,0,-1.3333333,180.42933,125.20307)" />
      <path
         id="path23"
         d="m 0,0 h 2.581 v -3.516 h 0.065 c 1.322,2.677 3.161,4 6.129,3.904 v -2.904 c -4.419,0 -6.032,-2.516 -6.032,-6.742 v -7.419 H 0 L 0,0"
         style="fill:#231f20;fill-opacity:1;fill-rule:nonzero;stroke:none"
         transform="matrix(1.3333333,0,0,-1.3333333,185.19733,102.968)" />
      <path
         id="path24"
         d="m 0,0 c 0,2.936 -1.291,5.968 -4.742,5.968 -3.516,0 -4.935,-2.871 -4.935,-6.065 0,-3 1.096,-6.3542 4.709,-6.3542 C -1.355,-6.4512 0,-3.129 0,0 Z m 2.709,-7.2578 c 0,-5.4192 -2.483,-8.1932 -7.742,-8.1932 -3.129,0 -6.741,1.259 -6.902,4.903 h 2.741 c 0.13,-2 2.517,-2.709 4.323,-2.709 3.58,0 4.999,2.58 4.999,6.3224 v 1.0967 H 0.064 c -0.903,-2.0322 -3.097,-3.0322 -5.193,-3.0322 -4.967,0 -7.452,3.9031 -7.452,8.4511 0,3.936 1.936,8.807 7.71,8.807 2.097,0 3.967,-0.936 4.967,-2.775 H 0.128 V 8 H 2.709 V -7.2578"
         style="fill:#231f20;fill-opacity:1;fill-rule:nonzero;stroke:none"
         transform="matrix(1.3333333,0,0,-1.3333333,213.41733,113.63467)" />
      <path
         id="path25"
         d="M 0,0 C -0.129,2.612 -2.096,4.709 -4.805,4.709 -7.676,4.709 -9.386,2.548 -9.58,0 Z m 2.646,-4.646 c -0.742,-3.6763 -3.387,-5.676 -7.129,-5.676 -5.322,0 -7.839,3.677 -8,8.773 0,5 3.29,8.678 7.839,8.678 5.902,0 7.709,-5.517 7.548,-9.549 H -9.58 c -0.096,-2.903 1.548,-5.4833 5.194,-5.4833 2.257,0 3.839,1.0967 4.322,3.2573 h 2.71"
         style="fill:#231f20;fill-opacity:1;fill-rule:nonzero;stroke:none"
         transform="matrix(1.3333333,0,0,-1.3333333,237.36667,111.956)" />
      <path
         id="path26"
         d="m 0,0 c 2.871,0 5.193,2.258 5.193,6.29 0,4.065 -2.322,6.322 -5.193,6.322 -2.871,0 -5.193,-2.257 -5.193,-6.322 C -5.193,2.258 -2.871,0 0,0 Z m 0,15.032 c 5.29,0 8.097,-3.839 8.097,-8.742 0,-4.871 -2.807,-8.709 -8.097,-8.709 -5.29,0 -8.097,3.838 -8.097,8.709 0,4.903 2.807,8.742 8.097,8.742"
         style="fill:#231f20;fill-opacity:1;fill-rule:nonzero;stroke:none"
         transform="matrix(1.3333333,0,0,-1.3333333,254.00667,122.49347)" />
      <path
         id="path27"
         d="M 0,0 H 2.742 V -16.677 H 0 Z M 2.742,3 H 0 v 3.3545 h 2.742 z"
         style="fill:#231f20;fill-opacity:1;fill-rule:nonzero;stroke:none"
         transform="matrix(1.3333333,0,0,-1.3333333,268.70933,102.968)" />
      <path
         id="path28"
         d="m 0,0 c 0.097,-2.4512 2.225,-3.2256 4.483,-3.2256 1.71,0 4.032,0.3867 4.032,2.4836 0,2.129 -2.709,2.484 -5.451,3.097 -2.71,0.613 -5.452,1.516 -5.452,4.709 0,3.355 3.323,4.743 6.226,4.743 3.677,0 6.613,-1.162 6.839,-5.227 H 7.934 C 7.741,8.71 5.87,9.387 4.064,9.387 2.419,9.387 0.515,8.936 0.515,7.258 c 0,-1.968 2.904,-2.29 5.452,-2.903 2.742,-0.613 5.452,-1.516 5.452,-4.742 0,-3.9675 -3.71,-5.2576 -7.097,-5.2576 -3.742,0 -6.903,1.5157 -7.064,5.6446 H 0"
         style="fill:#231f20;fill-opacity:1;fill-rule:nonzero;stroke:none"
         transform="matrix(1.3333333,0,0,-1.3333333,279.676,118.19333)" />
      <path
         id="path29"
         d="M 0,0 C -0.129,2.612 -2.097,4.709 -4.806,4.709 -7.677,4.709 -9.387,2.548 -9.58,0 Z m 2.646,-4.646 c -0.743,-3.6763 -3.387,-5.676 -7.129,-5.676 -5.323,0 -7.839,3.677 -8,8.773 0,5 3.29,8.678 7.839,8.678 5.902,0 7.708,-5.517 7.547,-9.549 H -9.58 c -0.097,-2.903 1.548,-5.4833 5.193,-5.4833 2.258,0 3.839,1.0967 4.323,3.2573 h 2.71"
         style="fill:#231f20;fill-opacity:1;fill-rule:nonzero;stroke:none"
         transform="matrix(1.3333333,0,0,-1.3333333,313.776,111.956)" />
    </g>
  </g>
</svg>
