<?xml version="1.0" encoding="UTF-8" standalone="no"?>
<!-- Created with Inkscape (http://www.inkscape.org/) -->

<svg
   version="1.1"
   id="svg1"
   width="418.04266"
   height="551.9613"
   viewBox="0 0 418.04266 551.9613"
   sodipodi:docname="Salvador RC.svg"
   inkscape:version="1.3.2 (091e20e, 2023-11-25, custom)"
   xmlns:inkscape="http://www.inkscape.org/namespaces/inkscape"
   xmlns:sodipodi="http://sodipodi.sourceforge.net/DTD/sodipodi-0.dtd"
   xmlns="http://www.w3.org/2000/svg"
   xmlns:svg="http://www.w3.org/2000/svg">
  <defs
     id="defs1">
    <clipPath
       clipPathUnits="userSpaceOnUse"
       id="clipPath23">
      <path
         d="M 0.059998,413.971 H 313.532 V 0.06 H 0.059998 Z"
         transform="translate(-2.0000001,-1.9999975)"
         id="path23" />
    </clipPath>
  </defs>
  <sodipodi:namedview
     id="namedview1"
     pagecolor="#ffffff"
     bordercolor="#666666"
     borderopacity="1.0"
     inkscape:showpageshadow="2"
     inkscape:pageopacity="0.0"
     inkscape:pagecheckerboard="0"
     inkscape:deskcolor="#d1d1d1"
     inkscape:export-bgcolor="#ffffffff"
     inkscape:zoom="1.4874231"
     inkscape:cx="208.75029"
     inkscape:cy="275.98065"
     inkscape:window-width="1920"
     inkscape:window-height="1017"
     inkscape:window-x="-8"
     inkscape:window-y="-8"
     inkscape:window-maximized="1"
     inkscape:current-layer="g1">
    <inkscape:page
       x="0"
       y="0"
       inkscape:label="1"
       id="page1"
       width="418.04266"
       height="551.9613"
       margin="0"
       bleed="0"
       inkscape:export-filename="Salvador RC.png"
       inkscape:export-xdpi="300"
       inkscape:export-ydpi="300" />
  </sodipodi:namedview>
  <g
     id="g1"
     inkscape:groupmode="layer"
     inkscape:label="1">
    <g
       id="group-MC1">
      <path
         id="path2"
         d="m 0,0 h -79.589 v 79.589 h -72.295 V 0 h -79.588 v -72.295 h 79.588 v -79.589 h 72.295 v 79.589 H 0 L 0,0"
         style="fill:#ed1c24;fill-opacity:1;fill-rule:nonzero;stroke:none"
         transform="matrix(1.3333333,0,0,-1.3333333,364.00667,159.96267)" />
      <path
         id="path3"
         d="m 0,0 3.086,-0.78 c -0.647,-2.535 -1.811,-4.469 -3.492,-5.8 -1.681,-1.331 -3.736,-1.997 -6.165,-1.997 -2.514,0 -4.558,0.512 -6.133,1.537 -1.575,1.023 -2.773,2.504 -3.595,4.446 -0.822,1.941 -1.233,4.025 -1.233,6.252 0,2.429 0.464,4.548 1.392,6.355 0.928,1.809 2.248,3.183 3.961,4.121 1.713,0.939 3.598,1.409 5.656,1.409 2.333,0 4.295,-0.594 5.886,-1.783 1.591,-1.188 2.7,-2.858 3.325,-5.01 L -0.35,8.033 c -0.541,1.697 -1.326,2.933 -2.355,3.707 -1.028,0.774 -2.322,1.162 -3.882,1.162 -1.792,0 -3.291,-0.43 -4.494,-1.289 -1.204,-0.86 -2.05,-2.013 -2.538,-3.461 -0.487,-1.447 -0.731,-2.94 -0.731,-4.478 0,-1.983 0.288,-3.714 0.867,-5.194 0.578,-1.48 1.477,-2.586 2.696,-3.317 1.22,-0.732 2.54,-1.098 3.962,-1.098 1.728,0 3.192,0.499 4.391,1.495 1.198,0.997 2.01,2.477 2.434,4.44"
         style="fill:#231f20;fill-opacity:1;fill-rule:nonzero;stroke:none"
         transform="matrix(1.3333333,0,0,-1.3333333,111.54133,435.224)" />
      <path
         id="path4"
         d="m 0,0 h 6.634 c 1.41,0 2.513,0.147 3.309,0.438 0.795,0.292 1.399,0.757 1.814,1.4 0.413,0.642 0.62,1.339 0.62,2.092 0,1.103 -0.401,2.01 -1.202,2.72 -0.8,0.711 -2.065,1.067 -3.793,1.067 L 0,7.717 Z m -3.086,-13.029 v 23.322 h 10.34 c 2.079,0 3.659,-0.209 4.741,-0.628 1.082,-0.419 1.946,-1.159 2.593,-2.22 0.647,-1.06 0.971,-2.232 0.971,-3.515 0,-1.655 -0.536,-3.049 -1.607,-4.184 -1.071,-1.135 -2.726,-1.856 -4.964,-2.164 0.817,-0.392 1.437,-0.779 1.861,-1.161 0.902,-0.827 1.756,-1.861 2.562,-3.103 l 4.056,-6.347 H 13.586 L 10.5,-8.178 C 9.598,-6.777 8.855,-5.706 8.272,-4.963 7.689,-4.221 7.167,-3.701 6.705,-3.404 6.244,-3.107 5.775,-2.9 5.297,-2.783 4.948,-2.71 4.375,-2.672 3.579,-2.672 H 0 v -10.357 h -3.086"
         style="fill:#231f20;fill-opacity:1;fill-rule:nonzero;stroke:none"
         transform="matrix(1.3333333,0,0,-1.3333333,124.90533,428.756)" />
      <path
         id="path5"
         d="m 0,0 h 3.087 v -13.475 c 0,-2.343 -0.266,-4.205 -0.796,-5.584 -0.53,-1.378 -1.487,-2.5 -2.872,-3.365 -1.383,-0.864 -3.2,-1.297 -5.448,-1.297 -2.185,0 -3.973,0.377 -5.362,1.131 -1.389,0.752 -2.381,1.842 -2.975,3.269 -0.594,1.427 -0.89,3.376 -0.89,5.846 V 0 h 3.086 v -13.459 c 0,-2.025 0.188,-3.517 0.564,-4.478 0.377,-0.959 1.024,-1.7 1.941,-2.219 0.918,-0.52 2.039,-0.779 3.365,-0.779 2.27,0 3.887,0.513 4.853,1.542 0.965,1.029 1.447,3.007 1.447,5.934 L 0,0"
         style="fill:#231f20;fill-opacity:1;fill-rule:nonzero;stroke:none"
         transform="matrix(1.3333333,0,0,-1.3333333,172.504,415.032)" />
      <path
         id="path6"
         d="m 0,0 v 2.863 l 11.948,14.94 c 0.848,1.06 1.654,1.982 2.418,2.767 H 1.352 v 2.752 H 18.057 V 20.57 L 4.964,4.39 3.548,2.752 H 18.439 V 0 H 0"
         style="fill:#231f20;fill-opacity:1;fill-rule:nonzero;stroke:none"
         transform="matrix(1.3333333,0,0,-1.3333333,180.98933,446.128)" />
      <path
         id="path7"
         d="m 0,0 h 6.635 c 1.41,0 2.513,0.147 3.308,0.438 0.796,0.292 1.401,0.757 1.814,1.4 0.414,0.642 0.621,1.339 0.621,2.092 0,1.103 -0.401,2.01 -1.201,2.72 C 10.376,7.361 9.11,7.717 7.382,7.717 H 0 Z M -3.086,-13.029 V 10.293 H 7.255 c 2.078,0 3.659,-0.209 4.741,-0.628 1.081,-0.419 1.945,-1.159 2.593,-2.22 0.646,-1.06 0.97,-2.232 0.97,-3.515 0,-1.655 -0.536,-3.049 -1.607,-4.184 -1.071,-1.135 -2.726,-1.856 -4.963,-2.164 0.817,-0.392 1.437,-0.779 1.861,-1.161 0.902,-0.827 1.755,-1.861 2.562,-3.103 l 4.057,-6.347 H 13.587 L 10.5,-8.178 C 9.599,-6.777 8.856,-5.706 8.273,-4.963 7.689,-4.221 7.167,-3.701 6.706,-3.404 6.244,-3.107 5.775,-2.9 5.298,-2.783 4.948,-2.71 4.375,-2.672 3.58,-2.672 H 0 v -10.357 h -3.086"
         style="fill:#231f20;fill-opacity:1;fill-rule:nonzero;stroke:none"
         transform="matrix(1.3333333,0,0,-1.3333333,226.256,428.756)" />
      <path
         id="path8"
         d="m 0,0 c 0,-2.811 0.755,-5.024 2.266,-6.641 1.512,-1.618 3.407,-2.427 5.688,-2.427 2.323,0 4.234,0.816 5.735,2.45 1.501,1.633 2.252,3.951 2.252,6.952 0,1.899 -0.321,3.556 -0.963,4.972 C 14.336,6.722 13.398,7.82 12.162,8.599 10.926,9.378 9.54,9.769 8.002,9.769 5.817,9.769 3.937,9.018 2.362,7.517 0.787,6.017 0,3.511 0,0 Z m -3.182,0.048 c 0,3.871 1.039,6.902 3.118,9.092 2.078,2.189 4.762,3.285 8.05,3.285 2.153,0 4.094,-0.515 5.823,-1.543 1.729,-1.029 3.046,-2.463 3.953,-4.304 0.907,-1.839 1.361,-3.926 1.361,-6.26 0,-2.366 -0.478,-4.481 -1.432,-6.348 -0.955,-1.866 -2.308,-3.279 -4.058,-4.239 -1.75,-0.96 -3.637,-1.441 -5.663,-1.441 -2.195,0 -4.158,0.532 -5.886,1.592 -1.729,1.061 -3.039,2.508 -3.93,4.343 -0.891,1.835 -1.336,3.776 -1.336,5.823"
         style="fill:#231f20;fill-opacity:1;fill-rule:nonzero;stroke:none"
         transform="matrix(1.3333333,0,0,-1.3333333,256.44133,431.04667)" />
      <path
         id="path9"
         d="m 0,0 2.784,0.382 c 0.074,-1.781 0.408,-3.002 1.002,-3.659 0.595,-0.658 1.416,-0.987 2.467,-0.987 0.773,0 1.441,0.178 2.004,0.534 0.562,0.354 0.949,0.836 1.161,1.448 0.213,0.609 0.318,1.582 0.318,2.918 v 16.068 h 3.087 V 0.811 c 0,-1.951 -0.236,-3.462 -0.708,-4.534 -0.472,-1.071 -1.22,-1.887 -2.243,-2.45 -1.024,-0.562 -2.225,-0.844 -3.603,-0.844 -2.047,0 -3.615,0.59 -4.702,1.767 C 0.479,-4.073 -0.042,-2.323 0,0"
         style="fill:#231f20;fill-opacity:1;fill-rule:nonzero;stroke:none"
         transform="matrix(1.3333333,0,0,-1.3333333,285.14133,437.304)" />
      <path
         id="path10"
         d="M 0,0 H 7.907 L 5.473,6.46 C 4.731,8.421 4.179,10.033 3.818,11.296 3.522,9.8 3.103,8.315 2.562,6.841 Z M -6.729,-9.577 2.228,13.745 H 5.553 L 15.098,-9.577 H 11.582 L 8.861,-2.514 H -0.89 l -2.562,-7.063 h -3.277"
         style="fill:#231f20;fill-opacity:1;fill-rule:nonzero;stroke:none"
         transform="matrix(1.3333333,0,0,-1.3333333,314.52,433.35867)" />
      <path
         id="path11"
         d="M 0,0 2.911,0.255 C 3.049,-0.912 3.37,-1.869 3.873,-2.617 4.377,-3.364 5.16,-3.97 6.22,-4.43 7.281,-4.891 8.474,-5.122 9.8,-5.122 c 1.177,0 2.217,0.174 3.118,0.525 0.901,0.35 1.572,0.829 2.013,1.44 0.44,0.609 0.66,1.274 0.66,1.996 0,0.731 -0.213,1.371 -0.637,1.917 C 14.53,1.302 13.83,1.761 12.854,2.132 12.229,2.376 10.844,2.755 8.702,3.27 6.559,3.784 5.059,4.269 4.2,4.726 3.086,5.308 2.256,6.032 1.71,6.897 1.163,7.761 0.891,8.729 0.891,9.8 c 0,1.178 0.334,2.277 1.002,3.301 0.668,1.023 1.644,1.801 2.927,2.331 1.283,0.53 2.71,0.796 4.28,0.796 1.729,0 3.253,-0.28 4.574,-0.836 1.32,-0.557 2.336,-1.375 3.046,-2.457 0.711,-1.082 1.093,-2.307 1.146,-3.676 L 14.907,9.036 c -0.16,1.475 -0.698,2.588 -1.615,3.342 -0.918,0.752 -2.273,1.129 -4.065,1.129 C 7.36,13.507 6,13.165 5.146,12.482 4.292,11.797 3.866,10.972 3.866,10.007 3.866,9.169 4.168,8.48 4.772,7.939 5.366,7.398 6.917,6.843 9.426,6.277 11.934,5.708 13.655,5.213 14.588,4.788 15.946,4.163 16.948,3.37 17.595,2.41 c 0.647,-0.96 0.971,-2.065 0.971,-3.317 0,-1.24 -0.356,-2.41 -1.066,-3.508 -0.711,-1.098 -1.732,-1.951 -3.062,-2.56 -1.332,-0.611 -2.83,-0.916 -4.495,-0.916 -2.111,0 -3.88,0.308 -5.306,0.923 C 3.21,-6.352 2.092,-5.428 1.28,-4.192 0.469,-2.956 0.042,-1.559 0,0"
         style="fill:#231f20;fill-opacity:1;fill-rule:nonzero;stroke:none"
         transform="matrix(1.3333333,0,0,-1.3333333,52.508,486.26)" />
      <path
         id="path12"
         d="M 0,0 H 7.907 L 5.473,6.46 C 4.73,8.421 4.179,10.033 3.818,11.296 3.521,9.8 3.103,8.316 2.562,6.841 Z m -6.729,-9.577 8.957,23.322 h 3.324 l 9.546,-23.322 h -3.516 l -2.721,7.063 h -9.752 l -2.561,-7.063 h -3.277"
         style="fill:#231f20;fill-opacity:1;fill-rule:nonzero;stroke:none"
         transform="matrix(1.3333333,0,0,-1.3333333,88.441333,483.48133)" />
      <path
         id="path13"
         d="M 0,0 V 23.322 H 3.086 V 2.752 H 14.573 V 0 H 0"
         style="fill:#231f20;fill-opacity:1;fill-rule:nonzero;stroke:none"
         transform="matrix(1.3333333,0,0,-1.3333333,111.68933,496.25067)" />
      <path
         id="path14"
         d="m 0,0 -9.037,23.322 h 3.341 L 0.365,6.379 C 0.853,5.021 1.261,3.749 1.591,2.562 1.951,3.834 2.37,5.107 2.847,6.379 l 6.3,16.943 h 3.151 L 3.166,0 H 0"
         style="fill:#231f20;fill-opacity:1;fill-rule:nonzero;stroke:none"
         transform="matrix(1.3333333,0,0,-1.3333333,141.684,496.25067)" />
      <path
         id="path15"
         d="M 0,0 H 7.907 L 5.473,6.46 C 4.731,8.421 4.179,10.033 3.818,11.296 3.522,9.8 3.103,8.316 2.562,6.841 Z M -6.729,-9.577 2.228,13.745 H 5.552 L 15.098,-9.577 H 11.582 L 8.861,-2.514 H -0.89 l -2.562,-7.063 h -3.277"
         style="fill:#231f20;fill-opacity:1;fill-rule:nonzero;stroke:none"
         transform="matrix(1.3333333,0,0,-1.3333333,164.104,483.48133)" />
      <path
         id="path16"
         d="m 0,0 h 4.979 c 1.538,0 2.744,0.144 3.619,0.43 0.875,0.287 1.572,0.689 2.092,1.209 0.732,0.732 1.302,1.715 1.71,2.951 0.409,1.236 0.613,2.734 0.613,4.494 0,2.439 -0.401,4.314 -1.201,5.625 -0.801,1.309 -1.774,2.187 -2.919,2.633 -0.828,0.318 -2.159,0.476 -3.994,0.476 L 0,17.818 Z M -3.087,-2.752 V 20.57 h 8.034 c 1.814,0 3.198,-0.111 4.153,-0.334 1.336,-0.306 2.476,-0.864 3.42,-1.67 1.23,-1.039 2.15,-2.368 2.76,-3.985 0.61,-1.618 0.915,-3.466 0.915,-5.544 0,-1.771 -0.207,-3.342 -0.621,-4.709 C 15.161,2.959 14.63,1.827 13.983,0.932 13.337,0.035 12.629,-0.67 11.859,-1.186 11.09,-1.699 10.163,-2.09 9.076,-2.354 7.988,-2.619 6.739,-2.752 5.329,-2.752 h -8.416"
         style="fill:#231f20;fill-opacity:1;fill-rule:nonzero;stroke:none"
         transform="matrix(1.3333333,0,0,-1.3333333,191.63867,492.58133)" />
      <path
         id="path17"
         d="m 0,0 c 0,-2.812 0.755,-5.025 2.266,-6.642 1.512,-1.618 3.407,-2.427 5.688,-2.427 2.323,0 4.234,0.817 5.735,2.45 1.501,1.633 2.252,3.952 2.252,6.953 0,1.898 -0.321,3.555 -0.963,4.971 -0.642,1.416 -1.58,2.514 -2.816,3.293 C 10.926,9.377 9.54,9.768 8.002,9.768 5.817,9.768 3.937,9.017 2.362,7.516 0.787,6.016 0,3.51 0,0 Z m -3.182,0.047 c 0,3.871 1.039,6.902 3.118,9.092 2.078,2.19 4.762,3.285 8.05,3.285 2.153,0 4.094,-0.514 5.823,-1.543 1.729,-1.029 3.046,-2.463 3.953,-4.303 0.906,-1.84 1.361,-3.927 1.361,-6.261 0,-2.365 -0.478,-4.481 -1.432,-6.348 -0.955,-1.866 -2.308,-3.279 -4.058,-4.239 -1.75,-0.96 -3.637,-1.44 -5.663,-1.44 -2.195,0 -4.158,0.531 -5.886,1.591 -1.729,1.061 -3.039,2.508 -3.93,4.343 -0.891,1.835 -1.336,3.777 -1.336,5.823"
         style="fill:#231f20;fill-opacity:1;fill-rule:nonzero;stroke:none"
         transform="matrix(1.3333333,0,0,-1.3333333,221.88667,481.168)" />
      <path
         id="path18"
         d="m 0,0 h 6.635 c 1.41,0 2.513,0.147 3.308,0.438 0.796,0.292 1.401,0.758 1.814,1.4 0.414,0.642 0.621,1.339 0.621,2.092 0,1.104 -0.401,2.01 -1.201,2.721 C 10.376,7.362 9.11,7.717 7.382,7.717 H 0 Z M -3.086,-13.029 V 10.293 H 7.255 c 2.078,0 3.659,-0.209 4.741,-0.628 1.081,-0.419 1.945,-1.159 2.593,-2.219 0.646,-1.061 0.97,-2.233 0.97,-3.516 0,-1.654 -0.536,-3.049 -1.607,-4.184 -1.071,-1.134 -2.726,-1.856 -4.963,-2.164 0.817,-0.392 1.437,-0.779 1.862,-1.161 0.901,-0.827 1.754,-1.861 2.561,-3.102 l 4.057,-6.348 H 13.587 L 10.5,-8.177 C 9.599,-6.777 8.856,-5.706 8.273,-4.963 7.689,-4.22 7.167,-3.701 6.706,-3.404 6.244,-3.107 5.775,-2.9 5.298,-2.783 4.948,-2.71 4.375,-2.672 3.58,-2.672 H 0 v -10.357 h -3.086"
         style="fill:#231f20;fill-opacity:1;fill-rule:nonzero;stroke:none"
         transform="matrix(1.3333333,0,0,-1.3333333,256.86533,478.87867)" />
      <path
         id="path19"
         d="M 0,0 V 23.322 H 16.864 V 20.57 H 3.087 V 13.428 H 15.989 V 10.691 H 3.087 V 2.752 H 17.404 L 17.404,0 H 0"
         style="fill:#231f20;fill-opacity:1;fill-rule:nonzero;stroke:none"
         transform="matrix(1.3333333,0,0,-1.3333333,284.144,496.25067)" />
      <path
         id="path20"
         d="m 0,0 c -0.011,1.103 0.292,1.984 0.907,2.642 0.605,0.657 1.378,0.986 2.322,0.986 0.658,0 1.554,-0.286 2.689,-0.859 0.626,-0.318 1.124,-0.478 1.496,-0.478 0.339,0 0.599,0.094 0.779,0.279 0.18,0.186 0.308,0.554 0.382,1.106 h 2.069 C 10.611,2.467 10.307,1.559 9.729,0.955 9.15,0.351 8.416,0.049 7.525,0.049 6.856,0.049 5.977,0.346 4.884,0.939 4.174,1.321 3.653,1.512 3.325,1.512 2.965,1.512 2.673,1.385 2.45,1.131 2.217,0.875 2.105,0.499 2.116,0 Z m -4.359,-24.754 v 23.322 h 3.166 l 12.25,-18.31 v 18.31 h 2.959 v -23.322 h -3.165 l -12.25,18.327 v -18.327 h -2.96"
         style="fill:#231f20;fill-opacity:1;fill-rule:nonzero;stroke:none"
         transform="matrix(1.3333333,0,0,-1.3333333,318.80533,463.24533)" />
      <path
         id="path21"
         d="M 0,0 H 7.907 L 5.473,6.46 C 4.731,8.421 4.179,10.033 3.818,11.296 3.522,9.8 3.103,8.316 2.562,6.841 Z m -6.729,-9.577 8.957,23.322 h 3.325 l 9.545,-23.322 h -3.516 l -2.721,7.063 h -9.752 l -2.561,-7.063 h -3.277"
         style="fill:#231f20;fill-opacity:1;fill-rule:nonzero;stroke:none"
         transform="matrix(1.3333333,0,0,-1.3333333,349.96533,483.48133)" />
      <path
         id="path22"
         d="M 0,0 H 309.532 V 409.971 H 0 Z M 311.532,-2 H -2 v 413.971 h 313.532 z"
         style="fill:#231f20;fill-opacity:1;fill-rule:nonzero;stroke:none"
         transform="matrix(1.3333333,0,0,-1.3333333,2.6666667,549.29467)"
         clip-path="url(#clipPath23)" />
    </g>
  </g>
</svg>
