<?xml version="1.0" encoding="utf-8"?>
<!-- Generator: Adobe Illustrator 16.0.4, SVG Export Plug-In . SVG Version: 6.00 Build 0)  -->
<!DOCTYPE svg PUBLIC "-//W3C//DTD SVG 1.1//EN" "http://www.w3.org/Graphics/SVG/1.1/DTD/svg11.dtd">
<svg version="1.1" id="Layer_1" xmlns="http://www.w3.org/2000/svg" xmlns:xlink="http://www.w3.org/1999/xlink" x="0px" y="0px"
	 width="1024px" height="548.951px" viewBox="0 0 1024 548.951" enable-background="new 0 0 1024 548.951" xml:space="preserve">
<g>
	<path d="M36.919,519.131v-53.805h39.895v9.102H47.783v11.929h27.012v9.065H47.783v14.644h30.059v9.065H36.919z"/>
	<path d="M86.21,480.153h9.506v5.322c3.4-4.135,7.45-6.203,12.148-6.203c2.496,0,4.661,0.514,6.496,1.542
		c1.835,1.027,3.34,2.581,4.515,4.661c1.712-2.08,3.56-3.634,5.542-4.661c1.982-1.028,4.098-1.542,6.349-1.542
		c2.863,0,5.285,0.582,7.267,1.743c1.982,1.163,3.462,2.869,4.441,5.12c0.709,1.664,1.064,4.355,1.064,8.074v24.921h-10.313v-22.278
		c0-3.865-0.355-6.361-1.064-7.486c-0.955-1.469-2.422-2.202-4.404-2.202c-1.444,0-2.802,0.44-4.074,1.321
		c-1.272,0.881-2.19,2.171-2.752,3.872c-0.563,1.7-0.844,4.386-0.844,8.056v18.718h-10.313v-21.36c0-3.792-0.184-6.239-0.551-7.341
		c-0.367-1.101-0.936-1.92-1.707-2.459c-0.771-0.537-1.816-0.807-3.138-0.807c-1.591,0-3.022,0.428-4.294,1.284
		c-1.272,0.856-2.184,2.092-2.734,3.707c-0.55,1.614-0.826,4.294-0.826,8.037v18.938H86.21V480.153z"/>
	<path d="M176.386,506.726l10.276,1.725c-1.321,3.769-3.407,6.638-6.258,8.607s-6.417,2.954-10.698,2.954
		c-6.778,0-11.794-2.214-15.048-6.643c-2.569-3.548-3.854-8.025-3.854-13.434c0-6.459,1.688-11.518,5.065-15.176
		c3.376-3.657,7.646-5.487,12.809-5.487c5.799,0,10.374,1.915,13.727,5.744c3.352,3.829,4.955,9.695,4.808,17.599h-25.838
		c0.074,3.059,0.905,5.438,2.496,7.139c1.59,1.7,3.572,2.551,5.945,2.551c1.615,0,2.973-0.44,4.074-1.321
		S175.823,508.684,176.386,506.726z M176.974,496.303c-0.074-2.985-0.844-5.255-2.312-6.809s-3.254-2.33-5.358-2.33
		c-2.251,0-4.111,0.819-5.579,2.459c-1.468,1.639-2.19,3.866-2.166,6.68H176.974z"/>
	<path d="M205.491,519.131h-10.313v-38.978h9.579v5.542c1.639-2.617,3.114-4.343,4.423-5.175c1.309-0.831,2.795-1.248,4.459-1.248
		c2.349,0,4.612,0.648,6.79,1.945l-3.193,8.992c-1.738-1.125-3.353-1.688-4.845-1.688c-1.444,0-2.667,0.398-3.67,1.193
		c-1.003,0.795-1.792,2.232-2.367,4.312c-0.575,2.079-0.862,6.435-0.862,13.065V519.131z"/>
	<path d="M223.915,521.7l11.781,1.432c0.195,1.369,0.648,2.312,1.358,2.825c0.979,0.734,2.52,1.102,4.625,1.102
		c2.691,0,4.71-0.404,6.056-1.211c0.905-0.539,1.59-1.407,2.055-2.606c0.318-0.856,0.478-2.435,0.478-4.734v-5.688
		c-3.083,4.208-6.974,6.312-11.671,6.312c-5.236,0-9.384-2.214-12.442-6.643c-2.398-3.499-3.597-7.854-3.597-13.066
		c0-6.533,1.572-11.524,4.716-14.975c3.144-3.449,7.052-5.175,11.726-5.175c4.82,0,8.796,2.117,11.928,6.35v-5.469h9.652v34.977
		c0,4.601-0.379,8.038-1.138,10.313c-0.759,2.275-1.823,4.062-3.193,5.358c-1.371,1.297-3.2,2.312-5.487,3.047
		c-2.288,0.733-5.181,1.101-8.68,1.101c-6.606,0-11.292-1.132-14.057-3.395c-2.765-2.264-4.147-5.133-4.147-8.606
		C223.878,522.604,223.89,522.189,223.915,521.7z M233.127,498.835c0,4.135,0.801,7.163,2.404,9.084
		c1.602,1.921,3.578,2.881,5.927,2.881c2.52,0,4.648-0.985,6.386-2.955c1.737-1.969,2.605-4.887,2.605-8.753
		c0-4.037-0.832-7.034-2.496-8.992c-1.664-1.957-3.768-2.936-6.312-2.936c-2.472,0-4.509,0.96-6.111,2.881
		C233.928,491.966,233.127,494.896,233.127,498.835z"/>
	<path d="M293.355,506.726l10.276,1.725c-1.321,3.769-3.407,6.638-6.258,8.607s-6.417,2.954-10.698,2.954
		c-6.778,0-11.794-2.214-15.048-6.643c-2.569-3.548-3.854-8.025-3.854-13.434c0-6.459,1.688-11.518,5.065-15.176
		c3.376-3.657,7.646-5.487,12.809-5.487c5.799,0,10.374,1.915,13.727,5.744c3.352,3.829,4.955,9.695,4.808,17.599h-25.838
		c0.074,3.059,0.905,5.438,2.496,7.139c1.59,1.7,3.572,2.551,5.945,2.551c1.615,0,2.973-0.44,4.074-1.321
		S292.792,508.684,293.355,506.726z M293.942,496.303c-0.074-2.985-0.844-5.255-2.312-6.809s-3.254-2.33-5.358-2.33
		c-2.251,0-4.111,0.819-5.579,2.459c-1.468,1.639-2.19,3.866-2.166,6.68H293.942z"/>
	<path d="M348.041,519.131h-10.313v-19.893c0-4.208-0.22-6.93-0.661-8.166c-0.44-1.235-1.156-2.195-2.147-2.881
		c-0.991-0.685-2.184-1.027-3.578-1.027c-1.787,0-3.389,0.489-4.808,1.468c-1.419,0.979-2.392,2.275-2.918,3.891
		c-0.526,1.614-0.789,4.6-0.789,8.955v17.653h-10.313v-38.978h9.579v5.726c3.401-4.404,7.683-6.606,12.846-6.606
		c2.275,0,4.355,0.41,6.239,1.229c1.884,0.82,3.309,1.866,4.276,3.139c0.966,1.272,1.639,2.716,2.019,4.33
		c0.379,1.615,0.569,3.928,0.569,6.937V519.131z"/>
	<path d="M392.486,491.678l-10.167,1.835c-0.343-2.03-1.119-3.56-2.331-4.587c-1.211-1.028-2.783-1.542-4.716-1.542
		c-2.569,0-4.619,0.888-6.147,2.661c-1.53,1.774-2.294,4.74-2.294,8.9c0,4.624,0.776,7.891,2.331,9.799
		c1.553,1.908,3.639,2.863,6.257,2.863c1.958,0,3.56-0.557,4.808-1.67s2.129-3.028,2.643-5.744l10.13,1.725
		c-1.053,4.649-3.071,8.161-6.056,10.533c-2.985,2.374-6.986,3.561-12.001,3.561c-5.701,0-10.246-1.799-13.635-5.396
		c-3.389-3.597-5.083-8.575-5.083-14.938c0-6.435,1.7-11.444,5.102-15.029c3.401-3.584,8.001-5.377,13.8-5.377
		c4.747,0,8.521,1.022,11.323,3.064C389.25,484.381,391.263,487.494,392.486,491.678z"/>
	<path d="M395.422,480.153h10.974l9.322,27.674l9.102-27.674h10.68l-13.763,37.51l-2.459,6.789
		c-0.906,2.276-1.768,4.013-2.587,5.212c-0.82,1.199-1.762,2.171-2.826,2.918c-1.064,0.746-2.374,1.327-3.927,1.743
		c-1.554,0.416-3.31,0.624-5.267,0.624c-1.982,0-3.927-0.208-5.835-0.624l-0.917-8.074c1.615,0.317,3.07,0.478,4.367,0.478
		c2.398,0,4.171-0.704,5.322-2.11c1.15-1.407,2.031-3.2,2.643-5.377L395.422,480.153z"/>
	<path d="M463.101,519.131v-53.805h22.865c5.75,0,9.928,0.483,12.534,1.449c2.605,0.968,4.691,2.686,6.257,5.157
		s2.349,5.298,2.349,8.478c0,4.037-1.187,7.372-3.56,10.002c-2.374,2.63-5.922,4.288-10.644,4.973
		c2.349,1.371,4.288,2.875,5.817,4.515c1.529,1.64,3.59,4.551,6.184,8.734l6.569,10.497h-12.992l-7.854-11.708
		c-2.79-4.184-4.698-6.82-5.726-7.909c-1.028-1.088-2.117-1.835-3.267-2.238c-1.15-0.404-2.973-0.606-5.468-0.606h-2.202v22.462
		H463.101z M473.964,488.081h8.038c5.211,0,8.465-0.22,9.763-0.66c1.296-0.44,2.312-1.199,3.046-2.275
		c0.734-1.077,1.101-2.423,1.101-4.038c0-1.81-0.483-3.271-1.45-4.386c-0.967-1.112-2.331-1.816-4.092-2.11
		c-0.88-0.122-3.523-0.184-7.927-0.184h-8.478V488.081z"/>
	<path d="M539.844,506.726l10.276,1.725c-1.321,3.769-3.407,6.638-6.258,8.607s-6.417,2.954-10.698,2.954
		c-6.778,0-11.794-2.214-15.048-6.643c-2.569-3.548-3.854-8.025-3.854-13.434c0-6.459,1.688-11.518,5.064-15.176
		c3.377-3.657,7.646-5.487,12.81-5.487c5.799,0,10.374,1.915,13.726,5.744c3.353,3.829,4.955,9.695,4.809,17.599h-25.838
		c0.073,3.059,0.904,5.438,2.495,7.139s3.572,2.551,5.946,2.551c1.614,0,2.973-0.44,4.073-1.321
		C538.449,510.103,539.28,508.684,539.844,506.726z M540.431,496.303c-0.073-2.985-0.844-5.255-2.312-6.809
		c-1.469-1.554-3.255-2.33-5.359-2.33c-2.251,0-4.11,0.819-5.578,2.459c-1.468,1.639-2.19,3.866-2.165,6.68H540.431z"/>
	<path d="M555.442,508.01l10.35-1.578c0.44,2.007,1.334,3.53,2.68,4.569c1.345,1.041,3.229,1.561,5.652,1.561
		c2.666,0,4.673-0.489,6.019-1.469c0.905-0.685,1.358-1.602,1.358-2.752c0-0.783-0.245-1.432-0.734-1.945
		c-0.514-0.489-1.664-0.941-3.45-1.358c-8.319-1.835-13.592-3.511-15.818-5.028c-3.083-2.104-4.624-5.027-4.624-8.771
		c0-3.376,1.333-6.215,4-8.515s6.802-3.45,12.405-3.45c5.334,0,9.298,0.869,11.892,2.606c2.593,1.737,4.38,4.307,5.358,7.707
		l-9.726,1.799c-0.417-1.518-1.206-2.68-2.368-3.487s-2.82-1.211-4.973-1.211c-2.716,0-4.661,0.38-5.836,1.138
		c-0.783,0.538-1.174,1.236-1.174,2.092c0,0.734,0.342,1.358,1.027,1.872c0.93,0.686,4.141,1.651,9.634,2.899
		s9.328,2.777,11.507,4.588c2.152,1.835,3.229,4.392,3.229,7.671c0,3.572-1.493,6.643-4.478,9.212
		c-2.985,2.569-7.402,3.854-13.249,3.854c-5.311,0-9.513-1.076-12.607-3.229C558.421,514.629,556.396,511.705,555.442,508.01z"/>
	<path d="M600.586,480.153h9.616v5.726c1.247-1.957,2.936-3.547,5.064-4.771c2.129-1.223,4.489-1.835,7.083-1.835
		c4.526,0,8.368,1.774,11.524,5.322s4.735,8.49,4.735,14.827c0,6.509-1.591,11.567-4.771,15.177
		c-3.182,3.609-7.035,5.413-11.562,5.413c-2.153,0-4.104-0.429-5.854-1.284c-1.75-0.856-3.591-2.324-5.523-4.404v19.635h-10.313
		V480.153z M610.789,498.981c0,4.38,0.868,7.616,2.605,9.708s3.854,3.138,6.35,3.138c2.397,0,4.392-0.96,5.982-2.881
		c1.59-1.921,2.386-5.07,2.386-9.451c0-4.086-0.82-7.12-2.459-9.102c-1.64-1.982-3.67-2.973-6.093-2.973
		c-2.521,0-4.612,0.973-6.275,2.917C611.62,492.283,610.789,495.165,610.789,498.981z"/>
	<path d="M644.408,499.092c0-3.426,0.844-6.74,2.532-9.946c1.688-3.205,4.08-5.652,7.175-7.34c3.096-1.688,6.552-2.533,10.368-2.533
		c5.896,0,10.729,1.915,14.498,5.744c3.768,3.829,5.651,8.668,5.651,14.516c0,5.896-1.902,10.784-5.707,14.662
		c-3.805,3.879-8.595,5.817-14.368,5.817c-3.573,0-6.98-0.808-10.222-2.422c-3.242-1.615-5.707-3.982-7.396-7.103
		C645.252,507.368,644.408,503.569,644.408,499.092z M654.979,499.643c0,3.866,0.917,6.826,2.752,8.882
		c1.835,2.055,4.099,3.083,6.79,3.083s4.948-1.028,6.771-3.083c1.822-2.056,2.734-5.041,2.734-8.956
		c0-3.816-0.912-6.753-2.734-8.808c-1.823-2.056-4.08-3.083-6.771-3.083s-4.955,1.027-6.79,3.083
		C655.896,492.815,654.979,495.776,654.979,499.643z"/>
	<path d="M728.161,519.131h-10.312v-19.893c0-4.208-0.221-6.93-0.661-8.166c-0.44-1.235-1.156-2.195-2.146-2.881
		c-0.991-0.685-2.185-1.027-3.579-1.027c-1.786,0-3.389,0.489-4.808,1.468s-2.392,2.275-2.918,3.891
		c-0.526,1.614-0.789,4.6-0.789,8.955v17.653h-10.313v-38.978h9.58v5.726c3.4-4.404,7.683-6.606,12.845-6.606
		c2.276,0,4.355,0.41,6.239,1.229c1.885,0.82,3.31,1.866,4.276,3.139c0.966,1.272,1.639,2.716,2.019,4.33
		c0.379,1.615,0.568,3.928,0.568,6.937V519.131z"/>
	<path d="M734.988,508.01l10.35-1.578c0.44,2.007,1.334,3.53,2.68,4.569c1.345,1.041,3.229,1.561,5.652,1.561
		c2.666,0,4.673-0.489,6.019-1.469c0.905-0.685,1.358-1.602,1.358-2.752c0-0.783-0.245-1.432-0.734-1.945
		c-0.514-0.489-1.664-0.941-3.45-1.358c-8.319-1.835-13.592-3.511-15.818-5.028c-3.083-2.104-4.624-5.027-4.624-8.771
		c0-3.376,1.333-6.215,4-8.515s6.802-3.45,12.405-3.45c5.334,0,9.298,0.869,11.892,2.606c2.593,1.737,4.38,4.307,5.358,7.707
		l-9.726,1.799c-0.417-1.518-1.206-2.68-2.368-3.487s-2.82-1.211-4.973-1.211c-2.716,0-4.661,0.38-5.836,1.138
		c-0.783,0.538-1.174,1.236-1.174,2.092c0,0.734,0.342,1.358,1.027,1.872c0.93,0.686,4.141,1.651,9.634,2.899
		s9.328,2.777,11.507,4.588c2.152,1.835,3.229,4.392,3.229,7.671c0,3.572-1.493,6.643-4.478,9.212
		c-2.985,2.569-7.402,3.854-13.249,3.854c-5.311,0-9.513-1.076-12.607-3.229C737.967,514.629,735.942,511.705,734.988,508.01z"/>
	<path d="M802.997,506.726l10.276,1.725c-1.321,3.769-3.407,6.638-6.258,8.607s-6.417,2.954-10.698,2.954
		c-6.778,0-11.794-2.214-15.048-6.643c-2.569-3.548-3.854-8.025-3.854-13.434c0-6.459,1.688-11.518,5.064-15.176
		c3.377-3.657,7.646-5.487,12.81-5.487c5.799,0,10.374,1.915,13.726,5.744c3.353,3.829,4.955,9.695,4.809,17.599h-25.838
		c0.073,3.059,0.904,5.438,2.495,7.139s3.572,2.551,5.946,2.551c1.614,0,2.973-0.44,4.073-1.321
		C801.603,510.103,802.434,508.684,802.997,506.726z M803.584,496.303c-0.073-2.985-0.844-5.255-2.312-6.809
		c-1.469-1.554-3.255-2.33-5.359-2.33c-2.251,0-4.11,0.819-5.578,2.459c-1.468,1.639-2.19,3.866-2.165,6.68H803.584z"/>
	<path d="M843.112,465.326h10.863v29.141c0,4.625,0.134,7.622,0.403,8.992c0.465,2.202,1.572,3.971,3.322,5.304
		c1.749,1.334,4.141,2,7.175,2c3.083,0,5.407-0.63,6.974-1.89c1.565-1.26,2.508-2.808,2.826-4.644
		c0.317-1.835,0.477-4.881,0.477-9.139v-29.765h10.864v28.261c0,6.459-0.294,11.022-0.881,13.689
		c-0.588,2.667-1.67,4.918-3.248,6.753s-3.688,3.298-6.331,4.386c-2.643,1.089-6.093,1.634-10.351,1.634
		c-5.138,0-9.034-0.594-11.689-1.78s-4.753-2.729-6.294-4.625c-1.542-1.896-2.558-3.884-3.046-5.964
		c-0.71-3.083-1.064-7.634-1.064-13.652V465.326z"/>
	<path d="M932.848,519.131h-10.312v-19.893c0-4.208-0.221-6.93-0.661-8.166c-0.44-1.235-1.156-2.195-2.146-2.881
		c-0.991-0.685-2.185-1.027-3.579-1.027c-1.786,0-3.389,0.489-4.808,1.468s-2.392,2.275-2.918,3.891
		c-0.526,1.614-0.789,4.6-0.789,8.955v17.653H897.32v-38.978h9.58v5.726c3.4-4.404,7.683-6.606,12.845-6.606
		c2.276,0,4.355,0.41,6.239,1.229c1.885,0.82,3.31,1.866,4.276,3.139c0.966,1.272,1.639,2.716,2.019,4.33
		c0.379,1.615,0.568,3.928,0.568,6.937V519.131z"/>
	<path d="M943.309,474.868v-9.542h10.312v9.542H943.309z M943.309,519.131v-38.978h10.312v38.978H943.309z"/>
	<path d="M982.064,480.153v8.222h-7.046v15.708c0,3.181,0.066,5.034,0.201,5.561s0.44,0.961,0.918,1.303
		c0.477,0.343,1.058,0.514,1.743,0.514c0.954,0,2.336-0.33,4.147-0.99l0.881,8.001c-2.398,1.027-5.114,1.541-8.148,1.541
		c-1.859,0-3.535-0.312-5.027-0.936c-1.493-0.624-2.588-1.432-3.285-2.423s-1.181-2.33-1.45-4.019
		c-0.22-1.198-0.33-3.621-0.33-7.267v-16.993h-4.734v-8.222h4.734v-7.744l10.351-6.019v13.763H982.064z"/>
</g>
<rect x="30.326" y="20.169" fill="#ED1C24" width="964.319" height="428.718"/>
<g>
	<path fill="#FFFFFF" d="M80.069,395.467V84.199h230.797v52.657H142.917v69.005h156.271v52.444H142.917v84.717h173.894v52.444
		H80.069z"/>
	<path fill="#FFFFFF" d="M370.317,395.467V84.199h132.278c33.262,0,57.434,2.797,72.508,8.387
		c15.076,5.593,27.143,15.536,36.201,29.832c9.059,14.298,13.59,30.647,13.59,49.047c0,23.355-6.867,42.644-20.596,57.858
		c-13.732,15.218-34.258,24.809-61.574,28.77c13.588,7.929,24.805,16.634,33.654,26.116c8.844,9.485,20.77,26.329,35.775,50.534
		l38.006,60.725h-75.162l-45.438-67.731c-16.137-24.205-27.178-39.456-33.123-45.756c-5.945-6.297-12.245-10.616-18.897-12.952
		c-6.655-2.335-17.198-3.503-31.637-3.503h-12.739v129.943H370.317z M433.165,215.84h46.499c30.15,0,48.975-1.274,56.479-3.822
		c7.5-2.548,13.377-6.934,17.623-13.164c4.246-6.227,6.369-14.013,6.369-23.355c0-10.474-2.797-18.93-8.387-25.373
		c-5.594-6.439-13.482-10.51-23.674-12.208c-5.096-0.707-20.383-1.062-45.862-1.062h-49.047V215.84z"/>
	<path fill="#FFFFFF" d="M683.708,84.199h62.848v168.586c0,26.753,0.776,44.094,2.336,52.02
		c2.688,12.739,9.094,22.967,19.215,30.681c10.119,7.717,23.957,11.572,41.51,11.572c17.835,0,31.281-3.643,40.342-10.935
		c9.057-7.289,14.508-16.243,16.349-26.859c1.838-10.616,2.761-28.239,2.761-52.869V84.199h62.848v163.49
		c0,37.369-1.698,63.77-5.096,79.197c-3.397,15.43-9.66,28.452-18.79,39.068c-9.131,10.616-21.339,19.076-36.627,25.373
		c-15.287,6.297-35.245,9.449-59.875,9.449c-29.726,0-52.269-3.435-67.625-10.298c-15.361-6.864-27.496-15.782-36.414-26.753
		c-8.918-10.968-14.793-22.47-17.623-34.502c-4.107-17.835-6.157-44.164-6.157-78.985V84.199z"/>
</g>
</svg>
