<?xml version="1.0" encoding="utf-8"?>
<!-- Generator: Adobe Illustrator 16.0.4, SVG Export Plug-In . SVG Version: 6.00 Build 0)  -->
<!DOCTYPE svg PUBLIC "-//W3C//DTD SVG 1.1//EN" "http://www.w3.org/Graphics/SVG/1.1/DTD/svg11.dtd">
<svg version="1.1" id="Layer_1" xmlns="http://www.w3.org/2000/svg" xmlns:xlink="http://www.w3.org/1999/xlink" x="0px" y="0px"
	 width="1024px" height="548.951px" viewBox="0 0 1024 548.951" enable-background="new 0 0 1024 548.951" xml:space="preserve">
<rect x="31.464" y="20.641" fill="#EE2530" width="962.234" height="428.447"/>
<g>
	<path d="M35.016,513.266v-34.515h23.661v5.839H41.985v8.17h14.408v5.839H41.985v14.667H35.016z"/>
	<path d="M64.375,484.872v-6.121h6.616v6.121H64.375z M64.375,513.266v-25.003h6.616v25.003H64.375z"/>
	<path d="M92.25,505.308l6.592,1.106c-0.848,2.418-2.186,4.258-4.014,5.521c-1.829,1.264-4.117,1.896-6.863,1.896
		c-4.348,0-7.565-1.421-9.653-4.262c-1.648-2.275-2.472-5.147-2.472-8.617c0-4.144,1.083-7.389,3.249-9.734
		c2.166-2.347,4.905-3.521,8.217-3.521c3.72,0,6.654,1.229,8.805,3.685c2.15,2.457,3.178,6.22,3.084,11.289H82.62
		c0.047,1.963,0.581,3.488,1.601,4.579c1.02,1.092,2.292,1.637,3.814,1.637c1.036,0,1.907-0.282,2.613-0.848
		C91.355,507.474,91.888,506.563,92.25,505.308z M92.626,498.622c-0.047-1.915-0.542-3.371-1.483-4.367
		c-0.942-0.997-2.088-1.495-3.438-1.495c-1.444,0-2.637,0.525-3.579,1.577c-0.941,1.052-1.405,2.48-1.389,4.285H92.626z"/>
	<path d="M104.586,513.266v-34.515h6.616v34.515H104.586z"/>
	<path d="M140.914,513.266h-6.145v-3.673c-1.021,1.429-2.225,2.492-3.614,3.19s-2.79,1.048-4.203,1.048
		c-2.872,0-5.333-1.157-7.381-3.473c-2.048-2.315-3.072-5.545-3.072-9.688c0-4.237,0.997-7.459,2.99-9.664
		c1.993-2.205,4.512-3.309,7.557-3.309c2.793,0,5.211,1.162,7.251,3.484v-12.431h6.616V513.266z M123.256,500.223
		c0,2.669,0.369,4.599,1.107,5.792c1.067,1.727,2.558,2.59,4.473,2.59c1.522,0,2.817-0.647,3.885-1.942
		c1.067-1.295,1.601-3.229,1.601-5.804c0-2.872-0.518-4.94-1.554-6.204c-1.036-1.263-2.362-1.895-3.979-1.895
		c-1.569,0-2.884,0.624-3.943,1.871C123.786,495.879,123.256,497.743,123.256,500.223z"/>
	<path d="M190.213,513.266h-7.581l-3.014-7.84h-13.796l-2.849,7.84h-7.393l13.443-34.515h7.369L190.213,513.266z M177.382,499.61
		l-4.756-12.808l-4.662,12.808H177.382z"/>
	<path d="M191.531,506.132l6.64-1.012c0.282,1.287,0.855,2.264,1.718,2.931s2.072,1.001,3.626,1.001c1.71,0,2.998-0.314,3.861-0.942
		c0.581-0.438,0.871-1.027,0.871-1.766c0-0.502-0.157-0.918-0.471-1.248c-0.33-0.313-1.067-0.604-2.213-0.871
		c-5.337-1.177-8.719-2.252-10.147-3.225c-1.978-1.351-2.966-3.226-2.966-5.627c0-2.166,0.855-3.987,2.566-5.462
		c1.711-1.476,4.363-2.214,7.958-2.214c3.421,0,5.964,0.558,7.628,1.672c1.664,1.114,2.81,2.763,3.438,4.944l-6.239,1.153
		c-0.267-0.973-0.773-1.719-1.519-2.236c-0.746-0.519-1.809-0.777-3.19-0.777c-1.742,0-2.99,0.244-3.744,0.73
		c-0.502,0.345-0.753,0.792-0.753,1.342c0,0.471,0.22,0.871,0.659,1.2c0.597,0.439,2.657,1.06,6.18,1.86s5.984,1.781,7.381,2.942
		c1.381,1.178,2.072,2.817,2.072,4.921c0,2.292-0.958,4.262-2.872,5.909c-1.915,1.648-4.748,2.473-8.499,2.473
		c-3.406,0-6.102-0.69-8.087-2.072C193.442,510.378,192.144,508.502,191.531,506.132z"/>
	<path d="M218.347,506.132l6.64-1.012c0.282,1.287,0.855,2.264,1.718,2.931s2.072,1.001,3.626,1.001c1.71,0,2.998-0.314,3.861-0.942
		c0.581-0.438,0.871-1.027,0.871-1.766c0-0.502-0.157-0.918-0.471-1.248c-0.33-0.313-1.067-0.604-2.213-0.871
		c-5.337-1.177-8.719-2.252-10.147-3.225c-1.978-1.351-2.966-3.226-2.966-5.627c0-2.166,0.855-3.987,2.566-5.462
		c1.711-1.476,4.363-2.214,7.958-2.214c3.421,0,5.964,0.558,7.628,1.672c1.664,1.114,2.81,2.763,3.438,4.944l-6.239,1.153
		c-0.267-0.973-0.773-1.719-1.519-2.236c-0.746-0.519-1.809-0.777-3.19-0.777c-1.742,0-2.99,0.244-3.744,0.73
		c-0.502,0.345-0.753,0.792-0.753,1.342c0,0.471,0.22,0.871,0.659,1.2c0.597,0.439,2.657,1.06,6.18,1.86s5.984,1.781,7.381,2.942
		c1.381,1.178,2.072,2.817,2.072,4.921c0,2.292-0.958,4.262-2.872,5.909c-1.915,1.648-4.748,2.473-8.499,2.473
		c-3.406,0-6.102-0.69-8.087-2.072C220.258,510.378,218.959,508.502,218.347,506.132z"/>
	<path d="M261.973,505.308l6.592,1.106c-0.848,2.418-2.186,4.258-4.014,5.521c-1.829,1.264-4.117,1.896-6.863,1.896
		c-4.348,0-7.565-1.421-9.653-4.262c-1.648-2.275-2.472-5.147-2.472-8.617c0-4.144,1.083-7.389,3.249-9.734
		c2.166-2.347,4.905-3.521,8.217-3.521c3.72,0,6.654,1.229,8.805,3.685c2.15,2.457,3.178,6.22,3.084,11.289h-16.575
		c0.047,1.963,0.581,3.488,1.601,4.579c1.02,1.092,2.292,1.637,3.814,1.637c1.036,0,1.907-0.282,2.613-0.848
		C261.079,507.474,261.612,506.563,261.973,505.308z M262.35,498.622c-0.047-1.915-0.542-3.371-1.483-4.367
		c-0.942-0.997-2.088-1.495-3.438-1.495c-1.444,0-2.637,0.525-3.579,1.577c-0.941,1.052-1.405,2.48-1.389,4.285H262.35z"/>
	<path d="M271.979,506.132l6.64-1.012c0.282,1.287,0.855,2.264,1.718,2.931s2.072,1.001,3.626,1.001c1.71,0,2.998-0.314,3.861-0.942
		c0.581-0.438,0.871-1.027,0.871-1.766c0-0.502-0.157-0.918-0.471-1.248c-0.33-0.313-1.067-0.604-2.213-0.871
		c-5.337-1.177-8.719-2.252-10.147-3.225c-1.978-1.351-2.966-3.226-2.966-5.627c0-2.166,0.855-3.987,2.566-5.462
		c1.711-1.476,4.363-2.214,7.958-2.214c3.421,0,5.964,0.558,7.628,1.672c1.664,1.114,2.81,2.763,3.438,4.944l-6.239,1.153
		c-0.267-0.973-0.773-1.719-1.519-2.236c-0.746-0.519-1.809-0.777-3.19-0.777c-1.742,0-2.99,0.244-3.744,0.73
		c-0.502,0.345-0.753,0.792-0.753,1.342c0,0.471,0.22,0.871,0.659,1.2c0.597,0.439,2.657,1.06,6.18,1.86s5.984,1.781,7.381,2.942
		c1.381,1.178,2.072,2.817,2.072,4.921c0,2.292-0.958,4.262-2.872,5.909c-1.915,1.648-4.748,2.473-8.499,2.473
		c-3.406,0-6.102-0.69-8.087-2.072C273.89,510.378,272.591,508.502,271.979,506.132z"/>
	<path d="M298.795,506.132l6.64-1.012c0.282,1.287,0.855,2.264,1.718,2.931s2.072,1.001,3.626,1.001c1.71,0,2.998-0.314,3.861-0.942
		c0.581-0.438,0.871-1.027,0.871-1.766c0-0.502-0.157-0.918-0.471-1.248c-0.33-0.313-1.067-0.604-2.213-0.871
		c-5.337-1.177-8.719-2.252-10.147-3.225c-1.978-1.351-2.966-3.226-2.966-5.627c0-2.166,0.855-3.987,2.566-5.462
		c1.711-1.476,4.363-2.214,7.958-2.214c3.421,0,5.964,0.558,7.628,1.672c1.664,1.114,2.81,2.763,3.438,4.944l-6.239,1.153
		c-0.267-0.973-0.773-1.719-1.519-2.236c-0.746-0.519-1.809-0.777-3.19-0.777c-1.742,0-2.99,0.244-3.744,0.73
		c-0.502,0.345-0.753,0.792-0.753,1.342c0,0.471,0.22,0.871,0.659,1.2c0.597,0.439,2.657,1.06,6.18,1.86s5.984,1.781,7.381,2.942
		c1.381,1.178,2.072,2.817,2.072,4.921c0,2.292-0.958,4.262-2.872,5.909c-1.915,1.648-4.748,2.473-8.499,2.473
		c-3.406,0-6.102-0.69-8.087-2.072C300.706,510.378,299.407,508.502,298.795,506.132z"/>
	<path d="M327.447,488.263h6.098v3.414c2.182-2.652,4.779-3.979,7.793-3.979c1.601,0,2.99,0.33,4.167,0.989
		c1.177,0.659,2.142,1.656,2.896,2.99c1.099-1.334,2.284-2.331,3.555-2.99s2.629-0.989,4.073-0.989c1.836,0,3.391,0.373,4.662,1.118
		c1.271,0.746,2.221,1.841,2.849,3.285c0.455,1.067,0.683,2.794,0.683,5.179v15.986h-6.616v-14.291c0-2.479-0.228-4.08-0.683-4.803
		c-0.612-0.941-1.554-1.412-2.825-1.412c-0.926,0-1.797,0.282-2.613,0.848c-0.816,0.564-1.405,1.393-1.766,2.483
		c-0.361,1.091-0.542,2.813-0.542,5.168v12.007h-6.616v-13.702c0-2.433-0.118-4.002-0.353-4.709c-0.235-0.706-0.6-1.231-1.095-1.577
		c-0.494-0.345-1.166-0.518-2.013-0.518c-1.021,0-1.939,0.274-2.755,0.823c-0.816,0.55-1.401,1.343-1.754,2.378
		c-0.353,1.036-0.53,2.755-0.53,5.156v12.148h-6.616V488.263z"/>
	<path d="M385.293,505.308l6.592,1.106c-0.848,2.418-2.186,4.258-4.014,5.521c-1.829,1.264-4.117,1.896-6.863,1.896
		c-4.348,0-7.565-1.421-9.653-4.262c-1.648-2.275-2.472-5.147-2.472-8.617c0-4.144,1.083-7.389,3.249-9.734
		c2.166-2.347,4.905-3.521,8.217-3.521c3.72,0,6.654,1.229,8.805,3.685c2.15,2.457,3.178,6.22,3.084,11.289h-16.575
		c0.047,1.963,0.581,3.488,1.601,4.579c1.02,1.092,2.292,1.637,3.814,1.637c1.036,0,1.907-0.282,2.613-0.848
		C384.399,507.474,384.932,506.563,385.293,505.308z M385.67,498.622c-0.047-1.915-0.542-3.371-1.483-4.367
		c-0.942-0.997-2.088-1.495-3.438-1.495c-1.444,0-2.637,0.525-3.579,1.577c-0.941,1.052-1.405,2.48-1.389,4.285H385.67z"/>
	<path d="M420.373,513.266h-6.616v-12.761c0-2.699-0.141-4.445-0.424-5.238c-0.282-0.792-0.741-1.408-1.377-1.848
		s-1.401-0.659-2.295-0.659c-1.146,0-2.174,0.313-3.084,0.941s-1.534,1.46-1.872,2.495c-0.338,1.036-0.506,2.951-0.506,5.745v11.324
		h-6.616v-25.003h6.145v3.673c2.182-2.825,4.928-4.238,8.24-4.238c1.459,0,2.793,0.264,4.002,0.789
		c1.208,0.526,2.123,1.197,2.743,2.013c0.62,0.816,1.051,1.742,1.295,2.778c0.243,1.036,0.365,2.52,0.365,4.449V513.266z"/>
	<path d="M438.548,488.263v5.273h-4.52v10.077c0,2.04,0.043,3.229,0.129,3.566c0.086,0.338,0.283,0.616,0.588,0.836
		c0.306,0.22,0.679,0.329,1.119,0.329c0.612,0,1.499-0.212,2.66-0.636l0.565,5.133c-1.538,0.659-3.28,0.989-5.227,0.989
		c-1.193,0-2.268-0.2-3.225-0.601c-0.958-0.4-1.66-0.918-2.107-1.554s-0.757-1.495-0.93-2.578c-0.142-0.769-0.212-2.323-0.212-4.662
		v-10.9h-3.037v-5.273h3.037v-4.968l6.639-3.861v8.829H438.548z"/>
	<path d="M461.479,495.891l-6.003-1.083c0.675-2.417,1.836-4.206,3.484-5.368c1.648-1.161,4.097-1.742,7.346-1.742
		c2.951,0,5.148,0.35,6.592,1.048s2.46,1.586,3.049,2.66c0.588,1.075,0.883,3.049,0.883,5.922l-0.071,7.722
		c0,2.198,0.106,3.818,0.318,4.862s0.608,2.162,1.189,3.354h-6.545c-0.173-0.439-0.385-1.091-0.636-1.954
		c-0.11-0.393-0.188-0.651-0.235-0.777c-1.13,1.1-2.339,1.923-3.626,2.473c-1.287,0.549-2.66,0.824-4.12,0.824
		c-2.574,0-4.603-0.698-6.086-2.096c-1.483-1.396-2.225-3.162-2.225-5.297c0-1.413,0.337-2.673,1.012-3.779s1.621-1.954,2.837-2.543
		c1.216-0.588,2.97-1.102,5.262-1.542c3.092-0.58,5.234-1.122,6.427-1.624v-0.659c0-1.271-0.314-2.178-0.942-2.72
		c-0.628-0.541-1.813-0.812-3.555-0.812c-1.177,0-2.095,0.231-2.754,0.694S461.888,494.729,461.479,495.891z M470.332,501.259
		c-0.848,0.282-2.189,0.62-4.026,1.012c-1.836,0.393-3.037,0.777-3.602,1.154c-0.864,0.612-1.295,1.389-1.295,2.33
		c0,0.927,0.345,1.728,1.036,2.401c0.69,0.676,1.569,1.013,2.637,1.013c1.192,0,2.331-0.392,3.414-1.177
		c0.8-0.597,1.326-1.326,1.577-2.189c0.173-0.565,0.259-1.641,0.259-3.226V501.259z"/>
	<path d="M506.094,513.266h-6.616v-12.761c0-2.699-0.141-4.445-0.424-5.238c-0.282-0.792-0.741-1.408-1.377-1.848
		s-1.401-0.659-2.295-0.659c-1.146,0-2.174,0.313-3.084,0.941s-1.534,1.46-1.872,2.495c-0.338,1.036-0.506,2.951-0.506,5.745v11.324
		h-6.616v-25.003h6.145v3.673c2.182-2.825,4.928-4.238,8.24-4.238c1.459,0,2.793,0.264,4.002,0.789
		c1.208,0.526,2.123,1.197,2.743,2.013c0.62,0.816,1.051,1.742,1.295,2.778c0.243,1.036,0.365,2.52,0.365,4.449V513.266z"/>
	<path d="M535.734,513.266h-6.145v-3.673c-1.02,1.429-2.225,2.492-3.613,3.19s-2.789,1.048-4.203,1.048
		c-2.871,0-5.332-1.157-7.381-3.473c-2.047-2.315-3.072-5.545-3.072-9.688c0-4.237,0.997-7.459,2.99-9.664
		c1.994-2.205,4.512-3.309,7.559-3.309c2.793,0,5.209,1.162,7.25,3.484v-12.431h6.615V513.266z M518.078,500.223
		c0,2.669,0.369,4.599,1.105,5.792c1.068,1.727,2.559,2.59,4.475,2.59c1.521,0,2.816-0.647,3.885-1.942
		c1.066-1.295,1.6-3.229,1.6-5.804c0-2.872-0.518-4.94-1.553-6.204c-1.037-1.263-2.363-1.895-3.979-1.895
		c-1.57,0-2.885,0.624-3.943,1.871C518.607,495.879,518.078,497.743,518.078,500.223z"/>
	<path d="M577.784,500.576l6.757,2.142c-1.036,3.768-2.759,6.565-5.168,8.394c-2.409,1.829-5.466,2.743-9.17,2.743
		c-4.583,0-8.351-1.565-11.301-4.697c-2.951-3.131-4.426-7.412-4.426-12.843c0-5.744,1.482-10.206,4.449-13.385
		c2.967-3.178,6.866-4.768,11.701-4.768c4.222,0,7.651,1.248,10.288,3.744c1.569,1.476,2.747,3.594,3.531,6.356l-6.897,1.648
		c-0.408-1.79-1.26-3.202-2.555-4.238s-2.869-1.554-4.721-1.554c-2.559,0-4.634,0.918-6.227,2.755
		c-1.594,1.836-2.39,4.811-2.39,8.923c0,4.363,0.784,7.471,2.354,9.323c1.569,1.852,3.61,2.777,6.122,2.777
		c1.852,0,3.444-0.588,4.779-1.766C576.245,504.955,577.203,503.103,577.784,500.576z"/>
	<path d="M588.943,500.411c0-2.197,0.541-4.324,1.624-6.381c1.083-2.056,2.617-3.625,4.604-4.708
		c1.985-1.083,4.202-1.625,6.65-1.625c3.782,0,6.883,1.229,9.3,3.685c2.417,2.457,3.626,5.561,3.626,9.312
		c0,3.783-1.221,6.918-3.661,9.405c-2.441,2.488-5.514,3.732-9.218,3.732c-2.291,0-4.477-0.519-6.557-1.555
		c-2.08-1.035-3.661-2.554-4.744-4.556C589.484,505.72,588.943,503.283,588.943,500.411z M595.724,500.764
		c0,2.48,0.589,4.38,1.766,5.698c1.178,1.318,2.629,1.978,4.355,1.978s3.175-0.659,4.344-1.978s1.754-3.233,1.754-5.745
		c0-2.448-0.585-4.332-1.754-5.65s-2.617-1.978-4.344-1.978s-3.178,0.659-4.355,1.978
		C596.312,496.385,595.724,498.284,595.724,500.764z"/>
	<path d="M618.396,500.411c0-2.197,0.541-4.324,1.624-6.381c1.083-2.056,2.617-3.625,4.604-4.708
		c1.985-1.083,4.202-1.625,6.65-1.625c3.782,0,6.883,1.229,9.3,3.685c2.417,2.457,3.626,5.561,3.626,9.312
		c0,3.783-1.221,6.918-3.661,9.405c-2.441,2.488-5.514,3.732-9.218,3.732c-2.291,0-4.477-0.519-6.557-1.555
		c-2.08-1.035-3.661-2.554-4.744-4.556C618.938,505.72,618.396,503.283,618.396,500.411z M625.177,500.764
		c0,2.48,0.589,4.38,1.766,5.698c1.178,1.318,2.629,1.978,4.355,1.978s3.175-0.659,4.344-1.978s1.754-3.233,1.754-5.745
		c0-2.448-0.585-4.332-1.754-5.65s-2.617-1.978-4.344-1.978s-3.178,0.659-4.355,1.978
		C625.766,496.385,625.177,498.284,625.177,500.764z"/>
	<path d="M655.713,513.266h-6.615v-25.003h6.145v3.555c1.051-1.679,1.997-2.785,2.837-3.319c0.84-0.533,1.793-0.801,2.86-0.801
		c1.507,0,2.958,0.416,4.355,1.248l-2.048,5.769c-1.115-0.722-2.15-1.083-3.108-1.083c-0.926,0-1.711,0.255-2.354,0.765
		c-0.645,0.511-1.15,1.433-1.519,2.767c-0.369,1.334-0.554,4.128-0.554,8.381V513.266z"/>
	<path d="M691.074,513.266h-6.145v-3.673c-1.021,1.429-2.225,2.492-3.613,3.19c-1.39,0.698-2.79,1.048-4.203,1.048
		c-2.872,0-5.332-1.157-7.381-3.473c-2.048-2.315-3.072-5.545-3.072-9.688c0-4.237,0.997-7.459,2.99-9.664s4.512-3.309,7.558-3.309
		c2.793,0,5.21,1.162,7.251,3.484v-12.431h6.615V513.266z M673.417,500.223c0,2.669,0.369,4.599,1.106,5.792
		c1.067,1.727,2.559,2.59,4.474,2.59c1.522,0,2.817-0.647,3.885-1.942s1.601-3.229,1.601-5.804c0-2.872-0.518-4.94-1.554-6.204
		c-1.036-1.263-2.362-1.895-3.979-1.895c-1.57,0-2.885,0.624-3.943,1.871C673.947,495.879,673.417,497.743,673.417,500.223z"/>
	<path d="M697.597,484.872v-6.121h6.615v6.121H697.597z M697.597,513.266v-25.003h6.615v25.003H697.597z"/>
	<path d="M733.736,513.266h-6.616v-12.761c0-2.699-0.142-4.445-0.424-5.238c-0.282-0.792-0.741-1.408-1.377-1.848
		s-1.401-0.659-2.296-0.659c-1.146,0-2.174,0.313-3.084,0.941s-1.534,1.46-1.872,2.495c-0.337,1.036-0.506,2.951-0.506,5.745v11.324
		h-6.615v-25.003h6.145v3.673c2.182-2.825,4.929-4.238,8.24-4.238c1.46,0,2.794,0.264,4.002,0.789
		c1.209,0.526,2.123,1.197,2.743,2.013c0.62,0.816,1.052,1.742,1.295,2.778s0.365,2.52,0.365,4.449V513.266z"/>
	<path d="M745.391,495.891l-6.004-1.083c0.675-2.417,1.837-4.206,3.484-5.368c1.648-1.161,4.097-1.742,7.346-1.742
		c2.95,0,5.147,0.35,6.592,1.048s2.461,1.586,3.049,2.66c0.589,1.075,0.883,3.049,0.883,5.922l-0.07,7.722
		c0,2.198,0.105,3.818,0.317,4.862s0.608,2.162,1.189,3.354h-6.545c-0.173-0.439-0.385-1.091-0.636-1.954
		c-0.11-0.393-0.188-0.651-0.235-0.777c-1.13,1.1-2.339,1.923-3.626,2.473c-1.287,0.549-2.66,0.824-4.12,0.824
		c-2.574,0-4.603-0.698-6.086-2.096c-1.483-1.396-2.225-3.162-2.225-5.297c0-1.413,0.337-2.673,1.013-3.779
		c0.674-1.106,1.62-1.954,2.837-2.543c1.216-0.588,2.97-1.102,5.262-1.542c3.092-0.58,5.234-1.122,6.427-1.624v-0.659
		c0-1.271-0.313-2.178-0.941-2.72c-0.628-0.541-1.812-0.812-3.555-0.812c-1.178,0-2.096,0.231-2.755,0.694
		S745.798,494.729,745.391,495.891z M754.242,501.259c-0.847,0.282-2.189,0.62-4.025,1.012c-1.837,0.393-3.037,0.777-3.603,1.154
		c-0.863,0.612-1.295,1.389-1.295,2.33c0,0.927,0.346,1.728,1.036,2.401c0.69,0.676,1.569,1.013,2.637,1.013
		c1.192,0,2.331-0.392,3.414-1.177c0.801-0.597,1.326-1.326,1.577-2.189c0.173-0.565,0.259-1.641,0.259-3.226V501.259z"/>
	<path d="M778.728,488.263v5.273h-4.521v10.077c0,2.04,0.043,3.229,0.129,3.566c0.087,0.338,0.283,0.616,0.589,0.836
		c0.307,0.22,0.679,0.329,1.118,0.329c0.612,0,1.499-0.212,2.661-0.636l0.564,5.133c-1.538,0.659-3.28,0.989-5.227,0.989
		c-1.192,0-2.269-0.2-3.226-0.601s-1.659-0.918-2.106-1.554s-0.758-1.495-0.931-2.578c-0.141-0.769-0.212-2.323-0.212-4.662v-10.9
		h-3.037v-5.273h3.037v-4.968l6.64-3.861v8.829H778.728z"/>
	<path d="M783.318,484.872v-6.121h6.615v6.121H783.318z M783.318,513.266v-25.003h6.615v25.003H783.318z"/>
	<path d="M795.185,500.411c0-2.197,0.541-4.324,1.624-6.381c1.083-2.056,2.617-3.625,4.604-4.708
		c1.985-1.083,4.202-1.625,6.65-1.625c3.782,0,6.883,1.229,9.3,3.685c2.417,2.457,3.626,5.561,3.626,9.312
		c0,3.783-1.221,6.918-3.661,9.405c-2.441,2.488-5.514,3.732-9.218,3.732c-2.291,0-4.477-0.519-6.557-1.555
		c-2.08-1.035-3.661-2.554-4.744-4.556C795.726,505.72,795.185,503.283,795.185,500.411z M801.965,500.764
		c0,2.48,0.589,4.38,1.766,5.698c1.178,1.318,2.629,1.978,4.355,1.978s3.175-0.659,4.344-1.978s1.754-3.233,1.754-5.745
		c0-2.448-0.585-4.332-1.754-5.65s-2.617-1.978-4.344-1.978s-3.178,0.659-4.355,1.978
		C802.554,496.385,801.965,498.284,801.965,500.764z"/>
	<path d="M848.911,513.266h-6.616v-12.761c0-2.699-0.142-4.445-0.424-5.238c-0.282-0.792-0.741-1.408-1.377-1.848
		s-1.401-0.659-2.296-0.659c-1.146,0-2.174,0.313-3.084,0.941s-1.534,1.46-1.872,2.495c-0.337,1.036-0.506,2.951-0.506,5.745v11.324
		h-6.615v-25.003h6.145v3.673c2.182-2.825,4.929-4.238,8.24-4.238c1.46,0,2.794,0.264,4.002,0.789
		c1.209,0.526,2.123,1.197,2.743,2.013c0.62,0.816,1.052,1.742,1.295,2.778s0.365,2.52,0.365,4.449V513.266z"/>
	<path d="M876.834,513.266V484.59h-10.241v-5.839h27.428v5.839h-10.218v28.676H876.834z"/>
	<path d="M909.371,505.308l6.592,1.106c-0.848,2.418-2.186,4.258-4.015,5.521c-1.828,1.264-4.116,1.896-6.862,1.896
		c-4.348,0-7.565-1.421-9.653-4.262c-1.647-2.275-2.472-5.147-2.472-8.617c0-4.144,1.083-7.389,3.249-9.734
		c2.166-2.347,4.904-3.521,8.217-3.521c3.72,0,6.654,1.229,8.805,3.685c2.15,2.457,3.179,6.22,3.085,11.289h-16.575
		c0.047,1.963,0.581,3.488,1.602,4.579c1.02,1.092,2.291,1.637,3.813,1.637c1.036,0,1.907-0.282,2.613-0.848
		S909.01,506.563,909.371,505.308z M909.747,498.622c-0.047-1.915-0.541-3.371-1.483-4.367c-0.941-0.997-2.087-1.495-3.437-1.495
		c-1.444,0-2.637,0.525-3.579,1.577c-0.941,1.052-1.404,2.48-1.389,4.285H909.747z"/>
	<path d="M926.651,495.891l-6.004-1.083c0.675-2.417,1.837-4.206,3.484-5.368c1.648-1.161,4.097-1.742,7.346-1.742
		c2.95,0,5.147,0.35,6.592,1.048s2.461,1.586,3.049,2.66c0.589,1.075,0.883,3.049,0.883,5.922l-0.07,7.722
		c0,2.198,0.105,3.818,0.317,4.862s0.608,2.162,1.189,3.354h-6.545c-0.173-0.439-0.385-1.091-0.636-1.954
		c-0.11-0.393-0.188-0.651-0.235-0.777c-1.13,1.1-2.339,1.923-3.626,2.473c-1.287,0.549-2.66,0.824-4.12,0.824
		c-2.574,0-4.603-0.698-6.086-2.096c-1.483-1.396-2.225-3.162-2.225-5.297c0-1.413,0.337-2.673,1.013-3.779
		c0.674-1.106,1.62-1.954,2.837-2.543c1.216-0.588,2.97-1.102,5.262-1.542c3.092-0.58,5.234-1.122,6.427-1.624v-0.659
		c0-1.271-0.313-2.178-0.941-2.72c-0.628-0.541-1.812-0.812-3.555-0.812c-1.178,0-2.096,0.231-2.755,0.694
		S927.059,494.729,926.651,495.891z M935.503,501.259c-0.847,0.282-2.189,0.62-4.025,1.012c-1.837,0.393-3.037,0.777-3.603,1.154
		c-0.863,0.612-1.295,1.389-1.295,2.33c0,0.927,0.346,1.728,1.036,2.401c0.69,0.676,1.569,1.013,2.637,1.013
		c1.192,0,2.331-0.392,3.414-1.177c0.801-0.597,1.326-1.326,1.577-2.189c0.173-0.565,0.259-1.641,0.259-3.226V501.259z"/>
	<path d="M948.028,488.263h6.098v3.414c2.182-2.652,4.779-3.979,7.793-3.979c1.601,0,2.989,0.33,4.167,0.989
		c1.177,0.659,2.143,1.656,2.896,2.99c1.099-1.334,2.284-2.331,3.555-2.99c1.271-0.659,2.629-0.989,4.073-0.989
		c1.837,0,3.391,0.373,4.662,1.118c1.271,0.746,2.221,1.841,2.849,3.285c0.455,1.067,0.683,2.794,0.683,5.179v15.986h-6.616v-14.291
		c0-2.479-0.228-4.08-0.683-4.803c-0.612-0.941-1.554-1.412-2.825-1.412c-0.926,0-1.797,0.282-2.613,0.848
		c-0.816,0.564-1.404,1.393-1.766,2.483s-0.541,2.813-0.541,5.168v12.007h-6.616v-13.702c0-2.433-0.117-4.002-0.353-4.709
		c-0.236-0.706-0.601-1.231-1.095-1.577c-0.495-0.345-1.166-0.518-2.014-0.518c-1.021,0-1.938,0.274-2.754,0.823
		c-0.816,0.55-1.401,1.343-1.754,2.378c-0.354,1.036-0.53,2.755-0.53,5.156v12.148h-6.615V488.263z"/>
</g>
<g>
	<path fill="#FFFFFF" d="M74.638,371.328V119.996h172.298v42.517H125.384v59.49h104.922v42.518H125.384v106.808H74.638z"/>
	<path fill="#FFFFFF" d="M496.04,371.328h-55.204l-21.944-57.09H318.426l-20.744,57.09H243.85l97.893-251.333h53.661L496.04,371.328
		z M402.604,271.892l-34.631-93.264l-33.945,93.264H402.604z"/>
	<path fill="#FFFFFF" d="M683.768,278.921l49.204,15.601c-7.544,27.431-20.089,47.805-37.632,61.119
		c-17.546,13.316-39.804,19.973-66.776,19.973c-33.375,0-60.806-11.401-82.292-34.203c-21.488-22.802-32.23-53.975-32.23-93.521
		c0-41.832,10.801-74.32,32.402-97.464s50.002-34.717,85.206-34.717c30.744,0,55.719,9.086,74.92,27.259
		c11.428,10.744,20,26.174,25.716,46.289l-50.231,12c-2.974-13.029-9.173-23.316-18.602-30.859
		c-9.43-7.543-20.89-11.315-34.374-11.315c-18.631,0-33.747,6.686-45.347,20.059c-11.602,13.373-17.401,35.033-17.401,64.976
		c0,31.776,5.714,54.406,17.145,67.891c11.428,13.488,26.287,20.23,44.574,20.23c13.485,0,25.087-4.286,34.803-12.858
		C672.565,310.81,679.538,297.325,683.768,278.921z"/>
	<path fill="#FFFFFF" d="M833.093,371.328V162.513h-74.577v-42.517h199.729v42.517H883.84v208.815H833.093z"/>
</g>
</svg>
