<?xml version="1.0" encoding="utf-8"?>
<!-- Generator: Adobe Illustrator 16.0.4, SVG Export Plug-In . SVG Version: 6.00 Build 0)  -->
<!DOCTYPE svg PUBLIC "-//W3C//DTD SVG 1.1//EN" "http://www.w3.org/Graphics/SVG/1.1/DTD/svg11.dtd">
<svg version="1.1" id="Layer_1" xmlns="http://www.w3.org/2000/svg" xmlns:xlink="http://www.w3.org/1999/xlink" x="0px" y="0px"
	 width="1024px" height="548.951px" viewBox="0 0 1024 548.951" enable-background="new 0 0 1024 548.951" xml:space="preserve">
<rect x="31.461" y="20.476" fill="#EE2530" width="963.254" height="428.233"/>
<g>
	<path fill="#FFFFFF" d="M81.799,360.203V127.188h99.023c24.9,0,42.995,2.093,54.28,6.278c11.285,4.187,20.317,11.63,27.1,22.332
		c6.78,10.704,10.172,22.943,10.172,36.716c0,17.484-5.141,31.923-15.417,43.313c-10.279,11.392-25.645,18.572-46.094,21.537
		c10.172,5.936,18.569,12.452,25.193,19.55c6.621,7.1,15.549,19.709,26.782,37.829l28.451,45.458h-56.267L201.008,309.5
		c-12.08-18.12-20.345-29.537-24.795-34.253c-4.451-4.714-9.167-7.947-14.146-9.696c-4.982-1.749-12.875-2.623-23.683-2.623h-9.537
		v97.275H81.799z M128.847,225.735h34.809c22.57,0,36.662-0.954,42.279-2.861c5.615-1.908,10.014-5.191,13.193-9.855
		c3.179-4.662,4.768-10.49,4.768-17.484c0-7.84-2.093-14.171-6.278-18.994c-4.187-4.82-10.093-7.868-17.722-9.139
		c-3.815-0.529-15.259-0.795-34.333-0.795h-36.716V225.735z"/>
	<path fill="#FFFFFF" d="M316.562,127.188h85.99c19.392,0,34.173,1.485,44.346,4.45c13.669,4.028,25.376,11.181,35.127,21.458
		c9.748,10.279,17.166,22.863,22.252,37.75c5.086,14.889,7.629,33.247,7.629,55.075c0,19.18-2.384,35.711-7.153,49.591
		c-5.829,16.955-14.146,30.676-24.954,41.167c-8.161,7.947-19.181,14.146-33.061,18.597c-10.386,3.286-24.267,4.927-41.644,4.927
		h-88.533V127.188z M363.61,166.607v154.336h35.127c13.138,0,22.623-0.74,28.451-2.225c7.629-1.907,13.96-5.139,18.994-9.696
		c5.032-4.555,9.139-12.053,12.318-22.491c3.179-10.436,4.768-24.662,4.768-42.677c0-18.013-1.589-31.841-4.768-41.485
		c-3.179-9.641-7.629-17.166-13.352-22.57c-5.722-5.404-12.981-9.06-21.775-10.967c-6.572-1.482-19.446-2.225-38.624-2.225H363.61z"
		/>
	<path fill="#FFFFFF" d="M551.961,360.203V127.188h99.023c24.899,0,42.995,2.093,54.28,6.278c11.285,4.187,20.317,11.63,27.1,22.332
		c6.78,10.704,10.173,22.943,10.173,36.716c0,17.484-5.141,31.923-15.418,43.313c-10.279,11.392-25.645,18.572-46.094,21.537
		c10.172,5.936,18.569,12.452,25.192,19.55c6.621,7.1,15.55,19.709,26.782,37.829l28.452,45.458h-56.268L671.171,309.5
		c-12.08-18.12-20.346-29.537-24.796-34.253c-4.45-4.714-9.167-7.947-14.146-9.696c-4.981-1.749-12.874-2.623-23.683-2.623h-9.537
		v97.275H551.961z M599.009,225.735h34.81c22.57,0,36.662-0.954,42.279-2.861c5.615-1.908,10.014-5.191,13.192-9.855
		c3.18-4.662,4.769-10.49,4.769-17.484c0-7.84-2.094-14.171-6.278-18.994c-4.188-4.82-10.093-7.868-17.723-9.139
		c-3.814-0.529-15.259-0.795-34.332-0.795h-36.717V225.735z"/>
	<path fill="#FFFFFF" d="M839.335,360.203V166.607h-69.142v-39.418h185.173v39.418h-68.982v193.596H839.335z"/>
</g>
<g>
	<path d="M36.897,512.48v-42.178h17.924c4.507,0,7.782,0.379,9.825,1.137c2.043,0.758,3.678,2.105,4.906,4.042
		c1.227,1.938,1.841,4.153,1.841,6.646c0,3.164-0.931,5.778-2.791,7.84s-4.642,3.361-8.343,3.898
		c1.841,1.074,3.361,2.254,4.56,3.538c1.198,1.286,2.814,3.568,4.848,6.848l5.15,8.229H64.632l-6.157-9.178
		c-2.187-3.28-3.683-5.347-4.488-6.2s-1.659-1.438-2.561-1.755c-0.902-0.316-2.331-0.475-4.287-0.475h-1.726v17.607H36.897z
		 M45.414,488.141h6.301c4.085,0,6.636-0.173,7.653-0.518c1.017-0.346,1.812-0.939,2.388-1.784c0.575-0.844,0.863-1.898,0.863-3.165
		c0-1.419-0.379-2.564-1.136-3.438c-0.758-0.873-1.827-1.424-3.208-1.654c-0.69-0.096-2.762-0.144-6.214-0.144h-6.646V488.141z"/>
	<path d="M97.056,502.756l8.056,1.353c-1.036,2.954-2.671,5.203-4.906,6.746c-2.234,1.545-5.03,2.316-8.386,2.316
		c-5.313,0-9.246-1.735-11.796-5.207c-2.014-2.781-3.021-6.291-3.021-10.53c0-5.063,1.323-9.029,3.97-11.896
		s5.994-4.302,10.041-4.302c4.545,0,8.132,1.501,10.76,4.503c2.627,3.002,3.884,7.601,3.769,13.796H85.289
		c0.058,2.397,0.709,4.263,1.957,5.596c1.247,1.333,2.8,1.999,4.661,1.999c1.266,0,2.331-0.345,3.194-1.035
		C95.963,505.403,96.615,504.291,97.056,502.756z M97.517,494.585c-0.058-2.34-0.662-4.118-1.812-5.337
		c-1.151-1.218-2.551-1.826-4.2-1.826c-1.765,0-3.223,0.643-4.374,1.927c-1.15,1.285-1.717,3.031-1.697,5.236H97.517z"/>
	<path d="M111.384,514.494l9.235,1.122c0.153,1.074,0.508,1.812,1.065,2.216c0.767,0.575,1.975,0.863,3.625,0.863
		c2.109,0,3.692-0.317,4.747-0.95c0.709-0.422,1.247-1.103,1.611-2.042c0.249-0.672,0.374-1.909,0.374-3.712v-4.459
		c-2.417,3.299-5.466,4.948-9.149,4.948c-4.104,0-7.355-1.735-9.753-5.207c-1.88-2.743-2.82-6.157-2.82-10.243
		c0-5.121,1.232-9.033,3.697-11.738c2.464-2.704,5.528-4.057,9.192-4.057c3.779,0,6.895,1.66,9.351,4.978v-4.286h7.566v27.418
		c0,3.605-0.297,6.301-0.892,8.084c-0.595,1.784-1.429,3.184-2.503,4.201c-1.075,1.016-2.508,1.812-4.301,2.388
		c-1.794,0.575-4.062,0.863-6.804,0.863c-5.179,0-8.852-0.888-11.019-2.661c-2.168-1.774-3.251-4.023-3.251-6.747
		C111.355,515.204,111.365,514.878,111.384,514.494z M118.605,496.57c0,3.242,0.628,5.615,1.884,7.121s2.805,2.258,4.646,2.258
		c1.976,0,3.644-0.771,5.006-2.315c1.361-1.544,2.042-3.831,2.042-6.862c0-3.164-0.652-5.514-1.957-7.049
		c-1.304-1.534-2.954-2.301-4.948-2.301c-1.938,0-3.534,0.753-4.791,2.258C119.233,491.186,118.605,493.482,118.605,496.57z"/>
	<path d="M148.124,477.783v-7.48h8.084v7.48H148.124z M148.124,512.48v-30.554h8.084v30.554H148.124z"/>
	<path d="M162.624,496.771c0-2.685,0.662-5.283,1.985-7.797c1.324-2.512,3.198-4.431,5.625-5.754s5.136-1.985,8.128-1.985
		c4.622,0,8.41,1.501,11.364,4.503c2.954,3.002,4.431,6.795,4.431,11.379c0,4.622-1.492,8.454-4.474,11.494
		c-2.983,3.04-6.737,4.56-11.264,4.56c-2.801,0-5.472-0.633-8.013-1.898c-2.542-1.267-4.474-3.122-5.797-5.567
		C163.286,503.26,162.624,500.282,162.624,496.771z M170.91,497.203c0,3.031,0.719,5.352,2.158,6.963s3.212,2.417,5.323,2.417
		c2.109,0,3.879-0.806,5.308-2.417c1.429-1.611,2.144-3.951,2.144-7.021c0-2.992-0.715-5.293-2.144-6.904
		c-1.429-1.611-3.199-2.417-5.308-2.417c-2.11,0-3.884,0.806-5.323,2.417S170.91,494.173,170.91,497.203z"/>
	<path d="M228.278,512.48h-8.084v-15.594c0-3.299-0.173-5.433-0.518-6.401c-0.345-0.968-0.906-1.721-1.683-2.259
		c-0.776-0.536-1.711-0.805-2.805-0.805c-1.4,0-2.657,0.384-3.769,1.15c-1.113,0.768-1.875,1.784-2.287,3.05
		c-0.413,1.266-0.619,3.606-0.619,7.02v13.839h-8.084v-30.554h7.509v4.487c2.666-3.452,6.022-5.179,10.07-5.179
		c1.784,0,3.414,0.322,4.891,0.964c1.477,0.644,2.594,1.463,3.352,2.46c0.757,0.998,1.285,2.129,1.583,3.396
		c0.297,1.266,0.446,3.078,0.446,5.438V512.48z"/>
	<path d="M242.519,491.248l-7.336-1.323c0.825-2.954,2.244-5.141,4.258-6.56c2.014-1.42,5.006-2.13,8.977-2.13
		c3.606,0,6.291,0.428,8.056,1.28c1.765,0.854,3.007,1.938,3.726,3.252c0.719,1.313,1.079,3.726,1.079,7.235l-0.086,9.437
		c0,2.686,0.13,4.666,0.389,5.941s0.743,2.643,1.453,4.1h-7.998c-0.211-0.537-0.47-1.333-0.777-2.388
		c-0.134-0.479-0.23-0.796-0.288-0.949c-1.381,1.343-2.858,2.35-4.431,3.021c-1.573,0.671-3.251,1.007-5.035,1.007
		c-3.146,0-5.625-0.854-7.438-2.561s-2.719-3.864-2.719-6.474c0-1.726,0.413-3.265,1.237-4.617c0.824-1.353,1.98-2.388,3.467-3.107
		c1.486-0.719,3.629-1.348,6.43-1.885c3.778-0.709,6.396-1.371,7.854-1.984v-0.806c0-1.554-0.384-2.661-1.151-3.323
		c-0.768-0.662-2.215-0.992-4.344-0.992c-1.438,0-2.561,0.283-3.366,0.849S243.018,489.829,242.519,491.248z M253.337,497.808
		c-1.036,0.345-2.676,0.758-4.92,1.237s-3.711,0.949-4.402,1.409c-1.055,0.748-1.583,1.698-1.583,2.849
		c0,1.132,0.422,2.11,1.266,2.935c0.844,0.825,1.917,1.237,3.222,1.237c1.458,0,2.848-0.479,4.172-1.438
		c0.978-0.729,1.621-1.621,1.928-2.676c0.21-0.69,0.316-2.004,0.316-3.941V497.808z"/>
	<path d="M269.247,512.48v-42.178h8.084v42.178H269.247z"/>
	<path d="M302.016,470.303h15.565c3.51,0,6.186,0.27,8.027,0.806c2.475,0.729,4.594,2.024,6.358,3.884
		c1.765,1.861,3.107,4.139,4.028,6.833c0.921,2.695,1.381,6.019,1.381,9.97c0,3.472-0.431,6.464-1.294,8.976
		c-1.055,3.069-2.561,5.553-4.517,7.452c-1.477,1.438-3.472,2.561-5.984,3.366c-1.88,0.595-4.392,0.892-7.538,0.892h-16.025V470.303
		z M310.532,477.438v27.936h6.358c2.378,0,4.095-0.134,5.15-0.402c1.381-0.346,2.527-0.931,3.438-1.755
		c0.911-0.825,1.654-2.182,2.23-4.071c0.575-1.889,0.863-4.464,0.863-7.725s-0.288-5.764-0.863-7.51
		c-0.576-1.745-1.381-3.106-2.417-4.085s-2.35-1.64-3.941-1.985c-1.189-0.269-3.52-0.402-6.991-0.402H310.532z"/>
	<path d="M344.539,477.783v-7.48h8.084v7.48H344.539z M344.539,512.48v-30.554h8.084v30.554H344.539z"/>
	<path d="M358.061,503.763l8.113-1.236c0.345,1.572,1.045,2.767,2.1,3.581c1.055,0.815,2.532,1.223,4.431,1.223
		c2.09,0,3.664-0.383,4.719-1.15c0.709-0.537,1.064-1.256,1.064-2.158c0-0.613-0.192-1.121-0.576-1.524
		c-0.403-0.384-1.304-0.738-2.704-1.064c-6.521-1.438-10.655-2.752-12.4-3.941c-2.417-1.649-3.625-3.941-3.625-6.876
		c0-2.647,1.045-4.872,3.136-6.675c2.09-1.803,5.332-2.705,9.724-2.705c4.181,0,7.289,0.682,9.322,2.043
		c2.033,1.362,3.433,3.376,4.201,6.042l-7.625,1.41c-0.326-1.189-0.945-2.101-1.855-2.733c-0.911-0.633-2.211-0.949-3.898-0.949
		c-2.129,0-3.654,0.297-4.575,0.892c-0.614,0.422-0.92,0.969-0.92,1.64c0,0.575,0.268,1.064,0.806,1.468
		c0.729,0.537,3.246,1.294,7.552,2.272c4.306,0.979,7.312,2.177,9.02,3.597c1.688,1.438,2.532,3.442,2.532,6.013
		c0,2.801-1.17,5.207-3.51,7.222c-2.34,2.014-5.802,3.021-10.386,3.021c-4.162,0-7.456-0.844-9.882-2.531
		C360.396,508.951,358.809,506.659,358.061,503.763z"/>
	<path d="M399.72,491.248l-7.336-1.323c0.825-2.954,2.244-5.141,4.258-6.56c2.014-1.42,5.006-2.13,8.977-2.13
		c3.606,0,6.291,0.428,8.056,1.28c1.765,0.854,3.007,1.938,3.726,3.252c0.719,1.313,1.079,3.726,1.079,7.235l-0.086,9.437
		c0,2.686,0.13,4.666,0.389,5.941s0.743,2.643,1.453,4.1h-7.998c-0.211-0.537-0.47-1.333-0.777-2.388
		c-0.134-0.479-0.23-0.796-0.288-0.949c-1.381,1.343-2.858,2.35-4.431,3.021c-1.573,0.671-3.251,1.007-5.035,1.007
		c-3.146,0-5.625-0.854-7.438-2.561s-2.719-3.864-2.719-6.474c0-1.726,0.413-3.265,1.237-4.617c0.824-1.353,1.98-2.388,3.467-3.107
		c1.486-0.719,3.629-1.348,6.43-1.885c3.778-0.709,6.396-1.371,7.854-1.984v-0.806c0-1.554-0.384-2.661-1.151-3.323
		c-0.768-0.662-2.215-0.992-4.344-0.992c-1.438,0-2.561,0.283-3.366,0.849S400.219,489.829,399.72,491.248z M410.538,497.808
		c-1.036,0.345-2.676,0.758-4.92,1.237s-3.711,0.949-4.402,1.409c-1.055,0.748-1.583,1.698-1.583,2.849
		c0,1.132,0.422,2.11,1.266,2.935c0.844,0.825,1.917,1.237,3.222,1.237c1.458,0,2.848-0.479,4.172-1.438
		c0.978-0.729,1.621-1.621,1.928-2.676c0.21-0.69,0.316-2.004,0.316-3.941V497.808z"/>
	<path d="M423.6,503.763l8.113-1.236c0.345,1.572,1.045,2.767,2.1,3.581c1.055,0.815,2.532,1.223,4.431,1.223
		c2.09,0,3.664-0.383,4.719-1.15c0.709-0.537,1.064-1.256,1.064-2.158c0-0.613-0.192-1.121-0.576-1.524
		c-0.403-0.384-1.304-0.738-2.704-1.064c-6.521-1.438-10.655-2.752-12.4-3.941c-2.417-1.649-3.625-3.941-3.625-6.876
		c0-2.647,1.045-4.872,3.136-6.675c2.09-1.803,5.332-2.705,9.724-2.705c4.181,0,7.289,0.682,9.322,2.043
		c2.033,1.362,3.433,3.376,4.201,6.042l-7.625,1.41c-0.326-1.189-0.945-2.101-1.855-2.733c-0.911-0.633-2.211-0.949-3.898-0.949
		c-2.129,0-3.654,0.297-4.575,0.892c-0.614,0.422-0.92,0.969-0.92,1.64c0,0.575,0.268,1.064,0.806,1.468
		c0.729,0.537,3.246,1.294,7.552,2.272c4.306,0.979,7.312,2.177,9.02,3.597c1.688,1.438,2.532,3.442,2.532,6.013
		c0,2.801-1.17,5.207-3.51,7.222c-2.34,2.014-5.802,3.021-10.386,3.021c-4.162,0-7.456-0.844-9.882-2.531
		C425.935,508.951,424.348,506.659,423.6,503.763z"/>
	<path d="M473.229,481.927v6.444h-5.524v12.313c0,2.493,0.053,3.946,0.159,4.358c0.105,0.413,0.345,0.753,0.719,1.021
		s0.829,0.403,1.366,0.403c0.748,0,1.832-0.259,3.251-0.777l0.69,6.272c-1.88,0.806-4.009,1.208-6.387,1.208
		c-1.458,0-2.772-0.244-3.941-0.733c-1.17-0.489-2.028-1.122-2.575-1.899c-0.546-0.776-0.925-1.826-1.136-3.15
		c-0.173-0.939-0.259-2.838-0.259-5.696v-13.32h-3.711v-6.444h3.711v-6.071l8.113-4.718v10.789H473.229z"/>
	<path d="M496.533,502.756l8.056,1.353c-1.036,2.954-2.671,5.203-4.906,6.746c-2.234,1.545-5.03,2.316-8.386,2.316
		c-5.313,0-9.246-1.735-11.796-5.207c-2.014-2.781-3.021-6.291-3.021-10.53c0-5.063,1.323-9.029,3.97-11.896
		s5.994-4.302,10.041-4.302c4.545,0,8.132,1.501,10.76,4.503c2.627,3.002,3.884,7.601,3.769,13.796h-20.254
		c0.058,2.397,0.709,4.263,1.957,5.596c1.247,1.333,2.8,1.999,4.661,1.999c1.266,0,2.331-0.345,3.194-1.035
		C495.439,505.403,496.091,504.291,496.533,502.756z M496.993,494.585c-0.058-2.34-0.662-4.118-1.812-5.337
		c-1.151-1.218-2.551-1.826-4.2-1.826c-1.765,0-3.223,0.643-4.374,1.927c-1.15,1.285-1.717,3.031-1.697,5.236H496.993z"/>
	<path d="M519.348,512.48h-8.084v-30.554h7.51v4.344c1.283-2.052,2.439-3.404,3.467-4.057c1.025-0.651,2.189-0.979,3.494-0.979
		c1.842,0,3.615,0.509,5.322,1.525l-2.502,7.049c-1.363-0.882-2.629-1.323-3.799-1.323c-1.131,0-2.09,0.312-2.877,0.935
		c-0.785,0.624-1.404,1.751-1.855,3.381s-0.676,5.045-0.676,10.242V512.48z"/>
	<path d="M550.995,512.48v-42.178h17.924c4.508,0,7.782,0.379,9.825,1.137s3.678,2.105,4.905,4.042
		c1.228,1.938,1.842,4.153,1.842,6.646c0,3.164-0.931,5.778-2.791,7.84s-4.642,3.361-8.344,3.898
		c1.842,1.074,3.361,2.254,4.561,3.538c1.198,1.286,2.814,3.568,4.848,6.848l5.15,8.229h-10.186l-6.156-9.178
		c-2.187-3.28-3.683-5.347-4.488-6.2s-1.659-1.438-2.561-1.755c-0.902-0.316-2.33-0.475-4.287-0.475h-1.726v17.607H550.995z
		 M559.512,488.141h6.301c4.085,0,6.636-0.173,7.652-0.518c1.017-0.346,1.812-0.939,2.388-1.784
		c0.576-0.844,0.863-1.898,0.863-3.165c0-1.419-0.379-2.564-1.137-3.438s-1.826-1.424-3.207-1.654
		c-0.69-0.096-2.763-0.144-6.215-0.144h-6.646V488.141z"/>
	<path d="M611.154,502.756l8.056,1.353c-1.035,2.954-2.671,5.203-4.905,6.746c-2.234,1.545-5.03,2.316-8.387,2.316
		c-5.312,0-9.245-1.735-11.796-5.207c-2.014-2.781-3.021-6.291-3.021-10.53c0-5.063,1.323-9.029,3.971-11.896
		c2.646-2.867,5.993-4.302,10.04-4.302c4.546,0,8.133,1.501,10.761,4.503c2.627,3.002,3.884,7.601,3.769,13.796h-20.254
		c0.058,2.397,0.709,4.263,1.956,5.596s2.8,1.999,4.661,1.999c1.266,0,2.33-0.345,3.193-1.035S610.713,504.291,611.154,502.756z
		 M611.615,494.585c-0.058-2.34-0.662-4.118-1.812-5.337c-1.151-1.218-2.552-1.826-4.201-1.826c-1.765,0-3.222,0.643-4.373,1.927
		c-1.15,1.285-1.717,3.031-1.697,5.236H611.615z"/>
	<path d="M623.382,503.763l8.113-1.236c0.346,1.572,1.045,2.767,2.101,3.581c1.055,0.815,2.531,1.223,4.431,1.223
		c2.09,0,3.663-0.383,4.718-1.15c0.71-0.537,1.064-1.256,1.064-2.158c0-0.613-0.191-1.121-0.575-1.524
		c-0.402-0.384-1.305-0.738-2.704-1.064c-6.521-1.438-10.655-2.752-12.4-3.941c-2.417-1.649-3.625-3.941-3.625-6.876
		c0-2.647,1.045-4.872,3.136-6.675s5.332-2.705,9.725-2.705c4.182,0,7.288,0.682,9.321,2.043c2.033,1.362,3.434,3.376,4.201,6.042
		l-7.624,1.41c-0.327-1.189-0.945-2.101-1.856-2.733s-2.21-0.949-3.898-0.949c-2.129,0-3.653,0.297-4.574,0.892
		c-0.614,0.422-0.921,0.969-0.921,1.64c0,0.575,0.269,1.064,0.806,1.468c0.729,0.537,3.246,1.294,7.553,2.272
		c4.306,0.979,7.312,2.177,9.02,3.597c1.688,1.438,2.531,3.442,2.531,6.013c0,2.801-1.17,5.207-3.51,7.222
		c-2.34,2.014-5.802,3.021-10.386,3.021c-4.162,0-7.457-0.844-9.883-2.531C625.717,508.951,624.13,506.659,623.382,503.763z"/>
	<path d="M658.77,481.927h7.538v4.487c0.978-1.534,2.302-2.78,3.97-3.74c1.669-0.958,3.52-1.438,5.553-1.438
		c3.549,0,6.56,1.392,9.034,4.172c2.475,2.781,3.712,6.656,3.712,11.623c0,5.103-1.247,9.068-3.74,11.897
		c-2.494,2.829-5.515,4.243-9.063,4.243c-1.688,0-3.218-0.336-4.589-1.007s-2.814-1.822-4.329-3.452v15.392h-8.085V481.927z
		 M666.768,496.686c0,3.434,0.681,5.97,2.043,7.609c1.361,1.641,3.021,2.46,4.978,2.46c1.879,0,3.442-0.752,4.689-2.258
		c1.246-1.506,1.87-3.976,1.87-7.409c0-3.202-0.644-5.581-1.928-7.135c-1.285-1.554-2.877-2.33-4.776-2.33
		c-1.976,0-3.615,0.762-4.919,2.287C667.42,491.435,666.768,493.693,666.768,496.686z"/>
	<path d="M693.122,496.771c0-2.685,0.661-5.283,1.985-7.797c1.323-2.512,3.197-4.431,5.624-5.754s5.136-1.985,8.128-1.985
		c4.622,0,8.41,1.501,11.364,4.503c2.953,3.002,4.431,6.795,4.431,11.379c0,4.622-1.491,8.454-4.474,11.494s-6.737,4.56-11.264,4.56
		c-2.801,0-5.472-0.633-8.013-1.898c-2.542-1.267-4.474-3.122-5.797-5.567C693.783,503.26,693.122,500.282,693.122,496.771z
		 M701.408,497.203c0,3.031,0.719,5.352,2.157,6.963s3.213,2.417,5.322,2.417c2.11,0,3.88-0.806,5.309-2.417
		s2.144-3.951,2.144-7.021c0-2.992-0.715-5.293-2.144-6.904s-3.198-2.417-5.309-2.417c-2.109,0-3.884,0.806-5.322,2.417
		S701.408,494.173,701.408,497.203z"/>
	<path d="M758.776,512.48h-8.085v-15.594c0-3.299-0.172-5.433-0.518-6.401c-0.345-0.968-0.906-1.721-1.683-2.259
		c-0.777-0.536-1.712-0.805-2.806-0.805c-1.4,0-2.656,0.384-3.769,1.15c-1.112,0.768-1.875,1.784-2.287,3.05
		c-0.413,1.266-0.619,3.606-0.619,7.02v13.839h-8.084v-30.554h7.509v4.487c2.666-3.452,6.022-5.179,10.069-5.179
		c1.784,0,3.414,0.322,4.892,0.964c1.477,0.644,2.594,1.463,3.352,2.46c0.758,0.998,1.285,2.129,1.582,3.396
		c0.298,1.266,0.446,3.078,0.446,5.438V512.48z"/>
	<path d="M764.128,503.763l8.113-1.236c0.346,1.572,1.045,2.767,2.101,3.581c1.055,0.815,2.531,1.223,4.431,1.223
		c2.09,0,3.663-0.383,4.718-1.15c0.71-0.537,1.064-1.256,1.064-2.158c0-0.613-0.191-1.121-0.575-1.524
		c-0.402-0.384-1.305-0.738-2.704-1.064c-6.521-1.438-10.655-2.752-12.4-3.941c-2.417-1.649-3.625-3.941-3.625-6.876
		c0-2.647,1.045-4.872,3.136-6.675s5.332-2.705,9.725-2.705c4.182,0,7.288,0.682,9.321,2.043c2.033,1.362,3.434,3.376,4.201,6.042
		l-7.624,1.41c-0.327-1.189-0.945-2.101-1.856-2.733s-2.21-0.949-3.898-0.949c-2.129,0-3.653,0.297-4.574,0.892
		c-0.614,0.422-0.921,0.969-0.921,1.64c0,0.575,0.269,1.064,0.806,1.468c0.729,0.537,3.246,1.294,7.553,2.272
		c4.306,0.979,7.312,2.177,9.02,3.597c1.688,1.438,2.531,3.442,2.531,6.013c0,2.801-1.17,5.207-3.51,7.222
		c-2.34,2.014-5.802,3.021-10.386,3.021c-4.162,0-7.457-0.844-9.883-2.531C766.463,508.951,764.876,506.659,764.128,503.763z"/>
	<path d="M817.439,502.756l8.056,1.353c-1.035,2.954-2.671,5.203-4.905,6.746c-2.234,1.545-5.03,2.316-8.387,2.316
		c-5.312,0-9.245-1.735-11.796-5.207c-2.014-2.781-3.021-6.291-3.021-10.53c0-5.063,1.323-9.029,3.971-11.896
		c2.646-2.867,5.993-4.302,10.04-4.302c4.546,0,8.133,1.501,10.761,4.503c2.627,3.002,3.884,7.601,3.769,13.796h-20.254
		c0.058,2.397,0.709,4.263,1.956,5.596s2.8,1.999,4.661,1.999c1.266,0,2.33-0.345,3.193-1.035S816.998,504.291,817.439,502.756z
		 M817.9,494.585c-0.058-2.34-0.662-4.118-1.812-5.337c-1.151-1.218-2.552-1.826-4.201-1.826c-1.765,0-3.222,0.643-4.373,1.927
		c-1.15,1.285-1.717,3.031-1.697,5.236H817.9z"/>
	<path d="M858.438,512.48v-35.042h-12.516v-7.136h33.518v7.136h-12.486v35.042H858.438z"/>
	<path d="M898.198,502.756l8.056,1.353c-1.035,2.954-2.671,5.203-4.905,6.746c-2.234,1.545-5.03,2.316-8.387,2.316
		c-5.312,0-9.245-1.735-11.796-5.207c-2.014-2.781-3.021-6.291-3.021-10.53c0-5.063,1.323-9.029,3.971-11.896
		c2.646-2.867,5.993-4.302,10.04-4.302c4.546,0,8.133,1.501,10.761,4.503c2.627,3.002,3.884,7.601,3.769,13.796h-20.254
		c0.058,2.397,0.709,4.263,1.956,5.596s2.8,1.999,4.661,1.999c1.266,0,2.33-0.345,3.193-1.035S897.757,504.291,898.198,502.756z
		 M898.659,494.585c-0.058-2.34-0.662-4.118-1.812-5.337c-1.151-1.218-2.552-1.826-4.201-1.826c-1.765,0-3.222,0.643-4.373,1.927
		c-1.15,1.285-1.717,3.031-1.697,5.236H898.659z"/>
	<path d="M919.316,491.248l-7.337-1.323c0.824-2.954,2.244-5.141,4.258-6.56c2.014-1.42,5.006-2.13,8.977-2.13
		c3.605,0,6.291,0.428,8.056,1.28c1.765,0.854,3.007,1.938,3.726,3.252c0.72,1.313,1.079,3.726,1.079,7.235l-0.086,9.437
		c0,2.686,0.129,4.666,0.388,5.941c0.26,1.275,0.743,2.643,1.453,4.1h-7.998c-0.211-0.537-0.47-1.333-0.776-2.388
		c-0.135-0.479-0.23-0.796-0.288-0.949c-1.381,1.343-2.858,2.35-4.431,3.021c-1.573,0.671-3.251,1.007-5.035,1.007
		c-3.146,0-5.624-0.854-7.437-2.561s-2.719-3.864-2.719-6.474c0-1.726,0.412-3.265,1.236-4.617c0.825-1.353,1.98-2.388,3.468-3.107
		c1.485-0.719,3.629-1.348,6.43-1.885c3.778-0.709,6.396-1.371,7.854-1.984v-0.806c0-1.554-0.384-2.661-1.151-3.323
		c-0.767-0.662-2.215-0.992-4.344-0.992c-1.438,0-2.561,0.283-3.366,0.849S919.814,489.829,919.316,491.248z M930.134,497.808
		c-1.036,0.345-2.676,0.758-4.92,1.237s-3.711,0.949-4.401,1.409c-1.056,0.748-1.583,1.698-1.583,2.849
		c0,1.132,0.422,2.11,1.266,2.935c0.844,0.825,1.918,1.237,3.223,1.237c1.457,0,2.849-0.479,4.172-1.438
		c0.979-0.729,1.62-1.621,1.928-2.676c0.211-0.69,0.316-2.004,0.316-3.941V497.808z"/>
	<path d="M945.439,481.927h7.451v4.171c2.666-3.241,5.841-4.862,9.523-4.862c1.956,0,3.654,0.403,5.093,1.209
		s2.618,2.023,3.538,3.653c1.343-1.63,2.791-2.848,4.345-3.653s3.212-1.209,4.978-1.209c2.244,0,4.143,0.456,5.696,1.367
		s2.714,2.249,3.481,4.014c0.556,1.305,0.834,3.414,0.834,6.329v19.535h-8.084v-17.464c0-3.03-0.278-4.986-0.835-5.869
		c-0.748-1.15-1.898-1.726-3.452-1.726c-1.132,0-2.196,0.345-3.193,1.035c-0.998,0.69-1.717,1.702-2.158,3.035
		c-0.441,1.334-0.662,3.438-0.662,6.315v14.673h-8.084v-16.744c0-2.973-0.144-4.892-0.432-5.754
		c-0.288-0.863-0.733-1.506-1.338-1.928s-1.424-0.633-2.46-0.633c-1.247,0-2.369,0.335-3.366,1.007
		c-0.997,0.671-1.712,1.64-2.144,2.905c-0.431,1.267-0.646,3.366-0.646,6.301v14.846h-8.085V481.927z"/>
</g>
</svg>
