<?xml version="1.0" encoding="UTF-8" standalone="no"?>
<!-- Created with Inkscape (http://www.inkscape.org/) -->

<svg
   version="1.1"
   id="svg1"
   width="513.25201"
   height="513.25201"
   viewBox="0 0 513.25201 513.25201"
   sodipodi:docname="Belarus logo.svg"
   inkscape:version="1.3.2 (091e20e, 2023-11-25, custom)"
   xmlns:inkscape="http://www.inkscape.org/namespaces/inkscape"
   xmlns:sodipodi="http://sodipodi.sourceforge.net/DTD/sodipodi-0.dtd"
   xmlns="http://www.w3.org/2000/svg"
   xmlns:svg="http://www.w3.org/2000/svg"
   xmlns:rdf="http://www.w3.org/1999/02/22-rdf-syntax-ns#"
   xmlns:cc="http://creativecommons.org/ns#"
   xmlns:dc="http://purl.org/dc/elements/1.1/">
  <title
     id="title28">Belarus Red Cross</title>
  <defs
     id="defs1">
    <clipPath
       clipPathUnits="userSpaceOnUse"
       id="clipPath5">
      <path
         d="M 0,384.938 H 384.938 V 0.06 L 0,0.06 Z"
         transform="translate(-192.469,-376.93801)"
         id="path5" />
    </clipPath>
  </defs>
  <sodipodi:namedview
     id="namedview1"
     pagecolor="#ffffff"
     bordercolor="#666666"
     borderopacity="1.0"
     inkscape:showpageshadow="2"
     inkscape:pageopacity="0.0"
     inkscape:pagecheckerboard="0"
     inkscape:deskcolor="#d1d1d1"
     inkscape:zoom="1.599604"
     inkscape:cx="256.62601"
     inkscape:cy="256.62601"
     inkscape:window-width="1920"
     inkscape:window-height="1017"
     inkscape:window-x="-8"
     inkscape:window-y="-8"
     inkscape:window-maximized="1"
     inkscape:current-layer="g1">
    <inkscape:page
       x="0"
       y="0"
       inkscape:label="1"
       id="page1"
       width="513.25201"
       height="513.25201"
       margin="0"
       bleed="0" />
  </sodipodi:namedview>
  <g
     id="g1"
     inkscape:groupmode="layer"
     inkscape:label="1">
    <g
       id="group-MC1">
      <path
         id="path2"
         d="M 0,0 H -51.12 V 47.57 H 0 L -0.004,98.719 H 47.57 V 47.601 l -0.004,-0.02 H 98.688 V 0.007 H 47.566 l 0.004,0.007 v -51.12 H -0.004 V 0.014 L 0,0"
         style="fill:#ed192d;fill-opacity:1;fill-rule:nonzero;stroke:none"
         transform="matrix(1.3333333,0,0,-1.3333333,224.91333,288.36933)" />
      <path
         id="path3"
         d="m 0,0 c -58.559,0 -106.2,-47.641 -106.2,-106.2 0,-58.559 47.641,-106.201 106.2,-106.201 58.559,0 106.201,47.642 106.201,106.201 C 106.201,-47.641 58.559,0 0,0 Z m 0,-220.401 c -62.97,0 -114.2,51.231 -114.2,114.201 C -114.2,-43.23 -62.97,8 0,8 62.97,8 114.201,-43.23 114.201,-106.2 114.201,-169.17 62.97,-220.401 0,-220.401"
         style="fill:#ed192d;fill-opacity:1;fill-rule:nonzero;stroke:none"
         transform="matrix(1.3333333,0,0,-1.3333333,256.62533,115.02667)" />
      <path
         id="path4"
         d="m 0,0 c -101.717,0 -184.469,-82.752 -184.469,-184.469 0,-101.717 82.752,-184.469 184.469,-184.469 101.717,0 184.469,82.752 184.469,184.469 C 184.469,-82.752 101.717,0 0,0 Z m 0,-376.938 c -106.128,0 -192.469,86.341 -192.469,192.469 C -192.469,-78.341 -106.128,8 0,8 106.128,8 192.469,-78.341 192.469,-184.469 192.469,-290.597 106.128,-376.938 0,-376.938"
         style="fill:#ed192d;fill-opacity:1;fill-rule:nonzero;stroke:none"
         transform="matrix(1.3333333,0,0,-1.3333333,256.62533,10.668)"
         clip-path="url(#clipPath5)" />
      <path
         id="path6"
         d="M 0,0 5.587,-3.859 10.382,3.082 4.761,6.965 C 2.221,8.719 0.032,8.881 -1.745,6.308 -3.5,3.768 -2.37,1.638 0,0 Z m -3.589,-3.673 c -4.841,3.345 -6.882,8.356 -3.256,13.604 3.672,5.316 8.98,5.251 14.194,1.649 L 18.624,3.791 1.969,-20.318 l -17.877,12.352 3.017,4.367 12.63,-8.725 2.97,4.3 -6.298,4.351"
         style="fill:#ed192d;fill-opacity:1;fill-rule:nonzero;stroke:none"
         transform="matrix(1.3333333,0,0,-1.3333333,143.04133,417.58533)" />
      <path
         id="path7"
         d="m 0,0 10.711,-11.34 4.637,4.379 -9.834,10.413 3.68,3.477 9.835,-10.413 5.236,4.945 -10.908,11.55 3.92,3.702 L 32.565,0.525 11.26,-19.595 -3.83,-3.617 0,0"
         style="fill:#ed192d;fill-opacity:1;fill-rule:nonzero;stroke:none"
         transform="matrix(1.3333333,0,0,-1.3333333,92.881333,390.18667)" />
      <path
         id="path8"
         d="m 0,0 3.328,-5.492 -20.382,-12.35 4.074,-6.724 10.844,6.09 c 7.26,4.062 11.865,3.532 14.468,-0.762 0.597,-0.986 1.253,-2.466 1.455,-3.354 L 9.351,-25.28 c -0.044,0.551 -0.324,1.488 -0.75,2.192 -0.896,1.479 -2.361,2.228 -7.586,-0.746 l -15.498,-8.814 -10.581,17.46 L 0,0"
         style="fill:#ed192d;fill-opacity:1;fill-rule:nonzero;stroke:none"
         transform="matrix(1.3333333,0,0,-1.3333333,95.277333,335.24)" />
      <path
         id="path9"
         d="M 0,0 C 5.993,1.931 8.663,5.99 7.175,10.743 5.686,15.364 1.083,17.038 -4.871,15.12 -10.746,13.226 -13.455,9.155 -11.954,4.493 -10.464,-0.128 -5.797,-1.867 0,0 Z m -6.747,21.347 c 8.696,2.8 16.35,-0.83 18.988,-9.016 2.662,-8.265 -1.395,-15.668 -10.13,-18.481 -8.852,-2.852 -16.416,0.763 -19.103,9.107 -2.625,8.146 1.51,15.575 10.245,18.39"
         style="fill:#ed192d;fill-opacity:1;fill-rule:nonzero;stroke:none"
         transform="matrix(1.3333333,0,0,-1.3333333,71.06,327.60667)" />
      <path
         id="path10"
         d="m 0,0 -0.497,5.698 c -0.25,2.871 -1.378,4.92 -4.617,4.639 -3.116,-0.272 -4.037,-2.5 -3.791,-5.33 l 0.5,-5.74 z m -14.196,5.043 c -0.55,6.314 2.02,10.958 8.457,11.518 6.355,0.554 9.7,-3.699 10.211,-9.562 L 5.043,0.438 15.539,1.352 16.092,-5.002 -13.1,-7.544 -14.196,5.043"
         style="fill:#ed192d;fill-opacity:1;fill-rule:nonzero;stroke:none"
         transform="matrix(1.3333333,0,0,-1.3333333,58.406667,280.09467)" />
      <path
         id="path11"
         d="M 0,0 C 0.419,0.737 0.878,1.801 1.019,2.986 1.252,4.948 0.184,6.07 -1.123,6.226 -2.39,6.377 -3.79,5.756 -5.044,5.325 l -18.996,-6.399 0.842,7.07 16.107,4.753 -14.554,8.282 0.813,6.824 20.243,-12.358 C 5.015,10.094 7.031,7.533 6.471,2.834 6.286,1.281 5.712,-0.059 5.394,-0.643 L 0,0"
         style="fill:#ed192d;fill-opacity:1;fill-rule:nonzero;stroke:none"
         transform="matrix(1.3333333,0,0,-1.3333333,70.328,247.03867)" />
      <path
         id="path12"
         d="m 0,0 c -2.827,-8.038 -10.484,-11.324 -19.222,-8.251 -8.038,2.827 -12.643,10.206 -9.666,18.672 2.335,6.64 8.237,10.02 14.109,8.478 l -2.09,-5.941 c -3.247,0.444 -5.825,-1.181 -6.973,-4.443 -1.871,-5.32 2.182,-9.058 6.803,-10.683 5.709,-2.008 10.356,-0.456 11.927,4.009 1.283,3.651 -0.127,6.59 -3.988,8.516 l 2.117,6.019 C -0.444,13.378 2.663,7.572 0,0"
         style="fill:#ed192d;fill-opacity:1;fill-rule:nonzero;stroke:none"
         transform="matrix(1.3333333,0,0,-1.3333333,89.158667,196.84267)" />
      <path
         id="path13"
         d="m 0,0 c -4.586,-7.179 -12.789,-8.63 -20.593,-3.645 -7.18,4.587 -9.978,12.821 -5.148,20.382 3.789,5.93 10.304,7.873 15.669,5.032 l -3.39,-5.306 c -3.06,1.173 -5.94,0.18 -7.802,-2.733 -3.035,-4.752 0.057,-9.315 4.184,-11.951 5.099,-3.257 9.976,-2.808 12.524,1.18 2.083,3.261 1.381,6.444 -1.938,9.199 l 3.434,5.376 C 2.621,13.123 4.32,6.764 0,0"
         style="fill:#ed192d;fill-opacity:1;fill-rule:nonzero;stroke:none"
         transform="matrix(1.3333333,0,0,-1.3333333,107.14133,160.38133)" />
      <path
         id="path14"
         d="M 0,0 21.392,-3.841 15.641,-9.5 0.065,-6.346 l -0.072,-5.268 6.64,-6.749 -4.519,-4.446 -20.555,20.892 4.519,4.446 8.545,-8.685 -0.33,16.769 L 0.074,16.3 0,0"
         style="fill:#ed192d;fill-opacity:1;fill-rule:nonzero;stroke:none"
         transform="matrix(1.3333333,0,0,-1.3333333,117.14667,109.976)" />
      <path
         id="path15"
         d="m 0,0 -5.468,-3.363 -10.651,17.314 -0.105,-0.065 1.257,-23.093 -6.168,-3.794 -15.351,24.955 5.468,3.363 10.629,-17.279 0.105,0.065 -1.236,23.058 6.169,3.794 L 0,0"
         style="fill:#ed192d;fill-opacity:1;fill-rule:nonzero;stroke:none"
         transform="matrix(1.3333333,0,0,-1.3333333,177.216,95.638667)" />
      <path
         id="path16"
         d="m 0,0 c 1.339,-4.022 -0.705,-6.481 -4.493,-7.742 -3.787,-1.261 -6.897,-0.518 -8.236,3.504 l 2.187,0.728 c 0.949,-1.68 2.927,-1.888 5.036,-1.186 2.108,0.701 3.566,2.054 3.32,3.967 z m 17.141,-33.505 -6.091,-2.028 -6.422,19.289 -0.118,-0.039 -4.042,-22.773 -6.872,-2.288 -9.257,27.802 6.092,2.027 6.409,-19.25 0.117,0.039 4.056,22.735 6.872,2.288 9.256,-27.802"
         style="fill:#ed192d;fill-opacity:1;fill-rule:nonzero;stroke:none"
         transform="matrix(1.3333333,0,0,-1.3333333,192.99333,37.129333)" />
      <path
         id="path17"
         d="m 0,0 12.262,-17.942 -8.066,0.132 -8.675,13.313 -3.804,-3.642 -0.155,-9.465 -6.337,0.103 L -14.297,11.8 -7.96,11.697 -8.159,-0.484 3.562,11.509 11.67,11.376 0,0"
         style="fill:#ed192d;fill-opacity:1;fill-rule:nonzero;stroke:none"
         transform="matrix(1.3333333,0,0,-1.3333333,260.39067,54.333333)" />
      <path
         id="path18"
         d="m 0,0 5.589,-1.219 c 2.814,-0.614 5.106,-0.146 5.8,3.03 0.667,3.056 -1.188,4.598 -3.961,5.203 L 1.799,8.243 Z M 9.033,12.056 C 15.225,10.704 18.896,6.871 17.518,0.558 16.158,-5.674 11.104,-7.604 5.354,-6.349 l -6.433,1.404 -2.246,-10.293 -6.233,1.359 6.247,28.628 12.344,-2.693"
         style="fill:#ed192d;fill-opacity:1;fill-rule:nonzero;stroke:none"
         transform="matrix(1.3333333,0,0,-1.3333333,293.49867,60.442667)" />
      <path
         id="path19"
         d="m 0,0 -8.072,-8.309 7.08,-3.218 z m 4.024,-26.147 -6.144,2.792 0.611,6.91 -9.927,4.512 -4.881,-4.968 -5.993,2.725 22.293,22.094 6.031,-2.742 -1.99,-31.323"
         style="fill:#ed192d;fill-opacity:1;fill-rule:nonzero;stroke:none"
         transform="matrix(1.3333333,0,0,-1.3333333,342.69333,66.978667)" />
      <path
         id="path20"
         d="m 0,0 c -6.794,5.142 -7.59,13.436 -2,20.82 5.142,6.795 13.573,8.931 20.729,3.516 5.612,-4.248 7.032,-10.898 3.774,-16.021 l -5.021,3.801 c 1.412,2.957 0.651,5.908 -2.106,7.994 C 10.879,23.514 6.084,20.794 3.128,16.888 -0.523,12.063 -0.463,7.164 3.312,4.308 6.397,1.972 9.626,2.42 12.636,5.51 L 17.724,1.659 C 12.876,-3.654 6.401,-4.844 0,0"
         style="fill:#ed192d;fill-opacity:1;fill-rule:nonzero;stroke:none"
         transform="matrix(1.3333333,0,0,-1.3333333,364.492,115.308)" />
      <path
         id="path21"
         d="m 0,0 -4.11,4.932 9.706,8.09 -7.668,9.201 -9.707,-8.09 -4.111,4.932 22.511,18.762 4.11,-4.932 -8.472,-7.062 7.668,-9.2 8.473,7.062 4.112,-4.932 L 0,0"
         style="fill:#ed192d;fill-opacity:1;fill-rule:nonzero;stroke:none"
         transform="matrix(1.3333333,0,0,-1.3333333,404.556,154.99467)" />
      <path
         id="path22"
         d="m 0,0 -26.487,-12.527 -2.745,5.803 26.487,12.527 z m -23.002,12.155 -1.917,4.055 -7.627,-3.606 1.936,-4.093 c 1.319,-2.79 3.133,-4.026 5.96,-2.689 2.791,1.32 2.88,3.729 1.648,6.333 z m -12.159,-6.342 -4.873,10.305 26.487,12.526 2.727,-5.766 -9.524,-4.504 2.287,-4.836 C -15.54,8.218 -16.284,2.859 -22.05,0.132 -27.891,-2.63 -32.451,0.084 -35.161,5.813"
         style="fill:#ed192d;fill-opacity:1;fill-rule:nonzero;stroke:none"
         transform="matrix(1.3333333,0,0,-1.3333333,462.61733,182.72933)" />
      <path
         id="path23"
         d="m 0,0 c -4.164,-0.787 -6.327,1.568 -7.068,5.49 -0.742,3.923 0.412,6.905 4.576,7.692 l 0.429,-2.264 C -3.854,10.202 -4.327,8.27 -3.914,6.086 -3.502,3.903 -2.356,2.277 -0.428,2.265 Z m -35.498,-12.491 -1.193,6.308 19.975,3.777 -0.022,0.121 -22.025,7.06 -1.345,7.117 28.79,5.443 1.193,-6.308 -19.935,-3.769 0.023,-0.121 21.983,-7.068 1.346,-7.117 -28.79,-5.443"
         style="fill:#ed192d;fill-opacity:1;fill-rule:nonzero;stroke:none"
         transform="matrix(1.3333333,0,0,-1.3333333,482.608,222.80533)" />
      <path
         id="path24"
         d="m 0,0 -19.243,-10.104 1.066,7.997 14.229,7.075 -3.178,4.202 -9.384,1.249 0.837,6.284 29.05,-3.868 L 12.541,6.551 0.463,8.16 11.02,-4.873 9.95,-12.91 0,0"
         style="fill:#ed192d;fill-opacity:1;fill-rule:nonzero;stroke:none"
         transform="matrix(1.3333333,0,0,-1.3333333,456.752,286.93067)" />
      <path
         id="path25"
         d="m 0,0 -1.96,-5.375 c -0.987,-2.706 -0.831,-5.041 2.224,-6.155 2.938,-1.071 4.716,0.558 5.688,3.226 l 1.974,5.413 z m 10.733,-10.572 c -2.172,-5.955 -6.464,-9.077 -12.534,-6.863 -5.994,2.185 -7.227,7.454 -5.21,12.982 l 2.255,6.187 -9.898,3.609 2.185,5.993 27.53,-10.038 -4.328,-11.87"
         style="fill:#ed192d;fill-opacity:1;fill-rule:nonzero;stroke:none"
         transform="matrix(1.3333333,0,0,-1.3333333,446.152,319.34133)" />
      <path
         id="path26"
         d="m 0,0 8.224,13.255 -5.421,3.363 -7.552,-12.171 -4.3,2.669 7.55,12.171 -6.121,3.797 -8.375,-13.499 -4.581,2.842 11.739,18.92 24.9,-15.449 L 4.477,-2.778 0,0"
         style="fill:#ed192d;fill-opacity:1;fill-rule:nonzero;stroke:none"
         transform="matrix(1.3333333,0,0,-1.3333333,427.752,380.6)" />
      <path
         id="path27"
         d="m 0,0 c 5.932,6.115 14.26,5.892 20.907,-0.555 6.115,-5.932 7.206,-14.559 0.959,-21 -4.9,-5.051 -11.672,-5.648 -16.359,-1.791 l 4.384,4.52 c 2.763,-1.763 5.784,-1.368 8.191,1.114 3.926,4.047 1.811,9.138 -1.704,12.548 -4.343,4.212 -9.212,4.749 -12.507,1.352 -2.694,-2.777 -2.644,-6.036 0.056,-9.4 l -4.442,-4.579 C -5.197,-12.332 -5.588,-5.76 0,0"
         style="fill:#ed192d;fill-opacity:1;fill-rule:nonzero;stroke:none"
         transform="matrix(1.3333333,0,0,-1.3333333,383.65067,380.98933)" />
      <path
         id="path28"
         d="M 0,0 7.311,4.912 -5.977,24.693 -0.613,28.295 12.675,8.515 19.986,13.426 23.038,8.882 3.052,-4.543 0,0"
         style="fill:#ed192d;fill-opacity:1;fill-rule:nonzero;stroke:none"
         transform="matrix(1.3333333,0,0,-1.3333333,360.51333,440.41867)" />
    </g>
  </g>
  <metadata
     id="metadata28">
    <rdf:RDF>
      <cc:Work
         rdf:about="">
        <dc:title>Belarus Red Cross</dc:title>
      </cc:Work>
    </rdf:RDF>
  </metadata>
</svg>
