<?xml version="1.0" encoding="UTF-8" standalone="no"?>
<!-- Created with Inkscape (http://www.inkscape.org/) -->

<svg
   version="1.1"
   id="svg1"
   width="274.27332"
   height="132.22667"
   viewBox="0 0 274.27332 132.22667"
   sodipodi:docname="Logo_UK_Horisontalt_CMYK.svg"
   inkscape:version="1.3.2 (091e20e, 2023-11-25, custom)"
   xmlns:inkscape="http://www.inkscape.org/namespaces/inkscape"
   xmlns:sodipodi="http://sodipodi.sourceforge.net/DTD/sodipodi-0.dtd"
   xmlns="http://www.w3.org/2000/svg"
   xmlns:svg="http://www.w3.org/2000/svg">
  <defs
     id="defs1">
    <clipPath
       clipPathUnits="userSpaceOnUse"
       id="clipPath4">
      <path
         d="M 0,99.17 H 205.68 V 0.06 L 0,0.06 Z"
         transform="translate(-202.87,-99.170002)"
         id="path4" />
    </clipPath>
  </defs>
  <sodipodi:namedview
     id="namedview1"
     pagecolor="#ffffff"
     bordercolor="#666666"
     borderopacity="1.0"
     inkscape:showpageshadow="2"
     inkscape:pageopacity="0.0"
     inkscape:pagecheckerboard="0"
     inkscape:deskcolor="#d1d1d1"
     inkscape:export-bgcolor="#ffffffff"
     inkscape:zoom="3.4090083"
     inkscape:cx="137.13666"
     inkscape:cy="66.148269"
     inkscape:window-width="1920"
     inkscape:window-height="1017"
     inkscape:window-x="-8"
     inkscape:window-y="-8"
     inkscape:window-maximized="1"
     inkscape:current-layer="g1">
    <inkscape:page
       x="0"
       y="0"
       inkscape:label="1"
       id="page1"
       width="274.27332"
       height="132.22667"
       margin="0"
       bleed="0"
       inkscape:export-filename="Logo_UK_Horisontalt_CMYK.png"
       inkscape:export-xdpi="300"
       inkscape:export-ydpi="300" />
  </sodipodi:namedview>
  <g
     id="g1"
     inkscape:groupmode="layer"
     inkscape:label="1">
    <g
       id="group-MC1">
      <path
         id="path2"
         d="M 0,0 H -27.176 V 27.176 H -54.161 V 0 h -27.175 v -26.988 h 27.175 V -54.16 h 26.985 v 27.172 H 0 L 0,0"
         style="fill:#ed1c24;fill-opacity:1;fill-rule:nonzero;stroke:none"
         transform="matrix(1.3333333,0,0,-1.3333333,124.91467,48.002667)" />
      <path
         id="path3"
         d="m 0,0 c 1.559,0 2.835,-1.275 2.835,-2.834 v -93.501 c 0,-1.56 -1.276,-2.835 -2.835,-2.835 h -200.036 c -1.559,0 -2.834,1.275 -2.834,2.835 v 93.501 c 0,1.559 1.275,2.834 2.834,2.834 L 0,0"
         style="fill:#ffffff;fill-opacity:1;fill-rule:nonzero;stroke:none"
         transform="matrix(1.3333333,0,0,-1.3333333,270.49333,0)"
         clip-path="url(#clipPath4)" />
      <path
         id="path5"
         d="M 0,0 H -27.176 V 27.176 H -54.161 V 0 h -27.175 v -26.988 h 27.175 V -54.16 h 26.985 v 27.172 H 0 L 0,0"
         style="fill:#ed1c24;fill-opacity:1;fill-rule:nonzero;stroke:none"
         transform="matrix(1.3333333,0,0,-1.3333333,124.91467,48.002667)" />
      <path
         id="path6"
         d="M 0,0 C 3.865,0 6.332,2.621 6.332,6.005 V 6.049 C 6.332,9.433 3.865,12.097 0,12.097 H -3.581 V 0 Z M -5.306,13.691 H 0 c 4.804,0 8.123,-3.297 8.123,-7.599 V 6.049 C 8.123,1.747 4.804,-1.594 0,-1.594 h -5.306 v 15.285"
         style="fill:#231f20;fill-opacity:1;fill-rule:nonzero;stroke:none"
         transform="matrix(1.3333333,0,0,-1.3333333,152.86267,46.604)" />
      <path
         id="path7"
         d="M 0,0 -3.472,7.795 -6.966,0 Z m -4.258,9.804 h 1.615 L 4.323,-5.59 H 2.467 l -1.79,4.04 h -8.32 l -1.812,-4.04 h -1.769 l 6.966,15.394"
         style="fill:#231f20;fill-opacity:1;fill-rule:nonzero;stroke:none"
         transform="matrix(1.3333333,0,0,-1.3333333,179.59467,41.276)" />
      <path
         id="path8"
         d="m 0,0 h 1.615 l 9.63,-12.25 V 0 h 1.68 V -15.285 H 11.55 L 1.68,-2.751 V -15.285 H 0 L 0,0"
         style="fill:#231f20;fill-opacity:1;fill-rule:nonzero;stroke:none"
         transform="matrix(1.3333333,0,0,-1.3333333,188.276,28.349333)" />
      <path
         id="path9"
         d="m 158.067,62.623 h 1.725 v 15.285 h -1.725 z"
         style="fill:#231f20;fill-opacity:1;fill-rule:nonzero;stroke:none"
         transform="matrix(1.3333333,0,0,-1.3333333,0,132.22667)" />
      <path
         id="path10"
         d="m 0,0 1.071,1.267 c 1.593,-1.441 3.122,-2.162 5.24,-2.162 2.053,0 3.406,1.092 3.406,2.598 v 0.044 c 0,1.42 -0.765,2.227 -3.974,2.904 -3.515,0.764 -5.131,1.9 -5.131,4.411 v 0.043 c 0,2.402 2.118,4.171 5.022,4.171 2.227,0 3.821,-0.633 5.371,-1.878 l -1.004,-1.332 c -1.42,1.158 -2.839,1.66 -4.411,1.66 -1.987,0 -3.254,-1.092 -3.254,-2.468 V 9.215 c 0,-1.442 0.786,-2.249 4.15,-2.97 3.406,-0.743 4.978,-1.987 4.978,-4.323 V 1.878 c 0,-2.62 -2.183,-4.323 -5.219,-4.323 C 3.822,-2.445 1.834,-1.638 0,0"
         style="fill:#231f20;fill-opacity:1;fill-rule:nonzero;stroke:none"
         transform="matrix(1.3333333,0,0,-1.3333333,216.95867,45.76)" />
      <path
         id="path11"
         d="m 0,0 h 1.724 v -6.791 h 8.822 V 0 h 1.725 v -15.285 h -1.725 v 6.878 H 1.724 v -6.878 H 0 L 0,0"
         style="fill:#231f20;fill-opacity:1;fill-rule:nonzero;stroke:none"
         transform="matrix(1.3333333,0,0,-1.3333333,236.208,28.349333)" />
      <path
         id="path12"
         d="m 0,0 c 2.293,0 3.931,1.179 3.931,3.144 v 0.044 c 0,1.877 -1.441,3.013 -3.908,3.013 H -4.694 L -4.694,0 Z M -6.419,7.795 H 0.154 C 2.032,7.795 3.537,7.227 4.498,6.267 5.24,5.524 5.678,4.454 5.678,3.253 V 3.209 c 0,-2.532 -1.747,-4.017 -4.149,-4.454 L 6.224,-7.489 H 4.106 l -4.433,5.938 H -4.694 V -7.489 H -6.419 V 7.795"
         style="fill:#231f20;fill-opacity:1;fill-rule:nonzero;stroke:none"
         transform="matrix(1.3333333,0,0,-1.3333333,154.34667,67.036)" />
      <path
         id="path13"
         d="M 0,0 H 11.048 V -1.572 H 1.725 v -5.219 h 8.341 V -8.362 H 1.725 v -5.35 h 9.433 v -1.572 L 0,-15.284 V 0"
         style="fill:#231f20;fill-opacity:1;fill-rule:nonzero;stroke:none"
         transform="matrix(1.3333333,0,0,-1.3333333,166.11333,56.644)" />
      <path
         id="path14"
         d="M 0,0 C 3.865,0 6.332,2.62 6.332,6.004 V 6.048 C 6.332,9.433 3.865,12.097 0,12.097 H -3.581 V 0 Z M -5.306,13.69 H 0 c 4.804,0 8.123,-3.296 8.123,-7.598 V 6.048 C 8.123,1.746 4.804,-1.594 0,-1.594 H -5.306 V 13.69"
         style="fill:#231f20;fill-opacity:1;fill-rule:nonzero;stroke:none"
         transform="matrix(1.3333333,0,0,-1.3333333,191.97067,74.897333)" />
      <path
         id="path15"
         d="m 0,0 v 0.043 c 0,4.324 3.232,7.904 7.73,7.904 2.773,0 4.433,-0.982 5.961,-2.424 L 12.511,4.258 C 11.223,5.481 9.782,6.354 7.708,6.354 4.324,6.354 1.791,3.603 1.791,0.087 V 0.043 c 0,-3.537 2.554,-6.311 5.917,-6.311 2.096,0 3.471,0.809 4.935,2.206 l 1.135,-1.114 C 12.184,-6.791 10.437,-7.861 7.665,-7.861 3.253,-7.861 0,-4.389 0,0"
         style="fill:#231f20;fill-opacity:1;fill-rule:nonzero;stroke:none"
         transform="matrix(1.3333333,0,0,-1.3333333,144.88533,95.184)" />
      <path
         id="path16"
         d="m 0,0 c 2.292,0 3.93,1.179 3.93,3.145 v 0.043 c 0,1.877 -1.441,3.013 -3.908,3.013 H -4.695 L -4.695,0 Z M -6.419,7.795 H 0.153 C 2.031,7.795 3.537,7.227 4.498,6.267 5.24,5.523 5.677,4.454 5.677,3.254 V 3.209 C 5.677,0.677 3.93,-0.809 1.528,-1.244 L 6.223,-7.49 H 4.105 l -4.433,5.939 H -4.695 V -7.49 H -6.419 V 7.795"
         style="fill:#231f20;fill-opacity:1;fill-rule:nonzero;stroke:none"
         transform="matrix(1.3333333,0,0,-1.3333333,175.11067,95.329333)" />
      <path
         id="path17"
         d="m 0,0 v 0.043 c 0,3.473 -2.533,6.311 -6.028,6.311 -3.493,0 -5.982,-2.795 -5.982,-6.267 V 0.043 c 0,-3.472 2.533,-6.311 6.026,-6.311 C -2.489,-6.268 0,-3.473 0,0 Z m -13.801,0 v 0.043 c 0,4.215 3.167,7.904 7.817,7.904 4.652,0 7.774,-3.646 7.774,-7.86 0.021,-0.022 0.021,-0.022 0,-0.044 0,-4.214 -3.166,-7.904 -7.818,-7.904 -4.65,0 -7.773,3.646 -7.773,7.861"
         style="fill:#231f20;fill-opacity:1;fill-rule:nonzero;stroke:none"
         transform="matrix(1.3333333,0,0,-1.3333333,204.37467,95.184)" />
      <path
         id="path18"
         d="m 0,0 1.07,1.267 c 1.594,-1.442 3.122,-2.162 5.241,-2.162 2.052,0 3.406,1.091 3.406,2.598 v 0.044 c 0,1.42 -0.765,2.227 -3.974,2.904 -3.515,0.764 -5.132,1.9 -5.132,4.411 v 0.044 c 0,2.401 2.118,4.17 5.023,4.17 2.226,0 3.821,-0.633 5.371,-1.877 l -1.004,-1.333 c -1.42,1.158 -2.839,1.66 -4.411,1.66 -1.987,0 -3.253,-1.092 -3.253,-2.467 V 9.215 c 0,-1.441 0.785,-2.249 4.148,-2.97 3.407,-0.742 4.979,-1.987 4.979,-4.323 V 1.878 c 0,-2.62 -2.184,-4.323 -5.219,-4.323 C 3.821,-2.445 1.834,-1.638 0,0"
         style="fill:#231f20;fill-opacity:1;fill-rule:nonzero;stroke:none"
         transform="matrix(1.3333333,0,0,-1.3333333,209.41867,102.34667)" />
      <path
         id="path19"
         d="m 0,0 1.07,1.267 c 1.594,-1.442 3.122,-2.162 5.24,-2.162 2.053,0 3.407,1.091 3.407,2.598 v 0.044 c 0,1.42 -0.765,2.227 -3.974,2.904 -3.516,0.764 -5.132,1.9 -5.132,4.411 v 0.044 c 0,2.401 2.118,4.17 5.023,4.17 2.226,0 3.821,-0.633 5.371,-1.877 l -1.004,-1.333 c -1.42,1.158 -2.839,1.66 -4.411,1.66 -1.988,0 -3.253,-1.092 -3.253,-2.467 V 9.215 c 0,-1.441 0.785,-2.249 4.148,-2.97 3.406,-0.742 4.979,-1.987 4.979,-4.323 V 1.878 c 0,-2.62 -2.184,-4.323 -5.219,-4.323 C 3.821,-2.445 1.834,-1.638 0,0"
         style="fill:#231f20;fill-opacity:1;fill-rule:nonzero;stroke:none"
         transform="matrix(1.3333333,0,0,-1.3333333,227.036,102.34667)" />
    </g>
  </g>
</svg>
