<?xml version="1.0" encoding="UTF-8" standalone="no"?>
<!-- Created with Inkscape (http://www.inkscape.org/) -->

<svg
   version="1.1"
   id="svg1"
   width="289.15067"
   height="171.144"
   viewBox="0 0 289.15067 171.144"
   sodipodi:docname="St Kitts &amp; Nevis Red Cross.svg"
   inkscape:version="1.3.2 (091e20e, 2023-11-25, custom)"
   xmlns:inkscape="http://www.inkscape.org/namespaces/inkscape"
   xmlns:sodipodi="http://sodipodi.sourceforge.net/DTD/sodipodi-0.dtd"
   xmlns="http://www.w3.org/2000/svg"
   xmlns:svg="http://www.w3.org/2000/svg">
  <defs
     id="defs1">
    <clipPath
       clipPathUnits="userSpaceOnUse"
       id="clipPath20">
      <path
         d="M 0.060005,128.358 H 216.863 V 0.06 H 0.060005 Z"
         transform="translate(-3.5815001,-8.0690027)"
         id="path20" />
    </clipPath>
    <clipPath
       clipPathUnits="userSpaceOnUse"
       id="clipPath24">
      <path
         d="M 0.060005,128.358 H 216.863 V 0.06 H 0.060005 Z"
         transform="translate(-58.818001,-9.1280027)"
         id="path24" />
    </clipPath>
    <clipPath
       clipPathUnits="userSpaceOnUse"
       id="clipPath27">
      <path
         d="M 0.060005,128.358 H 216.863 V 0.06 H 0.060005 Z"
         transform="translate(-85.424005,-3.0819976)"
         id="path27" />
    </clipPath>
    <clipPath
       clipPathUnits="userSpaceOnUse"
       id="clipPath29">
      <path
         d="M 0.060005,128.358 H 216.863 V 0.06 H 0.060005 Z"
         transform="translate(-97.418005,-4.9110001)"
         id="path29" />
    </clipPath>
    <clipPath
       clipPathUnits="userSpaceOnUse"
       id="clipPath31">
      <path
         d="M 0.060005,128.358 H 216.863 V 0.06 H 0.060005 Z"
         transform="translate(-110.74101,-4.9110001)"
         id="path31" />
    </clipPath>
    <clipPath
       clipPathUnits="userSpaceOnUse"
       id="clipPath33">
      <path
         d="M 0.060005,128.358 H 216.863 V 0.06 H 0.060005 Z"
         transform="translate(-130.609,-4.9110001)"
         id="path33" />
    </clipPath>
    <clipPath
       clipPathUnits="userSpaceOnUse"
       id="clipPath35">
      <path
         d="M 0.060005,128.358 H 216.863 V 0.06 H 0.060005 Z"
         transform="translate(-147.39801,-3.0819976)"
         id="path35" />
    </clipPath>
    <clipPath
       clipPathUnits="userSpaceOnUse"
       id="clipPath37">
      <path
         d="M 0.060005,128.358 H 216.863 V 0.06 H 0.060005 Z"
         transform="translate(-165.727,-9.1280027)"
         id="path37" />
    </clipPath>
  </defs>
  <sodipodi:namedview
     id="namedview1"
     pagecolor="#ffffff"
     bordercolor="#666666"
     borderopacity="1.0"
     inkscape:showpageshadow="2"
     inkscape:pageopacity="0.0"
     inkscape:pagecheckerboard="0"
     inkscape:deskcolor="#d1d1d1"
     inkscape:export-bgcolor="#ffffffff"
     inkscape:zoom="3.2336084"
     inkscape:cx="144.57533"
     inkscape:cy="85.50819"
     inkscape:window-width="1920"
     inkscape:window-height="1017"
     inkscape:window-x="-8"
     inkscape:window-y="-8"
     inkscape:window-maximized="1"
     inkscape:current-layer="g1">
    <inkscape:page
       x="0"
       y="0"
       inkscape:label="1"
       id="page1"
       width="289.15067"
       height="171.144"
       margin="0"
       bleed="0"
       inkscape:export-filename="St Kitts &amp; Nevis Red Cross.png"
       inkscape:export-xdpi="300"
       inkscape:export-ydpi="300" />
  </sodipodi:namedview>
  <g
     id="g1"
     inkscape:groupmode="layer"
     inkscape:label="1">
    <g
       id="group-MC1">
      <path
         id="path2"
         d="M 0,0 H -26.06 V 24.25 H 0 L -0.002,50.325 H 24.25 V 24.266 l -0.002,-0.01 H 50.309 V 0.004 H 24.248 l 0.002,0.003 v -26.06 H -0.002 V 0.007 L 0,0"
         style="fill:#ed192d;fill-opacity:1;fill-rule:nonzero;stroke:none"
         transform="matrix(1.3333333,0,0,-1.3333333,128.40933,67.1)" />
      <path
         id="path3"
         d="m 0,0 c 0.0772,-1.618 1.0786,-2.138 2.5996,-2.138 1.0786,0 2.1953,0.385 2.1953,1.406 0,1.213 -1.9638,1.444 -3.9472,2.003 -1.9644,0.559 -4.0249,1.444 -4.0249,3.967 0,3.004 3.0234,4.179 5.604,4.179 2.7343,0 5.4882,-1.329 5.5072,-4.43 H 4.3521 C 4.4102,6.239 3.2354,6.644 2.1377,6.644 1.3672,6.644 0.4048,6.374 0.4048,5.469 0.4048,4.41 2.3882,4.217 4.3906,3.659 6.374,3.1 8.377,2.176 8.377,-0.308 8.377,-3.794 5.4111,-4.911 2.3882,-4.911 -0.77,-4.911 -3.5625,-3.524 -3.5815,0 H 0"
         style="fill:#231f20;fill-opacity:1;fill-rule:nonzero;stroke:none"
         transform="matrix(1.3333333,0,0,-1.3333333,5.1856,131.124)" />
      <path
         id="path4"
         d="M 0,0 H -4.102 V -10.668 H -7.684 V 0 h -4.101 V 3.081 H 0 V 0"
         style="fill:#231f20;fill-opacity:1;fill-rule:nonzero;stroke:none"
         transform="matrix(1.3333333,0,0,-1.3333333,33.758667,123.06267)" />
      <path
         id="path5"
         d="m 25.259,25.393 h 3.582 v 3.5816 h -3.582 z"
         style="fill:#231f20;fill-opacity:1;fill-rule:nonzero;stroke:none"
         transform="matrix(1.3333333,0,0,-1.3333333,0,171.144)" />
      <path
         id="path6"
         d="M 0,0 H 3.581 V -5.276 L 8.107,0 h 4.448 l -5.083,-5.411 5.719,-8.338 H 8.743 L 5.045,-7.972 3.581,-9.513 v -4.236 H 0 L 0,0"
         style="fill:#231f20;fill-opacity:1;fill-rule:nonzero;stroke:none"
         transform="matrix(1.3333333,0,0,-1.3333333,51.134667,118.95467)" />
      <path
         id="path7"
         d="m 53.098,25.393 h 3.5816 V 39.142 H 53.098 Z"
         style="fill:#231f20;fill-opacity:1;fill-rule:nonzero;stroke:none"
         transform="matrix(1.3333333,0,0,-1.3333333,0,171.144)" />
      <path
         id="path8"
         d="M 0,0 H -4.102 V -10.668 H -7.684 V 0 h -4.101 V 3.081 H 0 V 0"
         style="fill:#231f20;fill-opacity:1;fill-rule:nonzero;stroke:none"
         transform="matrix(1.3333333,0,0,-1.3333333,94.058667,123.06267)" />
      <path
         id="path9"
         d="M 0,0 H -4.102 V -10.668 H -7.684 V 0 h -4.101 V 3.081 H 0 V 0"
         style="fill:#231f20;fill-opacity:1;fill-rule:nonzero;stroke:none"
         transform="matrix(1.3333333,0,0,-1.3333333,111.33467,123.06267)" />
      <path
         id="path10"
         d="m 0,0 c 0.077,-1.618 1.079,-2.138 2.6,-2.138 1.078,0 2.195,0.385 2.195,1.406 0,1.213 -1.964,1.444 -3.947,2.003 -1.965,0.559 -4.025,1.444 -4.025,3.967 0,3.004 3.023,4.179 5.604,4.179 2.734,0 5.488,-1.329 5.507,-4.43 H 4.352 C 4.41,6.239 3.235,6.644 2.138,6.644 1.367,6.644 0.405,6.374 0.405,5.469 0.405,4.41 2.388,4.217 4.391,3.659 6.374,3.1 8.377,2.176 8.377,-0.308 c 0,-3.486 -2.966,-4.603 -5.989,-4.603 -3.158,0 -5.95,1.387 -5.969,4.911 H 0"
         style="fill:#231f20;fill-opacity:1;fill-rule:nonzero;stroke:none"
         transform="matrix(1.3333333,0,0,-1.3333333,117.8,131.124)" />
      <path
         id="path11"
         d="M 0,0 H 3.12 L 1.598,4.814 H 1.56 Z m -0.231,8.627 h 3.64 L 8.55,-5.122 H 4.815 l -0.848,2.465 h -4.795 l -0.866,-2.465 h -3.678 l 5.141,13.749"
         style="fill:#231f20;fill-opacity:1;fill-rule:nonzero;stroke:none"
         transform="matrix(1.3333333,0,0,-1.3333333,145.85733,130.45733)" />
      <path
         id="path12"
         d="M 0,0 H 3.678 L 8.453,-8.473 H 8.492 V 0 h 3.37 V -13.749 H 8.184 L 3.409,-5.18 H 3.37 v -8.569 H 0 L 0,0"
         style="fill:#231f20;fill-opacity:1;fill-rule:nonzero;stroke:none"
         transform="matrix(1.3333333,0,0,-1.3333333,159.23067,118.95467)" />
      <path
         id="path13"
         d="M 0,0 H 1.694 C 4.41,0.058 5.488,1.117 5.488,3.871 5.488,6.374 4.14,7.587 1.694,7.587 H 0 Z M -3.582,10.668 H 2.33 c 4.217,0 6.739,-2.561 6.739,-6.816 0,-4.507 -2.561,-6.933 -6.739,-6.933 h -5.912 v 13.749"
         style="fill:#231f20;fill-opacity:1;fill-rule:nonzero;stroke:none"
         transform="matrix(1.3333333,0,0,-1.3333333,183.72133,133.17867)" />
      <path
         id="path14"
         d="M 0,0 H 3.678 L 8.454,-8.473 H 8.492 V 0 h 3.37 V -13.749 H 8.185 L 3.409,-5.18 H 3.37 v -8.569 H 0 L 0,0"
         style="fill:#231f20;fill-opacity:1;fill-rule:nonzero;stroke:none"
         transform="matrix(1.3333333,0,0,-1.3333333,207.74667,118.95467)" />
      <path
         id="path15"
         d="M 0,0 H 10.957 V -2.869 H 3.582 v -2.407 h 6.739 V -8.049 H 3.582 v -2.619 h 7.568 v -3.081 H 0 L 0,0"
         style="fill:#231f20;fill-opacity:1;fill-rule:nonzero;stroke:none"
         transform="matrix(1.3333333,0,0,-1.3333333,227.46133,118.95467)" />
      <path
         id="path16"
         d="m 0,0 h -4.121 l -4.333,13.749 h 3.736 L -2.023,3.524 h 0.04 L 0.712,13.749 H 4.448 L 0,0"
         style="fill:#231f20;fill-opacity:1;fill-rule:nonzero;stroke:none"
         transform="matrix(1.3333333,0,0,-1.3333333,255.03333,137.28667)" />
      <path
         id="path17"
         d="m 197.222,25.393 h 3.582 v 13.749 h -3.582 z"
         style="fill:#231f20;fill-opacity:1;fill-rule:nonzero;stroke:none"
         transform="matrix(1.3333333,0,0,-1.3333333,0,171.144)" />
      <path
         id="path18"
         d="m 0,0 c 0.077,-1.618 1.078,-2.138 2.6,-2.138 1.079,0 2.195,0.385 2.195,1.406 0,1.213 -1.964,1.444 -3.947,2.003 -1.964,0.559 -4.025,1.444 -4.025,3.967 0,3.004 3.023,4.179 5.604,4.179 2.734,0 5.488,-1.329 5.507,-4.43 H 4.353 C 4.41,6.239 3.235,6.644 2.138,6.644 1.367,6.644 0.404,6.374 0.404,5.469 0.404,4.41 2.388,4.217 4.391,3.659 6.374,3.1 8.377,2.176 8.377,-0.308 c 0,-3.486 -2.966,-4.603 -5.989,-4.603 -3.158,0 -5.95,1.387 -5.969,4.911 H 0"
         style="fill:#231f20;fill-opacity:1;fill-rule:nonzero;stroke:none"
         transform="matrix(1.3333333,0,0,-1.3333333,275.41333,131.124)" />
      <path
         id="path19"
         d="M 0,0 H 3.0044 C 4.0825,0 4.6602,0.578 4.6602,1.618 4.6602,2.638 3.8516,3.1 2.8501,3.1 H 0 Z M -3.5815,5.97 H 3.4277 C 5.854,5.97 8.242,4.872 8.242,2.099 8.242,0.617 7.529,-0.789 6.0854,-1.348 V -1.386 C 7.549,-1.733 7.973,-3.37 8.088,-4.679 c 0.038,-0.578 0.096,-2.6 0.578,-3.1 H 5.1226 c -0.3081,0.461 -0.3663,1.81 -0.4043,2.195 -0.0967,1.386 -0.3277,2.811 -2.003,2.811 H 0 V -7.779 H -3.5815 V 5.97"
         style="fill:#231f20;fill-opacity:1;fill-rule:nonzero;stroke:none"
         transform="matrix(1.3333333,0,0,-1.3333333,4.7753333,160.38533)"
         clip-path="url(#clipPath20)" />
      <path
         id="path21"
         d="M 0,0 H 10.957 V -2.87 H 3.582 v -2.407 h 6.739 V -8.049 H 3.582 v -2.619 h 7.567 v -3.081 L 0,-13.749 V 0"
         style="fill:#231f20;fill-opacity:1;fill-rule:nonzero;stroke:none"
         transform="matrix(1.3333333,0,0,-1.3333333,19.174667,152.42533)" />
      <path
         id="path22"
         d="M 0,0 H 1.695 C 4.41,0.057 5.488,1.116 5.488,3.87 5.488,6.374 4.14,7.586 1.695,7.586 H 0 Z M -3.581,10.668 H 2.33 c 4.217,0 6.74,-2.562 6.74,-6.817 0,-4.506 -2.561,-6.932 -6.74,-6.932 h -5.911 v 13.749"
         style="fill:#231f20;fill-opacity:1;fill-rule:nonzero;stroke:none"
         transform="matrix(1.3333333,0,0,-1.3333333,42.176,166.64933)" />
      <path
         id="path23"
         d="m 0,0 c -0.192,1.387 -1.271,2.119 -2.773,2.119 -2.311,0 -3.196,-2.041 -3.196,-4.083 0,-2.041 0.885,-4.082 3.196,-4.082 1.675,0 2.638,0.962 2.773,2.541 h 3.582 c -0.193,-3.542 -2.793,-5.623 -6.278,-5.623 -4.159,0 -6.855,3.178 -6.855,7.164 0,3.986 2.696,7.164 6.855,7.164 C 0.269,5.2 3.486,3.312 3.582,0 H 0"
         style="fill:#231f20;fill-opacity:1;fill-rule:nonzero;stroke:none"
         transform="matrix(1.3333333,0,0,-1.3333333,78.424,158.97333)"
         clip-path="url(#clipPath24)" />
      <path
         id="path25"
         d="M 0,0 H 3.004 C 4.082,0 4.66,0.578 4.66,1.618 4.66,2.638 3.852,3.1 2.85,3.1 H 0 Z m -3.581,5.97 h 7.009 c 2.426,0 4.814,-1.098 4.814,-3.871 0,-1.482 -0.713,-2.888 -2.157,-3.447 v -0.038 c 1.464,-0.347 1.888,-1.984 2.003,-3.293 0.038,-0.578 0.096,-2.6 0.578,-3.1 H 5.123 c -0.309,0.461 -0.367,1.81 -0.405,2.195 -0.096,1.386 -0.327,2.811 -2.003,2.811 H 0 V -7.779 H -3.581 V 5.97"
         style="fill:#231f20;fill-opacity:1;fill-rule:nonzero;stroke:none"
         transform="matrix(1.3333333,0,0,-1.3333333,91.154667,160.38533)" />
      <path
         id="path26"
         d="M 0,0 C 2.311,0 3.197,2.041 3.197,4.082 3.197,6.124 2.311,8.165 0,8.165 -2.311,8.165 -3.196,6.124 -3.196,4.082 -3.196,2.041 -2.311,0 0,0 Z m 0,11.246 c 4.333,0 6.778,-3.178 6.778,-7.164 0,-3.986 -2.445,-7.164 -6.778,-7.164 -4.333,0 -6.778,3.178 -6.778,7.164 0,3.986 2.445,7.164 6.778,7.164"
         style="fill:#231f20;fill-opacity:1;fill-rule:nonzero;stroke:none"
         transform="matrix(1.3333333,0,0,-1.3333333,113.89867,167.03467)"
         clip-path="url(#clipPath27)" />
      <path
         id="path28"
         d="m 0,0 c 0.077,-1.618 1.079,-2.138 2.6,-2.138 1.078,0 2.195,0.386 2.195,1.406 0,1.214 -1.964,1.444 -3.947,2.003 -1.965,0.559 -4.025,1.444 -4.025,3.967 0,3.004 3.023,4.179 5.604,4.179 2.734,0 5.488,-1.329 5.507,-4.43 H 4.352 C 4.41,6.239 3.235,6.644 2.138,6.644 1.368,6.644 0.405,6.374 0.405,5.469 0.405,4.41 2.388,4.217 4.391,3.659 6.374,3.1 8.377,2.176 8.377,-0.308 c 0,-3.485 -2.966,-4.603 -5.989,-4.603 -3.158,0 -5.95,1.387 -5.97,4.911 H 0"
         style="fill:#231f20;fill-opacity:1;fill-rule:nonzero;stroke:none"
         transform="matrix(1.3333333,0,0,-1.3333333,129.89067,164.596)"
         clip-path="url(#clipPath29)" />
      <path
         id="path30"
         d="m 0,0 c 0.077,-1.618 1.078,-2.138 2.599,-2.138 1.079,0 2.196,0.386 2.196,1.406 0,1.214 -1.964,1.444 -3.948,2.003 -1.964,0.559 -4.025,1.444 -4.025,3.967 0,3.004 3.024,4.179 5.604,4.179 2.735,0 5.488,-1.329 5.508,-4.43 H 4.352 C 4.41,6.239 3.235,6.644 2.137,6.644 1.367,6.644 0.405,6.374 0.405,5.469 0.405,4.41 2.388,4.217 4.39,3.659 6.374,3.1 8.377,2.176 8.377,-0.308 c 0,-3.485 -2.966,-4.603 -5.989,-4.603 -3.158,0 -5.951,1.387 -5.97,4.911 H 0"
         style="fill:#231f20;fill-opacity:1;fill-rule:nonzero;stroke:none"
         transform="matrix(1.3333333,0,0,-1.3333333,147.65467,164.596)"
         clip-path="url(#clipPath31)" />
      <path
         id="path32"
         d="m 0,0 c 0.077,-1.618 1.079,-2.138 2.599,-2.138 1.079,0 2.196,0.386 2.196,1.406 0,1.214 -1.964,1.444 -3.947,2.003 -1.965,0.559 -4.025,1.444 -4.025,3.967 0,3.004 3.023,4.179 5.604,4.179 2.734,0 5.487,-1.329 5.507,-4.43 H 4.352 C 4.41,6.239 3.235,6.644 2.138,6.644 1.367,6.644 0.405,6.374 0.405,5.469 0.405,4.41 2.388,4.217 4.391,3.659 6.374,3.1 8.377,2.176 8.377,-0.308 c 0,-3.485 -2.966,-4.603 -5.989,-4.603 -3.158,0 -5.951,1.387 -5.97,4.911 H 0"
         style="fill:#231f20;fill-opacity:1;fill-rule:nonzero;stroke:none"
         transform="matrix(1.3333333,0,0,-1.3333333,174.14533,164.596)"
         clip-path="url(#clipPath33)" />
      <path
         id="path34"
         d="M 0,0 C 2.311,0 3.197,2.041 3.197,4.082 3.197,6.124 2.311,8.165 0,8.165 -2.311,8.165 -3.196,6.124 -3.196,4.082 -3.196,2.041 -2.311,0 0,0 Z m 0,11.246 c 4.333,0 6.778,-3.178 6.778,-7.164 0,-3.986 -2.445,-7.164 -6.778,-7.164 -4.333,0 -6.778,3.178 -6.778,7.164 0,3.986 2.445,7.164 6.778,7.164"
         style="fill:#231f20;fill-opacity:1;fill-rule:nonzero;stroke:none"
         transform="matrix(1.3333333,0,0,-1.3333333,196.53067,167.03467)"
         clip-path="url(#clipPath35)" />
      <path
         id="path36"
         d="m 0,0 c -0.192,1.387 -1.27,2.119 -2.773,2.119 -2.31,0 -3.196,-2.041 -3.196,-4.083 0,-2.041 0.886,-4.082 3.196,-4.082 1.675,0 2.638,0.962 2.773,2.541 H 3.582 C 3.39,-7.047 0.79,-9.128 -2.696,-9.128 c -4.159,0 -6.855,3.178 -6.855,7.164 0,3.986 2.696,7.164 6.855,7.164 C 0.27,5.2 3.485,3.312 3.582,0 H 0"
         style="fill:#231f20;fill-opacity:1;fill-rule:nonzero;stroke:none"
         transform="matrix(1.3333333,0,0,-1.3333333,220.96933,158.97333)"
         clip-path="url(#clipPath37)" />
      <path
         id="path38"
         d="m 171.694,0.29001 h 3.582 v 13.749 h -3.582 z"
         style="fill:#231f20;fill-opacity:1;fill-rule:nonzero;stroke:none"
         transform="matrix(1.3333333,0,0,-1.3333333,0,171.144)" />
      <path
         id="path39"
         d="M 0,0 H 10.957 V -2.87 H 3.582 v -2.407 h 6.739 V -8.049 H 3.582 v -2.619 h 7.567 v -3.081 L 0,-13.749 V 0"
         style="fill:#231f20;fill-opacity:1;fill-rule:nonzero;stroke:none"
         transform="matrix(1.3333333,0,0,-1.3333333,237.652,152.42533)" />
      <path
         id="path40"
         d="M 0,0 H -4.101 V -10.667 H -7.683 V 0 h -4.102 V 3.082 H 0 V 0"
         style="fill:#231f20;fill-opacity:1;fill-rule:nonzero;stroke:none"
         transform="matrix(1.3333333,0,0,-1.3333333,270.41067,156.53467)" />
      <path
         id="path41"
         d="M 0,0 V -5.122 H -3.582 V 0 l -5.007,8.627 h 4.064 L -1.791,3.043 0.943,8.627 H 5.007 L 0,0"
         style="fill:#231f20;fill-opacity:1;fill-rule:nonzero;stroke:none"
         transform="matrix(1.3333333,0,0,-1.3333333,282.47467,163.928)" />
    </g>
  </g>
</svg>
