<?xml version="1.0" encoding="UTF-8" standalone="no"?>
<!-- Created with Inkscape (http://www.inkscape.org/) -->

<svg
   version="1.1"
   id="svg1"
   width="347.33066"
   height="472.15732"
   viewBox="0 0 347.33066 472.15732"
   sodipodi:docname="Honduras Red Cross.svg"
   inkscape:version="1.3.2 (091e20e, 2023-11-25, custom)"
   xmlns:inkscape="http://www.inkscape.org/namespaces/inkscape"
   xmlns:sodipodi="http://sodipodi.sourceforge.net/DTD/sodipodi-0.dtd"
   xmlns="http://www.w3.org/2000/svg"
   xmlns:svg="http://www.w3.org/2000/svg">
  <defs
     id="defs1">
    <clipPath
       clipPathUnits="userSpaceOnUse"
       id="clipPath12">
      <path
         d="M 0.059998,354.118 H 260.498 V 0 H 0.059998 Z"
         transform="translate(-28.03,-0.73503252)"
         id="path12" />
    </clipPath>
  </defs>
  <sodipodi:namedview
     id="namedview1"
     pagecolor="#ffffff"
     bordercolor="#666666"
     borderopacity="1.0"
     inkscape:showpageshadow="2"
     inkscape:pageopacity="0.0"
     inkscape:pagecheckerboard="0"
     inkscape:deskcolor="#d1d1d1"
     inkscape:export-bgcolor="#ffffffff"
     inkscape:zoom="1.7388272"
     inkscape:cx="173.39273"
     inkscape:cy="236.07866"
     inkscape:window-width="1920"
     inkscape:window-height="1017"
     inkscape:window-x="-8"
     inkscape:window-y="-8"
     inkscape:window-maximized="1"
     inkscape:current-layer="g1">
    <inkscape:page
       x="0"
       y="0"
       inkscape:label="1"
       id="page1"
       width="347.33066"
       height="472.15732"
       margin="0"
       bleed="0"
       inkscape:export-filename="Honduras Red Cross.png"
       inkscape:export-xdpi="300"
       inkscape:export-ydpi="300" />
  </sodipodi:namedview>
  <g
     id="g1"
     inkscape:groupmode="layer"
     inkscape:label="1">
    <g
       id="group-MC1">
      <path
         id="path2"
         d="m 0,0 h -70.054 v 70.054 h -58.073 V 0 h -70.054 v -58.073 h 70.054 v -70.054 h 58.073 v 70.054 H 0 V 0"
         style="fill:#ed1c24;fill-opacity:1;fill-rule:nonzero;stroke:none"
         transform="matrix(1.3333333,0,0,-1.3333333,305.78533,93.405333)" />
      <path
         id="path3"
         d="m 0,0 c -2.324,0 -4.469,0.344 -6.435,1.03 -1.967,0.685 -3.657,1.708 -5.071,3.065 -1.414,1.357 -2.509,3.052 -3.286,5.081 -0.777,2.029 -1.165,4.374 -1.165,7.033 0,2.479 0.37,4.725 1.113,6.741 0.741,2.015 1.819,3.744 3.233,5.185 1.357,1.387 3.041,2.457 5.05,3.213 2.008,0.756 4.202,1.134 6.582,1.134 1.315,0 2.502,-0.074 3.558,-0.221 1.058,-0.146 2.034,-0.339 2.93,-0.577 0.937,-0.266 1.788,-0.564 2.551,-0.893 0.763,-0.329 1.431,-0.633 2.005,-0.913 v -7.579 h -0.924 c -0.392,0.333 -0.885,0.731 -1.48,1.191 -0.595,0.459 -1.27,0.912 -2.026,1.357 -0.77,0.446 -1.603,0.822 -2.499,1.128 -0.896,0.307 -1.855,0.46 -2.876,0.46 -1.134,0 -2.212,-0.178 -3.234,-0.534 -1.022,-0.357 -1.967,-0.947 -2.834,-1.771 -0.826,-0.797 -1.494,-1.851 -2.005,-3.164 -0.511,-1.313 -0.767,-2.905 -0.767,-4.777 0,-1.956 0.277,-3.59 0.829,-4.904 0.554,-1.312 1.25,-2.346 2.09,-3.1 0.853,-0.769 1.805,-1.317 2.855,-1.645 1.05,-0.329 2.086,-0.493 3.108,-0.493 0.979,0 1.949,0.147 2.907,0.44 0.959,0.292 1.845,0.688 2.657,1.19 0.685,0.403 1.322,0.835 1.91,1.295 0.588,0.46 1.071,0.856 1.449,1.19 h 0.84 V 2.688 C 10.281,2.338 9.532,2.009 8.818,1.701 8.104,1.394 7.355,1.127 6.572,0.904 5.55,0.61 4.591,0.386 3.695,0.232 2.799,0.077 1.567,0 0,0"
         style="fill:#231f20;fill-opacity:1;fill-rule:nonzero;stroke:none"
         transform="matrix(1.3333333,0,0,-1.3333333,41.152,399.99067)" />
      <path
         id="path4"
         d="m 0,0 h -0.67 c -0.322,0.112 -0.838,0.196 -1.551,0.252 -0.712,0.055 -1.306,0.084 -1.78,0.084 -1.076,0 -2.025,-0.071 -2.85,-0.21 -0.824,-0.14 -1.711,-0.378 -2.66,-0.714 v -15.789 h -7.58 V 7.201 h 7.58 V 3.737 c 1.662,1.428 3.107,2.376 4.336,2.845 1.229,0.468 2.361,0.703 3.394,0.703 0.265,0 0.566,-0.007 0.901,-0.021 C -0.544,7.251 -0.251,7.229 0,7.201 V 0"
         style="fill:#231f20;fill-opacity:1;fill-rule:nonzero;stroke:none"
         transform="matrix(1.3333333,0,0,-1.3333333,86.314667,377.34133)" />
      <path
         id="path5"
         d="m 0,0 h -7.58 v 2.603 c -1.398,-1.063 -2.677,-1.872 -3.837,-2.425 -1.16,-0.552 -2.544,-0.829 -4.152,-0.829 -2.6,0 -4.603,0.748 -6.008,2.246 -1.404,1.498 -2.107,3.709 -2.107,6.635 v 15.348 h 7.58 V 11.883 c 0,-1.189 0.039,-2.18 0.115,-2.97 0.077,-0.791 0.256,-1.446 0.536,-1.964 0.266,-0.518 0.668,-0.896 1.207,-1.133 0.539,-0.238 1.291,-0.357 2.257,-0.357 0.644,0 1.358,0.119 2.142,0.357 0.784,0.237 1.539,0.588 2.267,1.049 V 23.578 H 0 V 0"
         style="fill:#231f20;fill-opacity:1;fill-rule:nonzero;stroke:none"
         transform="matrix(1.3333333,0,0,-1.3333333,123.63867,399.17733)" />
      <path
         id="path6"
         d="m 0,0 h -22.151 v 4.849 l 12.413,13.207 h -11.909 v 5.522 H -0.231 V 18.812 L -12.453,5.627 H 0 V 0"
         style="fill:#231f20;fill-opacity:1;fill-rule:nonzero;stroke:none"
         transform="matrix(1.3333333,0,0,-1.3333333,160.57067,399.17733)" />
      <path
         id="path7"
         d="m 0,0 c 0,0.783 -0.161,1.455 -0.483,2.016 -0.322,0.559 -0.875,1 -1.659,1.322 -0.546,0.224 -1.182,0.36 -1.91,0.409 C -4.78,3.796 -5.627,3.82 -6.593,3.82 h -2.918 v -8.419 h 2.478 c 1.287,0 2.365,0.064 3.233,0.189 0.867,0.127 1.596,0.413 2.184,0.861 0.559,0.434 0.968,0.913 1.228,1.439 C -0.129,-1.586 0,-0.883 0,0 Z M 12.577,-21.689 H 2.729 l -8.505,11.464 h -3.735 v -11.464 h -8.02 V 9.574 H -4.01 c 1.848,0 3.436,-0.105 4.766,-0.315 C 2.086,9.049 3.331,8.594 4.493,7.895 5.669,7.194 6.603,6.288 7.297,5.175 7.989,4.063 8.336,2.666 8.336,0.986 c 0,-2.309 -0.535,-4.192 -1.607,-5.648 -1.07,-1.455 -2.6,-2.666 -4.588,-3.632 l 10.436,-13.395"
         style="fill:#231f20;fill-opacity:1;fill-rule:nonzero;stroke:none"
         transform="matrix(1.3333333,0,0,-1.3333333,211.75867,370.25867)" />
      <path
         id="path8"
         d="m 0,0 c 0.49,0.601 0.857,1.326 1.103,2.172 0.245,0.847 0.367,2.02 0.367,3.517 0,1.387 -0.126,2.548 -0.378,3.486 -0.252,0.938 -0.602,1.687 -1.05,2.246 -0.448,0.575 -0.986,0.98 -1.616,1.218 -0.63,0.238 -1.31,0.357 -2.037,0.357 -0.728,0 -1.375,-0.098 -1.942,-0.293 C -6.12,12.506 -6.663,12.115 -7.181,11.527 -7.643,10.98 -8.01,10.232 -8.282,9.28 -8.556,8.328 -8.692,7.131 -8.692,5.689 c 0,-1.287 0.119,-2.403 0.357,-3.349 0.237,-0.944 0.588,-1.704 1.05,-2.278 0.447,-0.545 0.983,-0.944 1.606,-1.196 0.622,-0.252 1.333,-0.378 2.131,-0.378 0.686,0 1.34,0.115 1.963,0.347 C -0.962,-0.935 -0.434,-0.546 0,0 Z m 9.302,5.732 c 0,-3.878 -1.131,-6.933 -3.391,-9.165 -2.261,-2.233 -5.435,-3.349 -9.522,-3.349 -4.087,0 -7.261,1.116 -9.522,3.349 -2.261,2.232 -3.39,5.287 -3.39,9.165 0,3.904 1.136,6.971 3.412,9.195 2.274,2.227 5.44,3.339 9.5,3.339 4.115,0 7.297,-1.12 9.543,-3.359 2.247,-2.239 3.37,-5.298 3.37,-9.175"
         style="fill:#231f20;fill-opacity:1;fill-rule:nonzero;stroke:none"
         transform="matrix(1.3333333,0,0,-1.3333333,252.69333,391.11467)" />
      <path
         id="path9"
         d="M 0,0 H -8.063 V 5.733 H 0 Z m 0,-27.357 c 0,-2.659 -0.82,-4.735 -2.457,-6.226 -1.638,-1.49 -3.744,-2.235 -6.32,-2.235 -1.372,0 -2.621,0.059 -3.748,0.178 -1.127,0.119 -1.949,0.242 -2.466,0.367 v 5.418 h 0.585 c 0.419,-0.141 0.943,-0.26 1.571,-0.358 0.628,-0.097 1.123,-0.146 1.486,-0.146 1.452,0 2.442,0.433 2.974,1.301 0.529,0.868 0.795,2.295 0.795,4.283 v 16.293 h -4.472 v 5.123 H 0 v -23.998"
         style="fill:#231f20;fill-opacity:1;fill-rule:nonzero;stroke:none"
         transform="matrix(1.3333333,0,0,-1.3333333,286.21067,363.26133)" />
      <path
         id="path10"
         d="M 0,0 V 4.896 C -1.022,4.812 -2.128,4.698 -3.317,4.551 -4.508,4.405 -5.41,4.234 -6.026,4.039 -6.782,3.801 -7.359,3.456 -7.758,3.003 -8.157,2.549 -8.356,1.953 -8.356,1.214 c 0,-0.49 0.042,-0.887 0.126,-1.194 0.084,-0.307 0.294,-0.6 0.629,-0.879 0.322,-0.279 0.707,-0.485 1.155,-0.617 0.448,-0.133 1.147,-0.199 2.099,-0.199 0.756,0 1.523,0.153 2.3,0.46 C -1.27,-0.908 -0.588,-0.503 0,0 Z m 0,-3.67 c -0.406,-0.308 -0.91,-0.679 -1.512,-1.113 -0.602,-0.433 -1.169,-0.776 -1.701,-1.028 -0.742,-0.336 -1.512,-0.585 -2.309,-0.746 -0.798,-0.16 -1.673,-0.241 -2.624,-0.241 -2.241,0 -4.116,0.692 -5.627,2.079 -1.512,1.385 -2.268,3.156 -2.268,5.311 0,1.722 0.385,3.128 1.154,4.22 0.77,1.092 1.862,1.953 3.276,2.583 1.399,0.63 3.135,1.078 5.207,1.344 2.071,0.266 4.22,0.462 6.446,0.588 v 0.126 c 0,1.302 -0.532,2.201 -1.596,2.698 -1.064,0.496 -2.631,0.745 -4.703,0.745 -1.246,0 -2.576,-0.221 -3.989,-0.661 -1.414,-0.441 -2.429,-0.78 -3.045,-1.019 h -0.692 v 5.69 c 0.798,0.211 2.095,0.459 3.894,0.746 1.799,0.286 3.601,0.43 5.406,0.43 4.297,0 7.402,-0.661 9.313,-1.984 C 6.54,14.775 7.495,12.7 7.495,9.873 V -6.168 H 0 v 2.498"
         style="fill:#231f20;fill-opacity:1;fill-rule:nonzero;stroke:none"
         transform="matrix(1.3333333,0,0,-1.3333333,315.024,390.95333)" />
      <path
         id="path11"
         d="M 0,0 H -8.062 V 13.773 H -19.967 V 0 h -8.063 v 31.263 h 8.063 V 19.82 H -8.062 V 31.263 H 0 V 0"
         style="fill:#231f20;fill-opacity:1;fill-rule:nonzero;stroke:none"
         transform="matrix(1.3333333,0,0,-1.3333333,37.373333,471.17729)"
         clip-path="url(#clipPath12)" />
      <path
         id="path13"
         d="m 0,0 c 0.49,0.601 0.857,1.326 1.102,2.172 0.245,0.847 0.368,2.02 0.368,3.517 0,1.387 -0.126,2.548 -0.378,3.486 -0.252,0.938 -0.602,1.687 -1.05,2.246 -0.448,0.575 -0.987,0.98 -1.617,1.218 -0.63,0.238 -1.309,0.357 -2.036,0.357 -0.728,0 -1.376,-0.098 -1.942,-0.293 -0.568,-0.197 -1.11,-0.588 -1.628,-1.176 C -7.643,10.98 -8.01,10.232 -8.283,9.28 -8.556,8.328 -8.692,7.131 -8.692,5.689 c 0,-1.287 0.118,-2.403 0.357,-3.349 0.237,-0.944 0.587,-1.704 1.049,-2.278 0.448,-0.545 0.984,-0.944 1.607,-1.196 0.622,-0.252 1.333,-0.378 2.131,-0.378 0.685,0 1.34,0.115 1.963,0.347 C -0.962,-0.935 -0.434,-0.546 0,0 Z m 9.301,5.732 c 0,-3.878 -1.13,-6.933 -3.39,-9.165 -2.261,-2.233 -5.435,-3.349 -9.522,-3.349 -4.088,0 -7.262,1.116 -9.522,3.349 -2.261,2.232 -3.391,5.287 -3.391,9.165 0,3.904 1.137,6.971 3.412,9.195 2.275,2.227 5.441,3.339 9.501,3.339 4.115,0 7.296,-1.12 9.542,-3.359 2.247,-2.239 3.37,-5.298 3.37,-9.175"
         style="fill:#231f20;fill-opacity:1;fill-rule:nonzero;stroke:none"
         transform="matrix(1.3333333,0,0,-1.3333333,67.473333,463.11467)" />
      <path
         id="path14"
         d="m 0,0 h -7.58 v 11.695 c 0,0.951 -0.049,1.899 -0.147,2.845 -0.098,0.944 -0.266,1.64 -0.503,2.089 -0.281,0.517 -0.69,0.895 -1.229,1.133 -0.539,0.239 -1.291,0.357 -2.257,0.357 -0.686,0 -1.382,-0.112 -2.089,-0.336 -0.707,-0.224 -1.473,-0.58 -2.299,-1.07 V 0 h -7.58 v 23.578 h 7.58 v -2.604 c 1.342,1.051 2.631,1.856 3.869,2.415 1.236,0.56 2.61,0.84 4.12,0.84 2.544,0 4.532,-0.742 5.965,-2.225 C -0.716,20.52 0,18.301 0,15.347 V 0"
         style="fill:#231f20;fill-opacity:1;fill-rule:nonzero;stroke:none"
         transform="matrix(1.3333333,0,0,-1.3333333,118.964,471.17729)" />
      <path
         id="path15"
         d="m 0,0 v 11.586 c -0.53,0.224 -1.089,0.386 -1.675,0.484 -0.587,0.098 -1.124,0.147 -1.614,0.147 -1.983,0 -3.47,-0.62 -4.462,-1.861 -0.991,-1.241 -1.487,-2.962 -1.487,-5.163 0,-2.312 0.398,-3.991 1.194,-5.036 0.796,-1.045 2.074,-1.566 3.833,-1.566 0.685,0 1.411,0.13 2.179,0.388 0.768,0.26 1.446,0.6 2.032,1.021 z M 7.58,-6.49 H 0 v 2.457 c -1.3,-1.065 -2.516,-1.848 -3.649,-2.352 -1.132,-0.504 -2.439,-0.756 -3.921,-0.756 -2.866,0 -5.159,1.106 -6.878,3.317 -1.72,2.212 -2.58,5.193 -2.58,8.945 0,2.001 0.291,3.775 0.871,5.322 0.58,1.546 1.373,2.873 2.38,3.979 0.95,1.05 2.104,1.865 3.46,2.446 1.356,0.58 2.712,0.871 4.068,0.871 1.412,0 2.569,-0.15 3.471,-0.451 C -1.877,16.986 -0.95,16.605 0,16.143 V 26.18 H 7.58 V -6.49"
         style="fill:#231f20;fill-opacity:1;fill-rule:nonzero;stroke:none"
         transform="matrix(1.3333333,0,0,-1.3333333,148.98,462.524)" />
      <path
         id="path16"
         d="M 0,0 H -7.581 V 2.603 C -8.979,1.54 -10.257,0.731 -11.417,0.17801 -12.578,-0.37401 -13.961,-0.651 -15.57,-0.651 c -2.6,0 -4.603,0.74797 -6.008,2.246 -1.404,1.498 -2.107,3.709 -2.107,6.635 v 15.348 h 7.58 V 11.883 c 0,-1.189 0.039,-2.18 0.115,-2.97 0.077,-0.791 0.256,-1.446 0.536,-1.964 0.266,-0.518 0.668,-0.896 1.207,-1.133 0.54,-0.238 1.291,-0.357 2.257,-0.357 0.644,0 1.358,0.119 2.142,0.357 0.784,0.237 1.54,0.588 2.267,1.049 V 23.578 H 0 L 0,0"
         style="fill:#231f20;fill-opacity:1;fill-rule:nonzero;stroke:none"
         transform="matrix(1.3333333,0,0,-1.3333333,200.21867,471.17729)" />
      <path
         id="path17"
         d="m 0,0 h -0.67 c -0.321,0.112 -0.838,0.196 -1.551,0.252 -0.712,0.055 -1.305,0.084 -1.78,0.084 -1.075,0 -2.025,-0.071 -2.85,-0.21 -0.824,-0.14 -1.711,-0.378 -2.66,-0.714 v -15.789 h -7.58 V 7.201 h 7.58 V 3.737 c 1.662,1.428 3.108,2.376 4.336,2.845 1.23,0.468 2.36,0.703 3.395,0.703 0.264,0 0.565,-0.007 0.9,-0.021 C -0.544,7.251 -0.251,7.229 0,7.201 V 0"
         style="fill:#231f20;fill-opacity:1;fill-rule:nonzero;stroke:none"
         transform="matrix(1.3333333,0,0,-1.3333333,232.81067,449.34133)" />
      <path
         id="path18"
         d="M 0,0 C -0.042,1.582 -0.434,2.771 -1.176,3.569 -1.918,4.367 -3.072,4.767 -4.64,4.767 -6.096,4.767 -7.293,4.388 -8.23,3.632 -9.168,2.876 -9.693,1.666 -9.805,0 Z M 7.517,-4.431 H -9.784 c 0.112,-1.847 0.815,-3.26 2.11,-4.24 1.295,-0.98 3.202,-1.471 5.722,-1.471 1.596,0 3.141,0.287 4.64,0.862 1.498,0.574 2.68,1.189 3.548,1.847 h 0.84 v -6.068 c -1.708,-0.686 -3.317,-1.183 -4.829,-1.49 -1.512,-0.308 -3.184,-0.462 -5.018,-0.462 -4.732,0 -8.357,1.063 -10.876,3.191 -2.52,2.128 -3.78,5.158 -3.78,9.091 0,3.892 1.194,6.975 3.58,9.249 2.387,2.274 5.659,3.412 9.816,3.412 3.835,0 6.719,-0.97 8.65,-2.908 1.932,-1.939 2.898,-4.728 2.898,-8.366 v -2.647"
         style="fill:#231f20;fill-opacity:1;fill-rule:nonzero;stroke:none"
         transform="matrix(1.3333333,0,0,-1.3333333,259.748,451.41333)" />
      <path
         id="path19"
         d="M 0,0 C -0.141,-2.365 -0.718,-4.119 -1.732,-5.259 -2.747,-6.4 -4.165,-6.97 -5.984,-6.97 c -0.659,0 -1.285,0.129 -1.879,0.388 -0.595,0.259 -1.138,0.535 -1.627,0.829 -0.435,0.266 -0.914,0.536 -1.439,0.809 -0.525,0.272 -0.963,0.409 -1.312,0.409 -0.686,0 -1.145,-0.223 -1.375,-0.672 -0.232,-0.448 -0.367,-1.078 -0.409,-1.889 h -4.599 c 0.084,2.113 0.669,3.8 1.753,5.06 1.085,1.26 2.488,1.889 4.21,1.889 0.672,0 1.308,-0.122 1.911,-0.367 0.602,-0.245 1.154,-0.514 1.658,-0.809 0.518,-0.279 1.001,-0.542 1.449,-0.787 0.448,-0.245 0.861,-0.367 1.239,-0.367 0.672,0 1.134,0.223 1.385,0.672 0.252,0.448 0.392,1.049 0.42,1.805 z m 2.414,-33.971 h -7.579 v 11.695 c 0,0.951 -0.05,1.899 -0.147,2.845 -0.098,0.944 -0.266,1.64 -0.504,2.089 -0.281,0.517 -0.69,0.895 -1.229,1.133 -0.538,0.239 -1.291,0.357 -2.257,0.357 -0.685,0 -1.382,-0.112 -2.089,-0.336 -0.707,-0.224 -1.473,-0.58 -2.298,-1.07 v -16.713 h -7.581 v 23.578 h 7.581 v -2.604 c 1.341,1.051 2.63,1.856 3.868,2.415 1.237,0.56 2.611,0.84 4.12,0.84 2.545,0 4.533,-0.742 5.966,-2.225 1.433,-1.484 2.149,-3.703 2.149,-6.657 v -15.347"
         style="fill:#231f20;fill-opacity:1;fill-rule:nonzero;stroke:none"
         transform="matrix(1.3333333,0,0,-1.3333333,305.52667,425.88267)" />
      <path
         id="path20"
         d="M 0,0 V 4.896 C -1.021,4.812 -2.127,4.698 -3.317,4.551 -4.506,4.405 -5.41,4.234 -6.025,4.039 -6.781,3.801 -7.359,3.456 -7.757,3.003 c -0.4,-0.454 -0.599,-1.05 -0.599,-1.789 0,-0.49 0.042,-0.887 0.126,-1.194 0.084,-0.307 0.294,-0.6 0.63,-0.879 0.322,-0.279 0.707,-0.485 1.155,-0.617 0.447,-0.133 1.148,-0.199 2.1,-0.199 0.756,0 1.521,0.153 2.299,0.46 C -1.27,-0.908 -0.587,-0.503 0,0 Z m 0,-3.67 c -0.406,-0.308 -0.91,-0.679 -1.511,-1.113 -0.602,-0.433 -1.169,-0.776 -1.7,-1.028 -0.743,-0.336 -1.512,-0.585 -2.31,-0.746 -0.798,-0.16 -1.673,-0.241 -2.625,-0.241 -2.239,0 -4.115,0.692 -5.627,2.079 -1.512,1.385 -2.268,3.156 -2.268,5.311 0,1.722 0.385,3.128 1.156,4.22 0.769,1.092 1.861,1.953 3.275,2.583 1.4,0.63 3.135,1.078 5.207,1.344 2.071,0.266 4.22,0.462 6.445,0.588 v 0.126 c 0,1.302 -0.532,2.201 -1.595,2.698 -1.064,0.496 -2.632,0.745 -4.703,0.745 -1.246,0 -2.576,-0.221 -3.99,-0.661 -1.414,-0.441 -2.428,-0.78 -3.044,-1.019 h -0.693 v 5.69 c 0.798,0.211 2.097,0.459 3.895,0.746 1.798,0.286 3.601,0.43 5.407,0.43 4.297,0 7.4,-0.661 9.311,-1.984 C 6.541,14.775 7.497,12.7 7.497,9.873 V -6.168 H 0 v 2.498"
         style="fill:#231f20;fill-opacity:1;fill-rule:nonzero;stroke:none"
         transform="matrix(1.3333333,0,0,-1.3333333,337.33467,462.95333)" />
    </g>
  </g>
</svg>
