<?xml version="1.0" encoding="UTF-8" standalone="no"?>
<svg
   xmlns:dc="http://purl.org/dc/elements/1.1/"
   xmlns:cc="http://creativecommons.org/ns#"
   xmlns:rdf="http://www.w3.org/1999/02/22-rdf-syntax-ns#"
   xmlns:svg="http://www.w3.org/2000/svg"
   xmlns="http://www.w3.org/2000/svg"
   viewBox="0 0 359.82666 359.82666"
   height="359.82666"
   width="359.82666"
   xml:space="preserve"
   id="svg2"
   version="1.1"><metadata
     id="metadata8"><rdf:RDF><cc:Work
         rdf:about=""><dc:format>image/svg+xml</dc:format><dc:type
           rdf:resource="http://purl.org/dc/dcmitype/StillImage" /><dc:title></dc:title></cc:Work></rdf:RDF></metadata><defs
     id="defs6" /><g
     transform="matrix(1.3333333,0,0,-1.3333333,0,359.82667)"
     id="g10"><g
       transform="scale(0.1)"
       id="g12"><path
         id="path14"
         style="fill:none;stroke:#231f20;stroke-width:10;stroke-linecap:butt;stroke-linejoin:miter;stroke-miterlimit:4;stroke-dasharray:none;stroke-opacity:1"
         d="m 2693.69,1349.34 c 0,742.46 -601.89,1344.33 -1344.35,1344.33 C 606.871,2693.67 5,2091.8 5,1349.34 5,606.898 606.871,5 1349.34,5 2091.8,5 2693.69,606.898 2693.69,1349.34 Z" /><path
         id="path16"
         style="fill:none;stroke:#231f20;stroke-width:10;stroke-linecap:butt;stroke-linejoin:miter;stroke-miterlimit:4;stroke-dasharray:none;stroke-opacity:1"
         d="m 2379.06,1349.34 c 0,568.7 -461.02,1029.7 -1029.72,1029.7 -568.699,0 -1029.707,-461 -1029.707,-1029.7 0,-568.68 461.008,-1029.711 1029.707,-1029.711 568.7,0 1029.72,461.031 1029.72,1029.711 z" /><path
         id="path18"
         style="fill:#ee2628;fill-opacity:1;fill-rule:nonzero;stroke:none"
         d="m 1628.22,650.949 c -383.07,0 -693.618,310.551 -693.618,693.621 0,383.07 310.548,693.62 693.618,693.62 269.46,0 502.84,-153.74 617.7,-378.2 -128.65,371.35 -481.46,638.01 -896.58,638.01 -523.938,0 -948.66,-424.73 -948.66,-948.66 0,-523.93 424.722,-948.66 948.66,-948.66 403.55,0 748.19,251.992 885.3,607.18 C 2116.2,795.02 1889.08,650.949 1628.22,650.949" /><path
         id="path20"
         style="fill:#231f20;fill-opacity:1;fill-rule:nonzero;stroke:none"
         d="m 465.461,2083.43 3.789,-12.4 -15.422,-3.92 4.883,-15.18 15.738,3.04 -4.261,13.72 16.027,3.36 -5.031,15.32 z m -39.402,103.93 c -2.395,-0.47 -4.336,-1.65 -5.961,-3.43 -5.473,-5.95 -7.559,-17.38 -6.41,-34.18 1.152,-16.79 4.617,-27.7 10.253,-32.88 4.418,-4.07 9.539,-4.92 15.211,-2.12 3.582,1.76 8.032,5.68 13.504,11.63 0.446,0.48 1.035,1.12 1.778,1.93 0.738,0.8 1.328,1.44 1.773,1.93 4.293,4.66 6.973,6.35 8.188,5.23 1.675,-1.54 0.402,-6.6 -3.829,-15.48 -4.812,-9.82 -11.289,-19.3 -19.421,-28.15 -7.989,-8.68 -16.172,-14.21 -24.563,-16.3 -8.23,-2.22 -15.164,-0.89 -20.801,4.29 -4.418,4.07 -7.992,12.11 -11.031,24.4 l -2.992,-0.81 c 2.711,-10.51 4.769,-17.75 6.332,-21.85 3.437,-9.11 7.902,-16.18 13.543,-21.37 6.394,-5.88 13.488,-7.96 21.43,-6.36 7.796,1.45 15.687,6.36 23.23,14.56 10.801,11.74 19.016,25.56 24.344,41.44 6.047,17.89 5.261,30.49 -2.664,37.77 -3.196,2.95 -7.703,2.64 -13.516,-0.63 -5.207,-3.52 -10.418,-7.03 -15.477,-10.39 -5.66,-3.41 -10.167,-3.72 -13.363,-0.78 -3.199,2.95 -3.875,7.72 -2.019,14.63 1.558,6.27 4.043,11.12 7.449,14.82 1.922,2.09 5.941,4.63 11.762,7.58 -6.129,7.72 -9.797,11.99 -11.016,13.11 -1.523,1.4 -3.336,1.87 -5.734,1.41" /><path
         id="path22"
         style="fill:#231f20;fill-opacity:1;fill-rule:nonzero;stroke:none"
         d="m 488.945,2215.16 9.653,-17.27 c 0.097,-0.75 0.781,-1.82 1.765,-2.88 1.117,-1.22 5.731,-2.05 13.696,-2.31 8.105,-0.42 13.558,-2.15 16.218,-5.05 5.469,-5.94 7.176,-16.18 4.676,-30.58 -2.297,-13.64 -6.426,-23.35 -12.539,-28.97 -2.09,-1.92 -4.621,-3.68 -7.453,-5.45 l 0.836,-3.17 c 13.808,3.71 22.644,7.33 26.504,10.88 7.558,6.96 10.508,16.99 8.711,30.24 -1.84,12.65 -7.239,24 -16.203,33.75 -10.93,11.88 -26.27,18.87 -45.864,20.81" /><path
         id="path24"
         style="fill:#231f20;fill-opacity:1;fill-rule:nonzero;stroke:none"
         d="m 577.719,2252.61 c -5.246,-4.28 -9.133,-5.04 -11.36,-2.31 -1.964,2.4 -1.523,4.63 1.184,6.84 1.867,1.52 4.082,2.26 6.613,1.91 0.903,-0.06 3.696,-0.72 8.813,-2.16 z m 128.379,100.58 c -2.235,3.72 -7.957,11.15 -17.285,22.46 -9.211,11.12 -14.516,17.84 -15.79,19.98 -2.128,3.54 -2.871,6.48 -1.929,8.73 0.754,2.14 1.617,4.11 2.554,6.36 -5.898,1.77 -12.043,4.37 -18.71,7.85 -1.778,-4.69 -2.672,-7.87 -2.754,-9.86 -0.469,-3.9 0.828,-8.19 3.492,-12.62 0.531,-0.89 7.035,-8.34 19.316,-22.45 12.278,-14.12 19.524,-22.81 21.551,-26.19 2.445,-4.08 3.48,-7.08 3.102,-9 -0.567,-2.03 -2.954,-4.42 -7.454,-7.11 l -4.441,-2.67 c 0,0 -11.816,-4.33 -13.004,-4.12 -1.254,-0.09 -5.074,2.09 -11.703,6.13 l -1.996,-1.34 c 1.137,-4.46 1.539,-7.43 1.453,-8.48 -0.078,-3.04 -1.754,-5.65 -4.844,-7.71 -3.633,-2.42 -6.801,-2.79 -9.316,-0.99 -0.707,0.27 -2.449,2.1 -5.113,5.3 l -2.344,-0.82 c 0.586,-7.57 -0.457,-13.49 -3.059,-17.46 -1.922,-3.02 -13.469,-12.1 -13.469,-12.1 l -1.355,-1 c -4.059,-2.22 -6.539,-3.28 -7.859,-2.97 -0.715,0.24 -2.969,2.19 -6.922,5.69 l -1,-0.48 c -0.266,-6.62 -1.176,-10.9 -2.848,-13.43 -1.496,-2.25 -5.336,-6 -11.426,-10.87 l -5.234,-3.26 c -7.031,6.55 -11.637,10.81 -13.844,12.49 -6.625,5.01 -11.101,6.7 -13.64,4.63 -3.219,-2.63 -3.899,-9.06 -1.571,-19.18 2.332,-10.11 5.957,-18.37 11.324,-24.95 2.618,-3.21 5.934,-4.51 10.079,-4.07 3.55,0.49 7.086,2.04 10.64,4.94 l 5.25,4.28 c 1.684,-12.78 2.039,-22.91 1.25,-30.23 -1.867,-13.28 -7.457,-23.71 -17.109,-31.58 0.168,0.14 -3.274,-1.86 -10.496,-6.15 l 0.386,-2.89 c 7.399,0.96 12.223,1.95 14.743,2.67 6.269,1.64 11.461,4.27 16.031,8 9.144,7.46 12.504,18.2 10.07,32.25 -1.301,7.48 -4.965,17.85 -11.152,30.97 l 3.883,3.17 c 0,0 9.769,8.1 10.281,9.24 0.512,1.15 0.477,5.25 0.004,12.87 5.234,-2.31 8.66,-3.63 10.629,-3.73 3.34,-0.1 7.293,1.53 11.687,4.78 l 3.172,2.69 c 4.129,3.39 6.719,5.8 7.445,7.31 0.45,1.3 0.926,6.1 1.317,14.57 5.371,-2.14 8.203,-3.24 8.914,-3.52 2.668,-0.46 5.605,0.26 8.332,2.08 3.453,2.3 5.328,5.8 5.691,10.76 0.125,2.57 -0.125,6.89 -1.226,12.87 7.797,-5 12.398,-7.85 14.039,-8.05 8.293,-1.04 14.121,1.99 14.121,1.99 l 3.742,2.24 c 7.313,4.38 11.149,10.31 11.598,18.06 0.48,7.28 -1.988,15.21 -7.203,23.92" /><path
         id="path26"
         style="fill:#231f20;fill-opacity:1;fill-rule:nonzero;stroke:none"
         d="m 725.934,2403.29 c -13.454,20.04 -21.45,32.19 -23.985,36.47 -2.179,-7.51 -3.027,-11.48 -3.121,-11.76 -0.648,-4.34 -0.047,-8.25 1.906,-11.9 2.055,-3.83 9.653,-14.32 22.797,-31.47 12.953,-17.24 21.723,-29.93 26.223,-38.32 l 3.078,1.65 c -1.121,9.96 -3.59,18.27 -7.398,25.39 -0.586,1.1 -7.118,10.98 -19.5,29.94" /><path
         id="path28"
         style="fill:#231f20;fill-opacity:1;fill-rule:nonzero;stroke:none"
         d="m 957.328,2420.52 -3.824,-14.14 14.84,-3.8 4.519,14.15 z m -0.234,43.75 c -2.149,6.49 -7.567,14.51 -16.387,24.45 l -2.504,-16.75 c -0.543,-3.23 -0.445,-5.6 0.141,-7.37 0.39,-1.17 2.285,-2.73 5.894,-4.59 3.399,-1.92 5.231,-3.28 5.559,-4.26 1.043,-3.14 -3.828,-6.5 -14.617,-10.08 l -0.403,-0.13 c 0,0 -36.843,-12.36 -37.707,-12.83 l -2.656,-1.5 c -7.809,-4.63 -13.98,-10.11 -18.141,-16.35 -6.257,-9.23 -7.402,-18.73 -3.066,-28.81 2.371,-5.52 6.816,-8.11 13.375,-7.32 3.418,0.34 9.082,2.11 16.594,5.11 5.82,2.5 8.957,2.95 9.531,1.62 0.898,-2.09 -2.418,-6 -10.23,-11.61 -7.813,-5.62 -16.836,-10.62 -26.875,-14.94 -10.836,-4.66 -20.45,-6.09 -28.832,-4.29 -8.391,1.8 -14.297,6.69 -17.735,14.68 -2.129,4.94 -3.183,12.37 -2.969,22.38 l -3.546,0.5 c -0.157,-18.99 1.671,-32.63 5.269,-41 4.168,-9.69 11.336,-15.85 21.215,-18.36 9.238,-2.11 19.414,-0.89 30.453,3.86 3.613,1.55 7.262,3.58 10.633,5.7 l -3.317,-9.99 -14.296,0.61 -4.387,-12.48 13.898,-0.78 3.926,9.12 14.09,-0.69 4.742,13.31 -14.34,1.26 c 7.34,4.51 14.301,10.44 20.614,17.89 10.148,11.8 13.625,21.41 10.437,28.82 -2.129,4.95 -6.457,7.81 -12.902,8.43 -3.543,0.5 -9.18,0.33 -16.543,-0.81 -5.789,-0.91 -8.969,-0.71 -9.379,0.24 -1.309,3.05 3.457,6.9 14.09,11.47 l 5.074,1.88 34.34,11.99 c 9.89,3.5 16.422,7.41 19.59,11.73 5.347,6.79 5.734,16.73 1.367,29.89" /><path
         id="path30"
         style="fill:#231f20;fill-opacity:1;fill-rule:nonzero;stroke:none"
         d="m 1129.55,2506.8 c -0.74,4.29 -3.39,13.28 -8,27.19 -4.58,13.7 -7.1,21.88 -7.51,24.33 -0.7,4.08 -0.33,7.08 1.35,8.85 1.48,1.72 2.98,3.24 4.68,5 -4.86,3.78 -9.65,8.42 -14.62,14.08 -3.35,-3.73 -5.33,-6.38 -6.12,-8.2 -1.84,-3.46 -2.19,-7.94 -1.31,-13.03 0.18,-1.02 3.56,-10.32 9.9,-27.91 6.36,-17.61 9.99,-28.32 10.65,-32.2 0.81,-4.69 0.68,-7.86 -0.35,-9.51 -1.27,-1.69 -4.36,-3.06 -9.53,-3.95 l -5.6,-0.97 c 0,0 -13.41,-1.12 -17.77,-0.61 3.88,3.62 6.46,6.11 7.3,7.36 1.81,2.95 2.32,6.67 1.36,10.91 -1.22,5.46 -4.82,9.53 -10.59,12.27 -5.76,2.73 -11.93,3.26 -18.54,1.78 -14.7,-3.3 -22.09,-14.29 -21.73,-32.88 5.74,-0.62 11.61,-1.85 17.83,-3.63 -7.01,-3.47 -12.71,-5.92 -17.18,-7.64 -6.03,-0.18 -9.45,-0.06 -10.45,0.31 -1.22,0.3 -4.15,2.71 -9.17,6.9 l -6.63,-19.45 c 7.7,-7.32 14.38,-13.41 20.2,-18.03 -5.29,-11.99 -9.89,-20.79 -13.57,-26.31 -7.26,-10.61 -15.84,-17.29 -25.74,-20.03 -1.051,-0.29 -2.578,-0.5 -4.324,-0.77 -2.215,-0.18 -3.742,-0.39 -4.582,-0.63 l -0.813,-2.8 c 14.839,-3.62 25.099,-4.64 31.209,-2.95 11.15,3.1 18.39,12.19 21.47,27.23 1.65,7.97 2.14,19.28 1.12,33.6 1.18,0.25 2.07,0.43 3.01,0.63 0,0 2.34,0.35 3.38,0.75 0.26,0.07 0.84,0.33 0.84,0.33 3.5,1.43 6.12,2.91 7.73,4.52 1.48,1.39 3.76,4.24 7.08,8.38 3.33,4.14 6.53,7.83 9.66,10.86 5.34,-2.83 10.93,-5.82 16.31,-8.86 9.14,-4.01 19.8,-2.47 19.8,-2.47 8.4,1.45 14.11,5.58 17.33,12.64 3.07,6.62 3.64,14.91 1.92,24.91" /><path
         id="path32"
         style="fill:#231f20;fill-opacity:1;fill-rule:nonzero;stroke:none"
         d="m 1166.25,2546.73 c -5.26,23.56 -8.31,37.79 -9.11,42.69 -4.76,-6.21 -6.99,-9.6 -7.18,-9.83 -2.18,-3.81 -3.03,-7.67 -2.54,-11.77 0.52,-4.32 3.8,-16.86 9.82,-37.6 5.8,-20.78 9.38,-35.77 10.52,-45.23 l 3.47,0.42 c 2.57,9.7 3.3,18.33 2.32,26.34 -0.15,1.23 -2.64,12.82 -7.3,34.98" /><path
         id="path34"
         style="fill:#231f20;fill-opacity:1;fill-rule:nonzero;stroke:none"
         d="m 1339.6,2507.52 c -1.97,-0.01 -6.8,3.68 -14.92,10.88 4.31,8.93 7.56,13.5 9.53,13.52 2.4,0.01 4.37,-2.46 5.94,-7.21 1.34,-4.13 2.01,-8.27 2.05,-12.2 0.02,-3.31 -0.84,-4.98 -2.6,-4.99 z m 113.44,27.55 c -6.98,0.49 -15.33,3.15 -25.3,7.99 -9.96,4.64 -17.44,7.24 -22.67,7.6 -7.64,0.54 -13.95,-2.14 -18.75,-8.23 -2.42,-3.16 -4.98,-8.38 -7.46,-15.67 9.12,1.86 15.1,2.69 18.36,2.45 4.8,-0.33 12.5,-2.94 23.1,-7.83 -10.1,-3.65 -17.93,-6.01 -23.04,-7.11 -5.51,-1 -13,-1.29 -22.59,-1.23 -6.22,0.93 -10.47,2.07 -12.65,3.73 -6.58,5.14 -12.73,10.89 -18.46,17.69 -3.3,3.91 -6.15,5.96 -8.78,5.95 -4.15,-0.03 -7.41,-2.32 -10.22,-6.9 -4.33,-7.27 -7.35,-11.64 -9.09,-13.1 -4.48,-4.12 -10.85,-6.62 -18.76,-7.71 -5.87,1.02 -9.17,1.82 -10.07,2.37 -1.14,0.54 -3.53,3.49 -7.6,8.6 l -10.37,-17.74 c 6.07,-8.71 11.4,-16.02 16.18,-21.7 -7.58,-10.69 -13.84,-18.39 -18.55,-23.08 -9.23,-8.94 -18.96,-13.77 -29.22,-14.49 -1.08,-0.07 -2.61,0.03 -4.38,0.11 -2.21,0.27 -3.74,0.36 -4.62,0.3 l -1.35,-2.58 c 13.81,-6.51 23.67,-9.56 29.98,-9.11 11.56,0.8 20.45,8.27 26.48,22.39 3.2,7.48 5.95,18.46 7.8,32.7 0.76,0.01 1.28,0.01 1.94,0.01 0,0 10.7,0.67 12.67,2.13 1.08,0.63 4.13,4.16 9.32,10.62 7.91,-7.41 12.75,-11.72 14.29,-12.95 5.7,-4.52 10.53,-6.77 14.67,-6.74 6.56,0.04 10.68,4.62 12.59,13.53 4.61,-3.49 7.68,-5.33 8.99,-5.73 3.06,-0.97 9.47,-0.97 9.47,-0.97 0.62,-0.01 2.98,0.27 3.15,0.34 13.34,2.8 23.02,6.69 29.29,11.65 7.64,5.9 12.48,9.3 14.94,10.16 8.32,2.95 23.32,4.6 45.26,4.94 l 4.45,16.91 c -6.35,0.03 -12.67,0.26 -19,0.7" /><path
         id="path36"
         style="fill:#231f20;fill-opacity:1;fill-rule:nonzero;stroke:none"
         d="m 1525.6,2601.08 c -3.7,0.45 -9.01,3.8 -15.94,10.26 3.55,2.08 6.52,2.97 8.9,2.68 1.53,-0.18 4.2,-1.75 8.46,-4.77 2.44,3.88 3.65,6.64 3.83,8.08 0.41,3.29 -1.56,5.2 -6.13,5.74 -3.46,0.43 -7.85,-1.34 -13.17,-5.28 -5.56,-4.13 -8.38,-7.33 -8.69,-10 -0.27,-2.26 0.39,-4.01 1.74,-5.63 0.2,-0.24 1.78,-1.68 4.59,-3.89 -4.08,-0.97 -6.35,-1.54 -7.07,-2.07 -0.72,-0.54 -2.5,-2.41 -5.35,-6.03 l 28.92,4.43 c 3.38,0.64 5.43,1.22 6.16,1.76 0.72,0.54 1.62,2.52 2.87,5.5 -5.8,-0.56 -8.91,-0.81 -9.12,-0.78" /><path
         id="path38"
         style="fill:#231f20;fill-opacity:1;fill-rule:nonzero;stroke:none"
         d="m 1561.1,2482.85 -7.56,1.2 11.1,8.5 c 1.6,-5.28 2.46,-8.14 2.36,-8.75 -0.19,-1.23 -2.22,-1.54 -5.9,-0.95 z m 32.64,93.74 c -1.31,2.93 -2.62,5.86 -3.93,8.8 -7.26,-5.34 -11.27,-9.73 -11.89,-13.62 -0.68,-4.29 -0.8,-10.56 -0.16,-19.05 0.65,-8.49 0.53,-14.76 -0.11,-18.84 -1.25,-7.77 -3.99,-15.3 -8.48,-22.56 -8.57,21.08 -15.84,36.7 -21.54,46.62 -7.46,12.93 -16.45,24.63 -27.35,35.37 -8.32,-9.15 -12.79,-16.4 -13.67,-21.92 -0.68,-4.3 1.72,-10.13 7.25,-17.09 4.76,-6.2 8.01,-9.44 9.51,-9.69 1.29,-0.2 4.28,1.84 8.75,6.36 9.06,-12.55 14.84,-20.8 17.09,-24.72 2.99,-4.88 7.15,-13.51 12.91,-25.95 -7.58,-5.92 -15.22,-10.78 -22.93,-14.8 l -7.99,1.27 -3.46,-21.66 16.2,-2.58 c 9.06,-1.44 15.41,-1.83 19.31,-0.98 6.64,1.45 10.45,5.88 11.62,13.24 0.69,4.29 -0.37,13.05 -2.85,26.65 3.4,5.96 6.08,10.35 7.66,13.25 4.1,10.45 7.77,22.45 10.88,36.41 1.58,7.09 4.7,12.88 9.59,17.13 -3.69,4.57 -5.94,7.23 -6.41,8.36" /><path
         id="path40"
         style="fill:#231f20;fill-opacity:1;fill-rule:nonzero;stroke:none"
         d="m 1636.1,2523.27 c 3.52,23.88 5.77,38.26 6.76,43.13 -6.66,-4.1 -9.96,-6.47 -10.21,-6.62 -3.4,-2.78 -5.59,-6.07 -6.59,-10.08 -1.05,-4.22 -2.48,-17.09 -4.27,-38.63 -1.99,-21.47 -4.03,-36.76 -6.35,-46 l 3.4,-0.84 c 5.86,8.13 9.63,15.94 11.58,23.77 0.31,1.2 2.11,12.91 5.68,35.27" /><path
         id="path42"
         style="fill:#231f20;fill-opacity:1;fill-rule:nonzero;stroke:none"
         d="m 1774.27,2468.47 c 3.06,16.87 6.07,29.4 8.75,37.45 1.68,5.11 5.31,9.14 10.62,11.96 -3.14,6.49 -5.45,12.71 -6.72,18.59 -2.73,-1.28 -5.45,-2.56 -8.04,-4.1 -3.13,-1.8 -4.94,-3.81 -5.67,-5.98 -3.96,-46 -8.49,-76.34 -13.51,-91.46 -2.29,-6.89 -7.7,-10.76 -16.14,-11.89 -7.4,-0.81 -16.01,0.3 -26.19,3.67 -8.49,2.81 -14.74,6.85 -18.69,12.31 -4.02,5.25 -5.15,10.86 -3.2,16.75 1.76,5.31 7.42,11.28 16.8,17.99 l -1.78,2.99 c -17.31,-12.59 -27.6,-24.22 -31.19,-35.02 -2.66,-8.06 -1.43,-15.45 3.71,-22.17 5.13,-6.72 12.93,-11.7 23.3,-15.13 14.1,-4.68 26.46,-4.86 36.97,-0.27 10.43,4.39 17.75,13.3 22.25,26.86 2.67,8.06 5.6,20.39 8.73,37.45" /><path
         id="path44"
         style="fill:#231f20;fill-opacity:1;fill-rule:nonzero;stroke:none"
         d="m 1908.35,2378.45 c 12.52,9.03 20.57,12.48 24.22,10.52 1.54,-0.83 2.89,-2.49 3.85,-4.88 0.84,-2.56 0.93,-4.26 0.25,-5.53 -1.37,-2.56 -10.84,-2.65 -28.32,-0.11 z m 6.15,-54.71 c -0.88,-1.64 -2.71,-2.3 -5.53,-2.45 -2.98,-0.04 -6.17,0.96 -9.45,2.72 -4.8,2.58 -7.58,7.58 -8.22,14.73 -0.45,3.3 0.06,9.36 1.17,17.92 19.16,-13.77 26.43,-24.71 22.03,-32.92 z m 99.01,99.1 c -4.97,-0.7 -8.19,-1.46 -9.97,-2.34 -3.65,-1.47 -6.77,-4.68 -9.39,-9.14 -0.51,-0.9 -3.91,-10.18 -10.35,-27.75 -6.45,-17.57 -10.57,-28.11 -12.56,-31.5 -2.38,-4.11 -4.51,-6.47 -6.39,-7.06 -2.05,-0.48 -5.29,0.45 -9.82,3.1 0,0 -28.11,15.9 -33.32,18.69 -1.35,0.72 -1.82,1.21 -1.72,1.39 0.1,0.19 2.32,0.64 6.39,1.28 4.82,0.7 8.88,1.81 11.99,3.44 5.04,2.46 8.83,5.84 11.27,10.4 5.57,10.4 6.29,16.83 2.24,19 -8.1,4.33 -25.15,-3.45 -51.05,-23.15 -5.37,2.36 -12.99,6.82 -12.99,6.82 -5.62,3.54 -8.94,6.33 -9.98,8.35 -2.34,5.06 -1.58,13.98 2.03,26.84 9.14,30.09 15.49,50.36 19.22,60.69 -1.09,-0.88 -2.83,-2.16 -5.43,-3.75 -7.75,-5.9 -14.67,-14.2 -20.49,-24.98 -7.2,-12.9 -14.68,-23.65 -22.67,-31.71 1.19,16.61 -2.4,33.7 -10.76,51.28 -7.11,15 -13.42,23.56 -19.24,26.07 -3.42,1.47 -7.89,-4.5 -13.69,-18 -3.77,-8.75 1.17,-18.3 14.7,-28.85 1.41,-0.61 2.82,-0.09 4.73,1.57 1.89,1.66 3.11,2.26 4.1,1.83 1.82,-0.78 4.96,-6.18 9.65,-16.31 5.04,-10.96 6.6,-18.39 5.04,-22 -2.38,-5.51 -11.95,-10.64 -28.54,-15.44 -11.09,-3.12 -21.56,-5.37 -31.15,-6.66 l -0.62,-1.99 c 19.98,-3.85 34.78,-4.82 44.39,-2.42 9.02,2.21 17.29,8.12 24.84,17.94 0.61,0.86 9.32,14.47 26.12,40.81 -4.1,-11.75 -8.21,-23.5 -12.52,-35.17 -3.95,-12.5 -5.51,-22.19 -4.45,-29.17 1.1,-7.11 4.82,-12.52 10.9,-16.47 l 13.45,-8.2 c -9.94,-30.13 -8.89,-48.54 3.44,-55.14 4.63,-2.48 9.74,-2.17 15.47,0.65 5.52,2.91 10.09,7.74 13.61,14.3 2.64,4.93 3.65,11.91 3.13,21.11 6.63,-3.17 15.09,-8.89 15.09,-8.89 l 3.77,-2.2 c 7.37,-4.29 14.4,-4.8 21.41,-1.45 6.6,3.09 12.38,9.07 17.48,17.84 2.19,3.75 5.94,12.34 11.35,25.96 5.31,13.45 8.65,21.33 9.9,23.47 2.07,3.58 4.3,5.64 6.72,5.91 2.24,0.36 4.37,0.55 6.81,0.82 -1.3,6.02 -1.99,12.66 -2.14,20.18" /><path
         id="path46"
         style="fill:#231f20;fill-opacity:1;fill-rule:nonzero;stroke:none"
         d="m 2035.13,2352.7 c 11.31,21.32 18.26,34.1 20.84,38.35 -7.66,-1.62 -11.55,-2.75 -11.86,-2.8 -4.12,-1.47 -7.28,-3.84 -9.59,-7.29 -2.4,-3.61 -8.06,-15.26 -16.99,-34.94 -9.1,-19.56 -16.15,-33.27 -21.43,-41.19 l 2.91,-1.94 c 8.27,5.69 14.42,11.78 18.91,18.49 0.68,1.04 6.31,11.46 17.21,31.32" /><path
         id="path48"
         style="fill:#231f20;fill-opacity:1;fill-rule:nonzero;stroke:none"
         d="m 2124.78,2324.14 5.21,-14.65 13.97,6.41 -4.97,14.98 -12.01,-4.5 -5.76,14.28 -15.33,-6.43 5.19,-14.65 z m 172.28,-249.69 c -1.56,-1.35 -3.07,-1.19 -4.34,0.3 -1.15,1.33 -1.97,2.93 -2.48,4.49 -0.66,1.73 -1.32,3.76 -1.81,5.93 -0.74,3.1 -1.1,5.11 -1.37,5.74 4.71,0.86 7.99,0.22 10.12,-2.27 1.85,-2.16 2.93,-4.69 2.93,-7.56 -0.14,-2.71 -1.15,-5.02 -3.05,-6.63 z m -111.62,102.27 c 8.96,1.12 15.72,1.51 19.96,1.17 8.14,-0.68 15.2,-3.75 20.86,-9.21 2.36,-2.27 4.3,-5.3 5.82,-9.07 1.39,-3.92 1.5,-6.32 0.35,-7.51 -4.61,-4.77 -20.31,3.49 -46.99,24.62 z m -36.17,49.45 c -1.64,-4.02 -3.79,-7.61 -6.31,-10.63 -2.13,-2.54 -3.87,-3.26 -5.2,-2.13 -1.52,1.26 -2.81,7.2 -4.37,17.94 9.06,4.03 14.49,5.42 15.99,4.17 1.86,-1.55 1.78,-4.72 -0.11,-9.35 z m -53.67,44.12 c -0.12,-0.16 -0.2,-0.63 -0.39,-1.26 -0.18,-0.63 -0.43,-0.96 -0.69,-1.29 -0.86,-1.17 -2.93,-0.67 -6.09,1.67 -1.41,1.04 -3.09,2.8 -5.18,5.11 -2.5,2.88 -3.47,4.88 -2.85,5.71 1.23,1.67 8.2,1.92 20.88,1.05 z m 217.83,-172.93 c -3.71,4.32 -8.77,5.45 -15.02,3.54 -6.56,-1.88 -12.83,-3.79 -18.97,-5.87 -7.37,-1.17 -13.84,1 -19.39,6.78 -1.55,2.3 -2.41,4.46 -2.01,6.3 0.17,1.35 1.56,3.81 4,6.95 l -0.29,0.93 c -5.1,-0.26 -8.56,-0.17 -10.51,0.42 -4.34,1.05 -8.22,3.43 -11.91,7.45 0,0 -21.12,19.8 -28.58,24.98 8.11,-2.63 14.03,-4.04 17.66,-4.38 7.07,-0.21 12.99,2.15 18.03,7.36 4.16,4.32 5.89,8.96 5.37,14.38 -0.55,5.41 -3.03,10.09 -7.58,14.49 -6.6,6.37 -15.02,9.61 -25.1,9.55 -4.82,0.04 -13.03,-1.24 -24.8,-3.69 7.4,5.8 12.34,9.96 14.63,12.34 2.73,2.84 6.15,7.31 10.52,13.44 4.24,6.27 7.64,10.74 10.24,13.42 1.87,1.94 4.96,3.57 8.96,4.59 3.13,0.72 6.41,1.59 9.69,2.16 0.51,5.55 1.54,12.31 3.46,20.26 -5.86,-0.4 -9.59,-0.82 -10.94,-1.26 -4.45,-1.16 -8.28,-3.23 -11.58,-6.65 -5.02,-5.22 -11.25,-13.88 -18.68,-26.28 -7.57,-12.26 -13.8,-20.92 -18.69,-25.98 -3.3,-3.43 -7.54,-6.25 -12.98,-8.75 l -9.69,9.35 0.17,0.22 c -5.04,5.55 -7.93,9.59 -8.57,12.56 -1.72,8.17 -2.7,16.54 -2.68,25.42 0,5.13 -0.84,8.54 -2.85,10.22 -3.18,2.66 -7.17,3.01 -12.26,1.34 -7.99,-2.76 -13.13,-4.13 -15.41,-4.13 -6.21,-0.25 -12.83,2.04 -19.71,6.5 -3.95,3.25 -6.02,5.76 -6.04,7.43 -0.02,1.81 1.76,6.42 5.57,14.16 8.67,16.51 14.9,28.63 18.89,36.23 -2.85,-0.2 -5.61,-0.23 -8.46,-0.43 -3.3,-0.41 -5.7,-1.46 -7.05,-3.29 -0.49,-0.67 -2.56,-4.55 -6.23,-11.37 -11.1,1.52 -19.26,1.88 -24.75,1.06 -8.02,-1.29 -14.49,-5.27 -19.27,-11.76 -4.18,-5.66 -1.18,-12.26 9.02,-19.79 1.05,-0.77 2.6,-0.89 4.51,-0.5 1.91,0.39 3.54,0.74 5.27,1.25 l 11.61,2.49 c -3.72,-9.09 -5.63,-14.62 -5.92,-16.48 -0.96,-5.72 0.78,-10.35 5.52,-13.86 l 0.28,-0.19 -0.06,-0.07 c 1.58,-1.24 3.02,-2.24 4.37,-3.12 l 0.51,-0.38 0.03,0.04 c 2.66,-1.67 4.86,-2.67 6.42,-2.76 1.23,-0.23 5.84,0.52 13.98,2.08 1.25,-10.76 2.15,-17.18 2.54,-19.11 1.43,-7.14 3.67,-11.97 6.86,-14.63 5.02,-4.21 11.13,-3.37 18.34,2.2 1.27,-5.64 2.42,-9.04 3.16,-10.2 0.45,-0.98 2.09,-2.66 4.93,-5.14 l -0.05,-0.05 c 0.32,-0.31 0.78,-0.76 1.41,-1.36 0.33,-0.61 0.8,-1.06 1.27,-1.52 2.05,-1.97 7.07,-6.83 15.57,-14.72 8.16,-7.89 13.98,-13.5 17.44,-16.84 l 29.92,-29.88 c 5.04,-4.56 8.61,-7.22 11.15,-8.15 1.8,-0.42 6.17,-0.27 12.64,0.34 -1.9,-5.6 -2.7,-9.3 -2.42,-11.13 0.27,-2.43 6.16,-10.06 6.16,-10.06 3.8,-3.22 7.25,-4.96 10.32,-5.02 0.9,-0.1 5.49,1.23 13.71,3.39 1.15,-4.2 2.44,-8.26 3.46,-12.3 1.56,-4.7 3.47,-8.52 5.74,-11.18 2.99,-3.49 6.68,-4.93 11.21,-4.5 4.24,0.46 8.71,2.56 12.95,6.19 5.82,4.99 9.88,11.06 12.36,18.35 2.19,7.33 1.86,12.8 -1.4,16.62 z m -29.12,29.27 -2.01,16.56 -15.84,-3.58 2.46,-16.43 z m -39.67,71.49 15.19,3.47 -1.91,15.94 -15.33,-3.91 2.05,-15.5" /><path
         id="path50"
         style="fill:#231f20;fill-opacity:1;fill-rule:nonzero;stroke:none"
         d="m 965.863,222.398 c 2.45,-6.777 3.196,-11.527 2.364,-13.949 -1.106,-3.199 -5.161,-7.027 -11.946,-11.328 -8.711,-5.449 -16.863,-6.781 -24.644,-4.082 -5.039,1.742 -9.477,4.711 -13.117,9.02 -3.79,4.363 -5.481,6.39 -5.176,6.273 -0.766,0.277 -1.235,-0.094 -1.512,-0.902 -0.996,-2.91 0.082,-8.668 3.152,-17.102 3.731,-10.449 9.063,-16.797 16.086,-19.219 7.633,-2.64 16.43,0.071 26.45,8.321 9.96,8.058 17.05,18.199 21.21,30.25 3.497,10.14 4.243,19.218 2.094,27.34 -1.594,5.769 -3.207,9.031 -5.039,9.652 -0.765,0.258 -1.805,-0.274 -2.969,-1.684 l -9.308,-10.617 c -0.906,-1.133 -1.485,-1.84 -1.598,-2.152 0.059,0.16 1.363,-2.989 3.953,-9.821" /><path
         id="path52"
         style="fill:#231f20;fill-opacity:1;fill-rule:nonzero;stroke:none"
         d="m 1039.18,206.5 c -2.95,0.82 -5.93,2.172 -9.08,4.102 -4.47,2.636 -6.45,5.136 -5.82,7.418 0.5,1.82 1.47,3.48 2.97,4.652 1.5,1.168 2.92,1.476 4.63,1.008 2.18,-0.602 4.28,-3.301 6.26,-8.258 1.76,-4.551 2.52,-7.223 2.2,-8.383 -0.13,-0.48 -0.54,-0.719 -1.16,-0.539 z m -58.176,-27.27 c -4.699,3.598 -6.715,5.391 -6.098,5.219 -0.773,0.211 -1.222,-0.199 -1.449,-1.019 -0.137,-0.489 0.781,-3.219 2.852,-7.852 2.574,-5.816 5.57,-10.719 8.8,-14.789 4.465,-5.641 9.168,-9.23 13.993,-10.578 10.428,-2.891 21.118,1.211 31.758,12.359 9.6,9.86 16.35,22.11 20.3,36.371 2.73,9.821 2.94,19.649 0.59,29.297 -2.18,9.063 -5.45,14.192 -9.65,15.371 -5.6,1.563 -11.74,-1.859 -18.38,-10.078 -5.85,-7.191 -9.74,-14.59 -11.88,-22.293 -1.77,-6.379 0.12,-11.679 5.72,-16.226 2.49,-1.91 8.3,-5.114 17.7,-9.313 -4.23,-5 -9.13,-8.75 -14.63,-11.64 -8.01,-4.129 -16.3,-5 -24.708,-2.68 -5.449,1.5 -10.418,4.121 -14.918,7.851" /><path
         id="path54"
         style="fill:#231f20;fill-opacity:1;fill-rule:nonzero;stroke:none"
         d="m 1196.48,198.941 c -0.27,-18.242 -0.72,-31.351 -1.48,-39.3 l -0.24,-2.539 c -0.11,-1.192 0.17,-1.723 0.65,-1.774 0.48,-0.039 1.17,0.41 2.09,1.524 l 6.91,7.867 c 3.46,3.953 5.36,8.531 5.86,13.793 0.5,5.25 0.94,16.636 1.46,34.179 0.36,17.379 0.77,28.457 1.23,33.36 0.45,4.738 0.2,7.148 -0.77,7.238 -0.48,0.043 -1.35,-0.539 -2.44,-1.809 l -9.44,-10.55 c -1.62,-1.719 -2.57,-4.879 -2.99,-9.282 -0.33,-3.546 -0.57,-14.449 -0.84,-32.707" /><path
         id="path56"
         style="fill:#231f20;fill-opacity:1;fill-rule:nonzero;stroke:none"
         d="m 1399.23,125.988 -8.75,7.602 c -0.84,0.64 -1.33,0.969 -1.82,0.949 -0.33,-0.019 -0.95,-0.559 -1.7,-1.617 l -3.96,-5.453 c -0.61,-0.879 -1.41,-1.25 -2.21,-1.289 0.16,0.019 -0.51,0.492 -1.68,1.468 l -7.38,5.961 c -0.67,0.481 -1.17,0.801 -1.66,0.782 -0.47,-0.02 -1.1,-0.551 -2.01,-1.782 l -5.34,-7.23 c -0.76,-1.047 -1.23,-1.75 -1.21,-2.09 0.02,-0.5 0.37,-1.168 1.23,-1.988 l 8.93,-8.461 c 0.86,-0.801 1.35,-1.129 1.84,-1.09 0.8,0.02 1.42,0.57 2.03,1.449 l 4.14,5.289 c 0.6,0.883 1.23,1.231 1.72,1.274 0.48,0.019 0.97,-0.141 1.64,-0.633 l 6.87,-5.457 c 1.17,-0.981 1.99,-1.453 2.17,-1.453 0.47,0.019 1.27,0.57 2.03,1.621 l 5.63,7.738 c 0.76,1.231 1.21,1.934 1.19,2.442 -0.02,0.5 -0.53,1.171 -1.7,1.968 z m 4.9,64.371 c -3.42,11.25 -6.72,16.723 -10.12,16.571 -0.31,-0.02 -0.91,-0.899 -1.81,-2.641 l -6.41,-12.187 c -0.9,-1.743 -1.33,-2.793 -1.33,-2.954 0,0.161 1.72,-2.148 5,-7.109 3.3,-5.109 4.91,-8.629 5,-10.48 0.02,-0.508 -0.93,-0.899 -2.71,-0.809 -5.51,-0.07 -9.06,-0.051 -10.51,-0.129 -5,-0.223 -11.44,-0.512 -19.67,-1.039 -8.22,-0.523 -14.84,-1.152 -15.21,-1.312 l -21.53,0.14 c -0.93,4.692 -2.5,8.93 -4.77,12.66 -3.17,5.078 -5.64,7.731 -7.57,7.809 -0.81,0.043 -1.65,-0.758 -2.37,-2.438 l -5.9,-12.832 c -0.55,-1.347 -0.92,-2.187 -0.93,-2.519 0.01,0.172 2.16,-2.481 6.59,-8.281 4.26,-5.821 6.33,-10.161 6.22,-12.719 -0.14,-3.379 -2.95,-8.199 -8.23,-14.258 -6.81,-7.691 -14.24,-11.293 -22.46,-10.922 -5.34,0.238 -10.43,1.82 -15.15,4.93 -4.87,3.101 -7.07,4.57 -6.75,4.551 -0.81,0.039 -1.15,-0.45 -1.19,-1.309 -0.14,-3.223 2.54,-8.441 7.87,-15.672 6.41,-8.781 13.32,-13.332 20.9,-13.691 8.07,-0.348 15.73,4.75 22.99,15.492 6.02,8.898 9.59,18.398 11.01,28.629 l 21.11,-0.129 c 0,0 19.71,0.621 34.86,1.289 13.4,0.602 21.29,1.289 23.83,2.238 3.19,1.172 4.67,4.121 4.46,8.891 -0.43,9.84 -2.17,19.98 -5.22,30.23" /><path
         id="path58"
         style="fill:#231f20;fill-opacity:1;fill-rule:nonzero;stroke:none"
         d="m 1449.27,191.629 c 4.8,-7.457 7.42,-12.957 7.85,-16.5 0.1,-0.859 -2.19,-2.149 -7.01,-3.949 -4.83,-1.77 -9.57,-2.848 -14.38,-3.43 -3.22,-0.391 -5.78,0.66 -7.54,3.02 -0.95,1.25 -1.87,3.539 -2.95,7.019 -0.78,2.461 -1.75,3.731 -2.55,3.633 -1.12,-0.141 -1.74,-3.133 -2.04,-8.813 -0.23,-4.82 -0.11,-8.418 0.18,-10.781 0.74,-6.226 2.38,-10.308 4.92,-12.578 2.56,-2.262 6.88,-2.949 12.97,-2.211 1.91,0.242 6.31,1.633 13.34,4.012 l 12.01,4.199 c 1.72,0.539 3.36,1.77 4.63,3.449 1.25,1.699 1.7,3.461 1.47,5.321 -1.64,13.671 -5.2,26.949 -10.82,39.8 -4.93,11.211 -8.52,16.602 -10.59,16.352 -0.49,-0.063 -1.04,-0.981 -1.64,-2.602 l -4.75,-13.242 c -0.39,-0.898 -0.47,-1.578 -0.41,-2.09 -0.06,0.512 2.35,-3.148 7.31,-10.609" /><path
         id="path60"
         style="fill:#231f20;fill-opacity:1;fill-rule:nonzero;stroke:none"
         d="m 1552.82,200.75 c 1.43,0.281 3.71,0.359 6.53,0.18 2.87,-0.328 4.82,-0.309 6.25,-0.059 1.44,0.277 2.05,1.43 1.7,3.258 -0.28,1.512 -3.13,3.582 -8.74,6.332 -5.97,3.051 -10.62,4.258 -14.12,3.617 -7.46,-1.387 -12.73,-7.539 -15.99,-18.34 -2.42,-8.25 -3.17,-14.769 -2.25,-19.789 0.43,-2.34 3.71,-5.879 9.69,-10.66 l -2.91,-5.551 c -2.31,-4.398 -4.04,-9.218 -4.96,-14.058 -1.33,-7 -1.23,-14.571 0.25,-22.598 2.07,-11.191 6.92,-19.633 14.38,-25.3515 8,-5.9414 18.02,-7.7188 29.94,-5.5313 6.97,1.3125 14.86,5.6992 23.47,13.3398 7.78,6.801 11.45,10.941 11.18,12.441 -0.16,0.84 -0.75,1.25 -1.68,1.079 0.62,0.113 -1.41,-0.43 -5.96,-1.629 -4.69,-1.211 -9.43,-2.258 -14.36,-3.16 -12.07,-2.25 -22.18,-2.559 -30.52,-1 -10.24,2.089 -16.06,6.902 -17.48,14.57 -2.44,13.23 4.23,25 19.9,35.34 5.58,3.629 11.31,6.402 17.05,8.16 2.95,0.898 4.65,2.422 4.78,4.359 l 1.12,15.231 c -0.02,0.179 -0.1,0.511 -0.02,1.039 -0.06,0.332 -0.14,0.66 -0.16,0.84 -0.06,0.332 -0.72,0.39 -1.99,0.152 -4.3,-0.801 -9.63,-3.012 -16.05,-6.441 -6.57,-3.641 -9.85,-5.45 -9.69,-5.411 -0.31,-0.058 -1.39,0.43 -3.19,1.301 l -6.56,3.461 c -1.64,0.899 -2.4,1.449 -2.5,1.957 l 12.89,12.922" /><path
         id="path62"
         style="fill:#231f20;fill-opacity:1;fill-rule:nonzero;stroke:none"
         d="m 1660.77,243.289 c -0.74,2.449 -0.41,4.672 0.96,6.859 1.25,1.993 3.16,3.461 5.62,4.223 2.64,0.801 5.8,-0.742 9.52,-4.59 1.46,-1.511 4.8,-5.82 9.8,-12.812 -16.7,2.179 -25.25,4.211 -25.9,6.32 z m 36.86,-8.508 c -3.23,10.559 -8.05,19.239 -14.38,26.188 -6.25,6.64 -11.44,9.32 -15.94,7.953 -5.7,-1.742 -9.78,-7.774 -12.14,-18.262 -1.96,-8.601 -2.54,-14.461 -1.55,-17.719 1.1,-3.57 4.46,-6.293 9.96,-8.339 3.29,-1.313 9.26,-2.692 17.66,-4.223 l -8.34,-2.539 c -2.93,-0.891 -7.52,-2.461 -13.81,-4.551 -3.69,-1.23 -6.75,-2.25 -9.29,-3.098 -2.18,4.239 -4.84,7.86 -8.03,10.821 -4.46,4 -7.56,5.898 -9.44,5.449 -0.78,-0.199 -1.38,-1.191 -1.62,-3.012 l -2.15,-13.961 c -0.15,-1.429 -0.27,-2.347 -0.19,-2.66 -0.04,0.16 2.73,-1.797 8.59,-6.168 3.32,-2.57 5.68,-4.828 7.28,-6.789 0,0 0.96,-1.422 1.33,-1.789 0.42,-0.703 0.73,-1.352 0.87,-1.934 0.78,-3.32 -0.59,-8.707 -4.01,-15.976 -4.45,-9.274 -10.62,-14.762 -18.63,-16.66 -5.18,-1.231 -10.53,-1.09 -15.9,0.59 -5.55,1.66 -8.07,2.457 -7.75,2.539 -0.78,-0.2 -0.98,-0.762 -0.78,-1.582 0.74,-3.149 4.76,-7.45 11.87,-12.911 8.56,-6.699 16.45,-9.199 23.83,-7.449 7.87,1.86 13.83,8.871 17.89,21.199 3.36,10.223 4.19,20.391 2.72,30.641 2.15,0.602 4.75,1.383 7.9,2.441 8.09,2.809 13.46,4.61 16.23,5.469 8.97,2.723 14.73,4.821 17.27,6.481 3.42,2.109 5.14,5.32 5.04,9.539 0.04,3.75 -1.52,10.562 -4.49,20.312 z m -44.26,43.918 10.23,-3.097 c 1.64,-0.391 2.56,-0.653 2.87,-0.551 0.92,0.289 1.45,0.801 1.7,1.597 l 2.15,7.934 c 0.43,1.367 0.49,2.289 0.43,2.438 -0.04,0.16 -0.6,0.359 -1.93,0.839 l -12.23,4.11 c -0.92,0.23 -1.62,0.371 -2.24,0.191 -0.63,-0.191 -0.98,-0.66 -1.2,-1.621 l -1.93,-7.5 c -0.33,-1.168 -0.39,-2.07 -0.23,-2.559 0.23,-0.82 1.05,-1.289 2.38,-1.781" /><path
         id="path64"
         style="fill:#231f20;fill-opacity:1;fill-rule:nonzero;stroke:none"
         d="m 1185.85,246.641 -6.05,8.648 c -0.01,0.031 -0.03,0.031 -0.04,0.051 l -4.01,5.719 c -0.34,0.472 -0.69,0.929 -1.14,1.211 -0.89,0.519 -1.77,0.332 -2.41,-0.5 l -10.5,-10.821 c -1.06,-1.301 -1.6,-1.949 -1.5,-1.777 -0.4,-0.75 -0.04,-1.942 1.02,-3.301 l 1.13,-1.621 c -0.47,-2.898 -2.01,-12.602 -4.48,-29.199 -2.66,-16.602 -4.55,-30.602 -4.57,-30.762 -0.12,-0.68 -3.52,-0.469 -10.22,0.59 -2.71,0.43 -7.97,1.269 -15.82,2.34 -2.58,0.363 -4.76,0.672 -6.77,0.98 -0.1,4.813 -0.89,9.289 -2.49,13.391 -2.22,5.551 -4.2,8.601 -6.08,9.031 -0.79,0.168 -1.77,-0.473 -2.76,-1.992 l -8.07,-11.609 c -0.77,-1.231 -1.27,-1.989 -1.35,-2.301 0.04,0.16 1.69,-2.828 5.03,-9.321 1,-2.019 1.74,-3.796 2.36,-5.449 0,0 2.35,-5.211 0.77,-10.027 -1.44,-2.992 -4.68,-6.582 -9.84,-10.731 -8.05,-6.382 -15.99,-8.613 -24.03,-6.793 -5.2,1.153 -9.94,3.614 -14.04,7.5 -4.25,3.903 -6.16,5.743 -5.84,5.661 -0.79,0.179 -1.22,-0.25 -1.41,-1.071 -0.66,-2.988 1.05,-8.597 5.05,-16.648 4.88,-9.981 10.88,-15.68 18.13,-17.301 7.88,-1.777 16.32,1.91 25.35,11.211 7.36,7.48 12.54,16.16 15.76,25.859 1.05,-0.199 1.91,-0.398 3.09,-0.589 2.72,-0.43 6.73,-0.891 12.34,-1.622 5.6,-0.718 9.43,-1.32 11.83,-1.718 1.92,-0.289 4.14,-0.66 6.83,-1.25 2.7,-0.43 4.46,-0.719 5.26,-0.84 3.35,-0.539 5.8,-0.578 7.21,0.058 1.25,0.672 2.15,2.231 2.58,4.93 0.43,2.672 1.26,7.891 2.61,15.41 1.31,7.203 2.23,12.91 2.91,17.262 1.11,6.898 1.94,13.129 2.52,18.891 0.46,3.879 1.14,8.078 2.17,12.558 0.28,1.289 0.54,2.563 0.81,3.84 l 7.41,7.449 c 0.69,0.551 1.33,1.403 1.8,2.321 0.4,0.761 0.24,1.582 -0.55,2.332 z m -90.74,-2.45 12.21,-8.32 c 0.71,-0.512 1.15,-0.781 1.31,-0.82 0.62,-0.141 1.37,0.219 2.11,1.269 l 6.42,10.239 c 0.47,0.582 0.81,1.382 1,2.203 0.15,0.668 -0.22,1.269 -1.12,1.66 l -12.92,8.808 c -0.43,0.27 -0.87,0.551 -1.35,0.668 -0.94,0.192 -1.68,-0.16 -2.03,-0.937 l -6.55,-10.742 c -0.6,-1.25 -0.91,-1.879 -0.87,-1.719 -0.15,-0.668 0.48,-1.512 1.79,-2.309" /></g></g></svg>