<?xml version="1.0" encoding="UTF-8" standalone="no"?>
<svg
   xmlns:dc="http://purl.org/dc/elements/1.1/"
   xmlns:cc="http://creativecommons.org/ns#"
   xmlns:rdf="http://www.w3.org/1999/02/22-rdf-syntax-ns#"
   xmlns:svg="http://www.w3.org/2000/svg"
   xmlns="http://www.w3.org/2000/svg"
   viewBox="0 0 737.22668 737.22668"
   height="737.22668"
   width="737.22668"
   xml:space="preserve"
   id="svg2"
   version="1.1"><metadata
     id="metadata8"><rdf:RDF><cc:Work
         rdf:about=""><dc:format>image/svg+xml</dc:format><dc:type
           rdf:resource="http://purl.org/dc/dcmitype/StillImage" /><dc:title></dc:title></cc:Work></rdf:RDF></metadata><defs
     id="defs6" /><g
     transform="matrix(1.3333333,0,0,-1.3333333,0,737.22667)"
     id="g10"><g
       transform="scale(0.1)"
       id="g12"><path
         id="path14"
         style="fill:#231f20;fill-opacity:1;fill-rule:nonzero;stroke:none"
         d="m 1302.35,4306.36 -40.31,-38.66 41.12,-42.87 87.83,84.23 -324.45,338.29 -47.54,-45.58 283.35,-295.41" /><path
         id="path16"
         style="fill:#231f20;fill-opacity:1;fill-rule:nonzero;stroke:none"
         d="m 1871.48,4500.83 65.66,31.75 -26.24,54.35 -65.69,-31.73 26.27,-54.37" /><path
         id="path18"
         style="fill:#231f20;fill-opacity:1;fill-rule:nonzero;stroke:none"
         d="m 1779.04,4456.15 65.99,31.91 -26.28,54.35 -65.97,-31.9 26.26,-54.36" /><path
         id="path20"
         style="fill:#231f20;fill-opacity:1;fill-rule:nonzero;stroke:none"
         d="m 2462.74,4865.77 -40.45,207.84 -63.98,-12.45 51.18,-262.97 c 2.29,-11.81 0.7,-21.23 -4.86,-28.26 -5.54,-6.99 -18.8,-12.53 -39.67,-16.58 l 9.24,-47.52 27.87,5.42 c 16.03,3.13 27.9,6.49 35.49,10.18 15.06,7.31 25.81,19.5 32.36,36.55 5.94,15.64 7.36,32.15 4.17,49.47 l 30.42,5.91 -11.35,58.33 -30.42,-5.92" /><path
         id="path22"
         style="fill:#231f20;fill-opacity:1;fill-rule:nonzero;stroke:none"
         d="m 2227.99,4818.74 -104.29,-26.14 14.46,-57.65 168.15,42.16 -65.98,263.02 -63.85,-16 51.51,-205.39" /><path
         id="path24"
         style="fill:#231f20;fill-opacity:1;fill-rule:nonzero;stroke:none"
         d="m 3339.58,4803.01 -12.78,-58.03 18.9,-5.8 21.15,55.52 -27.27,8.31" /><path
         id="path26"
         style="fill:#231f20;fill-opacity:1;fill-rule:nonzero;stroke:none"
         d="m 2202.83,4651.03 71.09,17.83 -14.69,58.53 -71.07,-17.82 14.67,-58.54" /><path
         id="path28"
         style="fill:#231f20;fill-opacity:1;fill-rule:nonzero;stroke:none"
         d="m 2079.01,4779.88 -36.67,75.85 c -24.26,50.18 -60.42,63.66 -108.47,40.44 l -212.61,-103.08 25.98,-53.8 57.43,28.11 c 14.13,6.83 26.22,8.91 36.25,6.24 10.01,-2.7 17.94,-10.04 23.76,-22.05 l 29.48,-61.06 -239.78,-115.88 -74.98,155.95 c -42.63,-20.62 -52.24,-55.14 -28.84,-103.58 l 66.17,-136.89 363.28,175.57 -73.04,151.14 22.66,10.95 c 28.29,13.69 48.3,8.41 59.99,-15.81 l 55.35,-114.55 93.19,37.52 -14.46,57.65 -44.69,-12.72" /><path
         id="path30"
         style="fill:#231f20;fill-opacity:1;fill-rule:nonzero;stroke:none"
         d="m 1441.16,4351.48 51.95,40.42 -287.99,369.83 -51.95,-40.46 287.99,-369.79" /><path
         id="path32"
         style="fill:#231f20;fill-opacity:1;fill-rule:nonzero;stroke:none"
         d="m 611.176,3411.14 -16.379,-74.72 -132.617,29.64 7.168,32.14 c 4.414,19.75 18.804,26.89 43.175,21.44 l 31.485,-7.03 14.445,64.57 -60.492,13.51 c -43.906,9.82 -70.023,-3.97 -78.359,-41.34 l -30.082,-134.53 249.191,-55.71 23.422,106.27 c 6.851,30.64 23.371,43.04 49.644,37.17 l 28.34,-6.34 -58.004,-259.56 -169.472,37.88 c -6.688,-43.74 14.277,-72.68 62.91,-86.84 l 149.316,-33.4 88.055,393.79 -102.641,23.26 c -54.539,12.43 -87.601,-7.65 -99.105,-60.2" /><path
         id="path34"
         style="fill:#231f20;fill-opacity:1;fill-rule:nonzero;stroke:none"
         d="m 847.555,3159.17 16.004,71.51 -58.907,13.18 -16,-71.52 58.903,-13.17" /><path
         id="path36"
         style="fill:#231f20;fill-opacity:1;fill-rule:nonzero;stroke:none"
         d="m 2798.38,4883.61 1.51,-59.4 24.36,0.86 3.34,59.32 -29.21,-0.78" /><path
         id="path38"
         style="fill:#231f20;fill-opacity:1;fill-rule:nonzero;stroke:none"
         d="m 2493.16,4871.69 11.35,-58.33 21.72,3.9 -1.51,59.38 -31.56,-4.95" /><path
         id="path40"
         style="fill:#231f20;fill-opacity:1;fill-rule:nonzero;stroke:none"
         d="m 2097.66,4781.87 18.81,-49.87 21.69,2.95 -14.46,57.65 -26.04,-10.73" /><path
         id="path42"
         style="fill:#231f20;fill-opacity:1;fill-rule:nonzero;stroke:none"
         d="m 4301.21,4789.56 -32.42,25.63 21.43,27.09 c 3.32,-2.35 6.09,-4.43 8.27,-6.15 3.57,-2.79 5.63,-4.95 6.2,-6.52 0.57,-1.52 0.1,-3.25 -1.36,-5.1 l -8.8,-11.13 15.7,-12.41 11,13.92 c 8.29,10.45 7.93,19.26 -0.99,26.32 l -34.42,27.22 -32.48,-41.02 -11.13,8.79 -11.01,-13.92 59.01,-46.65 11,13.93" /><path
         id="path44"
         style="fill:#231f20;fill-opacity:1;fill-rule:nonzero;stroke:none"
         d="m 851.176,3548.27 c 11.23,-4.34 18.351,-10.74 21.359,-19.14 2.988,-8.43 0.629,-22.58 -7.043,-42.44 l 45.176,-17.43 10.207,26.49 c 5.898,15.28 9.34,27.11 10.254,35.51 1.879,16.81 -2.902,32.58 -14.27,47.38 -10.281,13.42 -23.734,23.33 -40.414,29.76 l -251.773,97.07 -23.442,-60.84 249.946,-96.36" /><path
         id="path46"
         style="fill:#231f20;fill-opacity:1;fill-rule:nonzero;stroke:none"
         d="m 1220.96,4223.7 -164.8,132.96 -41.35,-51.27 164.82,-132.94 -35.68,-44.22 -164.805,132.93 -41.153,-51 164.818,-132.92 -39.32,-48.75 -164.799,132.95 -41.152,-51.01 164.801,-132.94 -37.481,-46.49 46.231,-37.28 249.68,309.51 -46.23,37.28 -13.58,-16.81" /><path
         id="path48"
         style="fill:#231f20;fill-opacity:1;fill-rule:nonzero;stroke:none"
         d="m 1234.54,4240.51 46.23,-37.28 22.39,21.6 -41.12,42.87 -27.5,-27.19" /><path
         id="path50"
         style="fill:#231f20;fill-opacity:1;fill-rule:nonzero;stroke:none"
         d="M 925.063,3828.86 889.43,3769.7 791,3828.99 c -21.375,12.89 -25.824,29.75 -13.266,50.59 l 16.801,27.92 z m 34.14,56.69 -181.383,109.25 -66.941,-111.15 c -24.645,-40.92 -16.324,-73.81 24.965,-98.68 l 170.34,-102.59 69.773,115.83 c 2.969,-1.26 5.664,-2.64 8.051,-4.09 17.512,-10.54 20.352,-25.69 8.469,-45.42 l -52.668,-87.36 39.019,-23.49 73.452,121.95 c 20.55,34.1 9.6,63.9 -32.79,89.44 l -9.39,5.65 20.99,38.83 -46.231,37.28 -25.656,-45.45" /><path
         id="path52"
         style="fill:#231f20;fill-opacity:1;fill-rule:nonzero;stroke:none"
         d="m 869.949,3259.35 15.934,71.18 -58.918,13.18 -15.918,-71.19 58.902,-13.17" /><path
         id="path54"
         style="fill:#231f20;fill-opacity:1;fill-rule:nonzero;stroke:none"
         d="m 4438.86,4033.93 -62.87,79.07 167.31,133 c -10.47,13.15 -26.33,20.01 -47.52,20.59 -21.26,0.59 -38.6,-4.48 -52.06,-15.18 l -155.4,-123.58 145.22,-182.68 367.41,292.11 -41.18,51.8 -320.91,-255.13" /><path
         id="path56"
         style="fill:#231f20;fill-opacity:1;fill-rule:nonzero;stroke:none"
         d="m 4641.32,3710.23 354.29,205 -33,56.99 -354.27,-205 -41.37,71.53 c 10.9,-12.83 28.09,-12.45 51.54,1.12 l 314.61,182.08 -32.98,56.94 -306.76,-177.52 -20.23,-10.17 c -12.69,-5.13 -21.1,-7.11 -25.21,-6.02 -5.75,0.92 -9.7,3.19 -11.86,6.92 l -13.12,22.67 -51.42,-29.75 128.38,-221.86 51.41,29.77 -10.01,17.3" /><path
         id="path58"
         style="fill:#231f20;fill-opacity:1;fill-rule:nonzero;stroke:none"
         d="m 4144.17,4275.05 47.68,-45.41 323.32,339.34 -47.67,45.44 -323.33,-339.37" /><path
         id="path60"
         style="fill:#231f20;fill-opacity:1;fill-rule:nonzero;stroke:none"
         d="m 4726.93,3497.89 -12.12,36.08 21.06,23.42 57.23,19.27 c 18.34,6.16 30.37,0.8 36.06,-16.15 5.71,-16.9 -0.74,-28.48 -19.29,-34.72 z m 60.57,-179.93 155.11,52.19 c 52.62,17.71 70.4,51.55 53.39,101.42 l -64.54,191.82 -38.24,-12.87 40.47,-120.21 c 18.86,-56.09 6.18,-91.6 -38.08,-106.49 l -129.1,-43.45 -18.45,54.78 109.84,36.95 c 34.08,11.49 45.24,34.63 33.5,69.54 l -25.64,76.18 c -10.23,30.37 -30.43,40.45 -60.63,30.31 l -86.28,-29.06 -24.43,-24.56 -18.77,55.71 -56.27,-18.94 124.89,-389.13 58.37,10.99 -15.14,64.82" /><path
         id="path62"
         style="fill:#231f20;fill-opacity:1;fill-rule:nonzero;stroke:none"
         d="m 4813.09,3197.61 -10.45,55.53 -58.37,-10.99 22.61,-120.23 460.65,86.58 -12.17,64.72 -402.27,-75.61" /><path
         id="path64"
         style="fill:#231f20;fill-opacity:1;fill-rule:nonzero;stroke:none"
         d="m 5243.71,3118.05 -469.31,-59.12 8.23,-65.33 469.32,59.11 -8.24,65.34" /><path
         id="path66"
         style="fill:#231f20;fill-opacity:1;fill-rule:nonzero;stroke:none"
         d="m 4075.15,4409.89 -64.83,51.25 c 14.87,-7.9 30.72,-1.24 47.54,20.01 l 225.43,285.14 -51.66,40.85 -219.83,-278.04 -15.02,-16.93 c -9.94,-9.4 -17.04,-14.37 -21.27,-14.86 -5.62,-1.28 -10.18,-0.57 -13.57,2.1 l -20.49,16.19 -36.86,-46.61 185.36,-146.55 290.71,367.69 -51.65,40.83 -253.86,-321.07" /><path
         id="path68"
         style="fill:#231f20;fill-opacity:1;fill-rule:nonzero;stroke:none"
         d="m 3005.94,4809.32 65.38,-7.93 56.43,465.32 -65.41,7.93 -56.4,-465.32" /><path
         id="path70"
         style="fill:#231f20;fill-opacity:1;fill-rule:nonzero;stroke:none"
         d="m 4651.33,3692.93 -51.41,-29.77 19.46,-31.88 56.27,18.94 -24.32,42.71" /><path
         id="path72"
         style="fill:#231f20;fill-opacity:1;fill-rule:nonzero;stroke:none"
         d="m 3597.89,4706.66 -21.17,-55.53 17.98,-8.9 26.75,53.07 -23.56,11.36" /><path
         id="path74"
         style="fill:#231f20;fill-opacity:1;fill-rule:nonzero;stroke:none"
         d="m 2883.98,4881.21 -56.39,3.18 -3.34,-59.32 122.11,-6.9 26.43,468 -65.74,3.71 -23.07,-408.67" /><path
         id="path76"
         style="fill:#231f20;fill-opacity:1;fill-rule:nonzero;stroke:none"
         d="m 2669.29,4880.33 -32.13,44.37 -2.73,107.17 32.91,0.83 c 20.25,0.52 30.67,-11.71 31.3,-36.66 l 1.12,-44.19 66.15,1.64 -1.88,73.58 c -1.13,44.97 -20.85,66.95 -59.14,65.98 l -137.78,-3.51 4.33,-170.03 26.23,-41 -72.95,-1.87 1.51,-59.38 273.66,6.95 -1.51,59.4 -129.09,-3.28" /><path
         id="path78"
         style="fill:#231f20;fill-opacity:1;fill-rule:nonzero;stroke:none"
         d="m 3475.44,4753.33 c -10.1,7.3 -12.31,18.51 -6.55,33.59 l 44.61,117.04 35.29,-13.46 c 15.86,-6.04 20.98,-16.52 15.31,-31.4 l -37.46,-98.34 c -0.86,-1.53 -1.5,-2.99 -2.03,-4.4 -2.76,-7.26 -1.97,-14.8 2.4,-22.69 z m 115.52,-44.03 c -7.66,2.9 -9.66,9.09 -6.04,18.56 l 51.26,134.52 c 12.5,32.77 3.46,54.96 -27.1,66.63 l -136.67,52.07 -75.41,-197.85 -30.15,11.47 -21.15,-55.52 231.02,-88.05 21.17,55.53 -6.93,2.64" /><path
         id="path80"
         style="fill:#231f20;fill-opacity:1;fill-rule:nonzero;stroke:none"
         d="m 3850.46,4621.08 41.23,81.17 c 25.67,50.47 11.69,89.2 -41.92,116.21 l -100.04,50.42 -39.65,-78.69 55.93,-28.21 15.11,30 19.91,-10.05 c 31.09,-15.7 38.68,-39.16 22.7,-70.36 l -31.19,-61.27 c -8.42,-16.71 -9.04,-30.13 -1.88,-40.26 l -169.21,85.26 -26.75,-53.07 242.46,-122.14 26.73,53.05 c -20.12,9.9 -24.55,25.87 -13.43,47.94" /><path
         id="path82"
         style="fill:#231f20;fill-opacity:1;fill-rule:nonzero;stroke:none"
         d="m 3309.35,4809.68 45.55,206.77 -63.69,14.05 -57.65,-261.65 c -2.58,-11.76 -7.82,-19.75 -15.65,-23.98 -7.9,-4.22 -22.24,-4.03 -43.07,0.55 l -10.4,-47.27 27.74,-6.13 c 16.01,-3.5 28.22,-5.11 36.64,-4.76 16.68,0.74 31.44,7.63 44.24,20.67 11.63,11.97 19.5,26.57 23.53,43.72 l 30.21,-6.67 12.78,58.03 -30.23,6.67" /><path
         id="path84"
         style="fill:#ee2722;fill-opacity:1;fill-rule:nonzero;stroke:none"
         d="m 3237.37,1489.2 c -704.42,0 -1275.47,571.04 -1275.47,1275.41 0,704.42 571.05,1275.43 1275.47,1275.43 224.57,0 435.54,-58.12 618.82,-160.03 -278.48,268.29 -657.12,433.33 -1074.36,433.33 -855.32,0 -1548.7,-693.38 -1548.7,-1548.73 0,-855.31 693.38,-1548.71 1548.7,-1548.71 417.23,0 795.87,165.04 1074.35,433.32 C 3672.9,1547.33 3461.93,1489.2 3237.37,1489.2" /><path
         id="path86"
         style="fill:none;stroke:#231f20;stroke-width:90;stroke-linecap:butt;stroke-linejoin:miter;stroke-miterlimit:10;stroke-dasharray:none;stroke-opacity:1"
         d="m 952.691,2764.63 c 0,1000.69 811.229,1811.92 1811.929,1811.92 1000.71,0 1811.94,-811.23 1811.94,-1811.92 0,-1000.7 -811.23,-1811.931 -1811.94,-1811.931 -1000.7,0 -1811.929,811.231 -1811.929,1811.931 z" /><path
         id="path88"
         style="fill:none;stroke:#231f20;stroke-width:90;stroke-linecap:butt;stroke-linejoin:miter;stroke-miterlimit:10;stroke-dasharray:none;stroke-opacity:1"
         d="m 45,2764.62 c 0,1502.01 1217.62,2719.63 2719.62,2719.63 1502.01,0 2719.62,-1217.62 2719.62,-2719.63 C 5484.24,1262.62 4266.63,45 2764.62,45 1262.62,45 45,1262.62 45,2764.62 Z" /><path
         id="path90"
         style="fill:#231f20;fill-opacity:1;fill-rule:nonzero;stroke:none"
         d="m 894.004,1735.73 -14.75,30.33 c 30.934,15.05 48.805,28.23 53.613,39.56 4.805,11.33 0.656,30.47 -12.457,57.42 -15.551,31.98 -29.566,50.65 -42.031,56.02 -12.473,5.38 -32.481,1.36 -60.043,-12.05 -30.934,-15.05 -48.016,-27.84 -51.227,-38.39 -3.214,-10.55 2.696,-34.39 17.75,-71.52 17.871,-43.43 23.309,-73.91 16.313,-91.45 -7.008,-17.54 -32.348,-36.94 -76.031,-58.19 -47.25,-22.98 -81.008,-31.27 -101.278,-24.87 -20.273,6.4 -41.336,32.06 -63.183,76.98 -18.961,38.99 -24.594,68.31 -16.891,87.99 7.699,19.68 32.738,39.82 75.113,60.44 l 17.059,8.54 14.754,-30.33 -9.567,-4.65 c -34.312,-16.69 -53.843,-30.76 -58.582,-42.22 -4.746,-11.46 0.309,-32.44 15.153,-62.97 17.039,-35.01 31.679,-54.52 43.945,-58.53 12.262,-4 36.488,2.8 72.676,20.4 23.437,11.4 37.711,21.73 42.828,31 5.105,9.28 4.176,22.99 -2.809,41.16 l -13.171,32.81 -12.411,31.23 c -17.8,48.03 4.797,87.38 67.793,118.02 43.684,21.25 76.086,28.76 97.203,22.52 21.114,-6.23 41.379,-29.29 60.793,-69.2 19.668,-40.44 25.688,-70.1 18.075,-89 -7.618,-18.91 -33.828,-39.25 -78.637,-61.05" /><path
         id="path92"
         style="fill:none;stroke:#231f20;stroke-width:7;stroke-linecap:butt;stroke-linejoin:miter;stroke-miterlimit:10;stroke-dasharray:none;stroke-opacity:1"
         d="m 894.004,1735.73 -14.75,30.33 c 30.934,15.05 48.805,28.23 53.613,39.56 4.805,11.33 0.656,30.47 -12.457,57.42 -15.551,31.98 -29.566,50.65 -42.031,56.02 -12.473,5.38 -32.481,1.36 -60.043,-12.05 -30.934,-15.05 -48.016,-27.84 -51.227,-38.39 -3.214,-10.55 2.696,-34.39 17.75,-71.52 17.871,-43.43 23.309,-73.91 16.313,-91.45 -7.008,-17.54 -32.348,-36.94 -76.031,-58.19 -47.25,-22.98 -81.008,-31.27 -101.278,-24.87 -20.273,6.4 -41.336,32.06 -63.183,76.98 -18.961,38.99 -24.594,68.31 -16.891,87.99 7.699,19.68 32.738,39.82 75.113,60.44 l 17.059,8.54 14.754,-30.33 -9.567,-4.65 c -34.312,-16.69 -53.843,-30.76 -58.582,-42.22 -4.746,-11.46 0.309,-32.44 15.153,-62.97 17.039,-35.01 31.679,-54.52 43.945,-58.53 12.262,-4 36.488,2.8 72.676,20.4 23.437,11.4 37.711,21.73 42.828,31 5.105,9.28 4.176,22.99 -2.809,41.16 l -13.171,32.81 -12.411,31.23 c -17.8,48.03 4.797,87.38 67.793,118.02 43.684,21.25 76.086,28.76 97.203,22.52 21.114,-6.23 41.379,-29.29 60.793,-69.2 19.668,-40.44 25.688,-70.1 18.075,-89 -7.618,-18.91 -33.828,-39.25 -78.637,-61.05 z" /><path
         id="path94"
         style="fill:#231f20;fill-opacity:1;fill-rule:nonzero;stroke:none"
         d="M 990.57,1557.16 690.613,1440.68 c -42.293,-16.48 -73.218,-24.8 -92.781,-24.96 -19.555,-0.14 -34.348,7.83 -44.371,23.91 -2.02,3.25 -3.996,7.81 -5.945,13.69 l 30.789,19.19 c 1.191,-4.28 2.476,-7.72 3.851,-10.33 7.715,-14.75 30.438,-15.14 68.157,-1.16 l 28.101,10.49 c 0.965,0.43 4.496,1.85 10.606,4.26 l -6.176,9.93 213.445,222.81 17.367,-27.87 -95.953,-97.95 -47.648,-48.9 -24.211,-24.43 -23.828,-24.46 0.468,-0.74 31.168,12.67 31.321,13.02 62.566,24.95 125.668,50.23 17.363,-27.87" /><path
         id="path96"
         style="fill:none;stroke:#231f20;stroke-width:7;stroke-linecap:butt;stroke-linejoin:miter;stroke-miterlimit:10;stroke-dasharray:none;stroke-opacity:1"
         d="M 990.57,1557.16 690.613,1440.68 c -42.293,-16.48 -73.218,-24.8 -92.781,-24.96 -19.555,-0.14 -34.348,7.83 -44.371,23.91 -2.02,3.25 -3.996,7.81 -5.945,13.69 l 30.789,19.19 c 1.191,-4.28 2.476,-7.72 3.851,-10.33 7.715,-14.75 30.438,-15.14 68.157,-1.16 l 28.101,10.49 c 0.965,0.43 4.496,1.85 10.606,4.26 l -6.176,9.93 213.445,222.81 17.367,-27.87 -95.953,-97.95 -47.648,-48.9 -24.211,-24.43 -23.828,-24.46 0.468,-0.74 31.168,12.67 31.321,13.02 62.566,24.95 125.668,50.23 z" /><path
         id="path98"
         style="fill:#231f20;fill-opacity:1;fill-rule:nonzero;stroke:none"
         d="m 1012.18,1527.84 18.51,-24.68 -29.38,-18.17 -0.35,-1.09 c 29.84,7.13 53.17,-0.54 70.01,-23 23.26,-31.03 12.2,-63.56 -33.17,-97.58 l -16.65,-12.2 -18.24,24.33 6.4,3.98 c 6.6,4.39 10.99,7.41 13.16,9.03 24.52,18.39 29.73,36.98 15.63,55.8 -20.62,27.51 -55.041,23.19 -103.252,-12.95 l -143.387,-107.48 -18.512,24.69 239.231,179.32" /><path
         id="path100"
         style="fill:none;stroke:#231f20;stroke-width:7;stroke-linecap:butt;stroke-linejoin:miter;stroke-miterlimit:10;stroke-dasharray:none;stroke-opacity:1"
         d="m 1012.18,1527.84 18.51,-24.68 -29.38,-18.17 -0.35,-1.09 c 29.84,7.13 53.17,-0.54 70.01,-23 23.26,-31.03 12.2,-63.56 -33.17,-97.58 l -16.65,-12.2 -18.24,24.33 6.4,3.98 c 6.6,4.39 10.99,7.41 13.16,9.03 24.52,18.39 29.73,36.98 15.63,55.8 -20.62,27.51 -55.041,23.19 -103.252,-12.95 l -143.387,-107.48 -18.512,24.69 z" /><path
         id="path102"
         style="fill:#231f20;fill-opacity:1;fill-rule:nonzero;stroke:none"
         d="m 1241.11,1444.19 -37.33,-31.88 -20.04,23.45 37.33,31.9 z m -97.25,-83.07 -227.337,-194.19 -20.043,23.45 227.33,194.2 20.05,-23.46" /><path
         id="path104"
         style="fill:none;stroke:#231f20;stroke-width:7;stroke-linecap:butt;stroke-linejoin:miter;stroke-miterlimit:10;stroke-dasharray:none;stroke-opacity:1"
         d="m 1241.11,1444.19 -37.33,-31.88 -20.04,23.45 37.33,31.9 z m -97.25,-83.07 -227.337,-194.19 -20.043,23.45 227.33,194.2 z" /><path
         id="path106"
         style="fill:#231f20;fill-opacity:1;fill-rule:nonzero;stroke:none"
         d="m 1133.24,1150.49 c -16.69,16.77 -30.06,25.18 -40.11,25.23 -10.05,0.05 -23.35,-8.15 -39.9,-24.62 -17.15,-17.06 -26.01,-30.84 -26.57,-41.36 -0.58,-10.51 6.76,-23.43 21.99,-38.74 30.68,-30.83 59.32,-33.02 85.93,-6.55 16.69,16.62 24.95,30.79 24.76,42.51 -0.2,11.72 -8.9,26.24 -26.1,43.53 z m 12.7,82.58 -21.61,21.72 c 24.68,24.55 45.18,37.13 61.51,37.71 16.32,0.6 35.88,-10.56 58.69,-33.48 24.76,-24.91 36.29,-46.91 34.57,-66.03 -1.71,-19.11 -17.21,-43.23 -46.47,-72.34 l -139.91,-139.181 -21.76,21.871 24.55,21.01 -0.25,0.68 c -25.73,-9.01 -51.29,-0.76 -76.68,24.76 -37.517,37.71 -34.767,77.97 8.25,120.75 25.57,25.44 47.43,38.79 65.58,40.06 18.15,1.27 38.21,-9.14 60.18,-31.22 26.12,-26.26 34.45,-49.27 24.99,-69.04 l 0.69,-0.24 25.72,25.59 c 24.24,24.11 37.62,42.08 40.12,53.89 2.51,11.83 -4.11,25.66 -19.87,41.49 -26.74,26.87 -50.82,29.64 -72.25,8.33 -1.04,-1.03 -3.05,-3.14 -6.05,-6.33" /><path
         id="path108"
         style="fill:none;stroke:#231f20;stroke-width:7;stroke-linecap:butt;stroke-linejoin:miter;stroke-miterlimit:10;stroke-dasharray:none;stroke-opacity:1"
         d="m 1133.24,1150.49 c -16.69,16.77 -30.06,25.18 -40.11,25.23 -10.05,0.05 -23.35,-8.15 -39.9,-24.62 -17.15,-17.06 -26.01,-30.84 -26.57,-41.36 -0.58,-10.51 6.76,-23.43 21.99,-38.74 30.68,-30.83 59.32,-33.02 85.93,-6.55 16.69,16.62 24.95,30.79 24.76,42.51 -0.2,11.72 -8.9,26.24 -26.1,43.53 z m 12.7,82.58 -21.61,21.72 c 24.68,24.55 45.18,37.13 61.51,37.71 16.32,0.6 35.88,-10.56 58.69,-33.48 24.76,-24.91 36.29,-46.91 34.57,-66.03 -1.71,-19.11 -17.21,-43.23 -46.47,-72.34 l -139.91,-139.181 -21.76,21.871 24.55,21.01 -0.25,0.68 c -25.73,-9.01 -51.29,-0.76 -76.68,24.76 -37.517,37.71 -34.767,77.97 8.25,120.75 25.57,25.44 47.43,38.79 65.58,40.06 18.15,1.27 38.21,-9.14 60.18,-31.22 26.12,-26.26 34.45,-49.27 24.99,-69.04 l 0.69,-0.24 25.72,25.59 c 24.24,24.11 37.62,42.08 40.12,53.89 2.51,11.83 -4.11,25.66 -19.87,41.49 -26.74,26.87 -50.82,29.64 -72.25,8.33 -1.04,-1.03 -3.05,-3.14 -6.05,-6.33 z" /><path
         id="path110"
         style="fill:#231f20;fill-opacity:1;fill-rule:nonzero;stroke:none"
         d="m 1354.74,1147.02 23.21,-18.62 -26.12,-31.16 0.1,-1.28 c 26.51,18.03 54.32,15.36 83.44,-7.99 23.5,-18.85 34.71,-37.46 33.62,-55.83 -1.07,-18.38 -14.92,-44.16 -41.53,-77.339 l -121.71,-151.75 -24.07,19.308 119.36,148.821 7.04,8.781 c 16.05,20.008 24.14,35.629 24.3,46.859 0.16,11.24 -7.44,23.02 -22.8,35.33 -33.82,27.12 -68.92,17.99 -105.32,-27.39 l -112.51,-140.291 -24.07,19.312 187.06,233.239" /><path
         id="path112"
         style="fill:none;stroke:#231f20;stroke-width:7;stroke-linecap:butt;stroke-linejoin:miter;stroke-miterlimit:10;stroke-dasharray:none;stroke-opacity:1"
         d="m 1354.74,1147.02 23.21,-18.62 -26.12,-31.16 0.1,-1.28 c 26.51,18.03 54.32,15.36 83.44,-7.99 23.5,-18.85 34.71,-37.46 33.62,-55.83 -1.07,-18.38 -14.92,-44.16 -41.53,-77.339 l -121.71,-151.75 -24.07,19.308 119.36,148.821 7.04,8.781 c 16.05,20.008 24.14,35.629 24.3,46.859 0.16,11.24 -7.44,23.02 -22.8,35.33 -33.82,27.12 -68.92,17.99 -105.32,-27.39 l -112.51,-140.291 -24.07,19.312 z" /><path
         id="path114"
         style="fill:#231f20;fill-opacity:1;fill-rule:nonzero;stroke:none"
         d="m 1717.69,696.902 65.97,261.028 -182.53,-197.629 z m -8.62,-36.613 -133.79,72.781 -63.52,-68.34 -31.56,17.172 300.8,322.338 41.82,-22.748 -105.25,-428.711 -31.17,16.949 22.67,90.559" /><path
         id="path116"
         style="fill:none;stroke:#231f20;stroke-width:7;stroke-linecap:butt;stroke-linejoin:miter;stroke-miterlimit:10;stroke-dasharray:none;stroke-opacity:1"
         d="m 1717.69,696.902 65.97,261.028 -182.53,-197.629 z m -8.62,-36.613 -133.79,72.781 -63.52,-68.34 -31.56,17.172 300.8,322.338 41.82,-22.748 -105.25,-428.711 -31.17,16.949 z" /><path
         id="path118"
         style="fill:#231f20;fill-opacity:1;fill-rule:nonzero;stroke:none"
         d="m 1900.85,800.871 28.58,-11.641 -15.84,-30.699 0.26,-1.121 c 21.92,21.469 45.87,26.91 71.86,16.309 35.93,-14.637 43.19,-48.207 21.79,-100.731 l -7.99,-19.027 -28.17,11.469 3.44,6.711 c 3.4,7.168 5.61,12 6.63,14.519 11.57,28.379 6.46,47.012 -15.31,55.879 -31.84,12.973 -59.13,-8.449 -81.87,-64.238 l -67.62,-165.949 -28.57,11.64 112.81,276.879" /><path
         id="path120"
         style="fill:none;stroke:#231f20;stroke-width:7;stroke-linecap:butt;stroke-linejoin:miter;stroke-miterlimit:10;stroke-dasharray:none;stroke-opacity:1"
         d="m 1900.85,800.871 28.58,-11.641 -15.84,-30.699 0.26,-1.121 c 21.92,21.469 45.87,26.91 71.86,16.309 35.93,-14.637 43.19,-48.207 21.79,-100.731 l -7.99,-19.027 -28.17,11.469 3.44,6.711 c 3.4,7.168 5.61,12 6.63,14.519 11.57,28.379 6.46,47.012 -15.31,55.879 -31.84,12.973 -59.13,-8.449 -81.87,-64.238 l -67.62,-165.949 -28.57,11.64 z" /><path
         id="path122"
         style="fill:#231f20;fill-opacity:1;fill-rule:nonzero;stroke:none"
         d="m 2109.41,564.539 c -22.7,6.68 -38.46,7.633 -47.3,2.84 -8.84,-4.777 -16.56,-18.379 -23.15,-40.777 -6.83,-23.204 -7.97,-39.551 -3.41,-49.043 4.56,-9.489 17.19,-17.278 37.92,-23.387 41.72,-12.281 67.88,-0.422 78.48,35.578 6.65,22.602 7.08,38.992 1.27,49.18 -5.81,10.179 -20.42,18.73 -43.81,25.609 z m -28.58,78.512 -29.39,8.648 c 9.83,33.41 21.76,54.293 35.79,62.66 14.02,8.371 36.54,7.993 67.56,-1.148 33.69,-9.922 54.38,-23.672 62.07,-41.25 7.69,-17.59 5.7,-46.191 -5.96,-85.789 l -55.74,-189.301 -29.6,8.711 11.43,30.219 -0.55,0.48 c -18.23,-20.269 -44.61,-25.332 -79.14,-15.16 -51.03,15.008 -67.97,51.641 -50.84,109.828 10.19,34.602 22.94,56.832 38.24,66.66 15.3,9.84 37.9,10.36 67.78,1.563 35.52,-10.461 53.89,-26.621 55.11,-48.492 l 0.73,0.101 10.24,34.809 c 9.66,32.801 12.74,54.98 9.26,66.551 -3.49,11.57 -15.95,20.507 -37.38,26.82 -36.36,10.699 -58.81,1.551 -67.35,-27.441 -0.41,-1.411 -1.17,-4.219 -2.26,-8.469" /><path
         id="path124"
         style="fill:none;stroke:#231f20;stroke-width:7;stroke-linecap:butt;stroke-linejoin:miter;stroke-miterlimit:10;stroke-dasharray:none;stroke-opacity:1"
         d="m 2109.41,564.539 c -22.7,6.68 -38.46,7.633 -47.3,2.84 -8.84,-4.777 -16.56,-18.379 -23.15,-40.777 -6.83,-23.204 -7.97,-39.551 -3.41,-49.043 4.56,-9.489 17.19,-17.278 37.92,-23.387 41.72,-12.281 67.88,-0.422 78.48,35.578 6.65,22.602 7.08,38.992 1.27,49.18 -5.81,10.179 -20.42,18.73 -43.81,25.609 z m -28.58,78.512 -29.39,8.648 c 9.83,33.41 21.76,54.293 35.79,62.66 14.02,8.371 36.54,7.993 67.56,-1.148 33.69,-9.922 54.38,-23.672 62.07,-41.25 7.69,-17.59 5.7,-46.191 -5.96,-85.789 l -55.74,-189.301 -29.6,8.711 11.43,30.219 -0.55,0.48 c -18.23,-20.269 -44.61,-25.332 -79.14,-15.16 -51.03,15.008 -67.97,51.641 -50.84,109.828 10.19,34.602 22.94,56.832 38.24,66.66 15.3,9.84 37.9,10.36 67.78,1.563 35.52,-10.461 53.89,-26.621 55.11,-48.492 l 0.73,0.101 10.24,34.809 c 9.66,32.801 12.74,54.98 9.26,66.551 -3.49,11.57 -15.95,20.507 -37.38,26.82 -36.36,10.699 -58.81,1.551 -67.35,-27.441 -0.41,-1.411 -1.17,-4.219 -2.26,-8.469 z" /><path
         id="path126"
         style="fill:#231f20;fill-opacity:1;fill-rule:nonzero;stroke:none"
         d="m 2391.3,620.711 c -23.88,4.168 -41.14,-0.27 -51.78,-13.34 -10.64,-13.051 -19.73,-41.152 -27.28,-84.269 -9.31,-53.204 -11.58,-87.731 -6.82,-103.59 4.75,-15.864 20.3,-26.09 46.65,-30.703 22.29,-3.899 38.32,0.972 48.09,14.601 9.77,13.641 18.7,43.559 26.78,89.781 8.52,48.668 10.53,81.071 6.05,97.2 -4.49,16.129 -18.39,26.23 -41.69,30.32 z m -137.44,-247.102 73.59,420.5 30.39,-5.308 -28.62,-163.582 0.49,-1.039 c 11.94,27.332 37.16,37.629 75.66,30.89 30.4,-5.32 49.42,-20.191 57.09,-44.601 7.66,-24.41 6.35,-65.989 -3.92,-124.731 -9.75,-55.648 -22.61,-93.136 -38.59,-112.457 -15.99,-19.32 -39.98,-26.179 -71.97,-20.582 -32.56,5.692 -51.88,23.153 -57.96,52.36 l -0.92,-0.161 -4.84,-36.609 -30.4,5.32" /><path
         id="path128"
         style="fill:none;stroke:#231f20;stroke-width:7;stroke-linecap:butt;stroke-linejoin:miter;stroke-miterlimit:10;stroke-dasharray:none;stroke-opacity:1"
         d="m 2391.3,620.711 c -23.88,4.168 -41.14,-0.27 -51.78,-13.34 -10.64,-13.051 -19.73,-41.152 -27.28,-84.269 -9.31,-53.204 -11.58,-87.731 -6.82,-103.59 4.75,-15.864 20.3,-26.09 46.65,-30.703 22.29,-3.899 38.32,0.972 48.09,14.601 9.77,13.641 18.7,43.559 26.78,89.781 8.52,48.668 10.53,81.071 6.05,97.2 -4.49,16.129 -18.39,26.23 -41.69,30.32 z m -137.44,-247.102 73.59,420.5 30.39,-5.308 -28.62,-163.582 0.49,-1.039 c 11.94,27.332 37.16,37.629 75.66,30.89 30.4,-5.32 49.42,-20.191 57.09,-44.601 7.66,-24.41 6.35,-65.989 -3.92,-124.731 -9.75,-55.648 -22.61,-93.136 -38.59,-112.457 -15.99,-19.32 -39.98,-26.179 -71.97,-20.582 -32.56,5.692 -51.88,23.153 -57.96,52.36 l -0.92,-0.161 -4.84,-36.609 z" /><path
         id="path130"
         style="fill:#231f20;fill-opacity:1;fill-rule:nonzero;stroke:none"
         d="m 2694.26,534.082 98.07,1.598 c 25.86,0.422 43.4,6.281 52.62,17.582 9.22,11.297 13.59,32.39 13.08,63.238 -0.62,38.559 -4.51,63.629 -11.68,75.191 -7.17,11.559 -22.22,17.161 -45.13,16.789 l -109.76,-1.781 z m -30.48,-214.121 -6.91,426.84 143.25,2.32 c 32.31,0.52 55.24,-8.172 68.75,-26.101 13.52,-17.918 20.65,-49.301 21.37,-94.11 0.64,-39.41 -2.52,-66.93 -9.47,-82.57 -6.94,-15.649 -20.51,-25.942 -40.71,-30.852 v -0.937 c 31.94,-2.821 48.32,-30.082 49.16,-81.77 l 1.78,-109.14 -33.94,-0.551 -1.59,98.191 c -0.82,49.828 -16.42,74.489 -46.83,74 l -11.23,-0.191 -102.49,-1.66 2.8,-172.918 -33.94,-0.551" /><path
         id="path132"
         style="fill:none;stroke:#231f20;stroke-width:7;stroke-linecap:butt;stroke-linejoin:miter;stroke-miterlimit:10;stroke-dasharray:none;stroke-opacity:1"
         d="m 2694.26,534.082 98.07,1.598 c 25.86,0.422 43.4,6.281 52.62,17.582 9.22,11.297 13.59,32.39 13.08,63.238 -0.62,38.559 -4.51,63.629 -11.68,75.191 -7.17,11.559 -22.22,17.161 -45.13,16.789 l -109.76,-1.781 z m -30.48,-214.121 -6.91,426.84 143.25,2.32 c 32.31,0.52 55.24,-8.172 68.75,-26.101 13.52,-17.918 20.65,-49.301 21.37,-94.11 0.64,-39.41 -2.52,-66.93 -9.47,-82.57 -6.94,-15.649 -20.51,-25.942 -40.71,-30.852 v -0.937 c 31.94,-2.821 48.32,-30.082 49.16,-81.77 l 1.78,-109.14 -33.94,-0.551 -1.59,98.191 c -0.82,49.828 -16.42,74.489 -46.83,74 l -11.23,-0.191 -102.49,-1.66 2.8,-172.918 z" /><path
         id="path134"
         style="fill:#231f20;fill-opacity:1;fill-rule:nonzero;stroke:none"
         d="m 3114.8,523.25 -2,13.941 c -4.1,32.047 -10.48,52.411 -19.14,61.079 -8.66,8.671 -25.32,11.429 -49.94,8.269 -24.79,-3.16 -40.14,-10.848 -46.06,-23.059 -5.92,-12.218 -6.44,-37.359 -1.58,-75.398 z m 10.78,-84.379 31.27,4 1.6,-10.832 c 3.95,-30.82 0.1,-53.219 -11.51,-67.207 -11.62,-13.992 -33.98,-23.102 -67.06,-27.332 -38.48,-4.918 -65.01,1.832 -79.58,20.262 -14.58,18.41 -25.95,59.578 -34.12,123.48 -7.56,59.137 -6.59,99.629 2.92,121.449 9.51,21.797 31.89,34.969 67.16,39.481 38.49,4.918 64.83,-0.652 79.03,-16.703 14.2,-16.047 24.9,-52.297 32.12,-108.77 l 2.98,-23.258 -150.42,-19.23 c 5.97,-46.742 13.31,-76.07 22.02,-87.992 8.71,-11.918 26.03,-16.219 51.98,-12.899 24.63,3.149 40.23,8.231 46.82,15.289 6.58,7.032 8.57,20.692 5.98,40.95 l -1.19,9.312" /><path
         id="path136"
         style="fill:none;stroke:#231f20;stroke-width:7;stroke-linecap:butt;stroke-linejoin:miter;stroke-miterlimit:10;stroke-dasharray:none;stroke-opacity:1"
         d="m 3114.8,523.25 -2,13.941 c -4.1,32.047 -10.48,52.411 -19.14,61.079 -8.66,8.671 -25.32,11.429 -49.94,8.269 -24.79,-3.16 -40.14,-10.848 -46.06,-23.059 -5.92,-12.218 -6.44,-37.359 -1.58,-75.398 z m 10.78,-84.379 31.27,4 1.6,-10.832 c 3.95,-30.82 0.1,-53.219 -11.51,-67.207 -11.62,-13.992 -33.98,-23.102 -67.06,-27.332 -38.48,-4.918 -65.01,1.832 -79.58,20.262 -14.58,18.41 -25.95,59.578 -34.12,123.48 -7.56,59.137 -6.59,99.629 2.92,121.449 9.51,21.797 31.89,34.969 67.16,39.481 38.49,4.918 64.83,-0.652 79.03,-16.703 14.2,-16.047 24.9,-52.297 32.12,-108.77 l 2.98,-23.258 -150.42,-19.23 c 5.97,-46.742 13.31,-76.07 22.02,-87.992 8.71,-11.918 26.03,-16.219 51.98,-12.899 24.63,3.149 40.23,8.231 46.82,15.289 6.58,7.032 8.57,20.692 5.98,40.95 z" /><path
         id="path138"
         style="fill:#231f20;fill-opacity:1;fill-rule:nonzero;stroke:none"
         d="m 3276.95,649.461 c -22.13,-5.402 -35.07,-16.231 -38.82,-32.492 -3.76,-16.258 -0.25,-46.457 10.51,-90.617 11.83,-48.61 23.23,-79.704 34.17,-93.231 10.93,-13.539 27.74,-17.539 50.45,-12.012 24.69,6.012 38.89,17.571 42.59,34.672 3.7,17.098 -0.7,51.278 -13.18,102.528 -10.12,41.531 -21.04,68.543 -32.78,81.031 -11.74,12.48 -29.39,15.851 -52.94,10.121 z m 52.32,177.219 101.05,-414.758 -29.98,-7.301 -7.68,38.039 -0.93,0.102 c -2.56,-30.461 -21.05,-49.883 -55.46,-58.262 -31.4,-7.648 -55.49,-2.039 -72.27,16.84 -16.77,18.879 -32.36,57.89 -46.77,117.039 -13.28,54.492 -16.71,93.73 -10.3,117.723 6.4,23.98 24.52,39.609 54.36,46.878 37.27,9.071 62.8,0.809 76.6,-24.789 l 0.49,0.758 -39.09,160.442 29.98,7.289" /><path
         id="path140"
         style="fill:none;stroke:#231f20;stroke-width:7;stroke-linecap:butt;stroke-linejoin:miter;stroke-miterlimit:10;stroke-dasharray:none;stroke-opacity:1"
         d="m 3276.95,649.461 c -22.13,-5.402 -35.07,-16.231 -38.82,-32.492 -3.76,-16.258 -0.25,-46.457 10.51,-90.617 11.83,-48.61 23.23,-79.704 34.17,-93.231 10.93,-13.539 27.74,-17.539 50.45,-12.012 24.69,6.012 38.89,17.571 42.59,34.672 3.7,17.098 -0.7,51.278 -13.18,102.528 -10.12,41.531 -21.04,68.543 -32.78,81.031 -11.74,12.48 -29.39,15.851 -52.94,10.121 z m 52.32,177.219 101.05,-414.758 -29.98,-7.301 -7.68,38.039 -0.93,0.102 c -2.56,-30.461 -21.05,-49.883 -55.46,-58.262 -31.4,-7.648 -55.49,-2.039 -72.27,16.84 -16.77,18.879 -32.36,57.89 -46.77,117.039 -13.28,54.492 -16.71,93.73 -10.3,117.723 6.4,23.98 24.52,39.609 54.36,46.878 37.27,9.071 62.8,0.809 76.6,-24.789 l 0.49,0.758 -39.09,160.442 z" /><path
         id="path142"
         style="fill:#231f20;fill-opacity:1;fill-rule:nonzero;stroke:none"
         d="m 3778.15,697.082 30.84,13.648 6.58,-14.871 c 23.55,-53.187 31.87,-89.25 24.97,-108.14 -6.9,-18.91 -36.08,-39.739 -87.55,-62.508 -46.09,-20.402 -80.54,-21.691 -103.38,-3.871 -22.83,17.82 -53.4,70.019 -91.71,156.57 -29.96,67.692 -47.39,110.879 -52.29,129.57 -4.9,18.692 -3.73,37.852 3.5,57.461 8.49,22.911 38.61,45.821 90.34,68.719 35.07,15.52 62.1,18.25 81.09,8.192 19,-10.063 38.29,-37.211 57.86,-81.442 l 4.89,-10.5 -30.83,-13.64 -5.52,11.929 c -13.93,31.449 -26.47,50.063 -37.62,55.84 -11.16,5.793 -29.36,3.09 -54.63,-8.09 -44.33,-19.629 -69.09,-36.859 -74.27,-51.679 -5.16,-14.829 2.81,-46.071 23.9,-93.739 48.53,-109.633 80.26,-172.422 95.19,-188.383 14.94,-15.968 41.62,-15.437 80.06,1.571 36.54,16.172 57.53,30.363 62.97,42.582 5.44,12.211 0.87,34.808 -13.73,67.789 l -10.66,22.992" /><path
         id="path144"
         style="fill:none;stroke:#231f20;stroke-width:7;stroke-linecap:butt;stroke-linejoin:miter;stroke-miterlimit:10;stroke-dasharray:none;stroke-opacity:1"
         d="m 3778.15,697.082 30.84,13.648 6.58,-14.871 c 23.55,-53.187 31.87,-89.25 24.97,-108.14 -6.9,-18.91 -36.08,-39.739 -87.55,-62.508 -46.09,-20.402 -80.54,-21.691 -103.38,-3.871 -22.83,17.82 -53.4,70.019 -91.71,156.57 -29.96,67.692 -47.39,110.879 -52.29,129.57 -4.9,18.692 -3.73,37.852 3.5,57.461 8.49,22.911 38.61,45.821 90.34,68.719 35.07,15.52 62.1,18.25 81.09,8.192 19,-10.063 38.29,-37.211 57.86,-81.442 l 4.89,-10.5 -30.83,-13.64 -5.52,11.929 c -13.93,31.449 -26.47,50.063 -37.62,55.84 -11.16,5.793 -29.36,3.09 -54.63,-8.09 -44.33,-19.629 -69.09,-36.859 -74.27,-51.679 -5.16,-14.829 2.81,-46.071 23.9,-93.739 48.53,-109.633 80.26,-172.422 95.19,-188.383 14.94,-15.968 41.62,-15.437 80.06,1.571 36.54,16.172 57.53,30.363 62.97,42.582 5.44,12.211 0.87,34.808 -13.73,67.789 z" /><path
         id="path146"
         style="fill:#231f20;fill-opacity:1;fill-rule:nonzero;stroke:none"
         d="m 3788.59,879.621 26.68,15.5 14.62,-31.289 1.04,-0.48 c -3.6,30.457 6.73,52.75 31,66.847 33.53,19.492 64.56,4.723 93.06,-44.308 l 10.17,-17.961 -26.3,-15.282 -3.19,6.821 c -3.6,7.07 -6.09,11.781 -7.44,14.133 -15.4,26.5 -33.27,33.828 -53.6,22.027 -29.72,-17.289 -29.45,-51.981 0.82,-104.07 l 90.05,-154.93 -26.68,-15.508 -150.23,258.5" /><path
         id="path148"
         style="fill:none;stroke:#231f20;stroke-width:7;stroke-linecap:butt;stroke-linejoin:miter;stroke-miterlimit:10;stroke-dasharray:none;stroke-opacity:1"
         d="m 3788.59,879.621 26.68,15.5 14.62,-31.289 1.04,-0.48 c -3.6,30.457 6.73,52.75 31,66.847 33.53,19.492 64.56,4.723 93.06,-44.308 l 10.17,-17.961 -26.3,-15.282 -3.19,6.821 c -3.6,7.07 -6.09,11.781 -7.44,14.133 -15.4,26.5 -33.27,33.828 -53.6,22.027 -29.72,-17.289 -29.45,-51.981 0.82,-104.07 l 90.05,-154.93 -26.68,-15.508 z" /><path
         id="path150"
         style="fill:#231f20;fill-opacity:1;fill-rule:nonzero;stroke:none"
         d="m 4139.22,960.23 -8.41,11.282 c -18.91,26.199 -34.25,41.038 -46,44.518 -11.75,3.46 -27.7,-2.06 -47.83,-16.589 -20.26,-14.632 -30.06,-28.73 -29.43,-42.281 0.64,-13.551 12.18,-35.89 34.64,-66.988 z m 49.8,-68.98 25.56,18.449 6.58,-8.738 c 18.18,-25.199 25.51,-46.711 21.99,-64.551 -3.52,-17.84 -18.8,-36.531 -45.85,-56.051 -31.45,-22.699 -57.98,-29.449 -79.58,-20.23 -21.61,9.223 -51.27,39.941 -88.97,92.18 -34.91,48.351 -53.39,84.371 -55.46,108.082 -2.07,23.699 11.3,45.959 40.13,66.779 31.46,22.7 57.26,30.4 77.4,23.09 20.14,-7.33 46.87,-34.06 80.18,-80.209 l 13.73,-19.012 -122.95,-88.758 c 27.58,-38.222 48.05,-60.472 61.39,-66.781 13.35,-6.309 30.62,-1.809 51.83,13.512 20.13,14.527 31.41,26.457 33.82,35.789 2.43,9.32 -2.35,22.281 -14.31,38.84 l -5.49,7.609" /><path
         id="path152"
         style="fill:none;stroke:#231f20;stroke-width:7;stroke-linecap:butt;stroke-linejoin:miter;stroke-miterlimit:10;stroke-dasharray:none;stroke-opacity:1"
         d="m 4139.22,960.23 -8.41,11.282 c -18.91,26.199 -34.25,41.038 -46,44.518 -11.75,3.46 -27.7,-2.06 -47.83,-16.589 -20.26,-14.632 -30.06,-28.73 -29.43,-42.281 0.64,-13.551 12.18,-35.89 34.64,-66.988 z m 49.8,-68.98 25.56,18.449 6.58,-8.738 c 18.18,-25.199 25.51,-46.711 21.99,-64.551 -3.52,-17.84 -18.8,-36.531 -45.85,-56.051 -31.45,-22.699 -57.98,-29.449 -79.58,-20.23 -21.61,9.223 -51.27,39.941 -88.97,92.18 -34.91,48.351 -53.39,84.371 -55.46,108.082 -2.07,23.699 11.3,45.959 40.13,66.779 31.46,22.7 57.26,30.4 77.4,23.09 20.14,-7.33 46.87,-34.06 80.18,-80.209 l 13.73,-19.012 -122.95,-88.758 c 27.58,-38.222 48.05,-60.472 61.39,-66.781 13.35,-6.309 30.62,-1.809 51.83,13.512 20.13,14.527 31.41,26.457 33.82,35.789 2.43,9.32 -2.35,22.281 -14.31,38.84 z" /><path
         id="path154"
         style="fill:#231f20;fill-opacity:1;fill-rule:nonzero;stroke:none"
         d="m 4311.24,1166.94 -22.95,-20.62 c -13.94,15.51 -24.8,23.14 -32.56,22.88 -7.78,-0.25 -20.84,-8.63 -39.21,-25.13 -17.05,-15.32 -26.1,-27.02 -27.13,-35.09 -1.04,-8.09 5.2,-19.65 18.71,-34.69 20.49,-22.8 38.93,-27.82 55.31,-15.06 l 19.78,15.24 24.91,19.44 c 30.23,23.51 63.4,15.19 99.48,-24.98 22.43,-24.97 33.13,-46.33 32.09,-64.08 -1.04,-17.76 -14.08,-37.881 -39.11,-60.362 -25.68,-23.078 -47.33,-34.539 -64.95,-34.386 -17.62,0.148 -37.01,12.007 -58.19,35.589 l -10.71,12.239 23.77,21.359 9.57,-10.32 c 13.11,-14.578 24.47,-21.957 34.11,-22.129 9.63,-0.168 22.15,6.672 37.57,20.519 18.91,16.981 29.05,30.711 30.4,41.181 1.36,10.47 -5.27,23.84 -19.91,40.13 -21.03,23.42 -39.04,28.4 -54.02,14.95 -34.87,-31.32 -61.55,-47.73 -80.06,-49.22 -18.52,-1.5 -39.61,10.93 -63.3,37.3 -22.43,24.97 -33.03,45.51 -31.8,61.61 1.24,16.11 14.81,35.8 40.71,59.07 41.54,37.32 78.27,38.22 110.17,2.7 l 7.32,-8.14" /><path
         id="path156"
         style="fill:none;stroke:#231f20;stroke-width:7;stroke-linecap:butt;stroke-linejoin:miter;stroke-miterlimit:10;stroke-dasharray:none;stroke-opacity:1"
         d="m 4311.24,1166.94 -22.95,-20.62 c -13.94,15.51 -24.8,23.14 -32.56,22.88 -7.78,-0.25 -20.84,-8.63 -39.21,-25.13 -17.05,-15.32 -26.1,-27.02 -27.13,-35.09 -1.04,-8.09 5.2,-19.65 18.71,-34.69 20.49,-22.8 38.93,-27.82 55.31,-15.06 l 19.78,15.24 24.91,19.44 c 30.23,23.51 63.4,15.19 99.48,-24.98 22.43,-24.97 33.13,-46.33 32.09,-64.08 -1.04,-17.76 -14.08,-37.881 -39.11,-60.362 -25.68,-23.078 -47.33,-34.539 -64.95,-34.386 -17.62,0.148 -37.01,12.007 -58.19,35.589 l -10.71,12.239 23.77,21.359 9.57,-10.32 c 13.11,-14.578 24.47,-21.957 34.11,-22.129 9.63,-0.168 22.15,6.672 37.57,20.519 18.91,16.981 29.05,30.711 30.4,41.181 1.36,10.47 -5.27,23.84 -19.91,40.13 -21.03,23.42 -39.04,28.4 -54.02,14.95 -34.87,-31.32 -61.55,-47.73 -80.06,-49.22 -18.52,-1.5 -39.61,10.93 -63.3,37.3 -22.43,24.97 -33.03,45.51 -31.8,61.61 1.24,16.11 14.81,35.8 40.71,59.07 41.54,37.32 78.27,38.22 110.17,2.7 z" /><path
         id="path158"
         style="fill:#231f20;fill-opacity:1;fill-rule:nonzero;stroke:none"
         d="m 4540.32,1247.01 20.67,22.91 12.22,-10.73 c 47.52,-42.89 51.48,-86.26 11.9,-130.11 -25.4,-28.14 -49.69,-39.96 -72.87,-35.46 -23.18,4.49 -58.23,27.91 -105.13,70.24 -43.95,39.67 -69.62,71.2 -77.02,94.6 -7.38,23.4 0.59,48.03 23.92,73.88 22.94,25.41 43.9,37.96 62.87,37.67 18.96,-0.3 43.08,-13.65 72.33,-40.05 l -20.67,-22.91 -5.81,5.25 c -17.18,15.5 -31.34,22.84 -42.48,22.01 -11.14,-0.83 -24.79,-10.2 -40.93,-28.08 -15.56,-17.23 -20.14,-33.2 -13.73,-47.89 6.41,-14.69 28.49,-39.07 66.25,-73.15 36.84,-33.25 62.82,-51.61 77.95,-55.07 15.14,-3.47 32,5.12 50.62,25.73 15.75,17.45 22.45,31.49 20.1,42.12 -2.34,10.63 -15.74,26.97 -40.19,49.04" /><path
         id="path160"
         style="fill:none;stroke:#231f20;stroke-width:7;stroke-linecap:butt;stroke-linejoin:miter;stroke-miterlimit:10;stroke-dasharray:none;stroke-opacity:1"
         d="m 4540.32,1247.01 20.67,22.91 12.22,-10.73 c 47.52,-42.89 51.48,-86.26 11.9,-130.11 -25.4,-28.14 -49.69,-39.96 -72.87,-35.46 -23.18,4.49 -58.23,27.91 -105.13,70.24 -43.95,39.67 -69.62,71.2 -77.02,94.6 -7.38,23.4 0.59,48.03 23.92,73.88 22.94,25.41 43.9,37.96 62.87,37.67 18.96,-0.3 43.08,-13.65 72.33,-40.05 l -20.67,-22.91 -5.81,5.25 c -17.18,15.5 -31.34,22.84 -42.48,22.01 -11.14,-0.83 -24.79,-10.2 -40.93,-28.08 -15.56,-17.23 -20.14,-33.2 -13.73,-47.89 6.41,-14.69 28.49,-39.07 66.25,-73.15 36.84,-33.25 62.82,-51.61 77.95,-55.07 15.14,-3.47 32,5.12 50.62,25.73 15.75,17.45 22.45,31.49 20.1,42.12 -2.34,10.63 -15.74,26.97 -40.19,49.04 z" /><path
         id="path162"
         style="fill:#231f20;fill-opacity:1;fill-rule:nonzero;stroke:none"
         d="m 4638.29,1485.82 -11.54,8.08 c -26.18,18.94 -45.4,28.22 -57.64,27.83 -12.25,-0.39 -25.65,-10.64 -40.21,-30.76 -14.64,-20.25 -19.53,-36.7 -14.68,-49.37 4.87,-12.67 22.84,-30.25 53.91,-52.74 z m 68.91,-49.86 18.48,25.54 9,-6.23 c 25.17,-18.22 38.88,-36.35 41.14,-54.39 2.25,-18.05 -6.39,-40.59 -25.94,-67.61 -22.75,-31.42 -45.81,-46.16 -69.22,-44.19 -23.41,1.98 -61.21,21.85 -113.41,59.61 -48.31,34.95 -77.17,63.35 -86.57,85.22 -9.42,21.85 -3.69,47.19 17.15,76 22.74,31.43 44.82,46.83 66.24,46.21 21.42,-0.63 55.19,-17.62 101.31,-50.99 l 19,-13.75 -88.89,-122.86 c 38.18,-27.62 64.59,-42.34 79.24,-44.13 14.66,-1.81 29.64,7.89 44.97,29.08 14.56,20.12 21.53,34.98 20.89,44.6 -0.63,9.62 -9.23,20.42 -25.78,32.39 l -7.61,5.5" /><path
         id="path164"
         style="fill:none;stroke:#231f20;stroke-width:7;stroke-linecap:butt;stroke-linejoin:miter;stroke-miterlimit:10;stroke-dasharray:none;stroke-opacity:1"
         d="m 4638.29,1485.82 -11.54,8.08 c -26.18,18.94 -45.4,28.22 -57.64,27.83 -12.25,-0.39 -25.65,-10.64 -40.21,-30.76 -14.64,-20.25 -19.53,-36.7 -14.68,-49.37 4.87,-12.67 22.84,-30.25 53.91,-52.74 z m 68.91,-49.86 18.48,25.54 9,-6.23 c 25.17,-18.22 38.88,-36.35 41.14,-54.39 2.25,-18.05 -6.39,-40.59 -25.94,-67.61 -22.75,-31.42 -45.81,-46.16 -69.22,-44.19 -23.41,1.98 -61.21,21.85 -113.41,59.61 -48.31,34.95 -77.17,63.35 -86.57,85.22 -9.42,21.85 -3.69,47.19 17.15,76 22.74,31.43 44.82,46.83 66.24,46.21 21.42,-0.63 55.19,-17.62 101.31,-50.99 l 19,-13.75 -88.89,-122.86 c 38.18,-27.62 64.59,-42.34 79.24,-44.13 14.66,-1.81 29.64,7.89 44.97,29.08 14.56,20.12 21.53,34.98 20.89,44.6 -0.63,9.62 -9.23,20.42 -25.78,32.39 z" /><path
         id="path166"
         style="fill:#231f20;fill-opacity:1;fill-rule:nonzero;stroke:none"
         d="m 4588.46,1633.61 14.65,25.9 34.96,-20.78 1.25,0.31 c -22.06,23.27 -23.9,51.15 -5.54,83.64 14.83,26.23 31.39,40.28 49.7,42.17 18.31,1.88 45.99,-7.63 83.01,-28.57 l 169.34,-95.72 -15.18,-26.86 -166.07,93.87 -9.81,5.55 c -22.32,12.61 -39.04,18.09 -50.16,16.44 -11.11,-1.65 -21.51,-11.04 -31.2,-28.18 -21.33,-37.75 -6.67,-70.92 43.97,-99.54 l 156.55,-88.49 -15.18,-26.86 -260.29,147.12" /><path
         id="path168"
         style="fill:none;stroke:#231f20;stroke-width:7;stroke-linecap:butt;stroke-linejoin:miter;stroke-miterlimit:10;stroke-dasharray:none;stroke-opacity:1"
         d="m 4588.46,1633.61 14.65,25.9 34.96,-20.78 1.25,0.31 c -22.06,23.27 -23.9,51.15 -5.54,83.64 14.83,26.23 31.39,40.28 49.7,42.17 18.31,1.88 45.99,-7.63 83.01,-28.57 l 169.34,-95.72 -15.18,-26.86 -166.07,93.87 -9.81,5.55 c -22.32,12.61 -39.04,18.09 -50.16,16.44 -11.11,-1.65 -21.51,-11.04 -31.2,-28.18 -21.33,-37.75 -6.67,-70.92 43.97,-99.54 l 156.55,-88.49 -15.18,-26.86 z" /><path
         id="path170"
         style="fill:#231f20;fill-opacity:1;fill-rule:nonzero;stroke:none"
         d="m 4748.48,1947.59 33.1,-14.85 -33.21,-74.01 166.93,-74.89 c 29.1,-13.06 47.74,-10.47 55.93,7.76 8.11,18.1 -0.85,32.99 -26.92,44.69 l -13.32,6.22 -14.94,7.19 11.73,26.14 20.35,-8.89 c 53.64,-24.07 72.4,-54.07 56.29,-89.99 -16.67,-37.14 -47.34,-45.68 -92.05,-25.62 l -9.71,4.35 -166.92,74.9 -11.91,-26.55 -33.09,14.85 11.9,26.54 -65.62,29.45 12.62,28.15 65.64,-29.44 33.2,74" /><path
         id="path172"
         style="fill:none;stroke:#231f20;stroke-width:7;stroke-linecap:butt;stroke-linejoin:miter;stroke-miterlimit:10;stroke-dasharray:none;stroke-opacity:1"
         d="m 4748.48,1947.59 33.1,-14.85 -33.21,-74.01 166.93,-74.89 c 29.1,-13.06 47.74,-10.47 55.93,7.76 8.11,18.1 -0.85,32.99 -26.92,44.69 l -13.32,6.22 -14.94,7.19 11.73,26.14 20.35,-8.89 c 53.64,-24.07 72.4,-54.07 56.29,-89.99 -16.67,-37.14 -47.34,-45.68 -92.05,-25.62 l -9.71,4.35 -166.92,74.9 -11.91,-26.55 -33.09,14.85 11.9,26.54 -65.62,29.45 12.62,28.15 65.64,-29.44 z" /></g></g></svg>