<?xml version="1.0" encoding="UTF-8" standalone="no"?>
<svg
   xmlns:dc="http://purl.org/dc/elements/1.1/"
   xmlns:cc="http://creativecommons.org/ns#"
   xmlns:rdf="http://www.w3.org/1999/02/22-rdf-syntax-ns#"
   xmlns:svg="http://www.w3.org/2000/svg"
   xmlns="http://www.w3.org/2000/svg"
   viewBox="0 0 608.17334 608.17334"
   height="608.17334"
   width="608.17334"
   xml:space="preserve"
   id="svg2"
   version="1.1"><metadata
     id="metadata8"><rdf:RDF><cc:Work
         rdf:about=""><dc:format>image/svg+xml</dc:format><dc:type
           rdf:resource="http://purl.org/dc/dcmitype/StillImage" /><dc:title></dc:title></cc:Work></rdf:RDF></metadata><defs
     id="defs6" /><g
     transform="matrix(1.3333333,0,0,-1.3333333,0,608.17333)"
     id="g10"><g
       transform="scale(0.1)"
       id="g12"><path
         id="path14"
         style="fill:none;stroke:#231f20;stroke-width:90;stroke-linecap:butt;stroke-linejoin:miter;stroke-miterlimit:10;stroke-dasharray:none;stroke-opacity:1"
         d="m 791.16,2280.66 c 0,822.61 666.87,1489.48 1489.49,1489.48 822.63,0 1489.5,-666.87 1489.5,-1489.48 0,-822.62 -666.87,-1489.488 -1489.5,-1489.488 -822.62,0 -1489.49,666.868 -1489.49,1489.488 z M 45,2280.65 c 0,1234.72 1000.94,2235.66 2235.65,2235.66 1234.72,0 2235.65,-1000.94 2235.65,-2235.66 C 4516.3,1045.94 3515.37,45 2280.65,45 1045.94,45 45,1045.94 45,2280.65 Z" /><path
         id="path16"
         style="fill:#231f20;fill-opacity:1;fill-rule:nonzero;stroke:none"
         d="m 1078.6,3548.03 -33.14,-31.78 33.8,-35.24 72.2,69.24 -266.706,278.09 -39.082,-37.47 232.928,-242.84" /><path
         id="path18"
         style="fill:#231f20;fill-opacity:1;fill-rule:nonzero;stroke:none"
         d="m 1546.45,3707.89 53.97,26.11 -21.57,44.67 -54,-26.08 21.6,-44.7" /><path
         id="path20"
         style="fill:#231f20;fill-opacity:1;fill-rule:nonzero;stroke:none"
         d="m 1470.46,3671.17 54.25,26.23 -21.61,44.67 -54.23,-26.22 21.59,-44.68" /><path
         id="path22"
         style="fill:#231f20;fill-opacity:1;fill-rule:nonzero;stroke:none"
         d="m 2032.49,4007.89 -33.25,170.86 -52.6,-10.24 42.08,-216.17 c 1.88,-9.71 0.57,-17.45 -4,-23.23 -4.55,-5.75 -15.45,-10.3 -32.61,-13.63 l 7.6,-39.07 22.91,4.46 c 13.17,2.57 22.93,5.33 29.17,8.37 12.38,6.01 21.22,16.03 26.6,30.05 4.89,12.85 6.05,26.41 3.43,40.66 l 25.01,4.86 -9.33,47.95 -25.01,-4.87" /><path
         id="path24"
         style="fill:#231f20;fill-opacity:1;fill-rule:nonzero;stroke:none"
         d="m 1839.52,3969.23 -85.74,-21.49 11.89,-47.39 138.23,34.66 -54.24,216.21 -52.49,-13.16 42.35,-168.83" /><path
         id="path26"
         style="fill:#231f20;fill-opacity:1;fill-rule:nonzero;stroke:none"
         d="m 2753.29,3956.3 -10.5,-47.7 15.53,-4.77 17.39,45.63 -22.42,6.84" /><path
         id="path28"
         style="fill:#231f20;fill-opacity:1;fill-rule:nonzero;stroke:none"
         d="m 1818.83,3831.37 58.44,14.65 -12.07,48.11 -58.43,-14.64 12.06,-48.12" /><path
         id="path30"
         style="fill:#231f20;fill-opacity:1;fill-rule:nonzero;stroke:none"
         d="m 1717.05,3937.28 -30.15,62.36 c -19.94,41.25 -49.67,52.33 -89.16,33.24 l -174.78,-84.74 21.36,-44.22 47.21,23.11 c 11.61,5.61 21.55,7.32 29.8,5.12 8.23,-2.21 14.74,-8.25 19.53,-18.12 l 24.23,-50.19 -197.11,-95.26 -61.63,128.2 c -35.05,-16.96 -42.95,-45.33 -23.71,-85.15 l 54.39,-112.53 298.63,144.32 -60.04,124.25 18.63,9 c 23.26,11.26 39.71,6.92 49.31,-13 l 45.5,-94.17 76.61,30.85 -11.89,47.39 -36.73,-10.46" /><path
         id="path32"
         style="fill:#231f20;fill-opacity:1;fill-rule:nonzero;stroke:none"
         d="m 1192.71,3585.12 42.7,33.23 -236.738,304.02 -42.707,-33.26 236.745,-303.99" /><path
         id="path34"
         style="fill:#231f20;fill-opacity:1;fill-rule:nonzero;stroke:none"
         d="m 510.426,2812.12 -13.473,-61.42 -109.012,24.36 5.895,26.42 c 3.625,16.24 15.453,22.11 35.484,17.63 l 25.891,-5.78 11.867,53.08 -49.726,11.1 c -36.094,8.08 -57.559,-3.26 -64.414,-33.98 l -24.727,-110.59 204.844,-45.79 19.254,87.35 c 5.632,25.19 19.211,35.38 40.816,30.56 l 23.297,-5.21 -47.688,-213.37 -139.312,31.14 c -5.5,-35.96 11.738,-59.75 51.715,-71.39 l 122.746,-27.46 72.383,323.72 -84.375,19.12 c -44.836,10.22 -72.012,-6.29 -81.465,-49.49" /><path
         id="path36"
         style="fill:#231f20;fill-opacity:1;fill-rule:nonzero;stroke:none"
         d="m 704.73,2604.99 13.165,58.78 -48.43,10.84 -13.152,-58.79 48.417,-10.83" /><path
         id="path38"
         style="fill:#231f20;fill-opacity:1;fill-rule:nonzero;stroke:none"
         d="m 2308.4,4022.56 1.24,-48.83 20.03,0.7 2.74,48.77 -24.01,-0.64" /><path
         id="path40"
         style="fill:#231f20;fill-opacity:1;fill-rule:nonzero;stroke:none"
         d="m 2057.5,4012.76 9.33,-47.95 17.85,3.21 -1.24,48.81 -25.94,-4.07" /><path
         id="path42"
         style="fill:#231f20;fill-opacity:1;fill-rule:nonzero;stroke:none"
         d="m 1732.38,3938.92 15.46,-41 17.83,2.43 -11.89,47.39 -21.4,-8.82" /><path
         id="path44"
         style="fill:#231f20;fill-opacity:1;fill-rule:nonzero;stroke:none"
         d="m 3543.8,3945.25 -26.66,21.06 17.62,22.27 c 2.73,-1.93 5.01,-3.64 6.8,-5.06 2.93,-2.29 4.63,-4.06 5.1,-5.35 0.46,-1.25 0.08,-2.67 -1.12,-4.2 l -7.24,-9.15 12.91,-10.19 9.04,11.43 c 6.82,8.59 6.52,15.84 -0.81,21.64 l -28.3,22.38 -26.7,-33.72 -9.15,7.23 -9.05,-11.45 48.51,-38.35 9.05,11.46" /><path
         id="path46"
         style="fill:#231f20;fill-opacity:1;fill-rule:nonzero;stroke:none"
         d="m 707.715,2924.85 c 9.234,-3.57 15.086,-8.83 17.551,-15.74 2.461,-6.93 0.519,-18.56 -5.786,-34.88 l 37.141,-14.33 8.383,21.77 c 4.851,12.56 7.687,22.29 8.434,29.19 1.546,13.82 -2.383,26.79 -11.731,38.95 -8.449,11.04 -19.508,19.18 -33.219,24.47 l -206.972,79.79 -19.27,-50.01 205.469,-79.21" /><path
         id="path48"
         style="fill:#231f20;fill-opacity:1;fill-rule:nonzero;stroke:none"
         d="m 1011.69,3480.08 -135.471,109.3 -33.992,-42.15 135.492,-109.28 -29.332,-36.35 -135.473,109.28 -33.836,-41.93 135.488,-109.27 -32.324,-40.07 -135.472,109.29 -33.825,-41.93 135.473,-109.28 -30.813,-38.22 38.004,-30.65 205.251,254.43 -38,30.65 -11.17,-13.82" /><path
         id="path50"
         style="fill:#231f20;fill-opacity:1;fill-rule:nonzero;stroke:none"
         d="m 1022.86,3493.9 38,-30.65 18.4,17.76 -33.8,35.24 -22.6,-22.35" /><path
         id="path52"
         style="fill:#231f20;fill-opacity:1;fill-rule:nonzero;stroke:none"
         d="m 768.449,3155.51 -29.289,-48.64 -80.914,48.74 c -17.574,10.6 -21.226,24.46 -10.91,41.59 l 13.82,22.95 z m 28.063,46.6 -149.102,89.81 -55.027,-91.37 c -20.262,-33.64 -13.414,-60.68 20.519,-81.12 l 140.028,-84.34 57.363,95.22 c 2.437,-1.04 4.652,-2.17 6.613,-3.36 14.395,-8.67 16.731,-21.12 6.965,-37.34 l -43.297,-71.81 32.074,-19.31 60.379,100.25 c 16.895,28.03 7.895,52.52 -26.953,73.52 l -7.719,4.64 17.254,31.92 -38.004,30.65 -21.093,-37.36" /><path
         id="path54"
         style="fill:#231f20;fill-opacity:1;fill-rule:nonzero;stroke:none"
         d="m 723.145,2687.34 13.097,58.52 -48.437,10.83 -13.078,-58.52 48.418,-10.83" /><path
         id="path56"
         style="fill:#231f20;fill-opacity:1;fill-rule:nonzero;stroke:none"
         d="m 3656.95,3324.08 -51.68,65 137.53,109.33 c -8.6,10.81 -21.64,16.45 -39.06,16.93 -17.48,0.48 -31.73,-3.68 -42.8,-12.48 l -127.74,-101.59 119.38,-150.17 302.02,240.13 -33.85,42.58 -263.8,-209.73" /><path
         id="path58"
         style="fill:#231f20;fill-opacity:1;fill-rule:nonzero;stroke:none"
         d="m 3823.38,3057.99 291.24,168.52 -27.12,46.84 -291.23,-168.52 -34.01,58.81 c 8.96,-10.55 23.09,-10.24 42.37,0.92 l 258.62,149.67 -27.11,46.81 -252.17,-145.93 -16.63,-8.36 c -10.43,-4.22 -17.34,-5.84 -20.72,-4.95 -4.73,0.76 -7.98,2.63 -9.75,5.69 l -10.79,18.64 -42.27,-24.46 105.54,-182.38 42.26,24.47 -8.23,14.23" /><path
         id="path60"
         style="fill:#231f20;fill-opacity:1;fill-rule:nonzero;stroke:none"
         d="m 3414.7,3522.29 39.2,-37.33 265.78,278.96 -39.19,37.35 -265.79,-278.98" /><path
         id="path62"
         style="fill:#231f20;fill-opacity:1;fill-rule:nonzero;stroke:none"
         d="m 3893.76,2883.43 -9.97,29.66 17.32,19.26 47.04,15.84 c 15.08,5.06 24.97,0.65 29.64,-13.28 4.7,-13.89 -0.6,-23.41 -15.85,-28.54 z m 49.79,-147.91 127.5,42.91 c 43.26,14.55 57.88,42.37 43.89,83.37 l -53.05,157.68 -31.44,-10.58 33.27,-98.82 c 15.51,-46.1 5.08,-75.3 -31.3,-87.54 l -106.13,-35.71 -15.16,45.03 90.29,30.37 c 28.01,9.45 37.19,28.47 27.54,57.17 l -21.08,62.62 c -8.41,24.97 -25.01,33.25 -49.84,24.92 l -70.93,-23.89 -20.08,-20.19 -15.43,45.8 -46.25,-15.57 102.66,-319.89 47.98,9.04 -12.44,53.28" /><path
         id="path64"
         style="fill:#231f20;fill-opacity:1;fill-rule:nonzero;stroke:none"
         d="m 3964.58,2636.59 -8.59,45.65 -47.98,-9.04 18.59,-98.83 378.67,71.17 -10,53.2 -330.69,-62.15" /><path
         id="path66"
         style="fill:#231f20;fill-opacity:1;fill-rule:nonzero;stroke:none"
         d="m 4318.57,2571.19 -385.79,-48.6 6.76,-53.71 385.81,48.6 -6.78,53.71" /><path
         id="path68"
         style="fill:#231f20;fill-opacity:1;fill-rule:nonzero;stroke:none"
         d="m 3357.96,3633.14 -53.29,42.13 c 12.22,-6.5 25.25,-1.02 39.08,16.45 l 185.31,234.39 -42.46,33.59 -180.71,-228.57 -12.35,-13.91 c -8.17,-7.73 -14.01,-11.82 -17.48,-12.22 -4.62,-1.05 -8.37,-0.46 -11.16,1.73 l -16.84,13.31 -30.3,-38.32 152.37,-120.47 238.98,302.26 -42.46,33.56 -208.69,-263.93" /><path
         id="path70"
         style="fill:#231f20;fill-opacity:1;fill-rule:nonzero;stroke:none"
         d="m 2479.03,3961.49 53.74,-6.52 46.39,382.51 -53.77,6.52 -46.36,-382.51" /><path
         id="path72"
         style="fill:#231f20;fill-opacity:1;fill-rule:nonzero;stroke:none"
         d="m 3831.61,3043.76 -42.26,-24.47 16,-26.2 46.25,15.57 -19.99,35.1" /><path
         id="path74"
         style="fill:#231f20;fill-opacity:1;fill-rule:nonzero;stroke:none"
         d="m 2965.63,3877.1 -17.4,-45.65 14.78,-7.32 21.99,43.63 -19.37,9.34" /><path
         id="path76"
         style="fill:#231f20;fill-opacity:1;fill-rule:nonzero;stroke:none"
         d="m 2378.77,4020.59 -46.36,2.61 -2.74,-48.77 100.38,-5.67 21.72,384.72 -54.04,3.04 -18.96,-335.93" /><path
         id="path78"
         style="fill:#231f20;fill-opacity:1;fill-rule:nonzero;stroke:none"
         d="m 2202.28,4019.86 -26.41,36.48 -2.24,88.09 27.05,0.69 c 16.65,0.42 25.21,-9.63 25.73,-30.14 l 0.92,-36.33 54.38,1.35 -1.55,60.49 c -0.92,36.96 -17.14,55.03 -48.61,54.24 l -113.26,-2.89 3.56,-139.77 21.56,-33.71 -59.97,-1.53 1.24,-48.81 224.96,5.71 -1.24,48.83 -106.12,-2.7" /><path
         id="path80"
         style="fill:#231f20;fill-opacity:1;fill-rule:nonzero;stroke:none"
         d="m 2864.98,3915.46 c -8.31,6 -10.12,15.22 -5.39,27.61 l 36.67,96.22 29.01,-11.07 c 13.04,-4.96 17.25,-13.58 12.59,-25.81 l -30.8,-80.84 c -0.7,-1.26 -1.23,-2.46 -1.66,-3.62 -2.27,-5.97 -1.62,-12.16 1.97,-18.65 z m 94.96,-36.19 c -6.3,2.38 -7.94,7.47 -4.97,15.25 l 42.14,110.58 c 10.28,26.94 2.85,45.19 -22.28,54.78 l -112.35,42.8 -61.99,-162.64 -24.78,9.42 -17.39,-45.63 189.91,-72.38 17.4,45.65 -5.69,2.17" /><path
         id="path82"
         style="fill:#231f20;fill-opacity:1;fill-rule:nonzero;stroke:none"
         d="m 3173.26,3806.75 33.89,66.72 c 21.1,41.49 9.61,73.33 -34.46,95.53 l -82.24,41.45 -32.59,-64.69 45.98,-23.19 12.42,24.66 16.36,-8.26 c 25.56,-12.9 31.8,-32.19 18.67,-57.84 l -25.64,-50.36 c -6.93,-13.74 -7.44,-24.77 -1.55,-33.1 l -139.1,70.09 -21.99,-43.63 199.32,-100.4 21.97,43.61 c -16.54,8.14 -20.18,21.26 -11.04,39.41" /><path
         id="path84"
         style="fill:#231f20;fill-opacity:1;fill-rule:nonzero;stroke:none"
         d="m 2728.44,3961.77 37.45,169.99 -52.36,11.55 -47.39,-215.09 c -2.12,-9.67 -6.43,-16.24 -12.87,-19.71 -6.49,-3.47 -18.28,-3.31 -35.4,0.45 l -8.55,-38.86 22.8,-5.04 c 13.16,-2.88 23.2,-4.2 30.12,-3.91 13.71,0.6 25.85,6.27 36.37,16.99 9.56,9.84 16.03,21.83 19.34,35.94 l 24.84,-5.48 10.5,47.7 -24.85,5.47" /><path
         id="path86"
         style="fill:#231f20;fill-opacity:1;fill-rule:nonzero;stroke:none"
         d="m 742.918,1434.86 -12.125,24.93 c 25.434,12.37 40.121,23.21 44.074,32.52 3.949,9.32 0.543,25.05 -10.242,47.2 -12.781,26.29 -24.297,41.64 -34.551,46.05 -10.25,4.43 -26.699,1.12 -49.363,-9.9 -25.426,-12.37 -39.465,-22.89 -42.106,-31.56 -2.636,-8.67 2.211,-28.27 14.594,-58.79 14.688,-35.7 19.16,-60.76 13.406,-75.18 -5.753,-14.42 -26.593,-30.36 -62.5,-47.83 -38.839,-18.89 -66.593,-25.71 -83.257,-20.45 -16.66,5.26 -33.973,26.36 -51.938,63.28 -15.586,32.06 -20.219,56.16 -13.883,72.34 6.328,16.17 26.914,32.73 61.746,49.68 l 14.024,7.02 12.125,-24.93 -7.859,-3.83 c -28.204,-13.72 -44.266,-25.28 -48.157,-34.7 -3.902,-9.42 0.254,-26.67 12.453,-51.77 14.008,-28.78 26.043,-44.81 36.121,-48.11 10.086,-3.29 29.997,2.3 59.747,16.77 19.269,9.37 31,17.86 35.211,25.48 4.191,7.63 3.425,18.9 -2.313,33.84 l -10.824,26.97 -10.203,25.67 c -14.633,39.48 3.937,71.83 55.726,97.02 35.906,17.47 62.551,23.64 79.903,18.51 17.363,-5.12 34.015,-24.08 49.972,-56.88 16.168,-33.25 21.117,-57.63 14.864,-73.17 -6.266,-15.54 -27.809,-32.26 -64.645,-50.18" /><path
         id="path88"
         style="fill:none;stroke:#231f20;stroke-width:7;stroke-linecap:butt;stroke-linejoin:miter;stroke-miterlimit:10;stroke-dasharray:none;stroke-opacity:1"
         d="m 742.918,1434.86 -12.125,24.93 c 25.434,12.37 40.121,23.21 44.074,32.52 3.949,9.32 0.543,25.05 -10.242,47.2 -12.781,26.29 -24.297,41.64 -34.551,46.05 -10.25,4.43 -26.699,1.12 -49.363,-9.9 -25.426,-12.37 -39.465,-22.89 -42.106,-31.56 -2.636,-8.67 2.211,-28.27 14.594,-58.79 14.688,-35.7 19.16,-60.76 13.406,-75.18 -5.753,-14.42 -26.593,-30.36 -62.5,-47.83 -38.839,-18.89 -66.593,-25.71 -83.257,-20.45 -16.66,5.26 -33.973,26.36 -51.938,63.28 -15.586,32.06 -20.219,56.16 -13.883,72.34 6.328,16.17 26.914,32.73 61.746,49.68 l 14.024,7.02 12.125,-24.93 -7.859,-3.83 c -28.204,-13.72 -44.266,-25.28 -48.157,-34.7 -3.902,-9.42 0.254,-26.67 12.453,-51.77 14.008,-28.78 26.043,-44.81 36.121,-48.11 10.086,-3.29 29.997,2.3 59.747,16.77 19.269,9.37 31,17.86 35.211,25.48 4.191,7.63 3.425,18.9 -2.313,33.84 l -10.824,26.97 -10.203,25.67 c -14.633,39.48 3.937,71.83 55.726,97.02 35.906,17.47 62.551,23.64 79.903,18.51 17.363,-5.12 34.015,-24.08 49.972,-56.88 16.168,-33.25 21.117,-57.63 14.864,-73.17 -6.266,-15.54 -27.809,-32.26 -64.645,-50.18 z" /><path
         id="path90"
         style="fill:#231f20;fill-opacity:1;fill-rule:nonzero;stroke:none"
         d="m 822.301,1288.07 -246.582,-95.76 c -34.762,-13.54 -60.188,-20.38 -76.27,-20.51 -16.07,-0.12 -28.226,6.43 -36.472,19.65 -1.661,2.67 -3.289,6.42 -4.891,11.25 l 25.32,15.78 c 0.977,-3.52 2.028,-6.35 3.164,-8.49 6.336,-12.13 25.016,-12.45 56.024,-0.96 l 23.097,8.63 c 0.797,0.35 3.7,1.52 8.723,3.5 l -5.082,8.16 175.469,183.16 14.277,-22.91 -78.875,-80.52 -39.18,-40.2 -19.894,-20.08 -19.586,-20.1 0.383,-0.61 25.617,10.41 25.746,10.71 51.434,20.51 103.308,41.29 14.27,-22.91" /><path
         id="path92"
         style="fill:none;stroke:#231f20;stroke-width:7;stroke-linecap:butt;stroke-linejoin:miter;stroke-miterlimit:10;stroke-dasharray:none;stroke-opacity:1"
         d="m 822.301,1288.07 -246.582,-95.76 c -34.762,-13.54 -60.188,-20.38 -76.27,-20.51 -16.07,-0.12 -28.226,6.43 -36.472,19.65 -1.661,2.67 -3.289,6.42 -4.891,11.25 l 25.32,15.78 c 0.977,-3.52 2.028,-6.35 3.164,-8.49 6.336,-12.13 25.016,-12.45 56.024,-0.96 l 23.097,8.63 c 0.797,0.35 3.7,1.52 8.723,3.5 l -5.082,8.16 175.469,183.16 14.277,-22.91 -78.875,-80.52 -39.18,-40.2 -19.894,-20.08 -19.586,-20.1 0.383,-0.61 25.617,10.41 25.746,10.71 51.434,20.51 103.308,41.29 z" /><path
         id="path94"
         style="fill:#231f20;fill-opacity:1;fill-rule:nonzero;stroke:none"
         d="m 840.066,1263.96 15.215,-20.28 -24.152,-14.94 -0.285,-0.9 c 24.527,5.86 43.707,-0.44 57.551,-18.9 19.121,-25.51 10.027,-52.25 -27.27,-80.22 l -13.687,-10.03 -14.993,20 5.262,3.27 c 5.426,3.61 9.031,6.1 10.816,7.43 20.157,15.11 24.442,30.4 12.848,45.87 -16.949,22.61 -45.242,19.06 -84.875,-10.65 l -117.871,-88.35 -15.219,20.29 196.66,147.41" /><path
         id="path96"
         style="fill:none;stroke:#231f20;stroke-width:7;stroke-linecap:butt;stroke-linejoin:miter;stroke-miterlimit:10;stroke-dasharray:none;stroke-opacity:1"
         d="m 840.066,1263.96 15.215,-20.28 -24.152,-14.94 -0.285,-0.9 c 24.527,5.86 43.707,-0.44 57.551,-18.9 19.121,-25.51 10.027,-52.25 -27.27,-80.22 l -13.687,-10.03 -14.993,20 5.262,3.27 c 5.426,3.61 9.031,6.1 10.816,7.43 20.157,15.11 24.442,30.4 12.848,45.87 -16.949,22.61 -45.242,19.06 -84.875,-10.65 l -117.871,-88.35 -15.219,20.29 z" /><path
         id="path98"
         style="fill:#231f20;fill-opacity:1;fill-rule:nonzero;stroke:none"
         d="m 1028.26,1195.2 -30.69,-26.21 -16.476,19.28 30.686,26.22 z m -79.947,-68.29 -186.883,-159.629 -16.477,19.278 186.875,159.641 16.485,-19.29" /><path
         id="path100"
         style="fill:none;stroke:#231f20;stroke-width:7;stroke-linecap:butt;stroke-linejoin:miter;stroke-miterlimit:10;stroke-dasharray:none;stroke-opacity:1"
         d="m 1028.26,1195.2 -30.69,-26.21 -16.476,19.28 30.686,26.22 z M 948.313,1126.91 761.43,967.281 744.953,986.559 931.828,1146.2 Z" /><path
         id="path102"
         style="fill:#231f20;fill-opacity:1;fill-rule:nonzero;stroke:none"
         d="m 939.582,953.77 c -13.719,13.781 -24.711,20.691 -32.973,20.742 -8.261,0.039 -19.195,-6.703 -32.8,-20.242 -14.098,-14.028 -21.379,-25.36 -21.84,-34 -0.477,-8.641 5.558,-19.258 18.078,-31.848 25.219,-25.34 48.762,-27.141 70.637,-5.383 13.718,13.66 20.511,25.313 20.351,34.941 -0.16,9.641 -7.312,21.571 -21.453,35.79 z m 10.441,67.88 -17.765,17.85 c 20.289,20.19 37.14,30.53 50.562,31 13.418,0.5 29.5,-8.68 48.25,-27.52 20.35,-20.48 29.83,-38.56 28.42,-54.281 -1.41,-15.711 -14.15,-35.527 -38.2,-59.461 L 906.273,814.82 l -17.886,17.981 20.179,17.269 -0.207,0.559 c -21.148,-7.41 -42.16,-0.617 -63.035,20.359 -30.84,30.992 -28.582,64.094 6.785,99.262 21.02,20.91 38.989,31.88 53.911,32.93 14.918,1.04 31.41,-7.52 49.468,-25.668 21.473,-21.582 28.321,-40.5 20.543,-56.75 l 0.567,-0.203 21.144,21.043 c 19.928,19.82 30.928,34.589 32.978,44.296 2.07,9.723 -3.38,21.092 -16.33,34.112 -21.984,22.08 -41.777,24.36 -59.394,6.84 -0.855,-0.84 -2.508,-2.58 -4.973,-5.2" /><path
         id="path104"
         style="fill:none;stroke:#231f20;stroke-width:7;stroke-linecap:butt;stroke-linejoin:miter;stroke-miterlimit:10;stroke-dasharray:none;stroke-opacity:1"
         d="m 939.582,953.77 c -13.719,13.781 -24.711,20.691 -32.973,20.742 -8.261,0.039 -19.195,-6.703 -32.8,-20.242 -14.098,-14.028 -21.379,-25.36 -21.84,-34 -0.477,-8.641 5.558,-19.258 18.078,-31.848 25.219,-25.34 48.762,-27.141 70.637,-5.383 13.718,13.66 20.511,25.313 20.351,34.941 -0.16,9.641 -7.312,21.571 -21.453,35.79 z m 10.441,67.88 -17.765,17.85 c 20.289,20.19 37.14,30.53 50.562,31 13.418,0.5 29.5,-8.68 48.25,-27.52 20.35,-20.48 29.83,-38.56 28.42,-54.281 -1.41,-15.711 -14.15,-35.527 -38.2,-59.461 L 906.273,814.82 l -17.886,17.981 20.179,17.269 -0.207,0.559 c -21.148,-7.41 -42.16,-0.617 -63.035,20.359 -30.84,30.992 -28.582,64.094 6.785,99.262 21.02,20.91 38.989,31.88 53.911,32.93 14.918,1.04 31.41,-7.52 49.468,-25.668 21.473,-21.582 28.321,-40.5 20.543,-56.75 l 0.567,-0.203 21.144,21.043 c 19.928,19.82 30.928,34.589 32.978,44.296 2.07,9.723 -3.38,21.092 -16.33,34.112 -21.984,22.08 -41.777,24.36 -59.394,6.84 -0.855,-0.84 -2.508,-2.58 -4.973,-5.2 z" /><path
         id="path106"
         style="fill:#231f20;fill-opacity:1;fill-rule:nonzero;stroke:none"
         d="m 1121.66,950.91 19.08,-15.301 -21.47,-25.617 0.08,-1.051 c 21.8,14.821 44.66,12.629 68.6,-6.57 19.31,-15.492 28.53,-30.789 27.63,-45.891 -0.88,-15.109 -12.26,-36.308 -34.14,-63.582 l -100.05,-124.75 -19.78,15.883 103.9,129.551 c 13.2,16.449 19.85,29.289 19.98,38.52 0.13,9.238 -6.12,18.929 -18.74,29.046 -27.81,22.293 -56.66,14.782 -86.58,-22.519 l -92.49,-115.32 -19.785,15.871 153.765,191.73" /><path
         id="path108"
         style="fill:none;stroke:#231f20;stroke-width:7;stroke-linecap:butt;stroke-linejoin:miter;stroke-miterlimit:10;stroke-dasharray:none;stroke-opacity:1"
         d="m 1121.66,950.91 19.08,-15.301 -21.47,-25.617 0.08,-1.051 c 21.8,14.821 44.66,12.629 68.6,-6.57 19.31,-15.492 28.53,-30.789 27.63,-45.891 -0.88,-15.109 -12.26,-36.308 -34.14,-63.582 l -100.05,-124.75 -19.78,15.883 103.9,129.551 c 13.2,16.449 19.85,29.289 19.98,38.52 0.13,9.238 -6.12,18.929 -18.74,29.046 -27.81,22.293 -56.66,14.782 -86.58,-22.519 l -92.49,-115.32 -19.785,15.871 z" /><path
         id="path110"
         style="fill:#231f20;fill-opacity:1;fill-rule:nonzero;stroke:none"
         d="m 1420.03,580.891 54.23,214.578 -150.05,-162.457 z m -7.09,-30.09 -109.98,59.828 -52.22,-56.18 -25.94,14.11 247.27,264.98 34.38,-18.699 -86.52,-352.418 -25.63,13.93 18.64,74.449" /><path
         id="path112"
         style="fill:none;stroke:#231f20;stroke-width:7;stroke-linecap:butt;stroke-linejoin:miter;stroke-miterlimit:10;stroke-dasharray:none;stroke-opacity:1"
         d="m 1420.03,580.891 54.23,214.578 -150.05,-162.457 z m -7.09,-30.09 -109.98,59.828 -52.22,-56.18 -25.94,14.11 247.27,264.98 34.38,-18.699 -86.52,-352.418 -25.63,13.93 z" /><path
         id="path114"
         style="fill:#231f20;fill-opacity:1;fill-rule:nonzero;stroke:none"
         d="m 1570.59,666.359 23.5,-9.57 -13.03,-25.23 0.22,-0.918 c 18.02,17.648 37.71,22.121 59.07,13.398 29.54,-12.027 35.5,-39.629 17.91,-82.797 l -6.57,-15.64 -23.15,9.418 2.83,5.519 c 2.79,5.891 4.61,9.859 5.45,11.941 9.51,23.329 5.31,38.641 -12.59,45.93 -26.17,10.66 -48.61,-6.941 -67.3,-52.808 l -55.59,-136.411 -23.48,9.559 92.73,227.609" /><path
         id="path116"
         style="fill:none;stroke:#231f20;stroke-width:7;stroke-linecap:butt;stroke-linejoin:miter;stroke-miterlimit:10;stroke-dasharray:none;stroke-opacity:1"
         d="m 1570.59,666.359 23.5,-9.57 -13.03,-25.23 0.22,-0.918 c 18.02,17.648 37.71,22.121 59.07,13.398 29.54,-12.027 35.5,-39.629 17.91,-82.797 l -6.57,-15.64 -23.15,9.418 2.83,5.519 c 2.79,5.891 4.61,9.859 5.45,11.941 9.51,23.329 5.31,38.641 -12.59,45.93 -26.17,10.66 -48.61,-6.941 -67.3,-52.808 l -55.59,-136.411 -23.48,9.559 z" /><path
         id="path118"
         style="fill:#231f20;fill-opacity:1;fill-rule:nonzero;stroke:none"
         d="m 1742.04,472.09 c -18.66,5.492 -31.62,6.269 -38.89,2.332 -7.26,-3.934 -13.61,-15.113 -19.03,-33.52 -5.61,-19.07 -6.55,-32.511 -2.8,-40.312 3.75,-7.801 14.13,-14.211 31.17,-19.231 34.3,-10.097 55.8,-0.347 64.52,29.25 5.46,18.582 5.82,32.051 1.04,40.43 -4.77,8.359 -16.78,15.391 -36.01,21.051 z m -23.5,64.539 -24.16,7.113 c 8.08,27.457 17.89,44.629 29.42,51.508 11.53,6.879 30.04,6.57 55.54,-0.949 27.7,-8.153 44.7,-19.461 51.03,-33.91 6.32,-14.461 4.68,-37.969 -4.9,-70.52 l -45.82,-155.609 -24.34,7.16 9.4,24.84 -0.45,0.386 c -14.99,-16.656 -36.67,-20.816 -65.06,-12.457 -41.95,12.34 -55.87,42.45 -41.79,90.289 8.37,28.442 18.86,46.711 31.43,54.79 12.58,8.089 31.16,8.519 55.72,1.289 29.2,-8.598 44.3,-21.887 45.3,-39.868 l 0.6,0.09 8.42,28.61 c 7.94,26.968 10.47,45.199 7.61,54.711 -2.86,9.507 -13.11,16.859 -30.72,22.046 -29.89,8.793 -48.35,1.274 -55.37,-22.558 -0.34,-1.16 -0.96,-3.469 -1.86,-6.961" /><path
         id="path120"
         style="fill:none;stroke:#231f20;stroke-width:7;stroke-linecap:butt;stroke-linejoin:miter;stroke-miterlimit:10;stroke-dasharray:none;stroke-opacity:1"
         d="m 1742.04,472.09 c -18.66,5.492 -31.62,6.269 -38.89,2.332 -7.26,-3.934 -13.61,-15.113 -19.03,-33.52 -5.61,-19.07 -6.55,-32.511 -2.8,-40.312 3.75,-7.801 14.13,-14.211 31.17,-19.231 34.3,-10.097 55.8,-0.347 64.52,29.25 5.46,18.582 5.82,32.051 1.04,40.43 -4.77,8.359 -16.78,15.391 -36.01,21.051 z m -23.5,64.539 -24.16,7.113 c 8.08,27.457 17.89,44.629 29.42,51.508 11.53,6.879 30.04,6.57 55.54,-0.949 27.7,-8.153 44.7,-19.461 51.03,-33.91 6.32,-14.461 4.68,-37.969 -4.9,-70.52 l -45.82,-155.609 -24.34,7.16 9.4,24.84 -0.45,0.386 c -14.99,-16.656 -36.67,-20.816 -65.06,-12.457 -41.95,12.34 -55.87,42.45 -41.79,90.289 8.37,28.442 18.86,46.711 31.43,54.79 12.58,8.089 31.16,8.519 55.72,1.289 29.2,-8.598 44.3,-21.887 45.3,-39.868 l 0.6,0.09 8.42,28.61 c 7.94,26.968 10.47,45.199 7.61,54.711 -2.86,9.507 -13.11,16.859 -30.72,22.046 -29.89,8.793 -48.35,1.274 -55.37,-22.558 -0.34,-1.16 -0.96,-3.469 -1.86,-6.961 z" /><path
         id="path122"
         style="fill:#231f20;fill-opacity:1;fill-rule:nonzero;stroke:none"
         d="m 1973.76,518.262 c -19.63,3.429 -33.82,-0.223 -42.56,-10.961 -8.75,-10.731 -16.22,-33.832 -22.43,-69.281 -7.65,-43.731 -9.52,-72.118 -5.6,-85.149 3.9,-13.039 16.68,-21.449 38.34,-25.242 18.33,-3.207 31.51,0.801 39.54,12 8.03,11.211 15.37,35.812 22.01,73.812 7.01,40 8.66,66.641 4.97,79.899 -3.69,13.262 -15.11,21.558 -34.27,24.922 z m -112.98,-203.121 60.5,345.66 24.98,-4.36 -23.53,-134.472 0.4,-0.86 c 9.82,22.473 30.55,30.942 62.2,25.403 24.99,-4.383 40.63,-16.602 46.93,-36.672 6.3,-20.059 5.22,-54.238 -3.22,-102.531 -8.02,-45.75 -18.59,-76.559 -31.72,-92.45 -13.15,-15.879 -32.87,-21.519 -59.17,-16.91 -26.76,4.672 -42.64,19.031 -47.64,43.039 l -0.76,-0.129 -3.98,-30.097 -24.99,4.379" /><path
         id="path124"
         style="fill:none;stroke:#231f20;stroke-width:7;stroke-linecap:butt;stroke-linejoin:miter;stroke-miterlimit:10;stroke-dasharray:none;stroke-opacity:1"
         d="m 1973.76,518.262 c -19.63,3.429 -33.82,-0.223 -42.56,-10.961 -8.75,-10.731 -16.22,-33.832 -22.43,-69.281 -7.65,-43.731 -9.52,-72.118 -5.6,-85.149 3.9,-13.039 16.68,-21.449 38.34,-25.242 18.33,-3.207 31.51,0.801 39.54,12 8.03,11.211 15.37,35.812 22.01,73.812 7.01,40 8.66,66.641 4.97,79.899 -3.69,13.262 -15.11,21.558 -34.27,24.922 z m -112.98,-203.121 60.5,345.66 24.98,-4.36 -23.53,-134.472 0.4,-0.86 c 9.82,22.473 30.55,30.942 62.2,25.403 24.99,-4.383 40.63,-16.602 46.93,-36.672 6.3,-20.059 5.22,-54.238 -3.22,-102.531 -8.02,-45.75 -18.59,-76.559 -31.72,-92.45 -13.15,-15.879 -32.87,-21.519 -59.17,-16.91 -26.76,4.672 -42.64,19.031 -47.64,43.039 l -0.76,-0.129 -3.98,-30.097 z" /><path
         id="path126"
         style="fill:#231f20;fill-opacity:1;fill-rule:nonzero;stroke:none"
         d="m 2222.81,447.051 80.62,1.308 c 21.26,0.352 35.68,5.172 43.25,14.461 7.58,9.282 11.18,26.621 10.76,51.981 -0.51,31.699 -3.71,52.308 -9.6,61.808 -5.9,9.5 -18.27,14.11 -37.1,13.801 l -90.23,-1.461 z m -25.06,-176.02 -5.68,350.879 117.76,1.91 c 26.56,0.43 45.41,-6.718 56.52,-21.449 11.11,-14.742 16.97,-40.531 17.56,-77.371 0.53,-32.391 -2.07,-55.02 -7.78,-67.871 -5.71,-12.867 -16.86,-21.328 -33.47,-25.359 v -0.782 c 26.26,-2.308 39.73,-24.718 40.42,-67.207 l 1.46,-89.722 -27.9,-0.45 -1.31,80.711 c -0.67,40.961 -13.5,61.239 -38.49,60.828 l -9.24,-0.148 -84.25,-1.371 2.3,-142.149 -27.9,-0.449" /><path
         id="path128"
         style="fill:none;stroke:#231f20;stroke-width:7;stroke-linecap:butt;stroke-linejoin:miter;stroke-miterlimit:10;stroke-dasharray:none;stroke-opacity:1"
         d="m 2222.81,447.051 80.62,1.308 c 21.26,0.352 35.68,5.172 43.25,14.461 7.58,9.282 11.18,26.621 10.76,51.981 -0.51,31.699 -3.71,52.308 -9.6,61.808 -5.9,9.5 -18.27,14.11 -37.1,13.801 l -90.23,-1.461 z m -25.06,-176.02 -5.68,350.879 117.76,1.91 c 26.56,0.43 45.41,-6.718 56.52,-21.449 11.11,-14.742 16.97,-40.531 17.56,-77.371 0.53,-32.391 -2.07,-55.02 -7.78,-67.871 -5.71,-12.867 -16.86,-21.328 -33.47,-25.359 v -0.782 c 26.26,-2.308 39.73,-24.718 40.42,-67.207 l 1.46,-89.722 -27.9,-0.45 -1.31,80.711 c -0.67,40.961 -13.5,61.239 -38.49,60.828 l -9.24,-0.148 -84.25,-1.371 2.3,-142.149 z" /><path
         id="path130"
         style="fill:#231f20;fill-opacity:1;fill-rule:nonzero;stroke:none"
         d="m 2568.51,438.148 -1.64,11.461 c -3.37,26.34 -8.62,43.082 -15.73,50.211 -7.12,7.121 -20.82,9.391 -41.06,6.789 -20.38,-2.589 -32.99,-8.918 -37.86,-18.949 -4.87,-10.051 -5.3,-30.711 -1.3,-61.98 z m 8.86,-69.367 25.71,3.289 1.32,-8.898 c 3.24,-25.34 0.08,-43.75 -9.47,-55.25 -9.55,-11.5 -27.93,-18.992 -55.12,-22.473 -31.63,-4.039 -53.44,1.512 -65.42,16.66 -11.99,15.129 -21.33,48.973 -28.05,101.5 -6.21,48.621 -5.42,81.903 2.4,99.84 7.82,17.922 26.22,28.75 55.21,32.449 31.64,4.051 53.29,-0.527 64.97,-13.718 11.67,-13.2 20.47,-43 26.4,-89.418 l 2.45,-19.121 -123.65,-15.809 c 4.91,-38.422 10.94,-62.531 18.1,-72.332 7.16,-9.801 21.4,-13.328 42.73,-10.602 20.25,2.594 33.07,6.762 38.49,12.571 5.41,5.769 7.04,17 4.91,33.66 l -0.98,7.652" /><path
         id="path132"
         style="fill:none;stroke:#231f20;stroke-width:7;stroke-linecap:butt;stroke-linejoin:miter;stroke-miterlimit:10;stroke-dasharray:none;stroke-opacity:1"
         d="m 2568.51,438.148 -1.64,11.461 c -3.37,26.34 -8.62,43.082 -15.73,50.211 -7.12,7.121 -20.82,9.391 -41.06,6.789 -20.38,-2.589 -32.99,-8.918 -37.86,-18.949 -4.87,-10.051 -5.3,-30.711 -1.3,-61.98 z m 8.86,-69.367 25.71,3.289 1.32,-8.898 c 3.24,-25.34 0.08,-43.75 -9.47,-55.25 -9.55,-11.5 -27.93,-18.992 -55.12,-22.473 -31.63,-4.039 -53.44,1.512 -65.42,16.66 -11.99,15.129 -21.33,48.973 -28.05,101.5 -6.21,48.621 -5.42,81.903 2.4,99.84 7.82,17.922 26.22,28.75 55.21,32.449 31.64,4.051 53.29,-0.527 64.97,-13.718 11.67,-13.2 20.47,-43 26.4,-89.418 l 2.45,-19.121 -123.65,-15.809 c 4.91,-38.422 10.94,-62.531 18.1,-72.332 7.16,-9.801 21.4,-13.328 42.73,-10.602 20.25,2.594 33.07,6.762 38.49,12.571 5.41,5.769 7.04,17 4.91,33.66 z" /><path
         id="path134"
         style="fill:#231f20;fill-opacity:1;fill-rule:nonzero;stroke:none"
         d="m 2701.81,541.898 c -18.19,-4.437 -28.83,-13.347 -31.91,-26.707 -3.09,-13.371 -0.21,-38.191 8.64,-74.5 9.72,-39.961 19.09,-65.511 28.09,-76.632 8.98,-11.137 22.8,-14.418 41.47,-9.879 20.29,4.941 31.97,14.449 35.01,28.5 3.04,14.062 -0.58,42.16 -10.84,84.289 -8.32,34.14 -17.29,56.34 -26.94,66.613 -9.65,10.258 -24.16,13.027 -43.52,8.316 z m 43.01,145.684 83.06,-340.953 -24.64,-6 -6.31,31.269 -0.77,0.082 c -2.1,-25.039 -17.3,-41 -45.59,-47.89 -25.81,-6.289 -45.61,-1.68 -59.41,13.84 -13.78,15.519 -26.6,47.59 -38.44,96.211 -10.92,44.8 -13.74,77.05 -8.47,96.769 5.26,19.719 20.15,32.559 44.68,38.539 30.64,7.461 51.63,0.672 62.97,-20.379 l 0.41,0.629 -32.14,131.891 24.65,5.992" /><path
         id="path136"
         style="fill:none;stroke:#231f20;stroke-width:7;stroke-linecap:butt;stroke-linejoin:miter;stroke-miterlimit:10;stroke-dasharray:none;stroke-opacity:1"
         d="m 2701.81,541.898 c -18.19,-4.437 -28.83,-13.347 -31.91,-26.707 -3.09,-13.371 -0.21,-38.191 8.64,-74.5 9.72,-39.961 19.09,-65.511 28.09,-76.632 8.98,-11.137 22.8,-14.418 41.47,-9.879 20.29,4.941 31.97,14.449 35.01,28.5 3.04,14.062 -0.58,42.16 -10.84,84.289 -8.32,34.14 -17.29,56.34 -26.94,66.613 -9.65,10.258 -24.16,13.027 -43.52,8.316 z m 43.01,145.684 83.06,-340.953 -24.64,-6 -6.31,31.269 -0.77,0.082 c -2.1,-25.039 -17.3,-41 -45.59,-47.89 -25.81,-6.289 -45.61,-1.68 -59.41,13.84 -13.78,15.519 -26.6,47.59 -38.44,96.211 -10.92,44.8 -13.74,77.05 -8.47,96.769 5.26,19.719 20.15,32.559 44.68,38.539 30.64,7.461 51.63,0.672 62.97,-20.379 l 0.41,0.629 -32.14,131.891 z" /><path
         id="path138"
         style="fill:#231f20;fill-opacity:1;fill-rule:nonzero;stroke:none"
         d="m 3113.82,581.039 25.35,11.223 5.41,-12.223 c 19.36,-43.73 26.2,-73.367 20.52,-88.898 -5.67,-15.539 -29.66,-32.672 -71.97,-51.379 -37.88,-16.77 -66.2,-17.832 -84.98,-3.18 -18.77,14.637 -43.9,57.559 -75.39,128.699 -24.63,55.649 -38.96,91.149 -42.98,106.52 -4.03,15.359 -3.07,31.109 2.87,47.23 6.98,18.828 31.74,37.668 74.27,56.489 28.83,12.761 51.05,15 66.66,6.73 15.62,-8.27 31.47,-30.578 47.56,-66.941 l 4.02,-8.637 -25.34,-11.211 -4.54,9.809 c -11.45,25.851 -21.76,41.152 -30.93,45.902 -9.17,4.758 -24.13,2.539 -44.9,-6.652 -36.45,-16.129 -56.8,-30.301 -61.06,-42.481 -4.24,-12.187 2.31,-37.867 19.65,-77.059 39.89,-90.121 65.98,-141.742 78.25,-154.859 12.28,-13.121 34.21,-12.691 65.81,1.289 30.04,13.301 47.29,24.961 51.77,35.012 4.47,10.027 0.71,28.609 -11.29,55.719 l -8.76,18.898" /><path
         id="path140"
         style="fill:none;stroke:#231f20;stroke-width:7;stroke-linecap:butt;stroke-linejoin:miter;stroke-miterlimit:10;stroke-dasharray:none;stroke-opacity:1"
         d="m 3113.82,581.039 25.35,11.223 5.41,-12.223 c 19.36,-43.73 26.2,-73.367 20.52,-88.898 -5.67,-15.539 -29.66,-32.672 -71.97,-51.379 -37.88,-16.77 -66.2,-17.832 -84.98,-3.18 -18.77,14.637 -43.9,57.559 -75.39,128.699 -24.63,55.649 -38.96,91.149 -42.98,106.52 -4.03,15.359 -3.07,31.109 2.87,47.23 6.98,18.828 31.74,37.668 74.27,56.489 28.83,12.761 51.05,15 66.66,6.73 15.62,-8.27 31.47,-30.578 47.56,-66.941 l 4.02,-8.637 -25.34,-11.211 -4.54,9.809 c -11.45,25.851 -21.76,41.152 -30.93,45.902 -9.17,4.758 -24.13,2.539 -44.9,-6.652 -36.45,-16.129 -56.8,-30.301 -61.06,-42.481 -4.24,-12.187 2.31,-37.867 19.65,-77.059 39.89,-90.121 65.98,-141.742 78.25,-154.859 12.28,-13.121 34.21,-12.691 65.81,1.289 30.04,13.301 47.29,24.961 51.77,35.012 4.47,10.027 0.71,28.609 -11.29,55.719 z" /><path
         id="path142"
         style="fill:#231f20;fill-opacity:1;fill-rule:nonzero;stroke:none"
         d="m 3122.4,731.102 21.93,12.738 12.02,-25.719 0.85,-0.402 c -2.96,25.043 5.54,43.371 25.49,54.961 27.56,16.019 53.07,3.879 76.5,-36.43 l 8.36,-14.758 -21.62,-12.562 -2.62,5.601 c -2.96,5.821 -5.01,9.688 -6.12,11.617 -12.66,21.782 -27.35,27.813 -44.06,18.114 -24.43,-14.211 -24.21,-42.731 0.67,-85.551 l 74.03,-127.359 -21.94,-12.75 -123.49,212.5" /><path
         id="path144"
         style="fill:none;stroke:#231f20;stroke-width:7;stroke-linecap:butt;stroke-linejoin:miter;stroke-miterlimit:10;stroke-dasharray:none;stroke-opacity:1"
         d="m 3122.4,731.102 21.93,12.738 12.02,-25.719 0.85,-0.402 c -2.96,25.043 5.54,43.371 25.49,54.961 27.56,16.019 53.07,3.879 76.5,-36.43 l 8.36,-14.758 -21.62,-12.562 -2.62,5.601 c -2.96,5.821 -5.01,9.688 -6.12,11.617 -12.66,21.782 -27.35,27.813 -44.06,18.114 -24.43,-14.211 -24.21,-42.731 0.67,-85.551 l 74.03,-127.359 -21.94,-12.75 z" /><path
         id="path146"
         style="fill:#231f20;fill-opacity:1;fill-rule:nonzero;stroke:none"
         d="m 3410.63,797.359 -6.91,9.282 c -15.55,21.531 -28.16,33.73 -37.82,36.589 -9.65,2.852 -22.77,-1.691 -39.31,-13.628 -16.66,-12.032 -24.71,-23.622 -24.2,-34.762 0.53,-11.141 10.02,-29.5 28.48,-55.07 z m 40.94,-56.699 21.01,15.172 5.41,-7.191 c 14.95,-20.719 20.97,-38.399 18.08,-53.059 -2.9,-14.672 -15.46,-30.031 -37.69,-46.082 -25.86,-18.66 -47.67,-24.211 -65.42,-16.629 -17.77,7.578 -42.15,32.828 -73.14,75.777 -28.7,39.743 -43.89,69.352 -45.59,88.844 -1.7,19.488 9.29,37.789 32.99,54.899 25.86,18.66 47.07,24.988 63.63,18.98 16.55,-6.019 38.52,-28 65.91,-65.93 l 11.28,-15.632 -101.07,-72.969 c 22.68,-31.41 39.5,-49.711 50.47,-54.891 10.97,-5.187 25.17,-1.488 42.6,11.102 16.55,11.949 25.83,21.75 27.81,29.418 1.99,7.672 -1.94,18.32 -11.77,31.929 l -4.51,6.262" /><path
         id="path148"
         style="fill:none;stroke:#231f20;stroke-width:7;stroke-linecap:butt;stroke-linejoin:miter;stroke-miterlimit:10;stroke-dasharray:none;stroke-opacity:1"
         d="m 3410.63,797.359 -6.91,9.282 c -15.55,21.531 -28.16,33.73 -37.82,36.589 -9.65,2.852 -22.77,-1.691 -39.31,-13.628 -16.66,-12.032 -24.71,-23.622 -24.2,-34.762 0.53,-11.141 10.02,-29.5 28.48,-55.07 z m 40.94,-56.699 21.01,15.172 5.41,-7.191 c 14.95,-20.719 20.97,-38.399 18.08,-53.059 -2.9,-14.672 -15.46,-30.031 -37.69,-46.082 -25.86,-18.66 -47.67,-24.211 -65.42,-16.629 -17.77,7.578 -42.15,32.828 -73.14,75.777 -28.7,39.743 -43.89,69.352 -45.59,88.844 -1.7,19.488 9.29,37.789 32.99,54.899 25.86,18.66 47.07,24.988 63.63,18.98 16.55,-6.019 38.52,-28 65.91,-65.93 l 11.28,-15.632 -101.07,-72.969 c 22.68,-31.41 39.5,-49.711 50.47,-54.891 10.97,-5.187 25.17,-1.488 42.6,11.102 16.55,11.949 25.83,21.75 27.81,29.418 1.99,7.672 -1.94,18.32 -11.77,31.929 z" /><path
         id="path150"
         style="fill:#231f20;fill-opacity:1;fill-rule:nonzero;stroke:none"
         d="m 3552.04,967.289 -18.87,-16.949 c -11.45,12.75 -20.38,19.019 -26.76,18.808 -6.4,-0.207 -17.13,-7.097 -32.23,-20.66 -14.02,-12.597 -21.46,-22.207 -22.31,-28.847 -0.85,-6.653 4.28,-16.153 15.38,-28.512 16.85,-18.75 32.01,-22.867 45.47,-12.379 l 16.26,12.52 20.48,15.98 c 24.85,19.332 52.12,12.488 81.78,-20.531 18.43,-20.528 27.23,-38.09 26.38,-52.68 -0.86,-14.598 -11.58,-31.141 -32.15,-49.617 -21.11,-18.973 -38.91,-28.391 -53.4,-28.274 -14.48,0.133 -30.42,9.883 -47.83,29.262 l -8.81,10.059 19.54,17.562 7.87,-8.48 c 10.78,-11.992 20.12,-18.051 28.04,-18.192 7.92,-0.14 18.21,5.481 30.89,16.86 15.54,13.961 23.88,25.25 24.99,33.863 1.11,8.598 -4.34,19.59 -16.37,32.977 -17.29,19.261 -32.09,23.351 -44.41,12.293 -28.66,-25.743 -50.59,-39.231 -65.81,-40.461 -15.22,-1.231 -32.56,8.988 -52.04,30.668 -18.43,20.523 -27.15,37.41 -26.14,50.64 1.02,13.242 12.18,29.43 33.47,48.563 34.15,30.678 64.34,31.418 90.56,2.218 l 6.02,-6.691" /><path
         id="path152"
         style="fill:none;stroke:#231f20;stroke-width:7;stroke-linecap:butt;stroke-linejoin:miter;stroke-miterlimit:10;stroke-dasharray:none;stroke-opacity:1"
         d="m 3552.04,967.289 -18.87,-16.949 c -11.45,12.75 -20.38,19.019 -26.76,18.808 -6.4,-0.207 -17.13,-7.097 -32.23,-20.66 -14.02,-12.597 -21.46,-22.207 -22.31,-28.847 -0.85,-6.653 4.28,-16.153 15.38,-28.512 16.85,-18.75 32.01,-22.867 45.47,-12.379 l 16.26,12.52 20.48,15.98 c 24.85,19.332 52.12,12.488 81.78,-20.531 18.43,-20.528 27.23,-38.09 26.38,-52.68 -0.86,-14.598 -11.58,-31.141 -32.15,-49.617 -21.11,-18.973 -38.91,-28.391 -53.4,-28.274 -14.48,0.133 -30.42,9.883 -47.83,29.262 l -8.81,10.059 19.54,17.562 7.87,-8.48 c 10.78,-11.992 20.12,-18.051 28.04,-18.192 7.92,-0.14 18.21,5.481 30.89,16.86 15.54,13.961 23.88,25.25 24.99,33.863 1.11,8.598 -4.34,19.59 -16.37,32.977 -17.29,19.261 -32.09,23.351 -44.41,12.293 -28.66,-25.743 -50.59,-39.231 -65.81,-40.461 -15.22,-1.231 -32.56,8.988 -52.04,30.668 -18.43,20.523 -27.15,37.41 -26.14,50.64 1.02,13.242 12.18,29.43 33.47,48.563 34.15,30.678 64.34,31.418 90.56,2.218 z" /><path
         id="path154"
         style="fill:#231f20;fill-opacity:1;fill-rule:nonzero;stroke:none"
         d="m 3740.35,1033.11 17,18.83 10.04,-8.82 c 39.07,-35.26 42.32,-70.909 9.78,-106.948 -20.88,-23.141 -40.84,-32.852 -59.9,-29.152 -19.05,3.691 -47.87,22.941 -86.42,57.742 -36.13,32.609 -57.23,58.528 -63.31,77.758 -6.07,19.24 0.48,39.48 19.66,60.73 18.86,20.89 36.09,31.21 51.68,30.97 15.59,-0.25 35.42,-11.22 59.46,-32.92 l -16.99,-18.84 -4.78,4.32 c -14.12,12.74 -25.76,18.78 -34.92,18.09 -9.16,-0.68 -20.38,-8.38 -33.64,-23.08 -12.8,-14.16 -16.56,-27.29 -11.29,-39.37 5.27,-12.07 23.42,-32.11 54.46,-60.131 30.28,-27.328 51.64,-42.43 64.08,-45.269 12.44,-2.848 26.3,4.21 41.61,21.152 12.95,14.348 18.45,25.887 16.52,34.629 -1.92,8.729 -12.94,22.169 -33.04,40.309" /><path
         id="path156"
         style="fill:none;stroke:#231f20;stroke-width:7;stroke-linecap:butt;stroke-linejoin:miter;stroke-miterlimit:10;stroke-dasharray:none;stroke-opacity:1"
         d="m 3740.35,1033.11 17,18.83 10.04,-8.82 c 39.07,-35.26 42.32,-70.909 9.78,-106.948 -20.88,-23.141 -40.84,-32.852 -59.9,-29.152 -19.05,3.691 -47.87,22.941 -86.42,57.742 -36.13,32.609 -57.23,58.528 -63.31,77.758 -6.07,19.24 0.48,39.48 19.66,60.73 18.86,20.89 36.09,31.21 51.68,30.97 15.59,-0.25 35.42,-11.22 59.46,-32.92 l -16.99,-18.84 -4.78,4.32 c -14.12,12.74 -25.76,18.78 -34.92,18.09 -9.16,-0.68 -20.38,-8.38 -33.64,-23.08 -12.8,-14.16 -16.56,-27.29 -11.29,-39.37 5.27,-12.07 23.42,-32.11 54.46,-60.131 30.28,-27.328 51.64,-42.43 64.08,-45.269 12.44,-2.848 26.3,4.21 41.61,21.152 12.95,14.348 18.45,25.887 16.52,34.629 -1.92,8.729 -12.94,22.169 -33.04,40.309 z" /><path
         id="path158"
         style="fill:#231f20;fill-opacity:1;fill-rule:nonzero;stroke:none"
         d="m 3820.89,1229.42 -9.49,6.64 c -21.52,15.57 -37.32,23.2 -47.38,22.88 -10.07,-0.32 -21.08,-8.75 -33.05,-25.29 -12.04,-16.64 -16.06,-30.16 -12.07,-40.58 4,-10.41 18.77,-24.87 44.32,-43.35 z m 56.65,-40.99 15.19,21 7.4,-5.12 c 20.69,-14.98 31.96,-29.88 33.82,-44.71 1.85,-14.84 -5.26,-33.37 -21.33,-55.58 -18.7,-25.83 -37.66,-37.95 -56.9,-36.33 -19.24,1.63 -50.32,17.96 -93.23,49 -39.71,28.73 -63.44,52.08 -71.16,70.06 -7.75,17.96 -3.04,38.79 14.1,62.47 18.69,25.84 36.84,38.5 54.45,37.99 17.61,-0.52 45.37,-14.48 83.28,-41.91 l 15.62,-11.31 -73.07,-100.99 c 31.38,-22.71 53.09,-34.81 65.14,-36.28 12.05,-1.49 24.36,6.48 36.96,23.9 11.97,16.54 17.7,28.76 17.18,36.67 -0.52,7.91 -7.59,16.78 -21.2,26.62 l -6.25,4.52" /><path
         id="path160"
         style="fill:none;stroke:#231f20;stroke-width:7;stroke-linecap:butt;stroke-linejoin:miter;stroke-miterlimit:10;stroke-dasharray:none;stroke-opacity:1"
         d="m 3820.89,1229.42 -9.49,6.64 c -21.52,15.57 -37.32,23.2 -47.38,22.88 -10.07,-0.32 -21.08,-8.75 -33.05,-25.29 -12.04,-16.64 -16.06,-30.16 -12.07,-40.58 4,-10.41 18.77,-24.87 44.32,-43.35 z m 56.65,-40.99 15.19,21 7.4,-5.12 c 20.69,-14.98 31.96,-29.88 33.82,-44.71 1.85,-14.84 -5.26,-33.37 -21.33,-55.58 -18.7,-25.83 -37.66,-37.95 -56.9,-36.33 -19.24,1.63 -50.32,17.96 -93.23,49 -39.71,28.73 -63.44,52.08 -71.16,70.06 -7.75,17.96 -3.04,38.79 14.1,62.47 18.69,25.84 36.84,38.5 54.45,37.99 17.61,-0.52 45.37,-14.48 83.28,-41.91 l 15.62,-11.31 -73.07,-100.99 c 31.38,-22.71 53.09,-34.81 65.14,-36.28 12.05,-1.49 24.36,6.48 36.96,23.9 11.97,16.54 17.7,28.76 17.18,36.67 -0.52,7.91 -7.59,16.78 -21.2,26.62 z" /><path
         id="path162"
         style="fill:#231f20;fill-opacity:1;fill-rule:nonzero;stroke:none"
         d="m 3779.93,1350.91 12.04,21.29 28.74,-17.08 1.03,0.26 c -18.14,19.12 -19.65,42.04 -4.56,68.75 12.19,21.56 25.81,33.11 40.86,34.67 15.05,1.54 37.8,-6.28 68.24,-23.49 l 139.2,-78.69 -12.48,-22.08 -136.51,77.17 -8.07,4.56 c -18.35,10.37 -32.09,14.87 -41.23,13.52 -9.14,-1.36 -17.68,-9.08 -25.65,-23.17 -17.53,-31.03 -5.48,-58.3 36.15,-81.82 l 128.69,-72.75 -12.48,-22.08 -213.97,120.94" /><path
         id="path164"
         style="fill:none;stroke:#231f20;stroke-width:7;stroke-linecap:butt;stroke-linejoin:miter;stroke-miterlimit:10;stroke-dasharray:none;stroke-opacity:1"
         d="m 3779.93,1350.91 12.04,21.29 28.74,-17.08 1.03,0.26 c -18.14,19.12 -19.65,42.04 -4.56,68.75 12.19,21.56 25.81,33.11 40.86,34.67 15.05,1.54 37.8,-6.28 68.24,-23.49 l 139.2,-78.69 -12.48,-22.08 -136.51,77.17 -8.07,4.56 c -18.35,10.37 -32.09,14.87 -41.23,13.52 -9.14,-1.36 -17.68,-9.08 -25.65,-23.17 -17.53,-31.03 -5.48,-58.3 36.15,-81.82 l 128.69,-72.75 -12.48,-22.08 z" /><path
         id="path166"
         style="fill:#231f20;fill-opacity:1;fill-rule:nonzero;stroke:none"
         d="m 3911.47,1609.02 27.21,-12.21 -27.3,-60.84 137.22,-61.56 c 23.93,-10.74 39.25,-8.61 45.98,6.38 6.67,14.88 -0.7,27.12 -22.13,36.73 l -10.95,5.12 -12.28,5.91 9.64,21.49 16.73,-7.31 c 44.1,-19.79 59.52,-44.45 46.28,-73.98 -13.71,-30.53 -38.92,-37.55 -75.67,-21.06 l -7.99,3.58 -137.21,61.57 -9.79,-21.83 -27.2,12.21 9.78,21.82 -53.94,24.21 10.37,23.14 53.96,-24.2 27.29,60.83" /><path
         id="path168"
         style="fill:none;stroke:#231f20;stroke-width:7;stroke-linecap:butt;stroke-linejoin:miter;stroke-miterlimit:10;stroke-dasharray:none;stroke-opacity:1"
         d="m 3911.47,1609.02 27.21,-12.21 -27.3,-60.84 137.22,-61.56 c 23.93,-10.74 39.25,-8.61 45.98,6.38 6.67,14.88 -0.7,27.12 -22.13,36.73 l -10.95,5.12 -12.28,5.91 9.64,21.49 16.73,-7.31 c 44.1,-19.79 59.52,-44.45 46.28,-73.98 -13.71,-30.53 -38.92,-37.55 -75.67,-21.06 l -7.99,3.58 -137.21,61.57 -9.79,-21.83 -27.2,12.21 9.78,21.82 -53.94,24.21 10.37,23.14 53.96,-24.2 z" /><path
         id="path170"
         style="fill:#ee2722;fill-opacity:1;fill-rule:nonzero;stroke:none"
         d="m 2669.27,1232.2 c -579.06,0 -1048.49,469.42 -1048.49,1048.44 0,579.07 469.43,1048.46 1048.49,1048.46 184.61,0 358.03,-47.77 508.7,-131.55 -228.92,220.55 -540.18,356.22 -883.17,356.22 -703.11,0 -1273.1,-569.99 -1273.1,-1273.13 0,-703.1 569.99,-1273.1 1273.1,-1273.1 342.98,0 654.24,135.67 883.16,356.2 -150.66,-83.75 -324.09,-131.54 -508.69,-131.54" /></g></g></svg>