<?xml version="1.0" encoding="UTF-8" standalone="no"?>
<svg
   xmlns:dc="http://purl.org/dc/elements/1.1/"
   xmlns:cc="http://creativecommons.org/ns#"
   xmlns:rdf="http://www.w3.org/1999/02/22-rdf-syntax-ns#"
   xmlns:svg="http://www.w3.org/2000/svg"
   xmlns="http://www.w3.org/2000/svg"
   viewBox="0 0 755.90668 227.73334"
   height="227.73334"
   width="755.90668"
   xml:space="preserve"
   id="svg2"
   version="1.1"><metadata
     id="metadata8"><rdf:RDF><cc:Work
         rdf:about=""><dc:format>image/svg+xml</dc:format><dc:type
           rdf:resource="http://purl.org/dc/dcmitype/StillImage" /><dc:title></dc:title></cc:Work></rdf:RDF></metadata><defs
     id="defs6" /><g
     transform="matrix(1.3333333,0,0,-1.3333333,0,227.73333)"
     id="g10"><g
       transform="scale(0.1)"
       id="g12"><path
         id="path14"
         style="fill:#ed1c24;fill-opacity:1;fill-rule:nonzero;stroke:none"
         d="m 853.98,0 c 471.65,0 853.98,382.34 853.98,853.98 0,471.65 -382.33,853.99 -853.98,853.99 C 382.34,1707.97 0,1325.63 0,853.98 0,382.34 382.34,0 853.98,0" /><path
         id="path16"
         style="fill:#ffffff;fill-opacity:1;fill-rule:nonzero;stroke:none"
         d="m 1105.16,150.699 c 388.39,0 703.28,314.879 703.28,703.285 0,388.406 -314.89,703.276 -703.28,703.276 -388.414,0 -703.297,-314.87 -703.297,-703.276 0,-388.406 314.883,-703.285 703.297,-703.285" /><path
         id="path18"
         style="fill:#231f20;fill-opacity:1;fill-rule:nonzero;stroke:none"
         d="m 5511.33,719.406 h 59.73 V 556.07 h 40.37 v 163.336 h 57.86 v 33.856 H 5511.33 Z M 5340.03,556.07 h 40.56 v 137.301 l 79.82,-137.301 h 39.99 v 197.192 h -40.55 V 617.828 l -79.82,135.434 h -40 z m -167.96,0 h 147.34 v 33.852 h -106.78 v 50.789 h 94.5 v 33.848 h -94.5 v 44.847 h 102.32 v 33.856 h -142.88 z m -66.01,48.739 c -4.71,-8.559 -13.09,-14.579 -25.12,-18.039 -5.58,-1.489 -11.28,-2.18 -17.11,-2.059 -5.08,0.129 -9.48,0.809 -13.2,2.059 -12.03,4.32 -21.41,13.929 -28.1,28.832 -4.84,10.91 -6.95,24.679 -6.32,41.296 0.74,13.774 2.82,25.051 6.23,33.864 3.4,8.789 8.58,16.097 15.53,21.855 6.95,5.762 14.83,9.094 23.63,9.953 17.23,1.25 30.32,-3.039 39.24,-12.843 6.23,-6.696 9.75,-14.457 10.62,-23.239 h 38.69 c -0.5,22.809 -10.49,41.051 -29.93,54.684 -14.77,10.305 -32.45,15.441 -53.03,15.441 -44.04,0 -72.63,-21.945 -85.77,-65.851 -3.11,-10.301 -4.66,-22.953 -4.66,-37.953 0,-12.911 1.23,-24.438 3.72,-34.618 5.45,-21.453 15.51,-38.191 30.15,-50.222 15.13,-12.758 33.42,-18.778 54.88,-18.047 23.43,0.629 42.78,7.008 58.05,19.156 7.56,5.953 13.86,14.024 18.88,24.192 5.02,10.171 7.59,20.218 7.71,30.14 h -38.69 c -1.61,-8.941 -3.41,-15.129 -5.4,-18.601 m -146.93,93.011 c 0,12.278 -3.97,23.461 -11.91,33.489 -13.02,16.875 -35.21,25.304 -66.59,25.304 -23.09,0 -41,-5.136 -53.77,-15.441 -11.79,-9.668 -18.55,-22.754 -20.28,-39.242 -0.13,-2.621 -0.2,-5.16 -0.2,-7.641 0,-23.07 12.03,-38.758 36.11,-47.07 4.46,-1.61 18.84,-4.641 43.16,-9.098 17.6,-3.48 28.94,-7.832 34.04,-13.031 4.34,-4.59 6.51,-9.918 6.51,-16.02 0,-6.929 -2.41,-12.691 -7.26,-17.281 -5.95,-5.711 -16.44,-8.738 -31.44,-9.117 -16.73,-0.633 -29.08,3.219 -37.02,11.539 -5.57,5.687 -8.38,12.461 -8.38,20.258 h -39.44 c 1.61,-21.809 10.8,-38.809 27.54,-50.957 6.46,-4.602 15.07,-8.211 25.85,-10.801 8.56,-2.09 16.08,-3.031 22.52,-2.789 27.53,0.5 48.12,5.019 61.77,13.59 7.56,4.949 13.63,12.269 18.24,21.929 4.58,9.688 6.88,19.75 6.88,30.161 0,14.378 -4.29,26.007 -12.84,34.867 -8.57,8.883 -24.05,15.301 -46.52,19.269 -30.4,5.453 -46.88,9.481 -49.47,12.09 -4.97,1.973 -8.33,4.024 -10.06,6.152 -2.12,2.711 -2.85,7.231 -2.23,13.559 1.12,15.512 12.96,23.141 35.55,22.895 13.25,-0.243 23.55,-3.543 30.87,-9.864 6.94,-5.703 10.17,-12.84 9.67,-21.39 h 38.15 c 0.36,1.351 0.55,2.91 0.55,4.64 M 4644.38,556.07 h 147.34 v 33.852 h -106.77 v 50.789 h 94.5 v 33.848 h -94.5 v 44.847 h 102.31 v 33.856 h -142.88 z m -90.01,163.336 c 16.38,0 24.56,-7.375 24.56,-22.136 0.99,-8.809 -1.56,-16.129 -7.62,-21.95 -5.2,-4.961 -10.67,-7.461 -16.36,-7.461 h -55.65 v 51.547 z M 4499.3,556.07 v 77.942 h 47.63 c 16.25,0 24.38,-6.633 24.38,-19.903 V 574.48 c 0.36,-6.449 2.17,-12.589 5.4,-18.41 h 43.53 v 7.25 c -4.84,3.102 -7.32,8.5 -7.44,16.18 -0.38,21.59 -0.99,36.25 -1.88,44 -0.86,7.738 -3.96,14.051 -9.28,18.891 -0.39,0.121 -4.59,2.98 -12.66,8.55 7.69,4.59 13.21,8.688 16.56,12.278 4.59,4.84 8,11.101 10.24,18.801 1.36,5.32 2.04,10.671 2.04,15.992 0,6.199 -1.37,14.265 -4.08,24.187 -2.74,9.922 -8.58,17.793 -17.5,23.621 -8.07,4.961 -17.38,7.442 -27.91,7.442 H 4458.75 V 556.07 Z m -106.75,48.739 c -4.7,-8.559 -13.07,-14.579 -25.1,-18.039 -5.59,-1.489 -11.3,-2.18 -17.12,-2.059 -5.09,0.129 -9.49,0.809 -13.21,2.059 -12.04,4.32 -21.41,13.929 -28.1,28.832 -4.85,10.91 -6.94,24.679 -6.32,41.296 0.73,13.774 2.82,25.051 6.23,33.864 3.41,8.789 8.58,16.097 15.52,21.855 6.96,5.762 14.84,9.094 23.65,9.953 17.24,1.25 30.32,-3.039 39.25,-12.843 6.19,-6.696 9.73,-14.457 10.6,-23.239 h 38.71 c -0.51,22.809 -10.49,41.051 -29.97,54.684 -14.75,10.305 -32.43,15.441 -53.02,15.441 -44.03,0 -72.62,-21.945 -85.76,-65.851 -3.11,-10.301 -4.64,-22.953 -4.64,-37.953 0,-12.911 1.22,-24.438 3.72,-34.618 5.45,-21.453 15.5,-38.191 30.12,-50.222 15.13,-12.758 33.44,-18.778 54.88,-18.047 23.45,0.629 42.8,7.008 58.04,19.156 7.58,5.953 13.87,14.024 18.89,24.192 5.03,10.171 7.61,20.218 7.74,30.14 h -38.71 c -1.62,-8.941 -3.42,-15.129 -5.4,-18.601 m -296.66,114.597 c 7.94,0 14.39,-1.183 19.35,-3.535 5.84,-2.598 11.23,-7.441 16.18,-14.519 6.46,-9.422 9.75,-23.743 9.86,-42.973 0.25,-17.731 -2.04,-31.738 -6.88,-42.027 -8.3,-17.622 -22.45,-26.43 -42.41,-26.43 h -32.56 V 719.406 Z M 4107.8,556.07 c 10.3,0 20.56,3.149 30.79,9.481 10.24,6.32 18.69,14.699 25.41,25.121 12.15,18.719 18.22,42.976 18.22,72.726 0,17.372 -2.86,32 -8.55,43.911 -14.89,30.632 -35.91,45.953 -63.08,45.953 h -91.71 V 556.07 Z m -259.3,0 h 147.34 v 33.852 h -106.79 v 50.789 h 94.51 v 33.848 h -94.51 v 44.847 h 102.33 v 33.856 H 3848.5 Z m -90.01,163.336 c 16.38,0 24.56,-7.375 24.56,-22.136 1,-8.809 -1.56,-16.129 -7.63,-21.95 -5.21,-4.961 -10.68,-7.461 -16.37,-7.461 h -55.63 v 51.547 z M 3703.42,556.07 v 77.942 h 47.63 c 16.23,0 24.37,-6.633 24.37,-19.903 V 574.48 c 0.37,-6.449 2.16,-12.589 5.4,-18.41 h 43.52 v 7.25 c -4.82,3.102 -7.31,8.5 -7.42,16.18 -0.37,21.59 -1.01,36.25 -1.87,44 -0.88,7.738 -3.98,14.051 -9.31,18.891 -0.36,0.121 -4.58,2.98 -12.65,8.55 7.7,4.59 13.22,8.688 16.56,12.278 4.58,4.84 8.01,11.101 10.22,18.801 1.38,5.32 2.05,10.671 2.05,15.992 0,6.199 -1.37,14.265 -4.08,24.187 -2.74,9.922 -8.56,17.793 -17.48,23.621 -8.07,4.961 -17.38,7.442 -27.91,7.442 H 3662.86 V 556.07 Z m -197.52,84.641 c 15.39,0 23.1,-7.75 23.1,-23.262 0,-11.898 -3.67,-19.847 -11,-23.808 -4.08,-2.481 -10.6,-3.719 -19.52,-3.719 h -47.81 v 50.789 z m -7.06,78.695 c 16.74,0 25.12,-7.441 25.12,-22.328 0,-15.008 -9.12,-22.519 -27.34,-22.519 h -45.95 v 44.847 z m 0.38,-163.336 c 21.33,0 37.27,4.461 47.83,13.391 13.76,11.91 20.64,25.848 20.64,41.848 0,20.98 -7.89,37.519 -23.62,49.691 12.39,10.289 18.58,23.809 18.58,40.539 0,10.543 -3.41,20.231 -10.22,29.027 -11.91,15.129 -32.19,22.696 -60.83,22.696 h -81.5 V 556.07 Z m -171.69,73.289 h -50.41 l 24.39,76.653 z m -49.66,123.903 -68.65,-197.192 h 41.48 l 13.59,39.442 h 73.11 l 13.4,-39.442 h 41.48 l -67.53,197.192 z m -144.32,-33.856 c 16.35,0 24.54,-7.375 24.54,-22.136 1,-8.809 -1.54,-16.129 -7.64,-21.95 -5.2,-4.961 -10.65,-7.461 -16.34,-7.461 h -55.64 v 51.547 z M 3078.47,556.07 v 77.942 h 47.62 c 16.25,0 24.36,-6.633 24.36,-19.903 V 574.48 c 0.38,-6.449 2.18,-12.589 5.4,-18.41 h 43.55 v 7.25 c -4.84,3.102 -7.32,8.5 -7.45,16.18 -0.37,21.59 -1,36.25 -1.87,44 -0.86,7.738 -3.96,14.051 -9.28,18.891 -0.37,0.121 -4.59,2.98 -12.66,8.55 7.69,4.59 13.21,8.688 16.56,12.278 4.59,4.84 8,11.101 10.24,18.801 1.36,5.32 2.04,10.671 2.04,15.992 0,6.199 -1.37,14.265 -4.1,24.187 -2.72,9.922 -8.56,17.793 -17.48,23.621 -8.07,4.961 -17.37,7.442 -27.92,7.442 H 3037.92 V 556.07 Z m -122.57,73.289 h -50.42 l 24.37,76.653 z m -49.66,123.903 -68.67,-197.192 h 41.5 l 13.57,39.442 h 73.13 l 13.39,-39.442 h 41.48 l -67.53,197.192 z M 2595.63,556.07 h 40.54 v 137.301 l 79.81,-137.301 h 40 v 197.192 h -40.56 V 617.828 l -79.79,135.434 h -40 z m -78.87,73.289 h -50.42 l 24.38,76.653 z m -49.67,123.903 -68.65,-197.192 h 41.49 l 13.59,39.442 h 73.11 l 13.39,-39.442 h 41.49 l -67.54,197.192 z M 2342.85,556.07 h 40.56 v 197.192 h -40.56 z m -85.72,163.336 c 16.37,0 24.56,-7.375 24.56,-22.136 0.99,-8.809 -1.55,-16.129 -7.63,-21.95 -5.21,-4.961 -10.67,-7.461 -16.37,-7.461 h -55.64 v 51.547 z M 2202.05,556.07 v 77.942 h 47.63 c 16.25,0 24.38,-6.633 24.38,-19.903 V 574.48 c 0.37,-6.449 2.18,-12.589 5.39,-18.41 h 43.54 v 7.25 c -4.84,3.102 -7.32,8.5 -7.45,16.18 -0.37,21.59 -0.99,36.25 -1.86,44 -0.87,7.738 -3.97,14.051 -9.3,18.891 -0.37,0.121 -4.59,2.98 -12.64,8.55 7.68,4.59 13.2,8.688 16.55,12.278 4.59,4.84 8,11.101 10.23,18.801 1.37,5.32 2.05,10.671 2.05,15.992 0,6.199 -1.36,14.265 -4.09,24.187 -2.73,9.922 -8.56,17.793 -17.5,23.621 -8.06,4.961 -17.36,7.442 -27.9,7.442 H 2161.5 V 556.07 Z m -140.59,112.168 -40,85.024 h -45.21 l 64.92,-124.071 V 556.07 h 40.56 v 73.121 l 63.07,124.071 h -45.4 z m -98.2,29.582 c 0,12.278 -3.97,23.461 -11.91,33.489 -13.02,16.875 -35.23,25.304 -66.6,25.304 -23.07,0 -41,-5.136 -53.77,-15.441 -11.78,-9.668 -18.54,-22.754 -20.28,-39.242 -0.12,-2.621 -0.19,-5.16 -0.19,-7.641 0,-23.07 12.04,-38.758 36.1,-47.07 4.46,-1.61 18.85,-4.641 43.16,-9.098 17.61,-3.48 28.97,-7.832 34.05,-13.031 4.34,-4.59 6.51,-9.918 6.51,-16.02 0,-6.929 -2.41,-12.691 -7.26,-17.281 -5.95,-5.711 -16.42,-8.738 -31.44,-9.117 -16.74,-0.633 -29.08,3.219 -37.02,11.539 -5.58,5.687 -8.36,12.461 -8.36,20.258 h -39.46 c 1.62,-21.809 10.8,-38.809 27.54,-50.957 6.44,-4.602 15.07,-8.211 25.86,-10.801 8.56,-2.09 16.06,-3.031 22.52,-2.789 27.52,0.5 48.12,5.019 61.75,13.59 7.57,4.949 13.66,12.269 18.25,21.929 4.58,9.688 6.88,19.75 6.88,30.161 0,14.378 -4.29,26.007 -12.84,34.867 -8.56,8.883 -24.07,15.301 -46.52,19.269 -30.38,5.453 -46.88,9.481 -49.49,12.09 -4.95,1.973 -8.31,4.024 -10.04,6.152 -2.11,2.711 -2.86,7.231 -2.23,13.559 1.11,15.512 12.96,23.141 35.54,22.895 13.26,-0.243 23.56,-3.543 30.88,-9.864 6.94,-5.703 10.16,-12.84 9.68,-21.39 h 38.14 c 0.36,1.351 0.55,2.91 0.55,4.64" /><path
         id="path20"
         style="fill:#231f20;fill-opacity:1;fill-rule:nonzero;stroke:none"
         d="m 5596.53,987.598 c -6.29,1.691 -9.45,6.75 -9.45,15.192 v 65.47 h 19.75 c 8.88,0 13.33,-4.17 13.33,-12.49 v -55.01 c -0.1,-0.901 -0.17,-1.74 -0.17,-2.53 0,-4.05 1.79,-7.589 5.4,-10.632 z m -68.17,-31.047 h 132.82 v 31.047 c -4.3,0 -6.43,2.644 -6.43,7.929 v 75.253 c 0,18.35 -8.54,27.5 -25.64,27.5 h -76.45 V 987.598 h -24.3 z m -56.01,198.429 h -38.13 v -31.55 h 38.13 z m 45.57,-167.382 v 110.682 h -34.43 V 987.598 h -61.25 v -31.047 h 111.52 v 31.047 z m -145.79,167.382 h -38.32 v -31.55 h 38.32 z m 55.49,-167.382 h -18.22 v 110.682 h -64.77 c -22.4,0 -36.3,-8.77 -41.7,-26.31 v 129.76 h -34.6 V 987.598 h -22.92 v -31.047 h 182.21 z m -124.69,0 v 32.062 c 0,29.13 15.76,43.71 47.25,43.71 h 24.65 v -75.772 z m -52.46,0 h -8.96 c -4.27,0 -6.4,2.644 -6.4,7.929 v 75.253 c 0,18.35 -8.55,27.5 -25.66,27.5 h -76.43 V 987.598 h -22.61 v -31.047 h 140.06 z m -73.58,0 c -6.3,1.691 -9.44,6.75 -9.44,15.192 v 65.47 h 19.74 c 8.88,0 13.32,-4.17 13.32,-12.49 v -55.01 c -0.11,-0.901 -0.16,-1.74 -0.16,-2.53 0,-4.05 1.8,-7.589 5.4,-10.632 z m -82.01,167.382 h -38.13 v -31.55 h 38.13 z m -53.48,0 h -38.31 v -31.55 h 38.31 z m -14.34,-167.722 v 60.412 c 0,13.05 5.85,19.58 17.54,19.58 h 13.5 v -79.992 z m 88.59,0.34 h -22.95 v 110.682 h -68.34 c -8.89,0 -16.49,-3.64 -22.79,-10.95 -3.49,-3.94 -5.78,-8 -6.92,-12.15 -1.34,-4.73 -2.02,-9.24 -2.02,-13.51 V 956.551 h 123.02 z m -217.56,213.962 h -34.42 V 956.551 h 34.42 z M 4756.06,956.551 h 69.19 v 245.009 h -34.42 V 987.598 h -34.77 z m -132.12,31.047 -8.1,14.342 v 31.55 c 0,10.14 4.67,15.19 14.02,15.19 9.32,0 13.98,-5.12 13.98,-15.35 v -45.732 z m -70.19,-31.047 h 207.53 v 31.047 h -18.2 v 85.552 c 0,29.02 -13.8,43.48 -41.34,43.36 h -105.8 v -21.08 h 66.3 c 30.95,0 46.42,-12.21 46.42,-36.63 v -71.202 h -30.22 v 60.582 c 0,18.79 -9.61,28.18 -28.86,28.18 h -42.01 c -16.75,0 -25.12,-8.34 -25.12,-24.98 v -47.59 l 8.09,-16.192 h -36.79 z m 6.07,31.047 h -16.52 v 213.962 h -34.43 V 987.598 h -43.19 c 8.65,1.574 12.98,9.449 12.98,23.622 v 190 h -34.41 v -185.28 l -0.69,-11.81 c -1,-7.083 -2.31,-11.407 -3.88,-12.989 -1.92,-2.352 -3.98,-3.543 -6.23,-3.543 h -13.69 v -31.047 h 140.06 z M 4381.01,1201.9 h -34.59 V 987.598 h -52.8 v 111.712 c -8.79,0 -16.75,-4.26 -23.89,-12.75 -7.15,-8.49 -10.71,-17.24 -10.71,-26.23 V 956.551 h 121.99 z m -216.53,-0.34 h -34.42 V 956.551 h 34.42 z m -138.31,5.9 v 9.29 h -21.6 v 18.05 c 2.12,0.11 3.93,0.16 5.39,0.16 2.36,0 3.9,-0.22 4.64,-0.67 0.74,-0.45 1.1,-1.29 1.1,-2.53 v -7.42 h 10.47 v 9.28 c 0,6.97 -3,10.46 -8.95,10.46 h -22.95 v -27.33 h -7.42 v -9.29 z m 64.79,-250.909 v 245.009 h -34.42 V 987.598 h -43.2 c 8.66,1.574 13,9.449 13,23.622 v 190 h -34.42 v -185.28 l -0.67,-11.81 c -1.03,-7.083 -2.33,-11.407 -3.9,-12.989 -1.91,-2.352 -4,-3.543 -6.25,-3.543 h -13.65 v -31.047 z m -163.46,0 v 31.047 c -11.71,-0.121 -17.54,6.3 -17.54,19.232 l 0.15,47.59 c 0.12,29.59 -15.53,44.38 -46.9,44.38 h -58.56 v -46.06 h 32.74 v 17.54 h 11.65 c 18.22,0 27.28,-9.17 27.17,-27.5 l -0.17,-35.95 c 0,-9.783 2.87,-16.189 8.6,-19.232 h -104.12 v -31.047 z m -141.91,31.047 h -8.94 c -4.28,0 -6.41,2.644 -6.41,7.929 v 75.253 c 0,18.35 -8.55,27.5 -25.65,27.5 h -76.44 V 987.598 h -22.62 v -31.047 h 140.06 z m -73.56,0 c -6.3,1.691 -9.46,6.75 -9.46,15.192 v 65.47 h 19.74 c 8.89,0 13.34,-4.17 13.34,-12.49 v -55.01 c -0.13,-0.901 -0.17,-1.74 -0.17,-2.53 0,-4.05 1.79,-7.589 5.4,-10.632 z m -60.75,0 h -21.93 v 110.682 h -34.09 V 958.238 c 0,-6.289 -1.78,-10.972 -5.31,-14 -3.55,-3.05 -10.89,-4.558 -22.03,-4.558 v -25.313 h 14.85 c 8.56,0 14.97,0.563 19.24,1.696 8.42,2.234 15.19,7.414 20.25,15.515 4.6,7.422 6.98,15.762 7.09,24.973 h 21.93 z M 3490.94,1201.56 H 3456.5 V 956.551 h 34.44 z M 3348.91,956.551 h 69.17 v 245.009 h -34.42 V 987.598 h -34.75 z m 5.23,0 v 31.047 h -72.73 l -16.2,23.622 v 56.03 h 17.21 c 10.58,0 15.87,-6.53 15.87,-19.58 v -23.11 h 34.59 v 38.46 c 0,23.52 -10.02,35.26 -30.04,35.26 h -72.04 v -88.91 l 13.16,-21.772 h -43.89 v -31.047 z m -148.32,31.047 h -21.95 V 1098.28 H 3149.8 V 958.238 c 0,-6.289 -1.77,-10.972 -5.31,-14 -3.55,-3.05 -10.89,-4.558 -22.01,-4.558 v -25.313 h 14.84 c 8.53,0 14.95,0.563 19.23,1.696 8.45,2.234 15.18,7.414 20.24,15.515 4.61,7.422 6.98,15.762 7.08,24.973 h 21.95 z m -135.79,-50.285 h -38.29 v -31.555 h 38.29 z m 30.2,19.238 v 141.729 h -34.41 V 987.598 h -61.25 v -31.047 z m -102.41,31.047 v 44.032 c 0,29.14 -13.96,43.71 -41.85,43.71 l -123.52,-0.16 v -31.22 l 33.41,0.17 c 8.22,0 14.37,-1.77 18.48,-5.32 4.1,-3.54 6.16,-8.81 6.16,-15.78 v -35.432 h -139.2 l 0.17,90.442 c -24.75,0 -37.13,-14.06 -37.13,-42.18 v -79.481 h 210.92 v 87.751 h 13.16 c 16.43,0 24.63,-7.03 24.63,-21.1 v -66.479 h 46.56 v 31.047 z m -124.19,-50.285 h -38.13 v -31.555 h 38.13 z m -53.49,0 h -38.31 v -31.555 h 38.31 z m -200.17,264.247 h -34.42 V 956.551 h 34.42 z M 2477.94,956.551 h 69.19 V 1201.56 H 2512.7 V 987.598 h -34.76 z m 5.57,31.047 h -16.87 v 110.682 h -34.43 V 987.598 h -29.69 v 110.682 h -34.26 V 987.598 h -32.73 v 110.682 h -34.25 V 987.598 h -37.13 v -31.047 h 219.36 z m -213.45,0 h -19.07 v 110.682 h -67.83 c -24.97,0 -37.46,-12.59 -37.46,-37.78 V 956.551 h 70.7 c 0.23,-1.684 0.34,-3.266 0.34,-4.723 0,-10.687 -6.02,-16.031 -18.06,-16.031 h -53.32 v -23.801 h 74.41 c 20.82,0 31.22,12.942 31.22,38.813 v 5.742 h 19.07 z m -89.77,0 v 60.072 c 0,13.05 6.35,19.58 19.07,19.58 h 17.04 v -79.652 z m -75.21,110.682 H 2071 V 958.238 c 0,-6.289 -1.77,-10.972 -5.31,-14 -3.55,-3.05 -10.89,-4.558 -22.03,-4.558 v -25.313 h 14.85 c 8.55,0 14.96,0.563 19.24,1.696 8.55,2.234 15.35,7.539 20.42,15.859 4.61,7.539 6.91,15.965 6.91,25.305 z M 1968.62,937.313 h -38.14 v -31.555 h 38.14 z m -53.49,0 h -38.31 v -31.555 h 38.31 z m 105.29,74.077 c 0.12,29.25 -13.89,43.82 -42.02,43.7 l -39.99,-0.17 v 71.04 h 17.22 c 10.58,0 15.86,-6.52 15.86,-19.58 v -16.87 h 34.59 v 32.4 c 0,23.52 -10.01,35.27 -30.03,35.27 H 1904 V 1023.7 l 56.86,0.17 c 16.42,0 24.63,-7.02 24.63,-21.08 v -15.192 h -139.03 v 90.782 c -23.06,-1.58 -35.43,-15.58 -37.13,-42.01 v -79.991 h 210.93 l 0.16,55.011" /></g></g></svg>