<?xml version="1.0" encoding="UTF-8" standalone="no"?>
<svg
   xmlns:dc="http://purl.org/dc/elements/1.1/"
   xmlns:cc="http://creativecommons.org/ns#"
   xmlns:rdf="http://www.w3.org/1999/02/22-rdf-syntax-ns#"
   xmlns:svg="http://www.w3.org/2000/svg"
   xmlns="http://www.w3.org/2000/svg"
   viewBox="0 0 375.56 375.56"
   height="375.56"
   width="375.56"
   xml:space="preserve"
   id="svg2"
   version="1.1"><metadata
     id="metadata8"><rdf:RDF><cc:Work
         rdf:about=""><dc:format>image/svg+xml</dc:format><dc:type
           rdf:resource="http://purl.org/dc/dcmitype/StillImage" /><dc:title></dc:title></cc:Work></rdf:RDF></metadata><defs
     id="defs6" /><g
     transform="matrix(1.3333333,0,0,-1.3333333,0,375.56)"
     id="g10"><g
       transform="scale(0.1)"
       id="g12"><path
         id="path14"
         style="fill:#46c2d1;fill-opacity:1;fill-rule:nonzero;stroke:none"
         d="m 1408.34,425.371 c -542.875,0 -982.973,440.078 -982.973,982.959 0,542.88 440.098,982.97 982.973,982.97 542.89,0 983,-440.09 983,-982.97 0,-542.881 -440.11,-982.959 -983,-982.959 z m 0,2391.299 C 630.535,2816.67 0,2186.13 0,1408.33 0,630.52 630.535,0 1408.34,0 2186.15,0 2816.7,630.52 2816.7,1408.33 c 0,777.8 -630.55,1408.34 -1408.36,1408.34" /><path
         id="path16"
         style="fill:#ec2629;fill-opacity:1;fill-rule:nonzero;stroke:none"
         d="M 1550.83,723.531 C 1195.4,740.84 922.484,1066.75 941.207,1451.51 c 18.742,384.8 322.053,682.66 677.483,665.35 150.74,-7.34 286.31,-70.59 391.42,-169.91 -139.05,176.66 -345.02,293.2 -579.65,304.65 C 985.277,2273.27 605.824,1908.58 582.848,1437.03 559.879,965.488 902.109,565.691 1347.29,544 1682.17,527.68 1979.81,730.039 2116.54,1032.03 1993.83,836.75 1783.82,712.16 1550.83,723.531" /><path
         id="path18"
         style="fill:#ffffff;fill-opacity:1;fill-rule:nonzero;stroke:none"
         d="m 879.984,472.102 53.028,-24.352 -35.848,-78.129 102.856,47.359 65.85,-30.25 -112.057,-45.531 27.988,-162.34 -65.844,30.243 -15.484,110.718 -32.145,-12.898 -28.781,-62.731 -53.031,24.348 93.468,203.563" /><path
         id="path20"
         style="fill:#ffffff;fill-opacity:1;fill-rule:nonzero;stroke:none"
         d="m 1018.34,233.379 55.71,-17.399 -17.34,-55.66 -55.71,17.301 17.34,55.758" /><path
         id="path22"
         style="fill:#ffffff;fill-opacity:1;fill-rule:nonzero;stroke:none"
         d="m 1174.36,261.48 48.18,-8.539 c 17.29,-3.089 28.21,4.52 31.16,21.2 2.89,16.379 -8.74,26.089 -24.81,28.961 l -45.73,8.089 z m -40.49,105.93 112.43,-19.949 c 38.94,-6.879 74.11,-31.289 66.22,-75.762 -4.21,-23.801 -19.63,-44.308 -44.39,-49.16 l -0.14,-0.609 c 22.52,-9.75 24.66,-37.2 22.77,-58.539 -1.01,-9.36 -5.83,-41.969 0.46,-51.391 l -56.83,10.102 c -3.61,8.289 -0.72,30.058 -0.23,36.386 2.39,22.5 2.73,46.012 -24.14,50.774 l -43.56,7.738 -14.23,-80.32 -57.48,10.179 39.12,220.551" /><path
         id="path24"
         style="fill:#ffffff;fill-opacity:1;fill-rule:nonzero;stroke:none"
         d="m 1322.29,172.148 58.3,-2.789 -2.8,-58.269 -58.3,2.762 2.8,58.296" /><path
         id="path26"
         style="fill:#ffffff;fill-opacity:1;fill-rule:nonzero;stroke:none"
         d="m 1554.13,262.98 c -5,22.282 -23.49,32.711 -47.89,30.692 -37.52,-3.141 -49.13,-37.453 -46.38,-70.602 2.76,-33.148 19.89,-65.07 57.41,-61.949 27.2,2.238 41.53,19.16 41.59,44.988 l 58.14,4.84 c 1.65,-57.789 -37.74,-95.09 -94.34,-99.769 -67.5,-5.621 -115.59,42.34 -120.95,107.05 -5.38,64.731 34.12,119.93 101.65,125.559 48.13,4.012 102.88,-22.328 108.93,-75.949 l -58.16,-4.86" /><path
         id="path28"
         style="fill:#ffffff;fill-opacity:1;fill-rule:nonzero;stroke:none"
         d="m 1641.96,190.641 56.89,12.98 13.01,-56.859 -56.9,-13.012 -13,56.891" /><path
         id="path30"
         style="fill:#ffffff;fill-opacity:1;fill-rule:nonzero;stroke:none"
         d="m 1770.64,240.148 c 9.75,-24.539 27.93,-27.238 51.34,-19.168 16.64,5.711 31.8,17.559 26.39,33.27 -6.41,18.691 -37.88,11.891 -71.41,9.961 -33.22,-1.77 -69.65,0.937 -83.02,39.809 -15.89,46.269 24.44,80.41 64.22,94.07 42.1,14.469 91.59,8.582 108.29,-39.102 l -55.17,-18.957 c -5.73,19.59 -25.99,19.59 -42.89,13.789 -11.86,-4.082 -25.26,-13.34 -20.49,-27.269 5.62,-16.34 37.19,-8.781 71.01,-6.789 33.51,1.886 69.26,-1.742 82.43,-40.024 18.45,-53.699 -21.34,-86.566 -67.92,-102.59 -48.64,-16.707 -99.01,-10.148 -117.96,44.043 l 55.18,18.957" /><path
         id="path32"
         style="fill:none;stroke:#ffffff;stroke-width:8.1781702;stroke-linecap:butt;stroke-linejoin:miter;stroke-miterlimit:4;stroke-dasharray:none;stroke-opacity:1"
         d="m 2454.52,1391.12 c 0,584.15 -473.52,1057.69 -1057.68,1057.69 -584.152,0 -1057.699,-473.54 -1057.699,-1057.69 0,-584.151 473.547,-1057.698 1057.699,-1057.698 584.16,0 1057.68,473.547 1057.68,1057.698 z" /></g></g></svg>