<?xml version="1.0" encoding="UTF-8" standalone="no"?>
<!-- Created with Inkscape (http://www.inkscape.org/) -->

<svg
   version="1.1"
   id="svg1"
   width="655.28003"
   height="657.43201"
   viewBox="0 0 655.28003 657.43201"
   sodipodi:docname="Kuweit_logo-AR_EN-CMYK_00.95.100.00.svg"
   inkscape:version="1.3.2 (091e20e, 2023-11-25, custom)"
   xmlns:inkscape="http://www.inkscape.org/namespaces/inkscape"
   xmlns:sodipodi="http://sodipodi.sourceforge.net/DTD/sodipodi-0.dtd"
   xmlns="http://www.w3.org/2000/svg"
   xmlns:svg="http://www.w3.org/2000/svg">
  <defs
     id="defs1" />
  <sodipodi:namedview
     id="namedview1"
     pagecolor="#ffffff"
     bordercolor="#666666"
     borderopacity="1.0"
     inkscape:showpageshadow="2"
     inkscape:pageopacity="0.0"
     inkscape:pagecheckerboard="0"
     inkscape:deskcolor="#d1d1d1"
     inkscape:export-bgcolor="#ffffffff"
     inkscape:zoom="1.2487983"
     inkscape:cx="327.91523"
     inkscape:cy="328.716"
     inkscape:window-width="1920"
     inkscape:window-height="1017"
     inkscape:window-x="-8"
     inkscape:window-y="-8"
     inkscape:window-maximized="1"
     inkscape:current-layer="g1">
    <inkscape:page
       x="0"
       y="0"
       inkscape:label="1"
       id="page1"
       width="655.28003"
       height="657.43201"
       margin="0"
       bleed="0"
       inkscape:export-filename="Kuweit_logo-AR_EN-CMYK_00.95.100.00.png"
       inkscape:export-xdpi="300"
       inkscape:export-ydpi="300" />
  </sodipodi:namedview>
  <g
     id="g1"
     inkscape:groupmode="layer"
     inkscape:label="1">
    <g
       id="group-MC1">
      <path
         id="path2"
         d="m 0,0 c 0,-135.749 -110.013,-245.748 -245.726,-245.748 -135.713,0 -245.734,109.999 -245.734,245.748 0,135.691 110.021,245.705 245.734,245.705 C -110.013,245.705 0,135.691 0,0 m -242.567,161.594 c -88.655,0 -160.558,-72.186 -160.558,-161.21 0,-89.024 71.903,-161.195 160.558,-161.195 88.654,0 160.513,72.171 160.513,161.195 0,89.024 -71.859,161.21 -160.513,161.21"
         style="fill:#3871c1;fill-opacity:1;fill-rule:nonzero;stroke:none"
         transform="matrix(1.3333333,0,0,-1.3333333,655.28,327.60667)" />
      <path
         id="path3"
         d="m 0,0 c -0.674,-1.246 -1.485,-2.406 -2.463,-3.398 0.507,-0.565 1.34,-1.29 1.594,-1.964 0.572,-2.449 -1,-4.644 -2.275,-5.847 -1.022,-1.029 -2.225,-1.898 -3.384,-2.63 -0.645,2.261 1.659,3.123 2.76,4.768 -0.55,0.427 -1.282,0.978 -1.543,1.63 -0.195,2.746 1.297,4.724 2.92,6.774 C -1.884,-0.015 -0.601,1.963 0,0"
         style="fill:#ffffff;fill-opacity:1;fill-rule:nonzero;stroke:none"
         transform="matrix(1.3333333,0,0,-1.3333333,299.672,21.188)" />
      <path
         id="path4"
         d="m 0,0 c -1.362,-2.674 -0.87,-6.187 -1.189,-9.223 0.037,-6.398 -0.927,-12.397 -2.39,-18.019 -1.029,-2.232 -1.312,-4.935 -2.544,-7.007 -0.173,-0.253 -0.347,0 -0.521,0 l -0.384,0.341 c 0.079,2.956 0.616,5.745 0.594,8.788 -0.029,5.746 -0.688,11.535 0.435,16.94 0.876,4.13 3.854,7.702 6.078,11.122 C 0.195,3.13 0.456,3.21 0.63,3.043 L 0.891,2.659 C 0.594,1.797 0.471,0.804 0,0"
         style="fill:#ffffff;fill-opacity:1;fill-rule:nonzero;stroke:none"
         transform="matrix(1.3333333,0,0,-1.3333333,329.28667,33.32)" />
      <path
         id="path5"
         d="m 0,0 c 0.095,-1.232 -0.797,-2.05 -0.883,-3.13 -0.783,-6.253 -0.276,-12.904 -1.537,-19.084 -1.209,-6.043 -3.535,-11.89 -6.73,-17.208 -1.138,-1.956 -3.022,-3.326 -4.985,-4.572 -1.152,-0.84 -1.928,-0.116 -3.224,0.239 -1.399,0.37 -2.783,0.92 -3.681,1.935 -1.087,1.289 0.623,3.231 0.782,4.854 0.79,3.398 1.855,6.608 1.326,10.39 -0.246,3.681 -1.029,7.97 0.92,11.107 1.312,2.435 2.631,4.688 3.993,7.173 0.087,0.174 0.427,0.261 0.601,0.174 0.471,-0.254 0.391,-0.978 0.174,-1.319 -2.282,-4.782 0.268,-10.766 -1.239,-15.874 -0.877,-4.543 -2.652,-8.76 -4.304,-13.107 5.007,1.108 10.738,4.05 12.122,9.115 1.898,7.093 -0.558,15.591 1.565,22.431 1.173,2.493 2.833,4.557 3.898,7.086 C -0.992,0.739 -0.13,0.565 0,0"
         style="fill:#ffffff;fill-opacity:1;fill-rule:nonzero;stroke:none"
         transform="matrix(1.3333333,0,0,-1.3333333,314.81333,29.98)" />
      <path
         id="path6"
         d="m 0,0 c -0.333,-1.558 -1.522,-2.63 -2.377,-3.963 -1.615,-3.311 -2.405,-7.006 -3.463,-10.615 -1.949,-5.361 -2.55,-11.447 -5.006,-16.657 -2.036,-4.934 -5.224,-9.535 -8.898,-13.665 -3.746,-4.26 -9.013,-7.375 -15.266,-6.68 -3.688,0.406 -7.18,2.956 -8.527,6.55 -1.471,3.847 -0.935,8.622 1.021,12.013 2.456,5.68 7.021,9.556 10.81,14.208 0.428,0.515 1.065,0.725 1.703,0.725 l 0.181,-0.341 c -0.804,-1.072 -1.442,-2.239 -2.384,-3.145 -2.644,-2.659 -4.687,-5.586 -5.963,-9.063 -1.137,-3.232 -0.217,-7.166 2.036,-9.6 2.493,-2.775 6.927,-3.986 10.76,-2.645 3.137,0.753 5.789,2.304 7.73,4.63 3.92,7.738 4.587,16.78 7.13,25.032 0.79,3.478 2.326,6.775 5.101,9.238 1.833,1.725 2.811,3.398 4.854,4.782 C -0.167,0.724 0.094,0.427 0,0"
         style="fill:#ffffff;fill-opacity:1;fill-rule:nonzero;stroke:none"
         transform="matrix(1.3333333,0,0,-1.3333333,385.17333,31.716)" />
      <path
         id="path7"
         d="m 0,0 c -0.153,-2.942 -2.036,-5.021 -3.739,-7.303 -2.471,-2.761 -6.13,-5.558 -8.513,-8.702 l 0.159,-0.551 c 1.681,-1.231 3.572,-2.941 3.239,-5.166 -0.797,-2.405 -1.855,-4.687 -2.906,-6.934 -1.246,-1.072 -2.325,0.551 -3.224,1.145 -0.739,0.522 -1.507,1.754 -2.369,1.275 -2.775,-1.681 -3.652,-5.55 -5.912,-8.165 -3.196,-3.789 -6.441,-7.543 -10.318,-10.643 -9.998,-7.978 -21.75,-13.839 -35.734,-12.622 -1.543,0.254 -3.26,0.326 -4.586,0.79 0.014,-3.166 0.282,-6.166 0.079,-9.253 -0.028,-0.992 0.058,-2.108 -0.239,-3.042 -0.159,-0.435 -0.253,-0.776 -0.507,-1.131 -1.833,-2.224 -4.39,-3.267 -7.042,-5.122 -0.645,-0.297 -0.971,-0.486 -1.58,-0.399 0.203,1.377 2.681,3.652 3.355,5.253 2.115,4.115 3.978,8.76 3.434,14.288 0.333,3.043 -1.188,6.897 1.456,9.042 5.847,-1.456 12.281,-1.818 18.346,-0.406 12.904,2.884 24.308,10.839 32.611,20.657 2.42,2.876 4.688,5.55 7.499,7.912 1.855,5.934 6.514,10.245 10.774,14.382 l 0.34,0.522 -0.347,0.297 c -3.13,-0.486 -6.601,-0.254 -8.934,-2.493 -1.036,-0.992 -1.492,-2.405 -2.862,-3.152 -0.514,0 -0.775,0.479 -0.703,0.986 0.044,0.34 0,0.695 0.182,0.992 1.521,3.101 2.659,6.521 5.948,8.347 C -9.101,2.492 -5.5,2.079 -1.971,1.84 -1.124,1.797 -0.095,1.159 0,0"
         style="fill:#ffffff;fill-opacity:1;fill-rule:nonzero;stroke:none"
         transform="matrix(1.3333333,0,0,-1.3333333,286.93733,44.641333)" />
      <path
         id="path8"
         d="m 0,0 c 0.181,-2.137 -1.486,-3.681 -1.732,-5.659 -3.021,-3.963 -6.861,-7.107 -10.361,-10.687 -2.043,-1.978 -4.086,-3.789 -5.579,-6.028 -0.478,0 -0.732,-0.819 -1.195,-0.311 l -0.109,3.101 c 5.275,6.448 11.6,12.86 17.084,18.845 0.479,0.485 0.631,1.478 1.45,1.391 L 0,0"
         style="fill:#ffffff;fill-opacity:1;fill-rule:nonzero;stroke:none"
         transform="matrix(1.3333333,0,0,-1.3333333,240.66267,47.169333)" />
      <path
         id="path9"
         d="m 0,0 c 1.463,-2.775 -0.109,-5.492 -0.855,-8.064 -1.225,-4.202 -5.963,-6.68 -8.477,-10.245 -0.341,-0.384 -0.602,-0.565 -1.152,-0.399 -0.268,0.566 -0.008,1.16 0.289,1.645 2.29,4.043 5.492,7.528 7.434,11.81 -0.558,0 -1.413,-0.254 -1.884,-0.674 -1.804,-1.007 -3.586,-2.043 -4.992,-3.557 -0.645,-0.638 -0.507,-1.877 -1.144,-2.485 -0.254,0.079 -0.645,0.253 -0.566,0.608 0.29,2.942 0.189,6.376 2.312,8.361 2.311,1.16 4.622,2.761 7.325,3.594 C -1.073,0.681 -0.355,0.638 0,0"
         style="fill:#ffffff;fill-opacity:1;fill-rule:nonzero;stroke:none"
         transform="matrix(1.3333333,0,0,-1.3333333,183.596,65.226667)" />
      <path
         id="path10"
         d="m 0,0 c 0.326,-4.202 0.695,-9.209 -1.355,-12.824 -4.862,-10.144 -9.274,-20.374 -11.368,-31.655 l 0.188,-0.167 c 3.623,1.855 7.644,3 11.897,3.695 1.964,0.659 4.275,0.406 6.159,1.326 0.42,0.341 0.674,1.159 0.159,1.674 -1.557,3.934 -5.608,6.876 -5.622,11.542 -0.015,2.651 -1.022,5.1 -0.565,7.745 0.268,0.311 0.601,0.094 0.992,0.014 0.732,-0.891 0.435,-2.137 1,-3.13 2.811,-5.079 6.651,-9.774 6.992,-16.077 0.261,-2.304 1.13,-5.391 -0.058,-7.412 -1.362,-2.239 -4.536,-0.877 -6.984,-1.022 l -1.544,-0.268 c 0.181,-0.804 0.348,-1.84 0.66,-2.702 0.695,-2.094 1.557,-4.188 1.709,-6.412 0.131,-1.594 0.486,-3.253 0.022,-4.753 l -1.05,-3.608 c 0.652,-1.428 1.007,-3.044 1.521,-4.456 0.609,-1.631 0.573,-3.848 0.152,-5.659 -1.521,-3.297 -4.332,-6.289 -5.767,-9.665 -0.181,-0.174 -0.522,-0.015 -0.609,0.166 -0.905,1.631 0.247,3.174 0.413,4.71 0.623,1.731 0.747,2.326 1.218,3.782 1.014,2.913 1.601,5.579 1.028,8.702 -1.499,-1.247 -3.34,-1.935 -5.086,-2.717 -0.768,-0.355 -1.681,-0.015 -2.239,0.471 l -0.811,0.789 c -0.703,3.043 -2.007,5.869 -2.449,9.042 -0.094,1.413 1.051,2.051 2.13,2.573 1.703,0.355 3.76,0.586 5.369,-0.312 1.688,1.898 2.666,4.557 2.094,7.347 l -0.428,0.34 c -1.239,0.551 -2.876,0.964 -4.209,0.268 -2.217,-0.731 -3.927,-2.463 -6.238,-2.985 -1.203,-0.166 -1.667,0.594 -1.884,1.486 -0.884,3.68 -1.514,7.332 -0.884,11.281 1.376,7.202 3.398,14.077 6.064,20.729 1.681,5.107 4.246,9.578 6.659,14.432 l 1.782,4.435 C -0.442,0.978 -0.167,0.34 0,0"
         style="fill:#ffffff;fill-opacity:1;fill-rule:nonzero;stroke:none"
         transform="matrix(1.3333333,0,0,-1.3333333,142.87867,71.886667)" />
      <path
         id="path11"
         d="m 0,0 c 2.731,-5.521 6.057,-10.723 8.238,-16.418 1.565,-4.057 2.992,-8.137 3.912,-12.368 0.087,-0.688 0.015,-1.753 -0.804,-1.514 -0.985,0.087 -0.601,1.246 -1.166,1.884 -2.812,5.434 -5.413,10.513 -8.833,15.606 -1.543,2.862 -3.84,5.55 -3.644,9.332 0.123,2.319 -0.746,4.71 0.051,6.76 0.275,0.087 0.645,0 0.898,-0.087 C -0.355,2.478 -0.507,1.101 0,0"
         style="fill:#ffffff;fill-opacity:1;fill-rule:nonzero;stroke:none"
         transform="matrix(1.3333333,0,0,-1.3333333,156.11467,90.453333)" />
      <path
         id="path12"
         d="m 0,0 c -1.057,-1.413 -2.521,-2.022 -3.767,-3.195 -1.558,-1.841 -3.311,-3.609 -4.673,-5.637 -2.978,-4.326 -5.355,-9.115 -9.803,-12.397 -2.464,-1.724 -3.826,-4.514 -7.21,-5.122 -0.297,0.086 -0.652,0.34 -0.478,0.724 1.065,1.333 2.254,2.79 3.195,4.217 4.13,6.057 7.094,13.02 12.47,18.142 3.028,2.167 6.499,3.166 9.716,4.601 C 0.261,1.348 0.167,0.522 0,0"
         style="fill:#ffffff;fill-opacity:1;fill-rule:nonzero;stroke:none"
         transform="matrix(1.3333333,0,0,-1.3333333,520.04267,95.396)" />
      <path
         id="path13"
         d="m 0,0 c 0.906,-0.507 -0.166,-0.949 -0.434,-1.587 -0.544,-1.623 -0.703,-3.948 0.391,-5.477 2.398,-0.42 4.753,-1.145 7.158,-1.551 0.652,-0.724 -0.123,-1.42 -0.253,-2.449 -0.196,-0.811 -0.29,-1.456 -0.239,-2.224 0.043,-1.348 1.775,-3.166 0.536,-3.775 -4.065,-0.275 -5.92,-0.072 -8.325,1.239 -2.355,1.275 -1.348,4.717 -1.022,7.064 l -0.166,0.268 c -2.145,0.24 -4.123,0.79 -6.188,1.203 -1.978,1.145 -1.724,3.847 -1.311,5.92 0.297,1.072 0.376,2.217 1.449,2.883 C -5.448,1.174 -2.789,0.456 0,0"
         style="fill:#ffffff;fill-opacity:1;fill-rule:nonzero;stroke:none"
         transform="matrix(1.3333333,0,0,-1.3333333,543.14667,108.076)" />
      <path
         id="path14"
         d="m 0,0 c 2.674,-3.028 5.347,-5.492 6.695,-9.267 1.311,-3.666 2.449,-7.491 3.094,-11.505 0.565,-6.811 -1.986,-12.665 -4.311,-18.288 -1.565,-3.608 -3.435,-7.216 -5.739,-10.542 -3.637,-5.194 -7.665,-10.585 -12.991,-14.208 -3.333,-2.499 -6.709,-5.216 -11.295,-5.499 -0.689,0 -1.058,0.036 -1.667,0.42 -0.731,0.384 -0.869,1.841 -1.731,1.145 -1.493,-1.159 -2.21,-3.478 -1.638,-5.485 0.406,-1.42 0.783,-2.833 2.029,-3.68 1,-0.638 2.92,0.268 3.514,1.26 0.638,0.522 0.507,0.435 1.022,0.906 0.55,0.522 1.282,1.282 2.354,1.637 0.899,0.211 1.623,0.269 2.435,0.189 0.942,-0.029 1.594,-0.515 2.152,-1.065 5.39,-5.883 8.861,-13.542 7.107,-22.12 -1.152,-3.79 -3.572,-6.963 -7.933,-7.543 -5.398,-0.761 -9.796,2.688 -13.114,6.275 -2.797,3.108 -5.087,5.984 -7.115,9.433 -0.95,2.094 -1.877,3.978 -2.181,6.13 0.253,0.384 0.681,0.463 1.159,0.13 0.732,-1.108 1.051,-2.137 1.514,-3.173 1.949,-3.579 4.159,-7.13 7.775,-9.34 2.702,-1.992 7.325,-2.318 10.273,-0.507 4.109,2.898 5.246,8.731 3.884,13.911 -0.268,0.566 -1.123,0.254 -1.674,-0.101 -1.021,-0.725 -1.485,-3.21 -3.586,-3.963 -2.688,-0.609 -5.391,0.159 -7.209,2.021 -0.551,0.783 -0.949,1.246 -1.725,2.268 -1.297,1.666 -2.072,3.297 -2.941,5.557 -0.739,2.268 -1.015,4.615 -0.942,7.448 0.297,2.232 0.703,4.811 2.673,6.014 1.073,0.522 2.522,0.058 3.594,0.449 1.623,0.355 3.13,1.007 4.449,2 4.832,3.702 9.998,7.303 13.737,12.165 6.571,8.506 11.911,17.976 13.534,29.083 0.29,2.021 0.87,4.796 -1.319,6.47 -2.072,1.565 -3.926,3.058 -4.579,5.76 l -1.883,7.571 c 0,0.565 -0.138,1.326 0.427,1.297 C -0.616,3.043 -0.862,0.993 0,0"
         style="fill:#ffffff;fill-opacity:1;fill-rule:nonzero;stroke:none"
         transform="matrix(1.3333333,0,0,-1.3333333,105.124,133.13333)" />
      <path
         id="path15"
         d="M 0,0 3.304,-0.239 3.565,-0.623 C 2.688,-4.84 3.521,-8.984 4.362,-12.962 c 0.688,-2.065 1.087,-3.905 1.826,-5.521 2.738,-6.506 6.405,-12.962 12.092,-17.773 4.311,-4.101 9.426,-6.847 14.02,-10.303 1.355,-1.057 2.76,-1.869 4.05,-3.151 -0.623,-2.833 -2.579,-6.623 -0.42,-9.485 1.34,-2.137 3.405,-3.267 5.47,-4.513 l 0.297,0.014 c 1.877,1.855 3.101,4.855 1.848,7.499 -0.558,1.116 -2.196,1.333 -1.993,2.478 1.239,0.565 2.188,-0.326 3.232,-0.754 4.289,-1.862 8.854,-5.448 8.462,-10.882 -0.123,-1.71 -1.029,-3.391 -2.383,-4.043 -2.145,-0.964 -4.761,-0.623 -6.652,0.565 -0.601,-0.522 -0.804,-1.203 -0.898,-2.021 0.406,-3.471 3.55,-5.42 6.216,-6.738 2.449,-1.276 4.811,-2.377 7.21,-3.739 0.695,-0.377 1.123,-0.761 1.862,-0.971 7.078,-2.239 10.375,-9.173 15.034,-14.208 h 0.297 c 0.326,2.586 -0.413,5.021 -1.152,7.383 -0.739,2.521 -1.616,5.166 -3.847,6.782 -0.74,0.355 -1.544,0.507 -1.645,1.325 -0.087,0.384 0.348,0.384 0.558,0.558 l 0.601,0.008 c 3.608,-2.348 9.238,-2.645 10.158,-7.753 1,-3.297 1.268,-6.934 1.29,-10.498 0,-0.768 -0.16,-1.631 -0.754,-2.051 -2.608,-1.898 -5.238,0.435 -7.165,1.811 -5.21,3.652 -7.514,9.948 -12.47,14.035 -1.963,-0.877 -0.862,-4.601 -4.318,-4.275 -2.253,0.203 -4.405,0.797 -6.463,1.645 -0.819,0.297 -1.717,0.724 -2.289,1.398 -0.254,0.891 0.333,1.63 0.898,1.884 0.681,0.311 0.891,0.92 1.246,1.347 0.877,2.87 -2.688,2.602 -3.934,3.92 -3.058,1.783 -5.941,4.724 -6.427,8.332 -0.188,1.355 -0.014,2.79 0.884,3.768 -3.782,2.347 -8.904,4.412 -10.889,8.687 -0.486,1.116 0.065,2.275 0.579,3.268 0.123,0.123 0.471,0.739 0.674,0.992 0.688,0.761 1.674,1.58 1.493,2.362 -0.558,0.638 -1.109,0.979 -1.892,1.399 -0.681,0.471 -1.55,0.804 -2.579,1.405 -2.369,1.355 -4.688,2.674 -7.267,3.985 -2.355,1.246 -4.601,2.848 -6.832,4.558 -2.37,1.485 -4.13,3.412 -6.202,5.405 -4.913,4.825 -8.217,11.744 -10.122,17.62 -1.529,4.616 -1.942,9.637 -2.051,14.861 v 0.42 c -2.883,0.34 -5.745,0.058 -8.535,0.398 l -5.187,0.442 c -0.602,0.08 -0.174,0.717 -0.087,0.985 l 0.246,0.174 c 3.695,0.566 7.296,0.935 10.933,0.689 C -5.448,0.522 -2.876,0.326 0,0"
         style="fill:#ffffff;fill-opacity:1;fill-rule:nonzero;stroke:none"
         transform="matrix(1.3333333,0,0,-1.3333333,515.82533,131.69867)" />
      <path
         id="path16"
         d="m 0,0 c 0.529,-2.181 1.094,-4.673 0.29,-6.818 -0.71,-3.528 -3.398,-6.202 -4.782,-9.412 -0.181,-0.13 -0.442,-0.297 -0.739,-0.297 l -0.189,1.623 c 1.058,3.934 3.102,7.434 3.638,11.549 -0.645,0.073 -1.283,-0.608 -1.79,-1.087 -1.637,-1.985 -3.76,-3.738 -4.731,-6.281 0.174,-0.725 0.304,-1.507 0.188,-2.225 -1.42,0.254 -1.174,2.051 -1.695,3.116 -0.993,1.71 -0.754,4.369 0.311,6.014 2.138,2.231 3.84,4.934 6.789,6.281 C -1.13,2.565 -0.304,1.203 0,0"
         style="fill:#ffffff;fill-opacity:1;fill-rule:nonzero;stroke:none"
         transform="matrix(1.3333333,0,0,-1.3333333,80.208,154.56667)" />
      <path
         id="path17"
         d="m 0,0 c -0.253,-1.246 -2.014,-0.906 -2.304,-2.065 -0.225,-0.862 0.377,-1.674 1.167,-2.224 1.804,-1.073 2.05,2.064 3.854,1.825 0.725,0.174 1.536,0.638 2.217,0.174 C 5.318,-3.369 3.876,-3.92 3.529,-4.782 2.478,-5.434 2.087,-6.68 2.565,-7.738 l 0.167,-0.218 c 0.985,0.558 1.797,1.718 2.775,2.37 0.601,0.181 1.42,0.434 2.144,0.268 0.348,-0.515 -0.087,-0.978 -0.326,-1.333 -1.543,-1.29 -2.521,-3.058 -4.485,-3.536 -1.036,-0.254 -2.449,-0.355 -3.13,0.536 -0.666,0.819 -0.753,1.963 -0.92,3.043 -1.71,0.087 -3.695,0.283 -4.376,2.123 -0.312,0.717 -0.63,1.666 -0.203,2.318 0.688,1.754 3.55,2.449 5.775,2.717 L 0,0"
         style="fill:#ffffff;fill-opacity:1;fill-rule:nonzero;stroke:none"
         transform="matrix(1.3333333,0,0,-1.3333333,557.10933,155.152)" />
      <path
         id="path18"
         d="m 0,0 c 0.739,-2.304 1.008,-4.883 1.029,-7.499 0,-0.427 0.131,-1.021 -0.087,-1.318 -1.275,-1.935 -4.021,-1.399 -6.159,-1.667 -0.26,-0.811 0.044,-1.42 0.138,-2.137 0.225,-1.717 0.71,-3.514 0.449,-5.181 -0.203,-1.304 -1.275,-2.333 -2.768,-2.376 -1.724,-0.058 -3.05,0.536 -4.216,1.427 -0.566,2.79 -0.92,5.536 -1.406,8.238 0,0.464 0,0.891 0.544,0.978 0.738,0.094 0.818,-0.71 1.34,-0.898 0.906,-0.594 2.057,-0.065 2.949,0.188 2.311,1.087 0.927,3.949 0.703,5.927 -0.087,0.637 -0.218,0.681 -0.182,1.456 -0.043,0.638 0,1.333 0.073,1.971 2.405,-0.37 5.195,-0.457 7.071,1.188 L 0,0"
         style="fill:#ffffff;fill-opacity:1;fill-rule:nonzero;stroke:none"
         transform="matrix(1.3333333,0,0,-1.3333333,132.48133,182.77467)" />
      <path
         id="path19"
         d="m 0,0 c 2.275,-0.725 0.522,-2.051 0.276,-3.521 -0.16,-1.022 -0.5,-2.138 -0.073,-3.203 0.558,-0.608 1.044,-1.116 1.551,-1.413 1.985,-0.804 3.862,-1.529 5.927,-2.253 0.905,-0.659 -0.334,-1.5 -0.283,-2.558 -0.246,-1.644 -0.065,-3.224 0.326,-4.767 -0.087,-0.515 -0.638,-0.428 -0.985,-0.515 -2.696,0.5 -5.746,1.558 -7.738,2.623 -1.804,1.797 -0.826,4.826 -0.667,7.144 -0.696,0.565 -1.63,0.428 -2.529,0.848 -2.159,0.978 -5.637,1.391 -5.905,4.217 -0.188,1.97 0.631,3.948 1.768,5.492 1.717,0.992 3.608,-0.152 5.021,-0.877 C -2.188,0.681 -1.079,0.326 0,0"
         style="fill:#ffffff;fill-opacity:1;fill-rule:nonzero;stroke:none"
         transform="matrix(1.3333333,0,0,-1.3333333,527.316,187.02)" />
      <path
         id="path20"
         d="M 0,0 C 0.993,-2.123 1.435,-4.398 1.623,-6.796 1.536,-7.992 0.391,-8.079 -0.514,-8.347 -1.493,-8.615 -2.652,-8.448 -3.55,-8.912 c 0.174,-2.492 2.557,-5.666 0.21,-7.6 -1.457,-1.203 -3.427,-1.812 -5.355,-1.008 -0.854,0.341 -2.057,0.537 -2.159,1.616 -0.557,2.659 -1.014,5.347 -1.84,7.84 0,0.55 0.601,0.55 0.993,0.478 0.905,-0.652 1.804,-0.906 2.869,-0.638 0.891,0.486 2.057,0.667 2.565,1.739 -0.015,2.398 -0.833,4.746 -0.935,7.238 0.645,0.464 1.413,-0.297 2.268,-0.116 C -3.601,0.724 -2.536,0.681 -1.55,1.5 -0.391,1.942 -0.304,0.478 0,0"
         style="fill:#ffffff;fill-opacity:1;fill-rule:nonzero;stroke:none"
         transform="matrix(1.3333333,0,0,-1.3333333,54.773333,199.47333)" />
      <path
         id="path21"
         d="m 0,0 c 4.941,-3.623 9.607,-7.543 14.288,-11.195 0.261,-0.268 0.13,-0.731 -0.087,-0.905 -0.811,-0.638 -1.964,0.159 -2.876,0.239 -4.942,3.565 -10.057,7.999 -15.1,11.237 -0.166,0.442 0.384,0.442 0.471,0.522 C -2.137,-0.182 -1.072,0.456 0,0"
         style="fill:#ffffff;fill-opacity:1;fill-rule:nonzero;stroke:none"
         transform="matrix(1.3333333,0,0,-1.3333333,614.78933,224.86933)" />
      <path
         id="path22"
         d="M 0,0 C 0.746,-2.536 1.007,-5.318 1.029,-7.985 L 0.681,-8.362 c -1.717,-0.355 -3.507,-0.623 -5.311,-0.543 -0.072,-1.369 0.565,-2.616 0.667,-4.028 0.347,-1.631 0.362,-3.768 -1.044,-4.855 -1.717,-0.905 -4.028,-1.007 -5.912,-0.369 l -0.522,0.507 c -0.231,2.789 -0.42,5.369 -0.688,8.136 0,0.312 0,0.826 0.428,0.739 1.282,-0.804 3.05,-0.536 4.245,0.015 l 1.326,1.087 c -0.021,2.702 -0.594,5.1 -0.434,7.883 0.376,0.268 0.731,-0.08 1.115,-0.152 1.508,-0.218 2.826,0.253 4.29,0.434 C -0.659,1.231 0,0.492 0,0"
         style="fill:#ffffff;fill-opacity:1;fill-rule:nonzero;stroke:none"
         transform="matrix(1.3333333,0,0,-1.3333333,112.09467,230.98267)" />
      <path
         id="path23"
         d="M 0,0 C 0.942,-0.341 2.145,-0.254 2.71,-1.232 2.71,-1.884 2.152,-1.783 1.898,-2.138 0.485,-3.862 -0.145,-6.34 0.601,-8.535 0.601,-8.955 0.138,-8.97 -0.13,-9.057 -3,-8.55 -5.622,-7.63 -8.115,-6.13 c -2.014,1.188 -0.195,4.021 0.529,5.608 0.681,0.819 1.58,1.638 2.739,1.739 C -3.05,1.398 -1.5,0.413 0,0"
         style="fill:#ffffff;fill-opacity:1;fill-rule:nonzero;stroke:none"
         transform="matrix(1.3333333,0,0,-1.3333333,582.85467,261.71867)" />
      <path
         id="path24"
         d="M 0,0 C 0.167,0 0.297,-0.044 0.428,-0.044 1.79,-0.254 3,-0.848 3.558,-2.08 c 0.188,-0.565 0.348,-1.079 0.746,-1.543 3.116,0.92 6.072,2.007 8.629,3.905 3.384,2.507 5.536,6.681 8.267,9.905 1.529,1.797 3.855,1.898 5.731,2.97 1.45,0.355 2.522,1.616 4.022,1.45 0.036,-0.131 0.036,-0.218 0.087,-0.341 V 14.179 C 30.96,13.02 29.12,12.708 28.569,11.716 25.084,6.992 21.063,2.847 16.542,-0.507 c -0.674,-0.442 -1.196,-1.036 -1.884,-1.471 -1.449,-0.87 -3.362,-2.42 -5.463,-3.29 l -3.21,-1.398 c 0.732,-0.493 1.804,-0.666 2.703,-1.043 1.739,-1.065 4.05,-1.956 4.318,-4.347 0.174,-2.79 -1.261,-5.804 -3.862,-7.007 -2.239,-1.086 -4.84,-1.796 -7.542,-1.072 -0.522,0.167 -0.986,0.341 -1.507,0.507 l -0.022,3.768 c 1.811,-0.855 3.615,-1.391 5.535,-1.094 0.435,0.101 0.689,0.188 0.978,0.355 1.08,0.478 0.602,2.275 -0.173,3.086 -1.602,1.623 -3.956,3.072 -6.362,3.181 z m -7.745,-2.094 c 0.464,0.21 0.935,0.427 1.449,0.609 C -4.245,-0.754 -2.231,0.152 0,0 l 0.051,-10.332 c -0.695,0 -1.42,-0.087 -2.101,-0.312 l -2.869,-0.92 c -0.601,-0.376 -1.58,-0.42 -2.138,-0.862 2.493,-0.717 4.775,-2.333 7.13,-3.434 l 0.022,-3.768 c -2.754,0.964 -5.289,1.978 -7.775,3.13 l -0.043,7.68 c 1.253,0.21 2.405,0.551 3.775,0.862 1.5,0.442 3.043,0.754 3.84,1.913 0.181,0.254 0.079,0.428 -0.08,0.638 -1,1.543 -2.246,1.84 -3.833,2.079 -1.282,0.087 -2.521,-0.058 -3.724,-0.413 z m -37.77,32.604 c -1.224,-2.507 -3.449,-4.695 -4.637,-7.361 -1.427,-3.746 -3.427,-7.086 -2.688,-11.462 1.29,-7.543 8.477,-12.042 14.491,-15.143 3.782,-1.949 8.151,-2.869 12.57,-3.92 1.805,-0.42 3.84,-1.145 5.71,-0.688 4.456,1 8.129,4.057 12.324,5.97 v -1.645 c -0.558,-0.166 -1.072,-0.34 -1.587,-0.55 -1.92,-0.862 -3.76,-1.993 -5.426,-3.239 -0.203,-0.312 -0.471,-0.355 -0.732,-0.652 -0.036,-0.297 0.094,-0.522 0.355,-0.551 2.137,-0.297 4.036,-0.326 6.296,-0.181 0.391,0 0.746,0.036 1.116,0.094 l 0.043,-7.68 c -1.681,0.717 -3.267,1.485 -4.89,2.377 -1.297,0.717 -2.283,0.282 -3.688,0.282 -5.108,0.015 -10.52,0.109 -15.57,0.906 -10.564,1.695 -21.541,5.543 -26.953,14.817 l -1.007,2.137 h -0.254 c -3.014,-3.652 -6.224,-7.615 -11.056,-8.549 -0.812,-0.167 -1.667,-0.312 -2.435,-0.015 -2.152,0.804 -4.485,2.565 -4.919,5.166 2.123,3.144 3.861,6.282 5.397,9.89 1.609,4.289 2.783,8.76 5.116,12.621 1.789,3.014 5.158,4.449 7.68,6.869 0.261,0.341 0.811,0.717 1.246,0.42 0.819,-1.572 -1.616,-2.405 -2.043,-3.651 -2.282,-4.935 -3.978,-10.34 -6.905,-14.984 -2.13,-3.398 -4.905,-6.209 -7.369,-9.086 0,-0.724 0.689,-0.905 1.073,-1.159 4.854,-1.116 9.303,1.217 12.665,4.188 0.811,1.072 1.623,2.449 1.956,3.782 0.797,3.079 3.297,8.499 4.782,11.542 0.761,1.558 1.913,2.985 2.941,4.318 0.841,1.072 1.783,2.022 2.768,2.971 0.949,0.934 1.877,1.97 2.949,2.789 0.507,0.181 0.507,-0.34 0.681,-0.623"
         style="fill:#ffffff;fill-opacity:1;fill-rule:nonzero;stroke:none"
         transform="matrix(1.3333333,0,0,-1.3333333,470.78667,95.585333)" />
      <path
         id="path25"
         d="M 5.0330515,-9.9121274e-4 16.503031,0.00293733 16.504942,-16.797373 23.055685,-23.442253 38.76043,0.00255076 53.145829,4.2670365e-5 30.805797,-31.539372 l 20.362597,-20.579747 -14.300894,0.0023 -20.363573,21.610065 -0.0022,-21.607354 -11.4699797,-0.0039 z m 0,0"
         style="fill:#ffffff;fill-opacity:1;fill-rule:nonzero;stroke:none"
         aria-label="K"
         transform="matrix(1.1077648,0.74204778,-0.74204778,1.1077648,126.92773,564.64133)" />
      <path
         id="path26"
         d="M 4.3772474,8.7782097e-4 15.840963,0.00582724 15.843417,-11.22707 4.3797012,-11.232019 Z m 0,0"
         style="fill:#ffffff;fill-opacity:1;fill-rule:nonzero;stroke:none"
         aria-label="."
         transform="matrix(1.2241986,0.52831394,-0.52831394,1.2241986,193.052,605.72933)" />
      <path
         id="path27"
         d="m 5.0347307,-0.00479024 11.4652563,2.3221e-4 -0.0059,-20.36922997 11.465257,2.33e-4 c 5.756781,6.31e-4 7.880057,2.414055 8.681372,7.892296 0.587621,4.1688061 0.434682,9.2030926 1.828825,12.47939776 l 11.465256,2.3221e-4 C 47.876391,-2.9225409 47.947604,-9.0559165 47.739304,-12.349554 47.376421,-17.591007 45.770519,-23.066522 40.15011,-24.528316 l 0.0031,-0.14492 c 5.752768,-2.341972 8.24163,-6.934085 8.241683,-13.063294 -0.0023,-7.883305 -5.915963,-14.386067 -15.254697,-14.389238 l -28.1102129,-1.5e-4 z M 16.501341,-43.221713 l 12.548258,0.0063 c 5.105941,-0.0076 7.876385,2.186548 7.882391,7.232756 -0.0069,5.25346 -2.779801,7.43445 -7.885743,7.442025 l -12.548257,-0.0063 z m 0,0"
         style="fill:#ffffff;fill-opacity:1;fill-rule:nonzero;stroke:none"
         aria-label="R"
         transform="matrix(1.3001296,0.29570408,-0.29570408,1.3001296,224.652,620.744)" />
      <path
         id="path28"
         d="m 4.3873042,0.00438977 11.4588078,-0.00718921 0.0021,-11.23634456 -11.4588082,0.0072 z m 0,0"
         style="fill:#ffffff;fill-opacity:1;fill-rule:nonzero;stroke:none"
         aria-label="."
         transform="matrix(1.3321828,0.055379,-0.055379,1.3321828,301.08133,635.384)" />
      <path
         id="path29"
         d="m 50.882476,-34.604557 c -1.383432,-12.035034 -11.019569,-18.749331 -22.47967,-18.739845 -16.145238,-0.0083 -25.6169998,12.027914 -25.6253238,27.510239 0.0082,15.034857 9.4758538,27.0756743 25.6210908,27.083929 12.772669,3.211e-4 21.750949,-8.3301151 22.91963,-21.326639 l -11.092185,0.0028 c -0.885927,6.869524 -4.816495,11.682681 -11.825138,11.688386 -10.298348,-0.00224 -14.160731,-8.768852 -14.163297,-17.457979 7.02e-4,-9.12665 3.866225,-17.879158 14.164572,-17.876921 5.694419,-0.0039 10.660047,3.936586 11.388136,9.118829 z m 0,0"
         style="fill:#ffffff;fill-opacity:1;fill-rule:nonzero;stroke:none"
         aria-label="C"
         transform="matrix(1.3199524,-0.18842373,0.18842373,1.3199524,335.936,638.20133)" />
      <path
         id="path30"
         d="m 4.3839979,-0.00211859 11.4660171,5.3646e-4 -0.0011,-11.24367487 -11.466017,-5.37e-4 z m 0,0"
         style="fill:#ffffff;fill-opacity:1;fill-rule:nonzero;stroke:none"
         aria-label="."
         transform="matrix(1.2618609,-0.43067937,0.43067937,1.2618609,414.56267,624.11733)" />
      <path
         id="path31"
         d="M 1.7476894,-17.291452 C 1.6039084,-4.4643311 12.414877,1.2403337 23.946609,1.2387118 c 14.158874,0.00205 21.664377,-7.1583667 21.671928,-16.7232548 -0.0017,-11.825403 -11.679354,-14.225468 -15.47406,-15.172363 -13.059367,-3.366591 -15.548282,-3.868804 -15.547954,-7.885738 -0.0026,-4.378878 4.23632,-5.912458 7.89131,-5.909185 5.474999,-0.0058 9.93306,1.609506 10.288063,7.888693 l 11.096833,-0.01174 c 9.85e-4,-12.050801 -10.005289,-16.783106 -20.881406,-16.784542 -9.407762,-0.002 -19.4841386,5.116796 -19.482855,15.767515 0.00563,9.785604 7.803084,12.767019 15.54407,14.823485 7.668031,2.043401 15.469381,2.985016 15.47528,8.606851 -0.0045,5.3225554 -6.134666,6.5061401 -10.161889,6.5002043 -6.125006,-0.00139 -11.525289,-2.7040823 -11.527014,-9.6315383 z m 0,0"
         style="fill:#ffffff;fill-opacity:1;fill-rule:nonzero;stroke:none"
         aria-label="S"
         transform="matrix(1.1707725,-0.63802003,0.63802003,1.1707725,447.35333,613.89067)" />
      <path
         id="path32"
         d="M 4.3883882,-8.3470142e-4 15.845519,0.00488739 15.843617,-11.234396 4.386486,-11.240118 Z m 0,0"
         style="fill:#ffffff;fill-opacity:1;fill-rule:nonzero;stroke:none"
         aria-label="."
         transform="matrix(1.0469703,-0.82560947,0.82560947,1.0469703,507.94133,578.456)" />
      <path
         id="path33"
         d="m 0,0 c 18.389,0 35.667,4.749 50.673,13.09 -22.804,-21.968 -53.817,-35.476 -87.98,-35.476 -70.052,0 -126.845,56.794 -126.845,126.845 0,70.057 56.793,126.845 126.845,126.845 34.163,0 65.176,-13.508 87.98,-35.476 -15.006,8.341 -32.284,13.09 -50.673,13.09 -57.689,0 -104.459,-46.77 -104.459,-104.459 C -104.459,46.77 -57.689,0 0,0"
         style="fill:#ee2722;fill-opacity:1;fill-rule:nonzero;stroke:none"
         transform="matrix(1.3333333,0,0,-1.3333333,377.52667,462.63733)" />
    </g>
  </g>
</svg>
