<?xml version="1.0" encoding="UTF-8" standalone="no"?>
<!-- Created with Inkscape (http://www.inkscape.org/) -->

<svg
   version="1.1"
   id="svg1"
   width="375.56"
   height="375.556"
   viewBox="0 0 375.56 375.556"
   sodipodi:docname="Red_Crescent_KOWEIT.svg"
   inkscape:version="1.3.2 (091e20e, 2023-11-25, custom)"
   xmlns:inkscape="http://www.inkscape.org/namespaces/inkscape"
   xmlns:sodipodi="http://sodipodi.sourceforge.net/DTD/sodipodi-0.dtd"
   xmlns="http://www.w3.org/2000/svg"
   xmlns:svg="http://www.w3.org/2000/svg">
  <defs
     id="defs1">
    <clipPath
       clipPathUnits="userSpaceOnUse"
       id="clipPath3">
      <path
         d="M 0.059998,281.64 H 281.67 V 0 H 0.059998 Z"
         transform="translate(-140.83401,-42.537001)"
         id="path3" />
    </clipPath>
  </defs>
  <sodipodi:namedview
     id="namedview1"
     pagecolor="#ffffff"
     bordercolor="#666666"
     borderopacity="1.0"
     inkscape:showpageshadow="2"
     inkscape:pageopacity="0.0"
     inkscape:pagecheckerboard="0"
     inkscape:deskcolor="#d1d1d1"
     inkscape:export-bgcolor="#ffffffff"
     inkscape:zoom="2.1860921"
     inkscape:cx="187.778"
     inkscape:cy="187.778"
     inkscape:window-width="1920"
     inkscape:window-height="1017"
     inkscape:window-x="-8"
     inkscape:window-y="-8"
     inkscape:window-maximized="1"
     inkscape:current-layer="g1">
    <inkscape:page
       x="0"
       y="0"
       inkscape:label="1"
       id="page1"
       width="375.56"
       height="375.556"
       margin="0"
       bleed="0"
       inkscape:export-filename="Red_Crescent_KOWEIT.png"
       inkscape:export-xdpi="300"
       inkscape:export-ydpi="300" />
  </sodipodi:namedview>
  <g
     id="g1"
     inkscape:groupmode="layer"
     inkscape:label="1">
    <g
       id="group-MC1">
      <path
         id="path2"
         d="m 0,0 c -54.288,0 -98.297,44.008 -98.297,98.296 0,54.288 44.009,98.297 98.297,98.297 54.289,0 98.3,-44.009 98.3,-98.297 C 98.3,44.008 54.289,0 0,0 Z m 0,239.13 c -77.78,0 -140.834,-63.054 -140.834,-140.834 0,-77.781 63.054,-140.833 140.834,-140.833 77.781,0 140.836,63.052 140.836,140.833 0,77.78 -63.055,140.834 -140.836,140.834"
         style="fill:#1ab4e0;fill-opacity:1;fill-rule:nonzero;stroke:none"
         transform="matrix(1.3333333,0,0,-1.3333333,187.77867,318.84)"
         clip-path="url(#clipPath3)" />
      <path
         id="path4"
         d="m 0,0 c -35.543,1.731 -62.834,34.322 -60.962,72.798 1.874,38.48 32.205,68.266 67.748,66.535 15.074,-0.734 28.631,-7.059 39.142,-16.991 -13.905,17.665 -34.502,29.32 -57.965,30.465 C -56.555,154.974 -94.5,118.505 -96.798,71.35 -99.095,24.196 -64.872,-15.784 -20.354,-17.953 13.134,-19.585 42.898,0.651 56.571,30.85 44.3,11.322 23.299,-1.137 0,0"
         style="fill:#ed1c24;fill-opacity:1;fill-rule:nonzero;stroke:none"
         transform="matrix(1.3333333,0,0,-1.3333333,206.77733,277.68)" />
      <path
         id="path5"
         d="m 0,0 5.303,-2.435 -3.585,-7.813 10.285,4.736 6.585,-3.025 -11.205,-4.553 2.799,-16.234 -6.585,3.024 -1.548,11.072 -3.215,-1.29 -2.878,-6.273 -5.303,2.435 L 0,0"
         style="fill:#ffffff;fill-opacity:1;fill-rule:nonzero;stroke:none"
         transform="matrix(1.3333333,0,0,-1.3333333,117.332,311.90667)" />
      <path
         id="path6"
         d="M 0,0 5.571,-1.74 3.837,-7.306 -1.734,-5.576 0,0"
         style="fill:#ffffff;fill-opacity:1;fill-rule:nonzero;stroke:none"
         transform="matrix(1.3333333,0,0,-1.3333333,135.77867,343.736)" />
      <path
         id="path7"
         d="M 0,0 4.818,-0.854 C 6.547,-1.163 7.639,-0.402 7.934,1.266 8.223,2.904 7.06,3.875 5.453,4.162 L 0.88,4.971 Z M -4.049,10.593 7.194,8.598 C 11.088,7.91 14.605,5.469 13.816,1.022 13.395,-1.358 11.853,-3.409 9.377,-3.894 L 9.363,-3.955 c 2.252,-0.975 2.466,-3.72 2.277,-5.854 -0.101,-0.936 -0.583,-4.197 0.046,-5.139 l -5.683,1.01 c -0.361,0.829 -0.072,3.006 -0.023,3.639 0.239,2.25 0.273,4.601 -2.414,5.077 l -4.356,0.774 -1.423,-8.032 -5.748,1.018 3.912,22.055"
         style="fill:#ffffff;fill-opacity:1;fill-rule:nonzero;stroke:none"
         transform="matrix(1.3333333,0,0,-1.3333333,156.58133,339.98933)" />
      <path
         id="path8"
         d="M 0,0 5.83,-0.279 5.55,-6.106 -0.28,-5.83 0,0"
         style="fill:#ffffff;fill-opacity:1;fill-rule:nonzero;stroke:none"
         transform="matrix(1.3333333,0,0,-1.3333333,176.30533,351.9)" />
      <path
         id="path9"
         d="m 0,0 c -0.5,2.228 -2.349,3.271 -4.789,3.069 -3.752,-0.314 -4.913,-3.745 -4.638,-7.06 0.276,-3.315 1.989,-6.507 5.741,-6.195 2.72,0.224 4.153,1.916 4.159,4.499 l 5.814,0.484 c 0.165,-5.779 -3.774,-9.509 -9.434,-9.977 -6.75,-0.562 -11.559,4.234 -12.095,10.705 C -15.78,1.998 -11.83,7.518 -5.077,8.081 -0.264,8.482 5.211,5.848 5.816,0.486 L 0,0"
         style="fill:#ffffff;fill-opacity:1;fill-rule:nonzero;stroke:none"
         transform="matrix(1.3333333,0,0,-1.3333333,207.21733,339.78933)" />
      <path
         id="path10"
         d="M 0,0 5.689,1.298 6.99,-4.388 1.3,-5.689 0,0"
         style="fill:#ffffff;fill-opacity:1;fill-rule:nonzero;stroke:none"
         transform="matrix(1.3333333,0,0,-1.3333333,218.928,349.43467)" />
      <path
         id="path11"
         d="M 0,0 C 0.975,-2.454 2.793,-2.724 5.134,-1.917 6.798,-1.346 8.314,-0.161 7.773,1.41 7.132,3.279 3.985,2.599 0.632,2.406 -2.69,2.229 -6.333,2.5 -7.67,6.387 c -1.589,4.627 2.444,8.041 6.422,9.407 4.21,1.447 9.159,0.858 10.829,-3.91 L 4.064,9.988 C 3.491,11.947 1.465,11.947 -0.225,11.367 -1.411,10.959 -2.752,10.033 -2.274,8.64 -1.712,7.006 1.445,7.762 4.827,7.961 8.178,8.15 11.753,7.787 13.07,3.959 14.914,-1.411 10.936,-4.698 6.278,-6.3 1.414,-7.971 -3.623,-7.315 -5.518,-1.896 L 0,0"
         style="fill:#ffffff;fill-opacity:1;fill-rule:nonzero;stroke:none"
         transform="matrix(1.3333333,0,0,-1.3333333,236.08533,342.83333)" />
      <path
         id="path12"
         d="m 0,0 c 6.093,-4.626 9.702,-0.65 9.266,4.976 -0.422,0.94 -0.906,1.065 -1.45,0.376 -7.835,-9.667 -9.254,5.038 -7.297,6.934 -2.263,2.264 -0.545,3.016 1.765,2.889 9.397,-0.519 17.051,12.05 20.183,24.261 0.549,2.814 -0.197,5.341 -1.739,8.139 -0.638,1.156 0.397,1.834 1.442,0.837 C 27.182,43.628 26.9,34.219 21.197,25.364 15.961,17.19 11.149,10.749 3.72,11.561 2.984,11.641 2.744,11.723 2.469,10.842 1.618,8.114 2.545,6.229 4.509,8.394 7.064,11.213 9.649,10.6 10.447,8.083 10.637,7.483 9.644,7.352 9.853,6.95 12.956,3.987 14.415,-0.78 8.156,-5.238 5.459,-7.159 1.503,-5.189 -0.867,-0.482 -1.245,0.268 -0.793,0.603 0,0"
         style="fill:#ffffff;fill-opacity:1;fill-rule:evenodd;stroke:none"
         transform="matrix(1.3333333,0,0,-1.3333333,32.654667,138.428)" />
      <path
         id="path13"
         d="m 0,0 c -0.42,-1.442 0.468,-1.9 1.713,-1.061 0.602,0.406 0.994,0.363 1.039,-0.311 0.151,-2.219 -1.671,-3.096 -3.59,-3.964 -0.683,-0.309 -0.653,-1.11 0.09,-1.003 2.905,0.42 6.833,1.275 5.63,8.293 C 4.25,5.65 1.395,4.789 0,0"
         style="fill:#ffffff;fill-opacity:1;fill-rule:evenodd;stroke:none"
         transform="matrix(1.3333333,0,0,-1.3333333,40.649333,92.126667)" />
      <path
         id="path14"
         d="m 0,0 c 0.823,1.726 2.403,1.396 1.942,-0.23 -2.058,-6.759 -4.923,-13.557 -7.809,-20.121 -0.533,-0.822 -0.288,-1.306 0.737,-1.451 2.327,0.748 4.961,1.085 7.116,0.738 0.858,-0.161 1.63,-0.127 1.807,1.274 -0.458,2.674 -1.451,5.114 -2.689,7.448 -0.53,1.403 0.915,1.835 1.652,0.754 1.728,-3.116 2.822,-6.288 3.48,-9.5 0.875,-3.547 -1.965,-4.882 -5.464,-4.774 0.315,-3.19 0.986,-6.021 -0.219,-7.441 2.986,-6.867 0.261,-8.469 -2.959,-9.901 -1.359,-0.257 -1.696,0.118 -1.011,1.123 1.65,1.475 3.813,4.891 2.026,6.756 -2.872,-2.348 -3.831,1.008 -4.137,3.271 -0.567,3.634 2.586,3.461 3.967,1.938 1.331,0.254 1.032,2.685 0.737,4.105 -9.757,-2.4 -8.728,6.351 -6.861,10.151 C -4.735,-10.665 -2.122,-5.391 0,0"
         style="fill:#ffffff;fill-opacity:1;fill-rule:evenodd;stroke:none"
         transform="matrix(1.3333333,0,0,-1.3333333,81.016,39.828)" />
      <path
         id="path15"
         d="M 0,0 C -0.708,2 1.417,2.491 2.399,0.317 4.702,-4.781 6.65,-9.638 6.665,-14.576 6.671,-16.32 5.194,-16.187 4.96,-14.729 4.207,-10.056 1.911,-5.399 0,0"
         style="fill:#ffffff;fill-opacity:1;fill-rule:evenodd;stroke:none"
         transform="matrix(1.3333333,0,0,-1.3333333,87.958667,49.592)" />
      <path
         id="path16"
         d="m 0,0 c 6.561,1.543 10.527,5.042 10.088,12.737 -0.062,1.094 1.297,1.594 2.41,1.328 5.552,-1.324 13.534,1.174 23.63,10.612 1.286,1.202 1.846,1.985 2.912,1.373 -0.855,4.656 2.825,7.619 8.325,10.961 0.818,0.497 1.379,2.128 -1.038,1.425 -1.104,-0.322 -2.246,-0.494 -3.376,-0.707 -2.252,-0.426 -2.631,1.859 -0.827,2.455 5.579,1.843 15.473,5.092 7.857,-4.153 -1.17,-1.42 -2.811,-2.623 -5.332,-3.714 -3.081,-1.333 -3.943,-2.964 -2.268,-4.046 1.606,-1.037 1.737,-1.524 1.164,-2.829 C 42.617,23.325 40.511,22.793 37.066,23.244 31.483,14.787 23.953,9.928 14.426,9.484 13.627,9.447 12.929,9.799 12.573,8.711 12.029,7.052 11.559,5.368 10.997,3.715 9.177,-1.636 4.969,-2.327 0.153,-1.706 -1.181,-1.534 -1.184,-0.278 0,0"
         style="fill:#ffffff;fill-opacity:1;fill-rule:evenodd;stroke:none"
         transform="matrix(1.3333333,0,0,-1.3333333,97.752,73.126667)" />
      <path
         id="path17"
         d="m 0,0 c 3.988,1.964 8.279,3.814 10.263,7.392 0.708,1.279 0.064,2.013 1.098,2.425 0.866,0.345 1.358,0.549 1.623,-0.057 C 13.999,7.437 13.327,6.793 12.469,6.477 11.888,6.263 11.288,6.102 10.699,5.914 7.856,2.633 4.314,0.307 0.199,-1.095 -0.894,-1.467 -1.115,-0.548 0,0"
         style="fill:#ffffff;fill-opacity:1;fill-rule:evenodd;stroke:none"
         transform="matrix(1.3333333,0,0,-1.3333333,116.57733,48.38)" />
      <path
         id="path18"
         d="M 0,0 C -0.078,-1.284 0.481,-1.579 1.595,-0.869 2.203,-0.481 2.747,0.026 3.412,0.305 4.195,0.634 4.581,0.268 4.386,-0.417 3.993,-1.81 2.602,-2.265 1.5,-3.204 0.591,-3.979 1.197,-4.896 2.21,-4.354 4.282,-3.245 5.466,-1.166 6.596,0.893 8.135,3.696 7.549,4.259 4.364,3.223 1.977,2.446 0.138,2.285 0,0"
         style="fill:#ffffff;fill-opacity:1;fill-rule:evenodd;stroke:none"
         transform="matrix(1.3333333,0,0,-1.3333333,107.424,36.521333)" />
      <path
         id="path19"
         d="M 0,0 C 3.649,1.59 6.424,4.287 9.003,6.773 10.087,7.818 11.029,6.969 10.087,5.96 7.243,2.912 3.939,0.723 0.609,-1.159 0.648,-2.707 0.132,-3.873 -0.698,-3.501 -1.262,-3.25 -1.387,-2.453 -1.553,-1.858 -1.889,-0.657 -1.143,-0.498 0,0"
         style="fill:#ffffff;fill-opacity:1;fill-rule:evenodd;stroke:none"
         transform="matrix(1.3333333,0,0,-1.3333333,125.47867,31.802667)" />
      <path
         id="path20"
         d="m 0,0 c -0.417,-0.542 -1.01,-0.113 -0.534,0.794 0.323,0.614 0.228,0.502 0.532,1.338 0.719,1.976 1.057,4.557 0.83,6.549 C 0.642,10.322 2.711,9.998 2.68,8.34 2.616,4.968 2.273,2.953 0,0"
         style="fill:#ffffff;fill-opacity:1;fill-rule:evenodd;stroke:#ffffff;stroke-width:0.216;stroke-linecap:butt;stroke-linejoin:miter;stroke-miterlimit:2.613;stroke-dasharray:none;stroke-opacity:1"
         transform="matrix(1.3333333,0,0,-1.3333333,169.78,31.677333)" />
      <path
         id="path21"
         d="m 0,0 c -0.854,-3.291 0.987,-2.37 2.199,-1.323 1.841,1.588 3.08,5.656 3.496,9.43 0.232,2.104 0.068,4.025 1.248,5.271 1.711,1.805 2.208,0.173 1.658,-1.571 C 7.998,9.896 7.765,8.168 7.467,6.385 6.515,0.691 4.306,-3.891 1.024,-5.259 -2.045,-6.537 -4.202,-5.883 -1.894,-0.748 -1.304,0.565 0.179,0.688 0,0"
         style="fill:#ffffff;fill-opacity:1;fill-rule:evenodd;stroke:#ffffff;stroke-width:0.216;stroke-linecap:butt;stroke-linejoin:miter;stroke-miterlimit:2.613;stroke-dasharray:none;stroke-opacity:1"
         transform="matrix(1.3333333,0,0,-1.3333333,169.37733,34.768)" />
      <path
         id="path22"
         d="M 0,0 C 0.263,2.087 2.395,2.365 2.271,0.608 1.957,-3.838 0.079,-8.038 -1.733,-12.294 -2.263,-13.538 -3.301,-13.436 -2.955,-12.2 -1.808,-8.108 -0.524,-4.147 0,0"
         style="fill:#ffffff;fill-opacity:1;fill-rule:evenodd;stroke:none"
         transform="matrix(1.3333333,0,0,-1.3333333,186.48533,21.758667)" />
      <path
         id="path23"
         d="m 0,0 c 0.094,2.377 2.204,2.796 2.223,0.8 0.046,-5.054 -1.49,-9.905 -2.956,-14.815 -0.429,-1.437 -1.476,-1.371 -1.23,0.046 C -1.149,-9.275 -0.185,-4.725 0,0"
         style="fill:#ffffff;fill-opacity:1;fill-rule:evenodd;stroke:none"
         transform="matrix(1.3333333,0,0,-1.3333333,54.324,69.758667)" />
      <path
         id="path24"
         d="M 0,0 C 2.73,1.369 4.541,0.734 4.779,-0.281 5.48,-3.272 1.057,-2.864 2.206,-0.637 1.673,-0.23 1.285,-0.326 0.181,-0.894 -0.262,-1.123 -1.222,-0.613 0,0"
         style="fill:#ffffff;fill-opacity:1;fill-rule:evenodd;stroke:none"
         transform="matrix(1.3333333,0,0,-1.3333333,154.152,43.264)" />
      <path
         id="path25"
         d="M 0,0 C -0.162,-0.743 0.071,-0.927 0.72,-0.84 1.997,-0.67 2.956,0.298 4.086,1.27 4.654,1.758 5.265,1.359 4.912,0.698 4.064,-0.891 2.49,-2.003 0.514,-2.862 -3.032,-4.403 -3.453,-0.432 -0.954,1.271 -0.05,1.888 0.334,1.852 0.24,0.926 0.207,0.608 0.067,0.311 0,0"
         style="fill:#ffffff;fill-opacity:1;fill-rule:evenodd;stroke:none"
         transform="matrix(1.3333333,0,0,-1.3333333,156.59467,49.590667)" />
      <path
         id="path26"
         d="m 0,0 c 0.392,1.361 1.783,0.476 1.583,-1.085 -0.611,-4.81 9.687,-5.204 11.274,-0.349 1.476,4.513 2.825,9.078 5.083,13.248 1.063,1.964 2.502,0.494 1.822,-0.87 C 17.81,7.028 16.615,2.716 14.879,-1.641 10.926,-11.566 -3.213,-11.152 0,0"
         style="fill:#ffffff;fill-opacity:1;fill-rule:evenodd;stroke:none"
         transform="matrix(1.3333333,0,0,-1.3333333,192.396,35.977333)" />
      <path
         id="path27"
         d="M 0,0 C -0.9,-1.195 -2.338,-0.946 -1.181,0.858 0.544,3.195 2.553,6.26 4.81,10.188 5.64,11.635 7.294,10.803 6.368,9.402 4.37,6.377 2.332,3.263 0,0"
         style="fill:#ffffff;fill-opacity:1;fill-rule:evenodd;stroke:#ffffff;stroke-width:0.216;stroke-linecap:butt;stroke-linejoin:miter;stroke-miterlimit:2.613;stroke-dasharray:none;stroke-opacity:1"
         transform="matrix(1.3333333,0,0,-1.3333333,219.10667,38.221333)" />
      <path
         id="path28"
         d="m 0,0 c -2.795,-0.343 -1.259,-2.366 0.788,-2.143 0.872,0.095 2.242,0.2 2.271,-0.648 0.368,-10.424 5.129,-18.794 16.379,-24.159 -1.611,-4.032 -0.33,-7.265 2.933,-9.954 -1.104,-1.29 -1.155,-2.458 -0.273,-3.599 1.549,-2.004 2.69,-3.76 5.2,-3.877 0.856,-1.654 0.804,-3.279 0.798,-5.122 -0.009,-2.752 5.465,-3.102 6.311,-0.116 1.461,-1.43 2.885,-2.901 4.385,-4.29 4.983,-4.616 10.4,-5.06 8.869,1.73 -0.567,2.515 -2.661,4.069 -5.559,5.036 -1.463,0.488 -2.493,-0.584 -1.314,-1.48 1.964,-1.494 3.19,-2.921 3.425,-4.035 0.57,-2.701 -1.381,-1.707 -2.549,-0.058 -2.052,2.899 -3.67,6.356 -7.95,7.036 -2.605,1.186 -4.857,2.068 -6.688,4.339 -1.399,1.734 -0.978,2.991 0.978,2.386 0.982,-0.303 1.983,-0.587 2.978,0.012 0.853,0.512 1.659,0.235 2.541,0.141 3.105,-0.329 2.208,3.521 0.072,6.818 -2.715,4.187 -7.368,4.464 -6.689,-1.365 -0.74,-0.797 -1.12,-1.261 -2.064,-1.547 -2.051,0.003 -2.421,3.327 -1.559,6.842 0.315,1.29 0.63,2.09 -0.756,2.741 C 13.895,-21.255 8.004,-14.606 7.564,-3.665 7.517,-2.476 7.16,-1.445 6.209,-0.892 4.771,-0.054 2.57,0.316 0,0"
         style="fill:#ffffff;fill-opacity:1;fill-rule:evenodd;stroke:none"
         transform="matrix(1.3333333,0,0,-1.3333333,289.348,70.958667)" />
      <path
         id="path29"
         d="M 0,0 C -1.251,0.659 -0.752,1.921 0.721,1.427 3.416,0.526 6.121,-0.416 8.928,0.118 9.964,0.315 10.192,-1.302 8.656,-1.609 6.022,-2.136 2.806,-1.481 0,0"
         style="fill:#ffffff;fill-opacity:1;fill-rule:evenodd;stroke:none"
         transform="matrix(1.3333333,0,0,-1.3333333,247.344,66.288)" />
      <path
         id="path30"
         d="m 0,0 c -1.062,-0.786 -0.302,-1.941 0.872,-1.199 4.345,2.744 8.391,6.393 11.993,10.608 1.174,1.375 -0.499,2.955 -1.596,1.645 C 7.73,6.819 4.082,3.021 0,0"
         style="fill:#ffffff;fill-opacity:1;fill-rule:evenodd;stroke:none"
         transform="matrix(1.3333333,0,0,-1.3333333,277.97733,67.993333)" />
      <path
         id="path31"
         d="M 0,0 C 0.603,0.823 1.046,1.797 1.822,2.462 2.824,3.319 3.592,2.497 3.333,1.745 2.955,0.649 1.991,-0.156 1.196,-1 0.351,-1.897 -0.687,-0.937 0,0"
         style="fill:#ffffff;fill-opacity:1;fill-rule:evenodd;stroke:none"
         transform="matrix(1.3333333,0,0,-1.3333333,323.08267,87.690667)" />
      <path
         id="path32"
         d="m 0,0 c -0.786,0.91 -0.16,2.384 1.154,1.38 4.093,-3.129 7.92,-6.475 11.916,-9.489 1.373,-1.037 0.665,-2.621 -0.685,-1.85 C 8.047,-7.483 3.668,-4.241 0,0"
         style="fill:#ffffff;fill-opacity:1;fill-rule:evenodd;stroke:none"
         transform="matrix(1.3333333,0,0,-1.3333333,325.488,94.286667)" />
      <path
         id="path33"
         d="M 0,0 C -0.487,0.563 -0.099,1.476 0.714,0.855 3.248,-1.082 5.618,-3.154 8.09,-5.02 8.941,-5.661 8.502,-6.643 7.665,-6.165 4.981,-4.631 2.271,-2.626 0,0"
         style="fill:#ffffff;fill-opacity:1;fill-rule:evenodd;stroke:none"
         transform="matrix(1.3333333,0,0,-1.3333333,345.81067,123.97867)" />
      <path
         id="path34"
         d="M 0,0 C 0.015,0.72 0.581,1.138 1.506,1.242 1.9,1.285 2.293,1.321 2.689,1.348 3.506,1.401 3.879,1.115 3.871,0.516 c -0.012,-0.737 0.017,-1.473 0.027,-2.21 0.65,0.029 1.3,0.074 1.949,0.089 C 6.69,-1.586 7.265,-1.817 7.255,-2.586 7.246,-3.265 7.402,-3.938 7.394,-4.617 7.379,-6.065 6.655,-6.357 5.848,-6.373 5.253,-6.383 4.565,-6.454 3.976,-6.37 3.207,-6.261 2.971,-5.65 2.995,-4.925 3.021,-4.138 2.754,-3.135 3.241,-2.435 2.639,-2.375 1.86,-2.606 1.256,-2.612 0.634,-2.617 0.188,-2.468 0.152,-1.689 0.125,-1.125 -0.011,-0.565 0,0"
         style="fill:#ffffff;fill-opacity:1;fill-rule:evenodd;stroke:none"
         transform="matrix(1.3333333,0,0,-1.3333333,296.69333,102.31067)" />
      <path
         id="path35"
         d="M 0,0 C 0.647,0.316 1.277,0.006 1.794,-0.77 2.013,-1.099 2.226,-1.433 2.43,-1.772 2.852,-2.474 2.77,-2.937 2.233,-3.202 1.573,-3.529 0.931,-3.895 0.28,-4.241 c 0.325,-0.563 0.663,-1.12 0.974,-1.691 0.403,-0.74 0.461,-1.358 -0.228,-1.701 -0.606,-0.303 -1.134,-0.75 -1.74,-1.054 -1.295,-0.65 -1.886,-0.142 -2.269,0.569 -0.283,0.524 -0.659,1.103 -0.856,1.666 -0.256,0.733 0.179,1.222 0.834,1.534 0.712,0.338 1.481,1.033 2.326,0.923 -0.222,0.561 -0.785,1.148 -1.067,1.683 -0.29,0.551 -0.361,1.015 0.314,1.403 C -0.942,-0.626 -0.508,-0.248 0,0"
         style="fill:#ffffff;fill-opacity:1;fill-rule:evenodd;stroke:none"
         transform="matrix(1.3333333,0,0,-1.3333333,27.310667,111.648)" />
      <path
         id="path36"
         d="M 0,0 C 0.647,0.315 1.277,0.006 1.794,-0.77 2.013,-1.1 2.227,-1.433 2.43,-1.772 2.853,-2.474 2.77,-2.937 2.233,-3.203 1.573,-3.53 0.932,-3.895 0.281,-4.241 0.605,-4.805 0.943,-5.362 1.253,-5.933 1.657,-6.673 1.715,-7.29 1.027,-7.633 0.42,-7.936 -0.107,-8.383 -0.714,-8.687 -2.008,-9.338 -2.6,-8.829 -2.982,-8.119 c -0.284,0.525 -0.66,1.104 -0.856,1.666 -0.256,0.733 0.178,1.222 0.834,1.534 0.71,0.338 1.48,1.034 2.326,0.923 -0.223,0.562 -0.786,1.148 -1.067,1.683 -0.291,0.55 -0.362,1.015 0.313,1.404 C -0.942,-0.627 -0.508,-0.248 0,0"
         style="fill:#ffffff;fill-opacity:1;fill-rule:evenodd;stroke:none"
         transform="matrix(1.3333333,0,0,-1.3333333,68.513333,97.892)" />
      <path
         id="path37"
         d="M 0,0 C 0.647,0.316 1.277,0.007 1.794,-0.77 2.013,-1.099 2.226,-1.433 2.43,-1.773 2.852,-2.474 2.77,-2.937 2.233,-3.202 1.573,-3.53 0.932,-3.894 0.28,-4.241 0.605,-4.805 0.943,-5.362 1.254,-5.932 1.657,-6.673 1.715,-7.29 1.027,-7.633 0.42,-7.936 -0.108,-8.384 -0.714,-8.687 -2.008,-9.338 -2.6,-8.828 -2.983,-8.118 c -0.283,0.523 -0.66,1.102 -0.855,1.665 -0.256,0.734 0.178,1.222 0.834,1.534 0.71,0.338 1.48,1.034 2.325,0.924 -0.222,0.561 -0.785,1.148 -1.067,1.682 -0.29,0.55 -0.361,1.015 0.314,1.404 C -0.942,-0.627 -0.507,-0.248 0,0"
         style="fill:#ffffff;fill-opacity:1;fill-rule:evenodd;stroke:none"
         transform="matrix(1.3333333,0,0,-1.3333333,53.609333,134.94667)" />
      <path
         id="path38"
         d="M 0,0 C 0.561,0.331 1.181,0.549 1.78,0.803 2.556,1.131 3.175,1.128 3.449,0.41 3.691,-0.224 4.084,-0.793 4.328,-1.426 4.848,-2.777 4.283,-3.316 3.539,-3.628 2.989,-3.858 2.376,-4.176 1.797,-4.316 1.041,-4.499 0.599,-4.018 0.353,-3.336 0.085,-2.594 -0.326,-1.783 -0.338,-0.93 -0.344,-0.58 -0.474,-0.279 0,0"
         style="fill:#ffffff;fill-opacity:1;fill-rule:evenodd;stroke:none"
         transform="matrix(1.3333333,0,0,-1.3333333,333.76933,145.404)" />
      <path
         id="path39"
         d="M 0,0 C 0.562,0.331 1.181,0.548 1.78,0.802 2.557,1.131 3.176,1.128 3.45,0.41 3.693,-0.224 4.085,-0.793 4.328,-1.427 4.849,-2.778 4.283,-3.317 3.539,-3.629 2.99,-3.859 2.377,-4.177 1.798,-4.317 1.042,-4.499 0.599,-4.018 0.353,-3.336 0.086,-2.595 -0.326,-1.783 -0.337,-0.931 -0.343,-0.58 -0.473,-0.28 0,0"
         style="fill:#ffffff;fill-opacity:1;fill-rule:evenodd;stroke:none"
         transform="matrix(1.3333333,0,0,-1.3333333,307.708,62.924)" />
      <path
         id="path40"
         d="M 0,0 C 0.558,0.331 1.179,0.548 1.779,0.802 2.554,1.13 3.174,1.128 3.448,0.409 3.689,-0.225 4.083,-0.793 4.327,-1.427 4.846,-2.779 4.282,-3.317 3.537,-3.629 2.988,-3.859 2.375,-4.178 1.796,-4.317 1.04,-4.5 0.596,-4.018 0.351,-3.336 0.084,-2.596 -0.327,-1.783 -0.339,-0.931 -0.345,-0.581 -0.476,-0.281 0,0"
         style="fill:#ffffff;fill-opacity:1;fill-rule:evenodd;stroke:none"
         transform="matrix(1.3333333,0,0,-1.3333333,313.62133,68.833333)" />
      <path
         id="path41"
         d="m 0,0 c -1.446,0.363 -1.631,-1.551 -0.34,-1.739 5.17,-0.75 9.646,0.018 14.419,2.144 1.05,0.467 0.128,2.012 -0.941,1.49 C 11.625,1.153 10.373,0.299 8.344,0.181 5.772,0.03 6.3,3.808 8.941,4.576 9.846,4.838 9.05,6.453 7.489,5.672 4.002,3.927 3.929,2.02 5.56,0.007 3.198,-0.25 1.946,-0.487 0,0"
         style="fill:#ffffff;fill-opacity:1;fill-rule:evenodd;stroke:none"
         transform="matrix(1.3333333,0,0,-1.3333333,246.66533,35.844)" />
      <path
         id="path42"
         d="M 0,0 C 0.813,0.098 1.268,-0.152 1.669,-0.613 2.207,-1.233 2.392,-1.898 1.544,-2.73 0.83,-3.431 -0.048,-2.551 -1.127,-2.431 -1.808,-2.355 -1.42,-3.145 -0.805,-3.523 -2.074,-3.61 -2.872,-3.067 -2.443,-1.742 -2.111,-0.713 -1.155,-0.138 0,0"
         style="fill:#ffffff;fill-opacity:1;fill-rule:evenodd;stroke:none"
         transform="matrix(1.3333333,0,0,-1.3333333,280.696,38.644)" />
      <path
         id="path43"
         d="M 0,0 C -0.951,-3.031 -1.783,-2.178 -2.52,-0.757 -3.228,0.606 -4.385,2.507 -4.787,4.29 -3.125,4.475 -1.11,4.694 0.552,5.553 0.587,3.592 0.527,1.684 0,0 Z m -6.149,6.865 c -0.553,0.65 1.06,2.019 2.823,2.221 1.762,0.202 3.192,-0.372 3.173,-1.11 C -0.169,7.286 -1.228,6.899 -2.27,6.663 -4.466,6.165 -5.594,6.215 -6.149,6.865 Z M 14.057,18.879 C 11.719,15.118 8.28,11.585 3.929,9.439 3.811,10.314 3.531,12.003 3.123,12.771 2.756,13.464 -0.67,12.59 -0.908,11.408 c -0.065,-0.325 0.48,-0.903 0.545,-1.229 -3.956,0.506 -8.482,-0.452 -8.342,-3.53 -7.024,1.052 -13.872,2.599 -19.453,6.505 -2.933,2.053 -5.824,5.349 0.646,14.59 0.723,1.033 -0.262,1.94 -1.246,0.921 -2.208,-2.281 -4.134,-6.168 -5.399,-9.169 -1.979,-1.964 -10.052,-9.208 -7.002,-0.802 0.12,0.329 -0.887,1.163 -1.497,0.392 -1.309,-1.655 -4.879,-7.141 0.263,-6.465 2.19,0.287 4.749,1.503 7.86,4.58 -0.25,-8.455 18.472,-13.448 26.515,-12.955 2.704,-6.465 4.556,-8.924 6.303,-8.436 3.594,1.004 5.493,4.476 5.846,11.459 4.77,2.423 8.638,6.27 11.336,10.349 1.176,1.615 -0.285,2.557 -1.41,1.261"
         style="fill:#ffffff;fill-opacity:1;fill-rule:nonzero;stroke:none"
         transform="matrix(1.3333333,0,0,-1.3333333,271.57067,66.198667)" />
    </g>
  </g>
</svg>
