<?xml version="1.0" encoding="UTF-8" standalone="no"?>
<svg
   xmlns:dc="http://purl.org/dc/elements/1.1/"
   xmlns:cc="http://creativecommons.org/ns#"
   xmlns:rdf="http://www.w3.org/1999/02/22-rdf-syntax-ns#"
   xmlns:svg="http://www.w3.org/2000/svg"
   xmlns="http://www.w3.org/2000/svg"
   viewBox="0 0 323.56 323.56"
   height="323.56"
   width="323.56"
   xml:space="preserve"
   id="svg2"
   version="1.1"><metadata
     id="metadata8"><rdf:RDF><cc:Work
         rdf:about=""><dc:format>image/svg+xml</dc:format><dc:type
           rdf:resource="http://purl.org/dc/dcmitype/StillImage" /><dc:title></dc:title></cc:Work></rdf:RDF></metadata><defs
     id="defs6" /><g
     transform="matrix(1.3333333,0,0,-1.3333333,0,323.56)"
     id="g10"><g
       transform="scale(0.1)"
       id="g12"><path
         id="path14"
         style="fill:#ec2629;fill-opacity:1;fill-rule:nonzero;stroke:none"
         d="m 1483.34,543.371 c -381.08,0 -690.004,308.899 -690.004,689.989 0,381.06 308.924,689.98 690.004,689.98 46.92,0 92.74,-4.73 137.04,-13.65 -119.51,70.01 -258.53,110.31 -407.05,110.31 -445.51,0 -806.666,-361.15 -806.666,-806.66 0,-445.531 361.156,-806.668 806.666,-806.668 191.19,0 366.73,66.648 504.97,177.789 -73.34,-26.563 -152.45,-41.09 -234.96,-41.09" /><path
         id="path16"
         style="fill:#27625e;fill-opacity:1;fill-rule:nonzero;stroke:none"
         d="m 1213.33,326.672 c -489.693,0 -886.666,396.957 -886.666,886.668 0,489.69 396.973,886.66 886.666,886.66 489.7,0 886.67,-396.97 886.67,-886.66 0,-489.711 -396.97,-886.668 -886.67,-886.668 z m 0,2099.998 C 543.227,2426.67 0,1883.44 0,1213.34 0,543.219 543.227,0 1213.33,0 c 670.11,0 1213.33,543.219 1213.33,1213.34 0,670.1 -543.22,1213.33 -1213.33,1213.33" /><path
         id="path18"
         style="fill:#ffffff;fill-opacity:1;fill-rule:nonzero;stroke:none"
         d="m 281.504,962.59 9.266,-32.168 -123.504,-35.582 -9.258,32.18 123.496,35.57" /><path
         id="path20"
         style="fill:#ffffff;fill-opacity:1;fill-rule:nonzero;stroke:none"
         d="m 253.086,866.898 10.039,-26.226 c 3.605,-9.41 10.586,-12.531 19.656,-9.063 8.907,3.411 10.246,12.012 6.899,20.762 l -9.524,24.891 z m 40.156,51.211 23.418,-61.199 c 8.106,-21.18 6.492,-45.691 -17.715,-54.961 -12.937,-4.949 -27.597,-3.418 -37.297,7.321 l -0.332,-0.129 c 1.868,-13.93 -11.011,-23.102 -22.058,-28.493 -4.922,-2.257 -22.383,-9.519 -25.137,-15.398 l -11.836,30.941 c 3.008,4.231 14.578,9.239 17.813,10.86 11.777,5.48 23.457,12.258 17.851,26.89 l -9.062,23.7 -43.711,-16.731 -11.973,31.27 120.039,45.929" /><path
         id="path22"
         style="fill:#ffffff;fill-opacity:1;fill-rule:nonzero;stroke:none"
         d="m 280.598,740.68 13.523,-25.84 33.274,33.469 -0.168,0.32 z m 70.437,39.312 15.781,-30.14 -91.582,-102.18 -16.191,30.93 16.738,17.718 -20.781,39.711 -24.172,-3.519 -15.945,30.457 136.152,17.023" /><path
         id="path24"
         style="fill:#ffffff;fill-opacity:1;fill-rule:nonzero;stroke:none"
         d="m 363.535,611.609 -2.922,-17.32 c 7.981,0.492 16.02,4.063 23.125,8.961 15.703,10.84 26.711,28.5 14.438,46.27 -12.27,17.781 -32.68,13.75 -48.379,2.91 -15.695,-10.828 -26.699,-28.481 -14.438,-46.258 1.438,-2.082 2.805,-3.75 4.375,-5.07 l 2.422,13.918 z M 329.91,544.672 334.121,569 c -8.367,4.512 -16.016,11.48 -22.461,20.809 -23.008,33.332 -11.555,69.023 19.121,90.183 30.664,21.168 68.086,19.219 91.094,-14.101 23.008,-33.34 11.555,-69.02 -19.109,-90.192 -15.11,-10.429 -31.77,-15.14 -47.621,-13.398 l -3.504,-21.231 -21.731,3.602" /><path
         id="path26"
         style="fill:#ffffff;fill-opacity:1;fill-rule:nonzero;stroke:none"
         d="m 461.387,608.121 21.426,-25.73 -98.743,-82.262 -21.433,25.723 98.75,82.269" /><path
         id="path28"
         style="fill:#ffffff;fill-opacity:1;fill-rule:nonzero;stroke:none"
         d="m 511.211,471.93 20.769,-18.891 c 7.454,-6.777 15.09,-6.43 21.614,0.77 6.426,7.062 3.742,15.339 -3.184,21.64 l -19.707,17.922 z m 12.766,63.8 48.472,-44.082 c 16.781,-15.25 26.391,-37.859 8.957,-57.027 -9.336,-10.25 -23.093,-15.5 -36.593,-10.269 l -0.243,-0.282 c 7.942,-11.59 0.575,-25.578 -6.855,-35.359 -3.367,-4.242 -15.684,-18.582 -15.508,-25.082 l -24.504,22.293 c 0.774,5.129 8.86,14.808 11.008,17.719 8.059,10.199 15.422,21.507 3.84,32.031 l -18.781,17.078 -31.485,-34.621 -24.773,22.519 86.465,95.082" /><path
         id="path30"
         style="fill:#ffffff;fill-opacity:1;fill-rule:nonzero;stroke:none"
         d="m 609.59,458.789 83.262,-59.641 -15.618,-21.796 -56.043,40.14 -13.105,-18.293 51.223,-36.679 -15.09,-21.071 -51.231,36.68 -14.25,-19.899 57.512,-41.191 -16.77,-23.418 -84.734,60.688 74.844,104.48" /><path
         id="path32"
         style="fill:#ffffff;fill-opacity:1;fill-rule:nonzero;stroke:none"
         d="m 678.801,292.391 13.867,-7.629 c 22.488,-11.782 36.102,-7.981 48.516,14.57 11.296,20.5 5.73,36.508 -14.297,47.539 l -13.867,7.641 z m 18.789,103.5 48.394,-26.661 c 34.524,-19.019 43.633,-51.371 24.438,-86.21 -20.324,-36.899 -52.231,-45.211 -86.445,-26.36 l -48.403,26.66 62.016,112.571" /><path
         id="path34"
         style="fill:#ffffff;fill-opacity:1;fill-rule:nonzero;stroke:none"
         d="m 915.48,246.871 c 2.481,12.848 -4.855,22.57 -18.144,27.098 -20.449,6.98 -34.438,-8.41 -40.598,-26.477 -6.152,-18.062 -4.472,-38.793 15.977,-45.762 14.824,-5.05 26.25,0.559 32.195,14.129 l 31.692,-10.789 c -12.383,-30.769 -41.661,-41.34 -72.5,-30.82 -36.797,12.539 -51.067,48.781 -39.051,84.039 12.019,35.262 45.457,55.25 82.254,42.723 26.23,-8.953 49.004,-35.352 39.863,-64.953 l -31.688,10.812" /><path
         id="path36"
         style="fill:#ffffff;fill-opacity:1;fill-rule:nonzero;stroke:none"
         d="m 985.84,217.91 27.49,-5.73 c 9.87,-2.071 16.26,2.121 18.24,11.64 1.96,9.328 -4.57,15.11 -13.73,17.02 l -26.07,5.441 z m -21.367,61.461 64.127,-13.379 c 22.2,-4.633 41.97,-19.23 36.67,-44.613 -2.83,-13.559 -12.03,-25.059 -26.32,-27.418 l -0.07,-0.352 c 12.73,-5.961 13.48,-21.75 12.03,-33.949 -0.74,-5.359 -4.07,-23.98 -0.63,-29.469 l -32.42,6.75 c -1.94,4.829 0.11,17.27 0.49,20.868 1.77,12.863 2.37,26.351 -12.96,29.543 l -24.843,5.187 -9.551,-45.809 -32.773,6.829 26.25,125.812" /><path
         id="path38"
         style="fill:#ffffff;fill-opacity:1;fill-rule:nonzero;stroke:none"
         d="m 1077.13,256.551 102.02,-9.121 -2.38,-26.711 -68.67,6.14 -2.01,-22.418 62.76,-5.601 -2.31,-25.82 -62.75,5.601 -2.19,-24.371 70.47,-6.289 -2.57,-28.691 -103.8,9.269 11.43,128.012" /><path
         id="path40"
         style="fill:#ffffff;fill-opacity:1;fill-rule:nonzero;stroke:none"
         d="m 1213.63,162.719 c 1.07,-15.09 10.53,-19.739 24.75,-19.418 10.08,0.23 20.44,4.051 20.21,13.597 -0.25,11.332 -18.66,13.082 -37.3,17.891 -18.48,4.801 -37.92,12.641 -38.46,36.223 -0.62,28.058 27.38,39.679 51.49,40.23 25.55,0.578 51.57,-11.262 52.41,-40.23 l -33.48,-0.762 c 0.29,11.711 -10.79,15.25 -21.04,15.012 -7.2,-0.16 -16.14,-2.891 -15.95,-11.34 0.22,-9.902 18.8,-11.281 37.64,-16.07 18.64,-4.801 37.56,-13.02 38.08,-36.243 0.73,-32.57 -26.75,-43.629 -55,-44.269 -29.51,-0.668 -55.9,11.699 -56.82,44.629 l 33.47,0.75" /><path
         id="path42"
         style="fill:#ffffff;fill-opacity:1;fill-rule:nonzero;stroke:none"
         d="m 1381.76,216.281 c -3.6,12.59 -14.52,17.949 -28.44,16 -21.39,-3.019 -26.91,-23.07 -24.25,-41.972 2.67,-18.887 13.53,-36.629 34.91,-33.618 15.51,2.2 23.17,12.36 22.35,27.149 l 33.16,4.68 c 2.83,-33.051 -18.51,-55.7 -50.77,-60.239 -38.51,-5.429 -67.6,20.461 -72.8,57.348 -5.21,36.902 15.6,69.832 54.1,75.262 27.45,3.871 59.68,-9.411 64.88,-39.93 l -33.14,-4.68" /><path
         id="path44"
         style="fill:#ffffff;fill-opacity:1;fill-rule:nonzero;stroke:none"
         d="m 1410.99,267.621 99.02,26.168 6.85,-25.937 -66.65,-17.614 5.75,-21.738 60.92,16.082 6.61,-25.062 -60.91,-16.09 6.25,-23.66 68.4,18.07 7.35,-27.848 -100.75,-26.621 -32.84,124.25" /><path
         id="path46"
         style="fill:#ffffff;fill-opacity:1;fill-rule:nonzero;stroke:none"
         d="m 1515.57,295.41 31.99,12.61 70.56,-57.348 0.33,0.137 -29.02,73.691 29.32,11.539 47.07,-119.578 -31.98,-12.602 -70.88,58.172 -0.34,-0.133 29.34,-74.527 -29.3,-11.539 -47.09,119.578" /><path
         id="path48"
         style="fill:#ffffff;fill-opacity:1;fill-rule:nonzero;stroke:none"
         d="m 1729.39,362.289 -33.84,-18 46.83,-88.039 -29.57,-15.719 -46.81,88.039 -33.86,-17.988 -13.53,25.418 97.27,51.719 13.51,-25.43" /><path
         id="path50"
         style="fill:#ffffff;fill-opacity:1;fill-rule:nonzero;stroke:none"
         d="m 1830.9,363.41 c 9.71,-11.621 20.1,-9.828 31.43,-1.23 8.03,6.09 14.17,15.269 8.41,22.871 -6.85,9.031 -22.78,-0.352 -40.71,-7.391 -17.78,-6.941 -38.14,-11.988 -52.38,6.801 -16.97,22.371 -1.1,48.199 18.12,62.781 20.36,15.449 48.37,21.11 66.04,-1.871 l -26.67,-20.23 c -6.65,9.64 -17.68,6.019 -25.85,-0.192 -5.75,-4.34 -11.38,-11.801 -6.27,-18.527 5.98,-7.891 21.83,1.879 39.91,9.039 17.92,7.039 38.05,11.469 52.09,-7.031 19.69,-25.95 3.92,-51.032 -18.59,-68.11 -23.52,-17.828 -52.15,-23.281 -72.21,2.852 l 26.68,20.238" /><path
         id="path52"
         style="fill:#ffffff;fill-opacity:1;fill-rule:nonzero;stroke:none"
         d="m 1955.51,446.012 c 15.53,15.019 8.2,34.488 -5.06,48.199 -13.26,13.711 -32.48,21.668 -48.01,6.648 -15.52,-15.019 -8.2,-34.488 5.06,-48.199 13.27,-13.719 32.48,-21.668 48.01,-6.648 z m -73.09,75.539 c 29.1,28.168 66.19,22.719 92.09,-4.059 25.91,-26.781 30.13,-64.023 1.03,-92.183 -29.11,-28.149 -66.18,-22.707 -92.09,4.07 -25.91,26.781 -30.14,64.019 -1.03,92.172" /><path
         id="path54"
         style="fill:#ffffff;fill-opacity:1;fill-rule:nonzero;stroke:none"
         d="m 2019.94,603.371 c -11.24,6.688 -22.87,3.09 -31.64,-7.871 -13.5,-16.879 -3.76,-35.262 11.14,-47.168 14.9,-11.922 34.97,-17.383 48.47,-0.512 9.78,12.239 8.37,24.891 -2.37,35.09 l 20.91,26.141 c 24.74,-22.09 24.74,-53.199 4.4,-78.653 -24.28,-30.359 -63.22,-31.5 -92.31,-8.218 -29.11,23.269 -36.57,61.492 -12.29,91.859 17.31,21.652 49.87,34.109 74.61,15.481 l -20.92,-26.149" /><path
         id="path56"
         style="fill:#ffffff;fill-opacity:1;fill-rule:nonzero;stroke:none"
         d="m 2007.15,664.5 18.52,27.891 107.06,-71.082 -18.51,-27.887 -107.07,71.078" /><path
         id="path58"
         style="fill:#ffffff;fill-opacity:1;fill-rule:nonzero;stroke:none"
         d="m 2033.55,702.762 49.49,89.679 23.47,-12.961 -33.3,-60.371 19.7,-10.859 30.43,55.16 22.7,-12.519 -30.44,-55.172 21.43,-11.821 34.18,61.934 25.22,-13.922 -50.37,-91.238 -112.51,62.09" /><path
         id="path60"
         style="fill:#ffffff;fill-opacity:1;fill-rule:nonzero;stroke:none"
         d="m 2151.71,881.699 -14.81,-35.359 92.01,-38.508 -12.93,-30.883 -92,38.492 -14.8,-35.359 -26.56,11.109 42.53,101.618 26.56,-11.11" /><path
         id="path62"
         style="fill:#ffffff;fill-opacity:1;fill-rule:nonzero;stroke:none"
         d="m 2221.02,933.559 45.89,-13.598 -9.51,-32.102 -45.9,13.602 -90.62,-21.961 10.8,36.422 57.3,9.668 -42.79,39.34 10.8,36.41 64.03,-67.781" /><path
         id="path64"
         style="fill:none;stroke:#ffffff;stroke-width:2.5;stroke-linecap:butt;stroke-linejoin:miter;stroke-miterlimit:4;stroke-dasharray:none;stroke-opacity:1"
         d="m 2173.33,1213.32 c 0,530.2 -429.8,960 -960,960 -530.201,0 -960.01,-429.8 -960.01,-960 0,-530.191 429.809,-960.011 960.01,-960.011 530.2,0 960,429.82 960,960.011 z" /></g></g></svg>