<?xml version="1.0" encoding="UTF-8" standalone="no"?>
<!-- Created with Inkscape (http://www.inkscape.org/) -->

<svg
   version="1.1"
   id="svg1"
   width="369.43466"
   height="119.784"
   viewBox="0 0 369.43466 119.784"
   sodipodi:docname="Samoa RC.svg"
   inkscape:version="1.3.2 (091e20e, 2023-11-25, custom)"
   xmlns:inkscape="http://www.inkscape.org/namespaces/inkscape"
   xmlns:sodipodi="http://sodipodi.sourceforge.net/DTD/sodipodi-0.dtd"
   xmlns="http://www.w3.org/2000/svg"
   xmlns:svg="http://www.w3.org/2000/svg">
  <defs
     id="defs1">
    <clipPath
       clipPathUnits="userSpaceOnUse"
       id="clipPath3">
      <path
         d="M 0.059998,89.837 H 277.076 V 0 H 0.059998 Z"
         transform="translate(-3.3750001,-9.3027977)"
         id="path3" />
    </clipPath>
  </defs>
  <sodipodi:namedview
     id="namedview1"
     pagecolor="#ffffff"
     bordercolor="#666666"
     borderopacity="1.0"
     inkscape:showpageshadow="2"
     inkscape:pageopacity="0.0"
     inkscape:pagecheckerboard="0"
     inkscape:deskcolor="#d1d1d1"
     inkscape:export-bgcolor="#ffffffff"
     inkscape:zoom="2.5308941"
     inkscape:cx="184.71733"
     inkscape:cy="59.860269"
     inkscape:window-width="1920"
     inkscape:window-height="1017"
     inkscape:window-x="-8"
     inkscape:window-y="-8"
     inkscape:window-maximized="1"
     inkscape:current-layer="g1">
    <inkscape:page
       x="0"
       y="0"
       inkscape:label="1"
       id="page1"
       width="369.43466"
       height="119.784"
       margin="0"
       bleed="0"
       inkscape:export-filename="Samoa RC.png"
       inkscape:export-xdpi="300"
       inkscape:export-ydpi="300" />
  </sodipodi:namedview>
  <g
     id="g1"
     inkscape:groupmode="layer"
     inkscape:label="1">
    <g
       id="group-MC1">
      <path
         id="path2"
         d="m 0,0 c 0,-2.1094 1.6431,-2.9307 3.5083,-2.9307 1.2207,0 3.086,0.3555 3.086,1.9756 0,1.7101 -2.3755,1.9991 -4.7071,2.6201 -2.353,0.621 -4.729,1.532 -4.729,4.507 0,3.241 3.064,4.796 5.9282,4.796 3.3081,0 6.3496,-1.444 6.3496,-5.107 H 6.0611 C 5.9502,7.77 4.5962,8.259 2.9307,8.259 1.8208,8.259 0.5332,7.793 0.5332,6.461 0.5332,5.239 1.2881,5.084 5.2622,4.062 6.4165,3.774 9.969,3.041 9.969,-0.5547 c 0,-2.9092 -2.287,-5.084 -6.594,-5.084 -3.5078,0 -6.7939,1.7314 -6.7495,5.6387 H 0"
         style="fill:#231f20;fill-opacity:1;fill-rule:nonzero;stroke:none"
         transform="matrix(1.3333333,0,0,-1.3333333,4.5,107.38027)"
         clip-path="url(#clipPath3)" />
      <path
         id="path4"
         d="m 0,0 c -0.533,-0.4668 -1.643,-0.4882 -2.62,-0.666 -0.977,-0.2002 -1.864,-0.5332 -1.864,-1.6875 0,-1.1767 0.91,-1.4658 1.931,-1.4658 2.464,0 2.553,1.9541 2.553,2.6426 z m -7.282,2.331 c 0.177,2.952 2.82,3.841 5.395,3.841 2.287,0 5.04,-0.511 5.04,-3.264 v -5.9724 c 0,-1.043 0.111,-2.0869 0.399,-2.5528 H 0.355 c -0.111,0.3555 -0.199,0.7325 -0.222,1.1104 -0.999,-1.0439 -2.464,-1.4209 -3.862,-1.4209 -2.176,0 -3.908,1.0879 -3.908,3.4414 0,2.5967 1.953,3.2183 3.908,3.4853 C -1.798,1.287 0,1.221 0,2.509 c 0,1.353 -0.932,1.553 -2.042,1.553 -1.199,0 -1.977,-0.488 -2.087,-1.731 h -3.153"
         style="fill:#231f20;fill-opacity:1;fill-rule:nonzero;stroke:none"
         transform="matrix(1.3333333,0,0,-1.3333333,29.778667,106.9064)" />
      <path
         id="path5"
         d="M 0,0 H 2.975 V -1.554 H 3.02 c 0.821,1.177 2.02,1.866 3.507,1.866 1.443,0 2.731,-0.534 3.353,-1.91 0.666,0.999 1.865,1.91 3.463,1.91 2.442,0 4.197,-1.133 4.197,-4.108 v -7.682 h -3.153 v 6.505 c 0,1.533 -0.134,2.797 -1.932,2.797 -1.776,0 -2.109,-1.465 -2.109,-2.907 v -6.395 H 7.193 v 6.439 c 0,1.332 0.089,2.863 -1.909,2.863 -0.621,0 -2.131,-0.399 -2.131,-2.641 v -6.661 H 0 L 0,0"
         style="fill:#231f20;fill-opacity:1;fill-rule:nonzero;stroke:none"
         transform="matrix(1.3333333,0,0,-1.3333333,37.502667,99.092)" />
      <path
         id="path6"
         d="M 0,0 C 2.153,0 2.797,1.8428 2.797,3.6631 2.797,5.506 2.153,7.349 0,7.349 -2.131,7.349 -2.775,5.506 -2.775,3.6631 -2.775,1.8428 -2.131,0 0,0 Z M 0,9.725 C 3.619,9.725 5.95,7.326 5.95,3.6631 5.95,0.0225 3.619,-2.375 0,-2.375 c -3.597,0 -5.928,2.3975 -5.928,6.0381 0,3.6629 2.331,6.0619 5.928,6.0619"
         style="fill:#231f20;fill-opacity:1;fill-rule:nonzero;stroke:none"
         transform="matrix(1.3333333,0,0,-1.3333333,71.78,111.64333)" />
      <path
         id="path7"
         d="m 0,0 c -0.533,-0.4668 -1.643,-0.4882 -2.62,-0.666 -0.977,-0.2002 -1.864,-0.5332 -1.864,-1.6875 0,-1.1767 0.91,-1.4658 1.931,-1.4658 2.464,0 2.553,1.9541 2.553,2.6426 z m -7.282,2.331 c 0.177,2.952 2.82,3.841 5.395,3.841 2.287,0 5.04,-0.511 5.04,-3.264 v -5.9724 c 0,-1.043 0.111,-2.0869 0.399,-2.5528 H 0.355 c -0.111,0.3555 -0.199,0.7325 -0.222,1.1104 -0.999,-1.0439 -2.464,-1.4209 -3.863,-1.4209 -2.175,0 -3.907,1.0879 -3.907,3.4414 0,2.5967 1.953,3.2183 3.907,3.4853 1.932,0.288 3.73,0.222 3.73,1.51 0,1.353 -0.932,1.553 -2.043,1.553 -1.198,0 -1.976,-0.488 -2.086,-1.731 h -3.153"
         style="fill:#231f20;fill-opacity:1;fill-rule:nonzero;stroke:none"
         transform="matrix(1.3333333,0,0,-1.3333333,92.114667,106.9064)" />
      <path
         id="path8"
         d="m 0,0 h 3.819 c 1.554,0 2.397,0.666 2.397,2.265 0,1.531 -0.843,2.198 -2.397,2.198 H 0 Z m -3.486,7.171 h 8.548 c 2.842,0 4.64,-1.976 4.64,-4.374 0,-1.864 -0.755,-3.264 -2.509,-3.974 v -0.044 c 1.71,-0.444 2.198,-2.1091 2.31,-3.7077 0.066,-0.999 0.044,-2.8643 0.665,-3.752 H 6.683 C 6.261,-7.6816 6.305,-6.1494 6.128,-4.8838 5.883,-3.2187 5.24,-2.486 3.486,-2.486 H 0 V -8.6807 H -3.486 V 7.171"
         style="fill:#ed1c24;fill-opacity:1;fill-rule:nonzero;stroke:none"
         transform="matrix(1.3333333,0,0,-1.3333333,113.19067,102.82133)" />
      <path
         id="path9"
         d="M 0,0 C -0.289,1.598 -0.977,2.441 -2.509,2.441 -4.507,2.441 -5.084,0.888 -5.129,0 Z m -5.129,-1.999 c 0.089,-1.998 1.066,-2.9082 2.82,-2.9082 1.265,0 2.287,0.7773 2.487,1.4883 h 2.775 c -0.888,-2.709 -2.775,-3.8633 -5.373,-3.8633 -3.619,0 -5.861,2.4863 -5.861,6.0381 0,3.4411 2.376,6.0611 5.861,6.0611 3.908,0 5.795,-3.286 5.573,-6.816 h -8.282"
         style="fill:#ed1c24;fill-opacity:1;fill-rule:nonzero;stroke:none"
         transform="matrix(1.3333333,0,0,-1.3333333,139.91867,105.1)" />
      <path
         id="path10"
         d="m 0,0 c -2.065,0 -2.775,-1.776 -2.775,-3.6631 0,-1.7978 0.821,-3.6855 2.775,-3.6855 2.087,0 2.708,1.8213 2.708,3.708 C 2.708,-1.776 2.042,0 0,0 Z M 2.753,-7.9482 H 2.708 c -0.732,-1.2432 -2.02,-1.7754 -3.485,-1.7754 -3.463,0 -5.151,2.9746 -5.151,6.1494 0,3.0862 1.71,5.9502 5.084,5.9502 1.355,0 2.687,-0.577 3.397,-1.71 H 2.597 V 6.439 H 5.75 V -9.4131 H 2.753 v 1.4649"
         style="fill:#ed1c24;fill-opacity:1;fill-rule:nonzero;stroke:none"
         transform="matrix(1.3333333,0,0,-1.3333333,154.008,101.84533)" />
      <path
         id="path11"
         d="m 0,0 c -0.221,1.576 -1.731,2.775 -3.462,2.775 -3.131,0 -4.308,-2.664 -4.308,-5.439 0,-2.6417 1.177,-5.3067 4.308,-5.3067 2.131,0 3.329,1.4658 3.596,3.5527 H 3.508 C 3.154,-8.3701 0.422,-10.9 -3.462,-10.9 c -4.907,0 -7.793,3.6627 -7.793,8.236 0,4.706 2.886,8.37 7.793,8.37 C 0.023,5.706 2.953,3.663 3.375,0 H 0"
         style="fill:#ed1c24;fill-opacity:1;fill-rule:nonzero;stroke:none"
         transform="matrix(1.3333333,0,0,-1.3333333,187.89867,100.36533)" />
      <path
         id="path12"
         d="m 0,0 h 2.997 v -2.131 h 0.044 c 0.578,1.443 2.132,2.443 3.664,2.443 0.222,0 0.489,-0.045 0.688,-0.112 v -2.93 c -0.288,0.066 -0.755,0.111 -1.132,0.111 -2.309,0 -3.108,-1.665 -3.108,-3.6857 V -11.478 H 0 V 0"
         style="fill:#ed1c24;fill-opacity:1;fill-rule:nonzero;stroke:none"
         transform="matrix(1.3333333,0,0,-1.3333333,195.44667,99.092)" />
      <path
         id="path13"
         d="M 0,0 C 2.154,0 2.798,1.8428 2.798,3.6631 2.798,5.506 2.154,7.349 0,7.349 -2.131,7.349 -2.775,5.506 -2.775,3.6631 -2.775,1.8428 -2.131,0 0,0 Z M 0,9.725 C 3.619,9.725 5.951,7.326 5.951,3.6631 5.951,0.0225 3.619,-2.375 0,-2.375 c -3.596,0 -5.927,2.3975 -5.927,6.0381 0,3.6629 2.331,6.0619 5.927,6.0619"
         style="fill:#ed1c24;fill-opacity:1;fill-rule:nonzero;stroke:none"
         transform="matrix(1.3333333,0,0,-1.3333333,214.00533,111.64333)" />
      <path
         id="path14"
         d="m 0,0 c 0.023,-1.3759 1.177,-1.9316 2.42,-1.9316 0.911,0 2.066,0.3555 2.066,1.4658 0,0.9551 -1.311,1.2881 -3.575,1.7764 C -0.91,1.71 -2.73,2.354 -2.73,4.374 c 0,2.931 2.531,3.686 4.995,3.686 2.509,0 4.818,-0.844 5.062,-3.663 H 4.33 C 4.242,5.617 3.309,5.95 2.176,5.95 1.466,5.95 0.422,5.817 0.422,4.885 0.422,3.752 2.199,3.597 3.997,3.175 5.84,2.753 7.638,2.087 7.638,-0.0439 7.638,-3.0634 5.018,-4.04 2.399,-4.04 -0.265,-4.04 -2.863,-3.041 -2.997,0 H 0"
         style="fill:#ed1c24;fill-opacity:1;fill-rule:nonzero;stroke:none"
         transform="matrix(1.3333333,0,0,-1.3333333,228.064,109.42333)" />
      <path
         id="path15"
         d="m 0,0 c 0.022,-1.3759 1.176,-1.9316 2.419,-1.9316 0.912,0 2.066,0.3555 2.066,1.4658 0,0.9551 -1.311,1.2881 -3.574,1.7764 -1.822,0.3994 -3.642,1.0434 -3.642,3.0634 0,2.931 2.531,3.686 4.995,3.686 2.509,0 4.819,-0.844 5.063,-3.663 H 4.33 C 4.241,5.617 3.308,5.95 2.175,5.95 1.465,5.95 0.421,5.817 0.421,4.885 c 0,-1.133 1.777,-1.288 3.576,-1.71 1.842,-0.422 3.64,-1.088 3.64,-3.2189 0,-3.0195 -2.62,-3.9961 -5.239,-3.9961 -2.664,0 -5.262,0.999 -5.396,4.04 L 0,0"
         style="fill:#ed1c24;fill-opacity:1;fill-rule:nonzero;stroke:none"
         transform="matrix(1.3333333,0,0,-1.3333333,244.108,109.42333)" />
      <path
         id="path16"
         d="m 0,0 c 0,-2.1094 1.643,-2.9307 3.507,-2.9307 1.222,0 3.086,0.3555 3.086,1.9756 0,1.7101 -2.375,1.9991 -4.706,2.6201 -2.353,0.621 -4.729,1.532 -4.729,4.507 0,3.241 3.064,4.796 5.927,4.796 3.309,0 6.35,-1.444 6.35,-5.107 H 6.061 C 5.95,7.77 4.595,8.259 2.93,8.259 1.82,8.259 0.533,7.793 0.533,6.461 0.533,5.239 1.288,5.084 5.261,4.062 6.416,3.774 9.968,3.041 9.968,-0.5547 c 0,-2.9092 -2.287,-5.084 -6.593,-5.084 -3.508,0 -6.794,1.7314 -6.749,5.6387 H 0"
         style="fill:#231f20;fill-opacity:1;fill-rule:nonzero;stroke:none"
         transform="matrix(1.3333333,0,0,-1.3333333,268.884,107.38027)" />
      <path
         id="path17"
         d="M 0,0 C 2.154,0 2.798,1.8428 2.798,3.6631 2.798,5.506 2.154,7.349 0,7.349 -2.131,7.349 -2.775,5.506 -2.775,3.6631 -2.775,1.8428 -2.131,0 0,0 Z M 0,9.725 C 3.62,9.725 5.951,7.326 5.951,3.6631 5.951,0.0225 3.62,-2.375 0,-2.375 c -3.596,0 -5.927,2.3975 -5.927,6.0381 0,3.6629 2.331,6.0619 5.927,6.0619"
         style="fill:#231f20;fill-opacity:1;fill-rule:nonzero;stroke:none"
         transform="matrix(1.3333333,0,0,-1.3333333,292.06,111.64333)" />
      <path
         id="path18"
         d="m 0,0 c -0.199,1.287 -1.021,1.976 -2.331,1.976 -2.02,0 -2.686,-2.042 -2.686,-3.7299 0,-1.6425 0.643,-3.6191 2.62,-3.6191 1.465,0 2.308,0.9326 2.509,2.3311 H 3.153 C 2.753,-6.083 0.644,-7.748 -2.375,-7.748 c -3.464,0 -5.795,2.4414 -5.795,5.8828 0,3.5742 2.131,6.2172 5.862,6.2172 C 0.4,4.352 2.887,2.931 3.086,0 H 0"
         style="fill:#231f20;fill-opacity:1;fill-rule:nonzero;stroke:none"
         transform="matrix(1.3333333,0,0,-1.3333333,313.28267,104.47867)" />
      <path
         id="path19"
         d="M 0,0 H 3.153 V -11.478 H 0 Z M 3.153,1.776 H 0 v 2.5976 h 3.153 z"
         style="fill:#231f20;fill-opacity:1;fill-rule:nonzero;stroke:none"
         transform="matrix(1.3333333,0,0,-1.3333333,320.12,99.092)" />
      <path
         id="path20"
         d="M 0,0 C -0.288,1.598 -0.977,2.441 -2.509,2.441 -4.507,2.441 -5.084,0.888 -5.128,0 Z m -5.128,-1.999 c 0.089,-1.998 1.065,-2.9082 2.819,-2.9082 1.266,0 2.286,0.7773 2.487,1.4883 h 2.775 c -0.888,-2.709 -2.775,-3.8633 -5.373,-3.8633 -3.619,0 -5.861,2.4863 -5.861,6.0381 0,3.4411 2.376,6.0611 5.861,6.0611 3.907,0 5.795,-3.286 5.572,-6.816 h -8.28"
         style="fill:#231f20;fill-opacity:1;fill-rule:nonzero;stroke:none"
         transform="matrix(1.3333333,0,0,-1.3333333,338.08667,105.1)" />
      <path
         id="path21"
         d="M 0,0 H 2.309 V -2.108 H 0 v -5.684 c 0,-1.0654 0.267,-1.332 1.332,-1.332 0.333,0 0.643,0.0224 0.977,0.0888 V -11.5 c -0.533,-0.089 -1.221,-0.11 -1.843,-0.11 -1.932,0 -3.618,0.443 -3.618,2.7301 V -2.108 H -5.063 V 0 h 1.911 V 3.441 L 0,3.441 V 0"
         style="fill:#231f20;fill-opacity:1;fill-rule:nonzero;stroke:none"
         transform="matrix(1.3333333,0,0,-1.3333333,350.25333,99.092)" />
      <path
         id="path22"
         d="m 0,0 c -0.689,-1.8428 -1.777,-2.5977 -3.952,-2.5977 -0.644,0 -1.288,0.045 -1.932,0.1114 v 2.5976 c 0.6,-0.0449 1.222,-0.1328 1.843,-0.1113 1.088,0.1113 1.443,1.2431 1.088,2.1543 l -4.04,10.7667 h 3.374 l 2.597,-7.8585 h 0.045 L 1.532,12.921 H 4.796 L 0,0"
         style="fill:#231f20;fill-opacity:1;fill-rule:nonzero;stroke:none"
         transform="matrix(1.3333333,0,0,-1.3333333,363.04,116.3204)" />
      <path
         id="path23"
         d="M 0,0 H -21.594 V 21.594 H -40.372 V 0 h -21.594 v -18.778 h 21.594 v -21.593 h 18.778 v 21.593 H 0 V 0"
         style="fill:#ed1c24;fill-opacity:1;fill-rule:nonzero;stroke:none"
         transform="matrix(1.3333333,0,0,-1.3333333,226.028,28.793333)" />
    </g>
  </g>
</svg>
