<?xml version="1.0" encoding="UTF-8" standalone="no"?>
<svg
   xmlns:dc="http://purl.org/dc/elements/1.1/"
   xmlns:cc="http://creativecommons.org/ns#"
   xmlns:rdf="http://www.w3.org/1999/02/22-rdf-syntax-ns#"
   xmlns:svg="http://www.w3.org/2000/svg"
   xmlns="http://www.w3.org/2000/svg"
   viewBox="0 0 419.22668 335.84"
   height="335.84"
   width="419.22668"
   xml:space="preserve"
   id="svg2"
   version="1.1"><metadata
     id="metadata8"><rdf:RDF><cc:Work
         rdf:about=""><dc:format>image/svg+xml</dc:format><dc:type
           rdf:resource="http://purl.org/dc/dcmitype/StillImage" /><dc:title></dc:title></cc:Work></rdf:RDF></metadata><defs
     id="defs6" /><g
     transform="matrix(1.3333333,0,0,-1.3333333,0,335.84)"
     id="g10"><g
       transform="scale(0.1)"
       id="g12"><path
         id="path14"
         style="fill:#ed192d;fill-opacity:1;fill-rule:nonzero;stroke:none"
         d="M 1287.4,664.199 H 623.027 V 1233.59 H 1287.4 l -0.05,0.39 v 664.35 h 569.46 v -664.35 l -0.06,-0.26 h 664.4 V 664.27 h -664.4 l 0.06,0.101 V 0 h -569.46 v 664.371 l 0.05,-0.172" /><path
         id="path16"
         style="fill:#100f0d;fill-opacity:1;fill-rule:nonzero;stroke:none"
         d="m 44.6289,1058.65 -1.0547,-55.38 144.0548,-2.74 -0.93,-48.358 L 42.6563,954.91 41.6016,899.531 0,900.32 l 3.02734,159.12 41.60156,-0.79" /><path
         id="path18"
         style="fill:#100f0d;fill-opacity:1;fill-rule:nonzero;stroke:none"
         d="m 6.21875,1098.1 6.96485,47.85 66.8945,-9.75 9.168,63.05 -66.8828,9.72 6.9531,47.86 183.7036,-26.74 -6.965,-47.85 -75.645,11.01 -9.172,-63.04 75.637,-11 -6.965,-47.86 -183.69125,26.75" /><path
         id="path20"
         style="fill:#100f0d;fill-opacity:1;fill-rule:nonzero;stroke:none"
         d="m 40.5469,1307.12 40.2344,142.4 37.2847,-10.53 -27.0816,-95.86 31.2886,-8.83 24.747,87.59 36.039,-10.18 -24.739,-87.6 34.024,-9.62 27.793,98.37 40.051,-11.32 -40.95,-144.91 -178.6911,50.49" /><path
         id="path22"
         style="fill:#100f0d;fill-opacity:1;fill-rule:nonzero;stroke:none"
         d="m 373.379,1649.06 -14.031,-27.85 -19.407,6.56 c 10.293,-19.44 6.036,-41.75 -1.679,-57.07 -25.266,-50.13 -79.934,-63.34 -127.989,-39.13 -48.046,24.21 -69.98,76.01 -44.714,126.14 17.3,34.36 54.121,61.8 97.664,44.81 l -21.758,-43.18 c -14.856,5.75 -30.469,-3.86 -39.238,-21.27 -14.036,-27.86 5.195,-50.93 29.793,-63.32 24.613,-12.4 54.601,-14.12 68.632,13.73 10.754,21.36 8.032,40.79 -5.886,50.7 l -15.203,-30.17 -32.036,16.15 35.078,69.63 90.774,-45.73" /><path
         id="path24"
         style="fill:#100f0d;fill-opacity:1;fill-rule:nonzero;stroke:none"
         d="m 360.313,1753.75 23.835,34.71 -65.195,19.86 -0.293,-0.43 z m -97.774,63.36 27.82,40.5 192.297,-47.88 -28.554,-41.57 -33.907,9.42 -36.64,-53.35 20.8,-28.49 -28.117,-40.93 -113.699,162.3" /><path
         id="path26"
         style="fill:#100f0d;fill-opacity:1;fill-rule:nonzero;stroke:none"
         d="m 351.289,1942.97 48.524,52.16 112.382,-60.89 0.356,0.38 -68.821,107.72 48.516,52.14 135.906,-126.43 -30.996,-33.32 -103.152,95.99 -0.352,-0.38 76.59,-124.54 -25.144,-27.03 -129.715,67.43 -0.363,-0.38 103.164,-95.98 -30.989,-33.32 -135.906,126.45" /><path
         id="path28"
         style="fill:#100f0d;fill-opacity:1;fill-rule:nonzero;stroke:none"
         d="m 663.254,2045.68 30.293,24.12 c 12,9.56 16.933,20.47 7.383,32.47 -10.207,12.81 -22.551,9.94 -33.95,0.88 l -30.292,-24.13 z m -45.996,57.74 29.273,23.32 c 6.504,5.19 12.707,15.77 4.446,26.14 -8.418,10.58 -18.704,8.04 -26.629,1.72 l -29.289,-23.32 z m -83.34,27.01 67.918,54.1 c 24.687,20.32 57.324,35.69 81.457,5.39 10.359,-13.02 11.062,-29.74 4.195,-44.5 19.028,7.82 39.27,2.02 52.395,-14.44 27.527,-34.57 10.539,-65.39 -20.574,-90.18 l -69.746,-55.56 -115.645,145.19" /><path
         id="path30"
         style="fill:#100f0d;fill-opacity:1;fill-rule:nonzero;stroke:none"
         d="m 694.023,2251.94 40.497,26.44 101.476,-155.43 -40.488,-26.44 -101.485,155.43" /><path
         id="path32"
         style="fill:#100f0d;fill-opacity:1;fill-rule:nonzero;stroke:none"
         d="m 875.195,2226.05 37.254,19.67 -48.511,47.88 -0.461,-0.24 z m -57.129,101.55 43.45,22.94 148.054,-131.74 -44.597,-23.55 -25.657,24.09 -57.246,-30.23 5.196,-34.89 -43.914,-23.2 -25.286,196.58" /><path
         id="path34"
         style="fill:#100f0d;fill-opacity:1;fill-rule:nonzero;stroke:none"
         d="m 1107.09,2365.57 38.78,11.9 c 13.92,4.26 19.08,14 14.97,27.42 -4.04,13.18 -16.31,15.95 -29.24,11.97 l -36.78,-11.27 z m -69.85,62.88 90.47,27.74 c 31.31,9.6 66.48,4.88 77.45,-30.9 5.88,-19.14 2.24,-40.11 -14.19,-53.03 l 0.15,-0.5 c 20.27,1.33 32.21,-18.13 38.88,-34.56 2.79,-7.31 11.54,-33.18 19.74,-37.74 L 1204,2285.44 c -5.81,4.74 -11.89,21.91 -13.91,26.73 -6.72,17.52 -15.35,35 -36.97,28.36 l -35.04,-10.74 19.81,-64.63 -46.22,-14.18 -54.43,177.47" /><path
         id="path36"
         style="fill:#100f0d;fill-opacity:1;fill-rule:nonzero;stroke:none"
         d="m 1235.29,2485.36 145.86,24.8 6.49,-38.19 -98.18,-16.69 5.45,-32.05 89.73,15.25 6.27,-36.9 -89.72,-15.26 5.93,-34.86 100.73,17.13 6.98,-41.01 -148.41,-25.24 -31.13,183.02" /><path
         id="path38"
         style="fill:#100f0d;fill-opacity:1;fill-rule:nonzero;stroke:none"
         d="m 1483.56,2373.54 22.88,0.86 c 36.61,2.17 50.61,17.03 49.2,54.18 -1.27,33.78 -20.09,49.47 -53.09,48.22 l -22.87,-0.87 z m -53.78,142.12 79.77,3.03 c 56.91,2.16 92.26,-31.11 94.43,-88.53 2.31,-60.8 -31.01,-94.87 -87.4,-97.01 l -79.76,-3.02 -7.04,185.53" /><path
         id="path40"
         style="fill:#100f0d;fill-opacity:1;fill-rule:nonzero;stroke:none"
         d="m 1847.81,2428.88 c 0.34,18.89 -12.51,30.91 -32.55,34.06 -30.82,4.83 -46.9,-20.53 -51.18,-47.76 -4.28,-27.22 3.25,-56.29 34.07,-61.13 22.35,-3.52 37.21,7.31 42.31,28.09 l 47.77,-7.51 c -9.99,-46.85 -49.01,-69.14 -95.5,-61.84 -55.47,8.71 -84.77,56.74 -76.42,109.91 8.35,53.16 50.97,89.89 106.43,81.17 39.55,-6.21 78.49,-38.13 72.84,-82.5 l -47.77,7.51" /><path
         id="path42"
         style="fill:#100f0d;fill-opacity:1;fill-rule:nonzero;stroke:none"
         d="m 1972.92,2384.97 38.85,-11.64 c 13.94,-4.19 23.67,1.03 27.69,14.49 3.97,13.2 -4.7,22.31 -17.65,26.19 l -36.86,11.06 z m -23.17,91.09 90.65,-27.17 c 31.39,-9.42 58.01,-32.87 47.26,-68.73 -5.76,-19.18 -20.42,-34.59 -41.26,-36.21 l -0.16,-0.5 c 17.59,-10.17 16.72,-32.98 13.14,-50.36 -1.74,-7.63 -8.84,-34 -4.56,-42.34 l -45.83,13.73 c -2.18,7.18 2.29,24.85 3.3,29.97 4.13,18.3 6.67,37.63 -15,44.12 l -35.12,10.54 -19.42,-64.75 -46.31,13.88 53.31,177.82" /><path
         id="path44"
         style="fill:#100f0d;fill-opacity:1;fill-rule:nonzero;stroke:none"
         d="m 2162.74,2243.86 c 28.39,-12.97 50.73,7.14 62.19,32.2 11.46,25.08 12.03,55.13 -16.35,68.1 -28.38,12.97 -50.72,-7.13 -62.18,-32.21 -11.47,-25.07 -12.03,-55.11 16.34,-68.09 z m 63.13,138.14 c 53.23,-24.32 65.43,-77.08 43.07,-126.04 -22.39,-48.97 -70.27,-74.27 -123.49,-49.95 -53.22,24.32 -65.42,77.08 -43.06,126.05 22.39,48.96 70.27,74.27 123.48,49.94" /><path
         id="path46"
         style="fill:#100f0d;fill-opacity:1;fill-rule:nonzero;stroke:none"
         d="m 2312.82,2193.35 c -10.72,-19.06 -3.01,-32.19 14.4,-43.1 12.33,-7.74 27.87,-11.36 35.19,0.32 8.7,13.87 -12.11,30.61 -30.78,51.23 -18.46,20.49 -35.66,45.39 -17.57,74.25 21.56,34.34 64.56,26.09 94.07,7.58 31.27,-19.63 53.24,-54.58 31.22,-90.17 l -40.97,25.7 c 9.64,13.89 -0.89,26.95 -13.45,34.82 -8.81,5.53 -21.76,9.35 -28.24,-0.99 -7.6,-12.11 13.7,-28.55 32.6,-49.31 18.67,-20.61 34.95,-45.55 17.13,-73.97 -25.01,-39.86 -66.95,-31.35 -101.52,-9.66 -36.12,22.66 -58.11,58.54 -33.04,98.99 l 40.96,-25.69" /><path
         id="path48"
         style="fill:#100f0d;fill-opacity:1;fill-rule:nonzero;stroke:none"
         d="m 2457.94,2094.34 c -12.95,-17.62 -6.88,-31.58 9.08,-44.53 11.31,-9.17 26.29,-14.63 34.98,-3.92 10.31,12.71 -8.32,31.84 -24.36,54.58 -15.85,22.56 -29.92,49.38 -8.46,75.83 25.56,31.49 67.25,18.1 94.31,-3.85 28.67,-23.26 46.25,-60.61 20.07,-93.29 l -37.55,30.46 c 11.25,12.65 2.38,26.88 -9.14,36.21 -8.08,6.55 -20.47,11.92 -28.17,2.42 -9,-11.1 10.16,-30 26.41,-52.89 16.04,-22.72 29.18,-49.45 8.04,-75.51 -29.63,-36.54 -70.23,-23.03 -101.94,2.69 -33.11,26.86 -50.6,65.16 -20.83,102.27 l 37.56,-30.47" /><path
         id="path50"
         style="fill:#100f0d;fill-opacity:1;fill-rule:nonzero;stroke:none"
         d="m 2647.31,1918.67 c -15.85,-15.07 -12.34,-29.89 1.08,-45.45 9.52,-11.02 23.31,-19.05 33.75,-10.05 12.4,10.72 -2.56,32.84 -14.36,58.05 -11.61,25.01 -20.74,53.9 5.06,76.16 30.72,26.5 69.42,5.94 92.18,-20.45 24.13,-27.96 34.83,-67.84 3.3,-95.4 l -31.6,36.63 c 13.31,10.47 7.08,26.05 -2.61,37.27 -6.8,7.87 -18.05,15.34 -27.3,7.35 -10.82,-9.33 4.7,-31.32 16.66,-56.73 11.79,-25.21 20,-53.85 -5.39,-75.76 -35.65,-30.76 -73.24,-10.28 -99.91,20.64 -27.87,32.29 -38.33,73.07 -2.46,104.37 l 31.6,-36.63" /><path
         id="path52"
         style="fill:#100f0d;fill-opacity:1;fill-rule:nonzero;stroke:none"
         d="m 2762.27,1728.82 c 17.1,-26.09 46.7,-20.97 69.75,-5.85 23.05,15.1 39.53,40.22 22.41,66.32 -17.11,26.07 -46.71,20.96 -69.75,5.85 -23.05,-15.12 -39.53,-40.23 -22.41,-66.32 z m 126.94,83.28 c 32.09,-48.92 14.33,-100.06 -30.67,-129.57 -45,-29.52 -98.98,-25.44 -131.06,23.47 -32.08,48.92 -14.33,100.05 30.67,129.57 45,29.52 98.99,25.43 131.06,-23.47" /><path
         id="path54"
         style="fill:#100f0d;fill-opacity:1;fill-rule:nonzero;stroke:none"
         d="m 2950.79,1553.05 c 15.82,10.34 18.54,27.72 9.9,46.05 -13.31,28.21 -43.33,27.28 -68.24,15.53 -24.92,-11.76 -44.74,-34.33 -31.44,-62.53 9.64,-20.46 26.95,-26.66 46.99,-19.22 l 20.62,-43.73 c -44.36,-18.05 -84.72,1.72 -104.78,44.27 -23.95,50.79 -0.69,101.98 47.99,124.93 48.66,22.96 102.96,8.33 126.92,-42.45 17.07,-36.2 12.55,-86.33 -27.33,-106.57 l -20.63,43.72" /><path
         id="path56"
         style="fill:#100f0d;fill-opacity:1;fill-rule:nonzero;stroke:none"
         d="m 3043.65,1499.68 16.25,-45.55 -174.83,-62.38 -16.25,45.54 174.83,62.39" /><path
         id="path58"
         style="fill:#100f0d;fill-opacity:1;fill-rule:nonzero;stroke:none"
         d="m 3075.66,1410.16 36.69,-143.33 -37.54,-9.61 -24.68,96.47 -31.49,-8.06 22.56,-88.17 -36.27,-9.28 -22.57,88.17 -34.25,-8.77 25.34,-99 -40.31,-10.32 -37.33,145.85 179.85,46.05" /><path
         id="path60"
         style="fill:#100f0d;fill-opacity:1;fill-rule:nonzero;stroke:none"
         d="m 3098.6,1068.7 -7.13,54.91 -142.85,-18.55 -6.24,47.96 142.86,18.56 -7.14,54.92 41.26,5.36 20.51,-157.81 -41.27,-5.35" /><path
         id="path62"
         style="fill:#100f0d;fill-opacity:1;fill-rule:nonzero;stroke:none"
         d="m 3026.56,940.48 -69.16,-1.16 -0.81,48.371 69.16,1.161 115.35,69.548 0.92,-54.86 -74.78,-38.181 76.01,-35.66 0.93,-54.867 -117.62,65.648" /></g></g></svg>