<?xml version="1.0" encoding="UTF-8" standalone="no"?>
<!-- Created with Inkscape (http://www.inkscape.org/) -->

<svg
   version="1.1"
   id="svg1"
   width="216.964"
   height="93.686668"
   viewBox="0 0 216.964 93.686668"
   sodipodi:docname="Indonesian RC (PMI).svg"
   inkscape:version="1.3.2 (091e20e, 2023-11-25, custom)"
   xmlns:inkscape="http://www.inkscape.org/namespaces/inkscape"
   xmlns:sodipodi="http://sodipodi.sourceforge.net/DTD/sodipodi-0.dtd"
   xmlns="http://www.w3.org/2000/svg"
   xmlns:svg="http://www.w3.org/2000/svg">
  <defs
     id="defs1">
    <clipPath
       clipPathUnits="userSpaceOnUse"
       id="clipPath22">
      <path
         d="M 0,70.265 H 162.72 V 0.06 L 0,0.06 Z"
         transform="translate(-158.737,-16.057001)"
         id="path22" />
    </clipPath>
    <clipPath
       clipPathUnits="userSpaceOnUse"
       id="clipPath25">
      <path
         d="M 0,70.265 H 162.72 V 0.06 L 0,0.06 Z"
         transform="translate(-17.510001,-53.786001)"
         id="path25" />
    </clipPath>
  </defs>
  <sodipodi:namedview
     id="namedview1"
     pagecolor="#ffffff"
     bordercolor="#666666"
     borderopacity="1.0"
     inkscape:showpageshadow="2"
     inkscape:pageopacity="0.0"
     inkscape:pagecheckerboard="0"
     inkscape:deskcolor="#d1d1d1"
     inkscape:zoom="4.3094705"
     inkscape:cx="108.482"
     inkscape:cy="46.757484"
     inkscape:window-width="1920"
     inkscape:window-height="1017"
     inkscape:window-x="-8"
     inkscape:window-y="-8"
     inkscape:window-maximized="1"
     inkscape:current-layer="g1">
    <inkscape:page
       x="0"
       y="0"
       inkscape:label="1"
       id="page1"
       width="216.964"
       height="93.686668"
       margin="0"
       bleed="0" />
  </sodipodi:namedview>
  <g
     id="g1"
     inkscape:groupmode="layer"
     inkscape:label="1">
    <g
       id="group-MC1">
      <path
         id="path2"
         d="m 0,0 v -3.047 h 1.184 c 0.851,0 1.42,0.056 1.709,0.168 0.287,0.113 0.511,0.289 0.674,0.528 0.163,0.239 0.246,0.518 0.246,0.835 0,0.391 -0.115,0.713 -0.344,0.967 C 3.24,-0.296 2.951,-0.137 2.6,-0.073 2.342,-0.024 1.823,0 1.045,0 Z M -2.172,-8.922 V 1.82 H 1.305 C 2.622,1.82 3.48,1.767 3.881,1.659 4.495,1.498 5.01,1.147 5.425,0.608 5.84,0.068 6.047,-0.629 6.047,-1.483 6.047,-2.143 5.928,-2.697 5.688,-3.146 5.449,-3.595 5.146,-3.948 4.778,-4.205 4.41,-4.461 4.036,-4.63 3.656,-4.713 3.139,-4.816 2.391,-4.867 1.411,-4.867 H 0 v -4.055 h -2.172"
         style="fill:#231f20;fill-opacity:1;fill-rule:nonzero;stroke:none"
         transform="matrix(1.3333333,0,0,-1.3333333,110.284,18.058667)" />
      <path
         id="path3"
         d="M 0,0 V 10.742 H 7.953 V 8.922 H 2.172 V 6.547 H 7.547 V 4.726 H 2.172 V 1.82 H 8.156 V 0 H 0"
         style="fill:#231f20;fill-opacity:1;fill-rule:nonzero;stroke:none"
         transform="matrix(1.3333333,0,0,-1.3333333,120.728,29.954667)" />
      <path
         id="path4"
         d="M 0,0 V 10.648 H 2.171 V 1.82 H 7.562 L 7.562,0 H 0"
         style="fill:#231f20;fill-opacity:1;fill-rule:nonzero;stroke:none"
         transform="matrix(1.3333333,0,0,-1.3333333,134.13067,29.954667)" />
      <path
         id="path5"
         d="M 0,0 -1.487,3.977 -2.936,0 Z M 3.986,-4.258 H 1.627 l -0.93,2.438 h -4.296 l -0.889,-2.438 h -2.3 l 4.173,10.742 h 2.304 L 3.986,-4.258"
         style="fill:#231f20;fill-opacity:1;fill-rule:nonzero;stroke:none"
         transform="matrix(1.3333333,0,0,-1.3333333,153.86533,24.277333)" />
      <path
         id="path6"
         d="M 0,0 V 10.742 H 2.104 L 6.508,3.55 v 7.192 H 8.516 V 0 H 6.347 L 2.008,7.039 V 0 H 0"
         style="fill:#231f20;fill-opacity:1;fill-rule:nonzero;stroke:none"
         transform="matrix(1.3333333,0,0,-1.3333333,160.748,29.954667)" />
      <path
         id="path7"
         d="M 0,0 V 1.82 H 4.672 V -2.456 C 4.218,-2.895 3.561,-3.282 2.698,-3.616 1.837,-3.95 0.964,-4.117 0.081,-4.117 c -1.123,0 -2.101,0.235 -2.936,0.706 -0.835,0.472 -1.462,1.145 -1.882,2.022 -0.42,0.876 -0.63,1.829 -0.63,2.859 0,1.118 0.234,2.112 0.703,2.981 0.468,0.869 1.154,1.535 2.057,1.999 0.688,0.356 1.545,0.534 2.57,0.534 1.332,0 2.373,-0.278 3.122,-0.836 C 3.834,5.59 4.317,4.82 4.531,3.836 L 2.375,3.43 C 2.224,3.956 1.94,4.372 1.523,4.676 1.106,4.98 0.585,5.133 -0.039,5.133 c -0.945,0 -1.698,-0.3 -2.256,-0.901 -0.558,-0.601 -0.838,-1.492 -0.838,-2.674 0,-1.274 0.284,-2.23 0.85,-2.868 0.566,-0.637 1.309,-0.956 2.227,-0.956 0.454,0 0.909,0.089 1.365,0.266 0.457,0.177 0.848,0.393 1.176,0.645 V 0 H 0"
         style="fill:#231f20;fill-opacity:1;fill-rule:nonzero;stroke:none"
         transform="matrix(1.3333333,0,0,-1.3333333,181.81733,24.704)" />
      <path
         id="path8"
         d="m 0,0 v 10.742 h 3.243 l 1.941,-7.328 1.925,7.328 h 3.25 V 0 H 8.352 L 8.348,8.456 6.213,0 H 4.126 L 2.012,8.456 2.008,0 H 0"
         style="fill:#231f20;fill-opacity:1;fill-rule:nonzero;stroke:none"
         transform="matrix(1.3333333,0,0,-1.3333333,107.34667,53.954667)" />
      <path
         id="path9"
         d="M 0,0 V 10.742 H 7.953 V 8.922 H 2.172 V 6.547 H 7.547 V 4.726 H 2.172 V 1.82 H 8.156 V 0 H 0"
         style="fill:#231f20;fill-opacity:1;fill-rule:nonzero;stroke:none"
         transform="matrix(1.3333333,0,0,-1.3333333,124.048,53.954667)" />
      <path
         id="path10"
         d="M 0,0 H 1.602 C 2.64,0 3.29,0.044 3.548,0.132 3.806,0.22 4.009,0.372 4.155,0.586 4.302,0.801 4.375,1.07 4.375,1.393 4.375,1.754 4.278,2.046 4.086,2.269 3.893,2.491 3.621,2.631 3.27,2.69 3.095,2.714 2.568,2.727 1.69,2.727 H 0 Z M -2.172,-6.195 V 4.547 H 2.39 C 3.538,4.547 4.372,4.45 4.891,4.257 5.412,4.064 5.828,3.721 6.14,3.227 6.453,2.734 6.609,2.17 6.609,1.535 6.609,0.729 6.373,0.063 5.9,-0.462 5.428,-0.987 4.721,-1.318 3.781,-1.455 4.249,-1.729 4.636,-2.029 4.94,-2.357 5.245,-2.684 5.656,-3.265 6.174,-4.1 l 1.31,-2.095 H 4.891 L 3.327,-3.857 C 2.77,-3.021 2.388,-2.496 2.183,-2.279 1.978,-2.062 1.762,-1.912 1.531,-1.832 1.302,-1.752 0.937,-1.711 0.439,-1.711 H 0 v -4.484 h -2.172"
         style="fill:#231f20;fill-opacity:1;fill-rule:nonzero;stroke:none"
         transform="matrix(1.3333333,0,0,-1.3333333,140.284,45.693333)" />
      <path
         id="path11"
         d="M 0,0 -1.487,3.977 -2.936,0 Z M 3.986,-4.258 H 1.627 l -0.93,2.438 h -4.296 l -0.889,-2.438 h -2.3 l 4.173,10.742 h 2.304 L 3.986,-4.258"
         style="fill:#231f20;fill-opacity:1;fill-rule:nonzero;stroke:none"
         transform="matrix(1.3333333,0,0,-1.3333333,159.412,48.277333)" />
      <path
         id="path12"
         d="M 0,0 V 10.742 H 2.172 V 6.516 h 4.242 v 4.226 H 8.586 V 0 H 6.414 V 4.695 H 2.172 L 2.172,0 H 0"
         style="fill:#231f20;fill-opacity:1;fill-rule:nonzero;stroke:none"
         transform="matrix(1.3333333,0,0,-1.3333333,166.27467,53.954667)" />
      <path
         id="path13"
         d="m 80.463,11.799 h 2.1718 V 22.541 H 80.463 Z"
         style="fill:#231f20;fill-opacity:1;fill-rule:nonzero;stroke:none"
         transform="matrix(1.3333333,0,0,-1.3333333,0,93.686667)" />
      <path
         id="path14"
         d="M 0,0 V 10.742 H 2.104 L 6.508,3.551 v 7.191 H 8.516 V 0 H 6.347 L 2.008,7.039 V 0 H 0"
         style="fill:#231f20;fill-opacity:1;fill-rule:nonzero;stroke:none"
         transform="matrix(1.3333333,0,0,-1.3333333,112.96667,77.954667)" />
      <path
         id="path15"
         d="m 0,0 v -7.102 h 1.619 c 0.606,0 1.043,0.036 1.312,0.104 0.351,0.088 0.643,0.236 0.876,0.445 0.231,0.209 0.421,0.555 0.567,1.035 0.147,0.481 0.22,1.135 0.22,1.963 0,0.83 -0.073,1.465 -0.22,1.91 -0.146,0.444 -0.351,0.79 -0.615,1.039 C 3.495,-0.357 3.16,-0.189 2.755,-0.102 2.452,-0.033 1.858,0 0.975,0 Z M -2.172,1.82 H 1.79 C 2.684,1.82 3.364,1.752 3.833,1.615 4.463,1.43 5.002,1.1 5.451,0.627 5.901,0.152 6.242,-0.428 6.477,-1.113 6.711,-1.801 6.828,-2.646 6.828,-3.652 6.828,-4.537 6.719,-5.299 6.498,-5.939 6.231,-6.721 5.847,-7.354 5.349,-7.838 4.973,-8.203 4.465,-8.488 3.826,-8.693 3.348,-8.846 2.708,-8.922 1.907,-8.922 H -2.172 V 1.82"
         style="fill:#231f20;fill-opacity:1;fill-rule:nonzero;stroke:none"
         transform="matrix(1.3333333,0,0,-1.3333333,130.26267,66.058667)" />
      <path
         id="path16"
         d="m 0,0 c 0,-1.217 0.281,-2.139 0.843,-2.766 0.562,-0.627 1.275,-0.941 2.141,-0.941 0.865,0 1.575,0.312 2.129,0.933 0.555,0.624 0.833,1.557 0.833,2.803 0,1.231 -0.27,2.149 -0.811,2.754 C 4.596,3.389 3.878,3.691 2.984,3.691 2.089,3.691 1.368,3.385 0.822,2.772 0.274,2.16 0,1.236 0,0 Z m -2.234,-0.074 c 0,1.093 0.164,2.011 0.49,2.754 0.244,0.546 0.578,1.037 1,1.472 0.422,0.434 0.885,0.756 1.388,0.967 0.669,0.283 1.44,0.424 2.314,0.424 1.582,0 2.848,-0.49 3.797,-1.471 C 7.705,3.09 8.18,1.726 8.18,-0.021 8.18,-1.756 7.709,-3.111 6.767,-4.09 5.824,-5.068 4.565,-5.559 2.988,-5.559 c -1.597,0 -2.867,0.489 -3.809,1.461 -0.942,0.975 -1.413,2.317 -1.413,4.024"
         style="fill:#231f20;fill-opacity:1;fill-rule:nonzero;stroke:none"
         transform="matrix(1.3333333,0,0,-1.3333333,144.20533,70.782667)" />
      <path
         id="path17"
         d="M 0,0 V 10.742 H 2.103 L 6.507,3.551 v 7.191 H 8.515 V 0 H 6.346 L 2.007,7.039 V 0 H 0"
         style="fill:#231f20;fill-opacity:1;fill-rule:nonzero;stroke:none"
         transform="matrix(1.3333333,0,0,-1.3333333,157.40933,77.954667)" />
      <path
         id="path18"
         d="M 0,0 V 10.742 H 7.953 V 8.922 H 2.172 V 6.547 H 7.547 V 4.727 H 2.172 V 1.82 H 8.156 V 0 H 0"
         style="fill:#231f20;fill-opacity:1;fill-rule:nonzero;stroke:none"
         transform="matrix(1.3333333,0,0,-1.3333333,171.83067,77.954667)" />
      <path
         id="path19"
         d="m 0,0 2.11,0.203 c 0.127,-0.707 0.384,-1.227 0.772,-1.557 0.389,-0.332 0.912,-0.498 1.571,-0.498 0.699,0 1.225,0.149 1.579,0.444 0.354,0.295 0.531,0.64 0.531,1.035 0,0.254 -0.074,0.469 -0.224,0.646 C 6.191,0.451 5.931,0.607 5.56,0.738 5.306,0.826 4.728,0.982 3.825,1.207 2.663,1.496 1.848,1.85 1.379,2.269 0.72,2.861 0.391,3.582 0.391,4.432 c 0,0.547 0.155,1.059 0.465,1.536 0.31,0.476 0.758,0.839 1.342,1.089 C 2.782,7.306 3.486,7.43 4.312,7.43 5.66,7.43 6.675,7.135 7.357,6.543 8.037,5.951 8.396,5.16 8.43,4.172 L 6.258,4.078 C 6.165,4.631 5.966,5.028 5.66,5.269 5.356,5.512 4.897,5.633 4.286,5.633 3.657,5.633 3.162,5.504 2.806,5.244 2.576,5.078 2.461,4.855 2.461,4.578 2.461,4.323 2.569,4.105 2.784,3.926 3.057,3.695 3.722,3.455 4.778,3.207 5.832,2.957 6.613,2.701 7.118,2.434 7.624,2.168 8.02,1.805 8.306,1.344 8.592,0.883 8.735,0.314 8.735,-0.365 8.735,-0.979 8.564,-1.555 8.222,-2.092 7.879,-2.629 7.396,-3.027 6.771,-3.287 6.146,-3.549 5.367,-3.68 4.434,-3.68 3.076,-3.68 2.033,-3.365 1.305,-2.738 0.576,-2.113 0.142,-1.199 0,0"
         style="fill:#231f20;fill-opacity:1;fill-rule:nonzero;stroke:none"
         transform="matrix(1.3333333,0,0,-1.3333333,184.42133,73.297333)" />
      <path
         id="path20"
         d="m 148.805,11.799 h 2.171 v 10.742 h -2.171 z"
         style="fill:#231f20;fill-opacity:1;fill-rule:nonzero;stroke:none"
         transform="matrix(1.3333333,0,0,-1.3333333,0,93.686667)" />
      <path
         id="path21"
         d="M 0,0 -1.487,3.977 -2.936,0 Z M 3.986,-4.258 H 1.627 l -0.93,2.438 h -4.296 l -0.889,-2.438 h -2.3 l 4.173,10.742 h 2.304 L 3.986,-4.258"
         style="fill:#231f20;fill-opacity:1;fill-rule:nonzero;stroke:none"
         transform="matrix(1.3333333,0,0,-1.3333333,211.64933,72.277333)"
         clip-path="url(#clipPath22)" />
      <path
         id="path23"
         d="M 0,0 H -11.353 V 11.353 H -22.705 V 0 h -11.353 v -11.353 h 11.353 v -11.352 h 11.352 v 11.352 H 0 L 0,0"
         style="fill:#ed1c24;fill-opacity:1;fill-rule:evenodd;stroke:none"
         transform="matrix(1.3333333,0,0,-1.3333333,70.749333,41.444)" />
      <path
         id="path24"
         d="m 0,0 c -6.329,0 -11.87,-3.967 -13.788,-9.871 -2.245,-6.904 0.894,-14.441 7.3,-17.529 l 1.37,-0.662 -0.679,-1.36 c -3.1995,-6.405 -1.392,-14.054 4.297,-18.187 2.541,-1.847 5.532,-2.823 8.646,-2.823 3.946,0 7.598,1.545 10.283,4.35 l 1.051,1.099 1.084,-1.067 c 2.731,-2.688 6.489,-4.229 10.31,-4.229 0.001,0 0.001,0 0.001,0 3.013,0 5.889,0.931 8.315,2.695 5.873,4.267 7.763,12.209 4.396,18.474 l -0.72,1.339 1.35,0.702 c 6.354,3.299 9.388,10.55 7.214,17.24 -1.966,6.05 -7.478,10.115 -13.718,10.115 -0.832,0 -1.67,-0.076 -2.492,-0.224 l -1.496,-0.271 -0.25,1.5 C 31.297,8.353 25.338,13.479 18.306,13.479 11.045,13.479 4.848,8.165 3.891,1.118 L 3.686,-0.389 2.182,-0.163 C 1.462,-0.055 0.728,0 0,0 Z m 7.146,-53.432 c -3.752,0 -7.352,1.174 -10.409,3.395 -6.4904,4.716 -8.811,13.198 -5.817,20.626 -6.875,4.083 -10.113,12.618 -7.562,20.467 C -14.321,-1.8 -7.6328,3 0,3 0.392,3 0.785,2.987 1.177,2.96 c 1.757,7.802 8.874,13.519 17.129,13.519 8.022,0 14.885,-5.498 16.83,-13.267 0.525,0.049 1.051,0.074 1.576,0.074 7.543,0 14.203,-4.898 16.572,-12.188 2.479,-7.631 -0.629,-15.858 -7.419,-20.106 3.163,-7.345 0.765,-16.152 -5.911,-21.004 -2.943,-2.137 -6.428,-3.267 -10.078,-3.267 -0.001,0 -0.002,0 -0.002,0 -4.117,-10e-4 -8.171,1.484 -11.334,4.113 -3.109,-2.726 -7.185,-4.266 -11.394,-4.266"
         style="fill:#ed1c24;fill-opacity:1;fill-rule:nonzero;stroke:none"
         transform="matrix(1.3333333,0,0,-1.3333333,23.346667,21.972)"
         clip-path="url(#clipPath25)" />
    </g>
  </g>
</svg>
