<?xml version="1.0" encoding="utf-8"?>
<!-- Generator: Adobe Illustrator 16.0.0, SVG Export Plug-In . SVG Version: 6.00 Build 0)  -->
<!DOCTYPE svg PUBLIC "-//W3C//DTD SVG 1.1//EN" "http://www.w3.org/Graphics/SVG/1.1/DTD/svg11.dtd">
<svg version="1.1" id="Layer_1" xmlns="http://www.w3.org/2000/svg" xmlns:xlink="http://www.w3.org/1999/xlink" x="0px" y="0px"
	 width="241.176px" height="35.734px" viewBox="0 0 241.176 35.734" enable-background="new 0 0 241.176 35.734"
	 xml:space="preserve">
<g>
	<rect x="11.591" y="0.803" fill="#EC1C24" width="11.591" height="34.775"/>
	<rect y="12.393" fill="#EC1C24" width="34.773" height="11.592"/>
	<path fill="#231F20" d="M241.176,5.792c0-1.057-0.205-1.823-0.604-2.287c-0.406-0.47-1.067-0.705-1.978-0.705
		c-0.697,0-1.397,0.119-2.093,0.336v1.605c0.519-0.36,1.101-0.542,1.798-0.542c0.852,0,1.247,0.302,1.247,0.968v0.164h-0.952
		c-1.746,0-2.533,0.696-2.533,2.244c0,0.635,0.158,1.154,0.488,1.557c0.323,0.381,0.747,0.576,1.278,0.576
		c0.772,0,1.28-0.342,1.719-1.14v0.974h1.63V5.792 M239.546,6.828c0,0.43-0.1,0.783-0.307,1.072
		c-0.207,0.283-0.468,0.424-0.769,0.424c-0.492,0-0.781-0.316-0.781-0.854c0-0.586,0.345-0.885,1.018-0.885h0.839V6.828z
		 M233.65,2.112h1.608v-1.72h-1.608V2.112z M233.65,9.439c0,0.523-0.059,0.878-0.178,1.061c-0.113,0.184-0.317,0.271-0.625,0.271
		h-0.274v1.382h0.786c1.234,0,1.899-0.952,1.899-2.714V2.958h-1.608V9.439z M229.571,6.468v-3.51h-1.603v6.597h1.668l1.631-3.513
		v3.513h1.604V2.958h-1.665L229.571,6.468z M223.591,9.555V6.767h1.599v2.788h1.611V2.958h-1.611v2.506h-1.599V2.958h-1.61v6.597
		H223.591z M218.21,2.801c-0.866,0-1.547,0.307-2.041,0.918c-0.489,0.611-0.737,1.457-0.737,2.539s0.248,1.928,0.737,2.539
		c0.494,0.611,1.175,0.912,2.041,0.912c0.87,0,1.547-0.301,2.035-0.912c0.485-0.611,0.731-1.457,0.731-2.539
		s-0.246-1.927-0.731-2.539C219.757,3.108,219.08,2.801,218.21,2.801z M218.21,4.308c0.705,0,1.083,0.688,1.083,1.949
		c0,1.263-0.378,1.949-1.083,1.949c-0.717,0-1.095-0.687-1.095-1.949C217.115,4.996,217.493,4.308,218.21,4.308z M210.881,8.044
		c0.245-0.823,0.37-1.955,0.37-3.397V4.465h1.149v3.58H210.881z M208.436,11.21h1.151V9.55h4.106v1.66h1.15V8.044h-0.832V2.958
		h-4.365v1.247c0,1.419-0.071,2.373-0.217,2.873c-0.142,0.498-0.385,0.82-0.725,0.967h-0.27V11.21z M203.878,5.537
		c0.101-0.865,0.506-1.337,1.129-1.337c0.287,0,0.519,0.123,0.699,0.372c0.177,0.241,0.271,0.567,0.271,0.966H203.878z
		 M207.631,6.24c0-1.044-0.24-1.882-0.72-2.505c-0.47-0.623-1.104-0.934-1.897-0.934c-0.871,0-1.554,0.305-2.048,0.922
		c-0.495,0.617-0.747,1.461-0.747,2.54c0,1.093,0.252,1.941,0.754,2.547c0.506,0.605,1.217,0.898,2.135,0.898
		c0.758,0,1.522-0.189,2.283-0.564v-1.62c-0.748,0.535-1.455,0.792-2.137,0.792c-0.842,0-1.313-0.492-1.388-1.477h3.765V6.24z
		 M197.98,9.555V7.392l0.455-0.564l1.619,2.728h1.666l-2.326-3.919l2.148-2.678h-1.766l-1.797,2.23v-2.23h-1.608v6.597H197.98z
		 M195.241,5.792c0-1.057-0.205-1.823-0.604-2.287c-0.406-0.47-1.068-0.705-1.978-0.705c-0.697,0-1.397,0.119-2.093,0.336v1.605
		c0.518-0.36,1.101-0.542,1.798-0.542c0.852,0,1.247,0.302,1.247,0.968v0.164h-0.952c-1.746,0-2.533,0.696-2.533,2.244
		c0,0.635,0.158,1.154,0.488,1.557c0.323,0.381,0.747,0.576,1.278,0.576c0.772,0,1.28-0.342,1.719-1.14v0.974h1.63V5.792z
		 M193.611,6.828c0,0.43-0.1,0.783-0.307,1.072c-0.207,0.283-0.469,0.424-0.77,0.424c-0.491,0-0.78-0.316-0.78-0.854
		c0-0.586,0.345-0.885,1.017-0.885h0.84V6.828z M183.471,9.555V3.122l1.541,4.743h1.1l1.55-4.743v6.433h1.639V0.764h-2.2
		l-1.541,4.702l-1.531-4.702h-2.207v8.791H183.471z M177.271,5.792c0-1.057-0.205-1.823-0.604-2.287
		c-0.405-0.47-1.067-0.705-1.978-0.705c-0.696,0-1.397,0.119-2.092,0.336v1.605c0.518-0.36,1.101-0.542,1.797-0.542
		c0.853,0,1.248,0.302,1.248,0.968v0.164h-0.953c-1.746,0-2.532,0.696-2.532,2.244c0,0.635,0.159,1.154,0.487,1.557
		c0.324,0.381,0.748,0.576,1.278,0.576c0.773,0,1.282-0.342,1.72-1.14v0.974h1.629V5.792z M175.643,6.828
		c0,0.43-0.101,0.783-0.308,1.072c-0.207,0.283-0.468,0.424-0.769,0.424c-0.49,0-0.78-0.316-0.78-0.854
		c0-0.586,0.344-0.885,1.017-0.885h0.84V6.828z M167.958,9.555V7.392l0.454-0.564l1.619,2.728h1.666l-2.325-3.919l2.147-2.678
		h-1.766l-1.796,2.23v-2.23h-1.608v6.597H167.958z M161.85,6.468v-3.51h-1.604v6.597h1.668l1.631-3.513v3.513h1.604V2.958h-1.664
		L161.85,6.468z M153.611,9.555c1.184,0,1.986-0.513,2.41-1.532c0.205-0.501,0.307-1.613,0.307-3.342V4.465h1.139v5.09h1.609V2.958
		h-4.352v1.077c0,1.724-0.049,2.761-0.137,3.11c-0.123,0.46-0.445,0.761-0.977,0.901V9.555z M150.168,4.308
		c0.705,0,1.096,0.688,1.096,1.949c0,1.263-0.391,1.949-1.096,1.949c-0.699,0-1.087-0.687-1.087-1.949
		C149.081,4.996,149.469,4.308,150.168,4.308z M147.393,5.893c0,0.094,0.006,0.217,0.006,0.364c0,1.082,0.242,1.928,0.734,2.539
		c0.494,0.611,1.172,0.912,2.041,0.912c0.87,0,1.553-0.301,2.035-0.912c0.488-0.611,0.729-1.457,0.729-2.539
		s-0.246-1.927-0.734-2.539c-0.482-0.611-1.165-0.918-2.029-0.918c-0.664,0-1.212,0.177-1.654,0.536
		c0.025-0.582,0.213-1.03,0.562-1.342c0.211-0.188,0.575-0.311,1.087-0.371c1.165-0.135,1.864-0.241,2.1-0.318L151.904,0
		c-0.172,0.035-0.33,0.059-0.482,0.077c-1.471,0.153-2.383,0.311-2.74,0.47c-0.425,0.189-0.802,0.747-1.129,1.671
		c-0.176,0.501-0.258,1.136-0.258,1.907c0,0.265,0.021,0.522,0.07,0.789L147.393,5.893z M143.23,9.987
		c-0.076,0.294-0.17,0.501-0.295,0.613c-0.129,0.11-0.323,0.171-0.601,0.171h-0.501v1.382h0.938c0.466,0,0.828-0.146,1.119-0.44
		c0.282-0.289,0.529-0.801,0.746-1.539l2.12-7.215h-1.614l-1.146,4.476l-1.359-4.476h-1.613l2.248,6.847L143.23,9.987z
		 M135.747,9.555h1.608v-5.09h1.6v5.09h1.611V2.958h-4.819V9.555z M131.027,5.537c0.101-0.865,0.507-1.337,1.13-1.337
		c0.286,0,0.519,0.123,0.698,0.372c0.178,0.241,0.271,0.567,0.271,0.966H131.027z M134.781,6.24c0-1.044-0.242-1.882-0.721-2.505
		c-0.47-0.623-1.104-0.934-1.897-0.934c-0.87,0-1.554,0.305-2.047,0.922c-0.495,0.617-0.748,1.461-0.748,2.54
		c0,1.093,0.253,1.941,0.754,2.547c0.506,0.605,1.217,0.898,2.135,0.898c0.759,0,1.523-0.189,2.282-0.564v-1.62
		c-0.747,0.535-1.454,0.792-2.135,0.792c-0.842,0-1.313-0.492-1.389-1.477h3.766V6.24z M126.049,2.403
		c0.678,0,1.059,0.442,1.059,1.228c0,0.783-0.381,1.231-1.059,1.231h-0.953V2.403H126.049z M125.096,9.555V6.501h1.143
		c1.712,0,2.654-1.028,2.654-2.871c0-1.838-0.942-2.867-2.654-2.867h-2.879v8.791H125.096z M118.972,5.792
		c0-1.057-0.205-1.823-0.605-2.287c-0.406-0.47-1.067-0.705-1.977-0.705c-0.697,0-1.398,0.119-2.093,0.336v1.605
		c0.518-0.36,1.1-0.542,1.798-0.542c0.852,0,1.247,0.302,1.247,0.968v0.164h-0.952c-1.746,0-2.534,0.696-2.534,2.244
		c0,0.635,0.159,1.154,0.489,1.557c0.323,0.381,0.747,0.576,1.277,0.576c0.774,0,1.282-0.342,1.72-1.14v0.974h1.63V5.792z
		 M117.342,6.828c0,0.43-0.1,0.783-0.307,1.072c-0.207,0.283-0.468,0.424-0.77,0.424c-0.49,0-0.779-0.316-0.779-0.854
		c0-0.586,0.343-0.885,1.016-0.885h0.84V6.828z M109.923,9.555V6.767h1.599v2.788h1.611V2.958h-1.611v2.506h-1.599V2.958h-1.609
		v6.597H109.923z M100.758,4.26v5.295h1.607V4.26h1.824V2.958h-5.268V4.26H100.758z M98.517,3.167
		c-0.506-0.241-1.018-0.366-1.542-0.366c-0.913,0-1.626,0.307-2.138,0.918c-0.518,0.605-0.772,1.453-0.772,2.541
		c0,1.089,0.254,1.936,0.772,2.547c0.512,0.602,1.225,0.902,2.138,0.902c0.518,0,1.042-0.125,1.542-0.359V7.625
		c-0.377,0.385-0.841,0.582-1.342,0.582c-0.902,0-1.432-0.723-1.432-1.951s0.53-1.954,1.432-1.954c0.47,0,0.906,0.183,1.342,0.577
		V3.163V3.167z M90.809,4.324c0.693,0,1.063,0.677,1.063,1.931c0,1.252-0.37,1.928-1.063,1.928c-0.689,0-1.071-0.682-1.071-1.928
		C89.738,5.007,90.12,4.324,90.809,4.324z M89.738,8.595c0.442,0.77,0.97,1.117,1.67,1.117c0.616,0,1.129-0.317,1.53-0.961
		c0.4-0.646,0.601-1.477,0.601-2.494c0-1.02-0.201-1.849-0.601-2.492c-0.401-0.647-0.914-0.964-1.53-0.964
		c-0.7,0-1.228,0.348-1.67,1.119V2.958h-1.609v9.092h1.609V8.589V8.595z M83.446,9.555V7.392L83.9,6.828l1.619,2.728h1.665
		L84.86,5.636l2.148-2.678h-1.766l-1.796,2.23v-2.23h-1.61v6.597H83.446z M74.27,9.555V6.767h1.6v2.788h1.611V2.958H75.87v2.506
		h-1.6V2.958h-1.609v6.597H74.27z M67.942,5.537c0.1-0.865,0.506-1.337,1.129-1.337c0.287,0,0.518,0.123,0.699,0.372
		c0.177,0.241,0.271,0.567,0.271,0.966H67.942z M71.695,6.24c0-1.044-0.241-1.882-0.72-2.505c-0.47-0.623-1.105-0.934-1.898-0.934
		c-0.87,0-1.553,0.305-2.047,0.922c-0.495,0.617-0.748,1.461-0.748,2.54c0,1.093,0.253,1.941,0.754,2.547
		c0.506,0.605,1.217,0.898,2.135,0.898c0.758,0,1.523-0.189,2.283-0.564v-1.62c-0.748,0.535-1.455,0.792-2.136,0.792
		c-0.842,0-1.312-0.492-1.388-1.477h3.765V6.24z M63.482,9.55c1.424,0,2.115-0.615,2.115-1.887c0-0.838-0.339-1.431-0.932-1.642
		c0.464-0.217,0.715-0.679,0.715-1.321c0-0.606-0.162-1.048-0.498-1.325c-0.333-0.276-0.874-0.418-1.625-0.418h-2.309V9.55H63.482z
		 M62.552,6.755h0.823c0.478,0,0.722,0.242,0.722,0.734c0,0.498-0.244,0.748-0.722,0.748h-0.823V6.755z M62.552,4.26h0.769
		c0.374,0,0.569,0.192,0.569,0.588c0,0.394-0.195,0.593-0.569,0.593h-0.769V4.26z M57.218,4.324c0.693,0,1.062,0.677,1.062,1.931
		c0,1.252-0.369,1.928-1.062,1.928c-0.69,0-1.071-0.682-1.071-1.928C56.147,5.007,56.528,4.324,57.218,4.324z M56.147,8.595
		c0.442,0.77,0.97,1.117,1.669,1.117c0.617,0,1.129-0.317,1.531-0.961c0.4-0.646,0.601-1.477,0.601-2.494
		c0-1.02-0.201-1.849-0.601-2.492c-0.402-0.647-0.914-0.964-1.531-0.964c-0.699,0-1.227,0.348-1.669,1.119V2.958h-1.61v9.092h1.61
		V8.589V8.595z M53.529,11.434V7.839H52.4V0.764h-1.73v7.075h-2.561V0.764h-1.736V9.55h5.844v1.884H53.529z"/>
	<path fill="#231F20" d="M237.247,18.591c0.101-0.864,0.508-1.336,1.131-1.336c0.289,0,0.519,0.123,0.699,0.371
		c0.177,0.242,0.271,0.564,0.271,0.965H237.247 M241.002,19.292c0-1.043-0.24-1.879-0.719-2.502
		c-0.471-0.625-1.105-0.936-1.898-0.936c-0.871,0-1.556,0.305-2.05,0.924s-0.747,1.461-0.747,2.537c0,1.096,0.253,1.947,0.753,2.555
		c0.507,0.606,1.22,0.899,2.138,0.899c0.758,0,1.522-0.187,2.283-0.565v-1.623c-0.75,0.535-1.455,0.795-2.137,0.795
		c-0.84,0-1.313-0.496-1.388-1.483h3.765V19.292z M239.754,14.73v-1.449h-1.052l-0.006,1.445L239.754,14.73z M236.926,14.73h1.059
		v-1.449h-1.059V14.73z M234.374,16.222c-0.767-0.251-1.407-0.363-2.001-0.363c-1.52,0-2.238,0.663-2.238,2.057
		c0,0.647,0.141,1.129,0.43,1.446c0.289,0.318,0.795,0.535,1.509,0.653l0.288,0.047c0.322,0.055,0.541,0.124,0.652,0.219
		c0.112,0.088,0.164,0.229,0.164,0.418c0,0.445-0.322,0.676-0.945,0.676c-0.695,0-1.379-0.205-2.021-0.611v1.597
		c0.749,0.269,1.46,0.406,2.127,0.406c1.578,0,2.371-0.699,2.371-2.104c0-0.67-0.141-1.164-0.43-1.476
		c-0.281-0.312-0.842-0.524-1.665-0.677l-0.276-0.053c-0.584-0.113-0.777-0.254-0.777-0.588c0-0.418,0.287-0.611,0.906-0.611
		c0.565,0,1.219,0.187,1.907,0.564V16.222z M227.771,15.169h1.607v-1.719h-1.607V15.169z M227.771,22.613h1.607v-6.598h-1.607
		V22.613z M226.93,18.593c0-1.786-0.617-2.734-1.774-2.734c-0.659,0-1.193,0.348-1.675,1.119v-0.963h-1.609v6.598h1.609v-3.248
		c0-1.201,0.406-1.921,1.076-1.921c0.275,0,0.498,0.158,0.629,0.437c0.041,0.1,0.076,0.259,0.101,0.478
		c0.017,0.218,0.028,0.606,0.028,1.177v3.078h1.615V18.593z M218.098,15.859c-0.867,0-1.548,0.307-2.041,0.918
		c-0.49,0.611-0.738,1.456-0.738,2.537c0,1.083,0.248,1.93,0.738,2.54c0.493,0.61,1.174,0.912,2.041,0.912
		c0.869,0,1.547-0.302,2.034-0.912c0.485-0.61,0.732-1.457,0.732-2.54c0-1.081-0.247-1.926-0.732-2.537
		C219.645,16.166,218.967,15.859,218.098,15.859z M218.098,17.365c0.705,0,1.082,0.688,1.082,1.949c0,1.264-0.377,1.951-1.082,1.951
		c-0.718,0-1.096-0.688-1.096-1.951C217.002,18.052,217.38,17.365,218.098,17.365z M211.879,21.242c-0.677,0-1.055-0.676-1.055-1.93
		c0-1.251,0.378-1.928,1.055-1.928c0.701,0,1.067,0.677,1.067,1.928C212.946,20.566,212.58,21.242,211.879,21.242z M212.946,16.984
		c-0.442-0.771-0.968-1.125-1.669-1.125c-0.618,0-1.129,0.323-1.528,0.971c-0.394,0.643-0.594,1.473-0.594,2.49
		c0,1.02,0.2,1.852,0.594,2.497c0.399,0.632,0.91,0.949,1.528,0.949c0.707,0,1.227-0.343,1.669-1.119v0.954h1.62v-9.148h-1.62
		V16.984z M204.949,18.595c0.101-0.866,0.506-1.338,1.129-1.338c0.288,0,0.52,0.121,0.699,0.371
		c0.177,0.242,0.271,0.566,0.271,0.967H204.949z M208.702,19.296c0-1.043-0.241-1.881-0.72-2.504
		c-0.469-0.623-1.104-0.934-1.898-0.934c-0.87,0-1.553,0.305-2.047,0.922s-0.747,1.461-0.747,2.539c0,1.094,0.253,1.943,0.753,2.549
		c0.506,0.604,1.219,0.897,2.137,0.897c0.756,0,1.521-0.188,2.281-0.565v-1.619c-0.747,0.535-1.455,0.793-2.136,0.793
		c-0.841,0-1.312-0.494-1.388-1.478h3.765V19.296z M202.18,25.108v-9.089l-1.621-0.004v0.973c-0.441-0.775-0.959-1.117-1.666-1.117
		c-0.619,0-1.129,0.317-1.529,0.959c-0.395,0.643-0.596,1.467-0.596,2.484c0,1.02,0.201,1.85,0.596,2.495
		c0.4,0.644,0.91,0.961,1.529,0.961c0.707,0,1.225-0.343,1.666-1.117v3.455H202.18z M199.492,17.384c0.701,0,1.066,0.677,1.066,1.93
		c0,1.254-0.365,1.932-1.066,1.932c-0.678,0-1.055-0.678-1.055-1.932c0-1.249,0.377-1.925,1.055-1.925V17.384z M196.051,18.85
		c0-1.058-0.205-1.822-0.604-2.286c-0.406-0.471-1.067-0.705-1.978-0.705c-0.697,0-1.398,0.118-2.094,0.335v1.604
		c0.52-0.358,1.102-0.541,1.798-0.541c0.853,0,1.248,0.301,1.248,0.968v0.165h-0.952c-1.746,0-2.533,0.695-2.533,2.242
		c0,0.637,0.158,1.154,0.488,1.557c0.323,0.382,0.747,0.577,1.277,0.577c0.773,0,1.281-0.343,1.72-1.14v0.975h1.63V18.85z
		 M194.421,19.884c0,0.431-0.1,0.783-0.307,1.074c-0.207,0.283-0.468,0.422-0.771,0.422c-0.49,0-0.779-0.316-0.779-0.853
		c0-0.585,0.344-0.884,1.017-0.884h0.84V19.884z M184.389,22.613V16.18l1.541,4.741h1.102l1.549-4.741v6.433h1.641v-8.791h-2.201
		l-1.541,4.703l-1.53-4.703h-2.208v8.791H184.389z M174.598,18.591c0.101-0.864,0.508-1.336,1.131-1.336
		c0.289,0,0.519,0.123,0.699,0.371c0.176,0.242,0.271,0.564,0.271,0.965H174.598z M178.352,19.292c0-1.043-0.24-1.879-0.719-2.502
		c-0.47-0.625-1.105-0.936-1.898-0.936c-0.87,0-1.555,0.305-2.049,0.924s-0.748,1.461-0.748,2.537c0,1.096,0.254,1.947,0.754,2.555
		c0.507,0.606,1.22,0.899,2.138,0.899c0.757,0,1.522-0.187,2.282-0.565v-1.623c-0.749,0.535-1.454,0.795-2.135,0.795
		c-0.84,0-1.313-0.496-1.39-1.483h3.765V19.292z M177.105,14.73v-1.449h-1.053l-0.007,1.445L177.105,14.73z M174.275,14.73h1.06
		v-1.449h-1.06V14.73z M171.725,16.222c-0.766-0.251-1.406-0.363-2.002-0.363c-1.519,0-2.238,0.663-2.238,2.057
		c0,0.647,0.142,1.129,0.431,1.446c0.289,0.318,0.795,0.535,1.509,0.653l0.287,0.047c0.323,0.055,0.542,0.124,0.653,0.219
		c0.112,0.088,0.165,0.229,0.165,0.418c0,0.445-0.324,0.676-0.947,0.676c-0.695,0-1.378-0.205-2.021-0.611v1.597
		c0.75,0.269,1.461,0.406,2.129,0.406c1.576,0,2.369-0.699,2.369-2.104c0-0.67-0.14-1.164-0.429-1.476
		c-0.282-0.312-0.842-0.524-1.666-0.677l-0.274-0.053c-0.586-0.113-0.778-0.254-0.778-0.588c0-0.418,0.288-0.611,0.905-0.611
		c0.565,0,1.219,0.187,1.908,0.564V16.222z M163.081,16.222c-0.767-0.251-1.405-0.363-2.001-0.363c-1.52,0-2.238,0.663-2.238,2.057
		c0,0.647,0.141,1.129,0.43,1.446c0.289,0.318,0.795,0.535,1.51,0.653l0.287,0.047c0.322,0.055,0.541,0.124,0.652,0.219
		c0.112,0.088,0.166,0.229,0.166,0.418c0,0.445-0.324,0.676-0.947,0.676c-0.695,0-1.379-0.205-2.021-0.611v1.597
		c0.75,0.269,1.461,0.406,2.128,0.406c1.577,0,2.37-0.699,2.37-2.104c0-0.67-0.141-1.164-0.429-1.476
		c-0.282-0.312-0.843-0.524-1.666-0.677l-0.275-0.053c-0.585-0.113-0.778-0.254-0.778-0.588c0-0.418,0.289-0.611,0.906-0.611
		c0.565,0,1.219,0.187,1.907,0.564V16.222z M154.557,18.591c0.101-0.864,0.508-1.336,1.131-1.336c0.289,0,0.519,0.123,0.699,0.371
		c0.176,0.242,0.271,0.564,0.271,0.965H154.557z M158.311,19.292c0-1.043-0.24-1.879-0.719-2.502
		c-0.47-0.625-1.104-0.936-1.898-0.936c-0.87,0-1.555,0.305-2.049,0.924s-0.748,1.461-0.748,2.537c0,1.096,0.254,1.947,0.754,2.555
		c0.507,0.606,1.22,0.899,2.138,0.899c0.757,0,1.522-0.187,2.282-0.565v-1.623c-0.749,0.535-1.454,0.795-2.135,0.795
		c-0.84,0-1.313-0.496-1.39-1.483h3.765V19.292z M157.064,14.73v-1.449h-1.053l-0.007,1.445L157.064,14.73z M154.234,14.73h1.06
		v-1.449h-1.06V14.73z M148.928,22.613v-2.752l1.965,2.752h1.953l-2.654-3.572l2.461-3.025h-1.871l-1.854,2.419v-4.983h-1.611v9.162
		H148.928z M144.51,15.169h1.607v-1.719h-1.607V15.169z M144.51,22.613h1.607v-6.598h-1.607V22.613z M142.049,22.613h1.607v-9.158
		h-1.607V22.613z M135.857,13.453v9.154h1.611V21.66c0.441,0.758,0.969,1.106,1.668,1.106c0.617,0,1.129-0.317,1.531-0.96
		c0.4-0.648,0.602-1.475,0.602-2.492c0-1.014-0.201-1.842-0.602-2.484c-0.402-0.647-0.914-0.971-1.531-0.971
		c-0.699,0-1.227,0.354-1.668,1.125v-3.531H135.857z M138.539,21.253c-0.689,0-1.07-0.684-1.07-1.934
		c0-1.246,0.381-1.931,1.07-1.931c0.693,0,1.063,0.678,1.063,1.931C139.602,20.576,139.232,21.253,138.539,21.253z M129.234,20.044
		c0,1.785,0.621,2.726,1.781,2.726c0.662,0,1.194-0.34,1.681-1.11v0.947h1.608v-6.592h-1.608v3.255c0,1.203-0.408,1.917-1.083,1.917
		c-0.277,0-0.496-0.152-0.633-0.43c-0.049-0.107-0.082-0.278-0.106-0.51c-0.024-0.234-0.03-0.617-0.03-1.148
		c0-0.184,0-0.542,0.006-1.079c0-0.542,0-0.989,0-1.349v-0.656h-1.615V20.044z M125.68,17.38c0.693,0,1.063,0.679,1.063,1.932
		c0,1.254-0.37,1.93-1.063,1.93c-0.688,0-1.07-0.682-1.07-1.93C124.609,18.065,124.991,17.38,125.68,17.38z M124.609,21.653
		c0.441,0.769,0.97,1.117,1.67,1.117c0.615,0,1.129-0.317,1.529-0.961c0.4-0.646,0.602-1.476,0.602-2.495
		c0-1.018-0.201-1.848-0.602-2.49c-0.4-0.648-0.914-0.965-1.529-0.965c-0.7,0-1.229,0.348-1.67,1.119v-0.963H123v9.093h1.609v-3.461
		V21.653z M118.373,18.595c0.1-0.866,0.506-1.338,1.129-1.338c0.287,0,0.518,0.121,0.699,0.371c0.177,0.242,0.271,0.566,0.271,0.967
		H118.373z M122.126,19.296c0-1.043-0.241-1.881-0.72-2.504c-0.47-0.623-1.105-0.934-1.898-0.934c-0.87,0-1.553,0.305-2.048,0.922
		c-0.494,0.617-0.747,1.461-0.747,2.539c0,1.094,0.253,1.943,0.754,2.549c0.506,0.604,1.217,0.897,2.135,0.897
		c0.757,0,1.523-0.188,2.283-0.565v-1.619c-0.748,0.535-1.455,0.793-2.136,0.793c-0.842,0-1.312-0.494-1.388-1.478h3.765V19.296z
		 M112.461,19.283c0.284,0,0.507,0.082,0.678,0.24c0.17,0.159,0.341,0.46,0.506,0.902l0.812,2.188h1.846l-0.94-2.501
		c-0.384-1.013-0.73-1.473-1.206-1.612c0.864-0.354,1.294-1.096,1.294-2.258c0-1.675-0.796-2.42-2.566-2.42h-2.646v8.791h1.734
		v-3.33H112.461z M111.973,15.46h0.73c0.719,0,1.018,0.317,1.018,1.119c0,0.807-0.299,1.135-1.018,1.135h-0.73V15.46z
		 M104.132,15.169h1.607v-1.719h-1.607V15.169z M104.132,22.613h1.607v-6.598h-1.607V22.613z M99.742,25.108v-9.089l-1.621-0.004
		v0.973c-0.442-0.775-0.961-1.117-1.668-1.117c-0.619,0-1.129,0.317-1.529,0.959c-0.393,0.643-0.594,1.467-0.594,2.484
		c0,1.02,0.201,1.85,0.594,2.495c0.4,0.644,0.91,0.961,1.529,0.961c0.707,0,1.226-0.343,1.668-1.117v3.455H99.742z M97.054,17.384
		c0.701,0,1.067,0.677,1.067,1.93c0,1.254-0.366,1.932-1.067,1.932c-0.677,0-1.055-0.678-1.055-1.932
		c0-1.249,0.378-1.925,1.055-1.925V17.384z M88.127,20.044c0,1.785,0.621,2.726,1.782,2.726c0.661,0,1.194-0.34,1.68-1.11v0.947
		h1.609v-6.592h-1.609v3.255c0,1.203-0.408,1.917-1.083,1.917c-0.277,0-0.496-0.152-0.633-0.43c-0.048-0.107-0.082-0.278-0.106-0.51
		c-0.024-0.234-0.03-0.617-0.03-1.148c0-0.184,0-0.542,0.006-1.079c0-0.542,0-0.989,0-1.349v-0.656h-1.616V20.044z M83.484,22.613
		v-2.752l1.967,2.752h1.953l-2.654-3.572l2.461-3.025h-1.873l-1.854,2.419v-4.983h-1.609v9.162H83.484z M75.9,15.169h1.607v-1.719
		H75.9V15.169z M75.9,22.613h1.607v-6.598H75.9V22.613z M70.27,15.169h1.607v-1.719H70.27V15.169z M70.27,22.613h1.607v-6.598H70.27
		V22.613z M69.048,25.108v-9.089l-1.621-0.004v0.973c-0.442-0.775-0.96-1.117-1.667-1.117c-0.619,0-1.129,0.317-1.529,0.959
		c-0.394,0.643-0.595,1.467-0.595,2.484c0,1.02,0.201,1.85,0.595,2.495c0.4,0.644,0.91,0.961,1.529,0.961
		c0.707,0,1.225-0.343,1.667-1.117v3.455H69.048z M66.36,17.384c0.701,0,1.067,0.677,1.067,1.93c0,1.254-0.366,1.932-1.067,1.932
		c-0.677,0-1.055-0.678-1.055-1.932c0-1.249,0.378-1.925,1.055-1.925V17.384z M59.68,23.044c-0.076,0.293-0.171,0.5-0.295,0.613
		c-0.129,0.11-0.324,0.172-0.601,0.172h-0.5v1.381h0.936c0.466,0,0.83-0.146,1.119-0.439c0.283-0.29,0.53-0.803,0.747-1.539
		l2.12-7.217h-1.614l-1.147,4.477l-1.36-4.477h-1.613l2.248,6.847L59.68,23.044z M57.273,15.906
		c-0.243-0.039-0.348-0.045-0.454-0.045c-0.754,0-1.266,0.371-1.678,1.237v-1.083h-1.609v6.598h1.609v-3.039
		c0-1.297,0.466-2.016,1.29-2.016c0.287,0,0.558,0.083,0.848,0.253l-0.006-1.903V15.906z M48.105,22.613v-3.464l2.666,3.464h2.172
		l-3.572-4.631l3.242-4.16H50.6l-2.495,3.206v-3.206h-1.736v8.791H48.105z"/>
	<path fill="#231F20" d="M157.869,29.19c-0.766-0.251-1.406-0.362-2.001-0.362c-1.519,0-2.238,0.662-2.238,2.057
		c0,0.646,0.142,1.129,0.431,1.445c0.289,0.318,0.795,0.535,1.508,0.653l0.287,0.047c0.324,0.054,0.543,0.124,0.654,0.22
		c0.111,0.088,0.164,0.229,0.164,0.416c0,0.446-0.324,0.676-0.947,0.676c-0.694,0-1.377-0.205-2.021-0.61v1.597
		c0.75,0.27,1.461,0.406,2.128,0.406c1.577,0,2.37-0.699,2.37-2.104c0-0.672-0.14-1.166-0.429-1.477
		c-0.282-0.313-0.842-0.525-1.666-0.677l-0.275-0.054c-0.585-0.111-0.777-0.252-0.777-0.588c0-0.418,0.287-0.61,0.905-0.61
		c0.565,0,1.218,0.187,1.907,0.565V29.19 M152.284,29.19c-0.767-0.251-1.406-0.362-2.001-0.362c-1.52,0-2.238,0.662-2.238,2.057
		c0,0.646,0.141,1.129,0.43,1.445c0.289,0.318,0.795,0.535,1.51,0.653l0.287,0.047c0.322,0.054,0.541,0.124,0.652,0.22
		c0.112,0.088,0.164,0.229,0.164,0.416c0,0.446-0.322,0.676-0.945,0.676c-0.695,0-1.379-0.205-2.021-0.61v1.597
		c0.749,0.27,1.461,0.406,2.128,0.406c1.577,0,2.37-0.699,2.37-2.104c0-0.672-0.141-1.166-0.43-1.477
		c-0.281-0.313-0.842-0.525-1.666-0.677l-0.274-0.054c-0.585-0.111-0.778-0.252-0.778-0.588c0-0.418,0.287-0.61,0.906-0.61
		c0.564,0,1.219,0.187,1.907,0.565V29.19z M144.564,28.828c-0.865,0-1.547,0.307-2.041,0.918c-0.489,0.609-0.736,1.455-0.736,2.537
		s0.247,1.928,0.736,2.539c0.494,0.61,1.176,0.912,2.041,0.912c0.871,0,1.548-0.302,2.035-0.912
		c0.484-0.611,0.732-1.457,0.732-2.539s-0.248-1.928-0.732-2.537C146.112,29.134,145.436,28.828,144.564,28.828z M144.564,30.333
		c0.705,0,1.084,0.688,1.084,1.949c0,1.264-0.379,1.95-1.084,1.95c-0.717,0-1.094-0.687-1.094-1.95
		C143.471,31.021,143.848,30.333,144.564,30.333z M141.16,28.873c-0.243-0.037-0.348-0.043-0.454-0.043
		c-0.754,0-1.267,0.371-1.679,1.236v-1.083h-1.608v6.599h1.608v-3.041c0-1.295,0.467-2.015,1.291-2.015
		c0.287,0,0.558,0.083,0.848,0.253l-0.006-1.904V28.873z M136.619,33.273c-0.641,0.57-1.247,0.829-1.936,0.829
		c-0.617,0-1.105-0.259-1.459-0.776c-0.354-0.519-0.531-1.23-0.531-2.137c0-0.912,0.177-1.623,0.531-2.141
		c0.354-0.52,0.842-0.778,1.459-0.778c0.688,0,1.295,0.259,1.936,0.83v-1.817c-0.641-0.431-1.33-0.65-2.071-0.65
		c-1.123,0-2.007,0.408-2.666,1.226c-0.653,0.817-0.976,1.925-0.976,3.331c0,1.4,0.322,2.512,0.976,3.331
		c0.659,0.813,1.543,1.214,2.666,1.214c0.741,0,1.431-0.217,2.071-0.646v-1.816V33.273z M124.303,34.208
		c-0.678,0-1.056-0.674-1.056-1.929c0-1.251,0.378-1.929,1.056-1.929c0.7,0,1.066,0.678,1.066,1.929
		C125.369,33.535,125.003,34.208,124.303,34.208z M125.369,29.953c-0.441-0.772-0.967-1.125-1.668-1.125
		c-0.618,0-1.129,0.322-1.528,0.969c-0.394,0.644-0.595,1.474-0.595,2.492s0.201,1.85,0.595,2.496
		c0.399,0.631,0.91,0.949,1.528,0.949c0.708,0,1.227-0.342,1.668-1.119v0.954h1.621v-9.149h-1.621V29.953z M117.262,31.563
		c0.101-0.866,0.507-1.338,1.129-1.338c0.288,0,0.519,0.122,0.7,0.372c0.176,0.24,0.271,0.566,0.271,0.966H117.262z M121.015,32.264
		c0-1.044-0.241-1.88-0.719-2.503c-0.47-0.623-1.105-0.934-1.899-0.934c-0.869,0-1.553,0.305-2.047,0.922s-0.747,1.459-0.747,2.539
		c0,1.092,0.253,1.942,0.753,2.547c0.507,0.604,1.218,0.898,2.136,0.898c0.757,0,1.523-0.189,2.282-0.564V33.55
		c-0.747,0.533-1.454,0.791-2.135,0.791c-0.842,0-1.312-0.492-1.389-1.477h3.765V32.264z M111.241,32.25
		c0.283,0,0.507,0.082,0.677,0.242c0.171,0.158,0.342,0.459,0.507,0.901l0.811,2.188h1.846l-0.94-2.502
		c-0.383-1.013-0.729-1.473-1.205-1.613c0.864-0.354,1.294-1.094,1.294-2.256c0-1.676-0.796-2.422-2.566-2.422h-2.646v8.793h1.734
		V32.25H111.241z M110.753,28.429h0.729c0.719,0,1.019,0.316,1.019,1.119c0,0.805-0.3,1.135-1.019,1.135h-0.729V28.429z
		 M104.626,31.561c0-1.786-0.617-2.733-1.774-2.733c-0.659,0-1.194,0.346-1.676,1.118v-0.963h-1.609v6.599h1.609v-3.25
		c0-1.201,0.406-1.92,1.077-1.92c0.275,0,0.498,0.158,0.629,0.437c0.04,0.1,0.076,0.259,0.1,0.478
		c0.016,0.217,0.028,0.607,0.028,1.178v3.078h1.616V31.561z M98.345,31.818c0-1.057-0.204-1.822-0.604-2.285
		c-0.406-0.471-1.067-0.705-1.977-0.705c-0.697,0-1.399,0.117-2.094,0.334v1.605c0.519-0.359,1.101-0.542,1.799-0.542
		c0.851,0,1.247,0.301,1.247,0.968v0.165h-0.952c-1.746,0-2.534,0.694-2.534,2.242c0,0.637,0.159,1.155,0.489,1.558
		c0.323,0.381,0.747,0.576,1.277,0.576c0.774,0,1.282-0.342,1.72-1.139v0.974h1.629V31.818z M96.716,32.853
		c0,0.43-0.1,0.783-0.307,1.072c-0.207,0.283-0.468,0.424-0.77,0.424c-0.49,0-0.779-0.316-0.779-0.854
		c0-0.584,0.343-0.884,1.016-0.884h0.84V32.853z M90.81,28.138h1.607v-1.721H90.81V28.138z M90.81,35.582h1.607v-6.599H90.81V35.582
		z M89.857,31.561c0-1.786-0.617-2.733-1.774-2.733c-0.659,0-1.193,0.346-1.675,1.118v-0.963h-1.61v6.599h1.61v-3.25
		c0-1.201,0.405-1.92,1.077-1.92c0.275,0,0.498,0.158,0.628,0.437c0.041,0.1,0.077,0.259,0.101,0.478
		c0.016,0.217,0.028,0.607,0.028,1.178v3.078h1.615V31.561z M80.915,28.828c-0.866,0-1.547,0.307-2.041,0.918
		c-0.49,0.609-0.738,1.455-0.738,2.537s0.248,1.928,0.738,2.539c0.494,0.61,1.175,0.912,2.041,0.912c0.87,0,1.547-0.302,2.035-0.912
		c0.484-0.611,0.731-1.457,0.731-2.539s-0.247-1.928-0.731-2.537C82.462,29.134,81.785,28.828,80.915,28.828z M80.915,30.333
		c0.705,0,1.083,0.688,1.083,1.949c0,1.264-0.378,1.95-1.083,1.95c-0.717,0-1.095-0.687-1.095-1.95
		C79.82,31.021,80.198,30.333,80.915,30.333z M74.586,34.208c-0.677,0-1.054-0.674-1.054-1.929c0-1.251,0.377-1.929,1.054-1.929
		c0.701,0,1.067,0.678,1.067,1.929C75.653,33.535,75.287,34.208,74.586,34.208z M75.653,29.953
		c-0.442-0.772-0.966-1.125-1.667-1.125c-0.619,0-1.129,0.322-1.529,0.969c-0.394,0.644-0.595,1.474-0.595,2.492
		s0.201,1.85,0.595,2.496c0.4,0.631,0.91,0.949,1.529,0.949c0.707,0,1.225-0.342,1.667-1.119v0.954h1.622v-9.149h-1.622V29.953z
		 M67.547,31.563c0.1-0.866,0.506-1.338,1.129-1.338c0.287,0,0.518,0.122,0.699,0.372c0.177,0.24,0.271,0.566,0.271,0.966H67.547z
		 M71.3,32.264c0-1.044-0.242-1.88-0.72-2.503c-0.47-0.623-1.105-0.934-1.898-0.934c-0.87,0-1.553,0.305-2.048,0.922
		c-0.494,0.617-0.747,1.459-0.747,2.539c0,1.092,0.253,1.942,0.754,2.547c0.506,0.604,1.217,0.898,2.135,0.898
		c0.758,0,1.523-0.189,2.282-0.564V33.55c-0.747,0.533-1.454,0.791-2.135,0.791c-0.842,0-1.312-0.492-1.388-1.477H71.3V32.264z
		 M65.019,29.192c-0.506-0.241-1.018-0.364-1.543-0.364c-0.912,0-1.625,0.307-2.137,0.918c-0.519,0.604-0.772,1.451-0.772,2.539
		s0.253,1.936,0.772,2.547c0.512,0.601,1.225,0.902,2.137,0.902c0.519,0,1.043-0.125,1.543-0.359V33.65
		c-0.377,0.385-0.842,0.583-1.342,0.583c-0.902,0-1.432-0.724-1.432-1.953c0-1.228,0.53-1.952,1.432-1.952
		c0.47,0,0.906,0.182,1.342,0.576v-1.716V29.192z M59.856,31.818c0-1.057-0.205-1.822-0.605-2.285
		c-0.406-0.471-1.067-0.705-1.977-0.705c-0.697,0-1.398,0.117-2.093,0.334v1.605c0.518-0.359,1.101-0.542,1.798-0.542
		c0.852,0,1.248,0.301,1.248,0.968v0.165h-0.953c-1.746,0-2.533,0.694-2.533,2.242c0,0.637,0.159,1.155,0.488,1.558
		c0.324,0.381,0.748,0.576,1.278,0.576c0.773,0,1.282-0.342,1.72-1.139v0.974h1.629V31.818z M58.227,32.853
		c0,0.43-0.101,0.783-0.308,1.072c-0.207,0.283-0.468,0.424-0.769,0.424c-0.49,0-0.78-0.316-0.78-0.854
		c0-0.584,0.344-0.884,1.017-0.884h0.84V32.853z M48.085,35.582v-6.434l1.541,4.741h1.101l1.549-4.741v6.434h1.639v-8.793h-2.2
		l-1.541,4.705l-1.531-4.705h-2.207v8.793H48.085z"/>
</g>
</svg>
