<?xml version="1.0" encoding="UTF-8" standalone="no"?>
<!-- Created with Inkscape (http://www.inkscape.org/) -->

<svg
   version="1.1"
   id="svg1"
   width="942.74268"
   height="101.964"
   viewBox="0 0 942.74268 101.964"
   sodipodi:docname="Macedonia RC_mk.svg"
   inkscape:version="1.3.2 (091e20e, 2023-11-25, custom)"
   xmlns:inkscape="http://www.inkscape.org/namespaces/inkscape"
   xmlns:sodipodi="http://sodipodi.sourceforge.net/DTD/sodipodi-0.dtd"
   xmlns="http://www.w3.org/2000/svg"
   xmlns:svg="http://www.w3.org/2000/svg">
  <defs
     id="defs1">
    <clipPath
       clipPathUnits="userSpaceOnUse"
       id="clipPath3">
      <path
         d="M 0,76.44 H 707.04 V 0 H 0 Z"
         transform="translate(-76.473002,-50.179001)"
         id="path3" />
    </clipPath>
    <clipPath
       clipPathUnits="userSpaceOnUse"
       id="clipPath34">
      <path
         d="M 0,76.44 H 707.04 V 0 H 0 Z"
         transform="translate(-701.55902,-34.883001)"
         id="path34" />
    </clipPath>
  </defs>
  <sodipodi:namedview
     id="namedview1"
     pagecolor="#ffffff"
     bordercolor="#666666"
     borderopacity="1.0"
     inkscape:showpageshadow="2"
     inkscape:pageopacity="0.0"
     inkscape:pagecheckerboard="0"
     inkscape:deskcolor="#d1d1d1"
     inkscape:export-bgcolor="#ffffffff"
     inkscape:zoom="0.99178708"
     inkscape:cx="471.37134"
     inkscape:cy="50.918187"
     inkscape:window-width="1920"
     inkscape:window-height="1017"
     inkscape:window-x="-8"
     inkscape:window-y="-8"
     inkscape:window-maximized="1"
     inkscape:current-layer="g1">
    <inkscape:page
       x="0"
       y="0"
       inkscape:label="1"
       id="page1"
       width="942.74268"
       height="101.964"
       margin="0"
       bleed="0"
       inkscape:export-filename="Macedonia RC_mk.png"
       inkscape:export-xdpi="300"
       inkscape:export-ydpi="300" />
  </sodipodi:namedview>
  <g
     id="g1"
     inkscape:groupmode="layer"
     inkscape:label="1">
    <g
       id="group-MC1">
      <path
         id="path2"
         d="M 0,0 H -26.294 V 26.294 H -50.179 V 0 h -26.294 v -23.884 h 26.294 v -26.295 h 23.885 v 26.295 H 0 V 0"
         style="fill:#ed1c24;fill-opacity:1;fill-rule:nonzero;stroke:none"
         transform="matrix(1.3333333,0,0,-1.3333333,101.964,35.058667)"
         clip-path="url(#clipPath3)" />
      <path
         id="path4"
         d="m 0,0 h 4.828 v -19.902 h 9.364 V 0 h 4.829 v -19.902 h 1.99 v -9.232 h -4.013 v 5.219 H 0 V 0"
         style="fill:#231f20;fill-opacity:1;fill-rule:nonzero;stroke:none"
         transform="matrix(1.3333333,0,0,-1.3333333,133.84,34.658667)" />
      <path
         id="path5"
         d="m 0,0 c 0,-1.947 0.386,-3.385 1.159,-4.315 0.772,-0.93 1.712,-1.395 2.821,-1.395 1.066,0 1.953,0.427 2.66,1.28 0.706,0.855 1.06,2.254 1.06,4.201 C 7.7,1.587 7.335,2.936 6.607,3.817 5.878,4.698 4.976,5.138 3.899,5.138 2.779,5.138 1.849,4.706 1.109,3.841 0.37,2.977 0,1.696 0,0 Z m -4.535,8.368 h 4.274 V 5.823 C 0.294,6.693 1.044,7.4 1.99,7.944 2.937,8.488 3.986,8.76 5.139,8.76 c 2.012,0 3.719,-0.789 5.122,-2.365 1.403,-1.578 2.104,-3.774 2.104,-6.591 0,-2.893 -0.707,-5.141 -2.12,-6.745 -1.414,-1.605 -3.127,-2.407 -5.139,-2.407 -0.957,0 -1.824,0.191 -2.602,0.572 -0.777,0.38 -1.596,1.033 -2.455,1.957 v -8.728 H -4.535 V 8.368"
         style="fill:#231f20;fill-opacity:1;fill-rule:nonzero;stroke:none"
         transform="matrix(1.3333333,0,0,-1.3333333,172.09867,54.604)" />
      <path
         id="path6"
         d="M 0,0 H 3.623 C 4.927,0 5.878,0.157 6.477,0.473 7.075,0.788 7.374,1.354 7.374,2.169 7.374,3.017 7.032,3.602 6.346,3.923 5.661,4.244 4.329,4.404 2.35,4.404 H 0 Z m 0,7.194 h 2.953 c 1.424,0 2.456,0.179 3.091,0.538 0.636,0.359 0.955,0.924 0.955,1.697 0,0.728 -0.296,1.248 -0.889,1.557 -0.593,0.31 -1.646,0.466 -3.157,0.466 H 0 Z m -4.616,7.194 H 5.416 c 2.056,0 3.594,-0.375 4.617,-1.126 1.022,-0.75 1.533,-1.882 1.533,-3.393 0,-0.968 -0.279,-1.81 -0.84,-2.528 C 10.166,6.623 9.462,6.144 8.614,5.905 9.81,5.611 10.702,5.062 11.289,4.258 11.876,3.452 12.17,2.571 12.17,1.615 12.17,0.267 11.675,-0.83 10.685,-1.672 9.696,-2.516 8.233,-2.937 6.297,-2.937 H -4.616 v 17.325"
         style="fill:#231f20;fill-opacity:1;fill-rule:nonzero;stroke:none"
         transform="matrix(1.3333333,0,0,-1.3333333,199.656,62.629333)" />
      <path
         id="path7"
         d="M 0,0 C -0.032,1.327 -0.375,2.335 -1.027,3.026 -1.681,3.717 -2.475,4.062 -3.409,4.062 -4.41,4.062 -5.236,3.698 -5.889,2.969 -6.541,2.24 -6.862,1.25 -6.851,0 Z M -0.261,-4.633 4.307,-5.399 C 3.72,-7.074 2.792,-8.35 1.525,-9.225 c -1.267,-0.876 -2.852,-1.313 -4.754,-1.313 -3.013,0 -5.243,0.984 -6.689,2.953 -1.142,1.576 -1.713,3.566 -1.713,5.97 0,2.871 0.75,5.119 2.251,6.745 1.501,1.626 3.399,2.439 5.694,2.439 2.577,0 4.61,-0.851 6.1,-2.552 1.49,-1.703 2.202,-4.31 2.138,-7.823 H -6.933 c 0.033,-1.359 0.403,-2.417 1.11,-3.173 0.706,-0.755 1.587,-1.133 2.642,-1.133 0.718,0 1.322,0.195 1.811,0.587 0.489,0.391 0.858,1.022 1.109,1.892"
         style="fill:#231f20;fill-opacity:1;fill-rule:nonzero;stroke:none"
         transform="matrix(1.3333333,0,0,-1.3333333,233.95733,53.017333)" />
      <path
         id="path8"
         d="m 0,0 h 4.584 v -6.346 h 6.558 V 0 h 4.601 v -17.324 h -4.601 v 7.275 H 4.584 v -7.275 H 0 V 0"
         style="fill:#231f20;fill-opacity:1;fill-rule:nonzero;stroke:none"
         transform="matrix(1.3333333,0,0,-1.3333333,244.76667,43.446667)" />
      <path
         id="path9"
         d="m 0,0 h 4.568 v -7.08 c 0.761,0.088 1.3,0.321 1.615,0.702 0.315,0.38 0.695,1.212 1.142,2.496 0.587,1.707 1.228,2.8 1.924,3.278 0.697,0.479 1.61,0.718 2.742,0.718 0.347,0 0.951,-0.027 1.81,-0.081 l 0.016,-3.035 c -1.207,0 -1.98,-0.114 -2.317,-0.342 -0.336,-0.24 -0.701,-0.952 -1.092,-2.137 -0.534,-1.599 -1.3,-2.584 -2.3,-2.953 1.446,-0.402 2.67,-1.658 3.67,-3.768 0.054,-0.109 0.114,-0.223 0.179,-0.343 l 2.562,-4.779 H 9.592 l -2.284,5.008 c -0.468,1.011 -0.872,1.661 -1.215,1.949 -0.343,0.288 -0.851,0.432 -1.525,0.432 v -7.389 H 0 L 0,0"
         style="fill:#231f20;fill-opacity:1;fill-rule:nonzero;stroke:none"
         transform="matrix(1.3333333,0,0,-1.3333333,284.048,43.446667)" />
      <path
         id="path10"
         d="m 0,0 c 0,-1.947 0.386,-3.385 1.158,-4.315 0.772,-0.93 1.713,-1.395 2.823,-1.395 1.065,0 1.951,0.427 2.658,1.28 0.707,0.855 1.06,2.254 1.06,4.201 0,1.816 -0.364,3.165 -1.092,4.046 C 5.878,4.698 4.976,5.138 3.899,5.138 2.778,5.138 1.849,4.706 1.109,3.841 0.369,2.977 0,1.696 0,0 Z m -4.535,8.368 h 4.273 V 5.823 C 0.293,6.693 1.044,7.4 1.99,7.944 2.937,8.488 3.985,8.76 5.139,8.76 c 2.012,0 3.719,-0.789 5.122,-2.365 1.402,-1.578 2.104,-3.774 2.104,-6.591 0,-2.893 -0.707,-5.141 -2.121,-6.745 -1.414,-1.605 -3.127,-2.407 -5.138,-2.407 -0.957,0 -1.825,0.191 -2.602,0.572 -0.777,0.38 -1.597,1.033 -2.455,1.957 v -8.728 H -4.535 V 8.368"
         style="fill:#231f20;fill-opacity:1;fill-rule:nonzero;stroke:none"
         transform="matrix(1.3333333,0,0,-1.3333333,312.45467,54.604)" />
      <path
         id="path11"
         d="m 0,0 -4.519,-0.816 c -0.152,0.903 -0.498,1.583 -1.036,2.039 -0.538,0.457 -1.237,0.686 -2.097,0.686 -1.141,0 -2.053,-0.395 -2.732,-1.183 -0.68,-0.789 -1.02,-2.107 -1.02,-3.956 0,-2.055 0.346,-3.507 1.036,-4.356 0.691,-0.848 1.618,-1.272 2.782,-1.272 0.87,0 1.583,0.248 2.137,0.742 0.555,0.495 0.946,1.347 1.174,2.554 l 4.503,-0.767 c -0.468,-2.066 -1.365,-3.628 -2.692,-4.683 -1.327,-1.054 -3.105,-1.582 -5.334,-1.582 -2.535,0 -4.554,0.8 -6.061,2.399 -1.506,1.598 -2.259,3.811 -2.259,6.638 0,2.861 0.756,5.088 2.268,6.681 1.512,1.593 3.556,2.39 6.134,2.39 2.109,0 3.787,-0.454 5.032,-1.363 C -1.439,3.243 -0.544,1.859 0,0"
         style="fill:#231f20;fill-opacity:1;fill-rule:nonzero;stroke:none"
         transform="matrix(1.3333333,0,0,-1.3333333,353.93467,50.276)" />
      <path
         id="path12"
         d="M 0,0 H 15.677 V -3.703 H 10.13 V -17.324 H 5.546 V -3.703 L 0,-3.703 V 0"
         style="fill:#231f20;fill-opacity:1;fill-rule:nonzero;stroke:none"
         transform="matrix(1.3333333,0,0,-1.3333333,355.82533,43.446667)" />
      <path
         id="path13"
         d="m 0,0 h 4.584 v -6.346 h 6.557 V 0 h 4.601 v -17.324 h -4.601 v 7.275 H 4.584 v -7.275 H 0 L 0,0"
         style="fill:#231f20;fill-opacity:1;fill-rule:nonzero;stroke:none"
         transform="matrix(1.3333333,0,0,-1.3333333,380.14267,43.446667)" />
      <path
         id="path14"
         d="m 0,0 c -0.587,-0.195 -1.517,-0.43 -2.789,-0.701 -1.273,-0.273 -2.105,-0.538 -2.496,-0.8 -0.598,-0.424 -0.898,-0.962 -0.898,-1.614 0,-0.643 0.239,-1.197 0.718,-1.664 0.478,-0.468 1.088,-0.702 1.827,-0.702 0.826,0 1.615,0.272 2.365,0.816 0.555,0.413 0.919,0.919 1.094,1.516 C -0.06,-2.757 0,-2.012 0,-0.913 Z m -6.134,3.72 -4.159,0.75 c 0.468,1.675 1.272,2.914 2.414,3.719 1.141,0.805 2.839,1.207 5.09,1.207 2.044,0 3.566,-0.242 4.567,-0.726 C 2.779,8.187 3.483,7.572 3.89,6.827 4.299,6.082 4.503,4.715 4.503,2.725 L 4.454,-2.626 c 0,-1.523 0.073,-2.645 0.22,-3.369 0.146,-0.723 0.421,-1.498 0.824,-2.324 H 0.963 c -0.121,0.304 -0.267,0.755 -0.441,1.353 -0.076,0.273 -0.131,0.451 -0.163,0.539 -0.783,-0.762 -1.621,-1.333 -2.513,-1.713 -0.891,-0.38 -1.842,-0.571 -2.854,-0.571 -1.783,0 -3.19,0.483 -4.217,1.452 -1.027,0.968 -1.542,2.192 -1.542,3.67 0,0.98 0.234,1.852 0.702,2.618 0.467,0.767 1.122,1.355 1.966,1.762 0.842,0.408 2.058,0.765 3.646,1.069 2.142,0.402 3.627,0.777 4.453,1.125 v 0.457 c 0,0.881 -0.218,1.509 -0.653,1.884 -0.434,0.376 -1.255,0.563 -2.463,0.563 -0.815,0 -1.452,-0.16 -1.909,-0.481 C -5.481,5.087 -5.851,4.524 -6.134,3.72"
         style="fill:#231f20;fill-opacity:1;fill-rule:nonzero;stroke:none"
         transform="matrix(1.3333333,0,0,-1.3333333,420.03333,55.453333)" />
      <path
         id="path15"
         d="m 0,0 v -6.786 h 2.643 c 1.903,0 3.175,0.125 3.817,0.375 0.641,0.25 1.144,0.642 1.51,1.175 0.364,0.532 0.545,1.152 0.545,1.859 0,0.87 -0.255,1.588 -0.766,2.153 C 7.237,-0.658 6.591,-0.305 5.807,-0.163 5.231,-0.055 4.073,0 2.333,0 Z M -4.828,-19.869 V 4.045 h 7.749 c 2.935,0 4.849,-0.119 5.742,-0.359 1.37,-0.358 2.516,-1.139 3.441,-2.34 0.925,-1.202 1.387,-2.755 1.387,-4.658 0,-1.468 -0.267,-2.702 -0.799,-3.703 -0.533,-1 -1.21,-1.786 -2.031,-2.357 C 9.84,-9.942 9.005,-10.32 8.157,-10.506 7.004,-10.734 5.335,-10.848 3.148,-10.848 H 0 v -9.021 h -4.828"
         style="fill:#231f20;fill-opacity:1;fill-rule:nonzero;stroke:none"
         transform="matrix(1.3333333,0,0,-1.3333333,450.91867,40.053333)" />
      <path
         id="path16"
         d="M 0,0 C -0.033,1.327 -0.375,2.335 -1.028,3.026 -1.681,3.717 -2.475,4.062 -3.41,4.062 -4.411,4.062 -5.237,3.698 -5.889,2.969 -6.541,2.24 -6.863,1.25 -6.852,0 Z M -0.261,-4.633 4.306,-5.399 C 3.719,-7.074 2.792,-8.35 1.525,-9.225 c -1.268,-0.876 -2.853,-1.313 -4.755,-1.313 -3.013,0 -5.242,0.984 -6.688,2.953 -1.143,1.576 -1.713,3.566 -1.713,5.97 0,2.871 0.75,5.119 2.251,6.745 1.501,1.626 3.398,2.439 5.693,2.439 2.577,0 4.61,-0.851 6.101,-2.552 1.49,-1.703 2.202,-4.31 2.137,-7.823 H -6.933 c 0.032,-1.359 0.402,-2.417 1.109,-3.173 0.706,-0.755 1.587,-1.133 2.643,-1.133 0.718,0 1.321,0.195 1.81,0.587 0.49,0.391 0.859,1.022 1.11,1.892"
         style="fill:#231f20;fill-opacity:1;fill-rule:nonzero;stroke:none"
         transform="matrix(1.3333333,0,0,-1.3333333,486.764,53.017333)" />
      <path
         id="path17"
         d="M 0,0 H 15.383 V -17.324 H 10.799 V -3.703 H 4.584 V -17.324 H 0 V 0"
         style="fill:#231f20;fill-opacity:1;fill-rule:nonzero;stroke:none"
         transform="matrix(1.3333333,0,0,-1.3333333,497.57467,43.446667)" />
      <path
         id="path18"
         d="M 0,0 H 4.877 L 9.021,-12.3 13.067,0 h 4.747 l -6.117,-16.672 -1.093,-3.018 c -0.402,-1.011 -0.786,-1.783 -1.15,-2.316 -0.365,-0.533 -0.784,-0.965 -1.256,-1.297 -0.474,-0.332 -1.055,-0.59 -1.746,-0.775 -0.691,-0.185 -1.471,-0.278 -2.341,-0.278 -0.881,0 -1.745,0.093 -2.594,0.278 l -0.407,3.589 c 0.718,-0.141 1.364,-0.212 1.941,-0.212 1.066,0 1.854,0.312 2.365,0.938 0.511,0.625 0.903,1.422 1.174,2.39 L 0,0"
         style="fill:#231f20;fill-opacity:1;fill-rule:nonzero;stroke:none"
         transform="matrix(1.3333333,0,0,-1.3333333,521.82533,43.446667)" />
      <path
         id="path19"
         d="m 0,0 c 0,-1.576 0.395,-2.824 1.183,-3.743 0.789,-0.919 1.754,-1.379 2.895,-1.379 1.23,0 2.237,0.476 3.027,1.428 0.788,0.951 1.182,2.177 1.182,3.678 0,1.534 -0.399,2.77 -1.199,3.711 C 6.289,4.636 5.302,5.106 4.127,5.106 2.985,5.106 2.012,4.644 1.207,3.72 0.402,2.795 0,1.556 0,0 Z M 9.233,15.938 H 12.35 C 12.251,14.557 11.89,13.51 11.265,12.798 10.639,12.085 9.098,11.729 6.64,11.729 c -0.294,0 -0.587,0.006 -0.881,0.017 H 5.172 C 3.714,11.746 2.528,11.585 1.615,11.265 0.702,10.943 -0.046,10.321 -0.628,9.397 -1.21,8.472 -1.512,6.982 -1.533,4.927 c 0.674,1.272 1.547,2.224 2.618,2.855 1.071,0.63 2.347,0.946 3.825,0.946 2.274,0 4.198,-0.884 5.776,-2.651 1.576,-1.767 2.365,-3.815 2.365,-6.141 0,-2.426 -0.83,-4.509 -2.488,-6.248 -1.659,-1.741 -3.826,-2.611 -6.5,-2.611 -1.838,0 -3.454,0.441 -4.846,1.321 -1.392,0.881 -2.387,2.085 -2.985,3.614 -0.598,1.528 -0.897,4.059 -0.897,7.594 0,4.154 0.764,7.139 2.292,8.956 1.527,1.815 4.194,2.724 8.001,2.724 h 2.316 c 0.642,0 1.072,0.217 1.289,0.652"
         style="fill:#231f20;fill-opacity:1;fill-rule:nonzero;stroke:none"
         transform="matrix(1.3333333,0,0,-1.3333333,554.516,55.170667)" />
      <path
         id="path20"
         d="M 0,0 H 15.351 V -17.324 H 10.784 V -3.719 H 4.536 v -7.782 c 0,-1.979 -0.229,-3.368 -0.686,-4.168 -0.456,-0.799 -0.962,-1.323 -1.517,-1.573 -0.554,-0.251 -1.446,-0.376 -2.675,-0.376 -0.729,0 -1.691,0.098 -2.887,0.294 v 3.377 c 0.098,0 0.352,-0.011 0.767,-0.033 0.478,-0.033 0.847,-0.049 1.109,-0.049 0.619,0 1,0.204 1.142,0.612 C -0.07,-13.01 0,-11.876 0,-10.016 V 0"
         style="fill:#231f20;fill-opacity:1;fill-rule:nonzero;stroke:none"
         transform="matrix(1.3333333,0,0,-1.3333333,577.54933,43.446667)" />
      <path
         id="path21"
         d="M 0,0 H 4.404 V -10.881 L 11.451,0 h 4.503 V -17.324 H 11.548 V -6.248 L 4.404,-17.324 H 0 V 0"
         style="fill:#231f20;fill-opacity:1;fill-rule:nonzero;stroke:none"
         transform="matrix(1.3333333,0,0,-1.3333333,604.044,43.446667)" />
      <path
         id="path22"
         d="m 0,0 h 4.568 v -7.08 c 0.76,0.088 1.299,0.321 1.615,0.702 0.315,0.38 0.695,1.212 1.141,2.496 0.587,1.707 1.229,2.8 1.925,3.278 0.697,0.479 1.61,0.718 2.741,0.718 0.348,0 0.952,-0.027 1.811,-0.081 l 0.016,-3.035 c -1.207,0 -1.98,-0.114 -2.317,-0.342 -0.337,-0.24 -0.701,-0.952 -1.093,-2.137 -0.533,-1.599 -1.299,-2.584 -2.299,-2.953 1.446,-0.402 2.67,-1.658 3.67,-3.768 0.054,-0.109 0.114,-0.223 0.179,-0.343 l 2.562,-4.779 H 9.592 l -2.284,5.008 c -0.468,1.011 -0.872,1.661 -1.215,1.949 -0.343,0.288 -0.852,0.432 -1.525,0.432 v -7.389 H 0 L 0,0"
         style="fill:#231f20;fill-opacity:1;fill-rule:nonzero;stroke:none"
         transform="matrix(1.3333333,0,0,-1.3333333,631.34,43.446667)" />
      <path
         id="path23"
         d="m 0,0 c -0.587,-0.195 -1.516,-0.43 -2.789,-0.701 -1.272,-0.273 -2.104,-0.538 -2.496,-0.8 -0.598,-0.424 -0.897,-0.962 -0.897,-1.614 0,-0.643 0.239,-1.197 0.717,-1.664 0.479,-0.468 1.088,-0.702 1.827,-0.702 0.827,0 1.616,0.272 2.366,0.816 0.554,0.413 0.919,0.919 1.093,1.516 C -0.059,-2.757 0,-2.012 0,-0.913 Z m -6.134,3.72 -4.159,0.75 c 0.468,1.675 1.273,2.914 2.414,3.719 1.142,0.805 2.839,1.207 5.09,1.207 2.044,0 3.567,-0.242 4.567,-0.726 C 2.779,8.187 3.484,7.572 3.891,6.827 4.299,6.082 4.503,4.715 4.503,2.725 L 4.454,-2.626 c 0,-1.523 0.074,-2.645 0.22,-3.369 0.146,-0.723 0.422,-1.498 0.824,-2.324 H 0.963 c -0.12,0.304 -0.267,0.755 -0.44,1.353 -0.077,0.273 -0.131,0.451 -0.163,0.539 -0.784,-0.762 -1.622,-1.333 -2.513,-1.713 -0.892,-0.38 -1.843,-0.571 -2.855,-0.571 -1.783,0 -3.189,0.483 -4.216,1.452 -1.028,0.968 -1.542,2.192 -1.542,3.67 0,0.98 0.234,1.852 0.702,2.618 0.467,0.767 1.122,1.355 1.966,1.762 0.841,0.408 2.057,0.765 3.645,1.069 C -2.31,2.262 -0.826,2.637 0,2.985 V 3.442 C 0,4.323 -0.218,4.951 -0.652,5.326 -1.087,5.702 -1.908,5.889 -3.115,5.889 -3.93,5.889 -4.567,5.729 -5.024,5.408 -5.48,5.087 -5.85,4.524 -6.134,3.72"
         style="fill:#231f20;fill-opacity:1;fill-rule:nonzero;stroke:none"
         transform="matrix(1.3333333,0,0,-1.3333333,666.61867,55.453333)" />
      <path
         id="path24"
         d="m 0,0 v 23.915 h 7.226 l 4.34,-16.313 4.29,16.313 h 7.243 V 0 H 18.613 V 18.825 L 13.866,0 H 9.216 L 4.486,18.825 V 0 H 0"
         style="fill:#231f20;fill-opacity:1;fill-rule:nonzero;stroke:none"
         transform="matrix(1.3333333,0,0,-1.3333333,690.98,66.545333)" />
      <path
         id="path25"
         d="m 0,0 c -0.587,-0.195 -1.517,-0.43 -2.789,-0.701 -1.273,-0.273 -2.105,-0.538 -2.496,-0.8 -0.598,-0.424 -0.898,-0.962 -0.898,-1.614 0,-0.643 0.239,-1.197 0.718,-1.664 0.478,-0.468 1.088,-0.702 1.827,-0.702 0.826,0 1.615,0.272 2.365,0.816 0.555,0.413 0.919,0.919 1.094,1.516 C -0.06,-2.757 0,-2.012 0,-0.913 Z m -6.134,3.72 -4.159,0.75 c 0.468,1.675 1.272,2.914 2.414,3.719 1.141,0.805 2.839,1.207 5.09,1.207 2.044,0 3.566,-0.242 4.567,-0.726 C 2.779,8.187 3.483,7.572 3.89,6.827 4.299,6.082 4.503,4.715 4.503,2.725 L 4.454,-2.626 c 0,-1.523 0.073,-2.645 0.22,-3.369 0.146,-0.723 0.421,-1.498 0.824,-2.324 H 0.963 c -0.12,0.304 -0.267,0.755 -0.441,1.353 -0.076,0.273 -0.131,0.451 -0.163,0.539 -0.783,-0.762 -1.621,-1.333 -2.513,-1.713 -0.891,-0.38 -1.842,-0.571 -2.854,-0.571 -1.783,0 -3.189,0.483 -4.217,1.452 -1.027,0.968 -1.542,2.192 -1.542,3.67 0,0.98 0.235,1.852 0.702,2.618 0.467,0.767 1.122,1.355 1.966,1.762 0.842,0.408 2.058,0.765 3.646,1.069 2.142,0.402 3.627,0.777 4.453,1.125 v 0.457 c 0,0.881 -0.218,1.509 -0.653,1.884 -0.434,0.376 -1.255,0.563 -2.462,0.563 -0.816,0 -1.453,-0.16 -1.91,-0.481 C -5.481,5.087 -5.851,4.524 -6.134,3.72"
         style="fill:#231f20;fill-opacity:1;fill-rule:nonzero;stroke:none"
         transform="matrix(1.3333333,0,0,-1.3333333,741.41867,55.453333)" />
      <path
         id="path26"
         d="m 0,0 h 4.567 v -7.08 c 0.761,0.088 1.3,0.321 1.615,0.702 0.316,0.38 0.695,1.212 1.142,2.496 0.587,1.707 1.228,2.8 1.925,3.278 0.696,0.479 1.609,0.718 2.741,0.718 0.347,0 0.951,-0.027 1.81,-0.081 l 0.016,-3.035 c -1.207,0 -1.98,-0.114 -2.316,-0.342 -0.337,-0.24 -0.702,-0.952 -1.093,-2.137 -0.533,-1.599 -1.3,-2.584 -2.3,-2.953 1.446,-0.402 2.67,-1.658 3.67,-3.768 0.055,-0.109 0.114,-0.223 0.18,-0.343 l 2.561,-4.779 H 9.591 l -2.284,5.008 c -0.468,1.011 -0.872,1.661 -1.215,1.949 -0.342,0.288 -0.851,0.432 -1.525,0.432 v -7.389 H 0 V 0"
         style="fill:#231f20;fill-opacity:1;fill-rule:nonzero;stroke:none"
         transform="matrix(1.3333333,0,0,-1.3333333,753.20933,43.446667)" />
      <path
         id="path27"
         d="M 0,0 C -0.032,1.327 -0.375,2.335 -1.027,3.026 -1.681,3.717 -2.475,4.062 -3.409,4.062 -4.41,4.062 -5.236,3.698 -5.889,2.969 -6.541,2.24 -6.862,1.25 -6.852,0 Z M -0.261,-4.633 4.307,-5.399 C 3.72,-7.074 2.792,-8.35 1.525,-9.225 c -1.267,-0.876 -2.852,-1.313 -4.755,-1.313 -3.012,0 -5.242,0.984 -6.688,2.953 -1.143,1.576 -1.713,3.566 -1.713,5.97 0,2.871 0.75,5.119 2.251,6.745 1.501,1.626 3.398,2.439 5.693,2.439 2.578,0 4.611,-0.851 6.101,-2.552 1.49,-1.703 2.202,-4.31 2.138,-7.823 H -6.933 c 0.033,-1.359 0.403,-2.417 1.11,-3.173 0.706,-0.755 1.587,-1.133 2.642,-1.133 0.718,0 1.322,0.195 1.811,0.587 0.489,0.391 0.858,1.022 1.109,1.892"
         style="fill:#231f20;fill-opacity:1;fill-rule:nonzero;stroke:none"
         transform="matrix(1.3333333,0,0,-1.3333333,789.46667,53.017333)" />
      <path
         id="path28"
         d="M 0,0 0.017,9.804 H -5.53 C -5.715,5.019 -6.475,1.751 -7.813,0 Z m 2.659,-3.752 h -13.115 v -4.567 h -3.72 V 0 h 1.876 c 0.784,0.87 1.43,2.229 1.942,4.078 0.51,1.849 0.815,5.014 0.913,9.494 H 4.535 V 0 h 1.86 V -8.319 H 2.659 v 4.567"
         style="fill:#231f20;fill-opacity:1;fill-rule:nonzero;stroke:none"
         transform="matrix(1.3333333,0,0,-1.3333333,816.06667,61.542667)" />
      <path
         id="path29"
         d="m 0,0 c 0,-1.719 0.407,-3.034 1.222,-3.947 0.817,-0.914 1.823,-1.371 3.019,-1.371 1.196,0 2.199,0.457 3.01,1.371 0.809,0.913 1.215,2.24 1.215,3.979 0,1.696 -0.406,3.002 -1.215,3.916 C 6.44,4.861 5.437,5.318 4.241,5.318 3.045,5.318 2.039,4.861 1.222,3.948 0.407,3.034 0,1.719 0,0 Z m -4.698,0.245 c 0,1.522 0.375,2.996 1.125,4.42 0.75,1.425 1.813,2.513 3.189,3.263 1.376,0.751 2.912,1.126 4.608,1.126 2.621,0 4.769,-0.851 6.444,-2.553 1.675,-1.702 2.512,-3.853 2.512,-6.452 0,-2.621 -0.845,-4.793 -2.537,-6.517 -1.691,-1.724 -3.819,-2.586 -6.386,-2.586 -1.588,0 -3.102,0.36 -4.543,1.077 -1.441,0.718 -2.537,1.77 -3.287,3.157 -0.75,1.386 -1.125,3.075 -1.125,5.065"
         style="fill:#231f20;fill-opacity:1;fill-rule:nonzero;stroke:none"
         transform="matrix(1.3333333,0,0,-1.3333333,833.64267,54.996)" />
      <path
         id="path30"
         d="m 0,0 h 4.584 v -6.346 h 6.557 V 0 h 4.601 v -17.324 h -4.601 v 7.275 H 4.584 v -7.275 H 0 L 0,0"
         style="fill:#231f20;fill-opacity:1;fill-rule:nonzero;stroke:none"
         transform="matrix(1.3333333,0,0,-1.3333333,855.76267,43.446667)" />
      <path
         id="path31"
         d="M 0,0 H 4.404 V -10.881 L 11.451,0 h 4.503 V -17.324 H 11.549 V -6.248 L 4.404,-17.324 H 0 V 0"
         style="fill:#231f20;fill-opacity:1;fill-rule:nonzero;stroke:none"
         transform="matrix(1.3333333,0,0,-1.3333333,882.75467,43.446667)" />
      <path
         id="path32"
         d="M 4.584,0 H 0 V 4.2412 H 4.584 Z M 0,0 Z m 4.584,-2.349 v -16.786 c 0,-2.207 -0.143,-3.766 -0.431,-4.674 -0.289,-0.907 -0.844,-1.617 -1.664,-2.128 -0.822,-0.512 -1.868,-0.768 -3.141,-0.768 -0.457,0 -0.949,0.041 -1.476,0.123 -0.528,0.081 -1.095,0.204 -1.705,0.368 l 0.799,3.915 c 0.218,-0.044 0.422,-0.079 0.613,-0.107 0.189,-0.027 0.367,-0.041 0.53,-0.041 0.467,0 0.85,0.101 1.149,0.302 0.299,0.201 0.498,0.443 0.596,0.726 0.098,0.283 0.146,1.131 0.146,2.545 v 16.525 h 4.584"
         style="fill:#231f20;fill-opacity:1;fill-rule:nonzero;stroke:none"
         transform="matrix(1.3333333,0,0,-1.3333333,910.15867,40.314667)" />
      <path
         id="path33"
         d="m 0,0 c -0.587,-0.195 -1.517,-0.43 -2.789,-0.701 -1.273,-0.273 -2.105,-0.538 -2.496,-0.8 -0.598,-0.424 -0.898,-0.962 -0.898,-1.614 0,-0.643 0.24,-1.197 0.718,-1.664 0.479,-0.468 1.088,-0.702 1.827,-0.702 0.826,0 1.615,0.272 2.365,0.816 0.555,0.413 0.919,0.919 1.094,1.516 C -0.06,-2.757 0,-2.012 0,-0.913 Z m -6.134,3.72 -4.159,0.75 c 0.468,1.675 1.272,2.914 2.414,3.719 1.142,0.805 2.839,1.207 5.09,1.207 2.044,0 3.566,-0.242 4.567,-0.726 C 2.779,8.187 3.483,7.572 3.891,6.827 4.299,6.082 4.503,4.715 4.503,2.725 L 4.454,-2.626 c 0,-1.523 0.073,-2.645 0.22,-3.369 0.146,-0.723 0.422,-1.498 0.824,-2.324 H 0.963 c -0.12,0.304 -0.267,0.755 -0.441,1.353 -0.076,0.273 -0.13,0.451 -0.163,0.539 -0.783,-0.762 -1.621,-1.333 -2.512,-1.713 -0.892,-0.38 -1.843,-0.571 -2.855,-0.571 -1.783,0 -3.189,0.483 -4.217,1.452 -1.027,0.968 -1.542,2.192 -1.542,3.67 0,0.98 0.235,1.852 0.702,2.618 0.467,0.767 1.123,1.355 1.966,1.762 0.842,0.408 2.058,0.765 3.646,1.069 2.142,0.402 3.627,0.777 4.453,1.125 v 0.457 c 0,0.881 -0.218,1.509 -0.652,1.884 -0.435,0.376 -1.256,0.563 -2.463,0.563 -0.816,0 -1.452,-0.16 -1.91,-0.481 C -5.481,5.087 -5.851,4.524 -6.134,3.72"
         style="fill:#231f20;fill-opacity:1;fill-rule:nonzero;stroke:none"
         transform="matrix(1.3333333,0,0,-1.3333333,935.412,55.453333)"
         clip-path="url(#clipPath34)" />
    </g>
  </g>
</svg>
