<?xml version="1.0" encoding="UTF-8" standalone="no"?>
<!-- Created with Inkscape (http://www.inkscape.org/) -->

<svg
   version="1.1"
   id="svg1"
   width="960.05334"
   height="157.964"
   viewBox="0 0 960.05334 157.964"
   sodipodi:docname="Macedonia RC.svg"
   inkscape:version="1.3.2 (091e20e, 2023-11-25, custom)"
   xmlns:inkscape="http://www.inkscape.org/namespaces/inkscape"
   xmlns:sodipodi="http://sodipodi.sourceforge.net/DTD/sodipodi-0.dtd"
   xmlns="http://www.w3.org/2000/svg"
   xmlns:svg="http://www.w3.org/2000/svg">
  <defs
     id="defs1">
    <clipPath
       clipPathUnits="userSpaceOnUse"
       id="clipPath3">
      <path
         d="M 0,118.44 H 720 V 0 H 0 Z"
         transform="translate(-118.473,-77.738002)"
         id="path3" />
    </clipPath>
    <clipPath
       clipPathUnits="userSpaceOnUse"
       id="clipPath22">
      <path
         d="M 0,118.44 H 720 V 0 H 0 Z"
         transform="translate(-694.97002,-48.812001)"
         id="path22" />
    </clipPath>
  </defs>
  <sodipodi:namedview
     id="namedview1"
     pagecolor="#ffffff"
     bordercolor="#666666"
     borderopacity="1.0"
     inkscape:showpageshadow="2"
     inkscape:pageopacity="0.0"
     inkscape:pagecheckerboard="0"
     inkscape:deskcolor="#d1d1d1"
     inkscape:export-bgcolor="#ffffffff"
     inkscape:zoom="0.97390421"
     inkscape:cx="480.02667"
     inkscape:cy="78.54982"
     inkscape:window-width="1920"
     inkscape:window-height="1017"
     inkscape:window-x="-8"
     inkscape:window-y="-8"
     inkscape:window-maximized="1"
     inkscape:current-layer="g1">
    <inkscape:page
       x="0"
       y="0"
       inkscape:label="1"
       id="page1"
       width="960.05334"
       height="157.964"
       margin="0"
       bleed="0"
       inkscape:export-filename="Macedonia RC.png"
       inkscape:export-xdpi="300"
       inkscape:export-ydpi="300" />
  </sodipodi:namedview>
  <g
     id="g1"
     inkscape:groupmode="layer"
     inkscape:label="1">
    <g
       id="group-MC1">
      <path
         id="path2"
         d="M 0,0 H -40.736 V 40.735 H -77.738 V 0 h -40.735 v -37.002 h 40.735 v -40.736 h 37.002 v 40.736 H 0 V 0"
         style="fill:#ed1c24;fill-opacity:1;fill-rule:nonzero;stroke:none"
         transform="matrix(1.3333333,0,0,-1.3333333,157.964,54.313333)"
         clip-path="url(#clipPath3)" />
      <path
         id="path4"
         d="m 0,0 v 37.049 h 11.195 l 6.723,-25.272 6.646,25.272 H 35.785 V 0 h -6.95 V 29.164 L 21.481,0 H 14.279 L 6.95,29.164 V 0 H 0"
         style="fill:#231f20;fill-opacity:1;fill-rule:nonzero;stroke:none"
         transform="matrix(1.3333333,0,0,-1.3333333,205.156,103.09067)" />
      <path
         id="path5"
         d="m 0,0 c -0.91,-0.303 -2.35,-0.666 -4.321,-1.087 -1.971,-0.421 -3.261,-0.834 -3.867,-1.238 -0.927,-0.657 -1.39,-1.491 -1.39,-2.502 0,-0.994 0.37,-1.854 1.112,-2.577 0.741,-0.725 1.684,-1.087 2.83,-1.087 1.281,0 2.502,0.421 3.665,1.263 0.859,0.64 1.424,1.424 1.693,2.351 C -0.093,-4.271 0,-3.117 0,-1.415 Z m -9.502,5.762 -6.445,1.163 c 0.724,2.594 1.971,4.515 3.74,5.762 1.769,1.247 4.398,1.87 7.886,1.87 3.167,0 5.526,-0.375 7.076,-1.125 1.55,-0.749 2.64,-1.702 3.272,-2.855 C 6.659,9.422 6.975,7.304 6.975,4.221 L 6.899,-4.068 c 0,-2.36 0.114,-4.099 0.342,-5.219 0.227,-1.121 0.653,-2.321 1.276,-3.602 H 1.491 c -0.185,0.472 -0.413,1.171 -0.682,2.098 -0.118,0.421 -0.203,0.699 -0.253,0.834 -1.213,-1.18 -2.511,-2.064 -3.892,-2.653 -1.381,-0.59 -2.855,-0.885 -4.422,-0.885 -2.764,0 -4.941,0.749 -6.534,2.249 -1.591,1.499 -2.388,3.394 -2.388,5.687 0,1.516 0.363,2.868 1.087,4.055 0.724,1.189 1.739,2.098 3.046,2.73 1.305,0.631 3.188,1.183 5.648,1.655 C -3.58,3.505 -1.28,4.086 0,4.625 V 5.333 C 0,6.697 -0.337,7.67 -1.011,8.251 -1.685,8.833 -2.957,9.124 -4.827,9.124 -6.09,9.124 -7.076,8.875 -7.784,8.378 -8.491,7.881 -9.064,7.009 -9.502,5.762"
         style="fill:#231f20;fill-opacity:1;fill-rule:nonzero;stroke:none"
         transform="matrix(1.3333333,0,0,-1.3333333,282.45467,85.905333)" />
      <path
         id="path6"
         d="m 0,0 -7.001,-1.264 c -0.236,1.398 -0.771,2.452 -1.605,3.159 -0.834,0.708 -1.916,1.062 -3.247,1.062 -1.769,0 -3.18,-0.611 -4.233,-1.832 -1.053,-1.222 -1.58,-3.265 -1.58,-6.129 0,-3.184 0.535,-5.434 1.605,-6.747 1.07,-1.315 2.506,-1.972 4.309,-1.972 1.348,0 2.452,0.383 3.311,1.15 0.859,0.766 1.466,2.085 1.819,3.955 l 6.975,-1.188 c -0.724,-3.201 -2.114,-5.619 -4.169,-7.253 -2.056,-1.634 -4.811,-2.451 -8.264,-2.451 -3.926,0 -7.056,1.238 -9.389,3.715 -2.334,2.476 -3.5,5.905 -3.5,10.286 0,4.43 1.171,7.88 3.513,10.348 2.341,2.469 5.509,3.703 9.502,3.703 3.268,0 5.867,-0.704 7.797,-2.11 C -2.229,5.024 -0.843,2.881 0,0"
         style="fill:#231f20;fill-opacity:1;fill-rule:nonzero;stroke:none"
         transform="matrix(1.3333333,0,0,-1.3333333,332.292,77.885333)" />
      <path
         id="path7"
         d="m 0,0 c -0.05,2.055 -0.581,3.618 -1.591,4.687 -1.012,1.07 -2.242,1.605 -3.69,1.605 -1.551,0 -2.831,-0.565 -3.842,-1.693 C -10.133,3.47 -10.631,1.937 -10.614,0 Z m -0.404,-7.178 7.076,-1.187 c -0.909,-2.595 -2.346,-4.571 -4.308,-5.927 -1.963,-1.357 -4.419,-2.034 -7.367,-2.034 -4.667,0 -8.122,1.524 -10.362,4.574 -1.769,2.442 -2.654,5.526 -2.654,9.25 0,4.448 1.163,7.931 3.488,10.45 2.325,2.518 5.265,3.778 8.82,3.778 3.993,0 7.144,-1.319 9.452,-3.955 C 6.049,5.134 7.153,1.095 7.052,-4.348 H -10.74 c 0.051,-2.105 0.623,-3.744 1.719,-4.915 1.094,-1.171 2.459,-1.757 4.094,-1.757 1.112,0 2.047,0.304 2.805,0.911 0.758,0.606 1.331,1.584 1.718,2.931"
         style="fill:#231f20;fill-opacity:1;fill-rule:nonzero;stroke:none"
         transform="matrix(1.3333333,0,0,-1.3333333,360.73067,82.130667)" />
      <path
         id="path8"
         d="m 0,0 c 0,-2.864 0.396,-4.937 1.188,-6.217 1.146,-1.853 2.746,-2.78 4.801,-2.78 1.635,0 3.025,0.695 4.17,2.085 1.146,1.39 1.719,3.466 1.719,6.229 0,3.083 -0.556,5.303 -1.668,6.66 C 9.098,7.333 7.674,8.011 5.939,8.011 4.254,8.011 2.843,7.341 1.706,6.002 0.569,4.663 0,2.662 0,0 Z m 18.954,-14.001 h -6.596 v 3.942 c -1.095,-1.533 -2.388,-2.674 -3.879,-3.423 -1.492,-0.75 -2.995,-1.125 -4.511,-1.125 -3.083,0 -5.724,1.242 -7.923,3.727 -2.199,2.485 -3.298,5.951 -3.298,10.4 0,4.549 1.069,8.007 3.21,10.374 2.139,2.367 4.843,3.551 8.112,3.551 2.998,0 5.593,-1.247 7.784,-3.74 v 13.343 h 7.101 v -37.049"
         style="fill:#231f20;fill-opacity:1;fill-rule:nonzero;stroke:none"
         transform="matrix(1.3333333,0,0,-1.3333333,385.39733,84.422667)" />
      <path
         id="path9"
         d="m 0,0 c 0,-2.663 0.632,-4.701 1.895,-6.116 1.264,-1.415 2.823,-2.123 4.676,-2.123 1.853,0 3.407,0.708 4.662,2.123 1.255,1.415 1.883,3.47 1.883,6.166 0,2.629 -0.628,4.65 -1.883,6.066 C 9.978,7.531 8.424,8.238 6.571,8.238 4.718,8.238 3.159,7.531 1.895,6.116 0.632,4.7 0,2.661 0,0 Z m -7.278,0.379 c 0,2.358 0.581,4.641 1.744,6.849 1.162,2.207 2.808,3.892 4.94,5.054 2.131,1.162 4.511,1.744 7.14,1.744 4.059,0 7.387,-1.319 9.982,-3.955 2.594,-2.637 3.892,-5.969 3.892,-9.996 0,-4.06 -1.31,-7.426 -3.93,-10.096 -2.62,-2.67 -5.918,-4.005 -9.894,-4.005 -2.46,0 -4.806,0.555 -7.039,1.668 -2.232,1.112 -3.929,2.742 -5.091,4.889 -1.163,2.149 -1.744,4.765 -1.744,7.848"
         style="fill:#231f20;fill-opacity:1;fill-rule:nonzero;stroke:none"
         transform="matrix(1.3333333,0,0,-1.3333333,427.51733,85.197333)" />
      <path
         id="path10"
         d="m 0,0 h -7.101 v 13.697 c 0,2.898 -0.152,4.773 -0.455,5.624 -0.303,0.85 -0.796,1.512 -1.479,1.984 -0.681,0.471 -1.503,0.707 -2.464,0.707 -1.229,0 -2.334,-0.337 -3.31,-1.011 -0.978,-0.674 -1.647,-1.566 -2.009,-2.679 -0.362,-1.112 -0.544,-3.168 -0.544,-6.166 V 0 h -7.101 v 26.839 h 6.596 v -3.943 c 2.342,3.033 5.29,4.55 8.845,4.55 1.567,0 2.999,-0.283 4.297,-0.847 1.297,-0.565 2.278,-1.285 2.944,-2.161 0.665,-0.876 1.128,-1.87 1.39,-2.982 C -0.13,20.344 0,18.752 0,16.68 V 0"
         style="fill:#231f20;fill-opacity:1;fill-rule:nonzero;stroke:none"
         transform="matrix(1.3333333,0,0,-1.3333333,494.708,103.09067)" />
      <path
         id="path11"
         d="M 7.101,0 H 0 V 26.839 H 7.101 Z M 0,0 Z M 7.101,30.479 H 0 v 6.5708 h 7.101 z"
         style="fill:#231f20;fill-opacity:1;fill-rule:nonzero;stroke:none"
         transform="matrix(1.3333333,0,0,-1.3333333,504.312,103.09067)" />
      <path
         id="path12"
         d="m 0,0 c -0.91,-0.303 -2.351,-0.666 -4.321,-1.087 -1.972,-0.421 -3.26,-0.834 -3.867,-1.238 -0.927,-0.657 -1.39,-1.491 -1.39,-2.502 0,-0.994 0.37,-1.854 1.112,-2.577 0.741,-0.725 1.685,-1.087 2.83,-1.087 1.281,0 2.502,0.421 3.665,1.263 0.859,0.64 1.423,1.424 1.693,2.351 C -0.093,-4.271 0,-3.117 0,-1.415 Z m -9.502,5.762 -6.444,1.163 c 0.723,2.594 1.97,4.515 3.74,5.762 1.769,1.247 4.397,1.87 7.885,1.87 3.167,0 5.525,-0.375 7.076,-1.125 C 4.305,12.683 5.396,11.73 6.027,10.577 6.659,9.422 6.976,7.304 6.976,4.221 L 6.899,-4.068 c 0,-2.36 0.114,-4.099 0.341,-5.219 0.228,-1.121 0.654,-2.321 1.277,-3.602 H 1.491 c -0.185,0.472 -0.413,1.171 -0.682,2.098 -0.119,0.421 -0.203,0.699 -0.253,0.834 -1.213,-1.18 -2.51,-2.064 -3.892,-2.653 -1.382,-0.59 -2.855,-0.885 -4.423,-0.885 -2.762,0 -4.94,0.749 -6.532,2.249 -1.593,1.499 -2.389,3.394 -2.389,5.687 0,1.516 0.363,2.868 1.087,4.055 0.725,1.189 1.739,2.098 3.045,2.73 1.306,0.631 3.189,1.183 5.649,1.655 C -3.58,3.505 -1.28,4.086 0,4.625 V 5.333 C 0,6.697 -0.337,7.67 -1.011,8.251 -1.685,8.833 -2.957,9.124 -4.827,9.124 -6.091,9.124 -7.076,8.875 -7.784,8.378 -8.491,7.881 -9.064,7.009 -9.502,5.762"
         style="fill:#231f20;fill-opacity:1;fill-rule:nonzero;stroke:none"
         transform="matrix(1.3333333,0,0,-1.3333333,543.23067,85.905333)" />
      <path
         id="path13"
         d="m 0,0 h -7.102 v 13.697 c 0,2.898 -0.151,4.773 -0.455,5.624 -0.303,0.85 -0.796,1.512 -1.478,1.984 -0.682,0.471 -1.503,0.707 -2.464,0.707 -1.23,0 -2.334,-0.337 -3.311,-1.011 -0.977,-0.674 -1.646,-1.566 -2.009,-2.679 -0.362,-1.112 -0.544,-3.168 -0.544,-6.166 V 0 h -7.101 v 26.839 h 6.596 v -3.943 c 2.342,3.033 5.291,4.55 8.845,4.55 1.568,0 2.999,-0.283 4.297,-0.847 1.297,-0.565 2.278,-1.285 2.944,-2.161 0.665,-0.876 1.128,-1.87 1.39,-2.982 C -0.131,20.344 0,18.752 0,16.68 V 0"
         style="fill:#231f20;fill-opacity:1;fill-rule:nonzero;stroke:none"
         transform="matrix(1.3333333,0,0,-1.3333333,594.416,103.09067)" />
      <path
         id="path14"
         d="m 0,0 h 5.535 c 3.588,0 5.829,0.151 6.722,0.455 0.893,0.303 1.592,0.825 2.098,1.566 0.506,0.742 0.758,1.668 0.758,2.781 0,1.246 -0.332,2.253 -0.998,3.02 C 13.449,8.588 12.51,9.073 11.297,9.275 10.691,9.359 8.87,9.401 5.838,9.401 H 0 Z M -7.48,-21.38 V 15.669 H 8.264 c 3.959,0 6.836,-0.333 8.631,-0.999 1.794,-0.665 3.23,-1.849 4.308,-3.55 1.079,-1.702 1.618,-3.648 1.618,-5.838 0,-2.78 -0.818,-5.076 -2.452,-6.887 -1.633,-1.811 -4.077,-2.952 -7.329,-3.425 1.619,-0.943 2.954,-1.979 4.006,-3.108 1.053,-1.129 2.473,-3.133 4.259,-6.015 l 4.523,-7.227 h -8.946 l -5.408,8.061 C 9.553,-10.437 8.239,-8.622 7.532,-7.873 6.824,-7.123 6.074,-6.609 5.283,-6.33 4.49,-6.053 3.235,-5.914 1.517,-5.914 H 0 V -21.38 h -7.48"
         style="fill:#231f20;fill-opacity:1;fill-rule:nonzero;stroke:none"
         transform="matrix(1.3333333,0,0,-1.3333333,633.26667,74.584)" />
      <path
         id="path15"
         d="m 0,0 c -0.051,2.055 -0.582,3.618 -1.593,4.687 -1.011,1.07 -2.24,1.605 -3.689,1.605 -1.55,0 -2.83,-0.565 -3.842,-1.693 C -10.135,3.47 -10.632,1.937 -10.614,0 Z m -0.404,-7.178 7.076,-1.187 c -0.91,-2.595 -2.347,-4.571 -4.31,-5.927 -1.963,-1.357 -4.418,-2.034 -7.366,-2.034 -4.667,0 -8.121,1.524 -10.362,4.574 -1.769,2.442 -2.654,5.526 -2.654,9.25 0,4.448 1.163,7.931 3.488,10.45 2.325,2.518 5.265,3.778 8.82,3.778 3.993,0 7.144,-1.319 9.452,-3.955 C 6.048,5.134 7.151,1.095 7.051,-4.348 h -17.792 c 0.05,-2.105 0.623,-3.744 1.718,-4.915 1.095,-1.171 2.46,-1.757 4.094,-1.757 1.113,0 2.047,0.304 2.806,0.911 0.758,0.606 1.331,1.584 1.719,2.931"
         style="fill:#231f20;fill-opacity:1;fill-rule:nonzero;stroke:none"
         transform="matrix(1.3333333,0,0,-1.3333333,694.292,82.130667)" />
      <path
         id="path16"
         d="m 0,0 c 0,-2.864 0.395,-4.937 1.187,-6.217 1.146,-1.853 2.747,-2.78 4.802,-2.78 1.635,0 3.025,0.695 4.17,2.085 1.146,1.39 1.719,3.466 1.719,6.229 0,3.083 -0.556,5.303 -1.668,6.66 C 9.098,7.333 7.674,8.011 5.939,8.011 4.254,8.011 2.843,7.341 1.706,6.002 0.568,4.663 0,2.662 0,0 Z m 18.954,-14.001 h -6.596 v 3.942 c -1.095,-1.533 -2.388,-2.674 -3.88,-3.423 -1.491,-0.75 -2.994,-1.125 -4.51,-1.125 -3.083,0 -5.725,1.242 -7.923,3.727 -2.198,2.485 -3.298,5.951 -3.298,10.4 0,4.549 1.069,8.007 3.209,10.374 2.14,2.367 4.844,3.551 8.113,3.551 2.998,0 5.593,-1.247 7.783,-3.74 v 13.343 h 7.102 v -37.049"
         style="fill:#231f20;fill-opacity:1;fill-rule:nonzero;stroke:none"
         transform="matrix(1.3333333,0,0,-1.3333333,718.95733,84.422667)" />
      <path
         id="path17"
         d="m 0,0 7.253,-2.3 c -1.112,-4.044 -2.961,-7.047 -5.547,-9.01 -2.587,-1.962 -5.867,-2.944 -9.844,-2.944 -4.92,0 -8.963,1.681 -12.131,5.042 -3.167,3.361 -4.751,7.956 -4.751,13.786 0,6.166 1.593,10.955 4.777,14.367 3.184,3.412 7.371,5.118 12.56,5.118 4.532,0 8.214,-1.34 11.044,-4.018 1.685,-1.584 2.948,-3.859 3.791,-6.824 l -7.405,-1.769 c -0.438,1.921 -1.352,3.437 -2.741,4.549 -1.391,1.112 -3.08,1.668 -5.068,1.668 -2.746,0 -4.974,-0.986 -6.684,-2.957 -1.71,-1.971 -2.566,-5.164 -2.566,-9.578 0,-4.684 0.843,-8.02 2.528,-10.008 1.684,-1.988 3.875,-2.982 6.571,-2.982 1.987,0 3.697,0.631 5.13,1.895 C -1.652,-4.701 -0.623,-2.713 0,0"
         style="fill:#231f20;fill-opacity:1;fill-rule:nonzero;stroke:none"
         transform="matrix(1.3333333,0,0,-1.3333333,804.41067,84.928)" />
      <path
         id="path18"
         d="m 0,0 h -7.102 v 26.839 h 6.596 v -3.816 c 1.129,1.803 2.143,2.99 3.045,3.563 0.901,0.573 1.925,0.86 3.071,0.86 1.617,0 3.175,-0.447 4.675,-1.34 L 8.087,19.915 C 6.89,20.689 5.778,21.077 4.751,21.077 3.757,21.077 2.914,20.803 2.223,20.256 1.532,19.708 0.989,18.718 0.593,17.286 0.197,15.854 0,12.855 0,8.289 V 0"
         style="fill:#231f20;fill-opacity:1;fill-rule:nonzero;stroke:none"
         transform="matrix(1.3333333,0,0,-1.3333333,831.63867,103.09067)" />
      <path
         id="path19"
         d="m 0,0 c 0,-2.663 0.632,-4.701 1.896,-6.116 1.263,-1.415 2.822,-2.123 4.676,-2.123 1.852,0 3.407,0.708 4.662,2.123 1.254,1.415 1.882,3.47 1.882,6.166 0,2.629 -0.628,4.65 -1.882,6.066 C 9.979,7.531 8.424,8.238 6.572,8.238 4.718,8.238 3.159,7.531 1.896,6.116 0.632,4.7 0,2.661 0,0 Z m -7.278,0.379 c 0,2.358 0.581,4.641 1.744,6.849 1.162,2.207 2.809,3.892 4.94,5.054 2.131,1.162 4.511,1.744 7.14,1.744 4.06,0 7.388,-1.319 9.983,-3.955 2.593,-2.637 3.891,-5.969 3.891,-9.996 0,-4.06 -1.309,-7.426 -3.93,-10.096 -2.62,-2.67 -5.918,-4.005 -9.894,-4.005 -2.46,0 -4.806,0.555 -7.038,1.668 -2.233,1.112 -3.93,2.742 -5.092,4.889 -1.163,2.149 -1.744,4.765 -1.744,7.848"
         style="fill:#231f20;fill-opacity:1;fill-rule:nonzero;stroke:none"
         transform="matrix(1.3333333,0,0,-1.3333333,856.94267,85.197333)" />
      <path
         id="path20"
         d="m 0,0 7.127,1.087 c 0.303,-1.382 0.918,-2.431 1.844,-3.147 0.927,-0.715 2.224,-1.074 3.892,-1.074 1.837,0 3.219,0.337 4.146,1.011 0.623,0.472 0.934,1.103 0.934,1.895 0,0.539 -0.169,0.987 -0.505,1.34 C 17.084,1.449 16.292,1.761 15.062,2.047 9.334,3.31 5.703,4.465 4.17,5.51 2.047,6.958 0.985,8.972 0.985,11.55 c 0,2.325 0.919,4.279 2.755,5.863 1.836,1.583 4.684,2.376 8.542,2.376 3.673,0 6.402,-0.599 8.188,-1.795 1.786,-1.197 3.016,-2.966 3.69,-5.307 l -6.697,-1.238 c -0.286,1.044 -0.83,1.844 -1.63,2.401 -0.8,0.555 -1.942,0.834 -3.424,0.834 -1.87,0 -3.21,-0.262 -4.019,-0.784 -0.539,-0.371 -0.808,-0.851 -0.808,-1.441 0,-0.505 0.235,-0.935 0.707,-1.289 0.64,-0.471 2.851,-1.137 6.635,-1.996 3.782,-0.86 6.422,-1.912 7.922,-3.159 1.483,-1.264 2.224,-3.025 2.224,-5.282 0,-2.46 -1.028,-4.574 -3.083,-6.343 -2.056,-1.769 -5.097,-2.654 -9.124,-2.654 -3.655,0 -6.55,0.741 -8.681,2.224 C 2.051,-4.558 0.657,-2.544 0,0"
         style="fill:#231f20;fill-opacity:1;fill-rule:nonzero;stroke:none"
         transform="matrix(1.3333333,0,0,-1.3333333,888.24667,92.881333)" />
      <path
         id="path21"
         d="m 0,0 7.127,1.087 c 0.304,-1.382 0.918,-2.431 1.845,-3.147 0.926,-0.715 2.223,-1.074 3.891,-1.074 1.837,0 3.219,0.337 4.146,1.011 0.623,0.472 0.934,1.103 0.934,1.895 0,0.539 -0.169,0.987 -0.505,1.34 C 17.084,1.449 16.292,1.761 15.062,2.047 9.334,3.31 5.703,4.465 4.17,5.51 2.047,6.958 0.985,8.972 0.985,11.55 c 0,2.325 0.919,4.279 2.755,5.863 1.836,1.583 4.684,2.376 8.542,2.376 3.673,0 6.402,-0.599 8.189,-1.795 1.785,-1.197 3.015,-2.966 3.689,-5.307 l -6.697,-1.238 c -0.286,1.044 -0.83,1.844 -1.63,2.401 -0.8,0.555 -1.941,0.834 -3.424,0.834 -1.87,0 -3.21,-0.262 -4.018,-0.784 -0.54,-0.371 -0.809,-0.851 -0.809,-1.441 0,-0.505 0.235,-0.935 0.707,-1.289 0.641,-0.471 2.852,-1.137 6.635,-1.996 3.782,-0.86 6.423,-1.912 7.923,-3.159 1.482,-1.264 2.223,-3.025 2.223,-5.282 0,-2.46 -1.028,-4.574 -3.083,-6.343 -2.055,-1.769 -5.096,-2.654 -9.124,-2.654 -3.655,0 -6.55,0.741 -8.68,2.224 C 2.051,-4.558 0.657,-2.544 0,0"
         style="fill:#231f20;fill-opacity:1;fill-rule:nonzero;stroke:none"
         transform="matrix(1.3333333,0,0,-1.3333333,926.62667,92.881333)"
         clip-path="url(#clipPath22)" />
    </g>
  </g>
</svg>
