<svg id="Layer_1" data-name="Layer 1" xmlns="http://www.w3.org/2000/svg" viewBox="0 0 241.18 35.73"><defs><style>.cls-1{fill:#e30613;}.cls-2{fill:#1d1d1b;}</style></defs><title>MKD_NCLogo</title><rect class="cls-1" x="11.59" y="0.8" width="11.59" height="34.77"/><rect class="cls-1" y="12.39" width="34.77" height="11.59"/><path class="cls-2" d="M241.18,5.79a3.49,3.49,0,0,0-.61-2.29,2.49,2.49,0,0,0-2-.71,7,7,0,0,0-2.09.34V4.74a3,3,0,0,1,1.8-.54c0.85,0,1.25.3,1.25,1V5.33h-1c-1.75,0-2.53.7-2.53,2.24a2.37,2.37,0,0,0,.49,1.56,1.59,1.59,0,0,0,1.28.58,1.82,1.82,0,0,0,1.72-1.14v1h1.63V5.79m-1.63,1a1.79,1.79,0,0,1-.31,1.07,0.93,0.93,0,0,1-.77.42,0.75,0.75,0,0,1-.78-0.85,0.85,0.85,0,0,1,1-.88h0.84V6.83Zm-5.9-4.71h1.61V0.39h-1.61V2.11Zm0,7.33a2.15,2.15,0,0,1-.18,1.06,0.67,0.67,0,0,1-.62.27h-0.27v1.38h0.79c1.23,0,1.9-1,1.9-2.71V3h-1.61V9.44Zm-4.08-3V3H228v6.6h1.67L231.27,6V9.55h1.6V3h-1.67Zm-6,3.09V6.77h1.6V9.55h1.61V3h-1.61V5.46h-1.6V3H222v6.6h1.61ZM218.21,2.8a2.48,2.48,0,0,0-2,.92,4,4,0,0,0-.74,2.54,4,4,0,0,0,.74,2.54,2.48,2.48,0,0,0,2,.91,2.45,2.45,0,0,0,2-.91A4,4,0,0,0,221,6.26a4,4,0,0,0-.73-2.54A2.46,2.46,0,0,0,218.21,2.8Zm0,1.51c0.7,0,1.08.69,1.08,1.95s-0.38,1.95-1.08,1.95-1.1-.69-1.1-1.95S217.49,4.31,218.21,4.31ZM210.88,8a12.39,12.39,0,0,0,.37-3.4V4.46h1.15V8h-1.52Zm-2.45,3.17h1.15V9.55h4.11v1.66h1.15V8H214V3h-4.36V4.21a12.21,12.21,0,0,1-.22,2.87,1.38,1.38,0,0,1-.72,1h-0.27v3.17Zm-4.56-5.67A1.23,1.23,0,0,1,205,4.2a0.83,0.83,0,0,1,.7.37,1.61,1.61,0,0,1,.27,1h-2.1Zm3.75,0.7a4,4,0,0,0-.72-2.5A2.26,2.26,0,0,0,205,2.8a2.48,2.48,0,0,0-2,.92,4,4,0,0,0-.75,2.54A3.89,3.89,0,0,0,203,8.81a2.62,2.62,0,0,0,2.14.9,5.13,5.13,0,0,0,2.28-.56V7.52a3.68,3.68,0,0,1-2.14.79,1.34,1.34,0,0,1-1.39-1.48h3.76V6.24ZM198,9.55V7.39l0.45-.57,1.62,2.73h1.67l-2.32-3.92L201.54,3h-1.77L198,5.19V3h-1.61v6.6H198Zm-2.74-3.76a3.49,3.49,0,0,0-.61-2.29,2.49,2.49,0,0,0-2-.71,7,7,0,0,0-2.09.34V4.74a3,3,0,0,1,1.8-.54c0.85,0,1.25.3,1.25,1V5.33h-1c-1.75,0-2.53.7-2.53,2.24a2.37,2.37,0,0,0,.49,1.56,1.59,1.59,0,0,0,1.28.58,1.82,1.82,0,0,0,1.72-1.14v1h1.63V5.79Zm-1.63,1a1.79,1.79,0,0,1-.31,1.07,0.93,0.93,0,0,1-.77.42,0.75,0.75,0,0,1-.78-0.85,0.85,0.85,0,0,1,1-.88h0.84V6.83ZM183.47,9.55V3.12L185,7.86h1.1l1.55-4.74V9.55h1.64V0.76h-2.2l-1.54,4.7L184,0.76h-2.21V9.55h1.65Zm-6.2-3.76a3.49,3.49,0,0,0-.6-2.29,2.49,2.49,0,0,0-2-.71,7,7,0,0,0-2.09.34V4.74a3,3,0,0,1,1.8-.54c0.85,0,1.25.3,1.25,1V5.33h-1c-1.75,0-2.53.7-2.53,2.24a2.38,2.38,0,0,0,.49,1.56,1.6,1.6,0,0,0,1.28.58,1.82,1.82,0,0,0,1.72-1.14v1h1.63V5.79Zm-1.63,1a1.79,1.79,0,0,1-.31,1.07,0.93,0.93,0,0,1-.77.42,0.75,0.75,0,0,1-.78-0.85,0.85,0.85,0,0,1,1-.88h0.84V6.83ZM168,9.55V7.39l0.45-.57L170,9.55h1.67l-2.32-3.92L171.52,3h-1.77L168,5.19V3h-1.61v6.6H168Zm-6.11-3.09V3h-1.6v6.6h1.67L163.54,6V9.55h1.61V3h-1.67Zm-8.24,3.09A2.38,2.38,0,0,0,156,8a11.09,11.09,0,0,0,.31-3.34V4.46h1.14V9.55h1.61V3h-4.35V4a19.47,19.47,0,0,1-.14,3.11,1.25,1.25,0,0,1-1,.9V9.55Zm-3.44-5.25c0.71,0,1.1.69,1.1,1.95s-0.39,1.95-1.1,1.95-1.09-.69-1.09-1.95S149.47,4.31,150.17,4.31Zm-2.78,1.59c0,0.09,0,.22,0,0.36a3.94,3.94,0,0,0,.73,2.54,2.47,2.47,0,0,0,2,.91,2.45,2.45,0,0,0,2-.91,4,4,0,0,0,.73-2.54,4,4,0,0,0-.73-2.54,2.45,2.45,0,0,0-2-.92,2.53,2.53,0,0,0-1.65.54A1.82,1.82,0,0,1,149.08,2a2,2,0,0,1,1.09-.37,16.36,16.36,0,0,0,2.1-.32L151.9,0l-0.48.08a12.17,12.17,0,0,0-2.74.47,2.74,2.74,0,0,0-1.13,1.67,5.88,5.88,0,0,0-.26,1.91,4.38,4.38,0,0,0,.07.79ZM143.23,10a1.26,1.26,0,0,1-.3.61,0.89,0.89,0,0,1-.6.17h-0.5v1.38h0.94a1.49,1.49,0,0,0,1.12-.44,3.77,3.77,0,0,0,.75-1.54L146.76,3h-1.61L144,7.43,142.64,3H141l2.25,6.85Zm-7.48-.43h1.61V4.46H139V9.55h1.61V3h-4.82v6.6Zm-4.72-4a1.23,1.23,0,0,1,1.13-1.34,0.83,0.83,0,0,1,.7.37,1.61,1.61,0,0,1,.27,1H131Zm3.75,0.7a4,4,0,0,0-.72-2.5,2.26,2.26,0,0,0-1.9-.93,2.48,2.48,0,0,0-2,.92,4,4,0,0,0-.75,2.54,3.89,3.89,0,0,0,.75,2.55,2.62,2.62,0,0,0,2.13.9,5.13,5.13,0,0,0,2.28-.56V7.52a3.68,3.68,0,0,1-2.14.79A1.34,1.34,0,0,1,131,6.84h3.76V6.24ZM126,2.4a1,1,0,0,1,1.06,1.23A1,1,0,0,1,126,4.86h-1V2.4h1Zm-1,7.15V6.5h1.14c1.71,0,2.65-1,2.65-2.87s-0.94-2.87-2.65-2.87h-2.88V9.55h1.74ZM119,5.79a3.49,3.49,0,0,0-.61-2.29,2.49,2.49,0,0,0-2-.71,7,7,0,0,0-2.09.34V4.74a3,3,0,0,1,1.8-.54c0.85,0,1.25.3,1.25,1V5.33h-1c-1.75,0-2.53.7-2.53,2.24a2.37,2.37,0,0,0,.49,1.56,1.59,1.59,0,0,0,1.28.58,1.82,1.82,0,0,0,1.72-1.14v1H119V5.79Zm-1.63,1A1.79,1.79,0,0,1,117,7.9a0.93,0.93,0,0,1-.77.42,0.75,0.75,0,0,1-.78-0.85,0.85,0.85,0,0,1,1-.88h0.84V6.83Zm-7.42,2.73V6.77h1.6V9.55h1.61V3h-1.61V5.46h-1.6V3h-1.61v6.6h1.61Zm-9.16-5.29V9.55h1.61V4.26h1.82V3H98.92v1.3h1.84ZM98.52,3.17A3.55,3.55,0,0,0,97,2.8a2.64,2.64,0,0,0-2.14.92,3.79,3.79,0,0,0-.77,2.54,3.81,3.81,0,0,0,.77,2.55,2.66,2.66,0,0,0,2.14.9,3.63,3.63,0,0,0,1.54-.36V7.63a1.85,1.85,0,0,1-1.34.58c-0.9,0-1.43-.72-1.43-2s0.53-2,1.43-2a2,2,0,0,1,1.34.58V3.16h0ZM90.81,4.32c0.69,0,1.06.68,1.06,1.93S91.5,8.18,90.81,8.18s-1.07-.68-1.07-1.93S90.12,4.32,90.81,4.32ZM89.74,8.59a1.86,1.86,0,0,0,1.67,1.12,1.77,1.77,0,0,0,1.53-1,4.68,4.68,0,0,0,.6-2.49,4.65,4.65,0,0,0-.6-2.49,1.76,1.76,0,0,0-1.53-1,1.86,1.86,0,0,0-1.67,1.12V3H88.13v9.09h1.61V8.59h0Zm-6.29,1V7.39l0.45-.57,1.62,2.73h1.66L84.86,5.64,87,3H85.24l-1.8,2.23V3H81.84v6.6h1.61Zm-9.18,0V6.77h1.6V9.55h1.61V3H75.87V5.46h-1.6V3H72.66v6.6h1.61Zm-6.33-4A1.23,1.23,0,0,1,69.07,4.2a0.83,0.83,0,0,1,.7.37,1.61,1.61,0,0,1,.27,1h-2.1Zm3.75,0.7A4,4,0,0,0,71,3.73a2.26,2.26,0,0,0-1.9-.93,2.48,2.48,0,0,0-2,.92,4,4,0,0,0-.75,2.54A3.89,3.89,0,0,0,67,8.81a2.62,2.62,0,0,0,2.14.9,5.13,5.13,0,0,0,2.28-.56V7.52a3.68,3.68,0,0,1-2.14.79,1.34,1.34,0,0,1-1.39-1.48h3.77V6.24ZM63.48,9.55c1.42,0,2.11-.62,2.11-1.89A1.58,1.58,0,0,0,64.66,6a1.34,1.34,0,0,0,.72-1.32,1.62,1.62,0,0,0-.5-1.32A2.54,2.54,0,0,0,63.26,3H60.95V9.55h2.53Zm-0.93-2.8h0.82a0.64,0.64,0,0,1,.72.73,0.65,0.65,0,0,1-.72.75H62.55V6.76Zm0-2.49h0.77a0.51,0.51,0,0,1,.57.59,0.52,0.52,0,0,1-.57.59H62.55V4.26Zm-5.33.06c0.69,0,1.06.68,1.06,1.93s-0.37,1.93-1.06,1.93-1.07-.68-1.07-1.93S56.53,4.32,57.22,4.32ZM56.15,8.59a1.85,1.85,0,0,0,1.67,1.12,1.77,1.77,0,0,0,1.53-1,4.68,4.68,0,0,0,.6-2.49,4.65,4.65,0,0,0-.6-2.49,1.77,1.77,0,0,0-1.53-1,1.86,1.86,0,0,0-1.67,1.12V3H54.54v9.09h1.61V8.59h0Zm-2.62,2.84V7.84H52.4V0.76H50.67V7.84H48.11V0.76H46.37V9.55h5.84v1.88h1.31Z"/><path class="cls-2" d="M237.25,18.59a1.23,1.23,0,0,1,1.13-1.34,0.83,0.83,0,0,1,.7.37,1.6,1.6,0,0,1,.27,1h-2.1m3.76,0.7a4,4,0,0,0-.72-2.5,2.25,2.25,0,0,0-1.9-.94,2.48,2.48,0,0,0-2,.92,4,4,0,0,0-.75,2.54,3.91,3.91,0,0,0,.75,2.55,2.62,2.62,0,0,0,2.14.9,5.1,5.1,0,0,0,2.28-.57V20.58a3.7,3.7,0,0,1-2.14.79,1.34,1.34,0,0,1-1.39-1.48H241v-0.6Zm-1.25-4.56V13.28H238.7v1.45h1.06Zm-2.83,0H238V13.28h-1.06v1.45Zm-2.55,1.49a6.38,6.38,0,0,0-2-.36c-1.52,0-2.24.66-2.24,2.06a2.08,2.08,0,0,0,.43,1.45,2.57,2.57,0,0,0,1.51.65l0.29,0a1.45,1.45,0,0,1,.65.22,0.5,0.5,0,0,1,.16.42c0,0.44-.32.67-0.95,0.67a3.75,3.75,0,0,1-2-.61v1.6a6.31,6.31,0,0,0,2.13.41c1.58,0,2.37-.7,2.37-2.1a2.12,2.12,0,0,0-.43-1.48,3,3,0,0,0-1.67-.68l-0.28-.05c-0.58-.11-0.78-0.25-0.78-0.59s0.29-.61.91-0.61a4.06,4.06,0,0,1,1.91.57v-1.6Zm-6.6-1.05h1.61V13.45h-1.61v1.72Zm0,7.44h1.61V16h-1.61v6.6Zm-0.84-4c0-1.79-.62-2.73-1.77-2.73A2,2,0,0,0,223.48,17V16h-1.61v6.6h1.61V19.36c0-1.2.41-1.92,1.08-1.92a0.69,0.69,0,0,1,.63.44,1.93,1.93,0,0,1,.1.48c0,0.22,0,.61,0,1.18v3.08h1.61v-4Zm-8.83-2.73a2.48,2.48,0,0,0-2,.92,4,4,0,0,0-.74,2.54,4,4,0,0,0,.74,2.54,2.48,2.48,0,0,0,2,.91,2.46,2.46,0,0,0,2-.91,4,4,0,0,0,.73-2.54,4,4,0,0,0-.73-2.54A2.46,2.46,0,0,0,218.1,15.86Zm0,1.51c0.71,0,1.08.69,1.08,1.95s-0.38,2-1.08,2-1.1-.69-1.1-2S217.38,17.36,218.1,17.36Zm-6.22,3.88c-0.68,0-1.06-.68-1.06-1.93s0.38-1.93,1.06-1.93,1.07,0.68,1.07,1.93S212.58,21.24,211.88,21.24ZM212.95,17a1.86,1.86,0,0,0-1.67-1.12,1.76,1.76,0,0,0-1.53,1,4.71,4.71,0,0,0-.59,2.49,4.74,4.74,0,0,0,.59,2.5,1.77,1.77,0,0,0,1.53.95,1.84,1.84,0,0,0,1.67-1.12v1h1.62V13.45h-1.62V17Zm-8,1.61a1.23,1.23,0,0,1,1.13-1.34,0.82,0.82,0,0,1,.7.37,1.6,1.6,0,0,1,.27,1h-2.1Zm3.75,0.7a4,4,0,0,0-.72-2.5,2.26,2.26,0,0,0-1.9-.93,2.48,2.48,0,0,0-2,.92,4,4,0,0,0-.75,2.54,3.89,3.89,0,0,0,.75,2.55,2.63,2.63,0,0,0,2.14.9,5.12,5.12,0,0,0,2.28-.57V20.58a3.69,3.69,0,0,1-2.14.79,1.34,1.34,0,0,1-1.39-1.48h3.77V19.3Zm-6.52,5.81V16h-1.62v1a1.83,1.83,0,0,0-1.67-1.12,1.76,1.76,0,0,0-1.53,1,4.69,4.69,0,0,0-.6,2.49,4.73,4.73,0,0,0,.6,2.49,1.76,1.76,0,0,0,1.53,1,1.84,1.84,0,0,0,1.67-1.12v3.46h1.62Zm-2.69-7.72c0.7,0,1.07.68,1.07,1.93s-0.37,1.93-1.07,1.93-1.05-.68-1.05-1.93,0.38-1.93,1.05-1.93h0Zm-3.44,1.47a3.5,3.5,0,0,0-.6-2.29,2.49,2.49,0,0,0-2-.71,7,7,0,0,0-2.09.34v1.6a3,3,0,0,1,1.8-.54c0.85,0,1.25.3,1.25,1v0.16h-1c-1.75,0-2.53.7-2.53,2.24a2.37,2.37,0,0,0,.49,1.56,1.59,1.59,0,0,0,1.28.58,1.82,1.82,0,0,0,1.72-1.14v1h1.63V18.85Zm-1.63,1a1.79,1.79,0,0,1-.31,1.07,0.93,0.93,0,0,1-.77.42,0.75,0.75,0,0,1-.78-0.85,0.85,0.85,0,0,1,1-.88h0.84v0.24Zm-10,2.73V16.18l1.54,4.74H187l1.55-4.74v6.43h1.64V13.82H188l-1.54,4.7-1.53-4.7h-2.21v8.79h1.65Zm-9.79-4a1.23,1.23,0,0,1,1.13-1.34,0.83,0.83,0,0,1,.7.37,1.6,1.6,0,0,1,.27,1h-2.1Zm3.75,0.7a4,4,0,0,0-.72-2.5,2.25,2.25,0,0,0-1.9-.94,2.48,2.48,0,0,0-2,.92,4,4,0,0,0-.75,2.54,3.91,3.91,0,0,0,.75,2.55,2.63,2.63,0,0,0,2.14.9,5.09,5.09,0,0,0,2.28-.57V20.58a3.69,3.69,0,0,1-2.13.79,1.34,1.34,0,0,1-1.39-1.48h3.76v-0.6Zm-1.25-4.56V13.28h-1.05v1.45h1.06Zm-2.83,0h1.06V13.28h-1.06v1.45Zm-2.55,1.49a6.37,6.37,0,0,0-2-.36c-1.52,0-2.24.66-2.24,2.06a2.09,2.09,0,0,0,.43,1.45,2.57,2.57,0,0,0,1.51.65l0.29,0a1.45,1.45,0,0,1,.65.22,0.5,0.5,0,0,1,.17.42c0,0.44-.32.67-0.95,0.67a3.75,3.75,0,0,1-2-.61v1.6a6.32,6.32,0,0,0,2.13.41c1.58,0,2.37-.7,2.37-2.1a2.12,2.12,0,0,0-.43-1.48,3,3,0,0,0-1.67-.68l-0.28-.05c-0.58-.11-0.78-0.25-0.78-0.59s0.29-.61.91-0.61a4.06,4.06,0,0,1,1.91.57v-1.6Zm-8.64,0a6.37,6.37,0,0,0-2-.36c-1.52,0-2.24.66-2.24,2.06a2.09,2.09,0,0,0,.43,1.45,2.57,2.57,0,0,0,1.51.65l0.29,0a1.45,1.45,0,0,1,.65.22,0.5,0.5,0,0,1,.17.42c0,0.44-.32.67-0.95,0.67a3.75,3.75,0,0,1-2-.61v1.6a6.32,6.32,0,0,0,2.13.41c1.58,0,2.37-.7,2.37-2.1a2.12,2.12,0,0,0-.43-1.48,3,3,0,0,0-1.67-.68L161,18.46c-0.59-.11-0.78-0.25-0.78-0.59s0.29-.61.91-0.61a4.06,4.06,0,0,1,1.91.57v-1.6Zm-8.52,2.37a1.23,1.23,0,0,1,1.13-1.34,0.83,0.83,0,0,1,.7.37,1.6,1.6,0,0,1,.27,1h-2.1Zm3.76,0.7a4,4,0,0,0-.72-2.5,2.25,2.25,0,0,0-1.9-.94,2.48,2.48,0,0,0-2,.92,4,4,0,0,0-.75,2.54,3.91,3.91,0,0,0,.75,2.55,2.63,2.63,0,0,0,2.14.9,5.09,5.09,0,0,0,2.28-.57V20.58a3.69,3.69,0,0,1-2.13.79,1.34,1.34,0,0,1-1.39-1.48h3.76v-0.6Zm-1.25-4.56V13.28H156v1.45h1.06Zm-2.83,0h1.06V13.28h-1.06v1.45Zm-5.31,7.88V19.86l2,2.75h2L150.19,19l2.46-3h-1.87l-1.85,2.42v-5h-1.61v9.16h1.61Zm-4.42-7.44h1.61V13.45h-1.61v1.72Zm0,7.44h1.61V16h-1.61v6.6Zm-2.46,0h1.61V13.45H142v9.16Zm-6.19-9.16v9.15h1.61V21.66a1.86,1.86,0,0,0,1.67,1.11,1.77,1.77,0,0,0,1.53-1,4.67,4.67,0,0,0,.6-2.49,4.64,4.64,0,0,0-.6-2.49,1.77,1.77,0,0,0-1.53-1A1.86,1.86,0,0,0,137.47,17V13.45h-1.61Zm2.68,7.8c-0.69,0-1.07-.68-1.07-1.93s0.38-1.93,1.07-1.93,1.06,0.68,1.06,1.93S139.23,21.25,138.54,21.25ZM129.23,20c0,1.78.62,2.73,1.78,2.73a2,2,0,0,0,1.68-1.11v0.95h1.61V16H132.7v3.26c0,1.2-.41,1.92-1.08,1.92a0.69,0.69,0,0,1-.63-0.43,1.81,1.81,0,0,1-.11-0.51c0-.23,0-0.62,0-1.15,0-.18,0-0.54,0-1.08V16h-1.62v4Zm-3.55-2.66c0.69,0,1.06.68,1.06,1.93s-0.37,1.93-1.06,1.93-1.07-.68-1.07-1.93S125,17.38,125.68,17.38Zm-1.07,4.27a1.86,1.86,0,0,0,1.67,1.12,1.77,1.77,0,0,0,1.53-1,4.67,4.67,0,0,0,.6-2.49,4.65,4.65,0,0,0-.6-2.49,1.76,1.76,0,0,0-1.53-1A1.85,1.85,0,0,0,124.61,17V16H123v9.09h1.61V21.65h0Zm-6.24-3.06a1.23,1.23,0,0,1,1.13-1.34,0.82,0.82,0,0,1,.7.37,1.6,1.6,0,0,1,.27,1h-2.1Zm3.75,0.7a4,4,0,0,0-.72-2.5,2.26,2.26,0,0,0-1.9-.93,2.48,2.48,0,0,0-2,.92,4,4,0,0,0-.75,2.54,3.89,3.89,0,0,0,.75,2.55,2.63,2.63,0,0,0,2.14.9,5.12,5.12,0,0,0,2.28-.57V20.58a3.69,3.69,0,0,1-2.14.79,1.34,1.34,0,0,1-1.39-1.48h3.77V19.3Zm-9.67,0a1,1,0,0,1,.68.24,2.45,2.45,0,0,1,.51.9l0.81,2.19h1.85l-0.94-2.5a2.26,2.26,0,0,0-1.21-1.61,2.17,2.17,0,0,0,1.29-2.26c0-1.67-.8-2.42-2.57-2.42h-2.65v8.79H112V19.28h0.49ZM112,15.46h0.73a0.91,0.91,0,0,1,1,1.12,0.92,0.92,0,0,1-1,1.14H112V15.46Zm-7.84-.29h1.61V13.45h-1.61v1.72Zm0,7.44h1.61V16h-1.61v6.6Zm-4.39,2.5V16H98.12v1a1.84,1.84,0,0,0-1.67-1.12,1.76,1.76,0,0,0-1.53,1,4.7,4.7,0,0,0-.59,2.49,4.74,4.74,0,0,0,.59,2.49,1.76,1.76,0,0,0,1.53,1,1.84,1.84,0,0,0,1.67-1.12v3.46h1.62Zm-2.69-7.72c0.7,0,1.07.68,1.07,1.93s-0.37,1.93-1.07,1.93S96,20.57,96,19.31s0.38-1.93,1.06-1.93h0ZM88.13,20c0,1.78.62,2.73,1.78,2.73a2,2,0,0,0,1.68-1.11v0.95H93.2V16H91.59v3.26c0,1.2-.41,1.92-1.08,1.92a0.69,0.69,0,0,1-.63-0.43,1.8,1.8,0,0,1-.11-0.51c0-.23,0-0.62,0-1.15,0-.18,0-0.54,0-1.08V16H88.13v4Zm-4.64,2.57V19.86l2,2.75h2L84.75,19l2.46-3H85.34l-1.85,2.42v-5H81.88v9.16h1.61ZM75.9,15.17h1.61V13.45H75.9v1.72Zm0,7.44h1.61V16H75.9v6.6Zm-5.63-7.44h1.61V13.45H70.27v1.72Zm0,7.44h1.61V16H70.27v6.6ZM69,25.11V16H67.43v1a1.83,1.83,0,0,0-1.67-1.12,1.76,1.76,0,0,0-1.53,1,4.69,4.69,0,0,0-.6,2.49,4.73,4.73,0,0,0,.6,2.49,1.76,1.76,0,0,0,1.53,1,1.84,1.84,0,0,0,1.67-1.12v3.46H69Zm-2.69-7.72c0.7,0,1.07.68,1.07,1.93s-0.37,1.93-1.07,1.93-1.06-.68-1.06-1.93,0.38-1.93,1.06-1.93h0ZM59.68,23a1.26,1.26,0,0,1-.29.61,0.9,0.9,0,0,1-.6.17h-0.5v1.38h0.94a1.49,1.49,0,0,0,1.12-.44,3.78,3.78,0,0,0,.75-1.54L63.21,16H61.59l-1.15,4.48L59.08,16H57.47l2.25,6.85Zm-2.41-7.14a2.67,2.67,0,0,0-.45,0,1.77,1.77,0,0,0-1.68,1.24V16H53.53v6.6h1.61v-3c0-1.3.47-2,1.29-2a1.64,1.64,0,0,1,.85.25v-1.9h0Zm-9.17,6.71V19.15l2.67,3.46h2.17L49.37,18l3.24-4.16h-2L48.11,17V13.82H46.37v8.79h1.74Z"/><path class="cls-2" d="M157.87,29.19a6.37,6.37,0,0,0-2-.36c-1.52,0-2.24.66-2.24,2.06a2.09,2.09,0,0,0,.43,1.45,2.57,2.57,0,0,0,1.51.65l0.29,0a1.45,1.45,0,0,1,.65.22,0.5,0.5,0,0,1,.16.42c0,0.45-.32.67-0.95,0.67a3.75,3.75,0,0,1-2-.61v1.6a6.32,6.32,0,0,0,2.13.41c1.58,0,2.37-.7,2.37-2.1a2.12,2.12,0,0,0-.43-1.48,3,3,0,0,0-1.67-.68l-0.27-.05c-0.59-.11-0.78-0.25-0.78-0.59s0.29-.61.91-0.61a4.06,4.06,0,0,1,1.91.57v-1.6m-5.58,0a6.37,6.37,0,0,0-2-.36c-1.52,0-2.24.66-2.24,2.06a2.08,2.08,0,0,0,.43,1.45A2.57,2.57,0,0,0,150,33l0.29,0a1.45,1.45,0,0,1,.65.22,0.5,0.5,0,0,1,.16.42c0,0.45-.32.67-0.95,0.67a3.75,3.75,0,0,1-2-.61v1.6a6.32,6.32,0,0,0,2.13.41c1.58,0,2.37-.7,2.37-2.1a2.12,2.12,0,0,0-.43-1.48,3,3,0,0,0-1.66-.68l-0.28-.05c-0.58-.11-0.78-0.25-0.78-0.59s0.29-.61.91-0.61a4.06,4.06,0,0,1,1.91.57v-1.6Zm-7.72-.36a2.48,2.48,0,0,0-2,.92,4,4,0,0,0-.74,2.54,4,4,0,0,0,.74,2.54,2.48,2.48,0,0,0,2,.91,2.46,2.46,0,0,0,2-.91,4,4,0,0,0,.73-2.54,4,4,0,0,0-.73-2.54A2.46,2.46,0,0,0,144.57,28.83Zm0,1.51c0.7,0,1.08.69,1.08,1.95s-0.38,2-1.08,2-1.1-.69-1.1-2S143.85,30.33,144.57,30.33Zm-3.41-1.46a2.67,2.67,0,0,0-.45,0A1.77,1.77,0,0,0,139,30.07V29h-1.61v6.6H139v-3c0-1.3.47-2,1.29-2a1.64,1.64,0,0,1,.85.25v-1.9h0Zm-4.54,4.4a2.81,2.81,0,0,1-1.94.83,1.68,1.68,0,0,1-1.46-.78,3.74,3.74,0,0,1-.53-2.14,3.75,3.75,0,0,1,.53-2.14,1.68,1.68,0,0,1,1.46-.78,2.81,2.81,0,0,1,1.94.83V27.28a3.65,3.65,0,0,0-2.07-.65,3.24,3.24,0,0,0-2.67,1.23,5.19,5.19,0,0,0-1,3.33,5.2,5.2,0,0,0,1,3.33,3.24,3.24,0,0,0,2.67,1.21,3.65,3.65,0,0,0,2.07-.65V33.27h0Zm-12.32.94c-0.68,0-1.06-.68-1.06-1.93s0.38-1.93,1.06-1.93,1.07,0.68,1.07,1.93S125,34.21,124.3,34.21ZM125.37,30a1.86,1.86,0,0,0-1.67-1.12,1.76,1.76,0,0,0-1.53,1,4.71,4.71,0,0,0-.6,2.49,4.74,4.74,0,0,0,.6,2.5,1.77,1.77,0,0,0,1.53.95,1.83,1.83,0,0,0,1.67-1.12v1H127V26.42h-1.62V30Zm-8.11,1.61a1.23,1.23,0,0,1,1.13-1.34,0.82,0.82,0,0,1,.7.37,1.61,1.61,0,0,1,.27,1h-2.1Zm3.75,0.7a4,4,0,0,0-.72-2.5,2.26,2.26,0,0,0-1.9-.93,2.48,2.48,0,0,0-2,.92,4,4,0,0,0-.75,2.54,3.89,3.89,0,0,0,.75,2.55,2.63,2.63,0,0,0,2.14.9,5.12,5.12,0,0,0,2.28-.57V33.55a3.68,3.68,0,0,1-2.14.79,1.34,1.34,0,0,1-1.39-1.48H121v-0.6Zm-9.77,0a1,1,0,0,1,.68.24,2.43,2.43,0,0,1,.51.9l0.81,2.19h1.85l-0.94-2.5a2.26,2.26,0,0,0-1.21-1.61,2.16,2.16,0,0,0,1.29-2.26c0-1.67-.8-2.42-2.57-2.42H109v8.79h1.73V32.25h0.49Zm-0.49-3.82h0.73a0.91,0.91,0,0,1,1,1.12,0.92,0.92,0,0,1-1,1.14h-0.73V28.43Zm-6.13,3.13c0-1.79-.62-2.73-1.77-2.73a2,2,0,0,0-1.68,1.12V29H99.57v6.6h1.61V32.33c0-1.2.41-1.92,1.08-1.92a0.69,0.69,0,0,1,.63.44,1.93,1.93,0,0,1,.1.48c0,0.22,0,.61,0,1.18v3.08h1.62v-4Zm-6.28.26a3.49,3.49,0,0,0-.6-2.29,2.49,2.49,0,0,0-2-.71,7,7,0,0,0-2.09.34v1.6a3,3,0,0,1,1.8-.54c0.85,0,1.25.3,1.25,1v0.16h-1c-1.75,0-2.53.7-2.53,2.24a2.37,2.37,0,0,0,.49,1.56,1.59,1.59,0,0,0,1.28.58,1.82,1.82,0,0,0,1.72-1.14v1h1.63V31.82Zm-1.63,1a1.79,1.79,0,0,1-.31,1.07,0.93,0.93,0,0,1-.77.42,0.75,0.75,0,0,1-.78-0.85,0.85,0.85,0,0,1,1-.88h0.84v0.24Zm-5.91-4.72h1.61V26.42H90.81v1.72Zm0,7.44h1.61V29H90.81v6.6Zm-1-4c0-1.79-.62-2.73-1.77-2.73a2,2,0,0,0-1.68,1.12V29H84.8v6.6h1.61V32.33c0-1.2.4-1.92,1.08-1.92a0.68,0.68,0,0,1,.63.44,1.88,1.88,0,0,1,.1.48c0,0.22,0,.61,0,1.18v3.08h1.62v-4Zm-8.94-2.73a2.48,2.48,0,0,0-2,.92,4,4,0,0,0-.74,2.54,4,4,0,0,0,.74,2.54,2.48,2.48,0,0,0,2,.91,2.46,2.46,0,0,0,2-.91,4,4,0,0,0,.73-2.54,4,4,0,0,0-.73-2.54A2.46,2.46,0,0,0,80.91,28.83Zm0,1.51c0.71,0,1.08.69,1.08,1.95s-0.38,2-1.08,2-1.1-.69-1.1-2S80.2,30.33,80.91,30.33Zm-6.33,3.88c-0.68,0-1.05-.68-1.05-1.93s0.38-1.93,1.05-1.93,1.07,0.68,1.07,1.93S75.29,34.21,74.59,34.21ZM75.65,30A1.86,1.86,0,0,0,74,28.83a1.76,1.76,0,0,0-1.53,1,4.71,4.71,0,0,0-.59,2.49,4.74,4.74,0,0,0,.59,2.5,1.77,1.77,0,0,0,1.53.95,1.83,1.83,0,0,0,1.67-1.12v1h1.62V26.42H75.65V30Zm-8.11,1.61a1.23,1.23,0,0,1,1.13-1.34,0.82,0.82,0,0,1,.7.37,1.6,1.6,0,0,1,.27,1h-2.1Zm3.75,0.7a4,4,0,0,0-.72-2.5,2.26,2.26,0,0,0-1.9-.93,2.48,2.48,0,0,0-2,.92,4,4,0,0,0-.75,2.54,3.89,3.89,0,0,0,.75,2.55,2.63,2.63,0,0,0,2.13.9,5.11,5.11,0,0,0,2.28-.57V33.55a3.68,3.68,0,0,1-2.14.79,1.34,1.34,0,0,1-1.39-1.48H71.3v-0.6ZM65,29.19a3.55,3.55,0,0,0-1.54-.36,2.64,2.64,0,0,0-2.14.92,3.78,3.78,0,0,0-.77,2.54,3.81,3.81,0,0,0,.77,2.55,2.66,2.66,0,0,0,2.14.9A3.63,3.63,0,0,0,65,35.37V33.65a1.85,1.85,0,0,1-1.34.58c-0.9,0-1.43-.72-1.43-2s0.53-2,1.43-2A2,2,0,0,1,65,30.9V29.19h0Zm-5.16,2.63a3.49,3.49,0,0,0-.6-2.29,2.49,2.49,0,0,0-2-.71,7,7,0,0,0-2.09.34v1.6a3,3,0,0,1,1.8-.54c0.85,0,1.25.3,1.25,1v0.16h-1c-1.75,0-2.53.7-2.53,2.24a2.37,2.37,0,0,0,.49,1.56,1.59,1.59,0,0,0,1.28.58,1.82,1.82,0,0,0,1.72-1.14v1h1.63V31.82Zm-1.63,1a1.79,1.79,0,0,1-.31,1.07,0.93,0.93,0,0,1-.77.42,0.75,0.75,0,0,1-.78-0.85,0.85,0.85,0,0,1,1-.88h0.84v0.24ZM48.08,35.58V29.15l1.54,4.74h1.1l1.55-4.74v6.43h1.64V26.79h-2.2l-1.54,4.7-1.53-4.7H46.44v8.79h1.65Z"/></svg>