<?xml version="1.0" encoding="UTF-8" standalone="no"?>
<!-- Created with Inkscape (http://www.inkscape.org/) -->

<svg
   version="1.1"
   id="svg1"
   width="758.992"
   height="758.99066"
   viewBox="0 0 758.992 758.99066"
   sodipodi:docname="LB_logo-AR_FR-CMYK_00.95.100.00.svg"
   inkscape:version="1.3.2 (091e20e, 2023-11-25, custom)"
   xmlns:inkscape="http://www.inkscape.org/namespaces/inkscape"
   xmlns:sodipodi="http://sodipodi.sourceforge.net/DTD/sodipodi-0.dtd"
   xmlns="http://www.w3.org/2000/svg"
   xmlns:svg="http://www.w3.org/2000/svg">
  <defs
     id="defs1">
    <clipPath
       clipPathUnits="userSpaceOnUse"
       id="clipPath3">
      <path
         d="M 0,569.243 H 569.243 V 0.06 L 0,0.06 Z"
         transform="translate(-284.62201,-569.24301)"
         id="path3" />
    </clipPath>
  </defs>
  <sodipodi:namedview
     id="namedview1"
     pagecolor="#ffffff"
     bordercolor="#666666"
     borderopacity="1.0"
     inkscape:showpageshadow="2"
     inkscape:pageopacity="0.0"
     inkscape:pagecheckerboard="0"
     inkscape:deskcolor="#d1d1d1"
     inkscape:export-bgcolor="#ffffffff"
     inkscape:zoom="1.0816997"
     inkscape:cx="379.49533"
     inkscape:cy="379.49533"
     inkscape:window-width="1920"
     inkscape:window-height="1017"
     inkscape:window-x="-8"
     inkscape:window-y="-8"
     inkscape:window-maximized="1"
     inkscape:current-layer="g1">
    <inkscape:page
       x="0"
       y="0"
       inkscape:label="1"
       id="page1"
       width="758.992"
       height="758.99066"
       margin="0"
       bleed="0"
       inkscape:export-filename="LB_logo-AR_FR-CMYK_00.95.100.00.png"
       inkscape:export-xdpi="300"
       inkscape:export-ydpi="300" />
  </sodipodi:namedview>
  <g
     id="g1"
     inkscape:groupmode="layer"
     inkscape:label="1">
    <g
       id="group-MC1">
      <path
         id="path2"
         d="m 0,0 c -157.192,0 -284.622,-127.429 -284.622,-284.622 0,-157.192 127.43,-284.621 284.622,-284.621 157.192,0 284.621,127.429 284.621,284.621 C 284.621,-127.429 157.192,0 0,0 Z m 0,-101 c 49.047,0 95.158,-19.1 129.84,-53.782 34.681,-34.681 53.781,-80.792 53.781,-129.84 0,-49.047 -19.1,-95.158 -53.781,-129.84 C 95.158,-449.143 49.047,-468.243 0,-468.243 c -49.047,0 -95.159,19.1 -129.84,53.781 -34.682,34.682 -53.782,80.793 -53.782,129.84 0,49.048 19.1,95.159 53.782,129.84 C -95.159,-120.1 -49.047,-101 0,-101"
         style="fill:#ee2722;fill-opacity:1;fill-rule:nonzero;stroke:none"
         transform="matrix(1.3333333,0,0,-1.3333333,379.496,0)"
         clip-path="url(#clipPath3)" />
      <text
         id="text3"
         xml:space="preserve"
         transform="matrix(0.18634337,1.3202477,-1.3202477,0.18634337,38.271467,397.192)"><tspan
           style="font-variant:normal;font-weight:900;font-size:59px;font-family:Arial;writing-mode:lr-tb;fill:#ffffff;fill-opacity:1;fill-rule:nonzero;stroke:none"
           x="0"
           y="0"
           id="tspan3">C</tspan></text>
      <text
         id="text4"
         xml:space="preserve"
         transform="matrix(0.38401364,1.2768364,-1.2768364,0.38401364,48.5332,460.93867)"><tspan
           style="font-variant:normal;font-weight:900;font-size:59px;font-family:Arial;writing-mode:lr-tb;fill:#ffffff;fill-opacity:1;fill-rule:nonzero;stroke:none"
           x="0"
           y="0"
           id="tspan4">r</tspan></text>
      <text
         id="text5"
         xml:space="preserve"
         transform="matrix(0.55439361,1.212611,-1.212611,0.55439361,58.9316,496.97733)"><tspan
           style="font-variant:normal;font-weight:900;font-size:59px;font-family:Arial;writing-mode:lr-tb;fill:#ffffff;fill-opacity:1;fill-rule:nonzero;stroke:none"
           x="0"
           y="0"
           id="tspan5">o</tspan></text>
      <text
         id="text6"
         xml:space="preserve"
         transform="matrix(0.69943711,1.13515,-1.13515,0.69943711,82.6908,546.61067)"><tspan
           style="font-variant:normal;font-weight:900;font-size:59px;font-family:Arial;writing-mode:lr-tb;fill:#ffffff;fill-opacity:1;fill-rule:nonzero;stroke:none"
           x="0"
           y="0"
           id="tspan6">i</tspan></text>
      <text
         id="text7"
         xml:space="preserve"
         transform="matrix(0.83244766,1.0415415,-1.0415415,0.83244766,97.138667,571.304)"><tspan
           style="font-variant:normal;font-weight:900;font-size:59px;font-family:Arial;writing-mode:lr-tb;fill:#ffffff;fill-opacity:1;fill-rule:nonzero;stroke:none"
           x="0"
           y="0"
           id="tspan7">x</tspan></text>
      <text
         id="text8"
         xml:space="preserve"
         transform="matrix(1.0761464,0.78720187,-0.78720187,1.0761464,154.096,636.27867)"><tspan
           style="font-variant:normal;font-weight:900;font-size:59px;font-family:Arial;writing-mode:lr-tb;fill:#ffffff;fill-opacity:1;fill-rule:nonzero;stroke:none"
           x="0"
           y="0"
           id="tspan8">R</tspan></text>
      <text
         id="text9"
         xml:space="preserve"
         transform="matrix(1.198727,0.58380759,-0.58380759,1.198727,207.09467,674.13867)"><tspan
           style="font-variant:normal;font-weight:900;font-size:59px;font-family:Arial;writing-mode:lr-tb;fill:#ffffff;fill-opacity:1;fill-rule:nonzero;stroke:none"
           x="0"
           y="0"
           id="tspan9">o</tspan></text>
      <text
         id="text10"
         xml:space="preserve"
         transform="matrix(1.2793779,0.3754597,-0.3754597,1.2793779,258.32667,698.68667)"><tspan
           style="font-variant:normal;font-weight:900;font-size:59px;font-family:Arial;writing-mode:lr-tb;fill:#ffffff;fill-opacity:1;fill-rule:nonzero;stroke:none"
           x="0"
           y="0"
           id="tspan10">u</tspan></text>
      <text
         id="text11"
         xml:space="preserve"
         transform="matrix(1.3241588,0.15614471,-0.15614471,1.3241588,313.164,714.36933)"><tspan
           style="font-variant:normal;font-weight:900;font-size:59px;font-family:Arial;writing-mode:lr-tb;fill:#ffffff;fill-opacity:1;fill-rule:nonzero;stroke:none"
           x="0"
           y="0"
           id="tspan11">g</tspan></text>
      <text
         id="text12"
         xml:space="preserve"
         transform="matrix(1.331849,-0.06289719,0.06289719,1.331849,369.612,720.65333)"><tspan
           style="font-variant:normal;font-weight:900;font-size:59px;font-family:Arial;writing-mode:lr-tb;fill:#ffffff;fill-opacity:1;fill-rule:nonzero;stroke:none"
           x="0"
           y="0"
           id="tspan12">e</tspan></text>
      <text
         id="text13"
         xml:space="preserve"
         transform="matrix(1.2737833,-0.39402268,0.39402268,1.2737833,455.13067,712.40933)"><tspan
           style="font-variant:normal;font-weight:900;font-size:59px;font-family:Arial;writing-mode:lr-tb;fill:#ffffff;fill-opacity:1;fill-rule:nonzero;stroke:none"
           x="0"
           y="0"
           id="tspan13">L</tspan></text>
      <text
         id="text14"
         xml:space="preserve"
         transform="matrix(1.215872,-0.54720487,0.54720487,1.215872,507.06933,695.35333)"><tspan
           style="font-variant:normal;font-weight:900;font-size:59px;font-family:Arial;writing-mode:lr-tb;fill:#ffffff;fill-opacity:1;fill-rule:nonzero;stroke:none"
           x="0"
           y="0"
           id="tspan14">i</tspan></text>
      <text
         id="text15"
         xml:space="preserve"
         transform="matrix(1.1390882,-0.69300499,0.69300499,1.1390882,533.708,684.06933)"><tspan
           style="font-variant:normal;font-weight:900;font-size:59.0001px;font-family:Arial;writing-mode:lr-tb;fill:#ffffff;fill-opacity:1;fill-rule:nonzero;stroke:none"
           x="0"
           y="0"
           id="tspan15">b</tspan></text>
      <text
         id="text16"
         xml:space="preserve"
         transform="matrix(1.0092608,-0.87130381,0.87130381,1.0092608,581.908,654.33467)"><tspan
           style="font-variant:normal;font-weight:900;font-size:59px;font-family:Arial;writing-mode:lr-tb;fill:#ffffff;fill-opacity:1;fill-rule:nonzero;stroke:none"
           x="0"
           y="0"
           id="tspan16">a</tspan></text>
      <text
         id="text17"
         xml:space="preserve"
         transform="matrix(0.85165182,-1.0258981,1.0258981,0.85165182,624.704,616.90933)"><tspan
           style="font-variant:normal;font-weight:900;font-size:59px;font-family:Arial;writing-mode:lr-tb;fill:#ffffff;fill-opacity:1;fill-rule:nonzero;stroke:none"
           x="0"
           y="0"
           id="tspan17">n</tspan></text>
      <text
         id="text18"
         xml:space="preserve"
         transform="matrix(0.67031218,-1.1525881,1.1525881,0.67031218,660.69067,573.008)"><tspan
           style="font-variant:normal;font-weight:900;font-size:59px;font-family:Arial;writing-mode:lr-tb;fill:#ffffff;fill-opacity:1;fill-rule:nonzero;stroke:none"
           x="0"
           y="0"
           id="tspan18">a</tspan></text>
      <text
         id="text19"
         xml:space="preserve"
         transform="matrix(0.5229242,-1.2265105,1.2265105,0.5229242,687.54133,524.9)"><tspan
           style="font-variant:normal;font-weight:900;font-size:59px;font-family:Arial;writing-mode:lr-tb;fill:#ffffff;fill-opacity:1;fill-rule:nonzero;stroke:none"
           x="0"
           y="0"
           id="tspan19">i</tspan></text>
      <text
         id="text20"
         xml:space="preserve"
         transform="matrix(0.37620341,-1.2791594,1.2791594,0.37620341,699.24013,498.73067)"><tspan
           style="font-variant:normal;font-weight:900;font-size:59px;font-family:Arial;writing-mode:lr-tb;fill:#ffffff;fill-opacity:1;fill-rule:nonzero;stroke:none"
           x="0"
           y="0"
           id="tspan20">s</tspan></text>
      <text
         id="text21"
         xml:space="preserve"
         transform="matrix(0.16943721,-1.3225237,1.3225237,0.16943721,713.692,449.192)"><tspan
           style="font-variant:normal;font-weight:900;font-size:59px;font-family:Arial;writing-mode:lr-tb;fill:#ffffff;fill-opacity:1;fill-rule:nonzero;stroke:none"
           x="0"
           y="0"
           id="tspan21">e</tspan></text>
      <path
         id="path21"
         d="m 0,0 v -84.756 h -83.909 v -83.908 h -84.756 v 83.908 h -83.909 V 0 h 83.909 v 83.909 h 84.756 L -83.909,0 H 0"
         style="fill:#ee2722;fill-opacity:1;fill-rule:nonzero;stroke:none"
         transform="matrix(1.3333333,0,0,-1.3333333,547.87867,322.992)" />
      <path
         id="path22"
         d="m 0,0 c -0.204,-0.2 -0.408,-0.401 -0.612,-0.601 1.94,-5.919 3.877,-11.839 5.832,-17.753 0.099,-0.302 0.35,-0.554 0.548,-0.856 2.913,3.654 3.65,7.829 1.507,10.697 C 5.045,-5.53 2.441,-2.826 0,0 Z m -61.682,77.532 c -3.016,-1.949 -5.558,-1.123 -8.218,0.989 -10.353,8.22 -20.697,16.461 -31.262,24.404 -10.796,8.116 -7.289,18.268 -1.247,24.296 6.096,6.082 13.94,8.787 22.096,10.737 0.284,0.068 0.631,-0.128 1.848,-0.408 -2.587,-1.207 -4.604,-1.879 -6.321,-3.008 -3.222,-2.117 -6.725,-4.079 -9.286,-6.864 -4.172,-4.535 -3.78,-9.615 0.31,-14.252 0.909,-1.031 1.969,-1.949 3.053,-2.8 10.597,-8.319 21.213,-16.615 31.83,-24.907 0.487,-0.381 1.043,-0.674 1.497,-0.964 3.881,1.596 6.681,5.582 12.074,4.652 -0.742,-1.056 -1.095,-1.786 -1.646,-2.306 -4.193,-3.959 -4.53,-6.928 -1.184,-11.353 4.091,-5.412 8.202,-10.808 12.299,-16.204 4.209,0.783 7.96,3.695 13.213,1.546 -1.271,-0.915 -1.936,-1.483 -2.681,-1.916 -4.332,-2.518 -5.249,-6.261 -2.469,-10.376 1.821,-2.694 3.696,-5.352 5.773,-8.354 5.211,3.597 10.536,6.764 15.256,10.663 5.437,4.49 11.103,6.089 17.973,3.401 -0.6,-0.54 -1.212,-1.232 -1.953,-1.735 C 2.926,48.456 -3.449,44.18 -9.804,39.875 c -1.666,-1.128 -3.376,-2.211 -4.918,-3.494 -2.594,-2.159 -2.755,-3.22 -1.185,-6.13 1.666,-3.09 3.382,-6.152 5.141,-9.343 3.952,0.987 7.882,2.957 12.123,-0.404 -1.016,-0.489 -1.591,-0.839 -2.213,-1.049 -1.186,-0.403 -2.473,-0.571 -3.586,-1.11 -3.603,-1.743 -4.081,-4.799 -1.227,-7.544 0.72,-0.692 1.634,-1.177 2.4,-1.826 6.626,-5.605 13.288,-11.168 19.836,-16.863 3.606,-3.136 5.346,-7.169 3.671,-11.855 -1.828,-5.115 -5.274,-8.78 -11.285,-10.07 0.846,-4.616 1.719,-9.373 2.718,-14.825 6.977,2.687 13.609,5.278 20.275,7.776 1.249,0.468 2.697,0.959 3.949,0.766 4.262,-0.658 8.005,-2.653 12.126,-5.182 -1.298,-0.527 -2.023,-0.974 -2.803,-1.11 -3.004,-0.525 -5.111,-2.212 -6.099,-5.011 -0.967,-2.74 -2.851,-3.419 -5.311,-2.706 -2.237,0.649 -4.367,1.668 -6.746,2.603 -5.57,-1.429 -11.494,-3.132 -17.511,-4.394 -2.112,-0.442 -4.481,0.02 -6.678,0.393 -2.141,0.363 -3.074,2.15 -3.339,4.116 -2.29,17 -9.153,32.62 -14.634,48.656 -0.974,2.852 -2.233,5.611 -3.11,8.489 -0.609,1.997 -0.786,4.125 -1.202,6.45 -4.991,1.826 -10.737,11.566 -9.568,15.73 -1.803,1.391 -3.605,2.359 -4.821,3.816 -1.928,2.306 -3.452,4.948 -5.168,7.433 -3.468,5.026 -3.469,5.692 0.088,10.663 0.003,0.302 0.007,0.603 0.011,0.904 -0.175,-0.137 -0.349,-0.274 -0.524,-0.411 -0.841,-0.216 -1.697,-0.388 -2.522,-0.656 -2.856,-0.926 -5.025,-0.226 -6.896,2.251 -3.631,4.806 -7.447,9.475 -11.24,14.156 -1.654,2.042 -2.324,4.13 -0.891,6.548 0.457,0.587 0.913,1.173 1.369,1.759 -0.14,0.122 -0.28,0.245 -0.42,0.367 -0.563,-0.412 -1.125,-0.824 -1.688,-1.236"
         style="fill:#fdfaf8;fill-opacity:1;fill-rule:nonzero;stroke:none"
         transform="matrix(1.3333333,0,0,-1.3333333,665.756,273.388)" />
      <path
         id="path23"
         d="M 0,0 C 3.947,-0.347 7.316,-0.643 11.089,-0.975 7.77,5.226 4.351,5.588 0,0 Z m 52.757,6.625 c -5.157,3.24 -10.12,7.102 -17.364,5.014 1.613,5.408 4.1,9.862 8.902,12.203 1.84,0.898 4.805,0.589 6.82,-0.238 2.721,-1.117 5.125,-3.129 7.479,-4.993 7.663,-6.067 17.237,-9.949 26.77,-10.482 -2.196,-3.42 -4.157,-6.7 -6.401,-9.773 -0.431,-0.589 -2.058,-0.702 -2.986,-0.463 -4.714,1.213 -9.356,0.956 -13.611,-1.235 -5.17,-2.664 -10.523,-2.949 -16.123,-2.561 -8.848,0.612 -17.605,-0.058 -26.206,-2.378 -3.837,-1.035 -3.858,-1.015 -4.118,-5.037 -0.08,-1.233 -0.267,-2.459 -0.435,-3.967 -0.898,0.144 -1.619,0.144 -2.254,0.38 -3.649,1.353 -7.26,2.812 -10.921,4.133 -2.44,0.88 -5.056,1.45 -5.348,5.423 -1.954,-5.755 -1.956,-5.751 -7.364,-7.678 -2.011,-0.717 -3.969,-1.636 -6.03,-2.146 -2.592,-0.641 -3.111,-2.099 -2.466,-4.459 1.074,-3.927 1.496,-7.896 0.577,-11.943 -0.942,-4.147 -3.243,-6.918 -7.411,-8.212 -5.105,-1.585 -10.188,-1.352 -15.285,-0.195 -0.835,0.189 -1.551,0.906 -2.454,1.877 11.499,2.273 16.605,10.14 19.321,19.904 -3.339,2.462 -7.178,4.109 -9.052,7.021 -1.74,2.704 -1.383,6.758 -2.092,11.092 1.765,-0.971 2.783,-1.535 3.804,-2.092 4.113,-2.242 8.353,-2.453 12.768,-0.946 3.918,1.336 7.926,2.418 11.796,3.874 1.117,0.421 2.236,1.588 2.749,2.693 0.835,1.801 0.851,4.012 1.8,5.724 1.243,2.239 2.717,4.608 4.701,6.123 3.591,2.74 7.054,1.826 9.718,-1.912 1.457,-2.045 2.787,-4.198 4.41,-6.101 0.598,-0.701 2.021,-1.352 2.818,-1.13 10.98,3.059 22.157,2.768 33.488,2.48"
         style="fill:#fdfaf8;fill-opacity:1;fill-rule:nonzero;stroke:none"
         transform="matrix(1.3333333,0,0,-1.3333333,302.22267,84.269333)" />
      <path
         id="path24"
         d="m 0,0 c 0.493,-0.722 0.978,-1.45 1.482,-2.164 1.541,-2.183 1.609,-4.355 0.214,-6.681 -3.557,-5.931 -7.16,-11.841 -10.486,-17.901 -1.369,-2.493 -2.943,-2.754 -5.213,-1.696 -4.782,2.228 -9.479,4.669 -14.374,6.616 -4.997,1.987 -10.191,3.479 -15.292,5.208 -0.789,0.267 -1.936,0.43 -2.245,1.004 -1.941,3.595 -3.691,7.294 -5.505,10.958 0.18,0.23 0.36,0.46 0.539,0.691 1.129,-0.293 2.33,-0.427 3.376,-0.902 8.119,-3.688 16.231,-7.395 24.299,-11.195 3.841,-1.809 4.886,-1.649 7.099,1.837 3.433,5.407 6.828,10.839 10.137,16.097 -1.869,3.977 -6.371,6.557 -4.957,12.343 1.228,-1.189 1.974,-1.972 2.783,-2.684 2.973,-2.615 7.127,-2.381 9.663,0.608 4.145,4.886 8.237,9.819 12.281,14.649 -4.708,9.37 -4.708,9.37 -3.021,12.449 0.771,-0.975 1.408,-1.844 2.11,-2.656 2.576,-2.979 6.856,-3.363 9.66,-0.651 2.513,2.43 4.781,5.115 7.464,8.02 -3.423,3.572 -7.137,7.459 -10.865,11.332 -1.048,1.089 -1.999,2.341 -3.229,3.172 -5.636,3.809 -5.099,9.474 -4.356,15.517 3.014,-3.099 6.049,-6.176 9.034,-9.301 3.912,-4.095 7.72,-8.291 11.69,-12.328 3.512,-3.571 4.34,-3.549 8.194,-0.511 2.162,1.704 4.317,3.417 7.061,5.589 -5.458,5.011 -10.738,9.749 -15.865,14.646 -1.192,1.139 -2.409,2.729 -2.672,4.272 -0.629,3.687 -0.696,7.47 -0.99,11.215 0.239,0.142 0.479,0.285 0.718,0.428 0.672,-0.547 1.477,-0.991 1.993,-1.659 1.758,-2.274 4.081,-3.207 6.876,-3.309 4.25,-0.155 4.549,-0.433 5.452,-4.561 0.134,-0.613 0.47,-1.327 0.285,-1.841 -1.399,-3.898 1.388,-5.888 3.537,-8.257 2.787,-3.07 5.528,-6.192 8.109,-9.435 0.983,-1.235 1.647,-2.81 2.143,-4.332 1.247,-3.835 0.798,-4.922 -2.425,-7.39 -2.896,-2.218 -5.846,-4.381 -8.594,-6.772 -1.996,-1.737 -3.958,-3.104 -7.391,-1.978 1.419,-2.999 -0.023,-4.526 -1.811,-6.037 -1.919,-1.622 -3.686,-3.428 -5.475,-5.198 -5.188,-5.134 -5.609,-5.229 -12.077,-2.344 0,-0.385 -0.121,-0.787 0.018,-1.053 3.061,-5.883 2.985,-5.912 -1.365,-10.786 C 15.503,10.221 13.177,7.24 10.931,4.216 7.109,-0.932 6.618,-1.165 0.562,0.558 0.278,0.643 -0.005,0.728 -0.288,0.814 -0.192,0.543 -0.096,0.271 0,0"
         style="fill:#fdf9f7;fill-opacity:1;fill-rule:nonzero;stroke:none"
         transform="matrix(1.3333333,0,0,-1.3333333,125.064,213.56933)" />
      <path
         id="path25"
         d="m 0,0 c 3.045,5.01 8.48,5.132 12.313,-0.117 4.937,-6.759 6.289,-14.477 5.558,-22.561 -0.312,-3.452 -1.162,-6.989 -2.488,-10.188 -2.935,-7.078 -8.56,-10.094 -16.076,-8.79 -10.13,1.758 -16.235,8.692 -21.511,16.906 1.918,1.761 3.259,0.995 4.521,-0.205 1.46,-1.388 2.8,-2.912 4.329,-4.218 6.649,-5.681 14.371,-4.288 18.734,3.353 2.753,4.823 2.589,10.07 1.677,15.638 -0.89,-1.556 -1.766,-3.121 -2.671,-4.669 -2.936,-5.021 -5.786,-5.543 -10.372,-1.912 -6.981,5.528 -9.244,13.779 -6.332,22.735 1.747,5.375 3.373,10.789 5.041,16.19 0.097,0.315 0.082,0.665 0.185,1.591 -1.939,-0.47 -3.694,-0.638 -5.215,-1.325 -2.284,-1.032 -4.089,-0.624 -5.86,0.974 -2.31,2.082 -4.678,4.1 -7.505,6.569 8.413,2.561 16.024,4.222 23.773,0.355 1.902,-0.949 3.902,-1.734 5.918,-2.412 2.377,-0.8 3.033,-1.977 2.167,-4.531 C 3.565,15.648 1.225,7.817 -1.224,0.024 -1.507,-0.845 -1.79,-1.714 -2.074,-2.583 -1.922,-2.649 -1.771,-2.715 -1.619,-2.781 -1.08,-1.854 -0.54,-0.927 0,0"
         style="fill:#fdfaf8;fill-opacity:1;fill-rule:nonzero;stroke:none"
         transform="matrix(1.3333333,0,0,-1.3333333,88.033333,307.856)" />
      <path
         id="path26"
         d="M 0,0 C 0.032,-0.267 0.064,-0.534 0.096,-0.802 2.837,-1.459 5.577,-2.117 9.164,-2.978 7.828,-0.758 7.018,0.588 6.092,2.126 3.917,1.367 1.958,0.684 0,0 Z m -14.133,5.654 c 0.382,-0.945 0.725,-1.796 1.21,-2.999 5.281,0.906 10.424,1.789 15.566,2.672 0.144,0.335 0.287,0.67 0.43,1.005 -2.901,3.329 -5.803,6.658 -8.943,10.26 -0.945,-1.297 -1.706,-2.34 -2.962,-4.064 -2.225,3.963 -4.312,7.577 -6.261,11.265 -0.292,0.553 -0.133,1.538 0.154,2.17 1.435,3.156 2.983,6.261 4.744,9.908 8.427,-7.583 15.357,-15.367 19.953,-25.181 3.423,1.91 5.466,4.629 6.368,8.205 1.094,4.336 4.708,8.962 8.688,11.193 1.043,-3.642 2.187,-7.316 3.087,-11.049 0.187,-0.776 -0.31,-1.956 -0.873,-2.63 -2.091,-2.5 -4.341,-4.866 -6.724,-7.496 -1.033,0.699 -1.91,1.292 -2.798,1.893 -1.654,-1.665 -3.326,-3.348 -4.829,-4.86 0.972,-3.703 2.821,-7.351 2.616,-10.88 -0.222,-3.83 -2.355,-7.55 -3.759,-11.619 -6.802,1.777 -13.338,3.474 -19.867,5.195 -2.186,0.576 -4.332,1.326 -6.54,1.792 -2.168,0.458 -2.79,1.835 -2.857,3.802 -0.109,3.209 1.396,8.166 3.597,11.418"
         style="fill:#fdf9f7;fill-opacity:1;fill-rule:nonzero;stroke:none"
         transform="matrix(1.3333333,0,0,-1.3333333,450.50533,84.586667)" />
      <path
         id="path27"
         d="m 0,0 c -4.398,-0.625 -8.792,-1.289 -13.197,-1.864 -6.715,-0.876 -13.535,-1.237 -20.129,-2.66 -6.669,-1.438 -11.35,1.306 -16.429,5.844 3.9,0.501 7.226,0.954 10.559,1.351 8.215,0.98 16.44,1.885 24.648,2.92 C -10.01,6.162 -6.401,3.479 -2.356,2.338 -1.407,2.07 -0.613,1.256 0.253,0.693 0.169,0.462 0.084,0.231 0,0"
         style="fill:#fdf7f5;fill-opacity:1;fill-rule:nonzero;stroke:none"
         transform="matrix(1.3333333,0,0,-1.3333333,732.14667,356.92133)" />
      <path
         id="path28"
         d="m 0,0 c -1.084,1.36 -1.916,2.24 -2.564,3.24 -5.749,8.863 -11.509,17.719 -17.144,26.654 -0.832,1.32 -1.312,3.014 -1.463,4.582 -0.326,3.399 -1.301,6.831 0.294,10.476 0.929,-1.411 1.848,-2.828 2.787,-4.232 C -12.637,32.565 -7.386,24.263 -1.636,16.322 1.24,12.349 1.675,8.36 0.774,3.886 0.558,2.813 0.347,1.739 0,0"
         style="fill:#fdf7f5;fill-opacity:1;fill-rule:nonzero;stroke:none"
         transform="matrix(1.3333333,0,0,-1.3333333,215.716,140.76667)" />
      <path
         id="path29"
         d="m 0,0 c 1.322,3.389 2.618,6.788 3.973,10.164 2.9,7.228 5.697,14.502 8.794,21.646 2.188,5.046 6.784,7.734 11.212,10.924 0.304,-0.842 0.608,-1.24 0.514,-1.482 C 19.964,29.675 15.437,18.096 10.818,6.555 9.509,3.286 3.635,-0.089 -0.075,0.034 L 0,0"
         style="fill:#fcf5f2;fill-opacity:1;fill-rule:nonzero;stroke:none"
         transform="matrix(1.3333333,0,0,-1.3333333,482.904,114.13333)" />
      <path
         id="path30"
         d="M 0,0 C -0.195,-2.962 -0.359,-5.448 -0.557,-8.453 2.538,-8.741 5.565,-9.022 8.984,-9.34 8.72,-12.329 8.473,-15.127 8.229,-17.9 c -3.194,0 -6.03,0 -9.089,0 0,2.96 0,5.662 0,8.697 -2.938,0.197 -5.868,0.393 -9.292,0.623 0.229,3.113 0.443,6.022 0.672,9.14 C -6.216,0.368 -3.261,0.193 0,0"
         style="fill:#fdf7f5;fill-opacity:1;fill-rule:nonzero;stroke:none"
         transform="matrix(1.3333333,0,0,-1.3333333,592.572,205.23467)" />
      <path
         id="path31"
         d="M 0,0 C -1.618,2.814 -3.039,5.286 -4.596,7.993 -1.995,9.463 0.38,10.805 2.938,12.25 4.492,9.791 5.957,7.471 7.668,4.761 5.403,3.295 3.237,1.893 0.709,0.257 2.203,-2.205 3.663,-4.611 5.302,-7.311 2.807,-8.849 0.486,-10.279 -2.209,-11.94 c -1.605,2.604 -3.139,5.094 -4.805,7.8 2.423,1.43 4.56,2.691 7.014,4.14"
         style="fill:#fcf4f1;fill-opacity:1;fill-rule:nonzero;stroke:none"
         transform="matrix(1.3333333,0,0,-1.3333333,127.08133,325.348)" />
      <path
         id="path32"
         d="M 0,0 C 0.813,1.085 1.706,2.275 2.822,3.763 1.988,4.452 0.891,4.942 0.526,5.759 0,6.934 -0.43,8.455 -0.135,9.638 c 0.994,3.988 8.798,7.306 12.491,5.507 2.381,-1.161 2.561,-2.361 0.539,-4.18 C 11.881,10.053 10.75,9.27 9.588,8.363 7.875,9.229 6.986,11.656 4.542,11.003 5.822,7.646 7.058,7.027 14.735,5.748 13.526,1.79 12.94,1.626 9.152,1.5 6.14,1.4 3.153,0.546 0,0"
         style="fill:#fcf4f1;fill-opacity:1;fill-rule:nonzero;stroke:none"
         transform="matrix(1.3333333,0,0,-1.3333333,414.88133,40.072)" />
      <path
         id="path33"
         d="m 0,0 c -1.959,3.192 -3.722,6.066 -5.688,9.27 2.983,1.67 5.79,3.242 8.901,4.984 C 5.067,11.321 6.853,8.496 8.794,5.424 5.842,3.604 3.079,1.899 0,0"
         style="fill:#fcf5f2;fill-opacity:1;fill-rule:nonzero;stroke:none"
         transform="matrix(1.3333333,0,0,-1.3333333,36.212,279.71067)" />
      <path
         id="path34"
         d="M 0,0 C 0.427,-3.481 0.817,-6.659 1.256,-10.238 -2.077,-10.62 -5.243,-10.983 -8.875,-11.4 -9.293,-7.906 -9.697,-4.522 -10.156,-0.68 -6.672,-0.447 -3.5,-0.234 0,0"
         style="fill:#fcf5f2;fill-opacity:1;fill-rule:nonzero;stroke:none"
         transform="matrix(1.3333333,0,0,-1.3333333,178.12667,193.72133)" />
      <path
         id="path35"
         d="m 0,0 c -0.878,3.669 -1.628,6.801 -2.5,10.446 3.366,0.701 6.485,1.352 9.91,2.065 C 8.283,9.166 9.122,5.951 10.042,2.426 6.691,1.616 3.585,0.866 0,0"
         style="fill:#fcf4f1;fill-opacity:1;fill-rule:nonzero;stroke:none"
         transform="matrix(1.3333333,0,0,-1.3333333,532.45067,172.42133)" />
      <path
         id="path36"
         d="m 0,0 c 0.905,-3.513 1.703,-6.608 2.582,-10.019 -3.263,-0.83 -6.355,-1.616 -9.926,-2.524 -0.863,3.433 -1.696,6.744 -2.63,10.457 C -6.625,-1.385 -3.518,-0.736 0,0"
         style="fill:#fdf7f5;fill-opacity:1;fill-rule:nonzero;stroke:none"
         transform="matrix(1.3333333,0,0,-1.3333333,94.917333,179.55067)" />
    </g>
  </g>
</svg>
