<?xml version="1.0" encoding="UTF-8" standalone="no"?>
<!-- Created with Inkscape (http://www.inkscape.org/) -->

<svg
   version="1.1"
   id="svg1"
   width="645.16266"
   height="645.164"
   viewBox="0 0 645.16266 645.164"
   sodipodi:docname="Red_Cross_LEBANON.svg"
   inkscape:version="1.3.2 (091e20e, 2023-11-25, custom)"
   xmlns:inkscape="http://www.inkscape.org/namespaces/inkscape"
   xmlns:sodipodi="http://sodipodi.sourceforge.net/DTD/sodipodi-0.dtd"
   xmlns="http://www.w3.org/2000/svg"
   xmlns:svg="http://www.w3.org/2000/svg">
  <defs
     id="defs1">
    <clipPath
       clipPathUnits="userSpaceOnUse"
       id="clipPath49">
      <path
         d="M 0,483.873 H 483.84 V 0.06 L 0,0.06 Z"
         transform="translate(-241.936,-473.25001)"
         id="path49" />
    </clipPath>
    <clipPath
       clipPathUnits="userSpaceOnUse"
       id="clipPath51">
      <path
         d="M 0,483.873 H 483.84 V 0.06 L 0,0.06 Z"
         transform="translate(-241.936,-483.76501)"
         id="path51" />
    </clipPath>
  </defs>
  <sodipodi:namedview
     id="namedview1"
     pagecolor="#ffffff"
     bordercolor="#666666"
     borderopacity="1.0"
     inkscape:showpageshadow="2"
     inkscape:pageopacity="0.0"
     inkscape:pagecheckerboard="0"
     inkscape:deskcolor="#d1d1d1"
     inkscape:export-bgcolor="#ffffffff"
     inkscape:zoom="1.2725446"
     inkscape:cx="322.582"
     inkscape:cy="322.582"
     inkscape:window-width="1920"
     inkscape:window-height="1017"
     inkscape:window-x="-8"
     inkscape:window-y="-8"
     inkscape:window-maximized="1"
     inkscape:current-layer="g1">
    <inkscape:page
       x="0"
       y="0"
       inkscape:label="1"
       id="page1"
       width="645.16266"
       height="645.164"
       margin="0"
       bleed="0"
       inkscape:export-filename="Red_Cross_LEBANON.png"
       inkscape:export-xdpi="300"
       inkscape:export-ydpi="300" />
  </sodipodi:namedview>
  <g
     id="g1"
     inkscape:groupmode="layer"
     inkscape:label="1">
    <g
       id="group-MC1">
      <path
         id="path2"
         d="m 0,0 c -2.132,3.171 -0.121,4.704 2.071,1.841 9.355,-12.215 19.406,-19.298 28.772,-11.739 5.028,4.058 5.07,10.284 2.072,16.572 -0.916,1.921 -2.194,2.532 -3.683,1.612 -2.734,-1.69 -5.741,-1.267 -8.517,2.071 -2.913,3.505 -5.464,7.299 -8.055,11.049 -1.018,1.471 -2.188,1.959 -3.683,2.301 -4.931,1.127 -8.066,4.363 -10.128,8.287 -0.984,1.873 -1.42,3.448 1.611,2.531 6.838,-2.068 11.71,-7.814 16.112,-14.501 1.428,-2.167 3.888,-4.135 6.215,-2.762 2.503,1.477 4.379,1.49 6.675,-0.69 C 42.021,4.652 49.167,-12.658 40.05,-19.105 25.92,-29.098 10.925,-16.253 0,0"
         style="fill:#ed1c24;fill-opacity:1;fill-rule:evenodd;stroke:#ed1c24;stroke-width:0.216;stroke-linecap:butt;stroke-linejoin:miter;stroke-miterlimit:2.613;stroke-dasharray:none;stroke-opacity:1"
         transform="matrix(1.3333333,0,0,-1.3333333,77.410667,284.34)" />
      <path
         id="path3"
         d="m 0,0 c -2.239,3.338 -0.467,4.321 1.841,1.611 8.381,-9.839 16.901,-19.389 26.47,-27.39 7.205,-6.025 13.12,-2.545 13.12,9.207 0,5.936 -1.174,8.868 2.762,10.818 12.828,6.354 18.076,17.34 18.414,31.534 0.123,5.195 1.952,5.713 3.222,1.611 1.415,-4.571 4.376,-5.843 6.675,-1.842 1.974,3.437 -0.071,8.341 -3.452,13.35 -3.87,5.733 -8.208,11.944 -9.437,20.256 -0.52,3.512 1.556,4.09 2.992,1.381 4.859,-9.165 8.514,-19.201 15.652,-26.701 3.725,-3.914 7.717,-2.277 8.976,3.684 0.635,3.003 -0.263,6.185 -2.071,9.206 -4.987,8.334 -10.618,16.583 -11.739,26.24 -0.497,4.285 1.139,4.77 2.992,1.842 C 88.024,56.461 94.364,40.15 91.609,27.161 89.422,16.847 80.948,20.233 76.647,25.78 75.842,20.562 73.456,16.881 68.591,16.573 64.768,-4.085 59.634,-13.087 46.955,-13.12 c -2.15,-0.005 -2.658,-0.717 -1.841,-2.531 4.21,-9.353 5.566,-18.334 -1.381,-22.557 C 31.509,-45.641 14.141,-21.083 0,0"
         style="fill:#ed1c24;fill-opacity:1;fill-rule:evenodd;stroke:#ed1c24;stroke-width:0.216;stroke-linecap:butt;stroke-linejoin:miter;stroke-miterlimit:2.613;stroke-dasharray:none;stroke-opacity:1"
         transform="matrix(1.3333333,0,0,-1.3333333,82.014667,207.00267)" />
      <path
         id="path4"
         d="m 0,0 c 0.352,3.589 2.254,3.026 2.992,1.381 6.074,-13.536 10.92,-27.466 15.652,-41.201 1.216,-3.532 -2.04,-7.611 -3.683,-3.452 -3.37,8.534 -6.645,17.295 -10.499,25.779 C 1.978,-12.026 -0.627,-6.386 0,0"
         style="fill:#ed1c24;fill-opacity:1;fill-rule:evenodd;stroke:#ed1c24;stroke-width:0.216;stroke-linecap:butt;stroke-linejoin:miter;stroke-miterlimit:2.613;stroke-dasharray:none;stroke-opacity:1"
         transform="matrix(1.3333333,0,0,-1.3333333,198.94267,95.292)" />
      <path
         id="path5"
         d="m 0,0 c -2.537,-1.953 -1.308,-4.767 1.612,-3.222 10.247,5.422 16.179,15.706 21.866,27.39 3.93,8.075 9.602,15.658 19.565,15.422 4.388,-0.104 7.741,0.165 8.976,5.294 1.003,4.162 2.467,7.527 -0.92,7.826 -0.435,1.227 -1.689,2.455 1.151,3.683 9.609,4.046 18.301,7.238 26.239,14.27 5.164,4.574 5.389,10.855 -2.071,11.969 C 61.776,84.819 48.909,76.841 55.012,63.067 48.297,59.193 47,53.715 43.733,50.638 37.53,44.794 28.014,41.66 21.407,28.772 15.375,17.007 8.683,6.682 0,0"
         style="fill:#ed1c24;fill-opacity:1;fill-rule:evenodd;stroke:#ed1c24;stroke-width:0.216;stroke-linecap:butt;stroke-linejoin:miter;stroke-miterlimit:2.613;stroke-dasharray:none;stroke-opacity:1"
         transform="matrix(1.3333333,0,0,-1.3333333,227.512,194.72667)" />
      <path
         id="path6"
         d="m 0,0 c 2.229,1.117 4.064,0.51 5.063,-0.92 1.476,-2.11 2.516,-4.545 3.223,-7.021 0.39,-1.364 -0.917,-2.541 -2.762,-3.337 -2.083,-0.899 -4.103,-1.354 -5.179,0.575 -1.086,1.948 -2.175,3.91 -2.992,5.985 -0.648,1.645 0,3.393 2.647,4.718"
         style="fill:#ed1c24;fill-opacity:1;fill-rule:evenodd;stroke:none"
         transform="matrix(1.3333333,0,0,-1.3333333,57.769333,247.05333)" />
      <path
         id="path7"
         d="m 0,0 c 2.229,1.117 4.064,0.51 5.063,-0.92 1.476,-2.11 2.516,-4.545 3.223,-7.021 0.39,-1.364 -0.917,-2.541 -2.762,-3.337 -2.083,-0.899 -4.103,-1.354 -5.179,0.575 -1.086,1.948 -2.175,3.91 -2.992,5.985 -0.648,1.645 0,3.393 2.647,4.718 z"
         style="fill:none;stroke:#ed1c24;stroke-width:0.216;stroke-linecap:butt;stroke-linejoin:miter;stroke-miterlimit:2.613;stroke-dasharray:none;stroke-opacity:1"
         transform="matrix(1.3333333,0,0,-1.3333333,57.769333,247.05333)" />
      <path
         id="path8"
         d="m 0,0 c 2.366,0.786 4.096,-0.076 4.881,-1.635 1.158,-2.299 1.84,-4.857 2.187,-7.408 0.19,-1.406 -1.271,-2.384 -3.211,-2.909 -2.19,-0.592 -4.254,-0.754 -5.044,1.309 -0.797,2.083 -1.594,4.18 -2.106,6.351 C -3.699,-2.572 -2.808,-0.934 0,0"
         style="fill:#ed1c24;fill-opacity:1;fill-rule:evenodd;stroke:#ed1c24;stroke-width:0.216;stroke-linecap:butt;stroke-linejoin:miter;stroke-miterlimit:2.613;stroke-dasharray:none;stroke-opacity:1"
         transform="matrix(1.3333333,0,0,-1.3333333,145.59733,285.73867)" />
      <path
         id="path9"
         d="m 0,0 c 2.366,0.786 4.095,-0.076 4.881,-1.635 1.158,-2.299 1.839,-4.857 2.186,-7.409 0.191,-1.405 -1.27,-2.383 -3.21,-2.908 -2.19,-0.592 -4.254,-0.754 -5.044,1.309 -0.797,2.083 -1.594,4.18 -2.107,6.351 C -3.699,-2.572 -2.809,-0.934 0,0"
         style="fill:#ed1c24;fill-opacity:1;fill-rule:evenodd;stroke:#ed1c24;stroke-width:0.216;stroke-linecap:butt;stroke-linejoin:miter;stroke-miterlimit:2.613;stroke-dasharray:none;stroke-opacity:1"
         transform="matrix(1.3333333,0,0,-1.3333333,152.04267,269.93333)" />
      <path
         id="path10"
         d="M 0,0 C 2.492,-0.035 3.834,-1.012 4.053,-2.228 4.376,-4.021 4.165,-5.877 3.639,-7.646 3.349,-8.623 1.645,-8.928 -0.359,-8.82 c -2.262,0.123 -4.261,0.5 -4.316,2.05 -0.056,1.567 -0.107,3.143 0.135,4.702 C -4.347,-0.834 -2.96,0.041 0,0"
         style="fill:#ed1c24;fill-opacity:1;fill-rule:evenodd;stroke:#ed1c24;stroke-width:0.216;stroke-linecap:butt;stroke-linejoin:miter;stroke-miterlimit:2.613;stroke-dasharray:none;stroke-opacity:1"
         transform="matrix(1.3333333,0,0,-1.3333333,531.47467,408.39733)" />
      <path
         id="path11"
         d="m 0,0 c 2.441,0.508 4.059,-0.549 4.659,-2.187 0.885,-2.417 1.267,-5.037 1.317,-7.612 0.027,-1.418 -1.537,-2.221 -3.525,-2.518 -2.244,-0.335 -4.313,-0.258 -4.859,1.882 -0.551,2.162 -1.101,4.337 -1.359,6.552 C -3.972,-2.127 -2.898,-0.603 0,0"
         style="fill:#ed1c24;fill-opacity:1;fill-rule:evenodd;stroke:#ed1c24;stroke-width:0.216;stroke-linecap:butt;stroke-linejoin:miter;stroke-miterlimit:2.613;stroke-dasharray:none;stroke-opacity:1"
         transform="matrix(1.3333333,0,0,-1.3333333,106.02267,190.83733)" />
      <path
         id="path12"
         d="m 0,0 c 2.441,0.509 4.06,-0.549 4.659,-2.187 0.886,-2.418 1.267,-5.037 1.317,-7.612 0.027,-1.418 -1.537,-2.221 -3.525,-2.518 -2.244,-0.336 -4.312,-0.258 -4.858,1.883 -0.552,2.161 -1.102,4.336 -1.36,6.551 C -3.972,-2.127 -2.897,-0.603 0,0"
         style="fill:#ed1c24;fill-opacity:1;fill-rule:evenodd;stroke:#ed1c24;stroke-width:0.216;stroke-linecap:butt;stroke-linejoin:miter;stroke-miterlimit:2.613;stroke-dasharray:none;stroke-opacity:1"
         transform="matrix(1.3333333,0,0,-1.3333333,182.44,213.548)" />
      <path
         id="path13"
         d="m 0,0 c -0.181,2.487 1.08,3.951 2.783,4.33 2.513,0.558 5.161,0.591 7.719,0.3 1.409,-0.16 1.999,-1.817 2.03,-3.827 0.037,-2.268 -0.313,-4.309 -2.508,-4.567 C 7.811,-4.026 5.581,-4.284 3.352,-4.247 1.584,-4.218 0.216,-2.952 0,0"
         style="fill:#ed1c24;fill-opacity:1;fill-rule:evenodd;stroke:#ed1c24;stroke-width:0.216;stroke-linecap:butt;stroke-linejoin:miter;stroke-miterlimit:2.613;stroke-dasharray:none;stroke-opacity:1"
         transform="matrix(1.3333333,0,0,-1.3333333,412.88933,177.07333)" />
      <path
         id="path14"
         d="m 0,0 c -1.841,-1.352 -0.438,-6.22 2.072,-4.143 7.091,5.869 13.772,12.317 19.449,19.564 1.737,2.217 -0.03,4.053 -2.071,2.187 C 12.767,11.501 6.864,5.04 0,0"
         style="fill:#ed1c24;fill-opacity:1;fill-rule:evenodd;stroke:#ed1c24;stroke-width:0.216;stroke-linecap:butt;stroke-linejoin:miter;stroke-miterlimit:2.613;stroke-dasharray:none;stroke-opacity:1"
         transform="matrix(1.3333333,0,0,-1.3333333,257.128,100.66267)" />
      <path
         id="path15"
         d="m 0,0 c 2.221,4.108 2.63,1.987 2.187,-0.805 -1.965,-12.387 -6.329,-23.923 -11.509,-35.678 -1.034,-2.347 0.117,-3.259 3.223,-2.532 7.863,1.846 12.053,7.583 14.156,17.839 2.295,11.203 5.475,20.677 10.011,28.426 2.706,4.622 3.13,1.003 2.417,-1.15 -2.974,-8.99 -4.863,-18.321 -7.94,-27.276 -2.815,-8.187 -6.222,-16.37 -14.616,-21.635 -2.412,-1.515 -5.106,-1.28 -7.711,-0.462 -3.655,1.148 -5.765,2.375 -3.567,5.755 3.64,5.601 4.87,12.156 6.444,18.529 C -5.264,-12.345 -3.182,-5.886 0,0"
         style="fill:#ed1c24;fill-opacity:1;fill-rule:evenodd;stroke:#ed1c24;stroke-width:0.216;stroke-linecap:butt;stroke-linejoin:miter;stroke-miterlimit:2.613;stroke-dasharray:none;stroke-opacity:1"
         transform="matrix(1.3333333,0,0,-1.3333333,361.78,87.313333)" />
      <path
         id="path16"
         d="m 0,0 c 2.779,4.19 5.07,3.33 2.993,-1.266 -2.989,-6.612 -5.37,-13.845 -7.596,-21.521 -1.402,-4.833 -3.969,-9.464 -7.596,-13.81 -2.226,-2.668 -3.143,-2.321 -1.956,0.575 3.035,7.409 5.548,15.28 7.941,24.053 C -4.879,-7.074 -2.213,-3.337 0,0"
         style="fill:#ed1c24;fill-opacity:1;fill-rule:evenodd;stroke:#ed1c24;stroke-width:0.216;stroke-linecap:butt;stroke-linejoin:miter;stroke-miterlimit:2.613;stroke-dasharray:none;stroke-opacity:1"
         transform="matrix(1.3333333,0,0,-1.3333333,406.43333,85.778667)" />
      <path
         id="path17"
         d="m 0,0 c -5.687,0.259 -10.479,1.281 -10.128,7.711 0.105,1.915 -0.902,3.212 -3.683,3.337 -9.093,0.411 -13.119,4.45 -12.084,11.97 -18.073,3.169 -34.592,12.187 -47.53,29.577 -4.919,6.611 2.95,16.816 14.386,21.866 3.282,1.45 3.605,0.252 1.381,-1.611 -7.523,-6.302 -8.141,-13.811 -0.806,-21.406 12.878,-13.333 28.682,-23.415 45.459,-24.859 3.812,-0.328 3.807,-1.34 0.576,-2.301 -2.663,-0.792 -5.14,-1.632 -7.711,-1.152 0.441,-6.944 5.328,-9.543 12.199,-10.472 3.595,-0.487 4.417,-2.311 4.949,-4.143 1.84,-6.347 6.739,-7.366 12.199,-5.87 9.724,2.664 19.179,5.99 28.771,8.171 2.07,0.471 3.778,0.194 5.294,0 2.131,-0.272 4.32,0.309 6.446,0 3.715,-0.54 2.296,-2.024 0,-2.532 C 36.519,5.364 22.711,2.955 9.437,-2.302 -1.681,-6.705 1.495,-17.319 15.306,-21.06 c 3.817,-1.035 4.616,-4.046 4.489,-7.942 9.437,-1.505 17.873,-4.205 24.283,-9.552 8.489,-7.08 -2.127,-11.084 -21.291,-6.215 5.744,-9.835 15.764,-11.367 28.311,-8.861 4.677,0.934 9.431,1.424 14.156,2.071 2.834,0.389 4.837,-0.042 6.215,-0.805 1.815,-1.007 3.91,-1.712 6.099,-1.957 4.332,-0.484 4.27,-2.927 0.346,-3.222 -11.409,-0.858 -22.857,-1.197 -34.296,-1.381 -14.485,-0.233 -25.449,5.021 -30.729,17.953 -5.543,5.199 -6.528,10.287 -4.718,15.077 0.646,1.709 1.363,2.822 -1.381,3.337 C -9.634,-19.469 -15.182,-7.442 0,0"
         style="fill:#ed1c24;fill-opacity:1;fill-rule:evenodd;stroke:#ed1c24;stroke-width:0.216;stroke-linecap:butt;stroke-linejoin:miter;stroke-miterlimit:2.613;stroke-dasharray:none;stroke-opacity:1"
         transform="matrix(1.3333333,0,0,-1.3333333,506.78933,214.06133)" />
      <path
         id="path18"
         d="m 0,0 c 2.148,-3.951 4.84,-6.967 8.286,-8.632 4.346,-2.097 6.535,0.735 3.798,3.453 C 9.354,-2.469 5.035,-1.007 0,0"
         style="fill:#ffffff;fill-opacity:1;fill-rule:evenodd;stroke:#ee2528;stroke-width:0.216;stroke-linecap:butt;stroke-linejoin:miter;stroke-miterlimit:2.613;stroke-dasharray:none;stroke-opacity:1"
         transform="matrix(1.3333333,0,0,-1.3333333,534.564,258.71467)" />
      <path
         id="path19"
         d="m 0,0 c -3.338,0.042 -3.723,-3.042 -0.805,-3.453 14.993,-2.109 31.282,-0.84 47.876,0.921 3.104,0.33 2.465,2.09 0.115,2.647 -1.381,0.327 -2.687,0.919 -4.028,1.381 -2.447,0.842 -5.07,0.925 -7.826,0.576 C 23.559,0.58 11.777,-0.149 0,0"
         style="fill:#ed1c24;fill-opacity:1;fill-rule:evenodd;stroke:#ed1c24;stroke-width:0.216;stroke-linecap:butt;stroke-linejoin:miter;stroke-miterlimit:2.613;stroke-dasharray:none;stroke-opacity:1"
         transform="matrix(1.3333333,0,0,-1.3333333,546.532,308.432)" />
      <path
         id="path20"
         d="m 0,0 c -1.112,2.123 1.004,3.179 2.763,1.151 5.897,-6.806 11.393,-14.002 17.838,-18.069 3.334,-2.104 0.087,-4.558 -2.072,-2.762 C 11.77,-14.055 4.448,-8.489 0,0"
         style="fill:#ed1c24;fill-opacity:1;fill-rule:evenodd;stroke:#ed1c24;stroke-width:0.216;stroke-linecap:butt;stroke-linejoin:miter;stroke-miterlimit:2.613;stroke-dasharray:none;stroke-opacity:1"
         transform="matrix(1.3333333,0,0,-1.3333333,571.39067,222.34667)" />
      <path
         id="path21"
         d="m 0,0 c 1.184,-0.309 1.049,-1.462 -0.115,-1.496 -2.645,-0.076 -3.229,-1.648 -0.346,-2.992 0.768,0.115 1.527,0.363 2.302,0.345 0.857,-0.02 1.531,-0.445 1.036,-1.035 -0.484,-0.577 -1.746,-0.845 -2.474,-0.691 0.229,-1.151 1.552,-1.784 2.934,-2.302 1.681,-0.63 0.902,-2.113 -1.496,-2.13 -3.05,-0.021 -4.391,1.421 -5.236,4.145 C -8.938,-4.723 -7.855,2.048 0,0"
         style="fill:#ed1c24;fill-opacity:1;fill-rule:evenodd;stroke:#ed1c24;stroke-width:0.216;stroke-linecap:butt;stroke-linejoin:miter;stroke-miterlimit:2.613;stroke-dasharray:none;stroke-opacity:1"
         transform="matrix(1.3333333,0,0,-1.3333333,570.31733,235.39067)" />
      <path
         id="path22"
         d="M 0,0 C 2.355,0.021 4.133,-0.033 6.55,0.068 8.634,0.155 9.897,-0.863 9.995,-2.891 10.061,-4.276 10.096,-5.682 9.854,-7.047 9.635,-8.282 8.624,-8.99 6.901,-8.879 4.793,-8.743 2.543,-8.867 0.432,-8.949 -1.161,-9.011 -2.24,-8.723 -2.24,-6.343 v 3.804 c 0,0.617 0.201,1.4 0.817,1.837 -0.281,-0.15 -0.668,-0.174 -1.098,-0.146 -2.108,0.135 -4.358,0.012 -6.469,-0.071 -1.593,-0.062 -2.672,0.226 -2.672,2.607 v 3.804 c 0,0.987 0.301,2.399 1.968,2.465 2.416,0.095 4.405,0.04 6.821,0.141 C -0.788,8.185 0.474,7.168 0.573,5.14 0.639,3.755 0.675,2.349 0.432,0.983 0.371,0.636 0.246,0.33 0,0"
         style="fill:#ed1c24;fill-opacity:1;fill-rule:evenodd;stroke:#ed1c24;stroke-width:0.216;stroke-linecap:butt;stroke-linejoin:miter;stroke-miterlimit:2.613;stroke-dasharray:none;stroke-opacity:1"
         transform="matrix(1.3333333,0,0,-1.3333333,475.18,214.74533)" />
      <path
         id="path23"
         d="m 0,0 c -2.428,-0.367 -2.878,-1.531 -1.299,-2.307 2.026,-0.996 3.24,-2.265 4.134,-3.786 1.045,-1.782 0.422,-2.924 -1.536,-2.603 -2.236,0.367 -4.403,1.414 -6.437,2.603 -1.433,0.838 -2.424,-0.089 -1.299,-1.183 4.694,-4.563 11.898,-5.038 19.073,-3.076 3.099,0.846 3.69,3.041 1.89,5.324 C 10.971,-0.518 6.224,0.94 0,0"
         style="fill:#ed1c24;fill-opacity:1;fill-rule:evenodd;stroke:#ed1c24;stroke-width:0.216;stroke-linecap:butt;stroke-linejoin:miter;stroke-miterlimit:2.613;stroke-dasharray:none;stroke-opacity:1"
         transform="matrix(1.3333333,0,0,-1.3333333,477.79467,126.12)" />
      <path
         id="path24"
         d="m 0,0 c 6.156,1.895 10.226,4.632 13.306,7.902 1.591,1.689 0.851,3.2 -2.231,3.113 C 6.635,10.89 1.961,10.466 -2.47,8.061 -6.863,5.677 -3.193,2.823 0,0"
         style="fill:#ffffff;fill-opacity:1;fill-rule:evenodd;stroke:#ee2528;stroke-width:0.216;stroke-linecap:butt;stroke-linejoin:miter;stroke-miterlimit:2.613;stroke-dasharray:none;stroke-opacity:1"
         transform="matrix(1.3333333,0,0,-1.3333333,310.46933,106.448)" />
      <path
         id="path25"
         d="m 0,0 c -1.168,0.638 -2.703,1.775 -2.232,3.193 0.786,2.359 2.343,4.219 4.144,5.508 2.54,1.817 4.472,-0.4 3.426,-1.517 C 4.309,6.087 2.71,4.806 3.425,3.991 5.058,2.135 6.493,0.908 4.86,-0.798 3.305,-2.421 1.114,-3.286 -0.797,-4.47 -2.369,-5.444 -4.174,-4.021 -2.948,-2.953 -1.814,-1.966 0.026,-1.051 0,0"
         style="fill:#ed1c24;fill-opacity:1;fill-rule:evenodd;stroke:#ed1c24;stroke-width:0.216;stroke-linecap:butt;stroke-linejoin:miter;stroke-miterlimit:2.613;stroke-dasharray:none;stroke-opacity:1"
         transform="matrix(1.3333333,0,0,-1.3333333,358.912,73.881333)" />
      <path
         id="path26"
         d="M 0,0 C 0.358,3.623 3.029,3.436 5.02,1.277 6.797,-0.65 6.232,-2.039 3.984,-1.836 3.256,-1.771 2.356,-1.869 2.55,-2.714 c 0.651,-2.833 1.773,-5.245 2.151,-7.743 0.545,-3.594 -1.457,-3.093 -3.744,-1.995 -3.36,-0.333 -6.276,0.276 -6.454,3.192 -0.132,2.171 1.061,2.547 2.47,1.357 0.8,-0.675 1.643,-0.917 2.47,-1.276 1.211,-0.528 2.228,-0.245 2.151,1.037 C 1.428,-5.382 -0.271,-2.752 0,0"
         style="fill:#ed1c24;fill-opacity:1;fill-rule:evenodd;stroke:#ed1c24;stroke-width:0.216;stroke-linecap:butt;stroke-linejoin:miter;stroke-miterlimit:2.613;stroke-dasharray:none;stroke-opacity:1"
         transform="matrix(1.3333333,0,0,-1.3333333,137.92,149.764)" />
      <path
         id="path27"
         d="m 0,0 c 2.333,-0.477 2.154,-2.908 -0.558,-2.873 -3.558,0.045 -7.124,0.379 -10.676,0.16 -7.495,-0.467 -7.974,-6.445 -4.621,-13.252 3.14,-4.773 5.974,-8.111 10.597,-11.094 1.095,-0.707 1.843,0.192 1.195,1.436 -1.515,2.912 -2.395,5.137 -0.638,5.908 3.919,1.719 6.346,-0.56 7.569,-3.513 7.063,3.218 13.386,8.037 18.962,13.171 0.806,2.473 1.999,4.131 4.302,3.911 0.82,-0.078 1.652,0.091 2.47,0 1.797,-0.2 1.278,-1.249 0.717,-2.395 2.191,-1.117 4.764,-1.373 7.171,-1.277 0.929,0.037 0.904,-1.244 -0.08,-1.278 -2.686,-0.088 -5.285,-0.091 -7.967,0.799 -0.481,-1.183 -1.244,-2.101 -2.39,-2.314 -0.653,-0.121 -1.328,0 -1.992,0 -5.968,-5.662 -12.515,-10.891 -20.396,-14.209 -1.68,-7.09 -7.615,-6.77 -16.731,-1.516 2.881,-11.082 9.358,-18.492 21.193,-19.476 1.779,-0.149 2.464,1.412 0.876,2.394 -5.635,3.486 -1.994,8.41 3.585,8.781 6.725,0.446 8.876,-0.859 8.923,-5.189 0.049,-4.426 -9.352,-10.233 -19.121,-9.26 -15.211,2.92 -19.951,11.529 -17.528,24.027 -5.896,4.043 -10.507,9.917 -9.72,17.561 C -23.699,1.772 -12.506,2.559 0,0"
         style="fill:#ed1c24;fill-opacity:1;fill-rule:evenodd;stroke:#ed1c24;stroke-width:0.216;stroke-linecap:butt;stroke-linejoin:miter;stroke-miterlimit:2.613;stroke-dasharray:none;stroke-opacity:1"
         transform="matrix(1.3333333,0,0,-1.3333333,125.41467,410.62133)" />
      <path
         id="path28"
         d="M 0,0 C 1.062,0.813 2.287,2.233 1.354,3.512 -0.006,5.381 -2.163,5.18 -2.789,2.953 -3.206,1.469 -1.649,0.664 0,0"
         style="fill:#ffffff;fill-opacity:1;fill-rule:evenodd;stroke:#ee2528;stroke-width:0.216;stroke-linecap:butt;stroke-linejoin:miter;stroke-miterlimit:2.613;stroke-dasharray:none;stroke-opacity:1"
         transform="matrix(1.3333333,0,0,-1.3333333,144.85467,469.796)" />
      <path
         id="path29"
         d="m 0,0 c -0.045,1.412 -0.362,2.824 -0.239,4.23 0.092,1.049 0.418,2.086 0.877,3.033 1.382,2.85 3.595,3.823 6.215,3.512 C 9.824,10.423 9.851,9.361 9.402,8.062 6.906,0.84 3.008,-5.977 -0.478,-13.25 c -0.727,-1.518 1.094,-2.637 3.347,-1.198 4.219,2.698 8.372,5.541 12.19,8.782 0.603,0.509 0.851,1.685 1.673,2.713 0.778,0.974 1.909,1.798 3.904,2.554 1.379,0.522 2.884,-0.976 1.673,-1.996 -0.664,-0.558 -1.521,-1.002 -1.434,-1.996 0.104,-1.19 -0.333,-2.18 -2.151,-2.793 -0.874,-0.295 -2.026,0.061 -2.709,-0.559 -5.975,-5.416 -12.117,-8.507 -19.042,-9.578 -3.598,-3.033 -7.513,-5.449 -11.473,-7.744 -2.06,-1.191 -4.231,-1.426 -5.657,0.561 -1.433,1.996 -3.232,4.158 -5.418,6.304 -1.086,1.067 -0.951,2.075 0.478,3.274 1.55,1.301 2.477,1.512 4.621,0.318 3.961,-2.203 8.154,-2.5 11.314,-2.234 C -4.096,-15.633 0.145,-4.44 0,0"
         style="fill:#ed1c24;fill-opacity:1;fill-rule:evenodd;stroke:#ed1c24;stroke-width:0.216;stroke-linecap:butt;stroke-linejoin:miter;stroke-miterlimit:2.613;stroke-dasharray:none;stroke-opacity:1"
         transform="matrix(1.3333333,0,0,-1.3333333,170.03067,470.54)" />
      <path
         id="path30"
         d="M 0,0 C -1.248,-0.163 -2.449,-0.098 -3.744,0.238 -4.726,0.494 -5.488,0.156 -5.497,-0.401 -5.515,-1.551 -4.802,-2.862 -3.505,-2.875 -1.905,-2.891 -0.889,-1.333 0,0"
         style="fill:#ed1c24;fill-opacity:1;fill-rule:evenodd;stroke:#ed1c24;stroke-width:0.216;stroke-linecap:butt;stroke-linejoin:miter;stroke-miterlimit:2.613;stroke-dasharray:none;stroke-opacity:1"
         transform="matrix(1.3333333,0,0,-1.3333333,156.64533,495.97467)" />
      <path
         id="path31"
         d="m 0,0 c -1.182,-0.851 -0.327,-2.568 1.991,-1.437 6.486,3.164 11.624,8.164 16.174,13.65 1.028,1.24 0.687,1.817 -0.876,1.914 -1.391,0.088 -2.844,-0.094 -3.825,-1.355 C 9.819,8.082 5.315,3.828 0,0"
         style="fill:#ed1c24;fill-opacity:1;fill-rule:evenodd;stroke:#ed1c24;stroke-width:0.216;stroke-linecap:butt;stroke-linejoin:miter;stroke-miterlimit:2.613;stroke-dasharray:none;stroke-opacity:1"
         transform="matrix(1.3333333,0,0,-1.3333333,184.692,502.468)" />
      <path
         id="path32"
         d="M 0,0 C -1.779,4.098 -0.366,5.455 3.984,5.029 6.672,4.764 7.644,3.381 6.215,2.074 4.931,0.902 4.623,0.045 5.339,-0.879 7.706,-3.935 6.041,-4.638 2.949,-3.353 1.287,-2.662 -0.66,-2.459 -2.868,-1.676 -4.25,-1.187 -3.877,-0.174 -2.788,-0.16 -1.857,-0.148 -0.929,-0.053 0,0"
         style="fill:#ed1c24;fill-opacity:1;fill-rule:evenodd;stroke:#ed1c24;stroke-width:0.216;stroke-linecap:butt;stroke-linejoin:miter;stroke-miterlimit:2.613;stroke-dasharray:none;stroke-opacity:1"
         transform="matrix(1.3333333,0,0,-1.3333333,191.596,448.40267)" />
      <path
         id="path33"
         d="M 0,0 C 1.991,-1.389 3.847,-3.356 5.832,-4.12 7.417,-4.729 8.213,-4.176 7.204,-2.883 4.956,-0.006 7.13,1.947 9.536,-0.414 14.515,-5.301 13.45,-9.395 6.381,-6.725 3.576,-5.666 0.518,-3.961 -1.303,-1.442 -2.359,0.017 -1.588,1.105 0,0"
         style="fill:#ed1c24;fill-opacity:1;fill-rule:evenodd;stroke:#ed1c24;stroke-width:0.216;stroke-linecap:butt;stroke-linejoin:miter;stroke-miterlimit:2.613;stroke-dasharray:none;stroke-opacity:1"
         transform="matrix(1.3333333,0,0,-1.3333333,130.87867,399.764)" />
      <path
         id="path34"
         d="M 0,0 C 0.104,1.283 0.734,1.843 1.924,1.65 2.864,1.5 3.802,1.334 4.74,1.17 6.141,0.923 6.278,0.021 6.183,-0.965 6.047,-2.366 5.864,-3.764 5.702,-5.162 5.612,-5.942 5.587,-6.907 4.946,-6.954 c 1.638,-0.492 2.742,-0.523 3.848,-1.169 0.76,-0.444 1.246,-1.1 1.236,-2.065 -0.012,-1.309 0.022,-2.633 -0.206,-3.922 -0.141,-0.802 -0.725,-1.498 -1.924,-1.24 -0.941,0.203 -1.849,0.549 -2.748,0.895 -0.707,0.273 -0.942,0.918 -0.961,1.79 -0.027,1.243 -0.081,2.491 -0.275,3.717 -0.105,0.666 -0.253,1.514 0.275,1.789 -1.054,0.321 -1.901,0.229 -2.955,0.551 -1.17,0.318 -1.94,0.696 -1.649,1.996 C -0.075,-3.106 -0.124,-1.54 0,0"
         style="fill:#ed1c24;fill-opacity:1;fill-rule:evenodd;stroke:#ed1c24;stroke-width:0.216;stroke-linecap:butt;stroke-linejoin:miter;stroke-miterlimit:2.613;stroke-dasharray:none;stroke-opacity:1"
         transform="matrix(1.3333333,0,0,-1.3333333,78.286667,433.37067)" />
      <path
         id="path35"
         d="M 0,0 C 1.182,0.512 1.972,0.219 2.361,-0.922 2.669,-1.824 2.963,-2.729 3.259,-3.635 3.698,-4.986 2.967,-5.533 2.052,-5.91 0.751,-6.449 -0.569,-6.943 -1.881,-7.457 c -0.73,-0.287 -1.593,-0.717 -1.934,-0.174 0.333,-1.676 0.824,-2.666 0.773,-3.945 -0.035,-0.881 -0.387,-1.617 -1.242,-2.063 -1.162,-0.603 -2.316,-1.256 -3.561,-1.66 -0.774,-0.252 -1.663,-0.062 -1.997,1.117 -0.263,0.926 -0.385,1.891 -0.5,2.846 -0.092,0.754 0.366,1.264 1.128,1.689 1.084,0.608 2.16,1.241 3.152,1.989 0.539,0.406 1.219,0.933 1.709,0.597 -0.211,1.082 -0.69,1.787 -0.9,2.868 -0.269,1.183 -0.297,2.039 0.987,2.392 C -2.777,-1.393 -1.417,-0.611 0,0"
         style="fill:#ed1c24;fill-opacity:1;fill-rule:evenodd;stroke:#ed1c24;stroke-width:0.216;stroke-linecap:butt;stroke-linejoin:miter;stroke-miterlimit:2.613;stroke-dasharray:none;stroke-opacity:1"
         transform="matrix(1.3333333,0,0,-1.3333333,495.17333,423.944)" />
      <path
         id="path36"
         d="m 0,0 c 0.702,0.543 1.401,1.094 2.071,1.678 0.95,0.826 1.713,0.817 2.47,0 C 5.141,1.03 5.823,0.461 6.453,-0.158 7.15,-0.843 7.294,-1.72 6.612,-2.552 5.826,-3.513 4.866,-4.316 3.983,-5.187 3.167,-5.992 2.342,-5.82 1.513,-4.709 0.935,-3.931 0.368,-3.146 -0.24,-2.394 -0.986,-1.47 -0.917,-0.707 0,0"
         style="fill:#ed1c24;fill-opacity:1;fill-rule:evenodd;stroke:#ed1c24;stroke-width:0.216;stroke-linecap:butt;stroke-linejoin:miter;stroke-miterlimit:2.613;stroke-dasharray:none;stroke-opacity:1"
         transform="matrix(1.3333333,0,0,-1.3333333,259.58533,513.752)" />
      <path
         id="path37"
         d="m 0,0 c 1.443,1.637 2.888,0.603 1.753,-1.197 -2.437,-3.868 -4.452,-7.278 -0.637,-9.42 8.225,-4.618 17.548,-7.743 26.611,-7.024 2.02,0.16 2.777,2.867 0.797,2.633 -4.559,-0.537 -7.151,0.602 -6.374,4.152 0.832,3.805 3.381,6.377 6.374,8.381 1.856,1.242 3,0.682 3.505,-0.719 2.463,-6.816 2.209,-12.224 -0.159,-16.283 -2.04,-3.496 -6.801,-4.252 -11.872,-3.992 -7.816,0.402 -15.415,2.199 -21.591,6.625 C -6.69,-13.19 -6.316,-7.176 0,0"
         style="fill:#ed1c24;fill-opacity:1;fill-rule:evenodd;stroke:#ed1c24;stroke-width:0.216;stroke-linecap:butt;stroke-linejoin:miter;stroke-miterlimit:2.613;stroke-dasharray:none;stroke-opacity:1"
         transform="matrix(1.3333333,0,0,-1.3333333,232.60133,528.436)" />
      <path
         id="path38"
         d="M 0,0 C -2.164,0.185 -3.937,1.121 -3.267,2.552 -2.329,4.556 -0.696,4.881 -0.08,2.953 0.164,2.191 -0.053,0.797 0,0"
         style="fill:#ffffff;fill-opacity:1;fill-rule:evenodd;stroke:#ee2528;stroke-width:0.216;stroke-linecap:butt;stroke-linejoin:miter;stroke-miterlimit:2.613;stroke-dasharray:none;stroke-opacity:1"
         transform="matrix(1.3333333,0,0,-1.3333333,272.332,543.76133)" />
      <path
         id="path39"
         d="M 0,0 C -0.147,2.191 0.765,2.886 2.39,4.55 4.939,7.16 4.383,5.16 4.303,3.513 3.831,-6.131 3.531,-15.711 3.585,-25.143 c 0.027,-4.617 4.029,-6.078 6.773,-6.146 1.461,-0.037 2.107,0.595 1.115,1.435 -2.758,2.338 -2.33,4.871 -1.833,5.828 1.825,3.508 4.729,4.371 7.888,3.752 4.665,-0.914 5.195,-6.072 4.223,-9.658 3.08,-1.631 6.318,-1.644 8.605,0.717 0.955,0.986 1.058,2.17 1.832,3.193 0.895,1.186 1.62,0.906 1.594,-0.398 -0.027,-1.332 -0.532,-3.114 -1.434,-4.231 2.171,-2.115 4.973,-1.955 8.206,-0.24 0.095,1.635 -0.173,3.918 0.797,5.269 1.287,1.793 1.978,0.938 2.151,-0.16 0.208,-1.316 -0.16,-2.662 -0.239,-3.992 4.689,-2.527 5.772,0.961 5.976,3.912 0.176,2.553 2.152,1.666 2.629,-0.16 1.496,-5.725 0.016,-9.902 -3.426,-11.015 -2.24,-0.725 -4.356,0.345 -5.896,2.076 -5.259,-4.787 -11.18,-4.082 -17.289,-1.836 -2.935,-0.758 -5.804,-0.653 -8.525,1.357 -6.64,-3.859 -15.073,-2.308 -17.051,3.432 -0.725,2.105 -0.878,4.629 -0.637,7.424 C -0.224,-16.108 0.524,-7.819 0,0"
         style="fill:#ed1c24;fill-opacity:1;fill-rule:evenodd;stroke:#ed1c24;stroke-width:0.216;stroke-linecap:butt;stroke-linejoin:miter;stroke-miterlimit:2.613;stroke-dasharray:none;stroke-opacity:1"
         transform="matrix(1.3333333,0,0,-1.3333333,284.76133,515.98533)" />
      <path
         id="path40"
         d="m 0,0 c -1.53,-0.686 -0.897,-2.404 0.717,-1.758 7.275,2.92 13.526,6.68 18.325,11.494 1.013,1.018 -0.023,2.629 -1.275,1.518 C 12.525,6.605 6.58,2.941 0,0"
         style="fill:#ed1c24;fill-opacity:1;fill-rule:evenodd;stroke:#ed1c24;stroke-width:0.216;stroke-linecap:butt;stroke-linejoin:miter;stroke-miterlimit:2.613;stroke-dasharray:none;stroke-opacity:1"
         transform="matrix(1.3333333,0,0,-1.3333333,303.45867,521.83733)" />
      <path
         id="path41"
         d="m 0,0 c -0.089,2.899 1.221,3.446 3.904,2.315 7.904,-3.332 13.103,-9.209 16.652,-17.323 0.632,-1.445 1.731,-1.441 1.913,-0.158 0.81,5.737 -0.519,12.401 -4.223,17.16 -1.354,1.741 -1.413,3.955 -1.116,6.547 0.499,4.356 2.098,3.059 3.665,0.717 0.675,-1.008 1.131,-2.08 1.354,-3.272 0.217,-1.156 -0.187,-2.32 0.32,-3.193 3.356,-5.785 4.575,-11.863 3.425,-18.119 -3.32,-18.06 -12.319,-19.174 -20.635,-21.232 -1.985,-0.493 -3.717,0.291 -0.956,1.595 6.174,2.92 17.204,9.018 13.624,17.162 -1.863,4.239 -5.447,7.616 -9.482,10.936 C 7.719,-6.267 7.267,-6.258 7.489,-7.025 7.71,-7.783 8.306,-8.381 8.286,-9.259 8.252,-10.816 7.762,-11.529 6.454,-10.297 5.345,-9.254 3.972,-8.244 2.231,-7.424 1.289,-6.98 0.63,-6.131 0.478,-4.23 0.365,-2.816 0.044,-1.42 0,0"
         style="fill:#ed1c24;fill-opacity:1;fill-rule:evenodd;stroke:#ed1c24;stroke-width:0.216;stroke-linecap:butt;stroke-linejoin:miter;stroke-miterlimit:2.613;stroke-dasharray:none;stroke-opacity:1"
         transform="matrix(1.3333333,0,0,-1.3333333,345.95067,531.62933)" />
      <path
         id="path42"
         d="m 0,0 c 0.489,1.881 1.147,2.567 2.629,1.598 1.215,-0.797 2.162,-1.953 3.346,-2.795 1.029,-0.73 1.142,-1.84 1.275,-3.113 0.079,-0.764 0.206,-1.551 0.557,-2.235 4.189,-8.119 8.283,-15.49 8.366,-20.992 0.036,-2.349 -1.561,-2.681 -2.469,-0.558 -2.936,6.859 -5.97,14.132 -10.518,21.312 -0.529,0.834 -1.07,1.678 -1.753,2.395 C -0.11,-2.769 -0.424,-1.628 0,0"
         style="fill:#ed1c24;fill-opacity:1;fill-rule:evenodd;stroke:#ed1c24;stroke-width:0.216;stroke-linecap:butt;stroke-linejoin:miter;stroke-miterlimit:2.613;stroke-dasharray:none;stroke-opacity:1"
         transform="matrix(1.3333333,0,0,-1.3333333,381.752,511.19733)" />
      <path
         id="path43"
         d="m 0,0 c -0.047,-0.75 0.535,-1.086 1.275,-0.957 0.482,0.084 0.967,0.172 1.434,0.319 2.817,0.881 2.072,-0.963 1.275,-1.836 -1.555,-1.705 -3.569,-2.967 -5.02,-4.95 -0.799,-1.091 -1.568,-0.814 -1.991,-0.08 -1.875,3.252 -2.427,5.955 -1.514,7.344 0.841,1.281 1.915,1.729 3.267,1.756 C 0.024,1.623 0.075,1.204 0,0"
         style="fill:#ed1c24;fill-opacity:1;fill-rule:evenodd;stroke:#ed1c24;stroke-width:0.216;stroke-linecap:butt;stroke-linejoin:miter;stroke-miterlimit:2.613;stroke-dasharray:none;stroke-opacity:1"
         transform="matrix(1.3333333,0,0,-1.3333333,352.43067,510.02533)" />
      <path
         id="path44"
         d="m 0,0 c 33.192,6.078 54.415,25.741 62.492,60.328 0.532,4.786 0.024,8.754 -4.2,9.801 -1.521,-12.476 -5.724,-8.851 -10.31,-2.927 -4.796,10.289 -0.722,11.943 7.382,9.673 10.247,-3.117 15.085,-11.431 8.019,-31.183 0.89,-2.035 1.782,-4.072 2.673,-6.109 2.291,-2.715 3.902,-2.206 4.836,1.527 0.339,10.011 2.375,20.025 6.109,30.037 -2.885,3.67 -4.498,7.658 -3.309,12.346 0.636,3.351 2.46,3.988 5.473,1.91 1.824,-1.358 3.648,-2.715 5.473,-4.072 1.569,1.144 2.629,1.101 3.181,-0.129 0.982,-2.249 1.494,-4.539 -1.272,-7.127 C 78.808,64.069 77.033,51.975 76.11,39.583 74.274,24.805 64.896,31.551 61.473,41.493 53.843,21.881 39.195,5.907 13.236,-4.199 8.739,-5.685 4.241,-4.962 -0.255,-2.037 -2.206,-1.017 -2.121,-0.337 0,0"
         style="fill:#ed1c24;fill-opacity:1;fill-rule:evenodd;stroke:#ed1c24;stroke-width:0.216;stroke-linecap:butt;stroke-linejoin:miter;stroke-miterlimit:2.613;stroke-dasharray:none;stroke-opacity:1"
         transform="matrix(1.3333333,0,0,-1.3333333,447.23333,533.252)" />
      <path
         id="path45"
         d="m 0,0 c -1.14,1.763 -3.46,1.156 -4.2,-0.51 -0.284,-0.639 0.192,-1.332 1.019,-2.037 0.913,-0.779 1.756,-0.838 2.163,0.129 C -0.734,-1.744 0.398,-0.615 0,0"
         style="fill:#ffffff;fill-opacity:1;fill-rule:evenodd;stroke:#ee2528;stroke-width:0.216;stroke-linecap:butt;stroke-linejoin:miter;stroke-miterlimit:2.613;stroke-dasharray:none;stroke-opacity:1"
         transform="matrix(1.3333333,0,0,-1.3333333,520.88267,438.048)" />
      <path
         id="path46"
         d="M 0,0 C 0.509,1.442 1.356,2.545 2.545,3.309 1.739,3.945 0.99,4.662 0.127,5.217 -1.519,6.278 -2.653,5.795 -2.419,4.072 -2.182,2.328 -1.146,1.018 0,0"
         style="fill:#ffffff;fill-opacity:1;fill-rule:evenodd;stroke:#ee2528;stroke-width:0.216;stroke-linecap:butt;stroke-linejoin:miter;stroke-miterlimit:2.613;stroke-dasharray:none;stroke-opacity:1"
         transform="matrix(1.3333333,0,0,-1.3333333,553.12667,432.95733)" />
      <path
         id="path47"
         d="m 0,0 c 127.403,0 231.314,-103.91 231.314,-231.314 0,-127.404 -103.911,-231.314 -231.314,-231.314 -127.404,0 -231.314,103.91 -231.314,231.314 C -231.314,-103.91 -127.404,0 0,0 Z m 0,10.515 c 133.194,0 241.828,-108.634 241.828,-241.829 0,-133.193 -108.634,-241.828 -241.828,-241.828 -133.194,0 -241.828,108.635 -241.828,241.828 0,133.195 108.634,241.829 241.828,241.829"
         style="fill:#ed1c24;fill-opacity:1;fill-rule:evenodd;stroke:none"
         transform="matrix(1.3333333,0,0,-1.3333333,322.58133,14.164)" />
      <path
         id="path48"
         d="m 0,0 c 127.403,0 231.314,-103.91 231.314,-231.314 0,-127.404 -103.911,-231.314 -231.314,-231.314 -127.404,0 -231.314,103.91 -231.314,231.314 C -231.314,-103.91 -127.404,0 0,0 Z"
         style="fill:none;stroke:#ed1c24;stroke-width:0.216;stroke-linecap:butt;stroke-linejoin:miter;stroke-miterlimit:2.613;stroke-dasharray:none;stroke-opacity:1"
         transform="matrix(1.3333333,0,0,-1.3333333,322.58133,14.164)"
         clip-path="url(#clipPath49)" />
      <path
         id="path50"
         d="m 0,0 c 133.194,0 241.828,-108.634 241.828,-241.829 0,-133.193 -108.634,-241.828 -241.828,-241.828 -133.194,0 -241.828,108.635 -241.828,241.828 C -241.828,-108.634 -133.194,0 0,0 Z"
         style="fill:none;stroke:#ed1c24;stroke-width:0.216;stroke-linecap:butt;stroke-linejoin:miter;stroke-miterlimit:2.613;stroke-dasharray:none;stroke-opacity:1"
         transform="matrix(1.3333333,0,0,-1.3333333,322.58133,0.144)"
         clip-path="url(#clipPath51)" />
      <path
         id="path52"
         d="m 0,0 h 79.017 v -73.919 h 73.919 v -79.015 H 79.017 v -73.92 H 0 v 73.92 h -73.918 v 79.015 H 0 L 0,0"
         style="fill:#ed1c24;fill-opacity:1;fill-rule:evenodd;stroke:#ed1c24;stroke-width:0.216;stroke-linecap:butt;stroke-linejoin:miter;stroke-miterlimit:2.613;stroke-dasharray:none;stroke-opacity:1"
         transform="matrix(1.3333333,0,0,-1.3333333,270.22533,181.96667)" />
    </g>
  </g>
</svg>
