<?xml version="1.0" encoding="utf-8"?>
<!-- Generator: Adobe Illustrator 16.0.0, SVG Export Plug-In . SVG Version: 6.00 Build 0)  -->
<!DOCTYPE svg PUBLIC "-//W3C//DTD SVG 1.1//EN" "http://www.w3.org/Graphics/SVG/1.1/DTD/svg11.dtd">
<svg version="1.1" id="Layer_1" xmlns="http://www.w3.org/2000/svg" xmlns:xlink="http://www.w3.org/1999/xlink" x="0px" y="0px"
	 width="595.28px" height="841.89px" viewBox="0 0 595.28 841.89" enable-background="new 0 0 595.28 841.89" xml:space="preserve">
<g>
	<path fill-rule="evenodd" clip-rule="evenodd" fill="#FDFDFD" d="M20.163,156.413c0-47.249,0-94.498,0-141.746
		c185.333,0,370.666,0,556,0c0,47.249,0,94.497,0,141.746C390.83,156.413,205.497,156.413,20.163,156.413z M72.996,103.092
		c0,12.006,0,23.712,0,35.51c11.651,0,22.968-0.03,34.284,0.029c1.937,0.01,2.033-1.006,2.026-2.484
		c-0.039-8.625-0.021-17.252-0.023-25.878c0-2.158,0-4.315,0-6.783c11.896,0,23.506,0,35.246,0c0-11.287-0.072-22.258,0.057-33.227
		c0.028-2.352-0.895-2.724-2.904-2.708c-10.02,0.081-20.04,0.066-30.06,0.053c-0.916-0.001-1.913,0.289-3.012-0.598
		c0-11.451,0-23.081,0-34.734c-11.995,0-23.71,0-35.702,0c0,11.776,0,23.318,0,35.198c-12.05,0-23.826,0-35.745,0
		c0,11.047,0.085,21.755-0.061,32.46c-0.035,2.574,0.75,3.241,3.238,3.212C51.053,103.023,61.769,103.092,72.996,103.092z
		 M297.309,96.145c-2.819,0.771-3.714-0.733-4.279-2.935c-0.729-2.839-1.621-5.641-2.553-8.421c-0.309-0.92-0.392-1.528,0.396-2.284
		c4.491-4.302,4.192-12.807,1.7-17.542c-1.104-2.099-2.638-3.942-5.274-4.067c-5.369-0.255-10.731-0.023-16.2,0.252
		c-0.086,2.372-0.311,4.574,0.138,6.881c1.073,0,2.004,0,2.954,0c0,9.393,0,18.658,0,27.855c-1.118,0.516-2.248-0.122-3.216,0.585
		c0,2.188,0,4.395,0,6.623c4.49,0,8.81,0,13.29,0c-0.195-2.37,0.26-4.606-0.218-6.635c-1.011-0.651-2.101,0.068-2.868-0.687
		c0-3.677,0-7.303,0-10.874c2.181-0.679,3.013,0.224,3.563,2.18c1.52,5.409,3.254,10.759,4.91,16.155
		c2.692-0.08,5.18,0.244,7.657-0.245C297.309,100.71,297.309,98.636,297.309,96.145z M397.622,89.828
		c-1.673,0.137-3.204-0.352-4.687,0.261c-0.405,2.014,0.246,4.041-0.437,5.89c-2.571,0-4.968,0-7.493,0c0-3.672,0-7.194,0-10.901
		c2.081-0.096,4.046-0.187,6.077-0.281c0.345-2.388,0.342-4.578-0.139-6.995c-2.042,0-3.923,0-5.935,0c0-3.346,0-6.446,0-9.661
		c2.526,0,5.019,0,7.787,0c0,2.063,0,4.024,0,6.004c1.727,0.176,3.175,0.281,4.731-0.025c0-4.425,0-8.8,0-13.159
		c-7.467,0-14.743,0-22.102,0c0,2.372,0,4.595,0,6.755c0.916,0.657,2.028-0.095,2.666,0.561c0,9.309,0,18.489,0,27.737
		c-1.027,0.091-1.852,0.164-2.719,0.241c0,2.342,0,4.5,0,6.824c7.44,0,14.799,0,22.248,0
		C397.622,98.738,397.622,94.489,397.622,89.828z M431.369,100.874c4.444,4.129,8.132,3.887,10.882-0.516
		c0.366-0.586,0.738-1.194,0.958-1.844c2.155-6.349,2.547-12.76,0.169-19.113c-2.561-6.838-6.972-7.812-12.1-2.596
		c0-1.077,0-1.981,0-2.873c-3.269,0-6.346,0-9.48,0c0.155,2.323-0.261,4.483,0.284,6.679c0.979,0,1.831,0,2.811,0
		c0,9.709,0,19.323,0,29.141c-1.051,0-1.967,0-2.934,0c0,2.339,0,4.471,0,6.654c4.362,0,8.579,0,12.851,0c0-2.205,0-4.255,0-6.425
		c-1.195-0.112-2.278-0.213-3.44-0.322C431.369,106.712,431.369,103.951,431.369,100.874z M183.012,85.605
		c-0.501,3.146-1.217,6.054-3.259,8.441c-2.32,2.711-5.517,2.705-7.823-0.041c-1.021-1.216-1.703-2.63-2.138-4.147
		c-1.474-5.148-1.432-10.306-0.028-15.462c0.393-1.441,0.996-2.786,1.88-3.992c2.563-3.495,6.237-3.548,8.917-0.142
		c0.652,0.829,1.112,1.753,1.341,2.784c0.613,2.756,2.36,3.231,5.098,2.418c0-2.447,0-4.865,0-7.284c0-2.418,0-4.837,0-7.431
		c-1.547,0.163-2.809,0.296-4.152,0.437c-0.09,0.847-0.167,1.571-0.27,2.532c-1.511-1.215-2.735-2.435-4.405-3.014
		c-5.033-1.746-11.019,1.41-13.683,7.185c-2.003,4.342-2.891,8.929-2.888,13.656c0.004,6.139,0.791,12.123,4.483,17.345
		c2.933,4.147,8.078,5.848,12.853,4.182c4.382-1.529,8.938-8.531,8.77-13.399c-0.02-0.59-0.155-0.988-0.641-1.289
		C185.752,87.569,184.787,86.256,183.012,85.605z M473.559,103.057c3.769,0,7.558,0,11.684,0c-0.966-2.442,1.727-5.91-2.755-7.027
		c0-3.842,0.075-7.669-0.026-11.492c-0.063-2.372,1.563-3.144,3.274-3.234c1.883-0.099,1.79,1.762,1.932,3.097
		c0.1,0.947,0.013,1.914,0.013,2.871c-0.001,5.273,0,10.546,0,15.865c3.148,0,5.999,0,8.893,0c0-2.186,0-4.254,0-6.358
		c-0.906-0.187-1.731-0.356-2.587-0.533c-0.323-5.284,0.297-10.425-0.366-15.522c-0.973-7.464-4.775-9.19-11.022-4.84
		c-0.073-0.726-0.137-1.35-0.193-1.906c-3.132,0-6.121,0-9.042,0c0,2.272,0,4.331,0,6.229c0.953,0.736,2.052-0.081,2.787,0.652
		c0,5.181,0,10.294,0,15.39C472.955,96.73,472.955,96.73,473.559,103.057z M352.366,85.758c-5.483-1.842-8.994-0.979-11.396,2.702
		c-2.489,3.813-2.163,9.729,0.722,12.903c1.022,1.125,2.264,1.916,3.77,2.191c2.553,0.467,4.731-0.449,6.655-2.146
		c0.769,2.033,4.11,2.488,10.223,1.566c0-2.112,0-4.236,0-6.266c-1.069-0.624-2.217,0.099-3.239-0.701
		c0-4.466,0.079-8.991-0.025-13.512c-0.078-3.349-1.041-6.422-4.232-8.132c-4.486-2.405-12.809-1.65-15.061,5.188
		c2.193,1.086,4.131,2.608,6.683,0.18c1.476-1.404,3.436-0.91,4.857,0.695C352.658,81.935,353.27,83.614,352.366,85.758z
		 M231.202,96.189c0-7.581,0-14.948,0-22.283c-2.68,0-5.077,0-7.609,0c0.374,2.652,0.305,4.976,1.266,7.598
		c1.292,3.523,0.44,7.901,0.173,11.89c-0.103,1.542-1.689,2.412-3.252,2.434c-1.695,0.025-1.709-1.42-1.79-2.643
		c-0.051-0.78-0.022-1.566-0.023-2.35c-0.001-5.629,0-11.258,0-16.901c-3.181,0-6.074,0-8.879,0c0,2.261,0,4.329,0,6.536
		c0.916,0.069,1.726,0.13,2.626,0.197c0,1.5-0.038,2.798,0.007,4.093c0.15,4.342-0.467,8.719,0.365,13.023
		c1.169,6.049,5.342,7.576,10.183,3.833c0.189-0.146,0.449-0.2,0.662-0.292c0.509,0.557-0.143,1.46,0.524,1.771
		c2.996,0,5.841,0,8.731,0c0.191-2.218,0.035-4.27-0.213-6.251C233.085,96.634,232.327,96.455,231.202,96.189z M299.736,87.945
		c0.09,1.387,0.041,2.801,0.311,4.152c0.244,1.228,0.781,2.436,1.105,3.627c1.144,4.202,3.964,7.365,7.515,7.875
		c5.049,0.725,8.527-0.926,10.7-5.456c3.166-6.601,2.908-13.367-0.31-19.78c-3.245-6.466-11.07-7.131-15.785-1.625
		C300.524,79.949,299.948,83.89,299.736,87.945z M554.641,96.308c0-1.036,0.025-1.981-0.004-2.924
		c-0.13-4.264,0.077-8.539-0.418-12.792c-0.354-3.026-1.479-5.638-4.507-6.747c-4.949-1.813-11.619-0.624-13.137,6.054
		c2.211,0.792,4.271,2.069,6.521-0.355c1.257-1.353,3.604-0.407,4.536,1.452c0.717,1.427,0.969,2.958,0.645,4.559
		c-5.675-1.777-9.382-0.438-11.194,4.16c-1.013,2.568-1.098,5.298-0.436,7.946c1.334,5.338,6.659,8.211,11.052,4.065
		c0.105-0.099,0.313-0.092,0.559-0.157c0.118,0.559,0.235,1.106,0.326,1.537c3.065,0,6.008,0,9.05,0
		c0.021-2.267,0.313-4.399-0.117-6.577C556.537,96.454,555.695,96.389,554.641,96.308z M459.376,102.009
		c3.487,2.185,6.824,0.801,9.985,1.208c0-2.379,0-4.437,0-6.587c-0.934-0.128-1.759-0.241-2.957-0.405
		c0-4.968,0.188-9.829-0.066-14.666c-0.173-3.264-1.254-6.447-4.725-7.717c-4.916-1.797-11.604-0.383-13.09,5.997
		c2.109,0.803,4.012,2.046,6.297-0.137c1.543-1.473,3.775-0.696,4.778,1.273c0.709,1.392,1.026,2.9,0.618,4.495
		c-6.154-1.594-9.415-0.189-11.231,4.664c-0.501,1.335-0.727,2.73-0.696,4.075c0.074,3.34,0.53,6.655,3.804,8.583
		C454.865,104.427,457.421,103.747,459.376,102.009z M518.791,89.294c-0.003-5.327-0.597-8.073-2.273-11.185
		c-3.291-6.108-10.551-6.627-14.584-1.041c-4.05,5.61-4.268,16.209-0.461,22.282c1.899,3.03,4.557,4.782,8.205,4.492
		c3.69-0.294,5.966-2.612,7.361-5.837C518.326,95.03,518.856,91.879,518.791,89.294z M244.911,97.177
		c3.3-5.039,6.17-9.81,9.445-14.285c2.132-2.915,1.905-5.891,1.638-8.985c-5.897,0-11.597,0-17.257,0c0,3.516,0,6.861,0,10.242
		c1.397,0.06,2.591,0.302,3.734-0.149c0.274-1.401-0.271-2.818,0.374-4.193c1.947-0.073,3.815-0.412,5.765,0.326
		c-0.342,0.633-0.592,1.184-0.917,1.686c-2.807,4.327-5.534,8.709-8.476,12.943c-1.848,2.66-1.686,5.451-1.417,8.397
		c6.151,0,12.129,0,18.183,0c0-3.597,0-7.107,0-10.651c-1.284,0.014-2.397-0.306-3.46,0.17c-0.471,1.47,0.187,3-0.494,4.5
		C249.815,97.177,247.603,97.177,244.911,97.177z M417.594,73.785c-3.016-0.211-5.938,0.364-8.855-0.426
		c-1.724-0.467-3.384,0.493-4.68,1.799c-5.035,5.076-2.805,13.838,4.048,15.897c1.239,0.373,2.504,0.683,3.71,1.146
		c1.51,0.58,2.639,1.573,2.033,3.375c-0.64,1.899-2.151,2.354-3.988,1.943c-2.273-0.509-3.047-2.29-3.442-4.273
		c-1.408,0-2.683,0-4.029,0c-0.406,3.313-0.388,6.507-0.228,10.067c3.428-0.419,6.744-0.062,10.06,0.332
		c1.075,0.128,2.023-0.338,2.967-0.822c4.522-2.319,5.588-14.188-0.152-16.992c-2.119-1.035-4.358-1.598-6.567-2.308
		c-1.305-0.419-2.178-1.144-1.807-2.66c0.363-1.483,1.618-1.789,2.846-1.749c1.985,0.065,3.378,1.176,4.116,2.91
		c1.392,0,2.663,0,3.97,0C417.594,79.237,417.594,76.574,417.594,73.785z M524.366,67.714c0,9.712,0,19.097,0,28.456
		c-0.854,0.474-1.861-0.023-2.593,0.782c0,1.991,0,4.053,0,6.172c3.915,0,7.715,0,11.563,0c0-2.186,0-4.24,0-6.323
		c-0.971-0.227-1.772-0.415-2.687-0.629c0-11.82,0-23.468,0-35.207c-3.063,0-5.96,0-8.896,0c0,2.277,0,4.403,0,6.585
		C522.67,67.608,523.428,67.655,524.366,67.714z M207.341,81.95c0-2.851,0-5.707,0-8.633c-4.318-0.056-5.885,3.125-7.462,6.843
		c-0.366-2.591,0.168-4.516-0.432-6.234c-2.865,0-5.521,0-8.265,0c0.147,2.311-0.374,4.457,0.17,6.552
		c0.987,0.067,1.834,0.124,2.693,0.183c0,5.292,0,10.448,0,15.58c-1.206,0.195-2.224,0.359-3.247,0.525c0,2.156,0,4.212,0,6.477
		c2.296,0,4.466,0.053,6.632-0.015c2.224-0.07,4.475,0.298,6.64-0.217c0-2.197,0-4.257,0-6.46c-1.207-0.089-2.299-0.17-3.37-0.249
		C199.896,86.97,201.267,82.728,207.341,81.95z M323.038,108.854c0,2.374,0,4.766,0,7.14c6.666,0.958,9.583-1.153,10.548-7.63
		c0.243-1.628,0.33-3.292,0.337-4.941c0.032-8.539,0.027-17.077,0.002-25.616c-0.004-1.278,0.234-2.588-0.221-3.856
		c-2.956,0-5.853,0-8.799,0c0,2.246,0,4.307,0,6.474c0.965,0.083,1.793,0.154,2.785,0.239c0,7.583,0.003,15.062,0,22.541
		C327.688,107.666,327.406,108.01,323.038,108.854z M489.661,60.814c-0.974,3.703-1.625,3.897-4.786,1.459
		c-0.411-0.317-0.83-0.628-1.268-0.91c-2.162-1.39-3.963-1.028-5.227,1.241c-1.281,2.302-1.813,4.802-1.449,7.577
		c1.003-0.237,1.896,0.231,2.671-0.347c0.899-3.535,1.334-3.701,4.21-1.659c0.563,0.4,1.131,0.797,1.726,1.146
		c2.263,1.328,3.705,1.092,5.041-1.093c1.385-2.266,1.94-4.771,1.479-7.428C491.172,60.596,490.409,60.539,489.661,60.814z
		 M327.24,65.448c0.033,2.503,1.705,4.958,3.376,4.955c1.711-0.003,3.44-2.699,3.367-5.25c-0.071-2.495-1.771-4.993-3.382-4.972
		C328.887,60.204,327.206,62.837,327.24,65.448z"/>
	<path fill-rule="evenodd" clip-rule="evenodd" fill="#BF0103" d="M72.996,103.092c-11.227,0-21.942-0.069-32.655,0.052
		c-2.488,0.028-3.273-0.639-3.238-3.212c0.146-10.705,0.061-21.414,0.061-32.46c11.919,0,23.695,0,35.745,0
		c0-11.88,0-23.422,0-35.198c11.992,0,23.707,0,35.702,0c0,11.653,0,23.283,0,34.734c1.099,0.887,2.096,0.596,3.012,0.598
		c10.02,0.013,20.04,0.028,30.06-0.053c2.009-0.017,2.932,0.355,2.904,2.708c-0.129,10.968-0.057,21.939-0.057,33.227
		c-11.74,0-23.35,0-35.246,0c0,2.468,0,4.625,0,6.783c0.001,8.625-0.016,17.252,0.023,25.878c0.007,1.478-0.089,2.494-2.026,2.484
		c-11.316-0.06-22.633-0.029-34.284-0.029C72.996,126.804,72.996,115.099,72.996,103.092z"/>
	<path fill-rule="evenodd" clip-rule="evenodd" fill="#050505" d="M297.309,96.145c0,2.491,0,4.565,0,6.842
		c-2.478,0.489-4.965,0.165-7.657,0.245c-1.656-5.396-3.39-10.746-4.91-16.155c-0.55-1.956-1.382-2.858-3.563-2.18
		c0,3.571,0,7.197,0,10.874c0.767,0.755,1.857,0.036,2.868,0.687c0.478,2.029,0.023,4.266,0.218,6.635c-4.48,0-8.8,0-13.29,0
		c0-2.228,0-4.435,0-6.623c0.968-0.707,2.099-0.069,3.216-0.585c0-9.198,0-18.463,0-27.855c-0.95,0-1.881,0-2.954,0
		c-0.449-2.307-0.224-4.509-0.138-6.881c5.468-0.275,10.831-0.507,16.2-0.252c2.636,0.125,4.169,1.968,5.274,4.067
		c2.492,4.735,2.791,13.239-1.7,17.542c-0.788,0.756-0.705,1.364-0.396,2.284c0.932,2.781,1.823,5.582,2.553,8.421
		C293.595,95.412,294.489,96.917,297.309,96.145z M281.11,77.791c2.4,0.192,4.577,0.403,5.709-1.952
		c1.034-2.149,1.075-4.423-0.164-6.498c-1.343-2.247-3.541-1.019-5.545-1.348C281.11,71.375,281.11,74.477,281.11,77.791z"/>
	<path fill-rule="evenodd" clip-rule="evenodd" fill="#050505" d="M397.622,89.828c0,4.661,0,8.91,0,13.25
		c-7.449,0-14.808,0-22.248,0c0-2.324,0-4.482,0-6.824c0.867-0.077,1.691-0.15,2.719-0.241c0-9.248,0-18.428,0-27.737
		c-0.638-0.656-1.75,0.096-2.666-0.561c0-2.16,0-4.383,0-6.755c7.358,0,14.635,0,22.102,0c0,4.359,0,8.734,0,13.159
		c-1.557,0.306-3.005,0.201-4.731,0.025c0-1.98,0-3.941,0-6.004c-2.769,0-5.261,0-7.787,0c0,3.215,0,6.315,0,9.661
		c2.012,0,3.893,0,5.935,0c0.48,2.417,0.483,4.607,0.139,6.995c-2.031,0.095-3.996,0.186-6.077,0.281c0,3.707,0,7.229,0,10.901
		c2.525,0,4.922,0,7.493,0c0.683-1.849,0.031-3.876,0.437-5.89C394.418,89.477,395.949,89.965,397.622,89.828z"/>
	<path fill-rule="evenodd" clip-rule="evenodd" fill="#050505" d="M431.369,100.874c0,3.077,0,5.838,0,8.786
		c1.162,0.109,2.245,0.21,3.44,0.322c0,2.17,0,4.22,0,6.425c-4.271,0-8.488,0-12.851,0c0-2.183,0-4.315,0-6.654
		c0.967,0,1.883,0,2.934,0c0-9.818,0-19.432,0-29.141c-0.979,0-1.831,0-2.811,0c-0.545-2.196-0.129-4.356-0.284-6.679
		c3.135,0,6.212,0,9.48,0c0,0.892,0,1.796,0,2.873c5.128-5.216,9.539-4.242,12.1,2.596c2.378,6.353,1.986,12.765-0.169,19.113
		c-0.22,0.649-0.592,1.257-0.958,1.844C439.501,104.761,435.813,105.003,431.369,100.874z M438.693,88.855
		c0.025-3.208-0.239-4.658-1.098-6.033c-1.505-2.407-4.098-2.433-5.271,0.114c-1.803,3.918-1.554,8.002,0.092,11.871
		c1.144,2.689,3.6,2.605,5.148,0.101C438.731,93.021,438.605,90.925,438.693,88.855z"/>
	<path fill-rule="evenodd" clip-rule="evenodd" fill="#050505" d="M183.012,85.605c1.774,0.651,2.74,1.964,4.055,2.778
		c0.486,0.301,0.621,0.699,0.641,1.289c0.167,4.869-4.388,11.87-8.77,13.399c-4.775,1.667-9.92-0.035-12.853-4.182
		c-3.692-5.222-4.479-11.206-4.483-17.345c-0.002-4.728,0.885-9.314,2.888-13.656c2.664-5.775,8.65-8.931,13.683-7.185
		c1.67,0.579,2.894,1.798,4.405,3.014c0.103-0.96,0.18-1.685,0.27-2.532c1.343-0.141,2.604-0.274,4.152-0.437
		c0,2.594,0,5.012,0,7.431c0,2.419,0,4.837,0,7.284c-2.738,0.813-4.485,0.338-5.098-2.418c-0.229-1.03-0.688-1.955-1.341-2.784
		c-2.68-3.406-6.354-3.353-8.917,0.142c-0.884,1.206-1.488,2.551-1.88,3.992c-1.404,5.157-1.445,10.314,0.028,15.462
		c0.435,1.517,1.117,2.932,2.138,4.147c2.306,2.746,5.503,2.751,7.823,0.041C181.795,91.66,182.511,88.752,183.012,85.605z"/>
	<path fill-rule="evenodd" clip-rule="evenodd" fill="#050505" d="M473.559,103.057c-0.604-6.326-0.604-6.326,2.59-6.808
		c0-5.096,0-10.208,0-15.39c-0.735-0.733-1.834,0.084-2.787-0.652c0-1.898,0-3.957,0-6.229c2.921,0,5.91,0,9.042,0
		c0.057,0.556,0.12,1.18,0.193,1.906c6.247-4.35,10.05-2.625,11.022,4.84c0.663,5.097,0.043,10.239,0.366,15.522
		c0.855,0.176,1.681,0.346,2.587,0.533c0,2.104,0,4.173,0,6.358c-2.894,0-5.744,0-8.893,0c0-5.319-0.001-10.592,0-15.865
		c0-0.957,0.087-1.923-0.013-2.871c-0.142-1.335-0.049-3.196-1.932-3.097c-1.712,0.09-3.338,0.862-3.274,3.234
		c0.102,3.823,0.026,7.65,0.026,11.492c4.481,1.117,1.789,4.585,2.755,7.027C481.116,103.057,477.327,103.057,473.559,103.057z"/>
	<path fill-rule="evenodd" clip-rule="evenodd" fill="#050505" d="M352.366,85.758c0.903-2.144,0.292-3.823-1.045-5.331
		c-1.422-1.605-3.382-2.1-4.857-0.695c-2.552,2.429-4.489,0.907-6.683-0.18c2.252-6.839,10.574-7.594,15.061-5.188
		c3.191,1.71,4.154,4.784,4.232,8.132c0.104,4.521,0.025,9.046,0.025,13.512c1.022,0.799,2.17,0.077,3.239,0.701
		c0,2.03,0,4.154,0,6.266c-6.112,0.921-9.454,0.467-10.223-1.566c-1.924,1.697-4.103,2.612-6.655,2.146
		c-1.506-0.275-2.747-1.066-3.77-2.191c-2.885-3.174-3.211-9.09-0.722-12.903C343.372,84.778,346.883,83.916,352.366,85.758z
		 M345.522,94.15c0.064,2.198,1.436,3.769,3.2,3.666c1.888-0.11,3.896-2.348,3.815-4.25c-0.07-1.65-2.196-3.423-3.993-3.33
		C346.809,90.326,345.46,92.072,345.522,94.15z"/>
	<path fill-rule="evenodd" clip-rule="evenodd" fill="#050505" d="M231.202,96.189c1.125,0.266,1.884,0.445,2.77,0.655
		c0.249,1.981,0.405,4.033,0.213,6.251c-2.89,0-5.735,0-8.731,0c-0.667-0.311-0.015-1.214-0.524-1.771
		c-0.213,0.092-0.473,0.146-0.662,0.292c-4.841,3.743-9.014,2.216-10.183-3.833c-0.832-4.305-0.215-8.682-0.365-13.023
		c-0.045-1.295-0.007-2.592-0.007-4.093c-0.901-0.067-1.71-0.128-2.626-0.197c0-2.207,0-4.275,0-6.536c2.806,0,5.699,0,8.879,0
		c0,5.644,0,11.272,0,16.901c0,0.784-0.028,1.57,0.023,2.35c0.081,1.223,0.095,2.667,1.79,2.643
		c1.563-0.022,3.149-0.892,3.252-2.434c0.268-3.989,1.119-8.367-0.173-11.89c-0.961-2.622-0.892-4.946-1.266-7.598
		c2.532,0,4.929,0,7.609,0C231.202,81.241,231.202,88.608,231.202,96.189z"/>
	<path fill-rule="evenodd" clip-rule="evenodd" fill="#050505" d="M299.736,87.945c0.212-4.056,0.788-7.997,3.536-11.207
		c4.715-5.506,12.54-4.841,15.785,1.625c3.218,6.413,3.476,13.179,0.31,19.78c-2.173,4.53-5.651,6.181-10.7,5.456
		c-3.551-0.51-6.371-3.673-7.515-7.875c-0.324-1.192-0.861-2.399-1.105-3.627C299.777,90.746,299.826,89.332,299.736,87.945z
		 M314.652,88.325c0.107-1.769-0.094-3.66-0.737-5.479c-0.535-1.514-1.652-2.546-3.239-2.572c-1.477-0.023-2.657,0.884-3.163,2.309
		c-1.409,3.968-1.401,7.961,0.128,11.9c0.502,1.292,1.451,2.235,2.924,2.195c1.407-0.038,2.409-0.855,3.029-2.127
		C314.532,92.629,314.729,90.578,314.652,88.325z"/>
	<path fill-rule="evenodd" clip-rule="evenodd" fill="#050505" d="M554.641,96.308c1.055,0.081,1.896,0.146,2.876,0.221
		c0.43,2.178,0.138,4.31,0.117,6.577c-3.042,0-5.984,0-9.05,0c-0.091-0.431-0.208-0.978-0.326-1.537
		c-0.246,0.065-0.453,0.058-0.559,0.157c-4.393,4.146-9.718,1.273-11.052-4.065c-0.662-2.648-0.577-5.378,0.436-7.946
		c1.813-4.598,5.52-5.937,11.194-4.16c0.324-1.601,0.072-3.131-0.645-4.559c-0.933-1.859-3.279-2.805-4.536-1.452
		c-2.251,2.424-4.311,1.147-6.521,0.355c1.518-6.677,8.188-7.867,13.137-6.054c3.028,1.109,4.153,3.72,4.507,6.747
		c0.495,4.252,0.288,8.527,0.418,12.792C554.666,94.327,554.641,95.272,554.641,96.308z M548.434,93.827
		c0.049-1.663-1.654-3.547-3.384-3.533c-2.24,0.019-2.908,1.582-2.944,3.49c-0.035,1.883,0.131,3.796,2.598,4.023
		C546.238,97.949,548.385,95.54,548.434,93.827z"/>
	<path fill-rule="evenodd" clip-rule="evenodd" fill="#050505" d="M459.376,102.009c-1.955,1.737-4.511,2.418-7.283,0.784
		c-3.273-1.929-3.729-5.244-3.804-8.583c-0.03-1.345,0.195-2.74,0.696-4.075c1.816-4.853,5.077-6.258,11.231-4.664
		c0.408-1.595,0.091-3.103-0.618-4.495c-1.003-1.969-3.235-2.747-4.778-1.273c-2.285,2.183-4.188,0.94-6.297,0.137
		c1.486-6.38,8.174-7.794,13.09-5.997c3.471,1.27,4.552,4.453,4.725,7.717c0.255,4.837,0.066,9.697,0.066,14.666
		c1.198,0.164,2.023,0.277,2.957,0.405c0,2.151,0,4.208,0,6.587C466.2,102.81,462.863,104.194,459.376,102.009z M460.55,93.654
		c-0.033-1.593-1.906-3.377-3.583-3.415c-1.684-0.036-3.373,1.779-3.099,3.717c0.238,1.675,0.23,3.837,2.838,3.859
		C458.36,97.831,460.585,95.377,460.55,93.654z"/>
	<path fill-rule="evenodd" clip-rule="evenodd" fill="#050505" d="M518.791,89.294c0.065,2.585-0.465,5.736-1.752,8.71
		c-1.396,3.225-3.671,5.543-7.361,5.837c-3.648,0.291-6.306-1.462-8.205-4.492c-3.807-6.072-3.589-16.672,0.461-22.282
		c4.033-5.586,11.293-5.067,14.584,1.041C518.194,81.221,518.788,83.967,518.791,89.294z M505.04,87.866
		c-0.042,2.516,0.118,4.758,1.056,6.842c0.502,1.117,1.283,2.075,2.689,2.089c1.251,0.013,2.117-0.612,2.65-1.73
		c2.027-4.244,1.778-8.534,0.131-12.793c-0.457-1.183-1.471-1.892-2.87-1.832c-1.301,0.056-2.032,0.847-2.551,1.911
		C505.258,84.173,504.83,86.089,505.04,87.866z"/>
	<path fill-rule="evenodd" clip-rule="evenodd" fill="#050505" d="M244.911,97.177c2.692,0,4.904,0,7.116,0
		c0.681-1.499,0.023-3.029,0.494-4.5c1.063-0.477,2.177-0.157,3.46-0.17c0,3.544,0,7.055,0,10.651c-6.053,0-12.031,0-18.183,0
		c-0.269-2.946-0.431-5.737,1.417-8.397c2.941-4.234,5.669-8.616,8.476-12.943c0.326-0.502,0.576-1.053,0.917-1.686
		c-1.95-0.738-3.818-0.399-5.765-0.326c-0.644,1.375-0.099,2.792-0.374,4.193c-1.143,0.452-2.336,0.209-3.734,0.149
		c0-3.381,0-6.726,0-10.242c5.66,0,11.359,0,17.257,0c0.268,3.095,0.495,6.071-1.638,8.985
		C251.081,87.368,248.211,92.138,244.911,97.177z"/>
	<path fill-rule="evenodd" clip-rule="evenodd" fill="#050505" d="M417.594,73.785c0,2.789,0,5.452,0,8.24c-1.307,0-2.578,0-3.97,0
		c-0.738-1.734-2.131-2.844-4.116-2.91c-1.228-0.04-2.482,0.266-2.846,1.749c-0.371,1.517,0.502,2.241,1.807,2.66
		c2.209,0.709,4.448,1.273,6.567,2.308c5.74,2.804,4.675,14.673,0.152,16.992c-0.943,0.484-1.892,0.95-2.967,0.822
		c-3.315-0.394-6.632-0.751-10.06-0.332c-0.16-3.56-0.179-6.754,0.228-10.067c1.347,0,2.621,0,4.029,0
		c0.396,1.983,1.169,3.764,3.442,4.273c1.837,0.411,3.349-0.044,3.988-1.943c0.605-1.802-0.523-2.795-2.033-3.375
		c-1.206-0.463-2.471-0.774-3.71-1.146c-6.853-2.06-9.083-10.821-4.048-15.897c1.296-1.306,2.956-2.266,4.68-1.799
		C411.656,74.149,414.578,73.574,417.594,73.785z"/>
	<path fill-rule="evenodd" clip-rule="evenodd" fill="#050505" d="M524.366,67.714c-0.938-0.059-1.696-0.106-2.612-0.164
		c0-2.183,0-4.308,0-6.585c2.936,0,5.833,0,8.896,0c0,11.739,0,23.386,0,35.207c0.914,0.214,1.716,0.402,2.687,0.629
		c0,2.083,0,4.137,0,6.323c-3.848,0-7.647,0-11.563,0c0-2.119,0-4.182,0-6.172c0.731-0.805,1.739-0.308,2.593-0.782
		C524.366,86.811,524.366,77.426,524.366,67.714z"/>
	<path fill-rule="evenodd" clip-rule="evenodd" fill="#050505" d="M207.341,81.95c-6.074,0.778-7.445,5.02-6.641,14.351
		c1.071,0.079,2.164,0.16,3.37,0.249c0,2.203,0,4.264,0,6.46c-2.165,0.515-4.416,0.147-6.64,0.217
		c-2.166,0.068-4.336,0.015-6.632,0.015c0-2.265,0-4.321,0-6.477c1.023-0.166,2.042-0.331,3.247-0.525c0-5.132,0-10.289,0-15.58
		c-0.859-0.059-1.707-0.116-2.693-0.183c-0.544-2.096-0.023-4.241-0.17-6.552c2.744,0,5.4,0,8.265,0
		c0.6,1.718,0.066,3.643,0.432,6.234c1.577-3.718,3.144-6.899,7.462-6.843C207.341,76.243,207.341,79.099,207.341,81.95z"/>
	<path fill-rule="evenodd" clip-rule="evenodd" fill="#050505" d="M323.038,108.854c4.368-0.843,4.65-1.188,4.652-5.649
		c0.003-7.479,0-14.958,0-22.541c-0.992-0.085-1.82-0.156-2.785-0.239c0-2.167,0-4.228,0-6.474c2.946,0,5.843,0,8.799,0
		c0.455,1.269,0.217,2.578,0.221,3.856c0.025,8.539,0.03,17.078-0.002,25.616c-0.007,1.648-0.094,3.313-0.337,4.941
		c-0.965,6.477-3.882,8.587-10.548,7.63C323.038,113.62,323.038,111.227,323.038,108.854z"/>
	<path fill-rule="evenodd" clip-rule="evenodd" fill="#050505" d="M489.661,60.814c0.748-0.275,1.511-0.218,2.397-0.014
		c0.461,2.657-0.095,5.162-1.479,7.428c-1.336,2.186-2.778,2.421-5.041,1.093c-0.595-0.349-1.163-0.747-1.726-1.146
		c-2.876-2.042-3.311-1.876-4.21,1.659c-0.775,0.578-1.668,0.109-2.671,0.347c-0.364-2.775,0.168-5.274,1.449-7.577
		c1.264-2.269,3.064-2.63,5.227-1.241c0.438,0.281,0.856,0.592,1.268,0.91C488.036,64.711,488.688,64.517,489.661,60.814z"/>
	<path fill-rule="evenodd" clip-rule="evenodd" fill="#050505" d="M327.24,65.448c-0.034-2.61,1.646-5.244,3.361-5.267
		c1.611-0.021,3.311,2.477,3.382,4.972c0.073,2.551-1.656,5.247-3.367,5.25C328.945,70.405,327.273,67.951,327.24,65.448z"/>
	<path fill-rule="evenodd" clip-rule="evenodd" fill="#FDFDFD" d="M281.11,77.791c0-3.313,0-6.416,0-9.797
		c2.004,0.329,4.202-0.899,5.545,1.348c1.239,2.074,1.198,4.348,0.164,6.498C285.687,78.194,283.51,77.983,281.11,77.791z"/>
	<path fill-rule="evenodd" clip-rule="evenodd" fill="#FDFDFD" d="M438.692,88.854c-0.087,2.071,0.039,4.167-1.127,6.053
		c-1.549,2.505-4.005,2.589-5.148-0.101c-1.646-3.869-1.895-7.953-0.092-11.871c1.173-2.547,3.766-2.521,5.271-0.114
		C438.454,84.197,438.719,85.647,438.692,88.854z"/>
	<path fill-rule="evenodd" clip-rule="evenodd" fill="#FDFDFD" d="M345.522,94.15c-0.063-2.078,1.286-3.824,3.022-3.914
		c1.797-0.093,3.923,1.68,3.993,3.33c0.081,1.902-1.928,4.139-3.815,4.25C346.958,97.918,345.587,96.348,345.522,94.15z"/>
	<path fill-rule="evenodd" clip-rule="evenodd" fill="#FDFDFD" d="M314.652,88.325c0.077,2.253-0.12,4.304-1.059,6.226
		c-0.62,1.271-1.622,2.089-3.029,2.127c-1.473,0.04-2.422-0.903-2.924-2.195c-1.529-3.939-1.537-7.932-0.128-11.9
		c0.506-1.425,1.687-2.332,3.163-2.309c1.587,0.025,2.704,1.058,3.239,2.572C314.559,84.665,314.76,86.556,314.652,88.325z"/>
	<path fill-rule="evenodd" clip-rule="evenodd" fill="#FDFDFD" d="M548.434,93.827c-0.049,1.713-2.195,4.122-3.73,3.98
		c-2.467-0.228-2.633-2.141-2.598-4.023c0.036-1.909,0.704-3.472,2.944-3.49C546.779,90.279,548.482,92.164,548.434,93.827z"/>
	<path fill-rule="evenodd" clip-rule="evenodd" fill="#FDFDFD" d="M460.55,93.654c0.035,1.723-2.189,4.176-3.844,4.162
		c-2.607-0.022-2.6-2.184-2.838-3.859c-0.274-1.938,1.415-3.753,3.099-3.717C458.644,90.277,460.517,92.061,460.55,93.654z"/>
	<path fill-rule="evenodd" clip-rule="evenodd" fill="#FDFDFD" d="M505.04,87.866c-0.21-1.777,0.218-3.693,1.105-5.514
		c0.519-1.064,1.25-1.854,2.551-1.911c1.399-0.06,2.413,0.649,2.87,1.832c1.647,4.259,1.896,8.549-0.131,12.793
		c-0.533,1.118-1.399,1.743-2.65,1.73c-1.406-0.014-2.188-0.972-2.689-2.089C505.158,92.624,504.998,90.381,505.04,87.866z"/>
</g>
</svg>
