<?xml version="1.0" encoding="UTF-8" standalone="no"?>
<svg
   xmlns:dc="http://purl.org/dc/elements/1.1/"
   xmlns:cc="http://creativecommons.org/ns#"
   xmlns:rdf="http://www.w3.org/1999/02/22-rdf-syntax-ns#"
   xmlns:svg="http://www.w3.org/2000/svg"
   xmlns="http://www.w3.org/2000/svg"
   viewBox="0 0 548.52002 548.52002"
   height="548.52002"
   width="548.52002"
   xml:space="preserve"
   id="svg2"
   version="1.1"><metadata
     id="metadata8"><rdf:RDF><cc:Work
         rdf:about=""><dc:format>image/svg+xml</dc:format><dc:type
           rdf:resource="http://purl.org/dc/dcmitype/StillImage" /><dc:title></dc:title></cc:Work></rdf:RDF></metadata><defs
     id="defs6" /><g
     transform="matrix(1.3333333,0,0,-1.3333333,0,548.52)"
     id="g10"><g
       transform="scale(0.1)"
       id="g12"><path
         id="path14"
         style="fill:#231f20;fill-opacity:1;fill-rule:nonzero;stroke:none"
         d="m 371.898,2399.81 22.567,96.64 -144.07,-16.48 -0.184,-0.8 z m -160.691,67.42 9.789,41.92 311.129,44.85 -9.789,-41.93 -93.133,-11.1 -28.152,-120.6 78.398,-51.99 -9.14,-39.13 -259.102,177.98" /><path
         id="path16"
         style="fill:#231f20;fill-opacity:1;fill-rule:nonzero;stroke:none"
         d="m 266.754,2676.39 15.937,38.22 278.426,50.94 0.313,0.75 -219.102,91.36 14.199,34.05 270.192,-112.65 -16.41,-39.36 -275.684,-50.74 -0.312,-0.75 216.832,-90.41 -14.204,-34.06 -270.187,112.65" /><path
         id="path18"
         style="fill:#231f20;fill-opacity:1;fill-rule:nonzero;stroke:none"
         d="m 463.508,3012.21 -51.102,-83.12 -27.937,17.16 122.586,199.45 27.941,-17.18 -51.094,-83.13 221.442,-136.12 -20.399,-33.17 -221.437,136.11" /><path
         id="path20"
         style="fill:#231f20;fill-opacity:1;fill-rule:nonzero;stroke:none"
         d="m 540.98,3186.5 23.622,30.97 232.816,-177.48 -23.613,-30.97 -232.825,177.48" /><path
         id="path22"
         style="fill:#231f20;fill-opacity:1;fill-rule:nonzero;stroke:none"
         d="m 953.621,3266.08 c 6.277,-37.62 -10.383,-72.91 -34.426,-97.57 -60.976,-62.54 -148.414,-50.01 -203.019,3.23 -61.063,59.55 -81.274,144.53 -16.582,210.88 44.66,45.8 100.703,62.17 157.461,22.3 l -27.196,-27.89 c -37.144,25.33 -76.437,13.81 -106.777,-17.31 -49.523,-50.78 -26.094,-114.86 18.82,-158.66 43.743,-42.65 108.289,-56.33 153.805,-9.65 42.074,43.16 37.031,98.47 -2.852,133.93 l -65.265,-66.95 -23.488,22.91 89.597,91.89 110.391,-107.63 -17.18,-17.61 -33.289,18.13" /><path
         id="path24"
         style="fill:#231f20;fill-opacity:1;fill-rule:nonzero;stroke:none"
         d="m 1162.97,3511.87 c 42.93,-60.04 31.23,-116.3 -28.15,-158.75 -61.37,-43.88 -118,-41.53 -163.316,21.85 l -108.75,152.1 31.684,22.66 108.752,-152.1 c 30.05,-42.03 70.53,-47.87 112.56,-17.82 40.02,28.61 45.58,67.37 15.53,109.4 l -108.76,152.1 31.69,22.66 108.76,-152.1" /><path
         id="path26"
         style="fill:#231f20;fill-opacity:1;fill-rule:nonzero;stroke:none"
         d="m 1255.76,3578.44 89.06,43.69 -103.91,101.08 -0.73,-0.37 z m -49.51,167.03 38.65,18.95 231.56,-212.42 -38.64,-18.95 -67.52,65.05 -111.14,-54.51 9.36,-93.58 -36.07,-17.68 -26.2,313.14" /><path
         id="path28"
         style="fill:#231f20;fill-opacity:1;fill-rule:nonzero;stroke:none"
         d="m 1611.39,3717.89 96.56,22.82 -78.88,121.66 -0.8,-0.19 z m -11.18,173.89 41.9,9.9 178.66,-258.58 -41.9,-9.9 -51.4,78.43 -120.5,-28.48 -11.65,-93.33 -39.1,-9.25 43.99,311.21" /><path
         id="path30"
         style="fill:#231f20;fill-opacity:1;fill-rule:nonzero;stroke:none"
         d="m 1812.49,3935.15 41.31,2.78 169.72,-226.54 0.82,0.06 -15.9,236.87 36.82,2.47 19.61,-292.09 -42.55,-2.86 -168.33,224.16 -0.82,-0.05 15.74,-234.41 -36.82,-2.47 -19.6,292.08" /><path
         id="path32"
         style="fill:#231f20;fill-opacity:1;fill-rule:nonzero;stroke:none"
         d="m 2152.26,3686.21 64.44,-6.6 c 26.51,-2.72 98.64,-2.7 109.64,104.57 7.11,69.34 -14.29,113.99 -85.67,121.3 l -65.25,6.69 z m -12.24,262.56 99.92,-10.24 c 89.74,-9.2 135.3,-59.21 125.69,-153.02 -10,-97.48 -58.46,-148.15 -155.54,-138.2 l -99.92,10.24 29.85,291.22" /><path
         id="path34"
         style="fill:#231f20;fill-opacity:1;fill-rule:nonzero;stroke:none"
         d="m 2575.18,3745.46 73.51,-25.77 c 41.8,-14.65 64.11,-5.53 74.29,23.5 13.43,38.31 -11.76,53.22 -43.49,64.35 l -73.52,25.76 z m -44.37,-126.53 92.1,-32.29 c 31.73,-11.12 58.63,1.18 69.22,31.36 12.62,35.99 -12.88,56.22 -43.84,67.07 l -83.97,29.43 z m 49.25,258.22 100.22,-35.13 c 24.38,-8.55 56.5,-19.81 69.61,-35.7 14.39,-17.21 21.79,-41.97 12.29,-69.05 -10.3,-29.41 -33.52,-46.05 -62.72,-47.54 l -0.27,-0.77 c 31.61,-18.91 41.23,-50.96 29.3,-85.01 -14.25,-40.63 -56.84,-69.15 -111.79,-49.9 l -133.5,46.81 96.86,276.29" /><path
         id="path36"
         style="fill:#231f20;fill-opacity:1;fill-rule:nonzero;stroke:none"
         d="m 2832.4,3591.8 87.18,-47.37 22.32,143.26 -0.72,0.39 z m 107.61,137.05 37.82,-20.55 -39.27,-311.85 -37.82,20.55 13.99,92.73 -108.8,59.12 -70.91,-61.78 -35.3,19.18 240.29,202.6" /><path
         id="path38"
         style="fill:#231f20;fill-opacity:1;fill-rule:nonzero;stroke:none"
         d="m 3138.85,3439.48 c 28.86,-22.32 59.28,-33.91 85.36,-0.17 17.55,22.71 18.26,49.1 -10.62,71.42 l -76.55,59.16 -62.42,-80.77 z m -12.57,180.18 108.99,-84.24 c 43.48,-33.59 52.1,-78.08 23.52,-115.06 -21.56,-27.9 -51.69,-41.4 -85.61,-27.63 l -0.49,-0.64 c 22.91,-26.01 13.13,-50.05 -2.14,-74.52 -15.61,-24.21 -36.46,-48.52 -35.77,-74.44 l -34.39,26.57 c -1.48,16.18 22.69,37.41 35.69,63.62 14.31,25.21 23.59,48.62 -6.26,71.68 l -75.26,58.16 -76.46,-98.94 -30.82,23.82 179,231.62" /><path
         id="path40"
         style="fill:#231f20;fill-opacity:1;fill-rule:nonzero;stroke:none"
         d="m 3302.23,3308.83 53.02,-57.06 c 30.15,-32.43 54.13,-34.75 76.65,-13.82 29.74,27.62 14.41,52.55 -8.48,77.17 l -53.02,57.06 z m -98.2,-91.26 66.43,-71.47 c 22.88,-24.62 52.41,-26.29 75.83,-4.52 27.93,25.96 14.8,55.74 -7.52,79.76 l -60.57,65.16 z m 163.88,205.46 72.28,-77.77 c 17.58,-18.92 40.75,-43.84 44.94,-64.01 4.7,-21.93 -0.29,-47.27 -21.3,-66.81 -22.82,-21.21 -51.11,-25.11 -77.63,-12.82 l -0.6,-0.56 c 19.16,-31.45 12.73,-64.29 -13.7,-88.84 -31.53,-29.31 -82.49,-34.7 -122.11,7.95 l -96.29,103.59 214.41,199.27" /><path
         id="path42"
         style="fill:#231f20;fill-opacity:1;fill-rule:nonzero;stroke:none"
         d="m 3546.79,2891.44 c -61.71,-40.46 -117.43,-26.5 -157.44,34.54 -41.36,63.09 -36.71,119.56 28.42,162.27 l 156.35,102.49 21.36,-32.57 -156.35,-102.49 c -43.2,-28.32 -50.67,-68.52 -22.35,-111.72 26.96,-41.14 65.46,-48.26 108.66,-19.94 l 156.35,102.49 21.34,-32.58 -156.34,-102.49" /><path
         id="path44"
         style="fill:#231f20;fill-opacity:1;fill-rule:nonzero;stroke:none"
         d="m 3524.53,2771.72 25.75,-59.45 c 10.6,-24.45 45.89,-87.37 144.85,-44.51 63.97,27.7 92.46,68.19 63.94,134.04 l -26.07,60.21 z m 223.09,139.06 39.92,-92.18 c 35.86,-82.79 14.51,-146.99 -72.03,-184.48 -89.93,-38.94 -157.84,-21.43 -196.63,68.12 l -39.92,92.2 268.66,116.34" /><path
         id="path46"
         style="fill:#231f20;fill-opacity:1;fill-rule:nonzero;stroke:none"
         d="m 3712,2524.04 24.08,-96.27 120.63,80.47 -0.2,0.79 z m 173.74,13.43 10.45,-41.76 -256.27,-182.02 -10.45,41.76 77.78,52.42 -30.05,120.14 -93.49,10.43 -9.75,38.99 311.78,-39.96" /><path
         id="path48"
         style="fill:#231f20;fill-opacity:1;fill-rule:nonzero;stroke:none"
         d="m 1102.68,626.082 c 30.2,-20.48 61.28,-30.16 85.21,5.129 16.1,23.75 15.18,50.141 -15.03,70.621 l -80.09,54.309 -57.29,-84.512 z m -23.73,179.07 114.02,-77.312 c 45.48,-30.84 56.84,-74.711 30.61,-113.399 -19.79,-29.179 -49.02,-44.531 -83.73,-32.89 l -0.46,-0.68 c 24.49,-24.531 16.22,-49.141 2.49,-74.512 -14.08,-25.129 -33.37,-50.679 -31.08,-76.507 l -35.98,24.39 c -2.48,16.059 20.33,38.727 31.68,65.699 12.72,26.059 20.52,50 -10.7,71.168 l -78.73,53.383 -70.175,-103.5 -32.247,21.86 164.302,242.3" /><path
         id="path50"
         style="fill:#231f20;fill-opacity:1;fill-rule:nonzero;stroke:none"
         d="m 1295.39,663.68 182.73,-86.52 -14.05,-29.648 -147.51,69.847 -39.83,-84.14 137.51,-65.098 -14.04,-29.652 -137.5,65.101 -43.35,-91.55 148.63,-70.368 -14.04,-29.64 -183.84,87.027 125.29,264.641" /><path
         id="path52"
         style="fill:#231f20;fill-opacity:1;fill-rule:nonzero;stroke:none"
         d="m 1467.27,306.98 62.17,-18.21 c 25.58,-7.489 96.53,-20.559 126.82,82.929 19.59,66.91 6.66,114.692 -62.21,134.86 l -62.96,18.421 z m 35.65,260.442 96.42,-28.231 c 86.57,-25.351 122.3,-82.8 95.81,-173.32 -27.54,-94.051 -84.41,-135.082 -178.07,-107.652 l -96.42,28.222 82.26,280.981" /><path
         id="path54"
         style="fill:#231f20;fill-opacity:1;fill-rule:nonzero;stroke:none"
         d="m 2039.85,381.719 c -5.57,41.851 -37.41,64.812 -77.93,67.371 -69.57,4.371 -102.64,-51.059 -106.48,-112.039 -4.2,-66.699 21.76,-124.211 91.74,-128.629 51.15,-3.223 82.89,30.937 89.61,79 l 38.87,-2.461 c -11.95,-72.379 -60.16,-113.719 -133.82,-109.07 -90.85,5.718 -130.82,75.629 -125.46,160.738 5.34,84.723 57.99,150.832 148.02,145.16 60.98,-3.84 109.25,-39.75 114.33,-102.519 l -38.88,2.449" /><path
         id="path56"
         style="fill:#231f20;fill-opacity:1;fill-rule:nonzero;stroke:none"
         d="m 2248.38,347.781 c 36.31,3.778 66.33,16.379 61.91,58.801 -2.97,28.547 -20.67,48.148 -56.97,44.367 l -96.26,-10.008 10.56,-101.562 z m -133.46,121.75 137.04,14.258 c 54.66,5.691 91.61,-20.559 96.44,-67.07 3.65,-35.067 -8.83,-65.637 -42.89,-79.078 l 0.08,-0.809 c 34.53,-3.012 44.06,-27.172 49.88,-55.422 5.41,-28.301 7.09,-60.281 25.49,-78.57 l -43.25,-4.5 c -12.23,10.691 -9.38,42.73 -18.06,70.691 -7.05,28.121 -16.49,51.461 -54.01,47.571 l -94.62,-9.852 12.94,-124.398 -38.75,-4.032 -30.29,291.211" /><path
         id="path58"
         style="fill:#231f20;fill-opacity:1;fill-rule:nonzero;stroke:none"
         d="m 2567.19,276.461 c 68.57,19.629 80.43,86.969 64.2,143.73 -16.24,56.758 -61.94,107.649 -130.51,88.028 -68.58,-19.617 -80.43,-86.977 -64.2,-143.727 16.24,-56.762 61.92,-107.652 130.51,-88.031 z m -75.33,263.289 c 89.47,25.602 155.09,-32.379 176.97,-108.848 21.87,-76.461 -3.16,-160.371 -92.62,-185.961 -89.47,-25.601 -155.1,32.372 -176.97,108.829 -21.88,76.472 3.14,160.371 92.62,185.98" /><path
         id="path60"
         style="fill:#231f20;fill-opacity:1;fill-rule:nonzero;stroke:none"
         d="m 2842.94,580.922 c -22.22,35.719 -55.16,39.867 -91.36,22.437 -29.55,-14.238 -53.94,-39.179 -37.4,-73.527 15.65,-32.512 60.08,-17.031 107.19,-6.172 46.74,10.672 95.97,16.18 120.88,-35.539 27.05,-56.152 -17.15,-105.199 -65.18,-128.32 -59.1,-28.469 -122.85,-23.672 -153.81,40.601 l 33.25,16.008 c 21.35,-44.328 67.54,-45.738 107.44,-26.531 31.77,15.301 62.07,42.172 43.74,80.23 -17.44,36.2 -62.57,22.204 -109.14,11.153 -46.56,-11.043 -94.92,-19.313 -118.22,29.078 -25.8,53.562 10.47,100.152 58.5,123.289 53.92,25.973 107.21,20.23 137.36,-36.699 l -33.25,-16.008" /><path
         id="path62"
         style="fill:#231f20;fill-opacity:1;fill-rule:nonzero;stroke:none"
         d="m 3059.08,718.563 c -27.42,31.898 -60.62,30.957 -93.73,8.187 -27.03,-18.59 -47.3,-46.98 -25.7,-78.398 20.45,-29.723 61.99,-7.622 106.87,10.32 44.56,17.699 92.37,30.68 124.91,-16.621 35.32,-51.34 -0.84,-106.582 -44.76,-136.789 -54.05,-37.18 -117.78,-42.203 -158.22,16.578 l 30.4,20.922 c 27.89,-40.551 73.76,-34.883 110.24,-9.782 29.05,19.989 54.87,51.192 30.94,85.989 -22.77,33.101 -65.24,12.351 -109.56,-5.699 -44.32,-18.04 -90.84,-33.618 -121.29,10.64 -33.69,48.981 -4.98,100.59 38.94,130.789 49.32,33.942 102.86,36.422 141.36,-15.219 l -30.4,-20.917" /><path
         id="path64"
         style="fill:#231f20;fill-opacity:1;fill-rule:nonzero;stroke:none"
         d="m 2056.95,3476.32 c -782.64,0 -1419.372,-636.72 -1419.372,-1419.36 0,-782.65 636.732,-1419.378 1419.372,-1419.378 782.64,0 1419.37,636.728 1419.37,1419.378 0,782.64 -636.73,1419.36 -1419.37,1419.36 z m 0,-2868.738 c -799.19,0 -1449.372,650.188 -1449.372,1449.378 0,799.18 650.182,1449.36 1449.372,1449.36 799.18,0 1449.37,-650.18 1449.37,-1449.36 0,-799.19 -650.19,-1449.378 -1449.37,-1449.378" /><path
         id="path66"
         style="fill:#231f20;fill-opacity:1;fill-rule:nonzero;stroke:none"
         d="M 2056.95,4083.9 C 939.285,4083.9 30,3174.62 30,2056.96 30,939.289 939.285,30 2056.95,30 3174.61,30 4083.9,939.289 4083.9,2056.96 4083.9,3174.62 3174.61,4083.9 2056.95,4083.9 Z M 2056.95,0 C 922.742,0 0,922.75 0,2056.96 0,3191.16 922.742,4113.9 2056.95,4113.9 3191.15,4113.9 4113.9,3191.16 4113.9,2056.96 4113.9,922.75 3191.15,0 2056.95,0" /><path
         id="path68"
         style="fill:#ed1c24;fill-opacity:1;fill-rule:nonzero;stroke:none"
         d="m 3214.31,2418.43 h -795.89 v 795.89 H 1695.47 V 2418.43 H 899.586 V 1695.48 H 1695.47 V 899.59 h 722.95 v 795.89 h 795.89 v 722.95" /></g></g></svg>