<?xml version="1.0" encoding="UTF-8" standalone="no"?>
<!-- Created with Inkscape (http://www.inkscape.org/) -->

<svg
   version="1.1"
   id="svg1"
   width="565.98267"
   height="565.98401"
   viewBox="0 0 565.98267 565.98401"
   sodipodi:docname="Palau RC.svg"
   inkscape:version="1.3.2 (091e20e, 2023-11-25, custom)"
   xmlns:inkscape="http://www.inkscape.org/namespaces/inkscape"
   xmlns:sodipodi="http://sodipodi.sourceforge.net/DTD/sodipodi-0.dtd"
   xmlns="http://www.w3.org/2000/svg"
   xmlns:svg="http://www.w3.org/2000/svg">
  <defs
     id="defs1">
    <clipPath
       clipPathUnits="userSpaceOnUse"
       id="clipPath25">
      <path
         d="M 0.059998,424.44 H 424.487 V 0 H 0.059998 Z"
         transform="translate(-212.24301,-420.48801)"
         id="path25" />
    </clipPath>
  </defs>
  <sodipodi:namedview
     id="namedview1"
     pagecolor="#ffffff"
     bordercolor="#666666"
     borderopacity="1.0"
     inkscape:showpageshadow="2"
     inkscape:pageopacity="0.0"
     inkscape:pagecheckerboard="0"
     inkscape:deskcolor="#d1d1d1"
     inkscape:export-bgcolor="#ffffffff"
     inkscape:zoom="1.450571"
     inkscape:cx="282.992"
     inkscape:cy="282.992"
     inkscape:window-width="1920"
     inkscape:window-height="1017"
     inkscape:window-x="-8"
     inkscape:window-y="-8"
     inkscape:window-maximized="1"
     inkscape:current-layer="g1">
    <inkscape:page
       x="0"
       y="0"
       inkscape:label="1"
       id="page1"
       width="565.98267"
       height="565.98401"
       margin="0"
       bleed="0"
       inkscape:export-filename="Palau RC.png"
       inkscape:export-xdpi="300"
       inkscape:export-ydpi="300" />
  </sodipodi:namedview>
  <g
     id="g1"
     inkscape:groupmode="layer"
     inkscape:label="1">
    <g
       id="group-MC1">
      <path
         id="path2"
         d="m 0,0 -0.836,5.057 c -0.5,3.024 -1.608,5.608 -5.38,4.985 C -9.987,9.419 -10.205,6.615 -9.705,3.59 l 0.836,-5.057 z m -12.849,-8.808 -2.206,13.344 c -1.22,7.377 2.991,11.011 7.798,11.806 4.807,0.794 9.963,-1.291 11.183,-8.668 l 1.13,-6.838 10.61,1.754 1.075,-6.507 -29.59,-4.891"
         style="fill:#ed1c24;fill-opacity:1;fill-rule:nonzero;stroke:none"
         transform="matrix(1.3333333,0,0,-1.3333333,54.265333,327.208)" />
      <path
         id="path3"
         d="m 0,0 -0.127,7.769 -10.94,-3.959 10e-4,-0.084 z m -18.403,0.329 -0.111,6.761 29.8,11.702 0.111,-6.844 -6.639,-2.377 0.183,-11.212 6.715,-2.243 0.11,-6.676 -30.169,10.889"
         style="fill:#ed1c24;fill-opacity:1;fill-rule:nonzero;stroke:none"
         transform="matrix(1.3333333,0,0,-1.3333333,55.958667,290.71067)" />
      <path
         id="path4"
         d="M 0,0 0.994,6.518 25.158,2.833 27.362,17.282 32.842,16.446 29.645,-4.521 0,0"
         style="fill:#ed1c24;fill-opacity:1;fill-rule:nonzero;stroke:none"
         transform="matrix(1.3333333,0,0,-1.3333333,32.3,257.39733)" />
      <path
         id="path5"
         d="M 0,0 2.411,7.387 -9.225,7.207 -9.25,7.128 Z m -17.295,6.307 2.098,6.429 31.991,1.357 L 14.67,7.584 7.617,7.5 4.138,-3.162 9.757,-7.47 7.685,-13.819 -17.295,6.307"
         style="fill:#ed1c24;fill-opacity:1;fill-rule:nonzero;stroke:none"
         transform="matrix(1.3333333,0,0,-1.3333333,65.401333,217.43867)" />
      <path
         id="path6"
         d="m 0,0 c 7.121,-3.873 8.302,-9.964 4.469,-17.011 -3.852,-7.084 -9.531,-9.351 -16.689,-5.458 l -16.381,8.909 3.15,5.793 16.382,-8.909 c 2.878,-1.566 6.12,-2.372 8.668,2.313 2.248,4.132 1.162,6.444 -2.749,8.57 L -19.532,3.117 -16.381,8.91 0,0"
         style="fill:#ed1c24;fill-opacity:1;fill-rule:nonzero;stroke:none"
         transform="matrix(1.3333333,0,0,-1.3333333,91.765333,159.83067)" />
      <path
         id="path7"
         d="m 0,0 4.965,5.246 c 2.021,2.136 2.203,4.16 0.007,6.239 -2.104,1.992 -4.117,1.7 -6.137,-0.436 L -6.131,5.803 Z M -14.385,4.536 -3.27,16.279 c 3.695,3.905 8.749,3.806 12.043,0.688 2.562,-2.425 3.502,-5.281 2.197,-8.614 l 0.061,-0.058 c 2.833,1.771 5.756,0.277 8.097,-1.65 1.459,-1.207 3.992,-3.663 6.02,-3.963 l -4.532,-4.789 c -1.921,0.719 -3.968,2.773 -5.937,4.174 -2.606,1.829 -4.45,1.898 -6.73,-0.511 l -4.533,-4.789 8.51,-8.055 -4.532,-4.789 -21.779,20.613"
         style="fill:#ed1c24;fill-opacity:1;fill-rule:nonzero;stroke:none"
         transform="matrix(1.3333333,0,0,-1.3333333,108.148,127.93867)" />
      <path
         id="path8"
         d="m 0,0 17.999,13.38 3.307,-4.449 -12.707,-9.447 3.833,-5.156 11.663,8.669 3.057,-4.112 -11.663,-8.669 4.385,-5.9 12.977,9.647 3.307,-4.449 L 17.889,-24.066 0,0"
         style="fill:#ed1c24;fill-opacity:1;fill-rule:nonzero;stroke:none"
         transform="matrix(1.3333333,0,0,-1.3333333,121.544,89.417333)" />
      <path
         id="path9"
         d="m 0,0 5.264,2.621 c 3.421,1.704 5.643,5.439 2.685,11.378 -2.696,5.414 -6.298,7.937 -12.164,5.017 l -4.21,-2.097 z m -16.799,18.942 11.58,5.767 C 1.736,28.173 9.134,26.413 13.571,17.503 17.447,9.72 16.345,1.945 8.148,-2.136 l -11.58,-5.766 -13.367,26.844"
         style="fill:#ed1c24;fill-opacity:1;fill-rule:nonzero;stroke:none"
         transform="matrix(1.3333333,0,0,-1.3333333,178.204,90.398667)" />
      <path
         id="path10"
         d="m 0,0 c -0.997,2.842 -4.243,4.505 -7.455,3.862 -5.807,-1.162 -7.001,-6.54 -5.971,-11.688 0.981,-4.901 4.152,-9.406 9.959,-8.244 3.954,0.791 5.634,3.954 5.354,7.924 l 6.259,1.253 c 0.808,-7.463 -3.318,-13.171 -10.525,-14.614 -9.102,-1.82 -15.815,3.904 -17.513,12.387 -1.746,8.731 2.248,16.598 11.349,18.419 C -2.077,10.593 4.118,7.891 6.26,1.252 L 0,0"
         style="fill:#ed1c24;fill-opacity:1;fill-rule:nonzero;stroke:none"
         transform="matrix(1.3333333,0,0,-1.3333333,245.58933,47.496)" />
      <path
         id="path11"
         d="m 0,0 7.222,0.118 c 2.94,0.048 4.515,1.334 4.465,4.358 -0.047,2.897 -1.663,4.13 -4.602,4.083 L -0.138,8.44 Z M -6.814,13.456 9.352,13.72 c 5.375,0.088 8.838,-3.594 8.911,-8.129 0.059,-3.528 -1.326,-6.196 -4.622,-7.594 l 0.002,-0.084 c 3.247,-0.787 4.223,-3.922 4.482,-6.941 0.157,-1.888 0.173,-5.416 1.376,-7.076 l -6.593,-0.108 c -0.829,1.876 -0.792,4.775 -1.167,7.163 -0.514,3.142 -1.754,4.508 -5.071,4.453 l -6.593,-0.107 0.191,-11.716 -6.592,-0.107 -0.49,29.982"
         style="fill:#ed1c24;fill-opacity:1;fill-rule:nonzero;stroke:none"
         transform="matrix(1.3333333,0,0,-1.3333333,272.40533,49.564)" />
      <path
         id="path12"
         d="m 0,0 c 5.831,-1.044 8.911,3.526 9.791,8.447 0.925,5.169 -0.379,10.524 -6.209,11.567 -5.83,1.044 -8.91,-3.527 -9.835,-8.696 C -7.133,6.397 -5.83,1.043 0,0 Z M 4.559,25.472 C 13.698,23.837 17.853,16.052 16.284,7.285 14.759,-1.233 8.162,-7.094 -0.976,-5.459 c -9.139,1.636 -13.293,9.421 -11.769,17.94 1.569,8.766 8.165,14.626 17.304,12.991"
         style="fill:#ed1c24;fill-opacity:1;fill-rule:nonzero;stroke:none"
         transform="matrix(1.3333333,0,0,-1.3333333,321.64667,68.296)" />
      <path
         id="path13"
         d="m 0,0 c -1.405,-3.734 0.957,-6.283 4.259,-7.525 2.162,-0.813 5.7,-1.426 6.78,1.443 1.138,3.026 -2.876,5.12 -6.589,7.772 -3.752,2.668 -7.352,5.863 -5.371,11.129 2.159,5.74 8.618,6.451 13.689,4.542 5.857,-2.203 10.281,-6.783 7.841,-13.268 L 14.635,6.34 C 15.71,9.794 13.636,11.561 10.689,12.67 8.723,13.409 6.134,13.441 5.246,11.083 4.433,8.921 5.666,8.144 12.021,3.689 13.873,2.408 19.675,-1.254 17.279,-7.622 15.343,-12.771 9.844,-15.1 2.219,-12.231 -3.991,-9.896 -8.656,-4.642 -5.975,2.247 L 0,0"
         style="fill:#ed1c24;fill-opacity:1;fill-rule:nonzero;stroke:none"
         transform="matrix(1.3333333,0,0,-1.3333333,354.40267,69.457333)" />
      <path
         id="path14"
         d="m 0,0 c -2.004,-3.45 -0.097,-6.355 2.953,-8.128 1.997,-1.16 5.385,-2.352 6.926,0.299 1.625,2.797 -1.986,5.526 -5.209,8.759 -3.259,3.254 -6.279,7.001 -3.451,11.867 3.081,5.303 9.569,4.932 14.255,2.21 5.41,-3.145 9.014,-8.396 5.532,-14.388 l -5.52,3.207 C 17.119,7.055 15.368,9.142 12.645,10.725 10.828,11.779 8.279,12.24 7.013,10.062 5.853,8.064 6.94,7.093 12.469,1.645 c 1.614,-1.57 6.728,-6.145 3.309,-12.028 -2.763,-4.758 -8.572,-6.142 -15.618,-2.049 -5.737,3.334 -9.466,9.29 -5.679,15.64 L 0,0"
         style="fill:#ed1c24;fill-opacity:1;fill-rule:nonzero;stroke:none"
         transform="matrix(1.3333333,0,0,-1.3333333,388.65733,84.186667)" />
      <path
         id="path15"
         d="m 0,0 c -2.767,-2.876 -1.604,-6.15 0.939,-8.596 1.665,-1.601 4.674,-3.562 6.8,-1.352 2.241,2.331 -0.619,5.84 -2.982,9.744 -2.395,3.933 -4.44,8.29 -0.539,12.347 4.251,4.42 10.466,2.521 14.372,-1.235 C 23.1,6.57 25.355,0.614 20.552,-4.381 L 15.95,0.044 C 18.303,2.793 17.096,5.235 14.826,7.419 13.312,8.874 10.945,9.928 9.198,8.111 7.596,6.445 8.423,5.244 12.502,-1.36 c 1.196,-1.908 5.079,-7.565 0.362,-12.469 -3.813,-3.966 -9.785,-3.934 -15.658,1.714 -4.783,4.6 -6.992,11.27 -1.808,16.541 L 0,0"
         style="fill:#ed1c24;fill-opacity:1;fill-rule:nonzero;stroke:none"
         transform="matrix(1.3333333,0,0,-1.3333333,432.9,115.06933)" />
      <path
         id="path16"
         d="m 0,0 c 3.462,-4.806 8.854,-3.667 12.91,-0.746 4.261,3.07 7.05,7.823 3.589,12.629 C 13.037,16.689 7.646,15.55 3.384,12.481 -0.673,9.559 -3.462,4.806 0,0 Z M 20.998,15.124 C 26.424,7.59 23.991,-0.892 16.765,-6.097 9.742,-11.155 0.926,-10.774 -4.5,-3.241 c -5.426,7.533 -2.993,16.016 4.029,21.073 7.227,5.206 16.043,4.826 21.469,-2.708"
         style="fill:#ed1c24;fill-opacity:1;fill-rule:nonzero;stroke:none"
         transform="matrix(1.3333333,0,0,-1.3333333,460.10533,155.66667)" />
      <path
         id="path17"
         d="m 0,0 c 2.534,1.627 3.402,5.17 2.033,8.147 -2.474,5.381 -7.984,5.298 -12.754,3.104 -4.542,-2.089 -8.191,-6.217 -5.716,-11.597 1.684,-3.663 5.15,-4.567 8.948,-3.375 l 2.668,-5.801 c -7.074,-2.513 -13.583,0.18 -16.653,6.859 -3.879,8.434 0.136,16.29 7.998,19.905 8.09,3.72 16.669,1.655 20.546,-6.779 C 9.825,4.472 8.631,-2.18 2.667,-5.8 L 0,0"
         style="fill:#ed1c24;fill-opacity:1;fill-rule:nonzero;stroke:none"
         transform="matrix(1.3333333,0,0,-1.3333333,503.60133,192.43333)" />
      <path
         id="path18"
         d="m 0,0 1.929,-6.305 -28.675,-8.771 -1.929,6.305 L 0,0"
         style="fill:#ed1c24;fill-opacity:1;fill-rule:nonzero;stroke:none"
         transform="matrix(1.3333333,0,0,-1.3333333,522.39867,205.12)" />
      <path
         id="path19"
         d="m 0,0 3.878,-22.09 -5.46,-0.959 -2.738,15.595 -6.329,-1.111 2.512,-14.313 -5.045,-0.886 -2.514,14.313 -7.239,-1.271 2.797,-15.926 -5.461,-0.959 -3.937,22.421 L 0,0"
         style="fill:#ed1c24;fill-opacity:1;fill-rule:nonzero;stroke:none"
         transform="matrix(1.3333333,0,0,-1.3333333,528.37867,225.14667)" />
      <path
         id="path20"
         d="m 0,0 -0.147,8.986 5.543,0.091 0.401,-24.566 -5.543,-0.09 -0.147,8.986 -24.439,-0.4 L -24.439,-0.4 0,0"
         style="fill:#ed1c24;fill-opacity:1;fill-rule:nonzero;stroke:none"
         transform="matrix(1.3333333,0,0,-1.3333333,527.164,275.17333)" />
      <path
         id="path21"
         d="M 0,0 19.743,8.216 18.644,0.865 5.894,-4.32 16.575,-12.966 15.488,-20.234 -1.14,-6.496 -12.521,-4.795 -11.546,1.727 0,0"
         style="fill:#ed1c24;fill-opacity:1;fill-rule:nonzero;stroke:none"
         transform="matrix(1.3333333,0,0,-1.3333333,508.38133,312.43733)" />
      <path
         id="path22"
         d="m 0,0 c 0.042,-2.589 -0.835,-4.834 -2.63,-6.733 -1.796,-1.901 -3.979,-2.871 -6.545,-2.912 -2.634,-0.043 -4.868,0.855 -6.702,2.697 -1.834,1.841 -2.772,4.056 -2.814,6.645 -0.043,2.612 0.834,4.862 2.63,6.751 1.796,1.889 3.988,2.854 6.578,2.896 2.568,0.042 4.779,-0.853 6.635,-2.682 C -0.992,4.833 -0.042,2.612 0,0"
         style="fill:#ed1c24;fill-opacity:1;fill-rule:nonzero;stroke:none"
         transform="matrix(1.3333333,0,0,-1.3333333,296.24,511.65067)" />
      <path
         id="path23"
         d="m 0,0 c -74.851,0 -135.747,-60.896 -135.747,-135.748 0,-74.851 60.896,-135.748 135.747,-135.748 74.852,0 135.748,60.897 135.748,135.748 C 135.748,-60.896 74.852,0 0,0 Z m 0,-275.496 c -77.057,0 -139.747,62.691 -139.747,139.748 C -139.747,-58.691 -77.057,4 0,4 77.058,4 139.748,-58.691 139.748,-135.748 139.748,-212.805 77.058,-275.496 0,-275.496"
         style="fill:#ed1c24;fill-opacity:1;fill-rule:nonzero;stroke:none"
         transform="matrix(1.3333333,0,0,-1.3333333,282.99067,101.99467)" />
      <path
         id="path24"
         d="m 0,0 c -114.825,0 -208.243,-93.418 -208.243,-208.244 0,-114.826 93.418,-208.244 208.243,-208.244 114.826,0 208.244,93.418 208.244,208.244 C 208.244,-93.418 114.826,0 0,0 Z m 0,-420.488 c -117.031,0 -212.243,95.212 -212.243,212.244 C -212.243,-91.212 -117.031,4 0,4 117.032,4 212.244,-91.212 212.244,-208.244 212.244,-325.276 117.032,-420.488 0,-420.488"
         style="fill:#ed1c24;fill-opacity:1;fill-rule:nonzero;stroke:none"
         transform="matrix(1.3333333,0,0,-1.3333333,282.99067,5.3333333)"
         clip-path="url(#clipPath25)" />
      <path
         id="path26"
         d="m 0,0 v -41.054 h -41.055 v -82.541 H 0 v -41.054 h 85.134 v 41.054 h 41.054 v 82.541 H 85.134 V 0 H 0"
         style="fill:#ed1f24;fill-opacity:1;fill-rule:evenodd;stroke:none"
         transform="matrix(1.3333333,0,0,-1.3333333,226.236,173.22533)" />
    </g>
  </g>
</svg>
