<?xml version="1.0" encoding="UTF-8" standalone="no"?>
<svg
   xmlns:dc="http://purl.org/dc/elements/1.1/"
   xmlns:cc="http://creativecommons.org/ns#"
   xmlns:rdf="http://www.w3.org/1999/02/22-rdf-syntax-ns#"
   xmlns:svg="http://www.w3.org/2000/svg"
   xmlns="http://www.w3.org/2000/svg"
   viewBox="0 0 529.65332 529.53333"
   height="529.53333"
   width="529.65332"
   xml:space="preserve"
   id="svg2"
   version="1.1"><metadata
     id="metadata8"><rdf:RDF><cc:Work
         rdf:about=""><dc:format>image/svg+xml</dc:format><dc:type
           rdf:resource="http://purl.org/dc/dcmitype/StillImage" /><dc:title></dc:title></cc:Work></rdf:RDF></metadata><defs
     id="defs6" /><g
     transform="matrix(1.3333333,0,0,-1.3333333,0,529.53333)"
     id="g10"><g
       transform="scale(0.1)"
       id="g12"><path
         id="path14"
         style="fill:#231f20;fill-opacity:1;fill-rule:nonzero;stroke:none"
         d="m 641.605,851.461 -23.132,40.789 c 33.574,18.93 66.007,26.219 97.293,21.891 31.289,-4.352 59.3,-19.461 84.035,-45.313 25.597,-26.746 40.969,-53.726 46.113,-80.918 5.145,-27.191 1.57,-55.039 -10.719,-83.558 -12.289,-28.512 -30.293,-54.114 -54.004,-76.801 -25.855,-24.719 -53.132,-41.36 -81.836,-49.903 -28.703,-8.527 -56.765,-8.457 -84.203,0.223 -27.437,8.668 -51.632,23.961 -72.589,45.859 -23.758,24.84 -37.418,51.77 -40.977,80.821 -3.555,29.019 2.945,57.828 19.488,86.418 l 38.571,-25.059 c -12.559,-23.031 -17.715,-43.98 -15.485,-62.808 2.235,-18.84 11.289,-36.563 27.168,-53.153 18.25,-19.09 38.082,-30.66 59.488,-34.719 21.403,-4.07 42.293,-1.332 62.676,8.219 20.379,9.551 38.758,22.153 55.125,37.821 21.113,20.191 36.61,40.902 46.465,62.121 9.867,21.218 12.484,42.05 7.852,62.48 -4.629,20.449 -14.18,38.231 -28.653,53.359 -17.605,18.399 -37.816,28.911 -60.636,31.52 -22.817,2.602 -46.829,-3.82 -72.04,-19.289" /><path
         id="path16"
         style="fill:#231f20;fill-opacity:1;fill-rule:nonzero;stroke:none"
         d="m 486.688,937.328 -52.114,82.692 c -11.078,17.57 -21.562,30.17 -31.445,37.8 -9.883,7.62 -20.449,11.49 -31.691,11.61 -11.247,0.11 -21.567,-2.79 -30.95,-8.71 -13.746,-8.65 -21.902,-20.77 -24.472,-36.34 -2.563,-15.56 2.945,-34.11 16.523,-55.65 l 57.984,-92.019 z M 673.32,1001.22 382.645,818 301.414,946.891 c -16.324,25.898 -26.133,47.25 -29.406,64.019 -3.278,16.78 -0.848,33.36 7.289,49.75 8.141,16.4 20.207,29.64 36.195,39.72 20.621,12.99 42.211,17.27 64.774,12.84 22.554,-4.44 44.543,-19.4 65.957,-44.87 -1.528,13.27 -1.578,24.04 -0.153,32.33 3.231,17.72 9.414,36.49 18.543,56.29 l 47.246,100.42 30.496,-48.38 -36.234,-76.58 c -10.363,-22.24 -17.883,-39.91 -22.558,-53 -4.668,-13.11 -7.04,-23.69 -7.118,-31.78 -0.074,-8.08 1.035,-15.56 3.325,-22.42 1.828,-4.94 5.859,-12.38 12.109,-22.29 L 520,958.332 l 129.078,81.348 24.242,-38.46" /><path
         id="path18"
         style="fill:#231f20;fill-opacity:1;fill-rule:nonzero;stroke:none"
         d="m 101.445,1373.1 -16.0309,42.55 185.7769,69.97 c 32.321,12.18 59.356,18.18 81.118,18.03 21.761,-0.15 42.199,-7.52 61.3,-22.11 19.106,-14.59 34.496,-37.39 46.172,-68.39 11.34,-30.13 15.434,-56.71 12.266,-79.78 -3.164,-23.06 -13.039,-42.4 -29.625,-57.99 -16.578,-15.6 -41.902,-29.82 -75.977,-42.65 l -185.777,-69.97 -16.023,42.55 185.554,69.89 c 27.93,10.52 47.531,20.87 58.809,31.05 11.281,10.17 18.121,22.93 20.519,38.28 2.403,15.35 0.161,32.16 -6.73,50.44 -11.781,31.29 -27.274,50.91 -46.469,58.87 -19.195,7.97 -48.969,4.36 -89.332,-10.86 L 101.445,1373.1" /><path
         id="path20"
         style="fill:#231f20;fill-opacity:1;fill-rule:nonzero;stroke:none"
         d="m 397.848,1569.35 -41.563,-7.25 -247.07,135.53 c -17.5392,9.63 -32.9689,19 -46.3009,28.09 l 32.9765,-188.87 -39.9492,-6.97 -42.3203,242.44 39.9453,6.97 267.9766,-149.03 27.367,-16.4 -37.722,216.12 39.941,6.97 46.719,-267.6" /><path
         id="path22"
         style="fill:#231f20;fill-opacity:1;fill-rule:nonzero;stroke:none"
         d="M 353.227,2097.23 0,1992.3 3.97656,2041.36 259.984,2110.2 c 20.52,5.54 39.696,10.02 57.528,13.44 -18.266,6.8 -36.453,14.47 -54.574,23 l -241.2935,112.67 3.75,46.26 331.6015,-161.85 -3.769,-46.49" /><path
         id="path24"
         style="fill:#231f20;fill-opacity:1;fill-rule:nonzero;stroke:none"
         d="m 375.609,2303.81 -331.3863,90.79 65.6443,239.6 39.11,-10.71 -53.6293,-195.75 101.4923,-27.81 50.223,183.33 38.878,-10.66 -50.222,-183.32 112.797,-30.91 55.73,203.45 39.109,-10.71 -67.746,-247.3" /><path
         id="path26"
         style="fill:#231f20;fill-opacity:1;fill-rule:nonzero;stroke:none"
         d="m 309.004,2722.61 43.613,87.46 c 9.274,18.6 14.606,34.11 15.981,46.51 1.386,12.4 -0.789,23.44 -6.532,33.11 -5.738,9.67 -13.574,16.99 -23.503,21.94 -14.543,7.24 -29.129,7.93 -43.762,2.04 -14.637,-5.89 -27.633,-20.23 -38.996,-43.02 l -48.532,-97.31 z m 151.492,-126.34 -307.488,153.32 67.976,136.33 c 13.668,27.41 26.821,46.86 39.454,58.37 12.636,11.51 28.074,18.04 46.304,19.6 18.238,1.55 35.821,-1.88 52.735,-10.32 21.816,-10.87 36.683,-27.1 44.605,-48.68 7.922,-21.59 6.547,-48.15 -4.105,-79.67 10.543,8.18 19.726,13.82 27.546,16.9 16.832,6.45 36.082,10.91 57.743,13.38 l 110.355,11.76 -25.519,-51.18 -84.262,-8.79 c -24.387,-2.69 -43.391,-5.44 -57.012,-8.24 -13.617,-2.81 -23.906,-6.28 -30.855,-10.41 -6.95,-4.13 -12.758,-8.97 -17.438,-14.48 -3.273,-4.14 -7.531,-11.44 -12.762,-21.93 l -23.531,-47.2 136.551,-68.07 -20.297,-40.69" /><path
         id="path28"
         style="fill:#231f20;fill-opacity:1;fill-rule:nonzero;stroke:none"
         d="m 609.633,2888.37 -267.274,215.92 43.008,53.23 240.352,-89.61 c 22.332,-8.4 38.961,-14.81 49.871,-19.2 -7.27,10.9 -17.723,27.17 -31.356,48.83 l -134.269,214.22 38.441,47.59 267.278,-215.92 -27.543,-34.09 -223.703,180.71 160.96,-258.37 -25.773,-31.91 -289.98,106.5 227.527,-183.8 -27.539,-34.1" /><path
         id="path30"
         style="fill:#231f20;fill-opacity:1;fill-rule:nonzero;stroke:none"
         d="m 859.82,3181.62 -216.859,266.5 192.699,156.81 25.59,-31.45 -157.434,-128.1 66.422,-81.63 147.434,119.96 25.441,-31.26 -147.433,-119.97 73.816,-90.72 163.614,133.14 25.59,-31.45 -198.88,-161.83" /><path
         id="path32"
         style="fill:#231f20;fill-opacity:1;fill-rule:nonzero;stroke:none"
         d="m 1099.5,3367.57 -168.566,299.41 39.625,22.3 148.671,-264.07 147.45,83.02 19.89,-35.34 -187.07,-105.32" /><path
         id="path34"
         style="fill:#231f20;fill-opacity:1;fill-rule:nonzero;stroke:none"
         d="m 1323.73,3491.47 -112.46,324.67 42.97,14.88 46.18,-133.32 168.75,58.46 -46.18,133.32 42.97,14.88 112.46,-324.67 -42.97,-14.88 -53,153.03 -168.76,-58.45 53,-153.04 -42.96,-14.88" /><path
         id="path36"
         style="fill:#231f20;fill-opacity:1;fill-rule:nonzero;stroke:none"
         d="m 1678.79,3740.9 115.38,16.08 -48.65,89.29 c -14.83,27.12 -26.15,49.53 -33.98,67.21 -1.29,-22.43 -4.38,-44.95 -9.28,-67.56 z m -78.72,-153.42 83.28,358.51 48.52,6.76 186.68,-320.9 -51.29,-7.15 -54.06,97.54 -142.29,-19.82 -23.01,-108.28 -47.83,-6.66" /><path
         id="path38"
         style="fill:#231f20;fill-opacity:1;fill-rule:nonzero;stroke:none"
         d="m 2092.1,3665.21 72.88,-8.43 c 22.5,-2.6 40.4,-2.56 53.69,0.16 13.29,2.7 24.17,7.42 32.67,14.15 11.94,9.47 21.95,22.9 30.02,40.29 8.06,17.39 13.59,38.97 16.58,64.74 4.13,35.69 1.44,63.81 -8.06,84.34 -9.5,20.51 -22.25,35 -38.26,43.47 -11.57,6.05 -30.78,10.64 -57.64,13.74 l -71.7,8.3 z m -49.82,-35.05 39.5,341.32 117.57,-13.61 c 26.54,-3.07 46.61,-7.05 60.2,-11.92 19.03,-6.77 34.78,-16.84 47.23,-30.24 16.24,-17.3 27.45,-38.29 33.64,-63 6.18,-24.7 7.52,-52.26 3.99,-82.69 -2.99,-25.91 -8.68,-48.54 -17.05,-67.86 -8.37,-19.32 -18.04,-34.99 -29.03,-47.01 -10.99,-12.02 -22.54,-21.14 -34.67,-27.37 -12.13,-6.22 -26.37,-10.36 -42.72,-12.39 -16.36,-2.05 -34.87,-1.87 -55.5,0.52 l -123.16,14.25" /><path
         id="path40"
         style="fill:#231f20;fill-opacity:1;fill-rule:nonzero;stroke:none"
         d="m 2371.25,3584.9 104.83,327.21 236.6,-75.81 -12.38,-38.61 -193.29,61.92 -32.11,-100.21 181.02,-58 -12.31,-38.39 -181,58 -35.7,-111.38 200.88,-64.36 -12.36,-38.61 -244.18,78.24" /><path
         id="path42"
         style="fill:#231f20;fill-opacity:1;fill-rule:nonzero;stroke:none"
         d="m 2772.26,3434.78 193.41,283.99 56.57,-38.52 -69.73,-246.86 c -6.55,-22.94 -11.58,-40.03 -15.07,-51.28 10.27,8.14 25.64,19.89 46.11,35.24 l 202.57,151.28 50.56,-34.43 -193.42,-283.99 -36.22,24.67 161.89,237.69 -244.42,-181.48 -33.89,23.09 82.51,297.69 -164.64,-241.76 -36.23,24.67" /><path
         id="path44"
         style="fill:#231f20;fill-opacity:1;fill-rule:nonzero;stroke:none"
         d="m 3229.48,3301.58 c -30.32,-28.2 -46.63,-58.57 -48.91,-91.1 -2.29,-32.52 8,-61.09 30.88,-85.69 23.31,-25.06 51.28,-37.49 83.97,-37.29 32.68,0.18 65.21,15.34 97.59,45.46 20.48,19.04 35.13,39.13 43.97,60.25 8.84,21.13 11.27,42.26 7.29,63.42 -3.99,21.15 -13.7,40.03 -29.12,56.61 -21.93,23.57 -48.88,36.33 -80.87,38.26 -31.99,1.93 -66.93,-14.71 -104.8,-49.92 z m -31.4,34.8 c 41.75,38.84 84.88,58.03 129.37,57.58 44.47,-0.46 83.21,-18.42 116.2,-53.9 21.59,-23.22 35.52,-49.32 41.76,-78.3 6.25,-28.96 3.99,-57.58 -6.76,-85.82 -10.76,-28.24 -28.73,-54.07 -53.89,-77.48 -25.52,-23.73 -53.14,-39.8 -82.86,-48.23 -29.71,-8.43 -58.52,-8.02 -86.43,1.23 -27.91,9.25 -52.03,24.81 -72.35,46.66 -22.03,23.68 -35.99,50.18 -41.89,79.47 -5.91,29.29 -3.43,57.94 7.43,85.96 10.86,28.02 27.33,52.29 49.42,72.83" /><path
         id="path46"
         style="fill:#231f20;fill-opacity:1;fill-rule:nonzero;stroke:none"
         d="m 3551.95,2797.69 13.54,-44.9 c -36.93,-11.04 -70.17,-10.98 -99.72,0.17 -29.56,11.15 -53.54,32.06 -71.94,62.75 -19.05,31.76 -28.09,61.45 -27.09,89.11 0.99,27.66 10.63,54.03 28.92,79.12 18.3,25.1 41.51,46.08 69.64,62.97 30.69,18.4 60.97,28.59 90.85,30.57 29.88,1.99 57.24,-4.28 82.07,-18.81 24.85,-14.53 45.06,-34.78 60.66,-60.78 17.68,-29.48 25.05,-58.76 22.1,-87.87 -2.95,-29.1 -15.66,-55.76 -38.11,-79.99 l -32.08,32.97 c 17.34,19.69 27,38.98 28.99,57.84 1.98,18.86 -2.93,38.14 -14.75,57.84 -13.58,22.64 -30.36,38.32 -50.34,47.01 -19.97,8.7 -40.96,10.65 -62.94,5.84 -21.99,-4.82 -42.71,-13.05 -62.13,-24.7 -25.06,-15.03 -44.74,-31.81 -59.04,-50.32 -14.32,-18.52 -21.48,-38.25 -21.48,-59.21 0,-20.95 5.38,-40.4 16.15,-58.36 13.11,-21.84 30.5,-36.55 52.18,-44.14 21.67,-7.59 46.52,-6.62 74.52,2.89 z m -204.67,36.84 41.84,10.89 16.16,-26.94 -25.49,-6.27 c 5.5,-12.19 7.12,-22.87 4.89,-32.05 -2.24,-9.18 -6.84,-15.86 -13.81,-20.04 -10.05,-6.03 -21.82,-6.53 -35.31,-1.5 -13.49,5.02 -26.07,17.25 -37.73,36.68 -6.59,10.98 -11.57,21.11 -14.94,30.39 l 24.83,11.89 c 4.61,-8.89 8.13,-15.36 10.54,-19.37 7.55,-12.6 14.6,-20.39 21.13,-23.4 5.02,-2.28 9.47,-2.25 13.35,0.08 2.42,1.44 4.1,3.5 5.05,6.17 0.95,2.67 0.85,6.48 -0.3,11.44 -1.15,4.96 -4.55,12.3 -10.21,22.03" /><path
         id="path48"
         style="fill:#231f20;fill-opacity:1;fill-rule:nonzero;stroke:none"
         d="m 3640.3,2648.78 39.49,-109.59 77.37,65.99 c 23.48,20.09 43.07,35.78 58.77,47.08 -22.21,-3.35 -44.89,-4.96 -68.02,-4.82 z m -166.34,45.45 367.98,-7.68 16.6,-46.1 -275.59,-248.75 -17.56,48.74 84.33,72.97 -48.7,135.17 -110.7,0.22 -16.36,45.43" /><path
         id="path50"
         style="fill:#231f20;fill-opacity:1;fill-rule:nonzero;stroke:none"
         d="m 3587.8,2373.31 340.47,46.29 9.22,-67.82 -230.11,-113.36 c -21.44,-10.48 -37.51,-18.18 -48.19,-23.11 12.91,-2.18 31.92,-5.74 57.04,-10.7 l 247.97,-49.3 8.24,-60.62 -340.47,-46.29 -5.9,43.43 284.96,38.74 -298.41,60.2 -5.52,40.64 276.44,137.87 -289.83,-39.4 -5.91,43.43" /><path
         id="path52"
         style="fill:#231f20;fill-opacity:1;fill-rule:nonzero;stroke:none"
         d="m 3825.06,1933.3 -5.34,-74.11 c -1.46,-20.1 -1.18,-34.61 0.85,-43.53 2.59,-11.78 7.66,-20.88 15.18,-27.3 7.53,-6.42 17.3,-10.05 29.3,-10.92 11.37,-0.82 21.58,1.18 30.62,6.01 9.05,4.84 15.53,12.2 19.46,22.09 3.92,9.9 6.77,27.17 8.55,51.79 l 4.94,68.5 z m -158.26,11.41 -6.16,-85.33 c -1.05,-14.64 -1.25,-24.97 -0.58,-30.97 1.11,-10.57 3.6,-19.53 7.46,-26.86 3.86,-7.33 9.79,-13.55 17.8,-18.67 8.01,-5.12 17.47,-8.08 28.38,-8.86 12.78,-0.92 24.12,1.55 34.02,7.41 9.91,5.87 17.18,14.47 21.84,25.8 4.65,11.34 7.77,27.92 9.35,49.74 l 5.71,79.25 z m -37.17,48.26 342.7,-24.71 -9.27,-128.58 c -1.89,-26.18 -6.88,-46.92 -14.94,-62.24 -8.08,-15.32 -19.65,-26.94 -34.71,-34.87 -15.07,-7.92 -30.47,-11.3 -46.2,-10.17 -14.66,1.05 -28.17,6.02 -40.52,14.91 -12.37,8.88 -21.94,21.63 -28.73,38.25 -7.58,-20.28 -19.09,-35.47 -34.54,-45.55 -15.46,-10.09 -33.16,-14.42 -53.11,-12.98 -16.05,1.16 -30.72,5.62 -44.03,13.4 -13.3,7.77 -23.33,16.92 -30.1,27.43 -6.76,10.51 -11.5,23.42 -14.24,38.74 -2.73,15.32 -3.31,33.88 -1.73,55.7 l 9.42,130.67" /><path
         id="path54"
         style="fill:#231f20;fill-opacity:1;fill-rule:nonzero;stroke:none"
         d="m 3595.46,1676.2 336.48,-69.54 -9.2,-44.54 -336.48,69.55 9.2,44.53" /><path
         id="path56"
         style="fill:#231f20;fill-opacity:1;fill-rule:nonzero;stroke:none"
         d="m 3610.21,1380 c -15.95,-22.09 -33.69,-38.64 -53.21,-49.61 13.66,-33.49 43.44,-58.68 89.35,-75.55 26.1,-9.59 50.53,-13.54 73.3,-11.84 22.76,1.7 42.68,9.1 59.74,22.23 17.07,13.12 29.51,30.31 37.32,51.58 11.7,31.82 10.52,62.23 -3.55,91.2 -14.07,28.98 -42.73,51.42 -85.99,67.33 -41.95,15.42 -77.95,16.88 -108.02,4.38 -30.07,-12.5 -51.02,-34.88 -62.89,-67.15 -5.61,-15.25 -8.04,-30.67 -7.28,-46.27 13.56,10.17 24.9,21.98 34.01,35.44 z m -89.1,-73.87 c -20.91,-14.79 -37.59,-29.38 -50.05,-43.77 l -25.08,23.46 c 16.87,20.09 38.56,38.34 65.06,54.72 -4.55,28.82 -1.52,57.67 9.11,86.56 10.73,29.18 27.5,53.07 50.31,71.65 22.81,18.58 49.34,29.6 79.58,33.04 30.23,3.46 61.34,-0.7 93.3,-12.46 31.83,-11.7 58.42,-28.8 79.78,-51.31 21.35,-22.5 34.48,-48.16 39.35,-77.01 4.87,-28.85 1.9,-58.01 -8.94,-87.49 -10.95,-29.76 -27.9,-54 -50.83,-72.7 -22.94,-18.7 -49.44,-29.65 -79.5,-32.84 -30.05,-3.18 -61.06,1.12 -93.03,12.87 -26.55,9.75 -48.93,22.56 -67.15,38.42 -18.23,15.86 -32.2,34.81 -41.91,56.86" /><path
         id="path58"
         style="fill:#231f20;fill-opacity:1;fill-rule:nonzero;stroke:none"
         d="m 3616.86,857.262 -24.25,-38.461 -167.94,105.84 c -29.22,18.418 -50.33,36.347 -63.35,53.789 -13.02,17.441 -19.48,38.19 -19.38,62.22 0.1,24.04 8.98,50.07 26.64,78.1 17.16,27.22 35.9,46.54 56.2,57.94 20.3,11.41 41.67,15.2 64.11,11.39 22.45,-3.79 49.07,-15.41 79.87,-34.81 l 167.94,-105.85 -24.25,-38.47 -167.74,105.72 c -25.25,15.91 -45.33,25.31 -60.25,28.14 -14.92,2.85 -29.23,0.6 -42.91,-6.75 -13.68,-7.35 -25.73,-19.29 -36.14,-35.81 -17.83,-28.29 -24.13,-52.49 -18.89,-72.6 5.24,-20.11 26.11,-41.662 62.59,-64.662 l 167.75,-105.726" /><path
         id="path60"
         style="fill:#231f20;fill-opacity:1;fill-rule:nonzero;stroke:none"
         d="m 3263.25,954.07 250.09,-235.621 -170.36,-180.82 -29.51,27.812 139.18,147.731 -76.6,72.16 -130.34,-138.352 -29.34,27.641 130.34,138.348 -85.13,80.203 -144.64,-153.543 -29.51,27.812 175.82,186.629" /><path
         id="path62"
         style="fill:#231f20;fill-opacity:1;fill-rule:nonzero;stroke:none"
         d="m 1588.23,167.781 59.56,-37.851 c -19.57,-33.6097 -43.29,-56.1409 -71.13,-67.5902 -27.85,-11.4609 -59.59,-12.4492 -95.23,-3.0078 -44.11,11.6875 -76.37,36.3594 -96.77,74.02 -20.42,37.648 -23.69,82.609 -9.85,134.867 14.65,55.281 40.3,94.429 76.95,117.453 36.65,23.019 78.23,28.367 124.75,16.027 40.63,-10.758 70.45,-31.508 89.47,-62.25 11.33,-18.187 17.26,-41.59 17.77,-70.179 l -70.59,1.742 c 0.64,18.25 -3.95,34.019 -13.77,47.297 -9.82,13.261 -23.64,22.261 -41.46,26.98 -24.62,6.52 -46.94,2.992 -66.95,-10.629 -20.01,-13.601 -35.27,-40.199 -45.75,-79.769 -11.13,-41.981 -11.5,-73.903 -1.12,-95.711 10.38,-21.828 27.66,-35.942 51.83,-42.348 17.81,-4.73 34.65,-3.121 50.49,4.809 15.84,7.929 29.77,23.3 41.8,46.14" /><path
         id="path64"
         style="fill:#231f20;fill-opacity:1;fill-rule:nonzero;stroke:none"
         d="M 1913.5,1.32813 1796.89,347.09 l 75.22,-1.36 82.36,-255.8198 88.7,252.7308 73.6,-1.321 L 1987.55,0 1913.5,1.32813" /><path
         id="path66"
         style="fill:#231f20;fill-opacity:1;fill-rule:nonzero;stroke:none"
         d="m 2303.31,18.3203 -82.25,333.6017 100.82,24.848 116.63,-212.629 3.75,242.308 101.04,24.903 L 2625.54,97.75 2562.96,82.3203 2498.22,344.93 2496.74,66 2431.88,50.0195 2301.15,296.352 2365.89,33.75 2303.31,18.3203" /><path
         id="path68"
         style="fill:#ed1c24;fill-opacity:1;fill-rule:nonzero;stroke:none"
         d="m 3052.81,2343.03 h -710.29 v 710.29 H 1632.23 V 2343.03 H 921.941 V 1632.74 H 1632.23 V 922.461 h 710.29 v 710.279 h 710.29 v 710.29" /></g></g></svg>