<?xml version="1.0" encoding="UTF-8" standalone="no"?>
<svg
   viewBox="0 0 324.78668 328.13333"
   height="328.13333"
   width="324.78668"
   xml:space="preserve"
   id="svg2"
   version="1.1"
   sodipodi:docname="Uganda Red Cross Society.svg"
   inkscape:export-filename="Uganda Red Cross Society.png"
   inkscape:export-xdpi="300"
   inkscape:export-ydpi="300"
   inkscape:version="1.3.2 (091e20e, 2023-11-25, custom)"
   xmlns:inkscape="http://www.inkscape.org/namespaces/inkscape"
   xmlns:sodipodi="http://sodipodi.sourceforge.net/DTD/sodipodi-0.dtd"
   xmlns="http://www.w3.org/2000/svg"
   xmlns:svg="http://www.w3.org/2000/svg"
   xmlns:rdf="http://www.w3.org/1999/02/22-rdf-syntax-ns#"
   xmlns:cc="http://creativecommons.org/ns#"
   xmlns:dc="http://purl.org/dc/elements/1.1/"><sodipodi:namedview
     id="namedview1"
     pagecolor="#ffffff"
     bordercolor="#666666"
     borderopacity="1.0"
     inkscape:showpageshadow="2"
     inkscape:pageopacity="0.0"
     inkscape:pagecheckerboard="0"
     inkscape:deskcolor="#d1d1d1"
     inkscape:export-bgcolor="#ffffffff"
     inkscape:zoom="2.5020317"
     inkscape:cx="162.46796"
     inkscape:cy="164.06667"
     inkscape:window-width="1920"
     inkscape:window-height="1017"
     inkscape:window-x="-8"
     inkscape:window-y="-8"
     inkscape:window-maximized="1"
     inkscape:current-layer="svg2" /><metadata
     id="metadata8"><rdf:RDF><cc:Work
         rdf:about=""><dc:format>image/svg+xml</dc:format><dc:type
           rdf:resource="http://purl.org/dc/dcmitype/StillImage" /></cc:Work></rdf:RDF></metadata><defs
     id="defs6" /><g
     transform="matrix(1.3333333,0,0,-1.3333333,0,328.13333)"
     id="g10"><g
       transform="scale(0.1)"
       id="g12"><path
         id="path14"
         style="fill:#ed1c24;fill-opacity:1;fill-rule:nonzero;stroke:none"
         d="M 1057.74,1375.39 H 737.246 v -320.5 H 1057.74 V 734.43 h 320.47 v 320.46 h 320.46 v 320.5 h -320.46 v 320.48 h -320.47 v -320.48" /><path
         id="path16"
         style="fill:#ed1c24;fill-opacity:1;fill-rule:nonzero;stroke:none"
         d="m 301.848,1386.27 c 51.582,-4.35 75.242,-30.18 70.703,-84 -4.543,-53.81 -32.199,-75.31 -83.774,-70.96 l -104.39,8.81 3.902,46.34 107.133,-9.04 c 22.93,-1.93 35.348,5.55 37.266,28.22 1.914,22.67 -9.083,32.13 -32.004,34.07 l -107.129,9.03 3.906,46.34 104.387,-8.81" /><path
         id="path18"
         style="fill:#ed1c24;fill-opacity:1;fill-rule:nonzero;stroke:none"
         d="m 432.273,1570.66 -9.207,-28.54 -19.406,3.36 c 12.656,-16.94 11.938,-38.77 6.867,-54.47 -16.574,-51.39 -66.574,-72.03 -115.808,-56.15 -49.25,15.88 -77.766,61.84 -61.196,113.23 11.36,35.21 42.278,66.73 86.165,57.05 l -14.266,-44.25 c -14.973,3.25 -28.383,-8.19 -34.133,-26.03 -9.211,-28.55 12.473,-47.62 37.695,-55.75 25.215,-8.13 53.965,-5.32 63.172,23.22 7.055,21.89 1.582,39.94 -13.113,47.3 l -9.973,-30.92 -32.832,10.59 23.02,71.37 93.015,-30.01" /><path
         id="path20"
         style="fill:#ed1c24;fill-opacity:1;fill-rule:nonzero;stroke:none"
         d="m 416.145,1679.05 20.566,34.87 -63.852,14.74 -0.254,-0.43 z m -97.969,54.3 23.992,40.69 187.617,-33.18 -24.629,-41.76 -33.144,6.78 -31.621,-53.61 21.843,-25.94 -24.246,-41.12 -119.812,148.14" /><path
         id="path22"
         style="fill:#ed1c24;fill-opacity:1;fill-rule:nonzero;stroke:none"
         d="m 410.234,1875.12 32.481,35.02 122.844,-29.35 0.339,0.35 -80.671,74.83 29.753,32.09 130.918,-121.42 -32.48,-35.02 -123.762,30.22 -0.34,-0.38 81.59,-75.67 -29.761,-32.09 -130.911,121.42" /><path
         id="path24"
         style="fill:#ed1c24;fill-opacity:1;fill-rule:nonzero;stroke:none"
         d="m 688.254,1949.13 18.164,12.41 c 28.68,20.51 32.477,39.77 12.305,69.28 -18.332,26.84 -41.672,29.97 -67.883,12.06 l -18.172,-12.42 z m -116.543,88.12 63.355,43.3 c 45.215,30.9 91.02,21.93 122.2,-23.69 33.007,-48.3 23.332,-93.07 -21.465,-123.69 l -63.367,-43.3 -100.723,147.38" /><path
         id="path26"
         style="fill:#ed1c24;fill-opacity:1;fill-rule:nonzero;stroke:none"
         d="m 857.781,2075.9 37.617,15.01 -41.503,50.72 -0.457,-0.19 z m -44.285,102.9 43.887,17.51 128.125,-141.05 -45.039,-17.97 -22.071,25.65 -57.824,-23.07 1.418,-33.89 -44.347,-17.69 -4.149,190.51" /><path
         id="path28"
         style="fill:#ed1c24;fill-opacity:1;fill-rule:nonzero;stroke:none"
         d="m 1128.33,2179.75 38.93,2.59 c 13.96,0.93 20.95,8.91 20.05,22.39 -0.87,13.22 -11.75,18.51 -24.72,17.65 l -36.94,-2.46 z m -51.54,74.27 90.81,6.03 c 31.44,2.09 63.33,-10.08 65.71,-46 1.28,-19.22 -6.75,-38.05 -24.98,-46.52 l 0.04,-0.5 c 19.26,-3.23 26.15,-24.08 28.79,-40.95 0.99,-7.45 3.47,-33.59 10.14,-39.67 l -45.9,-3.05 c -4.39,5.73 -6.3,23.14 -7.13,28.1 -2.44,17.88 -6.66,36.15 -28.37,34.7 l -35.18,-2.34 4.31,-64.87 -46.41,-3.08 -11.83,178.15" /><path
         id="path30"
         style="fill:#ed1c24;fill-opacity:1;fill-rule:nonzero;stroke:none"
         d="m 1298.53,2260.42 140.75,-20.56 -5.38,-36.86 -94.75,13.84 -4.51,-30.93 86.58,-12.64 -5.2,-35.62 -86.59,12.64 -4.91,-33.63 97.21,-14.21 -5.78,-39.58 -143.23,20.92 25.81,176.63" /><path
         id="path32"
         style="fill:#ed1c24;fill-opacity:1;fill-rule:nonzero;stroke:none"
         d="m 1503.38,2076.42 20.58,-7.8 c 33.22,-11.8 51.19,-3.91 63.87,29.52 11.52,30.39 0.73,51.32 -28.95,62.57 l -20.57,7.81 z m 5.63,145.99 71.77,-27.21 c 51.19,-19.42 70.02,-62.13 50.43,-113.79 -20.74,-54.7 -63,-72.36 -113.73,-53.12 l -71.77,27.22 63.3,166.9" /><path
         id="path34"
         style="fill:#ed1c24;fill-opacity:1;fill-rule:nonzero;stroke:none"
         d="m 1863.84,1950.97 c 9.52,15.48 4.76,31.72 -10.29,44.13 -23.14,19.09 -48.87,5.96 -65.75,-14.48 -16.85,-20.44 -24.85,-48.21 -1.7,-67.31 16.78,-13.83 34.38,-12.15 48.77,2.55 l 35.88,-29.58 c -31.2,-33.91 -74.42,-33.26 -109.33,-4.47 -41.66,34.37 -42.43,88.47 -9.49,128.4 32.94,39.93 86.2,49.48 127.86,15.11 29.7,-24.5 46.32,-69.97 19.92,-103.95 l -35.87,29.6" /><path
         id="path36"
         style="fill:#ed1c24;fill-opacity:1;fill-rule:nonzero;stroke:none"
         d="m 1953.97,1836.73 23.93,-30.79 c 8.58,-11.06 19.11,-12.38 29.77,-4.1 10.46,8.14 8.76,20.11 0.78,30.36 l -22.7,29.21 z m 32.66,84.25 55.82,-71.84 c 19.34,-24.87 27.1,-58.08 -1.32,-80.17 -15.19,-11.81 -35.28,-15.7 -52.51,-5.35 l -0.39,-0.3 c 8.11,-17.77 -5.29,-35.15 -17.8,-46.76 -5.62,-4.99 -25.87,-21.69 -27.17,-30.61 l -28.22,36.31 c 2.28,6.84 15.64,18.17 19.28,21.63 13.44,12.03 26.21,25.75 12.86,42.92 l -21.62,27.83 -51.31,-39.88 -28.54,36.71 140.92,109.51" /><path
         id="path38"
         style="fill:#ed1c24;fill-opacity:1;fill-rule:nonzero;stroke:none"
         d="m 2023.27,1605.84 c 12.65,-27.19 41.52,-26.43 65.54,-15.25 24.01,11.18 43.19,32.79 30.53,59.98 -12.66,27.2 -41.53,26.43 -65.55,15.26 -24.01,-11.19 -43.18,-32.79 -30.52,-59.99 z m 132.32,61.61 c 23.74,-50.98 -0.25,-97.16 -47.15,-119 -46.91,-21.84 -97.7,-10.47 -121.43,40.51 -23.74,50.99 0.26,97.17 47.16,119.01 46.9,21.83 97.69,10.47 121.42,-40.52" /><path
         id="path40"
         style="fill:#ed1c24;fill-opacity:1;fill-rule:nonzero;stroke:none"
         d="m 2101.18,1460.27 c -20.27,-5.56 -24.02,-19.71 -19.72,-38.98 3.05,-13.66 11.09,-26.72 24.02,-23.84 15.37,3.44 12.74,28.98 14.21,55.69 1.51,26.46 6.9,55.07 38.86,62.2 38.05,8.5 61.49,-26.48 68.8,-59.17 7.74,-34.64 -1.31,-73.28 -40.53,-82.3 l -10.14,45.38 c 16.02,2.81 17.82,18.83 14.72,32.74 -2.18,9.76 -8.32,21.2 -19.79,18.63 -13.42,-2.99 -10.24,-28.67 -11.65,-55.62 -1.46,-26.71 -7.51,-54.69 -38.97,-61.72 -44.16,-9.86 -66.7,24.55 -75.26,62.85 -8.93,40 0.73,79.3 45.32,89.52 l 10.13,-45.38" /><path
         id="path42"
         style="fill:#ed1c24;fill-opacity:1;fill-rule:nonzero;stroke:none"
         d="m 2129.25,1279.77 c -20.97,-1.44 -27.45,-14.57 -27.03,-34.31 0.29,-14 5.58,-28.4 18.83,-28.12 15.74,0.33 18.21,25.89 24.92,51.78 6.72,25.64 17.66,52.63 50.4,53.31 38.99,0.81 55.06,-38.11 55.75,-71.6 0.74,-35.49 -15.75,-71.58 -55.99,-72.67 l -0.96,46.48 c 16.26,-0.41 21.19,14.94 20.87,29.19 -0.19,10 -3.96,22.42 -15.71,22.17 -13.74,-0.28 -15.7,-26.08 -22.41,-52.22 -6.7,-25.9 -18.16,-52.14 -50.4,-52.81 -45.23,-0.94 -60.54,37.24 -61.36,76.48 -0.85,40.99 16.39,77.61 62.12,78.81 l 0.97,-46.49" /><path
         id="path44"
         style="fill:none;stroke:#ed1c24;stroke-width:50.26190186;stroke-linecap:butt;stroke-linejoin:miter;stroke-miterlimit:4;stroke-dasharray:none;stroke-opacity:1"
         d="m 2410.79,1230.47 c 0,665.7 -534.04,1205.36 -1192.83,1205.36 C 559.18,2435.83 25.1328,1896.17 25.1328,1230.47 25.1328,564.762 559.18,25.1289 1217.96,25.1289 c 658.79,0 1192.83,539.6331 1192.83,1205.3411 z" /><path
         id="path46"
         style="fill:none;stroke:#ed1c24;stroke-width:10;stroke-linecap:butt;stroke-linejoin:miter;stroke-miterlimit:4;stroke-dasharray:none;stroke-opacity:1"
         d="m 1970.79,1230.47 c 0,415.78 -337.05,752.83 -752.83,752.83 -415.772,0 -752.823,-337.05 -752.823,-752.83 0,-415.771 337.051,-752.822 752.823,-752.822 415.78,0 752.83,337.051 752.83,752.822 z" /><path
         id="path48"
         style="fill:#ed1c24;fill-opacity:1;fill-rule:nonzero;stroke:none"
         d="m 653.629,424.801 c -12.16,-17.153 -6.074,-30.492 9.484,-42.653 11.02,-8.628 25.524,-13.636 33.696,-3.199 9.711,12.41 -8.528,30.492 -24.344,52.071 -15.61,21.429 -29.594,46.98 -9.418,72.781 24.055,30.719 64.363,18.527 90.758,-2.11 27.953,-21.89 45.48,-57.511 20.867,-89.371 l -36.625,28.66 c 10.605,12.34 1.836,25.872 -9.391,34.661 -7.879,6.16 -19.886,11.121 -27.125,1.859 -8.484,-10.828 10.262,-28.672 26.282,-50.41 15.808,-21.59 28.886,-47.059 9.011,-72.469 -27.886,-35.652 -67.156,-23.332 -98.078,0.867 -32.297,25.274 -49.746,61.793 -21.75,97.973 l 36.633,-28.66" /><path
         id="path50"
         style="fill:#ed1c24;fill-opacity:1;fill-rule:nonzero;stroke:none"
         d="m 847.465,274.711 c 27.269,-12.512 48.773,6.777 59.82,30.871 11.055,24.098 11.656,52.969 -15.625,65.477 -27.265,12.511 -48.773,-6.77 -59.812,-30.868 -11.055,-24.089 -11.66,-52.972 15.617,-65.48 z M 908.34,407.43 c 51.14,-23.461 62.797,-74.192 41.226,-121.239 -21.582,-47.043 -67.652,-71.3 -118.773,-47.839 -51.137,23.449 -62.801,74.199 -41.219,121.23 21.574,47.047 67.645,71.309 118.766,47.848" /><path
         id="path52"
         style="fill:#ed1c24;fill-opacity:1;fill-rule:nonzero;stroke:none"
         d="m 1118.08,276.691 c 0.72,18.161 -11.39,29.989 -30.58,33.43 -29.53,5.301 -45.54,-18.75 -50.21,-44.84 -4.68,-26.07 1.95,-54.191 31.47,-59.492 21.42,-3.848 35.93,6.25 41.28,26.109 l 45.77,-8.207 c -10.59,-44.832 -48.58,-65.453 -93.12,-57.453 -53.16,9.543 -80.323,56.332 -71.174,107.262 9.134,50.941 50.884,85.359 104.034,75.809 37.89,-6.789 74.66,-38.297 68.29,-80.84 l -45.76,8.222" /><path
         id="path54"
         style="fill:#ed1c24;fill-opacity:1;fill-rule:nonzero;stroke:none"
         d="m 1206.29,334.27 46.51,0.199 0.76,-178.528 -46.51,-0.211 -0.76,178.54" /><path
         id="path56"
         style="fill:#ed1c24;fill-opacity:1;fill-rule:nonzero;stroke:none"
         d="m 1291.87,334 140.11,24.641 6.45,-36.692 -94.31,-16.578 5.4,-30.781 86.2,15.14 6.24,-35.441 -86.19,-15.16 5.88,-33.5 96.78,17.019 6.93,-39.386 L 1322.78,158.18 1291.87,334" /><path
         id="path58"
         style="fill:#ed1c24;fill-opacity:1;fill-rule:nonzero;stroke:none"
         d="m 1609.07,385.719 -49.19,-20.391 53.04,-127.937 -42.96,-17.801 -53.04,127.93 -49.19,-20.379 -15.31,36.937 141.32,58.594 15.33,-36.953" /><path
         id="path60"
         style="fill:#ed1c24;fill-opacity:1;fill-rule:nonzero;stroke:none"
         d="m 1753.28,395.559 38.16,-54.438 -38.06,-26.68 -38.17,54.438 -117.47,54.402 43.2,30.258 70.64,-38.98 -12.54,79.73 43.2,30.262 11.04,-128.992" /></g></g></svg>
