<?xml version="1.0" encoding="UTF-8" standalone="no"?>
<svg
   xmlns:dc="http://purl.org/dc/elements/1.1/"
   xmlns:cc="http://creativecommons.org/ns#"
   xmlns:rdf="http://www.w3.org/1999/02/22-rdf-syntax-ns#"
   xmlns:svg="http://www.w3.org/2000/svg"
   xmlns="http://www.w3.org/2000/svg"
   viewBox="0 0 166.94667 220.66667"
   height="220.66667"
   width="166.94667"
   xml:space="preserve"
   id="svg2"
   version="1.1"><metadata
     id="metadata8"><rdf:RDF><cc:Work
         rdf:about=""><dc:format>image/svg+xml</dc:format><dc:type
           rdf:resource="http://purl.org/dc/dcmitype/StillImage" /><dc:title></dc:title></cc:Work></rdf:RDF></metadata><defs
     id="defs6" /><g
     transform="matrix(1.3333333,0,0,-1.3333333,0,220.66667)"
     id="g10"><g
       transform="scale(0.1)"
       id="g12"><path
         id="path14"
         style="fill:#ed192d;fill-opacity:1;fill-rule:nonzero;stroke:none"
         d="M 475.762,754.285 H 128.516 v 297.635 h 347.246 l -0.032,0.19 v 347.25 h 297.637 v -347.25 l -0.008,-0.14 H 1120.6 V 754.336 H 773.359 l 0.008,0.059 V 407.148 H 475.73 v 347.247 l 0.032,-0.11" /><path
         id="path16"
         style="fill:#231f20;fill-opacity:1;fill-rule:nonzero;stroke:none"
         d="m 73.5859,1596.34 c 0,23.92 -4.832,34.27 -19.7773,34.27 -16.7852,0 -20.6953,-16.79 -20.6953,-63.24 0,-49.67 6.9023,-58.64 21.1562,-58.64 11.9571,0 20.6953,6.21 20.6953,41.63 h 33.1092 c 0,-35.42 -8.7342,-66 -52.1951,-66 C 6.21094,1484.36 0,1519.77 0,1569.67 c 0,49.9 6.21094,85.31 55.8789,85.31 47.3671,0 50.8201,-34.72 50.8201,-58.64 H 73.5859" /><path
         id="path18"
         style="fill:#231f20;fill-opacity:1;fill-rule:nonzero;stroke:none"
         d="m 160.066,1580.02 h 13.801 c 15.863,0 24.832,6.89 24.832,24.61 0,15.17 -8.047,22.76 -22.992,22.76 h -15.641 z m -33.109,71.74 h 61.168 c 27.133,0 43.688,-14.26 43.688,-42.31 0,-21.84 -8.739,-36.56 -27.364,-40.47 v -0.46 c 22.531,-2.99 25.985,-15.41 26.446,-50.13 0.226,-17.24 1.152,-26.21 7.359,-29.43 v -1.38 h -35.875 c -3.219,4.6 -3.906,10.8 -4.137,17.24 l -0.922,31.51 c -0.461,12.87 -6.207,20.69 -19.547,20.69 h -17.707 v -69.44 h -33.109 v 164.18" /><path
         id="path20"
         style="fill:#231f20;fill-opacity:1;fill-rule:nonzero;stroke:none"
         d="m 307.266,1508.73 c 19.547,0 22.761,16.79 22.761,60.94 0,43.92 -3.214,60.94 -22.761,60.94 -19.547,0 -22.762,-17.02 -22.762,-60.94 0,-44.15 3.215,-60.94 22.762,-60.94 z m 0,146.25 c 49.668,0 55.879,-35.41 55.879,-85.31 0,-49.9 -6.211,-85.31 -55.879,-85.31 -49.668,0 -55.879,35.41 -55.879,85.31 0,49.9 6.211,85.31 55.879,85.31" /><path
         id="path22"
         style="fill:#231f20;fill-opacity:1;fill-rule:nonzero;stroke:none"
         d="m 384.324,1487.58 v 164.18 h 33.117 v -164.18 h -33.117" /><path
         id="path24"
         style="fill:#231f20;fill-opacity:1;fill-rule:nonzero;stroke:none"
         d="m 435.16,1651.76 h 36.563 l 21.16,-53.12 20.918,53.12 h 36.101 l -38.164,-81.17 40.93,-83.01 H 515.41 l -23.68,55.65 -23.46,-55.65 h -36.329 l 40.93,83.01 -37.711,81.17" /><path
         id="path26"
         style="fill:#231f20;fill-opacity:1;fill-rule:nonzero;stroke:none"
         d="m 629.031,1567.6 v -27.13 h -64.843 v 27.13 h 64.843" /><path
         id="path28"
         style="fill:#231f20;fill-opacity:1;fill-rule:nonzero;stroke:none"
         d="m 683.777,1580.02 h 13.801 c 15.867,0 24.832,6.89 24.832,24.61 0,15.17 -8.047,22.76 -22.996,22.76 h -15.637 z m -33.113,71.74 h 61.172 c 27.129,0 43.691,-14.26 43.691,-42.31 0,-21.84 -8.742,-36.56 -27.363,-40.47 v -0.46 c 22.527,-2.99 25.977,-15.41 26.445,-50.13 0.227,-17.24 1.145,-26.21 7.356,-29.43 v -1.38 h -35.871 c -3.223,4.6 -3.914,10.8 -4.141,17.24 l -0.918,31.51 c -0.461,12.87 -6.211,20.69 -19.551,20.69 h -17.707 v -69.44 h -33.113 v 164.18" /><path
         id="path30"
         style="fill:#231f20;fill-opacity:1;fill-rule:nonzero;stroke:none"
         d="m 830.977,1508.73 c 19.55,0 22.761,16.79 22.761,60.94 0,43.92 -3.211,60.94 -22.761,60.94 -19.539,0 -22.762,-17.02 -22.762,-60.94 0,-44.15 3.223,-60.94 22.762,-60.94 z m 0,146.25 c 49.668,0 55.878,-35.41 55.878,-85.31 0,-49.9 -6.21,-85.31 -55.878,-85.31 -49.668,0 -55.879,35.41 -55.879,85.31 0,49.9 6.211,85.31 55.879,85.31" /><path
         id="path32"
         style="fill:#231f20;fill-opacity:1;fill-rule:nonzero;stroke:none"
         d="m 937.473,1651.76 v -114.51 c 0,-16.33 3.906,-28.52 19.312,-28.52 15.41,0 19.32,12.19 19.32,28.52 v 114.51 h 33.115 v -114.51 c 0,-41.86 -25.529,-52.89 -52.435,-52.89 -26.902,0 -52.43,8.96 -52.43,52.89 v 114.51 h 33.118" /><path
         id="path34"
         style="fill:#231f20;fill-opacity:1;fill-rule:nonzero;stroke:none"
         d="m 1103.07,1603.01 c 0,12.19 -5.52,27.6 -18.86,27.6 -16.09,0 -22.54,-16.56 -22.54,-57.49 0,-39.55 3.68,-64.39 22.76,-64.39 7.83,0 20.47,8.51 20.47,26.22 v 16.78 h -21.84 v 24.38 h 53.58 v -88.53 h -24.37 v 15.17 h -0.47 c -7.82,-12.87 -19.09,-18.39 -34.5,-18.39 -40.69,0 -48.74,30.35 -48.74,87.15 0,55.19 12.88,83.47 55.19,83.47 36.33,0 51.04,-18.62 51.04,-51.97 h -31.72" /><path
         id="path36"
         style="fill:#231f20;fill-opacity:1;fill-rule:nonzero;stroke:none"
         d="m 1249.8,1651.76 v -27.13 h -58.64 V 1586 h 55.19 v -27.14 h -55.19 v -44.15 h 60.94 v -27.13 h -94.05 v 164.18 h 91.75" /><path
         id="path38"
         style="fill:#231f20;fill-opacity:1;fill-rule:nonzero;stroke:none"
         d="m 19.2773,269.328 h 5.7618 c 9.0039,0 10.8007,5.672 10.8007,23.133 0,14.59 -1.1679,22.059 -11.0703,22.059 H 19.2773 Z M 6.3125,324.059 h 21.2461 c 18.0078,0 21.2461,-12.329 21.2461,-31.239 0,-22.769 -4.8594,-33.039 -22.0586,-33.039 H 6.3125 v 64.278" /><path
         id="path40"
         style="fill:#231f20;fill-opacity:1;fill-rule:nonzero;stroke:none"
         d="M 92.8125,324.059 V 313.441 H 69.8594 V 298.32 H 91.4648 V 287.691 H 69.8594 V 270.41 H 93.7148 V 259.781 H 56.8945 v 64.278 h 35.918" /><path
         id="path42"
         style="fill:#231f20;fill-opacity:1;fill-rule:nonzero;stroke:none"
         d="m 120.891,259.781 v 64.278 h 12.961 V 270.41 h 22.957 v -10.629 h -35.918" /><path
         id="path44"
         style="fill:#231f20;fill-opacity:1;fill-rule:nonzero;stroke:none"
         d="m 176.328,284 h 12.602 l -6.211,28.898 h -0.18 z m -1.711,40.059 h 16.028 l 17.011,-64.278 h -13.5 l -2.972,13.598 h -17.106 l -2.969,-13.598 h -13.507 l 17.015,64.278" /><path
         id="path46"
         style="fill:#231f20;fill-opacity:1;fill-rule:nonzero;stroke:none"
         d="m 245.813,295.98 h 5.398 c 6.211,0 9.723,2.7 9.723,9.622 0,5.949 -3.153,8.918 -9,8.918 h -6.121 z m -12.965,28.079 h 23.945 c 10.625,0 17.102,-5.571 17.102,-16.559 0,-8.559 -3.415,-14.32 -10.711,-15.852 v -0.179 c 8.824,-1.168 10.175,-6.028 10.355,-19.617 0.09,-6.75 0.449,-10.27 2.883,-11.532 v -0.539 h -14.051 c -1.258,1.801 -1.527,4.231 -1.617,6.75 l -0.359,12.34 c -0.18,5.051 -2.43,8.098 -7.653,8.098 h -6.929 v -27.188 h -12.965 v 64.278" /><path
         id="path48"
         style="fill:#231f20;fill-opacity:1;fill-rule:nonzero;stroke:none"
         d="m 299.723,340.809 h 12.422 L 303.32,327.84 h -8.461 z m 18.632,-16.75 V 313.441 H 295.398 V 298.32 h 21.61 v -10.629 h -21.61 V 270.41 h 23.86 v -10.629 h -36.82 v 64.278 h 35.917" /><path
         id="path50"
         style="fill:#231f20;fill-opacity:1;fill-rule:nonzero;stroke:none"
         d="m 338.242,294.988 h 5.762 c 5.133,0 8.641,3.063 8.641,9.633 0,6.301 -2.516,9.899 -9,9.899 h -5.403 z m -12.965,29.071 h 22.688 c 13.144,0 17.644,-9.629 17.644,-19.27 0,-13.32 -8.191,-19.348 -20.433,-19.348 h -6.934 v -25.66 h -12.965 v 64.278" /><path
         id="path52"
         style="fill:#231f20;fill-opacity:1;fill-rule:nonzero;stroke:none"
         d="M 383.691,324.059 V 279.23 c 0,-6.39 1.528,-11.16 7.563,-11.16 6.031,0 7.559,4.77 7.559,11.16 v 44.829 h 12.964 V 279.23 c 0,-16.39 -9.992,-20.71 -20.523,-20.71 -10.531,0 -20.527,3.511 -20.527,20.71 v 44.829 h 12.964" /><path
         id="path54"
         style="fill:#231f20;fill-opacity:1;fill-rule:nonzero;stroke:none"
         d="m 432.465,269.328 h 5.039 c 6.219,0 10.445,2.254 10.445,9.723 0,7.469 -4.226,9.629 -9.902,9.629 h -5.582 z m 0,28.363 h 3.691 c 7.11,0 10.352,2.43 10.352,8.457 0,6.122 -2.969,8.372 -9.36,8.372 h -4.683 z m -12.961,26.368 h 21.691 c 10.625,0 18.278,-3.95 18.278,-16.289 0,-6.93 -3.328,-12.239 -9.723,-14.051 v -0.18 c 7.109,-0.98 11.703,-6.379 11.703,-14.937 0,-10.082 -4.949,-18.821 -20.074,-18.821 h -21.875 v 64.278" /><path
         id="path56"
         style="fill:#231f20;fill-opacity:1;fill-rule:nonzero;stroke:none"
         d="m 469.094,259.781 v 64.278 h 12.961 V 270.41 h 22.957 v -10.629 h -35.918" /><path
         id="path58"
         style="fill:#231f20;fill-opacity:1;fill-rule:nonzero;stroke:none"
         d="m 510.938,259.781 v 64.278 h 12.968 v -64.278 h -12.968" /><path
         id="path60"
         style="fill:#231f20;fill-opacity:1;fill-rule:nonzero;stroke:none"
         d="m 553.613,268.07 c 7.649,0 8.907,6.571 8.907,23.852 0,17.199 -1.258,23.859 -8.907,23.859 -7.656,0 -8.918,-6.66 -8.918,-23.859 0,-17.281 1.262,-23.852 8.918,-23.852 z m 16.2,-16.211 -7.645,7.922 c -1.172,-0.441 -2.527,-0.812 -3.965,-0.98 -1.348,-0.192 -2.883,-0.281 -4.59,-0.281 -19.441,0 -21.875,13.871 -21.875,33.402 0,19.539 2.434,33.398 21.875,33.398 19.446,0 21.875,-13.859 21.875,-33.398 0,-10.891 -0.722,-19.981 -4.953,-26.102 l 6.938,-7.019 -7.66,-6.942" /><path
         id="path62"
         style="fill:#231f20;fill-opacity:1;fill-rule:nonzero;stroke:none"
         d="M 594.824,324.059 V 279.23 c 0,-6.39 1.531,-11.16 7.571,-11.16 6.035,0 7.554,4.77 7.554,11.16 v 44.829 h 12.973 V 279.23 c 0,-16.39 -10,-20.71 -20.527,-20.71 -10.54,0 -20.532,3.511 -20.532,20.71 v 44.829 h 12.961" /><path
         id="path64"
         style="fill:#231f20;fill-opacity:1;fill-rule:nonzero;stroke:none"
         d="M 666.563,324.059 V 313.441 H 643.605 V 298.32 h 21.61 v -10.629 h -21.61 V 270.41 h 23.856 v -10.629 h -36.816 v 64.278 h 35.918" /><path
         id="path66"
         style="fill:#231f20;fill-opacity:1;fill-rule:nonzero;stroke:none"
         d="m 708.23,269.328 h 5.762 c 9.004,0 10.805,5.672 10.805,23.133 0,14.59 -1.176,22.059 -11.074,22.059 h -5.493 z m -12.964,54.731 h 21.25 c 18.004,0 21.25,-12.329 21.25,-31.239 0,-22.769 -4.868,-33.039 -22.063,-33.039 h -20.437 v 64.278" /><path
         id="path68"
         style="fill:#231f20;fill-opacity:1;fill-rule:nonzero;stroke:none"
         d="m 763.137,340.809 h 12.422 l -8.821,-12.969 h -8.468 z m 18.633,-16.75 V 313.441 H 758.809 V 298.32 h 21.613 V 287.691 H 758.809 V 270.41 h 23.859 v -10.629 h -36.816 v 64.278 h 35.918" /><path
         id="path70"
         style="fill:#231f20;fill-opacity:1;fill-rule:nonzero;stroke:none"
         d="m 788.953,324.059 h 19.262 l 9.187,-45.368 h 0.176 l 9.277,45.368 h 19.168 v -64.278 h -11.882 v 51.321 h -0.176 l -11.438,-51.321 h -10.078 l -11.433,51.321 h -0.188 v -51.321 h -11.875 v 64.278" /><path
         id="path72"
         style="fill:#231f20;fill-opacity:1;fill-rule:nonzero;stroke:none"
         d="m 875.359,268.07 c 7.649,0 8.911,6.571 8.911,23.852 0,17.199 -1.262,23.859 -8.911,23.859 -7.656,0 -8.914,-6.66 -8.914,-23.859 0,-17.281 1.258,-23.852 8.914,-23.852 z m 0,57.25 c 19.446,0 21.875,-13.859 21.875,-33.398 0,-19.531 -2.429,-33.402 -21.875,-33.402 -19.441,0 -21.875,13.871 -21.875,33.402 0,19.539 2.434,33.398 21.875,33.398" /><path
         id="path74"
         style="fill:#231f20;fill-opacity:1;fill-rule:nonzero;stroke:none"
         d="m 931.887,302.359 c 0,9.371 -1.899,13.422 -7.746,13.422 -6.575,0 -8.106,-6.57 -8.106,-24.761 0,-19.438 2.703,-22.95 8.281,-22.95 4.688,0 8.106,2.43 8.106,16.289 h 12.961 c 0,-13.859 -3.418,-25.839 -20.434,-25.839 -19.441,0 -21.875,13.871 -21.875,33.402 0,19.539 2.434,33.398 21.875,33.398 18.547,0 19.895,-13.59 19.895,-22.961 h -12.957" /><path
         id="path76"
         style="fill:#231f20;fill-opacity:1;fill-rule:nonzero;stroke:none"
         d="m 965.266,295.98 h 5.41 c 6.211,0 9.715,2.7 9.715,9.622 0,5.949 -3.145,8.918 -9.004,8.918 h -6.121 z m -12.961,28.079 h 23.945 c 10.625,0 17.109,-5.571 17.109,-16.559 0,-8.559 -3.425,-14.32 -10.714,-15.852 v -0.179 c 8.82,-1.168 10.168,-6.028 10.351,-19.617 0.09,-6.75 0.449,-10.27 2.883,-11.532 v -0.539 h -14.043 c -1.262,1.801 -1.531,4.231 -1.621,6.75 l -0.36,12.34 c -0.187,5.051 -2.433,8.098 -7.66,8.098 h -6.929 v -27.188 h -12.961 v 64.278" /><path
         id="path78"
         style="fill:#231f20;fill-opacity:1;fill-rule:nonzero;stroke:none"
         d="m 1016.12,284 h 12.6 l -6.21,28.898 h -0.18 z m -1.72,40.059 h 16.03 l 17.02,-64.278 h -13.5 l -2.97,13.598 h -17.11 l -2.97,-13.598 h -13.505 l 17.005,64.278" /><path
         id="path80"
         style="fill:#231f20;fill-opacity:1;fill-rule:nonzero;stroke:none"
         d="m 1084.16,324.059 v -10.618 h -14.04 v -53.66 h -12.96 v 53.66 h -14.04 v 10.618 h 41.04" /><path
         id="path82"
         style="fill:#231f20;fill-opacity:1;fill-rule:nonzero;stroke:none"
         d="m 1089.91,259.781 v 64.278 h 12.97 v -64.278 h -12.97" /><path
         id="path84"
         style="fill:#231f20;fill-opacity:1;fill-rule:nonzero;stroke:none"
         d="m 1132.59,268.07 c 7.64,0 8.9,6.571 8.9,23.852 0,17.199 -1.26,23.859 -8.9,23.859 -7.66,0 -8.92,-6.66 -8.92,-23.859 0,-17.281 1.26,-23.852 8.92,-23.852 z m 16.2,-16.211 -7.65,7.922 c -1.17,-0.441 -2.53,-0.812 -3.96,-0.98 -1.35,-0.192 -2.88,-0.281 -4.59,-0.281 -19.45,0 -21.88,13.871 -21.88,33.402 0,19.539 2.43,33.398 21.88,33.398 19.44,0 21.87,-13.859 21.87,-33.398 0,-10.891 -0.72,-19.981 -4.95,-26.102 l 6.94,-7.019 -7.66,-6.942" /><path
         id="path86"
         style="fill:#231f20;fill-opacity:1;fill-rule:nonzero;stroke:none"
         d="M 1173.8,324.059 V 279.23 c 0,-6.39 1.53,-11.16 7.57,-11.16 6.02,0 7.56,4.77 7.56,11.16 v 44.829 h 12.96 V 279.23 c 0,-16.39 -10,-20.71 -20.52,-20.71 -10.54,0 -20.53,3.511 -20.53,20.71 v 44.829 h 12.96" /><path
         id="path88"
         style="fill:#231f20;fill-opacity:1;fill-rule:nonzero;stroke:none"
         d="m 1245.54,324.059 v -10.618 h -22.96 V 298.32 h 21.61 v -10.629 h -21.61 V 270.41 h 23.86 v -10.629 h -36.82 v 64.278 h 35.92" /><path
         id="path90"
         style="fill:#231f20;fill-opacity:1;fill-rule:nonzero;stroke:none"
         d="m 195.723,27.6016 h 14.715 c 22.996,0 27.593,14.4804 27.593,59.0976 0,37.2418 -2.988,56.3318 -28.281,56.3318 H 195.723 Z M 162.605,167.398 h 54.27 c 45.992,0 54.273,-31.488 54.273,-79.7769 0,-58.1914 -12.418,-84.40235 -56.339,-84.40235 H 162.605 V 167.398" /><path
         id="path92"
         style="fill:#231f20;fill-opacity:1;fill-rule:nonzero;stroke:none"
         d="M 324.059,167.398 V 52.8906 c 0,-16.332 3.91,-28.5195 19.316,-28.5195 15.41,0 19.316,12.1875 19.316,28.5195 V 167.398 h 33.114 V 52.8906 C 395.805,11.0391 370.277,0 343.375,0 316.469,0 290.945,8.96875 290.945,52.8906 V 167.398 h 33.114" /><path
         id="path94"
         style="fill:#231f20;fill-opacity:1;fill-rule:nonzero;stroke:none"
         d="m 542.086,111.988 c 0,23.922 -4.828,34.262 -19.777,34.262 -16.786,0 -20.692,-16.789 -20.692,-63.2305 0,-49.6679 6.899,-58.6484 21.153,-58.6484 11.957,0 20.699,6.2187 20.699,41.6289 H 576.57 C 576.57,30.5898 567.844,0 524.379,0 474.711,0 468.5,35.4219 468.5,85.3086 c 0,49.9024 6.211,85.3124 55.879,85.3124 47.367,0 50.816,-34.711 50.816,-58.633 h -33.109" /><path
         id="path96"
         style="fill:#231f20;fill-opacity:1;fill-rule:nonzero;stroke:none"
         d="m 647.883,24.3711 c 19.551,0 22.762,16.7891 22.762,60.9375 0,43.9294 -3.211,60.9414 -22.762,60.9414 -19.543,0 -22.766,-17.012 -22.766,-60.9414 0,-44.1484 3.223,-60.9375 22.766,-60.9375 z m 0,146.2499 c 49.668,0 55.879,-35.41 55.879,-85.3124 C 703.762,35.4219 697.551,0 647.883,0 c -49.668,0 -55.879,35.4219 -55.879,85.3086 0,49.9024 6.211,85.3124 55.879,85.3124" /><path
         id="path98"
         style="fill:#231f20;fill-opacity:1;fill-rule:nonzero;stroke:none"
         d="M 761.504,167.398 801.516,54.9609 h 0.457 V 167.398 h 30.363 V 3.21875 H 794.617 L 754.148,118.191 h -0.457 V 3.21875 H 723.328 V 167.398 h 38.176" /><path
         id="path100"
         style="fill:#231f20;fill-opacity:1;fill-rule:nonzero;stroke:none"
         d="m 928.254,118.66 c 0,12.192 -5.52,27.59 -18.859,27.59 -16.094,0 -22.54,-16.551 -22.54,-57.4883 0,-39.5508 3.68,-64.3906 22.762,-64.3906 7.824,0 20.473,8.5195 20.473,26.2305 v 16.7773 h -21.848 v 24.3828 h 53.582 V 3.21875 H 937.449 V 18.3984 H 936.98 C 929.172,5.51953 917.898,0 902.488,0 861.797,0 853.75,30.3594 853.75,87.1602 c 0,55.1798 12.871,83.4608 55.188,83.4608 36.328,0 51.042,-18.621 51.042,-51.961 h -31.726" /><path
         id="path102"
         style="fill:#231f20;fill-opacity:1;fill-rule:nonzero;stroke:none"
         d="m 1035.66,24.3711 c 19.55,0 22.77,16.7891 22.77,60.9375 0,43.9294 -3.22,60.9414 -22.77,60.9414 -19.54,0 -22.76,-17.012 -22.76,-60.9414 0,-44.1484 3.22,-60.9375 22.76,-60.9375 z m 0,146.2499 c 49.67,0 55.88,-35.41 55.88,-85.3124 C 1091.54,35.4219 1085.33,0 1035.66,0 c -49.664,0 -55.875,35.4219 -55.875,85.3086 0,49.9024 6.211,85.3124 55.875,85.3124" /></g></g></svg>