<?xml version="1.0" encoding="UTF-8" standalone="no"?>
<!-- Created with Inkscape (http://www.inkscape.org/) -->

<svg
   version="1.1"
   id="svg1"
   width="546.54535"
   height="546.54535"
   viewBox="0 0 546.54535 546.54535"
   sodipodi:docname="Grenada RC.svg"
   inkscape:version="1.3.2 (091e20e, 2023-11-25, custom)"
   xmlns:inkscape="http://www.inkscape.org/namespaces/inkscape"
   xmlns:sodipodi="http://sodipodi.sourceforge.net/DTD/sodipodi-0.dtd"
   xmlns="http://www.w3.org/2000/svg"
   xmlns:svg="http://www.w3.org/2000/svg">
  <defs
     id="defs1">
    <clipPath
       clipPathUnits="userSpaceOnUse"
       id="clipPath19">
      <path
         d="M 0,409.909 H 409.909 V 0.06 L 0,0.06 Z"
         transform="translate(-204.955,-402.90901)"
         id="path19" />
    </clipPath>
  </defs>
  <sodipodi:namedview
     id="namedview1"
     pagecolor="#ffffff"
     bordercolor="#666666"
     borderopacity="1.0"
     inkscape:showpageshadow="2"
     inkscape:pageopacity="0.0"
     inkscape:pagecheckerboard="0"
     inkscape:deskcolor="#d1d1d1"
     inkscape:zoom="1.5021626"
     inkscape:cx="273.27267"
     inkscape:cy="273.27267"
     inkscape:window-width="1920"
     inkscape:window-height="1017"
     inkscape:window-x="-8"
     inkscape:window-y="-8"
     inkscape:window-maximized="1"
     inkscape:current-layer="g1">
    <inkscape:page
       x="0"
       y="0"
       inkscape:label="1"
       id="page1"
       width="546.54535"
       height="546.54535"
       margin="0"
       bleed="0" />
  </sodipodi:namedview>
  <g
     id="g1"
     inkscape:groupmode="layer"
     inkscape:label="1">
    <g
       id="group-MC1">
      <path
         id="path2"
         d="M 0,0 -3.892,3.201 7.645,17.269 19.952,7.143 c -0.054,-3.571 -0.591,-6.86 -1.61,-9.866 -1.02,-3.006 -2.522,-5.716 -4.508,-8.129 -2.68,-3.258 -5.813,-5.644 -9.398,-7.158 -3.585,-1.514 -7.256,-1.864 -11.013,-1.05 -3.755,0.814 -7.263,2.562 -10.521,5.242 -3.227,2.656 -5.685,5.809 -7.372,9.461 -1.687,3.652 -2.167,7.303 -1.44,10.954 0.728,3.65 2.451,7.127 5.168,10.431 1.973,2.398 4.145,4.246 6.516,5.545 2.372,1.299 4.705,1.928 6.997,1.888 2.295,-0.041 4.793,-0.693 7.497,-1.956 l -2.172,-4.853 c -2.098,0.892 -3.935,1.365 -5.508,1.421 -1.573,0.055 -3.215,-0.365 -4.925,-1.259 -1.71,-0.896 -3.253,-2.179 -4.631,-3.854 -1.651,-2.006 -2.772,-3.992 -3.365,-5.957 -0.593,-1.966 -0.761,-3.807 -0.503,-5.523 0.256,-1.716 0.777,-3.314 1.558,-4.792 1.356,-2.532 3.234,-4.785 5.632,-6.758 2.956,-2.432 5.848,-3.958 8.677,-4.578 2.828,-0.62 5.526,-0.355 8.092,0.797 2.566,1.152 4.748,2.821 6.548,5.008 1.563,1.9 2.724,4.056 3.481,6.468 0.758,2.411 1.107,4.426 1.047,6.044 L 8.023,9.751 0,0"
         style="fill:#ed1c24;fill-opacity:1;fill-rule:nonzero;stroke:none"
         transform="matrix(1.3333333,0,0,-1.3333333,111.55333,137.96267)" />
      <path
         id="path3"
         d="m 0,0 10.299,6.57 c 2.19,1.397 3.758,2.716 4.704,3.957 0.946,1.24 1.423,2.563 1.429,3.97 0.007,1.405 -0.362,2.692 -1.108,3.862 -1.093,1.712 -2.613,2.723 -4.56,3.034 -1.947,0.31 -4.262,-0.391 -6.946,-2.103 l -11.46,-7.312 z m 8.113,-23.286 -23.1,36.209 16.055,10.242 c 3.227,2.059 5.888,3.299 7.983,3.72 2.094,0.421 4.169,0.128 6.224,-0.877 2.054,-1.007 3.717,-2.505 4.988,-4.498 1.639,-2.569 2.189,-5.264 1.65,-8.087 -0.54,-2.823 -2.394,-5.581 -5.564,-8.275 1.657,0.199 3.004,0.213 4.04,0.04 2.219,-0.391 4.569,-1.151 7.05,-2.279 L 40.024,-2.928 33.997,-6.772 24.4,-2.296 c -2.786,1.28 -5,2.208 -6.641,2.783 -1.641,0.574 -2.966,0.864 -3.977,0.868 -1.01,0.004 -1.944,-0.139 -2.8,-0.431 C 10.365,0.693 9.439,0.184 8.204,-0.605 L 2.647,-4.15 12.904,-20.229 8.113,-23.286"
         style="fill:#ed1c24;fill-opacity:1;fill-rule:nonzero;stroke:none"
         transform="matrix(1.3333333,0,0,-1.3333333,142.23467,95.434667)" />
      <path
         id="path4"
         d="M 0,0 -11.509,41.378 18.41,49.7 19.768,44.817 -4.675,38.019 -1.151,25.345 21.74,31.712 23.091,26.857 0.2,20.49 4.117,6.406 29.52,13.471 30.878,8.588 0,0"
         style="fill:#ed1c24;fill-opacity:1;fill-rule:nonzero;stroke:none"
         transform="matrix(1.3333333,0,0,-1.3333333,203.064,97.210667)" />
      <path
         id="path5"
         d="M 0,0 0.969,42.938 6.798,42.807 28.59,8.586 29.35,42.298 34.798,42.175 33.829,-0.763 28.001,-0.632 6.209,33.619 5.448,-0.123 0,0"
         style="fill:#ed1c24;fill-opacity:1;fill-rule:nonzero;stroke:none"
         transform="matrix(1.3333333,0,0,-1.3333333,254.824,84.421333)" />
      <path
         id="path6"
         d="m 0,0 13.829,-4.558 -0.534,12.7 c -0.168,3.859 -0.203,6.997 -0.106,9.412 -1.381,-2.444 -2.97,-4.8 -4.766,-7.066 z m -17.29,-12.872 29.109,35.628 5.815,-1.916 3.251,-46.294 -6.15,2.027 -0.685,13.923 -17.057,5.621 -8.552,-10.878 -5.731,1.889"
         style="fill:#ed1c24;fill-opacity:1;fill-rule:nonzero;stroke:none"
         transform="matrix(1.3333333,0,0,-1.3333333,329.89467,68.762667)" />
      <path
         id="path7"
         d="m 0,0 7.492,-5.286 c 2.315,-1.632 4.282,-2.698 5.903,-3.196 1.621,-0.498 3.097,-0.632 4.431,-0.402 1.878,0.324 3.781,1.199 5.706,2.625 1.926,1.426 3.825,3.464 5.694,6.113 2.589,3.67 3.976,6.916 4.162,9.737 0.185,2.822 -0.347,5.175 -1.598,7.061 -0.906,1.357 -2.74,3.01 -5.502,4.958 l -7.373,5.201 z m -7.566,-0.865 24.76,35.094 12.088,-8.528 c 2.729,-1.926 4.694,-3.563 5.894,-4.911 1.684,-1.882 2.809,-3.93 3.373,-6.145 0.748,-2.87 0.722,-5.846 -0.077,-8.927 -0.8,-3.081 -2.303,-6.186 -4.51,-9.314 -1.88,-2.665 -3.857,-4.807 -5.933,-6.427 -2.074,-1.62 -4.075,-2.76 -5.999,-3.422 -1.925,-0.662 -3.739,-0.972 -5.442,-0.929 -1.704,0.042 -3.514,0.441 -5.431,1.196 -1.918,0.755 -3.937,1.882 -6.059,3.379 l -12.664,8.934"
         style="fill:#ed1c24;fill-opacity:1;fill-rule:nonzero;stroke:none"
         transform="matrix(1.3333333,0,0,-1.3333333,373.26667,104.97867)" />
      <path
         id="path8"
         d="m 0,0 8.956,-11.48 6.621,10.85 c 2.008,3.301 3.724,5.928 5.147,7.881 C 18.217,5.989 15.587,4.914 12.834,4.03 Z M -21.528,-1.077 22.48,12.336 26.246,7.508 3.195,-32.769 l -3.982,5.105 7.175,11.951 -11.047,14.16 -13.158,-4.282 -3.711,4.758"
         style="fill:#ed1c24;fill-opacity:1;fill-rule:nonzero;stroke:none"
         transform="matrix(1.3333333,0,0,-1.3333333,434.12133,134.93733)" />
      <path
         id="path9"
         d="m 0,0 5.973,-10.657 c 1.27,-2.266 2.498,-3.907 3.683,-4.922 1.184,-1.015 2.478,-1.566 3.882,-1.653 1.402,-0.087 2.709,0.209 3.919,0.887 1.772,0.993 2.868,2.453 3.289,4.379 0.419,1.927 -0.148,4.278 -1.704,7.055 L 12.395,6.947 Z m -23.71,-6.774 37.466,20.999 9.311,-16.611 c 1.871,-3.339 2.958,-6.066 3.259,-8.182 0.301,-2.115 -0.109,-4.17 -1.23,-6.164 -1.122,-1.994 -2.713,-3.569 -4.774,-4.724 -2.658,-1.49 -5.381,-1.885 -8.168,-1.186 -2.788,0.699 -5.436,2.707 -7.945,6.026 0.104,-1.665 0.041,-3.011 -0.19,-4.037 -0.517,-2.192 -1.41,-4.495 -2.677,-6.908 l -6.544,-12.231 -3.495,6.235 5.015,9.327 c 1.437,2.709 2.49,4.866 3.157,6.471 0.667,1.605 1.032,2.913 1.094,3.922 0.061,1.008 -0.029,1.948 -0.271,2.82 -0.196,0.629 -0.652,1.582 -1.368,2.861 l -3.224,5.75 -16.637,-9.326 -2.779,4.958"
         style="fill:#ed1c24;fill-opacity:1;fill-rule:nonzero;stroke:none"
         transform="matrix(1.3333333,0,0,-1.3333333,80.533333,363.876)" />
      <path
         id="path10"
         d="M 0,0 30.08,30.658 52.247,8.909 48.697,5.29 30.587,23.059 21.375,13.67 38.334,-2.97 34.805,-6.567 17.845,10.073 7.607,-0.362 26.427,-18.829 22.878,-22.446 0,0"
         style="fill:#ed1c24;fill-opacity:1;fill-rule:nonzero;stroke:none"
         transform="matrix(1.3333333,0,0,-1.3333333,87.597333,433.46933)" />
      <path
         id="path11"
         d="m 0,0 8.084,-4.328 c 2.496,-1.337 4.579,-2.153 6.249,-2.449 1.669,-0.295 3.152,-0.247 4.448,0.144 1.823,0.553 3.604,1.654 5.341,3.305 1.737,1.652 3.37,3.906 4.901,6.765 2.12,3.96 3.099,7.35 2.938,10.174 -0.161,2.822 -0.978,5.092 -2.45,6.811 -1.067,1.236 -3.09,2.652 -6.068,4.246 l -7.955,4.26 z m -7.404,-1.785 20.273,37.863 13.043,-6.983 c 2.945,-1.576 5.095,-2.96 6.451,-4.151 1.902,-1.662 3.269,-3.557 4.101,-5.686 1.093,-2.757 1.433,-5.713 1.017,-8.869 -0.416,-3.155 -1.527,-6.421 -3.334,-9.796 -1.54,-2.876 -3.24,-5.244 -5.1,-7.105 -1.861,-1.863 -3.707,-3.24 -5.536,-4.132 -1.829,-0.893 -3.592,-1.422 -5.287,-1.589 -1.696,-0.167 -3.541,0.007 -5.536,0.521 -1.996,0.515 -4.138,1.385 -6.428,2.612 l -13.664,7.315"
         style="fill:#ed1c24;fill-opacity:1;fill-rule:nonzero;stroke:none"
         transform="matrix(1.3333333,0,0,-1.3333333,147.90267,475.73733)" />
      <path
         id="path12"
         d="m 0,0 5.501,-2.025 c -1.675,-4.518 -4.181,-7.832 -7.517,-9.944 -3.337,-2.112 -7.229,-2.933 -11.677,-2.462 -4.603,0.486 -8.248,1.819 -10.934,3.999 -2.686,2.178 -4.594,5.126 -5.723,8.838 -1.13,3.714 -1.478,7.611 -1.047,11.69 0.47,4.447 1.73,8.237 3.78,11.369 2.049,3.132 4.734,5.392 8.052,6.779 3.318,1.387 6.862,1.881 10.63,1.483 4.273,-0.451 7.751,-1.919 10.434,-4.403 2.684,-2.483 4.39,-5.757 5.119,-9.821 L 0.915,14.78 c -0.662,3.212 -1.86,5.627 -3.594,7.245 -1.734,1.617 -4.029,2.576 -6.884,2.879 -3.282,0.346 -6.11,-0.15 -8.48,-1.491 -2.371,-1.34 -4.143,-3.288 -5.317,-5.844 -1.174,-2.558 -1.909,-5.245 -2.207,-8.061 -0.384,-3.632 -0.191,-6.858 0.582,-9.68 0.772,-2.821 2.204,-5.02 4.296,-6.596 2.092,-1.577 4.439,-2.502 7.042,-2.778 3.165,-0.335 5.942,0.294 8.33,1.889 C -2.929,-6.064 -1.156,-3.512 0,0"
         style="fill:#ed1c24;fill-opacity:1;fill-rule:nonzero;stroke:none"
         transform="matrix(1.3333333,0,0,-1.3333333,267.48267,498.23467)" />
      <path
         id="path13"
         d="m 0,0 11.996,2.311 c 2.55,0.491 4.495,1.138 5.832,1.943 1.336,0.805 2.267,1.859 2.792,3.164 0.524,1.304 0.655,2.637 0.393,3.999 -0.385,1.994 -1.425,3.494 -3.12,4.501 -1.695,1.006 -4.107,1.208 -7.232,0.605 L -2.687,13.952 Z m -1.043,-24.636 -8.124,42.174 18.7,3.602 c 3.758,0.723 6.69,0.895 8.792,0.514 2.102,-0.381 3.922,-1.417 5.461,-3.109 1.54,-1.693 2.534,-3.699 2.98,-6.02 0.577,-2.992 0.094,-5.701 -1.448,-8.126 -1.542,-2.425 -4.282,-4.305 -8.222,-5.641 1.613,-0.425 2.87,-0.909 3.771,-1.451 1.918,-1.183 3.822,-2.755 5.711,-4.718 l 9.547,-10.066 -7.019,-1.352 -7.271,7.699 c -2.118,2.218 -3.834,3.897 -5.147,5.035 -1.314,1.14 -2.439,1.898 -3.376,2.274 -0.939,0.376 -1.859,0.587 -2.763,0.632 C 9.891,-3.178 8.842,-3.31 7.404,-3.586 l -6.473,-1.247 3.607,-18.728 -5.581,-1.075"
         style="fill:#ed1c24;fill-opacity:1;fill-rule:nonzero;stroke:none"
         transform="matrix(1.3333333,0,0,-1.3333333,298.924,484.66933)" />
      <path
         id="path14"
         d="m 0,0 c 2.502,-4.532 5.691,-7.429 9.567,-8.691 3.877,-1.263 7.652,-0.879 11.329,1.151 3.744,2.068 6.099,5.085 7.065,9.054 0.965,3.969 0.113,8.373 -2.559,13.212 -1.69,3.061 -3.682,5.446 -5.977,7.158 C 17.13,23.595 14.64,24.53 11.954,24.687 9.269,24.844 6.686,24.238 4.206,22.87 0.684,20.924 -1.678,18.042 -2.881,14.22 -4.085,10.399 -3.124,5.659 0,0 Z m -5.171,-2.756 c -3.446,6.241 -4.468,12.051 -3.066,17.433 1.401,5.38 4.753,9.534 10.054,12.461 3.47,1.916 7.057,2.815 10.761,2.696 3.702,-0.121 7.103,-1.26 10.203,-3.419 3.099,-2.161 5.688,-5.122 7.764,-8.882 2.106,-3.814 3.22,-7.65 3.342,-11.508 0.123,-3.859 -0.799,-7.341 -2.767,-10.446 -1.966,-3.106 -4.583,-5.559 -7.848,-7.363 -3.539,-1.954 -7.175,-2.845 -10.905,-2.674 -3.732,0.171 -7.132,1.339 -10.202,3.504 -3.069,2.165 -5.514,4.898 -7.336,8.198"
         style="fill:#ed1c24;fill-opacity:1;fill-rule:nonzero;stroke:none"
         transform="matrix(1.3333333,0,0,-1.3333333,360.812,472.41733)" />
      <path
         id="path15"
         d="M 0,0 3.39,4.179 C 5.111,2.866 6.789,2.065 8.424,1.774 c 1.634,-0.291 3.436,-0.03 5.405,0.784 1.969,0.812 3.802,2.095 5.5,3.85 1.507,1.558 2.606,3.157 3.298,4.798 0.691,1.642 0.916,3.144 0.672,4.508 -0.244,1.362 -0.842,2.507 -1.796,3.431 -0.969,0.936 -2.086,1.473 -3.353,1.612 -1.266,0.138 -2.768,-0.201 -4.51,-1.017 -1.124,-0.515 -3.398,-1.862 -6.823,-4.038 -3.424,-2.177 -5.988,-3.541 -7.691,-4.094 -2.199,-0.726 -4.219,-0.898 -6.063,-0.513 -1.844,0.384 -3.473,1.262 -4.891,2.634 -1.558,1.507 -2.586,3.359 -3.085,5.553 -0.498,2.196 -0.278,4.482 0.665,6.86 0.941,2.377 2.417,4.604 4.427,6.681 2.214,2.287 4.535,3.949 6.963,4.983 2.428,1.035 4.813,1.329 7.155,0.884 2.34,-0.445 4.451,-1.508 6.33,-3.191 l -3.495,-4.2 c -2.155,1.677 -4.318,2.391 -6.49,2.141 -2.171,-0.25 -4.405,-1.561 -6.7,-3.932 -2.391,-2.471 -3.68,-4.709 -3.868,-6.715 -0.188,-2.006 0.357,-3.627 1.634,-4.862 1.109,-1.074 2.408,-1.556 3.898,-1.449 1.477,0.093 4.196,1.436 8.159,4.029 3.963,2.593 6.824,4.234 8.58,4.927 2.567,0.995 4.9,1.305 6.998,0.933 2.099,-0.374 3.976,-1.361 5.632,-2.964 1.643,-1.59 2.735,-3.557 3.278,-5.903 0.542,-2.346 0.365,-4.791 -0.533,-7.333 C 26.822,7.629 25.307,5.256 23.174,3.053 20.472,0.259 17.799,-1.687 15.159,-2.787 12.518,-3.888 9.861,-4.183 7.187,-3.674 4.512,-3.166 2.117,-1.941 0,0"
         style="fill:#ed1c24;fill-opacity:1;fill-rule:nonzero;stroke:none"
         transform="matrix(1.3333333,0,0,-1.3333333,419.62933,447.004)" />
      <path
         id="path16"
         d="M 0,0 2.148,4.934 C 4.157,4.13 5.988,3.807 7.641,3.965 c 1.653,0.157 3.319,0.891 4.998,2.202 1.679,1.309 3.102,3.037 4.269,5.181 1.035,1.905 1.666,3.74 1.894,5.507 0.226,1.767 0.04,3.273 -0.56,4.522 -0.6,1.249 -1.482,2.19 -2.649,2.825 -1.184,0.643 -2.405,0.862 -3.662,0.657 C 10.675,24.653 9.317,23.923 7.858,22.671 6.913,21.874 5.082,19.967 2.365,16.955 -0.352,13.941 -2.457,11.94 -3.95,10.951 -5.873,9.663 -7.775,8.957 -9.654,8.834 c -1.878,-0.124 -3.684,0.285 -5.418,1.227 -1.905,1.036 -3.39,2.544 -4.459,4.525 -1.068,1.982 -1.466,4.244 -1.196,6.787 0.271,2.543 1.097,5.084 2.478,7.624 1.52,2.796 3.312,5.018 5.375,6.665 2.062,1.646 4.281,2.568 6.656,2.766 2.375,0.198 4.692,-0.261 6.953,-1.38 l -2.242,-4.983 c -2.525,1.04 -4.801,1.148 -6.826,0.327 -2.026,-0.822 -3.826,-2.683 -5.403,-5.583 -1.642,-3.02 -2.286,-5.521 -1.929,-7.505 0.355,-1.982 1.314,-3.398 2.876,-4.248 1.355,-0.736 2.736,-0.854 4.143,-0.351 1.398,0.484 3.658,2.506 6.783,6.065 3.124,3.56 5.441,5.907 6.948,7.044 2.207,1.646 4.371,2.57 6.493,2.772 2.122,0.203 4.195,-0.247 6.22,-1.347 2.007,-1.092 3.587,-2.695 4.737,-4.811 1.151,-2.115 1.635,-4.517 1.45,-7.207 C 23.801,14.531 22.976,11.838 21.512,9.145 19.655,5.73 17.601,3.14 15.352,1.373 13.102,-0.394 10.621,-1.39 7.908,-1.616 5.195,-1.841 2.559,-1.303 0,0"
         style="fill:#ed1c24;fill-opacity:1;fill-rule:nonzero;stroke:none"
         transform="matrix(1.3333333,0,0,-1.3333333,460.90267,401.364)" />
      <path
         id="path17"
         d="m 0,0 c -65.824,0 -119.375,-53.551 -119.375,-119.374 0,-65.823 53.551,-119.375 119.375,-119.375 65.823,0 119.374,53.552 119.374,119.375 C 119.374,-53.551 65.823,0 0,0 Z m 0,-245.749 c -69.684,0 -126.375,56.691 -126.375,126.375 C -126.375,-49.691 -69.684,7 0,7 69.683,7 126.374,-49.691 126.374,-119.374 126.374,-189.058 69.683,-245.749 0,-245.749"
         style="fill:#ed1c24;fill-opacity:1;fill-rule:nonzero;stroke:none"
         transform="matrix(1.3333333,0,0,-1.3333333,273.27333,114.10667)" />
      <path
         id="path18"
         d="m 0,0 c -109.153,0 -197.955,-88.802 -197.955,-197.954 0,-109.152 88.802,-197.955 197.955,-197.955 109.152,0 197.954,88.803 197.954,197.955 C 197.954,-88.802 109.152,0 0,0 Z m 0,-402.909 c -113.013,0 -204.955,91.942 -204.955,204.955 C -204.955,-84.942 -113.013,7 0,7 113.012,7 204.954,-84.942 204.954,-197.954 204.954,-310.967 113.012,-402.909 0,-402.909"
         style="fill:#ed1c24;fill-opacity:1;fill-rule:nonzero;stroke:none"
         transform="matrix(1.3333333,0,0,-1.3333333,273.27333,9.3333333)"
         clip-path="url(#clipPath19)" />
      <path
         id="path20"
         d="m 0,0 h -68.427 v 68.427 h -62.157 V 0 h -68.427 v -62.157 h 68.427 v -68.427 h 62.157 v 68.427 H 0 V 0"
         style="fill:#ed1c24;fill-opacity:1;fill-rule:nonzero;stroke:none"
         transform="matrix(1.3333333,0,0,-1.3333333,405.94667,231.83467)" />
    </g>
  </g>
</svg>
