<?xml version="1.0" encoding="utf-8"?>
<!-- Generator: Adobe Illustrator 21.1.0, SVG Export Plug-In . SVG Version: 6.00 Build 0)  -->
<svg version="1.1" id="Layer_1" xmlns="http://www.w3.org/2000/svg" xmlns:xlink="http://www.w3.org/1999/xlink" x="0px" y="0px"
	 viewBox="0 0 531.9 531.9" style="enable-background:new 0 0 531.9 531.9;" xml:space="preserve">
<style type="text/css">
	.st0{fill:#CE2035;}
	.st1{fill:#FFFFFF;stroke:#FFFFFF;stroke-miterlimit:10;}
	.st2{fill-rule:evenodd;clip-rule:evenodd;fill:#CE2035;}
</style>
<g>
	<path class="st0" d="M265.9,12.4L265.9,12.4L265.9,12.4c70,0,133.4,28.4,179.2,74.3c45.9,45.9,74.2,109.2,74.2,179.2h0v0v0h0
		c0,70-28.4,133.4-74.2,179.2C399.3,491,336,519.4,265.9,519.4v0h0h0v0c-70,0-133.4-28.4-179.2-74.2C40.8,399.3,12.5,336,12.5,265.9
		h0v0v0h0c0-70,28.4-133.4,74.2-179.2C132.6,40.8,196,12.5,265.9,12.4L265.9,12.4L265.9,12.4L265.9,12.4z"/>
	<path class="st1" d="M265.9,23.4L265.9,23.4L265.9,23.4L265.9,23.4L265.9,23.4c-66.9,0-127.6,27.2-171.5,71
		c-43.9,43.9-71,104.5-71,171.5h0v0v0h0c0,67,27.2,127.5,71,171.5c43.9,43.9,104.5,71,171.5,71v0h0h0v0c67,0,127.5-27.2,171.5-71
		c43.9-43.9,71-104.5,71-171.5h0v0v0h0c0-66.9-27.2-127.6-71-171.5C393.5,50.6,332.9,23.4,265.9,23.4L265.9,23.4z"/>
	<g>
		<path d="M56.8,371.1l41.1-26.1l13.4,21.2c2.5,3.9,4.1,7.1,4.7,9.6c0.6,2.5,0.5,5-0.6,7.4c-1,2.4-2.8,4.5-5.5,6.1
			c-2.3,1.4-4.6,2.2-6.8,2.3c-2.3,0.1-4.5-0.4-6.6-1.5c-1.3-0.7-2.8-1.8-4.5-3.4c0.5,1.8,0.6,3.3,0.6,4.3c0,0.7-0.3,1.8-0.9,3.4
			c-0.5,1.6-1,2.7-1.4,3.4l-8,13.7l-9.1-14.4l8.3-14.8c1.1-1.9,1.7-3.3,1.7-4.3c0.1-1.3-0.3-2.6-1-3.7l-0.7-1.1l-16.7,10.6
			L56.8,371.1z M89.4,368.4l3.4,5.4c0.4,0.6,1.3,1.6,2.7,3c0.7,0.7,1.6,1.1,2.6,1.2c1,0.1,2-0.1,2.9-0.7c1.3-0.8,2.1-1.9,2.3-3.2
			c0.2-1.3-0.5-3.1-1.9-5.4l-3.5-5.6L89.4,368.4z"/>
		<path d="M124.8,385.6l29.4,27.5l-7.1,7.6l-18.4-17.2l-5.3,5.6l17.1,16l-6.8,7.2l-17.1-16l-6.6,7l19,17.7l-7.5,8l-30-28
			L124.8,385.6z"/>
		<path d="M158.3,416.3l19.6,10.8c3.9,2.1,6.7,4.4,8.5,6.7c1.8,2.4,2.9,4.9,3.4,7.7c0.5,2.8,0.4,5.7-0.4,8.7s-1.9,5.9-3.5,8.8
			c-2.5,4.6-5,7.8-7.4,9.8c-2.4,1.9-5,3.3-7.8,3.9c-2.8,0.7-5.4,0.7-7.8,0.1c-3.3-0.8-6.2-1.9-8.5-3.1l-19.6-10.8L158.3,416.3z
			 M166.2,433.2l-12.8,23.3l3.2,1.8c2.8,1.5,4.9,2.3,6.4,2.3c1.5,0,3-0.5,4.5-1.7c1.5-1.2,3.2-3.4,5.1-6.9c2.5-4.5,3.4-8,2.9-10.5
			c-0.6-2.5-2.5-4.7-6-6.5L166.2,433.2z"/>
		<path d="M250.4,476.9l12.6,5.6c-1.3,3.6-3.1,6.5-5.3,8.7c-2.2,2.2-4.8,3.8-7.7,4.7c-3,0.9-6.6,1.1-10.9,0.5
			c-5.3-0.7-9.4-2-12.6-3.9c-3.1-1.9-5.7-5-7.6-9.1c-1.9-4.1-2.5-9.2-1.8-15.2c1-8,3.9-13.9,8.7-17.6c4.8-3.8,11.1-5.2,18.8-4.2
			c6.1,0.8,10.7,2.6,13.9,5.5c3.2,2.9,5.3,7,6.3,12.3l-13.5,1.3c-0.3-1.5-0.6-2.7-1-3.4c-0.7-1.2-1.6-2.3-2.7-3
			c-1.1-0.8-2.4-1.2-3.9-1.4c-3.4-0.4-6.1,0.6-8.3,3.1c-1.6,1.8-2.7,4.9-3.2,9.3c-0.7,5.4-0.3,9.1,1.1,11.3s3.5,3.5,6.5,3.8
			c2.9,0.4,5.1-0.2,6.8-1.6C248,482.1,249.4,479.9,250.4,476.9z"/>
		<path d="M277.1,497.8l-6.7-48.2l24.8-3.5c4.6-0.6,8.2-0.7,10.7-0.3c2.5,0.5,4.7,1.6,6.5,3.6s2.9,4.4,3.3,7.5
			c0.4,2.7,0.1,5.1-0.7,7.2s-2.2,3.9-4,5.4c-1.2,0.9-2.8,1.8-5,2.6c1.9,0.3,3.2,0.8,4.1,1.2c0.6,0.3,1.5,1.1,2.7,2.2
			c1.2,1.1,2.1,2.1,2.5,2.7l9.2,13l-16.8,2.3l-10-13.6c-1.3-1.8-2.3-2.9-3.2-3.3c-1.2-0.6-2.4-0.8-3.8-0.6l-1.3,0.2l2.7,19.6
			L277.1,497.8z M288.1,467l6.3-0.9c0.7-0.1,2-0.5,3.9-1.2c1-0.3,1.7-1,2.2-1.8s0.7-1.9,0.5-2.9c-0.2-1.6-0.9-2.7-2-3.4
			s-3-0.9-5.7-0.5l-6.5,0.9L288.1,467z"/>
		<path d="M325.3,466.7c-3.1-7.3-3.5-13.9-1.2-19.7c2.3-5.8,7.1-10.3,14.4-13.4c7.4-3.2,14-3.7,19.8-1.4s10.2,7,13.3,14.2
			c2.2,5.2,3.2,9.9,2.9,14c-0.3,4.1-1.7,7.8-4.3,11.1c-2.5,3.3-6.3,6-11.2,8.1c-5,2.2-9.6,3.2-13.6,3c-4-0.2-7.8-1.6-11.3-4.2
			C330.5,475.8,327.6,471.9,325.3,466.7z M339.2,460.8c1.9,4.5,4.2,7.4,6.7,8.7c2.5,1.3,5.2,1.3,8.1,0c3-1.3,4.9-3.2,5.6-5.9
			c0.8-2.6,0.1-6.4-2-11.5c-1.8-4.2-4-6.9-6.5-8.1c-2.5-1.2-5.3-1.2-8.2,0.1c-2.8,1.2-4.6,3.1-5.4,5.8
			C336.7,452.6,337.2,456.2,339.2,460.8z"/>
		<path d="M383.2,448.9l10.7-9.5c1.7,1.6,3.3,2.6,4.8,3c2.4,0.6,4.8,0,7-1.8c1.7-1.3,2.7-2.7,3-4.3c0.3-1.5,0-2.8-0.8-3.8
			c-0.8-1-1.9-1.5-3.4-1.6s-4.1,0.7-7.8,2.5c-6.1,2.9-11,4.3-14.7,4.1c-3.7-0.2-6.8-1.8-9.1-4.8c-1.5-2-2.4-4.3-2.7-6.9
			s0.4-5.4,1.9-8.2s4.2-5.8,8.2-8.9c4.9-3.8,9.3-5.9,13.3-6.1s7.8,1.5,11.4,5.1l-10.6,9.4c-1.7-1.5-3.3-2.3-4.8-2.3
			c-1.6,0-3.2,0.6-4.9,1.9c-1.4,1.1-2.2,2.2-2.4,3.3c-0.2,1.1,0,2.1,0.6,2.9c0.5,0.6,1.2,0.9,2.2,1c1,0.1,2.6-0.5,5.1-1.7
			c6-3,10.6-4.7,13.8-5.4c3.1-0.6,5.9-0.5,8.2,0.4c2.3,0.9,4.3,2.4,6,4.5c1.9,2.5,3,5.2,3.3,8.4c0.3,3.1-0.4,6.2-2,9.2
			c-1.6,3-4.2,5.9-8,8.9c-6.5,5.1-12,7.4-16.5,6.9S386.6,452.5,383.2,448.9z"/>
		<path d="M424.4,415.1l8.1-11.8c2,1.2,3.8,1.8,5.4,1.8c2.5,0,4.6-1.2,6.4-3.4c1.3-1.7,1.9-3.3,1.9-4.8s-0.6-2.7-1.7-3.5
			c-1-0.8-2.2-1-3.7-0.8c-1.5,0.3-3.8,1.7-7,4.3c-5.2,4.3-9.7,6.8-13.3,7.5c-3.7,0.7-7-0.1-10-2.4c-2-1.5-3.4-3.6-4.3-6.1
			c-0.9-2.5-0.9-5.3-0.1-8.4c0.8-3.1,2.7-6.6,5.8-10.6c3.8-4.9,7.6-7.9,11.5-9.1c3.8-1.2,7.9-0.4,12.3,2.2l-8,11.7
			c-2-1-3.7-1.4-5.2-1.1c-1.5,0.3-2.9,1.4-4.2,3c-1.1,1.4-1.6,2.6-1.5,3.8s0.5,2.1,1.3,2.7c0.6,0.5,1.4,0.6,2.3,0.4
			c0.9-0.2,2.4-1.1,4.5-2.9c5.2-4.3,9.2-7.2,12.1-8.5c2.9-1.4,5.6-1.9,8.1-1.6c2.5,0.3,4.8,1.3,6.9,2.9c2.5,1.9,4.2,4.4,5.2,7.3
			c1,3,1.1,6.1,0.3,9.4c-0.8,3.3-2.7,6.8-5.6,10.5c-5.1,6.5-9.9,10.1-14.3,10.6C432.9,418.9,428.6,417.8,424.4,415.1z"/>
	</g>
	<g>
		<path d="M76.5,143.8l13.8-17.5c2.7-3.5,5.4-5.9,8-7.3c2.6-1.4,5.4-2.1,8.2-2.1c2.9,0,5.7,0.6,8.5,1.8c2.8,1.2,5.5,2.8,8.1,4.9
			c4.1,3.2,6.9,6.2,8.4,8.9c1.5,2.7,2.4,5.5,2.6,8.3c0.2,2.9-0.2,5.4-1.2,7.7c-1.3,3.1-2.8,5.8-4.5,7.9L114.7,174L76.5,143.8z
			 M94.4,138.8l20.9,16.5l2.3-2.9c1.9-2.5,3.1-4.4,3.3-5.9c0.3-1.5,0-3-0.9-4.7c-0.9-1.7-2.9-3.7-5.9-6.1c-4-3.2-7.3-4.7-9.9-4.6
			c-2.5,0.1-5,1.7-7.4,4.8L94.4,138.8z"/>
		<path d="M130.7,116.4c-4.5-6.5-6.3-12.9-5.2-19c1.1-6.2,4.9-11.5,11.4-16c6.6-4.6,13-6.4,19.1-5.4c6.1,1.1,11.4,4.8,15.9,11.2
			c3.3,4.7,5.1,9,5.7,13.1c0.5,4.1-0.1,8-1.9,11.7c-1.8,3.7-4.9,7.1-9.4,10.2c-4.5,3.1-8.7,5-12.7,5.6c-4,0.6-7.9,0-11.9-1.8
			C137.6,124.3,134,121.1,130.7,116.4z M143.1,107.9c2.8,4,5.6,6.4,8.3,7.1c2.7,0.7,5.4,0.2,8-1.6c2.7-1.8,4.1-4.1,4.3-6.9
			c0.2-2.7-1.2-6.3-4.3-10.8c-2.6-3.8-5.3-6-8-6.7c-2.7-0.7-5.4-0.1-8,1.7c-2.5,1.7-3.9,4-4.1,6.8
			C139,100.4,140.2,103.8,143.1,107.9z"/>
		<path d="M177.1,60l19-5.5l15.6,26.3l-1-30.6l19-5.5l13.6,46.7l-11.8,3.5L221,59.2l1.3,38.3l-10.7,3.1l-19.5-33l10.4,35.6
			l-11.8,3.5L177.1,60z"/>
		<path d="M249.1,43.9l15.1-0.6l2,48.6l-15.1,0.6L249.1,43.9z"/>
		<path d="M283.7,42l13.8,2.6l13.1,29.8l4.9-26.5l13.9,2.6l-8.9,47.9l-13.9-2.6l-13-29.6l-4.9,26.3l-13.9-2.6L283.7,42z"/>
		<path d="M347.7,57.1l13.8,6l-19.4,44.7l-13.8-6L347.7,57.1z"/>
		<path d="M388.5,113.6l8.4,10.9c-2.9,2.5-5.8,4.2-8.8,5.1c-3,0.9-6,1-9,0.4c-3-0.6-6.3-2.2-9.9-4.8c-4.3-3.1-7.4-6.2-9.2-9.4
			c-1.8-3.2-2.6-7.1-2.3-11.7c0.3-4.6,2.2-9.3,5.7-14.2c4.7-6.5,10.1-10.3,16.1-11.3c6-1,12.2,0.8,18.5,5.3c5,3.6,8.2,7.4,9.6,11.5
			c1.4,4.1,1.3,8.7-0.3,13.8l-12.5-5.4c0.5-1.5,0.7-2.6,0.7-3.5c0-1.4-0.3-2.7-1-4c-0.6-1.2-1.6-2.3-2.8-3.1c-2.8-2-5.7-2.4-8.8-1.2
			c-2.3,0.9-4.7,3-7.3,6.6c-3.1,4.4-4.6,7.9-4.5,10.4c0.2,2.6,1.4,4.7,3.9,6.5c2.3,1.7,4.6,2.3,6.7,1.8
			C383.9,117,386.2,115.7,388.5,113.6z"/>
		<path d="M415.4,159.6l-10.5-13.4l-7.8,3.1l-9.5-12.1l49.6-15.6l10.1,12.9l-27,44.4l-9.7-12.4L415.4,159.6z M421.8,150.6l10.5-15
			l-17.1,6.6L421.8,150.6z"/>
	</g>
	<path class="st0" d="M265.9,104.4L265.9,104.4L265.9,104.4c44.6,0,85,18.1,114.2,47.3c29.2,29.2,47.3,69.6,47.3,114.2h0v0v0h0
		c0,44.6-18.1,85-47.3,114.2c-29.2,29.2-69.6,47.3-114.2,47.3v0h0h0v0c-44.6,0-84.9-18.1-114.2-47.3
		c-29.2-29.2-47.3-69.6-47.3-114.2h0v0v0h0c0-44.6,18.1-84.9,47.3-114.2C181,122.5,221.4,104.5,265.9,104.4L265.9,104.4L265.9,104.4
		L265.9,104.4z"/>
	<path class="st1" d="M265.9,111.9L265.9,111.9L265.9,111.9c42.6,0,81,17.2,108.9,45.1c27.8,27.9,45.1,66.4,45.1,108.9h0v0v0h0
		c0,42.6-17.3,81-45.1,108.9c-27.8,27.8-66.3,45.1-108.9,45.1v0h0h0v0c-42.5,0-81-17.3-108.9-45.1C129.2,347,112,308.5,112,265.9h0
		v0v0h0c0-42.5,17.2-81,45.1-108.9C185,129.2,223.4,112,265.9,111.9L265.9,111.9L265.9,111.9L265.9,111.9z"/>
	<polygon class="st2" points="161.4,231.1 231.1,231.1 231.1,161.4 300.7,161.4 300.7,231.1 370.5,231.1 370.5,300.8 300.7,300.8 
		300.7,370.4 231.1,370.4 231.1,300.8 161.4,300.8 161.4,231.1 	"/>
</g>
</svg>
