<?xml version="1.0" encoding="UTF-8" standalone="no"?>
<!-- Created with Inkscape (http://www.inkscape.org/) -->

<svg
   version="1.1"
   id="svg1"
   width="542.54535"
   height="542.54535"
   viewBox="0 0 542.54535 542.54535"
   sodipodi:docname="Bolivia RC.svg"
   inkscape:version="1.3.2 (091e20e, 2023-11-25, custom)"
   xmlns:inkscape="http://www.inkscape.org/namespaces/inkscape"
   xmlns:sodipodi="http://sodipodi.sourceforge.net/DTD/sodipodi-0.dtd"
   xmlns="http://www.w3.org/2000/svg"
   xmlns:svg="http://www.w3.org/2000/svg">
  <defs
     id="defs1">
    <clipPath
       clipPathUnits="userSpaceOnUse"
       id="clipPath21">
      <path
         d="M 0.059998,406.909 H 406.909 V 0 H 0.059998 Z"
         transform="translate(-203.455,-402.90901)"
         id="path21" />
    </clipPath>
  </defs>
  <sodipodi:namedview
     id="namedview1"
     pagecolor="#ffffff"
     bordercolor="#666666"
     borderopacity="1.0"
     inkscape:showpageshadow="2"
     inkscape:pageopacity="0.0"
     inkscape:pagecheckerboard="0"
     inkscape:deskcolor="#d1d1d1"
     inkscape:export-bgcolor="#ffffffff"
     inkscape:zoom="1.5132376"
     inkscape:cx="271.27267"
     inkscape:cy="271.27267"
     inkscape:window-width="1920"
     inkscape:window-height="1017"
     inkscape:window-x="-8"
     inkscape:window-y="-8"
     inkscape:window-maximized="1"
     inkscape:current-layer="g1">
    <inkscape:page
       x="0"
       y="0"
       inkscape:label="1"
       id="page1"
       width="542.54535"
       height="542.54535"
       margin="0"
       bleed="0"
       inkscape:export-filename="Bolivia RC.png"
       inkscape:export-xdpi="300"
       inkscape:export-ydpi="300" />
  </sodipodi:namedview>
  <g
     id="g1"
     inkscape:groupmode="layer"
     inkscape:label="1">
    <g
       id="group-MC1">
      <path
         id="path2"
         d="m 0,0 3.419,4.882 c 4.005,-2.821 6.612,-6.145 7.821,-9.972 1.21,-3.829 1.006,-7.868 -0.612,-12.117 -1.674,-4.398 -3.931,-7.634 -6.771,-9.709 -2.839,-2.074 -6.231,-3.184 -10.175,-3.329 -3.943,-0.146 -7.864,0.523 -11.761,2.006 -4.249,1.618 -7.648,3.841 -10.193,6.669 -2.546,2.828 -4.07,6.053 -4.572,9.675 -0.502,3.622 -0.068,7.234 1.303,10.834 1.554,4.082 3.9,7.121 7.038,9.113 3.138,1.993 6.799,2.819 10.983,2.481 l -0.771,-5.794 c -3.329,0.183 -6.014,-0.367 -8.054,-1.651 -2.04,-1.285 -3.579,-3.291 -4.617,-6.019 -1.194,-3.136 -1.44,-6.044 -0.739,-8.722 0.702,-2.679 2.157,-4.927 4.365,-6.745 2.208,-1.818 4.658,-3.239 7.349,-4.263 3.47,-1.321 6.692,-1.968 9.666,-1.942 2.973,0.026 5.507,0.862 7.6,2.509 2.092,1.647 3.612,3.714 4.558,6.2 1.152,3.025 1.254,5.918 0.308,8.68 C 5.199,-4.454 3.151,-2.049 0,0"
         style="fill:#ed1c24;fill-opacity:1;fill-rule:nonzero;stroke:none"
         transform="matrix(1.3333333,0,0,-1.3333333,82.629333,179.77467)" />
      <path
         id="path3"
         d="m 0,0 8.032,9.474 c 1.708,2.014 2.835,3.766 3.382,5.255 0.547,1.489 0.612,2.917 0.196,4.285 -0.415,1.367 -1.161,2.507 -2.236,3.419 C 7.799,23.768 6.019,24.294 4.035,24.011 2.05,23.727 0.011,22.352 -2.081,19.883 L -11.018,9.341 Z m 14.871,-20.183 -33.307,28.237 12.52,14.768 c 2.517,2.968 4.73,4.971 6.637,6.009 1.908,1.038 4.011,1.376 6.309,1.017 2.298,-0.361 4.364,-1.318 6.196,-2.872 2.363,-2.002 3.706,-4.456 4.03,-7.359 0.324,-2.905 -0.65,-6.14 -2.92,-9.708 1.549,0.691 2.853,1.108 3.912,1.252 2.273,0.285 4.783,0.252 7.531,-0.099 L 39.755,9.171 35.056,3.627 24.39,5.094 C 21.299,5.502 18.871,5.738 17.104,5.804 15.338,5.87 13.963,5.753 12.98,5.454 11.998,5.155 11.135,4.735 10.39,4.195 9.86,3.785 9.114,3.012 8.151,1.876 l -4.334,-5.112 14.79,-12.539 -3.736,-4.408"
         style="fill:#ed1c24;fill-opacity:1;fill-rule:nonzero;stroke:none"
         transform="matrix(1.3333333,0,0,-1.3333333,92.826667,140.136)" />
      <path
         id="path4"
         d="m 0,0 4.986,2.919 12.745,-21.772 c 2.217,-3.788 3.549,-7.046 3.996,-9.775 0.447,-2.729 -0.038,-5.447 -1.457,-8.152 -1.419,-2.706 -3.945,-5.122 -7.578,-7.249 -3.53,-2.067 -6.774,-3.148 -9.73,-3.246 -2.958,-0.097 -5.591,0.726 -7.9,2.469 -2.308,1.743 -4.631,4.611 -6.969,8.604 l -12.745,21.772 4.987,2.919 12.73,-21.746 c 1.916,-3.274 3.632,-5.508 5.148,-6.702 1.516,-1.195 3.261,-1.779 5.235,-1.75 1.974,0.027 4.032,0.669 6.174,1.922 3.667,2.147 5.794,4.508 6.381,7.083 0.586,2.575 -0.505,6.228 -3.274,10.958 L 0,0"
         style="fill:#ed1c24;fill-opacity:1;fill-rule:nonzero;stroke:none"
         transform="matrix(1.3333333,0,0,-1.3333333,159.88133,50.690667)" />
      <path
         id="path5"
         d="m 0,0 -1.115,5.244 16.057,32.011 c 1.14,2.273 2.257,4.277 3.349,6.012 l -23.83,-5.072 -1.073,5.04 30.59,6.51 1.073,-5.04 L 7.379,9.975 5.425,6.422 32.693,12.225 33.765,7.185 0,0"
         style="fill:#ed1c24;fill-opacity:1;fill-rule:nonzero;stroke:none"
         transform="matrix(1.3333333,0,0,-1.3333333,209.152,91.844)" />
      <path
         id="path6"
         d="m 0,0 11.941,-3.417 c 2.539,-0.726 4.6,-1.032 6.182,-0.916 1.582,0.115 2.91,0.644 3.985,1.586 1.075,0.941 1.807,2.09 2.194,3.446 0.569,1.985 0.315,3.823 -0.76,5.515 -1.077,1.691 -3.17,2.983 -6.282,3.873 L 3.973,13.889 Z M -12.266,-21.864 -0.254,20.117 18.359,14.792 C 22.1,13.721 24.837,12.53 26.569,11.219 28.3,9.907 29.475,8.13 30.093,5.889 30.712,3.646 30.69,1.37 30.03,-0.94 29.177,-3.918 27.495,-6.153 24.982,-7.644 22.469,-9.135 19.12,-9.581 14.934,-8.982 c 1.268,-1.127 2.185,-2.143 2.752,-3.049 1.196,-1.953 2.2,-4.254 3.013,-6.903 l 4.033,-13.515 -6.987,1.999 -3.057,10.324 c -0.901,2.984 -1.686,5.294 -2.353,6.931 -0.668,1.636 -1.341,2.841 -2.019,3.613 -0.677,0.772 -1.415,1.386 -2.214,1.842 -0.593,0.314 -1.604,0.676 -3.036,1.086 l -6.442,1.843 -5.334,-18.642 -5.556,1.589"
         style="fill:#ed1c24;fill-opacity:1;fill-rule:nonzero;stroke:none"
         transform="matrix(1.3333333,0,0,-1.3333333,317.468,54.66)" />
      <path
         id="path7"
         d="m 0,0 c -3.099,-4.253 -4.396,-8.437 -3.892,-12.55 0.504,-4.114 2.482,-7.427 5.932,-9.941 3.515,-2.561 7.308,-3.433 11.38,-2.615 4.071,0.817 7.762,3.496 11.07,8.039 2.093,2.872 3.435,5.734 4.025,8.584 0.589,2.85 0.379,5.546 -0.631,8.088 -1.011,2.541 -2.68,4.66 -5.006,6.355 C 19.571,8.369 15.899,9.305 11.861,8.771 7.823,8.236 3.87,5.312 0,0 Z m -4.763,3.58 c 4.268,5.858 9.182,9.298 14.742,10.321 5.56,1.022 10.828,-0.278 15.803,-3.903 3.258,-2.373 5.628,-5.292 7.111,-8.754 1.481,-3.463 1.894,-7.086 1.238,-10.87 -0.656,-3.785 -2.271,-7.443 -4.843,-10.973 -2.607,-3.579 -5.662,-6.255 -9.164,-8.027 -3.503,-1.773 -7.107,-2.421 -10.814,-1.944 -3.706,0.476 -7.091,1.832 -10.157,4.065 -3.322,2.42 -5.707,5.385 -7.154,8.896 -1.447,3.511 -1.833,7.146 -1.158,10.905 0.675,3.758 2.139,7.186 4.396,10.284"
         style="fill:#ed1c24;fill-opacity:1;fill-rule:nonzero;stroke:none"
         transform="matrix(1.3333333,0,0,-1.3333333,382.72667,84.441333)" />
      <path
         id="path8"
         d="m 0,0 3.668,-3.772 c -2.604,-2.091 -4.071,-3.949 -4.402,-5.575 -0.332,-1.626 0.086,-3.23 1.252,-4.812 0.859,-1.167 1.869,-1.977 3.029,-2.429 1.159,-0.453 2.316,-0.5 3.472,-0.143 1.155,0.357 2.739,1.278 4.753,2.763 L 35.991,3.876 39.419,-0.775 15.464,-18.426 c -2.942,-2.167 -5.482,-3.49 -7.62,-3.969 -2.14,-0.478 -4.2,-0.258 -6.185,0.661 -1.983,0.918 -3.741,2.417 -5.272,4.494 -2.274,3.086 -3.127,6.101 -2.56,9.047 C -5.606,-5.247 -3.548,-2.516 0,0"
         style="fill:#ed1c24;fill-opacity:1;fill-rule:nonzero;stroke:none"
         transform="matrix(1.3333333,0,0,-1.3333333,425.66933,135.36267)" />
      <path
         id="path9"
         d="m 0,0 5.039,-13.92 9.819,8.402 c 2.981,2.557 5.467,4.555 7.459,5.994 -2.821,-0.43 -5.703,-0.639 -8.642,-0.626 z m -21.148,5.743 46.765,-0.905 2.119,-5.853 -34.974,-31.667 -2.241,6.19 10.701,9.29 -6.215,17.168 -14.068,0.007 -2.087,5.77"
         style="fill:#ed1c24;fill-opacity:1;fill-rule:nonzero;stroke:none"
         transform="matrix(1.3333333,0,0,-1.3333333,467.38933,189.18267)" />
      <path
         id="path10"
         d="m 0,0 4.36,-8.375 c 1.183,-2.271 2.18,-3.823 2.994,-4.653 1.065,-1.102 2.22,-1.749 3.462,-1.941 1.242,-0.194 2.541,0.063 3.897,0.769 1.286,0.669 2.257,1.567 2.913,2.693 0.657,1.125 0.868,2.354 0.633,3.686 -0.235,1.333 -1.077,3.391 -2.526,6.174 l -4.029,7.741 z m -17.886,-9.311 5.02,-9.643 c 0.862,-1.655 1.529,-2.786 2.001,-3.391 0.826,-1.07 1.691,-1.873 2.597,-2.409 0.906,-0.536 1.962,-0.813 3.171,-0.834 1.208,-0.02 2.429,0.291 3.662,0.932 1.444,0.752 2.506,1.776 3.186,3.07 0.681,1.294 0.895,2.71 0.644,4.247 -0.252,1.537 -1.019,3.539 -2.303,6.004 l -4.663,8.956 z m -7.239,2.746 38.731,20.164 7.564,-14.531 c 1.541,-2.959 2.384,-5.536 2.532,-7.732 0.146,-2.196 -0.331,-4.224 -1.433,-6.085 -1.102,-1.861 -2.542,-3.255 -4.321,-4.18 -1.656,-0.863 -3.449,-1.225 -5.378,-1.088 -1.929,0.137 -3.816,0.88 -5.658,2.225 0.532,-2.699 0.298,-5.11 -0.701,-7.231 -1,-2.121 -2.627,-3.769 -4.882,-4.942 -1.814,-0.945 -3.7,-1.44 -5.658,-1.486 -1.957,-0.045 -3.652,0.277 -5.084,0.963 -1.433,0.688 -2.807,1.769 -4.123,3.243 -1.317,1.476 -2.617,3.446 -3.901,5.911 l -7.688,14.769"
         style="fill:#ed1c24;fill-opacity:1;fill-rule:nonzero;stroke:none"
         transform="matrix(1.3333333,0,0,-1.3333333,78.114667,356.46533)" />
      <path
         id="path11"
         d="m 0,0 c -3.636,-3.805 -5.476,-7.78 -5.522,-11.923 -0.047,-4.145 1.473,-7.691 4.56,-10.641 3.144,-3.004 6.788,-4.371 10.932,-4.102 4.144,0.27 8.157,2.436 12.039,6.5 2.456,2.569 4.165,5.227 5.128,7.974 0.962,2.746 1.112,5.446 0.448,8.1 -0.664,2.653 -2.037,4.974 -4.119,6.964 C 20.509,5.698 16.994,7.113 12.921,7.119 8.847,7.125 4.541,4.751 0,0 Z m -4.245,4.18 c 5.007,5.239 10.333,7.997 15.98,8.274 5.647,0.275 10.695,-1.713 15.146,-5.966 2.914,-2.784 4.876,-5.991 5.885,-9.62 1.01,-3.628 0.938,-7.275 -0.214,-10.939 -1.153,-3.663 -3.239,-7.074 -6.256,-10.232 -3.06,-3.202 -6.443,-5.449 -10.149,-6.74 -3.706,-1.293 -7.365,-1.457 -10.975,-0.493 -3.61,0.964 -6.786,2.757 -9.528,5.377 -2.972,2.84 -4.942,6.096 -5.91,9.767 -0.969,3.672 -0.869,7.325 0.298,10.962 1.168,3.636 3.075,6.839 5.723,9.61"
         style="fill:#ed1c24;fill-opacity:1;fill-rule:nonzero;stroke:none"
         transform="matrix(1.3333333,0,0,-1.3333333,107.68133,413.91733)" />
      <path
         id="path12"
         d="M 0,0 19.432,39.102 24.607,36.531 7.468,2.043 26.726,-7.528 24.433,-12.142 0,0"
         style="fill:#ed1c24;fill-opacity:1;fill-rule:nonzero;stroke:none"
         transform="matrix(1.3333333,0,0,-1.3333333,147.716,482.82133)" />
      <path
         id="path13"
         d="M 0,0 11.029,42.249 16.62,40.789 5.592,-1.46 0,0"
         style="fill:#ed1c24;fill-opacity:1;fill-rule:nonzero;stroke:none"
         transform="matrix(1.3333333,0,0,-1.3333333,205.81067,506.81067)" />
      <path
         id="path14"
         d="M 0,0 -15.893,44.048 -9.64,43.902 0.964,11.925 C 1.818,9.362 2.527,6.962 3.09,4.724 3.82,7.091 4.66,9.455 5.61,11.816 L 18.141,43.253 24.037,43.115 5.926,-0.139 0,0"
         style="fill:#ed1c24;fill-opacity:1;fill-rule:nonzero;stroke:none"
         transform="matrix(1.3333333,0,0,-1.3333333,261.268,515.49333)" />
      <path
         id="path15"
         d="M 0,0 -8.905,42.747 -3.248,43.926 5.657,1.179 0,0"
         style="fill:#ed1c24;fill-opacity:1;fill-rule:nonzero;stroke:none"
         transform="matrix(1.3333333,0,0,-1.3333333,317.684,511.27733)" />
      <path
         id="path16"
         d="M 0,0 13.402,6.288 4.139,15.3 c -2.819,2.735 -5.036,5.028 -6.651,6.881 0.686,-2.771 1.157,-5.621 1.413,-8.549 z m -3.789,-21.585 -3.368,46.654 5.636,2.644 34.727,-31.937 -5.959,-2.797 -10.229,9.808 -16.529,-7.755 1.277,-14.01 -5.555,-2.607"
         style="fill:#ed1c24;fill-opacity:1;fill-rule:nonzero;stroke:none"
         transform="matrix(1.3333333,0,0,-1.3333333,355.376,475.408)" />
      <path
         id="path17"
         d="m 0,0 -30.651,31.098 4.222,4.162 40.399,-8.318 -24.065,24.416 3.945,3.89 30.651,-31.1 -4.221,-4.16 -40.42,8.339 L 3.946,3.888 0,0"
         style="fill:#ed1c24;fill-opacity:1;fill-rule:nonzero;stroke:none"
         transform="matrix(1.3333333,0,0,-1.3333333,426.30933,461.60133)" />
      <path
         id="path18"
         d="m 0,0 6.483,13.308 -12.866,1.2 c -3.911,0.359 -7.077,0.753 -9.497,1.182 2.273,-1.727 4.429,-3.65 6.467,-5.769 z m 10.6,-19.179 -31.908,34.2 2.727,5.596 L 28.5,17.557 25.616,11.64 11.497,12.853 3.5,-3.56 13.288,-13.664 10.6,-19.179"
         style="fill:#ed1c24;fill-opacity:1;fill-rule:nonzero;stroke:none"
         transform="matrix(1.3333333,0,0,-1.3333333,465.00667,377.12267)" />
      <path
         id="path19"
         d="m 0,0 c -66.651,0 -120.875,-54.224 -120.875,-120.874 0,-66.65 54.224,-120.875 120.875,-120.875 66.65,0 120.874,54.225 120.874,120.875 C 120.874,-54.224 66.65,0 0,0 Z m 0,-245.749 c -68.856,0 -124.875,56.018 -124.875,124.875 C -124.875,-52.018 -68.856,4 0,4 68.856,4 124.874,-52.018 124.874,-120.874 124.874,-189.731 68.856,-245.749 0,-245.749"
         style="fill:#ed1c24;fill-opacity:1;fill-rule:nonzero;stroke:none"
         transform="matrix(1.3333333,0,0,-1.3333333,271.27333,110.10667)" />
      <path
         id="path20"
         d="m 0,0 c -109.98,0 -199.455,-89.475 -199.455,-199.454 0,-109.98 89.475,-199.455 199.455,-199.455 109.98,0 199.454,89.475 199.454,199.455 C 199.454,-89.475 109.98,0 0,0 Z m 0,-402.909 c -112.186,0 -203.455,91.269 -203.455,203.455 C -203.455,-87.269 -112.186,4 0,4 112.185,4 203.454,-87.269 203.454,-199.454 203.454,-311.64 112.185,-402.909 0,-402.909"
         style="fill:#ed1c24;fill-opacity:1;fill-rule:nonzero;stroke:none"
         transform="matrix(1.3333333,0,0,-1.3333333,271.27333,5.3333333)"
         clip-path="url(#clipPath21)" />
      <path
         id="path22"
         d="m 0,0 h -68.427 v 68.427 h -62.157 V 0 h -68.427 v -62.157 h 68.427 v -68.427 h 62.157 v 68.427 H 0 V 0"
         style="fill:#ed1c24;fill-opacity:1;fill-rule:nonzero;stroke:none"
         transform="matrix(1.3333333,0,0,-1.3333333,403.94667,229.83467)" />
    </g>
  </g>
</svg>
