<?xml version="1.0" encoding="UTF-8" standalone="no"?>
<svg
   xmlns:dc="http://purl.org/dc/elements/1.1/"
   xmlns:cc="http://creativecommons.org/ns#"
   xmlns:rdf="http://www.w3.org/1999/02/22-rdf-syntax-ns#"
   xmlns:svg="http://www.w3.org/2000/svg"
   xmlns="http://www.w3.org/2000/svg"
   viewBox="0 0 291.72 169.67999"
   height="169.67999"
   width="291.72"
   xml:space="preserve"
   id="svg2"
   version="1.1"><metadata
     id="metadata8"><rdf:RDF><cc:Work
         rdf:about=""><dc:format>image/svg+xml</dc:format><dc:type
           rdf:resource="http://purl.org/dc/dcmitype/StillImage" /><dc:title></dc:title></cc:Work></rdf:RDF></metadata><defs
     id="defs6" /><g
     transform="matrix(1.3333333,0,0,-1.3333333,0,169.68)"
     id="g10"><g
       transform="scale(0.1)"
       id="g12"><path
         id="path14"
         style="fill:#ed192d;fill-opacity:1;fill-rule:nonzero;stroke:none"
         d="M 945.148,627.504 H 597.902 v 297.637 h 347.246 l -0.031,0.183 V 1272.57 H 1242.75 V 925.324 l -0.01,-0.136 h 347.25 V 627.551 h -347.25 l 0.01,0.058 V 280.363 H 945.117 v 347.246 l 0.031,-0.105" /><path
         id="path16"
         style="fill:#231f20;fill-opacity:1;fill-rule:nonzero;stroke:none"
         d="m 105.055,138.832 c -2.071,14.707 -16.1644,25.898 -32.3245,25.898 -29.2149,0 -40.1992,-24.859 -40.1992,-50.769 0,-24.6602 10.9843,-49.5196 40.1992,-49.5196 19.8906,0 31.0825,13.6797 33.5705,33.1484 h 31.496 C 134.48,60.7109 108.992,37.0898 72.7305,37.0898 26.9336,37.0898 0,71.2813 0,113.961 c 0,43.937 26.9336,78.129 72.7305,78.129 32.5355,0 59.8865,-19.07 63.8245,-53.258 h -31.5" /><path
         id="path18"
         style="fill:#231f20;fill-opacity:1;fill-rule:nonzero;stroke:none"
         d="m 156.887,147.738 h 27.972 v -19.886 h 0.414 c 5.387,13.468 19.891,22.789 34.192,22.789 2.066,0 4.555,-0.411 6.418,-1.032 V 122.25 c -2.692,0.629 -7.043,1.039 -10.567,1.039 -21.546,0 -29.007,-15.539 -29.007,-34.3984 V 40.6094 H 156.887 V 147.738" /><path
         id="path20"
         style="fill:#231f20;fill-opacity:1;fill-rule:nonzero;stroke:none"
         d="m 285.813,59.8789 c 20.101,0 26.113,17.2109 26.113,34.1914 0,17.2107 -6.012,34.3987 -26.113,34.3987 -19.895,0 -25.903,-17.188 -25.903,-34.3987 0,-16.9805 6.008,-34.1914 25.903,-34.1914 z m 0,90.7621 c 33.777,0 55.535,-22.371 55.535,-56.5707 0,-33.9805 -21.758,-56.3594 -55.535,-56.3594 -33.567,0 -55.325,22.3789 -55.325,56.3594 0,34.1997 21.758,56.5707 55.325,56.5707" /><path
         id="path22"
         style="fill:#231f20;fill-opacity:1;fill-rule:nonzero;stroke:none"
         d="m 361.254,147.738 h 29.43 V 40.6094 h -29.43 z m 29.43,16.582 h -29.43 v 24.239 h 29.43 V 164.32" /><path
         id="path24"
         style="fill:#231f20;fill-opacity:1;fill-rule:nonzero;stroke:none"
         d="M 441.246,96.9688 406.02,147.738 h 33.57 l 18.855,-27.968 18.649,27.968 h 32.535 L 474.398,97.5898 513.98,40.6094 H 480.41 L 458.031,74.3906 435.652,40.6094 h -32.949 l 38.543,56.3594" /><path
         id="path26"
         style="fill:#231f20;fill-opacity:1;fill-rule:nonzero;stroke:none"
         d="m 524.977,109.82 h 62.371 V 84.5391 H 524.977 V 109.82" /><path
         id="path28"
         style="fill:#231f20;fill-opacity:1;fill-rule:nonzero;stroke:none"
         d="m 645.172,121.641 h 35.641 c 14.503,0 22.375,6.211 22.375,21.129 0,14.3 -7.872,20.511 -22.375,20.511 h -35.641 z m -32.535,66.918 h 79.781 c 26.523,0 43.305,-18.438 43.305,-40.821 0,-17.398 -7.047,-30.457 -23.414,-37.09 v -0.418 c 15.953,-4.14 20.511,-19.6792 21.546,-34.6011 0.622,-9.3203 0.418,-26.7305 6.219,-35.0195 h -32.531 c -3.938,9.332 -3.523,23.6211 -5.18,35.4297 -2.281,15.5507 -8.293,22.3828 -24.66,22.3828 H 645.172 V 40.6094 H 612.637 V 188.559" /><path
         id="path30"
         style="fill:#231f20;fill-opacity:1;fill-rule:nonzero;stroke:none"
         d="m 811.168,59.8789 c 20.102,0 26.113,17.2109 26.113,34.1914 0,17.2107 -6.011,34.3987 -26.113,34.3987 -19.895,0 -25.898,-17.188 -25.898,-34.3987 0,-16.9805 6.003,-34.1914 25.898,-34.1914 z m 0,90.7621 c 33.777,0 55.535,-22.371 55.535,-56.5707 0,-33.9805 -21.758,-56.3594 -55.535,-56.3594 -33.566,0 -55.324,22.3789 -55.324,56.3594 0,34.1997 21.758,56.5707 55.324,56.5707" /><path
         id="path32"
         style="fill:#231f20;fill-opacity:1;fill-rule:nonzero;stroke:none"
         d="m 986.277,40.6094 h -27.972 v 14.9219 h -0.625 c -7.453,-12.0196 -20.301,-17.8204 -32.739,-17.8204 -31.289,0 -39.16,17.6211 -39.16,44.1407 v 65.8864 h 29.422 V 87.2305 c 0,-17.6016 5.184,-26.3203 18.86,-26.3203 15.953,0 22.792,8.9218 22.792,30.6796 v 56.1482 h 29.422 V 40.6094" /><path
         id="path34"
         style="fill:#231f20;fill-opacity:1;fill-rule:nonzero;stroke:none"
         d="m 1083.68,95.5195 c 0,17.4105 -6,32.9495 -25.07,32.9495 -16.57,0 -23.82,-14.508 -23.82,-30.4573 0,-15.3398 5.8,-32.1133 23.82,-32.1133 16.79,0 25.07,14.293 25.07,29.6211 z m 27.98,-48.0703 C 1111.66,29.8398 1105.44,0 1056.13,0 c -21.14,0 -45.8,9.94922 -47.25,34.3906 h 29.22 c 2.69,-10.9804 11.6,-14.7109 21.96,-14.7109 16.38,0 23.84,11.1992 23.62,26.5312 v 14.0899 h -0.41 c -6.42,-11.1914 -19.27,-16.582 -32.12,-16.582 -32.12,0 -45.79,24.4531 -45.79,53.871 0,27.7692 15.95,53.0512 46,53.0512 14.09,0 24.87,-4.762 31.91,-17.2 h 0.41 v 14.297 h 27.98 V 47.4492" /><path
         id="path36"
         style="fill:#231f20;fill-opacity:1;fill-rule:nonzero;stroke:none"
         d="m 1207.41,105.68 c -2.69,14.91 -9.12,22.789 -23.42,22.789 -18.64,0 -24.03,-14.508 -24.45,-22.789 z m -47.87,-18.6487 c 0.83,-18.6524 9.95,-27.1524 26.32,-27.1524 11.82,0 21.35,7.2617 23.21,13.8906 h 25.9 c -8.29,-25.289 -25.9,-36.0586 -50.15,-36.0586 -33.78,0 -54.7,23.1993 -54.7,56.3594 0,32.1207 22.17,56.5707 54.7,56.5707 36.48,0 54.09,-30.661 52.02,-63.6097 h -77.3" /><path
         id="path38"
         style="fill:#231f20;fill-opacity:1;fill-rule:nonzero;stroke:none"
         d="m 1362.63,128.469 c -19.27,0 -25.9,-16.578 -25.9,-34.1877 0,-16.7813 7.66,-34.4024 25.9,-34.4024 19.48,0 25.28,16.9922 25.28,34.6094 0,17.4027 -6.21,33.9807 -25.28,33.9807 z m 25.7,-74.1877 h -0.42 c -6.84,-11.6016 -18.86,-16.5704 -32.53,-16.5704 -32.32,0 -48.08,27.7696 -48.08,57.3985 0,28.8006 15.96,55.5316 47.46,55.5316 12.63,0 25.07,-5.391 31.7,-15.961 h 0.42 v 53.879 h 29.42 V 40.6094 h -27.97 v 13.6719" /><path
         id="path40"
         style="fill:#231f20;fill-opacity:1;fill-rule:nonzero;stroke:none"
         d="m 1538.99,40.6094 h -27.97 v 14.9219 h -0.62 c -7.46,-12.0196 -20.31,-17.8204 -32.74,-17.8204 -31.29,0 -39.16,17.6211 -39.16,44.1407 v 65.8864 h 29.42 V 87.2305 c 0,-17.6016 5.18,-26.3203 18.86,-26.3203 15.95,0 22.79,8.9218 22.79,30.6796 v 56.1482 h 29.42 V 40.6094" /><path
         id="path42"
         style="fill:#231f20;fill-opacity:1;fill-rule:nonzero;stroke:none"
         d="m 1654.85,161.211 h -44.34 v 27.348 h 121.22 v -27.348 h -44.35 V 40.6094 h -32.53 V 161.211" /><path
         id="path44"
         style="fill:#231f20;fill-opacity:1;fill-rule:nonzero;stroke:none"
         d="m 1795.6,110.031 c -1.87,12.02 -9.54,18.438 -21.76,18.438 -18.86,0 -25.08,-19.059 -25.08,-34.8088 0,-15.3282 6.02,-33.7813 24.45,-33.7813 13.68,0 21.56,8.7109 23.42,21.7617 h 28.39 c -3.73,-28.3906 -23.42,-43.9297 -51.6,-43.9297 -32.33,0 -54.08,22.7891 -54.08,54.9102 0,33.3589 19.89,58.0199 54.7,58.0199 25.29,0 48.49,-13.262 50.35,-40.61 h -28.79" /><path
         id="path46"
         style="fill:#231f20;fill-opacity:1;fill-rule:nonzero;stroke:none"
         d="m 1841.61,188.559 h 29.43 V 132.82 h 0.62 c 7.45,12.02 20.3,17.821 31.29,17.821 31.29,0 39.16,-17.61 39.16,-44.129 V 40.6094 h -29.42 v 60.5116 c 0,17.609 -5.19,26.32 -18.86,26.32 -15.96,0 -22.79,-8.921 -22.79,-30.6793 V 40.6094 h -29.43 V 188.559" /><path
         id="path48"
         style="fill:#231f20;fill-opacity:1;fill-rule:nonzero;stroke:none"
         d="m 2031.22,93.0313 c -4.97,-4.3399 -15.33,-4.5508 -24.45,-6.211 -9.11,-1.8594 -17.4,-4.9687 -17.4,-15.75 0,-10.9805 8.49,-13.6719 18.02,-13.6719 23,0 23.83,18.2305 23.83,24.6602 z m -67.97,21.7577 c 1.66,27.563 26.32,35.852 50.36,35.852 21.34,0 47.03,-4.762 47.03,-30.461 V 64.4414 c 0,-9.7422 1.04,-19.4726 3.74,-23.832 h -29.84 c -1.03,3.3125 -1.86,6.8398 -2.07,10.3594 -9.33,-9.7305 -23.01,-13.2579 -36.05,-13.2579 -20.32,0 -36.48,10.1602 -36.48,32.1211 0,24.2383 18.23,30.0469 36.48,32.527 18.02,2.7 34.8,2.071 34.8,14.09 0,12.641 -8.7,14.5 -19.06,14.5 -11.19,0 -18.44,-4.551 -19.47,-16.16 h -29.44" /><path
         id="path50"
         style="fill:#231f20;fill-opacity:1;fill-rule:nonzero;stroke:none"
         d="m 2134.22,128.469 c -19.27,0 -25.9,-16.578 -25.9,-34.1877 0,-16.7813 7.67,-34.4024 25.9,-34.4024 19.48,0 25.28,16.9922 25.28,34.6094 0,17.4027 -6.21,33.9807 -25.28,33.9807 z m 25.7,-74.1877 h -0.42 c -6.83,-11.6016 -18.86,-16.5704 -32.53,-16.5704 -32.32,0 -48.07,27.7696 -48.07,57.3985 0,28.8006 15.95,55.5316 47.45,55.5316 12.63,0 25.08,-5.391 31.71,-15.961 h 0.41 v 53.879 h 29.42 V 40.6094 h -27.97 v 13.6719" /></g></g></svg>