<?xml version="1.0" encoding="UTF-8" standalone="no"?>
<!-- Created with Inkscape (http://www.inkscape.org/) -->

<svg
   version="1.1"
   id="svg1"
   width="478.07867"
   height="101.83733"
   viewBox="0 0 478.07867 101.83733"
   sodipodi:docname="St Vincent &amp; Grenadines Red Cross.svg"
   inkscape:version="1.3.2 (091e20e, 2023-11-25, custom)"
   xmlns:inkscape="http://www.inkscape.org/namespaces/inkscape"
   xmlns:sodipodi="http://sodipodi.sourceforge.net/DTD/sodipodi-0.dtd"
   xmlns="http://www.w3.org/2000/svg"
   xmlns:svg="http://www.w3.org/2000/svg">
  <defs
     id="defs1">
    <clipPath
       clipPathUnits="userSpaceOnUse"
       id="clipPath34">
      <path
         d="M 0,76.378 H 358.559 V 0.06 L 0,0.06 Z"
         transform="translate(-26.060001,-26.053001)"
         id="path34" />
    </clipPath>
  </defs>
  <sodipodi:namedview
     id="namedview1"
     pagecolor="#ffffff"
     bordercolor="#666666"
     borderopacity="1.0"
     inkscape:showpageshadow="2"
     inkscape:pageopacity="0.0"
     inkscape:pagecheckerboard="0"
     inkscape:deskcolor="#d1d1d1"
     inkscape:export-bgcolor="#ffffffff"
     inkscape:zoom="1.955745"
     inkscape:cx="239.03934"
     inkscape:cy="50.875752"
     inkscape:window-width="1920"
     inkscape:window-height="1017"
     inkscape:window-x="-8"
     inkscape:window-y="-8"
     inkscape:window-maximized="1"
     inkscape:current-layer="g1">
    <inkscape:page
       x="0"
       y="0"
       inkscape:label="1"
       id="page1"
       width="478.07867"
       height="101.83733"
       margin="0"
       bleed="0"
       inkscape:export-filename="St Vincent &amp; Grenadines Red Cross.png"
       inkscape:export-xdpi="300"
       inkscape:export-ydpi="300" />
  </sodipodi:namedview>
  <g
     id="g1"
     inkscape:groupmode="layer"
     inkscape:label="1">
    <g
       id="group-MC1">
      <path
         id="path2"
         d="m 0,0 h -2.683 c -0.014,0.134 -0.021,0.233 -0.021,0.297 -0.064,0.813 -0.244,1.324 -0.541,1.532 -0.297,0.209 -0.996,0.313 -2.099,0.313 -1.301,0 -2.151,-0.12 -2.55,-0.361 -0.4,-0.24 -0.599,-0.745 -0.599,-1.516 0,-0.911 0.162,-1.46 0.488,-1.643 0.324,-0.184 1.399,-0.326 3.223,-0.424 2.156,-0.121 3.55,-0.428 4.183,-0.923 0.633,-0.495 0.949,-1.524 0.949,-3.086 0,-1.922 -0.371,-3.165 -1.114,-3.727 -0.742,-0.562 -2.378,-0.843 -4.909,-0.843 -2.276,0 -3.787,0.276 -4.533,0.827 -0.746,0.552 -1.118,1.669 -1.118,3.351 l -0.011,0.53 h 2.672 l 0.011,-0.307 c 0,-1.011 0.176,-1.63 0.53,-1.856 0.353,-0.226 1.318,-0.339 2.894,-0.339 1.23,0 2.015,0.131 2.354,0.392 0.34,0.262 0.509,0.866 0.509,1.813 0,0.7 -0.129,1.165 -0.387,1.395 -0.258,0.229 -0.815,0.369 -1.67,0.419 l -1.516,0.095 c -2.29,0.134 -3.754,0.452 -4.39,0.954 -0.636,0.502 -0.954,1.58 -0.954,3.234 0,1.69 0.383,2.815 1.151,3.377 0.766,0.562 2.298,0.844 4.596,0.844 2.177,0 3.644,-0.259 4.4,-0.775 C -0.378,3.057 0,2.05 0,0.551 V 0"
         style="fill:#231f20;fill-opacity:1;fill-rule:nonzero;stroke:none"
         transform="matrix(1.3333333,0,0,-1.3333333,135.36133,32.524)" />
      <path
         id="path3"
         d="m 0,0 v -1.845 h -3.902 v -5.09 c 0,-0.94 0.357,-1.41 1.07,-1.41 0.785,0 1.178,0.569 1.178,1.707 v 0.403 h 2.067 v -0.509 c 0,-0.466 -0.014,-0.866 -0.042,-1.198 -0.135,-1.548 -1.287,-2.322 -3.457,-2.322 -2.163,0 -3.245,0.993 -3.245,2.98 v 5.439 H -7.646 V 0 h 1.315 v 2.27 h 2.429 V 0 L 0,0"
         style="fill:#231f20;fill-opacity:1;fill-rule:nonzero;stroke:none"
         transform="matrix(1.3333333,0,0,-1.3333333,146.99733,32.678667)" />
      <path
         id="path4"
         d="M 0,0 H 2.905 L -1.76,-14.474 H -5.98 L -10.604,0 h 2.853 l 2.714,-8.196 c 0.255,-0.785 0.633,-2.1 1.135,-3.945 h 0.074 l 0.276,0.986 c 0.339,1.23 0.629,2.213 0.869,2.948 L 0,0"
         style="fill:#231f20;fill-opacity:1;fill-rule:nonzero;stroke:none"
         transform="matrix(1.3333333,0,0,-1.3333333,169.024,26.896)" />
      <path
         id="path5"
         d="M -2.428,0 H 0 V -10.137 H -2.428 Z M 0,0 Z M -2.428,4.337 H 0 V 2.3116 h -2.428 z"
         style="fill:#231f20;fill-opacity:1;fill-rule:nonzero;stroke:none"
         transform="matrix(1.3333333,0,0,-1.3333333,177.63333,32.678667)" />
      <path
         id="path6"
         d="M 0,0 H 2.407 L 2.311,-1.707 2.364,-1.718 c 0.474,1.223 1.535,1.835 3.181,1.835 2.397,0 3.594,-1.117 3.594,-3.351 v -6.903 H 6.711 v 6.49 l -0.053,0.71 c -0.113,0.756 -0.707,1.135 -1.781,1.135 -1.633,0 -2.449,-0.775 -2.449,-2.323 v -6.012 H 0 V 0"
         style="fill:#231f20;fill-opacity:1;fill-rule:nonzero;stroke:none"
         transform="matrix(1.3333333,0,0,-1.3333333,180.81467,32.678667)" />
      <path
         id="path7"
         d="M 0,0 H 2.418 V -0.35 L 2.269,-1.887 c -0.296,-1.4 -1.746,-2.1 -4.347,-2.1 -1.908,0 -3.178,0.345 -3.807,1.034 -0.629,0.689 -0.943,2.077 -0.943,4.162 0,2.036 0.314,3.407 0.943,4.114 0.629,0.707 1.853,1.06 3.669,1.06 1.753,0 2.941,-0.256 3.563,-0.768 C 1.969,5.102 2.28,4.128 2.28,2.693 h -2.407 c 0,1.181 -0.683,1.771 -2.046,1.771 -0.969,0 -1.577,-0.187 -1.824,-0.562 -0.247,-0.375 -0.371,-1.294 -0.371,-2.756 0,-1.415 0.136,-2.303 0.408,-2.667 0.272,-0.365 0.938,-0.546 1.999,-0.546 0.834,0 1.369,0.125 1.606,0.376 C -0.118,-1.44 0,-0.876 0,0"
         style="fill:#231f20;fill-opacity:1;fill-rule:nonzero;stroke:none"
         transform="matrix(1.3333333,0,0,-1.3333333,204.77733,41.034667)" />
      <path
         id="path8"
         d="m 0,0 -0.011,0.403 c 0,0.806 -0.14,1.329 -0.419,1.569 -0.279,0.24 -0.885,0.361 -1.818,0.361 -0.904,0 -1.493,-0.145 -1.766,-0.435 C -4.285,1.608 -4.422,0.976 -4.422,0 Z m -0.022,-2.874 h 2.44 v -0.392 c 0,-1.979 -1.485,-2.969 -4.454,-2.969 -2.015,0 -3.333,0.343 -3.955,1.029 -0.622,0.685 -0.933,2.138 -0.933,4.358 0,1.972 0.325,3.297 0.976,3.976 0.65,0.679 1.919,1.018 3.806,1.018 1.81,0 3.022,-0.33 3.637,-0.992 0.615,-0.66 0.923,-1.96 0.923,-3.896 v -0.742 h -6.861 c -0.014,-0.227 -0.021,-0.375 -0.021,-0.446 0,-0.997 0.153,-1.661 0.461,-1.993 0.308,-0.332 0.921,-0.498 1.84,-0.498 0.89,0 1.47,0.096 1.739,0.291 0.269,0.195 0.402,0.613 0.402,1.256"
         style="fill:#231f20;fill-opacity:1;fill-rule:nonzero;stroke:none"
         transform="matrix(1.3333333,0,0,-1.3333333,219.11467,38.037333)" />
      <path
         id="path9"
         d="M 0,0 H 2.407 L 2.312,-1.707 2.365,-1.718 C 2.838,-0.495 3.899,0.117 5.546,0.117 7.943,0.117 9.14,-1 9.14,-3.234 v -6.903 H 6.712 v 6.49 l -0.053,0.71 c -0.113,0.756 -0.707,1.135 -1.781,1.135 -1.634,0 -2.45,-0.775 -2.45,-2.323 v -6.012 H 0 L 0,0"
         style="fill:#231f20;fill-opacity:1;fill-rule:nonzero;stroke:none"
         transform="matrix(1.3333333,0,0,-1.3333333,225.03733,32.678667)" />
      <path
         id="path10"
         d="m 0,0 v -1.845 h -3.901 v -5.09 c 0,-0.94 0.356,-1.41 1.07,-1.41 0.785,0 1.177,0.569 1.177,1.707 v 0.403 h 2.068 v -0.509 c 0,-0.466 -0.015,-0.866 -0.043,-1.198 -0.134,-1.548 -1.286,-2.322 -3.456,-2.322 -2.163,0 -3.245,0.993 -3.245,2.98 v 5.439 H -7.645 V 0 h 1.315 v 2.27 h 2.429 V 0 L 0,0"
         style="fill:#231f20;fill-opacity:1;fill-rule:nonzero;stroke:none"
         transform="matrix(1.3333333,0,0,-1.3333333,249.11467,32.678667)" />
      <path
         id="path11"
         d="m 0,0 c -1.068,-0.155 -1.601,-0.954 -1.601,-2.396 0,-1.117 0.18,-1.828 0.54,-2.131 0.362,-0.304 1.202,-0.456 2.525,-0.456 1.137,0 1.875,0.051 2.211,0.153 0.335,0.103 0.694,0.391 1.076,0.865 z M 5.429,0.053 H 7.783 V -0.413 L 7.762,-1.675 c 0,-0.608 -0.088,-1.255 -0.265,-1.941 L 9.575,-5.375 8.27,-6.956 6.532,-5.492 c -0.643,-1.04 -2.128,-1.559 -4.454,-1.559 -2.587,0 -4.282,0.297 -5.084,0.891 -0.803,0.594 -1.203,1.851 -1.203,3.774 0,2.171 0.919,3.39 2.757,3.659 -0.792,0.692 -1.188,1.562 -1.188,2.608 0,1.336 0.326,2.259 0.981,2.767 0.653,0.51 1.836,0.764 3.547,0.764 1.794,0 3.02,-0.26 3.673,-0.779 C 6.216,6.113 6.543,5.136 6.543,3.701 L 6.532,2.948 H 4.093 v 0.424 c 0,0.87 -0.119,1.416 -0.355,1.638 -0.237,0.223 -0.815,0.334 -1.734,0.334 -1.357,0 -2.035,-0.505 -2.035,-1.516 0,-0.686 0.353,-1.329 1.059,-1.93 l 4.401,-3.774 c 0.071,0.367 0.106,0.71 0.106,1.028 0,0.262 -0.035,0.562 -0.106,0.901"
         style="fill:#231f20;fill-opacity:1;fill-rule:nonzero;stroke:none"
         transform="matrix(1.3333333,0,0,-1.3333333,264.228,36.962667)" />
      <path
         id="path12"
         d="M 0,0 V -12.014 H -2.747 V 0 H -6.924 V 2.46 H 4.327 V 0 H 0"
         style="fill:#231f20;fill-opacity:1;fill-rule:nonzero;stroke:none"
         transform="matrix(1.3333333,0,0,-1.3333333,293.804,30.176)" />
      <path
         id="path13"
         d="m 0,0 v -6.012 l 0.054,-0.01 c 0.452,1.201 1.491,1.802 3.117,1.802 2.368,0 3.551,-1.121 3.551,-3.362 v -6.892 H 4.295 v 6.553 c 0,1.188 -0.605,1.782 -1.814,1.782 C 0.827,-6.139 0,-6.998 0,-8.716 v -5.758 H -2.428 V 0 H 0"
         style="fill:#231f20;fill-opacity:1;fill-rule:nonzero;stroke:none"
         transform="matrix(1.3333333,0,0,-1.3333333,304.56267,26.896)" />
      <path
         id="path14"
         d="m 0,0 -0.011,0.403 c 0,0.806 -0.139,1.329 -0.419,1.569 -0.279,0.24 -0.885,0.361 -1.818,0.361 -0.904,0 -1.493,-0.145 -1.766,-0.435 C -4.285,1.608 -4.422,0.976 -4.422,0 Z m -0.022,-2.874 h 2.44 v -0.392 c 0,-1.979 -1.484,-2.969 -4.454,-2.969 -2.015,0 -3.333,0.343 -3.955,1.029 -0.622,0.685 -0.933,2.138 -0.933,4.358 0,1.972 0.325,3.297 0.976,3.976 0.65,0.679 1.919,1.018 3.806,1.018 1.81,0 3.022,-0.33 3.637,-0.992 0.615,-0.66 0.923,-1.96 0.923,-3.896 v -0.742 h -6.86 c -0.015,-0.227 -0.022,-0.375 -0.022,-0.446 0,-0.997 0.153,-1.661 0.461,-1.993 0.308,-0.332 0.921,-0.498 1.84,-0.498 0.89,0 1.471,0.096 1.739,0.291 0.269,0.195 0.402,0.613 0.402,1.256"
         style="fill:#231f20;fill-opacity:1;fill-rule:nonzero;stroke:none"
         transform="matrix(1.3333333,0,0,-1.3333333,325.44533,38.037333)" />
      <path
         id="path15"
         d="m 0,0 h 6.372 l 0.043,-2.873 c 0,-2.093 -0.395,-3.441 -1.183,-4.046 -0.788,-0.604 -2.547,-0.907 -5.275,-0.907 -2.502,0 -4.161,0.404 -4.973,1.209 -0.814,0.806 -1.22,2.45 -1.22,4.931 0,3.167 0.163,5.168 0.488,6.001 0.403,1.018 1.014,1.704 1.834,2.058 0.821,0.353 2.213,0.53 4.178,0.53 2.573,0 4.235,-0.275 4.984,-0.822 C 5.997,5.533 6.372,4.319 6.372,2.438 H 3.593 C 3.544,3.386 3.337,3.974 2.973,4.204 2.609,4.434 1.696,4.549 0.233,4.549 -1.358,4.549 -2.368,4.351 -2.794,3.955 -3.222,3.559 -3.436,2.629 -3.436,1.166 l -0.011,-1.453 0.022,-1.855 c 0,-1.435 0.212,-2.349 0.635,-2.741 0.424,-0.392 1.407,-0.589 2.949,-0.589 1.498,0 2.45,0.166 2.857,0.499 0.406,0.332 0.61,1.117 0.61,2.354 l 0.01,0.594 H 0 V 0"
         style="fill:#231f20;fill-opacity:1;fill-rule:nonzero;stroke:none"
         transform="matrix(1.3333333,0,0,-1.3333333,346.3,35.930667)" />
      <path
         id="path16"
         d="M 0,0 H 2.428 L 2.28,-1.421 2.333,-1.431 c 0.579,1.06 1.491,1.59 2.735,1.59 1.781,0 2.672,-1.124 2.672,-3.372 v -0.71 H 5.45 c 0.028,0.276 0.042,0.456 0.042,0.541 0,1.081 -0.42,1.622 -1.262,1.622 -1.201,0 -1.802,-0.802 -1.802,-2.407 v -5.97 H 0 L 0,0"
         style="fill:#231f20;fill-opacity:1;fill-rule:nonzero;stroke:none"
         transform="matrix(1.3333333,0,0,-1.3333333,357.412,32.678667)" />
      <path
         id="path17"
         d="m 0,0 -0.011,0.403 c 0,0.806 -0.139,1.329 -0.419,1.569 -0.279,0.24 -0.884,0.361 -1.818,0.361 -0.904,0 -1.493,-0.145 -1.765,-0.435 C -4.285,1.608 -4.422,0.976 -4.422,0 Z m -0.021,-2.874 h 2.439 v -0.392 c 0,-1.979 -1.484,-2.969 -4.454,-2.969 -2.015,0 -3.333,0.343 -3.955,1.029 -0.622,0.685 -0.933,2.138 -0.933,4.358 0,1.972 0.326,3.297 0.976,3.976 0.65,0.679 1.919,1.018 3.807,1.018 1.809,0 3.021,-0.33 3.636,-0.992 0.616,-0.66 0.923,-1.96 0.923,-3.896 v -0.742 h -6.86 c -0.015,-0.227 -0.022,-0.375 -0.022,-0.446 0,-0.997 0.154,-1.661 0.461,-1.993 0.308,-0.332 0.921,-0.498 1.84,-0.498 0.891,0 1.471,0.096 1.739,0.291 0.269,0.195 0.403,0.613 0.403,1.256"
         style="fill:#231f20;fill-opacity:1;fill-rule:nonzero;stroke:none"
         transform="matrix(1.3333333,0,0,-1.3333333,378.264,38.037333)" />
      <path
         id="path18"
         d="M 0,0 H 2.407 L 2.311,-1.707 2.364,-1.718 c 0.473,1.223 1.534,1.835 3.181,1.835 2.397,0 3.594,-1.117 3.594,-3.351 v -6.903 H 6.711 v 6.49 l -0.052,0.71 c -0.114,0.756 -0.707,1.135 -1.782,1.135 -1.633,0 -2.45,-0.775 -2.45,-2.323 v -6.012 H 0 L 0,0"
         style="fill:#231f20;fill-opacity:1;fill-rule:nonzero;stroke:none"
         transform="matrix(1.3333333,0,0,-1.3333333,384.18933,32.678667)" />
      <path
         id="path19"
         d="m 0,0 c -1.371,0 -2.057,-0.474 -2.057,-1.421 0,-0.657 0.142,-1.088 0.424,-1.293 0.283,-0.206 0.877,-0.308 1.781,-0.308 1.478,0 2.217,0.498 2.217,1.495 C 2.365,-0.509 1.576,0 0,0 Z m -1.622,2.662 h -2.482 c 0,1.215 0.283,2.028 0.849,2.439 0.565,0.409 1.685,0.614 3.361,0.614 1.824,0 3.058,-0.251 3.7,-0.753 C 4.45,4.46 4.771,3.503 4.771,2.089 V -4.538 H 2.343 l 0.117,1.389 -0.064,0.01 C 1.93,-4.15 0.852,-4.655 -0.837,-4.655 c -2.453,0 -3.68,1.043 -3.68,3.128 0,2.107 1.255,3.16 3.764,3.16 1.676,0 2.693,-0.386 3.054,-1.155 h 0.042 v 1.643 c 0,0.792 -0.137,1.317 -0.413,1.574 -0.276,0.259 -0.841,0.387 -1.697,0.387 -1.237,0 -1.855,-0.473 -1.855,-1.42"
         style="fill:#231f20;fill-opacity:1;fill-rule:nonzero;stroke:none"
         transform="matrix(1.3333333,0,0,-1.3333333,405.06933,40.144)" />
      <path
         id="path20"
         d="m 0,0 c -0.905,0 -1.492,-0.193 -1.761,-0.578 -0.268,-0.385 -0.402,-1.214 -0.402,-2.486 0,-1.471 0.134,-2.418 0.402,-2.842 0.269,-0.425 0.87,-0.636 1.803,-0.636 0.975,0 1.599,0.208 1.872,0.625 0.271,0.417 0.408,1.378 0.408,2.884 0,1.244 -0.15,2.061 -0.451,2.45 C 1.57,-0.195 0.947,0 0,0 Z M 4.761,6.139 V -8.334 H 2.396 l 0.085,1.632 -0.043,0.011 c -0.473,-1.18 -1.506,-1.771 -3.095,-1.771 -1.606,0 -2.667,0.366 -3.187,1.098 -0.519,0.731 -0.779,2.218 -0.779,4.458 0,1.81 0.279,3.067 0.838,3.77 0.557,0.703 1.55,1.055 2.979,1.055 1.654,0 2.686,-0.523 3.096,-1.569 l 0.043,0.01 v 5.779 h 2.428"
         style="fill:#231f20;fill-opacity:1;fill-rule:nonzero;stroke:none"
         transform="matrix(1.3333333,0,0,-1.3333333,420.33867,35.082667)" />
      <path
         id="path21"
         d="M -2.428,0 H 0 V -10.137 H -2.428 Z M 0,0 Z M -2.428,4.337 H 0 V 2.3116 h -2.428 z"
         style="fill:#231f20;fill-opacity:1;fill-rule:nonzero;stroke:none"
         transform="matrix(1.3333333,0,0,-1.3333333,433.10533,32.678667)" />
      <path
         id="path22"
         d="M 0,0 H 2.407 L 2.311,-1.707 2.364,-1.718 c 0.474,1.223 1.534,1.835 3.182,1.835 2.396,0 3.593,-1.117 3.593,-3.351 v -6.903 H 6.712 v 6.49 l -0.053,0.71 c -0.113,0.756 -0.707,1.135 -1.781,1.135 -1.634,0 -2.45,-0.775 -2.45,-2.323 v -6.012 H 0 V 0"
         style="fill:#231f20;fill-opacity:1;fill-rule:nonzero;stroke:none"
         transform="matrix(1.3333333,0,0,-1.3333333,436.28667,32.678667)" />
      <path
         id="path23"
         d="m 0,0 -0.011,0.403 c 0,0.806 -0.139,1.329 -0.419,1.569 -0.279,0.24 -0.884,0.361 -1.818,0.361 -0.904,0 -1.493,-0.145 -1.766,-0.435 C -4.285,1.608 -4.422,0.976 -4.422,0 Z m -0.021,-2.874 h 2.439 v -0.392 c 0,-1.979 -1.484,-2.969 -4.454,-2.969 -2.015,0 -3.333,0.343 -3.955,1.029 -0.622,0.685 -0.933,2.138 -0.933,4.358 0,1.972 0.326,3.297 0.976,3.976 0.65,0.679 1.919,1.018 3.807,1.018 1.809,0 3.021,-0.33 3.636,-0.992 0.615,-0.66 0.923,-1.96 0.923,-3.896 v -0.742 h -6.86 c -0.015,-0.227 -0.022,-0.375 -0.022,-0.446 0,-0.997 0.154,-1.661 0.461,-1.993 0.308,-0.332 0.921,-0.498 1.84,-0.498 0.891,0 1.471,0.096 1.739,0.291 0.269,0.195 0.403,0.613 0.403,1.256"
         style="fill:#231f20;fill-opacity:1;fill-rule:nonzero;stroke:none"
         transform="matrix(1.3333333,0,0,-1.3333333,460.37733,38.037333)" />
      <path
         id="path24"
         d="m 0,0 h -2.376 c -0.013,0.085 -0.024,0.149 -0.031,0.191 -0.05,0.488 -0.189,0.791 -0.419,0.912 -0.229,0.12 -0.786,0.18 -1.67,0.18 -1.265,0 -1.898,-0.41 -1.898,-1.23 0,-0.558 0.111,-0.89 0.334,-0.997 0.223,-0.106 0.977,-0.191 2.264,-0.254 1.732,-0.085 2.859,-0.315 3.382,-0.689 0.524,-0.375 0.786,-1.142 0.786,-2.301 0,-1.237 -0.349,-2.095 -1.045,-2.572 -0.697,-0.477 -1.946,-0.716 -3.748,-0.716 -1.733,0 -2.916,0.216 -3.553,0.647 -0.636,0.432 -0.954,1.237 -0.954,2.418 v 0.254 h 2.523 c -0.035,-0.141 -0.056,-0.254 -0.063,-0.339 -0.099,-0.897 0.593,-1.346 2.078,-1.346 1.534,0 2.302,0.445 2.302,1.336 0,0.855 -0.482,1.282 -1.443,1.282 -2.17,0 -3.599,0.206 -4.289,0.616 -0.689,0.409 -1.034,1.261 -1.034,2.555 0,1.16 0.314,1.944 0.944,2.354 0.629,0.41 1.838,0.615 3.626,0.615 1.69,0 2.826,-0.198 3.409,-0.594 C -0.292,1.926 0,1.152 0,0"
         style="fill:#231f20;fill-opacity:1;fill-rule:nonzero;stroke:none"
         transform="matrix(1.3333333,0,0,-1.3333333,477.58267,36.397333)" />
      <path
         id="path25"
         d="M 0,0 H 4.719 C 5.963,0 6.811,0.189 7.264,0.567 7.715,0.945 7.941,1.658 7.941,2.704 7.941,4.012 7.773,4.863 7.438,5.259 7.103,5.655 6.383,5.853 5.281,5.853 H 0 Z M -1.633,-7.242 V 7.231 H 5.259 C 6.814,7.231 7.91,6.924 8.547,6.309 9.182,5.694 9.5,4.626 9.5,3.107 9.5,1.771 9.327,0.839 8.981,0.313 8.634,-0.214 7.974,-0.555 6.998,-0.711 V -0.742 C 8.533,-0.855 9.299,-1.789 9.299,-3.541 V -7.242 H 7.666 v 3.329 c 0,1.69 -0.731,2.535 -2.194,2.535 H 0 v -5.864 h -1.633"
         style="fill:#231f20;fill-opacity:1;fill-rule:nonzero;stroke:none"
         transform="matrix(1.3333333,0,0,-1.3333333,123.35867,65.256)" />
      <path
         id="path26"
         d="m 0,0 -0.011,0.477 c 0,1.096 -0.18,1.808 -0.541,2.137 -0.36,0.328 -1.138,0.493 -2.333,0.493 -1.201,0 -1.981,-0.193 -2.338,-0.578 C -5.58,2.144 -5.758,1.3 -5.758,0 Z m 0,-2.884 h 1.516 l 0.01,-0.371 c 0,-1.054 -0.319,-1.791 -0.959,-2.211 -0.64,-0.421 -1.762,-0.631 -3.367,-0.631 -1.866,0 -3.091,0.341 -3.674,1.023 -0.583,0.682 -0.875,2.116 -0.875,4.3 0,2.022 0.294,3.378 0.88,4.071 0.587,0.693 1.736,1.039 3.447,1.039 1.866,0 3.088,-0.3 3.668,-0.901 0.58,-0.6 0.87,-1.866 0.87,-3.796 v -0.795 h -7.295 c 0,-1.597 0.171,-2.615 0.514,-3.054 0.343,-0.438 1.143,-0.657 2.402,-0.657 1.194,0 1.97,0.104 2.327,0.313 C -0.179,-4.346 0,-3.896 0,-3.203 v 0.319"
         style="fill:#231f20;fill-opacity:1;fill-rule:nonzero;stroke:none"
         transform="matrix(1.3333333,0,0,-1.3333333,148.524,66.98)" />
      <path
         id="path27"
         d="m 0,0 c -1.097,0 -1.824,-0.253 -2.185,-0.758 -0.36,-0.506 -0.54,-1.529 -0.54,-3.07 0,-1.696 0.178,-2.812 0.535,-3.345 0.357,-0.534 1.097,-0.801 2.221,-0.801 1.223,0 2.018,0.267 2.386,0.801 0.367,0.533 0.551,1.694 0.551,3.483 0,1.449 -0.203,2.426 -0.609,2.932 C 1.952,-0.253 1.166,0 0,0 Z M 4.464,5.418 V -9.055 H 2.979 l 0.074,1.315 -0.042,0.01 c -0.467,-0.982 -1.552,-1.474 -3.255,-1.474 -1.556,0 -2.618,0.378 -3.187,1.135 -0.569,0.757 -0.854,2.167 -0.854,4.231 0,1.901 0.287,3.221 0.859,3.96 0.573,0.739 1.598,1.108 3.076,1.108 1.845,0 2.944,-0.477 3.297,-1.431 l 0.032,0.021 v 5.598 h 1.485"
         style="fill:#231f20;fill-opacity:1;fill-rule:nonzero;stroke:none"
         transform="matrix(1.3333333,0,0,-1.3333333,159.01467,62.838667)" />
      <path
         id="path28"
         d="m 0,0 h 1.623 v -0.551 c 0,-1.973 -0.336,-3.204 -1.008,-3.696 -0.672,-0.491 -2.361,-0.736 -5.069,-0.736 -2.424,0 -3.965,0.433 -4.623,1.298 -0.657,0.866 -0.986,2.904 -0.986,6.113 0,2.51 0.074,4.088 0.223,4.734 0.148,0.647 0.573,1.226 1.272,1.734 0.821,0.594 2.591,0.891 5.312,0.891 1.846,0 3.088,-0.286 3.729,-0.859 C 1.111,8.355 1.432,7.25 1.432,5.609 L 1.442,5.217 H -0.18 l -0.011,0.446 c 0,1.166 -0.19,1.915 -0.567,2.247 -0.379,0.333 -1.232,0.499 -2.56,0.499 -2.334,0 -3.758,-0.195 -4.274,-0.583 -0.516,-0.389 -0.774,-1.468 -0.774,-3.235 0,-4.064 0.173,-6.447 0.519,-7.146 0.347,-0.7 1.531,-1.05 3.552,-1.05 1.924,0 3.123,0.152 3.6,0.456 0.478,0.304 0.717,1.067 0.717,2.29 L 0,0"
         style="fill:#231f20;fill-opacity:1;fill-rule:nonzero;stroke:none"
         transform="matrix(1.3333333,0,0,-1.3333333,188.43467,68.465333)" />
      <path
         id="path29"
         d="M 0,0 H 1.484 L 1.336,-1.166 1.367,-1.198 c 0.587,0.954 1.556,1.431 2.906,1.431 1.866,0 2.799,-0.961 2.799,-2.884 l -0.01,-0.7 H 5.599 l 0.031,0.255 c 0.021,0.268 0.032,0.448 0.032,0.541 0,1.039 -0.566,1.558 -1.697,1.558 -1.653,0 -2.481,-1.021 -2.481,-3.064 v -6.076 H 0 L 0,0"
         style="fill:#231f20;fill-opacity:1;fill-rule:nonzero;stroke:none"
         transform="matrix(1.3333333,0,0,-1.3333333,193.15733,61.396)" />
      <path
         id="path30"
         d="m 0,0 c -1.315,0 -2.129,-0.214 -2.444,-0.642 -0.315,-0.427 -0.473,-1.542 -0.473,-3.345 0,-1.803 0.158,-2.917 0.473,-3.345 0.315,-0.428 1.129,-0.642 2.444,-0.642 1.322,0 2.14,0.214 2.455,0.642 0.314,0.428 0.471,1.542 0.471,3.345 0,1.803 -0.157,2.918 -0.471,3.345 C 2.14,-0.214 1.322,0 0,0 Z m 0,1.23 c 1.874,0 3.089,-0.325 3.648,-0.976 0.558,-0.65 0.837,-2.064 0.837,-4.241 0,-2.177 -0.279,-3.591 -0.837,-4.241 C 3.089,-8.879 1.874,-9.204 0,-9.204 c -1.867,0 -3.079,0.325 -3.637,0.976 -0.559,0.65 -0.838,2.064 -0.838,4.241 0,2.177 0.279,3.591 0.838,4.241 C -3.079,0.905 -1.867,1.23 0,1.23"
         style="fill:#231f20;fill-opacity:1;fill-rule:nonzero;stroke:none"
         transform="matrix(1.3333333,0,0,-1.3333333,210.08,62.838667)" />
      <path
         id="path31"
         d="m 0,0 h -1.485 c 0,0.707 -0.142,1.146 -0.429,1.315 -0.286,0.17 -1.023,0.254 -2.21,0.254 -1.104,0 -1.803,-0.09 -2.1,-0.27 C -6.521,1.119 -6.669,0.686 -6.669,0 c 0,-1.039 0.498,-1.583 1.495,-1.633 l 1.198,-0.063 1.516,-0.075 c 1.838,-0.091 2.757,-1.053 2.757,-2.884 0,-1.138 -0.304,-1.919 -0.912,-2.343 -0.608,-0.424 -1.721,-0.636 -3.34,-0.636 -1.661,0 -2.805,0.201 -3.43,0.604 -0.626,0.403 -0.938,1.142 -0.938,2.216 l 0.01,0.552 h 1.537 l 0.011,-0.478 c 0,-0.664 0.17,-1.108 0.509,-1.33 0.34,-0.223 1.008,-0.334 2.004,-0.334 1.223,0 2.027,0.116 2.412,0.35 0.386,0.233 0.578,0.721 0.578,1.463 0,1.067 -0.484,1.601 -1.452,1.601 -2.256,0 -3.738,0.191 -4.448,0.573 -0.711,0.381 -1.067,1.173 -1.067,2.375 0,1.138 0.282,1.896 0.844,2.274 0.562,0.378 1.681,0.567 3.356,0.567 C -1.343,2.799 0,1.99 0,0.371 V 0"
         style="fill:#231f20;fill-opacity:1;fill-rule:nonzero;stroke:none"
         transform="matrix(1.3333333,0,0,-1.3333333,229.61867,64.930667)" />
      <path
         id="path32"
         d="m 0,0 h -1.484 c 0,0.707 -0.143,1.146 -0.43,1.315 -0.286,0.17 -1.023,0.254 -2.21,0.254 -1.104,0 -1.803,-0.09 -2.1,-0.27 C -6.521,1.119 -6.669,0.686 -6.669,0 c 0,-1.039 0.498,-1.583 1.495,-1.633 l 1.198,-0.063 1.516,-0.075 c 1.838,-0.091 2.757,-1.053 2.757,-2.884 0,-1.138 -0.304,-1.919 -0.912,-2.343 -0.608,-0.424 -1.721,-0.636 -3.34,-0.636 -1.661,0 -2.805,0.201 -3.43,0.604 -0.626,0.403 -0.938,1.142 -0.938,2.216 l 0.01,0.552 h 1.538 l 0.01,-0.478 c 0,-0.664 0.17,-1.108 0.509,-1.33 0.34,-0.223 1.008,-0.334 2.004,-0.334 1.223,0 2.027,0.116 2.412,0.35 0.386,0.233 0.578,0.721 0.578,1.463 0,1.067 -0.484,1.601 -1.452,1.601 -2.256,0 -3.738,0.191 -4.448,0.573 -0.711,0.381 -1.067,1.173 -1.067,2.375 0,1.138 0.282,1.896 0.844,2.274 0.562,0.378 1.681,0.567 3.356,0.567 C -1.343,2.799 0,1.99 0,0.371 V 0"
         style="fill:#231f20;fill-opacity:1;fill-rule:nonzero;stroke:none"
         transform="matrix(1.3333333,0,0,-1.3333333,243.332,64.930667)" />
      <path
         id="path33"
         d="M 0,0 H -26.06 V 24.25 H 0 L -0.002,50.326 H 24.25 v -26.06 l -0.002,-0.01 H 50.309 V 0.004 H 24.248 l 0.002,0.003 v -26.06 H -0.002 V 0.007 L 0,0"
         style="fill:#ed192d;fill-opacity:1;fill-rule:nonzero;stroke:none"
         transform="matrix(1.3333333,0,0,-1.3333333,34.746667,67.1)"
         clip-path="url(#clipPath34)" />
    </g>
  </g>
</svg>
