<?xml version="1.0" encoding="UTF-8" standalone="no"?>
<!-- Created with Inkscape (http://www.inkscape.org/) -->

<svg
   width="177.03979mm"
   height="47.43626mm"
   viewBox="0 0 177.03979 47.43626"
   version="1.1"
   id="svg1"
   inkscape:export-filename="Japan RC horizontal.svg"
   inkscape:export-xdpi="300"
   inkscape:export-ydpi="300"
   xmlns:inkscape="http://www.inkscape.org/namespaces/inkscape"
   xmlns:sodipodi="http://sodipodi.sourceforge.net/DTD/sodipodi-0.dtd"
   xmlns="http://www.w3.org/2000/svg"
   xmlns:svg="http://www.w3.org/2000/svg">
  <sodipodi:namedview
     id="namedview1"
     pagecolor="#ffffff"
     bordercolor="#666666"
     borderopacity="1.0"
     inkscape:showpageshadow="2"
     inkscape:pageopacity="0.0"
     inkscape:pagecheckerboard="0"
     inkscape:deskcolor="#d1d1d1"
     inkscape:document-units="mm"
     inkscape:export-bgcolor="#ffffffff" />
  <defs
     id="defs1">
    <clipPath
       clipPathUnits="userSpaceOnUse"
       id="clipPath50">
      <path
         d="M 0.059998,634.315 H 501.905 V 0.06 H 0.059998 Z"
         transform="translate(-134.52501,-87.35)"
         id="path50" />
    </clipPath>
  </defs>
  <g
     inkscape:label="Layer 1"
     inkscape:groupmode="layer"
     id="layer1"
     transform="translate(-127,-158.22083)">
    <path
       id="path26"
       d="m 184.36732,174.61335 c 0.0335,1.137 -0.10407,2.83669 1.5367,2.83669 1.71661,0 1.8228,-1.47003 1.8228,-3.01061 v -8.54674 h 1.60972 v 9.50841 c 0,0.68545 -0.0138,3.39902 -3.48227,3.39902 -0.69885,0 -2.05175,-0.24624 -2.66417,-1.24354 -0.50518,-0.84173 -0.50518,-1.92864 -0.50518,-2.94323 h 1.6824"
       style="fill:#231f20;fill-opacity:1;fill-rule:nonzero;stroke:none;stroke-width:0.352777" />
    <path
       id="path27"
       d="m 196.55332,178.53695 h 1.57586 c -0.10548,-0.68192 -0.17357,-1.40018 -0.17357,-2.10115 v -4.25767 c 0,-1.48555 -0.5969,-2.6603 -2.87231,-2.6603 -1.87325,0 -2.92418,0.68192 -2.9965,2.6603 h 1.55928 c -0.0833,-0.92675 0.42192,-1.57551 1.38642,-1.57551 1.54022,0 1.52082,1.28023 1.48695,2.45357 -2.01224,-0.055 -4.63973,0.067 -4.63973,2.75096 0,1.6951 0.54257,2.90266 2.41512,2.90266 1.10137,0 1.78858,-0.43851 2.22461,-1.45274 h 0.0339 z m -0.0339,-4.39632 c 0.14006,2.85397 -0.9472,3.39937 -1.82209,3.39937 -0.96167,0 -1.38077,-0.77224 -1.38077,-1.63266 0,-1.87043 1.8362,-1.74943 3.20286,-1.76671"
       style="fill:#231f20;fill-opacity:1;fill-rule:nonzero;stroke:none;stroke-width:0.352777" />
    <path
       id="path28"
       d="m 202.14308,169.6914 h -1.43651 v 12.18847 h 1.43651 v -4.23722 h 0.0501 c 0.49177,0.70239 1.10454,1.06716 1.94557,1.06716 2.85079,0 2.92347,-2.53718 2.92347,-4.74557 0,-3.8869 -1.43651,-4.44641 -2.85645,-4.44641 -0.92851,0 -1.53987,0.40217 -2.02953,1.22449 h -0.0332 z m 1.66018,7.8486 c -1.59315,0 -1.66018,-1.87643 -1.66018,-3.05012 0,-1.34691 -0.16192,-3.7973 1.60973,-3.7973 1.80551,0 1.80551,1.94169 1.80551,3.27166 0,2.36467 -0.21166,3.57576 -1.75506,3.57576"
       style="fill:#231f20;fill-opacity:1;fill-rule:nonzero;stroke:none;stroke-width:0.352777" />
    <path
       id="path29"
       d="m 213.71949,178.53695 h 1.57021 c -0.10301,-0.68192 -0.17286,-1.40018 -0.17286,-2.10115 v -4.25767 c 0,-1.48555 -0.59231,-2.6603 -2.86738,-2.6603 -1.87819,0 -2.92946,0.68192 -2.99896,2.6603 h 1.55751 c -0.0847,-0.92675 0.42087,-1.57551 1.38571,-1.57551 1.53988,0 1.52577,1.28023 1.48661,2.45357 -2.01295,-0.055 -4.63938,0.067 -4.63938,2.75096 0,1.6951 0.54222,2.90266 2.42041,2.90266 1.10066,0 1.78294,-0.43851 2.21897,-1.45274 h 0.0392 z m -0.0392,-4.39632 c 0.13935,2.85397 -0.94509,3.39937 -1.81963,3.39937 -0.96379,0 -1.38359,-0.77224 -1.38359,-1.63266 0,-1.87043 1.83868,-1.74943 3.20322,-1.76671"
       style="fill:#231f20;fill-opacity:1;fill-rule:nonzero;stroke:none;stroke-width:0.352777" />
    <path
       id="path30"
       d="m 222.54281,178.53695 v -6.13128 c 0,-0.94474 -0.33196,-1.71309 -1.5561,-1.71309 -1.58256,0 -1.80587,1.39912 -1.80587,2.60667 v 5.2377 h -1.43686 v -7.00617 c 0,-0.61242 -0.0335,-1.2252 -0.0885,-1.83938 h 1.52541 v 1.13735 h 0.0667 c 0.5648,-0.99483 1.22979,-1.31092 2.36785,-1.31092 1.89159,0 2.36714,1.13736 2.36714,2.88784 v 6.13128 h -1.43969"
       style="fill:#231f20;fill-opacity:1;fill-rule:nonzero;stroke:none;stroke-width:0.352777" />
    <path
       id="path31"
       d="m 232.69681,174.57701 v -0.75247 c 0,-2.92312 -0.62618,-4.30671 -3.14713,-4.30671 -3.06846,0 -3.36514,2.13501 -3.36514,4.72616 0,3.90737 1.48766,4.46582 3.36514,4.46582 1.85632,0 3.06353,-0.89041 3.08011,-2.85292 h -1.57622 c -0.0501,0.89429 -0.5588,1.68311 -1.54234,1.68311 -1.12113,0 -1.784,-0.49248 -1.784,-2.96299 z m -4.96958,-1.08479 c 0.0169,-2.45392 0.76871,-2.8896 1.6824,-2.8896 1.05128,0 1.76918,0.31574 1.76918,2.8896 h -3.45158"
       style="fill:#231f20;fill-opacity:1;fill-rule:nonzero;stroke:none;stroke-width:0.352777" />
    <path
       id="path32"
       d="m 237.51576,178.70981 c -1.90606,0 -3.10268,-0.84067 -3.04659,-2.86985 h 1.62666 c 0,0.50553 0.0194,1.70004 1.47284,1.70004 0.86078,0 1.52295,-0.44204 1.52295,-1.35079 0,-1.57586 -4.41008,-1.6122 -4.41008,-4.25662 0,-0.92428 0.5588,-2.41476 3.04624,-2.41476 1.57127,0 2.92311,0.75212 2.80035,2.5019 h -1.5935 c 0.0169,-0.92534 -0.47449,-1.41711 -1.38536,-1.41711 -0.77152,0 -1.36137,0.41875 -1.36137,1.19345 0,1.55645 4.40761,1.51976 4.40761,4.21745 0,1.94522 -1.32962,2.69629 -3.07975,2.69629"
       style="fill:#231f20;fill-opacity:1;fill-rule:nonzero;stroke:none;stroke-width:0.352777" />
    <path
       id="path33"
       d="m 248.88579,174.57701 v -0.75247 c 0,-2.92312 -0.63183,-4.30671 -3.15913,-4.30671 -3.06282,0 -3.35915,2.13501 -3.35915,4.72616 0,3.90737 1.48696,4.46582 3.35915,4.46582 1.85879,0 3.06352,-0.89041 3.08575,-2.85292 h -1.57586 c -0.0561,0.89429 -0.55915,1.68311 -1.54305,1.68311 -1.11795,0 -1.78364,-0.49248 -1.78364,-2.96299 z m -4.97593,-1.08479 c 0.0173,-2.45392 0.76835,-2.8896 1.67745,-2.8896 1.05058,0 1.77165,0.31574 1.77165,2.8896 h -3.4491"
       style="fill:#231f20;fill-opacity:1;fill-rule:nonzero;stroke:none;stroke-width:0.352777" />
    <path
       id="path34"
       d="m 185.85075,189.08994 c 0.54257,0 1.78929,0.0702 1.90923,1.61219 0.14252,1.68028 0.0367,3.32634 0.48895,4.20406 h 1.6831 c -0.24588,-0.78811 -0.4191,-2.76684 -0.43673,-3.30941 -0.0885,-2.54318 -0.61419,-3.03248 -2.06799,-3.25896 v -0.036 c 1.49014,-0.25929 2.3114,-1.40052 2.3114,-2.89031 0,-1.57374 -0.78493,-3.1496 -3.02719,-3.1496 h -4.35927 v 12.64427 h 1.60937 v -5.81625 z m -1.88913,-5.42784 h 2.4317 c 1.24672,0 1.69968,1.01424 1.69968,1.92546 0,1.10384 -0.5588,2.09903 -1.71697,2.09903 h -2.41441 v -4.02449"
       style="fill:#231f20;fill-opacity:1;fill-rule:nonzero;stroke:none;stroke-width:0.352777" />
    <path
       id="path35"
       d="m 198.16587,190.9459 v -0.75247 c 0,-2.92277 -0.63183,-4.30671 -3.15278,-4.30671 -3.06352,0 -3.36515,2.13572 -3.36515,4.72898 0,3.9049 1.48978,4.4637 3.36515,4.4637 1.85597,0 3.06317,-0.89147 3.08046,-2.85362 h -1.57692 c -0.0526,0.89147 -0.55915,1.67958 -1.53741,1.67958 -1.12359,0 -1.78858,-0.48825 -1.78858,-2.95946 z m -4.97523,-1.08444 c 0.0166,-2.4511 0.76835,-2.8903 1.6824,-2.8903 1.04563,0 1.76671,0.31855 1.76671,2.8903 h -3.44911"
       style="fill:#231f20;fill-opacity:1;fill-rule:nonzero;stroke:none;stroke-width:0.352777" />
    <path
       id="path36"
       d="m 205.04645,186.95493 h -0.0504 c -0.49142,-0.70132 -1.10631,-1.06821 -1.94486,-1.06821 -2.85327,0 -2.9263,2.53788 -2.9263,4.74345 0,3.89043 1.43334,4.44923 2.85397,4.44923 0.92816,0 1.5427,-0.40252 2.03448,-1.22696 h 0.0332 v 1.05375 h 1.43439 v -12.64426 h -1.43439 z m 0,3.16936 c 0,1.7854 0,3.78107 -1.60902,3.78107 -1.80587,0 -1.80587,-1.923 -1.80587,-3.25579 0,-2.36432 0.20637,-3.59092 1.74978,-3.59092 1.59561,0 1.66511,1.89406 1.66511,3.06564"
       style="fill:#231f20;fill-opacity:1;fill-rule:nonzero;stroke:none;stroke-width:0.352777" />
    <path
       id="path37"
       d="m 217.33899,185.74455 c 0.0173,-0.71614 -0.0335,-1.43369 -0.36865,-1.83903 -0.3302,-0.40287 -1.08444,-0.54222 -1.41464,-0.54222 -1.33633,0 -1.86161,0.80504 -1.91171,0.9839 -0.0508,0.13617 -0.369,0.45261 -0.369,2.62396 v 3.37925 c 0,3.10269 1.01706,3.46851 2.26448,3.46851 0.48577,0 1.97273,-0.17286 1.99425,-2.64406 h 1.66123 c 0.0695,3.99168 -2.75025,3.99168 -3.57187,3.99168 -1.57692,0 -3.99168,-0.10372 -3.99168,-5.00945 v -3.56834 c 0,-3.5747 1.57656,-4.58964 4.064,-4.58964 2.49943,0 3.46569,1.29434 3.30658,3.74544 h -1.66299"
       style="fill:#231f20;fill-opacity:1;fill-rule:nonzero;stroke:none;stroke-width:0.352777" />
    <path
       id="path38"
       d="m 222.66346,187.39026 h 0.0356 c 0.59302,-1.34691 1.33068,-1.50354 2.72839,-1.50354 v 1.48978 c -0.25965,-0.0363 -0.50307,-0.0868 -0.77153,-0.0868 -1.5875,0 -1.99249,1.20474 -1.99249,2.39607 v 5.22041 h -1.43968 v -8.84591 h 1.43968 v 1.32998"
       style="fill:#231f20;fill-opacity:1;fill-rule:nonzero;stroke:none;stroke-width:0.352777" />
    <path
       id="path39"
       d="m 229.94973,195.0794 c 1.87255,0 3.35915,-0.5588 3.35915,-4.4637 0,-2.59326 -0.29562,-4.72898 -3.35915,-4.72898 -3.06634,0 -3.36267,2.13572 -3.36267,4.72898 0,3.9049 1.48413,4.4637 3.36267,4.4637 z m 0,-1.17404 c -1.49013,0 -1.85949,-1.03364 -1.85949,-3.90419 0,-2.41512 0.75283,-2.94252 1.85949,-2.94252 1.10138,0 1.85844,0.5274 1.85844,2.94252 0,2.87055 -0.37113,3.90419 -1.85844,3.90419"
       style="fill:#231f20;fill-opacity:1;fill-rule:nonzero;stroke:none;stroke-width:0.352777" />
    <path
       id="path40"
       d="m 238.02164,195.0794 c -1.91206,0 -3.10233,-0.84137 -3.04976,-2.86985 h 1.63265 c 0,0.50483 0.0134,1.69581 1.46685,1.69581 0.85866,0 1.52612,-0.43604 1.52612,-1.34691 0,-1.57691 -4.41643,-1.61255 -4.41643,-4.25661 0,-0.92534 0.56269,-2.41512 3.04695,-2.41512 1.57621,0 2.92382,0.75247 2.8007,2.50225 h -1.58997 c 0.0162,-0.92533 -0.47554,-1.41781 -1.3843,-1.41781 -0.77082,0 -1.36349,0.4191 -1.36349,1.19344 0,1.55681 4.41008,1.52118 4.41008,4.21782 0,1.94557 -1.33033,2.69698 -3.0794,2.69698"
       style="fill:#231f20;fill-opacity:1;fill-rule:nonzero;stroke:none;stroke-width:0.352777" />
    <path
       id="path41"
       d="m 245.61836,195.0794 c -1.91276,0 -3.10304,-0.84137 -3.04694,-2.86985 h 1.62948 c 0,0.50483 0.0138,1.69581 1.46755,1.69581 0.86113,0 1.5233,-0.43604 1.5233,-1.34691 0,-1.57691 -4.41043,-1.61255 -4.41043,-4.25661 0,-0.92534 0.55562,-2.41512 3.04341,-2.41512 1.57692,0 2.92347,0.75247 2.806,2.50225 h -1.5928 c 0.0138,-0.92533 -0.47483,-1.41781 -1.38571,-1.41781 -0.76588,0 -1.36454,0.4191 -1.36454,1.19344 0,1.55681 4.41008,1.52118 4.41008,4.21782 0,1.94557 -1.32963,2.69698 -3.0794,2.69698"
       style="fill:#231f20;fill-opacity:1;fill-rule:nonzero;stroke:none;stroke-width:0.352777" />
    <path
       id="path42"
       d="m 254.6403,191.09125 v 0.369 c 0,1.71274 1.08338,2.25778 2.11561,2.25778 1.28305,0 2.26095,-0.54504 2.26095,-2.04858 0,-2.80317 -5.67373,-2.48708 -5.67373,-6.28862 0,-2.24119 1.59279,-3.43182 3.71193,-3.43182 2.31352,0 3.60539,1.12042 3.50449,3.695 h -1.68239 c 0.0169,-1.38395 -0.41945,-2.29235 -1.94557,-2.29235 -0.96132,0 -1.94522,0.4893 -1.94522,1.85631 0,2.78342 5.67408,2.37808 5.67408,6.38881 0,2.66418 -1.83303,3.52178 -3.91901,3.52178 -3.73345,0.0335 -3.73345,-2.8194 -3.69464,-4.02731 h 1.5935"
       style="fill:#231f20;fill-opacity:1;fill-rule:nonzero;stroke:none;stroke-width:0.352777" />
    <path
       id="path43"
       d="m 265.93165,195.02966 c 1.88031,0 3.3655,-0.55915 3.3655,-4.4637 0,-2.5908 -0.29703,-4.72898 -3.3655,-4.72898 -3.06316,0 -3.35668,2.13818 -3.35668,4.72898 0,3.90455 1.48379,4.4637 3.35668,4.4637 z m 0,-1.17157 c -1.48766,0 -1.85631,-1.03364 -1.85631,-3.90737 0,-2.41441 0.75459,-2.9404 1.85631,-2.9404 1.10702,0 1.86126,0.52599 1.86126,2.9404 0,2.87373 -0.36901,3.90737 -1.86126,3.90737"
       style="fill:#231f20;fill-opacity:1;fill-rule:nonzero;stroke:none;stroke-width:0.352777" />
    <path
       id="path44"
       d="m 276.02039,188.8497 c 0.0346,-1.45627 -0.68191,-1.83939 -1.22343,-1.83939 -1.10702,0 -1.85526,0.526 -1.85526,2.94041 0,2.87373 0.36548,3.90736 1.85526,3.90736 0.3302,0 1.32997,-0.34995 1.27459,-1.94486 h 1.50883 c 0.0501,2.48779 -1.8027,3.11644 -2.78342,3.11644 -1.87748,0 -3.36515,-0.55915 -3.36515,-4.4637 0,-2.5908 0.30198,-4.72899 3.36515,-4.72899 1.76707,0 2.80353,1.03364 2.71639,3.01273 h -1.49296"
       style="fill:#231f20;fill-opacity:1;fill-rule:nonzero;stroke:none;stroke-width:0.352777" />
    <path
       id="path45"
       d="m 279.85579,182.21148 h 1.61008 v 1.5434 h -1.61008 z m 1.52577,12.64461 h -1.43651 v -8.84343 h 1.43651 z"
       style="fill:#231f20;fill-opacity:1;fill-rule:nonzero;stroke:none;stroke-width:0.352777" />
    <path
       id="path46"
       d="m 290.06554,190.89793 v -0.75459 c 0,-2.92383 -0.62901,-4.30636 -3.1496,-4.30636 -3.06917,0 -3.36233,2.13818 -3.36233,4.72898 0,3.90455 1.48978,4.4637 3.36233,4.4637 1.85525,0 3.06281,-0.88935 3.07939,-2.85115 h -1.5755 c -0.0508,0.89112 -0.55915,1.67958 -1.5427,1.67958 -1.1183,0 -1.78682,-0.49178 -1.78682,-2.96016 z m -4.97523,-1.08444 c 0.0226,-2.4511 0.77435,-2.89207 1.68593,-2.89207 1.05057,0 1.76671,0.31573 1.76671,2.89207 h -3.45264"
       style="fill:#231f20;fill-opacity:1;fill-rule:nonzero;stroke:none;stroke-width:0.352777" />
    <path
       id="path47"
       d="m 292.43303,186.01266 v -1.69933 l 1.43122,-0.64488 v 2.34421 h 1.92793 v 1.08479 h -1.92793 v 5.41055 c 0,0.56163 0,1.28024 1.31621,1.28024 0.10301,0 0.33232,-0.036 0.64558,-0.0702 v 1.10455 c -0.46672,0.0335 -0.94438,0.13935 -1.41428,0.13935 -1.36948,0 -1.97873,-0.56092 -1.97873,-1.57868 v -6.2858 h -1.4538 v -1.08479 h 1.4538"
       style="fill:#231f20;fill-opacity:1;fill-rule:nonzero;stroke:none;stroke-width:0.352777" />
    <path
       id="path48"
       d="m 300.33137,193.21003 h 0.0339 l 2.11772,-7.19737 h 1.55681 l -4.01003,12.18882 h -1.48731 l 1.00119,-3.34539 -2.99579,-8.84343 h 1.65911 l 2.12443,7.19737"
       style="fill:#231f20;fill-opacity:1;fill-rule:nonzero;stroke:none;stroke-width:0.352777" />
    <path
       id="path49"
       d="M 0,0 H -47.167 V 47.175 H -87.351 V 0 h -47.174 v -40.183 h 47.174 V -87.35 h 40.184 v 47.167 H 0 V 0"
       style="fill:#ed1c24;fill-opacity:1;fill-rule:nonzero;stroke:none"
       transform="matrix(0.35277776,0,0,-0.35277776,174.43627,174.86312)"
       clip-path="url(#clipPath50)" />
  </g>
</svg>
