<?xml version="1.0" encoding="UTF-8" standalone="no"?>
<!-- Created with Inkscape (http://www.inkscape.org/) -->

<svg
   width="77.758194mm"
   height="95.077835mm"
   viewBox="0 0 77.758194 95.077835"
   version="1.1"
   id="svg1"
   xmlns:inkscape="http://www.inkscape.org/namespaces/inkscape"
   xmlns:sodipodi="http://sodipodi.sourceforge.net/DTD/sodipodi-0.dtd"
   xmlns="http://www.w3.org/2000/svg"
   xmlns:svg="http://www.w3.org/2000/svg">
  <sodipodi:namedview
     id="namedview1"
     pagecolor="#ffffff"
     bordercolor="#666666"
     borderopacity="1.0"
     inkscape:showpageshadow="2"
     inkscape:pageopacity="0.0"
     inkscape:pagecheckerboard="0"
     inkscape:deskcolor="#d1d1d1"
     inkscape:document-units="mm"
     inkscape:export-bgcolor="#ffffffff" />
  <defs
     id="defs1" />
  <g
     inkscape:label="Layer 1"
     inkscape:groupmode="layer"
     id="layer1"
     transform="translate(-147.10833,-133.08542)">
    <path
       id="path2"
       d="m 217.91718,156.16097 h -22.89563 v -22.89916 h -19.50614 v 22.89916 h -22.89915 v 19.50614 h 22.89915 v 22.89563 h 19.50614 v -22.89563 h 22.89563 v -19.50614"
       style="fill:#ed1c24;fill-opacity:1;fill-rule:nonzero;stroke:#ee2329;stroke-width:0.352777;stroke-linecap:butt;stroke-linejoin:miter;stroke-miterlimit:4;stroke-dasharray:none;stroke-opacity:1" />
    <path
       id="path3"
       d="m 165.06049,211.73793 c 0.0215,0.72672 -0.066,1.81257 0.98248,1.81257 1.09644,0 1.16452,-0.93945 1.16452,-1.92334 v -5.46171 h 1.02835 v 6.07589 c 0,0.4378 -0.009,2.1717 -2.22497,2.1717 -0.44662,0 -1.31127,-0.15698 -1.70215,-0.7948 -0.32315,-0.53729 -0.32315,-1.23226 -0.32315,-1.88031 h 1.07492"
       style="fill:#231f20;fill-opacity:1;fill-rule:nonzero;stroke:none;stroke-width:0.352777" />
    <path
       id="path4"
       d="m 172.84735,214.24512 h 1.00718 c -0.0677,-0.43568 -0.11077,-0.89464 -0.11077,-1.34267 v -2.72027 c 0,-0.94968 -0.38206,-1.70004 -1.83586,-1.70004 -1.19662,0 -1.86831,0.43533 -1.91452,1.70004 h 0.9966 c -0.0536,-0.59267 0.26987,-1.00683 0.88582,-1.00683 0.9839,0 0.97155,0.81774 0.95003,1.56775 -1.28587,-0.0356 -2.96474,0.043 -2.96474,1.75718 0,1.08409 0.34643,1.85561 1.5434,1.85561 0.70344,0 1.143,-0.28045 1.42134,-0.92886 h 0.0215 z m -0.0215,-2.80917 c 0.0892,1.82386 -0.60536,2.17205 -1.16452,2.17205 -0.61418,0 -0.88194,-0.49353 -0.88194,-1.04316 0,-1.19521 1.17298,-1.11795 2.04646,-1.12889"
       style="fill:#231f20;fill-opacity:1;fill-rule:nonzero;stroke:none;stroke-width:0.352777" />
    <path
       id="path5"
       d="m 176.41923,208.59256 h -0.91793 v 7.78863 h 0.91793 v -2.70792 h 0.0321 c 0.31432,0.44908 0.7052,0.68262 1.24284,0.68262 1.82174,0 1.86831,-1.62172 1.86831,-3.03248 0,-2.48426 -0.91793,-2.84127 -1.82528,-2.84127 -0.59301,0 -0.98389,0.25682 -1.29645,0.78211 h -0.0215 z m 1.0608,5.01544 c -1.01812,0 -1.0608,-1.19874 -1.0608,-1.94874 0,-0.86078 -0.10337,-2.42676 1.0287,-2.42676 1.15358,0 1.15358,1.24072 1.15358,2.09091 0,1.51095 -0.13582,2.28459 -1.12148,2.28459"
       style="fill:#231f20;fill-opacity:1;fill-rule:nonzero;stroke:none;stroke-width:0.352777" />
    <path
       id="path6"
       d="m 183.81663,214.24512 h 1.0033 c -0.0656,-0.43568 -0.11007,-0.89464 -0.11007,-1.34267 v -2.72027 c 0,-0.94968 -0.37888,-1.70004 -1.83268,-1.70004 -1.20015,0 -1.87184,0.43533 -1.91629,1.70004 h 0.99483 c -0.0536,-0.59267 0.26952,-1.00683 0.88583,-1.00683 0.98389,0 0.97508,0.81774 0.95003,1.56775 -1.28588,-0.0356 -2.96475,0.043 -2.96475,1.75718 0,1.08409 0.34643,1.85561 1.54658,1.85561 0.70379,0 1.13947,-0.28045 1.41817,-0.92886 h 0.025 z m -0.025,-2.80917 c 0.0892,1.82386 -0.6036,2.17205 -1.16276,2.17205 -0.61595,0 -0.88406,-0.49353 -0.88406,-1.04316 0,-1.19521 1.17511,-1.11795 2.04682,-1.12889"
       style="fill:#231f20;fill-opacity:1;fill-rule:nonzero;stroke:none;stroke-width:0.352777" />
    <path
       id="path7"
       d="m 189.45472,214.24512 v -3.91795 c 0,-0.6036 -0.21273,-1.09467 -0.99483,-1.09467 -1.01071,0 -1.15359,0.89465 -1.15359,1.66582 v 3.3468 h -0.91828 v -4.4771 c 0,-0.39123 -0.0212,-0.78282 -0.0572,-1.17546 h 0.97543 v 0.72708 h 0.0427 c 0.36089,-0.63571 0.78599,-0.8375 1.51271,-0.8375 1.20932,0 1.51271,0.72637 1.51271,1.84503 v 3.91795 h -0.91969"
       style="fill:#231f20;fill-opacity:1;fill-rule:nonzero;stroke:none;stroke-width:0.352777" />
    <path
       id="path8"
       d="m 195.94301,211.715 v -0.48119 c 0,-1.8676 -0.40005,-2.75167 -2.01083,-2.75167 -1.9611,0 -2.15054,1.3642 -2.15054,3.01978 0,2.49661 0.95039,2.85397 2.15054,2.85397 1.18604,0 1.95721,-0.56938 1.96779,-1.8235 h -1.00718 c -0.0321,0.5715 -0.35701,1.07562 -0.98566,1.07562 -0.71614,0 -1.13983,-0.31503 -1.13983,-1.89301 z m -3.17571,-0.69321 c 0.0109,-1.5681 0.49142,-1.84644 1.07527,-1.84644 0.67204,0 1.13065,0.20144 1.13065,1.84644 h -2.20592"
       style="fill:#231f20;fill-opacity:1;fill-rule:nonzero;stroke:none;stroke-width:0.352777" />
    <path
       id="path9"
       d="m 199.02205,214.35589 c -1.21814,0 -1.98226,-0.53728 -1.94698,-1.83409 h 1.03964 c 0,0.32315 0.0127,1.0862 0.94121,1.0862 0.54998,0 0.97331,-0.28257 0.97331,-0.86289 0,-1.00718 -2.81799,-1.03011 -2.81799,-2.71992 0,-0.5909 0.35701,-1.54305 1.94663,-1.54305 1.0033,0 1.86796,0.48014 1.78929,1.59844 h -1.01812 c 0.0106,-0.59125 -0.30339,-0.90523 -0.88547,-0.90523 -0.49283,0 -0.86959,0.26741 -0.86959,0.76235 0,0.99449 2.81587,0.97155 2.81587,2.69488 0,1.24318 -0.84985,1.72331 -1.9678,1.72331"
       style="fill:#231f20;fill-opacity:1;fill-rule:nonzero;stroke:none;stroke-width:0.352777" />
    <path
       id="path10"
       d="m 206.28716,211.715 v -0.48119 c 0,-1.8676 -0.40393,-2.75167 -2.01824,-2.75167 -1.95757,0 -2.1463,1.3642 -2.1463,3.01978 0,2.49661 0.94967,2.85397 2.1463,2.85397 1.1878,0 1.95756,-0.56938 1.97167,-1.8235 h -1.00718 c -0.0356,0.5715 -0.35701,1.07562 -0.98601,1.07562 -0.71402,0 -1.13912,-0.31503 -1.13912,-1.89301 z m -3.17888,-0.69321 c 0.0106,-1.5681 0.49106,-1.84644 1.07138,-1.84644 0.67134,0 1.13242,0.20144 1.13242,1.84644 h -2.2038"
       style="fill:#231f20;fill-opacity:1;fill-rule:nonzero;stroke:none;stroke-width:0.352777" />
    <path
       id="path11"
       d="m 149.34424,222.34102 c 0.34642,0 1.143,0.0448 1.2199,1.03046 0.091,1.07351 0.0233,2.12514 0.31221,2.68605 h 1.07562 c -0.15734,-0.50376 -0.26811,-1.76812 -0.27869,-2.1149 -0.0572,-1.62525 -0.393,-1.93745 -1.32186,-2.08209 v -0.0233 c 0.95214,-0.16616 1.47743,-0.895 1.47743,-1.84679 0,-1.00542 -0.502,-2.0126 -1.93463,-2.0126 h -2.78589 v 8.07967 h 1.0287 v -3.71651 z m -1.20721,-3.46851 h 1.55363 c 0.79658,0 1.08621,0.6484 1.08621,1.23049 0,0.70555 -0.35737,1.34161 -1.09679,1.34161 h -1.54305 v -2.5721"
       style="fill:#231f20;fill-opacity:1;fill-rule:nonzero;stroke:none;stroke-width:0.352777" />
    <path
       id="path12"
       d="m 157.2133,223.5267 v -0.48013 c 0,-1.86831 -0.40358,-2.75237 -2.01471,-2.75237 -1.95757,0 -2.15018,1.36455 -2.15018,3.02154 0,2.4952 0.95179,2.85256 2.15018,2.85256 1.18604,0 1.95756,-0.56973 1.96814,-1.8235 h -1.00718 c -0.0339,0.56973 -0.35736,1.07315 -0.98213,1.07315 -0.71825,0 -1.143,-0.31221 -1.143,-1.89125 z m -3.17888,-0.69285 c 0.0106,-1.56634 0.49107,-1.84679 1.07491,-1.84679 0.66816,0 1.12889,0.20355 1.12889,1.84679 h -2.2038"
       style="fill:#231f20;fill-opacity:1;fill-rule:nonzero;stroke:none;stroke-width:0.352777" />
    <path
       id="path13"
       d="m 161.60997,220.97683 h -0.0321 c -0.31433,-0.44838 -0.70732,-0.68263 -1.24284,-0.68263 -1.82351,0 -1.86972,1.62172 -1.86972,3.03072 0,2.48602 0.91581,2.84338 1.82315,2.84338 0.59302,0 0.98602,-0.25717 1.30034,-0.78422 h 0.0212 v 0.67345 h 0.91652 v -8.07967 H 161.61 Z m 0,2.02494 c 0,1.14088 0,2.41618 -1.02835,2.41618 -1.15358,0 -1.15358,-1.22837 -1.15358,-2.08069 0,-1.51059 0.13194,-2.29446 1.11795,-2.29446 1.01953,0 1.06398,1.21073 1.06398,1.95897"
       style="fill:#231f20;fill-opacity:1;fill-rule:nonzero;stroke:none;stroke-width:0.352777" />
    <path
       id="path14"
       d="m 169.46492,220.20319 c 0.0106,-0.45756 -0.0215,-0.91581 -0.23601,-1.17511 -0.21061,-0.25717 -0.69286,-0.34643 -0.90382,-0.34643 -0.85372,0 -1.18921,0.51435 -1.22166,0.62865 -0.0318,0.0871 -0.23566,0.28928 -0.23566,1.67676 v 2.15935 c 0,1.98226 0.65017,2.21615 1.44709,2.21615 0.31045,0 1.26048,-0.11042 1.27494,-1.68945 h 1.0608 c 0.0448,2.55058 -1.75718,2.55058 -2.28247,2.55058 -1.00753,0 -2.55023,-0.0663 -2.55023,-3.20075 v -2.28036 c 0,-2.28423 1.00718,-2.93264 2.5968,-2.93264 1.59667,0 2.21439,0.82691 2.11243,2.39325 h -1.06221"
       style="fill:#231f20;fill-opacity:1;fill-rule:nonzero;stroke:none;stroke-width:0.352777" />
    <path
       id="path15"
       d="m 172.86711,221.25517 h 0.0229 c 0.37888,-0.86078 0.85019,-0.96097 1.74307,-0.96097 v 0.9518 c -0.16616,-0.0229 -0.32138,-0.0554 -0.49283,-0.0554 -1.01423,0 -1.27317,0.77012 -1.27317,1.5307 v 3.33622 h -0.92005 v -5.65255 h 0.92005 v 0.85019"
       style="fill:#231f20;fill-opacity:1;fill-rule:nonzero;stroke:none;stroke-width:0.352777" />
    <path
       id="path16"
       d="m 177.52307,226.1683 c 1.19627,0 2.1463,-0.35736 2.1463,-2.85256 0,-1.65699 -0.18909,-3.02154 -2.1463,-3.02154 -1.95933,0 -2.14877,1.36455 -2.14877,3.02154 0,2.4952 0.94827,2.85256 2.14877,2.85256 z m 0,-0.75035 c -0.95215,0 -1.18816,-0.66076 -1.18816,-2.49485 0,-1.54305 0.48084,-1.8803 1.18816,-1.8803 0.70344,0 1.18745,0.33725 1.18745,1.8803 0,1.83409 -0.23742,2.49485 -1.18745,2.49485"
       style="fill:#231f20;fill-opacity:1;fill-rule:nonzero;stroke:none;stroke-width:0.352777" />
    <path
       id="path17"
       d="m 182.68068,226.1683 c -1.22167,0 -1.98226,-0.53798 -1.94839,-1.83444 h 1.04281 c 0,0.32314 0.009,1.08409 0.93768,1.08409 0.54822,0 0.97508,-0.2787 0.97508,-0.86078 0,-1.00718 -2.82187,-1.03047 -2.82187,-2.71992 0,-0.59125 0.35913,-1.54305 1.94698,-1.54305 1.00718,0 1.86796,0.48049 1.78929,1.59844 h -1.016 c 0.0106,-0.5909 -0.30374,-0.90558 -0.88406,-0.90558 -0.49283,0 -0.87136,0.26811 -0.87136,0.7627 0,0.99484 2.81799,0.97155 2.81799,2.69523 0,1.24283 -0.8502,1.72331 -1.96815,1.72331"
       style="fill:#231f20;fill-opacity:1;fill-rule:nonzero;stroke:none;stroke-width:0.352777" />
    <path
       id="path18"
       d="m 187.53455,226.1683 c -1.22132,0 -1.98226,-0.53798 -1.94627,-1.83444 h 1.04104 c 0,0.32314 0.009,1.08409 0.93769,1.08409 0.54998,0 0.97331,-0.2787 0.97331,-0.86078 0,-1.00718 -2.81834,-1.03047 -2.81834,-2.71992 0,-0.59125 0.3556,-1.54305 1.94486,-1.54305 1.00754,0 1.86796,0.48049 1.79317,1.59844 h -1.01776 c 0.009,-0.5909 -0.30374,-0.90558 -0.88583,-0.90558 -0.48965,0 -0.87206,0.26811 -0.87206,0.7627 0,0.99484 2.81869,0.97155 2.81869,2.69523 0,1.24283 -0.85019,1.72331 -1.9685,1.72331"
       style="fill:#231f20;fill-opacity:1;fill-rule:nonzero;stroke:none;stroke-width:0.352777" />
    <path
       id="path19"
       d="m 193.29964,223.61984 v 0.23565 c 0,1.09467 0.69321,1.44286 1.35185,1.44286 0.82021,0 1.44498,-0.34819 1.44498,-1.3088 0,-1.79141 -3.62515,-1.58962 -3.62515,-4.01849 0,-1.43263 1.01777,-2.19322 2.37137,-2.19322 1.4792,0 2.30435,0.71614 2.23979,2.36114 h -1.07527 c 0.0106,-0.88442 -0.26776,-1.46509 -1.24283,-1.46509 -0.61454,0 -1.24319,0.31292 -1.24319,1.18675 0,1.77835 3.62585,1.51941 3.62585,4.08199 0,1.70251 -1.17193,2.25037 -2.50437,2.25037 -2.38584,0.0215 -2.38584,-1.80164 -2.36079,-2.57316 h 1.01776"
       style="fill:#231f20;fill-opacity:1;fill-rule:nonzero;stroke:none;stroke-width:0.352777" />
    <path
       id="path20"
       d="m 200.51501,226.1362 c 1.20191,0 2.15018,-0.35701 2.15018,-2.85221 0,-1.65558 -0.18909,-3.02189 -2.15018,-3.02189 -1.95721,0 -2.14489,1.36631 -2.14489,3.02189 0,2.4952 0.94827,2.85221 2.14489,2.85221 z m 0,-0.74824 c -0.95003,0 -1.18604,-0.66111 -1.18604,-2.49731 0,-1.54305 0.48225,-1.87855 1.18604,-1.87855 0.70697,0 1.18921,0.3355 1.18921,1.87855 0,1.8362 -0.2353,2.49731 -1.18921,2.49731"
       style="fill:#231f20;fill-opacity:1;fill-rule:nonzero;stroke:none;stroke-width:0.352777" />
    <path
       id="path21"
       d="m 206.96238,222.18721 c 0.0212,-0.93028 -0.43604,-1.1751 -0.78247,-1.1751 -0.70732,0 -1.18568,0.33549 -1.18568,1.87854 0,1.83621 0.23389,2.49731 1.18568,2.49731 0.21097,0 0.8502,-0.22331 0.81457,-1.24319 h 0.96414 c 0.0325,1.58962 -1.15182,1.99143 -1.77871,1.99143 -1.19979,0 -2.15018,-0.35701 -2.15018,-2.85221 0,-1.65558 0.19297,-3.02189 2.15018,-3.02189 1.12889,0 1.79141,0.66075 1.73602,1.92511 h -0.95355"
       style="fill:#231f20;fill-opacity:1;fill-rule:nonzero;stroke:none;stroke-width:0.352777" />
    <path
       id="path22"
       d="m 209.41242,217.94576 h 1.0287 v 0.98602 h -1.0287 z m 0.97543,8.07967 h -0.91828 v -5.65079 h 0.91828 z"
       style="fill:#231f20;fill-opacity:1;fill-rule:nonzero;stroke:none;stroke-width:0.352777" />
    <path
       id="path23"
       d="m 215.93669,223.49601 v -0.48189 c 0,-1.86796 -0.40217,-2.75202 -2.01295,-2.75202 -1.96109,0 -2.14842,1.36631 -2.14842,3.02189 0,2.4952 0.95215,2.85221 2.14842,2.85221 1.18568,0 1.95756,-0.56832 1.96815,-1.82174 h -1.00719 c -0.0321,0.56973 -0.35736,1.0735 -0.98566,1.0735 -0.71473,0 -1.14123,-0.31432 -1.14123,-1.89195 z m -3.17888,-0.69285 c 0.0141,-1.56598 0.49459,-1.84821 1.07668,-1.84821 0.67168,0 1.12853,0.20179 1.12853,1.84821 h -2.20521"
       style="fill:#231f20;fill-opacity:1;fill-rule:nonzero;stroke:none;stroke-width:0.352777" />
    <path
       id="path24"
       d="m 217.44905,220.37464 v -1.08621 l 0.91475,-0.41169 v 1.4979 h 1.23225 v 0.69285 h -1.23225 v 3.45758 c 0,0.35912 0,0.81809 0.84102,0.81809 0.066,0 0.21237,-0.0233 0.41275,-0.0448 v 0.70556 c -0.29845,0.0215 -0.6036,0.0896 -0.90382,0.0896 -0.87489,0 -1.2647,-0.35913 -1.2647,-1.0093 v -4.01673 h -0.92887 v -0.69285 h 0.92887"
       style="fill:#231f20;fill-opacity:1;fill-rule:nonzero;stroke:none;stroke-width:0.352777" />
    <path
       id="path25"
       d="m 222.49624,224.97345 h 0.0215 l 1.35361,-4.59881 h 0.99518 l -2.56293,7.78862 h -0.95038 l 0.63923,-2.13783 -1.91452,-5.65079 h 1.0608 l 1.35749,4.59881"
       style="fill:#231f20;fill-opacity:1;fill-rule:nonzero;stroke:none;stroke-width:0.352777" />
  </g>
</svg>
