<?xml version="1.0" encoding="UTF-8" standalone="no"?>
<!-- Generator: Adobe Illustrator 16.0.0, SVG Export Plug-In . SVG Version: 6.00 Build 0)  -->

<svg
   version="1.1"
   id="Layer_1"
   x="0px"
   y="0px"
   width="563.18701"
   height="563.18701"
   viewBox="0 0 563.18698 563.187"
   enable-background="new 0 0 595.28 841.89"
   xml:space="preserve"
   sodipodi:docname="Ukraine_RC_Logo.svg"
   inkscape:export-filename="Ukraine_RC_Logo.png"
   inkscape:export-xdpi="300"
   inkscape:export-ydpi="300"
   inkscape:version="1.3.2 (091e20e, 2023-11-25, custom)"
   xmlns:inkscape="http://www.inkscape.org/namespaces/inkscape"
   xmlns:sodipodi="http://sodipodi.sourceforge.net/DTD/sodipodi-0.dtd"
   xmlns="http://www.w3.org/2000/svg"
   xmlns:svg="http://www.w3.org/2000/svg"><defs
   id="defs58" /><sodipodi:namedview
   id="namedview58"
   pagecolor="#ffffff"
   bordercolor="#666666"
   borderopacity="1.0"
   inkscape:showpageshadow="2"
   inkscape:pageopacity="0.0"
   inkscape:pagecheckerboard="0"
   inkscape:deskcolor="#d1d1d1"
   inkscape:export-bgcolor="#ffffffff"
   inkscape:zoom="0.97518677"
   inkscape:cx="281.48454"
   inkscape:cy="400.43612"
   inkscape:window-width="1920"
   inkscape:window-height="1017"
   inkscape:window-x="-8"
   inkscape:window-y="-8"
   inkscape:window-maximized="1"
   inkscape:current-layer="Layer_1" />
<g
   id="g58"
   transform="translate(-16.61,-20.248)">
	<path
   fill-rule="evenodd"
   clip-rule="evenodd"
   fill="#fefdfd"
   d="m 579.797,583.435 c -187.729,0 -375.458,0 -563.187,0 0,-187.729 0,-375.458 0,-563.187 187.729,0 375.458,0 563.187,0 0,187.729 0,375.458 0,563.187 z M 508.282,301.831 C 508.487,185.876 414.114,91.827 298.387,91.713 182.584,91.598 88.165,185.626 88.072,301.694 87.98,417.357 181.893,511.915 298.1,511.967 414.228,512.02 508.506,417.625 508.282,301.831 Z"
   id="path1" />
	<path
   fill-rule="evenodd"
   clip-rule="evenodd"
   fill="#fd0101"
   d="M 508.282,301.831 C 508.506,417.625 414.227,512.02 298.099,511.968 181.892,511.915 87.98,417.358 88.072,301.695 88.164,185.627 182.584,91.599 298.387,91.714 c 115.727,0.112 210.1,94.161 209.895,210.117 z m -413.95,2.091 c 1.207,110.759 90.63,200.575 201.524,201.744 C 410.49,506.875 501.072,414.688 502.042,303.969 503.047,189.192 410.714,99.026 300.288,97.976 186.299,96.892 93.313,189.448 94.332,303.922 Z"
   id="path2" />
	<path
   fill-rule="evenodd"
   clip-rule="evenodd"
   fill="#fefdfd"
   d="M 94.332,303.922 C 93.313,189.448 186.299,96.892 300.289,97.976 410.715,99.026 503.048,189.192 502.043,303.969 501.073,414.688 410.491,506.875 295.857,505.666 184.962,504.498 95.539,414.682 94.332,303.922 Z m 203.805,135.365 c 76.365,-0.027 137.543,-61.378 137.495,-138.035 -0.047,-75.398 -61.803,-137.361 -138.47,-136.887 -74.714,0.461 -137.102,61.584 -136.427,138.836 0.652,74.74 61.578,136.165 137.402,136.086 z M 165.39,399.917 c -2.047,-2.702 -3.743,-5.296 -5.794,-7.57 -3.561,-3.949 -7.993,-4.328 -12.335,-1.35 -4.36,2.99 -5.676,7.014 -3.268,11.711 2.59,5.053 6.273,9.42 9.552,14.134 7.911,-5.522 15.585,-10.878 23.26,-16.235 -0.431,2.303 -1.268,4.203 -2.182,6.066 -3.211,6.548 -6.353,13.134 -9.737,19.591 -0.945,1.804 -0.698,2.895 0.684,4.086 0.564,0.486 1.083,1.045 1.539,1.636 0.966,1.252 1.85,1.626 3.538,0.863 5.399,-2.438 10.927,-4.594 16.406,-6.857 3.408,-1.407 6.817,-2.813 10.571,-4.361 -1.518,-1.6 -2.846,-2.792 -3.907,-4.187 -0.836,-1.098 -1.827,-1.177 -2.671,-0.536 -3.047,2.314 -5.039,0.943 -6.843,-1.663 -0.473,-0.683 -1.082,-1.309 -1.738,-1.819 -2.04,-1.585 -2.401,-3.301 -0.772,-5.432 0.727,-0.951 1.439,-2.132 0.227,-3.237 -3.298,-3.007 -5.807,-6.661 -8.377,-10.445 -2.806,1.928 -5.408,3.718 -8.153,5.605 z M 142.614,298.595 c 0.435,-4.443 0.895,-8.521 1.209,-12.611 0.157,-2.051 0.188,-4.133 0.031,-6.182 -0.277,-3.623 -2.266,-5.898 -5.679,-6.82 -3.381,-0.913 -6.266,0.116 -8.443,2.896 -0.34,0.435 -0.252,1.411 -1.299,1.226 -1.115,-2.652 -3.095,-4.072 -6.058,-4.106 -4.489,-0.052 -7.159,2.792 -7.652,8.253 -0.371,4.108 -0.744,8.217 -1.071,12.329 -0.063,0.794 -0.405,1.673 0.376,2.474 9.421,0.837 18.909,1.68 28.586,2.541 z m 50.691,138.397 c -4.13,-0.553 -6.829,0.957 -8.101,4.678 -1.039,3.04 -0.079,5.698 2.254,7.576 4.399,3.543 9.018,6.813 13.711,10.321 5.882,-8.108 11.549,-15.922 17.337,-23.901 -5.456,-3.484 -9.876,-7.753 -15.345,-10.481 -4.157,-2.075 -8.467,-0.671 -10.578,3.301 -1.499,2.821 -1.116,5.59 0.722,8.506 z m 26.888,-270.377 c 5.694,-2.844 11.369,-4.562 16.337,-7.75 4.312,-2.767 5.304,-6.58 2.979,-10.813 -1.602,-2.917 -4.234,-4.076 -7.528,-3.938 2.082,-4.049 2.036,-6.164 0.06,-8.886 -2.115,-2.915 -5.104,-3.215 -8.052,-2.236 -5.391,1.791 -10.481,4.352 -15.739,6.871 3.983,8.921 7.882,17.655 11.943,26.752 z m 132.154,312.047 c 2.339,-1.143 4.744,-0.975 6.59,-2.427 -2.693,-9.334 -5.353,-18.546 -8.047,-27.883 -0.98,0.323 -1.586,0.644 -2.218,0.709 -3.44,0.353 -5.01,2.149 -5.72,5.635 -1.089,5.351 -2.882,10.559 -4.618,16.676 -1.884,-6.397 -3.53,-11.994 -5.194,-17.645 -2.494,0.273 -4.532,1.077 -6.729,1.863 2.705,9.4 5.357,18.621 7.998,27.799 6.385,-0.906 6.42,-0.896 8.077,-6.464 1.503,-5.045 2.918,-10.115 4.372,-15.175 0.181,0.006 0.361,0.012 0.543,0.018 1.615,5.515 3.229,11.029 4.946,16.894 z M 148.932,375.586 c -6.073,2.753 -11.352,5.147 -16.939,7.68 1.5,2.116 1.48,4.513 3.112,6.269 8.897,-3.975 17.706,-7.91 26.48,-11.831 -0.415,-1.538 -1.459,-2.5 -1.543,-3.384 -0.313,-3.306 -2.622,-3.382 -4.977,-3.648 -4.002,-0.451 -8.012,-0.856 -11.995,-1.441 -1.593,-0.234 -3.324,-0.096 -5.092,-1.228 5.51,-2.473 10.75,-4.825 16.233,-7.285 -0.985,-2.186 -1.879,-4.17 -2.879,-6.392 -9.044,4.021 -17.851,7.937 -26.556,11.807 1.062,4.565 3.015,7.614 8.059,7.282 1.56,-0.103 3.159,0.335 4.736,0.555 3.499,0.488 6.995,0.994 11.361,1.616 z M 270.131,138.697 c -0.018,-9.963 -6.063,-17.146 -14.388,-17.097 -9.189,0.054 -15.833,6.112 -15.76,14.373 0.083,9.546 6.373,17 14.355,17.014 9.225,0.015 15.808,-5.942 15.793,-14.29 z M 150.692,252.535 c 0.552,-8.89 -7.563,-14.406 -17.094,-14.732 -8.051,-0.275 -13.921,6.667 -14.165,15.715 -0.251,9.345 9.079,14.367 16.729,14.484 8.527,0.13 14.447,-6.191 14.53,-15.467 z m 184.7,-119.965 c 0.105,-9.201 -5.61,-14.829 -15.15,-14.92 -8.868,-0.085 -14.658,6.332 -14.652,16.237 0.006,8.93 5.755,14.652 14.831,14.764 9.265,0.114 14.853,-5.889 14.971,-16.081 z m 24.788,19.325 c -0.089,7.636 7.207,14.333 15.682,14.395 7.859,0.058 15.034,-8.127 15.094,-17.218 0.049,-7.514 -7.168,-14.121 -15.541,-14.227 -7.914,-0.101 -15.13,7.975 -15.235,17.05 z M 243.713,455.172 c -0.045,-7.752 -7.245,-14.206 -15.815,-14.177 -9.087,0.031 -14.642,9.624 -14.742,17.41 -0.096,7.566 7.394,14.169 15.77,14.164 7.855,-0.003 14.841,-8.224 14.787,-17.397 z M 158.506,180.689 c 7.152,6.893 14.011,13.503 20.301,19.565 5.917,-5.32 11.664,-10.487 17.295,-15.551 -1.724,-1.873 -2.956,-3.211 -4.095,-4.449 -3.991,3.86 -7.85,7.593 -11.744,11.359 -1.361,-1.42 -2.696,-2.813 -4.205,-4.387 3.041,-3.202 6.225,-6.554 9.445,-9.945 -1.329,-1.42 -2.397,-2.816 -3.667,-3.519 -2.569,2.444 -5.054,4.698 -7.41,7.079 -2.641,2.667 -2.955,2.747 -5.467,0.16 -0.42,-0.433 -1.063,-0.813 -1.003,-1.583 -0.268,-0.273 -0.536,-0.546 -0.804,-0.818 3.975,-3.371 7.95,-6.741 12.054,-10.22 -1.866,-1.777 -3.18,-3.029 -4.615,-4.396 -5.447,5.658 -10.684,11.097 -16.085,16.705 z m 276.027,45.319 c 3.403,7.324 6.641,14.292 9.952,21.417 1.952,-0.917 3.513,-1.651 5.258,-2.471 -2.348,-5.127 -4.581,-10.005 -6.828,-14.915 1.921,-1.329 3.766,-2.016 5.776,-2.578 1.713,3.69 3.354,7.247 5.017,10.793 0.378,0.805 0.797,2.214 1.857,1.432 1.185,-0.874 2.93,-0.715 3.804,-2.168 -1.874,-4.16 -3.732,-8.285 -5.619,-12.473 1.706,-1.046 3.224,-2.081 5.163,-2.232 2.228,4.704 4.407,9.306 6.634,14.009 2.04,-0.313 3.57,-1.316 5.271,-2.26 -3.234,-7.005 -6.408,-13.878 -9.677,-20.959 -8.983,4.188 -17.652,8.229 -26.608,12.405 z m -78.805,221.367 c 4.594,8.607 9.139,17.123 13.765,25.791 2.065,-1.505 4.258,-1.966 5.899,-3.647 -1.598,-3.129 -3.175,-6.22 -4.833,-9.468 3.141,-1.663 6.008,-3.182 9.102,-4.819 1.458,2.714 2.916,5.204 4.146,7.803 0.702,1.481 1.533,1.784 2.805,0.902 1.345,-0.933 3.136,-1.191 4.25,-2.751 -4.52,-8.46 -9.021,-16.887 -13.623,-25.502 -1.483,0.798 -2.728,1.642 -4.096,2.157 -1.768,0.667 -1.885,1.375 -1.087,3.117 1.416,3.093 3.687,5.764 4.636,9.194 -2.969,1.565 -5.843,3.082 -8.918,4.704 -2.051,-3.761 -3.996,-7.327 -5.969,-10.941 -2.182,1.204 -4.31,1.943 -6.077,3.46 z M 292.6,128.095 c -3.672,0.186 -6.906,0.35 -10.308,0.522 -0.349,-3.689 -0.671,-7.097 -1.01,-10.67 -2.363,0.136 -4.466,0.256 -6.874,0.395 0.694,9.855 1.37,19.437 2.059,29.215 2.501,-0.207 4.723,0.024 6.992,-0.785 -0.306,-4.053 -0.599,-7.945 -0.907,-12.041 3.498,-0.737 6.83,-0.626 10.421,-0.813 0.332,4.189 0.646,8.157 0.984,12.431 1.905,-0.125 3.654,-0.245 5.404,-0.351 1.03,-0.063 1.5,-0.553 1.424,-1.623 -0.652,-9.145 -1.286,-18.292 -1.933,-27.536 -2.425,-0.216 -4.595,0.158 -6.957,0.422 0.235,3.606 0.457,7.031 0.705,10.834 z m 178.162,141.053 c 4.139,-1.612 6.574,-4.437 7.309,-8.668 1.721,-9.924 -6,-18.241 -15.943,-17.058 -3.357,0.4 -6.586,1.419 -9.512,3.208 -3.129,1.911 -5.144,4.645 -5.635,8.292 -0.569,4.229 0.4,8.229 2.564,11.867 2.629,4.418 7.446,6.283 12.368,4.91 -0.185,-0.884 -0.336,-1.788 -0.563,-2.672 -0.538,-2.092 -1.05,-3.896 -3.97,-4.027 -2.52,-0.112 -3.751,-2.305 -4.146,-4.687 -0.395,-2.38 0.058,-4.495 2.095,-6.178 2.826,-2.333 6.143,-3.165 9.633,-3.363 3.832,-0.219 6.192,1.795 7.077,5.416 0.783,3.206 -1.123,5.04 -3.25,6.672 0.634,2.164 0.862,4.234 1.973,6.288 z m -345.803,60.49 c -0.445,0.092 -0.908,0.131 -1.325,0.29 -0.517,0.196 -1.013,0.462 -1.488,0.75 -4.538,2.742 -5.703,7 -5.042,11.88 0.771,5.683 3.077,10.499 9.067,12.244 5.47,1.593 10.762,0.573 15.755,-2.061 4.329,-2.286 6.28,-6.053 6.34,-10.792 0.042,-3.323 -0.852,-6.517 -2.463,-9.421 -2.392,-4.312 -7.629,-6.537 -12.052,-5.12 0.482,2.028 0.968,4.075 1.432,6.029 4.9,1.132 6.516,2.574 6.893,6.011 0.315,2.873 -1.314,5.457 -4.587,7.02 -2.849,1.361 -5.885,1.942 -9.028,1.491 -2.762,-0.397 -4.558,-2.013 -5.303,-4.738 -0.711,-2.6 -0.267,-4.854 2.102,-6.407 0.771,-0.505 1.482,-0.981 1.146,-1.967 -0.569,-1.676 -0.403,-3.552 -1.447,-5.209 z M 419.464,161.953 c -1.017,4.485 -2.298,8.458 -2.723,12.52 -0.36,3.444 -2.149,4.218 -5.038,4.608 -4.491,0.607 -8.941,1.515 -13.886,2.378 1.648,1.735 3.015,3 4.169,4.434 1.204,1.497 2.395,1.826 4.361,1.374 2.745,-0.632 5.457,-1.736 8.656,-1.646 -0.82,3.198 -1.563,6.172 -2.356,9.133 -0.25,0.935 -0.463,1.737 0.351,2.578 1.475,1.525 2.839,3.158 4.678,5.228 2.734,-6.168 2.718,-12.187 4.692,-17.806 5.249,-0.967 10.547,-1.943 15.977,-2.943 -0.865,-1.942 -2.567,-2.8 -3.557,-4.226 -1.152,-1.663 -2.418,-1.806 -4.298,-1.288 -2.554,0.704 -5.115,1.649 -8.075,1.707 0.843,-3.035 1.571,-5.738 2.353,-8.426 0.269,-0.921 0.601,-1.79 -0.226,-2.601 -1.583,-1.558 -3.157,-3.124 -5.078,-5.024 z m 6.486,230.078 c 6.204,-0.974 11.68,-1.692 17.09,-2.749 2.24,-0.437 3.153,0.13 3.829,2.241 1.466,4.583 3.187,9.085 4.964,14.072 1.026,-1.761 1.729,-3.161 2.611,-4.438 1.212,-1.753 1.43,-3.344 0.432,-5.396 -1.611,-3.316 -2.825,-6.827 -4.377,-10.675 4.146,0.378 6.749,3.309 10.252,4.375 1.168,-1.842 2.368,-3.691 3.216,-6.037 -2.936,-1.567 -5.807,-3.045 -8.625,-4.616 -4.788,-2.669 -9.508,-5.464 -14.341,-8.048 -1.059,-0.566 -2.617,-1.715 -3.659,0.123 -0.81,1.427 -1.346,3.009 -2.066,4.665 3.864,2.2 7.605,4.329 12.08,6.876 -5.459,0.638 -10.008,1.163 -14.555,1.705 -1.181,0.141 -2.513,-0.026 -3.23,1.265 -1.126,2.022 -2.218,4.061 -3.621,6.637 z m 2.017,12.543 c -1.943,3.014 -4.578,5.204 -6.155,8.201 -2.317,4.403 -1.512,8.415 2.456,11.719 3.868,3.221 7.876,3.421 11.68,0.204 4.414,-3.733 7.553,-8.612 11.543,-13.057 -7.65,-6.415 -15.032,-12.604 -22.615,-18.963 -1.295,2.212 -3.288,3.428 -4.136,5.635 2.455,2.128 4.824,4.181 7.227,6.261 z m 3.077,-201.069 c 2.638,3.131 4.478,6.396 7.315,8.905 3.019,2.668 8.005,1.888 11.016,-0.409 3.856,-2.942 5.189,-6.177 3.549,-10.19 -2.355,-5.76 -6.828,-10.113 -10.321,-15.465 -8.015,5.82 -15.765,11.446 -23.578,17.119 1.032,2.175 2.43,3.87 4.064,5.684 2.631,-1.866 5.192,-3.683 7.955,-5.644 z M 197.947,170.276 c 2.863,-2.691 6.29,-4.217 8.681,-7.013 2.814,-3.291 2.877,-7.345 0.16,-11.371 -2.6,-3.852 -6.347,-5.293 -10.433,-3.604 -5.712,2.362 -10.168,6.678 -15.373,9.989 5.694,8.117 11.195,15.957 16.835,23.996 2.059,-1.429 3.862,-2.679 5.774,-4.006 -1.933,-2.738 -3.75,-5.31 -5.644,-7.991 z m 190.342,258.987 c 0.075,0.86 0.604,0.949 0.996,1.161 7.562,4.092 15.251,7.969 22.63,12.366 2.866,1.708 4.466,1.17 6.607,-0.846 1.552,-1.46 2.155,-2.61 1.296,-4.722 -2.183,-5.358 -4.096,-10.826 -6.175,-16.228 -1.292,-3.356 -2.229,-6.867 -4.109,-10.313 -1.852,1.692 -3.896,2.947 -4.975,4.773 -0.667,1.13 0.819,2.886 1.437,4.322 0.327,0.759 0.051,1.181 -0.525,1.659 -1.075,0.891 -2.056,1.895 -3.113,2.807 -3.851,3.322 -3.855,3.313 -8.42,0.788 -0.146,-0.081 -0.336,-0.084 -0.663,-0.16 -1.664,1.466 -3.39,2.988 -4.986,4.393 z M 452.56,326.559 c 0.517,-0.045 0.894,-0.016 1.232,-0.117 8.055,-2.41 16.12,-4.788 24.152,-7.273 4.874,-1.508 4.78,-1.586 4.915,-6.768 0.034,-1.313 -0.527,-1.878 -1.508,-2.323 -6.965,-3.165 -13.925,-6.338 -20.906,-9.465 -1.912,-0.856 -3.663,-2.189 -6.031,-2.313 -0.177,1.792 -0.272,3.468 -0.527,5.119 -0.19,1.231 0.196,2.109 1.366,2.34 3.878,0.765 4.491,3.181 3.613,6.566 -0.276,1.069 -0.276,2.24 -0.227,3.355 0.079,1.753 -0.78,2.709 -2.402,2.798 -3.073,0.167 -3.926,1.911 -3.693,4.653 0.094,1.104 0.016,2.222 0.016,3.428 z m 23.243,27.884 c -0.814,-0.731 -1.565,-0.335 -2.269,-0.266 -6.438,0.641 -12.873,1.302 -19.309,1.962 -2.692,0.276 -3.854,-1.031 -3.127,-3.653 0.29,-1.044 0.821,-2.021 1.273,-3.101 -1.733,-0.74 -3.355,-1.64 -5.172,-1.8 -4.196,5.664 -3.945,10.074 0.941,14.754 5.397,5.169 10.905,10.223 16.356,15.334 0.528,0.495 0.883,1.249 1.834,1.081 0.9,-0.9 0.867,-2.235 1.457,-3.287 1.211,-2.159 1.051,-3.746 -1.229,-5.362 -2.954,-2.094 -5.538,-4.711 -8.683,-7.453 2.723,-0.201 4.775,-0.36 6.829,-0.503 2.151,-0.149 4.304,-0.298 6.457,-0.419 1.045,-0.06 2.052,-0.048 2.483,-1.326 0.684,-2.021 1.449,-4.011 2.159,-5.961 z M 139.422,206.538 c 2.761,1.99 5.233,3.822 7.757,5.579 4.21,2.931 6.981,2.575 10.662,-1.044 2.267,-2.228 3.565,-5.171 5.754,-7.678 3.17,2.26 6.195,4.417 9.267,6.606 1.807,-1.548 2.767,-3.605 4.337,-5.498 -7.94,-5.763 -15.836,-11.494 -23.886,-17.336 -1.183,2.228 -2.953,3.651 -3.694,5.936 3.004,2.229 5.979,4.437 9.124,6.771 -0.822,1.25 -1.5,2.351 -2.248,3.403 -2.556,3.594 -4.15,3.888 -7.658,1.42 -1.731,-1.218 -3.291,-2.699 -5.412,-3.626 -1.318,1.798 -2.577,3.518 -4.003,5.467 z m 313.859,84.202 c 7.826,-0.648 15.433,-1.278 23.111,-1.915 0.84,2.86 0.656,5.686 1.117,8.498 1.91,0.017 3.658,0.132 5.657,-0.52 -0.699,-8.081 -1.396,-16.136 -2.107,-24.374 -2.146,0.31 -3.944,-0.078 -5.773,0.895 0.255,2.674 0.508,5.347 0.796,8.379 -7.856,0.723 -15.55,1.43 -23.518,2.164 0.246,2.344 0.463,4.438 0.717,6.873 z m -340.166,11.858 c 0.554,8.021 1.106,16.009 1.657,23.987 1.969,0 3.706,0 5.543,0 0,-3.056 0,-5.9 0,-8.824 7.72,-0.557 15.26,-1.102 22.881,-1.652 0.19,-2.45 -0.137,-4.621 -0.515,-6.96 -7.788,0.537 -15.404,1.06 -23.223,1.599 -0.218,-3.08 -0.413,-5.843 -0.619,-8.751 -1.999,0.018 -3.748,-0.023 -5.724,0.601 z m 145.368,173.565 c 1.184,-7.695 3.789,-14.863 5.261,-22.188 -1.562,-1.079 -3.149,-0.965 -4.526,-1.484 -1.675,-0.632 -2.349,-0.117 -2.702,1.586 -0.702,3.387 -1.558,6.743 -2.41,10.097 -0.885,3.486 -1.841,6.955 -2.733,10.307 -3.098,-0.062 -5.552,-1.584 -8.411,-1.525 -0.737,1.744 -1.286,3.473 -1.139,5.43 7.893,1.966 15.65,3.896 23.503,5.853 0.511,-1.931 0.958,-3.616 1.401,-5.29 -2.642,-1.568 -5.674,-1.256 -8.244,-2.786 z m 92.025,-345.496 c 4.187,1.319 7.991,2.519 11.75,3.703 1.176,-1.798 1.425,-3.531 1.822,-5.471 -6.187,-1.999 -12.262,-3.962 -18.485,-5.974 -3.067,9.439 -6.032,18.565 -8.994,27.678 2.163,1.142 4.317,1.616 6.615,2.3 2.443,-7.451 4.827,-14.717 7.292,-22.236 z m 30.388,302.785 c 5.356,8.258 10.605,16.349 15.885,24.486 2.203,-1.179 4.108,-2.258 5.845,-3.938 -5.283,-8.128 -10.501,-16.155 -15.833,-24.356 -2.038,1.315 -3.816,2.464 -5.897,3.808 z m -82.578,46.43 c 3.49,-0.049 6.141,-2.793 6.08,-6.294 -0.06,-3.452 -2.85,-6.146 -6.313,-6.098 -3.418,0.049 -6.146,2.89 -6.078,6.329 0.071,3.505 2.786,6.113 6.311,6.063 z m 95.317,-16.909 c 0.76,1.725 1.491,3.159 2.909,4.173 1.644,-1.242 3.508,-1.957 4.955,-3.55 -0.848,-1.315 -1.687,-2.615 -2.627,-4.074 -1.838,1.211 -3.509,2.311 -5.237,3.451 z m 9.885,-6.417 c 0.591,1.664 1.579,2.849 2.562,4.226 1.919,-1.054 3.737,-2.024 5.271,-3.656 -0.87,-1.329 -1.665,-2.543 -2.466,-3.766 -2.093,0.675 -3.516,2.028 -5.367,3.196 z"
   id="path3" />
	<path
   fill-rule="evenodd"
   clip-rule="evenodd"
   fill="#fd0101"
   d="m 298.137,439.287 c -75.824,0.079 -136.75,-61.346 -137.402,-136.085 -0.674,-77.252 61.713,-138.375 136.427,-138.836 76.667,-0.474 138.423,61.489 138.47,136.887 0.048,76.656 -61.13,138.006 -137.495,138.034 z m 0.106,-268.685 c -72.167,0.122 -131.266,58.376 -131.258,131.272 0.008,72.523 58.84,131.244 131.236,131.17 72.854,-0.074 131.134,-58.921 131.166,-131.112 0.032,-72.39 -58.304,-131.025 -131.144,-131.33 z"
   id="path4" />
	<path
   fill-rule="evenodd"
   clip-rule="evenodd"
   fill="#fd0101"
   d="m 165.39,399.917 c 2.745,-1.888 5.347,-3.677 8.151,-5.605 2.57,3.784 5.079,7.438 8.377,10.445 1.212,1.105 0.5,2.286 -0.227,3.237 -1.629,2.131 -1.267,3.847 0.772,5.432 0.656,0.51 1.266,1.136 1.738,1.819 1.804,2.606 3.795,3.977 6.843,1.663 0.844,-0.641 1.835,-0.562 2.671,0.536 1.061,1.395 2.389,2.586 3.907,4.187 -3.753,1.548 -7.163,2.954 -10.571,4.361 -5.479,2.264 -11.006,4.419 -16.406,6.857 -1.688,0.763 -2.571,0.389 -3.538,-0.863 -0.456,-0.591 -0.974,-1.149 -1.539,-1.636 -1.382,-1.191 -1.629,-2.282 -0.684,-4.086 3.384,-6.457 6.526,-13.042 9.737,-19.591 0.914,-1.863 1.751,-3.763 2.182,-6.066 -7.674,5.356 -15.349,10.713 -23.26,16.235 -3.279,-4.714 -6.962,-9.081 -9.552,-14.134 -2.408,-4.698 -1.092,-8.721 3.268,-11.711 4.343,-2.978 8.774,-2.599 12.335,1.35 2.053,2.275 3.749,4.869 5.796,7.57 z m -4.973,3.501 c -1.443,-2.307 -2.639,-4.311 -4.328,-5.933 -1.541,-1.479 -3.186,-1.295 -4.783,0.014 -1.475,1.209 -2.097,2.6 -1.004,4.391 1.208,1.979 2.438,3.94 4.125,5.71 1.952,-1.363 3.847,-2.686 5.99,-4.182 z m 12.003,21.358 c 0.203,0.148 0.405,0.296 0.607,0.444 3.055,-1.403 6.11,-2.808 9.381,-4.311 -1.792,-1.865 -3.085,-3.674 -5.063,-5.002 -1.682,3.03 -3.303,5.949 -4.925,8.869 z"
   id="path5" />
	<path
   fill-rule="evenodd"
   clip-rule="evenodd"
   fill="#fd0101"
   d="m 142.614,298.595 c -9.677,-0.861 -19.165,-1.705 -28.585,-2.542 -0.781,-0.8 -0.439,-1.679 -0.376,-2.474 0.327,-4.112 0.7,-8.22 1.071,-12.329 0.493,-5.461 3.163,-8.305 7.652,-8.253 2.962,0.034 4.942,1.454 6.058,4.106 1.047,0.186 0.958,-0.791 1.299,-1.226 2.177,-2.78 5.062,-3.809 8.443,-2.896 3.413,0.921 5.402,3.197 5.679,6.82 0.157,2.049 0.126,4.131 -0.031,6.182 -0.315,4.091 -0.775,8.169 -1.21,12.612 z m -5.098,-7.602 c 0.24,-2.605 0.593,-4.996 0.64,-7.393 0.037,-1.845 -0.88,-3.231 -2.92,-3.461 -1.956,-0.221 -3.054,0.923 -3.334,2.636 -0.412,2.526 -0.536,5.099 -0.789,7.716 2.33,0.182 4.248,0.333 6.403,0.502 z m -17.491,-1.526 c 2.037,0.009 3.722,0.761 5.632,0.156 0.136,-2.044 0.295,-3.99 0.387,-5.939 0.085,-1.797 -0.524,-3.187 -2.534,-3.375 -2.07,-0.195 -2.827,1.245 -3.054,2.927 -0.262,1.935 -0.282,3.903 -0.431,6.231 z"
   id="path6" />
	<path
   fill-rule="evenodd"
   clip-rule="evenodd"
   fill="#fd0101"
   d="m 193.305,436.992 c -1.837,-2.916 -2.22,-5.685 -0.721,-8.507 2.111,-3.972 6.42,-5.376 10.578,-3.301 5.469,2.729 9.889,6.997 15.345,10.481 -5.788,7.979 -11.456,15.793 -17.337,23.901 -4.693,-3.509 -9.312,-6.778 -13.711,-10.321 -2.333,-1.878 -3.293,-4.536 -2.254,-7.576 1.271,-3.72 3.969,-5.23 8.1,-4.677 z m 16.022,-0.657 c -2.132,-1.53 -4.046,-2.993 -6.051,-4.315 -1.583,-1.044 -3.126,-1.038 -4.461,0.585 -1.421,1.729 -0.753,3.211 0.627,4.384 1.887,1.605 3.954,3 6.048,4.562 1.302,-1.77 2.456,-3.34 3.837,-5.216 z m -7.073,9.756 c -2.065,-1.503 -3.816,-2.888 -5.681,-4.1 -1.399,-0.908 -2.749,-0.461 -3.722,0.799 -0.942,1.221 -0.729,2.409 0.386,3.492 1.674,1.628 3.645,2.826 5.692,4.247 1.077,-1.436 2.077,-2.771 3.325,-4.438 z"
   id="path7" />
	<path
   fill-rule="evenodd"
   clip-rule="evenodd"
   fill="#fd0101"
   d="m 220.193,166.615 c -4.061,-9.097 -7.96,-17.831 -11.943,-26.753 5.258,-2.519 10.349,-5.08 15.739,-6.871 2.948,-0.979 5.938,-0.679 8.052,2.236 1.976,2.722 2.022,4.837 -0.06,8.886 3.294,-0.138 5.926,1.021 7.528,3.938 2.325,4.234 1.333,8.046 -2.979,10.813 -4.968,3.189 -10.643,4.907 -16.337,7.751 z m 4.051,-8.293 c 2.375,-1.051 4.513,-1.923 6.582,-2.937 1.795,-0.88 2.73,-2.377 1.881,-4.334 -0.793,-1.828 -2.364,-2.207 -4.214,-1.532 -2.308,0.842 -4.634,1.638 -6.817,3.093 0.819,1.821 1.608,3.574 2.568,5.71 z m -4.636,-10.972 c 2.235,-1.072 4.291,-1.958 6.245,-3.031 1.315,-0.722 1.793,-2.102 1.053,-3.375 -0.715,-1.228 -1.705,-2.137 -3.58,-1.395 -2.073,0.82 -4.094,1.69 -6.2,2.749 0.546,1.284 1.033,2.482 1.568,3.658 0.187,0.411 0.496,0.766 0.914,1.394 z"
   id="path8" />
	<path
   fill-rule="evenodd"
   clip-rule="evenodd"
   fill="#fd0101"
   d="m 352.347,478.662 c -1.717,-5.864 -3.331,-11.379 -4.946,-16.894 -0.182,-0.006 -0.362,-0.012 -0.543,-0.018 -1.454,5.06 -2.869,10.13 -4.372,15.175 -1.657,5.567 -1.692,5.558 -8.077,6.464 -2.641,-9.178 -5.293,-18.398 -7.998,-27.799 2.197,-0.786 4.235,-1.59 6.729,-1.863 1.664,5.65 3.311,11.247 5.194,17.645 1.736,-6.117 3.529,-11.325 4.618,-16.676 0.71,-3.485 2.279,-5.282 5.72,-5.635 0.632,-0.065 1.237,-0.386 2.218,-0.709 2.694,9.337 5.354,18.549 8.047,27.883 -1.846,1.452 -4.251,1.284 -6.59,2.427 z"
   id="path9" />
	<path
   fill-rule="evenodd"
   clip-rule="evenodd"
   fill="#fd0101"
   d="m 148.932,375.586 c -4.365,-0.622 -7.862,-1.127 -11.361,-1.615 -1.577,-0.219 -3.176,-0.658 -4.736,-0.555 -5.044,0.332 -6.997,-2.717 -8.059,-7.282 8.706,-3.871 17.512,-7.786 26.556,-11.807 1,2.221 1.895,4.206 2.879,6.392 -5.483,2.46 -10.724,4.813 -16.233,7.285 1.768,1.132 3.5,0.994 5.092,1.228 3.983,0.585 7.993,0.99 11.995,1.441 2.354,0.266 4.664,0.342 4.977,3.648 0.084,0.884 1.128,1.846 1.543,3.384 -8.774,3.92 -17.583,7.856 -26.48,11.831 -1.632,-1.756 -1.613,-4.153 -3.112,-6.269 5.587,-2.534 10.866,-4.928 16.939,-7.681 z"
   id="path10" />
	<path
   fill-rule="evenodd"
   clip-rule="evenodd"
   fill="#fd0101"
   d="m 270.131,138.697 c 0.015,8.348 -6.568,14.305 -15.793,14.29 -7.982,-0.013 -14.272,-7.468 -14.355,-17.014 -0.072,-8.261 6.571,-14.319 15.76,-14.373 8.325,-0.049 14.37,7.134 14.388,17.097 z m -7.446,0.788 c 0.003,-2.535 -0.889,-5.862 -2.16,-8.054 -1.865,-3.215 -4.482,-4.422 -7.712,-3.556 -3.792,1.016 -5.354,3.122 -5.347,7.136 0.005,2.781 0.774,5.369 2.044,7.794 1.852,3.538 4.369,4.653 8.083,3.733 3.394,-0.841 5.087,-3.185 5.092,-7.053 z"
   id="path11" />
	<path
   fill-rule="evenodd"
   clip-rule="evenodd"
   fill="#fd0101"
   d="m 150.692,252.535 c -0.083,9.276 -6.003,15.597 -14.529,15.467 -7.651,-0.117 -16.981,-5.139 -16.729,-14.484 0.244,-9.049 6.114,-15.991 14.165,-15.715 9.53,0.325 17.645,5.842 17.093,14.732 z m -16.709,-7.181 c -4.67,-0.12 -7.159,1.491 -8.085,4.592 -1.122,3.753 -0.123,6.313 3.331,8.367 2.371,1.411 4.99,2.09 7.714,2.311 3.669,0.297 6.201,-1.361 7.344,-4.698 1.146,-3.347 0.164,-6.103 -3.033,-8.141 -2.492,-1.589 -5.252,-2.409 -7.271,-2.431 z"
   id="path12" />
	<path
   fill-rule="evenodd"
   clip-rule="evenodd"
   fill="#fd0101"
   d="m 335.392,132.57 c -0.117,10.191 -5.706,16.195 -14.972,16.081 -9.076,-0.111 -14.825,-5.834 -14.831,-14.764 -0.006,-9.906 5.784,-16.322 14.652,-16.237 9.54,0.091 15.256,5.72 15.151,14.92 z m -7.502,-0.733 c -0.062,-4.573 -1.862,-7.311 -5.097,-8.038 -3.939,-0.885 -6.833,0.309 -8.298,3.852 -1.258,3.043 -1.878,6.29 -1.11,9.614 0.775,3.361 2.918,5.264 6.177,5.593 3.136,0.317 5.537,-1.291 7.019,-4.47 1.023,-2.197 1.023,-4.537 1.309,-6.551 z"
   id="path13" />
	<path
   fill-rule="evenodd"
   clip-rule="evenodd"
   fill="#fd0101"
   d="m 360.18,151.895 c 0.105,-9.075 7.321,-17.151 15.234,-17.051 8.373,0.106 15.59,6.713 15.541,14.227 -0.06,9.091 -7.234,17.276 -15.094,17.218 -8.474,-0.061 -15.77,-6.758 -15.681,-14.394 z m 23.636,-3.373 c -0.021,-3.457 -1.501,-5.272 -3.759,-6.54 -2.404,-1.35 -4.938,-1.546 -7.089,0.291 -3.36,2.869 -5.52,6.512 -5.604,11.068 -0.052,2.823 1.502,4.698 3.993,5.902 2.3,1.111 4.552,1.157 6.607,-0.417 3.611,-2.764 5.013,-6.754 5.852,-10.304 z"
   id="path14" />
	<path
   fill-rule="evenodd"
   clip-rule="evenodd"
   fill="#fd0101"
   d="m 243.713,455.172 c 0.054,9.173 -6.933,17.394 -14.787,17.397 -8.376,0.005 -15.866,-6.598 -15.77,-14.164 0.1,-7.786 5.654,-17.379 14.742,-17.41 8.57,-0.029 15.77,6.425 15.815,14.177 z m -7.237,-0.721 c 0.229,-2.856 -0.982,-4.85 -3.468,-6.195 -2.678,-1.45 -5.32,-1.482 -7.568,0.584 -3.144,2.89 -4.953,6.548 -5.018,10.897 -0.046,3.149 1.854,4.953 4.566,6.074 2.492,1.03 4.838,0.707 6.748,-1.187 2.812,-2.788 4.46,-6.187 4.74,-10.173 z"
   id="path15" />
	<path
   fill-rule="evenodd"
   clip-rule="evenodd"
   fill="#fd0101"
   d="m 158.506,180.689 c 5.401,-5.609 10.638,-11.048 16.086,-16.705 1.435,1.367 2.75,2.619 4.615,4.396 -4.104,3.479 -8.079,6.85 -12.054,10.22 0.268,0.272 0.536,0.545 0.804,0.818 -0.06,0.77 0.583,1.151 1.003,1.583 2.512,2.586 2.826,2.507 5.467,-0.16 2.356,-2.38 4.841,-4.634 7.41,-7.079 1.27,0.702 2.338,2.098 3.667,3.519 -3.22,3.391 -6.404,6.743 -9.445,9.945 1.509,1.574 2.844,2.967 4.205,4.387 3.894,-3.766 7.753,-7.5 11.744,-11.359 1.139,1.238 2.371,2.576 4.095,4.449 -5.632,5.064 -11.378,10.23 -17.295,15.551 -6.291,-6.061 -13.15,-12.671 -20.302,-19.565 z"
   id="path16" />
	<path
   fill-rule="evenodd"
   clip-rule="evenodd"
   fill="#fd0101"
   d="m 434.533,226.008 c 8.956,-4.176 17.625,-8.217 26.607,-12.405 3.269,7.082 6.442,13.954 9.677,20.959 -1.7,0.944 -3.23,1.948 -5.271,2.26 -2.227,-4.703 -4.406,-9.305 -6.634,-14.009 -1.939,0.152 -3.457,1.186 -5.163,2.232 1.887,4.188 3.745,8.313 5.619,12.473 -0.874,1.453 -2.619,1.294 -3.804,2.168 -1.061,0.782 -1.479,-0.627 -1.857,-1.432 -1.663,-3.546 -3.304,-7.103 -5.017,-10.793 -2.011,0.562 -3.855,1.249 -5.776,2.578 2.247,4.91 4.48,9.787 6.828,14.915 -1.745,0.82 -3.306,1.554 -5.258,2.471 -3.31,-7.125 -6.547,-14.093 -9.951,-21.417 z"
   id="path17" />
	<path
   fill-rule="evenodd"
   clip-rule="evenodd"
   fill="#fd0101"
   d="m 355.728,447.375 c 1.768,-1.517 3.896,-2.256 6.077,-3.46 1.973,3.614 3.918,7.181 5.969,10.941 3.075,-1.622 5.949,-3.139 8.918,-4.704 -0.949,-3.431 -3.22,-6.102 -4.636,-9.194 -0.798,-1.742 -0.681,-2.45 1.087,-3.117 1.368,-0.516 2.612,-1.359 4.096,-2.157 4.603,8.615 9.104,17.042 13.623,25.502 -1.114,1.56 -2.905,1.818 -4.25,2.751 -1.271,0.882 -2.103,0.579 -2.805,-0.902 -1.23,-2.599 -2.688,-5.089 -4.146,-7.803 -3.094,1.638 -5.961,3.156 -9.102,4.819 1.658,3.248 3.235,6.339 4.833,9.468 -1.642,1.682 -3.834,2.143 -5.899,3.647 -4.627,-8.668 -9.172,-17.184 -13.765,-25.791 z"
   id="path18" />
	<path
   fill-rule="evenodd"
   clip-rule="evenodd"
   fill="#fd0101"
   d="m 292.6,128.095 c -0.248,-3.804 -0.47,-7.228 -0.704,-10.833 2.362,-0.264 4.532,-0.639 6.957,-0.422 0.646,9.244 1.28,18.391 1.933,27.536 0.076,1.07 -0.394,1.559 -1.424,1.623 -1.75,0.106 -3.499,0.227 -5.404,0.351 -0.338,-4.273 -0.653,-8.242 -0.984,-12.431 -3.591,0.187 -6.923,0.075 -10.421,0.813 0.309,4.095 0.602,7.987 0.907,12.041 -2.269,0.809 -4.49,0.578 -6.992,0.785 -0.689,-9.779 -1.365,-19.36 -2.059,-29.215 2.408,-0.138 4.511,-0.259 6.874,-0.395 0.338,3.574 0.661,6.981 1.01,10.67 3.4,-0.173 6.635,-0.337 10.307,-0.523 z"
   id="path19" />
	<path
   fill-rule="evenodd"
   clip-rule="evenodd"
   fill="#fd0101"
   d="m 470.762,269.148 c -1.11,-2.054 -1.339,-4.124 -1.974,-6.289 2.127,-1.632 4.033,-3.466 3.25,-6.672 -0.885,-3.621 -3.245,-5.635 -7.077,-5.416 -3.49,0.199 -6.807,1.03 -9.633,3.363 -2.037,1.683 -2.489,3.797 -2.095,6.178 0.396,2.381 1.627,4.574 4.146,4.687 2.92,0.13 3.432,1.935 3.97,4.027 0.228,0.884 0.379,1.788 0.563,2.672 -4.922,1.374 -9.739,-0.492 -12.368,-4.91 -2.164,-3.637 -3.134,-7.637 -2.564,-11.867 0.491,-3.646 2.506,-6.38 5.635,-8.292 2.926,-1.789 6.154,-2.808 9.512,-3.208 9.943,-1.184 17.664,7.133 15.943,17.058 -0.734,4.232 -3.17,7.057 -7.308,8.669 z"
   id="path20" />
	<path
   fill-rule="evenodd"
   clip-rule="evenodd"
   fill="#fd0101"
   d="m 124.959,329.638 c 1.044,1.658 0.878,3.533 1.448,5.207 0.335,0.986 -0.375,1.462 -1.146,1.967 -2.369,1.552 -2.813,3.807 -2.102,6.407 0.745,2.725 2.541,4.341 5.303,4.738 3.144,0.451 6.18,-0.13 9.028,-1.491 3.272,-1.563 4.902,-4.147 4.587,-7.02 -0.377,-3.437 -1.992,-4.878 -6.893,-6.011 -0.464,-1.954 -0.95,-4 -1.432,-6.029 4.422,-1.417 9.66,0.808 12.052,5.12 1.611,2.904 2.504,6.098 2.463,9.421 -0.06,4.739 -2.011,8.506 -6.34,10.792 -4.993,2.634 -10.285,3.654 -15.755,2.061 -5.99,-1.745 -8.296,-6.561 -9.067,-12.244 -0.662,-4.88 0.503,-9.138 5.042,-11.88 0.475,-0.287 0.971,-0.553 1.488,-0.75 0.416,-0.157 0.879,-0.196 1.324,-0.288 z"
   id="path21" />
	<path
   fill-rule="evenodd"
   clip-rule="evenodd"
   fill="#fd0101"
   d="m 419.464,161.953 c 1.921,1.9 3.495,3.466 5.078,5.022 0.826,0.812 0.494,1.68 0.226,2.601 -0.781,2.688 -1.51,5.391 -2.353,8.426 2.96,-0.058 5.521,-1.003 8.075,-1.707 1.88,-0.518 3.146,-0.375 4.298,1.288 0.989,1.426 2.691,2.284 3.557,4.226 -5.43,1 -10.728,1.977 -15.977,2.943 -1.975,5.619 -1.958,11.638 -4.692,17.806 -1.839,-2.07 -3.203,-3.703 -4.678,-5.228 -0.813,-0.84 -0.601,-1.643 -0.351,-2.578 0.794,-2.96 1.536,-5.935 2.356,-9.133 -3.199,-0.09 -5.911,1.014 -8.656,1.646 -1.967,0.452 -3.157,0.123 -4.361,-1.374 -1.154,-1.434 -2.521,-2.698 -4.169,-4.434 4.944,-0.863 9.395,-1.771 13.886,-2.378 2.889,-0.391 4.678,-1.164 5.038,-4.608 0.425,-4.061 1.706,-8.033 2.723,-12.518 z"
   id="path22" />
	<path
   fill-rule="evenodd"
   clip-rule="evenodd"
   fill="#fd0101"
   d="m 425.95,392.031 c 1.402,-2.576 2.495,-4.615 3.62,-6.638 0.718,-1.292 2.05,-1.125 3.23,-1.265 4.547,-0.542 9.096,-1.067 14.555,-1.705 -4.475,-2.547 -8.216,-4.676 -12.08,-6.876 0.721,-1.656 1.257,-3.238 2.066,-4.665 1.042,-1.837 2.601,-0.688 3.659,-0.123 4.833,2.584 9.553,5.379 14.341,8.048 2.818,1.571 5.689,3.049 8.625,4.616 -0.848,2.345 -2.048,4.195 -3.216,6.037 -3.503,-1.066 -6.106,-3.997 -10.252,-4.375 1.552,3.848 2.766,7.359 4.377,10.675 0.998,2.052 0.78,3.643 -0.432,5.396 -0.882,1.277 -1.585,2.677 -2.611,4.438 -1.777,-4.987 -3.498,-9.489 -4.964,-14.072 -0.676,-2.11 -1.589,-2.678 -3.829,-2.241 -5.409,1.057 -10.885,1.776 -17.089,2.75 z"
   id="path23" />
	<path
   fill-rule="evenodd"
   clip-rule="evenodd"
   fill="#fd0101"
   d="m 427.967,404.574 c -2.402,-2.08 -4.771,-4.133 -7.228,-6.26 0.848,-2.207 2.841,-3.423 4.136,-5.635 7.583,6.358 14.965,12.548 22.615,18.963 -3.99,4.445 -7.129,9.324 -11.543,13.057 -3.804,3.217 -7.812,3.017 -11.68,-0.204 -3.968,-3.305 -4.773,-7.316 -2.456,-11.719 1.578,-2.998 4.212,-5.189 6.156,-8.202 z m 4.551,3.906 c -1.494,1.875 -3.052,3.584 -4.316,5.488 -1.143,1.721 -0.639,3.4 0.936,4.696 1.588,1.309 3.169,1.317 4.781,-0.05 4.946,-4.199 4.954,-5.267 -0.042,-9.174 -0.356,-0.277 -0.737,-0.522 -1.359,-0.96 z"
   id="path24" />
	<path
   fill-rule="evenodd"
   clip-rule="evenodd"
   fill="#fd0101"
   d="m 431.044,203.505 c -2.763,1.96 -5.324,3.777 -7.955,5.644 -1.635,-1.814 -3.032,-3.508 -4.064,-5.684 7.813,-5.673 15.563,-11.299 23.578,-17.119 3.493,5.352 7.966,9.705 10.321,15.465 1.641,4.013 0.308,7.248 -3.549,10.19 -3.011,2.296 -7.997,3.077 -11.016,0.409 -2.838,-2.509 -4.677,-5.774 -7.315,-8.905 z m 10.783,-7.853 c -2.09,1.505 -4.103,2.955 -6.129,4.415 1.528,1.916 2.888,3.796 4.436,5.507 1.524,1.686 3.354,1.452 4.988,0.148 1.553,-1.239 2.091,-2.774 0.823,-4.634 -1.243,-1.823 -2.401,-3.703 -4.118,-5.436 z"
   id="path25" />
	<path
   fill-rule="evenodd"
   clip-rule="evenodd"
   fill="#fd0101"
   d="m 197.947,170.276 c 1.894,2.681 3.711,5.253 5.645,7.991 -1.912,1.327 -3.715,2.577 -5.774,4.006 -5.64,-8.039 -11.141,-15.879 -16.835,-23.996 5.205,-3.311 9.661,-7.626 15.373,-9.989 4.086,-1.689 7.833,-0.248 10.433,3.604 2.717,4.025 2.655,8.08 -0.16,11.371 -2.393,2.796 -5.819,4.322 -8.682,7.013 z m -3.469,-5.118 c 2.187,-1.443 4.297,-2.6 5.948,-4.4 1.476,-1.611 1.145,-3.217 -0.132,-4.778 -1.225,-1.497 -2.645,-1.999 -4.397,-0.888 -1.941,1.23 -3.935,2.389 -5.628,4.125 1.408,1.989 2.74,3.868 4.209,5.941 z"
   id="path26" />
	<path
   fill-rule="evenodd"
   clip-rule="evenodd"
   fill="#fd0101"
   d="m 388.289,429.263 c 1.596,-1.405 3.322,-2.927 4.985,-4.393 0.327,0.076 0.518,0.079 0.663,0.16 4.564,2.525 4.569,2.534 8.42,-0.788 1.058,-0.912 2.038,-1.916 3.113,-2.807 0.576,-0.478 0.853,-0.899 0.525,-1.659 -0.617,-1.436 -2.104,-3.191 -1.437,-4.322 1.078,-1.826 3.123,-3.081 4.975,-4.773 1.881,3.446 2.817,6.957 4.109,10.313 2.079,5.401 3.992,10.869 6.175,16.228 0.859,2.111 0.256,3.262 -1.296,4.722 -2.142,2.016 -3.741,2.554 -6.607,0.846 -7.379,-4.397 -15.068,-8.274 -22.63,-12.366 -0.391,-0.212 -0.92,-0.3 -0.995,-1.161 z m 14.888,1.123 c 2.912,2.263 6.027,3.564 9.056,5.122 -1.234,-3.227 -1.807,-6.637 -4.216,-9.436 -1.645,1.467 -3.137,2.797 -4.84,4.314 z"
   id="path27" />
	<path
   fill-rule="evenodd"
   clip-rule="evenodd"
   fill="#fd0101"
   d="m 452.56,326.559 c 0,-1.206 0.078,-2.324 -0.016,-3.427 -0.232,-2.743 0.62,-4.486 3.693,-4.653 1.622,-0.088 2.481,-1.045 2.402,-2.798 -0.05,-1.116 -0.05,-2.287 0.227,-3.355 0.878,-3.386 0.265,-5.802 -3.613,-6.566 -1.17,-0.231 -1.557,-1.109 -1.366,-2.34 0.255,-1.651 0.351,-3.327 0.527,-5.119 2.368,0.124 4.119,1.457 6.031,2.313 6.981,3.127 13.941,6.3 20.906,9.465 0.98,0.445 1.542,1.01 1.508,2.323 -0.135,5.182 -0.041,5.26 -4.915,6.768 -8.032,2.485 -16.098,4.863 -24.152,7.273 -0.339,0.1 -0.716,0.071 -1.232,0.116 z m 21.14,-12.525 c 0.041,-0.188 0.083,-0.377 0.124,-0.565 -3.144,-1.292 -6.288,-2.585 -9.816,-4.036 -0.003,2.651 -0.521,4.799 0.026,7.166 3.357,-0.891 6.511,-1.728 9.666,-2.565 z"
   id="path28" />
	<path
   fill-rule="evenodd"
   clip-rule="evenodd"
   fill="#fd0101"
   d="m 475.803,354.443 c -0.71,1.95 -1.475,3.94 -2.156,5.96 -0.432,1.278 -1.438,1.267 -2.483,1.326 -2.153,0.122 -4.306,0.27 -6.457,0.419 -2.054,0.143 -4.106,0.302 -6.829,0.503 3.145,2.742 5.729,5.359 8.683,7.453 2.28,1.616 2.44,3.203 1.229,5.362 -0.59,1.052 -0.557,2.387 -1.457,3.287 -0.951,0.168 -1.306,-0.586 -1.834,-1.081 -5.451,-5.111 -10.959,-10.165 -16.356,-15.334 -4.887,-4.68 -5.138,-9.091 -0.941,-14.754 1.816,0.16 3.438,1.061 5.172,1.8 -0.452,1.08 -0.983,2.057 -1.273,3.101 -0.728,2.622 0.435,3.929 3.127,3.653 6.436,-0.66 12.871,-1.321 19.309,-1.962 0.7,-0.069 1.451,-0.465 2.266,0.267 z"
   id="path29" />
	<path
   fill-rule="evenodd"
   clip-rule="evenodd"
   fill="#fd0101"
   d="m 139.422,206.538 c 1.426,-1.949 2.685,-3.669 4.002,-5.468 2.122,0.927 3.681,2.409 5.412,3.626 3.508,2.468 5.103,2.174 7.658,-1.42 0.748,-1.052 1.426,-2.153 2.248,-3.403 -3.145,-2.334 -6.12,-4.542 -9.124,-6.771 0.742,-2.285 2.511,-3.708 3.694,-5.936 8.05,5.843 15.945,11.573 23.886,17.336 -1.57,1.893 -2.53,3.95 -4.337,5.498 -3.072,-2.19 -6.097,-4.347 -9.267,-6.606 -2.189,2.507 -3.488,5.451 -5.754,7.678 -3.681,3.619 -6.451,3.975 -10.662,1.044 -2.523,-1.756 -4.995,-3.588 -7.756,-5.578 z"
   id="path30" />
	<path
   fill-rule="evenodd"
   clip-rule="evenodd"
   fill="#fd0101"
   d="m 453.281,290.74 c -0.254,-2.435 -0.472,-4.529 -0.717,-6.874 7.968,-0.733 15.661,-1.441 23.518,-2.164 -0.288,-3.032 -0.541,-5.705 -0.796,-8.379 1.829,-0.973 3.628,-0.585 5.773,-0.895 0.712,8.237 1.408,16.293 2.107,24.374 -1.999,0.652 -3.747,0.537 -5.657,0.52 -0.461,-2.812 -0.277,-5.637 -1.117,-8.498 -7.678,0.637 -15.285,1.267 -23.111,1.916 z"
   id="path31" />
	<path
   fill-rule="evenodd"
   clip-rule="evenodd"
   fill="#fd0101"
   d="m 113.115,302.598 c 1.976,-0.624 3.725,-0.583 5.725,-0.602 0.206,2.908 0.401,5.672 0.619,8.751 7.819,-0.539 15.436,-1.062 23.223,-1.599 0.377,2.34 0.705,4.51 0.515,6.96 -7.621,0.55 -15.162,1.095 -22.881,1.652 0,2.923 0,5.768 0,8.824 -1.838,0 -3.574,0 -5.543,0 -0.552,-7.977 -1.104,-15.964 -1.658,-23.986 z"
   id="path32" />
	<path
   fill-rule="evenodd"
   clip-rule="evenodd"
   fill="#fd0101"
   d="m 258.483,476.163 c 2.57,1.53 5.602,1.219 8.245,2.784 -0.443,1.674 -0.89,3.359 -1.401,5.29 -7.854,-1.956 -15.61,-3.887 -23.503,-5.853 -0.147,-1.957 0.402,-3.686 1.139,-5.43 2.858,-0.059 5.313,1.464 8.411,1.525 0.892,-3.352 1.848,-6.82 2.733,-10.307 0.852,-3.354 1.708,-6.71 2.41,-10.097 0.353,-1.703 1.026,-2.218 2.702,-1.586 1.377,0.52 2.965,0.405 4.526,1.484 -1.473,7.326 -4.078,14.494 -5.262,22.19 z"
   id="path33" />
	<path
   fill-rule="evenodd"
   clip-rule="evenodd"
   fill="#fd0101"
   d="m 350.508,130.667 c -2.465,7.519 -4.849,14.784 -7.292,22.235 -2.298,-0.684 -4.452,-1.158 -6.615,-2.3 2.962,-9.113 5.927,-18.238 8.994,-27.678 6.224,2.011 12.299,3.975 18.485,5.974 -0.397,1.94 -0.646,3.673 -1.822,5.471 -3.759,-1.183 -7.564,-2.382 -11.75,-3.702 z"
   id="path34" />
	<path
   fill-rule="evenodd"
   clip-rule="evenodd"
   fill="#fd0101"
   d="m 380.896,433.452 c 2.081,-1.344 3.859,-2.492 5.896,-3.808 5.332,8.201 10.55,16.229 15.833,24.356 -1.736,1.68 -3.642,2.759 -5.845,3.938 -5.279,-8.138 -10.528,-16.229 -15.884,-24.486 z"
   id="path35" />
	<path
   fill-rule="evenodd"
   clip-rule="evenodd"
   fill="#fd0101"
   d="m 298.318,479.882 c -3.525,0.05 -6.24,-2.559 -6.31,-6.063 -0.068,-3.439 2.66,-6.28 6.078,-6.329 3.463,-0.049 6.253,2.646 6.313,6.098 0.06,3.501 -2.59,6.245 -6.081,6.294 z"
   id="path36" />
	<path
   fill-rule="evenodd"
   clip-rule="evenodd"
   fill="#fd0101"
   d="m 393.635,462.973 c 1.729,-1.14 3.399,-2.24 5.237,-3.451 0.94,1.459 1.779,2.759 2.627,4.074 -1.447,1.593 -3.312,2.308 -4.955,3.55 -1.418,-1.014 -2.149,-2.448 -2.909,-4.173 z"
   id="path37" />
	<path
   fill-rule="evenodd"
   clip-rule="evenodd"
   fill="#fd0101"
   d="m 403.52,456.556 c 1.852,-1.168 3.274,-2.521 5.367,-3.196 0.801,1.223 1.596,2.437 2.466,3.766 -1.534,1.632 -3.353,2.603 -5.271,3.656 -0.983,-1.377 -1.972,-2.562 -2.562,-4.226 z"
   id="path38" />
	<path
   fill-rule="evenodd"
   clip-rule="evenodd"
   fill="#fefdfd"
   d="m 298.243,170.602 c 72.84,0.305 131.176,58.94 131.145,131.331 -0.032,72.19 -58.312,131.038 -131.166,131.112 -72.396,0.073 -131.228,-58.647 -131.236,-131.17 -0.008,-72.896 59.09,-131.151 131.257,-131.273 z m -32.866,98.567 c -22.704,0 -44.965,0 -67.182,0 0,21.991 0,43.625 0,65.598 22.443,0 44.715,0 67.337,0 0,22.602 0,44.865 0,67.085 21.989,0 43.621,0 65.597,0 0,-22.44 0,-44.712 0,-67.337 22.604,0 44.865,0 67.087,0 0,-21.991 0,-43.624 0,-65.599 -22.439,0 -44.711,0 -67.337,0 0,-22.602 0,-44.863 0,-67.084 -21.992,0 -43.625,0 -65.502,0 0,22.374 0,44.578 0,67.337 z"
   id="path39" />
	<path
   fill-rule="evenodd"
   clip-rule="evenodd"
   fill="#fefdfd"
   d="m 160.417,403.418 c -2.143,1.496 -4.038,2.819 -5.99,4.182 -1.688,-1.77 -2.918,-3.731 -4.125,-5.71 -1.093,-1.791 -0.471,-3.181 1.004,-4.391 1.598,-1.309 3.243,-1.494 4.783,-0.014 1.689,1.622 2.885,3.626 4.328,5.933 z"
   id="path40" />
	<path
   fill-rule="evenodd"
   clip-rule="evenodd"
   fill="#fefdfd"
   d="m 172.42,424.776 c 1.622,-2.919 3.243,-5.839 4.925,-8.869 1.978,1.328 3.271,3.138 5.063,5.002 -3.271,1.503 -6.326,2.908 -9.381,4.311 -0.202,-0.148 -0.404,-0.296 -0.607,-0.444 z"
   id="path41" />
	<path
   fill-rule="evenodd"
   clip-rule="evenodd"
   fill="#fefdfd"
   d="m 137.516,290.993 c -2.155,-0.169 -4.072,-0.319 -6.403,-0.502 0.253,-2.617 0.377,-5.19 0.789,-7.716 0.28,-1.712 1.378,-2.857 3.334,-2.636 2.04,0.23 2.957,1.616 2.92,3.461 -0.048,2.397 -0.4,4.788 -0.64,7.393 z"
   id="path42" />
	<path
   fill-rule="evenodd"
   clip-rule="evenodd"
   fill="#fefdfd"
   d="m 120.025,289.467 c 0.149,-2.328 0.169,-4.296 0.431,-6.232 0.228,-1.682 0.984,-3.122 3.054,-2.927 2.01,0.189 2.619,1.579 2.534,3.375 -0.092,1.95 -0.251,3.896 -0.387,5.939 -1.909,0.606 -3.595,-0.145 -5.632,-0.155 z"
   id="path43" />
	<path
   fill-rule="evenodd"
   clip-rule="evenodd"
   fill="#fefdfd"
   d="m 209.327,436.335 c -1.38,1.876 -2.535,3.445 -3.837,5.215 -2.094,-1.562 -4.161,-2.956 -6.048,-4.562 -1.38,-1.173 -2.048,-2.655 -0.627,-4.384 1.335,-1.623 2.878,-1.629 4.461,-0.585 2.005,1.323 3.919,2.786 6.051,4.316 z"
   id="path44" />
	<path
   fill-rule="evenodd"
   clip-rule="evenodd"
   fill="#fefdfd"
   d="m 202.254,446.091 c -1.249,1.667 -2.249,3.002 -3.325,4.438 -2.048,-1.421 -4.019,-2.619 -5.692,-4.247 -1.115,-1.083 -1.328,-2.271 -0.386,-3.492 0.973,-1.26 2.323,-1.707 3.722,-0.799 1.865,1.213 3.616,2.597 5.681,4.1 z"
   id="path45" />
	<path
   fill-rule="evenodd"
   clip-rule="evenodd"
   fill="#fefdfd"
   d="m 224.244,158.322 c -0.96,-2.136 -1.749,-3.889 -2.568,-5.709 2.183,-1.456 4.509,-2.251 6.817,-3.093 1.85,-0.675 3.42,-0.296 4.214,1.532 0.85,1.957 -0.085,3.454 -1.881,4.334 -2.07,1.012 -4.208,1.885 -6.582,2.936 z"
   id="path46" />
	<path
   fill-rule="evenodd"
   clip-rule="evenodd"
   fill="#fefdfd"
   d="m 219.608,147.35 c -0.418,-0.628 -0.728,-0.983 -0.915,-1.394 -0.536,-1.175 -1.022,-2.374 -1.568,-3.658 2.106,-1.058 4.127,-1.928 6.2,-2.749 1.875,-0.743 2.865,0.167 3.58,1.395 0.741,1.273 0.262,2.652 -1.053,3.375 -1.953,1.073 -4.008,1.959 -6.244,3.031 z"
   id="path47" />
	<path
   fill-rule="evenodd"
   clip-rule="evenodd"
   fill="#fefdfd"
   d="m 262.685,139.485 c -0.005,3.868 -1.698,6.212 -5.093,7.054 -3.713,0.92 -6.23,-0.195 -8.083,-3.733 -1.27,-2.425 -2.04,-5.014 -2.044,-7.794 -0.007,-4.014 1.555,-6.12 5.347,-7.136 3.23,-0.866 5.848,0.341 7.712,3.556 1.271,2.191 2.164,5.518 2.161,8.053 z"
   id="path48" />
	<path
   fill-rule="evenodd"
   clip-rule="evenodd"
   fill="#fefdfd"
   d="m 133.983,245.354 c 2.019,0.023 4.779,0.842 7.271,2.432 3.197,2.038 4.179,4.794 3.033,8.141 -1.144,3.337 -3.675,4.996 -7.344,4.698 -2.725,-0.221 -5.343,-0.9 -7.714,-2.311 -3.453,-2.055 -4.452,-4.614 -3.331,-8.367 0.927,-3.103 3.415,-4.713 8.085,-4.593 z"
   id="path49" />
	<path
   fill-rule="evenodd"
   clip-rule="evenodd"
   fill="#fefdfd"
   d="m 327.89,131.837 c -0.285,2.014 -0.285,4.354 -1.31,6.551 -1.481,3.18 -3.883,4.788 -7.019,4.47 -3.259,-0.329 -5.401,-2.232 -6.177,-5.593 -0.768,-3.324 -0.147,-6.571 1.11,-9.614 1.465,-3.543 4.358,-4.737 8.298,-3.852 3.235,0.728 5.036,3.466 5.098,8.038 z"
   id="path50" />
	<path
   fill-rule="evenodd"
   clip-rule="evenodd"
   fill="#fefdfd"
   d="m 383.816,148.522 c -0.84,3.55 -2.241,7.54 -5.851,10.304 -2.056,1.574 -4.308,1.528 -6.607,0.417 -2.491,-1.204 -4.045,-3.08 -3.993,-5.902 0.084,-4.556 2.243,-8.199 5.604,-11.068 2.151,-1.836 4.685,-1.641 7.089,-0.291 2.257,1.268 3.737,3.083 3.758,6.54 z"
   id="path51" />
	<path
   fill-rule="evenodd"
   clip-rule="evenodd"
   fill="#fefdfd"
   d="m 236.476,454.451 c -0.28,3.986 -1.928,7.386 -4.74,10.174 -1.91,1.894 -4.256,2.217 -6.748,1.187 -2.712,-1.121 -4.612,-2.925 -4.566,-6.074 0.064,-4.35 1.874,-8.008 5.018,-10.897 2.248,-2.066 4.891,-2.034 7.568,-0.584 2.486,1.344 3.697,3.337 3.468,6.194 z"
   id="path52" />
	<path
   fill-rule="evenodd"
   clip-rule="evenodd"
   fill="#fefdfd"
   d="m 432.518,408.48 c 0.622,0.438 1.004,0.682 1.358,0.96 4.996,3.907 4.988,4.975 0.042,9.174 -1.612,1.368 -3.193,1.359 -4.781,0.05 -1.574,-1.296 -2.078,-2.975 -0.936,-4.696 1.265,-1.903 2.822,-3.613 4.317,-5.488 z"
   id="path53" />
	<path
   fill-rule="evenodd"
   clip-rule="evenodd"
   fill="#fefdfd"
   d="m 441.827,195.652 c 1.717,1.733 2.875,3.613 4.118,5.436 1.268,1.859 0.729,3.395 -0.823,4.634 -1.634,1.303 -3.464,1.538 -4.988,-0.148 -1.548,-1.711 -2.907,-3.591 -4.436,-5.507 2.027,-1.46 4.039,-2.909 6.129,-4.415 z"
   id="path54" />
	<path
   fill-rule="evenodd"
   clip-rule="evenodd"
   fill="#fefdfd"
   d="m 194.478,165.158 c -1.469,-2.073 -2.801,-3.953 -4.209,-5.941 1.693,-1.737 3.687,-2.896 5.628,-4.125 1.752,-1.111 3.172,-0.609 4.397,0.888 1.277,1.561 1.608,3.167 0.132,4.778 -1.651,1.8 -3.761,2.957 -5.948,4.4 z"
   id="path55" />
	<path
   fill-rule="evenodd"
   clip-rule="evenodd"
   fill="#fefdfd"
   d="m 403.177,430.386 c 1.703,-1.518 3.195,-2.848 4.84,-4.313 2.409,2.799 2.981,6.209 4.216,9.436 -3.029,-1.558 -6.144,-2.86 -9.056,-5.123 z"
   id="path56" />
	<path
   fill-rule="evenodd"
   clip-rule="evenodd"
   fill="#fefdfd"
   d="m 473.7,314.034 c -3.155,0.837 -6.31,1.674 -9.666,2.564 -0.547,-2.367 -0.029,-4.515 -0.026,-7.166 3.528,1.451 6.673,2.743 9.816,4.036 -0.041,0.189 -0.083,0.377 -0.124,0.566 z"
   id="path57" />
	<path
   fill-rule="evenodd"
   clip-rule="evenodd"
   fill="#fd0101"
   d="m 265.377,269.169 c 0,-22.76 0,-44.964 0,-67.337 21.877,0 43.51,0 65.502,0 0,22.221 0,44.483 0,67.084 22.626,0 44.897,0 67.337,0 0,21.975 0,43.608 0,65.599 -22.222,0 -44.483,0 -67.087,0 0,22.625 0,44.897 0,67.337 -21.976,0 -43.608,0 -65.597,0 0,-22.22 0,-44.483 0,-67.085 -22.623,0 -44.895,0 -67.337,0 0,-21.974 0,-43.607 0,-65.598 22.217,0 44.478,0 67.182,0 z"
   id="path58" />
</g>
</svg>
