<?xml version="1.0" encoding="utf-8"?>
<!-- Generator: Adobe Illustrator 16.0.0, SVG Export Plug-In . SVG Version: 6.00 Build 0)  -->
<!DOCTYPE svg PUBLIC "-//W3C//DTD SVG 1.1//EN" "http://www.w3.org/Graphics/SVG/1.1/DTD/svg11.dtd">
<svg version="1.1" id="Layer_1" xmlns="http://www.w3.org/2000/svg" xmlns:xlink="http://www.w3.org/1999/xlink" x="0px" y="0px"
	 width="595.28px" height="841.89px" viewBox="0 0 595.28 841.89" enable-background="new 0 0 595.28 841.89" xml:space="preserve">
<g>
	<path fill-rule="evenodd" clip-rule="evenodd" fill="#FEFDFD" d="M579.797,583.435c-187.729,0-375.458,0-563.187,0
		c0-187.729,0-375.458,0-563.187c187.729,0,375.458,0,563.187,0C579.797,207.977,579.797,395.706,579.797,583.435z M508.282,301.831
		c0.205-115.955-94.168-210.004-209.895-210.118C182.584,91.598,88.165,185.626,88.072,301.694
		C87.98,417.357,181.893,511.915,298.1,511.967C414.228,512.02,508.506,417.625,508.282,301.831z"/>
	<path fill-rule="evenodd" clip-rule="evenodd" fill="#FD0101" d="M508.282,301.831c0.224,115.794-94.055,210.189-210.183,210.137
		c-116.207-0.053-210.119-94.61-210.027-210.273c0.092-116.068,94.512-210.096,210.315-209.981
		C414.114,91.826,508.487,185.875,508.282,301.831z M94.332,303.922c1.207,110.759,90.63,200.575,201.524,201.744
		c114.634,1.209,205.216-90.978,206.186-201.697c1.005-114.777-91.328-204.943-201.754-205.993
		C186.299,96.892,93.313,189.448,94.332,303.922z"/>
	<path fill-rule="evenodd" clip-rule="evenodd" fill="#FEFDFD" d="M94.332,303.922c-1.019-114.474,91.967-207.03,205.957-205.946
		c110.426,1.05,202.759,91.216,201.754,205.993c-0.97,110.719-91.552,202.906-206.186,201.697
		C184.962,504.498,95.539,414.682,94.332,303.922z M298.137,439.287c76.365-0.027,137.543-61.378,137.495-138.035
		c-0.047-75.398-61.803-137.361-138.47-136.887c-74.714,0.461-137.102,61.584-136.427,138.836
		C161.387,377.941,222.313,439.366,298.137,439.287z M165.39,399.917c-2.047-2.702-3.743-5.296-5.794-7.57
		c-3.561-3.949-7.993-4.328-12.335-1.35c-4.36,2.99-5.676,7.014-3.268,11.711c2.59,5.053,6.273,9.42,9.552,14.134
		c7.911-5.522,15.585-10.878,23.26-16.235c-0.431,2.303-1.268,4.203-2.182,6.066c-3.211,6.548-6.353,13.134-9.737,19.591
		c-0.945,1.804-0.698,2.895,0.684,4.086c0.564,0.486,1.083,1.045,1.539,1.636c0.966,1.252,1.85,1.626,3.538,0.863
		c5.399-2.438,10.927-4.594,16.406-6.857c3.408-1.407,6.817-2.813,10.571-4.361c-1.518-1.6-2.846-2.792-3.907-4.187
		c-0.836-1.098-1.827-1.177-2.671-0.536c-3.047,2.314-5.039,0.943-6.843-1.663c-0.473-0.683-1.082-1.309-1.738-1.819
		c-2.04-1.585-2.401-3.301-0.772-5.432c0.727-0.951,1.439-2.132,0.227-3.237c-3.298-3.007-5.807-6.661-8.377-10.445
		C170.737,396.24,168.135,398.03,165.39,399.917z M142.614,298.595c0.435-4.443,0.895-8.521,1.209-12.611
		c0.157-2.051,0.188-4.133,0.031-6.182c-0.277-3.623-2.266-5.898-5.679-6.82c-3.381-0.913-6.266,0.116-8.443,2.896
		c-0.34,0.435-0.252,1.411-1.299,1.226c-1.115-2.652-3.095-4.072-6.058-4.106c-4.489-0.052-7.159,2.792-7.652,8.253
		c-0.371,4.108-0.744,8.217-1.071,12.329c-0.063,0.794-0.405,1.673,0.376,2.474C123.449,296.891,132.937,297.734,142.614,298.595z
		 M193.305,436.992c-4.13-0.553-6.829,0.957-8.101,4.678c-1.039,3.04-0.079,5.698,2.254,7.576
		c4.399,3.543,9.018,6.813,13.711,10.321c5.882-8.108,11.549-15.922,17.337-23.901c-5.456-3.484-9.876-7.753-15.345-10.481
		c-4.157-2.075-8.467-0.671-10.578,3.301C191.084,431.307,191.467,434.076,193.305,436.992z M220.193,166.615
		c5.694-2.844,11.369-4.562,16.337-7.75c4.312-2.767,5.304-6.58,2.979-10.813c-1.602-2.917-4.234-4.076-7.528-3.938
		c2.082-4.049,2.036-6.164,0.06-8.886c-2.115-2.915-5.104-3.215-8.052-2.236c-5.391,1.791-10.481,4.352-15.739,6.871
		C212.233,148.784,216.132,157.518,220.193,166.615z M352.347,478.662c2.339-1.143,4.744-0.975,6.59-2.427
		c-2.693-9.334-5.353-18.546-8.047-27.883c-0.98,0.323-1.586,0.644-2.218,0.709c-3.44,0.353-5.01,2.149-5.72,5.635
		c-1.089,5.351-2.882,10.559-4.618,16.676c-1.884-6.397-3.53-11.994-5.194-17.645c-2.494,0.273-4.532,1.077-6.729,1.863
		c2.705,9.4,5.357,18.621,7.998,27.799c6.385-0.906,6.42-0.896,8.077-6.464c1.503-5.045,2.918-10.115,4.372-15.175
		c0.181,0.006,0.361,0.012,0.543,0.018C349.016,467.283,350.63,472.797,352.347,478.662z M148.932,375.586
		c-6.073,2.753-11.352,5.147-16.939,7.68c1.5,2.116,1.48,4.513,3.112,6.269c8.897-3.975,17.706-7.91,26.48-11.831
		c-0.415-1.538-1.459-2.5-1.543-3.384c-0.313-3.306-2.622-3.382-4.977-3.648c-4.002-0.451-8.012-0.856-11.995-1.441
		c-1.593-0.234-3.324-0.096-5.092-1.228c5.51-2.473,10.75-4.825,16.233-7.285c-0.985-2.186-1.879-4.17-2.879-6.392
		c-9.044,4.021-17.851,7.937-26.556,11.807c1.062,4.565,3.015,7.614,8.059,7.282c1.56-0.103,3.159,0.335,4.736,0.555
		C141.07,374.458,144.566,374.964,148.932,375.586z M270.131,138.697c-0.018-9.963-6.063-17.146-14.388-17.097
		c-9.189,0.054-15.833,6.112-15.76,14.373c0.083,9.546,6.373,17,14.355,17.014C263.563,153.002,270.146,147.045,270.131,138.697z
		 M150.692,252.535c0.552-8.89-7.563-14.406-17.094-14.732c-8.051-0.275-13.921,6.667-14.165,15.715
		c-0.251,9.345,9.079,14.367,16.729,14.484C144.689,268.132,150.609,261.811,150.692,252.535z M335.392,132.57
		c0.105-9.201-5.61-14.829-15.15-14.92c-8.868-0.085-14.658,6.332-14.652,16.237c0.006,8.93,5.755,14.652,14.831,14.764
		C329.686,148.765,335.274,142.762,335.392,132.57z M360.18,151.895c-0.089,7.636,7.207,14.333,15.682,14.395
		c7.859,0.058,15.034-8.127,15.094-17.218c0.049-7.514-7.168-14.121-15.541-14.227C367.501,134.744,360.285,142.82,360.18,151.895z
		 M243.713,455.172c-0.045-7.752-7.245-14.206-15.815-14.177c-9.087,0.031-14.642,9.624-14.742,17.41
		c-0.096,7.566,7.394,14.169,15.77,14.164C236.781,472.566,243.767,464.345,243.713,455.172z M158.506,180.689
		c7.152,6.893,14.011,13.503,20.301,19.565c5.917-5.32,11.664-10.487,17.295-15.551c-1.724-1.873-2.956-3.211-4.095-4.449
		c-3.991,3.86-7.85,7.593-11.744,11.359c-1.361-1.42-2.696-2.813-4.205-4.387c3.041-3.202,6.225-6.554,9.445-9.945
		c-1.329-1.42-2.397-2.816-3.667-3.519c-2.569,2.444-5.054,4.698-7.41,7.079c-2.641,2.667-2.955,2.747-5.467,0.16
		c-0.42-0.433-1.063-0.813-1.003-1.583c-0.268-0.273-0.536-0.546-0.804-0.818c3.975-3.371,7.95-6.741,12.054-10.22
		c-1.866-1.777-3.18-3.029-4.615-4.396C169.144,169.642,163.907,175.081,158.506,180.689z M434.533,226.008
		c3.403,7.324,6.641,14.292,9.952,21.417c1.952-0.917,3.513-1.651,5.258-2.471c-2.348-5.127-4.581-10.005-6.828-14.915
		c1.921-1.329,3.766-2.016,5.776-2.578c1.713,3.69,3.354,7.247,5.017,10.793c0.378,0.805,0.797,2.214,1.857,1.432
		c1.185-0.874,2.93-0.715,3.804-2.168c-1.874-4.16-3.732-8.285-5.619-12.473c1.706-1.046,3.224-2.081,5.163-2.232
		c2.228,4.704,4.407,9.306,6.634,14.009c2.04-0.313,3.57-1.316,5.271-2.26c-3.234-7.005-6.408-13.878-9.677-20.959
		C452.158,217.791,443.489,221.832,434.533,226.008z M355.728,447.375c4.594,8.607,9.139,17.123,13.765,25.791
		c2.065-1.505,4.258-1.966,5.899-3.647c-1.598-3.129-3.175-6.22-4.833-9.468c3.141-1.663,6.008-3.182,9.102-4.819
		c1.458,2.714,2.916,5.204,4.146,7.803c0.702,1.481,1.533,1.784,2.805,0.902c1.345-0.933,3.136-1.191,4.25-2.751
		c-4.52-8.46-9.021-16.887-13.623-25.502c-1.483,0.798-2.728,1.642-4.096,2.157c-1.768,0.667-1.885,1.375-1.087,3.117
		c1.416,3.093,3.687,5.764,4.636,9.194c-2.969,1.565-5.843,3.082-8.918,4.704c-2.051-3.761-3.996-7.327-5.969-10.941
		C359.623,445.119,357.495,445.858,355.728,447.375z M292.6,128.095c-3.672,0.186-6.906,0.35-10.308,0.522
		c-0.349-3.689-0.671-7.097-1.01-10.67c-2.363,0.136-4.466,0.256-6.874,0.395c0.694,9.855,1.37,19.437,2.059,29.215
		c2.501-0.207,4.723,0.024,6.992-0.785c-0.306-4.053-0.599-7.945-0.907-12.041c3.498-0.737,6.83-0.626,10.421-0.813
		c0.332,4.189,0.646,8.157,0.984,12.431c1.905-0.125,3.654-0.245,5.404-0.351c1.03-0.063,1.5-0.553,1.424-1.623
		c-0.652-9.145-1.286-18.292-1.933-27.536c-2.425-0.216-4.595,0.158-6.957,0.422C292.13,120.867,292.352,124.292,292.6,128.095z
		 M470.762,269.148c4.139-1.612,6.574-4.437,7.309-8.668c1.721-9.924-6-18.241-15.943-17.058c-3.357,0.4-6.586,1.419-9.512,3.208
		c-3.129,1.911-5.144,4.645-5.635,8.292c-0.569,4.229,0.4,8.229,2.564,11.867c2.629,4.418,7.446,6.283,12.368,4.91
		c-0.185-0.884-0.336-1.788-0.563-2.672c-0.538-2.092-1.05-3.896-3.97-4.027c-2.52-0.112-3.751-2.305-4.146-4.687
		c-0.395-2.38,0.058-4.495,2.095-6.178c2.826-2.333,6.143-3.165,9.633-3.363c3.832-0.219,6.192,1.795,7.077,5.416
		c0.783,3.206-1.123,5.04-3.25,6.672C469.423,265.024,469.651,267.094,470.762,269.148z M124.959,329.638
		c-0.445,0.092-0.908,0.131-1.325,0.29c-0.517,0.196-1.013,0.462-1.488,0.75c-4.538,2.742-5.703,7-5.042,11.88
		c0.771,5.683,3.077,10.499,9.067,12.244c5.47,1.593,10.762,0.573,15.755-2.061c4.329-2.286,6.28-6.053,6.34-10.792
		c0.042-3.323-0.852-6.517-2.463-9.421c-2.392-4.312-7.629-6.537-12.052-5.12c0.482,2.028,0.968,4.075,1.432,6.029
		c4.9,1.132,6.516,2.574,6.893,6.011c0.315,2.873-1.314,5.457-4.587,7.02c-2.849,1.361-5.885,1.942-9.028,1.491
		c-2.762-0.397-4.558-2.013-5.303-4.738c-0.711-2.6-0.267-4.854,2.102-6.407c0.771-0.505,1.482-0.981,1.146-1.967
		C125.837,333.171,126.003,331.295,124.959,329.638z M419.464,161.953c-1.017,4.485-2.298,8.458-2.723,12.52
		c-0.36,3.444-2.149,4.218-5.038,4.608c-4.491,0.607-8.941,1.515-13.886,2.378c1.648,1.735,3.015,3,4.169,4.434
		c1.204,1.497,2.395,1.826,4.361,1.374c2.745-0.632,5.457-1.736,8.656-1.646c-0.82,3.198-1.563,6.172-2.356,9.133
		c-0.25,0.935-0.463,1.737,0.351,2.578c1.475,1.525,2.839,3.158,4.678,5.228c2.734-6.168,2.718-12.187,4.692-17.806
		c5.249-0.967,10.547-1.943,15.977-2.943c-0.865-1.942-2.567-2.8-3.557-4.226c-1.152-1.663-2.418-1.806-4.298-1.288
		c-2.554,0.704-5.115,1.649-8.075,1.707c0.843-3.035,1.571-5.738,2.353-8.426c0.269-0.921,0.601-1.79-0.226-2.601
		C422.959,165.419,421.385,163.853,419.464,161.953z M425.95,392.031c6.204-0.974,11.68-1.692,17.09-2.749
		c2.24-0.437,3.153,0.13,3.829,2.241c1.466,4.583,3.187,9.085,4.964,14.072c1.026-1.761,1.729-3.161,2.611-4.438
		c1.212-1.753,1.43-3.344,0.432-5.396c-1.611-3.316-2.825-6.827-4.377-10.675c4.146,0.378,6.749,3.309,10.252,4.375
		c1.168-1.842,2.368-3.691,3.216-6.037c-2.936-1.567-5.807-3.045-8.625-4.616c-4.788-2.669-9.508-5.464-14.341-8.048
		c-1.059-0.566-2.617-1.715-3.659,0.123c-0.81,1.427-1.346,3.009-2.066,4.665c3.864,2.2,7.605,4.329,12.08,6.876
		c-5.459,0.638-10.008,1.163-14.555,1.705c-1.181,0.141-2.513-0.026-3.23,1.265C428.445,387.416,427.353,389.455,425.95,392.031z
		 M427.967,404.574c-1.943,3.014-4.578,5.204-6.155,8.201c-2.317,4.403-1.512,8.415,2.456,11.719
		c3.868,3.221,7.876,3.421,11.68,0.204c4.414-3.733,7.553-8.612,11.543-13.057c-7.65-6.415-15.032-12.604-22.615-18.963
		c-1.295,2.212-3.288,3.428-4.136,5.635C423.195,400.441,425.564,402.494,427.967,404.574z M431.044,203.505
		c2.638,3.131,4.478,6.396,7.315,8.905c3.019,2.668,8.005,1.888,11.016-0.409c3.856-2.942,5.189-6.177,3.549-10.19
		c-2.355-5.76-6.828-10.113-10.321-15.465c-8.015,5.82-15.765,11.446-23.578,17.119c1.032,2.175,2.43,3.87,4.064,5.684
		C425.72,207.283,428.281,205.466,431.044,203.505z M197.947,170.276c2.863-2.691,6.29-4.217,8.681-7.013
		c2.814-3.291,2.877-7.345,0.16-11.371c-2.6-3.852-6.347-5.293-10.433-3.604c-5.712,2.362-10.168,6.678-15.373,9.989
		c5.694,8.117,11.195,15.957,16.835,23.996c2.059-1.429,3.862-2.679,5.774-4.006C201.658,175.529,199.841,172.957,197.947,170.276z
		 M388.289,429.263c0.075,0.86,0.604,0.949,0.996,1.161c7.562,4.092,15.251,7.969,22.63,12.366c2.866,1.708,4.466,1.17,6.607-0.846
		c1.552-1.46,2.155-2.61,1.296-4.722c-2.183-5.358-4.096-10.826-6.175-16.228c-1.292-3.356-2.229-6.867-4.109-10.313
		c-1.852,1.692-3.896,2.947-4.975,4.773c-0.667,1.13,0.819,2.886,1.437,4.322c0.327,0.759,0.051,1.181-0.525,1.659
		c-1.075,0.891-2.056,1.895-3.113,2.807c-3.851,3.322-3.855,3.313-8.42,0.788c-0.146-0.081-0.336-0.084-0.663-0.16
		C391.611,426.336,389.885,427.858,388.289,429.263z M452.56,326.559c0.517-0.045,0.894-0.016,1.232-0.117
		c8.055-2.41,16.12-4.788,24.152-7.273c4.874-1.508,4.78-1.586,4.915-6.768c0.034-1.313-0.527-1.878-1.508-2.323
		c-6.965-3.165-13.925-6.338-20.906-9.465c-1.912-0.856-3.663-2.189-6.031-2.313c-0.177,1.792-0.272,3.468-0.527,5.119
		c-0.19,1.231,0.196,2.109,1.366,2.34c3.878,0.765,4.491,3.181,3.613,6.566c-0.276,1.069-0.276,2.24-0.227,3.355
		c0.079,1.753-0.78,2.709-2.402,2.798c-3.073,0.167-3.926,1.911-3.693,4.653C452.638,324.235,452.56,325.353,452.56,326.559z
		 M475.803,354.443c-0.814-0.731-1.565-0.335-2.269-0.266c-6.438,0.641-12.873,1.302-19.309,1.962
		c-2.692,0.276-3.854-1.031-3.127-3.653c0.29-1.044,0.821-2.021,1.273-3.101c-1.733-0.74-3.355-1.64-5.172-1.8
		c-4.196,5.664-3.945,10.074,0.941,14.754c5.397,5.169,10.905,10.223,16.356,15.334c0.528,0.495,0.883,1.249,1.834,1.081
		c0.9-0.9,0.867-2.235,1.457-3.287c1.211-2.159,1.051-3.746-1.229-5.362c-2.954-2.094-5.538-4.711-8.683-7.453
		c2.723-0.201,4.775-0.36,6.829-0.503c2.151-0.149,4.304-0.298,6.457-0.419c1.045-0.06,2.052-0.048,2.483-1.326
		C474.328,358.383,475.093,356.393,475.803,354.443z M139.422,206.538c2.761,1.99,5.233,3.822,7.757,5.579
		c4.21,2.931,6.981,2.575,10.662-1.044c2.267-2.228,3.565-5.171,5.754-7.678c3.17,2.26,6.195,4.417,9.267,6.606
		c1.807-1.548,2.767-3.605,4.337-5.498c-7.94-5.763-15.836-11.494-23.886-17.336c-1.183,2.228-2.953,3.651-3.694,5.936
		c3.004,2.229,5.979,4.437,9.124,6.771c-0.822,1.25-1.5,2.351-2.248,3.403c-2.556,3.594-4.15,3.888-7.658,1.42
		c-1.731-1.218-3.291-2.699-5.412-3.626C142.107,202.869,140.848,204.589,139.422,206.538z M453.281,290.74
		c7.826-0.648,15.433-1.278,23.111-1.915c0.84,2.86,0.656,5.686,1.117,8.498c1.91,0.017,3.658,0.132,5.657-0.52
		c-0.699-8.081-1.396-16.136-2.107-24.374c-2.146,0.31-3.944-0.078-5.773,0.895c0.255,2.674,0.508,5.347,0.796,8.379
		c-7.856,0.723-15.55,1.43-23.518,2.164C452.81,286.211,453.027,288.305,453.281,290.74z M113.115,302.598
		c0.554,8.021,1.106,16.009,1.657,23.987c1.969,0,3.706,0,5.543,0c0-3.056,0-5.9,0-8.824c7.72-0.557,15.26-1.102,22.881-1.652
		c0.19-2.45-0.137-4.621-0.515-6.96c-7.788,0.537-15.404,1.06-23.223,1.599c-0.218-3.08-0.413-5.843-0.619-8.751
		C116.84,302.015,115.091,301.974,113.115,302.598z M258.483,476.163c1.184-7.695,3.789-14.863,5.261-22.188
		c-1.562-1.079-3.149-0.965-4.526-1.484c-1.675-0.632-2.349-0.117-2.702,1.586c-0.702,3.387-1.558,6.743-2.41,10.097
		c-0.885,3.486-1.841,6.955-2.733,10.307c-3.098-0.062-5.552-1.584-8.411-1.525c-0.737,1.744-1.286,3.473-1.139,5.43
		c7.893,1.966,15.65,3.896,23.503,5.853c0.511-1.931,0.958-3.616,1.401-5.29C264.085,477.381,261.053,477.693,258.483,476.163z
		 M350.508,130.667c4.187,1.319,7.991,2.519,11.75,3.703c1.176-1.798,1.425-3.531,1.822-5.471
		c-6.187-1.999-12.262-3.962-18.485-5.974c-3.067,9.439-6.032,18.565-8.994,27.678c2.163,1.142,4.317,1.616,6.615,2.3
		C345.659,145.452,348.043,138.186,350.508,130.667z M380.896,433.452c5.356,8.258,10.605,16.349,15.885,24.486
		c2.203-1.179,4.108-2.258,5.845-3.938c-5.283-8.128-10.501-16.155-15.833-24.356C384.755,430.959,382.977,432.108,380.896,433.452z
		 M298.318,479.882c3.49-0.049,6.141-2.793,6.08-6.294c-0.06-3.452-2.85-6.146-6.313-6.098c-3.418,0.049-6.146,2.89-6.078,6.329
		C292.078,477.324,294.793,479.932,298.318,479.882z M393.635,462.973c0.76,1.725,1.491,3.159,2.909,4.173
		c1.644-1.242,3.508-1.957,4.955-3.55c-0.848-1.315-1.687-2.615-2.627-4.074C397.034,460.733,395.363,461.833,393.635,462.973z
		 M403.52,456.556c0.591,1.664,1.579,2.849,2.562,4.226c1.919-1.054,3.737-2.024,5.271-3.656c-0.87-1.329-1.665-2.543-2.466-3.766
		C406.794,454.035,405.371,455.388,403.52,456.556z"/>
	<path fill-rule="evenodd" clip-rule="evenodd" fill="#FD0101" d="M298.137,439.287c-75.824,0.079-136.75-61.346-137.402-136.085
		c-0.674-77.252,61.713-138.375,136.427-138.836c76.667-0.474,138.423,61.489,138.47,136.887
		C435.68,377.909,374.502,439.259,298.137,439.287z M298.243,170.602c-72.167,0.122-131.266,58.376-131.258,131.272
		c0.008,72.523,58.84,131.244,131.236,131.17c72.854-0.074,131.134-58.921,131.166-131.112
		C429.419,229.542,371.083,170.907,298.243,170.602z"/>
	<path fill-rule="evenodd" clip-rule="evenodd" fill="#FD0101" d="M165.39,399.917c2.745-1.888,5.347-3.677,8.151-5.605
		c2.57,3.784,5.079,7.438,8.377,10.445c1.212,1.105,0.5,2.286-0.227,3.237c-1.629,2.131-1.267,3.847,0.772,5.432
		c0.656,0.51,1.266,1.136,1.738,1.819c1.804,2.606,3.795,3.977,6.843,1.663c0.844-0.641,1.835-0.562,2.671,0.536
		c1.061,1.395,2.389,2.586,3.907,4.187c-3.753,1.548-7.163,2.954-10.571,4.361c-5.479,2.264-11.006,4.419-16.406,6.857
		c-1.688,0.763-2.571,0.389-3.538-0.863c-0.456-0.591-0.974-1.149-1.539-1.636c-1.382-1.191-1.629-2.282-0.684-4.086
		c3.384-6.457,6.526-13.042,9.737-19.591c0.914-1.863,1.751-3.763,2.182-6.066c-7.674,5.356-15.349,10.713-23.26,16.235
		c-3.279-4.714-6.962-9.081-9.552-14.134c-2.408-4.698-1.092-8.721,3.268-11.711c4.343-2.978,8.774-2.599,12.335,1.35
		C161.647,394.622,163.343,397.216,165.39,399.917z M160.417,403.418c-1.443-2.307-2.639-4.311-4.328-5.933
		c-1.541-1.479-3.186-1.295-4.783,0.014c-1.475,1.209-2.097,2.6-1.004,4.391c1.208,1.979,2.438,3.94,4.125,5.71
		C156.379,406.237,158.274,404.914,160.417,403.418z M172.42,424.776c0.203,0.148,0.405,0.296,0.607,0.444
		c3.055-1.403,6.11-2.808,9.381-4.311c-1.792-1.865-3.085-3.674-5.063-5.002C175.663,418.937,174.042,421.856,172.42,424.776z"/>
	<path fill-rule="evenodd" clip-rule="evenodd" fill="#FD0101" d="M142.614,298.595c-9.677-0.861-19.165-1.705-28.585-2.542
		c-0.781-0.8-0.439-1.679-0.376-2.474c0.327-4.112,0.7-8.22,1.071-12.329c0.493-5.461,3.163-8.305,7.652-8.253
		c2.962,0.034,4.942,1.454,6.058,4.106c1.047,0.186,0.958-0.791,1.299-1.226c2.177-2.78,5.062-3.809,8.443-2.896
		c3.413,0.921,5.402,3.197,5.679,6.82c0.157,2.049,0.126,4.131-0.031,6.182C143.509,290.074,143.049,294.152,142.614,298.595z
		 M137.516,290.993c0.24-2.605,0.593-4.996,0.64-7.393c0.037-1.845-0.88-3.231-2.92-3.461c-1.956-0.221-3.054,0.923-3.334,2.636
		c-0.412,2.526-0.536,5.099-0.789,7.716C133.443,290.673,135.361,290.824,137.516,290.993z M120.025,289.467
		c2.037,0.009,3.722,0.761,5.632,0.156c0.136-2.044,0.295-3.99,0.387-5.939c0.085-1.797-0.524-3.187-2.534-3.375
		c-2.07-0.195-2.827,1.245-3.054,2.927C120.194,285.171,120.174,287.139,120.025,289.467z"/>
	<path fill-rule="evenodd" clip-rule="evenodd" fill="#FD0101" d="M193.305,436.992c-1.837-2.916-2.22-5.685-0.721-8.507
		c2.111-3.972,6.42-5.376,10.578-3.301c5.469,2.729,9.889,6.997,15.345,10.481c-5.788,7.979-11.456,15.793-17.337,23.901
		c-4.693-3.509-9.312-6.778-13.711-10.321c-2.333-1.878-3.293-4.536-2.254-7.576C186.476,437.949,189.174,436.439,193.305,436.992z
		 M209.327,436.335c-2.132-1.53-4.046-2.993-6.051-4.315c-1.583-1.044-3.126-1.038-4.461,0.585
		c-1.421,1.729-0.753,3.211,0.627,4.384c1.887,1.605,3.954,3,6.048,4.562C206.792,439.781,207.946,438.211,209.327,436.335z
		 M202.254,446.091c-2.065-1.503-3.816-2.888-5.681-4.1c-1.399-0.908-2.749-0.461-3.722,0.799c-0.942,1.221-0.729,2.409,0.386,3.492
		c1.674,1.628,3.645,2.826,5.692,4.247C200.006,449.093,201.006,447.758,202.254,446.091z"/>
	<path fill-rule="evenodd" clip-rule="evenodd" fill="#FD0101" d="M220.193,166.615c-4.061-9.097-7.96-17.831-11.943-26.753
		c5.258-2.519,10.349-5.08,15.739-6.871c2.948-0.979,5.938-0.679,8.052,2.236c1.976,2.722,2.022,4.837-0.06,8.886
		c3.294-0.138,5.926,1.021,7.528,3.938c2.325,4.234,1.333,8.046-2.979,10.813C231.562,162.053,225.887,163.771,220.193,166.615z
		 M224.244,158.322c2.375-1.051,4.513-1.923,6.582-2.937c1.795-0.88,2.73-2.377,1.881-4.334c-0.793-1.828-2.364-2.207-4.214-1.532
		c-2.308,0.842-4.634,1.638-6.817,3.093C222.495,154.433,223.284,156.186,224.244,158.322z M219.608,147.35
		c2.235-1.072,4.291-1.958,6.245-3.031c1.315-0.722,1.793-2.102,1.053-3.375c-0.715-1.228-1.705-2.137-3.58-1.395
		c-2.073,0.82-4.094,1.69-6.2,2.749c0.546,1.284,1.033,2.482,1.568,3.658C218.881,146.367,219.19,146.722,219.608,147.35z"/>
	<path fill-rule="evenodd" clip-rule="evenodd" fill="#FD0101" d="M352.347,478.662c-1.717-5.864-3.331-11.379-4.946-16.894
		c-0.182-0.006-0.362-0.012-0.543-0.018c-1.454,5.06-2.869,10.13-4.372,15.175c-1.657,5.567-1.692,5.558-8.077,6.464
		c-2.641-9.178-5.293-18.398-7.998-27.799c2.197-0.786,4.235-1.59,6.729-1.863c1.664,5.65,3.311,11.247,5.194,17.645
		c1.736-6.117,3.529-11.325,4.618-16.676c0.71-3.485,2.279-5.282,5.72-5.635c0.632-0.065,1.237-0.386,2.218-0.709
		c2.694,9.337,5.354,18.549,8.047,27.883C357.091,477.687,354.686,477.519,352.347,478.662z"/>
	<path fill-rule="evenodd" clip-rule="evenodd" fill="#FD0101" d="M148.932,375.586c-4.365-0.622-7.862-1.127-11.361-1.615
		c-1.577-0.219-3.176-0.658-4.736-0.555c-5.044,0.332-6.997-2.717-8.059-7.282c8.706-3.871,17.512-7.786,26.556-11.807
		c1,2.221,1.895,4.206,2.879,6.392c-5.483,2.46-10.724,4.813-16.233,7.285c1.768,1.132,3.5,0.994,5.092,1.228
		c3.983,0.585,7.993,0.99,11.995,1.441c2.354,0.266,4.664,0.342,4.977,3.648c0.084,0.884,1.128,1.846,1.543,3.384
		c-8.774,3.92-17.583,7.856-26.48,11.831c-1.632-1.756-1.613-4.153-3.112-6.269C137.58,380.733,142.859,378.339,148.932,375.586z"/>
	<path fill-rule="evenodd" clip-rule="evenodd" fill="#FD0101" d="M270.131,138.697c0.015,8.348-6.568,14.305-15.793,14.29
		c-7.982-0.013-14.272-7.468-14.355-17.014c-0.072-8.261,6.571-14.319,15.76-14.373
		C264.068,121.551,270.113,128.734,270.131,138.697z M262.685,139.485c0.003-2.535-0.889-5.862-2.16-8.054
		c-1.865-3.215-4.482-4.422-7.712-3.556c-3.792,1.016-5.354,3.122-5.347,7.136c0.005,2.781,0.774,5.369,2.044,7.794
		c1.852,3.538,4.369,4.653,8.083,3.733C260.987,145.697,262.68,143.353,262.685,139.485z"/>
	<path fill-rule="evenodd" clip-rule="evenodd" fill="#FD0101" d="M150.692,252.535c-0.083,9.276-6.003,15.597-14.529,15.467
		c-7.651-0.117-16.981-5.139-16.729-14.484c0.244-9.049,6.114-15.991,14.165-15.715
		C143.129,238.128,151.244,243.645,150.692,252.535z M133.983,245.354c-4.67-0.12-7.159,1.491-8.085,4.592
		c-1.122,3.753-0.123,6.313,3.331,8.367c2.371,1.411,4.99,2.09,7.714,2.311c3.669,0.297,6.201-1.361,7.344-4.698
		c1.146-3.347,0.164-6.103-3.033-8.141C138.762,246.196,136.002,245.376,133.983,245.354z"/>
	<path fill-rule="evenodd" clip-rule="evenodd" fill="#FD0101" d="M335.392,132.57c-0.117,10.191-5.706,16.195-14.972,16.081
		c-9.076-0.111-14.825-5.834-14.831-14.764c-0.006-9.906,5.784-16.322,14.652-16.237C329.781,117.741,335.497,123.37,335.392,132.57
		z M327.89,131.837c-0.062-4.573-1.862-7.311-5.097-8.038c-3.939-0.885-6.833,0.309-8.298,3.852c-1.258,3.043-1.878,6.29-1.11,9.614
		c0.775,3.361,2.918,5.264,6.177,5.593c3.136,0.317,5.537-1.291,7.019-4.47C327.604,136.191,327.604,133.851,327.89,131.837z"/>
	<path fill-rule="evenodd" clip-rule="evenodd" fill="#FD0101" d="M360.18,151.895c0.105-9.075,7.321-17.151,15.234-17.051
		c8.373,0.106,15.59,6.713,15.541,14.227c-0.06,9.091-7.234,17.276-15.094,17.218C367.387,166.228,360.091,159.531,360.18,151.895z
		 M383.816,148.522c-0.021-3.457-1.501-5.272-3.759-6.54c-2.404-1.35-4.938-1.546-7.089,0.291c-3.36,2.869-5.52,6.512-5.604,11.068
		c-0.052,2.823,1.502,4.698,3.993,5.902c2.3,1.111,4.552,1.157,6.607-0.417C381.575,156.062,382.977,152.072,383.816,148.522z"/>
	<path fill-rule="evenodd" clip-rule="evenodd" fill="#FD0101" d="M243.713,455.172c0.054,9.173-6.933,17.394-14.787,17.397
		c-8.376,0.005-15.866-6.598-15.77-14.164c0.1-7.786,5.654-17.379,14.742-17.41C236.468,440.966,243.668,447.42,243.713,455.172z
		 M236.476,454.451c0.229-2.856-0.982-4.85-3.468-6.195c-2.678-1.45-5.32-1.482-7.568,0.584c-3.144,2.89-4.953,6.548-5.018,10.897
		c-0.046,3.149,1.854,4.953,4.566,6.074c2.492,1.03,4.838,0.707,6.748-1.187C234.548,461.836,236.196,458.437,236.476,454.451z"/>
	<path fill-rule="evenodd" clip-rule="evenodd" fill="#FD0101" d="M158.506,180.689c5.401-5.609,10.638-11.048,16.086-16.705
		c1.435,1.367,2.75,2.619,4.615,4.396c-4.104,3.479-8.079,6.85-12.054,10.22c0.268,0.272,0.536,0.545,0.804,0.818
		c-0.06,0.77,0.583,1.151,1.003,1.583c2.512,2.586,2.826,2.507,5.467-0.16c2.356-2.38,4.841-4.634,7.41-7.079
		c1.27,0.702,2.338,2.098,3.667,3.519c-3.22,3.391-6.404,6.743-9.445,9.945c1.509,1.574,2.844,2.967,4.205,4.387
		c3.894-3.766,7.753-7.5,11.744-11.359c1.139,1.238,2.371,2.576,4.095,4.449c-5.632,5.064-11.378,10.23-17.295,15.551
		C172.517,194.193,165.658,187.583,158.506,180.689z"/>
	<path fill-rule="evenodd" clip-rule="evenodd" fill="#FD0101" d="M434.533,226.008c8.956-4.176,17.625-8.217,26.607-12.405
		c3.269,7.082,6.442,13.954,9.677,20.959c-1.7,0.944-3.23,1.948-5.271,2.26c-2.227-4.703-4.406-9.305-6.634-14.009
		c-1.939,0.152-3.457,1.186-5.163,2.232c1.887,4.188,3.745,8.313,5.619,12.473c-0.874,1.453-2.619,1.294-3.804,2.168
		c-1.061,0.782-1.479-0.627-1.857-1.432c-1.663-3.546-3.304-7.103-5.017-10.793c-2.011,0.562-3.855,1.249-5.776,2.578
		c2.247,4.91,4.48,9.787,6.828,14.915c-1.745,0.82-3.306,1.554-5.258,2.471C441.174,240.3,437.937,233.332,434.533,226.008z"/>
	<path fill-rule="evenodd" clip-rule="evenodd" fill="#FD0101" d="M355.728,447.375c1.768-1.517,3.896-2.256,6.077-3.46
		c1.973,3.614,3.918,7.181,5.969,10.941c3.075-1.622,5.949-3.139,8.918-4.704c-0.949-3.431-3.22-6.102-4.636-9.194
		c-0.798-1.742-0.681-2.45,1.087-3.117c1.368-0.516,2.612-1.359,4.096-2.157c4.603,8.615,9.104,17.042,13.623,25.502
		c-1.114,1.56-2.905,1.818-4.25,2.751c-1.271,0.882-2.103,0.579-2.805-0.902c-1.23-2.599-2.688-5.089-4.146-7.803
		c-3.094,1.638-5.961,3.156-9.102,4.819c1.658,3.248,3.235,6.339,4.833,9.468c-1.642,1.682-3.834,2.143-5.899,3.647
		C364.866,464.498,360.321,455.982,355.728,447.375z"/>
	<path fill-rule="evenodd" clip-rule="evenodd" fill="#FD0101" d="M292.6,128.095c-0.248-3.804-0.47-7.228-0.704-10.833
		c2.362-0.264,4.532-0.639,6.957-0.422c0.646,9.244,1.28,18.391,1.933,27.536c0.076,1.07-0.394,1.559-1.424,1.623
		c-1.75,0.106-3.499,0.227-5.404,0.351c-0.338-4.273-0.653-8.242-0.984-12.431c-3.591,0.187-6.923,0.075-10.421,0.813
		c0.309,4.095,0.602,7.987,0.907,12.041c-2.269,0.809-4.49,0.578-6.992,0.785c-0.689-9.779-1.365-19.36-2.059-29.215
		c2.408-0.138,4.511-0.259,6.874-0.395c0.338,3.574,0.661,6.981,1.01,10.67C285.693,128.445,288.928,128.281,292.6,128.095z"/>
	<path fill-rule="evenodd" clip-rule="evenodd" fill="#FD0101" d="M470.762,269.148c-1.11-2.054-1.339-4.124-1.974-6.289
		c2.127-1.632,4.033-3.466,3.25-6.672c-0.885-3.621-3.245-5.635-7.077-5.416c-3.49,0.199-6.807,1.03-9.633,3.363
		c-2.037,1.683-2.489,3.797-2.095,6.178c0.396,2.381,1.627,4.574,4.146,4.687c2.92,0.13,3.432,1.935,3.97,4.027
		c0.228,0.884,0.379,1.788,0.563,2.672c-4.922,1.374-9.739-0.492-12.368-4.91c-2.164-3.637-3.134-7.637-2.564-11.867
		c0.491-3.646,2.506-6.38,5.635-8.292c2.926-1.789,6.154-2.808,9.512-3.208c9.943-1.184,17.664,7.133,15.943,17.058
		C477.336,264.711,474.9,267.536,470.762,269.148z"/>
	<path fill-rule="evenodd" clip-rule="evenodd" fill="#FD0101" d="M124.959,329.638c1.044,1.658,0.878,3.533,1.448,5.207
		c0.335,0.986-0.375,1.462-1.146,1.967c-2.369,1.552-2.813,3.807-2.102,6.407c0.745,2.725,2.541,4.341,5.303,4.738
		c3.144,0.451,6.18-0.13,9.028-1.491c3.272-1.563,4.902-4.147,4.587-7.02c-0.377-3.437-1.992-4.878-6.893-6.011
		c-0.464-1.954-0.95-4-1.432-6.029c4.422-1.417,9.66,0.808,12.052,5.12c1.611,2.904,2.504,6.098,2.463,9.421
		c-0.06,4.739-2.011,8.506-6.34,10.792c-4.993,2.634-10.285,3.654-15.755,2.061c-5.99-1.745-8.296-6.561-9.067-12.244
		c-0.662-4.88,0.503-9.138,5.042-11.88c0.475-0.287,0.971-0.553,1.488-0.75C124.051,329.769,124.514,329.73,124.959,329.638z"/>
	<path fill-rule="evenodd" clip-rule="evenodd" fill="#FD0101" d="M419.464,161.953c1.921,1.9,3.495,3.466,5.078,5.022
		c0.826,0.812,0.494,1.68,0.226,2.601c-0.781,2.688-1.51,5.391-2.353,8.426c2.96-0.058,5.521-1.003,8.075-1.707
		c1.88-0.518,3.146-0.375,4.298,1.288c0.989,1.426,2.691,2.284,3.557,4.226c-5.43,1-10.728,1.977-15.977,2.943
		c-1.975,5.619-1.958,11.638-4.692,17.806c-1.839-2.07-3.203-3.703-4.678-5.228c-0.813-0.84-0.601-1.643-0.351-2.578
		c0.794-2.96,1.536-5.935,2.356-9.133c-3.199-0.09-5.911,1.014-8.656,1.646c-1.967,0.452-3.157,0.123-4.361-1.374
		c-1.154-1.434-2.521-2.698-4.169-4.434c4.944-0.863,9.395-1.771,13.886-2.378c2.889-0.391,4.678-1.164,5.038-4.608
		C417.166,170.41,418.447,166.438,419.464,161.953z"/>
	<path fill-rule="evenodd" clip-rule="evenodd" fill="#FD0101" d="M425.95,392.031c1.402-2.576,2.495-4.615,3.62-6.638
		c0.718-1.292,2.05-1.125,3.23-1.265c4.547-0.542,9.096-1.067,14.555-1.705c-4.475-2.547-8.216-4.676-12.08-6.876
		c0.721-1.656,1.257-3.238,2.066-4.665c1.042-1.837,2.601-0.688,3.659-0.123c4.833,2.584,9.553,5.379,14.341,8.048
		c2.818,1.571,5.689,3.049,8.625,4.616c-0.848,2.345-2.048,4.195-3.216,6.037c-3.503-1.066-6.106-3.997-10.252-4.375
		c1.552,3.848,2.766,7.359,4.377,10.675c0.998,2.052,0.78,3.643-0.432,5.396c-0.882,1.277-1.585,2.677-2.611,4.438
		c-1.777-4.987-3.498-9.489-4.964-14.072c-0.676-2.11-1.589-2.678-3.829-2.241C437.63,390.338,432.154,391.057,425.95,392.031z"/>
	<path fill-rule="evenodd" clip-rule="evenodd" fill="#FD0101" d="M427.967,404.574c-2.402-2.08-4.771-4.133-7.228-6.26
		c0.848-2.207,2.841-3.423,4.136-5.635c7.583,6.358,14.965,12.548,22.615,18.963c-3.99,4.445-7.129,9.324-11.543,13.057
		c-3.804,3.217-7.812,3.017-11.68-0.204c-3.968-3.305-4.773-7.316-2.456-11.719C423.389,409.778,426.023,407.587,427.967,404.574z
		 M432.518,408.48c-1.494,1.875-3.052,3.584-4.316,5.488c-1.143,1.721-0.639,3.4,0.936,4.696c1.588,1.309,3.169,1.317,4.781-0.05
		c4.946-4.199,4.954-5.267-0.042-9.174C433.521,409.163,433.14,408.918,432.518,408.48z"/>
	<path fill-rule="evenodd" clip-rule="evenodd" fill="#FD0101" d="M431.044,203.505c-2.763,1.96-5.324,3.777-7.955,5.644
		c-1.635-1.814-3.032-3.508-4.064-5.684c7.813-5.673,15.563-11.299,23.578-17.119c3.493,5.352,7.966,9.705,10.321,15.465
		c1.641,4.013,0.308,7.248-3.549,10.19c-3.011,2.296-7.997,3.077-11.016,0.409C435.521,209.901,433.682,206.636,431.044,203.505z
		 M441.827,195.652c-2.09,1.505-4.103,2.955-6.129,4.415c1.528,1.916,2.888,3.796,4.436,5.507c1.524,1.686,3.354,1.452,4.988,0.148
		c1.553-1.239,2.091-2.774,0.823-4.634C444.702,199.265,443.544,197.385,441.827,195.652z"/>
	<path fill-rule="evenodd" clip-rule="evenodd" fill="#FD0101" d="M197.947,170.276c1.894,2.681,3.711,5.253,5.645,7.991
		c-1.912,1.327-3.715,2.577-5.774,4.006c-5.64-8.039-11.141-15.879-16.835-23.996c5.205-3.311,9.661-7.626,15.373-9.989
		c4.086-1.689,7.833-0.248,10.433,3.604c2.717,4.025,2.655,8.08-0.16,11.371C204.236,166.059,200.81,167.585,197.947,170.276z
		 M194.478,165.158c2.187-1.443,4.297-2.6,5.948-4.4c1.476-1.611,1.145-3.217-0.132-4.778c-1.225-1.497-2.645-1.999-4.397-0.888
		c-1.941,1.23-3.935,2.389-5.628,4.125C191.677,161.206,193.009,163.085,194.478,165.158z"/>
	<path fill-rule="evenodd" clip-rule="evenodd" fill="#FD0101" d="M388.289,429.263c1.596-1.405,3.322-2.927,4.985-4.393
		c0.327,0.076,0.518,0.079,0.663,0.16c4.564,2.525,4.569,2.534,8.42-0.788c1.058-0.912,2.038-1.916,3.113-2.807
		c0.576-0.478,0.853-0.899,0.525-1.659c-0.617-1.436-2.104-3.191-1.437-4.322c1.078-1.826,3.123-3.081,4.975-4.773
		c1.881,3.446,2.817,6.957,4.109,10.313c2.079,5.401,3.992,10.869,6.175,16.228c0.859,2.111,0.256,3.262-1.296,4.722
		c-2.142,2.016-3.741,2.554-6.607,0.846c-7.379-4.397-15.068-8.274-22.63-12.366C388.893,430.212,388.364,430.124,388.289,429.263z
		 M403.177,430.386c2.912,2.263,6.027,3.564,9.056,5.122c-1.234-3.227-1.807-6.637-4.216-9.436
		C406.372,427.539,404.88,428.869,403.177,430.386z"/>
	<path fill-rule="evenodd" clip-rule="evenodd" fill="#FD0101" d="M452.56,326.559c0-1.206,0.078-2.324-0.016-3.427
		c-0.232-2.743,0.62-4.486,3.693-4.653c1.622-0.088,2.481-1.045,2.402-2.798c-0.05-1.116-0.05-2.287,0.227-3.355
		c0.878-3.386,0.265-5.802-3.613-6.566c-1.17-0.231-1.557-1.109-1.366-2.34c0.255-1.651,0.351-3.327,0.527-5.119
		c2.368,0.124,4.119,1.457,6.031,2.313c6.981,3.127,13.941,6.3,20.906,9.465c0.98,0.445,1.542,1.01,1.508,2.323
		c-0.135,5.182-0.041,5.26-4.915,6.768c-8.032,2.485-16.098,4.863-24.152,7.273C453.453,326.543,453.076,326.514,452.56,326.559z
		 M473.7,314.034c0.041-0.188,0.083-0.377,0.124-0.565c-3.144-1.292-6.288-2.585-9.816-4.036c-0.003,2.651-0.521,4.799,0.026,7.166
		C467.391,315.708,470.545,314.871,473.7,314.034z"/>
	<path fill-rule="evenodd" clip-rule="evenodd" fill="#FD0101" d="M475.803,354.443c-0.71,1.95-1.475,3.94-2.156,5.96
		c-0.432,1.278-1.438,1.267-2.483,1.326c-2.153,0.122-4.306,0.27-6.457,0.419c-2.054,0.143-4.106,0.302-6.829,0.503
		c3.145,2.742,5.729,5.359,8.683,7.453c2.28,1.616,2.44,3.203,1.229,5.362c-0.59,1.052-0.557,2.387-1.457,3.287
		c-0.951,0.168-1.306-0.586-1.834-1.081c-5.451-5.111-10.959-10.165-16.356-15.334c-4.887-4.68-5.138-9.091-0.941-14.754
		c1.816,0.16,3.438,1.061,5.172,1.8c-0.452,1.08-0.983,2.057-1.273,3.101c-0.728,2.622,0.435,3.929,3.127,3.653
		c6.436-0.66,12.871-1.321,19.309-1.962C474.237,354.107,474.988,353.711,475.803,354.443z"/>
	<path fill-rule="evenodd" clip-rule="evenodd" fill="#FD0101" d="M139.422,206.538c1.426-1.949,2.685-3.669,4.002-5.468
		c2.122,0.927,3.681,2.409,5.412,3.626c3.508,2.468,5.103,2.174,7.658-1.42c0.748-1.052,1.426-2.153,2.248-3.403
		c-3.145-2.334-6.12-4.542-9.124-6.771c0.742-2.285,2.511-3.708,3.694-5.936c8.05,5.843,15.945,11.573,23.886,17.336
		c-1.57,1.893-2.53,3.95-4.337,5.498c-3.072-2.19-6.097-4.347-9.267-6.606c-2.189,2.507-3.488,5.451-5.754,7.678
		c-3.681,3.619-6.451,3.975-10.662,1.044C144.655,210.36,142.183,208.528,139.422,206.538z"/>
	<path fill-rule="evenodd" clip-rule="evenodd" fill="#FD0101" d="M453.281,290.74c-0.254-2.435-0.472-4.529-0.717-6.874
		c7.968-0.733,15.661-1.441,23.518-2.164c-0.288-3.032-0.541-5.705-0.796-8.379c1.829-0.973,3.628-0.585,5.773-0.895
		c0.712,8.237,1.408,16.293,2.107,24.374c-1.999,0.652-3.747,0.537-5.657,0.52c-0.461-2.812-0.277-5.637-1.117-8.498
		C468.714,289.461,461.107,290.091,453.281,290.74z"/>
	<path fill-rule="evenodd" clip-rule="evenodd" fill="#FD0101" d="M113.115,302.598c1.976-0.624,3.725-0.583,5.725-0.602
		c0.206,2.908,0.401,5.672,0.619,8.751c7.819-0.539,15.436-1.062,23.223-1.599c0.377,2.34,0.705,4.51,0.515,6.96
		c-7.621,0.55-15.162,1.095-22.881,1.652c0,2.923,0,5.768,0,8.824c-1.838,0-3.574,0-5.543,0
		C114.221,318.607,113.669,310.62,113.115,302.598z"/>
	<path fill-rule="evenodd" clip-rule="evenodd" fill="#FD0101" d="M258.483,476.163c2.57,1.53,5.602,1.219,8.245,2.784
		c-0.443,1.674-0.89,3.359-1.401,5.29c-7.854-1.956-15.61-3.887-23.503-5.853c-0.147-1.957,0.402-3.686,1.139-5.43
		c2.858-0.059,5.313,1.464,8.411,1.525c0.892-3.352,1.848-6.82,2.733-10.307c0.852-3.354,1.708-6.71,2.41-10.097
		c0.353-1.703,1.026-2.218,2.702-1.586c1.377,0.52,2.965,0.405,4.526,1.484C262.272,461.299,259.667,468.467,258.483,476.163z"/>
	<path fill-rule="evenodd" clip-rule="evenodd" fill="#FD0101" d="M350.508,130.667c-2.465,7.519-4.849,14.784-7.292,22.235
		c-2.298-0.684-4.452-1.158-6.615-2.3c2.962-9.113,5.927-18.238,8.994-27.678c6.224,2.011,12.299,3.975,18.485,5.974
		c-0.397,1.94-0.646,3.673-1.822,5.471C358.499,133.186,354.694,131.987,350.508,130.667z"/>
	<path fill-rule="evenodd" clip-rule="evenodd" fill="#FD0101" d="M380.896,433.452c2.081-1.344,3.859-2.492,5.896-3.808
		c5.332,8.201,10.55,16.229,15.833,24.356c-1.736,1.68-3.642,2.759-5.845,3.938C391.501,449.8,386.252,441.709,380.896,433.452z"/>
	<path fill-rule="evenodd" clip-rule="evenodd" fill="#FD0101" d="M298.318,479.882c-3.525,0.05-6.24-2.559-6.31-6.063
		c-0.068-3.439,2.66-6.28,6.078-6.329c3.463-0.049,6.253,2.646,6.313,6.098C304.459,477.089,301.809,479.833,298.318,479.882z"/>
	<path fill-rule="evenodd" clip-rule="evenodd" fill="#FD0101" d="M393.635,462.973c1.729-1.14,3.399-2.24,5.237-3.451
		c0.94,1.459,1.779,2.759,2.627,4.074c-1.447,1.593-3.312,2.308-4.955,3.55C395.126,466.132,394.395,464.698,393.635,462.973z"/>
	<path fill-rule="evenodd" clip-rule="evenodd" fill="#FD0101" d="M403.52,456.556c1.852-1.168,3.274-2.521,5.367-3.196
		c0.801,1.223,1.596,2.437,2.466,3.766c-1.534,1.632-3.353,2.603-5.271,3.656C405.099,459.405,404.11,458.22,403.52,456.556z"/>
	<path fill-rule="evenodd" clip-rule="evenodd" fill="#FEFDFD" d="M298.243,170.602c72.84,0.305,131.176,58.94,131.145,131.331
		c-0.032,72.19-58.312,131.038-131.166,131.112c-72.396,0.073-131.228-58.647-131.236-131.17
		C166.978,228.979,226.076,170.724,298.243,170.602z M265.377,269.169c-22.704,0-44.965,0-67.182,0c0,21.991,0,43.625,0,65.598
		c22.443,0,44.715,0,67.337,0c0,22.602,0,44.865,0,67.085c21.989,0,43.621,0,65.597,0c0-22.44,0-44.712,0-67.337
		c22.604,0,44.865,0,67.087,0c0-21.991,0-43.624,0-65.599c-22.439,0-44.711,0-67.337,0c0-22.602,0-44.863,0-67.084
		c-21.992,0-43.625,0-65.502,0C265.377,224.206,265.377,246.41,265.377,269.169z"/>
	<path fill-rule="evenodd" clip-rule="evenodd" fill="#FEFDFD" d="M160.417,403.418c-2.143,1.496-4.038,2.819-5.99,4.182
		c-1.688-1.77-2.918-3.731-4.125-5.71c-1.093-1.791-0.471-3.181,1.004-4.391c1.598-1.309,3.243-1.494,4.783-0.014
		C157.778,399.107,158.974,401.111,160.417,403.418z"/>
	<path fill-rule="evenodd" clip-rule="evenodd" fill="#FEFDFD" d="M172.42,424.776c1.622-2.919,3.243-5.839,4.925-8.869
		c1.978,1.328,3.271,3.138,5.063,5.002c-3.271,1.503-6.326,2.908-9.381,4.311C172.825,425.072,172.623,424.924,172.42,424.776z"/>
	<path fill-rule="evenodd" clip-rule="evenodd" fill="#FEFDFD" d="M137.516,290.993c-2.155-0.169-4.072-0.319-6.403-0.502
		c0.253-2.617,0.377-5.19,0.789-7.716c0.28-1.712,1.378-2.857,3.334-2.636c2.04,0.23,2.957,1.616,2.92,3.461
		C138.108,285.997,137.756,288.388,137.516,290.993z"/>
	<path fill-rule="evenodd" clip-rule="evenodd" fill="#FEFDFD" d="M120.025,289.467c0.149-2.328,0.169-4.296,0.431-6.232
		c0.228-1.682,0.984-3.122,3.054-2.927c2.01,0.189,2.619,1.579,2.534,3.375c-0.092,1.95-0.251,3.896-0.387,5.939
		C123.748,290.228,122.062,289.477,120.025,289.467z"/>
	<path fill-rule="evenodd" clip-rule="evenodd" fill="#FEFDFD" d="M209.327,436.335c-1.38,1.876-2.535,3.445-3.837,5.215
		c-2.094-1.562-4.161-2.956-6.048-4.562c-1.38-1.173-2.048-2.655-0.627-4.384c1.335-1.623,2.878-1.629,4.461-0.585
		C205.281,433.342,207.195,434.805,209.327,436.335z"/>
	<path fill-rule="evenodd" clip-rule="evenodd" fill="#FEFDFD" d="M202.254,446.091c-1.249,1.667-2.249,3.002-3.325,4.438
		c-2.048-1.421-4.019-2.619-5.692-4.247c-1.115-1.083-1.328-2.271-0.386-3.492c0.973-1.26,2.323-1.707,3.722-0.799
		C198.438,443.204,200.189,444.588,202.254,446.091z"/>
	<path fill-rule="evenodd" clip-rule="evenodd" fill="#FEFDFD" d="M224.244,158.322c-0.96-2.136-1.749-3.889-2.568-5.709
		c2.183-1.456,4.509-2.251,6.817-3.093c1.85-0.675,3.42-0.296,4.214,1.532c0.85,1.957-0.085,3.454-1.881,4.334
		C228.756,156.398,226.618,157.271,224.244,158.322z"/>
	<path fill-rule="evenodd" clip-rule="evenodd" fill="#FEFDFD" d="M219.608,147.35c-0.418-0.628-0.728-0.983-0.915-1.394
		c-0.536-1.175-1.022-2.374-1.568-3.658c2.106-1.058,4.127-1.928,6.2-2.749c1.875-0.743,2.865,0.167,3.58,1.395
		c0.741,1.273,0.262,2.652-1.053,3.375C223.899,145.392,221.844,146.278,219.608,147.35z"/>
	<path fill-rule="evenodd" clip-rule="evenodd" fill="#FEFDFD" d="M262.685,139.485c-0.005,3.868-1.698,6.212-5.093,7.054
		c-3.713,0.92-6.23-0.195-8.083-3.733c-1.27-2.425-2.04-5.014-2.044-7.794c-0.007-4.014,1.555-6.12,5.347-7.136
		c3.23-0.866,5.848,0.341,7.712,3.556C261.795,133.623,262.688,136.95,262.685,139.485z"/>
	<path fill-rule="evenodd" clip-rule="evenodd" fill="#FEFDFD" d="M133.983,245.354c2.019,0.023,4.779,0.842,7.271,2.432
		c3.197,2.038,4.179,4.794,3.033,8.141c-1.144,3.337-3.675,4.996-7.344,4.698c-2.725-0.221-5.343-0.9-7.714-2.311
		c-3.453-2.055-4.452-4.614-3.331-8.367C126.825,246.844,129.313,245.234,133.983,245.354z"/>
	<path fill-rule="evenodd" clip-rule="evenodd" fill="#FEFDFD" d="M327.89,131.837c-0.285,2.014-0.285,4.354-1.31,6.551
		c-1.481,3.18-3.883,4.788-7.019,4.47c-3.259-0.329-5.401-2.232-6.177-5.593c-0.768-3.324-0.147-6.571,1.11-9.614
		c1.465-3.543,4.358-4.737,8.298-3.852C326.027,124.527,327.828,127.265,327.89,131.837z"/>
	<path fill-rule="evenodd" clip-rule="evenodd" fill="#FEFDFD" d="M383.816,148.522c-0.84,3.55-2.241,7.54-5.851,10.304
		c-2.056,1.574-4.308,1.528-6.607,0.417c-2.491-1.204-4.045-3.08-3.993-5.902c0.084-4.556,2.243-8.199,5.604-11.068
		c2.151-1.836,4.685-1.641,7.089-0.291C382.315,143.25,383.795,145.065,383.816,148.522z"/>
	<path fill-rule="evenodd" clip-rule="evenodd" fill="#FEFDFD" d="M236.476,454.451c-0.28,3.986-1.928,7.386-4.74,10.174
		c-1.91,1.894-4.256,2.217-6.748,1.187c-2.712-1.121-4.612-2.925-4.566-6.074c0.064-4.35,1.874-8.008,5.018-10.897
		c2.248-2.066,4.891-2.034,7.568-0.584C235.494,449.601,236.705,451.594,236.476,454.451z"/>
	<path fill-rule="evenodd" clip-rule="evenodd" fill="#FEFDFD" d="M432.518,408.48c0.622,0.438,1.004,0.682,1.358,0.96
		c4.996,3.907,4.988,4.975,0.042,9.174c-1.612,1.368-3.193,1.359-4.781,0.05c-1.574-1.296-2.078-2.975-0.936-4.696
		C429.466,412.065,431.023,410.355,432.518,408.48z"/>
	<path fill-rule="evenodd" clip-rule="evenodd" fill="#FEFDFD" d="M441.827,195.652c1.717,1.733,2.875,3.613,4.118,5.436
		c1.268,1.859,0.729,3.395-0.823,4.634c-1.634,1.303-3.464,1.538-4.988-0.148c-1.548-1.711-2.907-3.591-4.436-5.507
		C437.725,198.607,439.737,197.158,441.827,195.652z"/>
	<path fill-rule="evenodd" clip-rule="evenodd" fill="#FEFDFD" d="M194.478,165.158c-1.469-2.073-2.801-3.953-4.209-5.941
		c1.693-1.737,3.687-2.896,5.628-4.125c1.752-1.111,3.172-0.609,4.397,0.888c1.277,1.561,1.608,3.167,0.132,4.778
		C198.775,162.558,196.665,163.715,194.478,165.158z"/>
	<path fill-rule="evenodd" clip-rule="evenodd" fill="#FEFDFD" d="M403.177,430.386c1.703-1.518,3.195-2.848,4.84-4.313
		c2.409,2.799,2.981,6.209,4.216,9.436C409.204,433.951,406.089,432.649,403.177,430.386z"/>
	<path fill-rule="evenodd" clip-rule="evenodd" fill="#FEFDFD" d="M473.7,314.034c-3.155,0.837-6.31,1.674-9.666,2.564
		c-0.547-2.367-0.029-4.515-0.026-7.166c3.528,1.451,6.673,2.743,9.816,4.036C473.783,313.657,473.741,313.845,473.7,314.034z"/>
	<path fill-rule="evenodd" clip-rule="evenodd" fill="#FD0101" d="M265.377,269.169c0-22.76,0-44.964,0-67.337
		c21.877,0,43.51,0,65.502,0c0,22.221,0,44.483,0,67.084c22.626,0,44.897,0,67.337,0c0,21.975,0,43.608,0,65.599
		c-22.222,0-44.483,0-67.087,0c0,22.625,0,44.897,0,67.337c-21.976,0-43.608,0-65.597,0c0-22.22,0-44.483,0-67.085
		c-22.623,0-44.895,0-67.337,0c0-21.974,0-43.607,0-65.598C220.412,269.169,242.673,269.169,265.377,269.169z"/>
</g>
</svg>
