<?xml version="1.0" encoding="UTF-8" standalone="no"?>
<!-- Created with Inkscape (http://www.inkscape.org/) -->

<svg
   version="1.1"
   id="svg1"
   width="504.41333"
   height="128.20934"
   viewBox="0 0 504.41333 128.20934"
   sodipodi:docname="Finish Red Cross no border.svg"
   inkscape:version="1.3.2 (091e20e, 2023-11-25, custom)"
   xmlns:inkscape="http://www.inkscape.org/namespaces/inkscape"
   xmlns:sodipodi="http://sodipodi.sourceforge.net/DTD/sodipodi-0.dtd"
   xmlns="http://www.w3.org/2000/svg"
   xmlns:svg="http://www.w3.org/2000/svg">
  <defs
     id="defs1">
    <clipPath
       clipPathUnits="userSpaceOnUse"
       id="clipPath3">
      <path
         d="M 0.059998,96.12 H 378.31 V 0 H 0.059998 Z"
         transform="translate(-335.79001,-96.157002)"
         id="path3" />
    </clipPath>
    <clipPath
       clipPathUnits="userSpaceOnUse"
       id="clipPath13">
      <path
         d="M 0.059998,96.12 H 378.31 V 0 H 0.059998 Z"
         transform="translate(-6.0273002,-24.629)"
         id="path13" />
    </clipPath>
  </defs>
  <sodipodi:namedview
     id="namedview1"
     pagecolor="#ffffff"
     bordercolor="#666666"
     borderopacity="1.0"
     inkscape:showpageshadow="2"
     inkscape:pageopacity="0.0"
     inkscape:pagecheckerboard="0"
     inkscape:deskcolor="#d1d1d1"
     inkscape:zoom="1.8536386"
     inkscape:cx="252.20667"
     inkscape:cy="63.92832"
     inkscape:window-width="1920"
     inkscape:window-height="1017"
     inkscape:window-x="-8"
     inkscape:window-y="-8"
     inkscape:window-maximized="1"
     inkscape:current-layer="g1">
    <inkscape:page
       x="0"
       y="0"
       inkscape:label="1"
       id="page1"
       width="504.41333"
       height="128.20934"
       margin="0"
       bleed="0" />
  </sodipodi:namedview>
  <g
     id="g1"
     inkscape:groupmode="layer"
     inkscape:label="1">
    <g
       id="group-MC1">
      <path
         id="path2"
         d="M 0,0 H 21.26 V -21.26 H 42.52 V -42.52 H 21.26 V -63.779 H 0 v 21.259 h -21.26 v 21.26 H 0 V 0"
         style="fill:#ed1c24;fill-opacity:1;fill-rule:nonzero;stroke:none"
         transform="matrix(1.3333333,0,0,-1.3333333,447.72,0)"
         clip-path="url(#clipPath3)" />
      <path
         id="path4"
         d="m 0,0 c 0,-3.645 -1.737,-4.738 -5.093,-4.738 h -3.554 v 9.475 h 3.554 C -1.737,4.737 0,3.645 0,0 Z m 8.411,-19.518 -8.016,11.663 0.079,0.242 c 3.632,1.377 5.448,4.13 5.448,7.695 0,6.396 -4.065,8.745 -10.343,8.745 h -9.871 v -28.345 h 5.645 v 10.61 h 3.357 l 6.632,-10.61 h 7.069"
         style="fill:#12100f;fill-opacity:1;fill-rule:evenodd;stroke:none"
         transform="matrix(1.3333333,0,0,-1.3333333,205.10667,101.53467)" />
      <path
         id="path5"
         d="m 0,0 h -8.765 c 0,2.875 1.184,5.426 4.383,5.426 C -0.671,5.426 0,2.713 0,0 Z m -2.882,-13.082 c 3.869,0 7.344,0.853 7.344,0.853 v 3.6421 C 2.685,-8.9512 0.908,-9.3144 -1.5,-9.3144 c -3.475,0 -6.909,0.9726 -7.265,5.749 H 6.08 C 6.239,4.94 3.633,9.111 -4.107,9.111 c -7.107,0 -10.581,-4.373 -10.581,-11.299 0,-8.14 5.29,-10.894 11.806,-10.894"
         style="fill:#12100f;fill-opacity:1;fill-rule:evenodd;stroke:none"
         transform="matrix(1.3333333,0,0,-1.3333333,235.37867,110.76667)" />
      <path
         id="path6"
         d="m 0,0 c -1.222,-0.1611 -2.328,-0.2412 -3.552,-0.2002 -3.987,0.1182 -5.133,3.6836 -5.133,6.6802 0,4.008 1.422,7.046 5.566,7.046 1.541,0 3.119,-0.163 3.119,-0.163 z m 5.608,-3.4815 c 0.041,1.0938 0,29.8845 0,29.8845 H 0 v -8.988 c -1.5,0.16 -2.802,0.201 -3.511,0.201 -6.714,0 -10.898,-4.373 -10.898,-11.136 0,-7.2476 5.249,-10.8111 11.884,-10.8111 2.881,0 6.75,0.5254 8.133,0.8496"
         style="fill:#12100f;fill-opacity:1;fill-rule:evenodd;stroke:none"
         transform="matrix(1.3333333,0,0,-1.3333333,265.53333,122.21587)" />
      <path
         id="path7"
         d="m 0,0 c 2.567,0 5.371,-0.445 5.371,-0.445 v 4.252 c 0,0 -3.238,0.647 -7.068,0.647 -8.252,0 -14.965,-4.495 -14.965,-14.659 0,-10.165 6.713,-14.66 14.965,-14.66 3.83,0 7.068,0.65 7.068,0.65 v 4.252 c 0,0 -2.804,-0.445 -5.371,-0.445 -6.949,0 -10.462,2.792 -10.462,10.203 C -10.462,-2.795 -6.949,0 0,0"
         style="fill:#12100f;fill-opacity:1;fill-rule:nonzero;stroke:none"
         transform="matrix(1.3333333,0,0,-1.3333333,310.86667,95.056)" />
      <path
         id="path8"
         d="m 0,0 v 4.699 c -1.935,0 -4.383,0.16 -8.094,-2.107 -0.041,0 0,1.945 0,1.945 h -4.976 v -21.261 h 5.607 V -1.377 C -5.449,0.082 -2.055,0 0,0"
         style="fill:#12100f;fill-opacity:1;fill-rule:nonzero;stroke:none"
         transform="matrix(1.3333333,0,0,-1.3333333,338.768,105.26133)" />
      <path
         id="path9"
         d="m 0,0 c 0,-4.6572 -1.261,-7.1269 -5.169,-7.1269 -3.95,0 -5.213,2.4697 -5.213,7.1269 0,4.697 1.263,7.168 5.213,7.168 C -1.261,7.168 0,4.697 0,0 Z m 5.846,0.08 c 0,6.763 -4.107,11.098 -10.976,11.098 -6.989,0 -11.057,-4.335 -11.057,-11.098 0,-6.6005 4.027,-11.095 11.057,-11.095 6.396,0 10.976,4.4945 10.976,11.095"
         style="fill:#12100f;fill-opacity:1;fill-rule:evenodd;stroke:none"
         transform="matrix(1.3333333,0,0,-1.3333333,361.14,113.46667)" />
      <path
         id="path10"
         d="m 0,0 c 0,4.535 -4.422,5.63 -7.066,6.155 -2.014,0.407 -5.055,0.73 -5.055,2.673 0,1.985 2.766,2.309 4.541,2.309 2.645,0 5.568,-0.569 6.158,-0.689 v 3.806 c -0.947,0.122 -3.275,0.608 -7.263,0.608 -3.791,0 -9.161,-1.255 -9.161,-6.561 0,-4.98 5.331,-5.9524 6.475,-6.2356 3.316,-0.7675 5.449,-0.8496 5.449,-2.875 0,-2.0673 -2.922,-2.5507 -5.013,-2.5507 -2.45,0 -4.661,0.5273 -6.754,1.0107 v -4.0078 c 2.054,-0.4453 4.74,-0.8506 7.621,-0.8506 C -3.949,-7.208 0,-4.5361 0,0"
         style="fill:#12100f;fill-opacity:1;fill-rule:nonzero;stroke:none"
         transform="matrix(1.3333333,0,0,-1.3333333,394.93467,118.48933)" />
      <path
         id="path11"
         d="m 0,0 c 0,4.535 -4.42,5.63 -7.066,6.155 -2.014,0.407 -5.055,0.73 -5.055,2.673 0,1.985 2.764,2.309 4.541,2.309 2.647,0 5.569,-0.569 6.16,-0.689 v 3.806 c -0.947,0.122 -3.277,0.608 -7.265,0.608 -3.789,0 -9.16,-1.255 -9.16,-6.561 0,-4.98 5.33,-5.9524 6.476,-6.2356 3.317,-0.7675 5.447,-0.8496 5.447,-2.875 0,-2.0673 -2.921,-2.5507 -5.013,-2.5507 -2.447,0 -4.66,0.5273 -6.752,1.0107 v -4.0078 c 2.053,-0.4453 4.738,-0.8506 7.619,-0.8506 C -3.947,-7.208 0,-4.5361 0,0"
         style="fill:#12100f;fill-opacity:1;fill-rule:nonzero;stroke:none"
         transform="matrix(1.3333333,0,0,-1.3333333,421.036,118.48933)" />
      <path
         id="path12"
         d="m 0,0 v -7.914 h 9.512 v -4.551 H 0 V -24.109 H -6.0273 V 4.592 H 13.12 L 13.12,0 H 0"
         style="fill:#12100f;fill-opacity:1;fill-rule:nonzero;stroke:none"
         transform="matrix(1.3333333,0,0,-1.3333333,8.0364,95.370667)"
         clip-path="url(#clipPath13)" />
      <path
         id="path14"
         d="M 5.822,0 H 2e-4 V 21.525 H 5.822 Z M 0,0 Z M 5.822,25.38 H 2e-4 v 5.3711 H 5.822 Z"
         style="fill:#12100f;fill-opacity:1;fill-rule:nonzero;stroke:none"
         transform="matrix(1.3333333,0,0,-1.3333333,27.716,127.51667)" />
      <path
         id="path15"
         d="m 0,0 v 14.023 c 0,1.106 -0.123,3.157 -3.075,3.157 -2.05,0 -4.756,-0.944 -5.371,-1.231 V 0 h -5.822 v 21.525 h 5.248 v -1.926 c 2.419,1.106 5.412,2.254 8.241,2.254 3.075,0 6.601,-1.762 6.601,-6.724 V 0 H 0"
         style="fill:#12100f;fill-opacity:1;fill-rule:nonzero;stroke:none"
         transform="matrix(1.3333333,0,0,-1.3333333,59.313333,127.51667)" />
      <path
         id="path16"
         d="m 0,0 v 14.023 c 0,1.106 -0.123,3.157 -3.075,3.157 -2.05,0 -4.756,-0.944 -5.371,-1.231 V 0 h -5.822 v 21.525 h 5.248 v -1.926 c 2.419,1.106 5.412,2.254 8.241,2.254 3.075,0 6.601,-1.762 6.601,-6.724 V 0 H 0"
         style="fill:#12100f;fill-opacity:1;fill-rule:nonzero;stroke:none"
         transform="matrix(1.3333333,0,0,-1.3333333,90.746667,127.51667)" />
      <path
         id="path17"
         d="M 5.822,0 H 2e-4 V 21.525 H 5.822 Z M 0,0 Z M 5.822,25.38 H 2e-4 v 5.3711 H 5.822 Z"
         style="fill:#12100f;fill-opacity:1;fill-rule:nonzero;stroke:none"
         transform="matrix(1.3333333,0,0,-1.3333333,103.156,127.51667)" />
      <path
         id="path18"
         d="m 0,0 c -2.993,0 -5.781,0.41019 -7.913,0.8614 v 4.0595 c 2.173,-0.4921 4.469,-1.0253 7.011,-1.0253 2.173,0 5.207,0.4921 5.207,2.583 0,2.0507 -2.214,2.1738 -5.658,2.9111 -1.189,0.2871 -6.724,1.2703 -6.724,6.3133 0,5.371 5.576,6.643 9.512,6.643 4.141,0 6.559,-0.492 7.544,-0.616 V 17.877 C 8.364,18 5.33,18.574 2.583,18.574 c -1.845,0 -4.715,-0.328 -4.715,-2.338 0,-1.967 3.157,-2.295 5.248,-2.705 2.747,-0.533 7.339,-1.64 7.339,-6.2321 C 10.455,2.7071 6.355,0 0,0"
         style="fill:#12100f;fill-opacity:1;fill-rule:nonzero;stroke:none"
         transform="matrix(1.3333333,0,0,-1.3333333,124.52933,128.06359)" />
      <path
         id="path19"
         d="m 0,0 v 13.777 c 0,1.434 -0.533,3.403 -3.034,3.403 -2.05,0 -4.92,-0.944 -5.576,-1.231 V 0 h -5.822 V 30.751 H -8.61 V 19.845 c 2.091,0.901 4.961,2.05 7.298,2.05 3.239,0 7.134,-1.518 7.134,-6.766 L 5.822,0 H 0"
         style="fill:#12100f;fill-opacity:1;fill-rule:nonzero;stroke:none"
         transform="matrix(1.3333333,0,0,-1.3333333,160.55467,127.51667)" />
    </g>
  </g>
</svg>
