<?xml version="1.0" encoding="UTF-8" standalone="no"?>
<!-- Created with Inkscape (http://www.inkscape.org/) -->

<svg
   version="1.1"
   id="svg1"
   width="421.20932"
   height="177.86667"
   viewBox="0 0 421.20932 177.86667"
   sodipodi:docname="Punainen Risti Roda Korset.svg"
   inkscape:version="1.3.2 (091e20e, 2023-11-25, custom)"
   xmlns:inkscape="http://www.inkscape.org/namespaces/inkscape"
   xmlns:sodipodi="http://sodipodi.sourceforge.net/DTD/sodipodi-0.dtd"
   xmlns="http://www.w3.org/2000/svg"
   xmlns:svg="http://www.w3.org/2000/svg">
  <defs
     id="defs1">
    <clipPath
       clipPathUnits="userSpaceOnUse"
       id="clipPath4">
      <path
         d="M 0.059998,133.399 H 315.907 V 0.06 H 0.059998 Z"
         transform="translate(-14.727,-20.572003)"
         id="path4" />
    </clipPath>
    <clipPath
       clipPathUnits="userSpaceOnUse"
       id="clipPath6">
      <path
         d="M 0.059998,133.399 H 315.907 V 0.06 H 0.059998 Z"
         transform="translate(-35.300001,-27.211003)"
         id="path6" />
    </clipPath>
    <clipPath
       clipPathUnits="userSpaceOnUse"
       id="clipPath11">
      <path
         d="M 0.059998,133.399 H 315.907 V 0.06 H 0.059998 Z"
         transform="translate(-128.33001,-11.296003)"
         id="path11" />
    </clipPath>
    <clipPath
       clipPathUnits="userSpaceOnUse"
       id="clipPath15">
      <path
         d="M 0.059998,133.399 H 315.907 V 0.06 H 0.059998 Z"
         transform="translate(-178.17,-12.350998)"
         id="path15" />
    </clipPath>
    <clipPath
       clipPathUnits="userSpaceOnUse"
       id="clipPath27">
      <path
         d="M 0.059998,133.399 H 315.907 V 0.06 H 0.059998 Z"
         transform="translate(-14.411001,-56.845004)"
         id="path27" />
    </clipPath>
  </defs>
  <sodipodi:namedview
     id="namedview1"
     pagecolor="#ffffff"
     bordercolor="#666666"
     borderopacity="1.0"
     inkscape:showpageshadow="2"
     inkscape:pageopacity="0.0"
     inkscape:pagecheckerboard="0"
     inkscape:deskcolor="#d1d1d1"
     inkscape:zoom="2.2197989"
     inkscape:cx="210.60466"
     inkscape:cy="88.972022"
     inkscape:window-width="1920"
     inkscape:window-height="1017"
     inkscape:window-x="-8"
     inkscape:window-y="-8"
     inkscape:window-maximized="1"
     inkscape:current-layer="g1">
    <inkscape:page
       x="0"
       y="0"
       inkscape:label="Page 1"
       id="page1"
       width="421.20932"
       height="177.86667"
       margin="0"
       bleed="0" />
  </sodipodi:namedview>
  <g
     id="g1"
     inkscape:groupmode="layer"
     inkscape:label="Page 1">
    <g
       id="group-MC1">
      <path
         id="path2"
         d="m 0,0 h 21.259 v -21.26 h 21.26 V -42.52 H 21.259 V -63.779 H 0 v 21.259 h -21.26 v 21.26 H 0 L 0,0"
         style="fill:#ed1c24;fill-opacity:1;fill-rule:nonzero;stroke:none"
         transform="matrix(1.3333333,0,0,-1.3333333,364.51733,0.00133333)" />
      <path
         id="path3"
         d="M 0,0 C 0,-4.901 -3.435,-5.994 -7.3038,-5.994 H -11.528 V 5.83 h 4.777 C -3.158,5.83 0,4.898 0,0 Z m 5.094,-20.045 -7.739,11.742 0.158,0.322 c 3.988,1.219 5.804,4.618 5.804,7.981 0,5.549 -3.238,8.301 -9.2389,8.301 h -8.8051 v -28.346 h 3.199 v 11.541 h 5.4088 L 1.145,-20.045 h 3.949"
         style="fill:#231f20;fill-opacity:1;fill-rule:evenodd;stroke:none"
         transform="matrix(1.3333333,0,0,-1.3333333,19.636,150.43733)"
         clip-path="url(#clipPath4)" />
      <path
         id="path5"
         d="m 0,0 v 3.644 h -3.554 v -3.682 z m -11.451,-0.038 h 3.5537 v 3.682 h -3.5537 z m 3.554,0 z m 9.121,-15.877 c 0,-5.343 -2.211,-9.07 -6.673,-9.07 -4.501,0 -6.712,3.727 -6.712,9.07 0,5.348 2.29,8.79 6.712,8.79 4.422,0 6.673,-3.483 6.673,-8.79 z m 3.316,0 c 0,6.844 -3.711,11.016 -9.989,11.016 -6.357,0 -10.029,-4.172 -10.029,-11.016 0,-6.679 3.633,-11.296 10.029,-11.296 5.803,0 9.989,4.658 9.989,11.296"
         style="fill:#231f20;fill-opacity:1;fill-rule:evenodd;stroke:none"
         transform="matrix(1.3333333,0,0,-1.3333333,47.066667,141.58533)"
         clip-path="url(#clipPath6)" />
      <path
         id="path7"
         d="m 0,0 c -1.975,-0.24 -3.08,-0.281 -3.909,-0.281 -5.014,0 -7.818,3.604 -7.818,8.707 0,5.912 2.685,8.828 7.621,8.828 0.987,0 2.171,-0.082 4.106,-0.408 z m 3.04,-1.822 c 0.04,4.535 0,22.477 0,30.129 H 0 v -9.152 c -2.526,0.445 -4.067,0.408 -4.975,0.408 -6.475,0 -10.068,-4.457 -10.068,-11.26 0,-7.086 4.659,-10.81 10.976,-10.81 2.37,0 5.409,0.363 7.107,0.685"
         style="fill:#231f20;fill-opacity:1;fill-rule:evenodd;stroke:none"
         transform="matrix(1.3333333,0,0,-1.3333333,75.813333,174.41467)" />
      <path
         id="path8"
         d="m 0,0 c -2.369,-0.203 -3.159,-0.285 -4.304,-0.285 -3.079,0 -6.791,0.367 -6.791,4.535 0,3.768 3.04,4.416 7.147,4.416 0.632,0 2.013,-0.121 3.948,-0.121 z m 3.001,-1.943 v 14.859 c 0,6.035 -3.277,6.844 -9.042,6.844 -2.329,0 -4.698,-0.24 -6.83,-0.685 v -2.35 c 1.697,0.281 4.184,0.726 6.395,0.726 6.397,0 6.436,-1.253 6.436,-6.72 -1.579,0 -2.803,0.123 -3.829,0.123 -4.501,0 -10.424,-0.123 -10.424,-6.44 0,-5.589 3.356,-6.802 8.687,-6.802 2.802,0 5.488,0.08 8.607,0.445"
         style="fill:#231f20;fill-opacity:1;fill-rule:evenodd;stroke:none"
         transform="matrix(1.3333333,0,0,-1.3333333,102.29867,174.57333)" />
      <path
         id="path9"
         d="M 0,0 -13.779,14.578 -1.027,28.346 H -4.896 L -17.451,14.295 v 14.051 h -3.238 V 0 h 3.238 V 13.809 L -4.659,0 H 0"
         style="fill:#231f20;fill-opacity:1;fill-rule:nonzero;stroke:none"
         transform="matrix(1.3333333,0,0,-1.3333333,150.99067,177.16399)" />
      <path
         id="path10"
         d="m 0,0 c 0,-5.343 -2.211,-9.07 -6.672,-9.07 -4.502,0 -6.713,3.727 -6.713,9.07 0,5.348 2.29,8.79 6.713,8.79 C -2.25,8.79 0,5.307 0,0 Z m 3.316,0 c 0,6.844 -3.71,11.016 -9.988,11.016 -6.357,0 -10.029,-4.172 -10.029,-11.016 0,-6.679 3.633,-11.296 10.029,-11.296 5.804,0 9.988,4.658 9.988,11.296"
         style="fill:#231f20;fill-opacity:1;fill-rule:evenodd;stroke:none"
         transform="matrix(1.3333333,0,0,-1.3333333,171.10667,162.80533)"
         clip-path="url(#clipPath11)" />
      <path
         id="path12"
         d="m 0,0 v 2.918 c -3.001,0 -5.093,-0.164 -8.292,-2.514 v 2.35 h -2.723 v -21.258 h 3.04 V -1.822 C -5.962,-0.199 -3.237,0 0,0"
         style="fill:#231f20;fill-opacity:1;fill-rule:nonzero;stroke:none"
         transform="matrix(1.3333333,0,0,-1.3333333,193.53733,152.492)" />
      <path
         id="path13"
         d="m 0,0 c 0,4.498 -4.107,5.471 -7.344,6.199 -1.737,0.364 -5.251,0.932 -5.251,3.604 0,2.916 3.475,3.398 5.686,3.398 2.052,0 4.145,-0.322 5.527,-0.603 v 2.389 c -1.225,0.201 -3.276,0.564 -6.199,0.564 -4.145,0 -8.094,-1.414 -8.094,-6.031 0,-3.93 2.961,-5.063 5.844,-5.834 2.369,-0.645 6.633,-0.891 6.633,-4.25 0,-2.998 -3.475,-3.686 -6.317,-3.686 -2.093,0 -4.185,0.446 -6.041,0.85 v -2.471 c 1.895,-0.404 4.185,-0.726 6.554,-0.726 C -3,-6.597 0,-3.967 0,0"
         style="fill:#231f20;fill-opacity:1;fill-rule:nonzero;stroke:none"
         transform="matrix(1.3333333,0,0,-1.3333333,215.34,168.96133)" />
      <path
         id="path14"
         d="m 0,0 h -11.963 c 0,4.697 1.934,7.817 5.922,7.817 C -1.343,7.817 0,4.293 0,0 Z m 3.554,-2.105 v 0.646 c 0,6.967 -2.804,11.338 -9.595,11.338 -5.094,0 -9.358,-3.076 -9.358,-10.648 0,-7.289 3.831,-11.541 10.898,-11.541 2.25,0 4.343,0.121 6.435,0.685 v 2.11 c -1.5,-0.325 -3.277,-0.569 -5.171,-0.569 -3.16,0 -8.292,0.244 -8.806,7.979 H 3.554"
         style="fill:#231f20;fill-opacity:1;fill-rule:evenodd;stroke:none"
         transform="matrix(1.3333333,0,0,-1.3333333,237.56,161.39867)"
         clip-path="url(#clipPath15)" />
      <path
         id="path16"
         d="M 0,0 V 2.19 H -5.961 V 9.844 C -6.909,9.479 -8.608,8.871 -9.002,8.748 V 2.19 h -4.343 V 0 h 4.343 v -13.928 c 0,-4.781 1.697,-4.98 5.805,-4.98 h 3.039 v 2.309 h -2.685 c -2.132,0 -3.118,0.24 -3.118,3.076 V 0 H 0"
         style="fill:#231f20;fill-opacity:1;fill-rule:nonzero;stroke:none"
         transform="matrix(1.3333333,0,0,-1.3333333,259.62,151.95333)" />
      <path
         id="path17"
         d="m 0,0 c 0,-3.646 -1.736,-4.74 -5.093,-4.74 h -3.554 v 9.474 h 3.554 C -1.736,4.734 0,3.643 0,0 Z m 8.41,-19.519 -8.016,11.662 0.081,0.244 c 3.631,1.377 5.448,4.129 5.448,7.693 0,6.399 -4.068,8.746 -10.345,8.746 h -9.871 v -28.345 h 5.646 V -8.912 H -5.29 L 1.343,-19.519 H 8.41"
         style="fill:#231f20;fill-opacity:1;fill-rule:evenodd;stroke:none"
         transform="matrix(1.3333333,0,0,-1.3333333,255.50533,101.53333)" />
      <path
         id="path18"
         d="M -5.606,0 H 0 V 5.3046 H -5.606 Z M 0,0 Z M -5.606,-25.066 H 0 v 21.26 h -5.606 z"
         style="fill:#231f20;fill-opacity:1;fill-rule:evenodd;stroke:none"
         transform="matrix(1.3333333,0,0,-1.3333333,276.20133,94.137333)" />
      <path
         id="path19"
         d="m 0,0 c 0,-4.535 -3.95,-7.207 -10.069,-7.207 -2.883,0 -5.566,0.404 -7.62,0.85 v 4.009 c 2.093,-0.486 4.304,-1.013 6.751,-1.013 2.093,0 5.015,0.486 5.015,2.55 0,2.026 -2.132,2.108 -5.448,2.875 -1.146,0.286 -6.476,1.256 -6.476,6.237 0,5.306 5.37,6.56 9.16,6.56 3.484,0 5.704,-0.371 6.84,-0.545 v -3.785 c -1.054,0.2 -3.492,0.604 -5.734,0.604 -1.777,0 -4.54,-0.323 -4.54,-2.309 0,-1.941 3.04,-2.267 5.052,-2.672 C -4.423,5.627 0,4.535 0,0"
         style="fill:#231f20;fill-opacity:1;fill-rule:nonzero;stroke:none"
         transform="matrix(1.3333333,0,0,-1.3333333,303.688,118.48933)" />
      <path
         id="path20"
         d="m 0,0 h -6.318 v -11.016 c 0,-1.658 1.027,-2.023 2.093,-2.023 h 3.79 v -4.09 h -4.501 c -3.592,0 -6.791,0 -6.791,5.75 V 0 h -3.762 v 4.131 h 3.762 v 5.588 c 0,0 4.501,1.539 5.409,1.863 V 4.131 L 0,4.131 V 0"
         style="fill:#231f20;fill-opacity:1;fill-rule:nonzero;stroke:none"
         transform="matrix(1.3333333,0,0,-1.3333333,324.952,104.72133)" />
      <path
         id="path21"
         d="M -5.607,0 H 0 V 5.3046 H -5.607 Z M 0,0 Z M -5.607,-25.066 H 0 v 21.26 h -5.607 z"
         style="fill:#231f20;fill-opacity:1;fill-rule:evenodd;stroke:none"
         transform="matrix(1.3333333,0,0,-1.3333333,336.17467,94.137333)" />
      <path
         id="path22"
         d="M -5.606,0 H 4e-4 V 5.3037 H -5.606 Z M 0,0 Z M -5.606,-25.066 H 4e-4 V -3.808 H -5.606 Z"
         style="fill:#231f20;fill-opacity:1;fill-rule:evenodd;stroke:none"
         transform="matrix(1.3333333,0,0,-1.3333333,127.24933,94.136)" />
      <path
         id="path23"
         d="m 0,0 v 14.941 c 0,4.899 -3.396,6.643 -6.357,6.643 -2.724,0 -5.606,-1.135 -7.935,-2.229 v 1.903 h -5.055 V 0 h 5.606 v 15.75 c 0.593,0.285 3.199,1.217 5.173,1.217 2.843,0 2.961,-2.026 2.961,-3.117 L -5.607,0 H 0"
         style="fill:#231f20;fill-opacity:1;fill-rule:nonzero;stroke:none"
         transform="matrix(1.3333333,0,0,-1.3333333,158.46933,127.55733)" />
      <path
         id="path24"
         d="m 0,0 h -8.765 c 0,2.877 1.184,5.426 4.382,5.426 C -0.672,5.426 0,2.713 0,0 Z m -2.883,-13.078 c 3.87,0 7.344,0.849 7.344,0.849 v 3.645 C 2.685,-8.947 0.908,-9.313 -1.5,-9.313 c -3.475,0 -6.91,0.973 -7.265,5.751 H 6.08 C 6.239,4.941 3.632,9.111 -4.106,9.111 c -7.107,0 -10.581,-4.371 -10.581,-11.296 0,-8.139 5.29,-10.893 11.804,-10.893"
         style="fill:#231f20;fill-opacity:1;fill-rule:evenodd;stroke:none"
         transform="matrix(1.3333333,0,0,-1.3333333,181.48667,110.768)" />
      <path
         id="path25"
         d="m 0,0 v 14.941 c 0,4.899 -3.394,6.643 -6.356,6.643 -2.724,0 -5.606,-1.135 -7.936,-2.229 v 1.903 h -5.054 V 0 h 5.606 v 15.75 c 0.593,0.285 3.199,1.217 5.173,1.217 2.843,0 2.961,-2.026 2.961,-3.117 V 0 H 0"
         style="fill:#231f20;fill-opacity:1;fill-rule:nonzero;stroke:none"
         transform="matrix(1.3333333,0,0,-1.3333333,218.91867,127.55733)" />
      <path
         id="path26"
         d="M 0,0 C 0,-3.846 -1.777,-5.021 -5.1328,-5.021 H -8.6865 V 5.021 h 3.5537 C -1.777,5.021 0,3.85 0,0 Z m 5.883,0.082 c 0,4.453 -1.857,9.152 -10.8585,9.152 h -9.4355 v -28.347 h 5.7245 v 9.8 h 4.2637 c 7.2658,0 10.3058,4.536 10.3058,9.395"
         style="fill:#231f20;fill-opacity:1;fill-rule:evenodd;stroke:none"
         transform="matrix(1.3333333,0,0,-1.3333333,19.214667,102.07333)"
         clip-path="url(#clipPath27)" />
      <path
         id="path28"
         d="M 0,0 V 21.262 H -5.606 V 5.59 c -0.988,-0.445 -2.488,-1.297 -5.093,-1.297 -2.607,0 -2.843,2.35 -2.843,3.726 v 13.243 h -5.606 V 6.48 c 0,-5.386 3.474,-6.802 6.553,-6.802 3.001,0 5.094,1.011 7.502,2.226 L -5.093,0 H 0"
         style="fill:#231f20;fill-opacity:1;fill-rule:nonzero;stroke:none"
         transform="matrix(1.3333333,0,0,-1.3333333,54.910667,127.55733)" />
      <path
         id="path29"
         d="m 0,0 v 14.943 c 0,4.901 -3.396,6.643 -6.357,6.643 -2.724,0 -5.606,-1.137 -7.935,-2.229 v 1.905 h -5.054 V 0 h 5.607 v 15.754 c 0.591,0.283 3.197,1.215 5.171,1.215 2.842,0 2.961,-2.026 2.961,-3.117 L -5.607,0 H 0"
         style="fill:#231f20;fill-opacity:1;fill-rule:nonzero;stroke:none"
         transform="matrix(1.3333333,0,0,-1.3333333,86.129333,127.55733)" />
      <path
         id="path30"
         d="m 0,0 c -1.105,-0.162 -2.053,-0.244 -3.237,-0.244 -2.329,0 -4.382,0.162 -4.382,2.998 0,2.832 2.053,2.996 4.382,2.996 0.592,0 2.527,0 3.237,-0.041 z m 5.607,-3.402 v 14.537 c 0,6.56 -5.488,7.129 -10.423,7.088 -2.211,0 -5.568,-0.368 -7.304,-0.772 v -4.008 c 1.421,0.323 4.224,0.768 6.988,0.768 5.093,0 5.132,-1.496 5.132,-4.816 -5.843,0 -13.502,0.281 -13.502,-6.44 0,-5.912 4.54,-6.803 9.555,-6.885 3.079,-0.082 6.001,0.123 9.554,0.528"
         style="fill:#231f20;fill-opacity:1;fill-rule:evenodd;stroke:none"
         transform="matrix(1.3333333,0,0,-1.3333333,107.356,122.912)" />
    </g>
  </g>
</svg>
