<?xml version="1.0" encoding="UTF-8" standalone="no"?>
<!-- Created with Inkscape (http://www.inkscape.org/) -->

<svg
   version="1.1"
   id="svg1"
   width="245.44133"
   height="194.91467"
   viewBox="0 0 245.44133 194.91467"
   sodipodi:docname="Morocco RC_CMYK.svg"
   inkscape:version="1.3.2 (091e20e, 2023-11-25, custom)"
   xmlns:inkscape="http://www.inkscape.org/namespaces/inkscape"
   xmlns:sodipodi="http://sodipodi.sourceforge.net/DTD/sodipodi-0.dtd"
   xmlns="http://www.w3.org/2000/svg"
   xmlns:svg="http://www.w3.org/2000/svg">
  <defs
     id="defs1">
    <clipPath
       clipPathUnits="userSpaceOnUse"
       id="clipPath17">
      <path
         d="M 0,146.186 H 184.08 V 0.06 L 0,0.06 Z"
         transform="translate(-104.316,-7.0049977)"
         id="path17" />
    </clipPath>
    <clipPath
       clipPathUnits="userSpaceOnUse"
       id="clipPath27">
      <path
         d="M 0,146.186 H 184.08 V 0.06 L 0,0.06 Z"
         transform="translate(-176.03901,-3.9929976)"
         id="path27" />
    </clipPath>
  </defs>
  <sodipodi:namedview
     id="namedview1"
     pagecolor="#ffffff"
     bordercolor="#666666"
     borderopacity="1.0"
     inkscape:showpageshadow="2"
     inkscape:pageopacity="0.0"
     inkscape:pagecheckerboard="0"
     inkscape:deskcolor="#d1d1d1"
     inkscape:zoom="3.8094644"
     inkscape:cx="122.72066"
     inkscape:cy="97.520272"
     inkscape:window-width="1920"
     inkscape:window-height="1017"
     inkscape:window-x="-8"
     inkscape:window-y="-8"
     inkscape:window-maximized="1"
     inkscape:current-layer="g1">
    <inkscape:page
       x="0"
       y="0"
       inkscape:label="1"
       id="page1"
       width="245.44133"
       height="194.91467"
       margin="0"
       bleed="0" />
  </sodipodi:namedview>
  <g
     id="g1"
     inkscape:groupmode="layer"
     inkscape:label="1">
    <g
       id="group-MC1">
      <path
         id="path2"
         d="m 0,0 c -18.886,0 -34.196,15.312 -34.196,34.201 0,18.887 15.31,34.199 34.196,34.199 5.019,0 9.778,-1.088 14.07,-3.028 -7.275,6.27 -16.739,10.069 -27.096,10.069 -22.933,0 -41.526,-18.593 -41.526,-41.529 0,-22.936 18.593,-41.528 41.526,-41.528 11.019,0 21.027,4.297 28.459,11.298 C 10.796,1.332 5.558,0 0,0"
         style="fill:#ed1c24;fill-opacity:1;fill-rule:nonzero;stroke:none"
         transform="matrix(1.3333333,0,0,-1.3333333,146.02667,100.588)" />
      <path
         id="path3"
         d="m 0,0 c 0.6558,-0.186 1.023,-0.279 1.1011,-0.279 0.1626,0 0.3174,0.046 0.4629,0.136 0.146,0.09 0.2466,0.23 0.3027,0.421 H 2.232 l 0.16,-3.867 H 1.9981 c -0.2295,0.767 -0.5298,1.386 -0.8999,1.855 -0.7061,0.885 -1.6568,1.327 -2.8501,1.327 -1.2056,0 -2.1905,-0.476 -2.9556,-1.428 -0.7656,-0.952 -1.148,-2.264 -1.148,-3.934 0,-1.536 0.4024,-2.762 1.2066,-3.678 0.8042,-0.916 1.8227,-1.374 3.0552,-1.374 0.8911,0 1.7124,0.213 2.4638,0.639 0.4317,0.241 0.9048,0.606 1.4209,1.094 L 2.608,-9.41 c -0.381,-0.482 -0.8551,-0.906 -1.421,-1.271 -0.9648,-0.617 -2.0107,-0.927 -3.1372,-0.927 -1.8506,0 -3.3188,0.592 -4.4067,1.776 -1.0039,1.093 -1.5059,2.458 -1.5059,4.095 0,1.677 0.5298,3.085 1.5899,4.223 1.1147,1.194 2.5669,1.792 4.3559,1.792 C -1.2949,0.278 -0.6562,0.185 0,0"
         style="fill:#231f20;fill-opacity:1;fill-rule:nonzero;stroke:none"
         transform="matrix(1.3333333,0,0,-1.3333333,10.483733,174.81333)" />
      <path
         id="path4"
         d="m 0,0 c 0.516,0.045 0.857,0.136 1.025,0.274 0.168,0.137 0.252,0.429 0.252,0.878 v 3.81 c 0,0.554 -0.051,0.951 -0.155,1.19 C 1.02,6.389 0.831,6.509 0.557,6.509 0.501,6.509 0.427,6.502 0.335,6.488 0.243,6.474 0.146,6.456 0.046,6.433 V 6.707 C 0.364,6.82 0.691,6.934 1.027,7.053 1.362,7.169 1.593,7.254 1.723,7.305 2.001,7.41 2.289,7.531 2.585,7.666 2.624,7.666 2.648,7.651 2.656,7.623 2.665,7.595 2.669,7.534 2.669,7.444 V 6.058 C 3.028,6.56 3.374,6.951 3.708,7.232 4.042,7.513 4.388,7.654 4.747,7.654 5.033,7.654 5.266,7.568 5.445,7.396 5.625,7.224 5.715,7.01 5.715,6.75 5.715,6.52 5.647,6.325 5.509,6.168 5.373,6.01 5.2,5.931 4.993,5.931 4.781,5.931 4.567,6.03 4.352,6.226 4.136,6.422 3.966,6.52 3.843,6.52 3.648,6.52 3.406,6.362 3.121,6.046 2.835,5.727 2.692,5.402 2.692,5.066 V 1.278 C 2.692,0.793 2.805,0.455 3.03,0.266 3.254,0.079 3.629,-0.011 4.152,0 V -0.274 H 0 V 0"
         style="fill:#231f20;fill-opacity:1;fill-rule:nonzero;stroke:none"
         transform="matrix(1.3333333,0,0,-1.3333333,14.857333,189.54533)" />
      <path
         id="path5"
         d="m 0,0 c -0.564,-0.51 -0.846,-1.393 -0.846,-2.645 0,-0.999 0.227,-1.931 0.681,-2.796 0.453,-0.864 1.084,-1.296 1.89,-1.296 0.63,0 1.117,0.289 1.458,0.867 0.341,0.579 0.511,1.336 0.511,2.274 0,0.971 -0.218,1.887 -0.651,2.745 C 2.609,0.008 1.981,0.438 1.158,0.438 0.713,0.438 0.327,0.293 0,0 Z m -1.342,-0.218 c 0.71,0.771 1.624,1.158 2.741,1.158 1.112,0 2.033,-0.365 2.763,-1.094 0.73,-0.73 1.095,-1.701 1.095,-2.913 0,-1.116 -0.354,-2.087 -1.062,-2.911 -0.707,-0.826 -1.622,-1.238 -2.746,-1.238 -1.078,0 -1.99,0.395 -2.737,1.186 -0.747,0.792 -1.12,1.785 -1.12,2.981 0,1.116 0.355,2.059 1.066,2.831"
         style="fill:#231f20;fill-opacity:1;fill-rule:nonzero;stroke:none"
         transform="matrix(1.3333333,0,0,-1.3333333,26.192,180.63867)" />
      <path
         id="path6"
         d="m 0,0 c 0.167,0.173 0.375,0.259 0.621,0.259 0.241,0 0.446,-0.086 0.616,-0.255 0.171,-0.169 0.257,-0.376 0.257,-0.622 0,-0.24 -0.086,-0.443 -0.257,-0.613 -0.17,-0.171 -0.375,-0.255 -0.616,-0.255 -0.246,0 -0.454,0.084 -0.621,0.255 -0.168,0.17 -0.251,0.373 -0.251,0.613 0,0.24 0.083,0.445 0.251,0.618 z m -1.336,-11.25 c 0.6,0.055 0.977,0.157 1.134,0.305 0.157,0.149 0.236,0.547 0.236,1.2 v 4.016 c 0,0.363 -0.026,0.614 -0.076,0.754 -0.085,0.23 -0.263,0.344 -0.533,0.344 -0.062,0 -0.122,-0.006 -0.181,-0.018 -0.059,-0.01 -0.229,-0.055 -0.511,-0.134 v 0.263 l 0.362,0.118 c 0.983,0.321 1.669,0.564 2.056,0.727 0.157,0.067 0.258,0.101 0.303,0.101 0.011,-0.038 0.017,-0.081 0.017,-0.127 V -9.74 c 0,-0.637 0.077,-1.038 0.231,-1.199 0.153,-0.163 0.503,-0.266 1.046,-0.311 v -0.24 h -4.084 v 0.24"
         style="fill:#231f20;fill-opacity:1;fill-rule:nonzero;stroke:none"
         transform="matrix(1.3333333,0,0,-1.3333333,36.130667,174.59067)" />
      <path
         id="path7"
         d="m 0,0 h 0.279 c 0.129,-0.638 0.303,-1.126 0.522,-1.467 0.392,-0.628 0.969,-0.94 1.725,-0.94 0.421,0 0.753,0.116 0.997,0.349 0.244,0.233 0.367,0.533 0.367,0.903 0,0.235 -0.07,0.462 -0.211,0.681 -0.141,0.219 -0.388,0.431 -0.743,0.639 L 1.992,0.703 C 1.3,1.072 0.792,1.445 0.466,1.82 0.14,2.197 -0.023,2.639 -0.023,3.149 c 0,0.629 0.226,1.145 0.675,1.549 0.449,0.403 1.014,0.606 1.694,0.606 0.296,0 0.624,-0.056 0.981,-0.168 0.356,-0.113 0.557,-0.168 0.603,-0.168 0.099,0 0.174,0.013 0.217,0.041 0.046,0.028 0.085,0.074 0.119,0.135 H 4.471 L 4.528,2.795 H 4.266 C 4.153,3.338 4.002,3.761 3.811,4.063 3.462,4.624 2.96,4.904 2.303,4.904 1.909,4.904 1.6,4.783 1.375,4.544 1.151,4.302 1.038,4.019 1.038,3.694 1.038,3.18 1.426,2.719 2.202,2.316 L 3.313,1.72 C 4.511,1.069 5.11,0.312 5.11,-0.551 5.11,-1.214 4.862,-1.754 4.364,-2.175 3.868,-2.597 3.218,-2.806 2.416,-2.806 2.079,-2.806 1.697,-2.75 1.269,-2.638 0.843,-2.525 0.59,-2.47 0.512,-2.47 0.445,-2.47 0.385,-2.494 0.335,-2.542 0.284,-2.589 0.245,-2.648 0.217,-2.715 H 0 V 0"
         style="fill:#231f20;fill-opacity:1;fill-rule:nonzero;stroke:none"
         transform="matrix(1.3333333,0,0,-1.3333333,41.464,186.38133)" />
      <path
         id="path8"
         d="m 0,0 h 0.279 c 0.13,-0.638 0.302,-1.126 0.522,-1.467 0.392,-0.628 0.968,-0.94 1.725,-0.94 0.421,0 0.753,0.116 0.997,0.349 0.244,0.233 0.367,0.533 0.367,0.903 0,0.235 -0.07,0.462 -0.211,0.681 C 3.537,-0.255 3.29,-0.043 2.935,0.165 L 1.992,0.703 C 1.3,1.072 0.791,1.445 0.466,1.82 0.14,2.197 -0.023,2.639 -0.023,3.149 c 0,0.629 0.224,1.145 0.674,1.549 C 1.1,5.101 1.665,5.304 2.345,5.304 2.642,5.304 2.97,5.248 3.326,5.136 3.683,5.023 3.884,4.968 3.93,4.968 c 0.101,0 0.173,0.013 0.217,0.041 0.046,0.028 0.085,0.074 0.119,0.135 H 4.471 L 4.528,2.795 H 4.266 C 4.153,3.338 4.002,3.761 3.811,4.063 3.462,4.624 2.96,4.904 2.303,4.904 1.909,4.904 1.6,4.783 1.374,4.544 1.15,4.302 1.038,4.019 1.038,3.694 1.038,3.18 1.426,2.719 2.201,2.316 L 3.315,1.72 C 4.511,1.069 5.11,0.312 5.11,-0.551 5.11,-1.214 4.862,-1.754 4.364,-2.175 3.868,-2.597 3.218,-2.806 2.415,-2.806 2.077,-2.806 1.697,-2.75 1.269,-2.638 0.843,-2.525 0.59,-2.47 0.512,-2.47 0.443,-2.47 0.385,-2.494 0.335,-2.542 0.284,-2.589 0.245,-2.648 0.217,-2.715 H 0 V 0"
         style="fill:#231f20;fill-opacity:1;fill-rule:nonzero;stroke:none"
         transform="matrix(1.3333333,0,0,-1.3333333,50.409333,186.38133)" />
      <path
         id="path9"
         d="m 0,0 c -0.649,-0.213 -1.186,-0.449 -1.61,-0.706 -0.812,-0.499 -1.219,-1.064 -1.219,-1.698 0,-0.509 0.17,-0.884 0.508,-1.126 0.221,-0.157 0.466,-0.235 0.737,-0.235 0.374,0 0.73,0.105 1.072,0.311 0.341,0.209 0.512,0.47 0.512,0.79 z m -3.098,-0.949 c 0.517,0.336 1.55,0.792 3.098,1.371 v 0.715 c 0,0.572 -0.056,0.971 -0.168,1.195 -0.193,0.377 -0.589,0.564 -1.191,0.564 -0.288,0 -0.56,-0.072 -0.82,-0.219 -0.258,-0.151 -0.387,-0.359 -0.387,-0.623 0,-0.067 0.012,-0.181 0.04,-0.342 0.026,-0.16 0.039,-0.263 0.039,-0.307 0,-0.315 -0.104,-0.534 -0.312,-0.657 -0.117,-0.073 -0.258,-0.11 -0.42,-0.11 -0.254,0 -0.448,0.082 -0.582,0.248 -0.136,0.167 -0.202,0.351 -0.202,0.553 0,0.393 0.242,0.805 0.728,1.235 0.486,0.429 1.199,0.645 2.137,0.645 1.091,0 1.829,-0.354 2.217,-1.06 C 1.288,1.872 1.392,1.308 1.392,0.568 v -3.373 c 0,-0.327 0.023,-0.551 0.066,-0.673 0.073,-0.223 0.225,-0.333 0.454,-0.333 0.13,0 0.236,0.021 0.319,0.061 0.085,0.038 0.231,0.134 0.438,0.288 V -3.903 C 2.489,-4.119 2.297,-4.299 2.089,-4.439 1.775,-4.652 1.456,-4.757 1.132,-4.757 c -0.38,0 -0.657,0.124 -0.828,0.369 -0.171,0.248 -0.264,0.542 -0.281,0.884 -0.428,-0.369 -0.793,-0.645 -1.097,-0.822 -0.513,-0.303 -0.999,-0.454 -1.46,-0.454 -0.485,0 -0.903,0.169 -1.257,0.509 -0.355,0.338 -0.532,0.769 -0.532,1.289 0,0.813 0.408,1.49 1.225,2.033"
         style="fill:#231f20;fill-opacity:1;fill-rule:nonzero;stroke:none"
         transform="matrix(1.3333333,0,0,-1.3333333,64.765333,183.704)" />
      <path
         id="path10"
         d="M 0,0 C 0.396,0.05 0.674,0.15 0.834,0.297 0.992,0.445 1.072,0.776 1.072,1.289 V 5.555 C 1.072,5.913 1.039,6.164 0.971,6.308 0.865,6.52 0.647,6.628 0.318,6.628 0.268,6.628 0.215,6.625 0.163,6.619 0.11,6.613 0.044,6.604 -0.034,6.593 V 6.889 C 0.195,6.957 0.74,7.132 1.6,7.414 l 0.791,0.262 c 0.04,0 0.063,-0.013 0.071,-0.041 C 2.471,7.607 2.475,7.567 2.475,7.517 V 6.281 c 0.515,0.483 0.918,0.813 1.209,0.995 0.437,0.273 0.89,0.412 1.36,0.412 0.381,0 0.727,-0.11 1.041,-0.328 C 6.69,6.933 6.992,6.173 6.992,5.08 V 1.152 C 6.992,0.749 7.072,0.457 7.233,0.278 7.394,0.098 7.664,0.005 8.042,0 V -0.24 H 4.448 V 0 c 0.411,0.055 0.699,0.169 0.862,0.339 0.164,0.17 0.245,0.541 0.245,1.11 v 3.594 c 0,0.483 -0.09,0.882 -0.268,1.199 C 5.108,6.56 4.778,6.718 4.297,6.718 3.968,6.718 3.633,6.606 3.292,6.382 3.103,6.253 2.856,6.04 2.555,5.742 V 1.027 C 2.555,0.626 2.645,0.358 2.824,0.221 3.002,0.085 3.286,0.011 3.673,0 V -0.24 H 0 V 0"
         style="fill:#231f20;fill-opacity:1;fill-rule:nonzero;stroke:none"
         transform="matrix(1.3333333,0,0,-1.3333333,68.792,189.59067)" />
      <path
         id="path11"
         d="m 0,0 v -0.604 h -1.722 l -0.017,-4.85 c 0,-0.428 0.037,-0.75 0.109,-0.97 0.134,-0.385 0.397,-0.58 0.789,-0.58 0.201,0 0.376,0.047 0.525,0.143 0.148,0.094 0.318,0.244 0.508,0.45 L 0.411,-6.595 0.225,-6.846 c -0.292,-0.39 -0.6,-0.666 -0.925,-0.828 -0.325,-0.161 -0.639,-0.242 -0.943,-0.242 -0.661,0 -1.11,0.295 -1.345,0.884 -0.13,0.319 -0.194,0.763 -0.194,1.329 v 5.099 h -0.92 c -0.028,0.016 -0.048,0.032 -0.062,0.05 -0.015,0.016 -0.022,0.04 -0.022,0.068 0,0.056 0.013,0.098 0.039,0.13 0.025,0.029 0.105,0.1 0.24,0.214 0.388,0.319 0.668,0.578 0.84,0.778 0.171,0.198 0.575,0.724 1.209,1.577 0.071,0 0.113,-0.006 0.127,-0.017 0.013,-0.012 0.02,-0.053 0.02,-0.125 L -1.711,0 H 0"
         style="fill:#231f20;fill-opacity:1;fill-rule:nonzero;stroke:none"
         transform="matrix(1.3333333,0,0,-1.3333333,85.712,179.568)" />
      <path
         id="path12"
         d="m 65.353,7.107 h 4.2544 V 8.179 H 65.353 Z"
         style="fill:#231f20;fill-opacity:1;fill-rule:nonzero;stroke:none"
         transform="matrix(1.3333333,0,0,-1.3333333,0,194.91467)" />
      <path
         id="path13"
         d="m 0,0 c 0.911,0.375 1.366,1.082 1.366,2.12 0,0.998 -0.409,1.68 -1.228,2.045 -0.436,0.196 -1.016,0.294 -1.739,0.294 -0.488,0 -0.787,-0.036 -0.895,-0.105 -0.11,-0.07 -0.165,-0.234 -0.165,-0.49 V -0.377 C -1.42,-0.332 -0.533,-0.207 0,0 Z m -5.889,-5.966 c 0.663,0.061 1.076,0.191 1.24,0.386 0.162,0.197 0.243,0.654 0.243,1.371 v 7.46 c 0,0.607 -0.091,1.004 -0.274,1.193 -0.182,0.187 -0.586,0.308 -1.209,0.357 v 0.32 h 4.771 c 0.993,0 1.819,-0.127 2.481,-0.378 C 2.619,4.267 3.248,3.39 3.248,2.113 3.248,1.255 2.968,0.597 2.411,0.138 1.852,-0.323 1.094,-0.625 0.134,-0.771 l 3.555,-4.377 c 0.218,-0.266 0.437,-0.462 0.655,-0.584 0.22,-0.123 0.501,-0.201 0.843,-0.234 v -0.32 H 2.411 l -4.316,5.316 -0.756,-0.046 v -3.398 c 0,-0.638 0.098,-1.042 0.291,-1.212 0.193,-0.17 0.615,-0.285 1.267,-0.34 v -0.32 h -4.786 v 0.32"
         style="fill:#231f20;fill-opacity:1;fill-rule:nonzero;stroke:none"
         transform="matrix(1.3333333,0,0,-1.3333333,102.004,181.52933)" />
      <path
         id="path14"
         d="m 0,0 c -0.564,-0.51 -0.846,-1.393 -0.846,-2.645 0,-0.999 0.227,-1.931 0.68,-2.796 0.456,-0.864 1.084,-1.296 1.89,-1.296 0.631,0 1.118,0.289 1.458,0.867 0.341,0.579 0.512,1.336 0.512,2.274 0,0.971 -0.216,1.887 -0.652,2.745 C 2.609,0.008 1.98,0.438 1.158,0.438 0.713,0.438 0.327,0.293 0,0 Z m -1.343,-0.218 c 0.711,0.771 1.624,1.158 2.741,1.158 1.113,0 2.034,-0.365 2.764,-1.094 0.73,-0.73 1.096,-1.701 1.096,-2.913 0,-1.116 -0.355,-2.087 -1.062,-2.911 -0.709,-0.826 -1.624,-1.238 -2.746,-1.238 -1.078,0 -1.991,0.395 -2.738,1.186 -0.747,0.792 -1.12,1.785 -1.12,2.981 0,1.116 0.355,2.059 1.065,2.831"
         style="fill:#231f20;fill-opacity:1;fill-rule:nonzero;stroke:none"
         transform="matrix(1.3333333,0,0,-1.3333333,113.01067,180.63867)" />
      <path
         id="path15"
         d="m 0,0 v -5.379 c 0,-0.382 0.052,-0.688 0.16,-0.917 0.208,-0.426 0.59,-0.639 1.147,-0.639 0.379,0 0.752,0.126 1.117,0.378 0.208,0.141 0.419,0.334 0.633,0.58 v 4.608 c 0,0.432 -0.085,0.716 -0.253,0.852 -0.169,0.134 -0.508,0.215 -1.013,0.243 V 0 h 2.726 v -5.919 c 0,-0.38 0.069,-0.641 0.206,-0.782 0.136,-0.142 0.424,-0.206 0.866,-0.188 V -7.128 C 5.281,-7.213 5.053,-7.277 4.908,-7.32 4.763,-7.361 4.517,-7.44 4.178,-7.552 4.029,-7.604 3.71,-7.723 3.217,-7.916 3.191,-7.916 3.174,-7.903 3.168,-7.878 3.162,-7.852 3.16,-7.823 3.16,-7.789 V -6.43 C 2.777,-6.886 2.43,-7.224 2.116,-7.444 1.637,-7.782 1.132,-7.95 0.599,-7.95 c -0.488,0 -0.947,0.174 -1.378,0.522 -0.439,0.341 -0.658,0.917 -0.658,1.725 v 4.368 c 0,0.447 -0.095,0.745 -0.286,0.895 -0.122,0.095 -0.384,0.162 -0.786,0.2 V 0 H 0"
         style="fill:#231f20;fill-opacity:1;fill-rule:nonzero;stroke:none"
         transform="matrix(1.3333333,0,0,-1.3333333,124.27067,179.52267)" />
      <path
         id="path16"
         d="m 0,0 c 0.336,0.27 0.504,0.738 0.504,1.407 0,0.532 -0.136,1.131 -0.407,1.8 -0.273,0.667 -0.727,1.001 -1.36,1.001 -0.554,0 -0.933,-0.26 -1.141,-0.783 -0.105,-0.274 -0.16,-0.614 -0.16,-1.017 0,-0.685 0.166,-1.299 0.499,-1.842 0.331,-0.545 0.762,-0.818 1.289,-0.818 0.309,0 0.567,0.084 0.776,0.252 z m -2.68,-5.788 c 0.533,-0.179 1.14,-0.269 1.825,-0.269 0.932,0 1.69,0.161 2.275,0.484 0.584,0.324 0.875,0.722 0.875,1.193 0,0.377 -0.236,0.628 -0.707,0.75 -0.294,0.075 -0.849,0.116 -1.665,0.127 -0.208,0.006 -0.428,0.013 -0.659,0.022 -0.23,0.009 -0.441,0.018 -0.633,0.028 -0.123,0.006 -0.325,0.029 -0.598,0.069 -0.278,0.039 -0.483,0.073 -0.617,0.101 -0.068,0 -0.233,-0.177 -0.493,-0.532 -0.265,-0.359 -0.399,-0.692 -0.399,-0.995 0,-0.472 0.265,-0.798 0.796,-0.978 z m -0.885,6.271 c -0.282,0.43 -0.425,0.915 -0.425,1.454 0,0.656 0.263,1.279 0.784,1.868 0.523,0.587 1.261,0.883 2.213,0.883 0.411,0 0.862,-0.098 1.358,-0.293 0.493,-0.193 0.966,-0.292 1.42,-0.292 0.117,0 0.293,0.004 0.534,0.013 0.236,0.008 0.41,0.012 0.515,0.012 h 0.1 V 3.449 H 1.483 C 1.585,3.213 1.662,3.009 1.719,2.835 1.817,2.51 1.862,2.202 1.862,1.911 1.862,1.273 1.597,0.687 1.067,0.152 c -0.53,-0.536 -1.243,-0.803 -2.142,-0.803 -0.139,0 -0.393,0.024 -0.759,0.076 -0.162,0 -0.379,-0.139 -0.653,-0.414 -0.27,-0.276 -0.407,-0.502 -0.407,-0.676 0,-0.179 0.196,-0.312 0.59,-0.396 0.259,-0.056 0.548,-0.084 0.861,-0.084 1.445,0 2.427,-0.081 2.945,-0.244 0.848,-0.264 1.273,-0.831 1.273,-1.7 0,-0.889 -0.493,-1.596 -1.487,-2.124 -0.989,-0.528 -1.99,-0.792 -2.999,-0.792 -0.921,0 -1.651,0.188 -2.187,0.561 -0.539,0.372 -0.81,0.765 -0.81,1.174 0,0.202 0.072,0.4 0.214,0.595 0.143,0.192 0.422,0.48 0.841,0.862 l 0.551,0.496 0.099,0.102 c -0.253,0.1 -0.445,0.199 -0.573,0.294 -0.222,0.174 -0.334,0.373 -0.334,0.598 0,0.208 0.097,0.438 0.291,0.687 0.197,0.251 0.611,0.656 1.246,1.217 -0.51,0.168 -0.907,0.47 -1.192,0.902"
         style="fill:#231f20;fill-opacity:1;fill-rule:nonzero;stroke:none"
         transform="matrix(1.3333333,0,0,-1.3333333,139.088,185.57467)"
         clip-path="url(#clipPath17)" />
      <path
         id="path18"
         d="M 0,0 C -0.18,-0.302 -0.309,-0.683 -0.388,-1.144 H 3.159 C 3.099,-0.583 2.991,-0.165 2.839,0.111 2.566,0.605 2.107,0.852 1.462,0.852 0.824,0.852 0.336,0.569 0,0 Z m 4.026,0.647 c 0.593,-0.546 0.89,-1.323 0.89,-2.328 h -5.338 c 0.056,-1.298 0.35,-2.245 0.884,-2.838 0.533,-0.595 1.163,-0.891 1.893,-0.891 0.59,0 1.086,0.153 1.488,0.462 0.406,0.308 0.779,0.745 1.121,1.31 l 0.293,-0.1 C 5.03,-4.452 4.599,-5.114 3.968,-5.72 3.336,-6.327 2.566,-6.631 1.65,-6.631 c -1.052,0 -1.867,0.398 -2.44,1.195 -0.577,0.798 -0.865,1.715 -0.865,2.754 0,1.128 0.334,2.101 1.001,2.92 0.667,0.821 1.534,1.23 2.604,1.23 0.79,0 1.482,-0.274 2.076,-0.821"
         style="fill:#231f20;fill-opacity:1;fill-rule:nonzero;stroke:none"
         transform="matrix(1.3333333,0,0,-1.3333333,146.35467,181.34267)" />
      <path
         id="path19"
         d="M 0,0 C 0.436,0.038 0.727,0.112 0.873,0.22 1.098,0.382 1.209,0.709 1.209,1.197 V 5.555 C 1.209,5.97 1.155,6.243 1.044,6.372 0.935,6.502 0.755,6.566 0.505,6.566 0.385,6.566 0.297,6.561 0.24,6.549 0.179,6.537 0.111,6.519 0.034,6.49 v 0.297 l 0.604,0.201 c 0.22,0.073 0.579,0.203 1.078,0.394 0.499,0.188 0.762,0.283 0.79,0.283 0.029,0 0.046,-0.013 0.052,-0.041 C 2.564,7.596 2.566,7.541 2.566,7.463 V 6.326 C 3.12,6.831 3.598,7.181 4.004,7.374 4.406,7.569 4.822,7.665 5.247,7.665 5.826,7.665 6.285,7.469 6.628,7.076 6.804,6.862 6.955,6.573 7.072,6.208 7.485,6.629 7.847,6.941 8.159,7.144 8.692,7.491 9.236,7.665 9.79,7.665 c 0.904,0 1.509,-0.368 1.81,-1.103 0.174,-0.415 0.263,-1.073 0.263,-1.971 V 1.095 c 0,-0.399 0.088,-0.67 0.265,-0.813 C 12.304,0.139 12.622,0.044 13.084,0 V -0.217 H 9.285 v 0.24 c 0.487,0.045 0.809,0.142 0.964,0.296 0.157,0.15 0.233,0.459 0.233,0.924 V 4.87 c 0,0.545 -0.06,0.946 -0.177,1.204 C 10.097,6.534 9.69,6.764 9.086,6.764 8.72,6.764 8.358,6.643 7.999,6.403 7.791,6.262 7.534,6.037 7.232,5.729 V 1.414 C 7.232,0.96 7.311,0.614 7.471,0.379 7.63,0.143 7.97,0.018 8.486,0 V -0.217 H 4.631 V 0 c 0.531,0.068 0.867,0.197 1.012,0.388 0.146,0.192 0.22,0.663 0.22,1.414 V 4.156 C 5.863,5.021 5.806,5.613 5.695,5.939 5.509,6.489 5.116,6.764 4.517,6.764 4.174,6.764 3.839,6.67 3.507,6.482 3.176,6.294 2.885,6.048 2.635,5.744 V 1.141 C 2.635,0.713 2.709,0.416 2.857,0.254 3.005,0.09 3.331,0.006 3.833,0 V -0.217 H 0 V 0"
         style="fill:#231f20;fill-opacity:1;fill-rule:nonzero;stroke:none"
         transform="matrix(1.3333333,0,0,-1.3333333,160.01867,189.62133)" />
      <path
         id="path20"
         d="m 0,0 c -0.647,-0.213 -1.187,-0.449 -1.608,-0.706 -0.813,-0.499 -1.221,-1.064 -1.221,-1.698 0,-0.509 0.171,-0.884 0.508,-1.126 0.222,-0.157 0.467,-0.235 0.738,-0.235 0.374,0 0.73,0.105 1.072,0.311 0.339,0.209 0.511,0.47 0.511,0.79 z m -3.097,-0.949 c 0.516,0.336 1.548,0.792 3.097,1.371 v 0.715 c 0,0.572 -0.055,0.971 -0.169,1.195 -0.19,0.377 -0.587,0.564 -1.188,0.564 -0.289,0 -0.562,-0.072 -0.822,-0.219 -0.257,-0.151 -0.387,-0.359 -0.387,-0.623 0,-0.067 0.013,-0.181 0.04,-0.342 0.028,-0.16 0.039,-0.263 0.039,-0.307 0,-0.315 -0.103,-0.534 -0.311,-0.657 -0.117,-0.073 -0.26,-0.11 -0.422,-0.11 -0.254,0 -0.447,0.082 -0.582,0.248 -0.134,0.167 -0.202,0.351 -0.202,0.553 0,0.393 0.242,0.805 0.73,1.235 0.485,0.429 1.198,0.645 2.136,0.645 1.092,0 1.83,-0.354 2.218,-1.06 C 1.289,1.872 1.392,1.308 1.392,0.568 v -3.373 c 0,-0.327 0.022,-0.551 0.068,-0.673 0.071,-0.223 0.223,-0.333 0.453,-0.333 0.128,0 0.233,0.021 0.319,0.061 0.083,0.038 0.232,0.134 0.437,0.288 V -3.903 C 2.489,-4.119 2.298,-4.299 2.09,-4.439 1.776,-4.652 1.457,-4.757 1.132,-4.757 c -0.379,0 -0.656,0.124 -0.827,0.369 -0.171,0.248 -0.265,0.542 -0.283,0.884 -0.427,-0.369 -0.793,-0.645 -1.094,-0.822 -0.514,-0.303 -1.001,-0.454 -1.46,-0.454 -0.486,0 -0.905,0.169 -1.258,0.509 -0.357,0.338 -0.533,0.769 -0.533,1.289 0,0.813 0.407,1.49 1.226,2.033"
         style="fill:#231f20;fill-opacity:1;fill-rule:nonzero;stroke:none"
         transform="matrix(1.3333333,0,0,-1.3333333,184.11333,183.704)" />
      <path
         id="path21"
         d="m 0,0 c 0.516,0.045 0.859,0.136 1.027,0.274 0.168,0.137 0.251,0.429 0.251,0.878 v 3.81 c 0,0.554 -0.052,0.951 -0.155,1.19 C 1.021,6.389 0.832,6.509 0.559,6.509 0.502,6.509 0.428,6.502 0.336,6.488 0.242,6.474 0.149,6.456 0.045,6.433 V 6.707 C 0.364,6.82 0.693,6.934 1.027,7.053 1.364,7.169 1.594,7.254 1.722,7.305 2.002,7.41 2.29,7.531 2.586,7.666 2.626,7.666 2.649,7.651 2.657,7.623 2.666,7.595 2.669,7.534 2.669,7.444 V 6.058 C 3.029,6.56 3.376,6.951 3.71,7.232 4.043,7.513 4.389,7.654 4.748,7.654 5.033,7.654 5.267,7.568 5.446,7.396 5.626,7.224 5.714,7.01 5.714,6.75 5.714,6.52 5.646,6.325 5.509,6.168 5.372,6.01 5.201,5.931 4.993,5.931 4.782,5.931 4.569,6.03 4.352,6.226 4.138,6.422 3.967,6.52 3.844,6.52 3.647,6.52 3.407,6.362 3.122,6.046 2.834,5.727 2.692,5.402 2.692,5.066 V 1.278 C 2.692,0.793 2.806,0.455 3.031,0.266 3.256,0.079 3.63,-0.011 4.152,0 V -0.274 H 0 V 0"
         style="fill:#231f20;fill-opacity:1;fill-rule:nonzero;stroke:none"
         transform="matrix(1.3333333,0,0,-1.3333333,187.82,189.54533)" />
      <path
         id="path22"
         d="m 0,0 c -0.561,-0.51 -0.844,-1.393 -0.844,-2.645 0,-0.999 0.226,-1.931 0.679,-2.796 0.456,-0.864 1.084,-1.296 1.891,-1.296 0.63,0 1.118,0.289 1.457,0.867 0.343,0.579 0.513,1.336 0.513,2.274 0,0.971 -0.216,1.887 -0.653,2.745 C 2.61,0.008 1.983,0.438 1.158,0.438 0.713,0.438 0.328,0.293 0,0 Z m -1.343,-0.218 c 0.713,0.771 1.625,1.158 2.744,1.158 1.112,0 2.033,-0.365 2.763,-1.094 0.73,-0.73 1.095,-1.701 1.095,-2.913 0,-1.116 -0.354,-2.087 -1.061,-2.911 -0.709,-0.826 -1.625,-1.238 -2.746,-1.238 -1.078,0 -1.99,0.395 -2.738,1.186 -0.747,0.792 -1.12,1.785 -1.12,2.981 0,1.116 0.354,2.059 1.063,2.831"
         style="fill:#231f20;fill-opacity:1;fill-rule:nonzero;stroke:none"
         transform="matrix(1.3333333,0,0,-1.3333333,199.15333,180.63867)" />
      <path
         id="path23"
         d="m 0,0 c 0.507,-0.361 0.761,-0.758 0.761,-1.19 0,-0.183 -0.062,-0.356 -0.193,-0.515 -0.129,-0.16 -0.328,-0.24 -0.597,-0.24 -0.196,0 -0.367,0.067 -0.516,0.203 -0.148,0.134 -0.256,0.332 -0.325,0.589 l -0.099,0.406 c -0.075,0.298 -0.201,0.509 -0.38,0.633 -0.185,0.118 -0.428,0.176 -0.733,0.176 -0.638,0 -1.177,-0.279 -1.617,-0.838 -0.441,-0.56 -0.661,-1.303 -0.661,-2.23 0,-0.849 0.242,-1.609 0.729,-2.285 0.486,-0.674 1.138,-1.012 1.965,-1.012 0.582,0 1.101,0.192 1.558,0.573 0.256,0.22 0.55,0.568 0.875,1.046 L 1,-4.828 c -0.319,-0.673 -0.655,-1.208 -1.008,-1.6 -0.679,-0.753 -1.463,-1.129 -2.356,-1.129 -0.873,0 -1.648,0.345 -2.321,1.035 -0.673,0.69 -1.01,1.628 -1.01,2.812 0,1.162 0.368,2.161 1.101,2.997 0.736,0.837 1.663,1.255 2.783,1.255 C -1.109,0.542 -0.505,0.36 0,0"
         style="fill:#231f20;fill-opacity:1;fill-rule:nonzero;stroke:none"
         transform="matrix(1.3333333,0,0,-1.3333333,214.98267,180.04667)" />
      <path
         id="path24"
         d="m 0,0 c -0.65,-0.213 -1.186,-0.449 -1.611,-0.706 -0.813,-0.499 -1.218,-1.064 -1.218,-1.698 0,-0.509 0.169,-0.884 0.508,-1.126 0.22,-0.157 0.465,-0.235 0.736,-0.235 0.373,0 0.73,0.105 1.071,0.311 0.343,0.209 0.514,0.47 0.514,0.79 z m -3.099,-0.949 c 0.518,0.336 1.551,0.792 3.099,1.371 v 0.715 c 0,0.572 -0.056,0.971 -0.168,1.195 -0.194,0.377 -0.591,0.564 -1.192,0.564 -0.288,0 -0.559,-0.072 -0.819,-0.219 -0.259,-0.151 -0.387,-0.359 -0.387,-0.623 0,-0.067 0.011,-0.181 0.04,-0.342 0.025,-0.16 0.04,-0.263 0.04,-0.307 0,-0.315 -0.106,-0.534 -0.314,-0.657 -0.117,-0.073 -0.256,-0.11 -0.42,-0.11 -0.254,0 -0.447,0.082 -0.581,0.248 -0.137,0.167 -0.203,0.351 -0.203,0.553 0,0.393 0.243,0.805 0.728,1.235 0.487,0.429 1.2,0.645 2.138,0.645 1.089,0 1.829,-0.354 2.216,-1.06 C 1.286,1.872 1.392,1.308 1.392,0.568 v -3.373 c 0,-0.327 0.022,-0.551 0.065,-0.673 0.074,-0.223 0.226,-0.333 0.456,-0.333 0.129,0 0.235,0.021 0.318,0.061 0.085,0.038 0.23,0.134 0.438,0.288 V -3.903 C 2.489,-4.119 2.296,-4.299 2.09,-4.439 1.776,-4.652 1.457,-4.757 1.132,-4.757 c -0.382,0 -0.658,0.124 -0.829,0.369 -0.169,0.248 -0.263,0.542 -0.28,0.884 -0.428,-0.369 -0.792,-0.645 -1.098,-0.822 -0.51,-0.303 -0.998,-0.454 -1.46,-0.454 -0.484,0 -0.903,0.169 -1.258,0.509 -0.353,0.338 -0.53,0.769 -0.53,1.289 0,0.813 0.408,1.49 1.224,2.033"
         style="fill:#231f20;fill-opacity:1;fill-rule:nonzero;stroke:none"
         transform="matrix(1.3333333,0,0,-1.3333333,223.65867,183.704)" />
      <path
         id="path25"
         d="m 0,0 c 0.169,0.173 0.374,0.259 0.622,0.259 0.239,0 0.445,-0.086 0.616,-0.255 0.171,-0.169 0.256,-0.376 0.256,-0.622 0,-0.24 -0.085,-0.443 -0.256,-0.613 -0.171,-0.171 -0.377,-0.255 -0.616,-0.255 -0.248,0 -0.453,0.084 -0.622,0.255 -0.168,0.17 -0.251,0.373 -0.251,0.613 0,0.24 0.083,0.445 0.251,0.618 z m -1.334,-11.25 c 0.599,0.055 0.975,0.157 1.132,0.305 0.157,0.149 0.236,0.547 0.236,1.2 v 4.016 c 0,0.363 -0.025,0.614 -0.076,0.754 -0.083,0.23 -0.263,0.344 -0.531,0.344 -0.063,0 -0.122,-0.006 -0.182,-0.018 -0.06,-0.01 -0.231,-0.055 -0.511,-0.134 v 0.263 l 0.363,0.118 c 0.98,0.321 1.668,0.564 2.055,0.727 0.158,0.067 0.257,0.101 0.303,0.101 0.011,-0.038 0.017,-0.081 0.017,-0.127 V -9.74 c 0,-0.637 0.077,-1.038 0.231,-1.199 0.154,-0.163 0.502,-0.266 1.046,-0.311 v -0.24 h -4.083 v 0.24"
         style="fill:#231f20;fill-opacity:1;fill-rule:nonzero;stroke:none"
         transform="matrix(1.3333333,0,0,-1.3333333,229.49467,174.59067)" />
      <path
         id="path26"
         d="M 0,0 C 0.397,0.05 0.677,0.15 0.836,0.297 0.993,0.445 1.072,0.776 1.072,1.289 V 5.555 C 1.072,5.913 1.041,6.164 0.973,6.308 0.867,6.52 0.647,6.628 0.32,6.628 0.269,6.628 0.217,6.625 0.163,6.619 0.111,6.613 0.046,6.604 -0.034,6.593 v 0.296 c 0.231,0.068 0.776,0.243 1.635,0.525 l 0.792,0.262 c 0.04,0 0.063,-0.013 0.071,-0.041 C 2.473,7.607 2.476,7.567 2.476,7.517 V 6.281 c 0.516,0.483 0.918,0.813 1.209,0.995 0.436,0.273 0.889,0.412 1.36,0.412 0.382,0 0.727,-0.11 1.041,-0.328 C 6.69,6.933 6.992,6.173 6.992,5.08 V 1.152 C 6.992,0.749 7.072,0.457 7.235,0.278 7.395,0.098 7.666,0.005 8.042,0 V -0.24 H 4.449 V 0 c 0.41,0.055 0.698,0.169 0.862,0.339 0.165,0.17 0.245,0.541 0.245,1.11 V 5.043 C 5.556,5.526 5.467,5.925 5.287,6.242 5.11,6.56 4.779,6.718 4.298,6.718 3.97,6.718 3.634,6.606 3.294,6.382 3.103,6.253 2.857,6.04 2.556,5.742 V 1.027 C 2.556,0.626 2.647,0.358 2.826,0.221 3.003,0.085 3.288,0.011 3.673,0 V -0.24 H 0 V 0"
         style="fill:#231f20;fill-opacity:1;fill-rule:nonzero;stroke:none"
         transform="matrix(1.3333333,0,0,-1.3333333,234.71867,189.59067)"
         clip-path="url(#clipPath27)" />
      <path
         id="path28"
         d="m 0,0 c -0.1425,-0.594 -0.3676,-0.993 -0.6743,-1.199 l -2.331,0.741 C -3.1489,-0.642 -3.394,-0.89 -3.7412,-1.199 l -2.1172,0.738 c 0,0.164 0.1841,0.697 0.5523,1.598 l 2.1167,-1.044 c 0.2041,0 0.3877,0.18 0.5517,0.538 0.1641,0.358 0.3272,0.538 0.4908,0.538 0.061,0 0.143,-0.012 0.2456,-0.032 C -1.4926,0.912 -0.8584,0.533 0,0 Z M 5.215,9.205 C 3.6,9.205 2.475,9.144 1.841,9.022 1.596,8.96 1.345,8.899 1.089,8.836 0.8335,8.777 0.6753,8.623 0.6138,8.377 0.9204,8.112 1.524,7.887 2.424,7.703 3.324,7.519 3.937,7.275 4.265,6.968 4.182,6.09 4.08,5.467 3.958,5.099 3.733,4.405 3.333,3.915 2.761,3.629 0.6753,2.342 -1.4311,1.699 -3.5571,1.699 c -1.2891,0 -2.4341,0.265 -3.4365,0.797 -1.1245,0.776 -1.6865,2.053 -1.6865,3.83 0.3481,2.104 1.0024,3.718 1.9633,4.842 0.0811,0.061 0.1739,0.02 0.2759,-0.123 -0.6714,-1.898 -1.0073,-3.204 -1.0073,-3.919 0,-0.612 0.1226,-1.184 0.3677,-1.714 0.8174,-0.999 2.0332,-1.5 3.6489,-1.5 1.2261,0 2.6362,0.275 4.2305,0.827 C 1.105,4.861 1.36,5.024 1.565,5.228 V 5.412 C 0.7471,5.677 0.2559,5.851 0.0928,5.932 -0.4594,6.177 -0.8681,6.493 -1.1347,6.88 -1.2978,8.35 -0.7661,9.493 0.4605,10.308 1.401,10.941 2.986,11.257 5.215,11.257 V 9.205"
         style="fill:#231f20;fill-opacity:1;fill-rule:nonzero;stroke:none"
         transform="matrix(1.3333333,0,0,-1.3333333,11.976533,167.14)" />
      <path
         id="path29"
         d="m 0,0 c 0.04,-0.206 -0.021,-0.462 -0.184,-0.77 -0.225,-0.429 -0.348,-0.696 -0.368,-0.798 l -0.184,-0.123 c -0.921,0.389 -1.759,0.861 -2.515,1.414 L -2.424,1.32 C -1.912,1.156 -1.105,0.716 0,0 Z M 0.463,3.908 C 0.26,3.6 -0.396,3.323 -1.499,3.076 H -7.913 V 5.13 h 6.625 c 0.102,0.102 0.153,0.226 0.153,0.37 0,0.082 -0.026,0.206 -0.077,0.371 -0.051,0.164 -0.076,0.288 -0.076,0.369 l -1.043,1.791 0.921,2.346 C -1.123,10.13 -0.652,9.382 0.003,8.128 0.474,6.916 0.71,5.941 0.71,5.202 0.71,4.729 0.628,4.299 0.463,3.908"
         style="fill:#231f20;fill-opacity:1;fill-rule:nonzero;stroke:none"
         transform="matrix(1.3333333,0,0,-1.3333333,28.926667,159)" />
      <path
         id="path30"
         d="m 0,0 c -0.451,-1.311 -1.167,-2.446 -2.148,-3.407 -1.105,-1.087 -2.291,-1.629 -3.558,-1.629 -1.697,0 -3.201,0.994 -4.509,2.981 0,0.164 0.03,0.257 0.092,0.278 1.697,-0.803 2.904,-1.205 3.62,-1.205 1.022,0 2.094,0.44 3.221,1.32 1.042,0.841 1.768,1.762 2.177,2.765 -0.103,0.655 -0.757,1.742 -1.963,3.257 L -2.21,6.233 C -1.842,6.07 -1.525,5.803 -1.259,5.435 -0.666,4.555 -0.298,3.981 -0.154,3.716 0.131,3.123 0.275,2.447 0.275,1.688 0.275,1.115 0.183,0.554 0,0"
         style="fill:#231f20;fill-opacity:1;fill-rule:nonzero;stroke:none"
         transform="matrix(1.3333333,0,0,-1.3333333,43.632,155.60533)" />
      <path
         id="path31"
         d="m 0,0 c -0.204,-0.571 -0.492,-1.121 -0.86,-1.649 -1.021,0.447 -1.85,0.906 -2.484,1.375 0.163,0.59 0.471,1.149 0.922,1.68 C -1.83,1.121 -1.022,0.653 0,0 Z M 2.976,-11.641 H 1.595 c -0.879,0.166 -1.79,0.737 -2.73,1.711 -1.615,-1.14 -4.028,-1.711 -7.239,-1.711 v 2.054 c 1.677,0 2.792,0.031 3.344,0.093 1.186,0.143 2.177,0.484 2.975,1.021 -0.593,1.236 -1.299,1.773 -2.117,1.609 -0.081,0.021 -0.2,0 -0.352,-0.06 -0.154,-0.063 -0.261,-0.093 -0.322,-0.093 -0.103,0 -0.194,0.052 -0.277,0.154 0.307,0.674 0.624,1.361 0.951,2.058 0.451,0.755 1.064,1.094 1.841,1.012 1.594,0 2.679,-0.349 3.25,-1.048 0.287,-0.35 0.431,-0.822 0.431,-1.417 0,-0.617 -0.174,-1.233 -0.522,-1.85 L 0.46,-8.755 c 0.92,-0.556 1.759,-0.832 2.516,-0.832 v -2.054"
         style="fill:#231f20;fill-opacity:1;fill-rule:nonzero;stroke:none"
         transform="matrix(1.3333333,0,0,-1.3333333,54.210667,139.37733)" />
      <path
         id="path32"
         d="m 0,0 c 0.062,0.39 -0.154,0.988 -0.645,1.79 -0.448,0.433 -0.889,0.618 -1.317,0.557 -0.327,-0.103 -0.85,-0.578 -1.565,-1.422 0.941,-0.698 1.83,-1.05 2.669,-1.05 0.285,0 0.571,0.042 0.858,0.125 z m 1.503,-2.155 h -3.16 c -1.145,0.315 -2.044,0.659 -2.697,1.035 -0.982,-0.586 -2.905,-0.93 -5.767,-1.035 v 2.03 c 0.389,0 0.767,0 1.134,0 2.371,0 3.947,0.473 4.724,1.416 0.573,1.128 0.889,1.754 0.951,1.878 0.471,0.739 0.981,1.169 1.533,1.292 0.757,-0.042 1.443,-0.452 2.056,-1.23 0.326,-0.433 0.736,-1.14 1.226,-2.123 0.123,-0.657 0.186,-1.169 0.186,-1.54 0,-0.512 -0.063,-1.086 -0.186,-1.723"
         style="fill:#231f20;fill-opacity:1;fill-rule:nonzero;stroke:none"
         transform="matrix(1.3333333,0,0,-1.3333333,71.06,152.02533)" />
      <path
         id="path33"
         d="m 0,0 c 0,-0.737 -0.154,-1.239 -0.459,-1.506 h -6.499 v 2.054 h 5.475 l 0.091,0.369 c -0.039,1.476 -0.222,3.381 -0.544,5.718 l -0.759,5.653 2.082,1.967 C -0.204,9.772 0,5.019 0,0"
         style="fill:#231f20;fill-opacity:1;fill-rule:nonzero;stroke:none"
         transform="matrix(1.3333333,0,0,-1.3333333,81.758667,152.89067)" />
      <path
         id="path34"
         d="m 0,0 c -0.225,-0.349 -0.81,-1.004 -1.754,-1.967 h -0.123 l -0.153,1.014 c 0,1.619 -0.046,3.668 -0.137,6.147 l -0.251,6.081 1.775,2.519 c 0,-0.493 0.091,-0.81 0.277,-0.952 C -0.123,10.546 0,6.269 0,0"
         style="fill:#231f20;fill-opacity:1;fill-rule:nonzero;stroke:none"
         transform="matrix(1.3333333,0,0,-1.3333333,88.613333,152.276)" />
      <path
         id="path35"
         d="m 0,0 c -0.451,-1.311 -1.167,-2.446 -2.148,-3.407 -1.103,-1.087 -2.289,-1.629 -3.558,-1.629 -1.697,0 -3.2,0.994 -4.508,2.981 0,0.164 0.031,0.257 0.09,0.278 1.699,-0.803 2.905,-1.205 3.62,-1.205 1.023,0 2.097,0.44 3.222,1.32 1.043,0.841 1.768,1.762 2.178,2.765 -0.103,0.655 -0.757,1.742 -1.964,3.257 l 0.859,1.873 C -1.841,6.07 -1.524,5.803 -1.258,5.435 -0.665,4.555 -0.297,3.981 -0.154,3.716 0.132,3.123 0.276,2.447 0.276,1.688 0.276,1.115 0.184,0.554 0,0"
         style="fill:#231f20;fill-opacity:1;fill-rule:nonzero;stroke:none"
         transform="matrix(1.3333333,0,0,-1.3333333,102.48133,155.60533)" />
      <path
         id="path36"
         d="M 0,0 C 0.061,0.39 -0.154,0.988 -0.645,1.79 -1.094,2.223 -1.534,2.408 -1.962,2.347 -2.29,2.244 -2.812,1.769 -3.527,0.925 c 0.941,-0.698 1.83,-1.05 2.669,-1.05 0.285,0 0.571,0.042 0.858,0.125 z m 1.503,-2.155 h -3.16 c -1.145,0.315 -2.045,0.659 -2.697,1.035 -0.983,-0.586 -2.905,-0.93 -5.768,-1.035 v 2.03 c 0.389,0 0.767,0 1.135,0 2.371,0 3.946,0.473 4.724,1.416 0.573,1.128 0.889,1.754 0.95,1.878 0.471,0.739 0.982,1.169 1.533,1.292 0.758,-0.042 1.444,-0.452 2.056,-1.23 0.327,-0.433 0.736,-1.14 1.227,-2.123 0.122,-0.657 0.185,-1.169 0.185,-1.54 0,-0.512 -0.063,-1.086 -0.185,-1.723"
         style="fill:#231f20;fill-opacity:1;fill-rule:nonzero;stroke:none"
         transform="matrix(1.3333333,0,0,-1.3333333,115.39333,152.02533)" />
      <path
         id="path37"
         d="M 0,0 V -2.054 H -15.918 V 0 L -4.936,0.025 C -6.268,1.166 -7.063,1.827 -7.329,2.01 -8.27,2.662 -9.16,2.988 -9.998,2.988 c -0.387,0 -0.777,-0.071 -1.166,-0.211 -0.429,-0.242 -0.889,-0.424 -1.38,-0.545 -0.217,0.123 -0.217,0.348 0,0.675 0.777,1.122 1.676,1.735 2.701,1.838 C -8.68,4.848 -7.269,4.374 -5.612,3.327 -5.429,3.205 -4.18,2.279 -1.871,0.555 -1.215,0.185 -0.593,0 0,0"
         style="fill:#231f20;fill-opacity:1;fill-rule:nonzero;stroke:none"
         transform="matrix(1.3333333,0,0,-1.3333333,138.03867,152.16)" />
      <path
         id="path38"
         d="m 0,0 c 0.082,-0.083 0.122,-0.174 0.122,-0.276 0,-0.164 -0.071,-0.349 -0.214,-0.554 -0.921,-0.41 -2.229,-1.156 -3.927,-2.242 -0.019,0.082 -0.031,0.163 -0.031,0.245 0,0.307 0.143,0.667 0.431,1.076 -0.739,0.41 -1.055,0.778 -0.952,1.106 0,0.779 0.47,1.497 1.411,2.154 0.265,0.183 0.953,0.276 2.056,0.276 C -0.961,1.662 -0.91,1.528 -0.95,1.386 -1.013,1.058 -1.044,0.914 -1.044,0.955 -1.227,0.872 -1.626,0.801 -2.238,0.74 -2.752,0.679 -3.12,0.524 -3.345,0.278 -3.508,-0.07 -3.579,-0.285 -3.559,-0.368 c 0.205,-0.226 0.522,-0.336 0.952,-0.336 0.183,0 0.397,0.019 0.645,0.059 L 0,0"
         style="fill:#231f20;fill-opacity:1;fill-rule:nonzero;stroke:none"
         transform="matrix(1.3333333,0,0,-1.3333333,146.44933,129.14933)" />
      <path
         id="path39"
         d="m 0,0 c 0.023,0.102 0.032,0.216 0.032,0.342 0,0.165 -0.194,0.703 -0.582,1.614 L -2.606,-0.28 h 2.332 z M 3.16,10.999 C 3.16,10.078 2.792,9.421 2.053,9.034 1.788,7.149 1.195,5.196 0.271,3.168 0.827,1.611 1.106,0.455 1.106,-0.302 c 0,-0.676 -0.144,-1.261 -0.43,-1.751 -0.593,-0.328 -1.688,-0.514 -3.282,-0.554 -1.124,-0.019 -1.933,0.113 -2.424,0.4 0.02,0.144 0.072,0.553 0.154,1.23 0.06,0.512 0.285,0.84 0.673,0.983 0.733,0.39 1.759,1.384 3.083,2.982 L -3.079,5.6 c -0.753,0.945 -1.5,1.723 -2.234,2.336 -0.142,0.02 -0.33,-0.061 -0.567,-0.245 -0.234,-0.183 -0.402,-0.277 -0.505,-0.277 -0.06,0 -0.131,0.023 -0.213,0.063 -1.307,1.144 -1.96,2.195 -1.96,3.156 0,0.859 0.277,1.413 0.83,1.658 0.551,0 1.206,-0.369 1.962,-1.104 1.127,-1.081 2.954,-3.368 5.492,-6.858 0.673,1.369 1.013,3.01 1.013,4.93 0,1.104 -0.114,2.155 -0.34,3.154 0.064,0.265 0.431,0.727 1.107,1.379 0.736,-0.92 1.286,-1.853 1.654,-2.793"
         style="fill:#231f20;fill-opacity:1;fill-rule:nonzero;stroke:none"
         transform="matrix(1.3333333,0,0,-1.3333333,153.072,151.42267)" />
      <path
         id="path40"
         d="m 0,0 c -0.226,-0.349 -0.811,-1.004 -1.754,-1.967 h -0.123 l -0.154,1.014 c 0,1.619 -0.046,3.668 -0.137,6.147 l -0.251,6.081 1.777,2.519 c 0,-0.493 0.091,-0.81 0.276,-0.952 C -0.124,10.546 0,6.269 0,0"
         style="fill:#231f20;fill-opacity:1;fill-rule:nonzero;stroke:none"
         transform="matrix(1.3333333,0,0,-1.3333333,164.19067,152.276)" />
      <path
         id="path41"
         d="m 0,0 c 0.02,-0.899 -0.273,-1.758 -0.887,-2.575 -0.573,-0.716 -1.297,-1.277 -2.175,-1.686 -1.043,-0.491 -2.156,-0.736 -3.342,-0.736 -1.451,0 -2.589,0.383 -3.416,1.149 -0.83,0.767 -1.244,1.877 -1.244,3.328 0,0.777 0.18,1.732 0.54,2.867 0.356,1.135 0.717,1.62 1.085,1.457 C -9.458,3.518 -9.538,2.997 -9.684,2.241 -9.807,1.568 -9.866,1.036 -9.866,0.649 c 0,-0.389 0.052,-0.755 0.154,-1.104 0.08,-0.552 0.348,-1.072 0.795,-1.562 0.451,-0.491 0.953,-0.776 1.506,-0.859 0.368,-0.059 0.704,-0.091 1.013,-0.091 1.756,0 3.341,0.593 4.753,1.778 l 0.368,0.552 -0.829,13.819 c 0.407,0.593 0.64,0.941 0.704,1.042 0.325,0.449 0.61,0.755 0.855,0.92 L -0.333,14.685 0,0"
         style="fill:#231f20;fill-opacity:1;fill-rule:nonzero;stroke:none"
         transform="matrix(1.3333333,0,0,-1.3333333,189.5,154.62267)" />
      <path
         id="path42"
         d="m 0,0 v -2.06 c -0.921,0 -1.451,0.093 -1.594,0.278 -0.758,0.37 -1.28,1.027 -1.565,1.972 -0.102,0.328 -0.316,1.171 -0.644,2.527 -0.409,-0.798 -1.033,-1.976 -1.871,-3.534 -0.779,-1.351 -1.799,-2.099 -3.068,-2.242 -1.164,-0.247 -2.382,-0.369 -3.65,-0.369 -0.654,0 -1.329,0.031 -2.025,0.091 0,0.102 0.082,0.191 0.245,0.263 0.165,0.071 0.268,0.136 0.308,0.199 2.233,0.552 4.035,1.167 5.407,1.843 0.755,0.572 1.135,1.472 1.135,2.7 0,0.369 -0.031,0.778 -0.092,1.228 -0.43,1.843 -1.433,3.704 -3.011,5.587 -0.102,0.061 -0.265,-0.015 -0.491,-0.229 -0.224,-0.216 -0.379,-0.322 -0.462,-0.322 -0.079,0 -0.162,0.029 -0.245,0.092 -1.209,1.307 -1.81,2.441 -1.81,3.402 0,0.328 0.091,0.669 0.273,1.028 0.186,0.357 0.42,0.577 0.708,0.66 0.367,0 0.918,-0.34 1.656,-1.013 1.492,-1.696 2.567,-3.096 3.22,-4.2 0.941,-1.615 1.411,-3.221 1.411,-4.814 0,-0.676 -0.082,-1.361 -0.245,-2.057 l 0.092,-0.091 c 1.277,1.228 1.916,3.191 1.916,5.89 0,0.45 -0.018,1.127 -0.052,2.026 -0.037,0.9 -0.054,1.575 -0.054,2.024 0,0.592 0.02,1.126 0.06,1.596 0.063,0.04 0.269,0.254 0.616,0.645 0.288,0.325 0.502,0.49 0.648,0.49 0.142,0 0.214,-0.217 0.214,-0.644 0.122,-1.209 0.216,-3.012 0.276,-5.407 0.062,-2.397 0.154,-4.179 0.276,-5.346 0,-0.616 0.251,-1.139 0.75,-1.569 C -1.169,0.215 -0.612,0 0,0"
         style="fill:#231f20;fill-opacity:1;fill-rule:nonzero;stroke:none"
         transform="matrix(1.3333333,0,0,-1.3333333,212.37333,152.152)" />
      <path
         id="path43"
         d="m 0,0 c 0.142,0.307 0.214,0.665 0.214,1.074 0,0.573 -0.134,1.114 -0.4,1.625 C -0.942,2.005 -1.623,0.89 -2.237,-0.643 l 0.092,-0.092 C -1.206,-0.735 -0.49,-0.49 0,0 Z m 0.182,-5.858 c 0.02,0.102 0.032,0.214 0.032,0.338 0,0.225 -0.04,0.48 -0.123,0.766 -0.345,0.736 -0.936,1.329 -1.768,1.778 l -0.368,0.063 c -0.162,0.04 -0.285,0.02 -0.365,-0.063 0.1,-1.062 0.681,-2.084 1.74,-3.066 0.119,-0.082 0.242,-0.123 0.364,-0.123 0.183,0 0.346,0.103 0.488,0.307 z M 4.083,-3.09 H 1.292 c 0.102,-0.428 0.153,-0.865 0.153,-1.312 0,-1.366 -0.359,-2.617 -1.075,-3.758 -0.103,-0.163 -0.245,-0.245 -0.428,-0.245 -0.082,0 -0.217,0.02 -0.398,0.061 -0.186,0.041 -0.318,0.062 -0.4,0.062 -0.696,0.244 -1.238,0.692 -1.626,1.343 -0.245,0.387 -0.509,1.024 -0.797,1.911 -0.286,0.884 -0.551,1.531 -0.796,1.938 h -3.559 v 2.054 h 3.807 c 0.305,0.245 0.57,0.738 0.793,1.476 0.245,0.822 0.467,1.345 0.67,1.571 0.629,1.457 1.586,2.585 2.866,3.385 C 0.684,5.458 0.835,5.334 0.958,5.027 1.283,2.873 1.445,1.702 1.445,1.519 c 0,-1.11 -0.264,-1.96 -0.798,-2.555 H 4.083 V -3.09"
         style="fill:#231f20;fill-opacity:1;fill-rule:nonzero;stroke:none"
         transform="matrix(1.3333333,0,0,-1.3333333,222.00933,150.77867)" />
      <path
         id="path44"
         d="m 0,0 c 0,-0.737 -0.155,-1.239 -0.46,-1.506 h -6.498 v 2.054 h 5.474 l 0.092,0.369 c -0.04,1.476 -0.223,3.381 -0.545,5.718 l -0.759,5.653 2.082,1.967 C -0.206,9.772 0,5.019 0,0"
         style="fill:#231f20;fill-opacity:1;fill-rule:nonzero;stroke:none"
         transform="matrix(1.3333333,0,0,-1.3333333,236.188,152.89067)" />
      <path
         id="path45"
         d="m 0,0 c -0.225,-0.349 -0.81,-1.004 -1.754,-1.967 h -0.123 l -0.154,1.014 c 0,1.619 -0.045,3.668 -0.137,6.147 l -0.251,6.081 1.778,2.519 c 0,-0.493 0.091,-0.81 0.276,-0.952 C -0.123,10.546 0,6.269 0,0"
         style="fill:#231f20;fill-opacity:1;fill-rule:nonzero;stroke:none"
         transform="matrix(1.3333333,0,0,-1.3333333,243.03867,152.276)" />
    </g>
  </g>
</svg>
