<?xml version="1.0" encoding="UTF-8" standalone="no"?>
<!-- Created with Inkscape (http://www.inkscape.org/) -->

<svg
   version="1.1"
   id="svg1"
   width="362.42667"
   height="255.03067"
   viewBox="0 0 362.42667 255.03067"
   sodipodi:docname="Red_Crescent_MOROCCO.svg"
   inkscape:version="1.3.2 (091e20e, 2023-11-25, custom)"
   xmlns:inkscape="http://www.inkscape.org/namespaces/inkscape"
   xmlns:sodipodi="http://sodipodi.sourceforge.net/DTD/sodipodi-0.dtd"
   xmlns="http://www.w3.org/2000/svg"
   xmlns:svg="http://www.w3.org/2000/svg">
  <defs
     id="defs1">
    <clipPath
       clipPathUnits="userSpaceOnUse"
       id="clipPath4">
      <path
         d="M 0.059998,191.273 H 271.82 V 0.06 H 0.059998 Z"
         transform="translate(-2.3233,-15.784003)"
         id="path4" />
    </clipPath>
    <clipPath
       clipPathUnits="userSpaceOnUse"
       id="clipPath7">
      <path
         d="M 0.059998,191.273 H 271.82 V 0.06 H 0.059998 Z"
         transform="translate(-35.223001,-8.2690027)"
         id="path7" />
    </clipPath>
    <clipPath
       clipPathUnits="userSpaceOnUse"
       id="clipPath10">
      <path
         d="M 0.059998,191.273 H 271.82 V 0.06 H 0.059998 Z"
         transform="translate(-48.278001)"
         id="path10" />
    </clipPath>
    <clipPath
       clipPathUnits="userSpaceOnUse"
       id="clipPath12">
      <path
         d="M 0.059998,191.273 H 271.82 V 0.06 H 0.059998 Z"
         transform="translate(-57.295001)"
         id="path12" />
    </clipPath>
    <clipPath
       clipPathUnits="userSpaceOnUse"
       id="clipPath15">
      <path
         d="M 0.059998,191.273 H 271.82 V 0.06 H 0.059998 Z"
         transform="translate(-85.951,-4.8370026)"
         id="path15" />
    </clipPath>
    <clipPath
       clipPathUnits="userSpaceOnUse"
       id="clipPath20">
      <path
         d="M 0.059998,191.273 H 271.82 V 0.06 H 0.059998 Z"
         transform="translate(-127.53801,-8.2690027)"
         id="path20" />
    </clipPath>
    <clipPath
       clipPathUnits="userSpaceOnUse"
       id="clipPath22">
      <path
         d="M 0.059998,191.273 H 271.82 V 0.06 H 0.059998 Z"
         transform="translate(-141.387,-11.051)"
         id="path22" />
    </clipPath>
    <clipPath
       clipPathUnits="userSpaceOnUse"
       id="clipPath24">
      <path
         d="M 0.059998,191.273 H 271.82 V 0.06 H 0.059998 Z"
         transform="translate(-155.937,-3.0680001)"
         id="path24" />
    </clipPath>
    <clipPath
       clipPathUnits="userSpaceOnUse"
       id="clipPath30">
      <path
         d="M 0.059998,191.273 H 271.82 V 0.06 H 0.059998 Z"
         transform="translate(-224.64601,-8.2690027)"
         id="path30" />
    </clipPath>
    <clipPath
       clipPathUnits="userSpaceOnUse"
       id="clipPath32">
      <path
         d="M 0.059998,191.273 H 271.82 V 0.06 H 0.059998 Z"
         transform="translate(-230.473,-15.784003)"
         id="path32" />
    </clipPath>
    <clipPath
       clipPathUnits="userSpaceOnUse"
       id="clipPath36">
      <path
         d="M 0.059998,191.273 H 271.82 V 0.06 H 0.059998 Z"
         transform="translate(-270.17401,-4.8370026)"
         id="path36" />
    </clipPath>
  </defs>
  <sodipodi:namedview
     id="namedview1"
     pagecolor="#ffffff"
     bordercolor="#666666"
     borderopacity="1.0"
     inkscape:showpageshadow="2"
     inkscape:pageopacity="0.0"
     inkscape:pagecheckerboard="0"
     inkscape:deskcolor="#d1d1d1"
     inkscape:zoom="2.5798323"
     inkscape:cx="181.21333"
     inkscape:cy="127.33386"
     inkscape:window-width="1920"
     inkscape:window-height="1017"
     inkscape:window-x="-8"
     inkscape:window-y="-8"
     inkscape:window-maximized="1"
     inkscape:current-layer="g1">
    <inkscape:page
       x="0"
       y="0"
       inkscape:label="Red_Crescent_MOROCCO.eps"
       id="page1"
       width="362.42667"
       height="255.03067"
       margin="0"
       bleed="0" />
  </sodipodi:namedview>
  <g
     id="g1"
     inkscape:groupmode="layer"
     inkscape:label="Red_Crescent_MOROCCO.eps">
    <g
       id="group-MC1">
      <path
         id="path2"
         d="m 0,0 c -25.663,0 -46.468,20.804 -46.468,46.466 0,25.664 20.805,46.469 46.468,46.469 8.177,0 15.859,-2.115 22.534,-5.824 -10.311,10.175 -24.472,16.458 -40.104,16.458 -31.537,0 -57.103,-25.566 -57.103,-57.103 0,-31.535 25.566,-57.101 57.103,-57.101 15.632,0 29.793,6.282 40.104,16.457 C 15.859,2.115 8.177,0 0,0"
         style="fill:#ee2528;fill-opacity:1;fill-rule:nonzero;stroke:none"
         transform="matrix(1.3333333,0,0,-1.3333333,202.052,201.24667)" />
      <path
         id="path3"
         d="M 0,0 C 1.3462,1.482 3.061,2.21 4.979,2.21 5.9746,2.21 7.376,1.924 8.243,1.586 8.464,1.508 8.593,1.456 8.759,1.482 8.778,0.884 8.87,-0.755 9.018,-2.341 8.925,-2.522 8.648,-2.549 8.52,-2.392 8.243,-0.625 7.4131,1.404 4.7392,1.404 c -2.8212,0 -5.2187,-2.522 -5.2187,-7.905 0,-5.461 2.4526,-8.477 5.4771,-8.477 2.3784,0 3.4294,2.184 3.8544,3.718 0.129,0.13 0.405,0.079 0.479,-0.103 -0.129,-1.353 -0.609,-3.068 -0.885,-3.563 -0.221,-0.052 -0.443,-0.156 -0.646,-0.26 -0.4055,-0.208 -1.7331,-0.598 -2.9133,-0.598 -1.6597,0 -3.2456,0.468 -4.5918,1.742 -1.4751,1.43 -2.6182,3.797 -2.6182,7.151 0,2.886 0.9219,5.357 2.3233,6.891"
         style="fill:#ee2528;fill-opacity:1;fill-rule:nonzero;stroke:none"
         transform="matrix(1.3333333,0,0,-1.3333333,3.0977333,233.98533)"
         clip-path="url(#clipPath4)" />
      <path
         id="path5"
         d="m 0,0 c 0,-0.468 0,-0.754 0.055,-0.858 0.055,-0.078 0.332,-0.13 1.273,-0.13 0.663,0 1.364,0.104 1.899,0.676 0.498,0.546 0.922,1.456 0.922,3.225 0,2.053 -0.903,4.004 -2.95,4.004 C 0.055,6.917 0,6.813 0,6.085 Z m -1.512,3.718 c 0,2.471 -0.055,2.913 -0.812,3.042 l -0.59,0.105 c -0.129,0.13 -0.129,0.546 0.019,0.65 1.032,0.13 2.305,0.208 4.112,0.208 1.143,0 2.231,-0.13 3.079,-0.78 0.886,-0.65 1.531,-1.82 1.531,-3.641 0,-2.469 -1.383,-3.822 -2.305,-4.342 -0.092,-0.156 0,-0.416 0.092,-0.624 1.475,-3.355 2.453,-5.435 3.707,-6.916 0.313,-0.391 0.774,-0.677 1.272,-0.729 0.092,-0.052 0.111,-0.26 0.018,-0.364 -0.166,-0.078 -0.461,-0.13 -0.811,-0.13 -1.567,0 -2.508,0.65 -3.817,3.276 C 3.503,-5.565 2.747,-3.77 2.176,-2.6 1.899,-2.028 1.604,-1.768 0.867,-1.768 0.037,-1.768 0,-1.794 0,-2.34 v -3.277 c 0,-2.73 0.037,-3.042 1.106,-3.25 l 0.388,-0.078 c 0.11,-0.13 0.073,-0.572 -0.037,-0.65 -0.83,0.052 -1.457,0.078 -2.195,0.078 -0.774,0 -1.438,-0.026 -2.305,-0.078 -0.11,0.078 -0.147,0.468 -0.037,0.65 l 0.461,0.078 c 1.07,0.182 1.107,0.52 1.107,3.25 v 9.335"
         style="fill:#ee2528;fill-opacity:1;fill-rule:nonzero;stroke:none"
         transform="matrix(1.3333333,0,0,-1.3333333,21.194667,241.78667)" />
      <path
         id="path6"
         d="m 0,0 c 0,4.291 -1.346,8.919 -4.868,8.919 -1.918,0 -4.407,-1.846 -4.407,-7.541 0,-3.848 1.327,-8.841 4.96,-8.841 C -2.102,-7.463 0,-5.122 0,0 Z m -11.12,0.546 c 0,5.201 2.766,9.179 6.565,9.179 4.26,0 6.399,-4.343 6.399,-8.919 0,-5.253 -2.84,-9.075 -6.399,-9.075 -4.093,0 -6.565,4.135 -6.565,8.815"
         style="fill:#ee2528;fill-opacity:1;fill-rule:nonzero;stroke:none"
         transform="matrix(1.3333333,0,0,-1.3333333,46.964,244.00533)"
         clip-path="url(#clipPath7)" />
      <path
         id="path8"
         d="M 0,0 C 0,2.756 -0.037,3.198 -1.125,3.328 L -1.586,3.38 C -1.696,3.484 -1.66,3.952 -1.549,4.03 -0.627,3.978 0,3.952 0.774,3.952 1.512,3.952 2.139,3.978 3.061,4.03 3.172,3.952 3.208,3.484 3.098,3.38 L 2.637,3.328 C 1.549,3.198 1.512,2.756 1.512,0 v -9.258 c 0,-2.756 0.037,-3.12 1.125,-3.302 l 0.461,-0.078 c 0.11,-0.104 0.074,-0.572 -0.037,-0.65 -0.922,0.052 -1.549,0.078 -2.287,0.078 -0.774,0 -1.401,-0.026 -2.323,-0.078 -0.111,0.078 -0.147,0.494 -0.037,0.65 l 0.461,0.078 C -0.037,-12.378 0,-12.014 0,-9.258 V 0"
         style="fill:#ee2528;fill-opacity:1;fill-rule:nonzero;stroke:none"
         transform="matrix(1.3333333,0,0,-1.3333333,53.7,236.86267)" />
      <path
         id="path9"
         d="M 0,0 C -1.549,0 -2.526,0.67599 -2.877,0.96199 -3.098,1.534 -3.338,3.38 -3.375,4.603 c 0.092,0.181 0.369,0.234 0.443,0.078 0.276,-1.326 1.033,-3.875 3.171,-3.875 1.55,0 2.305,1.43 2.305,2.991 0,1.143 -0.166,2.418 -1.512,3.64 l -1.751,1.612 c -0.923,0.858 -1.992,2.341 -1.992,4.473 0,2.47 1.365,4.472 3.762,4.472 0.572,0 1.235,-0.13 1.715,-0.338 C 3.005,17.578 3.264,17.5 3.411,17.5 3.577,16.876 3.743,15.42 3.743,14.327 3.669,14.172 3.375,14.094 3.282,14.25 c -0.24,1.248 -0.738,2.938 -2.508,2.938 -1.807,0 -2.194,-1.69 -2.194,-2.886 0,-1.509 0.885,-2.574 1.567,-3.198 L 1.623,9.803 C 2.784,8.789 3.928,7.281 3.928,4.811 3.928,1.95 2.397,0 0,0"
         style="fill:#ee2528;fill-opacity:1;fill-rule:nonzero;stroke:none"
         transform="matrix(1.3333333,0,0,-1.3333333,64.370667,255.03067)"
         clip-path="url(#clipPath10)" />
      <path
         id="path11"
         d="M 0,0 C -1.549,0 -2.526,0.67599 -2.877,0.96199 -3.098,1.534 -3.337,3.38 -3.374,4.603 c 0.092,0.181 0.369,0.234 0.442,0.078 0.277,-1.326 1.033,-3.875 3.172,-3.875 1.549,0 2.305,1.43 2.305,2.991 0,1.143 -0.166,2.418 -1.512,3.64 l -1.752,1.612 c -0.922,0.858 -1.991,2.341 -1.991,4.473 0,2.47 1.364,4.472 3.761,4.472 0.572,0 1.236,-0.13 1.715,-0.338 C 3.006,17.578 3.264,17.5 3.412,17.5 3.578,16.876 3.744,15.42 3.744,14.327 3.67,14.172 3.375,14.094 3.283,14.25 c -0.24,1.248 -0.738,2.938 -2.508,2.938 -1.807,0 -2.195,-1.69 -2.195,-2.886 0,-1.509 0.885,-2.574 1.568,-3.198 L 1.623,9.803 C 2.785,8.789 3.928,7.281 3.928,4.811 3.928,1.95 2.397,0 0,0"
         style="fill:#ee2528;fill-opacity:1;fill-rule:nonzero;stroke:none"
         transform="matrix(1.3333333,0,0,-1.3333333,76.393333,255.03067)"
         clip-path="url(#clipPath12)" />
      <path
         id="path13"
         d="m 0,0 c -0.148,-0.598 -0.129,-0.624 0.387,-0.624 h 2.268 c 0.535,0 0.572,0.104 0.406,0.806 L 2.065,4.421 C 1.918,5.045 1.752,5.747 1.641,6.058 H 1.604 C 1.549,5.928 1.365,5.304 1.162,4.524 Z M 3.651,-2.315 C 3.522,-1.742 3.448,-1.664 2.895,-1.664 H 0.111 c -0.462,0 -0.572,-0.078 -0.701,-0.624 l -0.645,-2.731 c -0.277,-1.17 -0.406,-1.872 -0.406,-2.158 0,-0.312 0.092,-0.468 0.535,-0.52 l 0.608,-0.078 c 0.129,-0.13 0.129,-0.546 -0.037,-0.65 -0.479,0.052 -1.051,0.052 -1.918,0.078 -0.608,0 -1.272,-0.052 -1.77,-0.078 -0.11,0.104 -0.147,0.52 -0.037,0.65 l 0.609,0.078 c 0.443,0.052 0.848,0.338 1.106,1.274 0.332,1.196 0.849,2.887 1.623,5.799 l 1.881,7.02 c 0.258,0.937 0.369,1.431 0.313,1.847 0.443,0.182 0.756,0.65 0.959,0.988 0.111,0 0.24,-0.052 0.277,-0.234 0.24,-1.144 0.535,-2.34 0.811,-3.485 L 5.846,-4.941 C 6.38,-7.177 6.62,-7.567 7.413,-7.697 l 0.498,-0.078 c 0.129,-0.13 0.092,-0.546 0,-0.65 -0.756,0.052 -1.402,0.078 -2.231,0.078 -0.886,0 -1.586,-0.052 -2.121,-0.078 -0.147,0.104 -0.166,0.52 -0.037,0.65 l 0.535,0.078 c 0.387,0.052 0.645,0.208 0.645,0.468 0,0.286 -0.092,0.754 -0.24,1.378 l -0.811,3.536"
         style="fill:#ee2528;fill-opacity:1;fill-rule:nonzero;stroke:none"
         transform="matrix(1.3333333,0,0,-1.3333333,88.048,243.34667)" />
      <path
         id="path14"
         d="m 0,0 c 0,-0.78 0,-3.875 0.055,-4.551 -0.036,-0.156 -0.147,-0.286 -0.35,-0.286 -0.222,0.442 -0.756,1.353 -2.36,3.927 L -6.934,5.954 C -7.432,6.761 -8.686,8.893 -9.073,9.465 H -9.109 C -9.183,9.152 -9.202,8.555 -9.202,7.774 V 2.105 c 0,-1.221 0.037,-4.602 0.332,-5.381 0.129,-0.287 0.48,-0.443 0.941,-0.495 l 0.571,-0.078 c 0.111,-0.208 0.092,-0.52 -0.037,-0.65 -0.83,0.052 -1.475,0.078 -2.157,0.078 -0.775,0 -1.273,-0.026 -1.918,-0.078 -0.129,0.13 -0.147,0.494 -0.037,0.65 l 0.498,0.078 c 0.424,0.052 0.719,0.234 0.812,0.52 0.258,0.937 0.239,4.108 0.239,5.356 v 7.516 c 0,0.728 -0.018,1.273 -0.405,1.872 -0.259,0.363 -0.701,0.546 -1.144,0.624 l -0.313,0.052 c -0.111,0.156 -0.111,0.546 0.037,0.65 0.774,-0.078 1.751,-0.078 2.083,-0.078 0.295,0 0.609,0.026 0.848,0.078 0.37,-1.326 2.564,-4.759 3.154,-5.72 l 1.789,-2.835 c 1.254,-2.028 2.176,-3.458 3.042,-4.706 h 0.037 c 0.074,0.129 0.074,0.545 0.074,1.091 v 5.565 c 0,1.222 -0.018,4.602 -0.369,5.383 -0.11,0.234 -0.406,0.39 -1.143,0.52 l -0.314,0.052 c -0.129,0.156 -0.11,0.572 0.037,0.65 0.848,-0.052 1.475,-0.078 2.176,-0.078 0.793,0 1.272,0.026 1.899,0.078 0.148,-0.13 0.148,-0.494 0.037,-0.65 L 1.309,12.117 C 0.719,11.987 0.35,11.779 0.276,11.571 -0.037,10.635 0,7.41 0,6.214 V 0"
         style="fill:#ee2528;fill-opacity:1;fill-rule:nonzero;stroke:none"
         transform="matrix(1.3333333,0,0,-1.3333333,114.60133,248.58133)"
         clip-path="url(#clipPath15)" />
      <path
         id="path16"
         d="m 0,0 c 0,-2.73 0.037,-3.094 1.106,-3.25 l 0.59,-0.078 C 1.807,-3.432 1.77,-3.9 1.66,-3.978 0.608,-3.926 -0.019,-3.9 -0.756,-3.9 c -0.738,0 -1.383,-0.026 -2.563,-0.078 -0.111,0.078 -0.148,0.52 0,0.65 l 0.664,0.078 c 1.05,0.13 1.143,0.52 1.143,3.25 v 11.623 c 0,0.807 0,0.833 -0.553,0.833 H -3.08 c -0.793,0 -1.807,-0.052 -2.268,-0.65 -0.442,-0.572 -0.627,-1.144 -0.83,-1.795 -0.147,-0.155 -0.406,-0.025 -0.479,0.183 0.295,1.17 0.571,2.834 0.7,3.874 0.056,0.052 0.296,0.078 0.351,0 0.111,-0.832 0.719,-0.806 1.567,-0.806 H 3.43 c 0.996,0 1.161,0.052 1.438,0.728 C 4.96,14.042 5.163,14.016 5.2,13.912 4.997,12.846 4.868,10.74 4.923,9.959 4.85,9.751 4.536,9.751 4.444,9.908 4.389,10.558 4.26,11.52 3.983,11.806 3.559,12.248 2.858,12.456 1.844,12.456 H 0.535 C -0.019,12.456 0,12.43 0,11.572 V 0"
         style="fill:#ee2528;fill-opacity:1;fill-rule:nonzero;stroke:none"
         transform="matrix(1.3333333,0,0,-1.3333333,126.52667,249.276)" />
      <path
         id="path17"
         d="m 0,0 c 0.202,-0.183 0.277,-0.494 0.277,-0.832 0,-0.26 -0.056,-0.494 -0.148,-0.651 l -4.297,-0.572 c -0.203,0.235 -0.277,0.572 -0.277,0.832 0,0.261 0.056,0.494 0.148,0.651 L 0,0"
         style="fill:#ee2528;fill-opacity:1;fill-rule:nonzero;stroke:none"
         transform="matrix(1.3333333,0,0,-1.3333333,137.96267,245.912)" />
      <path
         id="path18"
         d="m 0,0 c 0,-0.468 0,-0.754 0.055,-0.858 0.055,-0.078 0.332,-0.13 1.273,-0.13 0.663,0 1.364,0.104 1.899,0.676 0.498,0.546 0.922,1.456 0.922,3.225 0,2.053 -0.903,4.004 -2.95,4.004 C 0.055,6.917 0,6.813 0,6.085 Z m -1.512,3.718 c 0,2.471 -0.055,2.913 -0.812,3.042 l -0.59,0.105 c -0.129,0.13 -0.129,0.546 0.019,0.65 1.032,0.13 2.305,0.208 4.112,0.208 1.143,0 2.231,-0.13 3.079,-0.78 0.886,-0.65 1.531,-1.82 1.531,-3.641 0,-2.469 -1.383,-3.822 -2.305,-4.342 -0.092,-0.156 0,-0.416 0.092,-0.624 1.475,-3.355 2.453,-5.435 3.707,-6.916 0.313,-0.391 0.774,-0.677 1.272,-0.729 0.092,-0.052 0.111,-0.26 0.018,-0.364 -0.166,-0.078 -0.461,-0.13 -0.811,-0.13 -1.567,0 -2.508,0.65 -3.817,3.276 C 3.503,-5.565 2.748,-3.77 2.176,-2.6 1.899,-2.028 1.604,-1.768 0.867,-1.768 0.037,-1.768 0,-1.794 0,-2.34 v -3.277 c 0,-2.73 0.037,-3.042 1.106,-3.25 l 0.388,-0.078 c 0.11,-0.13 0.073,-0.572 -0.038,-0.65 -0.829,0.052 -1.456,0.078 -2.194,0.078 -0.774,0 -1.438,-0.026 -2.305,-0.078 -0.11,0.078 -0.147,0.468 -0.037,0.65 l 0.461,0.078 c 1.07,0.182 1.107,0.52 1.107,3.25 v 9.335"
         style="fill:#ee2528;fill-opacity:1;fill-rule:nonzero;stroke:none"
         transform="matrix(1.3333333,0,0,-1.3333333,144.28133,241.78667)" />
      <path
         id="path19"
         d="m 0,0 c 0,4.291 -1.346,8.919 -4.868,8.919 -1.918,0 -4.407,-1.846 -4.407,-7.541 0,-3.848 1.327,-8.841 4.96,-8.841 C -2.102,-7.463 0,-5.122 0,0 Z m -11.12,0.546 c 0,5.201 2.767,9.179 6.565,9.179 4.26,0 6.399,-4.343 6.399,-8.919 0,-5.253 -2.84,-9.075 -6.399,-9.075 -4.093,0 -6.565,4.135 -6.565,8.815"
         style="fill:#ee2528;fill-opacity:1;fill-rule:nonzero;stroke:none"
         transform="matrix(1.3333333,0,0,-1.3333333,170.05067,244.00533)"
         clip-path="url(#clipPath20)" />
      <path
         id="path21"
         d="M 0,0 C 0,1.612 -0.037,4.602 -0.351,5.383 -0.48,5.695 -0.812,5.877 -1.273,5.929 l -0.461,0.052 c -0.11,0.182 -0.073,0.52 0.037,0.624 0.701,-0.052 1.383,-0.078 2.102,-0.078 0.775,0 1.272,0.026 1.937,0.078 C 2.489,6.475 2.47,6.137 2.379,5.981 L 1.936,5.929 C 1.475,5.877 1.106,5.642 1.014,5.304 0.737,4.447 0.756,1.457 0.756,0 v -2.938 c 0,-2.262 -0.258,-4.655 -1.291,-6.215 -0.792,-1.222 -2.158,-1.898 -3.522,-1.898 -1.273,0 -2.545,0.338 -3.449,1.43 -0.977,1.144 -1.438,3.043 -1.438,6.136 v 6.137 c 0,2.705 -0.037,3.147 -1.107,3.277 l -0.46,0.052 c -0.111,0.104 -0.074,0.546 0.036,0.624 0.922,-0.052 1.549,-0.078 2.287,-0.078 0.756,0 1.364,0.026 2.268,0.078 0.111,-0.078 0.148,-0.52 0.037,-0.624 L -6.325,5.929 C -7.395,5.799 -7.432,5.357 -7.432,2.652 v -5.616 c 0,-4.187 0.922,-6.942 3.743,-6.942 2.675,0 3.689,2.963 3.689,6.916 L 0,0"
         style="fill:#ee2528;fill-opacity:1;fill-rule:nonzero;stroke:none"
         transform="matrix(1.3333333,0,0,-1.3333333,188.516,240.296)"
         clip-path="url(#clipPath22)" />
      <path
         id="path23"
         d="m 0,0 c 0,-1.04 0.11,-1.664 0.442,-1.846 0.056,-0.077 0.056,-0.234 -0.019,-0.312 -0.22,0 -0.552,-0.104 -0.903,-0.234 -0.977,-0.364 -2.305,-0.676 -3.301,-0.676 -2.194,0 -4.204,0.858 -5.624,2.887 -1.106,1.559 -1.696,3.614 -1.696,5.902 0,2.21 0.516,4.446 1.659,6.162 1.235,1.821 3.062,3.043 5.846,3.043 1.051,0 2.028,-0.286 2.342,-0.39 0.35,-0.104 0.921,-0.286 1.143,-0.234 0,-0.858 0.111,-2.211 0.277,-3.77 -0.056,-0.208 -0.388,-0.235 -0.499,-0.078 -0.516,2.808 -1.899,3.692 -3.78,3.692 -3.577,0 -5.144,-3.588 -5.144,-7.489 0,-4.993 1.825,-8.919 5.532,-8.919 1.142,0 1.825,0.339 2.028,0.78 0.092,0.183 0.185,0.65 0.185,1.482 v 1.04 c 0,2.185 -0.056,2.34 -1.199,2.523 l -0.812,0.13 c -0.147,0.103 -0.129,0.572 0,0.65 0.535,-0.053 1.55,-0.078 2.638,-0.078 0.719,0 1.345,0.025 1.954,0.078 C 1.198,4.239 1.216,3.849 1.087,3.693 L 0.793,3.641 C 0.018,3.511 0,2.783 0,1.456 V 0"
         style="fill:#ee2528;fill-opacity:1;fill-rule:nonzero;stroke:none"
         transform="matrix(1.3333333,0,0,-1.3333333,207.916,250.94)"
         clip-path="url(#clipPath24)" />
      <path
         id="path25"
         d="M 0,0 C 0,2.704 -0.037,3.094 -1.125,3.276 L -1.42,3.328 C -1.53,3.432 -1.494,3.9 -1.383,3.978 -0.59,3.926 0.037,3.9 0.793,3.9 H 4.26 c 1.18,0 2.268,0 2.489,0.078 C 6.859,3.536 6.971,1.664 7.044,0.519 6.971,0.364 6.676,0.311 6.583,0.468 6.307,1.69 6.141,2.599 5.182,2.938 4.795,3.068 4.204,3.094 3.393,3.094 H 2.066 C 1.512,3.094 1.512,3.042 1.512,2.053 v -5.2 c 0,-0.728 0.055,-0.728 0.609,-0.728 h 1.07 c 0.774,0 1.345,0.052 1.567,0.156 0.221,0.105 0.35,0.26 0.442,0.91 l 0.148,1.067 c 0.092,0.156 0.405,0.156 0.479,-0.027 0,-0.624 -0.074,-1.637 -0.074,-2.626 0,-0.936 0.074,-1.925 0.074,-2.496 C 5.753,-7.073 5.44,-7.073 5.348,-6.917 l -0.166,1.013 c -0.074,0.469 -0.203,0.859 -0.572,0.989 -0.258,0.104 -0.701,0.13 -1.419,0.13 h -1.07 c -0.554,0 -0.609,-0.026 -0.609,-0.703 v -3.666 c 0,-1.377 0.055,-2.261 0.35,-2.704 0.222,-0.312 0.609,-0.598 2.232,-0.598 1.42,0 1.955,0.104 2.36,0.39 0.332,0.26 0.83,1.17 1.31,2.523 0.129,0.13 0.386,0.052 0.461,-0.183 -0.129,-0.91 -0.591,-2.912 -0.83,-3.614 -1.66,0.052 -3.301,0.078 -4.943,0.078 H 0.793 c -0.793,0 -1.42,-0.026 -2.508,-0.078 -0.11,0.078 -0.147,0.494 -0.037,0.65 l 0.609,0.078 c 1.051,0.13 1.143,0.52 1.143,3.25 V 0"
         style="fill:#ee2528;fill-opacity:1;fill-rule:nonzero;stroke:none"
         transform="matrix(1.3333333,0,0,-1.3333333,213.496,236.79333)" />
      <path
         id="path26"
         d="M 0,0 C 0.425,-1.221 0.831,-2.418 1.273,-3.561 H 1.31 c 0.498,1.222 0.959,2.574 1.42,3.9 l 1.733,4.966 c 0.849,2.366 1.365,3.797 1.402,4.993 0.627,-0.078 1.014,-0.078 1.383,-0.078 0.461,0 1.07,0.026 1.641,0.078 C 9,10.194 9,9.752 8.908,9.648 L 8.52,9.596 C 7.359,9.414 7.211,8.946 7.229,7.125 7.266,4.37 7.285,-0.441 7.432,-4.186 7.488,-5.486 7.469,-6.162 8.335,-6.292 L 8.926,-6.37 c 0.111,-0.156 0.092,-0.546 -0.037,-0.65 -0.756,0.052 -1.513,0.078 -2.176,0.078 -0.645,0 -1.475,-0.026 -2.231,-0.078 -0.129,0.13 -0.148,0.494 -0.037,0.65 l 0.535,0.078 c 0.903,0.13 0.903,0.546 0.903,2.21 L 5.828,6.761 H 5.791 C 5.662,6.476 4.961,4.395 4.592,3.381 l -1.64,-4.55 C 2.122,-3.458 1.291,-5.902 0.959,-7.098 0.923,-7.176 0.849,-7.202 0.775,-7.202 c -0.036,0 -0.129,0.026 -0.165,0.104 -0.314,1.378 -1.199,3.927 -1.623,5.201 l -1.66,5.019 C -3.06,4.317 -3.448,5.669 -3.853,6.866 H -3.89 C -3.963,5.253 -4.019,3.746 -4.075,2.237 -4.129,0.651 -4.204,-1.664 -4.204,-3.874 c 0,-1.923 0.111,-2.339 0.83,-2.418 l 0.701,-0.078 c 0.13,-0.156 0.111,-0.572 -0.019,-0.65 -0.627,0.052 -1.346,0.078 -2.046,0.078 -0.591,0 -1.255,-0.026 -1.882,-0.078 -0.11,0.13 -0.147,0.52 -0.036,0.65 l 0.406,0.078 c 0.774,0.13 1.033,0.312 1.143,2.132 0.11,1.716 0.203,3.147 0.314,5.721 0.091,2.158 0.166,4.368 0.203,5.799 0.036,1.637 -0.112,1.975 -1.237,2.236 l -0.295,0.052 c -0.091,0.156 -0.073,0.546 0.075,0.65 0.552,-0.052 0.996,-0.078 1.457,-0.078 0.423,0 0.922,0 1.53,0.078 -0.074,-1.014 0.387,-2.627 0.959,-4.291 L 0,0"
         style="fill:#ee2528;fill-opacity:1;fill-rule:nonzero;stroke:none"
         transform="matrix(1.3333333,0,0,-1.3333333,240.41733,245.22)" />
      <path
         id="path27"
         d="m 0,0 c -0.149,-0.598 -0.13,-0.624 0.386,-0.624 h 2.269 c 0.534,0 0.571,0.104 0.405,0.806 L 2.064,4.421 C 1.917,5.045 1.75,5.747 1.64,6.058 H 1.603 C 1.548,5.928 1.364,5.304 1.161,4.524 Z M 3.65,-2.315 C 3.521,-1.742 3.448,-1.664 2.894,-1.664 H 0.11 c -0.461,0 -0.572,-0.078 -0.701,-0.624 l -0.646,-2.731 c -0.276,-1.17 -0.405,-1.872 -0.405,-2.158 0,-0.312 0.092,-0.468 0.535,-0.52 l 0.608,-0.078 c 0.129,-0.13 0.129,-0.546 -0.037,-0.65 -0.479,0.052 -1.05,0.052 -1.918,0.078 -0.608,0 -1.272,-0.052 -1.77,-0.078 -0.11,0.104 -0.148,0.52 -0.036,0.65 l 0.608,0.078 c 0.443,0.052 0.848,0.338 1.107,1.274 0.332,1.196 0.847,2.887 1.622,5.799 l 1.881,7.02 c 0.258,0.937 0.369,1.431 0.313,1.847 0.443,0.182 0.757,0.65 0.959,0.988 0.111,0 0.24,-0.052 0.277,-0.234 0.24,-1.144 0.534,-2.34 0.811,-3.485 L 5.844,-4.941 C 6.379,-7.177 6.619,-7.567 7.412,-7.697 L 7.91,-7.775 c 0.129,-0.13 0.092,-0.546 0,-0.65 -0.756,0.052 -1.402,0.078 -2.232,0.078 -0.885,0 -1.586,-0.052 -2.12,-0.078 -0.147,0.104 -0.166,0.52 -0.037,0.65 l 0.535,0.078 c 0.387,0.052 0.646,0.208 0.646,0.468 0,0.286 -0.093,0.754 -0.241,1.378 L 3.65,-2.315"
         style="fill:#ee2528;fill-opacity:1;fill-rule:nonzero;stroke:none"
         transform="matrix(1.3333333,0,0,-1.3333333,258.41733,243.34667)" />
      <path
         id="path28"
         d="m 0,0 c 0,-0.468 0,-0.754 0.056,-0.858 0.056,-0.078 0.332,-0.13 1.272,-0.13 0.665,0 1.365,0.104 1.9,0.676 C 3.726,0.234 4.15,1.144 4.15,2.913 4.15,4.966 3.246,6.917 1.2,6.917 0.056,6.917 0,6.813 0,6.085 Z m -1.511,3.718 c 0,2.471 -0.056,2.913 -0.812,3.042 l -0.59,0.105 c -0.129,0.13 -0.129,0.546 0.019,0.65 1.032,0.13 2.305,0.208 4.112,0.208 1.143,0 2.231,-0.13 3.079,-0.78 0.885,-0.65 1.531,-1.82 1.531,-3.641 0,-2.469 -1.383,-3.822 -2.305,-4.342 -0.092,-0.156 0,-0.416 0.092,-0.624 1.475,-3.355 2.453,-5.435 3.707,-6.916 0.313,-0.391 0.774,-0.677 1.272,-0.729 0.092,-0.052 0.11,-0.26 0.019,-0.364 -0.166,-0.078 -0.461,-0.13 -0.812,-0.13 -1.567,0 -2.508,0.65 -3.817,3.276 C 3.504,-5.565 2.748,-3.77 2.177,-2.6 1.9,-2.028 1.605,-1.768 0.868,-1.768 0.037,-1.768 0,-1.794 0,-2.34 v -3.277 c 0,-2.73 0.037,-3.042 1.107,-3.25 l 0.388,-0.078 c 0.11,-0.13 0.073,-0.572 -0.038,-0.65 -0.83,0.052 -1.457,0.078 -2.194,0.078 -0.774,0 -1.438,-0.026 -2.305,-0.078 -0.111,0.078 -0.147,0.468 -0.037,0.65 l 0.461,0.078 c 1.07,0.182 1.107,0.52 1.107,3.25 v 9.335"
         style="fill:#ee2528;fill-opacity:1;fill-rule:nonzero;stroke:none"
         transform="matrix(1.3333333,0,0,-1.3333333,273.75733,241.78667)" />
      <path
         id="path29"
         d="m 0,0 c 0,4.291 -1.347,8.919 -4.869,8.919 -1.918,0 -4.407,-1.846 -4.407,-7.541 0,-3.848 1.327,-8.841 4.96,-8.841 C -2.103,-7.463 0,-5.122 0,0 Z m -11.12,0.546 c 0,5.201 2.766,9.179 6.565,9.179 4.26,0 6.398,-4.343 6.398,-8.919 0,-5.253 -2.84,-9.075 -6.398,-9.075 -4.094,0 -6.565,4.135 -6.565,8.815"
         style="fill:#ee2528;fill-opacity:1;fill-rule:nonzero;stroke:none"
         transform="matrix(1.3333333,0,0,-1.3333333,299.528,244.00533)"
         clip-path="url(#clipPath30)" />
      <path
         id="path31"
         d="M 0,0 C 1.346,1.482 3.061,2.21 4.978,2.21 5.974,2.21 7.376,1.924 8.243,1.586 8.464,1.508 8.592,1.456 8.758,1.482 8.777,0.884 8.87,-0.755 9.017,-2.341 8.924,-2.522 8.648,-2.549 8.519,-2.392 8.243,-0.625 7.413,1.404 4.739,1.404 c -2.821,0 -5.219,-2.522 -5.219,-7.905 0,-5.461 2.453,-8.477 5.477,-8.477 2.379,0 3.43,2.184 3.854,3.718 0.129,0.13 0.406,0.079 0.48,-0.103 -0.129,-1.353 -0.609,-3.068 -0.886,-3.563 -0.221,-0.052 -0.442,-0.156 -0.645,-0.26 -0.406,-0.208 -1.733,-0.598 -2.914,-0.598 -1.659,0 -3.245,0.468 -4.591,1.742 -1.475,1.43 -2.619,3.797 -2.619,7.151 0,2.886 0.922,5.357 2.324,6.891"
         style="fill:#ee2528;fill-opacity:1;fill-rule:nonzero;stroke:none"
         transform="matrix(1.3333333,0,0,-1.3333333,307.29733,233.98533)"
         clip-path="url(#clipPath32)" />
      <path
         id="path33"
         d="m 0,0 c -0.147,-0.598 -0.129,-0.624 0.388,-0.624 h 2.269 c 0.534,0 0.571,0.104 0.405,0.806 L 2.066,4.421 C 1.918,5.045 1.752,5.747 1.642,6.058 H 1.605 C 1.55,5.928 1.366,5.304 1.163,4.524 Z M 3.652,-2.315 C 3.523,-1.742 3.45,-1.664 2.896,-1.664 H 0.112 c -0.461,0 -0.573,-0.078 -0.701,-0.624 l -0.646,-2.731 c -0.276,-1.17 -0.405,-1.872 -0.405,-2.158 0,-0.312 0.092,-0.468 0.535,-0.52 l 0.608,-0.078 c 0.129,-0.13 0.129,-0.546 -0.037,-0.65 -0.479,0.052 -1.051,0.052 -1.918,0.078 -0.608,0 -1.272,-0.052 -1.77,-0.078 -0.111,0.104 -0.148,0.52 -0.036,0.65 l 0.608,0.078 c 0.442,0.052 0.848,0.338 1.106,1.274 0.332,1.196 0.848,2.887 1.623,5.799 l 1.88,7.02 c 0.259,0.937 0.37,1.431 0.314,1.847 0.443,0.182 0.757,0.65 0.959,0.988 0.111,0 0.24,-0.052 0.277,-0.234 C 2.748,7.853 3.043,6.657 3.32,5.512 L 5.846,-4.941 c 0.535,-2.236 0.775,-2.626 1.567,-2.756 l 0.499,-0.078 c 0.128,-0.13 0.092,-0.546 0,-0.65 -0.756,0.052 -1.402,0.078 -2.232,0.078 -0.885,0 -1.586,-0.052 -2.12,-0.078 -0.147,0.104 -0.166,0.52 -0.037,0.65 l 0.535,0.078 c 0.387,0.052 0.646,0.208 0.646,0.468 0,0.286 -0.093,0.754 -0.241,1.378 l -0.811,3.536"
         style="fill:#ee2528;fill-opacity:1;fill-rule:nonzero;stroke:none"
         transform="matrix(1.3333333,0,0,-1.3333333,325.36667,243.34667)" />
      <path
         id="path34"
         d="M 0,0 C 0,2.756 -0.038,3.198 -1.125,3.328 L -1.586,3.38 C -1.697,3.484 -1.66,3.952 -1.549,4.03 -0.627,3.978 0,3.952 0.774,3.952 1.511,3.952 2.138,3.978 3.061,4.03 3.171,3.952 3.209,3.484 3.097,3.38 L 2.636,3.328 C 1.548,3.198 1.511,2.756 1.511,0 v -9.258 c 0,-2.756 0.037,-3.12 1.125,-3.302 l 0.461,-0.078 c 0.112,-0.104 0.074,-0.572 -0.036,-0.65 -0.923,0.052 -1.55,0.078 -2.287,0.078 -0.774,0 -1.401,-0.026 -2.323,-0.078 -0.111,0.078 -0.148,0.494 -0.037,0.65 l 0.461,0.078 C -0.038,-12.378 0,-12.014 0,-9.258 V 0"
         style="fill:#ee2528;fill-opacity:1;fill-rule:nonzero;stroke:none"
         transform="matrix(1.3333333,0,0,-1.3333333,338.69467,236.86267)" />
      <path
         id="path35"
         d="m 0,0 c 0,-0.78 0,-3.875 0.056,-4.551 -0.038,-0.156 -0.148,-0.286 -0.351,-0.286 -0.222,0.442 -0.756,1.353 -2.36,3.927 L -6.934,5.954 C -7.432,6.761 -8.686,8.893 -9.072,9.465 H -9.11 C -9.184,9.152 -9.202,8.555 -9.202,7.774 V 2.105 c 0,-1.221 0.037,-4.602 0.332,-5.381 0.13,-0.287 0.479,-0.443 0.94,-0.495 l 0.572,-0.078 c 0.111,-0.208 0.092,-0.52 -0.037,-0.65 -0.83,0.052 -1.475,0.078 -2.157,0.078 -0.774,0 -1.272,-0.026 -1.918,-0.078 -0.129,0.13 -0.147,0.494 -0.037,0.65 l 0.498,0.078 c 0.424,0.052 0.719,0.234 0.812,0.52 0.257,0.937 0.239,4.108 0.239,5.356 v 7.516 c 0,0.728 -0.019,1.273 -0.405,1.872 -0.259,0.363 -0.702,0.546 -1.144,0.624 l -0.313,0.052 c -0.111,0.156 -0.111,0.546 0.037,0.65 0.774,-0.078 1.752,-0.078 2.084,-0.078 0.295,0 0.608,0.026 0.847,0.078 0.369,-1.326 2.564,-4.759 3.154,-5.72 l 1.789,-2.835 c 1.254,-2.028 2.175,-3.458 3.042,-4.706 h 0.037 c 0.074,0.129 0.074,0.545 0.074,1.091 v 5.565 c 0,1.222 -0.019,4.602 -0.369,5.383 -0.111,0.234 -0.405,0.39 -1.144,0.52 l -0.313,0.052 c -0.129,0.156 -0.111,0.572 0.037,0.65 0.849,-0.052 1.475,-0.078 2.176,-0.078 0.793,0 1.272,0.026 1.899,0.078 0.148,-0.13 0.148,-0.494 0.037,-0.65 L 1.309,12.117 C 0.719,11.987 0.35,11.779 0.276,11.571 -0.037,10.635 0,7.41 0,6.214 V 0"
         style="fill:#ee2528;fill-opacity:1;fill-rule:nonzero;stroke:none"
         transform="matrix(1.3333333,0,0,-1.3333333,360.232,248.58133)"
         clip-path="url(#clipPath36)" />
      <path
         id="path37"
         d="M 0,0 C 1.314,1.474 2.071,2.31 2.191,2.43 V 2.868 C 1.076,3.744 0.279,4.422 -0.239,4.939 -0.996,4.541 -1.872,3.624 -2.868,2.271 -1.792,1.235 -0.996,0.478 -0.438,0 H 0"
         style="fill:#ee2528;fill-opacity:1;fill-rule:nonzero;stroke:#ee2528;stroke-width:0.3;stroke-linecap:round;stroke-linejoin:round;stroke-miterlimit:4;stroke-dasharray:none;stroke-opacity:1"
         transform="matrix(1.3333333,0,0,-1.3333333,98.237333,25.513333)" />
      <path
         id="path38"
         d="m 0,0 c -0.12,-0.08 -0.518,-0.398 -1.195,-0.996 -0.518,-0.438 -0.916,-0.676 -1.235,-0.676 -0.278,0 -0.637,0.278 -1.115,0.835 -0.438,0.598 -0.837,0.917 -1.156,1.037 -1.195,-0.956 -2.07,-1.753 -2.589,-2.43 0.16,-0.159 0.519,-0.559 1.116,-1.275 0.438,-0.518 0.876,-0.876 1.275,-1.076 1.115,0.877 1.911,1.554 2.429,1.992 0.956,-0.797 1.673,-1.474 2.112,-1.992 H 0 c 0.159,0.2 0.558,0.558 1.195,1.036 0.518,0.438 0.916,0.796 1.116,1.116 C 1.833,-1.752 1.075,-0.956 0,0"
         style="fill:#ee2528;fill-opacity:1;fill-rule:nonzero;stroke:#ee2528;stroke-width:0.3;stroke-linecap:round;stroke-linejoin:round;stroke-miterlimit:4;stroke-dasharray:none;stroke-opacity:1"
         transform="matrix(1.3333333,0,0,-1.3333333,54.884,55.245333)" />
      <path
         id="path39"
         d="M 0,0 C -0.358,0 -0.836,-0.318 -1.394,-0.996 -2.111,-1.792 -2.589,-2.23 -2.748,-2.35 v -0.239 c 0.996,-1.116 1.713,-1.953 2.151,-2.55 0.478,0.359 0.916,0.797 1.434,1.355 0.159,0.199 0.558,0.718 1.195,1.514 C 1.673,-1.833 1.354,-1.395 1.036,-0.956 0.558,-0.318 0.199,0 0,0"
         style="fill:#ee2528;fill-opacity:1;fill-rule:nonzero;stroke:#ee2528;stroke-width:0.3;stroke-linecap:round;stroke-linejoin:round;stroke-miterlimit:4;stroke-dasharray:none;stroke-opacity:1"
         transform="matrix(1.3333333,0,0,-1.3333333,59.704,41.170667)" />
      <path
         id="path40"
         d="M 0,0 C 1.394,1.712 2.271,3.744 2.668,6.094 2.47,6.652 1.912,7.051 1.075,7.249 0.08,7.449 -0.518,7.728 -0.797,8.006 -0.08,9.042 1.274,9.56 3.307,9.56 H 3.744 C 4.262,9.481 4.819,9.441 5.417,9.441 c 2.789,0 4.78,0.358 6.015,1.075 1.315,0.797 2.509,2.429 3.505,4.86 0.478,1.115 0.678,1.992 0.678,2.629 0,1.075 -0.399,2.828 -1.275,5.298 -0.399,-0.279 -0.757,-0.677 -1.075,-1.275 -0.399,-0.797 -0.678,-1.275 -0.837,-1.434 v -1.952 c 0,-0.678 0,-1.195 0.08,-1.633 0.159,0.159 0.318,0.398 0.517,0.717 l 0.399,-1.195 c 0.159,-0.518 0.199,-0.916 0.199,-1.235 V 15.058 C 11.83,13.743 9.52,13.145 6.732,13.225 H 5.059 c -2.231,0 -3.864,-0.438 -4.939,-1.355 -1.156,-0.995 -2.152,-2.828 -2.988,-5.496 -0.08,-0.32 -0.12,-0.519 -0.12,-0.598 0,-0.717 0.279,-1.195 0.837,-1.474 0.04,0 0.597,-0.12 1.593,-0.358 C 0.04,3.824 0.398,3.545 0.518,3.146 -1.235,1.434 -3.227,0.597 -5.458,0.597 c -1.513,0 -2.788,0.399 -3.943,1.196 -1.235,0.916 -1.872,2.071 -1.872,3.505 0,1.673 0.518,3.226 1.633,4.58 0.996,1.076 1.992,2.112 3.028,3.187 1.075,1.155 1.593,2.35 1.593,3.585 0,0.32 -0.04,0.677 -0.12,1.036 -0.039,-0.199 -0.119,-0.518 -0.159,-0.957 -0.04,-0.477 -0.12,-0.836 -0.279,-1.034 -0.518,-1.036 -1.434,-2.192 -2.788,-3.546 -1.474,-1.514 -2.47,-2.589 -2.908,-3.226 -0.916,-1.355 -1.354,-2.829 -1.354,-4.461 0,-4.939 2.27,-7.37 6.891,-7.37 2.231,0 4.143,0.955 5.736,2.908"
         style="fill:#ee2528;fill-opacity:1;fill-rule:nonzero;stroke:none"
         transform="matrix(1.3333333,0,0,-1.3333333,49.469333,52.102667)" />
      <path
         id="path41"
         d="M 0,0 C 1.394,1.712 2.271,3.744 2.668,6.094 2.47,6.652 1.912,7.051 1.075,7.249 0.08,7.449 -0.518,7.728 -0.797,8.006 -0.08,9.042 1.274,9.56 3.307,9.56 H 3.744 C 4.262,9.481 4.819,9.441 5.417,9.441 c 2.789,0 4.78,0.358 6.015,1.075 1.315,0.797 2.509,2.429 3.505,4.86 0.478,1.115 0.678,1.992 0.678,2.629 0,1.075 -0.399,2.828 -1.275,5.298 -0.399,-0.279 -0.757,-0.677 -1.075,-1.275 -0.399,-0.797 -0.678,-1.275 -0.837,-1.434 v -1.952 c 0,-0.678 0,-1.195 0.08,-1.633 0.159,0.159 0.318,0.398 0.517,0.717 l 0.399,-1.195 c 0.159,-0.518 0.199,-0.916 0.199,-1.235 V 15.058 C 11.83,13.743 9.52,13.145 6.732,13.225 H 5.059 c -2.231,0 -3.864,-0.438 -4.939,-1.355 -1.156,-0.995 -2.152,-2.828 -2.988,-5.496 -0.08,-0.32 -0.12,-0.519 -0.12,-0.598 0,-0.717 0.279,-1.195 0.837,-1.474 0.04,0 0.597,-0.12 1.593,-0.358 C 0.04,3.824 0.398,3.545 0.518,3.146 -1.235,1.434 -3.227,0.597 -5.458,0.597 c -1.513,0 -2.788,0.399 -3.943,1.196 -1.235,0.916 -1.872,2.071 -1.872,3.505 0,1.673 0.518,3.226 1.633,4.58 0.996,1.076 1.992,2.112 3.028,3.187 1.075,1.155 1.593,2.35 1.593,3.585 0,0.32 -0.04,0.677 -0.12,1.036 -0.039,-0.199 -0.119,-0.518 -0.159,-0.957 -0.04,-0.477 -0.12,-0.836 -0.279,-1.034 -0.518,-1.036 -1.434,-2.192 -2.788,-3.546 -1.474,-1.514 -2.47,-2.589 -2.908,-3.226 -0.916,-1.355 -1.354,-2.829 -1.354,-4.461 0,-4.939 2.27,-7.37 6.891,-7.37 2.231,0 4.143,0.955 5.736,2.908 z"
         style="fill:none;stroke:#ee2528;stroke-width:0.3;stroke-linecap:round;stroke-linejoin:round;stroke-miterlimit:4;stroke-dasharray:none;stroke-opacity:1"
         transform="matrix(1.3333333,0,0,-1.3333333,49.469333,52.102667)" />
      <path
         id="path42"
         d="m 0,0 c 1.01,2.168 1.512,4.871 1.512,8.099 0,2.211 -0.438,5.129 -1.315,8.71 -1.036,4.068 -2.111,6.632 -3.306,7.649 -1.195,-2.166 -1.974,-5.045 -1.793,-8.622 0.018,-0.343 0.107,-0.643 0.227,-1.787 0.201,-1.91 0.319,-2.322 0.335,-2.768 0.015,-0.446 -0.041,-1.415 -0.041,-1.415 h 0.279 c 0.598,1.415 0.834,3.229 0.754,4.29 -0.08,1.017 -0.12,1.813 -0.12,2.344 0,0.574 0.04,1.105 0.08,1.591 0.717,-1.812 1.434,-3.67 2.151,-5.482 C -0.361,10.397 0.078,8.452 0.078,6.86 0.078,4.65 -0.759,2.616 -2.392,0.67 -2.437,0.617 -2.489,0.561 -2.537,0.507 -2.756,0.604 -2.972,0.71 -3.176,0.834 -3.562,0.411 -3.794,-0.128 -3.882,-0.848 c -0.934,-0.842 -2.097,-1.751 -3.49,-2.726 -0.057,-0.051 -0.152,-0.108 -0.267,-0.167 -0.403,-0.024 -0.808,-0.045 -1.234,-0.045 -1.632,0 -2.469,0.239 -2.509,0.678 -0.04,0.358 0.199,0.875 0.677,1.473 0.478,0.637 0.717,1.115 0.717,1.434 0,0.916 -0.438,1.633 -1.274,2.23 -0.757,0.519 -1.593,0.797 -2.51,0.797 -0.916,0 -1.752,-0.517 -2.549,-1.473 -0.678,-0.877 -1.075,-1.793 -1.235,-2.789 l 0.119,-0.04 c 0.08,0 0.2,0.04 0.359,0.12 0.16,0.08 0.279,0.12 0.358,0.12 0.399,0 0.797,-0.28 1.235,-0.798 0.399,-0.557 0.598,-0.995 0.598,-1.394 -0.518,-0.239 -1.195,-0.358 -1.992,-0.358 -0.235,0 -0.558,0 -0.956,0 -0.383,0 -0.819,0 -1.354,0 h -5.577 c -2.231,0.159 -3.824,-1.525 -4.78,-3.397 -0.797,-1.435 -2.111,-2.908 -3.944,-4.382 -2.589,-1.991 -5.258,-2.987 -7.967,-2.987 -0.836,0 -1.234,-0.16 -1.194,-0.518 1.314,-0.677 2.828,-1.036 4.541,-1.036 2.629,0 4.62,0.677 5.935,2.032 0.877,1.274 1.753,2.509 2.669,3.784 0.995,1.354 2.39,2.879 4.222,2.839 h 6.214 c 1.076,0 2.271,0.239 3.546,0.757 1.234,0.478 1.912,0.756 1.991,0.756 0.558,-0.995 1.554,-1.513 2.908,-1.513 h 1.752 c 10e-4,0.002 0.002,0.006 0.003,0.007 0.881,0.011 1.734,0.205 2.586,0.631 0.478,0.238 1.315,0.796 2.59,1.672 0.597,0.399 1.473,0.718 2.589,0.956 0.916,0.12 1.872,0.279 2.788,0.439 C 2.241,-1.994 2.6,-0.56 2.639,0.596 1.851,0.201 0.945,0.004 0,0"
         style="fill:#ee2528;fill-opacity:1;fill-rule:nonzero;stroke:#ee2528;stroke-width:0.3;stroke-linecap:round;stroke-linejoin:round;stroke-miterlimit:4;stroke-dasharray:none;stroke-opacity:1"
         transform="matrix(1.3333333,0,0,-1.3333333,115.16667,32.810667)" />
      <path
         id="path43"
         d="m 0,0 c 0.338,-2.925 -1.29,-6.322 -3.186,-8.805 -4.09,-5.351 -6.285,-5.626 -8.674,-6.654 0.819,0.352 7.915,-0.44 12.424,7.003 1.815,2.995 2.529,4.774 1.916,10.022 -0.589,5.047 -6.428,19.151 -7.943,20.525 -1.08,-2.928 -1.378,-6.812 -0.889,-11.651 0.156,-1.554 0.724,-5.133 2.087,-10.581 0,0 1.373,1.912 -0.07,8.31 -0.306,1.358 -0.561,4.661 -0.581,5.318 C -3.845,11.037 -0.757,6.549 0,0"
         style="fill:#ee2528;fill-opacity:1;fill-rule:nonzero;stroke:#ee2528;stroke-width:0.3;stroke-linecap:round;stroke-linejoin:round;stroke-miterlimit:4;stroke-dasharray:none;stroke-opacity:1"
         transform="matrix(1.3333333,0,0,-1.3333333,329.88533,35.505333)" />
      <path
         id="path44"
         d="m 0,0 c 0.338,-2.925 -1.29,-6.322 -3.187,-8.805 -4.09,-5.351 -6.284,-5.626 -8.673,-6.654 0.819,0.352 7.914,-0.44 12.423,7.003 1.816,2.995 2.529,4.774 1.916,10.022 -0.589,5.047 -6.428,19.151 -7.942,20.525 -1.08,-2.928 -1.378,-6.812 -0.89,-11.651 0.156,-1.554 0.725,-5.133 2.088,-10.581 0,0 1.372,1.912 -0.07,8.31 -0.306,1.358 -0.562,4.661 -0.581,5.318 C -3.845,11.037 -0.757,6.549 0,0"
         style="fill:#ee2528;fill-opacity:1;fill-rule:nonzero;stroke:#ee2528;stroke-width:0.3;stroke-linecap:round;stroke-linejoin:round;stroke-miterlimit:4;stroke-dasharray:none;stroke-opacity:1"
         transform="matrix(1.3333333,0,0,-1.3333333,229.46533,35.505333)" />
      <path
         id="path45"
         d="m 0,0 c 0.338,-2.925 -1.29,-6.322 -3.187,-8.805 -4.089,-5.351 -6.283,-5.626 -8.672,-6.654 0.818,0.352 7.914,-0.44 12.423,7.003 1.815,2.995 2.53,4.774 1.916,10.022 -0.589,5.047 -6.428,19.151 -7.942,20.525 -1.08,-2.928 -1.378,-6.812 -0.89,-11.651 0.156,-1.554 0.724,-5.133 2.088,-10.581 0,0 1.371,1.912 -0.07,8.31 -0.307,1.358 -0.563,4.661 -0.581,5.318 C -3.844,11.037 -0.756,6.549 0,0"
         style="fill:#ee2528;fill-opacity:1;fill-rule:nonzero;stroke:#ee2528;stroke-width:0.3;stroke-linecap:round;stroke-linejoin:round;stroke-miterlimit:4;stroke-dasharray:none;stroke-opacity:1"
         transform="matrix(1.3333333,0,0,-1.3333333,129.70267,35.505333)" />
      <path
         id="path46"
         d="m 0,0 c -1.496,-1.282 -1.898,-1.415 -6.49,-2.671 -0.429,0.507 -1.017,1.256 -1.55,1.71 0.319,0.32 1.121,0.4 2.617,0.507 0.427,0.027 3.42,0.961 4.809,1.496 C 0.774,1.683 1.175,1.176 0,0 Z M 0.748,4.407 C -1.603,3.5 -2.965,3.607 -6.118,3.179 c -1.495,-0.214 -3.5,-2.137 -4.354,-3.714 -0.64,-1.175 -0.134,-2.27 0.401,-3.098 -2.245,-1.763 -2.859,-4.621 -2.672,-7.293 -0.827,-0.855 -2.751,-1.362 -3.66,-1.362 l -2.178,-0.038 c -1.283,-0.081 -3.549,2.469 -4.537,1.186 -1.122,-1.496 -1.069,-3.312 -3.446,-6.303 -2.11,-2.619 -6.438,-4.036 -10.045,-5.13 -1.148,-0.427 -1.71,-0.669 0.562,-0.721 4.809,0.427 8.869,0.747 11.085,3.071 1.523,1.604 1.737,3.955 2.271,5.343 0.881,-0.961 1.737,-2.136 3.125,-2.136 h 2.352 v 0.025 c 2.096,0.132 3.775,1.534 4.818,2.805 0.962,1.123 2.351,2.192 4.622,2.378 1.497,0 1.71,0.428 1.924,1.604 0.266,1.388 1.12,4.113 -1.176,3.632 -1.441,-0.107 -2.618,-0.64 -3.767,-0.373 1.604,1.282 6.518,2.19 8.895,2.992 1.898,0.641 3.394,3.312 4.196,5.449 1.229,2.965 0.319,3.606 -1.55,2.911"
         style="fill:#ee2528;fill-opacity:1;fill-rule:evenodd;stroke:none"
         transform="matrix(1.3333333,0,0,-1.3333333,189.62,25.617333)" />
      <path
         id="path47"
         d="m 0,0 c -1.496,-1.282 -1.898,-1.415 -6.49,-2.671 -0.429,0.507 -1.017,1.256 -1.55,1.71 0.319,0.32 1.121,0.4 2.617,0.507 0.427,0.027 3.42,0.961 4.809,1.496 C 0.774,1.683 1.175,1.176 0,0 Z"
         style="fill:none;stroke:#ee2528;stroke-width:0.3;stroke-linecap:round;stroke-linejoin:round;stroke-miterlimit:4;stroke-dasharray:none;stroke-opacity:1"
         transform="matrix(1.3333333,0,0,-1.3333333,189.62,25.617333)" />
      <path
         id="path48"
         d="m 0,0 c -2.351,-0.907 -3.713,-0.801 -6.866,-1.229 -1.495,-0.213 -3.5,-2.137 -4.354,-3.713 -0.64,-1.175 -0.134,-2.27 0.401,-3.098 -2.245,-1.763 -2.859,-4.622 -2.672,-7.294 -0.827,-0.854 -2.751,-1.362 -3.66,-1.362 l -2.178,-0.037 c -1.283,-0.082 -3.549,2.469 -4.537,1.186 -1.122,-1.497 -1.069,-3.312 -3.446,-6.304 -2.11,-2.618 -6.438,-4.035 -10.045,-5.13 -1.148,-0.427 -1.71,-0.668 0.562,-0.721 4.809,0.428 8.869,0.748 11.085,3.072 1.523,1.604 1.737,3.955 2.271,5.342 0.881,-0.961 1.737,-2.135 3.125,-2.135 h 2.352 v 0.024 c 2.096,0.133 3.775,1.534 4.818,2.806 0.962,1.122 2.351,2.192 4.622,2.378 1.497,0 1.71,0.428 1.924,1.603 0.266,1.389 1.12,4.113 -1.176,3.633 -1.441,-0.107 -2.618,-0.641 -3.767,-0.374 1.604,1.283 6.518,2.19 8.895,2.993 1.898,0.64 3.394,3.312 4.196,5.449 C 2.779,0.054 1.869,0.695 0,0 Z"
         style="fill:none;stroke:#ee2528;stroke-width:0.3;stroke-linecap:round;stroke-linejoin:round;stroke-miterlimit:4;stroke-dasharray:none;stroke-opacity:1"
         transform="matrix(1.3333333,0,0,-1.3333333,190.61733,19.741333)" />
      <path
         id="path49"
         d="M 0,0 C 1.503,1.921 2.068,3.908 1.76,6.012 1.604,7.083 1.003,8.981 -0.054,11.582 -0.492,10.667 -0.933,9.548 -1.353,8.271 -1.894,6.612 -1.978,5.479 -1.885,4.845 -1.779,4.131 -1.659,3.283 -1.268,2.327 -0.867,1.292 -0.43,0.504 0,0 Z"
         style="fill:none;stroke:#ee2528;stroke-width:0.3;stroke-linecap:round;stroke-linejoin:round;stroke-miterlimit:4;stroke-dasharray:none;stroke-opacity:1"
         transform="matrix(1.3333333,0,0,-1.3333333,277.524,36.645333)" />
      <path
         id="path50"
         d="m 0,0 c -1.169,-0.153 -2.007,-0.431 -2.491,-0.827 -0.922,-0.753 -1.418,-1.597 -1.533,-2.559 1.35,0.982 2.867,2.184 4.156,3.395 C 0.088,0.004 0.042,0.006 0,0 Z"
         style="fill:none;stroke:#ee2528;stroke-width:0.3;stroke-linecap:round;stroke-linejoin:round;stroke-miterlimit:4;stroke-dasharray:none;stroke-opacity:1"
         transform="matrix(1.3333333,0,0,-1.3333333,308.34533,28.077333)" />
      <path
         id="path51"
         d="m 0,0 c -1.018,-1.333 -2.262,-2.617 -3.563,-3.784 0.711,0.104 1.955,0.517 2.759,1.035 0.975,0.627 2.465,1.688 2.255,2.157 C 1.24,-0.122 0.07,-0.006 0,0 Z"
         style="fill:none;stroke:#ee2528;stroke-width:0.3;stroke-linecap:round;stroke-linejoin:round;stroke-miterlimit:4;stroke-dasharray:none;stroke-opacity:1"
         transform="matrix(1.3333333,0,0,-1.3333333,311.608,28.044)" />
      <path
         id="path52"
         d="M 0,0 C -0.804,-0.517 -2.048,-0.93 -2.759,-1.034 -1.458,0.133 -0.214,1.417 0.804,2.749 0.874,2.743 2.044,2.627 2.255,2.158 2.465,1.688 0.975,0.627 0,0 Z m -5.667,-0.662 c 0.115,0.962 0.611,1.806 1.533,2.559 0.484,0.396 1.322,0.674 2.491,0.827 0.042,0.006 0.088,0.004 0.132,0.009 C -2.8,1.522 -4.317,0.32 -5.667,-0.662 Z m -20.445,5.231 c 0.42,1.277 0.861,2.395 1.299,3.31 1.057,-2.6 1.658,-4.498 1.814,-5.569 0.308,-2.104 -0.257,-4.091 -1.76,-6.012 -0.43,0.504 -0.867,1.292 -1.268,2.327 -0.391,0.956 -0.511,1.804 -0.617,2.518 -0.093,0.634 -0.009,1.767 0.532,3.426 z M 5.076,3.791 C 4.883,4.505 3.89,5.534 2.528,5.531 c 0.29,0.628 0.511,1.257 0.642,1.878 0.351,1.667 0.482,3.366 -0.122,7.315 -0.573,4.184 -1.655,6.45 -2.291,7.064 -1.424,-1.81 -2.463,-4.249 -2.99,-7.07 -0.213,-1.136 -0.451,-2.419 -0.551,-4.736 -0.026,-0.609 0.545,0.163 0.905,0.91 0.255,0.529 0.275,0.756 0.486,1.758 0.374,1.776 0.939,3.125 1.162,3.415 0,0 0.853,-1.554 1.325,-3.58 0,0 0.772,-4.869 0.135,-6.373 C 1.134,5.891 1,5.655 0.847,5.413 0.313,5.347 -0.273,5.345 -0.867,5.139 -3.453,4.243 -5.203,2.895 -5.941,2.003 c -0.922,-1.11 -1.236,-2.017 -1.395,-3.828 -0.655,-0.433 -1.19,-0.756 -1.51,-0.914 -1.47,-0.718 -3.957,0.328 -4.617,1.723 -0.381,0.808 -0.705,1.206 -0.962,4.502 -0.661,8.459 -1.01,12.947 -1.1,13.579 l -0.199,-0.015 c -0.513,-1.119 -1.025,-2.238 -1.576,-3.36 -0.158,-0.532 -0.184,-1.732 -0.036,-3.638 0.026,-0.318 0.072,-0.913 0.177,-1.744 0.068,-0.874 0.124,-1.589 0.164,-2.106 0.268,-3.415 0.114,-6.063 -0.422,-7.904 -0.744,-2.735 -2.558,-3.016 -5.067,-3.071 -0.262,-0.005 -0.507,0.099 -0.749,0.238 1.281,3.764 1.837,7.105 1.267,11.007 -0.402,2.738 -1.246,5.087 -2.543,7.126 -1.426,-1.708 -2.386,-3.915 -2.847,-6.618 -0.439,-2.373 -0.456,-4.929 -0.067,-7.587 0.239,-1.634 0.506,-2.517 1.026,-4.194 -2.327,-1.814 -3.961,-2.087 -5.672,-2.601 1.094,2.251 1.647,4.924 1.647,8.007 0,1.474 -0.438,4.501 -1.274,9.042 -0.917,4.939 -1.674,7.688 -2.271,8.167 -0.677,-0.12 -1.315,-1.634 -1.913,-4.622 -0.517,-2.429 -0.795,-4.262 -0.795,-5.457 0,-1.678 1.373,0.825 1.373,2.066 0,0.52 0.139,1.28 0.499,2.316 0.637,-2.27 1.235,-4.501 1.872,-6.772 0.597,-2.589 0.916,-4.899 0.916,-6.931 0,-2.429 -0.717,-4.342 -2.191,-5.776 -1.434,-1.394 -3.426,-2.071 -5.896,-2.071 -1.872,0 -3.464,0.478 -4.78,1.393 -1.474,1.077 -2.191,2.471 -2.191,4.263 0,2.031 0.717,3.586 2.191,4.621 0.757,0.558 2.112,1.116 4.063,1.713 1.514,0.478 2.351,0.956 2.431,1.473 -0.558,-0.437 -1.912,-0.836 -3.944,-1.155 -1.953,-0.278 -3.346,-0.836 -4.143,-1.593 -1.315,-1.235 -1.991,-3.306 -1.991,-6.294 0,-2.469 0.716,-4.421 2.11,-5.855 1.394,-1.434 3.346,-2.112 5.855,-2.112 3.427,0 6.016,1.475 7.809,4.422 0.051,0.084 0.095,0.175 0.144,0.26 0.937,-0.198 1.858,-0.3 2.706,-0.3 2.031,0 3.626,0.518 4.739,1.594 0.838,-0.957 1.025,-1.434 2.339,-1.434 1.754,0 2.622,0.181 4.122,1.764 0.955,1.008 1.903,2.946 2.698,5.566 0.312,-1.917 0.876,-2.872 1.423,-3.748 0.962,-1.563 1.908,-1.728 4.121,-1.199 0.871,0.208 2.341,0.894 4.708,2.637 0.115,-0.059 0.218,-0.09 0.295,-0.07 1.399,-0.036 2.894,0.163 4.412,0.708 2.061,0.74 4.263,2.301 5.105,3.535 0.832,1.155 1.118,2.427 0.956,3.035"
         style="fill:#ee2528;fill-opacity:1;fill-rule:nonzero;stroke:none"
         transform="matrix(1.3333333,0,0,-1.3333333,310.536,31.708)" />
      <path
         id="path53"
         d="M 0,0 C -0.804,-0.517 -2.048,-0.93 -2.759,-1.034 -1.458,0.133 -0.214,1.417 0.804,2.749 0.874,2.743 2.044,2.627 2.255,2.158 2.465,1.688 0.975,0.627 0,0 Z"
         style="fill:none;stroke:#ee2528;stroke-width:0.3;stroke-linecap:round;stroke-linejoin:round;stroke-miterlimit:4;stroke-dasharray:none;stroke-opacity:1"
         transform="matrix(1.3333333,0,0,-1.3333333,310.536,31.708)" />
      <path
         id="path54"
         d="M 0,0 C 0.115,0.962 0.611,1.806 1.533,2.56 2.017,2.955 2.855,3.233 4.024,3.386 4.066,3.392 4.112,3.39 4.156,3.396 2.867,2.185 1.35,0.982 0,0 Z"
         style="fill:none;stroke:#ee2528;stroke-width:0.3;stroke-linecap:round;stroke-linejoin:round;stroke-miterlimit:4;stroke-dasharray:none;stroke-opacity:1"
         transform="matrix(1.3333333,0,0,-1.3333333,302.98,32.590667)" />
      <path
         id="path55"
         d="M 0,0 C 0.42,1.277 0.861,2.395 1.299,3.31 2.356,0.709 2.957,-1.188 3.113,-2.26 3.421,-4.363 2.856,-6.35 1.353,-8.271 0.923,-7.767 0.486,-6.98 0.085,-5.944 -0.306,-4.988 -0.426,-4.141 -0.532,-3.427 -0.625,-2.792 -0.541,-1.659 0,0 Z"
         style="fill:none;stroke:#ee2528;stroke-width:0.3;stroke-linecap:round;stroke-linejoin:round;stroke-miterlimit:4;stroke-dasharray:none;stroke-opacity:1"
         transform="matrix(1.3333333,0,0,-1.3333333,275.72,25.616)" />
      <path
         id="path56"
         d="m 0,0 c -0.193,0.714 -1.186,1.743 -2.548,1.74 0.29,0.628 0.511,1.257 0.642,1.878 0.351,1.667 0.482,3.366 -0.122,7.315 -0.573,4.184 -1.655,6.45 -2.291,7.064 -1.424,-1.81 -2.463,-4.249 -2.99,-7.07 C -7.522,9.791 -7.76,8.508 -7.86,6.191 c -0.026,-0.609 0.545,0.164 0.905,0.91 0.255,0.529 0.275,0.756 0.486,1.758 0.374,1.776 0.939,3.125 1.162,3.415 0,0 0.853,-1.554 1.325,-3.58 0,0 0.772,-4.869 0.135,-6.373 C -3.942,2.1 -4.076,1.864 -4.229,1.622 -4.763,1.556 -5.349,1.554 -5.943,1.348 c -2.586,-0.896 -4.336,-2.244 -5.074,-3.136 -0.922,-1.11 -1.236,-2.017 -1.395,-3.828 -0.655,-0.433 -1.19,-0.756 -1.51,-0.914 -1.47,-0.718 -3.957,0.328 -4.617,1.723 -0.381,0.808 -0.705,1.206 -0.962,4.502 -0.661,8.459 -1.01,12.947 -1.1,13.579 L -20.8,13.259 c -0.513,-1.119 -1.025,-2.238 -1.576,-3.36 -0.158,-0.532 -0.184,-1.732 -0.036,-3.638 0.026,-0.318 0.072,-0.913 0.177,-1.744 0.068,-0.874 0.124,-1.589 0.164,-2.106 0.268,-3.415 0.114,-6.063 -0.422,-7.904 -0.744,-2.734 -2.558,-3.016 -5.067,-3.071 -0.262,-0.005 -0.507,0.099 -0.749,0.238 1.281,3.764 1.837,7.105 1.267,11.007 -0.402,2.738 -1.246,5.087 -2.543,7.126 -1.426,-1.708 -2.386,-3.915 -2.847,-6.617 -0.439,-2.374 -0.456,-4.93 -0.067,-7.588 0.239,-1.634 0.506,-2.517 1.026,-4.194 -2.327,-1.814 -3.961,-2.087 -5.672,-2.601 1.094,2.251 1.647,4.925 1.647,8.007 0,1.474 -0.438,4.501 -1.274,9.042 -0.917,4.939 -1.674,7.688 -2.271,8.167 -0.677,-0.12 -1.315,-1.634 -1.913,-4.622 -0.517,-2.429 -0.795,-4.262 -0.795,-5.457 0,-1.678 1.373,0.825 1.373,2.066 0,0.52 0.139,1.28 0.499,2.316 0.637,-2.27 1.235,-4.501 1.872,-6.772 0.597,-2.589 0.916,-4.899 0.916,-6.931 0,-2.429 -0.717,-4.342 -2.191,-5.776 -1.434,-1.394 -3.426,-2.071 -5.896,-2.071 -1.872,0 -3.464,0.478 -4.78,1.394 -1.474,1.076 -2.191,2.47 -2.191,4.262 0,2.031 0.717,3.586 2.191,4.621 0.757,0.558 2.112,1.116 4.063,1.713 1.514,0.478 2.351,0.956 2.431,1.473 -0.558,-0.437 -1.912,-0.836 -3.944,-1.154 -1.953,-0.279 -3.346,-0.837 -4.143,-1.594 -1.315,-1.235 -1.991,-3.306 -1.991,-6.294 0,-2.469 0.716,-4.421 2.11,-5.855 1.394,-1.434 3.346,-2.112 5.855,-2.112 3.427,0 6.016,1.475 7.809,4.422 0.051,0.084 0.095,0.175 0.144,0.26 0.937,-0.198 1.858,-0.3 2.706,-0.3 2.031,0 3.626,0.518 4.739,1.594 0.838,-0.957 1.025,-1.434 2.339,-1.434 1.754,0 2.622,0.181 4.122,1.764 0.955,1.008 1.903,2.946 2.698,5.566 0.312,-1.917 0.876,-2.872 1.423,-3.747 0.962,-1.564 1.908,-1.729 4.121,-1.2 0.871,0.208 2.341,0.894 4.708,2.637 0.115,-0.059 0.218,-0.09 0.295,-0.07 1.399,-0.036 2.894,0.163 4.412,0.708 2.061,0.74 4.263,2.301 5.105,3.535 C -0.124,-1.88 0.162,-0.608 0,0 Z"
         style="fill:none;stroke:#ee2528;stroke-width:0.3;stroke-linecap:round;stroke-linejoin:round;stroke-miterlimit:4;stroke-dasharray:none;stroke-opacity:1"
         transform="matrix(1.3333333,0,0,-1.3333333,317.304,26.653333)" />
      <path
         id="path57"
         d="M 0,0 C 1.509,1.869 2.084,3.798 1.786,5.835 1.634,6.872 1.042,8.709 -0.002,11.225 -0.444,10.336 -0.89,9.25 -1.315,8.011 -1.864,6.4 -1.953,5.302 -1.862,4.688 -1.759,3.996 -1.643,3.175 -1.258,2.25 -0.862,1.249 -0.428,0.487 0,0 Z"
         style="fill:none;stroke:#ee2528;stroke-width:0.3;stroke-linecap:round;stroke-linejoin:round;stroke-miterlimit:4;stroke-dasharray:none;stroke-opacity:1"
         transform="matrix(1.3333333,0,0,-1.3333333,202.528,35.244)" />
      <path
         id="path58"
         d="M 0,0 C 0.425,1.239 0.871,2.325 1.313,3.214 2.357,0.698 2.949,-1.138 3.101,-2.176 3.399,-4.213 2.824,-6.142 1.315,-8.011 0.887,-7.523 0.453,-6.762 0.057,-5.76 -0.328,-4.836 -0.444,-4.015 -0.547,-3.323 -0.638,-2.709 -0.549,-1.61 0,0 Z m 12.246,8.073 c -0.399,2.271 -0.838,3.904 -1.235,4.9 C 8.939,10.782 7.904,7.117 7.904,2.019 c 0,-0.519 0,-1.315 0.039,-2.351 0,-1.036 0,-1.832 0,-2.31 0,-1.474 -0.039,-2.749 -0.158,-3.745 l 0.158,-0.039 c 0.44,0.797 0.836,3.186 1.157,7.09 0.277,3.625 0.596,5.497 0.915,5.657 0.24,-1.196 0.478,-2.351 0.717,-3.546 0.24,-1.354 0.398,-2.549 0.398,-3.545 0,-2.231 -0.558,-4.222 -1.634,-5.975 C 8.222,-8.777 6.51,-9.773 4.358,-9.773 3.721,-9.773 3.236,-9.579 2.846,-9.215 2.82,-9.191 2.787,-9.172 2.761,-9.15 4.103,-5.424 4.713,-1.977 4.15,1.863 3.763,4.515 2.93,6.787 1.642,8.757 0.209,7.095 -0.761,4.952 -1.233,2.331 -1.682,0.029 -1.71,-2.449 -1.334,-5.023 c 0.233,-1.596 0.528,-2.535 1.05,-4.188 -0.06,-0.043 -0.119,-0.075 -0.178,-0.123 -0.959,-0.793 -2.229,-1.515 -3.824,-2.152 -1.354,-0.477 -2.708,-0.994 -4.104,-1.473 v -0.159 c 1.396,-0.439 2.75,-0.678 4.025,-0.678 1.393,0 2.589,0.359 3.665,1.035 1.036,0.678 1.634,1.037 1.753,1.037 0.119,0 0.436,-0.279 0.995,-0.837 0.558,-0.517 1.313,-0.797 2.231,-0.797 3.186,0 5.497,2.072 7.01,6.174 1.076,2.909 1.594,6.294 1.594,10.119 0,1.155 -0.2,2.868 -0.637,5.138"
         style="fill:#ee2528;fill-opacity:1;fill-rule:nonzero;stroke:none"
         transform="matrix(1.3333333,0,0,-1.3333333,200.77467,24.564)" />
      <path
         id="path59"
         d="M 0,0 C 0.425,1.239 0.871,2.325 1.313,3.214 2.357,0.698 2.949,-1.138 3.101,-2.176 3.399,-4.213 2.824,-6.142 1.315,-8.011 0.887,-7.523 0.453,-6.762 0.057,-5.76 -0.328,-4.836 -0.444,-4.015 -0.547,-3.323 -0.638,-2.709 -0.549,-1.61 0,0 Z"
         style="fill:none;stroke:#ee2528;stroke-width:0.3;stroke-linecap:round;stroke-linejoin:round;stroke-miterlimit:4;stroke-dasharray:none;stroke-opacity:1"
         transform="matrix(1.3333333,0,0,-1.3333333,200.77467,24.564)" />
      <path
         id="path60"
         d="m 0,0 c -0.399,2.271 -0.838,3.904 -1.235,4.899 -2.072,-2.19 -3.107,-5.855 -3.107,-10.954 0,-0.518 0,-1.314 0.039,-2.35 0,-1.036 0,-1.832 0,-2.31 0,-1.474 -0.039,-2.749 -0.158,-3.745 l 0.158,-0.039 c 0.44,0.796 0.836,3.186 1.157,7.09 0.277,3.624 0.596,5.497 0.915,5.657 0.24,-1.196 0.478,-2.351 0.717,-3.546 0.24,-1.354 0.398,-2.55 0.398,-3.545 0,-2.231 -0.558,-4.222 -1.634,-5.975 -1.274,-2.032 -2.986,-3.028 -5.138,-3.028 -0.637,0 -1.122,0.194 -1.512,0.558 -0.026,0.023 -0.059,0.042 -0.085,0.064 1.342,3.726 1.952,7.174 1.389,11.014 -0.387,2.651 -1.22,4.924 -2.508,6.894 -1.433,-1.662 -2.403,-3.805 -2.875,-6.426 -0.449,-2.302 -0.477,-4.78 -0.101,-7.354 0.233,-1.596 0.528,-2.535 1.05,-4.188 -0.06,-0.043 -0.119,-0.075 -0.178,-0.123 -0.959,-0.793 -2.229,-1.515 -3.824,-2.152 -1.354,-0.478 -2.708,-0.995 -4.104,-1.473 v -0.159 c 1.396,-0.439 2.75,-0.678 4.025,-0.678 1.393,0 2.589,0.358 3.665,1.035 1.036,0.677 1.634,1.037 1.753,1.037 0.119,0 0.436,-0.279 0.995,-0.837 0.558,-0.517 1.313,-0.797 2.231,-0.797 3.186,0 5.497,2.072 7.01,6.174 1.076,2.908 1.594,6.294 1.594,10.118 C 0.637,-3.983 0.437,-2.27 0,0 Z"
         style="fill:none;stroke:#ee2528;stroke-width:0.3;stroke-linecap:round;stroke-linejoin:round;stroke-miterlimit:4;stroke-dasharray:none;stroke-opacity:1"
         transform="matrix(1.3333333,0,0,-1.3333333,217.10267,13.8)" />
      <path
         id="path61"
         d="M 0,0 C 0.986,0.788 1.511,1.774 1.511,2.858 1.511,3.22 1.216,3.384 0.658,3.384 0.493,3.384 0.263,3.351 0,3.318 -0.295,3.285 -0.526,3.253 -0.658,3.253 c -0.295,0 -0.525,0.065 -0.689,0.197 0.065,0.296 0.328,0.525 0.755,0.657 C 0,4.304 0.362,4.468 0.525,4.6 0.953,4.896 1.249,5.421 1.446,6.144 L 1.314,6.308 C -0.034,5.816 -0.756,5.52 -0.854,5.421 -2.136,4.37 -2.792,3.285 -2.792,2.135 c 0,-0.591 0.329,-0.92 0.952,-0.92 0.164,0 0.394,0.066 0.722,0.131 0.33,0.067 0.592,0.099 0.757,0.099 0.262,0 0.46,-0.066 0.658,-0.23 -0.265,-0.23 -1.02,-0.657 -2.203,-1.182 -1.017,-0.493 -1.51,-0.822 -1.51,-0.987 v -0.131 h 0.327 C -1.972,-1.118 -0.953,-0.756 0,0"
         style="fill:#ee2528;fill-opacity:1;fill-rule:nonzero;stroke:#ee2528;stroke-width:0.3;stroke-linecap:round;stroke-linejoin:round;stroke-miterlimit:4;stroke-dasharray:none;stroke-opacity:1"
         transform="matrix(1.3333333,0,0,-1.3333333,197.62933,14.877333)" />
    </g>
  </g>
</svg>
