<?xml version="1.0" encoding="UTF-8" standalone="no"?>
<svg
   xmlns:dc="http://purl.org/dc/elements/1.1/"
   xmlns:cc="http://creativecommons.org/ns#"
   xmlns:rdf="http://www.w3.org/1999/02/22-rdf-syntax-ns#"
   xmlns:svg="http://www.w3.org/2000/svg"
   xmlns="http://www.w3.org/2000/svg"
   viewBox="0 0 431.54666 466.33334"
   height="466.33334"
   width="431.54666"
   xml:space="preserve"
   id="svg2"
   version="1.1"><metadata
     id="metadata8"><rdf:RDF><cc:Work
         rdf:about=""><dc:format>image/svg+xml</dc:format><dc:type
           rdf:resource="http://purl.org/dc/dcmitype/StillImage" /><dc:title></dc:title></cc:Work></rdf:RDF></metadata><defs
     id="defs6" /><g
     transform="matrix(1.3333333,0,0,-1.3333333,0,466.33333)"
     id="g10"><g
       transform="scale(0.1)"
       id="g12"><path
         id="path14"
         style="fill:#ed192d;fill-opacity:1;fill-rule:nonzero;stroke:none"
         d="M 1314.03,1479.71 H 649.652 v 569.39 h 664.378 l -0.06,0.39 v 664.35 h 569.46 v -664.35 l -0.06,-0.26 h 664.41 v -569.45 h -664.41 l 0.06,0.1 V 815.512 h -569.46 v 664.368 l 0.06,-0.17" /><path
         id="path16"
         style="fill:#100f0d;fill-opacity:1;fill-rule:nonzero;stroke:none"
         d="m 161.391,2483.97 c -33.555,9.56 -61.094,-7.66 -76.1996,-41.91 -23.2617,-52.7 14.375,-93.44 60.9256,-113.97 46.543,-20.54 102,-20.88 125.254,31.81 16.867,38.2 4.59,69.85 -30.058,88.81 l 36.046,81.68 c 78.856,-40.05 100.125,-120.25 65.059,-199.74 -41.855,-94.85 -141.445,-124.36 -232.344,-84.23 -90.8982,40.09 -136.2303,133.55 -94.367,228.4 29.836,67.63 105.227,121.97 181.731,90.83 l -36.047,-81.68" /><path
         id="path18"
         style="fill:#100f0d;fill-opacity:1;fill-rule:nonzero;stroke:none"
         d="m 331.195,2708.03 46.719,58.51 c 16.777,21 14.504,41.24 -5.742,57.41 -19.871,15.87 -41.453,7.3 -57.031,-12.19 l -44.325,-55.51 z m -171.961,23.09 109.012,136.51 c 37.734,47.25 96.25,76.69 150.242,33.56 28.891,-23.06 45.18,-58.8 33.598,-95.6 l 0.738,-0.61 c 29.516,23.11 67.981,5.9 95.285,-12.21 11.844,-8.24 52.121,-38.55 69.368,-36.96 l -55.11,-69.01 c -13.797,1.19 -40.937,21.03 -49.043,26.27 -28.496,19.69 -59.836,37.34 -85.886,4.72 l -42.239,-52.88 97.512,-77.86 -55.703,-69.76 -267.774,213.83" /><path
         id="path20"
         style="fill:#100f0d;fill-opacity:1;fill-rule:nonzero;stroke:none"
         d="m 733.129,2933.63 c 46.309,34.25 33.809,88.28 3.555,129.19 -30.254,40.91 -78.25,68.69 -124.563,34.43 -46.316,-34.24 -33.816,-88.28 -3.562,-129.18 30.254,-40.91 78.254,-68.69 124.57,-34.44 z m -166.68,225.38 c 86.836,64.21 182.942,36.78 242.012,-43.1 59.082,-79.89 57.156,-179.82 -29.668,-244.03 -86.836,-64.21 -182.938,-36.79 -242.02,43.1 -59.074,79.88 -57.152,179.81 29.676,244.03" /><path
         id="path22"
         style="fill:#100f0d;fill-opacity:1;fill-rule:nonzero;stroke:none"
         d="m 809.848,3302.27 80.461,38.7 148.581,-308.85 -80.456,-38.7 -148.586,308.85" /><path
         id="path24"
         style="fill:#100f0d;fill-opacity:1;fill-rule:nonzero;stroke:none"
         d="m 1130.02,3258.68 -151.481,126.65 101.261,28.27 84.13,-87.15 30.06,119.03 98.01,27.37 -63.04,-186.55 164.9,-140.85 -104.47,-29.16 -92.68,92.73 -36.77,-128.88 -98.95,-27.62 69.03,206.16" /><path
         id="path26"
         style="fill:#100f0d;fill-opacity:1;fill-rule:nonzero;stroke:none"
         d="m 1407.53,3235.38 -5.47,68.91 148.82,11.8 5.47,-68.9 -148.82,-11.81" /><path
         id="path28"
         style="fill:#100f0d;fill-opacity:1;fill-rule:nonzero;stroke:none"
         d="m 1729.83,3339.2 74.36,-8.81 c 26.7,-3.16 42.7,9.45 45.76,35.19 2.98,25.27 -15.69,39.08 -40.47,42.02 l -70.56,8.35 z m -71.17,158.28 173.52,-20.55 c 60.07,-7.12 115.98,-41.28 107.84,-109.93 -4.34,-36.71 -26.1,-69.42 -63.49,-79.01 l -0.11,-0.95 c 35.21,-12.87 40.9,-54.64 39.92,-87.39 -0.74,-14.42 -5.23,-64.65 5.22,-78.46 l -87.72,10.39 c -6.28,12.35 -3.75,45.88 -3.58,55.53 1.69,34.61 0.13,70.57 -41.34,75.47 l -67.21,7.97 -14.68,-123.95 -88.68,10.49 40.31,340.39" /><path
         id="path30"
         style="fill:#100f0d;fill-opacity:1;fill-rule:nonzero;stroke:none"
         d="m 2133.75,3117.25 c 53.59,-21.12 92.79,18.11 111.46,65.45 18.67,47.33 16.8,102.77 -36.8,123.89 -53.58,21.13 -92.79,-18.11 -111.45,-65.44 -18.66,-47.33 -16.79,-102.76 36.79,-123.9 z m 102.84,260.8 c 100.46,-39.62 128.13,-135.67 91.68,-228.1 -36.45,-92.44 -122.21,-143.75 -222.69,-104.14 -100.47,39.62 -128.12,135.65 -91.68,228.1 36.45,92.43 122.22,143.75 222.69,104.14" /><path
         id="path32"
         style="fill:#100f0d;fill-opacity:1;fill-rule:nonzero;stroke:none"
         d="m 2629.84,2900.64 c -59.31,-79.7 -125.4,-92.14 -208.57,-30.25 -83.16,61.88 -90.22,128.76 -30.92,208.47 l 120.04,161.32 71.62,-53.29 -123.21,-165.56 c -26.34,-35.42 -26.72,-63.26 8.31,-89.34 35.04,-26.07 61.6,-17.7 87.96,17.71 l 123.21,165.56 71.6,-53.29 -120.04,-161.33" /><path
         id="path34"
         style="fill:#100f0d;fill-opacity:1;fill-rule:nonzero;stroke:none"
         d="m 2785.5,2496.49 -35.64,45.25 26.14,27.32 c -40.58,-2.01 -74.58,22.53 -94.19,47.42 -64.16,81.45 -43.53,183.25 34.53,244.75 78.07,61.48 181.87,57.71 246.04,-23.75 43.96,-55.8 61.11,-138.85 -1.35,-198.43 l -55.25,70.14 c 21.22,20.37 17.36,53.99 -4.93,82.27 -35.65,45.25 -89.28,31.12 -129.25,-0.37 -39.97,-31.49 -66.28,-80.32 -30.63,-125.57 27.33,-34.7 61.95,-45.31 89.43,-29.77 l -38.61,49.02 52.04,41 89.11,-113.13 -147.44,-116.15" /><path
         id="path36"
         style="fill:#100f0d;fill-opacity:1;fill-rule:nonzero;stroke:none"
         d="m 3126.42,2582.71 110.14,-249.95 -65.45,-28.84 -74.13,168.24 -54.92,-24.2 67.75,-153.74 -63.25,-27.87 -67.76,153.74 -59.74,-26.33 76.08,-172.64 -70.29,-30.96 -112.07,254.34 313.64,138.21" /><path
         id="path38"
         style="fill:#100f0d;fill-opacity:1;fill-rule:nonzero;stroke:none"
         d="m 325.063,1075.34 53.457,-74.49 -102.192,-219.858 0.563,-0.793 171.597,123.153 48.977,-68.25 L 219.004,635.27 165.547,709.762 269.688,931.02 269.129,931.809 95.5742,807.27 46.6016,875.512 325.063,1075.34" /><path
         id="path40"
         style="fill:#100f0d;fill-opacity:1;fill-rule:nonzero;stroke:none"
         d="M 550.977,787.488 615.293,725.59 377.621,478.691 313.305,540.602 550.977,787.488" /><path
         id="path42"
         style="fill:#100f0d;fill-opacity:1;fill-rule:nonzero;stroke:none"
         d="m 740.594,213.219 -48.153,31.609 16.137,34.203 c -37.84,-14.781 -77.875,-2.281 -104.355,15.11 -86.676,56.89 -99.399,159.988 -44.86,243.058 54.532,83.063 154.18,112.403 240.856,55.492 59.39,-38.98 101.988,-112.312 61.644,-188.621 l -74.636,49.012 c 13.668,26.047 -0.664,56.688 -30.762,76.457 -48.156,31.609 -94.543,1.191 -122.461,-41.34 -27.93,-42.539 -37.395,-97.187 10.766,-128.808 36.918,-24.219 73.121,-23.313 94.257,0.14 l -52.168,34.239 36.352,55.39 120.391,-79.039 -103.008,-156.902" /><path
         id="path44"
         style="fill:#100f0d;fill-opacity:1;fill-rule:nonzero;stroke:none"
         d="m 1210.43,493.77 -95.13,-41.739 -54.2,19.52 68.05,51.5 z m -235.957,-13.469 256.947,-92.563 -24.24,-67.269 -172.95,62.293 -20.33,-56.43 158.04,-56.941 -23.42,-65.032 -158.047,56.942 -22.125,-61.422 177.472,-63.918 -26.03,-72.2618 -261.462,94.1798 116.145,322.422" /><path
         id="path46"
         style="fill:#100f0d;fill-opacity:1;fill-rule:nonzero;stroke:none"
         d="M 1351.83,217.691 1426.21,209 c 26.71,-3.121 42.68,9.52 45.68,35.27 2.95,25.269 -15.74,39.039 -40.53,41.941 l -70.58,8.238 z m -71.45,158.161 173.57,-20.262 c 60.08,-7.012 116.04,-41.09 108.02,-109.75 -4.28,-36.719 -25.98,-69.461 -63.36,-79.129 l -0.11,-0.949 c 35.24,-12.813 41,-54.571 40.07,-87.3206 -0.71,-14.4219 -5.12,-64.6523 5.36,-78.4414 l -87.74,10.2305 c -6.3,12.3398 -3.84,45.8906 -3.68,55.5312 1.63,34.6173 0.03,70.5703 -41.46,75.4103 l -67.23,7.84 -14.47,-123.9729 -88.69,10.3515 39.72,340.4614" /><path
         id="path48"
         style="fill:#100f0d;fill-opacity:1;fill-rule:nonzero;stroke:none"
         d="m 1635.79,349.719 89.09,5.691 21.85,-342.0311 -89.1,-5.68749 -21.84,342.02759" /><path
         id="path50"
         style="fill:#100f0d;fill-opacity:1;fill-rule:nonzero;stroke:none"
         d="m 1800.25,359.211 265.49,63.918 16.73,-69.539 -178.71,-43.031 14.06,-58.34 163.3,39.32 L 2097.3,224.34 1934,185 l 15.29,-63.469 183.36,44.149 17.99,-74.6683 -270.16,-65.0508 -80.23,333.2501" /><path
         id="path52"
         style="fill:#100f0d;fill-opacity:1;fill-rule:nonzero;stroke:none"
         d="m 2111.95,438.75 81.87,41.281 201.39,-134.961 0.86,0.418 -95.11,188.582 75.01,37.821 154.32,-306 -81.86,-41.282 -202.48,137.11 -0.86,-0.43 96.19,-190.719 -75,-37.82 -154.33,306" /><path
         id="path54"
         style="fill:#100f0d;fill-opacity:1;fill-rule:nonzero;stroke:none"
         d="m 2418.47,600.191 69.69,59.571 227.69,-83.211 0.73,0.629 -137.21,160.519 63.85,54.582 222.65,-260.492 -69.68,-59.57 -229.24,85.031 -0.74,-0.629 138.76,-162.359 -63.84,-54.571 -222.66,260.5" /><path
         id="path56"
         style="fill:#100f0d;fill-opacity:1;fill-rule:nonzero;stroke:none"
         d="m 2679.41,833.801 161.54,220.239 57.67,-42.3 -108.74,-148.248 48.38,-35.492 99.37,135.48 55.74,-40.878 -99.37,-135.473 52.64,-38.617 111.58,152.109 61.93,-45.43 -164.39,-224.101 -276.35,202.711" /></g></g></svg>