<?xml version="1.0" encoding="UTF-8" standalone="no"?>
<svg
   xmlns:dc="http://purl.org/dc/elements/1.1/"
   xmlns:cc="http://creativecommons.org/ns#"
   xmlns:rdf="http://www.w3.org/1999/02/22-rdf-syntax-ns#"
   xmlns:svg="http://www.w3.org/2000/svg"
   xmlns="http://www.w3.org/2000/svg"
   viewBox="0 0 169.93333 169.81332"
   height="169.81332"
   width="169.93333"
   xml:space="preserve"
   id="svg2"
   version="1.1"><metadata
     id="metadata8"><rdf:RDF><cc:Work
         rdf:about=""><dc:format>image/svg+xml</dc:format><dc:type
           rdf:resource="http://purl.org/dc/dcmitype/StillImage" /><dc:title></dc:title></cc:Work></rdf:RDF></metadata><defs
     id="defs6" /><g
     transform="matrix(1.3333333,0,0,-1.3333333,0,169.81333)"
     id="g10"><g
       transform="scale(0.1)"
       id="g12"><path
         id="path14"
         style="fill:#ec1d27;fill-opacity:1;fill-rule:nonzero;stroke:none"
         d="M 637.258,1243.58 C 302.41,1243.58 30,971.375 30,636.789 30,302.207 302.41,30 637.258,30 c 334.84,0 607.252,272.207 607.252,606.789 0,334.586 -272.412,606.791 -607.252,606.791 z M 637.258,0 C 285.875,0 0,285.664 0,636.789 0,987.918 285.875,1273.58 637.258,1273.58 988.637,1273.58 1274.51,987.918 1274.51,636.789 1274.51,285.664 988.637,0 637.258,0" /><path
         id="path16"
         style="fill:#ec1d27;fill-opacity:1;fill-rule:nonzero;stroke:none"
         d="m 637.258,991.5 c -195.746,0 -354.992,-159.121 -354.992,-354.711 0,-195.598 159.246,-354.719 354.992,-354.719 195.738,0 354.988,159.121 354.988,354.719 0,195.59 -159.25,354.711 -354.988,354.711 z m 0,-739.43 c -212.289,0 -384.992,172.59 -384.992,384.719 0,212.129 172.703,384.711 384.992,384.711 212.285,0 384.992,-172.582 384.992,-384.711 0,-212.129 -172.707,-384.719 -384.992,-384.719" /><path
         id="path18"
         style="fill:#ec1d27;fill-opacity:1;fill-rule:evenodd;stroke:none"
         d="m 974.188,896.52 121.892,67.988 13.29,-24.11 -53.74,-95.585 81.39,45.398 12.69,-23.016 -121.91,-67.988 -13.7,24.871 52.27,93.762 -79.495,-44.336 -12.687,23.016 z m -24.137,99.55 14.859,53.47 -45.625,-30.98 30.766,-22.49 z m 9.519,-75.527 -24.773,18.117 8.766,32.977 -45.067,32.953 -27.922,-18.996 -24.148,17.666 125.84,81.34 24.074,-17.6 -36.77,-146.457 z m -158.613,104.697 56.688,128.11 25.703,-11.53 -56.688,-128.09 -25.703,11.51 z m -102.488,109.07 20.484,-3.62 c 13.293,-2.36 21.699,-3.29 25.219,-2.75 3.496,0.54 6.422,2.04 8.789,4.47 2.34,2.44 3.902,5.71 4.637,9.85 0.808,4.67 0.215,8.62 -1.739,11.92 -1.964,3.3 -5.129,5.71 -9.504,7.28 -2.183,0.7 -8.894,2.05 -20.144,4.04 l -21.613,3.83 -6.129,-35.02 z m -41.703,-74.77 24.203,138.09 58.347,-10.35 c 14.668,-2.6 25.086,-5.75 31.297,-9.4 6.211,-3.65 10.782,-9 13.664,-16.05 2.879,-7.08 3.594,-14.67 2.157,-22.83 -1.805,-10.35 -6.344,-18.4 -13.563,-24.08 -7.219,-5.65 -17.043,-8.32 -29.402,-7.91 5.386,-4.6 9.664,-9.34 12.832,-14.24 3.152,-4.91 7.086,-13.3 11.824,-25.22 l 12.051,-29.92 -33.133,5.88 -14.77,33.63 c -5.242,12 -8.914,19.61 -11.054,22.88 -2.125,3.26 -4.571,5.65 -7.324,7.23 -2.762,1.55 -7.301,2.88 -13.7,4.02 l -5.597,0.99 -10.094,-57.64 -27.738,4.92 z m -139.215,-15.12 -19.399,138.87 102.317,14.45 3.281,-23.49 -74.453,-10.54 4.297,-30.77 69.277,9.79 3.27,-23.38 -69.286,-9.79 5.282,-37.79 77.09,10.89 3.273,-23.41 -104.949,-14.83 z m -111.613,4.46 -11.028,20.86 53.535,28.65 26.075,-49.32 c -2.528,-7.86 -7.715,-16.36 -15.547,-25.51 -7.86,-9.12 -16.844,-16.4 -26.961,-21.81 -12.864,-6.891 -25.52,-10.191 -37.961,-9.879 -12.442,0.324 -23.731,4.231 -33.895,11.779 -10.156,7.54 -18.371,17.24 -24.648,29.11 -6.809,12.89 -10.176,25.8 -10.117,38.7 0.097,12.88 3.875,24.78 11.433,35.67 5.703,8.33 14.446,15.63 26.192,21.91 15.277,8.17 28.925,11.34 40.89,9.49 12.012,-1.85 22.246,-7.81 30.723,-17.87 l -22.219,-17.85 c -4.949,5.15 -10.769,8.22 -17.41,9.18 -6.641,0.96 -13.535,-0.47 -20.695,-4.31 -10.86,-5.8 -17.657,-13.88 -20.418,-24.23 -2.746,-10.38 -0.5,-22.34 6.707,-35.98 7.754,-14.67 16.816,-23.98 27.207,-27.85 10.363,-3.89 20.812,-3 31.332,2.63 5.203,2.79 9.871,6.61 14.031,11.47 4.141,4.83 7.305,9.74 9.52,14.67 l -8.301,15.71 -28.445,-15.22 z m -76.563,-126.099 -100.254,97.399 19.531,20.36 100.254,-97.407 -19.531,-20.352 z m -83.859,-122.422 -120.692,70.118 13.692,23.855 109.121,2.891 -80.598,46.816 13.078,22.793 120.692,-70.105 -14.121,-24.629 -106.805,-3.223 78.719,-45.723 -13.086,-22.793 v 0" /><path
         id="path20"
         style="fill:#ec1d27;fill-opacity:1;fill-rule:evenodd;stroke:none"
         d="m 1102.13,384.895 7.3,26.691 c 9.18,-1.801 16.69,-1.098 22.53,2.098 5.8,3.195 10.26,8.769 13.33,16.816 3.25,8.516 3.91,15.637 1.95,21.316 -1.93,5.715 -5.29,9.493 -10.07,11.34 -3.09,1.192 -6.05,1.289 -8.89,0.282 -2.87,-0.958 -5.96,-3.395 -9.27,-7.325 -2.26,-2.652 -6.83,-9.011 -13.77,-18.953 -8.88,-12.832 -16.97,-21.113 -24.24,-24.844 -10.22,-5.285 -20.47,-5.937 -30.78,-1.964 -6.64,2.558 -12.09,6.847 -16.43,12.863 -4.32,5.996 -6.63,13.144 -6.95,21.426 -0.28,8.293 1.48,17.441 5.32,27.5 6.28,16.457 14.56,27.422 24.88,32.968 10.34,5.528 21.54,6.192 33.68,1.993 l -8.93,-26.856 c -7.13,1.453 -12.87,0.879 -17.2,-1.711 -4.36,-2.597 -7.94,-7.605 -10.78,-15.047 -2.93,-7.675 -3.68,-14.304 -2.19,-19.851 0.94,-3.578 3.1,-6.02 6.46,-7.317 3.09,-1.191 6.23,-0.898 9.41,0.868 4.05,2.257 10.05,9.242 17.96,20.941 7.93,11.695 14.68,20 20.23,24.91 5.6,4.91 11.83,8.027 18.77,9.356 6.93,1.308 14.51,0.39 22.71,-2.774 7.46,-2.883 13.66,-7.656 18.55,-14.336 4.92,-6.687 7.52,-14.441 7.77,-23.281 0.27,-8.848 -1.78,-18.965 -6.12,-30.344 -6.32,-16.543 -14.95,-27.801 -25.93,-33.726 -10.99,-5.93 -24.11,-6.957 -39.3,-3.039 z m -98.95,-124.813 15.94,22.566 c 8.02,-4.843 15.3,-6.765 21.89,-5.769 6.53,0.996 12.61,4.707 18.24,11.211 5.93,6.875 8.98,13.34 9.07,19.363 0.14,6.024 -1.74,10.723 -5.61,14.11 -2.5,2.191 -5.24,3.292 -8.25,3.332 -3.01,0.085 -6.75,-1.141 -11.2,-3.692 -3.03,-1.726 -9.48,-6.121 -19.37,-13.086 -12.72,-8.992 -23.14,-13.984 -31.234,-14.988 -11.406,-1.445 -21.261,1.465 -29.59,8.738 -5.363,4.696 -9.043,10.598 -11.074,17.742 -2.012,7.121 -1.758,14.641 0.75,22.524 2.559,7.887 7.317,15.879 14.348,24.012 11.496,13.3 23.008,20.75 34.59,22.429 11.6,1.621 22.35,-1.597 32.33,-9.715 l -17.53,-22.175 c -6.2,3.828 -11.79,5.25 -16.746,4.304 -4.968,-0.929 -10.039,-4.402 -15.23,-10.422 -5.371,-6.211 -8.332,-12.175 -8.813,-17.91 -0.339,-3.672 0.86,-6.718 3.575,-9.09 2.5,-2.187 5.547,-3 9.14,-2.414 4.571,0.715 12.594,5.207 23.994,13.489 11.44,8.261 20.6,13.742 27.49,16.445 6.93,2.684 13.84,3.469 20.82,2.344 6.96,-1.153 13.75,-4.637 20.39,-10.442 6.03,-5.261 10.24,-11.89 12.56,-19.851 2.35,-7.981 2.16,-16.16 -0.62,-24.551 -2.75,-8.406 -8.12,-17.207 -16.06,-26.395 -11.56,-13.382 -23.49,-20.98 -35.84,-22.769 -12.34,-1.793 -25.01,1.75 -37.96,10.66 z M 866.25,192.531 c 8.586,-13.301 18.184,-21.39 28.719,-24.293 10.558,-2.859 20.519,-1.218 29.933,4.942 9.383,6.129 14.934,14.582 16.551,25.371 1.613,10.738 -1.961,22.937 -10.762,36.558 -8.687,13.481 -18.113,21.61 -28.261,24.442 -10.157,2.789 -20.106,0.988 -29.813,-5.36 -9.746,-6.371 -15.41,-14.851 -17.043,-25.453 -1.601,-10.578 1.926,-22.636 10.676,-36.207 z m -23.789,-16.66 c -7.742,11.988 -12.461,23.188 -14.141,33.649 -1.191,7.718 -1.054,15.468 0.481,23.25 1.531,7.73 4.293,14.562 8.277,20.441 5.274,7.879 12.668,14.891 22.188,21.117 17.226,11.25 34.464,14.883 51.757,10.879 17.27,-3.977 32.082,-15.547 44.438,-34.687 12.262,-19 16.707,-37.211 13.367,-54.641 -3.351,-17.41 -13.594,-31.738 -30.742,-42.949 -17.395,-11.36 -34.66,-15.059 -51.797,-11.098 -17.148,3.969 -31.758,15.328 -43.828,34.039 z m -126.641,-19.312 20.274,4.703 c 13.152,3.047 21.25,5.5 24.277,7.379 3.008,1.879 5.117,4.41 6.356,7.578 1.211,3.172 1.367,6.793 0.429,10.89 -1.054,4.61 -3.133,8.02 -6.218,10.282 -3.086,2.269 -6.934,3.25 -11.575,2.968 -2.285,-0.218 -8.98,-1.621 -20.117,-4.199 l -21.375,-4.969 7.949,-34.632 z m -9.347,-85.2387 -31.344,136.6287 57.73,13.41 c 14.512,3.379 25.325,4.582 32.461,3.653 7.141,-0.922 13.418,-4.051 18.813,-9.403 5.398,-5.379 9,-12.078 10.855,-20.16 2.348,-10.238 1.289,-19.429 -3.152,-27.5 -4.445,-8.039 -12.461,-14.359 -23.984,-18.847 6.746,-2.122 12.519,-4.793 17.343,-8.063 4.805,-3.269 11.688,-9.457 20.672,-18.559 l 22.719,-22.8003 -32.793,-7.6211 -26.652,25.1524 c -9.485,8.98 -15.821,14.551 -19.051,16.711 -3.227,2.168 -6.41,3.41 -9.555,3.789 -3.144,0.34 -7.851,-0.223 -14.168,-1.691 l -5.539,-1.29 13.09,-57.0308 -27.445,-6.3789 z m -88.543,50.9807 25.789,-12.41 C 637.461,95.3086 629.004,85.0313 618.34,79.0313 607.715,73.0391 594.949,71.0898 580.137,73.1914 561.816,75.7695 547.629,84.1992 537.59,98.4492 527.559,112.73 524.051,130.801 527.109,152.621 c 3.223,23.109 11.68,40.211 25.321,51.34 13.644,11.09 30.121,15.301 49.465,12.559 16.863,-2.391 29.89,-9.34 39.023,-20.872 5.469,-6.808 8.973,-16.019 10.566,-27.578 l -28.523,-2.73 c -0.609,7.441 -3.215,13.609 -7.832,18.519 -4.594,4.903 -10.598,7.86 -17.992,8.911 -10.223,1.441 -19.063,-1.071 -26.453,-7.571 -7.391,-6.48 -12.246,-17.988 -14.563,-34.539 -2.449,-17.558 -1.082,-30.512 4.18,-38.84 5.226,-8.351 12.863,-13.2184 22.89,-14.6403 7.422,-1.0508 14.114,0.4101 20.11,4.4103 5.996,3.961 10.871,10.89 14.629,20.711 z m -229.895,144.937 -46.14,-80.418 18.171,-10.558 c 6.809,-3.953 11.938,-6.442 15.422,-7.41 4.5,-1.301 8.75,-1.543 12.727,-0.68 3.973,0.859 8.336,3.558 13.101,8.019 4.758,4.5 9.864,11.43 15.247,20.809 5.39,9.398 8.671,17.059 9.921,23.051 1.231,6 1.192,11.269 -0.156,15.769 -1.359,4.559 -4.031,8.649 -8.027,12.289 -2.942,2.75 -9.395,7 -19.336,12.77 l -10.93,6.359 z M 375.461,301.945 420,276.066 c 10.039,-5.828 17.234,-11.027 21.633,-15.656 5.887,-6.199 9.812,-13.461 11.754,-21.762 1.996,-8.277 2.082,-17.078 0.273,-26.347 -1.844,-9.301 -6.004,-19.621 -12.547,-31.02 -5.73,-9.972 -11.914,-17.883 -18.535,-23.691 -8.074,-7.07 -16.476,-11.731 -25.226,-13.918 -6.61,-1.703 -14.161,-1.621 -22.684,0.25 -6.359,1.387 -14.035,4.719 -23.059,9.957 l -45.828,26.633 69.68,121.433 z m -191.652,3.993 106.765,90.148 66.406,-79.641 -18.062,-15.254 -48.332,57.954 -23.66,-19.985 44.969,-53.914 -17.981,-15.176 -44.969,53.914 -29.054,-24.527 50.039,-59.996 -17.996,-15.199 -68.125,81.676 z m 2.351,168.207 7.785,-19.407 c 5.067,-12.597 8.739,-20.261 11.055,-22.976 2.305,-2.699 5.117,-4.399 8.426,-5.129 3.293,-0.711 6.875,-0.313 10.754,1.262 4.367,1.777 7.383,4.382 9.121,7.8 1.75,3.418 2.109,7.403 1.113,11.961 -0.574,2.239 -2.988,8.684 -7.277,19.336 l -8.211,20.473 -32.766,-13.32 z m -85.137,-4.055 129.219,52.519 22.199,-55.261 c 5.575,-13.887 8.457,-24.453 8.672,-31.692 0.203,-7.234 -1.886,-13.965 -6.3,-20.156 -4.43,-6.211 -10.45,-10.84 -18.086,-13.945 -9.688,-3.938 -18.875,-4.328 -27.5,-1.172 -8.582,3.164 -16.036,10.129 -22.247,20.887 -1.023,-7.04 -2.742,-13.192 -5.203,-18.497 -2.453,-5.293 -7.441,-13.093 -14.98,-23.445 l -18.828,-26.144 -12.61,31.386 20.52,30.422 c 7.336,10.84 11.805,18.008 13.426,21.555 1.621,3.543 2.336,6.902 2.218,10.086 -0.156,3.176 -1.445,7.762 -3.878,13.816 l -2.129,5.305 -53.934,-21.934 -10.559,26.27 v 0" /><path
         id="path22"
         style="fill:#ed192d;fill-opacity:1;fill-rule:nonzero;stroke:none"
         d="m 559.633,559.09 h -166.84 v 155.254 h 166.84 l -0.016,166.937 h 155.27 V 714.445 l -0.016,-0.066 H 881.719 V 559.113 H 714.871 l 0.016,0.024 v -166.84 h -155.27 v 166.84 l 0.016,-0.047" /></g></g></svg>