<?xml version="1.0" encoding="UTF-8" standalone="no"?>
<svg
   xmlns:dc="http://purl.org/dc/elements/1.1/"
   xmlns:cc="http://creativecommons.org/ns#"
   xmlns:rdf="http://www.w3.org/1999/02/22-rdf-syntax-ns#"
   xmlns:svg="http://www.w3.org/2000/svg"
   xmlns="http://www.w3.org/2000/svg"
   viewBox="0 0 446.26666 356.04001"
   height="356.04001"
   width="446.26666"
   xml:space="preserve"
   id="svg2"
   version="1.1"><metadata
     id="metadata8"><rdf:RDF><cc:Work
         rdf:about=""><dc:format>image/svg+xml</dc:format><dc:type
           rdf:resource="http://purl.org/dc/dcmitype/StillImage" /><dc:title></dc:title></cc:Work></rdf:RDF></metadata><defs
     id="defs6" /><g
     transform="matrix(1.3333333,0,0,-1.3333333,0,356.04)"
     id="g10"><g
       transform="scale(0.1)"
       id="g12"><path
         id="path14"
         style="fill:#ed192d;fill-opacity:1;fill-rule:nonzero;stroke:none"
         d="M 1345.01,670.621 H 674.203 v 656.529 h 670.807 l -0.06,0.41 v 670.78 h 656.6 v -670.78 l -0.06,-0.27 h 670.84 V 670.691 h -670.84 l 0.06,0.11 V 0 h -656.6 v 670.801 l 0.06,-0.18" /><path
         id="path16"
         style="fill:#100f0d;fill-opacity:1;fill-rule:nonzero;stroke:none"
         d="m 0,1000.64 4.28906,74.26 221.21894,-12.77 7.676,132.97 63.886,-3.68 L 285.105,984.172 0,1000.64" /><path
         id="path18"
         style="fill:#100f0d;fill-opacity:1;fill-rule:nonzero;stroke:none"
         d="m 26.3281,1283.1 14.1914,73.04 280.3865,-54.48 -14.187,-73.04 -280.3909,54.48" /><path
         id="path20"
         style="fill:#100f0d;fill-opacity:1;fill-rule:nonzero;stroke:none"
         d="m 297.41,1442.92 20.031,56.14 c 7.93,22.22 5.539,40.49 -16.711,48.42 -23.726,8.48 -37.554,-5.28 -45.085,-26.37 l -20.032,-56.15 z m -107,38.17 19.348,54.26 c 4.305,12.05 3.816,30.92 -15.403,37.78 -19.589,6.99 -30.964,-4.66 -36.21,-19.36 l -19.368,-54.26 z m -130.8866,-32.31 44.9026,125.86 c 15.769,46.6 45.984,93.17 102.129,73.14 24.109,-8.61 38.59,-29.91 41.621,-54.77 18.496,25.67 49.683,34.5 80.203,23.62 64.055,-22.85 66.848,-76.95 46.277,-134.59 L 328.547,1352.8 59.5234,1448.78" /><path
         id="path22"
         style="fill:#100f0d;fill-opacity:1;fill-rule:nonzero;stroke:none"
         d="m 185.41,1767.7 117.805,194.73 50.984,-30.84 -79.289,-131.09 42.778,-25.88 72.468,119.79 49.285,-29.82 -72.468,-119.78 46.543,-28.16 81.379,134.51 54.753,-33.13 L 429.766,1619.88 185.41,1767.7" /><path
         id="path24"
         style="fill:#100f0d;fill-opacity:1;fill-rule:nonzero;stroke:none"
         d="m 505.066,2013.8 42.27,45.92 c 15.164,16.48 14.473,33.44 -1.43,48.07 -15.593,14.35 -34.031,8.49 -48.125,-6.81 l -40.093,-43.55 z m -141.628,29.26 98.625,107.12 c 34.136,37.08 84.507,58.12 126.882,19.11 22.657,-20.86 34.121,-51.52 22.332,-81.45 l 0.586,-0.55 c 25.891,17.49 56.86,0.94 78.496,-15.72 9.375,-7.54 41.086,-35.1 55.508,-34.8 l -49.851,-54.14 c -11.387,1.79 -32.801,19.87 -39.239,24.71 -22.539,18.04 -47.566,34.56 -71.14,8.95 l -38.196,-41.49 76.512,-70.45 -50.398,-54.73 -210.117,193.44" /><path
         id="path26"
         style="fill:#100f0d;fill-opacity:1;fill-rule:nonzero;stroke:none"
         d="m 596.875,2277.48 57.938,46.66 179.14,-222.39 -57.937,-46.67 -179.141,222.4" /><path
         id="path28"
         style="fill:#100f0d;fill-opacity:1;fill-rule:nonzero;stroke:none"
         d="m 890.566,2269.52 55.872,32.83 -77.903,70.2 -0.691,-0.41 z m -94.921,152.07 65.175,38.3 236.78,-192.12 -66.91,-39.32 -41.112,35.23 -85.867,-50.47 10.422,-53.26 -65.871,-38.71 -52.617,300.35" /><path
         id="path30"
         style="fill:#100f0d;fill-opacity:1;fill-rule:nonzero;stroke:none"
         d="m 1023.47,2543.79 72.42,24.37 150.15,-135.18 0.76,0.25 -56.13,166.82 66.35,22.33 91.08,-270.71 -72.42,-24.36 -150.8,137.08 -0.75,-0.26 56.77,-168.72 -66.35,-22.31 -91.08,270.69" /><path
         id="path32"
         style="fill:#100f0d;fill-opacity:1;fill-rule:nonzero;stroke:none"
         d="m 1593.54,2544.63 62.4,1.41 c 22.39,0.5 34.13,12.77 33.64,34.36 -0.48,21.21 -17.5,30.42 -38.28,29.96 l -59.2,-1.33 z m -77.17,122.32 145.57,3.26 c 50.41,1.14 100.51,-20.55 101.8,-78.14 0.69,-30.79 -13.45,-60.32 -43.18,-72.59 l 0.02,-0.8 c 30.55,-6.52 40.11,-40.32 43.12,-67.46 1.08,-11.98 3.22,-53.94 13.45,-64.12 l -73.59,-1.65 c -6.62,9.44 -8.44,37.43 -9.43,45.4 -2.64,28.75 -8.1,58.24 -42.89,57.45 l -56.41,-1.26 2.35,-103.98 -74.39,-1.67 -6.42,285.56" /><path
         id="path34"
         style="fill:#100f0d;fill-opacity:1;fill-rule:nonzero;stroke:none"
         d="m 1858.8,2663.56 224.05,-39.94 -10.46,-58.69 -150.82,26.9 -8.77,-49.22 137.82,-24.57 -10.11,-56.71 -137.81,24.57 -9.56,-53.55 154.76,-27.59 -11.23,-63 -228.01,40.65 50.14,281.15" /><path
         id="path36"
         style="fill:#100f0d;fill-opacity:1;fill-rule:nonzero;stroke:none"
         d="m 2167.29,2363.06 32.65,-13.17 c 52.77,-20 81.77,-7.97 103.18,45.07 19.45,48.24 2.91,82.08 -44.2,101.1 l -32.65,13.17 z m 13.93,233.36 113.89,-45.95 c 81.25,-32.78 109.93,-101.73 76.85,-183.71 -35.03,-86.81 -103.22,-113.65 -183.73,-81.16 l -113.88,45.95 106.87,264.87" /><path
         id="path38"
         style="fill:#100f0d;fill-opacity:1;fill-rule:nonzero;stroke:none"
         d="m 2715.87,2173.2 c 15.16,24.81 7.47,50.77 -16.66,70.54 -37.13,30.42 -78.24,9.3 -105.12,-23.5 -26.87,-32.79 -39.51,-77.26 -2.38,-107.68 26.91,-22.06 55.06,-19.27 78.01,4.33 l 57.56,-47.16 c -49.75,-54.39 -118.91,-53.57 -174.91,-7.69 -66.83,54.77 -68.31,141.31 -15.83,205.37 52.49,64.03 137.65,79.59 204.48,24.82 47.64,-39.04 74.46,-111.7 32.4,-166.19 l -57.55,47.16" /><path
         id="path40"
         style="fill:#100f0d;fill-opacity:1;fill-rule:nonzero;stroke:none"
         d="m 2853.76,1999.87 38.99,-48.71 c 14,-17.5 30.87,-19.36 47.73,-5.86 16.54,13.25 13.54,32.36 0.55,48.6 l -37,46.21 z m 50.29,135.56 91,-113.65 c 31.5,-39.35 44.7,-92.32 -0.27,-128.31 -24.04,-19.25 -56.08,-25.95 -83.89,-9.77 l -0.63,-0.5 c 13.38,-28.24 -7.65,-56.36 -27.39,-75.23 -8.86,-8.12 -40.91,-35.31 -42.76,-49.61 l -46,57.44 c 3.49,11 24.59,29.44 30.33,35.06 21.24,19.56 41.35,41.82 19.59,68.98 l -35.24,44.02 -81.18,-64.99 -46.51,58.08 222.95,178.48" /><path
         id="path42"
         style="fill:#100f0d;fill-opacity:1;fill-rule:nonzero;stroke:none"
         d="m 2966.11,1641.41 c 21.39,-42.98 67.55,-40.56 105.51,-21.67 37.96,18.9 67.73,54.27 46.34,97.24 -21.4,42.97 -67.56,40.55 -105.51,21.66 -37.97,-18.9 -67.72,-54.26 -46.34,-97.23 z m 209.14,104.09 c 40.11,-80.58 3.65,-155.47 -70.47,-192.36 -74.14,-36.9 -155.86,-20.82 -195.96,59.74 -40.11,80.58 -3.65,155.47 70.47,192.37 74.14,36.89 155.86,20.82 195.96,-59.75" /><path
         id="path44"
         style="fill:#100f0d;fill-opacity:1;fill-rule:nonzero;stroke:none"
         d="m 3094.21,1421.76 c -32.11,-10.03 -37.31,-32.87 -29.35,-63.46 5.66,-21.68 19.24,-42.11 39.76,-36.75 24.37,6.35 18.73,47.04 19.57,89.83 0.94,42.4 7.95,88.45 58.65,101.67 60.39,15.73 99.83,-38.89 113.34,-90.74 14.32,-54.96 2.04,-117.27 -60.17,-133.9 l -18.76,71.98 c 25.46,5.4 27.43,31.14 21.69,53.2 -4.05,15.47 -14.5,33.41 -32.69,28.68 -21.28,-5.55 -14.78,-46.43 -15.5,-89.6 -0.84,-42.78 -8.93,-87.89 -58.87,-100.9 -70.04,-18.25 -108.02,35.5 -123.86,96.27 -16.55,63.48 -3.3,126.85 67.44,145.7 l 18.75,-71.98" /><path
         id="path46"
         style="fill:#100f0d;fill-opacity:1;fill-rule:nonzero;stroke:none"
         d="m 3148.2,1144.92 c -33.42,-3.73 -42.88,-25.17 -40.87,-56.71 1.43,-22.36 10.88,-45 32.05,-43.66 25.14,1.61 27.34,42.63 36.29,84.5 8.99,41.44 24.61,85.34 76.91,88.67 62.27,3.96 90.62,-57.15 94.03,-110.64 3.62,-56.69 -20.28,-115.529 -84.53,-120.029 l -4.73,74.249 c 26.02,0.46 32.86,25.34 31.4,48.1 -1.03,15.96 -7.88,35.57 -26.64,34.37 -21.96,-1.4 -23.33,-42.76 -32.26,-85.03 -8.94,-41.84 -25.47,-84.592 -76.96,-87.869 -72.26,-4.609 -99.33,55.379 -103.33,118.059 -4.17,65.48 20.88,125.18 93.91,130.24 l 4.73,-74.25" /></g></g></svg>