<?xml version="1.0" encoding="utf-8"?>
<!-- Generator: Adobe Illustrator 16.0.0, SVG Export Plug-In . SVG Version: 6.00 Build 0)  -->
<!DOCTYPE svg PUBLIC "-//W3C//DTD SVG 1.1//EN" "http://www.w3.org/Graphics/SVG/1.1/DTD/svg11.dtd">
<svg version="1.1" id="Layer_1" xmlns="http://www.w3.org/2000/svg" xmlns:xlink="http://www.w3.org/1999/xlink" x="0px" y="0px"
	 width="595.28px" height="841.89px" viewBox="0 0 595.28 841.89" enable-background="new 0 0 595.28 841.89" xml:space="preserve">
<g>
	<path fill-rule="evenodd" clip-rule="evenodd" fill="#FEFEFE" d="M67.24,292.565c0-73.146,0-146.291,0-219.435
		c139.586,0,279.173,0,418.76,0c0,73.145,0,146.29,0,219.435C346.413,292.565,206.826,292.565,67.24,292.565z M145.384,192.218
		c7.396,0,14.534,0,21.89,0c0,7.356,0,14.414,0,21.536c6.387,0,12.546,0,19.076,0c0-7.261,0-14.383,0-21.786
		c7.505,0,14.645,0,21.789,0c0-6.458,0-12.62,0-19.063c-7.339,0-14.492,0-21.903,0c0-7.327,0-14.376,0-21.485
		c-6.498,0-12.727,0-19.185,0c0,7.269,0,14.322,0,21.684c-7.357,0-14.487,0-21.667,0
		C145.384,179.511,145.384,185.601,145.384,192.218z M279.192,173.082c0,6.508,0,12.723,0,18.981
		c1.451-0.007,2.708,0.316,4.043-0.254c0-1.097,0-2.169,0-3.242c0-1.161,0-2.322,0-3.45c6.334-0.891,6.334-0.891,7.952,6.732
		c1.308,0.5,2.664,0.273,4.08,0.149c-0.745-3.112,0.187-6.612-2.598-9.035c2.3-1.871,2.883-4.127,1.878-6.69
		c-1.001-2.553-3.118-3.285-5.721-3.213C285.683,173.149,282.535,173.082,279.192,173.082z M345.76,179.47
		c-1.053-5.047-4.792-7.616-9.747-6.848c-5.264,0.816-8.517,5.486-7.89,11.331c0.574,5.351,4.524,8.852,9.763,8.651
		c4.715-0.181,7.776-3.233,7.776-7.879c-1.245,0-2.493,0-3.767,0c-0.617,2.178-1.59,3.989-4.048,4.185
		c-1.918,0.153-3.513-0.625-4.422-2.357c-1.373-2.612-1.388-5.337,0.012-7.919c1.536-2.835,5.415-3.458,7.126-0.911
		C341.979,179.826,343.584,179.723,345.76,179.47z M322.227,173.126c-0.542,1.964,0.245,3.876-0.602,5.693
		c-0.593-0.213-1.054-0.364-1.506-0.541c-2.472-0.973-4.725-0.53-6.451,1.425c-2.316,2.618-2.375,5.729-1.267,8.872
		c0.865,2.457,2.782,4.296,5.3,3.836c2.743-0.5,5.479,0.045,8.145-0.373c0-6.421,0-12.635,0-18.912
		C324.548,173.126,323.479,173.126,322.227,173.126z M310.16,186.209c0.567-4.51-1.458-7.645-5.207-8.287
		c-3.677-0.629-7.277,1.691-8.119,5.23c-1.011,4.246,1.029,8.035,4.887,9.085c3.919,1.066,7.048-0.545,8.253-4.277
		c-1.61-0.47-2.881-0.081-4.303,0.919c-2.338,1.646-4.555,0.317-4.542-2.671C304.145,186.209,307.166,186.209,310.16,186.209z
		 M373.292,187.673c0.293,3.178,2.149,4.303,4.547,4.685c2.795,0.444,5.6,0.413,7.567-2.063c1.625-2.043,0.893-4.891-1.474-5.917
		c-1.25-0.542-2.637-0.77-3.963-1.133c-1.008-0.277-2.216-0.3-2.26-1.859c2.936-2.787,4.97,3.039,7.795,0.749
		c-0.317-2.695-1.501-3.836-4.482-4.249c-3.385-0.469-6.488,0.647-7.183,2.761c-0.688,2.089-0.33,3.981,1.984,4.841
		c1.559,0.58,3.226,0.854,4.818,1.35c0.739,0.231,1.565,0.604,1.354,1.625c-0.188,0.911-0.94,1.187-1.788,1.236
		c-1.015,0.058-2.145,0.042-2.649-0.919C376.519,186.8,374.979,187.632,373.292,187.673z M371.956,185.149
		c-0.017-4.595-2.832-7.42-7.308-7.33c-4.258,0.087-7.005,2.989-7.003,7.398c0.001,4.381,2.786,7.25,7.086,7.3
		C369.26,192.567,371.974,189.8,371.956,185.149z M387.346,187.706c1.121,3.777,3.208,5.084,7.255,4.84
		c3.34-0.202,5.383-1.681,5.661-4.096c0.318-2.771-0.756-3.784-4.673-4.854c-1.357-0.373-3.245-0.064-3.85-2.178
		c1.387-1.108,2.959-1.19,3.941,0.012c1.327,1.625,2.648,0.984,4.132,0.854c-0.814-3.868-4.877-5.542-9.166-3.995
		c-1.87,0.675-2.93,1.908-2.944,3.938c-0.015,2.014,1.208,3.007,2.974,3.504c1.415,0.398,2.857,0.703,4.262,1.135
		c0.652,0.201,1.351,0.594,1.274,1.417c-0.085,0.924-0.815,1.289-1.66,1.383c-0.998,0.111-2.224,0.2-2.709-0.72
		C390.764,186.896,389.175,187.538,387.346,187.706z M274.363,191.771c0-0.425,0.001-0.904,0-1.383
		c-0.007-2.559,0.066-5.12-0.039-7.675c-0.16-3.873-2.668-5.614-6.412-4.536c-0.817,0.233-1.6,0.585-2.433,0.896
		c-0.545-5.918-0.545-5.918-2.45-5.646c0,6.182,0,12.361,0,18.511c1.491,0.398,2.378,0.292,2.294-1.54
		c-0.108-2.356-0.142-4.735,0.072-7.078c0.201-2.2,1.735-3.252,3.888-3.184c2.218,0.072,2.652,1.583,2.613,3.481
		c-0.057,2.74-0.015,5.481-0.015,8.191C272.752,192.248,273.473,192.252,274.363,191.771z M260.12,182.56
		c0.02-3.044-1.587-4.173-3.805-4.541c-2.392-0.397-4.782-0.289-6.427,1.867c-1.262,1.654-0.727,4.05,1.175,5.015
		c1.2,0.609,2.611,0.785,3.894,1.248c1.37,0.493,3.688,0.478,3.093,2.629c-0.549,1.989-2.724,1.487-4.355,1.329
		c-0.783-0.077-1.532-0.545-1.865-1.304c-0.688-1.564-1.722-1.093-2.865-0.805c1.364,4.547,7.464,6.144,10.718,3.006
		c0.579-0.558,0.947-1.216,1.076-2.037c0.422-2.68-0.992-3.92-3.342-4.702c-1.93-0.643-4.421-0.197-5.644-2.611
		C254.901,177.533,257.192,182.512,260.12,182.56z M351.576,192.079c1.367-4.025-2.474-10.263,5.423-10.788
		c-0.114-1.127,0.261-2.201-0.282-3.263c-1.995-0.722-3.277,0.741-4.677,1.49c-1.031-2.269-2.69-1.01-4.089-0.993
		c0,4.57,0,8.957,0,13.338C349.202,192.365,350.369,192.121,351.576,192.079z M230.076,173.25c0,6.353,0,12.495,0,18.777
		c0.963,0.063,1.808,0.375,2.585-0.22c0-6.185,0-12.339,0-18.448C231.795,172.916,231.039,173.032,230.076,173.25z M238.192,191.868
		c0-2.187-0.086-4.258,0.021-6.32c0.128-2.408,0.841-4.471,3.688-4.924c1.855-0.296,1.365-1.462,0.987-2.661
		c-1.987-0.173-3.243,0.915-4.688,2.375c0.15-2.162-0.851-2.331-2.32-1.795c0,4.494,0,8.902,0,13.282
		C236.591,192.252,237.243,192.189,238.192,191.868z M244.7,178.585c0,4.48,0,8.956,0,13.503c0.825,0.01,1.506,0.253,2.201-0.337
		c0-4.321,0-8.716,0-13.235C246.149,178.3,245.441,177.996,244.7,178.585z M244.436,173.184c0.477,1.133-0.809,2.688,1.342,2.798
		c1.128,0.056,1.175-0.677,1.22-1.522C247.092,172.614,245.877,173.078,244.436,173.184z"/>
	<path fill-rule="evenodd" clip-rule="evenodd" fill="#CC2027" d="M145.384,192.218c0-6.617,0-12.707,0-19.114
		c7.179,0,14.309,0,21.667,0c0-7.362,0-14.415,0-21.684c6.458,0,12.687,0,19.185,0c0,7.109,0,14.158,0,21.485
		c7.412,0,14.564,0,21.903,0c0,6.443,0,12.604,0,19.063c-7.144,0-14.284,0-21.789,0c0,7.403,0,14.525,0,21.786
		c-6.53,0-12.688,0-19.076,0c0-7.122,0-14.18,0-21.536C159.918,192.218,152.78,192.218,145.384,192.218z"/>
	<path fill-rule="evenodd" clip-rule="evenodd" fill="#272324" d="M279.192,173.082c3.343,0,6.491,0.067,9.634-0.021
		c2.603-0.072,4.72,0.66,5.721,3.213c1.005,2.563,0.421,4.819-1.878,6.69c2.785,2.423,1.853,5.923,2.598,9.035
		c-1.416,0.124-2.771,0.35-4.08-0.149c-1.617-7.623-1.617-7.623-7.952-6.732c0,1.127,0,2.289,0,3.45c0,1.072,0,2.145,0,3.242
		c-1.334,0.57-2.592,0.247-4.043,0.254C279.192,185.805,279.192,179.589,279.192,173.082z M283.194,181.873
		c2.687-0.61,5.296,0.833,7.153-1.609c0.668-0.878,0.581-2.026-0.117-2.737c-1.999-2.037-4.488-1.085-6.917-1.085
		c-0.048,0.799-0.104,1.374-0.114,1.951C283.182,179.363,283.194,180.334,283.194,181.873z"/>
	<path fill-rule="evenodd" clip-rule="evenodd" fill="#272324" d="M345.76,179.47c-2.176,0.252-3.781,0.356-5.196-1.749
		c-1.711-2.547-5.59-1.924-7.126,0.911c-1.399,2.583-1.385,5.307-0.012,7.919c0.909,1.732,2.504,2.51,4.422,2.357
		c2.458-0.196,3.431-2.007,4.048-4.185c1.273,0,2.521,0,3.767,0c0,4.646-3.062,7.699-7.776,7.879
		c-5.238,0.201-9.188-3.3-9.763-8.651c-0.627-5.845,2.626-10.515,7.89-11.331C340.968,171.854,344.707,174.423,345.76,179.47z"/>
	<path fill-rule="evenodd" clip-rule="evenodd" fill="#383435" d="M322.227,173.126c1.253,0,2.321,0,3.619,0
		c0,6.277,0,12.491,0,18.912c-2.666,0.418-5.401-0.127-8.145,0.373c-2.518,0.46-4.435-1.379-5.3-3.836
		c-1.108-3.143-1.05-6.254,1.267-8.872c1.727-1.955,3.979-2.397,6.451-1.425c0.452,0.177,0.913,0.328,1.506,0.541
		C322.472,177.002,321.685,175.09,322.227,173.126z M322.153,185.712c0.042-3.171-1.259-4.982-3.272-4.806
		c-2.53,0.22-3.08,2.085-3.116,4.206c-0.043,2.598,1.388,4.578,3.309,4.395C321.594,189.264,322.042,187.328,322.153,185.712z"/>
	<path fill-rule="evenodd" clip-rule="evenodd" fill="#272324" d="M310.16,186.209c-2.994,0-6.016,0-9.031,0
		c-0.013,2.989,2.204,4.317,4.542,2.671c1.422-1,2.692-1.39,4.303-0.919c-1.205,3.731-4.334,5.343-8.253,4.277
		c-3.858-1.051-5.897-4.84-4.887-9.085c0.842-3.539,4.442-5.859,8.119-5.23C308.702,178.564,310.728,181.699,310.16,186.209z
		 M306.375,183.594c-0.323-2.125-1.421-2.932-3.093-2.693c-1.353,0.192-2.64,0.771-2.33,2.693
		C302.71,183.594,304.369,183.594,306.375,183.594z"/>
	<path fill-rule="evenodd" clip-rule="evenodd" fill="#383435" d="M373.292,187.673c1.687-0.041,3.227-0.874,4.268,1.104
		c0.505,0.962,1.635,0.978,2.649,0.919c0.848-0.049,1.6-0.325,1.788-1.236c0.211-1.021-0.615-1.394-1.354-1.625
		c-1.593-0.496-3.26-0.77-4.818-1.35c-2.314-0.859-2.672-2.752-1.984-4.841c0.694-2.113,3.798-3.23,7.183-2.761
		c2.981,0.413,4.165,1.554,4.482,4.249c-2.825,2.29-4.859-3.535-7.795-0.749c0.044,1.56,1.252,1.583,2.26,1.859
		c1.326,0.363,2.713,0.591,3.963,1.133c2.366,1.026,3.099,3.874,1.474,5.917c-1.968,2.476-4.772,2.507-7.567,2.063
		C375.441,191.977,373.585,190.852,373.292,187.673z"/>
	<path fill-rule="evenodd" clip-rule="evenodd" fill="#272324" d="M371.956,185.149c0.018,4.651-2.696,7.418-7.225,7.368
		c-4.3-0.05-7.085-2.918-7.086-7.3c-0.002-4.409,2.745-7.312,7.003-7.398C369.124,177.729,371.939,180.554,371.956,185.149z
		 M361.649,185.683c-0.047,2.229,1.155,4.008,3.246,3.87c2.516-0.166,3.117-2.063,3.288-4.1c0.222-2.645-1.311-4.71-3.37-4.578
		C362.312,181.036,361.66,182.777,361.649,185.683z"/>
	<path fill-rule="evenodd" clip-rule="evenodd" fill="#383435" d="M387.346,187.706c1.829-0.168,3.418-0.81,4.497,1.24
		c0.485,0.919,1.711,0.831,2.709,0.72c0.845-0.094,1.575-0.458,1.66-1.383c0.076-0.823-0.622-1.216-1.274-1.417
		c-1.404-0.432-2.847-0.736-4.262-1.135c-1.766-0.497-2.988-1.49-2.974-3.504c0.015-2.029,1.074-3.263,2.944-3.938
		c4.289-1.546,8.352,0.127,9.166,3.995c-1.483,0.13-2.805,0.77-4.132-0.854c-0.982-1.202-2.555-1.12-3.941-0.012
		c0.604,2.114,2.492,1.805,3.85,2.178c3.917,1.071,4.991,2.084,4.673,4.854c-0.278,2.415-2.321,3.894-5.661,4.096
		C390.554,192.79,388.467,191.483,387.346,187.706z"/>
	<path fill-rule="evenodd" clip-rule="evenodd" fill="#272324" d="M274.363,191.771c-0.89,0.481-1.61,0.477-2.481,0.038
		c0-2.71-0.042-5.451,0.015-8.191c0.04-1.898-0.395-3.409-2.613-3.481c-2.153-0.068-3.687,0.984-3.888,3.184
		c-0.214,2.343-0.181,4.722-0.072,7.078c0.084,1.832-0.803,1.938-2.294,1.54c0-6.15,0-12.329,0-18.511
		c1.905-0.272,1.905-0.272,2.45,5.646c0.833-0.312,1.616-0.663,2.433-0.896c3.744-1.078,6.251,0.663,6.412,4.536
		c0.104,2.555,0.031,5.116,0.039,7.675C274.364,190.867,274.363,191.346,274.363,191.771z"/>
	<path fill-rule="evenodd" clip-rule="evenodd" fill="#383435" d="M260.12,182.56c-2.928-0.048-5.219-5.027-8.347-0.907
		c1.222,2.414,3.713,1.969,5.644,2.611c2.35,0.781,3.764,2.021,3.342,4.702c-0.129,0.821-0.497,1.479-1.076,2.037
		c-3.254,3.138-9.354,1.542-10.718-3.006c1.144-0.288,2.177-0.759,2.865,0.805c0.333,0.759,1.082,1.228,1.865,1.304
		c1.631,0.159,3.806,0.661,4.355-1.329c0.595-2.151-1.723-2.136-3.093-2.629c-1.283-0.463-2.694-0.639-3.894-1.248
		c-1.901-0.965-2.437-3.361-1.175-5.015c1.645-2.156,4.035-2.265,6.427-1.867C258.533,178.387,260.139,179.516,260.12,182.56z"/>
	<path fill-rule="evenodd" clip-rule="evenodd" fill="#383435" d="M351.576,192.079c-1.207,0.042-2.374,0.287-3.625-0.216
		c0-4.381,0-8.768,0-13.338c1.398-0.017,3.058-1.276,4.089,0.993c1.399-0.749,2.682-2.212,4.677-1.49
		c0.543,1.063,0.168,2.136,0.282,3.263C349.103,181.815,352.943,188.054,351.576,192.079z"/>
	<path fill-rule="evenodd" clip-rule="evenodd" fill="#383435" d="M230.076,173.25c0.963-0.218,1.72-0.334,2.585,0.109
		c0,6.108,0,12.263,0,18.448c-0.777,0.595-1.622,0.282-2.585,0.22C230.076,185.745,230.076,179.603,230.076,173.25z"/>
	<path fill-rule="evenodd" clip-rule="evenodd" fill="#272324" d="M238.192,191.868c-0.949,0.321-1.602,0.384-2.312-0.043
		c0-4.38,0-8.788,0-13.282c1.469-0.536,2.47-0.366,2.32,1.795c1.445-1.46,2.702-2.547,4.688-2.375
		c0.378,1.199,0.869,2.365-0.987,2.661c-2.847,0.454-3.561,2.516-3.688,4.924C238.106,187.61,238.192,189.682,238.192,191.868z"/>
	<path fill-rule="evenodd" clip-rule="evenodd" fill="#383435" d="M244.7,178.585c0.741-0.589,1.449-0.285,2.201-0.069
		c0,4.52,0,8.914,0,13.235c-0.694,0.59-1.375,0.347-2.201,0.337C244.7,187.541,244.7,183.066,244.7,178.585z"/>
	<path fill-rule="evenodd" clip-rule="evenodd" fill="#383435" d="M244.436,173.184c1.441-0.106,2.657-0.57,2.562,1.275
		c-0.045,0.846-0.092,1.579-1.22,1.522C243.627,175.872,244.912,174.317,244.436,173.184z"/>
	<path fill-rule="evenodd" clip-rule="evenodd" fill="#E9E8E9" d="M283.194,181.873c0-1.539-0.012-2.51,0.005-3.481
		c0.01-0.577,0.066-1.152,0.114-1.951c2.429,0,4.918-0.952,6.917,1.085c0.698,0.711,0.785,1.859,0.117,2.737
		C288.49,182.706,285.881,181.263,283.194,181.873z"/>
	<path fill-rule="evenodd" clip-rule="evenodd" fill="#E9E8E9" d="M322.153,185.712c-0.111,1.616-0.56,3.552-3.08,3.794
		c-1.921,0.183-3.352-1.797-3.309-4.395c0.036-2.12,0.586-3.985,3.116-4.206C320.895,180.73,322.195,182.541,322.153,185.712z"/>
	<path fill-rule="evenodd" clip-rule="evenodd" fill="#E9E8E9" d="M306.375,183.594c-2.006,0-3.665,0-5.423,0
		c-0.31-1.922,0.978-2.501,2.33-2.693C304.954,180.663,306.052,181.469,306.375,183.594z"/>
	<path fill-rule="evenodd" clip-rule="evenodd" fill="#E9E8E9" d="M361.649,185.683c0.011-2.906,0.662-4.647,3.164-4.808
		c2.06-0.132,3.592,1.933,3.37,4.578c-0.171,2.038-0.772,3.934-3.288,4.1C362.805,189.691,361.603,187.912,361.649,185.683z"/>
</g>
</svg>
