<?xml version="1.0" encoding="UTF-8" standalone="no"?>
<!-- Created with Inkscape (http://www.inkscape.org/) -->

<svg
   width="53.910431mm"
   height="10.107278mm"
   viewBox="0 0 73.265786 13.736074"
   version="1.1"
   id="svg1"
   inkscape:version="1.3.2 (091e20e, 2023-11-25, custom)"
   sodipodi:docname="Irish RC.svg"
   xmlns:inkscape="http://www.inkscape.org/namespaces/inkscape"
   xmlns:sodipodi="http://sodipodi.sourceforge.net/DTD/sodipodi-0.dtd"
   xmlns="http://www.w3.org/2000/svg"
   xmlns:svg="http://www.w3.org/2000/svg">
  <sodipodi:namedview
     id="namedview1"
     pagecolor="#ffffff"
     bordercolor="#666666"
     borderopacity="1.0"
     inkscape:showpageshadow="2"
     inkscape:pageopacity="0.0"
     inkscape:pagecheckerboard="0"
     inkscape:deskcolor="#d1d1d1"
     inkscape:document-units="mm"
     inkscape:zoom="2.9255612"
     inkscape:cx="103.39897"
     inkscape:cy="37.428717"
     inkscape:window-width="1920"
     inkscape:window-height="1017"
     inkscape:window-x="-8"
     inkscape:window-y="-8"
     inkscape:window-maximized="1"
     inkscape:current-layer="layer1" />
  <defs
     id="defs1">
    <clipPath
       clipPathUnits="userSpaceOnUse"
       id="clipPath134">
      <path
         d="M 0,0 H 595.276 V 841.89 H 0 Z"
         transform="translate(-105.24021,-757.29362)"
         id="path134" />
    </clipPath>
    <clipPath
       clipPathUnits="userSpaceOnUse"
       id="clipPath137">
      <path
         d="M 0,0 H 595.276 V 841.89 H 0 Z"
         transform="translate(-111.38091,-752.49052)"
         id="path137" />
    </clipPath>
    <clipPath
       clipPathUnits="userSpaceOnUse"
       id="clipPath139">
      <path
         d="M 0,0 H 595.276 V 841.89 H 0 Z"
         transform="translate(-117.42231,-759.64812)"
         id="path139" />
    </clipPath>
    <clipPath
       clipPathUnits="userSpaceOnUse"
       id="clipPath141">
      <path
         d="M 0,0 H 595.276 V 841.89 H 0 Z"
         transform="translate(-128.19321,-755.78412)"
         id="path141" />
    </clipPath>
    <clipPath
       clipPathUnits="userSpaceOnUse"
       id="clipPath143">
      <path
         d="M 0,0 H 595.276 V 841.89 H 0 Z"
         transform="translate(-136.2193,-755.84692)"
         id="path143" />
    </clipPath>
    <clipPath
       clipPathUnits="userSpaceOnUse"
       id="clipPath145">
      <path
         d="M 0,0 H 595.276 V 841.89 H 0 Z"
         transform="translate(-143.56791,-754.95482)"
         id="path145" />
    </clipPath>
    <clipPath
       clipPathUnits="userSpaceOnUse"
       id="clipPath147">
      <path
         d="M 0,0 H 595.276 V 841.89 H 0 Z"
         transform="translate(-153.6663,-757.36952)"
         id="path147" />
    </clipPath>
    <clipPath
       clipPathUnits="userSpaceOnUse"
       id="clipPath149">
      <path
         d="M 0,0 H 595.276 V 841.89 H 0 Z"
         transform="translate(-158.3302,-757.29362)"
         id="path149" />
    </clipPath>
    <clipPath
       clipPathUnits="userSpaceOnUse"
       id="clipPath151">
      <path
         d="M 0,0 H 595.276 V 841.89 H 0 Z"
         transform="translate(-162.8524,-753.47152)"
         id="path151" />
    </clipPath>
    <clipPath
       clipPathUnits="userSpaceOnUse"
       id="clipPath153">
      <path
         d="M 0,0 H 595.276 V 841.89 H 0 Z"
         transform="translate(-169.82061,-752.64482)"
         id="path153" />
    </clipPath>
    <clipPath
       clipPathUnits="userSpaceOnUse"
       id="clipPath155">
      <path
         d="M 0,0 H 595.276 V 841.89 H 0 Z"
         transform="translate(-176.1759,-752.64482)"
         id="path155" />
    </clipPath>
    <clipPath
       clipPathUnits="userSpaceOnUse"
       id="clipPath158">
      <path
         d="M 0,0 H 595.276 V 841.89 H 0 Z"
         transform="translate(-107.6274,-770.98102)"
         id="path158" />
    </clipPath>
    <clipPath
       clipPathUnits="userSpaceOnUse"
       id="clipPath160">
      <path
         d="M 0,0 H 595.276 V 841.89 H 0 Z"
         transform="translate(-112.4559,-770.90512)"
         id="path160" />
    </clipPath>
    <clipPath
       clipPathUnits="userSpaceOnUse"
       id="clipPath162">
      <path
         d="M 0,0 H 595.276 V 841.89 H 0 Z"
         transform="translate(-117.1353,-767.02022)"
         id="path162" />
    </clipPath>
    <clipPath
       clipPathUnits="userSpaceOnUse"
       id="clipPath165">
      <path
         d="M 0,0 H 595.276 V 841.89 H 0 Z"
         transform="translate(-127.4502,-766.18042)"
         id="path165" />
    </clipPath>
    <clipPath
       clipPathUnits="userSpaceOnUse"
       id="clipPath167">
      <path
         d="M 0,0 H 595.276 V 841.89 H 0 Z"
         transform="translate(-138.46761,-766.22752)"
         id="path167" />
    </clipPath>
    <clipPath
       clipPathUnits="userSpaceOnUse"
       id="clipPath169">
      <path
         d="M 0,0 H 595.276 V 841.89 H 0 Z"
         transform="translate(-145.3992,-773.30152)"
         id="path169" />
    </clipPath>
    <clipPath
       clipPathUnits="userSpaceOnUse"
       id="clipPath171">
      <path
         d="M 0,0 H 595.276 V 841.89 H 0 Z"
         transform="translate(-154.6536,-769.43232)"
         id="path171" />
    </clipPath>
    <clipPath
       clipPathUnits="userSpaceOnUse"
       id="clipPath173">
      <path
         d="M 0,0 H 595.276 V 841.89 H 0 Z"
         transform="translate(-161.39811,-767.54082)"
         id="path173" />
    </clipPath>
    <clipPath
       clipPathUnits="userSpaceOnUse"
       id="clipPath175">
      <path
         d="M 0,0 H 595.276 V 841.89 H 0 Z"
         transform="translate(-166.3656,-770.90512)"
         id="path175" />
    </clipPath>
    <clipPath
       clipPathUnits="userSpaceOnUse"
       id="clipPath177">
      <path
         d="M 0,0 H 595.276 V 841.89 H 0 Z"
         transform="translate(-173.0479,-766.24852)"
         id="path177" />
    </clipPath>
    <clipPath
       clipPathUnits="userSpaceOnUse"
       id="clipPath179">
      <path
         d="M 0,0 H 595.276 V 841.89 H 0 Z"
         transform="translate(-179.83941,-770.90512)"
         id="path179" />
    </clipPath>
    <clipPath
       clipPathUnits="userSpaceOnUse"
       id="clipPath181">
      <path
         d="M 0,0 H 595.276 V 841.89 H 0 Z"
         transform="translate(-188.86911,-767.65072)"
         id="path181" />
    </clipPath>
    <clipPath
       clipPathUnits="userSpaceOnUse"
       id="clipPath183">
      <path
         d="M 0,0 H 595.276 V 841.89 H 0 Z"
         transform="translate(-194.8678,-773.30152)"
         id="path183" />
    </clipPath>
    <clipPath
       clipPathUnits="userSpaceOnUse"
       id="clipPath187">
      <path
         d="M 0,0 H 595.276 V 841.89 H 0 Z"
         transform="translate(-211.1407,-770.90522)"
         id="path187" />
    </clipPath>
    <clipPath
       clipPathUnits="userSpaceOnUse"
       id="clipPath189">
      <path
         d="M 0,0 H 595.276 V 841.89 H 0 Z"
         transform="translate(-218.30011,-769.05822)"
         id="path189" />
    </clipPath>
    <clipPath
       clipPathUnits="userSpaceOnUse"
       id="clipPath191">
      <path
         d="M 0,0 H 595.276 V 841.89 H 0 Z"
         transform="translate(-223.91841,-767.65072)"
         id="path191" />
    </clipPath>
    <clipPath
       clipPathUnits="userSpaceOnUse"
       id="clipPath193">
      <path
         d="M 0,0 H 595.276 V 841.89 H 0 Z"
         transform="translate(-227.9593,-770.90512)"
         id="path193" />
    </clipPath>
    <clipPath
       clipPathUnits="userSpaceOnUse"
       id="clipPath195">
      <path
         d="M 0,0 H 595.276 V 841.89 H 0 Z"
         transform="translate(-234.58,-770.90512)"
         id="path195" />
    </clipPath>
  </defs>
  <g
     inkscape:label="Layer 1"
     inkscape:groupmode="layer"
     id="layer1"
     transform="translate(-76.980343,-143.10326)">
    <path
       id="path132"
       d="m 93.100451,155.12872 h 0.400755 v -3.01237 h -0.400755 z"
       style="fill:#000000 icc-color(sRGB-IEC61966-2, 0.1, 0, 0, 0);fill-opacity:1;fill-rule:nonzero;stroke:none;stroke-width:0.352778" />
    <path
       id="path133"
       d="m 0,0 v -1.303 h 0.026 c 0.245,0.5 0.549,0.871 0.909,1.112 0.356,0.238 0.81,0.351 1.362,0.332 v -1.075 c -0.408,0 -0.753,-0.055 -1.04,-0.165 C 0.967,-1.211 0.737,-1.376 0.563,-1.591 0.385,-1.805 0.257,-2.069 0.179,-2.375 0.098,-2.684 0.058,-3.037 0.058,-3.435 V -6.184 H -0.955 V 0"
       style="fill:#000000 icc-color(sRGB-IEC61966-2, 0.1, 0, 0, 0);fill-opacity:1;fill-rule:nonzero;stroke:none"
       transform="matrix(0.35277776,0,0,-0.35277776,94.356765,152.94692)"
       clip-path="url(#clipPath134)" />
    <path
       id="path135"
       d="m 95.753692,155.12872 h -0.358069 v -2.18193 h 0.358069 z m -0.358069,-3.01237 h 0.358422 v 0.43886 h -0.358422 z"
       style="fill:#000000 icc-color(sRGB-IEC61966-2, 0.1, 0, 0, 0);fill-opacity:1;fill-rule:nonzero;stroke:none;stroke-width:0.352778" />
    <path
       id="path136"
       d="m 0,0 c 0.096,-0.157 0.219,-0.28 0.376,-0.371 0.157,-0.092 0.328,-0.157 0.526,-0.197 0.194,-0.041 0.399,-0.062 0.607,-0.062 0.156,0 0.325,0.015 0.5,0.039 0.175,0.023 0.337,0.068 0.483,0.131 0.15,0.065 0.271,0.154 0.367,0.279 0.095,0.123 0.144,0.28 0.144,0.471 0,0.265 -0.102,0.466 -0.302,0.602 C 2.504,1.026 2.254,1.135 1.954,1.219 1.657,1.305 1.332,1.381 0.981,1.447 0.627,1.512 0.308,1.612 0.006,1.734 c -0.298,0.121 -0.549,0.293 -0.747,0.521 -0.202,0.222 -0.298,0.534 -0.298,0.931 0,0.314 0.07,0.581 0.208,0.801 0.138,0.225 0.319,0.405 0.539,0.547 0.219,0.138 0.464,0.243 0.74,0.308 0.275,0.071 0.55,0.102 0.82,0.102 0.35,0 0.673,-0.028 0.967,-0.089 C 2.531,4.795 2.793,4.691 3.021,4.544 3.247,4.395 3.429,4.199 3.563,3.948 3.697,3.697 3.778,3.383 3.804,3.011 H 2.787 C 2.771,3.207 2.716,3.372 2.631,3.508 2.541,3.636 2.433,3.741 2.297,3.822 2.16,3.903 2.011,3.958 1.848,3.995 1.684,4.031 1.52,4.047 1.351,4.047 1.201,4.047 1.048,4.037 0.892,4.013 0.735,3.987 0.594,3.948 0.468,3.887 0.338,3.827 0.236,3.746 0.155,3.649 0.075,3.55 0.036,3.422 0.036,3.26 0.036,3.084 0.098,2.938 0.219,2.823 0.344,2.708 0.5,2.611 0.694,2.538 0.885,2.459 1.101,2.396 1.341,2.344 1.579,2.292 1.818,2.239 2.06,2.182 2.312,2.13 2.561,2.059 2.805,1.978 3.048,1.902 3.261,1.795 3.451,1.659 3.636,1.533 3.789,1.363 3.907,1.167 4.021,0.965 4.078,0.717 4.078,0.426 4.078,0.047 4,-0.262 3.844,-0.51 3.689,-0.756 3.487,-0.955 3.233,-1.107 2.984,-1.258 2.699,-1.366 2.388,-1.423 2.069,-1.483 1.76,-1.512 1.447,-1.512 c -0.345,0 -0.67,0.034 -0.979,0.107 -0.313,0.071 -0.587,0.189 -0.826,0.353 -0.241,0.165 -0.434,0.38 -0.575,0.644 -0.143,0.267 -0.223,0.591 -0.242,0.976 h 1.02 C -0.147,0.343 -0.096,0.154 0,0"
       style="fill:#000000 icc-color(sRGB-IEC61966-2, 0.1, 0, 0, 0);fill-opacity:1;fill-rule:nonzero;stroke:none"
       transform="matrix(0.35277776,0,0,-0.35277776,96.523068,154.64135)"
       clip-path="url(#clipPath137)" />
    <path
       id="path138"
       d="m 0,0 v -3.265 h 0.026 c 0.076,0.188 0.192,0.353 0.332,0.487 0.145,0.131 0.304,0.238 0.487,0.321 0.177,0.084 0.366,0.144 0.56,0.184 0.196,0.039 0.385,0.06 0.568,0.06 0.409,0 0.748,-0.058 1.018,-0.165 0.273,-0.112 0.491,-0.269 0.658,-0.468 0.169,-0.199 0.285,-0.437 0.352,-0.709 0.07,-0.278 0.104,-0.584 0.104,-0.919 V -8.539 H 3.087 v 4.186 c 0,0.382 -0.112,0.685 -0.334,0.908 C 2.529,-3.22 2.221,-3.11 1.831,-3.11 1.521,-3.11 1.248,-3.158 1.022,-3.252 0.794,-3.349 0.607,-3.482 0.456,-3.657 0.305,-3.835 0.189,-4.039 0.114,-4.275 0.039,-4.513 0,-4.766 0,-5.049 v -3.49 H -1.015 V 0"
       style="fill:#000000 icc-color(sRGB-IEC61966-2, 0.1, 0, 0, 0);fill-opacity:1;fill-rule:nonzero;stroke:none"
       transform="matrix(0.35277776,0,0,-0.35277776,98.654339,152.11631)"
       clip-path="url(#clipPath139)" />
    <path
       id="path140"
       d="M 0,0 C 0.432,0 0.753,0.097 0.969,0.285 1.186,0.481 1.293,0.787 1.293,1.222 1.293,1.635 1.186,1.936 0.969,2.127 0.753,2.313 0.432,2.404 0,2.404 H -2.059 V 0 M 0.67,3.864 c 0.384,0 0.726,-0.06 1.037,-0.183 C 2.012,3.56 2.274,3.385 2.495,3.171 2.714,2.956 2.881,2.708 2.997,2.425 3.111,2.14 3.172,1.834 3.172,1.509 3.172,1.01 3.066,0.57 2.852,0.207 2.642,-0.162 2.296,-0.442 1.816,-0.633 V -0.657 C 2.048,-0.722 2.242,-0.819 2.392,-0.95 2.545,-1.083 2.667,-1.235 2.765,-1.415 2.859,-1.596 2.928,-1.792 2.974,-2.007 3.017,-2.226 3.046,-2.438 3.064,-2.653 3.07,-2.789 3.078,-2.951 3.087,-3.134 3.093,-3.315 3.109,-3.5 3.127,-3.691 3.147,-3.885 3.18,-4.068 3.223,-4.241 3.27,-4.408 3.332,-4.555 3.421,-4.675 H 1.543 c -0.102,0.27 -0.167,0.594 -0.191,0.965 -0.024,0.38 -0.059,0.738 -0.108,1.081 -0.063,0.445 -0.199,0.772 -0.407,0.981 -0.207,0.207 -0.545,0.309 -1.018,0.309 h -1.878 v -3.336 h -1.877 v 8.539 z"
       style="fill:#000000 icc-color(sRGB-IEC61966-2, 0.1, 0, 0, 0);fill-opacity:1;fill-rule:nonzero;stroke:none"
       transform="matrix(0.35277776,0,0,-0.35277776,102.45407,153.47944)"
       clip-path="url(#clipPath141)" />
    <path
       id="path142"
       d="m 0,0 c -0.204,0.22 -0.513,0.332 -0.926,0.332 -0.273,0 -0.501,-0.044 -0.677,-0.138 -0.179,-0.089 -0.323,-0.202 -0.433,-0.338 -0.106,-0.133 -0.181,-0.28 -0.225,-0.432 -0.045,-0.149 -0.07,-0.287 -0.079,-0.405 H 0.423 C 0.344,-0.552 0.202,-0.222 0,0 m -1.92,-3.257 c 0.255,-0.243 0.621,-0.369 1.098,-0.369 0.343,0 0.639,0.086 0.885,0.256 0.248,0.173 0.401,0.354 0.458,0.545 H 2.014 C 1.778,-3.563 1.409,-4.097 0.916,-4.416 c -0.496,-0.319 -1.093,-0.479 -1.8,-0.479 -0.481,0 -0.922,0.079 -1.313,0.236 -0.39,0.154 -0.724,0.376 -0.992,0.662 -0.271,0.287 -0.479,0.633 -0.631,1.03 -0.146,0.398 -0.219,0.837 -0.219,1.314 0,0.465 0.075,0.894 0.228,1.295 0.152,0.397 0.366,0.743 0.645,1.033 0.281,0.29 0.615,0.521 1.001,0.688 0.387,0.165 0.813,0.251 1.281,0.251 0.53,0 0.988,-0.105 1.378,-0.306 C 0.886,1.107 1.207,0.832 1.458,0.489 1.712,0.144 1.892,-0.243 2.001,-0.683 2.116,-1.125 2.154,-1.583 2.122,-2.059 H -2.34 c 0.023,-0.549 0.164,-0.95 0.42,-1.198"
       style="fill:#000000 icc-color(sRGB-IEC61966-2, 0.1, 0, 0, 0);fill-opacity:1;fill-rule:nonzero;stroke:none"
       transform="matrix(0.35277776,0,0,-0.35277776,105.2855,153.45728)"
       clip-path="url(#clipPath143)" />
    <path
       id="path144"
       d="m 0,0 c -0.048,0.235 -0.134,0.442 -0.246,0.623 -0.117,0.18 -0.267,0.324 -0.448,0.434 -0.185,0.112 -0.415,0.167 -0.696,0.167 -0.279,0 -0.511,-0.055 -0.702,-0.167 -0.192,-0.11 -0.347,-0.259 -0.46,-0.442 -0.119,-0.181 -0.204,-0.393 -0.253,-0.628 -0.054,-0.236 -0.079,-0.481 -0.079,-0.735 0,-0.238 0.03,-0.479 0.083,-0.714 0.057,-0.244 0.149,-0.458 0.273,-0.644 0.121,-0.186 0.277,-0.337 0.466,-0.455 0.187,-0.113 0.41,-0.173 0.672,-0.173 0.281,0 0.515,0.058 0.703,0.168 0.185,0.115 0.339,0.261 0.447,0.45 0.11,0.183 0.192,0.4 0.24,0.638 0.047,0.238 0.07,0.486 0.07,0.743 0,0.254 -0.023,0.5 -0.07,0.735 m 0.07,-3.056 c -0.2,-0.335 -0.459,-0.578 -0.782,-0.724 -0.322,-0.147 -0.688,-0.223 -1.095,-0.223 -0.464,0 -0.871,0.092 -1.22,0.27 -0.353,0.178 -0.639,0.424 -0.866,0.732 -0.23,0.304 -0.399,0.654 -0.516,1.057 -0.116,0.398 -0.174,0.814 -0.174,1.243 0,0.416 0.058,0.816 0.174,1.203 0.117,0.39 0.286,0.728 0.516,1.021 0.227,0.295 0.51,0.533 0.853,0.714 0.345,0.178 0.744,0.269 1.198,0.269 0.365,0 0.714,-0.076 1.047,-0.233 0.331,-0.159 0.59,-0.387 0.783,-0.69 h 0.021 v 3.11 H 1.708 V -3.846 H 0.092 v 0.79 z"
       style="fill:#000000 icc-color(sRGB-IEC61966-2, 0.1, 0, 0, 0);fill-opacity:1;fill-rule:nonzero;stroke:none"
       transform="matrix(0.35277776,0,0,-0.35277776,107.87793,153.772)"
       clip-path="url(#clipPath145)" />
    <path
       id="path146"
       d="M 0,0 C -0.11,0.18 -0.251,0.335 -0.42,0.474 -0.585,0.607 -0.775,0.714 -0.986,0.79 -1.199,0.863 -1.418,0.903 -1.652,0.903 -2.073,0.903 -2.433,0.821 -2.725,0.659 -3.021,0.494 -3.262,0.275 -3.445,0 -3.628,-0.275 -3.762,-0.589 -3.845,-0.939 -3.928,-1.29 -3.97,-1.653 -3.97,-2.027 c 0,-0.359 0.042,-0.707 0.125,-1.044 0.083,-0.34 0.217,-0.647 0.4,-0.916 0.183,-0.275 0.424,-0.489 0.72,-0.654 0.292,-0.165 0.652,-0.246 1.073,-0.246 0.575,0 1.026,0.178 1.347,0.529 0.321,0.35 0.52,0.813 0.592,1.389 H 2.105 C 2.056,-3.506 1.936,-3.987 1.733,-4.419 1.537,-4.85 1.271,-5.217 0.945,-5.52 0.617,-5.823 0.236,-6.054 -0.202,-6.213 c -0.441,-0.16 -0.92,-0.238 -1.45,-0.238 -0.651,0 -1.242,0.112 -1.763,0.34 -0.521,0.227 -0.961,0.536 -1.32,0.939 -0.362,0.398 -0.637,0.869 -0.828,1.405 -0.192,0.539 -0.285,1.117 -0.285,1.74 0,0.638 0.093,1.229 0.285,1.778 0.191,0.545 0.466,1.018 0.828,1.429 0.359,0.405 0.799,0.724 1.32,0.955 0.521,0.233 1.112,0.35 1.763,0.35 0.473,0 0.915,-0.065 1.335,-0.206 C 0.102,2.143 0.474,1.946 0.806,1.69 1.136,1.428 1.411,1.107 1.626,0.727 1.844,0.343 1.977,-0.097 2.033,-0.591 H 0.215 C 0.183,-0.374 0.11,-0.178 0,0"
       style="fill:#000000 icc-color(sRGB-IEC61966-2, 0.1, 0, 0, 0);fill-opacity:1;fill-rule:nonzero;stroke:none"
       transform="matrix(0.35277776,0,0,-0.35277776,111.44042,152.92014)"
       clip-path="url(#clipPath147)" />
    <path
       id="path148"
       d="m 0,0 v -1.148 h 0.024 c 0.078,0.193 0.19,0.366 0.324,0.531 0.136,0.164 0.293,0.303 0.466,0.418 0.177,0.118 0.362,0.207 0.562,0.27 0.2,0.062 0.406,0.096 0.621,0.096 0.116,0 0.235,-0.02 0.371,-0.06 V -1.47 c -0.081,0.016 -0.175,0.026 -0.287,0.039 -0.108,0.013 -0.218,0.018 -0.32,0.018 -0.313,0 -0.576,-0.052 -0.792,-0.154 C 0.756,-1.672 0.579,-1.816 0.448,-1.993 0.318,-2.171 0.224,-2.383 0.167,-2.621 0.111,-2.859 0.086,-3.121 0.086,-3.398 V -6.184 H -1.615 V 0"
       style="fill:#000000 icc-color(sRGB-IEC61966-2, 0.1, 0, 0, 0);fill-opacity:1;fill-rule:nonzero;stroke:none"
       transform="matrix(0.35277776,0,0,-0.35277776,113.08574,152.94692)"
       clip-path="url(#clipPath149)" />
    <path
       id="path150"
       d="m 0,0 c 0.049,-0.238 0.131,-0.45 0.243,-0.633 0.117,-0.188 0.271,-0.338 0.462,-0.45 0.192,-0.112 0.432,-0.167 0.717,-0.167 0.286,0 0.529,0.055 0.725,0.167 0.195,0.112 0.351,0.262 0.466,0.45 C 2.727,-0.45 2.811,-0.238 2.857,0 2.908,0.235 2.93,0.476 2.93,0.722 2.93,0.971 2.908,1.211 2.857,1.452 2.811,1.693 2.727,1.902 2.613,2.085 2.498,2.268 2.342,2.417 2.147,2.535 1.951,2.65 1.708,2.708 1.422,2.708 1.137,2.708 0.897,2.65 0.705,2.535 0.514,2.417 0.36,2.268 0.243,2.085 0.131,1.902 0.049,1.693 0,1.452 -0.049,1.211 -0.073,0.971 -0.073,0.722 -0.073,0.476 -0.049,0.235 0,0 m -1.543,2.069 c 0.151,0.403 0.366,0.746 0.645,1.031 0.279,0.28 0.615,0.497 1.005,0.657 C 0.499,3.914 0.937,3.99 1.422,3.99 1.91,3.99 2.348,3.914 2.745,3.757 3.138,3.597 3.476,3.38 3.753,3.1 4.035,2.815 4.25,2.472 4.401,2.069 4.55,1.664 4.627,1.217 4.627,0.722 4.627,0.228 4.55,-0.217 4.401,-0.615 4.25,-1.015 4.035,-1.358 3.753,-1.638 3.476,-1.923 3.138,-2.143 2.745,-2.292 2.348,-2.441 1.91,-2.519 1.422,-2.519 c -0.485,0 -0.923,0.078 -1.315,0.227 -0.39,0.149 -0.726,0.369 -1.005,0.654 -0.279,0.28 -0.494,0.623 -0.645,1.023 -0.154,0.398 -0.23,0.843 -0.23,1.337 0,0.495 0.076,0.942 0.23,1.347"
       style="fill:#000000 icc-color(sRGB-IEC61966-2, 0.1, 0, 0, 0);fill-opacity:1;fill-rule:nonzero;stroke:none"
       transform="matrix(0.35277776,0,0,-0.35277776,114.68107,154.29527)"
       clip-path="url(#clipPath151)" />
    <path
       id="path152"
       d="m 0,0 c 0.077,-0.131 0.175,-0.238 0.296,-0.322 0.117,-0.083 0.254,-0.146 0.409,-0.186 0.16,-0.041 0.319,-0.062 0.486,-0.062 0.121,0 0.246,0.021 0.378,0.044 0.13,0.029 0.249,0.073 0.359,0.134 0.108,0.057 0.197,0.138 0.269,0.238 0.071,0.096 0.109,0.225 0.109,0.374 0,0.259 -0.172,0.45 -0.511,0.578 C 1.456,0.921 0.981,1.054 0.379,1.18 0.128,1.232 -0.11,1.3 -0.346,1.379 -0.581,1.452 -0.792,1.551 -0.977,1.677 -1.158,1.8 -1.307,1.954 -1.415,2.143 c -0.114,0.185 -0.167,0.413 -0.167,0.685 0,0.4 0.075,0.727 0.23,0.984 0.157,0.256 0.362,0.455 0.618,0.607 0.254,0.143 0.543,0.245 0.86,0.306 0.319,0.062 0.646,0.091 0.98,0.091 0.336,0 0.662,-0.034 0.977,-0.097 C 2.396,4.657 2.679,4.547 2.926,4.398 3.172,4.246 3.379,4.044 3.541,3.793 3.705,3.542 3.803,3.226 3.834,2.844 H 2.221 C 2.197,3.168 2.074,3.393 1.851,3.506 1.627,3.621 1.362,3.678 1.059,3.678 0.963,3.678 0.863,3.673 0.749,3.66 0.637,3.649 0.537,3.621 0.444,3.587 0.352,3.542 0.273,3.482 0.211,3.411 0.147,3.336 0.118,3.233 0.118,3.105 0.118,2.951 0.171,2.828 0.281,2.731 0.391,2.64 0.539,2.559 0.719,2.501 0.898,2.443 1.103,2.388 1.336,2.339 1.567,2.292 1.802,2.242 2.04,2.182 2.289,2.129 2.529,2.061 2.763,1.98 2.997,1.902 3.209,1.795 3.394,1.664 3.575,1.53 3.724,1.368 3.834,1.175 3.946,0.976 4.001,0.738 4.001,0.45 4.001,0.044 3.92,-0.298 3.758,-0.573 3.592,-0.85 3.382,-1.07 3.117,-1.235 2.853,-1.405 2.551,-1.52 2.215,-1.591 1.876,-1.659 1.529,-1.693 1.18,-1.693 c -0.36,0 -0.709,0.034 -1.054,0.11 -0.341,0.071 -0.647,0.189 -0.916,0.356 -0.268,0.167 -0.485,0.392 -0.655,0.665 -0.173,0.277 -0.265,0.622 -0.282,1.035 H -0.11 C -0.11,0.29 -0.075,0.131 0,0"
       style="fill:#000000 icc-color(sRGB-IEC61966-2, 0.1, 0, 0, 0);fill-opacity:1;fill-rule:nonzero;stroke:none"
       transform="matrix(0.35277776,0,0,-0.35277776,117.1393,154.58691)"
       clip-path="url(#clipPath153)" />
    <path
       id="path154"
       d="M 0,0 C 0.075,-0.131 0.173,-0.238 0.291,-0.322 0.411,-0.405 0.549,-0.468 0.705,-0.508 0.86,-0.549 1.024,-0.57 1.19,-0.57 c 0.119,0 0.243,0.021 0.373,0.044 0.134,0.029 0.253,0.073 0.361,0.134 0.109,0.057 0.199,0.138 0.271,0.238 0.071,0.096 0.104,0.225 0.104,0.374 0,0.259 -0.165,0.45 -0.506,0.578 C 1.452,0.921 0.981,1.054 0.375,1.18 0.132,1.232 -0.114,1.3 -0.347,1.379 -0.585,1.452 -0.792,1.551 -0.977,1.677 -1.16,1.8 -1.307,1.954 -1.418,2.143 c -0.113,0.185 -0.166,0.413 -0.166,0.685 0,0.4 0.075,0.727 0.232,0.984 0.153,0.256 0.358,0.455 0.615,0.607 0.256,0.143 0.541,0.245 0.861,0.306 0.321,0.062 0.647,0.091 0.981,0.091 0.334,0 0.66,-0.034 0.975,-0.097 C 2.396,4.657 2.677,4.547 2.926,4.398 3.17,4.246 3.377,4.044 3.539,3.793 3.703,3.542 3.798,3.226 3.834,2.844 H 2.217 C 2.195,3.168 2.069,3.393 1.846,3.506 1.624,3.621 1.36,3.678 1.058,3.678 0.96,3.678 0.86,3.673 0.745,3.66 0.637,3.649 0.532,3.621 0.443,3.587 0.348,3.542 0.271,3.482 0.209,3.411 0.144,3.336 0.11,3.233 0.11,3.105 0.11,2.951 0.168,2.828 0.281,2.731 0.39,2.64 0.537,2.559 0.718,2.501 0.896,2.443 1.103,2.388 1.333,2.339 1.563,2.292 1.799,2.242 2.038,2.182 2.286,2.129 2.527,2.061 2.761,1.98 2.997,1.902 3.206,1.795 3.389,1.664 3.573,1.53 3.722,1.368 3.834,1.175 3.943,0.976 3.999,0.738 3.999,0.45 3.999,0.044 3.915,-0.298 3.758,-0.573 3.59,-0.85 3.378,-1.07 3.115,-1.235 2.853,-1.405 2.551,-1.52 2.211,-1.591 1.873,-1.659 1.526,-1.693 1.177,-1.693 c -0.359,0 -0.709,0.034 -1.053,0.11 -0.342,0.071 -0.647,0.189 -0.916,0.356 -0.264,0.167 -0.485,0.392 -0.658,0.665 -0.17,0.277 -0.266,0.622 -0.281,1.035 h 1.617 C -0.114,0.29 -0.077,0.131 0,0"
       style="fill:#000000 icc-color(sRGB-IEC61966-2, 0.1, 0, 0, 0);fill-opacity:1;fill-rule:nonzero;stroke:none"
       transform="matrix(0.35277776,0,0,-0.35277776,119.38131,154.58691)"
       clip-path="url(#clipPath155)" />
    <path
       id="path156"
       d="M 89.010065,147.29602 H 84.81836 v -4.19276 h -3.645253 v 4.19276 h -4.192764 v 3.64525 h 4.192764 v 4.19206 h 3.645253 v -4.19206 h 4.191705"
       style="fill:#e30613 icc-color(sRGB-IEC61966-2, 0.1, 0.89099121, 0.02198792, 0.07598877);fill-opacity:1;fill-rule:nonzero;stroke:none;stroke-width:0.352778" />
    <path
       id="path157"
       d="m 0,0 c -0.115,0.183 -0.256,0.345 -0.426,0.484 -0.172,0.136 -0.36,0.248 -0.58,0.322 -0.214,0.076 -0.435,0.112 -0.67,0.112 -0.43,0 -0.796,-0.081 -1.098,-0.246 C -3.071,0.505 -3.319,0.283 -3.505,0 c -0.184,-0.275 -0.323,-0.591 -0.407,-0.952 -0.085,-0.356 -0.129,-0.725 -0.129,-1.109 0,-0.362 0.044,-0.717 0.129,-1.06 0.084,-0.345 0.223,-0.659 0.407,-0.934 0.186,-0.272 0.434,-0.494 0.731,-0.662 0.302,-0.167 0.668,-0.248 1.098,-0.248 0.58,0 1.037,0.175 1.36,0.533 0.328,0.359 0.533,0.83 0.605,1.416 H 2.142 C 2.095,-3.563 1.967,-4.055 1.763,-4.489 1.558,-4.929 1.29,-5.3 0.96,-5.614 0.632,-5.915 0.238,-6.15 -0.21,-6.31 c -0.446,-0.167 -0.929,-0.249 -1.466,-0.249 -0.668,0 -1.266,0.116 -1.8,0.348 -0.529,0.231 -0.973,0.547 -1.342,0.953 -0.366,0.408 -0.643,0.884 -0.837,1.428 -0.193,0.549 -0.293,1.138 -0.293,1.769 0,0.651 0.1,1.255 0.293,1.807 0.194,0.555 0.471,1.041 0.837,1.455 0.369,0.41 0.813,0.737 1.342,0.976 0.534,0.232 1.132,0.35 1.8,0.35 0.473,0 0.928,-0.071 1.352,-0.207 C 0.102,2.182 0.483,1.98 0.818,1.716 1.158,1.455 1.435,1.128 1.651,0.738 1.871,0.351 2.01,-0.097 2.069,-0.599 H 0.217 C 0.183,-0.379 0.113,-0.181 0,0"
       style="fill:#000000 icc-color(sRGB-IEC61966-2, 0.1, 0, 0, 0);fill-opacity:1;fill-rule:nonzero;stroke:none"
       transform="matrix(0.35277776,0,0,-0.35277776,95.198916,148.11831)"
       clip-path="url(#clipPath158)" />
    <path
       id="path159"
       d="m 0,0 v -1.169 h 0.026 c 0.078,0.196 0.189,0.376 0.328,0.541 0.133,0.168 0.293,0.309 0.472,0.429 0.177,0.113 0.375,0.207 0.573,0.272 0.201,0.066 0.409,0.1 0.63,0.1 0.117,0 0.239,-0.021 0.381,-0.066 v -1.603 c -0.083,0.018 -0.181,0.031 -0.291,0.041 -0.116,0.014 -0.227,0.024 -0.331,0.024 -0.32,0 -0.587,-0.058 -0.803,-0.16 C 0.764,-1.698 0.592,-1.842 0.454,-2.027 0.321,-2.208 0.226,-2.422 0.166,-2.663 0.116,-2.909 0.087,-3.171 0.087,-3.456 V -6.289 H -1.646 V 0"
       style="fill:#000000 icc-color(sRGB-IEC61966-2, 0.1, 0, 0, 0);fill-opacity:1;fill-rule:nonzero;stroke:none"
       transform="matrix(0.35277776,0,0,-0.35277776,96.902303,148.14508)"
       clip-path="url(#clipPath160)" />
    <path
       id="path161"
       d="m 0,0 c 0.049,-0.241 0.13,-0.455 0.249,-0.649 0.117,-0.191 0.273,-0.34 0.468,-0.452 0.193,-0.113 0.437,-0.17 0.733,-0.17 0.287,0 0.531,0.057 0.739,0.17 0.189,0.112 0.353,0.261 0.472,0.452 C 2.775,-0.455 2.857,-0.241 2.906,0 2.957,0.236 2.98,0.484 2.98,0.733 2.98,0.986 2.957,1.235 2.906,1.476 2.857,1.719 2.775,1.936 2.661,2.122 2.542,2.307 2.378,2.459 2.189,2.579 1.981,2.695 1.737,2.757 1.45,2.757 1.154,2.757 0.91,2.695 0.717,2.579 0.522,2.459 0.366,2.307 0.249,2.122 0.13,1.936 0.049,1.719 0,1.476 -0.049,1.235 -0.077,0.986 -0.077,0.733 -0.077,0.484 -0.049,0.236 0,0 m -1.571,2.106 c 0.158,0.405 0.378,0.759 0.657,1.044 0.287,0.288 0.629,0.51 1.024,0.667 0.397,0.16 0.839,0.241 1.34,0.241 0.493,0 0.936,-0.081 1.339,-0.241 C 3.196,3.66 3.534,3.438 3.817,3.15 4.107,2.865 4.319,2.511 4.475,2.106 4.634,1.695 4.707,1.237 4.707,0.733 4.707,0.23 4.634,-0.225 4.475,-0.628 4.319,-1.036 4.107,-1.379 3.817,-1.666 3.534,-1.954 3.196,-2.177 2.789,-2.328 2.386,-2.485 1.943,-2.564 1.45,-2.564 c -0.501,0 -0.943,0.079 -1.34,0.236 -0.395,0.151 -0.737,0.374 -1.024,0.662 -0.279,0.287 -0.499,0.63 -0.657,1.038 -0.152,0.403 -0.228,0.858 -0.228,1.361 0,0.504 0.076,0.962 0.228,1.373"
       style="fill:#000000 icc-color(sRGB-IEC61966-2, 0.1, 0, 0, 0);fill-opacity:1;fill-rule:nonzero;stroke:none"
       transform="matrix(0.35277776,0,0,-0.35277776,98.553091,149.51559)"
       clip-path="url(#clipPath162)" />
    <path
       id="path163"
       d="m 101.20728,150.36375 h -0.6096 v -2.21862 h 0.6096 z m -0.60995,-3.06387 h 0.6096 v 0.50094 h -0.6096 z"
       style="fill:#000000 icc-color(sRGB-IEC61966-2, 0.1, 0, 0, 0);fill-opacity:1;fill-rule:nonzero;stroke:none;stroke-width:0.352778" />
    <path
       id="path164"
       d="m 0,0 c 0.081,-0.136 0.176,-0.238 0.297,-0.33 0.124,-0.083 0.261,-0.149 0.419,-0.185 0.161,-0.04 0.323,-0.066 0.495,-0.066 0.126,0 0.249,0.019 0.387,0.045 0.13,0.031 0.254,0.073 0.358,0.136 0.114,0.057 0.202,0.138 0.277,0.24 0.073,0.103 0.108,0.228 0.108,0.385 0,0.256 -0.171,0.453 -0.513,0.583 -0.348,0.131 -0.825,0.259 -1.443,0.39 -0.257,0.058 -0.498,0.123 -0.738,0.199 -0.235,0.079 -0.452,0.181 -0.635,0.306 -0.189,0.123 -0.334,0.283 -0.451,0.476 -0.115,0.189 -0.17,0.421 -0.17,0.699 0,0.4 0.078,0.737 0.238,0.996 0.155,0.254 0.364,0.464 0.625,0.613 0.257,0.149 0.552,0.256 0.872,0.314 0.325,0.062 0.655,0.094 1.002,0.094 0.339,0 0.667,-0.032 0.991,-0.094 C 2.435,4.73 2.727,4.62 2.974,4.471 3.225,4.314 3.436,4.11 3.6,3.854 3.766,3.6 3.864,3.278 3.898,2.888 H 2.256 C 2.233,3.22 2.107,3.445 1.882,3.566 1.653,3.681 1.382,3.738 1.079,3.738 0.983,3.738 0.877,3.736 0.762,3.72 0.649,3.71 0.545,3.681 0.451,3.644 0.36,3.6 0.279,3.545 0.213,3.466 0.144,3.388 0.115,3.281 0.115,3.158 0.115,3.001 0.173,2.878 0.285,2.778 0.404,2.679 0.553,2.603 0.726,2.543 0.913,2.48 1.124,2.425 1.358,2.378 1.592,2.328 1.834,2.276 2.074,2.219 2.325,2.161 2.571,2.093 2.808,2.012 3.048,1.931 3.259,1.826 3.448,1.69 3.634,1.554 3.787,1.389 3.898,1.19 4.013,0.992 4.068,0.746 4.068,0.455 4.068,0.047 3.984,-0.306 3.819,-0.583 3.656,-0.869 3.438,-1.088 3.17,-1.258 2.905,-1.431 2.597,-1.551 2.248,-1.617 1.911,-1.687 1.557,-1.724 1.198,-1.724 c -0.362,0 -0.722,0.042 -1.072,0.113 -0.348,0.073 -0.658,0.196 -0.931,0.363 -0.268,0.17 -0.49,0.398 -0.667,0.678 -0.176,0.277 -0.272,0.628 -0.284,1.049 h 1.641 C -0.115,0.296 -0.081,0.133 0,0"
       style="fill:#000000 icc-color(sRGB-IEC61966-2, 0.1, 0, 0, 0);fill-opacity:1;fill-rule:nonzero;stroke:none"
       transform="matrix(0.35277776,0,0,-0.35277776,102.19196,149.81185)"
       clip-path="url(#clipPath165)" />
    <path
       id="path166"
       d="m 0,0 c 0.27,0 0.54,0.042 0.8,0.128 0.26,0.089 0.492,0.238 0.694,0.44 0.2,0.209 0.369,0.481 0.483,0.813 0.12,0.333 0.186,0.738 0.186,1.214 0,0.44 -0.047,0.837 -0.129,1.188 C 1.948,4.136 1.812,4.437 1.614,4.691 1.415,4.939 1.162,5.133 0.843,5.269 0.519,5.402 0.13,5.468 -0.346,5.468 H -1.704 V 0 M 0.132,7.074 C 0.69,7.074 1.211,6.985 1.694,6.807 2.176,6.632 2.593,6.36 2.948,6.001 3.304,5.646 3.575,5.203 3.773,4.662 3.97,4.128 4.075,3.5 4.075,2.778 4.075,2.148 3.992,1.564 3.828,1.028 3.666,0.494 3.423,0.031 3.095,-0.356 2.761,-0.748 2.358,-1.052 1.867,-1.277 1.373,-1.502 0.794,-1.612 0.132,-1.612 h -3.748 v 8.686 z"
       style="fill:#000000 icc-color(sRGB-IEC61966-2, 0.1, 0, 0, 0);fill-opacity:1;fill-rule:nonzero;stroke:none"
       transform="matrix(0.35277776,0,0,-0.35277776,106.07866,149.79524)"
       clip-path="url(#clipPath167)" />
    <path
       id="path168"
       d="m 0,0 v -3.273 h 0.032 c 0.222,0.369 0.503,0.631 0.841,0.796 0.343,0.17 0.675,0.253 0.997,0.253 0.464,0 0.841,-0.065 1.136,-0.191 0.296,-0.128 0.535,-0.3 0.702,-0.523 C 3.879,-3.16 3.999,-3.432 4.069,-3.751 4.139,-4.073 4.17,-4.426 4.17,-4.819 V -8.685 H 2.442 v 3.552 c 0,0.516 -0.078,0.905 -0.245,1.162 -0.159,0.259 -0.445,0.384 -0.863,0.384 -0.465,0 -0.81,-0.141 -1.016,-0.418 C 0.104,-4.285 0,-4.746 0,-5.392 V -8.685 H -1.728 V 0"
       style="fill:#000000 icc-color(sRGB-IEC61966-2, 0.1, 0, 0, 0);fill-opacity:1;fill-rule:nonzero;stroke:none"
       transform="matrix(0.35277776,0,0,-0.35277776,108.52397,147.29969)"
       clip-path="url(#clipPath169)" />
    <path
       id="path170"
       d="m 0,0 c -0.202,0.228 -0.517,0.343 -0.94,0.343 -0.275,0 -0.503,-0.05 -0.688,-0.142 -0.179,-0.091 -0.324,-0.206 -0.43,-0.345 -0.113,-0.138 -0.193,-0.288 -0.234,-0.437 -0.045,-0.154 -0.067,-0.293 -0.079,-0.416 H 0.437 C 0.353,-0.557 0.211,-0.225 0,0 m -1.946,-3.309 c 0.256,-0.251 0.629,-0.374 1.116,-0.374 0.35,0 0.649,0.089 0.9,0.259 0.254,0.172 0.407,0.358 0.467,0.554 H 2.055 C 1.811,-3.623 1.438,-4.165 0.933,-4.487 0.434,-4.808 -0.176,-4.976 -0.893,-4.976 c -0.491,0 -0.941,0.081 -1.332,0.238 -0.401,0.16 -0.736,0.387 -1.015,0.673 -0.274,0.298 -0.486,0.641 -0.632,1.049 -0.151,0.403 -0.23,0.852 -0.23,1.336 0,0.474 0.079,0.908 0.232,1.316 0.157,0.406 0.372,0.756 0.658,1.052 0.281,0.296 0.625,0.531 1.015,0.699 0.392,0.172 0.829,0.259 1.304,0.259 0.538,0 1.002,-0.105 1.402,-0.312 C 0.908,1.125 1.235,0.848 1.487,0.5 1.744,0.152 1.927,-0.248 2.042,-0.693 2.151,-1.135 2.191,-1.606 2.159,-2.09 h -4.53 c 0.019,-0.56 0.166,-0.966 0.425,-1.219"
       style="fill:#000000 icc-color(sRGB-IEC61966-2, 0.1, 0, 0, 0);fill-opacity:1;fill-rule:nonzero;stroke:none"
       transform="matrix(0.35277776,0,0,-0.35277776,111.78872,148.66466)"
       clip-path="url(#clipPath171)" />
    <path
       id="path172"
       d="m 0,0 c -0.106,-0.034 -0.225,-0.065 -0.353,-0.092 -0.125,-0.023 -0.258,-0.041 -0.392,-0.06 -0.138,-0.013 -0.277,-0.034 -0.415,-0.063 -0.123,-0.02 -0.255,-0.054 -0.383,-0.096 -0.124,-0.037 -0.234,-0.095 -0.328,-0.165 -0.089,-0.066 -0.164,-0.154 -0.223,-0.259 -0.06,-0.105 -0.082,-0.238 -0.082,-0.4 0,-0.157 0.022,-0.288 0.082,-0.39 0.059,-0.102 0.134,-0.189 0.229,-0.249 0.096,-0.062 0.212,-0.104 0.343,-0.125 0.128,-0.026 0.267,-0.042 0.396,-0.042 0.343,0 0.605,0.06 0.795,0.173 0.189,0.115 0.321,0.248 0.409,0.405 0.089,0.165 0.15,0.322 0.171,0.481 0.016,0.16 0.028,0.293 0.028,0.39 V 0.154 C 0.201,0.086 0.111,0.037 0,0 m -3.406,2.438 c 0.175,0.272 0.403,0.484 0.674,0.646 0.273,0.165 0.589,0.278 0.933,0.348 0.345,0.071 0.692,0.102 1.044,0.102 0.313,0 0.632,-0.021 0.956,-0.065 C 0.524,3.422 0.827,3.336 1.09,3.205 1.359,3.074 1.578,2.899 1.744,2.663 1.921,2.436 2.004,2.129 2.004,1.75 V -1.525 C 2.004,-1.81 2.02,-2.08 2.049,-2.339 2.089,-2.6 2.138,-2.791 2.223,-2.925 H 0.473 C 0.437,-2.825 0.411,-2.726 0.39,-2.627 0.375,-2.527 0.359,-2.42 0.35,-2.313 0.072,-2.6 -0.251,-2.797 -0.627,-2.909 -1,-3.024 -1.379,-3.084 -1.769,-3.084 c -0.298,0 -0.58,0.042 -0.839,0.112 -0.256,0.073 -0.484,0.186 -0.678,0.343 -0.199,0.154 -0.35,0.345 -0.46,0.581 -0.105,0.235 -0.163,0.515 -0.163,0.839 0,0.354 0.067,0.649 0.188,0.879 0.124,0.233 0.289,0.416 0.49,0.558 0.196,0.138 0.424,0.238 0.679,0.308 0.255,0.071 0.517,0.126 0.775,0.165 0.257,0.042 0.511,0.071 0.766,0.099 0.252,0.024 0.471,0.061 0.669,0.108 C -0.148,0.957 0,1.028 0.117,1.12 0.235,1.214 0.284,1.347 0.277,1.528 0.277,1.714 0.249,1.863 0.188,1.97 0.129,2.082 0.041,2.169 -0.059,2.224 -0.161,2.286 -0.276,2.328 -0.412,2.349 -0.545,2.37 -0.687,2.378 -0.844,2.378 -1.181,2.378 -1.449,2.31 -1.645,2.161 -1.841,2.012 -1.954,1.774 -1.986,1.428 h -1.729 c 0.026,0.408 0.128,0.746 0.309,1.01"
       style="fill:#000000 icc-color(sRGB-IEC61966-2, 0.1, 0, 0, 0);fill-opacity:1;fill-rule:nonzero;stroke:none"
       transform="matrix(0.35277776,0,0,-0.35277776,114.16803,149.33194)"
       clip-path="url(#clipPath173)" />
    <path
       id="path174"
       d="m 0,0 v -1.169 h 0.026 c 0.084,0.196 0.198,0.376 0.336,0.541 0.13,0.168 0.292,0.309 0.468,0.429 0.179,0.113 0.369,0.207 0.573,0.272 0.203,0.066 0.413,0.1 0.63,0.1 0.113,0 0.241,-0.021 0.377,-0.066 v -1.603 c -0.085,0.018 -0.181,0.031 -0.291,0.041 -0.114,0.014 -0.226,0.024 -0.324,0.024 -0.317,0 -0.592,-0.058 -0.81,-0.16 C 0.767,-1.698 0.59,-1.842 0.46,-2.027 0.321,-2.208 0.23,-2.422 0.177,-2.663 0.116,-2.909 0.09,-3.171 0.09,-3.456 V -6.289 H -1.635 V 0"
       style="fill:#000000 icc-color(sRGB-IEC61966-2, 0.1, 0, 0, 0);fill-opacity:1;fill-rule:nonzero;stroke:none"
       transform="matrix(0.35277776,0,0,-0.35277776,115.92045,148.14508)"
       clip-path="url(#clipPath175)" />
    <path
       id="path176"
       d="m 0,0 c 0.188,0.097 0.341,0.225 0.467,0.387 0.12,0.16 0.211,0.345 0.27,0.552 0.064,0.209 0.09,0.424 0.09,0.652 0,0.259 -0.024,0.504 -0.069,0.737 C 0.707,2.561 0.627,2.765 0.516,2.943 0.403,3.121 0.253,3.26 0.066,3.37 -0.122,3.472 -0.358,3.529 -0.645,3.529 -0.887,3.529 -1.095,3.477 -1.266,3.377 -1.445,3.281 -1.59,3.15 -1.706,2.985 -1.826,2.818 -1.909,2.629 -1.96,2.412 -2.011,2.198 -2.039,1.973 -2.039,1.74 c 0,-0.231 0.017,-0.456 0.068,-0.678 0.041,-0.22 0.119,-0.426 0.226,-0.604 0.11,-0.173 0.257,-0.322 0.436,-0.435 0.173,-0.115 0.401,-0.172 0.664,-0.172 0.246,0 0.462,0.05 0.645,0.149 M 2.368,-2.093 C 2.297,-2.417 2.155,-2.723 1.921,-2.998 1.698,-3.281 1.37,-3.519 0.937,-3.712 c -0.43,-0.196 -1.005,-0.291 -1.722,-0.291 -0.312,0 -0.626,0.034 -0.947,0.113 -0.32,0.076 -0.613,0.199 -0.874,0.361 -0.263,0.167 -0.48,0.371 -0.657,0.625 -0.177,0.259 -0.273,0.563 -0.296,0.918 h 1.712 c 0.087,-0.319 0.238,-0.546 0.475,-0.675 0.23,-0.123 0.508,-0.188 0.81,-0.188 0.494,0 0.844,0.147 1.069,0.437 0.224,0.298 0.326,0.667 0.32,1.109 v 0.827 H 0.803 C 0.618,-0.811 0.357,-1.054 0.007,-1.211 c -0.345,-0.16 -0.705,-0.238 -1.088,-0.238 -0.47,0 -0.871,0.086 -1.217,0.248 -0.337,0.168 -0.621,0.393 -0.835,0.683 -0.22,0.29 -0.379,0.623 -0.481,1.01 -0.105,0.382 -0.156,0.79 -0.156,1.224 0,0.403 0.065,0.795 0.179,1.172 0.114,0.374 0.285,0.709 0.519,1 0.224,0.285 0.503,0.515 0.841,0.682 0.342,0.173 0.729,0.259 1.162,0.259 0.409,0 0.778,-0.081 1.089,-0.235 C 0.328,4.442 0.59,4.183 0.803,3.817 h 0.024 v 0.84 h 1.641 v -5.886 c 0,-0.252 -0.028,-0.539 -0.1,-0.864"
       style="fill:#000000 icc-color(sRGB-IEC61966-2, 0.1, 0, 0, 0);fill-opacity:1;fill-rule:nonzero;stroke:none"
       transform="matrix(0.35277776,0,0,-0.35277776,118.27782,149.78783)"
       clip-path="url(#clipPath177)" />
    <path
       id="path178"
       d="m 0,0 v -0.997 h 0.028 c 0.428,0.759 1.11,1.144 2.04,1.144 0.412,0 0.756,-0.061 1.039,-0.173 0.271,-0.113 0.498,-0.27 0.664,-0.471 0.169,-0.204 0.289,-0.445 0.36,-0.725 0.07,-0.28 0.108,-0.588 0.108,-0.931 V -6.289 H 3.2 v 4.259 c 0,0.387 -0.115,0.696 -0.343,0.921 -0.225,0.23 -0.534,0.345 -0.932,0.345 -0.313,0 -0.597,-0.052 -0.819,-0.146 C 0.869,-1.01 0.675,-1.146 0.524,-1.326 0.373,-1.502 0.254,-1.714 0.179,-1.952 0.1,-2.19 0.066,-2.451 0.066,-2.736 V -6.289 H -0.975 V 0"
       style="fill:#000000 icc-color(sRGB-IEC61966-2, 0.1, 0, 0, 0);fill-opacity:1;fill-rule:nonzero;stroke:none"
       transform="matrix(0.35277776,0,0,-0.35277776,120.67371,148.14508)"
       clip-path="url(#clipPath179)" />
    <path
       id="path180"
       d="m 0,0 c -0.208,-0.042 -0.428,-0.078 -0.66,-0.11 -0.232,-0.026 -0.464,-0.057 -0.694,-0.097 -0.241,-0.036 -0.454,-0.091 -0.639,-0.175 -0.184,-0.084 -0.342,-0.199 -0.457,-0.345 -0.112,-0.152 -0.175,-0.356 -0.175,-0.612 0,-0.173 0.04,-0.32 0.104,-0.435 0.071,-0.123 0.16,-0.212 0.271,-0.285 0.104,-0.076 0.236,-0.128 0.385,-0.159 0.151,-0.034 0.299,-0.048 0.46,-0.048 0.34,0 0.627,0.045 0.873,0.139 0.241,0.094 0.44,0.209 0.593,0.353 0.156,0.144 0.269,0.291 0.344,0.466 0.069,0.16 0.108,0.316 0.108,0.463 v 1.06 C 0.387,0.118 0.214,0.044 0,0 m 1.45,-3.168 c -0.271,0 -0.477,0.076 -0.635,0.228 -0.166,0.146 -0.243,0.392 -0.243,0.729 -0.281,-0.337 -0.613,-0.583 -0.99,-0.729 -0.374,-0.152 -0.781,-0.228 -1.221,-0.228 -0.279,0 -0.55,0.031 -0.805,0.092 -0.252,0.062 -0.468,0.162 -0.667,0.303 -0.183,0.146 -0.336,0.327 -0.445,0.549 -0.109,0.225 -0.166,0.492 -0.166,0.803 0,0.361 0.067,0.652 0.189,0.879 0.116,0.228 0.284,0.411 0.477,0.555 0.193,0.139 0.427,0.249 0.684,0.324 0.25,0.069 0.511,0.131 0.782,0.181 0.285,0.058 0.555,0.097 0.806,0.128 0.258,0.029 0.482,0.068 0.674,0.126 0.197,0.047 0.354,0.125 0.472,0.227 0.104,0.102 0.164,0.246 0.164,0.445 0,0.228 -0.046,0.406 -0.135,0.547 -0.076,0.139 -0.189,0.243 -0.32,0.314 -0.133,0.073 -0.279,0.123 -0.45,0.144 -0.171,0.028 -0.33,0.042 -0.494,0.042 -0.439,0 -0.805,-0.084 -1.094,-0.252 -0.292,-0.164 -0.45,-0.481 -0.477,-0.944 h -1.03 c 0.014,0.392 0.097,0.719 0.24,0.986 0.147,0.267 0.349,0.484 0.585,0.654 0.241,0.162 0.523,0.283 0.839,0.356 0.313,0.071 0.645,0.11 0.996,0.11 0.284,0 0.567,-0.021 0.844,-0.06 C 0.315,3.299 0.568,3.215 0.79,3.092 1.026,2.961 1.205,2.789 1.341,2.561 1.482,2.336 1.551,2.041 1.551,1.672 v -3.231 c 0,-0.246 0.009,-0.424 0.037,-0.542 0.034,-0.112 0.128,-0.165 0.291,-0.165 0.083,0 0.19,0.019 0.316,0.055 V -3.008 C 2.011,-3.116 1.761,-3.168 1.45,-3.168"
       style="fill:#000000 icc-color(sRGB-IEC61966-2, 0.1, 0, 0, 0);fill-opacity:1;fill-rule:nonzero;stroke:none"
       transform="matrix(0.35277776,0,0,-0.35277776,123.85919,149.29316)"
       clip-path="url(#clipPath181)" />
    <path
       id="path182"
       d="m 0,0 v -3.322 h 0.023 c 0.086,0.196 0.204,0.358 0.35,0.494 0.143,0.133 0.311,0.243 0.491,0.327 0.181,0.086 0.376,0.149 0.572,0.191 0.198,0.039 0.389,0.06 0.576,0.06 0.418,0 0.758,-0.057 1.037,-0.172 0.275,-0.113 0.494,-0.27 0.665,-0.471 0.171,-0.204 0.293,-0.445 0.361,-0.725 0.064,-0.28 0.104,-0.589 0.104,-0.931 V -8.685 H 3.145 v 4.259 c 0,0.387 -0.113,0.695 -0.341,0.92 C 2.581,-3.275 2.261,-3.16 1.868,-3.16 1.546,-3.16 1.275,-3.213 1.045,-3.307 0.814,-3.406 0.622,-3.542 0.469,-3.723 0.314,-3.898 0.201,-4.11 0.12,-4.348 0.043,-4.586 0,-4.848 0,-5.133 V -8.685 H -1.032 V 0"
       style="fill:#000000 icc-color(sRGB-IEC61966-2, 0.1, 0, 0, 0);fill-opacity:1;fill-rule:nonzero;stroke:none"
       transform="matrix(0.35277776,0,0,-0.35277776,125.97539,147.29969)"
       clip-path="url(#clipPath183)" />
    <path
       id="path184"
       d="m 129.55524,146.46816 -0.56268,0.61277 h -0.2734 l 0.36794,-0.61277 z m 0.56233,0.8315 v 0.34325 h -1.70709 v 0.97367 h 1.59314 v 0.34431 h -1.59314 v 1.05868 h 1.72014 v 0.34431 h -2.13042 v -3.06422 z"
       style="fill:#000000 icc-color(sRGB-IEC61966-2, 0.1, 0, 0, 0);fill-opacity:1;fill-rule:nonzero;stroke:none;stroke-width:0.352778" />
    <path
       id="path185"
       d="m 130.86814,150.36375 h -0.36584 v -2.21862 h 0.36584 z m -0.36584,-3.06387 h 0.36548 v 0.44626 h -0.36548 z"
       style="fill:#000000 icc-color(sRGB-IEC61966-2, 0.1, 0, 0, 0);fill-opacity:1;fill-rule:nonzero;stroke:none;stroke-width:0.352778" />
    <path
       id="path186"
       d="m 0,0 v -1.326 h 0.023 c 0.256,0.51 0.559,0.889 0.923,1.132 0.365,0.244 0.827,0.354 1.385,0.34 V -0.95 C 1.916,-0.95 1.564,-1.007 1.275,-1.117 0.983,-1.232 0.749,-1.4 0.572,-1.617 0.391,-1.839 0.262,-2.101 0.183,-2.412 0.101,-2.723 0.061,-3.087 0.061,-3.493 V -6.289 H -0.978 V 0"
       style="fill:#000000 icc-color(sRGB-IEC61966-2, 0.1, 0, 0, 0);fill-opacity:1;fill-rule:nonzero;stroke:none"
       transform="matrix(0.35277776,0,0,-0.35277776,131.71611,148.14505)"
       clip-path="url(#clipPath187)" />
    <path
       id="path188"
       d="m 0,0 c -0.1,0.217 -0.222,0.405 -0.387,0.565 -0.156,0.157 -0.344,0.285 -0.554,0.377 -0.22,0.091 -0.458,0.141 -0.713,0.141 -0.269,0 -0.507,-0.05 -0.72,-0.141 C -2.592,0.85 -2.779,0.722 -2.93,0.56 -3.081,0.395 -3.207,0.207 -3.298,-0.008 -3.38,-0.222 -3.437,-0.453 -3.453,-0.693 h 3.61 C 0.142,-0.453 0.089,-0.222 0,0 m 0.242,-4.039 c -0.466,-0.359 -1.057,-0.537 -1.773,-0.537 -0.496,0 -0.943,0.084 -1.305,0.244 -0.371,0.165 -0.685,0.392 -0.939,0.68 -0.251,0.293 -0.434,0.641 -0.562,1.046 -0.122,0.406 -0.196,0.848 -0.208,1.324 0,0.481 0.072,0.921 0.216,1.319 0.143,0.395 0.35,0.743 0.613,1.033 0.263,0.29 0.571,0.521 0.937,0.68 0.362,0.162 0.757,0.243 1.189,0.243 0.559,0 1.02,-0.117 1.388,-0.345 C 0.172,1.415 0.466,1.122 0.687,0.766 0.909,0.405 1.067,0.021 1.152,-0.403 1.235,-0.824 1.269,-1.227 1.254,-1.609 h -4.707 c -0.009,-0.275 0.023,-0.536 0.099,-0.785 0.075,-0.246 0.188,-0.465 0.349,-0.654 0.167,-0.193 0.37,-0.342 0.621,-0.46 0.254,-0.113 0.549,-0.165 0.887,-0.165 0.438,0 0.794,0.099 1.077,0.306 0.277,0.204 0.467,0.508 0.558,0.921 H 1.16 C 1.016,-3.152 0.713,-3.681 0.242,-4.039"
       style="fill:#000000 icc-color(sRGB-IEC61966-2, 0.1, 0, 0, 0);fill-opacity:1;fill-rule:nonzero;stroke:none"
       transform="matrix(0.35277776,0,0,-0.35277776,134.24179,148.79663)"
       clip-path="url(#clipPath189)" />
    <path
       id="path190"
       d="m 0,0 c -0.212,-0.042 -0.435,-0.078 -0.664,-0.11 -0.232,-0.026 -0.464,-0.057 -0.699,-0.097 -0.242,-0.036 -0.443,-0.091 -0.632,-0.175 -0.186,-0.084 -0.341,-0.199 -0.463,-0.345 -0.116,-0.152 -0.171,-0.356 -0.171,-0.612 0,-0.173 0.032,-0.32 0.104,-0.435 0.064,-0.123 0.155,-0.212 0.271,-0.285 0.108,-0.076 0.238,-0.128 0.385,-0.159 0.148,-0.034 0.301,-0.048 0.459,-0.048 0.339,0 0.63,0.045 0.876,0.139 0.238,0.094 0.44,0.209 0.589,0.353 0.156,0.144 0.27,0.291 0.341,0.466 0.078,0.16 0.115,0.316 0.115,0.463 v 1.06 C 0.38,0.118 0.206,0.044 0,0 m 1.448,-3.168 c -0.271,0 -0.481,0.076 -0.639,0.228 -0.158,0.146 -0.237,0.392 -0.237,0.729 -0.287,-0.337 -0.617,-0.583 -0.996,-0.729 -0.371,-0.152 -0.785,-0.228 -1.224,-0.228 -0.281,0 -0.545,0.031 -0.794,0.092 -0.26,0.062 -0.477,0.162 -0.666,0.303 -0.201,0.146 -0.341,0.327 -0.456,0.549 -0.102,0.225 -0.164,0.492 -0.164,0.803 0,0.361 0.068,0.652 0.183,0.879 0.126,0.228 0.289,0.411 0.485,0.555 0.199,0.139 0.421,0.249 0.677,0.324 0.261,0.069 0.524,0.131 0.792,0.181 0.279,0.058 0.554,0.097 0.807,0.128 0.254,0.029 0.478,0.068 0.669,0.126 C 0.081,0.819 0.24,0.897 0.352,0.999 0.47,1.101 0.519,1.245 0.519,1.444 0.519,1.672 0.478,1.85 0.387,1.991 0.311,2.13 0.196,2.234 0.067,2.305 -0.07,2.378 -0.218,2.428 -0.39,2.449 -0.552,2.477 -0.711,2.491 -0.875,2.491 -1.316,2.491 -1.68,2.407 -1.969,2.239 -2.263,2.075 -2.423,1.758 -2.442,1.295 h -1.044 c 0.024,0.392 0.103,0.719 0.25,0.986 0.142,0.267 0.336,0.484 0.579,0.654 0.244,0.162 0.525,0.283 0.843,0.356 0.319,0.071 0.651,0.11 1.001,0.11 0.283,0 0.566,-0.021 0.841,-0.06 C 0.311,3.299 0.56,3.215 0.783,3.092 1.019,2.961 1.198,2.789 1.333,2.561 1.471,2.336 1.545,2.041 1.545,1.672 v -3.231 c 0,-0.246 0.006,-0.424 0.045,-0.542 0.026,-0.112 0.117,-0.165 0.285,-0.165 0.083,0 0.189,0.019 0.309,0.055 V -3.008 C 2.009,-3.116 1.763,-3.168 1.448,-3.168"
       style="fill:#000000 icc-color(sRGB-IEC61966-2, 0.1, 0, 0, 0);fill-opacity:1;fill-rule:nonzero;stroke:none"
       transform="matrix(0.35277776,0,0,-0.35277776,136.2238,149.29316)"
       clip-path="url(#clipPath191)" />
    <path
       id="path192"
       d="m 0,0 v -0.997 h 0.025 c 0.431,0.759 1.115,1.144 2.044,1.144 0.413,0 0.758,-0.061 1.036,-0.173 0.276,-0.113 0.499,-0.27 0.67,-0.471 0.17,-0.204 0.283,-0.445 0.357,-0.725 0.07,-0.28 0.105,-0.588 0.105,-0.931 V -6.289 H 3.204 v 4.259 c 0,0.387 -0.118,0.696 -0.341,0.921 -0.223,0.23 -0.536,0.345 -0.937,0.345 -0.312,0 -0.587,-0.052 -0.823,-0.146 C 0.873,-1.01 0.68,-1.146 0.523,-1.326 0.375,-1.502 0.257,-1.714 0.181,-1.952 0.104,-2.19 0.064,-2.451 0.064,-2.736 V -6.289 H -0.971 V 0"
       style="fill:#000000 icc-color(sRGB-IEC61966-2, 0.1, 0, 0, 0);fill-opacity:1;fill-rule:nonzero;stroke:none"
       transform="matrix(0.35277776,0,0,-0.35277776,137.64934,148.14508)"
       clip-path="url(#clipPath193)" />
    <path
       id="path194"
       d="m 0,0 v -0.997 h 0.024 c 0.432,0.759 1.111,1.144 2.045,1.144 0.413,0 0.754,-0.061 1.035,-0.173 0.271,-0.113 0.496,-0.27 0.667,-0.471 0.168,-0.204 0.291,-0.445 0.362,-0.725 0.068,-0.28 0.106,-0.588 0.106,-0.931 V -6.289 H 3.198 v 4.259 c 0,0.387 -0.107,0.696 -0.341,0.921 -0.228,0.23 -0.538,0.345 -0.933,0.345 -0.316,0 -0.593,-0.052 -0.819,-0.146 C 0.867,-1.01 0.68,-1.146 0.522,-1.326 0.369,-1.502 0.253,-1.714 0.175,-1.952 0.098,-2.19 0.059,-2.451 0.059,-2.736 V -6.289 H -0.975 V 0"
       style="fill:#000000 icc-color(sRGB-IEC61966-2, 0.1, 0, 0, 0);fill-opacity:1;fill-rule:nonzero;stroke:none"
       transform="matrix(0.35277776,0,0,-0.35277776,139.98497,148.14508)"
       clip-path="url(#clipPath195)" />
  </g>
</svg>
