<?xml version="1.0" encoding="UTF-8" standalone="no"?>
<!-- Generator: Adobe Illustrator 16.0.0, SVG Export Plug-In . SVG Version: 6.00 Build 0)  -->

<svg
   version="1.1"
   id="Layer_1"
   x="0px"
   y="0px"
   width="418.00101"
   height="418"
   viewBox="0 0 418.00099 417.99999"
   enable-background="new 0 0 595.28 841.89"
   xml:space="preserve"
   sodipodi:docname="Latvia_RC_Logo.svg"
   inkscape:version="1.3.2 (091e20e, 2023-11-25, custom)"
   xmlns:inkscape="http://www.inkscape.org/namespaces/inkscape"
   xmlns:sodipodi="http://sodipodi.sourceforge.net/DTD/sodipodi-0.dtd"
   xmlns="http://www.w3.org/2000/svg"
   xmlns:svg="http://www.w3.org/2000/svg"><defs
   id="defs42" /><sodipodi:namedview
   id="namedview42"
   pagecolor="#ffffff"
   bordercolor="#666666"
   borderopacity="1.0"
   inkscape:showpageshadow="2"
   inkscape:pageopacity="0.0"
   inkscape:pagecheckerboard="0"
   inkscape:deskcolor="#d1d1d1"
   inkscape:zoom="0.97518677"
   inkscape:cx="279.43365"
   inkscape:cy="303.01888"
   inkscape:window-width="1920"
   inkscape:window-height="1017"
   inkscape:window-x="-8"
   inkscape:window-y="-8"
   inkscape:window-maximized="1"
   inkscape:current-layer="Layer_1" />
<g
   id="g42"
   transform="translate(-18.353,-117.853)">
	<g
   id="g41">
		<path
   fill-rule="evenodd"
   clip-rule="evenodd"
   fill="#fbfbfb"
   d="m 436.354,535.853 c -139.333,0 -278.668,0 -418.001,0 0,-139.333 0,-278.668 0,-418 139.333,0 278.665,0 418.001,0 0,139.332 0,278.668 0,418 z m -209.38,-4.381 C 337.406,532.162 430.915,443.716 432.237,329.457 433.57,214.226 341.633,121.417 226.441,122.019 110.99,122.62 23.23,215.825 22.685,325.746 22.119,440.079 114.877,531.771 226.974,531.472 Z"
   id="path1" />
		<path
   fill-rule="evenodd"
   clip-rule="evenodd"
   fill="#111111"
   d="M 226.974,531.472 C 114.878,531.771 22.119,440.078 22.685,325.747 23.23,215.826 110.99,122.621 226.441,122.02 341.633,121.418 433.57,214.226 432.237,329.458 430.915,443.716 337.405,532.163 226.974,531.472 Z M 428.486,327.256 C 428.354,216.595 339.842,126.286 228.123,125.852 116.207,125.417 26.118,215.984 26.536,327.762 c 0.41,111.41 92.238,203.077 206.935,199.899 106.028,-2.938 194.145,-89.357 195.015,-200.405 z"
   id="path2" />
		<path
   fill-rule="evenodd"
   clip-rule="evenodd"
   fill="#fbfbfb"
   d="M 428.486,327.256 C 427.616,438.304 339.499,524.723 233.47,527.661 118.773,530.839 26.946,439.172 26.535,327.762 26.117,215.984 116.206,125.418 228.122,125.852 c 111.721,0.434 200.232,90.743 200.364,201.404 z m -54.324,-20.979 0.1,0.043 c 1.505,-3.635 -0.241,-6.914 -0.799,-10.542 -3.993,0.48 -7.68,0.69 -11.266,1.417 -3.696,0.75 -6.176,2.987 -7.082,6.927 -0.973,4.246 -0.455,8.269 1.135,12.202 1.764,4.36 4.975,6.165 9.771,6.105 8.318,-0.095 14.887,-2.803 19.11,-10.394 3.015,-5.412 7.992,-8.054 14.056,-8.859 1.377,-0.181 2.855,-0.358 3.206,1.164 0.473,2.046 -1.297,2.155 -2.747,2.359 -3.45,0.487 -6.894,0.996 -10.391,1.505 -0.427,3.976 0.473,7.434 1.279,10.914 4.426,-0.605 8.54,-1.216 12.664,-1.726 4.174,-0.515 6.651,-2.895 7.61,-6.864 1.263,-5.215 0.485,-10.151 -2.351,-14.738 -1.247,-2.024 -3.104,-3.559 -5.371,-3.572 -9.28,-0.056 -18.331,0.503 -23.942,9.839 -1.015,1.687 -1.721,4.749 -4.982,4.22 z m -201.466,137.83 c -4.788,-2.287 -9.182,-4.383 -13.838,-6.604 -7.922,16.703 -15.682,33.058 -23.473,49.486 3.01,1.403 5.39,2.514 7.867,3.671 5.045,-10.53 9.932,-20.73 14.818,-30.93 0.378,0.154 0.756,0.313 1.133,0.467 -3.026,11.18 -6.053,22.358 -9.142,33.768 4.029,1.88 7.828,3.654 11.873,5.544 7.9,-16.677 15.59,-32.914 23.411,-49.431 -2.836,-1.324 -5.212,-2.428 -7.828,-3.647 -3.848,7.897 -7.579,15.554 -11.311,23.208 -0.331,-0.178 -0.664,-0.355 -0.996,-0.536 2.446,-8.161 4.887,-16.32 7.486,-24.996 z m 184.488,13.194 c -6.185,-5.761 -12.295,-11.445 -18.441,-17.17 2.532,-2.064 3.98,-0.342 5.307,0.881 2.472,2.274 4.755,4.749 7.138,7.124 7.929,7.92 8.241,7.909 15.714,-0.437 0.207,-0.23 0.29,-0.569 0.484,-0.967 -2.332,-1.85 -5.131,-3.079 -7.168,-5.406 -2.106,-2.402 -4.525,-4.534 -6.767,-6.828 -3.068,-3.138 -6.274,-5.938 -11.152,-4.732 0.078,-6.509 -4.327,-12.849 -10.495,-15.491 -5.629,-2.412 -9.571,0.888 -13.241,4.252 -2.966,2.721 -6.983,4.542 -8.145,8.581 12.735,12.841 25.439,25.647 38.384,38.7 2.449,-2.487 4.888,-4.961 8.382,-8.507 z M 65.296,414.73 c 4.942,-4.936 11.52,-6.744 17.551,-9.56 3.618,-1.689 6.634,-3.647 7.173,-8.081 7.164,3.259 12.609,-0.171 17.817,-3.983 2.843,-2.08 3.636,-5.432 2.87,-8.659 -1.393,-5.873 -4.095,-11.259 -6.967,-16.72 -16.799,7.502 -33.207,14.833 -49.795,22.243 1.587,3.553 2.987,6.685 4.482,10.026 7.956,-3.483 15.554,-6.809 23.161,-10.141 1.009,2.585 -0.223,3.605 -2.01,4.41 -3.05,1.373 -6.05,2.852 -9.097,4.229 -12.708,5.746 -10.716,4.99 -5.185,16.236 z m 265.543,-9.028 c 13.496,8.314 26.479,16.507 39.673,24.347 5.204,3.092 10.45,0.582 14.561,-6.168 3.961,-6.507 3.513,-12.435 -1.612,-15.741 -8.474,-5.458 -17.128,-10.624 -25.702,-15.924 -4.416,-2.731 -8.824,-5.479 -13.275,-8.242 -2.28,3.236 -4.318,5.869 -5.53,8.869 0.675,1.489 1.929,1.925 3,2.589 10.604,6.56 21.229,13.083 31.775,19.727 1.649,1.039 4.346,1.614 3.393,6.001 -13.819,-8.489 -27.113,-16.658 -40.505,-24.889 -1.947,3.181 -3.698,6.037 -5.778,9.431 z m 5.448,70.274 c -6.834,-7.216 -13.221,-13.949 -19.598,-20.689 -6.725,-7.102 -5.391,-17.334 -9.777,-25.468 -1.19,0.717 -2.219,1.538 -3.385,1.995 -4.824,1.896 -5.83,4.616 -3.529,9.565 1.689,3.621 3.604,7.555 3.303,12.333 -3.356,-5.369 -6.451,-10.324 -9.77,-15.638 -3.301,2.06 -6.316,3.938 -9.388,5.858 9.848,15.826 19.395,31.172 29.209,46.949 2.866,-3.24 6.542,-3.789 8.755,-6.74 -3.474,-5.774 -6.931,-11.517 -10.388,-17.265 0.268,-0.188 0.542,-0.375 0.811,-0.563 4.766,5.087 9.528,10.174 14.431,15.412 3.227,-1.989 6.194,-3.816 9.326,-5.749 z M 89.659,449.326 c 6.655,-7.646 13.085,-14.962 19.411,-22.368 1.292,-1.516 2.704,-2.527 4.581,-3.221 6.418,-2.383 12.773,-4.937 19.27,-7.473 -1.416,-1.936 -2.736,-3.552 -3.848,-5.304 -1.787,-2.823 -3.443,-3.621 -6.874,-1.725 -4.013,2.218 -8.149,4.726 -13.46,5.32 4.722,-4.304 10.125,-6.92 13.858,-11.576 -2.159,-2.876 -3.576,-5.968 -6.55,-8.144 -14.35,10.953 -28.662,21.873 -43.121,32.908 2.429,3.21 4.542,6.007 6.619,8.754 5.116,-3.74 10.289,-7.519 15.455,-11.295 0.273,0.343 0.549,0.687 0.822,1.029 -2.222,2.475 -4.437,4.952 -6.657,7.427 -6.705,7.456 -6.709,7.456 0.494,15.668 z M 372.849,361.8 c -3.568,-1.15 -6.849,-2.324 -10.19,-3.253 -5.104,-1.417 -8.77,-0.026 -11.465,4.367 -2.232,3.634 -3.192,7.664 -2.932,11.929 0.151,2.484 0.883,5.083 3.112,6.198 6.7,3.345 13.492,7.032 21.152,2.29 1.896,-1.173 3.927,-2.143 5.915,-3.164 4.554,-2.336 9.207,-2.232 13.927,-0.536 1.36,0.49 3.099,0.835 2.354,2.8 -0.615,1.626 -2.002,0.979 -3.267,0.552 -3.412,-1.15 -6.859,-2.191 -10.428,-3.319 -1.235,3.7 -2.335,6.989 -3.476,10.4 3.057,1.055 5.888,2.07 8.75,3.007 4.288,1.403 8.705,3.045 12.585,-0.759 4.263,-4.181 5.82,-9.452 5.171,-15.3 -0.386,-3.44 -2.393,-5.688 -5.692,-7.045 -8.701,-3.588 -17.207,-5.005 -25.471,1.107 -0.763,0.565 -1.627,1.496 -3.127,0.835 1.004,-3.304 2.006,-6.596 3.082,-10.109 z M 244.63,488.865 c 0.943,4.774 1.8,9.004 2.615,13.243 0.724,3.746 3.125,6.103 6.671,6.694 4.279,0.715 8.612,0.479 12.655,-1.621 4.777,-2.484 6.408,-5.721 5.732,-10.965 -1.197,-9.252 -4.585,-16.974 -13.74,-21.003 -0.792,-0.344 -1.766,-0.706 -1.979,-2.051 3.398,-0.706 6.797,-1.412 10.473,-2.174 -0.745,-4.003 -1.261,-7.796 -2.192,-11.485 -1.001,-3.971 -3.743,-6.172 -7.89,-6.628 -3.575,-0.396 -7.065,-0.018 -10.384,1.255 -5.332,2.047 -7.252,6.142 -6.621,11.886 0.892,8.123 4.422,14.081 11.997,17.699 5.25,2.508 8.042,7.17 9.004,12.845 0.213,1.267 0.92,3.194 -1.212,3.537 -2.06,0.331 -2.043,-1.683 -2.346,-2.948 -0.795,-3.369 -0.615,-6.983 -2.504,-10.256 -3.411,0.654 -6.675,1.281 -10.279,1.972 z M 78.321,322.096 c 0.073,3.592 -0.775,7 0.152,10.697 3.736,0 7.259,-0.151 10.765,0.036 4.555,0.244 7.289,-2.116 8.833,-5.99 1.45,-3.635 1.716,-7.528 0.849,-11.343 -0.818,-3.589 -2.691,-7.006 -6.497,-7.628 -8.007,-1.308 -16.023,-1.817 -21.998,5.62 -1.255,1.564 -2.402,3.703 -4.968,3.989 0,-3.723 0,-7.174 0,-10.739 -4.187,-0.204 -8.163,-0.522 -12.142,-0.562 -6.093,-0.056 -8.741,2.208 -10.352,8.518 -1.715,6.71 0.283,13.667 4.575,15.951 6.073,3.224 19.872,1.032 24.761,-3.861 2.149,-2.149 4.289,-4.351 6.7,-6.175 3.934,-2.97 8.61,-2.991 11.923,-0.043 -3.876,2.783 -8.197,0.271 -12.601,1.53 z M 354.512,215.524 c -1.499,4.222 -6.095,5.639 -8.074,9.303 2.021,2.928 4.321,5.471 7.022,7.952 2.682,-2.379 5.258,-4.512 7.653,-6.829 4.142,-3.999 4.583,-8.442 1.513,-13.395 -3.958,-6.379 -10.04,-9.618 -14.988,-7.989 -6.261,2.063 -12.334,10.387 -12.596,17.15 -0.21,5.406 0.11,10.993 -3.603,15.541 -1.798,2.202 -3.389,5.018 -7.588,4.515 1.801,-5.251 6.996,-6.875 9.777,-11.035 -2.229,-2.533 -4.512,-5.126 -7.003,-7.962 -3.174,2.698 -6.117,5.12 -8.966,7.64 -4.443,3.934 -5.136,8.551 -2.178,13.749 3.443,6.053 9.977,9.792 14.794,8.472 6.244,-1.715 14.581,-12.665 14.784,-19.221 0.105,-3.344 0.272,-6.719 0.824,-10.015 0.831,-4.959 4.242,-8.024 8.629,-7.876 z M 116.79,189.671 c 8.764,16.211 17.41,32.204 26.133,48.333 2.978,-1.575 5.485,-3.421 7.979,-5.839 -2.51,-4.351 -4.929,-8.548 -7.357,-12.75 1.489,-0.957 2.313,-2.285 4.114,-2.37 3.194,3.517 6.445,7.095 9.688,10.664 3.26,-2.485 6.024,-4.588 9.146,-6.96 -12.905,-13.502 -25.448,-26.624 -38.116,-39.878 -4.019,3.053 -7.68,5.833 -11.587,8.8 z m 23.584,232.957 c -13.812,12.485 -27.354,24.729 -41.104,37.157 3.017,2.399 5.356,4.256 8.57,6.806 3.2,-3.855 6.254,-7.529 9.409,-11.321 1.748,1.552 2.776,2.462 4.012,3.559 -2.778,4.072 -5.449,7.992 -8.308,12.189 2.964,2.45 5.846,4.837 8.882,7.35 10.092,-15.746 19.897,-31.04 29.776,-46.456 -3.82,-3.158 -7.251,-5.99 -11.237,-9.284 z m 165.664,-189.54 c 8.324,-16.769 16.389,-33.009 24.53,-49.413 -4.209,-2.717 -8.176,-5.281 -12.27,-7.923 -12.343,13.914 -24.4,27.499 -36.735,41.405 3.049,1.962 5.633,3.625 8.322,5.353 3.379,-4.011 6.431,-7.636 9.575,-11.373 1.444,0.93 2.626,1.7 3.929,2.541 -2.343,4.414 -4.634,8.728 -6.99,13.157 3.284,2.128 6.208,4.025 9.639,6.253 z M 195.982,452.661 c -6.3,17.756 -12.343,34.788 -18.597,52.411 3.911,-0.282 6.641,1.673 9.95,0.939 1.472,-4.469 2.944,-8.944 4.361,-13.249 1.882,-0.371 3.223,0.017 4.719,0.92 -0.473,4.604 -0.959,9.319 -1.456,14.146 3.776,1.13 7.25,1.995 11.154,2.229 1.399,-18.409 2.777,-36.525 4.16,-54.704 -5.109,-0.964 -9.599,-1.809 -14.291,-2.692 z m -94.357,-93.809 c -0.868,-4.771 -1.707,-9.382 -2.59,-14.259 -18.453,0.69 -36.49,1.364 -54.653,2.041 -0.453,3.614 0.688,6.536 1.437,9.539 5.025,-0.24 9.769,-0.463 14.479,-0.684 0.604,1.66 1.032,2.981 0.608,4.637 -4.493,1.289 -9.034,2.59 -13.861,3.977 0.76,3.848 1.453,7.384 2.205,11.209 17.574,-5.524 34.73,-10.916 52.375,-16.46 z M 205.374,151.993 c 0.676,12.757 1.328,25.076 1.981,37.399 -0.259,0.023 -0.516,0.046 -0.775,0.069 -2.672,-12.049 -5.347,-24.1 -8.083,-36.44 -3.99,0.615 -7.387,1.138 -11.255,1.735 4.883,17.906 9.645,35.372 14.439,52.947 4.982,-0.608 9.569,-0.974 13.48,-2.143 0,-18.508 0,-36.664 0,-55.077 -3.64,0.563 -6.448,0.994 -9.787,1.51 z m 76.945,7.39 c -5.478,15.055 -9.021,30.2 -14.942,45.017 -3.618,-2.911 -0.937,-5.162 -0.7,-7.383 0.259,-2.492 1.995,-4.66 1.742,-7.512 -3.344,-1.036 -6.593,-2.044 -10.069,-3.119 -1.249,4.006 -2.507,7.614 -3.497,11.295 -1.936,7.216 0.969,11.79 8.905,14.3 7.608,2.406 13.083,0.092 15.518,-6.792 1.75,-4.962 3.233,-10.023 4.804,-15.051 2.843,-9.099 5.663,-18.208 8.554,-27.518 -3.582,-1.124 -6.727,-2.11 -10.315,-3.237 z m -113.586,0.828 c -8.005,3.474 -15.589,6.763 -23.509,10.203 1.456,2.481 1.748,5.251 3.634,7.2 2.316,-0.358 3.97,-2.412 6.631,-1.923 6.053,13.826 12.132,27.705 18.347,41.898 3.51,-1.606 7.095,-2.356 9.925,-4.876 -6.12,-14.042 -12.172,-27.933 -18.166,-41.691 1.775,-2.162 4.837,-1.676 6.112,-4.14 -0.894,-2.001 -1.788,-4.015 -2.974,-6.671 z m 195.086,185.684 c 15.608,1.479 30.865,2.928 46.302,4.39 0.417,-3.956 0.771,-7.351 1.141,-10.857 -15.657,-1.551 -30.789,-3.05 -46.073,-4.561 0,-2.476 0,-4.66 0,-7.089 -2.604,-0.351 -5.045,-0.68 -7.679,-1.035 -0.813,8.728 -1.578,16.953 -2.357,25.279 2.984,0.756 5.416,1.207 7.883,0.642 0.253,-2.191 0.474,-4.087 0.783,-6.769 z M 83.799,224.334 c 14.437,11.59 28.494,22.875 42.72,34.297 4.395,-5.481 8.557,-10.673 12.881,-16.066 -2.28,-1.793 -4.232,-3.329 -6.24,-4.909 -2.717,2.139 -3.621,5.408 -6.47,6.891 -11.889,-9.547 -23.801,-19.112 -35.94,-28.862 -2.445,3.043 -4.634,5.763 -6.951,8.649 z m 170.853,21.458 c -18.56,0 -36.263,0 -54.586,0 0,18.123 0,35.813 0,53.979 -18.202,0 -35.776,0 -53.666,0 0,18.198 0,35.907 0,54.303 17.932,0 35.631,0 53.853,0 0,18.238 0,35.802 0,53.544 18.373,0 36.205,0 54.613,0 0,-18.012 0,-35.576 0,-53.498 2.156,0 3.733,0 5.313,0 14.597,0.016 29.193,-0.072 43.792,0.111 3.74,0.05 4.986,-1.081 4.92,-4.902 -0.219,-12.028 -0.075,-24.062 -0.069,-36.092 0,-4.294 0,-8.59 0,-12.77 -2.247,-1.167 -4.193,-0.897 -6.086,-0.9 -14.276,-0.003 -28.556,-0.148 -42.828,0.125 -4.341,0.084 -5.492,-1.354 -5.35,-5.488 0.287,-8.169 0.095,-16.358 0.095,-24.537 0.003,-7.829 -0.001,-15.653 -0.001,-23.875 z m -33.511,210.583 c 0,18.225 0,36.2 0,54.319 3.62,0 7.056,0 10.775,0 0,-18.116 0,-35.952 0,-54.043 -3.408,-0.293 -6.695,-0.966 -10.775,-0.276 z m 21.271,-250.493 c 1.422,-18.455 2.797,-36.263 4.183,-54.248 -3.759,-0.295 -7.167,-0.565 -10.985,-0.867 -1.417,18.442 -2.794,36.371 -4.193,54.566 3.931,0.197 7.236,0.362 10.995,0.549 z"
   id="path3" />
		<path
   fill-rule="evenodd"
   clip-rule="evenodd"
   fill="#111111"
   d="m 172.696,444.107 c -2.599,8.676 -5.041,16.835 -7.486,24.995 0.333,0.181 0.665,0.358 0.996,0.536 3.732,-7.654 7.463,-15.311 11.311,-23.208 2.616,1.22 4.992,2.323 7.828,3.647 -7.82,16.517 -15.51,32.754 -23.411,49.431 -4.045,-1.89 -7.844,-3.664 -11.873,-5.544 3.089,-11.409 6.116,-22.588 9.142,-33.768 -0.377,-0.154 -0.755,-0.313 -1.133,-0.467 -4.886,10.199 -9.772,20.399 -14.818,30.93 -2.477,-1.157 -4.857,-2.268 -7.867,-3.671 7.792,-16.429 15.551,-32.783 23.473,-49.486 4.657,2.222 9.05,4.318 13.838,6.605 z"
   id="path4" />
		<path
   fill-rule="evenodd"
   clip-rule="evenodd"
   fill="#111111"
   d="m 357.184,457.301 c -3.493,3.546 -5.933,6.02 -8.383,8.508 -12.944,-13.053 -25.648,-25.859 -38.384,-38.7 1.161,-4.039 5.179,-5.86 8.145,-8.581 3.67,-3.364 7.612,-6.664 13.241,-4.252 6.168,2.642 10.573,8.982 10.495,15.491 4.878,-1.205 8.084,1.595 11.152,4.732 2.241,2.294 4.66,4.426 6.767,6.828 2.037,2.327 4.836,3.557 7.168,5.406 -0.194,0.397 -0.277,0.736 -0.484,0.967 -7.473,8.346 -7.785,8.356 -15.714,0.437 -2.383,-2.375 -4.666,-4.85 -7.138,-7.124 -1.326,-1.223 -2.774,-2.945 -5.307,-0.881 6.147,5.724 12.257,11.409 18.442,17.169 z m -33.966,-32.944 c 3.995,4.004 7.289,7.303 10.558,10.579 1.934,-1.219 1.571,-2.754 0.176,-3.874 -3.084,-2.475 -4.642,-7.332 -10.734,-6.705 z"
   id="path5" />
		<path
   fill-rule="evenodd"
   clip-rule="evenodd"
   fill="#111111"
   d="m 65.296,414.73 c -5.532,-11.246 -7.523,-10.49 5.185,-16.234 3.046,-1.377 6.046,-2.855 9.097,-4.229 1.787,-0.805 3.019,-1.825 2.01,-4.41 -7.607,3.332 -15.205,6.657 -23.161,10.141 -1.495,-3.342 -2.895,-6.474 -4.482,-10.026 16.588,-7.411 32.996,-14.741 49.795,-22.243 2.872,5.461 5.574,10.847 6.967,16.72 0.766,3.227 -0.026,6.579 -2.87,8.659 -5.208,3.812 -10.653,7.242 -17.817,3.983 -0.539,4.433 -3.556,6.392 -7.173,8.081 -6.031,2.814 -12.609,4.622 -17.551,9.558 z m 36.254,-33.881 c -5.27,2.373 -9.417,4.239 -13.55,6.102 0.952,2.672 2.609,3.034 4.524,1.627 2.899,-2.126 8.271,-1.229 9.026,-7.729 z"
   id="path6" />
		<path
   fill-rule="evenodd"
   clip-rule="evenodd"
   fill="#111111"
   d="m 330.839,405.702 c 2.08,-3.395 3.831,-6.25 5.776,-9.431 13.392,8.231 26.686,16.4 40.505,24.889 0.953,-4.387 -1.743,-4.962 -3.393,-6.001 -10.547,-6.644 -21.171,-13.167 -31.775,-19.727 -1.071,-0.664 -2.325,-1.1 -3,-2.589 1.212,-3 3.25,-5.633 5.53,-8.869 4.451,2.763 8.859,5.511 13.275,8.242 8.574,5.3 17.229,10.466 25.702,15.924 5.125,3.306 5.573,9.234 1.612,15.741 -4.11,6.75 -9.356,9.26 -14.561,6.168 -13.193,-7.84 -26.175,-16.033 -39.671,-24.347 z"
   id="path7" />
		<path
   fill-rule="evenodd"
   clip-rule="evenodd"
   fill="#111111"
   d="m 336.287,475.976 c -3.132,1.933 -6.1,3.76 -9.326,5.751 -4.902,-5.238 -9.665,-10.325 -14.431,-15.412 -0.269,0.188 -0.543,0.375 -0.811,0.563 3.457,5.748 6.914,11.49 10.388,17.265 -2.213,2.951 -5.889,3.5 -8.755,6.74 -9.814,-15.777 -19.361,-31.123 -29.209,-46.949 3.071,-1.92 6.086,-3.799 9.388,-5.858 3.319,5.313 6.414,10.269 9.77,15.638 0.302,-4.778 -1.613,-8.712 -3.303,-12.333 -2.3,-4.949 -1.295,-7.669 3.529,-9.565 1.166,-0.457 2.194,-1.278 3.385,-1.995 4.387,8.134 3.053,18.366 9.777,25.468 6.377,6.738 12.764,13.471 19.598,20.687 z"
   id="path8" />
		<path
   fill-rule="evenodd"
   clip-rule="evenodd"
   fill="#111111"
   d="m 89.659,449.326 c -7.204,-8.212 -7.199,-8.212 -0.496,-15.668 2.22,-2.475 4.436,-4.952 6.657,-7.427 -0.273,-0.343 -0.549,-0.687 -0.822,-1.029 -5.166,3.776 -10.338,7.555 -15.455,11.295 -2.077,-2.747 -4.19,-5.544 -6.619,-8.754 14.459,-11.035 28.771,-21.955 43.121,-32.908 2.974,2.176 4.391,5.267 6.55,8.144 -3.733,4.656 -9.136,7.272 -13.858,11.576 5.311,-0.594 9.447,-3.102 13.46,-5.32 3.431,-1.896 5.087,-1.098 6.874,1.725 1.112,1.751 2.432,3.368 3.848,5.304 -6.496,2.537 -12.852,5.09 -19.27,7.473 -1.876,0.693 -3.289,1.705 -4.581,3.221 -6.324,7.406 -12.754,14.721 -19.409,22.368 z m 8.314,-24.867 c -1.153,-1.285 -1.768,-0.809 -2.168,0.963 0.828,-0.371 1.465,-0.664 2.093,-0.953 -0.059,-0.403 -0.115,-0.808 -0.174,-1.216 -0.197,0.155 -0.391,0.306 -0.588,0.457 0.278,0.25 0.557,0.499 0.837,0.749 z"
   id="path9" />
		<path
   fill-rule="evenodd"
   clip-rule="evenodd"
   fill="#111111"
   d="m 372.849,361.8 c -1.075,3.513 -2.078,6.805 -3.081,10.108 1.5,0.66 2.364,-0.27 3.127,-0.835 8.264,-6.112 16.77,-4.695 25.471,-1.107 3.3,1.357 5.307,3.605 5.692,7.045 0.649,5.849 -0.908,11.12 -5.171,15.3 -3.88,3.805 -8.297,2.163 -12.585,0.759 -2.862,-0.937 -5.693,-1.953 -8.75,-3.007 1.141,-3.411 2.24,-6.7 3.476,-10.4 3.568,1.127 7.016,2.169 10.428,3.319 1.265,0.427 2.651,1.074 3.267,-0.552 0.745,-1.965 -0.993,-2.31 -2.354,-2.8 -4.72,-1.696 -9.373,-1.8 -13.927,0.536 -1.988,1.021 -4.02,1.991 -5.915,3.164 -7.66,4.742 -14.452,1.055 -21.152,-2.29 -2.229,-1.115 -2.961,-3.713 -3.112,-6.198 -0.261,-4.265 0.699,-8.294 2.932,-11.929 2.695,-4.394 6.361,-5.784 11.465,-4.367 3.34,0.93 6.62,2.103 10.189,3.254 z m -2.65,10.381 c -5.116,-0.349 -8.331,-3.671 -12.93,-2.465 2.395,4.186 6.267,5.048 12.93,2.465 z"
   id="path10" />
		<path
   fill-rule="evenodd"
   clip-rule="evenodd"
   fill="#111111"
   d="m 244.63,488.865 c 3.604,-0.69 6.868,-1.317 10.279,-1.972 1.889,3.272 1.709,6.887 2.504,10.256 0.303,1.266 0.287,3.279 2.346,2.948 2.132,-0.343 1.425,-2.271 1.212,-3.537 -0.962,-5.675 -3.753,-10.337 -9.004,-12.845 -7.575,-3.618 -11.105,-9.576 -11.997,-17.699 -0.632,-5.744 1.289,-9.839 6.621,-11.886 3.319,-1.272 6.809,-1.65 10.384,-1.255 4.147,0.456 6.888,2.657 7.89,6.628 0.931,3.689 1.447,7.482 2.192,11.485 -3.676,0.762 -7.075,1.468 -10.473,2.174 0.214,1.345 1.187,1.707 1.979,2.051 9.155,4.029 12.542,11.751 13.74,21.003 0.676,5.244 -0.955,8.48 -5.732,10.965 -4.042,2.101 -8.375,2.336 -12.655,1.621 -3.545,-0.592 -5.947,-2.948 -6.671,-6.694 -0.814,-4.239 -1.672,-8.469 -2.615,-13.243 z m 11.578,-16.04 c -0.743,-3.621 -1.326,-6.678 -2.015,-9.707 -0.24,-1.052 -1.038,-1.64 -2.158,-1.311 -0.872,0.253 -1.332,1.098 -1.138,1.865 0.821,3.293 1.116,6.921 5.311,9.153 z"
   id="path11" />
		<path
   fill-rule="evenodd"
   clip-rule="evenodd"
   fill="#111111"
   d="m 374.162,306.277 c 3.261,0.529 3.967,-2.533 4.983,-4.223 5.611,-9.336 14.662,-9.895 23.942,-9.839 2.267,0.013 4.124,1.548 5.371,3.572 2.836,4.587 3.613,9.523 2.351,14.738 -0.959,3.969 -3.437,6.349 -7.61,6.864 -4.124,0.51 -8.238,1.121 -12.664,1.726 -0.807,-3.48 -1.706,-6.938 -1.279,-10.914 3.497,-0.51 6.94,-1.019 10.391,-1.505 1.45,-0.204 3.22,-0.313 2.747,-2.359 -0.351,-1.522 -1.829,-1.344 -3.206,-1.164 -6.063,0.805 -11.041,3.447 -14.056,8.859 -4.224,7.591 -10.792,10.299 -19.11,10.394 -4.797,0.06 -8.008,-1.745 -9.771,-6.105 -1.59,-3.934 -2.107,-7.956 -1.135,-12.202 0.906,-3.94 3.386,-6.177 7.082,-6.927 3.586,-0.727 7.272,-0.936 11.266,-1.417 0.558,3.628 2.304,6.907 0.805,10.545 -3.346,1.942 -8.182,-0.181 -11.232,3.621 3.07,2.754 5.623,0.884 8.046,0.112 2.669,-0.848 2.837,-1.341 3.079,-3.776 z"
   id="path12" />
		<path
   fill-rule="evenodd"
   clip-rule="evenodd"
   fill="#111111"
   d="m 78.321,322.096 c 4.404,-1.259 8.725,1.252 12.6,-1.531 -3.313,-2.948 -7.989,-2.927 -11.923,0.043 -2.411,1.824 -4.551,4.025 -6.7,6.175 -4.889,4.893 -18.688,7.084 -24.761,3.861 -4.292,-2.284 -6.29,-9.241 -4.575,-15.951 1.611,-6.31 4.259,-8.573 10.352,-8.518 3.979,0.039 7.955,0.358 12.142,0.562 0,3.565 0,7.017 0,10.739 2.566,-0.286 3.713,-2.425 4.968,-3.989 5.975,-7.437 13.99,-6.927 21.998,-5.62 3.806,0.622 5.679,4.039 6.497,7.628 0.868,3.815 0.601,7.708 -0.849,11.343 -1.544,3.874 -4.278,6.234 -8.833,5.99 -3.505,-0.187 -7.028,-0.036 -10.765,-0.036 -0.926,-3.696 -0.078,-7.104 -0.151,-10.696 z m -13.837,-3.854 c -4.459,-0.611 -8.951,-1.853 -13.286,0.644 4.493,3.302 8.899,1.535 13.286,-0.644 z"
   id="path13" />
		<path
   fill-rule="evenodd"
   clip-rule="evenodd"
   fill="#111111"
   d="m 354.512,215.524 c -4.387,-0.147 -7.798,2.917 -8.627,7.877 -0.552,3.296 -0.719,6.671 -0.824,10.015 -0.203,6.557 -8.54,17.506 -14.784,19.221 -4.817,1.321 -11.351,-2.419 -14.794,-8.472 -2.958,-5.198 -2.266,-9.815 2.178,-13.749 2.849,-2.521 5.792,-4.942 8.966,-7.64 2.491,2.836 4.773,5.429 7.003,7.962 -2.781,4.16 -7.977,5.784 -9.777,11.035 4.199,0.503 5.79,-2.313 7.588,-4.515 3.713,-4.548 3.393,-10.135 3.603,-15.541 0.262,-6.763 6.335,-15.086 12.596,-17.15 4.948,-1.629 11.03,1.61 14.988,7.989 3.07,4.952 2.629,9.396 -1.513,13.395 -2.396,2.317 -4.972,4.449 -7.653,6.829 -2.701,-2.481 -5.001,-5.024 -7.022,-7.952 1.977,-3.665 6.573,-5.082 8.072,-9.304 z"
   id="path14" />
		<path
   fill-rule="evenodd"
   clip-rule="evenodd"
   fill="#111111"
   d="m 116.79,189.671 c 3.907,-2.967 7.568,-5.748 11.586,-8.801 12.667,13.254 25.211,26.375 38.116,39.878 -3.122,2.372 -5.886,4.476 -9.146,6.96 -3.243,-3.569 -6.493,-7.147 -9.688,-10.664 -1.801,0.085 -2.625,1.414 -4.114,2.37 2.428,4.202 4.847,8.399 7.357,12.75 -2.494,2.418 -5.001,4.265 -7.979,5.839 -8.722,-16.128 -17.368,-32.121 -26.132,-48.332 z m 22.404,22.402 c 1.055,-0.625 2.908,-1.192 1.926,-2.24 -2.37,-2.527 -3.799,-6.307 -8.312,-7.542 2.357,3.611 4.26,6.526 6.386,9.782 z"
   id="path15" />
		<path
   fill-rule="evenodd"
   clip-rule="evenodd"
   fill="#111111"
   d="m 140.374,422.628 c 3.986,3.294 7.417,6.126 11.238,9.283 -9.878,15.416 -19.684,30.71 -29.776,46.456 -3.036,-2.513 -5.918,-4.899 -8.882,-7.35 2.859,-4.197 5.53,-8.117 8.308,-12.189 -1.236,-1.097 -2.264,-2.007 -4.012,-3.559 -3.155,3.792 -6.208,7.466 -9.409,11.321 -3.214,-2.55 -5.553,-4.406 -8.57,-6.806 13.749,-12.426 27.291,-24.67 41.103,-37.156 z m -14.644,29.078 c 2.652,-3.047 5.12,-6.008 6.553,-9.658 -7.154,5.316 -7.962,6.522 -6.553,9.658 z"
   id="path16" />
		<path
   fill-rule="evenodd"
   clip-rule="evenodd"
   fill="#111111"
   d="m 306.038,233.088 c -3.431,-2.228 -6.355,-4.125 -9.638,-6.254 2.356,-4.429 4.647,-8.743 6.99,-13.157 -1.303,-0.841 -2.484,-1.61 -3.929,-2.541 -3.144,3.737 -6.195,7.362 -9.575,11.373 -2.689,-1.728 -5.273,-3.391 -8.322,-5.353 12.335,-13.906 24.392,-27.492 36.735,-41.405 4.094,2.642 8.061,5.206 12.27,7.923 -8.142,16.405 -16.207,32.645 -24.531,49.414 z m 7.735,-38.194 c -0.303,-0.237 -0.602,-0.473 -0.903,-0.71 -2.206,2.842 -4.424,5.675 -6.612,8.531 -0.653,0.848 -1.697,1.761 -0.25,2.763 1.404,0.97 1.87,-0.088 2.449,-1.153 1.721,-3.172 3.54,-6.29 5.316,-9.431 z"
   id="path17" />
		<path
   fill-rule="evenodd"
   clip-rule="evenodd"
   fill="#111111"
   d="m 195.982,452.661 c 4.692,0.884 9.181,1.729 14.291,2.692 -1.382,18.179 -2.76,36.295 -4.16,54.704 -3.904,-0.233 -7.377,-1.099 -11.154,-2.229 0.497,-4.827 0.983,-9.543 1.456,-14.146 -1.496,-0.903 -2.836,-1.291 -4.719,-0.92 -1.417,4.305 -2.889,8.78 -4.361,13.249 -3.309,0.733 -6.04,-1.222 -9.95,-0.939 6.254,-17.623 12.298,-34.655 18.597,-52.411 z m 1.557,20.068 c -1.064,3.853 -2.125,7.704 -3.19,11.556 0.611,0.177 1.219,0.354 1.831,0.532 2.802,-3.386 1.911,-7.875 1.359,-12.088 z"
   id="path18" />
		<path
   fill-rule="evenodd"
   clip-rule="evenodd"
   fill="#111111"
   d="m 101.625,358.852 c -17.644,5.543 -34.801,10.936 -52.375,16.46 -0.752,-3.825 -1.445,-7.361 -2.205,-11.209 4.828,-1.386 9.368,-2.688 13.861,-3.977 0.424,-1.655 -0.003,-2.977 -0.608,-4.637 -4.71,0.221 -9.454,0.444 -14.479,0.684 -0.75,-3.003 -1.89,-5.925 -1.437,-9.539 18.163,-0.677 36.2,-1.351 54.653,-2.041 0.882,4.877 1.721,9.488 2.59,14.259 z m -20.421,-4.154 c -3.457,-1.232 -6.869,-0.762 -10.286,-0.173 -1.183,0.203 -2.268,0.265 -1.844,1.919 0.339,1.324 1.266,1.126 2.218,0.874 3.303,-0.875 6.609,-1.746 9.912,-2.62 z"
   id="path19" />
		<path
   fill-rule="evenodd"
   clip-rule="evenodd"
   fill="#111111"
   d="m 205.374,151.993 c 3.339,-0.516 6.147,-0.946 9.786,-1.509 0,18.413 0,36.568 0,55.077 -3.911,1.169 -8.498,1.534 -13.48,2.143 -4.794,-17.575 -9.556,-35.041 -14.439,-52.947 3.868,-0.598 7.265,-1.121 11.255,-1.735 2.736,12.34 5.412,24.391 8.083,36.44 0.259,-0.022 0.516,-0.046 0.775,-0.069 -0.652,-12.324 -1.304,-24.643 -1.98,-37.4 z"
   id="path20" />
		<path
   fill-rule="evenodd"
   clip-rule="evenodd"
   fill="#111111"
   d="m 282.319,159.383 c 3.588,1.127 6.733,2.113 10.315,3.237 -2.891,9.31 -5.711,18.419 -8.554,27.518 -1.57,5.027 -3.053,10.088 -4.804,15.051 -2.435,6.884 -7.91,9.198 -15.518,6.792 -7.936,-2.511 -10.841,-7.084 -8.905,-14.3 0.989,-3.682 2.248,-7.29 3.497,-11.295 3.476,1.075 6.725,2.083 10.069,3.119 0.252,2.853 -1.483,5.021 -1.742,7.512 -0.237,2.221 -2.918,4.472 0.7,7.383 5.921,-14.817 9.464,-29.962 14.942,-45.017 z"
   id="path21" />
		<path
   fill-rule="evenodd"
   clip-rule="evenodd"
   fill="#111111"
   d="m 168.733,160.211 c 1.186,2.655 2.08,4.67 2.974,6.671 -1.274,2.464 -4.337,1.978 -6.112,4.14 5.994,13.759 12.046,27.649 18.166,41.691 -2.83,2.52 -6.415,3.27 -9.925,4.876 -6.214,-14.193 -12.293,-28.073 -18.347,-41.898 -2.661,-0.489 -4.314,1.564 -6.631,1.923 -1.887,-1.949 -2.179,-4.719 -3.634,-7.2 7.92,-3.44 15.505,-6.729 23.509,-10.203 z"
   id="path22" />
		<path
   fill-rule="evenodd"
   clip-rule="evenodd"
   fill="#111111"
   d="m 363.819,345.895 c -0.31,2.682 -0.53,4.578 -0.784,6.769 -2.467,0.565 -4.898,0.115 -7.883,-0.642 0.779,-8.327 1.545,-16.552 2.357,-25.279 2.634,0.354 5.075,0.684 7.679,1.035 0,2.429 0,4.613 0,7.089 15.284,1.511 30.416,3.01 46.073,4.561 -0.37,3.506 -0.724,6.901 -1.141,10.857 -15.435,-1.462 -30.692,-2.911 -46.301,-4.39 z"
   id="path23" />
		<path
   fill-rule="evenodd"
   clip-rule="evenodd"
   fill="#111111"
   d="m 83.799,224.334 c 2.316,-2.886 4.505,-5.606 6.951,-8.649 12.139,9.75 24.051,19.315 35.94,28.862 2.849,-1.482 3.753,-4.752 6.47,-6.891 2.008,1.58 3.96,3.115 6.24,4.909 -4.324,5.393 -8.487,10.585 -12.881,16.066 -14.226,-11.423 -28.283,-22.707 -42.72,-34.297 z"
   id="path24" />
		<path
   fill-rule="evenodd"
   clip-rule="evenodd"
   fill="#bf4f3e"
   d="m 254.652,245.792 c 0,8.222 0.003,16.046 0,23.875 0,8.179 0.191,16.368 -0.095,24.537 -0.142,4.134 1.009,5.573 5.35,5.488 14.272,-0.273 28.552,-0.128 42.828,-0.125 1.893,0.002 3.839,-0.267 6.086,0.9 0,4.18 0,8.476 0,12.77 -0.006,12.031 -0.149,24.064 0.069,36.092 0.066,3.821 -1.18,4.952 -4.92,4.902 -14.598,-0.183 -29.194,-0.095 -43.792,-0.111 -1.58,0 -3.157,0 -5.313,0 0,17.922 0,35.486 0,53.498 -18.408,0 -36.24,0 -54.613,0 0,-17.742 0,-35.306 0,-53.544 -18.221,0 -35.92,0 -53.853,0 0,-18.396 0,-36.105 0,-54.303 17.89,0 35.463,0 53.666,0 0,-18.166 0,-35.856 0,-53.979 18.325,0 36.027,0 54.587,0 z m 52.079,107.059 c 1.137,-16.099 0.249,-31.605 0.645,-47.097 0.094,-3.69 -0.904,-5.182 -4.829,-4.982 -5.92,0.306 -11.869,0.079 -17.806,0.095 -8.501,0.026 -17.019,-0.247 -25.498,0.21 -5.215,0.279 -5.793,0.244 -5.934,-4.926 -0.389,-14.397 0.883,-28.813 -0.823,-43.2 -0.496,-4.167 -2.336,-6.069 -6.382,-6.072 -12.997,-0.004 -25.993,0.046 -38.989,-0.023 -4.072,-0.023 -5.791,1.89 -5.74,5.846 0.075,5.773 0.035,11.55 0.045,17.327 0.017,8.344 -0.286,16.705 0.167,25.021 0.289,5.257 0.296,5.843 -4.988,5.837 -14.117,-0.01 -28.237,-0.04 -42.358,-0.043 -5.837,-0.003 -6.786,0.917 -6.8,6.644 -0.021,13.159 0.254,26.327 -0.147,39.471 -0.157,5.155 1.673,6.076 6.306,5.991 14.275,-0.277 28.557,-0.115 42.839,-0.088 5.77,0.009 6.692,1.12 5.855,6.809 -0.279,1.883 -0.829,3.759 -0.841,5.643 -0.078,11.873 0.013,23.745 -0.075,35.621 -0.026,3.973 1.577,5.902 5.668,5.882 13.959,-0.066 27.919,-0.131 41.879,0.037 3.756,0.042 4.525,-1.466 4.466,-4.87 -0.184,-10.588 -0.026,-21.179 -0.079,-31.77 -0.011,-2.182 -0.109,-4.275 -0.875,-6.523 -1.042,-3.063 -0.125,-6.678 1.141,-9.566 1.114,-2.546 4.352,-1.203 6.618,-1.219 15.387,-0.101 30.771,-0.055 46.535,-0.055 z"
   id="path25" />
		<path
   fill-rule="evenodd"
   clip-rule="evenodd"
   fill="#111111"
   d="m 221.141,456.375 c 4.08,-0.689 7.367,-0.017 10.775,0.276 0,18.091 0,35.927 0,54.043 -3.72,0 -7.155,0 -10.775,0 0,-18.119 0,-36.095 0,-54.319 z"
   id="path26" />
		<path
   fill-rule="evenodd"
   clip-rule="evenodd"
   fill="#111111"
   d="m 242.412,205.882 c -3.759,-0.188 -7.064,-0.352 -10.995,-0.549 1.398,-18.195 2.776,-36.124 4.193,-54.566 3.818,0.302 7.226,0.572 10.985,0.867 -1.386,17.986 -2.761,35.793 -4.183,54.248 z"
   id="path27" />
		<path
   fill-rule="evenodd"
   clip-rule="evenodd"
   fill="#fbfbfb"
   d="m 323.218,424.357 c 6.092,-0.627 7.65,4.23 10.733,6.705 1.396,1.12 1.758,2.655 -0.176,3.874 -3.268,-3.276 -6.562,-6.575 -10.557,-10.579 z"
   id="path28" />
		<path
   fill-rule="evenodd"
   clip-rule="evenodd"
   fill="#fbfbfb"
   d="m 101.55,380.849 c -0.755,6.5 -6.127,5.603 -9.026,7.729 -1.916,1.406 -3.573,1.045 -4.524,-1.627 4.133,-1.863 8.281,-3.729 13.55,-6.102 z"
   id="path29" />
		<path
   fill-rule="evenodd"
   clip-rule="evenodd"
   fill="#fbfbfb"
   d="m 97.911,424.473 c -0.641,0.285 -1.279,0.578 -2.106,0.949 0.401,-1.771 1.015,-2.248 2.168,-0.963 z"
   id="path30" />
		<path
   fill-rule="evenodd"
   clip-rule="evenodd"
   fill="#fbfbfb"
   d="m 97.973,424.459 c -0.28,-0.25 -0.559,-0.499 -0.838,-0.749 0.197,-0.151 0.391,-0.302 0.588,-0.457 0.059,0.408 0.115,0.813 0.181,1.22 0.007,0 0.069,-0.014 0.069,-0.014 z"
   id="path31" />
		<path
   fill-rule="evenodd"
   clip-rule="evenodd"
   fill="#fbfbfb"
   d="m 370.199,372.181 c -6.663,2.583 -10.535,1.721 -12.93,-2.465 4.599,-1.206 7.814,2.116 12.93,2.465 z"
   id="path32" />
		<path
   fill-rule="evenodd"
   clip-rule="evenodd"
   fill="#fbfbfb"
   d="m 256.208,472.825 c -4.195,-2.231 -4.49,-5.859 -5.311,-9.152 -0.194,-0.768 0.266,-1.612 1.138,-1.865 1.12,-0.329 1.918,0.259 2.158,1.311 0.689,3.028 1.271,6.085 2.015,9.706 z"
   id="path33" />
		<path
   fill-rule="evenodd"
   clip-rule="evenodd"
   fill="#fbfbfb"
   d="m 374.162,306.277 c -0.242,2.435 -0.41,2.928 -3.081,3.779 -2.423,0.772 -4.976,2.642 -8.046,-0.112 3.051,-3.802 7.887,-1.679 11.232,-3.621 -0.005,-0.003 -0.105,-0.046 -0.105,-0.046 z"
   id="path34" />
		<path
   fill-rule="evenodd"
   clip-rule="evenodd"
   fill="#fbfbfb"
   d="m 64.484,318.242 c -4.387,2.179 -8.793,3.946 -13.286,0.644 4.335,-2.497 8.827,-1.256 13.286,-0.644 z"
   id="path35" />
		<path
   fill-rule="evenodd"
   clip-rule="evenodd"
   fill="#fbfbfb"
   d="m 139.194,212.073 c -2.126,-3.256 -4.03,-6.171 -6.386,-9.783 4.512,1.236 5.942,5.015 8.312,7.542 0.983,1.048 -0.871,1.616 -1.926,2.241 z"
   id="path36" />
		<path
   fill-rule="evenodd"
   clip-rule="evenodd"
   fill="#fbfbfb"
   d="m 125.73,451.706 c -1.41,-3.136 -0.602,-4.342 6.553,-9.658 -1.432,3.65 -3.9,6.611 -6.553,9.658 z"
   id="path37" />
		<path
   fill-rule="evenodd"
   clip-rule="evenodd"
   fill="#fbfbfb"
   d="m 313.773,194.894 c -1.776,3.142 -3.596,6.259 -5.316,9.431 -0.579,1.064 -1.045,2.123 -2.449,1.153 -1.447,-1.002 -0.403,-1.916 0.25,-2.763 2.188,-2.855 4.406,-5.688 6.612,-8.531 0.302,0.236 0.601,0.473 0.903,0.71 z"
   id="path38" />
		<path
   fill-rule="evenodd"
   clip-rule="evenodd"
   fill="#fbfbfb"
   d="m 197.539,472.729 c 0.552,4.213 1.443,8.702 -1.36,12.088 -0.612,-0.178 -1.22,-0.355 -1.831,-0.532 1.066,-3.852 2.127,-7.703 3.191,-11.556 z"
   id="path39" />
		<path
   fill-rule="evenodd"
   clip-rule="evenodd"
   fill="#fbfbfb"
   d="m 81.204,354.698 c -3.303,0.875 -6.609,1.746 -9.912,2.619 -0.952,0.253 -1.878,0.451 -2.218,-0.874 -0.424,-1.654 0.661,-1.716 1.844,-1.919 3.417,-0.588 6.829,-1.059 10.286,0.174 z"
   id="path40" />
		<path
   fill-rule="evenodd"
   clip-rule="evenodd"
   fill="#fe2a0a"
   d="m 306.731,352.851 c -15.764,0 -31.149,-0.046 -46.535,0.053 -2.267,0.016 -5.504,-1.327 -6.618,1.219 -1.266,2.888 -2.182,6.504 -1.141,9.566 0.766,2.248 0.864,4.341 0.875,6.523 0.053,10.591 -0.105,21.182 0.079,31.77 0.06,3.404 -0.709,4.913 -4.466,4.87 -13.96,-0.167 -27.919,-0.103 -41.879,-0.037 -4.091,0.02 -5.694,-1.909 -5.668,-5.882 0.088,-11.875 -0.003,-23.748 0.075,-35.621 0.013,-1.883 0.563,-3.76 0.841,-5.643 0.837,-5.688 -0.085,-6.799 -5.855,-6.809 -14.282,-0.026 -28.564,-0.188 -42.839,0.088 -4.633,0.085 -6.463,-0.835 -6.306,-5.991 0.401,-13.144 0.126,-26.312 0.147,-39.471 0.015,-5.727 0.963,-6.647 6.8,-6.644 14.121,0.004 28.241,0.033 42.358,0.043 5.284,0.006 5.277,-0.58 4.988,-5.837 -0.453,-8.316 -0.151,-16.677 -0.167,-25.021 -0.01,-5.777 0.03,-11.554 -0.045,-17.327 -0.051,-3.957 1.668,-5.869 5.74,-5.846 12.997,0.069 25.992,0.02 38.989,0.023 4.045,0.003 5.886,1.905 6.382,6.072 1.706,14.387 0.435,28.803 0.823,43.2 0.141,5.169 0.719,5.205 5.934,4.926 8.479,-0.457 16.996,-0.184 25.498,-0.21 5.938,-0.016 11.886,0.21 17.806,-0.095 3.925,-0.2 4.923,1.292 4.829,4.982 -0.396,15.494 0.492,31 -0.645,47.099 z"
   id="path41" />
	</g>
</g>
</svg>
