<?xml version="1.0" encoding="utf-8"?>
<!-- Generator: Adobe Illustrator 16.0.0, SVG Export Plug-In . SVG Version: 6.00 Build 0)  -->
<!DOCTYPE svg PUBLIC "-//W3C//DTD SVG 1.1//EN" "http://www.w3.org/Graphics/SVG/1.1/DTD/svg11.dtd">
<svg version="1.1" id="Layer_1" xmlns="http://www.w3.org/2000/svg" xmlns:xlink="http://www.w3.org/1999/xlink" x="0px" y="0px"
	 width="595.28px" height="841.89px" viewBox="0 0 595.28 841.89" enable-background="new 0 0 595.28 841.89" xml:space="preserve">
<g>
	<g>
		<path fill-rule="evenodd" clip-rule="evenodd" fill="#FBFBFB" d="M436.354,535.853c-139.333,0-278.668,0-418.001,0
			c0-139.333,0-278.668,0-418c139.333,0,278.665,0,418.001,0C436.354,257.185,436.354,396.521,436.354,535.853z M226.974,531.472
			c110.432,0.69,203.941-87.756,205.263-202.015c1.333-115.231-90.604-208.04-205.796-207.438
			c-115.451,0.601-203.211,93.806-203.756,203.727C22.119,440.079,114.877,531.771,226.974,531.472z"/>
		<path fill-rule="evenodd" clip-rule="evenodd" fill="#111111" d="M226.974,531.472c-112.096,0.299-204.855-91.394-204.289-205.725
			c0.545-109.921,88.305-203.126,203.756-203.727c115.192-0.602,207.129,92.206,205.796,207.438
			C430.915,443.716,337.405,532.163,226.974,531.472z M428.486,327.256c-0.132-110.661-88.644-200.97-200.363-201.404
			c-111.916-0.435-202.005,90.132-201.587,201.91c0.41,111.41,92.238,203.077,206.935,199.899
			C339.499,524.723,427.616,438.304,428.486,327.256z"/>
		<path fill-rule="evenodd" clip-rule="evenodd" fill="#FBFBFB" d="M428.486,327.256c-0.87,111.048-88.987,197.467-195.016,200.405
			c-114.697,3.178-206.524-88.489-206.935-199.899c-0.418-111.778,89.671-202.344,201.587-201.91
			C339.843,126.286,428.354,216.595,428.486,327.256z M374.162,306.277l0.1,0.043c1.505-3.635-0.241-6.914-0.799-10.542
			c-3.993,0.48-7.68,0.69-11.266,1.417c-3.696,0.75-6.176,2.987-7.082,6.927c-0.973,4.246-0.455,8.269,1.135,12.202
			c1.764,4.36,4.975,6.165,9.771,6.105c8.318-0.095,14.887-2.803,19.11-10.394c3.015-5.412,7.992-8.054,14.056-8.859
			c1.377-0.181,2.855-0.358,3.206,1.164c0.473,2.046-1.297,2.155-2.747,2.359c-3.45,0.487-6.894,0.996-10.391,1.505
			c-0.427,3.976,0.473,7.434,1.279,10.914c4.426-0.605,8.54-1.216,12.664-1.726c4.174-0.515,6.651-2.895,7.61-6.864
			c1.263-5.215,0.485-10.151-2.351-14.738c-1.247-2.024-3.104-3.559-5.371-3.572c-9.28-0.056-18.331,0.503-23.942,9.839
			C378.129,303.744,377.423,306.806,374.162,306.277z M172.696,444.107c-4.788-2.287-9.182-4.383-13.838-6.604
			c-7.922,16.703-15.682,33.058-23.473,49.486c3.01,1.403,5.39,2.514,7.867,3.671c5.045-10.53,9.932-20.73,14.818-30.93
			c0.378,0.154,0.756,0.313,1.133,0.467c-3.026,11.18-6.053,22.358-9.142,33.768c4.029,1.88,7.828,3.654,11.873,5.544
			c7.9-16.677,15.59-32.914,23.411-49.431c-2.836-1.324-5.212-2.428-7.828-3.647c-3.848,7.897-7.579,15.554-11.311,23.208
			c-0.331-0.178-0.664-0.355-0.996-0.536C167.656,460.942,170.097,452.783,172.696,444.107z M357.184,457.301
			c-6.185-5.761-12.295-11.445-18.441-17.17c2.532-2.064,3.98-0.342,5.307,0.881c2.472,2.274,4.755,4.749,7.138,7.124
			c7.929,7.92,8.241,7.909,15.714-0.437c0.207-0.23,0.29-0.569,0.484-0.967c-2.332-1.85-5.131-3.079-7.168-5.406
			c-2.106-2.402-4.525-4.534-6.767-6.828c-3.068-3.138-6.274-5.938-11.152-4.732c0.078-6.509-4.327-12.849-10.495-15.491
			c-5.629-2.412-9.571,0.888-13.241,4.252c-2.966,2.721-6.983,4.542-8.145,8.581c12.735,12.841,25.439,25.647,38.384,38.7
			C351.251,463.321,353.69,460.847,357.184,457.301z M65.296,414.73c4.942-4.936,11.52-6.744,17.551-9.56
			c3.618-1.689,6.634-3.647,7.173-8.081c7.164,3.259,12.609-0.171,17.817-3.983c2.843-2.08,3.636-5.432,2.87-8.659
			c-1.393-5.873-4.095-11.259-6.967-16.72c-16.799,7.502-33.207,14.833-49.795,22.243c1.587,3.553,2.987,6.685,4.482,10.026
			c7.956-3.483,15.554-6.809,23.161-10.141c1.009,2.585-0.223,3.605-2.01,4.41c-3.05,1.373-6.05,2.852-9.097,4.229
			C57.773,404.24,59.765,403.484,65.296,414.73z M330.839,405.702c13.496,8.314,26.479,16.507,39.673,24.347
			c5.204,3.092,10.45,0.582,14.561-6.168c3.961-6.507,3.513-12.435-1.612-15.741c-8.474-5.458-17.128-10.624-25.702-15.924
			c-4.416-2.731-8.824-5.479-13.275-8.242c-2.28,3.236-4.318,5.869-5.53,8.869c0.675,1.489,1.929,1.925,3,2.589
			c10.604,6.56,21.229,13.083,31.775,19.727c1.649,1.039,4.346,1.614,3.393,6.001c-13.819-8.489-27.113-16.658-40.505-24.889
			C334.67,399.452,332.919,402.308,330.839,405.702z M336.287,475.976c-6.834-7.216-13.221-13.949-19.598-20.689
			c-6.725-7.102-5.391-17.334-9.777-25.468c-1.19,0.717-2.219,1.538-3.385,1.995c-4.824,1.896-5.83,4.616-3.529,9.565
			c1.689,3.621,3.604,7.555,3.303,12.333c-3.356-5.369-6.451-10.324-9.77-15.638c-3.301,2.06-6.316,3.938-9.388,5.858
			c9.848,15.826,19.395,31.172,29.209,46.949c2.866-3.24,6.542-3.789,8.755-6.74c-3.474-5.774-6.931-11.517-10.388-17.265
			c0.268-0.188,0.542-0.375,0.811-0.563c4.766,5.087,9.528,10.174,14.431,15.412C330.188,479.736,333.155,477.909,336.287,475.976z
			 M89.659,449.326c6.655-7.646,13.085-14.962,19.411-22.368c1.292-1.516,2.704-2.527,4.581-3.221
			c6.418-2.383,12.773-4.937,19.27-7.473c-1.416-1.936-2.736-3.552-3.848-5.304c-1.787-2.823-3.443-3.621-6.874-1.725
			c-4.013,2.218-8.149,4.726-13.46,5.32c4.722-4.304,10.125-6.92,13.858-11.576c-2.159-2.876-3.576-5.968-6.55-8.144
			c-14.35,10.953-28.662,21.873-43.121,32.908c2.429,3.21,4.542,6.007,6.619,8.754c5.116-3.74,10.289-7.519,15.455-11.295
			c0.273,0.343,0.549,0.687,0.822,1.029c-2.222,2.475-4.437,4.952-6.657,7.427C82.46,441.114,82.456,441.114,89.659,449.326z
			 M372.849,361.8c-3.568-1.15-6.849-2.324-10.19-3.253c-5.104-1.417-8.77-0.026-11.465,4.367
			c-2.232,3.634-3.192,7.664-2.932,11.929c0.151,2.484,0.883,5.083,3.112,6.198c6.7,3.345,13.492,7.032,21.152,2.29
			c1.896-1.173,3.927-2.143,5.915-3.164c4.554-2.336,9.207-2.232,13.927-0.536c1.36,0.49,3.099,0.835,2.354,2.8
			c-0.615,1.626-2.002,0.979-3.267,0.552c-3.412-1.15-6.859-2.191-10.428-3.319c-1.235,3.7-2.335,6.989-3.476,10.4
			c3.057,1.055,5.888,2.07,8.75,3.007c4.288,1.403,8.705,3.045,12.585-0.759c4.263-4.181,5.82-9.452,5.171-15.3
			c-0.386-3.44-2.393-5.688-5.692-7.045c-8.701-3.588-17.207-5.005-25.471,1.107c-0.763,0.565-1.627,1.496-3.127,0.835
			C370.771,368.605,371.773,365.313,372.849,361.8z M244.63,488.865c0.943,4.774,1.8,9.004,2.615,13.243
			c0.724,3.746,3.125,6.103,6.671,6.694c4.279,0.715,8.612,0.479,12.655-1.621c4.777-2.484,6.408-5.721,5.732-10.965
			c-1.197-9.252-4.585-16.974-13.74-21.003c-0.792-0.344-1.766-0.706-1.979-2.051c3.398-0.706,6.797-1.412,10.473-2.174
			c-0.745-4.003-1.261-7.796-2.192-11.485c-1.001-3.971-3.743-6.172-7.89-6.628c-3.575-0.396-7.065-0.018-10.384,1.255
			c-5.332,2.047-7.252,6.142-6.621,11.886c0.892,8.123,4.422,14.081,11.997,17.699c5.25,2.508,8.042,7.17,9.004,12.845
			c0.213,1.267,0.92,3.194-1.212,3.537c-2.06,0.331-2.043-1.683-2.346-2.948c-0.795-3.369-0.615-6.983-2.504-10.256
			C251.498,487.547,248.234,488.174,244.63,488.865z M78.321,322.096c0.073,3.592-0.775,7,0.152,10.697
			c3.736,0,7.259-0.151,10.765,0.036c4.555,0.244,7.289-2.116,8.833-5.99c1.45-3.635,1.716-7.528,0.849-11.343
			c-0.818-3.589-2.691-7.006-6.497-7.628c-8.007-1.308-16.023-1.817-21.998,5.62c-1.255,1.564-2.402,3.703-4.968,3.989
			c0-3.723,0-7.174,0-10.739c-4.187-0.204-8.163-0.522-12.142-0.562c-6.093-0.056-8.741,2.208-10.352,8.518
			c-1.715,6.71,0.283,13.667,4.575,15.951c6.073,3.224,19.872,1.032,24.761-3.861c2.149-2.149,4.289-4.351,6.7-6.175
			c3.934-2.97,8.61-2.991,11.923-0.043C87.046,323.349,82.725,320.837,78.321,322.096z M354.512,215.524
			c-1.499,4.222-6.095,5.639-8.074,9.303c2.021,2.928,4.321,5.471,7.022,7.952c2.682-2.379,5.258-4.512,7.653-6.829
			c4.142-3.999,4.583-8.442,1.513-13.395c-3.958-6.379-10.04-9.618-14.988-7.989c-6.261,2.063-12.334,10.387-12.596,17.15
			c-0.21,5.406,0.11,10.993-3.603,15.541c-1.798,2.202-3.389,5.018-7.588,4.515c1.801-5.251,6.996-6.875,9.777-11.035
			c-2.229-2.533-4.512-5.126-7.003-7.962c-3.174,2.698-6.117,5.12-8.966,7.64c-4.443,3.934-5.136,8.551-2.178,13.749
			c3.443,6.053,9.977,9.792,14.794,8.472c6.244-1.715,14.581-12.665,14.784-19.221c0.105-3.344,0.272-6.719,0.824-10.015
			C346.714,218.441,350.125,215.376,354.512,215.524z M116.79,189.671c8.764,16.211,17.41,32.204,26.133,48.333
			c2.978-1.575,5.485-3.421,7.979-5.839c-2.51-4.351-4.929-8.548-7.357-12.75c1.489-0.957,2.313-2.285,4.114-2.37
			c3.194,3.517,6.445,7.095,9.688,10.664c3.26-2.485,6.024-4.588,9.146-6.96c-12.905-13.502-25.448-26.624-38.116-39.878
			C124.358,183.924,120.697,186.704,116.79,189.671z M140.374,422.628c-13.812,12.485-27.354,24.729-41.104,37.157
			c3.017,2.399,5.356,4.256,8.57,6.806c3.2-3.855,6.254-7.529,9.409-11.321c1.748,1.552,2.776,2.462,4.012,3.559
			c-2.778,4.072-5.449,7.992-8.308,12.189c2.964,2.45,5.846,4.837,8.882,7.35c10.092-15.746,19.897-31.04,29.776-46.456
			C147.791,428.754,144.36,425.922,140.374,422.628z M306.038,233.088c8.324-16.769,16.389-33.009,24.53-49.413
			c-4.209-2.717-8.176-5.281-12.27-7.923c-12.343,13.914-24.4,27.499-36.735,41.405c3.049,1.962,5.633,3.625,8.322,5.353
			c3.379-4.011,6.431-7.636,9.575-11.373c1.444,0.93,2.626,1.7,3.929,2.541c-2.343,4.414-4.634,8.728-6.99,13.157
			C299.683,228.963,302.607,230.86,306.038,233.088z M195.982,452.661c-6.3,17.756-12.343,34.788-18.597,52.411
			c3.911-0.282,6.641,1.673,9.95,0.939c1.472-4.469,2.944-8.944,4.361-13.249c1.882-0.371,3.223,0.017,4.719,0.92
			c-0.473,4.604-0.959,9.319-1.456,14.146c3.776,1.13,7.25,1.995,11.154,2.229c1.399-18.409,2.777-36.525,4.16-54.704
			C205.164,454.389,200.674,453.544,195.982,452.661z M101.625,358.852c-0.868-4.771-1.707-9.382-2.59-14.259
			c-18.453,0.69-36.49,1.364-54.653,2.041c-0.453,3.614,0.688,6.536,1.437,9.539c5.025-0.24,9.769-0.463,14.479-0.684
			c0.604,1.66,1.032,2.981,0.608,4.637c-4.493,1.289-9.034,2.59-13.861,3.977c0.76,3.848,1.453,7.384,2.205,11.209
			C66.824,369.788,83.98,364.396,101.625,358.852z M205.374,151.993c0.676,12.757,1.328,25.076,1.981,37.399
			c-0.259,0.023-0.516,0.046-0.775,0.069c-2.672-12.049-5.347-24.1-8.083-36.44c-3.99,0.615-7.387,1.138-11.255,1.735
			c4.883,17.906,9.645,35.372,14.439,52.947c4.982-0.608,9.569-0.974,13.48-2.143c0-18.508,0-36.664,0-55.077
			C211.521,151.046,208.713,151.477,205.374,151.993z M282.319,159.383c-5.478,15.055-9.021,30.2-14.942,45.017
			c-3.618-2.911-0.937-5.162-0.7-7.383c0.259-2.492,1.995-4.66,1.742-7.512c-3.344-1.036-6.593-2.044-10.069-3.119
			c-1.249,4.006-2.507,7.614-3.497,11.295c-1.936,7.216,0.969,11.79,8.905,14.3c7.608,2.406,13.083,0.092,15.518-6.792
			c1.75-4.962,3.233-10.023,4.804-15.051c2.843-9.099,5.663-18.208,8.554-27.518C289.052,161.496,285.907,160.51,282.319,159.383z
			 M168.733,160.211c-8.005,3.474-15.589,6.763-23.509,10.203c1.456,2.481,1.748,5.251,3.634,7.2
			c2.316-0.358,3.97-2.412,6.631-1.923c6.053,13.826,12.132,27.705,18.347,41.898c3.51-1.606,7.095-2.356,9.925-4.876
			c-6.12-14.042-12.172-27.933-18.166-41.691c1.775-2.162,4.837-1.676,6.112-4.14C170.813,164.881,169.919,162.867,168.733,160.211z
			 M363.819,345.895c15.608,1.479,30.865,2.928,46.302,4.39c0.417-3.956,0.771-7.351,1.141-10.857
			c-15.657-1.551-30.789-3.05-46.073-4.561c0-2.476,0-4.66,0-7.089c-2.604-0.351-5.045-0.68-7.679-1.035
			c-0.813,8.728-1.578,16.953-2.357,25.279c2.984,0.756,5.416,1.207,7.883,0.642C363.289,350.473,363.51,348.577,363.819,345.895z
			 M83.799,224.334c14.437,11.59,28.494,22.875,42.72,34.297c4.395-5.481,8.557-10.673,12.881-16.066
			c-2.28-1.793-4.232-3.329-6.24-4.909c-2.717,2.139-3.621,5.408-6.47,6.891c-11.889-9.547-23.801-19.112-35.94-28.862
			C88.305,218.728,86.116,221.448,83.799,224.334z M254.652,245.792c-18.56,0-36.263,0-54.586,0c0,18.123,0,35.813,0,53.979
			c-18.202,0-35.776,0-53.666,0c0,18.198,0,35.907,0,54.303c17.932,0,35.631,0,53.853,0c0,18.238,0,35.802,0,53.544
			c18.373,0,36.205,0,54.613,0c0-18.012,0-35.576,0-53.498c2.156,0,3.733,0,5.313,0c14.597,0.016,29.193-0.072,43.792,0.111
			c3.74,0.05,4.986-1.081,4.92-4.902c-0.219-12.028-0.075-24.062-0.069-36.092c0-4.294,0-8.59,0-12.77
			c-2.247-1.167-4.193-0.897-6.086-0.9c-14.276-0.003-28.556-0.148-42.828,0.125c-4.341,0.084-5.492-1.354-5.35-5.488
			c0.287-8.169,0.095-16.358,0.095-24.537C254.656,261.838,254.652,254.014,254.652,245.792z M221.141,456.375
			c0,18.225,0,36.2,0,54.319c3.62,0,7.056,0,10.775,0c0-18.116,0-35.952,0-54.043C228.508,456.358,225.221,455.685,221.141,456.375z
			 M242.412,205.882c1.422-18.455,2.797-36.263,4.183-54.248c-3.759-0.295-7.167-0.565-10.985-0.867
			c-1.417,18.442-2.794,36.371-4.193,54.566C235.348,205.53,238.653,205.695,242.412,205.882z"/>
		<path fill-rule="evenodd" clip-rule="evenodd" fill="#111111" d="M172.696,444.107c-2.599,8.676-5.041,16.835-7.486,24.995
			c0.333,0.181,0.665,0.358,0.996,0.536c3.732-7.654,7.463-15.311,11.311-23.208c2.616,1.22,4.992,2.323,7.828,3.647
			c-7.82,16.517-15.51,32.754-23.411,49.431c-4.045-1.89-7.844-3.664-11.873-5.544c3.089-11.409,6.116-22.588,9.142-33.768
			c-0.377-0.154-0.755-0.313-1.133-0.467c-4.886,10.199-9.772,20.399-14.818,30.93c-2.477-1.157-4.857-2.268-7.867-3.671
			c7.792-16.429,15.551-32.783,23.473-49.486C163.515,439.724,167.908,441.82,172.696,444.107z"/>
		<path fill-rule="evenodd" clip-rule="evenodd" fill="#111111" d="M357.184,457.301c-3.493,3.546-5.933,6.02-8.383,8.508
			c-12.944-13.053-25.648-25.859-38.384-38.7c1.161-4.039,5.179-5.86,8.145-8.581c3.67-3.364,7.612-6.664,13.241-4.252
			c6.168,2.642,10.573,8.982,10.495,15.491c4.878-1.205,8.084,1.595,11.152,4.732c2.241,2.294,4.66,4.426,6.767,6.828
			c2.037,2.327,4.836,3.557,7.168,5.406c-0.194,0.397-0.277,0.736-0.484,0.967c-7.473,8.346-7.785,8.356-15.714,0.437
			c-2.383-2.375-4.666-4.85-7.138-7.124c-1.326-1.223-2.774-2.945-5.307-0.881C344.889,445.856,350.999,451.541,357.184,457.301z
			 M323.218,424.357c3.995,4.004,7.289,7.303,10.558,10.579c1.934-1.219,1.571-2.754,0.176-3.874
			C330.868,428.587,329.31,423.73,323.218,424.357z"/>
		<path fill-rule="evenodd" clip-rule="evenodd" fill="#111111" d="M65.296,414.73c-5.532-11.246-7.523-10.49,5.185-16.234
			c3.046-1.377,6.046-2.855,9.097-4.229c1.787-0.805,3.019-1.825,2.01-4.41c-7.607,3.332-15.205,6.657-23.161,10.141
			c-1.495-3.342-2.895-6.474-4.482-10.026c16.588-7.411,32.996-14.741,49.795-22.243c2.872,5.461,5.574,10.847,6.967,16.72
			c0.766,3.227-0.026,6.579-2.87,8.659c-5.208,3.812-10.653,7.242-17.817,3.983c-0.539,4.433-3.556,6.392-7.173,8.081
			C76.816,407.986,70.238,409.794,65.296,414.73z M101.55,380.849c-5.27,2.373-9.417,4.239-13.55,6.102
			c0.952,2.672,2.609,3.034,4.524,1.627C95.423,386.452,100.795,387.349,101.55,380.849z"/>
		<path fill-rule="evenodd" clip-rule="evenodd" fill="#111111" d="M330.839,405.702c2.08-3.395,3.831-6.25,5.776-9.431
			c13.392,8.231,26.686,16.4,40.505,24.889c0.953-4.387-1.743-4.962-3.393-6.001c-10.547-6.644-21.171-13.167-31.775-19.727
			c-1.071-0.664-2.325-1.1-3-2.589c1.212-3,3.25-5.633,5.53-8.869c4.451,2.763,8.859,5.511,13.275,8.242
			c8.574,5.3,17.229,10.466,25.702,15.924c5.125,3.306,5.573,9.234,1.612,15.741c-4.11,6.75-9.356,9.26-14.561,6.168
			C357.317,422.209,344.335,414.016,330.839,405.702z"/>
		<path fill-rule="evenodd" clip-rule="evenodd" fill="#111111" d="M336.287,475.976c-3.132,1.933-6.1,3.76-9.326,5.751
			c-4.902-5.238-9.665-10.325-14.431-15.412c-0.269,0.188-0.543,0.375-0.811,0.563c3.457,5.748,6.914,11.49,10.388,17.265
			c-2.213,2.951-5.889,3.5-8.755,6.74c-9.814-15.777-19.361-31.123-29.209-46.949c3.071-1.92,6.086-3.799,9.388-5.858
			c3.319,5.313,6.414,10.269,9.77,15.638c0.302-4.778-1.613-8.712-3.303-12.333c-2.3-4.949-1.295-7.669,3.529-9.565
			c1.166-0.457,2.194-1.278,3.385-1.995c4.387,8.134,3.053,18.366,9.777,25.468C323.066,462.027,329.453,468.76,336.287,475.976z"/>
		<path fill-rule="evenodd" clip-rule="evenodd" fill="#111111" d="M89.659,449.326c-7.204-8.212-7.199-8.212-0.496-15.668
			c2.22-2.475,4.436-4.952,6.657-7.427c-0.273-0.343-0.549-0.687-0.822-1.029c-5.166,3.776-10.338,7.555-15.455,11.295
			c-2.077-2.747-4.19-5.544-6.619-8.754c14.459-11.035,28.771-21.955,43.121-32.908c2.974,2.176,4.391,5.267,6.55,8.144
			c-3.733,4.656-9.136,7.272-13.858,11.576c5.311-0.594,9.447-3.102,13.46-5.32c3.431-1.896,5.087-1.098,6.874,1.725
			c1.112,1.751,2.432,3.368,3.848,5.304c-6.496,2.537-12.852,5.09-19.27,7.473c-1.876,0.693-3.289,1.705-4.581,3.221
			C102.744,434.364,96.314,441.679,89.659,449.326z M97.973,424.459c-1.153-1.285-1.768-0.809-2.168,0.963
			c0.828-0.371,1.465-0.664,2.093-0.953c-0.059-0.403-0.115-0.808-0.174-1.216c-0.197,0.155-0.391,0.306-0.588,0.457
			C97.414,423.96,97.693,424.209,97.973,424.459z"/>
		<path fill-rule="evenodd" clip-rule="evenodd" fill="#111111" d="M372.849,361.8c-1.075,3.513-2.078,6.805-3.081,10.108
			c1.5,0.66,2.364-0.27,3.127-0.835c8.264-6.112,16.77-4.695,25.471-1.107c3.3,1.357,5.307,3.605,5.692,7.045
			c0.649,5.849-0.908,11.12-5.171,15.3c-3.88,3.805-8.297,2.163-12.585,0.759c-2.862-0.937-5.693-1.953-8.75-3.007
			c1.141-3.411,2.24-6.7,3.476-10.4c3.568,1.127,7.016,2.169,10.428,3.319c1.265,0.427,2.651,1.074,3.267-0.552
			c0.745-1.965-0.993-2.31-2.354-2.8c-4.72-1.696-9.373-1.8-13.927,0.536c-1.988,1.021-4.02,1.991-5.915,3.164
			c-7.66,4.742-14.452,1.055-21.152-2.29c-2.229-1.115-2.961-3.713-3.112-6.198c-0.261-4.265,0.699-8.294,2.932-11.929
			c2.695-4.394,6.361-5.784,11.465-4.367C366,359.476,369.28,360.649,372.849,361.8z M370.199,372.181
			c-5.116-0.349-8.331-3.671-12.93-2.465C359.664,373.902,363.536,374.764,370.199,372.181z"/>
		<path fill-rule="evenodd" clip-rule="evenodd" fill="#111111" d="M244.63,488.865c3.604-0.69,6.868-1.317,10.279-1.972
			c1.889,3.272,1.709,6.887,2.504,10.256c0.303,1.266,0.287,3.279,2.346,2.948c2.132-0.343,1.425-2.271,1.212-3.537
			c-0.962-5.675-3.753-10.337-9.004-12.845c-7.575-3.618-11.105-9.576-11.997-17.699c-0.632-5.744,1.289-9.839,6.621-11.886
			c3.319-1.272,6.809-1.65,10.384-1.255c4.147,0.456,6.888,2.657,7.89,6.628c0.931,3.689,1.447,7.482,2.192,11.485
			c-3.676,0.762-7.075,1.468-10.473,2.174c0.214,1.345,1.187,1.707,1.979,2.051c9.155,4.029,12.542,11.751,13.74,21.003
			c0.676,5.244-0.955,8.48-5.732,10.965c-4.042,2.101-8.375,2.336-12.655,1.621c-3.545-0.592-5.947-2.948-6.671-6.694
			C246.431,497.869,245.573,493.639,244.63,488.865z M256.208,472.825c-0.743-3.621-1.326-6.678-2.015-9.707
			c-0.24-1.052-1.038-1.64-2.158-1.311c-0.872,0.253-1.332,1.098-1.138,1.865C251.718,466.965,252.013,470.593,256.208,472.825z"/>
		<path fill-rule="evenodd" clip-rule="evenodd" fill="#111111" d="M374.162,306.277c3.261,0.529,3.967-2.533,4.983-4.223
			c5.611-9.336,14.662-9.895,23.942-9.839c2.267,0.013,4.124,1.548,5.371,3.572c2.836,4.587,3.613,9.523,2.351,14.738
			c-0.959,3.969-3.437,6.349-7.61,6.864c-4.124,0.51-8.238,1.121-12.664,1.726c-0.807-3.48-1.706-6.938-1.279-10.914
			c3.497-0.51,6.94-1.019,10.391-1.505c1.45-0.204,3.22-0.313,2.747-2.359c-0.351-1.522-1.829-1.344-3.206-1.164
			c-6.063,0.805-11.041,3.447-14.056,8.859c-4.224,7.591-10.792,10.299-19.11,10.394c-4.797,0.06-8.008-1.745-9.771-6.105
			c-1.59-3.934-2.107-7.956-1.135-12.202c0.906-3.94,3.386-6.177,7.082-6.927c3.586-0.727,7.272-0.936,11.266-1.417
			c0.558,3.628,2.304,6.907,0.805,10.545c-3.346,1.942-8.182-0.181-11.232,3.621c3.07,2.754,5.623,0.884,8.046,0.112
			C373.752,309.205,373.92,308.712,374.162,306.277z"/>
		<path fill-rule="evenodd" clip-rule="evenodd" fill="#111111" d="M78.321,322.096c4.404-1.259,8.725,1.252,12.6-1.531
			c-3.313-2.948-7.989-2.927-11.923,0.043c-2.411,1.824-4.551,4.025-6.7,6.175c-4.889,4.893-18.688,7.084-24.761,3.861
			c-4.292-2.284-6.29-9.241-4.575-15.951c1.611-6.31,4.259-8.573,10.352-8.518c3.979,0.039,7.955,0.358,12.142,0.562
			c0,3.565,0,7.017,0,10.739c2.566-0.286,3.713-2.425,4.968-3.989c5.975-7.437,13.99-6.927,21.998-5.62
			c3.806,0.622,5.679,4.039,6.497,7.628c0.868,3.815,0.601,7.708-0.849,11.343c-1.544,3.874-4.278,6.234-8.833,5.99
			c-3.505-0.187-7.028-0.036-10.765-0.036C77.546,329.096,78.394,325.688,78.321,322.096z M64.484,318.242
			c-4.459-0.611-8.951-1.853-13.286,0.644C55.691,322.188,60.097,320.421,64.484,318.242z"/>
		<path fill-rule="evenodd" clip-rule="evenodd" fill="#111111" d="M354.512,215.524c-4.387-0.147-7.798,2.917-8.627,7.877
			c-0.552,3.296-0.719,6.671-0.824,10.015c-0.203,6.557-8.54,17.506-14.784,19.221c-4.817,1.321-11.351-2.419-14.794-8.472
			c-2.958-5.198-2.266-9.815,2.178-13.749c2.849-2.521,5.792-4.942,8.966-7.64c2.491,2.836,4.773,5.429,7.003,7.962
			c-2.781,4.16-7.977,5.784-9.777,11.035c4.199,0.503,5.79-2.313,7.588-4.515c3.713-4.548,3.393-10.135,3.603-15.541
			c0.262-6.763,6.335-15.086,12.596-17.15c4.948-1.629,11.03,1.61,14.988,7.989c3.07,4.952,2.629,9.396-1.513,13.395
			c-2.396,2.317-4.972,4.449-7.653,6.829c-2.701-2.481-5.001-5.024-7.022-7.952C348.417,221.163,353.013,219.746,354.512,215.524z"
			/>
		<path fill-rule="evenodd" clip-rule="evenodd" fill="#111111" d="M116.79,189.671c3.907-2.967,7.568-5.748,11.586-8.801
			c12.667,13.254,25.211,26.375,38.116,39.878c-3.122,2.372-5.886,4.476-9.146,6.96c-3.243-3.569-6.493-7.147-9.688-10.664
			c-1.801,0.085-2.625,1.414-4.114,2.37c2.428,4.202,4.847,8.399,7.357,12.75c-2.494,2.418-5.001,4.265-7.979,5.839
			C134.2,221.875,125.554,205.882,116.79,189.671z M139.194,212.073c1.055-0.625,2.908-1.192,1.926-2.24
			c-2.37-2.527-3.799-6.307-8.312-7.542C135.165,205.902,137.068,208.817,139.194,212.073z"/>
		<path fill-rule="evenodd" clip-rule="evenodd" fill="#111111" d="M140.374,422.628c3.986,3.294,7.417,6.126,11.238,9.283
			c-9.878,15.416-19.684,30.71-29.776,46.456c-3.036-2.513-5.918-4.899-8.882-7.35c2.859-4.197,5.53-8.117,8.308-12.189
			c-1.236-1.097-2.264-2.007-4.012-3.559c-3.155,3.792-6.208,7.466-9.409,11.321c-3.214-2.55-5.553-4.406-8.57-6.806
			C113.02,447.358,126.562,435.114,140.374,422.628z M125.73,451.706c2.652-3.047,5.12-6.008,6.553-9.658
			C125.129,447.364,124.321,448.57,125.73,451.706z"/>
		<path fill-rule="evenodd" clip-rule="evenodd" fill="#111111" d="M306.038,233.088c-3.431-2.228-6.355-4.125-9.638-6.254
			c2.356-4.429,4.647-8.743,6.99-13.157c-1.303-0.841-2.484-1.61-3.929-2.541c-3.144,3.737-6.195,7.362-9.575,11.373
			c-2.689-1.728-5.273-3.391-8.322-5.353c12.335-13.906,24.392-27.492,36.735-41.405c4.094,2.642,8.061,5.206,12.27,7.923
			C322.427,200.079,314.362,216.319,306.038,233.088z M313.773,194.894c-0.303-0.237-0.602-0.473-0.903-0.71
			c-2.206,2.842-4.424,5.675-6.612,8.531c-0.653,0.848-1.697,1.761-0.25,2.763c1.404,0.97,1.87-0.088,2.449-1.153
			C310.178,201.153,311.997,198.035,313.773,194.894z"/>
		<path fill-rule="evenodd" clip-rule="evenodd" fill="#111111" d="M195.982,452.661c4.692,0.884,9.181,1.729,14.291,2.692
			c-1.382,18.179-2.76,36.295-4.16,54.704c-3.904-0.233-7.377-1.099-11.154-2.229c0.497-4.827,0.983-9.543,1.456-14.146
			c-1.496-0.903-2.836-1.291-4.719-0.92c-1.417,4.305-2.889,8.78-4.361,13.249c-3.309,0.733-6.04-1.222-9.95-0.939
			C183.639,487.449,189.683,470.417,195.982,452.661z M197.539,472.729c-1.064,3.853-2.125,7.704-3.19,11.556
			c0.611,0.177,1.219,0.354,1.831,0.532C198.982,481.431,198.091,476.942,197.539,472.729z"/>
		<path fill-rule="evenodd" clip-rule="evenodd" fill="#111111" d="M101.625,358.852c-17.644,5.543-34.801,10.936-52.375,16.46
			c-0.752-3.825-1.445-7.361-2.205-11.209c4.828-1.386,9.368-2.688,13.861-3.977c0.424-1.655-0.003-2.977-0.608-4.637
			c-4.71,0.221-9.454,0.444-14.479,0.684c-0.75-3.003-1.89-5.925-1.437-9.539c18.163-0.677,36.2-1.351,54.653-2.041
			C99.917,349.47,100.756,354.081,101.625,358.852z M81.204,354.698c-3.457-1.232-6.869-0.762-10.286-0.173
			c-1.183,0.203-2.268,0.265-1.844,1.919c0.339,1.324,1.266,1.126,2.218,0.874C74.595,356.443,77.901,355.572,81.204,354.698z"/>
		<path fill-rule="evenodd" clip-rule="evenodd" fill="#111111" d="M205.374,151.993c3.339-0.516,6.147-0.946,9.786-1.509
			c0,18.413,0,36.568,0,55.077c-3.911,1.169-8.498,1.534-13.48,2.143c-4.794-17.575-9.556-35.041-14.439-52.947
			c3.868-0.598,7.265-1.121,11.255-1.735c2.736,12.34,5.412,24.391,8.083,36.44c0.259-0.022,0.516-0.046,0.775-0.069
			C206.702,177.069,206.05,164.75,205.374,151.993z"/>
		<path fill-rule="evenodd" clip-rule="evenodd" fill="#111111" d="M282.319,159.383c3.588,1.127,6.733,2.113,10.315,3.237
			c-2.891,9.31-5.711,18.419-8.554,27.518c-1.57,5.027-3.053,10.088-4.804,15.051c-2.435,6.884-7.91,9.198-15.518,6.792
			c-7.936-2.511-10.841-7.084-8.905-14.3c0.989-3.682,2.248-7.29,3.497-11.295c3.476,1.075,6.725,2.083,10.069,3.119
			c0.252,2.853-1.483,5.021-1.742,7.512c-0.237,2.221-2.918,4.472,0.7,7.383C273.298,189.583,276.841,174.438,282.319,159.383z"/>
		<path fill-rule="evenodd" clip-rule="evenodd" fill="#111111" d="M168.733,160.211c1.186,2.655,2.08,4.67,2.974,6.671
			c-1.274,2.464-4.337,1.978-6.112,4.14c5.994,13.759,12.046,27.649,18.166,41.691c-2.83,2.52-6.415,3.27-9.925,4.876
			c-6.214-14.193-12.293-28.073-18.347-41.898c-2.661-0.489-4.314,1.564-6.631,1.923c-1.887-1.949-2.179-4.719-3.634-7.2
			C153.144,166.974,160.729,163.685,168.733,160.211z"/>
		<path fill-rule="evenodd" clip-rule="evenodd" fill="#111111" d="M363.819,345.895c-0.31,2.682-0.53,4.578-0.784,6.769
			c-2.467,0.565-4.898,0.115-7.883-0.642c0.779-8.327,1.545-16.552,2.357-25.279c2.634,0.354,5.075,0.684,7.679,1.035
			c0,2.429,0,4.613,0,7.089c15.284,1.511,30.416,3.01,46.073,4.561c-0.37,3.506-0.724,6.901-1.141,10.857
			C394.685,348.823,379.428,347.374,363.819,345.895z"/>
		<path fill-rule="evenodd" clip-rule="evenodd" fill="#111111" d="M83.799,224.334c2.316-2.886,4.505-5.606,6.951-8.649
			c12.139,9.75,24.051,19.315,35.94,28.862c2.849-1.482,3.753-4.752,6.47-6.891c2.008,1.58,3.96,3.115,6.24,4.909
			c-4.324,5.393-8.487,10.585-12.881,16.066C112.293,247.208,98.236,235.924,83.799,224.334z"/>
		<path fill-rule="evenodd" clip-rule="evenodd" fill="#BF4F3E" d="M254.652,245.792c0,8.222,0.003,16.046,0,23.875
			c0,8.179,0.191,16.368-0.095,24.537c-0.142,4.134,1.009,5.573,5.35,5.488c14.272-0.273,28.552-0.128,42.828-0.125
			c1.893,0.002,3.839-0.267,6.086,0.9c0,4.18,0,8.476,0,12.77c-0.006,12.031-0.149,24.064,0.069,36.092
			c0.066,3.821-1.18,4.952-4.92,4.902c-14.598-0.183-29.194-0.095-43.792-0.111c-1.58,0-3.157,0-5.313,0c0,17.922,0,35.486,0,53.498
			c-18.408,0-36.24,0-54.613,0c0-17.742,0-35.306,0-53.544c-18.221,0-35.92,0-53.853,0c0-18.396,0-36.105,0-54.303
			c17.89,0,35.463,0,53.666,0c0-18.166,0-35.856,0-53.979C218.39,245.792,236.092,245.792,254.652,245.792z M306.731,352.851
			c1.137-16.099,0.249-31.605,0.645-47.097c0.094-3.69-0.904-5.182-4.829-4.982c-5.92,0.306-11.869,0.079-17.806,0.095
			c-8.501,0.026-17.019-0.247-25.498,0.21c-5.215,0.279-5.793,0.244-5.934-4.926c-0.389-14.397,0.883-28.813-0.823-43.2
			c-0.496-4.167-2.336-6.069-6.382-6.072c-12.997-0.004-25.993,0.046-38.989-0.023c-4.072-0.023-5.791,1.89-5.74,5.846
			c0.075,5.773,0.035,11.55,0.045,17.327c0.017,8.344-0.286,16.705,0.167,25.021c0.289,5.257,0.296,5.843-4.988,5.837
			c-14.117-0.01-28.237-0.04-42.358-0.043c-5.837-0.003-6.786,0.917-6.8,6.644c-0.021,13.159,0.254,26.327-0.147,39.471
			c-0.157,5.155,1.673,6.076,6.306,5.991c14.275-0.277,28.557-0.115,42.839-0.088c5.77,0.009,6.692,1.12,5.855,6.809
			c-0.279,1.883-0.829,3.759-0.841,5.643c-0.078,11.873,0.013,23.745-0.075,35.621c-0.026,3.973,1.577,5.902,5.668,5.882
			c13.959-0.066,27.919-0.131,41.879,0.037c3.756,0.042,4.525-1.466,4.466-4.87c-0.184-10.588-0.026-21.179-0.079-31.77
			c-0.011-2.182-0.109-4.275-0.875-6.523c-1.042-3.063-0.125-6.678,1.141-9.566c1.114-2.546,4.352-1.203,6.618-1.219
			C275.583,352.805,290.967,352.851,306.731,352.851z"/>
		<path fill-rule="evenodd" clip-rule="evenodd" fill="#111111" d="M221.141,456.375c4.08-0.689,7.367-0.017,10.775,0.276
			c0,18.091,0,35.927,0,54.043c-3.72,0-7.155,0-10.775,0C221.141,492.575,221.141,474.599,221.141,456.375z"/>
		<path fill-rule="evenodd" clip-rule="evenodd" fill="#111111" d="M242.412,205.882c-3.759-0.188-7.064-0.352-10.995-0.549
			c1.398-18.195,2.776-36.124,4.193-54.566c3.818,0.302,7.226,0.572,10.985,0.867C245.209,169.62,243.834,187.427,242.412,205.882z"
			/>
		<path fill-rule="evenodd" clip-rule="evenodd" fill="#FBFBFB" d="M323.218,424.357c6.092-0.627,7.65,4.23,10.733,6.705
			c1.396,1.12,1.758,2.655-0.176,3.874C330.507,431.66,327.213,428.361,323.218,424.357z"/>
		<path fill-rule="evenodd" clip-rule="evenodd" fill="#FBFBFB" d="M101.55,380.849c-0.755,6.5-6.127,5.603-9.026,7.729
			c-1.916,1.406-3.573,1.045-4.524-1.627C92.133,385.088,96.281,383.222,101.55,380.849z"/>
		<path fill-rule="evenodd" clip-rule="evenodd" fill="#FBFBFB" d="M97.911,424.473c-0.641,0.285-1.279,0.578-2.106,0.949
			c0.401-1.771,1.015-2.248,2.168-0.963L97.911,424.473z"/>
		<path fill-rule="evenodd" clip-rule="evenodd" fill="#FBFBFB" d="M97.973,424.459c-0.28-0.25-0.559-0.499-0.838-0.749
			c0.197-0.151,0.391-0.302,0.588-0.457c0.059,0.408,0.115,0.813,0.181,1.22C97.911,424.473,97.973,424.459,97.973,424.459z"/>
		<path fill-rule="evenodd" clip-rule="evenodd" fill="#FBFBFB" d="M370.199,372.181c-6.663,2.583-10.535,1.721-12.93-2.465
			C361.868,368.51,365.083,371.832,370.199,372.181z"/>
		<path fill-rule="evenodd" clip-rule="evenodd" fill="#FBFBFB" d="M256.208,472.825c-4.195-2.231-4.49-5.859-5.311-9.152
			c-0.194-0.768,0.266-1.612,1.138-1.865c1.12-0.329,1.918,0.259,2.158,1.311C254.882,466.147,255.464,469.204,256.208,472.825z"/>
		<path fill-rule="evenodd" clip-rule="evenodd" fill="#FBFBFB" d="M374.162,306.277c-0.242,2.435-0.41,2.928-3.081,3.779
			c-2.423,0.772-4.976,2.642-8.046-0.112c3.051-3.802,7.887-1.679,11.232-3.621C374.262,306.32,374.162,306.277,374.162,306.277z"/>
		<path fill-rule="evenodd" clip-rule="evenodd" fill="#FBFBFB" d="M64.484,318.242c-4.387,2.179-8.793,3.946-13.286,0.644
			C55.533,316.389,60.025,317.63,64.484,318.242z"/>
		<path fill-rule="evenodd" clip-rule="evenodd" fill="#FBFBFB" d="M139.194,212.073c-2.126-3.256-4.03-6.171-6.386-9.783
			c4.512,1.236,5.942,5.015,8.312,7.542C142.103,210.88,140.249,211.448,139.194,212.073z"/>
		<path fill-rule="evenodd" clip-rule="evenodd" fill="#FBFBFB" d="M125.73,451.706c-1.41-3.136-0.602-4.342,6.553-9.658
			C130.851,445.698,128.383,448.659,125.73,451.706z"/>
		<path fill-rule="evenodd" clip-rule="evenodd" fill="#FBFBFB" d="M313.773,194.894c-1.776,3.142-3.596,6.259-5.316,9.431
			c-0.579,1.064-1.045,2.123-2.449,1.153c-1.447-1.002-0.403-1.916,0.25-2.763c2.188-2.855,4.406-5.688,6.612-8.531
			C313.172,194.42,313.471,194.657,313.773,194.894z"/>
		<path fill-rule="evenodd" clip-rule="evenodd" fill="#FBFBFB" d="M197.539,472.729c0.552,4.213,1.443,8.702-1.36,12.088
			c-0.612-0.178-1.22-0.355-1.831-0.532C195.414,480.433,196.475,476.582,197.539,472.729z"/>
		<path fill-rule="evenodd" clip-rule="evenodd" fill="#FBFBFB" d="M81.204,354.698c-3.303,0.875-6.609,1.746-9.912,2.619
			c-0.952,0.253-1.878,0.451-2.218-0.874c-0.424-1.654,0.661-1.716,1.844-1.919C74.335,353.936,77.747,353.465,81.204,354.698z"/>
		<path fill-rule="evenodd" clip-rule="evenodd" fill="#FE2A0A" d="M306.731,352.851c-15.764,0-31.149-0.046-46.535,0.053
			c-2.267,0.016-5.504-1.327-6.618,1.219c-1.266,2.888-2.182,6.504-1.141,9.566c0.766,2.248,0.864,4.341,0.875,6.523
			c0.053,10.591-0.105,21.182,0.079,31.77c0.06,3.404-0.709,4.913-4.466,4.87c-13.96-0.167-27.919-0.103-41.879-0.037
			c-4.091,0.02-5.694-1.909-5.668-5.882c0.088-11.875-0.003-23.748,0.075-35.621c0.013-1.883,0.563-3.76,0.841-5.643
			c0.837-5.688-0.085-6.799-5.855-6.809c-14.282-0.026-28.564-0.188-42.839,0.088c-4.633,0.085-6.463-0.835-6.306-5.991
			c0.401-13.144,0.126-26.312,0.147-39.471c0.015-5.727,0.963-6.647,6.8-6.644c14.121,0.004,28.241,0.033,42.358,0.043
			c5.284,0.006,5.277-0.58,4.988-5.837c-0.453-8.316-0.151-16.677-0.167-25.021c-0.01-5.777,0.03-11.554-0.045-17.327
			c-0.051-3.957,1.668-5.869,5.74-5.846c12.997,0.069,25.992,0.02,38.989,0.023c4.045,0.003,5.886,1.905,6.382,6.072
			c1.706,14.387,0.435,28.803,0.823,43.2c0.141,5.169,0.719,5.205,5.934,4.926c8.479-0.457,16.996-0.184,25.498-0.21
			c5.938-0.016,11.886,0.21,17.806-0.095c3.925-0.2,4.923,1.292,4.829,4.982C306.98,321.246,307.868,336.752,306.731,352.851z"/>
	</g>
</g>
</svg>
