<?xml version="1.0" encoding="UTF-8" standalone="no"?>
<svg
   xmlns:dc="http://purl.org/dc/elements/1.1/"
   xmlns:cc="http://creativecommons.org/ns#"
   xmlns:rdf="http://www.w3.org/1999/02/22-rdf-syntax-ns#"
   xmlns:svg="http://www.w3.org/2000/svg"
   xmlns="http://www.w3.org/2000/svg"
   viewBox="0 0 514.58667 514.58667"
   height="514.58667"
   width="514.58667"
   xml:space="preserve"
   id="svg2"
   version="1.1"><metadata
     id="metadata8"><rdf:RDF><cc:Work
         rdf:about=""><dc:format>image/svg+xml</dc:format><dc:type
           rdf:resource="http://purl.org/dc/dcmitype/StillImage" /><dc:title></dc:title></cc:Work></rdf:RDF></metadata><defs
     id="defs6" /><g
     transform="matrix(1.3333333,0,0,-1.3333333,0,514.58667)"
     id="g10"><g
       transform="scale(0.1)"
       id="g12"><path
         id="path14"
         style="fill:#ed192d;fill-opacity:1;fill-rule:nonzero;stroke:none"
         d="M 1588.02,1587.66 H 790.648 v 683.39 h 797.372 l -0.07,0.46 v 797.35 h 683.45 v -797.35 l -0.07,-0.3 h 797.4 v -683.44 h -797.4 l 0.07,0.11 V 790.512 h -683.45 v 797.368 l 0.07,-0.22" /><path
         id="path16"
         style="fill:#ed192d;fill-opacity:1;fill-rule:nonzero;stroke:none"
         d="m 1929.69,3267.93 c -737.91,0 -1338.249,-600.33 -1338.249,-1338.24 0,-737.92 600.339,-1338.249 1338.249,-1338.249 737.91,0 1338.25,600.329 1338.25,1338.249 0,737.91 -600.34,1338.24 -1338.25,1338.24 z m 0,-2726.489 c -765.49,0 -1388.249,622.759 -1388.249,1388.249 0,765.48 622.759,1388.24 1388.249,1388.24 765.49,0 1388.25,-622.76 1388.25,-1388.24 0,-765.49 -622.76,-1388.249 -1388.25,-1388.249" /><path
         id="path18"
         style="fill:#ed192d;fill-opacity:1;fill-rule:nonzero;stroke:none"
         d="M 1929.69,3809.38 C 893.223,3809.38 50,2966.16 50,1929.69 50,893.23 893.223,50 1929.69,50 c 1036.46,0 1879.69,843.23 1879.69,1879.69 0,1036.47 -843.23,1879.69 -1879.69,1879.69 z M 1929.69,0 C 865.652,0 0,865.648 0,1929.69 c 0,1064.04 865.652,1929.69 1929.69,1929.69 1064.04,0 1929.69,-865.65 1929.69,-1929.69 C 3859.38,865.648 2993.73,0 1929.69,0" /><path
         id="path20"
         style="fill:#ed192d;fill-opacity:1;fill-rule:nonzero;stroke:none"
         d="m 507.094,3001.05 80.781,-51.82 -4.453,-6.62 c -19.414,9 -40.922,10.13 -64.531,3.38 -23.61,-6.75 -42.614,-20.83 -57.004,-42.22 -9.782,-14.54 -14.289,-28.82 -13.524,-42.85 0.77,-14.04 6.321,-24.52 16.653,-31.48 9.41,-6.32 19.863,-7.71 31.371,-4.15 11.504,3.56 28.461,14.08 50.871,31.56 24.504,19.1 44.031,32.62 58.562,40.56 14.532,7.94 30.219,11.89 47.071,11.86 16.851,-0.03 32.418,-4.84 46.695,-14.45 21.832,-14.69 33.719,-35.31 35.684,-61.85 1.957,-26.54 -6.438,-53.75 -25.192,-81.62 -10.863,-16.14 -27.258,-32.1 -49.18,-47.89 -7.515,-5.4 -12.367,-9.73 -14.554,-12.98 -5.547,-8.25 -4.543,-18.03 3.015,-29.36 l -4.921,-7.32 -89.711,60.37 4.687,6.96 c 26.234,-11.92 51.863,-14.31 76.899,-7.2 25.031,7.12 45.05,21.82 60.05,44.12 11.328,16.84 16.914,32.65 16.742,47.45 -0.171,14.79 -6.234,26.21 -18.199,34.26 -11.726,7.89 -24.531,9.67 -38.414,5.34 -13.836,-4.52 -32.676,-15.72 -56.508,-33.59 -23.836,-17.87 -42.457,-30.31 -55.863,-37.32 -13.402,-7.01 -27.402,-10.33 -41.996,-9.95 -14.598,0.37 -28.398,4.93 -41.402,13.68 -20.094,13.52 -31.731,32.78 -34.899,57.77 -3.172,25 3.364,49.58 19.621,73.74 11.328,16.83 27.563,31.8 48.696,44.92 10.238,6.43 16.488,11.34 18.757,14.71 5.707,8.47 2.29,16.93 -10.257,25.37 l 4.453,6.62" /><path
         id="path22"
         style="fill:#ed192d;fill-opacity:1;fill-rule:nonzero;stroke:none"
         d="m 873.02,2974.48 5.793,-5.17 -100.997,-113.06 -5.789,5.18 6.465,7.24 c 7.969,8.92 11.278,17.09 9.938,24.51 -1.344,7.43 -7.285,15.85 -17.828,25.27 l -150.004,134.01 c -10.332,9.23 -19.328,14.24 -26.969,15.04 -7.645,0.79 -15.547,-3.38 -23.695,-12.51 l -6.473,-7.24 -5.789,5.18 100.988,113.05 5.797,-5.18 -6.434,-7.2 c -7.929,-8.87 -11.238,-17.04 -9.921,-24.5 1.312,-7.46 7.347,-15.99 18.093,-25.6 l 150.004,-134 c 10.231,-9.14 19.133,-14.09 26.711,-14.86 7.578,-0.76 15.469,3.45 23.676,12.64 l 6.434,7.2" /><path
         id="path24"
         style="fill:#ed192d;fill-opacity:1;fill-rule:nonzero;stroke:none"
         d="m 785.484,3261.93 77.836,-93.1 4.219,3.53 c 10.805,9.03 17.633,17.28 20.469,24.77 2.836,7.48 2.851,16.52 0.039,27.12 -2.805,10.61 -9,23.4 -18.578,38.38 l 5.957,4.98 96.289,-115.17 -5.961,-4.98 c -13.293,12.6 -25.109,20.97 -35.445,25.1 -10.336,4.12 -19.293,5.17 -26.864,3.13 -7.566,-2.04 -16.215,-7.12 -25.941,-15.26 l -4.219,-3.52 59.625,-71.32 c 8.723,-10.43 15.938,-16.28 21.645,-17.54 5.715,-1.25 13.195,1.99 22.437,9.72 l 21.617,18.07 c 36.351,30.38 44.281,69.85 23.791,118.4 l 5.64,4.71 48.13,-78.52 -196.846,-164.57 -4.984,5.96 8.703,7.27 c 7.191,6.02 11.652,12.57 13.383,19.68 1.726,7.09 -2.981,17.3 -14.113,30.62 l -129.008,154.32 c -10.95,13.1 -20.196,19.52 -27.719,19.24 -7.527,-0.27 -14.832,-3.36 -21.918,-9.29 l -8.703,-7.27 -4.981,5.96 191.047,159.71 53.598,-64.11 -5.961,-4.98 c -13.176,11.17 -26.332,18.4 -39.484,21.69 -13.145,3.29 -24.774,2.8 -34.887,-1.48 -10.113,-4.27 -22.797,-12.77 -38.043,-25.52 l -30.77,-25.73" /><path
         id="path26"
         style="fill:#ed192d;fill-opacity:1;fill-rule:nonzero;stroke:none"
         d="m 1050.04,3450.18 62.49,-113.24 14.35,7.92 c 20.58,11.36 32.08,24.34 34.48,38.96 2.4,14.62 -1.16,30.59 -10.72,47.89 -7.92,14.37 -16.86,24.4 -26.81,30.13 -9.95,5.71 -19.83,7.91 -29.65,6.57 -9.81,-1.33 -21.52,-5.75 -35.13,-13.26 z m 70,-126.84 45.65,-82.72 c 6.02,-10.91 12.47,-17.1 19.36,-18.57 6.89,-1.48 16.52,1.2 28.9,8.03 l 3.86,2.13 3.76,-6.8 -132.36,-73.04 -3.75,6.8 3.68,2.03 c 12.25,6.76 19.68,13.43 22.3,19.98 2.61,6.56 0.85,15.42 -5.31,26.57 l -103.67,187.87 c -6.155,11.15 -12.71,17.37 -19.651,18.66 -6.946,1.28 -16.543,-1.46 -28.801,-8.22 l -3.676,-2.03 -3.754,6.8 128.492,70.91 c 34.93,19.28 63.82,26.25 86.65,20.94 22.84,-5.32 39.81,-18.03 50.9,-38.13 8.94,-16.19 11.59,-32.24 7.98,-48.15 -3.61,-15.91 -13.5,-31.69 -29.66,-47.32 l 100.26,-55.61 c 23.9,-13.18 40.92,-17.38 51.07,-12.58 l 3.75,-6.8 -75.56,-41.7 -138.84,77.34 -11.58,-6.39" /><path
         id="path28"
         style="fill:#ed192d;fill-opacity:1;fill-rule:nonzero;stroke:none"
         d="m 1369.56,3594.76 38.62,-123.44 15.63,4.89 c 22.44,7.03 36.3,17.46 41.58,31.31 5.27,13.84 4.96,30.19 -0.95,49.06 -4.89,15.65 -11.65,27.28 -20.26,34.87 -8.61,7.59 -17.85,11.71 -27.74,12.36 -9.88,0.65 -22.24,-1.34 -37.06,-5.98 z m 43.26,-138.26 28.22,-90.17 c 3.72,-11.9 8.81,-19.24 15.26,-22.07 6.46,-2.81 16.43,-2.12 29.93,2.11 l 4.2,1.32 2.32,-7.42 -144.27,-45.15 -2.32,7.42 4.01,1.25 c 13.36,4.18 21.97,9.22 25.85,15.13 3.87,5.9 3.9,14.93 0.1,27.09 l -64.09,204.79 c -3.8,12.15 -8.98,19.55 -15.53,22.2 -6.54,2.64 -16.5,1.87 -29.85,-2.31 l -4.01,-1.25 -2.32,7.42 140.06,43.82 c 38.07,11.92 67.77,12.99 89.08,3.23 21.32,-9.77 35.41,-25.61 42.27,-47.53 5.52,-17.65 4.92,-33.9 -1.8,-48.77 -6.71,-14.87 -19.55,-28.36 -38.5,-40.45 l 87.13,-74.5 c 20.79,-17.69 36.64,-25.2 47.53,-22.52 l 2.32,-7.41 -82.36,-25.78 -120.6,103.5 -12.63,-3.95" /><path
         id="path30"
         style="fill:#ed192d;fill-opacity:1;fill-rule:nonzero;stroke:none"
         d="m 1781.54,3498.29 -50.34,94.68 -30.8,-103.05 z m 7.87,-14.81 -93.83,-9.68 -10.6,-35.49 c -2.51,-8.42 -3.53,-14.93 -3.06,-19.52 0.82,-7.95 4.22,-13.3 10.21,-16.06 5.99,-2.75 15.96,-3.55 29.92,-2.39 l 0.8,-7.73 -94.2,-9.72 -0.79,7.73 c 18.61,2.34 33.65,22.96 45.12,61.86 l 72.32,244.28 4.17,0.43 127.01,-236.81 c 14.84,-27.88 30.33,-40.99 46.48,-39.32 l 0.8,-7.72 -137.21,-14.16 -0.8,7.72 5.22,0.55 c 19.35,1.99 28.52,7.93 27.5,17.82 -0.27,2.64 -1.91,6.9 -4.91,12.79 l -24.15,45.42" /><path
         id="path32"
         style="fill:#ed192d;fill-opacity:1;fill-rule:nonzero;stroke:none"
         d="m 2309.38,3466.56 -26.1,-97.91 -256.12,40.48 1.21,7.67 14.52,-2.3 c 11.75,-1.85 20.37,-0.21 25.86,4.95 5.49,5.16 9.34,14.71 11.54,28.68 l 31.4,198.68 c 2.17,13.68 1.52,23.95 -1.93,30.8 -3.45,6.85 -11.2,11.23 -23.22,13.13 l -14.52,2.3 1.21,7.67 164.67,-26.02 -1.21,-7.67 -19.91,3.14 c -11.75,1.86 -20.37,0.21 -25.86,-4.95 -5.5,-5.15 -9.37,-14.85 -11.61,-29.09 l -30.81,-194.94 c -2.17,-13.69 -2.07,-23.2 0.28,-28.53 2.34,-5.33 9.54,-8.95 21.59,-10.85 l 28.24,-4.46 c 15.24,-2.41 28.58,-2.15 40.04,0.79 11.47,2.93 22.62,9.96 33.45,21.07 10.84,11.11 20.71,27.3 29.61,48.57 l 7.67,-1.21" /><path
         id="path34"
         style="fill:#ed192d;fill-opacity:1;fill-rule:nonzero;stroke:none"
         d="m 2498.06,3591.73 -40.84,-114.27 5.17,-1.85 c 13.26,-4.75 23.84,-6.45 31.73,-5.1 7.88,1.34 15.68,5.91 23.41,13.7 7.72,7.8 15.61,19.62 23.67,35.47 l 7.32,-2.62 -50.53,-141.36 -7.32,2.61 c 4.14,17.85 5.37,32.28 3.7,43.28 -1.68,11 -5.33,19.25 -10.91,24.74 -5.6,5.49 -14.37,10.38 -26.3,14.65 l -5.18,1.84 -31.29,-87.53 c -4.57,-12.81 -5.95,-21.99 -4.15,-27.55 1.81,-5.56 8.39,-10.36 19.74,-14.42 l 26.53,-9.49 c 44.61,-15.94 82.66,-2.78 114.14,39.47 l 6.93,-2.47 -43.33,-81.28 -241.6,86.35 2.61,7.32 10.68,-3.82 c 8.82,-3.15 16.74,-3.68 23.74,-1.57 7,2.11 13.41,11.33 19.25,27.68 l 67.71,189.41 c 5.74,16.08 6.59,27.29 2.55,33.65 -4.05,6.35 -10.42,11.08 -19.12,14.18 l -10.68,3.82 2.62,7.32 234.48,-83.82 -28.12,-78.68 -7.32,2.61 c 2.96,17.02 2.53,32.03 -1.3,45.03 -3.82,13 -10.14,22.78 -18.94,29.33 -8.81,6.56 -22.57,13.18 -41.29,19.87 l -37.76,13.5" /><path
         id="path36"
         style="fill:#ed192d;fill-opacity:1;fill-rule:nonzero;stroke:none"
         d="m 2847.21,3268.43 c 23.88,38.89 35.72,72.72 35.5,101.52 -0.21,28.8 -10.69,49.57 -31.44,62.32 -21,12.9 -44.26,13.14 -69.79,0.73 -25.52,-12.4 -49.83,-37.39 -72.91,-74.96 -21.39,-34.83 -32.76,-67.1 -34.11,-96.83 -1.34,-29.73 8.96,-51.34 30.9,-64.82 21.48,-13.19 45.02,-13.37 70.66,-0.53 25.62,12.84 49.35,37.03 71.19,72.57 z m 66.39,-38.32 c -22.56,-36.73 -53.84,-59.98 -93.84,-69.74 -40.01,-9.76 -80.46,-2.07 -121.37,23.05 -24.93,15.32 -44.25,33.88 -57.95,55.69 -13.71,21.81 -20.92,46.77 -21.63,74.89 -0.71,28.12 7.5,56.14 24.65,84.04 17.36,28.27 39,48.32 64.92,60.16 25.92,11.84 51.95,16.18 78.09,13.01 26.16,-3.17 50.32,-11.56 72.5,-25.19 39.48,-24.25 64.46,-56.52 74.95,-96.81 10.48,-40.28 3.72,-79.99 -20.32,-119.1" /><path
         id="path38"
         style="fill:#ed192d;fill-opacity:1;fill-rule:nonzero;stroke:none"
         d="m 3120.59,3242.62 -12.64,-255.13 94.2,96.87 c 13.2,13.57 20.08,24.85 20.6,33.83 0.53,8.98 -5.47,19.57 -18.01,31.77 l 5.41,5.56 69.09,-67.18 -5.42,-5.57 c -7.02,6.63 -13.81,10.59 -20.35,11.89 -6.56,1.29 -12.56,0.49 -18.01,-2.4 -5.46,-2.9 -12.82,-9.12 -22.09,-18.65 l -169.5,-174.31 -5.57,5.42 15.86,328.01 -134.84,-138.66 c -7.74,-7.94 -12.44,-15.11 -14.15,-21.47 -1.7,-6.37 -1.23,-12.31 1.41,-17.82 2.65,-5.51 8.6,-12.96 17.83,-22.33 l -5.42,-5.56 -74.35,72.31 5.41,5.56 c 11.03,-10.33 20.92,-15.54 29.64,-15.6 8.71,-0.07 18.21,5.17 28.47,15.73 l 147.13,151.3 c 0.02,3.63 0.04,6.96 0.06,10 0.67,17.95 -2.78,30.97 -10.32,39.07 l 5.41,5.57 70.15,-68.21" /><path
         id="path40"
         style="fill:#ed192d;fill-opacity:1;fill-rule:nonzero;stroke:none"
         d="m 3365.46,2941.13 -100.11,-68.59 3.11,-4.54 c 7.96,-11.62 15.52,-19.2 22.7,-22.74 7.17,-3.54 16.17,-4.41 27,-2.63 10.82,1.78 24.15,6.73 39.97,14.84 l 4.4,-6.41 -123.84,-84.85 -4.39,6.4 c 13.82,12.03 23.27,23 28.37,32.89 5.09,9.9 6.99,18.71 5.68,26.44 -1.31,7.73 -5.55,16.82 -12.72,27.28 l -3.1,4.53 -76.68,-52.54 c -11.22,-7.69 -17.73,-14.31 -19.52,-19.88 -1.8,-5.56 0.71,-13.31 7.52,-23.26 l 15.93,-23.24 c 26.77,-39.08 65.31,-50.74 115.59,-34.98 l 4.15,-6.06 -82.76,-40.42 -145.02,211.65 6.4,4.39 6.41,-9.35 c 5.3,-7.74 11.41,-12.8 18.31,-15.2 6.9,-2.4 17.51,1.31 31.83,11.12 l 165.93,113.7 c 14.08,9.64 21.35,18.23 21.8,25.75 0.44,7.52 -1.94,15.09 -7.17,22.71 l -6.4,9.36 6.4,4.39 140.76,-205.42 -68.93,-47.24 -4.39,6.41 c 12.38,12.05 20.83,24.46 25.36,37.23 4.52,12.77 5.14,24.4 1.85,34.87 -3.28,10.48 -10.54,23.92 -21.77,40.31 l -22.67,33.08" /><path
         id="path42"
         style="fill:#ed192d;fill-opacity:1;fill-rule:nonzero;stroke:none"
         d="m 445.137,1709.66 -127.465,-21.91 2.773,-16.14 c 3.985,-23.18 12.485,-38.29 25.508,-45.36 13.024,-7.07 29.277,-8.92 48.758,-5.57 16.168,2.77 28.582,7.93 37.246,15.46 8.664,7.53 13.977,16.14 15.934,25.85 1.957,9.71 1.621,22.22 -1.012,37.54 z m -142.778,-24.55 -93.121,-16.01 c -12.273,-2.11 -20.238,-6.18 -23.89,-12.2 -3.649,-6.03 -4.278,-16.01 -1.879,-29.94 l 0.746,-4.35 -7.656,-1.31 -25.621,148.99 7.656,1.31 0.715,-4.13 c 2.371,-13.8 6.222,-23.01 11.566,-27.63 5.336,-4.62 14.281,-5.85 26.84,-3.69 l 211.473,36.35 c 12.55,2.16 20.574,6.31 24.066,12.46 3.488,6.13 4.047,16.1 1.68,29.9 l -0.715,4.13 7.656,1.32 24.867,-144.64 c 6.766,-39.32 3.887,-68.89 -8.617,-88.72 -12.512,-19.84 -30.078,-31.7 -52.715,-35.59 -18.222,-3.13 -34.254,-0.39 -48.101,8.24 -13.848,8.64 -25.512,23.15 -34.985,43.54 l -85.394,-76.48 c -20.293,-18.27 -29.84,-32.97 -28.629,-44.14 l -7.656,-1.3 -14.625,85.03 118.582,105.83 -2.243,13.03" /><path
         id="path44"
         style="fill:#ed192d;fill-opacity:1;fill-rule:nonzero;stroke:none"
         d="M 519.355,1416.64 406,1373.29 l 1.965,-5.13 c 5.027,-13.16 10.621,-22.3 16.769,-27.41 6.157,-5.12 14.7,-8.07 25.649,-8.86 10.941,-0.79 25.051,0.91 42.328,5.1 l 2.777,-7.26 -140.218,-53.61 -2.782,7.25 c 16.242,8.47 27.996,16.93 35.262,25.37 7.266,8.42 11.16,16.56 11.691,24.37 0.536,7.82 -1.461,17.66 -5.988,29.5 l -1.965,5.13 -86.824,-33.2 c -12.707,-4.86 -20.582,-9.78 -23.625,-14.77 -3.047,-4.99 -2.41,-13.11 1.891,-24.37 l 10.062,-26.32 c 16.918,-44.25 51.672,-64.58 104.242,-60.99 l 2.625,-6.86 -89.914,-19.99 -91.632,239.64 7.253,2.78 4.051,-10.59 c 3.348,-8.76 8.098,-15.12 14.254,-19.05 6.149,-3.95 17.336,-2.81 33.547,3.39 l 187.875,71.83 c 15.953,6.1 25.02,12.76 27.211,19.96 2.187,7.21 1.637,15.12 -1.664,23.75 l -4.047,10.59 7.254,2.77 88.937,-232.58 -78.05,-29.85 -2.778,7.26 c 14.852,8.83 25.969,18.92 33.348,30.28 7.383,11.37 10.695,22.53 9.945,33.48 -0.754,10.95 -4.672,25.71 -11.773,44.27 l -14.321,37.47" /><path
         id="path46"
         style="fill:#ed192d;fill-opacity:1;fill-rule:nonzero;stroke:none"
         d="M 636.305,1167.68 441.625,1043.9 c -11.707,-7.44 -18.344,-13.87 -19.895,-19.26 -1.558,-5.39 1.383,-13.94 8.836,-25.652 16.399,-25.789 37.715,-39.398 63.961,-40.828 26.239,-1.43 57.344,9.289 93.317,32.16 38.328,24.37 62.586,49.65 72.781,75.81 10.191,26.17 6.34,53.34 -11.566,81.49 z m -294.469,-58.09 6.555,4.16 4.73,-7.44 c 5.027,-7.92 10.957,-13.19 17.774,-15.82 6.808,-2.63 17.543,0.71 32.191,10.02 l 169.742,107.92 c 11.692,7.43 18.965,14.72 21.82,21.84 2.848,7.12 1.012,15.82 -5.523,26.09 l -4.73,7.44 6.55,4.17 75.254,-118.36 c 17.199,-27.04 28.352,-52.67 33.457,-76.87 5.106,-24.21 2.231,-49.88 -8.625,-77.021 -10.859,-27.137 -30.996,-50.059 -60.41,-68.758 -22.086,-14.039 -44.226,-22.281 -66.41,-24.691 -22.191,-2.411 -42.492,-0.02 -60.914,7.179 -18.43,7.192 -33.832,17.012 -46.223,29.449 -12.39,12.442 -25.722,29.883 -39.988,52.332 l -75.25,118.36" /><path
         id="path48"
         style="fill:#ed192d;fill-opacity:1;fill-rule:nonzero;stroke:none"
         d="m 1053.39,731.18 -65.542,-74.071 -6.289,5.571 c 14.418,23.691 19.171,46.492 14.269,68.402 -4.906,21.906 -14.805,39.457 -29.683,52.637 -13,11.5 -28.036,18.16 -45.098,20 -17.07,1.832 -35.406,-1.52 -55.016,-10.051 -19.609,-8.539 -39.945,-24.699 -61.004,-48.488 -30.89,-34.91 -46.867,-66.43 -47.925,-94.551 -1.063,-28.129 8.367,-51.008 28.285,-68.629 14.773,-13.078 32.308,-21.359 52.601,-24.828 20.293,-3.473 39.055,-2.551 56.282,2.769 L 877.434,540.91 c -43.352,-4.629 -81.481,7.621 -114.399,36.75 -36.371,32.192 -55.199,68.578 -56.48,109.149 -1.289,40.582 11.336,75.863 37.871,105.839 29.219,33.024 65.656,50.903 109.32,53.661 43.656,2.769 80.742,-9.34 111.242,-36.34 15.2,-13.449 28.567,-31.828 40.102,-55.117 4.66,-9.731 8.93,-16.313 12.81,-19.75 8.38,-7.411 18.12,-6.872 29.2,1.636 l 6.29,-5.558" /><path
         id="path50"
         style="fill:#ed192d;fill-opacity:1;fill-rule:nonzero;stroke:none"
         d="m 1147.65,648.75 -64.79,-111.93 14.18,-8.199 c 20.35,-11.781 37.4,-14.93 51.17,-9.449 13.76,5.469 25.6,16.758 35.5,33.867 8.22,14.199 12.21,27.031 11.98,38.512 -0.24,11.48 -3.45,21.07 -9.65,28.801 -6.21,7.718 -16.04,15.476 -29.48,23.257 z m -72.57,-125.379 -47.33,-81.762 c -6.25,-10.789 -8.22,-19.519 -5.93,-26.179 2.29,-6.66 9.55,-13.532 21.79,-20.61 l 3.82,-2.211 -3.89,-6.73 -130.845,75.742 3.891,6.719 3.641,-2.102 c 12.109,-7.019 21.652,-9.957 28.621,-8.808 6.968,1.14 13.64,7.218 20.023,18.25 l 107.489,185.711 c 6.38,11.027 8.33,19.847 5.86,26.461 -2.49,6.609 -9.78,13.418 -21.9,20.437 l -3.63,2.102 3.89,6.718 127.02,-73.519 c 34.52,-19.981 55.4,-41.129 62.62,-63.442 7.23,-22.296 5.09,-43.398 -6.42,-63.277 -9.26,-16 -21.64,-26.551 -37.13,-31.66 -15.5,-5.109 -34.11,-4.781 -55.84,1.008 l 4.06,-114.571 c 1.03,-27.277 6.21,-44.027 15.56,-50.25 l -3.89,-6.718 -74.69,43.23 -5.34,158.84 -11.45,6.621" /><path
         id="path52"
         style="fill:#ed192d;fill-opacity:1;fill-rule:nonzero;stroke:none"
         d="m 1510.33,346.461 c 13.88,43.469 17.26,79.16 10.16,107.07 -7.11,27.91 -22.26,45.571 -45.47,52.969 -23.47,7.5 -46.1,2.16 -67.92,-16 -21.81,-18.16 -39.42,-48.25 -52.83,-90.25 -12.43,-38.941 -15.74,-73 -9.92,-102.18 5.81,-29.191 20.99,-47.699 45.52,-55.539 24.01,-7.652 46.91,-2.179 68.72,16.418 21.81,18.602 39.06,47.77 51.74,87.512 z m 73.64,-21.313 c -13.11,-41.058 -37.91,-71.128 -74.41,-90.179 -36.5,-19.071 -77.62,-21.289 -123.35,-6.688 -27.88,8.899 -51.07,22.289 -69.61,40.18 -18.53,17.891 -31.51,40.398 -38.94,67.527 -7.43,27.133 -6.16,56.301 3.8,87.5 10.09,31.602 26.3,56.262 48.63,73.973 22.32,17.687 46.56,28.141 72.71,31.328 26.14,3.191 51.61,0.82 76.41,-7.098 44.14,-14.089 76.13,-39.429 95.96,-76.031 19.83,-36.601 22.76,-76.769 8.8,-120.512" /><path
         id="path54"
         style="fill:#ed192d;fill-opacity:1;fill-rule:nonzero;stroke:none"
         d="m 1862.08,450.27 -8.36,-95.61 -7.93,0.871 c -1.05,21.367 -10.04,40.949 -26.99,58.707 -16.94,17.782 -38.24,28.063 -63.87,30.871 -17.42,1.911 -32.16,-0.738 -44.23,-7.937 -12.07,-7.192 -18.78,-16.981 -20.13,-29.363 -1.24,-11.27 2.39,-21.168 10.89,-29.707 8.5,-8.532 25.69,-18.661 51.59,-30.391 28.3,-12.82 49.34,-23.832 63.12,-33.012 13.78,-9.187 24.57,-21.238 32.37,-36.179 7.8,-14.93 10.77,-30.961 8.89,-48.059 -2.86,-26.16 -15.59,-46.27 -38.18,-60.332 -22.59,-14.07 -50.59,-19.277 -83.98,-15.609 -19.34,2.121 -41.1,9.218 -65.26,21.3 -8.28,4.141 -14.36,6.43 -18.26,6.852 -9.87,1.078 -18.08,-4.352 -24.59,-16.313 l -8.77,0.961 11.78,107.489 8.34,-0.918 c 1.64,-28.77 11.42,-52.582 29.35,-71.43 17.93,-18.871 40.25,-29.762 66.97,-32.691 20.17,-2.211 36.77,0.199 49.79,7.218 13.02,7.032 20.32,17.703 21.88,32.032 1.55,14.05 -2.82,26.218 -13.11,36.5 -10.43,10.152 -29.1,21.628 -56,34.441 -26.9,12.801 -46.56,23.508 -59,32.129 -12.43,8.609 -21.88,19.461 -28.33,32.558 -6.45,13.102 -8.81,27.442 -7.11,43.024 2.64,24.066 14.28,43.316 34.95,57.75 20.65,14.418 45.45,20.039 74.39,16.879 20.18,-2.219 40.99,-9.641 62.41,-22.262 10.46,-6.078 17.71,-9.328 21.75,-9.769 10.15,-1.11 16.05,5.839 17.7,20.871 l 7.93,-0.871" /><path
         id="path56"
         style="fill:#ed192d;fill-opacity:1;fill-rule:nonzero;stroke:none"
         d="m 2112.82,459.949 7.66,-95.668 -7.97,-0.472 c -4.58,20.91 -16.71,38.711 -36.38,53.421 -19.66,14.7 -42.36,21.309 -68.11,19.821 -17.49,-1.02 -31.58,-6.082 -42.29,-15.192 -10.7,-9.097 -15.69,-19.871 -14.97,-32.3 0.66,-11.321 5.88,-20.481 15.69,-27.481 9.79,-7.008 28.43,-14.137 55.91,-21.387 30.04,-7.941 52.62,-15.3 67.74,-22.062 15.11,-6.758 27.76,-16.859 37.94,-30.289 10.17,-13.422 15.76,-28.738 16.75,-45.91 1.53,-26.27 -7.68,-48.219 -27.61,-65.84 -19.94,-17.629 -46.68,-27.418 -80.22,-29.371 -19.42,-1.117 -42.06,2.269 -67.89,10.16 -8.86,2.703 -15.23,3.953 -19.15,3.73 -9.92,-0.578 -17.1,-7.308 -21.54,-20.187 l -8.8,-0.5 -6.26,107.937 8.38,0.493 c 6.4,-28.09 20.01,-49.954 40.82,-65.563 20.81,-15.617 44.64,-22.648 71.46,-21.098 20.27,1.18 36.23,6.309 47.9,15.399 11.67,9.09 17.09,20.832 16.26,35.23 -0.82,14.11 -7.15,25.379 -19,33.809 -11.97,8.281 -32.29,16.492 -60.95,24.641 -28.65,8.152 -49.83,15.441 -63.52,21.871 -13.69,6.429 -24.81,15.558 -33.35,27.398 -8.54,11.852 -13.26,25.602 -14.17,41.242 -1.4,24.18 6.88,45.098 24.86,62.758 17.97,17.652 41.5,27.32 70.56,29.012 20.26,1.179 42.01,-2.692 65.23,-11.563 11.33,-4.258 19.02,-6.258 23.07,-6.027 10.19,0.598 14.86,8.437 13.98,23.527 l 7.97,0.461" /><path
         id="path58"
         style="fill:#ed192d;fill-opacity:1;fill-rule:nonzero;stroke:none"
         d="m 2461.78,547.09 30.54,-90.981 -7.61,-2.371 c -9.5,19.172 -25.57,33.512 -48.21,43.024 -22.63,9.508 -46.27,10.437 -70.88,2.769 -16.73,-5.222 -29.18,-13.543 -37.37,-24.953 -8.18,-11.43 -10.42,-23.09 -6.72,-34.976 3.38,-10.832 10.67,-18.454 21.87,-22.883 11.2,-4.418 31,-6.828 59.42,-7.219 31.08,-0.449 54.76,-2.129 71.07,-5.031 16.3,-2.91 31.01,-9.649 44.13,-20.219 13.12,-10.57 22.24,-24.07 27.36,-40.5 7.83,-25.121 4.2,-48.648 -10.89,-70.57 -15.08,-21.93 -38.66,-37.879 -70.73,-47.879 -18.57,-5.789 -41.36,-7.969 -68.33,-6.563 -9.25,0.481 -15.73,0.153 -19.47,-1.008 -9.5,-2.96 -14.84,-11.218 -16.03,-24.8 l -8.43,-2.61 -32.16,103.231 8.01,2.5 c 13,-25.723 31.49,-43.633 55.46,-53.75 23.97,-10.129 48.79,-11.192 74.45,-3.192 19.37,6.039 33.63,14.879 42.75,26.52 9.13,11.641 11.55,24.351 7.26,38.109 -4.2,13.492 -13.08,22.903 -26.61,28.211 -13.62,5.141 -35.32,8.199 -65.09,9.18 -29.78,0.98 -52.09,2.941 -66.93,5.871 -14.84,2.918 -27.84,9.102 -38.98,18.52 -11.15,9.429 -19.06,21.621 -23.72,36.589 -7.21,23.121 -4.23,45.422 8.94,66.903 13.18,21.476 33.66,36.547 61.46,45.207 19.37,6.051 41.4,7.562 66.09,4.551 12.01,-1.379 19.96,-1.469 23.84,-0.27 9.76,3.051 12.38,11.781 7.89,26.211 l 7.62,2.379" /><path
         id="path60"
         style="fill:#ed192d;fill-opacity:1;fill-rule:nonzero;stroke:none"
         d="m 2787.81,534.898 c -21.96,40 -45.51,67.032 -70.64,81.102 -25.13,14.059 -48.37,15.238 -69.72,3.512 -21.59,-11.864 -33.32,-31.953 -35.16,-60.282 -1.86,-28.32 7.83,-61.8 29.05,-100.449 19.68,-35.832 42.1,-61.691 67.26,-77.562 25.17,-15.879 49.05,-17.617 71.62,-5.231 22.08,12.133 33.89,32.512 35.42,61.133 1.53,28.629 -7.75,61.219 -27.83,97.777 z m 66.16,38.731 c 20.76,-37.789 25.47,-76.481 14.16,-116.07 -11.31,-39.59 -38.01,-70.93 -80.09,-94.047 -25.65,-14.082 -51.34,-21.684 -77.07,-22.793 -25.74,-1.129 -51,4.972 -75.78,18.261 -24.8,13.301 -45.07,34.309 -60.83,63.02 -15.98,29.07 -22.69,57.801 -20.15,86.18 2.54,28.379 11.65,53.152 27.34,74.308 15.7,21.153 34.95,37.992 57.78,50.524 40.6,22.297 81.01,28.039 121.21,17.218 40.19,-10.832 71.34,-36.359 93.43,-76.601" /><path
         id="path62"
         style="fill:#ed192d;fill-opacity:1;fill-rule:nonzero;stroke:none"
         d="m 3003.17,904.219 64.92,-74.598 -6.34,-5.5 c -21.61,17.367 -43.61,25.051 -65.97,23.02 -22.36,-2.02 -41.04,-9.551 -56.03,-22.59 -13.1,-11.403 -21.66,-25.43 -25.7,-42.121 -4.03,-16.692 -3.09,-35.309 2.82,-55.852 5.91,-20.558 19.3,-42.816 40.16,-66.789 30.6,-35.168 59.77,-55.098 87.52,-59.801 27.75,-4.699 51.66,1.684 71.72,19.133 14.89,12.957 25.37,29.258 31.45,48.93 6.08,19.668 7.6,38.39 4.57,56.16 l 16.67,-19.16 c -1.03,-43.582 -18.13,-79.801 -51.29,-108.653 -36.64,-31.878 -75.16,-45.828 -115.56,-41.828 -40.4,3.989 -73.74,21.09 -100.02,51.289 -28.95,33.27 -41.95,71.723 -39.02,115.379 2.94,43.641 19.76,78.832 50.49,105.571 15.31,13.32 35.27,24.191 59.86,32.613 10.25,3.348 17.33,6.726 21.24,10.129 8.45,7.347 9.17,17.07 2.18,29.168 l 6.33,5.5" /><path
         id="path64"
         style="fill:#ed192d;fill-opacity:1;fill-rule:nonzero;stroke:none"
         d="m 3334.11,846.398 5.94,-5.007 -97.69,-115.922 -5.93,5 6.25,7.429 c 7.7,9.153 10.78,17.411 9.22,24.793 -1.56,7.379 -7.74,15.629 -18.55,24.739 l -153.81,129.621 c -10.6,8.918 -19.74,13.668 -27.39,14.238 -7.67,0.57 -15.44,-3.809 -23.33,-13.18 l -6.25,-7.418 -5.95,5.008 97.69,115.921 5.93,-5 -6.22,-7.4 c -7.66,-9.09 -10.73,-17.35 -9.21,-24.771 1.54,-7.418 7.81,-15.769 18.83,-25.058 L 3277.46,839.77 c 10.49,-8.84 19.53,-13.532 27.13,-14.071 7.59,-0.551 15.36,3.891 23.29,13.313 l 6.23,7.386" /><path
         id="path66"
         style="fill:#ed192d;fill-opacity:1;fill-rule:nonzero;stroke:none"
         d="m 3195.16,1123.42 103.32,-63.66 2.88,4.68 c 7.39,11.99 11.25,21.98 11.57,29.97 0.32,8 -2.53,16.58 -8.55,25.75 -6.02,9.17 -15.95,19.35 -29.78,30.52 l 4.07,6.61 127.8,-78.76 -4.07,-6.61 c -16.6,7.74 -30.46,11.93 -41.57,12.58 -11.11,0.64 -19.94,-1.2 -26.47,-5.53 -6.53,-4.34 -13.13,-11.89 -19.78,-22.69 l -2.88,-4.67 79.13,-48.77 c 11.58,-7.141 20.28,-10.399 26.09,-9.789 5.81,0.617 11.89,6.058 18.21,16.319 l 14.78,23.98 c 24.86,40.34 19.88,80.29 -14.93,119.85 l 3.86,6.26 70.53,-59.25 -134.62,-218.429 -6.62,4.078 5.95,9.653 c 4.92,7.976 7.08,15.617 6.47,22.898 -0.61,7.281 -8.3,15.469 -23.08,24.578 l -171.23,105.532 c -14.54,8.97 -25.33,12.12 -32.39,9.48 -7.05,-2.64 -13,-7.89 -17.85,-15.76 l -5.95,-9.65 -6.61,4.08 130.64,211.99 71.14,-43.85 -4.07,-6.61 c -16.03,6.42 -30.81,9.12 -44.31,8.07 -13.52,-1.04 -24.4,-5.19 -32.63,-12.45 -8.24,-7.24 -17.58,-19.33 -28.01,-36.26 l -21.04,-34.14" /><path
         id="path68"
         style="fill:#ed192d;fill-opacity:1;fill-rule:nonzero;stroke:none"
         d="m 3364.3,1523.57 72.75,-27.82 -2.77,-7.26 c -40.32,9.41 -66.99,-2.92 -80.01,-36.99 l -9.92,-25.95 216.69,-82.86 c 12.83,-4.9 22.91,-6.37 30.26,-4.37 7.35,1.98 13.2,8.66 17.55,20.03 l 3.83,10 7.25,-2.77 -54.89,-143.55 -7.26,2.77 4.06,10.59 c 3.34,8.76 4.03,16.63 2.05,23.6 -1.98,6.97 -11.08,13.56 -27.29,19.76 l -216.7,82.87 -10.72,-28.04 c -4.15,-10.86 -5.78,-20.5 -4.88,-28.94 0.9,-8.43 5.16,-17.34 12.82,-26.71 7.66,-9.37 17.01,-16.84 28.07,-22.42 l -3.08,-8.03 -72.75,27.82 94.94,248.27" /><path
         id="path70"
         style="fill:#ed192d;fill-opacity:1;fill-rule:nonzero;stroke:none"
         d="m 3553.04,1679.33 -94.16,72.02 c -9.79,7.5 -17.78,11.79 -23.98,12.85 -12.13,2.09 -20.22,-7.86 -24.28,-29.83 l -7.66,1.31 14.83,86.29 7.66,-1.32 c -1.31,-7.59 0.16,-14.8 4.37,-21.63 4.23,-6.83 15.81,-17.49 34.77,-31.96 l 105.73,-81.46 73.87,-12.7 c 13.52,-2.33 23.69,-1.84 30.51,1.46 6.81,3.3 11.25,10.96 13.32,22.96 l 2.45,14.28 7.66,-1.32 -27.09,-157.47 -7.65,1.32 2.31,13.44 c 2.02,11.73 0.49,20.37 -4.59,25.94 -5.07,5.56 -14.59,9.53 -28.52,11.93 l -61.66,10.6 -151.9,-50.78 c -18.83,-6.28 -30.48,-11.85 -34.93,-16.69 -4.46,-4.84 -7.44,-11.68 -8.96,-20.51 l -7.66,1.32 23.31,135.54 7.66,-1.32 c -1.57,-11.53 -1.86,-19.23 -0.9,-23.1 0.97,-3.85 3.92,-6.21 8.88,-7.06 3.98,-0.68 10.11,0.39 18.38,3.23 l 128.23,42.66" /></g></g></svg>