<?xml version="1.0" encoding="UTF-8" standalone="no"?>
<!-- Created with Inkscape (http://www.inkscape.org/) -->

<svg
   version="1.1"
   id="svg1"
   width="501.86133"
   height="290.46399"
   viewBox="0 0 501.86133 290.46399"
   sodipodi:docname="Swaziland Red Cross Society.svg"
   inkscape:version="1.3.2 (091e20e, 2023-11-25, custom)"
   xmlns:inkscape="http://www.inkscape.org/namespaces/inkscape"
   xmlns:sodipodi="http://sodipodi.sourceforge.net/DTD/sodipodi-0.dtd"
   xmlns="http://www.w3.org/2000/svg"
   xmlns:svg="http://www.w3.org/2000/svg">
  <defs
     id="defs1">
    <clipPath
       clipPathUnits="userSpaceOnUse"
       id="clipPath3">
      <path
         d="M 0.059998,217.8 H 376.396 V 0 H 0.059998 Z"
         transform="translate(-172.99701,-153.341)"
         id="path3" />
    </clipPath>
    <clipPath
       clipPathUnits="userSpaceOnUse"
       id="clipPath5">
      <path
         d="M 0.059998,217.8 H 376.396 V 0 H 0.059998 Z"
         transform="translate(-6.2803001,-60.159999)"
         id="path5" />
    </clipPath>
  </defs>
  <sodipodi:namedview
     id="namedview1"
     pagecolor="#ffffff"
     bordercolor="#666666"
     borderopacity="1.0"
     inkscape:showpageshadow="2"
     inkscape:pageopacity="0.0"
     inkscape:pagecheckerboard="0"
     inkscape:deskcolor="#d1d1d1"
     inkscape:export-bgcolor="#ffffffff"
     inkscape:zoom="1.8630645"
     inkscape:cx="250.93066"
     inkscape:cy="145.1909"
     inkscape:window-width="1920"
     inkscape:window-height="1017"
     inkscape:window-x="-8"
     inkscape:window-y="-8"
     inkscape:window-maximized="1"
     inkscape:current-layer="g1">
    <inkscape:page
       x="0"
       y="0"
       inkscape:label="Page 1"
       id="page1"
       width="501.86133"
       height="290.46399"
       margin="0"
       bleed="0"
       inkscape:export-filename="Swaziland Red Cross Society.png"
       inkscape:export-xdpi="300"
       inkscape:export-ydpi="300" />
  </sodipodi:namedview>
  <g
     id="g1"
     inkscape:groupmode="layer"
     inkscape:label="Page 1">
    <g
       id="group-MC1">
      <path
         id="path2"
         d="M 0,0 H -34.725 V 29.764 H 0 l -0.003,0.018 V 64.507 H 29.761 V 29.782 L 29.76,29.768 H 64.484 V 0.005 H 29.76 l 10e-4,0.006 V -34.714 H -0.003 V 0.011 L 0,0"
         style="fill:#ed192d;fill-opacity:1;fill-rule:nonzero;stroke:none"
         transform="matrix(1.3333333,0,0,-1.3333333,230.66267,86.009333)"
         clip-path="url(#clipPath3)" />
      <path
         id="path4"
         d="m 0,0 h 6.72 c 2.48,0 4.64,0.801 4.64,3.76 0,2.92 -1.84,4.08 -4.52,4.08 H 0 Z m 0,12.121 h 6.36 c 2.2,0 3.84,1 3.84,3.399 0,2.721 -2.08,3.281 -4.32,3.281 H 0 Z M -6.2803,23.68 H 7.16 c 5.44,0 9.12,-1.76 9.12,-7.08 0,-2.799 -1.4,-4.76 -3.88,-5.959 3.48,-1 5.24,-3.681 5.24,-7.24 0,-5.801 -4.92,-8.28 -10.08,-8.28 H -6.2803 V 23.68"
         style="fill:#231f20;fill-opacity:1;fill-rule:nonzero;stroke:none"
         transform="matrix(1.3333333,0,0,-1.3333333,8.3737333,210.25067)"
         clip-path="url(#clipPath5)" />
      <path
         id="path6"
         d="m 0,0 c -0.96,-0.84 -2.96,-0.88 -4.72,-1.2 -1.76,-0.361 -3.36,-0.96 -3.36,-3.041 0,-2.12 1.64,-2.639 3.48,-2.639 4.44,0 4.6,3.519 4.6,4.76 z m -13.12,4.199 c 0.32,5.32 5.08,6.921 9.72,6.921 4.12,0 9.08,-0.921 9.08,-5.88 V -5.52 c 0,-1.881 0.2,-3.761 0.72,-4.6 H 0.64 c -0.2,0.639 -0.36,1.319 -0.4,2 -1.8,-1.88 -4.44,-2.56 -6.96,-2.56 -3.92,0 -7.04,1.959 -7.04,6.199 0,4.68 3.52,5.801 7.04,6.281 C -3.24,2.32 0,2.199 0,4.519 0,6.96 -1.68,7.32 -3.68,7.32 -5.84,7.32 -7.24,6.439 -7.44,4.199 h -5.68"
         style="fill:#231f20;fill-opacity:1;fill-rule:nonzero;stroke:none"
         transform="matrix(1.3333333,0,0,-1.3333333,53.92,203.26267)" />
      <path
         id="path7"
         d="m 0,0 c 0,3.279 -1.32,6.68 -4.96,6.68 -3.72,0 -4.92,-3.321 -4.92,-6.68 0,-3.36 1.28,-6.561 4.96,-6.561 C -1.2,-6.561 0,-3.36 0,0 Z m -15.36,10.4 h 5.4 V 7.76 h 0.08 c 1.36,2.2 3.6,3.2 6.16,3.2 6.48,0 9.4,-5.24 9.4,-11.12 0,-5.52 -3.04,-10.68 -9.08,-10.68 -2.48,0 -4.84,1.08 -6.2,3.119 h -0.08 v -9.84 h -5.68 V 10.4"
         style="fill:#231f20;fill-opacity:1;fill-rule:nonzero;stroke:none"
         transform="matrix(1.3333333,0,0,-1.3333333,87.838667,203.04933)" />
      <path
         id="path8"
         d="M 0,0 H 5.68 V -10.76 H 5.8 c 1.44,2.321 3.92,3.441 6.04,3.441 6.04,0 7.56,-3.401 7.56,-8.521 v -12.719 h -5.68 v 11.68 c 0,3.4 -1,5.079 -3.64,5.079 -3.08,0 -4.4,-1.719 -4.4,-5.92 V -28.559 H 0 L 0,0"
         style="fill:#231f20;fill-opacity:1;fill-rule:nonzero;stroke:none"
         transform="matrix(1.3333333,0,0,-1.3333333,99.945333,178.67733)" />
      <path
         id="path9"
         d="M 0,0 C -0.96,-0.84 -2.96,-0.88 -4.721,-1.2 -6.48,-1.561 -8.08,-2.16 -8.08,-4.241 c 0,-2.12 1.64,-2.639 3.479,-2.639 4.44,0 4.601,3.519 4.601,4.76 z m -13.12,4.199 c 0.32,5.32 5.08,6.921 9.72,6.921 4.119,0 9.079,-0.921 9.079,-5.88 V -5.52 c 0,-1.881 0.2,-3.761 0.72,-4.6 H 0.64 c -0.2,0.639 -0.361,1.319 -0.401,2 -1.799,-1.88 -4.44,-2.56 -6.96,-2.56 -3.92,0 -7.04,1.959 -7.04,6.199 0,4.68 3.52,5.801 7.04,6.281 C -3.241,2.32 0,2.199 0,4.519 0,6.96 -1.681,7.32 -3.681,7.32 -5.84,7.32 -7.241,6.439 -7.44,4.199 h -5.68"
         style="fill:#231f20;fill-opacity:1;fill-rule:nonzero;stroke:none"
         transform="matrix(1.3333333,0,0,-1.3333333,148.74533,203.26267)" />
      <path
         id="path10"
         d="m 121.798,55.281 h 5.681 V 83.84 h -5.681 z"
         style="fill:#231f20;fill-opacity:1;fill-rule:nonzero;stroke:none"
         transform="matrix(1.3333333,0,0,-1.3333333,0,290.464)" />
      <path
         id="path11"
         d="m 0,0 c -0.96,-0.84 -2.96,-0.88 -4.72,-1.2 -1.76,-0.361 -3.36,-0.96 -3.36,-3.041 0,-2.12 1.64,-2.639 3.48,-2.639 4.44,0 4.6,3.519 4.6,4.76 z m -13.12,4.199 c 0.32,5.32 5.08,6.921 9.72,6.921 4.12,0 9.081,-0.921 9.081,-5.88 V -5.52 c 0,-1.881 0.199,-3.761 0.719,-4.6 H 0.641 c -0.201,0.639 -0.361,1.319 -0.401,2 -1.8,-1.88 -4.44,-2.56 -6.96,-2.56 -3.92,0 -7.04,1.959 -7.04,6.199 0,4.68 3.52,5.801 7.04,6.281 C -3.24,2.32 0,2.199 0,4.519 0,6.96 -1.68,7.32 -3.68,7.32 -5.839,7.32 -7.24,6.439 -7.44,4.199 h -5.68"
         style="fill:#231f20;fill-opacity:1;fill-rule:nonzero;stroke:none"
         transform="matrix(1.3333333,0,0,-1.3333333,193.11733,203.26267)" />
      <path
         id="path12"
         d="m 155.078,55.281 h 5.68 V 83.84 h -5.68 z"
         style="fill:#231f20;fill-opacity:1;fill-rule:nonzero;stroke:none"
         transform="matrix(1.3333333,0,0,-1.3333333,0,290.464)" />
      <path
         id="path13"
         d="M 0,0 H 5.681 V -20.68 H 0 Z M 5.681,3.199 H 0 v 4.68 h 5.681 z"
         style="fill:#231f20;fill-opacity:1;fill-rule:nonzero;stroke:none"
         transform="matrix(1.3333333,0,0,-1.3333333,220.52933,189.18267)" />
      <path
         id="path14"
         d="m 0,0 c 0,-3.799 2.96,-5.279 6.32,-5.279 2.199,0 5.56,0.639 5.56,3.559 0,3.08 -4.281,3.601 -8.48,4.72 -4.24,1.121 -8.52,2.761 -8.52,8.121 0,5.84 5.52,8.639 10.68,8.639 5.959,0 11.44,-2.6 11.44,-9.199 h -6.08 c -0.201,3.439 -2.641,4.32 -5.641,4.32 -2,0 -4.319,-0.84 -4.319,-3.24 0,-2.2 1.36,-2.481 8.52,-4.321 2.08,-0.519 8.48,-1.839 8.48,-8.32 0,-5.239 -4.121,-9.16 -11.88,-9.16 -6.321,0 -12.241,3.121 -12.16,10.16 L 0,0"
         style="fill:#231f20;fill-opacity:1;fill-rule:nonzero;stroke:none"
         transform="matrix(1.3333333,0,0,-1.3333333,255.41067,204.11733)" />
      <path
         id="path15"
         d="m 0,0 h -5.839 l -3.68,13.879 h -0.08 L -13.119,0 H -19 l -6.559,20.68 h 6 l 3.8,-14.041 h 0.08 l 3.44,14.041 h 5.521 l 3.519,-14 h 0.08 l 3.8,14 h 5.84 L 0,0"
         style="fill:#231f20;fill-opacity:1;fill-rule:nonzero;stroke:none"
         transform="matrix(1.3333333,0,0,-1.3333333,315.03467,216.756)" />
      <path
         id="path16"
         d="M 0,0 C -0.961,-0.84 -2.961,-0.88 -4.721,-1.2 -6.48,-1.561 -8.08,-2.16 -8.08,-4.241 c 0,-2.12 1.64,-2.639 3.48,-2.639 4.44,0 4.6,3.519 4.6,4.76 z m -13.121,4.199 c 0.32,5.32 5.08,6.921 9.721,6.921 4.119,0 9.08,-0.921 9.08,-5.88 V -5.52 c 0,-1.881 0.199,-3.761 0.72,-4.6 H 0.64 c -0.2,0.639 -0.361,1.319 -0.401,2 -1.799,-1.88 -4.44,-2.56 -6.96,-2.56 -3.919,0 -7.04,1.959 -7.04,6.199 0,4.68 3.521,5.801 7.04,6.281 C -3.24,2.32 0,2.199 0,4.519 0,6.96 -1.681,7.32 -3.681,7.32 -5.84,7.32 -7.24,6.439 -7.44,4.199 h -5.681"
         style="fill:#231f20;fill-opacity:1;fill-rule:nonzero;stroke:none"
         transform="matrix(1.3333333,0,0,-1.3333333,344.10267,203.26267)" />
      <path
         id="path17"
         d="M 0,0 10.76,12.119 H 0.801 V 16.4 H 18.24 V 12.119 L 7.48,0 H 19 V -4.28 H 0 V 0"
         style="fill:#231f20;fill-opacity:1;fill-rule:nonzero;stroke:none"
         transform="matrix(1.3333333,0,0,-1.3333333,355.83467,211.04933)" />
      <path
         id="path18"
         d="M 0,0 H 5.681 V -20.68 H 0 Z M 5.681,3.199 H 0 v 4.68 h 5.681 z"
         style="fill:#231f20;fill-opacity:1;fill-rule:nonzero;stroke:none"
         transform="matrix(1.3333333,0,0,-1.3333333,385.43467,189.18267)" />
      <path
         id="path19"
         d="m 299.396,55.281 h 5.68 V 83.84 h -5.68 z"
         style="fill:#231f20;fill-opacity:1;fill-rule:nonzero;stroke:none"
         transform="matrix(1.3333333,0,0,-1.3333333,0,290.464)" />
      <path
         id="path20"
         d="m 0,0 c -0.961,-0.84 -2.961,-0.88 -4.721,-1.2 -1.76,-0.361 -3.36,-0.96 -3.36,-3.041 0,-2.12 1.64,-2.639 3.48,-2.639 4.44,0 4.601,3.519 4.601,4.76 z m -13.122,4.199 c 0.321,5.32 5.081,6.921 9.721,6.921 4.119,0 9.08,-0.921 9.08,-5.88 V -5.52 c 0,-1.881 0.199,-3.761 0.72,-4.6 h -5.76 c -0.2,0.639 -0.36,1.319 -0.4,2 -1.8,-1.88 -4.441,-2.56 -6.96,-2.56 -3.92,0 -7.04,1.959 -7.04,6.199 0,4.68 3.52,5.801 7.04,6.281 C -3.241,2.32 0,2.199 0,4.519 0,6.96 -1.681,7.32 -3.681,7.32 c -2.159,0 -3.56,-0.881 -3.76,-3.121 h -5.681"
         style="fill:#231f20;fill-opacity:1;fill-rule:nonzero;stroke:none"
         transform="matrix(1.3333333,0,0,-1.3333333,429.916,203.26267)" />
      <path
         id="path21"
         d="M 0,0 H 5.399 V -2.881 H 5.52 c 1.44,2.321 3.92,3.441 6.319,3.441 6.041,0 7.56,-3.401 7.56,-8.521 V -20.68 h -5.68 V -9 c 0,3.4 -1,5.079 -3.64,5.079 -3.079,0 -4.4,-1.719 -4.4,-5.92 V -20.68 H 0 V 0"
         style="fill:#231f20;fill-opacity:1;fill-rule:nonzero;stroke:none"
         transform="matrix(1.3333333,0,0,-1.3333333,443.35467,189.18267)" />
      <path
         id="path22"
         d="m 0,0 c -3.72,0 -5,-3.201 -5,-6.6 0,-3.24 1.48,-6.641 5,-6.641 3.76,0 4.88,3.281 4.88,6.68 C 4.88,-3.201 3.681,0 0,0 Z M 4.96,-14.321 H 4.88 c -1.32,-2.24 -3.64,-3.199 -6.279,-3.199 -6.24,0 -9.282,5.359 -9.282,11.08 0,5.56 3.081,10.72 9.161,10.72 2.44,0 4.839,-1.04 6.121,-3.08 h 0.08 v 10.399 h 5.68 V -16.96 H 4.96 v 2.639"
         style="fill:#231f20;fill-opacity:1;fill-rule:nonzero;stroke:none"
         transform="matrix(1.3333333,0,0,-1.3333333,488.04667,194.14267)" />
      <path
         id="path23"
         d="m 0,0 h 6.88 c 2.8,0 4.32,1.2 4.32,4.08 0,2.76 -1.52,3.961 -4.32,3.961 H 0 Z m -6.28,12.92 h 15.4 c 5.12,0 8.36,-3.559 8.36,-7.879 0,-3.361 -1.36,-5.881 -4.52,-7.16 v -0.08 C 16.04,-3 16.92,-6 17.12,-8.88 c 0.12,-1.799 0.08,-5.159 1.2,-6.759 h -6.28 c -0.76,1.799 -0.68,4.559 -1,6.839 -0.44,3 -1.6,4.321 -4.76,4.321 H 0 v -11.16 H -6.28 V 12.92"
         style="fill:#231f20;fill-opacity:1;fill-rule:nonzero;stroke:none"
         transform="matrix(1.3333333,0,0,-1.3333333,27.969333,259.904)" />
      <path
         id="path24"
         d="m 0,0 c -0.52,2.881 -1.76,4.401 -4.52,4.401 -3.6,0 -4.64,-2.8 -4.72,-4.401 z m -9.24,-3.599 c 0.16,-3.6 1.92,-5.241 5.08,-5.241 2.28,0 4.12,1.401 4.48,2.68 h 5 c -1.6,-4.879 -5,-6.959 -9.68,-6.959 -6.52,0 -10.56,4.48 -10.56,10.879 0,6.201 4.28,10.921 10.56,10.921 7.04,0 10.44,-5.921 10.04,-12.28 H -9.24"
         style="fill:#231f20;fill-opacity:1;fill-rule:nonzero;stroke:none"
         transform="matrix(1.3333333,0,0,-1.3333333,75.861333,264.01067)" />
      <path
         id="path25"
         d="m 0,0 c -3.72,0 -5,-3.201 -5,-6.6 0,-3.24 1.48,-6.641 5,-6.641 3.76,0 4.88,3.281 4.88,6.68 C 4.88,-3.201 3.68,0 0,0 Z M 4.96,-14.321 H 4.88 c -1.32,-2.24 -3.64,-3.199 -6.28,-3.199 -6.24,0 -9.28,5.359 -9.28,11.08 0,5.56 3.08,10.72 9.16,10.72 2.44,0 4.84,-1.04 6.12,-3.08 h 0.08 v 10.399 h 5.68 V -16.96 h -5.4 v 2.639"
         style="fill:#231f20;fill-opacity:1;fill-rule:nonzero;stroke:none"
         transform="matrix(1.3333333,0,0,-1.3333333,100.98,258.14267)" />
      <path
         id="path26"
         d="M 0,0 C -0.4,2.839 -3.12,5 -6.24,5 -11.88,5 -14,0.2 -14,-4.8 c 0,-4.761 2.12,-9.56 7.76,-9.56 3.84,0 6,2.64 6.48,6.4 h 6.08 c -0.64,-7.121 -5.56,-11.681 -12.56,-11.681 -8.84,0 -14.04,6.601 -14.04,14.841 0,8.479 5.2,15.079 14.04,15.079 C 0.04,10.279 5.32,6.599 6.08,0 H 0"
         style="fill:#231f20;fill-opacity:1;fill-rule:nonzero;stroke:none"
         transform="matrix(1.3333333,0,0,-1.3333333,161.51333,255.476)" />
      <path
         id="path27"
         d="m 0,0 h 5.4 v -3.841 h 0.08 c 1.04,2.601 3.84,4.401 6.6,4.401 0.4,0 0.88,-0.08 1.24,-0.2 v -5.281 c -0.52,0.12 -1.36,0.201 -2.04,0.201 -4.16,0 -5.6,-3 -5.6,-6.641 V -20.68 H 0 L 0,0"
         style="fill:#231f20;fill-opacity:1;fill-rule:nonzero;stroke:none"
         transform="matrix(1.3333333,0,0,-1.3333333,174.84667,253.18267)" />
      <path
         id="path28"
         d="M 0,0 C 3.88,0 5.04,3.321 5.04,6.6 5.04,9.92 3.88,13.241 0,13.241 -3.84,13.241 -5,9.92 -5,6.6 -5,3.321 -3.84,0 0,0 Z m 0,17.521 c 6.52,0 10.72,-4.32 10.72,-10.921 0,-6.56 -4.2,-10.879 -10.72,-10.879 -6.48,0 -10.68,4.319 -10.68,10.879 0,6.601 4.2,10.921 10.68,10.921"
         style="fill:#231f20;fill-opacity:1;fill-rule:nonzero;stroke:none"
         transform="matrix(1.3333333,0,0,-1.3333333,208.02933,275.79733)" />
      <path
         id="path29"
         d="m 0,0 c 0.04,-2.479 2.12,-3.479 4.36,-3.479 1.64,0 3.72,0.639 3.72,2.639 0,1.721 -2.36,2.321 -6.44,3.201 -3.28,0.719 -6.56,1.88 -6.56,5.52 0,5.279 4.56,6.64 9,6.64 4.52,0 8.679,-1.521 9.119,-6.601 H 7.8 c -0.16,2.2 -1.84,2.801 -3.88,2.801 -1.28,0 -3.16,-0.24 -3.16,-1.92 0,-2.041 3.2,-2.32 6.439,-3.08 3.321,-0.76 6.56,-1.961 6.56,-5.801 0,-5.439 -4.719,-7.199 -9.439,-7.199 -4.8,0 -9.48,1.8 -9.72,7.279 H 0"
         style="fill:#231f20;fill-opacity:1;fill-rule:nonzero;stroke:none"
         transform="matrix(1.3333333,0,0,-1.3333333,233.096,271.79733)" />
      <path
         id="path30"
         d="m 0,0 c 0.039,-2.479 2.119,-3.479 4.359,-3.479 1.641,0 3.721,0.639 3.721,2.639 0,1.721 -2.361,2.321 -6.441,3.201 -3.28,0.719 -6.559,1.88 -6.559,5.52 0,5.279 4.559,6.64 9,6.64 4.519,0 8.68,-1.521 9.119,-6.601 h -5.4 c -0.16,2.2 -1.84,2.801 -3.879,2.801 -1.281,0 -3.16,-0.24 -3.16,-1.92 0,-2.041 3.199,-2.32 6.439,-3.08 3.32,-0.76 6.561,-1.961 6.561,-5.801 0,-5.439 -4.721,-7.199 -9.441,-7.199 -4.8,0 -9.479,1.8 -9.72,7.279 H 0"
         style="fill:#231f20;fill-opacity:1;fill-rule:nonzero;stroke:none"
         transform="matrix(1.3333333,0,0,-1.3333333,261.736,271.79733)" />
      <path
         id="path31"
         d="m 0,0 c 0,-3.799 2.96,-5.279 6.319,-5.279 2.201,0 5.561,0.639 5.561,3.559 0,3.08 -4.28,3.601 -8.481,4.72 -4.239,1.121 -8.519,2.761 -8.519,8.121 0,5.84 5.519,8.639 10.679,8.639 C 11.52,19.76 17,17.16 17,10.561 h -6.08 c -0.2,3.439 -2.64,4.32 -5.64,4.32 -2,0 -4.32,-0.84 -4.32,-3.24 0,-2.2 1.359,-2.481 8.519,-4.321 2.08,-0.519 8.481,-1.839 8.481,-8.32 0,-5.239 -4.12,-9.16 -11.88,-9.16 -6.32,0 -12.24,3.121 -12.16,10.16 H 0"
         style="fill:#231f20;fill-opacity:1;fill-rule:nonzero;stroke:none"
         transform="matrix(1.3333333,0,0,-1.3333333,305.84133,268.11733)" />
      <path
         id="path32"
         d="M 0,0 C 3.88,0 5.04,3.321 5.04,6.6 5.04,9.92 3.88,13.241 0,13.241 -3.841,13.241 -5,9.92 -5,6.6 -5,3.321 -3.841,0 0,0 Z m 0,17.521 c 6.52,0 10.72,-4.32 10.72,-10.921 0,-6.56 -4.2,-10.879 -10.72,-10.879 -6.479,0 -10.681,4.319 -10.681,10.879 0,6.601 4.202,10.921 10.681,10.921"
         style="fill:#231f20;fill-opacity:1;fill-rule:nonzero;stroke:none"
         transform="matrix(1.3333333,0,0,-1.3333333,347.33333,275.79733)" />
      <path
         id="path33"
         d="m 0,0 c -0.359,2.32 -1.839,3.561 -4.199,3.561 -3.64,0 -4.84,-3.68 -4.84,-6.72 0,-2.96 1.16,-6.521 4.719,-6.521 2.641,0 4.16,1.68 4.521,4.201 H 5.68 c -0.719,-5.48 -4.519,-8.48 -9.959,-8.48 -6.24,0 -10.44,4.399 -10.44,10.6 0,6.439 3.84,11.2 10.559,11.2 4.881,0 9.361,-2.56 9.721,-7.841 L 0,0"
         style="fill:#231f20;fill-opacity:1;fill-rule:nonzero;stroke:none"
         transform="matrix(1.3333333,0,0,-1.3333333,385.30533,262.89067)" />
      <path
         id="path34"
         d="M 0,0 H 5.68 V -20.68 H 0 Z M 5.68,3.199 H 0 v 4.68 h 5.68 z"
         style="fill:#231f20;fill-opacity:1;fill-rule:nonzero;stroke:none"
         transform="matrix(1.3333333,0,0,-1.3333333,397.35867,253.18267)" />
      <path
         id="path35"
         d="m 0,0 c -0.52,2.881 -1.76,4.401 -4.52,4.401 -3.6,0 -4.641,-2.8 -4.721,-4.401 z m -9.241,-3.599 c 0.161,-3.6 1.92,-5.241 5.08,-5.241 2.282,0 4.122,1.401 4.481,2.68 h 5 c -1.6,-4.879 -5,-6.959 -9.68,-6.959 -6.519,0 -10.56,4.48 -10.56,10.879 0,6.201 4.28,10.921 10.56,10.921 7.039,0 10.44,-5.921 10.039,-12.28 h -14.92"
         style="fill:#231f20;fill-opacity:1;fill-rule:nonzero;stroke:none"
         transform="matrix(1.3333333,0,0,-1.3333333,429.46533,264.01067)" />
      <path
         id="path36"
         d="M 0,0 H 4.16 V -3.801 H 0 v -10.24 c 0,-1.92 0.479,-2.399 2.399,-2.399 0.601,0 1.16,0.04 1.761,0.159 v -4.439 c -0.961,-0.161 -2.201,-0.201 -3.32,-0.201 -3.481,0 -6.52,0.8 -6.52,4.921 V -3.801 H -9.12 V 0 h 3.44 V 6.199 H 0 V 0"
         style="fill:#231f20;fill-opacity:1;fill-rule:nonzero;stroke:none"
         transform="matrix(1.3333333,0,0,-1.3333333,451.11867,253.18267)" />
      <path
         id="path37"
         d="m 0,0 c -1.24,-3.319 -3.2,-4.68 -7.12,-4.68 -1.16,0 -2.32,0.08 -3.481,0.201 v 4.68 C -9.521,0.121 -8.4,-0.039 -7.28,0 c 1.96,0.201 2.6,2.24 1.96,3.881 l -7.281,19.4 h 6.08 L -1.84,9.121 h 0.08 l 4.52,14.16 H 8.64 L 0,0"
         style="fill:#231f20;fill-opacity:1;fill-rule:nonzero;stroke:none"
         transform="matrix(1.3333333,0,0,-1.3333333,473.892,284.224)" />
    </g>
  </g>
</svg>
