<?xml version="1.0" encoding="UTF-8" standalone="no"?>
<!-- Created with Inkscape (http://www.inkscape.org/) -->

<svg
   version="1.1"
   id="svg1"
   width="755.90533"
   height="291.02399"
   viewBox="0 0 755.90533 291.02399"
   sodipodi:docname="NZRC_Bilingual_Logo_Horz_CMYK.svg"
   inkscape:version="1.3.2 (091e20e, 2023-11-25, custom)"
   xmlns:inkscape="http://www.inkscape.org/namespaces/inkscape"
   xmlns:sodipodi="http://sodipodi.sourceforge.net/DTD/sodipodi-0.dtd"
   xmlns="http://www.w3.org/2000/svg"
   xmlns:svg="http://www.w3.org/2000/svg">
  <defs
     id="defs1">
    <clipPath
       clipPathUnits="userSpaceOnUse"
       id="clipPath2">
      <path
         d="M 0,218.268 H 566.88 V 0 H 0 Z"
         id="path2" />
    </clipPath>
  </defs>
  <sodipodi:namedview
     id="namedview1"
     pagecolor="#ffffff"
     bordercolor="#666666"
     borderopacity="1.0"
     inkscape:showpageshadow="2"
     inkscape:pageopacity="0.0"
     inkscape:pagecheckerboard="0"
     inkscape:deskcolor="#d1d1d1"
     inkscape:zoom="1.2369274"
     inkscape:cx="377.95267"
     inkscape:cy="145.11766"
     inkscape:window-width="1920"
     inkscape:window-height="1017"
     inkscape:window-x="-8"
     inkscape:window-y="-8"
     inkscape:window-maximized="1"
     inkscape:current-layer="g1">
    <inkscape:page
       x="0"
       y="0"
       inkscape:label="1"
       id="page1"
       width="755.90533"
       height="291.02399"
       margin="0"
       bleed="0" />
  </sodipodi:namedview>
  <g
     id="g1"
     inkscape:groupmode="layer"
     inkscape:label="1">
    <path
       id="path1"
       d="M 0,0 H 566.88 V 218.268 H 0 Z"
       style="fill:#ffffff;fill-opacity:1;fill-rule:nonzero;stroke:none"
       transform="matrix(1.3333333,0,0,-1.3333333,0,291.024)"
       clip-path="url(#clipPath2)" />
    <path
       id="path3"
       d="M 0,0 24.144,-25.294 V -1.31 h 3.454 V -33.67 L 3.449,-8.418 v -23.86 H 0 L 0,0"
       style="fill:#231f20;fill-opacity:1;fill-rule:nonzero;stroke:none"
       transform="matrix(1.3333333,0,0,-1.3333333,277.72667,56.381333)" />
    <path
       id="path4"
       d="M 0,0 H 16.059 V -3.204 H 3.45 v -9.204 h 12.237 v -3.2 H 3.45 V -27.76 h 12.609 v -3.208 L 0,-30.968 V 0"
       style="fill:#231f20;fill-opacity:1;fill-rule:nonzero;stroke:none"
       transform="matrix(1.3333333,0,0,-1.3333333,325.32267,58.128)" />
    <path
       id="path5"
       d="M 0,0 10.021,24.803 20.037,0 28.171,23.199 h 3.737 L 20.037,-9.363 10.021,15.565 0,-9.363 -11.866,23.199 H -8.13 L 0,0"
       style="fill:#231f20;fill-opacity:1;fill-rule:nonzero;stroke:none"
       transform="matrix(1.3333333,0,0,-1.3333333,371.32667,89.068)" />
    <path
       id="path6"
       d="M 0,0 V -3.202 H -22.174 L -5.298,24.553 H -20.037 V 27.76 H 0.453 L -16.467,0 H 0"
       style="fill:#231f20;fill-opacity:1;fill-rule:nonzero;stroke:none"
       transform="matrix(1.3333333,0,0,-1.3333333,462.72267,95.142667)" />
    <path
       id="path7"
       d="M 0,0 H 16.055 V -3.204 H 3.447 v -9.204 h 12.237 v -3.2 H 3.447 V -27.76 h 12.608 v -3.208 L 0,-30.968 V 0"
       style="fill:#231f20;fill-opacity:1;fill-rule:nonzero;stroke:none"
       transform="matrix(1.3333333,0,0,-1.3333333,473.032,58.128)" />
    <path
       id="path8"
       d="M 0,0 -5.297,-12.403 H 5.176 Z m -6.695,-15.606 -3.736,-8.79 h -3.778 L 0.084,8.051 14.001,-24.396 h -3.815 l -3.656,8.79 H -6.695"
       style="fill:#231f20;fill-opacity:1;fill-rule:nonzero;stroke:none"
       transform="matrix(1.3333333,0,0,-1.3333333,522.868,66.892)" />
    <path
       id="path9"
       d="M 0,0 H 8.539 V -3.202 H -3.448 V 27.76 L 0,27.76 V 0"
       style="fill:#231f20;fill-opacity:1;fill-rule:nonzero;stroke:none"
       transform="matrix(1.3333333,0,0,-1.3333333,555.02133,95.142667)" />
    <path
       id="path10"
       d="M 0,0 -5.296,-12.403 H 5.171 Z m -6.694,-15.606 -3.737,-8.79 h -3.777 L 0.081,8.051 14.001,-24.396 h -3.819 l -3.653,8.79 H -6.694"
       style="fill:#231f20;fill-opacity:1;fill-rule:nonzero;stroke:none"
       transform="matrix(1.3333333,0,0,-1.3333333,593.74133,66.892)" />
    <path
       id="path11"
       d="M 0,0 24.146,-25.294 V -1.31 h 3.449 V -33.67 L 3.452,-8.418 v -23.86 H 0 L 0,0"
       style="fill:#231f20;fill-opacity:1;fill-rule:nonzero;stroke:none"
       transform="matrix(1.3333333,0,0,-1.3333333,620.47067,56.381333)" />
    <path
       id="path12"
       d="m 0,0 c 3.784,0 6.942,0.537 9.779,3.203 2.546,2.384 3.862,5.622 3.862,9.072 0,3.534 -1.361,6.939 -4.029,9.28 C 6.78,24.061 3.657,24.556 0,24.556 H -2.502 V 0 Z m -5.951,27.76 h 5.835 c 4.639,0 8.419,-0.619 12.07,-3.739 3.528,-3.043 5.137,-7.182 5.137,-11.786 0,-4.514 -1.645,-8.499 -5.054,-11.538 C 8.334,-2.592 4.642,-3.208 -0.201,-3.208 h -5.75 V 27.76"
       style="fill:#231f20;fill-opacity:1;fill-rule:nonzero;stroke:none"
       transform="matrix(1.3333333,0,0,-1.3333333,674.90667,95.142667)" />
    <path
       id="path13"
       d="m 0,0 h 1.022 c 3.436,0 7.302,0.643 7.302,5.05 0,4.398 -3.866,5.046 -7.302,5.046 H 0 Z M 23.139,-22.33 H 10.041 L 0.109,-6.766 H 0 V -22.33 H -10.518 V 18.146 H 5.208 c 7.999,0 14.065,-3.813 14.065,-12.453 0,-5.586 -3.111,-10.417 -8.854,-11.439 l 12.72,-16.584"
       style="fill:#231f20;fill-opacity:1;fill-rule:nonzero;stroke:none"
       transform="matrix(1.3333333,0,0,-1.3333333,291.756,144.664)" />
    <path
       id="path14"
       d="m 0,0 v -6.763 h 11.866 v -8.908 H 0 v -6.981 h 12.511 v -8.914 H -10.525 V 8.912 H 12.511 V 0 H 0"
       style="fill:#231f20;fill-opacity:1;fill-rule:nonzero;stroke:none"
       transform="matrix(1.3333333,0,0,-1.3333333,344.01733,132.352)" />
    <path
       id="path15"
       d="m 0,0 h 2.361 c 6.284,0 11.652,3.436 11.652,11.33 0,7.241 -4.78,11.319 -11.544,11.319 H 0 Z M -10.523,31.565 H 4.403 c 11.274,0 20.561,-8.854 20.561,-20.235 0,-11.387 -9.343,-20.241 -20.561,-20.241 h -14.926 v 40.476"
       style="fill:#231f20;fill-opacity:1;fill-rule:nonzero;stroke:none"
       transform="matrix(1.3333333,0,0,-1.3333333,386.968,162.556)" />
    <path
       id="path16"
       d="m 0,0 c -2.148,2.893 -5.639,4.452 -9.236,4.452 -6.441,0 -10.79,-4.938 -10.79,-11.221 0,-6.39 4.402,-11.002 10.951,-11.002 3.436,0 6.875,1.662 9.075,4.291 v -12.617 c -3.491,-1.078 -6.014,-1.878 -9.288,-1.878 -5.639,0 -11.007,2.149 -15.195,5.962 -4.453,4.026 -6.496,9.282 -6.496,15.302 0,5.529 2.095,10.841 5.959,14.815 3.974,4.081 9.718,6.55 15.409,6.55 3.385,0 6.496,-0.749 9.611,-2.037 L 0,0"
       style="fill:#231f20;fill-opacity:1;fill-rule:nonzero;stroke:none"
       transform="matrix(1.3333333,0,0,-1.3333333,483.72267,138.57333)" />
    <path
       id="path17"
       d="m 0,0 h 1.023 c 3.437,0 7.302,0.643 7.302,5.05 0,4.398 -3.865,5.046 -7.302,5.046 H 0 Z M 23.143,-22.33 H 10.044 L 0.112,-6.766 H 0 V -22.33 H -10.517 V 18.146 H 5.212 c 7.999,0 14.064,-3.813 14.064,-12.453 0,-5.586 -3.111,-10.417 -8.856,-11.439 L 23.143,-22.33"
       style="fill:#231f20;fill-opacity:1;fill-rule:nonzero;stroke:none"
       transform="matrix(1.3333333,0,0,-1.3333333,509.99067,144.664)" />
    <path
       id="path18"
       d="m 0,0 c 0,-6.983 5.156,-12.083 11.435,-12.083 6.283,0 11.435,5.1 11.435,12.083 0,5.581 -5.152,10.685 -11.435,10.685 C 5.156,10.685 0,5.581 0,0 m 33.824,0.051 c 0,-13.098 -9.394,-22.335 -22.389,-22.335 -12.987,0 -22.383,9.237 -22.383,22.335 0,12.242 10.734,20.833 22.383,20.833 11.652,0 22.389,-8.591 22.389,-20.833"
       style="fill:#231f20;fill-opacity:1;fill-rule:nonzero;stroke:none"
       transform="matrix(1.3333333,0,0,-1.3333333,558.672,146.52133)" />
    <path
       id="path19"
       d="m 0,0 c -1.934,1.609 -4.401,2.68 -6.977,2.68 -1.933,0 -4.513,-1.126 -4.513,-3.38 0,-2.358 2.849,-3.272 4.674,-3.867 l 2.683,-0.803 c 5.638,-1.662 9.99,-4.509 9.99,-11.056 0,-4.028 -0.969,-8.167 -4.196,-10.903 -3.166,-2.68 -7.405,-3.811 -11.485,-3.811 -5.103,0 -10.09,1.721 -14.227,4.615 l 4.512,8.492 c 2.632,-2.318 5.744,-4.193 9.341,-4.193 2.469,0 5.099,1.236 5.099,4.081 0,2.952 -4.132,3.974 -6.391,4.616 -6.601,1.88 -10.949,3.598 -10.949,11.435 0,8.213 5.85,13.583 13.96,13.583 4.078,0 9.077,-1.289 12.667,-3.326 L 0,0"
       style="fill:#231f20;fill-opacity:1;fill-rule:nonzero;stroke:none"
       transform="matrix(1.3333333,0,0,-1.3333333,642.068,134.35333)" />
    <path
       id="path20"
       d="m 0,0 c -1.937,1.609 -4.402,2.68 -6.983,2.68 -1.929,0 -4.508,-1.126 -4.508,-3.38 0,-2.358 2.843,-3.272 4.675,-3.867 l 2.682,-0.803 c 5.635,-1.662 9.979,-4.509 9.979,-11.056 0,-4.028 -0.96,-8.167 -4.184,-10.903 -3.165,-2.68 -7.407,-3.811 -11.487,-3.811 -5.104,0 -10.092,1.721 -14.231,4.615 l 4.51,8.492 c 2.635,-2.318 5.747,-4.193 9.35,-4.193 2.465,0 5.095,1.236 5.095,4.081 0,2.952 -4.135,3.974 -6.389,4.616 -6.604,1.88 -10.95,3.598 -10.95,11.435 0,8.213 5.85,13.583 13.958,13.583 4.081,0 9.069,-1.289 12.667,-3.326 L 0,0"
       style="fill:#231f20;fill-opacity:1;fill-rule:nonzero;stroke:none"
       transform="matrix(1.3333333,0,0,-1.3333333,689.74533,134.35333)" />
    <path
       id="path21"
       d="M 0,0 V -43.657 H -43.639 V 0 h -43.679 v 43.658 h 43.679 V 87.319 H 0 V 43.658 H 43.658 L 43.658,0 H 0"
       style="fill:#ee2528;fill-opacity:1;fill-rule:nonzero;stroke:none"
       transform="matrix(1.3333333,0,0,-1.3333333,174.636,174.604)" />
    <path
       id="path22"
       d="M 0,0 H -2.373 L -6.995,6.598 H -7.807 V 0 h -1.957 v 15.594 h 2.374 c 1.394,0 2.893,-0.02 4.142,-0.724 1.312,-0.765 2.062,-2.233 2.062,-3.723 0,-2.233 -1.5,-4.095 -3.769,-4.363 z m -7.807,8.21 h 0.625 c 1.999,0 4.163,0.373 4.163,2.855 0,2.44 -2.332,2.792 -4.268,2.792 h -0.52 V 8.21"
       style="fill:#231f20;fill-opacity:1;fill-rule:nonzero;stroke:none"
       transform="matrix(1.3333333,0,0,-1.3333333,290.58933,232.65733)" />
    <path
       id="path23"
       d="m 0,0 h -1.956 v 15.594 h 2.248 c 4.829,0 6.329,-1.654 6.329,-4.509 0,-3.287 -2.519,-4.549 -5.497,-4.549 L 0,6.536 Z m 0,8.272 h 0.625 c 1.999,0 4.163,0.373 4.163,2.855 0,2.44 -2.331,2.73 -4.267,2.73 L 0,13.857 V 8.272"
       style="fill:#231f20;fill-opacity:1;fill-rule:nonzero;stroke:none"
       transform="matrix(1.3333333,0,0,-1.3333333,311.32,232.65733)" />
    <path
       id="path24"
       d="M 0,0 H 8.431 V -1.778 H 1.957 V -6.142 H 8.245 V -7.92 H 1.957 v -5.895 h 6.474 v -1.779 H 0 V 0"
       style="fill:#231f20;fill-opacity:1;fill-rule:nonzero;stroke:none"
       transform="matrix(1.3333333,0,0,-1.3333333,326.768,211.86533)" />
    <path
       id="path25"
       d="m 0,0 h 2.561 l -7.058,-7.011 7.182,-8.583 H 0.042 l -5.913,7.26 -0.79,-0.746 v -6.514 H -8.618 V 0 h 1.957 V -6.762 L 0,0"
       style="fill:#231f20;fill-opacity:1;fill-rule:nonzero;stroke:none"
       transform="matrix(1.3333333,0,0,-1.3333333,356.452,211.86533)" />
    <path
       id="path26"
       d="M 0,0 -1.791,-3.909 H -3.893 L 3.602,12.347 11.096,-3.909 H 8.994 L 7.203,0 Z M 3.602,8.086 0.812,1.779 H 6.391 L 3.602,8.086"
       style="fill:#231f20;fill-opacity:1;fill-rule:nonzero;stroke:none"
       transform="matrix(1.3333333,0,0,-1.3333333,368.784,227.44533)" />
    <path
       id="path27"
       d="M 0,0 4.435,11.5 8.869,0 13.261,11.168 h 2.124 L 8.869,-5.046 4.435,6.391 0,-5.046 -6.516,11.168 h 2.124 L 0,0"
       style="fill:#231f20;fill-opacity:1;fill-rule:nonzero;stroke:none"
       transform="matrix(1.3333333,0,0,-1.3333333,406.244,226.756)" />
    <path
       id="path28"
       d="M 0,0 V 6.287 H 1.957 V -9.307 H 0 v 7.486 H -7.473 V -9.307 H -9.43 V 6.287 h 1.957 V 0 H 0"
       style="fill:#231f20;fill-opacity:1;fill-rule:nonzero;stroke:none"
       transform="matrix(1.3333333,0,0,-1.3333333,445.93333,220.248)" />
    <path
       id="path29"
       d="M 0,0 H 8.431 V -1.778 H 1.957 V -6.142 H 8.244 V -7.92 H 1.957 v -5.895 h 6.474 v -1.779 H 0 L 0,0"
       style="fill:#231f20;fill-opacity:1;fill-rule:nonzero;stroke:none"
       transform="matrix(1.3333333,0,0,-1.3333333,455.92933,211.86533)" />
    <path
       id="path30"
       d="M 0,0 H -2.373 L -6.995,6.598 H -7.806 V 0 h -1.957 v 15.594 h 2.373 c 1.395,0 2.893,-0.02 4.143,-0.724 1.311,-0.765 2.061,-2.233 2.061,-3.723 0,-2.233 -1.5,-4.095 -3.768,-4.363 z m -7.806,8.21 h 0.624 c 1.999,0 4.163,0.373 4.163,2.855 0,2.44 -2.332,2.792 -4.267,2.792 h -0.52 V 8.21"
       style="fill:#231f20;fill-opacity:1;fill-rule:nonzero;stroke:none"
       transform="matrix(1.3333333,0,0,-1.3333333,487.13867,232.65733)" />
    <path
       id="path31"
       d="m 0,0 c 0,-4.633 -3.686,-8.129 -8.223,-8.129 -4.538,0 -8.224,3.496 -8.224,8.129 0,4.467 3.728,8.128 8.224,8.128 C -3.726,8.128 0,4.467 0,0 Z m -1.957,0 c 0,3.433 -2.581,6.307 -6.266,6.307 -3.684,0 -6.267,-2.874 -6.267,-6.307 0,-3.559 2.874,-6.309 6.267,-6.309 3.392,0 6.266,2.75 6.266,6.309"
       style="fill:#231f20;fill-opacity:1;fill-rule:nonzero;stroke:none"
       transform="matrix(1.3333333,0,0,-1.3333333,512.62133,222.26)" />
    <path
       id="path32"
       d="M 0,0 -1.789,-3.909 H -3.892 L 3.602,12.347 11.096,-3.909 H 8.994 L 7.204,0 Z M 3.602,8.086 0.812,1.779 h 5.58 l -2.79,6.307"
       style="fill:#231f20;fill-opacity:1;fill-rule:nonzero;stroke:none"
       transform="matrix(1.3333333,0,0,-1.3333333,531.4,227.44533)" />
    <path
       id="path33"
       d="m 0,0 c 0,-4.633 -3.684,-8.129 -8.223,-8.129 -4.538,0 -8.224,3.496 -8.224,8.129 0,4.467 3.728,8.128 8.224,8.128 C -3.726,8.128 0,4.467 0,0 Z m -1.957,0 c 0,3.433 -2.581,6.307 -6.266,6.307 -3.685,0 -6.267,-2.874 -6.267,-6.307 0,-3.559 2.874,-6.309 6.267,-6.309 3.393,0 6.266,2.75 6.266,6.309"
       style="fill:#231f20;fill-opacity:1;fill-rule:nonzero;stroke:none"
       transform="matrix(1.3333333,0,0,-1.3333333,571.20667,222.26)" />
    <path
       id="path34"
       d="m 0,0 h -1.957 v 13.816 h -3.726 v 1.778 H 3.728 V 13.816 H 0 V 0"
       style="fill:#231f20;fill-opacity:1;fill-rule:nonzero;stroke:none"
       transform="matrix(1.3333333,0,0,-1.3333333,582.804,232.65733)" />
    <path
       id="path35"
       d="M 0,0 H 8.431 V -1.778 H 1.957 V -6.142 H 8.244 V -7.92 H 1.957 v -5.895 h 6.474 v -1.779 H 0 L 0,0"
       style="fill:#231f20;fill-opacity:1;fill-rule:nonzero;stroke:none"
       transform="matrix(1.3333333,0,0,-1.3333333,594.61467,211.86533)" />
    <path
       id="path36"
       d="M 0,0 -1.789,-3.909 H -3.891 L 3.602,12.347 11.096,-3.909 H 8.994 L 7.204,0 Z M 3.602,8.086 0.812,1.779 h 5.58 l -2.79,6.307"
       style="fill:#231f20;fill-opacity:1;fill-rule:nonzero;stroke:none"
       transform="matrix(1.3333333,0,0,-1.3333333,616.41467,227.44533)" />
    <path
       id="path37"
       d="M 0,0 H -2.373 L -6.995,6.598 H -7.807 V 0 h -1.958 v 15.594 h 2.374 c 1.396,0 2.894,-0.02 4.142,-0.724 1.313,-0.765 2.062,-2.233 2.062,-3.723 0,-2.233 -1.499,-4.095 -3.767,-4.363 z m -7.807,8.21 h 0.625 c 1.998,0 4.163,0.373 4.163,2.855 0,2.44 -2.332,2.792 -4.267,2.792 H -7.807 V 8.21"
       style="fill:#231f20;fill-opacity:1;fill-rule:nonzero;stroke:none"
       transform="matrix(1.3333333,0,0,-1.3333333,649.676,232.65733)" />
    <path
       id="path38"
       d="m 0,0 c 0,-4.633 -3.685,-8.129 -8.223,-8.129 -4.538,0 -8.224,3.496 -8.224,8.129 0,4.467 3.728,8.128 8.224,8.128 C -3.726,8.128 0,4.467 0,0 Z m -1.956,0 c 0,3.433 -2.582,6.307 -6.267,6.307 -3.684,0 -6.267,-2.874 -6.267,-6.307 0,-3.559 2.874,-6.309 6.267,-6.309 3.393,0 6.267,2.75 6.267,6.309"
       style="fill:#231f20;fill-opacity:1;fill-rule:nonzero;stroke:none"
       transform="matrix(1.3333333,0,0,-1.3333333,675.212,222.26)" />
    <path
       id="path39"
       d="M 0,0 -1.789,-3.909 H -3.893 L 3.602,12.347 11.098,-3.909 H 8.994 L 7.204,0 Z M 3.602,8.086 0.812,1.779 h 5.58 l -2.79,6.307"
       style="fill:#231f20;fill-opacity:1;fill-rule:nonzero;stroke:none"
       transform="matrix(1.3333333,0,0,-1.3333333,682.89733,227.44533)" />
    <path
       id="path40"
       d="m 223.226,43.775 h 1.957 v 15.594 h -1.957 z"
       style="fill:#231f20;fill-opacity:1;fill-rule:nonzero;stroke:none"
       transform="matrix(1.3333333,0,0,-1.3333333,0,291.024)" />
    <path
       id="path41"
       d="m 221.712,60.575 h 4.985 v 1.207 h -4.985 z"
       style="fill:#231f20;fill-opacity:1;fill-rule:nonzero;stroke:none"
       transform="matrix(1.3333333,0,0,-1.3333333,0,291.024)" />
  </g>
</svg>
