<?xml version="1.0" encoding="UTF-8" standalone="no"?>
<!-- Created with Inkscape (http://www.inkscape.org/) -->

<svg
   version="1.1"
   id="svg1"
   width="574.48798"
   height="755.90533"
   viewBox="0 0 574.48798 755.90533"
   sodipodi:docname="NZRC_Bilingual_Logo_Vert_CMYK.svg"
   inkscape:version="1.3.2 (091e20e, 2023-11-25, custom)"
   xmlns:inkscape="http://www.inkscape.org/namespaces/inkscape"
   xmlns:sodipodi="http://sodipodi.sourceforge.net/DTD/sodipodi-0.dtd"
   xmlns="http://www.w3.org/2000/svg"
   xmlns:svg="http://www.w3.org/2000/svg">
  <defs
     id="defs1">
    <clipPath
       clipPathUnits="userSpaceOnUse"
       id="clipPath2">
      <path
         d="M 0.059998,566.929 H 430.866 V 0.06 H 0.059998 Z"
         id="path2" />
    </clipPath>
  </defs>
  <sodipodi:namedview
     id="namedview1"
     pagecolor="#ffffff"
     bordercolor="#666666"
     borderopacity="1.0"
     inkscape:showpageshadow="2"
     inkscape:pageopacity="0.0"
     inkscape:pagecheckerboard="0"
     inkscape:deskcolor="#d1d1d1"
     inkscape:export-bgcolor="#ffffffff"
     inkscape:zoom="1.0861148"
     inkscape:cx="286.80209"
     inkscape:cy="377.95267"
     inkscape:window-width="1920"
     inkscape:window-height="1017"
     inkscape:window-x="-8"
     inkscape:window-y="-8"
     inkscape:window-maximized="1"
     inkscape:current-layer="g1">
    <inkscape:page
       x="0"
       y="0"
       inkscape:label="1"
       id="page1"
       width="574.48798"
       height="755.90533"
       margin="0"
       bleed="0"
       inkscape:export-filename="NZRC_Bilingual_Logo_Vert_CMYK.png"
       inkscape:export-xdpi="300"
       inkscape:export-ydpi="300" />
  </sodipodi:namedview>
  <g
     id="g1"
     inkscape:groupmode="layer"
     inkscape:label="1">
    <path
       id="path1"
       d="M 0.059998,0.059998 H 430.866 V 566.929 H 0.059998 Z"
       style="fill:#ffffff;fill-opacity:1;fill-rule:nonzero;stroke:none"
       transform="matrix(1.3333333,0,0,-1.3333333,0,755.90533)"
       clip-path="url(#clipPath2)" />
    <path
       id="path3"
       d="M 0,0 V -86.154 H -86.12 V 0 h -86.198 v 86.156 h 86.198 v 86.163 H 0 V 86.156 H 86.156 L 86.156,0 H 0"
       style="fill:#ee2528;fill-opacity:1;fill-rule:nonzero;stroke:none"
       transform="matrix(1.3333333,0,0,-1.3333333,344.60933,344.4)" />
    <path
       id="path4"
       d="m 0,0 19.821,-20.766 v 19.69 h 2.837 V -27.642 L 2.831,-6.911 V -26.5 H 0 V 0"
       style="fill:#231f20;fill-opacity:1;fill-rule:nonzero;stroke:none"
       transform="matrix(1.3333333,0,0,-1.3333333,114.85733,495.26933)" />
    <path
       id="path5"
       d="M 0,0 H 13.184 V -2.63 H 2.832 v -7.556 h 10.046 v -2.627 H 2.832 v -9.977 h 10.352 v -2.634 H 0 V 0"
       style="fill:#231f20;fill-opacity:1;fill-rule:nonzero;stroke:none"
       transform="matrix(1.3333333,0,0,-1.3333333,153.932,496.704)" />
    <path
       id="path6"
       d="M 0,0 8.228,20.362 16.45,0 23.128,19.046 h 3.068 L 16.45,-7.686 8.228,12.779 0,-7.686 -9.741,19.046 h 3.067 L 0,0"
       style="fill:#231f20;fill-opacity:1;fill-rule:nonzero;stroke:none"
       transform="matrix(1.3333333,0,0,-1.3333333,191.69867,522.104)" />
    <path
       id="path7"
       d="m 0,0 v -2.629 h -18.204 l 13.855,22.786 h -12.1 V 22.79 H 0.372 L -13.519,0 H 0"
       style="fill:#231f20;fill-opacity:1;fill-rule:nonzero;stroke:none"
       transform="matrix(1.3333333,0,0,-1.3333333,266.732,527.09067)" />
    <path
       id="path8"
       d="M 0,0 H 13.181 V -2.63 H 2.83 v -7.556 h 10.046 v -2.627 H 2.83 v -9.977 h 10.351 v -2.634 H 0 V 0"
       style="fill:#231f20;fill-opacity:1;fill-rule:nonzero;stroke:none"
       transform="matrix(1.3333333,0,0,-1.3333333,275.196,496.704)" />
    <path
       id="path9"
       d="m 0,0 -4.349,-10.182 h 8.598 z m -5.497,-12.811 -3.067,-7.217 h -3.102 L 0.068,6.61 11.494,-20.028 H 8.362 L 5.36,-12.811 H -5.497"
       style="fill:#231f20;fill-opacity:1;fill-rule:nonzero;stroke:none"
       transform="matrix(1.3333333,0,0,-1.3333333,316.11067,503.89867)" />
    <path
       id="path10"
       d="M 0,0 H 7.01 V -2.629 H -2.831 V 22.79 H 0 V 0"
       style="fill:#231f20;fill-opacity:1;fill-rule:nonzero;stroke:none"
       transform="matrix(1.3333333,0,0,-1.3333333,342.50667,527.09067)" />
    <path
       id="path11"
       d="m 0,0 -4.348,-10.182 h 8.594 z m -5.495,-12.811 -3.068,-7.217 h -3.101 L 0.066,6.61 11.494,-20.028 H 8.359 l -2.998,7.217 H -5.495"
       style="fill:#231f20;fill-opacity:1;fill-rule:nonzero;stroke:none"
       transform="matrix(1.3333333,0,0,-1.3333333,374.29467,503.89867)" />
    <path
       id="path12"
       d="m 0,0 19.823,-20.766 v 19.69 h 2.832 V -27.642 L 2.834,-6.911 V -26.5 H 0 V 0"
       style="fill:#231f20;fill-opacity:1;fill-rule:nonzero;stroke:none"
       transform="matrix(1.3333333,0,0,-1.3333333,396.23867,495.26933)" />
    <path
       id="path13"
       d="m 0,0 c 3.106,0 5.699,0.441 8.028,2.63 2.09,1.956 3.17,4.615 3.17,7.448 0,2.901 -1.117,5.696 -3.307,7.618 C 5.566,19.754 3.001,20.16 0,20.16 H -2.054 V 0 Z m -4.886,22.79 h 4.79 c 3.809,0 6.912,-0.509 9.91,-3.07 C 12.71,17.222 14.03,13.824 14.03,10.044 14.03,6.339 12.68,3.067 9.881,0.572 6.842,-2.128 3.81,-2.634 -0.165,-2.634 H -4.886 V 22.79"
       style="fill:#231f20;fill-opacity:1;fill-rule:nonzero;stroke:none"
       transform="matrix(1.3333333,0,0,-1.3333333,440.92933,527.09067)" />
    <path
       id="path14"
       d="m 0,0 h 0.839 c 2.82,0 5.995,0.528 5.995,4.146 0,3.61 -3.175,4.142 -5.995,4.142 H 0 Z M 18.996,-18.332 H 8.243 L 0.089,-5.554 H 0 V -18.332 H -8.635 V 14.897 H 4.276 c 6.566,0 11.546,-3.13 11.546,-10.223 0,-4.586 -2.554,-8.552 -7.268,-9.391 l 10.442,-13.615"
       style="fill:#231f20;fill-opacity:1;fill-rule:nonzero;stroke:none"
       transform="matrix(1.3333333,0,0,-1.3333333,126.37467,567.74667)" />
    <path
       id="path15"
       d="m 0,0 v -5.552 h 9.741 v -7.314 H 0 v -5.73 h 10.271 v -7.319 H -8.641 V 7.317 H 10.271 V 0 H 0"
       style="fill:#231f20;fill-opacity:1;fill-rule:nonzero;stroke:none"
       transform="matrix(1.3333333,0,0,-1.3333333,169.28,557.64)" />
    <path
       id="path16"
       d="m 0,0 h 1.938 c 5.16,0 9.566,2.82 9.566,9.301 0,5.945 -3.924,9.292 -9.477,9.292 H 0 Z M -8.639,25.913 H 3.615 c 9.256,0 16.88,-7.269 16.88,-16.612 0,-9.348 -7.67,-16.617 -16.88,-16.617 H -8.639 v 33.229"
       style="fill:#231f20;fill-opacity:1;fill-rule:nonzero;stroke:none"
       transform="matrix(1.3333333,0,0,-1.3333333,204.54,582.43467)" />
    <path
       id="path17"
       d="m 0,0 c -1.763,2.374 -4.63,3.654 -7.583,3.654 -5.288,0 -8.858,-4.053 -8.858,-9.212 0,-5.246 3.614,-9.032 8.99,-9.032 2.821,0 5.645,1.364 7.451,3.522 v -10.358 c -2.866,-0.885 -4.938,-1.541 -7.625,-1.541 -4.63,0 -9.037,1.764 -12.475,4.894 -3.656,3.306 -5.333,7.621 -5.333,12.563 0,4.538 1.72,8.9 4.892,12.163 3.263,3.35 7.978,5.377 12.65,5.377 2.779,0 5.334,-0.615 7.891,-1.672 V 0"
       style="fill:#231f20;fill-opacity:1;fill-rule:nonzero;stroke:none"
       transform="matrix(1.3333333,0,0,-1.3333333,283.97333,562.74533)" />
    <path
       id="path18"
       d="m 0,0 h 0.84 c 2.821,0 5.994,0.528 5.994,4.146 0,3.61 -3.173,4.142 -5.994,4.142 H 0 Z M 18.999,-18.332 H 8.246 L 0.092,-5.554 H 0 V -18.332 H -8.634 V 14.897 H 4.278 c 6.567,0 11.547,-3.13 11.547,-10.223 0,-4.586 -2.555,-8.552 -7.271,-9.391 l 10.445,-13.615"
       style="fill:#231f20;fill-opacity:1;fill-rule:nonzero;stroke:none"
       transform="matrix(1.3333333,0,0,-1.3333333,305.53867,567.74667)" />
    <path
       id="path19"
       d="m 0,0 c 0,-5.732 4.233,-9.919 9.388,-9.919 5.158,0 9.388,4.187 9.388,9.919 0,4.583 -4.23,8.772 -9.388,8.772 C 4.233,8.772 0,4.583 0,0 m 27.768,0.042 c 0,-10.752 -7.712,-18.336 -18.38,-18.336 -10.662,0 -18.376,7.584 -18.376,18.336 0,10.05 8.812,17.103 18.376,17.103 9.566,0 18.38,-7.053 18.38,-17.103"
       style="fill:#231f20;fill-opacity:1;fill-rule:nonzero;stroke:none"
       transform="matrix(1.3333333,0,0,-1.3333333,345.504,569.272)" />
    <path
       id="path20"
       d="m 0,0 c -1.588,1.32 -3.613,2.2 -5.728,2.2 -1.587,0 -3.705,-0.925 -3.705,-2.775 0,-1.936 2.339,-2.687 3.837,-3.175 l 2.203,-0.659 c 4.629,-1.365 8.202,-3.702 8.202,-9.077 0,-3.306 -0.796,-6.704 -3.445,-8.951 -2.599,-2.2 -6.08,-3.128 -9.429,-3.128 -4.19,0 -8.284,1.413 -11.68,3.788 l 3.704,6.972 c 2.161,-1.903 4.716,-3.442 7.669,-3.442 2.027,0 4.186,1.015 4.186,3.35 0,2.423 -3.392,3.262 -5.247,3.79 -5.419,1.543 -8.989,2.954 -8.989,9.388 0,6.742 4.803,11.151 11.461,11.151 3.348,0 7.452,-1.059 10.399,-2.731 L 0,0"
       style="fill:#231f20;fill-opacity:1;fill-rule:nonzero;stroke:none"
       transform="matrix(1.3333333,0,0,-1.3333333,413.96933,559.28133)" />
    <path
       id="path21"
       d="m 0,0 c -1.591,1.32 -3.614,2.2 -5.733,2.2 -1.584,0 -3.702,-0.925 -3.702,-2.775 0,-1.936 2.335,-2.687 3.838,-3.175 l 2.202,-0.659 c 4.627,-1.365 8.193,-3.702 8.193,-9.077 0,-3.306 -0.788,-6.704 -3.435,-8.951 -2.598,-2.2 -6.081,-3.128 -9.431,-3.128 -4.19,0 -8.284,1.413 -11.683,3.788 l 3.703,6.972 c 2.163,-1.903 4.718,-3.442 7.676,-3.442 2.023,0 4.183,1.015 4.183,3.35 0,2.423 -3.395,3.262 -5.246,3.79 -5.421,1.543 -8.989,2.954 -8.989,9.388 0,6.742 4.802,11.151 11.459,11.151 3.351,0 7.445,-1.059 10.399,-2.731 L 0,0"
       style="fill:#231f20;fill-opacity:1;fill-rule:nonzero;stroke:none"
       transform="matrix(1.3333333,0,0,-1.3333333,453.112,559.28133)" />
    <path
       id="path22"
       d="M 0,0 H -1.947 L -5.739,5.414 H -6.405 V 0 h -1.606 v 12.795 h 1.948 c 1.144,0 2.374,-0.017 3.399,-0.594 1.076,-0.628 1.691,-1.833 1.691,-3.055 0,-1.832 -1.231,-3.36 -3.092,-3.58 z m -6.405,6.736 h 0.513 c 1.639,0 3.415,0.307 3.415,2.343 0,2.002 -1.913,2.29 -3.501,2.29 H -6.405 V 6.736"
       style="fill:#231f20;fill-opacity:1;fill-rule:nonzero;stroke:none"
       transform="matrix(1.3333333,0,0,-1.3333333,125.532,640.11467)" />
    <path
       id="path23"
       d="m 0,0 h -1.606 v 12.795 h 1.845 c 3.962,0 5.193,-1.357 5.193,-3.7 0,-2.697 -2.067,-3.732 -4.51,-3.732 L 0,5.363 Z m 0,6.787 h 0.512 c 1.64,0 3.416,0.307 3.416,2.343 0,2.002 -1.913,2.239 -3.501,2.239 H 0 V 6.787"
       style="fill:#231f20;fill-opacity:1;fill-rule:nonzero;stroke:none"
       transform="matrix(1.3333333,0,0,-1.3333333,142.54267,640.11467)" />
    <path
       id="path24"
       d="M 0,0 H 6.917 V -1.459 H 1.605 V -5.04 H 6.764 V -6.499 H 1.605 v -4.836 h 5.312 v -1.46 H 0 V 0"
       style="fill:#231f20;fill-opacity:1;fill-rule:nonzero;stroke:none"
       transform="matrix(1.3333333,0,0,-1.3333333,155.21733,623.05467)" />
    <path
       id="path25"
       d="M 0,0 H 2.101 L -3.69,-5.752 2.203,-12.795 H 0.034 l -4.852,5.957 -0.648,-0.612 v -5.345 H -7.071 V 0 h 1.605 V -5.549 L 0,0"
       style="fill:#231f20;fill-opacity:1;fill-rule:nonzero;stroke:none"
       transform="matrix(1.3333333,0,0,-1.3333333,179.572,623.05467)" />
    <path
       id="path26"
       d="M 0,0 -1.469,-3.207 H -3.194 L 2.956,10.131 9.104,-3.207 H 7.379 L 5.91,0 Z M 2.956,6.635 0.666,1.46 H 5.244 L 2.956,6.635"
       style="fill:#231f20;fill-opacity:1;fill-rule:nonzero;stroke:none"
       transform="matrix(1.3333333,0,0,-1.3333333,189.68933,635.83867)" />
    <path
       id="path27"
       d="M 0,0 3.64,9.435 7.278,0 10.881,9.163 h 1.743 L 7.278,-4.141 3.64,5.243 0,-4.141 -5.346,9.163 h 1.743 L 0,0"
       style="fill:#231f20;fill-opacity:1;fill-rule:nonzero;stroke:none"
       transform="matrix(1.3333333,0,0,-1.3333333,220.424,635.272)" />
    <path
       id="path28"
       d="M 0,0 V 5.158 H 1.606 V -7.637 H 0 v 6.142 H -6.132 V -7.637 H -7.737 V 5.158 h 1.605 V 0 H 0"
       style="fill:#231f20;fill-opacity:1;fill-rule:nonzero;stroke:none"
       transform="matrix(1.3333333,0,0,-1.3333333,252.98933,629.932)" />
    <path
       id="path29"
       d="M 0,0 H 6.917 V -1.459 H 1.606 V -5.04 H 6.764 V -6.499 H 1.606 v -4.836 h 5.311 v -1.46 H 0 V 0"
       style="fill:#231f20;fill-opacity:1;fill-rule:nonzero;stroke:none"
       transform="matrix(1.3333333,0,0,-1.3333333,261.19067,623.05467)" />
    <path
       id="path30"
       d="M 0,0 H -1.947 L -5.739,5.414 H -6.405 V 0 h -1.606 v 12.795 h 1.948 c 1.144,0 2.373,-0.017 3.399,-0.594 1.075,-0.628 1.69,-1.833 1.69,-3.055 0,-1.832 -1.23,-3.36 -3.091,-3.58 z m -6.405,6.736 h 0.512 c 1.64,0 3.416,0.307 3.416,2.343 0,2.002 -1.913,2.29 -3.501,2.29 H -6.405 V 6.736"
       style="fill:#231f20;fill-opacity:1;fill-rule:nonzero;stroke:none"
       transform="matrix(1.3333333,0,0,-1.3333333,286.79733,640.11467)" />
    <path
       id="path31"
       d="m 0,0 c 0,-3.801 -3.024,-6.669 -6.747,-6.669 -3.724,0 -6.748,2.868 -6.748,6.669 0,3.665 3.059,6.669 6.748,6.669 C -3.057,6.669 0,3.665 0,0 Z m -1.606,0 c 0,2.817 -2.117,5.175 -5.141,5.175 -3.023,0 -5.142,-2.358 -5.142,-5.175 0,-2.92 2.358,-5.176 5.142,-5.176 2.783,0 5.141,2.256 5.141,5.176"
       style="fill:#231f20;fill-opacity:1;fill-rule:nonzero;stroke:none"
       transform="matrix(1.3333333,0,0,-1.3333333,307.70533,631.584)" />
    <path
       id="path32"
       d="M 0,0 -1.469,-3.207 H -3.194 L 2.955,10.131 9.103,-3.207 H 7.378 L 5.91,0 Z M 2.955,6.635 0.666,1.46 H 5.244 L 2.955,6.635"
       style="fill:#231f20;fill-opacity:1;fill-rule:nonzero;stroke:none"
       transform="matrix(1.3333333,0,0,-1.3333333,323.11333,635.83867)" />
    <path
       id="path33"
       d="m 0,0 c 0,-3.801 -3.023,-6.669 -6.747,-6.669 -3.724,0 -6.747,2.868 -6.747,6.669 0,3.665 3.058,6.669 6.747,6.669 C -3.057,6.669 0,3.665 0,0 Z m -1.606,0 c 0,2.817 -2.117,5.175 -5.141,5.175 -3.023,0 -5.142,-2.358 -5.142,-5.175 0,-2.92 2.358,-5.176 5.142,-5.176 2.783,0 5.141,2.256 5.141,5.176"
       style="fill:#231f20;fill-opacity:1;fill-rule:nonzero;stroke:none"
       transform="matrix(1.3333333,0,0,-1.3333333,355.77333,631.584)" />
    <path
       id="path34"
       d="m 0,0 h -1.605 v 11.336 h -3.057 v 1.459 H 3.059 V 11.336 H 0 V 0"
       style="fill:#231f20;fill-opacity:1;fill-rule:nonzero;stroke:none"
       transform="matrix(1.3333333,0,0,-1.3333333,365.288,640.11467)" />
    <path
       id="path35"
       d="M 0,0 H 6.917 V -1.459 H 1.605 V -5.04 H 6.764 V -6.499 H 1.605 v -4.836 h 5.312 v -1.46 H 0 V 0"
       style="fill:#231f20;fill-opacity:1;fill-rule:nonzero;stroke:none"
       transform="matrix(1.3333333,0,0,-1.3333333,374.97867,623.05467)" />
    <path
       id="path36"
       d="M 0,0 -1.468,-3.207 H -3.193 L 2.955,10.131 9.104,-3.207 H 7.379 L 5.911,0 Z M 2.955,6.635 0.666,1.46 h 4.579 l -2.29,5.175"
       style="fill:#231f20;fill-opacity:1;fill-rule:nonzero;stroke:none"
       transform="matrix(1.3333333,0,0,-1.3333333,392.86533,635.83867)" />
    <path
       id="path37"
       d="M 0,0 H -1.947 L -5.739,5.414 H -6.405 V 0 h -1.606 v 12.795 h 1.947 c 1.145,0 2.374,-0.017 3.399,-0.594 1.077,-0.628 1.692,-1.833 1.692,-3.055 0,-1.832 -1.231,-3.36 -3.092,-3.58 z m -6.405,6.736 h 0.512 c 1.64,0 3.416,0.307 3.416,2.343 0,2.002 -1.913,2.29 -3.501,2.29 H -6.405 V 6.736"
       style="fill:#231f20;fill-opacity:1;fill-rule:nonzero;stroke:none"
       transform="matrix(1.3333333,0,0,-1.3333333,420.15467,640.11467)" />
    <path
       id="path38"
       d="m 0,0 c 0,-3.801 -3.024,-6.669 -6.747,-6.669 -3.723,0 -6.747,2.868 -6.747,6.669 0,3.665 3.058,6.669 6.747,6.669 C -3.057,6.669 0,3.665 0,0 Z m -1.605,0 c 0,2.817 -2.118,5.175 -5.142,5.175 -3.023,0 -5.142,-2.358 -5.142,-5.175 0,-2.92 2.358,-5.176 5.142,-5.176 2.784,0 5.142,2.256 5.142,5.176"
       style="fill:#231f20;fill-opacity:1;fill-rule:nonzero;stroke:none"
       transform="matrix(1.3333333,0,0,-1.3333333,441.10667,631.584)" />
    <path
       id="path39"
       d="m 0,0 -1.469,-3.207 h -1.726 l 6.15,13.338 6.15,-13.338 H 7.379 L 5.91,0 Z M 2.955,6.635 0.666,1.46 H 5.244 L 2.955,6.635"
       style="fill:#231f20;fill-opacity:1;fill-rule:nonzero;stroke:none"
       transform="matrix(1.3333333,0,0,-1.3333333,447.41333,635.83867)" />
    <path
       id="path40"
       d="m 98.485,86.843 h 1.6061 V 99.638 H 98.485 Z"
       style="fill:#231f20;fill-opacity:1;fill-rule:nonzero;stroke:none"
       transform="matrix(1.3333333,0,0,-1.3333333,0,755.90533)" />
    <path
       id="path41"
       d="m 97.243,100.628 h 4.0905 v 0.99001 H 97.243 Z"
       style="fill:#231f20;fill-opacity:1;fill-rule:nonzero;stroke:none"
       transform="matrix(1.3333333,0,0,-1.3333333,0,755.90533)" />
  </g>
</svg>
