<?xml version="1.0" encoding="UTF-8" standalone="no"?>
<!-- Created with Inkscape (http://www.inkscape.org/) -->

<svg
   version="1.1"
   id="svg1"
   width="542.48535"
   height="554.08398"
   viewBox="0 0 542.48535 554.08398"
   sodipodi:docname="Chile RC.svg"
   inkscape:version="1.3.2 (091e20e, 2023-11-25, custom)"
   xmlns:inkscape="http://www.inkscape.org/namespaces/inkscape"
   xmlns:sodipodi="http://sodipodi.sourceforge.net/DTD/sodipodi-0.dtd"
   xmlns="http://www.w3.org/2000/svg"
   xmlns:svg="http://www.w3.org/2000/svg">
  <defs
     id="defs1">
    <clipPath
       clipPathUnits="userSpaceOnUse"
       id="clipPath3">
      <path
         d="M 0.059998,415.56 H 406.864 V 0 H 0.059998 Z"
         transform="translate(-319.16801,-335.97401)"
         id="path3" />
    </clipPath>
    <clipPath
       clipPathUnits="userSpaceOnUse"
       id="clipPath5">
      <path
         d="M 0.059998,415.56 H 406.864 V 0 H 0.059998 Z"
         transform="translate(-41.868001,-94.426)"
         id="path5" />
    </clipPath>
  </defs>
  <sodipodi:namedview
     id="namedview1"
     pagecolor="#ffffff"
     bordercolor="#666666"
     borderopacity="1.0"
     inkscape:showpageshadow="2"
     inkscape:pageopacity="0.0"
     inkscape:pagecheckerboard="0"
     inkscape:deskcolor="#d1d1d1"
     inkscape:export-bgcolor="#ffffffff"
     inkscape:zoom="1.4817248"
     inkscape:cx="270.96799"
     inkscape:cy="277.04199"
     inkscape:window-width="1920"
     inkscape:window-height="1017"
     inkscape:window-x="-8"
     inkscape:window-y="-8"
     inkscape:window-maximized="1"
     inkscape:current-layer="g1">
    <inkscape:page
       x="0"
       y="0"
       inkscape:label="1"
       id="page1"
       width="542.48535"
       height="554.08398"
       margin="0"
       bleed="0"
       inkscape:export-filename="Chile RC.png"
       inkscape:export-xdpi="300"
       inkscape:export-ydpi="300" />
  </sodipodi:namedview>
  <g
     id="g1"
     inkscape:groupmode="layer"
     inkscape:label="1">
    <g
       id="group-MC1">
      <path
         id="path2"
         d="m 0,0 h -79.589 v 79.589 h -72.295 V 0 h -79.588 v -72.295 h 79.588 v -79.589 h 72.295 v 79.589 H 0 L 0,0"
         style="fill:#ed1c24;fill-opacity:1;fill-rule:nonzero;stroke:none"
         transform="matrix(1.3333333,0,0,-1.3333333,425.55733,106.11867)"
         clip-path="url(#clipPath3)" />
      <path
         id="path4"
         d="m 0,0 c -2.344,-1.213 -7.517,-2.425 -14.063,-2.425 -17.297,0 -27.805,10.83 -27.805,27.4 0,17.943 12.448,28.774 29.098,28.774 6.546,0 11.234,-1.374 13.255,-2.425 l -2.182,-7.92 c -2.587,1.13 -6.143,2.101 -10.669,2.101 -11.073,0 -19.075,-6.951 -19.075,-20.045 0,-11.963 7.032,-19.64 18.994,-19.64 4.041,0 8.244,0.807 10.831,2.02 L 0,0"
         style="fill:#231f20;fill-opacity:1;fill-rule:nonzero;stroke:none"
         transform="matrix(1.3333333,0,0,-1.3333333,55.824,428.18267)"
         clip-path="url(#clipPath5)" />
      <path
         id="path6"
         d="m 0,0 h 5.9 c 6.708,0 10.912,3.557 10.912,8.972 0,5.981 -4.204,8.729 -10.669,8.729 C 2.99,17.701 0.97,17.459 0,17.216 Z m -9.861,24.086 c 3.718,0.647 9.295,1.132 15.034,1.132 7.84,0 13.174,-1.293 16.811,-4.364 2.991,-2.506 4.688,-6.305 4.688,-10.913 0,-7.031 -4.769,-11.799 -9.86,-13.659 V -3.96 c 3.879,-1.455 6.223,-5.254 7.597,-10.508 1.697,-6.789 3.153,-13.093 4.284,-15.195 H 18.428 c -0.808,1.617 -2.101,6.063 -3.637,12.852 -1.536,7.112 -4.122,9.376 -9.78,9.537 H 0 v -22.389 h -9.861 v 53.749"
         style="fill:#231f20;fill-opacity:1;fill-rule:nonzero;stroke:none"
         transform="matrix(1.3333333,0,0,-1.3333333,82.98,390.788)" />
      <path
         id="path7"
         d="m 0,0 v -31.765 c 0,-10.669 4.446,-15.599 11.154,-15.599 7.194,0 11.477,4.93 11.477,15.599 V 0 h 9.942 v -31.118 c 0,-16.812 -8.648,-24.248 -21.742,-24.248 -12.609,0 -20.773,7.032 -20.773,24.167 V 0 H 0"
         style="fill:#231f20;fill-opacity:1;fill-rule:nonzero;stroke:none"
         transform="matrix(1.3333333,0,0,-1.3333333,146.56,357.70267)" />
      <path
         id="path8"
         d="m 0,0 27.884,40.494 v 0.242 H 2.505 v 8.245 h 38.311 v -5.82 L 13.335,3.071 V 2.748 H 41.221 V -5.496 L 0,-5.496 V 0"
         style="fill:#231f20;fill-opacity:1;fill-rule:nonzero;stroke:none"
         transform="matrix(1.3333333,0,0,-1.3333333,203.028,423.01067)" />
      <path
         id="path9"
         d="m 0,0 h 5.9 c 6.708,0 10.911,3.557 10.911,8.972 0,5.981 -4.203,8.729 -10.669,8.729 C 2.99,17.701 0.969,17.459 0,17.216 Z m -9.862,24.086 c 3.719,0.647 9.295,1.132 15.034,1.132 7.84,0 13.175,-1.293 16.812,-4.364 2.99,-2.506 4.688,-6.305 4.688,-10.913 0,-7.031 -4.769,-11.799 -9.861,-13.659 V -3.96 c 3.88,-1.455 6.224,-5.254 7.598,-10.508 1.697,-6.789 3.152,-13.093 4.284,-15.195 H 18.427 c -0.807,1.617 -2.101,6.063 -3.636,12.852 -1.536,7.112 -4.122,9.376 -9.781,9.537 H 0 v -22.389 h -9.862 v 53.749"
         style="fill:#231f20;fill-opacity:1;fill-rule:nonzero;stroke:none"
         transform="matrix(1.3333333,0,0,-1.3333333,309.71467,390.788)" />
      <path
         id="path10"
         d="m 0,0 c 0,-11.073 5.577,-19.883 15.114,-19.883 9.618,0 15.034,8.891 15.034,20.287 0,10.265 -5.092,19.964 -15.034,19.964 C 5.254,20.368 0,11.234 0,0 Z m 40.655,0.809 c 0,-18.267 -11.073,-28.694 -26.106,-28.694 -15.358,0 -25.056,11.72 -25.056,27.723 0,16.731 10.507,28.532 25.864,28.532 15.922,0 25.298,-12.043 25.298,-27.561"
         style="fill:#231f20;fill-opacity:1;fill-rule:nonzero;stroke:none"
         transform="matrix(1.3333333,0,0,-1.3333333,370.81467,394.344)" />
      <path
         id="path11"
         d="m 0,0 h 9.941 v -35.321 c 0,-15.034 -7.274,-20.045 -18.104,-20.045 -2.748,0 -6.224,0.485 -8.325,1.293 l 1.212,8.002 c 1.617,-0.485 3.799,-0.969 6.142,-0.969 5.658,0 9.134,2.585 9.134,12.042 V 0"
         style="fill:#231f20;fill-opacity:1;fill-rule:nonzero;stroke:none"
         transform="matrix(1.3333333,0,0,-1.3333333,453.57867,357.70267)" />
      <path
         id="path12"
         d="m 0,0 -4.283,13.417 c -1.051,3.314 -1.94,7.031 -2.748,10.184 H -7.193 C -8.001,20.448 -8.81,16.649 -9.779,13.417 L -13.983,0 Z m -15.599,-7.517 -4.688,-15.438 h -10.265 l 17.458,54.477 h 12.691 l 17.7,-54.477 H 6.628 l -4.93,15.438 h -17.297"
         style="fill:#231f20;fill-opacity:1;fill-rule:nonzero;stroke:none"
         transform="matrix(1.3333333,0,0,-1.3333333,519.42267,399.732)" />
      <path
         id="path13"
         d="m 0,0 c -2.344,-1.212 -7.517,-2.425 -14.063,-2.425 -17.297,0 -27.805,10.831 -27.805,27.401 0,17.943 12.448,28.773 29.097,28.773 6.547,0 11.235,-1.374 13.256,-2.425 l -2.182,-7.92 c -2.587,1.131 -6.143,2.101 -10.669,2.101 -11.073,0 -19.075,-6.95 -19.075,-20.045 0,-11.962 7.032,-19.64 18.994,-19.64 4.041,0 8.244,0.808 10.831,2.021 L 0,0"
         style="fill:#231f20;fill-opacity:1;fill-rule:nonzero;stroke:none"
         transform="matrix(1.3333333,0,0,-1.3333333,115.03867,550.85067)" />
      <path
         id="path14"
         d="M 0,0 V -21.824 H 23.035 V 0 h 9.942 v -54.477 h -9.942 v 24.005 H 0 V -54.477 H -9.942 L -9.942,0 H 0"
         style="fill:#231f20;fill-opacity:1;fill-rule:nonzero;stroke:none"
         transform="matrix(1.3333333,0,0,-1.3333333,142.30267,480.36933)" />
      <path
         id="path15"
         d="m 153.12,0.80898 h 9.941 v 54.477 h -9.941 z"
         style="fill:#231f20;fill-opacity:1;fill-rule:nonzero;stroke:none"
         transform="matrix(1.3333333,0,0,-1.3333333,0,554.084)" />
      <path
         id="path16"
         d="M 0,0 H 9.941 V -46.152 H 32.33 v -8.325 H 0 V 0"
         style="fill:#231f20;fill-opacity:1;fill-rule:nonzero;stroke:none"
         transform="matrix(1.3333333,0,0,-1.3333333,235.30267,480.36933)" />
      <path
         id="path17"
         d="M 0,0 H -20.529 V -16.004 H 2.425 v -8.163 H -30.472 V 30.31 H 1.212 V 22.146 H -20.529 V 8.082 L 0,8.082 V 0"
         style="fill:#231f20;fill-opacity:1;fill-rule:nonzero;stroke:none"
         transform="matrix(1.3333333,0,0,-1.3333333,331.75333,520.78267)" />
      <path
         id="path18"
         d="M 0,0 V 54.477 H 11.316 L 25.38,31.118 c 3.636,-6.062 6.789,-12.366 9.295,-18.266 h 0.161 c -0.647,7.274 -0.889,14.305 -0.889,22.63 v 18.995 h 9.214 V 0 H 32.896 L 18.671,23.925 c -3.476,5.98 -7.113,12.689 -9.78,18.832 L 8.648,42.676 C 9.053,35.645 9.134,28.451 9.134,19.479 V 0 H 0"
         style="fill:#231f20;fill-opacity:1;fill-rule:nonzero;stroke:none"
         transform="matrix(1.3333333,0,0,-1.3333333,349.31733,553.00536)" />
      <path
         id="path19"
         d="m 0,0 -4.283,13.418 c -1.051,3.314 -1.94,7.031 -2.749,10.184 H -7.194 C -8.001,20.449 -8.81,16.65 -9.78,13.418 L -13.983,0 Z m -15.599,-7.516 -4.688,-15.438 h -10.265 l 17.458,54.477 h 12.69 L 17.297,-22.954 H 6.628 l -4.93,15.438 h -17.297"
         style="fill:#231f20;fill-opacity:1;fill-rule:nonzero;stroke:none"
         transform="matrix(1.3333333,0,0,-1.3333333,460.20933,522.4)" />
    </g>
  </g>
</svg>
