<?xml version="1.0" encoding="UTF-8" standalone="no"?>
<!-- Created with Inkscape (http://www.inkscape.org/) -->

<svg
   version="1.1"
   id="svg1"
   width="684.97333"
   height="208.44267"
   viewBox="0 0 684.97333 208.44267"
   sodipodi:docname="DPRK_RC.svg"
   inkscape:version="1.3.2 (091e20e, 2023-11-25, custom)"
   xmlns:inkscape="http://www.inkscape.org/namespaces/inkscape"
   xmlns:sodipodi="http://sodipodi.sourceforge.net/DTD/sodipodi-0.dtd"
   xmlns="http://www.w3.org/2000/svg"
   xmlns:svg="http://www.w3.org/2000/svg">
  <defs
     id="defs1">
    <clipPath
       clipPathUnits="userSpaceOnUse"
       id="clipPath47">
      <path
         d="M 0.059998,156.332 H 513.73 V 0 H 0.059998 Z"
         id="path47" />
    </clipPath>
    <clipPath
       clipPathUnits="userSpaceOnUse"
       id="clipPath51">
      <path
         d="M 0.059998,156.332 H 513.73 V 0 H 0.059998 Z"
         id="path51" />
    </clipPath>
    <clipPath
       clipPathUnits="userSpaceOnUse"
       id="clipPath53">
      <path
         d="M 0.059998,156.332 H 513.73 V 0 H 0.059998 Z"
         id="path53" />
    </clipPath>
  </defs>
  <sodipodi:namedview
     id="namedview1"
     pagecolor="#ffffff"
     bordercolor="#666666"
     borderopacity="1.0"
     inkscape:showpageshadow="2"
     inkscape:pageopacity="0.0"
     inkscape:pagecheckerboard="0"
     inkscape:deskcolor="#d1d1d1"
     inkscape:zoom="1.3650167"
     inkscape:cx="342.48666"
     inkscape:cy="104.39433"
     inkscape:window-width="1920"
     inkscape:window-height="1017"
     inkscape:window-x="-8"
     inkscape:window-y="-8"
     inkscape:window-maximized="1"
     inkscape:current-layer="g1">
    <inkscape:page
       x="0"
       y="0"
       inkscape:label="1"
       id="page1"
       width="684.97333"
       height="208.44267"
       margin="0"
       bleed="0" />
  </sodipodi:namedview>
  <g
     id="g1"
     inkscape:groupmode="layer"
     inkscape:label="1">
    <g
       id="group-MC1">
      <path
         id="path2"
         d="M 0,0 H -4.398 V 2.712 H 7.626 V 0 H 3.227 V -11.963 H 0 L 0,0"
         style="fill:#ed1c24;fill-opacity:1;fill-rule:nonzero;stroke:none"
         transform="matrix(1.3333333,0,0,-1.3333333,313.54267,154.58)" />
      <path
         id="path3"
         d="m 0,0 h 2.919 v -5.529 h 0.062 c 0.739,1.193 2.014,1.768 3.103,1.768 3.104,0 3.885,-1.747 3.885,-4.378 v -6.536 H 7.05 v 6.002 c 0,1.747 -0.514,2.61 -1.87,2.61 -1.583,0 -2.261,-0.884 -2.261,-3.042 v -5.57 H 0 L 0,0"
         style="fill:#ed1c24;fill-opacity:1;fill-rule:nonzero;stroke:none"
         transform="matrix(1.3333333,0,0,-1.3333333,325.54133,150.964)" />
      <path
         id="path4"
         d="M 0,0 C -0.268,1.479 -0.904,2.26 -2.322,2.26 -4.172,2.26 -4.707,0.822 -4.748,0 Z m -4.748,-1.85 c 0.082,-1.849 0.986,-2.692 2.61,-2.692 1.171,0 2.118,0.718 2.302,1.377 H 2.733 C 1.911,-5.673 0.164,-6.741 -2.24,-6.741 c -3.351,0 -5.426,2.301 -5.426,5.589 0,3.187 2.199,5.612 5.426,5.612 3.617,0 5.364,-3.042 5.158,-6.31 h -7.666"
         style="fill:#ed1c24;fill-opacity:1;fill-rule:nonzero;stroke:none"
         transform="matrix(1.3333333,0,0,-1.3333333,351.32533,161.92533)" />
      <path
         id="path5"
         d="m 0,0 h 2.878 c 1.87,0 3.658,1.151 3.658,4.398 0,2.96 -1.028,4.852 -4.235,4.852 H 0 Z m -3.228,11.962 h 6.331 c 3.803,0 6.659,-2.384 6.659,-7.255 0,-4.255 -2.177,-7.42 -6.659,-7.42 h -6.331 v 14.675"
         style="fill:#ed1c24;fill-opacity:1;fill-rule:nonzero;stroke:none"
         transform="matrix(1.3333333,0,0,-1.3333333,369.84533,166.91333)" />
      <path
         id="path6"
         d="M 0,0 C -0.267,1.479 -0.904,2.26 -2.323,2.26 -4.172,2.26 -4.707,0.822 -4.748,0 Z m -4.748,-1.85 c 0.082,-1.849 0.988,-2.692 2.611,-2.692 1.172,0 2.117,0.718 2.302,1.377 h 2.569 c -0.822,-2.508 -2.569,-3.576 -4.975,-3.576 -3.349,0 -5.426,2.301 -5.426,5.589 0,3.187 2.2,5.612 5.426,5.612 3.618,0 5.365,-3.042 5.16,-6.31 h -7.667"
         style="fill:#ed1c24;fill-opacity:1;fill-rule:nonzero;stroke:none"
         transform="matrix(1.3333333,0,0,-1.3333333,394.96933,161.92533)" />
      <path
         id="path7"
         d="m 0,0 h 2.754 v -1.439 h 0.041 c 0.762,1.09 1.871,1.727 3.248,1.727 1.336,0 2.528,-0.493 3.104,-1.768 0.617,0.925 1.726,1.768 3.207,1.768 2.259,0 3.883,-1.048 3.883,-3.803 v -7.111 h -2.919 v 6.022 c 0,1.418 -0.123,2.59 -1.787,2.59 -1.644,0 -1.953,-1.357 -1.953,-2.692 v -5.92 H 6.66 v 5.961 c 0,1.233 0.082,2.651 -1.767,2.651 -0.577,0 -1.974,-0.37 -1.974,-2.446 v -6.166 H 0 L 0,0"
         style="fill:#ed1c24;fill-opacity:1;fill-rule:nonzero;stroke:none"
         transform="matrix(1.3333333,0,0,-1.3333333,401.268,156.36267)" />
      <path
         id="path8"
         d="M 0,0 C 1.995,0 2.59,1.705 2.59,3.39 2.59,5.096 1.995,6.802 0,6.802 -1.972,6.802 -2.568,5.096 -2.568,3.39 -2.568,1.705 -1.972,0 0,0 Z m 0,9.002 c 3.351,0 5.509,-2.22 5.509,-5.612 0,-3.37 -2.158,-5.589 -5.509,-5.589 -3.33,0 -5.487,2.219 -5.487,5.589 0,3.392 2.157,5.612 5.487,5.612"
         style="fill:#ed1c24;fill-opacity:1;fill-rule:nonzero;stroke:none"
         transform="matrix(1.3333333,0,0,-1.3333333,432.85867,167.98133)" />
      <path
         id="path9"
         d="m 0,0 c -0.184,1.193 -0.945,1.829 -2.158,1.829 -1.869,0 -2.486,-1.89 -2.486,-3.453 0,-1.52 0.595,-3.349 2.426,-3.349 1.355,0 2.136,0.863 2.322,2.158 h 2.815 c -0.37,-2.816 -2.322,-4.357 -5.118,-4.357 -3.206,0 -5.363,2.26 -5.363,5.446 0,3.309 1.972,5.755 5.426,5.755 C 0.371,4.029 2.672,2.713 2.858,0 H 0"
         style="fill:#ed1c24;fill-opacity:1;fill-rule:nonzero;stroke:none"
         transform="matrix(1.3333333,0,0,-1.3333333,452.36667,161.35067)" />
      <path
         id="path10"
         d="m 0,0 h 2.774 v -1.973 h 0.041 c 0.534,1.336 1.974,2.261 3.392,2.261 0.205,0 0.451,-0.041 0.637,-0.103 v -2.713 c -0.268,0.062 -0.7,0.103 -1.048,0.103 -2.138,0 -2.878,-1.542 -2.878,-3.412 v -4.789 H 0 L 0,0"
         style="fill:#ed1c24;fill-opacity:1;fill-rule:nonzero;stroke:none"
         transform="matrix(1.3333333,0,0,-1.3333333,458.448,156.36267)" />
      <path
         id="path11"
         d="m 0,0 c -0.494,-0.432 -1.521,-0.452 -2.426,-0.616 -0.904,-0.186 -1.726,-0.494 -1.726,-1.563 0,-1.089 0.843,-1.356 1.788,-1.356 2.282,0 2.364,1.808 2.364,2.446 z m -6.742,2.158 c 0.164,2.733 2.61,3.556 4.994,3.556 2.117,0 4.666,-0.473 4.666,-3.022 v -5.528 c 0,-0.967 0.104,-1.933 0.37,-2.364 h -2.96 c -0.102,0.329 -0.184,0.678 -0.205,1.028 -0.925,-0.967 -2.281,-1.315 -3.576,-1.315 -2.015,0 -3.617,1.006 -3.617,3.185 0,2.404 1.808,2.981 3.617,3.227 C -1.665,1.192 0,1.131 0,2.322 c 0,1.254 -0.863,1.44 -1.89,1.44 -1.111,0 -1.831,-0.453 -1.933,-1.604 h -2.919"
         style="fill:#ed1c24;fill-opacity:1;fill-rule:nonzero;stroke:none"
         transform="matrix(1.3333333,0,0,-1.3333333,477.92933,163.59733)" />
      <path
         id="path12"
         d="M 0,0 H 2.139 V -1.953 H 0 v -5.261 c 0,-0.987 0.247,-1.234 1.235,-1.234 0.307,0 0.595,0.021 0.904,0.082 v -2.281 c -0.494,-0.082 -1.131,-0.102 -1.707,-0.102 -1.787,0 -3.35,0.411 -3.35,2.528 v 6.268 H -4.685 V 0 h 1.767 V 3.186 H 0 V 0"
         style="fill:#ed1c24;fill-opacity:1;fill-rule:nonzero;stroke:none"
         transform="matrix(1.3333333,0,0,-1.3333333,489.76267,156.36267)" />
      <path
         id="path13"
         d="M 0,0 H 2.92 V -10.626 H 0 Z M 2.92,1.644 H 0 v 2.405 h 2.92 z"
         style="fill:#ed1c24;fill-opacity:1;fill-rule:nonzero;stroke:none"
         transform="matrix(1.3333333,0,0,-1.3333333,494.58267,156.36267)" />
      <path
         id="path14"
         d="m 0,0 c -0.185,1.193 -0.945,1.829 -2.158,1.829 -1.871,0 -2.487,-1.89 -2.487,-3.453 0,-1.52 0.597,-3.349 2.425,-3.349 1.357,0 2.138,0.863 2.323,2.158 h 2.815 c -0.369,-2.816 -2.322,-4.357 -5.117,-4.357 -3.207,0 -5.365,2.26 -5.365,5.446 0,3.309 1.974,5.755 5.426,5.755 C 0.37,4.029 2.672,2.713 2.857,0 H 0"
         style="fill:#ed1c24;fill-opacity:1;fill-rule:nonzero;stroke:none"
         transform="matrix(1.3333333,0,0,-1.3333333,511.18933,161.35067)" />
      <path
         id="path15"
         d="m 0,0 h 2.508 c 1.5,0 2.837,0.329 2.837,2.199 0,1.871 -1.337,2.2 -2.837,2.2 H 0 Z m -3.226,6.906 h 6.619 c 3.658,0 5.076,-2.323 5.076,-4.707 0,-2.383 -1.418,-4.707 -5.076,-4.707 H 0 V -7.769 H -3.226 V 6.906"
         style="fill:#ed1c24;fill-opacity:1;fill-rule:nonzero;stroke:none"
         transform="matrix(1.3333333,0,0,-1.3333333,529.59867,160.172)" />
      <path
         id="path16"
         d="M 0,0 C -0.267,1.479 -0.904,2.26 -2.323,2.26 -4.173,2.26 -4.707,0.822 -4.748,0 Z m -4.748,-1.85 c 0.082,-1.849 0.987,-2.692 2.61,-2.692 1.172,0 2.117,0.718 2.302,1.377 h 2.569 c -0.822,-2.508 -2.569,-3.576 -4.974,-3.576 -3.35,0 -5.426,2.301 -5.426,5.589 0,3.187 2.2,5.612 5.426,5.612 3.618,0 5.364,-3.042 5.159,-6.31 h -7.666"
         style="fill:#ed1c24;fill-opacity:1;fill-rule:nonzero;stroke:none"
         transform="matrix(1.3333333,0,0,-1.3333333,552.69733,161.92533)" />
      <path
         id="path17"
         d="M 0,0 C 1.993,0 2.589,1.705 2.589,3.39 2.589,5.096 1.993,6.802 0,6.802 -1.974,6.802 -2.57,5.096 -2.57,3.39 -2.57,1.705 -1.974,0 0,0 Z m 0,9.002 c 3.35,0 5.508,-2.22 5.508,-5.612 0,-3.37 -2.158,-5.589 -5.508,-5.589 -3.33,0 -5.488,2.219 -5.488,5.589 0,3.392 2.158,5.612 5.488,5.612"
         style="fill:#ed1c24;fill-opacity:1;fill-rule:nonzero;stroke:none"
         transform="matrix(1.3333333,0,0,-1.3333333,565.76533,167.98133)" />
      <path
         id="path18"
         d="M 0,0 C 0,1.685 -0.678,3.432 -2.549,3.432 -4.46,3.432 -5.077,1.726 -5.077,0 c 0,-1.727 0.658,-3.37 2.549,-3.37 C -0.616,-3.37 0,-1.727 0,0 Z m -7.892,5.344 h 2.774 V 3.987 h 0.041 c 0.699,1.131 1.85,1.645 3.166,1.645 3.33,0 4.83,-2.693 4.83,-5.714 0,-2.836 -1.562,-5.487 -4.666,-5.487 -1.274,0 -2.486,0.554 -3.185,1.602 H -4.973 V -9.023 H -7.892 V 5.344"
         style="fill:#ed1c24;fill-opacity:1;fill-rule:nonzero;stroke:none"
         transform="matrix(1.3333333,0,0,-1.3333333,586.14933,163.488)" />
      <path
         id="path19"
         d="m 444.356,28.434 h 2.919 v 14.675 h -2.919 z"
         style="fill:#ed1c24;fill-opacity:1;fill-rule:nonzero;stroke:none"
         transform="matrix(1.3333333,0,0,-1.3333333,0,208.44267)" />
      <path
         id="path20"
         d="M 0,0 C -0.267,1.479 -0.904,2.26 -2.322,2.26 -4.171,2.26 -4.707,0.822 -4.748,0 Z m -4.748,-1.85 c 0.082,-1.849 0.987,-2.692 2.611,-2.692 1.171,0 2.117,0.718 2.301,1.377 h 2.57 c -0.822,-2.508 -2.57,-3.576 -4.974,-3.576 -3.35,0 -5.426,2.301 -5.426,5.589 0,3.187 2.2,5.612 5.426,5.612 3.617,0 5.364,-3.042 5.158,-6.31 h -7.666"
         style="fill:#ed1c24;fill-opacity:1;fill-rule:nonzero;stroke:none"
         transform="matrix(1.3333333,0,0,-1.3333333,608.97067,161.92533)" />
      <path
         id="path21"
         d="M 0,0 H 2.919 V -3.144 C 2.981,-4.974 1.706,-6.372 0,-6.597 v 1.356 c 1.049,0.35 1.358,1.069 1.358,2.075 L 0,-3.166 V 0"
         style="fill:#ed1c24;fill-opacity:1;fill-rule:nonzero;stroke:none"
         transform="matrix(1.3333333,0,0,-1.3333333,615.544,150.964)" />
      <path
         id="path22"
         d="m 0,0 c 0.021,-1.275 1.089,-1.788 2.241,-1.788 0.842,0 1.911,0.329 1.911,1.356 0,0.884 -1.212,1.193 -3.309,1.645 -1.686,0.37 -3.371,0.965 -3.371,2.836 0,2.713 2.344,3.412 4.625,3.412 2.322,0 4.46,-0.782 4.685,-3.392 H 4.009 C 3.926,5.2 3.063,5.509 2.015,5.509 1.357,5.509 0.391,5.385 0.391,4.521 0.391,3.473 2.035,3.33 3.7,2.939 5.405,2.549 7.071,1.932 7.071,-0.041 7.071,-2.836 4.646,-3.74 2.22,-3.74 -0.247,-3.74 -2.651,-2.816 -2.774,0 H 0"
         style="fill:#ed1c24;fill-opacity:1;fill-rule:nonzero;stroke:none"
         transform="matrix(1.3333333,0,0,-1.3333333,623.764,165.92667)" />
      <path
         id="path23"
         d="m 0,0 h 3.535 c 1.439,0 2.22,0.616 2.22,2.095 0,1.419 -0.781,2.035 -2.22,2.035 L 0,4.13 Z m -3.227,6.638 h 7.913 c 2.631,0 4.296,-1.829 4.296,-4.05 0,-1.725 -0.699,-3.02 -2.323,-3.678 V -1.131 C 8.242,-1.542 8.694,-3.083 8.797,-4.564 8.859,-5.489 8.838,-7.215 9.413,-8.038 H 6.186 c -0.39,0.925 -0.349,2.344 -0.514,3.515 -0.226,1.542 -0.822,2.22 -2.445,2.22 H 0 V -8.038 H -3.227 V 6.638"
         style="fill:#ed1c24;fill-opacity:1;fill-rule:nonzero;stroke:none"
         transform="matrix(1.3333333,0,0,-1.3333333,313.516,192.692)" />
      <path
         id="path24"
         d="M 0,0 C -0.268,1.479 -0.905,2.26 -2.323,2.26 -4.173,2.26 -4.707,0.822 -4.748,0 Z m -4.748,-1.85 c 0.082,-1.85 0.987,-2.692 2.61,-2.692 1.171,0 2.117,0.718 2.302,1.376 H 2.733 C 1.911,-5.673 0.164,-6.742 -2.24,-6.742 c -3.351,0 -5.427,2.302 -5.427,5.59 0,3.187 2.199,5.611 5.427,5.611 3.617,0 5.364,-3.041 5.158,-6.309 h -7.666"
         style="fill:#ed1c24;fill-opacity:1;fill-rule:nonzero;stroke:none"
         transform="matrix(1.3333333,0,0,-1.3333333,338.12,194.80267)" />
      <path
         id="path25"
         d="m 0,0 c 0,1.685 -0.679,3.432 -2.549,3.432 -1.912,0 -2.528,-1.706 -2.528,-3.432 0,-1.727 0.657,-3.37 2.549,-3.37 C -0.617,-3.37 0,-1.727 0,0 Z m -7.893,5.343 h 2.775 V 3.987 h 0.041 c 0.698,1.131 1.849,1.644 3.165,1.644 3.33,0 4.83,-2.692 4.83,-5.713 0,-2.836 -1.563,-5.488 -4.666,-5.488 -1.274,0 -2.486,0.555 -3.186,1.603 H -4.975 V -9.023 H -7.893 V 5.343"
         style="fill:#ed1c24;fill-opacity:1;fill-rule:nonzero;stroke:none"
         transform="matrix(1.3333333,0,0,-1.3333333,354.83333,196.36533)" />
      <path
         id="path26"
         d="m 0,0 h -2.776 v 1.481 h -0.061 c -0.74,-1.192 -2.015,-1.768 -3.247,-1.768 -3.104,0 -3.885,1.747 -3.885,4.378 v 6.535 h 2.918 V 4.625 c 0,-1.747 0.514,-2.61 1.871,-2.61 1.582,0 2.26,0.884 2.26,3.042 v 5.569 H 0 V 0"
         style="fill:#ed1c24;fill-opacity:1;fill-rule:nonzero;stroke:none"
         transform="matrix(1.3333333,0,0,-1.3333333,374.34133,203.40933)" />
      <path
         id="path27"
         d="m 0,0 c -1.726,0 -2.487,-1.624 -2.487,-3.412 0,-1.767 0.761,-3.39 2.487,-3.39 1.727,0 2.488,1.623 2.488,3.39 C 2.488,-1.624 1.727,0 0,0 Z m -5.302,5.961 h 2.919 V 0.617 h 0.041 c 0.718,1.089 2.035,1.582 3.349,1.582 2.117,0 4.399,-1.706 4.399,-5.59 0,-3.906 -2.282,-5.611 -4.399,-5.611 -1.561,0 -2.856,0.473 -3.494,1.644 H -2.528 V -8.715 H -5.302 V 5.961"
         style="fill:#ed1c24;fill-opacity:1;fill-rule:nonzero;stroke:none"
         transform="matrix(1.3333333,0,0,-1.3333333,384.36533,191.78933)" />
      <path
         id="path28"
         d="m 295.608,3.775 h 2.919 v 14.676 h -2.919 z"
         style="fill:#ed1c24;fill-opacity:1;fill-rule:nonzero;stroke:none"
         transform="matrix(1.3333333,0,0,-1.3333333,0,208.44267)" />
      <path
         id="path29"
         d="M 0,0 H 2.919 V -10.626 H 0 Z M 2.919,1.645 H 0 V 4.05 h 2.919 z"
         style="fill:#ed1c24;fill-opacity:1;fill-rule:nonzero;stroke:none"
         transform="matrix(1.3333333,0,0,-1.3333333,401.21333,189.24133)" />
      <path
         id="path30"
         d="m 0,0 c -0.184,1.193 -0.945,1.829 -2.158,1.829 -1.87,0 -2.487,-1.89 -2.487,-3.453 0,-1.52 0.596,-3.349 2.425,-3.349 1.357,0 2.138,0.863 2.323,2.158 h 2.816 c -0.37,-2.817 -2.322,-4.358 -5.118,-4.358 -3.206,0 -5.364,2.261 -5.364,5.447 0,3.309 1.972,5.754 5.425,5.754 C 0.37,4.028 2.672,2.713 2.857,0 H 0"
         style="fill:#ed1c24;fill-opacity:1;fill-rule:nonzero;stroke:none"
         transform="matrix(1.3333333,0,0,-1.3333333,417.81867,194.228)" />
      <path
         id="path31"
         d="M 0,0 C 1.994,0 2.59,1.705 2.59,3.39 2.59,5.096 1.994,6.802 0,6.802 -1.973,6.802 -2.569,5.096 -2.569,3.39 -2.569,1.705 -1.973,0 0,0 Z M 0,9.001 C 3.35,9.001 5.509,6.782 5.509,3.39 5.509,0.02 3.35,-2.2 0,-2.2 c -3.33,0 -5.487,2.22 -5.487,5.59 0,3.392 2.157,5.611 5.487,5.611"
         style="fill:#ed1c24;fill-opacity:1;fill-rule:nonzero;stroke:none"
         transform="matrix(1.3333333,0,0,-1.3333333,438.39333,200.85867)" />
      <path
         id="path32"
         d="M 0,0 H -1.746 V 1.952 H 0 V 2.775 C 0,4.646 1.172,6.002 3.557,6.002 4.07,6.002 4.605,5.941 5.098,5.92 V 3.741 C 4.748,3.782 4.398,3.803 4.029,3.803 3.248,3.803 2.919,3.474 2.919,2.59 V 1.952 H 4.934 V 0 H 2.919 V -8.674 H 0 V 0"
         style="fill:#ed1c24;fill-opacity:1;fill-rule:nonzero;stroke:none"
         transform="matrix(1.3333333,0,0,-1.3333333,449.104,191.844)" />
      <path
         id="path33"
         d="M 0,0 H 3.226 V -6.084 L 8.961,0 h 4.029 l -5.735,-5.797 6.29,-8.879 H 9.496 l -4.42,6.598 -1.85,-1.87 v -4.728 H 0 L 0,0"
         style="fill:#ed1c24;fill-opacity:1;fill-rule:nonzero;stroke:none"
         transform="matrix(1.3333333,0,0,-1.3333333,465.40667,183.84133)" />
      <path
         id="path34"
         d="M 0,0 C 1.993,0 2.589,1.705 2.589,3.39 2.589,5.096 1.993,6.802 0,6.802 -1.974,6.802 -2.569,5.096 -2.569,3.39 -2.569,1.705 -1.974,0 0,0 Z M 0,9.001 C 3.351,9.001 5.509,6.782 5.509,3.39 5.509,0.02 3.351,-2.2 0,-2.2 c -3.33,0 -5.487,2.22 -5.487,5.59 0,3.392 2.157,5.611 5.487,5.611"
         style="fill:#ed1c24;fill-opacity:1;fill-rule:nonzero;stroke:none"
         transform="matrix(1.3333333,0,0,-1.3333333,491.65467,200.85867)" />
      <path
         id="path35"
         d="m 0,0 h 2.775 v -1.972 h 0.041 c 0.533,1.336 1.973,2.26 3.391,2.26 0.205,0 0.452,-0.041 0.636,-0.102 v -2.713 c -0.266,0.062 -0.698,0.103 -1.047,0.103 -2.138,0 -2.878,-1.542 -2.878,-3.413 v -4.789 H 0 V 0"
         style="fill:#ed1c24;fill-opacity:1;fill-rule:nonzero;stroke:none"
         transform="matrix(1.3333333,0,0,-1.3333333,501.516,189.24133)" />
      <path
         id="path36"
         d="M 0,0 C -0.268,1.479 -0.904,2.26 -2.323,2.26 -4.173,2.26 -4.707,0.822 -4.748,0 Z m -4.748,-1.85 c 0.082,-1.85 0.987,-2.692 2.61,-2.692 1.172,0 2.117,0.718 2.302,1.376 h 2.569 c -0.822,-2.507 -2.569,-3.576 -4.974,-3.576 -3.35,0 -5.426,2.302 -5.426,5.59 0,3.187 2.199,5.611 5.426,5.611 3.618,0 5.365,-3.041 5.16,-6.309 h -7.667"
         style="fill:#ed1c24;fill-opacity:1;fill-rule:nonzero;stroke:none"
         transform="matrix(1.3333333,0,0,-1.3333333,521.21733,194.80267)" />
      <path
         id="path37"
         d="m 0,0 c -0.493,-0.432 -1.521,-0.453 -2.425,-0.617 -0.904,-0.185 -1.727,-0.493 -1.727,-1.562 0,-1.089 0.842,-1.357 1.788,-1.357 2.282,0 2.364,1.809 2.364,2.447 z m -6.741,2.158 c 0.164,2.733 2.609,3.555 4.994,3.555 2.117,0 4.666,-0.472 4.666,-3.021 v -5.528 c 0,-0.967 0.102,-1.933 0.369,-2.365 H 0.329 c -0.104,0.33 -0.186,0.679 -0.205,1.029 -0.926,-0.967 -2.282,-1.316 -3.577,-1.316 -2.015,0 -3.618,1.007 -3.618,3.186 0,2.404 1.809,2.98 3.618,3.226 C -1.665,1.192 0,1.13 0,2.322 c 0,1.254 -0.864,1.439 -1.891,1.439 -1.11,0 -1.829,-0.452 -1.932,-1.603 h -2.918"
         style="fill:#ed1c24;fill-opacity:1;fill-rule:nonzero;stroke:none"
         transform="matrix(1.3333333,0,0,-1.3333333,536.23067,196.47467)" />
      <path
         id="path38"
         d="m 0,0 h 3.535 c 1.438,0 2.218,0.616 2.218,2.095 0,1.419 -0.78,2.035 -2.218,2.035 L 0,4.13 Z m -3.228,6.638 h 7.913 c 2.631,0 4.296,-1.829 4.296,-4.05 0,-1.725 -0.698,-3.02 -2.322,-3.678 V -1.131 C 8.242,-1.542 8.693,-3.083 8.796,-4.564 8.858,-5.489 8.837,-7.215 9.413,-8.038 H 6.185 c -0.39,0.925 -0.349,2.344 -0.514,3.515 -0.225,1.542 -0.822,2.22 -2.445,2.22 H 0 V -8.038 H -3.228 V 6.638"
         style="fill:#ed1c24;fill-opacity:1;fill-rule:nonzero;stroke:none"
         transform="matrix(1.3333333,0,0,-1.3333333,555.464,192.692)" />
      <path
         id="path39"
         d="M 0,0 C -0.268,1.479 -0.905,2.26 -2.324,2.26 -4.173,2.26 -4.707,0.822 -4.748,0 Z m -4.748,-1.85 c 0.082,-1.85 0.986,-2.692 2.609,-2.692 1.172,0 2.117,0.718 2.303,1.376 H 2.732 C 1.91,-5.673 0.164,-6.742 -2.242,-6.742 c -3.35,0 -5.425,2.302 -5.425,5.59 0,3.187 2.199,5.611 5.425,5.611 3.619,0 5.365,-3.041 5.16,-6.309 h -7.666"
         style="fill:#ed1c24;fill-opacity:1;fill-rule:nonzero;stroke:none"
         transform="matrix(1.3333333,0,0,-1.3333333,580.068,194.80267)" />
      <path
         id="path40"
         d="m 0,0 c -1.911,0 -2.569,-1.644 -2.569,-3.391 0,-1.664 0.761,-3.411 2.569,-3.411 1.933,0 2.507,1.684 2.507,3.431 C 2.507,-1.644 1.892,0 0,0 Z M 2.549,-7.358 H 2.507 C 1.83,-8.509 0.638,-9.002 -0.719,-9.002 c -3.206,0 -4.768,2.754 -4.768,5.694 0,2.856 1.582,5.507 4.706,5.507 1.254,0 2.488,-0.534 3.146,-1.582 H 2.406 V 5.961 H 5.324 V -8.715 H 2.549 v 1.357"
         style="fill:#ed1c24;fill-opacity:1;fill-rule:nonzero;stroke:none"
         transform="matrix(1.3333333,0,0,-1.3333333,592.96933,191.78933)" />
      <path
         id="path41"
         d="m 0,0 c -0.205,1.46 -1.603,2.569 -3.206,2.569 -2.898,0 -3.988,-2.466 -3.988,-5.035 0,-2.446 1.09,-4.912 3.988,-4.912 1.973,0 3.083,1.356 3.33,3.288 h 3.124 c -0.329,-3.658 -2.858,-6.002 -6.454,-6.002 -4.542,0 -7.214,3.391 -7.214,7.626 0,4.357 2.672,7.749 7.214,7.749 3.227,0 5.94,-1.892 6.331,-5.283 L 0,0"
         style="fill:#ed1c24;fill-opacity:1;fill-rule:nonzero;stroke:none"
         transform="matrix(1.3333333,0,0,-1.3333333,624.068,190.41867)" />
      <path
         id="path42"
         d="m 0,0 h 2.776 v -1.972 h 0.041 c 0.533,1.336 1.973,2.26 3.39,2.26 0.206,0 0.453,-0.041 0.637,-0.102 v -2.713 c -0.266,0.062 -0.698,0.103 -1.048,0.103 -2.137,0 -2.878,-1.542 -2.878,-3.413 v -4.789 H 0 L 0,0"
         style="fill:#ed1c24;fill-opacity:1;fill-rule:nonzero;stroke:none"
         transform="matrix(1.3333333,0,0,-1.3333333,630.91333,189.24133)" />
      <path
         id="path43"
         d="M 0,0 C 1.993,0 2.589,1.705 2.589,3.39 2.589,5.096 1.993,6.802 0,6.802 -1.974,6.802 -2.571,5.096 -2.571,3.39 -2.571,1.705 -1.974,0 0,0 Z M 0,9.001 C 3.349,9.001 5.507,6.782 5.507,3.39 5.507,0.02 3.349,-2.2 0,-2.2 c -3.33,0 -5.489,2.22 -5.489,5.59 0,3.392 2.159,5.611 5.489,5.611"
         style="fill:#ed1c24;fill-opacity:1;fill-rule:nonzero;stroke:none"
         transform="matrix(1.3333333,0,0,-1.3333333,647.95867,200.85867)" />
      <path
         id="path44"
         d="m 0,0 c 0.02,-1.275 1.09,-1.789 2.24,-1.789 0.843,0 1.912,0.33 1.912,1.357 0,0.884 -1.213,1.192 -3.309,1.644 -1.685,0.371 -3.37,0.966 -3.37,2.836 0,2.714 2.342,3.412 4.624,3.412 2.323,0 4.46,-0.781 4.686,-3.391 H 4.008 C 3.926,5.2 3.062,5.508 2.015,5.508 1.357,5.508 0.391,5.384 0.391,4.521 0.391,3.473 2.035,3.33 3.699,2.939 5.406,2.548 7.07,1.932 7.07,-0.041 c 0,-2.795 -2.425,-3.7 -4.85,-3.7 -2.466,0 -4.871,0.925 -4.995,3.741 H 0"
         style="fill:#ed1c24;fill-opacity:1;fill-rule:nonzero;stroke:none"
         transform="matrix(1.3333333,0,0,-1.3333333,660.83333,198.804)" />
      <path
         id="path45"
         d="m 0,0 c 0.021,-1.275 1.089,-1.789 2.241,-1.789 0.842,0 1.91,0.33 1.91,1.357 0,0.884 -1.211,1.192 -3.308,1.644 -1.686,0.371 -3.371,0.966 -3.371,2.836 0,2.714 2.344,3.412 4.625,3.412 2.322,0 4.46,-0.781 4.685,-3.391 H 4.009 C 3.926,5.2 3.063,5.508 2.015,5.508 1.357,5.508 0.391,5.384 0.391,4.521 0.391,3.473 2.035,3.33 3.7,2.939 5.405,2.548 7.071,1.932 7.071,-0.041 c 0,-2.795 -2.425,-3.7 -4.851,-3.7 -2.467,0 -4.871,0.925 -4.994,3.741 H 0"
         style="fill:#ed1c24;fill-opacity:1;fill-rule:nonzero;stroke:none"
         transform="matrix(1.3333333,0,0,-1.3333333,675.54533,198.804)" />
      <path
         id="path46"
         d="M 0.059998,81.662 H 217.092 V 133.28 H 0.059998 Z"
         style="fill:#ed1c24;fill-opacity:1;fill-rule:nonzero;stroke:none"
         transform="matrix(1.3333333,0,0,-1.3333333,0,208.44267)"
         clip-path="url(#clipPath47)" />
      <path
         id="path48"
         d="m 0,0 c 11.272,0 20.409,9.138 20.409,20.409 0,11.272 -9.137,20.41 -20.409,20.41 -11.272,0 -20.409,-9.138 -20.409,-20.41 C -20.409,9.138 -11.272,0 0,0"
         style="fill:#ffffff;fill-opacity:1;fill-rule:nonzero;stroke:none"
         transform="matrix(1.3333333,0,0,-1.3333333,72.757333,92.36)" />
      <path
         id="path49"
         d="M 0,0 H 13.738 L 2.51,-8.04 6.901,-21.267 -4.335,-12.93 -15.327,-20.775 -11.078,-7.882 -21.815,0 H -8.489 L -4.238,12.324 0,0"
         style="fill:#ed1c24;fill-opacity:1;fill-rule:nonzero;stroke:none"
         transform="matrix(1.3333333,0,0,-1.3333333,78.293333,57.28)" />
      <path
         id="path50"
         d="M 0.059998,137.611 H 217.092 v 18.721 H 0.059998 Z"
         style="fill:#2e3192;fill-opacity:1;fill-rule:nonzero;stroke:none"
         transform="matrix(1.3333333,0,0,-1.3333333,0,208.44267)"
         clip-path="url(#clipPath51)" />
      <path
         id="path52"
         d="M 0.059998,0 H 217.092 V 77.332 H 0.059998 Z"
         style="fill:#2e3192;fill-opacity:1;fill-rule:nonzero;stroke:none"
         transform="matrix(1.3333333,0,0,-1.3333333,0,208.44267)"
         clip-path="url(#clipPath53)" />
      <path
         id="path54"
         d="m 4.0876,4.399 h 208.917 V 56.448 H 4.0876 Z"
         style="fill:#ffffff;fill-opacity:1;fill-rule:nonzero;stroke:none"
         transform="matrix(1.3333333,0,0,-1.3333333,0,208.44267)" />
      <path
         id="path55"
         d="M 0,0 H -13.857 V 13.857 H -28.383 V 0 H -42.24 v -14.527 h 13.857 v -13.857 h 14.526 v 13.857 H 0 L 0,0"
         style="fill:#ed1c24;fill-opacity:1;fill-rule:nonzero;stroke:none"
         transform="matrix(1.3333333,0,0,-1.3333333,172.888,158.19333)" />
    </g>
  </g>
</svg>
