<?xml version="1.0" encoding="UTF-8" standalone="no"?>
<!-- Created with Inkscape (http://www.inkscape.org/) -->

<svg
   version="1.1"
   id="svg1"
   width="659.58136"
   height="80.622665"
   viewBox="0 0 659.58136 80.622665"
   sodipodi:docname="Comoros RC_horiz.svg"
   inkscape:version="1.3.2 (091e20e, 2023-11-25, custom)"
   xmlns:inkscape="http://www.inkscape.org/namespaces/inkscape"
   xmlns:sodipodi="http://sodipodi.sourceforge.net/DTD/sodipodi-0.dtd"
   xmlns="http://www.w3.org/2000/svg"
   xmlns:svg="http://www.w3.org/2000/svg">
  <defs
     id="defs1">
    <clipPath
       clipPathUnits="userSpaceOnUse"
       id="clipPath3">
      <path
         d="M 0,60.467 H 494.64 V 0.06 L 0,0.06 Z"
         transform="translate(-59.865001,-45.606001)"
         id="path3" />
    </clipPath>
    <clipPath
       clipPathUnits="userSpaceOnUse"
       id="clipPath27">
      <path
         d="M 0,60.467 H 494.64 V 0.06 L 0,0.06 Z"
         transform="translate(-482.33301,-39.326001)"
         id="path27" />
    </clipPath>
  </defs>
  <sodipodi:namedview
     id="namedview1"
     pagecolor="#ffffff"
     bordercolor="#666666"
     borderopacity="1.0"
     inkscape:showpageshadow="2"
     inkscape:pageopacity="0.0"
     inkscape:pagecheckerboard="0"
     inkscape:deskcolor="#d1d1d1"
     inkscape:zoom="1.4175658"
     inkscape:cx="329.79068"
     inkscape:cy="40.56249"
     inkscape:window-width="1920"
     inkscape:window-height="1017"
     inkscape:window-x="-8"
     inkscape:window-y="-8"
     inkscape:window-maximized="1"
     inkscape:current-layer="g1">
    <inkscape:page
       x="0"
       y="0"
       inkscape:label="1"
       id="page1"
       width="659.58136"
       height="80.622665"
       margin="0"
       bleed="0" />
  </sodipodi:namedview>
  <g
     id="g1"
     inkscape:groupmode="layer"
     inkscape:label="1">
    <g
       id="group-MC1">
      <path
         id="path2"
         d="m 0,0 c 0,0 -9.978,17.154 -32.61,14.601 0,0 -19.237,-2.246 -26.027,-21.34 0,0 -7.715,-22.157 15.534,-35.227 0,0 25.1,-13.478 43.309,11.436 0,0 -10.699,-11.334 -26.026,-6.126 0,0 -16.254,5.105 -15.637,22.565 0,0 0.823,18.175 21.191,20.932 0,0 10.596,1.532 20.266,-6.841"
         style="fill:#ec1c24;fill-opacity:1;fill-rule:nonzero;stroke:none"
         transform="matrix(1.3333333,0,0,-1.3333333,79.82,19.814667)"
         clip-path="url(#clipPath3)" />
      <path
         id="path4"
         d="m 0,0 v -6.304 h -0.523 c -0.394,1.646 -1.126,2.906 -2.2,3.783 -1.072,0.875 -2.288,1.314 -3.648,1.314 -1.135,0 -2.177,-0.326 -3.125,-0.98 -0.947,-0.652 -1.64,-1.506 -2.078,-2.561 -0.564,-1.351 -0.845,-2.853 -0.845,-4.506 0,-1.628 0.205,-3.11 0.617,-4.446 0.411,-1.337 1.054,-2.348 1.931,-3.032 0.876,-0.684 2.012,-1.026 3.407,-1.026 1.144,0 2.193,0.25 3.145,0.751 0.952,0.501 1.956,1.363 3.011,2.589 v -1.569 c -1.02,-1.065 -2.082,-1.835 -3.186,-2.314 -1.104,-0.478 -2.394,-0.718 -3.869,-0.718 -1.94,0 -3.664,0.39 -5.17,1.167 -1.507,0.779 -2.669,1.896 -3.488,3.354 -0.817,1.457 -1.226,3.008 -1.226,4.653 0,1.735 0.453,3.38 1.361,4.936 0.907,1.555 2.132,2.763 3.675,3.621 1.542,0.858 3.18,1.288 4.915,1.288 1.278,0 2.629,-0.277 4.05,-0.832 0.823,-0.321 1.346,-0.482 1.57,-0.482 0.286,0 0.534,0.104 0.744,0.315 0.21,0.21 0.347,0.543 0.409,0.999 L 0,0"
         style="fill:#ec1c24;fill-opacity:1;fill-rule:nonzero;stroke:none"
         transform="matrix(1.3333333,0,0,-1.3333333,109.33067,27.633333)" />
      <path
         id="path5"
         d="m 0,0 v -7.967 h 0.765 c 1.242,0 2.173,0.114 2.789,0.342 0.617,0.228 1.102,0.639 1.456,1.233 0.353,0.595 0.53,1.371 0.53,2.328 0,1.385 -0.325,2.41 -0.973,3.071 C 3.918,-0.331 2.875,0 1.436,0 Z m 0,-8.919 v -5.097 c 0,-0.984 0.061,-1.603 0.181,-1.857 0.121,-0.255 0.333,-0.459 0.637,-0.61 0.304,-0.153 0.872,-0.229 1.703,-0.229 v -0.496 h -9.307 v 0.496 c 0.84,0 1.41,0.078 1.71,0.235 0.299,0.157 0.51,0.36 0.63,0.61 0.121,0.251 0.181,0.867 0.181,1.851 v 11.802 c 0,0.985 -0.06,1.604 -0.181,1.859 -0.12,0.254 -0.333,0.458 -0.637,0.61 -0.304,0.151 -0.872,0.228 -1.703,0.228 v 0.496 h 8.449 c 2.2,0 3.809,-0.153 4.829,-0.456 1.019,-0.304 1.85,-0.866 2.494,-1.683 0.644,-0.819 0.966,-1.777 0.966,-2.877 0,-1.342 -0.482,-2.45 -1.449,-3.326 -0.616,-0.555 -1.48,-0.971 -2.588,-1.248 l 4.373,-6.156 c 0.571,-0.795 0.979,-1.292 1.22,-1.489 0.366,-0.277 0.791,-0.428 1.273,-0.456 v -0.496 H 7.055 L 1.194,-8.919 H 0"
         style="fill:#ec1c24;fill-opacity:1;fill-rule:nonzero;stroke:none"
         transform="matrix(1.3333333,0,0,-1.3333333,121.06133,29.492)" />
      <path
         id="path6"
         d="m 0,0 c -1.663,0 -2.929,-0.85 -3.796,-2.548 -0.706,-1.395 -1.059,-3.398 -1.059,-6.009 0,-3.102 0.545,-5.396 1.636,-6.88 0.76,-1.038 1.824,-1.556 3.192,-1.556 0.921,0 1.69,0.224 2.307,0.671 0.786,0.572 1.399,1.486 1.837,2.743 0.438,1.256 0.657,2.895 0.657,4.915 0,2.405 -0.223,4.205 -0.67,5.398 -0.447,1.194 -1.017,2.037 -1.71,2.529 C 1.701,-0.246 0.903,0 0,0 Z M -0.161,0.858 C 2.736,0.966 5.09,0.121 6.9,-1.677 c 1.811,-1.797 2.716,-4.046 2.716,-6.746 0,-2.306 -0.675,-4.337 -2.025,-6.089 -1.788,-2.325 -4.314,-3.487 -7.578,-3.487 -3.272,0 -5.803,1.108 -7.591,3.326 -1.413,1.753 -2.119,3.831 -2.119,6.238 0,2.7 0.919,4.95 2.756,6.752 1.837,1.801 4.097,2.649 6.78,2.541"
         style="fill:#ec1c24;fill-opacity:1;fill-rule:nonzero;stroke:none"
         transform="matrix(1.3333333,0,0,-1.3333333,152.14267,28.992)" />
      <path
         id="path7"
         d="M 0,0 V -0.496 H -9.509 V 0 h 0.604 c 0.527,0 0.952,0.094 1.274,0.282 0.232,0.125 0.411,0.339 0.536,0.644 0.099,0.215 0.148,0.777 0.148,1.689 v 11.964 c 0,0.93 -0.049,1.511 -0.148,1.743 -0.098,0.233 -0.297,0.437 -0.597,0.611 -0.299,0.174 -0.704,0.261 -1.213,0.261 H -9.509 V 17.69 H 0 v -0.496 h -0.603 c -0.528,0 -0.952,-0.093 -1.275,-0.281 -0.232,-0.126 -0.415,-0.34 -0.549,-0.644 -0.099,-0.214 -0.148,-0.778 -0.148,-1.69 V 2.615 c 0,-0.929 0.051,-1.511 0.154,-1.743 C -2.318,0.64 -2.117,0.437 -1.817,0.262 -1.518,0.087 -1.113,0 -0.603,0 H 0"
         style="fill:#ec1c24;fill-opacity:1;fill-rule:nonzero;stroke:none"
         transform="matrix(1.3333333,0,0,-1.3333333,179.68133,51.774667)" />
      <path
         id="path8"
         d="m 0,0 0.147,-6.062 h -0.549 c -0.26,1.52 -0.897,2.743 -1.911,3.667 -1.016,0.926 -2.113,1.389 -3.293,1.389 -0.912,0 -1.634,-0.244 -2.166,-0.731 -0.532,-0.488 -0.798,-1.048 -0.798,-1.683 0,-0.402 0.093,-0.761 0.281,-1.073 0.26,-0.42 0.675,-0.836 1.248,-1.247 0.42,-0.295 1.39,-0.819 2.91,-1.57 2.128,-1.046 3.563,-2.034 4.305,-2.964 0.733,-0.93 1.1,-1.994 1.1,-3.192 0,-1.52 -0.592,-2.828 -1.777,-3.923 -1.185,-1.095 -2.689,-1.642 -4.513,-1.642 -0.572,0 -1.113,0.057 -1.623,0.173 -0.509,0.117 -1.149,0.335 -1.918,0.658 -0.429,0.179 -0.782,0.268 -1.059,0.268 -0.233,0 -0.479,-0.089 -0.738,-0.268 -0.259,-0.179 -0.469,-0.451 -0.63,-0.819 h -0.496 v 6.868 h 0.496 c 0.393,-1.932 1.151,-3.405 2.273,-4.419 1.122,-1.016 2.331,-1.523 3.628,-1.523 1.001,0 1.799,0.273 2.394,0.818 0.594,0.546 0.892,1.18 0.892,1.905 0,0.429 -0.114,0.845 -0.342,1.247 -0.228,0.402 -0.575,0.785 -1.04,1.146 -0.465,0.363 -1.287,0.834 -2.467,1.415 -1.655,0.814 -2.844,1.507 -3.568,2.079 -0.724,0.573 -1.281,1.212 -1.67,1.919 -0.389,0.706 -0.583,1.484 -0.583,2.334 0,1.448 0.531,2.681 1.596,3.701 C -8.807,-0.51 -7.466,0 -5.848,0 c 0.591,0 1.162,-0.071 1.717,-0.215 0.42,-0.107 0.932,-0.307 1.536,-0.597 0.603,-0.291 1.026,-0.435 1.267,-0.435 0.233,0 0.416,0.071 0.55,0.214 0.134,0.143 0.259,0.487 0.376,1.033 H 0"
         style="fill:#ec1c24;fill-opacity:1;fill-rule:nonzero;stroke:none"
         transform="matrix(1.3333333,0,0,-1.3333333,197.72533,27.633333)" />
      <path
         id="path9"
         d="m 0,0 0.147,-6.062 h -0.549 c -0.26,1.52 -0.897,2.743 -1.912,3.667 -1.015,0.926 -2.112,1.389 -3.293,1.389 -0.911,0 -1.633,-0.244 -2.166,-0.731 -0.531,-0.488 -0.797,-1.048 -0.797,-1.683 0,-0.402 0.093,-0.761 0.281,-1.073 0.26,-0.42 0.675,-0.836 1.247,-1.247 0.421,-0.295 1.391,-0.819 2.911,-1.57 2.128,-1.046 3.563,-2.034 4.305,-2.964 0.733,-0.93 1.1,-1.994 1.1,-3.192 0,-1.52 -0.592,-2.828 -1.777,-3.923 -1.185,-1.095 -2.689,-1.642 -4.513,-1.642 -0.572,0 -1.113,0.057 -1.623,0.173 -0.51,0.117 -1.149,0.335 -1.918,0.658 -0.429,0.179 -0.782,0.268 -1.059,0.268 -0.233,0 -0.479,-0.089 -0.738,-0.268 -0.259,-0.179 -0.469,-0.451 -0.63,-0.819 h -0.497 v 6.868 h 0.497 c 0.393,-1.932 1.15,-3.405 2.273,-4.419 1.122,-1.016 2.331,-1.523 3.628,-1.523 1.001,0 1.799,0.273 2.394,0.818 0.594,0.546 0.892,1.18 0.892,1.905 0,0.429 -0.114,0.845 -0.342,1.247 -0.228,0.402 -0.575,0.785 -1.04,1.146 -0.465,0.363 -1.287,0.834 -2.468,1.415 -1.654,0.814 -2.843,1.507 -3.567,2.079 -0.725,0.573 -1.281,1.212 -1.67,1.919 -0.389,0.706 -0.583,1.484 -0.583,2.334 0,1.448 0.531,2.681 1.596,3.701 C -8.807,-0.51 -7.466,0 -5.848,0 c 0.591,0 1.162,-0.071 1.717,-0.215 0.42,-0.107 0.932,-0.307 1.536,-0.597 0.603,-0.291 1.026,-0.435 1.267,-0.435 0.233,0 0.416,0.071 0.55,0.214 0.134,0.143 0.259,0.487 0.376,1.033 H 0"
         style="fill:#ec1c24;fill-opacity:1;fill-rule:nonzero;stroke:none"
         transform="matrix(1.3333333,0,0,-1.3333333,218.09333,27.633333)" />
      <path
         id="path10"
         d="M 0,0 -2.709,6.263 -5.499,0 Z m 0.456,-0.993 h -6.425 l -0.764,-1.771 c -0.25,-0.589 -0.375,-1.077 -0.375,-1.461 0,-0.509 0.205,-0.885 0.616,-1.126 0.242,-0.144 0.836,-0.251 1.784,-0.323 V -6.17 h -6.049 v 0.496 c 0.653,0.099 1.19,0.369 1.61,0.812 0.42,0.442 0.939,1.356 1.556,2.743 l 6.505,14.512 h 0.255 L 5.727,-2.521 C 6.353,-3.934 6.867,-4.824 7.269,-5.19 7.573,-5.468 8.002,-5.629 8.557,-5.674 V -6.17 h -8.799 v 0.496 h 0.363 c 0.706,0 1.202,0.099 1.488,0.295 0.197,0.144 0.295,0.349 0.295,0.617 0,0.162 -0.026,0.327 -0.08,0.496 -0.018,0.081 -0.152,0.416 -0.402,1.006 l -0.966,2.267"
         style="fill:#ec1c24;fill-opacity:1;fill-rule:nonzero;stroke:none"
         transform="matrix(1.3333333,0,0,-1.3333333,235.88667,44.210667)" />
      <path
         id="path11"
         d="m 0,0 8.972,-11.279 v 7.819 c 0,1.091 -0.156,1.828 -0.469,2.213 -0.43,0.518 -1.149,0.768 -2.16,0.751 V 0 h 6.009 V -0.496 C 11.583,-0.595 11.067,-0.722 10.803,-0.878 10.539,-1.035 10.333,-1.29 10.186,-1.643 10.038,-1.996 9.965,-2.602 9.965,-3.46 V -18.603 H 9.508 L -2.79,-3.46 v -11.561 c 0,-1.046 0.239,-1.752 0.717,-2.12 0.478,-0.366 1.026,-0.549 1.643,-0.549 H 0 v -0.497 h -6.451 v 0.497 c 1,0.008 1.698,0.214 2.092,0.617 0.393,0.402 0.59,1.086 0.59,2.052 v 12.835 l -0.389,0.483 c -0.385,0.482 -0.725,0.8 -1.02,0.952 -0.294,0.152 -0.719,0.237 -1.273,0.255 l 0,0.496 H 0"
         style="fill:#ec1c24;fill-opacity:1;fill-rule:nonzero;stroke:none"
         transform="matrix(1.3333333,0,0,-1.3333333,256.828,28.188)" />
      <path
         id="path12"
         d="m 0,0 v -4.922 h -0.483 c -0.286,1.135 -0.604,1.951 -0.952,2.447 -0.349,0.496 -0.827,0.893 -1.435,1.188 -0.34,0.161 -0.934,0.241 -1.784,0.241 h -1.354 v -14.029 c 0,-0.93 0.051,-1.511 0.154,-1.743 0.102,-0.233 0.304,-0.436 0.603,-0.611 0.3,-0.174 0.709,-0.261 1.227,-0.261 h 0.604 v -0.497 h -9.522 v 0.497 h 0.603 c 0.527,0 0.952,0.093 1.274,0.282 0.232,0.125 0.416,0.339 0.55,0.643 0.098,0.215 0.148,0.778 0.148,1.69 v 14.029 h -1.315 c -1.225,0 -2.114,-0.26 -2.669,-0.778 -0.778,-0.724 -1.27,-1.757 -1.475,-3.098 h -0.51 V 0 L 0,0"
         style="fill:#ec1c24;fill-opacity:1;fill-rule:nonzero;stroke:none"
         transform="matrix(1.3333333,0,0,-1.3333333,297.26,28.188)" />
      <path
         id="path13"
         d="m 222.087,26.062 h 7.819 v 2.7764 h -7.819 z"
         style="fill:#ec1c24;fill-opacity:1;fill-rule:nonzero;stroke:none"
         transform="matrix(1.3333333,0,0,-1.3333333,0,80.622667)" />
      <path
         id="path14"
         d="m 0,0 v -7.967 h 0.765 c 1.242,0 2.172,0.114 2.789,0.342 0.617,0.228 1.102,0.639 1.456,1.233 0.353,0.595 0.53,1.371 0.53,2.328 0,1.385 -0.325,2.41 -0.973,3.071 C 3.918,-0.331 2.875,0 1.436,0 Z m 0,-8.919 v -5.097 c 0,-0.984 0.061,-1.603 0.181,-1.857 0.121,-0.255 0.333,-0.459 0.637,-0.61 0.304,-0.153 0.872,-0.229 1.703,-0.229 v -0.496 h -9.307 v 0.496 c 0.84,0 1.41,0.078 1.71,0.235 0.299,0.157 0.51,0.36 0.63,0.61 0.121,0.251 0.181,0.867 0.181,1.851 v 11.802 c 0,0.985 -0.06,1.604 -0.181,1.859 -0.12,0.254 -0.333,0.458 -0.637,0.61 -0.304,0.151 -0.872,0.228 -1.703,0.228 v 0.496 h 8.449 c 2.2,0 3.809,-0.153 4.829,-0.456 1.019,-0.304 1.85,-0.866 2.494,-1.683 0.644,-0.819 0.966,-1.777 0.966,-2.877 0,-1.342 -0.483,-2.45 -1.449,-3.326 -0.616,-0.555 -1.48,-0.971 -2.588,-1.248 l 4.372,-6.156 c 0.572,-0.795 0.979,-1.292 1.221,-1.489 0.366,-0.277 0.791,-0.428 1.274,-0.456 v -0.496 H 7.055 L 1.194,-8.919 H 0"
         style="fill:#ec1c24;fill-opacity:1;fill-rule:nonzero;stroke:none"
         transform="matrix(1.3333333,0,0,-1.3333333,317.14533,29.492)" />
      <path
         id="path15"
         d="m 0,0 c -1.663,0 -2.929,-0.85 -3.796,-2.548 -0.707,-1.395 -1.059,-3.398 -1.059,-6.009 0,-3.102 0.544,-5.396 1.635,-6.88 0.761,-1.038 1.825,-1.556 3.193,-1.556 0.921,0 1.69,0.224 2.306,0.671 0.787,0.572 1.4,1.486 1.838,2.743 0.438,1.256 0.657,2.895 0.657,4.915 0,2.405 -0.223,4.205 -0.67,5.398 -0.448,1.194 -1.017,2.037 -1.71,2.529 C 1.7,-0.246 0.902,0 0,0 Z M -0.161,0.858 C 2.735,0.966 5.09,0.121 6.9,-1.677 c 1.811,-1.797 2.716,-4.046 2.716,-6.746 0,-2.306 -0.676,-4.337 -2.025,-6.089 -1.788,-2.325 -4.315,-3.487 -7.578,-3.487 -3.273,0 -5.803,1.108 -7.591,3.326 -1.413,1.753 -2.12,3.831 -2.12,6.238 0,2.7 0.919,4.95 2.757,6.752 1.837,1.801 4.097,2.649 6.78,2.541"
         style="fill:#ec1c24;fill-opacity:1;fill-rule:nonzero;stroke:none"
         transform="matrix(1.3333333,0,0,-1.3333333,348.22667,28.992)" />
      <path
         id="path16"
         d="M 0,0 H 9.389 V -0.496 H 8.92 C 8.213,-0.496 7.728,-0.57 7.464,-0.718 7.2,-0.865 7.013,-1.068 6.902,-1.328 6.789,-1.587 6.734,-2.235 6.734,-3.272 v -8.906 c 0,-1.628 0.123,-2.705 0.369,-3.232 0.245,-0.527 0.65,-0.966 1.213,-1.315 0.563,-0.348 1.274,-0.523 2.133,-0.523 0.983,0 1.822,0.222 2.514,0.664 0.694,0.442 1.212,1.053 1.557,1.831 0.344,0.777 0.515,2.133 0.515,4.064 v 7.417 c 0,0.813 -0.084,1.394 -0.253,1.743 -0.17,0.349 -0.385,0.591 -0.645,0.724 -0.402,0.206 -0.971,0.309 -1.703,0.309 V 0 h 6.291 v -0.496 h -0.377 c -0.51,0 -0.934,-0.103 -1.273,-0.309 -0.34,-0.206 -0.586,-0.513 -0.739,-0.925 -0.115,-0.287 -0.174,-0.8 -0.174,-1.542 v -6.908 c 0,-2.136 -0.14,-3.679 -0.421,-4.627 -0.282,-0.948 -0.969,-1.819 -2.06,-2.615 -1.091,-0.796 -2.58,-1.193 -4.466,-1.193 -1.574,0 -2.79,0.21 -3.648,0.63 -1.172,0.572 -1.998,1.305 -2.482,2.199 -0.482,0.894 -0.723,2.097 -0.723,3.608 v 8.906 c 0,1.045 -0.059,1.696 -0.175,1.951 -0.116,0.255 -0.318,0.458 -0.604,0.61 C 1.297,-0.559 0.77,-0.487 0,-0.496 V 0"
         style="fill:#ec1c24;fill-opacity:1;fill-rule:nonzero;stroke:none"
         transform="matrix(1.3333333,0,0,-1.3333333,363.21067,28.188)" />
      <path
         id="path17"
         d="m 0,0 v -6.411 h -0.496 c -0.6,1.753 -1.498,3.085 -2.697,3.997 -1.198,0.912 -2.507,1.368 -3.929,1.368 -1.36,0 -2.49,-0.383 -3.393,-1.147 -0.903,-0.764 -1.543,-1.831 -1.918,-3.199 -0.376,-1.368 -0.563,-2.772 -0.563,-4.212 0,-1.743 0.205,-3.272 0.617,-4.587 0.411,-1.313 1.074,-2.279 1.991,-2.896 0.916,-0.617 2.005,-0.926 3.266,-0.926 0.438,0 0.887,0.047 1.348,0.141 0.46,0.095 0.932,0.23 1.414,0.409 v 3.782 c 0,0.716 -0.048,1.179 -0.147,1.389 -0.098,0.21 -0.302,0.399 -0.609,0.569 -0.309,0.17 -0.683,0.255 -1.121,0.255 h -0.469 v 0.497 h 8.839 v -0.497 C 1.462,-11.512 0.994,-11.604 0.73,-11.742 0.467,-11.881 0.263,-12.111 0.121,-12.433 0.04,-12.603 0,-13.019 0,-13.681 v -3.782 c -1.162,-0.519 -2.372,-0.909 -3.628,-1.173 -1.257,-0.264 -2.56,-0.395 -3.909,-0.395 -1.727,0 -3.159,0.234 -4.299,0.704 -1.141,0.469 -2.147,1.086 -3.018,1.85 -0.872,0.765 -1.553,1.625 -2.046,2.582 -0.626,1.234 -0.938,2.616 -0.938,4.144 0,2.736 0.961,5.048 2.884,6.935 1.922,1.886 4.341,2.83 7.256,2.83 0.902,0 1.716,-0.073 2.44,-0.215 0.394,-0.071 1.03,-0.276 1.911,-0.611 0.881,-0.334 1.402,-0.502 1.563,-0.502 0.251,0 0.483,0.091 0.698,0.275 0.214,0.182 0.411,0.529 0.59,1.039 L 0,0"
         style="fill:#ec1c24;fill-opacity:1;fill-rule:nonzero;stroke:none"
         transform="matrix(1.3333333,0,0,-1.3333333,414.07067,27.633333)" />
      <path
         id="path18"
         d="m 0,0 v -7.403 h 0.362 c 1.153,0 1.989,0.362 2.508,1.086 0.518,0.724 0.849,1.793 0.993,3.206 h 0.509 v -9.523 H 3.863 c -0.108,1.037 -0.333,1.886 -0.678,2.548 -0.344,0.661 -0.744,1.107 -1.2,1.335 C 1.529,-8.523 0.866,-8.409 0,-8.409 v -5.124 c 0,-1.001 0.042,-1.613 0.127,-1.837 0.085,-0.224 0.243,-0.407 0.477,-0.55 0.232,-0.143 0.607,-0.215 1.126,-0.215 h 1.087 c 1.698,0 3.059,0.394 4.084,1.181 1.023,0.786 1.758,1.984 2.206,3.594 H 9.603 L 8.784,-17.141 H -6.934 v 0.496 h 0.603 c 0.528,0 0.952,0.094 1.275,0.283 0.232,0.125 0.411,0.339 0.536,0.643 0.098,0.215 0.147,0.778 0.147,1.69 v 11.964 c 0,0.822 -0.022,1.328 -0.066,1.515 -0.09,0.313 -0.255,0.554 -0.497,0.724 -0.34,0.251 -0.805,0.376 -1.395,0.376 H -6.934 V 1.046 H 8.288 V -4.332 H 7.779 C 7.519,-3.017 7.156,-2.074 6.686,-1.502 6.216,-0.93 5.552,-0.51 4.694,-0.241 4.193,-0.08 3.254,0 1.877,0 H 0"
         style="fill:#ec1c24;fill-opacity:1;fill-rule:nonzero;stroke:none"
         transform="matrix(1.3333333,0,0,-1.3333333,427.268,29.582667)" />
      <path
         id="path19"
         d="m 0,0 v -6.304 h -0.522 c -0.394,1.646 -1.127,2.906 -2.2,3.783 -1.073,0.875 -2.289,1.314 -3.648,1.314 -1.135,0 -2.177,-0.326 -3.125,-0.98 -0.948,-0.652 -1.641,-1.506 -2.079,-2.561 -0.563,-1.351 -0.845,-2.853 -0.845,-4.506 0,-1.628 0.206,-3.11 0.617,-4.446 0.411,-1.337 1.055,-2.348 1.931,-3.032 0.876,-0.684 2.012,-1.026 3.407,-1.026 1.144,0 2.193,0.25 3.145,0.751 0.952,0.501 1.956,1.363 3.011,2.589 v -1.569 c -1.019,-1.065 -2.081,-1.835 -3.185,-2.314 -1.104,-0.478 -2.394,-0.718 -3.87,-0.718 -1.94,0 -3.663,0.39 -5.17,1.167 -1.507,0.779 -2.669,1.896 -3.487,3.354 -0.818,1.457 -1.228,3.008 -1.228,4.653 0,1.735 0.454,3.38 1.362,4.936 0.908,1.555 2.132,2.763 3.675,3.621 C -10.669,-0.43 -9.03,0 -7.296,0 c 1.279,0 2.629,-0.277 4.051,-0.832 0.823,-0.321 1.346,-0.482 1.569,-0.482 0.286,0 0.534,0.104 0.745,0.315 0.21,0.21 0.345,0.543 0.409,0.999 L 0,0"
         style="fill:#ec1c24;fill-opacity:1;fill-rule:nonzero;stroke:none"
         transform="matrix(1.3333333,0,0,-1.3333333,475.31733,27.633333)" />
      <path
         id="path20"
         d="m 0,0 c -1.663,0 -2.928,-0.85 -3.795,-2.548 -0.707,-1.395 -1.06,-3.398 -1.06,-6.009 0,-3.102 0.545,-5.396 1.636,-6.88 0.76,-1.038 1.824,-1.556 3.192,-1.556 0.921,0 1.69,0.224 2.307,0.671 0.787,0.572 1.4,1.486 1.838,2.743 0.438,1.256 0.657,2.895 0.657,4.915 0,2.405 -0.223,4.205 -0.671,5.398 -0.447,1.194 -1.017,2.037 -1.71,2.529 C 1.701,-0.246 0.903,0 0,0 Z m -0.16,0.858 c 2.896,0.108 5.25,-0.737 7.06,-2.535 1.811,-1.797 2.717,-4.046 2.717,-6.746 0,-2.306 -0.676,-4.337 -2.025,-6.089 -1.789,-2.325 -4.315,-3.487 -7.578,-3.487 -3.273,0 -5.803,1.108 -7.591,3.326 -1.413,1.753 -2.119,3.831 -2.119,6.238 0,2.7 0.918,4.95 2.755,6.752 1.838,1.801 4.098,2.649 6.781,2.541"
         style="fill:#ec1c24;fill-opacity:1;fill-rule:nonzero;stroke:none"
         transform="matrix(1.3333333,0,0,-1.3333333,491.68,28.992)" />
      <path
         id="path21"
         d="m 0,0 4.936,11.99 h 7.403 v -0.496 h -0.59 c -0.536,0 -0.965,-0.094 -1.287,-0.281 C 10.239,11.087 10.06,10.877 9.925,10.582 9.827,10.367 9.778,9.809 9.778,8.905 v -11.99 c 0,-0.93 0.049,-1.511 0.147,-1.743 0.099,-0.233 0.3,-0.436 0.604,-0.611 0.304,-0.174 0.711,-0.261 1.22,-0.261 h 0.59 V -6.196 H 2.844 V -5.7 h 0.59 c 0.537,0 0.966,0.094 1.288,0.282 0.223,0.125 0.402,0.339 0.536,0.644 0.099,0.214 0.148,0.777 0.148,1.689 V 10.394 L -1.569,-6.196 H -1.89 L -8.972,10.273 V -2.535 c 0,-0.894 0.022,-1.444 0.067,-1.65 0.116,-0.447 0.369,-0.811 0.758,-1.092 C -7.758,-5.56 -7.148,-5.7 -6.316,-5.7 V -6.196 H -12.54 V -5.7 h 0.188 c 0.402,-0.009 0.778,0.055 1.127,0.194 0.348,0.139 0.612,0.324 0.791,0.557 0.179,0.232 0.317,0.558 0.416,0.979 0.017,0.098 0.027,0.554 0.027,1.368 V 8.905 c 0,0.921 -0.05,1.496 -0.148,1.724 -0.098,0.228 -0.299,0.43 -0.604,0.603 -0.303,0.175 -0.71,0.262 -1.22,0.262 h -0.577 v 0.496 h 7.431 L 0,0"
         style="fill:#ec1c24;fill-opacity:1;fill-rule:nonzero;stroke:none"
         transform="matrix(1.3333333,0,0,-1.3333333,523.26133,44.174667)" />
      <path
         id="path22"
         d="m 0,0 c -1.663,0 -2.928,-0.85 -3.795,-2.548 -0.707,-1.395 -1.06,-3.398 -1.06,-6.009 0,-3.102 0.545,-5.396 1.636,-6.88 0.76,-1.038 1.824,-1.556 3.193,-1.556 0.92,0 1.689,0.224 2.306,0.671 0.787,0.572 1.4,1.486 1.838,2.743 0.438,1.256 0.657,2.895 0.657,4.915 0,2.405 -0.223,4.205 -0.671,5.398 -0.447,1.194 -1.017,2.037 -1.71,2.529 C 1.701,-0.246 0.903,0 0,0 Z m -0.16,0.858 c 2.896,0.108 5.25,-0.737 7.06,-2.535 1.811,-1.797 2.717,-4.046 2.717,-6.746 0,-2.306 -0.676,-4.337 -2.025,-6.089 -1.789,-2.325 -4.315,-3.487 -7.578,-3.487 -3.273,0 -5.803,1.108 -7.591,3.326 -1.413,1.753 -2.119,3.831 -2.119,6.238 0,2.7 0.918,4.95 2.755,6.752 1.838,1.801 4.098,2.649 6.781,2.541"
         style="fill:#ec1c24;fill-opacity:1;fill-rule:nonzero;stroke:none"
         transform="matrix(1.3333333,0,0,-1.3333333,554.73467,28.992)" />
      <path
         id="path23"
         d="m 0,0 v -7.967 h 0.765 c 1.243,0 2.173,0.114 2.79,0.342 0.616,0.228 1.102,0.639 1.455,1.233 0.353,0.595 0.53,1.371 0.53,2.328 0,1.385 -0.325,2.41 -0.972,3.071 C 3.919,-0.331 2.875,0 1.436,0 Z m 0,-8.919 v -5.097 c 0,-0.984 0.061,-1.603 0.182,-1.857 0.12,-0.255 0.333,-0.459 0.637,-0.61 0.304,-0.153 0.872,-0.229 1.703,-0.229 v -0.496 h -9.308 v 0.496 c 0.84,0 1.41,0.078 1.71,0.235 0.3,0.157 0.51,0.36 0.63,0.61 0.121,0.251 0.182,0.867 0.182,1.851 v 11.802 c 0,0.985 -0.061,1.604 -0.182,1.859 -0.12,0.254 -0.333,0.458 -0.637,0.61 -0.303,0.151 -0.872,0.228 -1.703,0.228 v 0.496 h 8.45 c 2.2,0 3.809,-0.153 4.828,-0.456 1.019,-0.304 1.851,-0.866 2.495,-1.683 0.643,-0.819 0.966,-1.777 0.966,-2.877 0,-1.342 -0.484,-2.45 -1.449,-3.326 -0.617,-0.555 -1.48,-0.971 -2.588,-1.248 l 4.372,-6.156 c 0.572,-0.795 0.979,-1.292 1.22,-1.489 0.366,-0.277 0.791,-0.428 1.275,-0.456 v -0.496 H 7.055 l -5.86,8.289 H 0"
         style="fill:#ec1c24;fill-opacity:1;fill-rule:nonzero;stroke:none"
         transform="matrix(1.3333333,0,0,-1.3333333,578.58933,29.492)" />
      <path
         id="path24"
         d="M 0,0 V -0.496 H -9.509 V 0 h 0.604 c 0.527,0 0.952,0.094 1.274,0.282 0.233,0.125 0.411,0.339 0.536,0.644 0.099,0.215 0.148,0.777 0.148,1.689 v 11.964 c 0,0.93 -0.049,1.511 -0.148,1.743 -0.098,0.233 -0.297,0.437 -0.596,0.611 -0.3,0.174 -0.704,0.261 -1.214,0.261 H -9.509 V 17.69 H 0 v -0.496 h -0.603 c -0.528,0 -0.953,-0.093 -1.274,-0.281 -0.233,-0.126 -0.416,-0.34 -0.55,-0.644 -0.098,-0.214 -0.147,-0.778 -0.147,-1.69 V 2.615 c 0,-0.929 0.051,-1.511 0.153,-1.743 C -2.317,0.64 -2.116,0.437 -1.817,0.262 -1.517,0.087 -1.112,0 -0.603,0 H 0"
         style="fill:#ec1c24;fill-opacity:1;fill-rule:nonzero;stroke:none"
         transform="matrix(1.3333333,0,0,-1.3333333,608.72267,51.774667)" />
      <path
         id="path25"
         d="m 0,0 v -7.403 h 0.362 c 1.153,0 1.989,0.362 2.508,1.086 0.518,0.724 0.849,1.793 0.993,3.206 h 0.509 v -9.523 H 3.863 c -0.108,1.037 -0.333,1.886 -0.678,2.548 -0.344,0.661 -0.744,1.107 -1.2,1.335 C 1.529,-8.523 0.867,-8.409 0,-8.409 v -5.124 c 0,-1.001 0.042,-1.613 0.127,-1.837 0.085,-0.224 0.243,-0.407 0.477,-0.55 0.232,-0.143 0.607,-0.215 1.126,-0.215 h 1.087 c 1.698,0 3.059,0.394 4.084,1.181 1.023,0.786 1.758,1.984 2.206,3.594 H 9.603 L 8.784,-17.141 H -6.934 v 0.496 h 0.603 c 0.528,0 0.952,0.094 1.275,0.283 0.232,0.125 0.411,0.339 0.536,0.643 0.098,0.215 0.147,0.778 0.147,1.69 v 11.964 c 0,0.822 -0.022,1.328 -0.066,1.515 -0.09,0.313 -0.255,0.554 -0.497,0.724 -0.34,0.251 -0.805,0.376 -1.395,0.376 H -6.934 V 1.046 H 8.288 V -4.332 H 7.779 C 7.519,-3.017 7.156,-2.074 6.686,-1.502 6.216,-0.93 5.552,-0.51 4.694,-0.241 4.193,-0.08 3.254,0 1.877,0 H 0"
         style="fill:#ec1c24;fill-opacity:1;fill-rule:nonzero;stroke:none"
         transform="matrix(1.3333333,0,0,-1.3333333,619.54267,29.582667)" />
      <path
         id="path26"
         d="m 0,0 8.973,-11.279 v 7.819 c 0,1.091 -0.156,1.828 -0.469,2.213 -0.43,0.518 -1.149,0.768 -2.16,0.751 V 0 h 6.009 V -0.496 C 11.584,-0.595 11.067,-0.722 10.804,-0.878 10.54,-1.035 10.334,-1.29 10.187,-1.643 10.039,-1.996 9.966,-2.602 9.966,-3.46 V -18.603 H 9.51 L -2.789,-3.46 v -11.561 c 0,-1.046 0.238,-1.752 0.717,-2.12 0.478,-0.366 1.026,-0.549 1.643,-0.549 H 0 v -0.497 h -6.451 v 0.497 c 1.002,0.008 1.699,0.214 2.093,0.617 0.393,0.402 0.59,1.086 0.59,2.052 v 12.835 l -0.389,0.483 c -0.385,0.482 -0.725,0.8 -1.02,0.952 -0.295,0.152 -0.719,0.237 -1.274,0.255 V 0 H 0"
         style="fill:#ec1c24;fill-opacity:1;fill-rule:nonzero;stroke:none"
         transform="matrix(1.3333333,0,0,-1.3333333,643.11067,28.188)"
         clip-path="url(#clipPath27)" />
      <path
         id="path28"
         d="m 64.72,48.213 h 429.554 v 5.9999 H 64.72 Z"
         style="fill:#ec1c24;fill-opacity:1;fill-rule:nonzero;stroke:none"
         transform="matrix(1.3333333,0,0,-1.3333333,0,80.622667)" />
      <path
         id="path29"
         d="m 64.72,44.918 h 429.554 v 1 H 64.72 Z"
         style="fill:#ec1c24;fill-opacity:1;fill-rule:nonzero;stroke:none"
         transform="matrix(1.3333333,0,0,-1.3333333,0,80.622667)" />
      <path
         id="path30"
         d="m 64.72,6.2534 h 429.554 v 6 H 64.72 Z"
         style="fill:#ec1c24;fill-opacity:1;fill-rule:nonzero;stroke:none"
         transform="matrix(1.3333333,0,0,-1.3333333,0,80.622667)" />
      <path
         id="path31"
         d="m 64.72,14.548 h 429.554 v 1 H 64.72 Z"
         style="fill:#ec1c24;fill-opacity:1;fill-rule:nonzero;stroke:none"
         transform="matrix(1.3333333,0,0,-1.3333333,0,80.622667)" />
    </g>
  </g>
</svg>
