<?xml version="1.0" encoding="UTF-8" standalone="no"?>
<svg
   xmlns:dc="http://purl.org/dc/elements/1.1/"
   xmlns:cc="http://creativecommons.org/ns#"
   xmlns:rdf="http://www.w3.org/1999/02/22-rdf-syntax-ns#"
   xmlns:svg="http://www.w3.org/2000/svg"
   xmlns="http://www.w3.org/2000/svg"
   viewBox="0 0 463.39999 339.65332"
   height="339.65332"
   width="463.39999"
   xml:space="preserve"
   id="svg2"
   version="1.1"><metadata
     id="metadata8"><rdf:RDF><cc:Work
         rdf:about=""><dc:format>image/svg+xml</dc:format><dc:type
           rdf:resource="http://purl.org/dc/dcmitype/StillImage" /><dc:title></dc:title></cc:Work></rdf:RDF></metadata><defs
     id="defs6" /><g
     transform="matrix(1.3333333,0,0,-1.3333333,0,339.65333)"
     id="g10"><g
       transform="scale(0.1)"
       id="g12"><path
         id="path14"
         style="fill:#ed1c24;fill-opacity:1;fill-rule:nonzero;stroke:none"
         d="m 2417.15,2214.3 c 0,0 -227.26,384.48 -742.71,327.26 0,0 -438.13,-50.35 -592.77,-478.29 0,0 -175.725,-496.62 353.79,-789.55 0,0 571.67,-302.091 986.38,256.32 0,0 -243.67,-254.03 -592.76,-137.31 0,0 -370.2,114.42 -356.14,505.76 0,0 18.74,407.35 482.65,469.14 0,0 241.33,34.33 461.56,-153.33" /><path
         id="path16"
         style="fill:#ed1c24;fill-opacity:1;fill-rule:nonzero;stroke:none"
         d="M 179.219,713.809 V 650.77 h -5.231 c -3.933,16.46 -11.261,29.062 -21.996,37.82 -10.726,8.762 -22.887,13.148 -36.48,13.148 -11.352,0 -21.7737,-3.258 -31.2503,-9.797 -9.4765,-6.519 -16.4062,-15.07 -20.7851,-25.609 -5.6328,-13.512 -8.4532,-28.531 -8.4532,-45.062 0,-16.282 2.0586,-31.11 6.1719,-44.461 4.1133,-13.368 10.5469,-23.477 19.3125,-30.321 8.7656,-6.84 20.1172,-10.258 34.0662,-10.258 11.446,0 21.93,2.5 31.449,7.508 9.524,5.012 19.563,13.633 30.114,25.891 V 553.93 c -10.196,-10.641 -20.817,-18.348 -31.856,-23.129 -11.043,-4.789 -23.937,-7.18 -38.691,-7.18 -19.4025,0 -36.6408,3.899 -51.7033,11.668 -15.0664,7.781 -26.6875,18.961 -34.8711,33.543 -8.1797,14.566 -12.27341,30.066 -12.27341,46.527 0,17.34 4.53911,33.801 13.61331,49.36 9.0742,15.551 21.3242,27.621 36.75,36.211 15.4258,8.582 31.8047,12.879 49.1565,12.879 12.781,0 26.289,-2.778 40.5,-8.321 8.226,-3.218 13.457,-4.828 15.695,-4.828 2.859,0 5.34,1.051 7.441,3.16 2.098,2.102 3.465,5.43 4.09,9.989 h 5.231" /><path
         id="path18"
         style="fill:#ed1c24;fill-opacity:1;fill-rule:nonzero;stroke:none"
         d="m 324.883,699.859 v -79.668 h 7.644 c 12.43,0 21.731,1.141 27.899,3.418 6.172,2.282 11.019,6.391 14.554,12.34 3.532,5.942 5.297,13.699 5.297,23.27 0,13.851 -3.242,24.101 -9.726,30.711 -6.485,6.621 -16.918,9.929 -31.313,9.929 z m 0,-89.187 v -50.961 c 0,-9.852 0.605,-16.039 1.812,-18.582 1.203,-2.547 3.328,-4.59 6.371,-6.098 3.039,-1.531 8.715,-2.293 17.032,-2.293 v -4.957 H 257.02 v 4.957 c 8.406,0 14.101,0.782 17.101,2.352 2.992,1.57 5.098,3.601 6.305,6.101 1.207,2.508 1.808,8.668 1.808,18.52 v 118.008 c 0,9.851 -0.601,16.043 -1.808,18.59 -1.207,2.55 -3.336,4.582 -6.371,6.101 -3.043,1.512 -8.719,2.281 -17.035,2.281 v 4.957 h 84.496 c 21.996,0 38.089,-1.527 48.285,-4.558 10.187,-3.039 18.504,-8.66 24.945,-16.828 6.438,-8.18 9.656,-17.774 9.656,-28.77 0,-13.422 -4.828,-24.504 -14.484,-33.262 -6.168,-5.55 -14.801,-9.71 -25.887,-12.48 l 43.723,-61.551 c 5.723,-7.961 9.789,-12.929 12.207,-14.898 3.66,-2.77 7.91,-4.281 12.738,-4.563 v -4.957 h -57.265 l -58.614,82.891 h -11.937" /><path
         id="path20"
         style="fill:#ed1c24;fill-opacity:1;fill-rule:nonzero;stroke:none"
         d="m 615.668,703.609 c -16.629,0 -29.285,-8.488 -37.957,-25.48 -7.066,-13.949 -10.598,-33.981 -10.598,-60.078 0,-31.031 5.453,-53.969 16.364,-68.813 7.601,-10.367 18.242,-15.558 31.921,-15.558 9.211,0 16.903,2.242 23.071,6.711 7.863,5.718 13.992,14.859 18.371,27.429 4.383,12.559 6.574,28.95 6.574,49.149 0,24.051 -2.238,42.051 -6.703,53.992 -4.477,11.93 -10.18,20.359 -17.102,25.277 -6.933,4.91 -14.914,7.371 -23.941,7.371 z m -1.609,8.59 c 28.968,1.071 52.507,-7.379 70.613,-25.359 18.105,-17.961 27.16,-40.449 27.16,-67.461 0,-23.059 -6.754,-43.367 -20.254,-60.891 -17.883,-23.25 -43.14,-34.867 -75.777,-34.867 -32.727,0 -58.028,11.09 -75.914,33.258 -14.125,17.531 -21.192,38.312 -21.192,62.383 0,27 9.192,49.5 27.567,67.527 18.371,18 40.968,26.481 67.797,25.41" /><path
         id="path22"
         style="fill:#ed1c24;fill-opacity:1;fill-rule:nonzero;stroke:none"
         d="m 879.898,532.738 v -4.957 h -95.093 v 4.957 h 6.035 c 5.273,0 9.519,0.942 12.746,2.821 2.32,1.25 4.109,3.39 5.359,6.441 0.989,2.148 1.481,7.77 1.481,16.891 v 119.64 c 0,9.301 -0.492,15.11 -1.481,17.438 -0.98,2.32 -2.972,4.363 -5.965,6.101 -3,1.75 -7.042,2.621 -12.14,2.621 h -6.035 v 4.957 h 95.093 v -4.957 h -6.035 c -5.277,0 -9.523,-0.941 -12.746,-2.82 -2.324,-1.262 -4.152,-3.391 -5.496,-6.441 -0.988,-2.141 -1.476,-7.782 -1.476,-16.899 v -119.64 c 0,-9.289 0.511,-15.102 1.543,-17.43 1.027,-2.32 3.039,-4.352 6.035,-6.102 2.996,-1.75 7.043,-2.621 12.14,-2.621 h 6.035" /><path
         id="path24"
         style="fill:#ed1c24;fill-opacity:1;fill-rule:nonzero;stroke:none"
         d="m 1072.91,713.809 1.47,-60.629 h -5.5 c -2.59,15.211 -8.96,27.429 -19.11,36.679 -10.15,9.262 -21.12,13.891 -32.93,13.891 -9.12,0 -16.34,-2.441 -21.66,-7.32 -5.317,-4.871 -7.977,-10.469 -7.977,-16.821 0,-4.027 0.938,-7.609 2.817,-10.73 2.593,-4.199 6.75,-8.359 12.47,-12.481 4.2,-2.937 13.91,-8.179 29.11,-15.687 21.28,-10.461 35.63,-20.34 43.05,-29.641 7.33,-9.3 10.99,-19.941 10.99,-31.922 0,-15.207 -5.92,-28.277 -17.76,-39.226 -11.85,-10.961 -26.89,-16.434 -45.14,-16.434 -5.72,0 -11.13,0.582 -16.23,1.742 -5.09,1.161 -11.487,3.352 -19.17,6.579 -4.293,1.781 -7.828,2.683 -10.598,2.683 -2.328,0 -4.785,-0.902 -7.379,-2.683 -2.59,-1.789 -4.691,-4.52 -6.3,-8.188 h -4.961 v 68.668 h 4.961 c 3.929,-19.309 11.507,-34.039 22.734,-44.187 11.219,-10.153 23.313,-15.223 36.283,-15.223 10,0 17.99,2.723 23.94,8.18 5.94,5.453 8.91,11.8 8.91,19.05 0,4.282 -1.14,8.442 -3.42,12.473 -2.28,4.02 -5.74,7.848 -10.39,11.457 -4.65,3.621 -12.88,8.34 -24.68,14.152 -16.542,8.141 -28.432,15.071 -35.674,20.789 -7.246,5.731 -12.813,12.122 -16.7,19.18 -3.89,7.059 -5.836,14.852 -5.836,23.34 0,14.48 5.321,26.82 15.965,37.012 10.641,10.199 24.047,15.297 40.235,15.297 5.9,0 11.62,-0.719 17.17,-2.149 4.2,-1.078 9.32,-3.07 15.35,-5.969 6.04,-2.91 10.26,-4.351 12.68,-4.351 2.32,0 4.15,0.711 5.5,2.14 1.34,1.43 2.59,4.872 3.75,10.329 h 4.03" /><path
         id="path26"
         style="fill:#ed1c24;fill-opacity:1;fill-rule:nonzero;stroke:none"
         d="m 1283.35,713.809 1.47,-60.629 h -5.49 c -2.6,15.211 -8.97,27.429 -19.12,36.679 -10.15,9.262 -21.12,13.891 -32.92,13.891 -9.12,0 -16.34,-2.441 -21.66,-7.32 -5.32,-4.871 -7.98,-10.469 -7.98,-16.821 0,-4.027 0.93,-7.609 2.81,-10.73 2.6,-4.199 6.75,-8.359 12.47,-12.481 4.21,-2.937 13.91,-8.179 29.11,-15.687 21.28,-10.461 35.63,-20.34 43.05,-29.641 7.33,-9.3 11,-19.941 11,-31.922 0,-15.207 -5.92,-28.277 -17.77,-39.226 -11.85,-10.961 -26.89,-16.434 -45.13,-16.434 -5.72,0 -11.13,0.582 -16.23,1.742 -5.09,1.161 -11.49,3.352 -19.18,6.579 -4.29,1.781 -7.82,2.683 -10.59,2.683 -2.33,0 -4.79,-0.902 -7.38,-2.683 -2.59,-1.789 -4.69,-4.52 -6.3,-8.188 h -4.97 v 68.668 h 4.97 c 3.93,-19.309 11.5,-34.039 22.73,-44.187 11.22,-10.153 23.31,-15.223 36.28,-15.223 10.01,0 17.99,2.723 23.94,8.18 5.94,5.453 8.92,11.8 8.92,19.05 0,4.282 -1.14,8.442 -3.42,12.473 -2.28,4.02 -5.75,7.848 -10.4,11.457 -4.65,3.621 -12.87,8.34 -24.68,14.152 -16.54,8.141 -28.43,15.071 -35.67,20.789 -7.25,5.731 -12.81,12.122 -16.7,19.18 -3.89,7.059 -5.83,14.852 -5.83,23.34 0,14.48 5.31,26.82 15.96,37.012 10.64,10.199 24.05,15.297 40.23,15.297 5.91,0 11.62,-0.719 17.17,-2.149 4.2,-1.078 9.32,-3.07 15.36,-5.969 6.03,-2.91 10.26,-4.351 12.67,-4.351 2.33,0 4.16,0.711 5.5,2.14 1.34,1.43 2.59,4.872 3.76,10.329 h 4.02" /><path
         id="path28"
         style="fill:#ed1c24;fill-opacity:1;fill-rule:nonzero;stroke:none"
         d="m 1474.48,589.48 -27.09,62.629 -27.9,-62.629 z m 4.56,-9.929 h -64.25 l -7.64,-17.711 c -2.5,-5.891 -3.75,-10.77 -3.75,-14.61 0,-5.089 2.05,-8.851 6.17,-11.261 2.41,-1.438 8.35,-2.508 17.83,-3.231 v -4.957 h -60.49 v 4.957 c 6.53,0.992 11.9,3.692 16.1,8.121 4.2,4.422 9.39,13.563 15.56,27.43 l 65.05,145.121 h 2.55 l 65.58,-149.14 c 6.26,-14.129 11.4,-23.032 15.42,-26.688 3.04,-2.781 7.33,-4.391 12.88,-4.844 v -4.957 h -87.98 v 4.957 h 3.62 c 7.06,0 12.02,0.992 14.89,2.953 1.96,1.438 2.95,3.489 2.95,6.168 0,1.621 -0.27,3.27 -0.81,4.961 -0.18,0.821 -1.52,4.16 -4.02,10.059 l -9.66,22.672" /><path
         id="path30"
         style="fill:#ed1c24;fill-opacity:1;fill-rule:nonzero;stroke:none"
         d="m 1689.22,709.648 89.72,-112.796 v 78.199 c 0,10.91 -1.56,18.281 -4.69,22.129 -4.29,5.179 -11.49,7.679 -21.59,7.511 v 4.957 h 60.08 v -4.957 c -7.69,-0.992 -12.85,-2.261 -15.49,-3.82 -2.64,-1.57 -4.7,-4.121 -6.17,-7.652 -1.48,-3.528 -2.21,-9.59 -2.21,-18.168 v -151.43 h -4.56 l -122.99,151.43 V 559.43 c 0,-10.461 2.39,-17.52 7.18,-21.188 4.78,-3.66 10.25,-5.504 16.43,-5.504 h 4.29 v -4.957 h -64.51 v 4.957 c 10.01,0.094 16.98,2.153 20.92,6.172 3.93,4.031 5.9,10.86 5.9,20.52 v 128.359 l -3.89,4.832 c -3.85,4.82 -7.24,7.988 -10.19,9.52 -2.95,1.519 -7.2,2.371 -12.74,2.55 v 4.957 h 64.51" /><path
         id="path32"
         style="fill:#ed1c24;fill-opacity:1;fill-rule:nonzero;stroke:none"
         d="M 2050.14,709.648 V 660.43 h -4.82 c -2.86,11.351 -6.04,19.511 -9.52,24.468 -3.49,4.961 -8.28,8.934 -14.36,11.883 -3.4,1.61 -9.35,2.41 -17.83,2.41 h -13.56 v -140.3 c 0,-9.289 0.52,-15.102 1.55,-17.43 1.02,-2.32 3.03,-4.352 6.03,-6.102 3,-1.75 7.09,-2.621 12.28,-2.621 h 6.03 v -4.957 h -95.22 v 4.957 h 6.03 c 5.28,0 9.52,0.942 12.75,2.821 2.32,1.25 4.15,3.39 5.5,6.441 0.97,2.148 1.47,7.77 1.47,16.891 v 140.3 h -13.14 c -12.26,0 -21.15,-2.601 -26.69,-7.793 -7.79,-7.226 -12.7,-17.558 -14.76,-30.968 h -5.1 v 49.218 h 163.36" /><path
         id="path34"
         style="fill:#ed1c24;fill-opacity:1;fill-rule:nonzero;stroke:none"
         d="m 2177.44,577 h -78.2 v 27.762 h 78.2 V 577" /><path
         id="path36"
         style="fill:#ed1c24;fill-opacity:1;fill-rule:nonzero;stroke:none"
         d="m 2314.65,699.859 v -79.668 h 7.65 c 12.43,0 21.73,1.141 27.9,3.418 6.16,2.282 11.02,6.391 14.55,12.34 3.53,5.942 5.29,13.699 5.29,23.27 0,13.851 -3.24,24.101 -9.71,30.711 -6.49,6.621 -16.93,9.929 -31.32,9.929 z m 0,-89.187 v -50.961 c 0,-9.852 0.61,-16.039 1.82,-18.582 1.2,-2.547 3.33,-4.59 6.37,-6.098 3.03,-1.531 8.72,-2.293 17.03,-2.293 v -4.957 h -93.08 v 4.957 c 8.4,0 14.1,0.782 17.1,2.352 3,1.57 5.1,3.601 6.3,6.101 1.21,2.508 1.82,8.668 1.82,18.52 v 118.008 c 0,9.851 -0.61,16.043 -1.82,18.59 -1.2,2.55 -3.33,4.582 -6.37,6.101 -3.03,1.512 -8.72,2.281 -17.03,2.281 v 4.957 h 84.49 c 22.01,0 38.1,-1.527 48.29,-4.558 10.19,-3.039 18.51,-8.66 24.95,-16.828 6.43,-8.18 9.65,-17.774 9.65,-28.77 0,-13.422 -4.83,-24.504 -14.48,-33.262 -6.17,-5.55 -14.8,-9.71 -25.89,-12.48 l 43.72,-61.551 c 5.73,-7.961 9.8,-12.929 12.21,-14.898 3.66,-2.77 7.91,-4.281 12.75,-4.563 v -4.957 h -57.28 l -58.6,82.891 h -11.95" /><path
         id="path38"
         style="fill:#ed1c24;fill-opacity:1;fill-rule:nonzero;stroke:none"
         d="m 2605.43,703.609 c -16.63,0 -29.27,-8.488 -37.94,-25.48 -7.07,-13.949 -10.6,-33.981 -10.6,-60.078 0,-31.031 5.45,-53.969 16.36,-68.813 7.59,-10.367 18.24,-15.558 31.92,-15.558 9.21,0 16.9,2.242 23.07,6.711 7.87,5.718 13.99,14.859 18.38,27.429 4.37,12.559 6.57,28.95 6.57,49.149 0,24.051 -2.24,42.051 -6.71,53.992 -4.47,11.93 -10.18,20.359 -17.1,25.277 -6.93,4.91 -14.91,7.371 -23.95,7.371 z m -1.6,8.59 c 28.97,1.071 52.5,-7.379 70.61,-25.359 18.1,-17.961 27.17,-40.449 27.17,-67.461 0,-23.059 -6.76,-43.367 -20.26,-60.891 -17.89,-23.25 -43.14,-34.867 -75.78,-34.867 -32.72,0 -58.03,11.09 -75.91,33.258 -14.13,17.531 -21.19,38.312 -21.19,62.383 0,27 9.18,49.5 27.56,67.527 18.38,18 40.98,26.481 67.8,25.41" /><path
         id="path40"
         style="fill:#ed1c24;fill-opacity:1;fill-rule:nonzero;stroke:none"
         d="m 2775.5,709.648 h 93.89 v -4.957 h -4.7 c -7.06,0 -11.91,-0.75 -14.55,-2.222 -2.64,-1.481 -4.51,-3.508 -5.63,-6.098 -1.12,-2.59 -1.67,-9.082 -1.67,-19.449 v -89.051 c 0,-16.281 1.22,-27.051 3.68,-32.32 2.46,-5.281 6.5,-9.66 12.14,-13.153 5.63,-3.488 12.74,-5.226 21.33,-5.226 9.83,0 18.21,2.207 25.14,6.637 6.93,4.421 12.12,10.523 15.56,18.312 3.45,7.77 5.16,21.328 5.16,40.629 v 74.172 c 0,8.137 -0.85,13.949 -2.54,17.43 -1.7,3.5 -3.85,5.91 -6.44,7.25 -4.02,2.058 -9.71,3.089 -17.03,3.089 v 4.957 h 62.9 v -4.957 h -3.76 c -5.1,0 -9.35,-1.031 -12.74,-3.089 -3.4,-2.063 -5.85,-5.141 -7.38,-9.262 -1.16,-2.86 -1.74,-8 -1.74,-15.418 v -69.07 c 0,-21.372 -1.41,-36.801 -4.22,-46.27 -2.82,-9.48 -9.68,-18.191 -20.59,-26.152 -10.91,-7.961 -25.8,-11.942 -44.67,-11.942 -15.73,0 -27.89,2.102 -36.47,6.301 -11.72,5.731 -19.99,13.063 -24.82,22 -4.82,8.941 -7.24,20.961 -7.24,36.082 v 89.051 c 0,10.457 -0.58,16.969 -1.74,19.508 -1.16,2.55 -3.18,4.582 -6.04,6.109 -2.86,1.52 -8.13,2.231 -15.83,2.152 v 4.957" /><path
         id="path42"
         style="fill:#ed1c24;fill-opacity:1;fill-rule:nonzero;stroke:none"
         d="m 3214.63,713.809 v -64.11 h -4.96 c -5.99,17.531 -14.98,30.852 -26.96,39.973 -11.98,9.117 -25.08,13.68 -39.3,13.68 -13.59,0 -24.9,-3.832 -33.92,-11.481 -9.04,-7.633 -15.43,-18.301 -19.18,-31.98 -3.76,-13.68 -5.64,-27.719 -5.64,-42.121 0,-17.43 2.05,-32.719 6.17,-45.872 4.12,-13.128 10.75,-22.789 19.92,-28.957 9.16,-6.171 20.05,-9.261 32.65,-9.261 4.39,0 8.88,0.468 13.49,1.41 4.6,0.941 9.32,2.301 14.14,4.09 V 577 c 0,7.16 -0.49,11.789 -1.47,13.891 -0.98,2.097 -3.02,3.988 -6.1,5.691 -3.08,1.699 -6.82,2.547 -11.2,2.547 h -4.7 v 4.973 h 88.39 v -4.973 c -6.71,-0.438 -11.38,-1.359 -14.02,-2.738 -2.64,-1.391 -4.67,-3.7 -6.1,-6.911 -0.81,-1.699 -1.21,-5.859 -1.21,-12.48 v -37.82 c -11.62,-5.192 -23.72,-9.09 -36.28,-11.731 -12.56,-2.64 -25.59,-3.961 -39.09,-3.961 -17.26,0 -31.59,2.352 -42.99,7.051 -11.4,4.68 -21.46,10.852 -30.17,18.5 -8.72,7.652 -15.54,16.25 -20.46,25.82 -6.26,12.34 -9.39,26.153 -9.39,41.442 0,27.359 9.61,50.48 28.84,69.34 19.22,18.871 43.41,28.3 72.56,28.3 9.02,0 17.17,-0.722 24.41,-2.14 3.93,-0.719 10.3,-2.762 19.11,-6.11 8.81,-3.351 14.02,-5.031 15.62,-5.031 2.51,0 4.84,0.922 6.98,2.762 2.14,1.816 4.12,5.289 5.9,10.387 h 4.96" /><path
         id="path44"
         style="fill:#ed1c24;fill-opacity:1;fill-rule:nonzero;stroke:none"
         d="m 3371.29,699.191 v -74.043 h 3.62 c 11.53,0 19.89,3.633 25.09,10.864 5.17,7.25 8.48,17.929 9.92,32.058 h 5.09 v -95.218 h -5.09 c -1.08,10.367 -3.33,18.859 -6.78,25.48 -3.44,6.609 -7.44,11.059 -12,13.348 -4.56,2.269 -11.18,3.422 -19.85,3.422 v -51.243 c 0,-10.007 0.42,-16.14 1.27,-18.371 0.85,-2.238 2.44,-4.078 4.77,-5.5 2.32,-1.437 6.07,-2.148 11.26,-2.148 h 10.87 c 16.98,0 30.59,3.941 40.84,11.808 10.23,7.864 17.59,19.844 22.06,35.934 h 4.96 l -8.18,-57.801 h -157.19 v 4.957 h 6.03 c 5.28,0 9.52,0.942 12.75,2.821 2.32,1.25 4.11,3.39 5.36,6.441 0.99,2.148 1.47,7.77 1.47,16.891 v 119.64 c 0,8.231 -0.22,13.278 -0.66,15.16 -0.9,3.118 -2.55,5.539 -4.97,7.239 -3.4,2.511 -8.05,3.761 -13.95,3.761 h -6.03 v 4.957 h 152.22 v -53.777 h -5.09 c -2.6,13.141 -6.23,22.578 -10.93,28.301 -4.7,5.719 -11.34,9.918 -19.92,12.609 -5.01,1.61 -14.4,2.41 -28.17,2.41 h -18.77" /><path
         id="path46"
         style="fill:#ed1c24;fill-opacity:1;fill-rule:nonzero;stroke:none"
         d="M 933.344,393.809 V 330.77 h -5.231 c -3.933,16.46 -11.261,29.062 -21.996,37.82 -10.726,8.762 -22.887,13.148 -36.476,13.148 -11.356,0 -21.774,-3.258 -31.25,-9.797 -9.481,-6.519 -16.411,-15.07 -20.789,-25.609 -5.633,-13.512 -8.454,-28.531 -8.454,-45.062 0,-16.282 2.059,-31.11 6.172,-44.461 4.114,-13.368 10.547,-23.477 19.313,-30.317 8.765,-6.844 20.117,-10.262 34.066,-10.262 11.446,0 21.93,2.5 31.453,7.508 9.52,5.012 19.559,13.633 30.114,25.891 V 233.93 c -10.2,-10.641 -20.817,-18.348 -31.86,-23.129 -11.043,-4.789 -23.937,-7.18 -38.687,-7.18 -19.406,0 -36.645,3.899 -51.707,11.668 -15.067,7.781 -26.688,18.961 -34.871,33.543 -8.18,14.566 -12.274,30.066 -12.274,46.527 0,17.34 4.539,33.801 13.613,49.36 9.075,15.551 21.325,27.621 36.75,36.211 15.426,8.582 31.805,12.879 49.157,12.879 12.781,0 26.289,-2.778 40.504,-8.321 8.226,-3.218 13.457,-4.828 15.691,-4.828 2.859,0 5.344,1.051 7.441,3.16 2.098,2.102 3.465,5.43 4.09,9.989 h 5.231" /><path
         id="path48"
         style="fill:#ed1c24;fill-opacity:1;fill-rule:nonzero;stroke:none"
         d="m 1113.75,383.609 c -16.63,0 -29.29,-8.488 -37.96,-25.48 -7.06,-13.949 -10.59,-33.981 -10.59,-60.078 0,-31.031 5.45,-53.969 16.36,-68.813 7.6,-10.367 18.24,-15.558 31.92,-15.558 9.21,0 16.9,2.242 23.07,6.711 7.86,5.718 13.99,14.859 18.37,27.429 4.38,12.559 6.57,28.95 6.57,49.149 0,24.051 -2.23,42.051 -6.7,53.992 -4.47,11.93 -10.18,20.359 -17.1,25.277 -6.93,4.91 -14.91,7.371 -23.94,7.371 z m -1.61,8.59 c 28.97,1.071 52.51,-7.379 70.61,-25.359 18.11,-17.961 27.16,-40.449 27.16,-67.461 0,-23.059 -6.75,-43.367 -20.25,-60.887 -17.88,-23.25 -43.14,-34.871 -75.78,-34.871 -32.72,0 -58.03,11.09 -75.91,33.258 -14.13,17.531 -21.19,38.312 -21.19,62.383 0,27 9.19,49.5 27.56,67.527 18.37,18 40.97,26.481 67.8,25.41" /><path
         id="path50"
         style="fill:#ed1c24;fill-opacity:1;fill-rule:nonzero;stroke:none"
         d="m 1408.29,269.742 49.36,119.906 h 74.03 v -4.957 h -5.9 c -5.36,0 -9.66,-0.941 -12.88,-2.82 -2.24,-1.262 -4.02,-3.359 -5.36,-6.312 -0.99,-2.137 -1.48,-7.727 -1.48,-16.758 v -119.91 c 0,-9.289 0.49,-15.102 1.48,-17.43 0.98,-2.32 2.99,-4.352 6.03,-6.102 3.04,-1.75 7.11,-2.617 12.21,-2.617 h 5.9 v -4.961 h -94.96 v 4.961 h 5.9 c 5.37,0 9.66,0.938 12.88,2.817 2.23,1.25 4.02,3.39 5.36,6.441 0.99,2.148 1.48,7.77 1.48,16.891 v 134.8 l -69.74,-165.91 h -3.22 L 1318.56,372.48 V 244.391 c 0,-8.93 0.22,-14.43 0.67,-16.493 1.17,-4.468 3.69,-8.117 7.58,-10.929 3.89,-2.821 9.99,-4.227 18.31,-4.227 v -4.961 h -62.23 v 4.961 h 1.88 c 4.02,-0.094 7.77,0.559 11.26,1.949 3.49,1.379 6.12,3.239 7.92,5.559 1.78,2.332 3.16,5.59 4.15,9.801 0.18,0.969 0.27,5.531 0.27,13.679 v 115.071 c 0,9.211 -0.49,14.961 -1.48,17.23 -0.98,2.289 -2.99,4.301 -6.03,6.039 -3.04,1.75 -7.11,2.621 -12.21,2.621 h -5.76 v 4.957 h 74.3 l 51.1,-119.906" /><path
         id="path52"
         style="fill:#ed1c24;fill-opacity:1;fill-rule:nonzero;stroke:none"
         d="m 1702.02,383.609 c -16.63,0 -29.29,-8.488 -37.96,-25.48 -7.06,-13.949 -10.59,-33.981 -10.59,-60.078 0,-31.031 5.45,-53.969 16.36,-68.813 7.6,-10.367 18.24,-15.558 31.92,-15.558 9.21,0 16.9,2.242 23.07,6.711 7.87,5.718 13.99,14.859 18.37,27.429 4.38,12.559 6.58,28.95 6.58,49.149 0,24.051 -2.24,42.051 -6.71,53.992 -4.47,11.93 -10.17,20.359 -17.1,25.277 -6.93,4.91 -14.91,7.371 -23.94,7.371 z m -1.61,8.59 c 28.97,1.071 52.51,-7.379 70.62,-25.359 18.1,-17.961 27.15,-40.449 27.15,-67.461 0,-23.059 -6.75,-43.367 -20.25,-60.887 -17.88,-23.25 -43.14,-34.871 -75.78,-34.871 -32.72,0 -58.02,11.09 -75.91,33.258 -14.13,17.531 -21.19,38.312 -21.19,62.383 0,27 9.19,49.5 27.56,67.527 18.38,18 40.97,26.481 67.8,25.41" /><path
         id="path54"
         style="fill:#ed1c24;fill-opacity:1;fill-rule:nonzero;stroke:none"
         d="m 1938.62,379.859 v -79.668 h 7.64 c 12.44,0 21.73,1.141 27.91,3.418 6.16,2.282 11.01,6.391 14.55,12.34 3.52,5.942 5.29,13.699 5.29,23.27 0,13.851 -3.24,24.101 -9.72,30.711 -6.48,6.621 -16.92,9.929 -31.32,9.929 z m 0,-89.187 v -50.961 c 0,-9.852 0.6,-16.039 1.81,-18.582 1.21,-2.547 3.33,-4.59 6.37,-6.098 3.04,-1.531 8.72,-2.289 17.03,-2.289 v -4.961 h -93.07 v 4.961 c 8.4,0 14.1,0.778 17.1,2.348 2.99,1.57 5.09,3.601 6.3,6.101 1.21,2.508 1.81,8.668 1.81,18.52 v 118.008 c 0,9.851 -0.6,16.043 -1.81,18.59 -1.21,2.55 -3.33,4.582 -6.37,6.101 -3.04,1.512 -8.72,2.281 -17.03,2.281 v 4.957 h 84.49 c 22,0 38.09,-1.527 48.28,-4.558 10.2,-3.039 18.52,-8.66 24.95,-16.828 6.44,-8.18 9.66,-17.774 9.66,-28.77 0,-13.422 -4.83,-24.504 -14.48,-33.262 -6.17,-5.55 -14.81,-9.71 -25.89,-12.48 l 43.72,-61.551 c 5.72,-7.961 9.79,-12.929 12.21,-14.898 3.66,-2.77 7.91,-4.281 12.74,-4.559 v -4.961 h -57.27 l -58.61,82.891 h -11.94" /><path
         id="path56"
         style="fill:#ed1c24;fill-opacity:1;fill-rule:nonzero;stroke:none"
         d="m 2222.29,212.742 v -4.961 h -95.09 v 4.961 h 6.04 c 5.27,0 9.52,0.938 12.74,2.817 2.33,1.25 4.11,3.39 5.36,6.441 0.99,2.148 1.48,7.77 1.48,16.891 v 119.64 c 0,9.301 -0.49,15.11 -1.48,17.438 -0.98,2.32 -2.97,4.363 -5.96,6.101 -3,1.75 -7.05,2.621 -12.14,2.621 h -6.04 v 4.957 h 95.09 v -4.957 h -6.04 c -5.27,0 -9.52,-0.941 -12.73,-2.82 -2.33,-1.262 -4.16,-3.391 -5.5,-6.441 -0.98,-2.141 -1.47,-7.782 -1.47,-16.899 v -119.64 c 0,-9.289 0.51,-15.102 1.53,-17.43 1.04,-2.32 3.05,-4.352 6.04,-6.102 2.99,-1.75 7.05,-2.617 12.13,-2.617 h 6.04" /><path
         id="path58"
         style="fill:#ed1c24;fill-opacity:1;fill-rule:nonzero;stroke:none"
         d="m 2361.12,379.191 v -74.043 h 3.61 c 11.53,0 19.89,3.633 25.09,10.864 5.18,7.25 8.49,17.929 9.92,32.058 h 5.1 v -95.218 h -5.1 c -1.07,10.367 -3.33,18.859 -6.78,25.48 -3.43,6.609 -7.44,11.059 -12,13.348 -4.56,2.269 -11.18,3.422 -19.84,3.422 v -51.243 c 0,-10.007 0.42,-16.14 1.27,-18.371 0.85,-2.238 2.43,-4.078 4.76,-5.5 2.33,-1.437 6.08,-2.148 11.26,-2.148 h 10.87 c 16.98,0 30.6,3.941 40.84,11.808 10.24,7.864 17.59,19.844 22.06,35.934 h 4.96 l -8.18,-57.801 h -157.19 v 4.961 h 6.04 c 5.27,0 9.52,0.938 12.74,2.817 2.33,1.25 4.11,3.39 5.36,6.441 0.99,2.148 1.48,7.77 1.48,16.891 v 119.64 c 0,8.231 -0.23,13.278 -0.67,15.16 -0.89,3.118 -2.55,5.539 -4.97,7.239 -3.4,2.511 -8.04,3.761 -13.94,3.761 h -6.04 v 4.957 H 2444 v -53.777 h -5.1 c -2.6,13.141 -6.23,22.578 -10.93,28.301 -4.69,5.719 -11.33,9.918 -19.92,12.609 -5.01,1.61 -14.39,2.41 -28.16,2.41 h -18.77" /><path
         id="path60"
         style="fill:#ed1c24;fill-opacity:1;fill-rule:nonzero;stroke:none"
         d="m 2595.57,389.648 89.73,-112.796 v 78.199 c 0,10.91 -1.56,18.281 -4.69,22.129 -4.3,5.179 -11.49,7.679 -21.6,7.511 v 4.957 h 60.09 v -4.957 c -7.69,-0.992 -12.85,-2.261 -15.49,-3.82 -2.64,-1.57 -4.7,-4.121 -6.17,-7.652 -1.48,-3.528 -2.21,-9.59 -2.21,-18.168 v -151.43 h -4.56 l -122.99,151.43 V 239.43 c 0,-10.461 2.38,-17.52 7.17,-21.188 4.78,-3.66 10.26,-5.5 16.43,-5.5 h 4.29 v -4.961 h -64.51 v 4.961 c 10.02,0.09 16.99,2.149 20.93,6.168 3.93,4.031 5.9,10.86 5.9,20.52 v 128.359 l -3.89,4.832 c -3.85,4.82 -7.25,7.988 -10.2,9.52 -2.95,1.519 -7.19,2.371 -12.74,2.55 v 4.957 h 64.51" /><path
         id="path62"
         style="fill:#ec1e27;fill-opacity:1;fill-rule:nonzero;stroke:none"
         d="M 3475.54,0 H 0 V 110 H 3475.54 V 0" /><path
         id="path64"
         style="fill:#ec1e27;fill-opacity:1;fill-rule:nonzero;stroke:none"
         d="M 3475.54,133.84 H 0 v 30 h 3475.54 v -30" /><path
         id="path66"
         style="fill:#ec1e27;fill-opacity:1;fill-rule:nonzero;stroke:none"
         d="M 3475.54,817.699 H 0 v 110 h 3475.54 v -110" /><path
         id="path68"
         style="fill:#ec1e27;fill-opacity:1;fill-rule:nonzero;stroke:none"
         d="M 3475.54,759.762 H 0 v 30 h 3475.54 v -30" /></g></g></svg>