<?xml version="1.0" encoding="UTF-8" standalone="no"?>
<!-- Created with Inkscape (http://www.inkscape.org/) -->

<svg
   version="1.1"
   id="svg1"
   width="714.66669"
   height="176"
   viewBox="0 0 714.66669 176"
   sodipodi:docname="MRC Logo rectangle.svg"
   inkscape:version="1.3.2 (091e20e, 2023-11-25, custom)"
   xmlns:inkscape="http://www.inkscape.org/namespaces/inkscape"
   xmlns:sodipodi="http://sodipodi.sourceforge.net/DTD/sodipodi-0.dtd"
   xmlns="http://www.w3.org/2000/svg"
   xmlns:svg="http://www.w3.org/2000/svg">
  <defs
     id="defs1" />
  <sodipodi:namedview
     id="namedview1"
     pagecolor="#ffffff"
     bordercolor="#666666"
     borderopacity="1.0"
     inkscape:showpageshadow="2"
     inkscape:pageopacity="0.0"
     inkscape:pagecheckerboard="0"
     inkscape:deskcolor="#d1d1d1"
     inkscape:export-bgcolor="#ffffffff"
     inkscape:zoom="1.3083022"
     inkscape:cx="357.33334"
     inkscape:cy="88.282355"
     inkscape:window-width="1920"
     inkscape:window-height="1017"
     inkscape:window-x="-8"
     inkscape:window-y="-8"
     inkscape:window-maximized="1"
     inkscape:current-layer="g1">
    <inkscape:page
       x="0"
       y="0"
       inkscape:label="1"
       id="page1"
       width="714.66669"
       height="176"
       margin="0"
       bleed="0"
       inkscape:export-filename="MRC Logo rectangle.png"
       inkscape:export-xdpi="300"
       inkscape:export-ydpi="300" />
  </sodipodi:namedview>
  <g
     id="g1"
     inkscape:groupmode="layer"
     inkscape:label="1">
    <path
       id="path1"
       d="m 0,0 c 15.908,0 30.483,-5.709 41.795,-15.186 -5.88,2.229 -12.253,3.451 -18.912,3.451 -29.483,0 -53.393,-23.91 -53.393,-53.393 0,-29.483 23.91,-53.393 53.393,-53.393 6.659,0 13.032,1.225 18.912,3.453 -11.312,-9.478 -25.887,-15.188 -41.795,-15.188 -35.963,0 -65.129,29.166 -65.129,65.128 C -65.129,-29.165 -35.963,0 0,0 Z"
       style="fill:#ed1c24;fill-opacity:1;fill-rule:evenodd;stroke:#ed1c24;stroke-width:0.216;stroke-linecap:butt;stroke-linejoin:miter;stroke-miterlimit:22.926;stroke-dasharray:none;stroke-opacity:1"
       transform="matrix(1.3333333,0,0,-1.3333333,87.174667,1.2373333)" />
    <path
       id="path2"
       d="m 0,0 c -0.514,-0.575 -0.762,-1.063 -0.762,-1.479 0,-0.159 0.035,-0.301 0.097,-0.443 0.249,-0.363 0.735,-0.638 1.479,-0.832 h 0.833 c 0.328,0 0.673,0.009 1.036,0.026 2.028,0.833 3.409,1.798 4.154,2.905 0.088,0.231 0.132,0.452 0.132,0.682 0,1.072 -0.867,1.558 -2.595,1.479 C 3.339,2.072 2.612,1.807 2.196,1.532 1.239,1.081 0.514,0.567 0,0 Z m -3.207,2.462 c 2.719,2.923 5.97,4.348 9.76,4.287 2.002,-0.036 3.489,-1.011 4.463,-2.914 0.169,-0.585 0.257,-1.258 0.257,-2.019 0,-1.648 -0.416,-3.038 -1.248,-4.181 -2.055,-2.816 -5.402,-4.418 -10.034,-4.8 -2.214,0.089 -3.755,0.788 -4.623,2.108 -0.487,1.018 -0.727,1.984 -0.727,2.905 0,1.541 0.718,3.073 2.152,4.614 z m 2.445,-26.541 c -0.416,-1.196 -1.195,-1.967 -2.338,-2.312 -0.505,-0.151 -0.903,-0.231 -1.196,-0.231 -0.566,0 -0.823,0.24 -0.752,0.727 0.106,0.762 0.505,1.425 1.204,1.983 0.709,0.567 1.453,0.842 2.25,0.842 0.796,0 1.071,-0.337 0.832,-1.009 z m 3.542,-2.409 c -0.044,0.097 -0.07,0.212 -0.07,0.336 0,0.637 0.637,1.364 1.895,2.179 1.143,0.726 2.24,1.027 3.295,0.903 0.247,-0.204 0.362,-0.363 0.362,-0.46 0,-0.629 -0.699,-1.32 -2.098,-2.082 -1.284,-0.691 -2.285,-1.036 -3.012,-1.036 -0.203,0 -0.336,0.054 -0.372,0.16 z m -0.903,5.552 -2.436,1.037 c -0.814,0.221 -1.744,0.265 -2.798,0.124 -0.991,-0.134 -2.046,-0.621 -3.17,-1.453 -0.762,-0.566 -1.4,-1.382 -1.931,-2.435 -0.531,-1.054 -0.788,-2.055 -0.788,-3.011 0,-1.125 0.398,-1.975 1.187,-2.569 -2.64,-2.364 -4.047,-4.543 -4.198,-6.509 -0.088,-1.036 0.124,-1.949 0.646,-2.727 0.948,-2.091 3.499,-3.348 7.625,-3.765 0.523,-0.052 1.143,-0.07 1.869,-0.07 3.082,0 5.641,0.372 7.678,1.115 0.576,0.205 0.859,0.727 0.859,1.551 0,1.266 -0.505,1.965 -1.532,2.107 0.195,0 -0.788,-0.186 -2.931,-0.549 -1.621,-0.274 -2.985,-0.389 -4.074,-0.336 -1.904,0.088 -3.117,0.194 -3.658,0.336 -1.505,0.381 -2.258,1.151 -2.258,2.312 0,0.291 0.062,0.557 0.186,0.805 0.833,1.656 2.197,3.002 4.1,4.047 4.066,0.098 7.13,0.479 9.211,1.143 3.338,1.054 5.623,2.542 6.846,4.455 0.416,0.664 0.628,1.364 0.628,2.107 0,1.294 -0.531,2.338 -1.585,3.135 -0.974,0.745 -2.117,1.117 -3.453,1.117 -1.958,0 -3.96,-0.656 -6.023,-1.967 z M 30.456,0 c -0.514,-0.575 -0.762,-1.063 -0.762,-1.479 0,-0.159 0.036,-0.301 0.098,-0.443 0.248,-0.363 0.735,-0.638 1.479,-0.832 h 0.832 c 0.328,0 0.673,0.009 1.036,0.026 2.028,0.833 3.41,1.798 4.154,2.905 0.088,0.231 0.132,0.452 0.132,0.682 0,1.072 -0.867,1.558 -2.594,1.479 C 33.795,2.072 33.068,1.807 32.652,1.532 31.695,1.081 30.97,0.567 30.456,0 Z M 27.25,2.462 c 2.719,2.923 5.969,4.348 9.759,4.287 2.002,-0.036 3.49,-1.011 4.464,-2.914 0.168,-0.585 0.256,-1.258 0.256,-2.019 0,-1.648 -0.416,-3.038 -1.248,-4.181 -2.055,-2.816 -5.402,-4.418 -10.034,-4.8 -2.214,0.089 -3.755,0.788 -4.623,2.108 -0.487,1.018 -0.726,1.984 -0.726,2.905 0,1.541 0.717,3.073 2.152,4.614 z m 7.395,-28.49 c -0.531,-0.514 -2.63,-2.258 -6.279,-5.234 -1.505,-1.231 -3.41,-2.541 -5.704,-3.923 -2.612,-1.576 -4.33,-2.427 -5.136,-2.568 -0.106,-0.018 -0.239,-0.027 -0.39,-0.027 -0.921,0 -1.718,0.523 -2.391,1.559 -0.584,0.921 -0.877,1.815 -0.877,2.701 0,0.806 0.399,1.248 1.213,1.32 0.054,0 0.169,0.008 0.337,0.026 0.177,0.017 0.363,0.017 0.576,0 -0.071,0 0.389,-0.036 1.372,-0.106 0.94,-0.062 1.488,-0.062 1.665,0 1.152,0.434 2.648,1.213 4.482,2.338 2.665,1.647 4.756,3.268 6.279,4.879 -0.532,0.381 -0.824,0.921 -0.877,1.63 -0.071,0.868 0.452,1.7 1.559,2.497 1,0.744 1.957,1.116 2.878,1.116 1.452,0 2.231,-0.708 2.329,-2.134 0.336,-0.115 1.169,0.274 2.524,1.169 0.398,0.345 1.125,0.886 2.178,1.611 0.328,0.054 0.603,0.08 0.824,0.08 0.319,0 0.549,-0.044 0.709,-0.132 0.549,-0.31 0.92,-0.754 1.115,-1.32 0.062,-0.523 -0.07,-1.081 -0.416,-1.674 -0.345,-0.602 -0.514,-0.948 -0.496,-1.054 0.018,-0.221 0.159,-0.345 0.416,-0.363 1.019,-0.071 2.569,0.983 4.641,3.161 0.868,0.683 1.488,1.01 1.869,0.993 0.54,-0.018 1.125,-0.532 1.762,-1.533 0.319,-0.505 0.248,-1.124 -0.203,-1.868 -1.285,-2.108 -3.118,-3.658 -5.5,-4.65 -1.161,-0.478 -2.214,-0.744 -3.171,-0.77 -1.859,-0.088 -2.949,0.665 -3.241,2.249 -0.744,-0.017 -2.09,-0.009 -4.047,0.027 z M 73.771,2.568 c 0.948,0.505 1.426,1.063 1.426,1.683 0.522,1.435 -0.213,2.303 -2.205,2.594 C 72.832,6.899 72.611,6.863 72.319,6.749 71.38,6.385 70.662,6.066 70.167,5.81 69.245,5.26 68.333,4.579 67.412,3.79 65.544,2.196 64.322,0.452 63.754,-1.453 c -0.106,-0.229 -0.159,-0.548 -0.159,-0.964 0,-2.976 2.48,-4.464 7.422,-4.464 1.452,0 2.55,0.098 3.294,0.292 1.143,0.399 1.718,1.107 1.718,2.126 0,1.399 -0.894,2.098 -2.675,2.098 -0.291,0 -0.619,-0.035 -0.982,-0.097 -0.593,-0.283 -1.621,-0.372 -3.091,-0.292 -0.691,0.035 -0.992,0.132 -0.912,0.292 -0.062,0.045 -0.098,0.115 -0.098,0.204 0,0.691 0.647,1.638 1.94,2.825 0.416,0.381 1.602,1.045 3.56,2.001 z m 23.69,-24 c 0.345,0.239 0.903,0.868 1.683,1.869 0.779,1.364 1.399,2.001 1.869,1.922 0.566,-0.107 1.141,-0.354 1.708,-0.753 0.683,-0.452 1.045,-0.93 1.09,-1.426 0.071,-0.664 -0.337,-1.683 -1.214,-3.064 -0.416,-0.638 -0.991,-1.249 -1.718,-1.815 -2.09,-1.648 -4.773,-2.569 -8.041,-2.781 -0.346,-0.116 -1.275,-0.177 -2.799,-0.177 L 64.95,-27.684 c -1.266,-1.231 -3.055,-2.772 -5.375,-4.623 -1.019,-0.806 -1.745,-1.213 -2.179,-1.213 -0.469,0 -1.018,0.319 -1.647,0.974 -0.629,0.646 -0.948,1.213 -0.948,1.691 0,0.815 0.461,1.577 1.382,2.285 0.239,0.178 0.983,0.726 2.223,1.665 l -1.187,0.54 c -0.284,0.177 -0.558,0.541 -0.833,1.09 l -0.159,0.805 c 0.177,1.338 0.77,2.294 1.798,2.879 1.532,0.886 2.683,1.328 3.445,1.328 0.248,0 0.478,-0.018 0.699,-0.053 0.382,0 1.125,-0.221 2.232,-0.646 0.744,-0.452 1.302,-1.266 1.665,-2.445 0.602,-0.053 5.757,-0.079 15.463,-0.079 4.375,0 6.81,0.026 7.315,0.079 2.852,0.293 4.41,0.47 4.667,0.523 2.081,0.417 3.392,0.895 3.95,1.452 z m 30.456,24 c 0.948,0.505 1.426,1.063 1.426,1.683 0.522,1.435 -0.213,2.303 -2.205,2.594 -0.16,0.054 -0.381,0.018 -0.673,-0.096 -0.94,-0.364 -1.657,-0.683 -2.152,-0.939 -0.922,-0.55 -1.834,-1.231 -2.755,-2.02 -1.868,-1.594 -3.091,-3.338 -3.658,-5.243 -0.106,-0.229 -0.159,-0.548 -0.159,-0.964 0,-2.976 2.48,-4.464 7.422,-4.464 1.452,0 2.55,0.098 3.294,0.292 1.143,0.399 1.718,1.107 1.718,2.126 0,1.399 -0.894,2.098 -2.675,2.098 -0.291,0 -0.619,-0.035 -0.982,-0.097 -0.593,-0.283 -1.621,-0.372 -3.091,-0.292 -0.691,0.035 -0.992,0.132 -0.912,0.292 -0.062,0.045 -0.098,0.115 -0.098,0.204 0,0.691 0.647,1.638 1.939,2.825 0.417,0.381 1.603,1.045 3.561,2.001 z m -7.997,-30.075 c -1.674,-1.239 -3.4,-2.382 -5.181,-3.419 -0.974,-0.557 -2.374,-1.257 -4.207,-2.107 -0.416,-0.133 -0.903,-0.204 -1.452,-0.204 -0.257,0 -0.655,0.027 -1.196,0.08 -0.531,0.053 -0.93,0.079 -1.195,0.079 -1.187,0 -1.789,-0.46 -1.789,-1.381 0,-1.434 0.407,-2.559 1.222,-3.374 0.585,-0.585 1.142,-0.85 1.656,-0.797 1.612,0.168 4.304,1.373 8.077,3.604 2.037,1.213 4.915,3.082 8.635,5.633 1.178,-0.399 2.24,-0.735 3.188,-0.992 0.381,-0.107 1.142,-0.301 2.285,-0.593 1.106,-0.293 1.984,-0.107 2.621,0.566 0.452,0.47 0.638,1.116 0.576,1.948 -0.036,0.434 -0.195,0.859 -0.47,1.276 -0.814,0.691 -1.992,1.213 -3.533,1.576 1.009,0.611 3.188,1.683 6.545,3.224 0.858,0.531 1.292,1.01 1.292,1.426 0,0.15 -0.017,0.336 -0.053,0.54 -0.186,1.16 -0.788,1.736 -1.815,1.736 -0.292,0 -0.549,-0.08 -0.78,-0.257 -0.167,-0.089 -1.594,-0.832 -4.277,-2.232 l -5.163,-2.692 c -1.886,0.673 -3.153,1.01 -3.817,1.01 -0.381,0 -0.664,-0.072 -0.85,-0.213 -0.992,-0.345 -1.479,-1.098 -1.479,-2.258 0,-0.479 0.079,-0.921 0.257,-1.32 0.088,-0.221 0.389,-0.514 0.903,-0.859 z M 155.69,0 c -0.514,-0.575 -0.762,-1.063 -0.762,-1.479 0,-0.159 0.036,-0.301 0.097,-0.443 0.249,-0.363 0.735,-0.638 1.479,-0.832 h 0.833 c 0.328,0 0.673,0.009 1.036,0.026 2.028,0.833 3.41,1.798 4.154,2.905 0.088,0.231 0.132,0.452 0.132,0.682 0,1.072 -0.867,1.558 -2.594,1.479 C 159.029,2.072 158.302,1.807 157.886,1.532 156.929,1.081 156.203,0.567 155.69,0 Z m -3.206,2.462 c 2.719,2.923 5.969,4.348 9.759,4.287 2.002,-0.036 3.489,-1.011 4.463,-2.914 0.169,-0.585 0.257,-1.258 0.257,-2.019 0,-1.648 -0.416,-3.038 -1.248,-4.181 -2.055,-2.816 -5.402,-4.418 -10.034,-4.8 -2.214,0.089 -3.755,0.788 -4.623,2.108 -0.487,1.018 -0.727,1.984 -0.727,2.905 0,1.541 0.718,3.073 2.153,4.614 z m -0.983,-30.226 c 0.744,1.125 1.115,2.48 1.115,4.074 0,0.204 -0.043,0.797 -0.132,1.763 -0.133,1.558 -0.735,2.426 -1.789,2.594 -0.416,0.071 -0.93,-0.018 -1.559,-0.257 -0.708,-0.274 -1.027,-1.071 -0.957,-2.391 l 0.16,-2.799 c -0.16,-1.071 -0.708,-2.373 -1.638,-3.887 -1.249,-1.355 -1.869,-2.197 -1.869,-2.524 0,-0.603 0.266,-1.143 0.806,-1.621 0.532,-0.469 1.107,-0.69 1.709,-0.655 1.576,0.08 4.942,1.567 10.096,4.454 3.684,2.064 6.509,3.932 8.484,5.606 0.691,0.594 1.028,1.072 1.01,1.453 -0.018,0.469 -0.204,0.947 -0.567,1.426 -0.54,0.735 -1.018,1.009 -1.426,0.832 -0.177,-0.071 -0.514,-0.213 -1.018,-0.443 -6.793,-4.543 -10.937,-7.084 -12.425,-7.625 z M 215.468,0 c -0.513,-0.575 -0.762,-1.063 -0.762,-1.479 0,-0.159 0.036,-0.301 0.098,-0.443 0.248,-0.363 0.735,-0.638 1.479,-0.832 h 0.832 c 0.328,0 0.673,0.009 1.036,0.026 2.028,0.833 3.41,1.798 4.154,2.905 0.088,0.231 0.132,0.452 0.132,0.682 0,1.072 -0.867,1.558 -2.594,1.479 C 218.807,2.072 218.081,1.807 217.664,1.532 216.708,1.081 215.982,0.567 215.468,0 Z m -3.206,2.462 c 2.719,2.923 5.969,4.348 9.759,4.287 2.002,-0.036 3.49,-1.011 4.464,-2.914 0.168,-0.585 0.257,-1.258 0.257,-2.019 0,-1.648 -0.416,-3.038 -1.249,-4.181 -2.055,-2.816 -5.402,-4.418 -10.034,-4.8 -2.214,0.089 -3.755,0.788 -4.623,2.108 -0.487,1.018 -0.726,1.984 -0.726,2.905 0,1.541 0.718,3.073 2.152,4.614 z m 3.117,-27.161 c 0.311,0.221 0.948,0.77 1.922,1.629 0.399,0.779 0.576,1.319 0.541,1.612 -0.514,1.125 -1.099,1.683 -1.736,1.683 -0.106,0 -0.222,-0.018 -0.337,-0.071 -1.452,-1.072 -3.383,-2.489 -5.791,-4.233 -0.257,-0.186 -0.382,-0.54 -0.382,-1.063 0,-0.797 0.195,-1.338 0.594,-1.639 0.513,-0.381 2.346,-0.876 5.473,-1.497 l -5.367,-3.737 c -0.611,-0.416 -0.912,-1 -0.912,-1.744 0,-1.329 0.823,-2.108 2.462,-2.329 0.398,-0.195 2.506,-0.479 6.305,-0.86 l 5.836,-0.593 c 0.417,-0.035 0.753,0.16 1.019,0.593 0.222,0.364 0.337,0.771 0.337,1.222 0,1.125 -0.302,1.798 -0.913,2.02 -0.637,0.124 -1.107,0.186 -1.399,0.186 -0.16,0 -0.628,0.035 -1.426,0.097 -0.416,0.036 -1.204,0.088 -2.364,0.16 -2.401,0.141 -3.605,0.292 -3.605,0.469 0,0.018 0.009,0.036 0.027,0.053 -0.674,0.346 -0.213,0.921 1.372,1.736 1.054,0.505 2.117,1.001 3.171,1.506 0.31,0.15 0.576,0.442 0.788,0.867 0.222,0.425 0.292,0.806 0.222,1.152 -0.142,0.726 -0.452,1.266 -0.93,1.611 -0.213,0.071 -0.966,0.248 -2.259,0.541 -0.558,0.124 -1.434,0.336 -2.648,0.629 z m 35.284,27.267 c 0.947,0.505 1.425,1.063 1.425,1.683 0.522,1.435 -0.212,2.303 -2.205,2.594 -0.159,0.054 -0.381,0.018 -0.673,-0.096 -0.939,-0.364 -1.656,-0.683 -2.152,-0.939 -0.921,-0.55 -1.834,-1.231 -2.754,-2.02 -1.869,-1.594 -3.091,-3.338 -3.658,-5.243 -0.106,-0.229 -0.16,-0.548 -0.16,-0.964 0,-2.976 2.48,-4.464 7.422,-4.464 1.453,0 2.55,0.098 3.295,0.292 1.142,0.399 1.718,1.107 1.718,2.126 0,1.399 -0.895,2.098 -2.675,2.098 -0.292,0 -0.62,-0.035 -0.983,-0.097 -0.593,-0.283 -1.62,-0.372 -3.091,-0.292 -0.691,0.035 -0.992,0.132 -0.912,0.292 -0.062,0.045 -0.097,0.115 -0.097,0.204 0,0.691 0.646,1.638 1.939,2.825 0.416,0.381 1.603,1.045 3.561,2.001 z m -7.998,-30.075 c -1.674,-1.239 -3.4,-2.382 -5.181,-3.419 -0.974,-0.557 -2.373,-1.257 -4.207,-2.107 -0.416,-0.133 -0.902,-0.204 -1.452,-0.204 -0.257,0 -0.655,0.027 -1.195,0.08 -0.531,0.053 -0.93,0.079 -1.196,0.079 -1.186,0 -1.789,-0.46 -1.789,-1.381 0,-1.434 0.408,-2.559 1.222,-3.374 0.585,-0.585 1.143,-0.85 1.657,-0.797 1.612,0.168 4.304,1.373 8.076,3.604 2.037,1.213 4.916,3.082 8.635,5.633 1.178,-0.399 2.24,-0.735 3.188,-0.992 0.381,-0.107 1.142,-0.301 2.285,-0.593 1.107,-0.293 1.984,-0.107 2.622,0.566 0.451,0.47 0.637,1.116 0.575,1.948 -0.035,0.434 -0.195,0.859 -0.469,1.276 -0.815,0.691 -1.993,1.213 -3.534,1.576 1.009,0.611 3.188,1.683 6.545,3.224 0.859,0.531 1.293,1.01 1.293,1.426 0,0.15 -0.018,0.336 -0.054,0.54 -0.186,1.16 -0.788,1.736 -1.815,1.736 -0.292,0 -0.549,-0.08 -0.779,-0.257 -0.168,-0.089 -1.595,-0.832 -4.278,-2.232 l -5.163,-2.692 c -1.886,0.673 -3.152,1.01 -3.817,1.01 -0.38,0 -0.664,-0.072 -0.85,-0.213 -0.992,-0.345 -1.479,-1.098 -1.479,-2.258 0,-0.479 0.08,-0.921 0.257,-1.32 0.088,-0.221 0.39,-0.514 0.903,-0.859 z m 66.377,-19.43 c -4.322,-2.701 -8.662,-5.11 -13.028,-7.236 -1.169,-0.283 -1.762,-0.921 -1.762,-1.922 0,-0.177 0.212,-0.734 0.619,-1.691 0.16,-0.345 0.488,-0.513 0.993,-0.513 0.292,0 0.584,0.07 0.876,0.203 0.522,0.124 1.488,0.576 2.905,1.355 l 7.271,3.968 c 2.196,1.213 3.577,2.046 4.153,2.515 0.531,0.602 0.798,1.045 0.798,1.319 0,0.541 -0.187,1.054 -0.567,1.55 -0.381,0.487 -0.833,0.735 -1.347,0.735 -0.3,0 -0.602,-0.088 -0.911,-0.283 z m 7.625,25.505 c -1.603,-1.142 -4.243,-2.807 -7.909,-5.003 -4.446,-2.666 -6.961,-4.039 -7.554,-4.101 -0.567,-0.319 -1.24,-0.469 -2.019,-0.469 -0.284,0 -0.7,0.035 -1.276,0.106 -0.566,0.062 -0.992,0.098 -1.266,0.098 -0.886,0 -1.328,-0.425 -1.328,-1.267 0,-0.23 0.026,-0.469 0.079,-0.726 0.434,-2.116 1.506,-3.073 3.215,-2.878 0.177,0 0.637,0.141 1.382,0.434 2.674,1.053 5.791,2.665 9.334,4.826 l 9.112,5.553 c 1.568,0.956 2.321,1.86 2.25,2.728 -0.018,0.239 -0.142,0.549 -0.381,0.93 -0.381,0.611 -0.841,0.912 -1.381,0.912 -0.434,0 -1.187,-0.381 -2.258,-1.143 z m 26.78,24 c 0.948,0.505 1.426,1.063 1.426,1.683 0.522,1.435 -0.212,2.303 -2.205,2.594 -0.159,0.054 -0.381,0.018 -0.673,-0.096 -0.939,-0.364 -1.656,-0.683 -2.152,-0.939 -0.921,-0.55 -1.834,-1.231 -2.754,-2.02 -1.869,-1.594 -3.092,-3.338 -3.658,-5.243 -0.106,-0.229 -0.16,-0.548 -0.16,-0.964 0,-2.976 2.48,-4.464 7.422,-4.464 1.453,0 2.55,0.098 3.294,0.292 1.143,0.399 1.718,1.107 1.718,2.126 0,1.399 -0.894,2.098 -2.674,2.098 -0.292,0 -0.62,-0.035 -0.983,-0.097 -0.593,-0.283 -1.62,-0.372 -3.091,-0.292 -0.691,0.035 -0.992,0.132 -0.912,0.292 -0.062,0.045 -0.097,0.115 -0.097,0.204 0,0.691 0.646,1.638 1.939,2.825 0.416,0.381 1.603,1.045 3.56,2.001 z m 0.31,-25.169 c 0,-1.213 -0.868,-2.072 -2.595,-2.595 -0.929,-0.274 -1.656,-0.327 -2.178,-0.15 -0.452,0.275 -0.673,0.584 -0.673,0.93 -0.107,0.691 0.514,1.426 1.868,2.205 0.416,0.239 1.161,0.434 2.232,0.576 0.894,0 1.346,-0.328 1.346,-0.966 z m -6.899,-6.022 c -2.231,-1.381 -4.773,-2.843 -7.633,-4.384 -1.125,-0.601 -2.312,-0.779 -3.579,-0.513 -0.434,0.079 -0.797,0.124 -1.089,0.124 -0.921,0 -1.328,-0.505 -1.249,-1.524 0.071,-0.779 0.319,-1.479 0.727,-2.081 0.469,-0.912 1.036,-1.372 1.691,-1.372 0.133,0 0.248,0.009 0.337,0.026 2.559,0.496 7.439,3.091 14.63,7.785 1.753,1.142 3.428,2.409 5.039,3.808 2.125,1.868 3.268,3.471 3.418,4.8 0.178,1.541 -0.823,2.701 -3.002,3.48 -1.107,0.399 -2.09,0.594 -2.94,0.594 -3.596,0 -6.296,-1.169 -8.121,-3.498 -1.054,-1.356 -1.603,-2.471 -1.656,-3.375 -0.124,-1.886 1.018,-3.171 3.427,-3.87 z m 31.989,-18.314 c -4.322,-2.701 -8.662,-5.11 -13.028,-7.236 -1.169,-0.283 -1.762,-0.921 -1.762,-1.922 0,-0.177 0.213,-0.734 0.62,-1.691 0.159,-0.345 0.487,-0.513 0.992,-0.513 0.292,0 0.584,0.07 0.877,0.203 0.522,0.124 1.487,0.576 2.904,1.355 l 7.271,3.968 c 2.196,1.213 3.578,2.046 4.154,2.515 0.531,0.602 0.797,1.045 0.797,1.319 0,0.541 -0.187,1.054 -0.567,1.55 -0.381,0.487 -0.833,0.735 -1.346,0.735 -0.301,0 -0.603,-0.088 -0.912,-0.283 z m 4.384,17.615 c -0.328,1.266 -1.409,1.93 -3.242,2.001 -1.47,0.053 -2.745,-0.593 -3.817,-1.948 -0.416,-0.514 -0.62,-1.205 -0.62,-2.046 0,-0.284 0.106,-0.629 0.31,-1.036 -1.78,-1.39 -4.747,-3.419 -8.9,-6.102 -0.912,-0.584 -1.86,-0.886 -2.825,-0.886 -0.293,0 -0.745,0.053 -1.346,0.151 -0.611,0.089 -1.063,0.141 -1.356,0.141 -0.398,0 -0.761,-0.088 -1.089,-0.265 -0.327,-0.275 -0.496,-0.7 -0.496,-1.266 0,-0.691 0.266,-1.551 0.78,-2.568 0.576,-1.108 1.151,-1.728 1.745,-1.843 1.035,-0.106 3.303,0.886 6.792,2.984 2.161,1.294 6.005,4.225 11.522,8.795 1.328,-0.053 2.187,-0.08 2.568,-0.08 3.755,0 6.624,0.921 8.617,2.754 0.912,0.842 1.355,1.807 1.319,2.879 -0.053,1.523 -0.601,2.745 -1.656,3.684 0.567,0.274 1.143,0.54 1.71,0.805 0.655,0.381 0.983,0.86 0.983,1.453 0,0.514 -0.186,0.992 -0.558,1.408 -0.373,0.425 -0.815,0.638 -1.337,0.638 -0.426,0 -0.771,-0.062 -1.037,-0.177 -2.399,-1.09 -4.162,-1.639 -5.287,-1.639 -0.337,0 -0.682,0.018 -1.044,0.053 -1.639,0.16 -2.463,-0.602 -2.463,-2.285 0,-0.602 0.585,-1.142 1.736,-1.611 1.355,-0.31 2.48,-0.611 3.375,-0.904 0.743,-0.239 1.115,-0.69 1.115,-1.346 0,-0.886 -0.814,-1.408 -2.435,-1.558 -0.727,-0.072 -1.745,-0.133 -3.064,-0.186"
       style="fill:#231f20;fill-opacity:1;fill-rule:nonzero;stroke:none"
       transform="matrix(1.3333333,0,0,-1.3333333,201.05867,27.896)" />
    <path
       id="path3"
       d="M 0,0 V 26.829 H 5.347 L 11.693,7.833 c 0.588,-1.767 1.019,-3.092 1.281,-3.973 0.307,0.975 0.781,2.412 1.431,4.304 l 6.421,18.665 h 4.779 V 0 H 22.182 V 22.456 L 14.386,0 H 11.181 L 3.423,22.838 V 0 Z M 43.595,2.398 C 42.37,1.362 41.196,0.631 40.071,0.2 c -1.13,-0.425 -2.342,-0.637 -3.635,-0.637 -2.136,0 -3.773,0.518 -4.922,1.561 -1.143,1.044 -1.718,2.38 -1.718,3.998 0,0.956 0.212,1.824 0.65,2.611 0.43,0.787 0.999,1.418 1.699,1.893 0.706,0.474 1.493,0.837 2.374,1.08 0.643,0.169 1.617,0.338 2.923,0.494 2.661,0.319 4.622,0.694 5.878,1.137 0.012,0.45 0.018,0.737 0.018,0.856 0,1.342 -0.312,2.292 -0.937,2.835 -0.837,0.751 -2.092,1.118 -3.747,1.118 -1.549,0 -2.693,-0.268 -3.436,-0.811 -0.737,-0.544 -1.281,-1.506 -1.637,-2.886 l -3.216,0.443 c 0.293,1.375 0.774,2.493 1.443,3.336 0.668,0.85 1.643,1.506 2.91,1.961 1.268,0.456 2.736,0.687 4.41,0.687 1.662,0 3.005,-0.199 4.042,-0.587 1.037,-0.393 1.799,-0.881 2.292,-1.474 0.487,-0.593 0.825,-1.337 1.025,-2.242 0.106,-0.563 0.162,-1.575 0.162,-3.036 V 8.145 c 0,-3.066 0.069,-5.003 0.213,-5.809 C 46.999,1.524 47.28,0.744 47.692,0 H 44.25 C 43.913,0.681 43.689,1.48 43.595,2.398 Z M 43.32,9.757 C 42.121,9.263 40.328,8.851 37.942,8.507 36.586,8.314 35.624,8.095 35.068,7.851 34.506,7.608 34.069,7.252 33.769,6.777 33.462,6.309 33.306,5.79 33.306,5.216 c 0,-0.881 0.338,-1.612 1,-2.199 0.662,-0.581 1.636,-0.874 2.917,-0.874 1.268,0 2.399,0.274 3.386,0.83 0.987,0.556 1.718,1.319 2.18,2.28 0.356,0.743 0.531,1.843 0.531,3.292 z M 54.976,0 h -3.2919 v 26.829 h 3.2919 z m -3.292,0 z m 21.007,0 v 2.455 c -1.23,-1.93 -3.042,-2.892 -5.434,-2.892 -1.55,0 -2.974,0.425 -4.273,1.281 -1.299,0.849 -2.305,2.042 -3.023,3.579 -0.713,1.53 -1.068,3.285 -1.068,5.278 0,1.936 0.324,3.698 0.968,5.278 0.649,1.581 1.618,2.793 2.911,3.63 1.293,0.842 2.741,1.267 4.341,1.267 1.168,0 2.211,-0.249 3.124,-0.743 0.917,-0.494 1.661,-1.137 2.235,-1.93 v 9.626 h 3.274 V 0 Z M 62.278,9.701 c 0,-2.493 0.525,-4.354 1.574,-5.585 1.05,-1.23 2.287,-1.849 3.717,-1.849 1.437,0 2.661,0.593 3.666,1.768 1.006,1.175 1.512,2.974 1.512,5.391 0,2.661 -0.512,4.61 -1.537,5.853 -1.024,1.249 -2.285,1.867 -3.791,1.867 -1.462,0 -2.686,-0.599 -3.667,-1.792 -0.98,-1.193 -1.474,-3.08 -1.474,-5.653 z m 21.963,13.336 h -3.2986 v 3.7917 h 3.2986 z m -3.298,0 z M 84.241,0 h -3.2986 v 19.433 h 3.2986 z m -3.298,0 z m 13.711,0 -7.396,19.433 h 3.479 L 94.91,7.796 c 0.45,-1.256 0.862,-2.562 1.243,-3.917 0.294,1.024 0.7,2.255 1.225,3.698 l 4.322,11.856 h 3.386 L 97.727,0 Z m 16.653,23.037 h -3.2987 v 3.7917 h 3.2987 z m -3.298,0 z M 111.307,0 h -3.2987 v 19.433 h 3.2987 z m -3.298,0 z m 20.994,2.398 C 127.779,1.362 126.605,0.631 125.48,0.2 c -1.131,-0.425 -2.342,-0.637 -3.635,-0.637 -2.136,0 -3.773,0.518 -4.922,1.561 -1.144,1.044 -1.718,2.38 -1.718,3.998 0,0.956 0.212,1.824 0.649,2.611 0.431,0.787 1,1.418 1.7,1.893 0.705,0.474 1.492,0.837 2.374,1.08 0.643,0.169 1.617,0.338 2.923,0.494 2.661,0.319 4.622,0.694 5.878,1.137 0.012,0.45 0.018,0.737 0.018,0.856 0,1.342 -0.312,2.292 -0.937,2.835 -0.837,0.751 -2.092,1.118 -3.747,1.118 -1.549,0 -2.693,-0.268 -3.436,-0.811 -0.737,-0.544 -1.281,-1.506 -1.637,-2.886 l -3.217,0.443 c 0.294,1.375 0.775,2.493 1.443,3.336 0.669,0.85 1.643,1.506 2.911,1.961 1.268,0.456 2.736,0.687 4.41,0.687 1.662,0 3.005,-0.199 4.042,-0.587 1.037,-0.393 1.799,-0.881 2.292,-1.474 0.487,-0.593 0.825,-1.337 1.025,-2.242 0.105,-0.563 0.162,-1.575 0.162,-3.036 V 8.145 c 0,-3.066 0.069,-5.003 0.212,-5.809 0.138,-0.812 0.419,-1.592 0.831,-2.336 h -3.442 c -0.337,0.681 -0.562,1.48 -0.656,2.398 z m -0.274,7.359 c -1.199,-0.494 -2.993,-0.906 -5.379,-1.25 -1.355,-0.193 -2.317,-0.412 -2.873,-0.656 -0.562,-0.243 -0.999,-0.599 -1.299,-1.074 -0.307,-0.468 -0.463,-0.987 -0.463,-1.561 0,-0.881 0.338,-1.612 1,-2.199 0.662,-0.581 1.636,-0.874 2.917,-0.874 1.268,0 2.399,0.274 3.386,0.83 0.987,0.556 1.718,1.319 2.18,2.28 0.355,0.743 0.531,1.843 0.531,3.292 z M 137.168,0 v 19.433 h 2.961 v -2.761 c 1.43,2.136 3.492,3.204 6.184,3.204 1.174,0 2.248,-0.212 3.229,-0.631 0.987,-0.424 1.718,-0.974 2.205,-1.661 0.494,-0.681 0.831,-1.493 1.031,-2.43 0.119,-0.612 0.181,-1.68 0.181,-3.205 V 0 h -3.298 v 11.824 c 0,1.337 -0.125,2.343 -0.381,3.011 -0.256,0.663 -0.712,1.193 -1.362,1.587 -0.656,0.4 -1.418,0.599 -2.299,0.599 -1.405,0 -2.611,-0.449 -3.635,-1.336 -1.018,-0.893 -1.524,-2.58 -1.524,-5.072 V 0 Z m 31.733,0 v 26.829 h 11.893 c 2.393,0 4.21,-0.244 5.454,-0.724 1.243,-0.482 2.236,-1.331 2.985,-2.55 0.744,-1.224 1.113,-2.573 1.113,-4.047 0,-1.905 -0.613,-3.504 -1.849,-4.81 -1.231,-1.306 -3.136,-2.136 -5.71,-2.492 0.943,-0.45 1.656,-0.893 2.142,-1.337 1.037,-0.95 2.018,-2.143 2.949,-3.567 L 192.544,0 h -4.466 l -3.549,5.584 c -1.036,1.606 -1.892,2.843 -2.566,3.692 -0.669,0.856 -1.269,1.455 -1.799,1.793 -0.531,0.343 -1.069,0.581 -1.618,0.718 -0.406,0.082 -1.062,0.125 -1.981,0.125 h -4.116 V 0 Z m 3.548,14.985 h 7.633 c 1.618,0 2.892,0.169 3.804,0.506 0.919,0.338 1.612,0.875 2.087,1.612 0.474,0.737 0.712,1.536 0.712,2.405 0,1.268 -0.456,2.311 -1.38,3.129 -0.919,0.819 -2.374,1.224 -4.367,1.224 h -8.489 z m 36.342,-8.726 3.405,-0.419 c -0.538,-1.992 -1.531,-3.535 -2.98,-4.634 -1.456,-1.093 -3.311,-1.643 -5.565,-1.643 -2.843,0 -5.098,0.874 -6.76,2.623 -1.668,1.749 -2.498,4.204 -2.498,7.365 0,3.273 0.843,5.809 2.523,7.615 1.687,1.805 3.867,2.71 6.553,2.71 2.599,0 4.723,-0.887 6.365,-2.654 1.65,-1.768 2.474,-4.26 2.474,-7.465 0,-0.2 -0.006,-0.494 -0.019,-0.881 h -14.491 c 0.118,-2.136 0.724,-3.773 1.81,-4.903 1.088,-1.138 2.437,-1.706 4.061,-1.706 1.206,0 2.236,0.319 3.092,0.956 0.856,0.631 1.53,1.643 2.03,3.036 z m -10.812,5.328 h 10.85 c -0.144,1.631 -0.562,2.861 -1.243,3.673 -1.05,1.268 -2.412,1.906 -4.08,1.906 -1.511,0 -2.785,-0.507 -3.816,-1.518 -1.03,-1.012 -1.599,-2.368 -1.711,-4.061 z M 228.942,0 v 2.455 c -1.23,-1.93 -3.041,-2.892 -5.434,-2.892 -1.549,0 -2.973,0.425 -4.272,1.281 -1.299,0.849 -2.306,2.042 -3.023,3.579 -0.713,1.53 -1.068,3.285 -1.068,5.278 0,1.936 0.324,3.698 0.968,5.278 0.649,1.581 1.618,2.793 2.91,3.63 1.294,0.842 2.742,1.267 4.342,1.267 1.168,0 2.211,-0.249 3.123,-0.743 0.918,-0.494 1.662,-1.137 2.236,-1.93 v 9.626 h 3.273 V 0 Z M 218.53,9.701 c 0,-2.493 0.525,-4.354 1.574,-5.585 1.049,-1.23 2.286,-1.849 3.717,-1.849 1.436,0 2.661,0.593 3.666,1.768 1.006,1.175 1.512,2.974 1.512,5.391 0,2.661 -0.512,4.61 -1.537,5.853 -1.024,1.249 -2.286,1.867 -3.792,1.867 -1.461,0 -2.685,-0.599 -3.666,-1.792 -0.981,-1.193 -1.474,-3.08 -1.474,-5.653 z m 48.623,-0.294 3.555,-0.9 c -0.744,-2.91 -2.087,-5.134 -4.017,-6.67 -1.937,-1.531 -4.297,-2.293 -7.096,-2.293 -2.892,0 -5.241,0.587 -7.052,1.762 -1.812,1.18 -3.192,2.885 -4.136,5.115 -0.943,2.237 -1.418,4.636 -1.418,7.197 0,2.792 0.531,5.228 1.6,7.308 1.068,2.08 2.586,3.661 4.56,4.741 1.967,1.081 4.135,1.618 6.503,1.618 2.685,0 4.94,-0.681 6.77,-2.049 1.83,-1.368 3.105,-3.285 3.823,-5.765 l -3.491,-0.825 c -0.625,1.955 -1.525,3.373 -2.711,4.266 -1.181,0.894 -2.667,1.337 -4.467,1.337 -2.061,0 -3.779,-0.494 -5.166,-1.481 -1.386,-0.993 -2.36,-2.317 -2.917,-3.985 -0.562,-1.661 -0.843,-3.379 -0.843,-5.147 0,-2.286 0.332,-4.273 0.993,-5.978 0.669,-1.699 1.699,-2.973 3.105,-3.816 1.406,-0.844 2.923,-1.262 4.56,-1.262 1.986,0 3.667,0.574 5.047,1.717 1.381,1.15 2.311,2.855 2.798,5.11 z M 274.624,0 v 19.433 h 2.961 v -2.942 c 0.756,1.374 1.456,2.286 2.099,2.723 0.637,0.438 1.343,0.662 2.111,0.662 1.112,0 2.237,-0.356 3.386,-1.061 l -1.137,-3.061 c -0.799,0.481 -1.606,0.718 -2.411,0.718 -0.725,0 -1.368,-0.218 -1.943,-0.65 -0.574,-0.437 -0.981,-1.036 -1.224,-1.805 -0.369,-1.168 -0.55,-2.449 -0.55,-3.841 V 0 Z m 25.817,6.259 3.404,-0.419 c -0.537,-1.992 -1.53,-3.535 -2.98,-4.634 -1.455,-1.093 -3.31,-1.643 -5.565,-1.643 -2.842,0 -5.097,0.874 -6.759,2.623 -1.668,1.749 -2.498,4.204 -2.498,7.365 0,3.273 0.842,5.809 2.523,7.615 1.687,1.805 3.867,2.71 6.553,2.71 2.599,0 4.722,-0.887 6.365,-2.654 1.649,-1.768 2.474,-4.26 2.474,-7.465 0,-0.2 -0.007,-0.494 -0.019,-0.881 h -14.492 c 0.119,-2.136 0.725,-3.773 1.811,-4.903 1.087,-1.138 2.437,-1.706 4.061,-1.706 1.205,0 2.236,0.319 3.091,0.956 0.857,0.631 1.531,1.643 2.031,3.036 z m -10.813,5.328 h 10.85 c -0.143,1.631 -0.561,2.861 -1.242,3.673 -1.05,1.268 -2.412,1.906 -4.08,1.906 -1.511,0 -2.786,-0.507 -3.816,-1.518 -1.031,-1.012 -1.6,-2.368 -1.712,-4.061 z m 17.041,-5.784 3.254,0.512 c 0.182,-1.305 0.694,-2.305 1.531,-3.005 0.83,-0.693 1.999,-1.043 3.504,-1.043 1.512,0 2.636,0.313 3.367,0.925 0.731,0.618 1.1,1.343 1.1,2.168 0,0.749 -0.326,1.33 -0.975,1.761 -0.45,0.293 -1.575,0.662 -3.367,1.112 -2.411,0.612 -4.091,1.137 -5.022,1.586 -0.931,0.444 -1.643,1.062 -2.124,1.849 -0.481,0.787 -0.725,1.656 -0.725,2.606 0,0.868 0.201,1.667 0.6,2.404 0.393,0.744 0.937,1.356 1.618,1.843 0.512,0.375 1.212,0.699 2.092,0.962 0.887,0.262 1.837,0.393 2.849,0.393 1.524,0 2.861,-0.224 4.016,-0.662 1.156,-0.437 2.006,-1.03 2.556,-1.78 0.549,-0.756 0.923,-1.755 1.13,-3.011 l -3.217,-0.443 c -0.15,0.999 -0.575,1.78 -1.274,2.342 -0.7,0.563 -1.693,0.844 -2.974,0.844 -1.511,0 -2.592,-0.251 -3.235,-0.75 -0.65,-0.5 -0.975,-1.087 -0.975,-1.755 0,-0.432 0.137,-0.812 0.406,-1.156 0.269,-0.356 0.687,-0.643 1.262,-0.88 0.331,-0.12 1.299,-0.401 2.911,-0.838 2.33,-0.624 3.954,-1.13 4.872,-1.53 0.924,-0.394 1.649,-0.974 2.174,-1.73 0.524,-0.756 0.787,-1.694 0.787,-2.818 0,-1.099 -0.325,-2.13 -0.962,-3.104 -0.643,-0.969 -1.568,-1.718 -2.774,-2.249 -1.205,-0.531 -2.573,-0.793 -4.097,-0.793 -2.53,0 -4.454,0.525 -5.778,1.573 -1.324,1.05 -2.168,2.606 -2.53,4.667 z m 32.738,1.318 3.236,-0.424 c -0.35,-2.231 -1.256,-3.98 -2.717,-5.242 -1.456,-1.261 -3.249,-1.892 -5.372,-1.892 -2.656,0 -4.798,0.868 -6.409,2.605 -1.618,1.736 -2.43,4.228 -2.43,7.477 0,2.098 0.349,3.935 1.043,5.509 0.699,1.574 1.755,2.754 3.179,3.542 1.418,0.787 2.968,1.18 4.635,1.18 2.111,0 3.842,-0.537 5.179,-1.605 1.343,-1.068 2.204,-2.58 2.586,-4.547 l -3.205,-0.494 c -0.306,1.305 -0.843,2.286 -1.618,2.948 -0.774,0.656 -1.711,0.988 -2.81,0.988 -1.662,0 -3.012,-0.594 -4.048,-1.787 -1.037,-1.187 -1.556,-3.067 -1.556,-5.641 0,-2.611 0.5,-4.51 1.506,-5.697 0.999,-1.181 2.305,-1.774 3.916,-1.774 1.293,0 2.368,0.4 3.236,1.194 0.868,0.793 1.418,2.011 1.649,3.66 z M 358.765,6.259 362.17,5.84 c -0.538,-1.992 -1.531,-3.535 -2.98,-4.634 -1.456,-1.093 -3.311,-1.643 -5.565,-1.643 -2.843,0 -5.098,0.874 -6.76,2.623 -1.668,1.749 -2.498,4.204 -2.498,7.365 0,3.273 0.843,5.809 2.523,7.615 1.687,1.805 3.867,2.71 6.553,2.71 2.599,0 4.723,-0.887 6.365,-2.654 1.65,-1.768 2.474,-4.26 2.474,-7.465 0,-0.2 -0.006,-0.494 -0.019,-0.881 h -14.491 c 0.118,-2.136 0.724,-3.773 1.81,-4.903 1.088,-1.138 2.437,-1.706 4.061,-1.706 1.206,0 2.236,0.319 3.092,0.956 0.856,0.631 1.53,1.643 2.03,3.036 z m -10.812,5.328 h 10.85 c -0.144,1.631 -0.562,2.861 -1.243,3.673 -1.05,1.268 -2.412,1.906 -4.08,1.906 -1.511,0 -2.785,-0.507 -3.816,-1.518 -1.03,-1.012 -1.599,-2.368 -1.711,-4.061 z M 366.311,0 v 19.433 h 2.961 v -2.761 c 1.431,2.136 3.492,3.204 6.184,3.204 1.175,0 2.249,-0.212 3.229,-0.631 0.987,-0.424 1.718,-0.974 2.206,-1.661 0.493,-0.681 0.83,-1.493 1.03,-2.43 0.119,-0.612 0.182,-1.68 0.182,-3.205 V 0 h -3.298 v 11.824 c 0,1.337 -0.126,2.343 -0.382,3.011 -0.256,0.663 -0.711,1.193 -1.362,1.587 -0.656,0.4 -1.417,0.599 -2.298,0.599 -1.406,0 -2.611,-0.449 -3.636,-1.336 -1.018,-0.893 -1.524,-2.58 -1.524,-5.072 V 0 Z m 28.035,2.948 0.475,-2.911 c -0.925,-0.193 -1.755,-0.293 -2.486,-0.293 -1.2,0 -2.124,0.187 -2.787,0.568 -0.656,0.375 -1.118,0.875 -1.386,1.493 -0.269,0.612 -0.406,1.911 -0.406,3.885 v 11.182 h -2.417 v 2.561 h 2.417 v 4.816 l 3.279,1.974 v -6.79 h 3.311 v -2.561 h -3.311 V 5.509 c 0,-0.943 0.056,-1.543 0.169,-1.811 0.119,-0.268 0.306,-0.481 0.568,-0.644 0.263,-0.156 0.638,-0.237 1.125,-0.237 0.368,0 0.849,0.043 1.449,0.131"
       style="fill:#231f20;fill-opacity:1;fill-rule:nonzero;stroke:none"
       transform="matrix(1.3333333,0,0,-1.3333333,186.91333,154.58933)" />
  </g>
</svg>
