<?xml version="1.0" encoding="UTF-8" standalone="no"?>
<!-- Created with Inkscape (http://www.inkscape.org/) -->

<svg
   version="1.1"
   id="svg1"
   width="628"
   height="629.33331"
   viewBox="0 0 628 629.33331"
   sodipodi:docname="MRC Round Logo.svg"
   inkscape:version="1.3.2 (091e20e, 2023-11-25, custom)"
   xmlns:inkscape="http://www.inkscape.org/namespaces/inkscape"
   xmlns:sodipodi="http://sodipodi.sourceforge.net/DTD/sodipodi-0.dtd"
   xmlns="http://www.w3.org/2000/svg"
   xmlns:svg="http://www.w3.org/2000/svg">
  <defs
     id="defs1" />
  <sodipodi:namedview
     id="namedview1"
     pagecolor="#ffffff"
     bordercolor="#666666"
     borderopacity="1.0"
     inkscape:showpageshadow="2"
     inkscape:pageopacity="0.0"
     inkscape:pagecheckerboard="0"
     inkscape:deskcolor="#d1d1d1"
     inkscape:export-bgcolor="#ffffffff"
     inkscape:zoom="1.3045551"
     inkscape:cx="313.90011"
     inkscape:cy="314.66666"
     inkscape:window-width="1920"
     inkscape:window-height="1017"
     inkscape:window-x="-8"
     inkscape:window-y="-8"
     inkscape:window-maximized="1"
     inkscape:current-layer="g1">
    <inkscape:page
       x="0"
       y="0"
       inkscape:label="1"
       id="page1"
       width="628"
       height="629.33331"
       margin="0"
       bleed="0"
       inkscape:export-filename="MRC Round Logo.png"
       inkscape:export-xdpi="300"
       inkscape:export-ydpi="300" />
  </sodipodi:namedview>
  <g
     id="g1"
     inkscape:groupmode="layer"
     inkscape:label="1">
    <path
       id="path1"
       d="M 0,0 C 129.859,0 235.171,-105.312 235.171,-235.171 235.171,-365.03 129.859,-470.343 0,-470.343 c -129.859,0 -235.172,105.313 -235.172,235.172 C -235.172,-105.312 -129.859,0 0,0 Z"
       style="fill:#ffffff;fill-opacity:1;fill-rule:evenodd;stroke:#ffffff;stroke-width:0.216;stroke-linecap:butt;stroke-linejoin:miter;stroke-miterlimit:22.926;stroke-dasharray:none;stroke-opacity:1"
       transform="matrix(1.3333333,0,0,-1.3333333,314.184,1.1773333)" />
    <path
       id="path2"
       d="m 0,0 c 89.201,0 161.541,-72.34 161.541,-161.541 0,-89.202 -72.34,-161.541 -161.541,-161.541 -89.202,0 -161.541,72.339 -161.541,161.541 C -161.541,-72.34 -89.202,0 0,0 Z"
       style="fill:none;stroke:#231f20;stroke-width:0.216;stroke-linecap:butt;stroke-linejoin:miter;stroke-miterlimit:22.926;stroke-dasharray:none;stroke-opacity:1"
       transform="matrix(1.3333333,0,0,-1.3333333,314.184,99.350667)" />
    <path
       id="path3"
       d="m 0,0 c 31.588,0 60.528,-11.335 82.989,-30.154 -11.674,4.425 -24.328,6.853 -37.551,6.853 -58.544,0 -106.021,-47.477 -106.021,-106.02 0,-58.542 47.477,-106.02 106.021,-106.02 13.223,0 25.877,2.431 37.551,6.856 C 60.528,-247.304 31.588,-258.642 0,-258.642 c -71.411,0 -129.322,57.912 -129.322,129.321 C -129.322,-57.912 -71.411,0 0,0 Z"
       style="fill:#ed1c24;fill-opacity:1;fill-rule:evenodd;stroke:#ed1c24;stroke-width:0.216;stroke-linecap:butt;stroke-linejoin:miter;stroke-miterlimit:22.926;stroke-dasharray:none;stroke-opacity:1"
       transform="matrix(1.3333333,0,0,-1.3333333,314.18267,142.31067)" />
    <path
       id="path4"
       d="m 0,0 c 129.343,0 234.237,-104.894 234.237,-234.237 0,-129.344 -104.894,-234.237 -234.237,-234.237 -129.343,0 -234.237,104.893 -234.237,234.237 C -234.237,-104.894 -129.343,0 0,0 Z"
       style="fill:none;stroke:#231f20;stroke-width:0.216;stroke-linecap:butt;stroke-linejoin:miter;stroke-miterlimit:22.926;stroke-dasharray:none;stroke-opacity:1"
       transform="matrix(1.3333333,0,0,-1.3333333,314.184,2.4226667)" />
    <path
       id="path5"
       d="m 0,0 -30.098,9.814 2.781,9.703 22.202,-0.873 -18.884,12.45 2.787,9.724 L 8.887,31.003 7.163,24.987 -16.531,32.712 5.335,18.611 3.546,12.37 -21.968,13.743 1.725,6.017 Z m -0.667,48.626 -3.288,-4.785 c -1.713,1.621 -2.713,3.394 -3.009,5.33 -0.287,1.941 0.209,4.327 1.506,7.165 1.183,2.585 2.35,4.352 3.501,5.318 1.148,0.959 2.281,1.475 3.398,1.528 1.116,0.054 2.849,-0.525 5.207,-1.752 l 6.301,-3.356 c 1.797,-0.935 3.17,-1.536 4.112,-1.792 0.934,-0.259 2.016,-0.387 3.223,-0.389 l -2.618,-5.725 c -0.43,0.041 -1.051,0.129 -1.855,0.278 -0.364,0.076 -0.607,0.116 -0.732,0.128 0.449,-1.46 0.639,-2.863 0.581,-4.223 -0.067,-1.357 -0.393,-2.675 -0.977,-3.953 -1.028,-2.248 -2.413,-3.727 -4.144,-4.427 -1.741,-0.704 -3.485,-0.596 -5.237,0.315 -1.153,0.6 -2.051,1.433 -2.691,2.495 -0.639,1.063 -0.951,2.252 -0.947,3.563 0.004,1.311 0.287,3.069 0.839,5.259 0.76,2.945 1.169,5.052 1.237,6.305 L 3.2,56.189 C 2.153,56.734 1.289,56.843 0.591,56.528 -0.1,56.21 -0.797,55.294 -1.494,53.77 c -0.473,-1.033 -0.648,-1.933 -0.529,-2.708 0.112,-0.771 0.565,-1.581 1.356,-2.436 z M 7.27,54.072 C 7.163,53.214 6.904,51.897 6.49,50.12 6.081,48.351 5.918,47.139 5.994,46.484 6.156,45.468 6.615,44.76 7.386,44.359 8.15,43.961 8.94,43.924 9.77,44.24 c 0.829,0.317 1.456,0.939 1.883,1.873 0.479,1.047 0.609,2.205 0.404,3.485 -0.167,0.956 -0.557,1.725 -1.169,2.313 -0.39,0.394 -1.241,0.924 -2.538,1.599 z m 15.44,6.103 -26.692,17.788 3.196,5.456 26.692,-17.789 z m 20.296,28.06 -3.599,-4.574 -2.565,2.295 c 0.401,-1.654 0.434,-3.216 0.109,-4.689 -0.327,-1.473 -0.905,-2.73 -1.734,-3.784 -1.687,-2.143 -3.937,-3.252 -6.755,-3.332 -2.813,-0.073 -5.672,1.18 -8.563,3.767 -2.964,2.652 -4.631,5.41 -5.001,8.271 -0.37,2.861 0.335,5.434 2.119,7.704 1.635,2.077 3.867,3.151 6.685,3.22 l -8.683,7.772 3.876,4.928 z m -19.46,-5 c 1.864,-1.668 3.428,-2.599 4.698,-2.797 1.822,-0.284 3.305,0.287 4.426,1.711 0.895,1.138 1.198,2.509 0.921,4.114 -0.282,1.599 -1.319,3.211 -3.115,4.819 -2.005,1.793 -3.759,2.701 -5.243,2.723 -1.489,0.016 -2.709,-0.574 -3.662,-1.784 -0.918,-1.168 -1.248,-2.536 -0.999,-4.104 0.248,-1.569 1.24,-3.13 2.974,-4.682 z m 5.462,29.113 -3.879,4.284 4.339,4.468 3.878,-4.284 z m 17.985,-19.864 -15.837,17.491 4.339,4.468 15.836,-17.49 z m 13.852,13.227 -21.276,13.127 4.989,4.157 10.548,-6.96 3.373,-2.446 c -0.349,1.047 -0.583,1.735 -0.714,2.053 -0.235,0.677 -0.465,1.358 -0.678,2.043 l -3.746,12.629 4.89,4.076 6.893,-25.113 z m 1.542,35.354 -2.793,5.158 5.224,3.216 2.791,-5.157 z m 12.944,-23.914 -11.398,21.058 5.223,3.216 11.399,-21.057 z m 7.974,24.589 -5.379,-1.511 c -0.375,2.41 -0.106,4.457 0.807,6.162 0.922,1.701 2.715,3.222 5.398,4.556 2.444,1.216 4.393,1.805 5.859,1.784 1.458,-0.025 2.642,-0.385 3.542,-1.093 0.899,-0.708 1.904,-2.321 3.013,-4.857 l 2.916,-6.837 c 0.846,-1.934 1.558,-3.321 2.139,-4.153 0.573,-0.828 1.338,-1.655 2.275,-2.465 l -5.414,-2.693 c -0.309,0.321 -0.739,0.806 -1.277,1.461 -0.238,0.304 -0.403,0.497 -0.492,0.592 -0.513,-1.437 -1.193,-2.655 -2.042,-3.672 -0.852,-1.01 -1.882,-1.816 -3.091,-2.417 -2.125,-1.057 -4.075,-1.277 -5.833,-0.659 -1.767,0.622 -3.059,1.876 -3.883,3.76 -0.542,1.24 -0.75,2.491 -0.619,3.746 0.13,1.255 0.588,2.388 1.365,3.404 0.778,1.016 2.034,2.193 3.756,3.524 2.328,1.778 3.89,3.142 4.681,4.07 l -0.254,0.581 c -0.492,1.126 -1.099,1.79 -1.827,2.014 -0.725,0.217 -1.807,-0.027 -3.248,-0.744 -0.977,-0.485 -1.644,-1.068 -2.009,-1.749 -0.368,-0.675 -0.493,-1.608 -0.383,-2.804 z m 9.381,-1.095 c -0.588,-0.595 -1.568,-1.444 -2.938,-2.547 -1.362,-1.101 -2.203,-1.933 -2.531,-2.493 -0.473,-0.899 -0.534,-1.757 -0.172,-2.586 0.36,-0.822 0.951,-1.381 1.783,-1.692 0.832,-0.311 1.686,-0.249 2.568,0.191 0.99,0.492 1.775,1.305 2.371,2.437 0.435,0.855 0.584,1.715 0.456,2.582 -0.071,0.569 -0.419,1.551 -1.029,2.947 z m 34.91,1.457 -5.736,-1.989 -3.596,11.805 c -0.761,2.497 -1.378,4.067 -1.846,4.718 -0.465,0.644 -1.044,1.076 -1.719,1.294 -0.673,0.211 -1.399,0.19 -2.172,-0.079 -0.996,-0.345 -1.801,-0.944 -2.412,-1.796 -0.608,-0.86 -0.918,-1.815 -0.918,-2.875 -0.002,-1.061 0.391,-2.88 1.179,-5.467 l 3.191,-10.473 -5.736,-1.988 -7.045,23.125 5.325,1.845 1.035,-3.397 c 1.098,3.273 3.083,5.407 5.954,6.402 1.262,0.438 2.501,0.596 3.693,0.475 1.195,-0.128 2.178,-0.47 2.945,-1.042 0.768,-0.572 1.405,-1.297 1.905,-2.183 0.509,-0.884 1.03,-2.216 1.574,-4 z m 18.227,4.675 -3.29,33.385 13.307,1.492 c 3.346,0.374 5.802,0.344 7.377,-0.085 1.575,-0.429 2.897,-1.357 3.959,-2.786 1.062,-1.438 1.687,-3.136 1.881,-5.11 0.246,-2.503 -0.241,-4.656 -1.458,-6.443 -1.217,-1.778 -3.185,-3.044 -5.891,-3.772 1.455,-0.701 2.676,-1.508 3.666,-2.426 0.989,-0.919 2.362,-2.588 4.126,-5.015 l 4.468,-6.085 -7.557,-0.847 -5.286,6.755 c -1.881,2.414 -3.149,3.922 -3.814,4.532 -0.664,0.609 -1.343,0.996 -2.039,1.178 -0.695,0.173 -1.763,0.179 -3.221,0.016 l -1.276,-0.143 1.374,-13.937 z m 4.427,19.978 4.672,0.524 c 3.031,0.34 4.913,0.685 5.644,1.041 0.724,0.356 1.268,0.897 1.632,1.613 0.356,0.716 0.493,1.573 0.394,2.575 -0.111,1.127 -0.484,1.997 -1.114,2.626 -0.629,0.629 -1.466,0.975 -2.511,1.046 -0.518,0.013 -2.059,-0.12 -4.625,-0.408 l -4.926,-0.552 z m 40.166,-10.092 5.998,-1.182 c -0.815,-2.337 -2.061,-4.104 -3.752,-5.3 -1.683,-1.204 -3.781,-1.775 -6.287,-1.728 -3.964,0.074 -6.873,1.503 -8.732,4.306 -1.465,2.239 -2.174,5.051 -2.12,8.419 0.066,4.032 1.107,7.171 3.123,9.416 2.008,2.245 4.526,3.339 7.544,3.283 3.392,-0.063 6.047,-1.308 7.972,-3.736 1.917,-2.428 2.795,-6.103 2.633,-11.032 l -15.115,0.282 c 0.013,-1.908 0.472,-3.402 1.385,-4.474 0.913,-1.08 2.07,-1.634 3.455,-1.659 0.944,-0.018 1.74,0.241 2.394,0.776 0.654,0.543 1.159,1.417 1.502,2.629 z m 0.45,6.497 c -0.013,1.868 -0.437,3.291 -1.278,4.275 -0.842,0.985 -1.881,1.489 -3.113,1.512 -1.318,0.025 -2.411,-0.471 -3.285,-1.478 -0.874,-1 -1.322,-2.383 -1.336,-4.142 z m 31.291,-18.881 -5.529,0.934 0.524,3.528 c -1.124,-1.22 -2.36,-2.055 -3.712,-2.515 -1.352,-0.46 -2.661,-0.579 -3.934,-0.364 -2.592,0.438 -4.642,1.923 -6.157,4.459 -1.508,2.534 -1.974,5.793 -1.383,9.769 0.605,4.075 1.962,7.02 4.072,8.831 2.108,1.812 4.539,2.494 7.282,2.031 2.512,-0.425 4.524,-1.912 6.032,-4.454 l 1.773,11.943 5.956,-1.006 z m -14.04,15.215 c -0.381,-2.563 -0.323,-4.472 0.172,-5.735 0.71,-1.813 1.933,-2.875 3.655,-3.165 1.376,-0.233 2.633,0.196 3.78,1.276 1.141,1.081 1.901,2.86 2.268,5.33 0.41,2.756 0.235,4.827 -0.511,6.195 -0.754,1.37 -1.858,2.182 -3.32,2.429 -1.411,0.239 -2.68,-0.164 -3.813,-1.199 -1.134,-1.035 -1.877,-2.746 -2.231,-5.131 z m 54.88,-17.524 4.977,-4.387 c -2.163,-3.021 -4.573,-4.916 -7.237,-5.69 -2.655,-0.769 -5.557,-0.48 -8.689,0.869 -3.872,1.669 -6.524,4.456 -7.949,8.349 -1.423,3.901 -1.21,8.302 0.643,13.193 1.962,5.182 4.743,8.662 8.337,10.451 3.592,1.782 7.43,1.797 11.521,0.035 3.566,-1.537 6.042,-3.911 7.417,-7.124 0.829,-1.901 1.097,-4.241 0.819,-7.021 l -6.4,1.03 c 0.272,1.762 0.036,3.347 -0.711,4.757 -0.74,1.405 -1.896,2.443 -3.458,3.117 -2.161,0.931 -4.234,0.863 -6.208,-0.217 -1.972,-1.072 -3.659,-3.464 -5.065,-7.174 -1.491,-3.935 -1.894,-7.023 -1.193,-9.264 0.69,-2.245 2.101,-3.822 4.221,-4.735 1.569,-0.676 3.115,-0.728 4.646,-0.148 1.529,0.572 2.971,1.897 4.329,3.959 z m 10.796,-20.624 -5.169,3.313 11.741,20.843 4.8,-3.076 -1.669,-2.961 c 1.612,0.873 2.874,1.322 3.776,1.345 0.909,0.02 1.778,-0.227 2.613,-0.763 1.182,-0.757 2.116,-1.829 2.817,-3.226 l -4.309,-3.777 c -0.531,1.151 -1.171,1.972 -1.919,2.452 -0.728,0.466 -1.454,0.649 -2.198,0.542 -0.747,-0.096 -1.571,-0.617 -2.486,-1.543 -0.915,-0.928 -2.374,-3.166 -4.37,-6.711 z m 24.313,-8.466 4.276,-4.638 c -1.924,-1.416 -3.895,-2.101 -5.923,-2.046 -2.026,0.043 -4.052,0.86 -6.079,2.431 -3.207,2.485 -4.821,5.435 -4.837,8.868 0.003,2.731 0.935,5.468 2.791,8.193 2.223,3.263 4.763,5.198 7.621,5.804 2.853,0.61 5.504,-0.034 7.946,-1.926 2.745,-2.127 4.25,-4.771 4.521,-7.937 0.264,-3.162 -0.993,-6.709 -3.775,-10.648 l -12.231,9.477 c -1.015,-1.57 -1.443,-3.075 -1.271,-4.512 0.167,-1.443 0.817,-2.604 1.937,-3.472 0.765,-0.593 1.556,-0.868 2.379,-0.829 0.828,0.044 1.712,0.451 2.645,1.235 z m 3.861,5.046 c 0.994,1.538 1.413,2.963 1.253,4.284 -0.16,1.322 -0.74,2.371 -1.736,3.143 -1.068,0.827 -2.229,1.089 -3.487,0.798 -1.254,-0.284 -2.364,-1.143 -3.321,-2.575 z m 3.522,-12.299 4.996,-3.777 c -0.63,-1.09 -0.877,-2.161 -0.73,-3.215 0.141,-1.047 0.718,-2.097 1.741,-3.15 1.122,-1.157 2.164,-1.806 3.131,-1.943 0.659,-0.093 1.226,0.128 1.689,0.639 0.321,0.354 0.48,0.756 0.483,1.198 -0.017,0.442 -0.319,1.143 -0.9,2.1 -2.757,4.426 -4.293,7.466 -4.616,9.112 -0.442,2.28 0.101,4.263 1.623,5.944 1.37,1.513 3.084,2.214 5.138,2.086 2.059,-0.122 4.268,-1.397 6.624,-3.823 2.246,-2.313 3.56,-4.428 3.948,-6.328 0.383,-1.905 0.089,-3.829 -0.884,-5.781 l -4.819,3.409 c 0.442,0.859 0.583,1.724 0.419,2.589 -0.159,0.87 -0.692,1.767 -1.599,2.701 -1.144,1.178 -2.114,1.85 -2.919,2.018 -0.546,0.095 -0.995,-0.051 -1.341,-0.434 -0.3,-0.331 -0.408,-0.754 -0.326,-1.283 0.11,-0.711 1.067,-2.533 2.873,-5.479 1.804,-2.934 2.796,-5.282 2.975,-7.042 0.159,-1.76 -0.426,-3.374 -1.755,-4.841 -1.45,-1.603 -3.33,-2.34 -5.634,-2.195 -2.298,0.14 -4.672,1.477 -7.134,4.013 -2.235,2.302 -3.563,4.604 -3.994,6.918 -0.432,2.302 -0.09,4.492 1.011,6.564 z m 38.992,-31.807 -4.507,4.299 c 0.814,0.946 1.239,1.914 1.275,2.907 0.036,0.991 -0.292,1.959 -0.987,2.907 -0.928,1.269 -2.074,1.931 -3.439,2.004 -1.37,0.068 -3.014,-0.697 -4.931,-2.294 -2.131,-1.775 -3.359,-3.414 -3.677,-4.908 -0.318,-1.496 -0.008,-2.884 0.935,-4.171 0.708,-0.967 1.535,-1.537 2.5,-1.725 0.966,-0.188 2.165,0.118 3.597,0.904 l 2.859,-5.642 c -2.521,-1.267 -4.875,-1.621 -7.04,-1.066 -2.171,0.552 -4.153,2.064 -5.962,4.534 -2.053,2.803 -2.864,5.726 -2.426,8.77 0.434,3.05 2.124,5.797 5.058,8.241 2.963,2.469 5.885,3.556 8.759,3.263 2.885,-0.294 5.366,-1.866 7.456,-4.718 1.709,-2.334 2.593,-4.582 2.663,-6.746 0.065,-2.158 -0.647,-4.348 -2.133,-6.559 z m 1.779,-23.319 2.038,-6.131 c -2.305,-0.416 -4.362,-0.149 -6.179,0.815 -1.819,0.952 -3.332,2.605 -4.547,4.943 -1.922,3.698 -2.215,7.099 -0.87,10.218 1.086,2.473 3.014,4.534 5.777,6.167 3.307,1.956 6.376,2.564 9.207,1.825 2.827,-0.733 4.975,-2.511 6.437,-5.328 1.646,-3.164 1.961,-6.239 0.953,-9.231 -1.013,-2.984 -3.558,-5.633 -7.641,-7.948 l -7.329,14.102 c -1.542,-0.965 -2.526,-2.137 -2.939,-3.516 -0.421,-1.384 -0.292,-2.729 0.379,-4.021 0.459,-0.882 1.066,-1.487 1.827,-1.823 0.768,-0.333 1.731,-0.363 2.887,-0.072 z m 5.499,2.831 c 1.51,0.947 2.454,2.05 2.833,3.319 0.379,1.27 0.268,2.482 -0.329,3.631 -0.639,1.23 -1.588,1.992 -2.843,2.295 -1.249,0.308 -2.596,0.03 -4.03,-0.836 z m 0.493,-38.566 -2.162,6.005 10.864,4.448 c 2.299,0.941 3.736,1.68 4.321,2.213 0.579,0.53 0.954,1.168 1.122,1.899 0.162,0.727 0.105,1.499 -0.187,2.309 -0.376,1.043 -0.978,1.868 -1.809,2.475 -0.837,0.603 -1.746,0.883 -2.74,0.828 -0.993,-0.054 -2.675,-0.568 -5.056,-1.543 l -9.64,-3.947 -2.161,6.006 21.283,8.714 2.006,-5.575 -3.126,-1.28 c 3.122,-0.999 5.225,-3.002 6.307,-6.008 0.475,-1.32 0.688,-2.632 0.637,-3.908 -0.057,-1.279 -0.326,-2.343 -0.822,-3.191 -0.495,-0.847 -1.14,-1.564 -1.944,-2.144 -0.801,-0.587 -2.021,-1.212 -3.662,-1.885 z M 377.647,2.689 372.945,1.622 372.088,5.919 363.1,3.881 c -1.821,-0.412 -2.874,-0.691 -3.158,-0.844 -0.284,-0.152 -0.491,-0.39 -0.634,-0.726 -0.136,-0.335 -0.165,-0.717 -0.083,-1.13 0.118,-0.588 0.479,-1.386 1.073,-2.409 L 355.831,-2.8 c -0.88,1.334 -1.503,2.919 -1.873,4.776 -0.226,1.132 -0.251,2.197 -0.081,3.186 0.177,0.992 0.51,1.762 0.991,2.319 0.481,0.556 1.19,1.02 2.125,1.408 0.654,0.284 2.032,0.669 4.117,1.141 l 9.72,2.204 -0.576,2.89 4.702,1.066 0.576,-2.89 4.438,1.006 4.698,-5.535 -7.877,-1.786 0.856,-4.296"
       style="fill:#231f20;fill-opacity:1;fill-rule:nonzero;stroke:none"
       transform="matrix(1.3333333,0,0,-1.3333333,77.057333,274.56533)" />
    <path
       id="path6"
       d="m 0,0 c -0.269,0.123 -0.627,0.318 -1.077,0.584 -0.451,0.266 -0.9,0.601 -1.351,1.004 -0.559,0.5 -0.974,0.949 -1.245,1.349 -0.715,0.952 -1.036,2.009 -0.962,3.173 0.074,1.164 0.507,2.249 1.3,3.258 0.216,0.274 0.512,0.605 0.889,0.99 0.376,0.386 1.102,0.703 2.176,0.951 0.84,0.185 1.811,0.233 2.913,0.145 C 3.286,11.386 3.973,11.19 4.706,10.866 5.439,10.542 6.139,10.082 6.805,9.486 7.256,9.082 7.642,8.62 7.964,8.097 8.202,7.611 8.381,7.187 8.5,6.826 8.62,6.466 8.696,6.075 8.731,5.654 8.772,4.915 8.713,4.235 8.555,3.616 8.397,2.996 8.084,2.388 7.615,1.793 7.128,1.174 6.553,0.675 5.887,0.295 5.222,-0.086 4.593,-0.304 4.001,-0.36 3.235,-0.494 2.562,-0.536 1.981,-0.484 1.399,-0.432 0.74,-0.271 0,0 Z M 0.28,4.961 C 0.594,4.523 1.153,4.257 1.958,4.162 2.762,4.067 3.336,4.1 3.681,4.259 3.954,4.327 4.19,4.487 4.389,4.739 4.496,4.877 4.572,5.043 4.615,5.238 4.685,5.605 4.58,5.914 4.301,6.164 4.107,6.337 3.878,6.474 3.61,6.577 3.343,6.68 2.961,6.787 2.465,6.9 1.968,7.013 1.475,7.015 0.986,6.905 0.498,6.796 0.152,6.519 -0.05,6.076 -0.116,5.9 -0.132,5.74 -0.1,5.594 -0.068,5.448 0.059,5.237 0.28,4.961 Z M -1.166,-9.313 c -0.119,-0.167 -0.29,-0.337 -0.518,-0.51 -0.228,-0.173 -0.443,-0.328 -0.645,-0.465 -0.601,-0.303 -1.501,-0.534 -2.701,-0.693 -0.511,-0.077 -0.978,-0.104 -1.401,-0.082 -0.423,0.022 -0.851,0.075 -1.282,0.16 l -1.942,0.382 c -0.231,0.072 -0.409,0.141 -0.538,0.207 -0.947,0.349 -1.634,0.695 -2.059,1.037 -0.448,0.359 -0.837,0.654 -1.167,0.882 -1.495,1.015 -2.291,1.579 -2.385,1.692 -0.315,-0.047 -0.62,-0.082 -0.918,-0.106 -0.65,-0.075 -1.147,-0.182 -1.489,-0.319 -0.129,-0.083 -0.278,-0.244 -0.447,-0.483 -0.186,-0.263 -0.256,-0.561 -0.212,-0.896 0.139,-0.3 0.36,-0.646 0.662,-1.038 0.302,-0.393 0.632,-0.732 0.991,-1.02 l 2.124,-1.54 c 0.571,-0.384 0.99,-0.637 1.257,-0.757 0.266,-0.12 0.704,-0.22 1.315,-0.299 0.432,-0.084 0.72,-0.148 0.866,-0.191 0.437,-0.126 0.801,-0.306 1.092,-0.54 0.425,-0.342 0.673,-0.737 0.742,-1.186 0.07,-0.449 0.091,-0.766 0.065,-0.951 -0.025,-0.186 -0.088,-0.35 -0.19,-0.493 -0.191,-0.371 -0.312,-0.592 -0.363,-0.664 -0.185,-0.262 -0.416,-0.414 -0.691,-0.455 -0.466,-0.112 -0.942,-0.141 -1.429,-0.086 -0.242,0.006 -0.623,0.088 -1.144,0.245 l -1.135,0.406 -1.176,0.496 c -0.213,0.096 -0.408,0.207 -0.584,0.329 -0.176,0.123 -0.465,0.299 -0.865,0.528 -0.401,0.227 -1.284,0.89 -2.65,1.988 -0.828,0.666 -1.445,1.284 -1.851,1.852 -0.405,0.57 -0.798,1.307 -1.177,2.21 -0.206,0.802 -0.331,1.296 -0.375,1.482 -0.106,0.496 -0.113,1.008 -0.022,1.534 0.006,0.407 0.271,0.98 0.794,1.72 0.287,0.406 0.564,0.736 0.831,0.989 0.267,0.254 0.597,0.485 0.989,0.694 0.584,0.279 1.106,0.458 1.566,0.538 0.46,0.08 1.033,0.107 1.716,0.082 0.058,0.777 0.098,1.231 0.121,1.363 0.074,0.352 0.193,0.696 0.359,1.031 0.167,0.334 0.312,0.602 0.436,0.802 0.123,0.199 0.228,0.359 0.312,0.478 0.202,0.287 0.471,0.568 0.805,0.842 0.334,0.274 0.769,0.505 1.305,0.692 0.536,0.187 0.919,0.319 1.149,0.396 0.23,0.078 0.463,0.134 0.699,0.169 0.235,0.035 0.563,0.053 0.983,0.052 l 1.161,-0.146 C -9.66,2.887 -9.355,2.773 -9.266,2.701 -9.047,2.563 -8.759,2.35 -8.4,2.062 c 0.447,-0.36 0.826,-0.767 1.137,-1.223 0.309,-0.455 0.57,-1.029 0.782,-1.724 0.062,-0.012 0.112,-0.015 0.151,-0.009 0.32,0.005 0.555,-0.034 0.707,-0.118 l 1.328,-0.282 c 0.348,-0.054 0.704,-0.172 1.068,-0.352 0.364,-0.181 0.691,-0.388 0.982,-0.622 0.404,-0.324 0.7,-0.6 0.89,-0.827 0.19,-0.228 0.443,-0.591 0.759,-1.088 0.316,-0.497 0.536,-1.03 0.661,-1.598 0.125,-0.568 0.117,-1.152 -0.025,-1.749 -0.117,-0.167 -0.274,-0.426 -0.468,-0.775 -0.194,-0.35 -0.3,-0.536 -0.317,-0.56 -0.067,-0.096 -0.207,-0.245 -0.421,-0.448 z m -3.729,2.996 -0.36,0.459 c -0.185,0.186 -0.333,0.324 -0.445,0.414 -0.112,0.089 -0.3,0.147 -0.563,0.172 L -7.265,-5.423 -9.091,-5.92 c 0.247,-0.348 0.721,-0.608 1.425,-0.78 0.703,-0.172 1.2,-0.226 1.492,-0.16 0.292,0.064 0.485,0.115 0.581,0.151 0.348,0.095 0.581,0.226 0.698,0.392 z m -6.148,3.595 c 0.162,0.131 0.246,0.25 0.253,0.358 0.033,0.198 -0.062,0.387 -0.285,0.566 -0.224,0.18 -0.434,0.256 -0.631,0.226 -0.196,-0.03 -0.392,-0.134 -0.589,-0.312 -0.236,-0.186 -0.439,-0.472 -0.608,-0.861 -0.034,-0.047 -0.07,-0.149 -0.109,-0.304 0.241,-0.007 0.405,-0.046 0.495,-0.118 l 0.429,-0.064 c 0.321,0.005 0.522,0.068 0.606,0.187 0.062,-0.012 0.128,0.019 0.198,0.094 0.07,0.074 0.151,0.151 0.241,0.228 z m 30.202,-9.814 c -0.279,0.093 -0.656,0.246 -1.129,0.46 -0.473,0.215 -0.954,0.497 -1.442,0.849 -0.604,0.435 -1.061,0.835 -1.37,1.202 -0.804,0.867 -1.227,1.884 -1.268,3.049 -0.04,1.166 0.284,2.294 0.974,3.384 0.188,0.298 0.45,0.659 0.787,1.084 0.337,0.426 1.027,0.822 2.07,1.189 0.819,0.277 1.779,0.434 2.885,0.469 0.645,0.004 1.348,-0.114 2.109,-0.355 0.76,-0.24 1.5,-0.62 2.222,-1.139 0.488,-0.351 0.917,-0.768 1.289,-1.251 0.284,-0.458 0.504,-0.859 0.657,-1.204 0.154,-0.345 0.27,-0.726 0.345,-1.14 0.113,-0.731 0.121,-1.413 0.024,-2.048 -0.095,-0.633 -0.348,-1.272 -0.756,-1.917 -0.423,-0.67 -0.947,-1.23 -1.571,-1.683 -0.625,-0.452 -1.228,-0.739 -1.813,-0.861 -0.747,-0.219 -1.413,-0.336 -1.996,-0.348 -0.583,-0.013 -1.255,0.073 -2.017,0.26 z m -0.208,4.966 c 0.356,-0.402 0.938,-0.604 1.747,-0.609 0.809,-0.004 1.377,0.092 1.704,0.29 0.265,0.097 0.485,0.283 0.656,0.555 0.095,0.149 0.153,0.323 0.178,0.522 0.033,0.373 -0.102,0.668 -0.404,0.886 -0.209,0.15 -0.451,0.261 -0.727,0.333 -0.276,0.073 -0.666,0.137 -1.172,0.194 -0.504,0.057 -0.995,0.004 -1.47,-0.16 -0.475,-0.163 -0.791,-0.476 -0.95,-0.939 -0.047,-0.183 -0.048,-0.345 -0.002,-0.486 0.046,-0.141 0.193,-0.337 0.44,-0.586 z M 5.306,-12.705 c 0.354,0.68 0.961,1.108 1.821,1.283 0.316,0.052 0.751,0.059 1.309,0.02 0.557,-0.038 1.02,-0.166 1.387,-0.384 0.098,-0.057 0.256,-0.186 0.475,-0.382 0.226,-0.305 0.398,-0.544 0.517,-0.717 0.119,-0.173 0.213,-0.374 0.286,-0.605 0.073,-0.231 0.117,-0.377 0.134,-0.437 0.016,-0.062 0.046,-0.173 0.09,-0.336 0.097,-0.058 0.309,-0.114 0.633,-0.17 0.324,-0.054 0.713,-0.062 1.166,-0.022 0.453,0.04 0.75,0.07 0.889,0.09 0.438,-0.02 0.903,-0.174 1.393,-0.465 0.171,-0.101 0.283,-0.21 0.335,-0.326 0.052,-0.116 0.098,-0.289 0.139,-0.518 0.132,-0.488 0.186,-0.999 0.165,-1.534 -0.021,-0.226 -0.098,-0.497 -0.23,-0.813 -0.131,-0.315 -0.226,-0.558 -0.283,-0.73 0.073,-0.043 0.216,-0.093 0.427,-0.149 0.211,-0.057 0.367,-0.081 0.468,-0.072 0.101,0.009 0.206,-0.003 0.318,-0.035 0.112,-0.031 0.206,-0.036 0.282,-0.012 0.327,0.012 0.639,0.041 0.935,0.088 0.297,0.047 0.607,0.197 0.931,0.45 0.423,0.195 0.729,0.338 0.921,0.429 0.192,0.093 0.48,0.076 0.864,-0.048 0.444,-0.195 0.804,-0.475 1.077,-0.842 0.274,-0.368 0.403,-0.751 0.388,-1.153 l -0.07,-0.779 c -0.004,-0.134 -0.066,-0.312 -0.181,-0.534 -0.115,-0.223 -0.195,-0.406 -0.238,-0.551 -0.149,-0.288 -0.353,-0.51 -0.61,-0.666 -0.257,-0.155 -0.605,-0.3 -1.044,-0.434 -0.438,-0.134 -0.903,-0.244 -1.396,-0.329 -0.354,-0.064 -0.745,-0.106 -1.173,-0.127 -0.264,-0.015 -0.587,-0.036 -0.972,-0.067 -0.384,-0.029 -0.726,-0.04 -1.027,-0.033 -0.301,0.007 -0.625,0.062 -0.972,0.165 -0.348,0.103 -0.664,0.204 -0.948,0.303 -0.285,0.101 -0.535,0.206 -0.75,0.316 -0.215,0.11 -0.421,0.223 -0.617,0.339 -0.344,0.203 -0.631,0.467 -0.863,0.792 -0.232,0.325 -0.454,0.807 -0.667,1.446 -0.057,0.137 -0.035,0.456 0.067,0.961 0.102,0.504 0.115,0.777 0.042,0.821 -0.172,0.101 -0.56,0.28 -1.165,0.534 -0.605,0.255 -1.017,0.448 -1.238,0.578 l -0.764,-0.266 c -0.182,-0.166 -0.422,-0.272 -0.719,-0.318 -0.296,-0.047 -0.483,-0.082 -0.559,-0.106 -1.04,-0.274 -1.942,-0.467 -2.705,-0.58 -0.765,-0.112 -1.505,-0.179 -2.221,-0.2 -1.382,-0.072 -2.288,-0.118 -2.716,-0.138 -1.067,-0.019 -2.07,0.027 -3.007,0.136 l -0.8,0.217 c -0.347,0.136 -0.58,0.241 -0.703,0.314 -0.123,0.072 -0.219,0.163 -0.291,0.274 l -0.429,0.561 c -0.065,0.244 -0.131,0.471 -0.199,0.681 -0.066,0.211 -0.111,0.357 -0.132,0.438 -0.055,0.204 -0.074,0.351 -0.058,0.444 l 0.114,0.498 c 0.108,0.517 0.196,0.841 0.264,0.971 0.109,0.209 0.376,0.445 0.8,0.707 l 0.458,0.14 c 0.038,0.012 0.211,0.037 0.521,0.076 0.309,0.04 0.526,0.057 0.652,0.051 0.288,0.001 0.534,-0.033 0.739,-0.103 0.204,-0.07 0.355,-0.134 0.453,-0.192 l 0.781,-0.718 c 0.207,-0.156 0.558,-0.236 1.054,-0.239 0.496,-0.002 0.976,0.013 1.442,0.046 l 2.892,0.29 c 0.378,0.05 0.703,0.105 0.976,0.166 0.273,0.062 0.517,0.148 0.735,0.258 0.046,0.212 0.096,0.371 0.151,0.476 0.144,0.461 0.229,0.719 0.256,0.771 z M 49.791,-15.3 c -0.034,-0.348 -0.094,-0.617 -0.18,-0.805 -0.074,-0.161 -0.21,-0.323 -0.409,-0.486 -0.212,-0.256 -0.599,-0.387 -1.164,-0.393 -0.162,-0.015 -0.388,0.003 -0.677,0.053 -0.69,0.127 -1.08,0.196 -1.168,0.209 -0.088,0.012 -0.452,0.068 -1.092,0.169 -0.377,0.062 -0.735,0.065 -1.073,0.009 -0.601,-0.087 -1.186,-0.173 -1.755,-0.26 -0.57,-0.086 -0.898,-0.19 -0.985,-0.311 -0.223,-0.283 -0.283,-0.535 -0.181,-0.754 0.102,-0.219 0.247,-0.395 0.438,-0.528 0.189,-0.131 0.365,-0.239 0.529,-0.325 0.163,-0.085 0.334,-0.173 0.51,-0.265 0.278,-0.144 0.574,-0.281 0.888,-0.412 0.315,-0.131 0.632,-0.237 0.953,-0.321 0.32,-0.084 0.607,-0.191 0.859,-0.322 0.503,-0.262 0.848,-0.533 1.032,-0.812 0.185,-0.279 0.267,-0.645 0.246,-1.1 -0.097,-0.416 -0.182,-0.705 -0.256,-0.865 -0.099,-0.216 -0.259,-0.465 -0.482,-0.748 -0.571,-0.634 -1.283,-0.896 -2.137,-0.785 -0.59,0.074 -1.426,0.393 -2.51,0.957 -0.139,0.038 -0.346,0.13 -0.623,0.274 -0.832,0.433 -1.608,0.986 -2.329,1.661 -0.722,0.674 -1.209,1.244 -1.464,1.71 -0.281,0.411 -0.483,0.907 -0.607,1.487 -0.124,0.581 -0.132,1.109 -0.024,1.585 0.109,0.476 0.243,0.889 0.403,1.238 0.16,0.349 0.388,0.679 0.686,0.99 0.298,0.311 0.665,0.602 1.102,0.875 0.311,0.203 0.736,0.415 1.272,0.635 0.313,0.137 0.682,0.261 1.107,0.373 0.25,0.069 0.645,0.147 1.183,0.233 1.303,0.187 1.972,0.288 2.01,0.301 0.688,0.075 1.579,0.078 2.671,0.009 0.062,0 0.295,-0.054 0.697,-0.164 0.403,-0.109 0.692,-0.21 0.868,-0.302 0.781,-0.406 1.306,-0.928 1.576,-1.567 0.101,-0.187 0.153,-0.347 0.154,-0.48 0.002,-0.134 -0.021,-0.389 -0.068,-0.763 z M 23.752,-33.079 c 0.112,-0.109 0.298,-0.218 0.559,-0.324 0.393,-0.161 0.939,-0.145 1.64,0.049 l 1.567,0.223 2.795,0.634 c 0.162,0.03 0.519,0.187 1.072,0.473 0.181,0.087 0.458,0.23 0.83,0.43 0.5,-0.365 1.421,-0.871 2.765,-1.517 1.344,-0.647 2.449,-1.147 3.312,-1.5 0.629,-0.257 1.33,-0.561 2.105,-0.91 0.776,-0.349 1.359,-0.604 1.752,-0.765 0.576,-0.236 1.107,-0.47 1.594,-0.702 0.489,-0.231 0.976,-0.462 1.463,-0.694 0.601,-0.247 1.145,-0.405 1.63,-0.475 0.55,-0.226 1.392,-0.474 2.525,-0.745 1.133,-0.273 2.055,-0.426 2.763,-0.46 0.709,-0.033 1.377,-0.034 2.003,-0.003 0.628,0.032 1.179,0.126 1.657,0.283 0.295,0.071 0.588,0.175 0.878,0.313 0.507,0.24 0.881,0.488 1.123,0.741 l 0.654,0.693 c 0.381,0.389 0.611,0.823 0.694,1.302 0.06,0.168 0.09,0.355 0.09,0.563 0,0.209 -10e-4,0.394 -0.003,0.555 -0.002,0.161 -0.042,0.322 -0.12,0.481 -0.077,0.16 -0.148,0.317 -0.213,0.472 -0.36,0.5 -0.789,0.851 -1.286,1.055 -0.132,0.054 -0.305,0.093 -0.521,0.117 -0.217,0.025 -0.404,0.029 -0.559,0.013 -0.156,-0.016 -0.32,-0.054 -0.49,-0.112 -0.357,-0.238 -0.668,-0.415 -0.935,-0.53 -0.267,-0.115 -0.591,-0.223 -0.972,-0.323 -0.381,-0.1 -0.68,-0.178 -0.895,-0.234 -0.215,-0.056 -0.452,-0.088 -0.71,-0.094 -0.257,-0.006 -0.519,-0.003 -0.785,0.009 -0.312,-0.032 -0.638,-0.043 -0.98,-0.031 -0.341,0.011 -0.608,0.041 -0.802,0.088 -1.146,0.149 -1.908,0.285 -2.285,0.407 -0.377,0.122 -1.285,0.478 -2.724,1.067 -0.089,0.005 -0.296,0.074 -0.624,0.208 -0.327,0.134 -0.595,0.244 -0.804,0.329 l -0.786,0.322 c -0.262,0.107 -0.523,0.214 -0.785,0.322 -0.189,0.141 -0.39,0.271 -0.602,0.39 -0.213,0.119 -0.49,0.249 -0.83,0.388 -0.34,0.139 -0.602,0.247 -0.785,0.321 l -4.476,1.833 c -0.576,0.235 -0.885,0.378 -0.927,0.427 0.019,0.473 0.002,0.8 -0.053,0.983 -0.098,0.392 -0.263,0.812 -0.492,1.258 l -0.629,0.882 c -0.159,0.225 -0.445,0.455 -0.857,0.687 -0.411,0.233 -0.853,0.446 -1.324,0.639 l -1.174,0.24 c -0.293,0.024 -0.562,0.046 -0.81,0.068 -0.247,0.021 -0.452,0.016 -0.613,-0.014 -0.706,-0.127 -1.278,-0.421 -1.714,-0.884 -0.225,-0.292 -0.403,-0.619 -0.534,-0.982 -0.056,-0.073 -0.102,-0.158 -0.137,-0.256 -0.035,-0.098 -0.058,-0.16 -0.068,-0.189 -0.08,-0.223 -0.131,-0.571 -0.15,-1.043 -0.02,-0.473 0.026,-0.844 0.139,-1.114 0.048,-0.116 0.216,-0.36 0.502,-0.734 -0.203,0.019 -0.387,0.03 -0.551,0.033 -0.164,0.003 -0.421,-0.02 -0.768,-0.069 -0.152,-0.003 -0.274,-0.009 -0.368,-0.018 -0.092,-0.01 -0.246,-0.06 -0.458,-0.149 -0.213,-0.089 -0.406,-0.21 -0.581,-0.363 -0.33,-0.249 -0.575,-0.597 -0.737,-1.044 -0.12,-0.335 -0.157,-0.688 -0.111,-1.059 0.047,-0.372 0.171,-0.758 0.371,-1.161 0.201,-0.402 0.383,-0.669 0.545,-0.8 z m 60.472,7.931 c 0.023,-0.349 0.007,-0.624 -0.047,-0.825 -0.047,-0.172 -0.155,-0.357 -0.324,-0.554 -0.166,-0.292 -0.526,-0.493 -1.081,-0.603 -0.158,-0.045 -0.383,-0.07 -0.676,-0.074 -0.701,-0.003 -1.096,-0.007 -1.184,-0.01 -0.089,-0.005 -0.457,-0.016 -1.103,-0.037 -0.382,-0.008 -0.735,-0.071 -1.058,-0.189 -0.578,-0.197 -1.14,-0.39 -1.687,-0.581 -0.548,-0.191 -0.854,-0.353 -0.919,-0.489 -0.174,-0.32 -0.192,-0.579 -0.056,-0.776 0.137,-0.197 0.309,-0.343 0.517,-0.438 0.208,-0.094 0.399,-0.169 0.575,-0.222 0.175,-0.054 0.357,-0.109 0.545,-0.167 0.297,-0.091 0.61,-0.172 0.942,-0.242 0.33,-0.07 0.661,-0.117 0.99,-0.14 0.329,-0.022 0.629,-0.075 0.898,-0.157 0.539,-0.165 0.923,-0.368 1.15,-0.608 0.226,-0.241 0.366,-0.587 0.42,-1.039 -0.027,-0.427 -0.064,-0.727 -0.111,-0.899 -0.061,-0.231 -0.179,-0.505 -0.353,-0.826 -0.459,-0.73 -1.118,-1.119 -1.976,-1.168 -0.593,-0.036 -1.469,0.122 -2.628,0.477 -0.143,0.012 -0.362,0.064 -0.658,0.155 -0.89,0.272 -1.744,0.673 -2.565,1.204 -0.819,0.53 -1.393,1.001 -1.72,1.412 -0.342,0.354 -0.622,0.805 -0.84,1.353 -0.216,0.549 -0.31,1.068 -0.281,1.556 0.03,0.489 0.095,0.92 0.195,1.294 0.101,0.374 0.272,0.742 0.515,1.103 0.243,0.361 0.557,0.716 0.943,1.064 0.273,0.259 0.656,0.546 1.15,0.862 0.285,0.193 0.628,0.383 1.029,0.572 0.235,0.114 0.611,0.264 1.127,0.449 1.252,0.425 1.895,0.649 1.93,0.669 0.666,0.201 1.542,0.369 2.629,0.502 0.061,0.013 0.299,0.003 0.713,-0.031 0.414,-0.033 0.715,-0.079 0.904,-0.136 0.836,-0.256 1.437,-0.673 1.807,-1.252 0.131,-0.165 0.208,-0.313 0.231,-0.445 0.023,-0.131 0.042,-0.386 0.057,-0.764 z M 60.143,-49.384 c -0.464,0.114 -0.817,0.248 -1.057,0.399 -0.24,0.151 -0.388,0.234 -0.443,0.247 -0.227,0.148 -0.424,0.366 -0.593,0.652 -0.113,0.274 -0.221,0.507 -0.323,0.701 -0.101,0.194 -0.183,0.483 -0.244,0.866 -0.06,0.384 -0.069,0.677 -0.024,0.881 0.056,0.262 0.137,0.472 0.243,0.63 0.106,0.158 0.293,0.388 0.559,0.691 0.148,0.148 0.228,0.251 0.24,0.309 0.284,0.114 0.504,0.199 0.66,0.252 0.344,0.131 0.588,0.193 0.731,0.189 0.143,-0.005 0.275,0.009 0.397,0.04 0.386,0.059 0.635,0.074 0.744,0.047 l 0.778,-0.192 c 0.3,-0.074 0.679,-0.09 1.133,-0.048 0.456,0.041 0.913,0.128 1.373,0.26 0.92,0.264 1.841,0.528 2.762,0.793 l 1.267,0.47 -0.18,0.367 c 0.025,0.116 0.024,0.24 -0.006,0.37 -0.029,0.13 -0.072,0.263 -0.129,0.4 0.095,0.437 0.189,0.775 0.283,1.012 0.096,0.238 0.289,0.566 0.58,0.985 0.081,0.103 0.269,0.241 0.565,0.414 0.095,0.037 0.24,0.109 0.435,0.215 l 0.987,0.171 h 1.122 c 0.546,-0.135 0.965,-0.261 1.256,-0.378 0.291,-0.119 0.633,-0.333 1.026,-0.645 0.09,-0.114 0.16,-0.192 0.208,-0.235 0.187,-0.199 0.308,-0.306 0.363,-0.319 0.109,-0.027 0.33,-0.005 0.662,0.067 0.332,0.072 0.541,0.112 0.63,0.121 l 1.86,0.417 1.188,0.306 c 0.244,0.063 0.561,0.13 0.95,0.203 0.391,0.073 0.743,0.139 1.058,0.2 0.316,0.06 0.563,0.106 0.743,0.14 0.179,0.032 0.365,0.024 0.556,-0.023 0.328,-0.081 0.645,-0.343 0.952,-0.786 0.641,-0.895 0.82,-1.66 0.538,-2.297 -0.117,-0.278 -0.317,-0.535 -0.598,-0.773 -0.281,-0.238 -0.623,-0.414 -1.022,-0.532 -0.399,-0.116 -0.737,-0.217 -1.014,-0.302 -0.278,-0.085 -0.7,-0.204 -1.265,-0.356 -0.565,-0.153 -1.041,-0.258 -1.428,-0.316 l -0.517,-0.195 c 0.23,-0.271 0.403,-0.467 0.521,-0.588 0.415,-0.471 0.651,-0.813 0.705,-1.026 0.055,-0.213 0.105,-0.417 0.149,-0.612 0.044,-0.195 0.046,-0.38 0.009,-0.554 -0.107,-0.496 -0.254,-0.843 -0.442,-1.043 -0.368,-0.369 -0.622,-0.583 -0.764,-0.64 -0.142,-0.057 -0.388,-0.096 -0.738,-0.118 -0.349,-0.02 -0.552,-0.025 -0.607,-0.011 -0.169,0.011 -0.419,0.057 -0.747,0.138 -0.382,0.094 -0.666,0.179 -0.85,0.255 -0.673,0.35 -1.178,0.612 -1.514,0.787 l -1.443,0.908 c -0.152,0.099 -0.484,0.288 -0.999,0.568 -0.082,0.02 -0.199,0.08 -0.35,0.178 l -4.561,-1.731 c -0.555,-0.17 -1.461,-0.499 -2.718,-0.988 -1.068,-0.412 -2.032,-0.681 -2.894,-0.807 -0.033,-0.022 -0.125,-0.045 -0.274,-0.07 -0.149,-0.024 -0.312,-0.046 -0.489,-0.064 z m 42.841,12.168 c -0.289,-0.047 -0.69,-0.085 -1.204,-0.114 -0.513,-0.029 -1.061,10e-4 -1.644,0.088 -0.723,0.108 -1.297,0.255 -1.726,0.44 -1.08,0.404 -1.877,1.119 -2.393,2.148 -0.515,1.029 -0.687,2.194 -0.516,3.497 0.047,0.355 0.134,0.802 0.262,1.342 0.128,0.54 0.585,1.219 1.373,2.037 0.621,0.631 1.42,1.221 2.399,1.769 0.578,0.306 1.258,0.528 2.041,0.668 0.784,0.139 1.605,0.144 2.465,0.015 0.584,-0.087 1.141,-0.261 1.673,-0.522 0.445,-0.278 0.807,-0.536 1.087,-0.775 0.28,-0.238 0.54,-0.526 0.778,-0.863 0.402,-0.604 0.69,-1.214 0.863,-1.829 0.175,-0.614 0.211,-1.307 0.109,-2.077 -0.105,-0.8 -0.346,-1.548 -0.721,-2.247 -0.376,-0.699 -0.8,-1.239 -1.275,-1.621 -0.582,-0.547 -1.132,-0.963 -1.652,-1.247 -0.517,-0.285 -1.158,-0.521 -1.919,-0.709 z m -2.228,4.366 c 0.485,-0.194 1.091,-0.104 1.82,0.27 0.728,0.374 1.2,0.726 1.413,1.056 0.198,0.212 0.319,0.482 0.361,0.807 0.024,0.178 0.005,0.362 -0.054,0.552 -0.124,0.35 -0.366,0.553 -0.727,0.607 -0.25,0.037 -0.514,0.024 -0.791,-0.04 -0.278,-0.064 -0.655,-0.188 -1.132,-0.374 -0.477,-0.185 -0.896,-0.462 -1.256,-0.831 -0.36,-0.368 -0.516,-0.798 -0.468,-1.289 0.032,-0.186 0.099,-0.331 0.197,-0.436 0.1,-0.106 0.312,-0.213 0.637,-0.322 z m -9.622,-19.608 c -0.503,0.047 -0.941,0.193 -1.315,0.438 l -0.539,0.636 -0.162,0.6 c -0.054,0.365 -0.069,0.696 -0.045,0.995 0.046,0.566 0.344,1.093 0.89,1.583 0.757,0.649 1.233,1.138 1.429,1.465 0.195,0.327 0.326,0.63 0.39,0.909 0.066,0.279 0.123,0.716 0.172,1.312 0.039,0.477 0.174,1.08 0.402,1.809 0.038,0.116 0.098,0.253 0.182,0.41 0.083,0.158 0.169,0.263 0.258,0.315 0.212,0.189 0.393,0.337 0.543,0.444 0.148,0.106 0.309,0.181 0.482,0.225 0.173,0.044 0.413,0.052 0.72,0.023 0.335,-0.031 0.584,-0.085 0.746,-0.16 l 1.025,-0.366 c 0.133,-0.102 0.225,-0.186 0.276,-0.25 0.207,-0.23 0.346,-0.498 0.419,-0.805 0.073,-0.307 0.096,-0.639 0.066,-0.997 -0.019,-0.238 -0.056,-0.437 -0.112,-0.597 -0.055,-0.161 -0.12,-0.342 -0.192,-0.545 -0.073,-0.203 -0.328,-0.72 -0.761,-1.55 -0.067,-0.144 -0.184,-0.358 -0.348,-0.643 0.14,-0.013 0.493,0.089 1.059,0.306 0.567,0.218 1.156,0.448 1.767,0.691 1.214,0.728 2.184,1.319 2.911,1.777 0.727,0.458 1.287,0.863 1.682,1.216 0.244,0.218 0.487,0.435 0.73,0.653 0.121,0.109 0.339,0.193 0.654,0.254 0.279,-0.026 0.558,-0.052 0.838,-0.078 0.446,-0.042 0.801,-0.18 1.063,-0.415 l 0.512,-0.453 c 0.155,-0.165 0.248,-0.398 0.28,-0.701 0.064,-0.246 0.089,-0.459 0.074,-0.637 -0.022,-0.268 -0.082,-0.488 -0.18,-0.659 -0.242,-0.548 -0.663,-1.049 -1.263,-1.503 -0.713,-0.444 -1.158,-0.733 -1.338,-0.866 -1.395,-0.891 -2.943,-1.737 -4.641,-2.538 -1.55,-0.726 -3.109,-1.361 -4.673,-1.906 -0.465,-0.167 -1.114,-0.287 -1.951,-0.358 -0.836,-0.072 -1.519,-0.083 -2.05,-0.034"
       style="fill:#231f20;fill-opacity:1;fill-rule:nonzero;stroke:none"
       transform="matrix(1.3333333,0,0,-1.3333333,159.32267,523.85733)" />
    <path
       id="path7"
       d="m 0,0 c -0.272,-0.115 -0.655,-0.248 -1.149,-0.399 -0.494,-0.152 -1.035,-0.254 -1.621,-0.309 -0.727,-0.068 -1.318,-0.063 -1.775,0.014 -1.136,0.135 -2.064,0.641 -2.784,1.519 -0.719,0.878 -1.133,1.973 -1.24,3.284 -0.029,0.358 -0.039,0.814 -0.028,1.37 0.011,0.557 0.313,1.328 0.908,2.313 0.472,0.766 1.126,1.532 1.964,2.301 0.499,0.436 1.115,0.816 1.849,1.14 0.733,0.324 1.532,0.526 2.398,0.606 0.587,0.055 1.167,0.019 1.741,-0.107 C 0.754,11.567 1.161,11.403 1.484,11.238 1.807,11.073 2.121,10.854 2.425,10.583 2.944,10.091 3.353,9.566 3.652,9.009 3.951,8.451 4.132,7.786 4.196,7.01 4.262,6.206 4.186,5.419 3.967,4.648 3.749,3.878 3.449,3.249 3.066,2.763 2.615,2.09 2.167,1.553 1.721,1.151 1.275,0.75 0.702,0.366 0,0 Z m -3.092,3.719 c 0.514,-0.072 1.085,0.162 1.716,0.701 0.631,0.539 1.016,0.995 1.155,1.368 0.148,0.254 0.209,0.545 0.182,0.873 -0.015,0.178 -0.072,0.353 -0.17,0.524 C -0.404,7.497 -0.682,7.636 -1.045,7.602 -1.297,7.579 -1.551,7.503 -1.808,7.374 -2.065,7.244 -2.406,7.033 -2.832,6.738 -3.258,6.443 -3.608,6.073 -3.881,5.627 -4.154,5.181 -4.215,4.725 -4.064,4.258 -3.994,4.085 -3.898,3.959 -3.78,3.88 -3.66,3.801 -3.431,3.747 -3.092,3.719 Z m -4.53,-21.852 c 0.106,-0.377 0.347,-0.703 0.723,-0.979 0.158,-0.127 0.479,-0.306 0.962,-0.535 0.028,0.004 0.333,-0.056 0.916,-0.18 0.056,0.009 0.173,-0.019 0.351,-0.083 l 2.099,-0.139 c 0.309,0.017 1.052,0.015 2.23,-0.005 1.178,-0.02 2.128,0.025 2.849,0.133 l 0.625,0.094 c 0.389,0.058 0.789,0.133 1.202,0.225 0.412,0.092 0.717,0.198 0.913,0.318 0.198,0.12 0.334,0.216 0.409,0.287 0.199,0.212 0.379,0.45 0.542,0.716 0.164,0.266 0.248,0.543 0.252,0.831 0.005,0.287 -0.022,0.653 -0.081,1.097 -0.019,0.148 -0.077,0.313 -0.171,0.495 -0.095,0.182 -0.195,0.356 -0.302,0.521 l -1.183,0.593 c -0.23,0.026 -0.511,0.014 -0.844,-0.036 -0.334,-0.05 -0.584,-0.088 -0.75,-0.112 l -0.958,-0.144 -0.916,-0.138 c -0.25,-0.037 -0.544,-0.066 -0.881,-0.085 -0.336,-0.021 -0.818,-0.018 -1.444,0.009 l 0.727,0.924 0.691,0.874 0.776,0.886 c 0.171,0.207 0.316,0.395 0.434,0.564 0.236,0.367 0.356,0.747 0.36,1.141 0.021,0.274 -0.031,0.554 -0.153,0.838 -0.122,0.283 -0.23,0.463 -0.325,0.539 l -0.79,0.516 c -0.127,0.102 -0.25,0.174 -0.369,0.217 -0.118,0.042 -0.236,0.07 -0.35,0.083 -0.294,0.077 -0.591,0.131 -0.892,0.161 -0.301,0.03 -0.539,0.062 -0.714,0.097 l -1.635,0.162 c 0.127,0.109 0.314,0.304 0.56,0.583 0.247,0.278 0.457,0.506 0.632,0.683 0.175,0.178 0.271,0.358 0.29,0.541 0.018,0.184 0.002,0.469 -0.049,0.854 -0.046,0.356 -0.167,0.677 -0.361,0.965 -0.193,0.288 -0.412,0.497 -0.656,0.627 -0.243,0.129 -0.553,0.226 -0.93,0.29 L -4.749,-3.842 C -5.023,-3.913 -5.245,-3.999 -5.416,-4.1 -5.586,-4.202 -5.768,-4.387 -5.958,-4.657 l -1.241,-1.862 -0.62,-0.772 -0.686,-0.919 -0.484,-0.842 c -0.227,-0.639 -0.308,-1.209 -0.241,-1.713 0.035,-0.266 0.073,-0.449 0.114,-0.548 0.042,-0.1 0.065,-0.165 0.069,-0.194 0.146,-0.25 0.314,-0.458 0.507,-0.626 0.192,-0.168 0.42,-0.292 0.686,-0.373 0.229,-0.026 0.467,-0.058 0.714,-0.097 0.245,-0.038 0.511,-0.066 0.796,-0.084 0.285,-0.018 0.528,-0.035 0.729,-0.05 0.2,-0.015 0.392,-0.024 0.576,-0.027 0.185,-0.002 0.285,-0.062 0.3,-0.181 0.009,-0.059 -0.113,-0.213 -0.363,-0.462 -0.076,-0.072 -0.201,-0.196 -0.376,-0.373 l -0.93,-1 c -0.298,-0.317 -0.509,-0.545 -0.632,-0.684 -0.246,-0.278 -0.455,-0.627 -0.626,-1.045 -0.069,-0.131 -0.098,-0.339 -0.088,-0.625 0.009,-0.285 0.017,-0.458 0.025,-0.517 0.064,-0.262 0.099,-0.423 0.107,-0.482 z M 23.854,15.2 c 0.164,-0.304 0.263,-0.558 0.297,-0.765 0.03,-0.176 0.008,-0.393 -0.063,-0.649 -0.029,-0.34 -0.271,-0.689 -0.724,-1.047 C 23.241,12.624 23.049,12.497 22.787,12.357 22.158,12.026 21.805,11.838 21.726,11.794 21.649,11.748 21.323,11.566 20.75,11.245 20.411,11.06 20.12,10.838 19.878,10.58 19.439,10.133 19.013,9.697 18.6,9.27 18.187,8.843 17.978,8.553 17.974,8.4 17.95,8.031 18.04,7.79 18.243,7.676 c 0.204,-0.113 0.419,-0.164 0.646,-0.152 0.225,0.013 0.428,0.036 0.607,0.07 0.18,0.033 0.366,0.068 0.559,0.104 0.304,0.057 0.619,0.132 0.945,0.223 0.327,0.093 0.643,0.205 0.948,0.338 0.306,0.134 0.596,0.226 0.872,0.278 0.552,0.104 0.98,0.101 1.283,-0.009 0.303,-0.11 0.571,-0.355 0.805,-0.737 0.151,-0.396 0.241,-0.683 0.27,-0.859 C 25.217,6.695 25.225,6.394 25.2,6.024 25.088,5.153 24.656,4.495 23.904,4.05 23.386,3.74 22.533,3.473 21.345,3.25 21.213,3.194 20.995,3.139 20.691,3.082 19.779,2.91 18.846,2.871 17.891,2.965 16.936,3.058 16.228,3.213 15.765,3.43 15.311,3.587 14.874,3.862 14.454,4.254 14.033,4.645 13.735,5.067 13.562,5.52 c -0.176,0.454 -0.294,0.871 -0.357,1.255 -0.064,0.382 -0.06,0.793 0.009,1.231 0.07,0.438 0.207,0.904 0.41,1.398 0.139,0.36 0.366,0.798 0.68,1.312 0.177,0.307 0.407,0.638 0.689,0.995 0.164,0.213 0.441,0.523 0.829,0.93 0.95,0.969 1.436,1.47 1.459,1.504 0.517,0.492 1.236,1.053 2.156,1.681 0.051,0.041 0.269,0.142 0.655,0.305 0.385,0.165 0.675,0.264 0.868,0.301 0.856,0.16 1.569,0.067 2.139,-0.281 0.185,-0.087 0.315,-0.185 0.39,-0.291 0.075,-0.108 0.197,-0.328 0.365,-0.66 z M 12.98,-18.582 c -0.465,-0.114 -0.836,-0.159 -1.115,-0.136 -0.278,0.024 -0.444,0.028 -0.499,0.015 -0.265,0.027 -0.532,0.13 -0.801,0.309 -0.214,0.193 -0.407,0.353 -0.579,0.479 -0.171,0.127 -0.363,0.348 -0.575,0.664 -0.212,0.316 -0.34,0.576 -0.385,0.781 -0.056,0.261 -0.07,0.489 -0.039,0.68 0.031,0.191 0.103,0.486 0.219,0.883 0.071,0.202 0.1,0.331 0.088,0.389 0.208,0.236 0.371,0.414 0.489,0.535 0.256,0.278 0.45,0.448 0.58,0.511 0.13,0.063 0.243,0.137 0.34,0.223 0.323,0.232 0.54,0.362 0.649,0.389 l 0.779,0.192 c 0.3,0.074 0.647,0.236 1.039,0.486 0.392,0.25 0.767,0.542 1.126,0.876 0.719,0.668 1.438,1.336 2.157,2.004 l 0.945,1.015 -0.312,0.245 c -0.025,0.117 -0.078,0.227 -0.158,0.33 -0.08,0.104 -0.173,0.203 -0.28,0.3 -0.095,0.436 -0.148,0.784 -0.161,1.041 -0.012,0.258 0.027,0.644 0.116,1.158 0.03,0.129 0.142,0.341 0.337,0.634 0.07,0.079 0.171,0.212 0.303,0.398 l 0.817,0.614 1.008,0.525 c 0.547,0.135 0.975,0.217 1.284,0.248 0.311,0.029 0.706,-0.003 1.187,-0.1 0.129,-0.06 0.223,-0.099 0.284,-0.114 0.251,-0.092 0.403,-0.131 0.458,-0.118 0.109,0.027 0.298,0.15 0.567,0.37 0.269,0.22 0.441,0.355 0.517,0.404 l 1.501,1.244 0.941,0.831 c 0.194,0.17 0.45,0.379 0.771,0.627 0.321,0.247 0.61,0.472 0.868,0.674 0.26,0.202 0.462,0.359 0.61,0.472 0.148,0.114 0.319,0.193 0.509,0.241 0.329,0.08 0.721,-0.007 1.179,-0.262 0.944,-0.505 1.42,-1.109 1.428,-1.812 0.009,-0.305 -0.064,-0.63 -0.22,-0.975 -0.155,-0.345 -0.389,-0.664 -0.7,-0.955 -0.311,-0.292 -0.574,-0.541 -0.787,-0.747 -0.215,-0.206 -0.545,-0.51 -0.99,-0.911 -0.445,-0.402 -0.831,-0.719 -1.154,-0.951 l -0.385,-0.417 c 0.319,-0.137 0.554,-0.232 0.71,-0.286 0.567,-0.229 0.919,-0.426 1.055,-0.592 0.137,-0.165 0.266,-0.326 0.386,-0.481 0.119,-0.154 0.198,-0.319 0.236,-0.494 0.107,-0.495 0.118,-0.876 0.031,-1.143 -0.178,-0.504 -0.319,-0.815 -0.423,-0.933 -0.104,-0.118 -0.31,-0.268 -0.615,-0.451 -0.306,-0.182 -0.486,-0.281 -0.541,-0.294 -0.157,-0.069 -0.4,-0.144 -0.728,-0.225 -0.382,-0.094 -0.672,-0.15 -0.87,-0.168 -0.748,0 -1.31,0 -1.683,-0.001 l -1.671,0.142 c -0.176,0.018 -0.554,0.032 -1.131,0.043 -0.082,-0.02 -0.212,-0.021 -0.388,-0.003 l -3.388,-3.688 c -0.429,-0.413 -1.108,-1.133 -2.037,-2.16 -0.79,-0.869 -1.546,-1.562 -2.269,-2.077 -0.021,-0.036 -0.094,-0.1 -0.218,-0.192 -0.123,-0.092 -0.261,-0.187 -0.412,-0.286 z m 56.809,13.67 c -0.301,0.004 -0.78,-0.127 -1.434,-0.396 -0.236,-0.096 -0.492,-0.345 -0.768,-0.746 -0.158,-0.226 -0.356,-0.595 -0.592,-1.108 l -0.961,-1.835 -0.968,-1.693 c -0.181,-0.331 -0.473,-0.771 -0.876,-1.32 -0.62,-0.863 -1.19,-1.576 -1.708,-2.14 -0.652,-0.524 -1.291,-1.041 -1.918,-1.555 -0.116,-0.175 -0.218,-0.393 -0.305,-0.653 -0.032,-0.077 -0.058,-0.216 -0.076,-0.415 0.035,-0.178 0.097,-0.417 0.19,-0.715 0.092,-0.299 0.159,-0.504 0.199,-0.615 0.113,-0.146 0.224,-0.309 0.334,-0.488 0.109,-0.18 0.21,-0.315 0.302,-0.405 0.34,-0.277 0.673,-0.47 0.997,-0.577 0.324,-0.107 0.708,-0.07 1.153,0.112 0.183,0.075 0.342,0.156 0.476,0.242 0.134,0.087 0.256,0.186 0.367,0.295 l 0.713,0.772 1.127,1.375 c 1.686,2.323 2.86,4.005 3.522,5.045 0.662,1.04 1.26,2.07 1.794,3.089 0.155,0.32 0.257,0.602 0.305,0.845 0.047,0.244 0.058,0.441 0.034,0.591 -0.064,0.262 -0.131,0.491 -0.202,0.686 -0.06,0.168 -0.118,0.288 -0.174,0.361 -0.326,0.571 -0.837,0.987 -1.531,1.248 z m -0.408,17.236 c 0.104,0.275 0.143,0.561 0.117,0.857 -0.027,0.297 -0.09,0.568 -0.188,0.816 -0.242,0.606 -0.7,1.032 -1.377,1.278 l -0.828,0.014 C 66.913,15.236 66.727,15.167 66.546,15.086 66.34,14.992 66.1,14.867 65.827,14.711 l -0.333,-0.54 C 65.161,13.63 64.913,13.184 64.747,12.834 64.582,12.483 64.472,12.262 64.416,12.173 l -0.361,-0.7 C 63.844,11.085 63.657,10.732 63.494,10.415 63.331,10.097 63.043,9.617 62.628,8.974 L 61.84,7.74 C 61.588,7.302 61.305,6.865 60.99,6.43 60.509,5.725 60.249,5.348 60.208,5.297 59.939,4.98 59.629,4.668 59.278,4.363 58.927,4.059 58.613,3.795 58.336,3.572 L 57.457,3.028 C 56.914,2.782 56.559,2.548 56.388,2.324 56.218,2.102 56.061,1.827 55.916,1.502 55.857,1.345 55.782,1.092 55.693,0.742 c -0.09,-0.349 -0.063,-0.701 0.08,-1.059 0.076,-0.194 0.165,-0.38 0.268,-0.562 0.103,-0.18 0.21,-0.375 0.324,-0.584 0.113,-0.209 0.249,-0.358 0.407,-0.449 l 0.601,-0.361 0.706,-0.168 c 0.261,-0.044 0.483,-0.025 0.663,0.057 0.254,0.05 0.601,0.174 1.039,0.373 0.387,0.175 0.644,0.372 0.77,0.592 0.643,0.681 1.288,1.509 1.935,2.484 0.962,1.41 1.491,2.185 1.587,2.327 l 2.06,3.32 c 0.858,1.363 1.461,2.334 1.809,2.914 0.586,0.98 1.065,1.879 1.439,2.698 z m 10.263,28.92 c 0.248,-0.23 0.42,-0.437 0.515,-0.62 0.081,-0.156 0.127,-0.369 0.138,-0.636 0.076,-0.331 -0.046,-0.745 -0.365,-1.242 -0.082,-0.15 -0.225,-0.337 -0.43,-0.56 -0.492,-0.531 -0.769,-0.832 -0.83,-0.902 -0.059,-0.069 -0.311,-0.355 -0.756,-0.857 -0.263,-0.293 -0.471,-0.604 -0.621,-0.932 -0.279,-0.575 -0.548,-1.136 -0.809,-1.683 -0.26,-0.547 -0.368,-0.893 -0.326,-1.039 0.09,-0.357 0.249,-0.554 0.476,-0.591 0.227,-0.036 0.446,-0.009 0.656,0.081 0.209,0.089 0.394,0.181 0.554,0.276 0.159,0.094 0.324,0.192 0.496,0.293 0.27,0.159 0.545,0.339 0.826,0.539 0.28,0.2 0.544,0.416 0.793,0.648 0.248,0.233 0.494,0.421 0.74,0.566 0.49,0.29 0.895,0.436 1.215,0.437 0.32,0.001 0.648,-0.138 0.986,-0.417 0.264,-0.323 0.437,-0.563 0.518,-0.719 0.109,-0.21 0.208,-0.493 0.298,-0.851 0.16,-0.862 -0.048,-1.634 -0.623,-2.317 -0.396,-0.472 -1.12,-1.021 -2.175,-1.644 -0.109,-0.099 -0.298,-0.228 -0.568,-0.387 -0.809,-0.478 -1.68,-0.839 -2.611,-1.082 -0.931,-0.244 -1.649,-0.343 -2.153,-0.299 -0.477,-0.008 -0.974,0.1 -1.49,0.324 -0.518,0.225 -0.928,0.52 -1.232,0.888 -0.303,0.367 -0.543,0.722 -0.719,1.062 -0.177,0.34 -0.299,0.729 -0.367,1.168 -0.068,0.438 -0.081,0.926 -0.039,1.463 0.021,0.389 0.102,0.881 0.242,1.477 0.073,0.351 0.189,0.745 0.348,1.18 0.09,0.259 0.257,0.648 0.499,1.167 0.603,1.246 0.91,1.889 0.921,1.93 0.338,0.644 0.847,1.423 1.526,2.338 0.035,0.055 0.21,0.226 0.525,0.515 0.316,0.289 0.559,0.484 0.73,0.585 0.76,0.45 1.463,0.609 2.108,0.478 0.201,-0.018 0.354,-0.065 0.457,-0.14 0.104,-0.076 0.286,-0.242 0.547,-0.497 z M 84.11,18.081 c 0.122,-0.095 0.266,-0.087 0.432,0.024 0.12,0.079 0.225,0.238 0.317,0.475 l 0.344,0.599 0.387,0.946 c 0.06,0.181 0.112,0.375 0.156,0.58 0.045,0.207 0.026,0.352 -0.057,0.438 -0.366,0.286 -0.715,0.317 -1.048,0.095 -0.119,-0.079 -0.228,-0.205 -0.326,-0.376 -0.287,-0.297 -0.502,-0.581 -0.642,-0.851 -0.151,-0.418 -0.216,-0.814 -0.196,-1.188 0.013,-0.133 0.223,-0.38 0.633,-0.742 z m -2.964,-3.828 c -0.23,0.166 -0.461,0.364 -0.696,0.595 -0.235,0.232 -0.374,0.385 -0.419,0.462 -0.282,0.481 -0.506,0.905 -0.671,1.272 -0.164,0.365 -0.27,0.771 -0.316,1.216 -0.046,0.446 -0.05,0.832 -0.009,1.158 0.04,0.327 0.133,0.733 0.279,1.218 0.205,0.665 0.448,1.251 0.731,1.757 0.282,0.505 0.626,1.034 1.03,1.585 0.017,0.082 0.215,0.311 0.591,0.684 0.376,0.375 0.615,0.613 0.72,0.719 l 1.476,1.036 c 0.213,0.142 0.408,0.263 0.581,0.361 0.174,0.098 0.367,0.165 0.577,0.2 0.268,0.107 0.607,0.192 1.017,0.254 0.41,0.062 0.724,0.077 0.94,0.045 0.274,0.042 0.781,-0.062 1.52,-0.309 0.233,-0.057 0.583,-0.176 1.053,-0.357 0.175,-0.13 0.344,-0.263 0.508,-0.402 0.163,-0.137 0.275,-0.257 0.334,-0.358 0.179,-0.305 0.317,-0.583 0.414,-0.835 0.098,-0.252 0.146,-0.574 0.143,-0.963 -0.023,-0.58 -0.054,-0.952 -0.089,-1.118 -0.033,-0.338 -0.118,-0.73 -0.254,-1.173 -0.107,-0.495 -0.295,-1.078 -0.562,-1.75 -0.175,-0.434 -0.339,-0.861 -0.49,-1.279 -0.23,-0.682 -0.433,-1.223 -0.612,-1.624 C 88.764,16.246 88.51,15.706 88.18,15.029 87.9,14.489 87.693,14.068 87.556,13.766 87.419,13.463 87.293,13.185 87.177,12.931 86.862,12.227 86.574,11.647 86.312,11.191 86.051,10.735 85.833,10.343 85.661,10.017 85.078,8.923 84.647,8.107 84.368,7.568 83.771,6.5 83.171,5.519 82.571,4.625 L 82.089,4.093 81.011,3.48 C 80.65,3.416 80.413,3.399 80.298,3.428 l -0.607,0.018 c -0.223,0.099 -0.38,0.17 -0.472,0.214 -0.369,0.178 -0.629,0.339 -0.781,0.486 -0.151,0.145 -0.316,0.37 -0.494,0.675 -0.149,0.254 -0.24,0.633 -0.273,1.141 -0.089,0.152 -0.073,0.409 0.046,0.77 0.118,0.361 0.282,0.718 0.49,1.068 0.208,0.349 0.455,0.62 0.74,0.81 l 0.749,0.499 c 0.262,0.174 0.517,0.486 0.767,0.934 0.25,0.449 0.505,0.901 0.767,1.358 0.52,0.805 0.958,1.608 1.315,2.41 -0.271,0.067 -0.464,0.115 -0.58,0.143 -0.439,0.13 -0.713,0.23 -0.819,0.299 z m 30.266,7.651 c -0.295,-0.069 -0.734,-0.311 -1.315,-0.729 -0.209,-0.151 -0.406,-0.455 -0.591,-0.912 -0.107,-0.258 -0.221,-0.665 -0.343,-1.222 l -0.549,-2.018 -0.586,-1.882 c -0.106,-0.365 -0.298,-0.864 -0.575,-1.496 -0.423,-0.989 -0.827,-1.821 -1.213,-2.495 -0.525,-0.666 -1.039,-1.325 -1.541,-1.975 -0.077,-0.199 -0.13,-0.436 -0.159,-0.71 -0.016,-0.083 -0.011,-0.224 0.013,-0.423 0.071,-0.165 0.183,-0.382 0.336,-0.651 0.152,-0.268 0.261,-0.453 0.323,-0.552 0.141,-0.114 0.284,-0.247 0.428,-0.395 0.145,-0.149 0.272,-0.256 0.381,-0.321 0.39,-0.189 0.754,-0.297 1.093,-0.324 0.338,-0.027 0.704,0.102 1.1,0.386 0.162,0.117 0.3,0.234 0.412,0.35 0.112,0.118 0.21,0.243 0.296,0.376 l 0.531,0.923 0.809,1.61 c 1.152,2.669 1.942,4.59 2.368,5.761 0.425,1.172 0.791,2.319 1.096,3.44 0.083,0.349 0.123,0.648 0.118,0.897 -0.005,0.249 -0.035,0.443 -0.091,0.584 -0.117,0.239 -0.231,0.447 -0.341,0.62 -0.094,0.149 -0.176,0.252 -0.246,0.309 -0.438,0.479 -1.023,0.762 -1.754,0.849 z m -8.863,-3.5 c -0.395,-1.18 -0.713,-2.071 -0.953,-2.676 -0.401,-1.072 -0.873,-2.069 -1.415,-2.991 L 99.585,12.09 C 99.333,11.85 99.162,11.694 99.073,11.621 98.916,11.496 98.745,11.415 98.56,11.379 98.325,11.264 98.179,11.222 98.124,11.252 l -0.749,0.016 -0.707,0.106 c -0.28,0.149 -0.485,0.265 -0.614,0.349 -0.13,0.082 -0.262,0.22 -0.397,0.411 -0.219,0.31 -0.38,0.612 -0.481,0.905 -0.102,0.293 -0.164,0.58 -0.187,0.86 -0.023,0.132 0.008,0.335 0.095,0.611 0.087,0.275 0.194,0.521 0.323,0.737 0.234,0.413 0.485,0.727 0.754,0.943 l 0.74,0.594 c 0.335,0.27 0.615,0.682 0.838,1.236 0.223,0.553 0.39,0.95 0.502,1.189 l 1.046,2.695 0.527,1.49 c 0.228,0.67 0.378,1.353 0.449,2.046 0.017,0.126 0.019,0.296 0.007,0.512 -0.347,0.094 -0.656,0.333 -0.926,0.715 -0.186,0.262 -0.296,0.493 -0.329,0.69 -0.334,0.819 -0.342,1.589 -0.027,2.31 0.316,0.722 0.686,1.253 1.111,1.595 l 0.403,0.324 c 0.426,0.342 0.821,0.529 1.185,0.559 0.124,0.025 0.394,-0.048 0.812,-0.218 0.418,-0.169 0.709,-0.319 0.871,-0.451 0.404,0.175 0.741,0.333 1.009,0.474 0.269,0.141 0.516,0.302 0.739,0.482 0.342,0.312 0.591,0.53 0.748,0.657 0.313,0.252 0.508,0.707 0.586,1.369 0.077,0.661 0,1.105 -0.231,1.331 -0.145,0.107 -0.356,0.182 -0.631,0.223 -0.393,0.059 -0.608,0.092 -0.647,0.097 -0.365,-0.03 -0.648,-0.089 -0.85,-0.177 -0.202,-0.087 -0.414,-0.221 -0.638,-0.401 -0.252,-0.239 -0.456,-0.422 -0.613,-0.548 -0.247,-0.198 -0.608,-0.282 -1.084,-0.254 -0.168,-0.06 -0.294,-0.058 -0.375,0.008 -0.081,0.066 -0.159,0.126 -0.232,0.178 l -0.379,0.538 -0.338,0.628 c -0.034,0.196 -0.039,0.427 -0.014,0.69 0.025,0.263 0.034,0.449 0.028,0.557 l 0.318,1.041 c 0.111,0.239 0.256,0.431 0.436,0.575 0.448,0.36 0.686,0.57 0.713,0.63 0.538,0.283 0.942,0.531 1.21,0.747 0.202,0.162 0.356,0.342 0.461,0.54 0.174,0.401 0.306,0.685 0.398,0.853 0.092,0.168 0.19,0.34 0.293,0.517 0.104,0.176 0.206,0.343 0.307,0.498 0.179,0.144 0.408,0.217 0.689,0.218 l 0.841,10e-4 0.741,-0.303 c 0.354,-0.202 0.665,-0.495 0.935,-0.877 0.202,-0.287 0.282,-0.597 0.238,-0.932 l -0.183,-0.934 c 0.156,-0.023 0.385,-0.074 0.685,-0.15 0.301,-0.078 0.531,-0.155 0.69,-0.232 0.16,-0.077 0.277,-0.143 0.35,-0.197 0.337,-0.178 0.556,-0.339 0.657,-0.482 0.158,-0.174 0.262,-0.296 0.312,-0.368 0.371,-0.525 0.589,-1.193 0.652,-2.003 0.064,-0.811 0.037,-1.505 -0.079,-2.086 -0.078,-0.437 -0.201,-0.873 -0.368,-1.307 -0.167,-0.434 -0.368,-0.856 -0.603,-1.27 -0.033,-0.102 -0.111,-0.24 -0.234,-0.414 -0.123,-0.173 -0.268,-0.365 -0.437,-0.575 -0.833,-1.007 -1.485,-1.699 -1.954,-2.077 -0.135,-0.108 -0.27,-0.216 -0.404,-0.324 -0.236,-0.114 -0.409,-0.216 -0.521,-0.306 -0.112,-0.09 -0.289,-0.213 -0.529,-0.369 -0.241,-0.156 -0.439,-0.297 -0.596,-0.423 -0.202,-0.162 -0.35,-0.3 -0.445,-0.414 -0.545,-2.01 -0.965,-3.528 -1.261,-4.551 -0.479,-1.658 -0.883,-2.974 -1.211,-3.95"
       style="fill:#231f20;fill-opacity:1;fill-rule:nonzero;stroke:none"
       transform="matrix(1.3333333,0,0,-1.3333333,349.06267,570.74533)" />
  </g>
</svg>
