<?xml version="1.0" encoding="UTF-8" standalone="no"?>
<!-- Created with Inkscape (http://www.inkscape.org/) -->

<svg
   version="1.1"
   id="svg1"
   width="324.75467"
   height="324.75201"
   viewBox="0 0 324.75467 324.75201"
   sodipodi:docname="Solomon Islands Red Cross.svg"
   inkscape:version="1.3.2 (091e20e, 2023-11-25, custom)"
   xmlns:inkscape="http://www.inkscape.org/namespaces/inkscape"
   xmlns:sodipodi="http://sodipodi.sourceforge.net/DTD/sodipodi-0.dtd"
   xmlns="http://www.w3.org/2000/svg"
   xmlns:svg="http://www.w3.org/2000/svg">
  <defs
     id="defs1">
    <clipPath
       clipPathUnits="userSpaceOnUse"
       id="clipPath19">
      <path
         d="M 0,243.564 H 243.566 V 0.06 L 0,0.06 Z"
         transform="translate(-241.066,-121.78101)"
         id="path19" />
    </clipPath>
  </defs>
  <sodipodi:namedview
     id="namedview1"
     pagecolor="#ffffff"
     bordercolor="#666666"
     borderopacity="1.0"
     inkscape:showpageshadow="2"
     inkscape:pageopacity="0.0"
     inkscape:pagecheckerboard="0"
     inkscape:deskcolor="#d1d1d1"
     inkscape:export-bgcolor="#ffffffff"
     inkscape:zoom="2.5280828"
     inkscape:cx="162.37601"
     inkscape:cy="162.37601"
     inkscape:window-width="1920"
     inkscape:window-height="1017"
     inkscape:window-x="-8"
     inkscape:window-y="-8"
     inkscape:window-maximized="1"
     inkscape:current-layer="g1">
    <inkscape:page
       x="0"
       y="0"
       inkscape:label="1"
       id="page1"
       width="324.75467"
       height="324.75201"
       margin="0"
       bleed="0"
       inkscape:export-filename="Solomon Islands Red Cross.png"
       inkscape:export-xdpi="300"
       inkscape:export-ydpi="300" />
  </sodipodi:namedview>
  <g
     id="g1"
     inkscape:groupmode="layer"
     inkscape:label="1">
    <g
       id="group-MC1">
      <path
         id="path2"
         d="M 0,0 H -32.05 V -32.05 H 0 V -64.096 H 32.047 V -32.05 H 64.093 V 0 H 32.047 V 32.048 L 0,32.048 V 0"
         style="fill:#ed1c24;fill-opacity:1;fill-rule:nonzero;stroke:none"
         transform="matrix(1.3333333,0,0,-1.3333333,141.01467,143.05467)" />
      <path
         id="path3"
         d="m 0,0 c 0,42.35 -34.331,76.682 -76.681,76.682 -42.35,0 -76.681,-34.332 -76.681,-76.682 0,-42.35 34.331,-76.681 76.681,-76.681 C -34.331,-76.681 0,-42.35 0,0 Z"
         style="fill:none;stroke:#231f20;stroke-width:2;stroke-linecap:butt;stroke-linejoin:miter;stroke-miterlimit:4;stroke-dasharray:none;stroke-opacity:1"
         transform="matrix(1.3333333,0,0,-1.3333333,264.61867,162.37733)" />
      <path
         id="path4"
         d="M 0,0 C 2.625,-0.254 3.846,1.691 4.07,4.011 4.217,5.53 4.001,7.893 1.984,8.088 -0.143,8.294 -0.788,5.374 -1.844,2.549 -2.9,-0.304 -4.319,-3.149 -8.021,-2.791 c -4.032,0.392 -5.596,4.391 -5.25,7.954 0.399,4.115 2.562,7.725 7.119,7.283 L -6.56,8.248 c -2.389,0.093 -3.16,-1.534 -3.361,-3.605 -0.134,-1.381 0.291,-3.039 1.948,-3.2 1.52,-0.147 1.804,0.772 3.554,5.594 0.499,1.401 1.839,5.732 6.314,5.298 C 5.512,11.984 7.943,8.876 7.424,3.518 7,-0.846 4.449,-4.725 -0.406,-4.198 L 0,0"
         style="fill:#ed1c24;fill-opacity:1;fill-rule:nonzero;stroke:none"
         transform="matrix(1.3333333,0,0,-1.3333333,35.436,157.02133)" />
      <path
         id="path5"
         d="m 0,0 c 1.24,3.711 -1.452,6.161 -4.584,7.207 -3.29,1.099 -6.915,0.758 -8.154,-2.953 -1.239,-3.711 1.453,-6.16 4.744,-7.259 C -4.863,-4.051 -1.238,-3.711 0,0 Z m -16.212,5.415 c 1.942,5.816 7.428,7.787 13.007,5.923 5.422,-1.81 8.623,-6.682 6.68,-12.499 -1.942,-5.816 -7.428,-7.787 -12.85,-5.977 -5.58,1.864 -8.779,6.736 -6.837,12.553"
         style="fill:#ed1c24;fill-opacity:1;fill-rule:nonzero;stroke:none"
         transform="matrix(1.3333333,0,0,-1.3333333,46.232,124.82533)" />
      <path
         id="path6"
         d="M 0,0 2.246,3.733 16.083,-4.593 21.063,3.681 24.201,1.792 16.976,-10.214 0,0"
         style="fill:#ed1c24;fill-opacity:1;fill-rule:nonzero;stroke:none"
         transform="matrix(1.3333333,0,0,-1.3333333,34.113333,96.306667)" />
      <path
         id="path7"
         d="m 0,0 c 2.7,2.831 1.306,6.195 -1.085,8.474 -2.511,2.393 -5.936,3.627 -8.636,0.796 -2.7,-2.832 -1.304,-6.195 1.205,-8.589 C -6.126,-1.598 -2.701,-2.832 0,0 Z m -12.372,11.797 c 4.233,4.439 10.036,3.89 14.294,-0.17 4.137,-3.946 4.961,-9.716 0.728,-14.154 -4.231,-4.439 -10.035,-3.89 -14.171,0.055 -4.259,4.06 -5.083,9.831 -0.851,14.269"
         style="fill:#ed1c24;fill-opacity:1;fill-rule:nonzero;stroke:none"
         transform="matrix(1.3333333,0,0,-1.3333333,73.646667,79.266667)" />
      <path
         id="path8"
         d="M 0,0 5.246,3.179 16.273,-6.073 16.32,-6.044 13.008,7.883 18.254,11.062 28.525,-5.886 25.035,-8.001 17.757,4.01 17.709,3.981 20.834,-10.547 17.962,-12.288 6.602,-2.912 6.554,-2.941 13.761,-14.833 10.272,-16.948 0,0"
         style="fill:#ed1c24;fill-opacity:1;fill-rule:nonzero;stroke:none"
         transform="matrix(1.3333333,0,0,-1.3333333,75.305333,47.361333)" />
      <path
         id="path9"
         d="M 0,0 C 3.762,1.079 4.258,4.686 3.348,7.861 2.392,11.197 0.059,13.993 -3.703,12.914 -7.466,11.835 -7.962,8.227 -7.006,4.892 -6.094,1.717 -3.762,-1.08 0,0 Z M -4.714,16.436 C 1.184,18.127 5.914,14.72 7.537,9.063 9.113,3.566 6.908,-1.831 1.011,-3.522 -4.887,-5.214 -9.617,-1.806 -11.194,3.69 c -1.622,5.657 0.584,11.054 6.48,12.746"
         style="fill:#ed1c24;fill-opacity:1;fill-rule:nonzero;stroke:none"
         transform="matrix(1.3333333,0,0,-1.3333333,128.65467,45.950667)" />
      <path
         id="path10"
         d="m 0,0 4.325,0.162 8.761,-12.975 0.055,0.001 -0.496,13.285 4.078,0.152 0.738,-19.802 -4.353,-0.162 L 4.375,-6.39 4.32,-6.393 4.815,-19.648 0.738,-19.801 0,0"
         style="fill:#ed1c24;fill-opacity:1;fill-rule:nonzero;stroke:none"
         transform="matrix(1.3333333,0,0,-1.3333333,145.74533,19.586667)" />
      <path
         id="path11"
         d="M 0,0 4.243,-0.987 -0.248,-20.282 -4.492,-19.294 0,0"
         style="fill:#ed1c24;fill-opacity:1;fill-rule:nonzero;stroke:none"
         transform="matrix(1.3333333,0,0,-1.3333333,192.344,22.204)" />
      <path
         id="path12"
         d="M 0,0 C -0.984,-2.446 0.537,-4.165 2.7,-5.036 4.116,-5.606 6.444,-6.065 7.2,-4.185 7.999,-2.203 5.379,-0.759 2.966,1.049 0.528,2.87 -1.802,5.033 -0.413,8.484 1.1,12.242 5.379,12.613 8.7,11.276 12.535,9.732 15.389,6.639 13.678,2.39 L 9.765,3.966 C 10.528,6.232 9.186,7.431 7.255,8.208 5.967,8.727 4.257,8.788 3.635,7.243 3.065,5.826 3.867,5.295 7.999,2.254 9.203,1.38 12.98,-1.127 11.3,-5.298 9.942,-8.67 6.275,-10.126 1.282,-8.115 -2.787,-6.476 -5.789,-2.934 -3.912,1.576 L 0,0"
         style="fill:#ed1c24;fill-opacity:1;fill-rule:nonzero;stroke:none"
         transform="matrix(1.3333333,0,0,-1.3333333,204.844,43.914667)" />
      <path
         id="path13"
         d="m 0,0 3.637,-2.399 -8.892,-13.486 8.064,-5.318 -2.018,-3.06 -11.702,7.718 L 0,0"
         style="fill:#ed1c24;fill-opacity:1;fill-rule:nonzero;stroke:none"
         transform="matrix(1.3333333,0,0,-1.3333333,235.05733,38.353333)" />
      <path
         id="path14"
         d="M 0,0 3.616,-3.645 7.017,3.25 6.978,3.289 Z m 8.922,8.267 3.147,-3.172 -8.847,-19.218 -3.185,3.211 2.076,4.172 -5.22,5.26 -4.227,-2.005 -3.108,3.132 19.364,8.62"
         style="fill:#ed1c24;fill-opacity:1;fill-rule:nonzero;stroke:none"
         transform="matrix(1.3333333,0,0,-1.3333333,251.048,70.712)" />
      <path
         id="path15"
         d="m 0,0 2.285,-3.677 -6.928,-14.036 0.029,-0.048 11.291,7.013 2.152,-3.464 L -8,-24.667 l -2.299,3.701 6.918,13.999 -0.028,0.047 -11.267,-6.998 -2.152,3.465 L 0,0"
         style="fill:#ed1c24;fill-opacity:1;fill-rule:nonzero;stroke:none"
         transform="matrix(1.3333333,0,0,-1.3333333,279.376,77.970667)" />
      <path
         id="path16"
         d="m 0,0 1.226,-3.686 c 0.796,-2.396 3.033,-4.196 7.192,-2.813 3.791,1.261 5.777,3.383 4.41,7.489 l -0.979,2.95 z m 13.949,9.229 2.697,-8.11 c 1.619,-4.87 -0.219,-9.546 -6.459,-11.621 -5.449,-1.812 -10.433,-0.369 -12.342,5.371 l -2.695,8.11 18.799,6.25"
         style="fill:#ed1c24;fill-opacity:1;fill-rule:nonzero;stroke:none"
         transform="matrix(1.3333333,0,0,-1.3333333,277.572,119.90533)" />
      <path
         id="path17"
         d="m 0,0 c -2.623,-0.256 -3.446,-2.399 -3.22,-4.719 0.148,-1.519 0.816,-3.796 2.831,-3.6 2.127,0.207 2.2,3.198 2.69,6.174 0.488,3.002 1.332,6.067 5.033,6.428 4.031,0.393 6.337,-3.23 6.684,-6.792 0.401,-4.116 -1.026,-8.074 -5.582,-8.519 l -0.409,4.199 c 2.362,0.369 2.805,2.113 2.603,4.184 -0.135,1.381 -0.871,2.926 -2.528,2.765 -1.519,-0.148 -1.621,-1.106 -2.41,-6.173 -0.219,-1.471 -0.699,-5.98 -5.174,-6.415 -3.618,-0.353 -6.602,2.228 -7.123,7.586 -0.426,4.364 1.33,8.662 6.197,9.079 L 0,0"
         style="fill:#ed1c24;fill-opacity:1;fill-rule:nonzero;stroke:none"
         transform="matrix(1.3333333,0,0,-1.3333333,288.24533,145.80667)" />
      <path
         id="path18"
         d="m 0,0 c 0,65.878 -53.404,119.283 -119.283,119.283 -65.878,0 -119.283,-53.405 -119.283,-119.283 0,-65.878 53.405,-119.281 119.283,-119.281 C -53.404,-119.281 0,-65.878 0,0 Z"
         style="fill:none;stroke:#ed1c24;stroke-width:5;stroke-linecap:butt;stroke-linejoin:miter;stroke-miterlimit:4;stroke-dasharray:none;stroke-opacity:1"
         transform="matrix(1.3333333,0,0,-1.3333333,321.42133,162.37733)"
         clip-path="url(#clipPath19)" />
      <path
         id="path20"
         d="m 0,0 3.396,-3.354 c 1.381,-1.363 2.717,-1.512 4.122,-0.091 1.344,1.362 1.178,2.696 -0.204,4.06 L 3.919,3.968 Z m 3.198,9.438 7.601,-7.506 c 2.527,-2.495 2.39,-5.831 0.285,-7.964 -1.638,-1.658 -3.536,-2.24 -5.72,-1.332 l -0.04,-0.039 c 1.131,-1.895 0.104,-3.805 -1.201,-5.324 -0.818,-0.947 -2.475,-2.586 -2.703,-3.922 l -3.1,3.061 c 0.502,1.259 1.888,2.582 2.84,3.863 1.246,1.695 1.317,2.913 -0.243,4.453 l -3.1,3.061 -5.439,-5.509 -3.1,3.06 13.92,14.098"
         style="fill:#ed1c24;fill-opacity:1;fill-rule:nonzero;stroke:none"
         transform="matrix(1.3333333,0,0,-1.3333333,66.888,253.58)" />
      <path
         id="path21"
         d="m 0,0 12.495,-7.97 -1.97,-3.087 -8.821,5.626 -2.282,-3.581 8.095,-5.163 -1.821,-2.854 -8.095,5.163 -2.612,-4.095 9.008,-5.745 -1.969,-3.088 -12.681,8.088 L 0,0"
         style="fill:#ed1c24;fill-opacity:1;fill-rule:nonzero;stroke:none"
         transform="matrix(1.3333333,0,0,-1.3333333,90.32,259.00667)" />
      <path
         id="path22"
         d="m 0,0 3.643,-1.352 c 2.367,-0.878 5.17,-0.261 6.696,3.849 1.391,3.746 0.978,6.622 -3.08,8.129 L 4.344,11.707 Z M 1.535,16.657 9.547,13.684 C 14.361,11.898 16.857,7.537 14.569,1.371 12.571,-4.013 8.326,-6.997 2.653,-4.892 l -8.011,2.972 6.893,18.577"
         style="fill:#ed1c24;fill-opacity:1;fill-rule:nonzero;stroke:none"
         transform="matrix(1.3333333,0,0,-1.3333333,108.324,293.61733)" />
      <path
         id="path23"
         d="m 0,0 c -0.203,1.98 -2.032,3.549 -4.194,3.631 -3.909,0.149 -5.505,-3.123 -5.637,-6.589 -0.126,-3.299 1.218,-6.681 5.127,-6.831 2.661,-0.1 4.228,1.672 4.66,4.266 l 4.215,-0.16 c -0.632,-4.919 -4.163,-7.95 -9.014,-7.766 -6.129,0.233 -9.559,4.945 -9.342,10.657 0.224,5.878 4.002,10.316 10.13,10.082 C 0.298,7.125 3.861,4.436 4.214,-0.159 L 0,0"
         style="fill:#ed1c24;fill-opacity:1;fill-rule:nonzero;stroke:none"
         transform="matrix(1.3333333,0,0,-1.3333333,164.02533,291.84133)" />
      <path
         id="path24"
         d="M 0,0 4.692,0.883 C 6.601,1.242 7.484,2.256 7.114,4.22 6.76,6.101 5.569,6.725 3.661,6.366 L -1.032,5.482 Z M -5.941,8.004 4.561,9.98 C 8.053,10.639 10.719,8.627 11.273,5.68 11.705,3.389 11.101,1.497 9.111,0.218 l 0.01,-0.055 c 2.203,-0.15 3.187,-2.083 3.694,-4.021 0.313,-1.212 0.718,-3.508 1.686,-4.456 L 10.219,-9.12 c -0.749,1.13 -1.05,3.022 -1.561,4.537 -0.684,1.988 -1.645,2.74 -3.8,2.334 l -4.282,-0.807 1.433,-7.609 -4.283,-0.807 -3.667,19.476"
         style="fill:#ed1c24;fill-opacity:1;fill-rule:nonzero;stroke:none"
         transform="matrix(1.3333333,0,0,-1.3333333,181.61333,293.43067)" />
      <path
         id="path25"
         d="m 0,0 c 3.582,1.573 3.59,5.214 2.262,8.237 -1.397,3.177 -4.083,5.634 -7.665,4.06 C -8.985,10.724 -8.993,7.083 -7.598,3.907 -6.27,0.883 -3.582,-1.574 0,0 Z M -6.877,15.651 C -1.263,18.118 3.883,15.377 6.25,9.99 8.55,4.757 7.088,-0.888 1.474,-3.355 c -5.617,-2.466 -10.761,0.275 -13.06,5.509 -2.367,5.387 -0.906,11.03 4.709,13.497"
         style="fill:#ed1c24;fill-opacity:1;fill-rule:nonzero;stroke:none"
         transform="matrix(1.3333333,0,0,-1.3333333,219.08667,293.04533)" />
      <path
         id="path26"
         d="M 0,0 C 1.551,-2.131 3.817,-1.751 5.7,-0.377 6.934,0.521 8.555,2.254 7.362,3.89 6.104,5.617 3.492,4.16 0.68,3.072 -2.155,1.966 -5.225,1.136 -7.415,4.142 c -2.386,3.274 -0.436,7.1 2.457,9.208 3.341,2.436 7.476,3.217 10.173,-0.483 L 1.805,10.382 C 0.288,12.229 -1.439,11.725 -3.12,10.5 -4.242,9.682 -5.199,8.263 -4.219,6.918 -3.321,5.684 -2.443,6.083 2.323,7.978 3.701,8.536 7.829,10.411 10.477,6.778 12.62,3.841 11.911,-0.04 7.56,-3.211 4.016,-5.794 -0.577,-6.464 -3.41,-2.485 L 0,0"
         style="fill:#ed1c24;fill-opacity:1;fill-rule:nonzero;stroke:none"
         transform="matrix(1.3333333,0,0,-1.3333333,238.54667,277.36667)" />
      <path
         id="path27"
         d="M 0,0 C 1.943,-1.78 4.088,-0.96 5.66,0.76 6.691,1.886 7.939,3.904 6.444,5.273 4.869,6.715 2.597,4.77 0.055,3.145 -2.503,1.501 -5.347,0.079 -8.089,2.59 c -2.989,2.736 -1.834,6.872 0.583,9.513 2.791,3.049 6.689,4.634 10.066,1.543 L -0.287,10.534 C -2.142,12.044 -3.735,11.207 -5.141,9.673 -6.078,8.65 -6.735,7.07 -5.508,5.945 -4.381,4.914 -3.602,5.479 0.695,8.279 1.935,9.101 5.609,11.756 8.924,8.721 11.605,6.266 11.681,2.32 8.046,-1.649 5.084,-4.883 0.714,-6.45 -2.85,-3.111 L 0,0"
         style="fill:#ed1c24;fill-opacity:1;fill-rule:nonzero;stroke:none"
         transform="matrix(1.3333333,0,0,-1.3333333,259.548,260.06133)" />
    </g>
  </g>
</svg>
