<?xml version="1.0" encoding="UTF-8" standalone="no"?>
<!-- Created with Inkscape (http://www.inkscape.org/) -->

<svg
   version="1.1"
   id="svg1"
   width="564.29333"
   height="165.05333"
   viewBox="0 0 564.29333 165.05333"
   sodipodi:docname="Lithuania Red Cross logo_raudonasis kryzius.svg"
   inkscape:version="1.3.2 (091e20e, 2023-11-25, custom)"
   xmlns:inkscape="http://www.inkscape.org/namespaces/inkscape"
   xmlns:sodipodi="http://sodipodi.sourceforge.net/DTD/sodipodi-0.dtd"
   xmlns="http://www.w3.org/2000/svg"
   xmlns:svg="http://www.w3.org/2000/svg">
  <defs
     id="defs1">
    <clipPath
       clipPathUnits="userSpaceOnUse"
       id="clipPath3">
      <path
         d="M 0.059998,123.79 H 423.22 V 0.06 H 0.059998 Z"
         transform="translate(-82.528,-82.526002)"
         id="path3" />
    </clipPath>
  </defs>
  <sodipodi:namedview
     id="namedview1"
     pagecolor="#ffffff"
     bordercolor="#666666"
     borderopacity="1.0"
     inkscape:showpageshadow="2"
     inkscape:pageopacity="0.0"
     inkscape:pagecheckerboard="0"
     inkscape:deskcolor="#d1d1d1"
     inkscape:zoom="1.6569396"
     inkscape:cx="282.14667"
     inkscape:cy="82.380792"
     inkscape:window-width="1920"
     inkscape:window-height="1017"
     inkscape:window-x="-8"
     inkscape:window-y="-8"
     inkscape:window-maximized="1"
     inkscape:current-layer="g1">
    <inkscape:page
       x="0"
       y="0"
       inkscape:label="1"
       id="page1"
       width="564.29333"
       height="165.05333"
       margin="0"
       bleed="0" />
  </sodipodi:namedview>
  <g
     id="g1"
     inkscape:groupmode="layer"
     inkscape:label="1">
    <g
       id="group-MC1">
      <path
         id="path2"
         d="M 0,0 H 41.263 V -41.263 H 0 v -41.263 h -41.264 v 41.263 H -82.528 V 0 h 41.264 V 41.264 H 0 V 0"
         style="fill:#ed1c24;fill-opacity:1;fill-rule:evenodd;stroke:none"
         transform="matrix(1.3333333,0,0,-1.3333333,110.03733,55.018667)"
         clip-path="url(#clipPath3)" />
      <path
         id="path4"
         d="M 0,0 H 1.802 L 3.81,-2.327 5.717,0 H 7.513 L 5.293,-4.337 H 2.33 Z m -3.28,-23.172 v 3.492 l 8.784,10.263 h -8.462 v 3.492 H 11.006 V -9.417 L 2.223,-19.68 h 8.783 v -3.492 z m -74.167,5.714 h 4.232 c 0,-1.904 1.059,-2.962 3.28,-2.962 1.798,0 2.749,0.635 2.749,1.692 0,0.636 -0.211,1.059 -0.632,1.27 -0.319,0.212 -1.058,0.423 -2.221,0.741 -1.378,0.424 -2.434,0.847 -3.282,1.164 -2.54,0.952 -3.807,2.539 -3.807,4.76 0,1.587 0.633,2.963 1.797,3.915 1.271,0.953 2.962,1.482 5.081,1.482 2.113,0 3.699,-0.529 4.972,-1.587 1.163,-1.058 1.796,-2.434 1.796,-4.126 h -4.127 c -0.209,1.587 -1.161,2.329 -2.961,2.329 -0.635,0 -1.271,-0.108 -1.693,-0.426 -0.423,-0.316 -0.634,-0.634 -0.634,-1.057 0,-0.635 0.318,-1.058 0.952,-1.375 0.317,-0.212 1.375,-0.529 3.069,-1.165 1.267,-0.317 2.113,-0.634 2.539,-0.845 0.848,-0.318 1.374,-0.529 1.693,-0.846 1.162,-0.954 1.691,-2.116 1.691,-3.703 0,-1.694 -0.633,-2.964 -1.904,-4.022 -1.267,-0.953 -3.173,-1.376 -5.503,-1.376 -4.549,0 -6.875,2.012 -7.087,6.137 z m -2.751,-5.714 h -4.443 v 17.247 h 4.443 z m -4.443,0 z m -17.245,5.714 h 4.233 c 0.104,-1.904 1.162,-2.962 3.277,-2.962 1.906,0 2.858,0.635 2.858,1.692 0,0.636 -0.213,1.059 -0.635,1.27 -0.423,0.212 -1.164,0.423 -2.223,0.741 -1.374,0.424 -2.433,0.847 -3.384,1.164 -2.435,0.952 -3.703,2.539 -3.703,4.76 0,1.587 0.528,2.963 1.797,3.915 1.162,0.953 2.857,1.482 5.077,1.482 2.013,0 3.703,-0.529 4.871,-1.587 1.268,-1.058 1.902,-2.434 1.902,-4.126 h -4.232 c -0.105,1.587 -1.163,2.329 -2.856,2.329 -0.743,0 -1.271,-0.108 -1.798,-0.426 -0.422,-0.316 -0.635,-0.634 -0.635,-1.057 0,-0.635 0.316,-1.058 1.058,-1.375 0.316,-0.212 1.268,-0.529 3.068,-1.165 1.268,-0.317 2.115,-0.634 2.537,-0.845 0.744,-0.318 1.272,-0.529 1.694,-0.846 1.164,-0.954 1.692,-2.116 1.692,-3.703 0,-1.694 -0.634,-2.964 -1.903,-4.022 -1.377,-0.953 -3.175,-1.376 -5.61,-1.376 -4.442,0 -6.767,2.012 -7.085,6.137 z m -11.428,1.059 h 3.809 l -1.906,5.925 z m -0.316,10.474 h 4.761 l 6.134,-17.247 h -4.76 l -1.058,3.176 h -5.822 l -0.951,-3.176 h -4.549 z M 38.196,-17.458 h 4.233 c 0.106,-1.904 1.164,-2.962 3.28,-2.962 1.903,0 2.858,0.635 2.858,1.692 0,0.636 -0.211,1.059 -0.742,1.27 -0.318,0.212 -1.057,0.423 -2.116,0.741 -1.374,0.424 -2.539,0.847 -3.387,1.164 -2.539,0.952 -3.807,2.539 -3.807,4.76 0,1.587 0.633,2.963 1.907,3.915 1.161,0.953 2.852,1.482 5.078,1.482 2.007,0 3.702,-0.529 4.865,-1.587 1.268,-1.058 1.906,-2.434 1.906,-4.126 h -4.236 c -0.21,1.587 -1.162,2.329 -2.855,2.329 -0.739,0 -1.271,-0.108 -1.799,-0.426 -0.423,-0.316 -0.634,-0.634 -0.634,-1.057 0,-0.635 0.316,-1.058 1.056,-1.375 0.212,-0.212 1.273,-0.529 2.965,-1.165 1.373,-0.317 2.223,-0.634 2.645,-0.845 0.741,-0.318 1.269,-0.529 1.692,-0.846 1.166,-0.954 1.695,-2.116 1.695,-3.703 0,-1.694 -0.635,-2.964 -2.013,-4.022 -1.268,-0.953 -3.068,-1.376 -5.5,-1.376 -4.442,0 -6.878,2.012 -7.091,6.137 z M 21.164,-5.925 h 4.443 v -10.792 c 0,-1.163 0.212,-1.905 0.635,-2.434 0.422,-0.529 1.161,-0.845 2.224,-0.845 1.056,0 1.796,0.316 2.217,0.845 0.424,0.529 0.636,1.271 0.636,2.434 v 10.792 h 4.445 v -10.262 c 0,-1.271 -0.107,-2.435 -0.424,-3.282 -0.211,-0.951 -0.74,-1.692 -1.48,-2.327 -1.269,-1.164 -3.07,-1.799 -5.394,-1.799 -2.224,0 -4.025,0.635 -5.399,1.799 -1.27,1.165 -1.903,3.068 -1.903,5.609 z M 17.777,-23.172 H 13.44 v 17.247 h 4.337 z m -4.337,0 z m -27.51,0 v 6.562 l -5.926,10.685 h 4.974 l 3.067,-6.878 3.175,6.878 h 5.078 l -6.03,-10.685 v -6.562 z m -17.248,9.841 h 3.28 c 1.697,0 2.542,0.741 2.542,2.115 0,1.271 -0.74,1.905 -2.436,1.905 h -3.386 z m -4.443,-9.841 v 17.247 h 8.252 c 2.223,0 3.81,-0.317 4.87,-1.165 1.058,-0.74 1.585,-1.904 1.585,-3.597 0,-1.903 -0.952,-3.279 -2.752,-4.232 0.846,-0.317 1.485,-0.846 1.8,-1.48 0.213,-0.425 0.319,-1.27 0.425,-2.329 0,-0.846 0,-1.692 0.105,-2.539 0,-0.634 0.211,-1.056 0.634,-1.27 v -0.635 h -4.654 c -0.212,0.635 -0.317,1.376 -0.423,2.222 0,1.481 -0.106,2.328 -0.106,2.328 -0.107,1.269 -0.956,1.905 -2.33,1.905 h -2.963 v -6.455 z m -17.457,0 v 17.247 h 4.339 v -6.559 l 6.134,6.559 h 5.294 l -6.987,-7.195 7.198,-10.052 h -5.291 l -4.869,6.985 -1.479,-1.482 v -5.503 z m -83.373,0 v 17.247 h 4.761 l 3.28,-5.608 c 1.058,-1.798 2.01,-3.597 2.859,-5.396 -0.11,2.646 -0.216,4.868 -0.216,6.666 v 4.338 h 4.341 v -17.247 h -4.764 l -3.387,5.819 c -0.845,1.483 -1.797,3.176 -2.853,5.081 0.211,-2.222 0.317,-4.127 0.317,-5.714 v -5.186 z m -15.448,8.678 c 0,-1.799 0.318,-3.175 1.057,-4.128 0.74,-0.847 1.8,-1.374 3.069,-1.374 1.374,0 2.435,0.527 3.07,1.374 0.739,0.953 1.162,2.329 1.162,4.128 0,1.691 -0.423,3.067 -1.162,4.02 -0.744,0.952 -1.696,1.374 -3.07,1.374 -1.269,0 -2.329,-0.422 -3.069,-1.374 -0.739,-0.953 -1.057,-2.329 -1.057,-4.02 z m -4.55,0 c 0,2.75 0.847,4.972 2.328,6.559 1.587,1.693 3.702,2.539 6.348,2.539 2.647,0 4.761,-0.846 6.35,-2.539 1.585,-1.587 2.326,-3.809 2.326,-6.559 0,-2.859 -0.741,-5.08 -2.326,-6.667 -1.589,-1.693 -3.703,-2.434 -6.35,-2.434 -2.646,0 -4.761,0.741 -6.348,2.434 -1.481,1.587 -2.328,3.808 -2.328,6.667 z m -12.803,-5.08 h 2.434 c 1.376,0 2.327,0.423 2.964,1.27 0.635,0.846 0.952,2.011 0.952,3.81 0,1.691 -0.317,2.961 -0.846,3.807 -0.637,0.742 -1.694,1.165 -3.07,1.165 h -2.434 z m -4.442,-3.598 v 17.247 h 7.405 c 2.541,0 4.55,-0.742 5.924,-2.221 1.271,-1.482 2.011,-3.598 2.011,-6.348 0,-5.819 -2.857,-8.678 -8.464,-8.678 z m -17.776,17.247 h 4.339 v -10.792 c 0,-1.163 0.21,-1.905 0.633,-2.434 0.529,-0.529 1.271,-0.845 2.327,-0.845 1.059,0 1.8,0.316 2.223,0.845 0.425,0.529 0.635,1.271 0.635,2.434 v 10.792 h 4.338 v -10.262 c 0,-1.271 -0.106,-2.435 -0.316,-3.282 -0.319,-0.951 -0.743,-1.692 -1.482,-2.327 -1.376,-1.164 -3.175,-1.799 -5.398,-1.799 -2.327,0 -4.126,0.635 -5.394,1.799 -1.27,1.165 -1.905,3.068 -1.905,5.609 z m -11.638,-10.474 h 3.809 l -1.904,5.925 z m -0.423,10.474 h 4.867 l 6.03,-17.247 h -4.654 l -1.059,3.176 h -5.82 l -0.952,-3.176 h -4.55 z m -17.775,-7.406 h 3.278 c 1.799,0 2.646,0.741 2.646,2.115 0,1.271 -0.847,1.905 -2.433,1.905 h -3.491 z m -4.34,-9.841 v 17.247 h 8.254 c 2.116,0 3.809,-0.317 4.866,-1.165 0.953,-0.74 1.483,-1.904 1.483,-3.597 0,-1.903 -0.847,-3.279 -2.646,-4.232 0.847,-0.317 1.376,-0.846 1.692,-1.48 0.212,-0.425 0.424,-1.27 0.424,-2.329 0.107,-0.846 0.107,-1.692 0.107,-2.539 0.106,-0.634 0.316,-1.056 0.635,-1.27 v -0.635 h -4.551 c -0.212,0.635 -0.424,1.376 -0.424,2.222 -0.105,1.481 -0.105,2.328 -0.105,2.328 -0.105,1.269 -0.951,1.905 -2.433,1.905 h -2.962 v -6.455 z m 105.172,34.282 h 4.232 c 0,-2.012 1.162,-3.069 3.28,-3.069 1.903,0 2.855,0.635 2.855,1.8 0,0.527 -0.319,0.951 -0.741,1.164 -0.317,0.211 -1.055,0.423 -2.219,0.74 -1.273,0.423 -2.436,0.845 -3.281,1.163 -2.542,0.953 -3.81,2.54 -3.81,4.762 0,1.587 0.636,2.961 1.903,3.914 1.167,0.952 2.859,1.482 4.975,1.482 2.115,0 3.81,-0.53 4.973,-1.587 1.268,-0.953 1.798,-2.328 1.798,-4.127 h -4.126 c -0.213,1.588 -1.165,2.328 -2.855,2.328 -0.745,0 -1.378,-0.106 -1.801,-0.423 -0.423,-0.317 -0.635,-0.636 -0.635,-1.059 0,-0.634 0.317,-1.057 0.952,-1.375 0.316,-0.212 1.377,-0.529 3.071,-1.058 1.268,-0.423 2.223,-0.74 2.538,-0.953 0.846,-0.317 1.375,-0.528 1.798,-0.845 1.058,-0.954 1.692,-2.116 1.692,-3.704 0,-1.694 -0.634,-2.961 -2.009,-3.914 -1.268,-1.058 -3.175,-1.483 -5.5,-1.483 -4.448,0 -6.88,2.012 -7.09,6.244 z m -14.709,2.857 c 0,-1.799 0.318,-3.175 1.057,-4.126 0.745,-0.849 1.801,-1.377 3.071,-1.377 1.375,0 2.432,0.528 3.068,1.481 0.739,0.847 1.163,2.223 1.163,4.022 0,1.693 -0.424,3.067 -1.163,4.02 -0.739,0.953 -1.693,1.376 -3.068,1.376 -1.27,0 -2.326,-0.423 -3.071,-1.376 -0.739,-0.953 -1.057,-2.327 -1.057,-4.02 z m -4.443,0 c 0,2.749 0.739,4.973 2.329,6.664 1.481,1.588 3.594,2.435 6.242,2.435 2.645,0 4.758,-0.847 6.349,-2.435 1.586,-1.691 2.325,-3.915 2.325,-6.664 0,-2.857 -0.739,-5.08 -2.325,-6.665 -1.591,-1.588 -3.704,-2.436 -6.349,-2.436 -2.648,0 -4.761,0.848 -6.242,2.436 -1.59,1.585 -2.329,3.808 -2.329,6.665 z m -10.899,-8.676 -5.924,17.245 h 4.656 l 2.432,-8.781 c 0.214,-0.636 0.532,-1.798 0.955,-3.387 0.106,0.318 0.316,1.377 0.846,3.07 l 2.539,9.098 h 4.655 l -6.033,-17.245 z m -21.689,17.245 h 4.34 V 11.851 c 0,-1.165 0.21,-2.01 0.633,-2.539 0.423,-0.531 1.164,-0.743 2.222,-0.743 1.058,0 1.8,0.212 2.222,0.743 0.423,0.529 0.74,1.374 0.74,2.539 v 10.685 h 4.34 V 12.379 c 0,-1.374 -0.107,-2.538 -0.319,-3.281 -0.318,-0.951 -0.847,-1.796 -1.48,-2.433 -1.375,-1.163 -3.176,-1.799 -5.398,-1.799 -2.327,0 -4.125,0.636 -5.501,1.799 -1.165,1.165 -1.799,3.069 -1.799,5.714 z M -183.568,5.291 v 13.754 h -4.975 v 3.491 h 14.391 v -3.491 h -4.974 V 5.291 Z m -19.468,0 v 17.245 h 13.117 v -3.491 h -8.674 v -3.068 h 7.935 V 12.59 h -7.935 V 8.887 h 8.888 V 5.291 Z m -3.493,0 h -4.442 v 17.245 h 4.442 z m -4.442,0 z m -14.709,0 v 17.245 h 4.446 V 9.098 h 8.358 V 5.291 h -12.804"
         style="fill:#231f20;fill-opacity:1;fill-rule:nonzero;stroke:none"
         transform="matrix(1.3333333,0,0,-1.3333333,493.89333,82.668)" />
    </g>
  </g>
</svg>
