<?xml version="1.0" encoding="UTF-8" standalone="no"?>
<svg
   xmlns:dc="http://purl.org/dc/elements/1.1/"
   xmlns:cc="http://creativecommons.org/ns#"
   xmlns:rdf="http://www.w3.org/1999/02/22-rdf-syntax-ns#"
   xmlns:svg="http://www.w3.org/2000/svg"
   xmlns="http://www.w3.org/2000/svg"
   viewBox="0 0 433.57333 137.77333"
   height="137.77333"
   width="433.57333"
   xml:space="preserve"
   id="svg2"
   version="1.1"><metadata
     id="metadata8"><rdf:RDF><cc:Work
         rdf:about=""><dc:format>image/svg+xml</dc:format><dc:type
           rdf:resource="http://purl.org/dc/dcmitype/StillImage" /><dc:title></dc:title></cc:Work></rdf:RDF></metadata><defs
     id="defs6" /><g
     transform="matrix(1.3333333,0,0,-1.3333333,0,137.77333)"
     id="g10"><g
       transform="scale(0.1)"
       id="g12"><path
         id="path14"
         style="fill:#ee2628;fill-opacity:1;fill-rule:nonzero;stroke:none"
         d="m 2860.97,198.578 c -172.58,0 -312.48,139.902 -312.48,312.469 0,172.57 139.9,312.469 312.48,312.469 116.08,0 217.38,-63.313 271.26,-157.282 -59.89,137.176 -196.71,233.067 -355.97,233.067 -214.42,0 -388.25,-173.828 -388.25,-388.254 0,-214.422 173.83,-388.25 388.25,-388.25 159.26,0 296.08,95.887 355.98,233.066 -53.88,-93.968 -155.19,-157.285 -271.27,-157.285" /><path
         id="path16"
         style="fill:none;stroke:#918f90;stroke-width:35.31140137;stroke-linecap:butt;stroke-linejoin:miter;stroke-miterlimit:4;stroke-dasharray:none;stroke-opacity:1"
         d="M 3234.15,1008.33 H 2245.43 V 19.6094 h 988.72 z" /><path
         id="path18"
         style="fill:#231f20;fill-opacity:1;fill-rule:nonzero;stroke:none"
         d="m 2331.76,0 h -105.94 v 1024.03 h 105.94 V 0" /><path
         id="path20"
         style="fill:#231f20;fill-opacity:1;fill-rule:nonzero;stroke:none"
         d="m 71.5977,295.965 h 41.7773 c 14.992,0 23.031,8.035 23.031,22.496 0,14.195 -11.25,20.621 -25.176,20.621 H 71.5977 Z m -49.8164,83.023 h 97.4807 c 33.746,0 66.953,-15.269 66.953,-53.832 0,-20.621 -9.906,-40.172 -29.992,-47.937 v -0.535 c 20.355,-4.821 26.242,-27.582 27.847,-45.797 0.539,-8.032 1.344,-36.153 8.039,-43.114 h -49.277 c -4.285,6.426 -5.09,25.176 -5.625,30.532 -1.34,19.277 -4.551,39.097 -27.852,39.097 H 71.5977 V 187.773 H 21.7813 v 191.215" /><path
         id="path22"
         style="fill:#231f20;fill-opacity:1;fill-rule:nonzero;stroke:none"
         d="M 215.133,378.988 H 367.516 V 339.082 H 264.945 v -33.473 h 93.731 V 267.043 H 264.945 V 230.617 H 370.191 V 187.773 H 215.133 v 191.215" /><path
         id="path24"
         style="fill:#231f20;fill-opacity:1;fill-rule:nonzero;stroke:none"
         d="m 448.395,230.617 h 23.562 c 37.766,0.809 52.762,15.539 52.762,53.836 0,34.813 -18.746,51.684 -52.762,51.684 h -23.562 z m -49.817,148.371 h 82.219 c 58.652,0 93.73,-35.621 93.73,-94.804 0,-62.668 -35.617,-96.411 -93.73,-96.411 h -82.219 v 191.215" /><path
         id="path26"
         style="fill:#231f20;fill-opacity:1;fill-rule:nonzero;stroke:none"
         d="m 813.141,310.695 c -2.68,19.285 -17.676,29.461 -38.567,29.461 -32.136,0 -44.457,-28.39 -44.457,-56.777 0,-28.387 12.321,-56.774 44.457,-56.774 23.297,0 36.692,13.387 38.567,35.352 h 49.808 c -2.679,-49.277 -38.832,-78.203 -87.304,-78.203 -57.848,0 -95.336,44.187 -95.336,99.625 0,55.437 37.488,99.621 95.336,99.621 41.242,0 85.964,-26.242 87.304,-72.305 h -49.808" /><path
         id="path28"
         style="fill:#231f20;fill-opacity:1;fill-rule:nonzero;stroke:none"
         d="m 939.27,295.965 h 41.777 c 14.992,0 23.033,8.035 23.033,22.496 0,14.195 -11.252,20.621 -25.178,20.621 H 939.27 Z m -49.817,83.023 h 97.481 c 33.746,0 66.956,-15.269 66.956,-53.832 0,-20.621 -9.91,-40.172 -30,-47.937 v -0.535 c 20.36,-4.821 26.25,-27.582 27.85,-45.797 0.54,-8.032 1.34,-36.153 8.04,-43.114 h -49.28 c -4.28,6.426 -5.08,25.176 -5.62,30.532 -1.34,19.277 -4.55,39.097 -27.853,39.097 H 939.27 v -69.629 h -49.817 v 191.215" /><path
         id="path30"
         style="fill:#231f20;fill-opacity:1;fill-rule:nonzero;stroke:none"
         d="m 1082.81,378.988 h 152.38 v -39.906 h -102.57 v -33.473 h 93.73 v -38.566 h -93.73 v -36.426 h 105.25 v -42.844 h -155.06 v 191.215" /><path
         id="path32"
         style="fill:#231f20;fill-opacity:1;fill-rule:nonzero;stroke:none"
         d="m 1305.08,252.043 c 1.07,-22.492 15,-29.727 36.16,-29.727 15,0 30.53,5.36 30.53,19.551 0,16.871 -27.32,20.09 -54.9,27.852 -27.32,7.769 -55.98,20.09 -55.98,55.168 0,41.781 42.05,58.113 77.94,58.113 38.03,0 76.32,-18.477 76.59,-61.59 h -49.81 c 0.8,17.406 -15.54,23.028 -30.8,23.028 -10.71,0 -24.1,-3.75 -24.1,-16.333 0,-14.73 27.58,-17.41 55.43,-25.175 27.59,-7.766 55.44,-20.621 55.44,-55.168 0,-48.477 -41.24,-64.008 -83.29,-64.008 -43.92,0 -82.75,19.281 -83.02,68.289 h 49.81" /><path
         id="path34"
         style="fill:#231f20;fill-opacity:1;fill-rule:nonzero;stroke:none"
         d="m 1571.82,310.695 c -2.68,19.285 -17.67,29.461 -38.56,29.461 -32.14,0 -44.46,-28.39 -44.46,-56.777 0,-28.387 12.32,-56.774 44.46,-56.774 23.29,0 36.69,13.387 38.56,35.352 h 49.81 c -2.68,-49.277 -38.83,-78.203 -87.3,-78.203 -57.85,0 -95.34,44.187 -95.34,99.625 0,55.437 37.49,99.621 95.34,99.621 41.24,0 85.96,-26.242 87.3,-72.305 h -49.81" /><path
         id="path36"
         style="fill:#231f20;fill-opacity:1;fill-rule:nonzero;stroke:none"
         d="m 1648.13,378.988 h 152.39 v -39.906 h -102.57 v -33.473 h 93.73 v -38.566 h -93.73 v -36.426 h 105.24 v -42.844 h -155.06 v 191.215" /><path
         id="path38"
         style="fill:#231f20;fill-opacity:1;fill-rule:nonzero;stroke:none"
         d="m 1831.04,378.988 h 51.16 l 66.41,-117.836 h 0.53 v 117.836 h 46.88 V 187.773 h -51.16 l -66.41,119.172 h -0.54 V 187.773 h -46.87 v 191.215" /><path
         id="path40"
         style="fill:#231f20;fill-opacity:1;fill-rule:nonzero;stroke:none"
         d="m 2181.6,336.137 h -57.04 V 187.773 h -49.81 v 148.364 h -57.04 v 42.851 h 163.89 v -42.851" /><path
         id="path42"
         style="fill:#231f20;fill-opacity:1;fill-rule:nonzero;stroke:none"
         d="M 12.2461,120.559 H 85.8789 V 108 H 27.1641 V 72.3633 H 78.6563 V 59.7969 H 27.1641 V 8.46094 H 12.2461 V 120.559" /><path
         id="path44"
         style="fill:#231f20;fill-opacity:1;fill-rule:nonzero;stroke:none"
         d="m 149.781,18.3516 c 27.313,0 38.778,23.5468 38.778,46.1601 0,22.6055 -11.465,46.1563 -38.778,46.1563 -27.32,0 -38.781,-23.5508 -38.781,-46.1563 0,-22.6133 11.461,-46.1601 38.781,-46.1601 z m 0,104.8784 c 35.641,0 53.692,-28.2612 53.692,-58.7183 0,-30.457 -18.051,-58.72264 -53.692,-58.72264 -35.64,0 -53.6951,28.26564 -53.6951,58.72264 0,30.4571 18.0551,58.7183 53.6951,58.7183" /><path
         id="path46"
         style="fill:#231f20;fill-opacity:1;fill-rule:nonzero;stroke:none"
         d="m 267.688,68.9063 c 13.972,0 25.906,3.6132 25.906,19.9414 0,10.9882 -5.965,19.1523 -19.942,19.1523 h -37.05 V 68.9063 Z m -46.004,51.6527 h 52.754 c 21.042,0 34.07,-11.457 34.07,-29.3598 0,-13.5 -5.969,-24.6484 -19.469,-28.4179 v -0.3125 c 13.031,-2.5118 15.703,-12.086 16.801,-23.0821 0.941,-10.9883 0.312,-23.2265 6.594,-30.92576 h -16.645 c -4.234,4.55076 -1.883,16.64066 -4.078,27.63676 -1.574,10.9843 -4.238,20.2539 -18.688,20.2539 H 236.602 V 8.46094 H 221.684 V 120.559" /><path
         id="path48"
         style="fill:#231f20;fill-opacity:1;fill-rule:nonzero;stroke:none"
         d="m 462.367,48.9688 c 0,-28.2579 -16.172,-43.17974 -44.113,-43.17974 -28.895,0 -46.008,13.33984 -46.008,43.17974 v 71.5902 h 14.918 V 48.9688 c 0,-19.7891 11.305,-30.6172 31.09,-30.6172 18.836,0 29.195,10.8281 29.195,30.6172 v 71.5902 h 14.918 V 48.9688" /><path
         id="path50"
         style="fill:#231f20;fill-opacity:1;fill-rule:nonzero;stroke:none"
         d="m 486.074,120.559 h 15.856 l 59.031,-90.9106 h 0.316 V 120.559 H 575.41 V 8.46094 H 559.082 L 500.52,98.4219 h -0.317 V 8.46094 H 486.074 V 120.559" /><path
         id="path52"
         style="fill:#231f20;fill-opacity:1;fill-rule:nonzero;stroke:none"
         d="m 600.215,120.559 h 14.914 V 8.46094 H 600.215 V 120.559" /><path
         id="path54"
         style="fill:#231f20;fill-opacity:1;fill-rule:nonzero;stroke:none"
         d="m 665.68,108 h -37.367 v 12.559 h 89.648 V 108 H 680.598 V 8.46094 H 665.68 V 108" /><path
         id="path56"
         style="fill:#231f20;fill-opacity:1;fill-rule:nonzero;stroke:none"
         d="m 730.359,120.559 h 77.407 V 108 H 745.277 V 72.3633 h 58.246 V 59.7969 H 745.277 V 21.0195 h 62.961 V 8.46094 H 730.359 V 120.559" /><path
         id="path58"
         style="fill:#231f20;fill-opacity:1;fill-rule:nonzero;stroke:none"
         d="m 841.207,21.0195 h 24.805 c 10.203,0 37.679,2.8321 37.679,44.1211 0,26.6914 -9.89,42.8594 -37.367,42.8594 h -25.117 z m -14.918,99.5395 h 38.469 c 34.539,0 53.851,-17.27 53.851,-53.3793 0,-37.5313 -16.484,-58.71876 -53.851,-58.71876 H 826.289 V 120.559" /><path
         id="path60"
         style="fill:#231f20;fill-opacity:1;fill-rule:nonzero;stroke:none"
         d="m 999.773,54.7773 h 37.997 l -18.68,52.2817 h -0.32 z m 11.147,65.7817 h 16.49 l 43.8,-112.09806 h -16.48 L 1042.48,42.2188 H 995.063 L 982.504,8.46094 H 967.117 L 1010.92,120.559" /><path
         id="path62"
         style="fill:#231f20;fill-opacity:1;fill-rule:nonzero;stroke:none"
         d="m 1128.2,68.9063 c 13.98,0 25.91,3.6132 25.91,19.9414 0,10.9882 -5.97,19.1523 -19.94,19.1523 h -37.05 V 68.9063 Z m -46,51.6527 h 52.76 c 21.04,0 34.06,-11.457 34.06,-29.3598 0,-13.5 -5.96,-24.6484 -19.46,-28.4179 v -0.3125 c 13.03,-2.5118 15.7,-12.086 16.8,-23.0821 0.94,-10.9883 0.31,-23.2265 6.59,-30.92576 h -16.64 c -4.24,4.55076 -1.89,16.64066 -4.08,27.63676 -1.58,10.9843 -4.24,20.2539 -18.69,20.2539 h -36.42 V 8.46094 H 1082.2 V 120.559" /><path
         id="path64"
         style="fill:#231f20;fill-opacity:1;fill-rule:nonzero;stroke:none"
         d="m 1209.06,54.7773 h 37.99 l -18.68,52.2817 h -0.31 z m 11.15,65.7817 h 16.48 l 43.8,-112.09806 h -16.48 l -12.25,33.75786 h -47.41 L 1191.79,8.46094 h -15.39 l 43.81,112.09806" /><path
         id="path66"
         style="fill:#231f20;fill-opacity:1;fill-rule:nonzero;stroke:none"
         d="m 1306.4,21.0195 h 37.36 c 12.88,0 21.04,7.8516 21.04,20.0977 0,14.5976 -11.77,18.6797 -24.33,18.6797 h -34.07 z m 0,51.3438 h 29.83 c 16.96,0 23.86,6.1211 23.86,17.8945 0,15.5472 -10.98,17.7422 -23.86,17.7422 h -29.83 z m -14.92,48.1957 h 40.67 c 9.89,0 22.92,0 29.67,-4.082 7.38,-4.395 13.19,-12.403 13.19,-23.3911 0,-11.9336 -6.28,-20.8789 -16.64,-25.125 v -0.3125 c 13.81,-2.8242 21.35,-13.1836 21.35,-27 0,-16.4882 -11.78,-32.18746 -34.07,-32.18746 h -54.17 V 120.559" /><path
         id="path68"
         style="fill:#231f20;fill-opacity:1;fill-rule:nonzero;stroke:none"
         d="m 1442.68,120.559 h 77.4 V 108 h -62.49 V 72.3633 h 58.25 V 59.7969 h -58.25 V 21.0195 h 62.96 V 8.46094 h -77.87 V 120.559" /><path
         id="path70"
         style="fill:#231f20;fill-opacity:1;fill-rule:nonzero;stroke:none"
         d="m 1538.92,120.559 h 20.41 l 35.32,-94.1996 35.49,94.1996 h 20.41 V 8.46094 h -14.13 V 101.723 h -0.32 L 1601.09,8.46094 h -12.72 l -35.01,93.26206 h -0.31 V 8.46094 h -14.13 V 120.559" /><path
         id="path72"
         style="fill:#231f20;fill-opacity:1;fill-rule:nonzero;stroke:none"
         d="m 1675.98,120.559 h 14.91 V 8.46094 h -14.91 V 120.559" /><path
         id="path74"
         style="fill:#231f20;fill-opacity:1;fill-rule:nonzero;stroke:none"
         d="m 1762.01,68.9063 c 13.98,0 25.91,3.6132 25.91,19.9414 0,10.9882 -5.97,19.1523 -19.94,19.1523 h -37.05 V 68.9063 Z m -46,51.6527 h 52.75 c 21.04,0 34.07,-11.457 34.07,-29.3598 0,-13.5 -5.96,-24.6484 -19.47,-28.4179 v -0.3125 c 13.04,-2.5118 15.7,-12.086 16.81,-23.0821 0.93,-10.9883 0.31,-23.2265 6.59,-30.92576 h -16.64 c -4.24,4.55076 -1.89,16.64066 -4.08,27.63676 -1.58,10.9843 -4.24,20.2539 -18.7,20.2539 h -36.41 V 8.46094 h -14.92 V 120.559" /><path
         id="path76"
         style="fill:#231f20;fill-opacity:1;fill-rule:nonzero;stroke:none"
         d="m 1842.87,54.7773 h 37.99 l -18.68,52.2817 h -0.31 z m 11.14,65.7817 h 16.49 L 1914.31,8.46094 h -16.49 l -12.25,33.75786 h -47.42 L 1825.6,8.46094 h -15.39 l 43.8,112.09806" /><path
         id="path78"
         style="fill:#231f20;fill-opacity:1;fill-rule:nonzero;stroke:none"
         d="m 1936.32,108 h -37.37 v 12.559 h 89.64 V 108 h -37.36 V 8.46094 h -14.91 V 108" /><path
         id="path80"
         style="fill:#231f20;fill-opacity:1;fill-rule:nonzero;stroke:none"
         d="m 2001,120.559 h 77.4 V 108 h -62.49 V 72.3633 h 58.25 V 59.7969 h -58.25 V 21.0195 h 62.96 V 8.46094 H 2001 V 120.559" /><path
         id="path82"
         style="fill:#231f20;fill-opacity:1;fill-rule:nonzero;stroke:none"
         d="m 2161.77,87.75 c -1.73,16.012 -12.4,22.918 -27.8,22.918 -12.55,0 -25.11,-4.551 -25.11,-19.1524 0,-13.8164 17.9,-15.8593 35.95,-19.9414 17.9,-4.082 35.8,-10.3594 35.8,-32.3437 0,-23.8711 -23.39,-33.44144 -43.8,-33.44144 -25.13,0 -46.32,12.25004 -46.32,39.56644 h 14.13 c 0,-18.836 15.7,-27.0039 32.66,-27.0039 13.49,0 28.41,4.2382 28.41,20.4101 0,15.3828 -17.9,18.0586 -35.8,21.9844 -17.9,3.9219 -35.94,9.1016 -35.94,29.6719 0,22.766 20.24,32.812 40.66,32.812 22.92,0 40.34,-10.835 41.29,-35.48 h -14.13" /><g
         transform="scale(10)"
         id="g84"><text
           id="text88"
           style="font-variant:normal;font-weight:900;font-size:24.62269974px;font-family:HelveticaNeue;-inkscape-font-specification:HelveticaNeue-Heavy;writing-mode:lr-tb;fill:#00adef;fill-opacity:1;fill-rule:nonzero;stroke:none"
           transform="matrix(1,0,0,-1,0.741797,82.2254)"><tspan
             id="tspan86"
             y="0"
             x="0 17.334595 35.111816 52.446411 70.224213 77.978897 96.667175 104.42336 120.8461 140.00235 158.69077 166.44611 183.31265 199.26816">ARABIC SOCIETY</tspan></text>
<text
           id="text92"
           style="font-variant:normal;font-weight:normal;font-size:15.70020008px;font-family:HelveticaNeue;-inkscape-font-specification:HelveticaNeue-Roman;writing-mode:lr-tb;fill:#00adef;fill-opacity:1;fill-rule:nonzero;stroke:none"
           transform="matrix(1,0,0,-1,-1.03e-4,64.7996)"><tspan
             id="tspan90"
             y="0"
             x="0 11.335545 21.509274 35.184147 44.77697 49.141624 60.477169 70.068703 80.823608 90.41671 94.781639 100.8878 106.99518 113.103 119.21006 125.31712 131.42418 137.53191 143.63928 149.74666 155.85403 161.96141 168.06879 174.17616 180.28354 186.38971 192.49709 198.60378 204.71115 210.81853">NAME HERE --------------------</tspan></text>
</g></g></g></svg>