<?xml version="1.0" encoding="UTF-8" standalone="no"?>
<svg
   xmlns:dc="http://purl.org/dc/elements/1.1/"
   xmlns:cc="http://creativecommons.org/ns#"
   xmlns:rdf="http://www.w3.org/1999/02/22-rdf-syntax-ns#"
   xmlns:svg="http://www.w3.org/2000/svg"
   xmlns="http://www.w3.org/2000/svg"
   viewBox="0 0 243.88 94.866669"
   height="94.866669"
   width="243.88"
   xml:space="preserve"
   id="svg2"
   version="1.1"><metadata
     id="metadata8"><rdf:RDF><cc:Work
         rdf:about=""><dc:format>image/svg+xml</dc:format><dc:type
           rdf:resource="http://purl.org/dc/dcmitype/StillImage" /><dc:title></dc:title></cc:Work></rdf:RDF></metadata><defs
     id="defs6" /><g
     transform="matrix(1.3333333,0,0,-1.3333333,0,94.866667)"
     id="g10"><g
       transform="scale(0.1)"
       id="g12"><path
         id="path14"
         style="fill:#231f20;fill-opacity:1;fill-rule:nonzero;stroke:none"
         d="m 1070.3,415.434 h 114.76 c 5.65,0 11.31,2.101 16.47,6.718 5.17,4.2 7.54,8.821 7.54,13.446 v 234.355 h -43.28 V 453.234 h -72.45 v 95.758 h -43.28 V 439.375 c 0,-5.043 1.9,-10.082 6.12,-15.543 3.77,-5.457 8.47,-8.398 14.12,-8.398" /><path
         id="path16"
         style="fill:#231f20;fill-opacity:1;fill-rule:nonzero;stroke:none"
         d="M 816.832,669.953 H 775.434 V 491.035 H 696.41 v -38.64 h 120.422 v 217.558" /><path
         id="path18"
         style="fill:#231f20;fill-opacity:1;fill-rule:nonzero;stroke:none"
         d="m 1786.8,452.395 h 42.3477 V 670.372 H 1786.8 Z" /><path
         id="path20"
         style="fill:#231f20;fill-opacity:1;fill-rule:nonzero;stroke:none"
         d="m 1249.05,516.234 h 48.4492 V 669.953 H 1249.05 Z" /><path
         id="path22"
         style="fill:#231f20;fill-opacity:1;fill-rule:nonzero;stroke:none"
         d="m 1576.08,491.453 h -29.16 v 36.121 c 6.58,-1.261 13.16,-5.039 19.75,-11.34 6.11,-6.3 9.41,-12.601 9.41,-18.48 z m -72.91,0 h -29.18 v 6.723 c 0,5.457 3.3,11.758 9.88,18.48 6.58,6.719 13.19,10.496 19.3,10.918 z m 212.15,178.918 V 491.035 h -92.68 c -2.81,23.942 -9.41,41.996 -20.23,53.34 -10.8,11.34 -29.63,20.996 -55.49,28.559 v 15.539 h -43.28 c 0,-7.141 -0.47,-12.18 -0.94,-15.957 -24.94,-6.727 -42.81,-16.383 -53.16,-28.981 -9.42,-11.344 -15.53,-28.558 -18.81,-52.5 h -42.44 v 178.918 h -48.93 V 491.035 h -90.31 v -38.64 h 506.72 v 217.976 h -40.45" /><path
         id="path24"
         style="fill:#231f20;fill-opacity:1;fill-rule:nonzero;stroke:none"
         d="M 854.938,452.395 H 897.27 V 670.372 H 854.938 Z" /><path
         id="path26"
         style="fill:#231f20;fill-opacity:1;fill-rule:nonzero;stroke:none"
         d="m 261.773,470.035 h -45.16 v 42.836 h 19.285 c 5.176,0 10.821,-2.519 16.934,-7.976 6.117,-5.461 8.941,-10.5 8.941,-15.118 z m 378.661,101.219 c -15.528,10.5 -30.575,15.539 -46.102,15.539 h -96.43 v -37.801 h 86.082 c 9.879,0 19.289,-2.515 27.286,-7.562 7.992,-5.039 11.757,-11.758 11.757,-20.575 v -29.82 H 304.105 c 0.469,15.539 -4.699,28.981 -15.05,40.738 -10.348,11.344 -23.992,17.219 -40.926,17.219 h -73.852 v -57.957 h -67.265 v 57.957 H 63.7344 V 439.375 c 0,-13.863 -3.7617,-21.84 -11.2891,-24.781 -3.293,-1.258 -14.582,-2.098 -33.8711,-2.098 v -36.543 h 36.2227 c 22.1094,0 37.1601,8.824 45.1601,26.039 4.703,10.504 7.055,27.301 7.055,50.403 h 66.324 c 0.469,-7.981 1.879,-13.442 4.703,-16.379 2.824,-2.946 8.469,-4.625 17.406,-4.625 h 107.25 v 21.004 h 333.977 c 6.113,0 12.699,2.097 19.285,6.718 6.113,4.203 9.41,9.242 9.41,14.7 v 60.48 c 0,13.441 -8.472,25.617 -24.933,36.961" /><path
         id="path28"
         style="fill:#231f20;fill-opacity:1;fill-rule:nonzero;stroke:none"
         d="m 697.348,514.555 h 40.4609 V 669.114 H 697.348 Z" /><path
         id="path30"
         style="fill:#231f20;fill-opacity:1;fill-rule:nonzero;stroke:none"
         d="m 741.098,680.875 v 7.137 h -1.883 c -15.996,0.422 -23.988,2.519 -23.988,6.718 0,5.04 5.168,7.559 15.988,7.559 0.949,0 2.824,0 5.176,0 2.355,0 3.761,0 4.707,0 v 9.246 h -21.641 c -4.23,0 -7.523,-1.262 -10.344,-4.199 -3.297,-2.941 -4.707,-5.887 -4.707,-9.664 0,-0.84 0.473,-2.52 1.41,-4.621 0.473,-2.098 0.942,-3.778 0.942,-5.039 h -8.934 v -10.078 h 41.391 c 0.937,1.261 1.414,2.101 1.883,2.941" /><path
         id="path32"
         style="fill:#231f20;fill-opacity:1;fill-rule:nonzero;stroke:none"
         d="m 1083.64,298.828 c 0,2.09 -0.82,3.985 -2.29,5.508 -1.46,1.523 -3.55,2.285 -5.86,2.285 -2.3,0 -4.39,-0.762 -6.05,-2.09 -1.68,-1.336 -2.52,-3.242 -2.52,-5.332 0,-5.125 2.71,-7.785 8.36,-7.785 5.64,0 8.36,2.473 8.36,7.414" /><path
         id="path34"
         style="fill:#231f20;fill-opacity:1;fill-rule:nonzero;stroke:none"
         d="m 311.406,304.902 c -1.883,-1.328 -2.718,-2.851 -2.718,-4.558 v -2.094 c 0,-1.902 0.835,-3.418 2.3,-4.742 1.465,-1.34 3.344,-2.094 5.223,-2.094 6.059,0 9.195,2.473 9.195,7.414 0,2.09 -0.836,3.985 -2.297,5.508 -1.671,1.523 -3.761,2.285 -6.062,2.285 -2.09,0 -3.969,-0.574 -5.641,-1.719" /><path
         id="path36"
         style="fill:#231f20;fill-opacity:1;fill-rule:nonzero;stroke:none"
         d="M 58.5195,259.871 H 29.0469 c -1.4571,0 -3.1328,0.949 -4.8047,2.668 -1.668,1.699 -2.5078,3.418 -2.5078,4.941 0,1.7 0.8398,3.418 2.5078,4.93 1.4648,1.528 3.3476,2.278 5.2266,2.278 h 29.0507 z m 0,43.324 V 292.93 c -1.4648,0 -3.7617,0 -7.3125,0.195 h -8.3632 c -12.75,0 -22.3594,-1.328 -28.8399,-4.18 C 4.59375,284.961 0,277.734 0,267.285 c 0,-6.648 2.92578,-12.539 8.98438,-17.48 5.85542,-4.942 12.54292,-7.41 20.06252,-7.41 h 26.9648 l 2.7149,3.035 2.5078,-3.035 H 79.418 v 60.8 H 58.5195" /><path
         id="path38"
         style="fill:#231f20;fill-opacity:1;fill-rule:nonzero;stroke:none"
         d="m 466.895,242.395 h 18.8086 v 98.6133 H 466.895 Z" /><path
         id="path40"
         style="fill:#231f20;fill-opacity:1;fill-rule:nonzero;stroke:none"
         d="m 1679.71,259.121 h -16.31 v 13.672 c 0,2.852 1.25,5.891 3.77,8.742 2.5,2.852 5.43,4.18 8.56,4.18 h 3.98 z m -7.32,43.692 c -6.9,0 -13.17,-2.852 -19.03,-8.739 -5.84,-5.89 -8.77,-12.16 -8.77,-18.429 v -33.438 h 34.28 c 0,-7.598 -1.05,-12.539 -2.93,-14.824 -1.87,-2.473 -5.64,-3.613 -11.29,-3.613 -1.46,0 -4.39,0.195 -8.77,0.39 -4.39,0.188 -8.16,0.371 -11.29,0.371 v -16.718 h 29.89 c 6.89,0 12.95,2.656 17.77,7.988 4.38,4.933 6.68,10.637 6.68,17.285 v 69.727 h -26.54" /><path
         id="path42"
         style="fill:#231f20;fill-opacity:1;fill-rule:nonzero;stroke:none"
         d="m 51.832,310.801 c 1.668,1.328 2.5078,3.222 2.5078,5.312 0,2.09 -0.8398,3.797 -2.2968,5.508 -1.6758,1.524 -3.7657,2.285 -6.0664,2.285 -5.6407,0 -8.3594,-2.468 -8.3594,-7.597 0,-5.137 2.7187,-7.598 8.1562,-7.598 2.293,0 4.3868,0.754 6.0586,2.09" /><path
         id="path44"
         style="fill:#231f20;fill-opacity:1;fill-rule:nonzero;stroke:none"
         d="m 565.746,315.918 c 0,2.09 -0.832,3.992 -2.504,5.703 -1.676,1.524 -3.554,2.285 -5.855,2.285 -5.637,0 -8.36,-2.656 -8.36,-7.793 0,-5.136 2.723,-7.597 8.36,-7.597 5.644,0 8.359,2.461 8.359,7.402" /><path
         id="path46"
         style="fill:#231f20;fill-opacity:1;fill-rule:nonzero;stroke:none"
         d="m 645.586,233.281 c -1.879,-1.718 -2.719,-3.613 -2.719,-5.898 0,-5.891 3.141,-8.738 9.41,-8.738 6.059,0 8.985,2.664 8.985,8.171 0,5.887 -2.926,8.731 -8.985,8.731 -2.722,0 -4.812,-0.75 -6.691,-2.266" /><path
         id="path48"
         style="fill:#231f20;fill-opacity:1;fill-rule:nonzero;stroke:none"
         d="m 587.066,315.734 c 0,5.125 -2.714,7.793 -8.148,7.793 -5.438,0 -8.152,-2.472 -8.152,-7.609 0,-2.09 0.836,-3.789 2.3,-5.313 1.461,-1.718 3.34,-2.468 5.641,-2.468 5.645,0 8.359,2.468 8.359,7.597" /><path
         id="path50"
         style="fill:#231f20;fill-opacity:1;fill-rule:nonzero;stroke:none"
         d="m 24.0352,308.711 c 2.2968,0 4.3867,0.754 6.0586,2.09 1.6757,1.328 2.5078,3.222 2.5078,5.508 0,5.129 -2.7149,7.597 -8.3594,7.597 -5.6445,0 -8.3594,-2.468 -8.3594,-7.414 0,-2.086 0.836,-3.992 2.3008,-5.515 1.4609,-1.512 3.5508,-2.266 5.8516,-2.266" /><path
         id="path52"
         style="fill:#231f20;fill-opacity:1;fill-rule:nonzero;stroke:none"
         d="m 1356.59,232.703 c 0,-1.336 0.43,-2.664 1.27,-3.797 -0.63,-0.195 -2.09,-0.379 -4.18,-0.379 v -4.367 h 18.81 v 4.367 h -0.84 c -2.09,0 -4.18,0 -6.27,0 -2.72,0.379 -3.97,1.328 -3.97,3.036 0,2.089 2.29,3.046 6.68,3.046 0.39,0 1.83,0 4.4,0 v 4.551 h -9.63 c -4.18,0 -6.27,-2.09 -6.27,-6.457" /><path
         id="path54"
         style="fill:#231f20;fill-opacity:1;fill-rule:nonzero;stroke:none"
         d="m 1506.24,316.113 c 0,-5.136 2.71,-7.597 8.35,-7.597 5.65,0 8.36,2.461 8.36,7.402 0,2.09 -0.84,3.992 -2.5,5.703 -1.68,1.524 -3.55,2.285 -5.86,2.285 -5.64,0 -8.35,-2.656 -8.35,-7.793" /><path
         id="path56"
         style="fill:#231f20;fill-opacity:1;fill-rule:nonzero;stroke:none"
         d="m 912.895,259.871 h -63.543 c -3.137,0 -6.27,1.34 -8.985,4.184 -2.715,2.851 -4.179,5.703 -4.179,8.543 0,8.937 8.574,13.496 25.71,13.496 1.875,0 4.18,0 7.102,-0.196 2.93,-0.183 4.805,-0.183 5.645,-0.183 v 17.48 h -22.364 c -9.824,0 -17.765,-2.09 -24.238,-6.269 -7.109,-4.758 -10.664,-11.594 -10.664,-20.149 0,-6.64 2.305,-12.343 6.687,-16.906 h -10.652 -8.156 -14.004 v 26.223 h -19.227 v -49.59 c 0,-6.27 -1.672,-9.883 -5.019,-11.211 -1.457,-0.566 -6.477,-0.945 -15.039,-0.945 v -16.535 h 16.082 c 9.824,0 16.515,3.984 20.07,11.777 2.09,4.758 3.133,12.355 3.133,22.805 h 14.004 8.156 75.234 7.735 34.476 v 98.613 h -17.964 v -81.137" /><path
         id="path58"
         style="fill:#231f20;fill-opacity:1;fill-rule:nonzero;stroke:none"
         d="m 1548.87,259.492 h -28.63 c -2.31,0 -4.18,0.762 -5.65,2.285 -1.66,1.328 -2.5,3.039 -2.5,5.129 0,1.903 0.84,3.602 2.72,5.321 1.87,1.711 3.75,2.461 5.84,2.461 h 28.22 z m 62.91,81.516 v -81.137 h -42.01 v 42.942 h -20.9 v -10.254 c -1.46,0 -3.77,0 -7.3,0.183 h -7.95 c -12.97,0 -22.78,-1.328 -29.26,-4.176 -9.41,-3.996 -14,-11.027 -14,-21.281 0,-5.898 2.71,-11.59 7.93,-16.914 5.23,-5.312 11.29,-7.976 17.77,-7.976 h 30.31 c 0.63,0.945 1.47,1.902 2.72,3.035 l 2.5,-3.035 h 78.16 v 98.613 h -17.97" /><path
         id="path60"
         style="fill:#231f20;fill-opacity:1;fill-rule:nonzero;stroke:none"
         d="m 295.313,306.621 c -5.645,0 -8.36,-2.48 -8.36,-7.422 0,-2.09 0.836,-3.984 2.297,-5.508 1.465,-1.523 3.555,-2.277 5.852,-2.277 2.3,0 4.39,0.754 6.062,2.277 1.672,1.329 2.508,3.235 2.508,5.325 0,5.125 -2.719,7.605 -8.359,7.605" /><path
         id="path62"
         style="fill:#231f20;fill-opacity:1;fill-rule:nonzero;stroke:none"
         d="m 1424.11,242.395 h 18.8125 v 98.6133 H 1424.11 Z" /><path
         id="path64"
         style="fill:#231f20;fill-opacity:1;fill-rule:nonzero;stroke:none"
         d="m 1388.77,259.871 h -35.09 v -17.476 h 53.49 v 98.425 h -18.4 v -80.949" /><path
         id="path66"
         style="fill:#231f20;fill-opacity:1;fill-rule:nonzero;stroke:none"
         d="m 1158.89,208.195 h 16.51 c 5.43,0 10.66,2.274 15.46,6.649 4.81,4.375 7.31,8.926 7.31,13.867 v 74.484 h -19.22 v -71.25 c 0,-3.8 -2.71,-6.086 -7.95,-7.035 -0.84,0 -4.8,0 -12.11,0 v -16.715" /><path
         id="path68"
         style="fill:#231f20;fill-opacity:1;fill-rule:nonzero;stroke:none"
         d="m 669.828,233.086 c -1.879,-1.719 -2.715,-3.809 -2.715,-5.898 0,-2.461 0.836,-4.551 2.508,-6.27 1.672,-1.699 3.762,-2.656 6.477,-2.656 6.269,0 9.406,2.851 9.406,8.554 0,2.461 -0.836,4.551 -2.715,6.27 -1.879,1.711 -4.18,2.461 -6.898,2.461 -2.301,0 -4.391,-0.75 -6.063,-2.461" /><path
         id="path70"
         style="fill:#231f20;fill-opacity:1;fill-rule:nonzero;stroke:none"
         d="m 1319.59,250.371 h -20.05 v 19.387 h 6.48 c 3.13,0 6.27,-1.145 9.2,-3.613 2.93,-2.473 4.37,-5.129 4.37,-7.981 z m 8.79,30.215 c -6.27,3.613 -12.12,5.508 -17.77,5.508 h -29.88 v -26.223 h -45.35 v 81.516 h -19.22 v -98.992 h 64.57 c -0.22,-6.274 2.09,-9.504 6.89,-9.504 h 50.78 v 34.394 c 0,4.746 -3.34,9.309 -10.02,13.301" /><path
         id="path72"
         style="fill:#231f20;fill-opacity:1;fill-rule:nonzero;stroke:none"
         d="m 393.957,250.371 h -20.066 v 20.137 h 3.765 c 8.36,0 13.375,-2.656 15.043,-7.781 0.84,-2.09 1.258,-3.235 1.258,-3.039 z m 38.875,90.449 v -80.949 h -19.019 l -1.043,0.578 c 0.203,8.164 -2.301,14.434 -7.524,19.18 -5.226,4.57 -12.547,6.848 -21.531,6.848 h -28.84 v -26.606 h -34.902 v 26.223 h -18.809 c 0,-3.985 0.207,-8.36 0.629,-12.735 0.203,-4.55 0.414,-7.214 0.414,-7.793 0,-3.601 -1.879,-5.507 -5.434,-5.695 h -26.75 c 0,12.727 -1.464,22.238 -4.386,28.508 -4.391,9.687 -13.172,14.434 -25.918,14.434 h -44.52 v -17.098 c 1.465,0 5.231,0.183 11.5,0.762 6.059,0.378 11.074,0.574 15.043,0.574 19.649,0 29.473,-5.137 29.473,-15.203 v -11.977 h -97.602 v 15.395 c 0,6.843 -3.554,13.113 -10.453,18.992 -6.894,5.703 -14.211,8.555 -21.523,8.555 H 95.5078 v -17.098 c 11.9142,0 19.6482,-0.188 22.7852,-0.754 10.656,-1.719 16.094,-5.898 16.094,-12.734 V 259.121 H 95.5078 V 242.395 H 354.664 c 0.84,-3.997 1.676,-6.457 2.508,-7.415 1.465,-1.328 4.391,-2.089 8.984,-2.089 h 45.985 v 9.504 h 39.5 v 98.425 h -18.809" /><path
         id="path74"
         style="fill:#231f20;fill-opacity:1;fill-rule:nonzero;stroke:none"
         d="m 1527.97,315.918 c 0,-2.09 0.84,-3.789 2.31,-5.313 1.46,-1.718 3.34,-2.468 5.64,-2.468 5.65,0 8.36,2.468 8.36,7.597 0,5.125 -2.71,7.793 -8.16,7.793 -5.43,0 -8.15,-2.472 -8.15,-7.609" /><path
         id="path76"
         style="fill:#231f20;fill-opacity:1;fill-rule:nonzero;stroke:none"
         d="m 1811.16,341.008 v -81.137 h -39.49 v 15.395 c 0,6.843 -3.56,13.113 -10.45,18.992 -6.9,5.703 -14.22,8.555 -21.53,8.555 h -26.13 v -17.098 c 11.91,0 19.65,-0.188 22.77,-0.754 10.67,-1.719 16.1,-5.898 16.1,-12.734 v -13.106 h -38.87 v -16.726 h 73.36 9.82 32.41 v 98.613 h -17.99" /><path
         id="path78"
         style="fill:#231f20;fill-opacity:1;fill-rule:nonzero;stroke:none"
         d="m 712.258,229.277 c 0,-2.277 0.832,-4.179 2.715,-5.507 1.672,-1.512 3.761,-2.278 6.273,-2.278 2.09,0 3.965,0.766 5.43,2.473 1.465,1.523 2.293,3.223 2.293,5.312 0,4.942 -2.715,7.422 -8.36,7.422 -5.636,0 -8.351,-2.48 -8.351,-7.422" /><path
         id="path80"
         style="fill:#231f20;fill-opacity:1;fill-rule:nonzero;stroke:none"
         d="m 1061.9,299.016 c 0,5.125 -2.72,7.605 -8.14,7.605 -5.43,0 -8.15,-2.48 -8.15,-7.422 0,-5.125 2.72,-7.785 7.93,-7.785 5.64,0 8.36,2.473 8.36,7.602" /><path
         id="path82"
         style="fill:#231f20;fill-opacity:1;fill-rule:nonzero;stroke:none"
         d="m 1011.74,286.477 v -35.539 c 0,-1.7 0.84,-3.606 2.31,-5.508 1.46,-2.09 3.14,-3.035 5.02,-3.035 h 89.86 c 1.47,0 2.72,0.761 3.97,2.468 1.05,1.524 1.68,3.047 1.68,4.375 v 37.239 h -19.03 v -24.512 l -2.93,-2.473 h -58.51 c -2.72,0 -4.18,4.563 -4.18,13.684 0,2.469 0.21,6.844 0.62,13.301 h -18.81" /><path
         id="path84"
         style="fill:#231f20;fill-opacity:1;fill-rule:nonzero;stroke:none"
         d="m 1128.99,242.395 h 18.8125 v 98.6133 H 1128.99 Z" /><path
         id="path86"
         style="fill:#231f20;fill-opacity:1;fill-rule:nonzero;stroke:none"
         d="m 944.648,242.395 h 18.8281 v 98.6133 H 944.648 Z" /><path
         id="path88"
         style="fill:#231f20;fill-opacity:1;fill-rule:nonzero;stroke:none"
         d="m 591.668,259.492 h -28.637 c -2.297,0 -4.179,0.762 -5.644,2.285 -1.668,1.328 -2.504,3.039 -2.504,5.129 0,1.903 0.836,3.602 2.715,5.321 1.879,1.711 3.765,2.461 5.855,2.461 h 28.215 z m 126.437,26.985 v -24.133 c 0,-0.567 -0.625,-1.524 -1.878,-2.473 h -32.813 v 26.606 h -20.898 c 0,-3.43 0.211,-7.219 0.418,-11.594 0.207,-4.375 0.207,-6.836 0.207,-7.793 0,-3.223 -0.414,-5.508 -1.461,-6.453 -1.043,-0.949 -3.344,-1.516 -6.481,-1.516 -0.418,0 -5.222,0.176 -14.211,0.75 h -28.425 v 42.942 h -20.895 v -10.254 c -1.469,0 -3.762,0 -7.316,0.183 h -7.946 c -12.953,0 -22.777,-1.328 -29.258,-4.176 -9.402,-3.996 -14.003,-11.027 -14.003,-21.281 0,-5.898 2.718,-11.59 7.945,-16.914 5.223,-5.312 11.285,-7.976 17.762,-7.976 h 30.304 c 0.629,0.945 1.465,1.902 2.719,3.035 l 2.504,-3.035 h 136.055 c 1.261,0 2.714,0.574 4.394,1.902 1.672,1.328 2.512,2.461 2.512,3.613 v 38.567 h -19.235" /><path
         id="path90"
         style="fill:#231f20;fill-opacity:1;fill-rule:nonzero;stroke:none"
         d="m 1354.09,270.508 h 17.9688 v 69.9219 H 1354.09 Z" /><path
         id="path92"
         style="fill:#ee2628;fill-opacity:1;fill-rule:nonzero;stroke:none"
         d="m 1354.17,40.8008 h -64.44 c -3.18,0 -6.37,1.3867 -9.12,4.3945 -2.75,2.9883 -4.24,5.9961 -4.24,9.0039 0,9.3946 8.69,14.1992 26.08,14.1992 1.91,0 4.23,0 7.2,-0.2148 2.97,-0.1953 4.89,-0.1953 5.73,-0.1953 v 18.3984 h -22.68 c -9.96,0 -18.03,-2.1875 -24.59,-6.6015 -7.23,-5 -10.82,-12.1875 -10.82,-21.1914 0,-6.9922 2.32,-13.0079 6.78,-17.793 h -36.25 v 28.3984 h -19.71 V 43.5938 c 0,-0.4102 -0.64,-1.4063 -1.91,-2.793 h -85 v 85.8012 h -19.52 V 22.4023 h 270.73 V 126.191 h -18.24 z M 876.547,16.3867 c -5.723,0 -8.484,-2.5976 -8.484,-7.79295 0,-2.40234 0.847,-4.39453 2.761,-5.80078 1.692,-1.60156 3.809,-2.402345 6.36,-2.402345 2.117,0 4.023,0.800785 5.507,2.597655 1.485,1.60156 2.332,3.39844 2.332,5.60547 0,5.19535 -2.753,7.79295 -8.476,7.79295 z m 340.473,59.8047 c 5.5,0 8.26,2.5977 8.26,7.5977 0,5.4101 -2.76,8.2031 -8.26,8.2031 -5.73,0 -8.48,-2.5977 -8.48,-8.0078 0,-5.1953 2.75,-7.793 8.48,-7.793 z M 998.867,40.3906 h -29.043 c -2.324,0 -4.238,0.8008 -5.722,2.4024 -1.7,1.4062 -2.539,3.2031 -2.539,5.3906 0,2.0117 0.839,3.8086 2.753,5.6055 1.895,1.7968 3.809,2.5976 5.938,2.5976 h 28.613 z m 67.833,16.4063 c 0.22,-4.6094 0.22,-7.2071 0.22,-8.2031 0,-3.3985 -0.63,-5.4102 -1.7,-6.4063 -1.05,-0.9961 -3.59,-1.6016 -7.42,-1.3867 h -37.74 V 85.9961 H 998.867 V 75.1953 c -1.484,0 -3.808,0 -7.422,0.1953 h -8.047 c -13.144,0 -23.105,-1.4062 -29.687,-4.3945 -9.531,-4.1992 -14.199,-11.6016 -14.199,-22.4023 0,-6.1915 2.754,-12.2071 8.047,-17.793 5.312,-5.6055 11.445,-8.3985 18.027,-8.3985 h 30.742 c 0.625,0.9961 1.485,1.9922 2.754,3.1836 l 2.548,-3.1836 h 75.46 c 1.49,0 3.4,0.586 5.32,1.5821 1.89,1.0156 2.97,2.4023 2.97,3.8086 v 40.9961 h -19.09 c 0,-3.5938 0.2,-7.5977 0.41,-11.9922 z m 319.69,69.3941 V 22.4023 h 19.08 V 126.191 Z M 985.723,91.6016 c 5.722,0 8.476,2.5976 8.476,7.9882 0,5.4102 -2.754,8.2032 -8.261,8.2032 -5.508,0 -8.262,-2.598 -8.262,-8.0078 0,-2.1875 0.84,-3.9844 2.324,-5.586 1.484,-1.7969 3.398,-2.5976 5.723,-2.5976 z m 88.407,-75.6055 c -5.73,0 -8.7,-2.5977 -8.7,-8.00782 0,-2.1875 0.86,-4.19922 2.54,-5.58594 C 1069.46,0.800781 1071.59,0 1073.91,0 c 5.72,0 8.5,2.59766 8.5,7.98828 0,5.41012 -2.78,8.00782 -8.28,8.00782 z M 964.102,91.9922 c 5.722,0 8.476,2.5976 8.476,7.793 0,2.2068 -0.84,4.1988 -2.539,6.0158 -1.699,1.601 -3.613,2.383 -5.937,2.383 -5.723,0 -8.477,-2.793 -8.477,-8.184 0,-5.4102 2.754,-8.0078 8.477,-8.0078 z m 87.978,-75.9961 c -5.51,0 -8.27,-2.5977 -8.27,-7.81251 0,-2.1875 0.84,-4.19921 2.33,-5.78125 C 1047.62,0.800781 1049.54,0 1051.88,0 c 5.72,0 8.48,2.59766 8.48,7.98828 0,5.41012 -2.76,8.00782 -8.28,8.00782 z M 874,43.3984 c 0,-0.6054 -0.637,-1.6015 -1.906,-2.5976 h -44.09 V 126.602 H 808.492 V 22.4023 h 78.016 c 1.269,0 2.754,0.586 4.453,1.9922 1.699,1.4063 2.551,2.5977 2.551,3.7891 V 68.7891 H 874 Z M 776.422,22.793 h -26.988 l 0.062,45.6054 v 2.9883 c 0,6.4063 -3.808,12.2071 -11.23,17.5977 -7,5 -13.778,7.4023 -20.782,7.4023 H 674.027 V 78.3984 h 38.797 c 4.453,0 8.696,-1.2109 12.297,-3.6132 3.606,-2.3829 5.297,-5.586 5.297,-9.7852 V 50.8008 H 624.633 v 27.9883 h -21.199 c 0,-3.5938 0.214,-7.5977 0.425,-12.1875 0.207,-4.6094 0.207,-7.2071 0.207,-8.2032 0,-3.3984 -0.418,-5.8007 -1.476,-6.7968 C 601.523,50.5859 599.195,50 596.016,50 c -0.426,0 -5.301,0.1953 -14.418,0.8008 h -42.399 v 85.8012 h -19.5 V 32.4023 H 735.094 V 16.1914 c 0,-2.4023 0.672,-4.8047 2.187,-7.40234 1.348,-2.59765 3.028,-4.0039 5.039,-4.0039 h 40.996 c 2.012,0 4.024,1.01562 5.879,3.20312 1.848,2.01172 2.684,4.19922 2.684,6.40622 V 125.996 h -15.457 z m -309.723,79.395 c 2.328,0 4.453,0.8 6.149,2.207 1.695,1.406 2.543,3.398 2.543,5.605 0,2.188 -0.848,3.984 -2.332,5.801 -1.696,1.601 -3.817,2.383 -6.149,2.383 -5.722,0 -8.48,-2.598 -8.48,-7.989 0,-5.41 2.758,-8.007 8.269,-8.007 z m -22.051,0 c 2.336,0 4.454,0.8 6.149,2.207 1.699,1.406 2.543,3.398 2.543,5.8 0,5.391 -2.754,7.989 -8.477,7.989 -5.726,0 -8.48,-2.598 -8.48,-7.793 0,-2.207 0.847,-4.2 2.332,-5.801 1.484,-1.602 3.605,-2.402 5.933,-2.402 z M 617.004,25.1953 c -2.336,0 -4.453,-0.8008 -6.149,-2.5976 -1.91,-1.7969 -2.757,-4.0039 -2.757,-6.211 0,-2.5976 0.847,-4.7851 2.543,-6.60154 1.699,-1.79688 3.816,-2.79297 6.57,-2.79297 6.363,0 9.543,3.00781 9.543,9.00391 0,2.5977 -0.852,4.8047 -2.754,6.6016 -1.91,1.7968 -4.242,2.5976 -6.996,2.5976 z m -23.957,0 c -2.758,0 -4.879,-0.8008 -6.785,-2.4023 -1.907,-1.7969 -2.754,-3.8086 -2.754,-6.1914 0,-6.211 3.176,-9.19926 9.539,-9.19926 6.148,0 9.117,2.79296 9.117,8.59376 0,6.1914 -2.969,9.1992 -9.117,9.1992 z M 479.629,50.8008 h -29.891 c -1.484,0 -3.179,0.9961 -4.875,2.793 -1.699,1.7968 -2.543,3.5937 -2.543,5.1953 0,1.7968 0.844,3.6132 2.543,5.1953 1.485,1.6015 3.391,2.4023 5.297,2.4023 h 29.469 z m 0,34.7851 c -1.484,0 -3.813,0 -7.418,0.2149 h -8.481 c -12.933,0 -22.683,-1.4063 -29.257,-4.4141 -9.539,-4.1992 -14.203,-11.7969 -14.203,-22.7929 0,-6.9922 2.968,-13.2032 9.117,-18.3985 5.937,-5.1953 12.718,-7.793 20.351,-7.793 h 27.348 l 2.758,3.1836 2.543,-3.1836 h 18.445 V 96.3867 H 479.629 V 85.5859" /></g></g></svg>