<?xml version="1.0" encoding="UTF-8" standalone="no"?>
<!-- Created with Inkscape (http://www.inkscape.org/) -->

<svg
   version="1.1"
   id="svg1"
   width="940.12"
   height="173.964"
   viewBox="0 0 940.12 173.964"
   sodipodi:docname="Cuba RC.svg"
   inkscape:version="1.3.2 (091e20e, 2023-11-25, custom)"
   xmlns:inkscape="http://www.inkscape.org/namespaces/inkscape"
   xmlns:sodipodi="http://sodipodi.sourceforge.net/DTD/sodipodi-0.dtd"
   xmlns="http://www.w3.org/2000/svg"
   xmlns:svg="http://www.w3.org/2000/svg">
  <defs
     id="defs1">
    <clipPath
       clipPathUnits="userSpaceOnUse"
       id="clipPath3">
      <path
         d="M 0,130.44 H 705.09 V 0 H 0 Z"
         transform="translate(-130.473,-85.612002)"
         id="path3" />
    </clipPath>
  </defs>
  <sodipodi:namedview
     id="namedview1"
     pagecolor="#ffffff"
     bordercolor="#666666"
     borderopacity="1.0"
     inkscape:showpageshadow="2"
     inkscape:pageopacity="0.0"
     inkscape:pagecheckerboard="0"
     inkscape:deskcolor="#d1d1d1"
     inkscape:export-bgcolor="#ffffffff"
     inkscape:zoom="0.9945539"
     inkscape:cx="470.06"
     inkscape:cy="86.973668"
     inkscape:window-width="1920"
     inkscape:window-height="1017"
     inkscape:window-x="-8"
     inkscape:window-y="-8"
     inkscape:window-maximized="1"
     inkscape:current-layer="g1">
    <inkscape:page
       x="0"
       y="0"
       inkscape:label="1"
       id="page1"
       width="940.12"
       height="173.964"
       margin="0"
       bleed="0"
       inkscape:export-filename="Cuba RC.png"
       inkscape:export-xdpi="300"
       inkscape:export-ydpi="300" />
  </sodipodi:namedview>
  <g
     id="g1"
     inkscape:groupmode="layer"
     inkscape:label="1">
    <g
       id="group-MC1">
      <path
         id="path2"
         d="m 0,0 h -44.862 v 44.861 h -40.75 V 0 h -44.861 v -40.75 h 44.861 v -44.862 h 40.75 V -40.75 L 0,-40.75 V 0"
         style="fill:#ed1c24;fill-opacity:1;fill-rule:nonzero;stroke:none"
         transform="matrix(1.3333333,0,0,-1.3333333,173.964,59.814667)"
         clip-path="url(#clipPath3)" />
      <path
         id="path4"
         d="m 0,0 c -1.677,-0.838 -5.448,-1.735 -10.356,-1.735 -13.948,0 -21.131,8.679 -21.131,20.173 0,13.768 9.817,21.43 22.029,21.43 4.729,0 8.32,-0.958 9.937,-1.796 l -1.856,-7.243 c -1.856,0.778 -4.43,1.496 -7.663,1.496 -7.242,0 -12.869,-4.369 -12.869,-13.349 0,-8.081 4.788,-13.169 12.93,-13.169 2.753,0 5.806,0.598 7.602,1.317 L 0,0"
         style="fill:#231f20;fill-opacity:1;fill-rule:nonzero;stroke:none"
         transform="matrix(1.3333333,0,0,-1.3333333,248.06933,112.63867)" />
      <path
         id="path5"
         d="m 0,0 h 3.591 c 4.55,0 7.244,2.274 7.244,5.806 0,3.712 -2.515,5.567 -6.705,5.627 -2.214,0 -3.472,-0.18 -4.13,-0.299 z m -9.039,17.359 c 2.933,0.479 7.303,0.838 12.152,0.838 5.986,0 10.176,-0.898 13.049,-3.172 2.395,-1.916 3.712,-4.729 3.712,-8.441 0,-5.147 -3.652,-8.679 -7.124,-9.937 v -0.179 c 2.814,-1.137 4.37,-3.831 5.388,-7.543 1.257,-4.549 2.514,-9.817 3.292,-11.373 h -9.338 c -0.659,1.137 -1.616,4.43 -2.814,9.398 -1.077,5.028 -2.813,6.405 -6.525,6.465 H 0 v -15.863 h -9.039 v 39.807"
         style="fill:#231f20;fill-opacity:1;fill-rule:nonzero;stroke:none"
         transform="matrix(1.3333333,0,0,-1.3333333,270.096,84.224)" />
      <path
         id="path6"
         d="m 0,0 v -23.226 c 0,-6.944 2.635,-10.475 7.304,-10.475 4.788,0 7.422,3.351 7.422,10.475 V 0 h 9.099 v -22.627 c 0,-12.451 -6.285,-18.378 -16.821,-18.378 -10.176,0 -16.162,5.627 -16.162,18.497 L -9.158,0 H 0"
         style="fill:#231f20;fill-opacity:1;fill-rule:nonzero;stroke:none"
         transform="matrix(1.3333333,0,0,-1.3333333,319.1,60.36)" />
      <path
         id="path7"
         d="m 0,0 19.215,27.656 v 0.239 H 1.796 v 7.542 H 31.068 V 30.17 L 12.271,2.873 V 2.634 H 31.367 V -4.908 L 0,-4.908 V 0"
         style="fill:#231f20;fill-opacity:1;fill-rule:nonzero;stroke:none"
         transform="matrix(1.3333333,0,0,-1.3333333,359.964,107.60933)" />
      <path
         id="path8"
         d="m 0,0 h 3.593 c 4.549,0 7.243,2.274 7.243,5.806 0,3.712 -2.514,5.567 -6.704,5.627 -2.216,0 -3.473,-0.18 -4.132,-0.299 z m -9.038,17.359 c 2.933,0.479 7.303,0.838 12.152,0.838 5.986,0 10.176,-0.898 13.05,-3.172 2.393,-1.916 3.711,-4.729 3.711,-8.441 0,-5.147 -3.652,-8.679 -7.123,-9.937 v -0.179 c 2.813,-1.137 4.369,-3.831 5.386,-7.543 1.258,-4.549 2.515,-9.817 3.293,-11.373 h -9.338 c -0.659,1.137 -1.617,4.43 -2.814,9.398 -1.077,5.028 -2.813,6.405 -6.525,6.465 H 0 v -15.863 h -9.038 v 39.807"
         style="fill:#231f20;fill-opacity:1;fill-rule:nonzero;stroke:none"
         transform="matrix(1.3333333,0,0,-1.3333333,441.612,84.224)" />
      <path
         id="path9"
         d="m 0,0 c 0,-7.902 3.712,-13.469 9.817,-13.469 6.165,0 9.697,5.866 9.697,13.708 0,7.243 -3.471,13.469 -9.756,13.469 C 3.592,13.708 0,7.842 0,0 Z m 29.152,0.539 c 0,-13.23 -8.021,-21.251 -19.814,-21.251 -11.972,0 -18.976,9.039 -18.976,20.532 0,12.092 7.723,21.131 19.635,21.131 12.391,0 19.155,-9.278 19.155,-20.412"
         style="fill:#231f20;fill-opacity:1;fill-rule:nonzero;stroke:none"
         transform="matrix(1.3333333,0,0,-1.3333333,488.94133,87.416)" />
      <path
         id="path10"
         d="m 0,0 h 9.099 v -25.501 c 0,-11.493 -5.507,-15.504 -14.367,-15.504 -2.095,0 -4.848,0.359 -6.644,0.958 l 1.017,7.363 c 1.257,-0.418 2.873,-0.718 4.669,-0.718 3.831,0 6.226,1.736 6.226,8.021 L 0,0"
         style="fill:#231f20;fill-opacity:1;fill-rule:nonzero;stroke:none"
         transform="matrix(1.3333333,0,0,-1.3333333,548.32267,60.36)" />
      <path
         id="path11"
         d="m 0,0 -2.514,8.56 c -0.718,2.395 -1.437,5.388 -2.036,7.782 H -4.669 C -5.268,13.948 -5.866,10.894 -6.524,8.56 L -8.919,0 Z m -10.236,-6.824 -2.873,-10.356 h -9.458 l 12.331,40.346 H 1.736 L 14.247,-17.18 H 4.43 L 1.316,-6.824 h -11.552"
         style="fill:#231f20;fill-opacity:1;fill-rule:nonzero;stroke:none"
         transform="matrix(1.3333333,0,0,-1.3333333,598.764,91.248)" />
      <path
         id="path12"
         d="m 0,0 c -1.915,-0.957 -5.746,-1.915 -10.654,-1.915 -11.374,0 -19.933,7.183 -19.933,20.413 0,12.63 8.559,21.19 21.07,21.19 5.028,0 8.201,-1.078 9.578,-1.796 l -1.258,-4.25 c -1.974,0.958 -4.788,1.676 -8.14,1.676 -9.458,0 -15.744,-6.046 -15.744,-16.641 0,-9.877 5.687,-16.223 15.504,-16.223 3.173,0 6.406,0.659 8.5,1.677 L 0,0"
         style="fill:#231f20;fill-opacity:1;fill-rule:nonzero;stroke:none"
         transform="matrix(1.3333333,0,0,-1.3333333,684.24133,112.39867)" />
      <path
         id="path13"
         d="m 0,0 v -23.885 c 0,-9.038 4.011,-12.869 9.398,-12.869 5.987,0 9.818,3.95 9.818,12.869 V 0 h 5.267 v -23.525 c 0,-12.391 -6.525,-17.48 -15.264,-17.48 -8.261,0 -14.487,4.73 -14.487,17.24 L -5.268,0 H 0"
         style="fill:#231f20;fill-opacity:1;fill-rule:nonzero;stroke:none"
         transform="matrix(1.3333333,0,0,-1.3333333,701.87867,60.36)" />
      <path
         id="path14"
         d="m 0,0 c 1.017,-0.18 2.514,-0.239 4.37,-0.239 5.387,0 10.355,1.975 10.355,7.841 0,5.507 -4.728,7.783 -10.415,7.783 l -4.31,0 z m 0,19.335 h 4.729 c 5.507,0 8.739,2.873 8.739,6.765 0,4.729 -3.592,6.584 -8.859,6.584 -2.395,0 -3.771,-0.179 -4.609,-0.359 z m -5.208,16.522 c 2.275,0.479 5.867,0.838 9.518,0.838 5.208,0 8.56,-0.898 11.074,-2.933 2.095,-1.556 3.352,-3.951 3.352,-7.124 0,-3.89 -2.573,-7.303 -6.824,-8.859 v -0.12 c 3.831,-0.957 8.321,-4.131 8.321,-10.116 0,-3.472 -1.377,-6.107 -3.412,-8.081 C 14.007,-3.112 9.458,-4.31 2.874,-4.31 c -3.592,0 -6.346,0.24 -8.082,0.479 v 39.688"
         style="fill:#231f20;fill-opacity:1;fill-rule:nonzero;stroke:none"
         transform="matrix(1.3333333,0,0,-1.3333333,755.51333,108.88667)" />
      <path
         id="path15"
         d="m 0,0 -3.951,11.613 c -0.899,2.634 -1.496,5.028 -2.095,7.362 h -0.12 C -6.765,16.581 -7.423,14.127 -8.201,11.673 L -12.153,0 Z m -13.23,-4.07 -4.19,-12.691 h -5.388 L -9.1,23.585 h 6.286 L 10.954,-16.761 H 5.387 L 1.077,-4.07 H -13.23"
         style="fill:#231f20;fill-opacity:1;fill-rule:nonzero;stroke:none"
         transform="matrix(1.3333333,0,0,-1.3333333,820.16267,91.806667)" />
      <path
         id="path16"
         d="m 0,0 v 40.346 h 5.686 l 12.93,-20.412 c 2.993,-4.73 5.327,-8.98 7.243,-13.11 l 0.119,0.06 C 25.5,12.271 25.38,17.18 25.38,23.465 v 16.881 h 4.909 V 0 h -5.268 l -12.81,20.472 c -2.814,4.49 -5.507,9.099 -7.542,13.469 l -0.18,-0.06 C 4.788,28.793 4.908,23.944 4.908,17.239 V 0 H 0"
         style="fill:#231f20;fill-opacity:1;fill-rule:nonzero;stroke:none"
         transform="matrix(1.3333333,0,0,-1.3333333,844.664,114.15467)" />
      <path
         id="path17"
         d="m 0,0 -3.951,11.613 c -0.898,2.634 -1.496,5.028 -2.094,7.362 H -6.166 C -6.764,16.581 -7.422,14.127 -8.201,11.673 L -12.152,0 Z m -13.229,-4.07 -4.19,-12.691 h -5.388 l 13.708,40.346 h 6.286 L 10.955,-16.761 H 5.387 L 1.078,-4.07 h -14.307"
         style="fill:#231f20;fill-opacity:1;fill-rule:nonzero;stroke:none"
         transform="matrix(1.3333333,0,0,-1.3333333,925.51333,91.806667)" />
    </g>
  </g>
</svg>
