<?xml version="1.0" encoding="UTF-8" standalone="no"?>
<!-- Created with Inkscape (http://www.inkscape.org/) -->

<svg
   version="1.1"
   id="svg1"
   width="531.41467"
   height="142.60001"
   viewBox="0 0 531.41467 142.60001"
   sodipodi:docname="Cabo Verde RC.svg"
   inkscape:version="1.3.2 (091e20e, 2023-11-25, custom)"
   xmlns:inkscape="http://www.inkscape.org/namespaces/inkscape"
   xmlns:sodipodi="http://sodipodi.sourceforge.net/DTD/sodipodi-0.dtd"
   xmlns="http://www.w3.org/2000/svg"
   xmlns:svg="http://www.w3.org/2000/svg">
  <defs
     id="defs1">
    <clipPath
       clipPathUnits="userSpaceOnUse"
       id="clipPath3">
      <path
         d="M 0.059998,106.92 H 398.561 V 0 H 0.059998 Z"
         transform="translate(-106.95,-71.300002)"
         id="path3" />
    </clipPath>
  </defs>
  <sodipodi:namedview
     id="namedview1"
     pagecolor="#ffffff"
     bordercolor="#666666"
     borderopacity="1.0"
     inkscape:showpageshadow="2"
     inkscape:pageopacity="0.0"
     inkscape:pagecheckerboard="0"
     inkscape:deskcolor="#d1d1d1"
     inkscape:zoom="1.7594546"
     inkscape:cx="265.70734"
     inkscape:cy="71.328922"
     inkscape:window-width="1920"
     inkscape:window-height="1017"
     inkscape:window-x="-8"
     inkscape:window-y="-8"
     inkscape:window-maximized="1"
     inkscape:current-layer="g1">
    <inkscape:page
       x="0"
       y="0"
       inkscape:label="1"
       id="page1"
       width="531.41467"
       height="142.60001"
       margin="0"
       bleed="0" />
  </sodipodi:namedview>
  <g
     id="g1"
     inkscape:groupmode="layer"
     inkscape:label="1">
    <g
       id="group-MC1">
      <path
         id="path2"
         d="M 0,0 H -35.65 V 35.65 H -71.3 V 0 h -35.65 V -35.65 H -71.3 V -71.3 h 35.65 v 35.65 H 0 L 0,0"
         style="fill:#ed1c24;fill-opacity:1;fill-rule:nonzero;stroke:none"
         transform="matrix(1.3333333,0,0,-1.3333333,142.6,47.533333)"
         clip-path="url(#clipPath3)" />
      <path
         id="path4"
         d="m 0,0 c -1.009,-0.505 -3.278,-1.045 -6.232,-1.045 -8.394,0 -12.718,5.224 -12.718,12.141 0,8.286 5.909,12.897 13.258,12.897 2.846,0 5.008,-0.576 5.981,-1.081 l -1.117,-4.358 c -1.117,0.467 -2.666,0.9 -4.612,0.9 -4.359,0 -7.745,-2.63 -7.745,-8.034 0,-4.863 2.882,-7.926 7.781,-7.926 1.658,0 3.495,0.36 4.576,0.793 L 0,0"
         style="fill:#231f20;fill-opacity:1;fill-rule:nonzero;stroke:none"
         transform="matrix(1.3333333,0,0,-1.3333333,194.10933,86.697333)" />
      <path
         id="path5"
         d="m 0,0 h 2.161 c 2.738,0 4.36,1.369 4.36,3.494 0,2.234 -1.514,3.351 -4.036,3.387 C 1.153,6.881 0.396,6.772 0,6.701 Z m -5.44,10.447 c 1.765,0.288 4.395,0.505 7.313,0.505 3.603,0 6.125,-0.541 7.854,-1.909 1.441,-1.153 2.234,-2.847 2.234,-5.08 0,-3.099 -2.198,-5.224 -4.288,-5.981 v -0.108 c 1.694,-0.684 2.63,-2.306 3.243,-4.539 0.756,-2.737 1.513,-5.908 1.981,-6.845 h -5.62 c -0.396,0.685 -0.973,2.666 -1.693,5.656 -0.648,3.027 -1.693,3.855 -3.927,3.891 H 0 v -9.547 h -5.44 v 23.957"
         style="fill:#231f20;fill-opacity:1;fill-rule:nonzero;stroke:none"
         transform="matrix(1.3333333,0,0,-1.3333333,206.17067,69.596)" />
      <path
         id="path6"
         d="m 0,0 v -13.977 c 0,-4.18 1.585,-6.305 4.395,-6.305 2.882,0 4.468,2.017 4.468,6.305 V 0 h 5.475 v -13.617 c 0,-7.494 -3.783,-11.061 -10.123,-11.061 -6.124,0 -9.727,3.387 -9.727,11.132 L -5.512,0 H 0"
         style="fill:#231f20;fill-opacity:1;fill-rule:nonzero;stroke:none"
         transform="matrix(1.3333333,0,0,-1.3333333,234.468,55.234667)" />
      <path
         id="path7"
         d="m 0,0 11.564,16.645 v 0.143 H 1.08 v 4.539 h 17.616 v -3.17 L 7.385,1.729 V 1.585 H 18.877 V -2.954 L 0,-2.954 V 0"
         style="fill:#231f20;fill-opacity:1;fill-rule:nonzero;stroke:none"
         transform="matrix(1.3333333,0,0,-1.3333333,257.86667,83.670667)" />
      <path
         id="path8"
         d="m 0,0 -7.781,24.281 h 6.016 L 1.189,14.014 C 2.017,11.132 2.774,8.358 3.35,5.332 h 0.109 c 0.612,2.918 1.369,5.8 2.197,8.574 l 3.099,10.375 h 5.836 L 6.413,0 H 0"
         style="fill:#231f20;fill-opacity:1;fill-rule:nonzero;stroke:none"
         transform="matrix(1.3333333,0,0,-1.3333333,303.21733,87.609333)" />
      <path
         id="path9"
         d="m 0,0 h -8.935 v -5.765 h 9.979 v -4.503 H -14.447 V 14.014 H 0.54 V 9.511 H -8.935 V 4.467 H 0 V 0"
         style="fill:#231f20;fill-opacity:1;fill-rule:nonzero;stroke:none"
         transform="matrix(1.3333333,0,0,-1.3333333,345.396,73.92)" />
      <path
         id="path10"
         d="M 0,0 H 2.162 C 4.899,0 6.52,1.369 6.52,3.494 6.52,5.728 5.008,6.845 2.486,6.881 1.153,6.881 0.396,6.772 0,6.701 Z m -5.44,10.447 c 1.765,0.288 4.395,0.505 7.314,0.505 3.602,0 6.124,-0.541 7.853,-1.909 1.441,-1.153 2.234,-2.847 2.234,-5.08 0,-3.099 -2.197,-5.224 -4.287,-5.981 v -0.108 c 1.693,-0.684 2.63,-2.306 3.242,-4.539 0.757,-2.737 1.514,-5.908 1.981,-6.845 h -5.62 c -0.396,0.685 -0.972,2.666 -1.693,5.656 -0.649,3.027 -1.693,3.855 -3.927,3.891 H 0 v -9.547 h -5.44 v 23.957"
         style="fill:#231f20;fill-opacity:1;fill-rule:nonzero;stroke:none"
         transform="matrix(1.3333333,0,0,-1.3333333,359.04133,69.596)" />
      <path
         id="path11"
         d="M 0,0 C -0.108,2.918 -0.216,6.448 -0.216,9.979 H -0.324 C -1.08,6.881 -2.089,3.422 -3.026,0.576 L -5.98,-8.898 h -4.287 l -2.594,9.402 c -0.792,2.847 -1.622,6.305 -2.198,9.475 h -0.072 C -15.275,6.7 -15.383,2.954 -15.563,-0.072 l -0.432,-9.223 h -5.08 l 1.549,24.281 h 7.314 l 2.377,-8.105 c 0.757,-2.811 1.514,-5.836 2.054,-8.683 h 0.108 c 0.685,2.811 1.513,6.017 2.306,8.719 l 2.593,8.069 H 4.395 L 5.728,-9.295 H 0.36 L 0,0"
         style="fill:#231f20;fill-opacity:1;fill-rule:nonzero;stroke:none"
         transform="matrix(1.3333333,0,0,-1.3333333,407.65733,75.216)" />
      <path
         id="path12"
         d="m 0,0 h -8.934 v -5.765 h 9.979 v -4.503 H -14.446 V 14.014 H 0.54 V 9.511 H -8.934 V 4.467 H 0 V 0"
         style="fill:#231f20;fill-opacity:1;fill-rule:nonzero;stroke:none"
         transform="matrix(1.3333333,0,0,-1.3333333,440.18267,73.92)" />
      <path
         id="path13"
         d="m 0,0 h 5.512 v -19.67 h 9.655 v -4.611 L 0,-24.281 V 0"
         style="fill:#231f20;fill-opacity:1;fill-rule:nonzero;stroke:none"
         transform="matrix(1.3333333,0,0,-1.3333333,446.576,55.234667)" />
      <path
         id="path14"
         d="M 0,0 V -9.33 H 9.043 V 0 h 5.476 V -24.281 H 9.043 v 10.159 H 0 V -24.281 H -5.512 V 0 H 0"
         style="fill:#231f20;fill-opacity:1;fill-rule:nonzero;stroke:none"
         transform="matrix(1.3333333,0,0,-1.3333333,478.47467,55.234667)" />
      <path
         id="path15"
         d="M 0,0 -1.514,5.151 C -1.945,6.593 -2.378,8.394 -2.738,9.835 H -2.811 C -3.17,8.394 -3.53,6.557 -3.927,5.151 L -5.368,0 Z m -6.16,-4.107 -1.73,-6.233 h -5.692 L -6.16,13.941 H 1.045 L 8.574,-10.34 H 2.666 L 0.793,-4.107 H -6.16"
         style="fill:#231f20;fill-opacity:1;fill-rule:nonzero;stroke:none"
         transform="matrix(1.3333333,0,0,-1.3333333,519.98267,73.822667)" />
      <path
         id="path16"
         d="m 0,0 c 0.469,-0.108 1.225,-0.108 1.91,-0.108 4.971,-0.036 8.214,2.703 8.214,8.502 0.036,5.044 -2.919,7.71 -7.638,7.71 -1.225,0 -2.017,-0.108 -2.486,-0.216 z m -5.511,19.814 c 2.017,0.325 4.647,0.505 7.421,0.505 4.611,0 7.601,-0.829 9.943,-2.594 2.522,-1.874 4.107,-4.864 4.107,-9.151 0,-4.646 -1.694,-7.853 -4.035,-9.8348 -2.558,-2.1254 -6.449,-3.1334 -11.204,-3.1334 -2.846,0 -4.864,0.179 -6.232,0.36 V 19.814"
         style="fill:#231f20;fill-opacity:1;fill-rule:nonzero;stroke:none"
         transform="matrix(1.3333333,0,0,-1.3333333,177.68133,128.95733)" />
      <path
         id="path17"
         d="m 0,0 h -8.934 v -5.765 h 9.979 v -4.502 H -14.446 V 14.014 H 0.541 V 9.511 H -8.934 V 4.467 H 0 V 0"
         style="fill:#231f20;fill-opacity:1;fill-rule:nonzero;stroke:none"
         transform="matrix(1.3333333,0,0,-1.3333333,223.032,120.79067)" />
      <path
         id="path18"
         d="m 0,0 c -1.009,-0.505 -3.278,-1.045 -6.233,-1.045 -8.394,0 -12.717,5.224 -12.717,12.141 0,8.286 5.908,12.897 13.258,12.897 2.846,0 5.007,-0.576 5.98,-1.081 l -1.117,-4.358 c -1.116,0.468 -2.666,0.9 -4.611,0.9 -4.359,0 -7.746,-2.63 -7.746,-8.034 0,-4.863 2.883,-7.926 7.782,-7.926 1.657,0 3.495,0.361 4.575,0.793 L 0,0"
         style="fill:#231f20;fill-opacity:1;fill-rule:nonzero;stroke:none"
         transform="matrix(1.3333333,0,0,-1.3333333,262.90667,133.568)" />
      <path
         id="path19"
         d="M 0,0 -1.514,5.151 C -1.946,6.593 -2.378,8.394 -2.739,9.835 H -2.811 C -3.171,8.394 -3.532,6.557 -3.927,5.151 L -5.369,0 Z m -6.162,-4.107 -1.728,-6.232 h -5.692 l 7.42,24.28 h 7.206 l 7.53,-24.28 H 2.666 l -1.874,6.232 h -6.954"
         style="fill:#231f20;fill-opacity:1;fill-rule:nonzero;stroke:none"
         transform="matrix(1.3333333,0,0,-1.3333333,283.95067,120.69467)" />
      <path
         id="path20"
         d="m 0,0 c 0.541,-0.0723 1.19,-0.0723 2.126,-0.0723 2.486,0 4.684,0.9373 4.684,3.4953 0,2.449 -2.198,3.422 -4.936,3.422 L 0,6.845 Z m 0,10.772 h 1.802 c 2.882,0 4.431,1.189 4.431,2.99 0,1.838 -1.405,2.81 -3.891,2.81 C 1.154,16.572 0.469,16.5 0,16.428 Z m -5.439,9.294 c 1.44,0.289 4.359,0.505 7.097,0.505 3.35,0 5.404,-0.324 7.168,-1.369 1.694,-0.9 2.919,-2.557 2.919,-4.756 0,-2.161 -1.261,-4.178 -3.999,-5.187 V 9.187 c 2.774,-0.756 4.828,-2.846 4.828,-5.981 0,-2.197 -1.009,-3.9267 -2.522,-5.1513 -1.766,-1.4049 -4.72,-2.1969 -9.547,-2.1969 -2.702,0 -4.72,0.179 -5.944,0.36 V 20.066"
         style="fill:#231f20;fill-opacity:1;fill-rule:nonzero;stroke:none"
         transform="matrix(1.3333333,0,0,-1.3333333,306.96267,129.29307)" />
      <path
         id="path21"
         d="m 0,0 c 0,-4.755 2.234,-8.105 5.908,-8.105 3.71,0 5.836,3.53 5.836,8.25 0,4.359 -2.09,8.105 -5.872,8.105 C 2.161,8.25 0,4.72 0,0 Z m 17.544,0.324 c 0,-7.961 -4.827,-12.789 -11.925,-12.789 -7.205,0 -11.42,5.441 -11.42,12.358 0,7.277 4.648,12.716 11.817,12.716 7.458,0 11.528,-5.584 11.528,-12.285"
         style="fill:#231f20;fill-opacity:1;fill-rule:nonzero;stroke:none"
         transform="matrix(1.3333333,0,0,-1.3333333,334.972,118.38933)" />
      <path
         id="path22"
         d="m 0,0 -7.781,24.281 h 6.017 L 1.19,14.013 C 2.018,11.131 2.775,8.358 3.351,5.332 h 0.108 c 0.613,2.918 1.369,5.799 2.198,8.574 l 3.098,10.375 h 5.836 L 6.413,0 H 0"
         style="fill:#231f20;fill-opacity:1;fill-rule:nonzero;stroke:none"
         transform="matrix(1.3333333,0,0,-1.3333333,378.73867,134.48)" />
      <path
         id="path23"
         d="m 0,0 h -8.934 v -5.765 h 9.979 v -4.502 H -14.446 V 14.014 H 0.54 V 9.511 H -8.934 V 4.467 H 0 V 0"
         style="fill:#231f20;fill-opacity:1;fill-rule:nonzero;stroke:none"
         transform="matrix(1.3333333,0,0,-1.3333333,420.91867,120.79067)" />
      <path
         id="path24"
         d="M 0,0 H 2.162 C 4.899,0 6.52,1.369 6.52,3.494 6.52,5.729 5.007,6.845 2.486,6.881 1.153,6.881 0.396,6.773 0,6.701 Z m -5.44,10.447 c 1.765,0.288 4.395,0.505 7.314,0.505 3.602,0 6.124,-0.541 7.853,-1.909 1.44,-1.153 2.233,-2.847 2.233,-5.08 0,-3.099 -2.197,-5.224 -4.287,-5.98 v -0.109 c 1.694,-0.683 2.63,-2.306 3.243,-4.539 0.756,-2.737 1.513,-5.908 1.981,-6.844 h -5.62 c -0.397,0.684 -0.973,2.665 -1.693,5.656 -0.649,3.026 -1.694,3.854 -3.927,3.89 H 0 v -9.546 h -5.44 v 23.956"
         style="fill:#231f20;fill-opacity:1;fill-rule:nonzero;stroke:none"
         transform="matrix(1.3333333,0,0,-1.3333333,434.564,116.468)" />
      <path
         id="path25"
         d="m 0,0 c 0.469,-0.108 1.225,-0.108 1.909,-0.108 4.972,-0.036 8.214,2.703 8.214,8.502 0.036,5.044 -2.918,7.71 -7.637,7.71 -1.225,0 -2.017,-0.108 -2.486,-0.216 z m -5.512,19.814 c 2.018,0.325 4.648,0.505 7.421,0.505 4.611,0 7.602,-0.829 9.944,-2.594 2.521,-1.874 4.107,-4.864 4.107,-9.151 0,-4.646 -1.693,-7.853 -4.035,-9.8348 -2.558,-2.1254 -6.449,-3.1334 -11.204,-3.1334 -2.846,0 -4.864,0.179 -6.233,0.36 V 19.814"
         style="fill:#231f20;fill-opacity:1;fill-rule:nonzero;stroke:none"
         transform="matrix(1.3333333,0,0,-1.3333333,463.14933,128.95733)" />
      <path
         id="path26"
         d="m 0,0 h -8.935 v -5.765 h 9.98 v -4.502 H -14.447 V 14.014 H 0.54 V 9.511 H -8.935 V 4.467 H 0 V 0"
         style="fill:#231f20;fill-opacity:1;fill-rule:nonzero;stroke:none"
         transform="matrix(1.3333333,0,0,-1.3333333,508.5,120.79067)" />
    </g>
  </g>
</svg>
