<?xml version="1.0" encoding="UTF-8" standalone="no"?>
<svg
   xmlns:dc="http://purl.org/dc/elements/1.1/"
   xmlns:cc="http://creativecommons.org/ns#"
   xmlns:rdf="http://www.w3.org/1999/02/22-rdf-syntax-ns#"
   xmlns:svg="http://www.w3.org/2000/svg"
   xmlns="http://www.w3.org/2000/svg"
   viewBox="0 0 219.06667 219.06667"
   height="219.06667"
   width="219.06667"
   xml:space="preserve"
   id="svg2"
   version="1.1"><metadata
     id="metadata8"><rdf:RDF><cc:Work
         rdf:about=""><dc:format>image/svg+xml</dc:format><dc:type
           rdf:resource="http://purl.org/dc/dcmitype/StillImage" /><dc:title></dc:title></cc:Work></rdf:RDF></metadata><defs
     id="defs6" /><g
     transform="matrix(1.3333333,0,0,-1.3333333,0,219.06667)"
     id="g10"><g
       transform="scale(0.1)"
       id="g12"><path
         id="path14"
         style="fill:none;stroke:#ed1c24;stroke-width:10.80000019;stroke-linecap:butt;stroke-linejoin:miter;stroke-miterlimit:3.86367989;stroke-dasharray:none;stroke-opacity:1"
         d="m 292.309,821.512 c 0,292.268 236.929,529.198 529.199,529.198 292.272,0 529.202,-236.93 529.202,-529.198 0,-292.274 -236.93,-529.203 -529.202,-529.203 -292.27,0 -529.199,236.929 -529.199,529.203 z" /><path
         id="path16"
         style="fill:none;stroke:#ed1c24;stroke-width:20;stroke-linecap:butt;stroke-linejoin:miter;stroke-miterlimit:3.86367989;stroke-dasharray:none;stroke-opacity:1"
         d="m 10,821.512 c 0,448.188 363.32,811.508 811.508,811.508 448.192,0 811.512,-363.32 811.512,-811.508 C 1633.02,373.32 1269.7,10 821.508,10 373.32,10 10,373.32 10,821.512 Z" /><path
         id="path18"
         style="fill:#ed1c24;fill-opacity:1;fill-rule:nonzero;stroke:none"
         d="m 569.438,113.641 14.585,56.058 2.34,-0.711 c -1.949,-17.519 -1.148,-30.808 2.407,-39.867 3.554,-9.043 9.378,-14.812 17.468,-17.281 6.789,-2.07 13.762,-1.199 20.914,2.601 7.161,3.797 14.141,11.239 20.953,22.278 6.817,11.051 12.95,25.492 18.411,43.34 4.5,14.73 6.922,27.953 7.257,39.66 0.336,11.722 -1.589,21.371 -5.785,28.941 -4.195,7.59 -10.113,12.551 -17.754,14.891 -6.636,2.019 -13.179,1.551 -19.644,-1.422 -6.457,-2.969 -14.785,-10.238 -24.981,-21.828 l -1.601,3.109 c 9.555,12.918 18.785,21.699 27.676,26.328 8.89,4.641 18.039,5.524 27.437,2.653 16.942,-5.192 27,-19.2 30.188,-42.059 2.379,-17.012 0.492,-35.594 -5.676,-55.773 -4.973,-16.239 -11.82,-30.469 -20.559,-42.68 -8.734,-12.207 -18.25,-20.82 -28.558,-25.859 -10.305,-5.032 -20.207,-6.0981 -29.711,-3.2 -7.387,2.258 -13.797,7.379 -19.223,15.34 -1.574,2.399 -2.812,3.75 -3.719,4.02 -1.355,0.41 -2.769,0.019 -4.242,-1.2 -1.969,-1.761 -3.812,-4.468 -5.543,-8.148 l -2.64,0.809" /><path
         id="path20"
         style="fill:#ed1c24;fill-opacity:1;fill-rule:nonzero;stroke:none"
         d="m 476.477,165.398 c 8.367,-4.636 17.82,-3.418 28.351,3.661 13.117,8.812 26.25,25.07 39.395,48.793 13.472,24.308 20.578,44.82 21.308,61.539 0.508,12.73 -3.347,21.379 -11.582,25.941 -8.777,4.867 -19.054,3.438 -30.824,-4.293 -11.773,-7.738 -24.172,-23.348 -37.191,-46.859 -14.121,-25.469 -21.504,-46.211 -22.145,-62.219 -0.461,-12.762 3.77,-21.621 12.688,-26.563 z m -5.754,-7.277 c -12.137,6.731 -18.582,19.891 -19.344,39.5 -0.766,19.609 4.945,40.391 17.117,62.348 12.535,22.621 27.426,38.922 44.668,48.883 17.246,9.957 32.234,11.418 44.973,4.359 12.871,-7.141 19.644,-20.41 20.332,-39.84 0.679,-19.422 -5.387,-40.699 -18.211,-63.84 -13.106,-23.64 -28.852,-40.121 -47.246,-49.453 -15.961,-8.09 -30.059,-8.738 -42.289,-1.957" /><path
         id="path22"
         style="fill:#ed1c24;fill-opacity:1;fill-rule:nonzero;stroke:none"
         d="m 393.473,205.5 -22.235,18.641 31.992,139.839 -63.109,-75.21 c -6.723,-8.02 -10.355,-13.489 -10.898,-16.418 -0.766,-3.954 0.461,-7.274 3.683,-9.973 l 2.836,-2.391 -2.984,-3.547 -28.516,23.911 2.985,3.57 2.902,-2.442 c 3.465,-2.898 7.316,-3.289 11.566,-1.179 2.614,1.308 6.977,5.621 13.11,12.929 l 92.246,109.93 2.172,-1.82 -34.118,-150.34 67.391,80.309 c 6.723,8.019 10.375,13.48 10.957,16.371 0.727,3.98 -0.5,7.3 -3.68,9.968 l -2.898,2.43 2.984,3.563 28.516,-23.922 -2.984,-3.559 -2.84,2.391 c -3.508,2.937 -7.379,3.347 -11.629,1.23 -2.606,-1.312 -6.977,-5.621 -13.109,-12.929 l -76.102,-90.711 c -1.34,-6.411 -1.984,-10.832 -1.941,-13.282 0.05,-2.437 0.75,-5.269 2.101,-8.48 0.684,-1.559 2.211,-3.328 4.59,-5.32 l -2.988,-3.559" /><path
         id="path24"
         style="fill:#ed1c24;fill-opacity:1;fill-rule:nonzero;stroke:none"
         d="m 205.145,395.02 3.609,2.921 c 3.226,-2.261 6.527,-3.269 9.898,-3.05 4.942,0.418 11.375,2.449 19.301,6.089 l 136.078,62.2 1.836,-2.27 -88.851,-123.5 c -4.567,-6.32 -7.231,-10.351 -8.008,-12.058 -1.188,-2.653 -1.746,-5.18 -1.68,-7.59 0.074,-2.422 0.973,-5.024 2.695,-7.821 l -3.613,-2.929 -27.488,33.957 3.605,2.922 c 3.7,-3.371 6.754,-5.012 9.176,-4.942 2.43,0.063 4.805,1.039 7.149,2.942 3.253,2.629 7.57,7.679 12.941,15.14 l 60.449,83.949 -92.476,-42.41 c -9.102,-4.191 -15.118,-7.461 -18.043,-9.84 -1.887,-1.531 -3.211,-3.582 -3.981,-6.16 -0.762,-2.582 -0.359,-5.57 1.207,-8.968 0.106,-0.25 0.285,-0.68 0.555,-1.27 l -3.613,-2.934 -20.746,25.622" /><path
         id="path26"
         style="fill:#ed1c24;fill-opacity:1;fill-rule:nonzero;stroke:none"
         d="m 179.719,456.949 58.851,32.629 -11.39,20.551 c -2.961,5.332 -6.211,8.18 -9.774,8.562 -4.687,0.52 -11.355,-1.429 -20.004,-5.871 l -1.418,2.559 51.832,28.73 1.414,-2.55 c -6.89,-4.668 -11.179,-7.887 -12.875,-9.668 -2.101,-2.243 -3.363,-4.711 -3.781,-7.411 -0.422,-2.699 0.453,-6 2.621,-9.91 l 11.391,-20.55 49.082,27.21 c 6.59,3.649 10.492,6.051 11.719,7.211 1.222,1.161 2.004,2.438 2.332,3.821 0.336,1.379 -0.215,3.367 -1.645,5.937 l -8.793,15.86 c -2.929,5.293 -5.644,8.8 -8.136,10.55 -2.497,1.743 -6.079,2.762 -10.747,3.063 -6.117,0.34 -14.578,-0.543 -25.382,-2.621 l -1.532,2.758 41.805,12.621 39.949,-72.071 -4.062,-2.25 -1.836,3.313 c -1.219,2.207 -3.223,3.828 -6,4.867 -1.988,0.832 -4.297,0.852 -6.934,0.09 -2.636,-0.77 -7.578,-3.168 -14.824,-7.188 L 204.844,453.57 c -9.446,-5.23 -14.934,-9.058 -16.465,-11.468 -2.012,-3.27 -1.949,-6.852 0.195,-10.711 l 1.836,-3.313 -4.062,-2.25 -39.953,72.07 32.039,19.114 1.492,-2.692 c -7.297,-5.308 -12.082,-9.359 -14.363,-12.148 -2.278,-2.801 -3.551,-5.781 -3.817,-8.934 -0.074,-2.437 1.176,-5.988 3.746,-10.636 l 14.227,-25.653" /><path
         id="path28"
         style="fill:#ed1c24;fill-opacity:1;fill-rule:nonzero;stroke:none"
         d="m 125.547,542.789 -8.484,27.75 102.98,99.844 -93.887,-28.703 c -10.004,-3.059 -16.027,-5.68 -18.086,-7.84 -2.793,-2.891 -3.574,-6.34 -2.343,-10.371 l 1.086,-3.539 -4.446,-1.36 -10.8826,35.594 4.4414,1.356 1.1094,-3.618 c 1.3203,-4.32 4.3438,-6.754 9.0548,-7.289 2.902,-0.324 8.914,0.91 18.035,3.7 l 137.23,41.957 0.833,-2.715 -110.489,-107.496 100.25,30.652 c 10.008,3.059 16.043,5.648 18.11,7.758 2.777,2.941 3.558,6.402 2.343,10.371 l -1.109,3.621 4.445,1.359 10.883,-35.59 -4.437,-1.359 -1.086,3.539 c -1.336,4.379 -4.364,6.828 -9.082,7.371 -2.899,0.321 -8.911,-0.91 -18.036,-3.711 L 140.762,569.461 c -4.614,-4.66 -7.571,-8.02 -8.864,-10.09 -1.289,-2.07 -2.242,-4.82 -2.855,-8.25 -0.273,-1.68 0.039,-4 0.945,-6.973 l -4.441,-1.359" /><path
         id="path30"
         style="fill:#ed1c24;fill-opacity:1;fill-rule:nonzero;stroke:none"
         d="m 73.957,778.781 167.332,-50.238 -5.348,43.516 c -0.82,6.679 -3.773,11.523 -8.867,14.527 -5.094,2.996 -14.91,5.008 -29.457,6.035 l 0.43,2.672 45.351,0.484 10.622,-86.402 -4.618,-0.57 -162.6403,49.148 4.1758,-33.973 c 0.6875,-5.632 2.168,-9.597 4.4336,-11.886 2.2617,-2.293 5.3199,-3.875 9.1839,-4.754 3.863,-0.871 10.929,-1.238 21.199,-1.086 l 0.363,-2.977 -42.5154,-2.996 -9.6446,78.5" /><path
         id="path32"
         style="fill:#ed1c24;fill-opacity:1;fill-rule:nonzero;stroke:none"
         d="m 240.547,853.402 4.648,0.004 0.075,-45.816 -4.649,-0.004 -0.008,3.785 c -0.004,4.414 -2.058,7.617 -6.164,9.613 -2.679,1.258 -9.129,1.883 -19.336,1.875 l -109.98,-0.113 c -8.6174,-0.008 -14.3127,-0.355 -17.0783,-1.039 -2.0859,-0.531 -3.8867,-1.613 -5.3906,-3.242 -2.0039,-2.317 -3.0078,-4.731 -3,-7.258 l 0.0039,-3.781 -4.6446,-0.008 -0.0703,45.816 4.6407,0.004 0.0117,-3.863 c 0.0039,-4.363 2.0586,-7.543 6.1679,-9.535 2.6797,-1.313 9.125,-1.961 19.3316,-1.953 l 109.985,0.109 c 8.621,0.008 14.308,0.356 17.066,1.047 2.098,0.523 3.895,1.629 5.399,3.312 2.008,2.262 3.004,4.661 3.004,7.18 l -0.012,3.867" /><path
         id="path34"
         style="fill:#ed1c24;fill-opacity:1;fill-rule:nonzero;stroke:none"
         d="m 89.7813,944.313 c -1.6602,-9.418 2.5664,-17.958 12.6957,-25.614 12.597,-9.531 32.246,-16.656 58.953,-21.363 27.371,-4.824 49.074,-4.859 65.125,-0.106 12.207,3.661 19.121,10.129 20.754,19.399 1.746,9.887 -2.957,19.137 -14.106,27.746 -11.14,8.605 -29.945,15.246 -56.406,19.91 -28.684,5.059 -50.699,5.278 -66.043,0.672 -12.2149,-3.719 -19.2071,-10.598 -20.9727,-20.644 z m -8.7696,3.066 c 2.4102,13.668 12.7617,24.055 31.0543,31.16 18.289,7.102 39.797,8.477 64.528,4.113 25.469,-4.484 45.719,-13.261 60.761,-26.32 15.032,-13.059 21.29,-26.758 18.758,-41.094 -2.554,-14.5 -12.898,-25.23 -31.039,-32.203 -18.14,-6.969 -40.234,-8.16 -66.285,-3.566 -26.621,4.695 -47.34,14.215 -62.1445,28.57 -12.8515,12.457 -18.0586,25.57 -15.6328,39.34" /><path
         id="path36"
         style="fill:#ed1c24;fill-opacity:1;fill-rule:nonzero;stroke:none"
         d="m 104.941,1042.37 11.336,26.71 143.075,10.28 -90.372,38.36 c -9.632,4.09 -15.929,5.96 -18.89,5.62 -4,-0.42 -6.82,-2.56 -8.465,-6.43 l -1.445,-3.41 -4.278,1.81 14.543,34.26 4.278,-1.82 -1.481,-3.48 c -1.765,-4.16 -1.015,-7.97 2.25,-11.41 2.02,-2.11 7.414,-5.02 16.196,-8.75 l 132.089,-56.07 -1.105,-2.61 -153.742,-11.32 96.5,-40.96 c 9.629,-4.09 15.918,-5.99 18.855,-5.7 4.02,0.47 6.836,2.62 8.457,6.44 l 1.481,3.48 4.277,-1.82 -14.539,-34.253 -4.277,1.816 1.449,3.414 c 1.789,4.207 1.047,8.032 -2.223,11.473 -2.012,2.11 -7.41,5.04 -16.195,8.76 l -108.981,46.26 c -6.527,-0.6 -10.953,-1.28 -13.269,-2.04 -2.32,-0.75 -4.82,-2.25 -7.496,-4.48 -1.289,-1.11 -2.539,-3.09 -3.754,-5.95 l -4.274,1.82" /><path
         id="path38"
         style="fill:#ed1c24;fill-opacity:1;fill-rule:nonzero;stroke:none"
         d="m 191.547,1206.57 55.797,-37.63 13.14,19.48 c 3.407,5.05 4.473,9.25 3.188,12.59 -1.66,4.42 -6.43,9.47 -14.309,15.17 l 1.637,2.42 49.133,-33.14 -1.633,-2.42 c -7.285,4.02 -12.098,6.38 -14.457,7.09 -2.953,0.85 -5.73,0.85 -8.324,0 -2.594,-0.86 -5.145,-3.13 -7.637,-6.83 l -13.141,-19.48 46.528,-31.39 c 6.246,-4.21 10.164,-6.6 11.754,-7.16 1.586,-0.56 3.078,-0.68 4.457,-0.34 1.386,0.33 2.906,1.71 4.55,4.16 l 10.141,15.03 c 3.383,5.01 5.281,9.02 5.699,12.04 0.414,3.01 -0.297,6.66 -2.148,10.96 -2.481,5.6 -7.106,12.75 -13.867,21.43 l 1.761,2.61 30.239,-31.52 -46.082,-68.31 -3.852,2.6 2.117,3.14 c 1.414,2.09 1.953,4.61 1.617,7.56 -0.164,2.14 -1.191,4.21 -3.074,6.22 -1.886,1.99 -6.261,5.31 -13.133,9.94 l -91.703,61.85 c -8.949,6.04 -14.851,9.2 -17.695,9.47 -3.832,0.3 -6.984,-1.38 -9.457,-5.04 l -2.113,-3.14 -3.856,2.6 46.082,68.32 31.571,-19.87 -1.719,-2.55 c -8.039,4.09 -13.82,6.52 -17.348,7.28 -3.523,0.75 -6.754,0.54 -9.683,-0.66 -2.215,-1.04 -4.809,-3.76 -7.778,-8.16 l -16.402,-24.32" /><path
         id="path40"
         style="fill:#ed1c24;fill-opacity:1;fill-rule:nonzero;stroke:none"
         d="m 398.32,1230.4 c 6.43,2.95 11.27,5.99 14.524,9.14 8.773,8.46 11.312,20.41 7.621,35.8 -3.692,15.41 -13.649,31.5 -29.875,48.3 -16.336,16.92 -32.11,27.46 -47.313,31.63 -15.207,4.16 -27.343,1.86 -36.422,-6.9 -3.402,-3.29 -6.433,-7.91 -9.097,-13.85 z m -13.402,-30.05 -3.23,3.34 2.89,2.79 c 3.254,3.14 3.961,7.02 2.125,11.65 -1.09,2.79 -4.973,7.65 -11.66,14.57 l -76.398,79.11 c -7.391,7.65 -12.54,11.92 -15.461,12.83 -4.036,1.22 -7.504,0.43 -10.414,-2.39 l -2.899,-2.79 -3.226,3.34 31.316,30.24 c 11.492,11.1 22.242,17.47 32.25,19.1 10.004,1.64 21.512,-0.63 34.523,-6.8 13.008,-6.17 25.653,-15.61 37.918,-28.3 16.457,-17.05 26.957,-34.43 31.496,-52.15 5.032,-19.8 0.075,-36.93 -14.863,-51.35 l -34.367,-33.19" /><path
         id="path42"
         style="fill:#ed1c24;fill-opacity:1;fill-rule:nonzero;stroke:none"
         d="m 508.57,1310.39 2.528,-3.9 -38.418,-24.95 -2.535,3.9 3.179,2.06 c 3.703,2.4 5.274,5.87 4.711,10.4 -0.398,2.93 -3.379,8.67 -8.937,17.24 l -59.91,92.24 c -4.696,7.23 -8.083,11.82 -10.161,13.76 -1.582,1.47 -3.464,2.39 -5.648,2.77 -3.035,0.42 -5.609,-0.05 -7.727,-1.42 l -3.172,-2.06 -2.535,3.89 38.422,24.95 2.531,-3.89 -3.242,-2.11 c -3.656,-2.38 -5.211,-5.82 -4.648,-10.35 0.355,-2.97 3.316,-8.73 8.879,-17.29 l 59.906,-92.24 c 4.695,-7.23 8.078,-11.82 10.16,-13.76 1.578,-1.47 3.485,-2.38 5.719,-2.73 2.988,-0.45 5.543,0.01 7.656,1.39 l 3.242,2.1" /><path
         id="path44"
         style="fill:#ed1c24;fill-opacity:1;fill-rule:nonzero;stroke:none"
         d="m 569.137,1527.93 22.683,-48.79 -2.558,-1.03 c -7.598,11.37 -14.715,19.37 -21.348,24.01 -9.562,6.69 -18.976,8.17 -28.242,4.43 -12.621,-5.1 -19.008,-16.94 -19.16,-35.51 -0.082,-15.65 3.625,-32.75 11.113,-51.3 6.086,-15.05 13.465,-28.05 22.137,-38.99 8.672,-10.94 17.136,-18.1 25.394,-21.49 8.254,-3.39 15.5,-3.82 21.742,-1.3 3.653,1.48 6.891,3.64 9.707,6.5 2.813,2.85 5.223,6.35 7.239,10.5 l -18.442,45.63 c -3.195,7.92 -5.668,12.95 -7.41,15.09 -1.742,2.14 -3.668,3.52 -5.765,4.17 -2.102,0.63 -5.153,0.15 -9.149,-1.47 l -1.785,4.42 38.379,15.51 1.789,-4.42 -1.828,-0.74 c -3.805,-1.53 -5.598,-4.61 -5.375,-9.21 0.183,-3.27 1.984,-9.13 5.402,-17.58 l 19.52,-48.32 c -3.664,-7.08 -7.77,-12.84 -12.317,-17.29 -4.55,-4.46 -10.164,-8.04 -16.84,-10.74 -19.156,-7.74 -37.656,-3.83 -55.5,11.7 -13.382,11.66 -23.945,27.07 -31.687,46.24 -5.609,13.89 -8.898,28.04 -9.844,42.46 -1.14,17.14 0.977,31.55 6.363,43.2 4.532,9.68 11.743,16.52 21.641,20.52 3.602,1.46 7.07,2.32 10.395,2.58 3.324,0.26 8.336,-0.1 15.031,-1.1 3.387,-0.53 5.547,-0.61 6.473,-0.23 0.921,0.37 1.441,1.37 1.55,3 0.11,1.62 -0.562,4.44 -2.015,8.46 l 2.707,1.09" /><path
         id="path46"
         style="fill:#ed1c24;fill-opacity:1;fill-rule:nonzero;stroke:none"
         d="m 693.965,1389.25 1.355,-4.44 -43.804,-13.4 -1.364,4.45 3.621,1.1 c 4.219,1.29 6.692,4.19 7.399,8.7 0.426,2.93 -0.856,9.27 -3.844,19.04 l -32.156,105.17 c -2.52,8.25 -4.512,13.59 -5.973,16.03 -1.113,1.85 -2.672,3.25 -4.672,4.22 -2.797,1.24 -5.406,1.5 -7.816,0.76 l -3.621,-1.11 -1.356,4.44 43.809,13.4 1.355,-4.44 -3.691,-1.13 c -4.176,-1.28 -6.613,-4.17 -7.328,-8.68 -0.473,-2.94 0.785,-9.29 3.769,-19.06 l 32.161,-105.17 c 2.515,-8.25 4.507,-13.59 5.968,-16.03 1.114,-1.85 2.696,-3.25 4.746,-4.2 2.75,-1.26 5.332,-1.52 7.747,-0.78 l 3.695,1.13" /><path
         id="path48"
         style="fill:#ed1c24;fill-opacity:1;fill-rule:nonzero;stroke:none"
         d="m 677.102,1555.46 28.8,3.54 80.446,-118.77 -11.969,97.45 c -1.274,10.38 -2.801,16.77 -4.574,19.17 -2.364,3.25 -5.629,4.62 -9.801,4.1 l -3.68,-0.45 -0.566,4.61 36.941,4.53 0.567,-4.6 -3.758,-0.46 c -4.488,-0.55 -7.403,-3.11 -8.75,-7.65 -0.82,-2.8 -0.653,-8.94 0.512,-18.41 l 17.492,-142.42 -2.821,-0.35 -86.679,127.48 12.781,-104.04 c 1.273,-10.39 2.77,-16.78 4.5,-19.18 2.406,-3.24 5.676,-4.62 9.801,-4.11 l 3.754,0.46 0.566,-4.61 -36.941,-4.54 -0.571,4.62 3.684,0.45 c 4.535,0.56 7.48,3.11 8.828,7.66 0.82,2.8 0.652,8.94 -0.512,18.4 l -14.429,117.51 c -3.785,5.35 -6.582,8.85 -8.399,10.47 -1.816,1.64 -4.359,3.05 -7.633,4.25 -1.605,0.57 -3.949,0.66 -7.023,0.28 l -0.566,4.61" /><path
         id="path50"
         style="fill:#ed1c24;fill-opacity:1;fill-rule:nonzero;stroke:none"
         d="m 863.137,1557.2 -4.696,-67.13 23.446,-1.64 c 6.082,-0.42 10.246,0.75 12.492,3.53 3,3.65 4.992,10.31 5.98,19.98 l 2.911,-0.21 -4.129,-59.12 -2.911,0.21 c -0.156,8.32 -0.515,13.67 -1.089,16.06 -0.743,2.99 -2.129,5.39 -4.161,7.21 -2.035,1.82 -5.277,2.89 -9.734,3.2 l -23.437,1.64 -3.914,-55.98 c -0.528,-7.52 -0.637,-12.11 -0.332,-13.77 0.308,-1.65 0.949,-3 1.933,-4.03 0.984,-1.03 2.942,-1.65 5.875,-1.86 l 18.094,-1.26 c 6.027,-0.42 10.453,-0.06 13.273,1.08 2.825,1.15 5.625,3.59 8.418,7.34 3.614,4.95 7.489,12.52 11.625,22.72 l 3.149,-0.22 -12.18,-41.93 -82.191,5.74 0.32,4.63 3.773,-0.26 c 2.524,-0.17 4.973,0.62 7.36,2.38 1.773,1.22 3.051,3.15 3.843,5.77 0.79,2.63 1.473,8.08 2.051,16.35 l 7.711,110.34 c 0.75,10.77 0.531,17.46 -0.656,20.05 -1.652,3.48 -4.684,5.37 -9.086,5.68 l -3.777,0.26 0.324,4.64 82.191,-5.75 -1.414,-37.28 -3.07,0.22 c -0.477,9 -1.266,15.22 -2.367,18.66 -1.106,3.43 -2.907,6.12 -5.407,8.05 -2.011,1.4 -5.664,2.29 -10.96,2.66 l -29.258,2.04" /><path
         id="path52"
         style="fill:#ed1c24;fill-opacity:1;fill-rule:nonzero;stroke:none"
         d="m 1080.07,1521.89 -1.36,-4.44 c -3.94,0.06 -7.25,-0.94 -9.91,-3.01 -3.86,-3.11 -8.06,-8.39 -12.59,-15.84 l -78.034,-127.64 -2.789,0.85 4.609,152.07 c 0.242,7.8 0.203,12.62 -0.109,14.47 -0.5,2.86 -1.453,5.28 -2.86,7.24 -1.406,1.96 -3.605,3.62 -6.597,4.97 l 1.355,4.45 41.775,-12.78 -1.36,-4.44 c -4.94,0.72 -8.4,0.38 -10.37,-1.03 -1.971,-1.41 -3.396,-3.55 -4.279,-6.44 -1.223,-4 -1.981,-10.6 -2.258,-19.79 l -3.168,-103.4 52.945,86.87 c 5.2,8.55 8.35,14.64 9.45,18.24 0.71,2.32 0.66,4.76 -0.14,7.33 -0.82,2.57 -2.82,4.82 -6.02,6.77 -0.23,0.15 -0.62,0.4 -1.17,0.75 l 1.35,4.44 31.53,-9.64" /><path
         id="path54"
         style="fill:#ed1c24;fill-opacity:1;fill-rule:nonzero;stroke:none"
         d="m 1107.09,1420.29 c 0.87,-0.48 1.62,-0.92 2.25,-1.32 0.62,-0.39 1.14,-0.7 1.55,-0.93 8.92,-4.95 17.35,-5.59 25.29,-1.96 7.93,3.64 14.54,10.22 19.82,19.73 5.15,9.3 7.51,17.87 7.08,25.72 -0.43,7.85 -3.66,13.43 -9.68,16.77 -2.66,1.48 -6.66,2.79 -11.98,3.92 z m 23.99,-113.35 -24.97,13.84 6.94,87.16 c -2.42,1.15 -4.37,2.14 -5.85,2.95 -0.59,0.34 -1.23,0.72 -1.9,1.13 -0.67,0.42 -1.35,0.87 -2.04,1.35 l -23.98,-43.26 c -5.2,-9.37 -7.78,-15.55 -7.75,-18.53 -0.04,-4.19 1.69,-7.25 5.18,-9.19 l 3.66,-2.03 -2.25,-4.06 -40.07,22.21 2.25,4.06 3.52,-1.94 c 3.95,-2.2 7.91,-1.72 11.89,1.44 2.22,1.73 5.69,6.85 10.39,15.34 l 53.32,96.19 c 5.19,9.37 7.78,15.55 7.75,18.53 -0.01,4.21 -1.78,7.3 -5.32,9.26 l -3.52,1.95 2.25,4.07 34.07,-18.89 c 9.93,-5.5 16.61,-10.72 20.05,-15.63 3.43,-4.92 5.08,-11.38 4.94,-19.39 -0.15,-8.01 -2.59,-16.29 -7.34,-24.86 -5.07,-9.15 -11.35,-16.05 -18.82,-20.71 -7.48,-4.66 -15.93,-6.2 -25.33,-4.62 l -4.37,-53.42 c -1.02,-12.26 -0.84,-20.88 0.55,-25.85 1.38,-4.99 4.39,-9.33 9,-13.04 l -2.25,-4.06" /><path
         id="path56"
         style="fill:#ed1c24;fill-opacity:1;fill-rule:nonzero;stroke:none"
         d="m 1231.8,1314.68 30.33,64.35 -58.47,-40.74 z m -4.28,-8.54 -31.71,26.61 -22.83,-15.92 c -5.62,-3.92 -9.47,-7.12 -11.57,-9.62 -1.67,-1.99 -2.54,-4.24 -2.62,-6.74 -0.07,-2.51 1.67,-5.64 5.24,-9.4 l -2.99,-3.55 -25.79,21.64 2.99,3.56 c 4.23,-1.91 7.49,-2.52 9.79,-1.83 4.64,1.35 12.16,5.7 22.56,13.03 l 118.88,83.15 2.11,-1.78 -62.52,-132.4 c -5.02,-10.65 -7.69,-18.05 -7.99,-22.22 -0.31,-4.17 1.07,-7.81 4.14,-10.94 l -2.98,-3.55 -32.31,27.11 2.98,3.56 c 3.48,-2.48 6.41,-3.47 8.79,-2.96 2.39,0.52 4.47,1.83 6.24,3.95 2.37,2.82 5.31,7.95 8.81,15.39 l 10.78,22.91" /><path
         id="path58"
         style="fill:#ed1c24;fill-opacity:1;fill-rule:nonzero;stroke:none"
         d="m 1335.83,1145.57 -31.56,-11.56 -34.36,52.91 3.9,2.53 c 32.71,-0.89 58.28,0.15 76.73,3.1 18.44,2.95 33.6,8.27 45.46,15.97 9.06,5.88 15.37,12.46 18.93,19.73 3.57,7.26 3.77,13.32 0.62,18.17 -2.86,4.41 -7.48,7.04 -13.87,7.87 -6.38,0.84 -14.08,-0.48 -23.1,-3.95 l -1.59,2.45 c 13.7,7.32 25.51,10.96 35.42,10.91 9.91,-0.05 17.09,-3.49 21.53,-10.32 4.72,-7.28 4.95,-15.77 0.67,-25.47 -4.28,-9.71 -11.47,-17.84 -21.58,-24.41 -7.23,-4.69 -15.14,-8.33 -23.75,-10.91 -13.49,-4.12 -28.97,-6.64 -46.42,-7.57 -26.23,-1.42 -42.2,-2.04 -47.9,-1.86 l 15.21,-23.42 c 3.09,-4.76 5.54,-7.92 7.34,-9.47 1.81,-1.55 4.07,-2.54 6.8,-2.97 2.72,-0.42 6.03,-0.18 9.94,0.72 l 1.58,-2.45" /><path
         id="path60"
         style="fill:#ed1c24;fill-opacity:1;fill-rule:nonzero;stroke:none"
         d="m 1375.24,1077.5 -32.29,-9.33 -30.59,55.17 4.07,2.25 c 32.56,-3.16 58.15,-3.91 76.75,-2.26 18.61,1.66 34.1,5.92 46.47,12.78 9.44,5.23 16.19,11.35 20.25,18.35 4.06,7 4.7,13.03 1.9,18.08 -2.55,4.6 -6.99,7.54 -13.29,8.82 -6.31,1.28 -14.09,0.5 -23.32,-2.33 l -1.42,2.54 c 14.18,6.37 26.21,9.18 36.09,8.43 9.9,-0.74 16.81,-4.68 20.77,-11.8 4.19,-7.59 3.82,-16.07 -1.12,-25.45 -4.94,-9.38 -12.68,-17 -23.22,-22.84 -7.54,-4.18 -15.69,-7.26 -24.46,-9.23 -13.74,-3.17 -29.36,-4.61 -46.83,-4.32 -26.26,0.41 -42.23,0.9 -47.91,1.48 l 13.53,-24.41 c 2.75,-4.97 4.98,-8.29 6.67,-9.96 1.69,-1.68 3.89,-2.82 6.57,-3.44 2.69,-0.61 6.01,-0.6 9.96,0.02 l 1.42,-2.55" /><path
         id="path62"
         style="fill:#ed1c24;fill-opacity:1;fill-rule:nonzero;stroke:none"
         d="m 1443.46,981.82 60.49,37.46 -71.24,-2.32 z m -8.24,-4.832 -12.1,39.592 -27.82,-0.92 c -6.84,-0.22 -11.83,-0.81 -14.95,-1.77 -2.48,-0.76 -4.44,-2.16 -5.86,-4.22 -1.43,-2.06 -1.67,-5.64 -0.73,-10.736 l -4.44,-1.36 -9.84,32.196 4.44,1.36 c 2.51,-3.91 4.91,-6.19 7.22,-6.86 4.63,-1.39 13.3,-1.84 26.02,-1.36 l 144.98,5 0.81,-2.64 -124.55,-77 c -10.01,-6.196 -16.28,-10.957 -18.81,-14.29 -2.52,-3.324 -3.35,-7.136 -2.48,-11.429 l -4.44,-1.363 -12.33,40.343 4.45,1.356 c 1.56,-3.973 3.48,-6.395 5.76,-7.262 2.28,-0.871 4.74,-0.902 7.38,-0.094 3.52,1.078 8.77,3.782 15.77,8.117 l 21.52,13.34" /><path
         id="path64"
         style="fill:#ed1c24;fill-opacity:1;fill-rule:nonzero;stroke:none"
         d="m 1572.41,828.211 -53.41,-6.5 -0.19,2.754 c 13.16,3.711 22.98,8.008 29.43,12.887 9.33,7.027 13.64,15.527 12.94,25.488 -0.95,13.582 -10.22,23.32 -27.84,29.203 -14.85,4.918 -32.26,6.676 -52.22,5.285 -16.19,-1.133 -30.83,-4.133 -43.91,-9 -13.09,-4.867 -22.52,-10.703 -28.29,-17.512 -5.78,-6.804 -8.43,-13.562 -7.96,-20.277 0.28,-3.934 1.33,-7.68 3.18,-11.238 1.84,-3.563 4.42,-6.942 7.75,-10.133 l 49.1,3.434 c 8.51,0.589 14.06,1.386 16.63,2.382 2.58,1 4.49,2.395 5.75,4.2 1.26,1.8 1.74,4.851 1.43,9.148 l 4.76,0.332 2.89,-41.297 -4.76,-0.332 -0.14,1.965 c -0.28,4.09 -2.65,6.746 -7.1,7.961 -3.16,0.836 -9.3,0.934 -18.39,0.297 l -51.98,-3.633 c -5.59,5.668 -9.81,11.359 -12.64,17.063 -2.83,5.707 -4.5,12.152 -5,19.335 -1.44,20.61 7.98,37 28.28,49.168 15.21,9.125 33.14,14.411 53.75,15.852 14.95,1.043 29.43,-0.211 43.43,-3.762 16.66,-4.215 29.7,-10.679 39.11,-19.402 7.81,-7.305 12.09,-16.285 12.83,-26.93 0.28,-3.883 0.02,-7.441 -0.76,-10.687 -0.78,-3.242 -2.67,-7.899 -5.69,-13.957 -1.55,-3.055 -2.29,-5.086 -2.22,-6.082 0.07,-0.996 0.86,-1.797 2.37,-2.403 1.51,-0.605 4.4,-0.84 8.67,-0.699 l 0.2,-2.91" /><path
         id="path66"
         style="fill:#ed1c24;fill-opacity:1;fill-rule:nonzero;stroke:none"
         d="m 1555.26,719.484 c 1.18,9.496 -3.5,17.805 -14.01,24.922 -13.08,8.864 -33.07,14.946 -59.99,18.254 -27.58,3.387 -49.25,2.289 -65.03,-3.293 -12,-4.301 -18.57,-11.121 -19.72,-20.465 -1.23,-9.964 3.95,-18.953 15.53,-26.972 11.58,-8.012 30.7,-13.66 57.36,-16.93 28.92,-3.559 50.91,-2.629 66,2.777 12,4.348 18.62,11.586 19.86,21.707 z m 8.92,-2.601 c -1.69,-13.774 -11.48,-24.688 -29.39,-32.738 -17.89,-8.055 -39.3,-10.547 -64.22,-7.489 -25.67,3.157 -46.35,10.86 -62.04,23.117 -15.7,12.254 -22.66,25.61 -20.89,40.063 1.8,14.609 11.57,25.871 29.32,33.781 17.76,7.91 39.76,10.246 66.01,7.024 26.82,-3.293 48.02,-11.723 63.55,-25.282 13.48,-11.773 19.37,-24.593 17.66,-38.476" /><path
         id="path68"
         style="fill:#ed1c24;fill-opacity:1;fill-rule:nonzero;stroke:none"
         d="m 1525,558.949 -56.31,17.223 0.85,2.789 c 11.09,-2.402 20.19,-3.41 27.31,-3.02 7.11,0.368 13.22,2.149 18.3,5.321 5.08,3.179 8.34,7.066 9.75,11.699 1.59,5.23 0.37,10.328 -3.66,15.301 -4.03,4.968 -9.3,8.449 -15.78,10.429 -4.96,1.52 -9.82,1.821 -14.56,0.911 -6.95,-1.282 -17.23,-6.25 -30.81,-14.911 -11.09,-7.05 -19.35,-11.66 -24.78,-13.82 -5.43,-2.16 -11.39,-3.269 -17.89,-3.351 -6.51,-0.071 -13,0.878 -19.48,2.859 -12.32,3.769 -22.03,10.031 -29.12,18.762 -7.09,8.738 -9.19,17.828 -6.3,27.281 0.91,2.969 2.13,5.648 3.65,8.039 0.88,1.434 3.32,4.219 7.34,8.348 4.02,4.132 6.23,6.851 6.63,8.156 0.39,1.258 0.09,2.437 -0.89,3.531 -0.97,1.098 -3.29,2.395 -6.95,3.895 l 0.86,2.793 55.82,-17.071 -0.85,-2.793 c -12.09,2.27 -21.37,3.184 -27.85,2.746 -6.48,-0.437 -12.33,-2.343 -17.57,-5.718 -5.23,-3.375 -8.68,-7.778 -10.34,-13.207 -1.92,-6.282 -0.79,-12.051 3.37,-17.321 4.17,-5.25 9.86,-8.98 17.06,-11.191 4,-1.219 8.26,-1.758 12.76,-1.629 4.51,0.129 8.97,1.121 13.38,2.961 3,1.219 9.74,5.019 20.22,11.379 10.48,6.359 18.6,10.68 24.38,12.949 5.77,2.281 11.75,3.512 17.93,3.711 6.2,0.199 12.65,-0.73 19.37,-2.781 11.69,-3.578 20.89,-9.469 27.62,-17.688 6.72,-8.211 8.75,-16.66 6.09,-25.359 -1.66,-5.434 -5.55,-10.531 -11.65,-15.32 -2.86,-2.204 -4.46,-3.883 -4.82,-5.043 -0.39,-1.309 -0.11,-2.559 0.88,-3.77 0.99,-1.207 3.29,-2.641 6.89,-4.289 l -0.85,-2.801" /><path
         id="path70"
         style="fill:#ed1c24;fill-opacity:1;fill-rule:nonzero;stroke:none"
         d="m 1455.96,428.27 -35.5,18.332 1.46,2.617 c 6.43,-2.899 11.2,-4.649 14.32,-5.239 5.03,-0.929 9.21,-0.761 12.54,0.489 3.33,1.25 6.06,3.812 8.2,7.672 l 7.31,13.168 -113.76,63.062 c -9.15,5.07 -15.21,7.609 -18.16,7.629 -4.04,-0.039 -7.08,-1.879 -9.09,-5.512 l -1.8,-3.238 -4.06,2.25 21.98,39.648 4.07,-2.25 -1.84,-3.308 c -2.19,-3.949 -1.84,-7.809 1.05,-11.578 1.78,-2.313 6.84,-5.782 15.19,-10.403 l 113.75,-63.058 6.23,11.238 c 2.42,4.371 3.63,7.762 3.63,10.16 -0.06,3.172 -1.61,6.692 -4.61,10.582 -3.01,3.899 -7.8,7.867 -14.35,11.93 l 1.45,2.621 34.3,-20.461 -42.31,-76.351" /><path
         id="path72"
         style="fill:#ed1c24;fill-opacity:1;fill-rule:nonzero;stroke:none"
         d="m 1397,354.648 c 6.15,7.332 6.75,16.852 1.82,28.543 -6.14,14.559 -19.6,30.547 -40.38,47.981 -21.28,17.867 -40.06,28.75 -56.34,32.66 -12.4,2.93 -21.62,0.789 -27.67,-6.434 -6.46,-7.687 -7.01,-18.046 -1.66,-31.078 5.35,-13.031 18.31,-28.179 38.89,-45.449 22.31,-18.723 41.26,-29.922 56.85,-33.609 12.44,-2.883 21.93,-0.422 28.49,7.386 z m 6.06,-7.039 c -8.92,-10.629 -23.08,-14.437 -42.47,-11.461 -19.39,3 -38.71,12.563 -57.94,28.711 -19.81,16.621 -32.96,34.352 -39.46,53.18 -6.49,18.832 -5.05,33.82 4.31,44.981 9.46,11.269 23.79,15.402 42.98,12.359 19.2,-3.027 38.92,-13.047 59.19,-30.047 20.71,-17.383 33.88,-35.992 39.53,-55.82 4.89,-17.223 2.85,-31.192 -6.14,-41.903" /><path
         id="path74"
         style="fill:#ed1c24;fill-opacity:1;fill-rule:nonzero;stroke:none"
         d="m 1289.24,261.039 -7.51,-32.09 -2.02,-1.64 -90.46,111.73 c -6,7.41 -9.94,11.871 -11.8,13.383 -1.86,1.508 -3.8,2.25 -5.82,2.226 -2.02,-0.007 -4.96,-1.468 -8.82,-4.386 l -2.92,3.609 31.25,25.309 2.92,-3.61 c -3.81,-3.308 -5.91,-5.89 -6.29,-7.761 -0.38,-1.868 -0.15,-3.778 0.69,-5.75 0.84,-1.95 4.47,-6.899 10.9,-14.829 l 57.83,-71.429 c 7.8,-9.629 13.01,-15.641 15.63,-18.039 1.97,-1.852 3.73,-2.961 5.28,-3.321 1.54,-0.371 2.85,-0.121 3.91,0.739 1.51,1.23 2.79,3.929 3.86,8.129 l 3.37,-2.27" /><path
         id="path76"
         style="fill:#ed1c24;fill-opacity:1;fill-rule:nonzero;stroke:none"
         d="m 1153.83,233.039 c -1.13,-10.969 -1.17,-19.141 -0.1,-24.527 1.06,-5.391 3.19,-10.981 6.4,-16.762 4.26,-7.691 8.96,-12.961 14.08,-15.809 5.13,-2.851 10.04,-2.98 14.73,-0.382 4.69,2.613 7.31,6.871 7.85,12.832 0.55,5.949 -0.77,11.82 -3.98,17.597 -2.11,3.813 -4.83,7.274 -8.16,10.403 -3.33,3.129 -7.07,5.8 -11.23,7.988 z m -1.24,20.133 c 0.98,7.238 0.71,14.387 -0.8,21.437 -1.51,7.063 -4.21,14.102 -8.1,21.129 -5.24,9.453 -11.05,16.114 -17.44,19.992 -6.38,3.872 -12.08,4.418 -17.09,1.649 -4.97,-2.758 -7.7,-7.188 -8.22,-13.32 -0.51,-6.118 1,-12.368 4.53,-18.739 2.92,-5.269 6.41,-9.511 10.47,-12.711 7.57,-5.949 19.78,-12.429 36.65,-19.437 z m 5.55,-2.383 c 12.76,-5.551 21.84,-10.668 27.22,-15.348 5.38,-4.671 9.82,-10.14 13.31,-16.441 5.35,-9.66 7.62,-19.289 6.81,-28.879 -0.81,-9.59 -5.1,-16.539 -12.87,-20.851 -7.55,-4.18 -15.42,-4.29 -23.63,-0.321 -8.21,3.973 -14.62,10.121 -19.25,18.461 -3.08,5.57 -4.99,11.942 -5.71,19.102 -0.72,7.148 0.68,16.82 4.2,29.019 -13.62,5.469 -23.31,10.328 -29.1,14.59 -7.63,5.527 -13.74,12.43 -18.32,20.699 -5.81,10.469 -8.26,20.801 -7.37,31.02 0.89,10.199 5.41,17.57 13.55,22.07 8.87,4.918 18.24,4.32 28.12,-1.781 7.89,-4.899 14.17,-11.57 18.83,-19.988 3.65,-6.582 5.88,-13.891 6.7,-21.911 0.81,-8.019 -0.02,-17.839 -2.49,-29.441" /><path
         id="path78"
         style="fill:#ed1c24;fill-opacity:1;fill-rule:nonzero;stroke:none"
         d="m 1085.01,214 c -3.35,10.832 -6.33,19.469 -8.94,25.898 -3,7.461 -7.14,15.204 -12.39,23.231 -5.26,8.031 -10.63,13.922 -16.12,17.66 -3.96,2.652 -7.71,3.25 -11.27,1.813 -4.24,-1.711 -6.75,-6.43 -7.52,-14.141 -0.76,-7.723 1.23,-17.461 6,-29.262 5.36,-13.269 11.66,-24.09 18.89,-32.449 7.24,-8.359 13.9,-11.309 20,-8.852 1.85,0.743 3.58,2.172 5.2,4.274 1.62,2.098 3.67,6.047 6.15,11.828 z m -12.55,-99.871 -1.75,4.32 c 6.03,3.602 10.46,7.762 13.29,12.473 2.84,4.719 4.96,11.019 6.4,18.91 1.43,7.887 1.89,16.219 1.38,25 -0.51,8.77 -2.04,18.816 -4.58,30.168 -3.91,-10.52 -9.4,-17.199 -16.47,-20.07 -6.78,-2.731 -14.41,-0.758 -22.89,5.922 -8.48,6.687 -15.49,16.859 -21,30.519 -5.34,13.188 -7.68,26.231 -7.05,39.129 0.71,15.641 6.04,25.461 15.99,29.469 6.77,2.75 13.97,1.5 21.58,-3.739 14.87,-10.14 26.78,-26.281 35.71,-48.398 5.71,-14.121 9.35,-28.262 10.94,-42.434 1.58,-14.16 1.06,-27.507 -1.56,-40.027 -2.63,-12.531 -6.27,-21.723 -10.94,-27.57 -4.66,-5.852 -9.6,-9.84 -14.82,-11.949 l -4.23,-1.723" /><path
         id="path80"
         style="fill:#ed1c24;fill-opacity:1;fill-rule:nonzero;stroke:none"
         d="m 975.449,200.262 24.711,-80.801 11.18,91.769 z m -26.168,-8.012 -5.211,17.051 13.723,4.199 -13.141,42.98 12.442,3.809 13.14,-42.988 43.286,13.238 4.7,-15.367 -14.47,-122.3204 -8.289,-2.543 -32.453,106.1404 -13.727,-4.199" /><path
         id="path82"
         style="fill:#ed1c24;fill-opacity:1;fill-rule:nonzero;stroke:none"
         d="M 691.934,1205.8 H 951.086 V 949.313 H 1209.35 V 693.707 H 951.086 V 437.219 H 691.934 V 693.707 H 433.672 V 949.313 H 691.934 V 1205.8" /><path
         id="path84"
         style="fill:none;stroke:#ed1c24;stroke-width:8.84500027;stroke-linecap:butt;stroke-linejoin:miter;stroke-miterlimit:10;stroke-dasharray:none;stroke-opacity:1"
         d="M 691.934,1205.8 H 951.086 V 949.313 H 1209.35 V 693.707 H 951.086 V 437.219 H 691.934 V 693.707 H 433.672 v 255.606 h 258.262 z" /><path
         id="path86"
         style="fill:#ed1e24;fill-opacity:1;fill-rule:nonzero;stroke:none"
         d="m 875.629,171.898 h -45 L 817.27,153.012 Z m -22.324,-69.339 -14.063,42.89 -22.148,7.031 z m -36.563,50.8 v 61.172 l -13.887,-42.633 z m 0,-24.347 v 22.769 L 780.18,102.559 Z m -0.351,23.82 -58.536,19.066 36.387,-26.449 z M 884.594,174.809 842.672,144.398 858.668,95 816.742,125.488 774.82,95 l 15.996,49.398 -41.75,30.411 h 51.68 l 15.996,49.121 15.996,-49.121 h 51.856" /></g></g></svg>