<?xml version="1.0" encoding="utf-8"?>
<!-- Generator: Adobe Illustrator 19.2.1, SVG Export Plug-In . SVG Version: 6.00 Build 0)  -->
<svg version="1.1" id="Layer_1" xmlns="http://www.w3.org/2000/svg" xmlns:xlink="http://www.w3.org/1999/xlink" x="0px" y="0px"
	 viewBox="0 0 623.6 623.6" style="enable-background:new 0 0 623.6 623.6;" xml:space="preserve">
<style type="text/css">
	.st0{fill:none;}
	.st1{fill:#CC0000;}
	.st2{fill:#FFFFFF;}
	.st3{fill:#CC0000;stroke:#CC0000;stroke-width:7.620000e-002;}
</style>
<g id="Livello_x0020_1">
	<polygon class="st0" points="0,-2.2 623.6,-2.2 623.6,621.4 0,621.4 	"/>
	<g id="_46356144">
		<path id="_56443832" class="st1" d="M50,562.1l8.4,2.7c-1.3,4.7-3.4,8.2-6.4,10.5c-3,2.3-6.8,3.4-11.4,3.4
			c-5.7,0-10.4-1.9-14.1-5.8c-3.7-3.9-5.5-9.2-5.5-16c0-7.2,1.8-12.7,5.5-16.7c3.7-4,8.5-5.9,14.6-5.9c5.3,0,9.5,1.5,12.8,4.7
			c2,1.8,3.4,4.5,4.4,7.9l-8.6,2.1c-0.5-2.2-1.6-4-3.2-5.3c-1.6-1.3-3.6-1.9-5.9-1.9c-3.2,0-5.8,1.1-7.7,3.4c-2,2.3-3,6-3,11.1
			c0,5.4,1,9.3,2.9,11.6c1.9,2.3,4.5,3.5,7.6,3.5c2.3,0,4.3-0.7,5.9-2.2C48.1,567.6,49.2,565.3,50,562.1z M73.6,577.9h-8.2v-31.1
			h7.6v4.4c1.3-2.1,2.5-3.5,3.5-4.1c1.1-0.7,2.2-1,3.6-1c1.9,0,3.7,0.5,5.4,1.6l-2.6,7.2c-1.4-0.9-2.7-1.3-3.9-1.3
			c-1.2,0-2.1,0.3-2.9,1c-0.8,0.6-1.4,1.8-1.9,3.4c-0.5,1.7-0.7,5.1-0.7,10.4L73.6,577.9L73.6,577.9z M87.2,561.9
			c0-2.7,0.7-5.4,2-7.9c1.3-2.5,3.3-4.5,5.7-5.9c2.5-1.3,5.2-2,8.3-2c4.7,0,8.6,1.5,11.6,4.6c3,3.1,4.5,6.9,4.5,11.6
			c0,4.7-1.5,8.6-4.6,11.7c-3,3.1-6.9,4.6-11.5,4.6c-2.9,0-5.6-0.6-8.2-1.9s-4.6-3.2-5.9-5.7C87.9,568.5,87.2,565.5,87.2,561.9z
			 M95.6,562.4c0,3.1,0.7,5.4,2.2,7.1c1.5,1.6,3.3,2.5,5.4,2.5c2.2,0,4-0.8,5.4-2.5c1.5-1.6,2.2-4,2.2-7.2c0-3-0.7-5.4-2.2-7
			c-1.4-1.6-3.2-2.5-5.4-2.5c-2.2,0-4,0.8-5.4,2.5C96.4,556.9,95.6,559.3,95.6,562.4L95.6,562.4z M152.9,556l-8.1,1.5
			c-0.3-1.6-0.9-2.8-1.9-3.7c-1-0.8-2.2-1.2-3.8-1.2c-2.1,0-3.7,0.7-4.9,2.1c-1.2,1.4-1.8,3.8-1.8,7.1c0,3.7,0.6,6.3,1.9,7.8
			c1.2,1.5,2.9,2.3,5,2.3c1.6,0,2.8-0.4,3.8-1.3c1-0.9,1.7-2.4,2.1-4.6l8.1,1.4c-0.8,3.7-2.5,6.5-4.8,8.4c-2.4,1.9-5.6,2.8-9.6,2.8
			c-4.5,0-8.2-1.4-10.9-4.3c-2.7-2.9-4.1-6.8-4.1-11.9c0-5.1,1.4-9.1,4.1-12c2.7-2.9,6.4-4.3,11-4.3c3.8,0,6.8,0.8,9,2.4
			C150.3,550.2,151.9,552.7,152.9,556L152.9,556z M177.1,568l8.2,1.4c-1.1,3-2.7,5.3-5,6.9c-2.3,1.6-5.1,2.4-8.5,2.4
			c-5.4,0-9.4-1.8-12-5.3c-2.1-2.8-3.1-6.4-3.1-10.7c0-5.2,1.3-9.2,4-12.1c2.7-2.9,6.1-4.4,10.2-4.4c4.6,0,8.3,1.5,11,4.6
			c2.7,3.1,4,7.7,3.8,14.1h-20.6c0.1,2.4,0.7,4.3,2,5.7c1.3,1.4,2.9,2,4.8,2c1.3,0,2.4-0.4,3.2-1.1C176,570.7,176.7,569.6,177.1,568
			L177.1,568z M177.6,559.7c-0.1-2.4-0.7-4.2-1.8-5.4c-1.2-1.2-2.6-1.9-4.3-1.9c-1.8,0-3.3,0.7-4.4,2c-1.2,1.3-1.8,3.1-1.7,5.3
			H177.6L177.6,559.7z M209.3,577.9V535h18.3c4.6,0,7.9,0.4,10,1.2c2.1,0.8,3.7,2.1,5,4.1c1.3,2,1.9,4.2,1.9,6.8
			c0,3.2-0.9,5.9-2.8,8c-1.9,2.1-4.7,3.4-8.5,4c1.9,1.1,3.4,2.3,4.6,3.6c1.2,1.3,2.9,3.6,4.9,7l5.3,8.4h-10.4l-6.3-9.4
			c-2.2-3.3-3.8-5.4-4.6-6.3c-0.8-0.9-1.7-1.5-2.6-1.8c-0.9-0.3-2.4-0.5-4.4-0.5h-1.8v17.9L209.3,577.9L209.3,577.9z M217.9,553.1
			h6.4c4.2,0,6.8-0.2,7.8-0.5c1-0.4,1.8-1,2.4-1.8c0.6-0.9,0.9-1.9,0.9-3.2c0-1.5-0.4-2.6-1.2-3.5c-0.8-0.9-1.9-1.5-3.3-1.7
			c-0.7-0.1-2.8-0.1-6.3-0.1h-6.8V553.1L217.9,553.1z M250.6,561.9c0-2.7,0.7-5.4,2-7.9c1.3-2.6,3.3-4.5,5.7-5.9
			c2.5-1.3,5.2-2,8.3-2c4.7,0,8.6,1.5,11.6,4.6c3,3.1,4.5,6.9,4.5,11.6c0,4.7-1.5,8.6-4.6,11.7c-3,3.1-6.9,4.6-11.5,4.6
			c-2.9,0-5.6-0.6-8.2-1.9c-2.6-1.3-4.6-3.2-5.9-5.7C251.3,568.5,250.6,565.5,250.6,561.9z M259,562.4c0,3.1,0.7,5.4,2.2,7.1
			c1.5,1.6,3.3,2.5,5.4,2.5c2.2,0,4-0.8,5.4-2.5c1.5-1.6,2.2-4,2.2-7.2c0-3-0.7-5.4-2.2-7c-1.4-1.6-3.2-2.5-5.4-2.5
			c-2.2,0-4,0.8-5.4,2.5C259.8,556.9,259,559.3,259,562.4L259,562.4z M286.3,569l8.3-1.3c0.3,1.6,1.1,2.8,2.1,3.7
			c1.1,0.8,2.6,1.2,4.5,1.2c2.1,0,3.7-0.4,4.8-1.2c0.7-0.5,1.1-1.3,1.1-2.2c0-0.6-0.2-1.2-0.6-1.6c-0.4-0.4-1.3-0.7-2.8-1.1
			c-6.6-1.5-10.8-2.8-12.6-4c-2.5-1.7-3.7-4-3.7-7c0-2.7,1.1-5,3.2-6.8c2.1-1.8,5.4-2.8,9.9-2.8c4.3,0,7.4,0.7,9.5,2.1
			c2.1,1.4,3.5,3.4,4.3,6.2l-7.8,1.4c-0.3-1.2-1-2.1-1.9-2.8c-0.9-0.6-2.3-1-4-1c-2.2,0-3.7,0.3-4.7,0.9c-0.6,0.4-0.9,1-0.9,1.7
			c0,0.6,0.3,1.1,0.8,1.5c0.7,0.6,3.3,1.3,7.7,2.3c4.4,1,7.4,2.2,9.2,3.7c1.7,1.5,2.6,3.5,2.6,6.1c0,2.8-1.2,5.3-3.6,7.4
			c-2.4,2-5.9,3.1-10.6,3.1c-4.2,0-7.6-0.9-10.1-2.6C288.6,574.3,287,572,286.3,569L286.3,569z M319.6,569l8.3-1.3
			c0.3,1.6,1.1,2.8,2.1,3.7c1.1,0.8,2.6,1.2,4.5,1.2c2.1,0,3.7-0.4,4.8-1.2c0.7-0.5,1.1-1.3,1.1-2.2c0-0.6-0.2-1.2-0.6-1.6
			c-0.4-0.4-1.3-0.7-2.8-1.1c-6.6-1.5-10.8-2.8-12.6-4c-2.5-1.7-3.7-4-3.7-7c0-2.7,1.1-5,3.2-6.8c2.1-1.8,5.4-2.8,9.9-2.8
			c4.3,0,7.4,0.7,9.5,2.1c2.1,1.4,3.5,3.4,4.3,6.2l-7.8,1.4c-0.3-1.2-1-2.1-1.9-2.8c-0.9-0.6-2.3-1-4-1c-2.2,0-3.7,0.3-4.7,0.9
			c-0.6,0.4-0.9,1-0.9,1.7c0,0.6,0.3,1.1,0.8,1.5c0.7,0.6,3.3,1.3,7.7,2.3c4.4,1,7.4,2.2,9.2,3.7c1.7,1.5,2.6,3.5,2.6,6.1
			c0,2.8-1.2,5.3-3.6,7.4c-2.4,2-5.9,3.1-10.6,3.1c-4.2,0-7.6-0.9-10.1-2.6C322,574.3,320.4,572,319.6,569L319.6,569z M362,556.3
			l-7.5-1.3c0.8-3,2.3-5.2,4.3-6.7c2.1-1.4,5.1-2.2,9.1-2.2c3.7,0,6.4,0.4,8.2,1.3c1.8,0.9,3.1,2,3.8,3.3c0.7,1.3,1.1,3.8,1.1,7.4
			l-0.1,9.6c0,2.7,0.1,4.8,0.4,6c0.3,1.3,0.8,2.7,1.5,4.2h-8.1c-0.2-0.5-0.5-1.4-0.8-2.4c-0.1-0.5-0.2-0.8-0.3-1
			c-1.4,1.4-2.9,2.4-4.5,3.1c-1.6,0.7-3.3,1-5.1,1c-3.2,0-5.7-0.9-7.6-2.6c-1.8-1.7-2.8-3.9-2.8-6.6c0-1.8,0.4-3.3,1.3-4.7
			c0.8-1.4,2-2.4,3.5-3.2c1.5-0.7,3.7-1.4,6.6-1.9c3.8-0.7,6.5-1.4,8-2v-0.8c0-1.6-0.4-2.7-1.2-3.4c-0.8-0.7-2.3-1-4.4-1
			c-1.5,0-2.6,0.3-3.4,0.9C363.2,553.8,362.6,554.9,362,556.3L362,556.3z M373.1,563c-1.1,0.4-2.7,0.8-5,1.3c-2.3,0.5-3.8,1-4.5,1.4
			c-1.1,0.8-1.6,1.7-1.6,2.9c0,1.2,0.4,2.2,1.3,3c0.9,0.8,1.9,1.3,3.3,1.3c1.5,0,2.9-0.5,4.2-1.5c1-0.7,1.7-1.7,2-2.7
			c0.2-0.7,0.3-2,0.3-4V563L373.1,563z M405.7,577.9V535h8.7v42.9H405.7z M436.9,546.8v6.6h-5.6v12.5c0,2.5,0,4,0.2,4.4
			c0.1,0.4,0.4,0.8,0.7,1c0.4,0.3,0.8,0.4,1.4,0.4c0.8,0,1.9-0.3,3.3-0.8l0.7,6.4c-1.9,0.8-4.1,1.2-6.5,1.2c-1.5,0-2.8-0.2-4-0.7
			c-1.2-0.5-2.1-1.2-2.6-1.9c-0.6-0.8-0.9-1.9-1.2-3.2c-0.2-1-0.3-2.9-0.3-5.8v-13.6h-3.8v-6.6h3.8v-6.2l8.3-4.8v11H436.9z
			 M448.7,556.3l-7.5-1.3c0.8-3,2.3-5.2,4.3-6.7c2.1-1.4,5.1-2.2,9.1-2.2c3.7,0,6.4,0.4,8.2,1.3c1.8,0.9,3.1,2,3.8,3.3
			c0.7,1.3,1.1,3.8,1.1,7.4l-0.1,9.6c0,2.7,0.1,4.8,0.4,6c0.3,1.3,0.8,2.7,1.5,4.2h-8.1c-0.2-0.5-0.5-1.4-0.8-2.4
			c-0.1-0.5-0.2-0.8-0.3-1c-1.4,1.4-2.9,2.4-4.5,3.1c-1.6,0.7-3.3,1-5.1,1c-3.2,0-5.7-0.9-7.6-2.6c-1.8-1.7-2.8-3.9-2.8-6.6
			c0-1.8,0.4-3.3,1.3-4.7c0.8-1.4,2-2.4,3.5-3.2c1.5-0.7,3.7-1.4,6.6-1.9c3.8-0.7,6.5-1.4,8-2v-0.8c0-1.6-0.4-2.7-1.2-3.4
			c-0.8-0.7-2.3-1-4.4-1c-1.5,0-2.6,0.3-3.4,0.9C449.9,553.8,449.2,554.9,448.7,556.3L448.7,556.3z M459.7,563
			c-1.1,0.4-2.7,0.8-5,1.3c-2.3,0.5-3.8,1-4.5,1.4c-1.1,0.8-1.6,1.7-1.6,2.9c0,1.2,0.4,2.2,1.3,3c0.9,0.8,1.9,1.3,3.3,1.3
			c1.5,0,2.9-0.5,4.2-1.5c1-0.7,1.7-1.7,2-2.7c0.2-0.7,0.3-2,0.3-4V563L459.7,563z M476,577.9V535h8.2v42.9H476z M492.6,542.6V535
			h8.2v7.6H492.6z M492.6,577.9v-31.1h8.2v31.1H492.6z M515.4,556.3L508,555c0.8-3,2.3-5.2,4.3-6.7c2.1-1.4,5.1-2.2,9.1-2.2
			c3.7,0,6.4,0.4,8.2,1.3c1.8,0.9,3.1,2,3.8,3.3c0.7,1.3,1.1,3.8,1.1,7.4l-0.1,9.6c0,2.7,0.1,4.8,0.4,6c0.3,1.3,0.8,2.7,1.5,4.2
			h-8.1c-0.2-0.5-0.5-1.4-0.8-2.4c-0.1-0.5-0.2-0.8-0.3-1c-1.4,1.4-2.9,2.4-4.5,3.1c-1.6,0.7-3.3,1-5.1,1c-3.2,0-5.7-0.9-7.6-2.6
			c-1.8-1.7-2.8-3.9-2.8-6.6c0-1.8,0.4-3.3,1.3-4.7c0.8-1.4,2-2.4,3.5-3.2c1.5-0.7,3.7-1.4,6.6-1.9c3.8-0.7,6.5-1.4,8-2v-0.8
			c0-1.6-0.4-2.7-1.2-3.4c-0.8-0.7-2.3-1-4.4-1c-1.5,0-2.6,0.3-3.4,0.9C516.6,553.8,516,554.9,515.4,556.3L515.4,556.3z M526.5,563
			c-1.1,0.4-2.7,0.8-5,1.3c-2.3,0.5-3.8,1-4.5,1.4c-1.1,0.8-1.6,1.7-1.6,2.9c0,1.2,0.4,2.2,1.3,3c0.9,0.8,1.9,1.3,3.3,1.3
			c1.5,0,2.9-0.5,4.3-1.5c1-0.7,1.7-1.7,2-2.7c0.2-0.7,0.3-2,0.3-4V563L526.5,563z M571,577.9h-8.2V562c0-3.4-0.2-5.5-0.5-6.5
			c-0.4-1-0.9-1.8-1.7-2.3c-0.8-0.5-1.7-0.8-2.8-0.8c-1.4,0-2.7,0.4-3.8,1.2c-1.1,0.8-1.9,1.8-2.3,3.1c-0.4,1.3-0.6,3.7-0.6,7.2
			v14.1h-8.2v-31.1h7.6v4.6c2.7-3.5,6.1-5.3,10.3-5.3c1.8,0,3.5,0.3,5,1c1.5,0.7,2.6,1.5,3.4,2.5c0.8,1,1.3,2.2,1.6,3.5
			c0.3,1.3,0.5,3.1,0.5,5.5V577.9L571,577.9z M585.5,556.3L578,555c0.8-3,2.3-5.2,4.3-6.7c2.1-1.4,5.1-2.2,9.1-2.2
			c3.7,0,6.4,0.4,8.2,1.3c1.8,0.9,3.1,2,3.8,3.3c0.7,1.3,1.1,3.8,1.1,7.4l-0.1,9.6c0,2.7,0.1,4.8,0.4,6c0.3,1.3,0.8,2.7,1.5,4.2
			h-8.1c-0.2-0.5-0.5-1.4-0.8-2.4c-0.1-0.5-0.2-0.8-0.3-1c-1.4,1.4-2.9,2.4-4.5,3.1c-1.6,0.7-3.3,1-5.1,1c-3.2,0-5.7-0.9-7.6-2.6
			c-1.8-1.7-2.8-3.9-2.8-6.6c0-1.8,0.4-3.3,1.3-4.7c0.8-1.4,2-2.4,3.5-3.2c1.5-0.7,3.7-1.4,6.6-1.9c3.8-0.7,6.5-1.4,8-2v-0.8
			c0-1.6-0.4-2.7-1.2-3.4c-0.8-0.7-2.3-1-4.4-1c-1.5,0-2.6,0.3-3.4,0.9C586.6,553.8,586,554.9,585.5,556.3L585.5,556.3z M596.5,563
			c-1.1,0.4-2.7,0.8-5,1.3c-2.3,0.5-3.8,1-4.5,1.4c-1.1,0.8-1.6,1.7-1.6,2.9c0,1.2,0.4,2.2,1.3,3c0.9,0.8,1.9,1.3,3.3,1.3
			c1.5,0,2.9-0.5,4.2-1.5c1-0.7,1.7-1.7,2-2.7c0.2-0.7,0.3-2,0.3-4V563L596.5,563z"/>
		<polygon id="_56776968" class="st1" points="306.8,41.5 318.6,41.8 330.2,42.7 341.7,44.1 353,46.2 364.1,48.7 374.9,51.8 
			385.6,55.4 396,59.5 406.1,64.1 416,69.2 425.6,74.7 434.9,80.6 443.9,87 452.5,93.8 460.9,101 468.8,108.6 476.4,116.6 
			483.6,124.9 490.4,133.6 496.8,142.5 502.8,151.8 508.3,161.4 513.4,171.3 517.9,181.5 522,191.9 525.7,202.5 528.7,213.4 
			531.3,224.5 533.3,235.8 534.8,247.2 535.7,258.9 536,270.7 535.7,282.5 534.8,294.1 533.3,305.6 531.3,316.9 528.7,327.9 
			525.7,338.8 522,349.5 517.9,359.9 513.4,370 508.3,379.9 502.8,389.5 496.8,398.8 490.4,407.8 483.6,416.4 476.4,424.8 
			468.8,432.7 460.9,440.3 452.5,447.5 443.9,454.3 434.9,460.7 425.6,466.7 416,472.2 406.1,477.2 396,481.8 385.6,485.9 
			374.9,489.5 364.1,492.6 353,495.2 341.7,497.2 330.2,498.7 318.6,499.6 306.8,499.9 295,499.6 283.4,498.7 271.9,497.2 
			260.6,495.2 249.5,492.6 238.6,489.5 228,485.9 217.6,481.8 207.4,477.2 197.6,472.2 188,466.7 178.6,460.7 169.7,454.3 
			161,447.5 152.7,440.3 144.7,432.7 137.1,424.8 129.9,416.4 123.2,407.8 116.7,398.8 110.8,389.5 105.3,379.9 100.2,370 
			95.6,359.9 91.5,349.5 87.9,338.8 84.8,327.9 82.3,316.9 80.2,305.6 78.8,294.1 77.9,282.5 77.6,270.7 77.9,258.9 78.8,247.2 
			80.2,235.8 82.3,224.5 84.8,213.4 87.9,202.5 91.5,191.9 95.6,181.5 100.2,171.3 105.3,161.4 110.8,151.8 116.7,142.5 
			123.2,133.6 129.9,124.9 137.1,116.6 144.7,108.6 152.7,101 161,93.8 169.7,87 178.6,80.6 188,74.7 197.6,69.2 207.4,64.1 
			217.6,59.5 228,55.4 238.6,51.8 249.5,48.7 260.6,46.2 271.9,44.1 283.4,42.7 295,41.8 		"/>
		<polygon id="_56189328" class="st2" points="306.8,46.6 318.3,46.8 329.7,47.7 340.9,49.1 351.9,51.1 362.8,53.6 373.4,56.6 
			383.9,60.2 394,64.2 403.9,68.7 413.6,73.6 423,79 432.1,84.8 440.9,91.1 449.3,97.8 457.5,104.8 465.2,112.2 472.7,120 
			479.7,128.1 486.4,136.6 492.6,145.4 498.4,154.5 503.9,163.8 508.8,173.5 513.3,183.4 517.3,193.6 520.8,204 523.9,214.7 
			526.3,225.5 528.3,236.6 529.8,247.8 530.6,259.2 530.9,270.7 530.6,282.2 529.8,293.6 528.3,304.8 526.3,315.8 523.9,326.7 
			520.8,337.3 517.3,347.7 513.3,357.9 508.8,367.8 503.9,377.5 498.4,386.9 492.6,396 486.4,404.7 479.7,413.2 472.7,421.4 
			465.2,429.1 457.5,436.5 449.3,443.6 440.9,450.3 432.1,456.5 423,462.3 413.6,467.7 403.9,472.7 394,477.2 383.9,481.2 
			373.4,484.7 362.8,487.7 351.9,490.2 340.9,492.2 329.7,493.6 318.3,494.5 306.8,494.8 295.2,494.5 283.9,493.6 272.7,492.2 
			261.6,490.2 250.8,487.7 240.2,484.7 229.7,481.2 219.6,477.2 209.6,472.7 200,467.7 190.6,462.3 181.5,456.5 172.7,450.3 
			164.2,443.6 156.1,436.5 148.3,429.1 140.9,421.4 133.9,413.2 127.2,404.7 121,396 115.1,386.9 109.7,377.5 104.8,367.8 
			100.3,357.9 96.3,347.7 92.8,337.3 89.7,326.7 87.2,315.8 85.3,304.8 83.8,293.6 83,282.2 82.7,270.7 83,259.2 83.8,247.8 
			85.3,236.6 87.2,225.5 89.7,214.7 92.8,204 96.3,193.6 100.3,183.4 104.8,173.5 109.7,163.8 115.1,154.5 121,145.4 127.2,136.6 
			133.9,128.1 140.9,120 148.3,112.2 156.1,104.8 164.2,97.8 172.7,91.1 181.5,84.8 190.6,79 200,73.6 209.6,68.7 219.6,64.2 
			229.7,60.2 240.2,56.6 250.8,53.6 261.6,51.1 272.7,49.1 283.9,47.7 295.2,46.8 		"/>
		<polygon id="_56559336" class="st1" points="306.8,120.6 314.5,120.8 322.1,121.4 329.6,122.3 337,123.7 344.3,125.3 351.4,127.3 
			358.4,129.7 365.2,132.4 371.8,135.4 378.3,138.7 384.6,142.3 390.7,146.2 396.6,150.4 402.2,154.9 407.7,159.6 412.9,164.6 
			417.9,169.8 422.6,175.2 427.1,180.9 431.2,186.8 435.1,192.9 438.7,199.1 442.1,205.6 445.1,212.3 447.8,219.1 450.1,226 
			452.1,233.2 453.8,240.4 455.2,247.8 456.1,255.3 456.7,262.9 456.9,270.7 456.7,278.4 456.1,286 455.2,293.5 453.8,300.9 
			452.1,308.2 450.1,315.3 447.8,322.3 445.1,329.1 442.1,335.7 438.7,342.2 435.1,348.5 431.2,354.6 427.1,360.5 422.6,366.1 
			417.9,371.6 412.9,376.8 407.7,381.8 402.2,386.5 396.6,390.9 390.7,395.1 384.6,399 378.3,402.7 371.8,405.9 365.2,409 
			358.4,411.6 351.4,414 344.3,416 337,417.7 329.6,419 322.1,420 314.5,420.6 306.8,420.8 299.1,420.6 291.4,420 283.9,419 
			276.5,417.7 269.3,416 262.2,414 255.2,411.6 248.4,409 241.7,405.9 235.3,402.7 229,399 222.9,395.1 217,390.9 211.3,386.5 
			205.9,381.8 200.7,376.8 195.7,371.6 191,366.1 186.5,360.5 182.3,354.6 178.4,348.5 174.8,342.2 171.5,335.7 168.5,329.1 
			165.8,322.3 163.5,315.3 161.4,308.2 159.8,300.9 158.4,293.5 157.5,286 156.9,278.4 156.7,270.7 156.9,262.9 157.5,255.3 
			158.4,247.8 159.8,240.4 161.4,233.2 163.5,226 165.8,219.1 168.5,212.3 171.5,205.6 174.8,199.1 178.4,192.9 182.3,186.8 
			186.5,180.9 191,175.2 195.7,169.8 200.7,164.6 205.9,159.6 211.3,154.9 217,150.4 222.9,146.2 229,142.3 235.3,138.7 
			241.7,135.4 248.4,132.4 255.2,129.7 262.2,127.3 269.3,125.3 276.5,123.7 283.9,122.3 291.4,121.4 299.1,120.8 		"/>
		<polygon id="_57286632" class="st2" points="306.8,124.6 314.3,124.8 321.7,125.4 329,126.3 336.2,127.6 343.3,129.2 350.2,131.2 
			357,133.5 363.6,136.1 370.1,139 376.4,142.2 382.5,145.8 388.4,149.6 394.2,153.6 399.7,158 405,162.6 410.1,167.4 414.9,172.5 
			419.5,177.8 423.8,183.3 427.9,189 431.7,195 435.2,201.1 438.4,207.4 441.3,213.8 444,220.5 446.3,227.2 448.3,234.2 
			449.9,241.2 451.1,248.4 452.1,255.7 452.7,263.2 452.8,270.7 452.7,278.2 452.1,285.6 451.1,292.9 449.9,300.1 448.3,307.2 
			446.3,314.1 444,320.9 441.3,327.5 438.4,334 435.2,340.3 431.7,346.4 427.9,352.3 423.8,358 419.5,363.6 414.9,368.9 
			410.1,373.9 405,378.8 399.7,383.4 394.2,387.7 388.4,391.8 382.5,395.6 376.4,399.1 370.1,402.3 363.6,405.2 357,407.9 
			350.2,410.2 343.3,412.1 336.2,413.8 329,415 321.7,416 314.3,416.5 306.8,416.7 299.3,416.5 291.9,416 284.6,415 277.4,413.8 
			270.3,412.1 263.4,410.2 256.6,407.9 250,405.2 243.5,402.3 237.2,399.1 231.1,395.6 225.1,391.8 219.4,387.7 213.9,383.4 
			208.6,378.8 203.5,373.9 198.7,368.9 194.1,363.6 189.8,358 185.7,352.3 181.9,346.4 178.4,340.3 175.2,334 172.2,327.5 
			169.6,320.9 167.3,314.1 165.3,307.2 163.7,300.1 162.4,292.9 161.5,285.6 160.9,278.2 160.7,270.7 160.9,263.2 161.5,255.7 
			162.4,248.4 163.7,241.2 165.3,234.2 167.3,227.2 169.6,220.5 172.2,213.8 175.2,207.4 178.4,201.1 181.9,195 185.7,189 
			189.8,183.3 194.1,177.8 198.7,172.5 203.5,167.4 208.6,162.6 213.9,158 219.4,153.6 225.1,149.6 231.1,145.8 237.2,142.2 
			243.5,139 250,136.1 256.6,133.5 263.4,131.2 270.3,129.2 277.4,127.6 284.6,126.3 291.9,125.4 299.3,124.8 		"/>
		<g>
			<polygon id="_55573328" class="st1" points="324.2,450.1 313.4,461.4 317.6,479.7 306.8,468.4 296,479.7 300.1,461.4 
				289.4,450.1 302.7,450.1 306.8,431.8 310.9,450.1 			"/>
			<path id="_555733281" class="st1" d="M313.2,461.5l0.1-0.2l10.8-11.3l0.3,0.3l-10.8,11.3L313.2,461.5L313.2,461.5z M313.2,461.5
				l0-0.1l0.1-0.1L313.2,461.5z M317.4,479.8l-0.1-0.1l-4.1-18.3l0.4-0.1l4.1,18.3L317.4,479.8z M317.8,479.6l0.2,0.8l-0.6-0.6
				L317.8,479.6z M306.6,468.2h0.3l10.8,11.3l-0.3,0.3l-10.8-11.3L306.6,468.2L306.6,468.2z M306.6,468.2l0.2-0.2l0.2,0.2H306.6
				L306.6,468.2z M295.8,479.6l0.1-0.1l10.8-11.3l0.3,0.3l-10.8,11.3L295.8,479.6z M296.2,479.8l-0.6,0.6l0.2-0.8L296.2,479.8z
				 M300.3,461.2l0.1,0.2l-4.1,18.3l-0.4-0.1l4.1-18.3L300.3,461.2z M300.3,461.2L300.3,461.2l0.1,0.2L300.3,461.2z M289.4,449.9
				l0.2,0.1l10.8,11.3l-0.3,0.3l-10.8-11.3L289.4,449.9L289.4,449.9z M289.2,450.2l-0.4-0.4h0.5L289.2,450.2z M302.9,450.1l-0.2,0.2
				h-13.3v-0.5h13.3L302.9,450.1L302.9,450.1z M302.9,450.1l0,0.2h-0.2L302.9,450.1z M307,431.8v0.1l-4.1,18.2l-0.4-0.1l4.1-18.2
				H307z M306.6,431.8l0.2-1l0.2,1H306.6L306.6,431.8z M310.9,450.3l-0.2-0.2l-4.1-18.2l0.4-0.1l4.1,18.2L310.9,450.3L310.9,450.3z
				 M310.9,450.3h-0.2l0-0.2L310.9,450.3z M324.4,450.2l-0.2,0.1h-13.3v-0.5h13.3L324.4,450.2z M324.2,449.9h0.5l-0.4,0.4
				L324.2,449.9z"/>
		</g>
		<polygon class="st3" points="306.8,458.3 310.9,450.1 306.8,431.8 		"/>
		<polygon class="st1" points="289.4,450.1 302.7,450.1 306.8,458.3 		"/>
		<polygon class="st1" points="313.4,461.4 324.2,450.1 306.8,458.3 		"/>
		<polygon class="st1" points="317.6,479.7 306.8,468.4 306.8,458.3 		"/>
		<polygon class="st1" points="296,479.7 300.1,461.4 306.8,458.3 		"/>
		<polygon class="st1" points="236.1,468.7 239.7,453.7 240.4,454 240.3,455.7 240.3,457.3 240.3,458.8 240.4,460.1 240.6,461.4 
			240.8,462.6 241.2,463.6 241.6,464.7 242,465.5 242.5,466.3 243.2,467.1 243.7,467.7 244.5,468.2 245.1,468.6 246.1,469 
			246.8,469.3 247.6,469.5 248.4,469.5 249.1,469.7 249.8,469.5 250.6,469.4 251.4,469.3 252.2,469 252.8,468.7 253.6,468.2 
			254.4,467.7 255.2,467.2 255.9,466.4 256.7,465.6 257.3,464.8 258.1,463.8 258.7,462.7 259.4,461.7 260,460.4 260.7,459.1 
			261.4,457.7 261.9,456.2 262.5,454.6 263,452.9 263.6,451.2 264,449.8 264.2,448.4 264.6,446.9 264.8,445.6 265,444.3 265.1,443 
			265.1,441.8 265.1,440.6 265.1,439.5 265,438.4 264.9,437.4 264.6,436.3 264.4,435.4 264,434.5 263.6,433.6 263.2,432.8 
			262.7,432.2 262,431.5 261.5,430.8 260.8,430.3 260.2,429.8 259.4,429.4 258.6,429.1 257.8,428.9 257,428.6 256.4,428.5 
			255.6,428.5 254.9,428.5 254.2,428.6 253.5,428.7 252.8,428.9 252.1,429.1 251.4,429.5 250.6,429.9 249.8,430.4 248.9,431.2 
			248.1,431.9 247.1,432.8 246.2,433.8 245.1,434.9 244.6,434.1 245.5,432.8 246.6,431.8 247.5,430.7 248.5,429.8 249.5,428.9 
			250.4,428.2 251.4,427.6 252.3,427.1 253.2,426.7 254.3,426.4 255.2,426.1 256.3,426 257.2,426 258.2,426.1 259.3,426.3 
			260.3,426.5 261.2,426.8 262,427.2 262.9,427.6 263.7,428 264.4,428.5 265.1,429.1 265.8,429.7 266.3,430.4 266.9,431.1 
			267.4,431.9 267.9,432.8 268.3,433.7 268.7,434.6 269.1,435.7 269.3,436.7 269.6,437.8 269.9,439.6 270,441.3 270.1,443.1 
			270,445 269.9,446.8 269.6,448.7 269.1,450.7 268.5,452.8 268.1,454.4 267.5,455.9 267,457.4 266.3,458.8 265.5,460.3 
			264.9,461.5 264,462.9 263.2,464 262.3,465.2 261.4,466.4 260.3,467.3 259.4,468.2 258.3,469 257.3,469.8 256.3,470.5 255.1,471 
			254,471.4 253,471.7 251.8,472 250.8,472.1 249.7,472.1 248.7,472.1 247.6,472 246.6,471.7 245.8,471.5 245,471.1 244.2,470.7 
			243.4,470.2 242.8,469.7 242.1,469 241.5,468.4 240.8,467.6 240.4,467.2 240.2,466.8 239.9,466.5 239.7,466.5 239.4,466.4 
			239,466.5 238.8,466.5 238.5,466.8 238.1,467.2 237.7,467.7 237.3,468.2 236.9,469 		"/>
		<path class="st1" d="M210.5,457.3l-0.7-0.4l-0.7-0.4l-0.7-0.5l-0.5-0.4l-0.5-0.5l-0.5-0.7l-0.4-0.5l-0.4-0.7l-0.4-0.8l-0.4-0.7
			l-0.3-0.8l-0.3-0.8l-0.3-0.9l-0.3-0.9l-0.1-0.9l-0.1-0.9l-0.1-1.1v-1v-1.1v-0.9l0.1-1l0.1-1.1l0.1-1l0.3-1.1l0.1-1l0.4-1.2
			l0.3-1.1l0.4-1l0.4-1.1l0.5-1.2l0.5-1l0.5-1.2l0.7-1l0.5-1.2l0.7-1.1l0.7-0.9l0.7-1l0.8-0.9l0.7-0.9l0.8-0.8l0.7-0.8l0.8-0.8
			l0.8-0.7l0.8-0.8l0.9-0.7l0.8-0.5l0.9-0.7l0.8-0.4l0.9-0.5l0.9-0.4l0.8-0.4l0.9-0.3l0.8-0.3l0.9-0.3l0.8-0.1l0.8-0.1h0.8h0.8
			l0.8,0.1h0.8l0.8,0.3l0.7,0.3l0.8,0.3l0.7,0.3l0.8,0.4l0.7,0.5l0.7,0.4l0.5,0.5l0.5,0.5l0.5,0.7l0.5,0.5l0.4,0.7l0.4,0.8l0.4,0.7
			l0.3,0.8l0.3,0.9l0.3,0.8l0.3,0.9l0.1,0.9l0.1,0.9l0.1,1v1.1v1v0.9l-0.1,1.1l-0.1,1l-0.1,1.2l-0.3,1.1l-0.3,1l-0.3,1.1l-0.4,1.2
			l-0.4,1l-0.5,1.2l-0.4,1.2l-0.5,1.2l-0.7,1.2l-0.7,1.2l-0.7,1l-0.7,1.2l-0.6,1.1l-0.7,0.9l-0.8,0.9l-0.8,0.9l-0.8,0.9l-0.8,0.8
			l-0.8,0.8l-0.8,0.7l-0.9,0.7l-0.9,0.7l-0.9,0.7l-0.9,0.5l-0.9,0.5l-0.8,0.3l-0.8,0.4l-0.8,0.3l-0.9,0.3l-0.8,0.3l-0.8,0.1H217
			l-0.8,0.1h-0.8l-0.8-0.1H214l-0.8-0.1l-0.7-0.3l-0.8-0.1l-0.7-0.4L210.5,457.3L210.5,457.3z M211.9,455.3l0.5,0.1l0.4,0.3l0.5,0.1
			l0.5,0.1h0.5l0.4,0.1h0.5l0.5-0.1h0.5l0.5-0.1l0.5-0.1l0.5-0.3l0.5-0.1l0.5-0.3l0.5-0.4l0.5-0.3l0.7-0.5l0.7-0.5l0.6-0.5l0.7-0.7
			l0.7-0.7l0.7-0.7l0.7-0.8l0.7-0.8l0.6-0.8l0.7-0.9l0.7-0.9l0.7-1l0.5-1.1l0.7-1l0.7-1.2l0.7-1.2l0.5-1.2l0.7-1.2l0.5-1.2l0.4-1.2
			l0.5-1.2l0.4-1l0.4-1.1l0.3-1l0.3-1.1l0.3-1l0.3-0.9l0.1-1.1l0.1-0.9l0.1-0.9v-0.9v-0.8l-0.1-1.3l-0.3-1.2l-0.3-1l-0.4-0.9
			l-0.5-0.8l-0.7-0.8l-0.8-0.5l-0.9-0.5l-0.4-0.3l-0.5-0.3l-0.5-0.1l-0.5-0.1h-0.5h-0.5h-0.5h-0.5l-0.7,0.1l-0.5,0.1l-0.5,0.1
			l-0.7,0.3l-0.5,0.1l-0.7,0.4l-0.5,0.3l-0.7,0.4l-0.5,0.4l-0.6,0.5l-0.7,0.5l-0.5,0.5l-0.7,0.6l-0.5,0.7l-0.7,0.7l-0.7,0.8
			l-0.5,0.8l-0.7,0.9l-0.7,0.9l-0.5,0.9l-0.7,1l-0.7,1.1l-0.5,1.2l-0.7,1.2l-0.7,1.2l-0.5,1.3l-0.7,1.2l-0.4,1.2l-0.5,1.2l-0.4,1.2
			l-0.4,1l-0.4,1.1l-0.3,1l-0.3,1.1l-0.3,0.9l-0.1,1l-0.1,0.9v0.9l-0.1,0.8v0.8l0.1,1.3l0.3,1.2l0.3,1l0.5,0.9l0.5,0.9l0.8,0.7
			l0.8,0.7L211.9,455.3L211.9,455.3z"/>
		<polygon class="st1" points="189.1,445.4 182.4,440.1 189.3,400.9 172.5,421.8 171.9,422.6 171.3,423.4 170.9,424 170.5,424.7 
			170.1,425.2 169.9,425.6 169.7,426.1 169.7,426.4 169.6,426.8 169.7,427.2 169.7,427.6 169.9,428 170,428.3 170.3,428.6 
			170.5,428.9 170.9,429.3 171.7,429.9 170.9,430.8 162.4,424 163.2,423.1 164.1,423.8 164.5,424 164.9,424.3 165.3,424.4 
			165.7,424.6 166.1,424.6 166.6,424.4 167,424.3 167.4,424.2 167.6,424 168,423.8 168.4,423.4 168.8,423 169.3,422.5 169.9,422 
			170.4,421.3 170.9,420.5 195.5,389.9 196.1,390.4 188.8,432.7 206.7,410.2 207.4,409.4 207.9,408.8 208.3,408 208.7,407.4 
			209.1,406.9 209.3,406.4 209.4,406 209.6,405.6 209.6,405.2 209.6,404.8 209.4,404.4 209.3,404.2 209.2,403.8 208.9,403.4 
			208.7,403.1 208.3,402.9 207.5,402.2 208.3,401.2 216.8,408 216,409 215.1,408.2 214.7,408 214.3,407.8 213.9,407.6 213.5,407.6 
			213.1,407.6 212.7,407.6 212.2,407.7 211.8,408 211.5,408.1 211.2,408.4 210.8,408.6 210.4,409 209.8,409.5 209.4,410.2 
			208.8,410.7 208.3,411.5 188,436.7 188,437.4 187.9,438 187.9,438.5 187.8,439.1 187.8,439.5 187.8,439.9 187.8,440.3 
			187.8,440.5 187.8,441 188,441.6 188.2,442.2 188.5,442.9 188.7,443.3 188.9,443.6 189.3,444 189.8,444.4 		"/>
		<polygon class="st1" points="134.6,391.9 135.6,391.1 136.2,391.5 136.9,391.8 137.3,391.9 137.7,392 137.9,392 138.3,392 
			138.9,391.9 139.5,391.9 140,391.8 140.7,391.5 141.3,391.4 142.1,391.1 142.9,390.7 143.7,390.4 181,373.7 181.5,374.4 
			158.2,408.9 157.8,409.5 157.4,410.1 157.2,410.6 156.9,411 156.6,411.4 156.4,411.8 156.2,412 156.2,412.3 156,412.8 
			155.9,413.3 155.9,413.9 155.9,414.4 155.9,414.9 156.1,415.4 156.4,416.1 156.6,416.6 155.7,417.4 147.5,407.6 148.5,406.8 
			148.9,407.1 149.3,407.4 149.7,407.7 150,407.8 150.4,408 150.6,408.1 150.9,408.2 151.1,408.2 151.7,408.2 152.2,408.1 
			152.6,407.8 153.1,407.4 153.5,407.2 153.8,406.8 154.2,406.4 154.7,405.9 155.1,405.3 155.6,404.7 156,404.1 156.5,403.3 
			172.3,379.8 147,391.2 146,391.6 145.3,392 144.6,392.4 144,392.7 143.3,393.1 142.8,393.3 142.4,393.6 142.1,393.9 141.8,394.2 
			141.5,394.6 141.2,395 141.1,395.5 140.9,396.2 141.1,396.7 141.2,397.4 141.5,398.2 141.6,398.3 141.8,398.6 140.7,399.3 		"/>
		<polygon class="st1" points="127.5,374.8 143.8,365.8 140.4,359.7 140.2,359.2 139.8,358.7 139.5,358.3 139.1,357.9 138.7,357.6 
			138.5,357.5 138.1,357.2 137.7,357.2 137.2,357.1 136.7,357.2 136,357.2 135.3,357.5 134.6,357.6 133.8,358 133,358.3 
			132.1,358.8 131.7,358 146,350.1 146.6,350.8 145.8,351.2 145.3,351.7 144.6,352.1 144.2,352.5 143.8,352.8 143.4,353.1 
			143.2,353.3 142.9,353.6 142.5,354 142.3,354.5 142,355 141.9,355.7 141.9,355.9 141.9,356.2 142,356.6 142,357 142.1,357.4 
			142.3,357.8 142.5,358.2 142.8,358.6 146,364.6 159.7,357.1 160.3,356.7 161,356.3 161.5,356.1 161.9,355.8 162.3,355.6 
			162.5,355.4 162.8,355.2 162.9,355 163.2,354.8 163.3,354.5 163.4,354.2 163.6,354 163.6,353.6 163.6,353.2 163.3,352.8 
			163.1,352.3 160.6,347.6 160.2,347 159.9,346.5 159.7,346 159.3,345.6 159,345.2 158.7,345 158.5,344.7 158.2,344.4 157.6,344.2 
			156.9,343.8 156.1,343.7 155.2,343.5 154.4,343.5 153.8,343.5 153,343.5 152.1,343.5 151.1,343.7 150.1,343.8 149.1,343.9 
			148,344 147.6,343.3 159.3,339.9 170.9,361 169.7,361.7 169.2,360.8 168.9,360.3 168.5,359.8 168,359.6 167.5,359.2 167.1,359.1 
			166.6,359.1 166.1,359.1 165.5,359.2 165.3,359.3 164.9,359.5 164.5,359.6 164,359.8 163.4,360.1 162.8,360.4 162.1,360.8 
			161.5,361.2 134.6,376 133.6,376.5 132.7,377 132.1,377.4 131.4,377.9 130.9,378.3 130.5,378.6 130.1,379 130,379.2 129.7,379.5 
			129.7,379.8 129.6,380.2 129.6,380.6 129.6,381.1 129.7,381.4 129.9,381.8 130.1,382.2 130.6,383.3 129.5,383.9 117.8,362.7 
			126.7,357.4 127.2,358.2 126.5,358.7 125.8,359.2 125.1,359.7 124.6,360.1 124.2,360.5 123.8,360.9 123.4,361.3 123.2,361.6 
			122.8,362.2 122.5,362.9 122.3,363.5 122.1,364.2 122.1,364.4 122.3,364.7 122.4,365.1 122.4,365.5 122.7,365.9 122.8,366.3 
			123,366.8 123.3,367.3 		"/>
		<polygon class="st1" points="113.1,353.3 110.5,345.4 137.6,316.2 112.1,324.6 111.2,325 110.2,325.2 109.5,325.5 108.8,325.9 
			108.3,326.1 107.7,326.4 107.5,326.6 107.2,326.9 107,327.2 106.7,327.6 106.6,328 106.6,328.2 106.5,328.6 106.5,329 
			106.6,329.4 106.7,329.9 107,331 105.8,331.4 102.4,321 103.6,320.6 104,321.7 104.1,322.1 104.4,322.5 104.6,322.9 104.9,323.1 
			105.3,323.4 105.7,323.5 106.1,323.6 106.6,323.8 106.8,323.8 107.2,323.8 107.7,323.6 108.4,323.5 109.1,323.4 109.7,323.1 
			110.5,323 111.4,322.6 148.7,310.3 148.9,311.1 119.9,342.5 147.1,333.5 148,333.2 148.9,332.8 149.6,332.5 150.2,332.3 
			150.9,332 151.3,331.7 151.7,331.5 151.9,331.2 152.2,330.8 152.3,330.6 152.5,330.2 152.6,329.8 152.6,329.4 152.6,329 
			152.6,328.6 152.5,328.2 152.1,327.2 153.4,326.8 156.8,337.1 155.6,337.5 155.2,336.5 155.1,336.1 154.8,335.7 154.6,335.3 
			154.3,335 153.9,334.8 153.5,334.5 153.1,334.4 152.6,334.4 152.2,334.4 151.8,334.4 151.3,334.4 150.8,334.5 150.1,334.6 
			149.3,334.9 148.5,335.2 147.8,335.4 117,345.6 116.5,346.1 116.1,346.5 115.9,346.9 115.5,347.3 115.2,347.7 114.9,348 
			114.8,348.2 114.7,348.5 114.4,349 114.3,349.5 114.2,350.2 114,351 114,351.4 114,351.7 114.2,352.4 114.3,352.9 		"/>
		<polygon class="st1" points="97.3,285.5 144,300.1 142.3,287.4 142.1,286.8 142,286.1 141.8,285.5 141.5,285 141.1,284.4 
			140.7,283.9 140.3,283.5 139.8,283.1 139.1,282.9 138.5,282.6 137.6,282.3 136.7,282.1 135.6,281.8 134.3,281.7 133,281.6 
			131.6,281.4 131.7,280.6 144.2,280.5 147.5,305.7 146.3,306 100.8,291.6 102.1,301.6 102.3,302.1 102.4,302.7 102.5,303.1 
			102.6,303.6 102.8,304 103,304.4 103.2,304.7 103.4,305 104,305.5 104.6,305.9 105.3,306.1 106.1,306.4 106.5,306.5 107,306.5 
			107.6,306.7 108.3,306.7 109.1,306.7 110,306.7 110.9,306.7 111.9,306.7 112.1,307.6 100.2,308.5 		"/>
		<polygon class="st1" points="143.2,262.4 144.5,262.4 144.5,275.7 143.2,275.7 143.2,274.6 143.2,274.1 143,273.7 142.9,273.3 
			142.8,272.9 142.5,272.6 142.1,272.3 141.9,272 141.5,271.7 141.1,271.6 140.7,271.5 140.2,271.5 139.5,271.3 138.9,271.2 
			137.9,271.2 137.1,271.2 136.1,271.2 105.5,271.1 104.6,271.1 103.8,271.1 103.2,271.1 102.5,271.1 102,271.2 101.5,271.2 
			101.1,271.2 100.8,271.3 100.4,271.5 100,271.7 99.6,272 99.3,272.3 98.9,272.8 98.6,273.3 98.5,273.8 98.5,274.4 98.5,275.5 
			97.2,275.5 97.2,262.1 98.5,262.1 98.5,263.3 98.5,263.6 98.6,264.2 98.8,264.6 98.9,264.8 99.1,265.2 99.4,265.5 99.8,265.7 
			100.2,266 100.6,266.1 101,266.3 101.5,266.4 102.1,266.5 102.8,266.5 103.6,266.6 104.5,266.6 105.5,266.6 136.1,266.8 
			136.9,266.8 137.7,266.8 138.5,266.8 139.1,266.6 139.7,266.6 140.2,266.6 140.6,266.5 140.8,266.5 141.2,266.4 141.6,266.1 
			142,265.9 142.4,265.5 142.7,265 142.9,264.6 143.2,263.9 143.2,263.4 		"/>
		<path class="st1" d="M99.6,239.6l0.1-0.6l0.1-0.8l0.3-0.7l0.3-0.8l0.4-0.7l0.4-0.7l0.4-0.5l0.5-0.7l0.5-0.5l0.5-0.7l0.6-0.5
			l0.7-0.5l0.8-0.5l0.8-0.4l0.8-0.5l0.9-0.4l0.9-0.4l0.9-0.4l1.1-0.4l0.9-0.3l1-0.3l1.1-0.1l1-0.3l1.1-0.1l1-0.1h1.2h1.1h1.2h1.2
			l1.2,0.1l1.2,0.1l1.3,0.1l2.5,0.5l2.4,0.5l2.2,0.7l2.1,0.9l2,0.9l1.8,1l1.7,1.2l1.6,1.3l0.6,0.7l0.7,0.8l0.7,0.7l0.5,0.7l0.5,0.8
			l0.5,0.7l0.4,0.8l0.4,0.7l0.3,0.8l0.3,0.8l0.1,0.8l0.1,0.7l0.1,0.8v0.8l-0.1,0.8v0.8l-0.1,0.8l-0.3,0.8l-0.3,0.8l-0.3,0.6
			l-0.4,0.8l-0.4,0.7l-0.4,0.6l-0.5,0.5l-0.5,0.6l-0.5,0.5l-0.7,0.5l-0.7,0.5l-0.8,0.5l-0.8,0.5l-0.8,0.4l-0.9,0.5l-0.9,0.4
			l-0.9,0.4l-1,0.3l-0.9,0.3l-1.1,0.3l-1,0.3l-1.1,0.1l-1,0.1l-1.2,0.1h-1.2h-1.1h-1.3h-1.2L123,259l-1.3-0.1l-1.3-0.3l-1.3-0.1
			l-1.3-0.3l-1.2-0.3l-1.2-0.4l-1.2-0.4l-1.2-0.4l-1-0.4l-1.1-0.4l-1-0.5l-1.1-0.5l-0.9-0.7l-0.9-0.5l-0.9-0.7l-0.8-0.6l-0.8-0.7
			l-0.8-0.8l-0.6-0.6l-0.5-0.7l-0.5-0.7l-0.5-0.8l-0.4-0.7l-0.4-0.7l-0.4-0.7l-0.3-0.8l-0.3-0.7l-0.1-0.8l-0.1-0.6l-0.1-0.8v-0.8
			l-0.1-0.7l0.1-0.8L99.6,239.6L99.6,239.6z M101.9,240.4v0.5v0.5v0.5v0.5l0.1,0.5l0.1,0.4l0.1,0.5l0.3,0.4l0.1,0.5l0.3,0.4l0.4,0.5
			l0.3,0.4l0.4,0.4l0.5,0.4l0.4,0.4l0.5,0.5l0.7,0.4l0.7,0.5l0.8,0.4l0.8,0.5l0.8,0.4l0.9,0.4l0.9,0.4l0.9,0.3l1,0.4l1.1,0.3l1,0.4
			l1.2,0.3l1.2,0.3l1.2,0.3l1.3,0.3l1.3,0.1l1.3,0.3l1.5,0.1l1.2,0.1l1.3,0.1h1.2h1.2l1.2,0.1l1-0.1h1.1l1-0.1l1.1-0.1l0.9-0.1
			l0.9-0.1l0.9-0.3l0.9-0.3l0.8-0.3l0.5-0.3l0.7-0.3l0.5-0.3l0.4-0.3l0.5-0.3l0.4-0.4l0.4-0.3l0.4-0.4l0.3-0.4l0.4-0.4l0.3-0.4
			l0.1-0.5l0.3-0.4l0.1-0.5l0.1-0.4l0.1-0.5v-0.5v-0.5v-0.5v-0.5l-0.1-0.5l-0.1-0.5l-0.1-0.5l-0.3-0.5l-0.3-0.5l-0.3-0.5l-0.4-0.4
			l-0.4-0.5l-0.4-0.5l-0.5-0.4l-0.4-0.5l-0.7-0.4l-0.5-0.4l-0.7-0.5l-0.6-0.4l-0.8-0.4l-0.7-0.4l-0.9-0.3l-0.8-0.4l-0.9-0.4l-1-0.3
			l-1.1-0.3l-1-0.4l-1.1-0.3l-1.2-0.3l-1.2-0.1l-1.3-0.3l-1.3-0.3l-1.4-0.1l-1.3-0.1l-1.3-0.3h-1.3l-1.3-0.1h-1.2H116h-1.1h-1
			l-1.1,0.1l-1,0.1l-0.9,0.1l-0.9,0.1l-0.9,0.3l-0.8,0.1l-0.8,0.3l-0.7,0.3l-0.5,0.3l-0.5,0.3l-0.5,0.4l-0.4,0.3l-0.5,0.4l-0.4,0.4
			l-0.3,0.3l-0.4,0.5l-0.3,0.4l-0.3,0.4l-0.3,0.5l-0.4,0.9L101.9,240.4L101.9,240.4z"/>
		<polygon class="st1" points="104,215.6 107,207.6 146.3,201.6 121.1,192.4 120.2,192 119.3,191.7 118.5,191.5 117.8,191.4 
			117.2,191.2 116.7,191.1 116.3,191.1 115.9,191.1 115.5,191.2 115.1,191.4 114.8,191.6 114.4,191.7 114.2,192.1 113.9,192.4 
			113.8,192.8 113.5,193.2 113.2,194.2 112.1,193.7 115.7,183.5 116.9,183.9 116.5,185 116.4,185.5 116.4,185.9 116.4,186.4 
			116.4,186.8 116.5,187.2 116.7,187.6 116.9,188 117.3,188.2 117.6,188.5 117.8,188.7 118.3,189 118.9,189.3 119.4,189.5 
			120.2,189.8 121,190.2 121.8,190.5 158.6,203.9 158.3,204.7 116,211.2 142.9,221 143.8,221.4 144.8,221.7 145.5,221.9 
			146.3,222.1 146.8,222.2 147.4,222.3 147.9,222.3 148.1,222.3 148.5,222.2 148.9,222.1 149.3,221.9 149.6,221.7 149.9,221.4 
			150.1,221 150.2,220.8 150.5,220.3 150.9,219.3 152.1,219.7 148.3,229.9 147.1,229.5 147.5,228.5 147.6,228 147.6,227.6 
			147.8,227.2 147.6,226.8 147.5,226.3 147.4,226 147.1,225.6 146.7,225.2 146.6,224.9 146.2,224.7 145.8,224.4 145.3,224.2 
			144.6,223.9 144,223.7 143.2,223.4 142.3,223 111.8,211.9 111.3,212 110.6,212.1 110.1,212.1 109.6,212.3 109.2,212.4 
			108.8,212.5 108.5,212.7 108.3,212.7 107.7,212.9 107.2,213.3 106.7,213.7 106.2,214.2 105.9,214.5 105.7,214.9 105.4,215.4 
			105.3,215.9 		"/>
		<polygon class="st1" points="127.1,168.6 143,178.3 146.6,172.4 147,171.9 147.2,171.3 147.4,170.8 147.5,170.3 147.6,169.9 
			147.6,169.5 147.5,169.1 147.5,168.7 147.2,168.2 146.8,167.8 146.4,167.3 146,166.8 145.4,166.3 144.9,165.7 144.1,165.2 
			143.3,164.7 143.7,163.9 157.8,172.4 157.4,173.2 156.6,172.8 156,172.5 155.3,172.3 154.8,172 154.3,171.8 153.9,171.6 
			153.5,171.5 153.2,171.5 152.6,171.3 152.1,171.3 151.4,171.5 150.9,171.6 150.6,171.8 150.4,171.9 150.1,172.2 149.9,172.4 
			149.6,172.7 149.3,173.1 149.1,173.3 148.8,173.7 145.3,179.6 158.6,187.7 159.3,188.1 159.8,188.5 160.3,188.7 160.7,189 
			161.1,189.1 161.5,189.4 161.7,189.4 161.9,189.5 162.3,189.7 162.5,189.7 162.9,189.7 163.2,189.5 163.4,189.4 163.8,189.1 
			164.1,188.7 164.5,188.2 167.2,183.6 167.5,183.1 167.8,182.6 168,182.1 168.3,181.7 168.4,181.3 168.5,180.8 168.7,180.5 
			168.7,180.1 168.7,179.5 168.7,178.7 168.4,177.9 168,177 167.8,176.4 167.4,175.8 167,175 166.4,174.4 165.9,173.6 165.3,172.8 
			164.8,172 164,171.1 164.5,170.3 173.2,178.8 160.7,199.5 159.7,198.8 160.2,197.8 160.4,197.4 160.6,196.7 160.6,196.2 
			160.6,195.6 160.4,195.2 160.3,194.8 160.1,194.2 159.7,193.8 159.4,193.6 159.1,193.5 158.7,193.2 158.3,192.8 157.8,192.5 
			157.3,192.1 156.6,191.7 155.9,191.2 129.6,175.4 128.7,174.9 127.9,174.4 127.1,174 126.5,173.6 125.8,173.3 125.3,173.2 
			124.9,173.1 124.6,173.1 124.2,173.1 123.8,173.2 123.4,173.2 123,173.4 122.8,173.7 122.5,174 122.1,174.2 121.9,174.6 
			121.4,175.7 120.3,175 132.7,154.4 141.8,159.3 141.3,160.1 140.4,159.7 139.8,159.5 139,159.2 138.3,158.9 137.8,158.8 
			137.3,158.5 136.8,158.4 136.4,158.4 135.6,158.3 134.9,158.4 134.3,158.5 133.6,158.8 133.4,158.9 133.1,159.2 133,159.5 
			132.7,159.7 132.3,160 132.1,160.4 131.8,160.9 131.6,161.3 		"/>
		<path class="st1" d="M181.7,166.9l-0.9-0.9l0.9-0.8l0.3-0.4l0.3-0.4l0.3-0.4l0.1-0.4v-0.4v-0.5l-0.1-0.4l-0.1-0.5l-0.1-0.3
			l-0.3-0.4l-0.3-0.5l-0.4-0.4l-0.4-0.5l-0.5-0.6l-0.6-0.7l-0.7-0.7l-21.3-21.8l-0.8-0.8l-0.7-0.6l-0.7-0.5l-0.5-0.5l-0.5-0.4
			l-0.5-0.3l-0.4-0.3l-0.3-0.1h-0.4l-0.5-0.1h-0.4l-0.4,0.1l-0.3,0.1l-0.4,0.1l-0.4,0.3l-0.3,0.3l-0.9,0.8l-0.8-0.9l9-8.9l1.3-1.2
			l1.2-1l1.2-0.9l1.2-0.8l1.2-0.7l1.2-0.5l1.1-0.4l1.2-0.3l1-0.1h1.2h1.1l1.3,0.1l1.2,0.3l1.3,0.4l1.3,0.4l1.4,0.5l1.3,0.8l1.5,0.6
			l1.3,0.9l1.3,0.9l1.3,0.9l1.3,1.2l1.3,1.2l1.3,1.3l0.9,0.8l0.8,0.9l0.8,0.9l0.7,0.9l0.7,0.9l0.7,0.8l0.6,0.9l0.5,0.9l0.5,0.9
			l0.5,0.9l0.4,0.9l0.4,0.9l0.4,0.9l0.4,1.1l0.3,0.9l0.3,0.9l0.1,1.1l0.1,1l0.1,1.1v0.9v1l-0.1,0.9l-0.3,0.9l-0.3,0.9l-0.3,0.9
			l-0.4,0.9l-0.4,0.9l-0.5,0.9l-0.7,0.8l-0.6,0.9l-0.7,0.8l-0.8,0.8L181.7,166.9L181.7,166.9z M185.8,158.2l0.6-0.3l0.7-0.4l0.7-0.3
			l0.5-0.4l0.5-0.4l0.4-0.3l0.4-0.4l0.4-0.4l0.5-0.4l0.4-0.5l0.4-0.5l0.3-0.5l0.3-0.7l0.3-0.5l0.3-0.7l0.1-0.6l0.1-0.7l0.1-0.7V149
			v-0.8v-0.7v-0.8l-0.1-0.8l-0.3-0.8l-0.1-0.8l-0.3-0.9l-0.3-0.8l-0.4-0.8l-0.4-0.9l-0.4-0.8l-0.4-0.9l-0.5-0.8l-0.5-0.8l-0.7-0.9
			l-0.5-0.8l-0.7-0.9l-0.8-0.9l-0.6-0.8l-0.8-0.9l-0.9-0.8l-0.8-0.9l-0.9-0.8l-0.8-0.8l-0.9-0.8l-0.8-0.7l-0.9-0.7l-0.8-0.5
			l-0.8-0.7l-0.9-0.4l-0.8-0.5l-0.8-0.4l-0.9-0.4l-0.8-0.4l-0.8-0.3l-0.9-0.3l-0.8-0.3L170,123l-0.8-0.1l-0.8-0.1h-0.7H167h-0.6
			l-0.7,0.1H165l-0.7,0.3l-0.7,0.1l-0.6,0.3l-0.5,0.4l-0.7,0.3l-0.5,0.4l-0.5,0.4l-0.5,0.5l-0.3,0.4l-0.4,0.4l-0.4,0.4l-0.3,0.5
			l-0.4,0.5l-0.3,0.5l-0.4,0.6l-0.3,0.7L185.8,158.2L185.8,158.2z"/>
		<polygon class="st1" points="217,134.8 217.8,135.8 207,143.6 206.2,142.6 207.1,142 207.5,141.6 207.8,141.3 208,140.9 
			208.2,140.6 208.3,140.2 208.4,139.7 208.4,139.3 208.4,138.9 208.3,138.5 208.2,138.1 207.9,137.6 207.6,137.1 207.2,136.5 
			206.8,135.8 206.3,135 205.7,134.3 188,109.3 187.5,108.6 187,108 186.6,107.4 186.2,106.9 185.8,106.5 185.5,106.1 185.3,105.9 
			185,105.6 184.6,105.3 184.2,105.2 183.8,105.1 183.3,104.9 182.7,104.9 182.1,105.1 181.6,105.2 181.1,105.5 180.2,106.1 
			179.5,105.1 190.4,97.4 191.2,98.4 190.3,99.1 189.8,99.3 189.6,99.6 189.3,100 189.2,100.4 189.1,100.8 188.9,101.2 188.9,101.6 
			188.9,102.1 189.1,102.3 189.2,102.7 189.4,103.3 189.7,103.8 190.1,104.4 190.5,105.2 191,105.9 191.5,106.8 209.3,131.6 
			209.8,132.3 210.2,132.9 210.8,133.4 211.2,134 211.4,134.4 211.8,134.8 212.1,135 212.3,135.3 212.7,135.5 213.1,135.8 
			213.5,135.9 214,135.9 214.5,135.9 215.2,135.9 215.7,135.7 216.1,135.4 		"/>
		<polygon class="st1" points="234.8,74.6 241.1,87.4 240.4,87.8 239.5,86.8 238.8,85.8 237.9,84.8 237.3,84 236.5,83.3 235.7,82.7 
			235.1,82.1 234.3,81.7 233.8,81.3 233.3,81 232.7,80.9 232.3,80.7 231.8,80.5 231.3,80.4 230.8,80.3 230.2,80.3 229.7,80.1 
			229.2,80.1 228.7,80.3 228.2,80.3 227.7,80.4 227.2,80.5 226.7,80.7 226.2,80.9 225.5,81.2 224.9,81.6 224.4,81.9 223.7,82.3 
			223.3,82.9 222.8,83.4 222.4,83.9 222,84.6 221.6,85.1 221.4,85.9 221.1,86.5 221,87.3 220.7,88.1 220.6,88.9 220.6,89.8 
			220.4,90.7 220.6,92.3 220.6,94 220.8,95.7 221.2,97.4 221.6,99.1 222.1,100.8 222.8,102.6 223.5,104.4 224.1,105.9 224.7,107.3 
			225.5,108.6 226.3,109.9 227.1,111.1 227.9,112.3 228.8,113.5 229.7,114.6 230.6,115.5 231.6,116.5 232.5,117.4 233.4,118 
			234.3,118.7 235.2,119.2 236,119.6 236.9,120 237.8,120.2 238.6,120.4 239.5,120.5 240.3,120.5 241.1,120.5 241.8,120.4 
			242.5,120.2 243.2,120 244,119.6 244.7,119.2 245.4,118.7 246.1,118.2 246.6,117.5 247.2,116.7 247.7,116.1 248.1,115.1 
			243,103.1 242.8,102.3 242.4,101.7 242.1,101.2 241.9,100.6 241.6,100.1 241.4,99.7 241.2,99.5 241,99.2 240.6,98.8 240.2,98.6 
			239.8,98.3 239.4,98.2 238.9,98.2 238.2,98.2 237.5,98.4 236.7,98.7 236.1,97.5 247.4,92.8 247.9,94 247.4,94.1 247,94.4 
			246.6,94.6 246.3,94.9 246.1,95.1 245.9,95.5 245.8,95.8 245.7,96.3 245.7,96.7 245.8,97.1 245.8,97.5 245.9,98 246.1,98.6 
			246.3,99.2 246.6,99.8 246.8,100.5 247.2,101.4 252.6,114.1 251.8,115.5 250.9,116.9 250.5,117.4 250,117.9 249.5,118.4 
			248.9,119 247.9,119.9 246.7,120.6 245.4,121.4 244.1,122.1 243,122.5 242,122.9 241,123.1 239.9,123.3 238.9,123.4 237.9,123.4 
			236.9,123.4 235.9,123.3 234.9,123.1 233.9,122.9 233,122.5 231.9,122.1 231,121.7 230,121.2 229.1,120.5 228.2,119.7 
			226.7,118.7 225.4,117.4 224.1,116.1 223.1,114.6 221.9,113.1 221,111.4 220,109.7 219.1,107.8 218.6,106.4 218.1,105.1 
			217.7,103.7 217.3,102.2 217,100.8 216.8,99.3 216.6,97.9 216.5,96.5 216.4,94.7 216.5,93.2 216.6,91.6 216.8,90 217,88.6 
			217.4,87.3 218,86 218.5,84.8 219,83.8 219.6,82.9 220.3,82.1 221.1,81.3 222,80.7 222.8,80 223.8,79.3 224.9,78.9 225.7,78.6 
			226.5,78.4 227.1,78.2 227.9,78 228.3,78 228.7,78 229.2,78 229.7,78 230.2,78 230.9,78 231.6,78 232.2,78.2 232.8,78.2 
			233.4,78.2 233.7,78.2 233.8,78.2 233.9,78.2 234,78 234.3,78 234.4,77.8 234.6,77.5 234.6,77.2 234.6,76.8 234.4,76.3 
			234.3,75.8 234,75 		"/>
		<polygon class="st1" points="269.7,111 269.9,112.3 257,115.6 256.6,114.4 257.8,114.2 258.2,114 258.6,113.8 258.9,113.6 
			259.2,113.3 259.5,113 259.7,112.6 259.9,112.2 260,111.8 260.1,111.4 260.1,111 260,110.5 260,109.9 259.9,109.1 259.7,108.3 
			259.5,107.4 259.2,106.5 251.6,76.9 251.4,76 251.2,75.4 251,74.6 250.8,74 250.7,73.5 250.5,73 250.3,72.6 250.2,72.4 249.9,72 
			249.7,71.7 249.3,71.4 248.9,71.2 248.4,70.9 247.7,70.8 247.2,70.8 246.7,70.9 245.6,71.2 245.2,69.9 258.2,66.6 258.6,67.8 
			257.5,68 257,68.2 256.6,68.4 256.2,68.7 255.9,68.9 255.7,69.2 255.4,69.6 255.3,70 255.2,70.4 255.2,70.8 255.2,71.2 
			255.2,71.7 255.2,72.4 255.3,73.1 255.6,73.9 255.7,74.8 255.9,75.7 263.5,105.4 263.8,106.2 263.9,107 264.2,107.6 264.3,108.3 
			264.6,108.8 264.7,109.2 264.8,109.6 265,109.9 265.2,110.3 265.6,110.5 265.9,110.9 266.3,111 266.9,111.3 267.5,111.4 
			268,111.4 268.6,111.4 		"/>
		<polygon class="st1" points="265.7,65.7 274.2,64.8 297,97.4 294,70.7 294,69.7 293.9,68.7 293.6,68 293.5,67.2 293.4,66.6 
			293.2,66.1 293,65.7 292.9,65.4 292.6,65.1 292.3,64.8 291.9,64.6 291.7,64.4 291.3,64.3 290.9,64.3 290.5,64.3 290,64.3 
			288.9,64.4 288.8,63.1 299.7,61.9 299.8,63.1 298.6,63.3 298.2,63.4 297.8,63.5 297.4,63.6 297,63.9 296.8,64.2 296.5,64.6 
			296.2,65 296.1,65.4 296,65.7 295.9,66.1 295.9,66.6 295.9,67.2 295.9,67.8 296,68.6 296,69.5 296.1,70.5 300.4,109.4 
			299.7,109.5 275,74.5 278.1,103 278.2,104 278.3,104.9 278.5,105.7 278.7,106.4 278.9,107 279,107.6 279.1,108 279.4,108.2 
			279.7,108.6 279.9,108.9 280.2,109 280.6,109.3 280.9,109.3 281.3,109.4 281.8,109.4 282.1,109.4 283.3,109.3 283.4,110.6 
			272.6,111.8 272.5,110.4 273.5,110.3 274,110.3 274.4,110.2 274.8,109.9 275.2,109.8 275.5,109.4 275.7,109.1 276,108.8 
			276.1,108.2 276.3,108 276.3,107.6 276.4,107 276.4,106.4 276.4,105.7 276.3,104.9 276.3,104.2 276.1,103.3 272.6,71.1 
			272.2,70.6 271.8,70.1 271.4,69.7 271.2,69.3 270.9,68.9 270.6,68.6 270.4,68.4 270.1,68.2 269.7,67.8 269.2,67.6 268.5,67.3 
			267.9,67 267.5,66.9 267.1,66.9 266.5,66.9 265.9,66.9 		"/>
		<polygon class="st1" points="318.1,65.4 316.6,84 323.4,84.6 324.1,84.6 324.8,84.6 325.3,84.6 325.8,84.4 326.2,84.3 326.6,84 
			326.8,83.9 327.1,83.7 327.5,83.3 327.8,82.7 328,82.1 328.3,81.4 328.4,80.8 328.7,80 328.8,79.1 328.9,78.2 329.7,78.2 
			328.5,94.6 327.6,94.5 327.6,93.7 327.6,92.9 327.6,92.3 327.5,91.6 327.5,91.1 327.5,90.7 327.4,90.3 327.4,90 327.1,89.4 
			326.8,88.9 326.6,88.5 326.2,88 325.9,87.8 325.7,87.7 325.3,87.6 325,87.4 324.6,87.3 324.2,87.2 323.7,87.2 323.3,87 
			316.4,86.5 315.2,102.1 315.1,102.9 315.1,103.5 315.1,104 315.1,104.6 315.1,105.1 315.1,105.3 315.1,105.7 315.1,105.9 
			315.2,106.3 315.4,106.5 315.5,106.8 315.6,107 315.9,107.2 316.2,107.4 316.8,107.4 317.3,107.6 322.7,108 323.3,108.1 
			323.8,108.1 324.5,108.1 324.9,108.1 325.4,108 325.8,108 326.2,107.8 326.6,107.7 326.8,107.6 327.1,107.4 327.5,107.2 
			327.8,107 328.2,106.8 328.4,106.4 328.7,106.1 329.1,105.7 329.4,105.2 329.9,104.6 330.3,103.9 330.6,103.1 331.2,102.3 
			331.5,101.4 331.9,100.5 332.5,99.5 333.4,99.6 329.7,111.1 305.7,109.3 305.8,108 306.8,108.1 307.5,108.1 308,108 308.5,107.7 
			309.1,107.4 309.5,107 309.7,106.8 310,106.3 310.3,105.9 310.3,105.5 310.4,105.1 310.4,104.7 310.5,104.2 310.6,103.5 
			310.6,102.9 310.8,102.1 310.8,101.3 313.2,70.7 313.2,69.5 313.4,68.6 313.4,67.8 313.4,67 313.4,66.4 313.2,65.9 313.2,65.5 
			313.1,65.1 312.9,64.7 312.6,64.4 312.3,64.2 312.1,63.9 311.7,63.8 311.3,63.6 310.9,63.5 310.4,63.5 309.3,63.4 309.5,62.1 
			333.5,64 333,74.4 332.1,74.2 332.1,73.5 331.9,72.5 331.9,71.7 331.8,71.1 331.8,70.6 331.7,69.9 331.5,69.5 331.4,69.1 
			331.2,68.4 330.8,67.8 330.4,67.3 329.9,66.8 329.6,66.6 329.3,66.5 328.9,66.4 328.7,66.4 328.2,66.3 327.8,66.1 327.2,66.1 
			326.7,66 		"/>
		<polygon class="st1" points="377,74.1 376.7,75.4 375.9,75.4 375.1,75.6 374.4,75.8 373.8,76.2 373.4,76.6 373,77 372.6,77.5 
			372.2,78 371.7,78.6 371.3,79.2 370.8,79.8 370.4,80.7 349.6,115.7 348.7,115.4 347.9,74 347.8,73.2 347.8,72.5 347.8,71.9 
			347.8,71.4 347.8,70.8 347.6,70.5 347.6,70.2 347.6,69.9 347.4,69.4 347.2,68.9 347,68.5 346.7,68 346.3,67.6 345.8,67.3 
			345.3,66.9 344.6,66.6 345,65.5 357.3,68.9 357,70.1 356.5,69.9 356,69.9 355.6,69.9 355.2,69.9 354.8,70.1 354.4,70.1 
			354.2,70.2 354,70.3 353.6,70.7 353.3,71.1 353,71.6 352.9,72.1 352.7,72.5 352.6,73.1 352.6,73.6 352.5,74.2 352.5,75 
			352.5,75.8 352.5,76.6 352.5,77.5 353.1,105.7 367.2,81.9 367.7,81 368.2,80.3 368.6,79.5 368.8,78.8 369.2,78.3 369.3,77.8 
			369.6,77.2 369.7,76.8 369.7,76.3 369.7,75.9 369.7,75.4 369.6,74.9 369.5,74.6 369.3,74.4 369.1,74.1 368.9,73.8 368.7,73.7 
			368.4,73.5 367.7,73.1 367.5,72.9 367.4,72.8 367.6,71.6 		"/>
		<path class="st1" d="M392.6,134l-7.6-3.8l0.5-24.6l-0.5-0.1l-0.5-0.3l-0.4-0.1l-0.3-0.3l-0.3-0.1l-0.4-0.1l-0.3-0.1l-0.3-0.3
			l-6.3,12.3l-0.4,0.9l-0.4,0.9l-0.4,0.8l-0.3,0.7l-0.3,0.7l-0.1,0.5v0.4v0.4v0.4l0.1,0.4l0.1,0.4l0.1,0.4l0.3,0.3l0.3,0.3l0.4,0.3
			l0.3,0.3l1.2,0.5l-0.6,1.2l-11.9-6l0.5-1.2l1,0.5l0.5,0.1l0.4,0.1h0.4h0.4h0.5l0.4-0.3l0.4-0.3l0.4-0.3l0.3-0.3l0.3-0.3l0.4-0.4
			l0.3-0.5l0.4-0.7l0.4-0.7l0.4-0.8l0.4-0.8l13.7-27.3l0.5-0.9l0.4-0.9l0.3-0.8l0.3-0.7l0.3-0.7l0.1-0.5l0.1-0.4v-0.4l-0.1-0.4v-0.4
			l-0.3-0.4l-0.1-0.4l-0.3-0.3l-0.3-0.3l-0.3-0.3l-0.4-0.3l-1.1-0.5l0.5-1.2l10.2,5.2l1.1,0.5l1,0.5l0.9,0.5l0.8,0.5l0.7,0.5
			l0.6,0.5l0.5,0.5l0.5,0.5l0.4,0.5l0.3,0.6l0.3,0.7l0.3,0.7l0.3,0.7l0.1,0.8l0.1,0.8v0.8v0.8v0.9l-0.1,0.9l-0.1,0.8l-0.3,0.9
			l-0.4,0.9l-0.3,0.9l-0.5,0.9l-0.4,0.9l-0.7,0.9l-0.5,0.8L400,103l-0.6,0.7l-0.7,0.7l-0.8,0.6l-0.6,0.5l-0.9,0.4l-0.8,0.4l-0.9,0.4
			l-0.8,0.1l-0.9,0.1l-1.1,0.1H391l-1.1-0.1l-0.3,15v1.2v1.2v1v0.9l0.1,0.9l0.1,0.8l0.1,0.6l0.1,0.5l0.3,0.5l0.3,0.5l0.3,0.5
			l0.4,0.4l0.3,0.4l0.5,0.5l0.4,0.4l0.5,0.4L392.6,134L392.6,134z M383.6,102.2l0.4,0.3l0.3,0.1l0.3,0.1l0.3,0.1l0.9,0.4l1.1,0.4
			l0.9,0.1l0.9,0.1h0.9l0.9-0.1l0.9-0.1l0.8-0.4l0.8-0.4l0.8-0.5l0.8-0.7l0.7-0.6l0.7-0.8l0.7-0.8l0.5-0.9l0.5-0.9l0.5-1.1l0.4-0.9
			l0.3-0.9l0.3-0.9l0.1-0.9l0.1-0.9v-0.8v-0.9l-0.1-0.8l-0.3-0.7l-0.3-0.8l-0.4-0.5l-0.4-0.7l-0.5-0.4l-0.5-0.5l-0.7-0.3l-0.4-0.1
			l-0.3-0.3l-0.4-0.1l-0.5-0.1l-0.4-0.1l-0.5-0.1H393l-0.5-0.1L383.6,102.2L383.6,102.2z"/>
		<path class="st1" d="M417.8,133.8l-9.7-7.3L402,131l-0.5,0.4l-0.5,0.4l-0.4,0.4l-0.4,0.3l-0.4,0.4l-0.3,0.3l-0.4,0.4l-0.1,0.3
			l-0.3,0.4l-0.3,0.5l-0.1,0.4v0.5l0.1,0.3v0.3l0.1,0.4l0.3,0.3l0.3,0.4l0.3,0.3l0.3,0.4l0.4,0.4l-0.8,1.1l-7.7-6l0.7-1l0.5,0.1
			l0.4,0.3h0.4l0.4,0.1h0.4l0.3,0.1l0.3-0.1h0.3l0.5-0.3l0.7-0.3l0.7-0.3l0.7-0.4l0.8-0.5l0.9-0.6l0.9-0.7l1-0.7l31.9-23.4l0.7,0.5
			l-14.8,37l-0.5,1.2l-0.3,0.9l-0.4,0.9l-0.3,0.8l-0.1,0.8l-0.1,0.6l-0.1,0.5v0.5v0.4l0.1,0.4l0.1,0.5l0.1,0.4l0.1,0.3l0.3,0.4
			l0.3,0.4l0.4,0.3l-0.8,1l-9.8-7.6l0.8-0.9l0.4,0.1l0.4,0.3l0.4,0.1l0.3,0.1l0.3,0.1h0.4h0.3h0.3l0.4-0.1l0.5-0.3l0.4-0.3l0.4-0.5
			l0.1-0.3l0.3-0.4l0.3-0.4l0.3-0.5l0.3-0.7l0.4-0.6l0.3-0.7l0.3-0.8L417.8,133.8L417.8,133.8z M418.9,131.5l7.2-18L410.2,125
			L418.9,131.5L418.9,131.5z"/>
		<polygon class="st1" points="446.1,173.3 437.7,177.1 426.2,162.7 427.1,162 428.8,161.8 430.5,161.7 432.1,161.7 433.6,161.6 
			435.1,161.4 436.5,161.3 438,161.2 439.3,161 440.6,160.9 441.9,160.8 443.1,160.6 444.2,160.5 445.3,160.3 446.3,160.1 
			447.4,159.9 448.3,159.7 450.1,159.2 451.9,158.7 453.5,158.2 455.1,157.5 456.5,156.7 458,156.1 459.1,155.2 460.3,154.4 
			461.2,153.6 461.9,152.9 462.7,152.2 463.2,151.5 463.7,150.7 464.2,149.9 464.6,149.1 464.9,148.3 465.2,147.6 465.3,146.9 
			465.3,146.1 465.3,145.5 465.2,144.8 465,144.3 464.8,143.6 464.3,143.2 464,142.7 463.6,142.3 463.2,142.1 462.7,141.8 
			462.1,141.6 461.5,141.4 461,141.3 460.3,141.2 459.5,141.2 458.9,141.2 458.1,141.3 457.3,141.4 456.5,141.7 455.7,142 
			454.8,142.3 454,142.7 453.4,142.1 454.7,141.3 456,140.5 457.3,139.9 458.5,139.5 459.7,138.9 460.7,138.7 461.9,138.4 
			462.9,138.4 463.8,138.3 464.9,138.4 465.7,138.5 466.6,138.8 467.2,139.2 468,139.7 468.7,140.2 469.2,140.9 469.7,141.7 
			470.3,142.5 470.5,143.2 470.8,144.2 470.8,145.1 470.8,146.1 470.6,147.1 470.4,148.1 470,149.1 469.6,150.2 469.1,151.1 
			468.4,152.2 467.8,152.9 467,153.8 466.2,154.6 465.3,155.4 463.8,156.5 462.4,157.4 460.7,158.3 459.1,158.9 457.7,159.5 
			456.2,160 454.8,160.4 453.3,160.8 451.7,161.2 450,161.4 448.3,161.7 446.4,162 445.2,162.1 443.8,162.2 442.7,162.4 
			441.6,162.5 440.6,162.6 439.5,162.7 438.6,162.9 437.7,162.9 436.9,163 436.2,163.1 435.6,163.1 435,163.3 434.4,163.3 
			433.9,163.3 433.5,163.3 433.2,163.3 438.3,169.7 438.7,170.2 439,170.6 439.4,171 439.7,171.3 440.1,171.6 440.3,171.9 
			440.6,172.2 440.7,172.3 441.2,172.5 441.6,172.8 442.1,172.9 442.8,172.9 443.3,173.1 444,172.9 444.8,172.8 445.4,172.7 		"/>
		<polygon class="st1" points="458.3,193.8 449.6,196.5 440.2,180.5 441.2,179.9 442.9,180.1 444.6,180.3 446.2,180.4 447.8,180.5 
			449.2,180.6 450.6,180.6 452.1,180.8 453.4,180.8 454.7,180.8 456,180.9 457.2,180.9 458.3,180.9 459.5,180.8 460.6,180.8 
			461.6,180.8 462.5,180.6 464.5,180.5 466.3,180.1 468,179.9 469.6,179.5 471.2,178.9 472.6,178.4 473.9,177.8 475.2,177.1 
			476.1,176.4 477,175.9 477.8,175.3 478.5,174.6 479.1,174 479.6,173.2 480.2,172.5 480.6,171.8 480.8,171.1 481.1,170.3 
			481.4,169.7 481.4,169 481.4,168.3 481.2,167.7 481.1,167.2 480.8,166.7 480.4,166.1 480.1,165.7 479.6,165.4 479.3,165 
			478.7,164.7 478.2,164.4 477.6,164.2 477,164 476.3,163.9 475.6,163.9 474.8,163.9 474,163.9 473.3,164 472.3,164.2 471.4,164.4 
			470.5,164.7 470.1,163.9 471.5,163.3 472.9,162.7 474.2,162.4 475.5,162 476.6,161.8 477.8,161.6 478.9,161.6 479.9,161.6 
			481,161.7 481.9,162 482.8,162.2 483.6,162.6 484.2,163.1 484.9,163.6 485.4,164.3 485.9,165 486.3,165.9 486.6,166.7 
			486.8,167.6 487,168.5 486.8,169.4 486.7,170.3 486.5,171.3 486.1,172.3 485.5,173.3 485,174.2 484.4,175.2 483.6,175.9 
			482.8,176.7 481.9,177.5 481,178.2 479.9,178.8 479.3,179.3 478.5,179.7 476.8,180.4 475.1,181 473.4,181.4 471.9,181.8 
			470.4,182.1 468.9,182.2 467.4,182.5 465.7,182.6 464,182.6 462.3,182.7 460.4,182.6 459.1,182.6 457.8,182.6 456.6,182.6 
			455.5,182.5 454.4,182.5 453.4,182.5 452.5,182.5 451.7,182.5 450.9,182.4 450.1,182.4 449.5,182.4 448.8,182.4 448.3,182.2 
			447.9,182.2 447.5,182.2 447.1,182.2 451.3,189.3 451.5,189.7 451.9,190.2 452.2,190.6 452.5,191 452.7,191.4 452.9,191.6 
			453.1,191.9 453.3,192.1 453.6,192.4 454.2,192.7 454.7,192.9 455.2,193.1 455.7,193.2 456.4,193.2 457.2,193.2 458,193.1 		"/>
		<path class="st1" d="M477.2,225.1l-3.6-11.6h-7.6h-0.7l-0.7,0.1h-0.5h-0.5l-0.5,0.1h-0.4l-0.4,0.1H462l-0.5,0.3l-0.4,0.3l-0.4,0.3
			l-0.3,0.5l-0.1,0.1l-0.1,0.3v0.4l-0.1,0.4v0.4l0.1,0.4v0.5l0.1,0.5l-1.2,0.4l-2.9-9.4l1.2-0.4l0.3,0.4l0.3,0.4l0.3,0.3l0.3,0.4
			l0.3,0.1l0.3,0.3l0.3,0.1l0.1,0.1l0.5,0.1l0.7,0.1l0.8,0.1h0.8l0.9,0.1h1h1.2h1.3l39.6-0.3l0.3,0.8l-33.7,21.4l-1,0.7l-0.8,0.5
			l-0.8,0.5l-0.8,0.5l-0.5,0.5l-0.5,0.5l-0.4,0.4l-0.3,0.4l-0.3,0.3l-0.1,0.4l-0.1,0.4l-0.1,0.4l-0.1,0.5v0.4v0.4l0.1,0.5l-1.2,0.4
			l-3.6-11.9l1.2-0.4l0.1,0.4l0.3,0.4l0.1,0.4l0.3,0.3l0.1,0.3l0.3,0.3l0.3,0.1l0.1,0.1l0.5,0.1l0.5,0.1l0.5-0.1l0.5-0.1l0.4-0.1
			l0.4-0.1l0.4-0.3l0.5-0.3l0.6-0.3l0.5-0.3l0.6-0.4l0.7-0.5L477.2,225.1L477.2,225.1z M479.4,223.8l16.4-10.5l-19.5,0.1
			L479.4,223.8z"/>
		<polygon class="st1" points="515.2,265.1 501.1,267.2 501.1,266.4 502.3,265.9 503.5,265.5 504.6,265 505.5,264.6 506.5,264.1 
			507.4,263.5 508.2,263 508.8,262.5 509.6,261.7 510.4,260.9 510.9,260 511.4,259.1 511.8,258.2 511.9,257.1 512.1,256.1 
			512.1,255 511.9,254.2 511.8,253.6 511.7,252.9 511.4,252.3 511.2,251.6 510.8,251 510.4,250.4 509.8,249.9 509.5,249.4 
			508.8,248.9 508.3,248.5 507.6,248 506.8,247.6 506.2,247.2 505.3,246.9 504.5,246.5 502.9,246 501.4,245.6 499.8,245.3 
			498,245.1 496.3,244.9 494.4,244.9 492.5,244.9 490.6,245.1 488.9,245.2 487.5,245.5 485.9,245.7 484.5,246 483.1,246.4 
			481.6,246.8 480.3,247.3 479,247.8 477.7,248.4 476.5,248.9 475.5,249.5 474.5,250.2 473.6,250.8 472.9,251.5 472.2,252.3 
			471.5,252.9 471,253.7 470.6,254.5 470.3,255.1 470,255.9 469.7,256.7 469.6,257.4 469.6,258.2 469.6,259 469.7,259.7 
			469.9,260.6 470.1,261.4 470.5,262.2 470.9,263 471.4,263.8 471.9,264.4 472.6,265.2 485.7,264.1 486.5,264.1 487.1,263.9 
			487.9,263.8 488.4,263.8 488.9,263.7 489.3,263.5 489.7,263.4 490,263.4 490.5,263.1 490.9,262.7 491.3,262.5 491.5,262.1 
			491.7,261.8 491.7,261.7 491.8,261.3 491.8,261 491.9,260.6 491.9,260.2 491.8,259.9 491.8,259.5 493.1,259.3 494.2,271.4 
			492.9,271.5 492.9,271 492.7,270.4 492.6,270.1 492.5,269.8 492.2,269.4 491.9,269.2 491.7,268.9 491.3,268.8 490.9,268.6 
			490.5,268.5 490.1,268.5 489.6,268.5 489.1,268.3 488.4,268.3 487.6,268.5 486.8,268.5 485.9,268.5 472.2,269.7 471.7,269.2 
			471.2,268.5 470.6,267.8 470.3,267.2 469.7,266.7 469.4,266 469.1,265.3 468.8,264.7 468.2,263.4 467.8,262.1 467.5,260.6 
			467.2,259.1 467.2,257.9 467.2,256.9 467.4,255.8 467.5,254.8 467.6,253.7 467.9,252.8 468.3,251.9 468.7,251 469.2,250 
			469.7,249.1 470.4,248.4 471,247.6 471.8,246.8 472.6,246 473.5,245.3 474.5,244.7 476,243.7 477.7,242.9 479.3,242.1 
			481.1,241.4 482.8,240.9 484.7,240.5 486.7,240.1 488.7,239.8 490.1,239.8 491.7,239.7 493.1,239.8 494.5,239.8 496,240.1 
			497.4,240.2 498.9,240.5 500.3,240.9 501.9,241.4 503.5,241.9 504.9,242.6 506.2,243.3 507.5,243.9 508.7,244.7 509.7,245.6 
			510.8,246.5 511.6,247.3 512.2,248.2 512.7,249.1 513.3,250 513.7,251.1 514,252.1 514.2,253.2 514.3,254.4 514.4,255.1 
			514.4,256.1 514.3,256.7 514.2,257.5 514.2,257.9 514,258.3 513.9,258.8 513.7,259.2 513.5,259.7 513.3,260.4 513,260.9 
			512.7,261.6 512.5,262.2 512.3,262.7 512.2,263.1 512.2,263.4 512.3,263.7 512.5,263.8 512.6,263.9 512.8,264.2 513,264.2 
			513.3,264.2 513.5,264.3 513.8,264.3 514,264.3 514.4,264.3 514.8,264.3 515.2,264.3 		"/>
		<path class="st1" d="M513.7,295.8l-0.1,0.7l-0.1,0.8l-0.3,0.8l-0.3,0.7l-0.3,0.7l-0.4,0.6l-0.4,0.7l-0.5,0.7l-0.5,0.5l-0.5,0.7
			l-0.7,0.5l-0.7,0.5l-0.6,0.5l-0.8,0.5l-0.9,0.5l-0.8,0.4l-0.9,0.5l-0.9,0.4l-1.1,0.4l-0.9,0.3l-1.1,0.3l-0.9,0.3l-1,0.3L498,308
			l-1.2,0.1l-1,0.1h-1.2l-1,0.1h-1.2l-1.2-0.1l-1.3-0.1h-1.2l-2.5-0.4l-2.3-0.5l-2.2-0.6l-2.2-0.7l-1.9-0.9l-1.8-1.1l-1.8-1
			l-1.6-1.3l-0.8-0.7l-0.7-0.6l-0.7-0.7l-0.7-0.7l-0.5-0.8l-0.4-0.7l-0.5-0.7l-0.3-0.8l-0.4-0.8l-0.3-0.7l-0.3-0.8l-0.1-0.8v-0.8
			l-0.1-0.7v-0.8l0.1-0.8l0.1-0.9l0.1-0.7l0.3-0.8l0.3-0.8l0.3-0.7l0.4-0.6l0.4-0.7l0.5-0.7l0.5-0.7l0.5-0.5l0.7-0.7l0.7-0.5
			l0.7-0.5l0.8-0.5l0.8-0.5l0.9-0.4l0.9-0.5l0.9-0.4l0.9-0.3l1.1-0.4l0.9-0.3l1-0.3l1.1-0.1l1-0.3l1.2-0.1h1.2l1.2-0.1h1.2h1.2
			l1.2,0.1h1.3l1.3,0.1l1.3,0.3l1.3,0.1l1.3,0.3l1.2,0.3l1.2,0.4l1.2,0.3l1,0.4l1.1,0.5l1,0.4l1.1,0.5l0.9,0.5l0.9,0.5l0.9,0.7
			l0.9,0.6l0.8,0.7l0.8,0.7l0.7,0.7l0.7,0.7l0.5,0.6l0.5,0.7l0.4,0.7l0.4,0.8l0.4,0.7l0.4,0.7l0.3,0.7l0.1,0.8l0.3,0.7l0.1,0.8v0.8
			v0.7v0.8L513.7,295.8L513.7,295.8z M511.3,295v-0.5V294v-0.4l-0.1-0.5l-0.1-0.5l-0.1-0.4l-0.1-0.5l-0.3-0.4l-0.3-0.5l-0.3-0.4
			l-0.3-0.5l-0.4-0.4l-0.4-0.4l-0.4-0.4l-0.5-0.4l-0.5-0.4l-0.7-0.4l-0.6-0.5l-0.8-0.4l-0.8-0.4l-0.9-0.4l-0.8-0.4l-1-0.3l-0.9-0.4
			l-1-0.3l-1.1-0.3l-1-0.3l-1.2-0.3l-1.2-0.3l-1.3-0.3L493,283l-1.3-0.1l-1.4-0.1l-1.3-0.1l-1.3-0.1h-1.2l-1.3-0.1H484l-1.1,0.1
			h-1.2l-1,0.1l-1.1,0.1l-0.9,0.1l-0.9,0.3l-1,0.1l-0.8,0.3l-0.9,0.3l-0.8,0.4l-0.5,0.3l-0.7,0.3l-0.4,0.3l-0.5,0.3l-0.5,0.4
			l-0.4,0.3l-0.4,0.4l-0.3,0.4l-0.4,0.4l-0.3,0.4l-0.3,0.4l-0.1,0.5l-0.3,0.4l-0.1,0.5l-0.1,0.4v0.5v0.5v0.7v0.5v0.5l0.1,0.4
			l0.1,0.5l0.3,0.5l0.3,0.5l0.3,0.5l0.3,0.4l0.4,0.5l0.4,0.4l0.4,0.5l0.5,0.4l0.5,0.5l0.5,0.4l0.7,0.4l0.7,0.4l0.7,0.4l0.8,0.4
			l0.8,0.4l0.8,0.3l0.9,0.4l0.9,0.3l0.9,0.3l1,0.3l1.1,0.3l1.2,0.3l1.2,0.1l1.2,0.3l1.3,0.1l1.3,0.3l1.4,0.1l1.3,0.1h1.3l1.3,0.1
			h1.3h1.2h1.2l1-0.1h1.2l1.1-0.1l0.9-0.1l0.9-0.3l0.9-0.1l0.9-0.3l0.8-0.3l0.8-0.3l0.5-0.3l0.7-0.3l0.5-0.4l0.4-0.3l0.5-0.4
			l0.4-0.3l0.4-0.4l0.4-0.4l0.3-0.5l0.3-0.4l0.3-0.4l0.3-0.5l0.1-0.5l0.1-0.5l0.1-0.5L511.3,295L511.3,295z"/>
		<polygon class="st1" points="503.3,340.8 488.4,336.2 488.7,335.4 489.7,335.7 490.8,335.8 491.8,335.9 492.7,336.1 493.7,336.1 
			494.4,336.2 495.2,336.2 496,336.1 496.6,336.1 497.3,335.9 498,335.8 498.6,335.6 499.3,335.3 499.8,335 500.3,334.8 501,334.4 
			501.4,334 501.9,333.7 502.3,333.2 502.7,332.8 502.9,332.4 503.2,331.9 503.5,331.5 503.6,331 503.7,330.3 503.8,329.8 
			503.8,329.3 503.7,328.7 503.6,328.1 503.5,327.6 503.2,327.1 502.8,326.5 502.4,326 501.9,325.5 501.5,325.1 501,324.7 
			500.4,324.4 499.8,324 499.3,323.8 498.6,323.6 498.1,323.5 497.7,323.4 497.2,323.3 496.6,323.3 496.1,323.3 495.7,323.3 
			495.2,323.4 494.7,323.4 494,323.6 493.1,323.9 492.2,324.4 491.2,325 490.1,325.5 488.9,326.3 487.6,327.1 486.3,328 
			485.3,328.7 484.2,329.4 483.3,330.1 482.4,330.7 481.6,331.1 480.8,331.6 480.2,331.9 479.6,332.1 478.5,332.7 477.3,332.9 
			476,333.2 474.8,333.3 473.5,333.3 472.2,333.2 470.9,332.9 469.6,332.7 468.4,332.1 467.2,331.7 466.2,331.1 465.2,330.6 
			464.2,329.8 463.4,329.1 462.7,328.2 462,327.4 461.3,326.4 460.8,325.5 460.4,324.6 460.2,323.5 460.1,322.5 460.1,321.5 
			460.2,320.5 460.4,319.5 461,318.3 461.5,317.1 461.6,317 461.7,316.7 462,316.4 462.1,316.2 462.5,315.8 462.8,315.5 
			463.2,315.2 463.6,314.6 464,314.2 464.3,313.8 464.6,313.4 464.9,313.1 465,312.8 465.2,312.6 465.3,312.4 465.4,312.3 
			465.4,311.9 465.4,311.6 465.3,311.5 465.2,311.2 465,311.1 464.9,311 464.8,310.8 464.5,310.7 464,310.5 463.3,310.2 
			463.6,309.3 478.5,313.8 478.2,314.6 477,314.5 475.9,314.4 474.8,314.2 473.9,314.1 473,314.1 472.2,314 471.4,314 470.8,314.1 
			470.1,314.1 469.4,314.2 468.8,314.5 468.3,314.6 467.6,314.9 467.1,315.2 466.4,315.5 465.9,315.9 465.4,316.3 465,316.7 
			464.6,317.1 464.2,317.6 463.8,318.2 463.6,318.7 463.3,319.2 463.1,319.7 462.9,320.5 462.8,321.2 462.8,321.8 462.9,322.4 
			463.1,323 463.2,323.6 463.4,324.2 463.8,324.8 464.2,325.4 464.8,325.9 465.3,326.3 465.8,326.6 466.3,327.1 467,327.4 
			467.6,327.7 468.3,328 469.2,328.1 470,328.2 470.9,328.4 471.7,328.4 472.6,328.2 473.5,328 474.4,327.7 475.4,327.3 
			475.7,327.2 476.1,326.9 476.6,326.6 477.3,326.1 478.1,325.7 478.9,325.2 479.8,324.6 480.8,323.9 481.9,323.3 482.9,322.6 
			483.8,322 484.6,321.4 485.4,321 486.2,320.6 486.8,320.3 487.5,320 488.7,319.5 489.8,319.1 491.2,318.8 492.3,318.8 
			493.7,318.7 494.8,318.8 496.1,319.1 497.6,319.5 498.6,319.9 499.6,320.3 500.7,320.8 501.6,321.3 502.5,322 503.3,322.7 
			504.1,323.5 504.7,324.3 505.4,325.2 505.8,326.1 506.2,327.1 506.5,328 506.6,328.9 506.6,329.8 506.5,330.7 506.2,331.6 
			505.9,332.3 505.7,332.8 505.4,333.5 505,334 504.6,334.6 504.1,335.2 503.6,335.7 502.9,336.2 502.4,336.7 502,337.1 
			501.7,337.4 501.6,337.8 501.5,338 501.6,338.3 501.6,338.6 501.9,338.8 501.9,338.9 502,339.1 502.3,339.2 502.4,339.3 
			502.7,339.5 502.9,339.7 503.6,340 		"/>
		<polygon class="st1" points="487.5,376 477.4,371.2 477.8,370.5 478.5,370.7 479.1,371 479.6,371.1 480.2,371.4 480.7,371.5 
			481.1,371.6 481.5,371.6 481.9,371.8 482.9,371.8 483.8,371.8 484.6,371.6 485.4,371.4 485.7,371.2 486.1,371 486.3,370.7 
			486.6,370.5 487,370 487.1,369.8 487.4,369.4 487.6,369 489.6,364.9 457.3,348.9 456.4,348.5 455.5,348.1 454.7,347.7 454,347.4 
			453.4,347.3 452.9,347.2 452.5,347 452.1,347 451.7,347 451.3,347.2 451,347.3 450.6,347.6 450.4,347.8 450.1,348.1 449.9,348.5 
			449.6,348.9 449.1,349.8 448,349.3 453.9,337.4 455.1,337.9 454.6,338.9 454.3,339.3 454.3,339.7 454.2,340.3 454.2,340.7 
			454.3,341 454.4,341.4 454.7,341.8 455,342.2 455.1,342.5 455.5,342.7 455.9,343 456.4,343.4 456.9,343.8 457.6,344.2 
			458.3,344.6 459.2,345 491.5,361 493.3,357.6 493.7,356.7 493.9,355.9 494.2,355.3 494.2,354.6 494.2,354.4 494,354 494,353.6 
			493.8,353.2 493.7,352.8 493.4,352.5 493.1,352.1 492.9,351.7 492.5,351.2 492.1,350.8 491.7,350.5 491.2,350.1 490.6,349.7 
			490,349.3 489.4,348.9 488.8,348.5 489.2,347.7 498.9,352.9 		"/>
		<path class="st1" d="M472.7,397.4l-0.4,0.7l-0.5,0.5l-0.5,0.5l-0.7,0.4L470,400l-0.5,0.4l-0.8,0.3l-0.7,0.3l-0.8,0.3l-0.8,0.3
			l-0.8,0.1l-0.9,0.1l-0.8,0.1h-0.9L462,402l-0.9-0.1h-1l-1.1-0.1l-0.9-0.3l-1-0.1L456,401l-0.9-0.3l-1-0.4L453,400l-0.9-0.4l-1-0.5
			l-1.1-0.5l-0.9-0.5l-1.1-0.7l-0.9-0.7l-1-0.7l-1.1-0.7l-0.9-0.8l-1-0.9l-0.9-0.8l-0.9-0.8l-0.8-0.8l-0.8-0.9l-0.8-0.8l-0.7-0.9
			l-0.7-0.8l-0.7-0.9l-0.5-0.9l-0.5-0.9l-0.5-0.9l-0.5-0.9l-0.4-0.9l-0.3-1.1l-0.4-0.9l-0.3-0.9l-0.3-0.9l-0.1-0.9l-0.1-0.9v-0.8
			v-0.8v-0.9l0.1-0.8l0.1-0.8l0.3-0.7l0.3-0.8l0.3-0.7l0.4-0.8l0.4-0.7l0.4-0.7l0.5-0.5l0.5-0.7l0.7-0.5l0.5-0.5l0.7-0.4l0.7-0.4
			l0.7-0.4l0.8-0.3l0.8-0.3l0.8-0.3l0.8-0.3l0.8-0.1h0.9l0.9-0.1h0.9l1,0.1h0.9l1.1,0.1l1,0.3l0.9,0.1l1,0.3l1.1,0.4l1,0.3l0.9,0.4
			l1.1,0.5l1,0.5l1.1,0.5l1,0.5l1.1,0.7l1,0.7l1.1,0.8l1,0.8l1.1,0.8l1,0.8l0.9,0.9l0.9,0.8l0.8,0.9l0.9,0.9l0.6,0.8l0.8,0.9
			l0.7,0.9l0.6,1l0.5,0.9l0.5,0.9l0.4,1.1l0.5,0.9l0.3,1l0.4,1.1l0.3,0.8l0.1,0.9l0.1,0.8l0.1,0.9v0.8v0.8v0.8v0.8l-0.1,0.7
			l-0.3,0.8l-0.1,0.7l-0.3,0.7l-0.4,0.8l-0.3,0.7l-0.4,0.7L472.7,397.4L472.7,397.4z M471,395.5l0.4-0.4l0.3-0.4l0.1-0.5l0.3-0.4
			l0.1-0.5l0.1-0.4l0.1-0.5v-0.5v-0.5v-0.5l-0.1-0.5v-0.5l-0.1-0.5l-0.3-0.7l-0.1-0.5l-0.3-0.5l-0.4-0.8l-0.4-0.8l-0.4-0.8l-0.5-0.7
			l-0.5-0.8l-0.5-0.8l-0.7-0.8l-0.7-0.8l-0.8-0.8l-0.8-0.8l-0.8-0.8l-0.9-0.8l-0.8-0.8l-1-0.8l-1.1-0.8l-1-0.8l-1.1-0.9l-1-0.7
			l-1.1-0.8l-1-0.7l-1.1-0.7l-1-0.6l-1.1-0.5l-0.9-0.5l-1-0.4l-0.9-0.4l-0.9-0.4l-0.9-0.3l-0.9-0.3l-0.9-0.3l-0.8-0.3l-0.9-0.1
			l-1.2-0.1h-1.2l-1.1,0.1l-1,0.3l-0.9,0.4l-0.8,0.5l-0.8,0.7l-0.7,0.8l-0.3,0.4l-0.4,0.5l-0.1,0.5l-0.3,0.4l-0.1,0.5l-0.1,0.5
			l-0.1,0.5v0.5v0.7v0.5l0.1,0.7v0.5l0.3,0.7l0.1,0.7l0.3,0.7l0.3,0.7l0.3,0.6l0.4,0.7l0.4,0.7l0.4,0.7l0.5,0.8l0.5,0.7l0.7,0.8
			l0.7,0.7l0.7,0.8l0.8,0.6l0.8,0.8l0.8,0.8l0.9,0.8l1,0.8l0.9,0.8l1.1,0.8l1.2,0.9l1.2,0.8l1,0.7l1.1,0.8l1,0.7l1.1,0.7l1,0.5
			l1.1,0.5l0.9,0.4l0.9,0.5l0.9,0.4l0.9,0.3l0.9,0.3l0.9,0.3l0.8,0.1l0.8,0.1l0.7,0.1h0.7h0.7h0.5h0.5l0.5-0.1l0.5-0.1l0.5-0.1
			l0.5-0.3l0.4-0.3l0.5-0.3l0.4-0.3l0.4-0.3l0.4-0.4l0.4-0.4L471,395.5L471,395.5z"/>
		<polygon class="st1" points="438.9,425.7 436.4,434.8 435.9,435.3 411.3,404.8 410.6,404.2 410.1,403.5 409.6,402.9 409.2,402.5 
			408.8,402 408.5,401.7 408.3,401.4 408,401.2 407.6,400.9 407.2,400.8 406.9,400.6 406.3,400.6 406.2,400.6 405.9,400.8 
			405.5,400.9 405.3,401 405,401.2 404.6,401.4 404.2,401.7 403.8,402 403,401 412.2,393.6 413,394.5 412.6,394.9 412.2,395.3 
			412,395.5 411.7,395.8 411.4,396.1 411.3,396.3 411.2,396.6 411.2,396.9 411,397.2 411,397.6 411.2,398 411.3,398.4 411.4,398.7 
			411.6,399 411.8,399.3 412.1,399.9 412.6,400.4 413,401 413.5,401.7 414.2,402.5 430,421.8 430.6,422.9 431.4,423.6 432.1,424.4 
			432.6,425.1 433.1,425.6 433.5,426.1 433.9,426.5 434.2,426.8 434.6,427.1 435,427.3 435.3,427.6 435.6,427.7 436,427.7 
			436.2,427.7 436.5,427.6 436.8,427.4 436.9,427.2 437,427.1 437.3,426.8 437.4,426.5 437.6,426.3 437.7,425.9 437.8,425.5 
			438,425.1 		"/>
		<path class="st1" d="M403.7,429.1l1.3,0.4l1.2,0.5l1.2,0.4l1,0.5l0.9,0.4l0.8,0.5l0.8,0.4l0.5,0.5l1.2,0.9l0.9,0.9l0.9,1.2
			l0.8,1.2l0.5,0.9l0.5,1.1l0.4,0.9l0.3,0.9l0.1,1l0.1,0.9v1.1v1l-0.1,0.9l-0.3,0.9l-0.3,0.8l-0.5,0.8l-0.5,0.7l-0.5,0.7l-0.8,0.6
			l-0.8,0.5l-0.8,0.4l-0.8,0.4l-0.9,0.3h-0.8l-0.8,0.1l-0.9-0.1l-0.9-0.1l-0.8-0.4l-0.9-0.3l-0.8-0.5l-0.8-0.5l-0.6-0.5l-0.7-0.5
			l-0.7-0.8l-0.5-0.6l-0.5-0.8l-0.4-0.7l-0.3-0.5l-0.3-0.7l-0.1-0.5l-0.4-1.4l-0.3-1.3v-0.8v-0.9l0.1-0.9l0.1-0.9l0.1-1l0.3-1.1
			l0.3-1.2l0.4-1.3l-1.4-0.4l-1.3-0.5l-1.2-0.4l-1.1-0.4l-1-0.4l-0.9-0.5l-0.7-0.4l-0.8-0.4l-0.8-0.5L391,429l-0.8-0.7l-0.7-0.6
			l-0.7-0.7l-0.5-0.7l-0.7-0.8l-0.4-0.8l-0.7-1l-0.5-1.1l-0.4-1l-0.3-1.1l-0.1-1l-0.1-1.1l-0.1-1l0.1-1.1l0.1-1l0.3-0.9l0.4-0.9
			l0.4-0.8l0.5-0.8l0.7-0.7l0.7-0.7l0.9-0.5l0.4-0.3l0.5-0.3l0.5-0.3l0.5-0.1l0.4-0.1l0.5-0.1h0.5h0.5h0.5h0.5l0.4,0.1l0.5,0.1
			l0.5,0.1l0.5,0.1l0.5,0.3l0.5,0.3l0.9,0.5l0.8,0.5l0.7,0.5l0.8,0.7l0.7,0.7l0.5,0.7l0.5,0.8l0.5,0.8l0.4,0.6l0.4,0.7l0.3,0.8
			l0.3,0.6l0.3,0.8l0.1,0.8l0.1,0.8l0.1,0.8v0.8v0.9v0.9v1.1l-0.1,1l-0.3,1.1L404,428L403.7,429.1L403.7,429.1z M402.4,434.1
			l-0.1,1.1v1l-0.1,0.9v0.9v0.8v0.8l0.1,0.7l0.1,0.5l0.3,1l0.4,1.2l0.5,1.1l0.6,1.2l0.4,0.8l0.5,0.7l0.4,0.5l0.5,0.5l0.5,0.5
			l0.5,0.4l0.5,0.4l0.5,0.3l0.5,0.3l0.5,0.1h0.7h0.5h0.5l0.5-0.1l0.5-0.3l0.4-0.3l0.5-0.3l0.4-0.4l0.4-0.4l0.3-0.4l0.3-0.5l0.3-0.5
			l0.1-0.5l0.1-0.6v-0.5v-0.6v-0.7l-0.1-0.5l-0.3-0.6l-0.1-0.5l-0.3-0.5l-0.4-0.7l-0.4-0.7l-0.7-0.8l-0.5-0.7l-0.7-0.5l-0.8-0.7
			l-0.8-0.5l-0.8-0.4l-0.9-0.4L402.4,434.1L402.4,434.1z M402.1,428.6l0.1-1.6v-1.4l-0.1-1.5l-0.1-0.8l-0.1-0.7l-0.1-0.7l-0.1-0.8
			l-0.3-0.7l-0.3-0.8l-0.7-1.3l-0.8-1.4l-0.5-0.9l-0.6-0.8l-0.5-0.8l-0.6-0.7l-0.7-0.6l-0.7-0.5l-0.7-0.4l-0.7-0.4l-0.7-0.3
			l-0.6-0.3l-0.7-0.1l-0.7-0.1l-0.7,0.1h-0.5l-0.5,0.3l-0.5,0.3l-0.5,0.4l-0.5,0.3l-0.4,0.5l-0.3,0.4l-0.3,0.5l-0.3,0.5l-0.1,0.5
			l-0.1,0.7v0.7v0.6l0.1,0.7l0.1,0.5l0.1,0.7l0.3,0.7l0.3,0.7l0.4,0.7l0.7,0.9l0.7,0.9l0.8,0.8l0.9,0.7l0.8,0.5l1,0.5l1.2,0.7
			l1.2,0.5l1.5,0.5l1.4,0.6l1.7,0.5L402.1,428.6L402.1,428.6z"/>
		<path class="st1" d="M378.6,467.6l-0.4-1l0.5-0.5l0.6-0.4l0.5-0.4l0.5-0.4l0.5-0.5l0.4-0.4l0.4-0.5l0.3-0.5l0.4-0.5l0.3-0.5
			l0.3-0.5l0.3-0.7l0.3-0.6l0.1-0.8l0.3-0.7l0.1-0.8l0.3-1.7l0.3-1.7l0.1-1.7l-0.1-1.7l-0.1-2l-0.3-1.9l-0.3-2.1l-0.5-2.2l-0.4,1.1
			l-0.5,1l-0.5,0.8l-0.7,0.8l-0.7,0.7l-0.6,0.5l-0.7,0.5l-0.8,0.4l-0.8,0.3l-0.8,0.1h-0.8l-0.8-0.1l-0.8-0.3l-0.9-0.3l-0.8-0.5
			l-0.9-0.5l-0.9-0.8l-0.9-0.8l-0.8-0.8l-0.8-0.9l-0.7-1l-0.7-1.2l-0.7-1.3l-0.7-1.3l-0.5-1.3l-0.4-1.3l-0.4-1.3l-0.3-1.3l-0.1-1.3
			l-0.1-1.3v-1.3v-1.3l0.1-0.8l0.1-0.8l0.1-0.7l0.1-0.7l0.1-0.7l0.3-0.7l0.3-0.5l0.3-0.5l0.3-0.5l0.4-0.4l0.4-0.5l0.4-0.4l0.4-0.3
			l0.5-0.4l0.5-0.3l0.5-0.3l0.7-0.3l0.8-0.1h0.8h0.8l0.8,0.1l0.8,0.3l0.8,0.4l0.8,0.4l0.8,0.5l0.8,0.5l0.8,0.5l0.8,0.7l0.7,0.7
			l0.7,0.7l0.7,0.8l0.7,0.8l0.6,0.8l0.5,0.8l0.6,0.9l0.5,0.9l0.5,1.1l0.5,0.9l0.5,1.1l0.5,1.2l0.5,1.3l0.5,1.4l0.4,1.4l0.4,1.4
			l0.4,1.4l0.3,1.5l0.3,1.4l0.1,1.4l0.1,1.4v1.3v1.4v1.3l-0.1,1.4l-0.1,1.3l-0.3,1.3l-0.3,1.3l-0.3,1.2l-0.4,1.2l-0.4,1l-0.4,1.1
			l-0.4,0.9l-0.5,0.8l-0.4,0.8l-0.5,0.6l-0.5,0.7l-0.5,0.5l-0.5,0.5l-0.5,0.4l-0.7,0.4l-0.5,0.4l-0.5,0.3l-0.5,0.3L378.6,467.6
			L378.6,467.6z M382.8,440.4l-0.4-1l-0.3-1.1l-0.4-0.9l-0.3-0.9l-0.3-0.8l-0.4-0.8l-0.3-0.8l-0.3-0.7l-0.6-1.4l-0.8-1.6l-1-1.5
			l-1.1-1.6l-0.5-0.8l-0.5-0.6l-0.5-0.7l-0.6-0.7l-0.5-0.5l-0.6-0.5l-0.5-0.4l-0.5-0.4l-0.5-0.3l-0.4-0.1l-0.4-0.1h-0.4h-0.4h-0.4
			h-0.4l-0.4,0.3l-0.5,0.1l-0.4,0.4l-0.3,0.3l-0.4,0.5l-0.3,0.5l-0.1,0.7l-0.3,0.7l-0.1,0.8v0.8v0.8l0.1,0.9l0.1,1l0.3,0.9l0.3,1.1
			l0.4,1.2l0.5,1.2l0.5,1.3l0.7,1.2l0.5,1.2l0.7,1.1l0.8,1l0.6,1.1l0.7,0.9l0.8,0.8l0.4,0.4l0.4,0.4l0.4,0.3l0.4,0.3l0.4,0.3
			l0.3,0.3l0.4,0.1l0.4,0.3h0.4l0.3,0.1h0.4l0.4,0.1l0.3-0.1h0.4l0.4-0.1l0.3-0.1l0.4-0.1l0.4-0.3l0.4-0.4l0.4-0.4l0.1-0.3l0.3-0.3
			l0.1-0.4l0.3-0.4l0.3-0.4l0.3-0.5l0.3-0.5L382.8,440.4L382.8,440.4z"/>
		<path class="st1" d="M342,446.9l-1.3-4.7l4-1.2l-3.1-11.8l3.6-0.9l3.3,11.8l12.8-3.4l1,4.2l-6.1,33.3l-2.3,0.7l-7.8-29.2
			L342,446.9z M349.7,444.8l6,22.2l4.6-25.1L349.7,444.8L349.7,444.8z"/>
		<polygon class="st1" points="269.9,159.9 269.9,233.7 196,233.7 196,307.6 269.9,307.6 269.9,381.5 343.7,381.5 343.7,307.6 
			417.6,307.6 417.6,233.7 343.7,233.7 343.7,159.9 		"/>
	</g>
</g>
</svg>
