<?xml version="1.0" encoding="UTF-8" standalone="no"?>
<!-- Created with Inkscape (http://www.inkscape.org/) -->

<svg
   version="1.1"
   id="svg1"
   width="297.728"
   height="99.994667"
   viewBox="0 0 297.728 99.994667"
   sodipodi:docname="Jamaica Red Cross.svg"
   inkscape:version="1.3.2 (091e20e, 2023-11-25, custom)"
   xmlns:inkscape="http://www.inkscape.org/namespaces/inkscape"
   xmlns:sodipodi="http://sodipodi.sourceforge.net/DTD/sodipodi-0.dtd"
   xmlns="http://www.w3.org/2000/svg"
   xmlns:svg="http://www.w3.org/2000/svg">
  <defs
     id="defs1">
    <clipPath
       clipPathUnits="userSpaceOnUse"
       id="clipPath3">
      <path
         d="M 0.059998,74.996 H 223.296 V 0 H 0.059998 Z"
         transform="translate(-49.999001,-50.002002)"
         id="path3" />
    </clipPath>
  </defs>
  <sodipodi:namedview
     id="namedview1"
     pagecolor="#ffffff"
     bordercolor="#666666"
     borderopacity="1.0"
     inkscape:showpageshadow="2"
     inkscape:pageopacity="0.0"
     inkscape:pagecheckerboard="0"
     inkscape:deskcolor="#d1d1d1"
     inkscape:zoom="3.1404504"
     inkscape:cx="148.864"
     inkscape:cy="50.152042"
     inkscape:window-width="1920"
     inkscape:window-height="1017"
     inkscape:window-x="-8"
     inkscape:window-y="-8"
     inkscape:window-maximized="1"
     inkscape:current-layer="g1">
    <inkscape:page
       x="0"
       y="0"
       inkscape:label="1"
       id="page1"
       width="297.728"
       height="99.994667"
       margin="0"
       bleed="0" />
  </sodipodi:namedview>
  <g
     id="g1"
     inkscape:groupmode="layer"
     inkscape:label="1">
    <g
       id="group-MC1">
      <path
         id="path2"
         d="M 0,0 V 24.994 H -24.993 V 0 h -25.006 v -25.004 h 25.006 V -50.002 H 0 v 24.998 H 25.002 L 25.002,0 H 0"
         style="fill:#eb1d27;fill-opacity:1;fill-rule:nonzero;stroke:none"
         transform="matrix(1.3333333,0,0,-1.3333333,66.665333,33.325333)"
         clip-path="url(#clipPath3)" />
      <path
         id="path4"
         d="m 0,0 c 0,-1.974 -0.477,-3.931 -3.74,-3.931 -2.403,0 -3.39,1.575 -3.39,3.644 v 0.605 h 1.989 v -0.589 c 0,-1.289 0.351,-2.037 1.56,-2.037 1.289,0 1.591,0.78 1.591,2.196 V 7.703 H 0 L 0,0"
         style="fill:#100f0d;fill-opacity:1;fill-rule:nonzero;stroke:none"
         transform="matrix(1.3333333,0,0,-1.3333333,117.37067,52.692)" />
      <path
         id="path5"
         d="m 0,0 c -0.557,-0.366 -1.432,-0.35 -2.228,-0.494 -0.78,-0.127 -1.48,-0.413 -1.48,-1.368 0,-0.812 1.034,-1.051 1.671,-1.051 0.796,0 2.037,0.414 2.037,1.56 z m 1.814,-2.292 c 0,-0.445 0.096,-0.621 0.43,-0.621 0.111,0 0.254,0 0.445,0.032 v -1.257 c -0.27,-0.095 -0.843,-0.207 -1.145,-0.207 -0.733,0 -1.257,0.255 -1.401,1.003 -0.716,-0.701 -1.878,-1.003 -2.849,-1.003 -1.48,0 -2.816,0.796 -2.816,2.403 0,2.053 1.639,2.387 3.166,2.563 1.306,0.238 2.467,0.095 2.467,1.161 0,0.939 -0.97,1.115 -1.702,1.115 -1.019,0 -1.735,-0.415 -1.815,-1.306 H -5.22 c 0.127,2.117 1.926,2.738 3.74,2.738 1.607,0 3.294,-0.653 3.294,-2.388 v -4.233"
         style="fill:#100f0d;fill-opacity:1;fill-rule:nonzero;stroke:none"
         transform="matrix(1.3333333,0,0,-1.3333333,127.028,52.077333)" />
      <path
         id="path6"
         d="m 0,0 h 1.719 v -1.146 h 0.048 c 0.541,0.812 1.225,1.369 2.53,1.369 1.003,0 1.942,-0.43 2.308,-1.369 0.605,0.844 1.385,1.369 2.578,1.369 1.735,0 2.753,-0.764 2.753,-2.769 v -5.682 h -1.814 v 4.806 c 0,1.305 -0.08,2.213 -1.496,2.213 -1.225,0 -1.751,-0.812 -1.751,-2.197 V -8.228 H 5.061 v 5.284 c 0,1.13 -0.35,1.735 -1.448,1.735 -0.939,0 -1.799,-0.765 -1.799,-2.133 V -8.228 L 0,-8.228 V 0"
         style="fill:#100f0d;fill-opacity:1;fill-rule:nonzero;stroke:none"
         transform="matrix(1.3333333,0,0,-1.3333333,132.05867,46.602667)" />
      <path
         id="path7"
         d="m 0,0 c -0.557,-0.366 -1.432,-0.35 -2.228,-0.494 -0.78,-0.127 -1.48,-0.413 -1.48,-1.368 0,-0.812 1.034,-1.051 1.671,-1.051 0.796,0 2.037,0.414 2.037,1.56 z m 1.814,-2.292 c 0,-0.445 0.095,-0.621 0.43,-0.621 0.111,0 0.254,0 0.445,0.032 v -1.257 c -0.27,-0.095 -0.843,-0.207 -1.145,-0.207 -0.733,0 -1.258,0.255 -1.401,1.003 -0.716,-0.701 -1.878,-1.003 -2.849,-1.003 -1.48,0 -2.817,0.796 -2.817,2.403 0,2.053 1.639,2.387 3.167,2.563 1.305,0.238 2.467,0.095 2.467,1.161 0,0.939 -0.971,1.115 -1.703,1.115 -1.018,0 -1.734,-0.415 -1.814,-1.306 H -5.22 c 0.127,2.117 1.925,2.738 3.74,2.738 1.607,0 3.294,-0.653 3.294,-2.388 v -4.233"
         style="fill:#100f0d;fill-opacity:1;fill-rule:nonzero;stroke:none"
         transform="matrix(1.3333333,0,0,-1.3333333,157.29333,52.077333)" />
      <path
         id="path8"
         d="M 0,0 H 1.814 V -8.228 H 0 Z M 0,3.135 H 1.814 V 1.4162 H 0 Z"
         style="fill:#100f0d;fill-opacity:1;fill-rule:nonzero;stroke:none"
         transform="matrix(1.3333333,0,0,-1.3333333,162.388,46.602667)" />
      <path
         id="path9"
         d="m 0,0 c -0.143,1.003 -0.876,1.544 -1.878,1.544 -0.939,0 -2.26,-0.494 -2.26,-2.992 0,-1.369 0.605,-2.817 2.18,-2.817 1.051,0 1.783,0.7 1.958,1.878 h 1.814 c -0.334,-2.133 -1.655,-3.31 -3.772,-3.31 -2.578,0 -3.994,1.83 -3.994,4.249 0,2.483 1.352,4.424 4.058,4.424 C 0.015,2.976 1.639,2.021 1.814,0 H 0"
         style="fill:#100f0d;fill-opacity:1;fill-rule:nonzero;stroke:none"
         transform="matrix(1.3333333,0,0,-1.3333333,174.84533,50.273333)" />
      <path
         id="path10"
         d="m 0,0 c -0.557,-0.366 -1.432,-0.35 -2.228,-0.494 -0.779,-0.127 -1.48,-0.413 -1.48,-1.368 0,-0.812 1.035,-1.051 1.671,-1.051 0.796,0 2.037,0.414 2.037,1.56 z m 1.815,-2.292 c 0,-0.445 0.095,-0.621 0.43,-0.621 0.111,0 0.254,0 0.445,0.032 V -4.138 C 2.419,-4.233 1.847,-4.345 1.544,-4.345 c -0.732,0 -1.257,0.255 -1.401,1.003 -0.715,-0.701 -1.878,-1.003 -2.848,-1.003 -1.48,0 -2.817,0.796 -2.817,2.403 0,2.053 1.639,2.387 3.167,2.563 1.305,0.238 2.467,0.095 2.467,1.161 0,0.939 -0.971,1.115 -1.703,1.115 -1.019,0 -1.735,-0.415 -1.814,-1.306 H -5.22 c 0.128,2.117 1.926,2.738 3.74,2.738 1.608,0 3.295,-0.653 3.295,-2.388 v -4.233"
         style="fill:#100f0d;fill-opacity:1;fill-rule:nonzero;stroke:none"
         transform="matrix(1.3333333,0,0,-1.3333333,186.008,52.077333)" />
      <path
         id="path11"
         d="m 0,0 h 3.262 c 1.257,0 1.942,0.621 1.942,1.814 0,1.449 -0.939,1.735 -1.974,1.735 l -3.23,0 z m -1.99,5.172 h 5.427 c 2.484,0 3.756,-1.146 3.756,-3.071 0,-2.181 -1.512,-2.738 -1.878,-2.865 V -0.796 C 6,-0.891 7.003,-1.4 7.003,-3.199 c 0,-1.321 0.19,-2.53 0.62,-2.992 H 5.491 c -0.303,0.493 -0.303,1.114 -0.303,1.671 0,2.085 -0.429,3.008 -2.26,3.008 H 0 V -6.191 H -1.99 V 5.172"
         style="fill:#100f0d;fill-opacity:1;fill-rule:nonzero;stroke:none"
         transform="matrix(1.3333333,0,0,-1.3333333,199.932,49.318667)" />
      <path
         id="path12"
         d="M 0,0 C -0.063,1.146 -0.844,2.181 -2.068,2.181 -3.326,2.181 -4.185,1.226 -4.233,0 Z m -4.233,-1.193 c 0,-1.289 0.7,-2.435 2.213,-2.435 1.049,0 1.686,0.461 2.004,1.368 h 1.719 c -0.397,-1.798 -1.926,-2.801 -3.723,-2.801 -2.58,0 -4.028,1.799 -4.028,4.329 0,2.339 1.529,4.345 3.98,4.345 2.593,0 4.185,-2.34 3.883,-4.806 h -6.048"
         style="fill:#100f0d;fill-opacity:1;fill-rule:nonzero;stroke:none"
         transform="matrix(1.3333333,0,0,-1.3333333,219.41467,51.122667)" />
      <path
         id="path13"
         d="m 0,0 c 1.623,0 2.307,1.48 2.307,2.913 0,1.814 -0.876,2.896 -2.276,2.896 -1.702,0 -2.308,-1.512 -2.308,-2.992 C -2.277,1.4 -1.577,0 0,0 Z M 4.057,-1.21 H 2.338 v 1.115 H 2.307 C 1.83,-1.035 0.796,-1.432 -0.24,-1.432 c -2.593,0 -3.851,1.926 -3.851,4.392 0,2.976 1.766,4.281 3.565,4.281 1.034,0 2.181,-0.382 2.738,-1.289 h 0.032 v 4.202 H 4.057 V -1.21"
         style="fill:#100f0d;fill-opacity:1;fill-rule:nonzero;stroke:none"
         transform="matrix(1.3333333,0,0,-1.3333333,228.60533,55.96)" />
      <path
         id="path14"
         d="m 0,0 c -0.335,1.305 -1.177,2.26 -2.833,2.26 -2.435,0 -3.454,-2.149 -3.454,-4.329 0,-2.18 1.019,-4.329 3.454,-4.329 1.767,0 2.738,1.321 2.897,2.977 h 1.941 c -0.159,-2.722 -2.085,-4.6 -4.838,-4.6 -3.406,0 -5.443,2.706 -5.443,5.952 0,3.247 2.037,5.952 5.443,5.952 C -0.27,3.867 1.75,2.451 1.99,0 H 0"
         style="fill:#100f0d;fill-opacity:1;fill-rule:nonzero;stroke:none"
         transform="matrix(1.3333333,0,0,-1.3333333,253.11733,47.238667)" />
      <path
         id="path15"
         d="m 0,0 h 1.703 v -1.591 h 0.031 c 0.207,0.875 1.289,1.814 2.403,1.814 0.415,0 0.526,-0.032 0.685,-0.048 v -1.751 c -0.255,0.032 -0.525,0.08 -0.78,0.08 -1.241,0 -2.228,-1.003 -2.228,-2.817 V -8.228 H 0 V 0"
         style="fill:#100f0d;fill-opacity:1;fill-rule:nonzero;stroke:none"
         transform="matrix(1.3333333,0,0,-1.3333333,257.87333,46.602667)" />
      <path
         id="path16"
         d="m 0,0 c 0,1.417 -0.717,2.897 -2.34,2.897 -1.623,0 -2.339,-1.48 -2.339,-2.897 0,-1.433 0.716,-2.913 2.339,-2.913 1.623,0 2.34,1.48 2.34,2.913 z m -6.494,0 c 0,2.515 1.512,4.329 4.154,4.329 2.641,0 4.154,-1.814 4.154,-4.329 0,-2.531 -1.513,-4.345 -4.154,-4.345 -2.642,0 -4.154,1.814 -4.154,4.345"
         style="fill:#100f0d;fill-opacity:1;fill-rule:nonzero;stroke:none"
         transform="matrix(1.3333333,0,0,-1.3333333,273.11067,52.077333)" />
      <path
         id="path17"
         d="m 0,0 c 0.096,-1.051 0.891,-1.433 1.862,-1.433 0.685,0 1.878,0.143 1.83,1.083 -0.048,0.954 -1.368,1.066 -2.689,1.369 -1.337,0.286 -2.642,0.763 -2.642,2.434 0,1.798 1.942,2.356 3.438,2.356 1.686,0 3.214,-0.701 3.437,-2.531 H 3.343 C 3.183,4.138 2.467,4.376 1.672,4.376 1.146,4.376 0.176,4.249 0.176,3.533 0.176,2.642 1.513,2.514 2.848,2.212 4.17,1.91 5.507,1.432 5.507,-0.191 c 0,-1.958 -1.974,-2.674 -3.677,-2.674 -2.068,0 -3.612,0.923 -3.645,2.865 L 0,0"
         style="fill:#100f0d;fill-opacity:1;fill-rule:nonzero;stroke:none"
         transform="matrix(1.3333333,0,0,-1.3333333,279.372,54.050667)" />
      <path
         id="path18"
         d="m 0,0 c 0.095,-1.051 0.891,-1.433 1.862,-1.433 0.684,0 1.878,0.143 1.83,1.083 -0.048,0.954 -1.368,1.066 -2.69,1.369 -1.336,0.286 -2.641,0.763 -2.641,2.434 0,1.798 1.941,2.356 3.437,2.356 1.687,0 3.215,-0.701 3.438,-2.531 H 3.342 C 3.183,4.138 2.466,4.376 1.671,4.376 1.146,4.376 0.175,4.249 0.175,3.533 0.175,2.642 1.512,2.514 2.848,2.212 4.169,1.91 5.506,1.432 5.506,-0.191 c 0,-1.958 -1.973,-2.674 -3.676,-2.674 -2.069,0 -3.613,0.923 -3.644,2.865 L 0,0"
         style="fill:#100f0d;fill-opacity:1;fill-rule:nonzero;stroke:none"
         transform="matrix(1.3333333,0,0,-1.3333333,290.38667,54.050667)" />
    </g>
  </g>
</svg>
