<?xml version="1.0" encoding="UTF-8" standalone="no"?>
<svg
   xmlns:dc="http://purl.org/dc/elements/1.1/"
   xmlns:cc="http://creativecommons.org/ns#"
   xmlns:rdf="http://www.w3.org/1999/02/22-rdf-syntax-ns#"
   xmlns:svg="http://www.w3.org/2000/svg"
   xmlns="http://www.w3.org/2000/svg"
   viewBox="0 0 406.49332 306.94666"
   height="306.94666"
   width="406.49332"
   xml:space="preserve"
   id="svg2"
   version="1.1"><metadata
     id="metadata8"><rdf:RDF><cc:Work
         rdf:about=""><dc:format>image/svg+xml</dc:format><dc:type
           rdf:resource="http://purl.org/dc/dcmitype/StillImage" /><dc:title></dc:title></cc:Work></rdf:RDF></metadata><defs
     id="defs6" /><g
     transform="matrix(1.3333333,0,0,-1.3333333,0,306.94667)"
     id="g10"><g
       transform="scale(0.1)"
       id="g12"><path
         id="path14"
         style="fill:#ed1c24;fill-opacity:1;fill-rule:nonzero;stroke:none"
         d="m 1899.49,1458.16 h -254.57 v 254.57 h -254.57 v -254.57 h -254.58 v -254.57 h 254.58 V 949.02 h 254.57 v 254.57 h 254.57 v 254.57" /><path
         id="path16"
         style="fill:#ed1c24;fill-opacity:1;fill-rule:nonzero;stroke:none"
         d="m 371.531,576.359 39.762,-14.3 c 16.184,-5.829 26.437,-4.911 29.961,4.89 3.379,9.371 -3.934,16.61 -20.117,22.442 l -39.758,14.3 z m -20.472,56.973 89,-32.023 c 29.589,-10.637 43.957,-29.477 38.668,-44.161 -4.118,-11.418 -15.059,-17.16 -34.887,-14.937 l -0.102,-0.27 c 16.821,-9.121 18.235,-21.14 15.864,-31.351 -1.512,-6.371 -5.856,-17.699 -1.344,-25.481 l -36.293,13.063 c -2.192,7.699 1.652,16.91 2.598,25.328 1.125,11.109 -3.958,18.012 -22.223,24.582 l -36.293,13.059 -13.664,-37.942 -36.293,13.051 34.969,97.082" /><path
         id="path18"
         style="fill:#ed1c24;fill-opacity:1;fill-rule:nonzero;stroke:none"
         d="m 512.07,576.422 125.645,-37.883 -5.496,-18.269 -88.703,26.75 -6.375,-21.18 81.41,-24.551 -5.082,-16.879 -81.414,24.551 -7.285,-24.223 90.585,-27.316 -5.496,-18.274 -127.531,38.461 29.742,98.813" /><path
         id="path20"
         style="fill:#ed1c24;fill-opacity:1;fill-rule:nonzero;stroke:none"
         d="m 756.105,489.352 -51.269,11.687 4.25,18.609 140.144,-31.957 -4.25,-18.601 -51.265,11.691 -18.738,-82.062 -37.614,8.57 18.742,82.063" /><path
         id="path22"
         style="fill:#ed1c24;fill-opacity:1;fill-rule:nonzero;stroke:none"
         d="m 862.773,484.879 37.993,-6.66 -6.856,-39.008 69.942,-12.262 6.855,39.012 37.993,-6.66 -17.864,-101.653 -37.992,6.661 7.703,43.851 -69.938,12.25 -7.711,-43.84 -37.992,6.66 17.867,101.649" /><path
         id="path24"
         style="fill:#ed1c24;fill-opacity:1;fill-rule:nonzero;stroke:none"
         d="m 1175.75,373.852 c -3.33,-27.711 -32.77,-37.872 -79.37,-32.27 -46.84,5.617 -72.57,22.25 -69.22,50.109 l 7.65,63.75 38.31,-4.601 -7.66,-63.75 c -1.34,-11.199 2.21,-22.84 33.2,-26.559 27.33,-3.281 36.96,2.699 38.78,17.918 l 7.66,63.75 38.3,-4.597 -7.65,-63.75" /><path
         id="path26"
         style="fill:#ed1c24;fill-opacity:1;fill-rule:nonzero;stroke:none"
         d="m 1231.83,364.77 c -0.95,-13.7 16.83,-20.282 37.43,-21.711 13.48,-0.93 34.24,-0.047 34.97,10.48 0.76,11.102 -25.35,14.793 -50.82,20.602 -25.71,5.839 -51.54,13.558 -50.21,32.89 1.44,21.051 35.98,28.801 67.61,26.617 36.53,-2.519 69.48,-14.207 67.85,-38.007 l -37.27,2.578 c -0.38,12.48 -15.12,16.691 -33.51,17.961 -12.26,0.851 -26.69,-1.2 -27.28,-9.86 -0.55,-7.929 7.72,-9.511 51.15,-19.179 12.63,-2.75 51.53,-10.219 49.92,-33.582 -1.29,-18.887 -27.52,-31.27 -75.09,-27.989 -38.74,2.68 -74.26,16.442 -72.02,41.782 l 37.27,-2.582" /><path
         id="path28"
         style="fill:#ed1c24;fill-opacity:1;fill-rule:nonzero;stroke:none"
         d="m 1406.27,361.18 45.45,-0.969 -21.3,38.328 -0.5,0.012 z m 5.03,63.211 39.55,-0.84 63.41,-104.563 -40.04,0.852 -12.78,23.25 -65.6,1.39 -14.23,-22.691 -39.07,0.832 68.76,101.77" /><path
         id="path30"
         style="fill:#ed1c24;fill-opacity:1;fill-rule:nonzero;stroke:none"
         d="m 1621.79,356.289 c 0.64,-13.707 19.05,-18.199 39.68,-17.238 13.51,0.629 34.01,3.898 33.53,14.437 -0.52,11.114 -26.88,11.774 -52.85,14.614 -26.21,2.82 -52.75,7.519 -53.65,26.867 -0.99,21.07 32.43,32.75 64.1,34.222 36.58,1.707 70.66,-6.101 71.76,-29.921 l -37.31,-1.739 c -1.81,12.36 -16.94,14.84 -35.35,13.981 -12.27,-0.582 -26.37,-4.274 -25.97,-12.934 0.37,-7.937 8.77,-8.566 53.02,-13.156 12.86,-1.281 52.36,-4.203 53.44,-27.59 0.88,-18.91 -23.75,-34.242 -71.37,-36.461 -38.79,-1.812 -75.66,7.758 -76.35,33.188 l 37.32,1.73" /><path
         id="path32"
         style="fill:#ed1c24;fill-opacity:1;fill-rule:nonzero;stroke:none"
         d="m 1745.58,431.738 130.69,12.231 1.77,-18.989 -92.26,-8.64 2.05,-22.008 84.68,7.918 1.65,-17.559 -84.69,-7.921 2.35,-25.168 94.23,8.796 1.77,-18.988 -132.66,-12.398 -9.58,102.726" /><path
         id="path34"
         style="fill:#ed1c24;fill-opacity:1;fill-rule:nonzero;stroke:none"
         d="m 2018.53,428.922 c -3.91,9.808 -21.57,15.148 -40.54,12.387 -34.29,-4.969 -44.69,-24.008 -42.11,-41.899 2.47,-17.031 17.86,-32.34 52.15,-27.359 23.35,3.371 35.12,14.719 36.09,28.597 l 36.97,5.364 c -0.21,-26.043 -27.76,-46.692 -70.31,-52.864 -53.76,-7.789 -88.8,11.243 -93.08,40.723 -4.39,30.348 23.8,58.551 77.55,66.34 38.18,5.527 72.21,-2.992 80.24,-25.93 l -36.96,-5.359" /><path
         id="path36"
         style="fill:#ed1c24;fill-opacity:1;fill-rule:nonzero;stroke:none"
         d="m 2071.23,472.41 37.83,7.641 7.81,-38.84 69.63,14.07 -7.81,38.84 37.82,7.641 20.38,-101.223 -37.83,-7.641 -8.79,43.672 -69.63,-14.082 8.79,-43.656 -37.83,-7.633 -20.37,101.211" /><path
         id="path38"
         style="fill:#ed1c24;fill-opacity:1;fill-rule:nonzero;stroke:none"
         d="m 2301.45,457.621 44.04,11.348 -30.9,31.133 -0.47,-0.122 z m -12.27,62.207 38.32,9.871 89.39,-83.519 -38.81,-10 -18.6,18.929 -63.56,-16.379 -7.58,-25.679 -37.85,-9.75 38.69,116.527" /><path
         id="path40"
         style="fill:#ed1c24;fill-opacity:1;fill-rule:nonzero;stroke:none"
         d="m 2461.8,478.93 39.38,12.41 c 14.53,4.582 26.32,11.332 23.09,21.539 -3.17,10.062 -15.21,10.672 -30.92,5.723 l -40.07,-12.633 z m -13.18,41.8 37.26,11.75 c 12.89,4.059 21.42,10.532 18.81,18.801 -2.96,9.391 -15.75,7.469 -28.87,3.34 l -34.46,-10.859 z M 2399.25,549 2478,573.809 c 31.88,10.05 55.35,10.773 61.15,-7.579 3.03,-9.648 -3.03,-18.992 -16.26,-27.71 21.48,2.98 34.7,-3.02 38.57,-15.29 6.31,-20 -19.82,-37.64 -50.06,-47.171 L 2430.31,450.512 2399.25,549" /><path
         id="path42"
         style="fill:#ed1c24;fill-opacity:1;fill-rule:nonzero;stroke:none"
         d="m 2621.39,556 42.57,15.98 -34.02,27.692 -0.46,-0.172 z m -18.81,60.582 37.05,13.898 97.72,-73.57 -37.5,-14.078 -20.51,16.848 -61.43,-23.051 -4.81,-26.359 -36.59,-13.731 26.07,120.043" /><path
         id="path44"
         style="fill:#231f20;fill-opacity:1;fill-rule:nonzero;stroke:none"
         d="m 1099.14,864.551 18.01,-2.852 -15.77,-100.219 71.7,-11.3 -1.99,-12.649 -89.71,14.141 17.76,112.879" /><path
         id="path46"
         style="fill:#231f20;fill-opacity:1;fill-rule:nonzero;stroke:none"
         d="m 1202.67,848.73 94.11,-10.308 -1.39,-12.723 -75.98,8.321 -3.95,-36.098 70.82,-7.75 -1.39,-12.723 -70.82,7.762 -4.29,-39.281 76.54,-8.379 -1.39,-12.723 -94.68,10.371 12.42,113.531" /><path
         id="path48"
         style="fill:#231f20;fill-opacity:1;fill-rule:nonzero;stroke:none"
         d="m 1393.99,798.852 c -1.14,16.418 -13.76,24.218 -32.54,25.32 -15.33,0.898 -30.94,-2.832 -31.82,-17.684 -0.83,-14.058 20.89,-17.418 42.69,-22.867 21.6,-5.449 43.07,-13.133 41.75,-35.492 -1.44,-24.289 -30.57,-32.34 -55.49,-30.879 -30.66,1.809 -55.8,15.789 -54.15,43.59 l 17.24,-1.012 c -1.13,-19.18 17.54,-28.609 38.24,-29.84 16.48,-0.957 34.94,2.282 35.92,18.742 0.93,15.649 -20.76,19.649 -42.37,24.942 -21.61,5.269 -43.34,11.84 -42.1,32.769 1.37,23.161 26.7,31.93 51.61,30.469 27.98,-1.648 48.6,-13.93 48.27,-39.07 l -17.25,1.012" /><path
         id="path50"
         style="fill:#231f20;fill-opacity:1;fill-rule:nonzero;stroke:none"
         d="m 1495.76,725.82 c 33.4,-0.129 47.51,23.821 47.59,46.871 0.09,23.059 -13.83,47.118 -47.23,47.258 -33.4,0.121 -47.51,-23.828 -47.59,-46.879 -0.09,-23.05 13.83,-47.109 47.23,-47.25 z m 0.41,106.93 c 43.57,-0.18 65.53,-29.07 65.42,-60.129 -0.12,-31.051 -22.31,-59.769 -65.88,-59.601 -43.57,0.171 -65.54,29.07 -65.42,60.121 0.12,31.05 22.3,59.781 65.88,59.609" /><path
         id="path52"
         style="fill:#231f20;fill-opacity:1;fill-rule:nonzero;stroke:none"
         d="m 1612.8,819.531 -45.66,-2.222 -0.62,12.781 109.52,5.308 0.63,-12.777 -45.66,-2.223 4.94,-101.277 -18.22,-0.883 -4.93,101.293" /><path
         id="path54"
         style="fill:#231f20;fill-opacity:1;fill-rule:nonzero;stroke:none"
         d="m 1688.69,836.371 18.15,1.828 4.92,-48.867 71.83,7.238 -4.92,48.852 18.15,1.828 11.44,-113.629 -18.15,-1.832 -5.24,52.043 -71.83,-7.223 5.24,-52.05 -18.15,-1.821 -11.44,113.633" /><path
         id="path56"
         style="fill:#231f20;fill-opacity:1;fill-rule:nonzero;stroke:none"
         d="m 1897.48,757.031 c 32.97,5.309 42.98,31.231 39.31,53.969 -3.67,22.73 -21.33,44.199 -54.29,38.891 -32.98,-5.309 -42.99,-31.219 -39.33,-53.969 3.67,-22.742 21.33,-44.203 54.31,-38.891 z m -17.03,105.489 c 43.02,6.941 69.41,-17.981 74.35,-48.622 4.94,-30.636 -12.27,-62.578 -55.28,-69.5 -43.02,-6.929 -69.41,17.993 -74.35,48.622 -4.94,30.64 12.27,62.582 55.28,69.5" /><path
         id="path58"
         style="fill:#231f20;fill-opacity:1;fill-rule:nonzero;stroke:none"
         d="m 1156.6,664.691 c 0.4,14.399 -9.92,22.258 -26.18,24.84 -13.26,2.098 -27.16,0.18 -29.19,-12.672 -1.92,-12.168 16.7,-16.949 35.21,-23.558 18.34,-6.602 36.37,-15.121 33.32,-34.469 -3.31,-21.012 -29.36,-25.531 -50.92,-22.133 -26.54,4.199 -47.23,18.531 -43.43,42.582 l 14.92,-2.359 c -2.62,-16.582 12.83,-26.402 30.75,-29.231 14.26,-2.269 30.61,-1.031 32.86,13.207 2.13,13.563 -16.4,18.903 -34.77,25.34 -18.36,6.453 -36.71,14.043 -33.85,32.141 3.16,20.051 25.95,25.512 47.52,22.101 24.21,-3.839 41.12,-16.289 38.69,-38.152 l -14.93,2.363" /><path
         id="path60"
         style="fill:#231f20;fill-opacity:1;fill-rule:nonzero;stroke:none"
         d="m 1197.57,688.719 15.83,-2 -12.53,-99.149 -15.83,2 12.53,99.149" /><path
         id="path62"
         style="fill:#231f20;fill-opacity:1;fill-rule:nonzero;stroke:none"
         d="m 1235.88,683.68 16.89,-1.578 55.37,-86.602 0.34,-0.031 7.51,80.761 15.05,-1.41 -9.26,-99.582 -17.39,1.621 -54.95,85.723 -0.33,0.027 -7.44,-79.91 -15.05,1.403 9.26,99.578" /><path
         id="path64"
         style="fill:#231f20;fill-opacity:1;fill-rule:nonzero;stroke:none"
         d="m 1433.8,639.66 c -2.74,14.281 -16.03,22.02 -32.64,22.77 -28.54,1.269 -41.48,-17.789 -42.39,-38.641 -0.99,-22.801 10.27,-42.367 38.97,-43.648 20.98,-0.942 33.6,10.839 35.83,27.289 l 15.95,-0.719 c -4.11,-24.77 -23.4,-39.051 -53.61,-37.699 -37.27,1.66 -54.39,25.41 -53.12,54.519 1.26,28.949 22.1,51.731 59.03,50.078 25,-1.121 45.16,-13.218 47.93,-34.66 l -15.95,0.711" /><path
         id="path66"
         style="fill:#231f20;fill-opacity:1;fill-rule:nonzero;stroke:none"
         d="m 1466.92,668.801 82.82,0.379 0.05,-11.192 -66.86,-0.297 0.14,-31.769 62.33,0.289 0.04,-11.199 -62.32,-0.282 0.15,-34.558 67.37,0.297 0.05,-11.188 -83.33,-0.383 -0.44,99.903" /><path
         id="path68"
         style="fill:#231f20;fill-opacity:1;fill-rule:nonzero;stroke:none"
         d="m 1661.99,573.93 -14.25,-0.809 -4.11,71.008 -30.86,-1.777 -0.55,9.507 c 16.27,0.93 30.81,5.411 33.14,20.551 l 10.89,0.621 5.74,-99.101" /><path
         id="path70"
         style="fill:#231f20;fill-opacity:1;fill-rule:nonzero;stroke:none"
         d="m 1730.5,668.332 c -16.89,-1.602 -22.17,-13.492 -21.01,-25.613 1.03,-10.86 11.69,-19.969 25.4,-18.668 14.89,1.41 23.3,12.328 22.18,24.031 -1.16,12.117 -10.68,21.758 -26.57,20.25 z m -15.43,-66.551 c 1.93,-9.511 11.81,-14.062 23.18,-12.98 17.39,1.648 24.71,15.14 23.12,40.719 l -0.36,0.242 c -4.56,-8.871 -14.59,-15.172 -26.12,-16.262 -24.08,-2.281 -38.75,9.961 -40.62,29.461 -1.81,19.098 12.99,33.711 35.91,35.879 22.07,2.101 41.57,-6.031 45.14,-43.371 3.25,-34.129 -7.31,-54.391 -36.08,-57.117 -19.9,-1.891 -34.92,5.269 -38.38,22.078 l 14.21,1.351" /><path
         id="path72"
         style="fill:#231f20;fill-opacity:1;fill-rule:nonzero;stroke:none"
         d="m 1806.01,618.309 c 1.62,-12.2 11.91,-20.707 27.38,-18.637 15.33,2.047 22.46,13.308 20.91,24.957 -1.62,12.211 -10.62,21.312 -26.78,19.152 -15.81,-2.121 -23.16,-13.121 -21.51,-25.472 z m 40.11,48.722 c -2.51,8.688 -10.62,13.539 -21.77,12.051 -24.14,-3.242 -25.01,-25.941 -23.66,-41.152 l 0.37,-0.231 c 5.46,9.903 14.92,15.133 27.74,16.852 22.64,3.019 37.95,-8.91 40.37,-27.071 1.91,-14.289 -5.26,-34.308 -35.05,-38.3 -34.96,-4.668 -44.17,21.199 -46.92,41.871 -3.6,27.039 2.8,54.008 36.44,58.508 19.47,2.613 32.84,-4.918 36.63,-20.637 l -14.15,-1.891" /><path
         id="path74"
         style="fill:#231f20;fill-opacity:1;fill-rule:nonzero;stroke:none"
         d="m 1949.07,697.531 c -20.3,-23.66 -33.31,-62.84 -30.18,-93.832 l -15.73,-2.711 c -3.06,33.571 10.76,67.051 31.67,93.102 l -61.58,-10.621 -1.91,11.043 75.99,13.09 1.74,-10.071" /><path
         id="path76"
         style="fill:#231f20;fill-opacity:1;fill-rule:nonzero;stroke:none"
         d="m 1502.49,526.09 c -378.57,0 -741.576,70.75 -1079.349,210.34 l 250.347,300.44 C 933.797,927.352 1213.97,871.789 1506.25,871.789 c 301.99,0 590.52,59.109 857.6,175.691 L 2612.29,749.23 C 2266.19,601.148 1892.92,526.09 1502.49,526.09 Z M 1324.21,1817.8 h 397.94 l 621.62,-746.23 C 2082.76,958.961 1801.05,901.789 1506.25,901.789 c -285.09,0 -558.398,53.652 -812.613,159.261 z M 2648.18,753.02 1740.71,1842.4 c -2.85,3.42 -7.07,5.4 -11.53,5.4 h -411.99 c -4.46,0 -8.67,-1.98 -11.53,-5.4 L 387.086,740.02 c -3.043,-3.649 -4.176,-8.52 -3.055,-13.141 1.125,-4.617 4.367,-8.43 8.746,-10.27 C 739.543,570.281 1112.9,496.09 1502.49,496.09 c 401.49,0 785.1,78.59 1140.17,233.582 4.32,1.898 7.5,5.707 8.59,10.297 1.09,4.59 -0.05,9.429 -3.07,13.051" /><path
         id="path78"
         style="fill:#ffffff;fill-opacity:1;fill-rule:nonzero;stroke:none"
         d="m 1391.83,1847.8 c 60.48,0 109.7,45.77 109.7,102.04 0,56.26 -49.22,102.04 -109.7,102.04 -60.49,0 -109.71,-45.78 -109.71,-102.04 0,-56.27 49.22,-102.04 109.71,-102.04" /><path
         id="path80"
         style="fill:#ffffff;fill-opacity:1;fill-rule:nonzero;stroke:none"
         d="m 1643.44,2051.88 c -60.49,0 -109.7,-45.78 -109.7,-102.04 0,-56.27 49.21,-102.04 109.7,-102.04 60.49,0 109.7,45.77 109.7,102.04 0,56.26 -49.21,102.04 -109.7,102.04" /><path
         id="path82"
         style="fill:#231f20;fill-opacity:1;fill-rule:nonzero;stroke:none"
         d="m 1517.63,2272.06 c 65.69,0 119.12,-49.19 119.12,-109.66 0,-60.46 -53.43,-109.65 -119.12,-109.65 -65.68,0 -119.12,49.19 -119.12,109.65 0,60.47 53.44,109.66 119.12,109.66 z m -125.8,-220.18 c 60.48,0 109.7,-45.78 109.7,-102.04 0,-56.27 -49.22,-102.04 -109.7,-102.04 -60.49,0 -109.71,45.77 -109.71,102.04 0,56.26 49.22,102.04 109.71,102.04 z m 251.61,-204.08 c -60.49,0 -109.7,45.77 -109.7,102.04 0,56.26 49.21,102.04 109.7,102.04 60.49,0 109.7,-45.78 109.7,-102.04 0,-56.27 -49.21,-102.04 -109.7,-102.04 z m 0,234.08 c -1.47,0 -2.89,-0.17 -4.35,-0.21 17.35,22.82 27.66,50.64 27.66,80.73 0,77.01 -66.89,139.66 -149.12,139.66 -82.22,0 -149.12,-62.65 -149.12,-139.66 0,-30.09 10.32,-57.91 27.66,-80.73 -1.45,0.04 -2.88,0.21 -4.34,0.21 -77.04,0 -139.71,-59.24 -139.71,-132.04 0,-71.82 61.01,-130.31 136.6,-131.89 v -0.15 h 251.83 v 0.14 c 0.97,-0.02 1.92,-0.14 2.89,-0.14 77.03,0 139.7,59.23 139.7,132.04 0,72.8 -62.67,132.04 -139.7,132.04" /><path
         id="path84"
         style="fill:#ffffff;fill-opacity:1;fill-rule:nonzero;stroke:none"
         d="m 1517.63,2052.75 c 65.69,0 119.12,49.19 119.12,109.65 0,60.47 -53.43,109.66 -119.12,109.66 -65.68,0 -119.12,-49.19 -119.12,-109.66 0,-60.46 53.44,-109.65 119.12,-109.65" /><path
         id="path86"
         style="fill:#231f20;fill-opacity:1;fill-rule:nonzero;stroke:none"
         d="M 0,142.781 H 30.6641 V 29.1094 H 98.6328 V 3.32031 L 0,3.32031 V 142.781" /><path
         id="path88"
         style="fill:#231f20;fill-opacity:1;fill-rule:nonzero;stroke:none"
         d="M 115.805,142.781 H 220.102 V 117 H 146.469 V 87.1094 h 67.578 V 63.2891 H 146.469 V 29.1094 h 75.195 V 3.32031 H 115.805 V 142.781" /><path
         id="path90"
         style="fill:#231f20;fill-opacity:1;fill-rule:nonzero;stroke:none"
         d="m 263.258,49.6094 c 0,-18.5508 14.453,-25.7774 30.859,-25.7774 10.742,0 27.149,3.1289 27.149,17.3868 0,15.0312 -20.899,17.5703 -41.407,23.0429 -20.703,5.4688 -41.601,13.4766 -41.601,39.6483 0,28.52 26.953,42.192 52.148,42.192 29.102,0 55.86,-12.704 55.86,-44.922 h -29.688 c -0.976,16.789 -12.89,21.09 -27.539,21.09 -9.766,0 -21.094,-4.098 -21.094,-15.821 0,-10.7381 6.641,-12.1092 41.602,-21.0896 10.156,-2.5391 41.406,-8.9883 41.406,-40.6289 C 350.953,19.1406 330.836,0 292.945,0 262.086,0 233.18,15.2383 233.57,49.6094 h 29.688" /><path
         id="path92"
         style="fill:#231f20;fill-opacity:1;fill-rule:nonzero;stroke:none"
         d="m 431.602,25.7891 c 27.539,0 37.89,23.4297 37.89,46.6797 0,24.4101 -10.351,47.8512 -37.89,47.8512 -27.539,0 -37.891,-23.4411 -37.891,-47.8512 0,-23.25 10.352,-46.6797 37.891,-46.6797 z m 0,120.3129 c 43.164,0 68.554,-32.231 68.554,-73.6332 C 500.156,32.2305 474.766,0 431.602,0 c -43.164,0 -68.555,32.2305 -68.555,72.4688 0,41.4022 25.391,73.6332 68.555,73.6332" /><path
         id="path94"
         style="fill:#231f20;fill-opacity:1;fill-rule:nonzero;stroke:none"
         d="m 551.902,117 h -41.797 v 25.781 H 624.363 V 117 H 582.566 V 3.32031 H 551.902 V 117" /><path
         id="path96"
         style="fill:#231f20;fill-opacity:1;fill-rule:nonzero;stroke:none"
         d="m 640.367,142.781 h 30.664 V 89.2617 h 56.446 v 53.5193 h 30.664 V 3.32031 H 727.477 V 63.4805 H 671.031 V 3.32031 H 640.367 V 142.781" /><path
         id="path98"
         style="fill:#231f20;fill-opacity:1;fill-rule:nonzero;stroke:none"
         d="m 847.582,25.7891 c 27.539,0 37.891,23.4297 37.891,46.6797 0,24.4101 -10.352,47.8512 -37.891,47.8512 -27.539,0 -37.891,-23.4411 -37.891,-47.8512 0,-23.25 10.352,-46.6797 37.891,-46.6797 z m 0,120.3129 c 43.164,0 68.555,-32.231 68.555,-73.6332 C 916.137,32.2305 890.746,0 847.582,0 c -43.164,0 -68.555,32.2305 -68.555,72.4688 0,41.4022 25.391,73.6332 68.555,73.6332" /><path
         id="path100"
         style="fill:#231f20;fill-opacity:1;fill-rule:nonzero;stroke:none"
         d="m 1021.98,79.6914 h 33.59 c 13.67,0 21.1,5.8594 21.1,19.918 0,13.4806 -7.43,19.3396 -21.1,19.3396 h -33.59 z m -30.667,63.0896 h 75.197 c 25,0 40.82,-17.39 40.82,-38.48 0,-16.4104 -6.64,-28.7112 -22.07,-34.9612 v -0.3906 c 15.04,-3.9101 19.33,-18.5586 20.31,-32.6172 0.59,-8.7929 0.39,-25.1914 5.86,-33.01169 h -30.66 c -3.71,8.78909 -3.32,22.26949 -4.89,33.39849 -2.14,14.6523 -7.81,21.1015 -23.24,21.1015 h -30.66 V 3.32031 H 991.313 V 142.781" /><path
         id="path102"
         style="fill:#231f20;fill-opacity:1;fill-rule:nonzero;stroke:none"
         d="m 1132.31,142.781 h 104.3 V 117 h -73.63 V 87.1094 h 67.58 V 63.2891 h -67.58 V 29.1094 h 75.19 V 3.32031 H 1132.31 V 142.781" /><path
         id="path104"
         style="fill:#231f20;fill-opacity:1;fill-rule:nonzero;stroke:none"
         d="m 1289.53,29.1094 h 27.35 c 17.77,0 34.76,10.9297 34.76,41.789 0,28.1329 -9.76,46.1016 -40.23,46.1016 h -21.88 z m -30.66,113.6716 h 60.15 c 36.14,0 63.28,-22.66 63.28,-68.949 0,-40.4336 -20.7,-70.51169 -63.28,-70.51169 h -60.15 V 142.781" /><path
         id="path106"
         style="fill:#231f20;fill-opacity:1;fill-rule:nonzero;stroke:none"
         d="m 1550.84,95.8984 c -1.95,13.8716 -15.23,24.4216 -30.46,24.4216 -27.54,0 -37.89,-23.4411 -37.89,-47.8512 0,-23.25 10.35,-46.6797 37.89,-46.6797 18.75,0 29.29,12.8906 31.64,31.25 h 29.68 C 1578.58,22.2695 1554.56,0 1520.38,0 c -43.17,0 -68.56,32.2305 -68.56,72.4688 0,41.4022 25.39,73.6332 68.56,73.6332 30.66,0 56.44,-17.973 60.15,-50.2036 h -29.69" /><path
         id="path108"
         style="fill:#231f20;fill-opacity:1;fill-rule:nonzero;stroke:none"
         d="m 1633.25,79.6914 h 33.59 c 13.67,0 21.09,5.8594 21.09,19.918 0,13.4806 -7.42,19.3396 -21.09,19.3396 h -33.59 z m -30.67,63.0896 h 75.2 c 25,0 40.82,-17.39 40.82,-38.48 0,-16.4104 -6.64,-28.7112 -22.07,-34.9612 v -0.3906 c 15.04,-3.9101 19.33,-18.5586 20.31,-32.6172 0.59,-8.7929 0.39,-25.1914 5.86,-33.01169 h -30.66 c -3.71,8.78909 -3.32,22.26949 -4.89,33.39849 -2.15,14.6523 -7.81,21.1015 -23.24,21.1015 h -30.66 V 3.32031 h -30.67 V 142.781" /><path
         id="path110"
         style="fill:#231f20;fill-opacity:1;fill-rule:nonzero;stroke:none"
         d="m 1806.09,25.7891 c 27.54,0 37.89,23.4297 37.89,46.6797 0,24.4101 -10.35,47.8512 -37.89,47.8512 -27.54,0 -37.89,-23.4411 -37.89,-47.8512 0,-23.25 10.35,-46.6797 37.89,-46.6797 z m 0,120.3129 c 43.16,0 68.55,-32.231 68.55,-73.6332 C 1874.64,32.2305 1849.25,0 1806.09,0 c -43.17,0 -68.56,32.2305 -68.56,72.4688 0,41.4022 25.39,73.6332 68.56,73.6332" /><path
         id="path112"
         style="fill:#231f20;fill-opacity:1;fill-rule:nonzero;stroke:none"
         d="m 1916.43,49.6094 c 0,-18.5508 14.45,-25.7774 30.86,-25.7774 10.74,0 27.15,3.1289 27.15,17.3868 0,15.0312 -20.9,17.5703 -41.41,23.0429 -20.7,5.4688 -41.6,13.4766 -41.6,39.6483 0,28.52 26.95,42.192 52.15,42.192 29.1,0 55.86,-12.704 55.86,-44.922 h -29.69 c -0.98,16.789 -12.89,21.09 -27.54,21.09 -9.76,0 -21.09,-4.098 -21.09,-15.821 0,-10.7381 6.64,-12.1092 41.6,-21.0896 10.16,-2.5391 41.41,-8.9883 41.41,-40.6289 C 2004.13,19.1406 1984.01,0 1946.12,0 c -30.86,0 -59.77,15.2383 -59.38,49.6094 h 29.69" /><path
         id="path114"
         style="fill:#231f20;fill-opacity:1;fill-rule:nonzero;stroke:none"
         d="m 2043.17,49.6094 c 0,-18.5508 14.45,-25.7774 30.86,-25.7774 10.74,0 27.15,3.1289 27.15,17.3868 0,15.0312 -20.9,17.5703 -41.41,23.0429 -20.7,5.4688 -41.6,13.4766 -41.6,39.6483 0,28.52 26.95,42.192 52.15,42.192 29.1,0 55.86,-12.704 55.86,-44.922 h -29.69 c -0.98,16.789 -12.89,21.09 -27.54,21.09 -9.77,0 -21.09,-4.098 -21.09,-15.821 0,-10.7381 6.64,-12.1092 41.6,-21.0896 10.15,-2.5391 41.4,-8.9883 41.4,-40.6289 C 2130.86,19.1406 2110.75,0 2072.86,0 2042,0 2013.09,15.2383 2013.48,49.6094 h 29.69" /><path
         id="path116"
         style="fill:#231f20;fill-opacity:1;fill-rule:nonzero;stroke:none"
         d="m 2224.2,49.6094 c 0,-18.5508 14.46,-25.7774 30.86,-25.7774 10.75,0 27.15,3.1289 27.15,17.3868 0,15.0312 -20.9,17.5703 -41.4,23.0429 -20.71,5.4688 -41.61,13.4766 -41.61,39.6483 0,28.52 26.96,42.192 52.15,42.192 29.1,0 55.86,-12.704 55.86,-44.922 h -29.69 c -0.97,16.789 -12.89,21.09 -27.53,21.09 -9.77,0 -21.1,-4.098 -21.1,-15.821 0,-10.7381 6.64,-12.1092 41.6,-21.0896 10.16,-2.5391 41.41,-8.9883 41.41,-40.6289 C 2311.9,19.1406 2291.78,0 2253.89,0 c -30.86,0 -59.76,15.2383 -59.37,49.6094 h 29.68" /><path
         id="path118"
         style="fill:#231f20;fill-opacity:1;fill-rule:nonzero;stroke:none"
         d="m 2392.55,25.7891 c 27.54,0 37.89,23.4297 37.89,46.6797 0,24.4101 -10.35,47.8512 -37.89,47.8512 -27.54,0 -37.89,-23.4411 -37.89,-47.8512 0,-23.25 10.35,-46.6797 37.89,-46.6797 z m 0,120.3129 c 43.17,0 68.56,-32.231 68.56,-73.6332 C 2461.11,32.2305 2435.72,0 2392.55,0 2349.39,0 2324,32.2305 2324,72.4688 c 0,41.4022 25.39,73.6332 68.55,73.6332" /><path
         id="path120"
         style="fill:#231f20;fill-opacity:1;fill-rule:nonzero;stroke:none"
         d="m 2574.97,95.8984 c -1.96,13.8716 -15.24,24.4216 -30.47,24.4216 -27.54,0 -37.89,-23.4411 -37.89,-47.8512 0,-23.25 10.35,-46.6797 37.89,-46.6797 18.75,0 29.29,12.8906 31.64,31.25 h 29.69 C 2602.7,22.2695 2578.68,0 2544.5,0 c -43.17,0 -68.56,32.2305 -68.56,72.4688 0,41.4022 25.39,73.6332 68.56,73.6332 30.66,0 56.44,-17.973 60.15,-50.2036 h -29.68" /><path
         id="path122"
         style="fill:#231f20;fill-opacity:1;fill-rule:nonzero;stroke:none"
         d="m 2626.7,142.781 h 30.67 V 3.32031 H 2626.7 V 142.781" /><path
         id="path124"
         style="fill:#231f20;fill-opacity:1;fill-rule:nonzero;stroke:none"
         d="m 2684.32,142.781 h 104.3 V 117 h -73.63 V 87.1094 h 67.57 V 63.2891 h -67.57 V 29.1094 h 75.19 V 3.32031 H 2684.32 V 142.781" /><path
         id="path126"
         style="fill:#231f20;fill-opacity:1;fill-rule:nonzero;stroke:none"
         d="m 2841.73,117 h -41.79 v 25.781 h 114.25 V 117 H 2872.4 V 3.32031 h -30.67 V 117" /><path
         id="path128"
         style="fill:#231f20;fill-opacity:1;fill-rule:nonzero;stroke:none"
         d="m 2966.32,57.6211 -51.36,85.1599 h 34.57 l 32.61,-55.0818 32.43,55.0818 h 34.18 L 2996.99,56.8398 V 3.32031 h -30.67 V 57.6211" /></g></g></svg>