<svg xmlns="http://www.w3.org/2000/svg" width="77.102" height="77.539" viewBox="0 0 77.102 77.539">
  <g id="red_cross" data-name="red cross" transform="translate(6907.041 4362.711)">
    <g id="Group_33" data-name="Group 33" transform="translate(-6907.041 -4362.711)">
      <path id="Path_85" data-name="Path 85" d="M661.275,238.041v17.63h-17.61V238.057H626.03V220.438h17.621V202.82h17.619v17.611H678.9v17.611Z" transform="translate(-613.559 -190.382)" fill="#e01723"/>
      <path id="Path_86" data-name="Path 86" d="M667.308,98.353a1.505,1.505,0,0,1,2.058-1.185c.034-.1.071-.189.1-.285a1.691,1.691,0,0,1,1.349-1.134,1.441,1.441,0,0,1,1.448.576,2.594,2.594,0,0,1,.611,1.249,1.35,1.35,0,0,1-.374,1.153.174.174,0,0,1-.159.042.631.631,0,0,1-.206-.615c.35-.64-.37-1.678-.92-1.773a1.041,1.041,0,0,0-1.171.957,1.454,1.454,0,0,0,.143.64,11.6,11.6,0,0,0,.6,1.013c.081.13.066.208-.07.286-.426.244-.333.273-.6-.148-.239-.37-.467-.751-.741-1.095a.778.778,0,0,0-1.334.141.66.66,0,0,0,.011.608c.232.447.477.886.726,1.324.143.251.151.249-.1.4-.327.2-.322.194-.527-.123-.254-.394-.5-.8-.788-1.164a.678.678,0,0,0-.971-.18.738.738,0,0,0-.343,1.006,11.141,11.141,0,0,0,1.121,1.716,2.048,2.048,0,0,0,2.571.422c.7-.412,1.379-.857,2.063-1.3a.918.918,0,0,0,.495-.906.269.269,0,0,1,.09-.168.673.673,0,0,1,.16-.1c.336-.2.4-.169.47.226a1.141,1.141,0,0,1-.423,1.089,13.351,13.351,0,0,1-1.3.957c-.419.279-.862.524-1.3.779a2.783,2.783,0,0,1-3.6-.812,11.578,11.578,0,0,1-.965-1.574,1.469,1.469,0,0,1,1.389-2.12A3.465,3.465,0,0,1,667.308,98.353Z" transform="translate(-649.74 -91.641)" fill="#e01723"/>
      <path id="Path_87" data-name="Path 87" d="M1384.659,499.079a2.166,2.166,0,0,1-.473,2.354,2,2,0,0,1,.578,1.663,1.463,1.463,0,0,1-1.364,1.48,3.71,3.71,0,0,1-1.1-.04,1.376,1.376,0,0,1-1.114-1c-.064-.2-.027-.254.184-.261a2.084,2.084,0,0,0,.21,0,.3.3,0,0,1,.335.182.736.736,0,0,0,.656.425,3.887,3.887,0,0,0,.91-.051.714.714,0,0,0,.566-.723,2,2,0,0,0-.1-.773.978.978,0,0,0-.96-.556c-.112-.007-.224-.008-.336-.012a.312.312,0,0,1-.125-.008c-.235-.128-.1-.349-.123-.529-.016-.131.07-.184.2-.185.168,0,.336-.014.5-.018a1.04,1.04,0,0,0,1.024-1.2.9.9,0,0,0-.886-.914,3.64,3.64,0,0,0-.607.009.805.805,0,0,0-.665.418.672.672,0,0,1-.67.125.273.273,0,0,1-.039-.238,1.322,1.322,0,0,1,1.114-.963,6.531,6.531,0,0,1,2.259.047,2.764,2.764,0,0,1,2.187,2.665c.013.8-.032,1.609-.076,2.413a1.553,1.553,0,0,1-.349.888,1.071,1.071,0,0,1-.719.392c-.141.021-.233-.03-.227-.192a.572.572,0,0,0,0-.084.505.505,0,0,1,.283-.6.664.664,0,0,0,.341-.574c.04-.537.076-1.075.089-1.613a4.417,4.417,0,0,0-.054-.961A2.232,2.232,0,0,0,1384.659,499.079Z" transform="translate(-1309.714 -462.683)" fill="#e01723"/>
      <path id="Path_88" data-name="Path 88" d="M1094.73,73.052a1.979,1.979,0,0,1,1.86.045,1.315,1.315,0,0,1,.754,1.672c-.224.691-.516,1.361-.8,2.03a6.069,6.069,0,0,1-.54,1.015,1.464,1.464,0,0,1-1.331.622c-.227-.005-.251-.062-.179-.273a.543.543,0,0,1,.456-.437.933.933,0,0,0,.663-.624c.34-.775.677-1.553.989-2.34a.748.748,0,0,0-.366-1.1,1,1,0,0,0-1.382.266,10.057,10.057,0,0,0-.515,1.124c-.154.353-.293.712-.447,1.065a1.791,1.791,0,1,1-3.323-1.332c.261-.657.53-1.312.821-1.956a1.8,1.8,0,0,1,3.2-.144A3.1,3.1,0,0,1,1094.73,73.052Zm-3.689,2.477a1.136,1.136,0,0,0,.863,1.12,1.121,1.121,0,0,0,1.269-.594c.327-.711.631-1.435.9-2.169a1.108,1.108,0,0,0-.6-1.369,1.127,1.127,0,0,0-1.511.631c-.284.647-.549,1.3-.814,1.959A3.072,3.072,0,0,0,1091.041,75.529Z" transform="translate(-1041.69 -69.575)" fill="#e01723"/>
      <path id="Path_89" data-name="Path 89" d="M1228.784,152.653l-.418-.4c.122-.131.241-.255.354-.383.258-.294.536-.576.765-.893a.764.764,0,0,0-.135-1.151.838.838,0,0,0-1.16.084c-.359.365-.715.733-1.047,1.121a2.24,2.24,0,0,0,.189,3.125c.562.507,1.118,1.019,1.681,1.525a.969.969,0,0,0,1.026.248.2.2,0,0,1,.164.038c.119.1.226.206.346.319a.886.886,0,0,1-.985.278,3.191,3.191,0,0,1-.966-.528c-.645-.548-1.263-1.131-1.863-1.729a2.77,2.77,0,0,1,.011-3.746c.326-.366.656-.73,1.008-1.072a1.422,1.422,0,0,1,2.371.429,3.024,3.024,0,0,1,.152.773,1.3,1.3,0,0,1,1.225.385,1.42,1.42,0,0,1,.41,1.283c.158.009.3.012.432.023a1.565,1.565,0,0,1,1.261,2.324,2.375,2.375,0,0,1-1.153,1.065,1.4,1.4,0,0,1-1.226-.115c.182-.219.3-.446.645-.369.575.127,1.453-.751,1.4-1.4a.981.981,0,0,0-.675-.861,1.04,1.04,0,0,0-1.171.207c-.266.249-.511.519-.763.783-.067.07-.125.148-.2.242l-.367-.436c.13-.14.3-.306.448-.484a7.768,7.768,0,0,0,.677-.829.82.82,0,0,0-.612-1.274.689.689,0,0,0-.577.2c-.391.361-.765.74-1.145,1.111C1228.853,152.576,1228.826,152.608,1228.784,152.653Z" transform="translate(-1166.684 -140.785)" fill="#e01723"/>
      <path id="Path_90" data-name="Path 90" d="M490.215,348.235a2.129,2.129,0,0,1,1.143-2.111,4.378,4.378,0,0,1-.182-.672,2.089,2.089,0,0,1,.554-1.723,1.433,1.433,0,0,1,1.263-.383,2.553,2.553,0,0,1,1.313.518,1.4,1.4,0,0,1,.551,1.193c0,.163-.075.215-.228.159a2.379,2.379,0,0,1-.3-.105.317.317,0,0,1-.144-.155,1.326,1.326,0,0,0-1.25-.929c-.608-.02-.911.227-1.069.868a.989.989,0,0,0,.572,1.176,5.267,5.267,0,0,0,.526.212.183.183,0,0,1,.14.254c-.124.477-.13.487-.605.34a1.158,1.158,0,0,0-1.191.119,1.047,1.047,0,0,0,.245,1.838,3.5,3.5,0,0,0,.69.173.743.743,0,0,0,.594-.213c.058-.044.138-.111.191-.1a2.325,2.325,0,0,1,.482.191.328.328,0,0,1-.047.216,1.288,1.288,0,0,1-1.4.554,10.629,10.629,0,0,1-2.015-.7,2.692,2.692,0,0,1-1.335-3.153,24.132,24.132,0,0,1,.844-2.347,2.244,2.244,0,0,1,.558-.693.943.943,0,0,1,.813-.187c.148.019.212.1.156.249a.731.731,0,0,0-.041.119.461.461,0,0,1-.412.421.746.746,0,0,0-.557.526c-.26.687-.516,1.376-.741,2.075a1.814,1.814,0,0,0-.047.706A2.474,2.474,0,0,0,490.215,348.235Z" transform="translate(-486.861 -319.21)" fill="#e01723"/>
      <path id="Path_91" data-name="Path 91" d="M1200.313,864.512c-.261.2-.494.388-.739.559-.045.032-.144.008-.21-.014-.687-.239-1.371-.488-2.061-.722a2.634,2.634,0,0,0-.554-.109,1,1,0,0,0-.75.2c-.3.235-.613.465-.939.711l1.646,2.143-.625.484-3.7-4.809c.336-.259.66-.511.988-.759.524-.4,1.038-.81,1.581-1.181a2.185,2.185,0,0,1,.819-.355,1.6,1.6,0,0,1,1.687,2.143,4.451,4.451,0,0,1-.4.661c-.035.056-.083.1-.157.2a5.313,5.313,0,0,1,2.639.562C1199.79,864.309,1200.035,864.409,1200.313,864.512Zm-6.913-1.525,1.244,1.615c.548-.424,1.085-.827,1.606-1.249a2.129,2.129,0,0,0,.4-.456.841.841,0,0,0,.091-.8.934.934,0,0,0-1.485-.473C1194.618,862.036,1194.026,862.522,1193.4,862.987Z" transform="translate(-1135.681 -796.838)" fill="#e01723"/>
      <path id="Path_92" data-name="Path 92" d="M654.445,865.06c.657.461,1.3.9,1.938,1.362a8.852,8.852,0,0,1,.954.754,1.464,1.464,0,0,1,.233,1.866,1.5,1.5,0,0,1-1.7.784c-.237-.054-.467-.139-.7-.209a3.312,3.312,0,0,1,.192.661c.04.473.044.951.041,1.425,0,.391-.036.782-.058,1.174,0,.055-.013.109-.026.2-.265-.187-.512-.352-.746-.535-.043-.034-.042-.14-.04-.213.023-.728.052-1.456.073-2.184a1.415,1.415,0,0,0-.721-1.373c-.247-.144-.471-.325-.725-.5l-1.551,2.207-.65-.45C652.124,868.37,653.279,866.722,654.445,865.06Zm-.9,2.658c.639.432,1.258.852,1.88,1.267a.936.936,0,0,0,.232.1.963.963,0,0,0,1.164-.379.871.871,0,0,0-.112-1.17,4.854,4.854,0,0,0-.7-.571c-.423-.308-.856-.6-1.3-.913Z" transform="translate(-636.542 -800.906)" fill="#e01723"/>
      <path id="Path_93" data-name="Path 93" d="M917.565,957.32c1.1.04,2.165.068,3.228.12a1.506,1.506,0,0,1,1.383.8,1.615,1.615,0,0,1-1.114,2.387c-.126.031-.254.055-.43.093a5.222,5.222,0,0,1,1.666,2.066c.152.232.287.475.43.712-.319,0-.616.008-.913-.007-.055,0-.122-.083-.158-.142-.311-.508-.616-1.018-.923-1.529-.047-.078-.1-.152-.148-.229a1.514,1.514,0,0,0-1.466-.866c-.276.02-.556,0-.894,0v2.661h-.817C917.462,961.361,917.513,959.356,917.565,957.32Zm.762.7v2c.614.019,1.242.04,1.87.058a2.987,2.987,0,0,0,.355-.021,1.016,1.016,0,0,0,.961-1.317.993.993,0,0,0-.956-.664c-.472-.044-.95-.045-1.425-.058C918.876,958.014,918.619,958.02,918.328,958.02Z" transform="translate(-882.184 -885.961)" fill="#e01723"/>
      <path id="Path_94" data-name="Path 94" d="M527.565,255.01a1.967,1.967,0,0,1,.586-2.111,1.206,1.206,0,0,1,1.285-.283,1.42,1.42,0,0,1,.313.12c.833.515,1.682,1.008,2.487,1.565a1.467,1.467,0,0,1,.6,1.6c-.041.2-.076.214-.265.111a.543.543,0,0,1-.358-.519.948.948,0,0,0-.535-.761c-.71-.45-1.423-.895-2.144-1.326-.7-.416-1.128-.055-1.377.62a.923.923,0,0,0,.38,1.108c.518.346,1.057.661,1.584.993a5.63,5.63,0,0,1,.573.389,1.764,1.764,0,0,1,.579,1.893,1.8,1.8,0,0,1-2.6.988c-.633-.375-1.267-.75-1.879-1.156a1.782,1.782,0,0,1,.247-3.085A3.31,3.31,0,0,1,527.565,255.01Zm2.066,4.07a1.194,1.194,0,0,0,1.033-.69,1.077,1.077,0,0,0-.152-1.181,1.217,1.217,0,0,0-.323-.3c-.587-.369-1.175-.736-1.773-1.088a1.167,1.167,0,0,0-1.575.281,1.133,1.133,0,0,0,.339,1.634c.61.4,1.235.773,1.864,1.139A3.03,3.03,0,0,0,529.632,259.08Z" transform="translate(-521.358 -236.221)" fill="#e01723"/>
      <path id="Path_95" data-name="Path 95" d="M520.48,717.485l-.49-.542c.055-.06.105-.115.157-.169a1.4,1.4,0,0,0,.4-1.331,2.22,2.22,0,0,0-1.582-1.838,2.1,2.1,0,0,0-1.219.064,3.626,3.626,0,0,0-1.4.794,1.884,1.884,0,0,0-.6,1.885,2.814,2.814,0,0,0,1.5,1.921.267.267,0,0,0,.213.013c.308-.148.609-.312.934-.482l-.819-1.584.611-.323,1.183,2.266c-.554.29-1.1.551-1.626.861a.67.67,0,0,1-.765-.019,3.9,3.9,0,0,1-1.841-2.129,2.85,2.85,0,0,1,1.1-3.371,3.714,3.714,0,0,1,2.437-.7,2.493,2.493,0,0,1,1.784.954,3.376,3.376,0,0,1,.831,2.045A2.109,2.109,0,0,1,520.48,717.485Z" transform="translate(-511.168 -660.53)" fill="#e01723"/>
      <path id="Path_96" data-name="Path 96" d="M1048.189,947.406l-1.659-5.829c.262-.076.507-.149.754-.217.614-.169,1.223-.361,1.844-.5a2.185,2.185,0,0,1,2.54,1.059,4.222,4.222,0,0,1,.651,2.87,2.092,2.092,0,0,1-1.385,1.781c-.607.231-1.239.394-1.862.583C1048.786,947.243,1048.5,947.32,1048.189,947.406Zm.59-.863c.675-.23,1.339-.425,1.977-.685a1.274,1.274,0,0,0,.776-1.1,3.242,3.242,0,0,0,0-.771,3.506,3.506,0,0,0-.783-1.958,1.309,1.309,0,0,0-1.266-.5c-.6.118-1.192.294-1.791.434-.177.041-.2.114-.148.279.308,1.054.6,2.112.9,3.167C1048.554,945.768,1048.66,946.129,1048.779,946.543Z" transform="translate(-1001.221 -870.72)" fill="#e01723"/>
      <path id="Path_97" data-name="Path 97" d="M728.77,915.791l2.3,1.1c-.04.092-.072.175-.11.255-.251.524-.505,1.046-.752,1.573a.37.37,0,0,1-.3.241,3.956,3.956,0,0,1-3.014-.573,2.843,2.843,0,0,1-1.173-3.15,3.841,3.841,0,0,1,1.192-1.919,2.51,2.51,0,0,1,2.18-.635,3.316,3.316,0,0,1,2.166,1.252,2.1,2.1,0,0,1,.3,1.754l-.689-.132a2.183,2.183,0,0,1,0-.247,1.4,1.4,0,0,0-.476-1.285,2.17,2.17,0,0,0-2.264-.561,2.346,2.346,0,0,0-.807.544,3.3,3.3,0,0,0-.854,1.613,1.924,1.924,0,0,0,.751,2.1,2.777,2.777,0,0,0,2.2.534.361.361,0,0,0,.229-.17c.153-.283.284-.577.436-.895l-1.6-.776C728.572,916.209,728.666,916.009,728.77,915.791Z" transform="translate(-705.362 -844.772)" fill="#e01723"/>
      <path id="Path_98" data-name="Path 98" d="M1259.879,818.223a3.322,3.322,0,0,1-2.612-1.261,3.114,3.114,0,0,1-.807-1.676,2.756,2.756,0,0,1,.932-2.432,2.852,2.852,0,0,1,3.8-.124,3.522,3.522,0,0,1,1.368,1.956A2.886,2.886,0,0,1,1259.879,818.223Zm-.185-.717a2.1,2.1,0,0,0,2.131-2.6,3.256,3.256,0,0,0-2.464-2.075,1.929,1.929,0,0,0-1.8.873,1.828,1.828,0,0,0-.222,1.962,3.478,3.478,0,0,0,1.563,1.594A4.142,4.142,0,0,0,1259.694,817.506Z" transform="translate(-1194.736 -752.05)" fill="#e01723"/>
      <path id="Path_99" data-name="Path 99" d="M601.26,830.048A3.3,3.3,0,0,1,602.7,827.4a2.771,2.771,0,0,1,2.519-.6,2.892,2.892,0,0,1,1.57,4.613,3.3,3.3,0,0,1-2.354,1.467,2.712,2.712,0,0,1-2.061-.606,2.777,2.777,0,0,1-1.075-1.748C601.277,830.37,601.273,830.208,601.26,830.048Zm5.418-.416a2.072,2.072,0,0,0-2.967-1.956,3.816,3.816,0,0,0-1.415,1.347,2.05,2.05,0,0,0,2.234,3.072,3.078,3.078,0,0,0,1.585-1.156A2.331,2.331,0,0,0,606.678,829.632Z" transform="translate(-590.723 -765.547)" fill="#e01723"/>
      <path id="Path_100" data-name="Path 100" d="M552.176,770.386l-2.143-2.883-1.506,1.117,2.008,2.707-.565.421-2.012-2.7-1.668,1.237,2.228,3-.566.421-2.7-3.64,4.871-3.617,2.615,3.522Z" transform="translate(-539.087 -709.997)" fill="#e01723"/>
      <path id="Path_101" data-name="Path 101" d="M991.647,956.9l.092.695-4.5.563c-.251-2.015-.5-4-.752-6.015l4.34-.542.1.683-3.566.448c.078.624.152,1.23.231,1.866l3.345-.417c.027.241.053.464.08.7l-3.334.418c.085.692.168,1.363.255,2.066Z" transform="translate(-945.869 -880.688)" fill="#e01723"/>
      <path id="Path_102" data-name="Path 102" d="M781.295,58.577a2,2,0,0,1,1.423-1.09,1.409,1.409,0,0,1,1.735.751,5.109,5.109,0,0,1,.4.946c.2.647.4,1.3.544,1.96a1.488,1.488,0,0,1-.544,1.522c-.181.151-.244.123-.329-.1a.556.556,0,0,1,.079-.647.865.865,0,0,0,.109-.843c-.209-.719-.437-1.433-.658-2.148a1.125,1.125,0,0,0-.069-.153c-.168-.35-.387-.664-.818-.657a1.228,1.228,0,0,0-1.119.587.9.9,0,0,0-.087.71c.1.4.215.8.338,1.191.054.173.014.256-.159.311-.437.137-.432.142-.575-.292-.109-.332-.211-.668-.344-.991a1.119,1.119,0,0,0-1.907-.187.985.985,0,0,0-.1.908c.215.753.453,1.5.7,2.243a1.015,1.015,0,0,0,.737.69.312.312,0,0,1,.162.157,1.579,1.579,0,0,1,.1.319c.034.133-.021.2-.162.2a1.3,1.3,0,0,1-1.056-.473,2.667,2.667,0,0,1-.451-.75c-.266-.788-.527-1.581-.715-2.39a1.5,1.5,0,0,1,1.2-1.938A1.99,1.99,0,0,1,781.295,58.577Z" transform="translate(-754.096 -56.342)" fill="#e01723"/>
      <path id="Path_103" data-name="Path 103" d="M1337.35,707.528c.092-.238.175-.458.258-.676a4.05,4.05,0,0,0,.488.091,1.4,1.4,0,0,0,1.189-.561,2.328,2.328,0,0,0,.6-1.32,1.451,1.451,0,0,0-.1-.651.785.785,0,0,0-1.186-.371,5.06,5.06,0,0,0-.769.736c-.31.333-.587.7-.9,1.024a1.5,1.5,0,0,1-1.8.4,1.393,1.393,0,0,1-.851-1.3,2.748,2.748,0,0,1,1.381-2.568,1.584,1.584,0,0,1,1.5-.054l-.265.7c-.063-.013-.117-.021-.169-.034a1.131,1.131,0,0,0-1.287.477,2.431,2.431,0,0,0-.483,1.193.819.819,0,0,0,.875.956,1.015,1.015,0,0,0,.636-.416c.4-.451.773-.926,1.181-1.367a1.8,1.8,0,0,1,1.312-.665,1.648,1.648,0,0,1,1.624,1.584,3.145,3.145,0,0,1-1.6,2.848A1.872,1.872,0,0,1,1337.35,707.528Z" transform="translate(-1266.496 -650.689)" fill="#e01723"/>
      <path id="Path_104" data-name="Path 104" d="M1304.33,758.712c-.13.229-.245.437-.358.636a.172.172,0,0,1-.054,0,1.206,1.206,0,0,0-1.638.44,1.891,1.891,0,0,0-.5,1.2.747.747,0,0,0,1.16.647c.32-.209.6-.485.9-.722a9.147,9.147,0,0,1,1.234-.933,1.506,1.506,0,0,1,2.21,1,2.168,2.168,0,0,1,.006,1.014,2.95,2.95,0,0,1-2.031,2.216,1.762,1.762,0,0,1-1.509-.283l.365-.647a1.324,1.324,0,0,0,1.218.109,2.194,2.194,0,0,0,1.146-1.176,2.138,2.138,0,0,0,.176-.787.825.825,0,0,0-1.236-.736,9.366,9.366,0,0,0-1.058.82c-.312.249-.6.529-.933.748a1.447,1.447,0,0,1-1.935-.17,1.532,1.532,0,0,1-.354-1.527,2.749,2.749,0,0,1,1.786-2.044A1.594,1.594,0,0,1,1304.33,758.712Z" transform="translate(-1235.885 -702.605)" fill="#e01723"/>
      <path id="Path_105" data-name="Path 105" d="M813.79,951.952c.226-.337.43-.644.636-.95q1.44-2.133,2.878-4.268a.247.247,0,0,1,.307-.128c.652.153.644.149.75.8.3,1.845.605,3.688.907,5.531.013.081.021.163.036.28-.283-.066-.539-.118-.79-.189-.044-.012-.086-.1-.095-.157-.084-.539-.168-1.079-.235-1.619a.23.23,0,0,0-.212-.231q-1.075-.239-2.147-.495a.2.2,0,0,0-.255.109c-.289.455-.587.9-.877,1.359-.063.1-.119.15-.25.107C814.243,952.041,814.035,952.007,813.79,951.952Zm2.259-2.036,2.014.464c-.133-1.039-.26-2.038-.386-3.019Z" transform="translate(-786.656 -876.072)" fill="#e01723"/>
      <path id="Path_106" data-name="Path 106" d="M975.354,44.2a5.416,5.416,0,0,1,.433-.358.943.943,0,0,1,.811-.1c.269.083.08.323.1.492.013.124-.065.191-.2.185a.691.691,0,0,0-.789.551c-.027.079-.045.16-.075.266L975,45.191a5.59,5.59,0,0,0-.266-.7.384.384,0,0,0-.661-.111,2.233,2.233,0,0,0-.343.512.538.538,0,0,0-.044.225c-.02.229-.034.458-.052.718.076-.028.125-.043.172-.065a1.817,1.817,0,0,1,2.029.317,1.874,1.874,0,0,1,.412,2.093,1.8,1.8,0,0,1-3.457-.829c.059-.8.121-1.592.2-2.386a1.521,1.521,0,0,1,1.013-1.328.968.968,0,0,1,1.231.386C975.279,44.076,975.313,44.136,975.354,44.2Zm.354,3.232a1.107,1.107,0,0,0-1.146-1.154,1.169,1.169,0,0,0-1.079,1.217,1.107,1.107,0,0,0,1.138,1.158A1.137,1.137,0,0,0,975.708,47.434Z" transform="translate(-933.237 -43.549)" fill="#e01723"/>
      <path id="Path_107" data-name="Path 107" d="M1148.669,903.9l.713-.18a2.511,2.511,0,0,1-.311,2.163,2.7,2.7,0,0,1-4.2.371,3.776,3.776,0,0,1-1.221-2.556,2.775,2.775,0,0,1,2.327-2.827,2.2,2.2,0,0,1,2.106.7l-.572.513c-.158-.116-.3-.232-.452-.329a1.388,1.388,0,0,0-1.189-.164,1.9,1.9,0,0,0-1.372,2.437,3.3,3.3,0,0,0,1.448,2.087,1.826,1.826,0,0,0,2.716-1.191A6.08,6.08,0,0,0,1148.669,903.9Z" transform="translate(-1090.751 -833.885)" fill="#e01723"/>
      <path id="Path_108" data-name="Path 108" d="M1342,319.02c-.279-.052-.518-.1-.759-.137a.163.163,0,0,0-.127.072.869.869,0,0,1-.954.519,1.051,1.051,0,0,1-.856-.873,1.007,1.007,0,0,1,.559-1.114c.126-.061.2-.043.266.091.1.2.132.34-.1.485a.4.4,0,0,0-.141.571.378.378,0,0,0,.428.23.472.472,0,0,0,.379-.468c.023-.3.023-.308.319-.251.392.076.783.15,1.172.239a.243.243,0,0,0,.3-.133q.761-1.209,1.538-2.408a.824.824,0,0,1,.173-.152c.049.061.1.118.148.183a.685.685,0,0,1-.067.9c-.378.5-.7,1.046-1.05,1.571-.04.062-.078.127-.136.222l1.781.33c-.1-.244-.181-.451-.275-.649-.075-.157-.037-.243.123-.306.453-.18.4-.254.607.239.109.266.233.525.333.793.171.46-.081.758-.561.668-.736-.139-1.47-.279-2.2-.437a.253.253,0,0,0-.317.142q-.764,1.219-1.539,2.433a1.031,1.031,0,0,1-.184.174c-.052-.067-.109-.132-.157-.2a.677.677,0,0,1,.07-.881c.392-.528.736-1.091,1.1-1.64C1341.914,319.171,1341.948,319.111,1342,319.02Z" transform="translate(-1271.115 -294.438)" fill="#e01723"/>
      <path id="Path_109" data-name="Path 109" d="M1374.8,597.119c.42.076,1.047.182,1.671.3a7.2,7.2,0,0,1,.9.219,1.468,1.468,0,0,1,1.09,1.617,3.054,3.054,0,0,1-.247.967,1.386,1.386,0,0,1-1.576.819c-.851-.124-1.694-.3-2.534-.489a1.535,1.535,0,0,1-1.057-.7,3.236,3.236,0,0,1-.24-.621.212.212,0,0,1,.052-.181c.089-.085.572.039.619.157a1.071,1.071,0,0,0,.821.681c.76.158,1.519.336,2.287.439a1.053,1.053,0,0,0,1.158-1.432.76.76,0,0,0-.411-.481,2.637,2.637,0,0,0-.61-.217c-.645-.13-1.293-.242-1.941-.358a1.16,1.16,0,0,0-1.1.312c-.059.06-.216.05-.321.033-.419-.069-.437-.132-.182-.479A1.77,1.77,0,0,1,1374.8,597.119Z" transform="translate(-1302.01 -553.889)" fill="#e01723"/>
      <path id="Path_110" data-name="Path 110" d="M1035.8,52.65a8.071,8.071,0,0,1,.919.262,1.376,1.376,0,0,1,.921,1.572c-.15.9-.353,1.784-.585,2.662a1.529,1.529,0,0,1-1.289,1.2c-.247.041-.283-.007-.241-.254a.53.53,0,0,1,.355-.5.8.8,0,0,0,.486-.577c.2-.815.422-1.627.547-2.454a1.044,1.044,0,0,0-1.412-1.153.838.838,0,0,0-.575.6c-.144.482-.262.972-.372,1.463-.085.381-.152.768-.2,1.155a.925.925,0,0,0,.267.769.684.684,0,0,1-.027.668.252.252,0,0,1-.221-.011,1.4,1.4,0,0,1-.7-1.506,23.436,23.436,0,0,1,.582-2.747A1.516,1.516,0,0,1,1035.8,52.65Z" transform="translate(-989.345 -51.939)" fill="#e01723"/>
      <path id="Path_111" data-name="Path 111" d="M1366.247,387.88c-.23.724-.869.888-1.513,1.032a3.568,3.568,0,0,1-.647.054,1.2,1.2,0,0,1-1.161-.724,2.387,2.387,0,0,1-.249-.793,1.37,1.37,0,0,1,1.006-1.484c.133-.04.218-.016.255.126.043.161.089.322.136.489l-.128.059a.79.79,0,0,0-.454,1.163.71.71,0,0,0,.877.468,5.36,5.36,0,0,0,.783-.233.689.689,0,0,0,.451-.789,4.469,4.469,0,0,0-.136-.614c-.057-.188.006-.269.187-.315.3-.075.333-.066.409.149a2.907,2.907,0,0,0,.206.5.783.783,0,1,0,.542-1.165c-.062.011-.123.026-.213.045-.047-.167-.1-.331-.139-.5-.033-.132.055-.181.16-.2a1.461,1.461,0,0,1,1.352.4,1.612,1.612,0,0,1,.317,1.627,1.44,1.44,0,0,1-1.357.858A3.558,3.558,0,0,1,1366.247,387.88Z" transform="translate(-1292.669 -358.46)" fill="#e01723"/>
      <path id="Path_112" data-name="Path 112" d="M1299.49,244.632a1.493,1.493,0,0,1,.609-1.182,24.343,24.343,0,0,1,2.187-1.556,1.47,1.47,0,0,1,2.091.437,2.718,2.718,0,0,1,.345.6,1.357,1.357,0,0,1-.4,1.688c-.725.559-1.479,1.083-2.25,1.578a1.5,1.5,0,0,1-1.672.018c-.2-.121-.2-.162-.013-.309a.5.5,0,0,1,.564-.112.84.84,0,0,0,.785-.114c.7-.469,1.406-.925,2.06-1.449a1.1,1.1,0,0,0-.365-1.894,1.064,1.064,0,0,0-.992.192c-.538.354-1.06.731-1.585,1.106a3.63,3.63,0,0,0-.415.355.972.972,0,0,0-.321.749c0,.145-.287.465-.431.465-.042,0-.107-.067-.119-.114C1299.531,244.937,1299.514,244.784,1299.49,244.632Z" transform="translate(-1234.426 -226.162)" fill="#e01723"/>
      <path id="Path_113" data-name="Path 113" d="M877.937,53.164a1.683,1.683,0,0,1-1.726-1.493c-.107-.692-.18-1.389-.266-2.084-.069-.562-.13-1.126-.205-1.688-.026-.191.016-.279.226-.3.463-.048.456-.059.513.419q.206,1.742.423,3.482a1.074,1.074,0,0,0,.719.927,1,1,0,0,0,1.065-.141,1.115,1.115,0,0,0,.261-1.421c-.093-.157-.2-.308-.28-.469a.79.79,0,0,1,.23-1,1.287,1.287,0,0,1,.548-.093c.027,0,.07.1.09.159.007.021-.028.062-.052.087a.614.614,0,0,0,0,.88,1.582,1.582,0,0,1,.06,1.8A1.716,1.716,0,0,1,877.937,53.164Z" transform="translate(-843.761 -47.261)" fill="#e01723"/>
      <path id="Path_114" data-name="Path 114" d="M481.289,599.142a4.425,4.425,0,0,0-.464.183,3.217,3.217,0,0,0-.36.255.771.771,0,0,1-1.1-.06c-.123-.126-.113-.381-.165-.577.07-.017.172-.074.207-.046.368.29.667.163.988-.1a1.792,1.792,0,1,1,1.159,3.288c-1.171.21-2.339.44-3.506.67-.184.036-.278,0-.306-.2-.056-.4-.2-.442.369-.547,1.142-.209,2.276-.462,3.422-.651a1.148,1.148,0,0,0,.763-1.774A1.313,1.313,0,0,0,481.289,599.142Z" transform="translate(-476.796 -555.143)" fill="#e01723"/>
      <path id="Path_115" data-name="Path 115" d="M468.87,498.58c0,.255,0,.5,0,.753a.235.235,0,0,0,.241.261c.2.023.226.134.219.322-.016.416-.066.415-.485.337a.748.748,0,0,1-.654-.718,5.614,5.614,0,0,1-.024-.817c.006-.147-.022-.2-.174-.2-.475-.015-.951-.049-1.427-.065-.185-.006-.238-.087-.235-.262.009-.458.021-.48.449-.459,1.238.059,2.476.112,3.713.188a2.225,2.225,0,0,1,.788.19,1.5,1.5,0,0,1,.772,1.721,1.414,1.414,0,0,1-1.362,1.13c-.264.015-.3-.02-.294-.294,0-.028,0-.056,0-.084.007-.318.007-.318.308-.376a.765.765,0,0,0,.58-1.1.778.778,0,0,0-.394-.339,2.542,2.542,0,0,0-.7-.136c-.4-.035-.8-.045-1.195-.065A.7.7,0,0,0,468.87,498.58Z" transform="translate(-466.328 -462.258)" fill="#e01723"/>
      <path id="Path_116" data-name="Path 116" d="M470.726,548.3a4.471,4.471,0,0,0,.442-.111.9.9,0,0,0,.623-.92.827.827,0,0,0-.747-.81,12.351,12.351,0,0,0-1.423.016,1.991,1.991,0,0,0-.269.039,1.2,1.2,0,0,0-1,.881c-.089.273-.157.553-.262.818a1.347,1.347,0,0,1-1.1.9c-.185.029-.267-.034-.26-.219,0-.035,0-.07,0-.1-.017-.345-.018-.347.3-.463a.748.748,0,0,0,.424-.469c.121-.305.219-.619.328-.929a1.609,1.609,0,0,1,1.383-1.156,6.573,6.573,0,0,1,1.923-.071,1.546,1.546,0,0,1,1.431,1.7,1.609,1.609,0,0,1-1.494,1.572c-.221.027-.272-.014-.289-.24-.008-.112-.012-.224-.016-.336A.76.76,0,0,1,470.726,548.3Z" transform="translate(-466.693 -506.441)" fill="#e01723"/>
      <path id="Path_117" data-name="Path 117" d="M1375.678,437.471c-.161.058-.316.1-.459.17a.886.886,0,0,0-.5,1.025.832.832,0,0,0,.866.683,12.791,12.791,0,0,0,1.738-.266,1.045,1.045,0,0,0,.766-.821c.077-.291.119-.591.194-.882a1.352,1.352,0,0,1,.969-1.038c.247-.072.3-.04.341.206a1.092,1.092,0,0,0,.024.145c.066.212.006.327-.218.407a.647.647,0,0,0-.333.319,6.308,6.308,0,0,0-.255.818c-.056.2-.09.4-.16.587a1.481,1.481,0,0,1-1.023.975,6.239,6.239,0,0,1-2.111.294,1.54,1.54,0,0,1-1.523-1.406,1.566,1.566,0,0,1,1.011-1.743c.539-.219.557-.209.659.362C1375.668,437.36,1375.671,437.415,1375.678,437.471Z" transform="translate(-1303.09 -405.638)" fill="#e01723"/>
      <path id="Path_118" data-name="Path 118" d="M471.863,446.246a4.143,4.143,0,0,0,.531-.03.89.89,0,0,0,.748-.773.851.851,0,0,0-.553-.939,5.013,5.013,0,0,0-1.873-.312,1.108,1.108,0,0,0-.933.6c-.157.257-.293.527-.462.775a1.346,1.346,0,0,1-1.272.628c-.166-.011-.23-.077-.2-.237a1.887,1.887,0,0,0,.034-.228c.008-.2.088-.3.312-.288a.679.679,0,0,0,.581-.362c.155-.216.272-.458.429-.672a3.3,3.3,0,0,1,.582-.678,1.374,1.374,0,0,1,.723-.29,5.344,5.344,0,0,1,2.346.369,1.538,1.538,0,0,1,.964,1.91,1.572,1.572,0,0,1-1.609,1.239c-.056,0-.113,0-.168,0-.257-.013-.29-.052-.252-.3.017-.118.036-.235.056-.353A.447.447,0,0,1,471.863,446.246Z" transform="translate(-467.721 -412.204)" fill="#e01723"/>
      <path id="Path_119" data-name="Path 119" d="M1174.686,117.7c-.046.112-.09.2-.119.294a.773.773,0,0,0,.348.927.679.679,0,0,0,.961-.121,2.353,2.353,0,0,0,.311-.369q.625-.972,1.233-1.955a1.84,1.84,0,0,0,.147-.325.7.7,0,0,0-.294-.959.792.792,0,0,0-1.017.121c-.059.059-.112.123-.18.2a4.038,4.038,0,0,1-.42-.273.215.215,0,0,1-.03-.2,1.432,1.432,0,0,1,1.453-.627,1.413,1.413,0,0,1,1.067,2.081,20.652,20.652,0,0,1-1.091,1.841,7.556,7.556,0,0,1-.63.89,1.421,1.421,0,0,1-1.986.184,1.389,1.389,0,0,1-.416-1.847c.079-.148.156-.2.305-.089C1174.435,117.553,1174.559,117.621,1174.686,117.7Z" transform="translate(-1118.584 -108.853)" fill="#e01723"/>
      <path id="Path_120" data-name="Path 120" d="M580.767,210.589l-.34.386a1.331,1.331,0,0,1-.509-1.435,1.391,1.391,0,0,1,2.338-.662,1.376,1.376,0,0,1,.394.982,1.185,1.185,0,0,1,1.335.273,5.794,5.794,0,0,1,.764.8,1.149,1.149,0,0,1,.168,1.151,1.559,1.559,0,0,1-1.62,1.131,1.342,1.342,0,0,1-.814-.432l.365-.426a1.026,1.026,0,0,0,.838.211.91.91,0,0,0,.43-1.515,5.449,5.449,0,0,0-.625-.528.7.7,0,0,0-.9.022,4.324,4.324,0,0,0-.509.5c-.1.116-.177.141-.285.02a2.74,2.74,0,0,0-.211-.19c.13-.177.267-.336.372-.514a.845.845,0,0,0-.615-1.289.767.767,0,0,0-.817.391.719.719,0,0,0,.023.864C580.614,210.417,580.685,210.493,580.767,210.589Z" transform="translate(-571.006 -195.591)" fill="#e01723"/>
      <path id="Path_121" data-name="Path 121" d="M620.649,169.588l-.4.365a1.372,1.372,0,0,1-.165-1.851,1.342,1.342,0,0,1,2.046-.25,16.868,16.868,0,0,1,1.394,1.423,8.686,8.686,0,0,1,.817.984,1.369,1.369,0,0,1-.358,1.917,1.344,1.344,0,0,1-1.859-.133c-.028-.029-.052-.062-.088-.109l.408-.382.139.1a.833.833,0,0,0,1.242-.151.642.642,0,0,0,.081-.782,5.786,5.786,0,0,0-.58-.794c-.432-.487-.885-.955-1.332-1.428a1.858,1.858,0,0,0-.241-.2.735.735,0,0,0-1.076.027.835.835,0,0,0-.13,1.089C620.576,169.471,620.609,169.523,620.649,169.588Z" transform="translate(-607.816 -157.808)" fill="#e01723"/>
      <path id="Path_122" data-name="Path 122" d="M797.147,934.24l.6.2c.038.013.075.034.13.059-.653,1.9-1.3,3.8-1.962,5.72l-.738-.248C795.837,938.058,796.488,936.162,797.147,934.24Z" transform="translate(-769.499 -864.684)" fill="#e01723"/>
    </g>
  </g>
<script xmlns=""/></svg>