<?xml version="1.0" encoding="UTF-8" standalone="no"?>
<!-- Created with Inkscape (http://www.inkscape.org/) -->

<svg
   version="1.1"
   id="svg1"
   width="2554.1052"
   height="680.3147"
   viewBox="0 0 2554.1052 680.3147"
   sodipodi:docname="Serbia Red Cross.svg"
   inkscape:version="1.3.2 (091e20e, 2023-11-25, custom)"
   xmlns:inkscape="http://www.inkscape.org/namespaces/inkscape"
   xmlns:sodipodi="http://sodipodi.sourceforge.net/DTD/sodipodi-0.dtd"
   xmlns="http://www.w3.org/2000/svg"
   xmlns:svg="http://www.w3.org/2000/svg">
  <defs
     id="defs1">
    <clipPath
       clipPathUnits="userSpaceOnUse"
       id="clipPath5">
      <path
         d="M 0.059998,510.236 H 1915.58 V 0.06 H 0.059998 Z"
         transform="translate(-277.90201,-2.6309976)"
         id="path5" />
    </clipPath>
    <clipPath
       clipPathUnits="userSpaceOnUse"
       id="clipPath7">
      <path
         d="M 0.059998,510.236 H 1915.58 V 0.06 H 0.059998 Z"
         transform="translate(-128.664,-510.23601)"
         id="path7" />
    </clipPath>
  </defs>
  <sodipodi:namedview
     id="namedview1"
     pagecolor="#ffffff"
     bordercolor="#666666"
     borderopacity="1.0"
     inkscape:showpageshadow="2"
     inkscape:pageopacity="0.0"
     inkscape:pagecheckerboard="0"
     inkscape:deskcolor="#d1d1d1"
     inkscape:zoom="0.36607732"
     inkscape:cx="1277.0526"
     inkscape:cy="340.09209"
     inkscape:window-width="1920"
     inkscape:window-height="1017"
     inkscape:window-x="-8"
     inkscape:window-y="-8"
     inkscape:window-maximized="1"
     inkscape:current-layer="g1">
    <inkscape:page
       x="0"
       y="0"
       inkscape:label="1"
       id="page1"
       width="2554.1052"
       height="680.3147"
       margin="0"
       bleed="0" />
  </sodipodi:namedview>
  <g
     id="g1"
     inkscape:groupmode="layer"
     inkscape:label="1">
    <g
       id="group-MC1">
      <path
         id="path2"
         d="m 0,0 v -23.728 h -2.52 c -1.92,7.45 -4.38,12.513 -7.4,15.211 -3.03,2.672 -6.87,4.022 -11.52,4.022 -3.55,0 -6.41,-0.931 -8.59,-2.824 -2.18,-1.869 -3.28,-3.949 -3.28,-6.231 0,-2.833 0.81,-5.271 2.42,-7.292 1.58,-2.08 4.78,-4.283 9.6,-6.624 l 11.09,-5.397 C 0.1,-37.872 5.25,-44.491 5.25,-52.72 c 0,-6.334 -2.39,-11.423 -7.19,-15.316 -4.78,-3.868 -10.15,-5.81 -16.08,-5.81 -4.28,0 -9.13,0.753 -14.61,2.282 -1.66,0.489 -3.04,0.75 -4.1,0.75 -1.16,0 -2.07,-0.647 -2.75,-1.972 h -2.49 v 24.868 h 2.49 c 1.43,-7.084 4.15,-12.431 8.15,-16.043 4,-3.604 8.49,-5.394 13.45,-5.394 3.5,0 6.35,1.011 8.56,3.059 2.21,2.074 3.3,4.541 3.3,7.421 0,3.509 -1.23,6.442 -3.68,8.83 -2.45,2.384 -7.35,5.396 -14.73,9.058 -7.34,3.633 -12.14,6.929 -14.43,9.865 -2.28,2.906 -3.43,6.539 -3.43,10.951 0,5.739 1.98,10.538 5.9,14.382 3.92,3.84 9.01,5.789 15.24,5.789 2.75,0 6.07,-0.598 9.96,-1.767 2.6,-0.753 4.31,-1.143 5.17,-1.143 0.83,0 1.45,0.179 1.92,0.545 0.44,0.364 0.99,1.143 1.58,2.365 z m -91.189,-4.957 c -2.675,0 -5.37,-0.783 -8.097,-2.391 -2.698,-1.608 -4.904,-4.386 -6.568,-8.408 -1.688,-3.999 -2.517,-9.141 -2.517,-15.419 0,-10.149 2.027,-18.897 6.05,-26.244 4.022,-7.348 9.345,-11.031 15.936,-11.031 4.902,0 8.956,2.025 12.173,6.074 3.194,4.075 4.773,11.03 4.773,20.921 0,12.38 -2.646,22.119 -7.99,29.203 -3.586,4.881 -8.179,7.295 -13.76,7.295 z M -88.825,0 c 10.535,0 18.999,-4.026 25.409,-12.018 5.426,-6.852 8.126,-14.719 8.126,-23.572 0,-6.252 -1.5,-12.56 -4.49,-18.949 -2.988,-6.387 -7.113,-11.212 -12.358,-14.456 -5.241,-3.243 -11.08,-4.851 -17.522,-4.851 -10.511,0 -18.843,4.178 -25.019,12.533 -5.217,7.061 -7.837,14.977 -7.837,23.728 0,6.41 1.582,12.744 4.749,19.051 3.167,6.308 7.345,10.978 12.513,13.99 5.162,3.038 10.637,4.544 16.429,4.544 z m -65.543,0 v -15.68 c 5.813,10.459 11.813,15.68 17.934,15.68 2.783,0 5.094,-0.862 6.931,-2.546 1.819,-1.711 2.728,-3.686 2.728,-5.892 0,-1.998 -0.648,-3.662 -1.972,-5.033 -1.324,-1.377 -2.883,-2.057 -4.723,-2.057 -1.766,0 -3.767,0.885 -5.97,2.625 -2.209,1.741 -3.844,2.619 -4.911,2.619 -0.908,0 -1.892,-0.489 -2.958,-1.502 -2.286,-2.078 -4.645,-5.502 -7.059,-10.278 v -33.384 c 0,-3.838 0.466,-6.77 1.43,-8.745 0.671,-1.377 1.843,-2.519 3.502,-3.427 1.687,-0.909 4.078,-1.375 7.215,-1.375 v -2.727 h -35.664 v 2.727 c 3.557,0 6.202,0.572 7.919,1.688 1.272,0.806 2.154,2.101 2.672,3.867 0.232,0.885 0.366,3.32 0.366,7.395 v 27 c 0,8.1 -0.158,12.925 -0.498,14.481 -0.31,1.529 -0.931,2.672 -1.816,3.375 -0.882,0.7 -2.001,1.064 -3.325,1.064 -1.553,0 -3.32,-0.387 -5.318,-1.143 l -0.756,2.751 21.082,8.517 z m -35.376,33.741 2.358,-35.042 h -2.358 c -3.147,10.488 -7.632,18.041 -13.45,22.661 -5.836,4.623 -12.823,6.932 -21,6.932 -6.853,0 -13.029,-1.741 -18.557,-5.218 -5.528,-3.478 -9.864,-9.006 -13.028,-16.611 -3.17,-7.606 -4.752,-17.081 -4.752,-28.372 0,-9.319 1.48,-17.419 4.492,-24.269 2.982,-6.829 7.476,-12.073 13.493,-15.733 6,-3.659 12.853,-5.475 20.558,-5.475 6.7,0 12.595,1.43 17.727,4.309 5.119,2.854 10.749,8.538 16.875,17.057 l 2.365,-1.512 c -5.165,-9.184 -11.212,-15.908 -18.097,-20.168 -6.899,-4.256 -15.076,-6.383 -24.58,-6.383 -17.08,0 -30.319,6.337 -39.685,19.028 -6.982,9.422 -10.489,20.531 -10.489,33.302 0,10.28 2.312,19.752 6.906,28.371 4.623,8.616 10.98,15.287 19.052,20.036 8.1,4.728 16.924,7.087 26.504,7.087 7.444,0 14.818,-1.814 22.063,-5.449 2.13,-1.12 3.657,-1.688 4.568,-1.688 1.347,0 2.546,0.489 3.553,1.45 1.328,1.351 2.259,3.273 2.831,5.687 z m -156.498,-92.303 v 35.901 c -0.313,3.427 -1.221,6.591 -2.727,9.421 -1.529,2.83 -3.557,4.984 -6.05,6.411 -2.514,1.459 -4.957,2.185 -7.348,2.185 -4.462,0 -8.431,-2.004 -11.938,-6.003 -4.62,-5.288 -6.932,-12.978 -6.932,-23.13 0,-10.248 2.233,-18.088 6.7,-23.537 4.465,-5.449 9.425,-8.177 14.898,-8.177 4.62,0 9.085,2.312 13.397,6.929 z m 0,-5.317 c -3.404,-3.56 -6.726,-6.1 -9.966,-7.658 -3.249,-1.533 -6.75,-2.309 -10.489,-2.309 -7.608,0 -14.25,3.19 -19.933,9.548 -5.663,6.36 -8.517,14.54 -8.517,24.507 0,9.987 3.138,19.128 9.445,27.433 6.285,8.28 14.359,12.437 24.249,12.437 6.123,0 11.212,-1.975 15.211,-5.868 V 7.057 c 0,7.972 -0.181,12.853 -0.574,14.693 -0.389,1.819 -0.987,3.064 -1.79,3.712 -0.806,0.676 -1.816,0.984 -3.038,0.984 -1.324,0 -3.064,-0.387 -5.241,-1.222 l -0.987,2.675 20.765,8.514 h 3.399 V -44.13 c 0,-8.148 0.211,-13.137 0.574,-14.924 0.387,-1.816 0.987,-3.062 1.846,-3.762 0.826,-0.729 1.813,-1.063 2.903,-1.063 1.377,0 3.217,0.416 5.478,1.298 l 0.853,-2.675 -20.687,-8.59 h -3.501 z m -106.611,39.999 h 32.241 c -0.258,4.465 -0.78,7.602 -1.609,9.419 -1.245,2.83 -3.143,5.062 -5.657,6.7 -2.519,1.608 -5.144,2.437 -7.866,2.437 -4.21,0 -7.972,-1.629 -11.291,-4.907 -3.325,-3.269 -5.268,-7.834 -5.818,-13.649 z m 0,-4.412 c -0.047,-10.36 2.443,-18.457 7.529,-24.352 5.062,-5.865 11.033,-8.792 17.859,-8.792 4.568,0 8.543,1.242 11.915,3.762 3.369,2.487 6.176,6.797 8.465,12.867 l 2.358,-1.5 c -1.063,-6.961 -4.155,-13.292 -9.267,-18.976 -5.142,-5.712 -11.552,-8.563 -19.233,-8.563 -8.382,0 -15.551,3.243 -21.496,9.756 -5.97,6.518 -8.926,15.293 -8.926,26.294 0,11.915 3.035,21.211 9.164,27.855 6.099,6.668 13.758,10.02 22.995,10.02 7.813,0 14.223,-2.57 19.239,-7.738 5.007,-5.141 7.524,-12.017 7.524,-20.633 z m -88.456,9.58 c 0.984,0 1.813,0 2.516,-0.033 0.703,-0.023 1.301,-0.049 1.734,-0.049 9.841,0 17.265,2.13 22.249,6.381 5.009,4.259 7.505,9.682 7.505,16.277 0,6.439 -2.027,11.683 -6.049,15.706 -4.023,4.025 -9.375,6.047 -16.017,6.047 -2.933,0 -6.905,-0.495 -11.938,-1.456 z m 73.248,-53.01 h -27.542 l -34.911,48.205 c -2.569,-0.082 -4.675,-0.135 -6.307,-0.135 -0.648,0 -1.351,0 -2.13,0.027 -0.75,0.026 -1.529,0.052 -2.358,0.108 v -29.956 c 0,-6.489 0.723,-10.512 2.129,-12.097 1.943,-2.232 4.826,-3.345 8.666,-3.345 h 4.049 v -2.807 h -44.18 v 2.807 h 3.87 c 4.362,0 7.477,1.429 9.346,4.254 1.061,1.584 1.609,5.323 1.609,11.188 V 13.16 c 0,6.489 -0.73,10.509 -2.13,12.064 -1.969,2.233 -4.935,3.352 -8.825,3.352 h -3.87 v 2.833 h 37.562 c 10.954,0 19.028,-0.809 24.217,-2.417 5.194,-1.582 9.603,-4.515 13.239,-8.798 3.61,-4.313 5.426,-9.398 5.426,-15.343 0,-6.331 -2.051,-11.836 -6.205,-16.506 -4.125,-4.646 -10.512,-7.945 -19.181,-9.867 l 21.284,-29.587 c 4.852,-6.802 9.059,-11.32 12.539,-13.552 3.501,-2.204 8.069,-3.633 13.703,-4.254 z m 1271.891,221.081 -0.15,-2.048 v -1.687 c 0,-4.102 0.78,-8.54 2.31,-13.295 1.56,-4.773 4.31,-8.93 8.31,-12.432 3.97,-3.53 8.82,-5.297 14.56,-5.297 6.12,0 11.37,1.53 15.7,4.571 4.31,3.038 8.07,6.956 11.27,11.784 l 2.67,-1.688 c -3.61,-7.553 -8.23,-13.861 -13.89,-18.924 -5.63,-5.059 -12.09,-7.605 -19.33,-7.605 -10.28,0 -18.41,3.272 -24.38,9.835 -5.95,6.568 -8.93,15.109 -8.93,25.624 0,11.188 3.04,20.815 9.09,28.866 6.05,8.019 14.5,12.041 25.36,12.041 8.3,0 15.08,-2.83 20.29,-8.484 5.23,-5.663 7.85,-12.75 7.85,-21.261 z m 35.83,4.726 c 0,6.172 -1.3,11.132 -3.9,14.818 -2.56,3.712 -6.87,5.558 -12.92,5.558 -4.96,0 -9.32,-2.13 -13.09,-6.364 -3.73,-4.227 -5.6,-8.903 -5.6,-14.012 z m -75.33,61.672 c 2.44,0 4.46,-0.782 6.1,-2.364 1.56,-1.714 2.36,-3.739 2.36,-6.073 0,-2.391 -0.83,-4.386 -2.44,-6.023 -1.63,-1.609 -3.63,-2.415 -5.99,-2.415 -2.34,0 -4.32,0.835 -5.95,2.494 -1.66,1.528 -2.52,3.506 -2.52,5.944 0,2.39 0.83,4.385 2.44,5.994 1.64,1.64 3.64,2.443 6,2.443 z m -6.83,-55.523 v -74.89 c 0,-3.917 -0.37,-6.981 -1.09,-9.237 -0.75,-2.259 -2.05,-3.401 -3.92,-3.401 -1.32,0 -2.26,0.366 -2.83,1.063 -0.64,0.73 -1.29,2.546 -1.97,5.479 -0.81,2.982 -2.68,4.488 -5.63,4.488 -1.77,0 -3.17,-0.568 -4.21,-1.711 -1.04,-1.145 -1.56,-2.801 -1.56,-4.983 0,-2.13 0.99,-4.155 3.01,-6.074 2,-1.924 4.55,-2.879 7.64,-2.879 2.98,0 5.47,0.386 7.48,1.166 1.99,0.805 4.54,2.516 7.57,5.191 3.04,2.648 5.32,7.087 6.88,13.266 1.53,6.172 2.31,13.028 2.31,20.531 v 70.861 l -11.55,-3.738 c -5.17,-1.661 -9.74,-2.801 -13.68,-3.396 v -3.14 H 748 c 3.5,0 5.97,-0.598 7.45,-1.82 1.38,-1.374 2.05,-3.609 2.05,-6.776 z m -86.61,5.01 c 0,3.764 -0.89,6.228 -2.68,7.427 -1.76,1.189 -4.72,1.79 -8.88,1.79 v 3.114 h 36.78 v -3.114 c -4.15,0 -7.11,-0.601 -8.87,-1.79 -1.8,-1.199 -2.68,-3.663 -2.68,-7.427 v -41.118 l 29.6,42.337 c 0,3.14 -0.91,5.27 -2.71,6.357 -1.79,1.096 -4.72,1.641 -8.77,1.641 v 3.114 h 36.7 v -3.114 c -4.04,0 -7,-0.601 -8.87,-1.741 -1.79,-1.218 -2.68,-3.712 -2.68,-7.476 V 116.68 c 0,-3.715 0.91,-6.181 2.71,-7.4 1.78,-1.195 4.74,-1.816 8.84,-1.816 v -3.115 h -36.7 v 3.115 c 4.16,0 7.09,0.647 8.8,1.892 1.79,1.166 2.68,3.609 2.68,7.324 v 41.14 l -29.6,-42.361 c 0,-3.091 0.94,-5.165 2.81,-6.229 1.79,-1.169 4.7,-1.766 8.74,-1.766 v -3.115 h -36.78 v 3.115 c 4.16,0 7.12,0.647 8.88,1.892 1.79,1.166 2.68,3.609 2.68,7.324 z m -55.37,-57.78 c 6.28,0 11.14,2.83 14.56,8.487 3.43,5.634 5.14,11.863 5.14,18.663 0,10.386 -1.79,19.626 -5.4,27.726 -3.61,8.069 -9.6,12.121 -18.01,12.121 -7.16,0 -12.41,-2.728 -15.79,-8.204 -3.37,-5.478 -5.06,-12.199 -5.06,-20.17 0,-9.472 2.03,-18.273 6.08,-26.424 4.07,-8.121 10.23,-12.199 18.48,-12.199 z m 31.17,106.843 c 0,-4.521 -1.03,-8.335 -3.11,-11.452 -2.08,-3.114 -4.57,-5.221 -7.45,-6.281 -1.56,-0.548 -3.5,-0.987 -5.82,-1.272 -2.31,-0.307 -5.11,-0.465 -8.41,-0.465 -3.48,0 -6.48,-0.08 -8.95,-0.238 -2.49,-0.155 -5.27,-0.36 -8.3,-0.671 -4.96,-0.621 -9.74,-4.494 -14.28,-11.683 -4.57,-7.163 -6.86,-14.716 -6.86,-22.609 l 0.32,-0.31 c 4.1,6.129 8.3,10.98 12.59,14.487 4.28,3.528 9.68,5.291 16.22,5.291 11.81,0 21,-3.451 27.59,-10.353 6.59,-6.882 9.89,-16.278 9.89,-28.143 0,-10.535 -3.61,-19.495 -10.82,-26.837 -7.24,-7.348 -16.12,-11.033 -26.66,-11.033 -8.57,0 -16.62,3.477 -24.12,10.459 -7.5,6.961 -11.24,18.095 -11.24,33.332 0,15.937 3.12,29.877 9.35,41.865 6.23,11.994 16.3,17.994 30.19,17.994 h 15.05 c 3.9,0 6.67,0.545 8.34,1.635 1.63,1.086 2.77,3.19 3.37,6.284 z m -150.47,-54.05 c 0,3.194 -0.65,5.426 -1.97,6.753 -1.48,1.222 -3.97,1.843 -7.53,1.843 h -1.97 v 3.117 c 3.95,0.595 8.51,1.735 13.68,3.396 l 11.55,3.738 v -13.081 c 2.88,3.818 6.41,6.932 10.56,9.399 4.15,2.46 8.47,3.682 12.93,3.682 9.16,0 16.48,-3.24 21.91,-9.709 5.42,-6.463 8.12,-14.484 8.12,-24.058 0,-11.268 -3.21,-21.132 -9.65,-29.594 -6.6,-8.666 -15.32,-13.005 -26.17,-13.005 -3.79,0 -7.03,0.363 -9.76,1.066 -2.7,0.701 -5.35,2.075 -7.94,4.125 V 80.338 c 0,-3.762 0.88,-6.232 2.62,-7.401 1.74,-1.14 4.7,-1.734 8.85,-1.734 v -3.114 h -36.7 v 3.114 c 4.1,0 7.04,0.594 8.8,1.734 1.79,1.169 2.67,3.639 2.67,7.401 z m 13.76,-42.51 c 1.22,-3.117 3.61,-5.584 7.14,-7.48 1.68,-0.855 3.45,-1.535 5.29,-2.056 1.85,-0.49 3.66,-0.747 5.43,-0.747 7.16,0 12.61,3.137 16.36,9.398 3.75,6.256 5.62,13.211 5.62,20.869 0,8.461 -1.84,15.888 -5.55,22.219 -3.69,6.334 -9.53,9.501 -17.49,9.501 -4.11,0 -7.82,-1.196 -11.17,-3.61 -3.34,-2.414 -5.21,-4.983 -5.63,-7.734 z m -30.58,60.736 h -3.86 c -2.19,9.108 -6.55,16.403 -13.07,21.858 -6.51,5.446 -14.48,8.171 -23.9,8.171 -13.29,0 -23.44,-4.796 -30.5,-14.376 -7.03,-9.58 -10.56,-21.131 -10.56,-34.652 0,-15.914 3.76,-28.553 11.26,-37.876 7.5,-9.319 17.47,-13.989 29.95,-13.989 8.62,0 16.05,1.793 22.28,5.373 6.23,3.556 12.17,8.853 17.8,15.836 l 2.57,-2.493 c -6.66,-9.347 -13.86,-15.757 -21.51,-19.258 -7.66,-3.51 -15.17,-5.247 -22.51,-5.247 -16.56,0 -30.52,4.804 -41.84,14.379 -11.35,9.581 -17,23.154 -17,40.755 0,16.793 5.55,30.525 16.68,41.248 11.14,10.716 25.08,16.095 41.88,16.095 4.59,0 9.57,-0.68 14.9,-2.06 l 16.19,-4.046 c 2.67,0 4.26,1.691 4.7,5.039 h 3.11 z M 272.88,107.464 c 4.75,0 8.07,0.647 9.97,1.892 1.87,1.119 2.8,3.557 2.8,7.324 v 52.742 c 0,1.379 -0.26,2.311 -0.75,2.83 -0.68,0.386 -1.92,0.597 -3.74,0.597 -6.33,0 -11.34,-1.969 -14.98,-5.891 -3.66,-3.92 -5.5,-8.907 -5.5,-14.924 h -3.71 l 1.3,25.541 h 68.5 l 1.22,-25.541 h -3.71 c 0,5.865 -1.82,10.819 -5.45,14.818 -3.61,3.999 -8.6,5.997 -14.93,5.997 -2.07,0 -3.37,-0.211 -3.84,-0.597 -0.49,-0.416 -0.72,-1.348 -0.72,-2.83 V 116.68 c 0,-3.715 0.98,-6.158 2.95,-7.324 1.98,-1.245 5.25,-1.892 9.81,-1.892 v -3.115 h -39.22 z m -19.86,20.218 c -4.28,-8.254 -8.87,-14.485 -13.86,-18.66 -4.96,-4.178 -11.34,-6.284 -19.15,-6.284 -7.3,0 -14.07,3.091 -20.33,9.267 -6.26,6.208 -9.39,15.677 -9.39,28.451 0,11.112 3.4,20.323 10.22,27.671 6.83,7.321 15.45,10.977 25.88,10.977 6.1,0 11.53,-1.271 16.33,-3.814 4.78,-2.52 7.16,-6.282 7.16,-11.239 0,-2.39 -0.69,-4.359 -2.15,-5.944 -1.46,-1.585 -3.22,-2.361 -5.29,-2.361 -2.37,0 -4.37,0.776 -5.93,2.361 -1.63,1.48 -2.43,3.762 -2.43,6.85 0,2.777 -0.99,4.907 -2.96,6.386 -2.08,1.377 -4.7,2.051 -7.84,2.051 -6.55,0 -11.55,-2.774 -15.01,-8.332 -3.47,-5.555 -5.22,-11.783 -5.22,-18.662 0,-8.385 2.16,-15.759 6.45,-22.169 4.28,-6.414 10.33,-9.631 18.19,-9.631 4.67,0 8.95,1.351 12.9,4.075 3.92,2.699 7.04,6.286 9.29,10.75 z m -141.9,32.575 c 0,3.194 -0.65,5.426 -1.98,6.753 -1.47,1.222 -3.97,1.843 -7.52,1.843 h -1.97 v 3.117 c 3.94,0.595 8.51,1.735 13.67,3.396 l 11.56,3.738 v -13.081 c 2.88,3.818 6.41,6.932 10.56,9.399 4.15,2.46 8.46,3.682 12.93,3.682 9.16,0 16.48,-3.24 21.9,-9.709 5.43,-6.463 8.13,-14.484 8.13,-24.058 0,-11.268 -3.22,-21.132 -9.66,-29.594 -6.59,-8.666 -15.31,-13.005 -26.16,-13.005 -3.79,0 -7.04,0.363 -9.76,1.066 -2.7,0.701 -5.35,2.075 -7.94,4.125 V 80.338 c 0,-3.762 0.88,-6.232 2.62,-7.401 1.74,-1.14 4.69,-1.734 8.85,-1.734 v -3.114 h -36.7 v 3.114 c 4.1,0 7.03,0.594 8.79,1.734 1.8,1.169 2.68,3.639 2.68,7.401 z m 13.76,-42.51 c 1.22,-3.117 3.61,-5.584 7.13,-7.48 1.69,-0.855 3.46,-1.535 5.3,-2.056 1.84,-0.49 3.66,-0.747 5.43,-0.747 7.16,0 12.61,3.137 16.35,9.398 3.76,6.256 5.63,13.211 5.63,20.869 0,8.461 -1.85,15.888 -5.56,22.219 -3.68,6.334 -9.52,9.501 -17.49,9.501 -4.1,0 -7.81,-1.196 -11.17,-3.61 -3.34,-2.414 -5.21,-4.983 -5.62,-7.734 z M 27,165.244 c 0,3.814 -0.89,6.307 -2.68,7.476 -1.76,1.14 -4.69,1.741 -8.8,1.741 v 3.114 h 36.7 v -3.114 c -4.04,0 -7.01,-0.601 -8.87,-1.741 -1.8,-1.218 -2.68,-3.712 -2.68,-7.476 v -23.936 c 1.87,0.601 7.09,5.168 15.6,13.682 4.21,4.154 7.43,7.397 9.64,9.709 2.2,2.285 3.45,3.688 3.76,4.131 0.54,0.694 0.83,1.397 0.83,2.05 0,1.53 -0.89,2.514 -2.65,2.96 -0.99,0.205 -1.98,0.36 -2.98,0.465 -1.02,0.1 -2.21,0.156 -3.56,0.156 v 3.114 h 31.41 v -3.114 c -3.4,0 -6.15,-0.575 -8.23,-1.711 -2.08,-1.146 -5.74,-4.108 -10.96,-8.857 L 53.75,145.802 85.24,113.094 c 2.05,-2.13 3.66,-3.477 4.88,-4.022 1.01,-0.671 3.09,-1.351 6.23,-2.051 v -2.672 H 61 v 2.672 c 3.34,0 5.5,0.132 6.46,0.416 0.96,0.261 1.46,0.753 1.46,1.477 0,0.498 -1.3,2.367 -3.9,5.56 -2.6,3.191 -6.93,8.019 -13,14.486 -6.1,6.46 -9.87,9.779 -11.35,9.99 v -22.27 c 0,-3.715 0.91,-6.181 2.7,-7.4 1.8,-1.195 4.76,-1.816 8.85,-1.816 v -3.115 h -36.7 v 3.115 c 4.15,0 7.08,0.647 8.8,1.892 1.79,1.166 2.68,3.609 2.68,7.324 z m -126.626,0 c 0,3.764 -0.882,6.228 -2.672,7.427 -1.766,1.189 -4.728,1.79 -8.877,1.79 v 3.114 h 36.779 v -3.114 c -4.158,0 -7.114,-0.601 -8.877,-1.79 -1.793,-1.199 -2.675,-3.663 -2.675,-7.427 v -41.118 l 29.588,42.337 c 0,3.14 -0.904,5.27 -2.699,6.357 -1.791,1.096 -4.723,1.641 -8.772,1.641 v 3.114 h 36.701 v -3.114 c -4.05,0 -7,-0.601 -8.87,-1.741 -1.8,-1.218 -2.68,-3.712 -2.68,-7.476 V 116.68 c 0,-3.715 0.91,-6.181 2.7,-7.4 1.79,-1.195 4.75,-1.816 8.85,-1.816 v -3.115 h -36.701 v 3.115 c 4.157,0 7.084,0.647 8.801,1.892 1.79,1.166 2.67,3.609 2.67,7.324 v 41.14 l -29.588,-42.361 c 0,-3.091 0.934,-5.165 2.804,-6.229 1.793,-1.169 4.699,-1.766 8.748,-1.766 v -3.115 h -36.779 v 3.115 c 4.149,0 7.111,0.647 8.877,1.892 1.79,1.166 2.672,3.609 2.672,7.324 z m -86.617,0 c 0,3.764 -0.882,6.228 -2.672,7.427 -1.767,1.189 -4.728,1.79 -8.88,1.79 v 3.114 h 35.953 v -3.114 c -3.738,0 -6.466,-0.601 -8.179,-1.79 -1.688,-1.199 -2.546,-3.663 -2.546,-7.398 v -20.534 h 29.596 v 20.534 c 0,3.63 -0.884,6.07 -2.625,7.318 -1.737,1.249 -4.441,1.87 -8.101,1.87 v 3.114 h 35.951 v -3.114 c -4.046,0 -7.002,-0.601 -8.871,-1.741 -1.796,-1.218 -2.678,-3.712 -2.678,-7.476 V 116.68 c 0,-3.715 0.911,-6.181 2.701,-7.4 1.793,-1.195 4.749,-1.816 8.848,-1.816 v -3.115 h -35.951 v 3.115 c 3.845,0 6.596,0.647 8.204,1.892 1.687,1.166 2.522,3.609 2.522,7.324 v 22.27 h -29.596 v -22.27 c 0,-3.665 0.884,-6.102 2.625,-7.347 1.737,-1.248 4.438,-1.869 8.1,-1.869 v -3.115 h -35.953 v 3.115 c 4.152,0 7.113,0.647 8.88,1.892 1.79,1.166 2.672,3.609 2.672,7.324 z m -74.888,-15.885 -0.156,-2.048 v -1.687 c 0,-4.102 0.777,-8.54 2.312,-13.295 1.559,-4.773 4.31,-8.93 8.306,-12.432 3.972,-3.53 8.826,-5.297 14.56,-5.297 6.126,0 11.37,1.53 15.706,4.571 4.306,3.038 8.068,6.956 11.264,11.784 l 2.672,-1.688 c -3.606,-7.553 -8.226,-13.861 -13.886,-18.924 -5.634,-5.059 -12.097,-7.605 -19.336,-7.605 -10.277,0 -18.404,3.272 -24.375,9.835 -5.947,6.568 -8.927,15.109 -8.927,25.624 0,11.188 3.038,20.815 9.085,28.866 6.047,8.019 14.511,12.041 25.359,12.041 8.306,0 15.079,-2.83 20.3,-8.484 5.218,-5.663 7.837,-12.75 7.837,-21.261 z m 35.823,4.726 c 0,6.172 -1.3,11.132 -3.896,14.818 -2.569,3.712 -6.876,5.558 -12.923,5.558 -4.959,0 -9.322,-2.13 -13.083,-6.364 -3.739,-4.227 -5.608,-8.903 -5.608,-14.012 z m -116.677,11.159 c 0,3.764 -0.882,6.228 -2.672,7.427 -1.766,1.189 -4.728,1.79 -8.88,1.79 v 3.114 h 40.518 c 7.711,0 13.682,-1.459 17.912,-4.359 4.231,-2.936 6.358,-7.401 6.358,-13.424 0,-4.36 -1.322,-7.861 -3.997,-10.536 -2.648,-2.648 -6.984,-4.649 -12.955,-5.967 7.949,-1.407 13.421,-3.718 16.38,-6.885 2.962,-3.164 4.439,-7.213 4.439,-12.12 0,-6.646 -2.672,-11.629 -8.019,-14.951 -5.349,-3.323 -12.384,-4.984 -21.102,-4.984 h -39.534 v 3.115 c 4.152,0 7.114,0.647 8.88,1.921 1.79,1.169 2.672,3.58 2.672,7.295 z m 13.676,-18.375 c 0,-1.43 1.506,-2.13 4.494,-2.13 6.489,0 11.678,0.987 15.574,2.959 3.865,1.972 5.813,5.604 5.813,10.875 0,5.062 -1.661,8.695 -4.957,10.928 -3.299,2.232 -7.943,3.348 -13.913,3.348 -2.909,0 -4.779,-0.211 -5.631,-0.597 -0.908,-0.569 -1.38,-1.269 -1.38,-2.127 z m 0,-33.616 c 0,-1.767 0.396,-2.91 1.143,-3.425 0.755,-0.495 2.572,-0.756 5.402,-0.756 14.666,0 21.984,4.957 21.984,14.904 0,6.536 -2.182,10.846 -6.568,12.923 -4.383,2.074 -9.94,3.117 -16.638,3.117 h -3.58 c -1.169,0 -1.743,-0.545 -1.743,-1.664 z m -101.719,47.004 c 0,3.194 -0.654,5.426 -1.978,6.753 -1.476,1.222 -3.97,1.843 -7.523,1.843 h -1.972 v 3.117 c 3.941,0.595 8.511,1.735 13.676,3.396 l 11.552,3.738 v -13.081 c 2.879,3.818 6.409,6.932 10.565,9.399 4.148,2.46 8.461,3.682 12.925,3.682 9.164,0 16.483,-3.24 21.906,-9.709 5.425,-6.463 8.13,-14.484 8.13,-24.058 0,-11.268 -3.223,-21.132 -9.66,-29.594 -6.591,-8.666 -15.313,-13.005 -26.165,-13.005 -3.791,0 -7.034,0.363 -9.762,1.066 -2.696,0.701 -5.347,2.075 -7.939,4.125 V 80.338 c 0,-3.762 0.881,-6.232 2.624,-7.401 1.735,-1.14 4.694,-1.734 8.849,-1.734 v -3.114 h -36.701 v 3.114 c 4.102,0 7.034,0.594 8.792,1.734 1.799,1.169 2.681,3.639 2.681,7.401 z m 13.755,-42.51 c 1.218,-3.117 3.609,-5.584 7.136,-7.48 1.688,-0.855 3.455,-1.535 5.298,-2.056 1.845,-0.49 3.659,-0.747 5.426,-0.747 7.163,0 12.615,3.137 16.353,9.398 3.762,6.256 5.631,13.211 5.631,20.869 0,8.461 -1.846,15.888 -5.558,22.219 -3.682,6.334 -9.524,9.501 -17.49,9.501 -4.102,0 -7.813,-1.196 -11.166,-3.61 -3.345,-2.414 -5.214,-4.983 -5.63,-7.734 z m -135.964,75.584 c 0,6.176 -1.198,10.329 -3.583,12.403 -2.546,1.972 -6.909,2.962 -13.082,2.962 v 3.115 h 50.122 v -3.115 c -6.363,0 -10.694,-0.99 -13.081,-2.932 -2.391,-1.945 -3.583,-6.102 -3.583,-12.433 V 122.44 c 0,-4.101 1.139,-7.06 3.451,-8.851 2.311,-1.79 5.736,-2.698 10.225,-2.698 h 26.636 c 4.617,0 8.069,0.853 10.404,2.596 2.34,1.711 3.509,4.693 3.509,8.953 v 70.891 c 0,6.176 -1.198,10.329 -3.583,12.403 -2.522,1.972 -6.908,2.962 -13.16,2.962 v 3.115 h 50.2 v -3.115 c -6.439,0 -10.825,-0.99 -13.16,-2.932 -2.335,-1.945 -3.504,-6.102 -3.504,-12.433 V 122.91 c 0,-6.183 1.219,-10.308 3.659,-12.356 2.438,-2.05 6.777,-3.09 13.005,-3.09 v -32.71 h -3.114 c -3.398,13.555 -6.595,21.858 -9.557,24.949 -2.956,3.085 -7.807,4.646 -14.557,4.646 h -93.912 v 3.115 c 6.381,0 10.773,0.984 13.132,2.958 2.364,1.999 3.533,6.15 3.533,12.488 v 70.421"
         style="fill:#231f20;fill-opacity:1;fill-rule:nonzero;stroke:none"
         transform="matrix(1.3333333,0,0,-1.3333333,1409.44,356.06267)" />
      <path
         id="path3"
         d="m 0,0 v 26.56 c -7.66,-3.067 -12.59,-5.221 -14.82,-6.466 -4.02,-2.232 -6.88,-4.57 -8.59,-7.013 -1.74,-2.435 -2.6,-5.089 -2.6,-7.996 0,-3.629 1.09,-6.665 3.28,-9.085 2.17,-2.381 4.69,-3.603 7.52,-3.603 3.87,0 8.93,2.54 15.21,7.603 z m 0,-4.928 c -7.14,-5.529 -11.62,-8.725 -13.47,-9.58 -2.73,-1.275 -5.63,-1.919 -8.72,-1.919 -4.83,0 -8.8,1.655 -11.91,4.954 -3.12,3.293 -4.68,7.632 -4.68,13.008 0,3.398 0.76,6.334 2.29,8.827 2.07,3.422 5.68,6.668 10.82,9.732 5.14,3.032 13.7,6.724 25.67,11.083 v 2.751 c 0,6.926 -1.09,11.707 -3.3,14.3 -2.2,2.569 -5.42,3.873 -9.63,3.873 -3.19,0 -5.73,-0.861 -7.6,-2.599 -1.92,-1.713 -2.88,-3.688 -2.88,-5.92 l 0.15,-4.413 c 0,-2.337 -0.59,-4.125 -1.79,-5.399 -1.19,-1.274 -2.74,-1.893 -4.67,-1.893 -1.89,0 -3.42,0.651 -4.62,1.975 -1.19,1.321 -1.79,3.114 -1.79,5.394 0,4.362 2.23,8.358 6.7,12.02 4.46,3.633 10.71,5.479 18.79,5.479 6.17,0 11.24,-1.04 15.22,-3.118 2.98,-1.582 5.18,-4.051 6.61,-7.394 0.91,-2.183 1.35,-6.624 1.35,-13.368 V 9.213 c 0,-6.644 0.13,-10.719 0.39,-12.225 0.26,-1.477 0.68,-2.493 1.24,-2.983 0.6,-0.521 1.28,-0.779 2.03,-0.779 0.8,0 1.53,0.182 2.12,0.545 1.07,0.65 3.12,2.522 6.16,5.555 v -4.254 c -5.65,-7.609 -11.08,-11.42 -16.28,-11.42 -2.46,0 -4.44,0.855 -5.91,2.593 -1.48,1.714 -2.23,4.67 -2.29,8.827 z M -58.71,56.745 V 0.755 c 0,-4.359 0.31,-7.245 0.96,-8.695 0.62,-1.453 1.56,-2.517 2.8,-3.246 1.25,-0.7 3.53,-1.064 6.83,-1.064 v -2.727 h -33.85 v 2.727 c 3.4,0 5.68,0.334 6.83,1.011 1.17,0.648 2.1,1.743 2.77,3.27 0.7,1.506 1.04,4.415 1.04,8.724 v 26.866 c 0,7.552 -0.23,12.43 -0.67,14.663 -0.37,1.637 -0.93,2.751 -1.69,3.375 -0.75,0.65 -1.79,0.961 -3.12,0.961 -1.42,0 -3.14,-0.387 -5.16,-1.143 l -1.07,2.751 20.98,8.517 z m -6.31,36.413 c 2.13,0 3.94,-0.75 5.45,-2.23 1.48,-1.506 2.23,-3.322 2.23,-5.452 0,-2.127 -0.75,-3.946 -2.23,-5.476 -1.51,-1.505 -3.32,-2.282 -5.45,-2.282 -2.13,0 -3.95,0.777 -5.48,2.282 -1.5,1.53 -2.28,3.349 -2.28,5.476 0,2.13 0.75,3.946 2.26,5.452 1.48,1.48 3.32,2.23 5.5,2.23 z m -76.49,-55.363 c 3.14,3.036 5.73,5.086 7.76,6.1 2.67,1.354 5.37,2.054 8.04,2.054 5.09,0 9.61,-2.423 13.58,-7.196 3.97,-4.798 5.97,-11.651 5.97,-20.586 0,-9.674 -2,-17.048 -5.97,-22.111 -3.97,-5.062 -8.28,-7.605 -12.88,-7.605 -2.9,0 -5.73,0.653 -8.48,1.945 -2.78,1.274 -5.46,3.19 -8.02,5.739 z m 0,4.881 v 50.482 h -3.43 l -20.92,-8.514 1.06,-2.675 c 2.13,0.835 3.92,1.222 5.32,1.222 1.22,0 2.23,-0.308 3.07,-0.984 0.8,-0.648 1.4,-1.893 1.76,-3.712 0.39,-1.84 0.57,-6.698 0.57,-14.614 V -8.277 c 4.36,-2.938 8.65,-5.139 12.82,-6.618 4.18,-1.485 8.31,-2.206 12.36,-2.206 8.67,0 16.54,3.243 23.57,9.729 8.23,7.55 12.33,17.523 12.33,29.88 0,10.612 -2.68,18.947 -8,25.073 -5.32,6.096 -11.54,9.164 -18.68,9.164 -7.81,0 -15.09,-4.7 -21.83,-14.069 z m -50.57,14.069 v -15.68 c 5.81,10.459 11.81,15.68 17.93,15.68 2.79,0 5.09,-0.862 6.94,-2.546 1.82,-1.711 2.73,-3.686 2.73,-5.892 0,-1.998 -0.66,-3.662 -1.98,-5.033 -1.32,-1.377 -2.88,-2.057 -4.72,-2.057 -1.77,0 -3.77,0.885 -5.97,2.625 -2.21,1.741 -3.85,2.619 -4.91,2.619 -0.91,0 -1.9,-0.489 -2.96,-1.502 -2.29,-2.078 -4.65,-5.502 -7.06,-10.278 V 1.297 c 0,-3.838 0.47,-6.77 1.43,-8.745 0.67,-1.377 1.84,-2.519 3.5,-3.427 1.69,-0.909 4.08,-1.375 7.22,-1.375 v -2.727 h -35.66 v 2.727 c 3.55,0 6.19,0.572 7.91,1.688 1.27,0.806 2.16,2.101 2.67,3.867 0.24,0.885 0.37,3.32 0.37,7.395 v 27 c 0,8.1 -0.16,12.925 -0.5,14.481 -0.31,1.529 -0.93,2.672 -1.81,3.375 -0.89,0.7 -2,1.064 -3.33,1.064 -1.55,0 -3.32,-0.387 -5.31,-1.143 l -0.76,2.751 21.07,8.517 z m -77.8,-23.88 h 32.25 c -0.26,4.465 -0.79,7.602 -1.61,9.419 -1.25,2.83 -3.15,5.062 -5.66,6.7 -2.52,1.608 -5.14,2.437 -7.87,2.437 -4.2,0 -7.97,-1.629 -11.29,-4.907 -3.32,-3.269 -5.27,-7.834 -5.82,-13.649 z m 0,-4.412 c -0.05,-10.36 2.45,-18.457 7.53,-24.352 5.07,-5.865 11.04,-8.792 17.86,-8.792 4.57,0 8.54,1.242 11.92,3.762 3.37,2.487 6.18,6.797 8.46,12.867 l 2.36,-1.5 c -1.06,-6.961 -4.16,-13.292 -9.27,-18.976 -5.14,-5.712 -11.55,-8.563 -19.23,-8.563 -8.39,0 -15.55,3.243 -21.5,9.756 -5.96,6.518 -8.92,15.293 -8.92,26.294 0,11.915 3.03,21.211 9.16,27.855 6.1,6.668 13.76,10.02 22.99,10.02 7.82,0 14.23,-2.57 19.25,-7.738 5,-5.141 7.52,-12.017 7.52,-20.633 z m -31.79,62.033 V 54.82 h -2.8 c -0.94,6.855 -2.57,12.307 -4.91,16.353 -2.36,4.078 -5.74,7.295 -10.1,9.66 -4.36,2.384 -8.85,3.58 -13.52,3.58 -5.27,0 -9.63,-1.609 -13.09,-4.826 -3.44,-3.222 -5.16,-6.881 -5.16,-10.983 0,-3.138 1.09,-6.015 3.27,-8.587 3.14,-3.817 10.61,-8.88 22.43,-15.214 9.63,-5.162 16.22,-9.135 19.73,-11.912 3.52,-2.754 6.25,-6.026 8.15,-9.765 1.89,-3.761 2.85,-7.678 2.85,-11.78 0,-7.813 -3.03,-14.543 -9.09,-20.194 -6.07,-5.66 -13.85,-8.49 -23.38,-8.49 -3.01,0 -5.82,0.237 -8.47,0.7 -1.55,0.237 -4.82,1.166 -9.76,2.754 -4.93,1.608 -8.07,2.411 -9.39,2.411 -1.27,0 -2.26,-0.387 -3.02,-1.137 -0.72,-0.759 -1.26,-2.341 -1.62,-4.728 h -2.81 v 35.355 h 2.81 c 1.31,-7.397 3.11,-12.932 5.34,-16.617 2.23,-3.656 5.63,-6.715 10.23,-9.161 4.57,-2.414 9.6,-3.636 15.08,-3.636 6.34,0 11.34,1.664 15.03,5.016 3.66,3.342 5.5,7.292 5.5,11.862 0,2.54 -0.7,5.086 -2.07,7.679 -1.41,2.598 -3.58,4.983 -6.52,7.215 -1.97,1.53 -7.37,4.755 -16.2,9.709 -8.82,4.934 -15.08,8.877 -18.82,11.813 -3.74,2.956 -6.54,6.205 -8.49,9.732 -1.92,3.554 -2.88,7.471 -2.88,11.734 0,7.394 2.83,13.758 8.52,19.104 5.68,5.347 12.9,8.019 21.67,8.019 5.48,0 11.29,-1.324 17.42,-4.023 2.83,-1.268 4.85,-1.892 6,-1.892 1.32,0 2.41,0.387 3.24,1.166 0.83,0.805 1.5,2.39 2.03,4.749 z M -431.8,49.215 V 3.427 c 0,-6.489 0.73,-10.591 2.13,-12.328 1.9,-2.232 4.39,-3.349 7.53,-3.349 h 6.33 v -2.727 h -41.61 v 2.727 h 3.12 c 2.02,0 3.89,0.519 5.55,1.533 1.66,1.01 2.83,2.387 3.45,4.098 0.65,1.738 0.96,5.086 0.96,10.046 v 45.788 h -13.55 v 5.479 h 13.55 v 4.541 c 0,6.955 1.12,12.847 3.35,17.651 2.23,4.825 5.64,8.719 10.23,11.678 4.59,2.962 9.74,4.441 15.47,4.441 5.33,0 10.23,-1.713 14.69,-5.168 2.93,-2.279 4.39,-4.851 4.39,-7.681 0,-1.53 -0.65,-2.959 -1.97,-4.281 -1.33,-1.35 -2.73,-2.027 -4.26,-2.027 -1.17,0 -2.39,0.419 -3.69,1.245 -1.3,0.829 -2.88,2.652 -4.74,5.4 -1.87,2.777 -3.62,4.623 -5.17,5.607 -1.58,0.964 -3.33,1.43 -5.24,1.43 -2.35,0 -4.32,-0.624 -5.95,-1.869 -1.61,-1.222 -2.78,-3.17 -3.51,-5.766 -0.7,-2.619 -1.06,-9.343 -1.06,-20.191 v -5.01 h 17.96 v -5.479 z m -73.38,2.573 c -2.67,0 -5.37,-0.783 -8.1,-2.391 -2.7,-1.608 -4.9,-4.386 -6.57,-8.408 -1.68,-3.999 -2.51,-9.141 -2.51,-15.419 0,-10.149 2.02,-18.897 6.05,-26.244 4.02,-7.348 9.34,-11.031 15.93,-11.031 4.91,0 8.96,2.025 12.18,6.074 3.19,4.075 4.77,11.03 4.77,20.921 0,12.38 -2.64,22.119 -7.99,29.203 -3.59,4.881 -8.18,7.295 -13.76,7.295 z m 2.37,4.957 c 10.53,0 18.99,-4.026 25.4,-12.018 5.43,-6.852 8.13,-14.719 8.13,-23.572 0,-6.252 -1.51,-12.56 -4.49,-18.949 -2.99,-6.387 -7.12,-11.212 -12.35,-14.456 -5.25,-3.243 -11.09,-4.851 -17.53,-4.851 -10.51,0 -18.84,4.178 -25.02,12.533 -5.22,7.061 -7.84,14.977 -7.84,23.728 0,6.41 1.58,12.744 4.75,19.051 3.17,6.308 7.35,10.978 12.51,13.99 5.17,3.038 10.64,4.544 16.44,4.544 z m -88.6,0 V 33.017 h -2.52 c -1.91,7.45 -4.38,12.513 -7.4,15.211 -3.03,2.672 -6.87,4.022 -11.52,4.022 -3.56,0 -6.41,-0.931 -8.59,-2.824 -2.18,-1.869 -3.28,-3.949 -3.28,-6.231 0,-2.833 0.81,-5.271 2.42,-7.292 1.58,-2.08 4.77,-4.283 9.6,-6.624 l 11.09,-5.397 c 10.3,-5.009 15.44,-11.628 15.44,-19.857 0,-6.334 -2.38,-11.423 -7.19,-15.316 -4.77,-3.868 -10.15,-5.81 -16.06,-5.81 -4.29,0 -9.14,0.753 -14.62,2.282 -1.66,0.489 -3.03,0.75 -4.1,0.75 -1.17,0 -2.08,-0.647 -2.75,-1.972 h -2.49 V 8.827 h 2.49 c 1.43,-7.084 4.15,-12.431 8.15,-16.043 3.99,-3.604 8.49,-5.394 13.45,-5.394 3.5,0 6.35,1.011 8.56,3.059 2.21,2.074 3.3,4.541 3.3,7.421 0,3.509 -1.22,6.442 -3.69,8.83 -2.44,2.384 -7.34,5.396 -14.72,9.058 -7.34,3.633 -12.14,6.929 -14.43,9.865 -2.29,2.906 -3.43,6.539 -3.43,10.951 0,5.739 1.98,10.538 5.9,14.382 3.92,3.84 9.01,5.789 15.24,5.789 2.74,0 6.07,-0.598 9.96,-1.767 2.6,-0.753 4.31,-1.143 5.17,-1.143 0.83,0 1.45,0.179 1.92,0.545 0.44,0.364 0.98,1.143 1.58,2.365 h 2.52"
         style="fill:#231f20;fill-opacity:1;fill-rule:nonzero;stroke:none"
         transform="matrix(1.3333333,0,0,-1.3333333,2278.8,431.72267)" />
      <path
         id="path4"
         d="m 0,0 c 4.134,0 7.026,1.626 8.707,4.898 1.679,3.252 2.505,7.196 2.505,11.833 0,6.129 -0.928,11.456 -2.818,16.008 -1.869,4.553 -5.224,6.818 -10.055,6.818 -4.843,0 -8.203,-1.281 -10.072,-3.856 -1.884,-2.566 -2.821,-6.023 -2.821,-10.347 0,-6.422 1.022,-12.252 3.067,-17.497 C -9.433,2.613 -5.607,0 0,0 Z m 18.311,70.085 c -3.823,0 -7.582,-0.952 -11.268,-2.839 C 3.671,65.521 0.364,63.007 -2.888,59.74 -9.085,53.523 -12.58,46.409 -13.391,38.449 l 0.208,-0.208 c 2.027,2.236 4.303,3.876 6.817,4.948 2.526,1.061 5.361,1.6 8.549,1.6 5.95,0 10.468,-2.095 13.564,-6.284 3.1,-4.207 4.641,-9.451 4.641,-15.782 0,-6.926 -1.802,-12.894 -5.379,-17.88 -3.589,-4.984 -8.724,-7.474 -15.404,-7.474 -8.01,0 -14.036,3.044 -18.053,9.117 -4.031,6.094 -6.038,13.418 -6.038,21.964 0,3.721 0.396,7.251 1.21,10.591 0.817,3.357 2.062,6.557 3.759,9.636 3.252,6.021 7.195,10.732 11.871,14.122 4.655,3.41 8.962,5.765 12.89,7.096 3.947,1.35 8.154,2.285 12.616,2.818 z m -90.329,0 h 40.389 L -56.253,-2.631 h -6.75 l 22.201,64.205 h -25.09 c -2.634,0 -4.64,-0.553 -6.023,-1.684 -1.404,-1.105 -2.874,-3.525 -4.465,-7.248 l -2.285,0.313 z m -40.213,-35.491 c -4.224,2.595 -7.564,5.326 -10.022,8.203 -2.438,2.871 -3.671,6.299 -3.671,10.243 0,5.672 2.109,10.125 6.334,13.307 4.225,3.202 9.275,4.793 15.164,4.793 4.998,0 9.378,-1.348 13.096,-4.049 3.738,-2.716 5.607,-6.472 5.607,-11.315 0,-4.122 -1.315,-7.375 -3.964,-9.762 -2.628,-2.37 -6.489,-4.861 -11.557,-7.477 3.114,-2.059 5.777,-3.978 8.009,-5.745 2.233,-1.784 4.087,-3.393 5.538,-4.846 2.841,-2.906 4.259,-6.782 4.259,-11.607 0,-5.818 -2.25,-10.442 -6.77,-13.843 -4.512,-3.41 -9.809,-5.127 -15.902,-5.127 -5.971,0 -11.18,1.488 -15.589,4.462 -4.415,2.977 -6.613,7.392 -6.613,13.239 0,4.588 1.492,8.485 4.462,11.684 2.98,3.184 6.856,5.792 11.619,7.84 z m 8.825,5.256 c 3.093,1.596 5.604,3.808 7.523,6.627 1.901,2.824 2.856,5.924 2.856,9.314 0,3.914 -1.139,7.028 -3.424,9.331 -2.265,2.3 -5.403,3.442 -9.346,3.442 -3.513,0 -6.542,-1.089 -9.067,-3.269 -2.543,-2.18 -3.809,-5.054 -3.809,-8.602 0,-3.685 2.218,-7.181 6.647,-10.489 z M -104.534,0 c 3.688,0 6.802,1.207 9.363,3.65 2.546,2.441 3.826,5.453 3.826,9.033 0,4.62 -2.39,8.707 -7.148,12.219 l -11.561,8.411 c -3.217,-1.716 -5.745,-4.157 -7.579,-7.306 -1.852,-3.132 -2.771,-6.624 -2.771,-10.433 0,-4.843 1.403,-8.651 4.21,-11.423 2.8,-2.762 6.694,-4.151 11.66,-4.151 z m -71.118,-1.559 v 2.078 h 2.077 c 4.995,0 8.165,0.471 9.501,1.42 1.33,0.953 2.004,3.598 2.004,7.958 v 44.511 c 0,2.942 -0.279,4.861 -0.83,5.731 -0.571,0.882 -1.353,1.324 -2.373,1.324 -1.142,0 -3.252,-0.791 -6.334,-2.382 l -5.071,-2.578 -1.055,1.969 c 3.135,1.643 5.435,2.891 6.888,3.703 2.06,1.145 3.964,2.232 5.675,3.243 2.095,1.277 3.826,2.385 5.177,3.305 1.558,1.034 3.427,2.364 5.625,3.99 l 0.814,-0.967 V 9.897 c 0,-4.117 0.917,-6.709 2.766,-7.788 1.834,-1.051 4.553,-1.59 8.136,-1.59 h 2.285 v -2.078 h -35.285"
         style="fill:#231f20;fill-opacity:1;fill-rule:nonzero;stroke:none"
         transform="matrix(1.3333333,0,0,-1.3333333,370.536,676.80667)"
         clip-path="url(#clipPath5)" />
      <path
         id="path6"
         d="m 0,0 h 135.097 v -128.66 h 128.66 V -263.754 H 135.097 V -392.42 H 0 v 128.666 H -128.664 V -128.66 L 0,-128.66 V 0"
         style="fill:#ed1c24;fill-opacity:1;fill-rule:evenodd;stroke:none"
         transform="matrix(1.3333333,0,0,-1.3333333,171.552,0)"
         clip-path="url(#clipPath7)" />
    </g>
  </g>
</svg>
