<?xml version="1.0" encoding="UTF-8" standalone="no"?>
<svg
   xmlns:dc="http://purl.org/dc/elements/1.1/"
   xmlns:cc="http://creativecommons.org/ns#"
   xmlns:rdf="http://www.w3.org/1999/02/22-rdf-syntax-ns#"
   xmlns:svg="http://www.w3.org/2000/svg"
   xmlns="http://www.w3.org/2000/svg"
   viewBox="0 0 219.65334 219.65334"
   height="219.65334"
   width="219.65334"
   xml:space="preserve"
   id="svg2"
   version="1.1"><metadata
     id="metadata8"><rdf:RDF><cc:Work
         rdf:about=""><dc:format>image/svg+xml</dc:format><dc:type
           rdf:resource="http://purl.org/dc/dcmitype/StillImage" /><dc:title></dc:title></cc:Work></rdf:RDF></metadata><defs
     id="defs6" /><g
     transform="matrix(1.3333333,0,0,-1.3333333,0,219.65333)"
     id="g10"><g
       transform="scale(0.1)"
       id="g12"><path
         id="path14"
         style="fill:#ffffff;fill-opacity:1;fill-rule:evenodd;stroke:none"
         d="m 823.676,1643.68 c 151.019,0 280.004,-34.04 410.004,-110 131.02,-75 225,-169.04 300,-300 76.02,-131.02 110,-259.035 110,-410.004 0,-151.02 -33.98,-279.028 -110,-409.996 -75,-131.02 -168.98,-225 -300,-300 C 1103.68,37.6602 974.695,3.67969 823.676,3.67969 c -150.969,0 -278.981,33.98051 -410,110.00031 -130.969,75 -223.981,168.98 -300,300 C 38.6758,544.648 3.67578,672.656 3.67578,823.676 c 0,150.969 35.00002,278.984 110.00022,410.004 76.019,130.96 169.031,225 300,300 131.019,75.96 259.031,110 410,110 v 0" /><path
         id="path16"
         style="fill:#231f20;fill-opacity:1;fill-rule:nonzero;stroke:none"
         d="M 823.684,1640 C 672.012,1640 546.129,1606.22 415.523,1530.49 285.707,1456.15 193.605,1364.04 116.859,1231.83 41.1328,1099.54 7.35547,973.652 7.35547,823.672 7.35547,673.648 41.1328,547.77 116.871,415.5 193.563,283.32 285.668,191.211 415.504,116.871 546.055,41.1211 671.934,7.35156 823.684,7.35156 c 150.691,0 280.386,34.78904 408.146,109.50044 129.6,74.187 224.49,169.078 298.66,298.648 75.74,130.5 109.51,256.383 109.51,408.172 0,151.75 -33.77,277.628 -109.5,408.158 -74.22,129.61 -169.11,224.5 -298.64,298.65 C 1103.99,1605.2 974.309,1640 823.684,1640 Z m 0,-1640 C 670.566,0 543.547,34.0703 411.832,110.488 280.828,185.512 187.887,278.449 110.492,411.828 34.0742,545.281 0,672.293 0,823.672 0,975.008 34.0742,1102.02 110.484,1235.5 c 77.442,133.42 170.379,226.36 301.368,301.37 131.769,76.4 258.789,110.48 411.832,110.48 151.98,0 282.846,-35.11 411.856,-110.5 130.69,-74.81 226.44,-170.57 301.34,-301.35 76.4,-131.69 110.48,-258.707 110.48,-411.828 0,-153.164 -34.08,-280.184 -110.49,-411.844 C 1462.02,281.09 1366.26,185.328 1235.51,110.48 1106.61,35.1094 975.742,0 823.684,0" /><path
         id="path18"
         style="fill:#ed1c24;fill-opacity:1;fill-rule:nonzero;stroke:none"
         d="M 1309.69,990.652 H 990.711 V 1309.66 H 656.688 V 990.652 H 337.703 v -333.98 h 318.985 v -319 h 334.023 v 319 h 318.979 v 333.98" /><path
         id="path20"
         style="fill:#231f20;fill-opacity:1;fill-rule:evenodd;stroke:none"
         d="m 1553.68,567.66 -35,11.02 -57.96,-16.02 3.98,13.012 30,8.976 c 6.02,1.024 11.02,2.043 16.99,4.032 -3.01,3.98 -6.99,8.011 -11.99,13.011 l -18.98,25 3.98,11.989 36.99,-48.008 36.02,-11.992 z m -30.97,-76.988 z m 0,0 -71.02,31.019 -10.97,-27.043 -10,4.032 26.99,63.98 10,-3.98 -11.99,-26.989 71.99,-30 z m -54.03,-95 z m 0,0 -73.98,46.019 33.98,53.981 9.03,-6.024 -28.01,-43.976 23.01,-13.981 25.97,40.969 8.01,-5 -25,-40.969 25,-16.019 29.03,45 7.96,-5 z m -17.96,-28.012 z m 0,0 -71.02,51.988 6.99,9.032 71.02,-51.02 z m -41.02,-0.969 z m 0,0 10,6.989 c 6.02,-8.008 8.01,-16.02 8.01,-24.032 0,-7.957 -3.01,-15.968 -9.03,-22.957 -5.97,-7.043 -11.99,-12.043 -18.98,-14.031 -6.99,-1.988 -13.98,-1.988 -21.99,1.02 -6.99,1.992 -14.03,5.968 -21.02,10.968 -6.99,6.024 -11.99,12.043 -15,19.032 -3.01,6.992 -3.01,13.98 -1.99,21.992 1.02,6.988 5,13.976 10,18.976 5,7.043 11.99,11.024 18.98,13.012 7.04,1.988 15,1.02 23.01,-1.988 l -5.97,-11.024 c -6.02,3.012 -11.02,3.012 -16.02,2.043 -5,-1.019 -8.98,-4.031 -13.01,-8.011 -3.98,-5 -6.99,-10 -6.99,-16.02 0,-5.969 1.02,-10.969 3.98,-15.969 3.01,-5 7.04,-9.031 11.02,-13.011 6.02,-5 11.02,-8.008 16.99,-10 6.02,-1.989 11.02,-1.989 16.02,0 5,1.992 8.98,5 13.01,8.98 3.98,5 5.97,10 5.97,16.02 0,5.968 -1.99,11.992 -6.99,18.011 z M 1300.72,268.68 Z m 0,0 c 6.99,-8.008 15,-11.989 23.98,-11.989 8.01,-1.019 15,1.989 21.02,7.957 6.99,6.024 10,13.012 10,21.024 -1.02,8.976 -5,16.988 -13.01,25 -4.03,5 -10,8.976 -15,11.019 -6.02,1.989 -11.02,2.957 -16.02,1.989 -5.97,-1.02 -10.97,-4.032 -15,-8.008 -5.97,-6.024 -8.98,-13.012 -8.98,-21.024 0,-7.957 3.98,-16.988 13.01,-25.968 z m -8.01,-8.008 z m 0,0 c -11.02,10 -16.02,21.019 -16.02,31.988 0,11.988 5,21.02 13.01,30 6.02,6.02 13.01,9.031 20,11.02 6.99,1.992 15,0.968 21.99,-1.02 6.99,-3.012 14.03,-6.988 20,-13.012 6.02,-6.988 10,-13.976 13.01,-20.968 1.99,-8.008 1.99,-15 0,-23.008 -1.99,-6.992 -6.02,-13.012 -11.99,-18.012 -6.02,-5.969 -11.99,-10 -20,-10.969 -6.99,-2.043 -14.03,-1.019 -21.99,0.969 -7.04,3.012 -13.01,6.988 -18.01,13.012 z M 1239.7,203.68 Z m 0,0 8.01,6.992 c 3.01,-3.012 5.97,-5 8.98,-6.992 4.03,-1.02 8.01,-1.02 11.99,0 2.04,0.968 4.03,0.968 6.02,1.992 1.99,1.019 3.98,1.988 6.02,3.976 3.98,3.012 5.97,6.024 7.96,8.012 2.04,3.012 3.01,6.988 3.01,9.031 0,2.957 0,5.969 -1.99,7.957 -1.99,2.043 -3.98,3.012 -6.02,4.032 -2.96,0.968 -5.97,0.968 -10,0 -1.99,-1.02 -6.99,-3.008 -15,-6.02 -6.99,-3.012 -12.96,-5 -16.99,-5 -3.98,-0.969 -8.01,-0.969 -11.99,1.02 -3.01,0.968 -6.99,3.98 -8.98,6.992 -2.04,3.008 -4.03,6.988 -4.03,11.988 0,4.031 1.02,9.031 4.03,13.012 1.99,5 5.97,8.976 10.97,11.988 5,4.031 10,6.988 16.02,8.012 5,1.019 10,1.019 13.98,-1.024 3.01,-0.968 5,-1.988 6.99,-2.957 l 5,-5 -8.98,-8.011 c -3.01,5 -6.99,6.992 -11.99,6.992 -4.03,0 -9.03,-1.992 -15,-6.024 -6.02,-3.976 -9.03,-7.957 -10,-11.988 -1.02,-3.98 0,-6.988 1.99,-10 1.99,-3.012 3.98,-3.98 6.99,-3.98 3.01,-1.02 9.03,0.968 18.01,5 8.98,3.98 15,5.968 18.98,6.992 5,1.019 10,1.019 14.03,-1.024 1.99,0 3.98,-1.988 5.97,-2.957 l 5,-5 c 2.04,-4.031 4.03,-8.011 4.03,-13.011 0,-5 -1.02,-10 -4.03,-14.032 -1.99,-5 -5.97,-8.976 -10.97,-12.957 -6.99,-5 -13.01,-8.011 -18.01,-9.031 -6.02,-1.988 -11.02,-0.969 -16.99,1.02 -3.01,0.968 -5,1.992 -6.99,3.98 z m -96.99,-55 z m 0,0 10,5.968 c 1.99,-3.976 5,-6.988 8.01,-7.957 2.96,-2.043 5.97,-3.011 10.97,-2.043 1.99,0 4.03,0 6.02,1.024 1.99,0 5,1.019 6.99,3.008 3.98,1.992 6.99,3.98 8.98,6.992 3.01,1.988 4.03,5 5,8.008 0,1.992 0,5 -1.99,8.011 -0.97,1.989 -1.99,3.981 -5,5 -1.99,0.969 -5,0.969 -8.98,0.969 -1.99,0 -8.01,-0.969 -16.02,-3.012 -8.01,-1.988 -13.98,-2.957 -18.01,-2.957 -3.98,0 -7.96,0.969 -11.99,2.957 -3.01,2.043 -5.97,5 -6.99,8.012 -1.99,4.031 -3.01,8.012 -3.01,13.012 1.02,5 3.01,8.976 6.02,13.008 3.01,3.98 8.01,6.992 13.01,10 5.97,3.011 10.97,5 16.99,5 5,0.968 10,-1.02 13.98,-3.008 1.99,-1.024 4.03,-3.012 6.02,-3.981 1.99,-2.043 3.01,-4.031 3.98,-6.019 l -8.98,-6.024 c -3.01,5 -6.99,7.043 -11.02,8.012 -5,1.02 -10,0 -15.97,-3.012 -6.02,-2.957 -10,-5.968 -12.04,-10 -0.97,-3.976 -0.97,-7.957 0,-10.968 2.04,-3.008 4.03,-4.032 7.04,-5 2.96,-1.02 8.98,0 17.96,1.992 10,1.988 16.02,3.976 20,3.976 6.02,0 10,-0.968 14.03,-2.957 1.99,-1.019 3.98,-2.043 5,-4.031 1.99,-1.988 3.01,-3.012 3.98,-5 1.99,-3.98 3.01,-8.98 3.01,-13.98 -1.02,-5 -3.01,-9.032 -6.02,-14.032 -3.98,-3.976 -7.96,-7.957 -13.98,-10 -6.99,-3.976 -13.01,-5.968 -18.98,-5.968 -6.02,-1.02 -11.02,0 -16.02,3.011 -3.01,0.969 -5,2.957 -6.99,5 -1.99,1.989 -3.01,3.981 -5,6.989 z m -74.03,-30 z m 0,0 10,5 c 2.04,-4.032 4.03,-6.989 7.04,-9.032 2.96,-1.988 5.97,-2.957 10.97,-2.957 1.99,0 4.03,0 6.99,0.969 2.04,0 4.03,1.02 6.02,1.988 3.98,2.043 8.01,4.032 11.02,6.024 1.99,3.008 3.98,5 3.98,8.008 1.02,3.011 1.02,5 0,8.011 -1.02,2.957 -3.01,3.981 -5,5.969 -1.99,1.02 -5,1.02 -8.98,1.02 -2.04,0 -8.01,0 -16.02,-1.02 -8.01,-1.988 -13.98,-1.988 -18.01,-1.988 -5,1.019 -8.98,1.988 -11.99,3.976 -3.01,2.043 -5,6.024 -6.99,9.032 -1.02,5 -1.99,8.98 -1.02,13.011 1.02,5 3.01,8.981 6.99,12.957 4.03,3.012 8.01,6.024 14.03,8.012 5.97,3.012 11.99,4.031 16.99,4.031 5,0 10,-2.043 13.98,-5 2.04,-1.019 4.03,-3.011 6.02,-4.031 1.02,-1.988 1.99,-3.98 3.01,-6.988 l -10,-5 c -3.01,5 -6.02,8.008 -10,10 -4.03,1.019 -10,0 -16.02,-1.992 -5.97,-3.008 -10.97,-6.02 -13.01,-9.032 -1.99,-3.976 -1.99,-6.988 -0.97,-10.968 0.97,-3.008 3.01,-5 5.97,-6.02 3.01,-0.969 9.03,0 19.03,1.02 8.98,1.992 15.97,1.992 20,1.992 5.97,0 10,-1.024 13.98,-3.981 1.99,-1.019 3.01,-3.011 5,-4.031 l 3.01,-5.969 c 1.99,-4.031 1.99,-9.031 1.02,-14.031 -1.02,-5 -3.01,-8.98 -7.04,-13.012 -3.98,-3.976 -7.96,-6.988 -13.98,-8.976 -8.01,-3.981 -13.98,-5 -20,-5 -6.02,0 -11.02,1.988 -16.02,5 l -5.97,6.019 c -1.99,1.989 -3.01,3.981 -4.03,6.989 z m -80.973,-8.008 z m 0,0 c 3.012,-10 8.012,-16.9923 15.003,-21.9923 8.01,-4.0313 15,-5 23.01,-3.0078 8.98,3.0078 15,8.0078 18.98,15.0001 3.98,8.008 3.98,16.988 1.02,26.988 -2.04,8.012 -5,13.012 -9.03,16.988 -3.98,5 -8.01,8.012 -13.98,10 -5,1.024 -10,1.024 -16.02,-0.968 -8.014,-1.989 -13.983,-6.989 -18.014,-14.032 -3.981,-6.988 -3.981,-16.988 -0.969,-28.976 z m -11.019,-3.012 z m 0,0 c -3.981,14.031 -3.981,26.02 1.988,36.02 5,10 13.012,16.992 25.004,20 8.01,1.992 16.02,1.992 23.01,0 6.99,-1.02 13.01,-5 19.03,-11.02 5,-5.969 8.98,-13.012 10.97,-20.969 3.01,-9.031 3.01,-17.043 1.02,-24.031 -1.02,-8.0116 -4.03,-14.9998 -10,-19.9998 -5,-5 -11.02,-8.9805 -19.03,-10.9688 -7.96,-2.043 -15,-3.0117 -21.99,-1.0195 -8.014,3.0078 -13.983,6.0195 -18.983,11.9883 -6.019,6.0195 -9.031,11.9882 -11.019,19.9998 z m -65.969,-3.98 z m 0,0 25,3.011 c 5,0.969 8.976,1.989 11.988,2.957 1.988,1.024 5,3.012 5.969,6.024 1.019,3.008 2.043,5 1.019,8.008 0,3.98 -1.988,8.011 -6.019,10 -2.957,1.992 -7.957,3.011 -13.981,1.992 l -28.007,-3.012 z m -6.024,-50.0003 z m 0,0 -10,86.9923 38.012,5 c 8.012,1.019 13.981,1.019 18.012,-1.024 3.976,-0.968 7.957,-2.957 10.969,-6.988 3.007,-3.012 5,-8.012 5,-11.988 1.019,-6.024 -0.969,-11.992 -3.981,-16.992 -3.012,-4.032 -9.031,-8.008 -18.012,-10.0003 3.981,-1.0195 6.024,-1.9883 8.012,-3.0078 3.012,-3.0117 6.988,-6.0235 10.969,-11.0235 l 18.012,-21.9882 -15,-0.9688 -13.012,15.9688 c -3.981,5 -7.957,9.0312 -10,11.0195 -1.988,3.0117 -5,3.9805 -6.988,5 -0.969,0.9687 -3.012,1.9922 -5,1.9922 h -6.993 l -13.007,-1.9922 5,-39.0313 z m -26.988,28.0117 z m 0,0 10.969,-2.043 c -0.969,-10 -5,-16.9882 -11.988,-21.9882 -5.969,-5.9688 -13.012,-8.9805 -21.993,-8.9805 -10,0 -16.988,0.9687 -23.976,3.9805 -6.024,4.0312 -10,9.0312 -14.031,16.9882 -3.981,7.043 -5.969,14.0313 -5.969,23.0118 -1.024,9.0308 0.969,16.9878 3.976,24.0308 3.012,6.989 8.012,11.989 13.981,15.969 6.019,4.031 13.012,6.02 21.019,6.02 8.981,0.968 16.024,-1.02 21.993,-5 6.988,-4.032 11.019,-10 14.031,-18.008 l -11.024,-3.981 c -3.007,6.989 -6.019,10.969 -10,13.981 -3.976,1.988 -8.976,3.976 -15,3.976 -6.019,-0.968 -11.988,-2.957 -16.019,-5.968 -5,-4.032 -6.988,-8.008 -8.981,-14.032 -1.988,-5 -1.988,-10.9683 -1.988,-16.9878 0,-6.9883 1.988,-13.9805 3.981,-18.9805 3.007,-5 6.019,-9.0313 11.019,-11.9883 5,-2.043 10,-4.0312 15,-3.0117 6.988,0 11.988,1.9922 15.969,5.9687 5,4.0313 7.043,10 9.031,17.043 z M 706.688,68.6797 Z m 0,0 18.007,-1.9883 c 6.024,-1.0195 11.024,-1.0195 13.981,0 3.012,0.9688 6.019,1.9883 8.012,2.957 3.007,3.0118 6.019,6.0235 8.007,11.0235 1.993,3.9765 3.981,10 3.981,16.0195 2.043,8.9806 1.019,15.9686 -0.969,21.9886 -3.012,5 -6.019,8.011 -10,10.968 -3.012,1.024 -8.012,2.043 -15,3.012 l -18.012,3.012 z m -13.012,-9.0313 z m 0,0 11.019,87.0426 30,-3.011 c 6.993,-1.02 11.993,-1.989 15,-4.032 5,-0.968 8.981,-3.976 11.993,-7.957 4.031,-4.031 6.988,-9.031 8.007,-16.019 1.993,-6.024 1.993,-13.012 1.024,-21.0236 -1.024,-5.9687 -2.043,-11.9882 -4.031,-16.9882 -1.993,-5 -5,-8.9805 -8.012,-11.9883 -1.988,-3.0117 -5,-5 -7.957,-6.9922 -4.031,-1.0195 -7.043,-1.9883 -11.024,-3.0078 h -15 z m -78.981,19.0313 z m 0,0 21.024,85.0003 61.988,-16.02 -3.012,-10 -50,13.012 -6.988,-26.024 46.988,-11.988 -1.988,-10 -46.988,11.988 -7.043,-28.9761 52.043,-13.0117 -3.012,-10 z M 557.707,148.68 Z m 0,0 23.981,-9.032 c 4.031,-0.968 8.007,-1.988 11.988,-1.988 3.012,0 6.019,1.02 8.012,3.012 1.988,1.019 4.031,3.976 5,6.019 1.019,3.981 1.019,7.957 -0.969,11.989 -2.043,3.011 -6.024,5.968 -12.043,8.011 l -26.988,8.981 z m -26.988,-43.008 z m 0,0 28.976,83.008 36.024,-13.008 c 7.957,-1.992 12.957,-5 15.969,-8.012 4.031,-3.012 6.019,-5.969 6.988,-10.969 1.019,-4.031 1.019,-9.031 -0.969,-13.011 -1.988,-6.02 -5,-11.02 -11.019,-14.032 -5,-1.988 -11.993,-2.957 -20,-0.968 1.988,-1.989 4.031,-5 5,-6.02 1.988,-3.98 4.031,-8.98 6.019,-15 l 5.969,-26.9881 -13.981,5 -5,21.0191 c -1.019,5.969 -1.988,10 -3.976,13.981 -1.024,3.008 -2.043,6.019 -3.012,6.988 -1.988,1.988 -3.012,3.012 -5,4.031 0,0 -1.019,0.969 -1.988,0.969 -1.024,1.02 -2.043,1.02 -4.031,1.988 l -11.993,4.032 -13.007,-36.989 z m -109.031,56.019 45,75 11.019,-6.019 3.981,-83.012 35,59.031 10,-5 -45.969,-76.019 -10,6.019 -4.031,83.981 -35,-60 z m -33.012,65.969 z m 0,0 24.031,-18.012 6.988,25 c 1.024,7.043 3.012,14.032 5,19.032 -3.976,-4.032 -8.007,-8.008 -13.007,-11.02 z m -41.988,-13.98 79.031,50.968 10,-7.957 -22.043,-92.043 -10.969,8.012 6.988,26.988 -30,22.043 -23.007,-16.019 z m -16.993,13.011 53.981,68.981 9.031,-6.992 -54.031,-69.032 z m -66.988,61.989 60.969,63.011 9.031,-8.011 -15,-81.989 48.012,50 7.957,-8.011 -60.969,-63.008 -9.031,8.008 15,81.992 -46.988,-50 z m -51.988,60.968 66.988,57.043 40.969,-49.031 -7.957,-5.969 -34.031,38.981 -20,-16.992 31.019,-36.989 -8.012,-7.043 -31.019,37.043 -22.957,-19.031 35,-40.969 -8.012,-7.043 z m -59.031,86.024 75,46.019 9.031,-14.031 -42.043,-50.969 -7.957,-10 c 2.957,0 7.957,1.989 13.976,2.957 l 63.012,15 8.012,-13.976 -74.031,-46.024 -5.969,10 61.988,38.012 -76.019,-16.988 -5,8.976 50,61.024 -63.981,-40 z m 11.019,90 10.969,-21.992 c 2.043,-5 4.031,-9.032 7.043,-11.02 1.988,-3.012 5,-3.98 6.988,-3.98 3.012,-1.02 5.969,0 8.012,0.968 3.976,2.043 6.988,5 7.957,9.032 1.019,3.98 0,8.98 -2.957,13.98 l -12.043,25 z m -49.031,-11.024 78.012,38.012 16.988,-35 c 4.031,-6.988 6.019,-13.012 6.019,-16.988 1.024,-3.981 0,-8.012 -3.007,-13.012 -3.012,-3.012 -5.969,-6.988 -10,-8.98 -5.969,-1.989 -10.969,-3.008 -16.993,-1.02 -6.019,1.988 -11.019,6.02 -16.019,13.012 v -8.012 c -0.969,-3.98 -3.981,-8.98 -6.988,-13.98 l -13.981,-24.032 -6.988,13.012 10.969,19.031 c 4.031,5 6.019,8.981 8.007,11.989 1.024,3.98 1.993,5.968 1.993,8.98 1.019,1.988 1.019,4.031 0,5 0,1.02 0,1.988 -0.969,3.012 0,1.019 -1.024,1.988 -1.024,3.008 l -6.019,11.992 -35,-16.992 z m 10,74.032 z m 0,0 10,-29.032 20,17.043 c 5,5 10,8.981 15,11.989 -5.969,-1.02 -11.988,-1.02 -17.957,-1.02 z m -41.9885,11.992 93.0075,-3.981 5,-11.019 -71.019,-63.012 -5,13.012 22.043,18.008 -12.043,35 H 85.7188 l -4.0313,11.992" /><path
         id="path22"
         style="fill:#231f20;fill-opacity:1;fill-rule:evenodd;stroke:none"
         d="m 1556.69,645.672 8.01,-3.981 c -3.98,-6.019 -6.99,-10 -10,-13.011 3.01,0 5,0 8.01,-1.02 3.01,0 5,-0.969 6.99,-0.969 l -1.99,-9.031 c -1.99,1.02 -4.03,1.02 -6.02,1.988 -1.99,1.024 -5,2.043 -8.01,3.012 0,-1.988 1.02,-3.98 1.02,-6.988 0,-1.992 1.02,-5 1.02,-8.012 h -9.03 c -0.97,5 0,10 0,15 -1.99,-1.988 -6.99,-3.98 -13.01,-6.988 l -3.98,8.976 c 3.98,1.024 8.98,2.043 15,4.032 -3.98,3.98 -8.01,8.011 -10,10.968 l 6.02,6.024 c 5,-6.024 7.96,-11.024 8.98,-13.012 1.99,5 5,9.031 6.99,13.012 z m 34.03,86.012 z m 0,0 -4.03,-24.028 -63.98,11.989 c -4.03,1.019 -8.01,0 -11.02,-0.969 -3.01,-1.02 -5,-3.012 -5.97,-6.02 -1.02,-1.992 -2.04,-5 -3.01,-8.011 v -7.957 c 0,-2.043 0.97,-5.004 3.98,-7.043 1.99,-2.961 5,-3.981 10,-5 l 25,-3.981 -1.99,-11.988 -26.02,5 c -2.96,0 -5.97,0.969 -8.98,3.008 -1.99,0.972 -5,3.98 -6.99,6.992 -1.99,1.988 -3.01,5.969 -4.03,10 -0.97,3.98 0,8.008 0,13.008 2.04,5.972 4.03,11.992 7.04,15.972 2.96,4.032 5.97,6.02 10.97,8.008 4.03,1.02 8.01,1.02 11.99,0 l 56.02,-8.98 1.99,10.972 z m 3.98,51.992 z m 0,0 -1.02,-11.02 -26.99,1.989 -1.99,-25.969 h -10 l 1.99,25.969 -51.99,4.031 v 11.988 z m -88.01,25.969 z m 0,0 v 12.039 l 64.03,1.992 c 5.97,0 10.97,1.988 12.96,5.969 2.04,3.011 3.01,8.011 3.01,12.039 0,5.004 -1.99,8.98 -3.98,12.961 -1.99,3.011 -6.99,5 -14.03,5 l -63.98,-2.961 v 11.992 l 65,1.988 c 3.98,0 8.01,0 11.99,-1.988 4.03,-1.992 6.99,-5 10,-10 1.99,-4.031 4.03,-10 4.03,-16.02 0,-6.992 -1.02,-13.011 -3.01,-16.992 -1.99,-3.98 -5,-8.008 -9.03,-10 -3.98,-1.988 -7.96,-3.98 -11.99,-3.98 z m 59.03,132.039 z m 0,0 -2.04,11.992 c 3.01,0 7.04,0 10,-1.988 3.01,-1.024 7.04,-3.012 9.03,-7.043 3.01,-3.981 5,-8.981 5.97,-15 v -13.981 c -0.97,-3.98 -1.99,-6.988 -3.98,-8.976 -1.99,-3.012 -3.98,-5.004 -6.99,-6.024 -3.01,-1.988 -5,-3.008 -8.01,-3.008 -6.02,-0.972 -11.02,0 -15,1.989 -3.01,2.039 -5,4.031 -6.02,5 0,0 0,-1.989 -0.97,-3.981 -1.02,-1.988 -3.01,-3.98 -6.02,-6.988 -3.01,-1.988 -6.99,-4.031 -13.01,-5 -5,-1.02 -10,0 -13.98,1.988 -3.98,1.992 -8.01,5 -11.02,8.981 -1.99,3.011 -2.96,5 -3.98,8.011 -1.02,3.008 -1.02,6.02 -1.99,9.028 -1.02,5.004 0,8.98 0,12.961 0.97,4.031 3.01,8.011 5,11.019 1.99,3.012 3.98,5 6.99,6.992 3.01,1.02 6.02,3.008 8.98,3.008 l 1.02,-11.988 c -5,0 -8.98,-3.012 -11.02,-8.012 -0.97,-6.019 -1.99,-10 -1.99,-13.008 1.02,-3.011 1.99,-6.992 6.02,-11.992 1.99,-5 6.99,-6.019 15,-5 6.99,1.02 10.97,3.981 13.01,8.012 1.99,5 1.99,8.98 1.99,13.012 l -4.03,28.976 9.03,1.024 3.98,-28.012 c 1.02,-5 1.99,-8.012 5,-11.02 1.99,-3.011 6.02,-3.98 11.99,-3.98 5,0.969 8.01,3.98 10,8.008 1.02,3.98 1.02,7.961 0,10.972 v 1.989 c 0,1.019 0,2.039 -0.97,4.031 -1.02,1.988 -1.99,3.012 -4.03,5 -1.99,1.988 -5,3.008 -7.96,3.008 z m -38.01,66.996 z m 0,0 -4.03,8 c -1.99,2 -3.98,2 -6.99,2 h -3.98 c -1.99,0 -4.03,-1.02 -6.99,-2 -4.03,-1.02 -6.02,-2.04 -8.01,-3 -1.99,-1.02 -3.01,-1.99 -4.03,-3.02 -0.97,-1.98 -1.99,-3 -1.99,-6.02 0,-0.96 0,-2.96 1.02,-3.98 0,-1.984 0,-3.972 0.97,-4.996 3.01,-13.008 10,-16.988 21.02,-13.976 l 36.02,9.996 c 6.99,1.992 10.97,5.004 11.99,8.976 0.97,3.98 0.97,8.98 -1.02,13.98 l -5.97,21.02 v 1.02 l -1.02,2 c -1.99,10 -8.98,13 -20,10 l -61.02,-18.02 -2.96,12 61.99,18 c 3.98,1.02 8.98,1.02 13.01,0 3.98,-1.02 7.96,-3 10.97,-6.98 4.03,-3.02 6.02,-9.04 8.01,-15 l 6.99,-22 c 1.02,-7.04 1.99,-12.04 1.02,-17.035 -1.02,-5 -3.01,-8.981 -6.99,-11.989 -3.01,-3.011 -6.02,-5 -11.02,-6.992 l -36.99,-11.019 c -5,-0.969 -9.03,-0.969 -13.01,0 -3.98,1.019 -8.01,3.011 -11.99,7.039 -4.03,3.98 -6.02,7.961 -8.01,15 -1.99,5.004 -3.01,9.996 -3.01,13.976 0,3.98 1.02,7 1.99,10 1.02,3.02 3.01,5 6.02,7 3.98,1.98 8.01,4.03 11.99,5 6.99,1.98 13.01,3 18.01,3 3.98,-1.02 8.01,-3 10,-6.02 3.01,-2.96 5,-6.98 6.99,-13.98 l 4.03,-13.972 -9.03,-3.012 z m 6.99,115 z m 0,0 3.98,-10 -25,-11.02 9.03,-23.02 -9.03,-3.98 -8.98,23.98 -48.98,-20 -4.03,11.02 z m -91.99,-14.04 z m 0,0 -5,10 56.99,29.04 c 6.02,3 10,6.98 10,10.96 0,4.04 -1.02,8.02 -3.01,12.04 -1.99,5.01 -5,7.96 -8.01,10 -3.98,2 -8.98,2 -15,-2.04 l -56.99,-27.96 -5,10.01 58.01,28.97 c 3.01,2 8.01,3.02 11.99,3.02 4.03,0 8.01,-1.02 13.01,-4.04 3.98,-2.96 6.99,-7.96 10,-12.95 3.01,-6.03 5,-12.05 5,-17.05 0,-5 -1.99,-8.98 -3.98,-12.95 -3.01,-3.01 -6.02,-6.03 -10,-8.01 z m -6.99,142.05 z m 0,0 -54.03,-35.01 -5.97,10 53.98,35 c 3.98,2 8.01,3.98 11.99,3.98 5,1.03 9.03,-1.02 14.03,-3 3.98,-2 7.96,-5.98 11.99,-12 3.01,-5 5,-10 5,-16.02 0.97,-3.98 0,-8.98 -1.99,-12.95 -2.04,-4.03 -5,-7.05 -9.03,-9.03 l -21.99,-13.98 -6.02,8.98 21.02,14.03 c 6.02,3.97 8.98,7.95 8.98,11.99 0,1.98 0,3.98 -0.97,5.96 l -3.01,6.02 c -3.01,3.98 -6.02,7 -10,8.98 -3.01,2.04 -8.01,1.02 -13.98,-2.95 z m -61.02,61.99 z m 0,0 -23.01,-20 c -3.98,-4.04 -5.97,-7 -6.99,-10 -1.02,-3.02 -1.02,-5 1.02,-8.02 0.97,-1.98 1.99,-5 3.98,-6.98 1.99,-1.99 3.98,-4.04 6.02,-5 1.99,-2 5,-2 7.96,-2 4.03,0 7.04,2 11.02,5.01 l 10,7.95 6.99,-7.95 -10,-9.03 c -3.01,-2 -5,-3.98 -8.01,-5 -2.96,-0.97 -6.99,-2 -10,-2 -2.96,1.03 -6.99,2 -10,3.98 -3.98,1.02 -7.96,4.04 -10.97,8.02 -4.03,5 -6.99,10 -8.01,15 -1.02,5 0,9.02 1.02,14.02 0.97,3.98 3.98,7 6.99,10 l 50,42.96 6.99,-8.98 -18.01,-16.02 31.02,-35 -6.99,-5.96 z m -53.01,13.98 z m 0,0 c -0.97,-0.97 -3.01,0 -5.97,1.02 -2.04,0 -3.01,0.96 -5,1.98 -2.04,1.02 -4.03,2 -6.02,3.98 -3.98,5 -8.01,10 -8.98,15 -2.04,4.04 -2.04,9.04 -1.02,13.02 1.02,5 3.01,8 6.02,11.02 l 30,33 8.98,-8 -30,-32 c -3.98,-5 -6.02,-9.99 -5,-14.02 1.02,-3.98 3.01,-8.02 6.99,-10.97 1.99,-2.05 6.02,-4.03 9.03,-6.03 3.98,-1.98 6.99,-1.98 10,1.02 l 15.97,17.96 9.03,-7.96 -43.01,-46.02 -9.03,8.02 z m -71.99,139.02 z m 0,0 18.98,-14.02 -36.99,-53.02 c -1.99,-3.98 -3.98,-6.98 -3.98,-10 0.97,-2.95 0.97,-5.96 3.01,-7.96 l 5.97,-6.02 c 3.01,-1.02 5,-3 6.99,-3.97 3.01,-1.03 5,-1.03 8.01,0.97 3.01,0 6.99,3 9.03,6.98 l 15,21.02 8.98,-6.98 -15,-21.02 c -1.99,-3.02 -3.98,-5 -6.02,-7 -2.96,-1.98 -5.97,-3 -8.98,-3.98 -3.98,0 -6.99,0 -11.02,0.98 -3.98,1.02 -7.96,3 -11.99,6.02 -5,3.01 -8.98,8 -11.99,11.98 -1.99,5 -3.01,8.98 -1.99,13.02 0,5 1.99,8.98 3.98,11.98 l 33.01,47 -10,6.02 z m -58.98,-67.04 z m 0,0 -51.02,29.04 31.02,56.98 c 1.99,3.02 5,7 8.98,8.98 3.01,2.04 8.01,3.02 13.01,3.02 5,0 10.97,-0.98 15.97,-3.98 6.02,-4.04 10,-7 13.01,-12 3.01,-4.02 4.03,-8 4.03,-13 0,-4.04 -1.02,-8.02 -3.01,-12 l -13.01,-22.04 -10,5 11.99,22.05 c 3.01,5.97 4.03,10.97 1.99,15 -1.99,2.95 -5,5.97 -8.98,7.95 -5,3.02 -8.98,4.04 -13.01,4.04 -3.98,0 -6.99,-4.04 -10.97,-10 l -26.02,-46.99 41.02,-23.01 z m -111.02,153.02 z m 0,0 -8.98,-25.98 c 0.97,0.98 2.96,2 6.99,2 3.98,0.96 8.01,0 11.99,-1.02 6.02,-3.02 11.02,-5.97 13.98,-8.98 3.01,-4.04 5,-9.04 6.02,-13.02 1.02,-3.98 0,-8 -1.99,-11.98 l -5,-15 -11.02,3.98 5,14.02 c 3.01,7 3.01,10.98 0,15 -3.01,2.96 -5.97,5 -10,7 -5,1.98 -8.98,1.98 -13.01,0.96 -5,-0.96 -6.99,-3.98 -8.98,-8.98 l -16.02,-41.98 -10.97,3.98 31.99,84.02 z m -71.99,-73.98 z m 0,0 -46.022,23.98 3.007,10 13.981,-8.02 c 0,0 14.031,0 18.012,1.02 5.002,1.03 10.002,3.98 14.032,7 3.98,4.02 6.99,10 7.96,16.98 l 3.01,10 c 1.02,5 0,10 -1.99,13.02 -1.02,4.02 -3.98,6.98 -6.02,8 -2.96,2 -5.97,3.02 -7.96,3.98 h -8.013 c -1.988,0 -6.019,-1.98 -9.031,-3.98 -2.957,-1.98 -5,-6.02 -6.988,-11.02 l -0.969,-7.96 -12.043,2.96 2.043,8.02 c 0.969,3 1.988,6.02 3.976,9.02 3.012,2.96 5,5.98 8.012,7.96 3.981,2.04 6.988,3.02 11.988,4.04 3.981,0.96 8.015,0.96 13.015,0 5,-2 8.98,-4.04 13.01,-6.02 2.96,-2 5.97,-5 8.98,-8.98 1.99,-3.02 3.01,-6.02 3.01,-10 0.97,-2 0.97,-9.04 0,-10 l -3.01,-14.04 c -1.02,-5.96 -3.98,-11.98 -8.01,-15 -3.98,-3.98 -6.99,-6.98 -11.99,-7.96 -1.99,-1.02 -8.98,-3 -11.024,-3 -2.957,-1.02 -5,-1.02 -5.969,-1.02 l 16.993,-8.98 z m -99.034,20.96 z m -15,5 c -3.981,3.02 -6.988,6.02 -8.981,10 -1.988,4.04 -3.007,9.04 -1.988,14.04 l 8.012,63.98 11.988,-0.98 -8.012,-64.02 c -1.019,-5 0,-8.98 1.024,-10.98 1.988,-3 3.976,-5 5.969,-6.02 3.007,-1.02 5,-1.98 8.007,-1.98 h 8.012 c 3.012,0 5,1.98 6.988,3.98 3.012,1.98 3.981,6.02 5,11.02 l 8.012,63.98 10.969,-2 -7.957,-63.97 c 0,0 -1.024,-7.05 -2.043,-8.01 -0.969,-2 -1.988,-3.02 -2.957,-4.04 l 10.969,-10 -6.993,-7.95 -11.019,9.99 c -3.981,-1.02 -6.988,-2.04 -10,-2.04 -0.969,0 -8.981,0 -10,0 0,0 -10.969,2.04 -15,5 z m -91.988,56.02 z m 0,0 h -20.969 l 0.969,-56.02 h -11.993 l -1.019,89.04 h 12.043 v -24.04 l 31.988,1.02 0.969,-41.02 c 0,-5 1.019,-8.98 3.012,-10.96 1.988,-3.02 4.031,-4.04 6.019,-5 3.012,-1.02 5.969,-1.02 8.981,-1.02 3.007,0 5,0 8.007,1.02 1.993,0.96 3.981,3 6.024,5 1.988,3.01 2.957,5.96 2.957,10.96 l -0.969,42.04 h 11.988 l 1.024,-42.04 c 0,-5 -1.024,-8.98 -3.012,-12.96 -1.988,-4.02 -5,-7.04 -10,-9.02 -4.031,-3.02 -10,-3.98 -16.019,-3.98 -10,0 -16.993,1.98 -21.993,6.98 -5,5 -8.007,11.03 -8.007,18.02 z m -141.993,-8 z m 0,0 11.024,-63.02 -12.043,-1.98 -10.969,63 c -1.019,5 -1.019,8.98 0.969,13.02 1.019,3.98 4.031,8 8.012,10.96 4.031,3.02 9.031,5 16.019,7.05 5.969,0.97 11.988,0 15.969,-1.03 5,-1.98 9.031,-5 12.043,-8 1.988,-3.02 3.976,-7 5,-12 l 3.976,-25 -11.019,-1.98 -5,25 c -0.969,6.98 -2.957,10.96 -6.988,11.98 -1.993,1.02 -3.981,1.02 -5.969,2 -2.043,0 -4.031,0 -7.043,-0.98 -5,-1.02 -8.981,-2.04 -11.988,-4.99 -3.012,-3.01 -3.981,-7.05 -1.993,-14.03 z m -93.976,-2 z m 0,0 8.976,-26.02 c 0,2.04 1.993,4.04 3.981,6.02 3.012,3.02 6.019,5 11.019,7 6.024,1.98 11.024,3 16.024,1.98 5,-0.96 8.976,-2.95 12.957,-5.96 3.012,-3.02 5,-6.02 7.043,-10 l 5,-16.02 -11.024,-3.02 -5,14.04 c -1.988,5.96 -6.019,10 -10,10.96 -3.976,1.02 -8.007,1.02 -13.007,-0.96 -3.981,-1.02 -8.012,-4.04 -10,-8.02 -1.993,-3 -3.012,-6.98 -0.969,-11.98 l 15,-43.02 -12.043,-3.97 -28.981,84.99 z m -51.024,-20 z m 0,0 21.993,10 4.031,-8.98 -11.024,-5 23.012,-51.02 c 0.969,-3 1.988,-6.02 1.988,-10 0,-3 0,-6.02 -1.019,-8.98 -1.988,-3 -3.981,-6.02 -6.988,-9.02 -1.993,-3.02 -5.969,-5 -10.969,-7 -4.031,-3 -8.012,-3 -12.043,-3.98 -3.981,0 -7.957,0.98 -10.969,2 -3.012,0.96 -6.019,3 -8.012,5 -1.988,0.96 -3.007,1.98 -3.976,3.98 0,1.02 -1.024,1.98 -2.043,4.02 l -25.969,60 10,5 26.988,-60 c 1.993,-4.02 3.981,-7.04 6.993,-9.02 3.007,-0.97 5,-2 8.007,-0.97 1.993,0 5,0.97 8.012,1.99 1.988,0.96 5,3 6.988,3.98 1.993,1.98 3.012,4.02 3.981,6.98 0,4.04 0,7.04 -1.988,12.04 z m -96.988,-80 z m 0,0 33.981,-53.98 -10,-6.02 -33.981,53.98 c -1.988,4.04 -4.031,8.02 -4.031,12.04 0,5.01 1.019,8.98 3.012,13.98 3.007,3.98 6.988,8.02 13.007,12 5,3 10,5 15,5 5,1.02 10,0 13.012,-3.02 3.981,-1.98 8.012,-5 10,-7.95 l 13.981,-22.05 -10.969,-6.98 -13.012,21.98 c -4.031,6.02 -8.012,9.04 -11.988,9.04 -2.043,-1.02 -4.031,-1.02 -6.024,-1.99 -1.988,0 -3.976,-1.03 -6.019,-2.05 -3.981,-2.96 -6.988,-5.96 -8.981,-8.98 -1.019,-3.97 -1.019,-8.98 3.012,-15 z m -15,-91.02 z m 0,0 c -4.031,-3.98 -9.031,-5.96 -14.031,-6.98 -5,-0.98 -8.981,-0.98 -12.957,1.02 -5,0.96 -9.031,3.98 -11.024,8 l -41.019,50.98 10,8 39.031,-51.98 c 3.012,-3.02 6.988,-6.02 8.981,-7 3.007,0 6.019,0 9.031,0.98 1.988,1.02 3.976,1.98 6.988,4.02 1.988,2 3.981,3.98 5,5.98 1.988,1.98 3.012,4.02 3.012,8 0,3.02 -2.043,6.03 -5,10 l -40,51.02 8.976,7 41.024,-51.02 c 0.969,-0.98 0.969,-2 1.988,-3.02 0.969,-0.96 0.969,-2.96 0.969,-3.98 1.019,-1.98 1.019,-3 1.019,-3.97 h 15 l 1.024,-11.03 -16.024,-1.02 c -1.019,-2.95 -3.007,-5.96 -5,-7.96 0,-1.02 -1.988,-3 -3.007,-4.02 -0.969,-0.98 -3.012,-3.02 -3.981,-3.02 z m -64.031,-20.96 z m 0,0 c 0,-1.02 0,-3.02 -0.969,-6.02 -1.019,-0.98 -1.988,-3.02 -3.012,-3.98 -1.019,-1.99 -3.007,-4.04 -5,-5 -5,-5 -8.976,-8.02 -13.976,-9.04 -5,-0.96 -10,-0.96 -14.031,0 -3.981,1.02 -6.993,4.04 -10.969,7.04 l -30,32.96 8.976,8.02 28.981,-32 c 5,-5 10,-8 14.031,-6.98 3.981,0.96 6.988,3.01 10.969,5.96 3.012,3.02 5,6.02 7.043,9.04 1.988,3.98 1.988,6.98 0,10 l -17.043,18 9.031,7.96 41.988,-45.96 -8.007,-8.02 z m -163.981,-96.02 z m 0,0 13.981,19.02 52.043,-38 c 3.976,-1.99 7.957,-4.04 10.969,-4.04 3.007,0 6.019,1.02 8.007,3.02 1.993,1.02 3.981,3 5,6.02 1.993,1.98 3.012,3.98 3.981,6.98 1.019,2 1.019,5 0,8.02 -0.969,3 -2.957,5.96 -6.988,8.98 l -20.969,15 6.988,9.02 21.988,-15 c 1.993,-2.04 3.981,-4.02 6.024,-7.04 1.988,-2.95 2.957,-5.96 2.957,-8.98 1.019,-3 1.019,-6.98 0,-11.02 -0.969,-3.98 -2.957,-7.96 -5.969,-11.98 -4.031,-5 -8.012,-8.98 -13.012,-10.98 -3.976,-2.04 -8.976,-3 -13.007,-2.04 -5,0 -8.981,2.04 -11.993,4.04 l -46.019,33 -5.969,-9.02 z m 53.012,-88.02 z m 0,0 c -3.012,-5 -6.019,-8.98 -10,-11.98 -4.031,-2 -9.031,-3.98 -13.012,-3.98 -5,0 -8.976,0.96 -13.007,3.98 l -56.993,31.98 6.024,11.02 55.969,-33 c 4.031,-2 8.007,-3.02 11.019,-3.02 3.012,0 5,2.04 6.988,3.02 1.993,1.98 3.981,4.02 6.024,6.98 0.969,3.02 1.988,5 2.957,7.04 0,2.96 0,5 -0.969,8.98 -1.019,2 -4.031,5 -8.012,8.02 l -56.988,31.98 5.969,10 57.043,-31.98 2.957,-3.02 c 1.019,0 2.043,-1.98 3.012,-1.98 1.019,-2 1.988,-3.02 1.988,-4.04 l 14.031,6.02 5,-10 -14.031,-6.98 c 0,-3.02 -0.969,-7 -1.988,-9.04 0,-1.98 0,-3.98 -0.969,-5 -1.024,-1.98 -2.043,-2.96 -3.012,-5 z m -51.019,-42.96 z m 0,0 c 1.019,-1.02 1.019,-4.02 1.019,-7.04 v -5 c -1.019,-1.98 -1.019,-3.98 -1.988,-6.98 -3.012,-5.97 -6.024,-10 -10,-13.98 -4.031,-3.02 -8.012,-5 -12.043,-5 -5,-1.02 -8.981,0 -12.957,1.98 l -41.0237,16.02 4.9997,10.98 40,-15.97 c 6.024,-3.01 11.024,-3.01 15,-1.03 3.012,3.02 5,6.02 6.993,11.02 1.019,2.96 1.988,7 1.988,10.98 1.019,4.02 -0.969,6.98 -3.981,8 l -21.988,8.98 3.981,11.02 58.007,-23 -3.976,-10.97 z m -8.012,-103 z m 0,0 c -0.969,-5 -3.981,-10.004 -6.988,-14.035 -3.012,-2.961 -6.993,-5.969 -11.993,-6.989 -3.976,-0.972 -8.976,-0.972 -13.007,0 l -63.0122,18.004 3.0117,12 61.9885,-18.015 c 5,-1.989 9.031,-1.989 12.043,-0.969 2.957,0.969 5,3.004 5.969,5.004 1.019,3 3.007,5 3.007,8.01 1.024,2.95 1.993,5.97 1.993,7.95 0,3.02 -0.969,5 -3.012,8.02 -1.988,1.98 -5,4.02 -10,6.02 l -61.9885,16.98 3.0117,12 61.9888,-18.02 c 1.988,-0.96 3.007,-0.96 4.031,-0.96 1.988,-1.02 2.957,-1.99 3.976,-1.99 1.024,-2.05 1.993,-3.01 3.012,-4.03 l 11.988,9.02 6.993,-8 -13.012,-10 c 2.043,-3.02 2.043,-6.02 2.043,-10 0,-1.02 0,-3.02 -1.024,-4.04 0,-1.98 0,-3.98 -1.019,-5.96 z m -38.981,-53.016 z m 0,0 c 0,0 1.024,-1.988 1.993,-5 v -13.008 c -1.993,-5.972 -3.981,-10.972 -6.993,-15 -3.007,-3.98 -6.988,-6.992 -11.019,-8.011 -3.981,-0.969 -8.981,-1.989 -12.957,-0.969 l -43.012,8.98 1.9922,11.02 43.0078,-8.012 c 5.969,-1.988 10.969,-1.019 13.981,1.992 3.007,4.028 5,6.989 5,11.989 1.019,3.011 1.019,7.039 1.019,12.043 -1.019,3.976 -3.012,5.968 -6.019,6.988 l -23.981,5 1.9883,10.969 61.9927,-11.989 -1.993,-10.968 z M 72.707,843.676 v -11.988 c -4.0312,0 -6.9882,0.968 -10,2.957 -3.0078,2.039 -6.0195,5 -8.0117,9.031 -1.9883,3.98 -3.0078,8.98 -3.0078,15.969 0,5 1.0195,10 3.0078,13.011 1.0235,4.032 3.0117,6.989 5.0039,9.028 1.9883,1.992 4.9961,3.98 8.0078,5 3.0118,0.972 5,0.972 8.0118,0.972 6.9882,0 10.9687,-1.992 13.9804,-3.98 3.0078,-3.012 4.9961,-5 4.9961,-6.988 0,0.968 1.0235,1.988 1.9922,3.976 1.0195,1.992 4.0315,3.981 6.9885,6.02 4.031,1.992 8.012,2.961 14.031,1.992 5,0 10,-1.02 13.981,-4.031 3.007,-1.989 6.988,-5.969 9.031,-10.969 0.969,-1.992 1.988,-5 1.988,-8.012 0.969,-3.008 0.969,-6.019 0.969,-8.98 -0.969,-5 -0.969,-9.996 -2.957,-14.028 -2.043,-3.011 -4.031,-6.992 -6.024,-8.98 -3.007,-3.012 -5,-5 -8.976,-6.02 -3.012,-0.972 -6.024,-1.992 -9.031,-0.972 l 1.019,10.972 c 5.969,0 10,1.989 11.988,6.989 3.012,5 3.981,9.031 3.981,13.011 1.019,3.008 -0.969,6.989 -1.988,11.989 -3.012,5 -8.012,8.011 -15,8.011 -6.993,0 -11.993,-1.992 -13.981,-5.972 -3.0117,-4.028 -4.0312,-8.008 -4.0312,-12.039 L 97.707,830.664 h -10 l 0.9688,28.981 c 0,4.031 -0.9688,8.011 -1.9883,11.019 -1.9922,3.981 -5.9687,6.024 -11.9883,6.024 -5.0039,0 -8.9804,-2.043 -10.0039,-6.024 -1.9883,-3.98 -3.9765,-8.008 -3.9765,-11.019 v -1.989 c 0,-0.972 0.9687,-1.992 0.9687,-3.98 0,-1.992 1.0195,-4.031 3.0078,-6.988 1.9922,-2.043 3.9805,-3.012 8.0117,-3.012 z m 71.988,-66.02 c 0,-5 0,-10.972 -1.988,-15 -1.988,-5 -5,-8.011 -9.031,-10.972 -3.981,-3.008 -7.957,-4.028 -12.957,-5 l -65.0002,-4.028 -1.0235,11.989 64.9997,4.031 c 5,0 8.012,1.988 11.024,3.98 1.988,1.989 3.976,4.028 3.976,6.989 0,2.043 1.024,5 0,8.011 0,3.008 0,6.02 -1.019,8.008 -0.969,1.992 -1.988,3.981 -5,6.02 -2.957,1.992 -6.988,2.961 -11.988,1.992 l -63.981,-4.031 -1.0195,11.019 65.0005,5 h 4.031 c 0.969,0 2.957,0 3.976,-1.019 1.993,0 3.012,-0.969 3.981,-1.989 l 8.012,13.008 10,-5 -8.981,-13.98 c 3.012,-3.008 3.981,-6.02 5,-9.028 0,-0.968 0.969,-3.011 0.969,-3.98 1.019,-1.992 1.019,-4.031 1.019,-6.02 z m -23.976,-53.011 26.988,5 1.988,-11.989 -26.988,-3.98 c -4.031,-1.02 -6.988,-1.988 -9.031,-5 -1.988,-1.992 -2.957,-4.031 -2.957,-6.992 v -9.028 l 5,-23.98 -9.031,-1.988 -5,26.988 c -0.969,3.98 -3.0122,6.988 -5.0005,10 -3.0117,3.008 -6.9883,3.98 -13.0117,3.008 -8.9766,-2.039 -12.957,-7.039 -10.9688,-17.039 l 5,-27.961 -9.0312,-1.02 -5,23.981 c -0.9688,5 -0.9688,10 -0.9688,14.031 0,3.98 0.9688,6.988 1.9883,8.98 1.9922,3.008 3.9805,5 6.0235,6.989 1.9882,1.019 2.957,1.019 5,2.039 1.9882,0.972 2.957,0.972 5.9687,0.972 6.0195,1.989 11.9883,1.02 15,-0.972 3.0078,-3.008 5.0005,-4.996 6.0195,-7.039 0,1.019 0,2.043 0.969,4.031 1.019,1.988 3.012,3.98 5,6.988 3.012,1.992 7.043,3.012 12.043,3.981 z M 99.6953,607.66 h -8.9765 c 0.9687,6.988 0.9687,11.988 1.9882,15 -1.9882,0 -5,-0.969 -6.9882,-1.988 -3.0118,-1.024 -5,-1.992 -7.043,-3.012 l -1.9883,9.031 c 1.9883,0 4.0313,0.969 6.0195,0.969 1.9883,1.02 5,1.02 8.9805,1.02 -1.9883,1.992 -3.0117,3.98 -5,5.968 -1.9922,2.043 -3.0117,4.032 -5,7.043 l 8.0117,5 c 3.0078,-5 4.9961,-9.031 6.9883,-14.031 1.0195,3.012 4.0315,6.988 8.0075,13.012 l 6.993,-6.024 c -1.993,-2.957 -5.969,-5.968 -10,-10.968 6.019,-1.989 11.019,-3.008 14.031,-4.032 l -3.012,-8.976 c -6.019,3.008 -11.019,6.019 -13.0117,6.988 v -15" /></g></g></svg>