<?xml version="1.0" encoding="UTF-8" standalone="no"?>
<svg
   xmlns:dc="http://purl.org/dc/elements/1.1/"
   xmlns:cc="http://creativecommons.org/ns#"
   xmlns:rdf="http://www.w3.org/1999/02/22-rdf-syntax-ns#"
   xmlns:svg="http://www.w3.org/2000/svg"
   xmlns="http://www.w3.org/2000/svg"
   viewBox="0 0 563.32001 563.32001"
   height="563.32001"
   width="563.32001"
   xml:space="preserve"
   id="svg2"
   version="1.1"><metadata
     id="metadata8"><rdf:RDF><cc:Work
         rdf:about=""><dc:format>image/svg+xml</dc:format><dc:type
           rdf:resource="http://purl.org/dc/dcmitype/StillImage" /><dc:title></dc:title></cc:Work></rdf:RDF></metadata><defs
     id="defs6" /><g
     transform="matrix(1.3333333,0,0,-1.3333333,0,563.32)"
     id="g10"><g
       transform="scale(0.1)"
       id="g12"><path
         id="path14"
         style="fill:#231f20;fill-opacity:1;fill-rule:nonzero;stroke:none"
         d="m 477.113,1897.23 c 14.922,1.51 17.301,12.81 13.711,48.37 -4.418,43.78 -27.633,89.52 -76.383,84.6 -30.339,-3.05 -64.554,-32.49 -56.597,-111.29 1.875,-18.6 2.922,-28.99 4.304,-32.72 z m -139.832,-13.55 c 0.164,3.33 -0.277,12.68 -1.66,26.37 -4.918,48.69 -33.543,88.36 -71.348,84.55 -33.824,-3.41 -56.492,-32.79 -50.636,-90.78 1.715,-16.97 3.703,-26.72 4.699,-31.6 z m 166.137,-67.81 -4.863,38.2 c -0.11,1.09 -0.774,2.68 -2.762,2.49 l -272.594,-27.51 3.145,-41.14 c -7.961,-0.8 -15.918,-1.61 -22.938,-1.76 -2.871,23.48 -7.898,68.29 -10.715,96.2 -4.695,46.51 -5.41,78.5 2.934,105.32 8.402,26.27 29.961,46.69 55.828,49.3 36.313,3.66 66.152,-23.17 81.688,-57.53 l 2.98,0.3 c 0.504,49.8 29.965,91.47 69.758,95.48 55.715,5.63 99.43,-44.14 107.773,-126.76 1.325,-13.13 5.192,-56.41 6.243,-66.8 1.765,-17.51 4.418,-43.78 6.457,-64.03 -7.461,-0.75 -15.418,-1.55 -22.934,-1.76" /><path
         id="path16"
         style="fill:#231f20;fill-opacity:1;fill-rule:nonzero;stroke:none"
         d="m 472.34,2374.14 c -20.074,23.74 -50.887,45.87 -106.067,51.81 -45.738,4.94 -86.363,-3.41 -115.593,-27.38 -23.617,-18.48 -35.832,-43.16 -39.367,-75.98 -3.239,-30.07 2.882,-57.28 17.55,-79.89 18.11,-27.95 54.473,-54.55 110.153,-60.54 49.211,-5.31 84.691,1.94 115.652,27.92 23.734,19.58 36.355,48.08 39.719,79.25 3.535,32.82 -3.785,62.93 -22.047,84.81 z m -7.938,-204.39 c -31.074,-27.08 -74.281,-40.68 -126.976,-35 -64.129,6.91 -111.625,46.88 -133.496,91.28 -16.41,34.41 -20.77,68.63 -16.707,106.36 3.593,33.36 14.41,63.72 34.691,88.64 29.652,37.2 81.816,59.24 138.984,53.08 51.704,-5.57 99.915,-29.57 130.032,-72.1 22.293,-31.16 33.316,-68.87 27.488,-123.01 -5.188,-48.12 -25.715,-84.64 -54.016,-109.25" /><path
         id="path18"
         style="fill:#231f20;fill-opacity:1;fill-rule:nonzero;stroke:none"
         d="m 554.68,2601.22 c 0.515,1.57 -0.266,2.4 -1.211,2.71 l -260.223,85.72 c -14.801,-44.94 -17.465,-56.23 -20.473,-68.55 -2.324,-10.24 -0.16,-13.27 4.715,-16.03 l 43.309,-23.53 c -4.051,-9.09 -7.965,-19.38 -12.012,-28.48 -25.43,10.69 -51.676,20.49 -76.633,31.03 3.274,9.93 9.43,27.01 16.317,47.91 3.781,11.49 23.578,71.58 29.258,88.82 5.336,16.2 24.953,75.76 29.086,88.3 6.582,21.57 10.71,34.11 14.5,45.6 26.16,-6.87 52.789,-13.91 79.253,-21.46 -1.976,-9.2 -4.472,-19.96 -6.793,-30.2 l -49.285,6.97 c -5.394,1.2 -9.105,-0.48 -12.679,-9.73 -6.071,-13.63 -9.172,-23.04 -23.973,-67.97 l 261.129,-87.74 17.258,47.59 c 6.648,-2.19 15.023,-5.52 22.144,-7.88 -6.195,-18.81 -15.105,-44.24 -22.16,-65.66 -7.227,-21.95 -14.676,-46.14 -21.898,-68.09 -7.598,2.51 -15.2,5.01 -22.153,7.88 l 12.524,42.79" /><path
         id="path20"
         style="fill:#231f20;fill-opacity:1;fill-rule:nonzero;stroke:none"
         d="m 630.727,2831.49 c 2.461,-0.71 4.742,-0.69 6.929,1.25 10.696,6.09 25.305,22.58 34.469,39.51 12.305,22.74 17.23,47.59 12.699,64.43 -4.531,16.83 -12.73,26.9 -26.801,34.52 -38.261,20.7 -57.164,1.54 -102.347,-34.67 -40.637,-33.04 -77.36,-52.56 -115.617,-31.86 -24.192,13.1 -38.145,38.79 -41.469,63.11 -3.242,25.52 4.203,57.14 22.012,90.03 11.781,21.77 29.355,44.77 41.617,53.77 22.422,-9 46.332,-19.44 68.226,-29.42 -3.836,-9.18 -7.492,-19.09 -11.582,-28.75 l -45.793,14.15 c -3.164,0.45 -5.441,0.44 -7.109,-0.53 -9.906,-4.65 -20.055,-16.05 -28.172,-31.04 -9.16,-16.93 -14.371,-36 -11.418,-52.6 2.418,-14.45 10.719,-29.57 26.551,-38.15 30.777,-16.66 46.457,-4.5 93.918,34.85 45.531,37.9 80.07,55.48 120.09,33.82 24.625,-13.33 40.937,-34.67 45.675,-61.63 5.797,-28.15 -0.769,-60.24 -22.246,-99.91 -12.824,-23.7 -33.98,-52.28 -49.043,-65.39 -24.175,9.96 -49.406,21.11 -72.882,31.32 3.656,9.91 7.574,20.29 11.406,29.48 l 50.887,-16.29" /><path
         id="path22"
         style="fill:#231f20;fill-opacity:1;fill-rule:nonzero;stroke:none"
         d="m 816.184,3528.79 c 27.464,-42.28 50.773,-80.2 75.593,-119.43 29.391,-46.15 64.164,-102.86 91.778,-152.57 -3.606,-4.89 -11.914,-15.15 -20.602,-25.09 -73.086,28.84 -160.015,65.39 -239.523,101.3 l -2.176,-2.48 c 43.758,-80.64 87.586,-164.99 121.867,-234.41 -3.605,-4.88 -12.277,-15.57 -19.512,-23.85 -56.382,25.91 -111.683,53.81 -165.504,81.15 -38.121,19.44 -76.628,39.97 -115.503,60.07 -0.375,0.34 -1.856,0.16 -2.938,-1.08 l -22.125,-23.03 c -5.644,4.93 -11.672,10.2 -16.953,15.55 10.859,12.42 24.25,27.74 36.195,41.42 18.821,21.53 36.555,41.82 53.203,60.87 5.645,-4.94 11.672,-10.2 17.329,-15.89 l -33.993,-40.41 c 19.856,-12.24 60.649,-36.23 99.539,-57.08 39.282,-21.92 75.942,-42.28 121.938,-67.15 l 2.172,2.48 c -36.477,67.68 -97.035,175.44 -132.364,241.39 2.153,3.23 14.086,17.64 18.79,23.02 75.007,-32.7 169.464,-75.84 250.445,-110.85 l 2.531,2.9 c -25.543,38.41 -51.461,77.14 -74.32,111.01 -19.039,27.6 -52.555,76.64 -71.133,99.45 -0.766,1.41 -1.879,1.65 -2.965,0.41 l -32.246,-35.37 c -6.004,4.52 -12.047,10.53 -17.328,15.88 14.117,16.15 31.851,36.45 46.687,53.43 10.864,12.42 23.164,26.5 32.926,38.43 5.645,-4.95 12.047,-10.54 17.328,-15.9 l -19.136,-24.17" /><path
         id="path24"
         style="fill:#231f20;fill-opacity:1;fill-rule:nonzero;stroke:none"
         d="m 1013.79,3639.39 c 11.31,-47.87 26.21,-105.47 37.1,-151.8 0.72,-1.95 1.3,-2.76 2.64,-1.8 l 94.15,66.88 c -40.66,27.46 -91.01,60.87 -132.1,88 z m 32.44,-283.1 c 0.89,0.63 1.49,1.69 1.06,3.22 -20.85,95.17 -51.528,225.74 -72.54,320.17 4.625,3.94 14.168,11.4 23.551,18.13 82.379,-51.68 194.079,-125.38 275.859,-178.11 l 28.13,18.34 c 4.08,-5.7 9.03,-12.6 12.96,-19.02 -12.52,-8.97 -28.16,-20.18 -42.01,-30.12 -20.56,-14.74 -40.83,-29.89 -58.71,-42.7 -4.66,6.5 -8.87,13.32 -13.24,19.41 l 33.98,26.21 c 0.9,0.65 0.77,1.78 -0.56,2.68 -20.26,13.16 -45.06,29.82 -64.73,42.17 -1.62,1.31 -2.8,1.07 -4.59,-0.21 l -106.53,-76.99 c 6.83,-24.63 14.64,-55.33 20.89,-79.15 l 41.09,27.62 c 4.08,-5.69 9.03,-12.6 12.95,-19.02 -16.98,-12.17 -37.54,-26.91 -59.44,-42.62 -12.96,-9.28 -26.97,-19.94 -39.04,-28.6 -4.66,6.51 -8.87,13.32 -13.24,19.42 l 24.16,19.17" /><path
         id="path26"
         style="fill:#231f20;fill-opacity:1;fill-rule:nonzero;stroke:none"
         d="m 1346.77,3560.46 c 1.01,0.43 1.32,1.1 0.73,2.48 l -107.78,251.94 -37.51,-14.4 c -2.95,6.89 -6.29,14.71 -8.54,21.36 22.76,9.73 50.06,21.41 73.32,31.35 91.09,-53.51 198.38,-116.94 287.24,-170.86 l 2.34,1.55 c -32.57,74.72 -65.33,149.9 -98.4,224.41 l -47.93,-19.41 c -2.95,6.9 -5.79,14.92 -8.74,21.83 19.22,8.21 41.47,17.72 62.7,26.81 17.2,7.35 34.9,14.92 48.55,20.76 3.26,-6.22 6.1,-14.26 9.05,-21.15 l -30.26,-14.58 c -1.01,-0.42 -1.32,-1.1 -0.73,-2.48 l 115.12,-273.28 c -5.39,-5.57 -15.53,-12.62 -24.64,-16.52 -80.71,43.26 -189.64,104.91 -293.93,166.91 l -3.03,-1.29 c 31.67,-74.02 62.63,-147.8 94.3,-221.82 l 50.45,20.49 c 2.95,-6.9 6.3,-14.71 8.74,-21.83 -19.72,-8.43 -43.99,-18.81 -66.24,-28.32 -16.69,-7.14 -34.19,-15.16 -47.84,-21 -2.96,6.9 -6.3,14.71 -8.74,21.82 l 31.77,15.23" /><path
         id="path28"
         style="fill:#231f20;fill-opacity:1;fill-rule:nonzero;stroke:none"
         d="m 1754.46,3959.41 c -9.86,-48.19 -20.54,-106.73 -30.14,-153.34 -0.17,-2.07 0.02,-3.05 1.64,-2.74 l 113.56,21.1 c -25.36,42 -57,93.5 -82.89,135.39 z m -89.57,-270.53 c 1.08,0.21 2.06,0.91 2.32,2.48 21.08,95.13 48.13,226.51 68.77,321.03 5.85,1.62 17.64,4.38 28.99,6.53 53.03,-81.51 123.42,-195.36 175.47,-277.58 l 33.25,4.8 c 1.31,-6.87 2.9,-15.23 3.76,-22.69 -15.13,-2.89 -34.04,-6.49 -50.79,-9.67 -24.86,-4.74 -49.62,-9.96 -71.23,-14.08 -1.49,7.87 -2.45,15.82 -3.86,23.2 l 41.87,9.49 c 1.08,0.2 1.43,1.29 0.61,2.66 -12.85,20.47 -28.36,46.01 -41.02,65.49 -0.92,1.86 -2.09,2.14 -4.26,1.73 l -129.03,-25.07 c -4.16,-25.22 -9.99,-56.36 -14.33,-80.6 l 48.91,7.78 c 1.31,-6.87 2.9,-15.22 3.76,-22.69 -20.53,-3.91 -45.38,-8.65 -71.86,-13.69 -15.67,-2.97 -32.87,-6.75 -47.46,-9.54 -1.49,7.86 -2.45,15.83 -3.85,23.2 l 29.98,7.22" /><path
         id="path30"
         style="fill:#231f20;fill-opacity:1;fill-rule:nonzero;stroke:none"
         d="m 2330.14,3870.54 c 2.56,-1.4 12.89,-2.99 28.65,-5.41 69.03,-10.65 99.04,25.2 103.61,54.86 7.16,46.45 -25.69,75.3 -78.95,83.5 -17.94,2.77 -27.87,3.3 -31.37,2.31 z m -58.81,149.22 c 1.15,7.42 2.37,15.33 4.05,22.66 30.51,-4.2 68.64,-9.57 105.05,-15.19 30.98,-4.77 48.22,-8.43 73.25,-19.38 35.04,-14.5 60.21,-49.76 54.88,-84.36 -6.62,-42.99 -42.94,-69.26 -87.62,-77.56 l -0.38,-2.48 c 24.48,-14.39 33.65,-45.15 54,-97.37 13.6,-34.47 17.73,-40.17 24.25,-41.17 l 32.92,-6.6 c -1.14,-7.42 -2.43,-15.81 -4.12,-23.15 -9.77,1.52 -24.45,3.77 -35.94,5.04 -10.33,1.59 -27.8,3.78 -35.41,4.95 -15.44,26.17 -38.17,98.98 -51.83,125.88 -9.84,19.22 -20.33,26.92 -46.96,31.02 -21.74,3.35 -29.43,4.03 -31.68,3.88 l -17.21,-111.7 45.35,-9.02 c -1.06,-6.92 -2.36,-15.32 -4.04,-22.66 -18.49,2.86 -43.49,6.72 -65.77,10.14 -20.66,3.19 -41.31,6.37 -59.32,8.65 1.22,7.91 2.98,15.73 4.12,23.14 l 35.01,-3.88 c 1.63,-0.25 2.33,0.66 2.48,1.64 l 42.2,270.27 -37.28,7.25" /><path
         id="path32"
         style="fill:#231f20;fill-opacity:1;fill-rule:nonzero;stroke:none"
         d="m 2582.97,3678.04 c 0.52,-0.18 1.73,-0.08 2.06,0.85 l 92.83,258.35 -37.8,15.18 c 2.53,7.06 5.76,14.4 8.81,21.27 17.6,-6.32 39.34,-14.13 59.52,-21.39 15.53,-5.57 101.97,-36.64 114.39,-41.1 21.9,-7.34 33.81,-11.62 45.19,-15.72 -6.37,-24.27 -13.44,-48.82 -21.03,-73.2 -8.62,2.03 -18.45,3.98 -28.45,7.03 l 6.43,43.92 c 0.49,4.61 -1.09,8.36 -9.03,12.29 -12.96,6.23 -47.29,19.64 -80.93,31.73 -5.18,1.86 -12.94,4.65 -15.53,5.58 l -42.11,-115.58 c 28.98,-10.41 53.31,-19.16 81.43,-28.73 8.97,-2.69 12.57,-0.8 15.29,5.14 l 10.7,21.66 c 8.28,-2.98 18.63,-6.7 26.4,-9.49 -5.76,-14.41 -11.17,-29.47 -17.27,-44.81 -5.08,-14.11 -10.65,-29.64 -15.55,-43.29 -8.45,2.51 -17.94,5.38 -26.74,8.55 l 6.89,25.68 c 1.85,6.78 -0.41,10.24 -9.21,13.41 -23.12,8.84 -49.52,18.33 -80.06,29.29 l -41.09,-112.75 c -2.87,-8 -1.83,-9.97 25.61,-19.82 41.92,-15.07 71.93,-24.26 81.4,-25.54 5,-0.73 8.77,1.63 12.7,6.06 l 31.95,36.87 c 8.81,-4.76 17.97,-10.18 25.23,-14.37 -14.49,-22.43 -29.66,-45.13 -44.66,-67.38 -23.81,8.57 -90.93,33.22 -160.8,58.32 -21.74,7.81 -42.61,14.79 -61.24,21.48 2.53,7.06 5.41,15.06 7.94,22.11 l 36.73,-11.6" /><path
         id="path34"
         style="fill:#231f20;fill-opacity:1;fill-rule:nonzero;stroke:none"
         d="m 2905.04,3560.44 c -7.05,-11.52 -5.65,-17.65 26.24,-37.19 42.22,-25.86 79.92,-34.88 110.28,-30.61 33.27,4.83 69.18,29.74 90.87,65.13 28.99,47.32 32.26,81.09 17.34,123.06 -10.92,29.56 -35.87,58.33 -79.02,84.76 -12.67,7.76 -23.71,13.94 -29.19,15.53 z m -81.17,28.61 32.89,-18.98 c 1.41,-0.86 2.4,-0.3 3.19,0.98 l 143.36,232.92 -34.4,22.82 c 3.92,6.4 8.83,13.36 12.48,19.33 25.6,-15.09 61.04,-36.21 97.15,-58.33 57.23,-35.06 83.27,-60.98 102.01,-93.56 26.4,-44.32 27.84,-100.91 -0.89,-147.81 -30.3,-49.45 -77.64,-81.43 -132.04,-83.88 -38.9,-1.38 -79.83,10.79 -125.8,38.95 -18.76,11.49 -44.3,27.72 -55.56,34.61 -16.41,10.06 -37.31,22.28 -55.13,33.19 3.91,6.4 8.36,13.65 12.74,19.76" /><path
         id="path36"
         style="fill:#231f20;fill-opacity:1;fill-rule:nonzero;stroke:none"
         d="m 3566.11,3336.84 c 46.62,-12.24 83.34,-44.21 107.2,-74.43 18.75,-23.74 31.19,-47.56 35.4,-61.77 -20.62,-19.08 -41.97,-38.04 -63.66,-56.56 -6.58,6.72 -14.18,14.73 -21.44,22.31 l 36.59,40.8 c 2.79,2.92 3.74,5.77 3.15,8.11 -2,13.84 -9.63,26.73 -20.88,40.98 -19.09,24.17 -46.31,43.32 -78.98,48.36 -41.06,6.82 -83.26,-2.67 -120.16,-31.8 -33.75,-26.65 -50.61,-50.48 -55.79,-87.51 -3.86,-28.99 8.09,-65.1 30.59,-93.59 20.11,-25.47 52.56,-49.61 76.82,-63.39 -4.92,-6.68 -10.67,-14.73 -15.93,-20.99 -38.07,23.2 -68.65,47.41 -88.77,72.88 -23.17,29.36 -39.97,65.15 -42.24,101.91 -2.19,43.12 17.24,87.9 57.27,119.51 54.95,43.39 112.73,47.67 160.83,35.18" /><path
         id="path38"
         style="fill:#231f20;fill-opacity:1;fill-rule:nonzero;stroke:none"
         d="m 3662.3,2970.82 c 0.37,-2.9 5.16,-12.19 12.46,-26.37 32,-62.09 78.64,-65.28 105.31,-51.53 41.78,21.52 45.79,65.05 21.11,112.96 -8.31,16.13 -13.74,24.47 -16.59,26.71 z m 86.09,135.31 c 6.67,3.44 13.78,7.1 20.7,10.05 14.56,-27.15 32.63,-61.14 49.51,-93.91 14.36,-27.86 21.53,-43.96 27.4,-70.63 8.88,-36.89 -4.82,-77.97 -35.94,-94.01 -38.67,-19.92 -81.28,-5.99 -114.26,25.27 l -2.23,-1.15 c 2.76,-28.28 -16.72,-53.78 -46.99,-100.93 -19.89,-31.28 -22.06,-37.97 -19.04,-43.84 l 14.04,-30.51 c -6.67,-3.44 -14.22,-7.32 -21.15,-10.27 -4.53,8.8 -11.33,22 -17.07,32.04 -4.78,9.29 -13.29,24.7 -16.81,31.54 12.07,27.88 57.6,89.08 71.32,115.95 9.76,19.26 9.8,32.27 -2.54,56.23 -10.08,19.55 -14.06,26.17 -15.5,27.9 l -100.46,-51.77 19.38,-41.98 c -6.22,-3.2 -13.77,-7.1 -20.69,-10.05 -8.57,16.62 -20.15,39.11 -30.49,59.16 -9.57,18.58 -19.14,37.16 -27.9,53.06 7.11,3.66 14.48,6.84 21.15,10.27 l 17.45,-30.59 c 0.76,-1.47 1.9,-1.51 2.79,-1.05 l 243.38,124.8 -16.05,34.42" /><path
         id="path40"
         style="fill:#231f20;fill-opacity:1;fill-rule:nonzero;stroke:none"
         d="m 3736.2,2462.1 c 27.28,-14.92 63.99,-24.47 117.61,-10.14 44.45,11.88 79.35,34.3 97.99,67.18 15.37,25.74 17.87,53.16 9.36,85.04 -7.83,29.23 -23.33,52.4 -45.16,68.2 -26.96,19.55 -70.47,31.27 -124.58,16.81 -47.82,-12.79 -78.32,-32.32 -97.84,-67.71 -15.09,-26.8 -16.6,-57.94 -8.5,-88.23 8.52,-31.88 26.19,-57.33 51.12,-71.15 z m -66.23,193.49 c 19.23,36.46 54.64,64.7 105.86,78.38 62.31,16.66 121.02,-3.51 157.42,-37.06 27.71,-26.18 44.1,-56.52 53.9,-93.18 8.67,-32.41 9.52,-64.63 -0.43,-95.19 -14.26,-45.37 -54.99,-84.71 -110.54,-99.56 -50.25,-13.43 -103.87,-8.4 -147.29,20.42 -32.02,21.05 -55.89,52.24 -69.95,104.84 -12.51,46.75 -6.5,88.21 11.03,121.35" /><path
         id="path42"
         style="fill:#231f20;fill-opacity:1;fill-rule:nonzero;stroke:none"
         d="m 3749.79,2287.78 c -2.46,-0.7 -4.38,-1.92 -5.21,-4.73 -5.84,-10.83 -9.5,-32.55 -8.31,-51.75 1.62,-25.81 10.6,-49.49 23.36,-61.36 12.77,-11.88 25.04,-16.08 41.02,-15.08 43.41,2.72 49.29,28.97 68.42,83.61 16.95,49.54 37.75,85.56 81.16,88.27 27.44,1.7 52.88,-12.68 68.58,-31.54 16.27,-19.92 26.7,-50.68 29.03,-88 1.53,-24.7 -1.17,-53.52 -6.81,-67.64 -23.78,-4.24 -49.59,-8.06 -73.44,-11.19 -1.61,9.81 -3.76,20.14 -5.41,30.51 l 46.33,12.26 c 2.92,1.28 4.85,2.5 5.74,4.21 5.94,9.19 8.52,24.23 7.45,41.24 -1.19,19.21 -6.88,38.14 -18.18,50.66 -9.7,10.96 -24.75,19.4 -42.71,18.27 -34.93,-2.17 -41.78,-20.79 -61.18,-79.3 -18.53,-56.25 -38.51,-89.46 -83.91,-92.29 -27.94,-1.75 -53.08,7.71 -71.38,28.05 -19.82,20.81 -31.25,51.5 -34.05,96.5 -1.68,26.9 1.12,62.34 6.94,81.44 25.78,4.35 53.09,8.27 78.4,12.05 2.14,-10.33 4.33,-21.22 5.94,-31.04 l -51.78,-13.15" /><path
         id="path44"
         style="fill:#231f20;fill-opacity:1;fill-rule:nonzero;stroke:none"
         d="m 3756.5,2020.24 c -2.54,-0.3 -4.64,-1.2 -5.91,-3.84 -7.49,-9.75 -14.58,-30.61 -16.46,-49.77 -2.54,-25.72 2.54,-50.54 13.24,-64.31 10.7,-13.76 22.16,-19.86 38.08,-21.43 43.3,-4.26 53.3,20.73 80.92,71.62 24.66,46.2 50.95,78.43 94.24,74.17 27.37,-2.7 50.19,-20.97 62.68,-42.09 12.87,-22.27 18.25,-54.3 14.58,-91.52 -2.44,-24.63 -9.72,-52.65 -17.54,-65.7 -24.15,-0.38 -50.25,-0.02 -74.29,0.68 -0.03,9.95 -0.5,20.5 -0.46,31 l 47.69,4.7 c 3.09,0.8 5.19,1.7 6.34,3.24 7.34,8.12 12.28,22.56 13.96,39.53 1.88,19.15 -0.7,38.75 -9.85,52.91 -7.83,12.38 -21.33,23.11 -39.25,24.87 -34.83,3.43 -44.57,-13.85 -73.08,-68.52 -27.29,-52.58 -52.32,-82.17 -97.61,-77.71 -27.86,2.74 -51.16,16.09 -65.97,39.09 -16.25,23.72 -22.63,55.84 -18.2,100.73 2.65,26.81 11.08,61.35 19.89,79.27 26.14,0.2 53.72,-0.31 79.31,-0.62 0.47,-10.55 0.88,-21.64 0.9,-31.58 l -53.21,-4.72" /><path
         id="path46"
         style="fill:#231f20;fill-opacity:1;fill-rule:nonzero;stroke:none"
         d="m 1117,492.16 c -0.75,-2.449 -0.77,-4.73 1.13,-6.949 5.9,-10.801 22.13,-25.691 38.89,-35.152 22.51,-12.719 47.27,-18.079 64.19,-13.848 16.91,4.23 27.12,12.23 35,26.168 21.37,37.871 2.55,57.113 -32.85,102.93 -32.31,41.211 -51.18,78.261 -29.79,116.14 13.51,23.949 39.45,37.43 63.83,40.321 25.57,2.789 57.05,-5.219 89.62,-23.61 21.55,-12.168 44.24,-30.148 53.02,-42.57 -9.4,-22.238 -20.27,-45.961 -30.63,-67.66 -9.11,3.992 -18.95,7.82 -28.54,12.09 l 14.96,45.511 c 0.52,3.16 0.54,5.438 -0.4,7.121 -4.47,9.977 -15.68,20.34 -30.52,28.707 -16.77,9.473 -35.74,15.012 -52.41,12.371 -14.48,-2.16 -29.75,-10.191 -38.6,-25.859 -17.21,-30.48 -5.33,-46.371 33.18,-94.512 37.08,-46.199 54.04,-81.027 31.67,-120.648 -13.76,-24.371 -35.4,-40.301 -62.43,-44.563 -28.26,-5.289 -60.22,1.864 -99.5,24.024 -23.48,13.258 -51.67,34.918 -64.51,50.199 10.39,23.981 21.99,49.008 32.61,72.289 9.84,-3.82 20.15,-7.918 29.27,-11.922 L 1117,492.16" /><path
         id="path48"
         style="fill:#231f20;fill-opacity:1;fill-rule:nonzero;stroke:none"
         d="m 1570.25,303.148 c 27.65,14.211 56.16,39.243 74.39,91.653 15.13,43.461 16.17,84.91 -0.58,118.801 -12.67,27.168 -33.96,44.64 -65.12,55.48 -28.57,9.93 -56.46,10.109 -81.79,0.918 -31.32,-11.352 -65.43,-40.781 -83.83,-93.668 -16.27,-46.75 -17.22,-82.953 1.11,-118.98 13.71,-27.532 38.63,-46.262 68.24,-56.563 31.16,-10.84 62.14,-10.5 87.58,2.359 z m -197.31,53.813 c -19.36,36.379 -22.86,81.539 -5.44,131.598 21.2,60.921 70.84,98.183 119.04,109.48 37.21,8.231 71.52,4.77 107.36,-7.699 31.69,-11.02 58.83,-28.399 78.53,-53.781 29.54,-37.278 39.24,-93.067 20.34,-147.368 -17.09,-49.109 -51.35,-90.679 -99.57,-110.429 -35.39,-14.692 -74.6,-16.942 -126.02,0.937 -45.71,15.903 -76.65,44.133 -94.24,77.262" /><path
         id="path50"
         style="fill:#231f20;fill-opacity:1;fill-rule:nonzero;stroke:none"
         d="m 1823.82,490.961 c 42.11,23.437 90.75,25.781 128.87,20.5 29.96,-4.16 55.43,-12.731 68.29,-20.07 -1.67,-28.039 -3.94,-56.5 -6.78,-84.879 -9.39,0.289 -20.43,0.808 -30.9,1.258 l -1.85,54.781 c 0,4.031 -1.29,6.73 -3.33,8.019 -11.03,8.61 -25.46,12.621 -43.44,15.121 -30.5,4.231 -63.4,-0.8 -90.46,-19.769 -34.35,-23.5 -58.23,-59.582 -64.68,-106.133 -5.9,-42.598 -1.58,-71.457 20.32,-101.769 17.26,-23.59 50.89,-41.372 86.84,-46.36 32.14,-4.461 72.26,0.582 99.3,7.43 1.08,-8.219 2.5,-18.008 3.04,-26.16 -43.53,-9.621 -82.36,-13.321 -114.49,-8.86 -37.05,5.129 -73.94,19.34 -101.02,44.289 -31.43,29.602 -48.4,75.371 -41.4,125.883 9.61,69.348 48.35,112.449 91.69,136.719" /><path
         id="path52"
         style="fill:#231f20;fill-opacity:1;fill-rule:nonzero;stroke:none"
         d="m 2047.52,475.789 c -0.12,7.5 -0.25,15.5 0.18,23.012 19.8,0.308 45.64,0.73 68.19,1.09 22,0.347 45.09,0.718 64.34,1.031 0.66,-6.992 0.25,-15.992 -0.18,-22.992 l -43.41,-2.211 c -1.11,-0.008 -1.09,-1.02 -1.08,-2.008 l 2.78,-273.969 47.32,-0.73 c 0.12,-7 0.26,-16 -0.17,-23.512 -18.7,-0.301 -43.99,-0.199 -65.99,-0.559 -21.45,-0.339 -46.19,-1.242 -65.99,-1.562 -0.12,7.5 -0.25,15.992 0.18,23.5 l 39.57,2.141 c 1.09,0.019 2.18,0.539 2.16,2.031 l -4.43,273.937 -43.47,0.801" /><path
         id="path54"
         style="fill:#231f20;fill-opacity:1;fill-rule:nonzero;stroke:none"
         d="m 2275.44,204.281 c 0.54,0.078 1.57,0.719 1.44,1.699 l -35.44,272.18 -40.55,-3.769 c -0.96,7.441 -1.45,15.441 -1.87,22.949 18.53,2.41 41.44,5.39 62.71,8.16 16.37,2.129 107.44,13.98 120.53,15.68 22.83,3.48 35.37,5.109 47.37,6.672 5.41,-24.5 10.35,-49.571 14.72,-74.723 -8.59,-2.117 -18.21,-4.887 -28.52,-6.727 l -14.33,41.996 c -1.68,4.313 -4.79,6.942 -13.64,6.793 -14.37,-0.359 -51.05,-4.121 -86.49,-8.73 -5.46,-0.711 -13.64,-1.781 -16.36,-2.129 l 15.34,-122.031 c 30.53,3.98 56.17,7.32 85.54,11.64 9.21,1.7 11.55,5.028 11.25,11.551 l -0.37,24.149 c 8.73,1.129 19.64,2.55 27.81,3.621 1.47,-15.442 3.53,-31.313 5.12,-47.742 1.94,-14.872 4.06,-31.239 5.94,-45.61 -8.67,-1.629 -18.42,-3.398 -27.7,-4.609 l -5.59,26 c -1.46,6.859 -5.05,8.91 -14.32,7.711 -24.6,-2.692 -52.41,-6.321 -84.59,-10.512 l 14.94,-119.051 c 1.11,-8.429 2.93,-9.699 31.83,-5.937 44.18,5.75 75.07,11.277 84.08,14.48 4.79,1.617 7.05,5.438 8.53,11.188 l 11.57,47.379 c 10.02,-0.219 20.63,-0.848 29,-1.27 -2.63,-26.559 -5.76,-53.687 -8.94,-80.32 -25.09,-3.258 -96.06,-11.989 -169.67,-21.559 -22.91,-2.988 -44.66,-6.32 -64.29,-8.871 -0.96,7.43 -2.06,15.859 -3.03,23.293 l 37.98,6.449" /><path
         id="path56"
         style="fill:#231f20;fill-opacity:1;fill-rule:nonzero;stroke:none"
         d="m 2680.01,284.891 c 1.57,0.507 1.78,1.629 1.47,2.578 l -84.37,260.64 c -44.99,-14.57 -55.67,-19.07 -67.4,-23.918 -9.64,-4.171 -10.81,-7.703 -10.15,-13.281 l 6.56,-48.828 c -9.73,-2.102 -20.34,-5.012 -30.07,-7.113 -6.38,26.832 -13.95,53.812 -20.18,80.16 9.95,3.23 27.37,8.34 48.3,15.109 11.51,3.731 71.68,23.203 88.95,28.801 16.21,5.242 75.86,24.563 88.42,28.621 21.3,7.422 33.86,11.488 45.37,15.211 9.88,-25.18 19.92,-50.82 29.43,-76.641 -8.59,-3.832 -18.75,-8.179 -28.38,-12.351 l -23.45,43.91 c -2.22,5.063 -5.76,7.07 -15.34,4.492 -14.59,-3.14 -24,-6.191 -69,-20.761 l 83.26,-262.571 48.61,14.153 c 2.15,-6.661 4.4,-15.391 6.71,-22.52 -18.83,-6.09 -44.63,-13.922 -66.08,-20.871 -21.97,-7.109 -45.9,-15.379 -67.87,-22.492 -2.46,7.613 -4.92,15.222 -6.71,22.523 l 41.92,15.149" /><path
         id="path58"
         style="fill:#231f20;fill-opacity:1;fill-rule:nonzero;stroke:none"
         d="m 3011.85,423.48 c 1.93,1.059 1.93,2.2 1.21,3.52 l -47.17,85.891 c -53.7,30.398 -121.36,70.23 -177.24,101.148 -0.73,0.172 -1.69,0.781 -2.66,0.25 l -25.78,-12.449 c -3.61,6.57 -7.7,14.031 -10.59,20.422 13.5,7.41 31.33,17.207 47.24,25.949 24.1,13.23 47.24,25.949 67.96,37.32 3.38,-6.133 6.98,-13.84 10.6,-20.422 l -42.43,-25.57 c 35.4,-22.199 99.7,-61.598 143.53,-87.73 l 2.42,1.32 c 1.71,38.019 3.46,134.242 2.52,165.672 -0.72,1.301 -1.69,1.918 -2.66,1.39 l -39.52,-20.562 c -3.6,6.57 -7.7,14.019 -10.83,20.863 17.36,9.528 39.53,21.699 59.3,32.547 13.5,7.422 29.39,16.16 41.44,22.781 3.37,-6.148 7.47,-13.59 10.59,-20.429 l -23.86,-14.821 c -4.62,-62.429 -7.8,-142.32 -11.94,-205.621 l 48.36,-89.23 44.59,22.781 c 3.85,-5.879 7.7,-14.02 10.83,-20.871 -17.35,-9.527 -41.21,-22.059 -61.46,-33.18 -19.76,-10.847 -41.7,-23.469 -60.97,-34.051 -3.62,6.571 -7.7,14.024 -10.83,20.864 l 37.35,22.218" /><path
         id="path60"
         style="fill:#231f20;fill-opacity:1;fill-rule:nonzero;stroke:none"
         d="m 2112.44,3556.91 c -796.49,0 -1444.475,-647.99 -1444.475,-1444.48 0,-796.49 647.985,-1444.469 1444.475,-1444.469 796.48,0 1444.47,647.979 1444.47,1444.469 0,796.49 -647.99,1444.48 -1444.47,1444.48 z m 0,-2908.949 c -807.52,0 -1464.475,656.959 -1464.475,1464.469 0,807.51 656.955,1464.48 1464.475,1464.48 807.51,0 1464.47,-656.97 1464.47,-1464.48 0,-807.51 -656.96,-1464.469 -1464.47,-1464.469" /><path
         id="path62"
         style="fill:#231f20;fill-opacity:1;fill-rule:nonzero;stroke:none"
         d="M 2112.44,4204.87 C 958.66,4204.87 20,3266.2 20,2112.43 20,958.66 958.66,20 2112.44,20 c 1153.78,0 2092.44,938.66 2092.44,2092.43 0,1153.77 -938.66,2092.44 -2092.44,2092.44 z M 2112.44,0 C 947.637,0 0,947.629 0,2112.43 c 0,1164.8 947.637,2112.44 2112.44,2112.44 1164.8,0 2112.44,-947.64 2112.44,-2112.44 C 4224.88,947.629 3277.24,0 2112.44,0" /><path
         id="path64"
         style="fill:#ed1c24;fill-opacity:1;fill-rule:nonzero;stroke:none"
         d="m 3067.87,2430.91 h -636.95 v 636.95 h -636.96 v -636.95 h -636.95 v -636.96 h 636.95 V 1157 h 636.96 v 636.95 h 636.95 v 636.96" /></g></g></svg>