<?xml version="1.0" encoding="UTF-8" standalone="no"?>
<svg
   xmlns:dc="http://purl.org/dc/elements/1.1/"
   xmlns:cc="http://creativecommons.org/ns#"
   xmlns:rdf="http://www.w3.org/1999/02/22-rdf-syntax-ns#"
   xmlns:svg="http://www.w3.org/2000/svg"
   xmlns="http://www.w3.org/2000/svg"
   viewBox="0 0 7559.0532 7559.0532"
   height="7559.0532"
   width="7559.0532"
   xml:space="preserve"
   id="svg2"
   version="1.1"><metadata
     id="metadata8"><rdf:RDF><cc:Work
         rdf:about=""><dc:format>image/svg+xml</dc:format><dc:type
           rdf:resource="http://purl.org/dc/dcmitype/StillImage" /><dc:title></dc:title></cc:Work></rdf:RDF></metadata><defs
     id="defs6" /><g
     transform="matrix(1.3333333,0,0,-1.3333333,0,7559.0533)"
     id="g10"><g
       transform="scale(0.1)"
       id="g12"><g
         transform="scale(3.03818)"
         id="g14"><path
           id="path16"
           style="fill:none;stroke:#ee2529;stroke-width:521.76599121;stroke-linecap:butt;stroke-linejoin:miter;stroke-miterlimit:4;stroke-dasharray:none;stroke-opacity:1"
           d="m 9330.05,2360.13 c 3849.35,0 6969.95,3120.55 6969.95,6969.92 0,3849.45 -3120.6,6969.95 -6969.95,6969.95 -3849.41,0 -6969.95,-3120.5 -6969.95,-6969.95 0,-3849.37 3120.54,-6969.92 6969.95,-6969.92 z" /></g><g
         transform="scale(2.49559)"
         id="g18"><path
           id="path20"
           style="fill:none;stroke:#ee2529;stroke-width:635.20898438;stroke-linecap:butt;stroke-linejoin:miter;stroke-miterlimit:4;stroke-dasharray:none;stroke-opacity:1"
           d="m 11358.6,6417.24 c 2729.1,0 4941.4,2212.31 4941.4,4941.36 0,2729.1 -2212.3,4941.4 -4941.4,4941.4 -2729.09,0 -4941.4,-2212.3 -4941.4,-4941.4 0,-2729.05 2212.31,-4941.36 4941.4,-4941.36 z" /></g><g
         transform="scale(1.98386)"
         id="g22"><path
           id="path24"
           style="fill:#ee2529;fill-opacity:1;fill-rule:nonzero;stroke:none"
           d="M 12460.8,15964.7 V 12612.4 H 16300 v 3352.3 h -3839.2" /></g><g
         transform="scale(2.35105)"
         id="g26"><path
           id="path28"
           style="fill:#ee2529;fill-opacity:1;fill-rule:nonzero;stroke:none"
           d="m 10642.5,16300 v -3036.4 h 2828.8 V 16300 h -2828.8" /></g><g
         transform="scale(1.94304)"
         id="g30"><path
           id="path32"
           style="fill:#ee2529;fill-opacity:1;fill-rule:nonzero;stroke:none"
           d="M 12877.3,13088.5 V 9454.65 H 16300 v 3633.85 h -3422.7" /></g><g
         transform="scale(1.94305)"
         id="g34"><path
           id="path36"
           style="fill:#ee2529;fill-opacity:1;fill-rule:nonzero;stroke:none"
           d="M 9454.57,16300 V 12877.3 H 12877.2 V 16300 H 9454.57" /></g><g
         transform="scale(2.35104)"
         id="g38"><path
           id="path40"
           style="fill:#ee2529;fill-opacity:1;fill-rule:nonzero;stroke:none"
           d="M 13471.3,13471.3 V 10642.6 H 16300 v 2828.7 h -2828.7" /></g><g
         transform="scale(2.72735)"
         id="g42"><path
           id="path44"
           style="fill:#ee2529;fill-opacity:1;fill-rule:nonzero;stroke:none"
           d="m 4331.38,6844.59 227.66,-303.07 1004.64,754.61 -829.56,-987.7 206.06,-274.33 1180.05,521.09 -1004.64,-754.61 227.66,-303.08 1317.36,989.49 -365.34,486.37 -941.54,-415.71 660.57,789.78 -365.56,486.66 z m 2228.54,-2351.14 392.98,-283.69 507.97,1665.32 -409.34,295.49 -1420.79,-1006.4 383.19,-276.6 218.38,177.79 426.02,-307.52 z m -37.58,801.95 479.29,384.47 -212.62,-576.97 z m 815,-1291.84 1105.99,-425.91 145.81,378.61 -674.09,259.59 446.33,1158.89 -431.92,166.35 z m 2572.28,-687.7 481.68,-53.32 -378.1,1699.49 -501.84,55.51 -740.76,-1575.66 469.69,-51.96 102.48,262.27 522.27,-57.79 z m -427.74,679.41 227.77,570.66 99.14,-606.85 z m 2255.92,27.17 26.5,-152.82 c -52.9,-49.5 -101.1,-86.39 -144.6,-110.62 -43.5,-24.31 -90.8,-40.85 -141.8,-49.72 -107.3,-18.63 -197.6,4.51 -270.7,69.37 -73.2,64.9 -125,185.16 -155.4,360.86 -28.7,165.36 -20,291.42 26.1,378.1 46.2,86.71 119.2,138.74 219.2,156.12 67.1,11.62 125.2,4.95 174.1,-20.02 48.9,-24.97 87.7,-66.51 116.5,-124.63 l 424.9,162.69 c -45,100.17 -100.2,179.77 -165.3,238.8 -65.2,59 -141.1,97.75 -227.6,116.23 -86.5,18.45 -211.3,13.5 -374.4,-14.77 -169.1,-29.33 -299.1,-78.91 -390,-148.68 -116.4,-90.16 -196.5,-206.5 -240.2,-349.06 -43.7,-142.59 -50.2,-302.42 -19.4,-479.59 29.2,-168.33 85.4,-312.17 168.7,-431.55 83.3,-119.42 185.8,-202.39 307.6,-248.92 121.8,-46.57 270.3,-54.63 445.4,-24.24 142.3,24.68 262.1,64.31 359.5,118.83 97.3,54.53 204.7,144.06 322,268.62 l -120.1,692.06 -704.6,-122.24 58.6,-337.77 z m 1941,70.76 435.3,213.1 -1229.9,1232.34 -453.4,-221.94 218.8,-1727.32 424.4,207.75 -54,276.38 472,231.04 z m -725.2,344.51 -113.4,603.89 408.9,-459.28 z m 1505,260.59 c 145,-15.66 312.8,60.97 503.4,229.93 108.6,96.21 183.3,193.19 224.1,290.94 40.8,97.71 51.5,197.55 32.1,299.56 -19.3,101.93 -64.1,192.45 -134.1,271.51 -59.7,67.28 -128.5,114.91 -206.5,142.88 -78,27.94 -166.1,31.28 -264.1,9.94 -98.1,-21.34 -238.7,-81.14 -421.9,-179.41 -73.6,-40.22 -125.8,-59.39 -156.5,-57.6 -30.7,0.81 -54.8,11 -72.2,30.65 -23.8,26.92 -33.9,58.78 -30.1,95.63 3.7,36.85 25.7,73.15 66,108.82 48.9,43.38 98.4,64.75 148.6,64.13 50.1,-0.59 104.1,-24.82 162,-72.63 l 307.8,310.37 c -127.5,115.2 -254.9,168.77 -382,160.74 -127.1,-8.07 -262.3,-75.53 -405.5,-202.5 -116.8,-103.44 -194.4,-201 -232.8,-292.67 -38.5,-91.66 -49.4,-180.43 -32.9,-266.37 16.6,-85.95 53,-160.6 109.1,-223.96 85.5,-96.43 188.4,-146.88 308.8,-151.28 119.9,-4.87 272.5,41.21 457.7,138.3 112.6,59.77 192.9,88.37 240.7,85.73 47.9,-2.64 86,-19.95 114.3,-51.92 29.8,-33.66 42.7,-75.09 38.5,-124.3 -4.2,-49.24 -31,-95.77 -80.4,-139.58 -66.3,-58.74 -139.4,-78.98 -219.3,-60.68 -49.2,11.4 -103.5,43.37 -162.8,95.95 l -309.4,-314.78 c 120,-115.93 252.4,-181.71 397.4,-197.4 z m 1010,1813.96 571.4,-386.79 260,384.11 -571.4,386.82 -466.5,1019.01 -286.7,-423.45 290.8,-561.97 -629.4,61.67 -288.2,-425.76 1120,-53.64" /></g><g
         transform="scale(2.89858)"
         id="g46"><path
           id="path48"
           style="fill:#ee2529;fill-opacity:1;fill-rule:nonzero;stroke:none"
           d="m 4564.9,10581.5 c 46.05,-48.4 64.13,-114 54.3,-196.7 -10.18,-85.3 -49.72,-147.7 -118.61,-187.2 -68.86,-39.6 -188.61,-49.2 -359.25,-28.9 -137.72,16.5 -236.39,48.2 -296,95.4 -80.49,62.5 -114.89,142.7 -103.23,240.7 5.18,43.3 19.63,81.3 43.4,114 23.77,32.6 55.31,58.9 94.6,78.7 23.43,12.1 59.41,22 107.92,29.8 l -47.96,392.9 c -168.22,-29.6 -297.59,-90.2 -388.02,-181.7 -90.42,-91.6 -146.14,-225.4 -167.15,-401.7 -26.85,-225.3 20.77,-407.7 142.87,-547.1 122.09,-139.45 310.42,-224.36 565.07,-254.72 190.99,-22.76 351.86,-6.45 482.65,48.99 130.79,55.38 226.21,128.41 286.31,219.03 60.1,90.6 99.22,212 117.37,364.1 14.94,125.3 7.28,231 -22.94,316.9 -30.23,85.9 -81.28,160.8 -153.15,224.9 -71.9,64.1 -164.77,115.8 -278.65,155.2 l -171.16,-363.9 c 95.02,-30.7 165.57,-70.3 211.63,-118.7 z m 725.97,1073.9 -572.45,261.2 15.97,35 c 16.49,36.1 42.16,63.5 77.01,82.1 26.25,13.4 73.38,20.8 141.44,22.1 l 527.61,15.2 204.24,447.7 -496.21,-5.4 c -24.77,0 -62.45,-5.2 -112.95,-15.5 -50.51,-10.5 -84.84,-20.3 -103.05,-29.6 -27.16,-13.7 -60.17,-40.1 -99.05,-79.4 12.14,65.7 14.69,120.5 7.65,164.6 -11.03,69.2 -38.01,131.9 -80.97,188.1 -42.91,56.3 -103.49,102.2 -181.74,137.9 -89.8,41 -175.02,55.9 -255.64,44.8 -80.63,-11.1 -147.25,-43.8 -199.86,-98 -52.61,-54.2 -106.85,-142.5 -162.7,-264.9 l -301.25,-660.4 1410.42,-643.4 z m -1125.65,513.6 79.41,174 c 32.99,72.3 67.66,116 103.99,131.2 36.36,15.1 77.31,12.2 122.85,-8.5 30.77,-14.1 54.23,-34.8 70.38,-62.3 16.18,-27.4 21.15,-55.6 14.94,-84.5 -10.83,-57.7 -20.39,-95.6 -28.64,-113.7 l -76.21,-167 z m 1416.76,726.7 c 131.82,-36.7 253.88,-36.7 366.15,0 112.26,36.6 223.35,112.4 333.33,227.2 108.19,112.8 175.23,229.4 201.17,349.7 25.91,120.3 16.18,240.6 -29.22,360.9 -45.37,120.2 -133.48,243 -264.3,368.4 -180.23,172.6 -364.22,261.1 -552.03,265.3 -187.82,4.2 -362.87,-78.4 -525.16,-247.8 -158.28,-165.2 -230.87,-342.8 -217.73,-532.9 13.11,-190.2 111.06,-372.7 293.8,-547.8 130.83,-125.4 262.17,-206.4 393.99,-243 z m -281.07,848.4 c -12.59,85.7 11.49,160.3 72.24,223.7 63.41,66.2 137.93,95.3 223.56,87.4 85.63,-8 181.16,-62.4 286.52,-163.4 125.24,-120 194.27,-221.6 207.17,-305 12.91,-83.3 -13.04,-158.8 -77.76,-226.3 -62.96,-65.8 -137.41,-94.1 -223.38,-85 -85.94,9.2 -185.44,67.9 -298.46,176.2 -114.02,109.2 -177.33,206.7 -189.89,292.4 z m 1720.19,57.6 370.94,230 -816.99,1317.5 -370.94,-230 z m 743.37,1301.2 -205.28,-920.2 461.4,154 106.26,560.5 421.73,-384.3 464.12,155 -708.45,606.3 178.33,851.1 -450.47,-150.4 -79.21,-529.3 -387.64,373.4 -455.05,-151.9 z m 1248.61,125.2 566.48,54.7 -32.01,331.6 -566.49,-54.7 z m 1261.32,-574.6 82.3,623.8 38.1,-5 c 39.4,-5.2 73.1,-21.7 101.1,-49.6 20.5,-21.2 41.3,-64.1 62.5,-128.8 l 168.8,-500.2 487.9,-64.3 -150.4,472.9 c -7.2,23.7 -23.1,58.2 -47.8,103.5 -24.8,45.3 -44.2,75.2 -58.4,89.9 -21,22 -56,45.8 -104.9,71.5 66.3,7.6 119.5,21.2 159.6,40.8 62.9,30.8 115,75 156.2,132.4 41.2,57.6 67.5,128.9 78.7,214.2 12.9,97.9 2.3,183.7 -31.9,257.6 -34.2,73.8 -84.9,127.9 -152.1,162.4 -67.3,34.5 -167.6,60.5 -301,78.1 l -719.6,95 -202.81,-1537 z m 161.8,1226.6 189.7,-25 c 78.8,-10.4 130.7,-30.7 155.8,-61.1 25.1,-30.3 34.4,-70.3 27.8,-119.9 -4.4,-33.6 -17.4,-62.1 -38.9,-85.6 -21.5,-23.4 -47,-36.4 -76.4,-38.9 -58.4,-6.6 -97.5,-8.5 -117.2,-5.9 l -182,24 z m 1110.6,-1133.3 c 3.9,-136.8 39.9,-253.4 108.1,-349.9 68.2,-96.4 173.3,-180.2 315.4,-251.4 139.8,-70.1 271,-99.7 393.6,-89 122.6,10.7 234.6,55.6 336.1,134.4 101.5,78.9 192.9,199.3 274,361.3 111.8,223.1 142,425 90.6,605.7 -51.4,180.7 -182,323.6 -391.7,428.6 -204.6,102.5 -395.7,119.4 -573.5,50.8 -177.8,-68.7 -323.3,-216.1 -436.7,-442.4 -81.1,-162 -119.8,-311.4 -115.9,-448.1 z m 727.7,518.9 c 78.2,37.3 156.6,36.3 235.1,-3 81.9,-41.1 131.7,-103.7 149.4,-187.8 17.7,-84.2 -6.1,-191.5 -71.5,-322 -77.7,-155 -154.4,-251 -230.3,-287.9 -75.8,-37 -155.6,-34.5 -239.2,7.4 -81.4,40.8 -130.4,103.6 -147,188.4 -16.7,84.9 10.1,197.2 80.2,337.1 70.7,141.3 145.1,230.5 223.3,267.8 z m 1651.8,-1820.4 c -61.6,-59.9 -124.1,-90.9 -187.3,-93 -63.4,-2 -121.1,23.8 -173.4,77.6 -52.7,54.2 -76.8,113.2 -72.4,176.9 4.4,63.7 36.9,125 97.5,183.9 l 678.2,659 -302.8,311.6 -662.4,-643.6 c -54.6,-53 -107.9,-123.6 -159.9,-211.6 -32.3,-54.6 -53.4,-118.3 -63.4,-191 -10,-72.6 -7.2,-139.4 8.3,-200.4 15.5,-60.9 47.7,-124.1 96.6,-189.6 48.9,-65.5 97.3,-122.9 145,-172 82.7,-85.1 165.8,-145.9 249.5,-182.5 60.2,-26.5 131.4,-38.4 213.7,-35.7 82.3,2.7 161.8,23.1 238.2,61.2 76.5,38.1 147.5,89 213.2,152.9 l 662.4,643.6 -302.8,311.7 z m 993.6,-1682.1 -132.4,-61.3 c -57.9,36.1 -103.2,71 -135.8,104.6 -32.6,33.6 -59.2,72.5 -79.6,116.8 -43.1,93 -44,180.7 -2.8,262.9 41.1,82.3 137.9,158.6 290.2,229.1 143.3,66.3 260,89 350,68.2 90,-20.9 155.1,-74.6 195.2,-161.3 26.9,-58.2 34.9,-112.5 24.2,-163.1 -10.9,-50.5 -39.1,-95.9 -85,-136.2 l 251.3,-346.7 c 80,65.4 139,134.8 176.8,208.4 37.8,73.6 54.5,152 50.3,235.1 -4.3,83.2 -39.1,195.4 -104.5,336.7 -67.8,146.6 -144.5,252.7 -230,318.4 -110.3,83.9 -235.5,128.3 -375.7,133.4 -140.2,5 -287.1,-28 -440.7,-99 -145.9,-67.5 -262.9,-153.6 -351.2,-258.4 -88.2,-104.7 -138.7,-218.1 -151.4,-340.1 -12.7,-122 16.1,-259 86.3,-410.8 57.1,-123.3 122.2,-222.6 195.4,-297.8 73.3,-75.2 180.8,-151 322.5,-227.4 l 599.9,277.6 -282.6,610.7 -292.7,-135.4 z m -287.8,-883.9 129.1,-1181.2 349,38.16 -81.7,747.34 303.8,33.2 73.7,-673.73 314.3,34.36 -73.7,673.67 245,26.9 79.4,-726.37 329,35.98 -126.8,1160.19 -1541.1,-168.5" /></g></g></g></svg>