<?xml version="1.0" encoding="UTF-8" standalone="no"?>
<svg
   xmlns:dc="http://purl.org/dc/elements/1.1/"
   xmlns:cc="http://creativecommons.org/ns#"
   xmlns:rdf="http://www.w3.org/1999/02/22-rdf-syntax-ns#"
   xmlns:svg="http://www.w3.org/2000/svg"
   xmlns="http://www.w3.org/2000/svg"
   viewBox="0 0 5858.2798 5858.2798"
   height="5858.2798"
   width="5858.2798"
   xml:space="preserve"
   id="svg2"
   version="1.1"><metadata
     id="metadata8"><rdf:RDF><cc:Work
         rdf:about=""><dc:format>image/svg+xml</dc:format><dc:type
           rdf:resource="http://purl.org/dc/dcmitype/StillImage" /><dc:title></dc:title></cc:Work></rdf:RDF></metadata><defs
     id="defs6" /><g
     transform="matrix(1.3333333,0,0,-1.3333333,0,5858.28)"
     id="g10"><g
       transform="scale(0.1)"
       id="g12"><g
         transform="scale(2.69552)"
         id="g14"><path
           id="path16"
           style="fill:#ed1c24;fill-opacity:1;fill-rule:nonzero;stroke:none"
           d="m 8150.04,12430.8 c -578.04,0 -1138.63,-113.1 -1666.21,-336.3 -253.61,-107.2 -498.23,-240 -727.06,-394.6 -226.74,-153.2 -439.99,-329.1 -633.75,-522.9 -193.81,-193.8 -369.73,-407 -522.91,-633.7 -154.59,-228.9 -287.36,-473.5 -394.62,-727.09 C 3982.35,9288.63 3869.2,8728.03 3869.2,8150 c 0,-578.03 113.15,-1138.63 336.29,-1666.21 107.26,-253.57 240.03,-498.19 394.62,-727.02 153.18,-226.74 329.1,-439.95 522.91,-633.75 193.76,-193.81 407.01,-369.73 633.75,-522.91 228.83,-154.59 473.45,-287.36 727.06,-394.62 527.58,-223.14 1088.14,-336.29 1666.21,-336.29 578.03,0 1138.63,113.15 1666.21,336.29 253.55,107.26 498.15,240.03 727.05,394.62 226.7,153.18 439.9,329.1 633.7,522.91 193.8,193.8 369.7,407.01 522.9,633.75 154.6,228.83 287.4,473.45 394.6,727.02 223.2,527.58 336.3,1088.18 336.3,1666.21 0,578.03 -113.1,1138.63 -336.3,1666.21 -107.2,253.59 -240,498.19 -394.6,727.09 -153.2,226.7 -329.1,439.9 -522.9,633.7 -193.8,193.8 -407,369.7 -633.7,522.9 -228.9,154.6 -473.5,287.4 -727.05,394.6 -527.58,223.2 -1088.18,336.3 -1666.21,336.3 z m 0,-9149.69 c -657.2,0 -1294.85,128.77 -1895.33,382.75 -288.55,122.05 -566.87,273.08 -827.15,448.96 -257.76,174.11 -500.13,374.1 -720.38,594.36 -220.26,220.25 -420.25,462.62 -594.36,720.38 -175.88,260.28 -326.91,538.6 -448.98,827.15 -253.97,600.44 -382.74,1238.13 -382.74,1895.29 0,657.17 128.77,1294.85 382.74,1895.3 122.07,288.6 273.1,566.9 448.95,827.2 174.14,257.7 374.13,500.1 594.39,720.4 220.25,220.2 462.62,420.2 720.38,594.3 260.28,175.9 538.6,326.9 827.15,449 600.48,254 1238.13,382.7 1895.33,382.7 657.16,0 1294.85,-128.7 1895.26,-382.7 288.6,-122.1 566.9,-273.1 827.2,-449 257.7,-174.1 500.1,-374.1 720.4,-594.3 220.2,-220.3 420.2,-462.7 594.3,-720.4 175.9,-260.3 326.9,-538.6 449,-827.2 254,-600.45 382.7,-1238.13 382.7,-1895.3 0,-657.16 -128.7,-1294.85 -382.7,-1895.29 -122.1,-288.55 -273.1,-566.87 -449,-827.15 -174.1,-257.76 -374.1,-500.13 -594.3,-720.38 -220.3,-220.26 -462.7,-420.25 -720.4,-594.36 -260.3,-175.88 -538.6,-326.91 -827.2,-448.96 -600.41,-253.98 -1238.1,-382.75 -1895.26,-382.75 z m 0,12430.79 c -513.26,0 -1026.11,-51.6 -1524.31,-153.6 -485.4,-99.3 -962.82,-247.5 -1419.06,-440.5 -448,-189.5 -880.16,-424 -1284.39,-697.1 -400.48,-270.6 -777.08,-581.3 -1119.35,-923.6 -342.26,-342.3 -652.99,-718.9 -923.55,-1119.3 -273.1,-404.3 -507.66,-836.4 -697.15,-1284.4 C 989.26,10637.1 841.054,10159.7 741.731,9674.31 639.787,9176.11 588.094,8663.26 588.094,8150 c 0,-513.26 51.693,-1026.11 153.637,-1524.3 99.323,-485.37 247.529,-962.82 440.499,-1419.03 189.49,-448.03 424.05,-880.16 697.15,-1284.39 270.56,-400.47 581.28,-777.1 923.55,-1119.33 342.27,-342.28 718.87,-653.01 1119.35,-923.57 404.23,-273.12 836.39,-507.66 1284.39,-697.16 456.24,-192.949 933.66,-341.158 1419.06,-440.506 498.2,-101.911 1011.05,-153.626 1524.31,-153.626 513.26,0 1026.11,51.715 1524.3,153.626 485.36,99.348 962.86,247.557 1419.06,440.506 448,189.5 880.1,424.04 1284.4,697.16 400.4,270.56 777.1,581.29 1119.3,923.57 342.3,342.23 653,718.86 923.6,1119.33 273.1,404.23 507.6,836.36 697.1,1284.39 193,456.21 341.2,933.66 440.5,1419.03 101.9,498.19 153.7,1011.04 153.7,1524.3 0,513.26 -51.8,1026.11 -153.7,1524.31 -99.3,485.39 -247.5,962.79 -440.5,1419.09 -189.5,448 -424,880.1 -697.1,1284.4 -270.6,400.4 -581.3,777 -923.6,1119.3 -342.2,342.3 -718.9,653 -1119.3,923.6 -404.3,273.1 -836.4,507.6 -1284.4,697.1 -456.2,193 -933.7,341.2 -1419.06,440.5 -498.19,102 -1011.04,153.6 -1524.3,153.6 z M 8150.04,0 C 7597.27,0 7044.72,55.7232 6507.83,165.571 5984.41,272.675 5469.55,432.497 4977.59,640.582 c -482.99,204.3 -948.83,457.128 -1384.53,751.508 -431.49,291.48 -837.24,626.26 -1205.97,994.98 -368.74,368.76 -703.51,774.51 -995.02,1206 -294.36,435.69 -547.195,901.5 -751.482,1384.48 C 432.503,5469.56 272.682,5984.41 165.576,6507.8 55.7073,7044.72 0,7597.23 0,8150 c 0,552.77 55.7073,1105.32 165.576,1642.21 107.106,523.39 266.927,1038.29 475.012,1530.19 204.287,483 457.122,948.9 751.482,1384.6 291.51,431.5 626.28,837.2 995.02,1206 368.73,368.7 774.48,703.5 1205.97,995 435.7,294.3 901.54,547.2 1384.53,751.5 491.96,208 1006.82,367.9 1530.24,475 536.89,109.8 1089.44,165.5 1642.21,165.5 552.77,0 1105.28,-55.7 1642.2,-165.5 523.36,-107.1 1038.26,-267 1530.26,-475 483,-204.3 948.8,-457.2 1384.5,-751.5 431.5,-291.5 837.2,-626.3 1206,-995 368.7,-368.8 703.5,-774.5 995,-1206 294.3,-435.7 547.2,-901.6 751.5,-1384.6 208,-491.9 367.9,-1006.8 475,-1530.19 109.8,-536.89 165.5,-1089.44 165.5,-1642.21 0,-552.77 -55.7,-1105.28 -165.5,-1642.2 -107.1,-523.39 -267,-1038.24 -475,-1530.25 -204.3,-482.98 -457.2,-948.79 -751.5,-1384.48 -291.5,-431.49 -626.3,-837.24 -995,-1206 -368.8,-368.72 -774.5,-703.5 -1206,-994.98 C 12271.3,1097.71 11805.5,844.882 11322.5,640.582 10830.5,432.497 10315.6,272.675 9792.24,165.571 9255.32,55.7232 8702.81,0 8150.04,0" /></g><g
         transform="scale(1.95977)"
         id="g18"><path
           id="path20"
           style="fill:#ed1c24;fill-opacity:1;fill-rule:nonzero;stroke:none"
           d="m 13246,12906.5 h -339.5 V 16300 H 9513.02 V 12906.5 H 9359.58 6119.55 V 9513.02 h 3240.03 153.44 V 6119.55 h 3393.48 v 3393.47 h 339.5 3054 v 3393.48 h -3054" /></g><g
         transform="scale(2.33607)"
         id="g22"><path
           id="path24"
           style="fill:#ed1c24;fill-opacity:1;fill-rule:nonzero;stroke:none"
           d="m 15329.3,4872.84 667.2,-451.58 303.5,448.45 -667.1,451.61 -544.7,1189.69 -334.6,-494.37 339.5,-656.11 -734.9,72.01 -336.5,-497.08 1307.6,-62.62 z M 14150.2,2755.05 c 169.3,-18.28 365.1,71.19 587.7,268.44 126.8,112.33 214,225.55 261.6,339.68 47.7,114.08 60.2,230.64 37.5,349.73 -22.6,119 -74.8,224.69 -156.6,316.98 -69.6,78.55 -150,134.16 -241.1,166.82 -91,32.62 -193.9,36.51 -308.3,11.6 -114.5,-24.91 -278.7,-94.73 -492.6,-209.45 -85.9,-46.96 -146.8,-69.35 -182.7,-67.25 -35.8,0.94 -63.9,12.84 -84.3,35.78 -27.8,31.42 -39.5,68.62 -35.1,111.64 4.3,43.03 30,85.4 77,127.06 57.2,50.64 115,75.59 173.5,74.86 58.6,-0.68 121.6,-28.98 189.2,-84.8 l 359.4,362.36 c -148.9,134.5 -297.6,197.04 -446,187.67 -148.4,-9.42 -306.3,-88.18 -473.5,-236.42 -136.3,-120.76 -226.9,-234.67 -271.7,-341.69 -45,-107.01 -57.8,-210.65 -38.4,-310.99 19.3,-100.34 61.8,-187.49 127.3,-261.46 99.8,-112.59 220,-171.49 360.6,-176.63 139.9,-5.69 318.1,48.12 534.3,161.47 131.5,69.78 225.2,103.17 281,100.09 55.9,-3.09 100.4,-23.29 133.4,-60.62 34.8,-39.3 49.9,-87.67 45,-145.11 -4.9,-57.49 -36.1,-111.82 -93.9,-162.97 -77.3,-68.58 -162.7,-92.21 -256,-70.85 -57.5,13.32 -120.8,50.64 -190.1,112.03 l -361.2,-367.5 c 140.1,-135.35 294.7,-212.15 464,-230.47 z m -1757.1,-304.23 -132.4,705.03 477.4,-536.2 -345,-168.83 z m 846.7,-402.21 508.2,248.79 -1435.9,1438.74 -529.4,-259.11 255.4,-2016.63 495.6,242.54 -63.1,322.68 551,269.73 218.2,-246.74 z m -2266.1,-82.62 30.9,-178.42 c -61.8,-57.79 -118.1,-100.85 -168.9,-129.14 -50.7,-28.39 -105.9,-47.69 -165.4,-58.05 -125.4,-21.75 -230.8,5.26 -316.1,80.99 -85.4,75.77 -145.9,216.17 -181.5,421.3 -33.5,193.06 -23.3,340.23 30.6,441.43 53.8,101.24 139.1,161.98 255.9,182.27 78.3,13.57 146.1,5.78 203.2,-23.37 57.1,-29.15 102.4,-77.65 136,-145.5 l 496.1,189.93 c -52.6,116.95 -116.9,209.88 -193.1,278.8 -76.1,68.88 -164.6,114.13 -265.6,135.7 -101,21.53 -246.7,15.75 -437.1,-17.25 -197.4,-34.25 -349.2,-92.12 -455.35,-173.58 -135.91,-105.27 -229.36,-241.09 -280.38,-407.53 -51.03,-166.47 -58.61,-353.07 -22.69,-559.91 34.07,-196.52 99.74,-364.46 196.95,-503.84 97.22,-139.42 216.97,-236.29 359.17,-290.61 142.1,-54.37 315.5,-63.78 520,-28.3 166.1,28.81 306,75.09 419.6,138.74 113.7,63.65 239,168.19 376,313.6 l -140.2,807.98 -822.6,-142.72 68.4,-394.33 356.1,61.81 z m -2633.81,-31.72 265.92,666.25 115.75,-708.5 -381.67,42.25 z m 499.39,-793.21 562.39,-62.24 -441.51,1984.14 -585.85,64.81 -864.83,-1839.58 548.36,-60.66 119.64,306.2 609.74,-67.47 52.06,-325.2 z m -3003.12,802.89 1291.23,-497.25 170.24,442.03 -787,303.07 521.08,1352.99 -504.26,194.22 -691.29,-1795.06 z m -951.51,1508.21 559.57,448.87 -248.24,-673.61 -311.33,224.74 z m 43.88,-936.27 458.8,-331.2 593.05,1944.25 -477.9,344.98 -1658.77,-1174.97 447.38,-322.93 254.96,207.57 497.37,-359.02 -114.89,-308.68 z M 2326.72,5260.84 2592.51,4906.99 3765.42,5788 2796.91,4634.87 l 240.58,-320.28 1377.7,608.37 -1172.92,-881.01 265.79,-353.84 1538.01,1155.23 -426.52,567.83 -1099.25,-485.34 771.22,922.06 -426.79,568.18 -1538.01,-1155.23 v 0" /></g><g
         transform="scale(2.5073)"
         id="g26"><path
           id="path28"
           style="fill:#ed1c24;fill-opacity:1;fill-rule:nonzero;stroke:none"
           d="m 14371.8,10033.3 149.3,-1365.49 403.4,44.11 -94.4,863.96 351.2,38.36 85.2,-778.84 363.3,39.72 -85.1,778.85 283.1,30.99 91.8,-839.67 380.4,41.6 -146.6,1341.21 -1781.6,-194.8 z m 332.7,1021.9 -153.1,-70.8 c -66.9,41.7 -119.2,82 -156.9,120.9 -37.7,38.8 -68.4,83.8 -92.1,134.9 -49.7,107.6 -50.8,208.9 -3.2,304 47.6,95.1 159.4,183.4 335.5,264.8 165.6,76.7 300.5,102.9 404.6,78.8 104.1,-24 179.3,-86.2 225.7,-186.4 31.1,-67.3 40.4,-130.1 27.9,-188.5 -12.5,-58.4 -45.2,-110.9 -98.2,-157.5 l 290.5,-400.7 c 92.5,75.5 160.7,155.7 204.4,240.8 43.7,85.2 63,175.8 58.1,271.9 -5,96 -45.2,225.8 -120.8,389.2 -78.4,169.4 -167,292.1 -265.9,368 -127.4,97 -272.2,148.3 -434.3,154.2 -162.1,5.8 -331.9,-32.3 -509.4,-114.4 -168.7,-78.1 -304,-177.6 -406.1,-298.7 -102,-121 -160.3,-252.1 -175,-393.2 -14.7,-141.1 18.6,-299.4 99.8,-474.9 66,-142.5 141.3,-257.3 225.9,-344.2 84.7,-87 209,-174.6 372.9,-262.9 l 693.4,320.8 -326.6,706.1 -338.4,-156.6 141.3,-305.6 z m -1148.6,1944.6 c -71.2,-69.3 -143.5,-105.1 -216.6,-107.5 -73.2,-2.4 -140,27.5 -200.4,89.7 -60.9,62.7 -88.8,130.8 -83.7,204.5 5,73.6 42.6,144.5 112.7,212.6 l 784,761.8 -350,360.3 -765.8,-744.1 c -63.1,-61.3 -124.7,-142.8 -184.8,-244.6 -37.4,-63.2 -61.8,-136.8 -73.4,-220.8 -11.4,-84 -8.2,-161.2 9.7,-231.7 17.8,-70.4 55.1,-143.4 111.6,-219.2 56.6,-75.7 112.5,-142 167.7,-198.9 95.5,-98.3 191.7,-168.6 288.4,-210.9 69.6,-30.6 151.9,-44.4 247.1,-41.3 95.1,3.2 187,26.7 275.3,70.8 88.4,44 170.6,102.9 246.5,176.7 l 765.8,744.1 -350,360.3 -784.1,-761.8 z m -1909.5,2104.5 c 90.3,43.1 180.9,42 271.7,-3.5 94.7,-47.5 152.3,-119.9 172.7,-217.1 20.5,-97.4 -7.1,-221.4 -82.6,-372.2 -89.8,-179.3 -178.6,-290.3 -266.2,-332.9 -87.8,-42.7 -179.9,-39.8 -276.6,8.6 -94.1,47.2 -150.8,119.7 -170,217.8 -19.2,98.1 11.7,228 92.7,389.7 81.8,163.3 167.8,266.4 258.3,309.6 z m -841.3,-600 c 4.5,-158.1 46.1,-292.9 124.9,-404.4 78.8,-111.5 200.3,-208.4 364.7,-290.7 161.6,-81 313.2,-115.2 454.9,-102.8 141.8,12.4 271.3,64.2 388.6,155.4 117.4,91.1 223,230.3 316.8,417.6 129.2,258 164.1,491.4 104.7,700.3 -59.4,208.9 -210.4,374 -452.8,495.5 -236.5,118.5 -457.5,138 -663,58.6 -205.5,-79.3 -373.8,-249.8 -504.8,-511.4 -93.9,-187.3 -138.5,-359.9 -134,-518.1 z m -1283.94,1310.3 219.24,-28.9 c 91.09,-12.1 151.15,-35.6 180.15,-70.7 28.99,-35.1 39.72,-81.3 32.15,-138.6 -5.11,-38.8 -20.15,-71.8 -44.99,-98.9 -24.89,-27.1 -54.32,-42.2 -88.34,-45.1 -67.53,-7.5 -112.68,-9.8 -135.45,-6.8 l -210.42,27.8 47.66,361.2 z m -187.14,-1418 95.16,721.1 44.08,-5.8 c 45.54,-6 84.47,-25.2 116.85,-57.4 23.7,-24.5 47.79,-74.1 72.27,-148.9 l 195.15,-578.2 563.97,-74.4 -173.7,546.8 c -8.4,27.4 -26.8,67.3 -55.4,119.6 -28.6,52.3 -51.1,87 -67.5,103.9 -24.3,25.4 -64.7,53 -121.3,82.7 76.7,8.8 138.2,24.5 184.6,47.2 72.7,35.6 132.9,86.6 180.6,153.1 47.6,66.5 78,149 91,247.5 14.9,113.2 2.6,212.4 -37,297.8 -39.5,85.3 -98.2,148 -175.8,187.8 -77.7,39.9 -193.7,70 -347.95,90.3 l -831.89,109.8 -234.47,-1776.8 501.33,-66.1 z m -1458.1,664.2 654.89,63.2 -37.01,383.4 -654.89,-63.3 37.01,-383.3 z m -1443.46,-144.7 -237.31,-1063.9 533.4,178.1 122.84,648 487.54,-444.3 536.55,179.2 -819.01,700.9 206.16,983.9 -520.76,-173.9 -91.57,-611.8 -448.13,431.6 -526.07,-175.6 756.36,-652.2 z m -859.38,-1504.3 428.83,265.9 -944.48,1523.1 -428.83,-265.9 944.48,-1523.1 z m -1988.63,-66.6 c -14.56,99.1 13.28,185.3 83.52,258.6 73.3,76.5 159.45,110.2 258.44,101 98.99,-9.2 209.43,-72.1 331.24,-188.8 144.77,-138.7 224.58,-256.3 239.5,-352.6 14.91,-96.4 -15.08,-183.6 -89.9,-261.7 -72.79,-76 -158.86,-108.7 -258.25,-98.2 -99.35,10.6 -214.37,78.5 -345.03,203.6 -131.82,126.3 -205,239 -219.52,338.1 z m 324.93,-980.8 c 152.4,-42.4 293.51,-42.4 423.29,0 129.78,42.4 258.2,129.9 385.35,262.6 125.08,130.5 202.57,265.3 232.56,404.4 29.96,139.1 18.71,278.1 -33.78,417.1 -52.44,139 -154.31,281 -305.55,425.9 -208.35,199.6 -421.05,301.8 -638.18,306.7 -217.12,4.9 -419.49,-90.6 -607.1,-286.4 -182.99,-191 -266.9,-396.4 -251.71,-616.1 15.16,-219.8 128.39,-430.9 339.65,-633.3 151.24,-144.9 303.07,-238.6 455.47,-280.9 z m -1637.86,-840.1 91.81,201.2 c 38.13,83.5 78.22,134.1 120.21,151.6 42.04,17.4 89.38,14.2 142.03,-9.8 35.57,-16.3 62.7,-40.3 81.36,-72 18.71,-31.7 24.45,-64.3 17.27,-97.7 -12.52,-66.7 -23.57,-110.6 -33.1,-131.4 l -88.11,-193.1 -331.47,151.2 z m 1301.32,-593.7 -661.78,301.9 18.46,40.4 c 19.07,41.8 48.74,73.5 89.02,95 30.35,15.5 84.83,24 163.52,25.6 l 609.94,17.5 236.12,517.6 -573.65,-6.3 c -28.64,0 -72.19,-5.9 -130.58,-17.9 -58.39,-12.1 -98.07,-23.5 -119.13,-34.2 -31.39,-15.8 -69.56,-46.4 -114.51,-91.8 14.04,75.9 16.99,139.3 8.86,190.3 -12.77,80 -43.96,152.5 -93.61,217.5 -49.62,65 -119.65,118.1 -210.11,159.4 -103.81,47.3 -202.33,64.6 -295.53,51.7 -93.21,-12.8 -170.23,-50.6 -231.05,-113.2 -60.82,-62.7 -123.52,-164.8 -188.09,-306.3 l -348.26,-763.4 1630.52,-743.9 209.86,460.1 z M 2733.57,9689.11 c 53.25,-56 74.15,-131.82 62.78,-227.42 -11.77,-98.59 -57.47,-170.74 -137.12,-216.49 -79.61,-45.7 -218.04,-56.79 -415.31,-33.3 -159.21,18.98 -273.28,55.72 -342.2,110.2 -93.05,72.27 -132.81,165.04 -119.33,278.35 5.98,50.01 22.69,93.92 50.17,131.69 27.48,37.73 63.94,68.08 109.36,91.06 27.09,13.91 68.69,25.36 124.76,34.37 l -55.44,454.23 c -194.47,-34.2 -344.03,-104.2 -448.57,-210.1 -104.53,-105.77 -168.94,-260.56 -193.23,-464.32 -31.05,-260.44 24,-471.27 165.16,-632.47 141.14,-161.22 358.87,-259.37 653.25,-294.47 220.79,-26.32 406.77,-7.45 557.97,56.64 151.2,64.01 261.51,148.45 330.99,253.22 69.48,104.73 114.71,245.04 135.69,420.89 17.27,144.9 8.41,267.02 -26.53,366.33 -34.94,99.31 -93.96,185.98 -177.04,260.08 -83.12,74.1 -190.48,133.8 -322.14,179.4 l -197.86,-420.73 c 109.84,-35.5 191.4,-81.21 244.64,-137.16 v 0" /></g></g></g></svg>