<?xml version="1.0" encoding="UTF-8" standalone="no"?>
<!-- Created with Inkscape (http://www.inkscape.org/) -->

<svg
   version="1.1"
   id="svg1"
   width="710.88531"
   height="130.27068"
   viewBox="0 0 710.88531 130.27068"
   sodipodi:docname="Norvergian Red Cross (1).svg"
   inkscape:version="1.3.2 (091e20e, 2023-11-25, custom)"
   xmlns:inkscape="http://www.inkscape.org/namespaces/inkscape"
   xmlns:sodipodi="http://sodipodi.sourceforge.net/DTD/sodipodi-0.dtd"
   xmlns="http://www.w3.org/2000/svg"
   xmlns:svg="http://www.w3.org/2000/svg">
  <defs
     id="defs1">
    <clipPath
       clipPathUnits="userSpaceOnUse"
       id="clipPath3">
      <path
         d="M 0.059998,97.703 H 533.164 V 0.06 H 0.059998 Z"
         transform="translate(-65.170001,-65.149002)"
         id="path3" />
    </clipPath>
  </defs>
  <sodipodi:namedview
     id="namedview1"
     pagecolor="#ffffff"
     bordercolor="#666666"
     borderopacity="1.0"
     inkscape:showpageshadow="2"
     inkscape:pageopacity="0.0"
     inkscape:pagecheckerboard="0"
     inkscape:deskcolor="#d1d1d1"
     inkscape:export-bgcolor="#ffffffff"
     inkscape:zoom="1.3152614"
     inkscape:cx="355.44266"
     inkscape:cy="65.006091"
     inkscape:window-width="1920"
     inkscape:window-height="1017"
     inkscape:window-x="-8"
     inkscape:window-y="-8"
     inkscape:window-maximized="1"
     inkscape:current-layer="g1">
    <inkscape:page
       x="0"
       y="0"
       inkscape:label="Page 1"
       id="page1"
       width="710.88531"
       height="130.27068"
       margin="0"
       bleed="0"
       inkscape:export-filename="Norvergian Red Cross (1).png"
       inkscape:export-xdpi="300"
       inkscape:export-ydpi="300" />
  </sodipodi:namedview>
  <g
     id="g1"
     inkscape:groupmode="layer"
     inkscape:label="Page 1">
    <g
       id="group-MC1">
      <path
         id="path2"
         d="m 0,0 c 0,7.326 0,32.554 0,32.554 h -32.535 c 0,0 0,-25.228 0,-32.554 -7.322,0 -32.635,0 -32.635,0 l 0.048,-32.535 c 0,0 25.265,0 32.587,0 0,-7.32 0,-32.614 0,-32.614 H 0 c 0,0 0,25.294 0,32.614 7.333,0 32.526,0 32.526,0 L 32.526,0 C 32.526,0 7.333,0 0,0"
         style="fill:#ed1c24;fill-opacity:1;fill-rule:nonzero;stroke:none"
         transform="matrix(1.3333333,0,0,-1.3333333,86.893333,43.405333)"
         clip-path="url(#clipPath3)" />
      <path
         id="path4"
         d="m 0,0 h 7.739 l 11.97,-23.488 h 0.09 V 0 h 6.03 V -31.408 H 18.134 L 6.119,-7.919 H 6.029 V -31.408 H 0 V 0"
         style="fill:#231f20;fill-opacity:1;fill-rule:nonzero;stroke:none"
         transform="matrix(1.3333333,0,0,-1.3333333,149.70133,44.056)" />
      <path
         id="path5"
         d="m 0,0 c 4.635,0 5.85,4.14 5.85,8.01 0,3.555 -1.89,6.885 -5.85,6.885 -3.915,0 -5.804,-3.42 -5.804,-6.885 C -5.804,4.185 -4.59,0 0,0 Z M 0,19.574 C 6.885,19.574 12.15,14.939 12.15,7.29 12.15,0.63 7.695,-4.68 0,-4.68 c -7.649,0 -12.104,5.31 -12.104,11.97 0,7.649 5.264,12.284 12.104,12.284"
         style="fill:#231f20;fill-opacity:1;fill-rule:nonzero;stroke:none"
         transform="matrix(1.3333333,0,0,-1.3333333,204.96,80.413333)" />
      <path
         id="path6"
         d="m 0,0 h 5.354 v -5.265 h 0.09 c 0.27,2.161 2.745,5.805 6.345,5.805 0.585,0 1.214,0 1.844,-0.18 v -6.075 c -0.54,0.316 -1.62,0.495 -2.699,0.495 -4.905,0 -4.905,-6.12 -4.905,-9.449 v -8.505 H 0 L 0,0"
         style="fill:#231f20;fill-opacity:1;fill-rule:nonzero;stroke:none"
         transform="matrix(1.3333333,0,0,-1.3333333,225.72,55.034667)" />
      <path
         id="path7"
         d="m 0,0 h 6.39 l 5.129,-17.144 h 0.09 L 16.289,0 h 7.019 l 5.04,-17.144 h 0.09 L 33.254,0 h 5.76 l -7.111,-23.174 h -7.109 l -5.04,17.684 h -0.09 l -4.95,-17.684 H 7.829 L 0,0"
         style="fill:#231f20;fill-opacity:1;fill-rule:nonzero;stroke:none"
         transform="matrix(1.3333333,0,0,-1.3333333,243.48,55.034667)" />
      <path
         id="path8"
         d="M 0,0 C -0.181,2.925 -1.53,5.445 -4.905,5.445 -8.28,5.445 -9.99,3.105 -10.26,0 Z m 4.05,-12.555 c -2.205,-1.215 -4.726,-1.844 -7.965,-1.844 -7.65,0 -12.105,4.409 -12.105,12.014 0,6.705 3.555,12.239 10.754,12.239 C 3.329,9.854 5.76,3.96 5.76,-4.14 h -16.02 c 0.27,-3.735 2.88,-5.85 6.614,-5.85 2.925,0 5.446,1.08 7.696,2.341 v -4.906"
         style="fill:#231f20;fill-opacity:1;fill-rule:nonzero;stroke:none"
         transform="matrix(1.3333333,0,0,-1.3333333,317.75867,67.454667)" />
      <path
         id="path9"
         d="m 0,0 c 0,3.961 -1.531,7.2 -5.04,7.2 -4.095,0 -5.4,-3.78 -5.4,-7.335 0,-3.149 1.665,-7.019 5.13,-7.019 C -1.531,-7.154 0,-3.869 0,0 Z M 6.029,11.34 V -9.584 c 0,-6.3 -2.52,-12.24 -12.239,-12.24 -2.385,0 -5.13,0.361 -8.01,1.576 l 0.495,5.129 c 1.845,-0.99 4.859,-2.025 6.75,-2.025 6.659,0 6.975,4.996 6.975,9 h -0.09 c -1.125,-1.98 -3.825,-3.69 -7.2,-3.69 -6.84,0 -9.45,5.49 -9.45,11.699 0,5.58 2.88,12.015 9.81,12.015 3.06,0 5.444,-1.034 7.109,-3.69 h 0.09 v 3.15 h 5.76"
         style="fill:#231f20;fill-opacity:1;fill-rule:nonzero;stroke:none"
         transform="matrix(1.3333333,0,0,-1.3333333,350.15867,70.154667)" />
      <path
         id="path10"
         d="m 273.562,33.253 h 6.029 v 23.174 h -6.029 z"
         style="fill:#231f20;fill-opacity:1;fill-rule:nonzero;stroke:none"
         transform="matrix(1.3333333,0,0,-1.3333333,0,130.27067)" />
      <path
         id="path11"
         d="m 0,0 c 1.846,0 3.286,0.811 4.231,2.07 0.99,1.305 1.26,2.971 1.26,4.77 H 2.88 C 0.181,6.84 -3.824,6.391 -3.824,2.836 -3.824,0.856 -2.159,0 0,0 Z m -7.064,18.09 c 2.34,1.08 5.49,1.755 8.055,1.755 7.064,0 9.99,-2.925 9.99,-9.765 V 7.11 c 0,-2.339 0.045,-4.094 0.09,-5.804 0.045,-1.755 0.134,-3.375 0.269,-5.175 H 6.031 C 5.806,-2.654 5.806,-1.124 5.76,-0.404 H 5.67 c -1.394,-2.565 -4.409,-4.005 -7.154,-4.005 -4.095,0 -8.1,2.476 -8.1,6.885 0,3.465 1.665,5.489 3.96,6.614 2.295,1.125 5.265,1.351 7.785,1.351 h 3.33 c 0,3.735 -1.665,4.995 -5.22,4.995 -2.566,0 -5.13,-0.991 -7.154,-2.521 l -0.181,5.175"
         style="fill:#231f20;fill-opacity:1;fill-rule:nonzero;stroke:none"
         transform="matrix(1.3333333,0,0,-1.3333333,390.116,80.774667)" />
      <path
         id="path12"
         d="m 0,0 h 5.715 v -3.149 h 0.09 c 1.89,2.655 4.455,3.689 7.605,3.689 5.489,0 7.874,-3.87 7.874,-9.089 v -14.625 h -6.029 v 12.375 c 0,2.834 -0.045,6.659 -3.915,6.659 -4.365,0 -5.31,-4.724 -5.31,-7.694 v -11.34 H 0 V 0"
         style="fill:#231f20;fill-opacity:1;fill-rule:nonzero;stroke:none"
         transform="matrix(1.3333333,0,0,-1.3333333,410.75733,55.034667)" />
      <path
         id="path13"
         d="M 0,0 H 2.07 C 5.174,0 8.729,0.45 8.729,4.365 8.729,8.146 5.219,8.46 2.07,8.46 H 0 Z m -6.3,13.409 h 6.795 c 6.75,0 14.804,0.226 14.804,-8.504 0,-3.689 -2.474,-6.75 -6.479,-7.29 v -0.09 c 1.71,-0.135 2.699,-1.844 3.329,-3.239 l 5.04,-12.285 H 10.17 l -3.781,9.81 C 5.49,-5.85 4.679,-4.95 2.025,-4.95 H 0 v -13.049 h -6.3 v 31.408"
         style="fill:#231f20;fill-opacity:1;fill-rule:nonzero;stroke:none"
         transform="matrix(1.3333333,0,0,-1.3333333,468.65733,61.934667)" />
      <path
         id="path14"
         d="M 0,0 C -0.181,2.925 -1.531,5.445 -4.906,5.445 -8.281,5.445 -9.991,3.105 -10.26,0 Z m 4.05,-12.555 c -2.206,-1.215 -4.726,-1.844 -7.965,-1.844 -7.65,0 -12.105,4.409 -12.105,12.014 0,6.705 3.555,12.239 10.754,12.239 C 3.329,9.854 5.759,3.96 5.759,-4.14 H -10.26 c 0.269,-3.735 2.88,-5.85 6.614,-5.85 2.925,0 5.446,1.08 7.696,2.341 v -4.906"
         style="fill:#231f20;fill-opacity:1;fill-rule:nonzero;stroke:none"
         transform="matrix(1.3333333,0,0,-1.3333333,514.37733,67.454667)" />
      <path
         id="path15"
         d="m 0,0 c 4.005,0 5.31,4.229 5.31,7.515 0,3.24 -1.531,7.38 -5.401,7.38 -3.914,0 -4.994,-4.275 -4.994,-7.38 C -5.085,4.319 -3.96,0 0,0 Z M 5.534,-1.53 H 5.444 C 3.645,-3.78 1.17,-4.68 -1.665,-4.68 c -7.11,0 -9.72,5.85 -9.72,12.195 0,6.39 2.61,12.059 9.72,12.059 3.015,0 5.13,-1.034 6.93,-3.239 h 0.09 v 13.273 h 6.029 V -4.14 h -5.85 v 2.61"
         style="fill:#231f20;fill-opacity:1;fill-rule:nonzero;stroke:none"
         transform="matrix(1.3333333,0,0,-1.3333333,539.63733,80.413333)" />
      <path
         id="path16"
         d="m 0,0 c -2.295,-0.54 -4.769,-0.99 -7.154,-0.99 -10.17,0 -17.235,5.085 -17.235,15.704 0,10.755 6.57,16.785 17.235,16.785 2.069,0 4.814,-0.405 7.109,-1.306 l -0.45,-5.309 c -2.385,1.349 -4.545,1.665 -6.795,1.665 -6.479,0 -10.529,-4.95 -10.529,-11.385 0,-6.39 3.96,-11.204 10.665,-11.204 2.474,0 5.399,0.539 6.885,1.305 L 0,0"
         style="fill:#231f20;fill-opacity:1;fill-rule:nonzero;stroke:none"
         transform="matrix(1.3333333,0,0,-1.3333333,607.136,85.333333)" />
      <path
         id="path17"
         d="m 0,0 h 5.355 v -5.265 h 0.089 c 0.271,2.161 2.746,5.805 6.345,5.805 0.585,0 1.215,0 1.845,-0.18 v -6.075 c -0.54,0.316 -1.62,0.495 -2.699,0.495 -4.906,0 -4.906,-6.12 -4.906,-9.449 v -8.505 H 0 L 0,0"
         style="fill:#231f20;fill-opacity:1;fill-rule:nonzero;stroke:none"
         transform="matrix(1.3333333,0,0,-1.3333333,610.85733,55.034667)" />
      <path
         id="path18"
         d="m 0,0 c 4.635,0 5.85,4.14 5.85,8.01 0,3.555 -1.89,6.885 -5.85,6.885 -3.915,0 -5.805,-3.42 -5.805,-6.885 C -5.805,4.185 -4.59,0 0,0 Z M 0,19.574 C 6.885,19.574 12.15,14.939 12.15,7.29 12.15,0.63 7.694,-4.68 0,-4.68 c -7.649,0 -12.104,5.31 -12.104,11.97 0,7.649 5.264,12.284 12.104,12.284"
         style="fill:#231f20;fill-opacity:1;fill-rule:nonzero;stroke:none"
         transform="matrix(1.3333333,0,0,-1.3333333,645.18533,80.413333)" />
      <path
         id="path19"
         d="m 0,0 c -1.844,0.63 -3.194,0.99 -5.399,0.99 -1.62,0 -3.555,-0.586 -3.555,-2.565 0,-3.691 10.485,-1.351 10.485,-9.72 0,-5.399 -4.815,-7.559 -9.72,-7.559 -2.295,0 -4.635,0.405 -6.84,0.99 l 0.36,4.95 c 1.89,-0.945 3.87,-1.531 5.94,-1.531 1.53,0 3.96,0.586 3.96,2.836 0,4.545 -10.485,1.439 -10.485,9.808 0,4.996 4.365,7.2 9.09,7.2 2.835,0 4.68,-0.45 6.57,-0.854 L 0,0"
         style="fill:#231f20;fill-opacity:1;fill-rule:nonzero;stroke:none"
         transform="matrix(1.3333333,0,0,-1.3333333,684.124,61.514667)" />
      <path
         id="path20"
         d="m 0,0 c -1.844,0.63 -3.194,0.99 -5.399,0.99 -1.62,0 -3.555,-0.586 -3.555,-2.565 0,-3.691 10.485,-1.351 10.485,-9.72 0,-5.399 -4.815,-7.559 -9.72,-7.559 -2.295,0 -4.635,0.405 -6.84,0.99 l 0.36,4.95 c 1.89,-0.945 3.87,-1.531 5.94,-1.531 1.53,0 3.96,0.586 3.96,2.836 0,4.545 -10.485,1.439 -10.485,9.808 0,4.996 4.365,7.2 9.09,7.2 2.835,0 4.68,-0.45 6.57,-0.854 L 0,0"
         style="fill:#231f20;fill-opacity:1;fill-rule:nonzero;stroke:none"
         transform="matrix(1.3333333,0,0,-1.3333333,708.844,61.514667)" />
      <path
         id="path21"
         d="m 0,0 c 0,-2.004 -1.625,-3.628 -3.629,-3.628 -2.004,0 -3.628,1.624 -3.628,3.628 0,2.004 1.624,3.629 3.628,3.629 C -1.625,3.629 0,2.004 0,0"
         style="fill:#231f20;fill-opacity:1;fill-rule:nonzero;stroke:none"
         transform="matrix(1.3333333,0,0,-1.3333333,373.60667,46.84)" />
    </g>
  </g>
</svg>
