<?xml version="1.0" encoding="UTF-8" standalone="no"?>
<!-- Created with Inkscape (http://www.inkscape.org/) -->

<svg
   version="1.1"
   id="svg1"
   width="1178.7627"
   height="241.32001"
   viewBox="0 0 1178.7627 241.32001"
   sodipodi:docname="Norwegian_RedCross.svg"
   inkscape:version="1.3.2 (091e20e, 2023-11-25, custom)"
   xmlns:inkscape="http://www.inkscape.org/namespaces/inkscape"
   xmlns:sodipodi="http://sodipodi.sourceforge.net/DTD/sodipodi-0.dtd"
   xmlns="http://www.w3.org/2000/svg"
   xmlns:svg="http://www.w3.org/2000/svg">
  <defs
     id="defs1">
    <clipPath
       clipPathUnits="userSpaceOnUse"
       id="clipPath3">
      <path
         d="M 0.059998,180.99 H 884.072 V 0.06 H 0.059998 Z"
         id="path3" />
    </clipPath>
  </defs>
  <sodipodi:namedview
     id="namedview1"
     pagecolor="#ffffff"
     bordercolor="#666666"
     borderopacity="1.0"
     inkscape:showpageshadow="2"
     inkscape:pageopacity="0.0"
     inkscape:pagecheckerboard="0"
     inkscape:deskcolor="#d1d1d1"
     inkscape:zoom="0.79320461"
     inkscape:cx="589.38135"
     inkscape:cy="120.39769"
     inkscape:window-width="1920"
     inkscape:window-height="1017"
     inkscape:window-x="-8"
     inkscape:window-y="-8"
     inkscape:window-maximized="1"
     inkscape:current-layer="g1">
    <inkscape:page
       x="0"
       y="0"
       inkscape:label="1"
       id="page1"
       width="1178.7627"
       height="241.32001"
       margin="0"
       bleed="0" />
  </sodipodi:namedview>
  <g
     id="g1"
     inkscape:groupmode="layer"
     inkscape:label="1">
    <g
       id="group-MC1">
      <path
         id="path2"
         d="M 0.059998,0.059998 H 884.072 V 180.99 H 0.059998 Z"
         style="fill:#ffffff;fill-opacity:1;fill-rule:nonzero;stroke:none"
         transform="matrix(1.3333333,0,0,-1.3333333,0,241.32)"
         clip-path="url(#clipPath3)" />
      <path
         id="path4"
         d="M 0,0 V 49.875 H 7.03 L 23.014,24.641 c 3.7,-5.772 6.586,-11.099 8.954,-16.205 l 0.148,0.073 c -0.592,6.661 -0.74,12.728 -0.74,20.498 v 20.868 h 6.068 V 0 H 30.932 L 15.096,25.307 c -3.478,5.55 -6.808,11.248 -9.324,16.65 L 5.55,41.883 C 5.92,35.593 6.068,29.599 6.068,21.312 V 0 H 0"
         style="fill:#231f20;fill-opacity:1;fill-rule:nonzero;stroke:none"
         transform="matrix(1.3333333,0,0,-1.3333333,241.72933,144.756)" />
      <path
         id="path5"
         d="m 0,0 c 6.216,0 10.878,5.847 10.878,13.912 0,6.068 -3.034,13.764 -10.73,13.764 -7.695,0 -11.025,-7.104 -11.025,-13.911 C -10.877,5.92 -6.363,0 -0.074,0 Z m -0.222,-4.883 c -9.694,0 -17.167,7.104 -17.167,18.425 0,11.988 7.844,19.019 17.76,19.019 10.285,0 17.241,-7.475 17.241,-18.427 0,-13.245 -9.175,-19.017 -17.759,-19.017 h -0.075"
         style="fill:#231f20;fill-opacity:1;fill-rule:nonzero;stroke:none"
         transform="matrix(1.3333333,0,0,-1.3333333,326.088,139.33067)" />
      <path
         id="path6"
         d="M 0,0 C 0,4.218 -0.074,7.844 -0.295,11.174 H 5.402 L 5.624,4.144 H 5.92 c 1.628,4.81 5.55,7.844 9.916,7.844 0.74,0 1.258,-0.074 1.85,-0.222 V 5.624 C 16.946,5.772 16.28,5.846 15.392,5.846 10.804,5.846 7.548,2.368 6.66,-2.516 6.512,-3.404 6.364,-4.44 6.364,-5.55 V -24.641 H -0.074 L 0,0"
         style="fill:#231f20;fill-opacity:1;fill-rule:nonzero;stroke:none"
         transform="matrix(1.3333333,0,0,-1.3333333,360.62133,111.90133)" />
      <path
         id="path7"
         d="M 0,0 4.736,-18.204 C 5.846,-22.2 6.734,-25.9 7.4,-29.6 h 0.222 c 0.814,3.626 1.924,7.474 3.182,11.322 L 16.65,0 h 5.476 l 5.549,-17.908 c 1.333,-4.218 2.369,-8.066 3.183,-11.692 h 0.222 c 0.592,3.626 1.554,7.4 2.738,11.618 L 38.924,0 h 6.438 L 33.818,-35.815 h -5.92 l -5.476,17.093 c -1.258,3.996 -2.294,7.548 -3.182,11.766 h -0.148 c -0.888,-4.292 -1.998,-7.992 -3.256,-11.84 L 10.064,-35.815 H 4.144 L -6.66,0 H 0"
         style="fill:#231f20;fill-opacity:1;fill-rule:nonzero;stroke:none"
         transform="matrix(1.3333333,0,0,-1.3333333,396.24,97.001333)" />
      <path
         id="path8"
         d="m 0,0 c 0.074,4.07 -1.702,10.508 -9.028,10.508 -6.586,0 -9.471,-5.994 -9.989,-10.508 z m -19.092,-4.662 c 0.148,-8.807 5.772,-12.433 12.284,-12.433 4.662,0 7.474,0.815 9.916,1.851 l 1.11,-4.662 C 1.924,-20.942 -1.998,-22.2 -7.696,-22.2 c -11.026,0 -17.612,7.326 -17.612,18.056 0,10.878 6.364,19.314 16.798,19.314 11.692,0 14.8,-10.212 14.8,-16.798 0,-1.332 -0.148,-2.368 -0.296,-3.108 l -25.086,0.074"
         style="fill:#231f20;fill-opacity:1;fill-rule:nonzero;stroke:none"
         transform="matrix(1.3333333,0,0,-1.3333333,495.69467,116.14267)" />
      <path
         id="path9"
         d="m 0,0 c 0,1.11 -0.073,2.072 -0.37,2.96 -1.183,3.774 -4.365,6.882 -9.101,6.882 -6.216,0 -10.656,-5.254 -10.656,-13.542 0,-7.029 3.552,-12.875 10.582,-12.875 3.996,0 7.622,2.516 9.028,6.66 C -0.147,-8.806 0,-7.548 0,-6.438 Z m 6.439,-16.501 c 0,-8.215 -1.628,-13.246 -5.106,-16.354 -3.479,-3.257 -8.51,-4.293 -13.024,-4.293 -4.292,0 -9.028,1.036 -11.914,2.96 l 1.628,4.959 c 2.368,-1.48 6.068,-2.812 10.508,-2.812 6.659,0 11.544,3.478 11.544,12.506 v 3.996 h -0.148 c -1.998,-3.33 -5.846,-5.994 -11.396,-5.994 -8.88,0 -15.244,7.547 -15.244,17.463 0,12.136 7.918,19.018 16.131,19.018 6.217,0 9.621,-3.256 11.175,-6.216 h 0.148 l 0.296,5.402 H 6.734 C 6.586,11.544 6.439,8.658 6.439,4.292 v -20.793"
         style="fill:#231f20;fill-opacity:1;fill-rule:nonzero;stroke:none"
         transform="matrix(1.3333333,0,0,-1.3333333,547,115.848)" />
      <path
         id="path10"
         d="M 6.512,0 H 0 V 35.815 H 6.512 Z M 0,0 Z m 3.108,42.401 c -2.368,0 -4.07,1.924 -4.07,4.218 0,2.294 1.776,4.144 4.218,4.144 2.516,0 4.144,-1.85 4.144,-4.144 C 7.474,44.325 5.846,42.401 3.182,42.401 H 3.108"
         style="fill:#231f20;fill-opacity:1;fill-rule:nonzero;stroke:none"
         transform="matrix(1.3333333,0,0,-1.3333333,569.98933,144.756)" />
      <path
         id="path11"
         d="m 0,0 c -7.103,0.148 -15.17,-1.11 -15.17,-8.066 0,-4.217 2.812,-6.215 6.143,-6.215 4.662,0 7.695,2.96 8.658,5.993 C -0.073,-7.622 0,-6.882 0,-6.216 Z m 6.29,-9.694 c 0,-3.107 0.149,-6.141 0.592,-8.583 h -5.92 l -0.517,4.514 H 0.223 c -1.999,-2.812 -5.847,-5.328 -10.952,-5.328 -7.252,0 -10.952,5.106 -10.952,10.285 0,8.658 7.695,13.394 21.533,13.32 v 0.74 c 0,2.96 -0.814,8.288 -8.139,8.288 -3.33,0 -6.808,-1.036 -9.325,-2.664 l -1.479,4.292 c 2.96,1.924 7.251,3.182 11.766,3.182 C 3.626,18.352 6.29,10.878 6.29,3.7 V -9.694"
         style="fill:#231f20;fill-opacity:1;fill-rule:nonzero;stroke:none"
         transform="matrix(1.3333333,0,0,-1.3333333,618.236,120.38667)" />
      <path
         id="path12"
         d="m 0,0 c 0,3.7 -0.074,6.734 -0.296,9.694 h 5.772 l 0.37,-5.92 h 0.148 c 1.776,3.404 5.92,6.734 11.84,6.734 4.958,0 12.654,-2.96 12.654,-15.244 V -26.121 H 23.976 V -5.476 C 23.976,0.296 21.83,5.18 15.688,5.18 11.396,5.18 8.14,2.072 6.956,-1.554 6.66,-2.368 6.512,-3.478 6.512,-4.588 V -26.121 H 0 V 0"
         style="fill:#231f20;fill-opacity:1;fill-rule:nonzero;stroke:none"
         transform="matrix(1.3333333,0,0,-1.3333333,640.63333,109.928)" />
      <path
         id="path13"
         d="m 0,0 h 4.44 c 5.624,0 8.954,2.812 8.954,7.178 0,4.588 -3.108,6.882 -8.288,6.956 -2.738,0 -4.292,-0.222 -5.106,-0.37 z m -11.174,21.459 c 3.626,0.593 9.029,1.037 15.023,1.037 7.399,0 12.579,-1.11 16.131,-3.922 2.96,-2.369 4.588,-5.846 4.588,-10.434 0,-6.364 -4.514,-10.73 -8.806,-12.284 v -0.222 c 3.478,-1.406 5.402,-4.736 6.66,-9.324 1.554,-5.624 3.108,-12.137 4.07,-14.06 H 14.948 c -0.814,1.405 -2.072,5.476 -3.478,11.618 -1.406,6.216 -3.478,7.992 -8.066,7.992 H 0 v -19.61 h -11.174 v 49.209"
         style="fill:#231f20;fill-opacity:1;fill-rule:nonzero;stroke:none"
         transform="matrix(1.3333333,0,0,-1.3333333,729.53067,107.756)" />
      <path
         id="path14"
         d="M 0,0 C 0,2.738 -1.183,7.326 -6.364,7.326 -11.099,7.326 -13.023,2.96 -13.32,0 Z m -13.246,-7.696 c 0.37,-4.662 4.958,-6.882 10.212,-6.882 3.849,0 6.956,0.518 9.99,1.48 l 1.48,-7.621 c -3.7,-1.48 -8.214,-2.294 -13.098,-2.294 -12.284,0 -19.313,7.178 -19.313,18.499 0,9.176 5.698,19.314 18.277,19.314 11.692,0 16.132,-9.102 16.132,-18.056 0,-1.998 -0.222,-3.626 -0.369,-4.514 l -23.311,0.074"
         style="fill:#231f20;fill-opacity:1;fill-rule:nonzero;stroke:none"
         transform="matrix(1.3333333,0,0,-1.3333333,801.852,115.05733)" />
      <path
         id="path15"
         d="m 0,0 c 0,0.592 -0.075,1.406 -0.149,1.998 -0.666,3.034 -3.107,5.55 -6.586,5.55 -5.105,0 -7.769,-4.588 -7.769,-10.286 0,-6.142 3.034,-9.989 7.696,-9.989 3.256,0 5.846,2.219 6.512,5.401 C -0.075,-6.512 0,-5.698 0,-4.736 Z m 11.248,31.672 v -41.736 c 0,-4.069 0.147,-8.361 0.295,-10.803 h -9.99 l -0.517,5.328 H 0.887 c -2.294,-4.071 -6.66,-6.142 -11.321,-6.142 -8.584,0 -15.467,7.325 -15.467,18.573 0,12.21 7.549,19.24 16.206,19.24 4.441,0 7.918,-1.554 9.546,-4.07 H 0 v 19.61 h 11.248"
         style="fill:#231f20;fill-opacity:1;fill-rule:nonzero;stroke:none"
         transform="matrix(1.3333333,0,0,-1.3333333,856.892,116.93333)" />
      <path
         id="path16"
         d="m 0,0 c -2.071,-1.035 -6.733,-2.219 -12.802,-2.219 -17.241,0 -26.122,10.803 -26.122,25.011 0,17.02 12.137,26.418 27.233,26.418 5.845,0 10.286,-1.11 12.283,-2.146 L -1.701,38.11 c -2.295,0.962 -5.477,1.85 -9.473,1.85 -8.954,0 -15.909,-5.402 -15.909,-16.502 0,-9.989 5.92,-16.279 15.984,-16.279 3.404,0 7.177,0.666 9.398,1.628 L 0,0"
         style="fill:#231f20;fill-opacity:1;fill-rule:nonzero;stroke:none"
         transform="matrix(1.3333333,0,0,-1.3333333,953.188,142.88267)" />
      <path
         id="path17"
         d="m 0,0 c 0,5.328 -0.149,8.806 -0.296,11.914 h 9.694 l 0.369,-6.66 h 0.297 c 1.85,5.254 6.289,7.474 9.768,7.474 1.036,0 1.553,0 2.368,-0.148 V 1.998 c -0.889,0.148 -1.851,0.296 -3.109,0.296 -4.143,0 -6.956,-2.22 -7.695,-5.698 -0.148,-0.74 -0.222,-1.628 -0.222,-2.516 V -24.271 H -0.075 L 0,0"
         style="fill:#231f20;fill-opacity:1;fill-rule:nonzero;stroke:none"
         transform="matrix(1.3333333,0,0,-1.3333333,962.66,112.39333)" />
      <path
         id="path18"
         d="m 0,0 c 4.366,0 7.177,4.365 7.177,10.878 0,5.401 -2.071,10.877 -7.177,10.877 -5.402,0 -7.4,-5.549 -7.4,-10.877 C -7.4,4.662 -4.81,0 -0.075,0 Z m -0.222,-8.066 c -10.582,0 -18.722,6.956 -18.722,18.648 0,11.691 7.696,19.165 19.314,19.165 11.099,0 18.5,-7.621 18.5,-18.499 0,-13.246 -9.399,-19.314 -19.018,-19.314 h -0.074"
         style="fill:#231f20;fill-opacity:1;fill-rule:nonzero;stroke:none"
         transform="matrix(1.3333333,0,0,-1.3333333,1022.5493,135.08667)" />
      <path
         id="path19"
         d="m 0,0 c 2.072,-1.258 6.364,-2.737 9.694,-2.737 3.404,0 4.81,1.184 4.81,3.033 0,1.85 -1.11,2.812 -5.328,4.144 -7.473,2.516 -10.286,6.586 -10.286,10.878 0,6.734 5.698,11.84 14.726,11.84 4.218,0 7.992,-0.962 10.212,-2.072 l -1.998,-7.77 c -1.628,0.888 -4.736,2.072 -7.844,2.072 -2.738,0 -4.292,-1.11 -4.292,-2.96 0,-1.702 1.406,-2.664 5.846,-4.144 6.882,-2.368 9.768,-5.846 9.842,-11.174 0,-6.734 -5.328,-11.765 -15.688,-11.765 -4.736,0 -8.954,1.11 -11.692,2.589 L 0,0"
         style="fill:#231f20;fill-opacity:1;fill-rule:nonzero;stroke:none"
         transform="matrix(1.3333333,0,0,-1.3333333,1056.7853,131.63467)" />
      <path
         id="path20"
         d="m 0,0 c 2.072,-1.258 6.364,-2.737 9.693,-2.737 3.404,0 4.81,1.184 4.81,3.033 0,1.85 -1.11,2.812 -5.328,4.144 -7.473,2.516 -10.286,6.586 -10.286,10.878 0,6.734 5.698,11.84 14.727,11.84 4.218,0 7.991,-0.962 10.211,-2.072 l -1.997,-7.77 c -1.628,0.888 -4.737,2.072 -7.845,2.072 -2.737,0 -4.292,-1.11 -4.292,-2.96 0,-1.702 1.406,-2.664 5.847,-4.144 6.882,-2.368 9.767,-5.846 9.841,-11.174 0,-6.734 -5.328,-11.765 -15.688,-11.765 -4.735,0 -8.953,1.11 -11.691,2.589 L 0,0"
         style="fill:#231f20;fill-opacity:1;fill-rule:nonzero;stroke:none"
         transform="matrix(1.3333333,0,0,-1.3333333,1099.6067,131.63467)" />
      <path
         id="path21"
         d="M 0,0 H -36.1 V 36.1 H -72.206 V 0 h -36.1 v -36.106 h 36.1 V -72.207 H -36.1 v 36.101 H 0 L 0,0"
         style="fill:#ed1c24;fill-opacity:1;fill-rule:nonzero;stroke:none"
         transform="matrix(1.3333333,0,0,-1.3333333,192.58267,96.589333)" />
    </g>
  </g>
</svg>
