<?xml version="1.0" encoding="utf-8"?>
<!-- Generator: Adobe Illustrator 16.0.0, SVG Export Plug-In . SVG Version: 6.00 Build 0)  -->
<!DOCTYPE svg PUBLIC "-//W3C//DTD SVG 1.1//EN" "http://www.w3.org/Graphics/SVG/1.1/DTD/svg11.dtd">
<svg version="1.1" id="Layer_1" xmlns="http://www.w3.org/2000/svg" xmlns:xlink="http://www.w3.org/1999/xlink" x="0px" y="0px"
	 width="595.28px" height="841.89px" viewBox="0 0 595.28 841.89" enable-background="new 0 0 595.28 841.89" xml:space="preserve">
<g>
	<path fill-rule="evenodd" clip-rule="evenodd" fill="#FDFDFD" d="M22.918,288.598c0-61.828,0-123.802,0-185.815
		c183.634,0,367.279,0,551.043,0c0,61.863,0,123.766,0,185.815C390.364,288.598,206.647,288.598,22.918,288.598z M166.808,185.426
		c-12.578,0-24.871,0-37.66,0c0-12.704,0-24.984,0-37.289c-12.814,0-25.12,0-37.924,0c0,12.499,0,24.771,0,37.492
		c-12.769,0-25.042,0-37.25,0c0,12.752,0,25.038,0,37.632c12.474,0,24.652,0,37.316,0c0,12.581,0,24.858,0,37.151
		c12.89,0,25.285,0,38.073,0c0-12.505,0-24.663,0-37.268c12.677,0,24.963,0,37.443,0
		C166.808,210.52,166.808,198.348,166.808,185.426z M216.5,202.771c8.223-0.282,10.259,1.275,11.997,8.442
		c0.767,3.163,1.691,6.288,2.555,9.427c0.34,1.237,0.618,2.546,2.329,2.544c3.443-0.003,6.888,0,11.003,0
		c-4.108-8.602-2.806-18.529-10.998-24.592c6.555-3.527,9.798-8.611,8.497-15.863c-1.302-7.252-6.538-10.279-13.197-11.284
		c-7.897-1.192-15.795-0.868-23.748,0.533c0,17.083,0,34.035,0,51.041c3.904,0,7.543,0,11.562,0
		C216.5,216.241,216.5,209.635,216.5,202.771z M440.627,223.199c-5.414-8.935-10.106-17.193-15.346-25.089
		c-2.345-3.536-2.453-5.842,0.437-9.124c4.83-5.485,9.076-11.486,14.09-17.943c-3.657,0-6.461,0.239-9.208-0.058
		c-3.814-0.412-6.212,0.911-8.261,4.243c-3.808,6.192-8.117,12.076-12.218,18.088c-0.265-0.085-0.529-0.17-0.794-0.255
		c0-7.288,0-14.576,0-21.857c-3.94,0-7.452,0-11.172,0c0,17.309,0,34.458,0,51.802c3.766,0,7.385,0,10.955,0
		c2.024-7.318-3.035-16.065,5.158-21.921c3.728,6.539,7.459,13.056,11.154,19.593c0.781,1.379,1.401,2.652,3.422,2.565
		C432.502,223.087,436.172,223.199,440.627,223.199z M331.396,223.038c0-18.264,0-36.361,0-54.496c-3.973,0-7.617,0-11.615,0
		c0,6.478,0,12.785,0,19.828c-2.657-2.072-5-3.26-7.684-3.617c-9.322-1.243-17.144,4.946-18.896,14.97
		c-2.057,11.771,3.18,22.048,12.343,23.948c4.497,0.931,8.783,0.282,12.458-2.766c0.842-0.698,1.625-1.469,2.674-2.424
		c0.371,1.719,0.666,3.08,0.985,4.557C324.928,223.038,328.143,223.038,331.396,223.038z M277.011,186.429
		c-10.076-3.596-19.572-1.508-24.818,5.243c-6,7.719-5.304,17.356,2.106,28.203c-0.913,1.467-1.856,2.985-2.799,4.501
		c1.314,1.237,2.215,2.542,3.888,2.687c1.238-1.637,2.42-3.201,3.54-4.681c11.219,3.297,20.168,1.144,25.208-6.238
		c5.723-8.38,4.611-19.321-2.485-27.068c0.987-1.628,1.978-3.265,3.113-5.136c-1.687-0.664-2.461-2.297-4.334-2.115
		C279.331,183.304,278.241,184.772,277.011,186.429z M481.203,204.008c-0.021-11.782-7.769-19.442-19.581-19.36
		c-11.966,0.083-19.814,7.883-19.86,19.739c-0.047,11.922,7.824,19.705,19.836,19.616
		C473.471,223.915,481.226,216.006,481.203,204.008z M371.246,214.061c-15.678,1.802-19.72,0.667-20.593-6.082
		c7.904,0,15.767,0,23.541,0c1.782-9.762-1.379-18.093-7.939-21.547c-9.072-4.777-20.874-0.755-25.277,8.614
		c-5.082,10.814-1.229,23.267,8.616,27.165c7.618,3.017,15.245,2.012,23.186-0.574C372.233,218.939,371.737,216.49,371.246,214.061z
		 M518.067,213.208c-1.188,2.864-2.015,5.47-1.89,8.455c7.151,2.807,14.193,3.485,21.245,0.539c4.264-1.78,6.684-5.097,6.91-9.856
		c0.229-4.792-1.97-8.198-6.08-10.351c-2.243-1.174-4.713-1.904-7.026-2.955c-1.668-0.756-3.649-1.555-3.023-3.946
		c0.589-2.251,2.667-2.293,4.516-2.322c2.676-0.042,5.187,0.946,7.955,1.89c0.729-2.788,1.362-5.209,2.049-7.831
		c-6.053-2.605-11.993-3.101-17.948-0.895c-4.729,1.751-7.777,5.096-8.044,10.427c-0.266,5.333,2.918,8.35,7.235,10.479
		c2.026,0.999,4.217,1.661,6.304,2.544c1.684,0.713,3.009,1.854,2.549,3.879c-0.409,1.803-1.957,2.201-3.622,2.352
		C525.401,215.962,521.921,214.852,518.067,213.208z M500.237,223.071c0-6.675-0.151-12.911,0.045-19.136
		c0.181-5.733,2.865-8.167,8.512-8.346c0.93-0.029,1.983,0.493,2.798-0.489c0-3.346,0-6.706,0-10.182
		c-5.843-1.161-9.393,2.011-12.597,6.584c-0.354-2.378-0.617-4.155-0.916-6.172c-3.391,0.458-6.624-0.52-9.331,0.438
		c0,12.651,0,24.94,0,37.303C492.676,223.071,496.192,223.071,500.237,223.071z"/>
	<path fill-rule="evenodd" clip-rule="evenodd" fill="#D8242B" d="M166.808,185.426c0,12.922,0,25.093,0,37.719
		c-12.48,0-24.767,0-37.443,0c0,12.605,0,24.763,0,37.268c-12.788,0-25.183,0-38.073,0c0-12.293,0-24.57,0-37.151
		c-12.664,0-24.842,0-37.316,0c0-12.594,0-24.879,0-37.632c12.207,0,24.481,0,37.25,0c0-12.722,0-24.993,0-37.492
		c12.804,0,25.11,0,37.924,0c0,12.304,0,24.585,0,37.289C141.938,185.426,154.23,185.426,166.808,185.426z"/>
	<path fill-rule="evenodd" clip-rule="evenodd" fill="#201D1E" d="M216.5,202.771c0,6.863,0,13.47,0,20.248
		c-4.019,0-7.657,0-11.562,0c0-17.006,0-33.958,0-51.041c7.953-1.401,15.851-1.726,23.748-0.533
		c6.66,1.005,11.896,4.032,13.197,11.284c1.301,7.252-1.942,12.336-8.497,15.863c8.191,6.063,6.89,15.99,10.998,24.592
		c-4.115,0-7.56-0.002-11.003,0c-1.711,0.002-1.989-1.307-2.329-2.544c-0.864-3.14-1.788-6.264-2.555-9.427
		C226.759,204.046,224.723,202.49,216.5,202.771z M216.667,194.224c5.142-0.141,10.217,0.905,12.981-4.284
		c1.335-2.505,1.294-5.462-0.68-7.629c-3.422-3.756-7.869-2.911-12.431-2.288c0,4.107-0.005,7.933,0.005,11.757
		C216.544,192.462,216.609,193.144,216.667,194.224z"/>
	<path fill-rule="evenodd" clip-rule="evenodd" fill="#201D1E" d="M440.627,223.199c-4.455,0-8.125-0.112-11.782,0.045
		c-2.021,0.086-2.641-1.186-3.422-2.565c-3.695-6.538-7.427-13.054-11.154-19.593c-8.193,5.856-3.134,14.603-5.158,21.921
		c-3.57,0-7.189,0-10.955,0c0-17.344,0-34.493,0-51.802c3.72,0,7.231,0,11.172,0c0,7.281,0,14.569,0,21.857
		c0.265,0.085,0.529,0.17,0.794,0.255c4.101-6.012,8.41-11.896,12.218-18.088c2.049-3.332,4.446-4.655,8.261-4.243
		c2.747,0.297,5.551,0.058,9.208,0.058c-5.014,6.458-9.26,12.458-14.09,17.943c-2.89,3.281-2.781,5.587-0.437,9.124
		C430.521,206.006,435.213,214.264,440.627,223.199z"/>
	<path fill-rule="evenodd" clip-rule="evenodd" fill="#201D1E" d="M331.396,223.038c-3.254,0-6.469,0-9.734,0
		c-0.319-1.477-0.614-2.838-0.985-4.557c-1.049,0.955-1.832,1.726-2.674,2.424c-3.675,3.048-7.961,3.697-12.458,2.766
		c-9.163-1.9-14.4-12.177-12.343-23.948c1.751-10.024,9.573-16.213,18.896-14.97c2.684,0.357,5.026,1.545,7.684,3.617
		c0-7.043,0-13.35,0-19.828c3.998,0,7.643,0,11.615,0C331.396,186.676,331.396,204.774,331.396,223.038z M319.66,204.259
		c0-1.561,0.218-3.16-0.046-4.674c-0.531-3.059-2.354-5.151-5.467-5.821c-2.9-0.624-5.334,0.341-7.177,2.643
		c-3.021,3.775-3.128,11.405-0.248,15.28c1.243,1.674,2.848,2.666,4.998,2.84C317.278,214.979,319.755,211.853,319.66,204.259z"/>
	<path fill-rule="evenodd" clip-rule="evenodd" fill="#201D1E" d="M277.011,186.429c1.23-1.656,2.32-3.125,3.418-4.605
		c1.873-0.183,2.647,1.451,4.334,2.115c-1.135,1.871-2.126,3.508-3.113,5.136c7.097,7.747,8.208,18.688,2.485,27.068
		c-5.04,7.382-13.989,9.535-25.208,6.238c-1.12,1.48-2.302,3.044-3.54,4.681c-1.672-0.144-2.573-1.45-3.888-2.687
		c0.943-1.516,1.887-3.034,2.799-4.501c-7.411-10.847-8.106-20.484-2.106-28.203C257.439,184.921,266.935,182.833,277.011,186.429z
		 M261.079,210.338c3.836-5.583,7.327-10.662,10.921-15.894c-3.348-2.1-6.224-1.875-8.884,0.3
		C259.56,197.653,258.633,203.933,261.079,210.338z M263.91,214.372c3.755,1.729,6.742,1.61,9.404-0.941
		c3.198-3.064,3.92-9.268,1.527-14.531C271.233,204.007,267.762,208.92,263.91,214.372z"/>
	<path fill-rule="evenodd" clip-rule="evenodd" fill="#201D1E" d="M481.203,204.008c0.022,11.999-7.732,19.907-19.605,19.995
		c-12.012,0.088-19.883-7.694-19.836-19.616c0.046-11.856,7.895-19.656,19.86-19.739
		C473.435,184.566,481.182,192.226,481.203,204.008z M453.809,204.78c-0.146,1.854,0.291,4.101,1.217,6.156
		c1.214,2.697,3.088,4.625,6.437,4.603c3.347-0.021,5.165-1.918,6.356-4.683c0.902-2.092,1.27-4.308,1.253-6.605
		c-0.05-6.931-2.989-11.26-7.679-11.202C456.67,193.106,453.793,197.385,453.809,204.78z"/>
	<path fill-rule="evenodd" clip-rule="evenodd" fill="#201D1E" d="M371.246,214.061c0.491,2.43,0.987,4.878,1.533,7.576
		c-7.94,2.586-15.567,3.591-23.186,0.574c-9.846-3.898-13.698-16.35-8.616-27.165c4.403-9.369,16.205-13.391,25.277-8.614
		c6.561,3.454,9.722,11.785,7.939,21.547c-7.774,0-15.637,0-23.541,0C351.526,214.728,355.568,215.863,371.246,214.061z
		 M363.834,199.738c-0.934-5.474-2.796-7.475-6.672-7.385c-3.802,0.089-6.111,2.601-6.633,7.385
		C354.876,199.738,359.203,199.738,363.834,199.738z"/>
	<path fill-rule="evenodd" clip-rule="evenodd" fill="#201D1E" d="M518.067,213.208c3.854,1.644,7.334,2.753,11.129,2.409
		c1.665-0.151,3.213-0.549,3.622-2.352c0.46-2.025-0.865-3.166-2.549-3.879c-2.087-0.884-4.277-1.545-6.304-2.544
		c-4.317-2.129-7.501-5.146-7.235-10.479c0.267-5.331,3.315-8.675,8.044-10.427c5.955-2.206,11.896-1.71,17.948,0.895
		c-0.687,2.622-1.319,5.043-2.049,7.831c-2.769-0.944-5.279-1.931-7.955-1.89c-1.849,0.029-3.927,0.071-4.516,2.322
		c-0.626,2.391,1.355,3.189,3.023,3.946c2.313,1.05,4.783,1.781,7.026,2.955c4.11,2.152,6.309,5.559,6.08,10.351
		c-0.227,4.759-2.646,8.076-6.91,9.856c-7.052,2.946-14.094,2.268-21.245-0.539C516.053,218.678,516.879,216.072,518.067,213.208z"
		/>
	<path fill-rule="evenodd" clip-rule="evenodd" fill="#201D1E" d="M500.237,223.071c-4.045,0-7.562,0-11.489,0
		c0-12.363,0-24.652,0-37.303c2.707-0.958,5.94,0.02,9.331-0.438c0.299,2.018,0.563,3.794,0.916,6.172
		c3.204-4.573,6.754-7.745,12.597-6.584c0,3.476,0,6.836,0,10.182c-0.814,0.981-1.868,0.46-2.798,0.489
		c-5.646,0.179-8.331,2.612-8.512,8.346C500.086,210.161,500.237,216.396,500.237,223.071z"/>
	<path fill-rule="evenodd" clip-rule="evenodd" fill="#FDFDFD" d="M216.667,194.224c-0.058-1.08-0.123-1.761-0.125-2.444
		c-0.01-3.824-0.005-7.65-0.005-11.757c4.562-0.623,9.009-1.468,12.431,2.288c1.974,2.167,2.015,5.124,0.68,7.629
		C226.884,195.128,221.809,194.083,216.667,194.224z"/>
	<path fill-rule="evenodd" clip-rule="evenodd" fill="#FDFDFD" d="M319.66,204.259c0.095,7.594-2.382,10.72-7.939,10.269
		c-2.15-0.174-3.755-1.167-4.998-2.84c-2.88-3.875-2.773-11.505,0.248-15.28c1.843-2.302,4.276-3.267,7.177-2.643
		c3.112,0.67,4.936,2.762,5.467,5.821C319.878,201.099,319.66,202.698,319.66,204.259z"/>
	<path fill-rule="evenodd" clip-rule="evenodd" fill="#FDFDFD" d="M261.079,210.338c-2.446-6.405-1.52-12.685,2.038-15.594
		c2.66-2.175,5.536-2.399,8.884-0.3C268.406,199.676,264.916,204.754,261.079,210.338z"/>
	<path fill-rule="evenodd" clip-rule="evenodd" fill="#FDFDFD" d="M263.91,214.372c3.852-5.452,7.323-10.364,10.931-15.472
		c2.393,5.264,1.671,11.467-1.527,14.531C270.652,215.981,267.666,216.101,263.91,214.372z"/>
	<path fill-rule="evenodd" clip-rule="evenodd" fill="#FDFDFD" d="M453.809,204.78c-0.016-7.395,2.861-11.674,7.584-11.731
		c4.689-0.059,7.629,4.271,7.679,11.202c0.017,2.298-0.351,4.514-1.253,6.605c-1.191,2.764-3.01,4.661-6.356,4.683
		c-3.349,0.023-5.223-1.905-6.437-4.603C454.1,208.88,453.662,206.634,453.809,204.78z"/>
	<path fill-rule="evenodd" clip-rule="evenodd" fill="#FDFDFD" d="M363.834,199.738c-4.631,0-8.958,0-13.305,0
		c0.521-4.784,2.831-7.296,6.633-7.385C361.038,192.263,362.9,194.264,363.834,199.738z"/>
</g>
</svg>
