<?xml version="1.0" encoding="UTF-8" standalone="no"?>
<svg
   xmlns:dc="http://purl.org/dc/elements/1.1/"
   xmlns:cc="http://creativecommons.org/ns#"
   xmlns:rdf="http://www.w3.org/1999/02/22-rdf-syntax-ns#"
   xmlns:svg="http://www.w3.org/2000/svg"
   xmlns="http://www.w3.org/2000/svg"
   viewBox="0 0 340.29333 340.29333"
   height="340.29333"
   width="340.29333"
   xml:space="preserve"
   id="svg2"
   version="1.1"><metadata
     id="metadata8"><rdf:RDF><cc:Work
         rdf:about=""><dc:format>image/svg+xml</dc:format><dc:type
           rdf:resource="http://purl.org/dc/dcmitype/StillImage" /><dc:title></dc:title></cc:Work></rdf:RDF></metadata><defs
     id="defs6" /><g
     transform="matrix(1.3333333,0,0,-1.3333333,0,340.29333)"
     id="g10"><g
       transform="scale(0.1)"
       id="g12"><path
         id="path14"
         style="fill:#ed1c24;fill-opacity:1;fill-rule:nonzero;stroke:none"
         d="m 1715.72,1706.83 c -62.97,17.59 -155.7,49.06 -248.88,30.84 -228.17,-44.62 -425.45,-188.12 -425.45,-468 0,-279.861 164.1,-447.721 435.07,-470.729 79.74,-6.781 198.81,18.957 245.64,33.129 l 4.21,1.571 C 1620.8,722.68 1436.01,659.879 1278.41,659.879 c -332.543,0 -617.945,283.902 -617.945,616.451 0,332.56 299.008,602.14 631.555,602.14 155.7,0 321.17,-78.26 428.06,-175.24 l -4.36,3.6" /><path
         id="path16"
         style="fill:#231f20;fill-opacity:1;fill-rule:nonzero;stroke:none"
         d="m 1276.1,2042.21 c -427.819,0 -775.881,-348.06 -775.881,-775.88 0,-427.83 348.062,-775.889 775.881,-775.889 427.83,0 775.89,348.059 775.89,775.889 0,427.82 -348.06,775.88 -775.89,775.88 z m 0,-1591.769 c -449.873,0 -815.881,366.008 -815.881,815.889 0,449.88 366.008,815.88 815.881,815.88 449.89,0 815.89,-366 815.89,-815.88 0,-449.881 -366,-815.889 -815.89,-815.889" /><path
         id="path18"
         style="fill:#231f20;fill-opacity:1;fill-rule:nonzero;stroke:none"
         d="M 1276.1,2512.21 C 594.512,2512.21 40,1957.7 40,1276.12 40,594.52 594.512,40 1276.1,40 c 681.6,0 1236.12,554.52 1236.12,1236.12 0,681.58 -554.52,1236.09 -1236.12,1236.09 z M 1276.1,0 C 572.457,0 0,572.461 0,1276.12 c 0,703.64 572.457,1276.09 1276.1,1276.09 703.66,0 1276.12,-572.45 1276.12,-1276.09 C 2552.22,572.461 1979.76,0 1276.1,0" /><path
         id="path20"
         style="fill:#231f20;fill-opacity:1;fill-rule:nonzero;stroke:none"
         d="m 348.109,1023.4 c 0,-30.091 -24.386,-54.47 -54.476,-54.47 -30.094,0 -54.485,24.379 -54.485,54.47 0,30.09 24.391,54.48 54.485,54.48 30.09,0 54.476,-24.39 54.476,-54.48" /><path
         id="path22"
         style="fill:#231f20;fill-opacity:1;fill-rule:nonzero;stroke:none"
         d="m 2313.96,1023.4 c 0,-30.091 -24.39,-54.47 -54.47,-54.47 -30.1,0 -54.49,24.379 -54.49,54.47 0,30.09 24.39,54.48 54.49,54.48 30.08,0 54.47,-24.39 54.47,-54.48" /><path
         id="path24"
         style="fill:#231f20;fill-opacity:1;fill-rule:nonzero;stroke:none"
         d="m 852.48,330.352 60.969,-21.52 c -2.105,-8.75 -2.066,-16.102 0.121,-22.043 3.578,-9.629 11.368,-16.93 23.364,-21.891 8.953,-3.707 16.586,-4.789 22.906,-3.226 6.316,1.547 10.445,4.668 12.387,9.367 1.843,4.449 1.187,9.402 -1.969,14.832 -3.16,5.43 -12.488,13.18 -27.988,23.258 -25.332,16.621 -42.059,31.691 -50.188,45.223 -8.219,13.57 -9.543,27.078 -3.977,40.527 3.657,8.84 10.133,15.941 19.43,21.301 9.297,5.351 20.942,7.769 34.942,7.242 13.992,-0.524 31.558,-5.16 52.691,-13.902 25.932,-10.731 44.002,-23 54.242,-36.809 10.22,-13.801 12.94,-30.152 8.15,-49.051 l -60.322,21.52 c 1.633,8.398 0.664,15.39 -2.906,20.992 -3.574,5.598 -9.789,10.238 -18.648,13.898 -7.289,3.02 -13.325,3.981 -18.098,2.891 -4.777,-1.09 -7.941,-3.52 -9.492,-7.27 -1.133,-2.742 -0.633,-5.832 1.508,-9.281 2.011,-3.488 8.152,-8.512 18.418,-15.039 25.335,-16.351 42.87,-29.539 52.61,-39.57 9.74,-10.031 15.74,-19.949 18,-29.77 2.26,-9.82 1.44,-19.422 -2.44,-28.812 -4.56,-11.028 -12.37,-19.699 -23.42,-26.028 -11.05,-6.332 -24.028,-9.222 -38.938,-8.679 -14.91,0.527 -32.191,4.867 -51.848,13 -34.511,14.289 -56.082,29.808 -64.711,46.57 -8.628,16.758 -10.226,34.18 -4.793,52.27" /><path
         id="path26"
         style="fill:#231f20;fill-opacity:1;fill-rule:nonzero;stroke:none"
         d="m 1163.58,286.73 28.5,-2.5 c 3.09,-0.269 9.13,0.051 18.13,0.969 4.55,0.36 8.37,1.981 11.48,4.852 3.11,2.871 4.84,6.328 5.2,10.379 0.52,5.992 -1.32,10.781 -5.51,14.371 -4.2,3.597 -12.47,5.937 -24.8,7.019 l -29.7,2.602 z m -77.56,-104.339 16.23,185.41 112.68,-9.871 c 20.89,-1.828 36.72,-4.739 47.5,-8.739 10.78,-4 19.19,-10.41 25.24,-19.23 6.04,-8.813 8.55,-19.121 7.52,-30.922 -0.9,-10.289 -4.27,-18.93 -10.1,-25.937 -5.83,-7.012 -13.48,-12.442 -22.94,-16.282 -6.03,-2.449 -14.16,-4.199 -24.38,-5.261 7.85,-2.981 13.52,-5.778 17,-8.368 2.35,-1.742 5.67,-5.312 9.95,-10.703 4.29,-5.386 7.11,-9.508 8.47,-12.347 l 28.03,-56.59 -76.39,6.687 -31.17,59.821 c -3.94,7.742 -7.6,12.863 -10.99,15.363 -4.62,3.297 -10.02,5.207 -16.19,5.75 l -5.97,0.527 -6.58,-75.25 -67.91,5.942" /><path
         id="path28"
         style="fill:#231f20;fill-opacity:1;fill-rule:nonzero;stroke:none"
         d="m 1480.16,261.77 60.94,-7.45 c -2.14,-14.531 -6.86,-27.05 -14.16,-37.55 -7.3,-10.508 -16.95,-18.981 -28.95,-25.399 -12.01,-6.422 -27.77,-10.902 -47.28,-13.43 -23.67,-3.07 -43.39,-2.671 -59.15,1.207 -15.76,3.891 -30.04,12.461 -42.84,25.723 -12.8,13.27 -20.69,31.348 -23.66,54.25 -3.96,30.527 2.58,55.238 19.61,74.117 17.04,18.891 43.09,30.614 78.15,35.16 27.43,3.563 49.61,1.661 66.53,-5.707 16.91,-7.363 30.45,-20.281 40.6,-38.769 l -57.97,-18.91 c -2.81,5.347 -5.52,9.179 -8.13,11.488 -4.34,3.871 -9.38,6.629 -15.13,8.281 -5.75,1.641 -11.99,2.02 -18.73,1.149 -15.25,-1.981 -26.26,-8.7 -33.03,-20.141 -5.15,-8.508 -6.64,-21.027 -4.5,-37.539 2.66,-20.461 8.14,-34 16.45,-40.641 8.32,-6.629 19.11,-9.089 32.38,-7.371 12.87,1.672 22.21,6 28,12.981 5.79,6.98 9.42,16.5 10.87,28.551" /><path
         id="path30"
         style="fill:#231f20;fill-opacity:1;fill-rule:nonzero;stroke:none"
         d="m 1581.16,264.922 57.2,30.129 c 4.99,-7.492 10.41,-12.442 16.26,-14.871 9.5,-3.918 20.15,-3.16 31.94,2.269 8.79,4.063 14.77,8.93 17.92,14.621 3.15,5.692 3.66,10.852 1.54,15.461 -2.02,4.379 -6.1,7.25 -12.23,8.617 -6.13,1.372 -18.15,-0.207 -36.08,-4.738 -29.4,-7.308 -51.83,-9.351 -67.27,-6.121 -15.55,3.18 -26.36,11.383 -32.46,24.602 -4,8.687 -4.81,18.257 -2.43,28.718 2.38,10.469 8.52,20.661 18.41,30.571 9.89,9.922 25.22,19.66 45.99,29.23 25.49,11.75 46.77,16.68 63.85,14.82 17.08,-1.871 30.93,-10.98 41.55,-27.339 l -56.77,-29.653 c -5.05,6.903 -10.84,10.942 -17.38,12.121 -6.54,1.18 -14.16,-0.23 -22.87,-4.238 -7.16,-3.312 -11.97,-7.082 -14.41,-11.332 -2.44,-4.25 -2.81,-8.207 -1.11,-11.898 1.24,-2.692 3.86,-4.43 7.84,-5.2 3.93,-0.89 11.78,0.207 23.55,3.309 29.2,7.488 50.79,11.398 64.77,11.738 13.97,0.34 25.33,-2 34.07,-7.008 8.75,-5.011 15.24,-12.128 19.49,-21.351 5,-10.84 6.06,-22.457 3.2,-34.867 -2.85,-12.41 -9.55,-23.903 -20.07,-34.481 -10.52,-10.582 -25.43,-20.32 -44.75,-29.222 -33.93,-15.629 -59.97,-20.918 -78.13,-15.868 -18.16,5.047 -32.04,15.707 -41.62,31.981" /><path
         id="path32"
         style="fill:#231f20;fill-opacity:1;fill-rule:nonzero;stroke:none"
         d="m 173.285,1393.95 6.418,60.44 114.504,-12.16 c 11.356,-1.21 21.887,-4.15 31.59,-8.83 9.703,-4.68 17.926,-11.28 24.66,-19.8 6.734,-8.51 11.18,-17.16 13.34,-25.96 3.027,-12.22 3.668,-26.57 1.918,-43.07 -1.016,-9.54 -2.774,-19.87 -5.281,-31.01 -2.512,-11.14 -6.11,-20.29 -10.801,-27.46 -4.692,-7.16 -10.949,-13.5 -18.778,-19.03 -7.828,-5.52 -15.667,-9.04 -23.511,-10.55 -12.625,-2.45 -23.656,-3.17 -33.086,-2.17 l -114.504,12.16 6.418,60.44 117.23,-12.45 c 10.481,-1.11 18.981,0.98 25.504,6.29 6.524,5.3 10.344,13.21 11.461,23.73 1.11,10.43 -0.926,18.92 -6.105,25.46 -5.176,6.55 -13.09,10.39 -23.746,11.52 l -117.231,12.45" /><path
         id="path34"
         style="fill:#231f20;fill-opacity:1;fill-rule:nonzero;stroke:none"
         d="m 291.09,1558.79 8.488,24.23 c 0.918,2.62 1.867,7.99 2.844,16.11 0.586,4.07 -0.234,7.84 -2.461,11.33 -2.223,3.48 -5.328,5.92 -9.309,7.32 -5.89,2.06 -11.074,1.74 -15.562,-0.97 -4.485,-2.7 -8.563,-9.3 -12.235,-19.79 l -8.843,-25.25 z m 88.285,-95.74 -182.41,63.86 33.547,95.82 c 6.218,17.77 12.465,30.83 18.742,39.17 6.273,8.35 14.461,13.98 24.562,16.91 10.102,2.92 20.961,2.35 32.575,-1.72 10.121,-3.54 18.078,-8.8 23.879,-15.77 5.8,-6.97 9.632,-15.11 11.496,-24.41 1.187,-5.93 1.234,-13.5 0.148,-22.72 4.641,6.06 8.629,10.27 11.965,12.61 2.234,1.59 6.504,3.54 12.809,5.84 6.304,2.3 11.023,3.66 14.152,4.09 l 62.605,9.34 -22.742,-64.97 -66.504,-11.21 c -8.578,-1.37 -14.476,-3.2 -17.703,-5.49 -4.269,-3.16 -7.324,-7.36 -9.16,-12.61 l -1.777,-5.07 74.031,-25.92 -20.215,-57.75" /><path
         id="path36"
         style="fill:#231f20;fill-opacity:1;fill-rule:nonzero;stroke:none"
         d="m 351.68,1860.86 32.433,51.41 97.379,-61.45 c 9.656,-6.09 17.809,-13.38 24.449,-21.86 6.641,-8.49 11.106,-18.04 13.395,-28.65 2.285,-10.61 2.457,-20.34 0.512,-29.18 -2.676,-12.3 -8.438,-25.47 -17.285,-39.49 -5.122,-8.12 -11.262,-16.62 -18.426,-25.5 -7.168,-8.89 -14.438,-15.51 -21.809,-19.87 -7.371,-4.36 -15.789,-7.29 -25.25,-8.79 -9.465,-1.51 -18.047,-1.21 -25.754,0.9 -12.406,3.38 -22.625,7.6 -30.644,12.66 l -97.383,61.44 32.433,51.41 99.7,-62.91 c 8.914,-5.62 17.465,-7.5 25.66,-5.62 8.195,1.88 15.113,7.29 20.758,16.24 5.597,8.87 7.515,17.38 5.757,25.54 -1.757,8.16 -7.167,15.1 -16.226,20.81 l -99.699,62.91" /><path
         id="path38"
         style="fill:#231f20;fill-opacity:1;fill-rule:nonzero;stroke:none"
         d="m 529.84,1956.65 18.273,18.05 c 1.977,1.95 5.188,6.36 9.625,13.22 2.317,3.39 3.242,7.15 2.774,11.26 -0.465,4.11 -2.184,7.66 -5.149,10.66 -4.383,4.44 -9.183,6.43 -14.402,5.98 -5.219,-0.46 -11.781,-4.6 -19.691,-12.41 l -19.04,-18.8 z m 37.25,-124.79 -135.813,137.52 72.235,71.34 c 13.394,13.23 24.746,22.21 34.047,26.96 9.304,4.74 19.132,6.2 29.496,4.39 10.355,-1.82 19.863,-7.1 28.508,-15.86 7.535,-7.62 12.375,-15.85 14.523,-24.66 2.144,-8.81 2.016,-17.8 -0.398,-26.98 -1.54,-5.84 -4.821,-12.67 -9.848,-20.47 6.832,3.4 12.265,5.43 16.289,6.07 2.707,0.45 7.398,0.32 14.074,-0.38 6.676,-0.7 11.512,-1.56 14.508,-2.55 l 60.344,-19.11 -48.973,-48.37 -64.672,19.14 c -8.308,2.54 -14.41,3.49 -18.312,2.85 -5.227,-0.96 -9.817,-3.39 -13.774,-7.3 l -3.824,-3.78 55.121,-55.81 -43.531,-43" /><path
         id="path40"
         style="fill:#231f20;fill-opacity:1;fill-rule:nonzero;stroke:none"
         d="m 611.93,2137.15 51.925,31.85 38.184,-62.26 16.207,95.62 69.059,42.35 -23.18,-99.79 126.973,-63.26 -63.942,-39.22 -76.984,46.02 -9.93,-44.01 24.656,-40.2 -51.925,-31.84 -101.043,164.74" /><path
         id="path42"
         style="fill:#231f20;fill-opacity:1;fill-rule:nonzero;stroke:none"
         d="m 980.418,2186.62 -42.488,59.12 1.39,-72.72 z m 25.122,-35.7 -65.649,-21.73 0.902,-33.31 -59.043,-19.54 9.609,206.75 63.079,20.88 131.052,-160.2 -60.56,-20.04 -19.39,27.19" /><path
         id="path44"
         style="fill:#231f20;fill-opacity:1;fill-rule:nonzero;stroke:none"
         d="m 1243.22,2197.43 31.06,0.06 c 10.49,0.02 17.88,1.85 22.18,5.51 4.29,3.65 6.44,8.55 6.43,14.71 -0.01,5.71 -2.15,10.3 -6.42,13.76 -4.26,3.47 -11.73,5.19 -22.4,5.17 l -30.92,-0.05 z m -0.14,75.94 26.49,0.05 c 9.5,0.01 16.11,1.63 19.83,4.85 3.71,3.21 5.56,7.85 5.55,13.91 -0.01,5.62 -1.88,10.02 -5.6,13.18 -3.73,3.16 -10.21,4.73 -19.44,4.71 l -26.9,-0.05 z m -61.59,75.69 114.03,0.21 c 19.01,0.03 33.61,-4.56 43.8,-13.77 10.19,-9.21 15.3,-20.62 15.32,-34.25 0.02,-11.42 -3.59,-21.23 -10.84,-29.41 -4.83,-5.46 -11.9,-9.78 -21.22,-12.96 14.17,-3.32 24.6,-9.03 31.3,-17.15 6.69,-8.12 10.05,-18.33 10.07,-30.64 0.02,-10.02 -2.34,-19.03 -7.08,-27.04 -4.74,-8 -11.23,-14.34 -19.46,-19.01 -5.11,-2.91 -12.82,-5.04 -23.12,-6.37 -13.72,-1.79 -22.81,-2.68 -27.3,-2.69 l -105.15,-0.19 -0.35,193.27" /><path
         id="path46"
         style="fill:#231f20;fill-opacity:1;fill-rule:nonzero;stroke:none"
         d="m 1422.15,2339.31 60.22,-10 -31.66,-190.67 -60.22,10 31.66,190.67" /><path
         id="path48"
         style="fill:#231f20;fill-opacity:1;fill-rule:nonzero;stroke:none"
         d="m 1497.32,2197.65 56.06,-15.13 c -1.76,-9.14 -1.58,-16.63 0.53,-22.43 3.45,-9.42 10.7,-15.99 21.74,-19.71 8.24,-2.77 15.23,-3.02 20.97,-0.73 5.74,2.28 9.45,5.93 11.13,10.92 1.6,4.75 0.91,9.72 -2.08,14.89 -2.98,5.18 -11.65,12.04 -25.99,20.58 -23.44,14.11 -38.99,27.61 -46.67,40.49 -7.76,12.9 -9.23,26.52 -4.4,40.85 3.17,9.41 8.95,17.37 17.33,23.86 8.38,6.5 18.97,10.26 31.76,11.29 12.78,1.02 28.9,-1.74 48.36,-8.29 23.87,-8.04 40.61,-18.53 50.21,-31.45 9.6,-12.93 12.39,-29.29 8.37,-49.08 l -55.47,15.21 c 1.33,8.73 0.32,15.75 -3.05,21.06 -3.37,5.31 -9.13,9.33 -17.29,12.08 -6.71,2.26 -12.23,2.57 -16.57,0.92 -4.34,-1.64 -7.18,-4.46 -8.53,-8.46 -0.98,-2.92 -0.46,-6.02 1.56,-9.29 1.9,-3.34 7.6,-7.76 17.09,-13.27 23.44,-13.83 39.7,-25.32 48.78,-34.44 9.08,-9.14 14.74,-18.58 16.99,-28.34 2.25,-9.75 1.69,-19.63 -1.67,-29.62 -3.96,-11.74 -10.92,-21.46 -20.89,-29.13 -9.96,-7.69 -21.75,-12.08 -35.37,-13.2 -13.62,-1.12 -29.48,1.37 -47.58,7.47 -31.77,10.7 -51.76,24.11 -59.95,40.23 -8.2,16.11 -9.99,33.68 -5.37,52.72" /><path
         id="path50"
         style="fill:#231f20;fill-opacity:1;fill-rule:nonzero;stroke:none"
         d="m 1765.86,2236.78 51.99,-31.74 -35.23,-57.72 56.81,-34.68 35.24,57.72 52.22,-31.87 -100.7,-164.96 -52.22,31.88 40.73,66.72 -56.81,34.68 -40.73,-66.72 -51.99,31.73 100.69,164.96" /><path
         id="path52"
         style="fill:#231f20;fill-opacity:1;fill-rule:nonzero;stroke:none"
         d="m 1977.84,1931.27 33.2,64.8 -64.07,-34.45 z m -20.29,-38.66 -49.32,48.48 -29.22,-16.01 -44.35,43.6 188.34,85.88 47.38,-46.59 -82.67,-189.76 -45.49,44.73 15.33,29.67" /><path
         id="path54"
         style="fill:#231f20;fill-opacity:1;fill-rule:nonzero;stroke:none"
         d="m 2173.05,1658.17 10.45,-54.69 c -14.68,-3.55 -28.17,-4.17 -40.45,-1.84 -12.29,2.33 -23.28,7.43 -32.98,15.28 -9.7,7.85 -18.6,19.63 -26.71,35.31 -9.83,19.04 -15.16,35.99 -15.97,50.86 -0.81,14.87 3.34,30.21 12.47,46.03 9.13,15.82 24.35,29.23 45.65,40.24 28.4,14.68 54.21,18.25 77.43,10.73 23.22,-7.53 42.12,-25.39 56.69,-53.59 11.4,-22.06 15.98,-41.66 13.76,-58.8 -2.22,-17.15 -10.8,-33.47 -25.75,-48.96 l -35.12,42.4 c 4.37,4.38 7.29,8.11 8.77,11.19 2.49,5.12 3.7,10.44 3.62,15.95 -0.07,5.51 -1.51,10.97 -4.31,16.39 -6.34,12.27 -16.03,19.17 -29.08,20.7 -9.72,1.23 -22.27,-2.13 -37.63,-10.07 -19.03,-9.83 -30.55,-19.52 -34.56,-29.06 -4.02,-9.54 -3.27,-19.65 2.25,-30.32 5.35,-10.35 12.24,-16.71 20.68,-19.06 8.44,-2.34 18.7,-1.91 30.79,1.31" /><path
         id="path56"
         style="fill:#231f20;fill-opacity:1;fill-rule:nonzero;stroke:none"
         d="m 2231.45,1469.93 61.79,38.51 -72.66,3.4 z m -37.28,-22.72 -17.36,66.95 -33.3,1.29 -15.61,60.21 205.69,-23.21 16.67,-64.32 -168.49,-120.22 -16.01,61.75 28.41,17.55" /><path
         id="path58"
         style="fill:#231f20;fill-opacity:1;fill-rule:nonzero;stroke:none"
         d="m 2243.45,1371.86 5.87,-57.77 c -9.17,-1.62 -16.1,-4.45 -20.77,-8.5 -7.57,-6.58 -11.12,-15.69 -10.65,-27.34 0.34,-8.69 2.61,-15.3 6.79,-19.85 4.18,-4.54 8.91,-6.71 14.18,-6.5 5.01,0.2 9.4,2.62 13.17,7.26 3.77,4.64 7.09,15.18 9.95,31.62 4.82,26.93 11.87,46.28 21.17,58.04 9.29,11.86 21.49,18.08 36.59,18.69 9.92,0.39 19.42,-2.17 28.48,-7.68 9.06,-5.51 16.35,-14.06 21.87,-25.64 5.52,-11.58 8.69,-27.62 9.51,-48.14 1,-25.17 -2.82,-44.54 -11.47,-58.12 -8.65,-13.58 -22.94,-22.02 -42.86,-25.33 l -5.58,57.24 c 8.63,1.87 14.83,5.33 18.58,10.37 3.76,5.04 5.47,11.85 5.12,20.45 -0.28,7.08 -1.96,12.35 -5.05,15.82 -3.09,3.46 -6.73,5.11 -10.95,4.94 -3.07,-0.12 -5.78,-1.71 -8.12,-4.76 -2.43,-2.97 -4.53,-9.87 -6.3,-20.71 -4.56,-26.83 -9.48,-46.11 -14.78,-57.85 -5.29,-11.74 -12.09,-20.4 -20.4,-25.98 -8.31,-5.58 -17.73,-8.59 -28.27,-9.01 -12.38,-0.49 -23.94,2.55 -34.67,9.12 -10.73,6.57 -19.04,16.01 -24.95,28.34 -5.9,12.32 -9.23,28.03 -9.99,47.11 -1.34,33.5 4.06,56.95 16.19,70.35 12.13,13.41 27.91,21.35 47.34,23.83" /></g></g></svg>