<?xml version="1.0" encoding="UTF-8" standalone="no"?>
<!-- Created with Inkscape (http://www.inkscape.org/) -->

<svg
   version="1.1"
   id="svg1"
   width="270.78"
   height="87.749336"
   viewBox="0 0 270.78 87.749336"
   sodipodi:docname="Croix-Rouge francaise.svg"
   inkscape:version="1.3.2 (091e20e, 2023-11-25, custom)"
   xmlns:inkscape="http://www.inkscape.org/namespaces/inkscape"
   xmlns:sodipodi="http://sodipodi.sourceforge.net/DTD/sodipodi-0.dtd"
   xmlns="http://www.w3.org/2000/svg"
   xmlns:svg="http://www.w3.org/2000/svg">
  <defs
     id="defs1">
    <clipPath
       clipPathUnits="userSpaceOnUse"
       id="clipPath3">
      <path
         d="M 0,65.812 H 203.04 V 0.061 H 0 Z"
         transform="translate(-185.301,-48.029001)"
         id="path3" />
    </clipPath>
    <clipPath
       clipPathUnits="userSpaceOnUse"
       id="clipPath14">
      <path
         d="M 0,65.812 H 203.04 V 0.061 H 0 Z"
         transform="translate(-72.200002,-8.1865002)"
         id="path14" />
    </clipPath>
    <clipPath
       clipPathUnits="userSpaceOnUse"
       id="clipPath21">
      <path
         d="M 0,65.812 H 203.04 V 0.061 H 0 Z"
         transform="translate(-122.301,-6.7246002)"
         id="path21" />
    </clipPath>
  </defs>
  <sodipodi:namedview
     id="namedview1"
     pagecolor="#ffffff"
     bordercolor="#666666"
     borderopacity="1.0"
     inkscape:showpageshadow="2"
     inkscape:pageopacity="0.0"
     inkscape:pagecheckerboard="0"
     inkscape:deskcolor="#d1d1d1"
     inkscape:export-bgcolor="#ffffffff"
     inkscape:zoom="3.4529877"
     inkscape:cx="135.39"
     inkscape:cy="43.875048"
     inkscape:window-width="1920"
     inkscape:window-height="1017"
     inkscape:window-x="-8"
     inkscape:window-y="-8"
     inkscape:window-maximized="1"
     inkscape:current-layer="g1">
    <inkscape:page
       x="0"
       y="0"
       inkscape:label="Page 1"
       id="page1"
       width="270.78"
       height="87.749336"
       margin="0"
       bleed="0"
       inkscape:export-filename="Croix-Rouge francaise.png"
       inkscape:export-xdpi="300"
       inkscape:export-ydpi="300" />
  </sodipodi:namedview>
  <g
     id="g1"
     inkscape:groupmode="layer"
     inkscape:label="Page 1">
    <g
       id="group-MC1">
      <path
         id="path2"
         d="M 0,0 V 17.782 H -17.781 V 0 h -17.782 v -17.783 h 17.782 V -35.566 H 0 v 17.783 H 17.784 L 17.784,0 H 0"
         style="fill:#ec1d27;fill-opacity:1;fill-rule:evenodd;stroke:none"
         transform="matrix(1.3333333,0,0,-1.3333333,247.068,23.710667)"
         clip-path="url(#clipPath3)" />
      <path
         id="path4"
         d="m 0,0 c -0.1553,1.084 -0.9463,1.668 -2.0293,1.668 -1.0146,0 -2.4424,-0.533 -2.4424,-3.2324 0,-1.4805 0.6533,-3.042 2.3575,-3.042 1.1337,0 1.9248,0.7558 2.1142,2.0283 h 1.96 c -0.3623,-2.3067 -1.7881,-3.5772 -4.0742,-3.5772 -2.7862,0 -4.3165,1.9776 -4.3165,4.5909 0,2.6834 1.461,4.7814 4.3838,4.7814 C 0.0166,3.217 1.7705,2.184 1.96,0 H 0"
         style="fill:#231f20;fill-opacity:1;fill-rule:nonzero;stroke:none"
         transform="matrix(1.3333333,0,0,-1.3333333,8.5742667,75.14)" />
      <path
         id="path5"
         d="m 0,0 h 1.84 v -1.719 h 0.033 c 0.224,0.944 1.394,1.961 2.597,1.961 0.446,0 0.567,-0.036 0.74,-0.054 V -1.7 c -0.275,0.034 -0.568,0.084 -0.844,0.084 -1.34,0 -2.405,-1.0832 -2.405,-3.0451 V -8.8887 H 0 L 0,0"
         style="fill:#231f20;fill-opacity:1;fill-rule:nonzero;stroke:none"
         transform="matrix(1.3333333,0,0,-1.3333333,12.1732,71.173333)" />
      <path
         id="path6"
         d="M 0,0 C 0,1.5283 -0.774,3.129 -2.527,3.129 -4.28,3.129 -5.055,1.5283 -5.055,0 c 0,-1.5469 0.775,-3.1455 2.528,-3.1455 C -0.774,-3.1455 0,-1.5469 0,0 Z m -7.016,0 c 0,2.717 1.635,4.678 4.489,4.678 2.853,0 4.486,-1.961 4.486,-4.678 0,-2.7334 -1.633,-4.6944 -4.486,-4.6944 -2.854,0 -4.489,1.961 -4.489,4.6944"
         style="fill:#231f20;fill-opacity:1;fill-rule:nonzero;stroke:none"
         transform="matrix(1.3333333,0,0,-1.3333333,28.224,77.087867)" />
      <path
         id="path7"
         d="M 0,0 H 1.961 V -8.8887 H 0 Z M 0,3.388 H 1.961 V 1.5296 H 0 Z"
         style="fill:#231f20;fill-opacity:1;fill-rule:nonzero;stroke:none"
         transform="matrix(1.3333333,0,0,-1.3333333,31.936,71.173333)" />
      <path
         id="path8"
         d="m 0,0 -3.077,4.215 h 2.372 L 1.152,1.4804 3.096,4.215 H 5.365 L 2.339,0.1035 5.743,-4.6739 H 3.389 L 1.137,-1.3887 -1.049,-4.6739 H -3.352 L 0,0"
         style="fill:#231f20;fill-opacity:1;fill-rule:nonzero;stroke:none"
         transform="matrix(1.3333333,0,0,-1.3333333,40.052,76.7936)" />
      <path
         id="path9"
         d="m 35.661,7.291 h 5.003 v 1.8574 h -5.003 z"
         style="fill:#231f20;fill-opacity:1;fill-rule:nonzero;stroke:none"
         transform="matrix(1.3333333,0,0,-1.3333333,0,87.749333)" />
      <path
         id="path10"
         d="m 0,0 h 1.838 v -1.719 h 0.036 c 0.224,0.944 1.393,1.961 2.596,1.961 0.447,0 0.568,-0.036 0.738,-0.054 V -1.7 c -0.275,0.034 -0.566,0.084 -0.841,0.084 -1.341,0 -2.408,-1.0832 -2.408,-3.0451 V -8.8887 H 0 V 0"
         style="fill:#231f20;fill-opacity:1;fill-rule:nonzero;stroke:none"
         transform="matrix(1.3333333,0,0,-1.3333333,56.030667,71.173333)" />
      <path
         id="path11"
         d="m 0,0 c 0,1.5283 -0.772,3.129 -2.527,3.129 -1.755,0 -2.527,-1.6007 -2.527,-3.129 0,-1.5469 0.772,-3.1455 2.527,-3.1455 C -0.772,-3.1455 0,-1.5469 0,0 Z m -7.015,0 c 0,2.717 1.633,4.678 4.488,4.678 2.854,0 4.487,-1.961 4.487,-4.678 0,-2.7334 -1.633,-4.6944 -4.487,-4.6944 -2.855,0 -4.488,1.961 -4.488,4.6944"
         style="fill:#231f20;fill-opacity:1;fill-rule:nonzero;stroke:none"
         transform="matrix(1.3333333,0,0,-1.3333333,72.264,77.087867)" />
      <path
         id="path12"
         d="m 0,0 h -1.926 v 1.2393 h -0.035 c -0.481,-0.8955 -1.547,-1.4814 -2.527,-1.4814 -2.321,0 -3.319,1.1689 -3.319,3.4921 v 5.639 h 1.961 V 3.4385 c 0,-1.5674 0.636,-2.1308 1.702,-2.1308 1.633,0 2.183,1.0468 2.183,2.4238 V 8.889 H 0 V 0"
         style="fill:#231f20;fill-opacity:1;fill-rule:nonzero;stroke:none"
         transform="matrix(1.3333333,0,0,-1.3333333,86.317333,83.025467)" />
      <path
         id="path13"
         d="m 0,0 c 0,1.5264 -0.687,2.938 -2.39,2.938 -1.737,0 -2.339,-1.6167 -2.339,-3.0943 0,-1.4638 0.705,-2.9384 2.339,-2.9384 C -0.655,-3.0947 0,-1.5166 0,0 Z m 1.959,-4.1787 c 0,-2.6641 -1.565,-3.9893 -4.367,-3.9893 -1.787,0 -3.799,0.6885 -3.972,2.7686 h 1.961 c 0.24,-1.1192 1.134,-1.3057 2.132,-1.3057 1.581,0 2.287,0.8076 2.287,2.2666 v 1.3584 h -0.035 c -0.55,-0.9814 -1.564,-1.5635 -2.664,-1.5635 -2.82,0 -3.989,2.1309 -3.989,4.6739 0,2.3927 1.497,4.4567 4.023,4.4567 1.116,0 2.131,-0.467 2.63,-1.464 H 0 v 1.222 h 1.959 v -8.4237"
         style="fill:#231f20;fill-opacity:1;fill-rule:nonzero;stroke:none"
         transform="matrix(1.3333333,0,0,-1.3333333,96.266667,76.834)"
         clip-path="url(#clipPath14)" />
      <path
         id="path15"
         d="m 0,0 c -0.068,1.237 -0.911,2.356 -2.233,2.356 -1.36,0 -2.288,-1.03 -2.339,-2.356 z m -4.572,-1.2881 c 0,-1.3925 0.756,-2.6298 2.39,-2.6298 1.134,0 1.823,0.497 2.165,1.4775 h 1.859 c -0.433,-1.9424 -2.082,-3.0264 -4.024,-3.0264 -2.787,0 -4.351,1.9424 -4.351,4.6787 0,2.5251 1.65,4.6931 4.3,4.6931 2.801,0 4.519,-2.529 4.195,-5.1931 h -6.534"
         style="fill:#231f20;fill-opacity:1;fill-rule:nonzero;stroke:none"
         transform="matrix(1.3333333,0,0,-1.3333333,108.50667,76.058)" />
      <path
         id="path16"
         d="M 0,0 H -1.753 V -7.959 H -2.836 V 0 H -4.35 v 0.914 h 1.514 v 0.809 c -0.017,1.527 0.411,2.594 2.149,2.594 0.309,0 0.567,-0.018 0.911,-0.069 V 3.316 c -0.293,0.055 -0.533,0.087 -0.79,0.087 -1.205,0 -1.169,-0.754 -1.187,-1.715 V 0.914 L 0,0.914 V 0"
         style="fill:#231f20;fill-opacity:1;fill-rule:nonzero;stroke:none"
         transform="matrix(1.3333333,0,0,-1.3333333,122.904,72.413333)" />
      <path
         id="path17"
         d="m 0,0 h 0.996 v -2.08 h 0.035 c 0.55,1.424 1.753,2.267 3.352,2.199 V -0.966 C 2.424,-0.861 1.082,-2.308 1.082,-4.1445 V -8.8731 H 0 V 0"
         style="fill:#231f20;fill-opacity:1;fill-rule:nonzero;stroke:none"
         transform="matrix(1.3333333,0,0,-1.3333333,124.05067,71.194667)" />
      <path
         id="path18"
         d="m 0,0 h -0.035 c -0.137,-0.2588 -0.62,-0.3438 -0.911,-0.3965 -1.84,-0.3301 -4.126,-0.3096 -4.126,-2.0469 0,-1.085 0.962,-1.7539 1.978,-1.7539 1.648,0 3.11,1.0488 3.094,2.7861 z m -5.778,1.3046 c 0.105,2.0814 1.565,2.9764 3.595,2.9764 1.564,0 3.266,-0.483 3.266,-2.8572 v -4.71 c 0,-0.4121 0.206,-0.6533 0.635,-0.6533 0.121,0 0.26,0.0352 0.347,0.0703 V -4.7823 C 1.824,-4.834 1.652,-4.8497 1.36,-4.8497 c -1.103,0 -1.275,0.6172 -1.275,1.5489 H 0.05 c -0.756,-1.1533 -1.527,-1.8106 -3.231,-1.8106 -1.632,0 -2.975,0.8115 -2.975,2.5996 0,2.4942 2.425,2.5801 4.766,2.8555 C -0.5,0.4472 0,0.5644 0,1.5459 0,3.006 -1.049,3.368 -2.321,3.368 -3.663,3.368 -4.66,2.751 -4.694,1.3046 h -1.084"
         style="fill:#231f20;fill-opacity:1;fill-rule:nonzero;stroke:none"
         transform="matrix(1.3333333,0,0,-1.3333333,138.148,76.5592)" />
      <path
         id="path19"
         d="m 0,0 h 1.084 v -1.531 h 0.035 c 0.395,1.064 1.581,1.789 2.834,1.789 2.495,0 3.251,-1.309 3.251,-3.4221 v -5.709 H 6.122 v 5.5372 c 0,1.5289 -0.5,2.6799 -2.254,2.6799 -1.718,0 -2.749,-1.307 -2.784,-3.0452 V -8.8731 H 0 L 0,0"
         style="fill:#231f20;fill-opacity:1;fill-rule:nonzero;stroke:none"
         transform="matrix(1.3333333,0,0,-1.3333333,141.99867,71.194667)" />
      <path
         id="path20"
         d="m 0,0 c -0.293,-2.1172 -1.653,-3.4063 -3.596,-3.4434 l -0.566,-0.7363 c 0.807,0.1562 1.995,0 1.995,-1.0635 0,-1.0517 -1.014,-1.4814 -1.893,-1.4814 -0.55,0 -1.118,0.1211 -1.615,0.3623 l 0.242,0.5498 c 0.291,-0.1192 0.86,-0.2402 1.357,-0.2402 0.48,0 0.912,0.2246 0.912,0.7402 0,0.4111 -0.346,0.6523 -0.741,0.6523 -0.394,0 -0.668,-0.0342 -0.876,-0.1386 l -0.276,0.2558 0.878,1.1367 c -2.39,0.2559 -3.68,2.2881 -3.68,4.6621 0,2.5402 1.478,4.6932 4.196,4.6932 1.889,0 3.353,-1.017 3.593,-3.0447 h -1.083 c -0.293,1.3247 -1.102,2.1317 -2.51,2.1317 -2.081,0 -3.114,-1.8915 -3.114,-3.7802 0,-1.8925 1.033,-3.7851 3.114,-3.7851 1.34,0 2.441,1.0488 2.579,2.5293 L 0,0"
         style="fill:#231f20;fill-opacity:1;fill-rule:nonzero;stroke:none"
         transform="matrix(1.3333333,0,0,-1.3333333,163.068,78.7832)"
         clip-path="url(#clipPath21)" />
      <path
         id="path22"
         d="m 0,0 h -0.034 c -0.138,-0.2588 -0.622,-0.3438 -0.913,-0.3965 -1.839,-0.3301 -4.128,-0.3096 -4.128,-2.0469 0,-1.085 0.964,-1.7539 1.979,-1.7539 1.65,0 3.111,1.0488 3.096,2.7861 z m -5.779,1.3046 c 0.105,2.0814 1.567,2.9764 3.593,2.9764 1.566,0 3.268,-0.483 3.268,-2.8572 v -4.71 c 0,-0.4121 0.206,-0.6533 0.635,-0.6533 0.121,0 0.259,0.0352 0.345,0.0703 V -4.7823 C 1.821,-4.834 1.649,-4.8497 1.358,-4.8497 c -1.101,0 -1.273,0.6172 -1.273,1.5489 H 0.05 c -0.755,-1.1533 -1.53,-1.8106 -3.232,-1.8106 -1.634,0 -2.974,0.8115 -2.974,2.5996 0,2.4942 2.424,2.5801 4.762,2.8555 C -0.499,0.4472 0,0.5644 0,1.5459 0,3.006 -1.049,3.368 -2.324,3.368 -3.663,3.368 -4.66,2.751 -4.695,1.3046 h -1.084"
         style="fill:#231f20;fill-opacity:1;fill-rule:nonzero;stroke:none"
         transform="matrix(1.3333333,0,0,-1.3333333,171.96267,76.5592)" />
      <path
         id="path23"
         d="M 0,0 H 1.083 V -8.8731 H 0 Z M 0,3.403 H 1.083 V 1.6657 H 0 Z"
         style="fill:#231f20;fill-opacity:1;fill-rule:nonzero;stroke:none"
         transform="matrix(1.3333333,0,0,-1.3333333,175.85867,71.194667)" />
      <path
         id="path24"
         d="m 0,0 c -0.05,1.344 -1.083,1.943 -2.321,1.943 -0.963,0 -2.096,-0.377 -2.096,-1.527 0,-0.9668 1.097,-1.3066 1.837,-1.4961 l 1.446,-0.3301 c 1.237,-0.1894 2.526,-0.9101 2.526,-2.458 0,-1.9267 -1.905,-2.667 -3.559,-2.667 -2.063,0 -3.471,0.9668 -3.644,3.1309 h 1.082 c 0.087,-1.459 1.17,-2.2168 2.614,-2.2168 1.014,0 2.424,0.4492 2.424,1.6855 0,1.0313 -0.962,1.375 -1.942,1.6153 l -1.392,0.3095 c -1.411,0.3809 -2.477,0.8623 -2.477,2.3738 0,1.805 1.77,2.494 3.335,2.494 1.772,0 3.181,-0.929 3.249,-2.857 H 0"
         style="fill:#231f20;fill-opacity:1;fill-rule:nonzero;stroke:none"
         transform="matrix(1.3333333,0,0,-1.3333333,186.472,74.6608)" />
      <path
         id="path25"
         d="M 0,0 C -0.051,1.634 -1.066,3.162 -2.82,3.162 -4.591,3.162 -5.57,1.616 -5.741,0 Z m -5.741,-0.9121 c 0.016,-1.583 0.842,-3.4912 2.921,-3.4912 1.583,0 2.442,0.9277 2.786,2.2724 H 1.05 c -0.465,-2.0146 -1.635,-3.1865 -3.87,-3.1865 -2.819,0 -4.005,2.1699 -4.005,4.6992 0,2.3392 1.186,4.6932 4.005,4.6932 2.854,0 3.991,-2.494 3.904,-4.9871 h -6.825"
         style="fill:#231f20;fill-opacity:1;fill-rule:nonzero;stroke:none"
         transform="matrix(1.3333333,0,0,-1.3333333,198.232,76.284533)" />
    </g>
  </g>
</svg>
