<?xml version="1.0" encoding="UTF-8" standalone="no"?>
<!-- Created with Inkscape (http://www.inkscape.org/) -->

<svg
   version="1.1"
   id="svg1"
   width="708.164"
   height="708.1427"
   viewBox="0 0 708.164 708.1427"
   sodipodi:docname="Lao Red Cross Logo.svg"
   inkscape:version="1.3.2 (091e20e, 2023-11-25, custom)"
   xmlns:inkscape="http://www.inkscape.org/namespaces/inkscape"
   xmlns:sodipodi="http://sodipodi.sourceforge.net/DTD/sodipodi-0.dtd"
   xmlns="http://www.w3.org/2000/svg"
   xmlns:svg="http://www.w3.org/2000/svg">
  <defs
     id="defs1">
    <clipPath
       clipPathUnits="userSpaceOnUse"
       id="clipPath3">
      <path
         d="M 0,531.107 H 531.12 V 0.06 L 0,0.06 Z"
         transform="translate(-524.20102,-265.434)"
         id="path3" />
    </clipPath>
  </defs>
  <sodipodi:namedview
     id="namedview1"
     pagecolor="#ffffff"
     bordercolor="#666666"
     borderopacity="1.0"
     inkscape:showpageshadow="2"
     inkscape:pageopacity="0.0"
     inkscape:pagecheckerboard="0"
     inkscape:deskcolor="#d1d1d1"
     inkscape:zoom="1.1593708"
     inkscape:cx="354.07135"
     inkscape:cy="354.07135"
     inkscape:window-width="1920"
     inkscape:window-height="1017"
     inkscape:window-x="-8"
     inkscape:window-y="-8"
     inkscape:window-maximized="1"
     inkscape:current-layer="g1">
    <inkscape:page
       x="0"
       y="0"
       inkscape:label="1"
       id="page1"
       width="708.164"
       height="708.1427"
       margin="0"
       bleed="0" />
  </sodipodi:namedview>
  <g
     id="g1"
     inkscape:groupmode="layer"
     inkscape:label="1">
    <g
       id="group-MC1">
      <path
         id="path2"
         d="M 0,0 C -0.035,142.089 -115.471,258.462 -258.239,258.708 -400.371,258.953 -516.629,143.509 -517.257,0.92 -517.884,-141.277 -402.063,-257.97 -259.4,-258.474 -116.902,-258.978 -0.221,-143.079 0,0 Z m 6.922,0.174 c 0.077,-146.531 -119.664,-265.908 -265.948,-265.608 -146.31,0.301 -265.382,119.759 -265.175,265.788 0.208,146.348 119.685,265.395 265.662,265.319 C -112.024,265.596 6.981,145.989 6.922,0.174"
         style="fill:#ed192d;fill-opacity:1;fill-rule:nonzero;stroke:none"
         transform="matrix(1.3333333,0,0,-1.3333333,698.93467,354.23067)"
         clip-path="url(#clipPath3)" />
      <path
         id="path4"
         d="M 0,0 C 87.559,-0.049 159.055,71.324 159.157,158.884 159.258,246.371 87.864,317.862 0.245,318.01 -87.102,318.157 -158.811,246.574 -158.848,159.198 -158.885,71.61 -87.481,0.049 0,0 Z m 0.189,-6.936 c -91.818,0.212 -166.136,74.639 -165.959,166.202 0.177,91.462 74.868,165.905 166.202,165.65 C 91.915,324.661 166.331,250.066 166.08,158.872 165.828,67.298 91.345,-7.147 0.189,-6.936"
         style="fill:#ed192d;fill-opacity:1;fill-rule:nonzero;stroke:none"
         transform="matrix(1.3333333,0,0,-1.3333333,353.892,566.08933)" />
      <path
         id="path5"
         d="m 0,0 c 0.197,-1.07 0.397,-3.252 1.028,-5.3 0.847,-2.75 3.398,-3.339 5.421,-1.275 1.059,1.08 1.936,2.442 2.555,3.829 1.689,3.782 2.484,7.84 2.231,11.941 -0.152,2.461 -0.97,4.941 -1.846,7.278 C 8.764,18.141 7.233,18.381 5.826,17.252 4.917,16.522 4.107,15.594 3.469,14.614 0.801,10.511 0.255,5.847 0,0 Z m 23.172,-11.014 c 1.111,1.245 2.312,2.109 2.854,3.278 2.857,6.16 3.773,12.555 1.704,19.174 -0.761,2.435 -2.273,3.931 -4.974,4.224 -2.496,0.27 -4.96,0.837 -7.601,1.302 0.419,-1.714 0.94,-3.138 1.096,-4.602 0.892,-8.347 -0.63,-16.198 -5.187,-23.33 -0.854,-1.337 -1.928,-2.597 -3.119,-3.642 -3.583,-3.142 -8.651,-2.278 -10.702,2.033 -1.086,2.281 -1.796,4.914 -1.951,7.433 -0.483,7.884 0.695,15.609 3.224,23.097 1.055,3.12 2.61,5.987 5.147,8.204 1.988,1.739 4.198,2.443 6.889,1.914 4.927,-0.969 9.885,-1.785 14.841,-2.602 2.267,-0.374 3.905,-1.537 5.041,-3.495 2.08,-3.587 2.831,-7.574 3.201,-11.597 0.68,-7.377 -0.126,-14.611 -3.049,-21.482 -0.844,-1.984 -1.972,-3.887 -3.222,-5.648 -1.66,-2.34 -3.951,-3.714 -6.964,-3.076 -3.191,0.675 -5.23,2.782 -6.095,5.813 -1.037,3.631 -0.257,7.087 1.817,10.217 0.417,0.628 1.032,1.179 1.666,1.598 2.553,1.686 5.321,0.593 5.682,-2.419 0.226,-1.888 -0.155,-3.848 -0.298,-6.394"
         style="fill:#ed192d;fill-opacity:1;fill-rule:nonzero;stroke:none"
         transform="matrix(1.3333333,0,0,-1.3333333,62.173333,322.53733)" />
      <path
         id="path6"
         d="m 0,0 c 1.956,-1.553 3.12,-3.462 3.054,-6 -0.107,-4.101 -3.566,-6.46 -7.325,-4.852 -3.647,1.56 -6.278,4.141 -6.619,8.307 -0.521,6.367 4.547,10.421 10.676,8.629 C 4.122,4.816 7.7,2.2 10.954,-0.78 c 2.273,-2.082 4.477,-4.37 6.176,-6.922 4.107,-6.171 3.836,-12.498 -0.267,-18.636 -4.695,-7.024 -9.437,-14.019 -14.167,-21.02 -4.01,-5.936 -7.442,-7.358 -14.417,-5.402 -9.611,2.695 -16.096,8.723 -18.562,18.596 -0.685,2.739 -0.268,5.448 1.074,7.992 0.547,1.037 1.331,1.381 2.427,1.173 2.435,-0.461 4.293,-1.769 5.523,-3.907 0.691,-1.201 0.677,-2.424 -0.013,-3.692 -1.99,-3.659 -1.637,-7.129 0.913,-9.751 3.273,-3.364 8.036,-4.6 11.45,-2.792 1.054,0.559 2.058,1.462 2.734,2.448 5.392,7.867 10.794,15.73 16,23.72 3.412,5.236 2.015,11.191 -3.376,15.694 C 4.582,-1.719 2.619,-0.288 0,0"
         style="fill:#ed192d;fill-opacity:1;fill-rule:nonzero;stroke:none"
         transform="matrix(1.3333333,0,0,-1.3333333,528.01333,116.49067)" />
      <path
         id="path7"
         d="m 0,0 c 0.976,1.131 1.744,2.425 2.862,3.238 2.691,1.957 6.41,0.527 7.355,-2.665 1.079,-3.651 -0.96,-9.37 -4.112,-11.532 -4.019,-2.757 -9.336,-0.842 -10.703,4.165 -0.619,2.269 -0.755,4.873 -0.336,7.184 1.31,7.23 4.065,13.925 8.873,19.592 2.698,3.181 6.119,5.296 10.459,4.708 2.147,-0.291 4.341,-1.08 6.251,-2.124 7.185,-3.924 14.203,-8.153 21.403,-12.05 3.657,-1.98 5.751,-4.825 6.243,-8.861 1.241,-10.196 -1.193,-19.24 -8.68,-26.574 -1.947,-1.907 -4.255,-3.455 -7.067,-3.611 -5.434,-0.301 -6.595,1.354 -5.417,5.893 0.293,1.13 0.842,2.238 1.48,3.222 1.085,1.67 2.283,1.948 4.135,1.204 3.308,-1.329 6.072,-0.531 7.938,2.469 2.185,3.514 2.775,7.323 1.675,11.346 -0.588,2.153 -1.861,3.784 -3.81,4.89 C 31.068,4.743 23.536,8.905 16.131,13.282 10.792,16.437 6.438,14.729 3.666,10.375 2.007,7.767 1.162,4.633 0.029,1.706 -0.175,1.179 0,0.506 0,0"
         style="fill:#ed192d;fill-opacity:1;fill-rule:nonzero;stroke:none"
         transform="matrix(1.3333333,0,0,-1.3333333,80.653333,249.35867)" />
      <path
         id="path8"
         d="m 0,0 c 0.058,-0.075 0.102,-0.194 0.179,-0.221 5.647,-2.023 4.304,-8.042 0.838,-10.823 -1.789,-1.435 -3.748,-1.302 -5.678,-0.234 -3.904,2.161 -5.842,7.439 -4.249,11.74 1.44,3.888 4.224,6.596 7.877,8.414 2.687,1.337 5.29,0.903 7.569,-0.94 5.822,-4.707 7.545,-9.347 5.73,-16.427 -0.848,-3.307 -1.978,-6.54 -2.863,-9.839 -0.33,-1.229 -0.476,-2.554 -0.431,-3.825 0.052,-1.444 1.135,-1.992 2.408,-1.304 0.811,0.439 1.556,1.034 2.25,1.65 3.681,3.27 7.254,6.666 11.021,9.832 4.715,3.962 5.092,9.21 3.053,13.903 -1.515,3.489 -3.814,6.419 -7.007,8.532 -3.082,2.04 -6.169,1.97 -9.086,-0.319 -1.251,-0.982 -2.13,-0.69 -3.144,0.126 -0.201,0.162 -0.404,0.333 -0.562,0.535 -3.335,4.276 -2.88,5.107 0.887,7.385 3.623,2.191 7.237,2.284 10.837,-0.007 4.665,-2.969 7.868,-7.315 10.898,-11.788 2.659,-3.924 4.89,-8.073 5.692,-12.827 0.738,-4.368 -0.214,-8.305 -3.493,-11.389 -4.19,-3.939 -8.446,-7.816 -12.813,-11.557 -3.923,-3.36 -8.2,-3.166 -12.069,0.254 -4.802,4.244 -5.978,8.783 -3.783,14.801 1.082,2.966 2.321,5.876 3.326,8.866 0.728,2.17 0.936,4.375 -0.937,6.234 C 4.236,2.969 1.765,2.691 0,0"
         style="fill:#ed192d;fill-opacity:1;fill-rule:nonzero;stroke:none"
         transform="matrix(1.3333333,0,0,-1.3333333,555.36667,182.37333)" />
      <path
         id="path9"
         d="m 0,0 c -2.496,2.535 -4.839,4.928 -7.198,7.306 -2.299,2.319 -4.613,4.622 -6.919,6.933 -1.771,1.775 -3.213,1.841 -5.138,0.192 -0.693,-0.594 -1.33,-1.252 -2.147,-2.027 -0.76,2.448 -1.51,4.696 -2.12,6.981 -0.109,0.409 0.237,1.083 0.577,1.445 1.451,1.546 3.29,2.285 5.392,2.22 1.76,7.918 6.586,13.673 12.515,18.657 1.056,0.888 2.298,1.613 3.555,2.195 3.599,1.665 6.074,1.192 8.877,-1.612 4.836,-4.837 9.646,-9.699 14.469,-14.55 1.717,-1.728 3.484,-3.411 5.125,-5.208 0.405,-0.442 0.659,-1.296 0.554,-1.884 -0.507,-2.861 -2.053,-5.036 -4.653,-6.426 -1.092,-0.584 -1.88,-0.498 -2.837,0.481 -6.085,6.225 -12.249,12.374 -18.397,18.539 -2.377,2.384 -4.302,2.488 -6.671,0.077 -1.474,-1.499 -2.797,-3.207 -3.9,-4.998 -1.536,-2.493 -1.203,-4.172 0.87,-6.263 C -2.937,16.904 2.185,11.764 7.298,6.614 7.845,6.063 8.408,5.519 8.889,4.912 10.468,2.917 11.132,0.685 10.204,-1.774 8.868,-5.315 6.538,-8.014 3.036,-9.567 c -2.821,-1.251 -5.187,-0.344 -6.287,2.314 -1.163,2.811 -0.06,5.832 2.531,6.931 0.141,0.06 0.28,0.125 0.72,0.322"
         style="fill:#ed192d;fill-opacity:1;fill-rule:nonzero;stroke:none"
         transform="matrix(1.3333333,0,0,-1.3333333,134.88,208.85467)" />
      <path
         id="path10"
         d="m 0,0 c -0.549,3.228 -1.103,6.531 -1.675,9.83 -0.567,3.266 -1.17,6.525 -1.725,9.792 -0.67,3.949 -1.64,4.732 -5.588,4.432 -0.398,-0.03 -0.797,-0.051 -1.373,-0.088 0.7,2.42 1.303,4.716 2.069,6.957 0.137,0.402 1.001,0.882 1.431,0.801 1.872,-0.352 3.707,-0.897 5.675,-1.403 6.62,5.167 14.436,7.028 23.022,5.547 3.779,-0.651 6.142,-3.028 6.819,-6.918 1.712,-9.846 3.45,-19.688 5.118,-29.541 0.093,-0.55 -0.179,-1.367 -0.577,-1.759 -2.03,-1.998 -4.46,-2.658 -7.282,-1.998 -1.187,0.278 -1.696,0.88 -1.892,2.056 -1.028,6.182 -2.119,12.354 -3.186,18.529 -0.538,3.112 -1.045,6.23 -1.615,9.336 -0.551,2.996 -2.042,4.328 -5.058,4.055 C 12.082,29.439 9.983,28.902 8.012,28.19 5.82,27.398 5.032,25.786 5.419,23.481 6.791,15.31 8.242,7.153 9.605,-1.019 c 0.914,-5.484 -1.739,-8.867 -7.35,-9.45 -2.25,-0.234 -4.459,-0.045 -6.473,1.136 -1.887,1.108 -2.509,2.864 -2.277,4.905 0.231,2.03 1.232,3.702 3.234,4.376 C -2.353,0.254 -1.258,0 0,0"
         style="fill:#ed192d;fill-opacity:1;fill-rule:nonzero;stroke:none"
         transform="matrix(1.3333333,0,0,-1.3333333,281.948,100.652)" />
      <path
         id="path11"
         d="m 0,0 c 3.522,-0.841 5.06,-3.335 4.329,-6.757 -0.602,-2.814 -3.119,-4.331 -6.327,-3.812 -6.054,0.979 -9.423,6.32 -7.631,12.554 0.984,3.421 2.464,6.702 3.758,10.032 1.294,3.331 2.654,6.637 3.951,9.967 2.157,5.535 5.656,8.025 11.553,7.2 9.307,-1.303 17.105,-5.49 22.476,-13.485 2.103,-3.131 2.449,-6.444 0.971,-10.045 -3.443,-8.385 -6.755,-16.824 -10.053,-25.267 -0.452,-1.158 -1.174,-1.599 -2.284,-1.728 -2.635,-0.307 -6.043,1.739 -6.947,4.295 -0.178,0.503 -0.058,1.211 0.149,1.736 3.022,7.662 5.979,15.352 9.169,22.944 1.925,4.58 0.516,7.517 -2.703,10.139 -2.462,2.005 -5.265,3.311 -8.551,3.181 C 9.973,20.88 8.271,20.174 7.524,18.412 4.937,12.318 2.503,6.16 0,0"
         style="fill:#ed192d;fill-opacity:1;fill-rule:nonzero;stroke:none"
         transform="matrix(1.3333333,0,0,-1.3333333,457.78133,112.24267)" />
      <path
         id="path12"
         d="m 0,0 c -1.113,2.768 -1.978,4.921 -2.87,7.14 0.771,0.571 1.535,1.084 2.24,1.668 1.153,0.955 1.643,2.28 1.128,3.632 -2.506,6.576 -5.117,13.111 -7.743,19.793 -0.298,-0.283 -0.472,-0.394 -0.573,-0.553 -1.05,-1.633 -2.344,-2.82 -4.474,-2.297 -1.831,0.449 -3.53,2.536 -3.618,4.612 -0.04,0.947 0.102,2.012 0.517,2.847 1.74,3.504 4.601,5.717 8.425,6.514 3.187,0.664 5.39,-0.502 6.716,-3.646 C 2.082,34.172 4.265,28.57 6.506,22.993 7.24,21.165 7.928,19.319 8.683,17.5 c 1.19,-2.866 2.72,-3.653 5.655,-2.637 1.695,0.588 3.356,1.405 4.862,2.381 2.87,1.858 3.441,3.922 2.186,7.081 -3.232,8.139 -6.432,16.292 -9.77,24.388 -0.667,1.617 -0.528,2.85 0.73,3.852 1.193,0.95 2.474,1.94 3.884,2.431 2.686,0.934 3.621,0.346 4.662,-2.271 2.968,-7.464 5.736,-15.016 8.98,-22.357 2.426,-5.488 1.116,-9.99 -2.533,-14.164 C 22.889,11.114 17.066,8.458 10.553,7.137 10.2,7.066 9.788,6.96 9.475,7.07 7.233,7.864 6.345,6.457 5.157,4.896 3.818,3.137 1.935,1.792 0,0"
         style="fill:#ed192d;fill-opacity:1;fill-rule:nonzero;stroke:none"
         transform="matrix(1.3333333,0,0,-1.3333333,221.84933,142.644)" />
      <path
         id="path13"
         d="m 0,0 c -1.447,-1.295 -1.847,-2.831 -2.057,-4.408 -0.687,-5.154 -0.318,-10.151 2.532,-14.691 2.035,-3.241 4.134,-4.107 7.882,-3.421 4.431,0.81 8.865,1.603 13.3,2.392 3.618,0.644 5.707,2.674 6.227,6.353 0.485,3.428 0.223,6.838 -0.933,10.123 -1.525,4.336 -4.79,6.537 -9.425,6.281 -1.233,-0.068 -1.928,0.306 -2.448,1.374 -1.228,2.528 -1.563,5.146 -0.766,7.836 0.139,0.468 0.85,1.031 1.349,1.087 5.173,0.583 8.667,-2.099 11.379,-6.11 2.982,-4.412 4.148,-9.433 4.764,-14.632 0.644,-5.437 0.883,-10.843 -0.716,-16.183 -1.144,-3.817 -3.36,-6.188 -7.569,-6.734 -4.926,-0.639 -9.799,-1.69 -14.692,-2.575 -4.649,-0.841 -7.599,0.488 -10.088,4.545 -2.318,3.779 -3.428,7.98 -4.214,12.272 -1.037,5.668 -1.891,11.369 -1.084,17.146 0.234,1.676 0.668,3.361 1.277,4.939 1.067,2.765 3.093,4.505 6.142,4.787 C 4.094,10.679 6.745,9.489 8.388,6.713 10.291,3.497 10.479,0.023 8.906,-3.418 7.932,-5.551 6.196,-6.577 4.399,-6.307 2.458,-6.015 0.566,-4.061 0.235,-1.985 0.14,-1.394 0.092,-0.795 0,0"
         style="fill:#ed192d;fill-opacity:1;fill-rule:nonzero;stroke:none"
         transform="matrix(1.3333333,0,0,-1.3333333,607.73733,299.10267)" />
      <path
         id="path14"
         d="m 0,0 c 4.069,0.938 6.5,-0.289 7.126,-3.455 0.597,-3.015 -0.987,-5.7 -3.951,-6.698 -4.763,-1.603 -9.847,1.488 -10.622,6.459 -0.942,6.034 1.554,10.226 7.427,12.039 5.522,1.706 11.151,1.745 16.71,0.165 5.511,-1.567 8.452,-5.665 8.474,-11.947 0.025,-7.671 -0.171,-15.342 -0.269,-23.013 -0.015,-1.141 -0.138,-2.296 0.001,-3.418 0.176,-1.415 -0.441,-2.179 -1.6,-2.822 -2.702,-1.501 -5.934,-1.289 -8.24,0.785 -0.44,0.396 -0.669,1.247 -0.663,1.884 0.069,7.724 0.226,15.446 0.295,23.17 0.016,1.805 -0.076,3.635 -0.358,5.415 C 13.837,1.669 12.339,3.029 9.206,3.127 7.153,3.191 5.068,3.034 3.035,2.73 1.628,2.519 0.434,1.717 0,0"
         style="fill:#ed192d;fill-opacity:1;fill-rule:nonzero;stroke:none"
         transform="matrix(1.3333333,0,0,-1.3333333,344.968,60.66)" />
      <path
         id="path15"
         d="m 0,0 c 1.788,-1.937 2.576,-3.911 1.805,-6.288 -1.123,-3.462 -4.629,-4.637 -7.379,-2.289 -2.903,2.478 -3.913,5.817 -3.314,9.537 0.586,3.638 2.91,5.849 6.36,6.917 2.431,0.752 4.602,0.089 6.562,-1.396 2.451,-1.856 4.138,-4.34 5.547,-7.015 2.109,-4.005 3.725,-8.186 4.501,-12.678 1.08,-6.252 -0.951,-10.959 -6.56,-13.922 -6.777,-3.579 -13.693,-6.894 -20.552,-10.317 -2.232,-1.115 -2.482,-1.076 -4.194,0.79 -2.032,2.214 -2.735,4.863 -2.198,7.769 0.122,0.661 0.805,1.432 1.433,1.753 6.638,3.391 13.318,6.701 19.986,10.036 0.231,0.115 0.457,0.243 0.681,0.373 4.689,2.707 5.569,5.228 3.401,10.168 C 5.314,-4.82 4.41,-3.118 3.379,-1.52 2.714,-0.491 1.71,0.331 0,0"
         style="fill:#ed192d;fill-opacity:1;fill-rule:nonzero;stroke:none"
         transform="matrix(1.3333333,0,0,-1.3333333,615.53733,229.27867)" />
      <path
         id="path16"
         d="M 0,0 C 0.205,0.281 0.409,0.563 0.615,0.843 1.916,2.606 3.62,3.294 5.472,2.804 7.283,2.325 8.803,0.474 9.014,-1.509 9.352,-4.699 7.024,-8.231 3.635,-9.67 0.63,-10.946 -2.57,-10.152 -4.762,-7.509 -7.398,-4.33 -8.246,-0.714 -6.446,3.06 c 1.118,2.346 2.645,4.581 4.361,6.538 2.884,3.29 6.354,5.937 10.337,7.839 5.245,2.503 9.718,1.547 13.155,-3.164 2.468,-3.384 4.601,-7.014 6.849,-10.556 2.553,-4.024 5.104,-8.05 7.562,-12.133 0.359,-0.596 0.461,-1.605 0.225,-2.258 -1.103,-3.043 -3.166,-5.023 -6.54,-5.42 -1.124,-0.132 -1.774,0.21 -2.382,1.189 -4.208,6.778 -8.459,13.53 -12.758,20.251 -0.745,1.165 -1.72,2.203 -2.699,3.191 C 10.365,9.849 8.752,10.174 7.102,9.31 4.312,7.85 1.871,5.917 0.251,3.173 -0.258,2.311 -0.305,1.176 -0.564,0.167 -0.376,0.111 -0.188,0.056 0,0"
         style="fill:#ed192d;fill-opacity:1;fill-rule:nonzero;stroke:none"
         transform="matrix(1.3333333,0,0,-1.3333333,164.016,133.04667)" />
      <path
         id="path17"
         d="m 0,0 c 5.55,1.177 9.973,-4.897 8.947,-8.715 -0.895,-3.331 -3.402,-5.206 -7.218,-4.957 -8.038,0.523 -12.354,5.939 -11.07,14.085 0.968,6.14 2.214,12.236 3.154,18.38 0.916,5.99 4.131,8.374 9.941,8.648 3.116,0.146 6.282,-0.478 9.403,-0.915 1.331,-0.187 1.826,-1.34 1.646,-2.599 -0.18,-1.258 -1.19,-1.341 -2.25,-1.363 C 10.604,22.523 8.624,22.573 6.719,22.234 5.125,21.95 3.852,20.789 3.531,19.142 2.303,12.848 1.194,6.532 0,0"
         style="fill:#ed192d;fill-opacity:1;fill-rule:nonzero;stroke:none"
         transform="matrix(1.3333333,0,0,-1.3333333,426.43467,97.085333)" />
      <path
         id="path18"
         d="m 0,0 c 3.627,0.632 6.038,-1.02 7.862,-3.73 1.491,-2.217 1.54,-4.576 0.295,-6.915 -1.139,-2.14 -3.086,-2.931 -5.41,-3.015 -8.368,-0.3 -13.568,5.618 -12.163,13.871 1.076,6.325 2.15,12.651 3.267,18.969 0.901,5.1 3.581,7.609 8.704,8.166 3.538,0.385 7.024,-0.013 10.476,-0.824 1.384,-0.326 1.902,-1.36 1.746,-2.537 -0.172,-1.304 -1.259,-1.636 -2.491,-1.459 -0.715,0.103 -1.435,0.248 -2.152,0.246 C 4.915,22.762 3.436,20.438 2.924,16.988 2.09,11.371 1.01,5.791 0,0"
         style="fill:#ed192d;fill-opacity:1;fill-rule:nonzero;stroke:none"
         transform="matrix(1.3333333,0,0,-1.3333333,398.96267,91.06)" />
      <path
         id="path19"
         d="m 0,0 c -0.433,0.735 -0.624,1.099 -0.851,1.439 -1.025,1.537 -2.491,1.8 -3.773,0.466 -0.914,-0.952 -1.736,-2.095 -2.26,-3.301 -1.933,-4.441 -2.916,-9.13 -3.134,-14.079 0.295,0.37 0.577,0.751 0.886,1.109 1.809,2.092 4.498,1.889 5.739,-0.58 0.587,-1.167 0.953,-2.553 1.007,-3.857 0.146,-3.477 -0.663,-6.792 -2.409,-9.824 -1.49,-2.589 -3.829,-3.706 -6.641,-3.3 -2.638,0.381 -4.097,1.853 -4.787,4.987 -0.862,3.911 -0.708,7.881 0.085,11.736 1.113,5.41 2.441,10.792 4.013,16.086 1.127,3.793 3.187,7.191 6.031,10.032 0.512,0.511 1.052,1.004 1.629,1.437 3.158,2.368 5.899,2.263 8.324,-0.291 C 6.286,9.504 6.484,5.633 4.077,3.033 2.968,1.836 1.427,1.038 0,0"
         style="fill:#ed192d;fill-opacity:1;fill-rule:nonzero;stroke:none"
         transform="matrix(1.3333333,0,0,-1.3333333,50.030667,274.092)" />
      <path
         id="path20"
         d="m 0,0 c -27.589,0 -55.1,0 -82.833,0 0,-27.841 0,-55.567 0,-83.375 -27.218,0 -54.214,0 -81.515,0 0,27.781 0,55.501 0,83.352 -28.069,0 -55.832,0 -83.699,0 0,27.366 0,54.621 0,82.074 0.665,0 1.267,0.001 1.869,0 25.984,-0.048 51.968,-0.106 77.951,-0.131 3.63,-0.003 3.018,-0.423 3.03,3.049 0.09,25.983 0.156,51.967 0.229,77.951 10e-4,0.559 0,1.118 0,1.787 27.394,0 54.6,0 82.077,0 0,-27.743 0,-55.502 0,-83.383 27.777,0 55.282,0 82.891,0 C 0,54.189 0,27.152 0,0"
         style="fill:#ed192d;fill-opacity:1;fill-rule:nonzero;stroke:none"
         transform="matrix(1.3333333,0,0,-1.3333333,521.22,407.91867)" />
      <path
         id="path21"
         d="m 0,0 0.326,-8.419 c -4.629,-0.358 -8.452,0.44 -11.466,2.397 -3.016,1.958 -5.269,5.007 -6.761,9.149 -1.846,5.125 -1.613,9.968 0.699,14.528 2.313,4.561 6.505,7.935 12.577,10.122 6.424,2.315 12.01,2.453 16.759,0.417 C 16.883,26.157 20.23,22.436 22.178,17.031 23.879,12.31 23.865,7.973 22.137,4.019 21.119,1.67 19.224,-0.5 16.452,-2.49 L 11.83,4.559 c 1.836,1.177 3.073,2.698 3.709,4.563 0.637,1.865 0.583,3.834 -0.163,5.904 -1.031,2.862 -2.894,4.813 -5.589,5.854 -2.695,1.042 -6.342,0.733 -10.939,-0.923 -4.88,-1.758 -8.038,-3.887 -9.477,-6.388 -1.439,-2.501 -1.652,-5.155 -0.641,-7.964 0.747,-2.07 2.046,-3.614 3.9,-4.632 C -5.516,-0.044 -3.06,-0.369 0,0"
         style="fill:#ed192d;fill-opacity:1;fill-rule:nonzero;stroke:none"
         transform="matrix(1.3333333,0,0,-1.3333333,90.501333,462.79067)" />
      <path
         id="path22"
         d="m 0,0 3.191,-5.231 c 2.069,-3.392 3.504,-5.422 4.306,-6.092 0.801,-0.669 1.698,-1.029 2.69,-1.079 0.992,-0.051 2.014,0.245 3.065,0.886 1.178,0.718 1.938,1.614 2.279,2.684 0.341,1.072 0.257,2.238 -0.251,3.502 -0.27,0.621 -1.279,2.366 -3.028,5.233 L 8.887,5.421 Z m -24.522,-5.255 35.02,21.36 9.077,-14.882 c 2.283,-3.742 3.627,-6.654 4.033,-8.733 0.405,-2.081 0.114,-4.121 -0.872,-6.121 -0.988,-2 -2.516,-3.631 -4.586,-4.894 -2.628,-1.603 -5.269,-2.154 -7.923,-1.653 -2.655,0.501 -5.142,2.151 -7.462,4.953 0.04,-2.074 -0.17,-3.932 -0.629,-5.578 -0.46,-1.647 -1.537,-4.144 -3.231,-7.494 l -4.223,-8.443 -5.159,8.457 4.503,9.76 c 1.616,3.476 2.574,5.765 2.875,6.866 0.3,1.102 0.354,2.106 0.16,3.015 -0.193,0.909 -0.786,2.175 -1.776,3.799 l -0.875,1.434 -14.619,-8.917 -4.313,7.071"
         style="fill:#ed192d;fill-opacity:1;fill-rule:nonzero;stroke:none"
         transform="matrix(1.3333333,0,0,-1.3333333,114.87467,486.80933)" />
      <path
         id="path23"
         d="m 0,0 c -3.381,-3.187 -5.208,-6.382 -5.481,-9.587 -0.273,-3.205 0.723,-6.009 2.988,-8.412 2.264,-2.402 4.988,-3.559 8.17,-3.469 3.184,0.091 6.506,1.768 9.968,5.03 3.421,3.224 5.266,6.379 5.535,9.466 0.27,3.086 -0.766,5.871 -3.107,8.356 C 15.732,3.868 12.992,5.067 9.856,4.982 6.719,4.897 3.434,3.236 0,0 Z m -6.057,6.019 c 3.041,2.865 6.021,4.816 8.942,5.851 2.16,0.754 4.397,1.113 6.712,1.077 2.315,-0.035 4.423,-0.477 6.325,-1.325 2.54,-1.118 4.955,-2.892 7.245,-5.321 4.146,-4.399 6.098,-9.204 5.858,-14.416 -0.241,-5.212 -2.791,-10.109 -7.65,-14.689 -4.82,-4.542 -9.826,-6.785 -15.016,-6.73 -5.191,0.055 -9.853,2.275 -13.985,6.66 -4.184,4.438 -6.156,9.245 -5.917,14.417 0.239,5.173 2.734,9.997 7.486,14.476"
         style="fill:#ed192d;fill-opacity:1;fill-rule:nonzero;stroke:none"
         transform="matrix(1.3333333,0,0,-1.3333333,141.81867,533.40533)" />
      <path
         id="path24"
         d="M 0,0 25.484,32.143 31.975,26.997 6.49,-5.146 0,0"
         style="fill:#ed192d;fill-opacity:1;fill-rule:nonzero;stroke:none"
         transform="matrix(1.3333333,0,0,-1.3333333,160.60933,589.73867)" />
      <path
         id="path25"
         d="m 0,0 23.037,11.136 -0.794,23.355 8.301,-4.983 0.268,-15.535 13.693,7.152 8.228,-4.941 L 31.539,5.672 32.698,-19.632 24.133,-14.49 23.639,2.353 8.516,-5.114 0,0"
         style="fill:#ed192d;fill-opacity:1;fill-rule:nonzero;stroke:none"
         transform="matrix(1.3333333,0,0,-1.3333333,175.532,602.504)" />
      <path
         id="path26"
         d="M 0,0 3.078,7.236 17.291,1.187 14.212,-6.047 0,0"
         style="fill:#ed192d;fill-opacity:1;fill-rule:nonzero;stroke:none"
         transform="matrix(1.3333333,0,0,-1.3333333,232.75733,617.984)" />
      <path
         id="path27"
         d="m 0,0 5.929,-1.549 c 3.844,-1.004 6.287,-1.467 7.329,-1.392 1.041,0.075 1.936,0.438 2.685,1.092 0.749,0.652 1.279,1.574 1.59,2.765 0.349,1.336 0.274,2.507 -0.225,3.515 C 16.81,5.438 15.939,6.22 14.696,6.776 14.07,7.035 12.132,7.59 8.884,8.438 L 2.63,10.071 Z M -13.995,-20.811 -3.63,18.878 13.236,14.474 c 4.241,-1.108 7.23,-2.27 8.966,-3.485 1.736,-1.214 2.943,-2.883 3.623,-5.008 0.679,-2.125 0.712,-4.361 0.099,-6.706 -0.777,-2.979 -2.295,-5.209 -4.552,-6.692 -2.258,-1.483 -5.194,-2.023 -8.809,-1.619 1.468,-1.463 2.609,-2.946 3.421,-4.45 0.812,-1.504 1.772,-4.049 2.88,-7.635 l 2.823,-9.008 -9.583,2.502 -3.539,10.15 c -1.251,3.624 -2.151,5.936 -2.699,6.937 -0.549,1.001 -1.208,1.761 -1.979,2.28 -0.771,0.52 -2.076,1.02 -3.917,1.5 l -1.624,0.425 -4.327,-16.569 -8.014,2.093"
         style="fill:#ed192d;fill-opacity:1;fill-rule:nonzero;stroke:none"
         transform="matrix(1.3333333,0,0,-1.3333333,274.22,615.74933)" />
      <path
         id="path28"
         d="m 0,0 c -0.216,-4.64 0.692,-8.208 2.723,-10.701 2.031,-2.494 4.696,-3.818 7.995,-3.971 3.298,-0.154 6.06,0.908 8.285,3.185 2.224,2.277 3.449,5.792 3.67,10.544 0.218,4.695 -0.649,8.247 -2.6,10.653 -1.951,2.407 -4.632,3.689 -8.042,3.848 C 8.621,13.716 5.818,12.675 3.622,10.434 1.427,8.192 0.219,4.714 0,0 Z m -8.538,0.117 c 0.194,4.174 0.981,7.648 2.362,10.422 1.028,2.043 2.387,3.857 4.076,5.441 1.689,1.583 3.512,2.731 5.469,3.443 2.603,0.962 5.572,1.365 8.907,1.21 6.038,-0.281 10.781,-2.378 14.231,-6.292 3.451,-3.914 5.021,-9.207 4.711,-15.878 -0.309,-6.615 -2.348,-11.707 -6.118,-15.275 -3.771,-3.569 -8.665,-5.213 -14.684,-4.934 -6.093,0.284 -10.851,2.368 -14.275,6.253 -3.423,3.885 -4.982,9.088 -4.679,15.61"
         style="fill:#ed192d;fill-opacity:1;fill-rule:nonzero;stroke:none"
         transform="matrix(1.3333333,0,0,-1.3333333,325.94667,630.53867)" />
      <path
         id="path29"
         d="m 0,0 8.177,1.321 3.542,-21.933 c 0.561,-3.48 1.026,-5.721 1.396,-6.719 0.617,-1.601 1.665,-2.796 3.145,-3.587 1.478,-0.792 3.359,-1.003 5.642,-0.634 2.321,0.375 3.993,1.131 5.02,2.27 1.024,1.138 1.546,2.418 1.562,3.837 0.016,1.42 -0.234,3.733 -0.752,6.937 l -3.617,22.402 8.177,1.32 3.434,-21.269 c 0.786,-4.862 1.119,-8.332 1.001,-10.411 -0.118,-2.078 -0.659,-3.905 -1.624,-5.478 -0.964,-1.572 -2.376,-2.93 -4.232,-4.07 -1.856,-1.14 -4.387,-1.969 -7.591,-2.486 -3.868,-0.625 -6.873,-0.652 -9.014,-0.082 -2.143,0.571 -3.91,1.476 -5.3,2.716 -1.391,1.24 -2.397,2.613 -3.018,4.118 -0.908,2.235 -1.728,5.617 -2.46,10.147 L 0,0"
         style="fill:#ed192d;fill-opacity:1;fill-rule:nonzero;stroke:none"
         transform="matrix(1.3333333,0,0,-1.3333333,372.50133,604.54533)" />
      <path
         id="path30"
         d="m 0,0 -2.503,6.442 16.64,6.466 5.918,-15.231 c -1.009,-2.194 -2.817,-4.483 -5.422,-6.866 -2.606,-2.383 -5.483,-4.186 -8.63,-5.41 -4,-1.553 -7.811,-2.069 -11.436,-1.547 -3.625,0.523 -6.792,2.054 -9.5,4.594 -2.708,2.54 -4.776,5.645 -6.201,9.314 -1.547,3.981 -2.087,7.843 -1.621,11.587 0.467,3.744 1.987,7.066 4.562,9.968 1.959,2.222 4.764,4.042 8.415,5.461 4.747,1.845 8.841,2.29 12.284,1.336 3.442,-0.953 6.229,-3.038 8.358,-6.253 l -7.11,-4.414 c -1.268,1.669 -2.857,2.757 -4.766,3.267 -1.91,0.509 -3.977,0.331 -6.203,-0.534 -3.373,-1.311 -5.639,-3.422 -6.798,-6.334 -1.161,-2.913 -0.923,-6.473 0.712,-10.68 1.763,-4.538 4.094,-7.551 6.994,-9.035 2.898,-1.486 5.981,-1.594 9.251,-0.324 1.617,0.629 3.115,1.576 4.494,2.842 1.379,1.267 2.475,2.578 3.289,3.936 L 8.842,3.435 0,0"
         style="fill:#ed192d;fill-opacity:1;fill-rule:nonzero;stroke:none"
         transform="matrix(1.3333333,0,0,-1.3333333,458.372,619.12)" />
      <path
         id="path31"
         d="M 0,0 -22.218,34.483 3.35,50.956 7.108,45.123 -11.497,33.136 -6.572,25.492 10.74,36.646 14.483,30.835 -2.828,19.681 3.219,10.296 22.483,22.708 26.226,16.899 0,0"
         style="fill:#ed192d;fill-opacity:1;fill-rule:nonzero;stroke:none"
         transform="matrix(1.3333333,0,0,-1.3333333,502.22933,621.316)" />
      <path
         id="path32"
         d="M 0,0 -29.827,27.667 -24.194,33.74 0.566,10.772 14.572,25.871 19.639,21.17 0,0"
         style="fill:#ed192d;fill-opacity:1;fill-rule:nonzero;stroke:none"
         transform="matrix(1.3333333,0,0,-1.3333333,565.74533,574.15733)" />
      <path
         id="path33"
         d="m 0,0 -15.888,3.353 9.909,-12.815 z m 21.865,4.223 -4.813,-7.617 -9.79,1.95 -8.759,-13.862 6.069,-7.839 -4.694,-7.428 -26.143,35.418 4.679,7.404 43.451,-8.026"
         style="fill:#ed192d;fill-opacity:1;fill-rule:nonzero;stroke:none"
         transform="matrix(1.3333333,0,0,-1.3333333,597.412,499.25067)" />
      <path
         id="path34"
         d="m 0,0 c 4.357,-1.61 8.032,-1.823 11.024,-0.641 2.991,1.182 5.059,3.321 6.203,6.419 1.143,3.097 0.967,6.051 -0.53,8.86 -1.498,2.811 -4.478,5.039 -8.94,6.688 -4.41,1.629 -8.056,1.876 -10.94,0.744 -2.884,-1.132 -4.918,-3.299 -6.101,-6.501 -1.182,-3.203 -1.037,-6.189 0.435,-8.96 C -7.377,3.838 -4.426,1.635 0,0 Z m -2.694,-8.103 c -3.92,1.447 -6.993,3.249 -9.22,5.404 -1.636,1.598 -2.954,3.442 -3.953,5.532 -0.998,2.088 -1.541,4.173 -1.628,6.253 -0.129,2.772 0.385,5.724 1.541,8.856 2.095,5.67 5.529,9.557 10.303,11.661 4.774,2.105 10.294,2 16.558,-0.313 6.212,-2.294 10.449,-5.779 12.71,-10.451 2.261,-4.673 2.348,-9.835 0.26,-15.488 C 21.764,-2.37 18.338,-6.276 13.6,-8.364 8.862,-10.451 3.431,-10.365 -2.694,-8.103"
         style="fill:#ed192d;fill-opacity:1;fill-rule:nonzero;stroke:none"
         transform="matrix(1.3333333,0,0,-1.3333333,609.25467,464.28133)" />
    </g>
  </g>
</svg>
