<svg xmlns="http://www.w3.org/2000/svg" width="369.08" height="352.26" viewBox="0 0 369.08 352.26">
  <rect data-name="background" fill="#FFFFFF" width="369.08" height="352.26" />
  <polygon data-name="red_cross" fill="#F5333F" points="103.34,103.35 103.34,61.14 139.51,61.14 139.51,103.35 139.50,103.37 181.71,103.37 181.71,139.54 139.50,139.54 139.51,139.53 139.51,181.73 103.34,181.73 103.34,139.53 103.34,139.55 61.14,139.55 61.14,103.37 103.34,103.37" />
  <path data-name="red_crescent" fill="#F5333F" d="m 237.67,120.8 c 0,-28.109997 22.79,-50.889997 50.89,-50.889997 6.26,0 12.25,1.13 17.79,3.2 -10.41,-8.24 -23.56,-13.16 -37.87,-13.16 -33.73,0 -61.07,27.35 -61.07,61.069997 0,33.73 27.34,61.07 61.07,61.07 14.78,0 28.34,-5.25 38.91,-13.99 -5.83,2.32 -12.18,3.6 -18.82,3.6 -28.11,-0.01 -50.9,-22.8 -50.9,-50.9" />
  <path data-name="text_ifrc" fill="#333132" d="m 277.93,292.31 c 6.3,0 12.01,-1.11 17.14,-3.32 5.12,-2.21 9.42,-5.44 12.88,-9.66 l -10.8,-9.97 c -4.92,5.75 -11.01,8.62 -18.28,8.62 -4.5,0 -8.52,-0.99 -12.05,-2.96 -3.53,-1.97 -6.28,-4.73 -8.26,-8.26 -1.97,-3.53 -2.96,-7.55 -2.96,-12.05 0,-4.5 0.99,-8.52 2.96,-12.05 1.97,-3.53 4.73,-6.28 8.26,-8.26 3.53,-1.97 7.55,-2.96 12.05,-2.96 7.27,0 13.36,2.84 18.28,8.52 l 10.8,-9.97 c -3.46,-4.16 -7.74,-7.34 -12.83,-9.56 -5.09,-2.21 -10.79,-3.32 -17.09,-3.32 -7.48,0 -14.22,1.61 -20.2,4.83 -5.99,3.22 -10.7,7.69 -14.13,13.4 -3.43,5.71 -5.14,12.17 -5.14,19.37 0,7.2 1.72,13.66 5.14,19.37 3.43,5.71 8.14,10.18 14.13,13.4 5.99,3.22 12.69,4.83 20.1,4.83 m -67.21,-47.57 c 0,4.02 -1.32,7.13 -3.95,9.35 -2.63,2.22 -6.48,3.32 -11.53,3.32 h -13.71 v -25.35 h 13.71 c 5.06,0 8.9,1.09 11.53,3.27 2.63,2.19 3.95,5.32 3.95,9.41 m 18.39,46.32 -16.31,-23.37 c 4.78,-2.08 8.47,-5.07 11.06,-8.99 2.6,-3.91 3.89,-8.57 3.89,-13.97 0,-5.4 -1.28,-10.08 -3.84,-14.03 -2.56,-3.95 -6.22,-6.99 -10.96,-9.14 -4.74,-2.15 -10.34,-3.22 -16.78,-3.22 h -31.48 v 72.72 h 16.83 V 270.8 h 14.65 0.83 l 14.02,20.26 z m -78.95,-59.21 v -13.5 H 95.209997 v 72.72 H 112.04 v -26.49 h 33.66 v -13.5 h -33.66 v -19.22 h 38.12 z m -89.020003,59.21 h 16.83 v -72.72 h -16.83 z" />
</svg>
