<?xml version="1.0" encoding="UTF-8" standalone="no"?>
<svg width="235px" height="61px" viewBox="0 0 235 61" version="1.1" xmlns="http://www.w3.org/2000/svg" xmlns:xlink="http://www.w3.org/1999/xlink">
    <!-- Generator: Sketch 40.2 (33826) - http://www.bohemiancoding.com/sketch -->
    <title>red-cross-eu-office-logo</title>
    <desc>Created with Sketch.</desc>
    <defs></defs>
    <g id="Page-1" stroke="none" stroke-width="1" fill="none" fill-rule="evenodd">
        <g id="red-cross-eu-office-logo">
            <g id="Group">
                <polygon id="Fill-1" fill="#EE3224" points="21.156824 0 21.156824 21.1555445 21.1585299 21.1666334 0 21.1666334 0 39.3000181 21.156824 39.3000181 21.156824 60.4483122 39.2919147 60.4483122 39.2919147 39.2961797 60.4491652 39.2961797 60.4491652 21.1636479 39.2906352 21.1636479 39.2919147 21.1555445 39.2919147 0"></polygon>
                <polygon id="Fill-2" fill="#000000" points="82.4632486 44.4567967 91.2516515 44.4567967 91.2516515 41.358294 82.4632486 41.358294 82.4632486 37.4716243 92.0389655 37.4716243 92.0389655 34.1197822 78.4754991 34.1197822 78.4754991 52.2544465 92.2424047 52.2544465 92.2424047 48.9026044 82.4632486 48.9026044"></polygon>
                <path d="M119.568938,22.8862704 L119.568938,11.4565699 L122.414102,11.4565699 C126.375408,11.4565699 127.645517,13.792922 127.645517,17.4505626 C127.645517,21.463902 125.436261,22.8862704 123.124646,22.8862704 L119.568938,22.8862704 L119.568938,22.8862704 Z M131.63412,17.0697005 C131.63412,11.0496915 128.104002,8.10344828 123.404428,8.10344828 L115.580762,8.10344828 L115.580762,26.2398185 L123.404428,26.2398185 C128.942495,26.2398185 131.63412,22.327559 131.63412,17.0697005 L131.63412,17.0697005 Z" id="Fill-3" fill="#000000"></path>
                <polygon id="Fill-5" fill="#000000" points="102.08255 18.4408893 110.870953 18.4408893 110.870953 15.3419601 102.08255 15.3419601 102.08255 11.4565699 111.658693 11.4565699 111.658693 8.10344828 98.0943739 8.10344828 98.0943739 26.2398185 111.862132 26.2398185 111.862132 22.8862704 102.08255 22.8862704"></polygon>
                <path d="M190.603339,11.0300726 C194.184211,11.0300726 195.530662,14.0778221 195.530662,17.2526679 C195.530662,20.2761071 194.184211,23.3234301 190.603339,23.3234301 C187.022042,23.3234301 185.67431,20.2761071 185.67431,17.2526679 C185.67431,14.0778221 187.022042,11.0300726 190.603339,11.0300726 M190.603339,26.6769782 C196.21647,26.6769782 199.517985,22.4857895 199.517985,17.2526679 C199.517985,11.8677132 196.21647,7.676951 190.603339,7.676951 C184.989356,7.676951 181.68784,11.8677132 181.68784,17.2526679 C181.68784,22.4857895 184.989356,26.6769782 190.603339,26.6769782" id="Fill-7" fill="#000000"></path>
                <path d="M86.8322868,16.3075499 L82.4632486,16.3075499 L82.4632486,11.2015245 L86.8322868,11.2015245 C88.6099274,11.2015245 89.5755172,11.9636751 89.5755172,13.7165789 C89.5755172,15.5462523 88.6099274,16.3075499 86.8322868,16.3075499 M90.6933666,17.703902 L90.6933666,17.6535753 C92.6996098,16.841098 93.5632668,15.2408802 93.5632668,13.1071143 C93.5632668,10.3638838 91.5058439,8.10344828 88.2546552,8.10344828 L78.4754991,8.10344828 L78.4754991,26.2398185 L82.4632486,26.2398185 L82.4632486,19.1522868 L86.4509982,19.1522868 C88.4576679,19.1522868 89.1946552,19.9907804 89.4735844,21.8959437 C89.6770236,23.3434755 89.6258439,25.0963793 90.1086388,26.2398185 L94.0963884,26.2398185 C93.3854174,25.2226225 93.4105808,23.0897096 93.3346642,21.9471234 C93.2079946,20.1174501 92.6492831,18.2127132 90.6933666,17.703902" id="Fill-9" fill="#000000"></path>
                <path d="M155.480862,19.2589111 C155.176343,21.6477223 153.804728,23.3234301 151.366869,23.3234301 C147.784719,23.3234301 146.439546,20.2761071 146.439546,17.2526679 C146.439546,14.0778221 147.784719,11.0300726 151.366869,11.0300726 C153.347949,11.0300726 155.073984,12.4012613 155.328176,14.2044918 L159.188829,14.2044918 C158.706461,10.0133031 155.352913,7.676951 151.366869,7.676951 C145.752459,7.676951 142.450091,11.8677132 142.450091,17.2526679 C142.450091,22.4857895 145.752459,26.6769782 151.366869,26.6769782 C155.810971,26.6769782 158.935917,23.7806352 159.342795,19.2589111 L155.480862,19.2589111 Z" id="Fill-11" fill="#000000"></path>
                <path d="M171.704392,16.3075499 L167.336207,16.3075499 L167.336207,11.2015245 L171.704392,11.2015245 C173.483739,11.2015245 174.448475,11.9636751 174.448475,13.7165789 C174.448475,15.5462523 173.483739,16.3075499 171.704392,16.3075499 M178.207623,21.9471234 C178.0801,20.1174501 177.521388,18.2127132 175.565472,17.703902 L175.565472,17.6535753 C177.573848,16.841098 178.435799,15.2408802 178.435799,13.1071143 C178.435799,10.3638838 176.379229,8.10344828 173.12804,8.10344828 L163.348457,8.10344828 L163.348457,26.2398185 L167.336207,26.2398185 L167.336207,19.1522868 L171.32353,19.1522868 C173.3302,19.1522868 174.067187,19.9907804 174.346543,21.8959437 C174.549555,23.3434755 174.499229,25.0963793 174.980744,26.2398185 L178.9702,26.2398185 C178.257949,25.2226225 178.283113,23.0897096 178.207623,21.9471234" id="Fill-13" fill="#000000"></path>
                <path d="M212.040462,15.5765336 C207.494001,14.4083575 206.629918,14.2305082 206.629918,12.8328766 C206.629918,11.3090018 208.103039,10.7754537 209.372722,10.7754537 C211.277885,10.7754537 212.828203,11.3345917 212.955725,13.5191107 L216.814246,13.5191107 C216.814246,9.32792196 213.335308,7.676951 209.550571,7.676951 C206.274219,7.676951 202.769265,9.45459165 202.769265,13.163412 C202.769265,16.5664338 205.486905,17.6087931 208.179382,18.3197641 C210.846696,19.030735 213.563484,19.3612704 213.563484,21.3176134 C213.563484,23.1711706 211.430145,23.578049 210.033793,23.578049 C207.899174,23.578049 206.0196,22.637196 206.0196,20.2253539 L202.160226,20.2253539 C202.109047,24.6950454 205.867341,26.6765517 209.881533,26.6765517 C214.808856,26.6765517 217.425417,24.1870871 217.425417,20.8604083 C217.425417,16.7447096 213.360471,15.906216 212.040462,15.5765336" id="Fill-15" fill="#000000"></path>
                <polygon id="Fill-20" fill="#000000" points="198.349383 43.6639383 208.507695 43.6639383 208.507695 42.1835662 198.349383 42.1835662 198.349383 35.6001543 209.196062 35.6001543 209.196062 34.1197822 196.615245 34.1197822 196.615245 52.3414519 209.323158 52.3414519 209.323158 50.8610799 198.349383 50.8610799"></polygon>
                <path d="M131.005463,51.2018512 C126.181779,51.2018512 124.139283,47.1684664 124.139283,43.1875408 C124.139283,39.2066152 126.181779,35.173657 131.005463,35.173657 C135.803131,35.173657 137.844773,39.2066152 137.844773,43.1875408 C137.844773,47.1684664 135.803131,51.2018512 131.005463,51.2018512 M131.005463,33.6932849 C125.262677,33.6932849 122.404719,38.2111706 122.404719,43.1875408 C122.404719,48.1639111 125.262677,52.6822232 131.005463,52.6822232 C136.721806,52.6822232 139.579338,48.1639111 139.579338,43.1875408 C139.579338,38.2111706 136.721806,33.6932849 131.005463,33.6932849" id="Fill-22" fill="#000000"></path>
                <path d="M185.597114,51.2018512 C180.77343,51.2018512 178.731788,47.1684664 178.731788,43.1875408 C178.731788,39.2066152 180.77343,35.173657 185.597114,35.173657 C188.251633,35.173657 190.573485,36.7815517 191.186788,39.5887568 L192.920926,39.5887568 C192.462868,35.7600907 189.041933,33.6932849 185.597114,33.6932849 C179.854755,33.6932849 176.99637,38.2111706 176.99637,43.1875408 C176.99637,48.1639111 179.854755,52.6822232 185.597114,52.6822232 C189.858675,52.6822232 192.691897,49.823412 193.176397,45.356706 L191.441407,45.356706 C191.110018,48.5976588 188.96559,51.2018512 185.597114,51.2018512" id="Fill-24" fill="#000000"></path>
                <polygon id="Fill-26" fill="#000000" points="142.876588 52.3414519 144.610726 52.3414519 144.610726 43.6639383 153.339419 43.6639383 153.339419 42.1839927 144.610726 42.1839927 144.610726 35.6001543 154.436797 35.6001543 154.436797 34.1197822 142.876588 34.1197822"></polygon>
                <polygon id="Fill-28" fill="#000000" points="157.377495 52.3414519 159.112486 52.3414519 159.112486 43.6639383 167.840753 43.6639383 167.840753 42.1839927 159.112486 42.1839927 159.112486 35.6001543 168.937278 35.6001543 168.937278 34.1197822 157.377495 34.1197822"></polygon>
                <polygon id="Fill-30" fill="#000000" points="171.878403 52.3414519 173.61382 52.3414519 173.61382 34.1197822 171.878403 34.1197822"></polygon>
                <path d="M107.869265,45.3967967 C107.869265,48.089274 106.954428,49.3337931 104.110118,49.3337931 C100.884093,49.3337931 100.376561,47.3778766 100.376561,45.3967967 L100.376561,34.1197822 L96.3883848,34.1197822 L96.3883848,45.3967967 C96.3883848,50.3249728 99.2331216,52.6864882 104.110118,52.6864882 C108.961525,52.6864882 111.857441,50.2998094 111.857441,45.3967967 L111.857441,34.1197822 L107.869265,34.1197822 L107.869265,45.3967967 Z" id="Fill-32" fill="#000000"></path>
                <path d="M229.53448,15.7296034 C224.988019,14.5614274 224.123936,14.383578 224.123936,12.9859465 C224.123936,11.4620717 225.597057,10.9285236 226.867593,10.9285236 C228.771903,10.9285236 230.322221,11.4876615 230.44889,13.6721806 L234.309544,13.6721806 C234.309544,9.48099183 230.829326,7.83002087 227.044589,7.83002087 C223.768237,7.83002087 220.263282,9.60766152 220.263282,13.3164819 C220.263282,16.7195036 222.980923,17.761863 225.6734,18.4728339 C228.340714,19.1838049 231.058355,19.5143403 231.058355,21.4706833 C231.058355,23.3242405 228.924162,23.7311189 227.52781,23.7311189 C225.393191,23.7311189 223.514471,22.7902659 223.514471,20.3784238 L219.654244,20.3784238 C219.603064,24.8481152 223.361358,26.8296216 227.374698,26.8296216 C232.302874,26.8296216 234.919435,24.340157 234.919435,21.0134782 C234.919435,16.8977795 230.854489,16.0592858 229.53448,15.7296034" id="Fill-17" fill="#000000"></path>
            </g>
        </g>
    </g>
</svg>