<?xml version="1.0" encoding="UTF-8" standalone="no"?>
<svg
   xmlns:dc="http://purl.org/dc/elements/1.1/"
   xmlns:cc="http://creativecommons.org/ns#"
   xmlns:rdf="http://www.w3.org/1999/02/22-rdf-syntax-ns#"
   xmlns:svg="http://www.w3.org/2000/svg"
   xmlns="http://www.w3.org/2000/svg"
   viewBox="0 0 337.33334 337.33334"
   height="337.33334"
   width="337.33334"
   xml:space="preserve"
   id="svg2"
   version="1.1"><metadata
     id="metadata8"><rdf:RDF><cc:Work
         rdf:about=""><dc:format>image/svg+xml</dc:format><dc:type
           rdf:resource="http://purl.org/dc/dcmitype/StillImage" /><dc:title></dc:title></cc:Work></rdf:RDF></metadata><defs
     id="defs6" /><g
     transform="matrix(1.3333333,0,0,-1.3333333,0,337.33333)"
     id="g10"><g
       transform="scale(0.1)"
       id="g12"><path
         id="path14"
         style="fill:none;stroke:#050301;stroke-width:20;stroke-linecap:butt;stroke-linejoin:miter;stroke-miterlimit:4;stroke-dasharray:none;stroke-opacity:1"
         d="m 2520,1265 c 0,693.11 -561.87,1255 -1255,1255 C 571.887,2520 10,1958.11 10,1265 10,571.871 571.887,10 1265,10 c 693.13,0 1255,561.871 1255,1255 z" /><path
         id="path16"
         style="fill:#ec2629;fill-opacity:1;fill-rule:nonzero;stroke:none"
         d="m 333.578,724.91 -17.527,34.09 -88.688,-45.578 -15.3,29.769 88.683,45.598 -17.527,34.102 25.613,13.16 50.356,-97.973 -25.61,-13.168" /><path
         id="path18"
         style="fill:#ec2629;fill-opacity:1;fill-rule:nonzero;stroke:none"
         d="m 359.688,737.172 18.371,-27.992 -39.133,-25.668 24.187,-36.871 39.133,25.668 18.367,-27.989 -107.461,-70.5 -18.355,27.989 44.234,29.031 -24.187,36.871 -44.242,-29.031 -18.375,27.98 107.461,70.512" /><path
         id="path20"
         style="fill:#ec2629;fill-opacity:1;fill-rule:nonzero;stroke:none"
         d="m 426.035,637.449 65.141,-79.027 -20.696,-17.07 -43.847,53.199 -17.363,-14.313 40.066,-48.609 -20,-16.481 -40.066,48.614 -18.895,-15.582 44.992,-54.59 -22.23,-18.301 -66.282,80.41 99.18,81.75" /><path
         id="path22"
         style="fill:#ec2629;fill-opacity:1;fill-rule:nonzero;stroke:none"
         d="m 532.289,516.34 24.852,-22.43 -66.805,-74.039 44.5,-40.141 -19.293,-21.39 -69.359,62.59 86.105,95.41" /><path
         id="path24"
         style="fill:#ec2629;fill-opacity:1;fill-rule:nonzero;stroke:none"
         d="M 608.141,449.82 634.527,429.219 555.438,327.93 529.055,348.539 608.141,449.82" /><path
         id="path26"
         style="fill:#ec2629;fill-opacity:1;fill-rule:nonzero;stroke:none"
         d="m 644.285,359.82 21.633,-14.261 c 4.812,-3.18 13.105,-4.977 18.164,2.679 5.152,7.813 1.273,14.043 -4.586,17.903 l -21.637,14.269 z m -28.152,-42.679 22.398,-14.762 c 8.864,-5.84 17.114,-6.75 22.953,2.109 6.243,9.473 1.715,16.981 -6.699,22.543 l -22.39,14.758 z m 28.051,103.339 50.179,-33.101 c 18.684,-11.879 35.793,-30.078 21.035,-52.457 -6.343,-9.633 -17.207,-13.66 -28.394,-12.32 9.234,-10.84 9.766,-25.411 1.734,-37.582 -16.843,-25.559 -40.785,-20.981 -63.773,-5.821 l -51.535,33.992 70.754,107.289" /><path
         id="path28"
         style="fill:#ec2629;fill-opacity:1;fill-rule:nonzero;stroke:none"
         d="m 762.887,255.469 -21.93,-42.559 -29.766,15.328 21.93,42.563 -4.676,93.121 33.762,-17.391 -1.184,-58.101 46.629,34.691 33.766,-17.402 -78.531,-50.25" /><path
         id="path30"
         style="fill:#ec2629;fill-opacity:1;fill-rule:nonzero;stroke:none"
         d="m 829.98,224.91 27.063,-10.871 3.57,47.063 -0.34,0.128 z m 28.047,75.641 31.563,-12.68 -3.277,-137.172 -32.407,13.012 1.231,24.34 -41.59,16.687 -16.106,-18.359 -31.906,12.801 92.492,101.371" /><path
         id="path32"
         style="fill:#ec2629;fill-opacity:1;fill-rule:nonzero;stroke:none"
         d="m 930.027,271.961 33.125,-9.223 21.758,-88.269 0.356,-0.098 21.234,76.301 30.35,-8.442 -34.46,-123.808 -33.128,9.219 -21.524,89.14 -0.343,0.09 -21.481,-77.16 -30.348,8.437 34.461,123.813" /><path
         id="path34"
         style="fill:#ec2629;fill-opacity:1;fill-rule:nonzero;stroke:none"
         d="m 1122.13,171.77 27.9,-3.18 c 10.02,-1.141 15.99,3.621 17.09,13.281 1.08,9.481 -5.95,14.617 -15.24,15.668 l -26.48,3.02 z m -26.96,59.218 65.1,-7.406 c 22.53,-2.551 43.55,-15.273 40.63,-41.023 -1.56,-13.77 -9.67,-26.079 -23.67,-29.739 l -0.04,-0.359 c 13.22,-4.762 15.44,-20.41 15.12,-32.691 -0.25,-5.411 -1.85,-24.2583 2.09,-29.4184 l -32.91,3.75 c -2.37,4.6093 -1.49,17.1994 -1.44,20.8204 0.58,12.969 -0.07,26.457 -15.63,28.219 l -25.21,2.871 -5.29,-46.5003 -33.26,3.7773 14.51,127.699" /><path
         id="path36"
         style="fill:#ec2629;fill-opacity:1;fill-rule:nonzero;stroke:none"
         d="m 1210.7,218.539 102.43,-0.519 -0.13,-26.829 -68.95,0.348 -0.11,-22.508 62.99,-0.312 -0.12,-25.918 -63,0.32 -0.13,-24.492 70.73,-0.348 -0.13,-28.8005 -104.23,0.5195 0.65,128.539" /><path
         id="path38"
         style="fill:#ec2629;fill-opacity:1;fill-rule:nonzero;stroke:none"
         d="m 1363.46,122.48 15.74,1.68 c 25.19,3.231 34.16,14.141 31.43,39.75 -2.49,23.262 -16.22,33.199 -38.95,30.77 L 1355.94,193 Z m -43.87,95.61 54.96,5.871 c 39.18,4.16 65.18,-17.129 69.39,-56.68 4.48,-41.902 -16.94,-66.992 -55.77,-71.1326 l -54.95,-5.8593 -13.63,127.8009" /><path
         id="path40"
         style="fill:#ec2629;fill-opacity:1;fill-rule:nonzero;stroke:none"
         d="m 1584.73,219.859 c -5.21,12.012 -16.76,15.891 -30.28,12.121 -20.81,-5.8 -23.67,-26.39 -18.55,-44.769 5.13,-18.391 18.23,-34.539 39.02,-28.742 15.1,4.211 21.35,15.293 18.61,29.84 l 32.24,8.98 c 7.16,-32.391 -11.02,-57.629 -42.41,-66.379 -37.46,-10.422 -69.71,11.41 -79.71,47.301 -10,35.898 6.31,71.269 43.76,81.711 26.7,7.437 60.4,-1.492 69.57,-31.063 l -32.25,-9" /><path
         id="path42"
         style="fill:#ec2629;fill-opacity:1;fill-rule:nonzero;stroke:none"
         d="m 1659.67,235.48 26.01,10.559 c 9.35,3.781 12.33,10.82 8.68,19.82 -3.58,8.852 -12.22,10 -20.89,6.493 l -24.69,-10 z m -51.99,39.149 60.72,24.609 c 21.01,8.512 45.55,7.391 55.29,-16.629 5.21,-12.839 3.97,-27.519 -6.58,-37.429 l 0.14,-0.34 c 13.88,2.14 23.31,-10.551 28.9,-21.488 2.37,-4.872 9.97,-22.192 15.9,-24.832 l -30.69,-12.45 c -4.29,2.93 -9.52,14.399 -11.22,17.602 -5.7,11.68 -12.71,23.207 -27.22,17.328 l -23.52,-9.539 17.58,-43.359 -31.03,-12.59 -48.27,119.117" /><path
         id="path44"
         style="fill:#ec2629;fill-opacity:1;fill-rule:nonzero;stroke:none"
         d="m 1715.12,318.91 90.25,48.41 12.69,-23.64 -60.76,-32.59 10.64,-19.82 55.52,29.769 12.24,-22.84 -55.5,-29.769 11.57,-21.578 62.33,33.449 13.61,-25.391 -91.83,-49.269 -60.76,113.269" /><path
         id="path46"
         style="fill:#ec2629;fill-opacity:1;fill-rule:nonzero;stroke:none"
         d="m 1881.46,315.539 c 9.07,-12.117 19.54,-10.891 31.31,-2.918 8.36,5.66 14.98,14.488 9.62,22.391 -6.35,9.379 -22.76,0.879 -41.04,-5.203 -18.14,-5.969 -38.72,-9.918 -51.94,9.601 -15.76,23.25 1.49,48.192 21.46,61.711 21.16,14.348 49.43,18.488 65.84,-5.402 l -27.73,-18.778 c -6.11,9.989 -17.32,6.969 -25.82,1.2 -5.95,-4.032 -11.99,-11.153 -7.24,-18.161 5.54,-8.199 21.9,0.7 40.33,6.891 18.27,6.07 38.62,9.418 51.64,-9.801 18.28,-26.98 1.17,-51.172 -22.22,-67.019 -24.44,-16.551 -53.31,-20.473 -71.93,6.711 l 27.72,18.777" /><path
         id="path48"
         style="fill:#ec2629;fill-opacity:1;fill-rule:nonzero;stroke:none"
         d="m 1994.6,451.371 c -9.77,8.711 -21.87,7.399 -32.57,-1.68 -16.47,-14 -10.44,-33.902 1.92,-48.429 12.36,-14.543 31.01,-23.731 47.48,-9.762 11.93,10.148 12.96,22.832 4.37,34.898 l 25.53,21.684 c 20.06,-26.434 14.12,-56.973 -10.72,-78.062 -29.62,-25.161 -68.06,-18.84 -92.18,9.558 -24.11,28.41 -24.14,67.352 5.5,92.524 21.13,17.949 55.46,23.949 76.19,0.937 l -25.52,-21.668" /><path
         id="path50"
         style="fill:#ec2629;fill-opacity:1;fill-rule:nonzero;stroke:none"
         d="m 1992.71,511.102 70.3,74.507 19.5,-18.41 -47.3,-50.148 16.37,-15.442 43.22,45.832 18.85,-17.793 -43.22,-45.828 17.8,-16.789 48.55,51.457 20.95,-19.758 -71.52,-75.82 -93.5,88.192" /><path
         id="path52"
         style="fill:#ec2629;fill-opacity:1;fill-rule:nonzero;stroke:none"
         d="m 2067.35,590.469 20.73,27.429 90.09,-12.089 0.22,0.281 -63.2,47.738 18.98,25.133 102.57,-77.441 -20.72,-27.438 -90.82,12.637 -0.22,-0.278 63.93,-48.281 -18.99,-25.129 -102.57,77.438" /><path
         id="path54"
         style="fill:#ec2629;fill-opacity:1;fill-rule:nonzero;stroke:none"
         d="m 2215.95,759.398 -19.7,-32.898 85.55,-51.23 -17.21,-28.719 -85.55,51.238 -19.69,-32.891 -24.7,14.801 56.59,94.512 24.71,-14.813" /><path
         id="path56"
         style="fill:none;stroke:#050301;stroke-width:20;stroke-linecap:butt;stroke-linejoin:miter;stroke-miterlimit:4;stroke-dasharray:none;stroke-opacity:1"
         d="m 2230,1265 c 0,532.95 -436.51,965 -975,965 -538.477,0 -975,-432.05 -975,-965 0,-532.961 436.523,-965 975,-965 538.49,0 975,432.039 975,965 z" /><path
         id="path58"
         style="fill:#ec2629;fill-opacity:1;fill-rule:nonzero;stroke:none"
         d="m 1505,656.309 c -339.65,0 -615,272.519 -615,608.691 0,336.17 275.35,608.69 615,608.69 225.64,0 422.79,-120.35 529.79,-299.66 -123.93,306.08 -426.25,522.36 -779.79,522.36 -463.914,0 -840,-372.23 -840,-831.39 0,-459.16 376.086,-831.391 840,-831.391 353.54,0 655.85,216.282 779.79,522.36 -107,-179.309 -304.15,-299.66 -529.79,-299.66" /><path
         id="path60"
         style="fill:#161315;fill-opacity:1;fill-rule:nonzero;stroke:none"
         d="m 200,1235 c 0,38.66 -31.34,70 -70,70 -38.6602,0 -70,-31.34 -70,-70 0,-38.66 31.3398,-70 70,-70 38.66,0 70,31.34 70,70" /><path
         id="path62"
         style="fill:#161315;fill-opacity:1;fill-rule:nonzero;stroke:none"
         d="m 2450,1235 c 0,38.66 -31.34,70 -70,70 -38.66,0 -70,-31.34 -70,-70 0,-38.66 31.34,-70 70,-70 38.66,0 70,31.34 70,70" /></g></g></svg>