<?xml version="1.0" encoding="UTF-8" standalone="no"?>
<!-- Created with Inkscape (http://www.inkscape.org/) -->

<svg
   version="1.1"
   id="svg1"
   width="337.33334"
   height="337.33334"
   viewBox="0 0 337.33334 337.33334"
   sodipodi:docname="Red_Crescent_LIBYA.svg"
   inkscape:version="1.3.2 (091e20e, 2023-11-25, custom)"
   xmlns:inkscape="http://www.inkscape.org/namespaces/inkscape"
   xmlns:sodipodi="http://sodipodi.sourceforge.net/DTD/sodipodi-0.dtd"
   xmlns="http://www.w3.org/2000/svg"
   xmlns:svg="http://www.w3.org/2000/svg"
   xmlns:rdf="http://www.w3.org/1999/02/22-rdf-syntax-ns#"
   xmlns:cc="http://creativecommons.org/ns#"
   xmlns:dc="http://purl.org/dc/elements/1.1/">
  <title
     id="title28">Libyan Red Crescent</title>
  <defs
     id="defs1">
    <clipPath
       clipPathUnits="userSpaceOnUse"
       id="clipPath3">
      <path
         d="M 0,253 H 252.96 V 0.06 L 0,0.06 Z"
         transform="translate(-252.00001,-126.5)"
         id="path3" />
    </clipPath>
  </defs>
  <sodipodi:namedview
     id="namedview1"
     pagecolor="#ffffff"
     bordercolor="#666666"
     borderopacity="1.0"
     inkscape:showpageshadow="2"
     inkscape:pageopacity="0.0"
     inkscape:pagecheckerboard="0"
     inkscape:deskcolor="#d1d1d1"
     inkscape:zoom="2.4337944"
     inkscape:cx="168.87211"
     inkscape:cy="168.66667"
     inkscape:window-width="1920"
     inkscape:window-height="1017"
     inkscape:window-x="-8"
     inkscape:window-y="-8"
     inkscape:window-maximized="1"
     inkscape:current-layer="g1">
    <inkscape:page
       x="0"
       y="0"
       inkscape:label="Red_Crescent LIBYAN.eps"
       id="page1"
       width="337.33334"
       height="337.33334"
       margin="0"
       bleed="0" />
  </sodipodi:namedview>
  <g
     id="g1"
     inkscape:groupmode="layer"
     inkscape:label="Red_Crescent LIBYAN.eps">
    <g
       id="group-MC1">
      <path
         id="path2"
         d="M 0,0 C 0,69.312 -56.187,125.5 -125.5,125.5 -194.811,125.5 -251,69.312 -251,0 c 0,-69.313 56.189,-125.5 125.5,-125.5 C -56.187,-125.5 0,-69.313 0,0 Z"
         style="fill:none;stroke:#231f20;stroke-width:2;stroke-linecap:butt;stroke-linejoin:miter;stroke-miterlimit:4;stroke-dasharray:none;stroke-opacity:1"
         transform="matrix(1.3333333,0,0,-1.3333333,336,168.66667)"
         clip-path="url(#clipPath3)" />
      <path
         id="path4"
         d="m 0,0 -1.753,3.409 -8.869,-4.559 -1.53,2.978 8.869,4.559 -1.753,3.411 2.561,1.316 L 2.561,1.316 0,0"
         style="fill:#ee2528;fill-opacity:1;fill-rule:nonzero;stroke:none"
         transform="matrix(1.3333333,0,0,-1.3333333,44.477333,240.67867)" />
      <path
         id="path5"
         d="m 0,0 1.837,-2.799 -3.913,-2.567 2.419,-3.686 3.913,2.567 1.837,-2.8 -10.746,-7.05 -1.836,2.799 4.424,2.903 -2.419,3.688 -4.425,-2.903 -1.837,2.798 L 0,0"
         style="fill:#ee2528;fill-opacity:1;fill-rule:nonzero;stroke:none"
         transform="matrix(1.3333333,0,0,-1.3333333,47.958667,239.04533)" />
      <path
         id="path6"
         d="m 0,0 6.514,-7.904 -2.07,-1.707 -4.384,5.321 -1.737,-1.431 4.007,-4.861 -2,-1.649 -4.007,4.861 -1.889,-1.557 4.499,-5.459 -2.223,-1.83 -6.628,8.041 L 0,0"
         style="fill:#ee2528;fill-opacity:1;fill-rule:nonzero;stroke:none"
         transform="matrix(1.3333333,0,0,-1.3333333,56.805333,252.34)" />
      <path
         id="path7"
         d="M 0,0 2.485,-2.243 -4.195,-9.646 0.254,-13.661 -1.675,-15.8 -8.611,-9.541 0,0"
         style="fill:#ee2528;fill-opacity:1;fill-rule:nonzero;stroke:none"
         transform="matrix(1.3333333,0,0,-1.3333333,70.972,268.48933)" />
      <path
         id="path8"
         d="M 0,0 2.639,-2.061 -5.27,-12.19 -7.909,-10.129 0,0"
         style="fill:#ee2528;fill-opacity:1;fill-rule:nonzero;stroke:none"
         transform="matrix(1.3333333,0,0,-1.3333333,81.085333,277.35733)" />
      <path
         id="path9"
         d="m 0,0 2.163,-1.427 c 0.482,-0.317 1.311,-0.498 1.816,0.269 0.516,0.781 0.128,1.403 -0.458,1.79 L 1.357,2.059 Z m -2.816,-4.269 2.24,-1.475 c 0.887,-0.584 1.712,-0.675 2.296,0.211 0.624,0.946 0.171,1.698 -0.67,2.254 l -2.24,1.475 z M -0.01,6.065 5.008,2.756 C 6.876,1.567 8.587,-0.252 7.111,-2.49 6.476,-3.453 5.391,-3.857 4.271,-3.723 5.195,-4.807 5.248,-6.264 4.445,-7.481 2.761,-10.036 0.367,-9.578 -1.932,-8.063 l -5.154,3.4 7.076,10.728"
         style="fill:#ee2528;fill-opacity:1;fill-rule:nonzero;stroke:none"
         transform="matrix(1.3333333,0,0,-1.3333333,85.905333,289.35733)" />
      <path
         id="path10"
         d="m 0,0 -2.193,-4.255 -2.976,1.533 2.193,4.256 -0.468,9.311 L -0.068,9.107 -0.186,3.296 4.477,6.765 7.853,5.026 0,0"
         style="fill:#ee2528;fill-opacity:1;fill-rule:nonzero;stroke:none"
         transform="matrix(1.3333333,0,0,-1.3333333,101.71867,303.272)" />
      <path
         id="path11"
         d="M 0,0 2.706,-1.087 3.063,3.619 3.029,3.632 Z M 2.805,7.563 5.961,6.296 5.633,-7.421 l -3.24,1.301 0.123,2.433 -4.16,1.669 -1.61,-1.836 -3.19,1.28 9.249,10.137"
         style="fill:#ee2528;fill-opacity:1;fill-rule:nonzero;stroke:none"
         transform="matrix(1.3333333,0,0,-1.3333333,110.664,307.34533)" />
      <path
         id="path12"
         d="m 0,0 3.313,-0.922 2.175,-8.827 0.035,-0.01 2.125,7.63 3.035,-0.845 -3.447,-12.381 -3.313,0.922 -2.152,8.914 -0.035,0.009 -2.148,-7.716 -3.034,0.845 L 0,0"
         style="fill:#ee2528;fill-opacity:1;fill-rule:nonzero;stroke:none"
         transform="matrix(1.3333333,0,0,-1.3333333,124.004,301.072)" />
      <path
         id="path13"
         d="M 0,0 2.79,-0.317 C 3.791,-0.431 4.389,0.044 4.499,1.01 4.606,1.958 3.904,2.473 2.974,2.577 L 0.327,2.879 Z M -2.696,5.922 3.813,5.182 C 6.067,4.926 8.169,3.655 7.876,1.079 7.72,-0.298 6.91,-1.528 5.509,-1.894 L 5.505,-1.93 C 6.828,-2.407 7.049,-3.971 7.018,-5.2 6.993,-5.741 6.833,-7.626 7.227,-8.141 l -3.291,0.375 c -0.237,0.461 -0.149,1.719 -0.144,2.082 0.057,1.297 -0.007,2.645 -1.563,2.822 l -2.522,0.286 -0.528,-4.649 -3.327,0.378 1.452,12.769"
         style="fill:#ee2528;fill-opacity:1;fill-rule:nonzero;stroke:none"
         transform="matrix(1.3333333,0,0,-1.3333333,149.61867,314.432)" />
      <path
         id="path14"
         d="M 0,0 10.242,-0.052 10.229,-2.734 3.335,-2.699 3.324,-4.95 9.623,-4.981 9.61,-7.573 3.31,-7.541 3.298,-9.99 l 7.073,-0.035 -0.014,-2.88 -10.422,0.052 L 0,0"
         style="fill:#ee2528;fill-opacity:1;fill-rule:nonzero;stroke:none"
         transform="matrix(1.3333333,0,0,-1.3333333,161.428,308.196)" />
      <path
         id="path15"
         d="M 0,0 1.574,0.168 C 4.094,0.491 4.99,1.582 4.717,4.142 4.469,6.468 3.096,7.462 0.822,7.219 L -0.752,7.051 Z M -4.387,9.56 1.11,10.147 C 5.028,10.564 7.627,8.434 8.048,4.479 8.496,0.29 6.355,-2.219 2.472,-2.633 L -3.023,-3.219 -4.387,9.56"
         style="fill:#ee2528;fill-opacity:1;fill-rule:nonzero;stroke:none"
         transform="matrix(1.3333333,0,0,-1.3333333,181.79467,321.00267)" />
      <path
         id="path16"
         d="m 0,0 c -0.52,1.2 -1.676,1.589 -3.027,1.212 -2.081,-0.58 -2.367,-2.64 -1.856,-4.478 0.513,-1.839 1.824,-3.454 3.903,-2.874 1.509,0.421 2.134,1.529 1.86,2.985 l 3.225,0.898 c 0.715,-3.239 -1.103,-5.764 -4.242,-6.639 -3.746,-1.042 -6.97,1.142 -7.97,4.731 -1,3.59 0.631,7.127 4.376,8.171 2.67,0.744 6.04,-0.15 6.957,-3.107 L 0,0"
         style="fill:#ee2528;fill-opacity:1;fill-rule:nonzero;stroke:none"
         transform="matrix(1.3333333,0,0,-1.3333333,211.29733,308.01867)" />
      <path
         id="path17"
         d="m 0,0 2.602,1.056 c 0.934,0.379 1.232,1.082 0.867,1.982 -0.357,0.885 -1.222,1 -2.089,0.65 l -2.469,-1 z M -5.199,3.915 0.873,6.376 C 2.975,7.228 5.428,7.116 6.403,4.713 6.923,3.429 6.799,1.961 5.744,0.97 L 5.758,0.937 c 1.389,0.214 2.331,-1.056 2.891,-2.15 0.236,-0.487 0.997,-2.218 1.59,-2.483 L 7.169,-4.94 c -0.428,0.293 -0.952,1.439 -1.122,1.76 -0.569,1.168 -1.27,2.321 -2.722,1.732 L 0.974,-2.401 2.732,-6.738 -0.372,-7.997 -5.199,3.915"
         style="fill:#ee2528;fill-opacity:1;fill-rule:nonzero;stroke:none"
         transform="matrix(1.3333333,0,0,-1.3333333,221.28933,305.93733)" />
      <path
         id="path18"
         d="M 0,0 9.026,4.842 10.294,2.478 4.219,-0.781 5.282,-2.764 10.834,0.214 12.059,-2.07 6.508,-5.048 7.665,-7.206 13.899,-3.86 15.26,-6.399 6.076,-11.326 0,0"
         style="fill:#ee2528;fill-opacity:1;fill-rule:nonzero;stroke:none"
         transform="matrix(1.3333333,0,0,-1.3333333,228.68267,294.81333)" />
      <path
         id="path19"
         d="M 0,0 C 0.906,-1.212 1.953,-1.089 3.131,-0.292 3.967,0.275 4.629,1.157 4.093,1.947 3.457,2.886 1.816,2.035 -0.012,1.428 -1.825,0.83 -3.884,0.436 -5.205,2.388 c -1.576,2.324 0.148,4.818 2.145,6.171 2.117,1.434 4.944,1.848 6.584,-0.54 L 0.752,6.141 C 0.141,7.14 -0.98,6.837 -1.83,6.261 -2.426,5.858 -3.029,5.146 -2.555,4.445 -2,3.624 -0.364,4.515 1.479,5.133 3.306,5.74 5.341,6.075 6.643,4.154 8.471,1.455 6.76,-0.964 4.421,-2.549 1.977,-4.204 -0.91,-4.595 -2.772,-1.878 L 0,0"
         style="fill:#ee2528;fill-opacity:1;fill-rule:nonzero;stroke:none"
         transform="matrix(1.3333333,0,0,-1.3333333,250.86267,295.26267)" />
      <path
         id="path20"
         d="m 0,0 c -0.976,0.871 -2.186,0.74 -3.256,-0.168 -1.648,-1.399 -1.044,-3.389 0.191,-4.843 1.236,-1.454 3.102,-2.373 4.748,-0.975 1.193,1.015 1.297,2.282 0.438,3.489 l 2.552,2.168 c 2.006,-2.642 1.412,-5.696 -1.072,-7.806 -2.962,-2.515 -6.806,-1.883 -9.218,0.957 -2.411,2.84 -2.414,6.735 0.55,9.251 2.113,1.795 5.547,2.396 7.619,0.094 L 0,0"
         style="fill:#ee2528;fill-opacity:1;fill-rule:nonzero;stroke:none"
         transform="matrix(1.3333333,0,0,-1.3333333,265.94667,277.152)" />
      <path
         id="path21"
         d="M 0,0 7.029,7.45 8.979,5.609 4.249,0.595 5.887,-0.949 10.209,3.634 12.094,1.854 7.771,-2.729 9.552,-4.407 14.406,0.738 16.502,-1.237 9.35,-8.819 0,0"
         style="fill:#ee2528;fill-opacity:1;fill-rule:nonzero;stroke:none"
         transform="matrix(1.3333333,0,0,-1.3333333,265.696,269.18667)" />
      <path
         id="path22"
         d="M 0,0 2.072,2.744 11.082,1.535 11.103,1.563 4.783,6.336 6.682,8.849 16.938,1.106 14.866,-1.638 5.784,-0.375 5.763,-0.403 12.155,-5.23 10.257,-7.744 0,0"
         style="fill:#ee2528;fill-opacity:1;fill-rule:nonzero;stroke:none"
         transform="matrix(1.3333333,0,0,-1.3333333,275.648,258.60533)" />
      <path
         id="path23"
         d="M 0,0 -1.969,-3.29 6.585,-8.413 4.864,-11.285 -3.69,-6.161 -5.66,-9.45 -8.13,-7.971 -2.47,1.48 0,0"
         style="fill:#ee2528;fill-opacity:1;fill-rule:nonzero;stroke:none"
         transform="matrix(1.3333333,0,0,-1.3333333,295.46,236.08)" />
      <path
         id="path24"
         d="M 0,0 C 0,53.295 -43.651,96.5 -97.5,96.5 -151.348,96.5 -195,53.295 -195,0 c 0,-53.296 43.652,-96.5 97.5,-96.5 C -43.651,-96.5 0,-53.296 0,0 Z"
         style="fill:none;stroke:#231f20;stroke-width:2;stroke-linecap:butt;stroke-linejoin:miter;stroke-miterlimit:4;stroke-dasharray:none;stroke-opacity:1"
         transform="matrix(1.3333333,0,0,-1.3333333,297.33333,168.66667)" />
      <path
         id="path25"
         d="m 0,0 c -33.965,0 -61.5,27.252 -61.5,60.87 0,33.617 27.535,60.869 61.5,60.869 22.565,0 42.28,-12.035 52.98,-29.966 -12.394,30.608 -42.625,52.236 -77.98,52.236 -46.392,0 -84,-37.223 -84,-83.139 0,-45.917 37.608,-83.139 84,-83.139 35.355,0 65.585,21.628 77.98,52.235 C 42.28,12.036 22.565,0 0,0"
         style="fill:#ee2528;fill-opacity:1;fill-rule:nonzero;stroke:none"
         transform="matrix(1.3333333,0,0,-1.3333333,200.66667,249.82667)" />
      <path
         id="path26"
         d="m 0,0 c 0,3.866 -3.134,7 -7,7 -3.866,0 -7,-3.134 -7,-7 0,-3.867 3.134,-7 7,-7 3.866,0 7,3.133 7,7"
         style="fill:#262629;fill-opacity:1;fill-rule:nonzero;stroke:none"
         transform="matrix(1.3333333,0,0,-1.3333333,26.666667,172.66667)" />
      <path
         id="path27"
         d="m 0,0 c 0,3.866 -3.133,7 -7,7 -3.866,0 -7,-3.134 -7,-7 0,-3.867 3.134,-7 7,-7 3.867,0 7,3.133 7,7"
         style="fill:#262629;fill-opacity:1;fill-rule:nonzero;stroke:none"
         transform="matrix(1.3333333,0,0,-1.3333333,326.66667,172.66667)" />
      <path
         id="path28"
         d="m 0,0 c -0.567,0.139 -1.057,0.102 -1.466,-0.107 -0.692,-0.357 -2.174,-1.441 -4.431,-3.282 -1.394,-1.146 -2.774,-2.07 -4.139,-2.768 l 0.229,-0.493 c 1.136,0.046 2.13,0.271 2.992,0.713 0.932,0.479 2.35,1.387 4.186,2.724 1.841,1.337 3.21,2.221 4.142,2.699 C 0.756,-0.219 0.235,-0.059 0,0 Z m -18.713,13.915 c 1.992,0.342 3.154,0.259 3.507,-0.229 0.441,-0.616 0.496,-1.059 0.136,-1.347 -0.424,-0.34 -1.046,-0.267 -1.875,0.238 -0.392,0.215 -0.967,0.645 -1.768,1.338 z m -1.984,-7.128 c -0.231,-0.185 -0.477,-0.22 -0.792,-0.109 -0.317,0.114 -0.566,0.277 -0.77,0.559 -0.499,0.694 -0.643,1.588 -0.416,2.62 0.169,0.783 0.521,1.55 1.011,2.308 1.595,-2.812 1.921,-4.614 0.967,-5.378 z M -6.181,1.972 c 1.236,1.12 2.21,1.871 2.911,2.277 l 0.165,0.094 0.072,-0.544 2.411,-0.186 c -0.435,0.595 -0.583,1.282 -0.437,1.991 0.143,0.708 0.464,1.26 0.985,1.599 -0.545,0.457 -1.35,0.542 -2.43,0.285 C -2.624,7.308 -2.703,7.113 -2.754,6.975 -3.507,6.5 -4.681,5.491 -6.304,3.999 -7.798,2.617 -8.978,1.676 -9.796,1.203 c -0.583,-0.338 -1.041,-0.273 -1.409,0.136 -0.068,0.065 -0.928,1.592 -0.928,1.592 0,0.002 0,0.003 -0.004,0.004 0,0 -1.974,3.247 -2.328,3.866 -0.357,0.619 -0.86,1.4 -1.135,1.805 -0.378,0.622 -0.832,1.309 -1.111,1.692 -0.258,0.363 -0.502,0.653 -0.689,0.866 1.374,-0.56 2.614,-0.378 3.737,0.52 0.422,0.34 0.789,0.713 1.076,1.105 0.442,0.594 0.551,1.045 0.327,1.355 -0.463,0.64 -1.688,0.995 -3.659,0.995 -1.69,-0.018 -2.991,-0.166 -3.896,-0.488 -0.222,0.287 -0.467,0.601 -0.722,0.941 l -0.441,0.595 c -0.079,0.105 -0.245,0.291 -0.245,0.291 l -2.529,3.035 -3.246,3.75 -0.921,0.957 -0.006,0.006 -2.574,2.679 0.008,0.01 -0.187,0.176 -0.703,0.663 -2.757,2.64 -0.926,0.795 -3.333,2.861 -1.564,1.419 c -0.429,0.306 -0.613,0.77 -0.508,1.405 0.134,1.087 0.788,2.888 1.952,5.38 0.998,2.235 1.886,3.937 2.636,5.132 -1.145,-0.307 -1.912,-0.649 -2.345,-1.05 -0.375,-0.479 -0.65,-0.86 -0.81,-1.117 -0.512,-0.755 -1.174,-1.573 -2.008,-2.436 -0.891,-0.892 -1.687,-1.58 -2.364,-2.016 0.691,2.385 0.427,5.001 -0.799,7.891 -0.82,1.961 -1.416,3.055 -1.745,3.287 -0.355,0.251 -0.779,0.041 -1.309,-0.63 -0.131,-0.145 -0.438,-0.638 -0.925,-1.409 -0.322,-0.516 -0.395,-1.038 -0.176,-1.564 0.31,-0.792 0.598,-1.266 0.85,-1.446 0.13,-0.088 0.33,-0.061 0.667,0.073 0.318,0.149 0.491,0.194 0.57,0.14 0.48,-0.339 1.01,-1.421 1.611,-3.262 0.576,-1.826 0.748,-2.957 0.496,-3.355 -0.441,-0.701 -1.739,-1.137 -3.875,-1.323 -1.582,-0.134 -3.096,-0.149 -4.555,0.035 l -0.082,-0.247 c 0.834,-0.42 1.686,-0.815 2.511,-1.194 0.983,-0.419 1.867,-0.641 2.623,-0.665 1.312,-0.012 2.887,0.803 4.714,2.487 0.856,0.782 2.121,2.154 3.764,4.07 -0.852,-1.359 -1.609,-2.853 -2.307,-4.488 -0.972,-2.252 -1.324,-3.862 -1.078,-4.811 0.141,-0.537 0.481,-0.982 0.966,-1.322 l 0.981,-0.691 c 6.245,-5.602 12.209,-11.273 17.337,-17.95 l 1.053,-1.46 c -2.692,-3.085 -3.446,-5.425 -2.279,-7.041 0.515,-0.719 1.241,-1.03 2.156,-0.905 0.711,0.124 1.395,0.43 2.052,0.955 0.423,0.338 0.709,0.686 0.89,1.035 0.116,0.212 0.245,0.682 0.45,1.372 0.399,-0.514 1.074,-1.223 1.798,-2.451 l 2.538,-4.464 0.44,-0.835 c 0.514,-0.986 1.298,-1.489 2.348,-1.58 0.851,-0.057 1.726,0.191 2.615,0.706 0.7,0.404 1.673,1.155 2.927,2.247 z m -44.958,51.751 0.2,-0.228 2.087,1.307 c -0.677,0.222 -1.184,0.669 -1.453,1.34 -0.295,0.684 -0.338,1.33 -0.086,1.953 -0.69,0.042 -1.394,-0.381 -2.104,-1.267 l 0.087,-0.702 c -0.492,-2.627 -0.826,-4.615 -0.993,-5.938 -0.372,-1.778 -0.95,-3.485 -1.728,-5.183 -0.221,-0.482 -0.454,-0.77 -0.695,-0.928 -0.473,-0.289 -1.303,-0.331 -2.5,-0.061 -0.981,0.221 -1.831,0.502 -2.546,0.868 -0.934,0.479 -1.645,1.064 -2.168,1.77 -0.654,0.866 -0.786,1.688 -0.426,2.472 0.242,0.531 0.599,0.944 1.066,1.299 0.216,0.172 0.688,0.462 1.454,0.882 l -0.174,0.432 c -2.355,-1.075 -3.899,-2.381 -4.606,-3.926 -0.523,-1.141 -0.45,-2.243 0.245,-3.316 0.563,-0.914 1.515,-1.718 2.803,-2.378 1.834,-0.942 3.469,-1.219 4.929,-0.84 1.457,0.378 2.57,1.402 3.334,3.075 0.835,1.825 1.719,4.346 2.666,7.521 0.208,0.676 0.39,1.3 0.608,1.848 z m -19.825,4.881 c -0.314,-0.748 -0.795,-2.591 -1.409,-5.545 -0.374,-1.83 -0.872,-3.483 -1.491,-4.952 l 0.472,-0.22 c 0.84,0.81 1.466,1.659 1.858,2.588 0.425,1.005 0.962,2.669 1.557,4.952 0.596,2.28 1.112,3.892 1.538,4.898 -0.76,-0.294 -1.256,-0.525 -1.471,-0.64 -0.518,-0.282 -0.87,-0.643 -1.054,-1.081 z m -9.096,-6.916 c -0.079,-0.271 -0.526,-0.274 -1.341,-0.015 l -0.755,0.24 c 0.595,0.194 1.201,0.532 1.859,0.941 0.218,-0.571 0.297,-0.951 0.237,-1.166 z m 4.487,10.592 c -0.362,0.619 -0.499,1.25 -0.339,1.908 -0.725,-0.094 -1.358,-0.63 -1.924,-1.599 0.047,-0.28 0.145,-0.605 0.307,-0.922 -0.114,-1.938 -0.254,-3.19 -0.419,-3.757 -0.317,-1.106 -0.803,-2.014 -1.407,-2.675 -1.114,4.51 -2.655,7.977 -4.595,10.394 -1.371,-0.89 -2.15,-1.614 -2.307,-2.152 -0.116,-0.405 -10e-4,-1.002 0.321,-1.753 0.323,-0.751 0.703,-1.197 1.11,-1.327 0.263,-0.084 0.645,0.148 1.145,0.666 1.249,-1.959 2.302,-4.359 3.183,-7.145 -1.241,-0.665 -2.309,-1.177 -3.261,-1.493 l -1.075,0.343 -1.335,-2.641 2.619,-0.835 c 1.195,-0.379 2.071,-0.542 2.656,-0.492 0.888,0.101 1.474,0.591 1.747,1.536 0.256,0.891 0.286,2.09 0.056,3.606 0.945,0.966 1.574,1.709 1.898,2.284 0.219,0.43 0.55,1.355 0.979,2.84 0.085,0.297 0.148,0.514 0.188,0.649 l 0.2,-0.182 1.882,1.669 c -0.701,0.105 -1.266,0.463 -1.629,1.078 z m -42.039,-6.717 c -0.333,-0.02 -0.994,0.361 -1.952,1.176 0.133,0.347 0.298,0.697 0.459,1.075 0.248,0.495 0.48,0.735 0.754,0.752 0.302,0.02 0.563,-0.302 0.782,-0.966 0.18,-0.497 0.266,-0.972 0.288,-1.394 0.023,-0.422 -0.088,-0.628 -0.331,-0.643 z m 27.205,2.623 c -1.444,0.218 -3.054,0.804 -4.829,1.758 -1.114,0.596 -1.961,0.924 -2.563,1.015 -0.966,0.146 -1.766,-0.103 -2.38,-0.751 -0.397,-0.424 -0.801,-1.132 -1.224,-2.18 l 1.867,-0.282 c 0.166,0.317 0.49,0.438 1.002,0.36 0.664,-0.1 1.526,-0.516 2.599,-1.218 -1.381,-0.418 -2.428,-0.659 -3.151,-0.749 -0.841,-0.099 -3.295,-0.058 -3.295,-0.058 l -3.83,0.269 v 0.016 l -1.177,0.019 -4.236,0.072 -2.043,0.006 c -0.637,-0.041 -1.264,0.259 -1.906,0.868 -0.487,0.562 -0.977,1.152 -1.496,1.74 -0.52,0.588 -0.96,0.871 -1.326,0.848 -0.699,-0.045 -1.259,-0.39 -1.71,-1.069 -0.364,-0.617 -0.696,-1.257 -1.059,-1.874 -0.817,-1.256 -2.82,-1.373 -2.82,-1.373 l -3.805,-0.548 -0.002,0.012 -0.232,-0.045 c -3.455,-0.665 -6.936,-1.292 -10.305,-2.326 l -0.217,-0.054 0.003,-0.011 -3.595,-1.044 -5.137,-1.883 c 0,0 -1.738,-0.533 -2.034,-0.545 -0.483,-0.036 -1.052,0.226 -1.7,0.758 l -0.703,-2.836 c 0.83,-0.818 1.697,-1.157 2.613,-1.046 -0.191,-0.916 -0.366,-1.793 -0.53,-2.696 -0.246,-1.185 -0.535,-2.023 -0.857,-2.538 -0.73,-1.221 -1.619,-2.056 -2.597,-2.502 -0.278,-0.129 -0.719,-0.268 -1.349,-0.432 l -0.07,-0.399 c 1.851,-0.23 3.27,-0.134 4.278,0.324 1.426,0.652 2.23,1.938 2.465,3.886 0.145,1.354 0.019,2.891 -0.391,4.635 l 1.123,0.513 4.544,1.534 0.001,-10e-4 4.85,1.502 4.957,1.256 5.095,1.011 4.998,0.904 c 0.454,0.088 0.789,0.203 0.971,0.358 0.552,0.515 0.867,0.876 1.007,1.11 1.602,-1.453 2.829,-2.166 3.68,-2.11 0.941,0.058 1.459,0.656 1.521,1.762 0.421,-0.454 1.072,-0.667 1.891,-0.615 h 1.163 l 5.721,-0.097 5.131,-0.171 c 0.438,-0.013 0.782,0.016 1.013,0.09 0.606,0.165 1.462,0.577 2.625,1.199 1.128,0.599 2.015,1.005 2.655,1.193 1.282,0.375 2.644,0.454 4.062,0.239 0.691,-0.106 1.268,-0.163 1.668,-0.168 l 0.642,2.212 c -0.178,0.026 -0.449,0.068 -0.784,0.09 -0.337,0.022 -0.61,0.035 -0.792,0.062 z M -164.85,46.7 c -1.248,1.952 -2.067,3.406 -2.512,4.396 -0.285,-0.798 -0.444,-1.347 -0.503,-1.595 -0.135,-0.6 -0.108,-1.114 0.087,-1.545 0.328,-0.737 1.339,-2.311 3.057,-4.709 1.07,-1.482 1.93,-2.947 2.579,-4.392 l 0.467,0.237 c -0.028,1.198 -0.23,2.25 -0.64,3.162 -0.443,0.99 -1.288,2.495 -2.535,4.446 z m -5.085,-3.933 c -1.077,1.291 -1.799,2.309 -2.191,3.041 l -0.092,0.169 0.516,0.087 0.145,2.545 c -0.557,-0.466 -1.207,-0.629 -1.879,-0.488 -0.673,0.141 -1.202,0.47 -1.529,1.016 -0.426,-0.58 -0.497,-1.431 -0.238,-2.568 0.171,-0.123 0.356,-0.204 0.486,-0.256 0.46,-0.789 1.433,-2.013 2.865,-3.703 1.327,-1.557 2.233,-2.789 2.69,-3.644 0.328,-0.61 0.273,-1.097 -0.112,-1.491 -0.081,-0.096 -2.616,-1.761 -2.616,-1.761 -0.685,-0.486 -1.894,0.382 -3.66,2.541 -0.963,1.177 -1.968,2.592 -2.998,4.229 -0.486,0.771 -1.137,1.627 -1.992,2.574 -0.441,-1.221 -0.625,-1.86 -0.611,-1.883 0.484,-0.77 1.283,-1.86 2.393,-3.271 1.125,-1.432 1.923,-2.524 2.41,-3.295 1.177,-1.867 1.233,-3.177 0.141,-3.953 0,0 -2.091,-1.542 -2.357,-1.654 -0.863,-0.46 -1.59,-0.419 -2.159,0.145 l -0.16,-0.097 c 0.473,-0.643 0.708,-1.018 0.694,-1.102 -0.056,-0.293 -0.328,-0.658 -0.819,-1.097 -0.077,-0.063 -2.231,-1.859 -2.476,-2.007 -0.838,-0.5 -1.561,-0.454 -2.156,0.08 l -0.156,-0.105 c 0.5,-0.616 0.754,-0.978 0.741,-1.063 -0.04,-0.296 -0.296,-0.676 -0.765,-1.139 -0.031,-0.029 -0.569,-0.514 -0.569,-0.514 -0.14,-0.126 -0.457,-0.455 -0.457,-0.455 l -2.737,-2.672 -0.542,-0.593 -0.288,-0.314 -2.622,-2.8 -0.646,-0.777 -0.147,-0.164 0.006,-0.007 -2.499,-2.92 -3.12,-4.022 -2.706,-3.702 -2.063,-3.075 c -0.644,-1.17 -0.84,-2.353 -0.557,-3.57 0.283,-1.215 0.921,-2.124 1.886,-2.713 1.014,-0.616 2.167,0.244 3.477,2.613 0.307,0.559 0.531,0.796 0.692,0.697 0.254,-0.157 0.123,-0.895 -0.394,-2.217 -0.363,-0.935 -0.731,-1.714 -1.102,-2.383 -2.233,-4.041 -4.394,-5.444 -6.489,-4.169 -0.485,0.295 -1.097,0.966 -1.803,2.03 l -0.316,-0.292 c 0.636,-1.134 1.104,-1.903 1.403,-2.308 0.514,-0.685 1.15,-1.258 1.912,-1.722 1.035,-0.631 2.197,-0.593 3.503,0.1 1.214,0.639 2.17,1.585 2.878,2.869 0.786,1.42 1.385,3.065 1.766,4.92 0.493,2.342 0.249,3.793 -0.718,4.382 -0.576,0.351 -1.222,0.297 -1.96,-0.147 -0.385,-0.25 -0.931,-0.737 -1.691,-1.503 -0.578,-0.543 -0.924,-0.778 -1.062,-0.694 -0.253,0.154 -0.199,0.903 0.464,2.098 0,0 0.859,1.323 1.322,2.026 0.462,0.702 3.03,3.925 3.03,3.925 l 0.005,-0.004 3.024,4.006 3.3,3.975 3.465,3.794 3.645,3.628 0.227,0.207 c 0.028,0.025 0.044,0.063 0.071,0.091 l 0.151,0.151 -0.018,0.02 c 0.395,0.527 0.504,1.284 0.319,2.317 0.983,-0.516 1.821,-0.459 2.541,0.195 l 0.825,0.747 0.014,-0.019 0.796,0.654 c 0.605,0.497 0.801,1.334 0.64,2.554 0.957,-0.566 1.797,-0.549 2.544,0.065 l 1.745,1.303 c 0.864,0.612 1.005,1.96 0.433,4.091 1.461,-1.501 2.741,-1.845 3.884,-1.035 l 1.822,1.178 c 0.927,0.56 1.394,1.394 1.466,2.503 0.045,0.899 -0.2,1.818 -0.699,2.746 -0.392,0.731 -1.114,1.751 -2.166,3.056 z m -4.392,-15.001 -2.133,-0.154 0.068,-1.936 -2.084,-0.113 0.142,-2.087 2.26,0.186 -0.172,1.708 2.052,0.265 z m -7.869,-5.039 0.206,-2.142 2.194,0.324 -0.23,2.121 z m -13.856,-28.366 -2.03,-1 0.775,-1.777 -1.861,-0.913 0.844,-1.928 2.029,1.111 -0.751,1.537 1.814,1.054 -0.82,1.916"
         style="fill:#ee2528;fill-opacity:1;fill-rule:nonzero;stroke:none"
         transform="matrix(1.3333333,0,0,-1.3333333,308.35333,100.56133)" />
    </g>
  </g>
  <metadata
     id="metadata28">
    <rdf:RDF>
      <cc:Work
         rdf:about="">
        <dc:title>Libyan Red Crescent</dc:title>
      </cc:Work>
    </rdf:RDF>
  </metadata>
</svg>
