<?xml version="1.0" encoding="UTF-8" standalone="no"?>
<svg
   xmlns:dc="http://purl.org/dc/elements/1.1/"
   xmlns:cc="http://creativecommons.org/ns#"
   xmlns:rdf="http://www.w3.org/1999/02/22-rdf-syntax-ns#"
   xmlns:svg="http://www.w3.org/2000/svg"
   xmlns="http://www.w3.org/2000/svg"
   viewBox="0 0 277.94666 341.39999"
   height="341.39999"
   width="277.94666"
   xml:space="preserve"
   id="svg2"
   version="1.1"><metadata
     id="metadata8"><rdf:RDF><cc:Work
         rdf:about=""><dc:format>image/svg+xml</dc:format><dc:type
           rdf:resource="http://purl.org/dc/dcmitype/StillImage" /><dc:title></dc:title></cc:Work></rdf:RDF></metadata><defs
     id="defs6" /><g
     transform="matrix(1.3333333,0,0,-1.3333333,0,341.4)"
     id="g10"><g
       transform="scale(0.1)"
       id="g12"><path
         id="path14"
         style="fill:#231f20;fill-opacity:1;fill-rule:nonzero;stroke:none"
         d="m 275.922,408.281 40.183,-29.429 c 21.809,-15.5 41.965,-9.993 57.348,10.988 13.172,18 13.738,40.172 -9.351,57.082 l -38.985,28.527 z M 201.695,306.93 240.676,278.391 c 29.387,-21.532 55.258,-8.231 66.89,7.668 25.254,34.48 8.356,56.07 -19.828,76.722 l -29.386,21.52 z m -45.156,-3.782 158.559,216.512 70.468,-51.609 c 29.993,-21.973 32.719,-39.629 32.032,-57.551 -1.071,-17.199 -9.313,-30.98 -12.387,-35.168 -19.766,-26.98 -42.242,-38.16 -74.742,-24.031 l -1.098,-1.512 c 28.25,-26.211 28.129,-54.687 6.383,-84.379 -40.625,-55.469 -85.066,-31.23 -109.649,-13.211 l -69.566,50.949" /><path
         id="path16"
         style="fill:#231f20;fill-opacity:1;fill-rule:nonzero;stroke:none"
         d="m 747.152,175.922 50.203,-10.551 c 24.008,-5.031 40.004,13.25 44.813,36.16 3.977,18.918 -1.055,42.02 -26.887,47.438 l -50.558,10.613 z m -6.105,-29.102 -25.359,-120.7692 -33.465,7.0273 55.144,262.6329 90.582,-19.02 c 46.559,-9.769 56.055,-45.953 49.18,-78.691 -6.5,-30.918 -28.559,-50.98 -60.625,-49.941 l -0.156,-0.731 C 845.551,136.262 854.324,123.781 845.074,70.6602 843.063,59.3086 838.07,17.4492 839.723,0 l -34.918,7.32813 c -5.641,20.18357 3.715,53.91017 8.144,89.44137 4.18,32.5585 -21.344,39.4295 -32.617,41.8005 l -39.285,8.25" /><path
         id="path18"
         style="fill:#231f20;fill-opacity:1;fill-rule:nonzero;stroke:none"
         d="m 1332.85,216.871 c -2.77,15 -7,29.66 -15.66,36.598 -8.67,6.902 -24.92,6.531 -31.84,5.082 -27.64,-5.813 -35.04,-24.832 -35.37,-28.699 -0.47,-3.141 -5.64,-11.063 3.83,-56.172 l 14.74,-70.211 c 13.53,-64.3792 36.24,-67.5784 62.06,-62.1487 10.17,2.1289 40.33,12.2578 29.92,63.6207 l 34.57,7.27 c 18.86,-82.6524 -39.7,-94.9415 -56.8,-98.5313 -32.73,-6.87111 -83.4,-15.23048 -104.78,86.6093 l -15.58,74.211 c -15.6,74.199 12.7,102.18 64.36,113.031 52.02,10.93 77.68,-11.801 85.1,-63.41 l -34.55,-7.25" /><path
         id="path20"
         style="fill:#231f20;fill-opacity:1;fill-rule:nonzero;stroke:none"
         d="m 1769.27,286.762 4.56,-6.34 c 21.27,-29.57 46.7,-25.473 64.51,-12.672 22.02,15.828 32.19,37.34 13.54,63.301 -34.71,48.289 -128.59,-27.449 -175.67,38.039 -27.77,38.629 -15.08,78.89 21.45,105.14 39.84,28.641 76.06,25.391 106.14,-20.269 l -28.97,-20.832 c -16.84,24.051 -35.67,34.332 -61.93,15.449 -16.59,-11.93 -27.41,-32.539 -10.5,-56.09 34.5,-47.968 127.3,29.274 176.98,-39.828 32.97,-45.89 11.92,-83.449 -24,-109.269 -63.84,-46.832 -99.21,2.379 -113.56,23.629 l 27.45,19.742" /><path
         id="path22"
         style="fill:#ee2628;fill-opacity:1;fill-rule:nonzero;stroke:none"
         d="m 1324.76,597.75 c -483.373,0 -875.229,391.859 -875.229,875.21 0,483.37 391.856,875.22 875.229,875.22 325.15,0 608.89,-177.33 759.8,-440.55 -167.74,384.24 -551,652.83 -997.06,652.83 C 486.895,2560.46 0,2073.57 0,1472.96 0,872.359 486.895,385.48 1087.5,385.48 c 446.06,0 829.33,268.579 997.07,652.82 C 1933.66,775.09 1649.92,597.75 1324.76,597.75" /></g></g></svg>