<?xml version="1.0" encoding="UTF-8" standalone="no"?>
<svg
   xmlns:dc="http://purl.org/dc/elements/1.1/"
   xmlns:cc="http://creativecommons.org/ns#"
   xmlns:rdf="http://www.w3.org/1999/02/22-rdf-syntax-ns#"
   xmlns:svg="http://www.w3.org/2000/svg"
   xmlns="http://www.w3.org/2000/svg"
   viewBox="0 0 310.77332 382.33334"
   height="382.33334"
   width="310.77332"
   xml:space="preserve"
   id="svg2"
   version="1.1"><metadata
     id="metadata8"><rdf:RDF><cc:Work
         rdf:about=""><dc:format>image/svg+xml</dc:format><dc:type
           rdf:resource="http://purl.org/dc/dcmitype/StillImage" /><dc:title></dc:title></cc:Work></rdf:RDF></metadata><defs
     id="defs6" /><g
     transform="matrix(1.3333333,0,0,-1.3333333,0,382.33333)"
     id="g10"><g
       transform="scale(0.1)"
       id="g12"><path
         id="path14"
         style="fill:#231f20;fill-opacity:1;fill-rule:nonzero;stroke:none"
         d="m 364.926,408.289 40.183,-29.437 c 21.809,-15.5 41.965,-9.993 57.348,11 13.172,18 13.738,40.16 -9.352,57.07 l -38.984,28.527 z m -74.227,-101.348 38.981,-28.55 c 29.386,-21.532 55.258,-8.231 66.894,7.668 25.254,34.48 8.352,56.07 -19.832,76.73 l -29.387,21.512 z m -45.156,-3.793 158.559,216.512 70.468,-51.609 c 29.993,-21.961 32.719,-39.629 32.032,-57.551 -1.071,-17.191 -9.313,-30.969 -12.387,-35.16 -19.766,-26.988 -42.242,-38.168 -74.742,-24.039 l -1.098,-1.512 c 28.25,-26.199 28.129,-54.687 6.383,-84.379 -40.625,-55.461 -85.067,-31.23 -109.649,-13.211 l -69.566,50.949" /><path
         id="path16"
         style="fill:#231f20;fill-opacity:1;fill-rule:nonzero;stroke:none"
         d="m 836.156,175.922 50.203,-10.543 c 24.008,-5.027 40.004,13.25 44.813,36.16 3.976,18.91 -1.055,42.012 -26.883,47.43 l -50.562,10.613 z m -6.105,-29.102 -25.36,-120.7692 -33.464,7.0273 55.144,262.6409 90.582,-19.028 c 46.559,-9.769 56.055,-45.941 49.18,-78.691 -6.5,-30.918 -28.559,-50.969 -60.625,-49.941 l -0.156,-0.727 c 29.203,-11.07 37.98,-23.551 28.726,-76.6718 C 932.066,59.3086 927.074,17.4609 928.727,0 l -34.918,7.33984 c -5.641,20.17186 3.714,53.89846 8.144,89.42966 4.18,32.5585 -21.344,39.4415 -32.617,41.8005 l -39.285,8.25" /><path
         id="path18"
         style="fill:#231f20;fill-opacity:1;fill-rule:nonzero;stroke:none"
         d="m 1421.86,216.871 c -2.77,15 -7,29.668 -15.66,36.598 -8.68,6.91 -24.93,6.531 -31.84,5.082 -27.64,-5.813 -35.04,-24.821 -35.37,-28.692 -0.47,-3.148 -5.65,-11.07 3.83,-56.168 l 14.74,-70.222 c 13.53,-64.3674 36.23,-67.5784 62.05,-62.1487 10.18,2.1289 40.34,12.2617 29.93,63.6287 l 34.57,7.262 c 18.86,-82.6407 -39.7,-94.9415 -56.8,-98.5196 -32.73,-6.88281 -83.4,-15.24218 -104.79,86.6096 l -15.57,74.211 c -15.6,74.199 12.7,102.168 64.36,113.019 52.02,10.93 77.68,-11.793 85.1,-63.402 l -34.55,-7.258" /><path
         id="path20"
         style="fill:#231f20;fill-opacity:1;fill-rule:nonzero;stroke:none"
         d="m 1858.28,286.762 4.56,-6.34 c 21.27,-29.57 46.7,-25.461 64.51,-12.672 22.02,15.84 32.19,37.34 13.53,63.301 -34.7,48.289 -128.58,-27.442 -175.66,38.051 -27.77,38.617 -15.08,78.878 21.45,105.128 39.84,28.649 76.06,25.391 106.14,-20.269 l -28.97,-20.832 c -16.84,24.051 -35.67,34.34 -61.93,15.449 -16.59,-11.93 -27.41,-32.539 -10.5,-56.09 34.5,-47.957 127.3,29.274 176.97,-39.828 32.98,-45.89 11.93,-83.449 -23.99,-109.269 -63.84,-46.821 -99.21,2.39 -113.56,23.64 l 27.45,19.731" /><path
         id="path22"
         style="fill:#ee2628;fill-opacity:1;fill-rule:nonzero;stroke:none"
         d="m 1413.76,597.762 c -483.369,0 -875.225,391.847 -875.225,875.198 0,483.38 391.856,875.22 875.225,875.22 325.16,0 608.9,-177.32 759.81,-440.54 -167.74,384.24 -551,652.83 -997.06,652.83 -600.612,0 -1087.5061,-486.9 -1087.5061,-1087.51 0,-600.589 486.8941,-1087.48 1087.5061,-1087.48 446.06,0 829.33,268.59 997.07,652.82 C 2022.67,775.09 1738.93,597.762 1413.76,597.762" /><path
         id="path24"
         style="fill:#231f20;fill-opacity:1;fill-rule:nonzero;stroke:none"
         d="m 231.789,2298.5 -24.113,-4.64 c 0.39,-11.2 0.078,-17.96 -0.957,-21.22 l -22.989,-4.3 -0.39,-23.63 c 10.351,1.59 18.242,3.12 23.418,3.91 0.664,9.73 0.976,16.95 0.976,21.66 5.411,1.04 13.536,2.83 24.133,5.1 0.242,5.42 0.379,13.29 -0.078,23.12 z m -94.875,-53.43 18.723,22.55 38.152,40.66 c 8.691,9.26 2.617,23.42 -17.742,42.53 -15.227,14.28 -27.238,20.38 -35.813,18.55 l 5.332,-30.41 c 7.247,2.13 12.364,1.57 15.372,-1.25 0.851,-0.8 1.222,-2.56 1.113,-4.81 0.117,-2.45 -0.41,-4.31 -1.348,-5.31 l -30.613,-32.27 c -0.969,-1.16 -6.277,-7.44 -6.277,-7.44 -8.379,-9.81 -13.821,-15.41 -16.34,-16.58 -4.426,-2.12 -12.7074,-1.05 -25.5003,3.34 7.0898,-10.79 9.6796,-19.18 7.9687,-24.45 -0.7226,-2.86 -6.1133,-10.26 -15.3711,-21.65 L 50.8594,2196.5 c -7.3438,-11.18 -4.8321,-25.55 7.9101,-42.55 2.8907,3.85 7.2657,8.36 13.4297,12.93 7.6055,5.68 12.7539,7.62 15.4571,5.85 3.2343,-4.18 1.8359,-14.34 -3.7696,-30.36 -4.6484,-12.95 -9.1992,-23.09 -13.9062,-30.26 -6.9727,-10.61 -14.8828,-17.31 -23.75,-20.09 -8.875,-2.79 -18.0742,-1.27 -27.4102,4.86 -5.1562,3.4 -11.51561,10.86 -18.8203,22.23 0.695313,-23.04 12.0703,-41.59 33.6914,-55.8 11.7969,-7.76 23.8477,-8.69 36.2031,-3.26 11.2969,4.88 21.5313,14.57 30.7695,28.61 11.113,16.91 16.066,36.23 15.234,58.54 -0.585,22.12 -7.402,38.51 -20.4683,49.16 l 3.3594,2.79 15.9959,19.26 c 1.524,1.85 1.231,6.56 -1.113,13.86 -1.856,4.65 -3.719,9.32 -5.586,13.99 15.937,-4.75 25.539,-5.15 28.828,-1.19 z m -76.4335,47.4 c -1.0547,10.23 -2.0625,17.76 -2.5977,23.1 -7.7851,-2.01 -16.6719,-4.43 -26.6719,-7.73 1.1133,-13.85 1.4649,-21.72 1.9336,-23.44 17.7735,5.3 26.8946,7.99 27.336,8.07 z m 101.4925,-132.45 -17.137,-6.81 2.5,-16 c -6.262,-2.05 -11.848,-4.12 -17.199,-6.35 l 2.929,-17.51 c 8.243,2.37 14.016,4.74 17.129,6.79 l -2.011,15.69 c 7.754,2.69 13.281,5.22 17.082,7.24 -0.852,8.36 -2.024,14.06 -3.293,16.95" /><path
         id="path26"
         style="fill:#231f20;fill-opacity:1;fill-rule:nonzero;stroke:none"
         d="m 548.066,2592.4 -14.578,29.85 c -2.062,4.23 -5.468,10.41 -9.914,18.72 -4.734,8.16 -8.144,14.34 -10.215,18.57 l 3.996,-0.34 c -0.351,9.32 -0.421,16.48 -0.812,21.19 -14.531,2.4 -25.508,4.56 -32.324,6.79 l -0.391,-23.42 c 5.313,-2.31 13.438,-11.1 24.16,-26.81 8.418,-12.57 14.903,-23.47 18.977,-32.61 2.195,-4.49 -1.145,-9.39 -10.176,-15.11 -1.398,-0.91 -37.16,-18.76 -40.285,-19.5 -6.387,-1.23 -13.875,2.99 -22.168,12.15 0.176,-6.63 0.664,-13.1 0.859,-19.74 -0.351,-3.57 -2.48,-6.79 -6.679,-9.83 -0.75,-0.42 -6.778,-3.81 -17.938,-10.08 l -63.84,-40.94 c 1.914,9.89 8.664,18.84 19.942,26.64 0.859,0.59 1.984,1.37 3.554,2.1 1.582,0.73 2.598,1.07 3.45,1.66 -0.93,14.01 -1.875,24.43 -2.395,31.22 l -1.18,-0.1 c -12.707,-8.78 -27.648,-17.31 -44.445,-24.98 -23.953,-11.19 -38.555,-18.42 -43.633,-21.92 -8.75,-6.05 -15.195,-13 -19.922,-21.26 -5.507,-9.52 -6.621,-18.16 -3.808,-25.86 0.89,-1.89 1.211,-4.17 0.969,-6.84 1.57,0.73 5.312,4.39 11.199,10.95 5.605,6.37 10.176,10.6 13.281,12.75 4.512,3.12 10.949,6.49 19.738,10.06 11.375,4.65 18.594,7.48 20.731,8.61 -6.492,-14.14 -15.508,-26.44 -27.656,-36.62 -3.614,-3.21 -37.383,-29.77 -37.383,-29.77 L 267.891,2428 c -11.172,0.74 -21.883,3.06 -32.032,6.28 l 1.895,-31.23 c 5.234,-1.27 12.851,-3.18 23.125,-5.5 2.754,-12.47 2.851,-24.52 0.039,-36.39 -3.25,-13.44 -9.805,-24.69 -19.59,-33.3 -6.426,-5.66 -13.906,-10.67 -21.699,-14.79 24.473,-5.48 42.668,-2.79 54.512,7.63 9.004,7.93 12.589,20.48 10.214,37.19 -2.941,12.68 -5.683,25.16 -8.632,37.84 1.554,-0.2 4.59,0.51 9.035,1.68 4.187,0.95 7.031,1.88 8.32,3.01 l 38.152,30.97 c 3.106,2.13 8.204,9.24 15.313,21.29 5.898,10.15 10.059,18.02 13.02,24 15.632,-6.36 27.546,-6.7 36.015,-0.85 l 46.102,29.82 21.836,12.27 c 3.293,1.85 4.629,11.37 3.867,28.13 4.25,-2.66 8.351,-5.76 12.305,-8.6 6.015,-3.7 10.742,-4.41 14.628,-2.23 l 18.559,10.43 0.086,-0.17 20.957,10.23 c 5.242,2.57 9.676,8.33 12.566,17.27 2.891,8.93 3.516,15.46 1.582,19.42 z m -62.851,-106.81 c 7.687,-1.07 16.855,-1.99 27.519,-2.75 2.969,10.1 5.02,17.66 6.446,22.84 -18.809,1.24 -28.27,2 -28.418,2.26 -3.465,-12.74 -5.508,-20.3 -5.547,-22.35" /><path
         id="path28"
         style="fill:#231f20;fill-opacity:1;fill-rule:nonzero;stroke:none"
         d="m 551.758,2714.94 c -3.945,-13.98 -6.68,-24.6 -8.281,-31.6 25.351,-43.34 43.73,-75.86 55.996,-97.85 2.578,20.08 3.808,30.74 3.261,32.1 l -50.976,97.35" /><path
         id="path30"
         style="fill:#231f20;fill-opacity:1;fill-rule:nonzero;stroke:none"
         d="m 895.781,2706.02 c -5.742,-1.03 -15.664,-0.14 -29.14,3.11 0.832,3.14 3.339,6.57 7.929,10.09 4.258,3.46 8.106,5.35 11.817,6.02 3.039,0.55 7.07,-0.51 12.031,-2.91 4.961,-2.38 7.5,-4.91 8.027,-7.8 l 1.153,-6.37 z m 225.639,48.94 c -6.56,0.47 -11.73,0.73 -15.18,1.1 -10.68,0.21 -26.4,4.21 -46.45,11.48 -19,7.04 -33.3,10.25 -42.55,9.67 -9.58,-0.61 -19.31,-4.47 -28.802,-11.85 -9.844,-7.4 -14.864,-15.09 -15.02,-23.35 2.305,1.62 7.344,3.42 15.129,5.38 7.781,1.97 13.213,2.91 16.303,3.1 18.14,1.16 34.88,-2.79 50.24,-11.82 -15.85,-4.84 -33.13,-8.59 -52.59,-10.72 -8.543,-0.83 -53.941,-5.82 -53.941,-5.82 l -11.731,-2.11 c -7.765,2.47 -15.879,8.78 -24.23,18.32 -6.192,7.25 -13.328,10.14 -21.094,8.74 -11.141,-2.01 -19.727,-6.55 -26.113,-13.68 -5.078,-6.6 -10.157,-13.19 -14.903,-19.72 -6.668,-7.48 -34.578,-17.02 -34.578,-17.02 l -54.504,-13.79 -20.906,-5.59 c -9.973,5.09 -18.906,11.44 -26.965,18.39 l -10.566,-29.45 c 4.316,-3.23 10.566,-7.99 19.082,-14.17 -2.383,-12.53 -7.051,-23.65 -14.297,-33.46 -8.289,-11.06 -18.738,-18.82 -31.133,-22.88 -8.144,-2.66 -16.992,-4.32 -25.781,-5.04 20.332,-14.69 38.125,-19.38 53.105,-14.46 11.418,3.73 19.649,13.85 24.063,30.15 2.285,12.82 4.687,25.36 6.972,38.18 1.348,-0.8 4.415,-1.35 8.965,-2.02 4.231,-0.78 7.207,-1.05 8.828,-0.51 l 6.309,1.76 75.82,19.18 4.258,1.47 c 3.047,0.56 5.949,3.77 9.063,9.71 2.824,5.58 5.285,9.32 7.492,10.62 3.797,-5.59 6.609,-9.57 8.191,-12.57 17.766,-1.87 37.297,-1.92 58.828,0.48 4.161,9.71 6.602,15.53 8.028,17.28 l 11.691,-6.85 56.629,6.64 c 10.618,0.68 22.038,4.94 34.918,13.13 14.21,8.85 24.21,13.91 30.65,15.2 14.94,3.01 27.18,4.97 36.71,6.46 9.14,12.96 15.75,22.51 20.54,28.41 l -0.48,2.03" /><path
         id="path32"
         style="fill:#231f20;fill-opacity:1;fill-rule:nonzero;stroke:none"
         d="m 1157.54,2846.92 c -6.85,-0.04 -12.01,1.99 -15.11,6.09 3.06,2.66 5.8,4.15 8.2,4.17 4.12,0.02 7.89,-0.55 11.33,-1.41 0.33,0.89 0.33,2.06 0.66,3.82 0.33,1.48 0.32,2.95 0.31,3.83 -0.01,2.64 -2.76,4.1 -7.91,4.07 -4.8,-0.03 -9.59,-2.11 -14.36,-6.26 -5.13,-4.14 -7.5,-8.27 -7.47,-12.39 0,-2.06 2.42,-4.69 6.9,-8.48 -3.41,-5.02 -5.44,-8.27 -5.77,-9.74 7.17,4.15 18.13,7.75 32.87,10.48 2.03,3.24 3.39,5.9 4.41,8.55 -7.88,-1.81 -12.34,-2.72 -14.06,-2.73" /><path
         id="path34"
         style="fill:#231f20;fill-opacity:1;fill-rule:nonzero;stroke:none"
         d="m 1210.72,2732.66 -15.77,0.64 c 6.75,5.61 11.73,9.82 14.94,12.93 3.23,-5.14 6.16,-9.08 8.46,-11.53 -3.14,-1.34 -5.92,-2.11 -7.63,-2.04 z m 14.62,98.27 c -4.4,-6.88 -7.7,-12.05 -9.91,-15.79 2.91,-4.23 4.09,-9.28 3.85,-15.16 -0.2,-4.99 -2.67,-15.19 -7.79,-31.16 -21.9,27.07 -40.95,48.43 -57.84,63.54 -7.13,-15.01 -10.55,-23.11 -10.61,-24.58 -0.21,-5.29 8.04,-13.57 24.39,-25.12 l 2.92,4.3 c 21.83,-20.3 32.72,-31.04 32.66,-32.51 -0.12,-3.24 -5.09,-7.45 -14.92,-12.64 -9.82,-5.2 -16.8,-7.86 -21.24,-7.38 l -6.17,0.25 c -0.5,-12.34 -0.16,-20.88 1.38,-25.36 2.7,-9.53 9.02,-14.49 19.64,-14.92 19.55,-0.79 31.22,-0.67 35.39,0.63 9.05,2.87 13.84,11.21 14.42,25.31 0.36,9.11 -3.59,21.62 -12.23,37.28 7.89,17.04 13.58,30.04 16.66,38.45 l 2.31,-2.44 10.61,16.34 c -8.35,5.93 -15.94,13 -23.52,20.96" /><path
         id="path36"
         style="fill:#231f20;fill-opacity:1;fill-rule:nonzero;stroke:none"
         d="m 1302.31,2823.83 c -10.24,-10.31 -17.77,-18.27 -22.58,-23.61 1.14,-50.19 1.43,-87.54 1.48,-112.73 12,16.31 18.25,25.03 18.42,26.49 l 2.68,109.85" /><path
         id="path38"
         style="fill:#231f20;fill-opacity:1;fill-rule:nonzero;stroke:none"
         d="m 1479.75,2756.94 c -3.44,2.16 -7.25,5.88 -11.13,11.13 -5.8,8 -8.83,12.18 -9.12,12.53 l -14.67,-18.13 0.12,-1.22 3.08,-3.89 c 0.51,-33.63 -1.78,-63.73 -7.3,-90.52 -13.67,-5.74 -29.94,-6.8 -48.48,-3.23 -9.76,1.88 -16.73,5.62 -21.5,11.63 -4.85,5.72 -6.64,12.65 -5.04,21.03 1.17,6.06 4.14,12.38 9.33,19.46 -17.09,-14.38 -26.82,-28.67 -29.61,-43.1 -1.94,-10.11 0.16,-19.19 6.34,-26.97 6.13,-8.07 15.29,-13.13 27.08,-15.4 14.82,-2.85 29.35,-1.76 43.93,3.22 16.09,5.58 25.51,14.55 27.85,26.67 l 5.33,27.71 c 0.94,4.91 2.33,13.93 4.49,26.98 1.9,11.62 3.62,20.57 4.91,27.21 l 3.08,-2.09 c 7.11,9.71 10.8,14.38 10.86,14.67 l 0.45,2.31" /><path
         id="path40"
         style="fill:#231f20;fill-opacity:1;fill-rule:nonzero;stroke:none"
         d="m 1722.01,2607.46 -11.85,5.45 c 10.39,11.08 24.4,18.55 42.1,21.73 -1.81,-10.5 -6.04,-20.52 -12.83,-30.34 -10.45,-1 -16.18,2.59 -17.42,3.16 z m -11.22,-65.39 -12.46,5.73 c -4.05,1.87 -7.99,7.25 -11.53,15.99 -3.52,8.74 -4.24,14.57 -2.32,17.9 22.87,-13.44 31.78,-26.92 26.31,-39.62 z m 146.89,109.53 -19.49,-12.99 c 1.13,-5.7 -1.49,-17.37 -8.32,-35.12 -5.55,-14.08 -10.84,-25.6 -16.04,-34.15 -2.44,-4.36 -8.38,-4.4 -18.22,-0.22 -1.63,0.67 -5.65,2.87 -12.02,6.43 0,0 -24.86,12.42 -29.41,13.22 -4.55,0.8 -7.28,1.41 -8.34,1.57 12.46,8.18 21.98,19.02 28.11,32.37 4.55,9.88 6.48,20.65 6.23,32.41 -17.71,0.06 -33.22,-4.12 -46.93,-11.73 -9.42,-5.7 -18.83,-11.4 -28.25,-17.1 -10.17,-4.06 -22.06,-2.79 -36.08,3.66 l -11.82,3.88 -37.77,14.32 c 0,0 -11.08,6.01 -13.79,7.74 -4.5,2.9 -6.6,6.6 -6.22,11.4 0.45,12.16 2.57,27.48 7.03,45.79 3.53,15.22 7.3,30.05 10.82,45.26 -10.21,-8.89 -15.77,-13.05 -16.19,-13.23 -4.19,-16.24 -6.25,-24.22 -6.33,-24.5 -7.91,-26.17 -18.24,-39.01 -30.67,-38.63 -0.38,36.66 -12.81,70.21 -37.3,100.65 -9.78,-7.49 -15.44,-14.37 -17.23,-20.28 -1.53,-5.06 -0.28,-11.58 3.43,-19.46 3.31,-6.84 7.61,-12.75 12.91,-17.73 l 3.08,3.06 c 12.19,-15.36 19.44,-32.9 22.44,-52.55 -29.27,-13.88 -56.58,-20.06 -81.83,-18.25 12.99,-9.15 25.11,-15.28 36.29,-18.65 14.11,-4.27 28.86,-1.67 44.2,7.51 7.53,4.79 18.9,13.94 33.61,28.23 -1.63,-16.25 -1.42,-28.95 0.56,-38.25 0,0 -0.21,-13.73 12.6,-19.12 3.67,-1.55 55.87,-20.87 55.87,-20.87 6.7,-3.2 6.3,-2.33 11.98,-6.08 5.69,-3.75 3.83,-7.26 3.83,-7.26 -6.03,-9.84 -6.53,-21.59 -1.79,-35.1 4.72,-13.51 13.1,-23.19 25.26,-28.78 14.33,-6.6 25.56,-1.08 33.79,16.82 0.86,1.86 2.02,5.21 3.25,9.51 1.21,4.29 2.38,7.64 3.24,9.51 12.04,-3.23 21.57,-6.49 27.16,-9.26 5.6,-2.78 18.45,-9.65 18.45,-9.65 5.09,-2.87 12.35,-3.24 21.35,-0.53 8.98,2.7 14.71,5.89 16.87,9.73 l 16.27,28.97 c 2.31,4.1 5.47,10.42 9.78,18.8 4.01,8.53 7.16,14.85 9.47,18.95 l 1.98,-3.47 c 7.46,5.58 13.32,9.71 16.97,12.71 -6.29,13.32 -10.74,23.58 -12.79,30.46" /><path
         id="path42"
         style="fill:#231f20;fill-opacity:1;fill-rule:nonzero;stroke:none"
         d="m 1917.82,2612.93 c -13.69,-4.84 -23.95,-8.75 -30.58,-11.49 -20.73,-45.73 -36.67,-79.51 -47.55,-102.21 17.89,9.48 27.31,14.63 28.09,15.87 l 50.04,97.83" /><path
         id="path44"
         style="fill:#231f20;fill-opacity:1;fill-rule:nonzero;stroke:none"
         d="m 2194.42,2233.17 -5.04,-4.07 -7.55,9.33 c -3.67,4.53 -7.65,13.67 -11.3,27.05 3.15,0.78 7.38,0.23 12.67,-2.11 5.08,-2.06 8.58,-4.52 10.96,-7.45 1.94,-2.4 2.93,-6.45 3.23,-11.95 0.29,-5.51 -0.7,-8.94 -2.97,-10.8 z m -225.47,223.69 c -0.9,-0.06 -2.17,0.53 -3.54,1.55 -5.23,3.89 -10.06,10.05 -13.94,18.06 9.02,0.63 17.88,-0.1 27.04,-2.15 -5.47,-10.23 -8.78,-15.84 -9.56,-17.46 z m 355.81,-381.82 c -4.74,9.56 -8.45,25.35 -11.26,46.49 -2.54,20.12 -6.28,34.28 -11.07,42.21 -4.96,8.21 -12.87,15.06 -23.81,20.08 -11.12,5.31 -20.24,6.2 -27.64,2.54 2.5,-1.3 6.43,-4.95 11.76,-10.94 5.33,-6 8.67,-10.39 10.27,-13.03 9.41,-15.57 13.64,-32.23 12.72,-50.03 -11.61,11.83 -22.93,25.42 -33.79,41.71 -4.69,7.19 -30.05,45.16 -30.05,45.16 l -8.06,9.95 c -1.56,8 0.07,18.14 4.42,30.06 3.38,8.91 2.48,16.57 -2.48,22.69 -7.13,8.8 -15.24,14.15 -24.56,16.31 -8.23,1.28 -16.46,2.57 -24.47,3.58 -9.76,2.25 -18.73,8.67 -26.72,18.53 l -4.25,4.05 c -2.54,2.6 -5.09,5.17 -7.47,7.91 -4.12,4.6 -6.21,8.81 -6.66,12.21 10.04,0.27 16.22,1.54 18.95,4.22 5.86,5.78 7.58,13.24 5.37,22.62 -2.13,8.02 -6.67,15.57 -13.88,22.91 -8.68,8.8 -16.82,13.3 -24.44,13.49 -3.81,0.1 -12.15,-2.32 -25.04,-6.83 4.31,-3.95 7.5,-8.03 9.4,-12.89 1.66,-4.63 1.29,-8.85 -1.35,-12.9 -6.96,3.74 -32.51,27.21 -32.51,27.21 -10.86,9.61 -16.86,15.85 -18.06,18.56 -1.37,3.12 -0.43,11.6 3.59,25.21 -13.04,-6.23 -20.76,-8.89 -23.8,-8.22 -2.7,0.6 -22.19,17.24 -22.19,17.24 -5.78,4.3 -9.35,6.96 -10.28,8.01 -4.13,7.1 5.73,27.25 29.28,60.67 -15.29,-2.19 -23.9,-4.57 -25.66,-6.94 -3.34,-4.48 -5.33,-7.75 -6.19,-10.04 -17.44,5.28 -29.16,8.49 -35.31,9.4 -13.32,2.22 -24.3,0.12 -33.11,-5.42 -7.22,-4.52 -10.43,-6.53 -10.25,-6.3 -2.63,-3.54 -0.13,-10.53 7.42,-21.64 6.52,-9.62 12.19,-16.39 16.85,-19.86 4.69,-3.48 16.21,-1.8 33.83,5.25 l 0.56,-0.41 c -4.64,-14.86 -5.3,-26.1 -2.08,-33.26 l 5.25,-3.91 -0.07,-0.1 18.2,-15.64 c 2.87,-2.46 8.22,-2.02 16.13,0.87 7.66,3.11 11.96,4.45 12.41,4.44 -1.04,-4.9 -2.55,-9.8 -3.6,-14.72 -1.17,-7.14 0.04,-12.06 3.42,-14.97 l 23.66,-20.32 12.57,-12.77 c 3.85,-3.92 8.77,-7.24 15.02,-10.23 5.8,-2.96 11.27,-4.32 15.74,-4.25 0.84,-12.17 3.65,-20.47 8.7,-25.61 l 23.59,-23.94 v 0 l 4.37,-5.4 c 1.93,-2.4 6.15,-3.39 12.85,-3.26 6.26,0.21 10.72,-0.15 12.91,-1.46 -3.06,-6.02 -5.19,-10.39 -7.07,-13.23 6.92,-16.48 16.25,-33.63 28.71,-51.34 10.53,1.01 16.8,1.68 19.03,1.27 l -0.39,-13.55 32.29,-47.04 c 5.5,-9.1 14.55,-17.25 27.76,-24.9 14.42,-8.52 23.52,-15.05 27.64,-20.18 9.57,-11.84 16.95,-21.8 22.68,-29.57 15.72,-2.13 27.24,-3.58 34.68,-5.09 l 1.59,1.35 c -2.62,6.04 -4.78,10.75 -6.05,13.99 z m -129.5,5.1 c 10.88,-2.63 19,-4.14 23.26,-4.37 l 1.99,26.85 c -10.54,3.25 -18.42,4.9 -23.53,5.42 z m -211.02,272.62 c -1.74,6.93 -3.81,14.51 -6.46,23 -9.94,0.01 -17.36,-0.21 -22.52,-0.42 2.09,-10.71 3.96,-18.54 5.43,-23.67 12.4,0.21 19.63,0.21 21.24,-0.02 l 6.08,-23.45 c 7.3,-0.46 14.91,-0.02 23.48,1.53 -3.01,10.73 -5.53,18.32 -6.91,23.01 -8.97,-0.44 -15.75,-0.43 -20.34,0.02 z m 14.33,191.64 c 3.78,0.48 7.39,0.73 11.16,1.21 l 7.73,-22.95 c 10.18,0.48 17.85,1.01 22.97,1.59 -4.12,15.15 -6.54,22.82 -7.36,23.43 -0.27,0.21 -7.48,-0.29 -21.63,-1.5 -3.19,14.1 -5.34,21.56 -6.72,22.59 -1.38,1.02 -9.21,0.25 -23.78,-2.1 4.47,-14.69 7.06,-22.11 7.62,-22.52 0.55,-0.41 3.97,-0.39 10.01,0.25" /></g></g></svg>