<?xml version="1.0" encoding="UTF-8" standalone="no"?>
<!-- Created with Inkscape (http://www.inkscape.org/) -->

<svg
   version="1.1"
   id="svg1"
   width="812.22931"
   height="131.99333"
   viewBox="0 0 812.22931 131.99333"
   sodipodi:docname="Croatian Red Cross.svg"
   inkscape:version="1.3.2 (091e20e, 2023-11-25, custom)"
   xmlns:inkscape="http://www.inkscape.org/namespaces/inkscape"
   xmlns:sodipodi="http://sodipodi.sourceforge.net/DTD/sodipodi-0.dtd"
   xmlns="http://www.w3.org/2000/svg"
   xmlns:svg="http://www.w3.org/2000/svg">
  <defs
     id="defs1">
    <clipPath
       clipPathUnits="userSpaceOnUse"
       id="clipPath18">
      <path
         d="M 0,98.995 H 609.12 V 0 H 0 Z"
         transform="translate(-589.07501,-44.837001)"
         id="path18" />
    </clipPath>
  </defs>
  <sodipodi:namedview
     id="namedview1"
     pagecolor="#ffffff"
     bordercolor="#666666"
     borderopacity="1.0"
     inkscape:showpageshadow="2"
     inkscape:pageopacity="0.0"
     inkscape:pagecheckerboard="0"
     inkscape:deskcolor="#d1d1d1"
     inkscape:zoom="1.1511527"
     inkscape:cx="406.11465"
     inkscape:cy="65.586431"
     inkscape:window-width="1920"
     inkscape:window-height="1017"
     inkscape:window-x="-8"
     inkscape:window-y="-8"
     inkscape:window-maximized="1"
     inkscape:current-layer="g1">
    <inkscape:page
       x="0"
       y="0"
       inkscape:label="1"
       id="page1"
       width="812.22931"
       height="131.99333"
       margin="0"
       bleed="0" />
  </sodipodi:namedview>
  <g
     id="g1"
     inkscape:groupmode="layer"
     inkscape:label="1">
    <g
       id="group-MC1">
      <path
         id="path2"
         d="m 0,0 c -0.923,3.606 -3.254,6.245 -7.827,6.245 -6.729,0 -9.543,-5.937 -9.543,-11.962 0,-6.024 2.814,-11.961 9.543,-11.961 4.881,0 7.563,3.65 8.003,8.223 h 5.365 c -0.439,-7.52 -5.76,-12.709 -13.368,-12.709 -9.411,0 -15.04,7.477 -15.04,16.447 0,8.971 5.629,16.447 15.04,16.447 C -0.747,10.687 4.838,6.773 5.498,0 H 0"
         style="fill:#231f20;fill-opacity:1;fill-rule:nonzero;stroke:none"
         transform="matrix(1.3333333,0,0,-1.3333333,195.22267,57.610667)" />
      <path
         id="path3"
         d="m 0,0 h 9.015 c 3.474,0 5.365,1.715 5.365,5.013 0,4.002 -2.595,4.794 -5.453,4.794 L 0,9.807 Z M -5.497,14.292 H 9.499 c 6.86,0 10.378,-3.166 10.378,-8.487 0,-6.025 -4.177,-7.564 -5.189,-7.916 v -0.088 c 1.891,-0.263 4.661,-1.671 4.661,-6.64 0,-3.65 0.528,-6.992 1.715,-8.267 h -5.892 c -0.836,1.363 -0.836,3.078 -0.836,4.617 0,5.761 -1.187,8.311 -6.244,8.311 H 0 v -12.928 h -5.497 v 31.398"
         style="fill:#231f20;fill-opacity:1;fill-rule:nonzero;stroke:none"
         transform="matrix(1.3333333,0,0,-1.3333333,216.62,63.356)" />
      <path
         id="path4"
         d="m 0,0 c 0,-6.024 2.814,-11.961 9.543,-11.961 6.728,0 9.542,5.937 9.542,11.961 0,6.025 -2.814,11.961 -9.542,11.961 C 2.814,11.961 0,6.025 0,0 Z m 24.583,0 c 0,-8.971 -5.629,-16.447 -15.04,-16.447 -9.411,0 -15.04,7.476 -15.04,16.447 0,8.971 5.629,16.447 15.04,16.447 9.411,0 15.04,-7.476 15.04,-16.447"
         style="fill:#231f20;fill-opacity:1;fill-rule:nonzero;stroke:none"
         transform="matrix(1.3333333,0,0,-1.3333333,255.66667,65.233333)" />
      <path
         id="path5"
         d="M 0,0 H 9.587 L 4.881,13.5 H 4.75 Z m 1.935,18.91 h 5.849 l 12.094,-31.399 h -5.894 l -2.946,8.311 H -1.495 l -2.946,-8.311 h -5.673 L 1.935,18.91"
         style="fill:#231f20;fill-opacity:1;fill-rule:nonzero;stroke:none"
         transform="matrix(1.3333333,0,0,-1.3333333,303.74267,69.513333)" />
      <path
         id="path6"
         d="M 0,0 H 25.418 V -4.75 H 15.435 V -31.399 H 9.938 V -4.75 H 0 V 0"
         style="fill:#231f20;fill-opacity:1;fill-rule:nonzero;stroke:none"
         transform="matrix(1.3333333,0,0,-1.3333333,324.848,44.3)" />
      <path
         id="path7"
         d="m 272.7,34.371 h 5.4969 V 65.77 H 272.7 Z"
         style="fill:#231f20;fill-opacity:1;fill-rule:nonzero;stroke:none"
         transform="matrix(1.3333333,0,0,-1.3333333,0,131.99333)" />
      <path
         id="path8"
         d="M 0,0 H 9.587 L 4.881,13.5 H 4.749 Z m 1.934,18.91 h 5.85 l 12.093,-31.399 h -5.893 l -2.946,8.311 H -1.495 l -2.947,-8.311 h -5.673 L 1.934,18.91"
         style="fill:#231f20;fill-opacity:1;fill-rule:nonzero;stroke:none"
         transform="matrix(1.3333333,0,0,-1.3333333,388.52,69.513333)" />
      <path
         id="path9"
         d="M 0,0 H 5.805 L 20.142,-23.131 H 20.23 V 0 h 5.232 V -31.399 H 19.657 L 5.365,-8.312 H 5.234 V -31.399 H 0 V 0"
         style="fill:#231f20;fill-opacity:1;fill-rule:nonzero;stroke:none"
         transform="matrix(1.3333333,0,0,-1.3333333,418.712,44.3)" />
      <path
         id="path10"
         d="m 0,0 h 9.015 c 3.474,0 5.365,1.715 5.365,5.013 0,4.002 -2.594,4.794 -5.453,4.794 L 0,9.807 Z M -5.497,14.292 H 9.499 c 6.86,0 10.378,-3.166 10.378,-8.487 0,-6.025 -4.178,-7.564 -5.189,-7.916 v -0.088 c 1.891,-0.263 4.661,-1.671 4.661,-6.64 0,-3.65 0.528,-6.992 1.715,-8.267 h -5.892 c -0.836,1.363 -0.836,3.078 -0.836,4.617 0,5.761 -1.187,8.311 -6.245,8.311 H 0 v -12.928 h -5.497 v 31.398"
         style="fill:#231f20;fill-opacity:1;fill-rule:nonzero;stroke:none"
         transform="matrix(1.3333333,0,0,-1.3333333,484.96267,63.356)" />
      <path
         id="path11"
         d="M 0,0 H 22.603 V -4.75 H 5.497 v -8.223 h 15.832 v -4.486 H 5.497 v -9.19 h 17.415 v -4.75 H 0 V 0"
         style="fill:#231f20;fill-opacity:1;fill-rule:nonzero;stroke:none"
         transform="matrix(1.3333333,0,0,-1.3333333,518.908,44.3)" />
      <path
         id="path12"
         d="m 0,0 h 5.409 c 8.619,0 10.467,4.925 10.467,11.214 0,6.288 -1.848,11.214 -10.467,11.214 H 0 Z M -5.497,26.914 H 7.52 c 9.674,0 13.852,-7.037 13.852,-15.7 0,-8.663 -4.178,-15.699 -13.852,-15.699 H -5.497 v 31.399"
         style="fill:#231f20;fill-opacity:1;fill-rule:nonzero;stroke:none"
         transform="matrix(1.3333333,0,0,-1.3333333,563.17333,80.185333)" />
      <path
         id="path13"
         d="m 0,0 c -0.923,3.606 -3.254,6.245 -7.827,6.245 -6.729,0 -9.543,-5.937 -9.543,-11.962 0,-6.024 2.814,-11.961 9.543,-11.961 4.88,0 7.563,3.65 8.004,8.223 h 5.364 c -0.44,-7.52 -5.761,-12.709 -13.368,-12.709 -9.411,0 -15.04,7.477 -15.04,16.447 0,8.971 5.629,16.447 15.04,16.447 C -0.747,10.687 4.838,6.773 5.497,0 H 0"
         style="fill:#231f20;fill-opacity:1;fill-rule:nonzero;stroke:none"
         transform="matrix(1.3333333,0,0,-1.3333333,642.73467,57.610667)" />
      <path
         id="path14"
         d="m 0,0 h 9.015 c 3.474,0 5.365,1.715 5.365,5.013 0,4.002 -2.594,4.794 -5.453,4.794 L 0,9.807 Z M -5.497,14.292 H 9.499 c 6.86,0 10.378,-3.166 10.378,-8.487 0,-6.025 -4.178,-7.564 -5.189,-7.916 v -0.088 c 1.891,-0.263 4.661,-1.671 4.661,-6.64 0,-3.65 0.528,-6.992 1.715,-8.267 h -5.892 c -0.836,1.363 -0.836,3.078 -0.836,4.617 0,5.761 -1.187,8.311 -6.245,8.311 H 0 v -12.928 h -5.497 v 31.398"
         style="fill:#231f20;fill-opacity:1;fill-rule:nonzero;stroke:none"
         transform="matrix(1.3333333,0,0,-1.3333333,664.132,63.356)" />
      <path
         id="path15"
         d="m 0,0 c 0,-6.024 2.814,-11.961 9.543,-11.961 6.728,0 9.543,5.937 9.543,11.961 0,6.025 -2.815,11.961 -9.543,11.961 C 2.814,11.961 0,6.025 0,0 Z m 24.583,0 c 0,-8.971 -5.629,-16.447 -15.04,-16.447 -9.411,0 -15.04,7.476 -15.04,16.447 0,8.971 5.629,16.447 15.04,16.447 9.411,0 15.04,-7.476 15.04,-16.447"
         style="fill:#231f20;fill-opacity:1;fill-rule:nonzero;stroke:none"
         transform="matrix(1.3333333,0,0,-1.3333333,703.17867,65.233333)" />
      <path
         id="path16"
         d="m 0,0 c 0,-4.837 3.562,-6.729 7.96,-6.729 4.837,0 6.64,2.375 6.64,4.75 0,2.419 -1.32,3.386 -2.595,3.87 -2.198,0.836 -5.057,1.407 -9.366,2.594 -5.366,1.452 -6.949,4.706 -6.949,7.96 0,6.289 5.805,9.235 11.478,9.235 6.553,0 12.05,-3.474 12.05,-10.027 h -5.497 c -0.264,4.046 -2.99,5.541 -6.773,5.541 -2.551,0 -5.76,-0.923 -5.76,-4.089 0,-2.199 1.495,-3.43 3.737,-4.046 0.484,-0.132 7.432,-1.935 9.059,-2.419 4.134,-1.231 6.113,-4.749 6.113,-8.003 0,-7.036 -6.244,-9.851 -12.49,-9.851 -7.168,0 -12.972,3.43 -13.104,11.214 H 0"
         style="fill:#231f20;fill-opacity:1;fill-rule:nonzero;stroke:none"
         transform="matrix(1.3333333,0,0,-1.3333333,747.44267,72.210667)" />
      <path
         id="path17"
         d="m 0,0 c 0,-4.837 3.562,-6.729 7.96,-6.729 4.837,0 6.64,2.375 6.64,4.75 0,2.419 -1.32,3.386 -2.595,3.87 -2.198,0.836 -5.057,1.407 -9.366,2.594 -5.365,1.452 -6.948,4.706 -6.948,7.96 0,6.289 5.804,9.235 11.477,9.235 6.553,0 12.05,-3.474 12.05,-10.027 h -5.497 c -0.265,4.046 -2.99,5.541 -6.773,5.541 -2.55,0 -5.76,-0.923 -5.76,-4.089 0,-2.199 1.495,-3.43 3.737,-4.046 0.484,-0.132 7.433,-1.935 9.06,-2.419 4.133,-1.231 6.112,-4.749 6.112,-8.003 0,-7.036 -6.244,-9.851 -12.489,-9.851 -7.168,0 -12.973,3.43 -13.105,11.214 H 0"
         style="fill:#231f20;fill-opacity:1;fill-rule:nonzero;stroke:none"
         transform="matrix(1.3333333,0,0,-1.3333333,785.43333,72.210667)"
         clip-path="url(#clipPath18)" />
      <path
         id="path19"
         d="M 0,0 V 32.992 H -32.991 V 0 h -33.008 v -33.006 h 33.008 V -66.003 H 0 v 32.997 H 33.004 L 33.004,0 H 0"
         style="fill:#ed1c24;fill-opacity:1;fill-rule:nonzero;stroke:none"
         transform="matrix(1.3333333,0,0,-1.3333333,87.998667,43.989333)" />
    </g>
  </g>
</svg>
