<?xml version="1.0" encoding="UTF-8" standalone="no"?>
<!-- Created with Inkscape (http://www.inkscape.org/) -->

<svg
   version="1.1"
   id="svg1"
   width="416"
   height="416"
   viewBox="0 0 416 416"
   sodipodi:docname="Papua RC.svg"
   inkscape:version="1.3.2 (091e20e, 2023-11-25, custom)"
   xmlns:inkscape="http://www.inkscape.org/namespaces/inkscape"
   xmlns:sodipodi="http://sodipodi.sourceforge.net/DTD/sodipodi-0.dtd"
   xmlns="http://www.w3.org/2000/svg"
   xmlns:svg="http://www.w3.org/2000/svg">
  <defs
     id="defs1">
    <clipPath
       clipPathUnits="userSpaceOnUse"
       id="clipPath3">
      <path
         d="M 0,312 H 312 V 0.06 H 0 Z"
         transform="translate(-312.00001,-156)"
         id="path3" />
    </clipPath>
  </defs>
  <sodipodi:namedview
     id="namedview1"
     pagecolor="#ffffff"
     bordercolor="#666666"
     borderopacity="1.0"
     inkscape:showpageshadow="2"
     inkscape:pageopacity="0.0"
     inkscape:pagecheckerboard="0"
     inkscape:deskcolor="#d1d1d1"
     inkscape:export-bgcolor="#ffffffff"
     inkscape:zoom="1.9735577"
     inkscape:cx="208"
     inkscape:cy="208"
     inkscape:window-width="1920"
     inkscape:window-height="1017"
     inkscape:window-x="-8"
     inkscape:window-y="-8"
     inkscape:window-maximized="1"
     inkscape:current-layer="g1">
    <inkscape:page
       x="0"
       y="0"
       inkscape:label="1"
       id="page1"
       width="416"
       height="416"
       margin="0"
       bleed="0"
       inkscape:export-filename="Papua RC.png"
       inkscape:export-xdpi="300"
       inkscape:export-ydpi="300" />
  </sodipodi:namedview>
  <g
     id="g1"
     inkscape:groupmode="layer"
     inkscape:label="1">
    <g
       id="group-MC1">
      <path
         id="path2"
         d="m 0,0 c 0,-86.156 -69.844,-156 -156,-156 -86.156,0 -156,69.844 -156,156 0,86.156 69.844,156 156,156 C -69.844,156 0,86.156 0,0"
         style="fill:#ed1c24;fill-opacity:1;fill-rule:nonzero;stroke:none"
         transform="matrix(1.3333333,0,0,-1.3333333,416,208)"
         clip-path="url(#clipPath3)" />
      <path
         id="path4"
         d="m 0,0 c 0,-83.947 -68.053,-152 -152,-152 -83.947,0 -152,68.053 -152,152 0,83.947 68.053,152 152,152 C -68.053,152 0,83.947 0,0"
         style="fill:#ffffff;fill-opacity:1;fill-rule:nonzero;stroke:none"
         transform="matrix(1.3333333,0,0,-1.3333333,410.66667,208)" />
      <path
         id="path5"
         d="m 0,0 c 0,-62.409 -50.592,-113 -113,-113 -62.408,0 -113,50.591 -113,113 0,62.408 50.592,113 113,113 C -50.592,113 0,62.408 0,0"
         style="fill:#ed1c24;fill-opacity:1;fill-rule:nonzero;stroke:none"
         transform="matrix(1.3333333,0,0,-1.3333333,358.66667,208)" />
      <path
         id="path6"
         d="M 0,0 0.141,3.056 C 0.236,5.106 0.191,7.271 -2.398,7.39 -4.735,7.498 -4.962,5.707 -5.052,3.764 L -5.214,0.24 Z m -12.161,-7.368 0.611,13.235 c 0.322,6.976 5.542,9.186 9.21,9.017 C 3.881,14.596 6.602,10.29 6.33,4.393 l -0.216,-4.675 7.767,-0.359 -0.364,-7.912 -25.678,1.185"
         style="fill:#ed1c24;fill-opacity:1;fill-rule:nonzero;stroke:none"
         transform="matrix(1.3333333,0,0,-1.3333333,29.5,204.51333)" />
      <path
         id="path7"
         d="m 0,0 -8.24,-0.365 -0.017,-0.07 7.108,-4.287 z m -17.528,-2.143 1.83,7.521 L 11.491,8.393 9.55,0.418 5.727,0.237 3.793,-7.703 7.089,-9.691 5.208,-17.421 -17.528,-2.143"
         style="fill:#ed1c24;fill-opacity:1;fill-rule:nonzero;stroke:none"
         transform="matrix(1.3333333,0,0,-1.3333333,41.44,165.02267)" />
      <path
         id="path8"
         d="M 0,0 1.345,2.748 C 2.247,4.592 3.067,6.595 0.739,7.734 -1.363,8.763 -2.283,7.209 -3.138,5.463 l -1.55,-3.169 z m -14.087,-1.924 5.823,11.9 c 3.07,6.273 8.738,6.225 12.036,4.611 C 9.366,11.849 10.149,6.816 7.554,1.513 L 5.497,-2.69 12.481,-6.108 9,-13.222 -14.087,-1.924"
         style="fill:#ed1c24;fill-opacity:1;fill-rule:nonzero;stroke:none"
         transform="matrix(1.3333333,0,0,-1.3333333,46.112,133.59733)" />
      <path
         id="path9"
         d="m 0,0 c 5.563,-4.456 5.824,-9.601 0.918,-15.726 -4.907,-6.125 -10.007,-7.021 -15.57,-2.564 l -12.306,9.858 4.951,6.181 10.929,-8.756 c 2.052,-1.643 4.608,-3.691 7.017,-0.684 2.34,2.921 -0.216,4.97 -2.267,6.612 l -10.93,8.756 4.952,6.181 L 0,0"
         style="fill:#ed1c24;fill-opacity:1;fill-rule:nonzero;stroke:none"
         transform="matrix(1.3333333,0,0,-1.3333333,82.78,88.065333)" />
      <path
         id="path10"
         d="m 0,0 -6.743,4.751 -0.056,-0.045 3.001,-7.739 z m -15.178,9.025 6.048,4.83 23.354,-14.244 -6.414,-5.122 -3.135,2.196 -6.386,-5.1 1.392,-3.588 -6.217,-4.965 -8.642,25.993"
         style="fill:#ed1c24;fill-opacity:1;fill-rule:nonzero;stroke:none"
         transform="matrix(1.3333333,0,0,-1.3333333,103.60667,71.628)" />
      <path
         id="path11"
         d="M 0,0 7.614,2.765 19.345,-7.606 19.413,-7.582 14.72,5.345 21.758,7.9 30.531,-16.26 23.289,-18.89 11.087,-8.383 11.019,-8.408 15.811,-21.605 8.772,-24.161 0,0"
         style="fill:#ed1c24;fill-opacity:1;fill-rule:nonzero;stroke:none"
         transform="matrix(1.3333333,0,0,-1.3333333,128.06533,30.693333)" />
      <path
         id="path12"
         d="m 0,0 21.105,2.688 0.833,-6.536 -13.249,-1.687 0.404,-3.178 12.035,1.532 0.773,-6.07 -12.035,-1.533 0.405,-3.178 13.642,1.737 0.832,-6.535 L 3.247,-25.498 0,0"
         style="fill:#ed1c24;fill-opacity:1;fill-rule:nonzero;stroke:none"
         transform="matrix(1.3333333,0,0,-1.3333333,170.37867,17.090667)" />
      <path
         id="path13"
         d="m 0,0 -7.647,0.934 -0.853,15.88 -0.071,0.009 -4.579,-15.217 -7.683,0.938 -3.817,26.361 7.719,-0.943 1.185,-16.138 0.071,-0.009 4.997,15.384 6.933,-0.847 1.051,-16.34 0.072,-0.008 5.131,15.584 7.754,-0.946 L 0,0"
         style="fill:#ed1c24;fill-opacity:1;fill-rule:nonzero;stroke:none"
         transform="matrix(1.3333333,0,0,-1.3333333,242.836,50.877333)" />
      <path
         id="path14"
         d="m 0,0 c -2.621,-1.178 -5.493,-0.756 -7.975,0.558 -6.712,3.556 -8.083,10.964 -4.662,17.421 4.584,8.653 12.497,8.901 17.618,6.188 5.79,-3.067 7.78,-8.154 5.966,-14.038 l -6.712,3.556 c 0.622,1.789 -0.154,3.707 -1.808,4.584 -4.803,2.545 -7.324,-2.598 -8.15,-4.156 C -6.852,11.981 -7.965,7.805 -3.702,5.546 -2.08,4.687 0.013,4.638 1.256,6.138 L -1.83,7.773 0.749,12.64 10.037,7.719 3.414,-4.783 -1.008,-2.441 0,0"
         style="fill:#ed1c24;fill-opacity:1;fill-rule:nonzero;stroke:none"
         transform="matrix(1.3333333,0,0,-1.3333333,294.49867,67.874667)" />
      <path
         id="path15"
         d="m 0,0 c -4.689,-5.368 -9.84,-5.409 -15.75,-0.245 -5.91,5.164 -6.588,10.297 -1.897,15.665 l 10.374,11.874 5.965,-5.211 -9.215,-10.546 c -1.729,-1.979 -3.885,-4.446 -0.983,-6.98 2.819,-2.464 4.974,0.003 6.704,1.982 L 4.411,17.085 10.375,11.874 0,0"
         style="fill:#ed1c24;fill-opacity:1;fill-rule:nonzero;stroke:none"
         transform="matrix(1.3333333,0,0,-1.3333333,335.92133,88.101333)" />
      <path
         id="path16"
         d="m 0,0 5.032,-6.116 -19.848,-16.331 -5.033,6.116 L 0,0"
         style="fill:#ed1c24;fill-opacity:1;fill-rule:nonzero;stroke:none"
         transform="matrix(1.3333333,0,0,-1.3333333,357.10667,81.064)" />
      <path
         id="path17"
         d="m 0,0 4.051,-7.015 -8.164,-13.362 0.036,-0.061 11.909,6.877 3.745,-6.484 -22.258,-12.855 -3.854,6.671 8.216,13.849 -0.036,0.062 -12.159,-7.021 -3.745,6.484 L 0,0"
         style="fill:#ed1c24;fill-opacity:1;fill-rule:nonzero;stroke:none"
         transform="matrix(1.3333333,0,0,-1.3333333,371.1,98.261333)" />
      <path
         id="path18"
         d="m 0,0 6.335,-20.311 -6.29,-1.962 -3.977,12.751 -3.058,-0.954 3.612,-11.582 -5.843,-1.822 -3.611,11.581 -3.059,-0.954 4.094,-13.127 -6.289,-1.962 -6.452,20.689 L 0,0"
         style="fill:#ed1c24;fill-opacity:1;fill-rule:nonzero;stroke:none"
         transform="matrix(1.3333333,0,0,-1.3333333,391.87867,137.51733)" />
      <path
         id="path19"
         d="M 0,0 7.69,2.982 7.684,3.053 -0.421,4.841 Z m 15.921,7.637 0.671,-7.711 -24.796,-11.553 -0.711,8.177 3.565,1.394 -0.709,8.142 -3.758,0.829 -0.69,7.926 26.428,-7.204"
         style="fill:#ed1c24;fill-opacity:1;fill-rule:nonzero;stroke:none"
         transform="matrix(1.3333333,0,0,-1.3333333,382.52667,197.30533)" />
      <path
         id="path20"
         d="m 0,0 c 0,-59.924 -48.576,-108.5 -108.5,-108.5 -59.923,0 -108.5,48.576 -108.5,108.5 0,59.923 48.577,108.5 108.5,108.5 C -48.576,108.5 0,59.923 0,0"
         style="fill:#ffffff;fill-opacity:1;fill-rule:nonzero;stroke:none"
         transform="matrix(1.3333333,0,0,-1.3333333,352.66667,208)" />
      <path
         id="path21"
         d="M 0,0 2.997,-3.02 C 4.065,-4.098 5.708,-5.386 7.39,-3.718 8.572,-2.546 8.603,-1.211 6.414,0.995 L 3.729,3.7 Z M 2.461,13.909 13.381,2.904 c 3.257,-3.283 4.26,-7.918 0.714,-11.436 -1.944,-1.929 -4.879,-3.069 -7.49,-1.855 0.959,-2.176 0.19,-4.867 -1.939,-7.396 -0.841,-0.991 -3.047,-3.233 -3.393,-4.618 l -5.733,5.778 c 0.658,1.228 1.526,2.297 2.42,3.34 1.629,1.93 3.338,3.937 1.071,6.223 l -3.05,3.073 -6.54,-6.489 -5.733,5.778 18.753,18.607"
         style="fill:#ed1c24;fill-opacity:1;fill-rule:nonzero;stroke:none"
         transform="matrix(1.3333333,0,0,-1.3333333,80.165333,327.00133)" />
      <path
         id="path22"
         d="m 0,0 18.254,-12.039 -3.728,-5.653 -11.459,7.558 -1.813,-2.749 10.409,-6.865 -3.464,-5.251 -10.408,6.865 -1.813,-2.749 11.798,-7.781 -3.728,-5.653 -18.594,12.264 L 0,0"
         style="fill:#ed1c24;fill-opacity:1;fill-rule:nonzero;stroke:none"
         transform="matrix(1.3333333,0,0,-1.3333333,107.836,332.42667)" />
      <path
         id="path23"
         d="m 0,0 2.967,-1.152 c 4.725,-1.835 6.901,1.726 7.799,4.037 0.602,1.552 1.794,6.051 -3.69,8.181 L 4.662,12.003 Z M -0.475,21.262 11.976,16.426 C 20.185,13.238 20.724,6.043 18.314,-0.166 15.38,-7.719 9.517,-10.96 0.929,-7.624 l -10.968,4.259 9.564,24.627"
         style="fill:#ed1c24;fill-opacity:1;fill-rule:nonzero;stroke:none"
         transform="matrix(1.3333333,0,0,-1.3333333,135.42933,378.40133)" />
      <path
         id="path24"
         d="m 0,0 c -0.108,0.968 -0.726,3.919 -4.09,4.059 -3.808,0.158 -5.182,-3.487 -5.329,-7.037 -0.148,-3.549 0.918,-7.296 4.727,-7.454 2.735,-0.115 3.887,1.763 4.471,4.22 l 7.985,-0.332 c -0.222,-5.323 -4.782,-10.8 -12.509,-10.478 -8.539,0.355 -13.132,6.582 -12.807,14.383 0.346,8.317 5.824,13.607 13.957,13.269 C 3.65,10.291 7.484,6.318 7.911,-0.329 L 0,0"
         style="fill:#ed1c24;fill-opacity:1;fill-rule:nonzero;stroke:none"
         transform="matrix(1.3333333,0,0,-1.3333333,206.948,380.00933)" />
      <path
         id="path25"
         d="M 0,0 4.193,0.724 C 5.688,0.981 7.687,1.588 7.284,3.922 7.002,5.563 5.927,6.354 2.863,5.825 L -0.892,5.178 Z m -9.982,9.994 15.278,2.634 c 4.558,0.785 8.93,-1.052 9.777,-5.975 0.466,-2.698 -0.284,-5.755 -2.776,-7.199 2.333,-0.462 4.097,-2.636 4.947,-5.83 0.33,-1.258 0.901,-4.35 1.837,-5.429 l -8.021,-1.381 c -0.628,1.243 -1.006,2.567 -1.348,3.897 C 9.065,-6.848 8.4,-4.296 5.229,-4.843 L 0.962,-5.578 2.527,-14.657 -5.495,-16.04 -9.982,9.994"
         style="fill:#ed1c24;fill-opacity:1;fill-rule:nonzero;stroke:none"
         transform="matrix(1.3333333,0,0,-1.3333333,233.49733,380.39333)" />
      <path
         id="path26"
         d="m 0,0 c 1.916,0.789 4.336,3.268 2.095,8.707 -2.242,5.438 -5.706,5.492 -7.621,4.702 C -7.442,12.62 -9.862,10.142 -7.621,4.702 -5.378,-0.736 -1.915,-0.79 0,0 Z M -8.036,19.499 C -0.613,22.557 6.547,19.266 9.621,11.808 12.694,4.351 9.933,-3.029 2.51,-6.089 c -7.423,-3.06 -14.583,0.233 -17.656,7.689 -3.074,7.458 -0.313,14.839 7.11,17.899"
         style="fill:#ed1c24;fill-opacity:1;fill-rule:nonzero;stroke:none"
         transform="matrix(1.3333333,0,0,-1.3333333,279.35867,379.99467)" />
      <path
         id="path27"
         d="M 0,0 C 0.377,-0.55 0.803,-0.974 1.228,-1.266 2.616,-2.244 4.269,-1.514 5.52,-0.657 6.618,0.096 8.046,1.613 6.938,3.23 6.163,4.36 5.008,4.016 0.522,2.511 c -4.117,-1.387 -8.703,-3.14 -11.716,1.255 -3.451,5.036 -0.634,10.152 3.852,13.228 4.731,3.242 10.146,4.307 13.969,-0.877 L 0.28,11.765 c -0.443,0.908 -1.186,1.206 -1.987,1.195 -0.82,0.021 -1.688,-0.349 -2.359,-0.809 -0.916,-0.628 -2.244,-1.898 -1.407,-3.119 1.188,-1.472 4.532,0.326 8.2,1.585 C 6.395,11.874 10.43,12.532 13.17,8.535 17.062,2.858 13.098,-2.55 8.245,-5.877 5.774,-7.571 -1.884,-11.518 -6.714,-4.602 L 0,0"
         style="fill:#ed1c24;fill-opacity:1;fill-rule:nonzero;stroke:none"
         transform="matrix(1.3333333,0,0,-1.3333333,307.48133,360.96133)" />
      <path
         id="path28"
         d="M 0,0 C 0.475,-0.467 0.975,-0.803 1.447,-1.008 2.996,-1.703 4.48,-0.671 5.543,0.41 6.478,1.36 7.589,3.121 6.192,4.496 5.216,5.457 4.148,4.9 0.033,2.565 -3.745,0.416 -7.911,-2.18 -11.708,1.557 c -4.349,4.283 -2.562,9.844 1.254,13.72 4.024,4.087 9.135,6.168 13.879,1.809 l -5.399,-5.484 c -0.609,0.806 -1.395,0.957 -2.178,0.794 -0.811,-0.137 -1.591,-0.666 -2.162,-1.246 -0.778,-0.791 -1.84,-2.291 -0.785,-3.329 1.449,-1.219 4.386,1.185 7.746,3.121 3.36,1.936 7.195,3.353 10.649,-0.047 C 16.201,6.067 13.344,0 9.216,-4.192 7.114,-6.328 0.353,-11.666 -5.711,-5.801 L 0,0"
         style="fill:#ed1c24;fill-opacity:1;fill-rule:nonzero;stroke:none"
         transform="matrix(1.3333333,0,0,-1.3333333,335.25467,338.95867)" />
      <path
         id="path29"
         d="m 0,0 h -52 v 50.999 h -52 V 0 h -52 v -52 h 52 v -53.001 h 52 V -52 H 0 V 0"
         style="fill:#ed1c24;fill-opacity:1;fill-rule:nonzero;stroke:none"
         transform="matrix(1.3333333,0,0,-1.3333333,310.5,173.49733)" />
    </g>
  </g>
</svg>
