<?xml version="1.0" encoding="UTF-8" standalone="no"?>
<!-- Created with Inkscape (http://www.inkscape.org/) -->

<svg
   version="1.1"
   id="svg1"
   width="572.64935"
   height="572.64935"
   viewBox="0 0 572.64935 572.64935"
   sodipodi:docname="Cook Islands RC.svg"
   inkscape:version="1.3.2 (091e20e, 2023-11-25, custom)"
   xmlns:inkscape="http://www.inkscape.org/namespaces/inkscape"
   xmlns:sodipodi="http://sodipodi.sourceforge.net/DTD/sodipodi-0.dtd"
   xmlns="http://www.w3.org/2000/svg"
   xmlns:svg="http://www.w3.org/2000/svg">
  <defs
     id="defs1">
    <clipPath
       clipPathUnits="userSpaceOnUse"
       id="clipPath30">
      <path
         d="M 0.059998,429.48 H 429.487 V 0 H 0.059998 Z"
         transform="translate(-214.744,-420.48701)"
         id="path30" />
    </clipPath>
  </defs>
  <sodipodi:namedview
     id="namedview1"
     pagecolor="#ffffff"
     bordercolor="#666666"
     borderopacity="1.0"
     inkscape:showpageshadow="2"
     inkscape:pageopacity="0.0"
     inkscape:pagecheckerboard="0"
     inkscape:deskcolor="#d1d1d1"
     inkscape:export-bgcolor="#ffffffff"
     inkscape:zoom="1.4336871"
     inkscape:cx="286.32468"
     inkscape:cy="286.32468"
     inkscape:window-width="1920"
     inkscape:window-height="1017"
     inkscape:window-x="-8"
     inkscape:window-y="-8"
     inkscape:window-maximized="1"
     inkscape:current-layer="g1">
    <inkscape:page
       x="0"
       y="0"
       inkscape:label="1"
       id="page1"
       width="572.64935"
       height="572.64935"
       margin="0"
       bleed="0"
       inkscape:export-filename="Cook Islands RC.png"
       inkscape:export-xdpi="300"
       inkscape:export-ydpi="300" />
  </sodipodi:namedview>
  <g
     id="g1"
     inkscape:groupmode="layer"
     inkscape:label="1">
    <g
       id="group-MC1">
      <path
         id="path2"
         d="m 0,0 c -3.145,-3.434 -4.314,-7.678 -1.186,-12.468 4.602,-7.046 12.743,-5.933 19.052,-1.813 6.309,4.121 10.601,11.128 6,18.173 C 20.527,9.005 14.871,9.318 9.78,6.65 l -3.669,5.618 c 8.176,4.683 17.249,2.659 22.452,-5.307 6.436,-9.856 2.457,-20.863 -6.937,-26.998 -9.395,-6.135 -21.073,-5.354 -27.509,4.502 -4.796,7.444 -4.517,15.968 2.123,21.291 L 0,0"
         style="fill:#2e3192;fill-opacity:1;fill-rule:nonzero;stroke:none"
         transform="matrix(1.3333333,0,0,-1.3333333,75.632,406.42933)" />
      <path
         id="path3"
         d="M 0,0 C 7.123,2.457 12.992,8.207 10.247,16.161 7.501,24.115 -0.666,25.02 -7.788,22.562 -14.91,20.104 -20.78,14.354 -18.034,6.4 -15.288,-1.555 -7.122,-2.459 0,0 Z m -10.031,29.061 c 10.606,3.66 21.74,0.056 25.58,-11.069 3.84,-11.125 -2.7,-20.83 -13.306,-24.491 -10.605,-3.661 -21.74,-0.057 -25.58,11.068 -3.84,11.125 2.701,20.831 13.306,24.492"
         style="fill:#2e3192;fill-opacity:1;fill-rule:nonzero;stroke:none"
         transform="matrix(1.3333333,0,0,-1.3333333,71.681333,377.284)" />
      <path
         id="path4"
         d="M 0,0 C 7.511,0.604 14.63,4.708 13.956,13.097 13.281,21.485 5.597,24.399 -1.913,23.794 -9.425,23.19 -16.544,19.086 -15.869,10.698 -15.194,2.31 -7.511,-0.604 0,0 Z m -2.465,30.647 c 11.184,0.9 21.069,-5.368 22.013,-17.101 0.944,-11.732 -7.812,-19.5 -18.997,-20.398 -11.184,-0.901 -21.069,5.367 -22.012,17.1 -0.944,11.733 7.812,19.499 18.996,20.399"
         style="fill:#2e3192;fill-opacity:1;fill-rule:nonzero;stroke:none"
         transform="matrix(1.3333333,0,0,-1.3333333,55.836,321.07467)" />
      <path
         id="path5"
         d="M 0,0 1.074,6.791 18.728,3.999 3.806,24.064 5.128,32.43 18.162,14.5 44.085,27.382 42.746,18.909 22.212,9.126 26.822,2.718 39.859,0.657 38.785,-6.133 0,0"
         style="fill:#2e3192;fill-opacity:1;fill-rule:nonzero;stroke:none"
         transform="matrix(1.3333333,0,0,-1.3333333,27.76,264.97333)" />
      <path
         id="path6"
         d="M 0,0 2.798,6.281 38.675,-9.702 35.876,-15.983 0,0"
         style="fill:#2e3192;fill-opacity:1;fill-rule:nonzero;stroke:none"
         transform="matrix(1.3333333,0,0,-1.3333333,48.026667,185.35867)" />
      <path
         id="path7"
         d="m 0,0 c 5.074,-3.297 9.485,-0.85 12.481,3.764 3.297,5.074 2.035,8.583 -0.456,10.202 C 9.488,15.613 7.574,14.889 6.198,13.881 3.823,12.144 1.275,9.535 -2.907,5.824 -8.085,1.185 -12.578,1.742 -15.991,3.96 c -6.596,4.286 -5.731,12.383 -1.865,18.333 4.465,6.873 11.855,10.271 18.728,5.806 l -3.746,-5.766 c -4.423,2.48 -7.85,0.64 -10.427,-3.327 -1.738,-2.676 -2.957,-6.673 0.364,-8.83 2.307,-1.499 4.617,-0.77 6.791,1.164 0.468,0.417 7.094,6.476 8.71,7.853 4.109,3.497 9.148,3.175 12.562,0.957 C 22.506,15.355 21.202,6.888 16.947,0.338 12.062,-7.181 4.508,-10.933 -3.746,-5.767 L 0,0"
         style="fill:#2e3192;fill-opacity:1;fill-rule:nonzero;stroke:none"
         transform="matrix(1.3333333,0,0,-1.3333333,91.890667,174.77067)" />
      <path
         id="path8"
         d="M 0,0 4.831,4.892 28.55,-18.53 42.58,-4.322 46.807,-8.497 27.945,-27.596 0,0"
         style="fill:#2e3192;fill-opacity:1;fill-rule:nonzero;stroke:none"
         transform="matrix(1.3333333,0,0,-1.3333333,91.361333,115.568)" />
      <path
         id="path9"
         d="M 0,0 9.992,6.629 -4.248,17.447 -4.386,17.356 Z M -11.06,21.048 -4.964,25.093 29.355,0.728 23.213,-3.348 14.394,3.278 1.33,-5.389 4.007,-16.09 -1.906,-20.013 -11.06,21.048"
         style="fill:#2e3192;fill-opacity:1;fill-rule:nonzero;stroke:none"
         transform="matrix(1.3333333,0,0,-1.3333333,154.152,101.364)" />
      <path
         id="path10"
         d="m 0,0 6.808,2.522 26.862,-20.901 0.103,0.038 -10.048,27.129 6.137,2.274 13.64,-36.825 -6.807,-2.522 L 9.903,-7.417 9.748,-7.475 19.778,-34.551 13.64,-36.824 0,0"
         style="fill:#2e3192;fill-opacity:1;fill-rule:nonzero;stroke:none"
         transform="matrix(1.3333333,0,0,-1.3333333,176.54533,51.046667)" />
      <path
         id="path11"
         d="M 0,0 6.721,0.772 C 17.43,2.001 19.023,8.384 18.126,16.197 17.229,24.012 14.232,29.868 3.522,28.639 L -3.199,27.867 Z M -10.669,32.657 5.505,34.513 C 17.526,35.893 23.721,27.746 24.956,16.982 26.192,6.217 22.004,-3.121 9.983,-4.501 l -16.174,-1.856 -4.478,39.014"
         style="fill:#2e3192;fill-opacity:1;fill-rule:nonzero;stroke:none"
         transform="matrix(1.3333333,0,0,-1.3333333,250.02667,75.245333)" />
      <path
         id="path12"
         d="m 0,0 c -0.668,-6.013 3.498,-8.855 8.964,-9.462 6.013,-0.668 8.581,2.034 8.909,4.986 0.334,3.006 -1.172,4.391 -2.69,5.168 C 12.566,2.034 9.092,3.14 3.9,5.211 c -6.468,2.544 -7.987,6.808 -7.538,10.853 0.869,7.815 8.491,10.675 15.542,9.892 8.143,-0.905 14.496,-5.982 13.59,-14.126 l -6.832,0.759 c 0.232,5.065 -2.951,7.3 -7.651,7.822 C 7.841,20.764 3.723,20.06 3.285,16.124 2.983,13.391 4.67,11.654 7.373,10.579 7.956,10.349 16.343,7.147 18.298,6.322 23.266,4.221 25.239,-0.425 24.79,-4.47 23.819,-13.215 15.668,-15.851 7.907,-14.988 -1.002,-13.998 -7.743,-8.934 -6.832,0.759 L 0,0"
         style="fill:#2e3192;fill-opacity:1;fill-rule:nonzero;stroke:none"
         transform="matrix(1.3333333,0,0,-1.3333333,299.212,62.568)" />
      <path
         id="path13"
         d="m 0,0 10.226,-4.752 c 3.941,-1.831 6.99,-0.882 8.729,2.859 2.108,4.539 -0.417,6.804 -3.66,8.311 L 5.169,11.123 Z m 1.298,19.108 17.01,-7.903 c 7.781,-3.616 10.103,-9.061 7.299,-15.097 -3.176,-6.835 -8.726,-6.379 -10.059,-6.244 l -0.046,-0.099 c 2.006,-1.296 4.407,-4.353 1.788,-9.99 -1.924,-4.14 -3.087,-8.209 -2.413,-10.281 L 8.194,-27.4 c -0.23,1.986 0.675,3.931 1.485,5.677 3.036,6.535 3.034,10.054 -2.702,12.719 l -9.178,4.265 -6.814,-14.665 -6.235,2.897 16.548,35.615"
         style="fill:#2e3192;fill-opacity:1;fill-rule:nonzero;stroke:none"
         transform="matrix(1.3333333,0,0,-1.3333333,375.13867,68.552)" />
      <path
         id="path14"
         d="M 0,0 22.392,-17.255 18.767,-21.96 1.82,-8.901 -4.457,-17.048 11.225,-29.133 7.802,-33.576 -7.882,-21.491 -14.898,-30.597 2.353,-43.89 -1.272,-48.595 -23.969,-31.105 0,0"
         style="fill:#2e3192;fill-opacity:1;fill-rule:nonzero;stroke:none"
         transform="matrix(1.3333333,0,0,-1.3333333,430.228,70.604)" />
      <path
         id="path15"
         d="m 0,0 4.312,-5.214 c 6.87,-8.307 13.088,-6.163 19.151,-1.15 6.062,5.012 9.337,10.718 2.467,19.025 l -4.311,5.214 z M 21.562,26.749 31.936,14.202 C 39.647,4.876 36.194,-4.759 27.844,-11.663 19.493,-18.568 9.381,-20.149 1.67,-10.823 L -8.704,1.724 21.562,26.749"
         style="fill:#2e3192;fill-opacity:1;fill-rule:nonzero;stroke:none"
         transform="matrix(1.3333333,0,0,-1.3333333,443.71733,141.12133)" />
      <path
         id="path16"
         d="m 0,0 c 3.832,2.644 5.919,6.522 3.939,11.889 -2.914,7.896 -11.1,8.627 -18.169,6.019 -7.071,-2.61 -12.819,-8.483 -9.905,-16.378 2.114,-5.729 7.559,-7.296 13.116,-5.831 l 2.324,-6.296 c -9.016,-2.74 -17.409,1.257 -20.703,10.185 -4.075,11.042 2.26,20.885 12.787,24.77 C -6.084,28.243 5.127,24.875 9.202,13.832 12.216,5.504 10.042,-2.745 2.38,-6.452 L 0,0"
         style="fill:#2e3192;fill-opacity:1;fill-rule:nonzero;stroke:none"
         transform="matrix(1.3333333,0,0,-1.3333333,518.48533,216.08933)" />
      <path
         id="path17"
         d="m 0,0 1.305,-11.199 c 0.503,-4.315 2.906,-6.416 7.004,-5.939 4.971,0.579 5.579,3.917 5.165,7.468 L 12.182,1.419 Z m 16.959,8.896 2.169,-18.628 c 0.993,-8.521 -2.43,-13.349 -9.041,-14.12 -7.483,-0.871 -10,4.096 -10.583,5.301 l -0.109,-0.013 c -0.055,-2.387 -1.402,-6.032 -7.574,-6.751 -4.535,-0.528 -8.61,-1.667 -10.022,-3.326 l -0.852,7.319 c 1.572,1.236 3.702,1.484 5.614,1.706 7.156,0.834 10.152,2.678 9.421,8.96 l -1.171,10.051 -16.06,-1.87 -0.796,6.828 39.004,4.543"
         style="fill:#2e3192;fill-opacity:1;fill-rule:nonzero;stroke:none"
         transform="matrix(1.3333333,0,0,-1.3333333,518.31867,247.86933)" />
      <path
         id="path18"
         d="m 0,0 c -7.478,0.929 -15.282,-1.647 -16.32,-9.997 -1.039,-8.351 5.895,-12.761 13.372,-13.692 7.478,-0.93 15.281,1.647 16.32,9.997 C 14.411,-5.341 7.477,-0.931 0,0 Z m -3.796,-30.512 c -11.135,1.386 -19.544,9.526 -18.091,21.207 1.453,11.68 11.6,17.512 22.735,16.127 C 11.982,5.436 20.392,-2.704 18.939,-14.384 17.486,-26.065 7.337,-31.897 -3.796,-30.512"
         style="fill:#2e3192;fill-opacity:1;fill-rule:nonzero;stroke:none"
         transform="matrix(1.3333333,0,0,-1.3333333,519.02267,299.536)" />
      <path
         id="path19"
         d="m 0,0 c -5.665,2.123 -9.443,-1.218 -11.373,-6.368 -2.123,-5.666 -0.134,-8.819 2.648,-9.861 2.832,-1.061 4.543,0.059 5.669,1.34 1.945,2.208 3.869,5.305 7.151,9.83 4.054,5.646 8.559,6.071 12.371,4.643 7.364,-2.76 8.267,-10.851 5.776,-17.495 -2.876,-7.673 -9.357,-12.586 -17.03,-9.709 l 2.413,6.437 c 4.854,-1.467 7.801,1.069 9.461,5.499 1.119,2.986 1.447,7.151 -2.261,8.541 -2.575,0.965 -4.673,-0.245 -6.379,-2.602 -0.366,-0.507 -5.527,-7.853 -6.808,-9.546 -3.256,-4.301 -8.245,-5.075 -12.056,-3.645 -8.239,3.088 -8.795,11.636 -6.054,18.949 3.147,8.394 9.711,13.686 18.885,10.424 L 0,0"
         style="fill:#2e3192;fill-opacity:1;fill-rule:nonzero;stroke:none"
         transform="matrix(1.3333333,0,0,-1.3333333,500.21733,353.476)" />
      <path
         id="path20"
         d="m 0,0 c -5.077,3.29 -9.484,0.838 -12.475,-3.779 -3.29,-5.077 -2.023,-8.584 0.469,-10.2 2.539,-1.644 4.451,-0.918 5.826,0.092 2.373,1.74 4.917,4.352 9.094,8.066 5.172,4.645 9.664,4.094 13.08,1.881 6.601,-4.277 5.745,-12.374 1.888,-18.328 -4.457,-6.877 -11.842,-10.285 -18.719,-5.828 l 3.738,5.77 c 4.426,-2.475 7.85,-0.63 10.422,3.339 1.735,2.678 2.949,6.675 -0.375,8.829 -2.308,1.495 -4.617,0.763 -6.789,-1.172 -0.467,-0.418 -7.085,-6.485 -8.699,-7.864 -4.104,-3.502 -9.143,-3.186 -12.558,-0.972 -7.385,4.785 -6.092,13.253 -1.845,19.806 4.874,7.525 12.423,11.286 20.682,6.129 L 0,0"
         style="fill:#2e3192;fill-opacity:1;fill-rule:nonzero;stroke:none"
         transform="matrix(1.3333333,0,0,-1.3333333,480.888,397.656)" />
      <path
         id="path21"
         d="m 0,0 c -3.449,-4.97 -1.137,-9.453 3.38,-12.588 4.971,-3.45 8.516,-2.296 10.209,0.145 1.725,2.484 1.06,4.419 0.094,5.826 -1.663,2.426 -4.192,5.052 -7.773,9.344 -4.478,5.317 -3.784,9.789 -1.463,13.132 4.484,6.461 12.549,5.349 18.377,1.304 6.732,-4.672 9.902,-12.161 5.23,-18.893 l -5.647,3.919 c 2.613,4.345 0.879,7.826 -3.007,10.523 -2.621,1.818 -6.577,3.158 -8.835,-0.095 -1.568,-2.259 -0.91,-4.59 0.955,-6.822 0.403,-0.481 6.256,-7.287 7.583,-8.944 3.369,-4.212 2.894,-9.239 0.573,-12.581 -5.017,-7.23 -13.439,-5.668 -19.855,-1.216 -7.365,5.111 -10.883,12.774 -5.468,20.866 L 0,0"
         style="fill:#2e3192;fill-opacity:1;fill-rule:nonzero;stroke:none"
         transform="matrix(1.3333333,0,0,-1.3333333,138.36133,478.49867)" />
      <path
         id="path22"
         d="m 0,0 c -2.802,-6.995 -2.294,-15.196 5.518,-18.324 7.811,-3.129 13.839,2.455 16.64,9.45 C 24.959,-1.88 24.452,6.322 16.641,9.451 8.829,12.578 2.801,6.994 0,0 Z M 28.54,-11.429 C 24.368,-21.845 14.357,-27.908 3.432,-23.532 -7.494,-19.156 -10.554,-7.86 -6.383,2.556 -2.211,12.971 7.8,19.034 18.726,14.658 29.651,10.283 32.711,-1.014 28.54,-11.429"
         style="fill:#2e3192;fill-opacity:1;fill-rule:nonzero;stroke:none"
         transform="matrix(1.3333333,0,0,-1.3333333,184.77467,497.24)" />
      <path
         id="path23"
         d="m 0,0 c -0.517,4.628 -2.946,8.302 -8.611,9.097 -8.335,1.169 -12.853,-5.696 -13.9,-13.159 -1.047,-7.463 1.407,-15.306 9.741,-16.475 6.047,-0.849 10.004,3.206 11.344,8.795 l 6.646,-0.933 c -1.852,-9.238 -9.345,-14.741 -18.769,-13.419 -11.657,1.636 -17.331,11.875 -15.772,22.987 1.56,11.114 9.832,19.396 21.49,17.759 C 0.931,13.367 7.17,7.549 6.809,-0.955 L 0,0"
         style="fill:#2e3192;fill-opacity:1;fill-rule:nonzero;stroke:none"
         transform="matrix(1.3333333,0,0,-1.3333333,269.23867,510.10533)" />
      <path
         id="path24"
         d="M 0,0 6.874,0.11 7.505,-39.154 0.631,-39.265 0,0"
         style="fill:#2e3192;fill-opacity:1;fill-rule:nonzero;stroke:none"
         transform="matrix(1.3333333,0,0,-1.3333333,282.41733,493.71467)" />
      <path
         id="path25"
         d="m 0,0 27.905,4.541 0.954,-5.864 -21.119,-3.436 1.652,-10.153 19.545,3.181 0.901,-5.537 -19.545,-3.181 1.847,-11.346 21.498,3.498 0.955,-5.864 L 6.307,-38.763 0,0"
         style="fill:#2e3192;fill-opacity:1;fill-rule:nonzero;stroke:none"
         transform="matrix(1.3333333,0,0,-1.3333333,302.576,493.74933)" />
      <path
         id="path26"
         d="M 0,0 29.484,11.888 31.705,6.379 20.127,1.71 32.59,-29.203 26.215,-31.773 13.75,-0.861 2.221,-5.509 0,0"
         style="fill:#2e3192;fill-opacity:1;fill-rule:nonzero;stroke:none"
         transform="matrix(1.3333333,0,0,-1.3333333,344.18533,486.58667)" />
      <path
         id="path27"
         d="m 0,0 -25.729,11.179 6.547,4.553 L -0.599,7.22 -2.251,27.509 4.071,31.905 5.644,3.925 14.436,-8.718 8.793,-12.643 0,0"
         style="fill:#2e3192;fill-opacity:1;fill-rule:nonzero;stroke:none"
         transform="matrix(1.3333333,0,0,-1.3333333,418.98133,485.37733)" />
      <path
         id="path28"
         d="m 0,0 c -73.473,0 -133.248,-59.774 -133.248,-133.247 0,-73.474 59.775,-133.248 133.248,-133.248 73.474,0 133.248,59.774 133.248,133.248 C 133.248,-59.774 73.474,0 0,0 Z m 0,-275.495 c -78.436,0 -142.248,63.812 -142.248,142.248 C -142.248,-54.812 -78.436,9 0,9 78.436,9 142.248,-54.812 142.248,-133.247 142.248,-211.683 78.436,-275.495 0,-275.495"
         style="fill:#ed1c24;fill-opacity:1;fill-rule:nonzero;stroke:none"
         transform="matrix(1.3333333,0,0,-1.3333333,286.32533,108.66133)" />
      <path
         id="path29"
         d="m 0,0 c -113.448,0 -205.744,-92.296 -205.744,-205.743 0,-113.447 92.296,-205.744 205.744,-205.744 113.447,0 205.743,92.297 205.743,205.744 C 205.743,-92.296 113.447,0 0,0 Z m 0,-420.487 c -57.36,0 -111.287,22.337 -151.847,62.896 -40.56,40.561 -62.897,94.487 -62.897,151.848 0,57.36 22.337,111.286 62.897,151.846 C -111.287,-13.337 -57.36,9 0,9 c 57.36,0 111.287,-22.337 151.847,-62.897 40.559,-40.56 62.896,-94.486 62.896,-151.846 0,-57.361 -22.337,-111.287 -62.896,-151.848 C 111.287,-398.15 57.36,-420.487 0,-420.487"
         style="fill:#ed1c24;fill-opacity:1;fill-rule:nonzero;stroke:none"
         transform="matrix(1.3333333,0,0,-1.3333333,286.32533,12)"
         clip-path="url(#clipPath30)" />
      <path
         id="path31"
         d="m 0,0 h -73.973 v 73.973 h -67.193 V 0 h -73.973 v -67.193 h 73.973 v -73.973 h 67.193 v 73.973 H 0 V 0"
         style="fill:#ed1c24;fill-opacity:1;fill-rule:nonzero;stroke:none"
         transform="matrix(1.3333333,0,0,-1.3333333,429.75067,241.52933)" />
    </g>
  </g>
</svg>
