<?xml version="1.0" encoding="UTF-8" standalone="no"?>
<svg
   xmlns:dc="http://purl.org/dc/elements/1.1/"
   xmlns:cc="http://creativecommons.org/ns#"
   xmlns:rdf="http://www.w3.org/1999/02/22-rdf-syntax-ns#"
   xmlns:svg="http://www.w3.org/2000/svg"
   xmlns="http://www.w3.org/2000/svg"
   viewBox="0 0 507.92001 507.92001"
   height="507.92001"
   width="507.92001"
   xml:space="preserve"
   id="svg2"
   version="1.1"><metadata
     id="metadata8"><rdf:RDF><cc:Work
         rdf:about=""><dc:format>image/svg+xml</dc:format><dc:type
           rdf:resource="http://purl.org/dc/dcmitype/StillImage" /><dc:title></dc:title></cc:Work></rdf:RDF></metadata><defs
     id="defs6" /><g
     transform="matrix(1.3333333,0,0,-1.3333333,0,507.92)"
     id="g10"><g
       transform="scale(0.1)"
       id="g12"><path
         id="path14"
         style="fill:#ed192d;fill-opacity:1;fill-rule:nonzero;stroke:none"
         d="m 0,1904.69 c 0,1051.93 852.758,1904.69 1904.69,1904.69 1051.92,0 1904.69,-852.76 1904.69,-1904.69 C 3809.38,852.77 2956.61,0 1904.69,0 852.758,0 0,852.77 0,1904.69" /><path
         id="path16"
         style="fill:#ffffff;fill-opacity:1;fill-rule:nonzero;stroke:none"
         d="m 541.441,1904.69 c 0,752.9 610.349,1363.24 1363.249,1363.24 752.9,0 1363.25,-610.34 1363.25,-1363.24 0,-752.9 -610.35,-1363.249 -1363.25,-1363.249 -752.9,0 -1363.249,610.349 -1363.249,1363.249" /><path
         id="path18"
         style="fill:none;stroke:#ed192d;stroke-width:50;stroke-linecap:butt;stroke-linejoin:miter;stroke-miterlimit:4;stroke-dasharray:none;stroke-opacity:1"
         d="m 541.441,1904.69 c 0,752.9 610.349,1363.24 1363.249,1363.24 752.9,0 1363.25,-610.34 1363.25,-1363.24 0,-752.9 -610.35,-1363.249 -1363.25,-1363.249 -752.9,0 -1363.249,610.349 -1363.249,1363.249 z" /><path
         id="path20"
         style="fill:#ffffff;fill-opacity:1;fill-rule:nonzero;stroke:none"
         d="m 176.664,2030.38 3.055,24.68 212.941,110.81 0.082,0.65 -196.191,24.31 2.734,22.1 231.922,-28.75 -3.059,-24.69 -212.941,-110.8 -0.078,-0.66 196.187,-24.31 -2.738,-22.09 -231.914,28.75" /><path
         id="path22"
         style="fill:#ffffff;fill-opacity:1;fill-rule:nonzero;stroke:none"
         d="m 360.762,2282.35 24.238,88.72 -127.461,-12 z m -127.715,71.54 6.558,24 249.594,26.8 -6.301,-23.05 -77.597,-8.31 -28.039,-102.62 62.676,-46.3 -6.301,-23.05 -200.59,152.53" /><path
         id="path24"
         style="fill:#ffffff;fill-opacity:1;fill-rule:nonzero;stroke:none"
         d="m 281.086,2516.27 13.469,29.84 220.031,-10.65 -153.617,157.72 13.469,29.83 213.007,-96.18 -9.16,-20.28 -184.07,83.11 -0.27,-0.59 151.203,-155.91 -8.621,-19.09 -217.078,10.02 -0.265,-0.6 184.066,-83.11 -9.156,-20.29 -213.008,96.18" /><path
         id="path26"
         style="fill:#ffffff;fill-opacity:1;fill-rule:nonzero;stroke:none"
         d="m 413.656,2785.61 11.414,19.11 200.688,-119.85 -11.41,-19.12 -200.692,119.86" /><path
         id="path28"
         style="fill:#ffffff;fill-opacity:1;fill-rule:nonzero;stroke:none"
         d="m 647.785,2756.78 45.438,61.67 c 19.879,26.42 27.816,55.95 -2.227,78.09 -23.98,17.67 -49.766,8.61 -72.871,-22.75 l -45.441,-61.66 z m -90.39,66.61 45.445,61.67 c 21.164,28.72 17.031,52.91 -0.621,65.92 -23.453,17.29 -45.989,11.53 -66.574,-16.41 l -45.442,-61.66 z m -95.68,42.87 58.644,79.58 c 23.301,31.62 55.539,52.19 90.586,26.36 19.762,-14.57 28.235,-41.14 18.082,-63.75 l 0.528,-0.38 c 21.023,21.91 50.668,24.06 75.175,6 17.918,-13.21 48.833,-45.75 3.778,-106.88 l -58.645,-79.59 -188.148,138.66" /><path
         id="path30"
         style="fill:#ffffff;fill-opacity:1;fill-rule:nonzero;stroke:none"
         d="m 611.352,3057.37 14.875,16.56 173.886,-156.16 -14.875,-16.56 -173.886,156.16" /><path
         id="path32"
         style="fill:#ffffff;fill-opacity:1;fill-rule:nonzero;stroke:none"
         d="m 794.316,3044.67 67.5,62.48 -114.531,57.23 z m -70.554,128.27 18.254,16.89 226.011,-109.25 -17.531,-16.23 -70.262,33.98 -78.066,-72.26 28.703,-72.44 -17.535,-16.24 -89.574,235.55" /><path
         id="path34"
         style="fill:#ffffff;fill-opacity:1;fill-rule:nonzero;stroke:none"
         d="m 1014.49,3263.31 71.09,43.14 c 23.22,14.09 34.26,40.7 19.49,65.05 -14.77,24.34 -38.67,30.9 -67.21,13.58 l -71.09,-43.13 z m -76.599,83.32 91.519,55.53 c 33.02,20.04 70.41,20.91 92.31,-15.2 15.29,-25.18 14.7,-53.88 -7.99,-74.54 l 0.34,-0.56 c 28.07,12.44 46.49,-0.89 62.33,-23.82 9.16,-13.22 25.8,-40.64 40.31,-45.62 l -20.99,-12.74 c -9.52,4.95 -18.52,19.78 -24.17,27.84 -18.66,26.97 -39.75,56.67 -75,33.37 l -72.21,-43.82 53.83,-88.71 -19.03,-11.55 -121.249,199.82" /><path
         id="path36"
         style="fill:#ffffff;fill-opacity:1;fill-rule:nonzero;stroke:none"
         d="m 1151.86,3469.52 147.98,64.33 7.56,-17.41 -127.56,-55.45 33.66,-77.44 119.46,51.93 7.57,-17.41 -119.46,-51.93 36.79,-84.64 129.07,56.11 7.56,-17.41 -149.47,-64.98 -93.16,214.3" /><path
         id="path38"
         style="fill:#ffffff;fill-opacity:1;fill-rule:nonzero;stroke:none"
         d="m 1437.31,3353.8 45.71,12.75 c 64.72,17.72 85.13,52.97 66.4,120.13 -18.73,67.15 -54.44,86.75 -118.99,68.41 l -45.71,-12.75 z m -79.13,200.84 77.87,21.73 c 68.23,17.33 114.23,-9.94 134.81,-83.71 20.58,-73.78 -4.67,-120.92 -72.02,-141.4 l -77.87,-21.73 -62.79,225.11" /><path
         id="path40"
         style="fill:#ffffff;fill-opacity:1;fill-rule:nonzero;stroke:none"
         d="m 1887.51,3573.16 c -10.03,35.47 -41.01,54.25 -75,52.19 -61.76,-3.75 -84.77,-56.97 -81.68,-107.95 3.1,-50.97 32.37,-101.02 94.14,-97.27 43.13,2.62 68.56,37.61 70.29,79.37 l 22.22,1.35 c -2.75,-57.56 -36.8,-96.37 -91.37,-99.68 -73.52,-4.46 -113.63,51.16 -117.5,114.88 -3.87,63.73 29.23,123.79 102.75,128.25 44.12,2.68 89.51,-21.14 98.37,-69.8 l -22.22,-1.34" /><path
         id="path42"
         style="fill:#ffffff;fill-opacity:1;fill-rule:nonzero;stroke:none"
         d="m 1985.98,3530.71 82.86,-7 c 27.07,-2.28 51.66,12.72 54.06,41.1 2.39,28.38 -13.05,47.75 -46.32,50.56 l -82.85,7 z m -12.83,112.45 106.66,-9.01 c 38.49,-3.25 69.21,-24.57 65.65,-66.65 -2.48,-29.35 -19.85,-52.2 -50.35,-55.53 l -0.05,-0.66 c 30,-6.47 37.04,-28.09 36.33,-55.95 -0.36,-16.07 -3.07,-48.04 5.73,-60.61 l -24.47,2.07 c -4.78,9.6 -3.31,26.89 -3.14,36.73 0.8,32.79 1.25,69.21 -40.96,71.13 l -84.16,7.11 -8.73,-103.4 -22.19,1.88 19.68,232.89" /><path
         id="path44"
         style="fill:#ffffff;fill-opacity:1;fill-rule:nonzero;stroke:none"
         d="m 2265.03,3380.95 c 59.83,-14.32 97.33,29.89 109.21,79.54 11.87,49.66 -1.56,106.04 -61.41,120.36 -60.15,14.38 -97.64,-29.82 -109.53,-79.47 -11.88,-49.66 1.56,-106.04 61.73,-120.43 z m 52.22,218.35 c 71.31,-17.05 93.48,-81.91 78.63,-143.99 -14.84,-62.07 -63.97,-109.88 -135.27,-92.82 -71.62,17.12 -93.8,81.99 -78.95,144.06 14.85,62.07 63.97,109.89 135.59,92.75" /><path
         id="path46"
         style="fill:#ffffff;fill-opacity:1;fill-rule:nonzero;stroke:none"
         d="m 2436.05,3397.55 c -18.87,-44.26 7.82,-70.87 47.29,-86.75 22.78,-9.17 62.4,-10.64 75.1,20.94 9.9,24.59 -10.8,44.2 -28.88,57.12 l -43.51,31.27 c -22.94,16.63 -41.44,38.18 -27.87,71.88 8.55,21.26 38.21,55.53 99.24,30.98 42.82,-17.22 71.18,-55.44 53.05,-99.65 l -20.66,8.31 c 12.1,33.58 -8.5,61.28 -39.17,73.61 -28.24,11.36 -58.74,10.94 -71.7,-21.25 -8.18,-20.34 3.58,-34.95 19.49,-46.29 l 47.57,-34.31 c 27.37,-20.53 47.5,-44.15 33.21,-79.68 -5.99,-14.87 -30.99,-59.49 -107.81,-28.59 -51.31,20.64 -79.68,58.87 -55.99,110.72 l 20.64,-8.31" /><path
         id="path48"
         style="fill:#ffffff;fill-opacity:1;fill-rule:nonzero;stroke:none"
         d="m 2632.21,3313.12 c -24.68,-41.32 -1.83,-71.3 35.15,-92.37 21.33,-12.16 60.4,-18.98 77.25,10.6 13.14,23.04 -4.72,45.27 -20.89,60.51 l -38.91,36.87 c -20.48,19.59 -35.9,43.45 -17.9,75.02 11.35,19.91 45.39,49.87 102.55,17.29 40.1,-22.86 63.04,-64.58 39.09,-105.93 l -19.34,11.02 c 16.54,31.64 -0.15,61.88 -28.87,78.25 -26.45,15.07 -56.74,18.78 -73.93,-11.37 -10.86,-19.05 -1.18,-35.12 13.05,-48.51 l 42.52,-40.43 c 24.34,-24.05 41.1,-50.19 22.13,-83.46 -7.94,-13.94 -38.76,-54.78 -110.71,-13.76 -48.06,27.39 -71.01,69.11 -40.52,117.3 l 19.33,-11.03" /><path
         id="path50"
         style="fill:#ffffff;fill-opacity:1;fill-rule:nonzero;stroke:none"
         d="m 2894.45,3143.75 c -32.31,-35.67 -15.79,-69.55 16.32,-97.47 18.52,-16.11 55.49,-30.47 77.83,-4.78 17.4,20.01 4.26,45.32 -8.6,63.45 l -30.91,43.78 c -16.23,23.22 -26.66,49.65 -2.82,77.07 15.03,17.29 54.28,39.98 103.94,-3.19 34.82,-30.29 49.13,-75.69 17.53,-111.54 l -16.8,14.61 c 22.42,27.78 12.01,60.69 -12.95,82.39 -22.97,19.97 -51.94,29.55 -74.71,3.36 -14.39,-16.55 -8.05,-34.2 3.27,-50.12 l 33.74,-47.99 c 19.15,-28.36 30.46,-57.27 5.32,-86.17 -10.52,-12.11 -48.76,-46.1 -111.25,8.24 -41.75,36.3 -56.06,81.7 -16.71,122.97 l 16.8,-14.61" /><path
         id="path52"
         style="fill:#ffffff;fill-opacity:1;fill-rule:nonzero;stroke:none"
         d="m 3062.08,2893.32 c 40.1,-46.69 96.41,-32.87 135.16,0.4 38.74,33.27 60.93,86.84 20.83,133.53 -40.3,46.95 -96.62,33.12 -135.36,-0.15 -38.75,-33.26 -60.93,-86.83 -20.63,-133.78 z m 170.4,146.3 c 47.76,-55.64 27.69,-121.2 -20.74,-162.79 -48.44,-41.59 -116.28,-51.52 -164.06,4.12 -47.98,55.89 -27.91,121.46 20.53,163.04 48.43,41.59 116.28,51.52 164.27,-4.37" /><path
         id="path54"
         style="fill:#ffffff;fill-opacity:1;fill-rule:nonzero;stroke:none"
         d="m 3368.5,2716.28 c 26.45,25.67 28.24,61.85 10.28,90.77 -32.63,52.55 -90.39,47.51 -133.76,20.56 -43.38,-26.93 -73.49,-76.46 -40.85,-129.02 22.8,-36.7 65.66,-42.44 103.22,-24.12 l 11.75,-18.91 c -51.94,-24.94 -102.26,-13.42 -131.1,33.02 -38.85,62.56 -8.99,124.27 45.23,157.94 54.23,33.68 122.78,33.11 161.64,-29.45 23.32,-37.54 23.94,-88.79 -14.67,-119.7 l -11.74,18.91" /><path
         id="path56"
         style="fill:#ffffff;fill-opacity:1;fill-rule:nonzero;stroke:none"
         d="m 3466.67,2677.66 9.78,-20 -209.99,-102.67 -9.77,20 209.98,102.67" /><path
         id="path58"
         style="fill:#ffffff;fill-opacity:1;fill-rule:nonzero;stroke:none"
         d="m 3507.01,2594.23 57.61,-150.73 -17.74,-6.78 -49.66,129.94 -78.88,-30.15 46.51,-121.69 -17.74,-6.77 -46.5,121.68 -86.23,-32.95 50.25,-131.47 -17.73,-6.77 -58.2,152.26 218.31,83.43" /><path
         id="path60"
         style="fill:#ffffff;fill-opacity:1;fill-rule:nonzero;stroke:none"
         d="m 3575.33,2410.44 44.12,-179.99 -18.44,-4.52 -19.41,79.19 -208.61,-51.14 -5.31,21.63 208.62,51.13 -19.41,79.19 18.44,4.51" /><path
         id="path62"
         style="fill:#ffffff;fill-opacity:1;fill-rule:nonzero;stroke:none"
         d="m 3497.89,2101.56 126.11,107.11 3.03,-26.35 -108.97,-89.97 126.5,-62.58 3.03,-26.35 -147.16,76.02 -95.63,-10.99 -2.54,22.12 95.63,10.99" /><path
         id="path64"
         style="fill:#ffffff;fill-opacity:1;fill-rule:nonzero;stroke:none"
         d="m 1483.9,467.34 24.47,-5.531 90.07,-224.68 0.64,-0.141 43.87,194.461 21.89,-4.929 -51.86,-229.879 -24.46,5.507 -90.07,224.68 -0.64,0.152 -43.87,-194.46 -21.89,4.941 51.85,229.879" /><path
         id="path66"
         style="fill:#ffffff;fill-opacity:1;fill-rule:nonzero;stroke:none"
         d="m 1727.79,306.77 83.6,-5.821 c 27.32,-1.89 51.88,13.602 53.87,42.231 1.99,28.629 -13.86,47.929 -47.44,50.261 l -83.6,5.809 z m -14.62,113.128 107.63,-7.48 c 38.83,-2.707 70.11,-23.727 67.16,-66.18 -2.06,-29.629 -19.22,-52.91 -49.91,-56.726 l -0.05,-0.66 c 30.34,-6.071 37.76,-27.762 37.45,-55.852 -0.13,-16.199 -2.37,-48.449 6.68,-60.98 l -24.69,1.718 c -4.95,9.602 -3.74,27.043 -3.71,36.961 0.31,33.051 0.22,69.762 -42.35,71.071 l -84.92,5.91 -7.25,-104.328 -22.38,1.546 16.34,235" /><path
         id="path68"
         style="fill:#ffffff;fill-opacity:1;fill-rule:nonzero;stroke:none"
         d="m 2112.43,350.641 c -10.81,35.558 -42.42,53.871 -76.63,51.097 -62.18,-5.019 -84.31,-59.117 -80.17,-110.437 4.15,-51.321 34.66,-101.18 96.84,-96.16 43.43,3.507 68.35,39.289 69.26,81.418 l 22.36,1.8 c -1.6,-58.07 -35.14,-97.871 -90.08,-102.3 -74.02,-5.977 -115.56,49.293 -120.74,113.441 -5.18,64.148 26.96,125.352 100.99,131.328 44.41,3.582 90.64,-19.519 100.54,-68.379 l -22.37,-1.808" /><path
         id="path70"
         style="fill:#ffffff;fill-opacity:1;fill-rule:nonzero;stroke:none"
         d="m 2214.18,279.66 c 10.07,-47.461 47.51,-53.961 89.29,-44.199 24.1,5.629 57.65,27.367 49.84,60.789 -6.07,26.02 -34.51,30.23 -56.91,30.422 l -54.03,0.59 c -28.57,0.437 -56.32,7.508 -64.66,43.187 -5.25,22.492 -0.62,67.961 63.97,83.051 45.31,10.59 90.87,-4.52 101.5,-51.512 l -21.85,-5.109 c -9.46,34.73 -42.51,45.652 -74.97,38.062 -29.89,-6.98 -54.82,-25 -46.87,-59.07 5.03,-21.531 23.21,-26.769 42.89,-26.922 l 59.14,-0.75 c 34.5,-1.09 64.79,-8.929 73.57,-46.519 3.68,-15.758 8.88,-67.071 -72.41,-86.059 -54.31,-12.68 -99.87,2.43 -110.36,58.949 l 21.86,5.09" /><path
         id="path72"
         style="fill:#ed192d;fill-opacity:1;fill-rule:nonzero;stroke:none"
         d="M 1558.47,1558.13 H 814.305 v 692.48 h 744.165 l -0.06,744.59 h 692.54 v -744.14 l -0.07,-0.29 h 744.19 v -692.54 h -744.19 l 0.07,0.1 V 814.18 h -692.54 v 744.15 l 0.06,-0.2" /></g></g></svg>