<?xml version="1.0" encoding="UTF-8" standalone="no"?>
<svg
   xmlns:dc="http://purl.org/dc/elements/1.1/"
   xmlns:cc="http://creativecommons.org/ns#"
   xmlns:rdf="http://www.w3.org/1999/02/22-rdf-syntax-ns#"
   xmlns:svg="http://www.w3.org/2000/svg"
   xmlns="http://www.w3.org/2000/svg"
   viewBox="0 0 511.25333 511.25333"
   height="511.25333"
   width="511.25333"
   xml:space="preserve"
   id="svg2"
   version="1.1"><metadata
     id="metadata8"><rdf:RDF><cc:Work
         rdf:about=""><dc:format>image/svg+xml</dc:format><dc:type
           rdf:resource="http://purl.org/dc/dcmitype/StillImage" /><dc:title></dc:title></cc:Work></rdf:RDF></metadata><defs
     id="defs6" /><g
     transform="matrix(1.3333333,0,0,-1.3333333,0,511.25333)"
     id="g10"><g
       transform="scale(0.1)"
       id="g12"><path
         id="path14"
         style="fill:#ed192d;fill-opacity:1;fill-rule:nonzero;stroke:none"
         d="M 1589.01,1588.68 H 823.148 v 656.38 h 765.862 l -0.06,0.45 v 765.84 h 656.45 v -765.84 l -0.07,-0.29 h 765.9 v -656.45 h -765.9 l 0.07,0.11 V 823.02 h -656.45 v 765.86 l 0.06,-0.2" /><path
         id="path16"
         style="fill:#231f20;fill-opacity:1;fill-rule:nonzero;stroke:none"
         d="m 1917.19,3267.93 c -744.81,0 -1350.749,-605.94 -1350.749,-1350.74 0,-744.8 605.939,-1350.749 1350.749,-1350.749 744.8,0 1350.75,605.949 1350.75,1350.749 0,744.8 -605.95,1350.74 -1350.75,1350.74 z m 0,-2726.489 c -758.59,0 -1375.749,617.159 -1375.749,1375.749 0,758.59 617.159,1375.74 1375.749,1375.74 758.59,0 1375.75,-617.15 1375.75,-1375.74 0,-758.59 -617.16,-1375.749 -1375.75,-1375.749" /><path
         id="path18"
         style="fill:#231f20;fill-opacity:1;fill-rule:nonzero;stroke:none"
         d="M 1917.19,3809.38 C 873.832,3809.38 25,2960.55 25,1917.19 25,873.832 873.832,25 1917.19,25 c 1043.36,0 1892.19,848.832 1892.19,1892.19 0,1043.36 -848.83,1892.19 -1892.19,1892.19 z M 1917.19,0 C 860.043,0 0,860.039 0,1917.19 c 0,1057.15 860.043,1917.19 1917.19,1917.19 1057.15,0 1917.19,-860.04 1917.19,-1917.19 C 3834.38,860.039 2974.34,0 1917.19,0" /><path
         id="path20"
         style="fill:#231f20;fill-opacity:1;fill-rule:nonzero;stroke:none"
         d="m 208.438,2321.72 51.765,177.65 20.735,-6.04 158.652,-222.46 48.34,165.89 20.05,-5.84 -55.996,-192.16 -20.738,6.04 -158.652,222.46 -44.11,-151.38 -20.046,5.84" /><path
         id="path22"
         style="fill:#231f20;fill-opacity:1;fill-rule:nonzero;stroke:none"
         d="m 287.426,2564.92 9.207,22.68 238.156,-96.64 -9.203,-22.68 -238.16,96.64" /><path
         id="path24"
         style="fill:#231f20;fill-opacity:1;fill-rule:nonzero;stroke:none"
         d="m 331.098,2675.72 17.824,31.29 239.84,-34.31 -151.977,188.51 17.824,31.29 223.34,-127.25 -12.121,-21.28 -192.996,109.97 -0.355,-0.62 149.515,-186.29 -11.406,-20.02 -236.668,33.32 -0.359,-0.62 193.004,-109.96 -12.122,-21.28 -223.343,127.25" /><path
         id="path26"
         style="fill:#231f20;fill-opacity:1;fill-rule:nonzero;stroke:none"
         d="m 712.832,2842.61 54.379,64.34 c 23.746,27.54 34.613,59.36 3.273,85.85 -25.023,21.15 -53.98,13.1 -81.636,-19.62 l -54.379,-64.34 z m -94.312,79.71 54.378,64.34 c 25.329,29.97 22.567,56.82 4.149,72.39 -24.473,20.68 -49.629,16.01 -74.266,-13.13 l -54.379,-64.34 z m -101.864,54.04 70.18,83.04 c 27.887,32.99 64.766,53.2 101.34,22.3 20.617,-17.43 27.972,-47.22 15.176,-71.28 l 0.55,-0.46 c 24.676,22.5 57.364,22.69 82.934,1.08 18.695,-15.81 50.238,-53.78 -3.676,-117.57 l -70.18,-83.04 -196.324,165.93" /><path
         id="path28"
         style="fill:#231f20;fill-opacity:1;fill-rule:nonzero;stroke:none"
         d="m 837.738,3095.39 76.711,65.94 -123.566,67.52 z m -72.367,143.81 20.746,17.84 243.993,-129.2 -19.92,-17.13 -75.854,40.18 -88.715,-76.26 28.621,-80.79 -19.926,-17.13 -88.945,262.49" /><path
         id="path30"
         style="fill:#231f20;fill-opacity:1;fill-rule:nonzero;stroke:none"
         d="m 1065.46,3174.84 71.8,44.06 c 31.18,18.71 51.47,45.53 30.01,80.51 -17.13,27.93 -47.16,29.36 -83.67,6.95 l -71.81,-44.06 z m -64.59,105.25 71.81,44.07 c 33.44,20.52 39.23,46.88 26.62,67.44 -16.76,27.31 -42.11,30.76 -74.64,10.8 l -71.805,-44.06 z m -79.8,83.25 92.67,56.86 c 36.82,22.59 78.18,30.23 103.22,-10.58 14.12,-23.01 11.77,-53.6 -7.92,-72.45 l 0.37,-0.61 c 30.49,13.64 61.59,3.58 79.1,-24.96 12.81,-20.87 30.86,-66.81 -40.33,-110.49 l -92.67,-56.87 -134.44,219.1" /><path
         id="path32"
         style="fill:#231f20;fill-opacity:1;fill-rule:nonzero;stroke:none"
         d="m 1151.29,3503.22 24.62,9.19 133.3,-190.37 0.68,0.26 -20,232.66 28.66,10.7 137.69,-188.73 0.68,0.25 -23.72,231.28 22.94,8.56 23.44,-265.57 -24.27,-9.07 -141.48,192.7 -0.68,-0.25 19.75,-238.15 -24.96,-9.3 -156.65,215.84" /><path
         id="path34"
         style="fill:#231f20;fill-opacity:1;fill-rule:nonzero;stroke:none"
         d="m 1536.02,3630.86 174.9,30.32 3.57,-20.57 -150.78,-26.14 15.87,-91.53 141.2,24.48 3.56,-20.58 -141.2,-24.48 17.34,-100.04 152.56,26.45 3.56,-20.59 -176.67,-30.62 -43.91,253.3" /><path
         id="path36"
         style="fill:#231f20;fill-opacity:1;fill-rule:nonzero;stroke:none"
         d="m 1939.29,3549.82 91.32,-5.07 c 29.83,-1.66 56.39,15.62 58.13,46.89 1.74,31.27 -15.85,52.09 -52.52,54.13 l -91.31,5.07 z m -17.67,123.23 117.56,-6.53 c 42.42,-2.36 76.86,-24.83 74.29,-71.21 -1.8,-32.35 -20.18,-58.01 -53.61,-62.64 l -0.04,-0.72 c 33.2,-6.18 41.62,-29.72 41.72,-60.38 0.1,-17.68 -1.86,-52.91 8.21,-66.45 l -26.97,1.5 c -5.54,10.41 -4.49,29.46 -4.61,40.29 -0.15,36.06 -0.82,76.13 -47.29,76.91 l -92.75,5.16 -6.33,-113.96 -24.45,1.35 14.27,256.68" /><path
         id="path38"
         style="fill:#231f20;fill-opacity:1;fill-rule:nonzero;stroke:none"
         d="m 2206.91,3648.55 173.55,-37.15 -4.38,-20.42 -149.61,32.03 -19.44,-90.82 140.1,-30 -4.37,-20.42 -140.1,30.01 -21.26,-99.28 151.36,-32.41 -4.36,-20.41 -175.31,37.53 53.82,251.34" /><path
         id="path40"
         style="fill:#231f20;fill-opacity:1;fill-rule:nonzero;stroke:none"
         d="m 2397.72,3358.55 48.68,-18.88 c 68.68,-27.01 109.88,-9.39 137.6,62.11 27.73,71.51 9.17,112.29 -59.77,138.64 l -48.67,18.87 z m 62.55,229.06 82.92,-32.15 c 71.53,-29.66 94.1,-83.98 63.65,-162.53 -30.46,-78.55 -83.75,-103.46 -156.58,-77.15 l -82.92,32.15 92.93,239.68" /><path
         id="path42"
         style="fill:#231f20;fill-opacity:1;fill-rule:nonzero;stroke:none"
         d="m 2954.06,3236.37 c 15.79,37.33 2.12,74.75 -28.46,96.35 -55.57,39.25 -111.91,9.41 -144.31,-36.47 -32.39,-45.86 -41.68,-108.93 13.89,-148.19 38.81,-27.41 84.69,-14.86 114.89,19.78 l 20,-14.13 c -41.94,-47.5 -97.83,-57.38 -146.94,-22.7 -66.16,46.72 -62.33,122.03 -21.83,179.37 40.5,57.33 110.18,86.12 176.35,39.39 39.68,-28.03 62.27,-79.68 36.41,-127.52 l -20,14.12" /><path
         id="path44"
         style="fill:#231f20;fill-opacity:1;fill-rule:nonzero;stroke:none"
         d="m 3018.49,3122.63 64.79,-64.49 c 21.18,-21.08 52.49,-25.84 74.58,-3.64 22.09,22.19 22.79,49.43 -3.23,75.32 l -64.8,64.5 z m 68.72,103.75 83.42,-83.02 c 30.11,-29.97 40.89,-69.65 8.14,-102.56 -22.85,-22.96 -53.63,-29.91 -81.67,-11.14 l -0.51,-0.51 c 20.68,-26.67 11.32,-49.86 -8.99,-72.81 -11.67,-13.27 -36.56,-38.27 -38.05,-55.07 l -19.13,19.04 c 2.77,11.46 16.23,24.98 23.34,33.15 23.86,27.03 50,57.38 15.82,88.86 l -65.82,65.51 -80.49,-80.88 -17.35,17.27 181.29,182.16" /><path
         id="path46"
         style="fill:#231f20;fill-opacity:1;fill-rule:nonzero;stroke:none"
         d="m 3152.43,2788.99 c 39.07,-55.25 102.14,-45.93 147.98,-13.51 45.85,32.43 75.65,88.77 36.58,144.02 -39.28,55.54 -102.33,46.22 -148.18,13.8 -45.84,-32.42 -75.66,-88.77 -36.38,-144.31 z m 201.61,142.57 c 46.56,-65.83 17.82,-135.53 -39.5,-176.06 -57.3,-40.52 -132.6,-44.4 -179.15,21.43 -46.76,66.13 -18.02,135.83 39.29,176.35 57.3,40.53 132.59,44.4 179.36,-21.72" /><path
         id="path48"
         style="fill:#231f20;fill-opacity:1;fill-rule:nonzero;stroke:none"
         d="m 3311.03,2667.64 c -48.2,-21.88 -46.32,-63.3 -26.12,-105.51 11.67,-24.36 42.71,-55 76.48,-38.82 26.3,12.59 24.09,43.86 19.03,67.78 l -12.06,57.69 c -6.24,30.55 -5.23,61.77 30.81,79.03 22.73,10.88 72.27,16.64 103.52,-48.63 21.92,-45.78 16.53,-97.86 -31.04,-120.24 l -10.57,22.08 c 34.77,18.25 38.64,56.03 22.93,88.82 -14.46,30.2 -39.52,52.52 -73.94,36.04 -21.75,-10.42 -23.07,-31 -18.6,-52.01 l 13.09,-63.19 c 6.94,-36.99 5.71,-71.11 -32.28,-89.3 -15.9,-7.62 -69.35,-25.23 -108.69,56.93 -26.28,54.87 -20.88,106.95 36.87,131.41 l 10.57,-22.08" /><path
         id="path50"
         style="fill:#231f20;fill-opacity:1;fill-rule:nonzero;stroke:none"
         d="m 3410.7,2442.3 c -51.01,-14.08 -55.64,-55.27 -42.27,-100.12 7.71,-25.88 33.58,-60.99 69.46,-50.3 27.95,8.33 30.65,39.57 29.38,63.98 l -2.89,58.87 c -1.39,31.14 4.49,61.82 42.79,73.23 24.15,7.21 73.96,5.15 94.64,-64.2 14.5,-48.64 1.03,-99.23 -49.44,-113.91 l -6.99,23.47 c 37.19,12.58 46.9,49.29 36.52,84.14 -9.57,32.08 -30.83,58.05 -67.4,47.15 -23.11,-6.89 -27.64,-27.02 -26.49,-48.47 l 3.05,-64.46 c 1.08,-37.62 -5.46,-71.12 -45.83,-83.15 -16.9,-5.04 -72.44,-14.09 -98.45,73.2 -17.39,58.3 -3.92,108.9 56.93,124.04 l 6.99,-23.47" /><path
         id="path52"
         style="fill:#231f20;fill-opacity:1;fill-rule:nonzero;stroke:none"
         d="m 1174.28,413.41 c -22.28,-48.012 6.14,-78.191 48.99,-97.019 24.72,-10.86 68.23,-13.86 83.29,20.418 11.73,26.703 -10.33,48.98 -29.77,63.812 l -46.76,35.879 c -24.64,19.078 -44.23,43.418 -28.16,80 10.14,23.078 43.94,59.738 110.19,30.621 46.47,-20.422 76.34,-63.41 54.86,-111.391 l -22.41,9.84 c 14.47,36.508 -7.23,67.668 -40.52,82.301 -30.65,13.461 -64.21,14.051 -79.56,-20.883 -9.7,-22.09 2.72,-38.558 19.81,-51.578 l 51.13,-39.359 c 29.38,-23.531 50.69,-50.192 33.75,-88.75 -7.1,-16.153 -36.14,-64.352 -119.52,-27.711 -55.7,24.48 -85.57,67.488 -57.74,123.672 l 22.42,-9.852" /><path
         id="path54"
         style="fill:#231f20;fill-opacity:1;fill-rule:nonzero;stroke:none"
         d="m 1484.04,227.129 c 65.57,-16.75 107.56,31.23 121.46,85.652 13.9,54.41 0.08,116.649 -65.5,133.41 -65.93,16.84 -107.91,-31.152 -121.81,-85.562 -13.9,-54.41 -0.08,-116.66 65.85,-133.5 z m 61.13,239.293 c 78.14,-19.961 101.43,-91.692 84.05,-159.711 -17.37,-68.012 -72.21,-119.77 -150.35,-99.813 -78.48,20.051 -101.78,91.77 -84.4,159.782 17.38,68.031 72.21,119.789 150.7,99.742" /><path
         id="path56"
         style="fill:#231f20;fill-opacity:1;fill-rule:nonzero;stroke:none"
         d="m 1877.53,334.832 c -5.49,40.156 -36.36,65.348 -73.69,68.297 -67.83,5.371 -101.02,-49.059 -105.45,-105.051 -4.43,-55.988 19.8,-114.957 87.63,-120.328 47.37,-3.738 80.41,30.48 88.68,75.691 l 24.41,-1.929 c -11.79,-62.274 -54.8,-99.313 -114.74,-94.571 -80.75,6.387 -115.92,73.079 -110.39,143.059 5.54,70 50.76,130.34 131.51,123.949 48.45,-3.828 94.24,-36.711 96.44,-91.039 l -24.4,1.922" /><path
         id="path58"
         style="fill:#231f20;fill-opacity:1;fill-rule:nonzero;stroke:none"
         d="m 1955.07,414.898 24.46,0.801 8.39,-256.91 -24.46,-0.789 -8.39,256.898" /><path
         id="path60"
         style="fill:#231f20;fill-opacity:1;fill-rule:nonzero;stroke:none"
         d="m 2038.81,417.078 175.88,23.563 2.77,-20.692 -151.62,-20.308 12.32,-92.039 141.99,19.019 2.77,-20.699 -141.98,-19.012 13.46,-100.601 153.4,20.531 2.78,-20.68 -177.67,-23.789 -34.1,254.707" /><path
         id="path62"
         style="fill:#231f20;fill-opacity:1;fill-rule:nonzero;stroke:none"
         d="m 2223.92,442.25 196.3,54.762 5.62,-20.121 -86.37,-24.09 63.47,-227.52 -23.58,-6.582 -63.47,227.52 -86.36,-24.09 -5.61,20.121" /><path
         id="path64"
         style="fill:#231f20;fill-opacity:1;fill-rule:nonzero;stroke:none"
         d="m 2569.48,396.809 -153.42,97.851 26.71,11.711 129.86,-85.371 24.79,153.211 26.71,11.719 -32.23,-179.27 42.53,-96.961 -22.43,-9.828 -42.52,96.938" /></g></g></svg>