<?xml version="1.0" encoding="UTF-8" standalone="no"?>
<!-- Created with Inkscape (http://www.inkscape.org/) -->

<svg
   version="1.1"
   id="svg1"
   width="436.32001"
   height="436.32001"
   viewBox="0 0 436.32001 436.32001"
   sodipodi:docname="Myanmar Red Cross.svg"
   inkscape:version="1.3.2 (091e20e, 2023-11-25, custom)"
   xmlns:inkscape="http://www.inkscape.org/namespaces/inkscape"
   xmlns:sodipodi="http://sodipodi.sourceforge.net/DTD/sodipodi-0.dtd"
   xmlns="http://www.w3.org/2000/svg"
   xmlns:svg="http://www.w3.org/2000/svg">
  <defs
     id="defs1">
    <clipPath
       clipPathUnits="userSpaceOnUse"
       id="clipPath7">
      <path
         d="M 0.059998,327.24 H 327.24 V 0 H 0.059998 Z"
         transform="translate(-324.74001,-163.62)"
         id="path7" />
    </clipPath>
  </defs>
  <sodipodi:namedview
     id="namedview1"
     pagecolor="#ffffff"
     bordercolor="#666666"
     borderopacity="1.0"
     inkscape:showpageshadow="2"
     inkscape:pageopacity="0.0"
     inkscape:pagecheckerboard="0"
     inkscape:deskcolor="#d1d1d1"
     inkscape:export-bgcolor="#ffffffff"
     inkscape:zoom="1.8816465"
     inkscape:cx="218.16"
     inkscape:cy="218.16"
     inkscape:window-width="1920"
     inkscape:window-height="1017"
     inkscape:window-x="-8"
     inkscape:window-y="-8"
     inkscape:window-maximized="1"
     inkscape:current-layer="g1">
    <inkscape:page
       x="0"
       y="0"
       inkscape:label="1"
       id="page1"
       width="436.32001"
       height="436.32001"
       margin="0"
       bleed="0"
       inkscape:export-filename="Myanmar Red Cross.png"
       inkscape:export-xdpi="300"
       inkscape:export-ydpi="300" />
  </sodipodi:namedview>
  <g
     id="g1"
     inkscape:groupmode="layer"
     inkscape:label="1">
    <g
       id="group-MC1">
      <path
         id="path2"
         d="m 0,0 -4.083,0.917 c 0,0 -1.917,0.958 -3.229,-3.229 C -8.625,-6.5 -9.25,-9 -9.875,-11.75 c -0.625,-2.75 -0.25,-3.5 4.625,-4.75 4.875,-1.25 24.75,-6.75 28.375,-7.625 C 26.75,-25 27,-23 27.75,-20.25 c 0.75,2.75 1.625,6.875 2.5,9.75 0.875,2.875 -0.125,2.875 -3.875,3.75 -3.75,0.875 -5.875,1.25 -8.25,1.875 C 15.75,-4.25 12.75,-5 12,-7.5 c -0.75,-2.5 0.375,-5.125 0.375,-5.125"
         style="fill:none;stroke:#171717;stroke-width:3;stroke-linecap:round;stroke-linejoin:round;stroke-miterlimit:4;stroke-dasharray:none;stroke-opacity:1"
         transform="matrix(1.3333333,0,0,-1.3333333,39.721333,149.15333)" />
      <path
         id="path3"
         d="m 0,0 c 0,0 -0.75,-3.5 4.75,-4.75 5.5,-1.25 7.625,0.5 8.5,3.625 C 14.125,2 12,6.75 8.313,7.813 4.625,8.875 1.875,6.125 1.875,6.125"
         style="fill:none;stroke:#171717;stroke-width:3;stroke-linecap:round;stroke-linejoin:round;stroke-miterlimit:4;stroke-dasharray:none;stroke-opacity:1"
         transform="matrix(1.3333333,0,0,-1.3333333,43.721333,162.65333)" />
      <path
         id="path4"
         d="M 0,0 H -49.619 V 42.53 H 0 l -0.004,0.027 v 49.62 h 42.53 v -49.62 l -0.001,-0.02 H 92.143 V 0.008 H 42.525 l 0.001,0.007 V -49.602 H -0.004 V 0.015 L 0,0"
         style="fill:#ed192d;fill-opacity:1;fill-rule:nonzero;stroke:none"
         transform="matrix(1.3333333,0,0,-1.3333333,189.81067,246.54267)" />
      <path
         id="path5"
         d="m 0,0 c 0,-52.166 -42.289,-94.454 -94.454,-94.454 -52.165,0 -94.454,42.288 -94.454,94.454 0,52.165 42.289,94.454 94.454,94.454 C -42.289,94.454 0,52.165 0,0 Z"
         style="fill:none;stroke:#040606;stroke-width:5;stroke-linecap:butt;stroke-linejoin:miter;stroke-miterlimit:4;stroke-dasharray:none;stroke-opacity:1"
         transform="matrix(1.3333333,0,0,-1.3333333,344.09867,218.16)" />
      <path
         id="path6"
         d="m 0,0 c 0,-88.984 -72.136,-161.12 -161.12,-161.12 -88.984,0 -161.12,72.136 -161.12,161.12 0,88.984 72.136,161.12 161.12,161.12 C -72.136,161.12 0,88.984 0,0 Z"
         style="fill:none;stroke:#171717;stroke-width:5;stroke-linecap:butt;stroke-linejoin:miter;stroke-miterlimit:4;stroke-dasharray:none;stroke-opacity:1"
         transform="matrix(1.3333333,0,0,-1.3333333,432.98667,218.16)"
         clip-path="url(#clipPath7)" />
      <path
         id="path8"
         d="m 1.5970944,-0.00426912 3.9579804,0.00841929 -0.00158,-17.10106517 0.059618,-0.004 L 9.4200937,4.3603144e-4 12.787965,0.00274251 16.591784,-17.098 l 0.05962,-0.004 0.0016,17.10106537599 3.959497,-0.003200896 -0.0042,-21.42685548 -6.394207,0.0045 -3.085213,15.1263597 -0.05962,0.00404 -3.058902,-15.1364807 -6.4174467,0.0015 z m 0,0"
         style="fill:#040606;fill-opacity:1;fill-rule:nonzero;stroke:none"
         aria-label="M"
         transform="matrix(0.17256435,1.3221193,-1.3221193,0.17256435,28.789067,228.272)" />
      <path
         id="path9"
         d="m 0.09320558,-21.424154 5.53972472,12.9960816 0.0015,8.42676715 4.3284718,0.001887075 -0.0015,-8.426767125 5.5462679,-13.0005137 -4.680988,-0.0058 -2.9971157,8.295443 -0.06279,0.0063 -2.8187142,-8.298581 z m 0,0"
         style="fill:#040606;fill-opacity:1;fill-rule:nonzero;stroke:none"
         aria-label="Y"
         transform="matrix(0.36876016,1.281325,-1.281325,0.36876016,33.5612,260.54267)" />
      <path
         id="path10"
         d="M 1.3571253e-4,-0.00102475 4.5010642,0.00339935 5.490068,-4.5398874 l 5.708869,0.00546 0.974408,4.53246299 4.500929,0.0044241 -5.659252,-21.43003669 -5.3456457,0.0079 z M 8.3088802,-17.698067 l 0.063096,0.0012 2.0688468,9.6243767 -4.2070411,-0.00758 z m 0,0"
         style="fill:#040606;fill-opacity:1;fill-rule:nonzero;stroke:none"
         aria-label="A"
         transform="matrix(0.51846182,1.2284035,-1.2284035,0.51846182,39.537733,281.29333)" />
      <path
         id="path11"
         d="M 1.500981,-21.4192 1.4970047,0.00296037 5.4642813,7.9274933e-4 5.4716621,-15.000167 l 0.052271,0.0038 5.2843159,14.99471094 4.907848,-0.00247382 0.004,-21.42216012 -3.951217,-0.0019 -0.0049,14.6753655 -0.06833,3.143e-4 -5.218507,-14.6694308 z m 0,0"
         style="fill:#040606;fill-opacity:1;fill-rule:nonzero;stroke:none"
         aria-label="N"
         transform="matrix(0.68072892,1.1464667,-1.1464667,0.68072892,49.542933,304.52)" />
      <path
         id="path12"
         d="m 1.5980661,-5.4134505e-4 3.9536672,-9.3300495e-4 0.0076,-17.09759465 0.058529,0.0028 3.8050445,17.1017314 3.3624832,-0.00305125 3.811215,-17.10092315 0.05853,0.0028 -0.0076,17.09759409 L 20.6177,-6.17868e-4 20.6139,-21.425448 l -6.400894,2.95e-4 -3.083993,15.1174054 -0.05853,-0.00276 -3.0588238,-15.1166504 -6.4173931,0.0019 z m 0,0"
         style="fill:#040606;fill-opacity:1;fill-rule:nonzero;stroke:none"
         aria-label="M"
         transform="matrix(0.84944331,1.0277275,-1.0277275,0.84944331,62.802133,326.88933)" />
      <path
         id="path13"
         d="M 8.4335256e-4,-5.7305344e-4 4.4998948,-0.00521774 5.4849562,-4.5381653 l 5.7019228,0.00703 0.990513,4.53133532806 4.499051,-0.004644688 -5.655166,-21.41917934 -5.3457262,0.0053 z M 8.3071662,-17.704803 l 0.057428,0.01163 2.0651688,9.6153738 -4.2002811,0.00537 z m 0,0"
         style="fill:#040606;fill-opacity:1;fill-rule:nonzero;stroke:none"
         aria-label="A"
         transform="matrix(0.99582254,0.8866314,-0.8866314,0.99582254,83.986933,351.71467)" />
      <path
         id="path14"
         d="m 5.8251348,-18.23378 2.0412047,0.007 c 1.9501409,-0.0022 2.9929855,0.976186 2.9889185,2.958869 0.0077,2.314136 -1.1698759,3.208693 -3.2370617,3.205145 l -1.7974046,-0.002 z M 1.5006088,0.00399044 5.8234083,-0.00307275 5.822956,-9.0680391 l 2.3109859,0.00855 c 1.732322,-0.010646 2.4862241,1.0215538 2.5420121,2.6950937 l 0.12281,4.117322 c 0.03117,0.8416252 0.127171,1.65359973 0.543613,2.24908802 l 4.677085,-0.00599011 -0.001,-0.16900702 C 15.222754,-0.59712675 15.095288,-1.7696865 15.058696,-4.0218903 15.008083,-8.555689 14.552868,-10.17152 11.605769,-10.556441 l 0.0029,-0.05852 c 2.437776,-0.51552 3.57004,-2.44013 3.572064,-5.284118 -0.0095,-3.656482 -2.162872,-5.525148 -5.7088695,-5.519608 l -7.9761311,2.61e-4 z m 0,0"
         style="fill:#040606;fill-opacity:1;fill-rule:nonzero;stroke:none"
         aria-label="R"
         transform="matrix(1.1048345,0.74640373,-0.74640373,1.1048345,102.97787,368.356)" />
      <path
         id="path15"
         d="m 5.825246,-18.233504 2.0435676,0.003 c 1.9390145,-0.0044 2.9936114,0.979326 2.9897964,2.959791 -0.0063,2.311291 -1.1681476,3.211398 -3.2486795,3.210996 l -1.7911573,-0.0062 z M 1.4956403,6.7688948e-4 5.8198736,-0.00271162 l 0.00122,-9.05770678 2.3112903,0.00626 c 1.7343944,-0.00838 2.4869381,1.0117038 2.5468121,2.6867021 l 0.133594,4.1180534 c 0.01911,0.8419855 0.114004,1.65256645 0.52841,2.2546279 l 4.67671,-0.00992105 0.0021,-0.17848177 C 15.214066,-0.59759644 15.097328,-1.7669942 15.052087,-4.0188884 14.989596,-8.5469619 14.542913,-10.17583 11.606743,-10.557389 l -7.79e-4,-0.0631 c 2.437596,-0.515438 3.560872,-2.427039 3.558255,-5.280114 0.007,-3.656244 -2.151015,-5.527291 -5.6873928,-5.520582 l -7.9804765,-0.0037 z m 0,0"
         style="fill:#040606;fill-opacity:1;fill-rule:nonzero;stroke:none"
         aria-label=" R"
         transform="matrix(1.2317548,0.5104486,-0.5104486,1.2317548,135.18933,388.224)" />
      <path
         id="path16"
         d="m 1.5036055,-21.421316 0.00343,21.42351598 12.2668215,-4.297e-5 -0.0026,-3.53358591 -7.9428571,8.115e-4 0.00754,-5.7711077 7.1894791,-0.00215 -0.0026,-3.5335859 -7.1894793,0.0022 3.83e-5,-5.040343 7.638629,-0.003 -0.0057,-3.544893 z m 0,0"
         style="fill:#040606;fill-opacity:1;fill-rule:nonzero;stroke:none"
         aria-label="E"
         transform="matrix(1.2864974,0.35028878,-0.35028878,1.2864974,158.644,397.63333)" />
      <path
         id="path17"
         d="m 1.7139675,-0.00175436 6.803184,0.00528711 C 14.254721,0.00244056 15.864183,-3.4144048 15.866351,-11.009791 c -0.0069,-6.29279 -1.085786,-10.414299 -7.0835539,-10.412702 l -7.0749902,-0.0032 z M 6.0307774,-18.22616 l 1.8329941,-0.0051 c 3.2881025,-0.0053 3.6914035,2.482417 3.6897435,7.344921 -8.81e-4,5.8088253 -0.612585,7.7153218 -3.605665,7.7153171 l -1.9158573,0.00477 z m 0,0"
         style="fill:#040606;fill-opacity:1;fill-rule:nonzero;stroke:none"
         aria-label="D"
         transform="matrix(1.3207553,0.18271107,-0.18271107,1.3207553,180.12267,403.404)" />
      <path
         id="path18"
         d="m 14.967894,-14.195328 c 0.0026,-3.111123 -0.447047,-7.6588 -6.6232211,-7.649345 -6.4802927,-0.0092 -7.2929952,4.637375 -7.2918875,11.141777 3.918e-4,6.5160996 0.810447,11.12105799 7.2907398,11.13021548 5.6710618,-0.005146 6.8077108,-3.99785618 6.8090338,-8.62360148 l -4.332608,0.00488 c -0.0013,4.6257453 -1.1296926,5.4137575 -2.6801215,5.4245359 -1.8662443,-0.00855 -2.7705092,-1.1557745 -2.7730486,-7.6367829 -0.00492,-6.05849 0.5170932,-8.257271 2.7122814,-8.252071 1.9371417,0.0011 2.5711897,1.343168 2.5686367,4.454291 z m 0,0"
         style="fill:#040606;fill-opacity:1;fill-rule:nonzero;stroke:none"
         aria-label=" C"
         transform="matrix(1.3308433,-0.08144882,0.08144882,1.3308433,218.52533,407.064)" />
      <path
         id="path19"
         d="m 5.8284798,-18.227854 2.043121,-0.007 c 1.9328697,0.0073 2.9967982,0.979186 2.9920412,2.960307 0.0014,2.31664 -1.1666122,3.222883 -3.241992,3.21166 l -1.7926054,0.0082 z m -4.322678,18.22422332 4.3207644,0.00788032 0.00235,-9.06204924 2.3051382,-0.00361 c 1.7306061,0.0036 2.4867846,1.0228794 2.5426636,2.6934596 l 0.126803,4.1202018 c 0.02682,0.8410408 0.120125,1.6473046 0.541124,2.24293278 l 4.679285,0.00624579 -8.17e-4,-0.17926054 c -0.813207,-0.42147058 -0.931153,-1.59074713 -0.969,-3.84286923 -0.0597,-4.5250014 -0.494586,-6.1501866 -3.440408,-6.5343546 l -2.72e-4,-0.05975 c 2.429203,-0.516692 3.567304,-2.431735 3.563483,-5.286156 -0.0029,-3.65422 -2.15795,-5.519775 -5.6926634,-5.517449 l -7.9749845,-0.005 z m 0,0"
         style="fill:#040606;fill-opacity:1;fill-rule:nonzero;stroke:none"
         aria-label="R"
         transform="matrix(1.3086195,-0.25552477,0.25552477,1.3086195,242.964,405.39733)" />
      <path
         id="path20"
         d="m 1.0533893,-10.70699 c 0.00102,6.5112074 0.8177373,11.13369846 7.2918878,11.13245448 6.4852449,0.00253 7.2917239,-4.62487638 7.2907059,-11.13608448 -10e-4,-6.511207 -0.806643,-11.129925 -7.2918877,-11.132455 -6.4741506,0.0012 -7.2917237,4.624877 -7.290706,11.136085 z m 4.3172829,0.0078 c -0.00577,-5.733005 0.4154342,-7.953952 2.9650635,-7.953211 2.5496293,7.4e-4 2.9734223,2.212021 2.9791913,7.945027 -0.0018,5.7551946 -0.426529,7.9501787 -2.9761584,7.9494383 C 5.7891392,-2.7586761 5.3688932,-4.9439949 5.3706722,-10.69919 Z m 0,0"
         style="fill:#040606;fill-opacity:1;fill-rule:nonzero;stroke:none"
         aria-label="O"
         transform="matrix(1.2623137,-0.42935049,0.42935049,1.2623137,267.74,400.35067)" />
      <path
         id="path21"
         d="m 0.65279154,-6.6966351 0.004419,0.8647181 c 0.004524,3.9620616 1.91866136,6.25301425 6.80835646,6.24899018 4.690574,0.002234 7.447335,-2.03482248 7.450373,-6.56817568 -0.0029,-2.6151708 -0.839325,-4.2565245 -4.085426,-5.6759295 l -3.3300319,-1.434699 c -1.8277595,-0.771547 -2.2197771,-1.592357 -2.2212853,-2.913044 0.00408,-1.252585 0.5113505,-2.492019 2.4557364,-2.486232 1.6508255,-0.0084 2.3486528,1.17243 2.3431338,3.169223 l 4.1403,0.005 0.0022,-0.586987 c -0.0053,-4.119283 -2.796665,-5.77161 -6.6277082,-5.767755 -4.0773841,-1.27e-4 -6.62398026,2.140673 -6.62889272,6.307176 0.002516,3.569008 1.76632402,5.158454 5.60938412,6.4804736 2.8507703,0.9759531 3.8240518,1.7046988 3.8287738,3.6542719 -0.0013,1.8028598 -1.2443809,2.6267854 -2.5650681,2.6282936 -2.2745242,0.00114 -2.8575644,-1.2798878 -2.857367,-3.2923763 l -0.00321,-0.6288859 z m 0,0"
         style="fill:#040606;fill-opacity:1;fill-rule:nonzero;stroke:none"
         aria-label="S"
         transform="matrix(1.1956011,-0.59018278,0.59018278,1.1956011,291.55067,391.99333)" />
      <path
         id="path22"
         d="m 0.66118826,-6.6868424 -4.2925e-4,0.8710586 C 0.66054717,-1.8667737 2.5725941,0.42493502 7.4673959,0.41883366 12.154239,0.42965685 14.910313,-1.6106522 14.908609,-6.151195 c 0.0013,-2.6131758 -0.839324,-4.251811 -4.087635,-5.671385 l -3.3198771,-1.438844 c -1.8226161,-0.770899 -2.2152586,-1.57893 -2.2163345,-2.914764 -8.023e-4,-1.25133 0.5022575,-2.47829 2.439396,-2.474813 1.6576126,0.0011 2.3504186,1.162465 2.3536846,3.174337 l 4.134259,-0.0036 0.0046,-0.601305 c -3.35e-4,-4.118019 -2.794326,-5.756829 -6.6263503,-5.76392 -4.0757671,1.99e-4 -6.62677441,2.1341 -6.63277085,6.304143 -0.007912,3.578511 1.77505155,5.152341 5.62108975,6.4757228 2.8471279,0.9853448 3.8245604,1.7167276 3.8243864,3.6701064 0.0026,1.80061 -1.2493148,2.6302185 -2.5689086,2.6279916 -2.2751572,-0.00238 -2.8513886,-1.2973515 -2.8513511,-3.2929827 l -0.00205,-0.633785 z m 0,0"
         style="fill:#040606;fill-opacity:1;fill-rule:nonzero;stroke:none"
         aria-label="S"
         transform="matrix(1.1117898,-0.73600357,0.73600357,1.1117898,312.788,381.296)" />
      <path
         id="path23"
         d="m 0.65493908,-6.6835411 -8.3152e-4,0.8701119 c 7.9167e-4,3.9610414 1.91797524,6.24003396 6.80706024,6.23129073 4.6903602,0.009533 7.4405962,-2.03598903 7.4431922,-6.56884263 0.0025,-2.6103355 -0.840315,-4.2604569 -4.067677,-5.6746919 l -3.3436507,-1.446386 c -1.8296164,-0.763275 -2.2011626,-1.572189 -2.2041648,-2.889751 -0.00243,-1.251272 0.4924396,-2.490232 2.448102,-2.490415 1.6490056,-0.0058 2.3385475,1.164963 2.3391565,3.170342 l 4.13512,0.006 -0.0051,-0.596599 c 0.0061,-4.118549 -2.792327,-5.768487 -6.6207905,-5.768831 -4.0770469,0.0018 -6.63592108,2.136822 -6.6334255,6.296729 -0.002474,3.579881 1.7761681,5.163977 5.6159913,6.4900978 2.850724,0.9782669 3.8347317,1.6990665 3.8431297,3.6463718 -0.0011,1.8065125 -1.2616982,2.6542713 -2.5876168,2.6490585 -2.2705343,0.00288 -2.8452067,-1.3014959 -2.8374584,-3.2986598 l -0.0054,-0.6297439 z m 0,0"
         style="fill:#040606;fill-opacity:1;fill-rule:nonzero;stroke:none"
         aria-label=" S"
         transform="matrix(0.9508522,-0.93469667,0.93469667,0.9508522,342.24933,359.99067)" />
      <path
         id="path24"
         d="m 1.0677534,-10.705602 c -0.00584,6.5101616 0.7946252,11.12323076 7.2718824,11.12507959 6.4864822,-0.005378 7.2966012,-4.61487109 7.3024462,-11.12503259 -0.0034,-6.502934 -0.80908,-11.14168 -7.295562,-11.136301 -6.4772572,-0.0018 -7.2821473,4.63332 -7.2787666,11.136254 z m 4.3085353,-0.01107 c -0.00579,-5.72693 0.4211906,-7.937195 2.9670739,-7.936913 2.5458834,2.81e-4 2.9699434,2.213715 2.9757294,7.940645 -0.0074,5.767061 -0.430416,7.9444222 -2.9762988,7.9441407 C 5.79691,-2.7690777 5.3688545,-4.9496077 5.3762887,-10.716669 Z m 0,0"
         style="fill:#040606;fill-opacity:1;fill-rule:nonzero;stroke:none"
         aria-label="O"
         transform="matrix(0.8222901,-1.0495793,1.0495793,0.8222901,359.124,343.19333)" />
      <path
         id="path25"
         d="m 14.964849,-14.189446 c -9.59e-4,-3.115204 -0.441601,-7.64456 -6.619728,-7.646273 -6.4775858,-0.0019 -7.2857551,4.624662 -7.2858692,11.128389 0.00584,6.5138199 0.8096245,11.12827718 7.2872103,11.13020671 5.6736789,-2.719e-5 6.8088309,-4.00315831 6.8089539,-8.61565891 l -4.329089,-0.00405 c -1.23e-4,4.6125006 -1.1357263,5.4320979 -2.6853045,5.4346468 -1.8650853,-0.00181 -2.7809686,-1.162243 -2.779039,-7.6398286 0.00484,-6.057515 0.5195847,-8.252414 2.7102702,-8.252207 1.9435083,-0.0036 2.5785943,1.34966 2.5795533,4.464864 z m 0,0"
         style="fill:#040606;fill-opacity:1;fill-rule:nonzero;stroke:none"
         aria-label="C"
         transform="matrix(0.67747603,-1.1483919,1.1483919,0.67747603,374.52,323.18133)" />
      <path
         id="path26"
         d="M 6.0405785,2.4699908e-4 6.0381784,-21.424102 l -4.3256299,-0.0039 0.0024,21.42434971 z m 0,0"
         style="fill:#040606;fill-opacity:1;fill-rule:nonzero;stroke:none"
         aria-label="I"
         transform="matrix(0.55878736,-1.2105926,1.2105926,0.55878736,386.58133,301.89067)" />
      <path
         id="path27"
         d="m 1.4968239,-21.427231 0.00379,21.42208613 12.2714551,0.00318078 -1.45e-4,-3.53946991 -7.9461049,0.00654 0.0019,-5.7632543 7.1900999,-0.00204 -1.46e-4,-3.5394697 -7.1900996,0.002 -0.00525,-5.040422 7.6347406,-0.009 -1.46e-4,-3.539469 z m 0,0"
         style="fill:#040606;fill-opacity:1;fill-rule:nonzero;stroke:none"
         aria-label="E"
         transform="matrix(0.44150208,-1.2581151,1.2581151,0.44150208,392.23067,289.816)" />
      <path
         id="path28"
         d="m 0.3682512,-21.412771 -0.007653,3.531051 4.6801052,-0.0076 0.00114,17.88659443 4.3216615,3.282e-5 -0.00114,-17.88659425 4.6712071,0.0064 0.0077,-3.531052 z m 0,0"
         style="fill:#040606;fill-opacity:1;fill-rule:nonzero;stroke:none"
         aria-label="T"
         transform="matrix(0.28923073,-1.3015849,1.3015849,0.28923073,399.432,268.75067)" />
      <path
         id="path29"
         d="m 0.0982201,-21.426179 5.5402008,12.9924494 0.00171,8.42949635 4.3214183,0.00650194 -0.00171,-8.42949639 5.5607888,-13.0049203 -4.68527,0.0051 -3.0027452,8.284038 -0.058323,0.0056 -2.8252442,-8.286323 z m 0,0"
         style="fill:#040606;fill-opacity:1;fill-rule:nonzero;stroke:none"
         aria-label="Y"
         transform="matrix(0.12816878,-1.3271588,1.3271588,0.12816878,404.11867,247.00933)" />
      <path
         id="path30"
         d="m 0,0 c 0,0 -4.083,0.417 -5.25,-2 -1.167,-2.417 -1.753,-6.258 1,-7.417 4.75,-2 6.209,0.459 7.167,1.417"
         style="fill:none;stroke:#171717;stroke-width:3;stroke-linecap:round;stroke-linejoin:round;stroke-miterlimit:4;stroke-dasharray:none;stroke-opacity:1"
         transform="matrix(1.3333333,0,0,-1.3333333,49.666667,120.32)" />
      <path
         id="path31"
         d="m 0,0 c 0,0 -3.667,1.333 -4.417,-1.25 -0.51,-1.755 -1.542,-3.959 1.583,-5.167 1.868,-0.721 5.584,0.834 5.584,0.834 L 21,-14.417"
         style="fill:none;stroke:#171717;stroke-width:3;stroke-linecap:round;stroke-linejoin:round;stroke-miterlimit:4;stroke-dasharray:none;stroke-opacity:1"
         transform="matrix(1.3333333,0,0,-1.3333333,60.666667,131.65333)" />
      <path
         id="path32"
         d="m 0,0 c 0,-1.887 -1.53,-3.417 -3.416,-3.417 -1.887,0 -3.417,1.53 -3.417,3.417 0,1.887 1.53,3.416 3.417,3.416 C -1.53,3.416 0,1.887 0,0 Z"
         style="fill:none;stroke:#171717;stroke-width:3;stroke-linecap:round;stroke-linejoin:round;stroke-miterlimit:4;stroke-dasharray:none;stroke-opacity:1"
         transform="matrix(1.3333333,0,0,-1.3333333,71.234667,145.44267)" />
      <path
         id="path33"
         d="m 0,0 c 0,-1.887 -1.53,-3.417 -3.417,-3.417 -1.886,0 -3.416,1.53 -3.416,3.417 0,1.886 1.53,3.416 3.416,3.416 C -1.53,3.416 0,1.886 0,0 Z"
         style="fill:none;stroke:#171717;stroke-width:3;stroke-linecap:round;stroke-linejoin:round;stroke-miterlimit:4;stroke-dasharray:none;stroke-opacity:1"
         transform="matrix(1.3333333,0,0,-1.3333333,75.432,136.78)" />
      <path
         id="path34"
         d="m 0,0 c 1.061,0.471 2.242,0.734 3.486,0.734 4.621,0 8.367,-3.626 8.367,-8.098 0,-4.473 -3.746,-8.098 -8.367,-8.098 -4.621,0 -8.368,3.625 -8.368,8.098 0,0.819 0.126,1.611 0.36,2.356"
         style="fill:none;stroke:#171717;stroke-width:3;stroke-linecap:round;stroke-linejoin:round;stroke-miterlimit:4;stroke-dasharray:none;stroke-opacity:1"
         transform="matrix(1.3333333,0,0,-1.3333333,72.529333,107.26)" />
      <path
         id="path35"
         d="m 0,0 c -0.436,0.827 -0.683,1.767 -0.682,2.764 0,3.314 2.724,6 6.083,6 0.639,0 1.256,-0.097 1.835,-0.278"
         style="fill:none;stroke:#171717;stroke-width:3;stroke-linecap:round;stroke-linejoin:round;stroke-miterlimit:4;stroke-dasharray:none;stroke-opacity:1"
         transform="matrix(1.3333333,0,0,-1.3333333,78.668,127.764)" />
      <path
         id="path36"
         d="m 0,0 c 2.082,1.17 3.488,3.401 3.488,5.96 0,3.773 -3.059,6.833 -6.833,6.833 -3.774,0 -6.833,-3.06 -6.833,-6.833 0,-3.382 2.457,-6.19 5.683,-6.737"
         style="fill:none;stroke:#171717;stroke-width:3;stroke-linecap:round;stroke-linejoin:round;stroke-miterlimit:4;stroke-dasharray:none;stroke-opacity:1"
         transform="matrix(1.3333333,0,0,-1.3333333,94.016,110.156)" />
      <path
         id="path37"
         d="m 0,0 c 0,-2.002 -1.623,-3.625 -3.625,-3.625 -2.002,0 -3.625,1.623 -3.625,3.625 0,2.002 1.623,3.625 3.625,3.625 C -1.623,3.625 0,2.002 0,0 Z"
         style="fill:none;stroke:#171717;stroke-width:3;stroke-linecap:round;stroke-linejoin:round;stroke-miterlimit:4;stroke-dasharray:none;stroke-opacity:1"
         transform="matrix(1.3333333,0,0,-1.3333333,114.112,93.598667)" />
      <path
         id="path38"
         d="m 0,0 c 0,-2.002 -1.623,-3.625 -3.625,-3.625 -2.002,0 -3.625,1.623 -3.625,3.625 0,2.002 1.623,3.625 3.625,3.625 C -1.623,3.625 0,2.002 0,0 Z"
         style="fill:none;stroke:#171717;stroke-width:3;stroke-linecap:round;stroke-linejoin:round;stroke-miterlimit:4;stroke-dasharray:none;stroke-opacity:1"
         transform="matrix(1.3333333,0,0,-1.3333333,120.796,86.914667)" />
      <path
         id="path39"
         d="m 0,0 c 0,-2.761 -2.239,-5 -5,-5 -2.761,0 -5,2.239 -5,5 0,2.761 2.239,5 5,5 2.761,0 5,-2.239 5,-5 z"
         style="fill:none;stroke:#171717;stroke-width:3;stroke-linecap:round;stroke-linejoin:round;stroke-miterlimit:4;stroke-dasharray:none;stroke-opacity:1"
         transform="matrix(1.3333333,0,0,-1.3333333,103.67733,69.756)" />
      <path
         id="path40"
         d="m 0,0 c 0,-2.485 -2.015,-4.5 -4.5,-4.5 -2.485,0 -4.5,2.015 -4.5,4.5 0,2.485 2.015,4.5 4.5,4.5"
         style="fill:none;stroke:#171717;stroke-width:3;stroke-linecap:round;stroke-linejoin:round;stroke-miterlimit:4;stroke-dasharray:none;stroke-opacity:1"
         transform="matrix(1.3333333,0,0,-1.3333333,110.89067,81.544)" />
      <path
         id="path41"
         d="M 0,0 C 0,0 4.334,-7 5.584,-8.25 6.833,-9.5 9.083,-9.75 9.5,-9.333"
         style="fill:none;stroke:#171717;stroke-width:3;stroke-linecap:round;stroke-linejoin:round;stroke-miterlimit:4;stroke-dasharray:none;stroke-opacity:1"
         transform="matrix(1.3333333,0,0,-1.3333333,114.556,92.544)" />
      <path
         id="path42"
         d="m 0,0 c 0,-3.71 -3.008,-6.719 -6.718,-6.719 -3.711,0 -6.719,3.009 -6.719,6.719 0,3.711 3.008,6.719 6.719,6.719 1.391,0 2.684,-0.423 3.756,-1.148"
         style="fill:none;stroke:#171717;stroke-width:3;stroke-linecap:round;stroke-linejoin:round;stroke-miterlimit:4;stroke-dasharray:none;stroke-opacity:1"
         transform="matrix(1.3333333,0,0,-1.3333333,136.64933,72.826667)" />
      <path
         id="path43"
         d="m 0,0 c -0.317,-3.697 -3.571,-6.437 -7.269,-6.12 -3.696,0.318 -6.436,3.572 -6.119,7.27 0.317,3.696 3.573,6.436 7.269,6.118 1.387,-0.119 2.638,-0.651 3.645,-1.464"
         style="fill:none;stroke:#171717;stroke-width:3;stroke-linecap:round;stroke-linejoin:round;stroke-miterlimit:4;stroke-dasharray:none;stroke-opacity:1"
         transform="matrix(1.3333333,0,0,-1.3333333,159.588,63.365333)" />
      <path
         id="path44"
         d="m 0,0 c -0.922,0.922 -2.195,1.492 -3.601,1.492 -2.813,0 -5.094,-2.281 -5.094,-5.094 0,-2.813 2.281,-5.093 5.094,-5.093 0,0 2.848,-1.279 4.913,-1.549"
         style="fill:none;stroke:#171717;stroke-width:3;stroke-linecap:round;stroke-linejoin:round;stroke-miterlimit:4;stroke-dasharray:none;stroke-opacity:1"
         transform="matrix(1.3333333,0,0,-1.3333333,125.73333,50.216)" />
      <path
         id="path45"
         d="m 0,0 c 0,-1.312 -1.063,-2.375 -2.375,-2.375 -1.312,0 -2.375,1.063 -2.375,2.375 0,1.311 1.063,2.375 2.375,2.375 C -1.063,2.375 0,1.311 0,0 Z"
         style="fill:none;stroke:#171717;stroke-width:3;stroke-linecap:round;stroke-linejoin:round;stroke-miterlimit:4;stroke-dasharray:none;stroke-opacity:1"
         transform="matrix(1.3333333,0,0,-1.3333333,150.056,45.821333)" />
      <path
         id="path46"
         d="m 0,0 c 0,0 -3.563,2.938 -4.75,5.813 -1.188,2.875 -0.25,7 4.031,8.093 C 3.562,15 7.937,13.063 7.937,9.563 7.937,6.063 6.5,1.125 6.5,1.125"
         style="fill:none;stroke:#171717;stroke-width:3;stroke-linecap:round;stroke-linejoin:round;stroke-miterlimit:4;stroke-dasharray:none;stroke-opacity:1"
         transform="matrix(1.3333333,0,0,-1.3333333,177.80667,64.154667)" />
      <path
         id="path47"
         d="M 0,0 C 0,0 10.813,3.313 6.25,10.938 1.688,18.563 -6.25,12.75 -5.625,8"
         style="fill:none;stroke:#171717;stroke-width:3;stroke-linecap:round;stroke-linejoin:round;stroke-miterlimit:4;stroke-dasharray:none;stroke-opacity:1"
         transform="matrix(1.3333333,0,0,-1.3333333,196.22267,59.904)" />
      <path
         id="path48"
         d="m 0,0 c 0,0 -2.66,3.774 -3.047,6.86 -0.386,3.087 1.607,6.818 6.025,6.742 4.419,-0.076 8.127,-3.099 7.203,-6.475 C 9.257,3.751 6.566,-0.631 6.566,-0.631"
         style="fill:none;stroke:#171717;stroke-width:3;stroke-linecap:round;stroke-linejoin:round;stroke-miterlimit:4;stroke-dasharray:none;stroke-opacity:1"
         transform="matrix(1.3333333,0,0,-1.3333333,220.06667,59.762667)" />
      <path
         id="path49"
         d="m 0,0 c 0,0 11.303,0.339 8.916,8.898 -2.387,8.56 -11.577,5.05 -12.23,0.303"
         style="fill:none;stroke:#171717;stroke-width:3;stroke-linecap:round;stroke-linejoin:round;stroke-miterlimit:4;stroke-dasharray:none;stroke-opacity:1"
         transform="matrix(1.3333333,0,0,-1.3333333,238.952,60.526667)" />
      <path
         id="path50"
         d="M 0,0 C 0,0 -1.125,2.5 -1.563,3.625 -2,4.75 -3.313,5.563 -8,4.125 -12.688,2.688 -28.313,-2.75 -28.313,-2.75 c 0,0 -3.75,-0.937 -3.062,-3.062 C -30.688,-7.937 -21.25,-37 -21.25,-37 c 0,0 1.375,-2.875 5.375,-1.437 4,1.437 21.437,6.062 21.437,6.062 0,0 3.938,0.563 2.938,3.625 -1,3.063 -4.397,12.031 -4.397,12.031"
         style="fill:none;stroke:#171717;stroke-width:3;stroke-linecap:round;stroke-linejoin:round;stroke-miterlimit:4;stroke-dasharray:none;stroke-opacity:1"
         transform="matrix(1.3333333,0,0,-1.3333333,200.30667,29.737333)" />
      <path
         id="path51"
         d="m 0,0 c 0,0 -6.825,6.759 -3.659,9.925 3.166,3.167 7.378,-0.365 7.833,-1.5"
         style="fill:none;stroke:#171717;stroke-width:3;stroke-linecap:round;stroke-linejoin:round;stroke-miterlimit:4;stroke-dasharray:none;stroke-opacity:1"
         transform="matrix(1.3333333,0,0,-1.3333333,247.21333,42.998667)" />
      <path
         id="path52"
         d="M 0,0 C -1.963,-0.388 -3.871,0.89 -4.257,2.853 -4.646,4.817 -3.369,6.725 -1.402,7.112 0.56,7.499 2.467,6.223 2.856,4.258 3.242,2.294 1.965,0.388 0,0 Z"
         style="fill:none;stroke:#171717;stroke-width:3;stroke-linecap:round;stroke-linejoin:round;stroke-miterlimit:4;stroke-dasharray:none;stroke-opacity:1"
         transform="matrix(1.3333333,0,0,-1.3333333,308.78533,89.824)" />
      <path
         id="path53"
         d="M 0,0 C -1.965,-0.389 -3.872,0.889 -4.258,2.854 -4.646,4.817 -3.37,6.725 -1.406,7.112 0.558,7.5 2.464,6.222 2.853,4.258 3.242,2.294 1.962,0.388 0,0 Z"
         style="fill:none;stroke:#171717;stroke-width:3;stroke-linecap:round;stroke-linejoin:round;stroke-miterlimit:4;stroke-dasharray:none;stroke-opacity:1"
         transform="matrix(1.3333333,0,0,-1.3333333,316.64,95.086667)" />
      <path
         id="path54"
         d="M 0,0 C -2.707,-0.535 -5.338,1.227 -5.873,3.938 -6.408,6.644 -4.644,9.276 -1.937,9.81 0.774,10.345 3.403,8.582 3.938,5.874 4.473,3.165 2.711,0.534 0,0 Z"
         style="fill:none;stroke:#171717;stroke-width:3;stroke-linecap:round;stroke-linejoin:round;stroke-miterlimit:4;stroke-dasharray:none;stroke-opacity:1"
         transform="matrix(1.3333333,0,0,-1.3333333,330.15467,74.968)" />
      <path
         id="path55"
         d="M 0,0 C -2.44,-0.481 -4.806,1.103 -5.287,3.543 -5.769,5.979 -4.183,8.348 -1.746,8.829 0.693,9.311 3.061,7.724 3.541,5.287"
         style="fill:none;stroke:#171717;stroke-width:3;stroke-linecap:round;stroke-linejoin:round;stroke-miterlimit:4;stroke-dasharray:none;stroke-opacity:1"
         transform="matrix(1.3333333,0,0,-1.3333333,319.99067,84.329333)" />
      <path
         id="path56"
         d="M 0,0 C 0,0 -6.028,-5.607 -7.012,-7.076 -7.996,-8.544 -7.807,-10.8 -7.317,-11.129"
         style="fill:none;stroke:#171717;stroke-width:3;stroke-linecap:round;stroke-linejoin:round;stroke-miterlimit:4;stroke-dasharray:none;stroke-opacity:1"
         transform="matrix(1.3333333,0,0,-1.3333333,309.908,90.057333)" />
      <path
         id="path57"
         d="m 0,0 c -3.71,0.056 -6.672,3.109 -6.615,6.82 0.057,3.71 3.11,6.672 6.82,6.615 3.71,-0.057 6.673,-3.11 6.617,-6.82 C 6.8,5.223 6.357,3.938 5.617,2.876"
         style="fill:none;stroke:#171717;stroke-width:3;stroke-linecap:round;stroke-linejoin:round;stroke-miterlimit:4;stroke-dasharray:none;stroke-opacity:1"
         transform="matrix(1.3333333,0,0,-1.3333333,382.37067,176.86533)" />
      <path
         id="path58"
         d="M 0,0 C 0.936,0.908 1.526,2.172 1.547,3.578 1.59,6.39 -0.655,8.706 -3.467,8.749 -6.281,8.792 -8.595,6.546 -8.638,3.734 c 0,0 -1.323,-2.828 -1.624,-4.889"
         style="fill:none;stroke:#171717;stroke-width:3;stroke-linecap:round;stroke-linejoin:round;stroke-miterlimit:4;stroke-dasharray:none;stroke-opacity:1"
         transform="matrix(1.3333333,0,0,-1.3333333,405.14533,166.296)" />
      <path
         id="path59"
         d="m 0,0 c 2.078,0.034 4.149,-0.879 5.52,-2.651 2.308,-2.985 1.761,-7.277 -1.224,-9.586 -2.984,-2.309 -7.277,-1.762 -9.586,1.223 -1.89,2.444 -1.866,5.766 -0.154,8.157"
         style="fill:none;stroke:#171717;stroke-width:3;stroke-linecap:round;stroke-linejoin:round;stroke-miterlimit:4;stroke-dasharray:none;stroke-opacity:1"
         transform="matrix(1.3333333,0,0,-1.3333333,361.72267,119.16267)" />
      <path
         id="path60"
         d="m 0,0 c 1.851,-1.507 2.859,-3.945 2.423,-6.466 -0.643,-3.719 -4.178,-6.213 -7.898,-5.57 -3.718,0.642 -6.213,4.179 -5.57,7.896 0.529,3.054 3.008,5.282 5.938,5.626"
         style="fill:none;stroke:#171717;stroke-width:3;stroke-linecap:round;stroke-linejoin:round;stroke-miterlimit:4;stroke-dasharray:none;stroke-opacity:1"
         transform="matrix(1.3333333,0,0,-1.3333333,378.36667,137.136)" />
      <path
         id="path61"
         d="m 0,0 c -1.331,-1.074 -3.023,-1.717 -4.866,-1.717 -4.28,0 -7.75,3.47 -7.75,7.75 0,4.28 3.47,7.75 7.75,7.75 4.281,0 7.75,-3.47 7.75,-7.75"
         style="fill:none;stroke:#171717;stroke-width:3;stroke-linecap:round;stroke-linejoin:round;stroke-miterlimit:4;stroke-dasharray:none;stroke-opacity:1"
         transform="matrix(1.3333333,0,0,-1.3333333,272.13733,66.042667)" />
      <path
         id="path62"
         d="m 0,0 c 1.076,1.08 2.514,1.814 4.148,1.994 3.808,0.418 7.235,-2.328 7.653,-6.136"
         style="fill:none;stroke:#171717;stroke-width:3;stroke-linecap:round;stroke-linejoin:round;stroke-miterlimit:4;stroke-dasharray:none;stroke-opacity:1"
         transform="matrix(1.3333333,0,0,-1.3333333,255.90667,61.414667)" />
      <path
         id="path63"
         d="m 0,0 c 0.234,-1.596 0.999,-3.126 2.277,-4.305 2.971,-2.737 7.598,-2.548 10.337,0.423 2.738,2.97 2.55,7.598 -0.422,10.337 C 9.221,9.192 4.594,9.004 1.856,6.033"
         style="fill:none;stroke:#171717;stroke-width:3;stroke-linecap:round;stroke-linejoin:round;stroke-miterlimit:4;stroke-dasharray:none;stroke-opacity:1"
         transform="matrix(1.3333333,0,0,-1.3333333,283.836,69.981333)" />
      <path
         id="path64"
         d="m 0,0 c 0,0 0.625,1.25 1.5,3.25 0.875,2 0.375,1.875 -2.25,3.25 -2.625,1.375 -9.238,4.4 -9.238,4.4 0,0 -2,1.5 -3.875,-2.125 -1.875,-3.625 -13.332,-28.955 -13.332,-28.955 0,0 -0.367,-2.132 2.32,-3.57 2.688,-1.437 9.25,-4.75 9.25,-4.75 0,0 2.686,-1.811 5.218,3.157 2.532,4.968 4.032,7.968 4.032,7.968 l -0.372,2.127 c -0.056,1.438 -0.585,2.868 -1.605,4.038 -2.376,2.726 -6.509,3.012 -9.236,0.637"
         style="fill:none;stroke:#171717;stroke-width:3;stroke-linecap:round;stroke-linejoin:round;stroke-miterlimit:4;stroke-dasharray:none;stroke-opacity:1"
         transform="matrix(1.3333333,0,0,-1.3333333,307.056,56.821333)" />
      <path
         id="path65"
         d="M 0,0 C -0.87,1.715 -0.992,3.297 -0.164,4.071 1.081,5.234 4,4.132 6.357,1.61 8.713,-0.912 9.616,-3.898 8.372,-5.062 7.127,-6.225 4.209,-5.123 1.851,-2.601"
         style="fill:none;stroke:#171717;stroke-width:3;stroke-linecap:round;stroke-linejoin:round;stroke-miterlimit:4;stroke-dasharray:none;stroke-opacity:1"
         transform="matrix(1.3333333,0,0,-1.3333333,333.74933,94.204)" />
      <path
         id="path66"
         d="m 0,0 c 2.358,-2.522 3.259,-5.509 2.015,-6.671 -1.244,-1.164 -4.163,-0.062 -6.521,2.46 -2.356,2.522 -3.258,5.509 -2.014,6.672 0.84,0.785 2.441,0.538 4.119,-0.48"
         style="fill:none;stroke:#171717;stroke-width:3;stroke-linecap:round;stroke-linejoin:round;stroke-miterlimit:4;stroke-dasharray:none;stroke-opacity:1"
         transform="matrix(1.3333333,0,0,-1.3333333,336.204,97.684)" />
      <path
         id="path67"
         d="m 0,0 c 1.282,-1.622 3.266,-2.662 5.494,-2.661 3.866,0 7,3.134 7,7 0,3.866 -3.134,7 -7,7 -1.899,0 -3.621,-0.756 -4.882,-1.983"
         style="fill:none;stroke:#171717;stroke-width:3;stroke-linecap:round;stroke-linejoin:round;stroke-miterlimit:4;stroke-dasharray:none;stroke-opacity:1"
         transform="matrix(1.3333333,0,0,-1.3333333,340.076,115.15067)" />
      <path
         id="path68"
         d="m 0,0 c -1.242,1.955 -3.427,3.252 -5.914,3.252 -1.933,0 -3.683,-0.783 -4.949,-2.05"
         style="fill:none;stroke:#171717;stroke-width:3;stroke-linecap:round;stroke-linejoin:round;stroke-miterlimit:4;stroke-dasharray:none;stroke-opacity:1"
         transform="matrix(1.3333333,0,0,-1.3333333,353.776,116.168)" />
      <path
         id="path69"
         d="m 0,0 c 0,-1.333 -1.08,-2.413 -2.413,-2.413 -1.332,0 -2.413,1.08 -2.413,2.413 0,1.333 1.081,2.413 2.413,2.413 C -1.08,2.413 0,1.333 0,0 Z"
         style="fill:none;stroke:#171717;stroke-width:3;stroke-linecap:round;stroke-linejoin:round;stroke-miterlimit:4;stroke-dasharray:none;stroke-opacity:1"
         transform="matrix(1.3333333,0,0,-1.3333333,384.004,184.88667)" />
      <path
         id="path70"
         d="m 0,0 c 0,-1.333 -1.08,-2.413 -2.413,-2.413 -1.332,0 -2.413,1.08 -2.413,2.413 0,1.333 1.081,2.413 2.413,2.413 C -1.08,2.413 0,1.333 0,0 Z"
         style="fill:none;stroke:#171717;stroke-width:3;stroke-linecap:round;stroke-linejoin:round;stroke-miterlimit:4;stroke-dasharray:none;stroke-opacity:1"
         transform="matrix(1.3333333,0,0,-1.3333333,394.01333,181.564)" />
    </g>
  </g>
</svg>
