<?xml version="1.0" encoding="UTF-8" standalone="no"?>
<!-- Created with Inkscape (http://www.inkscape.org/) -->

<svg
   version="1.1"
   id="svg1"
   width="412.68799"
   height="411.08932"
   viewBox="0 0 412.68799 411.08932"
   sodipodi:docname="Micronesia RC.svg"
   inkscape:version="1.3.2 (091e20e, 2023-11-25, custom)"
   xmlns:inkscape="http://www.inkscape.org/namespaces/inkscape"
   xmlns:sodipodi="http://sodipodi.sourceforge.net/DTD/sodipodi-0.dtd"
   xmlns="http://www.w3.org/2000/svg"
   xmlns:svg="http://www.w3.org/2000/svg">
  <defs
     id="defs1">
    <clipPath
       clipPathUnits="userSpaceOnUse"
       id="clipPath4">
      <path
         d="M 0.059998,308.28 H 309.516 V 0 H 0.059998 Z"
         transform="translate(-143.322,-299.55101)"
         id="path4" />
    </clipPath>
    <clipPath
       clipPathUnits="userSpaceOnUse"
       id="clipPath6">
      <path
         d="M 0.059998,308.28 H 309.516 V 0 H 0.059998 Z"
         transform="translate(-130.45701,-298.86201)"
         id="path6" />
    </clipPath>
    <clipPath
       clipPathUnits="userSpaceOnUse"
       id="clipPath23">
      <path
         d="M 0.059998,308.28 H 309.516 V 0 H 0.059998 Z"
         transform="translate(-8.1317005,-161.998)"
         id="path23" />
    </clipPath>
    <clipPath
       clipPathUnits="userSpaceOnUse"
       id="clipPath25">
      <path
         d="M 0.059998,308.28 H 309.516 V 0 H 0.059998 Z"
         transform="translate(-8.0209,-149.37601)"
         id="path25" />
    </clipPath>
    <clipPath
       clipPathUnits="userSpaceOnUse"
       id="clipPath27">
      <path
         d="M 0.059998,308.28 H 309.516 V 0 H 0.059998 Z"
         transform="translate(-8.4509005,-137.58001)"
         id="path27" />
    </clipPath>
    <clipPath
       clipPathUnits="userSpaceOnUse"
       id="clipPath29">
      <path
         d="M 0.059998,308.28 H 309.516 V 0 H 0.059998 Z"
         transform="translate(-9.7341002,-126.118)"
         id="path29" />
    </clipPath>
    <clipPath
       clipPathUnits="userSpaceOnUse"
       id="clipPath31">
      <path
         d="M 0.059998,308.28 H 309.516 V 0 H 0.059998 Z"
         transform="translate(-155.299,-299.32101)"
         id="path31" />
    </clipPath>
    <clipPath
       clipPathUnits="userSpaceOnUse"
       id="clipPath46">
      <path
         d="M 0.059998,308.28 H 309.516 V 0 H 0.059998 Z"
         transform="translate(-298.627,-177.881)"
         id="path46" />
    </clipPath>
    <clipPath
       clipPathUnits="userSpaceOnUse"
       id="clipPath72">
      <path
         d="M 0.059998,308.28 H 309.516 V 0 H 0.059998 Z"
         transform="translate(-162.51,-7.4400027)"
         id="path72" />
    </clipPath>
    <clipPath
       clipPathUnits="userSpaceOnUse"
       id="clipPath74">
      <path
         d="M 0.059998,308.28 H 309.516 V 0 H 0.059998 Z"
         transform="translate(-176.19,-8.8500027)"
         id="path74" />
    </clipPath>
    <clipPath
       clipPathUnits="userSpaceOnUse"
       id="clipPath76">
      <path
         d="M 0.059998,308.28 H 309.516 V 0 H 0.059998 Z"
         transform="translate(-188.77701,-10.924)"
         id="path76" />
    </clipPath>
  </defs>
  <sodipodi:namedview
     id="namedview1"
     pagecolor="#ffffff"
     bordercolor="#666666"
     borderopacity="1.0"
     inkscape:showpageshadow="2"
     inkscape:pageopacity="0.0"
     inkscape:pagecheckerboard="0"
     inkscape:deskcolor="#d1d1d1"
     inkscape:zoom="1.9971328"
     inkscape:cx="206.5461"
     inkscape:cy="205.54466"
     inkscape:window-width="1920"
     inkscape:window-height="1017"
     inkscape:window-x="-8"
     inkscape:window-y="-8"
     inkscape:window-maximized="1"
     inkscape:current-layer="g1">
    <inkscape:page
       x="0"
       y="0"
       inkscape:label="1"
       id="page1"
       width="412.68799"
       height="411.08932"
       margin="0"
       bleed="0" />
  </sodipodi:namedview>
  <g
     id="g1"
     inkscape:groupmode="layer"
     inkscape:label="1">
    <g
       id="group-MC1">
      <path
         id="path2"
         d="M 0,0 V 51.404 H -54.424 V 0 h -51.217 v -54.604 h 51.217 v -51.4 H 0 v 51.4 H 51.223 L 51.223,0 H 0"
         style="fill:#ed1c24;fill-opacity:1;fill-rule:evenodd;stroke:none"
         transform="matrix(1.3333333,0,0,-1.3333333,242.62267,169.144)" />
      <path
         id="path3"
         d="m 0,0 c 0,0 3.994,-1.3 9.907,1.99 l 6.506,6.522 c 0,0 -3.994,1.301 -9.909,-1.99 L 0,0"
         style="fill:#231f20;fill-opacity:1;fill-rule:evenodd;stroke:none"
         transform="matrix(1.3333333,0,0,-1.3333333,191.096,11.688)"
         clip-path="url(#clipPath4)" />
      <path
         id="path5"
         d="m 0,0 c 0,0 3.995,-1.3 9.909,1.99 l 6.502,6.522 c 0,0 -3.992,1.301 -9.907,-1.99 L 0,0"
         style="fill:#231f20;fill-opacity:1;fill-rule:evenodd;stroke:none"
         transform="matrix(1.3333333,0,0,-1.3333333,173.94267,12.606667)"
         clip-path="url(#clipPath6)" />
      <path
         id="path7"
         d="m 0,0 c 0,0 4.091,-0.918 9.691,2.917 l 5.903,7.11 c 0,0 -4.092,0.918 -9.692,-2.918 L 0,0"
         style="fill:#231f20;fill-opacity:1;fill-rule:evenodd;stroke:none"
         transform="matrix(1.3333333,0,0,-1.3333333,156.79067,16.277333)" />
      <path
         id="path8"
         d="m 0,0 c 0,0 4.145,-0.61 9.463,3.63 l 5.394,7.53 c 0,0 -4.144,0.611 -9.464,-3.629 L 0,0"
         style="fill:#231f20;fill-opacity:1;fill-rule:evenodd;stroke:none"
         transform="matrix(1.3333333,0,0,-1.3333333,141.70933,21.173333)" />
      <path
         id="path9"
         d="m 0,0 c 0,0 4.183,-0.186 9.057,4.992 l 4.625,8.732 c 0,0 -4.183,0.187 -9.056,-4.992 L 0,0"
         style="fill:#231f20;fill-opacity:1;fill-rule:evenodd;stroke:none"
         transform="matrix(1.3333333,0,0,-1.3333333,125.14933,28.822667)" />
      <path
         id="path10"
         d="m 0,0 c 0,0 4.161,0.512 8.277,6.279 l 3.391,10.183 c 0,0 -4.162,-0.511 -8.279,-6.278 L 0,0"
         style="fill:#231f20;fill-opacity:1;fill-rule:evenodd;stroke:none"
         transform="matrix(1.3333333,0,0,-1.3333333,111.32267,37.201333)" />
      <path
         id="path11"
         d="m 0,0 c 0,0 4.16,0.519 8.277,6.38 l 3.389,10.347 c 0,0 -4.161,-1.588 -8.278,-7.449 L 0,0"
         style="fill:#231f20;fill-opacity:1;fill-rule:evenodd;stroke:none"
         transform="matrix(1.3333333,0,0,-1.3333333,96.977333,43.933333)" />
      <path
         id="path12"
         d="m 0,0 c 0,0 4.004,1.343 7.085,7.911 l 1.803,9.769 c 0,0 -4.005,-1.344 -7.086,-7.91 L 0,0"
         style="fill:#231f20;fill-opacity:1;fill-rule:evenodd;stroke:none"
         transform="matrix(1.3333333,0,0,-1.3333333,84.261333,54.030667)" />
      <path
         id="path13"
         d="m 0,0 c 0,0 4.004,1.363 7.085,8.029 l 1.804,9.916 c 0,0 -4.005,-1.363 -7.087,-8.029 L 0,0"
         style="fill:#231f20;fill-opacity:1;fill-rule:evenodd;stroke:none"
         transform="matrix(1.3333333,0,0,-1.3333333,71.841333,63.208)" />
      <path
         id="path14"
         d="m 0,0 c 0,0 3.666,2.216 5.443,9.307 l -0.074,9.917 c 0,0 -3.666,-2.215 -5.445,-9.306 L 0,0"
         style="fill:#231f20;fill-opacity:1;fill-rule:evenodd;stroke:none"
         transform="matrix(1.3333333,0,0,-1.3333333,62.570667,73.970667)" />
      <path
         id="path15"
         d="M 0,0 C 0,0 3.666,2.186 5.443,9.179 L 5.369,18.96 c 0,0 -3.666,-2.186 -5.445,-9.178 L 0,0"
         style="fill:#231f20;fill-opacity:1;fill-rule:evenodd;stroke:none"
         transform="matrix(1.3333333,0,0,-1.3333333,52.22,84.372)" />
      <path
         id="path16"
         d="M 0,0 C 0,0 3.664,2.4 5.442,10.077 L 5.368,20.815 c 0,0 -3.665,-2.4 -5.444,-10.076 L 0,0"
         style="fill:#231f20;fill-opacity:1;fill-rule:evenodd;stroke:none"
         transform="matrix(1.3333333,0,0,-1.3333333,41.872,99.058667)" />
      <path
         id="path17"
         d="m 0,0 c 0,0 3.213,2.912 3.727,10.131 l -1.8,9.559 c 0,0 -3.211,-2.912 -3.724,-10.132 L 0,0"
         style="fill:#231f20;fill-opacity:1;fill-rule:evenodd;stroke:none"
         transform="matrix(1.3333333,0,0,-1.3333333,34.576,110.912)" />
      <path
         id="path18"
         d="m 0,0 c 0,0 3.1,3.071 3.341,10.402 l -2.158,9.613 c 0,0 -3.1,-3.071 -3.341,-10.404 L 0,0"
         style="fill:#231f20;fill-opacity:1;fill-rule:evenodd;stroke:none"
         transform="matrix(1.3333333,0,0,-1.3333333,26.792,126.36)" />
      <path
         id="path19"
         d="m 0,0 c 0,0 2.977,3.486 2.213,10.73 l -3.719,9.13 c 0,0 -2.976,-3.487 -2.215,-10.733 L 0,0"
         style="fill:#231f20;fill-opacity:1;fill-rule:evenodd;stroke:none"
         transform="matrix(1.3333333,0,0,-1.3333333,21.426667,142.92533)" />
      <path
         id="path20"
         d="m 0,0 c 0,0 2.977,3.539 2.213,10.896 l -3.7194,9.27 c 0,0 -2.9759,-3.541 -2.2148,-10.898 L 0,0"
         style="fill:#231f20;fill-opacity:1;fill-rule:evenodd;stroke:none"
         transform="matrix(1.3333333,0,0,-1.3333333,14.921333,160.05867)" />
      <path
         id="path21"
         d="m 0,0 c 0,0 2.238,3.658 0.6801,10.416 l -4.4262,8.179 c 0,0 -2.2378,-3.661 -0.6802,-10.42 L 0,0"
         style="fill:#231f20;fill-opacity:1;fill-rule:evenodd;stroke:none"
         transform="matrix(1.3333333,0,0,-1.3333333,11.895067,177.46667)" />
      <path
         id="path22"
         d="m 0,0 c 0,0 1.982,4.161 -0.4917,11.136 l -5.7407,8.129 c 0,0 -1.9829,-4.162 0.4922,-11.139 L 0,0"
         style="fill:#231f20;fill-opacity:1;fill-rule:evenodd;stroke:none"
         transform="matrix(1.3333333,0,0,-1.3333333,10.842267,195.092)"
         clip-path="url(#clipPath23)" />
      <path
         id="path24"
         d="m 0,0 c 0,0 1.5312,4.032 -1.2286,10.363 l -5.8388,7.167 c 0,0 -1.5308,-4.03 1.2309,-10.363 L 0,0"
         style="fill:#231f20;fill-opacity:1;fill-rule:evenodd;stroke:none"
         transform="matrix(1.3333333,0,0,-1.3333333,10.694533,211.92133)"
         clip-path="url(#clipPath25)" />
      <path
         id="path26"
         d="m 0,0 c 0,0 1.2622,4.127 -1.9072,10.251 l -6.2954,6.738 c 0,0 -1.2632,-4.127 1.9082,-10.252 L 0,0"
         style="fill:#231f20;fill-opacity:1;fill-rule:evenodd;stroke:none"
         transform="matrix(1.3333333,0,0,-1.3333333,11.267867,227.64933)"
         clip-path="url(#clipPath27)" />
      <path
         id="path28"
         d="m 0,0 c 0,0 0.952,4.216 -2.663,10.069 l -6.7769,6.219 c 0,0 -0.9541,-4.216 2.6641,-10.071 L 0,0"
         style="fill:#231f20;fill-opacity:1;fill-rule:evenodd;stroke:none"
         transform="matrix(1.3333333,0,0,-1.3333333,12.9788,242.932)"
         clip-path="url(#clipPath29)" />
      <path
         id="path30"
         d="m 0,0 c 0,0 3.994,-1.3 9.909,1.99 l 6.504,6.523 c 0,0 -3.992,1.3 -9.909,-1.991 L 0,0"
         style="fill:#231f20;fill-opacity:1;fill-rule:evenodd;stroke:none"
         transform="matrix(1.3333333,0,0,-1.3333333,207.06533,11.994667)"
         clip-path="url(#clipPath31)" />
      <path
         id="path32"
         d="m 0,0 c 0,0 3.805,-1.809 10.073,0.686 l 7.244,5.625 c 0,0 -3.803,1.809 -10.07,-0.685 L 0,0"
         style="fill:#231f20;fill-opacity:1;fill-rule:evenodd;stroke:none"
         transform="matrix(1.3333333,0,0,-1.3333333,223.504,12.565333)" />
      <path
         id="path33"
         d="m 0,0 c 0,0 3.681,-2.065 10.095,-0.006 l 7.589,5.113 c 0,0 -3.681,2.068 -10.093,0.009 L 0,0"
         style="fill:#231f20;fill-opacity:1;fill-rule:evenodd;stroke:none"
         transform="matrix(1.3333333,0,0,-1.3333333,241.27733,14.669333)" />
      <path
         id="path34"
         d="m 0,0 c 0,0 3.591,-2.23 10.085,-0.462 l 7.799,4.767 c 0,0 -3.591,2.231 -10.083,0.463 L 0,0"
         style="fill:#231f20;fill-opacity:1;fill-rule:evenodd;stroke:none"
         transform="matrix(1.3333333,0,0,-1.3333333,255.95333,18.089333)" />
      <path
         id="path35"
         d="m 0,0 c 0,0 3.413,-2.507 10.022,-1.258 l 8.126,4.135 c 0,0 -3.415,2.509 -10.018,1.261 L 0,0"
         style="fill:#231f20;fill-opacity:1;fill-rule:evenodd;stroke:none"
         transform="matrix(1.3333333,0,0,-1.3333333,269.148,22.36)" />
      <path
         id="path36"
         d="m 0,0 c 0,0 3.261,-2.715 9.929,-1.881 l 8.353,3.622 c 0,0 -3.261,2.718 -9.927,1.882 L 0,0"
         style="fill:#231f20;fill-opacity:1;fill-rule:evenodd;stroke:none"
         transform="matrix(1.3333333,0,0,-1.3333333,282.11467,27.465333)" />
      <path
         id="path37"
         d="m 0,0 c 0,0 2.872,-3.152 9.588,-3.269 l 8.752,2.405 c 0,0 -2.871,3.154 -9.585,3.271 L 0,0"
         style="fill:#231f20;fill-opacity:1;fill-rule:evenodd;stroke:none"
         transform="matrix(1.3333333,0,0,-1.3333333,295.912,33.090667)" />
      <path
         id="path38"
         d="m 0,0 c 0,0 2.662,-3.342 9.355,-3.919 l 8.889,1.8 c 0,0 -2.664,3.343 -9.355,3.92 L 0,0"
         style="fill:#231f20;fill-opacity:1;fill-rule:evenodd;stroke:none"
         transform="matrix(1.3333333,0,0,-1.3333333,310.016,40.869333)" />
      <path
         id="path39"
         d="m 0,0 c 0,0 1.702,-3.958 8.004,-6.363 l 9.03,-0.721 c 0,0 -1.703,3.956 -8.002,6.363 L 0,0"
         style="fill:#231f20;fill-opacity:1;fill-rule:evenodd;stroke:none"
         transform="matrix(1.3333333,0,0,-1.3333333,356.124,82.212)" />
      <path
         id="path40"
         d="m 0,0 c 0,0 8.382,-1.683 11.507,-5.565 3.128,-3.883 4.129,-7.248 4.129,-7.248 0,0 -13.76,4.27 -15.636,12.813"
         style="fill:#231f20;fill-opacity:1;fill-rule:nonzero;stroke:none"
         transform="matrix(1.3333333,0,0,-1.3333333,376.53333,112.35867)" />
      <path
         id="path41"
         d="m 0,0 c 0,0 8.381,-1.683 11.506,-5.565 3.127,-3.884 4.128,-7.248 4.128,-7.248 0,0 -13.76,4.27 -15.634,12.813"
         style="fill:#231f20;fill-opacity:1;fill-rule:nonzero;stroke:none"
         transform="matrix(1.3333333,0,0,-1.3333333,381.872,127.372)" />
      <path
         id="path42"
         d="m 0,0 c 0,0 8.382,-1.683 11.508,-5.565 3.125,-3.884 4.126,-7.248 4.126,-7.248 0,0 -13.757,4.269 -15.634,12.813"
         style="fill:#231f20;fill-opacity:1;fill-rule:nonzero;stroke:none"
         transform="matrix(1.3333333,0,0,-1.3333333,386.708,143.248)" />
      <path
         id="path43"
         d="m 0,0 c 0,0 7.877,-3.406 10.179,-7.865 2.301,-4.457 2.622,-7.962 2.622,-7.962 0,0 -12.636,7.068 -12.801,15.827"
         style="fill:#231f20;fill-opacity:1;fill-rule:nonzero;stroke:none"
         transform="matrix(1.3333333,0,0,-1.3333333,394.212,158.43467)" />
      <path
         id="path44"
         d="m 0,0 c 0,0 8.383,-1.683 11.508,-5.564 3.128,-3.884 4.13,-7.248 4.13,-7.248 0,0 -13.761,4.269 -15.638,12.812"
         style="fill:#231f20;fill-opacity:1;fill-rule:nonzero;stroke:none"
         transform="matrix(1.3333333,0,0,-1.3333333,369.19333,96.656)" />
      <path
         id="path45"
         d="m 0,0 c 0,0 7.431,-4.354 9.202,-9.064 1.77,-4.71 1.686,-8.229 1.686,-8.229 0,0 -11.732,8.575 -10.888,17.293"
         style="fill:#231f20;fill-opacity:1;fill-rule:nonzero;stroke:none"
         transform="matrix(1.3333333,0,0,-1.3333333,398.16933,173.91467)"
         clip-path="url(#clipPath46)" />
      <path
         id="path47"
         d="m 0,0 c 0,0 6.957,-5.121 8.249,-9.994 1.292,-4.875 0.856,-8.366 0.856,-8.366 0,0 -10.813,9.781 -9.105,18.36"
         style="fill:#231f20;fill-opacity:1;fill-rule:nonzero;stroke:none"
         transform="matrix(1.3333333,0,0,-1.3333333,399.8,189.52133)" />
      <path
         id="path48"
         d="m 0,0 c 0,0 2.662,-3.342 9.356,-3.919 l 8.888,1.8 c 0,0 -2.664,3.343 -9.355,3.92 L 0,0"
         style="fill:#231f20;fill-opacity:1;fill-rule:evenodd;stroke:none"
         transform="matrix(1.3333333,0,0,-1.3333333,322.18133,49.853333)" />
      <path
         id="path49"
         d="m 0,0 c 0,0 2.319,-3.607 8.92,-4.892 l 9.021,0.848 c 0,0 -2.32,3.609 -8.918,4.894 L 0,0"
         style="fill:#231f20;fill-opacity:1;fill-rule:evenodd;stroke:none"
         transform="matrix(1.3333333,0,0,-1.3333333,333.492,59.256)" />
      <path
         id="path50"
         d="m 0,0 c 0,0 2.053,-3.774 8.545,-5.56 l 9.056,0.153 c 0,0 -2.055,3.776 -8.543,5.562 L 0,0"
         style="fill:#231f20;fill-opacity:1;fill-rule:evenodd;stroke:none"
         transform="matrix(1.3333333,0,0,-1.3333333,344.292,70.238667)" />
      <path
         id="path51"
         d="m 0,0 c 0,0 -3.876,-1.639 -6.395,-8.077 l -0.988,-9.314 c 0,0 3.877,1.638 6.403,8.072 L 0,0"
         style="fill:#231f20;fill-opacity:1;fill-rule:evenodd;stroke:none"
         transform="matrix(1.3333333,0,0,-1.3333333,324.572,357.24933)" />
      <path
         id="path52"
         d="m 0,0 c 0,0 -3.876,-1.638 -6.393,-8.078 l -0.99,-9.315 c 0,0 3.88,1.641 6.402,8.074 L 0,0"
         style="fill:#231f20;fill-opacity:1;fill-rule:evenodd;stroke:none"
         transform="matrix(1.3333333,0,0,-1.3333333,336.816,348.28933)" />
      <path
         id="path53"
         d="m 0,0 c 0,0 -3.875,-1.638 -6.393,-8.077 l -0.989,-9.316 c 0,0 3.879,1.642 6.402,8.074 L 0,0"
         style="fill:#231f20;fill-opacity:1;fill-rule:evenodd;stroke:none"
         transform="matrix(1.3333333,0,0,-1.3333333,349.656,337.784)" />
      <path
         id="path54"
         d="m 0,0 c 0,0 -3.789,-1.841 -5.988,-8.404 l -0.526,-9.355 c 0,0 3.792,1.843 5.996,8.401 L 0,0"
         style="fill:#231f20;fill-opacity:1;fill-rule:evenodd;stroke:none"
         transform="matrix(1.3333333,0,0,-1.3333333,360.48667,326.488)" />
      <path
         id="path55"
         d="m 0,0 c 0,0 -3.547,-2.298 -4.967,-9.089 l 0.566,-9.352 c 0,0 3.551,2.303 4.974,9.085 L 0,0"
         style="fill:#231f20;fill-opacity:1;fill-rule:evenodd;stroke:none"
         transform="matrix(1.3333333,0,0,-1.3333333,369.616,312.29467)" />
      <path
         id="path56"
         d="m 0,0 c 0,0 0.548,4.293 -3.6035,9.752 l -7.3315,5.506 c 0,0 -0.549,-4.295 3.6039,-9.756 L 0,0"
         style="fill:#231f20;fill-opacity:1;fill-rule:evenodd;stroke:none"
         transform="matrix(1.3333333,0,0,-1.3333333,16.894667,258.01467)" />
      <path
         id="path57"
         d="m 0,0 c 0,0 0.136,4.328 -4.52,9.334 l -7.823,4.724 c 0,0 -0.136,-4.328 4.5207,-9.335 L 0,0"
         style="fill:#231f20;fill-opacity:1;fill-rule:evenodd;stroke:none"
         transform="matrix(1.3333333,0,0,-1.3333333,21.593333,272.884)" />
      <path
         id="path58"
         d="m 0,0 c 0,0 -0.252,4.322 -5.336,8.861 l -8.212,3.955 c 0,0 0.253,-4.322 5.338,-8.863 L 0,0"
         style="fill:#231f20;fill-opacity:1;fill-rule:evenodd;stroke:none"
         transform="matrix(1.3333333,0,0,-1.3333333,28.104,287.928)" />
      <path
         id="path59"
         d="m 0,0 c 0,0 -0.386,4.313 -5.605,8.684 l -8.329,3.681 c 0,0 0.384,-4.312 5.607,-8.683 L 0,0"
         style="fill:#231f20;fill-opacity:1;fill-rule:evenodd;stroke:none"
         transform="matrix(1.3333333,0,0,-1.3333333,34.668,302.23333)" />
      <path
         id="path60"
         d="m 0,0 c 0,0 -0.688,4.271 -6.202,8.238 l -8.566,3.046 c 0,0 0.688,-4.272 6.202,-8.242 L 0,0"
         style="fill:#231f20;fill-opacity:1;fill-rule:evenodd;stroke:none"
         transform="matrix(1.3333333,0,0,-1.3333333,41.757333,314.404)" />
      <path
         id="path61"
         d="m 0,0 c 0,0 -0.964,4.216 -6.721,7.789 l -8.743,2.445 c 0,0 0.96,-4.215 6.72,-7.789 L 0,0"
         style="fill:#231f20;fill-opacity:1;fill-rule:evenodd;stroke:none"
         transform="matrix(1.3333333,0,0,-1.3333333,51.858667,328.63333)" />
      <path
         id="path62"
         d="m 0,0 c 0,0 -1.504,4.595 -8.452,7.716 l -10.269,1.385 c 0,0 1.501,-4.596 8.452,-7.719 L 0,0"
         style="fill:#231f20;fill-opacity:1;fill-rule:evenodd;stroke:none"
         transform="matrix(1.3333333,0,0,-1.3333333,66.854667,343.16667)" />
      <path
         id="path63"
         d="m 0,0 c 0,0 -1.731,4.509 -8.824,7.257 l -10.324,0.837 c 0,0 1.728,-4.513 8.824,-7.259 L 0,0"
         style="fill:#231f20;fill-opacity:1;fill-rule:evenodd;stroke:none"
         transform="matrix(1.3333333,0,0,-1.3333333,80.641333,356.732)" />
      <path
         id="path64"
         d="m 0,0 c 0,0 -2.043,4.367 -9.311,6.576 l -10.354,0.056 c 0,0 2.04,-4.367 9.31,-6.577 L 0,0"
         style="fill:#231f20;fill-opacity:1;fill-rule:evenodd;stroke:none"
         transform="matrix(1.3333333,0,0,-1.3333333,96.412,368.15067)" />
      <path
         id="path65"
         d="M 0,0 C 0,0 -2.338,4.206 -9.739,5.873 L -20.072,5.169 c 0,0 2.336,-4.208 9.741,-5.875 L 0,0"
         style="fill:#231f20;fill-opacity:1;fill-rule:evenodd;stroke:none"
         transform="matrix(1.3333333,0,0,-1.3333333,110.84,377.70667)" />
      <path
         id="path66"
         d="M 0,0 C 0,0 -2.563,4.064 -10.043,5.298 L -20.321,3.994 c 0,0 2.56,-4.065 10.044,-5.3 L 0,0"
         style="fill:#231f20;fill-opacity:1;fill-rule:evenodd;stroke:none"
         transform="matrix(1.3333333,0,0,-1.3333333,127.064,386.508)" />
      <path
         id="path67"
         d="M 0,0 C 0,0 -2.823,3.874 -10.366,4.58 L -20.537,2.555 c 0,0 2.821,-3.875 10.369,-4.581 L 0,0"
         style="fill:#231f20;fill-opacity:1;fill-rule:evenodd;stroke:none"
         transform="matrix(1.3333333,0,0,-1.3333333,145.796,393.49733)" />
      <path
         id="path68"
         d="m 0,0 c 0,0 -3.283,3.465 -10.854,3.154 l -9.831,-3.369 c 0,0 3.284,-3.4629 10.856,-3.153 L 0,0"
         style="fill:#231f20;fill-opacity:1;fill-rule:evenodd;stroke:none"
         transform="matrix(1.3333333,0,0,-1.3333333,164.86133,398.496)" />
      <path
         id="path69"
         d="m 0,0 c 0,0 -3.6,3.11 -11.101,2.022 l -9.458,-4.361 c 0,0 3.598,-3.11 11.103,-2.024 L 0,0"
         style="fill:#231f20;fill-opacity:1;fill-rule:evenodd;stroke:none"
         transform="matrix(1.3333333,0,0,-1.3333333,183.068,400.72)" />
      <path
         id="path70"
         d="m 0,0 c 0,0 -3.473,2.312 -9.911,0.516 l -7.804,-4.876 c 0,0 3.471,-2.314 9.912,-0.517 L 0,0"
         style="fill:#231f20;fill-opacity:1;fill-rule:evenodd;stroke:none"
         transform="matrix(1.3333333,0,0,-1.3333333,198.03467,401.78)" />
      <path
         id="path71"
         d="m 0,0 c 0,0 -3.564,2.668 -10.45,0.153 l -8.469,-6.36 c 0,0 3.567,-2.669 10.454,-0.153 L 0,0"
         style="fill:#231f20;fill-opacity:1;fill-rule:evenodd;stroke:none"
         transform="matrix(1.3333333,0,0,-1.3333333,216.68,401.16933)"
         clip-path="url(#clipPath72)" />
      <path
         id="path73"
         d="m 0,0 c 0,0 -3.779,2.332 -10.425,-0.801 l -7.894,-7.104 c 0,0 3.779,-2.337 10.426,0.797 L 0,0"
         style="fill:#231f20;fill-opacity:1;fill-rule:evenodd;stroke:none"
         transform="matrix(1.3333333,0,0,-1.3333333,234.92,399.28933)"
         clip-path="url(#clipPath74)" />
      <path
         id="path75"
         d="m 0,0 c 0,0 -3.912,2.08 -10.355,-1.481 l -7.44,-7.61 c 0,0 3.916,-2.084 10.356,1.483 L 0,0"
         style="fill:#231f20;fill-opacity:1;fill-rule:evenodd;stroke:none"
         transform="matrix(1.3333333,0,0,-1.3333333,251.70267,396.524)"
         clip-path="url(#clipPath76)" />
      <path
         id="path77"
         d="m 0,0 c 0,0 -4.147,1.521 -10.07,-2.898 l -6.393,-8.57 c 0,0 4.147,-1.525 10.07,2.899 L 0,0"
         style="fill:#231f20;fill-opacity:1;fill-rule:evenodd;stroke:none"
         transform="matrix(1.3333333,0,0,-1.3333333,267.70533,391.06667)" />
      <path
         id="path78"
         d="m 0,0 c 0,0 -4.218,1.3 -9.915,-3.426 l -5.961,-8.897 c 0,0 4.218,-1.303 9.915,3.428 L 0,0"
         style="fill:#231f20;fill-opacity:1;fill-rule:evenodd;stroke:none"
         transform="matrix(1.3333333,0,0,-1.3333333,284.61733,384.68933)" />
      <path
         id="path79"
         d="m 0,0 c 0,0 -3.493,1.366 -8.12,-3.277 l -4.782,-8.815 c 0,0 3.494,-1.37 8.121,3.277 L 0,0"
         style="fill:#231f20;fill-opacity:1;fill-rule:evenodd;stroke:none"
         transform="matrix(1.3333333,0,0,-1.3333333,298.72667,378.24)" />
      <path
         id="path80"
         d="m 0,0 c 0,0 -3.625,0.927 -7.685,-4.251 l -3.736,-9.34 c 0,0 3.627,-0.934 7.686,4.251 L 0,0"
         style="fill:#231f20;fill-opacity:1;fill-rule:evenodd;stroke:none"
         transform="matrix(1.3333333,0,0,-1.3333333,313.156,368.60533)" />
      <path
         id="path81"
         d="m 0,0 c 0,0 -3.547,-2.297 -4.966,-9.088 l 0.566,-9.353 c 0,0 3.551,2.302 4.975,9.086 L 0,0"
         style="fill:#231f20;fill-opacity:1;fill-rule:evenodd;stroke:none"
         transform="matrix(1.3333333,0,0,-1.3333333,381.26267,293.756)" />
      <path
         id="path82"
         d="m 0,0 c 0,0 -3.062,-2.951 -3.21,-9.896 l 2.27,-9.075 c 0,0 3.064,2.958 3.218,9.899 L 0,0"
         style="fill:#231f20;fill-opacity:1;fill-rule:evenodd;stroke:none"
         transform="matrix(1.3333333,0,0,-1.3333333,387.81067,277.11867)" />
      <path
         id="path83"
         d="m 0,0 c 0,0 -2.778,-3.239 -2.29,-10.169 l 3.093,-8.808 c 0,0 2.778,3.244 2.296,10.169 L 0,0"
         style="fill:#231f20;fill-opacity:1;fill-rule:evenodd;stroke:none"
         transform="matrix(1.3333333,0,0,-1.3333333,394.02933,258.31333)" />
      <path
         id="path84"
         d="m 0,0 c 0,0 -2.777,-3.239 -2.288,-10.169 l 3.091,-8.808 c 0,0 2.778,3.244 2.297,10.169 L 0,0"
         style="fill:#231f20;fill-opacity:1;fill-rule:evenodd;stroke:none"
         transform="matrix(1.3333333,0,0,-1.3333333,399.104,243.17467)" />
      <path
         id="path85"
         d="m 0,0 c 0,0 -2.228,-3.664 -0.651,-10.419 l 4.441,-8.169 c 0,0 2.231,3.674 0.659,10.423 L 0,0"
         style="fill:#231f20;fill-opacity:1;fill-rule:evenodd;stroke:none"
         transform="matrix(1.3333333,0,0,-1.3333333,401.40267,224.176)" />
      <path
         id="path86"
         d="m 0,0 c 0,0 -1.713,-3.948 0.753,-10.41 l 5.497,-7.452 c 0,0 1.712,3.958 -0.748,10.418 L 0,0"
         style="fill:#231f20;fill-opacity:1;fill-rule:evenodd;stroke:none"
         transform="matrix(1.3333333,0,0,-1.3333333,400.936,206.86)" />
      <path
         id="path87"
         d="m 0,0 c 0,0 4.082,-1.284 10.125,1.966 l 6.646,6.442 c 0,0 -4.08,1.284 -10.125,-1.965 L 0,0"
         style="fill:#231f20;fill-opacity:1;fill-rule:evenodd;stroke:none"
         transform="matrix(1.3333333,0,0,-1.3333333,207.36933,79.361333)" />
      <path
         id="path88"
         d="m 0,0 c 0,0 4.082,-1.284 10.127,1.965 l 6.647,6.443 c 0,0 -4.081,1.284 -10.125,-1.966 L 0,0"
         style="fill:#231f20;fill-opacity:1;fill-rule:evenodd;stroke:none"
         transform="matrix(1.3333333,0,0,-1.3333333,191.51067,79.101333)" />
      <path
         id="path89"
         d="m 0,0 c 0,0 4.157,-1.014 9.973,2.625 l 6.21,6.864 c 0,0 -4.153,1.014 -9.973,-2.624 L 0,0"
         style="fill:#231f20;fill-opacity:1;fill-rule:evenodd;stroke:none"
         transform="matrix(1.3333333,0,0,-1.3333333,175.86533,80.86)" />
      <path
         id="path90"
         d="m 0,0 c 0,0 4.259,-0.408 9.496,4.027 l 5.162,7.683 c 0,0 -4.258,0.409 -9.496,-4.026 L 0,0"
         style="fill:#231f20;fill-opacity:1;fill-rule:evenodd;stroke:none"
         transform="matrix(1.3333333,0,0,-1.3333333,159.876,86.658667)" />
      <path
         id="path91"
         d="m 0,0 c 0,0 4.254,0.449 8.504,5.837 l 3.53,8.558 c 0,0 -4.254,-0.449 -8.506,-5.837 L 0,0"
         style="fill:#231f20;fill-opacity:1;fill-rule:evenodd;stroke:none"
         transform="matrix(1.3333333,0,0,-1.3333333,146.5,92.168)" />
      <path
         id="path92"
         d="m 0,0 c 0,0 3.887,-1.787 10.293,0.677 l 7.405,5.557 c 0,0 -3.889,1.787 -10.293,-0.677 L 0,0"
         style="fill:#231f20;fill-opacity:1;fill-rule:evenodd;stroke:none"
         transform="matrix(1.3333333,0,0,-1.3333333,222.33333,80.070667)" />
      <path
         id="path93"
         d="m 0,0 c 0,0 3.76,-2.04 10.317,-0.007 l 7.754,5.051 c 0,0 -3.76,2.043 -10.313,0.008 L 0,0"
         style="fill:#231f20;fill-opacity:1;fill-rule:evenodd;stroke:none"
         transform="matrix(1.3333333,0,0,-1.3333333,237.5,83.645333)" />
      <path
         id="path94"
         d="m 0,0 c 0,0 3.582,-2.34 10.281,-0.849 l 8.141,4.405 c 0,0 -3.58,2.34 -10.279,0.849 L 0,0"
         style="fill:#231f20;fill-opacity:1;fill-rule:evenodd;stroke:none"
         transform="matrix(1.3333333,0,0,-1.3333333,251.24,88.750667)" />
      <path
         id="path95"
         d="m 0,0 c 0,0 3.017,-3.032 9.88,-2.964 l 8.879,2.618 c 0,0 -3.019,3.034 -9.88,2.964 L 0,0"
         style="fill:#231f20;fill-opacity:1;fill-rule:evenodd;stroke:none"
         transform="matrix(1.3333333,0,0,-1.3333333,265.98267,94.204)" />
      <path
         id="path96"
         d="m 0,0 c 0,0 3.971,1.595 6.586,7.941 l 1.056,9.195 c 0,0 -3.972,-1.596 -6.585,-7.938 L 0,0"
         style="fill:#231f20;fill-opacity:1;fill-rule:evenodd;stroke:none"
         transform="matrix(1.3333333,0,0,-1.3333333,110.21067,120.34533)" />
      <path
         id="path97"
         d="m 0,0 c 0,0 2.763,-3.264 9.609,-3.747 l 9.06,1.898 c 0,0 -2.765,3.267 -9.609,3.747 L 0,0"
         style="fill:#231f20;fill-opacity:1;fill-rule:evenodd;stroke:none"
         transform="matrix(1.3333333,0,0,-1.3333333,278.6,102.092)" />
      <path
         id="path98"
         d="m 0,0 c 0,0 2.433,-3.52 9.199,-4.668 l 9.201,1.001 c 0,0 -2.433,3.521 -9.197,4.67 L 0,0"
         style="fill:#231f20;fill-opacity:1;fill-rule:evenodd;stroke:none"
         transform="matrix(1.3333333,0,0,-1.3333333,288.69467,109.91867)" />
      <path
         id="path99"
         d="m 0,0 c 0,0 2.433,-3.52 9.199,-4.668 l 9.201,1.001 c 0,0 -2.433,3.521 -9.197,4.669 L 0,0"
         style="fill:#231f20;fill-opacity:1;fill-rule:evenodd;stroke:none"
         transform="matrix(1.3333333,0,0,-1.3333333,298.35733,120.08933)" />
      <path
         id="path100"
         d="m 0,0 c 0,0 2.126,-3.711 8.775,-5.422 l 9.252,0.228 c 0,0 -2.129,3.712 -8.774,5.424 L 0,0"
         style="fill:#231f20;fill-opacity:1;fill-rule:evenodd;stroke:none"
         transform="matrix(1.3333333,0,0,-1.3333333,305.93467,129.17733)" />
      <path
         id="path101"
         d="m 0,0 c 0,0 2.129,-3.711 8.775,-5.422 l 9.254,0.227 c 0,0 -2.131,3.713 -8.775,5.424 L 0,0"
         style="fill:#231f20;fill-opacity:1;fill-rule:evenodd;stroke:none"
         transform="matrix(1.3333333,0,0,-1.3333333,313.03067,140.51467)" />
      <path
         id="path102"
         d="m 0,0 c 0,0 1.435,-4.03 7.674,-6.893 l 9.146,-1.419 c 0,0 -1.437,4.031 -7.674,6.895 L 0,0"
         style="fill:#231f20;fill-opacity:1;fill-rule:evenodd;stroke:none"
         transform="matrix(1.3333333,0,0,-1.3333333,318.36267,149.712)" />
      <path
         id="path103"
         d="m 0,0 c 0,0 1.174,-4.426 6.733,-8.9 l 8.236,-3.765 c 0,0 -1.172,4.424 -6.727,8.901 L 0,0"
         style="fill:#231f20;fill-opacity:1;fill-rule:evenodd;stroke:none"
         transform="matrix(1.3333333,0,0,-1.3333333,323.45333,158.72533)" />
      <path
         id="path104"
         d="m 0,0 c 0,0 0.85,-4.497 6.074,-9.362 l 7.944,-4.348 c 0,0 -0.852,4.497 -6.069,9.363 L 0,0"
         style="fill:#231f20;fill-opacity:1;fill-rule:evenodd;stroke:none"
         transform="matrix(1.3333333,0,0,-1.3333333,327.18267,171.93333)" />
      <path
         id="path105"
         d="m 0,0 c 0,0 4.145,1.063 7.564,7.013 l 2.247,8.98 c 0,0 -4.143,-1.062 -7.565,-7.012 L 0,0"
         style="fill:#231f20;fill-opacity:1;fill-rule:evenodd;stroke:none"
         transform="matrix(1.3333333,0,0,-1.3333333,133.128,100.32533)" />
      <path
         id="path106"
         d="m 0,0 c 0,0 3.928,1.697 6.375,8.108 l 0.812,9.223 c 0,0 -3.925,-1.698 -6.373,-8.11 L 0,0"
         style="fill:#231f20;fill-opacity:1;fill-rule:evenodd;stroke:none"
         transform="matrix(1.3333333,0,0,-1.3333333,122.70133,109.37733)" />
      <path
         id="path107"
         d="m 0,0 c 0,0 3.595,2.321 4.953,9.048 l -0.715,9.23 c 0,0 -3.593,-2.322 -4.953,-9.047 L 0,0"
         style="fill:#231f20;fill-opacity:1;fill-rule:evenodd;stroke:none"
         transform="matrix(1.3333333,0,0,-1.3333333,102.49333,131.46533)" />
      <path
         id="path108"
         d="M 0,0 C 0,0 3.317,2.702 3.931,9.538 L 2.21,18.632 c 0,0 -3.318,-2.7 -3.934,-9.534 L 0,0"
         style="fill:#231f20;fill-opacity:1;fill-rule:evenodd;stroke:none"
         transform="matrix(1.3333333,0,0,-1.3333333,95.178667,141.39333)" />
      <path
         id="path109"
         d="m 0,0 c 0,0 3.263,2.769 3.736,9.617 l -1.904,9.056 c 0,0 -3.264,-2.767 -3.74,-9.611 L 0,0"
         style="fill:#231f20;fill-opacity:1;fill-rule:evenodd;stroke:none"
         transform="matrix(1.3333333,0,0,-1.3333333,87.688,154.74267)" />
      <path
         id="path110"
         d="m 0,0 c 0,0 2.39,3.223 1.634,10.046 l -3.161,8.655 c 0,0 -2.718,-3.307 -1.966,-10.124 L 0,0"
         style="fill:#231f20;fill-opacity:1;fill-rule:evenodd;stroke:none"
         transform="matrix(1.3333333,0,0,-1.3333333,82.397333,170.3)" />
      <path
         id="path111"
         d="m 0,0 c 0,0 2.489,3.482 1.276,10.239 l -4.057,8.317 c 0,0 -2.49,-3.479 -1.281,-10.233 L 0,0"
         style="fill:#231f20;fill-opacity:1;fill-rule:evenodd;stroke:none"
         transform="matrix(1.3333333,0,0,-1.3333333,79.053333,186.892)" />
      <path
         id="path112"
         d="m 0,0 c 0,0 1.84,3.862 -0.537,10.303 l -5.451,7.478 c 0,0 -1.842,-3.862 0.531,-10.299 L 0,0"
         style="fill:#231f20;fill-opacity:1;fill-rule:evenodd;stroke:none"
         transform="matrix(1.3333333,0,0,-1.3333333,77.612,200.92667)" />
      <path
         id="path113"
         d="m 0,0 c 0,0 1.361,4.057 -1.775,10.165 l -6.313,6.767 c 0,0 -1.36,-4.058 1.77,-10.161 L 0,0"
         style="fill:#231f20;fill-opacity:1;fill-rule:evenodd;stroke:none"
         transform="matrix(1.3333333,0,0,-1.3333333,77.984,216.348)" />
      <path
         id="path114"
         d="m 0,0 c 0,0 0.77,4.21 -3.208,9.807 l -7.215,5.795 c 0,0 -0.766,-4.21 3.203,-9.804 L 0,0"
         style="fill:#231f20;fill-opacity:1;fill-rule:evenodd;stroke:none"
         transform="matrix(1.3333333,0,0,-1.3333333,80.834667,232.532)" />
      <path
         id="path115"
         d="m 0,0 c 0,0 0.357,4.265 -4.144,9.45 l -7.742,5.07 c 0,0 -0.357,-4.267 4.137,-9.45 L 0,0"
         style="fill:#231f20;fill-opacity:1;fill-rule:evenodd;stroke:none"
         transform="matrix(1.3333333,0,0,-1.3333333,83.789333,246.48)" />
      <path
         id="path116"
         d="m 0,0 c 0,0 -0.519,4.248 -5.981,8.409 l -8.612,3.387 c 0,0 0.519,-4.247 5.974,-8.407 L 0,0"
         style="fill:#231f20;fill-opacity:1;fill-rule:evenodd;stroke:none"
         transform="matrix(1.3333333,0,0,-1.3333333,89.826667,259.47067)" />
      <path
         id="path117"
         d="m 0,0 c 0,0 -0.871,4.189 -6.661,7.88 l -8.863,2.66 c 0,0 0.872,-4.192 6.653,-7.882 L 0,0"
         style="fill:#231f20;fill-opacity:1;fill-rule:evenodd;stroke:none"
         transform="matrix(1.3333333,0,0,-1.3333333,96.181333,271.476)" />
      <path
         id="path118"
         d="m 0,0 c 0,0 -1.295,4.077 -7.432,7.157 l -9.089,1.738 c 0,0 1.297,-4.079 7.426,-7.16 L 0,0"
         style="fill:#231f20;fill-opacity:1;fill-rule:evenodd;stroke:none"
         transform="matrix(1.3333333,0,0,-1.3333333,104.34533,283.21333)" />
      <path
         id="path119"
         d="m 0,0 c 0,0 -1.764,3.901 -8.218,6.24 l -9.231,0.663 c 0,0 1.764,-3.901 8.212,-6.241 L 0,0"
         style="fill:#231f20;fill-opacity:1;fill-rule:evenodd;stroke:none"
         transform="matrix(1.3333333,0,0,-1.3333333,113.05333,293.68133)" />
      <path
         id="path120"
         d="m 0,0 c 0,0 -2.057,3.752 -8.671,5.59 l -9.254,-0.044 c 0,0 2.06,-3.753 8.664,-5.593 L 0,0"
         style="fill:#231f20;fill-opacity:1;fill-rule:evenodd;stroke:none"
         transform="matrix(1.3333333,0,0,-1.3333333,124.776,303.684)" />
      <path
         id="path121"
         d="m 0,0 c 0,0 -2.437,3.518 -9.209,4.654 l -9.197,-1.011 c 0,0 2.439,-3.518 9.203,-4.659 L 0,0"
         style="fill:#231f20;fill-opacity:1;fill-rule:evenodd;stroke:none"
         transform="matrix(1.3333333,0,0,-1.3333333,136.84133,312.72267)" />
      <path
         id="path122"
         d="m 0,0 c 0,0 -2.75,3.281 -9.595,3.791 l -9.069,-1.848 c 0,0 2.752,-3.281 9.592,-3.797 L 0,0"
         style="fill:#231f20;fill-opacity:1;fill-rule:evenodd;stroke:none"
         transform="matrix(1.3333333,0,0,-1.3333333,149.88267,319.87867)" />
      <path
         id="path123"
         d="m 0,0 c 0,0 -3.031,3.021 -9.897,2.916 l -8.865,-2.653 c 0,0 3.033,-3.02 9.893,-2.925 L 0,0"
         style="fill:#231f20;fill-opacity:1;fill-rule:evenodd;stroke:none"
         transform="matrix(1.3333333,0,0,-1.3333333,162.58133,325.36533)" />
      <path
         id="path124"
         d="m 0,0 c 0,0 -3.463,2.517 -10.229,1.357 l -8.349,-3.988 c 0,0 3.463,-2.517 10.222,-1.365 L 0,0"
         style="fill:#231f20;fill-opacity:1;fill-rule:evenodd;stroke:none"
         transform="matrix(1.3333333,0,0,-1.3333333,177.30533,328.90133)" />
      <path
         id="path125"
         d="m 0,0 c 0,0 -3.658,2.223 -10.302,0.508 l -7.996,-4.662 c 0,0 3.66,-2.223 10.302,-0.516 L 0,0"
         style="fill:#231f20;fill-opacity:1;fill-rule:evenodd;stroke:none"
         transform="matrix(1.3333333,0,0,-1.3333333,195.21333,331.34667)" />
      <path
         id="path126"
         d="m 0,0 c 0,0 -3.863,1.842 -10.301,-0.537 l -7.482,-5.449 c 0,0 3.865,-1.84 10.301,0.531 L 0,0"
         style="fill:#231f20;fill-opacity:1;fill-rule:evenodd;stroke:none"
         transform="matrix(1.3333333,0,0,-1.3333333,210.51733,332.45067)" />
      <path
         id="path127"
         d="m 0,0 c 0,0 -4.107,1.203 -10.086,-2.17 l -6.52,-6.572 c 0,0 4.112,-1.2 10.085,2.166 L 0,0"
         style="fill:#231f20;fill-opacity:1;fill-rule:evenodd;stroke:none"
         transform="matrix(1.3333333,0,0,-1.3333333,224.58,331.59867)" />
      <path
         id="path128"
         d="m 0,0 c 0,0 -4.227,0.667 -9.721,-3.445 l -5.623,-7.351 c 0,0 4.228,-0.664 9.723,3.439 L 0,0"
         style="fill:#231f20;fill-opacity:1;fill-rule:evenodd;stroke:none"
         transform="matrix(1.3333333,0,0,-1.3333333,240.37333,328.25067)" />
      <path
         id="path129"
         d="m 0,0 c 0,0 -4.28,0.096 -9.174,-4.714 l -4.588,-8.039 c 0,0 4.28,-0.094 9.176,4.709 L 0,0"
         style="fill:#231f20;fill-opacity:1;fill-rule:evenodd;stroke:none"
         transform="matrix(1.3333333,0,0,-1.3333333,256.53333,322.22)" />
      <path
         id="path130"
         d="m 0,0 c 0,0 -4.247,-0.517 -8.403,-5.977 l -3.394,-8.611 c 0,0 4.249,0.521 8.408,5.971 L 0,0"
         style="fill:#231f20;fill-opacity:1;fill-rule:evenodd;stroke:none"
         transform="matrix(1.3333333,0,0,-1.3333333,270.29467,315.08)" />
      <path
         id="path131"
         d="m 0,0 c 0,0 -4.205,-0.803 -7.985,-6.529 l -2.808,-8.82 c 0,0 4.205,0.804 7.99,6.525 L 0,0"
         style="fill:#231f20;fill-opacity:1;fill-rule:evenodd;stroke:none"
         transform="matrix(1.3333333,0,0,-1.3333333,284.04,304.84533)" />
      <path
         id="path132"
         d="M 0,0 C 0,0 -4.123,-1.144 -7.422,-7.161 L -9.5,-16.182 c 0,0 4.125,1.146 7.43,7.156 L 0,0"
         style="fill:#231f20;fill-opacity:1;fill-rule:evenodd;stroke:none"
         transform="matrix(1.3333333,0,0,-1.3333333,296.29067,295.26133)" />
      <path
         id="path133"
         d="m 0,0 c 0,0 -3.961,-1.617 -6.534,-7.977 l -1.011,-9.202 c 0,0 3.964,1.62 6.543,7.974 L 0,0"
         style="fill:#231f20;fill-opacity:1;fill-rule:evenodd;stroke:none"
         transform="matrix(1.3333333,0,0,-1.3333333,307.10133,282.08667)" />
      <path
         id="path134"
         d="m 0,0 c 0,0 -3.754,-2.049 -5.604,-8.656 l 0.024,-9.259 c 0,0 3.758,2.054 5.611,8.657 L 0,0"
         style="fill:#231f20;fill-opacity:1;fill-rule:evenodd;stroke:none"
         transform="matrix(1.3333333,0,0,-1.3333333,316.696,267.47333)" />
      <path
         id="path135"
         d="m 0,0 c 0,0 -3.149,-2.896 -3.344,-9.753 l 2.262,-8.979 c 0,0 3.147,2.901 3.351,9.754 L 0,0"
         style="fill:#231f20;fill-opacity:1;fill-rule:evenodd;stroke:none"
         transform="matrix(1.3333333,0,0,-1.3333333,322.69467,253.86133)" />
      <path
         id="path136"
         d="m 0,0 c 0,0 -2.945,-3.104 -2.672,-9.96 l 2.869,-8.802 c 0,0 2.944,3.111 2.678,9.96 L 0,0"
         style="fill:#231f20;fill-opacity:1;fill-rule:evenodd;stroke:none"
         transform="matrix(1.3333333,0,0,-1.3333333,328.23333,240.29067)" />
      <path
         id="path137"
         d="m 0,0 c 0,0 -2.254,-3.635 -0.6,-10.295 l 4.59,-8.037 c 0,0 2.254,3.638 0.608,10.293 L 0,0"
         style="fill:#231f20;fill-opacity:1;fill-rule:evenodd;stroke:none"
         transform="matrix(1.3333333,0,0,-1.3333333,331.128,226.42533)" />
      <path
         id="path138"
         d="m 0,0 c 0,0 -1.303,-4.424 1.6,-11.079 l 5.877,-7.385 c 0,0 1.302,4.428 -1.592,11.079 L 0,0"
         style="fill:#231f20;fill-opacity:1;fill-rule:evenodd;stroke:none"
         transform="matrix(1.3333333,0,0,-1.3333333,332.24267,212.70533)" />
      <path
         id="path139"
         d="m 0,0 c 0,0 0.166,-4.914 4.602,-10.885 l 7.204,-5.834 c 0,0 -0.166,4.915 -4.596,10.885 L 0,0"
         style="fill:#231f20;fill-opacity:1;fill-rule:evenodd;stroke:none"
         transform="matrix(1.3333333,0,0,-1.3333333,330.13733,185.096)" />
      <path
         id="path140"
         d="m 0,0 c 0,0 -0.286,-4.568 3.572,-10.573 l 6.624,-6.175 c 0,0 0.286,4.568 -3.567,10.571 L 0,0"
         style="fill:#231f20;fill-opacity:1;fill-rule:evenodd;stroke:none"
         transform="matrix(1.3333333,0,0,-1.3333333,332.172,200.03867)" />
      <path
         id="path141"
         d="m 0,0 -16.352,20.843 5.318,4.172 L 3.326,13.331 -4.665,30.012 0.684,34.208 17.035,13.364 13.73,10.771 0.85,27.19 10.215,8.014 6.79,5.327 -9.576,19.011 3.305,2.593 0,0"
         style="fill:#231f20;fill-opacity:1;fill-rule:nonzero;stroke:none"
         transform="matrix(1.3333333,0,0,-1.3333333,98.984,99.429333)" />
      <path
         id="path142"
         d="m 0,0 -13.363,22.874 3.89,2.273 L 3.891,2.273 0,0"
         style="fill:#231f20;fill-opacity:1;fill-rule:nonzero;stroke:none"
         transform="matrix(1.3333333,0,0,-1.3333333,124.984,80.316)" />
      <path
         id="path143"
         d="m 0,0 c -1.607,2.369 -3.88,3.2 -6.088,2.246 -3.365,-1.455 -3.92,-5.08 -1.468,-10.752 1.101,-2.547 2.353,-4.385 3.647,-5.357 1.487,-1.131 3.356,-1.411 4.828,-0.775 2.489,1.076 3.282,3.475 2.466,7.193 l 4.676,0.248 c 1.035,-5.76 -0.639,-9.588 -5.161,-11.542 -5.539,-2.394 -11.415,0.709 -14.703,8.317 -3.406,7.879 -1.874,14.345 4.225,16.982 C -3.512,8.317 0.46,7.212 3.637,2.943 L 0,0"
         style="fill:#231f20;fill-opacity:1;fill-rule:nonzero;stroke:none"
         transform="matrix(1.3333333,0,0,-1.3333333,141.132,45.702667)" />
      <path
         id="path144"
         d="M 0,0 3.274,0.761 C 6.807,1.582 8.936,2.039 8.106,5.607 7.62,7.697 6.138,8.34 3.683,7.77 L -1.524,6.559 Z M -0.93,-15.904 -6.928,9.9 2.371,12.061 c 2.642,0.614 4.572,0.911 6.32,0.14 1.793,-0.799 3.308,-2.764 3.919,-5.395 0.914,-3.929 -0.529,-6.999 -4.098,-8.512 2.894,-1.151 4.359,-2.9 6.347,-5.211 l 3.851,-4.422 -5.282,-1.228 -4.505,4.878 c -3.461,3.754 -3.988,4.506 -7.075,3.788 l -0.893,-0.207 2.505,-10.776 -4.39,-1.02"
         style="fill:#231f20;fill-opacity:1;fill-rule:nonzero;stroke:none"
         transform="matrix(1.3333333,0,0,-1.3333333,160.23333,43.188)" />
      <path
         id="path145"
         d="M 0,0 C 3.472,0.152 5.928,3.408 5.661,9.471 5.402,15.385 2.937,18.425 -0.917,18.255 -4.808,18.085 -6.994,14.767 -6.734,8.852 -6.477,3.012 -3.891,-0.171 0,0 Z M -1.155,22.8 C 5.598,23.097 9.955,17.881 10.3,10.044 10.7,0.915 6.838,-4.255 0.238,-4.545 -6.782,-4.853 -11.018,0.22 -11.382,8.5 c -0.383,8.724 3.475,14.004 10.227,14.3"
         style="fill:#231f20;fill-opacity:1;fill-rule:nonzero;stroke:none"
         transform="matrix(1.3333333,0,0,-1.3333333,199.22533,52.296)" />
      <path
         id="path146"
         d="M 0,0 3.654,26.239 8.004,25.633 14.68,6.846 17.119,24.363 21.279,23.784 17.625,-2.455 13.124,-1.828 6.544,16.534 4.16,-0.579 0,0"
         style="fill:#231f20;fill-opacity:1;fill-rule:nonzero;stroke:none"
         transform="matrix(1.3333333,0,0,-1.3333333,216.512,57.496)" />
      <path
         id="path147"
         d="M 0,0 8.072,25.232 23.895,20.169 22.53,15.905 11,19.595 9.219,14.027 19.948,10.594 18.584,6.33 7.855,9.763 5.656,2.891 17.586,-0.926 16.222,-5.19 0,0"
         style="fill:#231f20;fill-opacity:1;fill-rule:nonzero;stroke:none"
         transform="matrix(1.3333333,0,0,-1.3333333,243.90533,61.738667)" />
      <path
         id="path148"
         d="m 0,0 c 0.777,2.346 0.639,3.998 -1.908,5.309 -1.664,0.856 -3.716,0.955 -4.529,-0.624 -1.05,-2.04 0.988,-3.505 4.997,-7.482 2.379,-2.388 2.807,-5.813 1.013,-9.3 -2.167,-4.211 -6.458,-5.874 -11.415,-3.323 -5.162,2.656 -6.694,6.523 -4.376,12.446 l 4.159,-1.599 c -1.1,-3.221 -0.452,-5.385 2.095,-6.695 2.411,-1.241 4.599,-0.577 5.513,1.199 0.728,1.415 0.319,2.624 -1.26,4.144 -2.005,1.947 -3.653,3.419 -4.469,4.671 -1.496,2.351 -1.635,5.086 -0.331,7.619 1.963,3.816 5.966,5.252 10.685,2.824 C 4.895,6.76 6.341,2.812 4.141,-1.882 L 0,0"
         style="fill:#231f20;fill-opacity:1;fill-rule:nonzero;stroke:none"
         transform="matrix(1.3333333,0,0,-1.3333333,293.70533,54.953333)" />
      <path
         id="path149"
         d="M 0,0 14.714,22.03 18.461,19.528 3.747,-2.503 0,0"
         style="fill:#231f20;fill-opacity:1;fill-rule:nonzero;stroke:none"
         transform="matrix(1.3333333,0,0,-1.3333333,290.352,81.970667)" />
      <path
         id="path150"
         d="M 0,0 4.074,9.478 -4.632,3.985 Z m -0.52,-13.367 -3.733,3.213 2.432,5.814 -6.802,5.853 -5.299,-3.349 L -17.57,1.303 6.309,15.706 9.957,12.568 -0.52,-13.367"
         style="fill:#231f20;fill-opacity:1;fill-rule:nonzero;stroke:none"
         transform="matrix(1.3333333,0,0,-1.3333333,319.756,86.872)" />
      <path
         id="path151"
         d="m 0,0 0.714,-2.996 c 0.77,-3.235 1.199,-5.184 4.57,-4.381 1.974,0.471 2.584,1.84 2.049,4.087 L 6.197,1.476 Z m -15.019,0.668 24.378,5.807 2.028,-8.511 c 0.576,-2.417 0.854,-4.187 0.123,-5.8 -0.757,-1.655 -2.615,-3.069 -5.1,-3.662 -3.712,-0.884 -6.609,0.404 -8.033,3.664 -1.091,-2.671 -2.745,-4.037 -4.93,-5.889 l -4.182,-3.587 -1.152,4.835 4.614,4.194 c 3.55,3.22 4.26,3.712 3.586,6.539 l -0.194,0.817 -10.181,-2.425 -0.957,4.018"
         style="fill:#231f20;fill-opacity:1;fill-rule:nonzero;stroke:none"
         transform="matrix(1.3333333,0,0,-1.3333333,44.194667,237.436)" />
      <path
         id="path152"
         d="M 0,0 22.909,10.158 29.081,-3.761 25.209,-5.477 20.712,4.666 15.656,2.424 19.841,-7.016 15.97,-8.732 11.785,0.707 5.546,-2.059 10.199,-12.554 6.328,-14.271 0,0"
         style="fill:#231f20;fill-opacity:1;fill-rule:nonzero;stroke:none"
         transform="matrix(1.3333333,0,0,-1.3333333,33.406667,269.88133)" />
      <path
         id="path153"
         d="m 0,0 -13.694,-9.364 1.758,-2.571 c 2.291,-3.352 4.26,-3.998 10.038,-0.047 6.501,4.445 5.494,6.725 2.965,10.422 z m 1.164,5.8 4.268,-6.241 c 1.067,-1.56 1.977,-3.015 2.03,-5.014 0.096,-3.242 -2.24,-6.832 -7.094,-10.15 -4.362,-2.984 -8.274,-3.836 -11.208,-2.832 -1.94,0.667 -3.09,1.916 -4.276,3.648 L -19.521,-8.345 1.164,5.8"
         style="fill:#231f20;fill-opacity:1;fill-rule:nonzero;stroke:none"
         transform="matrix(1.3333333,0,0,-1.3333333,73.638667,288.14)" />
      <path
         id="path154"
         d="m 0,0 c 1.313,2.364 1.072,4.604 -0.63,6.006 -2.594,2.136 -5.841,1.002 -9.557,-3.51 -1.669,-2.026 -2.685,-3.865 -2.963,-5.359 -0.33,-1.723 0.203,-3.387 1.338,-4.322 1.918,-1.58 4.242,-1.18 7.002,1.125 l 2.128,-3.748 c -4.373,-3.381 -8.247,-3.681 -11.732,-0.81 -4.269,3.515 -4.098,9.723 0.887,15.774 C -8.365,11.424 -2.351,13 2.35,9.128 5.484,6.547 6.195,2.786 3.944,-1.708 L 0,0"
         style="fill:#231f20;fill-opacity:1;fill-rule:nonzero;stroke:none"
         transform="matrix(1.3333333,0,0,-1.3333333,108.30667,333.44933)" />
      <path
         id="path155"
         d="M 0,0 2.7,-1.48 C 5.615,-3.079 7.348,-4.069 9.013,-1.031 9.99,0.749 9.385,2.119 7.359,3.23 L 3.063,5.586 Z M -10.572,-10.687 1.478,11.285 9.15,7.077 c 2.178,-1.194 3.676,-2.175 4.383,-3.799 0.719,-1.672 0.521,-3.999 -0.707,-6.24 -1.834,-3.344 -4.734,-4.629 -8.105,-3.498 1.248,-2.6 1.15,-4.743 1.056,-7.605 l -0.146,-5.509 -4.357,2.39 -0.014,6.235 c -0.006,4.793 0.105,5.65 -2.442,7.047 l -0.736,0.404 -5.033,-9.176 -3.621,1.987"
         style="fill:#231f20;fill-opacity:1;fill-rule:nonzero;stroke:none"
         transform="matrix(1.3333333,0,0,-1.3333333,122.19867,346.736)" />
      <path
         id="path156"
         d="M 0,0 C 3.037,-0.963 6.205,1.154 7.94,6.626 9.631,11.964 8.494,15.445 5.125,16.513 1.723,17.592 -1.232,15.334 -2.926,9.996 -4.596,4.724 -3.402,1.079 0,0 Z m 6.393,20.627 c 5.906,-1.871 7.964,-7.885 5.722,-14.958 -2.613,-8.24 -7.611,-11.614 -13.383,-9.783 -6.138,1.946 -8.14,7.793 -5.771,15.267 2.496,7.874 7.525,11.346 13.432,9.474"
         style="fill:#231f20;fill-opacity:1;fill-rule:nonzero;stroke:none"
         transform="matrix(1.3333333,0,0,-1.3333333,152.18,375.38133)" />
      <path
         id="path157"
         d="m 0,0 c -0.074,2.335 -0.717,3.751 -3.324,4.06 -1.703,0.203 -3.5,-0.395 -3.699,-2.063 -0.256,-2.155 1.962,-2.771 6.673,-4.951 2.803,-1.321 4.258,-4.207 3.821,-7.891 -0.528,-4.449 -3.692,-7.35 -8.766,-6.748 -5.283,0.627 -7.828,3.537 -7.713,9.551 l 4.086,-0.027 c 0.076,-3.216 1.319,-4.915 3.926,-5.225 2.467,-0.293 4.139,1.024 4.361,2.901 0.178,1.494 -0.556,2.428 -2.398,3.245 -2.342,1.054 -4.227,1.807 -5.326,2.642 -2.032,1.581 -3.02,3.954 -2.702,6.63 0.479,4.031 3.467,6.638 8.297,6.063 4.832,-0.573 7.33,-3.584 6.926,-8.469 L 0,0"
         style="fill:#231f20;fill-opacity:1;fill-rule:nonzero;stroke:none"
         transform="matrix(1.3333333,0,0,-1.3333333,191.68267,364.72)" />
      <path
         id="path158"
         d="M 0,0 C -0.479,2.287 -1.358,3.57 -3.979,3.422 -5.69,3.326 -7.358,2.426 -7.264,0.748 c 0.123,-2.166 2.414,-2.387 7.432,-3.718 2.99,-0.813 4.924,-3.404 5.131,-7.108 0.252,-4.473 -2.36,-7.88 -7.463,-8.167 -5.311,-0.299 -8.323,2.126 -9.252,8.068 l 4.027,0.683 c 0.635,-3.155 2.152,-4.612 4.773,-4.465 2.483,0.14 3.901,1.728 3.793,3.614 -0.084,1.503 -0.97,2.294 -2.925,2.781 -2.489,0.631 -4.475,1.045 -5.703,1.677 -2.276,1.204 -3.661,3.37 -3.811,6.06 C -11.491,4.227 -9,7.312 -4.143,7.585 0.715,7.858 3.697,5.326 4.146,0.444 L 0,0"
         style="fill:#231f20;fill-opacity:1;fill-rule:nonzero;stroke:none"
         transform="matrix(1.3333333,0,0,-1.3333333,220.144,364.79333)" />
      <path
         id="path159"
         d="m 0,0 c -1.078,2.073 -2.269,3.072 -4.754,2.224 -1.623,-0.554 -2.986,-1.87 -2.443,-3.46 0.701,-2.054 2.969,-1.65 8.158,-1.579 3.1,0.022 5.66,-1.952 6.858,-5.462 1.447,-4.241 -0.151,-8.225 -4.987,-9.876 -5.035,-1.719 -8.588,-0.196 -11.084,5.276 l 3.696,1.743 c 1.459,-2.867 3.314,-3.861 5.799,-3.013 2.351,0.803 3.291,2.713 2.679,4.502 -0.486,1.424 -1.553,1.948 -3.566,1.889 -2.569,-0.063 -4.592,-0.199 -5.946,0.078 -2.515,0.547 -4.431,2.26 -5.302,4.81 -1.313,3.843 0.256,7.484 4.859,9.056 C -1.429,7.76 2.125,6.126 3.873,1.545 L 0,0"
         style="fill:#231f20;fill-opacity:1;fill-rule:nonzero;stroke:none"
         transform="matrix(1.3333333,0,0,-1.3333333,262.776,355.22667)" />
      <path
         id="path160"
         d="M 0,0 C 2.768,1.576 3.363,5.339 0.522,10.327 -2.25,15.192 -5.578,16.72 -8.65,14.97 -11.752,13.203 -12.1,9.501 -9.328,4.634 -6.59,-0.17 -3.102,-1.768 0,0 Z M -10.812,18.693 C -5.43,21.76 0.385,19.191 4.059,12.745 8.338,5.233 7.424,-0.727 2.162,-3.724 c -5.596,-3.189 -11.25,-0.689 -15.131,6.123 -4.088,7.177 -3.224,13.228 2.157,16.294"
         style="fill:#231f20;fill-opacity:1;fill-rule:nonzero;stroke:none"
         transform="matrix(1.3333333,0,0,-1.3333333,295.18267,360.20267)" />
      <path
         id="path161"
         d="m 0,0 c -2.107,1.696 -4.355,1.839 -6.025,0.4 -2.547,-2.194 -1.981,-5.586 1.834,-10.014 1.713,-1.989 3.353,-3.303 4.777,-3.831 1.643,-0.618 3.373,-0.375 4.486,0.584 1.883,1.622 1.885,3.979 0.082,7.092 l 4.055,1.46 c 2.59,-4.883 2.227,-8.752 -1.193,-11.7 -4.192,-3.608 -10.28,-2.385 -15.397,3.555 -5.299,6.152 -5.83,12.346 -1.215,16.32 3.077,2.651 6.903,2.713 10.948,-0.269 L 0,0"
         style="fill:#231f20;fill-opacity:1;fill-rule:nonzero;stroke:none"
         transform="matrix(1.3333333,0,0,-1.3333333,316.904,322.89867)" />
      <path
         id="path162"
         d="m 0,0 -18.859,16.503 2.72,3.108 L 2.721,3.108 0,0"
         style="fill:#231f20;fill-opacity:1;fill-rule:nonzero;stroke:none"
         transform="matrix(1.3333333,0,0,-1.3333333,343.52133,327.872)" />
      <path
         id="path163"
         d="m 0,0 -20.916,13.8 8.385,12.709 3.535,-2.333 -6.111,-9.26 4.617,-3.045 5.686,8.617 3.535,-2.332 L -6.955,9.538 -1.259,5.779 5.063,15.361 8.598,13.029 0,0"
         style="fill:#231f20;fill-opacity:1;fill-rule:nonzero;stroke:none"
         transform="matrix(1.3333333,0,0,-1.3333333,355.10133,314.09733)" />
      <path
         id="path164"
         d="m 0,0 -19.078,8.347 -2.455,-5.611 -3.881,1.697 6.553,14.975 3.879,-1.698 -2.441,-5.58 L 1.657,3.784 0,0"
         style="fill:#231f20;fill-opacity:1;fill-rule:nonzero;stroke:none"
         transform="matrix(1.3333333,0,0,-1.3333333,374.49467,280.69867)" />
      <path
         id="path165"
         d="m 0,0 -10.231,2.51 -15.9,-3.848 1.158,4.725 10.771,2.332 -8.486,6.982 1.135,4.623 L -9.213,6.513 0.984,4.012 0,0"
         style="fill:#231f20;fill-opacity:1;fill-rule:nonzero;stroke:none"
         transform="matrix(1.3333333,0,0,-1.3333333,385.04,251.048)" />
    </g>
  </g>
</svg>
