<?xml version="1.0" encoding="UTF-8" standalone="no"?>
<!-- Created with Inkscape (http://www.inkscape.org/) -->

<svg
   version="1.1"
   id="svg1"
   width="559.18933"
   height="559.19067"
   viewBox="0 0 559.18933 559.19067"
   sodipodi:docname="Brunei RC.svg"
   inkscape:version="1.3.2 (091e20e, 2023-11-25, custom)"
   xmlns:inkscape="http://www.inkscape.org/namespaces/inkscape"
   xmlns:sodipodi="http://sodipodi.sourceforge.net/DTD/sodipodi-0.dtd"
   xmlns="http://www.w3.org/2000/svg"
   xmlns:svg="http://www.w3.org/2000/svg">
  <defs
     id="defs1">
    <clipPath
       clipPathUnits="userSpaceOnUse"
       id="clipPath40">
      <path
         d="M 0.059998,419.393 H 419.392 V 0 H 0.059998 Z"
         transform="translate(-209.69701,-413.39301)"
         id="path40" />
    </clipPath>
  </defs>
  <sodipodi:namedview
     id="namedview1"
     pagecolor="#ffffff"
     bordercolor="#666666"
     borderopacity="1.0"
     inkscape:showpageshadow="2"
     inkscape:pageopacity="0.0"
     inkscape:pagecheckerboard="0"
     inkscape:deskcolor="#d1d1d1"
     inkscape:zoom="1.4681933"
     inkscape:cx="279.59534"
     inkscape:cy="279.59534"
     inkscape:window-width="1920"
     inkscape:window-height="1017"
     inkscape:window-x="-8"
     inkscape:window-y="-8"
     inkscape:window-maximized="1"
     inkscape:current-layer="g1">
    <inkscape:page
       x="0"
       y="0"
       inkscape:label="1"
       id="page1"
       width="559.18933"
       height="559.19067"
       margin="0"
       bleed="0" />
  </sodipodi:namedview>
  <g
     id="g1"
     inkscape:groupmode="layer"
     inkscape:label="1">
    <g
       id="group-MC1">
      <path
         id="path2"
         d="M 0,0 C -0.171,1.445 0.191,2.74 1.085,3.881 1.979,5.023 3.156,5.679 4.616,5.851 6.062,6.023 7.355,5.658 8.497,4.758 9.64,3.855 10.297,2.681 10.467,1.236 10.638,-0.209 10.27,-1.504 9.362,-2.647 8.454,-3.789 7.284,-4.446 5.852,-4.615 4.407,-4.785 3.113,-4.428 1.973,-3.541 0.831,-2.653 0.174,-1.473 0,0"
         style="fill:#231f20;fill-opacity:1;fill-rule:nonzero;stroke:#231f20;stroke-width:1;stroke-linecap:butt;stroke-linejoin:miter;stroke-miterlimit:10;stroke-dasharray:none;stroke-opacity:1"
         transform="matrix(1.3333333,0,0,-1.3333333,40.930667,307.932)" />
      <path
         id="path3"
         d="M 0,0 0.081,0.689 0.122,1.17 C 0.354,3.861 -0.056,5.948 -1.108,7.43 -2.161,8.911 -3.593,9.731 -5.407,9.887 -7.164,10.038 -8.648,9.611 -9.858,8.606 -11.069,7.6 -11.753,6.177 -11.912,4.336 -11.983,3.514 -11.945,2.407 -11.798,1.018 Z M 16.317,18.888 15.664,11.316 1.574,2.858 1.424,1.121 1.374,0.535 1.354,0.305 C 1.347,0.222 1.334,0.082 1.318,-0.113 l 8.241,-0.711 c 1.786,-0.153 2.912,-0.054 3.378,0.299 0.659,0.477 1.034,1.246 1.126,2.305 l 0.095,1.109 0.774,-0.067 -1.048,-12.153 -0.774,0.067 0.092,1.067 c 0.103,1.199 -0.213,2.09 -0.95,2.674 -0.393,0.328 -1.405,0.563 -3.037,0.704 l -18.324,1.58 c -1.785,0.154 -2.911,0.054 -3.377,-0.299 -0.66,-0.491 -1.037,-1.273 -1.13,-2.348 l -0.091,-1.066 -0.774,0.066 0.891,10.334 c 0.263,3.054 0.671,5.267 1.225,6.638 0.554,1.371 1.467,2.505 2.738,3.4 1.272,0.894 2.723,1.272 4.354,1.131 1.744,-0.15 3.205,-0.845 4.383,-2.085 1.179,-1.24 1.937,-3.083 2.274,-5.528 l 8.639,5.161 c 1.97,1.163 3.311,2.206 4.023,3.128 0.667,0.883 1.166,2.104 1.497,3.661 l 0.774,-0.066"
         style="fill:#231f20;fill-opacity:1;fill-rule:nonzero;stroke:none"
         transform="matrix(1.3333333,0,0,-1.3333333,45.985333,266.56533)" />
      <path
         id="path4"
         d="m 0,0 10.891,-2.836 1.576,6.055 c 0.41,1.571 0.446,2.682 0.109,3.335 -0.229,0.45 -0.592,0.851 -1.085,1.204 -0.494,0.353 -1.127,0.63 -1.899,0.831 L 9.788,9.341 19.378,6.844 19.182,6.092 C 17.778,6.255 16.869,6.289 16.454,6.194 15.916,6.074 15.439,5.769 15.021,5.276 14.604,4.785 14.247,3.971 13.951,2.833 l -1.577,-6.056 9.082,-2.365 c 1.233,-0.32 1.988,-0.463 2.265,-0.427 0.277,0.037 0.533,0.172 0.768,0.409 0.235,0.234 0.451,0.731 0.648,1.49 l 1.217,4.674 c 0.406,1.557 0.594,2.709 0.563,3.454 -0.029,0.746 -0.281,1.542 -0.755,2.389 -0.611,1.041 -1.654,2.231 -3.128,3.569 l 0.212,0.813 6.289,-4.176 -5.529,-21.233 -0.752,0.195 0.254,0.976 c 0.173,0.663 0.178,1.32 0.014,1.971 -0.094,0.472 -0.339,0.847 -0.737,1.125 -0.398,0.277 -1.268,0.591 -2.609,0.939 l -17.9,4.661 C 0.515,-4.3 -0.608,-4.195 -1.092,-4.445 -1.765,-4.806 -2.248,-5.548 -2.54,-6.672 L -2.794,-7.647 -3.546,-7.451 1.983,13.781 8.097,12.515 7.891,11.723 C 6.34,11.822 5.262,11.763 4.655,11.545 4.056,11.355 3.511,10.953 3.019,10.344 2.678,9.868 2.328,8.941 1.968,7.559 L 0,0"
         style="fill:#231f20;fill-opacity:1;fill-rule:nonzero;stroke:none"
         transform="matrix(1.3333333,0,0,-1.3333333,36.033333,221.72933)" />
      <path
         id="path5"
         d="m 0,0 c 0.57,0.771 1.046,1.453 1.427,2.048 0.382,0.595 0.707,1.184 0.976,1.769 1.351,2.938 1.443,5.858 0.274,8.761 -1.169,2.903 -3.533,5.172 -7.094,6.81 -3.548,1.633 -6.806,1.952 -9.773,0.96 -2.968,-0.992 -5.154,-3.015 -6.558,-6.067 -0.263,-0.572 -0.501,-1.206 -0.713,-1.902 -0.212,-0.696 -0.39,-1.45 -0.532,-2.263 z m -1.526,-8.241 -0.706,0.324 0.448,0.973 c 0.497,1.081 0.504,2.017 0.021,2.809 -0.317,0.485 -1.193,1.058 -2.63,1.719 l -16.71,7.686 c -1.615,0.743 -2.708,1.029 -3.278,0.861 -0.788,-0.239 -1.407,-0.848 -1.857,-1.827 l -0.448,-0.973 -0.706,0.324 4.844,10.531 c 1.772,3.852 3.563,6.591 5.374,8.216 1.81,1.624 4.023,2.575 6.638,2.851 2.616,0.276 5.258,-0.199 7.929,-1.428 3.586,-1.649 6.09,-4.127 7.513,-7.43 C 6.479,12.712 6.107,8.354 3.791,3.318 L -1.526,-8.241"
         style="fill:#231f20;fill-opacity:1;fill-rule:nonzero;stroke:none"
         transform="matrix(1.3333333,0,0,-1.3333333,78.554667,197.05867)" />
      <path
         id="path6"
         d="M 0,0 7.915,-5.608 7.504,-6.113 c -2.775,1.159 -5.169,1.516 -7.183,1.072 -2.014,-0.444 -3.733,-1.54 -5.157,-3.287 -1.185,-1.455 -1.89,-3.074 -2.115,-4.858 -0.226,-1.784 0.202,-3.685 1.284,-5.704 1.081,-2.018 2.827,-4.009 5.236,-5.972 1.02,-0.831 2.013,-1.513 2.977,-2.046 0.965,-0.533 1.965,-0.941 2.998,-1.223 1.987,-0.553 3.895,-0.505 5.723,0.144 1.83,0.649 3.416,1.799 4.76,3.448 1.176,1.444 1.901,2.96 2.177,4.551 0.275,1.59 0.036,3.784 -0.717,6.582 l 0.736,0.239 c 1.052,-2.698 1.437,-5.156 1.156,-7.373 -0.281,-2.217 -1.252,-4.346 -2.914,-6.386 -2.971,-3.647 -6.635,-5.374 -10.992,-5.182 -3.239,0.146 -6.225,1.334 -8.96,3.561 -2.203,1.795 -3.824,3.928 -4.862,6.399 -1.038,2.471 -1.359,4.997 -0.961,7.58 0.398,2.582 1.428,4.893 3.09,6.934 1.291,1.584 2.964,2.839 5.018,3.766 0.628,0.282 1.012,0.511 1.154,0.684 0.238,0.293 0.343,0.632 0.314,1.018 -0.062,0.501 -0.305,1.033 -0.73,1.597 L 0,0"
         style="fill:#231f20;fill-opacity:1;fill-rule:nonzero;stroke:none"
         transform="matrix(1.3333333,0,0,-1.3333333,92.952,107.85333)" />
      <path
         id="path7"
         d="M 0,0 0.538,0.436 0.903,0.753 C 2.947,2.519 4.109,4.3 4.389,6.096 4.668,7.892 4.213,9.478 3.023,10.854 1.87,12.188 0.509,12.918 -1.06,13.042 -2.629,13.166 -4.112,12.624 -5.51,11.416 -6.135,10.876 -6.879,10.057 -7.743,8.959 Z M 24.867,2.148 19.117,-2.821 3.121,0.948 1.802,-0.191 1.357,-0.575 1.183,-0.727 C 1.119,-0.781 1.013,-0.873 0.865,-1.001 L 6.274,-7.26 c 1.172,-1.356 2.048,-2.07 2.628,-2.141 0.805,-0.119 1.61,0.17 2.415,0.866 l 0.842,0.727 0.508,-0.588 -9.23,-7.976 -0.508,0.588 0.811,0.7 c 0.91,0.787 1.305,1.647 1.185,2.578 -0.053,0.51 -0.614,1.385 -1.685,2.623 L -8.787,4.033 c -1.171,1.356 -2.048,2.07 -2.628,2.142 -0.815,0.108 -1.631,-0.19 -2.446,-0.894 l -0.81,-0.7 -0.508,0.588 7.847,6.782 c 2.319,2.004 4.156,3.304 5.509,3.901 1.353,0.595 2.798,0.771 4.333,0.525 1.535,-0.246 2.838,-0.988 3.909,-2.228 1.144,-1.323 1.706,-2.84 1.686,-4.55 C 8.085,7.888 7.342,6.039 5.877,4.052 l 9.79,-2.329 c 2.224,-0.54 3.912,-0.73 5.065,-0.566 1.094,0.167 2.303,0.695 3.627,1.579 l 0.508,-0.588"
         style="fill:#231f20;fill-opacity:1;fill-rule:nonzero;stroke:none"
         transform="matrix(1.3333333,0,0,-1.3333333,121.2,107.396)" />
      <path
         id="path8"
         d="m 0,0 5.835,-9.623 5.35,3.244 c 1.388,0.842 2.189,1.613 2.402,2.316 0.149,0.483 0.169,1.023 0.061,1.62 -0.109,0.597 -0.369,1.237 -0.784,1.92 l 0.665,0.402 5.138,-8.474 -0.664,-0.403 c -0.894,1.095 -1.522,1.754 -1.886,1.976 -0.469,0.288 -1.024,0.401 -1.667,0.339 -0.641,-0.062 -1.465,-0.397 -2.47,-1.006 l -5.35,-3.245 4.865,-8.025 c 0.66,-1.09 1.103,-1.718 1.327,-1.885 0.224,-0.167 0.502,-0.248 0.834,-0.242 0.333,0.005 0.834,0.211 1.505,0.617 l 4.129,2.504 c 1.376,0.834 2.314,1.53 2.812,2.085 0.498,0.556 0.871,1.302 1.122,2.239 0.287,1.173 0.369,2.753 0.244,4.741 l 0.718,0.435 1.601,-7.378 -18.762,-11.376 -0.403,0.664 0.862,0.523 c 0.587,0.355 1.048,0.823 1.384,1.404 0.262,0.404 0.347,0.845 0.255,1.32 -0.093,0.477 -0.498,1.307 -1.217,2.493 l -9.59,15.817 c -0.943,1.556 -1.676,2.412 -2.197,2.571 -0.734,0.21 -1.597,0.014 -2.59,-0.588 L -7.333,-3.537 -7.736,-2.873 11.026,8.502 14.529,3.333 13.828,2.909 C 12.786,4.061 11.971,4.77 11.384,5.036 10.821,5.316 10.151,5.41 9.374,5.315 8.798,5.212 7.9,4.79 6.679,4.05 L 0,0"
         style="fill:#231f20;fill-opacity:1;fill-rule:nonzero;stroke:none"
         transform="matrix(1.3333333,0,0,-1.3333333,145.29333,68.356)" />
      <path
         id="path9"
         d="M 0,0 3.745,-9.108 3.027,-9.402 c -0.473,0.819 -0.956,1.532 -1.448,2.139 -0.492,0.608 -1.002,1.113 -1.531,1.516 -1.004,0.783 -2.192,1.252 -3.564,1.406 -1.373,0.154 -2.654,-0.013 -3.845,-0.503 -1.347,-0.554 -2.291,-1.423 -2.833,-2.606 -0.543,-1.185 -0.598,-2.301 -0.167,-3.349 0.325,-0.79 0.904,-1.407 1.737,-1.851 1.171,-0.639 3.613,-1.148 7.326,-1.528 2.99,-0.314 5.075,-0.637 6.256,-0.968 1.181,-0.333 2.218,-0.879 3.113,-1.637 0.895,-0.76 1.558,-1.664 1.99,-2.712 0.809,-1.969 0.739,-3.998 -0.209,-6.091 -0.948,-2.093 -2.638,-3.64 -5.072,-4.641 -0.751,-0.308 -1.493,-0.546 -2.227,-0.71 -0.41,-0.109 -1.338,-0.217 -2.783,-0.328 -1.445,-0.11 -2.33,-0.232 -2.654,-0.365 -0.298,-0.122 -0.516,-0.326 -0.657,-0.61 -0.101,-0.27 -0.072,-0.727 0.088,-1.372 l -0.719,-0.295 -3.713,9.029 0.718,0.295 c 0.552,-0.862 1.084,-1.605 1.597,-2.227 0.513,-0.621 1.017,-1.11 1.511,-1.466 0.959,-0.711 2.147,-1.134 3.565,-1.27 1.418,-0.136 2.832,0.086 4.243,0.667 1.593,0.654 2.687,1.608 3.285,2.86 0.597,1.252 0.659,2.454 0.185,3.607 -0.261,0.634 -0.702,1.21 -1.323,1.726 -0.621,0.516 -1.433,0.909 -2.436,1.177 -0.628,0.165 -2.345,0.421 -5.151,0.766 -1.324,0.166 -2.503,0.336 -3.535,0.51 -1.032,0.172 -1.874,0.352 -2.526,0.538 -1.254,0.362 -2.313,0.895 -3.178,1.599 -0.865,0.703 -1.52,1.6 -1.967,2.687 -0.772,1.877 -0.715,3.8 0.17,5.768 0.886,1.969 2.448,3.413 4.688,4.334 1.424,0.586 3.047,0.853 4.87,0.8 0.382,-0.01 0.731,-0.002 1.046,0.023 0.316,0.023 0.545,0.064 0.687,0.123 0.324,0.132 0.556,0.341 0.696,0.627 0.14,0.284 0.147,0.764 0.021,1.438 L 0,0"
         style="fill:#231f20;fill-opacity:1;fill-rule:nonzero;stroke:none"
         transform="matrix(1.3333333,0,0,-1.3333333,192.92133,41.436)" />
      <path
         id="path10"
         d="M 0,0 2.819,-9.282 2.184,-9.43 c -1.483,2.616 -3.155,4.366 -5.02,5.249 -1.863,0.883 -3.893,1.071 -6.089,0.562 -1.827,-0.424 -3.376,-1.272 -4.648,-2.543 -1.271,-1.272 -2.098,-3.036 -2.48,-5.294 -0.382,-2.259 -0.223,-4.901 0.479,-7.928 0.296,-1.282 0.663,-2.43 1.098,-3.442 0.436,-1.013 0.976,-1.947 1.62,-2.804 1.231,-1.654 2.768,-2.785 4.611,-3.392 1.843,-0.608 3.801,-0.671 5.874,-0.192 1.814,0.42 3.317,1.175 4.509,2.263 1.192,1.088 2.347,2.968 3.467,5.641 l 0.728,-0.262 c -0.822,-2.777 -2.024,-4.955 -3.604,-6.535 -1.581,-1.58 -3.653,-2.668 -6.216,-3.262 -4.583,-1.062 -8.537,-0.182 -11.862,2.64 -2.47,2.101 -4.103,4.869 -4.899,8.305 -0.641,2.769 -0.615,5.446 0.078,8.035 0.694,2.589 1.989,4.783 3.886,6.579 1.897,1.798 4.127,2.994 6.691,3.587 1.991,0.461 4.082,0.429 6.273,-0.098 0.669,-0.161 1.113,-0.216 1.331,-0.165 0.368,0.085 0.659,0.288 0.872,0.611 0.258,0.433 0.392,1.003 0.401,1.709 L 0,0"
         style="fill:#231f20;fill-opacity:1;fill-rule:nonzero;stroke:none"
         transform="matrix(1.3333333,0,0,-1.3333333,237.26,29.478667)" />
      <path
         id="path11"
         d="m 0,0 0.667,-11.234 6.247,0.371 c 1.62,0.096 2.688,0.405 3.205,0.926 0.357,0.359 0.627,0.827 0.81,1.406 0.183,0.578 0.251,1.266 0.203,2.062 l 0.776,0.046 0.588,-9.892 -0.776,-0.046 c -0.279,1.385 -0.527,2.261 -0.745,2.627 -0.28,0.473 -0.719,0.833 -1.315,1.078 -0.597,0.245 -1.482,0.333 -2.656,0.263 l -6.246,-0.371 0.557,-9.369 c 0.076,-1.271 0.173,-2.033 0.293,-2.285 0.121,-0.253 0.329,-0.454 0.625,-0.604 0.297,-0.152 0.836,-0.204 1.618,-0.157 l 4.821,0.286 c 1.607,0.096 2.761,0.273 3.46,0.532 0.7,0.258 1.38,0.745 2.038,1.457 0.803,0.902 1.611,2.261 2.43,4.077 l 0.837,0.05 -2.029,-7.272 -21.902,-1.301 -0.046,0.776 1.006,0.059 c 0.685,0.04 1.311,0.24 1.879,0.596 0.42,0.234 0.701,0.584 0.842,1.049 0.141,0.464 0.17,1.388 0.088,2.77 l -1.097,18.466 c -0.108,1.816 -0.356,2.916 -0.743,3.3 -0.55,0.528 -1.405,0.758 -2.565,0.688 L -8.136,0.295 -8.182,1.07 13.721,2.372 14.404,-3.834 13.588,-3.883 c -0.385,1.505 -0.775,2.513 -1.169,3.023 -0.367,0.51 -0.917,0.905 -1.648,1.184 -0.558,0.178 -1.549,0.224 -2.974,0.14 L 0,0"
         style="fill:#231f20;fill-opacity:1;fill-rule:nonzero;stroke:none"
         transform="matrix(1.3333333,0,0,-1.3333333,259.032,30.14)" />
      <path
         id="path12"
         d="m 0,0 7.673,-0.879 14.875,-23.2 1.862,16.324 c 0.199,1.739 0.128,2.847 -0.212,3.323 -0.435,0.642 -1.215,1.027 -2.341,1.156 l -0.98,0.111 0.088,0.772 9.846,-1.124 -0.089,-0.771 -1.001,0.114 c -1.181,0.135 -2.072,-0.13 -2.669,-0.795 -0.163,-0.192 -0.315,-0.545 -0.458,-1.056 -0.143,-0.512 -0.259,-1.158 -0.348,-1.937 l -2.721,-23.844 -0.75,0.087 L 6.724,-6.811 4.736,-24.23 c -0.196,-1.725 -0.133,-2.831 0.192,-3.319 0.462,-0.644 1.243,-1.029 2.341,-1.154 l 1.001,-0.114 -0.088,-0.773 -9.846,1.124 0.089,0.772 0.98,-0.112 c 1.209,-0.138 2.106,0.126 2.689,0.792 0.163,0.193 0.316,0.545 0.459,1.057 0.143,0.512 0.259,1.157 0.348,1.937 l 2.245,19.671 c -0.685,1.035 -1.222,1.728 -1.612,2.076 -0.391,0.346 -0.993,0.714 -1.808,1.104 -0.389,0.171 -0.994,0.304 -1.814,0.397 L 0,0"
         style="fill:#231f20;fill-opacity:1;fill-rule:nonzero;stroke:none"
         transform="matrix(1.3333333,0,0,-1.3333333,287.156,26.498667)" />
      <path
         id="path13"
         d="m 0,0 -1.606,-6.488 -0.765,0.228 c 0.202,1.166 0.241,2.032 0.116,2.594 -0.173,0.885 -0.56,1.621 -1.16,2.208 -0.598,0.588 -1.448,1.046 -2.548,1.374 l -3.842,1.146 -6.215,-20.846 c -0.496,-1.663 -0.627,-2.764 -0.393,-3.301 0.342,-0.716 1.043,-1.231 2.103,-1.547 l 0.945,-0.282 -0.222,-0.744 -11.569,3.449 0.222,0.744 0.966,-0.288 c 1.139,-0.34 2.062,-0.235 2.766,0.315 0.195,0.161 0.406,0.481 0.637,0.961 0.23,0.478 0.458,1.093 0.682,1.844 l 6.214,20.846 -3.28,0.977 c -1.301,0.388 -2.234,0.565 -2.8,0.529 -0.743,-0.041 -1.486,-0.354 -2.229,-0.935 -0.677,-0.557 -1.264,-1.449 -1.761,-2.674 l -0.765,0.228 2.23,6.303 L 0,0"
         style="fill:#231f20;fill-opacity:1;fill-rule:nonzero;stroke:none"
         transform="matrix(1.3333333,0,0,-1.3333333,366.78667,42.254667)" />
      <path
         id="path14"
         d="m 0,0 -4.856,-8.566 -0.676,0.382 c 0.354,0.878 0.617,1.699 0.791,2.46 0.175,0.762 0.257,1.476 0.248,2.141 -0.002,1.272 -0.367,2.496 -1.092,3.672 -0.726,1.175 -1.649,2.08 -2.769,2.716 -1.266,0.717 -2.533,0.923 -3.8,0.62 -1.266,-0.304 -2.178,-0.949 -2.737,-1.936 -0.422,-0.743 -0.55,-1.579 -0.385,-2.509 0.22,-1.315 1.326,-3.55 3.319,-6.707 1.597,-2.546 2.63,-4.386 3.097,-5.52 0.468,-1.134 0.679,-2.288 0.633,-3.461 -0.045,-1.173 -0.347,-2.252 -0.906,-3.238 -1.049,-1.852 -2.69,-3.05 -4.921,-3.595 -2.231,-0.545 -4.492,-0.169 -6.781,1.128 -0.707,0.4 -1.352,0.839 -1.935,1.313 -0.338,0.256 -0.996,0.919 -1.974,1.989 -0.979,1.069 -1.621,1.69 -1.925,1.863 -0.281,0.158 -0.575,0.205 -0.886,0.14 -0.274,-0.086 -0.616,-0.391 -1.025,-0.915 l -0.676,0.382 4.813,8.494 0.676,-0.382 c -0.339,-0.967 -0.595,-1.844 -0.767,-2.631 -0.172,-0.787 -0.247,-1.486 -0.221,-2.094 0.032,-1.193 0.431,-2.39 1.2,-3.589 0.769,-1.199 1.815,-2.176 3.144,-2.928 1.498,-0.848 2.923,-1.122 4.277,-0.819 1.354,0.303 2.338,0.995 2.952,2.079 0.339,0.597 0.52,1.299 0.543,2.107 0.022,0.807 -0.17,1.688 -0.577,2.643 -0.258,0.597 -1.116,2.106 -2.576,4.526 -0.687,1.145 -1.281,2.176 -1.782,3.096 -0.5,0.919 -0.878,1.693 -1.133,2.321 -0.49,1.21 -0.724,2.372 -0.703,3.487 0.02,1.114 0.32,2.184 0.9,3.206 1.001,1.766 2.549,2.907 4.644,3.426 2.095,0.517 4.197,0.179 6.303,-1.015 1.34,-0.759 2.551,-1.872 3.635,-3.339 0.228,-0.306 0.449,-0.576 0.663,-0.809 0.213,-0.235 0.387,-0.389 0.522,-0.465 0.303,-0.172 0.611,-0.226 0.921,-0.16 0.311,0.064 0.693,0.355 1.146,0.871 L 0,0"
         style="fill:#231f20;fill-opacity:1;fill-rule:nonzero;stroke:none"
         transform="matrix(1.3333333,0,0,-1.3333333,413.268,64.309333)" />
      <path
         id="path15"
         d="m 0,0 c -1.964,1.601 -4.144,2.158 -6.543,1.675 -2.981,-0.623 -5.899,-2.688 -8.755,-6.193 -2.934,-3.602 -4.422,-7.003 -4.464,-10.201 -0.02,-2.439 0.942,-4.45 2.884,-6.033 2.074,-1.688 4.444,-2.274 7.113,-1.758 2.668,0.516 5.42,2.516 8.258,5.999 3.085,3.788 4.636,7.21 4.653,10.266 C 3.155,-3.797 2.106,-1.715 0,0 Z m 1.278,0.937 c 2.854,-2.326 4.447,-5.434 4.781,-9.325 0.332,-3.89 -0.827,-7.464 -3.48,-10.719 -2.731,-3.354 -6.057,-5.276 -9.977,-5.765 -3.919,-0.49 -7.383,0.489 -10.389,2.938 -3.027,2.466 -4.698,5.624 -5.012,9.472 -0.313,3.849 0.927,7.486 3.721,10.916 2.847,3.494 6.369,5.382 10.569,5.661 3.638,0.233 6.9,-0.827 9.787,-3.178"
         style="fill:#231f20;fill-opacity:1;fill-rule:nonzero;stroke:none"
         transform="matrix(1.3333333,0,0,-1.3333333,437.904,84.644)" />
      <path
         id="path16"
         d="m 0,0 -6.943,-6.775 -0.423,0.496 c 1.64,2.52 2.424,4.811 2.349,6.872 -0.075,2.061 -0.842,3.949 -2.304,5.664 -1.218,1.428 -2.684,2.413 -4.398,2.956 -1.714,0.544 -3.661,0.465 -5.842,-0.235 -2.18,-0.701 -4.453,-2.059 -6.817,-4.075 -1.002,-0.853 -1.852,-1.707 -2.55,-2.559 -0.698,-0.854 -1.279,-1.763 -1.743,-2.729 -0.902,-1.854 -1.198,-3.74 -0.89,-5.656 0.31,-1.916 1.155,-3.682 2.536,-5.302 1.207,-1.416 2.568,-2.404 4.083,-2.961 1.514,-0.557 3.715,-0.717 6.604,-0.481 l 0.103,-0.767 c -2.844,-0.548 -5.331,-0.485 -7.461,0.191 -2.131,0.676 -4.05,2.016 -5.757,4.018 -3.052,3.579 -4.091,7.493 -3.117,11.744 0.728,3.16 2.434,5.884 5.118,8.172 2.162,1.844 4.552,3.054 7.17,3.63 2.617,0.576 5.16,0.436 7.629,-0.421 2.468,-0.856 4.556,-2.286 6.263,-4.289 1.326,-1.555 2.26,-3.426 2.801,-5.614 0.165,-0.668 0.32,-1.087 0.466,-1.258 0.245,-0.288 0.559,-0.451 0.943,-0.492 0.504,-0.03 1.072,0.113 1.702,0.431 L 0,0"
         style="fill:#231f20;fill-opacity:1;fill-rule:nonzero;stroke:none"
         transform="matrix(1.3333333,0,0,-1.3333333,482.308,127.132)" />
      <path
         id="path17"
         d="m 0,0 -0.653,-0.421 -6.614,10.25 0.652,0.421 0.547,-0.847 c 0.63,-0.977 1.381,-1.508 2.253,-1.595 0.559,-0.039 1.555,0.404 2.99,1.33 l 15.454,9.974 c 1.211,0.781 1.961,1.374 2.251,1.777 0.214,0.288 0.311,0.693 0.292,1.213 -0.052,0.7 -0.259,1.332 -0.624,1.897 l -0.547,0.846 0.653,0.421 6.615,-10.249 -0.653,-0.422 -0.558,0.866 c -0.622,0.963 -1.37,1.489 -2.242,1.576 -0.577,0.044 -1.578,-0.394 -3.001,-1.313 L 1.361,5.752 C 0.15,4.969 -0.601,4.377 -0.89,3.973 -1.092,3.693 -1.186,3.283 -1.17,2.743 -1.134,2.067 -0.93,1.441 -0.558,0.865 L 0,0"
         style="fill:#231f20;fill-opacity:1;fill-rule:nonzero;stroke:none"
         transform="matrix(1.3333333,0,0,-1.3333333,465.10933,169.81067)" />
      <path
         id="path18"
         d="m 0,0 -10.15,-4.862 2.703,-5.643 c 0.703,-1.464 1.392,-2.337 2.07,-2.617 0.466,-0.196 1.002,-0.268 1.606,-0.22 0.606,0.049 1.268,0.246 1.987,0.591 l 0.335,-0.7 -8.937,-4.282 -0.335,0.701 c 1.177,0.781 1.894,1.342 2.15,1.682 0.333,0.439 0.5,0.981 0.502,1.626 0.001,0.644 -0.252,1.497 -0.759,2.557 l -2.704,5.643 -8.463,-4.055 c -1.15,-0.55 -1.818,-0.929 -2.006,-1.135 -0.189,-0.207 -0.296,-0.475 -0.324,-0.806 -0.027,-0.332 0.128,-0.851 0.467,-1.558 l 2.086,-4.355 c 0.695,-1.452 1.295,-2.454 1.8,-3.003 0.504,-0.55 1.21,-0.996 2.118,-1.336 1.139,-0.402 2.703,-0.638 4.693,-0.709 l 0.363,-0.757 -7.499,-0.869 -9.48,19.788 0.701,0.335 0.435,-0.908 c 0.297,-0.62 0.717,-1.124 1.262,-1.515 0.376,-0.301 0.806,-0.429 1.289,-0.384 0.482,0.045 1.349,0.367 2.598,0.966 l 16.683,7.991 c 1.641,0.786 2.565,1.432 2.774,1.935 0.282,0.709 0.171,1.588 -0.331,2.635 l -0.434,0.909 0.7,0.336 9.48,-19.788 -5.489,-2.978 -0.353,0.738 c 1.249,0.924 2.034,1.665 2.357,2.224 0.334,0.532 0.492,1.19 0.475,1.974 -0.047,0.583 -0.379,1.517 -0.995,2.805 L 0,0"
         style="fill:#231f20;fill-opacity:1;fill-rule:nonzero;stroke:none"
         transform="matrix(1.3333333,0,0,-1.3333333,502.992,166.61867)" />
      <path
         id="path19"
         d="m 0,0 -6.32,-2.177 -0.224,0.767 c 1.089,0.463 1.836,0.901 2.242,1.311 0.648,0.627 1.055,1.352 1.223,2.174 0.168,0.821 0.091,1.783 -0.231,2.885 L -4.435,8.809 -25.313,2.704 c -1.666,-0.488 -2.661,-0.975 -2.985,-1.463 -0.415,-0.676 -0.467,-1.544 -0.157,-2.606 l 0.278,-0.947 -0.747,-0.218 -3.387,11.587 0.745,0.219 0.283,-0.968 c 0.334,-1.141 0.923,-1.859 1.767,-2.152 0.241,-0.075 0.625,-0.079 1.152,-0.013 0.527,0.067 1.167,0.21 1.92,0.43 l 20.877,6.105 -0.96,3.285 c -0.381,1.303 -0.74,2.182 -1.078,2.638 -0.439,0.602 -1.104,1.056 -1.995,1.364 -0.837,0.265 -1.904,0.274 -3.202,0.026 l -0.224,0.766 6.503,1.551 L 0,0"
         style="fill:#231f20;fill-opacity:1;fill-rule:nonzero;stroke:none"
         transform="matrix(1.3333333,0,0,-1.3333333,526.18,223.70533)" />
      <path
         id="path20"
         d="M 0,0 1.076,-9.874 0.303,-9.958 0.244,-9.416 c -0.041,0.376 -0.254,0.888 -0.642,1.536 -0.388,0.648 -0.907,1.221 -1.561,1.72 -0.652,0.499 -1.714,1.106 -3.186,1.818 L -16.637,1.312 -23.734,0.54 c -1.74,-0.19 -2.804,-0.503 -3.192,-0.94 -0.528,-0.592 -0.729,-1.459 -0.605,-2.6 l 0.101,-0.918 -0.773,-0.084 -1.309,12.022 0.772,0.084 0.108,-1.002 c 0.129,-1.183 0.584,-1.992 1.364,-2.428 0.223,-0.116 0.601,-0.188 1.132,-0.215 0.531,-0.026 1.185,0.003 1.965,0.088 l 6.701,0.73 11.009,9.056 c 1.226,1.02 2.028,1.742 2.405,2.163 0.299,0.356 0.642,1.077 1.031,2.161 0.105,0.321 0.132,0.732 0.077,1.233 L -2.175,19.974 -0.857,7.868 -1.63,7.784 -1.697,8.41 c -0.071,0.654 -0.287,1.24 -0.646,1.757 -0.36,0.517 -0.852,0.741 -1.478,0.673 -0.502,-0.054 -1.36,-0.577 -2.576,-1.566 l -8.453,-6.899 9.308,-4.603 c 1.384,-0.696 2.404,-1.008 3.058,-0.938 0.361,0.041 0.687,0.174 0.979,0.404 0.292,0.228 0.507,0.551 0.645,0.968 0.137,0.416 0.167,0.986 0.088,1.709 L 0,0"
         style="fill:#231f20;fill-opacity:1;fill-rule:nonzero;stroke:none"
         transform="matrix(1.3333333,0,0,-1.3333333,531.12,258.584)" />
      <path
         id="path21"
         d="m 0,0 c -0.149,-1.448 -0.783,-2.632 -1.904,-3.552 -1.122,-0.919 -2.413,-1.304 -3.875,-1.154 -1.449,0.148 -2.632,0.786 -3.551,1.914 -0.918,1.129 -1.304,2.417 -1.155,3.865 0.148,1.449 0.789,2.631 1.924,3.549 1.135,0.918 2.42,1.304 3.855,1.157 C -3.259,5.631 -2.074,5 -1.154,3.885 -0.234,2.771 0.15,1.476 0,0"
         style="fill:#231f20;fill-opacity:1;fill-rule:nonzero;stroke:#231f20;stroke-width:1;stroke-linecap:butt;stroke-linejoin:miter;stroke-miterlimit:10;stroke-dasharray:none;stroke-opacity:1"
         transform="matrix(1.3333333,0,0,-1.3333333,518.64533,304.45333)" />
      <path
         id="path22"
         d="m 0,0 0.313,-1.709 0.601,-2.069 c 0.616,-1.913 1.277,-3.276 1.985,-4.089 0.706,-0.814 1.569,-1.34 2.587,-1.58 1.018,-0.24 2.028,-0.199 3.031,0.124 1.535,0.494 2.65,1.546 3.346,3.156 0.696,1.61 0.652,3.632 -0.131,6.065 -0.424,1.315 -0.945,2.44 -1.561,3.376 z m -12.648,-4.071 c 0.133,-1.624 0.436,-3.169 0.91,-4.641 0.754,-2.342 1.858,-3.965 3.312,-4.869 1.454,-0.904 2.969,-1.102 4.543,-0.595 1.016,0.327 1.909,0.92 2.681,1.778 0.772,0.86 1.231,2.009 1.379,3.45 0.146,1.44 -0.082,3.097 -0.685,4.971 -0.093,0.286 -0.213,0.661 -0.361,1.123 -0.149,0.462 -0.251,0.778 -0.305,0.947 -0.08,0.247 -0.171,0.483 -0.272,0.71 -0.102,0.225 -0.205,0.436 -0.312,0.631 z m 14.886,-6.498 c 0.197,-1.947 0.014,-3.521 -0.547,-4.721 -0.793,-1.649 -2.053,-2.751 -3.784,-3.308 -1.301,-0.419 -2.69,-0.41 -4.167,0.027 -1.475,0.437 -2.725,1.295 -3.747,2.575 -1.022,1.279 -2.014,3.409 -2.972,6.389 l -4.022,12.494 0.722,0.232 0.321,-0.995 c 0.348,-1.08 0.954,-1.761 1.82,-2.042 0.552,-0.153 1.57,0.01 3.054,0.487 L 6.017,6.073 c 1.652,0.532 2.626,1.054 2.921,1.565 0.409,0.692 0.453,1.54 0.13,2.541 l -0.321,0.996 0.723,0.232 3.682,-11.439 c 0.679,-2.109 1.074,-3.87 1.184,-5.285 0.16,-2.103 -0.19,-3.86 -1.05,-5.271 -0.86,-1.412 -2.064,-2.367 -3.613,-2.865 -1.34,-0.432 -2.652,-0.416 -3.936,0.047 -1.284,0.462 -2.45,1.409 -3.499,2.837"
         style="fill:#231f20;fill-opacity:1;fill-rule:nonzero;stroke:none"
         transform="matrix(1.3333333,0,0,-1.3333333,58.486667,343.32267)" />
      <path
         id="path23"
         d="m 0,0 0.294,-0.61 0.217,-0.419 c 1.216,-2.342 2.644,-3.85 4.287,-4.522 1.643,-0.672 3.253,-0.599 4.831,0.219 1.529,0.794 2.529,1.922 3.003,3.385 0.473,1.462 0.295,2.994 -0.536,4.596 -0.372,0.716 -0.982,1.609 -1.829,2.678 z m -3.591,-24.113 -3.419,6.589 7.204,14.344 -0.784,1.51 -0.264,0.51 -0.104,0.2 c -0.037,0.074 -0.101,0.195 -0.188,0.365 l -7.172,-3.722 c -1.554,-0.806 -2.431,-1.477 -2.63,-2.012 -0.295,-0.738 -0.203,-1.568 0.275,-2.49 l 0.501,-0.965 -0.674,-0.35 -5.487,10.577 0.673,0.348 0.482,-0.927 c 0.541,-1.044 1.268,-1.614 2.181,-1.71 0.496,-0.067 1.454,0.269 2.874,1.005 L 5.823,7.435 c 1.553,0.805 2.43,1.476 2.63,2.011 0.288,0.751 0.19,1.593 -0.295,2.527 l -0.482,0.929 0.674,0.349 4.666,-8.992 c 1.379,-2.658 2.198,-4.697 2.459,-6.118 0.259,-1.421 0.098,-2.833 -0.483,-4.236 -0.581,-1.403 -1.582,-2.472 -3.002,-3.209 -1.516,-0.788 -3.085,-0.978 -4.706,-0.571 -1.62,0.406 -3.209,1.531 -4.766,3.373 l -4.429,-8.774 c -1.018,-1.99 -1.579,-3.552 -1.685,-4.685 -0.089,-1.076 0.138,-2.344 0.679,-3.802 l -0.674,-0.35"
         style="fill:#231f20;fill-opacity:1;fill-rule:nonzero;stroke:none"
         transform="matrix(1.3333333,0,0,-1.3333333,70.885333,379.624)" />
      <path
         id="path24"
         d="M 0,0 0.603,0.46 6.581,-7.361 5.978,-7.822 5.343,-6.991 C 4.679,-6.122 3.804,-5.732 2.719,-5.821 2.219,-5.842 1.35,-6.326 0.111,-7.272 l -8.961,-6.85 c -2.238,-1.71 -4.123,-2.806 -5.655,-3.29 -1.533,-0.482 -3.235,-0.416 -5.108,0.201 -1.874,0.616 -3.657,2.031 -5.351,4.247 -1.851,2.423 -2.833,4.568 -2.944,6.435 -0.112,1.868 0.337,3.617 1.345,5.248 0.711,1.096 2.393,2.656 5.043,4.682 l 8.636,6.6 c 1.358,1.038 2.107,1.903 2.248,2.596 0.142,0.694 -0.111,1.463 -0.759,2.311 L -12.03,15.739 -11.427,16.2 -4.129,6.652 -4.732,6.191 -5.38,7.038 C -6.086,7.961 -6.872,8.393 -7.738,8.334 -8.358,8.29 -9.276,7.802 -10.493,6.873 l -9.63,-7.361 c -0.456,-0.348 -0.899,-0.714 -1.331,-1.094 -0.432,-0.382 -0.913,-0.844 -1.443,-1.388 -1.005,-1.027 -1.657,-1.976 -1.954,-2.848 -0.296,-0.872 -0.347,-1.853 -0.151,-2.942 0.106,-0.522 0.291,-1.069 0.556,-1.64 0.265,-0.572 0.609,-1.135 1.033,-1.688 1.096,-1.434 2.389,-2.485 3.88,-3.153 1.491,-0.667 2.892,-0.835 4.205,-0.503 1.311,0.332 3.146,1.399 5.504,3.201 l 8.945,6.836 c 1.379,1.055 2.126,1.868 2.242,2.437 0.154,0.789 -0.089,1.602 -0.728,2.438 L 0,0"
         style="fill:#231f20;fill-opacity:1;fill-rule:nonzero;stroke:none"
         transform="matrix(1.3333333,0,0,-1.3333333,113.19067,414.752)" />
      <path
         id="path25"
         d="m 0,0 5.582,-5.074 -1.441,-26.88 10.789,11.88 c 1.15,1.266 1.725,2.185 1.727,2.756 0.022,0.756 -0.377,1.507 -1.196,2.251 l -0.714,0.649 0.51,0.561 7.166,-6.508 -0.51,-0.561 -0.729,0.662 c -0.861,0.781 -1.717,1.078 -2.569,0.892 -0.239,-0.06 -0.561,-0.252 -0.967,-0.577 -0.405,-0.324 -0.866,-0.769 -1.38,-1.336 l -15.759,-17.352 -0.546,0.496 1.483,28.904 -11.512,-12.677 c -1.14,-1.254 -1.721,-2.168 -1.742,-2.74 -0.002,-0.774 0.398,-1.524 1.198,-2.251 l 0.728,-0.661 -0.51,-0.562 -7.166,6.507 0.511,0.562 0.713,-0.648 c 0.881,-0.799 1.742,-1.101 2.585,-0.906 0.238,0.06 0.561,0.252 0.966,0.576 0.406,0.325 0.866,0.77 1.381,1.337 L 1.6,-6.384 c 0.047,1.212 0.015,2.067 -0.095,2.565 -0.111,0.498 -0.379,1.134 -0.803,1.907 -0.211,0.358 -0.615,0.808 -1.212,1.35 L 0,0"
         style="fill:#231f20;fill-opacity:1;fill-rule:nonzero;stroke:none"
         transform="matrix(1.3333333,0,0,-1.3333333,120.74667,423.41867)" />
      <path
         id="path26"
         d="m 0,0 -5.951,-9.242 5.137,-3.308 c 1.333,-0.859 2.354,-1.232 3.062,-1.118 0.487,0.076 0.971,0.289 1.448,0.64 0.479,0.351 0.929,0.854 1.351,1.509 l 0.637,-0.41 -5.241,-8.139 -0.637,0.411 c 0.579,1.253 0.888,2.087 0.927,2.5 0.052,0.536 -0.087,1.072 -0.416,1.61 -0.329,0.537 -0.975,1.116 -1.941,1.738 l -5.138,3.309 -4.964,-7.707 c -0.674,-1.047 -1.036,-1.703 -1.086,-1.971 -0.05,-0.269 -0.003,-0.547 0.144,-0.837 0.146,-0.289 0.542,-0.642 1.185,-1.057 l 3.966,-2.554 c 1.322,-0.85 2.333,-1.377 3.034,-1.576 0.702,-0.199 1.517,-0.208 2.447,-0.026 1.152,0.25 2.575,0.854 4.266,1.814 l 0.69,-0.444 -5.793,-4.563 -18.017,11.603 0.41,0.639 0.828,-0.534 c 0.563,-0.362 1.171,-0.567 1.825,-0.614 0.467,-0.056 0.889,0.057 1.268,0.342 0.379,0.284 0.935,0.996 1.667,2.134 l 9.783,15.19 c 0.962,1.494 1.401,2.504 1.317,3.03 -0.129,0.734 -0.671,1.408 -1.624,2.022 l -0.828,0.533 0.411,0.638 18.017,-11.604 -3.039,-5.287 -0.672,0.433 c 0.565,1.408 0.838,2.428 0.822,3.057 0.005,0.614 -0.2,1.242 -0.616,1.884 -0.337,0.461 -1.092,1.07 -2.265,1.825 L 0,0"
         style="fill:#231f20;fill-opacity:1;fill-rule:nonzero;stroke:none"
         transform="matrix(1.3333333,0,0,-1.3333333,158.64533,457.8)" />
      <path
         id="path27"
         d="m 0,0 -0.338,-0.68 -10.665,5.313 0.338,0.679 0.881,-0.438 c 1.016,-0.507 1.912,-0.578 2.688,-0.217 0.489,0.245 1.105,1.114 1.848,2.607 l 8.011,16.081 c 0.628,1.26 0.962,2.132 1.005,2.616 0.036,0.348 -0.084,0.736 -0.36,1.164 -0.392,0.561 -0.881,0.989 -1.469,1.281 l -0.881,0.44 0.338,0.678 10.665,-5.312 -0.338,-0.679 -0.899,0.448 C 9.82,24.48 8.93,24.55 8.155,24.187 7.647,23.936 7.025,23.07 6.287,21.59 L -1.723,5.51 C -2.35,4.249 -2.686,3.377 -2.728,2.893 -2.758,2.557 -2.632,2.166 -2.35,1.721 -1.982,1.171 -1.499,0.747 -0.899,0.448 L 0,0"
         style="fill:#231f20;fill-opacity:1;fill-rule:nonzero;stroke:none"
         transform="matrix(1.3333333,0,0,-1.3333333,175.67867,506.43333)" />
      <path
         id="path28"
         d="m 0,0 c 0.828,-0.435 1.558,-0.792 2.189,-1.07 0.632,-0.28 1.249,-0.505 1.855,-0.678 3.037,-0.864 5.869,-0.516 8.496,1.047 2.627,1.562 4.464,4.184 5.512,7.866 1.044,3.669 0.866,6.861 -0.537,9.577 -1.401,2.716 -3.68,4.524 -6.836,5.422 -0.591,0.168 -1.24,0.303 -1.943,0.403 -0.703,0.101 -1.458,0.16 -2.264,0.175 z m -8.184,0.24 0.208,0.73 1.006,-0.286 c 1.117,-0.319 2.022,-0.185 2.715,0.399 0.42,0.378 0.842,1.31 1.264,2.796 l 4.918,17.278 c 0.476,1.67 0.589,2.768 0.341,3.294 C 1.92,25.176 1.24,25.682 0.227,25.97 l -1.006,0.287 0.208,0.729 10.888,-3.099 c 3.984,-1.134 6.896,-2.453 8.734,-3.957 1.84,-1.504 3.088,-3.498 3.747,-5.982 C 23.456,11.466 23.391,8.844 22.605,6.082 21.549,2.374 19.534,-0.414 16.557,-2.282 13.239,-4.352 8.976,-4.645 3.769,-3.162 L -8.184,0.24"
         style="fill:#231f20;fill-opacity:1;fill-rule:nonzero;stroke:none"
         transform="matrix(1.3333333,0,0,-1.3333333,203.32533,515.44267)" />
      <path
         id="path29"
         d="M 0,0 -3.492,11.689 -9.511,1.011 Z m 0.427,-1.572 -10.743,1.142 -2.309,-4.171 c -0.582,-1.037 -0.902,-1.813 -0.956,-2.33 -0.043,-0.407 0.114,-0.802 0.472,-1.183 0.224,-0.216 0.541,-0.402 0.952,-0.555 0.41,-0.153 0.941,-0.265 1.593,-0.334 l -0.08,-0.755 -8.708,0.926 0.08,0.755 c 1.151,0.084 1.927,0.269 2.328,0.556 0.733,0.555 1.642,1.799 2.728,3.732 l 12.147,21.724 0.714,-0.076 7.179,-24.026 c 0.578,-1.932 1.15,-3.209 1.717,-3.833 0.309,-0.322 0.677,-0.588 1.1,-0.798 0.425,-0.21 0.91,-0.344 1.453,-0.402 l -0.08,-0.754 -10.91,1.16 0.08,0.754 c 0.543,-0.058 1.001,-0.058 1.371,-0.001 0.371,0.057 0.674,0.163 0.911,0.317 0.427,0.271 0.665,0.631 0.712,1.081 0.064,0.6 -0.1,1.574 -0.491,2.925 l -1.26,4.146"
         style="fill:#231f20;fill-opacity:1;fill-rule:nonzero;stroke:none"
         transform="matrix(1.3333333,0,0,-1.3333333,258.98667,514.65467)" />
      <path
         id="path30"
         d="M 0,0 0.678,0.024 1.149,0.055 C 3.781,0.228 5.736,0.931 7.011,2.165 8.286,3.4 8.865,4.904 8.75,6.678 8.637,8.397 8.006,9.766 6.857,10.787 5.707,11.808 4.233,12.259 2.432,12.141 1.626,12.088 0.565,11.889 -0.756,11.542 Z M 20.643,-12.971 13.235,-13.457 2.99,-1.098 0.494,-1.263 C 0.412,-1.267 0.276,-1.276 0.085,-1.289 l 0.528,-8.062 c 0.116,-1.747 0.377,-2.82 0.788,-3.217 0.556,-0.567 1.354,-0.816 2.391,-0.747 l 1.085,0.071 0.049,-0.758 -11.89,-0.779 -0.048,0.757 1.042,0.068 c 1.174,0.077 1.988,0.514 2.443,1.312 0.26,0.427 0.337,1.44 0.232,3.036 L -4.47,8.319 c -0.115,1.746 -0.376,2.818 -0.787,3.215 -0.571,0.566 -1.381,0.814 -2.432,0.745 l -1.043,-0.068 -0.05,0.757 10.108,0.663 c 2.989,0.195 5.185,0.127 6.59,-0.205 1.406,-0.333 2.635,-1.047 3.686,-2.143 1.052,-1.095 1.631,-2.442 1.734,-4.038 C 13.448,5.539 12.992,4.027 11.969,2.706 10.947,1.385 9.279,0.382 6.967,-0.304 l 6.256,-7.581 c 1.414,-1.73 2.619,-2.872 3.613,-3.423 0.951,-0.514 2.203,-0.816 3.757,-0.906 l 0.05,-0.757"
         style="fill:#231f20;fill-opacity:1;fill-rule:nonzero;stroke:none"
         transform="matrix(1.3333333,0,0,-1.3333333,287.79333,510.844)" />
      <path
         id="path31"
         d="M 0,0 -0.181,0.736 9.382,3.074 9.563,2.337 8.546,2.089 C 7.484,1.829 6.776,1.183 6.422,0.155 6.24,-0.312 6.334,-1.302 6.705,-2.817 l 2.678,-10.956 c 0.669,-2.736 0.917,-4.903 0.744,-6.5 -0.172,-1.597 -0.916,-3.131 -2.232,-4.599 -1.317,-1.469 -3.328,-2.535 -6.037,-3.197 -2.962,-0.723 -5.321,-0.761 -7.077,-0.114 -1.755,0.648 -3.178,1.76 -4.267,3.337 -0.718,1.092 -1.473,3.258 -2.264,6.498 l -2.581,10.559 c -0.405,1.66 -0.898,2.693 -1.476,3.101 -0.578,0.407 -1.385,0.485 -2.421,0.232 l -1.016,-0.248 -0.18,0.736 11.674,2.853 0.18,-0.736 -1.036,-0.254 c -1.129,-0.275 -1.84,-0.822 -2.132,-1.639 -0.209,-0.586 -0.132,-1.623 0.232,-3.111 l 2.877,-11.773 c 0.137,-0.558 0.293,-1.111 0.469,-1.658 0.177,-0.549 0.406,-1.175 0.691,-1.879 0.537,-1.333 1.146,-2.311 1.827,-2.932 0.679,-0.622 1.556,-1.062 2.633,-1.319 0.52,-0.114 1.095,-0.162 1.726,-0.149 0.629,0.013 1.283,0.103 1.961,0.268 1.752,0.429 3.234,1.192 4.443,2.29 1.209,1.098 1.926,2.314 2.149,3.649 0.222,1.335 -0.02,3.444 -0.723,6.326 L 4.873,-3.095 C 4.461,-1.409 4.017,-0.399 3.541,-0.064 2.88,0.393 2.038,0.498 1.016,0.248 L 0,0"
         style="fill:#231f20;fill-opacity:1;fill-rule:nonzero;stroke:none"
         transform="matrix(1.3333333,0,0,-1.3333333,336.96533,486.20533)" />
      <path
         id="path32"
         d="M 0,0 3.739,-8.862 3.04,-9.157 c -0.469,0.796 -0.947,1.489 -1.432,2.077 -0.487,0.589 -0.989,1.079 -1.51,1.467 -0.986,0.756 -2.15,1.203 -3.492,1.342 -1.343,0.139 -2.594,-0.036 -3.752,-0.525 -1.311,-0.553 -2.225,-1.41 -2.744,-2.571 -0.52,-1.162 -0.564,-2.252 -0.133,-3.272 0.324,-0.769 0.894,-1.366 1.713,-1.792 1.149,-0.614 3.539,-1.09 7.168,-1.428 2.924,-0.281 4.963,-0.578 6.119,-0.891 1.156,-0.314 2.174,-0.838 3.055,-1.572 0.88,-0.734 1.537,-1.611 1.967,-2.631 0.808,-1.915 0.757,-3.898 -0.149,-5.951 -0.908,-2.052 -2.546,-3.577 -4.914,-4.576 -0.731,-0.309 -1.453,-0.547 -2.169,-0.715 -0.399,-0.109 -1.305,-0.223 -2.716,-0.344 -1.41,-0.121 -2.273,-0.247 -2.588,-0.379 -0.29,-0.123 -0.502,-0.324 -0.636,-0.603 -0.097,-0.264 -0.065,-0.71 0.097,-1.339 l -0.699,-0.295 -3.706,8.786 0.698,0.295 c 0.547,-0.838 1.073,-1.557 1.58,-2.16 0.506,-0.602 1.002,-1.076 1.488,-1.42 0.944,-0.685 2.108,-1.089 3.494,-1.209 1.385,-0.12 2.765,0.11 4.138,0.69 1.55,0.653 2.611,1.593 3.183,2.822 0.572,1.228 0.623,2.403 0.149,3.524 -0.26,0.618 -0.696,1.175 -1.307,1.674 -0.611,0.499 -1.407,0.875 -2.39,1.129 -0.614,0.156 -2.294,0.39 -5.037,0.702 -1.296,0.151 -2.448,0.306 -3.458,0.467 -1.01,0.159 -1.834,0.328 -2.471,0.504 -1.228,0.343 -2.267,0.853 -3.118,1.534 -0.85,0.679 -1.499,1.549 -1.946,2.607 -0.77,1.826 -0.732,3.705 0.116,5.635 0.847,1.93 2.36,3.356 4.54,4.275 1.386,0.585 2.969,0.859 4.75,0.824 0.373,-0.006 0.713,0.004 1.022,0.03 0.308,0.027 0.531,0.069 0.669,0.127 0.315,0.133 0.54,0.339 0.674,0.618 0.135,0.28 0.138,0.748 0.008,1.406 L 0,0"
         style="fill:#231f20;fill-opacity:1;fill-rule:nonzero;stroke:none"
         transform="matrix(1.3333333,0,0,-1.3333333,371.39733,471.472)" />
      <path
         id="path33"
         d="M 0,0 4.893,-8.28 4.24,-8.667 C 3.669,-7.94 3.102,-7.318 2.542,-6.8 c -0.561,0.519 -1.125,0.936 -1.693,1.251 -1.079,0.618 -2.293,0.905 -3.641,0.862 -1.349,-0.043 -2.565,-0.384 -3.647,-1.024 -1.224,-0.723 -2.015,-1.695 -2.375,-2.916 -0.358,-1.22 -0.255,-2.306 0.307,-3.26 0.425,-0.718 1.07,-1.234 1.939,-1.546 1.221,-0.454 3.653,-0.606 7.295,-0.453 2.934,0.113 4.995,0.092 6.182,-0.063 1.189,-0.156 2.268,-0.538 3.239,-1.147 0.972,-0.61 1.74,-1.391 2.302,-2.344 1.058,-1.789 1.274,-3.762 0.65,-5.917 -0.625,-2.155 -2.043,-3.887 -4.255,-5.194 -0.683,-0.404 -1.368,-0.737 -2.053,-1 -0.381,-0.161 -1.264,-0.396 -2.645,-0.705 -1.382,-0.308 -2.22,-0.549 -2.514,-0.723 -0.271,-0.16 -0.454,-0.388 -0.55,-0.682 -0.061,-0.274 0.031,-0.713 0.276,-1.314 l -0.653,-0.386 -4.852,8.21 0.654,0.386 c 0.653,-0.757 1.272,-1.401 1.854,-1.929 0.582,-0.529 1.139,-0.933 1.666,-1.207 1.026,-0.554 2.234,-0.797 3.623,-0.73 1.39,0.067 2.727,0.48 4.01,1.238 1.447,0.855 2.373,1.929 2.775,3.224 0.403,1.294 0.294,2.464 -0.325,3.512 -0.341,0.577 -0.847,1.071 -1.52,1.484 -0.672,0.413 -1.512,0.678 -2.52,0.797 -0.631,0.073 -2.326,0.079 -5.086,0.021 -1.303,-0.025 -2.467,-0.026 -3.488,-0.001 -1.023,0.022 -1.861,0.079 -2.518,0.168 -1.262,0.174 -2.361,0.542 -3.295,1.101 -0.934,0.56 -1.693,1.334 -2.278,2.323 -1.009,1.706 -1.222,3.573 -0.641,5.599 0.582,2.028 1.889,3.642 3.925,4.846 1.295,0.765 2.827,1.249 4.597,1.453 0.37,0.044 0.707,0.101 1.009,0.168 0.302,0.066 0.517,0.139 0.646,0.215 0.295,0.174 0.49,0.408 0.586,0.703 0.095,0.295 0.035,0.76 -0.181,1.395 L 0,0"
         style="fill:#231f20;fill-opacity:1;fill-rule:nonzero;stroke:none"
         transform="matrix(1.3333333,0,0,-1.3333333,396.20133,457.46)" />
      <path
         id="path34"
         d="m 0,0 -10.804,5.667 3.436,-11.766 z m 1.423,-0.793 -8.322,-6.889 1.371,-4.565 c 0.336,-1.142 0.668,-1.912 1,-2.313 0.262,-0.315 0.654,-0.478 1.176,-0.488 0.312,0.009 0.666,0.107 1.062,0.293 0.397,0.186 0.847,0.488 1.353,0.907 l 0.483,-0.585 -6.745,-5.584 -0.483,0.585 c 0.742,0.882 1.152,1.567 1.227,2.055 0.115,0.911 -0.139,2.431 -0.764,4.558 l -7.059,23.868 0.553,0.458 22.207,-11.648 c 1.785,-0.935 3.1,-1.419 3.941,-1.449 0.447,-0.004 0.893,0.073 1.34,0.231 0.447,0.156 0.881,0.409 1.303,0.758 L 15.55,-1.186 7.097,-8.182 6.615,-7.598 c 0.42,0.349 0.74,0.676 0.958,0.981 0.218,0.304 0.354,0.596 0.409,0.873 0.104,0.495 0.013,0.917 -0.275,1.265 -0.385,0.464 -1.198,1.028 -2.437,1.692 l -3.847,1.994"
         style="fill:#231f20;fill-opacity:1;fill-rule:nonzero;stroke:none"
         transform="matrix(1.3333333,0,0,-1.3333333,433.49733,458.444)" />
      <path
         id="path35"
         d="m 0,0 0.553,0.417 4.141,-6.742 -14.112,-16.265 -0.572,0.498 0.686,0.79 c 0.769,0.887 1.032,1.773 0.785,2.657 -0.143,0.504 -0.813,1.275 -2.01,2.314 l -13.555,11.759 c -1.311,1.138 -2.257,1.706 -2.839,1.703 -0.804,-0.007 -1.551,-0.41 -2.241,-1.205 l -0.685,-0.79 -0.573,0.497 8.25,9.512 0.575,-0.498 c -0.977,-1.125 -1.555,-2 -1.734,-2.623 -0.15,-0.611 -0.141,-1.153 0.029,-1.626 0.207,-0.47 0.925,-1.238 2.154,-2.304 l 13.199,-11.45 c 0.858,-0.744 1.518,-1.172 1.981,-1.284 0.324,-0.065 0.654,-0.008 0.991,0.172 0.336,0.178 1.082,0.934 2.237,2.266 l 1.331,1.534 c 1.425,1.642 2.294,2.878 2.609,3.71 0.313,0.832 0.402,1.773 0.263,2.825 C 1.327,-3.082 0.838,-1.704 0,0"
         style="fill:#231f20;fill-opacity:1;fill-rule:nonzero;stroke:none"
         transform="matrix(1.3333333,0,0,-1.3333333,470.84,425.528)" />
      <path
         id="path36"
         d="m 0,0 -12.058,1.859 7.066,-10.016 z m 1.604,-0.289 -5.64,-9.214 2.778,-3.875 c 0.687,-0.97 1.251,-1.591 1.694,-1.863 0.35,-0.214 0.773,-0.241 1.272,-0.081 0.292,0.11 0.595,0.317 0.909,0.622 0.315,0.305 0.643,0.736 0.986,1.296 l 0.647,-0.395 -4.571,-7.469 -0.648,0.395 c 0.418,1.075 0.583,1.856 0.496,2.342 -0.187,0.899 -0.921,2.255 -2.201,4.065 l -14.415,20.29 0.374,0.612 24.784,-3.819 c 1.994,-0.306 3.393,-0.337 4.199,-0.093 0.423,0.141 0.821,0.359 1.193,0.652 0.372,0.293 0.701,0.673 0.986,1.14 L 15.094,3.919 9.367,-5.438 8.72,-5.043 c 0.285,0.467 0.481,0.879 0.589,1.239 0.107,0.359 0.142,0.678 0.104,0.958 -0.061,0.503 -0.285,0.872 -0.671,1.108 -0.513,0.314 -1.465,0.584 -2.853,0.811 l -4.285,0.638"
         style="fill:#231f20;fill-opacity:1;fill-rule:nonzero;stroke:none"
         transform="matrix(1.3333333,0,0,-1.3333333,483.35867,398.62933)" />
      <path
         id="path37"
         d="m 0,0 -25.648,-2.268 17.502,-6.237 c 1.596,-0.569 2.663,-0.753 3.199,-0.552 0.706,0.271 1.245,0.928 1.617,1.971 l 0.33,0.927 0.715,-0.255 -3.25,-9.117 -0.714,0.254 0.33,0.928 c 0.39,1.094 0.335,1.999 -0.165,2.714 -0.146,0.198 -0.448,0.421 -0.904,0.67 -0.455,0.25 -1.043,0.503 -1.764,0.76 l -17.116,6.1 c -1.172,0.417 -2.056,0.587 -2.65,0.507 -0.437,-0.046 -0.867,-0.267 -1.291,-0.66 -0.423,-0.393 -0.825,-1.125 -1.206,-2.194 l -0.714,0.255 2.641,7.413 23.881,2.194 -17.164,16.657 2.646,7.426 0.715,-0.255 -0.323,-0.907 c -0.399,-1.121 -0.347,-2.032 0.157,-2.734 0.149,-0.198 0.449,-0.421 0.905,-0.671 0.456,-0.249 1.044,-0.502 1.765,-0.759 L 0.609,16.068 c 1.611,-0.574 2.68,-0.751 3.207,-0.534 0.706,0.272 1.245,0.928 1.617,1.972 L 5.756,18.413 6.471,18.159 2.506,7.031 1.791,7.286 2.121,8.214 c 0.395,1.107 0.34,2.013 -0.164,2.715 -0.147,0.197 -0.449,0.421 -0.904,0.67 -0.455,0.25 -1.043,0.503 -1.765,0.76 L -18.215,18.596 0.228,0.638 0,0"
         style="fill:#231f20;fill-opacity:1;fill-rule:nonzero;stroke:none"
         transform="matrix(1.3333333,0,0,-1.3333333,514.804,365.508)" />
      <path
         id="path38"
         d="m 0,0 c -76.08,0 -137.975,-61.895 -137.975,-137.974 0,-76.079 61.895,-137.975 137.975,-137.975 76.079,0 137.973,61.896 137.973,137.975 C 137.973,-61.895 76.079,0 0,0 Z m 0,-281.949 c -79.388,0 -143.975,64.587 -143.975,143.975 C -143.975,-58.587 -79.388,6 0,6 79.387,6 143.973,-58.587 143.973,-137.974 143.973,-217.362 79.387,-281.949 0,-281.949"
         style="fill:#ed1c24;fill-opacity:1;fill-rule:nonzero;stroke:none"
         transform="matrix(1.3333333,0,0,-1.3333333,279.596,95.629333)" />
      <path
         id="path39"
         d="m 0,0 c -112.319,0 -203.697,-91.378 -203.697,-203.696 0,-112.319 91.378,-203.697 203.697,-203.697 112.318,0 203.695,91.378 203.695,203.697 C 203.695,-91.378 112.318,0 0,0 Z m 0,-413.393 c -115.628,0 -209.697,94.07 -209.697,209.697 C -209.697,-88.069 -115.628,6 0,6 115.626,6 209.695,-88.069 209.695,-203.696 209.695,-319.323 115.626,-413.393 0,-413.393"
         style="fill:#ed1c24;fill-opacity:1;fill-rule:nonzero;stroke:none"
         transform="matrix(1.3333333,0,0,-1.3333333,279.596,8)"
         clip-path="url(#clipPath40)" />
      <path
         id="path41"
         d="m 0,0 c 26.333,0 50.515,-9.117 69.589,-24.309 -10.09,3.742 -20.999,5.792 -32.411,5.792 -51.333,0 -92.933,-41.435 -92.933,-92.557 0,-51.119 41.6,-92.564 92.933,-92.564 11.412,0 22.321,2.057 32.411,5.809 C 50.515,-213.024 26.333,-222.136 0,-222.136 c -61.6,0 -111.519,49.725 -111.519,111.062 C -111.519,-49.737 -61.6,0 0,0"
         style="fill:#ed1c24;fill-opacity:1;fill-rule:nonzero;stroke:none"
         transform="matrix(1.3333333,0,0,-1.3333333,283.12533,131.504)" />
    </g>
  </g>
</svg>
