<?xml version="1.0" encoding="UTF-8" standalone="no"?>
<svg
   xmlns:dc="http://purl.org/dc/elements/1.1/"
   xmlns:cc="http://creativecommons.org/ns#"
   xmlns:rdf="http://www.w3.org/1999/02/22-rdf-syntax-ns#"
   xmlns:svg="http://www.w3.org/2000/svg"
   xmlns="http://www.w3.org/2000/svg"
   viewBox="0 0 441.69333 465.98666"
   height="465.98666"
   width="441.69333"
   xml:space="preserve"
   id="svg2"
   version="1.1"><metadata
     id="metadata8"><rdf:RDF><cc:Work
         rdf:about=""><dc:format>image/svg+xml</dc:format><dc:type
           rdf:resource="http://purl.org/dc/dcmitype/StillImage" /><dc:title></dc:title></cc:Work></rdf:RDF></metadata><defs
     id="defs6" /><g
     transform="matrix(1.3333333,0,0,-1.3333333,0,465.98667)"
     id="g10"><g
       transform="scale(0.1)"
       id="g12"><path
         id="path14"
         style="fill:#ed192d;fill-opacity:1;fill-rule:nonzero;stroke:none"
         d="M 1390.13,1477.18 H 725.758 v 569.39 h 664.372 l -0.05,0.39 v 664.35 h 569.46 v -664.35 l -0.06,-0.26 h 664.4 v -569.45 h -664.4 l 0.06,0.1 V 812.98 h -569.46 v 664.37 l 0.05,-0.17" /><path
         id="path16"
         style="fill:#100f0d;fill-opacity:1;fill-rule:nonzero;stroke:none"
         d="m 237.496,2481.43 c -33.555,9.57 -61.094,-7.66 -76.203,-41.91 -23.262,-52.69 14.375,-93.44 60.93,-113.97 46.543,-20.54 102,-20.88 125.254,31.81 16.863,38.21 4.589,69.85 -30.059,88.81 l 36.043,81.68 c 78.859,-40.05 100.129,-120.25 65.059,-199.74 -41.856,-94.85 -141.446,-124.36 -232.344,-84.23 -90.8987,40.09 -136.2307,133.55 -94.3635,228.4 29.8325,67.63 105.2225,121.97 181.7265,90.83 l -36.043,-81.68" /><path
         id="path18"
         style="fill:#100f0d;fill-opacity:1;fill-rule:nonzero;stroke:none"
         d="M 407.301,2705.49 454.02,2764 c 16.777,21 14.5,41.24 -5.743,57.41 -19.875,15.87 -41.457,7.3 -57.031,-12.19 l -44.328,-55.51 z m -171.965,23.09 109.016,136.51 c 37.734,47.25 96.25,76.69 150.242,33.56 28.886,-23.06 45.176,-58.8 33.594,-95.6 l 0.742,-0.62 c 29.511,23.12 67.98,5.91 95.285,-12.2 11.844,-8.24 52.117,-38.55 69.363,-36.96 l -55.105,-69.01 c -13.801,1.19 -40.938,21.03 -49.043,26.27 -28.496,19.69 -59.836,37.34 -85.891,4.72 l -42.234,-52.88 97.508,-77.86 -55.704,-69.76 -267.773,213.83" /><path
         id="path20"
         style="fill:#100f0d;fill-opacity:1;fill-rule:nonzero;stroke:none"
         d="m 809.234,2931.09 c 46.309,34.25 33.809,88.29 3.555,129.19 -30.254,40.91 -78.254,68.69 -124.562,34.43 -46.317,-34.24 -33.817,-88.28 -3.563,-129.18 30.254,-40.9 78.25,-68.69 124.57,-34.44 z m -166.679,225.38 c 86.836,64.21 182.937,36.78 242.011,-43.1 59.082,-79.89 57.157,-179.82 -29.668,-244.03 -86.835,-64.21 -182.941,-36.79 -242.023,43.11 -59.07,79.87 -57.148,179.8 29.68,244.02" /><path
         id="path22"
         style="fill:#100f0d;fill-opacity:1;fill-rule:nonzero;stroke:none"
         d="m 885.953,3299.73 80.457,38.7 148.58,-308.85 -80.45,-38.7 -148.587,308.85" /><path
         id="path24"
         style="fill:#100f0d;fill-opacity:1;fill-rule:nonzero;stroke:none"
         d="m 1206.13,3256.14 -151.49,126.65 101.26,28.27 84.13,-87.15 30.06,119.03 98.01,27.36 -63.04,-186.54 164.91,-140.85 -104.48,-29.16 -92.67,92.73 -36.78,-128.88 -98.95,-27.62 69.04,206.16" /><path
         id="path26"
         style="fill:#100f0d;fill-opacity:1;fill-rule:nonzero;stroke:none"
         d="m 1483.64,3232.84 -5.47,68.91 148.82,11.8 5.47,-68.9 -148.82,-11.81" /><path
         id="path28"
         style="fill:#100f0d;fill-opacity:1;fill-rule:nonzero;stroke:none"
         d="m 1805.93,3336.65 74.37,-8.8 c 26.7,-3.16 42.69,9.44 45.75,35.19 2.99,25.27 -15.68,39.08 -40.47,42.02 l -70.56,8.35 z m -71.17,158.29 173.53,-20.55 c 60.06,-7.12 115.97,-41.28 107.84,-109.93 -4.35,-36.71 -26.11,-69.42 -63.5,-79.01 l -0.11,-0.95 c 35.21,-12.87 40.9,-54.64 39.93,-87.39 -0.75,-14.42 -5.24,-64.65 5.21,-78.46 l -87.71,10.39 c -6.28,12.35 -3.75,45.89 -3.59,55.53 1.69,34.61 0.14,70.57 -41.34,75.47 l -67.2,7.97 -14.69,-123.96 -88.67,10.5 40.3,340.39" /><path
         id="path30"
         style="fill:#100f0d;fill-opacity:1;fill-rule:nonzero;stroke:none"
         d="m 2209.86,3114.71 c 53.58,-21.13 92.78,18.11 111.45,65.45 18.67,47.33 16.8,102.77 -36.79,123.89 -53.59,21.13 -92.8,-18.1 -111.46,-65.44 -18.66,-47.33 -16.79,-102.76 36.8,-123.9 z m 102.83,260.8 c 100.47,-39.62 128.13,-135.67 91.68,-228.1 -36.45,-92.44 -122.21,-143.75 -222.69,-104.14 -100.46,39.62 -128.12,135.66 -91.68,228.1 36.45,92.43 122.22,143.75 222.69,104.14" /><path
         id="path32"
         style="fill:#100f0d;fill-opacity:1;fill-rule:nonzero;stroke:none"
         d="m 2705.94,2898.11 c -59.3,-79.71 -125.4,-92.15 -208.56,-30.26 -83.17,61.88 -90.23,128.76 -30.93,208.47 l 120.05,161.32 71.61,-53.29 -123.2,-165.56 c -26.35,-35.41 -26.72,-63.25 8.31,-89.34 35.04,-26.07 61.59,-17.7 87.96,17.71 l 123.2,165.56 71.6,-53.29 -120.04,-161.32" /><path
         id="path34"
         style="fill:#100f0d;fill-opacity:1;fill-rule:nonzero;stroke:none"
         d="m 2861.61,2493.95 -35.65,45.25 26.14,27.32 c -40.57,-2.02 -74.58,22.53 -94.18,47.42 -64.17,81.44 -43.54,183.25 34.53,244.74 78.06,61.5 181.86,57.72 246.03,-23.74 43.97,-55.8 61.12,-138.86 -1.35,-198.43 l -55.25,70.14 c 21.22,20.37 17.36,53.99 -4.92,82.28 -35.66,45.24 -89.29,31.11 -129.26,-0.39 -39.97,-31.48 -66.28,-80.31 -30.63,-125.56 27.33,-34.7 61.96,-45.3 89.44,-29.77 l -38.62,49.02 52.05,41 89.11,-113.13 -147.44,-116.15" /><path
         id="path36"
         style="fill:#100f0d;fill-opacity:1;fill-rule:nonzero;stroke:none"
         d="m 3202.52,2580.16 110.14,-249.94 -65.45,-28.84 -74.13,168.24 -54.91,-24.2 67.74,-153.74 -63.25,-27.87 -67.75,153.74 -59.75,-26.33 76.08,-172.64 -70.29,-30.96 -112.07,254.34 313.64,138.2" /><path
         id="path38"
         style="fill:#100f0d;fill-opacity:1;fill-rule:nonzero;stroke:none"
         d="m 108.906,1073.66 19.145,-37.64 c 31.961,-59.668 67.672,-71.668 128.851,-40.559 55.618,28.289 67.336,71.939 39.715,126.259 l -19.14,37.66 z m 196.559,200.09 66.781,-131.34 C 419.883,1048.73 391.484,963.75 296.934,915.672 196.824,864.77 113.992,894.25 66.7813,987.102 L 0,1118.44 305.465,1273.75" /><path
         id="path40"
         style="fill:#100f0d;fill-opacity:1;fill-rule:nonzero;stroke:none"
         d="m 552.527,569.422 c -73.019,-67.383 -140.269,-67.402 -210.586,8.789 -70.308,76.199 -64.89,143.238 8.125,210.629 l 147.805,136.379 60.547,-65.61 -151.691,-139.961 c -32.45,-29.949 -37.965,-57.25 -8.348,-89.347 29.629,-32.11 57.273,-28.801 89.726,1.148 L 639.789,771.41 700.332,705.801 552.527,569.422" /><path
         id="path42"
         style="fill:#100f0d;fill-opacity:1;fill-rule:nonzero;stroke:none"
         d="m 973.316,371.039 63.124,-28.148 c 14.03,-6.262 36.65,-7.411 46.63,14.941 10.16,22.797 -2.73,37.477 -19.84,45.117 l -63.12,28.153 z m -55.535,-124.508 65.324,-29.14 c 25.865,-11.52 47.945,-10.34 59.485,15.531 12.32,27.629 -2.86,45.418 -27.41,56.367 l -65.328,29.152 z m 28.946,284.071 146.423,-65.301 c 54.32,-23.18 107.24,-63.61 78.1,-128.93 -12.51,-28.062 -39.34,-43.422 -69.37,-44.75 29.03,-24.512 36.72,-62.641 20.88,-98.141 -33.24,-74.539 -98.21,-72.89 -165.28,-42.968 L 807.109,217.59 946.727,530.602" /><path
         id="path44"
         style="fill:#100f0d;fill-opacity:1;fill-rule:nonzero;stroke:none"
         d="M 1564.54,142.191 C 1549.52,43.9688 1496.99,2 1394.5,17.6602 1292.01,33.3203 1254.4,89.082 1269.41,187.301 l 30.38,198.801 88.26,-13.481 -31.17,-204.039 c -6.68,-43.641 6.04,-68.41 49.22,-75.0117 43.18,-6.6015 62.72,13.2387 69.39,56.8907 l 31.18,204.019 88.25,-13.492 -30.38,-198.797" /><path
         id="path46"
         style="fill:#100f0d;fill-opacity:1;fill-rule:nonzero;stroke:none"
         d="m 1798.05,203.059 74.38,8.75 c 26.7,3.152 39.31,19.14 36.29,44.882 -2.99,25.27 -24.36,34.348 -49.15,31.418 l -70.56,-8.308 z m -106.07,137.339 173.53,20.442 c 60.06,7.082 122.38,-13.141 130.47,-81.789 4.33,-36.711 -9.22,-73.582 -43.34,-91.629 l 0.12,-0.953 c 37.24,-4.309 52.5,-43.598 59.18,-75.688 2.63,-14.1794 9.97,-64.0701 23.34,-75.0622 l -87.72,-10.3399 c -8.98,10.5625 -14.33,43.75 -16.4,53.1719 -6.45,34.0512 -16.31,68.6602 -57.8,63.7692 L 1806.14,134.398 1820.75,10.4492 1732.07,0 1691.98,340.398" /><path
         id="path48"
         style="fill:#100f0d;fill-opacity:1;fill-rule:nonzero;stroke:none"
         d="m 2421.45,321.199 c 37.01,-92.219 13.12,-155.09 -83.07,-193.711 -96.19,-38.6286 -156.93,-9.726 -193.94,82.492 l -74.94,186.668 82.83,33.262 76.91,-191.57 c 16.45,-40.988 40,-55.852 80.53,-39.578 40.53,16.269 47.27,43.297 30.81,84.297 l -76.9,191.55 82.83,33.262 74.94,-186.672" /><path
         id="path50"
         style="fill:#100f0d;fill-opacity:1;fill-rule:nonzero;stroke:none"
         d="m 2429.69,555.379 72.78,55.781 222.98,-95.25 0.77,0.602 -128.5,167.66 66.69,51.09 208.51,-272.063 -72.79,-55.769 -224.44,97.14 -0.76,-0.601 129.94,-169.559 -66.68,-51.09 -208.5,272.059" /><path
         id="path52"
         style="fill:#100f0d;fill-opacity:1;fill-rule:nonzero;stroke:none"
         d="m 2999.79,716.039 25.39,33.75 c 39.5,54.961 34.55,92.313 -20.31,133.551 -49.87,37.48 -94.22,28.801 -130.85,-19.918 l -25.38,-33.762 z m -266.17,88.391 88.53,117.789 c 63.17,84.021 151.96,95.911 236.74,32.172 89.77,-67.461 99.76,-154.832 37.19,-238.071 L 3007.54,598.539 2733.62,804.43" /><path
         id="path54"
         style="fill:#100f0d;fill-opacity:1;fill-rule:nonzero;stroke:none"
         d="m 2960.9,1143.35 37.84,80.86 310.4,-145.17 -37.83,-80.868 -310.41,145.178" /></g></g></svg>