<?xml version="1.0" encoding="UTF-8" standalone="no"?>
<svg
   xmlns:dc="http://purl.org/dc/elements/1.1/"
   xmlns:cc="http://creativecommons.org/ns#"
   xmlns:rdf="http://www.w3.org/1999/02/22-rdf-syntax-ns#"
   xmlns:svg="http://www.w3.org/2000/svg"
   xmlns="http://www.w3.org/2000/svg"
   width="354.05673"
   height="89.322182"
   viewBox="0 0 93.677503 23.633162"
   version="1.1"
   id="svg8">
  <path
     id="path5731"
     d="M 23.29469,8.0930709 H 15.618676 V 0.13229158 H 7.800702 V 8.0930709 H 0.13229195 V 15.82232 H 7.800702 v 7.678548 h 7.817974 V 15.82232 h 7.676014 z m 0,0"
     style="fill:#eb2626;fill-opacity:1;fill-rule:nonzero;stroke:none;stroke-width:0.216321" />
  <path
     id="path920"
     style="fill:#1e1e1e;fill-opacity:1;stroke:none;stroke-width:0.216321"
     d="m 70.754697,12.960022 h 1.500726 l 1.936749,6.776929 h -1.524387 l -0.338001,-1.399326 h -1.906328 l -0.331242,1.399326 H 68.719928 Z M 72.045863,17.1749 71.36648,14.410048 70.707377,17.1749 Z m 0,0 m -8.028749,-4.214878 h 2.132789 c 0.412362,0 0.728393,0.01943 0.949784,0.05746 0.220546,0.03887 0.442782,0.141115 0.665863,0.307581 0.224771,0.167311 0.400532,0.395462 0.527282,0.686143 0.128441,0.288991 0.192661,0.613473 0.192661,0.973444 0,0.847539 -0.317721,1.443267 -0.953164,1.788028 l 1.247225,2.964273 H 67.157147 L 66.251303,17.056599 H 65.5077 v 2.680352 h -1.490586 z m 1.490586,1.098504 v 1.899569 h 0.655723 c 0.581363,0 0.872044,-0.325327 0.872044,-0.976825 0,-0.224771 -0.04309,-0.409826 -0.128441,-0.554322 -0.08619,-0.143651 -0.1859,-0.240826 -0.300821,-0.290681 -0.11323,-0.05155 -0.280541,-0.07774 -0.503622,-0.07774 z m 0,0 m -4.256033,-1.098504 h 1.490586 v 6.776929 h -1.490586 z m 0,0 m -4.8497,0 h 4.123618 v 1.162725 h -2.633032 v 1.571706 h 2.044909 v 1.169486 h -2.044909 v 1.662967 h 2.633032 v 1.210045 h -4.123618 z m 0,0 m -4.331179,0 h 1.490586 v 5.506043 h 2.18349 v 1.270886 h -3.674076 z m 0,0 m -2.765446,0 h 1.490586 v 6.776929 h -1.490586 z m 0,0 m -1.048102,1.473686 -1.230326,0.473202 c -0.17576,-0.558547 -0.496862,-0.838244 -0.963304,-0.838244 -0.218856,0 -0.392081,0.06253 -0.520522,0.185901 -0.12675,0.124216 -0.189281,0.268711 -0.189281,0.432642 0,0.191816 0.07436,0.344762 0.223081,0.459682 0.150411,0.114921 0.466442,0.265331 0.946404,0.449542 0.436867,0.162241 0.780784,0.323636 1.030905,0.483342 0.250121,0.158016 0.451232,0.373492 0.605022,0.645583 0.155481,0.272936 0.233221,0.589812 0.233221,0.949784 0,0.633753 -0.218856,1.152585 -0.655722,1.558187 -0.435177,0.405602 -1.017385,0.608402 -1.747468,0.608402 -1.228635,0 -2.013644,-0.620232 -2.35587,-1.862388 l 1.301305,-0.371801 c 0.159706,0.681073 0.522213,1.020764 1.088365,1.020764 0.258571,0 0.468132,-0.06591 0.628683,-0.199421 0.159705,-0.1352 0.239981,-0.310961 0.239981,-0.527282 0,-0.166466 -0.05662,-0.315186 -0.169001,-0.446162 -0.11323,-0.130131 -0.370957,-0.268711 -0.774023,-0.415742 -0.520522,-0.184211 -0.908379,-0.351521 -1.162725,-0.500242 -0.255191,-0.150411 -0.465597,-0.365886 -0.632063,-0.645583 -0.164776,-0.281386 -0.246741,-0.599952 -0.246741,-0.956544 0,-0.610093 0.196041,-1.10949 0.588122,-1.497346 0.392082,-0.389547 0.910915,-0.584743 1.558187,-0.584743 1.177935,0 1.913089,0.526437 2.20377,1.578467 z m 0,0 m -8.146132,-1.473686 h 1.500726 l 1.936749,6.776929 h -1.524387 l -0.338001,-1.399326 h -1.906328 l -0.331242,1.399326 H 38.076339 Z M 41.402274,17.1749 40.722891,14.410048 40.063788,17.1749 Z m 0,0 m -8.028753,-4.214878 h 2.132789 c 0.412362,0 0.728393,0.01943 0.949784,0.05746 0.220546,0.03887 0.442782,0.141115 0.665863,0.307581 0.224771,0.167311 0.400532,0.395462 0.527282,0.686143 0.128441,0.288991 0.192661,0.613473 0.192661,0.973444 0,0.847539 -0.317721,1.443267 -0.953164,1.788028 l 1.247225,2.964273 H 36.513554 L 35.60771,17.056599 h -0.743603 v 2.680352 h -1.490586 z m 1.490586,1.098504 v 1.899569 h 0.655723 c 0.581363,0 0.872044,-0.325327 0.872044,-0.976825 0,-0.224771 -0.0431,-0.409826 -0.128441,-0.554322 -0.08619,-0.143651 -0.1859,-0.240826 -0.300821,-0.290681 -0.11323,-0.05155 -0.280541,-0.07774 -0.503622,-0.07774 z m 0,0 m -7.204488,-1.098504 h 2.31531 c 0.542492,0 0.951474,0.04394 1.226945,0.13182 0.277161,0.08619 0.508692,0.273781 0.696283,0.564463 0.186746,0.290681 0.280541,0.652342 0.280541,1.084984 0,0.759659 -0.322791,1.246381 -0.966684,1.460167 0.765574,0.272936 1.149205,0.827258 1.149205,1.662967 0,0.441937 -0.10478,0.813738 -0.314341,1.115405 -0.207871,0.302511 -0.464752,0.503622 -0.770644,0.605022 -0.304201,0.101401 -0.738533,0.152101 -1.301305,0.152101 h -2.31531 z m 1.429746,2.734431 h 0.483342 c 0.479962,0 0.781628,-0.08534 0.905844,-0.256881 0.123371,-0.170691 0.185901,-0.368421 0.185901,-0.591502 0,-0.204491 -0.06253,-0.387012 -0.185901,-0.547563 -0.124216,-0.159705 -0.390392,-0.239981 -0.797683,-0.239981 h -0.591503 z m 0,2.876393 h 0.730083 c 0.684453,0 1.027525,-0.294906 1.027525,-0.885564 0,-0.326171 -0.08619,-0.556012 -0.256881,-0.689523 -0.169001,-0.1352 -0.425882,-0.202801 -0.770644,-0.202801 h -0.730083 z m 0,0 M 90.107744,4.3071846 h 1.500726 l 1.936749,6.7769294 H 92.020832 L 91.682831,9.6847879 h -1.906328 l -0.331242,1.3993261 h -1.372286 z m 1.291166,4.2148783 -0.679383,-2.764852 -0.659103,2.764852 z m 0,0 M 83.024474,4.3071846 h 1.490586 v 2.7344318 h 1.629167 V 4.3071846 h 1.487207 V 11.084114 H 86.144227 V 8.312502 H 84.51506 v 2.771612 h -1.490586 z m 0,0 m -4.331178,0 h 1.490586 v 5.5060439 h 2.18349 v 1.2708855 h -3.674076 z m 0,0 m -4.849701,0 h 4.123618 v 1.162725 h -2.633032 v 1.5717068 h 2.044909 v 1.1694851 h -2.044909 v 1.6629672 h 2.633032 v 1.2100453 h -4.123618 z m 0,0 m -7.625313,0 h 2.186869 l 0.956544,4.1844581 1.078225,-4.1844581 h 2.119269 V 11.084114 H 71.163243 V 5.4090693 L 69.780817,11.084114 H 68.695833 L 67.431707,5.4090693 v 5.6750447 h -1.213425 z m 0,0 m -5.541059,0 h 2.132789 c 0.412362,0 0.728393,0.019434 0.949784,0.05746 0.220546,0.03887 0.442782,0.1411157 0.665863,0.3075813 0.224771,0.1673107 0.400532,0.3954618 0.527282,0.686143 0.128441,0.2889912 0.192661,0.6134726 0.192661,0.9734442 0,0.8475388 -0.317721,1.4432663 -0.953164,1.7880278 l 1.247225,2.9642731 H 63.817256 L 62.911412,8.4037624 h -0.743603 v 2.6803516 h -1.490586 z m 1.490586,1.0985047 v 1.8995683 h 0.655723 c 0.581363,0 0.872044,-0.3253264 0.872044,-0.9768243 0,-0.2247711 -0.0431,-0.4098267 -0.128441,-0.5543224 -0.08619,-0.1436507 -0.1859,-0.240826 -0.300821,-0.2906812 -0.11323,-0.051545 -0.280541,-0.07774 -0.503622,-0.07774 z m 0,0 M 55.827523,4.3071846 h 4.123618 v 1.162725 h -2.633032 v 1.5717068 h 2.044909 v 1.1694851 h -2.044909 v 1.6629672 h 2.633032 v 1.2100453 h -4.123618 z m 0,0 m -5.454262,0 h 1.564947 l 1.041045,5.1646624 1.078224,-5.1646624 h 1.274266 l -1.662967,6.8107294 -1.666348,-0.0338 z m 0,0 m -6.219821,0 h 4.353459 v 1.0579445 l -2.835832,4.5089396 h 2.923712 v 1.2100453 h -4.6509 V 10.046449 L 46.796611,5.5206098 H 44.15344 Z m 0,0 m -5.467622,0 h 1.490586 v 3.8734968 c 0,0.5458722 0.02451,0.926124 0.07436,1.1424449 0.04901,0.2146309 0.152945,0.3768716 0.310961,0.4867222 0.157171,0.1106955 0.349832,0.1656207 0.577982,0.1656207 0.247586,0 0.443627,-0.06084 0.588123,-0.1825208 0.146186,-0.1216805 0.236601,-0.2822313 0.270401,-0.4833421 0.0338,-0.2028009 0.0507,-0.5788275 0.0507,-1.1289249 V 4.3071846 h 1.243846 v 3.8126565 c 0,0.7621932 -0.04394,1.3300357 -0.131821,1.7035274 -0.08619,0.3743365 -0.309271,0.6954385 -0.669243,0.9633045 -0.358281,0.268711 -0.851763,0.402221 -1.480446,0.402221 -0.590658,0 -1.054565,-0.09802 -1.392566,-0.294061 C 39.28239,10.697102 39.042409,10.419941 38.898759,10.06335 38.756798,9.7076031 38.685818,9.0797653 38.685818,8.1806814 Z m 0,0 m -5.48514,0 h 2.132789 c 0.412362,0 0.728393,0.019434 0.949784,0.05746 0.220546,0.03887 0.442782,0.1411157 0.665863,0.3075813 0.224771,0.1673107 0.400532,0.3954618 0.527282,0.686143 0.128441,0.2889912 0.192661,0.6134726 0.192661,0.9734442 0,0.8475388 -0.317721,1.4432663 -0.953164,1.7880278 l 1.247225,2.9642731 H 36.340711 L 35.434867,8.4037624 h -0.743603 v 2.6803516 h -1.490586 z m 1.490586,1.0985047 v 1.8995683 h 0.655723 c 0.581363,0 0.872044,-0.3253264 0.872044,-0.9768243 0,-0.2247711 -0.0431,-0.4098267 -0.128441,-0.5543224 -0.08619,-0.1436507 -0.1859,-0.240826 -0.300821,-0.2906812 -0.11323,-0.051545 -0.280541,-0.07774 -0.503622,-0.07774 z m 0,0 m -3.732751,3.211014 1.375666,0.0845 c -0.04986,0.7351531 -0.283921,1.3334157 -0.703043,1.7947877 -0.417432,0.462218 -0.968374,0.692903 -1.652827,0.692903 -0.834019,0 -1.469462,-0.308426 -1.906328,-0.926124 -0.435177,-0.6193875 -0.652343,-1.4719964 -0.652343,-2.558671 0,-1.0951247 0.216321,-1.9519586 0.648963,-2.5721912 0.432641,-0.6193876 1.075689,-0.929504 1.929988,-0.929504 1.412846,0 2.1818,0.8745789 2.30855,2.6228914 l -1.358766,0.09802 c -0.03634,-1.0047093 -0.350677,-1.5074865 -0.943024,-1.5074865 -0.310961,0 -0.559392,0.1622407 -0.743603,0.4867221 -0.182521,0.3244814 -0.273781,0.9531641 -0.273781,1.8860482 0,0.8340187 0.08281,1.407776 0.250121,1.7204275 0.169,0.3109613 0.422501,0.466442 0.760503,0.466442 0.542492,0 0.862749,-0.452922 0.959924,-1.3587652 z m 0,0" />
  <metadata
     id="metadata947">
    <rdf:RDF>
      <cc:Work
         rdf:about="">
        <dc:title></dc:title>
      </cc:Work>
    </rdf:RDF>
  </metadata>
</svg>
