<?xml version="1.0" encoding="UTF-8" standalone="no"?>
<!-- Created with Inkscape (http://www.inkscape.org/) -->

<svg
   width="84.288834mm"
   height="112.26497mm"
   viewBox="0 0 84.288834 112.26497"
   version="1.1"
   id="svg1"
   xmlns:inkscape="http://www.inkscape.org/namespaces/inkscape"
   xmlns:sodipodi="http://sodipodi.sourceforge.net/DTD/sodipodi-0.dtd"
   xmlns="http://www.w3.org/2000/svg"
   xmlns:svg="http://www.w3.org/2000/svg">
  <sodipodi:namedview
     id="namedview1"
     pagecolor="#ffffff"
     bordercolor="#666666"
     borderopacity="1.0"
     inkscape:showpageshadow="2"
     inkscape:pageopacity="0.0"
     inkscape:pagecheckerboard="0"
     inkscape:deskcolor="#d1d1d1"
     inkscape:document-units="mm" />
  <defs
     id="defs1" />
  <g
     inkscape:label="Layer 1"
     inkscape:groupmode="layer"
     id="layer1"
     transform="translate(-94.985446,-49.925325)">
    <g
       id="g224"
       transform="matrix(1.089923,0,0,1.089923,-637.10973,18.303316)">
      <path
         id="path224"
         d="M 0,0 H 58.001 V -77.252 H 0 Z"
         style="fill:#ffffff;fill-opacity:1;fill-rule:nonzero;stroke:none"
         transform="matrix(1.3333333,0,0,-1.3333333,671.6944,29.013067)" />
      <g
         id="g225">
        <g
           id="g226">
          <path
             id="path226"
             d="M 0,0 V -14.356 H -14.474 V -28.515 H 0 v -14.462 h 14.449 v 14.268 h 14.472 v 14.353 H 14.449 V 0 Z"
             style="fill:#e12d28;fill-opacity:1;fill-rule:evenodd;stroke:none"
             transform="matrix(1.3333333,0,0,-1.3333333,700.91507,38.897467)" />
        </g>
        <g
           id="g227">
          <path
             id="path227"
             d="M 0,0 1.062,-0.33 C 0.899,-0.927 0.626,-1.373 0.246,-1.665 -0.135,-1.956 -0.619,-2.1 -1.205,-2.1 c -0.724,0 -1.32,0.248 -1.786,0.742 -0.467,0.495 -0.701,1.171 -0.701,2.03 0,0.907 0.235,1.611 0.704,2.115 0.47,0.501 1.087,0.753 1.852,0.753 0.667,0 1.209,-0.196 1.627,-0.587 C 0.74,2.723 0.926,2.391 1.049,1.959 L -0.038,1.693 c -0.064,0.282 -0.199,0.504 -0.405,0.667 -0.203,0.161 -0.453,0.243 -0.746,0.243 -0.406,0 -0.735,-0.146 -0.986,-0.436 -0.252,-0.29 -0.378,-0.763 -0.378,-1.415 0,-0.689 0.124,-1.183 0.373,-1.477 0.248,-0.293 0.571,-0.439 0.969,-0.439 0.293,0 0.545,0.094 0.756,0.28 C -0.242,-0.697 -0.091,-0.401 0,0 Z"
             style="fill:#231f20;fill-opacity:1;fill-rule:nonzero;stroke:none"
             transform="matrix(1.3333333,0,0,-1.3333333,686.54987,109.38933)" />
          <path
             id="path228"
             d="M 0,0 V 5.448 H 2.313 C 2.895,5.448 3.317,5.401 3.581,5.303 3.844,5.205 4.056,5.03 4.214,4.781 4.372,4.529 4.45,4.244 4.45,3.922 4.45,3.514 4.332,3.177 4.092,2.908 3.853,2.642 3.496,2.474 3.02,2.406 3.256,2.267 3.452,2.115 3.607,1.948 3.76,1.783 3.968,1.487 4.229,1.063 L 4.894,0 H 3.579 L 2.791,1.189 C 2.509,1.612 2.314,1.878 2.209,1.988 2.105,2.098 1.995,2.174 1.878,2.215 1.762,2.254 1.577,2.276 1.324,2.276 H 1.101 V 0 Z m 1.101,3.146 h 0.81 c 0.525,0 0.853,0.024 0.984,0.068 0.131,0.045 0.234,0.121 0.307,0.23 0.074,0.11 0.111,0.246 0.111,0.406 0,0.186 -0.05,0.332 -0.146,0.444 C 3.069,4.408 2.931,4.477 2.754,4.508 2.666,4.519 2.4,4.526 1.955,4.526 H 1.101 Z"
             style="fill:#231f20;fill-opacity:1;fill-rule:nonzero;stroke:none"
             transform="matrix(1.3333333,0,0,-1.3333333,689.12693,112.07027)" />
          <path
             id="path229"
             d="m 0,0 h 1.1 v -2.959 c 0,-0.469 0.013,-0.775 0.04,-0.913 0.047,-0.224 0.158,-0.403 0.336,-0.539 0.176,-0.134 0.418,-0.203 0.724,-0.203 0.31,0 0.546,0.063 0.703,0.191 0.158,0.13 0.253,0.286 0.285,0.473 0.033,0.186 0.048,0.497 0.048,0.927 V 0 h 1.1 V -2.866 C 4.336,-3.521 4.307,-3.983 4.248,-4.255 4.188,-4.524 4.078,-4.753 3.919,-4.94 3.76,-5.124 3.547,-5.273 3.279,-5.385 3.012,-5.494 2.663,-5.55 2.233,-5.55 1.714,-5.55 1.32,-5.49 1.051,-5.369 0.783,-5.249 0.571,-5.092 0.415,-4.9 0.259,-4.707 0.157,-4.506 0.108,-4.295 0.036,-3.982 0,-3.521 0,-2.91 Z"
             style="fill:#231f20;fill-opacity:1;fill-rule:nonzero;stroke:none"
             transform="matrix(1.3333333,0,0,-1.3333333,696.21067,104.80627)" />
          <path
             id="path230"
             d="M 0,0 V 0.987 L 2.884,4.526 H 0.328 V 5.448 H 4.323 V 4.59 L 1.336,0.922 H 4.425 V 0 Z"
             style="fill:#231f20;fill-opacity:1;fill-rule:nonzero;stroke:none"
             transform="matrix(1.3333333,0,0,-1.3333333,702.89747,112.07027)" />
          <path
             id="path231"
             d="M 0,0 V 5.448 H 2.314 C 2.894,5.448 3.317,5.401 3.58,5.303 3.844,5.205 4.055,5.03 4.213,4.781 4.371,4.529 4.451,4.244 4.451,3.922 4.451,3.514 4.332,3.177 4.093,2.908 3.854,2.642 3.496,2.474 3.02,2.406 3.257,2.267 3.451,2.115 3.605,1.948 3.759,1.783 3.967,1.487 4.229,1.063 L 4.893,0 H 3.579 L 2.791,1.189 C 2.508,1.612 2.315,1.878 2.21,1.988 2.107,2.098 1.995,2.174 1.879,2.215 1.761,2.254 1.576,2.276 1.324,2.276 H 1.101 V 0 Z m 1.101,3.146 h 0.81 c 0.525,0 0.853,0.024 0.983,0.068 0.132,0.045 0.234,0.121 0.307,0.23 0.074,0.11 0.113,0.246 0.113,0.406 0,0.186 -0.051,0.332 -0.147,0.444 C 3.069,4.408 2.932,4.477 2.754,4.508 2.666,4.519 2.398,4.526 1.956,4.526 H 1.101 Z"
             style="fill:#231f20;fill-opacity:1;fill-rule:nonzero;stroke:none"
             transform="matrix(1.3333333,0,0,-1.3333333,712.55467,112.07027)" />
          <path
             id="path232"
             d="M 0,0 C 0,0.556 0.083,1.023 0.249,1.401 0.372,1.68 0.543,1.93 0.755,2.151 0.97,2.373 1.205,2.536 1.46,2.643 1.8,2.788 2.191,2.86 2.635,2.86 3.438,2.86 4.079,2.609 4.563,2.11 5.043,1.61 5.284,0.917 5.284,0.026 5.284,-0.855 5.045,-1.547 4.567,-2.045 4.09,-2.545 3.45,-2.793 2.65,-2.793 1.838,-2.793 1.195,-2.545 0.718,-2.049 0.24,-1.552 0,-0.871 0,0 Z m 1.138,0.037 c 0,-0.622 0.142,-1.092 0.427,-1.412 0.284,-0.321 0.646,-0.482 1.083,-0.482 0.437,0 0.797,0.159 1.078,0.478 0.28,0.318 0.421,0.794 0.421,1.432 0,0.629 -0.136,1.097 -0.41,1.406 C 3.463,1.77 3.1,1.923 2.648,1.923 2.195,1.923 1.831,1.768 1.552,1.454 1.276,1.141 1.138,0.668 1.138,0.037 Z"
             style="fill:#231f20;fill-opacity:1;fill-rule:nonzero;stroke:none"
             transform="matrix(1.3333333,0,0,-1.3333333,719.25387,108.48307)" />
          <path
             id="path233"
             d="m 0,0 h 1.101 v -3.453 c 0,-0.453 -0.041,-0.8 -0.12,-1.044 C 0.876,-4.814 0.681,-5.068 0.4,-5.26 0.12,-5.453 -0.25,-5.55 -0.708,-5.55 c -0.538,0 -0.953,0.152 -1.243,0.456 -0.29,0.305 -0.435,0.75 -0.438,1.34 l 1.049,0.101 c 0.012,-0.314 0.058,-0.536 0.136,-0.665 0.117,-0.197 0.296,-0.296 0.537,-0.296 0.243,0 0.417,0.069 0.517,0.211 0.1,0.14 0.15,0.43 0.15,0.873 z"
             style="fill:#231f20;fill-opacity:1;fill-rule:nonzero;stroke:none"
             transform="matrix(1.3333333,0,0,-1.3333333,730.06253,104.80627)" />
          <path
             id="path234"
             d="M 0,0 H -1.183 L -1.656,1.237 H -3.835 L -4.283,0 h -1.179 l 2.103,5.448 h 1.158 z M -2.009,2.163 -2.776,4.172 -3.501,2.163 Z"
             style="fill:#231f20;fill-opacity:1;fill-rule:nonzero;stroke:none"
             transform="matrix(1.3333333,0,0,-1.3333333,739.44493,112.07027)" />
          <path
             id="path235"
             d="M 0,0 V 5.45 H 1.65 L 2.636,1.733 3.595,5.45 H 5.26 V 0 H 4.236 L 4.229,4.292 3.16,0 H 2.103 L 1.03,4.292 1.025,0 Z"
             style="fill:#231f20;fill-opacity:1;fill-rule:nonzero;stroke:none"
             transform="matrix(1.3333333,0,0,-1.3333333,681.6836,122.3216)" />
          <path
             id="path236"
             d="M 0,0 V 5.45 H 4.046 V 4.527 H 1.1 V 3.325 H 3.844 V 2.404 H 1.1 V 0.924 H 4.148 V 0 Z"
             style="fill:#231f20;fill-opacity:1;fill-rule:nonzero;stroke:none"
             transform="matrix(1.3333333,0,0,-1.3333333,690.822,122.3216)" />
          <path
             id="path237"
             d="M 0,0 1.887,2.844 0.177,5.45 H 1.462 L 2.539,3.826 3.617,5.45 H 4.906 L 3.189,2.843 5.071,0 H 3.753 L 2.538,1.853 1.32,0 Z"
             style="fill:#231f20;fill-opacity:1;fill-rule:nonzero;stroke:none"
             transform="matrix(1.3333333,0,0,-1.3333333,697.41933,122.3216)" />
          <path
             id="path238"
             d="M 0,0 V 5.45 H 1.101 V 0 Z"
             style="fill:#231f20;fill-opacity:1;fill-rule:nonzero;stroke:none"
             transform="matrix(1.3333333,0,0,-1.3333333,705.694,122.3216)" />
          <path
             id="path239"
             d="M 0,0 1.064,-0.329 C 0.9,-0.926 0.625,-1.372 0.245,-1.662 c -0.38,-0.292 -0.864,-0.437 -1.449,-0.437 -0.726,0 -1.321,0.247 -1.788,0.744 -0.466,0.492 -0.698,1.17 -0.698,2.027 0,0.907 0.233,1.613 0.703,2.114 0.469,0.503 1.086,0.755 1.851,0.755 0.668,0 1.209,-0.195 1.627,-0.585 C 0.739,2.725 0.926,2.393 1.05,1.96 L -0.036,1.693 c -0.066,0.283 -0.201,0.505 -0.406,0.667 -0.205,0.164 -0.454,0.245 -0.746,0.245 -0.406,0 -0.735,-0.147 -0.987,-0.437 -0.252,-0.29 -0.378,-0.762 -0.378,-1.414 0,-0.691 0.124,-1.183 0.372,-1.477 0.25,-0.294 0.572,-0.439 0.971,-0.439 0.291,0 0.543,0.092 0.756,0.28 C -0.244,-0.695 -0.091,-0.4 0,0 Z"
             style="fill:#231f20;fill-opacity:1;fill-rule:nonzero;stroke:none"
             transform="matrix(1.3333333,0,0,-1.3333333,713.55893,119.64093)" />
          <path
             id="path240"
             d="m 0,0 h -1.184 l -0.471,1.239 h -2.18 L -4.282,0 h -1.179 l 2.103,5.45 H -2.2 Z M -2.008,2.162 -2.775,4.174 -3.5,2.162 Z"
             style="fill:#231f20;fill-opacity:1;fill-rule:nonzero;stroke:none"
             transform="matrix(1.3333333,0,0,-1.3333333,723.81733,122.3216)" />
          <path
             id="path241"
             d="M 0,0 V 5.45 H 1.074 L 3.314,1.805 V 5.45 H 4.338 V 0 H 3.233 L 1.026,3.564 V 0 Z"
             style="fill:#231f20;fill-opacity:1;fill-rule:nonzero;stroke:none"
             transform="matrix(1.3333333,0,0,-1.3333333,725.17453,122.3216)" />
          <path
             id="path242"
             d="M 0,0 H -1.184 L -1.657,1.239 H -3.835 L -4.283,0 h -1.18 l 2.104,5.45 h 1.158 z M -2.009,2.162 -2.775,4.174 -3.502,2.162 Z"
             style="fill:#231f20;fill-opacity:1;fill-rule:nonzero;stroke:none"
             transform="matrix(1.3333333,0,0,-1.3333333,739.45307,122.3216)" />
        </g>
      </g>
    </g>
  </g>
</svg>
