<?xml version="1.0" encoding="UTF-8" standalone="no"?>
<svg
   xmlns:dc="http://purl.org/dc/elements/1.1/"
   xmlns:cc="http://creativecommons.org/ns#"
   xmlns:rdf="http://www.w3.org/1999/02/22-rdf-syntax-ns#"
   xmlns:svg="http://www.w3.org/2000/svg"
   xmlns="http://www.w3.org/2000/svg"
   viewBox="0 0 578.09332 578.09332"
   height="578.09332"
   width="578.09332"
   xml:space="preserve"
   id="svg2"
   version="1.1"><metadata
     id="metadata8"><rdf:RDF><cc:Work
         rdf:about=""><dc:format>image/svg+xml</dc:format><dc:type
           rdf:resource="http://purl.org/dc/dcmitype/StillImage" /><dc:title></dc:title></cc:Work></rdf:RDF></metadata><defs
     id="defs6" /><g
     transform="matrix(1.3333333,0,0,-1.3333333,0,578.09333)"
     id="g10"><g
       transform="scale(0.1)"
       id="g12"><path
         id="path14"
         style="fill:#ed1c24;fill-opacity:1;fill-rule:nonzero;stroke:none"
         d="m 672.988,1625.75 -397.828,-90.61 -18.051,79.24 260.239,158.32 c 24.254,14.66 42.441,25.46 54.562,32.41 -15.504,1.22 -38.363,3.44 -68.594,6.64 l -298.496,32.21 -16.129,70.82 397.829,90.62 11.554,-50.76 -332.969,-75.83 359.305,-39.77 10.817,-47.49 -312.469,-192.19 338.672,77.14 11.558,-50.75" /><path
         id="path16"
         style="fill:none;stroke:#ed1c24;stroke-width:5;stroke-linecap:butt;stroke-linejoin:miter;stroke-miterlimit:10;stroke-dasharray:none;stroke-opacity:1"
         d="m 672.988,1625.75 -397.828,-90.61 -18.051,79.24 260.239,158.32 c 24.254,14.66 42.441,25.46 54.562,32.41 -15.504,1.22 -38.363,3.44 -68.594,6.64 l -298.496,32.21 -16.129,70.82 397.829,90.62 11.554,-50.76 -332.969,-75.83 359.305,-39.77 10.817,-47.49 -312.469,-192.19 338.672,77.14 z" /><path
         id="path18"
         style="fill:#ed1c24;fill-opacity:1;fill-rule:nonzero;stroke:none"
         d="m 421.598,2131.92 2.898,138.3 -113.867,-40.21 c -34.59,-12.26 -62.988,-21.33 -85.195,-27.17 26.046,-5.74 51.867,-13.61 77.453,-23.61 z m 165.039,-121.22 -404.641,165.22 1.223,58.15 411.429,158.4 -1.289,-61.49 -124.546,-44.99 -3.579,-170.58 122.61,-47.39 -1.207,-57.32" /><path
         id="path20"
         style="fill:none;stroke:#ed1c24;stroke-width:5;stroke-linecap:butt;stroke-linejoin:miter;stroke-miterlimit:10;stroke-dasharray:none;stroke-opacity:1"
         d="m 421.598,2131.92 2.898,138.3 -113.867,-40.21 c -34.59,-12.26 -62.988,-21.33 -85.195,-27.17 26.046,-5.74 51.867,-13.61 77.453,-23.61 z m 165.039,-121.22 -404.641,165.22 1.223,58.15 411.429,158.4 -1.289,-61.49 -124.546,-44.99 -3.579,-170.58 122.61,-47.39 z" /><path
         id="path22"
         style="fill:#ed1c24;fill-opacity:1;fill-rule:nonzero;stroke:none"
         d="m 269.465,2760.86 13.301,52.33 228.468,-58.07 c 39.746,-10.11 70.161,-22.63 91.25,-37.56 21.094,-14.93 35.989,-36 44.68,-63.18 8.691,-27.2 8.188,-59.86 -1.5,-97.98 -9.418,-37.05 -23.508,-65.72 -42.258,-86.04 -18.754,-20.31 -41.508,-32.43 -68.254,-36.34 -26.746,-3.93 -61.066,-0.57 -102.968,10.08 l -228.473,58.08 13.301,52.32 228.203,-57.99 c 34.351,-8.74 60.469,-11.98 78.363,-9.73 17.902,2.24 33.235,10.03 45.996,23.34 12.766,13.31 22.004,31.21 27.723,53.69 9.777,38.49 8.023,68.13 -5.254,88.93 -13.281,20.79 -44.746,37.5 -94.375,50.11 l -228.203,58.01" /><path
         id="path24"
         style="fill:none;stroke:#ed1c24;stroke-width:5;stroke-linecap:butt;stroke-linejoin:miter;stroke-miterlimit:10;stroke-dasharray:none;stroke-opacity:1"
         d="m 269.465,2760.86 13.301,52.33 228.468,-58.07 c 39.746,-10.11 70.161,-22.63 91.25,-37.56 21.094,-14.93 35.989,-36 44.68,-63.18 8.691,-27.2 8.188,-59.86 -1.5,-97.98 -9.418,-37.05 -23.508,-65.72 -42.258,-86.04 -18.754,-20.31 -41.508,-32.43 -68.254,-36.34 -26.746,-3.93 -61.066,-0.57 -102.968,10.08 l -228.473,58.08 13.301,52.32 228.203,-57.99 c 34.351,-8.74 60.469,-11.98 78.363,-9.73 17.902,2.24 33.235,10.03 45.996,23.34 12.766,13.31 22.004,31.21 27.723,53.69 9.777,38.49 8.023,68.13 -5.254,88.93 -13.281,20.79 -44.746,37.5 -94.375,50.11 z" /><path
         id="path26"
         style="fill:#ed1c24;fill-opacity:1;fill-rule:nonzero;stroke:none"
         d="m 521.531,2917.76 54.352,102.53 c 11.558,21.81 18.347,40.05 20.351,54.74 2.008,14.69 -0.25,27.85 -6.781,39.5 -6.527,11.65 -15.609,20.57 -27.258,26.74 -17.043,9.03 -34.343,10.27 -51.886,3.72 -17.543,-6.56 -33.407,-23.2 -47.567,-49.92 l -60.476,-114.1 z m 176.114,-154.47 -360.504,191.09 84.722,159.84 c 17.028,32.13 33.219,54.84 48.559,68.14 15.34,13.29 33.855,20.58 55.551,21.9 21.695,1.31 42.461,-3.3 62.293,-13.81 25.578,-13.55 42.746,-33.26 51.507,-59.12 8.774,-25.86 6.36,-57.34 -7.218,-94.45 12.758,9.41 23.824,15.83 33.203,19.25 20.172,7.16 43.148,11.89 68.933,14.18 l 131.36,10.7 -31.805,-60 -100.293,-7.95 c -29.019,-2.47 -51.664,-5.17 -67.918,-8.1 -16.254,-2.94 -28.57,-6.76 -36.937,-11.45 -8.371,-4.7 -15.41,-10.26 -21.129,-16.68 -4.008,-4.8 -9.281,-13.35 -15.797,-25.65 l -29.328,-55.33 160.09,-84.85 -25.289,-47.71" /><path
         id="path28"
         style="fill:none;stroke:#ed1c24;stroke-width:5;stroke-linecap:butt;stroke-linejoin:miter;stroke-miterlimit:10;stroke-dasharray:none;stroke-opacity:1"
         d="m 521.531,2917.76 54.352,102.53 c 11.558,21.81 18.347,40.05 20.351,54.74 2.008,14.69 -0.25,27.85 -6.781,39.5 -6.527,11.65 -15.609,20.57 -27.258,26.74 -17.043,9.03 -34.343,10.27 -51.886,3.72 -17.543,-6.56 -33.407,-23.2 -47.567,-49.92 l -60.476,-114.1 z m 176.114,-154.47 -360.504,191.09 84.722,159.84 c 17.028,32.13 33.219,54.84 48.559,68.14 15.34,13.29 33.855,20.58 55.551,21.9 21.695,1.31 42.461,-3.3 62.293,-13.81 25.578,-13.55 42.746,-33.26 51.507,-59.12 8.774,-25.86 6.36,-57.34 -7.218,-94.45 12.758,9.41 23.824,15.83 33.203,19.25 20.172,7.16 43.148,11.89 68.933,14.18 l 131.36,10.7 -31.805,-60 -100.293,-7.95 c -29.019,-2.47 -51.664,-5.17 -67.918,-8.1 -16.254,-2.94 -28.57,-6.76 -36.937,-11.45 -8.371,-4.7 -15.41,-10.26 -21.129,-16.68 -4.008,-4.8 -9.281,-13.35 -15.797,-25.65 l -29.328,-55.33 160.09,-84.85 z" /><path
         id="path30"
         style="fill:#ed1c24;fill-opacity:1;fill-rule:nonzero;stroke:none"
         d="m 896.816,3102.8 -324.449,247.41 32.738,42.93 324.458,-247.41 -32.747,-42.93" /><path
         id="path32"
         style="fill:none;stroke:#ed1c24;stroke-width:5;stroke-linecap:butt;stroke-linejoin:miter;stroke-miterlimit:10;stroke-dasharray:none;stroke-opacity:1"
         d="m 896.816,3102.8 -324.449,247.41 32.738,42.93 324.458,-247.41 z" /><path
         id="path34"
         style="fill:#ed1c24;fill-opacity:1;fill-rule:nonzero;stroke:none"
         d="m 1046.37,3277.63 -251.557,257.33 -96.125,-93.96 -33.661,34.43 231.274,226.07 33.656,-34.43 -96.527,-94.36 251.56,-257.34 -38.62,-37.74" /><path
         id="path36"
         style="fill:none;stroke:#ed1c24;stroke-width:5;stroke-linecap:butt;stroke-linejoin:miter;stroke-miterlimit:10;stroke-dasharray:none;stroke-opacity:1"
         d="m 1046.37,3277.63 -251.557,257.33 -96.125,-93.96 -33.661,34.43 231.274,226.07 33.656,-34.43 -96.527,-94.36 251.56,-257.34 z" /><path
         id="path38"
         style="fill:#ed1c24;fill-opacity:1;fill-rule:nonzero;stroke:none"
         d="m 1219.9,3429.2 -239.998,329.97 43.658,31.76 240,-329.97 -43.66,-31.76" /><path
         id="path40"
         style="fill:none;stroke:#ed1c24;stroke-width:5;stroke-linecap:butt;stroke-linejoin:miter;stroke-miterlimit:10;stroke-dasharray:none;stroke-opacity:1"
         d="m 1219.9,3429.2 -239.998,329.97 43.658,31.76 240,-329.97 z" /><path
         id="path42"
         style="fill:#ed1c24;fill-opacity:1;fill-rule:nonzero;stroke:none"
         d="m 1373.8,3991.25 48.28,24.19 105.63,-210.75 c 18.37,-36.66 28.81,-67.85 31.33,-93.56 2.51,-25.73 -3.67,-50.78 -18.54,-75.14 -14.87,-24.38 -39.89,-45.36 -75.06,-62.99 -34.17,-17.13 -65.07,-25.25 -92.7,-24.37 -27.64,0.89 -51.69,10.16 -72.16,27.82 -20.47,17.65 -40.39,45.8 -59.76,84.45 l -105.63,210.75 48.27,24.19 105.5,-210.5 c 15.88,-31.68 30.53,-53.55 43.95,-65.61 13.4,-12.06 29.32,-18.56 47.74,-19.5 18.43,-0.93 38,3.79 58.74,14.19 35.5,17.79 56.76,38.51 63.79,62.17 7.03,23.66 -0.92,58.37 -23.87,104.16 l -105.51,210.5" /><path
         id="path44"
         style="fill:none;stroke:#ed1c24;stroke-width:5;stroke-linecap:butt;stroke-linejoin:miter;stroke-miterlimit:10;stroke-dasharray:none;stroke-opacity:1"
         d="m 1373.8,3991.25 48.28,24.19 105.63,-210.75 c 18.37,-36.66 28.81,-67.85 31.33,-93.56 2.51,-25.73 -3.67,-50.78 -18.54,-75.14 -14.87,-24.38 -39.89,-45.36 -75.06,-62.99 -34.17,-17.13 -65.07,-25.25 -92.7,-24.37 -27.64,0.89 -51.69,10.16 -72.16,27.82 -20.47,17.65 -40.39,45.8 -59.76,84.45 l -105.63,210.75 48.27,24.19 105.5,-210.5 c 15.88,-31.68 30.53,-53.55 43.95,-65.61 13.4,-12.06 29.32,-18.56 47.74,-19.5 18.43,-0.93 38,3.79 58.74,14.19 35.5,17.79 56.76,38.51 63.79,62.17 7.03,23.66 -0.92,58.37 -23.87,104.16 z" /><path
         id="path46"
         style="fill:#ed1c24;fill-opacity:1;fill-rule:nonzero;stroke:none"
         d="m 1608.53,3791.21 48.49,16.19 c 7.1,-19.28 16.46,-34.26 28.08,-44.93 11.61,-10.67 27.39,-17.76 47.31,-21.3 19.92,-3.52 41.16,-2.58 63.72,2.81 20.03,4.8 37,12.02 50.91,21.65 13.91,9.62 23.37,20.51 28.38,32.69 5,12.17 6.03,24.39 3.09,36.66 -2.98,12.45 -9.19,22.45 -18.64,30.02 -9.44,7.56 -23.22,12.51 -41.33,14.86 -11.65,1.6 -36.74,2.41 -75.28,2.44 -38.55,0.02 -66.05,2.15 -82.53,6.41 -21.32,5.38 -38.39,14.32 -51.21,26.81 -12.82,12.47 -21.4,27.82 -25.77,46.05 -4.79,20.03 -3.59,40.11 3.6,60.25 7.21,20.13 20.64,37.32 40.31,51.58 19.67,14.25 42.86,24.57 69.57,30.97 29.41,7.05 56.49,8.52 81.22,4.43 24.73,-4.1 45.35,-13.9 61.85,-29.41 16.49,-15.51 27.98,-34.8 34.46,-57.85 l -49.44,-15.86 c -8.71,24.44 -22.41,41.2 -41.08,50.27 -18.68,9.07 -43.27,9.96 -73.76,2.66 -31.76,-7.61 -53.51,-18.97 -65.25,-34.09 -11.73,-15.11 -15.64,-30.89 -11.7,-47.3 3.41,-14.26 11.36,-24.76 23.85,-31.5 12.31,-6.78 40.95,-9.89 85.95,-9.32 44.98,0.56 76.28,-0.86 93.89,-4.28 25.64,-5.12 45.92,-14.52 60.84,-28.21 14.92,-13.7 24.93,-31.2 30.03,-52.48 5.05,-21.12 3.77,-42.45 -3.84,-64.03 -7.62,-21.57 -21.51,-40.25 -41.67,-56.05 -20.16,-15.8 -44.41,-27.09 -72.74,-33.88 -35.9,-8.59 -67.25,-10.56 -94.02,-5.92 -26.78,4.65 -49.58,15.84 -68.43,33.56 -18.83,17.71 -31.79,39.75 -38.86,66.1" /><path
         id="path48"
         style="fill:none;stroke:#ed1c24;stroke-width:5;stroke-linecap:butt;stroke-linejoin:miter;stroke-miterlimit:10;stroke-dasharray:none;stroke-opacity:1"
         d="m 1608.53,3791.21 48.49,16.19 c 7.1,-19.28 16.46,-34.26 28.08,-44.93 11.61,-10.67 27.39,-17.76 47.31,-21.3 19.92,-3.52 41.16,-2.58 63.72,2.81 20.03,4.8 37,12.02 50.91,21.65 13.91,9.62 23.37,20.51 28.38,32.69 5,12.17 6.03,24.39 3.09,36.66 -2.98,12.45 -9.19,22.45 -18.64,30.02 -9.44,7.56 -23.22,12.51 -41.33,14.86 -11.65,1.6 -36.74,2.41 -75.28,2.44 -38.55,0.02 -66.05,2.15 -82.53,6.41 -21.32,5.38 -38.39,14.32 -51.21,26.81 -12.82,12.47 -21.4,27.82 -25.77,46.05 -4.79,20.03 -3.59,40.11 3.6,60.25 7.21,20.13 20.64,37.32 40.31,51.58 19.67,14.25 42.86,24.57 69.57,30.97 29.41,7.05 56.49,8.52 81.22,4.43 24.73,-4.1 45.35,-13.9 61.85,-29.41 16.49,-15.51 27.98,-34.8 34.46,-57.85 l -49.44,-15.86 c -8.71,24.44 -22.41,41.2 -41.08,50.27 -18.68,9.07 -43.27,9.96 -73.76,2.66 -31.76,-7.61 -53.51,-18.97 -65.25,-34.09 -11.73,-15.11 -15.64,-30.89 -11.7,-47.3 3.41,-14.26 11.36,-24.76 23.85,-31.5 12.31,-6.78 40.95,-9.89 85.95,-9.32 44.98,0.56 76.28,-0.86 93.89,-4.28 25.64,-5.12 45.92,-14.52 60.84,-28.21 14.92,-13.7 24.93,-31.2 30.03,-52.48 5.05,-21.12 3.77,-42.45 -3.84,-64.03 -7.62,-21.57 -21.51,-40.25 -41.67,-56.05 -20.16,-15.8 -44.41,-27.09 -72.74,-33.88 -35.9,-8.59 -67.25,-10.56 -94.02,-5.92 -26.78,4.65 -49.58,15.84 -68.43,33.56 -18.83,17.71 -31.79,39.75 -38.86,66.1 z" /><path
         id="path50"
         style="fill:#ed1c24;fill-opacity:1;fill-rule:nonzero;stroke:none"
         d="m 2211.74,3975.95 115.66,-9.56 c 24.59,-2.03 44.04,-1.09 58.32,2.86 14.29,3.93 25.51,11.2 33.65,21.8 8.13,10.58 12.74,22.44 13.82,35.58 1.6,19.22 -4.08,35.61 -17.02,49.15 -12.94,13.55 -34.48,21.56 -64.62,24.06 l -128.7,10.63 z m -72.59,-222.73 33.6,406.64 180.3,-14.91 c 36.24,-2.99 63.49,-8.92 81.75,-17.78 18.26,-8.87 32.26,-23.01 42.02,-42.43 9.74,-19.43 13.7,-40.32 11.85,-62.7 -2.38,-28.84 -13.74,-52.39 -34.04,-70.63 -20.32,-18.25 -50.21,-28.44 -89.66,-30.58 13.67,-8.02 23.93,-15.65 30.77,-22.93 14.53,-15.72 27.92,-34.98 40.2,-57.77 l 61.58,-116.52 -67.69,5.59 -46.81,89.04 c -13.7,25.72 -25.11,45.46 -34.2,59.24 -9.1,13.79 -17.46,23.61 -25.08,29.45 -7.62,5.84 -15.5,10.12 -23.65,12.85 -6,1.79 -15.93,3.27 -29.8,4.41 l -62.41,5.16 -14.92,-180.57 -53.81,4.44" /><path
         id="path52"
         style="fill:none;stroke:#ed1c24;stroke-width:5;stroke-linecap:butt;stroke-linejoin:miter;stroke-miterlimit:10;stroke-dasharray:none;stroke-opacity:1"
         d="m 2211.74,3975.95 115.66,-9.56 c 24.59,-2.03 44.04,-1.09 58.32,2.86 14.29,3.93 25.51,11.2 33.65,21.8 8.13,10.58 12.74,22.44 13.82,35.58 1.6,19.22 -4.08,35.61 -17.02,49.15 -12.94,13.55 -34.48,21.56 -64.62,24.06 l -128.7,10.63 z m -72.59,-222.73 33.6,406.64 180.3,-14.91 c 36.24,-2.99 63.49,-8.92 81.75,-17.78 18.26,-8.87 32.26,-23.01 42.02,-42.43 9.74,-19.43 13.7,-40.32 11.85,-62.7 -2.38,-28.84 -13.74,-52.39 -34.04,-70.63 -20.32,-18.25 -50.21,-28.44 -89.66,-30.58 13.67,-8.02 23.93,-15.65 30.77,-22.93 14.53,-15.72 27.92,-34.98 40.2,-57.77 l 61.58,-116.52 -67.69,5.59 -46.81,89.04 c -13.7,25.72 -25.11,45.46 -34.2,59.24 -9.1,13.79 -17.46,23.61 -25.08,29.45 -7.62,5.84 -15.5,10.12 -23.65,12.85 -6,1.79 -15.93,3.27 -29.8,4.41 l -62.41,5.16 -14.92,-180.57 z" /><path
         id="path54"
         style="fill:#ed1c24;fill-opacity:1;fill-rule:nonzero;stroke:none"
         d="m 2513.69,3714.23 125.02,388.4 280.83,-90.4 -14.75,-45.83 -229.44,73.85 -38.29,-118.96 214.86,-69.16 -14.66,-45.57 -214.87,69.16 -42.55,-132.19 238.44,-76.76 -14.75,-45.83 -289.84,93.29" /><path
         id="path56"
         style="fill:none;stroke:#ed1c24;stroke-width:5;stroke-linecap:butt;stroke-linejoin:miter;stroke-miterlimit:10;stroke-dasharray:none;stroke-opacity:1"
         d="m 2513.69,3714.23 125.02,388.4 280.83,-90.4 -14.75,-45.83 -229.44,73.85 -38.29,-118.96 214.86,-69.16 -14.66,-45.57 -214.87,69.16 -42.55,-132.19 238.44,-76.76 -14.75,-45.83 z" /><path
         id="path58"
         style="fill:#ed1c24;fill-opacity:1;fill-rule:nonzero;stroke:none"
         d="m 2910.73,3618.28 74.7,-44.82 c 23.07,-13.85 42.45,-22.56 58.15,-26.14 15.71,-3.59 29.8,-3.81 42.27,-0.69 17.57,4.38 34.97,14.01 52.23,28.86 17.24,14.86 33.79,35.5 49.64,61.9 21.96,36.59 32.83,68.32 32.61,95.18 -0.22,26.86 -6.91,48.78 -20.09,65.77 -9.54,12.23 -28.07,26.59 -55.6,43.12 l -73.5,44.11 z m -71.07,-13.49 209.96,349.84 120.52,-72.33 c 27.2,-16.32 46.96,-30.45 59.27,-42.39 17.28,-16.64 29.37,-35.26 36.27,-55.85 9.1,-26.67 10.94,-54.87 5.53,-84.63 -5.42,-29.74 -17.48,-60.22 -36.19,-91.39 -15.95,-26.58 -33.18,-48.25 -51.7,-65.06 -18.53,-16.8 -36.67,-29 -54.44,-36.62 -17.78,-7.63 -34.75,-11.83 -50.91,-12.63 -16.17,-0.79 -33.59,1.72 -52.29,7.53 -18.7,5.81 -38.62,15.06 -59.78,27.76 l -126.24,75.77" /><path
         id="path60"
         style="fill:none;stroke:#ed1c24;stroke-width:5;stroke-linecap:butt;stroke-linejoin:miter;stroke-miterlimit:10;stroke-dasharray:none;stroke-opacity:1"
         d="m 2910.73,3618.28 74.7,-44.82 c 23.07,-13.85 42.45,-22.56 58.15,-26.14 15.71,-3.59 29.8,-3.81 42.27,-0.69 17.57,4.38 34.97,14.01 52.23,28.86 17.24,14.86 33.79,35.5 49.64,61.9 21.96,36.59 32.83,68.32 32.61,95.18 -0.22,26.86 -6.91,48.78 -20.09,65.77 -9.54,12.23 -28.07,26.59 -55.6,43.12 l -73.5,44.11 z m -71.07,-13.49 209.96,349.84 120.52,-72.33 c 27.2,-16.32 46.96,-30.45 59.27,-42.39 17.28,-16.64 29.37,-35.26 36.27,-55.85 9.1,-26.67 10.94,-54.87 5.53,-84.63 -5.42,-29.74 -17.48,-60.22 -36.19,-91.39 -15.95,-26.58 -33.18,-48.25 -51.7,-65.06 -18.53,-16.8 -36.67,-29 -54.44,-36.62 -17.78,-7.63 -34.75,-11.83 -50.91,-12.63 -16.17,-0.79 -33.59,1.72 -52.29,7.53 -18.7,5.81 -38.62,15.06 -59.78,27.76 z" /><path
         id="path62"
         style="fill:#ed1c24;fill-opacity:1;fill-rule:nonzero;stroke:none"
         d="m 3564.42,3181.31 24.52,-50.01 c -41.15,-20.04 -80.11,-26.38 -116.89,-19 -36.79,7.37 -68.92,27.26 -96.39,59.67 -28.43,33.55 -44.73,66.62 -48.89,99.21 -4.16,32.59 2.05,65.36 18.66,98.28 16.59,32.93 39.76,62 69.48,87.19 32.4,27.48 65.92,45.26 100.56,53.33 34.63,8.07 67.89,5.99 99.79,-6.25 31.91,-12.23 59.5,-32.08 82.78,-59.54 26.39,-31.13 40.67,-64.04 42.82,-98.71 2.14,-34.67 -7.61,-68.35 -29.26,-101.06 l -43.93,32.45 c 16.52,26.41 24.13,50.87 22.83,73.36 -1.31,22.48 -10.78,44.13 -28.42,64.93 -20.28,23.93 -42.96,39.05 -68.05,45.4 -25.07,6.35 -50.04,4.58 -74.87,-5.29 -24.84,-9.87 -47.52,-23.5 -68.05,-40.9 -26.46,-22.44 -46.3,-45.88 -59.5,-70.33 -13.2,-24.46 -17.79,-48.96 -13.76,-73.51 4.03,-24.55 14.09,-46.32 30.18,-65.28 19.55,-23.07 42.76,-36.97 69.63,-41.67 26.85,-4.72 55.78,1.19 86.76,17.73" /><path
         id="path64"
         style="fill:none;stroke:#ed1c24;stroke-width:5;stroke-linecap:butt;stroke-linejoin:miter;stroke-miterlimit:10;stroke-dasharray:none;stroke-opacity:1"
         d="m 3564.42,3181.31 24.52,-50.01 c -41.15,-20.04 -80.11,-26.38 -116.89,-19 -36.79,7.37 -68.92,27.26 -96.39,59.67 -28.43,33.55 -44.73,66.62 -48.89,99.21 -4.16,32.59 2.05,65.36 18.66,98.28 16.59,32.93 39.76,62 69.48,87.19 32.4,27.48 65.92,45.26 100.56,53.33 34.63,8.07 67.89,5.99 99.79,-6.25 31.91,-12.23 59.5,-32.08 82.78,-59.54 26.39,-31.13 40.67,-64.04 42.82,-98.71 2.14,-34.67 -7.61,-68.35 -29.26,-101.06 l -43.93,32.45 c 16.52,26.41 24.13,50.87 22.83,73.36 -1.31,22.48 -10.78,44.13 -28.42,64.93 -20.28,23.93 -42.96,39.05 -68.05,45.4 -25.07,6.35 -50.04,4.58 -74.87,-5.29 -24.84,-9.87 -47.52,-23.5 -68.05,-40.9 -26.46,-22.44 -46.3,-45.88 -59.5,-70.33 -13.2,-24.46 -17.79,-48.96 -13.76,-73.51 4.03,-24.55 14.09,-46.32 30.18,-65.28 19.55,-23.07 42.76,-36.97 69.63,-41.67 26.85,-4.72 55.78,1.19 86.76,17.73 z" /><path
         id="path66"
         style="fill:#ed1c24;fill-opacity:1;fill-rule:nonzero;stroke:none"
         d="m 3733.34,3074.21 52.19,-103.67 c 11.09,-22.04 22.04,-38.14 32.86,-48.27 10.81,-10.14 22.86,-15.91 36.14,-17.33 13.28,-1.41 25.8,0.84 37.57,6.76 17.24,8.68 28.26,22.07 33.07,40.17 4.8,18.1 0.41,40.66 -13.2,67.67 l -58.05,115.35 z m -227.88,-54.27 364.45,183.46 81.34,-161.59 c 16.35,-32.48 25.51,-58.83 27.47,-79.03 1.96,-20.2 -2.8,-39.53 -14.29,-57.97 -11.48,-18.46 -27.25,-32.74 -47.3,-42.83 -25.85,-13.01 -51.87,-15.61 -78.02,-7.8 -26.16,7.81 -50.45,28 -72.85,60.55 0.28,-15.85 -0.88,-28.6 -3.51,-38.22 -5.84,-20.6 -15.28,-42.07 -28.33,-64.43 l -67.28,-113.33 -30.54,60.67 51.55,86.39 c 14.79,25.1 25.69,45.13 32.7,60.08 7.01,14.95 11.03,27.21 12.03,36.75 1.02,9.55 0.56,18.5 -1.38,26.88 -1.59,6.06 -5.51,15.3 -11.76,27.73 l -28.17,55.94 -161.83,-81.47 -24.28,48.22" /><path
         id="path68"
         style="fill:none;stroke:#ed1c24;stroke-width:5;stroke-linecap:butt;stroke-linejoin:miter;stroke-miterlimit:10;stroke-dasharray:none;stroke-opacity:1"
         d="m 3733.34,3074.21 52.19,-103.67 c 11.09,-22.04 22.04,-38.14 32.86,-48.27 10.81,-10.14 22.86,-15.91 36.14,-17.33 13.28,-1.41 25.8,0.84 37.57,6.76 17.24,8.68 28.26,22.07 33.07,40.17 4.8,18.1 0.41,40.66 -13.2,67.67 l -58.05,115.35 z m -227.88,-54.27 364.45,183.46 81.34,-161.59 c 16.35,-32.48 25.51,-58.83 27.47,-79.03 1.96,-20.2 -2.8,-39.53 -14.29,-57.97 -11.48,-18.46 -27.25,-32.74 -47.3,-42.83 -25.85,-13.01 -51.87,-15.61 -78.02,-7.8 -26.16,7.81 -50.45,28 -72.85,60.55 0.28,-15.85 -0.88,-28.6 -3.51,-38.22 -5.84,-20.6 -15.28,-42.07 -28.33,-64.43 l -67.28,-113.33 -30.54,60.67 51.55,86.39 c 14.79,25.1 25.69,45.13 32.7,60.08 7.01,14.95 11.03,27.21 12.03,36.75 1.02,9.55 0.56,18.5 -1.38,26.88 -1.59,6.06 -5.51,15.3 -11.76,27.73 l -28.17,55.94 -161.83,-81.47 z" /><path
         id="path70"
         style="fill:#ed1c24;fill-opacity:1;fill-rule:nonzero;stroke:none"
         d="m 3871.08,2689.39 c -48,-10.67 -82.95,-31.97 -104.84,-63.91 -21.89,-31.94 -28.52,-67.38 -19.87,-106.33 8.81,-39.67 30,-69.22 63.59,-88.66 33.58,-19.44 76.01,-23.47 127.27,-12.09 32.42,7.2 59.51,18.96 81.26,35.29 21.74,16.33 36.93,36.53 45.56,60.58 8.64,24.06 10.03,49.22 4.2,75.49 -8.29,37.31 -28.23,66.57 -59.83,87.78 -31.6,21.2 -77.38,25.16 -137.34,11.85 z m -11.25,54.52 c 66.12,14.68 121.82,8.42 167.1,-18.78 45.29,-27.2 74.16,-68.88 86.63,-125.03 8.17,-36.77 6.74,-71.87 -4.27,-105.29 -11.02,-33.43 -30.52,-61.38 -58.51,-83.84 -27.99,-22.46 -61.91,-38.13 -101.76,-46.96 -40.4,-8.98 -78.34,-8.85 -113.83,0.38 -35.51,9.22 -64.77,26.96 -87.8,53.21 -23.03,26.24 -38.39,56.67 -46.06,91.27 -8.33,37.49 -6.71,73.02 4.85,106.56 11.55,33.55 31.31,61.4 59.28,83.58 27.95,22.16 59.41,37.13 94.37,44.9" /><path
         id="path72"
         style="fill:none;stroke:#ed1c24;stroke-width:5;stroke-linecap:butt;stroke-linejoin:miter;stroke-miterlimit:10;stroke-dasharray:none;stroke-opacity:1"
         d="m 3871.08,2689.39 c -48,-10.67 -82.95,-31.97 -104.84,-63.91 -21.89,-31.94 -28.52,-67.38 -19.87,-106.33 8.81,-39.67 30,-69.22 63.59,-88.66 33.58,-19.44 76.01,-23.47 127.27,-12.09 32.42,7.2 59.51,18.96 81.26,35.29 21.74,16.33 36.93,36.53 45.56,60.58 8.64,24.06 10.03,49.22 4.2,75.49 -8.29,37.31 -28.23,66.57 -59.83,87.78 -31.6,21.2 -77.38,25.16 -137.34,11.85 z m -11.25,54.52 c 66.12,14.68 121.82,8.42 167.1,-18.78 45.29,-27.2 74.16,-68.88 86.63,-125.03 8.17,-36.77 6.74,-71.87 -4.27,-105.29 -11.02,-33.43 -30.52,-61.38 -58.51,-83.84 -27.99,-22.46 -61.91,-38.13 -101.76,-46.96 -40.4,-8.98 -78.34,-8.85 -113.83,0.38 -35.51,9.22 -64.77,26.96 -87.8,53.21 -23.03,26.24 -38.39,56.67 -46.06,91.27 -8.33,37.49 -6.71,73.02 4.85,106.56 11.55,33.55 31.31,61.4 59.28,83.58 27.95,22.16 59.41,37.13 94.37,44.9 z" /><path
         id="path74"
         style="fill:#ed1c24;fill-opacity:1;fill-rule:nonzero;stroke:none"
         d="m 3879.09,2301.97 3.57,-51 c -20.45,-2.05 -37.3,-7.37 -50.53,-15.96 -13.23,-8.58 -24.04,-22.08 -32.43,-40.5 -8.4,-18.4 -12.8,-39.21 -13.2,-62.4 -0.36,-20.59 2.39,-38.83 8.24,-54.7 5.84,-15.88 14.03,-27.75 24.57,-35.64 10.52,-7.88 22.1,-11.93 34.71,-12.16 12.81,-0.22 24.05,3.3 33.73,10.55 9.68,7.25 17.92,19.36 24.71,36.32 4.46,10.87 11.51,34.96 21.16,72.28 9.65,37.32 18.6,63.42 26.84,78.3 10.54,19.31 23.46,33.61 38.74,42.89 15.29,9.3 32.29,13.78 51.03,13.45 20.6,-0.35 39.74,-6.53 57.45,-18.54 17.69,-12 30.98,-29.29 39.87,-51.91 8.89,-22.61 13.09,-47.64 12.62,-75.1 -0.53,-30.23 -5.87,-56.82 -16.01,-79.74 -10.15,-22.93 -24.78,-40.44 -43.93,-52.55 -19.14,-12.09 -40.68,-18.4 -64.62,-18.92 l -3,51.83 c 25.84,2.33 45.48,11.41 58.93,27.22 13.45,15.83 20.45,39.42 21,70.77 0.57,32.65 -5,56.55 -16.71,71.69 -11.71,15.14 -26.01,22.86 -42.88,23.15 -14.66,0.25 -26.81,-4.82 -36.46,-15.23 -9.63,-10.22 -19.8,-37.18 -30.49,-80.89 -10.69,-43.7 -19.89,-73.66 -27.59,-89.85 -11.36,-23.55 -25.54,-40.85 -42.52,-51.87 -16.99,-11.02 -36.43,-16.35 -58.32,-15.96 -21.7,0.37 -42.05,6.94 -61.04,19.71 -18.98,12.76 -33.6,30.89 -43.86,54.34 -10.27,23.48 -15.14,49.78 -14.63,78.9 0.64,36.92 6.56,67.76 17.75,92.53 11.19,24.77 27.73,44.05 49.58,57.87 21.86,13.81 46.44,20.86 73.72,21.12" /><path
         id="path76"
         style="fill:none;stroke:#ed1c24;stroke-width:5;stroke-linecap:butt;stroke-linejoin:miter;stroke-miterlimit:10;stroke-dasharray:none;stroke-opacity:1"
         d="m 3879.09,2301.97 3.57,-51 c -20.45,-2.05 -37.3,-7.37 -50.53,-15.96 -13.23,-8.58 -24.04,-22.08 -32.43,-40.5 -8.4,-18.4 -12.8,-39.21 -13.2,-62.4 -0.36,-20.59 2.39,-38.83 8.24,-54.7 5.84,-15.88 14.03,-27.75 24.57,-35.64 10.52,-7.88 22.1,-11.93 34.71,-12.16 12.81,-0.22 24.05,3.3 33.73,10.55 9.68,7.25 17.92,19.36 24.71,36.32 4.46,10.87 11.51,34.96 21.16,72.28 9.65,37.32 18.6,63.42 26.84,78.3 10.54,19.31 23.46,33.61 38.74,42.89 15.29,9.3 32.29,13.78 51.03,13.45 20.6,-0.35 39.74,-6.53 57.45,-18.54 17.69,-12 30.98,-29.29 39.87,-51.91 8.89,-22.61 13.09,-47.64 12.62,-75.1 -0.53,-30.23 -5.87,-56.82 -16.01,-79.74 -10.15,-22.93 -24.78,-40.44 -43.93,-52.55 -19.14,-12.09 -40.68,-18.4 -64.62,-18.92 l -3,51.83 c 25.84,2.33 45.48,11.41 58.93,27.22 13.45,15.83 20.45,39.42 21,70.77 0.57,32.65 -5,56.55 -16.71,71.69 -11.71,15.14 -26.01,22.86 -42.88,23.15 -14.66,0.25 -26.81,-4.82 -36.46,-15.23 -9.63,-10.22 -19.8,-37.18 -30.49,-80.89 -10.69,-43.7 -19.89,-73.66 -27.59,-89.85 -11.36,-23.55 -25.54,-40.85 -42.52,-51.87 -16.99,-11.02 -36.43,-16.35 -58.32,-15.96 -21.7,0.37 -42.05,6.94 -61.04,19.71 -18.98,12.76 -33.6,30.89 -43.86,54.34 -10.27,23.48 -15.14,49.78 -14.63,78.9 0.64,36.92 6.56,67.76 17.75,92.53 11.19,24.77 27.73,44.05 49.58,57.87 21.86,13.81 46.44,20.86 73.72,21.12 z" /><path
         id="path78"
         style="fill:#ed1c24;fill-opacity:1;fill-rule:nonzero;stroke:none"
         d="m 3867.58,1926.47 -7.59,-50.56 c -20.41,2.43 -38.01,0.9 -52.78,-4.61 -14.79,-5.51 -28.27,-16.35 -40.46,-32.49 -12.19,-16.14 -21,-35.5 -26.43,-58.06 -4.82,-20.02 -6.09,-38.41 -3.84,-55.17 2.27,-16.77 7.68,-30.14 16.25,-40.13 8.57,-9.98 18.99,-16.45 31.26,-19.4 12.45,-3 24.18,-2.01 35.21,2.97 11.02,4.98 21.7,15.01 32,30.08 6.72,9.65 18.83,31.63 36.36,65.97 17.52,34.34 31.91,57.87 43.19,70.62 14.47,16.55 30.19,27.7 47.13,33.45 16.93,5.75 34.51,6.44 52.74,2.04 20.01,-4.81 37.36,-15 52.04,-30.55 14.66,-15.56 23.88,-35.34 27.65,-59.33 3.77,-24 2.43,-49.36 -3.99,-76.05 -7.07,-29.4 -18.06,-54.2 -32.93,-74.38 -14.87,-20.18 -32.97,-34.09 -54.28,-41.76 -21.31,-7.64 -43.71,-9.12 -67.2,-4.43 l 8.32,51.25 c 25.74,-3.34 46.88,1.27 63.44,13.79 16.56,12.52 28.52,34.02 35.86,64.51 7.64,31.74 7.39,56.28 -0.75,73.59 -8.14,17.33 -20.42,27.97 -36.83,31.92 -14.25,3.44 -27.21,1.11 -38.89,-6.96 -11.63,-7.89 -27.41,-31.99 -47.33,-72.34 -19.92,-40.33 -35.4,-67.58 -46.43,-81.71 -16.21,-20.53 -33.79,-34.32 -52.77,-41.4 -18.98,-7.07 -39.11,-8.05 -60.39,-2.92 -21.11,5.07 -39.54,15.9 -55.3,32.49 -15.76,16.58 -26.1,37.44 -31.03,62.56 -4.92,25.14 -3.97,51.88 2.85,80.2 8.64,35.9 21.11,64.73 37.41,86.46 16.31,21.74 36.63,36.99 60.97,45.73 24.33,8.74 49.85,10.28 76.54,4.62" /><path
         id="path80"
         style="fill:none;stroke:#ed1c24;stroke-width:5;stroke-linecap:butt;stroke-linejoin:miter;stroke-miterlimit:10;stroke-dasharray:none;stroke-opacity:1"
         d="m 3867.58,1926.47 -7.59,-50.56 c -20.41,2.43 -38.01,0.9 -52.78,-4.61 -14.79,-5.51 -28.27,-16.35 -40.46,-32.49 -12.19,-16.14 -21,-35.5 -26.43,-58.06 -4.82,-20.02 -6.09,-38.41 -3.84,-55.17 2.27,-16.77 7.68,-30.14 16.25,-40.13 8.57,-9.98 18.99,-16.45 31.26,-19.4 12.45,-3 24.18,-2.01 35.21,2.97 11.02,4.98 21.7,15.01 32,30.08 6.72,9.65 18.83,31.63 36.36,65.97 17.52,34.34 31.91,57.87 43.19,70.62 14.47,16.55 30.19,27.7 47.13,33.45 16.93,5.75 34.51,6.44 52.74,2.04 20.01,-4.81 37.36,-15 52.04,-30.55 14.66,-15.56 23.88,-35.34 27.65,-59.33 3.77,-24 2.43,-49.36 -3.99,-76.05 -7.07,-29.4 -18.06,-54.2 -32.93,-74.38 -14.87,-20.18 -32.97,-34.09 -54.28,-41.76 -21.31,-7.64 -43.71,-9.12 -67.2,-4.43 l 8.32,51.25 c 25.74,-3.34 46.88,1.27 63.44,13.79 16.56,12.52 28.52,34.02 35.86,64.51 7.64,31.74 7.39,56.28 -0.75,73.59 -8.14,17.33 -20.42,27.97 -36.83,31.92 -14.25,3.44 -27.21,1.11 -38.89,-6.96 -11.63,-7.89 -27.41,-31.99 -47.33,-72.34 -19.92,-40.33 -35.4,-67.58 -46.43,-81.71 -16.21,-20.53 -33.79,-34.32 -52.77,-41.4 -18.98,-7.07 -39.11,-8.05 -60.39,-2.92 -21.11,5.07 -39.54,15.9 -55.3,32.49 -15.76,16.58 -26.1,37.44 -31.03,62.56 -4.92,25.14 -3.97,51.88 2.85,80.2 8.64,35.9 21.11,64.73 37.41,86.46 16.31,21.74 36.63,36.99 60.97,45.73 24.33,8.74 49.85,10.28 76.54,4.62 z" /><path
         id="path82"
         style="fill:#ed1c24;fill-opacity:1;fill-rule:nonzero;stroke:none"
         d="m 1000.45,702.211 44.91,-24.441 c -9.27,-18.34 -13.85,-35.411 -13.73,-51.18 0.12,-15.77 5.68,-32.149 16.68,-49.129 11.01,-16.973 26.17,-31.871 45.51,-44.691 17.16,-11.379 34,-18.879 50.54,-22.5 16.52,-3.61 30.94,-3.098 43.26,1.539 12.31,4.64 21.95,12.211 28.92,22.73 7.08,10.672 10.16,22.031 9.26,34.102 -0.91,12.058 -6.68,25.519 -17.31,40.379 -6.77,9.589 -23.28,28.511 -49.54,56.718 -26.27,28.223 -43.46,49.801 -51.58,64.75 -10.6,19.274 -15.7,37.852 -15.31,55.731 0.39,17.89 5.77,34.64 16.12,50.261 11.39,17.161 26.9,29.981 46.54,38.442 19.64,8.457 41.36,10.348 65.21,5.687 23.84,-4.679 47.2,-14.597 70.09,-29.789 25.2,-16.711 44.75,-35.511 58.61,-56.39 13.87,-20.879 20.75,-42.649 20.66,-65.301 -0.1,-22.629 -6.38,-44.188 -18.83,-64.649 l -45.29,25.372 c 11.92,23.019 14.84,44.468 8.75,64.308 -6.1,19.86 -22.21,38.442 -48.34,55.77 -27.23,18.05 -50.37,26.211 -69.43,24.5 -19.06,-1.731 -33.26,-9.621 -42.59,-23.7 -8.1,-12.21 -10.36,-25.191 -6.77,-38.921 3.43,-13.618 20.69,-36.707 51.77,-69.231 31.09,-32.519 51.39,-56.387 60.89,-71.59 13.75,-22.258 20.7,-43.508 20.85,-63.75 0.15,-20.258 -5.82,-39.5 -17.92,-57.75 -11.99,-18.09 -28.48,-31.707 -49.45,-40.847 -20.98,-9.129 -44.12,-11.7 -69.41,-7.731 -25.31,3.969 -50.1,14.012 -74.38,30.121 -30.77,20.399 -53.58,41.989 -68.44,64.739 -14.848,22.761 -22.216,47.07 -22.106,72.929 0.117,25.86 7.402,50.36 21.856,73.512" /><path
         id="path84"
         style="fill:none;stroke:#ed1c24;stroke-width:5;stroke-linecap:butt;stroke-linejoin:miter;stroke-miterlimit:10;stroke-dasharray:none;stroke-opacity:1"
         d="m 1000.45,702.211 44.91,-24.441 c -9.27,-18.34 -13.85,-35.411 -13.73,-51.18 0.12,-15.77 5.68,-32.149 16.68,-49.129 11.01,-16.973 26.17,-31.871 45.51,-44.691 17.16,-11.379 34,-18.879 50.54,-22.5 16.52,-3.61 30.94,-3.098 43.26,1.539 12.31,4.64 21.95,12.211 28.92,22.73 7.08,10.672 10.16,22.031 9.26,34.102 -0.91,12.058 -6.68,25.519 -17.31,40.379 -6.77,9.589 -23.28,28.511 -49.54,56.718 -26.27,28.223 -43.46,49.801 -51.58,64.75 -10.6,19.274 -15.7,37.852 -15.31,55.731 0.39,17.89 5.77,34.64 16.12,50.261 11.39,17.161 26.9,29.981 46.54,38.442 19.64,8.457 41.36,10.348 65.21,5.687 23.84,-4.679 47.2,-14.597 70.09,-29.789 25.2,-16.711 44.75,-35.511 58.61,-56.39 13.87,-20.879 20.75,-42.649 20.66,-65.301 -0.1,-22.629 -6.38,-44.188 -18.83,-64.649 l -45.29,25.372 c 11.92,23.019 14.84,44.468 8.75,64.308 -6.1,19.86 -22.21,38.442 -48.34,55.77 -27.23,18.05 -50.37,26.211 -69.43,24.5 -19.06,-1.731 -33.26,-9.621 -42.59,-23.7 -8.1,-12.21 -10.36,-25.191 -6.77,-38.921 3.43,-13.618 20.69,-36.707 51.77,-69.231 31.09,-32.519 51.39,-56.387 60.89,-71.59 13.75,-22.258 20.7,-43.508 20.85,-63.75 0.15,-20.258 -5.82,-39.5 -17.92,-57.75 -11.99,-18.09 -28.48,-31.707 -49.45,-40.847 -20.98,-9.129 -44.12,-11.7 -69.41,-7.731 -25.31,3.969 -50.1,14.012 -74.38,30.121 -30.77,20.399 -53.58,41.989 -68.44,64.739 -14.848,22.761 -22.216,47.07 -22.106,72.929 0.117,25.86 7.402,50.36 21.856,73.512 z" /><path
         id="path86"
         style="fill:#ed1c24;fill-opacity:1;fill-rule:nonzero;stroke:none"
         d="m 1408.38,529.941 c -17.21,-46.062 -18.38,-86.972 -3.52,-122.73 14.88,-35.762 40.99,-60.621 78.36,-74.582 38.07,-14.219 74.4,-12.539 108.99,5.043 34.6,17.578 61.08,50.949 79.46,100.137 11.62,31.121 16.5,60.25 14.66,87.382 -1.85,27.129 -10.51,50.868 -25.98,71.207 -15.48,20.34 -35.82,35.211 -61.02,44.633 -35.81,13.379 -71.21,12.578 -106.2,-2.371 -35.01,-14.949 -63.26,-51.191 -84.75,-108.719 z m -51.85,20.27 c 23.7,63.43 59.29,106.73 106.77,129.91 47.47,23.149 98.16,24.68 152.03,4.551 35.29,-13.184 63.95,-33.5 85.98,-60.942 22.03,-27.449 34.84,-59.019 38.44,-94.73 3.6,-35.711 -1.75,-72.691 -16.04,-110.918 -14.48,-38.762 -35.25,-70.523 -62.32,-95.273 -27.07,-24.739 -57.89,-39.618 -92.44,-44.629 -34.57,-5.02 -68.44,-1.328 -101.64,11.07 -35.97,13.449 -64.89,34.148 -86.72,62.109 -21.84,27.973 -34.45,59.723 -37.81,95.243 -3.37,35.519 1.21,70.046 13.75,103.609" /><path
         id="path88"
         style="fill:none;stroke:#ed1c24;stroke-width:5;stroke-linecap:butt;stroke-linejoin:miter;stroke-miterlimit:10;stroke-dasharray:none;stroke-opacity:1"
         d="m 1408.38,529.941 c -17.21,-46.062 -18.38,-86.972 -3.52,-122.73 14.88,-35.762 40.99,-60.621 78.36,-74.582 38.07,-14.219 74.4,-12.539 108.99,5.043 34.6,17.578 61.08,50.949 79.46,100.137 11.62,31.121 16.5,60.25 14.66,87.382 -1.85,27.129 -10.51,50.868 -25.98,71.207 -15.48,20.34 -35.82,35.211 -61.02,44.633 -35.81,13.379 -71.21,12.578 -106.2,-2.371 -35.01,-14.949 -63.26,-51.191 -84.75,-108.719 z m -51.85,20.27 c 23.7,63.43 59.29,106.73 106.77,129.91 47.47,23.149 98.16,24.68 152.03,4.551 35.29,-13.184 63.95,-33.5 85.98,-60.942 22.03,-27.449 34.84,-59.019 38.44,-94.73 3.6,-35.711 -1.75,-72.691 -16.04,-110.918 -14.48,-38.762 -35.25,-70.523 -62.32,-95.273 -27.07,-24.739 -57.89,-39.618 -92.44,-44.629 -34.57,-5.02 -68.44,-1.328 -101.64,11.07 -35.97,13.449 -64.89,34.148 -86.72,62.109 -21.84,27.973 -34.45,59.723 -37.81,95.243 -3.37,35.519 1.21,70.046 13.75,103.609 z" /><path
         id="path90"
         style="fill:#ed1c24;fill-opacity:1;fill-rule:nonzero;stroke:none"
         d="m 2077,311.07 52.03,-19.879 c -16.43,-42.711 -40.62,-73.91 -72.55,-93.589 -31.94,-19.68 -69,-27.032 -111.2,-22.063 -43.67,5.152 -78.14,18.231 -103.4,39.242 -25.28,21.008 -43.06,49.219 -53.36,84.629 -10.31,35.399 -13.18,72.449 -8.62,111.149 4.98,42.191 17.38,78.05 37.21,107.57 19.82,29.512 45.59,50.672 77.27,63.473 31.67,12.796 65.4,17.089 101.15,12.867 40.53,-4.77 73.41,-19.117 98.61,-43.008 25.21,-23.902 41.05,-55.199 47.5,-93.883 l -54.26,-6.207 c -5.92,30.578 -17.03,53.66 -33.31,69.219 -16.29,15.551 -37.98,24.941 -65.07,28.129 -31.14,3.672 -58.04,-0.719 -80.72,-13.18 -22.67,-12.457 -39.74,-30.758 -51.17,-54.918 -11.45,-24.152 -18.74,-49.59 -21.9,-76.312 -4.06,-34.45 -2.58,-65.129 4.43,-92.02 7.01,-26.891 20.36,-47.937 40.06,-63.16 19.68,-15.207 41.87,-24.27 66.57,-27.188 30.04,-3.531 56.48,2.118 79.36,17 22.86,14.86 39.99,38.899 51.37,72.129" /><path
         id="path92"
         style="fill:none;stroke:#ed1c24;stroke-width:5;stroke-linecap:butt;stroke-linejoin:miter;stroke-miterlimit:10;stroke-dasharray:none;stroke-opacity:1"
         d="m 2077,311.07 52.03,-19.879 c -16.43,-42.711 -40.62,-73.91 -72.55,-93.589 -31.94,-19.68 -69,-27.032 -111.2,-22.063 -43.67,5.152 -78.14,18.231 -103.4,39.242 -25.28,21.008 -43.06,49.219 -53.36,84.629 -10.31,35.399 -13.18,72.449 -8.62,111.149 4.98,42.191 17.38,78.05 37.21,107.57 19.82,29.512 45.59,50.672 77.27,63.473 31.67,12.796 65.4,17.089 101.15,12.867 40.53,-4.77 73.41,-19.117 98.61,-43.008 25.21,-23.902 41.05,-55.199 47.5,-93.883 l -54.26,-6.207 c -5.92,30.578 -17.03,53.66 -33.31,69.219 -16.29,15.551 -37.98,24.941 -65.07,28.129 -31.14,3.672 -58.04,-0.719 -80.72,-13.18 -22.67,-12.457 -39.74,-30.758 -51.17,-54.918 -11.45,-24.152 -18.74,-49.59 -21.9,-76.312 -4.06,-34.45 -2.58,-65.129 4.43,-92.02 7.01,-26.891 20.36,-47.937 40.06,-63.16 19.68,-15.207 41.87,-24.27 66.57,-27.188 30.04,-3.531 56.48,2.118 79.36,17 22.86,14.86 39.99,38.899 51.37,72.129 z" /><path
         id="path94"
         style="fill:#ed1c24;fill-opacity:1;fill-rule:nonzero;stroke:none"
         d="m 2207.63,170.52 -13.25,407.8 53.97,1.75 13.24,-407.8 -53.96,-1.75" /><path
         id="path96"
         style="fill:none;stroke:#ed1c24;stroke-width:5;stroke-linecap:butt;stroke-linejoin:miter;stroke-miterlimit:10;stroke-dasharray:none;stroke-opacity:1"
         d="m 2207.63,170.52 -13.25,407.8 53.97,1.75 13.24,-407.8 z" /><path
         id="path98"
         style="fill:#ed1c24;fill-opacity:1;fill-rule:nonzero;stroke:none"
         d="m 2370.09,175.148 -70.09,401.954 290.63,50.679 8.28,-47.441 -237.45,-41.391 21.47,-123.117 222.36,38.777 8.23,-47.16 -222.37,-38.777 23.86,-136.813 246.77,43.02 8.27,-47.43 -299.96,-52.301" /><path
         id="path100"
         style="fill:none;stroke:#ed1c24;stroke-width:5;stroke-linecap:butt;stroke-linejoin:miter;stroke-miterlimit:10;stroke-dasharray:none;stroke-opacity:1"
         d="m 2370.09,175.148 -70.09,401.954 290.63,50.679 8.28,-47.441 -237.45,-41.391 21.47,-123.117 222.36,38.777 8.23,-47.16 -222.37,-38.777 23.86,-136.813 246.77,43.02 8.27,-47.43 z" /><path
         id="path102"
         style="fill:#ed1c24;fill-opacity:1;fill-rule:nonzero;stroke:none"
         d="m 2890.48,304.93 -134.65,333.73 -124.67,-50.289 -18.01,44.649 299.93,121 18,-44.649 -125.17,-50.5 134.64,-333.73 -50.07,-20.211" /><path
         id="path104"
         style="fill:none;stroke:#ed1c24;stroke-width:5;stroke-linecap:butt;stroke-linejoin:miter;stroke-miterlimit:10;stroke-dasharray:none;stroke-opacity:1"
         d="m 2890.48,304.93 -134.65,333.73 -124.67,-50.289 -18.01,44.649 299.93,121 18,-44.649 -125.17,-50.5 134.64,-333.73 z" /><path
         id="path106"
         style="fill:#ed1c24;fill-opacity:1;fill-rule:nonzero;stroke:none"
         d="m 3257.85,493.379 -96.65,143.293 -261.87,107.039 54.45,36.73 135.48,-57.011 c 25.16,-10.77 49.5,-22.121 72.98,-34.032 -1.78,24.543 -2.91,52.762 -3.4,84.661 l -1.55,143.652 52.15,35.168 -3.47,-286.02 96.65,-143.277 -44.77,-30.203" /><path
         id="path108"
         style="fill:none;stroke:#ed1c24;stroke-width:5;stroke-linecap:butt;stroke-linejoin:miter;stroke-miterlimit:10;stroke-dasharray:none;stroke-opacity:1"
         d="m 3257.85,493.379 -96.65,143.293 -261.87,107.039 54.45,36.73 135.48,-57.011 c 25.16,-10.77 49.5,-22.121 72.98,-34.032 -1.78,24.543 -2.91,52.762 -3.4,84.661 l -1.55,143.652 52.15,35.168 -3.47,-286.02 96.65,-143.277 z" /><path
         id="path110"
         style="fill:#ed1c24;fill-opacity:1;fill-rule:nonzero;stroke:none"
         d="m 2167.84,3577.71 c -777.4,0 -1409.86,-632.46 -1409.86,-1409.87 0,-777.4 632.46,-1409.86 1409.86,-1409.86 777.4,0 1409.87,632.46 1409.87,1409.86 0,777.41 -632.47,1409.87 -1409.87,1409.87 z m 0,-2869.73 c -804.97,0 -1459.86,654.89 -1459.86,1459.86 0,804.98 654.89,1459.87 1459.86,1459.87 804.97,0 1459.87,-654.89 1459.87,-1459.87 0,-804.97 -654.9,-1459.86 -1459.87,-1459.86" /><path
         id="path112"
         style="fill:#ed1c24;fill-opacity:1;fill-rule:nonzero;stroke:none"
         d="M 2167.84,4285.69 C 1000.06,4285.69 50,3335.63 50,2167.84 50,1000.06 1000.06,50 2167.84,50 c 1167.79,0 2117.84,950.06 2117.84,2117.84 0,1167.79 -950.05,2117.85 -2117.84,2117.85 z M 2167.84,0 C 1588.79,0 1044.4,225.5 634.945,634.949 225.492,1044.4 0,1588.79 0,2167.84 c 0,579.06 225.492,1123.45 634.945,1532.9 409.455,409.46 953.845,634.95 1532.895,634.95 579.05,0 1123.45,-225.49 1532.89,-634.95 409.46,-409.45 634.95,-953.84 634.95,-1532.9 0,-579.05 -225.49,-1123.44 -634.95,-1532.891 C 3291.29,225.5 2746.89,0 2167.84,0" /><path
         id="path114"
         style="fill:#ed1c24;fill-opacity:1;fill-rule:nonzero;stroke:none"
         d="M 3297.51,2544.4 H 2544.4 v 753.11 H 1791.29 V 2544.4 h -753.11 v -753.11 h 753.11 v -753.11 h 753.11 v 753.11 h 753.11 v 753.11" /></g></g></svg>