<?xml version="1.0" encoding="UTF-8" standalone="no"?>
<!-- Created with Inkscape (http://www.inkscape.org/) -->

<svg
   version="1.1"
   id="svg1"
   width="108.52"
   height="137.228"
   viewBox="0 0 108.52 137.228"
   sodipodi:docname="Timor Cruz Vermelha.svg"
   inkscape:version="1.3.2 (091e20e, 2023-11-25, custom)"
   xmlns:inkscape="http://www.inkscape.org/namespaces/inkscape"
   xmlns:sodipodi="http://sodipodi.sourceforge.net/DTD/sodipodi-0.dtd"
   xmlns="http://www.w3.org/2000/svg"
   xmlns:svg="http://www.w3.org/2000/svg">
  <defs
     id="defs1">
    <clipPath
       clipPathUnits="userSpaceOnUse"
       id="clipPath4">
      <path
         d="M 0,102.921 H 81.36 V 0.06 H 0 Z"
         transform="translate(-2.0000001,-40.695001)"
         id="path4" />
    </clipPath>
  </defs>
  <sodipodi:namedview
     id="namedview1"
     pagecolor="#ffffff"
     bordercolor="#666666"
     borderopacity="1.0"
     inkscape:showpageshadow="2"
     inkscape:pageopacity="0.0"
     inkscape:pagecheckerboard="0"
     inkscape:deskcolor="#d1d1d1"
     inkscape:export-bgcolor="#ffffffff"
     inkscape:zoom="5.9827443"
     inkscape:cx="54.239323"
     inkscape:cy="68.613997"
     inkscape:window-width="1920"
     inkscape:window-height="1017"
     inkscape:window-x="-8"
     inkscape:window-y="-8"
     inkscape:window-maximized="1"
     inkscape:current-layer="g1">
    <inkscape:page
       x="0"
       y="0"
       inkscape:label="1"
       id="page1"
       width="108.52"
       height="137.228"
       margin="0"
       bleed="0"
       inkscape:export-filename="Timor Cruz Vermelha.png"
       inkscape:export-xdpi="300"
       inkscape:export-ydpi="300" />
  </sodipodi:namedview>
  <g
     id="g1"
     inkscape:groupmode="layer"
     inkscape:label="1">
    <g
       id="group-MC1">
      <path
         id="path2"
         d="M 0,0 C 0,0.119 -0.004,0.236 -0.008,0.354 L -0.035,1.663 H 0 V 60.226 H -77.39 V 1.663 h 0.016 l 10e-4,-1.015 -0.009,-0.301 C -77.386,0.232 -77.39,0.116 -77.39,0 c 0,-21.337 17.358,-38.695 38.695,-38.695 C -17.359,-38.695 0,-21.337 0,0"
         style="fill:#ffffff;fill-opacity:1;fill-rule:nonzero;stroke:none"
         transform="matrix(1.3333333,0,0,-1.3333333,105.85333,82.968)" />
      <path
         id="path3"
         d="M 0,0 C 0,0.116 0.0039,0.232 0.0083,0.347 L 0.0166,0.648 0.0156,1.663 H 0 V 60.226 H 77.39 V 1.663 H 77.355 L 77.382,0.354 C 77.386,0.236 77.39,0.119 77.39,0 77.39,-21.337 60.031,-38.695 38.695,-38.695 17.358,-38.695 0,-21.337 0,0 Z M -2,62.226 V 0.663 L -1.9941,0.312 C -1.9976,0.208 -2,0.104 -2,0 c 0,-22.439 18.256,-40.695 40.695,-40.695 22.327,0 40.513,18.073 40.694,40.358 L 79.39,62.226 H -2"
         style="fill:#ed1c24;fill-opacity:1;fill-rule:nonzero;stroke:none"
         transform="matrix(1.3333333,0,0,-1.3333333,2.6666667,82.968)"
         clip-path="url(#clipPath4)" />
      <path
         id="path5"
         d="M 0,0 1.039,-0.398 C 0.878,-1.119 0.61,-1.646 0.2348,-1.978 c -0.375,-0.333 -0.8369,-0.499 -1.3838,-0.499 -0.6889,0 -1.247,0.266 -1.6748,0.796 -0.4922,0.613 -0.7392,1.439 -0.7392,2.479 0,1.099 0.249,1.959 0.7441,2.58 0.4307,0.54 1.0098,0.81 1.7378,0.81 0.5933,0 1.0879,-0.202 1.4873,-0.606 C 0.691,3.295 0.899,2.87 1.031,2.305 L -0.023,2 c -0.0679,0.348 -0.2021,0.614 -0.4028,0.8 -0.2012,0.185 -0.438,0.278 -0.7114,0.278 -0.3897,0 -0.708,-0.17 -0.9537,-0.511 -0.247,-0.34 -0.3701,-0.901 -0.3701,-1.685 0,-0.813 0.1201,-1.391 0.3589,-1.734 0.2403,-0.344 0.5503,-0.515 0.9331,-0.515 0.2798,0 0.523,0.109 0.7271,0.327 C -0.2378,-0.821 -0.0909,-0.475 0,0"
         style="fill:#231f20;fill-opacity:1;fill-rule:nonzero;stroke:none"
         transform="matrix(1.3333333,0,0,-1.3333333,12.6356,16.36)" />
      <path
         id="path6"
         d="m 0,0 h 0.791 c 0.482,0 0.79,0.021 0.922,0.063 0.131,0.043 0.238,0.129 0.32,0.257 0.082,0.129 0.123,0.301 0.123,0.514 0,0.205 -0.041,0.37 -0.123,0.494 C 1.951,1.452 1.84,1.538 1.7,1.584 1.6,1.617 1.312,1.633 0.834,1.633 H 0 Z m -1.063,-3.719 v 6.446 h 2.247 c 0.574,0 0.984,-0.059 1.23,-0.174 C 2.66,2.437 2.862,2.236 3.021,1.95 3.179,1.664 3.258,1.322 3.258,0.922 3.258,0.418 3.137,0.012 2.896,-0.296 2.654,-0.604 2.311,-0.798 1.865,-0.877 2.094,-1.041 2.283,-1.22 2.433,-1.415 2.582,-1.609 2.786,-1.958 3.044,-2.462 L 3.688,-3.719 H 2.41 l -0.771,1.402 c -0.277,0.506 -0.465,0.823 -0.565,0.95 -0.1,0.128 -0.206,0.215 -0.317,0.263 -0.111,0.049 -0.291,0.073 -0.537,0.073 H 0 v -2.688 h -1.063"
         style="fill:#231f20;fill-opacity:1;fill-rule:nonzero;stroke:none"
         transform="matrix(1.3333333,0,0,-1.3333333,17.253333,14.557333)" />
      <path
         id="path7"
         d="m 0,0 h 1.063 v -3.493 c 0,-0.542 0.013,-0.895 0.04,-1.059 0.047,-0.285 0.16,-0.505 0.338,-0.66 0.18,-0.156 0.415,-0.233 0.708,-0.233 0.248,0 0.451,0.055 0.607,0.165 0.157,0.11 0.264,0.262 0.322,0.457 0.057,0.195 0.086,0.614 0.086,1.256 V 0 H 4.227 V -3.385 C 4.227,-4.25 4.18,-4.875 4.087,-5.26 3.995,-5.646 3.787,-5.958 3.462,-6.196 3.137,-6.435 2.709,-6.555 2.177,-6.555 1.625,-6.555 1.194,-6.456 0.884,-6.258 0.574,-6.06 0.349,-5.782 0.209,-5.423 0.07,-5.064 0,-4.402 0,-3.438 V 0"
         style="fill:#231f20;fill-opacity:1;fill-rule:nonzero;stroke:none"
         transform="matrix(1.3333333,0,0,-1.3333333,23.528,10.921333)" />
      <path
         id="path8"
         d="M 0,0 V 1.181 L 2.78,5.352 H 0.313 V 6.445 H 4.18 V 5.431 L 1.289,1.094 H 4.297 V 0 H 0"
         style="fill:#231f20;fill-opacity:1;fill-rule:nonzero;stroke:none"
         transform="matrix(1.3333333,0,0,-1.3333333,30.625333,19.516)" />
      <path
         id="path9"
         d="m 0,0 -1.893,6.445 h 1.147 l 1.341,-4.77 1.292,4.77 H 3.021 L 1.129,0 H 0"
         style="fill:#231f20;fill-opacity:1;fill-rule:nonzero;stroke:none"
         transform="matrix(1.3333333,0,0,-1.3333333,43.784,19.516)" />
      <path
         id="path10"
         d="M 0,0 V 6.445 H 3.921 V 5.352 H 1.063 V 3.93 H 3.718 V 2.844 H 1.063 V 1.094 H 4.015 V 0 H 0"
         style="fill:#231f20;fill-opacity:1;fill-rule:nonzero;stroke:none"
         transform="matrix(1.3333333,0,0,-1.3333333,49.141333,19.516)" />
      <path
         id="path11"
         d="M 0,0 H 0.791 C 1.273,0 1.58,0.021 1.713,0.063 1.844,0.106 1.951,0.192 2.033,0.32 2.115,0.449 2.156,0.621 2.156,0.834 2.156,1.039 2.115,1.204 2.033,1.328 1.951,1.452 1.84,1.538 1.699,1.584 1.6,1.617 1.311,1.633 0.834,1.633 H 0 Z m -1.063,-3.719 v 6.446 h 2.247 c 0.574,0 0.984,-0.059 1.23,-0.174 C 2.66,2.437 2.861,2.236 3.02,1.95 3.178,1.664 3.258,1.322 3.258,0.922 3.258,0.418 3.137,0.012 2.895,-0.296 2.654,-0.604 2.311,-0.798 1.865,-0.877 2.094,-1.041 2.283,-1.22 2.432,-1.415 2.582,-1.609 2.785,-1.958 3.045,-2.462 l 0.643,-1.257 h -1.28 l -0.769,1.402 c -0.278,0.506 -0.465,0.823 -0.565,0.95 -0.101,0.128 -0.207,0.215 -0.318,0.263 -0.111,0.049 -0.289,0.073 -0.537,0.073 H 0 v -2.688 h -1.063"
         style="fill:#231f20;fill-opacity:1;fill-rule:nonzero;stroke:none"
         transform="matrix(1.3333333,0,0,-1.3333333,57.721333,14.557333)" />
      <path
         id="path12"
         d="M 0,0 V 6.445 H 1.596 L 2.551,2.041 3.5,6.445 H 5.102 V 0 H 4.109 V 5.082 L 3.061,0 H 2.041 L 0.992,5.082 V 0 H 0"
         style="fill:#231f20;fill-opacity:1;fill-rule:nonzero;stroke:none"
         transform="matrix(1.3333333,0,0,-1.3333333,63.984,19.516)" />
      <path
         id="path13"
         d="M 0,0 V 6.445 H 3.922 V 5.352 H 1.062 V 3.93 H 3.719 V 2.844 H 1.062 V 1.094 H 4.016 V 0 H 0"
         style="fill:#231f20;fill-opacity:1;fill-rule:nonzero;stroke:none"
         transform="matrix(1.3333333,0,0,-1.3333333,72.804,19.516)" />
      <path
         id="path14"
         d="M 0,0 V 6.391 H 1.063 V 1.094 H 3.719 L 3.719,0 H 0"
         style="fill:#231f20;fill-opacity:1;fill-rule:nonzero;stroke:none"
         transform="matrix(1.3333333,0,0,-1.3333333,79.986667,19.516)" />
      <path
         id="path15"
         d="M 0,0 V 6.445 H 1.063 V 3.914 H 3.164 V 6.445 H 4.227 V 0 H 3.164 V 2.82 H 1.063 L 1.063,0 H 0"
         style="fill:#231f20;fill-opacity:1;fill-rule:nonzero;stroke:none"
         transform="matrix(1.3333333,0,0,-1.3333333,86.577333,19.516)" />
      <path
         id="path16"
         d="M 0,0 -0.734,2.394 -1.451,0 Z M 1.957,-2.547 H 0.799 L 0.34,-1.094 h -2.119 l -0.436,-1.453 h -1.133 l 2.053,6.445 h 1.137 l 2.115,-6.445"
         style="fill:#231f20;fill-opacity:1;fill-rule:nonzero;stroke:none"
         transform="matrix(1.3333333,0,0,-1.3333333,98.025333,16.12)" />
      <path
         id="path17"
         d="m 0,0 v -4.258 h 0.7978 c 0.3423,0 0.5903,0.032 0.7432,0.096 0.1528,0.065 0.2788,0.162 0.3769,0.292 0.0982,0.13 0.1792,0.336 0.2432,0.617 0.0649,0.28 0.0972,0.65 0.0972,1.109 0,0.477 -0.0332,0.852 -0.0992,1.127 C 2.0932,-0.743 1.9912,-0.526 1.853,-0.369 1.7128,-0.21 1.5449,-0.107 1.3461,-0.057 1.1972,-0.019 0.9091,0 0.4819,0 Z m -1.063,1.094 h 1.9438 c 0.4912,0 0.8623,-0.055 1.1123,-0.165 0.25,-0.11 0.48,-0.296 0.6909,-0.556 0.211,-0.261 0.376,-0.6 0.496,-1.016 0.119,-0.416 0.179,-0.934 0.179,-1.552 0,-0.556 -0.063,-1.041 -0.188,-1.453 C 3.045,-4.06 2.886,-4.386 2.6918,-4.626 2.5,-4.867 2.267,-5.047 1.9931,-5.169 1.7202,-5.291 1.3681,-5.352 0.9379,-5.352 H -1.063 v 6.446"
         style="fill:#231f20;fill-opacity:1;fill-rule:nonzero;stroke:none"
         transform="matrix(1.3333333,0,0,-1.3333333,9.5418667,25.713333)" />
      <path
         id="path18"
         d="M 0,0 V 6.445 H 3.922 V 5.352 H 1.063 V 3.93 H 3.719 V 2.844 H 1.063 V 1.094 H 4.016 V 0 H 0"
         style="fill:#231f20;fill-opacity:1;fill-rule:nonzero;stroke:none"
         transform="matrix(1.3333333,0,0,-1.3333333,15.837333,32.849333)" />
      <path
         id="path19"
         d="M 0,0 V 5.352 H -1.57 V 6.445 H 2.625 V 5.352 H 1.063 V 0 H 0"
         style="fill:#231f20;fill-opacity:1;fill-rule:nonzero;stroke:none"
         transform="matrix(1.3333333,0,0,-1.3333333,29.914667,32.849333)" />
      <path
         id="path20"
         d="m 26.176,78.284 h 1.0625 v 6.4448 H 26.176 Z"
         style="fill:#231f20;fill-opacity:1;fill-rule:nonzero;stroke:none"
         transform="matrix(1.3333333,0,0,-1.3333333,0,137.228)" />
      <path
         id="path21"
         d="M 0,0 V 6.445 H 1.594 L 2.551,2.041 3.499,6.445 H 5.102 V 0 H 4.109 V 5.082 L 3.061,0 H 2.04 L 0.992,5.082 V 0 H 0"
         style="fill:#231f20;fill-opacity:1;fill-rule:nonzero;stroke:none"
         transform="matrix(1.3333333,0,0,-1.3333333,38.257333,32.849333)" />
      <path
         id="path22"
         d="m 0,0 c 0,-0.742 0.141,-1.299 0.422,-1.67 0.281,-0.372 0.629,-0.557 1.045,-0.557 0.419,0 0.766,0.184 1.042,0.552 0.275,0.368 0.413,0.934 0.413,1.697 C 2.922,0.77 2.788,1.323 2.52,1.681 2.251,2.039 1.901,2.218 1.467,2.218 1.034,2.218 0.681,2.038 0.409,1.677 0.136,1.316 0,0.757 0,0 m -1.102,-0.044 c 0,0.768 0.114,1.4 0.341,1.897 0.227,0.497 0.524,0.867 0.89,1.11 0.367,0.243 0.81,0.365 1.332,0.365 0.756,0 1.372,-0.289 1.849,-0.866 0.475,-0.578 0.713,-1.399 0.713,-2.466 0,-1.079 -0.252,-1.921 -0.755,-2.528 -0.443,-0.536 -1.044,-0.804 -1.803,-0.804 -0.764,0 -1.368,0.265 -1.811,0.795 -0.504,0.607 -0.756,1.439 -0.756,2.497"
         style="fill:#231f20;fill-opacity:1;fill-rule:nonzero;stroke:none"
         transform="matrix(1.3333333,0,0,-1.3333333,48.253333,28.546667)" />
      <path
         id="path23"
         d="M 0,0 H 0.791 C 1.273,0 1.58,0.021 1.713,0.063 1.844,0.106 1.951,0.192 2.033,0.32 2.115,0.449 2.156,0.621 2.156,0.834 2.156,1.039 2.115,1.204 2.033,1.328 1.951,1.452 1.84,1.538 1.699,1.584 1.6,1.617 1.31,1.633 0.834,1.633 H 0 Z m -1.062,-3.719 v 6.446 h 2.246 c 0.574,0 0.984,-0.059 1.23,-0.174 C 2.66,2.437 2.861,2.236 3.02,1.95 3.178,1.664 3.258,1.322 3.258,0.922 3.258,0.418 3.137,0.012 2.895,-0.296 2.654,-0.604 2.311,-0.798 1.865,-0.877 2.094,-1.041 2.283,-1.22 2.432,-1.415 2.582,-1.609 2.785,-1.958 3.045,-2.462 l 0.643,-1.257 h -1.28 l -0.769,1.402 c -0.278,0.506 -0.465,0.823 -0.565,0.95 -0.101,0.128 -0.207,0.215 -0.318,0.263 -0.111,0.049 -0.289,0.073 -0.537,0.073 H 0 v -2.688 h -1.062"
         style="fill:#231f20;fill-opacity:1;fill-rule:nonzero;stroke:none"
         transform="matrix(1.3333333,0,0,-1.3333333,56.752,27.890667)" />
      <path
         id="path24"
         d="m 46.972,80.003 h 1.9844 v 1.2344 H 46.972 Z"
         style="fill:#231f20;fill-opacity:1;fill-rule:nonzero;stroke:none"
         transform="matrix(1.3333333,0,0,-1.3333333,0,137.228)" />
      <path
         id="path25"
         d="M 0,0 V 6.391 H 1.063 V 1.094 H 3.719 L 3.719,0 H 0"
         style="fill:#231f20;fill-opacity:1;fill-rule:nonzero;stroke:none"
         transform="matrix(1.3333333,0,0,-1.3333333,66.932,32.849333)" />
      <path
         id="path26"
         d="M 0,0 V 6.445 H 3.922 V 5.352 H 1.063 V 3.93 H 3.719 V 2.844 H 1.063 V 1.094 H 4.016 V 0 H 0"
         style="fill:#231f20;fill-opacity:1;fill-rule:nonzero;stroke:none"
         transform="matrix(1.3333333,0,0,-1.3333333,73.522667,32.849333)" />
      <path
         id="path27"
         d="m 0,0 1.039,0.125 c 0.117,-0.823 0.5,-1.234 1.15,-1.234 0.323,0 0.577,0.084 0.76,0.252 0.186,0.169 0.278,0.377 0.278,0.626 0,0.146 -0.034,0.271 -0.098,0.373 C 3.065,0.245 2.967,0.329 2.834,0.395 2.701,0.46 2.383,0.571 1.875,0.726 1.42,0.863 1.088,1.012 0.877,1.173 0.666,1.334 0.498,1.546 0.373,1.808 0.25,2.07 0.188,2.352 0.188,2.653 c 0,0.351 0.08,0.667 0.238,0.948 0.16,0.281 0.381,0.493 0.662,0.637 0.281,0.143 0.629,0.215 1.043,0.215 0.621,0 1.105,-0.168 1.455,-0.506 C 3.936,3.61 4.119,3.127 4.141,2.5 L 3.07,2.445 C 3.024,2.791 2.922,3.031 2.768,3.169 2.611,3.306 2.391,3.375 2.105,3.375 1.818,3.375 1.598,3.315 1.443,3.196 1.287,3.077 1.211,2.928 1.211,2.751 1.211,2.576 1.281,2.429 1.42,2.31 1.561,2.191 1.885,2.059 2.391,1.915 2.926,1.758 3.314,1.594 3.553,1.422 3.791,1.251 3.975,1.03 4.1,0.759 4.227,0.488 4.289,0.159 4.289,-0.228 4.289,-0.788 4.117,-1.258 3.774,-1.639 3.43,-2.021 2.891,-2.211 2.16,-2.211 0.865,-2.211 0.146,-1.474 0,0"
         style="fill:#231f20;fill-opacity:1;fill-rule:nonzero;stroke:none"
         transform="matrix(1.3333333,0,0,-1.3333333,80.333333,30.046667)" />
      <path
         id="path28"
         d="M 0,0 V 5.352 H -1.57 V 6.445 H 2.625 V 5.352 H 1.063 V 0 H 0"
         style="fill:#231f20;fill-opacity:1;fill-rule:nonzero;stroke:none"
         transform="matrix(1.3333333,0,0,-1.3333333,89.432,32.849333)" />
      <path
         id="path29"
         d="M 0,0 V 6.445 H 3.922 V 5.352 H 1.063 V 3.93 H 3.719 V 2.844 H 1.063 V 1.094 H 4.016 V 0 H 0"
         style="fill:#231f20;fill-opacity:1;fill-rule:nonzero;stroke:none"
         transform="matrix(1.3333333,0,0,-1.3333333,94.46,32.849333)" />
      <path
         id="path30"
         d="M 0,0 H -20.684 V 20.684 H -39.553 V 0 h -20.684 v -18.869 h 20.684 v -20.684 h 18.869 v 20.684 H 0 L 0,0"
         style="fill:#ed1c24;fill-opacity:1;fill-rule:nonzero;stroke:none"
         transform="matrix(1.3333333,0,0,-1.3333333,94.418667,67.449333)" />
    </g>
  </g>
</svg>
