<?xml version="1.0" encoding="utf-8"?>
<!-- Generator: Adobe Illustrator 23.0.2, SVG Export Plug-In . SVG Version: 6.00 Build 0)  -->
<svg version="1.1"
	 id="svg2" xmlns:cc="http://creativecommons.org/ns#" xmlns:dc="http://purl.org/dc/elements/1.1/" xmlns:inkscape="http://www.inkscape.org/namespaces/inkscape" xmlns:rdf="http://www.w3.org/1999/02/22-rdf-syntax-ns#" xmlns:sodipodi="http://sodipodi.sourceforge.net/DTD/sodipodi-0.dtd" xmlns:svg="http://www.w3.org/2000/svg"
	 xmlns="http://www.w3.org/2000/svg" xmlns:xlink="http://www.w3.org/1999/xlink" x="0px" y="0px" viewBox="0 0 731.1 197.7"
	 style="enable-background:new 0 0 731.1 197.7;" xml:space="preserve">
<style type="text/css">
	.st0{fill:#FFFFFF;}
	.st1{fill:#EE2E24;}
</style>
<sodipodi:namedview  bordercolor="#666666" borderopacity="1.0" fit-margin-bottom="0" fit-margin-left="0" fit-margin-right="0" fit-margin-top="0" id="base" inkscape:current-layer="layer1" inkscape:cx="317.48609" inkscape:cy="41.830816" inkscape:document-units="px" inkscape:guide-bbox="true" inkscape:pageopacity="0.0" inkscape:pageshadow="2" inkscape:window-height="705" inkscape:window-maximized="1" inkscape:window-width="1366" inkscape:window-x="-8" inkscape:window-y="-8" inkscape:zoom="0.98994949" pagecolor="#ffffff" showgrid="false" showguides="true">
	<sodipodi:guide  id="guide3114" orientation="1,0" position="42.21405,64.733562"></sodipodi:guide>
	<sodipodi:guide  id="guide3131" orientation="0,1" position="22.03548,38.438922"></sodipodi:guide>
</sodipodi:namedview>
<g id="layer1" transform="translate(-206.53595,-428.68768)" inkscape:groupmode="layer" inkscape:label="Capa 1">
	<rect id="rect3129" x="206.5" y="428.7" class="st0" width="731.1" height="197.7"/>
	<rect id="rect2996" x="293.5" y="466" class="st1" width="42.8" height="123.2"/>
	<rect id="rect2998" x="253.3" y="506.2" class="st1" width="123.2" height="42.8"/>
	<g id="text3000">
		<path id="path3134" d="M461.1,508.1v10.6h-0.9c-0.7-2.8-1.9-4.9-3.7-6.4c-1.8-1.5-3.9-2.2-6.1-2.2c-1.9,0-3.7,0.5-5.3,1.6
			c-1.6,1.1-2.8,2.5-3.5,4.3c-0.9,2.3-1.4,4.8-1.4,7.6c0,2.7,0.3,5.2,1,7.5c0.7,2.2,1.8,3.9,3.2,5.1c1.5,1.2,3.4,1.7,5.7,1.7
			c1.9,0,3.7-0.4,5.3-1.3c1.6-0.8,3.3-2.3,5.1-4.4v2.6c-1.7,1.8-3.5,3.1-5.4,3.9c-1.9,0.8-4,1.2-6.5,1.2c-3.3,0-6.2-0.7-8.7-2
			s-4.5-3.2-5.9-5.6c-1.4-2.5-2.1-5.1-2.1-7.8c0-2.9,0.8-5.7,2.3-8.3s3.6-4.6,6.2-6.1c2.6-1.4,5.4-2.2,8.3-2.2
			c2.2,0,4.4,0.5,6.8,1.4c1.4,0.5,2.3,0.8,2.6,0.8c0.5,0,0.9-0.2,1.3-0.5c0.4-0.4,0.6-0.9,0.7-1.7h1V508.1z"/>
		<path id="path3136" d="M473.9,518.3v4.8c1.4-2.2,2.6-3.6,3.7-4.3s2.1-1.1,3-1.1c0.8,0,1.5,0.3,2,0.8s0.8,1.3,0.8,2.2
			c0,1-0.2,1.8-0.7,2.3c-0.5,0.6-1.1,0.8-1.8,0.8c-0.8,0-1.5-0.3-2.1-0.8s-0.9-0.8-1-0.9c-0.2-0.1-0.3-0.1-0.5-0.1
			c-0.4,0-0.8,0.2-1.2,0.5c-0.6,0.5-1.1,1.2-1.4,2.2c-0.5,1.5-0.7,3.1-0.7,4.8v4.9v1.3c0,0.9,0.1,1.4,0.2,1.6
			c0.2,0.4,0.4,0.7,0.8,0.9s1,0.3,1.8,0.3v0.8h-11.4v-0.8c0.9-0.1,1.5-0.3,1.9-0.8c0.3-0.4,0.5-1.6,0.5-3.4v-11.7
			c0-1.2-0.1-2-0.2-2.3c-0.2-0.4-0.4-0.7-0.7-0.9c-0.3-0.2-0.8-0.3-1.5-0.4v-0.8L473.9,518.3z"/>
		<path id="path3138" d="M506.1,518.3v16.5c0,1.6,0.2,2.6,0.5,3s0.9,0.7,1.8,0.8v0.8h-8.6v-2.8c-1,1.2-2,2.1-3,2.6s-2.1,0.8-3.4,0.8
			c-1.2,0-2.2-0.4-3.2-1.1c-0.9-0.7-1.5-1.6-1.9-2.6c-0.3-1-0.5-2.7-0.5-5.1v-8.4c0-1.6-0.1-2.6-0.4-3s-0.9-0.6-1.8-0.8v-0.8h8.6
			v14.4c0,1.5,0.1,2.5,0.2,2.9s0.4,0.8,0.7,1c0.3,0.2,0.7,0.3,1.1,0.3c0.5,0,1-0.1,1.5-0.4c0.6-0.4,1.3-1.2,2.2-2.4v-11.3
			c0-1.6-0.1-2.6-0.4-3s-0.9-0.6-1.8-0.8v-0.8h8.4V518.3z"/>
		<path id="path3140" d="M528.7,539.4h-18.4v-0.5l11.6-19.2h-3.4c-1.5,0-2.5,0.1-3.1,0.4c-0.6,0.3-1.1,0.7-1.5,1.3s-0.8,1.6-1.2,3.1
			h-0.8v-6.1h17.8v0.6l-11.5,19h1.4c2.9,0,5-0.4,6.3-1.2s2.2-2.3,2.9-4.5h0.6L528.7,539.4z"/>
		<path id="path3142" d="M554.2,525.4v8.6c0,1.7,0.1,2.7,0.3,3.1c0.2,0.4,0.6,0.8,1.1,1s1.5,0.4,2.9,0.4v0.8h-15.7v-0.8
			c1.4,0,2.4-0.1,2.9-0.4c0.5-0.3,0.9-0.6,1.1-1c0.2-0.4,0.3-1.5,0.3-3.1v-19.9c0-1.7-0.1-2.7-0.3-3.1s-0.6-0.8-1.1-1
			c-0.5-0.3-1.5-0.4-2.9-0.4v-0.8H557c3.7,0,6.4,0.3,8.1,0.8c1.7,0.5,3.1,1.5,4.2,2.8c1.1,1.4,1.6,3,1.6,4.8c0,2.3-0.8,4.1-2.4,5.6
			c-1,0.9-2.5,1.6-4.4,2.1l7.4,10.4c1,1.3,1.6,2.2,2.1,2.5c0.6,0.5,1.3,0.7,2.1,0.8v0.8H566l-9.9-13.9L554.2,525.4L554.2,525.4z
			 M554.2,510.4v13.4h1.3c2.1,0,3.7-0.2,4.7-0.6c1-0.4,1.9-1.1,2.4-2.1s0.9-2.3,0.9-3.9c0-2.3-0.5-4.1-1.6-5.2
			c-1.1-1.1-2.8-1.7-5.3-1.7h-2.4V510.4z"/>
		<path id="path3144" d="M586.8,517.6c1.8,0,3.5,0.5,5.1,1.4s2.8,2.3,3.6,4s1.2,3.7,1.2,5.7c0,3-0.8,5.5-2.3,7.5
			c-1.8,2.4-4.4,3.7-7.6,3.7c-3.2,0-5.6-1.1-7.3-3.3s-2.6-4.8-2.6-7.7c0-3,0.9-5.7,2.6-7.9C581.3,518.8,583.7,517.6,586.8,517.6z
			 M586.9,519.2c-0.8,0-1.4,0.3-2,0.9c-0.5,0.6-0.9,1.7-1.1,3.4c-0.2,1.7-0.3,4.1-0.3,7.1c0,1.6,0.1,3.1,0.3,4.5
			c0.2,1.1,0.5,1.9,1.1,2.4c0.5,0.6,1.2,0.8,1.9,0.8s1.2-0.2,1.7-0.6c0.6-0.5,1-1.2,1.2-2.1c0.3-1.4,0.5-4.3,0.5-8.7
			c0-2.6-0.1-4.3-0.4-5.3c-0.3-1-0.7-1.7-1.3-2.1C588,519.4,587.5,519.2,586.9,519.2z"/>
		<path id="path3146" d="M606.4,508.1c1,0,1.8,0.3,2.4,1c0.7,0.7,1,1.5,1,2.4c0,1-0.3,1.8-1,2.5s-1.5,1-2.4,1s-1.8-0.3-2.4-1
			c-0.7-0.7-1-1.5-1-2.5c0-0.9,0.3-1.8,1-2.4C604.6,508.4,605.5,508.1,606.4,508.1z M609.6,518.3v21.8c0,2-0.1,3.6-0.4,4.5
			c-0.4,1.4-1.1,2.5-2.2,3.4s-2.6,1.3-4.4,1.3c-1.9,0-3.2-0.4-4.1-1.1c-0.9-0.8-1.3-1.7-1.3-2.7c0-0.7,0.2-1.2,0.7-1.7
			s1-0.7,1.6-0.7s1,0.2,1.4,0.5c0.3,0.3,0.5,0.8,0.5,1.5c0,0.2,0,0.4,0,0.6c0,0.3,0,0.5,0,0.7c0,0.5,0.1,0.9,0.4,1.2
			c0.2,0.3,0.5,0.4,0.9,0.4c0.3,0,0.6-0.2,0.9-0.5c0.2-0.3,0.4-0.7,0.4-1.3c0-0.3,0-0.9-0.1-1.8c-0.2-1.7-0.2-2.7-0.2-3l-0.1-5.3
			v-13v-1.2c0-0.9-0.2-1.6-0.5-2s-1-0.6-2-0.7v-0.8h8.5V518.3z"/>
		<path id="path3148" d="M627,536.2c-2.6,2.3-4.9,3.4-6.9,3.4c-1.2,0-2.2-0.4-3-1.2s-1.2-1.8-1.2-3c0-1.6,0.7-3.1,2.1-4.3
			c1.4-1.3,4.4-3,9-5.1v-2.1c0-1.6-0.1-2.6-0.3-3s-0.5-0.8-1-1.1s-1-0.5-1.6-0.5c-1,0-1.8,0.2-2.4,0.7c-0.4,0.3-0.6,0.6-0.6,0.9
			c0,0.3,0.2,0.7,0.6,1.2c0.6,0.6,0.9,1.3,0.9,1.9c0,0.7-0.3,1.4-0.8,1.9s-1.3,0.8-2.2,0.8s-1.7-0.3-2.4-0.9s-1-1.2-1-2
			c0-1.1,0.4-2.1,1.3-3.1c0.9-1,2.1-1.7,3.6-2.3c1.5-0.5,3.1-0.8,4.8-0.8c2,0,3.6,0.4,4.7,1.3c1.2,0.8,1.9,1.8,2.3,2.8
			c0.2,0.6,0.3,2.1,0.3,4.4v8.2c0,1,0,1.6,0.1,1.8s0.2,0.4,0.3,0.6c0.2,0.1,0.3,0.2,0.5,0.2c0.4,0,0.8-0.3,1.2-0.8l0.7,0.5
			c-0.8,1.1-1.5,1.9-2.3,2.4s-1.7,0.8-2.7,0.8c-1.2,0-2.1-0.3-2.8-0.8S627.2,537.4,627,536.2L627,536.2z M627,534.6v-7.1
			c-1.8,1.1-3.2,2.2-4.1,3.4c-0.6,0.8-0.9,1.6-0.9,2.5c0,0.7,0.2,1.3,0.7,1.8c0.4,0.4,0.9,0.6,1.6,0.6
			C625.1,535.9,626,535.4,627,534.6z"/>
		<path id="path3150" d="M661.1,510.5V523h0.6c1.9,0,3.3-0.6,4.2-1.8s1.4-3,1.7-5.4h0.9v16h-0.9c-0.2-1.7-0.6-3.2-1.1-4.3
			c-0.6-1.1-1.3-1.9-2-2.2c-0.8-0.4-1.9-0.6-3.3-0.6v8.6c0,1.7,0.1,2.7,0.2,3.1s0.4,0.7,0.8,0.9c0.4,0.2,1,0.4,1.9,0.4h1.8
			c2.9,0,5.1-0.7,6.9-2c1.7-1.3,3-3.3,3.7-6h0.8l-1.4,9.7h-26.4v-0.8h1c0.9,0,1.6-0.2,2.1-0.5c0.4-0.2,0.7-0.6,0.9-1.1
			c0.2-0.4,0.2-1.3,0.2-2.8V514c0-1.4,0-2.2-0.1-2.5c-0.2-0.5-0.4-0.9-0.8-1.2c-0.6-0.4-1.4-0.6-2.3-0.6h-1v-0.8H675v9h-0.9
			c-0.4-2.2-1-3.8-1.8-4.8s-1.9-1.7-3.4-2.1c-0.8-0.3-2.4-0.4-4.7-0.4h-3.1V510.5z"/>
		<path id="path3152" d="M698.1,533.9l0.7,0.5c-1,1.9-2.2,3.3-3.7,4.2s-3.1,1.4-4.7,1.4c-2.8,0-5.1-1.1-6.7-3.2
			c-1.7-2.1-2.5-4.7-2.5-7.6c0-2.9,0.8-5.4,2.3-7.6c1.9-2.6,4.4-3.9,7.6-3.9c2.2,0,3.9,0.5,5.2,1.6s1.9,2.3,1.9,3.7
			c0,0.9-0.3,1.5-0.8,2.1c-0.5,0.5-1.2,0.8-2,0.8c-0.9,0-1.6-0.3-2.2-0.9c-0.6-0.6-0.9-1.6-1.1-3.1c-0.1-0.9-0.3-1.6-0.7-2
			c-0.3-0.4-0.8-0.6-1.2-0.6c-0.7,0-1.3,0.4-1.9,1.2c-0.8,1.2-1.2,2.9-1.2,5.3c0,2,0.3,3.9,0.9,5.7c0.6,1.8,1.5,3.2,2.6,4.1
			c0.8,0.6,1.8,1,2.9,1c0.7,0,1.4-0.2,2.1-0.5C696.4,535.5,697.2,534.9,698.1,533.9z"/>
		<path id="path3154" d="M721.8,518.3v16.5c0,1.6,0.2,2.6,0.5,3s0.9,0.7,1.8,0.8v0.8h-8.6v-2.8c-1,1.2-2,2.1-3,2.6s-2.1,0.8-3.4,0.8
			c-1.2,0-2.2-0.4-3.2-1.1c-0.9-0.7-1.5-1.6-1.9-2.6c-0.3-1-0.5-2.7-0.5-5.1v-8.4c0-1.6-0.1-2.6-0.4-3c-0.3-0.4-0.9-0.6-1.8-0.8
			v-0.8h8.6v14.4c0,1.5,0.1,2.5,0.2,2.9c0.1,0.4,0.4,0.8,0.7,1s0.7,0.3,1.1,0.3c0.5,0,1-0.1,1.5-0.4c0.6-0.4,1.3-1.2,2.2-2.4v-11.3
			c0-1.6-0.1-2.6-0.4-3c-0.3-0.4-0.9-0.6-1.8-0.8v-0.8h8.4V518.3z"/>
		<path id="path3156" d="M738.7,536.2c-2.6,2.3-4.9,3.4-6.9,3.4c-1.2,0-2.2-0.4-3-1.2s-1.2-1.8-1.2-3c0-1.6,0.7-3.1,2.1-4.3
			c1.4-1.3,4.4-3,9-5.1v-2.1c0-1.6-0.1-2.6-0.3-3s-0.5-0.8-1-1.1s-1-0.5-1.6-0.5c-1,0-1.8,0.2-2.4,0.7c-0.4,0.3-0.6,0.6-0.6,0.9
			c0,0.3,0.2,0.7,0.6,1.2c0.6,0.6,0.9,1.3,0.9,1.9c0,0.7-0.3,1.4-0.8,1.9s-1.3,0.8-2.2,0.8s-1.7-0.3-2.4-0.9s-1-1.2-1-2
			c0-1.1,0.4-2.1,1.3-3.1c0.9-1,2.1-1.7,3.6-2.3c1.5-0.5,3.1-0.8,4.8-0.8c2,0,3.6,0.4,4.7,1.3c1.2,0.8,1.9,1.8,2.3,2.8
			c0.2,0.6,0.3,2.1,0.3,4.4v8.2c0,1,0,1.6,0.1,1.8s0.2,0.4,0.3,0.6c0.2,0.1,0.3,0.2,0.5,0.2c0.4,0,0.8-0.3,1.2-0.8l0.7,0.5
			c-0.8,1.1-1.5,1.9-2.3,2.4s-1.7,0.8-2.7,0.8c-1.2,0-2.1-0.3-2.8-0.8S738.9,537.4,738.7,536.2L738.7,536.2z M738.7,534.6v-7.1
			c-1.8,1.1-3.2,2.2-4.1,3.4c-0.6,0.8-0.9,1.6-0.9,2.5c0,0.7,0.2,1.3,0.7,1.8c0.4,0.4,0.9,0.6,1.6,0.6
			C736.9,535.9,737.8,535.4,738.7,534.6z"/>
		<path id="path3158" d="M758.6,510.5v7.7h5v2.2h-5v13c0,1.2,0.1,2,0.2,2.4c0.1,0.4,0.3,0.6,0.6,0.9c0.3,0.2,0.5,0.3,0.8,0.3
			c1,0,1.9-0.7,2.8-2.2l0.7,0.5c-1.2,2.9-3.2,4.3-5.9,4.3c-1.3,0-2.5-0.4-3.4-1.1c-0.9-0.7-1.5-1.6-1.8-2.5
			c-0.2-0.5-0.2-1.9-0.2-4.2v-11.4h-2.8v-0.8c1.9-1.3,3.5-2.7,4.8-4.2s2.5-3.1,3.5-4.9L758.6,510.5L758.6,510.5z"/>
		<path id="path3160" d="M775.6,517.6c1.8,0,3.5,0.5,5.1,1.4s2.8,2.3,3.6,4s1.2,3.7,1.2,5.7c0,3-0.8,5.5-2.3,7.5
			c-1.8,2.4-4.4,3.7-7.6,3.7c-3.2,0-5.6-1.1-7.3-3.3s-2.6-4.8-2.6-7.7c0-3,0.9-5.7,2.6-7.9C770.1,518.8,772.5,517.6,775.6,517.6z
			 M775.7,519.2c-0.8,0-1.4,0.3-2,0.9c-0.5,0.6-0.9,1.7-1.1,3.4c-0.2,1.7-0.3,4.1-0.3,7.1c0,1.6,0.1,3.1,0.3,4.5
			c0.2,1.1,0.5,1.9,1.1,2.4c0.5,0.6,1.2,0.8,1.9,0.8s1.2-0.2,1.7-0.6c0.6-0.5,1-1.2,1.2-2.1c0.3-1.4,0.5-4.3,0.5-8.7
			c0-2.6-0.1-4.3-0.4-5.3c-0.3-1-0.7-1.7-1.3-2.1C776.8,519.4,776.3,519.2,775.7,519.2z"/>
		<path id="path3162" d="M797.5,518.3v4.8c1.4-2.2,2.6-3.6,3.7-4.3c1.1-0.7,2.1-1.1,3-1.1c0.8,0,1.5,0.3,2,0.8s0.8,1.3,0.8,2.2
			c0,1-0.2,1.8-0.7,2.3c-0.5,0.6-1.1,0.8-1.8,0.8c-0.8,0-1.5-0.3-2.1-0.8s-0.9-0.8-1-0.9c-0.2-0.1-0.3-0.1-0.5-0.1
			c-0.4,0-0.8,0.2-1.2,0.5c-0.6,0.5-1.1,1.2-1.4,2.2c-0.5,1.5-0.7,3.1-0.7,4.8v4.9v1.3c0,0.9,0.1,1.4,0.2,1.6
			c0.2,0.4,0.4,0.7,0.8,0.9c0.4,0.2,1,0.3,1.8,0.3v0.8H789v-0.8c0.9-0.1,1.5-0.3,1.9-0.8c0.3-0.4,0.5-1.6,0.5-3.4v-11.7
			c0-1.2-0.1-2-0.2-2.3c-0.2-0.4-0.4-0.7-0.7-0.9s-0.8-0.3-1.5-0.4v-0.8L797.5,518.3z"/>
		<path id="path3164" d="M814.3,508c1,0,1.8,0.3,2.5,1s1,1.5,1,2.5s-0.3,1.8-1,2.5s-1.5,1-2.5,1s-1.8-0.3-2.5-1s-1-1.5-1-2.5
			s0.3-1.8,1-2.5S813.3,508,814.3,508z M817.5,518.3V535c0,1.5,0.2,2.4,0.5,2.9c0.3,0.4,1,0.7,2,0.7v0.8h-11.4v-0.8
			c0.9,0,1.6-0.3,2.1-0.8c0.3-0.3,0.5-1.3,0.5-2.8v-12.3c0-1.5-0.2-2.4-0.5-2.9c-0.3-0.4-1-0.7-2-0.7v-0.8L817.5,518.3L817.5,518.3z
			"/>
		<path id="path3166" d="M833.7,536.2c-2.6,2.3-4.9,3.4-6.9,3.4c-1.2,0-2.2-0.4-3-1.2s-1.2-1.8-1.2-3c0-1.6,0.7-3.1,2.1-4.3
			c1.4-1.3,4.4-3,9-5.1v-2.1c0-1.6-0.1-2.6-0.3-3s-0.5-0.8-1-1.1s-1-0.5-1.6-0.5c-1,0-1.8,0.2-2.4,0.7c-0.4,0.3-0.6,0.6-0.6,0.9
			c0,0.3,0.2,0.7,0.6,1.2c0.6,0.6,0.9,1.3,0.9,1.9c0,0.7-0.3,1.4-0.8,1.9s-1.3,0.8-2.2,0.8s-1.7-0.3-2.4-0.9c-0.6-0.6-1-1.2-1-2
			c0-1.1,0.4-2.1,1.3-3.1c0.9-1,2.1-1.7,3.6-2.3c1.5-0.5,3.1-0.8,4.8-0.8c2,0,3.6,0.4,4.7,1.3c1.2,0.8,1.9,1.8,2.3,2.8
			c0.2,0.6,0.3,2.1,0.3,4.4v8.2c0,1,0,1.6,0.1,1.8s0.2,0.4,0.3,0.6c0.2,0.1,0.3,0.2,0.5,0.2c0.4,0,0.8-0.3,1.2-0.8l0.7,0.5
			c-0.8,1.1-1.5,1.9-2.3,2.4s-1.7,0.8-2.7,0.8c-1.2,0-2.1-0.3-2.8-0.8S833.8,537.4,833.7,536.2L833.7,536.2z M833.7,534.6v-7.1
			c-1.8,1.1-3.2,2.2-4.1,3.4c-0.6,0.8-0.9,1.6-0.9,2.5c0,0.7,0.2,1.3,0.7,1.8c0.4,0.4,0.9,0.6,1.6,0.6
			C831.8,535.9,832.7,535.4,833.7,534.6z"/>
		<path id="path3168" d="M853.8,518.3v2.7c1.1-1.2,2.1-2,3.1-2.6c1-0.5,2.1-0.8,3.2-0.8c1.4,0,2.5,0.4,3.4,1.1
			c0.9,0.8,1.5,1.7,1.8,2.8c0.2,0.9,0.4,2.5,0.4,4.9v8.2c0,1.6,0.1,2.6,0.4,3c0.3,0.4,0.9,0.7,1.8,0.8v0.8h-10.7v-0.8
			c0.8-0.1,1.4-0.4,1.7-1c0.2-0.4,0.4-1.3,0.4-2.8v-9.4c0-1.7-0.1-2.8-0.2-3.3c-0.1-0.5-0.4-0.8-0.7-1s-0.7-0.4-1.1-0.4
			c-1.3,0-2.5,0.9-3.6,2.8v11.3c0,1.6,0.1,2.6,0.4,3c0.3,0.4,0.8,0.7,1.6,0.8v0.8H845v-0.8c0.9-0.1,1.5-0.4,1.9-0.9
			c0.3-0.3,0.4-1.3,0.4-2.9v-11.9c0-1.6-0.1-2.6-0.4-3c-0.3-0.4-0.9-0.6-1.8-0.8v-0.8h8.7V518.3z"/>
		<path id="path3170" d="M882.5,536.2c-2.6,2.3-4.9,3.4-6.9,3.4c-1.2,0-2.2-0.4-3-1.2s-1.2-1.8-1.2-3c0-1.6,0.7-3.1,2.1-4.3
			c1.4-1.3,4.4-3,9-5.1v-2.1c0-1.6-0.1-2.6-0.3-3s-0.5-0.8-1-1.1s-1-0.5-1.6-0.5c-1,0-1.8,0.2-2.4,0.7c-0.4,0.3-0.6,0.6-0.6,0.9
			c0,0.3,0.2,0.7,0.6,1.2c0.6,0.6,0.9,1.3,0.9,1.9c0,0.7-0.3,1.4-0.8,1.9s-1.3,0.8-2.2,0.8s-1.7-0.3-2.4-0.9c-0.6-0.6-1-1.2-1-2
			c0-1.1,0.4-2.1,1.3-3.1c0.9-1,2.1-1.7,3.6-2.3c1.5-0.5,3.1-0.8,4.8-0.8c2,0,3.6,0.4,4.7,1.3c1.2,0.8,1.9,1.8,2.3,2.8
			c0.2,0.6,0.3,2.1,0.3,4.4v8.2c0,1,0,1.6,0.1,1.8s0.2,0.4,0.3,0.6c0.2,0.1,0.3,0.2,0.5,0.2c0.4,0,0.8-0.3,1.2-0.8l0.7,0.5
			c-0.8,1.1-1.5,1.9-2.3,2.4s-1.7,0.8-2.7,0.8c-1.2,0-2.1-0.3-2.8-0.8S882.7,537.4,882.5,536.2L882.5,536.2z M882.5,534.6v-7.1
			c-1.8,1.1-3.2,2.2-4.1,3.4c-0.6,0.8-0.9,1.6-0.9,2.5c0,0.7,0.2,1.3,0.7,1.8c0.4,0.4,0.9,0.6,1.6,0.6
			C880.7,535.9,881.5,535.4,882.5,534.6z"/>
	</g>
</g>
</svg>
