<?xml version="1.0" encoding="UTF-8" standalone="no"?>
<!-- Created with Inkscape (http://www.inkscape.org/) -->

<svg
   xmlns:dc="http://purl.org/dc/elements/1.1/"
   xmlns:cc="http://creativecommons.org/ns#"
   xmlns:rdf="http://www.w3.org/1999/02/22-rdf-syntax-ns#"
   xmlns:svg="http://www.w3.org/2000/svg"
   xmlns="http://www.w3.org/2000/svg"
   xmlns:sodipodi="http://sodipodi.sourceforge.net/DTD/sodipodi-0.dtd"
   xmlns:inkscape="http://www.inkscape.org/namespaces/inkscape"
   width="924.98779"
   height="315.1264"
   id="svg2"
   version="1.1"
   inkscape:version="0.47 r22583"
   sodipodi:docname="Cruz Roja argentina.svg">
  <defs
     id="defs4">
    <inkscape:perspective
       sodipodi:type="inkscape:persp3d"
       inkscape:vp_x="0 : 526.18109 : 1"
       inkscape:vp_y="0 : 1000 : 0"
       inkscape:vp_z="744.09448 : 526.18109 : 1"
       inkscape:persp3d-origin="372.04724 : 350.78739 : 1"
       id="perspective10" />
    <inkscape:perspective
       id="perspective2884"
       inkscape:persp3d-origin="0.5 : 0.33333333 : 1"
       inkscape:vp_z="1 : 0.5 : 1"
       inkscape:vp_y="0 : 1000 : 0"
       inkscape:vp_x="0 : 0.5 : 1"
       sodipodi:type="inkscape:persp3d" />
  </defs>
  <sodipodi:namedview
     id="base"
     pagecolor="#ffffff"
     bordercolor="#666666"
     borderopacity="1.0"
     inkscape:pageopacity="0.0"
     inkscape:pageshadow="2"
     inkscape:zoom="0.95703125"
     inkscape:cx="485.7924"
     inkscape:cy="108.53803"
     inkscape:document-units="px"
     inkscape:current-layer="text2971"
     showgrid="false"
     inkscape:window-width="1280"
     inkscape:window-height="953"
     inkscape:window-x="0"
     inkscape:window-y="24"
     inkscape:window-maximized="1" />
  <metadata
     id="metadata7">
    <rdf:RDF>
      <cc:Work
         rdf:about="">
        <dc:format>image/svg+xml</dc:format>
        <dc:type
           rdf:resource="http://purl.org/dc/dcmitype/StillImage" />
        <dc:title></dc:title>
      </cc:Work>
    </rdf:RDF>
  </metadata>
  <g
     inkscape:label="Capa 1"
     inkscape:groupmode="layer"
     id="layer1"
     transform="translate(110.40408,-370.10507)">
    <path
       style="fill:#ff0033;fill-opacity:1;fill-rule:nonzero;stroke:none"
       d="m -12.5625,395.21875 0,88.65625 -88.65625,0 0,88.65625 88.65625,0 0,88.65625 88.65625,0 0,-88.65625 88.65625,0 0,-88.65625 -88.65625,0 0,-88.65625 -88.65625,0 z"
       id="rect2890" />
    <path
       style="font-size:100.45409393px;font-style:normal;font-weight:normal;fill:#000000;fill-opacity:1;stroke:none;font-family:Bitstream Vera Sans"
       d="m 247.34375,439.32812 c -11.15889,7e-5 -19.95621,3.39961 -26.375,10.15625 -6.41882,6.72431 -10.66991,15.93072 -10.6699,27.625 -10e-6,11.66188 4.25108,20.86829 10.6699,27.625 6.41879,6.72424 15.21611,10.0625 26.375,10.0625 4.34499,0 8.4595,-0.58056 12.34375,-1.75 1.41493,-0.42242 2.79714,-0.92498 4.15625,-1.5 l 0,-8.9375 c -1.24625,0.70029 -2.51288,1.29285 -3.8125,1.8125 -3.7855,1.52677 -8.85949,1.26761 -13.13865,1.26761 -8.42678,0 -14.29407,-3.03991 -18.85255,-8.14745 -4.73909,-5.30991 -6.19632,-10.84977 -6.1963,-20.43266 -2e-5,-9.61529 3.80937,-15.91875 8.2861,-20.98635 4.47668,-5.09996 9.90331,-6.61128 15.19541,-7.65625 4.1981,-0.82895 10.92049,-0.29034 14.70599,1.23635 1.29962,0.51968 2.56625,1.14345 3.8125,1.84375 l 0,-9.03125 c -1.32257,-0.54782 -2.67828,-1.0357 -4.0625,-1.4375 -3.88425,-1.16935 -8.02667,-1.74993 -12.4375,-1.75 z"
       id="text2901"
       sodipodi:nodetypes="ccscsccccsascsccccc" />
    <g
       transform="matrix(0.98701901,0,0,1.0131517,0,-3.301383)"
       style="font-size:98.49623871px;font-style:normal;font-weight:normal;fill:#000000;fill-opacity:1;stroke:none;font-family:Bitstream Vera Sans"
       id="text2913">
      <path
         d="m 320.59397,476.36466 c 2.08402,0.70541 1.98668,2.21235 3.94255,4.52082 1.98783,2.30853 3.97571,7.5454 5.96364,11.58526 l 6.94798,17.55963 -12.02433,-1e-5 -4.68671,-16.35728 c -2.37267,-4.80936 -4.15185,-9.54658 -6.39619,-11.11768 -2.21236,-3.6337 -3.65431,-2.87223 -7.50178,-2.87226 l -10.58065,0 0,30.34722 -9.71496,0 0,-71.80414 21.9308,0 c 8.20798,7e-5 14.33192,1.71542 18.37186,5.14605 4.03983,3.43075 6.05977,8.60886 6.05982,15.53431 -5e-5,4.52087 -1.05812,8.27219 -3.17419,11.25397 -2.08412,2.98186 -5.13006,5.04989 -9.13784,6.20411 m -23.80617,-28.60786 -0.52932,22.39575 12.74516,-0.51567 c 4.6811,4e-5 7.14934,-0.55838 9.52201,-2.70662 2.40465,-2.18021 4.13631,-3.82343 4.13636,-8.02368 -5e-5,-4.20014 -1.73171,-6.32697 -4.13636,-8.44316 -2.37267,-2.14813 -5.37023,-2.19088 -10.05133,-2.19095 l -6.92264,0"
         style="fill:#000000"
         id="path2930"
         sodipodi:nodetypes="cccccccccccccsscccccssccc" />
      <path
         sodipodi:nodetypes="ccccccaccccccsscccccssccc"
         id="path3056"
         style="fill:#000000"
         d="m 320.59397,476.36466 c 2.08402,0.70541 1.98668,2.21235 3.94255,4.52082 1.98783,2.30853 3.97571,7.5454 5.96364,11.58526 l 6.94798,17.55963 -12.02433,-1e-5 -4.68671,-16.35728 c -2.37267,-4.80936 -3.10973,-8.32536 -6.39619,-11.11768 -2.02488,-1.72042 -3.65431,-2.87223 -7.50178,-2.87226 l -10.58065,0 0,30.34722 -9.71496,0 0,-71.80414 21.9308,0 c 8.20798,7e-5 14.33192,1.71542 18.37186,5.14605 4.03983,3.43075 6.05977,8.60886 6.05982,15.53431 -5e-5,4.52087 -1.05812,8.27219 -3.17419,11.25397 -2.08412,2.98186 -5.13006,5.04989 -9.13784,6.20411 m -23.80617,-28.60786 -0.52932,22.39575 12.74516,-0.51567 c 4.6811,4e-5 7.14934,-0.55838 9.52201,-2.70662 2.40465,-2.18021 4.13631,-3.82343 4.13636,-8.02368 -5e-5,-4.20014 -1.73171,-6.32697 -4.13636,-8.44316 -2.37267,-2.14813 -5.37023,-2.19088 -10.05133,-2.19095 l -6.92264,0" />
    </g>
    <g
       transform="matrix(0.98701902,0,0,1.0131517,0,-4.0079196)"
       style="font-size:98.49623871px;font-style:normal;font-weight:normal;fill:#000000;fill-opacity:1;stroke:none;font-family:Bitstream Vera Sans"
       id="text2917">
      <path
         d="m 358.79737,438.22622 9.76306,0 0,43.62114 c -2e-5,7.69504 1.3947,13.24186 4.18416,16.64048 2.78942,3.36658 7.31024,5.04986 13.56247,5.04985 6.2201,10e-6 10.72489,-1.68327 13.51438,-5.04985 2.78939,-3.39862 4.18411,-8.94544 4.18417,-16.64048 l 0,-43.62114 9.76305,0 0,44.82349 c -6e-5,9.36229 -2.3246,16.43208 -6.97361,21.20939 -4.61706,4.77733 -11.44638,7.16599 -20.48799,7.16599 -9.07373,0 -15.93512,-2.38866 -20.58417,-7.16599 -4.61702,-4.77731 -6.92553,-11.8471 -6.92552,-21.20939 l 0,-44.82349"
         style="fill:#000000"
         id="path3029" />
    </g>
    <g
       transform="matrix(0.92185409,0,0,1.0847704,0,-4.0402505)"
       style="font-size:91.99332428px;font-style:normal;font-weight:normal;fill:#000000;fill-opacity:1;stroke:none;font-family:Bitstream Vera Sans"
       id="text2921">
      <path
         d="m 465.72274,409.97478 52.68953,0 0,6.91746 -42.40317,52.50986 43.4363,0 0,7.63617 -54.75579,0 0,-6.91747 42.40317,-52.50986 -41.37004,0 0,-7.63616"
         style="fill:#000000"
         id="path3026" />
    </g>
    <g
       transform="matrix(0.92185409,0,0,1.0847704,0,-4.0402505)"
       style="font-size:91.99332428px;font-style:normal;font-weight:normal;fill:#000000;fill-opacity:1;stroke:none;font-family:Bitstream Vera Sans"
       id="text2925">
      <path
         d="m 465.72274,409.97478 52.68953,0 0,6.91746 -42.40317,52.50986 43.4363,0 0,7.63617 -54.75579,0 0,-6.91747 42.40317,-52.50986 -41.37004,0 0,-7.63616"
         style="fill:#000000"
         id="path3023" />
    </g>
    <g
       id="g2932"
       style="font-size:98.49623871px;font-style:normal;font-weight:normal;fill:#000000;fill-opacity:1;stroke:none;font-family:Bitstream Vera Sans"
       transform="matrix(0.98701901,0,0,1.0131517,248.68571,-3.301383)">
      <path
         sodipodi:nodetypes="ccccccaccccccsscccccssccc"
         id="path2934"
         d="m 320.59397,476.36466 c 2.08402,0.70541 1.98668,2.21235 3.94255,4.52082 1.98783,2.30853 4.50503,8.57673 6.49296,12.61659 l 7.21264,16.52829 -12.21147,-0.15104 -5.29355,-16.20624 c -2.37267,-4.80936 -3.10973,-8.32536 -6.39619,-11.11768 -2.02488,-1.72042 -3.65431,-2.87223 -7.50178,-2.87226 l -10.58065,0 0,30.34722 -9.71496,0 0,-71.80414 21.9308,0 c 8.20798,7e-5 14.33192,1.71542 18.37186,5.14605 4.03983,3.43075 6.05977,8.60886 6.05982,15.53431 -5e-5,4.52087 -1.05812,8.27219 -3.17419,11.25397 -2.08412,2.98186 -5.13006,5.04989 -9.13784,6.20411 m -23.80617,-28.60786 -0.52932,22.39575 12.74516,-0.51567 c 4.6811,4e-5 7.14934,-0.55838 9.52201,-2.70662 2.40465,-2.18021 4.13631,-3.82343 4.13636,-8.02368 -5e-5,-4.20014 -1.73171,-6.32697 -4.13636,-8.44316 -2.37267,-2.14813 -5.37023,-2.19088 -10.05133,-2.19095 l -6.92264,0"
         style="fill:#000000" />
    </g>
    <path
       style="fill:#000000;fill-opacity:1;fill-rule:nonzero;stroke:none"
       d="m 632.15625,438.65625 c -19.33222,0 -35,17.19852 -35,38.40625 0,21.20773 15.66778,38.40625 35,38.40625 19.33222,0 35,-17.19852 35,-38.40625 0,-21.20773 -15.66778,-38.40625 -35,-38.40625 z m 0,9.9375 c 13.56141,0 24.5625,12.74975 24.5625,28.46875 0,15.719 -11.00109,28.4375 -24.5625,28.4375 -13.56141,0 -24.5625,-12.7185 -24.5625,-28.4375 0,-15.719 11.00109,-28.46875 24.5625,-28.46875 z"
       id="path2939" />
    <text
       xml:space="preserve"
       style="font-size:40px;font-style:normal;font-weight:normal;fill:#000000;fill-opacity:1;stroke:none;font-family:Bitstream Vera Sans"
       x="701.64899"
       y="480.28055"
       id="text2944"><tspan
         sodipodi:role="line"
         id="tspan2946"
         x="701.64899"
         y="480.28055"></tspan></text>
    <g
       transform="matrix(0.98701901,0,0,1.0131517,402.28571,11.15102)"
       style="font-size:98.49623871px;font-style:normal;font-weight:normal;fill:#000000;fill-opacity:1;stroke:none;font-family:Bitstream Vera Sans"
       id="g2948">
      <path
         d="m -82.998561,570.55593 c 1.679923,0.56863 1.601458,1.78337 3.178079,3.64422 1.602385,1.8609 3.631493,6.91368 5.233958,10.1702 l 5.814091,13.32341 -9.505638,-0.0511 -4.605113,-13.13451 c -1.912603,-3.87681 -2.506747,-6.71105 -5.155952,-8.96193 -1.632249,-1.38683 -2.94573,-2.3153 -6.047165,-2.31533 l -8.529039,0 0,24.46282 -7.8312,0 0,-57.88113 17.678361,0 c 6.616431,6e-5 11.552923,1.3828 14.809508,4.14822 3.256497,2.76552 4.884765,6.93958 4.884805,12.52216 -4e-5,3.64427 -0.852947,6.66819 -2.558706,9.0718 -1.680004,2.40367 -4.135328,4.0707 -7.365989,5.00112 m -19.190089,-23.06072 -0.42669,18.05315 10.273845,-0.41568 c 3.773422,3e-5 5.763064,-0.45011 7.675667,-2.1818 1.938382,-1.75746 3.334269,-3.08206 3.334309,-6.46787 -4e-5,-3.38572 -1.395927,-5.10015 -3.334309,-6.80601 -1.912603,-1.7316 -4.328928,-1.76606 -8.102351,-1.76611 l -5.580322,0"
         id="path2950"
         sodipodi:nodetypes="ccccccaccccccsscccccssccc"
         style="fill:#000000" />
      <g
         transform="scale(1.2139223,0.82377592)"
         style="font-size:92.38922882px;fill:#000000;font-family:Bitstream Vera Sans"
         id="text2952">
        <path
           d="m 247.58364,513.92212 9.11261,0 0,62.66047 c -2e-5,8.12014 -1.9849,17.14466 -5.08257,20.81378 -3.06762,3.66908 -7.14281,5.50363 -13.96974,5.50365 l -5.21778,0 -0.43604,-11.42491 4.58621,0.62598 c 4.03,-10e-6 6.87205,-1.1278 8.52616,-3.38339 1.65409,-2.2556 2.48114,-6.30063 2.48115,-12.13511 l 0,-62.66047"
           style="fill:#000000"
           id="path2957"
           sodipodi:nodetypes="ccccccccscc" />
      </g>
    </g>
    <g
       transform="matrix(1.0435975,0,0,0.95822382,0,-4.3114363)"
       style="font-size:104.56800842px;font-style:normal;font-weight:normal;fill:#000000;fill-opacity:1;stroke:none;font-family:Bitstream Vera Sans"
       id="text2959">
      <path
         d="m 730.08825,474.40607 -13.99006,37.93653 28.03117,0 -14.04111,-37.93653 m -5.82068,-10.16067 11.69242,0 29.05234,76.23049 -10.72231,0 -6.94397,-19.55544 -34.36243,0 -6.94397,19.55544 -10.87548,0 29.1034,-76.23049"
         style="fill:#000000"
         id="path3020" />
    </g>
    <g
       transform="matrix(1.0435975,0,0,0.95822383,0,-3.8978284)"
       style="font-size:82.13082886px;font-style:normal;font-weight:normal;fill:#000000;fill-opacity:1;stroke:none;font-family:Bitstream Vera Sans"
       id="text2963">
      <path
         d="m 739.85825,594.90183 -10.9882,29.79649 22.01651,0 -11.02831,-29.79649 m -4.57173,-7.98048 9.18357,0 22.81858,59.87369 -8.42162,0 -5.454,-15.35942 -26.98928,0 -5.454,15.35942 -8.54193,0 22.85868,-59.87369"
         style="fill:#000000"
         id="path3017" />
    </g>
    <g
       transform="matrix(1.0435975,0,0,0.95822383,0,-3.3753808)"
       style="font-size:82.13082886px;font-style:normal;font-weight:normal;fill:#000000;fill-opacity:1;stroke:none;font-family:Bitstream Vera Sans"
       id="text2967">
      <path
         d="m 230.7246,594.35661 -10.9882,29.79648 22.01651,0 -11.02831,-29.79648 m -4.57173,-7.98049 9.18357,0 22.81858,59.8737 -8.42162,0 -5.454,-15.35943 -26.98928,0 -5.454,15.35943 -8.54193,0 22.85868,-59.8737"
         style="fill:#000000"
         id="path3014" />
    </g>
    <g
       transform="matrix(1.0485809,0,0,0.95366987,0,-4)"
       style="font-size:82.52301788px;font-style:normal;font-weight:normal;fill:#000000;fill-opacity:1;stroke:none;font-family:Bitstream Vera Sans"
       id="text2971">
      <path
         d="m 378.80269,643.23776 -0.17615,-18.676 -11.35946,-0.38738 -0.11052,-7.20347 19.88118,0.12722 0.17615,31.05829 c -3.14302,2.22963 -5.2104,2.16247 -7.92978,2.75286 -2.96005,0.51243 -5.97604,0.17355 -8.95782,0.14286 -9.40207,0 -16.76251,-2.74002 -22.08136,-8.22006 -5.29201,-5.5069 -7.93801,-13.16283 -7.938,-22.96783 -1e-5,-9.83181 2.64599,-17.48774 7.938,-22.96784 5.31885,-5.50684 12.67929,-8.2603 22.08136,-8.26036 3.92195,6e-5 7.64247,0.4836 11.16156,1.4506 3.54586,0.96713 1.70118,-0.51445 4.68303,1.3659 l 0,8.66331 c -3.36102,-1.19612 -2.85844,-1.37363 -6.24312,-2.66311 -3.38478,-1.28936 -6.86968,-1.93141 -10.32572,-1.54676 -5.09125,0.56664 -10.83403,1.64424 -14.48744,5.58399 -4.24386,4.57649 -6.22497,10.23483 -6.22496,18.37427 -10e-6,8.11263 1.82428,11.33376 4.81572,15.81604 1.94185,2.90961 4.93767,4.97648 7.96967,6.35874 2.83925,1.29439 9.10549,1.59894 9.10549,1.59894"
         style="fill:#000000"
         id="path2999"
         sodipodi:nodetypes="cccccccccssscccsaasaaa" />
    </g>
    <path
       style="font-size:82.52301788px;font-style:normal;font-weight:normal;fill:#000000;fill-opacity:1;stroke:none;font-family:Bitstream Vera Sans"
       d="m 436.21875,558.50289 0,57.375 31.90625,0 0,-6.53125 -23.375,0 0,-20.8125 23.375,0 0,-6.53125 -23.375,0 0,-16.96875 23.375,0 0,-6.53125 -31.90625,0 z"
       id="text2975" />
    <g
       transform="matrix(1.0089904,0,0,0.99108967,0,-3.7426743)"
       style="font-size:80.13036346px;font-style:normal;font-weight:normal;fill:#000000;fill-opacity:1;stroke:none;font-family:Bitstream Vera Sans"
       id="text2982">
      <path
         d="m 493.95863,567.03814 10.64231,0 25.90151,48.86857 0,-48.86857 7.66873,0 0,58.41535 -10.64231,0 -25.90152,-48.86857 0,48.86857 -7.66872,0 0,-58.41535"
         style="fill:#000000"
         id="path3011" />
    </g>
    <g
       transform="matrix(0.94906257,0,0,1.0536713,0,-4.0119865)"
       style="font-size:75.37110901px;font-style:normal;font-weight:normal;fill:#000000;fill-opacity:1;stroke:none;font-family:Bitstream Vera Sans"
       id="text2986">
      <path
         d="m 597.4607,533.61514 46.48131,0 0,6.25639 -19.50522,0 0,48.68944 -7.47087,0 0,-48.68944 -19.50522,0 0,-6.25639"
         style="fill:#000000"
         id="path3008" />
    </g>
    <g
       transform="matrix(1.0805145,0,0,0.92548506,0,-4.5344717)"
       style="font-size:85.81053925px;font-style:normal;font-weight:normal;fill:#000000;fill-opacity:1;stroke:none;font-family:Bitstream Vera Sans"
       id="text2990">
      <path
         d="m 587.55501,608.08917 8.46374,0 0,62.55622 -8.46374,0 0,-62.55622"
         style="fill:#000000"
         id="path3005" />
    </g>
    <g
       transform="matrix(1.0089904,0,0,0.99108969,0,-3.7426862)"
       style="font-size:80.13036346px;font-style:normal;font-weight:normal;fill:#000000;fill-opacity:1;stroke:none;font-family:Bitstream Vera Sans"
       id="text2994">
      <path
         d="m 668.45512,567.03814 10.64231,0 25.90151,48.86857 0,-48.86857 7.66873,0 0,58.41535 -10.64231,0 -25.90152,-48.86857 0,48.86857 -7.66872,0 0,-58.41535"
         style="fill:#000000"
         id="path3002" />
    </g>
  </g>
</svg>
