<?xml version="1.0" encoding="UTF-8" standalone="no"?>
<!-- Created with Inkscape (http://www.inkscape.org/) -->

<svg
   version="1.1"
   id="svg1"
   width="777.35999"
   height="173.964"
   viewBox="0 0 777.35999 173.964"
   sodipodi:docname="Guyana RC.svg"
   inkscape:version="1.3.2 (091e20e, 2023-11-25, custom)"
   xmlns:inkscape="http://www.inkscape.org/namespaces/inkscape"
   xmlns:sodipodi="http://sodipodi.sourceforge.net/DTD/sodipodi-0.dtd"
   xmlns="http://www.w3.org/2000/svg"
   xmlns:svg="http://www.w3.org/2000/svg">
  <defs
     id="defs1">
    <clipPath
       clipPathUnits="userSpaceOnUse"
       id="clipPath3">
      <path
         d="M 0.059998,130.44 H 583.02 V 0 H 0.059998 Z"
         transform="translate(-130.473,-92.612003)"
         id="path3" />
    </clipPath>
  </defs>
  <sodipodi:namedview
     id="namedview1"
     pagecolor="#ffffff"
     bordercolor="#666666"
     borderopacity="1.0"
     inkscape:showpageshadow="2"
     inkscape:pageopacity="0.0"
     inkscape:pagecheckerboard="0"
     inkscape:deskcolor="#d1d1d1"
     inkscape:zoom="1.202789"
     inkscape:cx="388.67999"
     inkscape:cy="86.88141"
     inkscape:window-width="1920"
     inkscape:window-height="1017"
     inkscape:window-x="-8"
     inkscape:window-y="-8"
     inkscape:window-maximized="1"
     inkscape:current-layer="g1">
    <inkscape:page
       x="0"
       y="0"
       inkscape:label="1"
       id="page1"
       width="777.35999"
       height="173.964"
       margin="0"
       bleed="0" />
  </sodipodi:namedview>
  <g
     id="g1"
     inkscape:groupmode="layer"
     inkscape:label="1">
    <g
       id="group-MC1">
      <path
         id="path2"
         d="m 0,0 h -37.862 v 37.861 h -54.75 V 0 h -37.861 v -54.75 h 37.861 v -37.862 h 54.75 V -54.75 L 0,-54.75 V 0"
         style="fill:#ed1c24;fill-opacity:1;fill-rule:nonzero;stroke:none"
         transform="matrix(1.3333333,0,0,-1.3333333,173.964,50.481333)"
         clip-path="url(#clipPath3)" />
      <path
         id="path4"
         d="M 0,0 V 5.659 H 12.988 V -5.937 c -2.486,-1.695 -4.685,-2.849 -6.597,-3.461 -1.91,-0.612 -4.177,-0.918 -6.799,-0.918 -3.229,0 -5.861,0.55 -7.896,1.651 -2.034,1.1 -3.611,2.74 -4.73,4.917 -1.121,2.177 -1.68,4.676 -1.68,7.496 0,2.969 0.612,5.551 1.837,7.747 1.224,2.195 3.017,3.862 5.381,5 1.842,0.878 4.323,1.318 7.44,1.318 3.006,0 5.254,-0.273 6.744,-0.817 1.491,-0.544 2.729,-1.389 3.711,-2.533 0.985,-1.144 1.723,-2.594 2.218,-4.351 L 4.509,8.665 c -0.334,1.026 -0.901,1.812 -1.698,2.356 -0.799,0.544 -1.816,0.817 -3.052,0.817 -1.844,0 -3.313,-0.64 -4.407,-1.921 -1.095,-1.28 -1.642,-3.306 -1.642,-6.076 0,-2.945 0.553,-5.047 1.66,-6.309 1.107,-1.261 2.65,-1.892 4.63,-1.892 0.939,0 1.837,0.135 2.69,0.408 0.854,0.272 1.83,0.736 2.932,1.391 L 5.622,0 H 0"
         style="fill:#231f20;fill-opacity:1;fill-rule:nonzero;stroke:none"
         transform="matrix(1.3333333,0,0,-1.3333333,219.112,74.173333)" />
      <path
         id="path5"
         d="m 0,0 h 8.387 v -16.206 c 0,-1.607 -0.25,-3.125 -0.752,-4.552 -0.5,-1.428 -1.286,-2.677 -2.355,-3.746 -1.071,-1.069 -2.194,-1.82 -3.368,-2.252 -1.633,-0.606 -3.594,-0.909 -5.882,-0.909 -1.324,0 -2.768,0.093 -4.332,0.278 -1.566,0.186 -2.874,0.553 -3.925,1.103 -1.052,0.551 -2.013,1.332 -2.886,2.346 -0.871,1.013 -1.469,2.058 -1.79,3.133 -0.519,1.731 -0.779,3.264 -0.779,4.599 V 0 h 8.387 v -16.592 c 0,-1.483 0.411,-2.642 1.233,-3.476 0.823,-0.834 1.964,-1.251 3.424,-1.251 1.447,0 2.582,0.41 3.404,1.233 C -0.411,-19.265 0,-18.1 0,-16.592 V 0"
         style="fill:#231f20;fill-opacity:1;fill-rule:nonzero;stroke:none"
         transform="matrix(1.3333333,0,0,-1.3333333,266.68533,51.041333)" />
      <path
         id="path6"
         d="M 0,0 H 9.337 L 14.817,-9.176 20.309,0 h 9.286 L 19.019,-15.809 v -11.392 h -8.424 v 11.392 L 0,0"
         style="fill:#231f20;fill-opacity:1;fill-rule:nonzero;stroke:none"
         transform="matrix(1.3333333,0,0,-1.3333333,281.628,51.041333)" />
      <path
         id="path7"
         d="M 0,0 -3.003,9.778 -5.974,0 Z m 1.743,-5.882 h -9.542 l -1.326,-4.49 h -8.582 L -7.484,16.829 H 1.684 L 11.906,-10.372 H 3.104 l -1.361,4.49"
         style="fill:#231f20;fill-opacity:1;fill-rule:nonzero;stroke:none"
         transform="matrix(1.3333333,0,0,-1.3333333,339.89867,73.48)" />
      <path
         id="path8"
         d="M 0,0 H 7.849 L 18.091,-15.049 V 0 h 7.923 V -27.201 H 18.091 L 7.905,-12.266 V -27.201 H 0 L 0,0"
         style="fill:#231f20;fill-opacity:1;fill-rule:nonzero;stroke:none"
         transform="matrix(1.3333333,0,0,-1.3333333,359.40933,51.041333)" />
      <path
         id="path9"
         d="M 0,0 -3.002,9.778 -5.973,0 Z m 1.744,-5.882 h -9.542 l -1.327,-4.49 h -8.582 L -7.483,16.829 H 1.685 L 11.907,-10.372 H 3.105 l -1.361,4.49"
         style="fill:#231f20;fill-opacity:1;fill-rule:nonzero;stroke:none"
         transform="matrix(1.3333333,0,0,-1.3333333,421.01867,73.48)" />
      <path
         id="path10"
         d="M 0,0 H 3.544 C 3.927,0 4.669,0.124 5.771,0.371 6.327,0.482 6.782,0.767 7.134,1.225 7.487,1.682 7.663,2.208 7.663,2.802 7.663,3.68 7.385,4.354 6.828,4.824 6.272,5.294 5.226,5.529 3.693,5.529 H 0 Z M -8.442,-16.18 V 11.021 H 5.567 c 2.597,0 4.583,-0.222 5.956,-0.667 1.373,-0.446 2.479,-1.271 3.321,-2.477 0.841,-1.207 1.262,-2.676 1.262,-4.407 0,-1.51 -0.323,-2.811 -0.966,-3.906 -0.644,-1.095 -1.529,-1.983 -2.655,-2.663 -0.717,-0.433 -1.702,-0.792 -2.952,-1.076 1.001,-0.334 1.731,-0.669 2.189,-1.003 0.308,-0.222 0.757,-0.699 1.344,-1.43 0.586,-0.73 0.979,-1.294 1.177,-1.69 l 4.071,-7.882 H 8.817 L 4.323,-7.867 C 3.754,-6.791 3.247,-6.092 2.802,-5.771 2.195,-5.35 1.509,-5.14 0.742,-5.14 H 0 v -11.04 h -8.442"
         style="fill:#231f20;fill-opacity:1;fill-rule:nonzero;stroke:none"
         transform="matrix(1.3333333,0,0,-1.3333333,468.75867,65.737333)" />
      <path
         id="path11"
         d="M 0,0 H 22.526 V -5.808 H 8.424 v -4.323 h 13.081 v -5.548 H 8.424 v -5.362 h 14.51 v -6.16 H 0 V 0"
         style="fill:#231f20;fill-opacity:1;fill-rule:nonzero;stroke:none"
         transform="matrix(1.3333333,0,0,-1.3333333,496.73867,51.041333)" />
      <path
         id="path12"
         d="m 0,0 v -14.862 h 2.06 c 1.755,0 3.005,0.194 3.748,0.584 0.742,0.39 1.323,1.07 1.744,2.041 0.42,0.971 0.631,2.545 0.631,4.722 0,2.882 -0.471,4.855 -1.411,5.919 C 5.832,-0.532 4.273,0 2.097,0 Z M -8.405,6.16 H 4.082 c 2.461,0 4.45,-0.334 5.966,-1.002 1.515,-0.668 2.766,-1.627 3.757,-2.876 0.989,-1.249 1.707,-2.703 2.152,-4.36 0.445,-1.658 0.668,-3.414 0.668,-5.27 0,-2.907 -0.331,-5.161 -0.993,-6.763 -0.661,-1.602 -1.58,-2.944 -2.755,-4.026 -1.176,-1.083 -2.438,-1.803 -3.785,-2.162 -1.844,-0.495 -3.514,-0.742 -5.01,-0.742 H -8.405 V 6.16"
         style="fill:#231f20;fill-opacity:1;fill-rule:nonzero;stroke:none"
         transform="matrix(1.3333333,0,0,-1.3333333,544.70933,59.254667)" />
      <path
         id="path13"
         d="M 0,0 7.366,-2.227 C 6.871,-4.293 6.092,-6.018 5.029,-7.403 3.964,-8.789 2.645,-9.834 1.067,-10.539 c -1.577,-0.705 -3.584,-1.058 -6.021,-1.058 -2.957,0 -5.372,0.43 -7.245,1.289 -1.875,0.859 -3.492,2.37 -4.853,4.534 -1.361,2.163 -2.041,4.932 -2.041,8.307 0,4.499 1.197,7.957 3.591,10.374 2.393,2.417 5.78,3.625 10.159,3.625 3.425,0 6.12,-0.693 8.08,-2.078 1.961,-1.386 3.417,-3.513 4.37,-6.383 L -0.315,6.42 c -0.26,0.829 -0.532,1.434 -0.817,1.818 -0.47,0.643 -1.045,1.138 -1.725,1.485 -0.681,0.346 -1.442,0.519 -2.282,0.519 -1.906,0 -3.366,-0.766 -4.379,-2.298 -0.768,-1.137 -1.151,-2.922 -1.151,-5.356 0,-3.014 0.457,-5.081 1.373,-6.199 0.915,-1.118 2.202,-1.677 3.86,-1.677 1.607,0 2.823,0.451 3.645,1.354 C -0.968,-3.031 -0.371,-1.72 0,0"
         style="fill:#231f20;fill-opacity:1;fill-rule:nonzero;stroke:none"
         transform="matrix(1.3333333,0,0,-1.3333333,613.80667,72.466667)" />
      <path
         id="path14"
         d="M 0,0 H 3.544 C 3.927,0 4.669,0.124 5.771,0.371 6.327,0.482 6.782,0.767 7.134,1.225 7.488,1.682 7.663,2.208 7.663,2.802 7.663,3.68 7.385,4.354 6.828,4.824 6.272,5.294 5.226,5.529 3.693,5.529 H 0 Z M -8.442,-16.18 V 11.021 H 5.567 c 2.597,0 4.583,-0.222 5.956,-0.667 1.373,-0.446 2.479,-1.271 3.321,-2.477 0.841,-1.207 1.262,-2.676 1.262,-4.407 0,-1.51 -0.323,-2.811 -0.966,-3.906 -0.644,-1.095 -1.528,-1.983 -2.654,-2.663 -0.718,-0.433 -1.703,-0.792 -2.953,-1.076 1.001,-0.334 1.731,-0.669 2.189,-1.003 0.308,-0.222 0.757,-0.699 1.344,-1.43 0.587,-0.73 0.979,-1.294 1.177,-1.69 l 4.071,-7.882 H 8.817 L 4.323,-7.867 C 3.754,-6.791 3.247,-6.092 2.802,-5.771 2.196,-5.35 1.509,-5.14 0.742,-5.14 H 0 v -11.04 h -8.442"
         style="fill:#231f20;fill-opacity:1;fill-rule:nonzero;stroke:none"
         transform="matrix(1.3333333,0,0,-1.3333333,640.476,65.737333)" />
      <path
         id="path15"
         d="m 0,0 c 0,-2.746 0.51,-4.719 1.532,-5.919 1.019,-1.2 2.408,-1.8 4.165,-1.8 1.805,0 3.203,0.588 4.193,1.763 0.989,1.175 1.484,3.284 1.484,6.327 0,2.561 -0.516,4.431 -1.549,5.613 C 8.792,7.165 7.391,7.756 5.622,7.756 3.927,7.756 2.567,7.156 1.54,5.956 0.513,4.756 0,2.771 0,0 Z m -8.405,0.037 c 0,4.441 1.236,7.898 3.711,10.372 2.474,2.474 5.919,3.711 10.335,3.711 4.527,0 8.016,-1.215 10.465,-3.646 2.449,-2.431 3.674,-5.835 3.674,-10.214 0,-3.179 -0.536,-5.786 -1.606,-7.821 -1.069,-2.035 -2.615,-3.618 -4.639,-4.75 -2.021,-1.132 -4.542,-1.698 -7.56,-1.698 -3.068,0 -5.606,0.488 -7.617,1.466 -2.01,0.977 -3.64,2.523 -4.889,4.639 -1.25,2.115 -1.874,4.762 -1.874,7.941"
         style="fill:#231f20;fill-opacity:1;fill-rule:nonzero;stroke:none"
         transform="matrix(1.3333333,0,0,-1.3333333,677.412,69.249333)" />
      <path
         id="path16"
         d="m 0,0 7.997,0.501 c 0.173,-1.299 0.526,-2.289 1.058,-2.969 0.865,-1.101 2.102,-1.651 3.711,-1.651 1.199,0 2.124,0.281 2.774,0.844 0.649,0.563 0.974,1.215 0.974,1.958 0,0.705 -0.31,1.336 -0.928,1.892 -0.619,0.557 -2.054,1.082 -4.305,1.577 -3.686,0.829 -6.315,1.93 -7.885,3.303 -1.584,1.373 -2.375,3.123 -2.375,5.251 0,1.398 0.405,2.718 1.214,3.961 0.811,1.244 2.03,2.221 3.657,2.932 1.626,0.711 3.855,1.067 6.688,1.067 3.476,0 6.126,-0.646 7.95,-1.939 1.826,-1.293 2.911,-3.349 3.257,-6.169 l -7.923,-0.464 c -0.211,1.224 -0.652,2.115 -1.326,2.672 -0.675,0.556 -1.605,0.835 -2.793,0.835 -0.977,0 -1.714,-0.208 -2.208,-0.622 -0.495,-0.415 -0.742,-0.918 -0.742,-1.512 0,-0.433 0.204,-0.823 0.612,-1.169 0.396,-0.359 1.336,-0.693 2.821,-1.002 3.674,-0.792 6.305,-1.593 7.894,-2.403 1.59,-0.81 2.746,-1.815 3.471,-3.015 0.723,-1.2 1.085,-2.542 1.085,-4.026 0,-1.745 -0.483,-3.353 -1.447,-4.825 -0.965,-1.472 -2.314,-2.588 -4.045,-3.349 -1.733,-0.761 -3.915,-1.141 -6.55,-1.141 -4.627,0 -7.83,0.891 -9.611,2.672 C 1.243,-5.01 0.235,-2.746 0,0"
         style="fill:#231f20;fill-opacity:1;fill-rule:nonzero;stroke:none"
         transform="matrix(1.3333333,0,0,-1.3333333,707.86667,75.310667)" />
      <path
         id="path17"
         d="m 0,0 7.997,0.501 c 0.172,-1.299 0.525,-2.289 1.057,-2.969 0.865,-1.101 2.103,-1.651 3.711,-1.651 1.199,0 2.124,0.281 2.775,0.844 0.648,0.563 0.973,1.215 0.973,1.958 0,0.705 -0.309,1.336 -0.928,1.892 C 14.966,1.132 13.532,1.657 11.281,2.152 7.594,2.981 4.965,4.082 3.395,5.455 1.811,6.828 1.02,8.578 1.02,10.706 c 0,1.398 0.405,2.718 1.215,3.961 0.81,1.244 2.029,2.221 3.656,2.932 1.626,0.711 3.856,1.067 6.689,1.067 3.475,0 6.126,-0.646 7.95,-1.939 1.825,-1.293 2.91,-3.349 3.257,-6.169 l -7.923,-0.464 c -0.211,1.224 -0.653,2.115 -1.326,2.672 -0.675,0.556 -1.606,0.835 -2.793,0.835 -0.978,0 -1.714,-0.208 -2.208,-0.622 -0.495,-0.415 -0.743,-0.918 -0.743,-1.512 0,-0.433 0.205,-0.823 0.613,-1.169 0.395,-0.359 1.336,-0.693 2.82,-1.002 3.674,-0.792 6.306,-1.593 7.895,-2.403 1.589,-0.81 2.746,-1.815 3.47,-3.015 0.723,-1.2 1.085,-2.542 1.085,-4.026 0,-1.745 -0.482,-3.353 -1.447,-4.825 -0.965,-1.472 -2.313,-2.588 -4.045,-3.349 -1.732,-0.761 -3.915,-1.141 -6.55,-1.141 -4.627,0 -7.83,0.891 -9.611,2.672 C 1.243,-5.01 0.234,-2.746 0,0"
         style="fill:#231f20;fill-opacity:1;fill-rule:nonzero;stroke:none"
         transform="matrix(1.3333333,0,0,-1.3333333,744.45733,75.310667)" />
      <path
         id="path18"
         d="m 0,0 7.997,0.501 c 0.173,-1.299 0.526,-2.289 1.058,-2.969 0.865,-1.101 2.102,-1.651 3.711,-1.651 1.199,0 2.124,0.281 2.774,0.845 0.649,0.562 0.974,1.215 0.974,1.957 0,0.705 -0.31,1.336 -0.928,1.892 -0.619,0.557 -2.054,1.082 -4.305,1.577 -3.686,0.829 -6.315,1.93 -7.885,3.303 -1.584,1.373 -2.375,3.123 -2.375,5.251 0,1.398 0.405,2.719 1.214,3.961 0.811,1.244 2.03,2.221 3.657,2.932 1.626,0.712 3.855,1.067 6.688,1.067 3.476,0 6.126,-0.646 7.95,-1.938 1.826,-1.293 2.911,-3.35 3.257,-6.17 l -7.923,-0.464 c -0.211,1.225 -0.652,2.115 -1.326,2.672 -0.675,0.556 -1.605,0.835 -2.793,0.835 -0.977,0 -1.714,-0.207 -2.208,-0.621 -0.495,-0.415 -0.742,-0.919 -0.742,-1.513 0,-0.434 0.204,-0.823 0.612,-1.169 0.396,-0.359 1.336,-0.693 2.821,-1.002 3.674,-0.792 6.305,-1.593 7.894,-2.402 1.59,-0.811 2.746,-1.817 3.471,-3.016 0.723,-1.2 1.085,-2.542 1.085,-4.026 0,-1.744 -0.483,-3.353 -1.447,-4.825 -0.965,-1.472 -2.314,-2.588 -4.045,-3.348 -1.733,-0.762 -3.915,-1.142 -6.55,-1.142 -4.627,0 -7.83,0.891 -9.611,2.672 C 1.243,-5.01 0.235,-2.746 0,0"
         style="fill:#231f20;fill-opacity:1;fill-rule:nonzero;stroke:none"
         transform="matrix(1.3333333,0,0,-1.3333333,198.924,144.64533)" />
      <path
         id="path19"
         d="m 0,0 c 0,-2.746 0.51,-4.72 1.531,-5.919 1.02,-1.2 2.408,-1.8 4.165,-1.8 1.806,0 3.203,0.587 4.194,1.763 0.989,1.175 1.484,3.284 1.484,6.327 0,2.561 -0.517,4.432 -1.55,5.613 C 8.792,7.165 7.391,7.756 5.622,7.756 3.927,7.756 2.566,7.155 1.54,5.956 0.513,4.756 0,2.771 0,0 Z m -8.405,0.037 c 0,4.441 1.236,7.898 3.711,10.372 2.473,2.474 5.919,3.711 10.335,3.711 4.527,0 8.015,-1.216 10.464,-3.645 2.45,-2.432 3.674,-5.836 3.674,-10.215 0,-3.18 -0.535,-5.786 -1.605,-7.821 -1.07,-2.035 -2.615,-3.619 -4.639,-4.75 -2.021,-1.132 -4.543,-1.698 -7.56,-1.698 -3.069,0 -5.607,0.489 -7.618,1.466 -2.009,0.977 -3.639,2.524 -4.888,4.639 -1.25,2.115 -1.874,4.761 -1.874,7.941"
         style="fill:#231f20;fill-opacity:1;fill-rule:nonzero;stroke:none"
         transform="matrix(1.3333333,0,0,-1.3333333,247.26533,138.584)" />
      <path
         id="path20"
         d="M 0,0 7.366,-2.227 C 6.871,-4.293 6.092,-6.019 5.028,-7.403 3.964,-8.789 2.645,-9.834 1.066,-10.539 c -1.576,-0.705 -3.584,-1.058 -6.02,-1.058 -2.957,0 -5.372,0.43 -7.245,1.289 -1.875,0.859 -3.492,2.37 -4.853,4.534 -1.361,2.163 -2.041,4.932 -2.041,8.307 0,4.499 1.197,7.957 3.591,10.374 2.393,2.417 5.779,3.625 10.158,3.625 3.426,0 6.12,-0.693 8.08,-2.078 1.961,-1.386 3.417,-3.514 4.37,-6.383 L -0.315,6.42 c -0.26,0.828 -0.533,1.434 -0.817,1.818 -0.471,0.643 -1.046,1.138 -1.725,1.485 -0.681,0.345 -1.442,0.519 -2.283,0.519 -1.905,0 -3.365,-0.766 -4.379,-2.298 -0.767,-1.136 -1.15,-2.923 -1.15,-5.356 0,-3.015 0.457,-5.081 1.373,-6.199 0.915,-1.119 2.201,-1.677 3.859,-1.677 1.608,0 2.824,0.451 3.646,1.354 C -0.968,-3.031 -0.371,-1.72 0,0"
         style="fill:#231f20;fill-opacity:1;fill-rule:nonzero;stroke:none"
         transform="matrix(1.3333333,0,0,-1.3333333,303.82,141.8)" />
      <path
         id="path21"
         d="m 239.647,12.99 h 8.424 v 27.201 h -8.424 z"
         style="fill:#231f20;fill-opacity:1;fill-rule:nonzero;stroke:none"
         transform="matrix(1.3333333,0,0,-1.3333333,0,173.964)" />
      <path
         id="path22"
         d="M 0,0 H 22.525 V -5.808 H 8.424 v -4.323 h 13.081 v -5.547 H 8.424 v -5.363 h 14.509 v -6.16 H 0 V 0"
         style="fill:#231f20;fill-opacity:1;fill-rule:nonzero;stroke:none"
         transform="matrix(1.3333333,0,0,-1.3333333,338.77733,120.376)" />
      <path
         id="path23"
         d="M 0,0 H 25.549 V -6.717 H 16.977 V -27.201 H 8.572 V -6.717 L 0,-6.717 V 0"
         style="fill:#231f20;fill-opacity:1;fill-rule:nonzero;stroke:none"
         transform="matrix(1.3333333,0,0,-1.3333333,372.844,120.376)" />
      <path
         id="path24"
         d="M 0,0 H 9.337 L 14.816,-9.177 20.309,0 h 9.286 L 19.019,-15.808 v -11.393 h -8.424 v 11.393 L 0,0"
         style="fill:#231f20;fill-opacity:1;fill-rule:nonzero;stroke:none"
         transform="matrix(1.3333333,0,0,-1.3333333,408.32,120.376)" />
    </g>
  </g>
</svg>
