<?xml version="1.0" encoding="UTF-8" standalone="no"?>
<svg
   xmlns:dc="http://purl.org/dc/elements/1.1/"
   xmlns:cc="http://creativecommons.org/ns#"
   xmlns:rdf="http://www.w3.org/1999/02/22-rdf-syntax-ns#"
   xmlns:svg="http://www.w3.org/2000/svg"
   xmlns="http://www.w3.org/2000/svg"
   viewBox="0 0 435.94666 466.26666"
   height="466.26666"
   width="435.94666"
   xml:space="preserve"
   id="svg2"
   version="1.1"><metadata
     id="metadata8"><rdf:RDF><cc:Work
         rdf:about=""><dc:format>image/svg+xml</dc:format><dc:type
           rdf:resource="http://purl.org/dc/dcmitype/StillImage" /><dc:title></dc:title></cc:Work></rdf:RDF></metadata><defs
     id="defs6" /><g
     transform="matrix(1.3333333,0,0,-1.3333333,0,466.26667)"
     id="g10"><g
       transform="scale(0.1)"
       id="g12"><path
         id="path14"
         style="fill:#ed192d;fill-opacity:1;fill-rule:nonzero;stroke:none"
         d="M 1347.12,1479.24 H 682.742 v 569.39 h 664.378 l -0.06,0.39 v 664.35 h 569.46 v -664.35 l -0.06,-0.26 h 664.41 V 1479.3 h -664.41 l 0.06,0.11 V 815.039 h -569.46 v 664.371 l 0.06,-0.17" /><path
         id="path16"
         style="fill:#100f0d;fill-opacity:1;fill-rule:nonzero;stroke:none"
         d="m 194.512,2483.53 c -33.555,9.56 -61.098,-7.67 -76.211,-41.91 -23.2619,-52.71 14.375,-93.45 60.918,-114 46.543,-20.55 102.011,-20.89 125.273,31.8 16.856,38.2 4.59,69.86 -30.058,88.83 l 36.054,81.68 c 78.867,-40.06 100.117,-120.27 65.039,-199.76 -41.875,-94.86 -141.464,-124.35 -232.363,-84.23 -90.8984,40.13 -136.22259,133.6 -94.3554,228.45 29.8516,67.62 105.2544,121.97 181.7574,90.81 l -36.054,-81.67" /><path
         id="path18"
         style="fill:#100f0d;fill-opacity:1;fill-rule:nonzero;stroke:none"
         d="m 364.297,2707.61 46.726,58.49 c 16.79,21.01 14.524,41.25 -5.734,57.42 -19.879,15.88 -41.461,7.32 -57.047,-12.18 l -44.328,-55.51 z m -171.984,23.1 109.035,136.51 c 37.754,47.26 96.277,76.69 150.281,33.55 28.879,-23.07 45.168,-58.81 33.586,-95.62 l 0.75,-0.6 c 29.523,23.11 67.988,5.9 95.285,-12.22 11.855,-8.24 52.137,-38.57 69.375,-36.98 l -55.117,-69.01 c -13.801,1.19 -40.957,21.04 -49.055,26.27 -28.504,19.69 -59.851,37.37 -85.906,4.74 l -42.238,-52.89 97.511,-77.88 -55.722,-69.77 -267.785,213.9" /><path
         id="path20"
         style="fill:#100f0d;fill-opacity:1;fill-rule:nonzero;stroke:none"
         d="m 766.25,2933.13 c 46.316,34.26 33.828,88.29 3.574,129.21 -30.254,40.91 -78.242,68.69 -124.57,34.45 -46.309,-34.24 -33.828,-88.28 -3.574,-129.18 30.254,-40.92 78.25,-68.72 124.57,-34.48 z m -166.652,225.42 c 86.847,64.21 182.941,36.76 242.011,-43.14 59.075,-79.9 57.141,-179.83 -29.714,-244.03 -86.836,-64.2 -182.942,-36.76 -242.012,43.14 -59.063,79.9 -57.129,179.82 29.715,244.03" /><path
         id="path22"
         style="fill:#100f0d;fill-opacity:1;fill-rule:nonzero;stroke:none"
         d="m 842.977,3301.79 80.461,38.7 148.542,-308.86 -80.457,-38.69 -148.546,308.85" /><path
         id="path24"
         style="fill:#100f0d;fill-opacity:1;fill-rule:nonzero;stroke:none"
         d="m 1163.08,3258.2 -151.48,126.64 101.23,28.27 84.15,-87.13 30.05,119.03 98.01,27.37 -63.02,-186.54 164.93,-140.82 -104.48,-29.19 -92.7,92.73 -36.75,-128.89 -98.94,-27.63 69,206.16" /><path
         id="path26"
         style="fill:#100f0d;fill-opacity:1;fill-rule:nonzero;stroke:none"
         d="m 1440.62,3234.89 -5.46,68.91 148.8,11.8 5.47,-68.9 -148.81,-11.81" /><path
         id="path28"
         style="fill:#100f0d;fill-opacity:1;fill-rule:nonzero;stroke:none"
         d="m 1762.89,3338.7 74.36,-8.8 c 26.69,-3.15 42.69,9.45 45.73,35.2 2.99,25.26 -15.68,39.07 -40.46,42 l -70.55,8.34 z m -71.18,158.26 173.5,-20.53 c 60.07,-7.1 115.96,-41.27 107.84,-109.91 -4.34,-36.7 -26.1,-69.41 -63.48,-79 l -0.12,-0.96 c 35.22,-12.87 40.91,-54.62 39.93,-87.38 -0.73,-14.41 -5.22,-64.63 5.23,-78.43 l -87.71,10.37 c -6.28,12.34 -3.76,45.88 -3.58,55.53 1.68,34.61 0.13,70.55 -41.34,75.46 l -67.22,7.96 -14.65,-123.94 -88.67,10.49 40.27,340.34" /><path
         id="path30"
         style="fill:#100f0d;fill-opacity:1;fill-rule:nonzero;stroke:none"
         d="m 2166.85,3116.79 c 53.59,-21.11 92.78,18.12 111.44,65.46 18.66,47.33 16.78,102.76 -36.81,123.89 -53.59,21.12 -92.79,-18.12 -111.44,-65.46 -18.67,-47.32 -16.78,-102.76 36.81,-123.89 z m 102.8,260.8 c 100.47,-39.61 128.14,-135.64 91.71,-228.09 -36.45,-92.43 -122.2,-143.75 -222.68,-104.16 -100.48,39.61 -128.14,135.65 -91.71,228.09 36.45,92.44 122.21,143.75 222.68,104.16" /><path
         id="path32"
         style="fill:#100f0d;fill-opacity:1;fill-rule:nonzero;stroke:none"
         d="m 2662.98,2900.14 c -59.33,-79.7 -125.42,-92.14 -208.61,-30.25 -83.16,61.9 -90.23,128.79 -30.91,208.49 l 120.06,161.35 71.64,-53.3 -123.23,-165.58 c -26.37,-35.42 -26.75,-63.28 8.29,-89.35 35.05,-26.07 61.61,-17.72 87.98,17.71 l 123.22,165.57 71.63,-53.29 -120.07,-161.35" /><path
         id="path34"
         style="fill:#100f0d;fill-opacity:1;fill-rule:nonzero;stroke:none"
         d="m 2818.55,2496.01 -35.64,45.25 26.14,27.32 c -40.57,-2.02 -74.56,22.53 -94.17,47.41 -64.15,81.46 -43.51,183.26 34.54,244.74 78.07,61.47 181.87,57.68 246.02,-23.76 43.95,-55.81 61.08,-138.86 -1.36,-198.43 l -55.24,70.13 c 21.22,20.39 17.34,54 -4.93,82.28 -35.64,45.26 -89.27,31.12 -129.24,-0.36 -39.97,-31.49 -66.27,-80.31 -30.65,-125.56 27.34,-34.69 61.96,-45.31 89.44,-29.77 l -38.61,49.02 52.04,40.99 89.1,-113.13 -147.44,-116.13" /><path
         id="path36"
         style="fill:#100f0d;fill-opacity:1;fill-rule:nonzero;stroke:none"
         d="m 3159.51,2582.18 110.1,-249.95 -65.45,-28.84 -74.11,168.25 -54.93,-24.19 67.74,-153.75 -63.25,-27.86 -67.74,153.74 -59.73,-26.31 76.04,-172.63 -70.27,-30.97 -112.04,254.35 313.64,138.16" /><path
         id="path38"
         style="fill:#100f0d;fill-opacity:1;fill-rule:nonzero;stroke:none"
         d="M 105.219,1081.81 C 70.2852,1061.59 70.2383,1033.46 87.6602,999.781 100.004,975.91 121.316,955.59 143.914,967.27 c 26.867,13.902 9.492,60.02 -0.855,110.34 -10.121,49.88 -14.102,105.64 41.75,134.53 66.519,34.39 127.144,-19.1 156.683,-76.22 31.309,-60.56 33.418,-136.74 -35.004,-172.658 l -41.011,79.298 c 28.375,13.05 23.878,43.69 11.308,67.99 -8.816,17.06 -25.808,35.28 -45.855,24.93 -23.442,-12.12 -5,-58.26 5.574,-109 10.34,-50.3 12.801,-105.23 -42.199,-133.66 -77.168,-39.91 -135.848,12.961 -170.4691,79.899 -36.1562,69.921 -37.4297,147.621 40.3711,188.391 l 41.012,-79.3" /><path
         id="path40"
         style="fill:#100f0d;fill-opacity:1;fill-rule:nonzero;stroke:none"
         d="m 637.035,862.602 -103.234,11.699 -37.051,44.109 84.703,10.36 z M 426.234,969.512 601.922,760.379 547.16,714.379 428.91,855.129 382.969,816.551 491.035,687.922 438.113,643.449 330.047,772.09 280.066,730.082 401.406,585.66 342.605,536.262 163.832,749.051 426.234,969.512" /><path
         id="path42"
         style="fill:#100f0d;fill-opacity:1;fill-rule:nonzero;stroke:none"
         d="m 637.109,725.809 73.418,-54.899 -31.144,-240.418 0.765,-0.582 126.481,169.141 67.269,-50.309 -205.242,-274.472 -73.418,54.91 32.578,242.34 -0.761,0.582 -127.922,-171.063 -67.27,50.313 205.246,274.457" /><path
         id="path44"
         style="fill:#100f0d;fill-opacity:1;fill-rule:nonzero;stroke:none"
         d="m 1158.48,520.391 -97.67,-35.411 -52.79,23.032 71.28,46.937 z m -236.332,2.07 250.312,-109.25 -28.6,-65.539 -168.489,73.527 -24,-54.988 L 1105.35,299.012 1077.69,235.66 923.723,302.859 897.609,243.02 1070.51,167.57 1039.79,97.1914 785.066,208.359 922.148,522.461" /><path
         id="path46"
         style="fill:#100f0d;fill-opacity:1;fill-rule:nonzero;stroke:none"
         d="m 1469.65,5.30078 -56.74,9.96092 1.28,37.7774 C 1385.3,24.5 1343.6,20.1211 1312.39,25.6094 1210.28,43.5508 1157.8,133.172 1174.99,231.039 c 17.2,97.871 97.08,164.231 199.2,146.301 69.96,-12.289 138.1,-62.758 131.27,-148.809 l -87.93,15.449 c 2.23,29.352 -23.06,51.829 -58.52,58.051 -56.73,9.969 -87.28,-36.32 -96.09,-86.441 -8.8,-50.098 4.14,-104.039 60.87,-114.008 43.49,-7.6406 76.38,7.539 86.51,37.438 l -61.46,10.8 11.46,65.239 141.83,-24.918 -32.48,-184.84022" /><path
         id="path48"
         style="fill:#100f0d;fill-opacity:1;fill-rule:nonzero;stroke:none"
         d="m 1691.29,135.082 77.62,4.418 -44.67,117.641 -0.96,-0.039 z m -17.97,214.367 90.56,5.153 147.43,-334.9028 -92.98,-5.2773 -24.57,60.1367 L 1674.43,67.7695 1656.36,5.19922 1564.82,0 l 108.5,349.449" /><path
         id="path50"
         style="fill:#100f0d;fill-opacity:1;fill-rule:nonzero;stroke:none"
         d="m 1913.18,373.238 85.82,24.614 73.29,-255.633 153.65,44.07 21.17,-73.828 -239.48,-68.6602 -94.45,329.4372" /><path
         id="path52"
         style="fill:#100f0d;fill-opacity:1;fill-rule:nonzero;stroke:none"
         d="m 2381.52,315.551 68.35,37.07 -90.54,87.418 -0.84,-0.469 z m -107.58,186.281 79.75,43.25 276.04,-240.16 -81.86,-44.41 -47.85,43.949 -105.06,-56.969 10.3,-64.312 -80.59,-43.711 -50.73,362.363" /><path
         id="path54"
         style="fill:#100f0d;fill-opacity:1;fill-rule:nonzero;stroke:none"
         d="m 2491.52,636.582 69.77,55.707 213.84,-267.82 -69.76,-55.699 -213.85,267.812" /><path
         id="path56"
         style="fill:#100f0d;fill-opacity:1;fill-rule:nonzero;stroke:none"
         d="m 2837.58,640.18 c 31.41,-25.328 57.67,-15.27 82.86,13.09 17.84,20.101 29.15,47.289 10.12,64.191 -22.61,20.07 -59.43,-12.719 -102.66,-40.441 -42.91,-27.379 -93.53,-51.11 -140.55,-9.379 -55.98,49.73 -27.84,125.507 14.86,173.621 45.25,50.949 115.59,80.297 173.69,29.347 l -59.27,-66.757 c -22.37,21.789 -49.35,6.589 -67.52,-13.872 -12.74,-14.359 -23.65,-36.761 -6.79,-51.742 19.75,-17.539 56.16,16.25 99.71,44.332 43.24,27.731 93.61,49.75 139.92,8.649 64.96,-57.688 36.7,-131.438 -13.34,-187.789 -52.26,-58.871 -124.31,-87.961 -190.31,-29.989 l 59.28,66.739" /><path
         id="path58"
         style="fill:#100f0d;fill-opacity:1;fill-rule:nonzero;stroke:none"
         d="m 2827.52,980.551 132.34,238.919 62.56,-34.65 -89.07,-160.82 52.49,-29.078 81.39,146.958 60.47,-33.48 -81.41,-146.97 57.11,-31.641 91.4,165.031 67.18,-37.22 -134.66,-243.112 -299.8,166.063" /></g></g></svg>