<?xml version="1.0" encoding="UTF-8" standalone="no"?>
<!-- Created with Inkscape (http://www.inkscape.org/) -->

<svg
   version="1.1"
   id="svg1"
   width="1382.944"
   height="1374.8748"
   viewBox="0 0 1382.944 1374.8748"
   sodipodi:docname="Cruz Roja Guatemalteca - vertical.svg"
   inkscape:version="1.3.2 (091e20e, 2023-11-25, custom)"
   xmlns:inkscape="http://www.inkscape.org/namespaces/inkscape"
   xmlns:sodipodi="http://sodipodi.sourceforge.net/DTD/sodipodi-0.dtd"
   xmlns="http://www.w3.org/2000/svg"
   xmlns:svg="http://www.w3.org/2000/svg">
  <defs
     id="defs1">
    <clipPath
       clipPathUnits="userSpaceOnUse"
       id="clipPath12">
      <path
         d="M 0.059998,1031.16 H 1037.21 V 0 H 0.059998 Z"
         transform="translate(-57.315001,-44.081001)"
         id="path12" />
    </clipPath>
  </defs>
  <sodipodi:namedview
     id="namedview1"
     pagecolor="#ffffff"
     bordercolor="#666666"
     borderopacity="1.0"
     inkscape:showpageshadow="2"
     inkscape:pageopacity="0.0"
     inkscape:pagecheckerboard="0"
     inkscape:deskcolor="#d1d1d1"
     inkscape:zoom="0.59714532"
     inkscape:cx="690.78662"
     inkscape:cy="687.43736"
     inkscape:window-width="1920"
     inkscape:window-height="1017"
     inkscape:window-x="-8"
     inkscape:window-y="-8"
     inkscape:window-maximized="1"
     inkscape:current-layer="g1">
    <inkscape:page
       x="0"
       y="0"
       inkscape:label="1"
       id="page1"
       width="1382.944"
       height="1374.8748"
       margin="0"
       bleed="0" />
  </sodipodi:namedview>
  <g
     id="g1"
     inkscape:groupmode="layer"
     inkscape:label="1">
    <g
       id="group-MC1">
      <path
         id="path2"
         d="M 0,0 V 232.398 H -232.385 V 0 h -232.393 v -232.373 h 232.393 V -464.745 H 0 v 232.372 H 232.399 L 232.399,0 H 0"
         style="fill:#ed1c24;fill-opacity:1;fill-rule:nonzero;stroke:none"
         transform="matrix(1.3333333,0,0,-1.3333333,841.53867,309.85867)" />
      <path
         id="path3"
         d="M 0,0 22.508,-7.159 C 19.056,-19.706 13.319,-29.01 5.295,-35.096 c -8.023,-6.099 -18.211,-9.142 -30.544,-9.142 -15.269,0 -27.817,5.227 -37.656,15.643 -9.82,10.43 -14.753,24.707 -14.753,42.778 0,19.143 4.946,34.009 14.833,44.587 9.893,10.59 22.877,15.899 38.997,15.899 14.055,0 25.484,-4.169 34.258,-12.48 5.228,-4.92 9.149,-11.972 11.756,-21.182 L -0.791,35.524 c -1.361,5.953 -4.195,10.671 -8.492,14.103 -4.33,3.459 -9.572,5.201 -15.725,5.201 -8.546,0 -15.457,-3.056 -20.758,-9.196 -5.296,-6.086 -7.943,-16.02 -7.943,-29.734 0,-14.504 2.607,-24.88 7.835,-31.033 5.222,-6.18 12.025,-9.263 20.384,-9.263 6.179,0 11.475,1.957 15.939,5.872 C -5.121,-14.599 -1.95,-8.419 0,0"
         style="fill:#231f20;fill-opacity:1;fill-rule:nonzero;stroke:none"
         transform="matrix(1.3333333,0,0,-1.3333333,285.31467,1100.3587)" />
      <path
         id="path4"
         d="M 0,0 H -22.052 V 83.302 H -1.575 V 71.451 c 3.519,5.603 6.662,9.277 9.458,11.073 2.795,1.77 5.972,2.655 9.517,2.655 5.028,0 9.86,-1.395 14.512,-4.156 L 25.102,61.8 c -3.727,2.413 -7.165,3.619 -10.362,3.619 -3.091,0 -5.698,-0.859 -7.85,-2.547 C 4.765,61.169 3.077,58.086 1.837,53.648 0.603,49.198 0,39.894 0,25.724 V 0"
         style="fill:#231f20;fill-opacity:1;fill-rule:nonzero;stroke:none"
         transform="matrix(1.3333333,0,0,-1.3333333,369.81467,1156.7333)" />
      <path
         id="path5"
         d="M 0,0 V 12.467 C -3.036,8.029 -7.011,4.517 -11.958,1.971 c -4.946,-2.561 -10.148,-3.848 -15.644,-3.848 -5.59,0 -10.617,1.22 -15.061,3.686 -4.451,2.467 -7.675,5.912 -9.652,10.349 -1.971,4.438 -2.969,10.577 -2.969,18.433 v 52.711 h 22.038 V 45.015 c 0,-11.716 0.403,-18.888 1.214,-21.515 0.804,-2.642 2.279,-4.733 4.43,-6.275 2.138,-1.541 4.866,-2.318 8.171,-2.318 3.747,0 7.125,1.032 10.094,3.109 2.996,2.065 5.041,4.639 6.126,7.682 1.1,3.057 1.649,10.537 1.649,22.481 V 83.302 H 20.464 L 20.464,0 H 0"
         style="fill:#231f20;fill-opacity:1;fill-rule:nonzero;stroke:none"
         transform="matrix(1.3333333,0,0,-1.3333333,498.11467,1156.7333)" />
      <path
         id="path6"
         d="m 0,0 v 17.185 l 31.235,35.847 c 5.114,5.845 8.921,10.001 11.368,12.467 -2.554,-0.16 -5.946,-0.268 -10.122,-0.321 L 3.063,65.016 V 83.302 H 71.934 V 67.684 L 40.102,30.993 28.882,18.821 c 6.113,0.375 9.887,0.563 11.355,0.563 H 74.354 V 0 H 0"
         style="fill:#231f20;fill-opacity:1;fill-rule:nonzero;stroke:none"
         transform="matrix(1.3333333,0,0,-1.3333333,544.016,1156.7333)" />
      <path
         id="path7"
         d="m 0,0 h 17.199 c 11.126,0 18.071,0.456 20.859,1.421 2.761,0.925 4.933,2.547 6.488,4.853 1.582,2.305 2.373,5.174 2.373,8.633 0,3.861 -1.046,6.998 -3.123,9.371 -2.064,2.373 -4.974,3.874 -8.728,4.517 -1.876,0.241 -7.52,0.375 -16.944,0.375 L 0,29.17 Z M -23.205,-66.357 V 48.622 h 48.85 c 12.305,0 21.22,-1.032 26.784,-3.07 5.563,-2.091 10.027,-5.764 13.379,-11.032 3.338,-5.296 5.013,-11.328 5.013,-18.125 0,-8.619 -2.534,-15.751 -7.614,-21.382 -5.054,-5.63 -12.655,-9.155 -22.736,-10.617 5.027,-2.936 9.17,-6.14 12.44,-9.652 3.258,-3.485 7.668,-9.732 13.218,-18.661 l 14.036,-22.44 H 52.402 l -16.797,25.028 c -5.953,8.942 -10.041,14.571 -12.226,16.904 -2.212,2.32 -4.518,3.914 -6.984,4.773 -2.44,0.885 -6.355,1.313 -11.69,1.313 H 0 v -48.018 h -23.205"
         style="fill:#231f20;fill-opacity:1;fill-rule:nonzero;stroke:none"
         transform="matrix(1.3333333,0,0,-1.3333333,753.688,1068.2573)" />
      <path
         id="path8"
         d="m 0,0 c 0,-8.27 1.971,-14.585 5.898,-18.981 3.888,-4.384 8.727,-6.582 14.478,-6.582 5.751,0 10.591,2.198 14.492,6.582 3.901,4.396 5.831,10.764 5.831,19.129 0,8.164 -1.93,14.452 -5.831,18.848 -3.901,4.37 -8.741,6.569 -14.492,6.569 -5.751,0 -10.59,-2.199 -14.478,-6.569 C 1.971,14.6 0,8.272 0,0 m -22.602,1.167 c 0,7.346 1.824,14.411 5.416,21.261 3.62,6.864 8.727,12.092 15.336,15.712 6.622,3.579 13.996,5.389 22.173,5.389 12.574,0 22.923,-4.103 30.967,-12.28 8.057,-8.178 12.065,-18.526 12.065,-31.02 0,-12.575 -4.062,-23.032 -12.172,-31.329 -8.151,-8.285 -18.393,-12.427 -30.726,-12.427 -7.628,0 -14.907,1.716 -21.852,5.175 -6.903,3.458 -12.171,8.512 -15.791,15.174 -3.592,6.663 -5.416,14.773 -5.416,24.345"
         style="fill:#231f20;fill-opacity:1;fill-rule:nonzero;stroke:none"
         transform="matrix(1.3333333,0,0,-1.3333333,900.416,1101.2)" />
      <path
         id="path9"
         d="M 0,0 H 22.039 V -20.403 H 0 Z m 22.039,-31.691 v -80.715 c 0,-10.617 -0.683,-18.111 -2.078,-22.468 -1.393,-4.343 -4.048,-7.762 -8.003,-10.229 -3.954,-2.453 -8.967,-3.699 -15.107,-3.699 -2.172,0 -4.559,0.214 -7.078,0.59 -2.548,0.429 -5.282,0.991 -8.205,1.782 l 3.834,18.809 c 1.046,-0.215 2.011,-0.376 2.963,-0.51 0.912,-0.121 1.743,-0.174 2.52,-0.174 2.266,0 4.115,0.469 5.536,1.434 1.449,0.966 2.387,2.118 2.869,3.499 0.469,1.354 0.71,5.43 0.71,12.239 v 79.442 h 22.039"
         style="fill:#231f20;fill-opacity:1;fill-rule:nonzero;stroke:none"
         transform="matrix(1.3333333,0,0,-1.3333333,1007.284,1003.4093)" />
      <path
         id="path10"
         d="m 0,0 c -2.828,-0.939 -7.279,-2.065 -13.405,-3.352 -6.126,-1.327 -10.121,-2.6 -12.025,-3.847 -2.869,-2.051 -4.29,-4.638 -4.29,-7.775 0,-3.084 1.14,-5.751 3.458,-8.004 2.293,-2.252 5.229,-3.364 8.768,-3.364 3.968,0 7.775,1.3 11.395,3.914 2.654,1.984 4.397,4.411 5.242,7.279 C -0.295,-13.245 0,-9.679 0,-4.384 Z m -29.478,17.883 -20.001,3.606 c 2.225,8.057 6.112,14.009 11.609,17.869 5.496,3.888 13.647,5.819 24.465,5.819 9.826,0 17.145,-1.154 21.972,-3.5 4.798,-2.319 8.177,-5.268 10.134,-8.847 1.971,-3.593 2.95,-10.175 2.95,-19.733 l -0.228,-25.725 c 0,-7.32 0.348,-12.722 1.045,-16.195 0.737,-3.485 2.024,-7.185 3.969,-11.179 H 4.625 c -0.576,1.474 -1.273,3.633 -2.091,6.514 -0.376,1.314 -0.643,2.186 -0.804,2.601 -3.767,-3.686 -7.776,-6.421 -12.065,-8.258 -4.317,-1.823 -8.875,-2.734 -13.727,-2.734 -8.58,0 -15.336,2.332 -20.284,6.971 -4.946,4.665 -7.413,10.537 -7.413,17.655 0,4.705 1.126,8.901 3.352,12.588 2.266,3.7 5.416,6.514 9.464,8.472 4.062,1.97 9.893,3.673 17.535,5.134 10.309,1.944 17.427,3.74 21.408,5.403 v 2.211 c 0,4.223 -1.045,7.253 -3.15,9.049 -2.077,1.797 -6.032,2.736 -11.823,2.736 -3.928,0 -6.985,-0.791 -9.17,-2.333 -2.199,-1.555 -3.982,-4.25 -5.335,-8.124"
         style="fill:#231f20;fill-opacity:1;fill-rule:nonzero;stroke:none"
         transform="matrix(1.3333333,0,0,-1.3333333,1128.6853,1103.3973)" />
      <path
         id="path11"
         d="m 0,0 v 19.304 h 49.896 v -45.655 c -4.853,-4.68 -11.871,-8.82 -21.087,-12.38 -9.204,-3.58 -18.514,-5.35 -27.951,-5.35 -11.985,0 -22.441,2.5 -31.349,7.54 -8.908,5.01 -15.631,12.2 -20.088,21.58 -4.491,9.358 -6.736,19.519 -6.736,30.526 0,11.944 2.513,22.534 7.5,31.81 5.013,9.304 12.319,16.41 21.972,21.37 7.366,3.793 16.502,5.683 27.467,5.683 14.217,0 25.317,-2.975 33.327,-8.941 8.01,-5.966 13.165,-14.21 15.45,-24.76 l -22.978,-4.29 c -1.615,5.657 -4.651,10.081 -9.108,13.325 -4.464,3.271 -10.028,4.893 -16.691,4.893 -10.134,0 -18.171,-3.203 -24.136,-9.625 -5.966,-6.381 -8.948,-15.912 -8.948,-28.528 0,-13.606 3.023,-23.807 9.055,-30.603 6.059,-6.82 13.988,-10.22 23.788,-10.22 4.833,0 9.699,0.96 14.565,2.86 4.893,1.92 9.056,4.22 12.548,6.93 L 26.496,0 H 0"
         style="fill:#231f20;fill-opacity:1;fill-rule:nonzero;stroke:none"
         transform="matrix(1.3333333,0,0,-1.3333333,76.42,1316.1)"
         clip-path="url(#clipPath12)" />
      <path
         id="path13"
         d="M 0,0 V 12.42 C -3.023,7.9899 -6.992,4.4899 -11.932,1.9399 -16.852,-0.6002 -22.053,-1.89 -27.522,-1.89 c -5.563,0 -10.577,1.2298 -14.995,3.6698 -4.437,2.4701 -7.647,5.9001 -9.625,10.3202 -1.99,4.44 -2.982,10.57 -2.982,18.396 v 52.522 h 21.985 V 44.879 c 0,-11.675 0.402,-18.819 1.206,-21.459 0.811,-2.63 2.286,-4.75 4.411,-6.26 2.138,-1.54 4.853,-2.32 8.144,-2.32 3.76,0 7.105,1.03 10.081,3.09 2.983,2.08 5.007,4.63 6.099,7.66 1.099,3.07 1.636,10.536 1.636,22.413 V 83.018 H 20.409 V 0 H 0"
         style="fill:#231f20;fill-opacity:1;fill-rule:nonzero;stroke:none"
         transform="matrix(1.3333333,0,0,-1.3333333,244.05333,1372.2745)" />
      <path
         id="path14"
         d="m 0,0 c -2.808,-0.939 -7.258,-2.051 -13.385,-3.364 -6.086,-1.301 -10.081,-2.575 -11.944,-3.822 -2.863,-2.023 -4.29,-4.6 -4.29,-7.73 0,-3.1 1.133,-5.76 3.439,-7.98 2.285,-2.27 5.214,-3.37 8.733,-3.37 3.982,0 7.742,1.29 11.348,3.91 2.655,1.99 4.404,4.39 5.235,7.27 C -0.268,-13.206 0,-9.652 0,-4.384 Z m -29.391,17.83 -19.941,3.592 c 2.245,8.03 6.086,13.968 11.569,17.842 5.456,3.834 13.613,5.765 24.378,5.765 9.819,0 17.119,-1.152 21.918,-3.458 4.793,-2.333 8.157,-5.282 10.115,-8.835 1.95,-3.579 2.929,-10.121 2.929,-19.679 l -0.215,-25.643 c 0,-7.29 0.336,-12.68 1.039,-16.14 0.711,-3.47 2.025,-7.17 3.948,-11.13 H 4.605 c -0.563,1.45 -1.26,3.59 -2.104,6.46 -0.356,1.32 -0.624,2.17 -0.771,2.6 -3.747,-3.66 -7.776,-6.4 -12.052,-8.21 -4.276,-1.84 -8.841,-2.75 -13.68,-2.75 -8.56,0 -15.289,2.33 -20.209,6.97 -4.92,4.64 -7.393,10.48 -7.393,17.59 0,4.69 1.119,8.872 3.358,12.544 2.245,3.687 5.376,6.489 9.437,8.432 4.029,1.971 9.86,3.687 17.468,5.135 10.269,1.93 17.374,3.726 21.341,5.388 v 2.2 c 0,4.209 -1.052,7.238 -3.116,9.021 -2.085,1.81 -6.039,2.708 -11.817,2.708 -3.908,0 -6.958,-0.764 -9.15,-2.319 -2.192,-1.528 -3.961,-4.223 -5.308,-8.083"
         style="fill:#231f20;fill-opacity:1;fill-rule:nonzero;stroke:none"
         transform="matrix(1.3333333,0,0,-1.3333333,362.7,1319.12)" />
      <path
         id="path15"
         d="m 0,0 v -17.507 h -15.028 v -33.461 c 0,-6.78 0.134,-10.72 0.435,-11.84 0.295,-1.11 0.939,-2.06 1.958,-2.8 1.012,-0.71 2.259,-1.08 3.726,-1.08 2.025,0 4.954,0.72 8.828,2.11 l 1.877,-17.03 c -5.101,-2.22 -10.906,-3.3 -17.36,-3.3 -3.948,0 -7.535,0.67 -10.725,2.01 -3.17,1.31 -5.51,3.03 -6.984,5.17 -1.481,2.08 -2.527,4.94 -3.09,8.53 -0.469,2.56 -0.697,7.72 -0.697,15.496 v 36.195 H -47.155 V 0 h 10.095 v 16.503 l 22.032,12.829 0,-29.332 H 0"
         style="fill:#231f20;fill-opacity:1;fill-rule:nonzero;stroke:none"
         transform="matrix(1.3333333,0,0,-1.3333333,471.13467,1261.584)" />
      <path
         id="path16"
         d="m 0,0 c -0.161,6.381 -1.803,11.193 -4.92,14.518 -3.13,3.311 -6.931,4.96 -11.422,4.96 -4.799,0 -8.76,-1.756 -11.877,-5.241 C -31.363,10.738 -32.897,5.992 -32.844,0 Z m -1.254,-22.2 21.892,-3.67 C 17.816,-33.92 13.385,-40 7.313,-44.21 c -6.08,-4.18 -13.667,-6.3 -22.797,-6.3 -14.431,0 -25.128,4.72 -32.059,14.15 -5.456,7.56 -8.211,17.11 -8.211,28.638 0,13.741 3.599,24.532 10.791,32.321 7.186,7.802 16.302,11.69 27.294,11.69 12.347,0 22.106,-4.089 29.238,-12.226 7.138,-8.178 10.55,-20.672 10.242,-37.522 h -55.044 c 0.148,-6.501 1.924,-11.571 5.309,-15.171 3.398,-3.65 7.608,-5.46 12.681,-5.46 3.446,0 6.321,0.95 8.687,2.83 2.333,1.85 4.109,4.89 5.302,9.06"
         style="fill:#231f20;fill-opacity:1;fill-rule:nonzero;stroke:none"
         transform="matrix(1.3333333,0,0,-1.3333333,557.24267,1307.448)" />
      <path
         id="path17"
         d="m 0,0 h 20.249 v -11.341 c 7.239,8.822 15.865,13.232 25.866,13.232 5.323,0 9.947,-1.1 13.841,-3.284 3.921,-2.2 7.125,-5.497 9.632,-9.948 3.646,4.451 7.567,7.748 11.79,9.948 4.236,2.184 8.741,3.284 13.54,3.284 6.113,0 11.261,-1.234 15.47,-3.714 4.236,-2.466 7.4,-6.126 9.465,-10.912 1.514,-3.539 2.265,-9.277 2.265,-17.199 v -53.084 h -21.971 v 47.467 c 0,8.231 -0.751,13.539 -2.266,15.926 -2.024,3.137 -5.161,4.705 -9.371,4.705 -3.083,0 -5.979,-0.938 -8.68,-2.802 -2.715,-1.903 -4.665,-4.638 -5.872,-8.257 -1.18,-3.62 -1.803,-9.358 -1.803,-17.187 V -83.018 H 50.191 v 45.509 c 0,8.058 -0.396,13.272 -1.173,15.631 -0.778,2.347 -1.992,4.103 -3.626,5.229 -1.657,1.153 -3.875,1.729 -6.697,1.729 -3.384,0 -6.434,-0.898 -9.149,-2.748 -2.701,-1.809 -4.652,-4.437 -5.818,-7.883 -1.166,-3.431 -1.763,-9.156 -1.763,-17.132 V -83.018 H 0 V 0"
         style="fill:#231f20;fill-opacity:1;fill-rule:nonzero;stroke:none"
         transform="matrix(1.3333333,0,0,-1.3333333,608.02267,1261.584)" />
      <path
         id="path18"
         d="m 0,0 c -2.828,-0.939 -7.266,-2.051 -13.379,-3.364 -6.1,-1.301 -10.081,-2.575 -11.971,-3.822 -2.842,-2.023 -4.29,-4.6 -4.29,-7.73 0,-3.1 1.154,-5.76 3.432,-7.98 2.306,-2.27 5.228,-3.37 8.767,-3.37 3.955,0 7.748,1.29 11.341,3.91 2.655,1.99 4.41,4.39 5.241,7.27 C -0.295,-13.206 0,-9.652 0,-4.384 Z m -29.412,17.83 -19.934,3.592 c 2.238,8.03 6.086,13.968 11.556,17.842 5.496,3.834 13.633,5.765 24.411,5.765 9.8,0 17.105,-1.152 21.905,-3.458 4.785,-2.333 8.164,-5.282 10.121,-8.835 1.944,-3.579 2.922,-10.121 2.922,-19.679 l -0.227,-25.643 c 0,-7.29 0.348,-12.68 1.046,-16.14 0.71,-3.47 2.023,-7.17 3.954,-11.13 H 4.598 c -0.563,1.45 -1.26,3.59 -2.091,6.46 -0.375,1.32 -0.644,2.17 -0.778,2.6 -3.767,-3.66 -7.775,-6.4 -12.038,-8.21 -4.29,-1.84 -8.847,-2.75 -13.714,-2.75 -8.54,0 -15.269,2.33 -20.175,6.97 -4.934,4.64 -7.427,10.48 -7.427,17.59 0,4.69 1.126,8.872 3.378,12.544 2.239,3.687 5.389,6.489 9.438,8.432 4.022,1.971 9.839,3.687 17.481,5.135 10.242,1.93 17.346,3.726 21.328,5.388 v 2.2 c 0,4.209 -1.046,7.238 -3.151,9.021 -2.064,1.81 -6.005,2.708 -11.796,2.708 -3.914,0 -6.945,-0.764 -9.129,-2.319 -2.212,-1.528 -3.982,-4.223 -5.336,-8.083"
         style="fill:#231f20;fill-opacity:1;fill-rule:nonzero;stroke:none"
         transform="matrix(1.3333333,0,0,-1.3333333,861.14667,1319.12)" />
      <path
         id="path19"
         d="m 689.093,1.9301 h 21.972 v 114.636 h -21.972 z"
         style="fill:#231f20;fill-opacity:1;fill-rule:nonzero;stroke:none"
         transform="matrix(1.3333333,0,0,-1.3333333,0,1374.8747)" />
      <path
         id="path20"
         d="m 0,0 v -17.507 h -15.028 v -33.461 c 0,-6.78 0.135,-10.72 0.43,-11.84 0.295,-1.11 0.951,-2.06 1.97,-2.8 0.992,-0.71 2.252,-1.08 3.713,-1.08 2.025,0 4.96,0.72 8.834,2.11 l 1.877,-17.03 c -5.107,-2.22 -10.912,-3.3 -17.36,-3.3 -3.954,0 -7.547,0.67 -10.724,2.01 -3.177,1.31 -5.509,3.03 -6.984,5.17 -1.475,2.08 -2.521,4.94 -3.097,8.53 -0.469,2.56 -0.697,7.72 -0.697,15.496 v 36.195 H -47.161 V 0 h 10.095 v 16.503 l 22.038,12.829 0,-29.332 H 0"
         style="fill:#231f20;fill-opacity:1;fill-rule:nonzero;stroke:none"
         transform="matrix(1.3333333,0,0,-1.3333333,1028.8947,1261.584)" />
      <path
         id="path21"
         d="m 0,0 c -0.161,6.381 -1.809,11.193 -4.933,14.518 -3.123,3.311 -6.931,4.96 -11.421,4.96 -4.8,0 -8.754,-1.756 -11.878,-5.241 C -31.369,10.738 -32.897,5.992 -32.843,0 Z m -1.259,-22.2 21.89,-3.67 C 17.803,-33.92 13.379,-40 7.293,-44.21 c -6.059,-4.18 -13.661,-6.3 -22.79,-6.3 -14.424,0 -25.122,4.72 -32.053,14.15 -5.482,7.56 -8.217,17.11 -8.217,28.638 0,13.741 3.606,24.532 10.805,32.321 7.185,7.802 16.287,11.69 27.281,11.69 12.373,0 22.105,-4.089 29.237,-12.226 7.132,-8.178 10.563,-20.672 10.241,-37.522 h -55.043 c 0.161,-6.501 1.931,-11.571 5.309,-15.171 3.405,-3.65 7.614,-5.46 12.681,-5.46 3.446,0 6.329,0.95 8.661,2.83 2.359,1.85 4.142,4.89 5.336,9.06"
         style="fill:#231f20;fill-opacity:1;fill-rule:nonzero;stroke:none"
         transform="matrix(1.3333333,0,0,-1.3333333,1115.012,1307.448)" />
      <path
         id="path22"
         d="m 0,0 -21.663,-3.914 c -0.724,4.316 -2.387,7.588 -4.987,9.786 -2.561,2.172 -5.925,3.27 -10.027,3.27 -5.47,0 -9.84,-1.889 -13.111,-5.669 -3.244,-3.794 -4.88,-10.095 -4.88,-18.969 0,-9.84 1.662,-16.81 4.96,-20.86 3.312,-4.07 7.762,-6.11 13.339,-6.11 4.169,0 7.588,1.19 10.229,3.56 2.668,2.36 4.557,6.45 5.63,12.243 L 1.1,-30.336 c -2.253,-9.93 -6.569,-17.4 -12.897,-22.44 -6.38,-5.06 -14.907,-7.6 -25.578,-7.6 -12.172,0 -21.837,3.83 -29.062,11.49 -7.213,7.68 -10.832,18.27 -10.832,31.821 0,13.714 3.619,24.385 10.885,32.039 7.239,7.641 17.052,11.449 29.398,11.449 10.095,0 18.138,-2.186 24.131,-6.529 C -6.904,15.537 -2.614,8.901 0,0"
         style="fill:#231f20;fill-opacity:1;fill-rule:nonzero;stroke:none"
         transform="matrix(1.3333333,0,0,-1.3333333,1264.5107,1294.2933)" />
      <path
         id="path23"
         d="m 0,0 c -2.83,-0.939 -7.26,-2.051 -13.376,-3.364 -6.099,-1.301 -10.081,-2.575 -11.957,-3.822 -2.869,-2.023 -4.29,-4.6 -4.29,-7.73 0,-3.1 1.152,-5.76 3.432,-7.98 2.279,-2.27 5.215,-3.37 8.767,-3.37 3.942,0 7.724,1.29 11.344,3.91 2.64,1.99 4.39,4.39 5.2,7.27 0.59,1.88 0.88,5.434 0.88,10.702 z m -29.382,17.83 -19.974,3.592 c 2.265,8.03 6.127,13.968 11.583,17.842 5.482,3.834 13.606,5.765 24.397,5.765 9.816,0 17.096,-1.152 21.906,-3.458 4.78,-2.333 8.15,-5.282 10.11,-8.835 1.95,-3.579 2.92,-10.121 2.92,-19.679 l -0.22,-25.643 c 0,-7.29 0.35,-12.68 1.05,-16.14 0.7,-3.47 2.03,-7.17 3.97,-11.13 H 4.61 c -0.59,1.45 -1.27,3.59 -2.1,6.46 -0.38,1.32 -0.62,2.17 -0.79,2.6 -3.75,-3.66 -7.78,-6.4 -12.04,-8.21 -4.289,-1.84 -8.833,-2.75 -13.673,-2.75 -8.579,0 -15.309,2.33 -20.215,6.97 -4.934,4.64 -7.4,10.48 -7.4,17.59 0,4.69 1.126,8.872 3.365,12.544 2.238,3.687 5.389,6.489 9.424,8.432 4.049,1.971 9.866,3.687 17.48,5.135 10.242,1.93 17.379,3.726 21.339,5.388 v 2.2 c 0,4.209 -1.04,7.238 -3.13,9.021 -2.09,1.81 -6.02,2.708 -11.814,2.708 -3.901,0 -6.957,-0.764 -9.143,-2.319 -2.184,-1.528 -3.954,-4.223 -5.295,-8.083"
         style="fill:#231f20;fill-opacity:1;fill-rule:nonzero;stroke:none"
         transform="matrix(1.3333333,0,0,-1.3333333,1347.8,1319.12)" />
    </g>
  </g>
</svg>
