<?xml version="1.0" encoding="UTF-8" standalone="no"?>
<!-- Created with Inkscape (http://www.inkscape.org/) -->

<svg
   version="1.1"
   id="svg1"
   width="563.53333"
   height="125.12267"
   viewBox="0 0 563.53333 125.12267"
   sodipodi:docname="Cruz Roja Guatemalteca - horizontal.svg"
   inkscape:version="1.3.2 (091e20e, 2023-11-25, custom)"
   xmlns:inkscape="http://www.inkscape.org/namespaces/inkscape"
   xmlns:sodipodi="http://sodipodi.sourceforge.net/DTD/sodipodi-0.dtd"
   xmlns="http://www.w3.org/2000/svg"
   xmlns:svg="http://www.w3.org/2000/svg">
  <defs
     id="defs1">
    <clipPath
       clipPathUnits="userSpaceOnUse"
       id="clipPath3">
      <path
         d="M 0,93.842 H 422.64 V 0.06 L 0,0.06 Z"
         transform="translate(-62.563001,-62.559001)"
         id="path3" />
    </clipPath>
    <clipPath
       clipPathUnits="userSpaceOnUse"
       id="clipPath24">
      <path
         d="M 0,93.842 H 422.64 V 0.06 L 0,0.06 Z"
         transform="translate(-418.27101,-43.223001)"
         id="path24" />
    </clipPath>
  </defs>
  <sodipodi:namedview
     id="namedview1"
     pagecolor="#ffffff"
     bordercolor="#666666"
     borderopacity="1.0"
     inkscape:showpageshadow="2"
     inkscape:pageopacity="0.0"
     inkscape:pagecheckerboard="0"
     inkscape:deskcolor="#d1d1d1"
     inkscape:export-bgcolor="#ffffffff"
     inkscape:zoom="1.6591743"
     inkscape:cx="281.76666"
     inkscape:cy="62.380426"
     inkscape:window-width="1920"
     inkscape:window-height="1017"
     inkscape:window-x="-8"
     inkscape:window-y="-8"
     inkscape:window-maximized="1"
     inkscape:current-layer="g1">
    <inkscape:page
       x="0"
       y="0"
       inkscape:label="1"
       id="page1"
       width="563.53333"
       height="125.12267"
       margin="0"
       bleed="0"
       inkscape:export-filename="Cruz Roja Guatemalteca - horizontal.png"
       inkscape:export-xdpi="300"
       inkscape:export-ydpi="300" />
  </sodipodi:namedview>
  <g
     id="g1"
     inkscape:groupmode="layer"
     inkscape:label="1">
    <g
       id="group-MC1">
      <path
         id="path2"
         d="M 0,0 V 31.283 H -31.28 V 0 H -62.563 V -31.277 H -31.28 V -62.559 H 0 v 31.282 H 31.286 V 0 H 0"
         style="fill:#ed1c24;fill-opacity:1;fill-rule:nonzero;stroke:none"
         transform="matrix(1.3333333,0,0,-1.3333333,83.417333,41.710667)"
         clip-path="url(#clipPath3)" />
      <path
         id="path4"
         d="M 0,0 3.73,-1.181 C 3.158,-3.26 2.207,-4.806 0.878,-5.814 c -1.33,-1.01 -3.019,-1.515 -5.063,-1.515 -2.529,0 -4.609,0.863 -6.239,2.593 -1.628,1.73 -2.444,4.092 -2.444,7.09 0,3.169 0.819,5.633 2.458,7.387 1.637,1.756 3.789,2.633 6.458,2.633 2.33,0 4.226,-0.69 5.681,-2.067 C 2.595,9.493 3.246,8.324 3.677,6.798 L -0.132,5.889 c -0.224,0.986 -0.694,1.767 -1.408,2.339 -0.715,0.571 -1.584,0.857 -2.605,0.857 -1.414,0 -2.561,-0.508 -3.438,-1.52 -0.881,-1.014 -1.319,-2.657 -1.319,-4.926 0,-2.409 0.432,-4.123 1.298,-5.146 0.866,-1.021 1.992,-1.535 3.381,-1.535 1.02,0 1.901,0.327 2.636,0.978 C -0.849,-2.417 -0.321,-1.394 0,0"
         style="fill:#231f20;fill-opacity:1;fill-rule:nonzero;stroke:none"
         transform="matrix(1.3333333,0,0,-1.3333333,175.324,66.990667)" />
      <path
         id="path5"
         d="m 0,0 h -3.652 v 13.803 h 3.392 v -1.962 c 0.581,0.927 1.103,1.536 1.567,1.831 0.464,0.295 0.992,0.444 1.581,0.444 0.831,0 1.633,-0.231 2.403,-0.689 L 4.159,10.242 C 3.544,10.64 2.972,10.84 2.444,10.84 1.934,10.84 1.499,10.699 1.147,10.417 0.79,10.136 0.511,9.627 0.306,8.89 0.103,8.154 0,6.612 0,4.264 V 0"
         style="fill:#231f20;fill-opacity:1;fill-rule:nonzero;stroke:none"
         transform="matrix(1.3333333,0,0,-1.3333333,189.32267,76.330667)" />
      <path
         id="path6"
         d="M 0,0 V 2.068 C -0.502,1.33 -1.164,0.749 -1.981,0.327 c -0.819,-0.426 -1.686,-0.64 -2.592,-0.64 -0.928,0 -1.762,0.205 -2.497,0.614 -0.738,0.405 -1.268,0.979 -1.598,1.715 -0.33,0.737 -0.493,1.755 -0.493,3.052 v 8.735 h 3.652 V 7.461 c 0,-1.941 0.067,-3.13 0.201,-3.567 0.134,-0.438 0.379,-0.785 0.735,-1.041 0.353,-0.254 0.805,-0.383 1.35,-0.383 0.624,0 1.181,0.173 1.677,0.513 0.493,0.342 0.832,0.768 1.012,1.275 0.184,0.508 0.274,1.747 0.274,3.722 v 5.823 H 3.392 L 3.392,0 H 0"
         style="fill:#231f20;fill-opacity:1;fill-rule:nonzero;stroke:none"
         transform="matrix(1.3333333,0,0,-1.3333333,210.58667,76.330667)" />
      <path
         id="path7"
         d="m 0,0 v 2.847 l 5.173,5.94 c 0.849,0.97 1.476,1.659 1.885,2.065 C 6.632,10.827 6.075,10.809 5.38,10.8 L 0.507,10.774 v 3.029 h 11.41 V 11.216 L 6.641,5.136 4.783,3.121 c 1.015,0.062 1.642,0.09 1.884,0.09 h 5.655 V 0 H 0"
         style="fill:#231f20;fill-opacity:1;fill-rule:nonzero;stroke:none"
         transform="matrix(1.3333333,0,0,-1.3333333,218.19333,76.330667)" />
      <path
         id="path8"
         d="M 0,0 H 2.846 C 4.69,0 5.842,0.079 6.302,0.234 6.761,0.391 7.122,0.659 7.382,1.041 7.641,1.422 7.77,1.899 7.77,2.47 7.77,3.112 7.601,3.628 7.256,4.023 6.915,4.418 6.431,4.667 5.81,4.771 5.498,4.813 4.561,4.836 3.001,4.836 H 0 Z M -3.847,-10.995 V 8.059 H 4.25 c 2.035,0 3.514,-0.171 4.439,-0.514 0.921,-0.341 1.659,-0.951 2.213,-1.825 0.554,-0.876 0.834,-1.876 0.834,-3.002 0,-1.43 -0.422,-2.61 -1.263,-3.542 -0.84,-0.931 -2.096,-1.517 -3.768,-1.762 0.831,-0.485 1.52,-1.018 2.059,-1.599 0.543,-0.58 1.272,-1.61 2.191,-3.091 l 2.327,-3.719 H 8.68 L 5.9,-6.847 c -0.989,1.481 -1.666,2.415 -2.027,2.8 -0.365,0.384 -0.749,0.65 -1.158,0.793 -0.408,0.142 -1.053,0.215 -1.937,0.215 H 0 v -7.956 h -3.847"
         style="fill:#231f20;fill-opacity:1;fill-rule:nonzero;stroke:none"
         transform="matrix(1.3333333,0,0,-1.3333333,252.93867,61.672)" />
      <path
         id="path9"
         d="m 0,0 c 0,-1.371 0.324,-2.418 0.974,-3.146 0.651,-0.727 1.45,-1.092 2.403,-1.092 0.954,0 1.753,0.365 2.397,1.092 0.647,0.728 0.968,1.784 0.968,3.169 0,1.354 -0.321,2.392 -0.968,3.121 C 5.13,3.871 4.331,4.234 3.377,4.234 2.424,4.234 1.625,3.871 0.974,3.144 0.324,2.415 0,1.368 0,0 Z m -3.745,0.193 c 0,1.212 0.301,2.388 0.899,3.522 0.597,1.135 1.444,2.001 2.54,2.598 1.097,0.599 2.319,0.899 3.672,0.899 2.087,0 3.797,-0.68 5.133,-2.034 C 9.832,3.821 10.5,2.108 10.5,0.038 10.5,-2.051 9.826,-3.78 8.478,-5.153 7.13,-6.527 5.436,-7.216 3.392,-7.216 c -1.266,0 -2.473,0.286 -3.62,0.862 -1.148,0.571 -2.021,1.408 -2.618,2.513 -0.598,1.106 -0.899,2.45 -0.899,4.034"
         style="fill:#231f20;fill-opacity:1;fill-rule:nonzero;stroke:none"
         transform="matrix(1.3333333,0,0,-1.3333333,277.25067,67.126667)" />
      <path
         id="path10"
         d="M 3.651,0 H 0 V 3.3794 H 3.651 Z M 0,0 Z m 3.651,-1.871 v -13.374 c 0,-1.759 -0.114,-2.998 -0.345,-3.722 -0.23,-0.723 -0.67,-1.289 -1.323,-1.697 -0.656,-0.405 -1.491,-0.609 -2.503,-0.609 -0.364,0 -0.756,0.031 -1.176,0.095 -0.422,0.068 -0.874,0.163 -1.358,0.292 l 0.636,3.12 c 0.175,-0.034 0.336,-0.063 0.487,-0.084 0.151,-0.02 0.294,-0.032 0.423,-0.032 0.373,0 0.68,0.079 0.916,0.239 0.238,0.161 0.395,0.353 0.475,0.581 0.079,0.224 0.117,0.901 0.117,2.027 v 13.164 h 3.651"
         style="fill:#231f20;fill-opacity:1;fill-rule:nonzero;stroke:none"
         transform="matrix(1.3333333,0,0,-1.3333333,294.96,55.432)" />
      <path
         id="path11"
         d="M 0,0 C -0.47,-0.154 -1.21,-0.341 -2.222,-0.56 -3.238,-0.775 -3.9,-0.988 -4.211,-1.195 -4.69,-1.534 -4.926,-1.962 -4.926,-2.482 c 0,-0.51 0.189,-0.954 0.571,-1.327 0.379,-0.371 0.866,-0.556 1.455,-0.556 0.659,0 1.287,0.215 1.885,0.65 0.44,0.326 0.731,0.732 0.872,1.207 C -0.049,-2.196 0,-1.604 0,-0.729 Z M -4.888,2.963 -8.202,3.56 c 0.371,1.335 1.012,2.322 1.922,2.964 0.91,0.642 2.264,0.963 4.058,0.963 1.627,0 2.841,-0.193 3.636,-0.58 C 2.213,6.521 2.773,6.033 3.097,5.439 3.423,4.845 3.585,3.756 3.585,2.17 l -0.04,-4.261 c 0,-1.213 0.059,-2.108 0.176,-2.685 0.117,-0.576 0.335,-1.194 0.657,-1.853 H 0.764 c -0.094,0.245 -0.21,0.604 -0.35,1.079 -0.062,0.216 -0.102,0.359 -0.128,0.429 -0.624,-0.607 -1.292,-1.062 -2.004,-1.365 -0.709,-0.303 -1.467,-0.455 -2.272,-0.455 -1.424,0 -2.544,0.388 -3.36,1.158 -0.819,0.77 -1.228,1.747 -1.228,2.925 0,0.779 0.184,1.473 0.557,2.085 0.373,0.61 0.896,1.08 1.566,1.404 0.671,0.326 1.64,0.609 2.905,0.851 C -1.843,1.804 -0.66,2.1 0,2.378 V 2.742 C 0,3.444 -0.175,3.944 -0.522,4.243 -0.87,4.542 -1.523,4.692 -2.485,4.692 -3.132,4.692 -3.64,4.564 -4.004,4.308 -4.369,4.053 -4.664,3.604 -4.888,2.963"
         style="fill:#231f20;fill-opacity:1;fill-rule:nonzero;stroke:none"
         transform="matrix(1.3333333,0,0,-1.3333333,315.08,67.492)" />
      <path
         id="path12"
         d="M 0,0 V 3.211 H 8.291 V -4.377 C 7.487,-5.158 6.32,-5.845 4.788,-6.439 3.261,-7.031 1.712,-7.329 0.143,-7.329 c -1.992,0 -3.731,0.417 -5.212,1.255 -1.481,0.837 -2.593,2.032 -3.34,3.587 -0.743,1.554 -1.116,3.247 -1.116,5.074 0,1.983 0.417,3.748 1.248,5.29 0.831,1.542 2.048,2.725 3.651,3.547 1.223,0.633 2.743,0.95 4.562,0.95 2.365,0 4.211,-0.497 5.545,-1.49 C 6.807,9.893 7.665,8.522 8.047,6.772 L 4.224,6.058 C 3.955,6.994 3.45,7.732 2.709,8.274 1.969,8.813 1.044,9.085 -0.064,9.085 -1.744,9.085 -3.083,8.553 -4.075,7.487 -5.066,6.422 -5.562,4.84 -5.562,2.743 c 0,-2.261 0.502,-3.956 1.508,-5.087 1.005,-1.132 2.322,-1.698 3.952,-1.698 0.805,0 1.613,0.16 2.424,0.476 0.808,0.314 1.504,0.699 2.086,1.149 L 4.408,0 H 0"
         style="fill:#231f20;fill-opacity:1;fill-rule:nonzero;stroke:none"
         transform="matrix(1.3333333,0,0,-1.3333333,346.372,66.990667)" />
      <path
         id="path13"
         d="M 0,0 V 2.068 C -0.504,1.33 -1.163,0.749 -1.983,0.327 c -0.82,-0.426 -1.683,-0.64 -2.593,-0.64 -0.927,0 -1.758,0.205 -2.497,0.614 C -7.807,0.706 -8.341,1.28 -8.67,2.016 -9,2.753 -9.163,3.771 -9.163,5.068 v 8.735 h 3.651 V 7.461 c 0,-1.941 0.067,-3.13 0.201,-3.567 0.134,-0.438 0.379,-0.785 0.735,-1.041 0.356,-0.254 0.805,-0.383 1.35,-0.383 0.624,0 1.185,0.173 1.678,0.513 0.495,0.342 0.834,0.768 1.015,1.275 0.18,0.508 0.271,1.747 0.271,3.722 v 5.823 H 3.392 L 3.392,0 H 0"
         style="fill:#231f20;fill-opacity:1;fill-rule:nonzero;stroke:none"
         transform="matrix(1.3333333,0,0,-1.3333333,374.23867,76.330667)" />
      <path
         id="path14"
         d="m 0,0 c -0.471,-0.154 -1.212,-0.341 -2.224,-0.56 -1.015,-0.215 -1.677,-0.428 -1.988,-0.635 -0.479,-0.339 -0.715,-0.767 -0.715,-1.287 0,-0.51 0.189,-0.954 0.571,-1.327 0.38,-0.371 0.866,-0.556 1.456,-0.556 0.659,0 1.286,0.215 1.884,0.65 0.44,0.326 0.733,0.732 0.872,1.207 C -0.051,-2.196 0,-1.604 0,-0.729 Z M -4.89,2.963 -8.202,3.56 c 0.37,1.335 1.011,2.322 1.921,2.964 0.911,0.642 2.264,0.963 4.057,0.963 1.628,0 2.841,-0.193 3.637,-0.58 C 2.213,6.521 2.772,6.033 3.096,5.439 3.423,4.845 3.584,3.756 3.584,2.17 L 3.546,-2.091 c 0,-1.213 0.058,-2.108 0.174,-2.685 0.117,-0.576 0.336,-1.194 0.657,-1.853 H 0.763 c -0.093,0.245 -0.21,0.604 -0.35,1.079 -0.061,0.216 -0.102,0.359 -0.128,0.429 -0.625,-0.607 -1.293,-1.062 -2.004,-1.365 -0.709,-0.303 -1.467,-0.455 -2.272,-0.455 -1.422,0 -2.542,0.388 -3.36,1.158 -0.819,0.77 -1.227,1.747 -1.227,2.925 0,0.779 0.183,1.473 0.556,2.085 0.374,0.61 0.896,1.08 1.567,1.404 0.671,0.326 1.638,0.609 2.905,0.851 C -1.845,1.804 -0.66,2.1 0,2.378 v 0.364 c 0,0.702 -0.176,1.202 -0.524,1.501 -0.346,0.299 -1,0.449 -1.963,0.449 -0.647,0 -1.154,-0.128 -1.519,-0.384 C -4.37,4.053 -4.664,3.604 -4.89,2.963"
         style="fill:#231f20;fill-opacity:1;fill-rule:nonzero;stroke:none"
         transform="matrix(1.3333333,0,0,-1.3333333,393.96,67.492)" />
      <path
         id="path15"
         d="m 0,0 v -2.911 h -2.497 v -5.563 c 0,-1.126 0.024,-1.782 0.074,-1.97 0.046,-0.186 0.154,-0.338 0.324,-0.46 0.169,-0.123 0.375,-0.181 0.617,-0.181 0.34,0 0.829,0.117 1.468,0.35 l 0.311,-2.832 c -0.848,-0.365 -1.81,-0.549 -2.884,-0.549 -0.659,0 -1.251,0.111 -1.779,0.333 -0.531,0.222 -0.916,0.508 -1.163,0.858 -0.248,0.349 -0.421,0.825 -0.514,1.423 -0.079,0.425 -0.117,1.283 -0.117,2.572 v 6.019 H -7.837 V 0 h 1.677 v 2.741 l 3.663,2.133 0,-4.874 H 0"
         style="fill:#231f20;fill-opacity:1;fill-rule:nonzero;stroke:none"
         transform="matrix(1.3333333,0,0,-1.3333333,411.97867,57.926667)" />
      <path
         id="path16"
         d="m 0,0 c -0.026,1.056 -0.3,1.86 -0.82,2.411 -0.519,0.55 -1.152,0.825 -1.898,0.825 -0.796,0 -1.456,-0.292 -1.975,-0.872 C -5.212,1.784 -5.469,0.997 -5.459,0 Z M -0.21,-3.69 3.43,-4.302 C 2.963,-5.636 2.222,-6.653 1.214,-7.351 0.205,-8.047 -1.058,-8.397 -2.575,-8.397 c -2.401,0 -4.177,0.785 -5.33,2.354 -0.909,1.257 -1.364,2.841 -1.364,4.757 0,2.286 0.598,4.078 1.794,5.374 1.195,1.295 2.709,1.943 4.538,1.943 2.053,0 3.672,-0.68 4.859,-2.035 1.187,-1.356 1.755,-3.433 1.703,-6.23 h -9.149 c 0.027,-1.085 0.322,-1.929 0.884,-2.53 0.563,-0.603 1.263,-0.903 2.106,-0.903 0.572,0 1.052,0.157 1.44,0.47 0.391,0.311 0.686,0.813 0.884,1.507"
         style="fill:#231f20;fill-opacity:1;fill-rule:nonzero;stroke:none"
         transform="matrix(1.3333333,0,0,-1.3333333,426.29333,65.550667)" />
      <path
         id="path17"
         d="m 0,0 h 3.366 v -1.884 c 1.204,1.464 2.636,2.197 4.302,2.197 0.884,0 1.65,-0.183 2.301,-0.546 0.647,-0.365 1.181,-0.916 1.598,-1.651 0.607,0.735 1.259,1.286 1.963,1.651 0.699,0.363 1.449,0.546 2.245,0.546 1.016,0 1.873,-0.208 2.576,-0.619 0.701,-0.411 1.224,-1.015 1.572,-1.813 0.251,-0.589 0.377,-1.541 0.377,-2.859 v -8.825 h -3.653 v 7.888 c 0,1.372 -0.125,2.255 -0.376,2.653 -0.338,0.521 -0.857,0.78 -1.56,0.78 -0.51,0 -0.991,-0.158 -1.444,-0.469 -0.449,-0.311 -0.775,-0.768 -0.974,-1.371 -0.198,-0.6 -0.298,-1.552 -0.298,-2.852 v -6.629 H 8.344 v 7.565 c 0,1.342 -0.067,2.209 -0.196,2.598 C 8.017,-3.249 7.816,-2.96 7.543,-2.768 7.27,-2.578 6.9,-2.482 6.431,-2.482 5.868,-2.482 5.364,-2.633 4.912,-2.937 4.462,-3.24 4.139,-3.678 3.943,-4.249 3.747,-4.821 3.651,-5.771 3.651,-7.095 v -6.708 H 0 V 0"
         style="fill:#231f20;fill-opacity:1;fill-rule:nonzero;stroke:none"
         transform="matrix(1.3333333,0,0,-1.3333333,434.732,57.926667)" />
      <path
         id="path18"
         d="m 0,0 c -0.467,-0.154 -1.208,-0.341 -2.223,-0.56 -1.016,-0.215 -1.678,-0.428 -1.989,-0.635 -0.476,-0.339 -0.715,-0.767 -0.715,-1.287 0,-0.51 0.193,-0.954 0.572,-1.327 0.381,-0.371 0.865,-0.556 1.454,-0.556 0.66,0 1.289,0.215 1.885,0.65 0.443,0.326 0.732,0.732 0.872,1.207 C -0.047,-2.196 0,-1.604 0,-0.729 Z M -4.886,2.963 -8.203,3.56 c 0.373,1.335 1.015,2.322 1.925,2.964 0.91,0.642 2.261,0.963 4.055,0.963 1.63,0 2.841,-0.193 3.64,-0.58 C 2.212,6.521 2.773,6.033 3.099,5.439 3.422,4.845 3.585,3.756 3.585,2.17 L 3.548,-2.091 c 0,-1.213 0.058,-2.108 0.176,-2.685 C 3.84,-5.352 4.058,-5.97 4.379,-6.629 H 0.766 c -0.097,0.245 -0.213,0.604 -0.349,1.079 -0.062,0.216 -0.106,0.359 -0.132,0.429 -0.624,-0.607 -1.292,-1.062 -2,-1.365 -0.713,-0.303 -1.471,-0.455 -2.276,-0.455 -1.421,0 -2.54,0.388 -3.36,1.158 -0.819,0.77 -1.228,1.747 -1.228,2.925 0,0.779 0.187,1.473 0.56,2.085 0.371,0.61 0.893,1.08 1.566,1.404 0.672,0.326 1.64,0.609 2.905,0.851 C -1.841,1.804 -0.661,2.1 0,2.378 v 0.364 c 0,0.702 -0.173,1.202 -0.52,1.501 -0.347,0.299 -1,0.449 -1.963,0.449 -0.65,0 -1.158,-0.128 -1.519,-0.384 -0.366,-0.255 -0.66,-0.704 -0.884,-1.345"
         style="fill:#231f20;fill-opacity:1;fill-rule:nonzero;stroke:none"
         transform="matrix(1.3333333,0,0,-1.3333333,476.80533,67.492)" />
      <path
         id="path19"
         d="m 364.79,36.594 h 3.651 v 19.053 h -3.651 z"
         style="fill:#231f20;fill-opacity:1;fill-rule:nonzero;stroke:none"
         transform="matrix(1.3333333,0,0,-1.3333333,0,125.12267)" />
      <path
         id="path20"
         d="m 0,0 v -2.911 h -2.497 v -5.563 c 0,-1.126 0.024,-1.782 0.073,-1.97 0.047,-0.186 0.155,-0.338 0.324,-0.46 0.169,-0.123 0.376,-0.181 0.618,-0.181 0.338,0 0.828,0.117 1.467,0.35 l 0.312,-2.832 c -0.849,-0.365 -1.811,-0.549 -2.884,-0.549 -0.659,0 -1.252,0.111 -1.78,0.333 -0.53,0.222 -0.915,0.508 -1.163,0.858 -0.248,0.349 -0.42,0.825 -0.513,1.423 -0.079,0.425 -0.117,1.283 -0.117,2.572 v 6.019 H -7.837 V 0 h 1.677 v 2.741 l 3.663,2.133 0,-4.874 H 0"
         style="fill:#231f20;fill-opacity:1;fill-rule:nonzero;stroke:none"
         transform="matrix(1.3333333,0,0,-1.3333333,504.68667,57.926667)" />
      <path
         id="path21"
         d="m 0,0 c -0.026,1.056 -0.301,1.86 -0.82,2.411 -0.52,0.55 -1.152,0.825 -1.899,0.825 -0.796,0 -1.456,-0.292 -1.974,-0.872 C -5.213,1.784 -5.47,0.997 -5.46,0 Z M -0.211,-3.69 3.43,-4.302 C 2.963,-5.636 2.222,-6.653 1.212,-7.351 0.204,-8.047 -1.06,-8.397 -2.576,-8.397 c -2.401,0 -4.177,0.785 -5.328,2.354 -0.91,1.257 -1.366,2.841 -1.366,4.757 0,2.286 0.598,4.078 1.794,5.374 1.196,1.295 2.71,1.943 4.538,1.943 2.054,0 3.672,-0.68 4.859,-2.035 1.187,-1.356 1.757,-3.433 1.704,-6.23 h -9.149 c 0.026,-1.085 0.321,-1.929 0.883,-2.53 0.564,-0.603 1.263,-0.903 2.106,-0.903 0.572,0 1.053,0.157 1.441,0.47 0.39,0.311 0.685,0.813 0.883,1.507"
         style="fill:#231f20;fill-opacity:1;fill-rule:nonzero;stroke:none"
         transform="matrix(1.3333333,0,0,-1.3333333,519.00133,65.550667)" />
      <path
         id="path22"
         d="m 0,0 -3.603,-0.649 c -0.12,0.718 -0.396,1.259 -0.825,1.624 -0.429,0.364 -0.985,0.544 -1.668,0.544 -0.91,0 -1.637,-0.314 -2.179,-0.941 -0.54,-0.629 -0.81,-1.679 -0.81,-3.152 0,-1.636 0.273,-2.794 0.824,-3.471 0.549,-0.674 1.29,-1.013 2.217,-1.013 0.691,0 1.26,0.197 1.7,0.593 0.443,0.394 0.756,1.071 0.936,2.032 L 0.18,-5.041 c -0.374,-1.648 -1.089,-2.891 -2.143,-3.732 -1.06,-0.842 -2.475,-1.262 -4.25,-1.262 -2.021,0 -3.628,0.64 -4.829,1.911 -1.2,1.274 -1.801,3.038 -1.801,5.29 0,2.277 0.601,4.053 1.807,5.322 1.204,1.269 2.835,1.905 4.887,1.905 1.68,0 3.016,-0.362 4.01,-1.085 C -1.147,2.585 -0.436,1.482 0,0"
         style="fill:#231f20;fill-opacity:1;fill-rule:nonzero;stroke:none"
         transform="matrix(1.3333333,0,0,-1.3333333,543.85067,63.368)" />
      <path
         id="path23"
         d="m 0,0 c -0.467,-0.154 -1.208,-0.341 -2.223,-0.56 -1.016,-0.215 -1.678,-0.428 -1.989,-0.635 -0.475,-0.339 -0.715,-0.767 -0.715,-1.287 0,-0.51 0.193,-0.954 0.572,-1.327 0.381,-0.371 0.865,-0.556 1.455,-0.556 0.659,0 1.289,0.215 1.885,0.65 0.442,0.326 0.731,0.732 0.871,1.207 C -0.047,-2.196 0,-1.604 0,-0.729 Z M -4.886,2.963 -8.203,3.56 c 0.373,1.335 1.015,2.322 1.925,2.964 0.91,0.642 2.261,0.963 4.055,0.963 1.63,0 2.841,-0.193 3.64,-0.58 C 2.212,6.521 2.773,6.033 3.099,5.439 3.422,4.845 3.586,3.756 3.586,2.17 L 3.548,-2.091 c 0,-1.213 0.058,-2.108 0.176,-2.685 C 3.84,-5.352 4.058,-5.97 4.379,-6.629 H 0.766 c -0.097,0.245 -0.213,0.604 -0.349,1.079 -0.062,0.216 -0.106,0.359 -0.132,0.429 -0.624,-0.607 -1.292,-1.062 -2.001,-1.365 -0.711,-0.303 -1.47,-0.455 -2.275,-0.455 -1.421,0 -2.541,0.388 -3.36,1.158 -0.818,0.77 -1.228,1.747 -1.228,2.925 0,0.779 0.187,1.473 0.56,2.085 0.371,0.61 0.893,1.08 1.566,1.404 0.672,0.326 1.64,0.609 2.906,0.851 C -1.841,1.804 -0.661,2.1 0,2.378 v 0.364 c 0,0.702 -0.173,1.202 -0.52,1.501 -0.347,0.299 -1,0.449 -1.963,0.449 -0.65,0 -1.157,-0.128 -1.519,-0.384 -0.365,-0.255 -0.66,-0.704 -0.884,-1.345"
         style="fill:#231f20;fill-opacity:1;fill-rule:nonzero;stroke:none"
         transform="matrix(1.3333333,0,0,-1.3333333,557.69467,67.492)"
         clip-path="url(#clipPath24)" />
    </g>
  </g>
</svg>
