<?xml version="1.0" encoding="utf-8"?>
<!-- Generator: Adobe Illustrator 16.0.4, SVG Export Plug-In . SVG Version: 6.00 Build 0)  -->
<!DOCTYPE svg PUBLIC "-//W3C//DTD SVG 1.1//EN" "http://www.w3.org/Graphics/SVG/1.1/DTD/svg11.dtd">
<svg version="1.1" id="Layer_1" xmlns="http://www.w3.org/2000/svg" xmlns:xlink="http://www.w3.org/1999/xlink" x="0px" y="0px"
	 width="531.895px" height="531.894px" viewBox="0 0 531.895 531.894" enable-background="new 0 0 531.895 531.894"
	 xml:space="preserve">
<path fill="#FFFFFF" d="M265.949,29.782c65.438,0,124.661,26.538,167.576,69.424c42.883,42.901,69.422,102.157,69.422,167.573
	h-0.012v0.004l0,0h0.012c0,65.439-26.539,124.662-69.424,167.577c-42.915,42.883-102.136,69.422-167.573,69.423v-0.011h-0.003
	h-0.001v0.011c-65.417-0.001-124.675-26.541-167.576-69.425c-42.885-42.915-69.423-102.136-69.423-167.573h0.01v-0.002v-0.002h-0.01
	c0-65.417,26.539-124.674,69.424-167.576c42.901-42.886,102.157-69.423,167.573-69.423v0.01h0.003h0.002V29.782L265.949,29.782z"/>
<path d="M265.949,40.282c62.547,0,119.145,25.359,160.152,66.348c40.976,41.004,66.346,97.635,66.346,160.149h-0.012v0.004l0,0
	h0.012c0,62.548-25.37,119.146-66.348,160.153c-41.008,40.976-97.604,66.346-160.149,66.347v-0.011h-0.003h-0.001v0.011
	c-62.516-0.001-119.148-25.372-160.152-66.349c-40.988-41.008-66.347-97.604-66.347-160.149h0.01v-0.002v-0.002h-0.01
	c0-62.515,25.359-119.147,66.348-160.152c41.004-40.989,97.635-66.347,160.149-66.347v0.01h0.003h0.002V40.282L265.949,40.282z
	 M265.947,105.947h-0.003v0.011c-44.154,0.001-84.149,17.882-113.128,46.856c-28.975,28.98-46.856,68.976-46.857,113.131h-0.011
	v0.002v0.002h0.011c0.001,44.221,17.882,84.197,46.856,113.129c28.98,28.907,68.976,46.857,113.132,46.858v0.01h0.001h0.003v-0.01
	c44.22-0.002,84.199-17.951,113.129-46.857c28.909-28.933,46.857-68.909,46.857-113.131h0.011v-0.001v-0.003h-0.011
	c0-44.154-17.948-84.149-46.857-113.128c-28.931-28.975-68.909-46.856-113.13-46.857v-0.011H265.947L265.947,105.947z"/>
<g>
	<path fill="#FFFFFF" d="M78.438,358.068c0.458-0.264,0.861-0.469,1.208-0.615c0.347-0.147,0.642-0.238,0.884-0.272
		c0.243-0.035,0.446-0.021,0.609,0.044c0.163,0.063,0.285,0.167,0.367,0.309l4.419,7.679l24.718-14.226
		c0.158-0.092,0.33-0.122,0.515-0.092c0.186,0.03,0.386,0.141,0.602,0.332s0.462,0.476,0.742,0.851
		c0.279,0.376,0.592,0.864,0.938,1.464c0.346,0.601,0.61,1.116,0.795,1.546c0.185,0.431,0.306,0.787,0.363,1.069
		c0.058,0.282,0.053,0.512-0.015,0.687c-0.067,0.176-0.18,0.309-0.338,0.399l-24.718,14.227l4.419,7.679
		c0.091,0.157,0.121,0.319,0.09,0.484s-0.123,0.344-0.275,0.537c-0.151,0.192-0.378,0.401-0.68,0.627
		c-0.301,0.227-0.681,0.471-1.139,0.734c-0.474,0.273-0.888,0.485-1.243,0.637c-0.354,0.151-0.653,0.245-0.896,0.279
		c-0.243,0.035-0.439,0.021-0.59-0.039c-0.15-0.061-0.271-0.17-0.362-0.328l-12.439-21.613c-0.082-0.142-0.113-0.298-0.095-0.466
		c0.019-0.169,0.104-0.349,0.256-0.542c0.152-0.192,0.383-0.404,0.692-0.635C77.573,358.594,77.964,358.342,78.438,358.068z"/>
	<path fill="#FFFFFF" d="M95.047,314.158c0.171-0.062,0.346-0.063,0.523-0.003c0.178,0.062,0.357,0.204,0.537,0.429
		c0.18,0.226,0.375,0.543,0.583,0.951c0.209,0.409,0.433,0.938,0.672,1.588c0.246,0.668,0.423,1.229,0.532,1.684
		c0.109,0.455,0.167,0.823,0.172,1.103c0.006,0.279-0.039,0.5-0.135,0.661c-0.096,0.162-0.229,0.274-0.4,0.337l-13.421,4.939
		l4.571,12.42l13.42-4.939c0.171-0.062,0.344-0.068,0.519-0.016c0.175,0.052,0.352,0.19,0.532,0.416
		c0.18,0.225,0.374,0.542,0.583,0.951c0.208,0.408,0.436,0.946,0.681,1.613c0.239,0.65,0.414,1.203,0.523,1.658
		c0.109,0.455,0.168,0.826,0.177,1.115c0.009,0.287-0.035,0.513-0.131,0.674c-0.096,0.162-0.229,0.274-0.4,0.337l-31.358,11.54
		c-0.171,0.063-0.345,0.064-0.523,0.004c-0.177-0.061-0.356-0.204-0.537-0.429c-0.18-0.226-0.376-0.547-0.587-0.964
		c-0.212-0.418-0.438-0.951-0.677-1.602c-0.246-0.667-0.421-1.224-0.527-1.671c-0.106-0.446-0.164-0.813-0.173-1.102
		c-0.008-0.288,0.037-0.509,0.135-0.662c0.1-0.152,0.234-0.261,0.405-0.323l12.189-4.486l-4.571-12.42l-12.189,4.486
		c-0.171,0.062-0.345,0.063-0.523,0.003c-0.177-0.061-0.354-0.199-0.532-0.416c-0.177-0.217-0.371-0.534-0.583-0.951
		s-0.44-0.96-0.686-1.627c-0.239-0.649-0.412-1.198-0.518-1.645s-0.164-0.814-0.172-1.103s0.035-0.513,0.13-0.674
		c0.096-0.162,0.23-0.274,0.4-0.337L95.047,314.158z"/>
	<path fill="#FFFFFF" d="M88.836,287.761c0.52-0.097,0.958-0.155,1.316-0.176c0.358-0.021,0.653-0.006,0.884,0.044
		c0.232,0.05,0.41,0.132,0.533,0.248s0.2,0.255,0.23,0.416l3.254,17.474c0.11,0.591,0.028,1.121-0.247,1.589
		c-0.274,0.469-0.806,0.776-1.594,0.923l-30.322,5.647c-0.789,0.146-1.395,0.051-1.82-0.287c-0.424-0.338-0.692-0.803-0.802-1.395
		l-3.234-17.365c-0.03-0.161-0.012-0.312,0.054-0.455c0.067-0.142,0.203-0.278,0.411-0.41c0.208-0.131,0.481-0.252,0.822-0.361
		c0.341-0.11,0.781-0.215,1.318-0.315c0.502-0.094,0.932-0.15,1.29-0.171c0.357-0.02,0.652-0.005,0.884,0.044
		c0.231,0.05,0.409,0.129,0.53,0.235c0.122,0.107,0.198,0.241,0.228,0.402l2.313,12.419l8.495-1.582l-1.958-10.51
		c-0.03-0.162-0.008-0.318,0.065-0.472c0.074-0.152,0.206-0.293,0.395-0.421c0.189-0.128,0.455-0.247,0.796-0.356
		c0.341-0.11,0.763-0.212,1.264-0.306c0.52-0.097,0.955-0.154,1.303-0.173c0.349-0.019,0.635-0.002,0.857,0.049
		c0.223,0.052,0.392,0.136,0.506,0.254c0.115,0.117,0.187,0.257,0.217,0.418l1.958,10.511l9.812-1.827l-2.333-12.527
		c-0.03-0.161-0.008-0.318,0.065-0.471s0.209-0.294,0.408-0.424c0.198-0.129,0.468-0.249,0.809-0.359
		C87.886,287.961,88.316,287.857,88.836,287.761z"/>
	<path fill="#FFFFFF" d="M89.789,253.439c0.306,0.104,0.551,0.234,0.736,0.388c0.185,0.154,0.32,0.397,0.406,0.729
		c0.086,0.333,0.13,0.782,0.133,1.347c0.003,0.566-0.016,1.304-0.055,2.214c-0.032,0.729-0.063,1.352-0.095,1.871
		c-0.032,0.519-0.074,0.959-0.126,1.322c-0.053,0.363-0.12,0.656-0.203,0.88c-0.083,0.225-0.182,0.412-0.298,0.562
		c-0.116,0.15-0.253,0.263-0.412,0.338s-0.357,0.145-0.598,0.207l-31.791,9.156c-0.665,0.19-1.19,0.3-1.574,0.329
		c-0.385,0.029-0.667-0.074-0.849-0.311c-0.182-0.236-0.283-0.628-0.305-1.177c-0.021-0.548-0.012-1.314,0.031-2.298
		c0.036-0.837,0.083-1.492,0.14-1.964c0.057-0.473,0.137-0.834,0.239-1.085c0.102-0.25,0.247-0.422,0.433-0.515
		c0.187-0.092,0.418-0.178,0.696-0.257l27.637-7.42l0.001-0.027l-26.76-9.62c-0.307-0.086-0.553-0.188-0.74-0.306
		s-0.329-0.311-0.426-0.58c-0.098-0.269-0.154-0.65-0.169-1.143c-0.015-0.494-0.004-1.168,0.033-2.024
		c0.037-0.837,0.092-1.488,0.167-1.95s0.221-0.775,0.438-0.939c0.217-0.164,0.515-0.206,0.895-0.125
		c0.38,0.081,0.884,0.244,1.511,0.49L89.789,253.439z"/>
	<path fill="#FFFFFF" d="M94.401,213.788c0.687-0.08,1.223-0.108,1.609-0.083c0.386,0.024,0.652,0.155,0.798,0.39
		c0.146,0.236,0.19,0.608,0.13,1.117c-0.06,0.509-0.181,1.201-0.363,2.075c-0.19,0.91-0.352,1.617-0.484,2.12
		s-0.267,0.88-0.403,1.131s-0.287,0.415-0.452,0.492c-0.165,0.078-0.371,0.128-0.618,0.15l-7.445,0.877l-2.713,13.009l6.314,3.607
		c0.235,0.124,0.425,0.261,0.571,0.412c0.146,0.152,0.24,0.367,0.284,0.646c0.044,0.279,0.034,0.659-0.028,1.139
		c-0.063,0.48-0.174,1.104-0.334,1.872c-0.171,0.821-0.332,1.458-0.482,1.911c-0.15,0.453-0.346,0.747-0.589,0.882
		c-0.242,0.136-0.545,0.138-0.909,0.006c-0.363-0.132-0.835-0.37-1.415-0.714L59.37,227.738c-0.281-0.17-0.5-0.346-0.658-0.528
		c-0.158-0.182-0.253-0.439-0.286-0.772c-0.033-0.333-0.005-0.778,0.083-1.337c0.088-0.559,0.228-1.293,0.417-2.203
		c0.22-1.053,0.408-1.889,0.565-2.508s0.321-1.092,0.492-1.42c0.171-0.328,0.37-0.546,0.598-0.657
		c0.228-0.11,0.523-0.185,0.884-0.221L94.401,213.788z M65.682,224.39l-0.005,0.027l13.701,7.969l2.049-9.824L65.682,224.39z"/>
	<path fill="#FFFFFF" d="M106.86,183.583c0.387,0.162,0.703,0.374,0.95,0.635c0.246,0.262,0.423,0.548,0.529,0.859
		c0.107,0.311,0.142,0.642,0.104,0.992c-0.038,0.35-0.124,0.685-0.257,1.004l-1.183,2.825c-0.247,0.589-0.519,1.073-0.816,1.452
		c-0.297,0.379-0.677,0.685-1.139,0.916c-0.462,0.231-1.029,0.404-1.7,0.519c-0.67,0.115-1.514,0.207-2.531,0.274l-18.66,1.731
		c-1.105,0.091-2.285,0.16-3.54,0.207c-1.255,0.048-2.459,0.058-3.614,0.028l-0.021,0.051c1.239,0.44,2.466,0.895,3.683,1.364
		s2.464,0.972,3.741,1.507l17.075,7.15c0.168,0.071,0.3,0.181,0.396,0.329c0.096,0.149,0.143,0.356,0.14,0.622
		c-0.002,0.266-0.06,0.603-0.171,1.011c-0.112,0.408-0.294,0.914-0.547,1.52c-0.247,0.589-0.476,1.066-0.688,1.431
		c-0.212,0.366-0.411,0.639-0.595,0.818c-0.184,0.18-0.36,0.284-0.53,0.312s-0.339,0.006-0.507-0.064l-29.333-12.283
		c-0.79-0.331-1.286-0.81-1.488-1.438c-0.201-0.627-0.161-1.278,0.12-1.951l1.489-3.556c0.268-0.639,0.548-1.154,0.84-1.545
		c0.293-0.391,0.637-0.707,1.034-0.946c0.396-0.239,0.881-0.417,1.453-0.533c0.573-0.116,1.253-0.196,2.043-0.242l14.591-1.36
		c0.878-0.067,1.742-0.135,2.591-0.205c0.849-0.069,1.693-0.125,2.532-0.17c0.838-0.044,1.661-0.085,2.467-0.123
		s1.609-0.067,2.409-0.088l0.01-0.025c-1.198-0.442-2.441-0.918-3.73-1.428c-1.288-0.51-2.513-1.008-3.673-1.494l-15.31-6.411
		c-0.168-0.07-0.298-0.184-0.391-0.341c-0.092-0.157-0.14-0.375-0.142-0.652c-0.002-0.277,0.056-0.618,0.176-1.023
		c0.12-0.404,0.307-0.909,0.56-1.515c0.239-0.571,0.461-1.042,0.665-1.411c0.204-0.369,0.4-0.637,0.589-0.806
		c0.189-0.168,0.368-0.266,0.538-0.293c0.17-0.027,0.339-0.006,0.506,0.064L106.86,183.583z"/>
	<path fill="#FFFFFF" d="M117.148,148.232c1.798,1.214,3.229,2.565,4.292,4.052c1.063,1.488,1.739,3.077,2.027,4.767
		c0.289,1.691,0.18,3.465-0.327,5.322c-0.507,1.858-1.423,3.769-2.749,5.732c-1.245,1.844-2.592,3.342-4.042,4.497
		s-2.985,1.922-4.605,2.301c-1.62,0.38-3.31,0.366-5.069-0.041c-1.76-0.407-3.576-1.243-5.45-2.508L83.39,160.312
		c-0.151-0.102-0.256-0.239-0.316-0.412c-0.06-0.172-0.048-0.4,0.035-0.686c0.083-0.285,0.229-0.632,0.438-1.04
		c0.209-0.408,0.513-0.907,0.911-1.497c0.388-0.574,0.731-1.034,1.032-1.382c0.3-0.347,0.565-0.608,0.793-0.784
		c0.229-0.176,0.437-0.271,0.624-0.289c0.188-0.016,0.356,0.026,0.507,0.128l17.314,11.689c1.164,0.786,2.269,1.323,3.316,1.612
		c1.047,0.29,2.032,0.354,2.953,0.195c0.921-0.159,1.774-0.518,2.558-1.077c0.785-0.559,1.488-1.299,2.11-2.221
		c0.632-0.937,1.055-1.872,1.268-2.806c0.213-0.934,0.217-1.844,0.012-2.73c-0.205-0.886-0.617-1.741-1.236-2.567
		c-0.62-0.825-1.443-1.584-2.471-2.278l-17.654-11.919c-0.15-0.102-0.256-0.239-0.316-0.412c-0.06-0.172-0.05-0.397,0.027-0.675
		c0.078-0.277,0.224-0.625,0.438-1.04c0.214-0.416,0.516-0.911,0.903-1.485c0.388-0.574,0.729-1.03,1.024-1.37
		c0.295-0.339,0.557-0.597,0.786-0.773c0.229-0.175,0.434-0.268,0.616-0.277c0.183-0.009,0.349,0.038,0.5,0.139L117.148,148.232z"/>
	<path fill="#FFFFFF" d="M149.2,129.762c0.623,0.302,1.09,0.567,1.402,0.795s0.466,0.481,0.463,0.758
		c-0.003,0.277-0.167,0.614-0.491,1.011c-0.324,0.397-0.798,0.916-1.422,1.554c-0.65,0.665-1.166,1.174-1.548,1.526
		c-0.383,0.353-0.699,0.598-0.948,0.736c-0.25,0.139-0.465,0.196-0.646,0.172c-0.181-0.023-0.381-0.092-0.602-0.206l-6.749-3.265
		l-9.285,9.507l3.383,6.438c0.132,0.231,0.218,0.449,0.259,0.655c0.041,0.206,0.005,0.438-0.108,0.697
		c-0.113,0.259-0.326,0.574-0.637,0.945c-0.312,0.371-0.741,0.837-1.289,1.398c-0.586,0.6-1.064,1.05-1.434,1.351
		c-0.371,0.301-0.694,0.443-0.972,0.427c-0.277-0.016-0.534-0.177-0.77-0.484c-0.235-0.307-0.505-0.761-0.809-1.363l-14.836-29.737
		c-0.145-0.295-0.235-0.561-0.271-0.799c-0.035-0.238,0.023-0.506,0.174-0.805c0.151-0.298,0.414-0.659,0.79-1.083
		c0.375-0.423,0.888-0.968,1.537-1.633c0.751-0.769,1.36-1.373,1.825-1.81s0.858-0.748,1.178-0.933
		c0.32-0.184,0.606-0.262,0.858-0.232c0.251,0.03,0.54,0.126,0.864,0.29L149.2,129.762z M119.287,123.252l-0.019,0.02l7.264,14.087
		l7.011-7.18L119.287,123.252z"/>
	<path fill="#FFFFFF" d="M149.555,92.495c0.323,0.419,0.58,0.79,0.772,1.114s0.322,0.604,0.389,0.84
		c0.066,0.236,0.08,0.439,0.038,0.609c-0.042,0.17-0.127,0.305-0.257,0.405l-7.018,5.408l17.407,22.59
		c0.111,0.145,0.165,0.311,0.16,0.499c-0.005,0.188-0.087,0.401-0.249,0.641c-0.161,0.239-0.409,0.522-0.744,0.849
		s-0.777,0.702-1.325,1.125c-0.549,0.423-1.024,0.754-1.426,0.995c-0.401,0.24-0.738,0.408-1.011,0.502
		c-0.272,0.095-0.5,0.121-0.683,0.077c-0.183-0.042-0.33-0.137-0.441-0.281l-17.408-22.59l-7.018,5.407
		c-0.145,0.111-0.301,0.163-0.468,0.154c-0.168-0.009-0.357-0.075-0.569-0.2c-0.211-0.125-0.449-0.321-0.713-0.59
		c-0.264-0.268-0.557-0.611-0.88-1.03c-0.334-0.433-0.6-0.815-0.797-1.146c-0.198-0.331-0.33-0.614-0.396-0.851
		c-0.067-0.236-0.081-0.433-0.041-0.59c0.04-0.157,0.132-0.292,0.276-0.403l19.753-15.221c0.13-0.1,0.28-0.152,0.449-0.156
		c0.169-0.004,0.359,0.057,0.571,0.181c0.211,0.125,0.452,0.325,0.722,0.601C148.919,91.707,149.221,92.062,149.555,92.495z"/>
	<path fill="#FFFFFF" d="M190.713,91.722c1.011,1.92,1.633,3.787,1.867,5.6c0.233,1.814,0.078,3.533-0.467,5.159
		c-0.545,1.626-1.48,3.138-2.804,4.535c-1.324,1.397-3.035,2.648-5.132,3.752c-1.968,1.036-3.864,1.72-5.687,2.052
		c-1.824,0.332-3.54,0.282-5.146-0.149c-1.607-0.431-3.09-1.242-4.448-2.433s-2.563-2.786-3.617-4.786L155.254,86.41
		c-0.085-0.161-0.113-0.332-0.084-0.512c0.029-0.18,0.147-0.375,0.355-0.588c0.208-0.212,0.5-0.449,0.878-0.709
		c0.377-0.26,0.881-0.557,1.51-0.888c0.613-0.323,1.134-0.566,1.562-0.73c0.429-0.164,0.786-0.269,1.07-0.316
		c0.285-0.046,0.513-0.033,0.686,0.041c0.173,0.074,0.302,0.192,0.387,0.353l9.732,18.485c0.654,1.242,1.374,2.238,2.16,2.988
		s1.623,1.273,2.51,1.568c0.886,0.295,1.808,0.382,2.763,0.26c0.956-0.122,1.925-0.442,2.91-0.96c1-0.526,1.814-1.151,2.443-1.874
		c0.629-0.722,1.063-1.522,1.301-2.4c0.238-0.877,0.28-1.826,0.124-2.846c-0.156-1.02-0.522-2.078-1.1-3.175l-9.923-18.849
		c-0.085-0.161-0.113-0.332-0.084-0.512s0.143-0.374,0.342-0.582c0.2-0.208,0.492-0.445,0.878-0.709
		c0.386-0.265,0.885-0.559,1.498-0.881c0.613-0.323,1.129-0.564,1.55-0.724c0.42-0.16,0.773-0.263,1.058-0.31
		c0.285-0.046,0.509-0.031,0.674,0.047c0.165,0.079,0.29,0.198,0.375,0.359L190.713,91.722z"/>
	<path fill="#FFFFFF" d="M238.752,90.513c0.046,0.195,0.05,0.368,0.011,0.518c-0.04,0.15-0.181,0.301-0.426,0.453
		c-0.245,0.152-0.621,0.307-1.126,0.465c-0.506,0.158-1.202,0.342-2.089,0.554c-0.745,0.177-1.343,0.301-1.795,0.371
		s-0.818,0.087-1.098,0.051s-0.492-0.117-0.634-0.243c-0.143-0.125-0.274-0.286-0.396-0.482l-4.916-6.953
		c-0.579-0.78-1.126-1.465-1.642-2.055c-0.515-0.589-1.044-1.058-1.586-1.407c-0.542-0.349-1.124-0.571-1.747-0.667
		c-0.623-0.095-1.306-0.054-2.051,0.123l-2.181,0.519l3.122,13.114c0.042,0.177,0.022,0.351-0.059,0.52
		c-0.082,0.169-0.245,0.33-0.49,0.482c-0.245,0.152-0.583,0.307-1.014,0.466s-0.992,0.32-1.683,0.485
		c-0.674,0.16-1.243,0.268-1.708,0.322c-0.465,0.054-0.841,0.069-1.128,0.043c-0.287-0.025-0.5-0.096-0.641-0.213
		c-0.14-0.116-0.231-0.263-0.273-0.441l-7.44-31.255c-0.186-0.78-0.12-1.391,0.197-1.832c0.316-0.441,0.768-0.731,1.353-0.87
		l8.911-2.122c0.905-0.215,1.654-0.375,2.247-0.479c0.594-0.104,1.136-0.186,1.628-0.247c1.43-0.134,2.755-0.094,3.978,0.122
		c1.222,0.215,2.311,0.616,3.266,1.204c0.955,0.587,1.762,1.361,2.421,2.319s1.151,2.12,1.476,3.485
		c0.274,1.153,0.378,2.238,0.312,3.256c-0.067,1.019-0.295,1.968-0.686,2.848s-0.937,1.694-1.639,2.442
		c-0.703,0.749-1.546,1.417-2.53,2.007c0.574,0.126,1.128,0.312,1.665,0.56c0.537,0.247,1.065,0.576,1.584,0.986
		c0.52,0.41,1.033,0.897,1.542,1.46c0.508,0.563,1.028,1.212,1.56,1.947l4.514,6.093c0.426,0.611,0.721,1.061,0.883,1.35
		C238.607,90.103,238.71,90.336,238.752,90.513z M224.175,69.305c-0.27-1.135-0.755-2.031-1.455-2.689
		c-0.7-0.658-1.673-1.007-2.919-1.048c-0.376-0.004-0.796,0.021-1.261,0.076c-0.465,0.054-1.096,0.176-1.894,0.366l-3.139,0.748
		l2.324,9.762l3.564-0.849c0.993-0.236,1.833-0.563,2.521-0.979s1.229-0.901,1.622-1.454c0.393-0.552,0.642-1.16,0.747-1.822
		S224.352,70.049,224.175,69.305z"/>
	<path fill="#FFFFFF" d="M263.313,87.53c0.041,0.527,0.051,0.969,0.034,1.327c-0.019,0.358-0.065,0.649-0.139,0.875
		c-0.075,0.225-0.176,0.394-0.304,0.503c-0.129,0.111-0.275,0.172-0.438,0.185l-17.721,1.36c-0.6,0.046-1.118-0.092-1.554-0.416
		c-0.437-0.323-0.685-0.884-0.747-1.684l-2.361-30.753c-0.062-0.8,0.099-1.393,0.48-1.778c0.382-0.386,0.873-0.602,1.472-0.648
		l17.612-1.352c0.164-0.013,0.312,0.021,0.447,0.103c0.134,0.082,0.255,0.232,0.364,0.452c0.108,0.221,0.199,0.506,0.271,0.857
		c0.072,0.351,0.13,0.799,0.172,1.344c0.039,0.509,0.049,0.942,0.031,1.3c-0.019,0.358-0.065,0.649-0.139,0.875
		c-0.075,0.225-0.171,0.393-0.291,0.502c-0.12,0.11-0.261,0.171-0.425,0.184l-12.596,0.967l0.662,8.615l10.66-0.818
		c0.164-0.012,0.317,0.026,0.461,0.116s0.269,0.235,0.376,0.437c0.107,0.202,0.197,0.479,0.27,0.83
		c0.072,0.351,0.128,0.781,0.167,1.29c0.041,0.528,0.051,0.966,0.032,1.314c-0.019,0.349-0.066,0.632-0.141,0.847
		c-0.075,0.216-0.177,0.375-0.306,0.476c-0.129,0.102-0.276,0.159-0.439,0.171l-10.66,0.818l0.764,9.951l12.705-0.975
		c0.164-0.013,0.317,0.026,0.461,0.115c0.144,0.09,0.27,0.24,0.377,0.451c0.107,0.211,0.198,0.492,0.271,0.843
		C263.216,86.564,263.272,87.003,263.313,87.53z"/>
	<path fill="#FFFFFF" d="M298.884,74.637c-0.291,3.231-0.962,5.958-2.014,8.178c-1.051,2.221-2.432,3.986-4.143,5.296
		c-1.71,1.31-3.726,2.204-6.048,2.681c-2.321,0.478-5.044,0.575-8.167,0.294l-8.415-0.758c-0.599-0.054-1.087-0.276-1.463-0.667
		c-0.377-0.391-0.529-0.985-0.457-1.785l2.768-30.719c0.071-0.799,0.328-1.357,0.769-1.674c0.44-0.317,0.96-0.449,1.559-0.395
		l9.042,0.814c3.141,0.283,5.771,0.891,7.894,1.823c2.121,0.932,3.866,2.188,5.233,3.766c1.368,1.578,2.347,3.464,2.937,5.659
		C298.967,69.346,299.136,71.841,298.884,74.637z M291.454,74.215c0.15-1.67,0.095-3.24-0.166-4.71
		c-0.262-1.469-0.775-2.769-1.543-3.9s-1.801-2.052-3.101-2.764c-1.3-0.711-3.048-1.167-5.244-1.365l-3.622-0.326l-2.159,23.965
		l3.731,0.336c1.96,0.177,3.635,0.072,5.024-0.316c1.39-0.387,2.58-1.053,3.571-1.998s1.777-2.16,2.359-3.645
		C290.888,78.007,291.271,76.249,291.454,74.215z"/>
	<path fill="#FFFFFF" d="M337.628,98.745c-0.147,0.431-0.286,0.793-0.416,1.086c-0.129,0.293-0.257,0.539-0.382,0.736
		c-0.126,0.198-0.259,0.36-0.397,0.485c-0.141,0.125-0.339,0.255-0.596,0.388c-0.259,0.133-0.712,0.262-1.361,0.386
		s-1.416,0.194-2.298,0.209s-1.859-0.055-2.934-0.211s-2.197-0.435-3.37-0.837c-2.293-0.787-4.241-1.85-5.844-3.189
		c-1.603-1.34-2.81-2.934-3.621-4.783c-0.812-1.849-1.202-3.943-1.17-6.283c0.031-2.34,0.526-4.907,1.483-7.701
		c0.976-2.845,2.221-5.241,3.736-7.188s3.212-3.438,5.089-4.471c1.876-1.033,3.9-1.611,6.072-1.733
		c2.171-0.123,4.403,0.209,6.697,0.995c0.931,0.319,1.801,0.704,2.61,1.155c0.809,0.451,1.536,0.927,2.184,1.428
		c0.647,0.501,1.208,1.016,1.682,1.545c0.474,0.528,0.788,0.949,0.94,1.262c0.153,0.312,0.246,0.561,0.279,0.746
		c0.033,0.185,0.034,0.407,0.003,0.666c-0.031,0.26-0.09,0.558-0.177,0.894c-0.086,0.337-0.212,0.747-0.378,1.229
		c-0.177,0.518-0.345,0.951-0.504,1.302c-0.158,0.35-0.319,0.623-0.482,0.817c-0.163,0.195-0.323,0.323-0.479,0.385
		c-0.156,0.062-0.312,0.066-0.468,0.013c-0.258-0.088-0.534-0.352-0.827-0.79c-0.294-0.438-0.691-0.95-1.193-1.536
		c-0.503-0.587-1.138-1.18-1.904-1.78c-0.768-0.601-1.755-1.108-2.962-1.521c-1.328-0.456-2.606-0.59-3.836-0.405
		s-2.384,0.657-3.462,1.415c-1.079,0.758-2.054,1.787-2.923,3.088c-0.871,1.301-1.613,2.848-2.228,4.642
		c-0.674,1.966-1.056,3.738-1.144,5.317c-0.089,1.579,0.082,2.962,0.514,4.151c0.431,1.188,1.098,2.193,2.002,3.013
		c0.903,0.821,2.02,1.458,3.347,1.914c1.207,0.414,2.3,0.629,3.276,0.646c0.978,0.017,1.839-0.039,2.587-0.168
		c0.748-0.129,1.371-0.262,1.871-0.399c0.5-0.137,0.862-0.167,1.086-0.09c0.173,0.059,0.299,0.141,0.379,0.246
		s0.118,0.272,0.116,0.502s-0.049,0.537-0.142,0.92C337.993,97.622,337.841,98.124,337.628,98.745z"/>
	<path fill="#FFFFFF" d="M362.506,116.956c-0.096,0.177-0.208,0.307-0.337,0.393c-0.129,0.085-0.336,0.104-0.619,0.054
		c-0.284-0.05-0.667-0.185-1.15-0.403c-0.482-0.219-1.124-0.545-1.927-0.978c-0.674-0.364-1.202-0.67-1.586-0.918
		c-0.384-0.249-0.668-0.48-0.853-0.693c-0.186-0.214-0.289-0.415-0.312-0.604c-0.023-0.188-0.015-0.396,0.025-0.623l0.962-8.46
		c0.087-0.968,0.135-1.843,0.144-2.626c0.008-0.783-0.074-1.485-0.246-2.106c-0.173-0.621-0.459-1.174-0.859-1.66
		c-0.401-0.485-0.938-0.91-1.612-1.274l-1.973-1.065l-6.403,11.863c-0.086,0.161-0.217,0.277-0.39,0.349
		c-0.174,0.072-0.402,0.083-0.687,0.034c-0.284-0.049-0.64-0.159-1.066-0.327s-0.953-0.421-1.579-0.759
		c-0.609-0.33-1.105-0.628-1.488-0.897c-0.384-0.269-0.674-0.508-0.871-0.719c-0.197-0.21-0.31-0.405-0.337-0.585
		c-0.026-0.18,0.003-0.351,0.09-0.511l15.261-28.273c0.381-0.706,0.836-1.118,1.366-1.236c0.529-0.118,1.06-0.034,1.589,0.251
		l8.061,4.351c0.818,0.441,1.483,0.821,1.995,1.139s0.972,0.618,1.379,0.899c1.156,0.852,2.118,1.765,2.888,2.739
		c0.769,0.974,1.313,1.999,1.635,3.073c0.321,1.075,0.408,2.189,0.262,3.342c-0.146,1.154-0.553,2.348-1.219,3.583
		c-0.563,1.043-1.208,1.922-1.937,2.637c-0.728,0.716-1.53,1.271-2.407,1.668c-0.877,0.397-1.827,0.641-2.849,0.731
		c-1.022,0.09-2.098,0.028-3.225-0.187c0.344,0.476,0.634,0.985,0.87,1.526c0.235,0.542,0.411,1.138,0.525,1.79
		c0.114,0.652,0.173,1.357,0.178,2.116s-0.039,1.589-0.133,2.492l-0.688,7.552c-0.089,0.74-0.169,1.271-0.24,1.595
		C362.671,116.553,362.592,116.795,362.506,116.956z M365.752,91.426c0.554-1.026,0.788-2.018,0.704-2.975s-0.577-1.866-1.48-2.726
		c-0.277-0.253-0.607-0.514-0.99-0.783c-0.384-0.269-0.936-0.598-1.658-0.988l-2.839-1.533l-4.767,8.831l3.225,1.74
		c0.897,0.485,1.742,0.801,2.533,0.948c0.791,0.147,1.517,0.146,2.178-0.005c0.661-0.151,1.251-0.438,1.771-0.862
		C364.946,92.649,365.388,92.1,365.752,91.426z"/>
	<path fill="#FFFFFF" d="M400.613,125.165c-1.842,2.286-3.772,4.101-5.792,5.446c-2.021,1.346-4.098,2.195-6.23,2.548
		c-2.134,0.353-4.294,0.193-6.479-0.479c-2.187-0.672-4.365-1.883-6.537-3.632c-2.144-1.727-3.788-3.514-4.934-5.361
		c-1.145-1.847-1.787-3.774-1.925-5.782c-0.139-2.007,0.24-4.113,1.138-6.316c0.896-2.203,2.323-4.519,4.279-6.946
		c1.795-2.229,3.694-4.005,5.697-5.329s4.068-2.159,6.196-2.505c2.127-0.346,4.287-0.186,6.479,0.479s4.38,1.878,6.566,3.639
		c2.087,1.681,3.706,3.441,4.856,5.282c1.151,1.84,1.8,3.767,1.945,5.78c0.146,2.013-0.215,4.117-1.08,6.31
		C403.928,120.491,402.534,122.78,400.613,125.165z M394.496,120.729c1.166-1.448,2.113-2.856,2.841-4.224s1.158-2.695,1.293-3.98
		c0.133-1.285-0.068-2.524-0.604-3.717c-0.537-1.193-1.487-2.339-2.85-3.437c-1.378-1.109-2.736-1.777-4.076-2.002
		c-1.341-0.225-2.644-0.133-3.908,0.275c-1.266,0.408-2.481,1.097-3.647,2.065c-1.167,0.969-2.27,2.099-3.311,3.39
		c-1.212,1.505-2.188,2.949-2.927,4.331c-0.739,1.383-1.183,2.717-1.329,4.003c-0.146,1.286,0.054,2.519,0.603,3.698
		c0.548,1.179,1.511,2.323,2.888,3.432s2.733,1.78,4.067,2.012c1.335,0.232,2.64,0.137,3.917-0.286
		c1.276-0.423,2.504-1.125,3.682-2.108C392.312,123.2,393.433,122.049,394.496,120.729z"/>
	<path fill="#FFFFFF" d="M413.706,151.409c-1.396,1.228-2.851,2.045-4.362,2.451c-1.512,0.407-3.011,0.475-4.498,0.205
		c-1.488-0.27-2.933-0.844-4.336-1.722c-1.403-0.878-2.7-1.995-3.893-3.351c-0.806-0.917-1.479-1.836-2.021-2.755
		c-0.541-0.92-0.971-1.774-1.288-2.562c-0.317-0.789-0.538-1.488-0.66-2.096c-0.122-0.609-0.173-1.08-0.15-1.415
		c0.021-0.334,0.166-0.687,0.436-1.057s0.719-0.832,1.349-1.386c0.424-0.373,0.792-0.672,1.104-0.897
		c0.311-0.226,0.583-0.386,0.815-0.48c0.231-0.095,0.431-0.124,0.597-0.087c0.165,0.037,0.308,0.123,0.429,0.26
		c0.168,0.191,0.293,0.562,0.374,1.109c0.081,0.547,0.226,1.215,0.433,2.004c0.208,0.788,0.533,1.662,0.975,2.62
		c0.442,0.958,1.103,1.937,1.981,2.937c0.578,0.657,1.174,1.177,1.789,1.559c0.614,0.382,1.226,0.628,1.832,0.738
		s1.206,0.074,1.799-0.107c0.593-0.182,1.149-0.5,1.67-0.958c0.603-0.529,0.975-1.148,1.117-1.856
		c0.143-0.708,0.149-1.472,0.021-2.294c-0.128-0.822-0.34-1.698-0.635-2.627c-0.296-0.93-0.593-1.895-0.89-2.896
		c-0.297-1.001-0.532-2.02-0.704-3.058c-0.173-1.038-0.199-2.076-0.081-3.115c0.119-1.039,0.431-2.071,0.936-3.098
		c0.505-1.026,1.312-2.027,2.422-3.002c1.272-1.119,2.6-1.867,3.98-2.243c1.38-0.376,2.74-0.444,4.081-0.203
		s2.647,0.768,3.919,1.579c1.271,0.812,2.443,1.827,3.515,3.045c0.554,0.629,1.059,1.302,1.518,2.016
		c0.457,0.714,0.845,1.417,1.162,2.109s0.56,1.341,0.728,1.946c0.167,0.604,0.243,1.036,0.227,1.293
		c-0.017,0.257-0.052,0.452-0.105,0.584s-0.145,0.285-0.271,0.457c-0.128,0.173-0.305,0.371-0.532,0.596
		c-0.228,0.224-0.52,0.493-0.875,0.806c-0.397,0.349-0.742,0.634-1.033,0.854c-0.293,0.22-0.549,0.385-0.769,0.493
		c-0.221,0.108-0.41,0.154-0.57,0.138c-0.161-0.017-0.307-0.101-0.439-0.251c-0.133-0.151-0.247-0.475-0.345-0.972
		c-0.097-0.497-0.243-1.084-0.438-1.762c-0.195-0.678-0.478-1.413-0.847-2.205c-0.368-0.792-0.884-1.565-1.546-2.318
		c-0.518-0.589-1.041-1.039-1.569-1.351c-0.529-0.312-1.05-0.503-1.562-0.575c-0.513-0.072-1.01-0.023-1.492,0.146
		c-0.482,0.169-0.922,0.428-1.318,0.777c-0.589,0.518-0.958,1.126-1.106,1.828c-0.148,0.7-0.152,1.469-0.012,2.305
		c0.14,0.835,0.363,1.725,0.671,2.668c0.307,0.943,0.609,1.915,0.907,2.916c0.297,1,0.537,2.027,0.722,3.079s0.221,2.1,0.108,3.146
		c-0.113,1.046-0.418,2.079-0.916,3.099C415.557,149.491,414.773,150.47,413.706,151.409z"/>
	<path fill="#FFFFFF" d="M428.382,173.358c-1.555,1.02-3.108,1.625-4.662,1.816s-3.048,0.049-4.482-0.427
		c-1.436-0.476-2.786-1.246-4.053-2.312c-1.266-1.066-2.395-2.353-3.385-3.862c-0.67-1.021-1.209-2.025-1.616-3.011
		c-0.407-0.987-0.714-1.892-0.917-2.718c-0.204-0.826-0.324-1.548-0.359-2.168c-0.036-0.62-0.021-1.094,0.048-1.422
		c0.067-0.328,0.261-0.657,0.58-0.985c0.318-0.329,0.828-0.723,1.529-1.184c0.472-0.31,0.878-0.555,1.219-0.734
		c0.34-0.18,0.631-0.3,0.874-0.361s0.444-0.062,0.604-0.003c0.158,0.06,0.288,0.165,0.388,0.318c0.141,0.213,0.212,0.597,0.216,1.15
		s0.053,1.235,0.148,2.045c0.095,0.81,0.295,1.72,0.598,2.731c0.304,1.011,0.821,2.072,1.551,3.185
		c0.48,0.731,0.998,1.329,1.554,1.793c0.555,0.464,1.125,0.793,1.71,0.987s1.184,0.242,1.797,0.146
		c0.612-0.096,1.208-0.334,1.787-0.715c0.671-0.44,1.126-1,1.366-1.682c0.24-0.681,0.354-1.437,0.343-2.269
		c-0.013-0.832-0.1-1.729-0.262-2.69c-0.162-0.962-0.32-1.959-0.475-2.992c-0.154-1.033-0.245-2.075-0.27-3.126
		c-0.025-1.052,0.093-2.084,0.355-3.096s0.716-1.99,1.36-2.937c0.644-0.945,1.583-1.824,2.817-2.634
		c1.417-0.93,2.836-1.485,4.255-1.664c1.42-0.18,2.776-0.056,4.07,0.371c1.294,0.426,2.514,1.13,3.659,2.112
		c1.146,0.982,2.163,2.15,3.054,3.507c0.46,0.701,0.866,1.437,1.221,2.208c0.353,0.771,0.639,1.521,0.855,2.251
		c0.217,0.729,0.366,1.406,0.448,2.028c0.081,0.622,0.096,1.06,0.043,1.312c-0.053,0.252-0.114,0.44-0.186,0.564
		c-0.072,0.123-0.184,0.262-0.333,0.415c-0.15,0.153-0.354,0.325-0.61,0.515c-0.257,0.19-0.584,0.416-0.979,0.675
		c-0.442,0.291-0.823,0.524-1.143,0.701c-0.32,0.177-0.597,0.304-0.83,0.381c-0.233,0.076-0.428,0.095-0.584,0.056
		s-0.29-0.143-0.399-0.31c-0.11-0.168-0.179-0.504-0.205-1.01c-0.027-0.505-0.09-1.108-0.188-1.806
		c-0.099-0.699-0.274-1.466-0.529-2.302c-0.254-0.836-0.656-1.673-1.206-2.512c-0.431-0.655-0.886-1.174-1.365-1.557
		c-0.48-0.383-0.969-0.646-1.466-0.788s-0.996-0.164-1.497-0.064c-0.502,0.1-0.974,0.295-1.415,0.585
		c-0.655,0.43-1.105,0.982-1.351,1.655c-0.245,0.673-0.357,1.433-0.335,2.28c0.021,0.847,0.118,1.759,0.291,2.736
		c0.172,0.977,0.336,1.982,0.49,3.015c0.154,1.032,0.249,2.082,0.284,3.149c0.035,1.067-0.076,2.11-0.334,3.13s-0.704,2-1.341,2.94
		S429.57,172.578,428.382,173.358z"/>
	<path fill="#FFFFFF" d="M444.038,208.93c-1.732,0.676-3.378,0.947-4.938,0.813c-1.56-0.135-2.992-0.583-4.297-1.345
		c-1.307-0.763-2.468-1.796-3.486-3.101c-1.019-1.305-1.856-2.798-2.513-4.479c-0.444-1.138-0.764-2.231-0.958-3.28
		c-0.194-1.05-0.307-1.999-0.335-2.849c-0.028-0.85,0.003-1.582,0.097-2.195c0.093-0.614,0.206-1.074,0.341-1.381
		c0.135-0.307,0.392-0.588,0.771-0.844s0.96-0.536,1.741-0.841c0.526-0.206,0.975-0.361,1.344-0.466
		c0.37-0.105,0.681-0.163,0.931-0.172c0.251-0.01,0.447,0.031,0.591,0.122c0.143,0.091,0.248,0.221,0.314,0.391
		c0.093,0.238,0.084,0.628-0.027,1.17s-0.204,1.219-0.278,2.031s-0.067,1.744,0.021,2.795s0.374,2.198,0.858,3.437
		c0.318,0.815,0.7,1.507,1.148,2.076c0.446,0.569,0.937,1.009,1.469,1.319s1.108,0.482,1.728,0.515
		c0.619,0.032,1.251-0.078,1.896-0.33c0.747-0.292,1.309-0.746,1.685-1.362c0.376-0.616,0.644-1.333,0.805-2.149
		c0.16-0.816,0.261-1.712,0.301-2.686c0.04-0.975,0.092-1.983,0.154-3.025s0.19-2.081,0.384-3.114
		c0.192-1.035,0.521-2.02,0.988-2.955s1.112-1.799,1.938-2.592c0.825-0.792,1.926-1.457,3.302-1.994
		c1.579-0.617,3.081-0.866,4.507-0.748c1.426,0.119,2.728,0.52,3.905,1.205s2.226,1.626,3.144,2.823
		c0.917,1.198,1.671,2.552,2.262,4.063c0.305,0.781,0.55,1.585,0.736,2.413c0.187,0.827,0.311,1.621,0.372,2.379
		c0.062,0.758,0.067,1.451,0.019,2.077s-0.126,1.057-0.229,1.293c-0.104,0.236-0.204,0.407-0.299,0.513
		c-0.096,0.106-0.233,0.218-0.412,0.337c-0.179,0.118-0.413,0.245-0.703,0.377c-0.291,0.133-0.657,0.286-1.099,0.458
		c-0.492,0.192-0.913,0.342-1.263,0.449c-0.35,0.107-0.646,0.174-0.891,0.201s-0.438,0.005-0.583-0.065
		c-0.146-0.071-0.254-0.2-0.327-0.386c-0.073-0.187-0.07-0.53,0.009-1.031c0.078-0.5,0.142-1.103,0.189-1.806
		c0.048-0.704,0.034-1.491-0.041-2.361c-0.076-0.871-0.297-1.773-0.661-2.707c-0.285-0.73-0.623-1.332-1.014-1.806
		c-0.391-0.474-0.814-0.832-1.271-1.074c-0.457-0.243-0.941-0.366-1.452-0.373c-0.511-0.005-1.013,0.088-1.505,0.28
		c-0.73,0.285-1.285,0.732-1.664,1.34c-0.379,0.607-0.646,1.328-0.8,2.162c-0.154,0.833-0.248,1.746-0.281,2.737
		c-0.033,0.991-0.081,2.008-0.144,3.05c-0.063,1.042-0.188,2.089-0.374,3.14s-0.511,2.049-0.974,2.993
		c-0.464,0.944-1.104,1.811-1.921,2.599C446.433,207.759,445.362,208.413,444.038,208.93z"/>
	<path fill="#FFFFFF" d="M458.804,244.009c-2.878,0.581-5.522,0.742-7.936,0.485c-2.414-0.257-4.554-0.932-6.42-2.024
		s-3.425-2.596-4.676-4.51c-1.251-1.915-2.152-4.238-2.704-6.972c-0.544-2.699-0.666-5.124-0.365-7.276
		c0.3-2.153,1.038-4.045,2.216-5.677c1.177-1.632,2.814-3.009,4.913-4.129s4.676-1.989,7.731-2.606
		c2.805-0.566,5.401-0.718,7.788-0.455c2.387,0.262,4.509,0.94,6.366,2.035c1.856,1.094,3.415,2.598,4.676,4.51
		c1.259,1.912,2.167,4.244,2.722,6.996c0.53,2.627,0.649,5.016,0.358,7.167c-0.292,2.151-1.025,4.046-2.2,5.688
		c-1.175,1.641-2.797,3.028-4.865,4.161S461.806,243.403,458.804,244.009z M456.936,236.687c1.823-0.368,3.451-0.845,4.886-1.432
		c1.435-0.587,2.613-1.332,3.538-2.234s1.562-1.984,1.912-3.245c0.35-1.261,0.352-2.749,0.006-4.464
		c-0.35-1.733-0.968-3.115-1.854-4.145c-0.887-1.03-1.947-1.792-3.181-2.287c-1.234-0.495-2.609-0.743-4.125-0.744
		c-1.517-0.001-3.088,0.162-4.713,0.49c-1.895,0.382-3.567,0.868-5.02,1.459c-1.453,0.59-2.646,1.333-3.582,2.229
		c-0.935,0.896-1.568,1.972-1.9,3.229c-0.332,1.257-0.323,2.752,0.026,4.486c0.35,1.733,0.963,3.115,1.841,4.147
		c0.877,1.032,1.942,1.793,3.194,2.285c1.252,0.491,2.645,0.735,4.179,0.733C453.676,237.191,455.274,237.022,456.936,236.687z"/>
	<path fill="#FFFFFF" d="M446.799,276.025c-0.456,0.009-0.844,0.002-1.163-0.02s-0.594-0.058-0.822-0.107
		c-0.229-0.051-0.426-0.12-0.592-0.208s-0.355-0.23-0.568-0.427c-0.214-0.197-0.489-0.579-0.828-1.147
		c-0.339-0.567-0.666-1.264-0.982-2.087c-0.316-0.824-0.584-1.768-0.805-2.83c-0.22-1.062-0.342-2.213-0.365-3.452
		c-0.045-2.424,0.288-4.619,0.999-6.583c0.711-1.964,1.797-3.643,3.257-5.038s3.295-2.478,5.505-3.248
		c2.21-0.771,4.792-1.183,7.744-1.238c3.008-0.056,5.685,0.295,8.033,1.054c2.348,0.758,4.327,1.843,5.939,3.253
		c1.613,1.41,2.848,3.115,3.705,5.114c0.858,1.999,1.31,4.21,1.354,6.634c0.018,0.984-0.046,1.933-0.193,2.848
		c-0.147,0.914-0.346,1.761-0.596,2.541c-0.25,0.779-0.542,1.482-0.877,2.108s-0.623,1.064-0.864,1.315
		c-0.241,0.25-0.443,0.422-0.605,0.517c-0.163,0.094-0.371,0.171-0.625,0.23c-0.255,0.06-0.555,0.106-0.9,0.14
		c-0.346,0.034-0.773,0.056-1.284,0.065c-0.546,0.01-1.012,0-1.395-0.029c-0.384-0.029-0.695-0.087-0.934-0.174
		s-0.414-0.193-0.525-0.318c-0.111-0.126-0.169-0.271-0.172-0.435c-0.005-0.273,0.147-0.623,0.459-1.048
		c0.311-0.426,0.656-0.974,1.036-1.646c0.379-0.673,0.72-1.472,1.021-2.398c0.302-0.926,0.441-2.027,0.418-3.304
		c-0.026-1.403-0.337-2.65-0.932-3.742c-0.595-1.092-1.432-2.016-2.513-2.771c-1.08-0.755-2.381-1.319-3.901-1.691
		c-1.521-0.373-3.228-0.542-5.123-0.506c-2.078,0.039-3.874,0.286-5.388,0.743c-1.515,0.456-2.756,1.09-3.726,1.901
		c-0.969,0.811-1.686,1.782-2.147,2.912s-0.68,2.396-0.654,3.799c0.024,1.276,0.195,2.376,0.513,3.3
		c0.318,0.925,0.665,1.715,1.043,2.374c0.376,0.658,0.715,1.199,1.015,1.622c0.299,0.423,0.451,0.753,0.456,0.99
		c0.003,0.182-0.031,0.328-0.102,0.439c-0.071,0.11-0.215,0.204-0.433,0.281c-0.217,0.076-0.521,0.137-0.912,0.181
		C447.979,275.985,447.455,276.014,446.799,276.025z"/>
	<path fill="#FFFFFF" d="M440.974,287.113c-0.182-0.019-0.339-0.094-0.473-0.226c-0.134-0.133-0.231-0.34-0.295-0.62
		c-0.063-0.281-0.1-0.652-0.109-1.11c-0.009-0.459,0.022-1.042,0.093-1.75c0.069-0.689,0.154-1.262,0.255-1.719
		c0.101-0.458,0.209-0.817,0.327-1.081c0.118-0.263,0.256-0.446,0.413-0.549c0.156-0.104,0.325-0.146,0.507-0.128l33.248,3.325
		c0.182,0.018,0.339,0.093,0.473,0.226c0.133,0.132,0.23,0.343,0.294,0.634c0.062,0.29,0.098,0.665,0.107,1.124
		c0.009,0.458-0.021,1.032-0.09,1.722c-0.071,0.708-0.156,1.285-0.256,1.733s-0.209,0.804-0.327,1.066s-0.255,0.446-0.412,0.55
		s-0.326,0.146-0.507,0.128L440.974,287.113z"/>
	<path fill="#FFFFFF" d="M438.409,314.565c-0.517-0.111-0.944-0.227-1.282-0.346s-0.604-0.246-0.799-0.381
		c-0.195-0.136-0.327-0.28-0.396-0.435s-0.087-0.312-0.052-0.473l3.73-17.378c0.126-0.588,0.406-1.045,0.84-1.371
		c0.434-0.327,1.042-0.406,1.827-0.237l30.156,6.474c0.784,0.169,1.307,0.491,1.568,0.967s0.329,1.007,0.203,1.596l-3.708,17.271
		c-0.034,0.16-0.109,0.293-0.226,0.398s-0.295,0.179-0.537,0.221c-0.242,0.041-0.541,0.047-0.898,0.017
		c-0.356-0.03-0.803-0.103-1.338-0.217c-0.499-0.107-0.917-0.221-1.255-0.34s-0.604-0.246-0.799-0.381
		c-0.195-0.136-0.328-0.276-0.399-0.422s-0.09-0.299-0.056-0.459l2.652-12.352l-8.448-1.813l-2.244,10.453
		c-0.034,0.16-0.115,0.297-0.242,0.409c-0.127,0.113-0.302,0.191-0.526,0.237c-0.224,0.045-0.515,0.052-0.871,0.022
		c-0.357-0.03-0.786-0.099-1.284-0.206c-0.518-0.111-0.94-0.226-1.27-0.342c-0.329-0.118-0.587-0.243-0.772-0.376
		c-0.186-0.134-0.309-0.276-0.369-0.429c-0.061-0.153-0.073-0.31-0.039-0.47l2.244-10.453l-9.758-2.096l-2.675,12.459
		c-0.034,0.16-0.115,0.297-0.241,0.409c-0.127,0.112-0.307,0.19-0.54,0.233s-0.528,0.05-0.885,0.021
		C439.363,314.747,438.926,314.677,438.409,314.565z"/>
	<path fill="#FFFFFF" d="M456.325,351.945c-0.495-0.187-0.909-0.367-1.243-0.541s-0.591-0.344-0.772-0.509
		c-0.182-0.166-0.299-0.332-0.354-0.498c-0.054-0.167-0.052-0.327,0.006-0.48l3.117-8.293l-26.695-10.036
		c-0.171-0.063-0.304-0.178-0.398-0.339c-0.095-0.163-0.137-0.388-0.125-0.676c0.011-0.288,0.072-0.659,0.185-1.113
		c0.112-0.455,0.291-1.006,0.534-1.654c0.244-0.648,0.473-1.181,0.688-1.597s0.413-0.735,0.595-0.96
		c0.182-0.224,0.361-0.365,0.54-0.425c0.178-0.06,0.353-0.058,0.523,0.007l26.694,10.036l3.118-8.293
		c0.064-0.17,0.17-0.296,0.317-0.377s0.343-0.124,0.589-0.129c0.245-0.006,0.551,0.036,0.917,0.125
		c0.365,0.089,0.796,0.227,1.291,0.413c0.512,0.192,0.938,0.377,1.281,0.555c0.342,0.177,0.604,0.348,0.785,0.514
		c0.181,0.166,0.296,0.326,0.345,0.48s0.042,0.317-0.022,0.488l-8.775,23.343c-0.059,0.153-0.158,0.276-0.3,0.369
		c-0.143,0.093-0.336,0.141-0.581,0.146c-0.246,0.005-0.556-0.038-0.93-0.13C457.28,352.279,456.837,352.138,456.325,351.945z"/>
	<path fill="#FFFFFF" d="M429.395,361.789l-10.846-6.097c-0.159-0.089-0.273-0.222-0.342-0.396
		c-0.069-0.176-0.077-0.404-0.022-0.688s0.172-0.641,0.353-1.072c0.18-0.432,0.439-0.95,0.779-1.554
		c0.348-0.62,0.658-1.115,0.929-1.485c0.271-0.37,0.516-0.657,0.733-0.858c0.218-0.202,0.417-0.314,0.598-0.338
		c0.181-0.024,0.351,0.009,0.51,0.098l10.846,6.097l21.547,1.007c0.758,0.028,1.324,0.091,1.699,0.187s0.595,0.282,0.658,0.559
		c0.064,0.276-0.022,0.672-0.259,1.188c-0.237,0.515-0.602,1.209-1.093,2.083c-0.411,0.73-0.755,1.306-1.032,1.726
		c-0.278,0.419-0.532,0.73-0.762,0.937c-0.23,0.204-0.451,0.327-0.661,0.365c-0.21,0.039-0.457,0.052-0.742,0.038l-9.509-0.828
		c-0.919-0.077-1.875-0.181-2.868-0.311c-0.994-0.13-2.029-0.278-3.107-0.444l-0.026,0.048c0.688,0.783,1.349,1.562,1.98,2.336
		s1.229,1.517,1.789,2.229l5.63,7.618c0.21,0.223,0.356,0.436,0.44,0.64s0.106,0.452,0.068,0.744
		c-0.039,0.292-0.158,0.653-0.358,1.084c-0.201,0.432-0.493,0.988-0.877,1.672c-0.51,0.906-0.925,1.598-1.245,2.076
		c-0.321,0.479-0.617,0.762-0.887,0.851s-0.544-0.008-0.824-0.291c-0.28-0.282-0.626-0.728-1.037-1.336L429.395,361.789z"/>
</g>
<polygon fill-rule="evenodd" clip-rule="evenodd" fill="#EC1F30" points="143.447,225.136 225.068,225.136 225.068,143.515 
	306.69,143.515 306.69,225.136 388.447,225.136 388.447,306.75 306.69,306.75 306.69,388.372 225.068,388.372 225.068,306.75 
	143.447,306.75 143.447,225.136 "/>
<rect fill-rule="evenodd" clip-rule="evenodd" fill="none" width="531.895" height="531.894"/>
</svg>
