<?xml version="1.0" encoding="UTF-8" standalone="no"?>
<svg
   xmlns:dc="http://purl.org/dc/elements/1.1/"
   xmlns:cc="http://creativecommons.org/ns#"
   xmlns:rdf="http://www.w3.org/1999/02/22-rdf-syntax-ns#"
   xmlns:svg="http://www.w3.org/2000/svg"
   xmlns="http://www.w3.org/2000/svg"
   viewBox="0 0 914.06665 173.96001"
   height="173.96001"
   width="914.06665"
   xml:space="preserve"
   id="svg2"
   version="1.1"><metadata
     id="metadata8"><rdf:RDF><cc:Work
         rdf:about=""><dc:format>image/svg+xml</dc:format><dc:type
           rdf:resource="http://purl.org/dc/dcmitype/StillImage" /><dc:title></dc:title></cc:Work></rdf:RDF></metadata><defs
     id="defs6" /><g
     transform="matrix(1.3333333,0,0,-1.3333333,0,173.96)"
     id="g10"><g
       transform="scale(0.1)"
       id="g12"><path
         id="path14"
         style="fill:#ed1c24;fill-opacity:1;fill-rule:nonzero;stroke:none"
         d="M 1304.73,856.117 H 856.113 v 448.613 h -407.5 V 856.117 H 0 v -407.5 H 448.613 V 0 h 407.5 v 448.617 h 448.617 v 407.5" /><path
         id="path16"
         style="fill:#231f20;fill-opacity:1;fill-rule:nonzero;stroke:none"
         d="m 1705.01,718.496 c 0,59.289 -11.98,84.942 -49.03,84.942 -41.61,0 -51.3,-41.618 -51.3,-156.77 0,-123.133 17.1,-145.367 52.44,-145.367 29.65,0 51.31,15.39 51.31,103.183 h 82.09 c 0,-87.793 -21.66,-163.613 -129.41,-163.613 -123.13,0 -138.52,87.793 -138.52,211.5 0,123.703 15.39,211.492 138.52,211.492 117.44,0 125.99,-86.078 125.99,-145.367 h -82.09" /><path
         id="path18"
         style="fill:#231f20;fill-opacity:1;fill-rule:nonzero;stroke:none"
         d="m 1919.31,678.02 h 34.2 c 39.34,0 61.58,17.105 61.58,61 0,37.621 -19.96,56.437 -57.02,56.437 h -38.76 z m -82.09,177.859 h 151.64 c 67.27,0 108.32,-35.34 108.32,-104.891 0,-54.156 -21.67,-90.64 -67.85,-100.332 v -1.136 c 55.87,-7.415 64.42,-38.192 65.56,-124.274 0.57,-42.754 2.85,-64.992 18.24,-72.969 v -3.418 h -88.92 c -7.99,11.395 -9.7,26.786 -10.27,42.754 l -2.28,78.094 c -1.13,31.926 -15.39,51.309 -48.45,51.309 h -43.9 V 448.859 h -82.09 v 407.02" /><path
         id="path20"
         style="fill:#231f20;fill-opacity:1;fill-rule:nonzero;stroke:none"
         d="m 2381.6,855.879 v -67.266 h -145.37 v -95.769 h 136.81 V 625.578 H 2236.23 V 516.125 h 151.07 v -67.266 h -233.16 v 407.02 h 227.46" /><path
         id="path22"
         style="fill:#231f20;fill-opacity:1;fill-rule:nonzero;stroke:none"
         d="M 2505.27,855.879 V 571.992 c 0,-40.476 9.69,-70.691 47.88,-70.691 38.2,0 47.89,30.215 47.89,70.691 v 283.887 h 82.09 V 571.992 c 0,-103.758 -63.28,-131.121 -129.98,-131.121 -66.7,0 -129.97,22.234 -129.97,131.121 v 283.887 h 82.09" /><path
         id="path24"
         style="fill:#231f20;fill-opacity:1;fill-rule:nonzero;stroke:none"
         d="m 2953.85,678.02 h 34.19 c 39.34,0 61.58,17.105 61.58,61 0,37.621 -19.96,56.437 -57.01,56.437 h -38.76 z m -82.09,177.859 h 151.63 c 67.27,0 108.32,-35.34 108.32,-104.891 0,-54.156 -21.67,-90.64 -67.84,-100.332 v -1.136 c 55.86,-7.415 64.41,-38.192 65.55,-124.274 0.57,-42.754 2.85,-64.992 18.24,-72.969 v -3.418 h -88.92 c -7.99,11.395 -9.69,26.786 -10.27,42.754 l -2.28,78.094 c -1.13,31.926 -15.39,51.309 -48.45,51.309 h -43.89 V 448.859 h -82.09 v 407.02" /><path
         id="path26"
         style="fill:#231f20;fill-opacity:1;fill-rule:nonzero;stroke:none"
         d="m 3318.65,501.301 c 48.46,0 56.44,41.621 56.44,151.07 0,108.879 -7.98,151.067 -56.44,151.067 -48.46,0 -56.44,-42.188 -56.44,-151.067 0,-109.449 7.98,-151.07 56.44,-151.07 z m 0,362.562 c 123.13,0 138.53,-87.789 138.53,-211.492 0,-123.707 -15.4,-211.5 -138.53,-211.5 -123.13,0 -138.53,87.793 -138.53,211.5 0,123.703 15.4,211.492 138.53,211.492" /><path
         id="path28"
         style="fill:#231f20;fill-opacity:1;fill-rule:nonzero;stroke:none"
         d="M 3715.95,855.879 V 562.871 c 0,-86.648 -39.34,-122 -122.57,-122 -86.64,0 -107.74,55.301 -107.74,119.149 v 17.668 h 75.25 v -12.54 c 0,-43.32 6.84,-63.847 36.48,-63.847 29.65,0 36.49,20.527 36.49,63.847 v 290.731 h 82.09" /><path
         id="path30"
         style="fill:#231f20;fill-opacity:1;fill-rule:nonzero;stroke:none"
         d="m 3859.58,602.207 h 79.81 l -39.33,182.988 h -1.15 z m -10.83,253.672 h 101.47 l 107.75,-407.02 h -85.52 l -18.81,86.075 h -108.31 l -18.82,-86.075 H 3741 l 107.75,407.02" /><path
         id="path32"
         style="fill:#231f20;fill-opacity:1;fill-rule:nonzero;stroke:none"
         d="m 4400.51,598.215 -62.71,229.164 h -1.14 l -62.71,-229.164 z m -86.08,257.664 h 45.61 l 120.28,-407.02 h -38.77 l -33.06,118.575 h -142.52 l -33.06,-118.575 h -38.76 l 120.28,407.02" /><path
         id="path34"
         style="fill:#231f20;fill-opacity:1;fill-rule:nonzero;stroke:none"
         d="m 4511.64,855.879 h 49.02 L 4716.3,501.301 h 1.13 v 354.578 h 36.48 v -407.02 h -49.02 l -155.62,354.579 h -1.15 V 448.859 h -36.48 v 407.02" /><path
         id="path36"
         style="fill:#231f20;fill-opacity:1;fill-rule:nonzero;stroke:none"
         d="m 4854.21,479.641 h 59.28 c 79.81,0 113.45,39.902 113.45,172.156 0,133.398 -33.64,173.301 -113.45,173.301 h -59.28 z m -36.49,376.238 h 98.06 c 118.57,0 147.65,-70.684 147.65,-203.508 0,-132.828 -29.08,-203.512 -147.65,-203.512 h -98.06 v 407.02" /><path
         id="path38"
         style="fill:#231f20;fill-opacity:1;fill-rule:nonzero;stroke:none"
         d="m 5250.36,472.793 c 58.15,0 93.49,47.891 93.49,179.578 0,131.684 -35.34,179.57 -93.49,179.57 -58.15,0 -93.49,-47.886 -93.49,-179.57 0,-131.687 35.34,-179.578 93.49,-179.578 z m 0,389.934 c 83.23,0 129.98,-64.418 129.98,-210.356 0,-145.933 -46.75,-210.359 -129.98,-210.359 -83.23,0 -129.97,64.426 -129.97,210.359 0,145.938 46.74,210.356 129.97,210.356" /><path
         id="path40"
         style="fill:#231f20;fill-opacity:1;fill-rule:nonzero;stroke:none"
         d="m 5477.2,665.48 h 62.71 c 57.58,0 91.21,26.219 91.21,79.809 0,49.594 -21.09,79.809 -87.22,79.809 h -66.7 z m -36.48,190.399 h 121.43 c 67.83,0 105.45,-38.758 105.45,-102.039 0,-49.024 -19.38,-92.922 -73.53,-103.184 v -1.136 c 50.73,-4.563 67.84,-33.629 69.55,-96.344 l 1.13,-44.465 c 0.58,-22.234 2.85,-43.895 17.11,-59.852 h -42.76 c -8.55,14.246 -10.25,35.34 -10.83,57 l -1.13,34.211 c -2.29,71.825 -15.4,94.629 -80.96,94.629 h -68.98 v -185.84 h -36.48 v 407.02" /><path
         id="path42"
         style="fill:#231f20;fill-opacity:1;fill-rule:nonzero;stroke:none"
         d="m 5762.2,665.48 h 62.71 c 57.58,0 91.21,26.219 91.21,79.809 0,49.594 -21.09,79.809 -87.22,79.809 h -66.7 z m -36.48,190.399 h 121.43 c 67.83,0 105.45,-38.758 105.45,-102.039 0,-49.024 -19.38,-92.922 -73.53,-103.184 v -1.136 c 50.73,-4.563 67.84,-33.629 69.55,-96.344 l 1.13,-44.465 c 0.58,-22.234 2.85,-43.895 17.11,-59.852 h -42.76 c -8.55,14.246 -10.25,35.34 -10.83,57 l -1.13,34.211 c -2.29,71.825 -15.4,94.629 -80.96,94.629 h -68.98 v -185.84 h -36.48 v 407.02" /><path
         id="path44"
         style="fill:#231f20;fill-opacity:1;fill-rule:nonzero;stroke:none"
         d="m 6184.59,598.215 -62.71,229.164 h -1.14 l -62.71,-229.164 z m -86.08,257.664 h 45.61 l 120.28,-407.02 h -38.77 l -33.05,118.575 h -142.52 l -33.07,-118.575 h -38.76 l 120.28,407.02" /><path
         id="path46"
         style="fill:#231f20;fill-opacity:1;fill-rule:nonzero;stroke:none"
         d="m 6295.72,855.879 h 49.02 l 155.64,-354.578 h 1.13 V 855.879 H 6538 v -407.02 h -49.03 l -155.62,354.579 h -1.15 V 448.859 h -36.48 v 407.02" /><path
         id="path48"
         style="fill:#231f20;fill-opacity:1;fill-rule:nonzero;stroke:none"
         d="m 6775.67,598.215 -62.7,229.164 h -1.15 l -62.7,-229.164 z m -86.07,257.664 h 45.6 l 120.29,-407.02 h -38.77 l -33.06,118.575 h -142.52 l -33.07,-118.575 h -38.76 l 120.29,407.02" /></g></g></svg>