<?xml version="1.0" encoding="UTF-8" standalone="no"?>
<svg
   xmlns:dc="http://purl.org/dc/elements/1.1/"
   xmlns:cc="http://creativecommons.org/ns#"
   xmlns:rdf="http://www.w3.org/1999/02/22-rdf-syntax-ns#"
   xmlns:svg="http://www.w3.org/2000/svg"
   xmlns="http://www.w3.org/2000/svg"
   viewBox="0 0 420.53333 100"
   height="100"
   width="420.53333"
   xml:space="preserve"
   id="svg2"
   version="1.1"><metadata
     id="metadata8"><rdf:RDF><cc:Work
         rdf:about=""><dc:format>image/svg+xml</dc:format><dc:type
           rdf:resource="http://purl.org/dc/dcmitype/StillImage" /><dc:title></dc:title></cc:Work></rdf:RDF></metadata><defs
     id="defs6" /><g
     transform="matrix(1.3333333,0,0,-1.3333333,0,100)"
     id="g10"><g
       transform="scale(0.1)"
       id="g12"><path
         id="path14"
         style="fill:#ed1c24;fill-opacity:1;fill-rule:nonzero;stroke:none"
         d="M 499.984,500.02 V 749.957 H 250.055 V 500.02 H 0 V 249.98 H 250.055 V 0 H 499.984 V 249.98 H 750.012 V 500.02 H 499.984" /><path
         id="path16"
         style="fill:#201a1d;fill-opacity:1;fill-rule:nonzero;stroke:none"
         d="m 1077.95,338.273 v -4.761 c 0,-40.922 -16.49,-80.895 -69.79,-80.895 -57.101,0 -74.863,36.797 -74.863,117.696 0,80.894 17.762,117.691 75.183,117.691 64.4,0 68.2,-47.582 68.2,-71.059 v -4.121 h -36.16 v 3.801 c 0,20.938 -6.35,45.051 -32.36,44.098 -26.644,0 -38.703,-16.493 -38.703,-89.457 0,-72.965 12.059,-91.364 38.703,-91.364 30.14,0 33.63,33.625 33.63,54.563 v 3.808 h 36.16" /><path
         id="path18"
         style="fill:#201a1d;fill-opacity:1;fill-rule:nonzero;stroke:none"
         d="m 1101.14,427.73 h 34.26 v -26.644 h 0.64 c 7.61,19.031 20.3,31.086 39.65,31.086 3.81,0 6.03,-0.633 8.25,-1.27 v -34.894 c -2.54,0.633 -8.56,1.902 -14.27,1.902 -15.55,0 -34.27,-6.976 -34.27,-38.699 V 257.063 h -34.26 V 427.73" /><path
         id="path20"
         style="fill:#201a1d;fill-opacity:1;fill-rule:nonzero;stroke:none"
         d="m 1288.33,277.039 h -0.95 c -8.57,-15.223 -24.75,-24.422 -43.78,-24.422 -25.38,0 -42.51,11.738 -42.51,55.832 V 427.73 h 34.26 V 305.273 c 0,-19.031 8.57,-25.371 23.16,-25.371 14.59,0 27.92,9.512 27.92,28.547 V 427.73 h 34.26 V 257.063 h -32.36 v 19.976" /><path
         id="path22"
         style="fill:#201a1d;fill-opacity:1;fill-rule:nonzero;stroke:none"
         d="m 1345.14,283.703 74.55,115.16 h -70.11 v 28.867 h 108.81 V 399.496 L 1386.7,285.93 h 71.69 v -28.867 h -113.25 v 26.64" /><path
         id="path24"
         style="fill:#201a1d;fill-opacity:1;fill-rule:nonzero;stroke:none"
         d="m 1626.24,382.688 c 23.17,0 36.18,13.953 36.18,36.796 0,24.11 -10.47,36.797 -34.26,36.797 h -30.78 v -73.593 z m -65.02,100.878 h 79.94 c 31.73,0 57.42,-15.867 57.42,-58.375 0,-29.183 -13.01,-51.703 -37.76,-55.511 v -0.637 c 22.53,-2.223 34.27,-14.594 35.54,-46.316 0.31,-14.59 0.63,-32.356 1.27,-45.997 0.63,-11.105 6.02,-16.496 10.78,-19.667 h -40.92 c -3.49,4.121 -5.07,11.101 -6.03,19.976 -1.27,13.645 -0.96,26.332 -1.58,42.836 -0.65,24.738 -8.25,35.527 -32.99,35.527 h -29.51 v -98.339 h -36.16 v 226.503" /><path
         id="path26"
         style="fill:#201a1d;fill-opacity:1;fill-rule:nonzero;stroke:none"
         d="m 1786.17,278 c 25.06,0 29.5,20.938 29.5,64.398 0,37.75 -4.44,64.395 -29.5,64.395 -24.75,0 -29.18,-26.645 -29.18,-64.395 0,-43.46 4.43,-64.398 29.18,-64.398 z m 0,154.172 c 49.8,0 63.77,-36.801 63.77,-89.774 0,-52.984 -16.2,-89.781 -63.77,-89.781 -47.27,0 -63.45,36.797 -63.45,89.781 0,52.973 13.95,89.774 63.45,89.774" /><path
         id="path28"
         style="fill:#201a1d;fill-opacity:1;fill-rule:nonzero;stroke:none"
         d="M 1912.14,486.098 V 451.84 h -34.26 v 34.258 z m 0,-58.368 V 245.957 c 0,-35.527 -14.92,-47.266 -45.06,-47.266 -4.74,0 -9.82,0.313 -14.9,0.95 v 26.328 h 7.93 c 13.01,0 17.77,5.078 17.77,23.164 V 427.73 h 34.26" /><path
         id="path30"
         style="fill:#201a1d;fill-opacity:1;fill-rule:nonzero;stroke:none"
         d="m 2026.36,347.152 c -8.88,-6.976 -27.93,-11.101 -38.07,-15.859 -9.84,-4.758 -13.96,-14.914 -13.96,-27.602 0,-14.277 6.97,-25.691 21.25,-25.691 20.63,0 30.78,15.535 30.78,40.605 z m 32.35,-54.562 c 0,-6.348 3.8,-12.051 8.88,-12.051 2.23,0 4.45,0.313 5.72,0.945 v -22.207 c -4.14,-1.902 -10.15,-4.121 -16.81,-4.121 -15.24,0 -27.93,6.028 -28.88,22.52 h -0.63 c -9.2,-16.805 -22.52,-25.059 -42.5,-25.059 -27.29,0 -44.42,15.227 -44.42,47.903 0,38.07 16.49,46 39.65,53.613 l 26.64,7.297 c 12.38,3.488 20,6.98 20,21.89 0,15.543 -5.4,25.375 -23.47,25.375 -22.86,0 -26.02,-16.175 -26.02,-32.675 h -32.36 c 0,36.168 14.91,56.152 59.96,56.152 30.13,0 54.24,-11.738 54.24,-41.875 V 292.59" /><path
         id="path32"
         style="fill:#201a1d;fill-opacity:1;fill-rule:nonzero;stroke:none"
         d="m 2208.18,377.926 h 25.68 c 19.36,0 36.17,10.469 36.17,39.019 0,24.426 -9.84,39.336 -38.71,39.336 h -23.14 z m -36.17,105.64 h 71.7 c 43.45,0 62.48,-27.285 62.48,-65.988 0,-40.605 -23.79,-66.933 -66.29,-66.933 h -31.72 v -93.582 h -36.17 v 226.503" /><path
         id="path34"
         style="fill:#201a1d;fill-opacity:1;fill-rule:nonzero;stroke:none"
         d="m 2412.83,361.43 v 9.199 c 0,21.574 -7,38.066 -26.33,38.066 -21.9,0 -28.56,-21.57 -28.56,-43.777 v -3.488 z m -54.89,-23.477 v -9.832 c 0,-22.848 2.86,-52.027 28.56,-52.027 24.41,0 27.26,27.91 27.26,38.066 h 32.37 c 0,-37.754 -22.83,-61.543 -59.96,-61.543 -27.91,0 -62.48,8.254 -62.48,87.242 0,44.727 9.51,92.313 63.12,92.313 47.58,0 60.27,-28.547 60.27,-76.137 v -18.082 h -89.14" /><path
         id="path36"
         style="fill:#201a1d;fill-opacity:1;fill-rule:nonzero;stroke:none"
         d="m 2475.35,427.73 h 34.25 v -26.644 h 0.63 c 7.62,19.031 20.31,31.086 39.67,31.086 3.81,0 6.01,-0.633 8.24,-1.27 v -34.894 c -2.54,0.633 -8.56,1.902 -14.28,1.902 -15.54,0 -34.26,-6.976 -34.26,-38.699 V 257.063 h -34.25 V 427.73" /><path
         id="path38"
         style="fill:#201a1d;fill-opacity:1;fill-rule:nonzero;stroke:none"
         d="m 2662.53,277.039 h -0.95 c -8.56,-15.223 -24.75,-24.422 -43.77,-24.422 -25.39,0 -42.52,11.738 -42.52,55.832 V 427.73 h 34.28 V 305.273 c 0,-19.031 8.55,-25.371 23.14,-25.371 14.59,0 27.91,9.512 27.91,28.547 V 427.73 h 34.28 V 257.063 h -32.37 v 19.976" /><path
         id="path40"
         style="fill:#201a1d;fill-opacity:1;fill-rule:nonzero;stroke:none"
         d="m 2807.53,347.152 c -8.88,-6.976 -27.91,-11.101 -38.06,-15.859 -9.83,-4.758 -13.97,-14.914 -13.97,-27.602 0,-14.277 6.99,-25.691 21.27,-25.691 20.61,0 30.76,15.535 30.76,40.605 z m 32.37,-54.562 c 0,-6.348 3.81,-12.051 8.88,-12.051 2.21,0 4.44,0.313 5.71,0.945 v -22.207 c -4.12,-1.902 -10.16,-4.121 -16.82,-4.121 -15.21,0 -27.91,6.028 -28.87,22.52 h -0.62 c -9.2,-16.805 -22.54,-25.059 -42.52,-25.059 -27.29,0 -44.42,15.227 -44.42,47.903 0,38.07 16.51,46 39.67,53.613 l 26.64,7.297 c 12.37,3.488 19.98,6.98 19.98,21.89 0,15.543 -5.39,25.375 -23.47,25.375 -22.83,0 -26.02,-16.175 -26.02,-32.675 h -32.34 c 0,36.168 14.9,56.152 59.94,56.152 30.14,0 54.26,-11.738 54.26,-41.875 V 292.59" /><path
         id="path42"
         style="fill:#201a1d;fill-opacity:1;fill-rule:nonzero;stroke:none"
         d="m 2874.82,427.73 h 32.36 v -19.984 h 0.94 c 8.57,15.227 24.75,24.426 43.79,24.426 26.01,0 42.5,-11.738 42.5,-46.317 V 257.063 h -34.26 v 117.054 c 0,22.207 -6.66,30.77 -23.79,30.77 -13.96,0 -27.28,-11.098 -27.28,-33.305 V 257.063 h -34.26 V 427.73" /><path
         id="path44"
         style="fill:#201a1d;fill-opacity:1;fill-rule:nonzero;stroke:none"
         d="m 3107.07,347.152 c -8.89,-6.976 -27.93,-11.101 -38.07,-15.859 -9.85,-4.758 -13.97,-14.914 -13.97,-27.602 0,-14.277 6.98,-25.691 21.25,-25.691 20.63,0 30.79,15.535 30.79,40.605 z m 32.34,-54.562 c 0,-6.348 3.81,-12.051 8.89,-12.051 2.22,0 4.45,0.313 5.7,0.945 v -22.207 c -4.12,-1.902 -10.14,-4.121 -16.8,-4.121 -15.23,0 -27.93,6.028 -28.87,22.52 h -0.64 c -9.2,-16.805 -22.52,-25.059 -42.5,-25.059 -27.29,0 -44.41,15.227 -44.41,47.903 0,38.07 16.48,46 39.64,53.613 l 26.65,7.297 c 12.38,3.488 20,6.98 20,21.89 0,15.543 -5.4,25.375 -23.48,25.375 -22.85,0 -26.02,-16.175 -26.02,-32.675 h -32.36 c 0,36.168 14.92,56.152 59.96,56.152 30.14,0 54.24,-11.738 54.24,-41.875 V 292.59" /></g></g></svg>