<?xml version="1.0" encoding="UTF-8" standalone="no"?>
<svg
   xmlns:dc="http://purl.org/dc/elements/1.1/"
   xmlns:cc="http://creativecommons.org/ns#"
   xmlns:rdf="http://www.w3.org/1999/02/22-rdf-syntax-ns#"
   xmlns:svg="http://www.w3.org/2000/svg"
   xmlns="http://www.w3.org/2000/svg"
   viewBox="0 0 370.06668 388.89334"
   height="388.89334"
   width="370.06668"
   xml:space="preserve"
   id="svg2"
   version="1.1"><metadata
     id="metadata8"><rdf:RDF><cc:Work
         rdf:about=""><dc:format>image/svg+xml</dc:format><dc:type
           rdf:resource="http://purl.org/dc/dcmitype/StillImage" /><dc:title></dc:title></cc:Work></rdf:RDF></metadata><defs
     id="defs6" /><g
     transform="matrix(1.3333333,0,0,-1.3333333,0,388.89333)"
     id="g10"><g
       transform="scale(0.1)"
       id="g12"><path
         id="path14"
         style="fill:#ed1c24;fill-opacity:1;fill-rule:nonzero;stroke:none"
         d="m 51.8984,2091.73 96.8126,-35.96 -2.984,-8.03 c -27.512,3.34 -51.0551,-0.73 -70.6372,-12.2 -19.5742,-11.49 -33.2421,-27.66 -40.9882,-48.54 -6.4805,-17.44 -7.4102,-35.3 -2.7891,-53.57 4.6172,-18.28 13.7773,-33.8 27.4844,-46.54 17.5195,-16.36 38.9844,-29.25 64.3911,-38.69 24.988,-9.28 48.925,-14.57 71.8,-15.88 22.871,-1.31 42.063,2.82 57.563,12.37 15.504,9.56 27.238,25.05 35.191,46.47 6.528,17.58 8.668,35.11 6.406,52.59 -2.261,17.48 -9.785,37.81 -22.582,61 l 24.102,-8.95 c 10.527,-21.72 16.312,-42.43 17.363,-62.11 1.043,-19.69 -2.636,-40.86 -11.051,-63.52 -11.07,-29.8 -26.875,-54.05 -47.41,-72.75 -20.543,-18.7 -44.336,-30.18 -71.386,-34.43 -27.047,-4.25 -53.211,-1.68 -78.473,7.7 -26.6407,9.89 -49.3204,26.25 -68.0391,49.06 -18.7188,22.81 -30.26565,48.51 -34.65237,77.09 -4.38281,28.59 -1.628905,56.2 8.26177,82.84 7.2968,19.63 19.2539,38.79 35.875,57.46 9.6328,10.8 15.0937,17.91 16.3671,21.34 1.6289,4.4 1.4336,8.81 -0.5976,13.23 -2.0235,4.43 -6.3672,8.42 -13.0117,11.99 l 2.9843,8.03" /><path
         id="path16"
         style="fill:#ed1c24;fill-opacity:1;fill-rule:nonzero;stroke:none"
         d="m 178.094,2254.32 106.207,-75.86 7.277,10.19 c 11.832,16.57 19.172,30.05 22.004,40.45 2.836,10.4 1.973,20.78 -2.594,31.15 -4.558,10.37 -13.222,20.11 -25.976,29.22 -18.477,13.19 -35.207,18.62 -50.203,16.28 -14.996,-2.34 -29.348,-13.11 -43.051,-32.3 z m 118.902,-84.93 67.945,-48.53 c 13.114,-9.36 21.942,-14.45 26.489,-15.27 4.547,-0.82 9.277,0.08 14.199,2.68 4.922,2.61 11.344,9.45 19.258,20.54 l 6.617,-4.72 -88.629,-124.09 -6.617,4.72 c 8.004,11.21 12.387,19.55 13.152,25.03 0.77,5.48 0.055,10.22 -2.133,14.22 -2.187,3.99 -9.832,10.67 -22.949,20.04 L 166.98,2176.39 c -13.109,9.36 -21.937,14.46 -26.484,15.27 -4.551,0.82 -9.281,-0.07 -14.203,-2.68 -4.922,-2.6 -11.34,-9.45 -19.258,-20.53 l -6.617,4.72 80.461,112.64 c 20.941,29.33 38.293,49.33 52.051,60.03 13.758,10.7 29.16,16.44 46.195,17.23 17.035,0.79 32.887,-4.05 47.547,-14.52 17.883,-12.77 28.062,-29.76 30.547,-50.98 1.519,-13.51 -1.156,-28.97 -8.016,-46.39 l 123.699,-0.33 c 16.063,0.05 26.555,0.75 31.469,2.1 7.192,2.24 13.258,6.46 18.215,12.64 l 6.617,-4.72 -54.531,-76.35 -166.309,0.78 -11.367,-15.91" /><path
         id="path18"
         style="fill:#ed1c24;fill-opacity:1;fill-rule:nonzero;stroke:none"
         d="m 469.945,2580.64 c -21.222,-17.09 -28.632,-40.94 -22.242,-71.52 5.317,-25.06 21.399,-54.24 48.227,-87.56 31.883,-39.59 62.41,-63.24 91.578,-70.97 20.355,-5.43 39.262,-1.11 56.719,12.95 11.75,9.46 19.261,20.22 22.539,32.26 4.16,15.39 2.582,33.35 -4.735,53.88 -7.32,20.53 -21.363,43.69 -42.129,69.47 -24.718,30.69 -46.062,51.35 -64.031,61.99 -17.973,10.63 -33.906,15.53 -47.797,14.69 -13.894,-0.85 -26.605,-5.92 -38.129,-15.19 z m -10.875,9.29 c 35.864,31.15 74.582,44.55 116.149,40.23 41.57,-4.33 76.23,-23.72 103.98,-58.17 23.703,-29.44 35.946,-62.27 36.727,-98.51 1.074,-48.04 -19.207,-88.82 -60.848,-122.36 -41.758,-33.63 -85.437,-45.48 -131.043,-35.57 -36.035,7.84 -66.406,27.11 -91.121,57.8 -27.75,34.45 -39.16,72.61 -34.23,114.49 4.933,41.86 25.058,75.9 60.386,102.09" /><path
         id="path20"
         style="fill:#ed1c24;fill-opacity:1;fill-rule:nonzero;stroke:none"
         d="m 922.074,2530.56 3.649,-7.26 -139.25,-69.86 -3.649,7.27 8.84,4.43 c 7.723,3.88 13.258,8.37 16.59,13.49 2.488,3.53 3.527,8 3.125,13.37 -0.137,3.86 -3.555,12.47 -10.254,25.82 l -87.891,175.19 c -6.828,13.62 -11.82,21.76 -14.964,24.45 -3.149,2.68 -7.559,4.2 -13.223,4.55 -5.668,0.35 -12.231,-1.34 -19.695,-5.09 l -8.84,-4.43 -3.649,7.26 139.25,69.86 3.649,-7.27 -8.84,-4.43 c -7.731,-3.87 -13.258,-8.37 -16.59,-13.48 -2.488,-3.54 -3.59,-8.04 -3.32,-13.47 0.129,-3.86 3.554,-12.48 10.254,-25.83 l 87.882,-175.18 c 6.836,-13.63 11.856,-21.75 15.071,-24.4 3.211,-2.66 7.652,-4.15 13.32,-4.51 5.668,-0.35 12.231,1.35 19.695,5.09 l 8.84,4.43" /><path
         id="path22"
         style="fill:#ed1c24;fill-opacity:1;fill-rule:nonzero;stroke:none"
         d="m 1057.68,2747.84 110.82,-96.66 c 18.38,-16.03 30.91,-25.38 37.62,-28.07 6.7,-2.68 13.99,-3.43 21.86,-2.24 l 2.09,-7.85 -140.33,-37.43 -2.1,7.86 c 10.96,3.83 17.72,7.46 20.3,10.87 2.58,3.42 3.37,6.96 2.39,10.64 -0.68,2.55 -1.78,4.68 -3.3,6.4 -3.11,3.72 -10.18,10.32 -21.2,19.82 l -58.62,51 -29.628,-65.44 c -8.824,-19.78 -12.461,-32.58 -10.914,-38.38 1.094,-4.11 3.812,-7.48 8.156,-10.11 4.34,-2.63 10.046,-3.84 17.106,-3.62 3.2,-0.06 9.4,1.14 18.6,3.59 l 2.1,-7.85 -110.614,-29.5 -2.094,7.86 c 12.101,5.19 21.105,11.23 27.004,18.11 7.746,9.04 17.359,26.16 28.828,51.36 l 38.546,84.86 -101.948,88.11 c -16.747,14.48 -26.235,22.49 -28.461,24.02 -5.071,3.65 -9.707,5.97 -13.918,6.97 -4.207,1.01 -9.7,1.13 -16.473,0.39 l -2.094,7.86 142.883,38.09 2.098,-7.85 -7.219,-1.93 c -8.211,-2.18 -13.594,-5.02 -16.152,-8.51 -2.559,-3.49 -3.305,-7.21 -2.25,-11.17 0.828,-3.12 2.039,-5.68 3.636,-7.68 l 20.539,-18.17 50.159,-44.84 20.46,45.25 c 10.47,23.26 14.69,38.71 12.65,46.35 -1.02,3.83 -3.06,7.07 -6.12,9.74 -3.07,2.67 -6.9,4.38 -11.49,5.13 -4.6,0.74 -11.21,-0.04 -19.84,-2.34 l -2.1,7.86 105.94,28.25 2.1,-7.86 c -8.32,-2.37 -14.76,-5.19 -19.35,-8.46 -4.58,-3.27 -9.08,-8.3 -13.49,-15.08 -2.77,-4.37 -9.16,-17.37 -19.16,-38.99 l -37.02,-80.36" /><path
         id="path24"
         style="fill:#ed1c24;fill-opacity:1;fill-rule:nonzero;stroke:none"
         d="m 1354.23,2693.05 -127.81,-8.66 -3.07,45.38 127.81,8.66 3.07,-45.38" /><path
         id="path26"
         style="fill:#ed1c24;fill-opacity:1;fill-rule:nonzero;stroke:none"
         d="m 1510.63,2887.18 -16.02,-129.54 12.43,-1.53 c 20.2,-2.5 35.55,-2.52 46.04,-0.06 10.49,2.47 19.2,8.18 26.15,17.14 6.93,8.95 11.36,21.21 13.29,36.77 2.78,22.53 -0.43,39.83 -9.63,51.89 -9.22,12.06 -25.52,19.54 -48.93,22.44 z m -17.94,-145.02 -10.25,-82.87 c -1.98,-15.99 -2.25,-26.17 -0.79,-30.56 1.44,-4.39 4.49,-8.12 9.13,-11.2 4.63,-3.09 13.71,-5.46 27.24,-7.14 l -1.01,-8.06 -151.33,18.72 1,8.06 c 13.66,-1.68 23.08,-1.56 28.27,0.39 5.19,1.93 9.01,4.82 11.47,8.64 2.47,3.83 4.69,13.74 6.67,29.74 l 23.74,191.89 c 1.99,15.99 2.25,26.18 0.8,30.57 -1.45,4.38 -4.5,8.11 -9.14,11.2 -4.63,3.08 -13.71,5.46 -27.23,7.14 l 1,8.06 137.38,-16.99 c 35.76,-4.43 61.63,-10.14 77.59,-17.13 15.95,-6.99 28.34,-17.79 37.17,-32.38 8.82,-14.6 12.12,-30.84 9.91,-48.72 -2.69,-21.81 -12.78,-38.87 -30.24,-51.17 -11.14,-7.78 -26.01,-12.8 -44.59,-15.07 l 58.7,-108.89 c 7.71,-14.09 13.32,-22.98 16.85,-26.66 5.41,-5.25 12.01,-8.57 19.8,-9.98 l -0.99,-8.06 -93.12,11.52 -78.62,146.55 -19.41,2.4" /><path
         id="path28"
         style="fill:#ed1c24;fill-opacity:1;fill-rule:nonzero;stroke:none"
         d="m 1937.14,2785.58 c -25.11,10.58 -49.62,5.8 -73.51,-14.34 -19.54,-16.56 -37.61,-44.56 -54.21,-83.98 -19.72,-46.85 -26.08,-84.94 -19.04,-114.29 4.87,-20.49 17.65,-35.09 38.3,-43.79 13.9,-5.85 26.93,-7.37 39.09,-4.54 15.52,3.63 30.58,13.54 45.19,29.73 14.6,16.18 28.33,39.52 41.18,70.04 15.29,36.31 23.36,64.9 24.2,85.76 0.84,20.87 -2.41,37.22 -9.75,49.05 -7.33,11.83 -17.82,20.62 -31.45,26.36 z m 3.02,13.98 c 44.43,-16.8 74.59,-44.52 90.5,-83.17 15.91,-38.65 15.29,-78.36 -1.89,-119.13 -14.67,-34.83 -37.77,-61.18 -69.29,-79.05 -41.79,-23.74 -87.31,-25.22 -136.59,-4.47 -49.41,20.81 -80.57,53.64 -93.47,98.49 -10.18,35.44 -7.62,71.32 7.67,107.64 17.17,40.77 45.35,68.91 84.55,84.43 39.2,15.52 78.71,13.94 118.52,-4.74" /><path
         id="path30"
         style="fill:#ed1c24;fill-opacity:1;fill-rule:nonzero;stroke:none"
         d="m 2162.69,2686.9 120.3,-95.85 -5.06,-6.35 -6.02,4.79 c -9.05,7.21 -16.02,11.22 -20.91,12.02 -4.88,0.8 -9.37,0.12 -13.44,-2.07 -4.08,-2.18 -11.42,-9.92 -22,-23.2 l -90.92,-114.11 c -16.62,-20.85 -26.05,-35.91 -28.27,-45.18 -2.24,-9.27 -1.53,-19.01 2.12,-29.23 3.67,-10.22 10.99,-19.72 21.99,-28.47 12.6,-10.05 25.6,-15.77 39,-17.17 13.39,-1.4 26.27,1.12 38.62,7.57 12.36,6.46 28.39,22.05 48.11,46.8 l 75.72,95.03 c 8.3,10.42 13.15,18.74 14.53,24.94 1.38,6.21 1.1,11.49 -0.86,15.85 -3.05,6.75 -9.27,13.86 -18.67,21.35 l 5.07,6.35 80.6,-64.22 -5.07,-6.36 -4.82,3.84 c -6.52,5.2 -13.01,8.22 -19.47,9.06 -6.45,0.83 -12.75,-0.61 -18.9,-4.33 -4.41,-2.48 -10.41,-8.48 -17.97,-17.98 l -70.52,-88.5 c -21.82,-27.39 -39.38,-45.71 -52.66,-54.98 -13.28,-9.27 -30.97,-13.43 -53.07,-12.49 -22.1,0.94 -45.25,11.04 -69.42,30.3 -20.16,16.07 -33.59,31.17 -40.3,45.32 -9.17,19.29 -12.29,37.13 -9.34,53.51 2.94,16.39 12.12,34.27 27.55,53.63 l 90.92,114.1 c 10.68,13.41 16.57,22.34 17.7,26.79 1.1,4.45 0.6,9.11 -1.51,13.98 -2.12,4.87 -8.14,11.17 -18.08,18.9 l 5.05,6.36" /><path
         id="path32"
         style="fill:#ed1c24;fill-opacity:1;fill-rule:nonzero;stroke:none"
         d="m 2640.63,2198.75 -85.15,-61.47 -4.76,6.59 c 17.53,24.76 26.61,49.47 27.24,74.13 0.62,24.67 -5.88,46.43 -19.51,65.32 -13.04,18.06 -28.96,29.41 -47.78,34.08 -18.82,4.66 -39.11,2.93 -60.88,-5.2 -21.77,-8.13 -42.22,-19.1 -61.34,-32.9 -23.16,-16.73 -41.5,-34.12 -55.01,-52.18 -13.52,-18.07 -19.97,-36.15 -19.39,-54.24 0.6,-18.09 6.94,-35.51 19.03,-52.25 4.2,-5.83 9.14,-11.34 14.8,-16.56 5.66,-5.21 11.99,-10.17 19,-14.87 l 50.24,36.26 c 9.5,6.87 15.17,11.96 17.02,15.28 1.84,3.32 2.42,7.85 1.72,13.57 -0.71,5.73 -3.16,11.5 -7.36,17.32 l -4.5,6.23 6.59,4.77 84.76,-117.41 -6.59,-4.76 c -7.02,8.48 -12.73,13.81 -17.09,15.98 -4.38,2.18 -9.38,2.67 -15.03,1.49 -3.03,-0.56 -8.94,-4.02 -17.73,-10.36 l -50.23,-36.27 c -18.04,10.47 -34.83,22.78 -50.38,36.93 -15.55,14.16 -29.8,30.21 -42.74,48.15 -16.56,22.92 -27.17,44.2 -31.87,63.84 -4.7,19.65 -6.15,38.93 -4.36,57.84 1.8,18.9 6.68,36.21 14.68,51.92 10.39,20.15 25.74,37.55 46.05,52.22 36.34,26.23 76.26,35.63 119.75,28.18 43.5,-7.44 79.22,-30.52 107.18,-69.24 8.65,-11.99 15.51,-23.49 20.56,-34.48 2.82,-5.91 6.23,-16.32 10.21,-31.24 4,-14.91 6.77,-23.44 8.31,-25.58 2.4,-3.32 5.84,-5.53 10.33,-6.63 4.5,-1.09 10.99,-0.37 19.48,2.13 l 4.75,-6.59" /><path
         id="path34"
         style="fill:#ed1c24;fill-opacity:1;fill-rule:nonzero;stroke:none"
         d="m 2711.6,1986.54 -113.5,-42.8 2.1,-5.55 c 6.67,-17.68 17.05,-28.4 31.16,-32.16 14.09,-3.76 32.38,-2.66 54.87,3.31 l 2.95,-7.81 -145.98,-55.05 -2.95,7.81 c 15.29,7.65 26.99,16.02 35.15,25.12 8.15,9.1 12.66,17.8 13.52,26.11 0.86,8.31 -1.22,19.12 -6.24,32.41 l -78.53,-29.62 c -15.35,-5.79 -24.49,-9.98 -27.42,-12.58 -2.94,-2.59 -4.84,-6.08 -5.69,-10.47 -0.85,-4.39 0.23,-10.56 3.23,-18.52 l 6.28,-16.65 c 9.82,-26.04 23.72,-44.63 41.7,-55.78 17.97,-11.14 40.6,-15.49 67.86,-13.04 l 2.86,-7.61 -93.34,-20.87 -90.86,240.96 7.6,2.86 3.49,-9.25 c 3.05,-8.08 6.95,-14.05 11.68,-17.9 3.26,-2.84 7.59,-4.34 12.97,-4.5 3.86,-0.27 12.78,2.24 26.76,7.5 l 183.39,69.17 c 12.6,4.75 20.22,8.01 22.84,9.78 4.29,3.18 7.03,7.11 8.24,11.8 1.87,6.66 1.1,14.5 -2.31,23.55 l -3.49,9.25 7.61,2.87 88,-233.35 -82.45,-31.09 -2.95,7.81 c 18.66,11.58 31.01,22.61 37.07,33.12 6.06,10.5 8.66,23.11 7.81,37.82 -0.43,8.6 -4.62,23.46 -12.58,44.57 l -10.85,28.78" /><path
         id="path36"
         style="fill:#ed1c24;fill-opacity:1;fill-rule:nonzero;stroke:none"
         d="m 402.113,837.969 -93.234,-44.43 -3.684,7.742 c 21.555,17.41 35.039,37.129 40.438,59.188 5.402,22.043 3.312,43.113 -6.27,63.211 -7.996,16.8 -20.172,29.902 -36.5,39.312 -16.332,9.43 -33.847,13.656 -52.539,12.699 -23.933,-1.179 -48.136,-7.601 -72.601,-19.261 -24.067,-11.461 -44.539,-24.95 -61.407,-40.461 -16.8746,-15.489 -27.2808,-32.137 -31.2183,-49.918 -3.9454,-17.77 -1.0039,-36.981 8.832,-57.621 8.0623,-16.918 19.1483,-30.66 33.2653,-41.219 14.118,-10.551 33.95,-19.313 59.504,-26.289 l -23.211,-11.051 c -22.918,7.57 -41.804,17.84 -56.66,30.801 -14.8553,12.969 -27.4842,30.348 -37.8788,52.18 -13.6719,28.687 -20.0625,56.918 -19.1797,84.687 0.8868,27.762 9.2266,52.832 25.0196,75.203 15.7851,22.36 35.8479,39.348 60.1839,50.938 25.648,12.23 53.183,17.11 82.59,14.65 29.402,-2.45 55.886,-12.07 79.453,-28.83 23.562,-16.77 41.461,-37.969 53.679,-63.621 9.008,-18.918 14.426,-40.84 16.246,-65.777 1.036,-14.43 2.34,-23.301 3.918,-26.61 2.016,-4.23 5.317,-7.16 9.907,-8.793 4.586,-1.617 10.472,-1.289 17.66,1 l 3.687,-7.73" /><path
         id="path38"
         style="fill:#ed1c24;fill-opacity:1;fill-rule:nonzero;stroke:none"
         d="m 513.664,677.23 c -18.223,20.27 -42.43,26.372 -72.621,18.321 -24.73,-6.68 -52.996,-24.321 -84.801,-52.922 -37.793,-33.988 -59.754,-65.758 -65.883,-95.309 -4.312,-20.621 1.036,-39.269 16.02,-55.929 10.09,-11.219 21.238,-18.129 33.445,-20.75 15.586,-3.309 33.438,-0.762 53.539,7.668 20.098,8.433 42.461,23.711 67.075,45.851 29.296,26.34 48.765,48.789 58.41,67.301 9.636,18.531 13.66,34.699 12.058,48.531 -1.601,13.828 -7.347,26.25 -17.242,37.238 z m 8.691,11.372 c 33.047,-34.11 48.543,-72.043 46.485,-113.793 -2.055,-41.739 -19.531,-77.399 -52.422,-106.989 -28.094,-25.269 -60.219,-39.289 -96.355,-42.039 -47.911,-3.679 -89.743,14.348 -125.493,54.098 -35.851,39.863 -50.074,82.832 -42.652,128.922 5.867,36.398 23.453,67.781 52.754,94.129 32.891,29.582 70.371,43.05 112.449,40.41 42.078,-2.649 77.156,-20.891 105.234,-54.738" /><path
         id="path40"
         style="fill:#ed1c24;fill-opacity:1;fill-rule:nonzero;stroke:none"
         d="m 730.648,499.898 28.387,-234.406 67.117,109.117 c 9.364,15.211 13.508,26.852 12.446,34.903 -1.539,10.918 -9.434,20.59 -23.688,29.019 l 4.262,6.93 83.844,-51.582 -4.258,-6.93 c -11.578,5.231 -19.879,7.883 -24.899,7.973 -5.023,0.078 -10.082,-1.711 -15.168,-5.371 -5.093,-3.672 -11.32,-11.492 -18.687,-23.469 l -129.973,-211.301 -6.359,3.918 -41.656,316.86 -99.231,-161.317 c -8.976,-14.601 -11.707,-26.523 -8.176,-35.742 3.524,-9.219 9.598,-16.469 18.207,-21.77 l 5.985,-3.691 -4.258,-6.918 -90.02,55.371 4.258,6.918 c 14.047,-8.461 25.547,-11.578 34.492,-9.34 8.942,2.239 17.559,10.102 25.848,23.559 l 110.168,179.113 -1.281,10.078 c -1.223,10.039 -3.238,17.391 -6.051,22.032 -2.812,4.66 -8.012,9.5 -15.59,14.5 l 4.258,6.929 90.023,-55.383" /><path
         id="path42"
         style="fill:#ed1c24;fill-opacity:1;fill-rule:nonzero;stroke:none"
         d="m 1210.08,314.281 -27.12,-101.461 -7.86,2.102 c -2.07,30.258 -10.65,55.148 -25.76,74.66 -15.11,19.5 -33.91,32.258 -56.41,38.277 -21.51,5.743 -41.03,4.481 -58.56,-3.8 -17.53,-8.278 -32.15,-22.45 -43.882,-42.52 -11.73,-20.059 -20.64,-41.48 -26.73,-64.269 -7.371,-27.598 -10.59,-52.661 -9.637,-75.2 0.945,-22.55 7.367,-40.64 19.266,-54.2809 11.894,-13.6407 27.823,-23.1289 47.773,-28.4688 6.93,-1.8398 14.24,-3 21.93,-3.4609 7.68,-0.4688 15.73,-0.3086 24.13,0.4804 l 16,59.8712 c 3.02,11.32 4.2,18.848 3.53,22.59 -0.67,3.738 -3.08,7.601 -7.24,11.597 -4.17,3.993 -9.72,6.922 -16.65,8.782 l -7.43,1.98 2.1,7.852 139.89,-37.383 -2.1,-7.859 c -10.8,2.128 -18.59,2.652 -23.35,1.582 -4.76,-1.09 -8.95,-3.872 -12.58,-8.352 -1.99,-2.352 -4.39,-8.758 -7.18,-19.2383 L 1136.2,37.9102 c -20.59,-3.2891 -41.38,-4.3789 -62.38,-3.2383 -21,1.1484 -42.18,4.5703 -63.55,10.2773 -27.313,7.3008 -48.997,17.0821 -65.055,29.3321 -16.055,12.25 -29.371,26.2697 -39.934,42.0507 -10.566,15.797 -17.715,32.297 -21.449,49.527 -4.687,22.172 -3.801,45.36 2.672,69.563 11.57,43.308 36.562,75.82 74.969,97.547 38.41,21.722 80.677,26.422 126.807,14.101 14.3,-3.82 26.87,-8.398 37.73,-13.718 5.93,-2.813 15.15,-8.711 27.67,-17.75 12.52,-9.032 20.05,-13.891 22.6,-14.571 3.96,-1.062 8.03,-0.59 12.2,1.399 4.17,1.992 8.75,6.652 13.74,13.949 l 7.86,-2.098" /><path
         id="path44"
         style="fill:#ed1c24;fill-opacity:1;fill-rule:nonzero;stroke:none"
         d="m 1421.78,294.82 c -27.23,-1.039 -47.41,-15.75 -60.54,-44.101 -10.68,-23.278 -15.21,-56.289 -13.57,-99.028 1.96,-50.793 12.33,-87.9996 31.12,-111.609 13.09,-16.5 30.84,-24.3203 53.23,-23.4609 15.08,0.5703 27.53,4.7109 37.34,12.4297 12.52,9.8515 21.98,25.2109 28.36,46.0508 6.38,20.8398 8.94,47.8084 7.67,80.8784 -1.51,39.379 -6.31,68.692 -14.38,87.961 -8.06,19.258 -17.93,32.7 -29.58,40.309 -11.66,7.609 -24.87,11.141 -39.65,10.57 z m -3.18,13.961 c 47.37,3.571 86.43,-8.781 117.2,-37.062 30.77,-28.289 47,-64.539 48.7,-108.727 1.46,-37.773 -8.33,-71.4334 -29.33,-100.9607 C 1527.36,22.8398 1486.74,2.21875 1433.31,0.171875 1379.73,-1.87891 1337.62,14.6719 1306.95,49.8516 c -24.24,27.8007 -37.1,61.3984 -38.61,100.7694 -1.7,44.199 11.92,81.629 40.87,112.289 28.94,30.641 65.41,45.93 109.39,45.871" /><path
         id="path46"
         style="fill:#ed1c24;fill-opacity:1;fill-rule:nonzero;stroke:none"
         d="m 1918.29,217.539 21.69,-102.918 -251.57,-81.8515 -2.51,7.7305 9.39,3.0586 c 8.22,2.6836 14.37,6.293 18.43,10.8516 2.99,3.1289 4.69,7.3711 5.1,12.75 0.44,3.8398 -1.65,12.8711 -6.27,27.082 l -60.63,186.3668 c -4.71,14.493 -8.43,23.293 -11.14,26.422 -2.71,3.121 -6.84,5.278 -12.38,6.481 -5.56,1.199 -12.3,0.508 -20.25,-2.071 l -9.39,-3.062 -2.52,7.73 151.07,49.141 2.51,-7.719 -12.32,-4.019 c -8.22,-2.672 -14.37,-6.293 -18.43,-10.852 -2.99,-3.121 -4.76,-7.398 -5.3,-12.808 -0.45,-3.84 1.64,-12.872 6.27,-27.082 l 58.72,-180.528 c 4.72,-14.492 8.55,-23.4412 11.51,-26.8709 2.97,-3.4219 7.2,-5.3203 12.72,-5.6914 3.88,-0.1094 12.52,2 25.89,6.3516 l 23.61,7.6797 c 15.05,4.891 26.72,11.621 35.03,20.168 8.31,8.562 14.26,19.742 17.86,33.543 3.59,13.797 5.04,32.91 4.34,57.328 l 8.57,2.789" /><path
         id="path48"
         style="fill:#ed1c24;fill-opacity:1;fill-rule:nonzero;stroke:none"
         d="m 2103.79,320.84 -92.1,63.39 15.75,-111.23 z m 14.96,-9.82 -89.19,-55.879 4.78,-31.231 c 1.66,-10.371 4.16,-18.219 7.51,-23.558 4.44,-7.071 10.56,-10.5 18.36,-10.282 4.6,0.121 13.79,3.801 27.57,11.059 l 4.32,-6.887 -83.98,-52.621 -4.31,6.891 c 8.2,7.039 13.3,15.457 15.28,25.269 1.98,9.789 1.23,27 -2.26,51.61 l -35.93,258.039 3.54,2.222 220.78,-150.004 c 20.98,-14.168 35.85,-22.046 44.63,-23.628 6.63,-1.211 13.99,0.289 22.07,4.492 l 4.32,-6.883 -122.14,-76.539 -4.32,6.89 5.03,3.149 c 9.81,6.141 15.84,11.82 18.1,17.043 1.48,3.687 1.06,7.41 -1.27,11.137 -1.4,2.23 -3.21,4.293 -5.43,6.191 -0.96,0.949 -5.73,4.441 -14.34,10.461 l -33.12,23.059" /><path
         id="path50"
         style="fill:#ed1c24;fill-opacity:1;fill-rule:nonzero;stroke:none"
         d="m 2419.29,459.66 5.58,-5.91 -113.27,-106.961 -5.59,5.922 7.19,6.789 c 6.29,5.93 10.29,11.82 12.01,17.68 1.37,4.109 1.09,8.679 -0.85,13.711 -1.24,3.66 -6.99,10.918 -17.24,21.781 L 2172.56,555.18 c -10.46,11.082 -17.58,17.441 -21.37,19.109 -3.79,1.66 -8.45,1.852 -13.97,0.563 -5.53,-1.293 -11.33,-4.801 -17.4,-10.543 l -7.19,-6.778 -5.58,5.899 113.27,106.961 5.58,-5.911 -7.19,-6.789 c -6.28,-5.941 -10.28,-11.832 -12.01,-17.679 -1.36,-4.114 -1.13,-8.731 0.69,-13.864 1.24,-3.656 6.99,-10.929 17.25,-21.789 L 2359.2,461.852 c 10.46,-11.082 17.61,-17.422 21.44,-19.032 3.85,-1.621 8.53,-1.781 14.06,-0.488 5.52,1.297 11.32,4.809 17.4,10.539 l 7.19,6.789" /><path
         id="path52"
         style="fill:#ed1c24;fill-opacity:1;fill-rule:nonzero;stroke:none"
         d="m 2334.08,825.699 80.2,-58.629 -5.49,-7.14 c -22.34,11.812 -44.58,15.75 -66.73,11.812 -22.16,-3.941 -39.12,-13.57 -50.91,-28.89 -9.11,-11.852 -13.16,-23.661 -12.15,-35.43 1.03,-11.781 5.66,-20.84 13.9,-27.18 5.22,-4.012 10.8,-6.371 16.75,-7.062 8.04,-0.828 17.59,0.422 28.65,3.742 8.03,2.508 24.51,9.879 49.44,22.129 34.85,17.191 62,25.949 81.5,26.308 19.39,0.223 36.87,-5.64 52.43,-17.597 19.74,-15.192 30.81,-35.942 33.2,-62.27 2.39,-26.32 -5.52,-51.32 -23.74,-75.012 -5.71,-7.441 -11.87,-13.871 -18.47,-19.332 -6.6,-5.457 -15.83,-11.578 -27.69,-18.347 -6.61,-3.789 -11.3,-7.481 -14.06,-11.071 -2.33,-3.031 -3.63,-7.109 -3.89,-12.269 -0.26,-5.16 1.17,-10.609 4.33,-16.359 l -4.96,-6.442 -89.17,68.582 4.96,6.449 c 29,-14.179 55.7,-19.062 80.08,-14.609 24.39,4.43 43.06,15.066 56.01,31.898 10,13.012 14.43,26.09 13.28,39.27 -1.14,13.16 -6.41,23.371 -15.82,30.59 -5.58,4.289 -12.11,6.969 -19.61,8.019 -7.51,1.071 -15.94,0.383 -25.27,-2.039 -9.36,-2.422 -23.69,-8.398 -43.03,-17.918 -27.09,-13.363 -47.96,-21.871 -62.63,-25.57 -14.66,-3.691 -28.52,-4.531 -41.58,-2.523 -13.05,2 -25.11,7.242 -36.13,15.73 -18.82,14.461 -29.52,33.691 -32.14,57.691 -2.61,24 4.17,46.512 20.33,67.52 5.9,7.672 12.54,14.391 19.93,20.16 5.6,4.379 13.29,9.039 23.09,13.981 9.8,4.929 15.91,8.968 18.32,12.101 2.32,3.02 3.23,6.117 2.71,9.289 -0.52,3.168 -3.74,8.231 -9.66,15.199 l 4.02,5.219" /><path
         id="path54"
         style="fill:#ed1c24;fill-opacity:1;fill-rule:nonzero;stroke:none"
         d="m 2423.95,941.02 110.17,-50.731 2.48,5.391 c 7.91,17.172 8.25,32.09 1.03,44.769 -7.23,12.672 -20.86,24.922 -40.9,36.731 l 3.48,7.582 141.71,-65.242 -3.49,-7.59 c -16.17,5.511 -30.36,7.968 -42.56,7.379 -12.21,-0.579 -21.56,-3.489 -28.09,-8.719 -6.51,-5.219 -12.74,-14.281 -18.69,-27.192 l 76.24,-35.097 c 14.9,-6.871 24.32,-10.43 28.22,-10.711 3.91,-0.258 7.73,0.84 11.45,3.32 3.72,2.488 7.35,7.582 10.91,15.301 l 7.44,16.168 c 11.64,25.269 15.12,48.23 10.42,68.863 -4.69,20.617 -17.48,39.77 -38.37,57.457 l 3.4,7.381 80.42,-51.779 -107.71,-233.91 -7.38,3.398 4.13,8.981 c 3.61,7.851 5.13,14.812 4.54,20.89 -0.27,4.32 -2.24,8.449 -5.91,12.391 -2.52,2.941 -10.56,7.531 -24.13,13.781 l -178.03,81.969 c -12.24,5.64 -19.92,8.758 -23.01,9.39 -5.28,0.809 -9.99,0.008 -14.18,-2.421 -6.06,-3.34 -11.11,-9.411 -15.15,-18.188 l -4.13,-8.98 -7.38,3.41 104.29,226.518 80.04,-36.85 -3.49,-7.58 c -21.34,5.14 -37.87,6.19 -49.6,3.12 -11.73,-3.06 -22.54,-10.07 -32.41,-21 -5.82,-6.35 -13.46,-19.771 -22.9,-40.259 l -12.86,-27.941" /><path
         id="path56"
         style="fill:#ed1c24;fill-opacity:1;fill-rule:nonzero;stroke:none"
         d="m 2290.5,1758.53 h -610.29 v 610.29 H 1069.92 V 1758.53 H 459.637 V 1148.24 H 1069.92 V 537.961 h 610.29 v 610.279 h 610.29 v 610.29" /></g></g></svg>