<?xml version="1.0" encoding="UTF-8" standalone="no"?>
<!-- Created with Inkscape (http://www.inkscape.org/) -->

<svg
   version="1.1"
   id="svg1"
   width="514.58533"
   height="514.58533"
   viewBox="0 0 514.58533 514.58533"
   sodipodi:docname="Croix-Rouge togolaise.svg"
   inkscape:version="1.3.2 (091e20e, 2023-11-25, custom)"
   xmlns:inkscape="http://www.inkscape.org/namespaces/inkscape"
   xmlns:sodipodi="http://sodipodi.sourceforge.net/DTD/sodipodi-0.dtd"
   xmlns="http://www.w3.org/2000/svg"
   xmlns:svg="http://www.w3.org/2000/svg">
  <defs
     id="defs1">
    <clipPath
       clipPathUnits="userSpaceOnUse"
       id="clipPath5">
      <path
         d="M 0,385.938 H 385.92 V 0.06 L 0,0.06 Z"
         transform="translate(-192.969,-380.93801)"
         id="path5" />
    </clipPath>
  </defs>
  <sodipodi:namedview
     id="namedview1"
     pagecolor="#ffffff"
     bordercolor="#666666"
     borderopacity="1.0"
     inkscape:showpageshadow="2"
     inkscape:pageopacity="0.0"
     inkscape:pagecheckerboard="0"
     inkscape:deskcolor="#d1d1d1"
     inkscape:export-bgcolor="#ffffffff"
     inkscape:zoom="1.5954594"
     inkscape:cx="257.29266"
     inkscape:cy="257.29266"
     inkscape:window-width="1920"
     inkscape:window-height="1017"
     inkscape:window-x="-8"
     inkscape:window-y="-8"
     inkscape:window-maximized="1"
     inkscape:current-layer="g1">
    <inkscape:page
       x="0"
       y="0"
       inkscape:label="1"
       id="page1"
       width="514.58533"
       height="514.58533"
       margin="0"
       bleed="0"
       inkscape:export-filename="Croix-Rouge togolaise.png"
       inkscape:export-xdpi="300"
       inkscape:export-ydpi="300" />
  </sodipodi:namedview>
  <g
     id="g1"
     inkscape:groupmode="layer"
     inkscape:label="1">
    <g
       id="group-MC1">
      <path
         id="path2"
         d="M 0,0 H -58.367 V 55.083 H 0 l -0.005,58.401 H 55.083 V 55.119 l -0.005,-0.023 h 58.369 V 0.008 H 55.078 l 0.005,0.008 V -58.351 H -0.005 V 0.016 L 0,0"
         style="fill:#ed192d;fill-opacity:1;fill-rule:nonzero;stroke:none"
         transform="matrix(1.3333333,0,0,-1.3333333,220.572,294.04933)" />
      <path
         id="path3"
         d="m 0,0 c -73.791,0 -133.825,-60.033 -133.825,-133.824 0,-73.792 60.034,-133.825 133.825,-133.825 73.791,0 133.825,60.033 133.825,133.825 C 133.825,-60.033 73.791,0 0,0 Z m 0,-272.649 c -76.549,0 -138.825,62.275 -138.825,138.825 C -138.825,-57.276 -76.549,5 0,5 76.549,5 138.825,-57.276 138.825,-133.824 138.825,-210.374 76.549,-272.649 0,-272.649"
         style="fill:#2e3192;fill-opacity:1;fill-rule:nonzero;stroke:none"
         transform="matrix(1.3333333,0,0,-1.3333333,257.292,78.861333)" />
      <path
         id="path4"
         d="m 0,0 c -103.647,0 -187.969,-84.322 -187.969,-187.969 0,-103.646 84.322,-187.969 187.969,-187.969 103.646,0 187.969,84.323 187.969,187.969 C 187.969,-84.322 103.646,0 0,0 Z m 0,-380.938 c -106.404,0 -192.969,86.565 -192.969,192.969 C -192.969,-81.565 -106.404,5 0,5 106.404,5 192.969,-81.565 192.969,-187.969 192.969,-294.373 106.404,-380.938 0,-380.938"
         style="fill:#2e3192;fill-opacity:1;fill-rule:nonzero;stroke:none"
         transform="matrix(1.3333333,0,0,-1.3333333,257.292,6.668)"
         clip-path="url(#clipPath5)" />
      <path
         id="path6"
         d="m 0,0 c -2.761,1.205 -6.189,-0.04 -7.905,-2.832 -3.103,-5.045 0.025,-9.582 4.498,-12.332 4.258,-2.618 9.718,-3.362 12.82,1.683 2.112,3.435 0.939,6.819 -2.161,9.317 l 3.345,5.439 c 6.017,-4.489 7.39,-11.399 3.539,-17.661 -4.863,-7.908 -13.627,-8.929 -20.998,-4.396 -7.586,4.665 -10.629,12.947 -5.766,20.855 3.454,5.617 9.65,8.317 15.972,5.366 L 0,0"
         style="fill:#2e3192;fill-opacity:1;fill-rule:nonzero;stroke:none"
         transform="matrix(1.3333333,0,0,-1.3333333,73.134667,132.804)" />
      <path
         id="path7"
         d="m 0,0 5.06,5.155 c 2.059,2.097 2.278,4.119 0.121,6.237 -2.068,2.03 -4.085,1.774 -6.145,-0.324 L -6.023,5.914 Z m -14.299,4.797 11.327,11.538 c 3.766,3.836 8.815,3.646 12.052,0.468 2.517,-2.471 3.405,-5.343 2.04,-8.652 l 0.06,-0.059 c 2.864,1.719 5.759,0.172 8.064,-1.796 1.437,-1.235 3.925,-3.736 5.947,-4.073 L 20.573,-2.482 C 18.665,-1.728 16.656,0.362 14.712,1.799 12.142,3.676 10.299,3.778 7.975,1.41 l -4.619,-4.705 8.362,-8.208 -4.619,-4.704 -21.398,21.004"
         style="fill:#2e3192;fill-opacity:1;fill-rule:nonzero;stroke:none"
         transform="matrix(1.3333333,0,0,-1.3333333,96.838667,110.412)" />
      <path
         id="path8"
         d="M 0,0 C 5.002,3.169 4.185,8.617 1.511,12.839 -1.298,17.274 -5.876,20.34 -10.878,17.17 -15.881,14.001 -15.064,8.553 -12.254,4.118 -9.579,-0.103 -5.002,-3.169 0,0 Z m -13.845,21.854 c 7.84,4.967 16.161,2.035 20.926,-5.486 4.63,-7.308 3.727,-16.084 -4.114,-21.051 -7.84,-4.967 -16.161,-2.036 -20.791,5.272 -4.765,7.522 -3.862,16.297 3.979,21.265"
         style="fill:#2e3192;fill-opacity:1;fill-rule:nonzero;stroke:none"
         transform="matrix(1.3333333,0,0,-1.3333333,149.34,86.594667)" />
      <path
         id="path9"
         d="M 0,0 6.095,2.516 17.534,-25.201 11.44,-27.716 0,0"
         style="fill:#2e3192;fill-opacity:1;fill-rule:nonzero;stroke:none"
         transform="matrix(1.3333333,0,0,-1.3333333,163.45467,41.212)" />
      <path
         id="path10"
         d="m 0,0 -12.691,11.674 7.44,1.76 L 2.677,5.468 6.399,16.191 13.43,17.855 7.368,1.701 21.155,-11.138 13.51,-12.947 4.744,-4.359 0.634,-15.995 -6.601,-17.707 0,0"
         style="fill:#2e3192;fill-opacity:1;fill-rule:nonzero;stroke:none"
         transform="matrix(1.3333333,0,0,-1.3333333,202.40533,47.802667)" />
      <path
         id="path11"
         d="M 0,0 12.621,0.748 12.924,-4.367 0.303,-5.116 0,0"
         style="fill:#2e3192;fill-opacity:1;fill-rule:nonzero;stroke:none"
         transform="matrix(1.3333333,0,0,-1.3333333,235.99333,43.962667)" />
      <path
         id="path12"
         d="m 0,0 7.173,-0.858 c 2.919,-0.35 4.653,0.712 5.013,3.715 0.344,2.877 -1.091,4.318 -4.01,4.667 L 1.003,8.382 Z m -4.935,14.253 16.054,-1.92 c 5.338,-0.639 8.273,-4.755 7.734,-9.259 -0.419,-3.503 -2.152,-5.96 -5.606,-6.901 l -0.01,-0.083 c 3.111,-1.218 3.655,-4.456 3.504,-7.483 -0.099,-1.892 -0.56,-5.39 0.408,-7.198 l -6.547,0.784 c -0.569,1.971 -0.141,4.839 -0.19,7.256 -0.085,3.182 -1.129,4.703 -4.423,5.097 l -6.548,0.784 -1.392,-11.635 -6.547,0.783 3.563,29.775"
         style="fill:#2e3192;fill-opacity:1;fill-rule:nonzero;stroke:none"
         transform="matrix(1.3333333,0,0,-1.3333333,275.87333,40.542667)" />
      <path
         id="path13"
         d="m 0,0 c 5.562,-2.038 9.386,1.93 11.106,6.624 1.805,4.93 1.449,10.429 -4.113,12.467 C 1.432,21.129 -2.392,17.161 -4.199,12.23 -5.919,7.537 -5.561,2.038 0,0 Z M 8.901,24.297 C 17.618,21.104 20.362,12.717 17.298,4.355 14.321,-3.771 6.81,-8.4 -1.908,-5.206 c -8.717,3.193 -11.46,11.58 -8.483,19.705 3.063,8.362 10.575,12.992 19.292,9.798"
         style="fill:#2e3192;fill-opacity:1;fill-rule:nonzero;stroke:none"
         transform="matrix(1.3333333,0,0,-1.3333333,326.768,67.614667)" />
      <path
         id="path14"
         d="m 0,0 c -4.48,-6.756 -10.651,-7.4 -17.337,-2.967 -6.721,4.456 -8.482,10.31 -3.98,17.101 l 10.304,15.542 5.496,-3.644 -10.304,-15.542 c -1.811,-2.73 -2.898,-5.889 1.547,-8.837 3.921,-2.599 6.319,-1.719 8.779,1.991 L 4.809,19.186 10.305,15.542 0,0"
         style="fill:#2e3192;fill-opacity:1;fill-rule:nonzero;stroke:none"
         transform="matrix(1.3333333,0,0,-1.3333333,387.72667,91.037333)" />
      <path
         id="path15"
         d="m 0,0 c -3.752,-0.363 -6.651,1.06 -8.638,3.169 -6.363,6.754 -5.064,15.478 1.232,21.41 6.48,6.104 15.266,6.882 21.629,0.127 4.204,-4.462 5.427,-11.271 0.965,-16.455 l -4.318,4.584 c 1.896,2.825 1.45,5.809 -0.681,8.07 C 6.129,25.215 0.936,23.379 -2.884,19.78 -6.522,16.354 -8.664,11.279 -4.603,6.969 -1.666,3.852 1.713,3.632 4.999,6.208 L 0.449,11.037 4.025,14.406 12.663,5.237 0.866,-5.877 -2.014,-2.821 0,0"
         style="fill:#2e3192;fill-opacity:1;fill-rule:nonzero;stroke:none"
         transform="matrix(1.3333333,0,0,-1.3333333,410.80533,128.51867)" />
      <path
         id="path16"
         d="M 0,0 11.497,-19.263 6.736,-22.105 -1.382,-8.506 -6.9,-11.8 l 7.449,-12.481 -4.4,-2.627 -7.45,12.481 -6.313,-3.767 8.289,-13.888 -4.761,-2.842 -11.67,19.551 L 0,0"
         style="fill:#2e3192;fill-opacity:1;fill-rule:nonzero;stroke:none"
         transform="matrix(1.3333333,0,0,-1.3333333,452.316,124.484)" />
      <path
         id="path17"
         d="m 0,0 -6.527,6.178 3.81,4.026 17.844,-16.889 -3.811,-4.026 -6.527,6.178 -16.802,-17.752 -4.789,4.532 L 0,0"
         style="fill:#2e3192;fill-opacity:1;fill-rule:nonzero;stroke:none"
         transform="matrix(1.3333333,0,0,-1.3333333,112.048,404.44133)" />
      <path
         id="path18"
         d="m 0,0 c 5.027,-3.131 9.582,-0.028 12.224,4.215 2.775,4.458 3.549,9.914 -1.479,13.044 C 5.717,20.39 1.163,17.287 -1.612,12.829 -4.254,8.586 -5.028,3.13 0,0 Z M 13.676,21.966 C 21.557,17.06 22.529,8.289 17.822,0.729 13.249,-6.616 4.95,-9.614 -2.931,-4.707 c -7.881,4.906 -8.853,13.676 -4.28,21.022 4.707,7.56 13.006,10.558 20.887,5.651"
         style="fill:#2e3192;fill-opacity:1;fill-rule:nonzero;stroke:none"
         transform="matrix(1.3333333,0,0,-1.3333333,134.38533,455.10933)" />
      <path
         id="path19"
         d="m 0,0 c -3.161,-2.057 -6.39,-2.135 -9.127,-1.183 -8.768,3.048 -11.649,11.388 -8.808,19.56 2.924,8.411 10.358,13.163 19.126,10.115 5.791,-2.014 10.025,-7.488 8.465,-14.15 l -5.951,2.07 C 4.081,19.793 2.306,22.235 -0.63,23.255 -6.224,25.2 -9.982,21.17 -11.706,16.211 -13.348,11.491 -12.9,5.998 -7.307,4.053 -3.26,2.647 -0.161,4.014 1.562,7.818 L -4.706,9.997 -3.092,14.639 8.81,10.501 3.485,-4.813 -0.482,-3.433 0,0"
         style="fill:#2e3192;fill-opacity:1;fill-rule:nonzero;stroke:none"
         transform="matrix(1.3333333,0,0,-1.3333333,190.996,482.85867)" />
      <path
         id="path20"
         d="M 0,0 C 5.884,-0.662 8.66,4.097 9.22,9.063 9.807,14.279 8.159,19.536 2.275,20.199 -3.609,20.861 -6.385,16.103 -6.973,10.887 -7.532,5.92 -5.884,0.663 0,0 Z M 2.895,25.708 C 12.118,24.669 16.768,17.172 15.772,8.325 14.803,-0.272 8.603,-6.547 -0.62,-5.509 c -9.223,1.039 -13.873,8.536 -12.905,17.133 0.997,8.848 7.197,15.122 16.42,14.084"
         style="fill:#2e3192;fill-opacity:1;fill-rule:nonzero;stroke:none"
         transform="matrix(1.3333333,0,0,-1.3333333,230.91067,488.67467)" />
      <path
         id="path21"
         d="m 0,0 6.571,0.556 2.061,-24.359 14.565,1.231 0.467,-5.524 L 2.527,-29.885 0,0"
         style="fill:#2e3192;fill-opacity:1;fill-rule:nonzero;stroke:none"
         transform="matrix(1.3333333,0,0,-1.3333333,261.676,456.96)" />
      <path
         id="path22"
         d="M 0,0 7.483,2.09 0.884,11.671 0.803,11.648 Z m -4.339,17.888 6.512,1.817 18.863,-25.867 -6.594,-1.84 -3.98,5.821 -10.8,-3.014 -0.47,-7.065 -6.432,-1.795 2.901,31.943"
         style="fill:#2e3192;fill-opacity:1;fill-rule:nonzero;stroke:none"
         transform="matrix(1.3333333,0,0,-1.3333333,312.58267,474.32667)" />
      <path
         id="path23"
         d="m 0,0 6.016,2.7 12.278,-27.356 -6.016,-2.7 L 0,0"
         style="fill:#2e3192;fill-opacity:1;fill-rule:nonzero;stroke:none"
         transform="matrix(1.3333333,0,0,-1.3333333,334.768,441.05867)" />
      <path
         id="path24"
         d="M 0,0 C 2.138,-3.368 5.595,-3.015 8.573,-1.125 10.524,0.113 13.142,2.571 11.5,5.16 9.766,7.891 5.68,5.943 1.326,4.573 -3.063,3.181 -7.78,2.226 -10.796,6.978 -14.082,12.155 -10.764,17.743 -6.19,20.647 -0.905,24 5.416,24.778 9.129,18.928 l -5.39,-3.421 c -2.113,2.936 -4.771,2.344 -7.431,0.656 -1.773,-1.126 -3.357,-3.176 -2.006,-5.304 1.237,-1.95 2.6,-1.432 9.983,0.965 2.137,0.709 8.554,3.14 12.199,-2.604 C 19.433,4.574 17.986,-1.22 11.106,-5.586 5.504,-9.142 -1.5,-9.707 -5.391,-3.421 L 0,0"
         style="fill:#2e3192;fill-opacity:1;fill-rule:nonzero;stroke:none"
         transform="matrix(1.3333333,0,0,-1.3333333,371.23067,452.72533)" />
      <path
         id="path25"
         d="m 0,0 16.346,15.359 3.797,-4.041 -11.54,-10.844 4.4,-4.682 10.591,9.952 3.51,-3.734 -10.591,-9.953 5.033,-5.356 11.784,11.073 3.797,-4.04 -16.59,-15.59 L 0,0"
         style="fill:#2e3192;fill-opacity:1;fill-rule:nonzero;stroke:none"
         transform="matrix(1.3333333,0,0,-1.3333333,383.37067,412.328)" />
    </g>
  </g>
</svg>
