<?xml version="1.0" encoding="UTF-8" standalone="no"?>
<!-- Created with Inkscape (http://www.inkscape.org/) -->

<svg
   version="1.1"
   id="svg1"
   width="891.64667"
   height="584.37335"
   viewBox="0 0 891.64667 584.37335"
   sodipodi:docname="Kyrgyz logo (EN).svg"
   inkscape:version="1.3.2 (091e20e, 2023-11-25, custom)"
   xmlns:inkscape="http://www.inkscape.org/namespaces/inkscape"
   xmlns:sodipodi="http://sodipodi.sourceforge.net/DTD/sodipodi-0.dtd"
   xmlns="http://www.w3.org/2000/svg"
   xmlns:svg="http://www.w3.org/2000/svg">
  <defs
     id="defs1">
    <clipPath
       clipPathUnits="userSpaceOnUse"
       id="clipPath22">
      <path
         d="M 0.059998,438.28 H 668.735 V 0.06 H 0.059998 Z"
         transform="translate(-16.760001,-18.229)"
         id="path22" />
    </clipPath>
    <clipPath
       clipPathUnits="userSpaceOnUse"
       id="clipPath31">
      <path
         d="M 0.059998,438.28 H 668.735 V 0.06 H 0.059998 Z"
         transform="translate(-313.53801,-31.984001)"
         id="path31" />
    </clipPath>
  </defs>
  <sodipodi:namedview
     id="namedview1"
     pagecolor="#ffffff"
     bordercolor="#666666"
     borderopacity="1.0"
     inkscape:showpageshadow="2"
     inkscape:pageopacity="0.0"
     inkscape:pagecheckerboard="0"
     inkscape:deskcolor="#d1d1d1"
     inkscape:export-bgcolor="#ffffffff"
     inkscape:zoom="1.0486217"
     inkscape:cx="445.82333"
     inkscape:cy="292.28845"
     inkscape:window-width="1920"
     inkscape:window-height="1017"
     inkscape:window-x="-8"
     inkscape:window-y="-8"
     inkscape:window-maximized="1"
     inkscape:current-layer="g1">
    <inkscape:page
       x="0"
       y="0"
       inkscape:label="1"
       id="page1"
       width="891.64667"
       height="584.37335"
       margin="0"
       bleed="0"
       inkscape:export-filename="Kyrgyz logo (EN).png"
       inkscape:export-xdpi="300"
       inkscape:export-ydpi="300" />
  </sodipodi:namedview>
  <g
     id="g1"
     inkscape:groupmode="layer"
     inkscape:label="1">
    <g
       id="group-MC1">
      <path
         id="path2"
         d="m 0,0 c -40.965,0 -77.234,-20.089 -99.507,-50.948 17.945,17.353 42.381,28.034 69.316,28.034 55.078,0 99.728,-44.65 99.728,-99.728 0,-55.079 -44.65,-99.729 -99.728,-99.729 -26.935,0 -51.371,10.682 -69.316,28.035 22.273,-30.859 58.542,-50.948 99.507,-50.948 67.733,0 122.642,54.909 122.642,122.642 C 122.642,-54.909 67.733,0 0,0"
         style="fill:#ed1c24;fill-opacity:1;fill-rule:nonzero;stroke:none"
         transform="matrix(1.3333333,0,0,-1.3333333,430.4,0)" />
      <path
         id="path3"
         d="m 0,0 c 5.942,0 11.018,1.536 11.018,8.481 0,4.674 -2.538,8.146 -8.481,8.146 H -13.221 L -13.221,0 Z M -19.564,21.969 H 2.871 c 8.948,0 14.49,-4.875 14.49,-12.486 0,-5.744 -2.538,-10.484 -8.28,-12.086 v -0.134 c 5.542,-1.068 6.678,-5.142 7.145,-9.816 0.4,-4.673 0.133,-9.882 2.804,-13.154 h -7.078 c -1.802,1.937 -0.801,7.078 -1.736,11.752 -0.667,4.674 -1.803,8.613 -7.945,8.613 h -15.492 v -20.365 h -6.343 v 47.676"
         style="fill:#231f20;fill-opacity:1;fill-rule:nonzero;stroke:none"
         transform="matrix(1.3333333,0,0,-1.3333333,45.848,426.068)" />
      <path
         id="path4"
         d="m 0,0 c -0.268,5.408 -4.341,9.748 -9.949,9.748 -5.944,0 -9.483,-4.474 -9.883,-9.748 z m 5.475,-9.616 c -1.536,-7.612 -7.011,-11.752 -14.756,-11.752 -11.018,0 -16.227,7.612 -16.561,18.163 0,10.349 6.812,17.96 16.227,17.96 12.219,0 15.958,-11.418 15.624,-19.764 h -25.841 c -0.2,-6.009 3.205,-11.351 10.751,-11.351 4.674,0 7.945,2.27 8.947,6.744 h 5.609"
         style="fill:#231f20;fill-opacity:1;fill-rule:nonzero;stroke:none"
         transform="matrix(1.3333333,0,0,-1.3333333,111.45867,432.92133)" />
      <path
         id="path5"
         d="m 0,0 c 7.612,0 10.551,6.543 10.551,13.021 0,6.81 -3.073,13.087 -10.885,13.087 -7.745,0 -10.35,-6.611 -10.35,-13.355 C -10.684,6.277 -7.345,0 0,0 Z m 16.025,-4.207 h -5.676 v 4.674 h -0.132 c -1.87,-3.806 -6.278,-5.475 -11.018,-5.475 -10.617,0 -15.893,8.413 -15.893,18.163 0,9.748 5.209,17.96 15.759,17.96 3.539,0 8.614,-1.335 11.152,-5.408 h 0.132 v 17.762 h 5.676 V -4.207"
         style="fill:#231f20;fill-opacity:1;fill-rule:nonzero;stroke:none"
         transform="matrix(1.3333333,0,0,-1.3333333,147.06533,454.73467)" />
      <path
         id="path6"
         d="m 0,0 c -1.336,6.744 -6.744,10.149 -13.355,10.149 -11.351,0 -16.159,-9.348 -16.159,-19.297 0,-10.884 4.808,-19.965 16.226,-19.965 8.347,0 13.154,5.876 13.755,13.755 h 6.344 c -1.203,-11.886 -8.615,-19.097 -20.633,-19.097 -14.824,0 -22.035,10.951 -22.035,24.839 0,13.823 7.878,25.107 22.569,25.107 C -3.339,15.491 4.874,10.149 6.343,0 H 0"
         style="fill:#231f20;fill-opacity:1;fill-rule:nonzero;stroke:none"
         transform="matrix(1.3333333,0,0,-1.3333333,250.77867,415.91733)" />
      <path
         id="path7"
         d="m 0,0 h 5.342 v -7.279 h 0.133 c 2.738,5.542 6.543,8.281 12.687,8.079 v -6.008 c -9.148,0 -12.486,-5.209 -12.486,-13.956 V -34.522 H 0 L 0,0"
         style="fill:#231f20;fill-opacity:1;fill-rule:nonzero;stroke:none"
         transform="matrix(1.3333333,0,0,-1.3333333,268.84533,414.31467)" />
      <path
         id="path8"
         d="m 0,0 c -0.268,5.408 -4.341,9.748 -9.949,9.748 -5.944,0 -9.483,-4.474 -9.883,-9.748 z m 5.475,-9.616 c -1.536,-7.612 -7.011,-11.752 -14.756,-11.752 -11.018,0 -16.227,7.612 -16.561,18.163 0,10.349 6.812,17.96 16.227,17.96 12.218,0 15.958,-11.418 15.624,-19.764 h -25.841 c -0.2,-6.009 3.205,-11.351 10.751,-11.351 4.674,0 7.945,2.27 8.947,6.744 h 5.609"
         style="fill:#231f20;fill-opacity:1;fill-rule:nonzero;stroke:none"
         transform="matrix(1.3333333,0,0,-1.3333333,329.11733,432.92133)" />
      <path
         id="path9"
         d="m 0,0 c 0.202,-5.074 4.608,-6.677 9.283,-6.677 3.538,0 8.346,0.801 8.346,5.141 0,4.407 -5.609,5.141 -11.285,6.41 -5.608,1.27 -11.284,3.139 -11.284,9.749 0,6.944 6.877,9.815 12.887,9.815 7.612,0 13.688,-2.403 14.156,-10.816 h -5.676 c -0.401,4.406 -4.273,5.809 -8.013,5.809 -3.405,0 -7.345,-0.935 -7.345,-4.407 0,-4.073 6.01,-4.741 11.285,-6.009 5.676,-1.269 11.284,-3.139 11.284,-9.816 0,-8.214 -7.679,-10.884 -14.689,-10.884 -7.746,0 -14.29,3.138 -14.623,11.685 H 0"
         style="fill:#231f20;fill-opacity:1;fill-rule:nonzero;stroke:none"
         transform="matrix(1.3333333,0,0,-1.3333333,349.588,445.832)" />
      <path
         id="path10"
         d="m 0,0 c -0.868,4.34 -3.873,6.877 -8.547,6.877 -8.213,0 -10.751,-6.477 -10.751,-13.489 0,-6.342 2.871,-12.619 10.083,-12.619 5.476,0 8.747,3.205 9.482,8.413 h 5.809 c -1.268,-8.413 -6.544,-13.421 -15.224,-13.421 -10.55,0 -16.159,7.345 -16.159,17.627 0,10.351 5.342,18.496 16.292,18.496 C -1.202,11.884 5.074,8.213 5.876,0 H 0"
         style="fill:#231f20;fill-opacity:1;fill-rule:nonzero;stroke:none"
         transform="matrix(1.3333333,0,0,-1.3333333,420.72133,429.09333)" />
      <path
         id="path11"
         d="m 0,0 c -0.268,5.408 -4.341,9.748 -9.95,9.748 -5.943,0 -9.481,-4.474 -9.882,-9.748 z m 5.474,-9.616 c -1.535,-7.612 -7.01,-11.752 -14.757,-11.752 -11.016,0 -16.225,7.612 -16.558,18.163 0,10.349 6.81,17.96 16.225,17.96 12.219,0 15.958,-11.418 15.625,-19.764 h -25.841 c -0.201,-6.009 3.205,-11.351 10.751,-11.351 4.673,0 7.945,2.27 8.947,6.744 h 5.608"
         style="fill:#231f20;fill-opacity:1;fill-rule:nonzero;stroke:none"
         transform="matrix(1.3333333,0,0,-1.3333333,469.23867,432.92133)" />
      <path
         id="path12"
         d="m 0,0 h 5.341 v -5.476 h 0.134 c 2.403,4.274 6.277,6.276 11.218,6.276 9.081,0 11.886,-5.208 11.886,-12.619 v -22.703 h -5.676 v 23.37 c 0,4.207 -2.671,6.945 -7.012,6.945 -6.877,0 -10.216,-4.608 -10.216,-10.817 V -34.522 H 0 L 0,0"
         style="fill:#231f20;fill-opacity:1;fill-rule:nonzero;stroke:none"
         transform="matrix(1.3333333,0,0,-1.3333333,485.08,414.31467)" />
      <path
         id="path13"
         d="M 0,0 H 6.877 V -5.008 H 0 v -21.435 c 0,-2.603 0.734,-3.071 4.273,-3.071 h 2.604 v -5.008 H 2.538 c -5.877,0 -8.214,1.202 -8.214,7.545 v 21.969 h -5.876 V 0 h 5.876 V 10.349 H 0 L 0,0"
         style="fill:#231f20;fill-opacity:1;fill-rule:nonzero;stroke:none"
         transform="matrix(1.3333333,0,0,-1.3333333,545.08267,414.31467)" />
      <path
         id="path14"
         d="m 0,0 c -0.734,6.811 -5.274,9.749 -11.818,9.749 -5.342,0 -10.684,-1.937 -10.684,-8.147 0,-5.876 7.612,-6.744 15.291,-8.479 7.612,-1.736 15.224,-4.407 15.224,-13.755 0,-10.15 -9.949,-14.223 -18.629,-14.223 -10.684,0 -19.698,5.208 -19.698,16.827 h 6.009 c 0,-8.013 6.677,-11.485 13.889,-11.485 5.742,0 12.085,1.803 12.085,8.68 0,6.544 -7.611,7.68 -15.224,9.349 -7.612,1.668 -15.291,3.873 -15.291,12.62 0,9.681 8.615,13.955 17.294,13.955 C -1.803,15.091 5.61,10.483 6.01,0 H 0"
         style="fill:#231f20;fill-opacity:1;fill-rule:nonzero;stroke:none"
         transform="matrix(1.3333333,0,0,-1.3333333,625.38133,415.384)" />
      <path
         id="path15"
         d="m 0,0 c 5.942,0 10.75,4.674 10.75,13.021 0,8.413 -4.808,13.087 -10.75,13.087 -5.944,0 -10.751,-4.674 -10.751,-13.087 C -10.751,4.674 -5.944,0 0,0 Z m 0,31.115 c 10.95,0 16.759,-7.945 16.759,-18.094 C 16.759,2.938 10.95,-5.008 0,-5.008 c -10.952,0 -16.761,7.946 -16.761,18.029 0,10.149 5.809,18.094 16.761,18.094"
         style="fill:#231f20;fill-opacity:1;fill-rule:nonzero;stroke:none"
         transform="matrix(1.3333333,0,0,-1.3333333,664.908,454.73467)" />
      <path
         id="path16"
         d="m 0,0 c -0.868,4.34 -3.873,6.877 -8.547,6.877 -8.213,0 -10.751,-6.477 -10.751,-13.489 0,-6.342 2.871,-12.619 10.083,-12.619 5.476,0 8.747,3.205 9.481,8.413 h 5.81 c -1.269,-8.413 -6.544,-13.421 -15.225,-13.421 -10.549,0 -16.158,7.345 -16.158,17.627 0,10.351 5.342,18.496 16.292,18.496 C -1.202,11.884 5.074,8.213 5.876,0 H 0"
         style="fill:#231f20;fill-opacity:1;fill-rule:nonzero;stroke:none"
         transform="matrix(1.3333333,0,0,-1.3333333,727.40133,429.09333)" />
      <path
         id="path17"
         d="M 0,0 H 5.676 V -34.522 H 0 Z M 5.676,6.21 H 0 v 6.944 h 5.676 z"
         style="fill:#231f20;fill-opacity:1;fill-rule:nonzero;stroke:none"
         transform="matrix(1.3333333,0,0,-1.3333333,744.40133,414.31467)" />
      <path
         id="path18"
         d="m 0,0 c -0.268,5.408 -4.341,9.748 -9.949,9.748 -5.944,0 -9.483,-4.474 -9.883,-9.748 z m 5.474,-9.616 c -1.535,-7.612 -7.01,-11.752 -14.755,-11.752 -11.018,0 -16.227,7.612 -16.561,18.163 0,10.349 6.811,17.96 16.227,17.96 12.218,0 15.958,-11.418 15.624,-19.764 h -25.841 c -0.2,-6.009 3.205,-11.351 10.751,-11.351 4.674,0 7.945,2.27 8.947,6.744 h 5.608"
         style="fill:#231f20;fill-opacity:1;fill-rule:nonzero;stroke:none"
         transform="matrix(1.3333333,0,0,-1.3333333,795.68,432.92133)" />
      <path
         id="path19"
         d="M 0,0 H 6.877 V -5.008 H 0 v -21.435 c 0,-2.603 0.734,-3.071 4.273,-3.071 h 2.604 v -5.008 H 2.538 c -5.877,0 -8.214,1.202 -8.214,7.545 v 21.969 h -5.876 V 0 h 5.876 V 10.349 H 0 L 0,0"
         style="fill:#231f20;fill-opacity:1;fill-rule:nonzero;stroke:none"
         transform="matrix(1.3333333,0,0,-1.3333333,822.028,414.31467)" />
      <path
         id="path20"
         d="m 0,0 c -2.605,-6.744 -4.942,-9.215 -10.016,-9.215 -1.336,0 -2.671,0.134 -3.94,0.601 v 5.208 c 1.069,-0.333 2.204,-0.801 3.339,-0.801 2.337,0 3.606,1.135 4.674,3.138 l 2.337,5.876 -13.688,34.322 h 6.41 L -0.801,10.884 h 0.133 l 9.682,28.245 h 6.01 L 0,0"
         style="fill:#231f20;fill-opacity:1;fill-rule:nonzero;stroke:none"
         transform="matrix(1.3333333,0,0,-1.3333333,857.63733,466.48667)" />
      <path
         id="path21"
         d="m 0,0 c 5.942,0 10.75,4.674 10.75,13.021 0,8.413 -4.808,13.087 -10.75,13.087 -5.943,0 -10.751,-4.674 -10.751,-13.087 C -10.751,4.674 -5.943,0 0,0 Z m 0,31.115 c 10.95,0 16.76,-7.945 16.76,-18.094 C 16.76,2.938 10.95,-5.008 0,-5.008 c -10.951,0 -16.76,7.946 -16.76,18.029 0,10.149 5.809,18.094 16.76,18.094"
         style="fill:#231f20;fill-opacity:1;fill-rule:nonzero;stroke:none"
         transform="matrix(1.3333333,0,0,-1.3333333,22.346667,560.068)"
         clip-path="url(#clipPath22)" />
      <path
         id="path23"
         d="M 0,0 H -5.81 V 5.008 H 0 v 5.141 c 0,5.609 3.339,8.547 9.549,8.547 1.068,0 2.603,-0.2 3.672,-0.534 v -4.941 c -1.001,0.334 -2.203,0.467 -3.205,0.467 -2.738,0 -4.34,-0.868 -4.34,-3.873 V 5.008 h 6.676 V 0 H 5.676 V -29.514 H 0 V 0"
         style="fill:#231f20;fill-opacity:1;fill-rule:nonzero;stroke:none"
         transform="matrix(1.3333333,0,0,-1.3333333,56.706667,526.32533)" />
      <path
         id="path24"
         d="M 0,0 H 6.878 V -5.008 H 0 v -21.435 c 0,-2.603 0.734,-3.071 4.273,-3.071 h 2.605 v -5.008 h -4.34 c -5.877,0 -8.214,1.202 -8.214,7.545 v 21.969 h -5.876 V 0 h 5.876 V 10.349 H 0 L 0,0"
         style="fill:#231f20;fill-opacity:1;fill-rule:nonzero;stroke:none"
         transform="matrix(1.3333333,0,0,-1.3333333,115.19333,519.648)" />
      <path
         id="path25"
         d="m 0,0 h 5.676 v -18.23 h 0.133 c 1.87,4.141 6.745,5.876 10.884,5.876 9.081,0 11.886,-5.208 11.886,-12.619 v -22.703 h -5.676 v 23.37 c 0,4.207 -2.671,6.945 -7.012,6.945 -6.876,0 -10.215,-4.608 -10.215,-10.817 V -47.676 H 0 L 0,0"
         style="fill:#231f20;fill-opacity:1;fill-rule:nonzero;stroke:none"
         transform="matrix(1.3333333,0,0,-1.3333333,132.73067,502.10933)" />
      <path
         id="path26"
         d="m 0,0 c -0.268,5.408 -4.341,9.748 -9.95,9.748 -5.943,0 -9.482,-4.474 -9.882,-9.748 z m 5.474,-9.616 c -1.535,-7.612 -7.011,-11.752 -14.756,-11.752 -11.017,0 -16.226,7.612 -16.56,18.163 0,10.349 6.811,17.96 16.226,17.96 12.219,0 15.958,-11.418 15.624,-19.764 h -25.84 c -0.201,-6.009 3.205,-11.351 10.751,-11.351 4.673,0 7.945,2.27 8.947,6.744 h 5.608"
         style="fill:#231f20;fill-opacity:1;fill-rule:nonzero;stroke:none"
         transform="matrix(1.3333333,0,0,-1.3333333,214.19067,538.25467)" />
      <path
         id="path27"
         d="M 0,0 H 6.343 V -23.772 L 30.515,0 h 8.213 l -20.099,-19.231 20.9,-28.445 H 31.516 L 14.289,-23.571 6.343,-30.982 V -47.676 H 0 L 0,0"
         style="fill:#231f20;fill-opacity:1;fill-rule:nonzero;stroke:none"
         transform="matrix(1.3333333,0,0,-1.3333333,256.02667,502.10933)" />
      <path
         id="path28"
         d="m 0,0 c -2.605,-6.744 -4.942,-9.215 -10.016,-9.215 -1.336,0 -2.671,0.134 -3.939,0.601 v 5.208 c 1.068,-0.333 2.203,-0.801 3.339,-0.801 2.337,0 3.605,1.135 4.673,3.138 l 2.337,5.876 -13.688,34.322 h 6.41 L -0.801,10.884 h 0.133 l 9.683,28.245 h 6.009 L 0,0"
         style="fill:#231f20;fill-opacity:1;fill-rule:nonzero;stroke:none"
         transform="matrix(1.3333333,0,0,-1.3333333,332.23067,571.82)" />
      <path
         id="path29"
         d="m 0,0 h 5.342 v -7.279 h 0.133 c 2.738,5.542 6.543,8.281 12.687,8.079 v -6.008 c -9.148,0 -12.486,-5.209 -12.486,-13.956 V -34.522 H 0 L 0,0"
         style="fill:#231f20;fill-opacity:1;fill-rule:nonzero;stroke:none"
         transform="matrix(1.3333333,0,0,-1.3333333,358.40267,519.648)" />
      <path
         id="path30"
         d="m 0,0 c 0,6.076 -2.671,12.353 -9.815,12.353 -7.279,0 -10.217,-5.943 -10.217,-12.553 0,-6.21 2.27,-13.154 9.749,-13.154 C -2.805,-13.354 0,-6.477 0,0 Z m 5.608,-15.024 c 0,-11.217 -5.141,-16.96 -16.025,-16.96 -6.476,0 -13.955,2.604 -14.289,10.149 h 5.676 c 0.266,-4.14 5.208,-5.608 8.947,-5.608 7.412,0 10.35,5.342 10.35,13.087 v 2.27 H 0.134 c -1.87,-4.207 -6.41,-6.276 -10.751,-6.276 -10.283,0 -15.425,8.079 -15.425,17.494 0,8.146 4.007,18.228 15.959,18.228 4.34,0 8.213,-1.935 10.283,-5.742 h 0.067 v 4.942 h 5.341 v -31.584"
         style="fill:#231f20;fill-opacity:1;fill-rule:nonzero;stroke:none"
         transform="matrix(1.3333333,0,0,-1.3333333,418.05067,541.728)"
         clip-path="url(#clipPath31)" />
      <path
         id="path32"
         d="m 0,0 c -2.603,-6.744 -4.941,-9.215 -10.015,-9.215 -1.336,0 -2.671,0.134 -3.94,0.601 v 5.208 c 1.068,-0.333 2.203,-0.801 3.338,-0.801 2.338,0 3.606,1.135 4.675,3.138 l 2.337,5.876 -13.689,34.322 h 6.41 L -0.801,10.884 h 0.133 l 9.683,28.245 h 6.009 L 0,0"
         style="fill:#231f20;fill-opacity:1;fill-rule:nonzero;stroke:none"
         transform="matrix(1.3333333,0,0,-1.3333333,454.992,571.82)" />
      <path
         id="path33"
         d="M 0,0 20.833,25.174 H 1.335 v 5.008 H 28.178 V 26.309 L 7.078,0.668 H 29.113 V -4.34 L 0,-4.34 V 0"
         style="fill:#231f20;fill-opacity:1;fill-rule:nonzero;stroke:none"
         transform="matrix(1.3333333,0,0,-1.3333333,477.692,559.89067)" />
      <path
         id="path34"
         d="m 0,0 c 5.943,0 11.017,1.536 11.017,8.481 0,4.674 -2.537,8.146 -8.48,8.146 H -13.221 V 0 Z M -19.565,21.969 H 2.871 c 8.947,0 14.49,-4.875 14.49,-12.486 0,-5.744 -2.538,-10.484 -8.28,-12.086 v -0.134 c 5.542,-1.068 6.677,-5.142 7.144,-9.816 0.402,-4.673 0.134,-9.882 2.805,-13.154 h -7.078 c -1.803,1.937 -0.801,7.078 -1.736,11.752 -0.668,4.674 -1.803,8.613 -7.946,8.613 h -15.491 v -20.365 h -6.344 v 47.676"
         style="fill:#231f20;fill-opacity:1;fill-rule:nonzero;stroke:none"
         transform="matrix(1.3333333,0,0,-1.3333333,576.24267,531.40133)" />
      <path
         id="path35"
         d="m 0,0 c -0.268,5.408 -4.341,9.748 -9.95,9.748 -5.943,0 -9.481,-4.474 -9.882,-9.748 z m 5.474,-9.616 c -1.535,-7.612 -7.01,-11.752 -14.757,-11.752 -11.016,0 -16.225,7.612 -16.558,18.163 0,10.349 6.81,17.96 16.225,17.96 12.219,0 15.958,-11.418 15.624,-19.764 h -25.84 c -0.201,-6.009 3.205,-11.351 10.751,-11.351 4.673,0 7.945,2.27 8.947,6.744 h 5.608"
         style="fill:#231f20;fill-opacity:1;fill-rule:nonzero;stroke:none"
         transform="matrix(1.3333333,0,0,-1.3333333,641.85333,538.25467)" />
      <path
         id="path36"
         d="m 0,0 c -7.612,0 -10.55,-6.543 -10.55,-13.021 0,-6.81 3.072,-13.087 10.884,-13.087 7.745,0 10.35,6.611 10.35,13.355 C 10.684,-6.277 7.345,0 0,0 Z m -16.025,4.207 h 5.675 v -4.674 h 0.134 c 1.869,3.806 6.277,5.474 11.018,5.474 10.616,0 15.891,-8.413 15.891,-18.162 0,-9.748 -5.208,-17.961 -15.758,-17.961 -3.539,0 -8.614,1.335 -11.151,5.409 h -0.134 v -17.829 h -5.675 V 4.207"
         style="fill:#231f20;fill-opacity:1;fill-rule:nonzero;stroke:none"
         transform="matrix(1.3333333,0,0,-1.3333333,679.32933,525.25733)" />
      <path
         id="path37"
         d="m 0,0 h -5.341 v 5.476 h -0.134 c -2.405,-4.274 -6.277,-6.277 -11.218,-6.277 -9.081,0 -11.886,5.208 -11.886,12.62 v 22.703 h 5.676 v -23.37 c 0,-4.207 2.671,-6.945 7.011,-6.945 6.878,0 10.217,4.608 10.217,10.817 V 34.522 H 0 L 0,0"
         style="fill:#231f20;fill-opacity:1;fill-rule:nonzero;stroke:none"
         transform="matrix(1.3333333,0,0,-1.3333333,748.59067,565.67733)" />
      <path
         id="path38"
         d="m 0,0 c -7.612,0 -10.55,-6.543 -10.55,-13.021 0,-6.81 3.071,-13.087 10.884,-13.087 7.745,0 10.35,6.611 10.35,13.355 C 10.684,-6.277 7.345,0 0,0 Z m -16.025,17.361 h 5.675 V -0.467 h 0.134 c 1.869,3.806 6.276,5.474 11.018,5.474 10.616,0 15.891,-8.413 15.891,-18.162 0,-9.748 -5.208,-17.961 -15.759,-17.961 -3.539,0 -8.613,1.335 -11.15,5.409 h -0.134 v -4.608 h -5.675 v 47.676"
         style="fill:#231f20;fill-opacity:1;fill-rule:nonzero;stroke:none"
         transform="matrix(1.3333333,0,0,-1.3333333,781.616,525.25733)" />
      <path
         id="path39"
         d="m 609.913,14.022 h 5.676 v 47.676 h -5.676 z"
         style="fill:#231f20;fill-opacity:1;fill-rule:nonzero;stroke:none"
         transform="matrix(1.3333333,0,0,-1.3333333,0,584.37333)" />
      <path
         id="path40"
         d="M 0,0 H 5.6759 V -34.522 H 0 Z M 5.676,6.21 H 10e-5 v 6.944 H 5.676 Z"
         style="fill:#231f20;fill-opacity:1;fill-rule:nonzero;stroke:none"
         transform="matrix(1.3333333,0,0,-1.3333333,832.97867,519.648)" />
      <path
         id="path41"
         d="m 0,0 c -0.868,4.34 -3.873,6.877 -8.547,6.877 -8.214,0 -10.751,-6.477 -10.751,-13.489 0,-6.342 2.871,-12.619 10.083,-12.619 5.476,0 8.747,3.205 9.482,8.413 h 5.809 c -1.268,-8.413 -6.544,-13.421 -15.224,-13.421 -10.55,0 -16.159,7.345 -16.159,17.627 0,10.351 5.341,18.496 16.293,18.496 C -1.202,11.884 5.074,8.213 5.876,0 H 0"
         style="fill:#231f20;fill-opacity:1;fill-rule:nonzero;stroke:none"
         transform="matrix(1.3333333,0,0,-1.3333333,883.54533,534.42667)" />
    </g>
  </g>
</svg>
