<?xml version="1.0" encoding="UTF-8" standalone="no"?>
<!-- Created with Inkscape (http://www.inkscape.org/) -->

<svg
   version="1.1"
   id="svg1"
   width="1062.8867"
   height="690.41864"
   viewBox="0 0 1062.8867 690.41864"
   sodipodi:docname="Kyrgyz logo (RU).svg"
   inkscape:version="1.3.2 (091e20e, 2023-11-25, custom)"
   xmlns:inkscape="http://www.inkscape.org/namespaces/inkscape"
   xmlns:sodipodi="http://sodipodi.sourceforge.net/DTD/sodipodi-0.dtd"
   xmlns="http://www.w3.org/2000/svg"
   xmlns:svg="http://www.w3.org/2000/svg">
  <defs
     id="defs1">
    <clipPath
       clipPathUnits="userSpaceOnUse"
       id="clipPath3">
      <path
         d="M 0.059998,517.8 H 797.165 V 0 H 0.059998 Z"
         transform="translate(-387.01501,-517.81401)"
         id="path3" />
    </clipPath>
    <clipPath
       clipPathUnits="userSpaceOnUse"
       id="clipPath5">
      <path
         d="M 0.059998,517.8 H 797.165 V 0 H 0.059998 Z"
         transform="translate(-38.224001,-160.82201)"
         id="path5" />
    </clipPath>
  </defs>
  <sodipodi:namedview
     id="namedview1"
     pagecolor="#ffffff"
     bordercolor="#666666"
     borderopacity="1.0"
     inkscape:showpageshadow="2"
     inkscape:pageopacity="0.0"
     inkscape:pagecheckerboard="0"
     inkscape:deskcolor="#d1d1d1"
     inkscape:export-bgcolor="#ffffffff"
     inkscape:zoom="0.87967981"
     inkscape:cx="531.44337"
     inkscape:cy="345.0119"
     inkscape:window-width="1920"
     inkscape:window-height="1017"
     inkscape:window-x="-8"
     inkscape:window-y="-8"
     inkscape:window-maximized="1"
     inkscape:current-layer="g1">
    <inkscape:page
       x="0"
       y="0"
       inkscape:label="1"
       id="page1"
       width="1062.8867"
       height="690.41864"
       margin="0"
       bleed="0"
       inkscape:export-filename="Kyrgyz logo (RU).png"
       inkscape:export-xdpi="300"
       inkscape:export-ydpi="300" />
  </sodipodi:namedview>
  <g
     id="g1"
     inkscape:groupmode="layer"
     inkscape:label="1">
    <g
       id="group-MC1">
      <path
         id="path2"
         d="m 0,0 c -40.965,0 -77.234,-20.089 -99.507,-50.948 17.945,17.353 42.381,28.034 69.315,28.034 55.079,0 99.729,-44.65 99.729,-99.728 0,-55.079 -44.65,-99.729 -99.729,-99.729 -26.934,0 -51.37,10.682 -69.315,28.035 22.273,-30.859 58.542,-50.948 99.507,-50.948 67.733,0 122.642,54.909 122.642,122.642 C 122.642,-54.909 67.733,0 0,0"
         style="fill:#ed1c24;fill-opacity:1;fill-rule:nonzero;stroke:none"
         transform="matrix(1.3333333,0,0,-1.3333333,516.02,0)"
         clip-path="url(#clipPath3)" />
      <path
         id="path4"
         d="M 0,0 H -6.371 V 22.569 H -31.854 V 0 h -6.37 v 48.255 h 6.37 V 28.126 H -6.371 V 48.255 H 0 L 0,0"
         style="fill:#231f20;fill-opacity:1;fill-rule:nonzero;stroke:none"
         transform="matrix(1.3333333,0,0,-1.3333333,50.965333,475.98933)"
         clip-path="url(#clipPath5)" />
      <path
         id="path6"
         d="m 0,0 c -4.202,-0.542 -9.895,-1.016 -9.895,-6.642 0,-3.591 2.643,-5.828 6.981,-5.828 5.422,0 10.64,3.727 10.64,8.201 v 6.37 C 5.557,0.474 2.575,0.339 0,0 Z m 17.011,-15.927 c -1.219,-0.474 -2.643,-0.677 -3.93,-0.677 -3.254,0 -5.016,1.829 -5.084,5.15 -3.456,-3.863 -7.252,-5.558 -12.674,-5.558 -6.912,0 -11.182,3.796 -11.182,9.896 0,6.235 4.134,9.895 12.403,10.912 8.336,1.016 11.182,0.813 11.182,5.557 0,3.728 -2.778,5.761 -7.929,5.761 -5.354,0 -8.133,-1.966 -8.675,-7.117 h -5.626 c 0.204,7.456 5.626,11.86 14.639,11.86 4.677,0 8.676,-1.219 10.98,-3.388 2.44,-2.372 2.372,-5.964 2.372,-9.082 0,-5.218 -0.271,-10.369 -0.271,-15.588 0,-2.575 0.61,-3.456 2.372,-3.456 0.542,0 0.813,0.067 1.423,0.203 v -4.473"
         style="fill:#231f20;fill-opacity:1;fill-rule:nonzero;stroke:none"
         transform="matrix(1.3333333,0,0,-1.3333333,82.504,454.57333)" />
      <path
         id="path7"
         d="m 0,0 h -27.787 v 34.971 h 5.761 V 5.083 H -4.812 V 34.971 H 0.949 V 5.083 h 4.54 V -11.115 H 0 L 0,0"
         style="fill:#231f20;fill-opacity:1;fill-rule:nonzero;stroke:none"
         transform="matrix(1.3333333,0,0,-1.3333333,149.464,475.98933)" />
      <path
         id="path8"
         d="M 0,0 V 34.971 H 5.761 V 6.438 H 5.896 L 21.62,34.971 h 7.387 V 0 H 23.246 V 28.533 H 23.111 L 7.388,0 H 0"
         style="fill:#231f20;fill-opacity:1;fill-rule:nonzero;stroke:none"
         transform="matrix(1.3333333,0,0,-1.3333333,163.92267,475.98933)" />
      <path
         id="path9"
         d="m 0,0 c 0,-8.607 4.134,-13.69 11.183,-13.69 6.777,0 10.843,5.151 10.843,13.758 0,8.337 -4.202,13.623 -10.979,13.623 C 4.27,13.691 0,8.337 0,0 Z m 27.922,0.204 c 0,-11.86 -6.167,-18.774 -16.807,-18.774 -10.708,0 -17.079,6.914 -17.079,18.435 0,11.521 6.574,18.637 17.147,18.637 10.572,0 16.739,-6.709 16.739,-18.298"
         style="fill:#231f20;fill-opacity:1;fill-rule:nonzero;stroke:none"
         transform="matrix(1.3333333,0,0,-1.3333333,219.68,452.676)" />
      <path
         id="path10"
         d="M 0,0 V 34.971 H 5.761 V 21.077 h 17.485 v 13.894 h 5.761 V 0 H 23.246 V 15.994 H 5.761 L 5.761,0 H 0"
         style="fill:#231f20;fill-opacity:1;fill-rule:nonzero;stroke:none"
         transform="matrix(1.3333333,0,0,-1.3333333,266.03733,475.98933)" />
      <path
         id="path11"
         d="m 0,0 c -4.202,-0.542 -9.895,-1.016 -9.895,-6.642 0,-3.591 2.643,-5.828 6.981,-5.828 5.422,0 10.64,3.727 10.64,8.201 v 6.37 C 5.557,0.474 2.575,0.339 0,0 Z m 17.011,-15.927 c -1.22,-0.474 -2.643,-0.677 -3.931,-0.677 -3.253,0 -5.015,1.829 -5.083,5.15 -3.457,-3.863 -7.252,-5.558 -12.674,-5.558 -6.912,0 -11.182,3.796 -11.182,9.896 0,6.235 4.134,9.895 12.403,10.912 8.335,1.016 11.182,0.813 11.182,5.557 0,3.728 -2.779,5.761 -7.929,5.761 -5.355,0 -8.133,-1.966 -8.675,-7.117 h -5.626 c 0.204,7.456 5.626,11.86 14.639,11.86 4.676,0 8.675,-1.219 10.98,-3.388 2.44,-2.372 2.372,-5.964 2.372,-9.082 0,-5.218 -0.272,-10.369 -0.272,-15.588 0,-2.575 0.611,-3.456 2.373,-3.456 0.542,0 0.813,0.067 1.423,0.203 v -4.473"
         style="fill:#231f20;fill-opacity:1;fill-rule:nonzero;stroke:none"
         transform="matrix(1.3333333,0,0,-1.3333333,334.89733,454.57333)" />
      <path
         id="path12"
         d="m 0,0 h -5.76 v 29.888 h -12.471 l -0.474,-15.452 c -0.339,-11.454 -4.812,-15.182 -9.692,-15.182 -1.694,0 -3.388,0.407 -4.134,0.746 v 4.676 c 0.746,-0.407 2.304,-0.474 3.05,-0.474 2.304,0 4.879,2.033 5.083,9.624 l 0.61,21.145 23.788,0 V 0"
         style="fill:#231f20;fill-opacity:1;fill-rule:nonzero;stroke:none"
         transform="matrix(1.3333333,0,0,-1.3333333,403.664,475.98933)" />
      <path
         id="path13"
         d="m 0,0 v -11.59 h 10.64 c 4.744,0 7.252,2.1 7.252,5.828 C 17.892,-2.034 15.452,0 10.64,0 Z M 12.741,-16.673 H -5.761 V 18.298 H 0 V 4.946 h 12.47 c 6.845,0 11.386,-4.066 11.386,-10.708 0,-6.574 -4.269,-10.911 -11.115,-10.911"
         style="fill:#231f20;fill-opacity:1;fill-rule:nonzero;stroke:none"
         transform="matrix(1.3333333,0,0,-1.3333333,422.46267,453.75867)" />
      <path
         id="path14"
         d="M 0,0 V 34.971 H 5.76 V 21.077 h 17.486 v 13.894 h 5.761 V 0 H 23.246 V 15.994 H 5.76 L 5.76,0 H 0"
         style="fill:#231f20;fill-opacity:1;fill-rule:nonzero;stroke:none"
         transform="matrix(1.3333333,0,0,-1.3333333,461.95333,475.98933)" />
      <path
         id="path15"
         d="m 0,0 c 0,-8.607 4.134,-13.69 11.182,-13.69 6.777,0 10.844,5.151 10.844,13.758 0,8.337 -4.202,13.623 -10.979,13.623 C 4.27,13.691 0,8.337 0,0 Z m 27.922,0.204 c 0,-11.86 -6.167,-18.774 -16.808,-18.774 -10.708,0 -17.078,6.914 -17.078,18.435 0,11.521 6.573,18.637 17.146,18.637 10.573,0 16.74,-6.709 16.74,-18.298"
         style="fill:#231f20;fill-opacity:1;fill-rule:nonzero;stroke:none"
         transform="matrix(1.3333333,0,0,-1.3333333,517.70933,452.676)" />
      <path
         id="path16"
         d="M 0,0 C -5.625,0 -9.556,-4.067 -10.301,-10.641 H 10.031 C 9.489,-4 5.761,0 0,0 Z m 0.339,-32.397 c -10.301,0 -16.469,6.778 -16.469,18.164 0,11.318 6.574,18.976 16.265,18.976 11.522,0 15.86,-9.149 15.86,-19.247 v -0.814 h -26.296 l -0.068,-0.406 c 0,-7.455 4.134,-11.928 10.911,-11.928 5.015,0 7.794,2.169 9.421,7.455 h 5.625 c -1.762,-8.065 -6.981,-12.2 -15.249,-12.2"
         style="fill:#231f20;fill-opacity:1;fill-rule:nonzero;stroke:none"
         transform="matrix(1.3333333,0,0,-1.3333333,583.13333,434.33067)" />
      <path
         id="path17"
         d="m 0,0 c 0,-12.064 6.575,-19.858 16.808,-19.858 10.098,0 16.672,7.862 16.672,19.858 0,11.928 -6.574,19.654 -16.808,19.654 C 5.286,19.654 0,10.302 0,0 Z m 39.851,0.338 c 0,-14.164 -7.794,-25.686 -23.111,-25.686 -15.452,0 -23.111,11.793 -23.111,25.822 0,15.046 9.014,24.738 23.043,24.738 14.978,0 23.179,-10.505 23.179,-24.874"
         style="fill:#231f20;fill-opacity:1;fill-rule:nonzero;stroke:none"
         transform="matrix(1.3333333,0,0,-1.3333333,643.94933,443.72933)" />
      <path
         id="path18"
         d="m 0,0 c 6.438,0 10.438,4.88 10.438,13.352 0,8.201 -4.068,13.215 -10.574,13.215 -6.506,0 -10.64,-5.082 -10.64,-13.283 C -10.776,5.422 -6.777,0 0,0 Z m 1.356,43.511 c 4.405,0.339 7.116,0.406 8.064,2.169 h 5.761 C 13.894,38.496 6.642,38.632 0.542,38.156 -7.116,37.614 -11.047,31.718 -12.064,23.45 h 0.204 c 1.965,4.609 6.438,7.93 12.266,7.93 9.828,0 15.928,-6.506 15.928,-17.892 0,-11.658 -6.032,-18.368 -16.402,-18.368 -8.201,0 -14.774,4.948 -16.198,14.572 -0.271,1.897 -0.406,4.066 -0.406,6.371 0,6.709 0.813,14.842 4.202,20.061 3.117,4.811 7.184,6.912 13.826,7.387"
         style="fill:#231f20;fill-opacity:1;fill-rule:nonzero;stroke:none"
         transform="matrix(1.3333333,0,0,-1.3333333,727.35733,471.02)" />
      <path
         id="path19"
         d="M 0,0 H 5.761 V -29.888 H 20.196 V 0 h 5.761 V -29.888 H 40.393 V 0 h 5.761 v -29.888 h 4.541 v -16.198 h -5.49 v 11.115 H 0 V 0"
         style="fill:#231f20;fill-opacity:1;fill-rule:nonzero;stroke:none"
         transform="matrix(1.3333333,0,0,-1.3333333,758.26267,429.36133)" />
      <path
         id="path20"
         d="M 0,0 C -5.625,0 -9.557,-4.067 -10.302,-10.641 H 10.03 C 9.488,-4 5.761,0 0,0 Z m 0.339,-32.397 c -10.302,0 -16.469,6.778 -16.469,18.164 0,11.318 6.573,18.976 16.266,18.976 11.521,0 15.858,-9.149 15.858,-19.247 v -0.814 h -26.296 l -0.067,-0.406 c 0,-7.455 4.134,-11.928 10.911,-11.928 5.016,0 7.794,2.169 9.42,7.455 h 5.626 c -1.762,-8.065 -6.98,-12.2 -15.249,-12.2"
         style="fill:#231f20;fill-opacity:1;fill-rule:nonzero;stroke:none"
         transform="matrix(1.3333333,0,0,-1.3333333,851.792,434.33067)" />
      <path
         id="path21"
         d="m 0,0 c -10.844,0 -16.604,7.388 -16.604,18.028 0,11.657 6.506,18.976 16.808,18.976 8.539,0 13.893,-4.472 14.842,-12.402 H 9.082 c -1.017,4.948 -4.067,7.591 -8.811,7.591 -6.642,0 -10.844,-5.286 -10.844,-13.691 0,-8.539 3.931,-13.69 10.438,-13.69 5.218,0 8.675,3.185 9.556,8.946 h 5.828 C 14.233,5.422 8.675,0 0,0"
         style="fill:#231f20;fill-opacity:1;fill-rule:nonzero;stroke:none"
         transform="matrix(1.3333333,0,0,-1.3333333,901.04133,477.34533)" />
      <path
         id="path22"
         d="M 0,0 V -29.888 H -5.761 V 0 H -18.299 V 5.083 H 12.538 V 0 H 0"
         style="fill:#231f20;fill-opacity:1;fill-rule:nonzero;stroke:none"
         transform="matrix(1.3333333,0,0,-1.3333333,948.75467,436.13867)" />
      <path
         id="path23"
         d="m 0,0 h 12.334 c 3.661,0 5.761,2.508 5.761,5.829 0,3.186 -2.033,5.218 -6.777,5.218 H 0 Z m 16.604,20.604 c 0,2.914 -1.559,4.472 -6.641,4.472 H 0 v -9.149 h 9.963 c 4.947,0 6.641,1.695 6.641,4.677 z m -22.23,9.42 h 16.199 c 6.099,0 11.995,-1.355 11.995,-8.472 0,-3.727 -1.897,-6.031 -5.15,-7.523 v -0.068 c 4.066,-0.813 6.642,-3.93 6.642,-8.607 0,-5.964 -4.406,-10.301 -10.641,-10.301 H -5.626 v 34.971"
         style="fill:#231f20;fill-opacity:1;fill-rule:nonzero;stroke:none"
         transform="matrix(1.3333333,0,0,-1.3333333,978.93733,469.39333)" />
      <path
         id="path24"
         d="m 0,0 c 0,-8.607 4.134,-13.69 11.182,-13.69 6.779,0 10.844,5.151 10.844,13.758 0,8.337 -4.201,13.623 -10.979,13.623 C 4.27,13.691 0,8.337 0,0 Z m 27.923,0.204 c 0,-11.86 -6.167,-18.774 -16.808,-18.774 -10.709,0 -17.079,6.914 -17.079,18.435 0,11.521 6.574,18.637 17.146,18.637 10.574,0 16.741,-6.709 16.741,-18.298"
         style="fill:#231f20;fill-opacity:1;fill-rule:nonzero;stroke:none"
         transform="matrix(1.3333333,0,0,-1.3333333,1025.656,452.676)" />
      <path
         id="path25"
         d="m 0,0 21.145,-28.871 h -8.132 l -17.486,24.534 -7.997,-7.591 v -16.943 h -6.371 v 48.255 h 6.371 V -4.54 l 24.466,23.924 h 8.336 L 0,0"
         style="fill:#231f20;fill-opacity:1;fill-rule:nonzero;stroke:none"
         transform="matrix(1.3333333,0,0,-1.3333333,87.790667,535.148)" />
      <path
         id="path26"
         d="m 0,0 c 0,-8.472 4.202,-13.623 10.98,-13.623 6.573,0 10.64,5.219 10.64,13.623 0,8.472 -4.067,13.623 -10.844,13.623 C 4.067,13.623 0,8.472 0,0 Z m -0.135,12.403 c 2.71,4.337 6.642,6.032 11.792,6.032 9.76,0 15.927,-7.049 15.927,-18.367 0,-11.318 -6.099,-18.57 -15.656,-18.57 -5.15,0 -8.743,1.694 -11.725,5.761 v -18.367 h -5.76 V 17.35 h 5.422 v -4.947"
         style="fill:#231f20;fill-opacity:1;fill-rule:nonzero;stroke:none"
         transform="matrix(1.3333333,0,0,-1.3333333,128.99733,550.148)" />
      <path
         id="path27"
         d="m 0,0 c -4.202,-0.543 -9.895,-1.017 -9.895,-6.643 0,-3.591 2.644,-5.828 6.981,-5.828 5.422,0 10.641,3.728 10.641,8.201 V 2.1 C 5.558,0.474 2.576,0.338 0,0 Z m 17.011,-15.928 c -1.219,-0.474 -2.643,-0.677 -3.93,-0.677 -3.253,0 -5.016,1.83 -5.083,5.151 -3.457,-3.864 -7.252,-5.558 -12.674,-5.558 -6.913,0 -11.183,3.795 -11.183,9.895 0,6.235 4.134,9.896 12.403,10.912 8.336,1.016 11.183,0.813 11.183,5.557 0,3.728 -2.779,5.761 -7.93,5.761 -5.354,0 -8.133,-1.966 -8.675,-7.116 h -5.625 c 0.203,7.455 5.625,11.86 14.639,11.86 4.676,0 8.675,-1.22 10.979,-3.389 2.44,-2.371 2.372,-5.964 2.372,-9.082 0,-5.218 -0.271,-10.368 -0.271,-15.587 0,-2.575 0.61,-3.456 2.372,-3.456 0.542,0 0.814,0.067 1.423,0.203 v -4.474"
         style="fill:#231f20;fill-opacity:1;fill-rule:nonzero;stroke:none"
         transform="matrix(1.3333333,0,0,-1.3333333,193.78933,552.22533)" />
      <path
         id="path28"
         d="m 0,0 c -10.843,0 -16.604,7.387 -16.604,18.027 0,11.657 6.506,18.977 16.807,18.977 8.54,0 13.894,-4.473 14.843,-12.403 H 9.082 c -1.017,4.948 -4.067,7.591 -8.811,7.591 -6.642,0 -10.843,-5.286 -10.843,-13.691 0,-8.539 3.93,-13.69 10.436,-13.69 5.219,0 8.675,3.186 9.557,8.947 h 5.828 C 14.232,5.422 8.675,0 0,0"
         style="fill:#231f20;fill-opacity:1;fill-rule:nonzero;stroke:none"
         transform="matrix(1.3333333,0,0,-1.3333333,243.49067,574.99733)" />
      <path
         id="path29"
         d="M 0,0 V 34.971 H 5.761 V 6.438 H 5.896 L 21.62,34.971 h 7.387 V 0 H 23.246 V 28.533 H 23.111 L 7.388,0 H 0"
         style="fill:#231f20;fill-opacity:1;fill-rule:nonzero;stroke:none"
         transform="matrix(1.3333333,0,0,-1.3333333,272.22667,573.64267)" />
      <path
         id="path30"
         d="m 0,0 c 0,-8.607 4.134,-13.69 11.182,-13.69 6.778,0 10.844,5.151 10.844,13.758 0,8.337 -4.202,13.623 -10.979,13.623 C 4.269,13.691 0,8.337 0,0 Z m 27.922,0.204 c 0,-11.86 -6.167,-18.773 -16.808,-18.773 -10.707,0 -17.079,6.913 -17.079,18.434 0,11.521 6.575,18.638 17.147,18.638 10.573,0 16.74,-6.71 16.74,-18.299"
         style="fill:#231f20;fill-opacity:1;fill-rule:nonzero;stroke:none"
         transform="matrix(1.3333333,0,0,-1.3333333,327.984,550.32933)" />
      <path
         id="path31"
         d="M 0,0 V -29.888 H -5.761 V 5.083 H 18.231 V 0 H 0"
         style="fill:#231f20;fill-opacity:1;fill-rule:nonzero;stroke:none"
         transform="matrix(1.3333333,0,0,-1.3333333,382.20267,533.792)" />
      <path
         id="path32"
         d="m 0,0 c 0,-8.607 4.134,-13.69 11.182,-13.69 6.778,0 10.844,5.151 10.844,13.758 0,8.337 -4.202,13.623 -10.979,13.623 C 4.27,13.691 0,8.337 0,0 Z m 27.923,0.204 c 0,-11.86 -6.168,-18.773 -16.808,-18.773 -10.709,0 -17.079,6.913 -17.079,18.434 0,11.521 6.574,18.638 17.146,18.638 10.573,0 16.741,-6.71 16.741,-18.299"
         style="fill:#231f20;fill-opacity:1;fill-rule:nonzero;stroke:none"
         transform="matrix(1.3333333,0,0,-1.3333333,417.808,550.32933)" />
      <path
         id="path33"
         d="M 0,0 H -6.37 V 42.698 H -31.853 V 0 h -6.371 V 48.255 H 0 V 0"
         style="fill:#231f20;fill-opacity:1;fill-rule:nonzero;stroke:none"
         transform="matrix(1.3333333,0,0,-1.3333333,541.608,573.64267)" />
      <path
         id="path34"
         d="m 0,0 c 0,-8.607 4.134,-13.69 11.183,-13.69 6.777,0 10.844,5.151 10.844,13.758 0,8.337 -4.203,13.623 -10.979,13.623 C 4.27,13.691 0,8.337 0,0 Z m 27.923,0.204 c 0,-11.86 -6.167,-18.773 -16.808,-18.773 -10.708,0 -17.079,6.913 -17.079,18.434 0,11.521 6.574,18.638 17.147,18.638 10.573,0 16.74,-6.71 16.74,-18.299"
         style="fill:#231f20;fill-opacity:1;fill-rule:nonzero;stroke:none"
         transform="matrix(1.3333333,0,0,-1.3333333,560.04267,550.32933)" />
      <path
         id="path35"
         d="m 0,0 h -5.761 v 29.888 h -12.47 l -0.475,-15.452 c -0.338,-11.454 -4.812,-15.181 -9.692,-15.181 -1.694,0 -3.388,0.406 -4.133,0.745 v 4.677 c 0.745,-0.407 2.304,-0.475 3.049,-0.475 2.305,0 4.88,2.033 5.084,9.624 l 0.609,21.145 H 0 V 0"
         style="fill:#231f20;fill-opacity:1;fill-rule:nonzero;stroke:none"
         transform="matrix(1.3333333,0,0,-1.3333333,645.25867,573.64267)" />
      <path
         id="path36"
         d="m 0,0 c -1.899,-4.947 -3.863,-9.624 -10.099,-9.624 -1.491,0 -2.846,0.271 -4.27,0.61 v 5.151 c 1.831,-0.542 2.711,-0.746 3.728,-0.746 1.898,0 3.389,1.288 4.067,2.915 l 2.711,6.37 -13.894,34.768 h 6.506 L -0.881,11.59 8.945,39.444 h 6.032 L 0,0"
         style="fill:#231f20;fill-opacity:1;fill-rule:nonzero;stroke:none"
         transform="matrix(1.3333333,0,0,-1.3333333,675.26133,579.60667)" />
      <path
         id="path37"
         d="M 0,0 V 27.584 H -0.203 L -10.572,0 h -5.286 l -10.37,27.584 h -0.203 V 0 h -5.761 v 34.971 h 8.269 l 10.641,-28.33 h 0.135 l 10.64,28.33 H 5.761 L 5.761,0 H 0"
         style="fill:#231f20;fill-opacity:1;fill-rule:nonzero;stroke:none"
         transform="matrix(1.3333333,0,0,-1.3333333,744.66133,573.64267)" />
      <path
         id="path38"
         d="M 0,0 C -5.625,0 -9.556,-4.066 -10.301,-10.641 H 10.031 C 9.488,-3.999 5.761,0 0,0 Z m 0.339,-32.396 c -10.301,0 -16.469,6.777 -16.469,18.163 0,11.318 6.574,18.977 16.266,18.977 11.521,0 15.859,-9.15 15.859,-19.248 v -0.813 h -26.296 l -0.068,-0.407 c 0,-7.455 4.134,-11.928 10.911,-11.928 5.016,0 7.794,2.169 9.421,7.455 h 5.626 C 13.826,-28.262 8.608,-32.396 0.339,-32.396"
         style="fill:#231f20;fill-opacity:1;fill-rule:nonzero;stroke:none"
         transform="matrix(1.3333333,0,0,-1.3333333,782.79733,531.984)" />
      <path
         id="path39"
         d="m 0,0 c -10.844,0 -16.605,7.387 -16.605,18.027 0,11.657 6.507,18.977 16.808,18.977 8.54,0 13.894,-4.473 14.843,-12.403 H 9.082 c -1.016,4.948 -4.066,7.591 -8.811,7.591 -6.641,0 -10.844,-5.286 -10.844,-13.691 0,-8.539 3.932,-13.69 10.438,-13.69 5.218,0 8.675,3.186 9.555,8.947 h 5.83 C 14.233,5.422 8.675,0 0,0"
         style="fill:#231f20;fill-opacity:1;fill-rule:nonzero;stroke:none"
         transform="matrix(1.3333333,0,0,-1.3333333,832.04533,574.99733)" />
      <path
         id="path40"
         d="m 0,0 c -4.745,0 -6.914,-1.694 -6.914,-5.218 0,-3.593 2.102,-5.286 6.914,-5.286 H 10.165 V 0 Z m 10.165,-29.888 v 14.3 H 2.507 l -11.047,-14.3 h -7.658 l 12.063,14.504 c -4.947,0.745 -8.675,4.405 -8.675,10.166 0,6.574 4.203,10.301 10.979,10.301 h 17.757 v -34.971 h -5.761"
         style="fill:#231f20;fill-opacity:1;fill-rule:nonzero;stroke:none"
         transform="matrix(1.3333333,0,0,-1.3333333,876.416,533.792)" />
      <path
         id="path41"
         d="m 0,0 h -27.788 v 34.971 h 5.761 V 5.083 H -4.813 V 34.971 H 0.948 V 5.083 H 5.489 V -11.115 H 0 L 0,0"
         style="fill:#231f20;fill-opacity:1;fill-rule:nonzero;stroke:none"
         transform="matrix(1.3333333,0,0,-1.3333333,946.35867,573.64267)" />
      <path
         id="path42"
         d="m 0,0 c -4.202,-0.543 -9.895,-1.017 -9.895,-6.643 0,-3.591 2.643,-5.828 6.981,-5.828 5.422,0 10.641,3.728 10.641,8.201 V 2.1 C 5.558,0.474 2.576,0.338 0,0 Z m 17.012,-15.928 c -1.221,-0.474 -2.643,-0.677 -3.932,-0.677 -3.253,0 -5.014,1.83 -5.082,5.151 -3.457,-3.864 -7.252,-5.558 -12.674,-5.558 -6.913,0 -11.183,3.795 -11.183,9.895 0,6.235 4.135,9.896 12.403,10.912 8.336,1.016 11.183,0.813 11.183,5.557 0,3.728 -2.779,5.761 -7.93,5.761 -5.354,0 -8.133,-1.966 -8.675,-7.116 h -5.625 c 0.203,7.455 5.625,11.86 14.639,11.86 4.676,0 8.675,-1.22 10.98,-3.389 2.439,-2.371 2.372,-5.964 2.372,-9.082 0,-5.218 -0.272,-10.368 -0.272,-15.587 0,-2.575 0.611,-3.456 2.372,-3.456 0.542,0 0.814,0.067 1.424,0.203 v -4.474"
         style="fill:#231f20;fill-opacity:1;fill-rule:nonzero;stroke:none"
         transform="matrix(1.3333333,0,0,-1.3333333,979.432,552.22533)" />
      <path
         id="path43"
         d="m 0,0 21.145,-28.871 h -8.132 l -17.486,24.534 -7.997,-7.591 v -16.943 h -6.371 v 48.255 h 6.371 V -4.54 l 24.466,23.924 h 8.336 L 0,0"
         style="fill:#231f20;fill-opacity:1;fill-rule:nonzero;stroke:none"
         transform="matrix(1.3333333,0,0,-1.3333333,38.086667,633.128)" />
      <path
         id="path44"
         d="M -5.761,0 H 0 V -34.971 H -5.761 Z M 0,0 Z m -33.548,-18.298 v -11.59 h 9.013 c 4.745,0 7.252,2.101 7.252,5.829 0,3.727 -2.439,5.761 -7.252,5.761 z m 11.115,-16.673 H -39.309 V 0 h 5.761 v -13.351 h 10.844 c 6.844,0 11.386,-4.067 11.386,-10.708 0,-6.574 -4.27,-10.912 -11.115,-10.912"
         style="fill:#231f20;fill-opacity:1;fill-rule:nonzero;stroke:none"
         transform="matrix(1.3333333,0,0,-1.3333333,124.024,624.99467)" />
      <path
         id="path45"
         d="m 0,0 c 0,-8.472 4.202,-13.622 10.979,-13.622 6.574,0 10.641,5.218 10.641,13.622 0,8.472 -4.067,13.623 -10.844,13.623 C 4.066,13.623 0,8.472 0,0 Z m -0.136,12.403 c 2.711,4.337 6.642,6.032 11.793,6.032 9.759,0 15.927,-7.049 15.927,-18.367 0,-11.318 -6.1,-18.57 -15.656,-18.57 -5.151,0 -8.743,1.694 -11.725,5.761 V -31.108 H -5.558 V 17.35 h 5.422 v -4.947"
         style="fill:#231f20;fill-opacity:1;fill-rule:nonzero;stroke:none"
         transform="matrix(1.3333333,0,0,-1.3333333,142.912,648.128)" />
      <path
         id="path46"
         d="M 0,0 V -29.889 H -5.76 V 5.082 H 18.232 V 0 H 0"
         style="fill:#231f20;fill-opacity:1;fill-rule:nonzero;stroke:none"
         transform="matrix(1.3333333,0,0,-1.3333333,196.94933,631.77067)" />
      <path
         id="path47"
         d="M -5.761,0 H 0 V -34.971 H -5.761 Z M 0,0 Z m -33.548,-18.298 v -11.59 h 9.014 c 4.744,0 7.252,2.101 7.252,5.829 0,3.727 -2.44,5.761 -7.252,5.761 z m 11.115,-16.673 H -39.309 V 0 h 5.761 v -13.351 h 10.844 c 6.845,0 11.386,-4.067 11.386,-10.708 0,-6.574 -4.27,-10.912 -11.115,-10.912"
         style="fill:#231f20;fill-opacity:1;fill-rule:nonzero;stroke:none"
         transform="matrix(1.3333333,0,0,-1.3333333,279.18267,624.99467)" />
      <path
         id="path48"
         d="m 0,0 c 7.185,0 13.149,-2.914 13.149,-9.421 0,-3.998 -2.779,-6.777 -5.626,-7.387 v -0.135 c 3.254,-0.61 6.778,-3.253 6.778,-8.675 0,-7.591 -7.116,-11.454 -14.504,-11.454 -9.149,0 -14.774,4.405 -15.181,11.996 h 5.829 c 0.338,-5.016 4.133,-7.32 9.284,-7.32 5.49,0 8.608,3.049 8.608,6.642 0,3.524 -2.101,5.693 -7.455,5.693 H -3.93 v 4.676 h 3.863 c 4.066,0 7.387,1.559 7.387,5.693 0,2.575 -2.643,5.016 -7.387,5.016 -4.134,0 -8.404,-1.695 -8.879,-6.439 h -5.828 C -14.232,-2.507 -7.048,0 0,0"
         style="fill:#231f20;fill-opacity:1;fill-rule:nonzero;stroke:none"
         transform="matrix(1.3333333,0,0,-1.3333333,307.73867,623.63867)" />
      <path
         id="path49"
         d="m 0,0 c -10.844,0 -16.605,7.387 -16.605,18.027 0,11.657 6.506,18.977 16.808,18.977 8.539,0 13.894,-4.473 14.842,-12.403 H 9.081 c -1.016,4.948 -4.066,7.591 -8.81,7.591 -6.642,0 -10.844,-5.286 -10.844,-13.691 0,-8.539 3.931,-13.69 10.437,-13.69 5.219,0 8.675,3.186 9.556,8.947 h 5.829 C 14.232,5.422 8.675,0 0,0"
         style="fill:#231f20;fill-opacity:1;fill-rule:nonzero;stroke:none"
         transform="matrix(1.3333333,0,0,-1.3333333,355.63467,672.97733)" />
      <path
         id="path50"
         d="m 0,0 -12.742,17.215 -5.49,-5.355 V 0 h -5.76 v 34.971 h 5.76 V 18.299 L -2.237,34.971 H 5.49 L -8.607,21.214 7.319,0 H 0"
         style="fill:#231f20;fill-opacity:1;fill-rule:nonzero;stroke:none"
         transform="matrix(1.3333333,0,0,-1.3333333,416.36,671.62267)" />
      <path
         id="path51"
         d="m 0,0 c 0,-8.607 4.135,-13.69 11.183,-13.69 6.777,0 10.844,5.151 10.844,13.758 0,8.337 -4.202,13.623 -10.98,13.623 C 4.27,13.691 0,8.337 0,0 Z m 27.923,0.204 c 0,-11.86 -6.167,-18.773 -16.808,-18.773 -10.708,0 -17.079,6.913 -17.079,18.434 0,11.521 6.574,18.638 17.147,18.638 10.573,0 16.74,-6.71 16.74,-18.299"
         style="fill:#231f20;fill-opacity:1;fill-rule:nonzero;stroke:none"
         transform="matrix(1.3333333,0,0,-1.3333333,436.78267,648.30933)" />
      <path
         id="path52"
         d="m 0,0 c -5.625,0 -9.624,3.93 -10.301,9.352 h 3.456 c 0.949,-3.253 3.321,-5.287 6.777,-5.287 3.525,0 5.693,2.034 6.778,5.287 h 3.456 C 9.285,3.93 5.896,0 0,0 Z m -14.571,-38.903 v 34.971 h 5.76 v -28.533 h 0.136 L 7.049,-3.932 h 7.387 V -38.903 H 8.675 V -10.37 H 8.539 L -7.184,-38.903 h -7.387"
         style="fill:#231f20;fill-opacity:1;fill-rule:nonzero;stroke:none"
         transform="matrix(1.3333333,0,0,-1.3333333,502.56933,619.752)" />
      <path
         id="path53"
         d="m 0,0 h 12.267 c 6.168,0 10.912,1.695 10.912,8.811 0,7.726 -5.49,8.81 -11.793,8.81 L 0,17.621 Z m 13.487,23.111 c 9.217,0 16.063,-3.863 16.063,-13.894 0,-10.912 -7.049,-14.571 -16.469,-14.571 H 0 v -19.79 h -6.37 v 48.255 h 19.857"
         style="fill:#231f20;fill-opacity:1;fill-rule:nonzero;stroke:none"
         transform="matrix(1.3333333,0,0,-1.3333333,568.71733,638.09733)" />
      <path
         id="path54"
         d="M 0,0 C -5.625,0 -9.557,-4.066 -10.302,-10.641 H 10.03 C 9.488,-3.999 5.761,0 0,0 Z m 0.339,-32.396 c -10.302,0 -16.469,6.777 -16.469,18.163 0,11.318 6.573,18.977 16.266,18.977 11.521,0 15.858,-9.149 15.858,-19.248 v -0.813 h -26.296 l -0.067,-0.406 c 0,-7.456 4.134,-11.929 10.911,-11.929 5.016,0 7.794,2.169 9.42,7.455 h 5.626 C 13.826,-28.262 8.608,-32.396 0.339,-32.396"
         style="fill:#231f20;fill-opacity:1;fill-rule:nonzero;stroke:none"
         transform="matrix(1.3333333,0,0,-1.3333333,636.132,629.964)" />
      <path
         id="path55"
         d="m 0,0 c -10.844,0 -16.605,7.387 -16.605,18.027 0,11.657 6.506,18.977 16.808,18.977 8.54,0 13.894,-4.473 14.843,-12.403 H 9.082 c -1.016,4.948 -4.066,7.591 -8.811,7.591 -6.641,0 -10.844,-5.286 -10.844,-13.691 0,-8.539 3.931,-13.69 10.438,-13.69 5.218,0 8.675,3.186 9.555,8.947 h 5.829 C 14.233,5.422 8.675,0 0,0"
         style="fill:#231f20;fill-opacity:1;fill-rule:nonzero;stroke:none"
         transform="matrix(1.3333333,0,0,-1.3333333,685.38,672.97733)" />
      <path
         id="path56"
         d="M 0,0 V 34.971 H 29.008 V 0 H 23.246 V 29.889 H 5.761 L 5.761,0 H 0"
         style="fill:#231f20;fill-opacity:1;fill-rule:nonzero;stroke:none"
         transform="matrix(1.3333333,0,0,-1.3333333,714.116,671.62267)" />
      <path
         id="path57"
         d="m 0,0 c -1.898,-4.948 -3.863,-9.625 -10.098,-9.625 -1.492,0 -2.847,0.271 -4.271,0.61 v 5.151 c 1.831,-0.542 2.711,-0.746 3.729,-0.746 1.897,0 3.388,1.288 4.066,2.915 l 2.711,6.37 -13.894,34.768 h 6.506 l 10.37,-27.854 9.827,27.854 h 6.032 L 0,0"
         style="fill:#231f20;fill-opacity:1;fill-rule:nonzero;stroke:none"
         transform="matrix(1.3333333,0,0,-1.3333333,782.976,677.58533)" />
      <path
         id="path58"
         d="m 0,0 c 6.438,0 10.436,4.88 10.436,13.352 0,8.201 -4.065,13.216 -10.571,13.216 -6.507,0 -10.641,-5.083 -10.641,-13.284 C -10.776,5.422 -6.778,0 0,0 Z m 1.355,43.512 c 4.406,0.339 7.117,0.406 8.065,2.168 h 5.761 C 13.894,38.496 6.641,38.632 0.542,38.157 -7.117,37.615 -11.047,31.719 -12.064,23.451 h 0.204 c 1.965,4.608 6.438,7.929 12.267,7.929 9.826,0 15.927,-6.506 15.927,-17.892 0,-11.658 -6.033,-18.367 -16.402,-18.367 -8.2,0 -14.774,4.947 -16.198,14.572 -0.271,1.897 -0.407,4.065 -0.407,6.37 0,6.709 0.814,14.842 4.202,20.061 3.118,4.812 7.184,6.913 13.826,7.388"
         style="fill:#231f20;fill-opacity:1;fill-rule:nonzero;stroke:none"
         transform="matrix(1.3333333,0,0,-1.3333333,830.50933,666.65333)" />
      <path
         id="path59"
         d="m 0,0 h -5.76 v 29.889 h -12.47 l -0.475,-15.453 c -0.339,-11.454 -4.812,-15.181 -9.692,-15.181 -1.694,0 -3.388,0.406 -4.134,0.745 v 4.677 c 0.746,-0.407 2.305,-0.474 3.05,-0.474 2.305,0 4.88,2.032 5.083,9.623 l 0.61,21.145 23.788,0 V 0"
         style="fill:#231f20;fill-opacity:1;fill-rule:nonzero;stroke:none"
         transform="matrix(1.3333333,0,0,-1.3333333,900.27067,671.62267)" />
      <path
         id="path60"
         d="M 0,0 V 34.971 H 5.761 V 6.438 H 5.896 L 21.62,34.971 h 7.387 V 0 H 23.246 V 28.533 H 23.111 L 7.388,0 H 0"
         style="fill:#231f20;fill-opacity:1;fill-rule:nonzero;stroke:none"
         transform="matrix(1.3333333,0,0,-1.3333333,911.65867,671.62267)" />
      <path
         id="path61"
         d="M 0,0 -12.742,17.215 -18.231,11.86 V 0 h -5.761 v 34.971 h 5.761 V 18.299 L -2.236,34.971 H 5.49 L -8.607,21.214 7.319,0 H 0"
         style="fill:#231f20;fill-opacity:1;fill-rule:nonzero;stroke:none"
         transform="matrix(1.3333333,0,0,-1.3333333,993.892,671.62267)" />
      <path
         id="path62"
         d="M 0,0 V 34.971 H 5.761 V 6.438 H 5.896 L 21.62,34.971 h 7.387 V 0 H 23.246 V 28.533 H 23.111 L 7.388,0 H 0"
         style="fill:#231f20;fill-opacity:1;fill-rule:nonzero;stroke:none"
         transform="matrix(1.3333333,0,0,-1.3333333,1008.804,671.62267)" />
    </g>
  </g>
</svg>
