<?xml version="1.0" encoding="UTF-8" standalone="no"?>
<svg
   xmlns:dc="http://purl.org/dc/elements/1.1/"
   xmlns:cc="http://creativecommons.org/ns#"
   xmlns:rdf="http://www.w3.org/1999/02/22-rdf-syntax-ns#"
   xmlns:svg="http://www.w3.org/2000/svg"
   xmlns="http://www.w3.org/2000/svg"
   viewBox="0 0 244.28 244.09332"
   height="244.09332"
   width="244.28"
   xml:space="preserve"
   id="svg2"
   version="1.1"><metadata
     id="metadata8"><rdf:RDF><cc:Work
         rdf:about=""><dc:format>image/svg+xml</dc:format><dc:type
           rdf:resource="http://purl.org/dc/dcmitype/StillImage" /><dc:title></dc:title></cc:Work></rdf:RDF></metadata><defs
     id="defs6" /><g
     transform="matrix(1.3333333,0,0,-1.3333333,0,244.09333)"
     id="g10"><g
       transform="scale(0.1)"
       id="g12"><path
         id="path14"
         style="fill:none;stroke:#231f20;stroke-width:29.99909973;stroke-linecap:butt;stroke-linejoin:miter;stroke-miterlimit:2.41420007;stroke-dasharray:none;stroke-opacity:1"
         d="m 916.035,1587.15 c 370.295,0 672.295,-301.78 672.295,-671.795 0,-370.003 -302,-671.785 -672.295,-671.785 -370.285,0 -672.293,301.782 -672.293,671.785 0,370.015 302.008,671.795 672.293,671.795 z" /><path
         id="path16"
         style="fill:none;stroke:#231f20;stroke-width:29.99909973;stroke-linecap:butt;stroke-linejoin:miter;stroke-miterlimit:2.41420007;stroke-dasharray:none;stroke-opacity:1"
         d="m 916.035,1815.72 c 496.285,0 901.035,-404.45 901.035,-900.365 C 1817.07,419.449 1412.32,15 916.035,15 419.766,15 15,419.449 15,915.355 15,1411.27 419.766,1815.72 916.035,1815.72 Z" /><path
         id="path18"
         style="fill:#231f20;fill-opacity:1;fill-rule:nonzero;stroke:none"
         d="m 131.82,1087.16 c -10.031,0.46 -19.215,-7.51 -21.226,-18.25 -3.637,-19.4 11.515,-29.79 28.715,-33.02 16.382,-3.06 34.261,1.14 37.902,20.54 2.477,13.21 -5.215,22.35 -17.848,26.43 l 3.922,20.92 c 24.086,-6.8 36.606,-26.66 32.094,-50.75 -5.703,-30.42 -31.762,-44.05 -60.117,-38.74 -29.176,5.46 -48.5354,27.61 -42.8362,58.03 4.0508,21.61 20.1172,37.4 43.3122,35.77 l -3.918,-20.93" /><path
         id="path20"
         style="fill:#231f20;fill-opacity:1;fill-rule:nonzero;stroke:none"
         d="m 159.418,1145.93 7.605,22.86 c 3.102,9.31 0.797,15.69 -8.773,18.87 -9.172,3.05 -14.84,-0.67 -17.937,-9.97 l -7.61,-22.86 z m -49.879,-6.57 17.035,51.17 c 5.664,17.01 21.078,23.84 35.43,19.06 11.168,-3.72 18.031,-11.02 18.789,-22.94 l 0.27,-0.09 c 6.066,9.35 17.007,8.96 26.796,6.44 6.114,-1.6 17.231,-5.45 23.789,-3.5 l -6.949,-20.86 c -6.82,-0.54 -15.902,2.79 -23.832,4.24 -10.453,1.86 -16.125,-0.53 -19.621,-11.04 l -6.945,-20.86 37.078,-12.35 -6.945,-20.86 -94.895,31.59" /><path
         id="path22"
         style="fill:#231f20;fill-opacity:1;fill-rule:nonzero;stroke:none"
         d="m 241.68,1247.67 c 8.773,17.69 -2.977,31.8 -17.903,39.21 -15.679,7.78 -34.027,8.6 -42.808,-9.08 -8.778,-17.69 2.972,-31.8 18.652,-39.59 14.93,-7.41 33.277,-8.23 42.059,9.46 z m -77.27,38.35 c 13.762,27.72 42.551,33.75 69.145,20.55 25.832,-12.82 38.433,-39.4 24.675,-67.12 -13.753,-27.72 -42.542,-33.75 -68.382,-20.93 -26.594,13.2 -39.196,39.78 -25.438,67.5" /><path
         id="path24"
         style="fill:#231f20;fill-opacity:1;fill-rule:nonzero;stroke:none"
         d="m 201.039,1347.78 11.664,18.64 84.762,-53.06 -11.664,-18.64 -84.762,53.06" /><path
         id="path26"
         style="fill:#231f20;fill-opacity:1;fill-rule:nonzero;stroke:none"
         d="m 279.387,1379.45 -57.414,3.05 15.382,20.34 37.301,-3.64 -13.207,35.47 14.535,19.21 18.731,-54.4 62.711,-3.73 -15.809,-20.88 -40.773,3.45 14.144,-38.64 -14.961,-19.77 -20.64,59.54" /><path
         id="path28"
         style="fill:#231f20;fill-opacity:1;fill-rule:nonzero;stroke:none"
         d="m 326.688,1429.78 28.613,30.96 12.551,-11.6 -28.618,-30.95 -12.546,11.59" /><path
         id="path30"
         style="fill:#231f20;fill-opacity:1;fill-rule:nonzero;stroke:none"
         d="m 379.609,1495.51 18.055,15.93 c 7.348,6.49 8.559,13.16 1.891,20.72 -6.387,7.24 -13.157,6.87 -20.508,0.39 l -18.059,-15.94 z m -46.398,19.37 40.414,35.66 c 13.438,11.85 30.188,10.01 40.191,-1.32 7.778,-8.82 10.043,-18.59 4.715,-29.26 l 0.184,-0.21 c 9.937,5.03 19.191,-0.81 26.387,-7.9 4.48,-4.45 12.156,-13.36 18.8,-14.96 l -16.476,-14.54 c -6.168,2.96 -12.344,10.39 -18.469,15.63 -8.098,6.86 -14.199,7.63 -22.492,0.32 l -16.481,-14.55 25.84,-29.29 -16.484,-14.53 -66.129,74.95" /><path
         id="path32"
         style="fill:#231f20;fill-opacity:1;fill-rule:nonzero;stroke:none"
         d="m 501.859,1542.23 c 16.457,10.91 13.364,29.02 4.161,42.91 -9.672,14.59 -25.141,24.5 -41.602,13.59 -16.461,-10.91 -13.359,-29.02 -3.691,-43.61 9.203,-13.89 24.675,-23.8 41.132,-12.89 z m -47.652,71.91 c 25.797,17.09 53.734,7.89 70.137,-16.86 15.937,-24.05 13.523,-53.36 -12.27,-70.46 -25.797,-17.1 -53.734,-7.89 -69.672,16.16 -16.402,24.74 -13.996,54.06 11.805,71.16" /><path
         id="path34"
         style="fill:#231f20;fill-opacity:1;fill-rule:nonzero;stroke:none"
         d="m 622.629,1632.04 c 11.633,-24.39 2.898,-43.14 -21.234,-54.65 -24.258,-11.57 -44.012,-6.57 -55.707,17.94 l -26.762,56.1 19.836,9.46 26.758,-56.1 c 4.703,-9.85 11.871,-18.38 27.918,-10.72 14.148,6.75 15.746,15.11 9.355,28.5 l -26.762,56.1 19.836,9.46 26.762,-56.09" /><path
         id="path36"
         style="fill:#231f20;fill-opacity:1;fill-rule:nonzero;stroke:none"
         d="m 718.898,1636.36 c -4.339,-11.81 -12.812,-18.46 -22.023,-21.38 -29.508,-9.34 -53.84,7.2 -62.547,34.7 -8.961,28.31 1.422,55.84 30.93,65.18 19.492,6.16 41.722,-0.02 50.84,-20.93 l -20.032,-6.34 c -5.742,9.79 -15.351,12.77 -25.226,9.64 -18.828,-5.96 -20.832,-24.22 -15.547,-40.91 5.027,-15.89 17.176,-29.67 36,-23.71 13.617,4.31 19.168,14.15 16.191,27.75 l -21.097,-6.68 -4.946,15.62 40.055,12.68 16.317,-51.54 -13.352,-4.23 -5.563,10.15" /><path
         id="path38"
         style="fill:#231f20;fill-opacity:1;fill-rule:nonzero;stroke:none"
         d="m 734.855,1731.71 73.583,13.04 3.218,-18.19 -51.945,-9.2 3.734,-21.08 47.676,8.44 2.981,-16.81 -47.676,-8.45 4.269,-24.1 53.055,9.39 3.223,-18.18 -74.684,-13.24 -17.434,98.38" /><path
         id="path40"
         style="fill:#231f20;fill-opacity:1;fill-rule:nonzero;stroke:none"
         d="m 943.891,1716.76 c -1.243,9.95 -10.625,17.66 -21.543,17.84 -19.727,0.33 -27.422,-16.35 -27.707,-33.83 -0.274,-16.66 6.871,-33.57 26.597,-33.89 13.434,-0.22 21.137,8.89 23.032,22.01 l 21.269,-0.34 c -2.644,-24.87 -20.117,-40.54 -44.601,-40.14 -30.926,0.5 -48.739,23.89 -48.262,52.72 0.48,29.66 19.051,52.45 49.972,51.94 21.965,-0.36 40.227,-13.53 42.512,-36.67 l -21.269,0.36" /><path
         id="path42"
         style="fill:#231f20;fill-opacity:1;fill-rule:nonzero;stroke:none"
         d="m 1007.2,1684.23 25.66,-3.46 -7.56,38.02 -0.29,0.04 z m 10.3,60.47 22.34,-3.02 23.63,-104.04 -22.62,3.06 -4.5,23.07 -37.03,5.01 -10.754,-21 -22.05,2.98 50.984,93.94" /><path
         id="path44"
         style="fill:#231f20;fill-opacity:1;fill-rule:nonzero;stroke:none"
         d="m 1096.49,1732.89 29.7,-8.59 3.34,-72.5 0.28,-0.08 40.34,59.85 29.71,-8.6 -27.78,-95.98 -19.76,5.72 19.69,68.02 -0.27,0.08 -43.21,-61.21 -16.27,4.7 -4.03,74.16 -0.27,0.08 -19.5,-67.34 -19.76,5.71 27.79,95.98" /><path
         id="path46"
         style="fill:#231f20;fill-opacity:1;fill-rule:nonzero;stroke:none"
         d="m 1228.12,1691.09 68.04,-30.97 -7.66,-16.82 -48.04,21.86 -8.87,-19.49 44.09,-20.06 -7.07,-15.55 -44.1,20.07 -10.14,-22.3 49.05,-22.32 -7.65,-16.83 -69.06,31.43 41.41,90.98" /><path
         id="path48"
         style="fill:#231f20;fill-opacity:1;fill-rule:nonzero;stroke:none"
         d="m 1313.61,1598.32 20.48,-12.63 c 8.35,-5.14 15.08,-4.35 20.37,4.23 5.06,8.23 2.73,14.59 -5.61,19.72 l -20.5,12.63 z m 4.99,50.01 45.88,-28.26 c 15.25,-9.39 18.37,-25.94 10.44,-38.81 -6.16,-10.01 -14.83,-15.02 -26.6,-13.04 l -0.14,-0.24 c 7.7,-8.03 4.82,-18.58 0.13,-27.53 -2.95,-5.58 -9.22,-15.52 -8.82,-22.34 l -18.72,11.52 c 1.04,6.76 6.34,14.83 9.57,22.21 4.2,9.75 3.17,15.81 -6.25,21.61 l -18.71,11.52 -20.47,-33.25 -18.72,11.53 52.41,85.08" /><path
         id="path50"
         style="fill:#231f20;fill-opacity:1;fill-rule:nonzero;stroke:none"
         d="m 1394.03,1494.95 c 15.23,-12.56 31.65,-4.32 42.25,8.54 11.14,13.5 16.11,31.19 0.87,43.76 -15.23,12.56 -31.65,4.32 -42.79,-9.19 -10.6,-12.85 -15.57,-30.54 -0.33,-43.11 z m 54.89,66.55 c 23.88,-19.69 23.21,-49.1 4.33,-72 -18.36,-22.26 -47.11,-28.5 -70.99,-8.8 -23.88,19.69 -23.21,49.1 -4.85,71.35 18.88,22.9 47.63,29.15 71.51,9.45" /><path
         id="path52"
         style="fill:#231f20;fill-opacity:1;fill-rule:nonzero;stroke:none"
         d="m 1515.06,1405.82 c -19.91,-18.26 -40.39,-15.39 -58.46,4.31 -18.16,19.8 -19.17,40.16 0.84,58.51 l 45.81,42.01 14.85,-16.2 -45.8,-42 c -8.05,-7.38 -14.09,-16.73 -2.08,-29.83 10.59,-11.55 19.05,-10.63 29.99,-0.6 l 45.8,42 14.85,-16.2 -45.8,-42" /><path
         id="path54"
         style="fill:#231f20;fill-opacity:1;fill-rule:nonzero;stroke:none"
         d="m 1579.12,1425.04 12.45,-17.95 -31.33,-72.51 0.16,-0.23 55.11,38.23 11.73,-16.92 -82.14,-56.98 -12.53,18.07 31.29,72.32 -0.16,0.23 -55,-38.16 -11.72,16.92 82.14,56.98" /><path
         id="path56"
         style="fill:#231f20;fill-opacity:1;fill-rule:nonzero;stroke:none"
         d="m 1599.16,1280.08 11.89,-23.01 26.79,28.02 -0.12,0.25 z m 55.43,26.27 10.34,-20.02 -71.64,-79.07 -10.46,20.27 16.29,16.93 -17.14,33.2 -23.37,-3.25 -10.22,19.77 106.2,12.17" /><path
         id="path58"
         style="fill:#231f20;fill-opacity:1;fill-rule:nonzero;stroke:none"
         d="m 1687.05,1238.09 8.27,-20.36 -92.61,-37.59 -8.26,20.36 92.6,37.59" /><path
         id="path60"
         style="fill:#231f20;fill-opacity:1;fill-rule:nonzero;stroke:none"
         d="m 1645.67,1159.5 c -12.71,-3.9 -14.62,-15.32 -11.17,-26.56 2.25,-7.36 7.84,-17.95 17.6,-14.95 10.32,3.16 7.66,18.01 7.09,33.21 -0.59,15.34 0.5,31.34 18.43,36.84 19.54,5.99 34.57,-9.61 39.86,-26.86 6.12,-19.95 3.04,-40.95 -19.04,-47.72 l -6.24,20.34 c 11.31,4.2 11.75,13.27 8.67,23.3 -2.05,6.7 -7.24,13.6 -15.27,11.13 -7.36,-2.26 -6.91,-7.09 -5.71,-32.93 0.4,-7.5 2.54,-30.26 -19.13,-36.91 -17.53,-5.38 -34.88,4.38 -42.84,30.34 -6.48,21.15 -2.13,44.15 21.52,51.11 l 6.23,-20.34" /><path
         id="path62"
         style="fill:#231f20;fill-opacity:1;fill-rule:nonzero;stroke:none"
         d="m 1732.73,1097.38 13.11,-73.58 -18.18,-3.24 -9.27,51.95 -21.08,-3.76 8.5,-47.68 -16.8,-3 -8.51,47.68 -24.11,-4.3 9.45,-53.05 -18.18,-3.24 -13.31,74.68 98.38,17.54" /><path
         id="path64"
         style="fill:#231f20;fill-opacity:1;fill-rule:nonzero;stroke:none"
         d="m 265.617,505.512 c 7.848,6.269 9.512,18.308 3.957,27.718 -10.051,17 -28.293,14.829 -43.359,5.918 -14.348,-8.468 -25.035,-23.41 -14.985,-40.418 6.84,-11.57 18.641,-13.378 30.829,-8.121 l 10.832,-18.32 c -22.594,-10.75 -45.106,-4.051 -57.575,17.039 -15.75,26.641 -5.125,54.07 19.711,68.754 25.559,15.109 54.707,11.188 70.457,-15.453 11.188,-18.93 9.504,-41.391 -9.031,-55.438 l -10.836,18.321" /><path
         id="path66"
         style="fill:#231f20;fill-opacity:1;fill-rule:nonzero;stroke:none"
         d="m 278.941,438.039 15.926,-20.43 21.196,32.493 -0.172,0.218 z m 49.68,36.043 13.859,-17.793 -55.906,-90.937 -14.023,18.007 12.918,19.653 -22.981,29.488 -22.383,-7.5 -13.679,17.57 102.195,31.512" /><path
         id="path68"
         style="fill:#231f20;fill-opacity:1;fill-rule:nonzero;stroke:none"
         d="m 367.375,424.16 22.289,-21.48 -30.879,-65.75 0.203,-0.2 63.66,34.161 22.293,-21.469 -69.402,-72.024 -14.828,14.282 49.184,51.039 -0.2,0.191 -66.836,-34.019 -12.203,11.757 31.047,67.551 -0.199,0.192 -48.699,-50.539 -14.828,14.289 69.398,72.019" /><path
         id="path70"
         style="fill:#231f20;fill-opacity:1;fill-rule:nonzero;stroke:none"
         d="m 456.426,341.441 60.535,-43.921 -10.856,-14.969 -42.742,31.008 -12.586,-17.348 39.231,-28.449 -10.035,-13.832 -39.227,28.461 -14.391,-19.852 43.649,-31.66 -10.856,-14.969 -61.449,44.578 58.727,80.953" /><path
         id="path72"
         style="fill:#231f20;fill-opacity:1;fill-rule:nonzero;stroke:none"
         d="m 523.82,241.059 21.075,-11.618 c 8.582,-4.742 15.265,-3.632 20.128,5.188 4.668,8.461 2.036,14.699 -6.539,19.441 l -21.074,11.621 z m 2.598,50.191 47.176,-26.02 c 15.683,-8.66 19.594,-25.031 12.289,-38.261 -5.676,-10.297 -14.102,-15.731 -25.942,-14.297 l -0.136,-0.25 c 8.078,-7.652 5.707,-18.34 1.453,-27.492 -2.676,-5.719 -8.477,-15.942 -7.75,-22.739 l -19.238,10.618 c 0.718,6.793 5.625,15.113 8.496,22.64 3.726,9.93 2.402,15.942 -7.282,21.27 l -19.23,10.621 -18.863,-34.18 -19.239,10.602 48.266,87.488" /><path
         id="path74"
         style="fill:#231f20;fill-opacity:1;fill-rule:nonzero;stroke:none"
         d="m 622.25,151.238 c 18.41,-7.097 31.383,5.91 37.371,21.461 6.297,16.332 5.414,34.672 -13.004,41.77 -18.418,7.101 -31.379,-5.91 -37.676,-22.239 -5.988,-15.539 -5.109,-33.89 13.309,-40.992 z m 31.016,80.461 c 28.867,-11.121 37.539,-39.219 26.863,-66.91 -10.375,-26.91 -35.664,-41.918 -64.531,-30.777 -28.864,11.117 -37.532,39.226 -27.16,66.129 10.671,27.679 35.96,42.691 64.828,31.558" /><path
         id="path76"
         style="fill:#231f20;fill-opacity:1;fill-rule:nonzero;stroke:none"
         d="m 732.305,117.488 c 19.23,-4.429 30.23,10.282 33.972,26.512 3.93,17.059 0.473,35.082 -18.757,39.52 -19.235,4.429 -30.243,-10.282 -34.168,-27.329 -3.739,-16.23 -0.282,-34.261 18.953,-38.703 z m 19.359,84.043 c 30.152,-6.949 42.695,-33.551 36.035,-62.461 -6.476,-28.109 -29.398,-46.5309 -59.547,-39.5817 -30.144,6.9527 -42.695,33.5427 -36.214,61.6527 6.66,28.91 29.578,47.328 59.726,40.39" /><path
         id="path78"
         style="fill:#231f20;fill-opacity:1;fill-rule:nonzero;stroke:none"
         d="m 808.781,187.129 21.758,-1.918 35.641,-70.492 0.277,-0.02 5.926,66.801 20.496,-1.82 -8.824,-99.5784 -21.895,1.9375 -35.512,70.3519 -0.285,0.019 -5.902,-66.6717 -20.5,1.8203 8.82,99.5704" /><path
         id="path80"
         style="fill:#231f20;fill-opacity:1;fill-rule:nonzero;stroke:none"
         d="m 965.617,136.648 23.985,2.102 c 9.765,0.859 14.698,5.512 13.818,15.551 -0.84,9.629 -6.502,13.34 -16.268,12.488 l -23.984,-2.098 z m -25.84,43.141 53.692,4.699 c 17.851,1.563 30.231,-9.859 31.551,-24.929 1.03,-11.707 -2.95,-20.911 -13.57,-26.329 l 0.03,-0.289 c 10.97,-1.839 14.96,-12.043 16.54,-22.019 0.97,-6.242 1.85,-17.9728 6.24,-23.2032 l -21.89,-1.918 c -3.2,6.0508 -3.76,15.6992 -5.58,23.5512 -2.44,10.32 -6.895,14.57 -17.911,13.597 l -21.895,-1.91 3.411,-38.9101 -21.907,-1.918 -8.711,99.5781" /><path
         id="path82"
         style="fill:#231f20;fill-opacity:1;fill-rule:nonzero;stroke:none"
         d="m 1035.4,189.359 73.09,15.731 3.89,-18.07 -51.61,-11.098 4.52,-20.953 47.35,10.203 3.59,-16.703 -47.35,-10.199 5.15,-23.942 52.69,11.344 3.9,-18.07 -74.19,-15.9731 -21.03,97.7301" /><path
         id="path84"
         style="fill:#231f20;fill-opacity:1;fill-rule:nonzero;stroke:none"
         d="m 1167.31,138.398 18.48,6.512 c 12.02,4.238 20.89,15.68 13.54,36.539 -6.71,19 -17.59,28.821 -38.17,21.563 l -14.79,-5.211 z m -47.8,69.512 40.65,14.34 c 24.41,8.602 48.16,-0.238 59.19,-31.512 9.64,-27.328 2.81,-52.578 -25.97,-62.726 l -40.64,-14.34 -33.23,94.238" /><path
         id="path86"
         style="fill:#231f20;fill-opacity:1;fill-rule:nonzero;stroke:none"
         d="m 1319.91,261.441 c -6.18,7.918 -18.21,9.719 -27.66,4.258 -17.11,-9.859 -15.16,-28.109 -6.42,-43.277 8.32,-14.434 23.14,-25.293 40.24,-15.434 11.65,6.703 13.58,18.492 8.46,30.731 l 18.45,10.621 c 10.5,-22.711 3.55,-45.129 -17.68,-57.36 -26.81,-15.449 -54.12,-4.519 -68.51,20.469 -14.81,25.723 -10.58,54.821 16.23,70.262 19.04,10.98 41.49,9.039 55.32,-9.652 l -18.43,-10.618" /><path
         id="path88"
         style="fill:#231f20;fill-opacity:1;fill-rule:nonzero;stroke:none"
         d="m 1375.52,285.16 19.1,14.672 c 7.78,5.957 9.45,12.539 3.3,20.527 -5.89,7.672 -12.66,7.77 -20.44,1.789 l -19.11,-14.668 z m -44.99,22.481 42.76,32.839 c 14.22,10.918 30.81,7.942 40.02,-4.05 7.17,-9.34 8.76,-19.231 2.72,-29.52 l 0.16,-0.23 c 10.27,4.351 19.11,-2.11 25.81,-9.68 4.17,-4.738 11.23,-14.16 17.75,-16.219 l -17.44,-13.383 c -5.96,3.372 -11.61,11.211 -17.37,16.864 -7.62,7.386 -13.66,8.578 -22.43,1.847 l -17.44,-13.39 23.8,-31 -17.44,-13.387 -60.9,79.309" /><path
         id="path90"
         style="fill:#231f20;fill-opacity:1;fill-rule:nonzero;stroke:none"
         d="m 1497.09,339.109 c 13.92,14.02 7.23,31.129 -4.59,42.879 -12.42,12.34 -29.57,18.922 -43.48,4.91 -13.93,-14.007 -7.24,-31.117 5.17,-43.457 11.83,-11.75 28.98,-18.332 42.9,-4.332 z m -61.19,60.821 c 21.82,21.961 51.05,18.582 72.1,-2.348 20.46,-20.344 24.02,-49.543 2.2,-71.492 -21.82,-21.961 -51.04,-18.578 -71.51,1.75 -21.05,20.93 -24.6,50.14 -2.79,72.09" /><path
         id="path92"
         style="fill:#231f20;fill-opacity:1;fill-rule:nonzero;stroke:none"
         d="m 1540.43,412.609 c 10.55,-8.089 20.96,-3.019 28.12,6.321 4.68,6.101 10.06,16.8 1.94,23.019 -8.55,6.551 -19.1,-4.23 -31.15,-13.508 -12.14,-9.39 -25.8,-17.781 -40.69,-6.382 -16.22,12.429 -12.24,33.722 -1.26,48.062 12.68,16.539 31.57,26.231 49.9,12.18 l -12.94,-16.891 c -9.98,6.77 -17.62,1.871 -24.01,-6.461 -4.25,-5.558 -6.86,-13.777 -0.19,-18.89 6.1,-4.688 9.77,-1.5 30.13,14.461 5.88,4.671 23.16,19.628 41.16,5.839 14.55,-11.148 16.67,-30.929 0.15,-52.488 -13.45,-17.551 -34.72,-27.351 -54.11,-12.141 l 12.95,16.879" /><path
         id="path94"
         style="fill:#231f20;fill-opacity:1;fill-rule:nonzero;stroke:none"
         d="m 1595.12,488.941 c 11.43,-6.812 21.18,-0.57 27.21,9.528 3.94,6.621 8.04,17.863 -0.74,23.101 -9.25,5.52 -18.49,-6.41 -29.39,-17.031 -10.97,-10.738 -23.57,-20.66 -39.68,-11.051 -17.56,10.473 -16.07,32.082 -6.82,47.602 10.68,17.91 28.32,29.719 48.16,17.89 l -10.9,-18.269 c -10.7,5.559 -17.72,-0.199 -23.09,-9.211 -3.6,-6.02 -5.23,-14.5 1.99,-18.801 6.61,-3.949 9.89,-0.359 28.26,17.86 5.29,5.32 20.73,22.203 40.22,10.582 15.75,-9.403 20.14,-28.809 6.23,-52.129 -11.33,-19.012 -31.33,-31.203 -52.35,-18.34 l 10.9,18.269" /><path
         id="path96"
         style="fill:#ed1c24;fill-opacity:1;fill-rule:nonzero;stroke:none"
         d="m 1477.24,1108.99 h -367.57 v 367.58 H 722.406 V 1108.99 H 354.828 V 721.73 H 722.406 V 354.148 H 1109.67 V 721.73 h 367.57 v 387.26" /></g></g></svg>