<?xml version="1.0" encoding="UTF-8" standalone="no"?>
<!-- Created with Inkscape (http://www.inkscape.org/) -->

<svg
   version="1.1"
   id="svg1"
   width="690.82288"
   height="212.14267"
   viewBox="0 0 690.82286 212.14267"
   sodipodi:docname="Monaco RC.svg"
   inkscape:version="1.3.2 (091e20e, 2023-11-25, custom)"
   xmlns:inkscape="http://www.inkscape.org/namespaces/inkscape"
   xmlns:sodipodi="http://sodipodi.sourceforge.net/DTD/sodipodi-0.dtd"
   xmlns="http://www.w3.org/2000/svg"
   xmlns:svg="http://www.w3.org/2000/svg">
  <defs
     id="defs1" />
  <sodipodi:namedview
     id="namedview1"
     pagecolor="#ffffff"
     bordercolor="#666666"
     borderopacity="1.0"
     inkscape:showpageshadow="2"
     inkscape:pageopacity="0.0"
     inkscape:pagecheckerboard="0"
     inkscape:deskcolor="#d1d1d1"
     inkscape:zoom="0.83294727"
     inkscape:cx="353.5638"
     inkscape:cy="115.85367"
     inkscape:window-width="1920"
     inkscape:window-height="1017"
     inkscape:window-x="-8"
     inkscape:window-y="-8"
     inkscape:window-maximized="1"
     inkscape:current-layer="g1">
    <inkscape:page
       x="0"
       y="0"
       inkscape:label="1"
       id="page1"
       width="690.82288"
       height="212.14267"
       margin="0"
       bleed="0" />
  </sodipodi:namedview>
  <g
     id="g1"
     inkscape:groupmode="layer"
     inkscape:label="1"
     transform="translate(-207.63735,-281.40933)">
    <g
       id="group-MC1">
      <path
         id="path2"
         d="m 0,0 h -49.818 v 49.679 h -50.29 V 0 h -49.818 v -47.457 h 49.818 v -49.679 h 50.29 v 49.679 H 0 V 0"
         style="fill:#ed1c24;fill-opacity:1;fill-rule:nonzero;stroke:none"
         transform="matrix(1.3333333,0,0,-1.3333333,407.53867,347.648)" />
      <path
         id="path3"
         d="m 0,0 8.184,-2.595 c -1.255,-4.563 -3.341,-7.952 -6.259,-10.166 -2.919,-2.215 -6.621,-3.322 -11.107,-3.322 -5.551,0 -10.114,1.896 -13.688,5.688 -3.574,3.793 -5.36,8.978 -5.36,15.556 0,6.958 1.796,12.361 5.389,16.211 3.593,3.85 8.317,5.774 14.172,5.774 5.114,0 9.268,-1.511 12.461,-4.533 1.901,-1.787 3.327,-4.354 4.278,-7.699 l -8.355,-1.997 c -0.495,2.167 -1.526,3.878 -3.094,5.133 -1.569,1.255 -3.475,1.882 -5.718,1.882 -3.098,0 -5.612,-1.112 -7.542,-3.336 -1.93,-2.224 -2.894,-5.827 -2.894,-10.807 0,-5.286 0.95,-9.05 2.851,-11.293 1.901,-2.243 4.372,-3.364 7.414,-3.364 2.243,0 4.173,0.713 5.789,2.138 C -1.863,-5.304 -0.704,-3.061 0,0"
         style="fill:#231f20;fill-opacity:1;fill-rule:nonzero;stroke:none"
         transform="matrix(1.3333333,0,0,-1.3333333,472.876,388.836)" />
      <path
         id="path4"
         d="m 0,0 h -8.013 v 30.284 h 7.443 v -4.306 c 1.273,2.034 2.419,3.374 3.436,4.021 1.017,0.646 2.172,0.969 3.465,0.969 1.825,0 3.583,-0.504 5.275,-1.511 L 9.125,22.47 C 7.775,23.345 6.521,23.782 5.361,23.782 4.239,23.782 3.289,23.473 2.51,22.855 1.73,22.237 1.117,21.12 0.67,19.505 0.224,17.889 0,14.505 0,9.353 V 0"
         style="fill:#231f20;fill-opacity:1;fill-rule:nonzero;stroke:none"
         transform="matrix(1.3333333,0,0,-1.3333333,503.752,409.32933)" />
      <path
         id="path5"
         d="m 0,0 c 0,-3.004 0.713,-5.304 2.139,-6.9 1.425,-1.597 3.184,-2.396 5.275,-2.396 2.091,0 3.845,0.799 5.261,2.396 1.416,1.596 2.125,3.916 2.125,6.957 0,2.966 -0.709,5.247 -2.125,6.844 C 11.259,8.498 9.505,9.296 7.414,9.296 5.323,9.296 3.564,8.498 2.139,6.901 0.713,5.304 0,3.004 0,0 m -8.212,0.428 c 0,2.661 0.655,5.237 1.967,7.728 1.312,2.49 3.17,4.391 5.575,5.703 2.404,1.311 5.09,1.967 8.056,1.967 4.581,0 8.336,-1.487 11.263,-4.462 2.928,-2.976 4.392,-6.735 4.392,-11.278 0,-4.582 -1.479,-8.379 -4.435,-11.393 -2.956,-3.012 -6.677,-4.519 -11.164,-4.519 -2.775,0 -5.422,0.628 -7.941,1.882 -2.519,1.255 -4.434,3.094 -5.746,5.518 -1.312,2.424 -1.967,5.375 -1.967,8.854"
         style="fill:#231f20;fill-opacity:1;fill-rule:nonzero;stroke:none"
         transform="matrix(1.3333333,0,0,-1.3333333,532.46133,389.14)" />
      <path
         id="path6"
         d="M 0,0 H 8.014 V -30.284 H 0 Z M 0,11.52 H 8.014 V 4.106 H 0 Z"
         style="fill:#231f20;fill-opacity:1;fill-rule:nonzero;stroke:none"
         transform="matrix(1.3333333,0,0,-1.3333333,571.70133,368.95067)" />
      <path
         id="path7"
         d="M 0,0 10.922,15.598 0.457,30.284 h 9.78 l 5.362,-8.327 5.645,8.327 h 9.41 L 20.389,15.94 31.596,0 H 21.758 L 15.599,9.382 9.382,0 H 0"
         style="fill:#231f20;fill-opacity:1;fill-rule:nonzero;stroke:none"
         transform="matrix(1.3333333,0,0,-1.3333333,588.35867,409.32933)" />
      <path
         id="path8"
         d="m 476.804,299.429 h 15.74 v 8.0129 h -15.74 z"
         style="fill:#231f20;fill-opacity:1;fill-rule:nonzero;stroke:none"
         transform="matrix(1.3333333,0,0,-1.3333333,0,793.70133)" />
      <path
         id="path9"
         d="m 0,0 h 6.245 c 4.049,0 6.577,0.171 7.585,0.514 1.008,0.341 1.797,0.931 2.367,1.767 0.571,0.837 0.856,1.883 0.856,3.137 0,1.407 -0.376,2.542 -1.127,3.408 -0.751,0.864 -1.811,1.411 -3.179,1.639 -0.684,0.096 -2.738,0.143 -6.16,0.143 L 0,10.608 Z M -8.44,-24.124 V 17.68 H 9.325 c 4.467,0 7.713,-0.376 9.737,-1.126 2.026,-0.752 3.646,-2.087 4.863,-4.007 1.217,-1.92 1.825,-4.116 1.825,-6.587 0,-3.137 -0.923,-5.727 -2.767,-7.771 -1.843,-2.043 -4.6,-3.332 -8.269,-3.863 1.825,-1.065 3.332,-2.234 4.52,-3.508 1.188,-1.274 2.789,-3.536 4.805,-6.787 l 5.105,-8.155 H 19.049 l -6.103,9.097 c -2.167,3.25 -3.65,5.298 -4.448,6.145 -0.799,0.845 -1.644,1.425 -2.538,1.739 -0.894,0.314 -2.31,0.471 -4.249,0.471 H 0 v -17.452 h -8.44"
         style="fill:#231f20;fill-opacity:1;fill-rule:nonzero;stroke:none"
         transform="matrix(1.3333333,0,0,-1.3333333,674.408,377.164)" />
      <path
         id="path10"
         d="m 0,0 c 0,-3.004 0.713,-5.304 2.139,-6.9 1.425,-1.597 3.183,-2.396 5.275,-2.396 2.091,0 3.845,0.799 5.261,2.396 1.416,1.596 2.125,3.916 2.125,6.957 0,2.966 -0.709,5.247 -2.125,6.844 C 11.259,8.498 9.505,9.296 7.414,9.296 5.322,9.296 3.564,8.498 2.139,6.901 0.713,5.304 0,3.004 0,0 m -8.213,0.428 c 0,2.661 0.656,5.237 1.968,7.728 1.311,2.49 3.17,4.391 5.575,5.703 2.404,1.311 5.09,1.967 8.056,1.967 4.581,0 8.336,-1.487 11.263,-4.462 2.927,-2.976 4.392,-6.735 4.392,-11.278 0,-4.582 -1.479,-8.379 -4.435,-11.393 -2.956,-3.012 -6.677,-4.519 -11.164,-4.519 -2.775,0 -5.422,0.628 -7.941,1.882 -2.52,1.255 -4.435,3.094 -5.746,5.518 -1.312,2.424 -1.968,5.375 -1.968,8.854"
         style="fill:#231f20;fill-opacity:1;fill-rule:nonzero;stroke:none"
         transform="matrix(1.3333333,0,0,-1.3333333,727.908,389.14)" />
      <path
         id="path11"
         d="M 0,0 V 4.534 C -1.103,2.918 -2.552,1.645 -4.349,0.713 c -1.796,-0.932 -3.692,-1.398 -5.688,-1.398 -2.034,0 -3.859,0.448 -5.476,1.341 -1.615,0.893 -2.785,2.148 -3.507,3.764 -0.722,1.615 -1.084,3.85 -1.084,6.701 v 19.163 h 8.013 V 16.368 c 0,-4.259 0.148,-6.868 0.443,-7.827 0.294,-0.961 0.831,-1.722 1.611,-2.282 0.779,-0.561 1.767,-0.841 2.966,-0.841 1.368,0 2.594,0.375 3.677,1.126 1.084,0.751 1.826,1.683 2.225,2.795 0.399,1.112 0.599,3.835 0.599,8.17 V 30.284 H 7.442 V 0 H 0"
         style="fill:#231f20;fill-opacity:1;fill-rule:nonzero;stroke:none"
         transform="matrix(1.3333333,0,0,-1.3333333,793.72533,409.32933)" />
      <path
         id="path12"
         d="m 0,0 c 0,-3.213 0.623,-5.565 1.868,-7.058 1.245,-1.492 2.78,-2.238 4.606,-2.238 1.958,0 3.611,0.765 4.962,2.296 1.349,1.53 2.024,3.796 2.024,6.8 0,3.137 -0.647,5.466 -1.939,6.987 C 10.228,8.308 8.593,9.068 6.616,9.068 4.695,9.068 3.113,8.322 1.868,6.83 0.623,5.337 0,3.061 0,0 m -7.157,-17.765 9.153,-1.112 c 0.152,-1.065 0.504,-1.796 1.056,-2.196 0.76,-0.57 1.958,-0.855 3.593,-0.855 2.09,0 3.659,0.313 4.705,0.94 0.703,0.419 1.235,1.094 1.596,2.026 0.247,0.665 0.371,1.891 0.371,3.677 v 4.42 c -2.395,-3.269 -5.418,-4.904 -9.068,-4.904 -4.068,0 -7.29,1.721 -9.667,5.161 -1.863,2.719 -2.794,6.103 -2.794,10.152 0,5.076 1.221,8.954 3.664,11.634 2.443,2.681 5.48,4.021 9.11,4.021 3.746,0 6.834,-1.645 9.268,-4.933 v 4.249 h 7.5 v -27.176 c 0,-3.574 -0.295,-6.245 -0.884,-8.012 -0.59,-1.769 -1.417,-3.157 -2.481,-4.164 -1.065,-1.007 -2.486,-1.796 -4.263,-2.367 -1.777,-0.57 -4.025,-0.855 -6.744,-0.855 -5.133,0 -8.773,0.879 -10.921,2.638 -2.148,1.758 -3.223,3.987 -3.223,6.686 0,0.267 0.01,0.59 0.029,0.97"
         style="fill:#231f20;fill-opacity:1;fill-rule:nonzero;stroke:none"
         transform="matrix(1.3333333,0,0,-1.3333333,823.42267,388.304)" />
      <path
         id="path13"
         d="M 0,0 C -0.058,2.319 -0.656,4.082 -1.797,5.29 -2.938,6.497 -4.325,7.1 -5.96,7.1 -7.709,7.1 -9.154,6.463 -10.295,5.19 -11.436,3.916 -11.996,2.186 -11.977,0 Z m -0.457,-8.099 7.984,-1.34 c -1.026,-2.928 -2.647,-5.156 -4.861,-6.686 -2.215,-1.531 -4.986,-2.296 -8.312,-2.296 -5.266,0 -9.164,1.72 -11.692,5.161 -1.996,2.757 -2.994,6.235 -2.994,10.437 0,5.019 1.311,8.949 3.936,11.791 2.623,2.842 5.94,4.263 9.951,4.263 4.506,0 8.06,-1.487 10.665,-4.462 C 6.824,5.793 8.069,1.235 7.955,-4.905 h -20.074 c 0.056,-2.376 0.703,-4.225 1.938,-5.547 1.236,-1.321 2.776,-1.981 4.62,-1.981 1.254,0 2.31,0.343 3.165,1.026 0.856,0.685 1.501,1.787 1.939,3.308"
         style="fill:#231f20;fill-opacity:1;fill-rule:nonzero;stroke:none"
         transform="matrix(1.3333333,0,0,-1.3333333,886.58,385.68)" />
      <path
         id="path14"
         d="m 0,0 h 7.386 v -4.135 c 2.642,3.213 5.788,4.82 9.438,4.82 1.94,0 3.622,-0.4 5.048,-1.198 1.425,-0.799 2.595,-2.006 3.507,-3.622 1.33,1.616 2.766,2.823 4.306,3.622 1.54,0.798 3.184,1.198 4.933,1.198 2.224,0 4.107,-0.452 5.646,-1.355 1.54,-0.903 2.69,-2.228 3.451,-3.977 0.551,-1.293 0.827,-3.384 0.827,-6.274 v -19.362 h -8.013 v 17.308 c 0,3.004 -0.276,4.944 -0.827,5.818 -0.742,1.14 -1.882,1.711 -3.422,1.711 -1.122,0 -2.177,-0.342 -3.165,-1.027 -0.989,-0.684 -1.702,-1.687 -2.139,-3.008 -0.437,-1.322 -0.656,-3.408 -0.656,-6.259 v -14.543 h -8.013 v 16.595 c 0,2.948 -0.142,4.848 -0.428,5.704 -0.285,0.855 -0.727,1.492 -1.325,1.911 -0.599,0.418 -1.412,0.627 -2.439,0.627 -1.236,0 -2.347,-0.333 -3.336,-0.998 C 9.791,-7.109 9.083,-8.069 8.655,-9.324 8.227,-10.579 8.013,-12.66 8.013,-15.569 V -30.283 H 0 V 0"
         style="fill:#231f20;fill-opacity:1;fill-rule:nonzero;stroke:none"
         transform="matrix(1.3333333,0,0,-1.3333333,436.59067,436.788)" />
      <path
         id="path15"
         d="m 0,0 c 0,-3.004 0.713,-5.304 2.139,-6.9 1.425,-1.597 3.184,-2.396 5.275,-2.396 2.091,0 3.845,0.799 5.261,2.396 1.416,1.596 2.125,3.916 2.125,6.958 0,2.964 -0.709,5.246 -2.125,6.843 C 11.259,8.498 9.505,9.296 7.414,9.296 5.323,9.296 3.564,8.498 2.139,6.901 0.713,5.304 0,3.004 0,0 m -8.212,0.428 c 0,2.661 0.655,5.237 1.967,7.727 1.312,2.491 3.17,4.392 5.575,5.703 2.404,1.313 5.09,1.968 8.056,1.968 4.581,0 8.336,-1.487 11.263,-4.463 2.928,-2.974 4.392,-6.734 4.392,-11.277 0,-4.582 -1.479,-8.379 -4.435,-11.393 -2.956,-3.012 -6.677,-4.519 -11.164,-4.519 -2.775,0 -5.422,0.628 -7.941,1.882 -2.519,1.255 -4.434,3.094 -5.746,5.518 -1.312,2.424 -1.967,5.375 -1.967,8.854"
         style="fill:#231f20;fill-opacity:1;fill-rule:nonzero;stroke:none"
         transform="matrix(1.3333333,0,0,-1.3333333,513.936,456.976)" />
      <path
         id="path16"
         d="m 0,0 h -8.014 v 15.455 c 0,3.27 -0.171,5.385 -0.512,6.345 -0.343,0.96 -0.899,1.706 -1.668,2.239 -0.771,0.531 -1.698,0.798 -2.781,0.798 -1.388,0 -2.633,-0.38 -3.736,-1.141 -1.102,-0.76 -1.858,-1.767 -2.267,-3.022 -0.409,-1.255 -0.613,-3.574 -0.613,-6.958 V 0 h -8.013 v 30.283 h 7.443 v -4.448 c 2.642,3.422 5.97,5.133 9.98,5.133 1.769,0 3.384,-0.319 4.848,-0.955 1.464,-0.637 2.571,-1.451 3.322,-2.439 0.751,-0.988 1.274,-2.109 1.569,-3.364 C -0.147,22.955 0,21.158 0,18.82 V 0"
         style="fill:#231f20;fill-opacity:1;fill-rule:nonzero;stroke:none"
         transform="matrix(1.3333333,0,0,-1.3333333,588.58133,477.16533)" />
      <path
         id="path17"
         d="m 0,0 3.935,8.526 h 8.982 L 5.075,0 Z m 10.237,-16.254 c -0.057,2.319 -0.656,4.083 -1.797,5.29 -1.14,1.207 -2.528,1.811 -4.163,1.811 -1.749,0 -3.194,-0.637 -4.335,-1.91 -1.14,-1.275 -1.701,-3.004 -1.681,-5.191 z m -0.457,-8.098 7.985,-1.34 c -1.027,-2.928 -2.648,-5.157 -4.862,-6.687 -2.215,-1.53 -4.986,-2.296 -8.312,-2.296 -5.266,0 -9.163,1.721 -11.692,5.161 -1.996,2.757 -2.994,6.236 -2.994,10.438 0,5.018 1.312,8.948 3.936,11.791 2.623,2.842 5.94,4.263 9.951,4.263 4.506,0 8.061,-1.488 10.665,-4.463 2.605,-2.975 3.85,-7.533 3.735,-13.673 H -1.882 c 0.057,-2.377 0.703,-4.226 1.939,-5.546 1.235,-1.322 2.775,-1.983 4.62,-1.983 1.254,0 2.309,0.343 3.165,1.027 0.855,0.684 1.501,1.787 1.938,3.308"
         style="fill:#231f20;fill-opacity:1;fill-rule:nonzero;stroke:none"
         transform="matrix(1.3333333,0,0,-1.3333333,608.59067,431.844)" />
      <path
         id="path18"
         d="m 0,0 c 0,-3.213 0.623,-5.565 1.868,-7.058 1.245,-1.493 2.78,-2.239 4.606,-2.239 1.958,0 3.611,0.766 4.962,2.296 1.349,1.53 2.024,3.797 2.024,6.801 0,3.137 -0.647,5.466 -1.939,6.986 C 10.228,8.307 8.593,9.067 6.616,9.067 4.695,9.067 3.113,8.321 1.868,6.829 0.623,5.337 0,3.061 0,0 m -7.157,-17.766 9.153,-1.112 c 0.152,-1.064 0.504,-1.796 1.056,-2.195 0.76,-0.571 1.958,-0.856 3.593,-0.856 2.09,0 3.659,0.314 4.705,0.941 0.703,0.419 1.235,1.093 1.596,2.025 0.247,0.665 0.371,1.892 0.371,3.678 v 4.42 c -2.395,-3.27 -5.418,-4.905 -9.068,-4.905 -4.068,0 -7.29,1.721 -9.667,5.162 -1.863,2.718 -2.794,6.102 -2.794,10.151 0,5.076 1.221,8.954 3.664,11.635 2.443,2.68 5.48,4.02 9.11,4.02 3.746,0 6.834,-1.644 9.268,-4.932 v 4.248 h 7.5 v -27.175 c 0,-3.574 -0.295,-6.245 -0.884,-8.013 -0.59,-1.768 -1.417,-3.156 -2.481,-4.164 -1.065,-1.007 -2.486,-1.796 -4.263,-2.366 -1.777,-0.57 -4.025,-0.856 -6.744,-0.856 -5.133,0 -8.773,0.879 -10.921,2.638 -2.148,1.759 -3.223,3.987 -3.223,6.687 0,0.266 0.01,0.589 0.029,0.969"
         style="fill:#231f20;fill-opacity:1;fill-rule:nonzero;stroke:none"
         transform="matrix(1.3333333,0,0,-1.3333333,648.94267,456.13867)" />
      <path
         id="path19"
         d="m 0,0 c -1.027,-0.342 -2.652,-0.751 -4.877,-1.227 -2.224,-0.474 -3.678,-0.94 -4.362,-1.396 -1.046,-0.742 -1.569,-1.683 -1.569,-2.823 0,-1.122 0.418,-2.092 1.255,-2.909 0.836,-0.818 1.901,-1.226 3.194,-1.226 1.444,0 2.823,0.475 4.134,1.426 0.97,0.721 1.607,1.606 1.911,2.651 C -0.105,-4.819 0,-3.518 0,-1.597 Z m -10.723,6.502 -7.271,1.311 c 0.817,2.927 2.224,5.095 4.221,6.501 1.996,1.408 4.961,2.111 8.896,2.111 3.574,0 6.235,-0.423 7.984,-1.269 C 4.856,14.31 6.088,13.235 6.801,11.934 7.514,10.632 7.87,8.241 7.87,4.762 L 7.784,-4.591 c 0,-2.662 0.129,-4.625 0.385,-5.888 0.257,-1.265 0.737,-2.62 1.44,-4.064 H 1.682 c -0.209,0.532 -0.466,1.321 -0.77,2.367 -0.133,0.475 -0.228,0.788 -0.285,0.941 -1.369,-1.331 -2.833,-2.329 -4.392,-2.994 -1.558,-0.666 -3.221,-0.999 -4.99,-0.999 -3.118,0 -5.574,0.846 -7.371,2.539 -1.797,1.691 -2.694,3.83 -2.694,6.416 0,1.711 0.408,3.236 1.225,4.577 0.818,1.34 1.963,2.366 3.437,3.079 1.472,0.713 3.597,1.336 6.373,1.868 3.745,0.703 6.34,1.358 7.785,1.968 v 0.798 c 0,1.54 -0.381,2.637 -1.141,3.294 -0.76,0.655 -2.196,0.983 -4.306,0.983 -1.426,0 -2.537,-0.28 -3.336,-0.841 -0.799,-0.561 -1.446,-1.545 -1.94,-2.951"
         style="fill:#231f20;fill-opacity:1;fill-rule:nonzero;stroke:none"
         transform="matrix(1.3333333,0,0,-1.3333333,709.06533,457.77467)" />
      <path
         id="path20"
         d="m 0,0 8.041,1.226 c 0.342,-1.559 1.036,-2.743 2.082,-3.55 1.045,-0.809 2.509,-1.212 4.391,-1.212 2.072,0 3.631,0.38 4.676,1.14 0.704,0.533 1.056,1.246 1.056,2.139 0,0.609 -0.19,1.112 -0.57,1.511 -0.4,0.381 -1.293,0.732 -2.681,1.056 -6.464,1.425 -10.56,2.727 -12.29,3.906 -2.395,1.635 -3.594,3.907 -3.594,6.815 0,2.623 1.036,4.828 3.109,6.615 2.072,1.788 5.285,2.681 9.638,2.681 4.144,0 7.224,-0.675 9.24,-2.024 2.014,-1.35 3.402,-3.346 4.163,-5.989 l -7.557,-1.397 c -0.323,1.179 -0.936,2.082 -1.84,2.709 -0.902,0.628 -2.19,0.941 -3.863,0.941 -2.11,0 -3.622,-0.295 -4.534,-0.883 -0.609,-0.419 -0.912,-0.961 -0.912,-1.626 0,-0.571 0.265,-1.055 0.798,-1.454 0.722,-0.533 3.217,-1.284 7.485,-2.253 4.267,-0.97 7.248,-2.158 8.939,-3.565 1.673,-1.426 2.51,-3.412 2.51,-5.96 0,-2.775 -1.16,-5.161 -3.478,-7.157 -2.321,-1.996 -5.751,-2.994 -10.295,-2.994 -4.125,0 -7.39,0.837 -9.795,2.51 C 2.313,-5.143 0.741,-2.871 0,0"
         style="fill:#231f20;fill-opacity:1;fill-rule:nonzero;stroke:none"
         transform="matrix(1.3333333,0,0,-1.3333333,725.15733,465.644)" />
      <path
         id="path21"
         d="m 0,0 c 0,3.099 -0.632,5.403 -1.896,6.915 -1.265,1.511 -2.847,2.267 -4.749,2.267 -1.938,0 -3.559,-0.77 -4.861,-2.31 -1.303,-1.54 -1.953,-3.982 -1.953,-7.328 0,-3.327 0.627,-5.728 1.882,-7.2 1.255,-1.474 2.804,-2.21 4.647,-2.21 1.844,0 3.46,0.826 4.848,2.48 C -0.694,-5.731 0,-3.271 0,0 m -0.257,-27.033 v 15.227 c -1.046,-1.349 -2.347,-2.419 -3.906,-3.208 -1.56,-0.789 -3.241,-1.183 -5.048,-1.183 -3.44,0 -6.273,1.293 -8.497,3.878 -2.624,3.023 -3.936,7.119 -3.936,12.291 0,4.866 1.231,8.663 3.694,11.391 2.461,2.728 5.517,4.092 9.167,4.092 2.015,0 3.76,-0.428 5.233,-1.283 1.473,-0.856 2.78,-2.149 3.921,-3.878 v 4.477 h 7.385 v -41.804 h -8.013"
         style="fill:#231f20;fill-opacity:1;fill-rule:nonzero;stroke:none"
         transform="matrix(1.3333333,0,0,-1.3333333,797.78933,456.48133)" />
      <path
         id="path22"
         d="M 0,0 V 4.534 C -1.103,2.918 -2.552,1.645 -4.349,0.713 c -1.796,-0.932 -3.692,-1.398 -5.688,-1.398 -2.034,0 -3.859,0.448 -5.476,1.341 -1.615,0.893 -2.785,2.148 -3.507,3.764 -0.722,1.615 -1.084,3.85 -1.084,6.701 v 19.162 h 8.013 V 16.368 c 0,-4.259 0.148,-6.868 0.443,-7.828 0.294,-0.96 0.831,-1.721 1.611,-2.281 0.779,-0.561 1.767,-0.841 2.966,-0.841 1.368,0 2.594,0.375 3.677,1.126 1.084,0.751 1.826,1.683 2.225,2.795 0.399,1.112 0.599,3.835 0.599,8.17 V 30.283 H 7.442 V 0 H 0"
         style="fill:#231f20;fill-opacity:1;fill-rule:nonzero;stroke:none"
         transform="matrix(1.3333333,0,0,-1.3333333,844.032,477.16533)" />
      <path
         id="path23"
         d="M 0,0 C -0.058,2.319 -0.656,4.083 -1.797,5.29 -2.938,6.497 -4.325,7.101 -5.96,7.101 -7.709,7.101 -9.154,6.464 -10.295,5.19 -11.436,3.916 -11.996,2.187 -11.977,0 Z m -0.457,-8.098 7.984,-1.34 c -1.026,-2.928 -2.647,-5.157 -4.861,-6.687 -2.215,-1.53 -4.986,-2.296 -8.312,-2.296 -5.266,0 -9.164,1.721 -11.692,5.161 -1.996,2.757 -2.994,6.236 -2.994,10.438 0,5.018 1.311,8.948 3.936,11.791 2.623,2.842 5.94,4.262 9.951,4.262 4.506,0 8.06,-1.487 10.665,-4.462 C 6.824,5.794 8.069,1.236 7.955,-4.904 h -20.074 c 0.056,-2.377 0.703,-4.226 1.938,-5.546 1.236,-1.322 2.776,-1.983 4.62,-1.983 1.254,0 2.31,0.343 3.165,1.027 0.856,0.684 1.501,1.787 1.939,3.308"
         style="fill:#231f20;fill-opacity:1;fill-rule:nonzero;stroke:none"
         transform="matrix(1.3333333,0,0,-1.3333333,887.844,453.516)" />
    </g>
  </g>
</svg>
