<?xml version="1.0" encoding="UTF-8" standalone="no"?>
<!-- Created with Inkscape (http://www.inkscape.org/) -->

<svg
   version="1.1"
   id="svg1"
   width="549.29865"
   height="549.29865"
   viewBox="0 0 549.29865 549.29865"
   sodipodi:docname="Fiji RC.svg"
   inkscape:version="1.3.2 (091e20e, 2023-11-25, custom)"
   xmlns:inkscape="http://www.inkscape.org/namespaces/inkscape"
   xmlns:sodipodi="http://sodipodi.sourceforge.net/DTD/sodipodi-0.dtd"
   xmlns="http://www.w3.org/2000/svg"
   xmlns:svg="http://www.w3.org/2000/svg">
  <defs
     id="defs1">
    <clipPath
       clipPathUnits="userSpaceOnUse"
       id="clipPath3">
      <path
         d="M 0.059998,411.96 H 411.974 V 0 H 0.059998 Z"
         transform="translate(0,-205.98701)"
         id="path3" />
    </clipPath>
  </defs>
  <sodipodi:namedview
     id="namedview1"
     pagecolor="#ffffff"
     bordercolor="#666666"
     borderopacity="1.0"
     inkscape:showpageshadow="2"
     inkscape:pageopacity="0.0"
     inkscape:pagecheckerboard="0"
     inkscape:deskcolor="#d1d1d1"
     inkscape:export-bgcolor="#ffffffff"
     inkscape:zoom="1.4946332"
     inkscape:cx="274.64932"
     inkscape:cy="274.64932"
     inkscape:window-width="1920"
     inkscape:window-height="1017"
     inkscape:window-x="-8"
     inkscape:window-y="-8"
     inkscape:window-maximized="1"
     inkscape:current-layer="g1">
    <inkscape:page
       x="0"
       y="0"
       inkscape:label="1"
       id="page1"
       width="549.29865"
       height="549.29865"
       margin="0"
       bleed="0"
       inkscape:export-filename="Fiji RC.png"
       inkscape:export-xdpi="300"
       inkscape:export-ydpi="300" />
  </sodipodi:namedview>
  <g
     id="g1"
     inkscape:groupmode="layer"
     inkscape:label="1">
    <g
       id="group-MC1">
      <path
         id="path2"
         d="M 0,0 C 0,113.764 92.223,205.987 205.987,205.987 319.75,205.987 411.974,113.764 411.974,0 411.974,-113.763 319.75,-205.987 205.987,-205.987 92.223,-205.987 0,-113.763 0,0"
         style="fill:#079ae1;fill-opacity:1;fill-rule:nonzero;stroke:none"
         transform="matrix(1.3333333,0,0,-1.3333333,0,274.64933)"
         clip-path="url(#clipPath3)" />
      <path
         id="path4"
         d="m 0,0 31.11,7.865 2.228,-8.812 -20.109,-5.084 2.183,-8.635 17.388,4.396 2.154,-8.516 -17.389,-4.397 4.113,-16.264 L 10.677,-42.229 0,0"
         style="fill:#ffffff;fill-opacity:1;fill-rule:nonzero;stroke:none"
         transform="matrix(1.3333333,0,0,-1.3333333,192.27733,29.558667)" />
      <path
         id="path5"
         d="M 0,0 11.321,0.764 14.252,-42.695 2.931,-43.459 0,0"
         style="fill:#ffffff;fill-opacity:1;fill-rule:nonzero;stroke:none"
         transform="matrix(1.3333333,0,0,-1.3333333,249.47867,18.002667)" />
      <path
         id="path6"
         d="m 0,0 c -1.043,-9.705 -6.544,-14.083 -16.735,-12.988 -11.462,1.231 -14.453,8.239 -13.417,17.884 l 0.203,1.879 10.614,-1.139 -0.43,-4.004 c -0.306,-2.851 1.101,-4.597 3.891,-4.897 2.608,-0.28 4.221,1.02 4.67,5.204 L -8.103,30.811 3.179,29.599 0,0"
         style="fill:#ffffff;fill-opacity:1;fill-rule:nonzero;stroke:none"
         transform="matrix(1.3333333,0,0,-1.3333333,316.95467,59.864)" />
      <path
         id="path7"
         d="M 0,0 10.89,-3.187 -1.345,-44.991 -12.235,-41.804 0,0"
         style="fill:#ffffff;fill-opacity:1;fill-rule:nonzero;stroke:none"
         transform="matrix(1.3333333,0,0,-1.3333333,339.852,25.110667)" />
      <path
         id="path8"
         d="m 0,0 0.308,-7.481 c 0.109,-2.686 1.607,-4.066 4.197,-3.959 2.542,0.104 3.61,2.166 3.508,4.659 L 7.722,0.316 Z m 14.501,9.53 0.717,-17.457 c 0.248,-6.042 -2.242,-12.101 -9.148,-12.385 -3.693,-0.151 -7.266,1.48 -8.805,5.019 l -0.096,-0.004 c -0.714,-3.68 -4.747,-4.902 -7.996,-5.324 -1.435,-0.154 -6.465,-0.505 -7.662,-1.756 l -0.363,8.825 c 1.12,0.815 4.471,1.096 5.426,1.232 3.444,0.38 6.969,1.102 6.798,5.274 l -0.278,6.763 -12.469,-0.512 -0.366,8.92 34.242,1.405"
         style="fill:#ffffff;fill-opacity:1;fill-rule:nonzero;stroke:none"
         transform="matrix(1.3333333,0,0,-1.3333333,48.729333,277.00133)" />
      <path
         id="path9"
         d="m 0,0 7.024,-26.393 -6.912,-1.84 -4.727,17.767 -5.799,-1.543 4.32,-16.236 -6.679,-1.777 -4.321,16.235 -6.308,-1.679 4.851,-18.23 -7.422,-1.976 L -33.12,-8.813 0,0"
         style="fill:#ffffff;fill-opacity:1;fill-rule:nonzero;stroke:none"
         transform="matrix(1.3333333,0,0,-1.3333333,70.996,310.524)" />
      <path
         id="path10"
         d="m 0,0 1.976,-3.733 c 3.294,-5.914 6.885,-7.054 12.952,-3.842 5.514,2.92 6.614,7.305 3.761,12.691 L 16.713,8.85 Z M 19.322,20.333 26.218,7.311 c 4.919,-9.29 2.219,-17.834 -7.155,-22.798 -9.926,-5.256 -18.258,-2.444 -23.132,6.761 l -6.896,13.022 30.287,16.037"
         style="fill:#ffffff;fill-opacity:1;fill-rule:nonzero;stroke:none"
         transform="matrix(1.3333333,0,0,-1.3333333,57.262667,380.12667)" />
      <path
         id="path11"
         d="m 0,0 c 2.03,2.837 1.336,6.011 -1.38,8.587 -4.179,3.965 -9.282,1.793 -12.784,-1.898 -3.502,-3.691 -5.401,-8.902 -1.223,-12.866 3.03,-2.874 6.422,-2.785 9.374,-0.161 l 6.478,-6.144 c -6.427,-6.077 -14.695,-5.377 -20.998,0.602 -7.522,7.135 -6.945,17.506 -0.108,24.713 6.839,7.208 17.164,8.329 24.686,1.193 C 9.407,8.939 11.984,0.01 6.477,-6.144 L 0,0"
         style="fill:#ffffff;fill-opacity:1;fill-rule:nonzero;stroke:none"
         transform="matrix(1.3333333,0,0,-1.3333333,129.05733,442.952)" />
      <path
         id="path12"
         d="m 0,0 6.401,-3.885 c 2.298,-1.395 4.276,-0.91 5.621,1.306 1.319,2.173 0.194,4.205 -1.939,5.5 L 4.009,6.606 Z M 0.088,17.351 15.024,8.287 c 5.17,-3.138 8.838,-8.565 5.252,-14.473 -1.917,-3.159 -5.253,-5.233 -9.053,-4.556 l -0.05,-0.082 c 2.67,-2.63 1.456,-6.666 0.009,-9.605 -0.665,-1.281 -3.156,-5.664 -2.778,-7.354 l -7.55,4.582 c -0.059,1.383 1.562,4.331 1.978,5.201 1.587,3.079 2.937,6.414 -0.632,8.581 l -5.785,3.51 -6.475,-10.667 -7.632,4.631 17.78,29.296"
         style="fill:#ffffff;fill-opacity:1;fill-rule:nonzero;stroke:none"
         transform="matrix(1.3333333,0,0,-1.3333333,151.584,464.15333)" />
      <path
         id="path13"
         d="m 0,0 c 5.456,-1.848 9.18,2.264 10.813,7.084 1.632,4.82 1.172,10.348 -4.285,12.195 C 1.072,21.127 -2.652,17.016 -4.284,12.195 -5.916,7.375 -5.457,1.848 0,0 Z M 8.992,26.555 C 19.223,23.091 22.457,13.633 19.27,4.22 16.083,-5.192 7.768,-10.74 -2.464,-7.275 c -10.23,3.464 -13.464,12.922 -10.278,22.334 3.188,9.413 11.502,14.96 21.734,11.496"
         style="fill:#ffffff;fill-opacity:1;fill-rule:nonzero;stroke:none"
         transform="matrix(1.3333333,0,0,-1.3333333,196.87067,504.28533)" />
      <path
         id="path14"
         d="m 0,0 c -0.279,-4.027 2.048,-5.605 5.814,-6.047 2.67,-0.314 5.547,0.315 5.843,2.841 0.353,3.003 -4.442,4.147 -9.19,6.106 -4.699,1.953 -9.542,4.745 -8.809,10.99 0.874,7.436 8.7,9.465 15.087,8.714 6.769,-0.795 13.199,-4.885 12.345,-12.566 l -8.866,1.042 c 0.507,3.083 -2.283,4.424 -5,4.744 C 5.317,16.048 2.855,15.661 2.592,13.42 2.283,10.798 7.138,9.745 11.933,7.78 16.68,5.821 21.368,2.951 20.647,-3.199 19.633,-11.827 11.967,-13.729 4.484,-12.85 -3.335,-11.931 -9.843,-7.687 -8.866,1.041 L 0,0"
         style="fill:#ffffff;fill-opacity:1;fill-rule:nonzero;stroke:none"
         transform="matrix(1.3333333,0,0,-1.3333333,238.92933,508.41733)" />
      <path
         id="path15"
         d="m 0,0 c 0.542,-4 3.141,-5.075 6.919,-4.746 2.678,0.234 5.368,1.432 5.147,3.966 C 11.805,2.233 6.877,2.382 1.83,3.34 -3.168,4.302 -8.477,6.056 -9.022,12.321 c -0.651,7.46 6.603,11.031 13.011,11.589 6.79,0.591 13.917,-2.113 14.635,-9.808 L 9.73,13.328 C 9.602,16.449 6.598,17.199 3.871,16.961 1.959,16.794 -0.374,15.916 -0.178,13.669 0.051,11.039 5.018,10.99 10.112,10.037 15.158,9.079 20.332,7.216 20.869,1.047 21.623,-7.608 14.5,-11.023 6.992,-11.677 -0.85,-12.361 -8.084,-9.521 -8.893,-0.774 L 0,0"
         style="fill:#ffffff;fill-opacity:1;fill-rule:nonzero;stroke:none"
         transform="matrix(1.3333333,0,0,-1.3333333,287.496,510.75467)" />
      <path
         id="path16"
         d="m 0,0 c 1.69,-3.667 4.49,-3.934 8.006,-2.512 2.493,1.007 4.714,2.94 3.761,5.3 C 10.634,5.591 5.878,4.291 0.771,3.729 -4.29,3.184 -9.88,3.307 -12.237,9.138 c -2.807,6.944 3.084,12.483 9.049,14.894 6.32,2.554 13.926,2.055 16.867,-5.093 L 5.4,15.593 c -1.035,2.948 -4.129,2.784 -6.666,1.759 -1.78,-0.72 -3.754,-2.242 -2.908,-4.334 0.99,-2.448 5.753,-1.04 10.904,-0.46 5.107,0.563 10.599,0.297 12.92,-5.445 C 22.906,-0.943 17.095,-6.295 10.107,-9.12 2.808,-12.07 -4.942,-11.474 -8.278,-3.347 L 0,0"
         style="fill:#ffffff;fill-opacity:1;fill-rule:nonzero;stroke:none"
         transform="matrix(1.3333333,0,0,-1.3333333,355.75733,496.81067)" />
      <path
         id="path17"
         d="M 0,0 C 4.775,3.22 3.76,8.673 0.916,12.892 -1.93,17.11 -6.605,20.093 -11.381,16.873 -16.156,13.652 -15.142,8.199 -12.297,3.981 -9.451,-0.238 -4.775,-3.221 0,0 Z m -15.676,23.24 c 8.955,6.039 18.438,2.882 23.993,-5.356 5.556,-8.238 4.931,-18.213 -4.023,-24.252 -8.954,-6.039 -18.437,-2.881 -23.992,5.357 -5.556,8.237 -4.931,18.212 4.022,24.251"
         style="fill:#ffffff;fill-opacity:1;fill-rule:nonzero;stroke:none"
         transform="matrix(1.3333333,0,0,-1.3333333,409.99867,475.756)" />
      <path
         id="path18"
         d="m 0,0 c -2.846,2.02 -6.017,1.312 -8.582,-1.415 -3.949,-4.194 -1.756,-9.29 1.949,-12.777 3.705,-3.487 8.925,-5.366 12.873,-1.171 2.861,3.041 2.758,6.434 0.122,9.376 l 6.119,6.502 c 6.104,-6.402 5.438,-14.675 -0.517,-21.002 -7.106,-7.551 -17.48,-7.017 -24.716,-0.207 -7.237,6.809 -8.399,17.132 -1.293,24.683 5.066,5.383 13.986,7.998 20.164,2.513 L 0,0"
         style="fill:#ffffff;fill-opacity:1;fill-rule:nonzero;stroke:none"
         transform="matrix(1.3333333,0,0,-1.3333333,443.52,419.57333)" />
      <path
         id="path19"
         d="M 0,0 4.986,7.404 33.411,-11.738 28.424,-19.142 0,0"
         style="fill:#ffffff;fill-opacity:1;fill-rule:nonzero;stroke:none"
         transform="matrix(1.3333333,0,0,-1.3333333,442.29333,394.512)" />
      <path
         id="path20"
         d="m 0,0 11.678,24.692 6.465,-3.057 -7.86,-16.622 5.424,-2.565 7.184,15.189 6.249,-2.956 -7.183,-15.188 5.901,-2.791 8.066,17.055 6.943,-3.285 L 30.984,-14.654 0,0"
         style="fill:#ffffff;fill-opacity:1;fill-rule:nonzero;stroke:none"
         transform="matrix(1.3333333,0,0,-1.3333333,453.33733,378.716)" />
      <path
         id="path21"
         d="m 0,0 -2.367,-9.946 25.868,-6.154 -2.066,-8.685 -25.867,6.154 -2.367,-9.946 -7.471,1.778 L -7.471,1.777 0,0"
         style="fill:#ffffff;fill-opacity:1;fill-rule:nonzero;stroke:none"
         transform="matrix(1.3333333,0,0,-1.3333333,489.528,305.86533)" />
      <path
         id="path22"
         d="m 0,0 12.762,-0.39 -0.273,-8.923 -12.761,0.39 -21.873,-11.816 0.309,10.122 L -7.715,-4.23 -21.42,3.008 -21.111,13.13 0,0"
         style="fill:#ffffff;fill-opacity:1;fill-rule:nonzero;stroke:none"
         transform="matrix(1.3333333,0,0,-1.3333333,509.368,275.992)" />
      <path
         id="path23"
         d="m 0,0 c 0,76.076 61.672,137.748 137.748,137.748 76.076,0 137.748,-61.672 137.748,-137.748 0,-76.076 -61.672,-137.748 -137.748,-137.748 C 61.672,-137.748 0,-76.076 0,0"
         style="fill:#ffffff;fill-opacity:1;fill-rule:nonzero;stroke:none"
         transform="matrix(1.3333333,0,0,-1.3333333,90.985333,274.64933)" />
      <path
         id="path24"
         d="m 0,0 h -71.972 v 71.973 h -71.194 V 0 h -71.973 v -71.194 h 71.973 v -71.972 h 71.194 v 71.972 H 0 V 0"
         style="fill:#ed1c24;fill-opacity:1;fill-rule:nonzero;stroke:none"
         transform="matrix(1.3333333,0,0,-1.3333333,418.07467,227.18667)" />
    </g>
  </g>
</svg>
