<?xml version="1.0" encoding="UTF-8" standalone="no"?>
<!-- Created with Inkscape (http://www.inkscape.org/) -->

<svg
   version="1.1"
   id="svg1"
   width="543.02264"
   height="453.96933"
   viewBox="0 0 543.02264 453.96933"
   sodipodi:docname="Thai Red Cross.svg"
   inkscape:version="1.3.2 (091e20e, 2023-11-25, custom)"
   xmlns:inkscape="http://www.inkscape.org/namespaces/inkscape"
   xmlns:sodipodi="http://sodipodi.sourceforge.net/DTD/sodipodi-0.dtd"
   xmlns="http://www.w3.org/2000/svg"
   xmlns:svg="http://www.w3.org/2000/svg">
  <defs
     id="defs1">
    <clipPath
       clipPathUnits="userSpaceOnUse"
       id="clipPath3">
      <path
         d="M 0,340.44 H 407.267 V 0 H 0 Z"
         transform="translate(-302.09201,-275.64601)"
         id="path3" />
    </clipPath>
    <clipPath
       clipPathUnits="userSpaceOnUse"
       id="clipPath26">
      <path
         d="M 0,340.44 H 407.267 V 0 H 0 Z"
         transform="translate(-388.64101,-22.740003)"
         id="path26" />
    </clipPath>
  </defs>
  <sodipodi:namedview
     id="namedview1"
     pagecolor="#ffffff"
     bordercolor="#666666"
     borderopacity="1.0"
     inkscape:showpageshadow="2"
     inkscape:pageopacity="0.0"
     inkscape:pagecheckerboard="0"
     inkscape:deskcolor="#d1d1d1"
     inkscape:export-bgcolor="#ffffffff"
     inkscape:zoom="1.7218435"
     inkscape:cx="271.51132"
     inkscape:cy="226.79181"
     inkscape:window-width="1920"
     inkscape:window-height="1017"
     inkscape:window-x="-8"
     inkscape:window-y="-8"
     inkscape:window-maximized="1"
     inkscape:current-layer="g1">
    <inkscape:page
       x="0"
       y="0"
       inkscape:label="1"
       id="page1"
       width="543.02264"
       height="453.96933"
       margin="0"
       bleed="0"
       inkscape:export-filename="Thai Red Cross.png"
       inkscape:export-xdpi="300"
       inkscape:export-ydpi="300" />
  </sodipodi:namedview>
  <g
     id="g1"
     inkscape:groupmode="layer"
     inkscape:label="1">
    <g
       id="group-MC1">
      <path
         id="path2"
         d="m 0,0 h -64.824 v 64.831 h -70.702 V 0 h -64.83 v -70.71 h 64.83 v -64.82 h 70.702 v 64.82 L 0,-70.71 V 0"
         style="fill:#ed1c24;fill-opacity:1;fill-rule:nonzero;stroke:none"
         transform="matrix(1.3333333,0,0,-1.3333333,402.78933,86.441333)"
         clip-path="url(#clipPath3)" />
      <path
         id="path4"
         d="M 0,0 V 2.163 H 19.519 V 0 H 11.59 V -22.981 H 7.9791 L 7.9791,0 H 0"
         style="fill:#870e12;fill-opacity:1;fill-rule:nonzero;stroke:none"
         transform="matrix(1.3333333,0,0,-1.3333333,1.7132,416.95467)" />
      <path
         id="path5"
         d="m 0,0 h -2.109 v 12.832 c 0,2.546 -1.552,3.673 -3.937,3.624 -3.777,-0.065 -5.068,-2.111 -5.068,-2.111 V 0 h -3.066 v 25.144 h 3.066 v -8.753 c 0.051,0 2.212,1.676 5.777,1.617 C -1.246,17.96 0,15.378 0,13.43 V 0"
         style="fill:#870e12;fill-opacity:1;fill-rule:nonzero;stroke:none"
         transform="matrix(1.3333333,0,0,-1.3333333,49.876,447.596)" />
      <path
         id="path6"
         d="m 0,0 h 11.103 c 0.063,0 0.489,3.99 -0.538,6.354 -0.964,2.275 -2.749,3.512 -6.301,3.512 -4.7,0 -7.441,-2.914 -7.391,-9.762 0.052,-5.816 2.803,-8.139 7.166,-8.466 3.725,-0.214 6.263,1.302 6.313,1.46 l 0.598,2.639 c 0,0 -1.886,-2.536 -5.876,-2.586 C -0.862,-6.952 -0.061,0 0,0 Z m 4.639,8.578 c 5.339,0 4.477,-7.011 4.425,-7.011 L 0,1.567 c 0,0 -0.812,7.011 4.639,7.011"
         style="fill:#870e12;fill-opacity:1;fill-rule:nonzero;stroke:none"
         transform="matrix(1.3333333,0,0,-1.3333333,57.984,436.66133)" />
      <path
         id="path7"
         d="M 0,0 V 2.163 H 19.53 V 0 H 11.591 V -22.981 H 7.988 L 7.988,0 H 0"
         style="fill:#870e12;fill-opacity:1;fill-rule:nonzero;stroke:none"
         transform="matrix(1.3333333,0,0,-1.3333333,87.877333,416.95467)" />
      <path
         id="path8"
         d="m 0,0 h -2.103 v 12.832 c 0,2.546 -1.561,3.673 -3.936,3.624 -3.778,-0.065 -5.075,-2.111 -5.075,-2.111 V 0 h -3.068 v 25.144 h 3.068 v -8.753 c 0.059,0 2.21,1.676 5.785,1.617 C -1.241,17.96 0,15.378 0,13.43 V 0"
         style="fill:#870e12;fill-opacity:1;fill-rule:nonzero;stroke:none"
         transform="matrix(1.3333333,0,0,-1.3333333,136.044,447.596)" />
      <path
         id="path9"
         d="m 0,0 h 3.076 v 12.832 c 0,2.701 -1.835,5.286 -7.176,5.235 -4.416,-0.107 -6.101,-1.938 -6.101,-1.988 l -0.586,-2.649 c 0,0 2.211,2.911 6.414,2.911 3.674,0 4.649,-1.724 4.322,-3.338 -0.332,-1.847 -3.509,-2.323 -5.825,-2.86 -2.7,-0.601 -5.239,-1.675 -5.39,-5.289 -0.161,-4.149 3.513,-5.015 4.954,-5.015 2.588,0 4.914,0.49 6.312,2.265 z M 0,5.018 C 0,3.766 -1.624,2.044 -3.885,1.675 -6.14,1.352 -8.73,1.903 -8.84,4.478 c -0.112,2.91 2.589,3.665 4.74,3.99 3.401,0.587 3.99,1.675 4.1,1.675 V 5.018"
         style="fill:#870e12;fill-opacity:1;fill-rule:nonzero;stroke:none"
         transform="matrix(1.3333333,0,0,-1.3333333,155.29867,447.596)" />
      <path
         id="path10"
         d="M 0,0 H 3.075 V 17.96 H 0 Z m 1.573,23.359 c -2.65,0 -2.65,-4 0,-4 2.64,0 2.64,4 0,4"
         style="fill:#870e12;fill-opacity:1;fill-rule:nonzero;stroke:none"
         transform="matrix(1.3333333,0,0,-1.3333333,164.62533,447.596)" />
      <path
         id="path11"
         d="m 0,0 c -0.051,5.489 -3.716,6.637 -8.413,6.637 h -10.832 v -25.144 h 3.613 V -4.976 L -4.04,-18.507 H 0.324 L -9.756,-7.238 C -9.705,-7.238 0.062,-8.804 0,0 Z m -3.178,0.047 c 0.051,-3.827 -1.836,-5.023 -4.473,-5.023 h -7.981 v 9.45 h 8.414 c 2.325,0 3.93,-1.512 4.04,-4.427"
         style="fill:#870e12;fill-opacity:1;fill-rule:nonzero;stroke:none"
         transform="matrix(1.3333333,0,0,-1.3333333,213.50667,422.92)" />
      <path
         id="path12"
         d="m 0,0 h 11.105 c 0.059,0 0.487,3.99 -0.538,6.354 -0.976,2.275 -2.753,3.512 -6.313,3.512 -4.689,0 -7.429,-2.914 -7.39,-9.762 0.061,-5.816 2.812,-8.139 7.174,-8.466 3.726,-0.214 6.264,1.302 6.314,1.46 l 0.601,2.639 c 0,0 -1.898,-2.536 -5.888,-2.586 C -0.864,-6.952 -0.06,0 0,0 Z m 4.628,8.578 c 5.348,0 4.487,-7.011 4.427,-7.011 L 0,1.567 c 0,0 -0.812,7.011 4.628,7.011"
         style="fill:#870e12;fill-opacity:1;fill-rule:nonzero;stroke:none"
         transform="matrix(1.3333333,0,0,-1.3333333,221.34133,436.66133)" />
      <path
         id="path13"
         d="m 0,0 h -3.075 v -8.414 c -0.05,0.049 -1.663,1.23 -5.113,1.278 -3.128,0.059 -6.741,-1.013 -6.903,-8.792 -0.214,-8.615 4.202,-9.326 7.216,-9.326 2.872,0 4.8,1.188 4.8,1.188 v -1.078 H 0 Z m -3.075,-22.178 c 0,-0.047 -1.713,-1.717 -4.193,-1.667 -3.349,0.053 -5.722,1.24 -5.611,8.089 0.112,4.846 1.45,7.28 5.226,7.228 3.139,-0.06 4.578,-1.674 4.578,-1.725 v -11.925"
         style="fill:#870e12;fill-opacity:1;fill-rule:nonzero;stroke:none"
         transform="matrix(1.3333333,0,0,-1.3333333,259.42267,414.07067)" />
      <path
         id="path14"
         d="m 0,0 c -9.167,-0.207 -11.814,4.867 -11.644,13.654 0.215,7.116 2.7,11.765 10.892,11.867 3.714,0 7.006,-0.974 7.006,-0.974 l 1.032,-2.916 c 0,-0.05 -2.538,2.214 -8.527,1.839 -5.227,-0.325 -6.635,-5.128 -6.635,-10.078 0,-6.963 1.727,-10.789 6.364,-11.165 7.065,-0.551 8.739,3.286 8.678,3.015 L 6.741,1.626 C 6.741,1.473 4.485,0.114 0,0"
         style="fill:#870e12;fill-opacity:1;fill-rule:nonzero;stroke:none"
         transform="matrix(1.3333333,0,0,-1.3333333,292.568,447.89467)" />
      <path
         id="path15"
         d="m 0,0 h 3.069 v -2.203 c 0.05,0.097 0.696,1.173 2.596,1.827 C 7.543,0.259 8.943,0 9.318,-0.053 l 0.501,-1.725 c 0,0 -2.326,0.548 -4.154,-0.425 -1.9,-0.925 -2.596,-2.65 -2.596,-3.786 V -17.96 H 0 V 0"
         style="fill:#870e12;fill-opacity:1;fill-rule:nonzero;stroke:none"
         transform="matrix(1.3333333,0,0,-1.3333333,305.78533,423.64933)" />
      <path
         id="path16"
         d="m 0,0 c -5.45,-0.107 -7.764,-2.965 -7.714,-9.012 0.064,-6.417 2.588,-9.279 7.714,-9.279 5.291,0 7.714,2.974 7.714,9.279 C 7.714,-3.071 5.877,0.102 0,0 Z m -4.637,-9.012 c 0,3.462 0.327,7.613 4.637,7.675 4.363,0.049 4.642,-3.998 4.642,-7.675 0,-4.252 -0.279,-7.914 -4.642,-7.914 -4.363,-0.063 -4.637,3.763 -4.637,7.914"
         style="fill:#870e12;fill-opacity:1;fill-rule:nonzero;stroke:none"
         transform="matrix(1.3333333,0,0,-1.3333333,331.364,423.50667)" />
      <path
         id="path17"
         d="m 0,0 c 0.274,-4.477 -2.375,-5.986 -6.029,-6.313 -3.89,-0.27 -6.749,0.923 -6.749,0.923 l -0.702,2.314 c -0.053,0.151 1.99,-1.299 5.45,-1.459 3.561,-0.215 5.176,1.574 5.117,3.559 -0.215,5.343 -10.678,2.327 -10.678,8.203 0.058,3.289 2.923,4.478 6,4.581 4.189,0.158 6.356,-1.13 6.356,-1.13 l 0.756,-2.425 c 0.051,-0.06 -1.896,1.879 -6.047,1.879 -2.152,0 -4.042,-0.751 -4.042,-2.905 C -10.517,4.477 -0.377,5.939 0,0"
         style="fill:#870e12;fill-opacity:1;fill-rule:nonzero;stroke:none"
         transform="matrix(1.3333333,0,0,-1.3333333,362.912,439.39333)" />
      <path
         id="path18"
         d="m 0,0 c 0.271,-4.477 -2.364,-5.986 -6.04,-6.313 -3.887,-0.27 -6.741,0.923 -6.741,0.923 l -0.687,2.314 c -0.062,0.151 1.986,-1.299 5.43,-1.459 3.572,-0.215 5.176,1.574 5.134,3.559 -0.221,5.343 -10.685,2.327 -10.685,8.203 0.059,3.289 2.921,4.478 5.987,4.581 4.211,0.158 6.363,-1.13 6.363,-1.13 l 0.764,-2.425 c 0.05,-0.06 -1.889,1.879 -6.053,1.879 -2.139,0 -4.04,-0.751 -4.04,-2.905 C -10.517,4.477 -0.366,5.939 0,0"
         style="fill:#870e12;fill-opacity:1;fill-rule:nonzero;stroke:none"
         transform="matrix(1.3333333,0,0,-1.3333333,383.82133,439.39333)" />
      <path
         id="path19"
         d="m 0,0 c 0.595,-6.266 -3.116,-8.475 -8.3,-8.852 -5.504,-0.435 -9.006,1.41 -9.055,1.563 l -0.976,3.566 c -0.109,0.321 1.839,-2.924 7.664,-3.065 5.55,-0.126 7.062,1.978 7.168,5.329 0.262,9.159 -15.31,1.56 -15.145,11.749 0.05,4.59 3.764,6.214 8.138,6.425 5.766,0.265 8.938,-1.184 8.938,-1.184 l 0.913,-3.069 c 0.077,-0.117 -2.908,2.317 -8.392,2.206 -4.111,-0.053 -6.045,-1.353 -6.16,-4.378 C -15.369,3.926 -0.906,9.427 0,0"
         style="fill:#870e12;fill-opacity:1;fill-rule:nonzero;stroke:none"
         transform="matrix(1.3333333,0,0,-1.3333333,424.93467,436.008)" />
      <path
         id="path20"
         d="m 0,0 c -5.458,-0.107 -7.765,-2.965 -7.715,-9.012 0.051,-6.417 2.58,-9.279 7.715,-9.279 5.287,0 7.702,2.974 7.702,9.279 C 7.702,-3.071 5.877,0.102 0,0 Z m -4.64,-9.012 c 0,3.462 0.316,7.613 4.64,7.675 4.362,0.049 4.639,-3.998 4.639,-7.675 0,-4.252 -0.277,-7.914 -4.639,-7.914 -4.377,-0.063 -4.64,3.763 -4.64,7.914"
         style="fill:#870e12;fill-opacity:1;fill-rule:nonzero;stroke:none"
         transform="matrix(1.3333333,0,0,-1.3333333,438.95467,423.50667)" />
      <path
         id="path21"
         d="m 0,0 c -6.512,0.115 -8.302,3.392 -8.088,9.652 0.173,5.064 1.848,8.358 7.625,8.406 C 2.163,18.117 4.64,17.37 4.64,17.37 l 0.751,-2.765 c 0,0 -1.287,1.836 -4.943,1.836 -3.785,0 -5.4,-1.774 -5.52,-6.789 C -5.226,3.615 -3.65,1.889 -0.463,1.667 2.815,1.452 5.241,3.277 5.241,3.179 L 4.964,0.915 C 4.964,0.755 2.002,-0.06 0,0"
         style="fill:#870e12;fill-opacity:1;fill-rule:nonzero;stroke:none"
         transform="matrix(1.3333333,0,0,-1.3333333,464.16267,447.66267)" />
      <path
         id="path22"
         d="M 0,0 H 3.086 V 17.96 H 0 Z m 1.563,23.359 c -2.631,0 -2.631,-4 0,-4 2.649,0 2.649,4 0,4"
         style="fill:#870e12;fill-opacity:1;fill-rule:nonzero;stroke:none"
         transform="matrix(1.3333333,0,0,-1.3333333,474.79067,447.596)" />
      <path
         id="path23"
         d="m 0,0 h 11.112 c 0.065,0 0.501,3.99 -0.536,6.354 -0.964,2.275 -2.742,3.512 -6.302,3.512 -4.69,0 -7.442,-2.914 -7.39,-9.762 0.05,-5.816 2.809,-8.139 7.166,-8.466 3.723,-0.214 6.249,1.302 6.314,1.46 l 0.59,2.639 c 0,0 -1.89,-2.536 -5.881,-2.586 C -0.852,-6.952 -0.041,0 0,0 Z m 4.66,8.578 c 5.318,0 4.474,-7.011 4.404,-7.011 L 0,1.567 c 0,0 -0.793,7.011 4.66,7.011"
         style="fill:#870e12;fill-opacity:1;fill-rule:nonzero;stroke:none"
         transform="matrix(1.3333333,0,0,-1.3333333,487.64667,436.66133)" />
      <path
         id="path24"
         d="M 0,0 H 2.963 V -1.504 H 0 v -12.089 c 0,-0.745 0.048,-1.729 0.76,-2.213 1.076,-0.802 2.479,-0.537 2.533,-0.479 v -1.675 c -0.054,-0.05 -2.533,-0.431 -4.377,0.477 -1.179,0.539 -1.943,1.677 -1.943,3.203 V -1.504 H -5.978 V 0 h 2.951 V 7.184 L 0,7.184 V 0"
         style="fill:#870e12;fill-opacity:1;fill-rule:nonzero;stroke:none"
         transform="matrix(1.3333333,0,0,-1.3333333,512.95333,423.64933)" />
      <path
         id="path25"
         d="M 0,0 H 3.34 L 8.729,-13.432 13.743,0 h 2.276 l -7.6,-19.582 C 8.084,-20.494 7.117,-22.271 4.8,-22.655 3.727,-22.809 2.318,-22.708 2.318,-22.708 l -0.802,1.837 c 0.05,0 1.609,-0.275 2.636,-0.052 1.713,0.273 2.7,1.615 2.965,3.392 L 0,0"
         style="fill:#870e12;fill-opacity:1;fill-rule:nonzero;stroke:none"
         transform="matrix(1.3333333,0,0,-1.3333333,518.188,423.64933)"
         clip-path="url(#clipPath26)" />
      <path
         id="path27"
         d="M 0,0 H 7.022 V -41.96 H 0 v 21.648 c -0.217,0 -1.758,-2.273 -9.605,-3.521 -4.973,-0.755 -11.285,-2.364 -10.869,-8.524 0.528,-7.889 12.72,-5.238 12.72,-5.524 v -3.797 c 0,-0.177 -18.505,-3.592 -18.292,10.162 0.101,7.603 6.303,9.874 12.405,11.204 5.469,1.14 12.605,2.285 13.424,6.082 0.734,3.306 -1.439,6.728 -9.914,6.54 -9.725,-0.189 -14.788,-5.79 -14.788,-5.699 l 1.35,5.605 c 0,0.19 4.345,3.896 13.964,3.973 6.609,0.105 9.388,-1.224 9.605,-1.317 L 0,0"
         style="fill:#918f90;fill-opacity:1;fill-rule:nonzero;stroke:none"
         transform="matrix(1.3333333,0,0,-1.3333333,36.129333,327.68933)" />
      <path
         id="path28"
         d="m 0,0 c 0,1.433 0.407,3.706 -0.933,5.511 -1.554,2.082 -4.345,2.273 -5.996,2.273 h -12.516 v -34.081 h -9.196 v 3.806 h 4.243 v 34.166 h 19.527 c 1.248,0 5.897,-0.479 9.195,-3.796 C 6.608,5.604 7.026,2.466 7.026,-1.043 V -26.297 H 0 L 0,0"
         style="fill:#918f90;fill-opacity:1;fill-rule:nonzero;stroke:none"
         transform="matrix(1.3333333,0,0,-1.3333333,91.26,348.57333)" />
      <path
         id="path29"
         d="m 0,0 h -7.024 v 29.332 c 0,3.798 -3.409,5.594 -8.891,5.501 -7.34,-0.088 -10.647,-3.603 -10.544,-3.317 l 1.346,4.739 c 0.103,0.399 4.864,1.817 9.616,1.817 C -4.536,38.072 0,34.745 0,27.915 V 0"
         style="fill:#918f90;fill-opacity:1;fill-rule:nonzero;stroke:none"
         transform="matrix(1.3333333,0,0,-1.3333333,147.61333,383.636)" />
      <path
         id="path30"
         d="m 0,0 h 20.779 c 1.247,0 6.097,-0.379 9.194,-3.796 2.487,-2.751 2.689,-5.413 2.689,-8.922 V -37.972 H 25.64 v 26.297 c 0,1.433 0.315,3.607 -0.934,5.511 -1.238,1.902 -4.344,2.273 -5.999,2.273 H 4.967 V -37.972 H 0 L 0,0"
         style="fill:#918f90;fill-opacity:1;fill-rule:nonzero;stroke:none"
         transform="matrix(1.3333333,0,0,-1.3333333,159.60133,333.00667)" />
      <path
         id="path31"
         d="m 0,0 h -7.032 v 29.332 c 0,3.798 -3.411,5.594 -8.893,5.501 -7.338,-0.088 -10.646,-3.603 -10.535,-3.317 l 1.339,4.739 c 0.101,0.399 4.851,1.817 9.614,1.817 C -4.545,38.072 0,34.745 0,27.915 V 0"
         style="fill:#918f90;fill-opacity:1;fill-rule:nonzero;stroke:none"
         transform="matrix(1.3333333,0,0,-1.3333333,249.19067,383.636)" />
      <path
         id="path32"
         d="m 0,0 v -33.607 c 0,-0.286 18.709,-5.877 18.505,12.532 C 18.303,-6.368 0,-8.64 0.52,-8.354 L 15.511,0 h 8.894 L 11.683,-6.648 C 11.369,-6.844 23.885,-7.687 24.405,-19.925 25.011,-33.793 17.054,-37.972 6.82,-37.972 H -7.032 V 0 H 0"
         style="fill:#918f90;fill-opacity:1;fill-rule:nonzero;stroke:none"
         transform="matrix(1.3333333,0,0,-1.3333333,270.544,333.00667)" />
      <path
         id="path33"
         d="m 0,0 h -7.038 v 29.332 c 0,3.798 -3.409,5.594 -8.876,5.501 -7.342,-0.088 -10.651,-3.603 -10.551,-3.317 l 1.339,4.739 c 0.106,0.399 4.863,1.817 9.617,1.817 C -4.55,38.072 0,34.745 0,27.915 V 0"
         style="fill:#918f90;fill-opacity:1;fill-rule:nonzero;stroke:none"
         transform="matrix(1.3333333,0,0,-1.3333333,348.42,383.636)" />
      <path
         id="path34"
         d="m 0,0 v 16.796 l -2.376,1.901 9.399,1.714 V -2.19 c 0,-0.095 -5.989,-2.558 -13.541,-1.227 -8.261,1.419 -10.948,10.43 -10.839,19.27 0.09,12.141 6.303,16.796 9.712,17.741 13.013,3.616 28.315,-2.75 28.315,-2.94 V -3.522 h -7.13 v 31.516 c 0,0.658 -8.904,3.887 -15.206,2.565 C -7.958,29.227 -10.66,22.97 -10.345,13.946 -9.828,-1.704 0,-0.476 0,0"
         style="fill:#918f90;fill-opacity:1;fill-rule:nonzero;stroke:none"
         transform="matrix(1.3333333,0,0,-1.3333333,383.00933,378.94)" />
      <path
         id="path35"
         d="m 0,0 v 3.705 c 0,0.179 6.618,2.088 12.621,1.802 5.378,-0.292 8.267,-1.043 11.16,-2.94 4.234,-2.761 3.719,-6.842 3.719,-8.742 v -48.596 h -7.013 v 49.834 c 0,1.05 0.088,2.944 -1.049,4.367 C 17.481,1.986 14.273,2.759 9.525,2.567 3.004,2.273 0,-0.093 0,0"
         style="fill:#918f90;fill-opacity:1;fill-rule:nonzero;stroke:none"
         transform="matrix(1.3333333,0,0,-1.3333333,395.116,310.608)" />
      <path
         id="path36"
         d="m 0,0 v -5.98 c 0,-0.295 3.008,6.356 13.13,6.356 8.773,0 12.509,-4.84 12.509,-11.004 v -27.344 h -4.954 v 27.73 c 0,3.112 -2.488,6.821 -8.17,6.728 C 5.173,-3.606 0,-9.401 0,-15.948 V -37.972 H -7.035 V 0 H 0"
         style="fill:#918f90;fill-opacity:1;fill-rule:nonzero;stroke:none"
         transform="matrix(1.3333333,0,0,-1.3333333,453.42,333.00667)" />
      <path
         id="path37"
         d="m 0,0 c 0,-0.466 -5.894,-1.241 -11.165,-0.383 -5.479,0.859 -7.326,3.61 -6.291,6.078 1.743,4.453 11.053,1.808 11.053,1.899 v 3.795 c 0,0.091 -7.856,2.194 -14.27,-0.66 -3.614,-1.624 -5.998,-5.708 -4.447,-9.401 1.971,-4.463 9.407,-3.987 9.001,-4.273 0.217,-0.088 -6.717,0 -9.101,-6.637 -2.781,-7.877 3.309,-15.183 11.786,-16.134 14.278,-1.617 20.48,3.225 20.48,4.647 v 33.22 l -7.046,0 z m 0,-20.606 c 0,-0.463 -3.823,-1.693 -8.373,-1.498 -4.335,0.18 -9.913,2.84 -10.229,7.867 C -19.425,-1.241 0,-4.262 0,-4.559 v -16.047"
         style="fill:#918f90;fill-opacity:1;fill-rule:nonzero;stroke:none"
         transform="matrix(1.3333333,0,0,-1.3333333,533.628,349.208)" />
      <path
         id="path38"
         d="m 0,38.254 h 407.108 v 3.197 H 0 Z"
         style="fill:#231f20;fill-opacity:1;fill-rule:nonzero;stroke:none"
         transform="matrix(1.3333333,0,0,-1.3333333,0,453.96933)" />
    </g>
  </g>
</svg>
