<?xml version="1.0" encoding="UTF-8" standalone="no"?>
<!-- Created with Inkscape (http://www.inkscape.org/) -->

<svg
   width="83.110558mm"
   height="80.953674mm"
   viewBox="0 0 83.110558 80.953674"
   version="1.1"
   id="svg1"
   inkscape:version="1.3.2 (091e20e, 2023-11-25, custom)"
   sodipodi:docname="Cyprus RC.svg"
   xmlns:inkscape="http://www.inkscape.org/namespaces/inkscape"
   xmlns:sodipodi="http://sodipodi.sourceforge.net/DTD/sodipodi-0.dtd"
   xmlns="http://www.w3.org/2000/svg"
   xmlns:svg="http://www.w3.org/2000/svg">
  <sodipodi:namedview
     id="namedview1"
     pagecolor="#ffffff"
     bordercolor="#666666"
     borderopacity="1.0"
     inkscape:showpageshadow="2"
     inkscape:pageopacity="0.0"
     inkscape:pagecheckerboard="0"
     inkscape:deskcolor="#d1d1d1"
     inkscape:document-units="mm"
     inkscape:export-bgcolor="#ffffffff"
     inkscape:zoom="0.73139029"
     inkscape:cx="112.79887"
     inkscape:cy="357.53824"
     inkscape:window-width="1920"
     inkscape:window-height="1017"
     inkscape:window-x="-8"
     inkscape:window-y="-8"
     inkscape:window-maximized="1"
     inkscape:current-layer="layer1" />
  <defs
     id="defs1">
    <clipPath
       clipPathUnits="userSpaceOnUse"
       id="clipPath6">
      <path
         d="M 0,0 H 595.276 V 841.89 H 0 Z"
         transform="translate(-415.43231,-471.03381)"
         id="path6" />
    </clipPath>
    <clipPath
       clipPathUnits="userSpaceOnUse"
       id="clipPath8">
      <path
         d="M 0,0 H 595.276 V 841.89 H 0 Z"
         transform="translate(-297.63841,-394.84891)"
         id="path8" />
    </clipPath>
    <clipPath
       clipPathUnits="userSpaceOnUse"
       id="clipPath13">
      <path
         d="M 0,0 H 595.276 V 841.89 H 0 Z"
         transform="translate(-209.7217,-421.72541)"
         id="path13" />
    </clipPath>
    <clipPath
       clipPathUnits="userSpaceOnUse"
       id="clipPath18">
      <path
         d="M 0,0 H 595.276 V 841.89 H 0 Z"
         transform="translate(-242.33161,-395.19161)"
         id="path18" />
    </clipPath>
    <clipPath
       clipPathUnits="userSpaceOnUse"
       id="clipPath22">
      <path
         d="M 0,0 H 595.276 V 841.89 H 0 Z"
         transform="translate(-278.185,-372.41711)"
         id="path22" />
    </clipPath>
    <clipPath
       clipPathUnits="userSpaceOnUse"
       id="clipPath25">
      <path
         d="M 0,0 H 595.276 V 841.89 H 0 Z"
         transform="translate(-307.65521,-370.88531)"
         id="path25" />
    </clipPath>
    <clipPath
       clipPathUnits="userSpaceOnUse"
       id="clipPath27">
      <path
         d="M 0,0 H 595.276 V 841.89 H 0 Z"
         transform="translate(-316.50421,-372.30261)"
         id="path27" />
    </clipPath>
    <clipPath
       clipPathUnits="userSpaceOnUse"
       id="clipPath29">
      <path
         d="M 0,0 H 595.276 V 841.89 H 0 Z"
         transform="translate(-325.60871,-381.49861)"
         id="path29" />
    </clipPath>
    <clipPath
       clipPathUnits="userSpaceOnUse"
       id="clipPath36">
      <path
         d="M 0,0 H 595.276 V 841.89 H 0 Z"
         transform="translate(-387.01711,-424.39151)"
         id="path36" />
    </clipPath>
    <clipPath
       clipPathUnits="userSpaceOnUse"
       id="clipPath38">
      <path
         d="M 0,0 H 595.276 V 841.89 H 0 Z"
         transform="translate(-385.50981,-437.24171)"
         id="path38" />
    </clipPath>
    <clipPath
       clipPathUnits="userSpaceOnUse"
       id="clipPath43">
      <path
         d="M 0,0 H 595.276 V 841.89 H 0 Z"
         transform="translate(-297.63841,-363.38261)"
         id="path43" />
    </clipPath>
    <clipPath
       clipPathUnits="userSpaceOnUse"
       id="clipPath45">
      <path
         d="M 0,0 H 595.276 V 841.89 H 0 Z"
         transform="translate(-297.63841,-357.02291)"
         id="path45" />
    </clipPath>
    <clipPath
       clipPathUnits="userSpaceOnUse"
       id="clipPath48">
      <path
         d="M 0,0 H 595.276 V 841.89 H 0 Z"
         transform="translate(-207.1633,-488.88491)"
         id="path48" />
    </clipPath>
    <clipPath
       clipPathUnits="userSpaceOnUse"
       id="clipPath51">
      <path
         d="M 0,0 H 595.276 V 841.89 H 0 Z"
         transform="translate(-216.85531,-503.25071)"
         id="path51" />
    </clipPath>
    <clipPath
       clipPathUnits="userSpaceOnUse"
       id="clipPath53">
      <path
         d="M 0,0 H 595.276 V 841.89 H 0 Z"
         transform="translate(-221.88081,-513.37972)"
         id="path53" />
    </clipPath>
    <clipPath
       clipPathUnits="userSpaceOnUse"
       id="clipPath55">
      <path
         d="M 0,0 H 595.276 V 841.89 H 0 Z"
         transform="translate(-218.32251,-532.48642)"
         id="path55" />
    </clipPath>
    <clipPath
       clipPathUnits="userSpaceOnUse"
       id="clipPath57">
      <path
         d="M 0,0 H 595.276 V 841.89 H 0 Z"
         transform="translate(-233.4907,-535.40641)"
         id="path57" />
    </clipPath>
    <clipPath
       clipPathUnits="userSpaceOnUse"
       id="clipPath59">
      <path
         d="M 0,0 H 595.276 V 841.89 H 0 Z"
         transform="translate(-249.77571,-542.66561)"
         id="path59" />
    </clipPath>
    <clipPath
       clipPathUnits="userSpaceOnUse"
       id="clipPath62">
      <path
         d="M 0,0 H 595.276 V 841.89 H 0 Z"
         transform="translate(-267.22701,-565.81852)"
         id="path62" />
    </clipPath>
    <clipPath
       clipPathUnits="userSpaceOnUse"
       id="clipPath64">
      <path
         d="M 0,0 H 595.276 V 841.89 H 0 Z"
         transform="translate(-294.39001,-560.83492)"
         id="path64" />
    </clipPath>
    <clipPath
       clipPathUnits="userSpaceOnUse"
       id="clipPath66">
      <path
         d="M 0,0 H 595.276 V 841.89 H 0 Z"
         transform="translate(-299.047,-555.65782)"
         id="path66" />
    </clipPath>
    <clipPath
       clipPathUnits="userSpaceOnUse"
       id="clipPath68">
      <path
         d="M 0,0 H 595.276 V 841.89 H 0 Z"
         transform="translate(-311.97621,-561.09151)"
         id="path68" />
    </clipPath>
    <clipPath
       clipPathUnits="userSpaceOnUse"
       id="clipPath70">
      <path
         d="M 0,0 H 595.276 V 841.89 H 0 Z"
         transform="translate(-324.45061,-555.82781)"
         id="path70" />
    </clipPath>
    <clipPath
       clipPathUnits="userSpaceOnUse"
       id="clipPath72">
      <path
         d="M 0,0 H 595.276 V 841.89 H 0 Z"
         transform="translate(-335.42751,-551.95781)"
         id="path72" />
    </clipPath>
    <clipPath
       clipPathUnits="userSpaceOnUse"
       id="clipPath74">
      <path
         d="M 0,0 H 595.276 V 841.89 H 0 Z"
         transform="translate(-350.61011,-544.06552)"
         id="path74" />
    </clipPath>
    <clipPath
       clipPathUnits="userSpaceOnUse"
       id="clipPath76">
      <path
         d="M 0,0 H 595.276 V 841.89 H 0 Z"
         transform="translate(-361.58251,-538.93811)"
         id="path76" />
    </clipPath>
    <clipPath
       clipPathUnits="userSpaceOnUse"
       id="clipPath78">
      <path
         d="M 0,0 H 595.276 V 841.89 H 0 Z"
         transform="translate(-374.74991,-521.90272)"
         id="path78" />
    </clipPath>
  </defs>
  <g
     inkscape:label="Layer 1"
     inkscape:groupmode="layer"
     id="layer1"
     transform="translate(-75.30765,-53.89991)">
    <path
       id="path5"
       d="m 0,0 c 0,-63.369 -52.738,-114.737 -117.794,-114.737 -65.057,0 -117.795,51.368 -117.795,114.737 0,63.369 52.738,114.738 117.795,114.738 C -52.738,114.738 0,63.369 0,0"
       style="fill:#ffffff icc-color(sRGB-IEC61966-2, 0.1, 1, 1, 1);fill-opacity:1;fill-rule:nonzero;stroke:none"
       transform="matrix(0.35277776,0,0,-0.35277776,158.41821,94.376925)"
       clip-path="url(#clipPath6)" />
    <path
       id="path7"
       d="m 0,0 c -42.009,0 -76.185,34.176 -76.185,76.185 0,42.008 34.176,76.185 76.185,76.185 42.008,0 76.184,-34.177 76.184,-76.185 C 76.184,34.176 42.008,0 0,0 m 0,149.327 c -40.331,0 -73.142,-32.811 -73.142,-73.142 0,-40.331 32.811,-73.142 73.142,-73.142 40.33,0 73.141,32.811 73.141,73.142 0,40.331 -32.811,73.142 -73.141,73.142"
       style="fill:#000000 icc-color(sRGB-IEC61966-2, 0.1, 0, 0, 0);fill-opacity:1;fill-rule:nonzero;stroke:none"
       transform="matrix(0.35277776,0,0,-0.35277776,116.86314,121.25326)"
       clip-path="url(#clipPath8)" />
    <path
       id="path9"
       d="m 81.524621,98.983115 4.78861,-0.86642 0.14322,0.79057 -2.13183,0.38559 2.42182,1.219545 0.19332,1.06892 -2.13431,-1.14371 -2.63983,2.08774 -0.18592,-1.02588 2.05458,-1.49013 -0.91969,-0.497415 -1.4471,0.26176 z"
       style="fill:#000000 icc-color(sRGB-IEC61966-2, 0.1, 0, 0, 0);fill-opacity:1;fill-rule:nonzero;stroke:none;stroke-width:0.352778" />
    <path
       id="path10"
       d="m 82.759341,104.51043 1.95404,-0.6163 2.24825,-2.23979 0.28328,0.89888 -1.55328,1.47285 2.11314,0.30339 0.27869,0.88335 -3.13478,-0.54998 -1.94769,0.61419 z"
       style="fill:#000000 icc-color(sRGB-IEC61966-2, 0.1, 0, 0, 0);fill-opacity:1;fill-rule:nonzero;stroke:none;stroke-width:0.352778" />
    <path
       id="path11"
       d="m 84.160541,108.3465 -0.3362,-0.72954 4.4196,-2.03659 1.33386,2.89384 -4.4196,2.03693 -0.33655,-0.72954 3.67206,-1.69227 -0.66111,-1.4351 z"
       style="fill:#000000 icc-color(sRGB-IEC61966-2, 0.1, 0, 0, 0);fill-opacity:1;fill-rule:nonzero;stroke:none;stroke-width:0.352778" />
    <path
       id="path12"
       d="M 0,0 11.704,7.302 13.646,4.189 C 14.37,3.028 14.787,2.235 14.899,1.809 15.072,1.127 14.98,0.417 14.62,-0.323 14.26,-1.061 13.614,-1.72 12.683,-2.303 11.837,-2.83 11.028,-3.113 10.257,-3.151 9.486,-3.188 8.835,-3.04 8.304,-2.705 7.774,-2.371 7.144,-1.618 6.412,-0.448 L 5.62,0.821 1.206,-1.933 Z M 10.929,4.135 7.6,2.058 8.27,0.986 c 0.449,-0.721 0.805,-1.179 1.068,-1.374 0.262,-0.195 0.577,-0.294 0.945,-0.294 0.367,-0.001 0.742,0.119 1.127,0.358 0.389,0.244 0.664,0.534 0.824,0.87 0.161,0.338 0.207,0.66 0.142,0.967 -0.066,0.308 -0.352,0.867 -0.858,1.678 z"
       style="fill:#000000 icc-color(sRGB-IEC61966-2, 0.1, 0, 0, 0);fill-opacity:1;fill-rule:nonzero;stroke:none"
       transform="matrix(0.35277776,0,0,-0.35277776,85.848081,111.77183)"
       clip-path="url(#clipPath13)" />
    <path
       id="path14"
       d="m 88.151581,115.26941 3.88726,-2.92806 0.48366,0.64206 -3.88761,2.9277 z"
       style="fill:#000000 icc-color(sRGB-IEC61966-2, 0.1, 0, 0, 0);fill-opacity:1;fill-rule:nonzero;stroke:none;stroke-width:0.352778" />
    <path
       id="path15"
       d="m 91.825801,119.59291 -0.58737,-0.64664 0.58102,-0.99977 -1.07386,-1.18251 -1.03787,0.49635 -0.57608,-0.63359 4.64749,-2.1216 0.57397,0.63147 z m 0.42862,-2.39183 0.96662,-1.62208 -1.70039,0.81386 z"
       style="fill:#000000 icc-color(sRGB-IEC61966-2, 0.1, 0, 0, 0);fill-opacity:1;fill-rule:nonzero;stroke:none;stroke-width:0.352778" />
    <path
       id="path16"
       d="m 92.596371,120.3026 3.15066,-3.70911 0.61207,0.52 -1.40229,1.65135 2.64583,-0.59513 0.82762,0.70273 -2.3749,0.47166 -0.71508,3.2893 -0.79481,-0.67521 0.64135,-2.45569 -1.02623,0.19932 -0.95215,1.12077 z"
       style="fill:#000000 icc-color(sRGB-IEC61966-2, 0.1, 0, 0, 0);fill-opacity:1;fill-rule:nonzero;stroke:none;stroke-width:0.352778" />
    <path
       id="path17"
       d="M 0,0 C 0.886,1.384 1.821,2.392 2.804,3.025 3.786,3.659 4.748,3.984 5.69,3.999 6.631,4.015 7.571,3.722 8.512,3.12 9.874,2.247 10.652,1.015 10.844,-0.575 11.036,-2.166 10.516,-3.923 9.285,-5.846 8.041,-7.79 6.614,-9.017 5.005,-9.53 3.588,-9.985 2.195,-9.775 0.827,-8.9 -0.551,-8.015 -1.333,-6.841 -1.519,-5.374 -1.728,-3.699 -1.222,-1.907 0,0 M 2.032,-1.189 C 1.176,-2.526 0.787,-3.691 0.869,-4.684 c 0.079,-0.994 0.495,-1.731 1.246,-2.212 0.757,-0.484 1.596,-0.555 2.518,-0.21 0.922,0.344 1.822,1.204 2.702,2.577 0.863,1.347 1.258,2.498 1.186,3.452 C 8.45,-0.122 8.023,0.606 7.24,1.107 6.457,1.608 5.611,1.693 4.704,1.358 3.795,1.023 2.904,0.174 2.032,-1.189"
       style="fill:#000000 icc-color(sRGB-IEC61966-2, 0.1, 0, 0, 0);fill-opacity:1;fill-rule:nonzero;stroke:none"
       transform="matrix(0.35277776,0,0,-0.35277776,97.352131,121.13237)"
       clip-path="url(#clipPath18)" />
    <path
       id="path19"
       d="m 102.03222,122.16054 0.37818,-0.7941 2.49943,1.19027 -0.35384,0.74365 -1.59561,-0.75988 0.28504,1.79564 -1.77306,1.06186 1.77095,0.84349 -0.35384,0.74331 -2.61338,-1.2446 0.39088,-0.82127 1.66405,-1.016 z"
       style="fill:#000000 icc-color(sRGB-IEC61966-2, 0.1, 0, 0, 0);fill-opacity:1;fill-rule:nonzero;stroke:none;stroke-width:0.352778" />
    <path
       id="path20"
       d="m 105.826,128.08551 1.3141,-4.68595 2.85115,0.79975 -0.22225,0.79234 -2.07786,-0.58244 -0.29105,1.03893 1.9304,0.54116 -0.22154,0.78987 -1.9304,-0.54186 -0.35666,1.27247 2.14771,0.60219 -0.22189,0.79269 z"
       style="fill:#000000 icc-color(sRGB-IEC61966-2, 0.1, 0, 0, 0);fill-opacity:1;fill-rule:nonzero;stroke:none;stroke-width:0.352778" />
    <path
       id="path21"
       d="M 0,0 2.083,13.636 5.711,13.083 C 7.063,12.876 7.937,12.676 8.333,12.482 8.963,12.17 9.442,11.637 9.77,10.882 10.094,10.128 10.173,9.208 10.009,8.124 9.858,7.137 9.545,6.34 9.072,5.729 8.596,5.12 8.061,4.723 7.461,4.538 6.862,4.354 5.881,4.366 4.515,4.575 L 3.037,4.8 2.251,-0.344 Z M 3.982,10.986 3.39,7.107 4.638,6.916 C 5.478,6.788 6.057,6.759 6.377,6.831 6.696,6.905 6.976,7.079 7.216,7.357 7.455,7.635 7.609,7.999 7.678,8.446 7.747,8.9 7.705,9.297 7.554,9.639 7.403,9.98 7.189,10.225 6.913,10.375 6.637,10.527 6.027,10.673 5.082,10.818 Z"
       style="fill:#000000 icc-color(sRGB-IEC61966-2, 0.1, 0, 0, 0);fill-opacity:1;fill-rule:nonzero;stroke:none"
       transform="matrix(0.35277776,0,0,-0.35277776,110.00041,129.1667)"
       clip-path="url(#clipPath22)" />
    <path
       id="path23"
       d="m 115.30993,129.76593 0.0653,-2.04823 -1.37089,-2.86244 0.94192,0.03 0.8763,1.95298 0.98566,-1.89371 0.92533,0.0293 -1.55575,2.77636 -0.0649,2.04117 z"
       style="fill:#000000 icc-color(sRGB-IEC61966-2, 0.1, 0, 0, 0);fill-opacity:1;fill-rule:nonzero;stroke:none;stroke-width:0.352778" />
    <path
       id="path24"
       d="m 0,0 c -1.843,-0.18 -3.289,0.345 -4.341,1.573 -1.052,1.226 -1.677,2.865 -1.875,4.912 -0.219,2.249 0.094,4.052 0.939,5.414 0.844,1.363 2.112,2.125 3.804,2.29 1.66,0.161 3.049,-0.339 4.163,-1.5 C 3.806,11.526 4.463,9.915 4.663,7.855 4.889,5.533 4.588,3.684 3.761,2.307 2.933,0.932 1.679,0.162 0,0 M -1.219,11.821 C -2.205,11.725 -2.932,11.241 -3.401,10.368 -3.87,9.496 -4.03,8.302 -3.883,6.788 -3.739,5.298 -3.343,4.165 -2.693,3.39 -2.046,2.613 -1.229,2.272 -0.244,2.367 0.672,2.456 1.368,2.947 1.845,3.84 2.322,4.732 2.487,5.928 2.34,7.43 2.194,8.939 1.811,10.071 1.19,10.829 0.568,11.587 -0.235,11.918 -1.219,11.821 M 1.174,6.117 -2.488,5.76 -2.714,8.083 0.948,8.44 Z"
       style="fill:#000000 icc-color(sRGB-IEC61966-2, 0.1, 0, 0, 0);fill-opacity:1;fill-rule:nonzero;stroke:none"
       transform="matrix(0.35277776,0,0,-0.35277776,120.39685,129.70709)"
       clip-path="url(#clipPath25)" />
    <path
       id="path26"
       d="m 0,0 -3.113,13.439 3.576,0.828 C 1.795,14.576 2.681,14.714 3.119,14.68 3.822,14.623 4.464,14.306 5.046,13.727 5.627,13.146 6.042,12.321 6.29,11.252 6.515,10.28 6.521,9.422 6.306,8.682 6.091,7.939 5.74,7.371 5.251,6.978 4.763,6.585 3.846,6.233 2.502,5.921 L 1.045,5.583 2.219,0.514 Z M -0.368,11.68 0.517,7.857 1.75,8.143 c 0.825,0.191 1.374,0.38 1.645,0.564 0.271,0.186 0.465,0.452 0.584,0.798 0.12,0.348 0.129,0.743 0.027,1.183 C 3.902,11.136 3.717,11.49 3.45,11.751 3.183,12.012 2.894,12.162 2.582,12.198 2.27,12.236 1.647,12.147 0.716,11.931 Z"
       style="fill:#000000 icc-color(sRGB-IEC61966-2, 0.1, 0, 0, 0);fill-opacity:1;fill-rule:nonzero;stroke:none"
       transform="matrix(0.35277776,0,0,-0.35277776,123.51858,129.20709)"
       clip-path="url(#clipPath27)" />
    <path
       id="path28"
       d="m 0,0 c -0.577,1.538 -0.824,2.891 -0.743,4.058 0.081,1.166 0.399,2.13 0.948,2.893 C 0.757,7.715 1.556,8.292 2.601,8.684 4.116,9.253 5.569,9.138 6.957,8.34 8.346,7.54 9.441,6.073 10.244,3.936 11.055,1.773 11.184,-0.105 10.63,-1.7 10.145,-3.108 9.144,-4.097 7.623,-4.668 6.089,-5.243 4.68,-5.166 3.394,-4.435 1.929,-3.599 0.797,-2.121 0,0 m 2.17,0.915 c 0.559,-1.487 1.259,-2.495 2.102,-3.026 0.843,-0.531 1.682,-0.64 2.519,-0.326 0.841,0.316 1.4,0.946 1.676,1.89 C 8.743,0.398 8.594,1.634 8.021,3.161 7.459,4.658 6.775,5.665 5.967,6.179 5.16,6.693 4.321,6.788 3.451,6.461 2.58,6.135 2.008,5.507 1.731,4.579 1.455,3.652 1.601,2.429 2.17,0.915"
       style="fill:#000000 icc-color(sRGB-IEC61966-2, 0.1, 0, 0, 0);fill-opacity:1;fill-rule:nonzero;stroke:none"
       transform="matrix(0.35277776,0,0,-0.35277776,126.73044,125.96295)"
       clip-path="url(#clipPath29)" />
    <path
       id="path30"
       d="m 130.34909,122.83462 -0.40957,-0.77858 2.44968,-1.2894 0.38347,0.72884 -1.56421,0.82303 1.60937,0.84666 -0.21132,2.05634 1.73602,-0.91369 0.38347,0.72849 -2.56187,1.34831 -0.42298,-0.80504 0.18203,-1.94133 z"
       style="fill:#000000 icc-color(sRGB-IEC61966-2, 0.1, 0, 0, 0);fill-opacity:1;fill-rule:nonzero;stroke:none;stroke-width:0.352778" />
    <path
       id="path31"
       d="m 134.85047,120.23938 -0.53093,-0.70132 2.20627,-1.67217 0.49707,0.65617 -1.40865,1.06786 1.72579,0.5722 0.12736,2.0634 1.56421,-1.18533 0.49707,0.65616 -2.30717,1.74837 -0.54928,-0.72461 -0.13758,-1.94521 z"
       style="fill:#000000 icc-color(sRGB-IEC61966-2, 0.1, 0, 0, 0);fill-opacity:1;fill-rule:nonzero;stroke:none;stroke-width:0.352778" />
    <path
       id="path32"
       d="m 141.07492,120.3075 -2.7813,-2.93476 -0.86007,0.81492 -0.56656,-0.59725 2.30117,-2.18088 0.5662,0.59726 -0.85795,0.8135 2.7813,2.93441 z"
       style="fill:#000000 icc-color(sRGB-IEC61966-2, 0.1, 0, 0, 0);fill-opacity:1;fill-rule:nonzero;stroke:none;stroke-width:0.352778" />
    <path
       id="path33"
       d="m 145.56645,115.36981 -0.55739,0.67204 -1.07174,-0.43462 -1.01988,1.22943 0.63747,0.95744 -0.5468,0.65934 -2.75343,-4.30318 0.54504,-0.65652 z m -2.42852,-0.0885 -1.74167,-0.72919 1.04493,1.56951 z"
       style="fill:#000000 icc-color(sRGB-IEC61966-2, 0.1, 0, 0, 0);fill-opacity:1;fill-rule:nonzero;stroke:none;stroke-width:0.352778" />
    <path
       id="path34"
       d="m 146.71121,113.63093 -1.72791,-1.10102 -3.16124,-0.28222 0.50659,-0.79516 2.12655,0.24341 -1.12572,-1.81433 0.49742,-0.7807 1.5935,2.75484 1.72226,1.09749 z"
       style="fill:#000000 icc-color(sRGB-IEC61966-2, 0.1, 0, 0, 0);fill-opacity:1;fill-rule:nonzero;stroke:none;stroke-width:0.352778" />
    <path
       id="path35"
       d="m 0,0 -12.446,5.95 1.583,3.311 c 0.59,1.233 1.034,2.012 1.335,2.334 0.482,0.514 1.131,0.817 1.947,0.911 0.817,0.092 1.719,-0.099 2.71,-0.572 0.9,-0.431 1.573,-0.96 2.019,-1.591 0.446,-0.63 0.67,-1.259 0.673,-1.886 C -2.176,7.83 -2.473,6.893 -3.068,5.649 L -3.713,4.299 0.982,2.054 Z m -9.359,6.998 3.54,-1.693 0.546,1.14 c 0.366,0.766 0.56,1.313 0.584,1.639 0.024,0.327 -0.062,0.645 -0.259,0.956 -0.197,0.309 -0.5,0.562 -0.908,0.757 -0.413,0.198 -0.806,0.274 -1.176,0.229 C -7.402,9.979 -7.7,9.847 -7.925,9.626 -8.149,9.406 -8.466,8.864 -8.878,8.002 Z"
       style="fill:#000000 icc-color(sRGB-IEC61966-2, 0.1, 0, 0, 0);fill-opacity:1;fill-rule:nonzero;stroke:none"
       transform="matrix(0.35277776,0,0,-0.35277776,148.39396,110.83129)"
       clip-path="url(#clipPath36)" />
    <path
       id="path37"
       d="m 0,0 c -1.562,0.509 -2.774,1.158 -3.635,1.95 -0.86,0.792 -1.416,1.642 -1.669,2.547 -0.252,0.908 -0.206,1.891 0.139,2.953 0.501,1.54 1.497,2.603 2.988,3.19 1.49,0.586 3.322,0.525 5.494,-0.181 C 5.512,9.744 7.059,8.673 7.96,7.245 8.758,5.989 8.906,4.589 8.403,3.044 7.896,1.487 6.957,0.433 5.584,-0.116 4.015,-0.739 2.154,-0.701 0,0 M 0.639,2.266 C 2.148,1.775 3.373,1.694 4.315,2.022 5.257,2.349 5.865,2.936 6.141,3.785 6.419,4.639 6.275,5.469 5.709,6.274 5.143,7.08 4.084,7.735 2.535,8.24 1.013,8.735 -0.2,8.828 -1.106,8.518 -2.011,8.208 -2.608,7.612 -2.896,6.727 -3.184,5.842 -3.052,5.004 -2.499,4.209 -1.945,3.415 -0.9,2.767 0.639,2.266"
       style="fill:#000000 icc-color(sRGB-IEC61966-2, 0.1, 0, 0, 0);fill-opacity:1;fill-rule:nonzero;stroke:none"
       transform="matrix(0.35277776,0,0,-0.35277776,147.86222,106.29803)"
       clip-path="url(#clipPath38)" />
    <path
       id="path39"
       d="m 147.67422,101.52244 -0.86431,-0.16581 0.52106,-2.718845 0.80892,0.15487 -0.33303,1.736015 1.66582,-0.729195 1.47532,1.447795 0.369,-1.926865 0.80857,0.15487 -0.54469,2.843385 -0.89323,-0.17145 -1.40335,-1.35361 z"
       style="fill:#000000 icc-color(sRGB-IEC61966-2, 0.1, 0, 0, 0);fill-opacity:1;fill-rule:nonzero;stroke:none;stroke-width:0.352778" />
    <path
       id="path40"
       d="M 124.28756,116.91971 H 109.43808 V 71.834715 h 14.84948 z"
       style="fill:#ed3024 icc-color(sRGB-IEC61966-2, 0.1, 0.92999268, 0.18998718, 0.13999939);fill-opacity:1;fill-rule:nonzero;stroke:none;stroke-width:0.352778" />
    <path
       id="path41"
       d="M 94.320501,86.952655 H 139.4055 V 101.80213 H 94.320501 Z"
       style="fill:#ed3024 icc-color(sRGB-IEC61966-2, 0.1, 0.92999268, 0.18998718, 0.13999939);fill-opacity:1;fill-rule:nonzero;stroke:none;stroke-width:0.352778" />
    <path
       id="path42"
       d="m 0,0 c -60.726,0 -110.13,48.293 -110.13,107.651 0,59.359 49.404,107.651 110.13,107.651 60.725,0 110.129,-48.292 110.129,-107.651 C 110.129,48.293 60.725,0 0,0 m 0,214.288 c -60.166,0 -109.116,-47.837 -109.116,-106.637 0,-58.799 48.95,-106.637 109.116,-106.637 60.165,0 109.115,47.838 109.115,106.637 0,58.8 -48.95,106.637 -109.115,106.637"
       style="fill:#000000 icc-color(sRGB-IEC61966-2, 0.1, 0, 0, 0);fill-opacity:1;fill-rule:nonzero;stroke:none"
       transform="matrix(0.35277776,0,0,-0.35277776,116.86314,132.35387)"
       clip-path="url(#clipPath43)" />
    <path
       id="path44"
       d="m 0,0 c -64.516,0 -117.003,51.145 -117.003,114.011 0,62.866 52.487,114.011 117.003,114.011 64.515,0 117.002,-51.145 117.002,-114.011 C 117.002,51.145 64.515,0 0,0 m 0,224.573 c -62.614,0 -113.554,-49.598 -113.554,-110.562 0,-60.964 50.94,-110.563 113.554,-110.563 62.613,0 113.553,49.599 113.553,110.563 0,60.964 -50.94,110.562 -113.553,110.562"
       style="fill:#000000 icc-color(sRGB-IEC61966-2, 0.1, 0, 0, 0);fill-opacity:1;fill-rule:nonzero;stroke:none"
       transform="matrix(0.35277776,0,0,-0.35277776,116.86314,134.59743)"
       clip-path="url(#clipPath45)" />
    <path
       id="path46"
       d="m 84.778181,95.129615 -0.93274,-0.007 0.0102,-1.54905 0.93309,0.007 z"
       style="fill:#000000 icc-color(sRGB-IEC61966-2, 0.1, 0, 0, 0);fill-opacity:1;fill-rule:nonzero;stroke:none;stroke-width:0.352778" />
    <path
       id="path47"
       d="m 0,0 1.241,2.092 c 1.457,-0.617 2.465,-1.395 3.022,-2.334 0.557,-0.94 0.73,-2.004 0.52,-3.193 -0.264,-1.495 -1.039,-2.608 -2.32,-3.34 -1.481,-0.84 -3.317,-1.066 -5.511,-0.679 -2.316,0.411 -4.034,1.269 -5.153,2.577 -0.971,1.137 -1.317,2.495 -1.038,4.075 0.228,1.287 0.845,2.288 1.851,3.003 0.714,0.511 1.693,0.804 2.935,0.879 L -4.209,0.675 C -4.97,0.658 -5.585,0.467 -6.054,0.099 -6.525,-0.268 -6.811,-0.748 -6.916,-1.34 c -0.151,-0.848 0.086,-1.603 0.709,-2.266 0.621,-0.662 1.755,-1.139 3.406,-1.43 1.712,-0.303 2.973,-0.258 3.789,0.137 0.814,0.394 1.296,1.007 1.443,1.84 C 2.539,-2.448 2.403,-1.88 2.02,-1.352 1.64,-0.825 0.967,-0.374 0,0"
       style="fill:#000000 icc-color(sRGB-IEC61966-2, 0.1, 0, 0, 0);fill-opacity:1;fill-rule:nonzero;stroke:none"
       transform="matrix(0.35277776,0,0,-0.35277776,84.945541,88.079455)"
       clip-path="url(#clipPath48)" />
    <path
       id="path49"
       d="m 87.406411,85.748055 -1.94839,-0.63218 -3.14431,0.56127 0.29951,-0.92392 2.12866,-0.32456 -1.5367,-1.50001 0.29457,-0.90734 2.21968,2.30928 1.94274,0.63077 z"
       style="fill:#000000 icc-color(sRGB-IEC61966-2, 0.1, 0, 0, 0);fill-opacity:1;fill-rule:nonzero;stroke:none;stroke-width:0.352778" />
    <path
       id="path50"
       d="m 0,0 -12.445,5.951 1.631,3.41 c 0.609,1.271 1.064,2.073 1.37,2.407 0.491,0.532 1.148,0.849 1.97,0.955 0.821,0.105 1.727,-0.079 2.717,-0.554 0.901,-0.43 1.572,-0.966 2.012,-1.607 C -2.304,9.921 -2.086,9.28 -2.09,8.638 -2.096,7.996 -2.404,7.034 -3.018,5.751 L -3.682,4.361 1.012,2.115 Z m -9.328,7.06 3.54,-1.692 0.562,1.174 c 0.377,0.789 0.58,1.35 0.607,1.685 0.028,0.335 -0.055,0.661 -0.249,0.975 -0.195,0.317 -0.495,0.572 -0.904,0.767 -0.415,0.198 -0.808,0.272 -1.182,0.22 -0.373,-0.052 -0.672,-0.192 -0.9,-0.42 C -8.081,9.541 -8.408,8.983 -8.833,8.095 Z"
       style="fill:#000000 icc-color(sRGB-IEC61966-2, 0.1, 0, 0, 0);fill-opacity:1;fill-rule:nonzero;stroke:none"
       transform="matrix(0.35277776,0,0,-0.35277776,88.364661,83.011525)"
       clip-path="url(#clipPath51)" />
    <path
       id="path52"
       d="m 0,0 -11.525,7.581 2.723,4.139 c 0.695,1.058 1.296,1.744 1.801,2.062 0.505,0.317 1.111,0.453 1.811,0.409 0.704,-0.045 1.412,-0.302 2.124,-0.771 0.902,-0.593 1.481,-1.292 1.739,-2.1 0.256,-0.807 0.186,-1.668 -0.211,-2.581 0.57,0.228 1.12,0.364 1.649,0.411 0.531,0.045 1.402,0.01 2.616,-0.108 L 5.753,8.745 4.21,6.4 0.766,6.628 C -0.477,6.712 -1.272,6.738 -1.621,6.704 -1.97,6.671 -2.255,6.579 -2.477,6.432 -2.698,6.283 -2.958,5.983 -3.256,5.53 L -3.522,5.125 1.289,1.959 Z m -5.362,6.334 0.958,1.457 c 0.588,0.891 0.922,1.483 1.006,1.777 0.084,0.293 0.059,0.591 -0.071,0.893 -0.132,0.302 -0.388,0.58 -0.771,0.832 -0.366,0.241 -0.712,0.36 -1.035,0.355 -0.32,-0.005 -0.608,-0.109 -0.864,-0.313 -0.177,-0.146 -0.556,-0.659 -1.136,-1.538 L -8.286,8.258 Z"
       style="fill:#000000 icc-color(sRGB-IEC61966-2, 0.1, 0, 0, 0);fill-opacity:1;fill-rule:nonzero;stroke:none"
       transform="matrix(0.35277776,0,0,-0.35277776,90.137551,79.438235)"
       clip-path="url(#clipPath53)" />
    <path
       id="path54"
       d="m 0,0 1.548,1.763 5.615,-4.929 c 0.871,-0.765 1.458,-1.242 1.762,-1.43 0.524,-0.324 1.041,-0.449 1.551,-0.372 0.508,0.074 0.973,0.353 1.395,0.835 0.359,0.408 0.564,0.818 0.613,1.232 0.05,0.413 -0.04,0.804 -0.27,1.175 -0.231,0.37 -0.861,1.008 -1.894,1.915 L 4.585,5.223 6.131,6.985 11.577,2.206 c 1.391,-1.221 2.33,-2.181 2.815,-2.877 0.486,-0.697 0.685,-1.483 0.598,-2.357 -0.086,-0.874 -0.515,-1.75 -1.287,-2.629 -0.801,-0.914 -1.586,-1.486 -2.354,-1.718 -0.768,-0.234 -1.542,-0.212 -2.322,0.064 -0.78,0.276 -1.945,1.095 -3.497,2.457 z"
       style="fill:#000000 icc-color(sRGB-IEC61966-2, 0.1, 0, 0, 0);fill-opacity:1;fill-rule:nonzero;stroke:none"
       transform="matrix(0.35277776,0,0,-0.35277776,88.882261,72.697815)"
       clip-path="url(#clipPath55)" />
    <path
       id="path56"
       d="M 0,0 1.558,1.708 C 2.912,0.548 4.128,0.44 5.21,1.382 5.746,1.85 6.048,2.352 6.119,2.893 6.189,3.432 6.048,3.902 5.698,4.304 5.493,4.541 5.264,4.694 5.014,4.766 4.761,4.838 4.48,4.832 4.168,4.747 3.855,4.663 3.17,4.378 2.109,3.894 1.161,3.458 0.398,3.217 -0.18,3.171 -0.758,3.125 -1.333,3.223 -1.909,3.466 c -0.576,0.241 -1.075,0.606 -1.499,1.093 -0.495,0.568 -0.807,1.194 -0.937,1.879 -0.129,0.683 -0.062,1.347 0.204,1.986 0.266,0.64 0.742,1.257 1.429,1.857 1.032,0.898 2.075,1.33 3.13,1.291 1.052,-0.039 2.038,-0.549 2.954,-1.531 L 1.677,8.401 C 1.114,8.892 0.605,9.136 0.153,9.133 -0.299,9.13 -0.764,8.921 -1.24,8.504 -1.718,8.089 -2.002,7.671 -2.092,7.252 -2.182,6.834 -2.102,6.481 -1.85,6.193 -1.604,5.91 -1.279,5.774 -0.877,5.785 -0.474,5.798 0.251,6.053 1.294,6.556 2.405,7.082 3.279,7.38 3.915,7.449 4.554,7.518 5.168,7.426 5.758,7.17 6.349,6.914 6.916,6.476 7.46,5.852 8.247,4.949 8.622,3.94 8.587,2.827 8.549,1.713 7.923,0.626 6.704,-0.435 4.552,-2.312 2.318,-2.168 0,0"
       style="fill:#000000 icc-color(sRGB-IEC61966-2, 0.1, 0, 0, 0);fill-opacity:1;fill-rule:nonzero;stroke:none"
       transform="matrix(0.35277776,0,0,-0.35277776,94.233261,71.667705)"
       clip-path="url(#clipPath57)" />
    <path
       id="path58"
       d="m 0,0 -6.868,11.964 4.296,2.466 c 1.098,0.63 1.944,0.973 2.538,1.028 0.595,0.056 1.195,-0.095 1.802,-0.452 C 2.376,14.65 2.892,14.101 3.316,13.361 3.852,12.425 4.054,11.539 3.92,10.703 3.785,9.866 3.335,9.129 2.567,8.494 3.18,8.439 3.732,8.314 4.226,8.117 4.72,7.92 5.481,7.494 6.512,6.841 L 9.079,5.212 6.645,3.815 3.674,5.57 C 2.603,6.206 1.904,6.588 1.576,6.715 1.25,6.843 0.955,6.89 0.692,6.858 0.427,6.825 0.058,6.673 -0.412,6.402 L -0.833,6.162 2.035,1.168 Z m -1.928,8.072 1.512,0.868 c 0.925,0.531 1.49,0.908 1.697,1.132 0.207,0.223 0.321,0.5 0.341,0.83 0.018,0.328 -0.086,0.693 -0.314,1.089 -0.219,0.382 -0.471,0.642 -0.762,0.783 -0.289,0.141 -0.595,0.179 -0.912,0.111 -0.226,-0.05 -0.796,-0.336 -1.708,-0.861 l -1.597,-0.917 z"
       style="fill:#000000 icc-color(sRGB-IEC61966-2, 0.1, 0, 0, 0);fill-opacity:1;fill-rule:nonzero;stroke:none"
       transform="matrix(0.35277776,0,0,-0.35277776,99.978251,69.106825)"
       clip-path="url(#clipPath59)" />
    <path
       id="path60"
       d="m 103.66512,67.073055 -1.81998,-4.51309 2.82857,-1.14123 0.30833,0.76411 -2.06163,0.8308 0.40357,1.00083 1.91523,-0.77223 0.30692,0.76023 -1.91558,0.77223 0.49424,1.2252 2.13078,-0.85866 0.30797,0.7627 z"
       style="fill:#000000 icc-color(sRGB-IEC61966-2, 0.1, 0, 0, 0);fill-opacity:1;fill-rule:nonzero;stroke:none;stroke-width:0.352778" />
    <path
       id="path61"
       d="M 0,0 4.167,1.018 C 5.221,1.276 6.043,1.356 6.635,1.259 7.228,1.161 7.815,0.897 8.398,0.466 8.983,0.034 9.51,-0.584 9.979,-1.387 c 0.467,-0.803 0.86,-1.846 1.173,-3.133 0.283,-1.157 0.396,-2.198 0.335,-3.12 -0.06,-0.922 -0.236,-1.682 -0.529,-2.284 -0.291,-0.6 -0.699,-1.099 -1.223,-1.495 -0.525,-0.396 -1.248,-0.708 -2.168,-0.932 L 3.276,-13.4 Z m 2.833,-1.71 2.168,-8.866 1.713,0.419 c 0.735,0.18 1.249,0.376 1.546,0.591 0.297,0.214 0.518,0.482 0.662,0.805 0.144,0.322 0.214,0.793 0.209,1.41 -0.005,0.619 -0.124,1.405 -0.357,2.362 -0.244,0.992 -0.505,1.757 -0.785,2.294 -0.281,0.539 -0.612,0.934 -0.991,1.191 -0.379,0.255 -0.794,0.383 -1.246,0.382 -0.339,0.001 -0.968,-0.11 -1.883,-0.334 z"
       style="fill:#000000 icc-color(sRGB-IEC61966-2, 0.1, 0, 0, 0);fill-opacity:1;fill-rule:nonzero;stroke:none"
       transform="matrix(0.35277776,0,0,-0.35277776,106.13468,60.938995)"
       clip-path="url(#clipPath62)" />
    <path
       id="path63"
       d="M 0,0 2.293,-0.815 C 1.966,-2.364 1.396,-3.502 0.582,-4.23 c -0.814,-0.727 -1.826,-1.101 -3.034,-1.122 -1.517,-0.029 -2.758,0.516 -3.722,1.635 -1.11,1.29 -1.686,3.049 -1.726,5.275 -0.043,2.352 0.469,4.203 1.538,5.553 0.929,1.172 2.196,1.772 3.799,1.801 C -1.257,8.937 -0.155,8.524 0.74,7.674 1.377,7.072 1.854,6.167 2.168,4.963 L -0.146,4.261 C -0.309,5.005 -0.616,5.57 -1.067,5.962 -1.516,6.352 -2.043,6.541 -2.645,6.529 -3.505,6.514 -4.201,6.138 -4.733,5.399 -5.261,4.663 -5.512,3.456 -5.48,1.782 c 0.03,-1.737 0.318,-2.969 0.863,-3.693 0.543,-0.724 1.236,-1.077 2.083,-1.063 0.62,0.012 1.152,0.256 1.596,0.731 C -0.495,-1.767 -0.182,-1.02 0,0"
       style="fill:#000000 icc-color(sRGB-IEC61966-2, 0.1, 0, 0, 0);fill-opacity:1;fill-rule:nonzero;stroke:none"
       transform="matrix(0.35277776,0,0,-0.35277776,115.71718,62.697095)"
       clip-path="url(#clipPath64)" />
    <path
       id="path65"
       d="m 0,0 1.375,13.725 4.93,-0.494 C 7.563,13.104 8.453,12.891 8.968,12.59 9.483,12.289 9.884,11.817 10.169,11.173 10.456,10.531 10.557,9.785 10.47,8.935 10.364,7.861 10.011,7.025 9.416,6.422 8.819,5.82 8.024,5.483 7.031,5.413 7.496,5.012 7.873,4.588 8.159,4.141 8.445,3.692 8.817,2.904 9.277,1.774 l 1.138,-2.819 -2.793,0.28 -1.393,3.156 C 5.728,3.531 5.381,4.25 5.189,4.543 4.999,4.836 4.786,5.046 4.551,5.174 4.318,5.301 3.93,5.393 3.391,5.446 L 2.908,5.496 2.334,-0.235 Z M 3.128,7.686 4.864,7.512 C 5.924,7.406 6.605,7.383 6.903,7.445 7.201,7.505 7.454,7.665 7.662,7.921 7.869,8.178 7.997,8.535 8.042,8.989 8.086,9.426 8.031,9.787 7.877,10.071 7.723,10.354 7.498,10.56 7.2,10.692 6.988,10.783 6.358,10.88 5.309,10.985 L 3.477,11.17 Z"
       style="fill:#000000 icc-color(sRGB-IEC61966-2, 0.1, 0, 0, 0);fill-opacity:1;fill-rule:nonzero;stroke:none"
       transform="matrix(0.35277776,0,0,-0.35277776,117.36006,64.523465)"
       clip-path="url(#clipPath66)" />
    <path
       id="path67"
       d="M 0,0 C 0.352,1.606 0.888,2.874 1.604,3.806 2.321,4.737 3.129,5.371 4.028,5.706 4.93,6.042 5.941,6.088 7.065,5.841 8.694,5.484 9.889,4.59 10.65,3.157 11.411,1.726 11.547,-0.106 11.058,-2.336 10.565,-4.591 9.636,-6.234 8.272,-7.264 7.074,-8.177 5.657,-8.454 4.021,-8.096 2.375,-7.736 1.195,-6.896 0.486,-5.578 -0.322,-4.072 -0.483,-2.213 0,0 m 2.388,-0.427 c -0.34,-1.55 -0.291,-2.779 0.147,-3.688 0.436,-0.908 1.103,-1.46 2.001,-1.657 0.904,-0.198 1.737,0.023 2.5,0.662 0.762,0.639 1.318,1.754 1.668,3.348 C 9.046,-0.2 9.009,1.019 8.595,1.894 8.181,2.767 7.505,3.308 6.57,3.512 5.634,3.717 4.79,3.507 4.036,2.883 3.285,2.257 2.735,1.154 2.388,-0.427"
       style="fill:#000000 icc-color(sRGB-IEC61966-2, 0.1, 0, 0, 0);fill-opacity:1;fill-rule:nonzero;stroke:none"
       transform="matrix(0.35277776,0,0,-0.35277776,121.9212,62.606575)"
       clip-path="url(#clipPath68)" />
    <path
       id="path69"
       d="m 0,0 2.259,-0.495 c -0.328,-1.752 0.187,-2.86 1.547,-3.325 0.67,-0.23 1.257,-0.24 1.759,-0.031 0.501,0.209 0.839,0.566 1.012,1.071 0.102,0.296 0.121,0.571 0.057,0.824 -0.062,0.254 -0.21,0.495 -0.439,0.723 C 5.967,-1.005 5.377,-0.554 4.426,0.123 3.574,0.725 2.984,1.266 2.655,1.743 2.327,2.219 2.125,2.767 2.046,3.387 1.968,4.006 2.035,4.622 2.243,5.233 2.487,5.944 2.873,6.528 3.402,6.983 3.929,7.438 4.537,7.711 5.223,7.8 5.909,7.889 6.683,7.787 7.544,7.491 8.842,7.047 9.736,6.361 10.23,5.428 10.724,4.497 10.773,3.389 10.381,2.104 L 8.114,2.751 C 8.257,3.486 8.214,4.046 7.984,4.436 7.755,4.826 7.341,5.124 6.742,5.329 6.146,5.535 5.641,5.571 5.234,5.44 4.827,5.308 4.561,5.061 4.437,4.701 4.316,4.346 4.361,3.996 4.572,3.654 4.782,3.311 5.368,2.812 6.324,2.159 7.335,1.461 8.03,0.854 8.408,0.336 8.788,-0.183 9.016,-0.761 9.09,-1.399 9.164,-2.038 9.068,-2.749 8.8,-3.532 8.41,-4.666 7.727,-5.494 6.743,-6.021 5.762,-6.545 4.505,-6.546 2.978,-6.023 0.276,-5.097 -0.717,-3.09 0,0"
       style="fill:#000000 icc-color(sRGB-IEC61966-2, 0.1, 0, 0, 0);fill-opacity:1;fill-rule:nonzero;stroke:none"
       transform="matrix(0.35277776,0,0,-0.35277776,126.32189,64.463485)"
       clip-path="url(#clipPath70)" />
    <path
       id="path71"
       d="M 0,0 2.188,-0.745 C 1.667,-2.448 2.056,-3.608 3.353,-4.22 3.994,-4.525 4.577,-4.601 5.1,-4.45 c 0.522,0.152 0.897,0.469 1.126,0.952 0.133,0.282 0.182,0.555 0.148,0.813 C 6.339,-2.426 6.222,-2.172 6.02,-1.919 5.816,-1.668 5.281,-1.152 4.412,-0.373 3.633,0.32 3.107,0.923 2.834,1.434 2.56,1.944 2.42,2.512 2.412,3.137 2.404,3.762 2.538,4.365 2.814,4.95 3.136,5.629 3.585,6.165 4.161,6.558 4.736,6.952 5.371,7.155 6.063,7.166 6.754,7.179 7.512,6.991 8.336,6.601 9.574,6.015 10.386,5.231 10.772,4.25 11.158,3.269 11.085,2.162 10.552,0.929 L 8.371,1.827 C 8.594,2.54 8.613,3.104 8.431,3.517 8.247,3.928 7.869,4.271 7.296,4.543 6.725,4.813 6.23,4.906 5.81,4.821 5.39,4.736 5.098,4.52 4.936,4.175 4.774,3.836 4.78,3.484 4.952,3.119 5.123,2.754 5.649,2.194 6.527,1.438 7.453,0.631 8.076,-0.051 8.393,-0.608 8.712,-1.163 8.873,-1.764 8.876,-2.407 8.879,-3.05 8.703,-3.746 8.349,-4.494 7.837,-5.577 7.062,-6.324 6.027,-6.737 4.992,-7.15 3.745,-7.009 2.285,-6.318 -0.296,-5.096 -1.058,-2.99 0,0"
       style="fill:#000000 icc-color(sRGB-IEC61966-2, 0.1, 0, 0, 0);fill-opacity:1;fill-rule:nonzero;stroke:none"
       transform="matrix(0.35277776,0,0,-0.35277776,130.1943,65.828735)"
       clip-path="url(#clipPath72)" />
    <path
       id="path73"
       d="M 0,0 2.039,-1.138 C 1.222,-2.723 1.404,-3.937 2.579,-4.782 3.163,-5.2 3.727,-5.383 4.27,-5.329 c 0.545,0.053 0.973,0.296 1.284,0.729 0.182,0.256 0.279,0.513 0.291,0.775 0.01,0.262 -0.062,0.537 -0.218,0.822 -0.156,0.286 -0.596,0.892 -1.32,1.82 C 3.658,-0.355 3.242,0.337 3.062,0.892 2.88,1.444 2.841,2.031 2.942,2.647 3.044,3.266 3.283,3.836 3.66,4.361 4.099,4.972 4.637,5.419 5.277,5.7 5.917,5.981 6.58,6.064 7.268,5.949 7.956,5.833 8.674,5.509 9.422,4.971 10.545,4.165 11.212,3.243 11.423,2.205 11.633,1.164 11.365,0.087 10.621,-1.031 L 8.616,0.257 C 8.962,0.919 9.082,1.471 8.972,1.912 8.863,2.352 8.55,2.76 8.03,3.133 7.511,3.505 7.036,3.689 6.605,3.682 6.175,3.675 5.849,3.517 5.626,3.206 5.407,2.902 5.35,2.554 5.456,2.162 5.561,1.771 5.982,1.122 6.721,0.214 7.497,-0.753 7.994,-1.54 8.212,-2.146 8.43,-2.756 8.482,-3.377 8.373,-4.012 8.262,-4.646 7.966,-5.301 7.483,-5.973 6.785,-6.946 5.887,-7.541 4.788,-7.755 3.69,-7.971 2.478,-7.604 1.154,-6.654 -1.19,-4.972 -1.574,-2.755 0,0"
       style="fill:#000000 icc-color(sRGB-IEC61966-2, 0.1, 0, 0, 0);fill-opacity:1;fill-rule:nonzero;stroke:none"
       transform="matrix(0.35277776,0,0,-0.35277776,135.55038,68.612965)"
       clip-path="url(#clipPath74)" />
    <path
       id="path75"
       d="m 0,0 c 1.138,1.185 2.257,1.987 3.36,2.405 1.1,0.417 2.125,0.53 3.074,0.342 0.949,-0.188 1.842,-0.685 2.682,-1.488 1.215,-1.166 1.776,-2.561 1.685,-4.187 -0.09,-1.626 -0.925,-3.263 -2.506,-4.911 -1.598,-1.666 -3.252,-2.579 -4.96,-2.739 -1.506,-0.147 -2.869,0.364 -4.087,1.535 -1.23,1.178 -1.808,2.518 -1.732,4.019 C -2.395,-3.31 -1.567,-1.636 0,0 M 1.831,-1.627 C 0.734,-2.772 0.136,-3.848 0.038,-4.855 c -0.096,-1.008 0.19,-1.831 0.86,-2.474 0.674,-0.647 1.506,-0.899 2.495,-0.756 0.988,0.143 2.047,0.803 3.175,1.981 1.108,1.154 1.711,2.214 1.809,3.181 0.098,0.966 -0.201,1.783 -0.9,2.453 C 6.78,0.2 5.945,0.465 4.972,0.33 4,0.194 2.952,-0.46 1.831,-1.627"
       style="fill:#000000 icc-color(sRGB-IEC61966-2, 0.1, 0, 0, 0);fill-opacity:1;fill-rule:nonzero;stroke:none"
       transform="matrix(0.35277776,0,0,-0.35277776,139.4212,70.421805)"
       clip-path="url(#clipPath76)" />
    <path
       id="path77"
       d="m 0,0 0.71,-2.348 c -1.447,-0.648 -2.706,-0.855 -3.777,-0.621 -1.072,0.235 -1.979,0.837 -2.717,1.809 -0.927,1.221 -1.227,2.554 -0.898,4 0.381,1.664 1.458,3.172 3.231,4.519 1.874,1.423 3.674,2.096 5.4,2.022 C 3.45,9.316 4.689,8.638 5.669,7.347 6.466,6.297 6.789,5.157 6.637,3.925 6.531,3.049 6.084,2.128 5.299,1.161 L 3.353,2.634 C 3.856,3.204 4.131,3.789 4.178,4.387 4.224,4.984 4.063,5.525 3.697,6.01 3.171,6.7 2.451,7.046 1.541,7.042 0.629,7.039 -0.495,6.531 -1.829,5.518 -3.211,4.467 -4.035,3.506 -4.296,2.637 -4.556,1.767 -4.427,0.992 -3.91,0.311 c 0.379,-0.5 0.892,-0.789 1.54,-0.87 C -1.721,-0.639 -0.931,-0.452 0,0"
       style="fill:#000000 icc-color(sRGB-IEC61966-2, 0.1, 0, 0, 0);fill-opacity:1;fill-rule:nonzero;stroke:none"
       transform="matrix(0.35277776,0,0,-0.35277776,144.06636,76.431505)"
       clip-path="url(#clipPath78)" />
    <path
       id="path79"
       d="m 143.45243,78.765705 4.1723,-2.50437 0.42969,0.71614 -4.17266,2.50472 z"
       style="fill:#000000 icc-color(sRGB-IEC61966-2, 0.1, 0, 0, 0);fill-opacity:1;fill-rule:nonzero;stroke:none;stroke-width:0.352778" />
    <path
       id="path80"
       d="m 144.30258,80.154375 4.40725,-2.0634 1.30563,2.78906 -0.74542,0.34925 -0.95144,-2.03235 -0.97719,0.45755 0.88441,1.88807 -0.7426,0.34784 -0.88406,-1.88842 -1.19697,0.56021 0.98354,2.10115 -0.74577,0.34889 z"
       style="fill:#000000 icc-color(sRGB-IEC61966-2, 0.1, 0, 0, 0);fill-opacity:1;fill-rule:nonzero;stroke:none;stroke-width:0.352778" />
    <path
       id="path81"
       d="m 146.14095,84.530975 3.85762,-1.20967 -0.3683,-1.17617 0.78564,-0.24623 0.98601,3.14607 -0.78528,0.24588 -0.36795,-1.17228 -3.85797,1.20968 z"
       style="fill:#000000 icc-color(sRGB-IEC61966-2, 0.1, 0, 0, 0);fill-opacity:1;fill-rule:nonzero;stroke:none;stroke-width:0.352778" />
    <path
       id="path82"
       d="m 147.06272,88.076355 2.01612,-0.3623 2.50437,-1.99355 0.17357,0.96449 -1.7212,1.30034 2.0641,0.60608 0.17039,0.94791 -3.04976,-1.00224 -2.00978,0.36159 z"
       style="fill:#000000 icc-color(sRGB-IEC61966-2, 0.1, 0, 0, 0);fill-opacity:1;fill-rule:nonzero;stroke:none;stroke-width:0.352778" />
    <path
       id="path83"
       d="m 148.9584,93.639235 0.93239,0.0187 -0.0307,1.56351 -0.93274,-0.0187 z"
       style="fill:#000000 icc-color(sRGB-IEC61966-2, 0.1, 0, 0, 0);fill-opacity:1;fill-rule:nonzero;stroke:none;stroke-width:0.352778" />
  </g>
</svg>
