<?xml version="1.0" encoding="UTF-8" standalone="no"?>
<svg
   xmlns:dc="http://purl.org/dc/elements/1.1/"
   xmlns:cc="http://creativecommons.org/ns#"
   xmlns:rdf="http://www.w3.org/1999/02/22-rdf-syntax-ns#"
   xmlns:svg="http://www.w3.org/2000/svg"
   xmlns="http://www.w3.org/2000/svg"
   viewBox="0 0 169.93333 169.81332"
   height="169.81332"
   width="169.93333"
   xml:space="preserve"
   id="svg2"
   version="1.1"><metadata
     id="metadata8"><rdf:RDF><cc:Work
         rdf:about=""><dc:format>image/svg+xml</dc:format><dc:type
           rdf:resource="http://purl.org/dc/dcmitype/StillImage" /><dc:title></dc:title></cc:Work></rdf:RDF></metadata><defs
     id="defs6" /><g
     transform="matrix(1.3333333,0,0,-1.3333333,0,169.81333)"
     id="g10"><g
       transform="scale(0.1)"
       id="g12"><path
         id="path14"
         style="fill:#ec1d27;fill-opacity:1;fill-rule:nonzero;stroke:none"
         d="M 1067.16,208.941 C 952.473,93.8711 800.227,30.3203 638.469,30 h -1.231 C 303.074,30 30.6641,301.66 30,635.578 c -0.3203,161.625 62.6641,314.008 177.355,429.062 114.692,115.07 266.938,178.62 428.692,178.94 h 1.23 c 334.164,0 606.573,-271.658 607.233,-605.58 0.33,-161.633 -62.66,-314.004 -177.35,-429.059 z M 637.277,1273.58 h -1.289 C 466.227,1273.24 306.457,1206.56 186.109,1085.82 65.7578,965.086 -0.335938,805.164 0,635.52 0.699219,285.09 286.563,0 637.238,0 h 1.289 c 169.766,0.339844 329.536,67.0195 449.883,187.75 120.35,120.746 186.44,280.668 186.1,450.309 -0.7,350.429 -286.561,635.521 -637.233,635.521" /><path
         id="path16"
         style="fill:#ec1d27;fill-opacity:1;fill-rule:nonzero;stroke:none"
         d="m 637.238,282.07 c -195.343,0 -354.586,158.809 -354.972,354.004 -0.192,94.485 36.632,183.563 103.679,250.821 67.047,67.273 156.047,104.418 251.321,104.605 195.347,0 354.597,-158.809 354.98,-354.008 C 992.637,441.906 833.707,282.461 637.965,282.07 Z m -0.746,739.43 C 533.922,1021.3 437.398,981.016 364.699,908.078 291.992,835.133 252.063,738.516 252.266,636.016 252.688,424.309 425.387,252.07 637.238,252.07 h 0.785 C 850.309,252.5 1022.67,425.422 1022.25,637.551 1021.83,849.258 849.121,1021.5 636.492,1021.5" /><path
         id="path18"
         style="fill:#ec1d27;fill-opacity:1;fill-rule:nonzero;stroke:none"
         d="m 220.023,566.738 -107.253,-4.843 -1.465,32.414 72.285,22.773 -74.043,15.938 -1.465,32.488 107.266,4.844 0.91,-20.118 -84.445,-3.816 85.41,-17.473 0.937,-20.867 -83.476,-25.031 84.433,3.82 0.906,-20.129" /><path
         id="path20"
         style="fill:none;stroke:#ec1d27;stroke-width:2.16000009;stroke-linecap:butt;stroke-linejoin:miter;stroke-miterlimit:2.41420007;stroke-dasharray:none;stroke-opacity:1"
         d="m 220.023,566.738 -107.253,-4.843 -1.465,32.414 72.285,22.773 -74.043,15.938 -1.465,32.488 107.266,4.844 0.91,-20.118 -84.445,-3.816 85.41,-17.473 0.937,-20.867 -83.476,-25.031 84.433,3.82 z" /><path
         id="path22"
         style="fill:#ec1d27;fill-opacity:1;fill-rule:nonzero;stroke:none"
         d="m 188.949,751.379 -42.117,-5.715 35.703,-22.879 z m 50.188,29.637 -5.157,-23.008 -25.847,-3.809 -9.406,-41.875 21.867,-13.992 -5.051,-22.434 -95.605,64.317 5.019,22.363 114.18,18.438" /><path
         id="path24"
         style="fill:none;stroke:#ec1d27;stroke-width:2.16000009;stroke-linecap:butt;stroke-linejoin:miter;stroke-miterlimit:2.41420007;stroke-dasharray:none;stroke-opacity:1"
         d="m 188.949,751.379 -42.117,-5.715 35.703,-22.879 z m 50.188,29.637 -5.157,-23.008 -25.847,-3.809 -9.406,-41.875 21.867,-13.992 -5.051,-22.434 -95.605,64.317 5.019,22.363 z" /><path
         id="path26"
         style="fill:#ec1d27;fill-opacity:1;fill-rule:nonzero;stroke:none"
         d="m 243.816,787.773 -96.007,46.086 9.382,19.551 79.692,-38.262 23.328,48.594 16.316,-7.832 -32.711,-68.137" /><path
         id="path28"
         style="fill:none;stroke:#ec1d27;stroke-width:2.16000009;stroke-linecap:butt;stroke-linejoin:miter;stroke-miterlimit:2.41420007;stroke-dasharray:none;stroke-opacity:1"
         d="m 243.816,787.773 -96.007,46.086 9.382,19.551 79.692,-38.262 23.328,48.594 16.316,-7.832 z" /><path
         id="path30"
         style="fill:#ec1d27;fill-opacity:1;fill-rule:nonzero;stroke:none"
         d="m 284.625,936.563 -40.363,13.3 22.09,-36.191 z m 58.113,4.699 -14.707,-18.43 -24.91,7.891 -26.777,-33.543 13.523,-22.149 -14.344,-17.968 -57.832,99.667 14.305,17.918 110.742,-33.386" /><path
         id="path32"
         style="fill:none;stroke:#ec1d27;stroke-width:2.16000009;stroke-linecap:butt;stroke-linejoin:miter;stroke-miterlimit:2.41420007;stroke-dasharray:none;stroke-opacity:1"
         d="m 284.625,936.563 -40.363,13.3 22.09,-36.191 z m 58.113,4.699 -14.707,-18.43 -24.91,7.891 -26.777,-33.543 13.523,-22.149 -14.344,-17.968 -57.832,99.667 14.305,17.918 z" /><path
         id="path34"
         style="fill:#ec1d27;fill-opacity:1;fill-rule:nonzero;stroke:none"
         d="m 353.297,949.797 -84.094,71.513 17.91,13.1 56.621,-49.965 -27.722,71.115 20.808,15.23 59.485,-49.41 -30.996,70.25 17.617,12.9 42.363,-102.06 -18.555,-13.572 -64.668,52.152 30.204,-77.378 -18.973,-13.875" /><path
         id="path36"
         style="fill:none;stroke:#ec1d27;stroke-width:2.16000009;stroke-linecap:butt;stroke-linejoin:miter;stroke-miterlimit:2.41420007;stroke-dasharray:none;stroke-opacity:1"
         d="m 353.297,949.797 -84.094,71.513 17.91,13.1 56.621,-49.965 -27.722,71.115 20.808,15.23 59.485,-49.41 -30.996,70.25 17.617,12.9 42.363,-102.06 -18.555,-13.572 -64.668,52.152 30.204,-77.378 z" /><path
         id="path38"
         style="fill:#ec1d27;fill-opacity:1;fill-rule:nonzero;stroke:none"
         d="m 455.355,1015.82 -43.933,97.98 19.773,8.87 43.946,-97.97 -19.786,-8.88" /><path
         id="path40"
         style="fill:none;stroke:#ec1d27;stroke-width:2.16000009;stroke-linecap:butt;stroke-linejoin:miter;stroke-miterlimit:2.41420007;stroke-dasharray:none;stroke-opacity:1"
         d="m 455.355,1015.82 -43.933,97.98 19.773,8.87 43.946,-97.97 z" /><path
         id="path42"
         style="fill:#ec1d27;fill-opacity:1;fill-rule:nonzero;stroke:none"
         d="m 541.324,1109.89 15.84,2.51 c 10.274,1.64 16.621,3.08 19.031,4.35 2.422,1.28 4.192,3.09 5.293,5.44 1.114,2.34 1.418,5.11 0.918,8.3 -0.562,3.56 -1.98,6.3 -4.226,8.19 -2.246,1.9 -5.157,2.86 -8.731,2.88 -1.769,-0.02 -6.992,-0.74 -15.676,-2.11 l -16.707,-2.64 z m -11.73,-64.58 -16.785,106.05 45.07,7.14 c 11.336,1.79 19.723,2.14 25.164,1.04 5.43,-1.09 10.078,-3.82 13.934,-8.2 3.859,-4.39 6.281,-9.72 7.277,-15.98 1.258,-7.96 -0.051,-14.9 -3.899,-20.83 -3.855,-5.92 -10.332,-10.29 -19.429,-13.12 5.054,-1.96 9.344,-4.33 12.879,-7.08 3.523,-2.76 8.496,-7.85 14.922,-15.29 l 16.211,-18.64 -25.606,-4.05 -19.133,20.62 c -6.804,7.39 -11.394,11.99 -13.758,13.8 -2.351,1.83 -4.746,2.96 -7.128,3.4 -2.391,0.43 -6.055,0.26 -10.969,-0.51 l -4.344,-0.69 7.004,-44.28 -21.41,-3.38" /><path
         id="path44"
         style="fill:none;stroke:#ec1d27;stroke-width:2.16000009;stroke-linecap:butt;stroke-linejoin:miter;stroke-miterlimit:2.41420007;stroke-dasharray:none;stroke-opacity:1"
         d="m 541.324,1109.89 15.84,2.51 c 10.274,1.64 16.621,3.08 19.031,4.35 2.422,1.28 4.192,3.09 5.293,5.44 1.114,2.34 1.418,5.11 0.918,8.3 -0.562,3.56 -1.98,6.3 -4.226,8.19 -2.246,1.9 -5.157,2.86 -8.731,2.88 -1.769,-0.02 -6.992,-0.74 -15.676,-2.11 l -16.707,-2.64 z m -11.73,-64.58 -16.785,106.05 45.07,7.14 c 11.336,1.79 19.723,2.14 25.164,1.04 5.43,-1.09 10.078,-3.82 13.934,-8.2 3.859,-4.39 6.281,-9.72 7.277,-15.98 1.258,-7.96 -0.051,-14.9 -3.899,-20.83 -3.855,-5.92 -10.332,-10.29 -19.429,-13.12 5.054,-1.96 9.344,-4.33 12.879,-7.08 3.523,-2.76 8.496,-7.85 14.922,-15.29 l 16.211,-18.64 -25.606,-4.05 -19.133,20.62 c -6.804,7.39 -11.394,11.99 -13.758,13.8 -2.351,1.83 -4.746,2.96 -7.128,3.4 -2.391,0.43 -6.055,0.26 -10.969,-0.51 l -4.344,-0.69 7.004,-44.28 z" /><path
         id="path46"
         style="fill:#ec1d27;fill-opacity:1;fill-rule:nonzero;stroke:none"
         d="m 632.34,1059 8.68,107.03 79.359,-6.45 -1.469,-18.1 -57.754,4.68 -1.922,-23.73 53.731,-4.35 -1.465,-18.04 -53.73,4.37 -2.364,-29.14 59.793,-4.85 -1.465,-18.03 -81.394,6.61" /><path
         id="path48"
         style="fill:none;stroke:#ec1d27;stroke-width:2.16000009;stroke-linecap:butt;stroke-linejoin:miter;stroke-miterlimit:2.41420007;stroke-dasharray:none;stroke-opacity:1"
         d="m 632.34,1059 8.68,107.03 79.359,-6.45 -1.469,-18.1 -57.754,4.68 -1.922,-23.73 53.731,-4.35 -1.465,-18.04 -53.73,4.37 -2.364,-29.14 59.793,-4.85 -1.465,-18.03 z" /><path
         id="path50"
         style="fill:#ec1d27;fill-opacity:1;fill-rule:nonzero;stroke:none"
         d="m 775.727,1127.7 -22.247,-67.56 15.372,-5.06 c 5.753,-1.9 10.011,-2.94 12.785,-3.13 3.601,-0.26 6.843,0.24 9.707,1.51 2.859,1.27 5.742,3.95 8.633,8.06 2.89,4.12 5.644,10.11 8.242,17.99 2.597,7.89 3.886,14.17 3.886,18.85 0,4.68 -0.859,8.61 -2.578,11.81 -1.738,3.18 -4.386,5.84 -7.961,7.94 -2.664,1.59 -8.191,3.77 -16.582,6.54 z m -14.911,24.03 37.637,-12.39 c 8.496,-2.8 14.746,-5.59 18.777,-8.35 5.391,-3.73 9.485,-8.55 12.278,-14.45 2.785,-5.9 4.219,-12.49 4.297,-19.73 0.086,-7.25 -1.457,-15.66 -4.602,-25.21 -2.762,-8.4 -6.18,-15.28 -10.273,-20.67 -5,-6.58 -10.614,-11.39 -16.864,-14.43 -4.707,-2.3 -10.429,-3.42 -17.148,-3.36 -5.02,0.06 -11.328,1.33 -18.926,3.84 l -38.762,12.77 33.586,101.98" /><path
         id="path52"
         style="fill:none;stroke:#ec1d27;stroke-width:2.16000009;stroke-linecap:butt;stroke-linejoin:miter;stroke-miterlimit:2.41420007;stroke-dasharray:none;stroke-opacity:1"
         d="m 775.727,1127.7 -22.247,-67.56 15.372,-5.06 c 5.753,-1.9 10.011,-2.94 12.785,-3.13 3.601,-0.26 6.843,0.24 9.707,1.51 2.859,1.27 5.742,3.95 8.633,8.06 2.89,4.12 5.644,10.11 8.242,17.99 2.597,7.89 3.886,14.17 3.886,18.85 0,4.68 -0.859,8.61 -2.578,11.81 -1.738,3.18 -4.386,5.84 -7.961,7.94 -2.664,1.59 -8.191,3.77 -16.582,6.54 z m -14.911,24.03 37.637,-12.39 c 8.496,-2.8 14.746,-5.59 18.777,-8.35 5.391,-3.73 9.485,-8.55 12.278,-14.45 2.785,-5.9 4.219,-12.49 4.297,-19.73 0.086,-7.25 -1.457,-15.66 -4.602,-25.21 -2.762,-8.4 -6.18,-15.28 -10.273,-20.67 -5,-6.58 -10.614,-11.39 -16.864,-14.43 -4.707,-2.3 -10.429,-3.42 -17.148,-3.36 -5.02,0.06 -11.328,1.33 -18.926,3.84 l -38.762,12.77 z" /><path
         id="path54"
         style="fill:#ec1d27;fill-opacity:1;fill-rule:nonzero;stroke:none"
         d="m 939.254,984.473 12.527,-18.145 c -9.726,-7.285 -19.304,-10.887 -28.711,-10.789 -9.402,0.106 -18.66,3.672 -27.769,10.731 -11.274,8.742 -17.539,19.765 -18.832,33.097 -1.289,13.323 3.246,26.653 13.597,40.013 10.946,14.12 23.094,22.26 36.454,24.42 13.339,2.17 25.964,-1.37 37.851,-10.58 10.371,-8.04 16.426,-17.65 18.164,-28.81 1.043,-6.62 -0.097,-14.07 -3.437,-22.36 l -20.098,9.1 c 2.402,5.17 3.008,10.27 1.797,15.29 -1.211,5.01 -4.102,9.28 -8.641,12.81 -6.301,4.88 -13.156,6.58 -20.566,5.1 -7.422,-1.48 -15.051,-7.28 -22.883,-17.39 -8.32,-10.73 -12.305,-19.86 -11.98,-27.409 0.328,-7.539 3.582,-13.711 9.753,-18.496 4.551,-3.535 9.59,-5.117 15.118,-4.766 5.527,0.344 11.406,3.078 17.656,8.184" /><path
         id="path56"
         style="fill:none;stroke:#ec1d27;stroke-width:2.16000009;stroke-linecap:butt;stroke-linejoin:miter;stroke-miterlimit:2.41420007;stroke-dasharray:none;stroke-opacity:1"
         d="m 939.254,984.473 12.527,-18.145 c -9.726,-7.285 -19.304,-10.887 -28.711,-10.789 -9.402,0.106 -18.66,3.672 -27.769,10.731 -11.274,8.742 -17.539,19.765 -18.832,33.097 -1.289,13.323 3.246,26.653 13.597,40.013 10.946,14.12 23.094,22.26 36.454,24.42 13.339,2.17 25.964,-1.37 37.851,-10.58 10.371,-8.04 16.426,-17.65 18.164,-28.81 1.043,-6.62 -0.097,-14.07 -3.437,-22.36 l -20.098,9.1 c 2.402,5.17 3.008,10.27 1.797,15.29 -1.211,5.01 -4.102,9.28 -8.641,12.81 -6.301,4.88 -13.156,6.58 -20.566,5.1 -7.422,-1.48 -15.051,-7.28 -22.883,-17.39 -8.32,-10.73 -12.305,-19.86 -11.98,-27.409 0.328,-7.539 3.582,-13.711 9.753,-18.496 4.551,-3.535 9.59,-5.117 15.118,-4.766 5.527,0.344 11.406,3.078 17.656,8.184 z" /><path
         id="path58"
         style="fill:#ec1d27;fill-opacity:1;fill-rule:nonzero;stroke:none"
         d="m 1003.38,951.543 9.9,-12.605 c 6.43,-8.196 10.78,-13.028 13.07,-14.524 2.29,-1.492 4.74,-2.148 7.34,-1.973 2.58,0.176 5.14,1.25 7.68,3.243 2.85,2.226 4.54,4.796 5.1,7.687 0.56,2.879 -0.02,5.887 -1.73,9.024 -0.9,1.531 -4.06,5.75 -9.48,12.664 l -10.45,13.312 z m -62.122,-21.199 84.462,66.289 28.16,-35.879 c 7.09,-9.035 11.49,-16.191 13.19,-21.465 1.68,-5.285 1.56,-10.676 -0.39,-16.184 -1.96,-5.496 -5.43,-10.214 -10.42,-14.128 -6.34,-4.973 -13.04,-7.219 -20.08,-6.739 -7.06,0.477 -14.04,4.004 -20.93,10.575 0.74,-5.372 0.77,-10.262 0.09,-14.688 -0.7,-4.422 -2.73,-11.25 -6.1,-20.469 l -8.38,-23.25 -16.012,20.391 8.703,26.758 c 3.125,9.539 4.922,15.781 5.351,18.738 0.45,2.949 0.282,5.578 -0.496,7.883 -0.785,2.304 -2.707,5.418 -5.793,9.324 l -2.715,3.457 -35.261,-27.676 -13.379,17.063" /><path
         id="path60"
         style="fill:none;stroke:#ec1d27;stroke-width:2.16000009;stroke-linecap:butt;stroke-linejoin:miter;stroke-miterlimit:2.41420007;stroke-dasharray:none;stroke-opacity:1"
         d="m 1003.38,951.543 9.9,-12.605 c 6.43,-8.196 10.78,-13.028 13.07,-14.524 2.29,-1.492 4.74,-2.148 7.34,-1.973 2.58,0.176 5.14,1.25 7.68,3.243 2.85,2.226 4.54,4.796 5.1,7.687 0.56,2.879 -0.02,5.887 -1.73,9.024 -0.9,1.531 -4.06,5.75 -9.48,12.664 l -10.45,13.312 z m -62.122,-21.199 84.462,66.289 28.16,-35.879 c 7.09,-9.035 11.49,-16.191 13.19,-21.465 1.68,-5.285 1.56,-10.676 -0.39,-16.184 -1.96,-5.496 -5.43,-10.214 -10.42,-14.128 -6.34,-4.973 -13.04,-7.219 -20.08,-6.739 -7.06,0.477 -14.04,4.004 -20.93,10.575 0.74,-5.372 0.77,-10.262 0.09,-14.688 -0.7,-4.422 -2.73,-11.25 -6.1,-20.469 l -8.38,-23.25 -16.012,20.391 8.703,26.758 c 3.125,9.539 4.922,15.781 5.351,18.738 0.45,2.949 0.282,5.578 -0.496,7.883 -0.785,2.304 -2.707,5.418 -5.793,9.324 l -2.715,3.457 -35.261,-27.676 z" /><path
         id="path62"
         style="fill:#ec1d27;fill-opacity:1;fill-rule:nonzero;stroke:none"
         d="m 1060.32,852.734 c -11.16,-4.812 -18.51,-11.054 -22.03,-18.699 -3.54,-7.637 -3.59,-15.441 -0.15,-23.371 3.42,-7.93 9.1,-13.211 17.01,-15.809 7.91,-2.609 17.58,-1.464 29.01,3.485 11.3,4.883 18.65,10.996 22.07,18.359 3.41,7.356 3.35,15.137 -0.2,23.34 -3.55,8.203 -9.22,13.594 -17.01,16.172 -7.79,2.598 -17.36,1.437 -28.7,-3.477 z m -9.54,20.227 c 10.04,4.344 19.11,6.473 27.22,6.426 5.98,-0.078 11.81,-1.184 17.48,-3.332 5.66,-2.157 10.46,-5.125 14.38,-8.907 5.25,-5.019 9.62,-11.531 13.09,-19.558 6.28,-14.512 6.8,-28.078 1.57,-40.703 -5.25,-12.598 -15.88,-22.383 -31.93,-29.309 -15.91,-6.894 -30.23,-7.949 -42.95,-3.191 -12.73,4.765 -22.22,14.383 -28.49,28.855 -6.34,14.66 -6.91,28.242 -1.7,40.762 5.19,12.519 15.64,22.168 31.33,28.957" /><path
         id="path64"
         style="fill:none;stroke:#ec1d27;stroke-width:2.16000009;stroke-linecap:butt;stroke-linejoin:miter;stroke-miterlimit:2.41420007;stroke-dasharray:none;stroke-opacity:1"
         d="m 1060.32,852.734 c -11.16,-4.812 -18.51,-11.054 -22.03,-18.699 -3.54,-7.637 -3.59,-15.441 -0.15,-23.371 3.42,-7.93 9.1,-13.211 17.01,-15.809 7.91,-2.609 17.58,-1.464 29.01,3.485 11.3,4.883 18.65,10.996 22.07,18.359 3.41,7.356 3.35,15.137 -0.2,23.34 -3.55,8.203 -9.22,13.594 -17.01,16.172 -7.79,2.598 -17.36,1.437 -28.7,-3.477 z m -9.54,20.227 c 10.04,4.344 19.11,6.473 27.22,6.426 5.98,-0.078 11.81,-1.184 17.48,-3.332 5.66,-2.157 10.46,-5.125 14.38,-8.907 5.25,-5.019 9.62,-11.531 13.09,-19.558 6.28,-14.512 6.8,-28.078 1.57,-40.703 -5.25,-12.598 -15.88,-22.383 -31.93,-29.309 -15.91,-6.894 -30.23,-7.949 -42.95,-3.191 -12.73,4.765 -22.22,14.383 -28.49,28.855 -6.34,14.66 -6.91,28.242 -1.7,40.762 5.19,12.519 15.64,22.168 31.33,28.957 z" /><path
         id="path66"
         style="fill:#ec1d27;fill-opacity:1;fill-rule:nonzero;stroke:none"
         d="m 1078.93,755.254 5.48,-20.469 c -6.78,-2.422 -11.47,-5.808 -14.12,-10.183 -2.63,-4.375 -3.42,-9.817 -2.32,-16.321 1.14,-6.883 3.45,-11.836 6.95,-14.832 3.49,-3.019 7.2,-4.191 11.09,-3.547 2.51,0.411 4.51,1.504 6.04,3.274 1.5,1.758 2.61,4.578 3.3,8.457 0.45,2.644 1.04,8.613 1.78,17.89 0.93,11.934 3.08,20.567 6.46,25.879 4.74,7.461 11.31,11.903 19.69,13.301 5.41,0.887 10.7,0.203 15.9,-2.07 5.2,-2.285 9.52,-6.106 12.93,-11.445 3.41,-5.344 5.8,-12.102 7.15,-20.235 2.22,-13.293 0.96,-23.781 -3.75,-31.476 -4.71,-7.684 -11.9,-12.508 -21.57,-14.461 l -4.51,21.23 c 5.29,1.824 8.89,4.434 10.77,7.84 1.89,3.41 2.33,8.117 1.32,14.152 -1.04,6.2 -3.12,10.86 -6.25,13.946 -2.01,1.992 -4.39,2.761 -7.15,2.304 -2.5,-0.41 -4.46,-1.828 -5.9,-4.238 -1.81,-3.086 -3.08,-10.02 -3.81,-20.84 -0.73,-10.812 -1.98,-18.937 -3.78,-24.347 -1.8,-5.418 -4.73,-9.922 -8.82,-13.497 -4.09,-3.574 -9.48,-5.918 -16.17,-7.031 -6.06,-1.015 -12.03,-0.273 -17.89,2.219 -5.86,2.488 -10.58,6.609 -14.2,12.332 -3.59,5.742 -6.17,13.215 -7.69,22.414 -2.22,13.387 -0.84,24.18 4.16,32.391 4.99,8.203 13.29,13.996 24.91,17.363" /><path
         id="path68"
         style="fill:none;stroke:#ec1d27;stroke-width:2.16000009;stroke-linecap:butt;stroke-linejoin:miter;stroke-miterlimit:2.41420007;stroke-dasharray:none;stroke-opacity:1"
         d="m 1078.93,755.254 5.48,-20.469 c -6.78,-2.422 -11.47,-5.808 -14.12,-10.183 -2.63,-4.375 -3.42,-9.817 -2.32,-16.321 1.14,-6.883 3.45,-11.836 6.95,-14.832 3.49,-3.019 7.2,-4.191 11.09,-3.547 2.51,0.411 4.51,1.504 6.04,3.274 1.5,1.758 2.61,4.578 3.3,8.457 0.45,2.644 1.04,8.613 1.78,17.89 0.93,11.934 3.08,20.567 6.46,25.879 4.74,7.461 11.31,11.903 19.69,13.301 5.41,0.887 10.7,0.203 15.9,-2.07 5.2,-2.285 9.52,-6.106 12.93,-11.445 3.41,-5.344 5.8,-12.102 7.15,-20.235 2.22,-13.293 0.96,-23.781 -3.75,-31.476 -4.71,-7.684 -11.9,-12.508 -21.57,-14.461 l -4.51,21.23 c 5.29,1.824 8.89,4.434 10.77,7.84 1.89,3.41 2.33,8.117 1.32,14.152 -1.04,6.2 -3.12,10.86 -6.25,13.946 -2.01,1.992 -4.39,2.761 -7.15,2.304 -2.5,-0.41 -4.46,-1.828 -5.9,-4.238 -1.81,-3.086 -3.08,-10.02 -3.81,-20.84 -0.73,-10.812 -1.98,-18.937 -3.78,-24.347 -1.8,-5.418 -4.73,-9.922 -8.82,-13.497 -4.09,-3.574 -9.48,-5.918 -16.17,-7.031 -6.06,-1.015 -12.03,-0.273 -17.89,2.219 -5.86,2.488 -10.58,6.609 -14.2,12.332 -3.59,5.742 -6.17,13.215 -7.69,22.414 -2.22,13.387 -0.84,24.18 4.16,32.391 4.99,8.203 13.29,13.996 24.91,17.363 z" /><path
         id="path70"
         style="fill:#ec1d27;fill-opacity:1;fill-rule:nonzero;stroke:none"
         d="m 1094.32,652.824 0.72,-21.183 c -7.15,-0.821 -12.5,-3.055 -16.07,-6.719 -3.54,-3.66 -5.55,-8.777 -5.96,-15.371 -0.44,-6.973 0.71,-12.305 3.43,-16.035 2.73,-3.711 6.07,-5.703 10,-5.946 2.54,-0.168 4.75,0.45 6.62,1.817 1.88,1.375 3.58,3.875 5.13,7.5 1.03,2.468 2.97,8.152 5.77,17.019 3.61,11.418 7.66,19.328 12.15,23.742 6.32,6.211 13.71,9.043 22.19,8.504 5.46,-0.339 10.47,-2.214 15.02,-5.613 4.56,-3.391 7.89,-8.086 10.01,-14.055 2.12,-5.984 2.92,-13.093 2.4,-21.336 -0.86,-13.449 -4.44,-23.39 -10.77,-29.804 -6.34,-6.426 -14.44,-9.504 -24.29,-9.219 l 0.42,21.699 c 5.56,0.574 9.65,2.313 12.25,5.203 2.61,2.891 4.1,7.383 4.49,13.477 0.4,6.289 -0.59,11.289 -2.94,15 -1.51,2.402 -3.66,3.691 -6.44,3.867 -2.54,0.168 -4.77,-0.769 -6.71,-2.801 -2.47,-2.59 -5.27,-9.062 -8.42,-19.425 -3.15,-10.379 -6.21,-17.997 -9.19,-22.86 -2.97,-4.883 -6.86,-8.594 -11.64,-11.164 -4.78,-2.558 -10.57,-3.621 -17.34,-3.191 -6.14,0.379 -11.78,2.461 -16.93,6.199 -5.14,3.762 -8.82,8.84 -11.04,15.234 -2.2,6.407 -3.01,14.258 -2.43,23.575 0.87,13.546 4.65,23.742 11.38,30.605 6.72,6.875 16.11,10.625 28.19,11.281" /><path
         id="path72"
         style="fill:none;stroke:#ec1d27;stroke-width:2.16000009;stroke-linecap:butt;stroke-linejoin:miter;stroke-miterlimit:2.41420007;stroke-dasharray:none;stroke-opacity:1"
         d="m 1094.32,652.824 0.72,-21.183 c -7.15,-0.821 -12.5,-3.055 -16.07,-6.719 -3.54,-3.66 -5.55,-8.777 -5.96,-15.371 -0.44,-6.973 0.71,-12.305 3.43,-16.035 2.73,-3.711 6.07,-5.703 10,-5.946 2.54,-0.168 4.75,0.45 6.62,1.817 1.88,1.375 3.58,3.875 5.13,7.5 1.03,2.468 2.97,8.152 5.77,17.019 3.61,11.418 7.66,19.328 12.15,23.742 6.32,6.211 13.71,9.043 22.19,8.504 5.46,-0.339 10.47,-2.214 15.02,-5.613 4.56,-3.391 7.89,-8.086 10.01,-14.055 2.12,-5.984 2.92,-13.093 2.4,-21.336 -0.86,-13.449 -4.44,-23.39 -10.77,-29.804 -6.34,-6.426 -14.44,-9.504 -24.29,-9.219 l 0.42,21.699 c 5.56,0.574 9.65,2.313 12.25,5.203 2.61,2.891 4.1,7.383 4.49,13.477 0.4,6.289 -0.59,11.289 -2.94,15 -1.51,2.402 -3.66,3.691 -6.44,3.867 -2.54,0.168 -4.77,-0.769 -6.71,-2.801 -2.47,-2.59 -5.27,-9.062 -8.42,-19.425 -3.15,-10.379 -6.21,-17.997 -9.19,-22.86 -2.97,-4.883 -6.86,-8.594 -11.64,-11.164 -4.78,-2.558 -10.57,-3.621 -17.34,-3.191 -6.14,0.379 -11.78,2.461 -16.93,6.199 -5.14,3.762 -8.82,8.84 -11.04,15.234 -2.2,6.407 -3.01,14.258 -2.43,23.575 0.87,13.546 4.65,23.742 11.38,30.605 6.72,6.875 16.11,10.625 28.19,11.281 z" /><path
         id="path74"
         style="fill:#ec1d27;fill-opacity:1;fill-rule:nonzero;stroke:none"
         d="m 309.594,240.582 18.008,-11.203 c -3.301,-6.399 -4.414,-12.078 -3.356,-17.078 1.07,-5 4.227,-9.5 9.449,-13.5 5.551,-4.25 10.625,-6.281 15.235,-6.082 4.609,0.191 8.105,1.863 10.519,5 1.531,2.019 2.254,4.179 2.156,6.511 -0.093,2.309 -1.218,5.129 -3.367,8.442 -1.484,2.238 -5.129,6.988 -10.929,14.258 -7.481,9.351 -11.805,17.121 -12.977,23.3 -1.641,8.711 0.117,16.43 5.281,23.18 3.321,4.336 7.668,7.449 13.02,9.356 5.351,1.894 11.101,2.058 17.254,0.488 6.152,-1.574 12.5,-4.863 19.054,-9.875 10.704,-8.188 16.965,-16.699 18.77,-25.539 1.824,-8.828 -0.125,-17.258 -5.852,-25.309 l -17.793,12.43 c 2.618,4.93 3.45,9.301 2.493,13.078 -0.957,3.77 -3.86,7.52 -8.704,11.223 -5.007,3.828 -9.707,5.797 -14.109,5.91 -2.832,0.066 -5.098,-0.992 -6.777,-3.203 -1.543,-2.02 -2.012,-4.399 -1.406,-7.137 0.781,-3.48 4.597,-9.422 11.453,-17.801 6.855,-8.402 11.496,-15.179 13.898,-20.359 2.391,-5.203 3.313,-10.473 2.781,-15.883 -0.535,-5.398 -2.859,-10.789 -6.992,-16.18 -3.738,-4.89 -8.601,-8.429 -14.578,-10.621 -5.977,-2.179 -12.246,-2.406 -18.789,-0.687 -6.555,1.719 -13.535,5.418 -20.938,11.09 -10.781,8.25 -17.148,17.078 -19.121,26.48 -1.961,9.399 0.149,19.301 6.317,29.711" /><path
         id="path76"
         style="fill:none;stroke:#ec1d27;stroke-width:2.16000009;stroke-linecap:butt;stroke-linejoin:miter;stroke-miterlimit:2.41420007;stroke-dasharray:none;stroke-opacity:1"
         d="m 309.594,240.582 18.008,-11.203 c -3.301,-6.399 -4.414,-12.078 -3.356,-17.078 1.07,-5 4.227,-9.5 9.449,-13.5 5.551,-4.25 10.625,-6.281 15.235,-6.082 4.609,0.191 8.105,1.863 10.519,5 1.531,2.019 2.254,4.179 2.156,6.511 -0.093,2.309 -1.218,5.129 -3.367,8.442 -1.484,2.238 -5.129,6.988 -10.929,14.258 -7.481,9.351 -11.805,17.121 -12.977,23.3 -1.641,8.711 0.117,16.43 5.281,23.18 3.321,4.336 7.668,7.449 13.02,9.356 5.351,1.894 11.101,2.058 17.254,0.488 6.152,-1.574 12.5,-4.863 19.054,-9.875 10.704,-8.188 16.965,-16.699 18.77,-25.539 1.824,-8.828 -0.125,-17.258 -5.852,-25.309 l -17.793,12.43 c 2.618,4.93 3.45,9.301 2.493,13.078 -0.957,3.77 -3.86,7.52 -8.704,11.223 -5.007,3.828 -9.707,5.797 -14.109,5.91 -2.832,0.066 -5.098,-0.992 -6.777,-3.203 -1.543,-2.02 -2.012,-4.399 -1.406,-7.137 0.781,-3.48 4.597,-9.422 11.453,-17.801 6.855,-8.402 11.496,-15.179 13.898,-20.359 2.391,-5.203 3.313,-10.473 2.781,-15.883 -0.535,-5.398 -2.859,-10.789 -6.992,-16.18 -3.738,-4.89 -8.601,-8.429 -14.578,-10.621 -5.977,-2.179 -12.246,-2.406 -18.789,-0.687 -6.555,1.719 -13.535,5.418 -20.938,11.09 -10.781,8.25 -17.148,17.078 -19.121,26.48 -1.961,9.399 0.149,19.301 6.317,29.711 z" /><path
         id="path78"
         style="fill:#ec1d27;fill-opacity:1;fill-rule:nonzero;stroke:none"
         d="m 426.449,182.93 c -4.898,-11.121 -6.054,-20.68 -3.445,-28.692 2.605,-8.008 7.871,-13.738 15.769,-17.226 7.922,-3.492 15.665,-3.5 23.243,-0.043 7.578,3.461 13.89,10.89 18.91,22.293 4.961,11.25 6.187,20.738 3.687,28.457 -2.488,7.711 -7.82,13.363 -15.996,16.98 -8.183,3.61 -16.004,3.692 -23.484,0.301 -7.473,-3.398 -13.703,-10.75 -18.684,-22.07 z m -20.738,8.351 c 4.41,10 9.605,17.739 15.594,23.207 4.441,4.032 9.472,7.172 15.086,9.453 5.617,2.27 11.144,3.36 16.593,3.25 7.278,-0.109 14.903,-1.929 22.903,-5.453 14.48,-6.379 24.082,-15.968 28.816,-28.777 4.727,-12.801 3.563,-27.223 -3.476,-43.211 -6.993,-15.859 -16.766,-26.379 -29.344,-31.539 -12.57,-5.152 -26.078,-4.551 -40.512,1.809 -14.609,6.441 -24.258,16.011 -28.953,28.73 -4.699,12.719 -3.602,26.891 3.293,42.531" /><path
         id="path80"
         style="fill:none;stroke:#ec1d27;stroke-width:2.16000009;stroke-linecap:butt;stroke-linejoin:miter;stroke-miterlimit:2.41420007;stroke-dasharray:none;stroke-opacity:1"
         d="m 426.449,182.93 c -4.898,-11.121 -6.054,-20.68 -3.445,-28.692 2.605,-8.008 7.871,-13.738 15.769,-17.226 7.922,-3.492 15.665,-3.5 23.243,-0.043 7.578,3.461 13.89,10.89 18.91,22.293 4.961,11.25 6.187,20.738 3.687,28.457 -2.488,7.711 -7.82,13.363 -15.996,16.98 -8.183,3.61 -16.004,3.692 -23.484,0.301 -7.473,-3.398 -13.703,-10.75 -18.684,-22.07 z m -20.738,8.351 c 4.41,10 9.605,17.739 15.594,23.207 4.441,4.032 9.472,7.172 15.086,9.453 5.617,2.27 11.144,3.36 16.593,3.25 7.278,-0.109 14.903,-1.929 22.903,-5.453 14.48,-6.379 24.082,-15.968 28.816,-28.777 4.727,-12.801 3.563,-27.223 -3.476,-43.211 -6.993,-15.859 -16.766,-26.379 -29.344,-31.539 -12.57,-5.152 -26.078,-4.551 -40.512,1.809 -14.609,6.441 -24.258,16.011 -28.953,28.73 -4.699,12.719 -3.602,26.891 3.293,42.531 z" /><path
         id="path82"
         style="fill:#ec1d27;fill-opacity:1;fill-rule:nonzero;stroke:none"
         d="m 587.809,119.039 19.597,-10.129 c -5.164,-11.0116 -11.91,-18.6795 -20.269,-23.0116 -8.352,-4.3398 -18.207,-5.5273 -29.563,-3.5781 -14.054,2.418 -24.773,9.1914 -32.179,20.3597 -7.391,11.152 -9.668,25.05 -6.805,41.711 3.027,17.597 9.922,30.507 20.703,38.691 10.762,8.18 23.562,10.988 38.379,8.449 12.949,-2.222 22.805,-7.859 29.57,-16.89 4.043,-5.36 6.531,-12.469 7.488,-21.352 l -22.019,-1.418 c -0.313,5.699 -2.18,10.469 -5.606,14.328 -3.429,3.86 -7.968,6.281 -13.652,7.262 -7.844,1.348 -14.695,-0.371 -20.547,-5.18 -5.851,-4.781 -9.863,-13.48 -12.019,-26.09 -2.297,-13.39 -1.535,-23.32 2.301,-29.832 3.839,-6.507 9.613,-10.418 17.308,-11.73 5.672,-0.9806 10.867,-0.008 15.582,2.891 4.707,2.91 8.625,8.082 11.731,15.519" /><path
         id="path84"
         style="fill:none;stroke:#ec1d27;stroke-width:2.16000009;stroke-linecap:butt;stroke-linejoin:miter;stroke-miterlimit:2.41420007;stroke-dasharray:none;stroke-opacity:1"
         d="m 587.809,119.039 19.597,-10.129 c -5.164,-11.0116 -11.91,-18.6795 -20.269,-23.0116 -8.352,-4.3398 -18.207,-5.5273 -29.563,-3.5781 -14.054,2.418 -24.773,9.1914 -32.179,20.3597 -7.391,11.152 -9.668,25.05 -6.805,41.711 3.027,17.597 9.922,30.507 20.703,38.691 10.762,8.18 23.562,10.988 38.379,8.449 12.949,-2.222 22.805,-7.859 29.57,-16.89 4.043,-5.36 6.531,-12.469 7.488,-21.352 l -22.019,-1.418 c -0.313,5.699 -2.18,10.469 -5.606,14.328 -3.429,3.86 -7.968,6.281 -13.652,7.262 -7.844,1.348 -14.695,-0.371 -20.547,-5.18 -5.851,-4.781 -9.863,-13.48 -12.019,-26.09 -2.297,-13.39 -1.535,-23.32 2.301,-29.832 3.839,-6.507 9.613,-10.418 17.308,-11.73 5.672,-0.9806 10.867,-0.008 15.582,2.891 4.707,2.91 8.625,8.082 11.731,15.519 z" /><path
         id="path86"
         style="fill:#ec1d27;fill-opacity:1;fill-rule:nonzero;stroke:none"
         d="m 632.328,76.8203 0.735,107.3707 21.679,-0.152 -0.73,-107.3788 -21.684,0.1601" /><path
         id="path88"
         style="fill:none;stroke:#ec1d27;stroke-width:2.16000009;stroke-linecap:butt;stroke-linejoin:miter;stroke-miterlimit:2.41420007;stroke-dasharray:none;stroke-opacity:1"
         d="m 632.328,76.8203 0.735,107.3707 21.679,-0.152 -0.73,-107.3788 z" /><path
         id="path90"
         style="fill:#ec1d27;fill-opacity:1;fill-rule:nonzero;stroke:none"
         d="m 686.168,76.75 -15.742,106.211 78.75,11.68 2.668,-17.969 -57.317,-8.5 3.496,-23.543 53.321,7.91 2.656,-17.898 -53.32,-7.911 4.289,-28.9097 59.332,8.8007 2.648,-17.8905 L 686.168,76.75" /><path
         id="path92"
         style="fill:none;stroke:#ec1d27;stroke-width:2.16000009;stroke-linecap:butt;stroke-linejoin:miter;stroke-miterlimit:2.41420007;stroke-dasharray:none;stroke-opacity:1"
         d="m 686.168,76.75 -15.742,106.211 78.75,11.68 2.668,-17.969 -57.317,-8.5 3.496,-23.543 53.321,7.91 2.656,-17.898 -53.32,-7.911 4.289,-28.9097 59.332,8.8007 2.648,-17.8905 z" /><path
         id="path94"
         style="fill:#ec1d27;fill-opacity:1;fill-rule:nonzero;stroke:none"
         d="m 822.145,106.34 -31.153,83.601 -29.855,-11.121 -6.336,17.012 79.953,29.797 6.344,-17.02 -29.782,-11.097 31.141,-83.602 -20.312,-7.57" /><path
         id="path96"
         style="fill:none;stroke:#ec1d27;stroke-width:2.16000009;stroke-linecap:butt;stroke-linejoin:miter;stroke-miterlimit:2.41420007;stroke-dasharray:none;stroke-opacity:1"
         d="m 822.145,106.34 -31.153,83.601 -29.855,-11.121 -6.336,17.012 79.953,29.797 6.344,-17.02 -29.782,-11.097 31.141,-83.602 z" /><path
         id="path98"
         style="fill:#ec1d27;fill-opacity:1;fill-rule:nonzero;stroke:none"
         d="m 922.641,153.898 -24.305,38.09 -66.609,31.274 21.433,13.66 44.141,-22.211 -1.973,49.129 21.043,13.437 0.258,-73.789 24.226,-37.957 -18.214,-11.633" /><path
         id="path100"
         style="fill:none;stroke:#ec1d27;stroke-width:2.16000009;stroke-linecap:butt;stroke-linejoin:miter;stroke-miterlimit:2.41420007;stroke-dasharray:none;stroke-opacity:1"
         d="m 922.641,153.898 -24.305,38.09 -66.609,31.274 21.433,13.66 44.141,-22.211 -1.973,49.129 21.043,13.437 0.258,-73.789 24.226,-37.957 z" /><path
         id="path102"
         style="fill:#ed192d;fill-opacity:1;fill-rule:nonzero;stroke:none"
         d="m 557.762,559.832 h -166.84 v 155.254 h 166.84 l -0.016,166.937 h 155.27 V 715.188 L 713,715.125 H 879.848 V 559.855 H 713 l 0.016,0.024 v -166.84 h -155.27 v 166.84 l 0.016,-0.047" /></g></g></svg>