<?xml version="1.0" encoding="UTF-8" standalone="no"?>
<!-- Created with Inkscape (http://www.inkscape.org/) -->

<svg
   version="1.1"
   id="svg1"
   width="501.98267"
   height="101.83733"
   viewBox="0 0 501.98267 101.83733"
   sodipodi:docname="Ghana Red Cross.svg"
   inkscape:version="1.3.2 (091e20e, 2023-11-25, custom)"
   xmlns:inkscape="http://www.inkscape.org/namespaces/inkscape"
   xmlns:sodipodi="http://sodipodi.sourceforge.net/DTD/sodipodi-0.dtd"
   xmlns="http://www.w3.org/2000/svg"
   xmlns:svg="http://www.w3.org/2000/svg">
  <defs
     id="defs1">
    <clipPath
       clipPathUnits="userSpaceOnUse"
       id="clipPath3">
      <path
         d="M 0.059998,76.378 H 376.487 V 0.06 H 0.059998 Z"
         transform="translate(-26.060001,-26.053001)"
         id="path3" />
    </clipPath>
  </defs>
  <sodipodi:namedview
     id="namedview1"
     pagecolor="#ffffff"
     bordercolor="#666666"
     borderopacity="1.0"
     inkscape:showpageshadow="2"
     inkscape:pageopacity="0.0"
     inkscape:pagecheckerboard="0"
     inkscape:deskcolor="#d1d1d1"
     inkscape:export-bgcolor="#ffffffff"
     inkscape:zoom="1.8626141"
     inkscape:cx="250.99133"
     inkscape:cy="50.735146"
     inkscape:window-width="1920"
     inkscape:window-height="1017"
     inkscape:window-x="-8"
     inkscape:window-y="-8"
     inkscape:window-maximized="1"
     inkscape:current-layer="g1">
    <inkscape:page
       x="0"
       y="0"
       inkscape:label="1"
       id="page1"
       width="501.98267"
       height="101.83733"
       margin="0"
       bleed="0"
       inkscape:export-filename="Ghana Red Cross.png"
       inkscape:export-xdpi="300"
       inkscape:export-ydpi="300" />
  </sodipodi:namedview>
  <g
     id="g1"
     inkscape:groupmode="layer"
     inkscape:label="1">
    <g
       id="group-MC1">
      <path
         id="path2"
         d="M 0,0 H -26.06 V 24.25 H 0 L -0.002,50.326 H 24.25 v -26.06 l -0.002,-0.01 H 50.309 V 0.004 H 24.248 l 0.002,0.003 v -26.06 H -0.002 V 0.007 L 0,0"
         style="fill:#ed192d;fill-opacity:1;fill-rule:nonzero;stroke:none"
         transform="matrix(1.3333333,0,0,-1.3333333,34.746667,67.1)"
         clip-path="url(#clipPath3)" />
      <path
         id="path4"
         d="M 0,0 H -1.044 L -1.235,2.769 H -1.278 C -2.3,0.597 -4.345,-0.319 -6.54,-0.319 c -4.792,0 -7.178,3.77 -7.178,7.923 0,4.154 2.386,7.925 7.178,7.925 3.196,0 5.794,-1.726 6.349,-5.049 H -1.64 c -0.192,1.747 -2.003,3.813 -4.9,3.813 -4.025,0 -5.73,-3.365 -5.73,-6.689 0,-3.322 1.705,-6.688 5.73,-6.688 3.366,0 5.326,2.364 5.262,5.581 H -6.454 V 7.732 L 0,7.732 V 0"
         style="fill:#ed192d;fill-opacity:1;fill-rule:nonzero;stroke:none"
         transform="matrix(1.3333333,0,0,-1.3333333,127.992,61.058667)" />
      <path
         id="path5"
         d="m 0,0 h 1.449 v -6.604 h 9.032 V 0 h 1.448 v -15.209 h -1.448 v 7.37 H 1.449 v -7.37 H 0 L 0,0"
         style="fill:#ed192d;fill-opacity:1;fill-rule:nonzero;stroke:none"
         transform="matrix(1.3333333,0,0,-1.3333333,132.00133,40.78)" />
      <path
         id="path6"
         d="M 0,0 H 5.986 L 3.047,7.796 Z M 2.301,9.245 H 3.92 L 9.884,-5.964 H 8.329 L 6.476,-1.235 H -0.447 L -2.279,-5.964 H -3.834 L 2.301,9.245"
         style="fill:#ed192d;fill-opacity:1;fill-rule:nonzero;stroke:none"
         transform="matrix(1.3333333,0,0,-1.3333333,155.15333,53.105333)" />
      <path
         id="path7"
         d="m 0,0 h 1.619 l 8.862,-12.866 h 0.042 V 0 h 1.449 V -15.209 H 10.353 L 1.491,-2.343 H 1.449 V -15.209 H 0 L 0,0"
         style="fill:#ed192d;fill-opacity:1;fill-rule:nonzero;stroke:none"
         transform="matrix(1.3333333,0,0,-1.3333333,170.43733,40.78)" />
      <path
         id="path8"
         d="M 0,0 H 5.986 L 3.046,7.796 Z M 2.301,9.245 H 3.92 L 9.884,-5.964 H 8.329 L 6.476,-1.235 H -0.447 L -2.279,-5.964 H -3.834 L 2.301,9.245"
         style="fill:#ed192d;fill-opacity:1;fill-rule:nonzero;stroke:none"
         transform="matrix(1.3333333,0,0,-1.3333333,193.61733,53.105333)" />
      <path
         id="path9"
         d="m 0,0 h 5.41 c 1.768,0 3.28,1.108 3.28,2.961 0,1.853 -1.107,3.025 -3.28,3.025 H 0 Z m -1.449,7.221 h 6.965 c 2.514,0 4.623,-1.214 4.623,-3.962 0,-1.917 -1.001,-3.493 -2.961,-3.877 V -0.66 C 9.159,-0.916 9.734,-2.279 9.84,-4.09 9.904,-5.133 9.904,-7.221 10.544,-7.988 H 8.946 C 8.584,-7.391 8.584,-6.262 8.541,-5.624 8.413,-3.493 8.243,-1.129 5.495,-1.235 H 0 V -7.988 H -1.449 V 7.221"
         style="fill:#ed192d;fill-opacity:1;fill-rule:nonzero;stroke:none"
         transform="matrix(1.3333333,0,0,-1.3333333,219.044,50.408)" />
      <path
         id="path10"
         d="M 0,0 H 10.502 V -1.235 H 1.448 V -6.731 H 9.926 V -7.967 H 1.448 v -6.007 h 9.16 v -1.235 H 0 V 0"
         style="fill:#ed192d;fill-opacity:1;fill-rule:nonzero;stroke:none"
         transform="matrix(1.3333333,0,0,-1.3333333,236.344,40.78)" />
      <path
         id="path11"
         d="m 0,0 h 3.089 c 4.366,-0.021 6.262,1.832 6.262,6.369 0,4.537 -1.896,6.391 -6.262,6.369 H 0 Z m -1.449,13.974 h 5.261 c 4.58,-0.107 6.987,-2.621 6.987,-7.605 0,-4.984 -2.407,-7.498 -6.987,-7.604 h -5.261 v 15.209"
         style="fill:#ed192d;fill-opacity:1;fill-rule:nonzero;stroke:none"
         transform="matrix(1.3333333,0,0,-1.3333333,255.40533,59.410667)" />
      <path
         id="path12"
         d="m 0,0 c -0.511,2.343 -2.449,3.685 -4.665,3.685 -4.026,0 -5.73,-3.365 -5.73,-6.688 0,-3.323 1.704,-6.689 5.73,-6.689 2.812,0 4.601,2.173 4.878,4.878 h 1.449 c -0.405,-3.728 -2.77,-6.113 -6.327,-6.113 -4.792,0 -7.178,3.77 -7.178,7.924 0,4.153 2.386,7.924 7.178,7.924 2.876,0 5.73,-1.726 6.114,-4.921 L 0,0"
         style="fill:#ed192d;fill-opacity:1;fill-rule:nonzero;stroke:none"
         transform="matrix(1.3333333,0,0,-1.3333333,296.224,46.914667)" />
      <path
         id="path13"
         d="m 0,0 h 5.411 c 1.768,0 3.28,1.108 3.28,2.961 0,1.853 -1.107,3.025 -3.28,3.025 H 0 Z m -1.448,7.221 h 6.965 c 2.514,0 4.623,-1.214 4.623,-3.962 0,-1.917 -1.001,-3.493 -2.961,-3.877 V -0.66 C 9.16,-0.916 9.735,-2.279 9.842,-4.09 9.905,-5.133 9.905,-7.221 10.545,-7.988 H 8.947 C 8.585,-7.391 8.585,-6.262 8.542,-5.624 8.414,-3.493 8.244,-1.129 5.496,-1.235 H 0 V -7.988 H -1.448 V 7.221"
         style="fill:#ed192d;fill-opacity:1;fill-rule:nonzero;stroke:none"
         transform="matrix(1.3333333,0,0,-1.3333333,303.61333,50.408)" />
      <path
         id="path14"
         d="m 0,0 c 4.004,0 5.709,3.366 5.709,6.688 0,3.324 -1.705,6.689 -5.709,6.689 -4.026,0 -5.73,-3.365 -5.73,-6.689 C -5.73,3.366 -4.026,0 0,0 Z m 0,14.613 c 4.771,0 7.157,-3.771 7.157,-7.925 0,-4.153 -2.386,-7.923 -7.157,-7.923 -4.793,0 -7.179,3.77 -7.179,7.923 0,4.154 2.386,7.925 7.179,7.925"
         style="fill:#ed192d;fill-opacity:1;fill-rule:nonzero;stroke:none"
         transform="matrix(1.3333333,0,0,-1.3333333,329.40667,59.837333)" />
      <path
         id="path15"
         d="m 0,0 c -0.063,-3.131 2.194,-4.09 4.964,-4.09 1.597,0 4.025,0.873 4.025,3.089 0,1.725 -1.725,2.407 -3.13,2.748 l -3.388,0.83 c -1.789,0.448 -3.429,1.3 -3.429,3.664 0,1.491 0.958,4.282 5.24,4.282 3.003,0 5.645,-1.619 5.623,-4.729 H 8.457 C 8.372,8.116 6.454,9.287 4.303,9.287 2.322,9.287 0.49,8.52 0.49,6.263 0.49,4.835 1.556,4.239 2.791,3.94 L 6.497,3.025 c 2.152,-0.575 3.941,-1.513 3.941,-4.005 0,-1.044 -0.426,-4.345 -5.815,-4.345 -3.6,0 -6.242,1.618 -6.071,5.325 L 0,0"
         style="fill:#ed192d;fill-opacity:1;fill-rule:nonzero;stroke:none"
         transform="matrix(1.3333333,0,0,-1.3333333,343.15733,54.384)" />
      <path
         id="path16"
         d="m 0,0 c -0.064,-3.131 2.194,-4.09 4.963,-4.09 1.597,0 4.026,0.873 4.026,3.089 0,1.725 -1.725,2.407 -3.132,2.748 l -3.386,0.83 c -1.79,0.448 -3.429,1.3 -3.429,3.664 0,1.491 0.958,4.282 5.239,4.282 3.004,0 5.646,-1.619 5.624,-4.729 H 8.457 C 8.371,8.116 6.454,9.287 4.303,9.287 2.322,9.287 0.49,8.52 0.49,6.263 0.49,4.835 1.555,4.239 2.79,3.94 L 6.497,3.025 c 2.151,-0.575 3.94,-1.513 3.94,-4.005 0,-1.044 -0.425,-4.345 -5.815,-4.345 -3.6,0 -6.241,1.618 -6.07,5.325 L 0,0"
         style="fill:#ed192d;fill-opacity:1;fill-rule:nonzero;stroke:none"
         transform="matrix(1.3333333,0,0,-1.3333333,361.33867,54.384)" />
      <path
         id="path17"
         d="m 0,0 c -0.064,-3.131 2.194,-4.09 4.963,-4.09 1.598,0 4.026,0.873 4.026,3.089 0,1.725 -1.725,2.407 -3.131,2.748 l -3.387,0.83 c -1.789,0.448 -3.43,1.3 -3.43,3.664 0,1.491 0.959,4.282 5.241,4.282 3.002,0 5.644,-1.619 5.623,-4.729 H 8.456 C 8.371,8.116 6.454,9.287 4.303,9.287 2.322,9.287 0.49,8.52 0.49,6.263 0.49,4.835 1.555,4.239 2.79,3.94 L 6.496,3.025 c 2.152,-0.575 3.942,-1.513 3.942,-4.005 0,-1.044 -0.427,-4.345 -5.816,-4.345 -3.6,0 -6.241,1.618 -6.071,5.325 L 0,0"
         style="fill:#ed192d;fill-opacity:1;fill-rule:nonzero;stroke:none"
         transform="matrix(1.3333333,0,0,-1.3333333,387.70133,54.384)" />
      <path
         id="path18"
         d="m 0,0 c 4.004,0 5.709,3.366 5.709,6.688 0,3.324 -1.705,6.689 -5.709,6.689 -4.026,0 -5.73,-3.365 -5.73,-6.689 C -5.73,3.366 -4.026,0 0,0 Z m 0,14.613 c 4.771,0 7.157,-3.771 7.157,-7.925 0,-4.153 -2.386,-7.923 -7.157,-7.923 -4.792,0 -7.178,3.77 -7.178,7.923 0,4.154 2.386,7.925 7.178,7.925"
         style="fill:#ed192d;fill-opacity:1;fill-rule:nonzero;stroke:none"
         transform="matrix(1.3333333,0,0,-1.3333333,413.46533,59.837333)" />
      <path
         id="path19"
         d="m 0,0 c -0.512,2.343 -2.451,3.685 -4.666,3.685 -4.026,0 -5.73,-3.365 -5.73,-6.688 0,-3.323 1.704,-6.689 5.73,-6.689 2.812,0 4.601,2.173 4.878,4.878 h 1.449 c -0.405,-3.728 -2.77,-6.113 -6.327,-6.113 -4.792,0 -7.178,3.77 -7.178,7.924 0,4.153 2.386,7.924 7.178,7.924 2.875,0 5.73,-1.726 6.114,-4.921 L 0,0"
         style="fill:#ed192d;fill-opacity:1;fill-rule:nonzero;stroke:none"
         transform="matrix(1.3333333,0,0,-1.3333333,441.13467,46.914667)" />
      <path
         id="path20"
         d="m 335.05,30.584 h 1.448 v 15.209 h -1.448 z"
         style="fill:#ed192d;fill-opacity:1;fill-rule:nonzero;stroke:none"
         transform="matrix(1.3333333,0,0,-1.3333333,0,101.83733)" />
      <path
         id="path21"
         d="M 0,0 H 10.502 V -1.235 H 1.449 V -6.731 H 9.926 V -7.967 H 1.449 v -6.007 h 9.159 v -1.235 H 0 V 0"
         style="fill:#ed192d;fill-opacity:1;fill-rule:nonzero;stroke:none"
         transform="matrix(1.3333333,0,0,-1.3333333,453.18133,40.78)" />
      <path
         id="path22"
         d="M 0,0 H 12.056 V -1.235 H 6.752 V -15.209 H 5.303 V -1.235 L 0,-1.235 V 0"
         style="fill:#ed192d;fill-opacity:1;fill-rule:nonzero;stroke:none"
         transform="matrix(1.3333333,0,0,-1.3333333,468.124,40.78)" />
      <path
         id="path23"
         d="M 0,0 -5.985,8.946 H -4.26 L 0.746,1.235 5.731,8.946 H 7.456 L 1.448,0 V -6.263 H 0 V 0"
         style="fill:#ed192d;fill-opacity:1;fill-rule:nonzero;stroke:none"
         transform="matrix(1.3333333,0,0,-1.3333333,492.04133,52.708)" />
    </g>
  </g>
</svg>
