<?xml version="1.0" encoding="utf-8"?>
<!-- Generator: Adobe Illustrator 16.0.0, SVG Export Plug-In . SVG Version: 6.00 Build 0)  -->
<!DOCTYPE svg PUBLIC "-//W3C//DTD SVG 1.1//EN" "http://www.w3.org/Graphics/SVG/1.1/DTD/svg11.dtd">
<svg version="1.1" xmlns="http://www.w3.org/2000/svg" xmlns:xlink="http://www.w3.org/1999/xlink" x="0px" y="0px"
	 width="595.28px" height="841.89px" viewBox="0 0 595.28 841.89" enable-background="new 0 0 595.28 841.89" xml:space="preserve">
<g id="Layer_1">
</g>
<g id="Layer_3">
	<g id="SLRCS_Logo">
		<circle fill="none" stroke="#000000" stroke-miterlimit="10" cx="294.944" cy="253.5" r="126.433"/>
		<path fill="none" d="M262.176,161.88c49.648-18.476,105.081,7.352,123.812,57.688c18.726,50.326-6.344,106.102-55.982,124.581
			c-49.65,18.475-105.081-7.355-123.805-57.685C187.466,236.136,212.53,180.353,262.176,161.88z"/>
		
			<text transform="matrix(-0.3201 -0.9619 0.9489 -0.3157 206.1729 286.582)" fill="#ED1C24" font-family="'MyriadPro-Regular'" font-size="25.3783">•</text>
		
			<text transform="matrix(-0.2606 -0.9797 0.9664 -0.2571 203.9844 279.9453)" fill="#ED1C24" font-family="'MyriadPro-Regular'" font-size="25.3783"> </text>
		
			<text transform="matrix(-0.2083 -0.9922 0.9787 -0.2054 202.6338 274.8887)" fill="#ED1C24" font-family="'MyriadPro-Regular'" font-size="25.3783"> </text>
		
			<text transform="matrix(-0.1552 -1.0018 0.9882 -0.1531 201.5542 269.7764)" fill="#ED1C24" font-family="'MyriadPro-Regular'" font-size="25.3783"> </text>
		
			<text transform="matrix(-0.0656 -1.0117 0.9979 -0.0647 200.5996 264.7725)" fill="#ED1C24" font-family="'MyriadPro-Regular'" font-size="25.3783">Ε</text>
		
			<text transform="matrix(0.0759 -1.0109 0.9972 0.0749 199.6738 252.6787)" fill="#ED1C24" font-family="'MyriadPro-Regular'" font-size="25.3783">Λ</text>
		
			<text transform="matrix(0.2301 -0.9873 0.9739 0.2269 200.7515 237.6758)" fill="#ED1C24" font-family="'MyriadPro-Regular'" font-size="25.3783">Λ</text>
		
			<text transform="matrix(0.3839 -0.9383 0.9255 0.3787 204.0703 223.0176)" fill="#ED1C24" font-family="'MyriadPro-Regular'" font-size="25.3783">Η</text>
		
			<text transform="matrix(0.5341 -0.8617 0.8499 0.5269 210.1113 208.0811)" fill="#ED1C24" font-family="'MyriadPro-Regular'" font-size="25.3783">Ν</text>
		
			<text transform="matrix(0.6297 -0.7945 0.7837 0.6212 219.0225 194.2422)" fill="#ED1C24" font-family="'MyriadPro-Regular'" font-size="25.3783">Ι</text>
		
			<text transform="matrix(0.7067 -0.7269 0.717 0.6971 222.4204 189.6064)" fill="#ED1C24" font-family="'MyriadPro-Regular'" font-size="25.3783">Κ</text>
		
			<text transform="matrix(0.8138 -0.6046 0.5964 0.8027 231.5596 179.9121)" fill="#ED1C24" font-family="'MyriadPro-Regular'" font-size="25.3783">Ο</text>
		
			<text transform="matrix(0.9007 -0.4652 0.4589 0.8885 245.3271 169.7998)" fill="#ED1C24" font-family="'MyriadPro-Regular'" font-size="25.3783">Σ</text>
		
			<text transform="matrix(0.9421 -0.3744 0.3693 0.9293 257.6548 163.6514)" fill="#ED1C24" font-family="'MyriadPro-Regular'" font-size="25.3783"> </text>
		
			<text transform="matrix(0.961 -0.3229 0.3185 0.9479 262.5059 161.7168)" fill="#ED1C24" font-family="'MyriadPro-Regular'" font-size="25.3783"> </text>
		
			<text transform="matrix(0.9772 -0.2699 0.2662 0.9639 267.4619 160.0449)" fill="#ED1C24" font-family="'MyriadPro-Regular'" font-size="25.3783"> </text>
		
			<text transform="matrix(0.9978 -0.1794 0.177 0.9842 272.3154 158.5156)" fill="#ED1C24" font-family="'MyriadPro-Regular'" font-size="25.3783">Ε</text>
		
			<text transform="matrix(1.0128 -0.0447 0.0441 0.999 284.2217 156.3018)" fill="#ED1C24" font-family="'MyriadPro-Regular'" font-size="25.3783">Ρ</text>
		
			<text transform="matrix(1.0085 0.1032 -0.1018 0.9948 297.3311 155.6299)" fill="#ED1C24" font-family="'MyriadPro-Regular'" font-size="25.3783">Υ</text>
		
			<text transform="matrix(0.978 0.267 -0.2634 0.9647 311.7471 156.9473)" fill="#ED1C24" font-family="'MyriadPro-Regular'" font-size="25.3783">Θ</text>
		
			<text transform="matrix(0.9237 0.4177 -0.412 0.9112 328.2012 161.5322)" fill="#ED1C24" font-family="'MyriadPro-Regular'" font-size="25.3783">Σ</text>
		
			<text transform="matrix(0.879 0.505 -0.4982 0.8671 340.6895 167.3896)" fill="#ED1C24" font-family="'MyriadPro-Regular'" font-size="25.3783"> </text>
		
			<text transform="matrix(0.8506 0.5516 -0.5441 0.839 345.2422 170)" fill="#ED1C24" font-family="'MyriadPro-Regular'" font-size="25.3783"> </text>
		
			<text transform="matrix(0.82 0.5962 -0.5881 0.8088 349.6133 172.8271)" fill="#ED1C24" font-family="'MyriadPro-Regular'" font-size="25.3783"> </text>
		
			<text transform="matrix(0.7586 0.6725 -0.6634 0.7483 353.8496 175.6221)" fill="#ED1C24" font-family="'MyriadPro-Regular'" font-size="25.3783">Σ</text>
		
			<text transform="matrix(0.6629 0.767 -0.7566 0.6539 364.0625 184.6914)" fill="#ED1C24" font-family="'MyriadPro-Regular'" font-size="25.3783">Τ</text>
		
			<text transform="matrix(0.5491 0.8522 -0.8406 0.5416 372.1719 193.8564)" fill="#ED1C24" font-family="'MyriadPro-Regular'" font-size="25.3783">Α</text>
		
			<text transform="matrix(0.4154 0.9248 -0.9122 0.4097 380.3838 206.5664)" fill="#ED1C24" font-family="'MyriadPro-Regular'" font-size="25.3783">Υ</text>
		
			<text transform="matrix(0.2837 0.9733 -0.96 0.2799 386.3525 219.8857)" fill="#ED1C24" font-family="'MyriadPro-Regular'" font-size="25.3783">Ρ</text>
		
			<text transform="matrix(0.132 1.0052 -0.9915 0.1302 390.209 232.3857)" fill="#ED1C24" font-family="'MyriadPro-Regular'" font-size="25.3783">Ο</text>
		
			<text transform="matrix(-0.0269 1.0134 -0.9996 -0.0265 392.3477 249.3506)" fill="#ED1C24" font-family="'MyriadPro-Regular'" font-size="25.3783">Σ</text>
		
			<text transform="matrix(-0.1247 1.0061 -0.9924 -0.123 391.79 263.1367)" fill="#ED1C24" font-family="'MyriadPro-Regular'" font-size="25.3783"> </text>
		
			<text transform="matrix(-0.1783 0.998 -0.9844 -0.1759 391.1543 268.3135)" fill="#ED1C24" font-family="'MyriadPro-Regular'" font-size="25.3783"> </text>
		
			<text transform="matrix(-0.2316 0.987 -0.9736 -0.2285 390.2393 273.4688)" fill="#ED1C24" font-family="'MyriadPro-Regular'" font-size="25.3783"> </text>
		
			<text transform="matrix(-0.2926 0.9706 -0.9574 -0.2886 389.0918 278.5166)" fill="#ED1C24" font-family="'MyriadPro-Regular'" font-size="25.3783">•</text>
		
			<text transform="matrix(-0.3527 0.9504 -0.9375 -0.3479 387.0527 285.2119)" fill="#ED1C24" font-family="'MyriadPro-Regular'" font-size="25.3783"> </text>
		
			<text transform="matrix(-0.4035 0.93 -0.9174 -0.398 385.2295 290.1396)" fill="#ED1C24" font-family="'MyriadPro-Regular'" font-size="25.3783"> </text>
		
			<text transform="matrix(-0.4528 0.9071 -0.8947 -0.4466 383.1602 294.9268)" fill="#ED1C24" font-family="'MyriadPro-Regular'" font-size="25.3783"> </text>
		
			<text transform="matrix(-0.501 0.8813 -0.8693 -0.4942 380.8301 299.6094)" fill="#ED1C24" font-family="'MyriadPro-Regular'" font-size="25.3783"> </text>
		
			<text transform="matrix(-0.548 0.8529 -0.8413 -0.5406 378.249 304.1602)" fill="#ED1C24" font-family="'MyriadPro-Regular'" font-size="25.3783"> </text>
		
			<text transform="matrix(-0.5935 0.8219 -0.8108 -0.5854 375.4346 308.5547)" fill="#ED1C24" font-family="'MyriadPro-Regular'" font-size="25.3783"> </text>
		
			<text transform="matrix(-0.6374 0.7883 -0.7776 -0.6287 372.3799 312.7959)" fill="#ED1C24" font-family="'MyriadPro-Regular'" font-size="25.3783"> </text>
		
			<text transform="matrix(-0.6797 0.7522 -0.742 -0.6705 369.0918 316.8711)" fill="#ED1C24" font-family="'MyriadPro-Regular'" font-size="25.3783"> </text>
		
			<text transform="matrix(-0.72 0.7137 -0.704 -0.7102 365.5996 320.7451)" fill="#ED1C24" font-family="'MyriadPro-Regular'" font-size="25.3783"> </text>
		
			<text transform="matrix(-0.7583 0.6728 -0.6637 -0.748 361.8867 324.4355)" fill="#ED1C24" font-family="'MyriadPro-Regular'" font-size="25.3783"> </text>
		
			<text transform="matrix(-0.7944 0.6299 -0.6213 -0.7836 357.9824 327.9082)" fill="#ED1C24" font-family="'MyriadPro-Regular'" font-size="25.3783"> </text>
		
			<text transform="matrix(-0.828 0.5849 -0.577 -0.8168 353.9004 331.1523)" fill="#ED1C24" font-family="'MyriadPro-Regular'" font-size="25.3783"> </text>
		
			<text transform="matrix(-0.8591 0.5382 -0.5309 -0.8474 349.6465 334.166)" fill="#ED1C24" font-family="'MyriadPro-Regular'" font-size="25.3783"> </text>
		
			<text transform="matrix(-0.8875 0.49 -0.4833 -0.8754 345.2285 336.9414)" fill="#ED1C24" font-family="'MyriadPro-Regular'" font-size="25.3783"> </text>
		
			<text transform="matrix(-0.9131 0.4404 -0.4344 -0.9007 340.6563 339.4736)" fill="#ED1C24" font-family="'MyriadPro-Regular'" font-size="25.3783"> </text>
		
			<text transform="matrix(-0.9359 0.3896 -0.3843 -0.9232 335.9365 341.7559)" fill="#ED1C24" font-family="'MyriadPro-Regular'" font-size="25.3783"> </text>
		
			<text transform="matrix(-0.9558 0.3379 -0.3333 -0.9428 331.1387 343.7617)" fill="#ED1C24" font-family="'MyriadPro-Regular'" font-size="25.3783"> </text>
		
			<text transform="matrix(-0.9727 0.2857 -0.2818 -0.9595 326.1924 345.5176)" fill="#ED1C24" font-family="'MyriadPro-Regular'" font-size="25.3783"> </text>
		
			<text transform="matrix(-0.9869 0.232 -0.2288 -0.9735 321.1953 346.9951)" fill="#ED1C24" font-family="'MyriadPro-Regular'" font-size="25.3783"> </text>
		
			<text transform="matrix(-0.9982 0.177 -0.1746 -0.9846 316.0986 348.1963)" fill="#ED1C24" font-family="'MyriadPro-Regular'" font-size="25.3783"> </text>
		
			<text transform="matrix(-1.0065 0.1214 -0.1197 -0.9928 310.9502 349.1162)" fill="#ED1C24" font-family="'MyriadPro-Regular'" font-size="25.3783"> </text>
		
			<text transform="matrix(-1.0117 0.0653 -0.0644 -0.9979 305.7578 349.748)" fill="#ED1C24" font-family="'MyriadPro-Regular'" font-size="25.3783"> </text>
		
			<text transform="matrix(-1.0137 0.0095 -0.0094 -1 300.5713 350.0898)" fill="#ED1C24" font-family="'MyriadPro-Regular'" font-size="25.3783"> </text>
		
			<text transform="matrix(-1.0127 -0.0468 0.0461 -0.9989 295.3262 350.1445)" fill="#ED1C24" font-family="'MyriadPro-Regular'" font-size="25.3783"> </text>
		
			<text transform="matrix(-1.0086 -0.1025 0.1011 -0.9949 290.1084 349.9102)" fill="#ED1C24" font-family="'MyriadPro-Regular'" font-size="25.3783"> </text>
		
			<text transform="matrix(-1.0015 -0.1575 0.1553 -0.9879 284.9277 349.3906)" fill="#ED1C24" font-family="'MyriadPro-Regular'" font-size="25.3783"> </text>
		
			<text transform="matrix(-0.9914 -0.212 0.2091 -0.9779 279.7598 348.585)" fill="#ED1C24" font-family="'MyriadPro-Regular'" font-size="25.3783"> </text>
		
			<text transform="matrix(-0.9784 -0.2656 0.2619 -0.9651 274.6528 347.499)" fill="#ED1C24" font-family="'MyriadPro-Regular'" font-size="25.3783"> </text>
		
			<text transform="matrix(-0.9625 -0.3183 0.3139 -0.9494 269.6006 346.1338)" fill="#ED1C24" font-family="'MyriadPro-Regular'" font-size="25.3783"> </text>
		
			<text transform="matrix(-0.9439 -0.3698 0.3648 -0.9311 264.6323 344.4971)" fill="#ED1C24" font-family="'MyriadPro-Regular'" font-size="25.3783"> </text>
		
			<text transform="matrix(-0.9226 -0.4201 0.4144 -0.9101 259.7593 342.5938)" fill="#ED1C24" font-family="'MyriadPro-Regular'" font-size="25.3783"> </text>
		
			<text transform="matrix(-0.8987 -0.4691 0.4628 -0.8865 254.9922 340.4297)" fill="#ED1C24" font-family="'MyriadPro-Regular'" font-size="25.3783"> </text>
		
			<text transform="matrix(-0.8723 -0.5166 0.5096 -0.8604 250.3594 338.0195)" fill="#ED1C24" font-family="'MyriadPro-Regular'" font-size="25.3783"> </text>
		
			<text transform="matrix(-0.8433 -0.5626 0.555 -0.8319 245.8555 335.3584)" fill="#ED1C24" font-family="'MyriadPro-Regular'" font-size="25.3783"> </text>
		
			<text transform="matrix(-0.8119 -0.6071 0.5989 -0.8008 241.4902 332.4541)" fill="#ED1C24" font-family="'MyriadPro-Regular'" font-size="25.3783"> </text>
		
			<text transform="matrix(-0.7782 -0.6497 0.6409 -0.7676 237.3037 329.3301)" fill="#ED1C24" font-family="'MyriadPro-Regular'" font-size="25.3783"> </text>
		
			<text transform="matrix(-0.7423 -0.6905 0.6811 -0.7322 233.291 325.9883)" fill="#ED1C24" font-family="'MyriadPro-Regular'" font-size="25.3783"> </text>
		
			<text transform="matrix(-0.7041 -0.7294 0.7195 -0.6945 229.4473 322.4199)" fill="#ED1C24" font-family="'MyriadPro-Regular'" font-size="25.3783"> </text>
		
			<text transform="matrix(-0.6641 -0.766 0.7556 -0.655 225.8223 318.6748)" fill="#ED1C24" font-family="'MyriadPro-Regular'" font-size="25.3783"> </text>
		
			<text transform="matrix(-0.6219 -0.8006 0.7897 -0.6134 222.3828 314.7168)" fill="#ED1C24" font-family="'MyriadPro-Regular'" font-size="25.3783"> </text>
		
			<text transform="matrix(-0.5781 -0.8328 0.8215 -0.5703 219.1753 310.5947)" fill="#ED1C24" font-family="'MyriadPro-Regular'" font-size="25.3783"> </text>
		
			<text transform="matrix(-0.5328 -0.8625 0.8507 -0.5256 216.1924 306.3096)" fill="#ED1C24" font-family="'MyriadPro-Regular'" font-size="25.3783"> </text>
		<circle fill="none" cx="294.95" cy="253.499" r="84.561"/>
		<path fill="none" stroke="#000000" stroke-miterlimit="10" d="M381.092,257.066c0,46.705-37.863,84.563-84.563,84.563
			c-46.701,0-84.558-37.858-84.558-84.563c0-46.7,37.857-84.558,84.558-84.558C343.229,172.509,381.092,210.366,381.092,257.066z"/>
		<polygon fill="#E92629" points="275.837,276.45 231.22,276.45 231.22,237.719 275.837,237.719 275.837,237.67 275.837,192.485 
			314.049,192.485 314.049,237.67 314.049,237.701 358.666,237.701 358.666,276.45 314.049,276.45 314.049,276.45 314.049,321.652 
			275.837,321.652 275.837,276.45 		"/>
	</g>
	<path fill="none" d="M184.921,275.804c10.351,61.64,68.703,103.225,130.343,92.869c61.637-10.341,103.215-68.689,92.881-130.332
		c-10.332-61.645-68.7-103.223-130.333-92.881C216.165,155.8,174.581,214.161,184.921,275.804z"/>
	<text transform="matrix(0.1975 0.9803 -0.9803 0.1975 185.0732 276.8657)"><tspan x="0" y="0" fill="#ED1C24" font-family="'MyriadPro-Regular'" font-size="25.1741"> </tspan><tspan x="5.879" y="-0.014" fill="#ED1C24" font-family="'MyriadPro-Regular'" font-size="25.1741" rotate="-2.943"> </tspan><tspan x="11.777" y="-0.332" fill="#ED1C24" font-family="'MyriadPro-Regular'" font-size="25.1741" rotate="-5.925"> </tspan><tspan x="17.641" y="-0.956" fill="#ED1C24" font-family="'MyriadPro-Regular'" font-size="25.1741" rotate="-8.918"> </tspan><tspan x="23.463" y="-1.884" fill="#ED1C24" font-family="'MyriadPro-Regular'" font-size="25.1741" rotate="-11.92"> </tspan><tspan x="29.229" y="-3.116" fill="#ED1C24" font-family="'MyriadPro-Regular'" font-size="25.1741" rotate="-14.927"> </tspan><tspan x="34.91" y="-4.645" fill="#ED1C24" font-family="'MyriadPro-Regular'" font-size="25.1741" rotate="-17.928"> </tspan><tspan x="41.169" y="-6.426" fill="#ED1C24" font-family="'MyriadPro-Regular'" font-size="25.1741" rotate="-24.05">H</tspan><tspan x="57.445" y="-13.963" fill="#ED1C24" font-family="'MyriadPro-Regular'" font-size="25.1741" rotate="-32.115">E</tspan><tspan x="68.959" y="-21.295" fill="#ED1C24" font-family="'MyriadPro-Regular'" font-size="25.1741" rotate="-38.866">L</tspan><tspan x="79.132" y="-29.585" fill="#ED1C24" font-family="'MyriadPro-Regular'" font-size="25.1741" rotate="-45.464">L</tspan><tspan x="88.303" y="-38.991" fill="#ED1C24" font-family="'MyriadPro-Regular'" font-size="25.1741" rotate="-52.206">E</tspan><tspan x="96.873" y="-49.976" fill="#ED1C24" font-family="'MyriadPro-Regular'" font-size="25.1741" rotate="-60.301">N</tspan><tspan x="105.347" y="-65.551" fill="#ED1C24" font-family="'MyriadPro-Regular'" font-size="25.1741" rotate="-66.642">I</tspan><tspan x="108.324" y="-72.04" fill="#ED1C24" font-family="'MyriadPro-Regular'" font-size="25.1741" rotate="-72.466">C</tspan><tspan x="112.773" y="-87.047" fill="#ED1C24" font-family="'MyriadPro-Regular'" font-size="25.1741" rotate="-78.083"> </tspan><tspan x="114.219" y="-93.203" fill="#ED1C24" font-family="'MyriadPro-Regular'" font-size="25.1741" rotate="-83.353">R</tspan><tspan x="115.82" y="-107.994" fill="#ED1C24" font-family="'MyriadPro-Regular'" font-size="25.1741" rotate="-90.467">E</tspan><tspan x="115.756" y="-121.918" fill="#ED1C24" font-family="'MyriadPro-Regular'" font-size="25.1741" rotate="-98.586">D</tspan><tspan x="112.713" y="-139.578" fill="#ED1C24" font-family="'MyriadPro-Regular'" font-size="25.1741" rotate="-104.812"> </tspan><tspan x="111.243" y="-145.819" fill="#ED1C24" font-family="'MyriadPro-Regular'" font-size="25.1741" rotate="-110.434">C</tspan><tspan x="105.494" y="-160.846" fill="#ED1C24" font-family="'MyriadPro-Regular'" font-size="25.1741" rotate="-118.336">R</tspan><tspan x="98.307" y="-174.216" fill="#ED1C24" font-family="'MyriadPro-Regular'" font-size="25.1741" rotate="-126.951">O</tspan><tspan x="86.714" y="-189.144" fill="#ED1C24" font-family="'MyriadPro-Regular'" font-size="25.1741" rotate="-135.216">S</tspan><tspan x="76.929" y="-198.745" fill="#ED1C24" font-family="'MyriadPro-Regular'" font-size="25.1741" rotate="-142.115">S</tspan><tspan x="66.291" y="-206.778" fill="#ED1C24" font-family="'MyriadPro-Regular'" font-size="25.1741" rotate="-147.066"> </tspan></text>
</g>
</svg>
